<svg xmlns="http://www.w3.org/2000/svg" viewBox="0 0 1400 933"><defs/><filter id="a"><feGaussianBlur stdDeviation="12"/></filter><rect width="100%" height="100%" fill="#584641"/><g filter="url(#a)"><g fill-opacity=".5" transform="translate(2.7 2.7) scale(5.46875)"><path fill="#fff" d="M-16 169l242 16L101-16z"/><circle r="1" fill="#debea1" transform="matrix(-43.04872 63.63056 -84.84214 -57.39923 37.6 0)"/><ellipse cx="126" cy="165" fill="#fff" rx="130" ry="20"/><circle r="1" fill="#354139" transform="matrix(-7.8964 -71.52466 29.03305 -3.20528 162.4 73.7)"/><ellipse cx="106" cy="78" fill="#ecf8ff" rx="26" ry="169"/><ellipse cx="41" cy="66" fill="#7b4a27" rx="41" ry="57"/><circle r="1" fill="#eaf2ee" transform="matrix(-52.1098 1.53648 -.50968 -17.28592 31.2 3.5)"/><circle r="1" fill="#ffbb68" transform="matrix(-17.15503 -4.20617 5.90255 -24.07382 43.8 61)"/><circle r="1" fill="#a5aea1" transform="matrix(67.01018 6.14848 -1.03158 11.24287 207.1 114.3)"/><circle r="1" fill="#78917e" transform="rotate(139.2 94.5 47.4) scale(39.14265 36.00428)"/><path fill="#dee3de" d="M194.1 143L4.4 185-16 117.5l62 16.6z"/><path fill="#462416" d="M61 16h19v97H61z"/><path fill="#273b3c" d="M134 46h122v52H134z"/><path fill="#190500" d="M30 23L7 28l6 71z"/><path fill="#562623" d="M242.6 157.7l-6.2-26.6-105.4-3.2 10.9 9.2z"/><path fill="#b5cad1" d="M7 35l-21 57 21-3z"/><path fill="#d0e8f5" d="M190 158h66v12h-66z"/><ellipse cx="85" cy="112" fill="#c3c4bc" rx="65" ry="5"/><path fill="#d6dbd6" d="M188 129l-6.6 47.7.5-74 11.1 10z"/><path fill="#090c00" d="M11 99l13 21-8 6z"/><path fill="#363936" d="M133 18h33v78h-33z"/><path fill="#bf9563" d="M89 94h17v28H89z"/><path fill="#93978d" d="M252.2 164.7l-15.7-43.3 11.3-4 15.7 43.2z"/><circle r="1" fill="#341808" transform="rotate(72.6 8 45.6) scale(4.2128 32.17213)"/><path fill="#ff9f61" d="M28 75.1l-1-33L64 41l1 33z"/><circle r="1" fill="#a57e6b" transform="rotate(-130.2 104.8 21.7) scale(19.92207 18.01712)"/><circle r="1" fill="#515650" transform="rotate(112 74 89.9) scale(26.73573 57.52769)"/><path fill="#7b818a" d="M64.7 103.3l9.3 7.1-23.4-34.1L5.8 97.2z"/><path fill="#d6d8d9" d="M-16 152l149-38 6 51z"/><path fill="#909481" d="M219 25h-40V-3h40z"/><circle r="1" fill="#374442" transform="matrix(71.70508 1.67975 -.512 21.8566 228.9 91.6)"/><ellipse cx="223" cy="104" fill="#c5c9b2" rx="14" ry="3"/><ellipse cx="195" cy="133" fill="#461b19" rx="8" ry="14"/><path fill="#b9b7ae" d="M-16 16.5L143.3-1.8 34.9 23 5 27.6z"/><path fill="#b6bab5" d="M271 130.8l-63.3-9.4-33-8.7 16.1-3.6z"/><ellipse cx="81" cy="50" fill="#bad4ef" rx="2" ry="89"/><circle r="1" fill="#615242" transform="rotate(93.7 -38.3 59.4) scale(6.34067 47.02508)"/><path fill="#482818" d="M51 18h28v19H51z"/><path fill="#e3e1de" d="M118 106l28-7-48 79z"/><path fill="#cd7746" d="M23 67h39v19H23z"/><path fill="#6c3d37" d="M135 125h21v12h-21z"/><path fill="#474641" d="M6 118h62v4H6z"/><path fill="#c4d7e4" d="M158 191.5L142.3 158l41.7-19.5 15.7 33.5z"/><path fill="#a3b3c1" d="M115.3 26.2l-41-18.3 4.4-10 41 18.2z"/><path fill="#aeb5b9" d="M-35.2 125.7l132.9 4.6-.5 14-132.9-4.6z"/><ellipse cx="136" cy="24" fill="#2c322c" rx="5" ry="78"/><ellipse cx="245" cy="22" fill="#35504d" rx="15" ry="46"/><path fill="#d9d9d9" d="M130-13L79 73l56 71z"/><ellipse cx="161" cy="111" fill="#323632" rx="18" ry="2"/><path fill="#c7d3dc" d="M268.3 169.3l-80.4-23.5-35.3 39.2H252z"/><path fill="#a9b09d" d="M200 97h12v6h-12z"/><path fill="#d9cf91" d="M141.5 96.8l21.8 3.5-.8 4.9-21.8-3.5z"/><path fill="#81878f" d="M23 84h39v18H23z"/><path fill="#29312f" d="M209.3 128.8l48.9 28.4-29.8.4 15.2-25.5z"/><path fill="#472913" d="M33.9 40.1l-24.8 16 4.2-27 23.8-7.4z"/><path fill="#978b73" d="M15 130.6l30.8 6.8-5.4-10.4-17.3-10.1z"/><path fill="#f7edcc" d="M51.3 190.7L-21 161.4l9.7-24L61 166.5z"/><path fill="#3f3224" d="M11.8 126.4l7.9-3.4 3.6-41.9L7.8 53.6z"/><ellipse cx="122" cy="146" fill="#c8ced8" rx="45" ry="10"/><path fill="#96abbd" d="M51 109h31v23H51z"/><path fill="#ffbc7f" d="M33 43h20v18H33z"/><path fill="#dfe3c9" d="M255 138.5l-12.5-3.1.4-2 12.6 3.2z"/><ellipse cx="18" cy="104" fill="#5c4436" rx="62" ry="4"/><path fill="#c0d2e8" d="M81 0h7v130h-7z"/><path fill="#b79b7b" d="M89 123l-1-31 27 25z"/><ellipse cx="238" cy="96" fill="#26343b" rx="35" ry="7"/><path fill="#d4d8c6" d="M161.2 127l-.3 1-24-7 .2-1z"/><path fill="#b75f2c" d="M20 45h9v35h-9z"/><path fill="#d7d0ca" d="M178 109l9 27 3-28z"/><path fill="#2f3230" d="M143.1 61.3l-8.2 34.1 75.6 9-50.3-20.2z"/><path fill="#314445" d="M220 130l-29-17v18z"/><path fill="#826041" d="M-16 101.6v30.7l33.9-28.5-2.2-13.4z"/><ellipse cx="158" cy="121" fill="#581d25" rx="15" ry="2"/><path fill="#eeebe4" d="M137 119l-13 26-42-22z"/><path fill="#86685b" d="M152.2 104.9l-17.7 20.4 16.2 10.5-10.8-37.9z"/><path fill="#6e6d59" d="M258.7 165.6l-13-5.3 5.6-13.9 13 5.3z"/><path fill="#7a443c" d="M182.9 124.8l-32.9 3.9 42.9 8.5-15.6-9z"/><ellipse cx="75" cy="86" fill="#c86337" rx="2" ry="23"/><circle r="1" fill="#bbb0a2" transform="matrix(.11509 -2.34743 13.83117 .6781 158 117)"/><ellipse cx="249" cy="130" fill="#0f0c0f" rx="4" ry="3"/><path fill="#ccc9be" d="M-13 158l69-6-72-40z"/><circle r="1" fill="#50343a" transform="matrix(7.2384 .25277 -.05697 1.63143 248.6 120.6)"/><path fill="#60675e" d="M176 25h57v31h-57z"/><path fill="#938d82" d="M7.4 53.3L8.6 8.6-7.9 24.2l8.2 84.9z"/><path fill="#6d332e" d="M232 154l-39-28-5 17z"/><path fill="#a4a497" d="M196.4 102.5l13.7 20.5 25.4 3.8-44.6-12.2z"/><path fill="#000004" d="M22 102l-6 18-2-11z"/><path fill="#c5cec5" d="M159 124h15v3h-15z"/><path fill="#5e412c" d="M15.8 94.3l-.4-4 24.8-2.6.4 4z"/><path fill="#c5d2dd" d="M240 125h11v4h-11z"/><ellipse cx="102" cy="164" fill="#e5e7e7" rx="58" ry="9"/><path fill="#4e2926" d="M173 121h7v10h-7z"/><path fill="#33232f" d="M135 133l34.4 6-.3 2-34.5-6z"/><path fill="#c0bfa9" d="M221.3 106.8l-9.2-5.4-11.9-3.9 15.4 9.7z"/><ellipse cx="255" cy="141" fill="#57211e" rx="10" ry="4"/><path fill="#ece9e3" d="M99.5-10.7L122-6l-3.5 16.6L96 6z"/><path fill="#3d5a66" d="M207 125h34v4h-34z"/><path fill="#63534d" d="M34.5 123.6l45.4-10.4-20.8 7.9-44.1-4.6z"/><path fill="#674530" d="M64 20l-2 51 19-31z"/><path fill="#d3d6dd" d="M75.1 117.3l2.2 12.1 19.5-13.5-24-7.3z"/></g></g></svg>