<svg xmlns="http://www.w3.org/2000/svg" viewBox="0 0 933 1400"><defs/><filter id="prefix__a"><feGaussianBlur stdDeviation="12"/></filter><rect width="100%" height="100%" fill="#3e3029"/><g filter="url(#prefix__a)"><g transform="translate(2.7 2.7) scale(5.46875)"><circle r="1" fill="#fff" fill-opacity=".5" transform="matrix(58.31254 158.62108 -97.79803 35.95267 87.1 118.7)"/><circle r="1" fill="#ffffef" fill-opacity=".5" transform="matrix(-.55797 105.80892 -74.30761 -.39185 69.7 105.7)"/><ellipse cx="34" cy="208" fill="#2c1700" fill-opacity=".5" rx="15" ry="27"/><ellipse cx="159" cy="101" fill="#855821" fill-opacity=".5" rx="18" ry="255"/><circle r="1" fill="#e18a45" fill-opacity=".5" transform="matrix(-13.00885 -37.11252 79.8317 -27.98296 114.9 238.9)"/><circle r="1" fill="#fff0d9" fill-opacity=".5" transform="rotate(23.6 -285.3 106) scale(26.81465 84.64639)"/><path fill="#ede8ef" fill-opacity=".5" d="M130 196l-87 12 30-74z"/><path fill="#f5f9f4" fill-opacity=".5" d="M104 190h66v6h-66z"/><circle r="1" fill="#c9b6a6" fill-opacity=".5" transform="matrix(7.72315 32.5163 -150.60986 35.77229 3 25.3)"/><path fill="#3b4537" fill-opacity=".5" d="M142 4h15v66h-15z"/><path fill="#605748" fill-opacity=".5" d="M29.5 222.5l-45.5-8.6 74.4-41.3-2.2 6.4z"/><path fill="#351e0e" fill-opacity=".5" d="M124 172h46v7h-46z"/><path fill="#decdc8" fill-opacity=".5" d="M67 22h74v128H67z"/><path fill="#d6965a" fill-opacity=".5" d="M43.8 242l-4-25.6 40.4-6.4 4 25.6z"/><ellipse cx="106" cy="157" fill="#c0b2ae" fill-opacity=".5" rx="22" ry="37"/><path fill="#fffdff" fill-opacity=".5" d="M63.3 157.3l-.7 14-48-2.6.8-14z"/><ellipse cx="139" cy="239" fill="#9a6c49" fill-opacity=".5" rx="32" ry="17"/><ellipse cx="75" cy="102" fill="#eceef2" fill-opacity=".5" rx="10" ry="108"/><path fill="#4a4a4b" fill-opacity=".5" d="M10.1 158.7l4.3-3.7-.6-16.6-4.2 15.2z"/><circle r="1" fill="#c3b3a6" fill-opacity=".5" transform="matrix(13.03992 -100.40186 25.43911 3.30396 113.2 21.4)"/><path fill="#2d1b0a" fill-opacity=".5" d="M-3.2 238.7l44.7 17.8-2.6-40.6-43 6.4z"/><path fill="#a89a81" fill-opacity=".5" d="M-10.8 180.8l76.4-8.3L22.7 195l-9.4 18.7z"/><path fill="#756a4a" fill-opacity=".5" d="M142 16h28v125h-28z"/><path fill="#e3dbd3" fill-opacity=".5" d="M126 154l35-11-49-4z"/><circle cx="61" cy="146" r="6" fill="#686456" fill-opacity=".5"/><path fill="#29251d" fill-opacity=".5" d="M55.7 221.5L26.1 207l2.2-4.5L57.9 217z"/><ellipse cx="57" cy="203" fill="#eee5e1" fill-opacity=".5" rx="14" ry="11"/><path fill="#a59891" fill-opacity=".5" d="M36 2L12 87 6 24z"/><circle r="1" fill="#faf8fe" fill-opacity=".5" transform="matrix(-1.68536 22.95021 -20.48983 -1.50468 0 128.4)"/><path fill="#feffff" fill-opacity=".5" d="M46.7 259.9l-8.2-5.6 2.8-4.2 8.2 5.6z"/><circle r="1" fill="#cf9a74" fill-opacity=".5" transform="matrix(71.87488 -5.96916 1.17256 14.11882 140.5 211)"/><path fill="#a08257" fill-opacity=".5" d="M185 175.7L149.6 72.3l-.3-17.4 21.5-24z"/><path fill="#a86b4d" fill-opacity=".5" d="M185 155.8l-42.9-6-4.8 8.5-20.8 23.2z"/><path fill="#dfcc9a" fill-opacity=".5" d="M0 169h42v15H0z"/><path fill="#c0ab89" fill-opacity=".5" d="M60 10h6v130h-6z"/><path fill="#e5e2d6" fill-opacity=".5" d="M133 39h9v97h-9z"/><path fill="#cfbfa1" fill-opacity=".5" d="M20 132h37v24H20z"/><path fill="#8b806a" fill-opacity=".5" d="M120 180h50v8h-50z"/><circle r="1" fill="#c48d5d" fill-opacity=".5" transform="matrix(12.28401 13.51736 -40.16527 36.50052 103.6 233.2)"/><path fill="#696975" fill-opacity=".5" d="M5 182.7L26 194l-7 13.3L-2.1 196z"/><path fill="#c3ab8f" fill-opacity=".5" d="M33 213l13-23 7 7z"/><path fill="#a69b8e" fill-opacity=".5" d="M145.1 5.2l-21.7 33.4-24.9-49.4 77.2-5.2z"/><path fill="#3c3629" fill-opacity=".5" d="M142 8h7v42h-7z"/><path fill="#928a86" fill-opacity=".5" d="M7 221l1-18 24-20z"/><path fill="#41352a" fill-opacity=".5" d="M55.4 176.9l-39.9 30.8 25.4 55.6-9.3-56.4z"/><path fill="#eee3cc" fill-opacity=".5" d="M28 38h33v100H28z"/><path fill="#e2edf2" fill-opacity=".5" d="M142.9 195.2l.5-4 29.7 3.6-.5 4z"/><ellipse cx="158" cy="169" fill="#7a1d19" fill-opacity=".5" rx="27" ry="2"/><path fill="#f0c08e" fill-opacity=".5" d="M41 215h5v18h-5z"/><path fill="#beae92" fill-opacity=".5" d="M69.9 19.3L21.4 58.1 75.4.7 91.3-16z"/><circle r="1" fill="#ccc0b8" fill-opacity=".5" transform="matrix(-13.9292 -38.68985 21.66852 -7.80115 110.9 136.5)"/><circle r="1" fill="#efe6e0" fill-opacity=".5" transform="rotate(167.9 35.9 105) scale(31.83587 4.74943)"/><path fill="#391f13" fill-opacity=".5" d="M25 215h15v41H25z"/><ellipse cx="152" cy="171" fill="#fdefbf" fill-opacity=".5" rx="19" ry="1"/><path fill="#90614c" fill-opacity=".5" d="M159.8 248.3l-51.9-21 2.3-5.6 51.9 21z"/><path fill="#605944" fill-opacity=".5" d="M142 69h7v72h-7z"/><path fill="#2a261d" fill-opacity=".5" d="M8.8 214.3l-8.4 8.4 8.4-24.9-24.8-2z"/><path fill="#c6b6a8" fill-opacity=".5" d="M-3.2 40.5l28.5 5.6-6.1 31.4-28.5-5.6z"/><path fill="#50090b" fill-opacity=".5" d="M144 162h26v2h-26z"/><path fill="#d5a27b" fill-opacity=".5" d="M73 209l96 7-46-18z"/><ellipse cx="151" cy="91" fill="#7b8a76" fill-opacity=".5" rx="3" ry="43"/><path fill="#988861" fill-opacity=".5" d="M14.3 244.6l4.1 7 2.5 16.1L22 251z"/><ellipse cx="169" cy="142" fill="#caae96" fill-opacity=".5" rx="16" ry="3"/><path fill="#575a45" fill-opacity=".5" d="M177.1 122.5l3 11.7-29.2 7.3-3-11.7z"/><ellipse cx="1" cy="122" fill="#f4eee9" fill-opacity=".5" rx="10" ry="41"/><path fill="#2f0600" fill-opacity=".5" d="M158 148h12v2h-12z"/><ellipse cx="147" cy="175" fill="#493a2d" fill-opacity=".5" rx="26" ry="3"/><path fill="#e2e0df" fill-opacity=".5" d="M79 0h7v151h-7z"/><circle r="1" fill="#6b412f" fill-opacity=".5" transform="matrix(11.80045 -2.12324 .54862 3.04909 168.2 238.4)"/><path fill="#dfcea0" fill-opacity=".5" d="M27 190.2l28.8-18.8-71.8-5.7 42.3 14.5z"/><path fill="#998f7d" fill-opacity=".5" d="M51.7 142.3l15.4 3.6-18.9 7.7 2.5-9.3z"/><circle r="1" fill="#5d5643" fill-opacity=".5" transform="matrix(-.95345 30.26752 -10.42825 -.3285 157.9 18.6)"/><path fill="#ece8e1" fill-opacity=".5" d="M137 153l13-10-15 2z"/><path fill="#e4e3e5" fill-opacity=".5" d="M88.9 206.9l-37.1-3.4 20.1-81.4 10.1-9.3z"/><path fill="#c28d61" fill-opacity=".5" d="M40 219h61v22H40z"/><path fill="#602e22" fill-opacity=".5" d="M74 271l-4-15-28-9z"/><path fill="#d7ccb3" fill-opacity=".5" d="M141.7 184.2l36.7 4.6-.1 1-36.7-4.6z"/><path fill="#c4b9b4" fill-opacity=".5" d="M86 85h10v109H86z"/><path fill="#31291b" fill-opacity=".5" d="M37.3 213.6l19.1 7.5-2.6-6.7-11.6-4.3z"/><path fill="none" stroke="#cdc4bb" stroke-opacity=".5" stroke-width=".5" d="M-16 103.5q0 66 201 73.4"/><ellipse cx="138" cy="198" fill="#be8453" fill-opacity=".5" rx="18" ry="4"/><path fill="#8c7954" fill-opacity=".5" d="M15.4 246.7l-1-3L-6.5 271l23.6-25.9z"/><path fill="#b8815f" fill-opacity=".5" d="M129.1 231l8.6-21.3L161 219l-8.6 21.3z"/><path fill="#100c05" fill-opacity=".5" d="M10 148h3v10h-3z"/><ellipse cx="24" cy="121" fill="#d9caac" fill-opacity=".5" rx="5" ry="34"/><path fill="#d2c2a0" fill-opacity=".5" d="M180.3 184v1l-56.6-7v-1z"/><path fill="#d6c7bd" fill-opacity=".5" d="M113.7 180.6L96.9 85.1l3.6-35.6 36.6-1.9z"/><path fill="#897c64" fill-opacity=".5" d="M63.1 65l.8-46h1l-.8 46z"/><ellipse cx="138" cy="185" fill="#796853" fill-opacity=".5" rx="13" ry="4"/><path fill="#deab68" fill-opacity=".5" d="M73.3 247l-26 1.9-.6-10 26-1.8z"/><circle r="1" fill="#5d5142" fill-opacity=".5" transform="matrix(-2.26557 -2.52502 20.8921 -18.74541 31.8 203.4)"/><path fill="#f4eee1" fill-opacity=".5" d="M54 72l-17 53-8-58z"/><path fill="#8d857e" fill-opacity=".5" d="M52 0h3v21h-3z"/><path fill="#99784b" fill-opacity=".5" d="M162 15h8v108h-8z"/><path fill="#c3b897" fill-opacity=".5" d="M168 166.5h-18v-3h18z"/><ellipse cx="61" cy="200" fill="#e4ddda" fill-opacity=".5" rx="16" ry="12"/><path fill="#e2ddd8" fill-opacity=".5" d="M56 18l14-34h22z"/><ellipse cx="46" cy="161" fill="#eae8ec" fill-opacity=".5" rx="37" ry="7"/><path fill="#3d3f46" fill-opacity=".5" d="M16 207l30-4-19-7z"/><path fill="#635544" fill-opacity=".5" d="M182.3 186l-56.7-5v-1l56.8 5z"/></g></g></svg>