<svg xmlns="http://www.w3.org/2000/svg" viewBox="0 0 933 1400"><defs/><filter id="a"><feGaussianBlur stdDeviation="12"/></filter><rect width="100%" height="100%" fill="#3e3029"/><g filter="url(#a)"><g fill-opacity=".5" transform="translate(2.7 2.7) scale(5.46875)"><circle r="1" fill="#fff" transform="matrix(96.83833 -39.877 64.35002 156.26924 83.1 114)"/><ellipse cx="68" cy="108" fill="#fffff1" rx="74" ry="104"/><circle r="1" fill="#31210b" transform="matrix(19.34085 -34.32448 12.19438 6.87118 27.2 213)"/><ellipse cx="160" cy="91" fill="#865a22" rx="19" ry="255"/><path fill="#df863b" d="M34.1 221l115-30.8 24.8 92.8-115 30.8z"/><circle r="1" fill="#f8e9d5" transform="matrix(60.58453 -84.00253 28.22146 20.35396 22 120.9)"/><ellipse cx="112" cy="21" fill="#d3bfb5" rx="30" ry="183"/><path fill="#f5f0ed" d="M48 189h122v8H48z"/><path fill="#312418" d="M59.6 217.9l-18.8 3-4.7 47.9-18.9-74.4z"/><ellipse cx="75" cy="138" fill="#f3f4ff" rx="10" ry="72"/><circle r="1" fill="#c7b3a3" transform="matrix(93.69353 -87.68735 20.68631 22.10323 46 1.1)"/><ellipse cx="146" cy="175" fill="#321b0b" rx="27" ry="4"/><ellipse cx="147" cy="36" fill="#485444" rx="6" ry="106"/><path fill="#93897d" d="M7.9 224.2l-5.4-27.7-13.5-29 44.3 18.3z"/><ellipse cx="146" cy="208" fill="#dda176" rx="51" ry="14"/><circle r="1" fill="#fcfaff" transform="rotate(-176.7 24 81) scale(30.52004 7.68068)"/><ellipse cx="63" cy="80" fill="#a89677" rx="3" ry="75"/><path fill="#e6ded6" d="M137.7 78.5l5.4 64.3 22.1-.4-38.7 16z"/><path fill="#191916" d="M15 148l-6 11 1-12z"/><ellipse cx="160" cy="16" fill="#625d48" rx="20" ry="38"/><ellipse cx="137" cy="72" fill="#eeebdf" rx="5" ry="44"/><circle r="1" fill="#a16e4e" transform="matrix(.36568 21.26926 -33.67727 .579 148.9 239.7)"/><ellipse cx="18" cy="177" fill="#d4bf89" rx="41" ry="9"/><path fill="#eae6e8" d="M126 195l-67-30-8 47z"/><path fill="#fff" d="M62 271l-26-9 7-13z"/><ellipse cx="2" cy="123" fill="#fcf9fe" rx="18" ry="27"/><path fill="#837863" d="M50 141h15v12H50z"/><circle r="1" fill="#5b5347" transform="matrix(21.9691 -21.19505 4.83862 5.01533 32 198.7)"/><path fill="#84744e" d="M150 19h20v122h-20z"/><path fill="#866c4f" d="M120 167h23v21h-23z"/><path fill="#a79b8d" d="M81-16l47 35 39-35z"/><ellipse cx="75" cy="11" fill="#e2dedf" rx="11" ry="132"/><circle r="1" fill="#aa9e95" transform="matrix(-4.47806 29.26426 -10.84224 -1.6591 16.5 39)"/><path fill="#dfb177" d="M45 246l-3-34 22 40z"/><path fill="#c9bcb7" d="M86 7l-1 195 51-39z"/><path fill="#e6e4e4" d="M90.5 206.1l-7.2-72.9-37.9 65.9-1.2 8.9z"/><path fill="#d0c3a4" d="M66.9 111.6l-18.4 42.6-28.8-34.7.5 41z"/><path fill="#585a48" d="M141 125h29v16h-29z"/><path fill="#381e0f" d="M22 216h18v40H22z"/><path fill="#484435" d="M142.5 27.6l-.2 44.8 24.1-74.8L146.3 3z"/><path fill="#a6674b" d="M162.4 142l-24.2 11.2-8.5 22.2L185 166z"/><ellipse cx="37" cy="75" fill="#f8eed7" rx="15" ry="30"/><path fill="#8c8675" d="M137 180h33v11h-33z"/><path fill="#070300" d="M38.3 211.2l3-4 10.4 7.6-3 4z"/><circle r="1" fill="#ccbfb2" transform="rotate(37.1 9.9 157) scale(48.94214 17.02707)"/><path fill="#928260" d="M148 66l2 67 28-115z"/><path fill="#8f6249" d="M90.2 223.2l62.8 21.9 11.7 9.2.3-17.3z"/><circle r="1" fill="#e8ebe8" transform="matrix(40.46284 5.54272 -.13572 .99075 162 197.1)"/><ellipse cx="161" cy="171" fill="#fbf4c4" rx="28" ry="1"/><path fill="#878181" d="M-13.3 165.7l25.7 25.2 32.3-9.2-32.4 26.8z"/><path fill="#c2ad94" d="M33.6 212l21.7-28.9-11.8 21.5 3.6 3.1z"/><path fill="#d49c72" d="M64 245l-3-33 54-13z"/><path fill="#c18c63" d="M126.2 192.6l25.8 57.9 2.4-8.3 26.4-41.2z"/><path fill="#2b2212" d="M8 191l-7 80-17-40z"/><path fill="#f6f3ed" d="M-9.6 161l-.8-15 20-1 .8 15z"/><ellipse cx="159" cy="162" fill="#691816" rx="16" ry="2"/><path fill="#d6cec4" d="M143.6 148.6l-16.8 16.2 6-21.7 38.2-2.9z"/><ellipse cx="154" cy="169" fill="#77231f" rx="22" ry="2"/><path fill="#b7a37a" d="M10 247.1l6.8-2 1.1 3.8-6.7 2z"/><path fill="#584e3e" d="M19.7 222.8l35.2-41.5 3.2-7.8L12.2 212z"/><path fill="#b29d67" d="M40 182l10 7 6-17z"/><circle r="1" fill="#ccbeb6" transform="rotate(75.8 -37.5 34.8) scale(33.58798 6.10849)"/><path fill="#b6a687" d="M42 35L74 2l-4 19z"/><path fill="#7f7978" d="M25 195L7 183l1 34z"/><path fill="#54412f" d="M193.2 193.9l-48.5-6.8.1-1 48.5 6.8z"/><ellipse cx="57" cy="203" fill="#e5dcd8" rx="12" ry="11"/><path fill="#110d0a" d="M11 147h2v11h-2z"/><path fill="#ead7b5" d="M20 62.6l3.4-7.1 40-34.8-.5 41.1z"/><path fill="#e5e1e0" d="M68 18h18v119H68z"/><ellipse cx="162" cy="177" fill="#2b2d2d" rx="29" ry="2"/><circle r="1" fill="#b5b393" transform="rotate(89.6 -1.2 165.8) scale(1 25.33422)"/><path fill="#ccbfa8" d="M68.6 134.1l-23.5 20.2-22.1 1.6 26.1-21.4z"/><circle r="1" fill="#dbd5c8" transform="matrix(-.26982 2.61104 -35.05958 -3.62306 144 192.5)"/><ellipse cx="137" cy="179" fill="#bbae90" rx="21" ry="2"/><path fill="#e4d2a8" d="M11.1 168.9l-16.5-22.8-10.6 38.4L57.7 173z"/><path fill="#978762" d="M32 265l-14-18 4 24z"/><path fill="#be8754" d="M84 213l55 46-62-16z"/><path fill="#c49064" d="M42.6 213.6l21.2 22.7-4.4 4-21.2-22.6z"/><path fill="#2c1911" d="M156 148h14v2h-14z"/><circle cx="32" cy="201" r="7" fill="#32323c"/><path fill="#aea193" d="M129.3 12.4L182.2-16 105.5 3.1l24.4 39z"/><path fill="#f3f0f3" d="M14 135h7v33h-7z"/><ellipse cx="135" cy="133" fill="#e6e2da" rx="3" ry="28"/><path fill="#e3cbac" d="M188.7 147.3l-43.2 8.4-.2-1 43.2-8.4z"/><ellipse cx="168" cy="71" fill="#a98551" rx="3" ry="50"/><ellipse cx="59" cy="106" fill="#cfc3b0" rx="4" ry="31"/><ellipse cx="19" cy="6" fill="#beb0a8" rx="39" ry="10"/><path fill="#beb09d" d="M28 192l17-13-61-5z"/><circle cx="104" cy="176" r="18" fill="#c6c2c3"/><path fill="#d7d1c9" d="M79.1-16L10.9 64.4 72.7 5.1l13.2 15.8z"/><path fill="#9b8f86" d="M27.2 18.4l9.7-14.8-13.3 8.8.4 45.5z"/><path fill="#564e48" d="M202.1 190.4l-80.4-9.8.2-1 80.4 9.8z"/><path fill="#8c603e" d="M158 231l27 1-54 28z"/><path fill="#938a81" d="M52 0h3v23h-3z"/><path fill="#e9e2d9" d="M91.5 205.1l40.2-10.8 3-4.5-54 4.2z"/><path fill="#f1e9d8" d="M28 63l5 78 26-92z"/><path fill="#d7c9ad" d="M31 101L18 73l5 40z"/><path fill="#bdb19c" d="M185 189.5l-4.5-12 7.2 6.5-41.2 3.1z"/><ellipse cx="143" cy="96" fill="#7c5e3e" rx="2" ry="49"/><path fill="#7d8875" d="M150 52h4v76h-4z"/></g></g></svg>