<svg xmlns="http://www.w3.org/2000/svg" viewBox="0 0 933 1400"><defs/><filter id="a"><feGaussianBlur stdDeviation="12"/></filter><rect width="100%" height="100%" fill="#48241f"/><g filter="url(#a)"><g fill-opacity=".5" transform="translate(2.7 2.7) scale(5.46875)"><ellipse cx="141" cy="224" fill="#fff" rx="142" ry="238"/><ellipse cx="42" cy="96" fill="#8a1700" rx="46" ry="118"/><circle r="1" fill="#fffffa" transform="matrix(21.38395 167.64166 -36.91723 4.70907 128 176)"/><circle r="1" fill="#f6fdfa" transform="matrix(-135.1437 11.39053 -2.65713 -31.5257 68.8 240.2)"/><circle r="1" fill="#290000" transform="matrix(77.62274 6.57832 -2.75905 32.55619 12.5 155.4)"/><path fill="#d26b41" d="M-8.8-41.4l101.7 7.1-8 115.7L-17 74.3z"/><path fill="#83784a" d="M145 80l2 109h38z"/><path d="M118.9 168.3l-8.3 6.3-.9 9.4 4.8 19.3z"/><ellipse cx="38" cy="198" fill="#77a8ae" rx="58" ry="12"/><circle r="1" fill="#832f16" transform="matrix(-10.7845 30.4689 -47.16168 -16.69292 39 101.5)"/><ellipse cx="116" cy="13" fill="#bebbaf" rx="31" ry="58"/><path fill="#5b2312" d="M0 134h89v50H0z"/><path fill="#e6e1db" d="M150 127L143-5 81 208z"/><circle r="1" fill="#918b83" transform="matrix(5.2879 34.32483 -11.37826 1.75288 109 10.4)"/><path fill="#a74f33" d="M0 0h86v54H0z"/><circle r="1" fill="#dfdad7" transform="matrix(5.0257 29.24226 -76.52993 13.15279 122.5 223.7)"/><path d="M110 175h4v20h-4z"/><path fill="#5d281e" d="M-2 199.8l18.3-2.1 38.1-100-66.1-14.3z"/><ellipse cx="158" cy="32" fill="#a19b71" rx="13" ry="162"/><path fill="#9a452e" d="M76.7 185.6l15.4-1.5-8.7-110.2-33.2 43.6z"/><ellipse cx="95" cy="113" fill="#e8e6de" rx="8" ry="77"/><path fill="#c7d8dc" d="M-16 205l15 20 28-27z"/><path fill="#000e10" d="M36 201l-6 12-4-10z"/><circle r="1" fill="#c8b89b" transform="matrix(-7.83336 .8925 -3.7497 -32.91074 155.1 89.8)"/><path fill="#e6e1df" d="M119 119h26v137h-26z"/><circle cx="114" cy="177" r="5" fill="#080c07"/><ellipse cx="115" cy="25" fill="#5a5850" rx="1" ry="148"/><path fill="#d9dbd2" d="M65.7 193.5l-5.3-7.9 41.5-.8-1.2 5.6z"/><circle r="1" fill="#863826" transform="matrix(-11.58507 25.71633 -49.6536 -22.36869 13.3 91)"/><path fill="#84421d" d="M65 0h20v35H65z"/><path fill="#76715d" d="M162.3-3.4l-.6 31-16-.2.6-31z"/><path fill="#c5bbb2" d="M127.4 60.6l27-76.6-68.5 72.3.8-72.3z"/><circle cx="154" cy="177" r="10" fill="#78705e"/><path fill="#313845" d="M43 193h42v3H43z"/><path fill="#4e4d41" d="M156 134.4l14 .2v9l-14-.2z"/><circle r="1" fill="#b25639" transform="matrix(9.76156 -23.68333 39.14036 16.1325 45.1 43.4)"/><ellipse cx="107" cy="121" fill="#e1dfdb" rx="5" ry="80"/><path fill="#ac4e31" d="M62 79h25v52H62z"/><path fill="#6d7e7f" d="M-1.4 186.1l12.7 23.4-27.3 7.7 53.4-30.8z"/><ellipse cx="83" cy="200" fill="#b3bab7" rx="26" ry="5"/><path fill="#696b56" d="M165 80l1-44 16 51z"/><path fill="#642c20" d="M45 167h45v17H45z"/><path fill="#beb29e" d="M192.9 159.8l-43.7 10.9-4-16.5 43.6-10.9z"/><path fill="#b3b9ba" d="M24.4 191.9L6.3 271-16 227.6l60.1-36.7z"/><path fill="#dcd8cd" d="M86 20h6v70h-6z"/><ellipse cx="10" cy="156" fill="#4b1d16" rx="36" ry="30"/><path fill="#c6b79a" d="M161.8 24.6l-28.9 26 39.7-21.9-1.4-39.8z"/><path fill="#e3ddd6" d="M114 186.6l15.1-24.9-43.2 100.8L185 271z"/><circle cx="57" cy="193" r="4" fill="#263134"/><path fill="#2d4756" d="M15.6 213l20.3-12.8.5.9-20.3 12.7z"/><path fill="#32322c" d="M106 195h8l1-22z"/><path fill="#d2d2cf" d="M79.2 205.9l-2.6-2.5 22.7-26.9 13.5 20.5z"/><path fill="#b0b1a8" d="M54.6 200.6l-.3 4-36.9-3.2.3-4z"/><path fill="#6a3025" d="M60 141h28v43H60z"/><path fill="#595f59" d="M13 197h37v2H13z"/><path fill="#463f35" d="M61 208l-2-8-5 4z"/><path fill="#b2c1c8" d="M-16 205l22-11-22-12z"/><path fill="#161715" d="M111 172h7v8h-7z"/><path fill="#ded9d7" d="M117 169l25 48 4-139z"/><ellipse cx="116" cy="100" fill="#aaaaa0" rx="1" ry="72"/><path fill="#cdcbc9" d="M25 212h44v44H25z"/><path fill="#b5b6b0" d="M177.9 196.8l-35.1-6.9 19.9-1.7 22.3-20.8z"/><path fill="#a4947b" d="M146 113h11v32h-11z"/><path fill="#dacfc8" d="M119 43h26v33h-26z"/><path fill="#676e6f" d="M55 184l-16 2 13 16z"/><path fill="#c3c2c1" d="M7 210.3l-17.7 1.3L18.4 271 43 226.5z"/><path fill="#a04932" d="M-2.8-16L22.1 86.7l33.5-19.6L86 138.9z"/><path fill="#b6afa7" d="M114.3 39.7l.2-4.8-31-50.9 24.7 77.9z"/><path fill="#c0633c" d="M2.7 37.9l81.4 50.5 2.7-20.7-4.5-4.8z"/><path fill="#4e4a43" d="M-5.8 203.9l21.9-8.4-2.9-13 8.6 5z"/><circle r="1" fill="#4b5c70" transform="rotate(141 1 113.6) scale(2.09384 3.69372)"/><path fill="#e6e1df" d="M98 89h17v74H98z"/><path fill="#aba99e" d="M83.8 220.4l-103.4 18.2-.2-1 103.4-18.2z"/><path fill="#a4966e" d="M181.9 114.7l-28.7-40.9L185 40.5l-25.6 16.8z"/><path fill="#c8b8a2" d="M165 93l-19-9v32z"/><ellipse cx="160" cy="1" fill="#696b59" rx="3" ry="22"/><path fill="#aeaaa2" d="M61 188h3v22h-3z"/><path fill="#98b9bd" d="M55 212l-20-3 13-3z"/><path fill="#dedad1" d="M-16 226.2l36.9-22.7-10.3 14.3-26.6-20.2z"/><path fill="#030b15" d="M5.6 197l8.5-3 .3 1-8.5 3z"/><circle r="1" fill="#d5d6d6" transform="rotate(40.8 -208.4 336.3) scale(32.272 19.35736)"/><path fill="#752d21" d="M70 112l-86-21V52z"/><ellipse cx="115" cy="11" fill="#59554e" rx="1" ry="28"/><path fill="#85806f" d="M148.8 175l-6.2 13.1h17.3l-8.3-14.8z"/><path fill="#ded8d6" d="M82 206h30v50H82z"/><path fill="#843f1e" d="M82 0h3v47h-3z"/><path fill="#ae5739" d="M72.7 133.6l15.4 5-.9-21.1-26.1 4.8z"/><path fill="#ddd9d0" d="M87 60h28v59H87z"/><path fill="#af9a7f" d="M148.3 10.9L119.7-16l.6 20 57.4-20z"/><path fill="#cbc1ad" d="M149.6 124.3l-1.3-3.7 14.1-5 1.3 3.8z"/><path fill="#97abac" d="M85 201h23v3H85z"/><path fill="#69747a" d="M7 202h50v1H7z"/><path fill="#161510" d="M28 203h4v9h-4z"/><path fill="#b0b2b4" d="M14 192h29v2H14z"/><path fill="#545750" d="M166 61h4v12h-4z"/><path fill="#586c71" d="M40.4 211.4l-2.5-9.7-3.3 2.9-5.3 8.5z"/><path fill="#a35d32" d="M38.4 1.5l3.7-7 41.5 22-3.7 7z"/><path fill="#847c62" d="M168 150.6l-16.8-9 10.8-20.2 16.8 9z"/><ellipse cx="17" cy="187" fill="#62594a" rx="33" ry="2"/><path fill="#612c1f" d="M10 153h62v16H10z"/></g></g></svg>