<svg xmlns="http://www.w3.org/2000/svg" viewBox="0 0 933 1400"><defs/><filter id="a"><feGaussianBlur stdDeviation="12"/></filter><rect width="100%" height="100%" fill="#47392e"/><g filter="url(#a)"><g fill-opacity=".5" transform="translate(2.7 2.7) scale(5.46875)"><ellipse cx="107" cy="91" fill="#fff" rx="122" ry="196"/><ellipse cx="72" cy="87" fill="ivory" rx="57" ry="108"/><path fill="#fff" d="M-16 265l191-59 10 58z"/><circle r="1" fill="#7e561e" transform="rotate(-88.7 114.4 -42.6) scale(106.70173 25.15461)"/><circle r="1" fill="#d32c00" transform="rotate(-170.3 4.3 51) scale(22.00355 39.77197)"/><ellipse cx="21" cy="219" fill="#452602" rx="20" ry="31"/><circle r="1" fill="#e99049" transform="matrix(-7.79208 -26.67826 49.67767 -14.50965 100.7 207)"/><path fill="#fff" d="M87.6 142.4l-2.5 29-88.7-7.8 2.5-29z"/><ellipse cx="31" fill="#cdbdb2" rx="127" ry="49"/><circle r="1" fill="#4a4026" transform="rotate(66.3 52 139) scale(20.25295 31.37643)"/><path fill="#bc8256" d="M-17.5 213.5v-49h57v49z"/><ellipse cx="53" cy="115" fill="#faecdc" rx="34" ry="68"/><ellipse cx="13" cy="36" fill="#d3c5b6" rx="117" ry="29"/><circle r="1" fill="#fffdeb" transform="matrix(47.154 9.69973 -.72692 3.53384 141 178.7)"/><path fill="#1d140e" d="M0 216h38v25H0z"/><ellipse cx="146" cy="138" fill="#ffddc0" rx="37" ry="4"/><path fill="#681202" d="M0 117h20v18H0z"/><circle r="1" fill="#553220" transform="matrix(59.37672 10.6691 -.508 2.82722 165.7 167.7)"/><path fill="#e2e3d8" d="M106 271H-5l73-48z"/><circle r="1" fill="#b1aba4" transform="matrix(54.26126 -3.8895 1.49408 20.8435 116.5 3.8)"/><circle r="1" fill="#e9ece9" transform="matrix(72.43694 -41.8686 5.52895 9.56565 119.8 240.8)"/><path fill="#c68556" d="M185 194l-40-13-50 56z"/><path fill="#fff9f5" d="M-16 159.6l53 6 74.5 19.1-94.9-49.8z"/><ellipse cx="169" cy="149" fill="#cd7d5a" rx="50" ry="14"/><path fill="#47170d" d="M4.5 172.5h29v5h-29z"/><path fill="#e0b592" d="M73 194l-45 12 11-41z"/><path fill="#9a380d" d="M1 63l20 20-1-15z"/><path fill="#fdf0e1" d="M124 41h5v98h-5z"/><path fill="#f0f2f8" d="M71 30h12v149H71z"/><circle cx="29" cy="12" r="56" fill="#d1c6bb"/><path fill="#2b1700" d="M37.8 178.8l-6.9-5-.5 5.2-4 11z"/><path fill="#b5a698" d="M153-16l-36 76L84 1z"/><path fill="#8e806b" d="M33 248l13-59 19 35z"/><path fill="#bfac89" d="M66 39h4v101h-4z"/><path fill="#ece7e4" d="M93.5 181.4l-46 7.8 23.4-32.3 60.3 18z"/><ellipse cx="132" cy="63" fill="#46442d" rx="3" ry="38"/><path fill="#faf6f1" d="M41 127L21 77l-1 49z"/><path fill="#cc956b" d="M55.8 187.8l28.1 58.1L185 193.6l-57.7-14.5z"/><circle r="1" fill="#a18150" transform="matrix(30.00577 10.80274 -13.70443 38.06552 167 78.5)"/><path fill="#3d4033" d="M208.8-1l-73.6 42.4-6-10.3 73.6-42.5z"/><circle r="1" fill="#453628" transform="rotate(111.6 -78 116.7) scale(25.48427 32.89276)"/><path fill="#bcb39e" d="M26 130h44v9H26z"/><path fill="#ebe6db" d="M115 134h55v3h-55z"/><ellipse cx="7" cy="86" fill="#ee7949" rx="13" ry="17"/><circle r="1" fill="#dee1df" transform="rotate(147 47 141.5) scale(67.98441 25.73382)"/><path fill="#dfcbc0" d="M83 52h42v101H83z"/><path fill="#2d2b27" d="M29 138.7l-.9-.4 4.9-11 .9.4z"/><path fill="#7a6a45" d="M129 113h41v21h-41z"/><circle r="1" fill="#c0bfb9" transform="rotate(-41.6 85.7 -209) scale(14.0774 6.90553)"/><path fill="#2e281c" d="M148.9 165.1l-.2 1-37.6-5.2.2-1z"/><path fill="#b6b0ac" d="M29.7 60.1l-3.1-20.2L68.2-5.3l7.6 7.6z"/><ellipse cy="181" fill="#f0d1ac" rx="29" ry="3"/><path fill="#dac2a9" d="M52.3 170.5l3.2 24.9-29.6-2.8 14.9-13.7z"/><path fill="#dda67d" d="M108.1 201.7l-60-10 71.4-18 26.3 16.9z"/><path fill="#b15e4f" d="M8 172l13-10 16 9z"/><circle r="1" fill="#eaddce" transform="matrix(-3.22778 8.27882 -21.56219 -8.40675 0 53.2)"/><path fill="#9f835e" d="M85.1 228.1L11.2 209l-21.6-2 9.4-21z"/><circle r="1" fill="#f4e4c8" transform="matrix(-12.90007 -2.11158 6.7044 -40.95845 45.5 100.2)"/><path fill="#25170b" d="M42.7 216.3l-12.4 1.3-24.7 19.9 22.7-6.3z"/><path fill="#9f9279" d="M179 171l6 16-55-20z"/><path fill="#d5cecc" d="M107.1 171.7l-25.8 2.9 2-81.2 46.1 39.6z"/><path fill="#8f2d22" d="M170.1 163.6l-52.4-8.3.2-1 52.4 8.4z"/><path fill="#b48468" d="M145.5 214.5l-9.5-12.6-55.6 5.4L108 231z"/><path fill="#b7b4a9" d="M72.5 232.8l-20.5 14-9.9-39 8.5 9.2z"/><path fill="#bc583a" d="M12 65h8v70h-8z"/><path fill="#dec4a4" d="M134 144h36v2h-36z"/><path fill="#905a3c" d="M78.7 229.9l-37.9-20.5-7.4 1.7 9.1-6.8z"/><path fill="#f6f2ec" d="M1 140l-6 26 84-18z"/><ellipse cx="154" cy="142" fill="#89573d" rx="29" ry="2"/><ellipse cx="40" cy="77" fill="#d6c6ac" rx="4" ry="62"/><path fill="#f3ece3" d="M129.2 172.6l48.8 15-1.2 3.8-48.8-15z"/><path fill="#eeeff2" d="M48.2 160.5l26-7 7.6 28-26 7z"/><path fill="#504732" d="M-15.9 210.4l35.2 7.2L30 191.2l-12.2 19.5z"/><path fill="#6b6d64" d="M155-16h-12l4 32z"/><path fill="#e9e5df" d="M122 271l-61-47 31 47z"/><circle r="1" fill="#a6957a" transform="matrix(-.95133 4.23265 -56.51614 -12.70255 162.2 175)"/><path fill="#d6c6b4" d="M129 40l1 51-27-37z"/><path fill="#d7a063" d="M88.2 208l-9.7 25.2-18.7-7.2 9.7-25.2z"/><path fill="#efe7dc" d="M-13 149l24 18 20-39z"/><path fill="#7c725e" d="M32.3 243.8l11.2-7.6L7.7 271l17.7-26.1z"/><path fill="#f4f3fa" d="M33 89h4v56h-4z"/><path fill="#584733" d="M16.6 193.1l4.4 4.3 8-9.9 4.4-8.5z"/><path fill="#e1ce97" d="M45.2 172.3l11.4 30.4v5.6l6.6-6.3z"/><path fill="#a49c91" d="M65.6 7.2l-4.5 48.3.7-12.7-1.1-28z"/><ellipse cx="168" cy="167" fill="#3a1d16" rx="8" ry="3"/><path fill="#872e25" d="M185 158.6l-51.1-6.1-13.7-1.9 44.7 3.9z"/><circle r="1" fill="#f7e4c5" transform="rotate(-150.6 35.8 30) scale(13.19535 23.31506)"/><path fill="#d6ae96" d="M57.3 174.9l-35.5 18.6 32.9-1.3L20 160.9z"/><path fill="#c98955" d="M160 201l-46-26 69 17z"/><path fill="#a18156" d="M148 47l-15 72 52 1z"/><path fill="#c1b9b2" d="M23 29l24 3-15 51z"/><path fill="#988465" d="M6.8 245.7L-6 248.2l-.8-4L6 241.9z"/><path fill="#eb8761" d="M15.1 83.5l5.5 17.7-36.6-3.8 48-21.1z"/><ellipse cx="169" cy="151" fill="#daba83" rx="22" ry="2"/><ellipse cx="125" cy="100" fill="#eae2d7" rx="4" ry="43"/><path fill="#b49b7d" d="M7.3 197.1l-13.9-34.4 29.8 3.1-39.2 21.1z"/><path fill="#2e231f" d="M-16 192l12 57 6-54z"/><path fill="#605b5a" d="M199.2 182l-.2 1-80.2-17 .2-1z"/><path fill="#7b6645" d="M135 34h13v31h-13z"/><path fill="#6f654b" d="M129 96h6v38h-6z"/></g></g></svg>