<svg xmlns="http://www.w3.org/2000/svg" viewBox="0 0 933 1400"><defs/><filter id="prefix__a"><feGaussianBlur stdDeviation="12"/></filter><rect width="100%" height="100%" fill="#624838"/><g filter="url(#prefix__a)"><g transform="translate(2.7 2.7) scale(5.46875)"><circle r="1" fill="#fffffd" fill-opacity=".5" transform="matrix(132.16458 105.3258 -84.6759 106.25275 107.7 104.9)"/><path fill-opacity=".5" d="M89.3 148.4l-5 18.2-62 14.4 9.1-45z"/><circle r="1" fill="#d6e5eb" fill-opacity=".5" transform="matrix(30.48079 -49.98205 70.71361 43.12361 159.6 114.6)"/><circle r="1" fill="#917852" fill-opacity=".5" transform="rotate(-76.3 179 85.9) scale(40.47146 132.28707)"/><circle r="1" fill="#f6e3ca" fill-opacity=".5" transform="matrix(87.21404 -10.14406 1.89817 16.31962 130.6 180.5)"/><circle r="1" fill="#c5c8ca" fill-opacity=".5" transform="matrix(-64.33833 21.69677 -9.80186 -29.06587 70.8 102.7)"/><path fill="#020700" fill-opacity=".5" d="M79 165l-53-24 7 34z"/><path fill="#737362" fill-opacity=".5" d="M118.7 145.3l.6 22.6-109.3-34 112 7.8z"/><ellipse cx="50" cy="236" fill="#817055" fill-opacity=".5" rx="73" ry="26"/><path fill="#75705b" fill-opacity=".5" d="M138.9 136l46.1 4.4-29.7 6.8-46-14z"/><circle r="1" fill="#97866f" fill-opacity=".5" transform="matrix(61.76136 -31.97854 16.85257 32.548 29.5 0)"/><path fill="#b3ac9e" fill-opacity=".5" d="M-16 224L25 63l2 123z"/><path fill="#ebeeeb" fill-opacity=".5" d="M120 144h50v24h-50z"/><path fill-opacity=".5" d="M120 153l-5 14-7-14z"/><circle r="1" fill="#cd9c83" fill-opacity=".5" transform="rotate(-87.5 187 26.4) scale(22.23891 61.9778)"/><circle r="1" fill="#b8afa0" fill-opacity=".5" transform="matrix(-6.7173 -25.0693 148.23316 -39.71896 120.4 49)"/><path fill="#13191f" fill-opacity=".5" d="M29 139h48v4H29z"/><circle r="1" fill="#cdd6e1" fill-opacity=".5" transform="matrix(-7.1561 -20.39209 38.12826 -13.38017 140.3 103.3)"/><path fill="#608aa3" fill-opacity=".5" d="M159 117h11v17h-11z"/><path fill="#1d2d31" fill-opacity=".5" d="M98 136l-8-9-5 12z"/><circle r="1" fill="#c2c7c7" fill-opacity=".5" transform="rotate(174.4 36.4 64.2) scale(9.17238 27.67647)"/><path fill="#2d3531" fill-opacity=".5" d="M147 139h21v4h-21z"/><ellipse cx="96" cy="184" fill="#f2e5dd" fill-opacity=".5" rx="26" ry="8"/><path fill="#272821" fill-opacity=".5" d="M27 154h61v15H27z"/><path fill="#b5a789" fill-opacity=".5" d="M0 174h60v27H0z"/><circle r="1" fill="#937b61" fill-opacity=".5" transform="matrix(-88.2292 -31.417 5.15046 -14.46416 98.4 237.6)"/><path fill="#888a81" fill-opacity=".5" d="M54 142h25v11H54z"/><path fill="#d4d9da" fill-opacity=".5" d="M20 165h7v18h-7z"/><path fill="#0f0f0c" fill-opacity=".5" d="M29.1 173.4l20-4.7-16.8-19.8-4.6-13z"/><path fill="#b6afa5" fill-opacity=".5" d="M0 52h45v88H0z"/><path fill="#b78e7c" fill-opacity=".5" d="M147 214l38 53-137-76z"/><circle r="1" fill="#7b6d53" fill-opacity=".5" transform="matrix(70.4091 21.8163 -8.98971 29.01305 27.3 240.3)"/><path fill="#4c4f4a" fill-opacity=".5" d="M60.9 165.5l-33.6-17.9 3.8-7 33.6 17.8z"/><path fill="#8f8671" fill-opacity=".5" d="M177 31.1l8-12.4-20.3 7.9-86.8 35.6z"/><circle cx="76" cy="102" r="30" fill="#c2c3c5" fill-opacity=".5"/><path fill="#cbb49d" fill-opacity=".5" d="M173 178l-51-11 61 89z"/><path fill="#a1947e" fill-opacity=".5" d="M124 128l27 14-54-7z"/><path fill="#c0b38e" fill-opacity=".5" d="M80.3 182l13-37.8 15.7 35.3 2-29.4z"/><path fill="#e2e1dd" fill-opacity=".5" d="M120.1 163.9l23.4 9.3-9-26.8-16.3-15.9z"/><circle r="1" fill="#afa08c" fill-opacity=".5" transform="matrix(-8.65266 -15.57638 44.26722 -24.5904 62.3 28.6)"/><ellipse cx="93" cy="200" fill="#d0ac9a" fill-opacity=".5" rx="38" ry="6"/><path fill="#a79d92" fill-opacity=".5" d="M12.1 205.8l-28.1-9.7 26-92.4 9.8 20.2z"/><path fill="#d8e1e9" fill-opacity=".5" d="M124 114h18v19h-18z"/><path fill="#d1d3d1" fill-opacity=".5" d="M143 143h27v30h-27z"/><path fill="#c3bcb5" fill-opacity=".5" d="M134.6 43.4l51.6-12 7.2 31.2-51.6 12z"/><path fill="#988168" fill-opacity=".5" d="M84 271h94l-69-55z"/><path fill="#1b1c19" fill-opacity=".5" d="M109 163l8-8-1 10z"/><path fill="#2e3636" fill-opacity=".5" d="M159 141.5v1l-24-2v-1z"/><path fill="#e4d5bf" fill-opacity=".5" d="M119 141l-23-3 21-5z"/><path fill="#d1c4a5" fill-opacity=".5" d="M53 199l-2-26 42-5z"/><circle r="1" fill="#968978" fill-opacity=".5" transform="rotate(-124.9 5.1 -2.7) scale(20.59848 55.4453)"/><path fill="#968460" fill-opacity=".5" d="M74.1 174.9l9.9-4.5-11.2-4.7 30.7-4.1z"/><path fill="#a69473" fill-opacity=".5" d="M22.7 204.7l60.8 17L32.9 187l-17.4-2.1z"/><path fill="#d8c9b0" fill-opacity=".5" d="M96.4 175l74.9 19.7 1.8-3.4-75.2-31.5z"/><path fill="#b4aca5" fill-opacity=".5" d="M7 138l61-1-60-28z"/><path fill="#c1b7a3" fill-opacity=".5" d="M81.8 145.5l4-10.2 8.4 3.2-4 10.2z"/><path fill="#727169" fill-opacity=".5" d="M60.3 142.4l-5.1 14.1 23.5-8.6.9-9.2z"/><path fill="#212525" fill-opacity=".5" d="M88 136l11 1-11-9z"/><path fill="#505a61" fill-opacity=".5" d="M160.6 133.5l-1-.1 1.8-15 1 .2z"/><path fill="#a9a688" fill-opacity=".5" d="M184.9 186.1l-42.5-11.3.7-3 42.5 11.4z"/><path fill="#b5b0a7" fill-opacity=".5" d="M27.7 170.5l-10.7 12 8-58.5 2.3 33.9z"/><circle r="1" fill="#9d9584" fill-opacity=".5" transform="matrix(-.90655 -2.52923 56.43937 -20.22952 98.2 55)"/><circle r="1" fill="#c8cbd1" fill-opacity=".5" transform="matrix(-5.90805 -3.64889 17.53765 -28.39588 111.8 106.5)"/><path fill="#3e3a2a" fill-opacity=".5" d="M178.8 118.1l.2 1-19.8 2.8-.2-1z"/><path fill="#232623" fill-opacity=".5" d="M110 155h9v11h-9z"/><path fill="#c5cbd1" fill-opacity=".5" d="M91 96h79v23H91z"/><path fill="#7c5746" fill-opacity=".5" d="M45.7 195.8l105.1 53.5-.5 1-105.1-53.6z"/><path fill="#c1cfd8" fill-opacity=".5" d="M140 137h20l-3-41z"/><path fill="#8f8063" fill-opacity=".5" d="M8.8 218.8L-1 210l28.5-14.2 28.6 22.1z"/><path fill="#a28f74" fill-opacity=".5" d="M90 141h26v12H90z"/><path fill="#ac8976" fill-opacity=".5" d="M149.2 197.9L126.1 231l-49.6-18.6 87.5-4z"/><path fill="#717874" fill-opacity=".5" d="M164 169.4l-.3-.9 10.3-4 .3 1z"/><path fill="#a6cae3" fill-opacity=".5" d="M161 123h9v14h-9z"/><path fill="#a69375" fill-opacity=".5" d="M99.8 243.3l21.2-7.1-2.6-1.1 49.9 26.4z"/><path fill="#2c281d" fill-opacity=".5" d="M89.8 156.9l-62.5 11.8.8 9.1 55.2-14.6z"/><path fill="#919186" fill-opacity=".5" d="M46 150h4v5h-4z"/><path fill="#c4a18d" fill-opacity=".5" d="M200.2 248.5l-9 14.4-53.4-33.4 9-14.4z"/><path fill="#d6c6af" fill-opacity=".5" d="M126.7 195.1L108 159.2l-26.8 17.2 103.8 2.4z"/><ellipse cx="50" cy="140" fill="#1d1e1d" fill-opacity=".5" rx="23" ry="1"/><path fill="#8f634e" fill-opacity=".5" d="M102 132h14v2h-14z"/><circle cx="122" cy="105" r="2" fill="#697275" fill-opacity=".5"/><path fill="#ae9e7a" fill-opacity=".5" d="M72.4 220.2l-44.5-37.9 85.7-19L28.4 177z"/><path fill="#7f827c" fill-opacity=".5" d="M174 153.4l-10 .2v-3l10-.2z"/><path fill="#bcb39f" fill-opacity=".5" d="M116.2 155.9v-1l87.6 9.2v1z"/><path fill="#dbdedc" fill-opacity=".5" d="M150.2 151.4l-22 17.7 30 5.5 14.3-20.8z"/><path fill="#231f18" fill-opacity=".5" d="M66 148h3v9h-3z"/><circle r="1" fill="#64645c" fill-opacity=".5" transform="matrix(-1.54062 .6771 -2.54888 -5.7995 38.8 152.5)"/><path fill="#e1e4e1" fill-opacity=".5" d="M167 148h3v28h-3z"/><path fill="none" stroke="#888876" stroke-opacity=".5" stroke-width=".5" d="M114.7 167q54.3 13 70.3 10.7"/><path fill="#bbb4ad" fill-opacity=".5" d="M84 88L53 72l88-30z"/><path fill="#a8b6c0" fill-opacity=".5" d="M114 125h14v8h-14z"/><ellipse cy="188" fill="#a09993" fill-opacity=".5" rx="19" ry="17"/><circle r="1" fill="#b8aa97" fill-opacity=".5" transform="rotate(-24.8 98.9 -338.7) scale(82.81215 21.89685)"/><path fill="#c7b697" fill-opacity=".5" d="M57.3 202.6l-5.2-12.2 34.7-20.9-61.6 13.9z"/><path fill="#97998f" fill-opacity=".5" d="M56 149h41v3H56z"/><path fill="#0c0d0c" fill-opacity=".5" d="M43.8 151.6l.8 21.2-17.2-14.7 14.5-2.2z"/><path fill="#bec1c1" fill-opacity=".5" d="M125.5 121.2l-71.2 6.3 46.5 12.7-45.2-4.1z"/><path fill="#e7d9d1" fill-opacity=".5" d="M52.4 188.5l73.4-12.2-13.3-2.4L96.8 194z"/><path fill="#1c1e1d" fill-opacity=".5" d="M27 141h16v3H27z"/><path fill="#757366" fill-opacity=".5" d="M135 133h-7l6 7z"/></g></g></svg>