<svg xmlns="http://www.w3.org/2000/svg" viewBox="0 0 1400 933"><defs/><filter id="a"><feGaussianBlur stdDeviation="12"/></filter><rect width="100%" height="100%" fill="#653b32"/><g filter="url(#a)"><g fill-opacity=".5" transform="translate(2.7 2.7) scale(5.46875)"><circle cx="122" cy="60" r="172" fill="#d1d1b9"/><ellipse cx="255" cy="123" fill="#18170b" rx="241" ry="24"/><ellipse cx="70" cy="169" fill="#eefff5" rx="203" ry="24"/><path fill="#ccdee4" d="M196.6-.1l1.7 97-71 1.2-1.6-97z"/><ellipse cx="70" cy="41" fill="#c45f38" rx="56" ry="76"/><circle r="1" fill="#c3d9e2" transform="rotate(-88.1 33.3 28.5) scale(69.73963 11.60379)"/><circle r="1" fill="#2d2817" transform="matrix(40.54534 8.0282 -5.2354 26.4407 234.7 121.3)"/><circle r="1" fill="#d1cda8" transform="matrix(-4.46498 -16.41419 37.56769 -10.21914 226 73.6)"/><circle r="1" fill="#555a53" transform="rotate(-24.2 314.6 -40.3) scale(43.5686 16.47281)"/><circle r="1" fill="#ec966d" transform="rotate(6.9 -81.5 625.2) scale(28.10465 61.10643)"/><path fill="#454421" d="M271 32.6l-68.1-1.8 2.5 25.4 50.4-10.9z"/><path fill="#6d3c29" d="M50 102L17-16l-1 116z"/><ellipse cx="201" fill="#b3b6a9" rx="76" ry="30"/><ellipse cx="87" cy="126" fill="#aea891" rx="119" ry="3"/><path fill="#82412f" d="M110 0h15v100h-15z"/><ellipse cx="78" cy="115" fill="#9d9a89" rx="104" ry="3"/><path fill="#4e4139" d="M82 140.2l-49-30.5-27.2 37.9 22.1-4.4z"/><path fill="#a6a49b" d="M163 0h41v104h-41z"/><path fill="#d0fecc" d="M58 98h51v5H58z"/><circle r="1" fill="#a7aa9d" transform="matrix(65.65469 6.13748 -.65925 7.05217 185 151)"/><path fill="#cdd0d3" d="M126 0h25v87h-25z"/><path fill="#b2bebe" d="M-9.4 151l16.8-26.1 4.5-28.3 18.7 13.6z"/><path fill="#7d4834" d="M123.1 97.1l2.1-13.6-22.6-15.1-23.5 30.3z"/><path fill="#3e3221" d="M164 98h26v17h-26z"/><ellipse cx="137" cy="119" fill="#451916" rx="94" ry="3"/><circle r="1" fill="#22191a" transform="rotate(-12.7 529 -129.4) scale(21.65966 1.9259)"/><ellipse cx="78" cy="107" fill="#404e47" rx="40" ry="5"/><path fill="#c3c5c5" d="M203 110l-12-25 11-43z"/><circle r="1" fill="#dfd9c3" transform="rotate(-89.1 150.2 19.1) scale(13.03352 77.22393)"/><path fill="#24201a" d="M259.8 145.9l11.2-20.8-79.4 7.7-19.5 7.7z"/><path fill="#ccbe9c" d="M212.3 80.8l4.4-29.5 25.5-3.7-2.3 30.5z"/><circle r="1" fill="#5a5037" transform="matrix(-4.38803 17.09023 -25.74378 -6.60988 235.3 108.5)"/><path fill="#888269" d="M170 115h39v4h-39z"/><path fill="#a7a38a" d="M71.7 121.3l.6 3-54 10.4-.6-3z"/><ellipse cx="24" cy="140" fill="#43362d" rx="152" ry="2"/><path fill="#a8afac" d="M-12 182l13-36 40-2z"/><path fill="#898769" d="M75 142h138v5H75z"/><path fill="#3a201d" d="M123 108h82v6h-82z"/><path fill="#adb189" d="M95 101h111v2H95z"/><ellipse cx="255" cy="84" fill="#a69971" rx="9" ry="23"/><path fill="#494229" d="M245 33h11v18h-11z"/><path fill="#babdbb" d="M-.7 31.1L17.4-16l-3 61.8.9 58.7z"/><circle r="1" fill="#b36b50" transform="matrix(-14.1445 -4.10839 12.20782 -42.02953 102.3 46.2)"/><ellipse cx="80" cy="115" fill="#a6a791" rx="40" ry="2"/><path fill="#81937a" d="M32 96h27v12H32z"/><path fill="#794534" d="M16 35h12v67H16z"/><path fill="#35352d" d="M83 130h121v6H83z"/><path fill="#7e7557" d="M204 45h6v57h-6z"/><circle r="1" fill="#a26348" transform="matrix(11.1651 77.89126 -10.29842 1.4762 29 18)"/><path fill="#afb68c" d="M99 99h39v5H99z"/><path fill="#aca997" d="M42.7 114.4l1.2 2.7-14.6 6.5-1.2-2.7z"/><path fill="#342e27" d="M34 131.4l-20.5 6.5-6.4 6.1 42.7-4.1z"/><path fill="#a9aba6" d="M40 104l-56 39 3-41z"/><path fill="#778684" d="M239 147l13 17 19-20z"/><path fill="#898e8f" d="M145 89h44v10h-44z"/><ellipse cx="98" cy="127" fill="#a19c88" rx="63" ry="2"/><path fill="#12130e" d="M207 107h6v34h-6z"/><ellipse cx="73" fill="#de916c" rx="19" ry="50"/><path fill="#84795d" d="M178 124h29v7h-29z"/><path fill="#452c27" d="M89.5 120.9l-56.9-.6L7.3 136l54.2-19.5z"/><path fill="#a3a198" d="M-16 60.1l33.8 64.3L-1 161.3l12.6-11.8z"/><path fill="#bbb8a1" d="M48 106v-1l48 1v1z"/><path fill="#4f3f1f" d="M208 93h33v8h-33z"/><path fill="#aba498" d="M154 25l41 59 12-84z"/><ellipse cx="249" cy="86" fill="#afa484" rx="44" ry="7"/><ellipse cx="89" cy="135" fill="#695450" rx="46" ry="4"/><path fill="#2e0f0f" d="M27 113l7 2-16 10z"/><path fill="#010100" d="M252 107l-4 9 8-3z"/><ellipse cx="144" cy="123" fill="#5f543b" rx="41" ry="2"/><path fill="#b5b6b4" d="M145 22l40 41-43 34z"/><path fill="#c47b5e" d="M47 50h45v30H47z"/><path fill="#584540" d="M138 136h66v7h-66z"/><circle r="1" fill="#8c806c" transform="rotate(90.1 18.6 132.7) scale(1 30.03406)"/><path fill="#6c4535" d="M92 90h32v8H92z"/><ellipse cx="69" cy="111" fill="#412622" rx="25" ry="2"/><ellipse cx="131" cy="143" fill="#bfb592" rx="54" ry="1"/><path fill="#646258" d="M178 145h39v3h-39z"/><path fill="#281712" d="M211.1 126l-40.4-7 .2-1 40.4 7z"/><path fill="#acb6af" d="M125 27h2v69h-2z"/><path fill="#817c63" d="M23 133l-36 17-3-13z"/><ellipse cx="243" cy="26" fill="#8d917d" rx="34" ry="6"/><path fill="#d17e5c" d="M61.5 5L32.3-13.8l5 40.6L87.4 7.4z"/><path fill="#93907e" d="M24.3 125.8L23 122l22.7-7.8L47 118z"/><path fill="#b0b4b9" d="M142 148h75v5h-75z"/><ellipse cx="226" cy="113" fill="#737366" rx="24" ry="1"/><path fill="#9b5d49" d="M126.1 34.2l-22 65-8.6-18.7-.2-21.2z"/><path fill="#ae6d51" d="M31.4 50.1L65.1 31l-24.4-1 6.2 74.1z"/><path fill="#8e825c" d="M243.4 41.4l6.8 16.7-11.6-.5 32.4 9.1z"/><circle cx="215" cy="142" r="4" fill="#0a0f0d"/><ellipse cx="70" cy="123" fill="#746a50" rx="31" ry="2"/><path fill="#a3a98a" d="M52.5 141.2l45.8 2.3-66.7-.5 8.3-2.2z"/><path fill="#0a0b06" d="M252 122h4v22h-4z"/><path fill="#c8c9c8" d="M196.4 101.4l1.2-35 6 .2-1.2 35z"/><path fill="#2c2519" d="M263.9 143.2l-59.3-20.6 6.4-17.2 32.6 37.3z"/><path fill="#b6b1a8" d="M149.3 29.4L140 3l76.6-26.3L226 3z"/><path fill="#938865" d="M213 64.9l-6.6 4.9 3.4-17.3 25-10.8z"/><circle r="1" fill="#8c9771" transform="matrix(.04057 -.99918 64.73962 2.6289 113.1 99.2)"/><path fill="#535040" d="M209.5 92.3l38.2 20.6-66.8-13.4 19.6 9.7z"/><ellipse cx="54" cy="101" fill="#d9d4a9" rx="4" ry="2"/><ellipse cx="102" cy="108" fill="#342520" rx="51" ry="1"/></g></g></svg>