<svg xmlns="http://www.w3.org/2000/svg" viewBox="0 0 933 1400"><defs/><filter id="a"><feGaussianBlur stdDeviation="12"/></filter><rect width="100%" height="100%" fill="#512c2e"/><g filter="url(#a)"><g fill-opacity=".5" transform="translate(2.7 2.7) scale(5.46875)"><circle cx="118" cy="114" r="188" fill="#fffcdf"/><circle r="1" transform="matrix(-31.7388 -17.30455 25.31588 -46.4326 83.7 65.3)"/><circle r="1" fill="#fff" transform="matrix(-14.71346 -147.44938 32.49542 -3.2426 156.5 78)"/><path fill="#fff" d="M-13 131L3 271l70-43z"/><ellipse cx="22" cy="82" fill="#700000" rx="17" ry="36"/><circle r="1" fill="#ec491c" transform="matrix(18.84762 35.35236 -40.63078 21.66173 105 249.3)"/><path fill="#010004" d="M122 113.3l-22 1.7-29.8-74.6 47.3-38.9z"/><circle r="1" fill="#dfd8c6" transform="matrix(-56.39306 22.56551 -13.10262 -32.74452 43.4 11.3)"/><path fill="#2a2f27" d="M149.1 161l-75.8-16.2 62.5-5.5 4.8-20.9z"/><path fill="#070301" d="M7 53h73v14H7z"/><path fill="#dad7bc" d="M59 111h70v29H59z"/><ellipse cx="145" cy="236" fill="#ffa468" rx="34" ry="26"/><circle r="1" fill="#88543b" transform="matrix(-36.50657 -29.57385 8.363 -10.32347 60.3 171)"/><path fill="#edeee3" d="M62 238l-7 31-39-9 7.2-31z"/><ellipse cx="4" cy="124" fill="#f4f4e9" rx="4" ry="65"/><path fill="#6f201f" d="M84.2 185.4l54.7-5.7 1 8.9-54.8 5.7z"/><path fill="#fcf0e4" d="M38 51h6v57h-6z"/><path fill="#573540" d="M116.5 68.5l-3.2 45.9-69.8-4.9 3.2-45.9z"/><ellipse cx="168" cy="75" fill="#e9ebe8" rx="25" ry="142"/><path fill="#7c151a" d="M63.3 257.6l15.9-29.9 9.9 43.3 26.2-49.4z"/><path fill="#151015" d="M116.3 5.2l-79 53.9 82.1-9.5L122.5.8z"/><path fill="#cbc6ad" d="M95 184l73-34-98 17z"/><path fill="#e2cdbc" d="M83.8 144.1L78 159.4l-30.6-50.3 27.4.7z"/><path fill="#ae6854" d="M67 124L8 150 7 87z"/><path fill="#af341b" d="M8 68h31v44H8z"/><path fill="#676357" d="M129.6 128.6l12.8 54 6-36.4-15.2-21.2z"/><path fill="#2b0f05" d="M34 76.3l-28.4-6L10 49.7l28.4 6z"/><ellipse cx="137" cy="61" fill="#d8d5cb" rx="17" ry="77"/><circle r="1" fill="#d9d5c2" transform="matrix(53.15208 -37.3559 .575 .81815 93.3 18.6)"/><path fill="#1a181e" d="M104 11h16v102h-16z"/><ellipse cx="80" cy="87" fill="#765359" rx="18" ry="26"/><path fill="#e5a989" d="M130.9 212.5l-30.4 6.4-5.4-25.4 30.4-6.4z"/><path fill="#665d49" d="M87 237.2l-50.3-49.4-32.5-45.4 57.1 65.8z"/><path fill="#000008" d="M147 144l-6 7-22-9z"/><circle r="1" fill="#eadcc6" transform="rotate(-70.6 223.5 -1.9) scale(70.82237 3.99244)"/><circle r="1" fill="#c5b9aa" transform="matrix(7.83542 18.01333 -36.86856 16.03705 78.4 6.5)"/><circle r="1" fill="#db9482" transform="rotate(-53.4 215 24.4) scale(2.21607 65.38229)"/><path fill="#968b78" d="M86 125h58v10H86z"/><path fill="#7e3d30" d="M83.4 190.1l23.3-4.4-49.8-20.6-41.4-27.6z"/><ellipse cx="120" cy="176" fill="#e6e5d0" rx="18" ry="4"/><path fill="#29191b" d="M80 39L44 53l2 59z"/><path fill="#576065" d="M16 117h28v13H16z"/><path fill="#e3dcc8" d="M23 123l19-12-16-1z"/><path fill="#bd4e41" d="M113 268l17-9.2 17.1-55.5-14.4 14.6z"/><ellipse cx="100" cy="155" fill="#88846d" rx="47" ry="7"/><circle cx="20" cy="233" r="42" fill="#d9d7cc"/><path fill="#d4d3c0" d="M66.5 106.5l17.9 9.1-3.6 40.2-22.9-13.7z"/><circle r="1" fill="#bdb498" transform="matrix(7.6417 -16.7693 6.93417 3.15987 6.3 164.3)"/><circle r="1" fill="#c33736" transform="matrix(4.23362 3.22516 -13.30516 17.46552 92.8 220.1)"/><path fill="#fa879a" d="M44 112h11v23H44z"/><path fill="#b4a695" d="M114.3-1.7l-93 40.9-21.8 8.6 43.8 8.6z"/><ellipse cx="169" cy="255" fill="#f19d66" rx="37" ry="39"/><path fill="#f1a26f" d="M136.5 211.5l-33.4 60.3-9.6-5.3 33.4-60.3z"/><path fill="#dadcde" d="M147 137h23v77h-23z"/><path fill="#9f3e36" d="M102.2 240.6l-7.4-5 19-28.2 7.4 5z"/><ellipse cx="4" cy="109" fill="#e4e3db" rx="3" ry="61"/><path fill="#69674e" d="M32.4 142.1l71.3 29.9-20.3-11.8-18.5 3.4z"/><path fill="#dbdacf" d="M39 56h5v55h-5z"/><path fill="#4a1a1c" d="M106 181h26v3h-26z"/><path fill="#d5c8a6" d="M64 113h79v12H64z"/><path fill="#d85b41" d="M150.3 214.8l6 .6-4.6 43.8-6-.6z"/><circle r="1" fill="#bdb49d" transform="rotate(119.6 -12.2 106.2) scale(1 62.46193)"/><path fill="#5e4347" d="M112 113l-66-6 31-59z"/><path fill="#dee3e0" d="M101 161h36v4h-36z"/><path fill="#cbac7b" d="M92.7 211.8l-76.4-57.6 59.1 67.6 31-25.1z"/><path fill="#bfc1ad" d="M102.9 194l35.3-6.9 1 5-35.4 6.8z"/><path fill="#792921" d="M85.5 244.7l12.8 2.6.7 12.2L70.5 271z"/><path fill="#2c3e24" d="M64.7 187.2l-48-37.6.6-.8 48 37.6z"/><path fill="#f3d09c" d="M154 249l2-27 13 6z"/><path fill="#383b40" d="M91.7 151.5l-12.3-11.4 20.6 6.1 37-4.1z"/><path fill="#fbb376" d="M113 205.7L69.4 268l-2.4-1.7 43.6-62.3z"/><path fill="#5f0d19" d="M61.6 116.3l1 .3-6.2 19-1-.2z"/><path fill="#bbb0a2" d="M86.6 201.3l50.6-13.2-51 8.3-48.8-35.2z"/><path fill="#a5a98a" d="M25.7 121.9l23.7 25.7-42.1-15.7 13.1 1.5z"/><path fill="#73674d" d="M103 120l-21 10 16-1z"/><path fill="#b14738" d="M56.8 260.3l4.1-15.3 11.2-21.1 7 36.7z"/><ellipse cx="142" cy="199" fill="#4d4a2b" rx="5" ry="3"/><path fill="#857150" d="M107 166l-30-2 16 8z"/><path fill="#21170e" d="M7.1 63l.2-8.3-1-8.5 27.5 19.3z"/><path fill="#534025" d="M22 128l-2-19-6 29z"/><path fill="#cdccc9" d="M142.6 169.9l12-56.4-13.4 24 20.7 35.4z"/><path fill="#3e4c34" d="M77.7 200.9l18.9 1.6-11.5-1.2-11.2-10.1z"/><ellipse cx="114" cy="185" fill="#75463f" rx="29" ry="4"/><path fill="#805a61" d="M79.2 76.2l-9.9 34.6-10.5-3 9.9-34.6z"/><path fill="#b54e38" d="M7 80h29v32H7z"/><path fill="#e2ddd9" d="M123 77h47v36h-47z"/><path fill="#1a1b20" d="M120.5 4l-5.6-20 3.6 13.6-4.4 71.8z"/><path fill="#b9af9d" d="M87.4 124.3l54.9 5.2-6.1-27.5-3.3 39.9z"/><path fill="#baa77e" d="M33.3 162.7l67.7 56.1-56.3-40.9-40.3-39z"/><path fill="#d1c9b5" d="M98 169h35v11H98z"/><circle cx="38" cy="119" r="7" fill="#5e526b"/><path fill="#785944" d="M33.5 136.5L75 156.6l-.4 1L33 137.3z"/><path fill="#862a22" d="M34.3 66l-1.8 15-24.8-3 1.8-15z"/><path fill="#f1ab9d" d="M55 110h11v9H55z"/><path fill="#666155" d="M127.2 192l-26.1 7-.3-1 26.1-7z"/><path fill="#22241f" d="M97 152h17v2H97z"/><path fill="#3a2f35" d="M90 100h31v13H90z"/><path fill="#9e947f" d="M120 19h2v53h-2z"/><circle r="1" fill="#974134" transform="matrix(-23.47086 -15.05283 1.01034 -1.57536 59.2 165)"/><path fill="#fff7d9" d="M116 149h13v1h-13z"/></g></g></svg>