<svg xmlns="http://www.w3.org/2000/svg" viewBox="0 0 933 1400"><defs/><filter id="a"><feGaussianBlur stdDeviation="12"/></filter><rect width="100%" height="100%" fill="#4c4645"/><g filter="url(#a)"><g fill-opacity=".5" transform="translate(2.7 2.7) scale(5.46875)"><circle cx="68" cy="125" r="168" fill="#fffedb"/><ellipse cx="17" cy="86" fill="#fffaff" rx="35" ry="118"/><ellipse cx="100" cy="19" fill="#7d5b38" rx="50" ry="167"/><path fill="#fff" d="M129.3 182.9l58 18.8-22.6 69.4-58-18.8z"/><circle r="1" fill="#fff" transform="rotate(87.1 42 128.8) scale(90.32754 18.12244)"/><circle r="1" fill="#e18352" transform="matrix(7.73865 38.39467 -64.61877 13.02426 52.2 229.3)"/><path fill="#522a26" d="M29 165h125v10H29z"/><circle r="1" fill="#443f2c" transform="matrix(1.25381 17.08337 -49.99747 3.6695 100.2 12.3)"/><circle r="1" fill="#ae9374" transform="matrix(38.02496 53.90504 -37.40352 26.38469 103.7 107.3)"/><path fill="#fff" d="M129 195l-98.7-7 .6-9 98.8 7z"/><path fill="#445245" d="M134 0h15v123h-15z"/><path fill="#f7dacb" d="M36 132h115v9H36z"/><ellipse cx="155" cy="139" fill="#000003" rx="4" ry="13"/><circle r="1" fill="#c97962" transform="matrix(1.71044 10.93806 -51.5108 8.05498 88.2 151.9)"/><path fill="#6b433c" d="M118 161h35v26h-35z"/><ellipse cx="34" cy="247" fill="#986a4d" rx="71" ry="9"/><path fill="#1f0e0f" d="M167 195l18-32-22 9z"/><path fill="#fff" d="M50 182l-66 30 4-25z"/><ellipse cx="73" cy="176" fill="#a89f91" rx="55" ry="5"/><path fill="#f2f2f9" d="M185 139.3L153.7 28.1l3.1 90.3 3 56z"/><circle r="1" fill="#e6b488" transform="rotate(81 -103.4 126.6) scale(14.47171 47.3045)"/><path fill="#514f39" d="M52 6h6v129h-6z"/><path fill="#bbb3ab" d="M0 0h52v28H0z"/><path fill="#dfe2ea" d="M185 243l-91 25 41-84z"/><path fill="#fdfbf8" d="M43 40h8v107h-8z"/><path fill="#da804f" d="M94 191l24 27 10-21z"/><path fill="#6c735d" d="M58 116h92v14H58z"/><path fill="#f3fdff" d="M109 130h40v5h-40z"/><path fill="#b67b67" d="M49 140h103v26H49z"/><path fill="#f1f6fe" d="M151 91h6v34h-6z"/><path fill="#eae5cc" d="M59 144h83v2H59z"/><circle r="1" fill="#ad9a73" transform="matrix(-4.79642 46.97432 -22.46354 -2.2937 91.4 67.3)"/><ellipse cx="98" cy="158" fill="#d5dcbe" rx="46" ry="2"/><path fill="#dadadf" d="M147 216.5l15.1-6.8 2.7-25.1-2.4-19.5z"/><path fill="#a49785" d="M29 171h65v11H29z"/><path fill="#786952" d="M116.1 129.7L78 133l-26.2 1.4-1.2-8.5z"/><path fill="#8b3b35" d="M49 154h105v3H49z"/><path fill="#816d50" d="M58 20h77v22H58z"/><circle r="1" fill="#ab745d" transform="matrix(14.4233 18.00321 -23.57867 18.89007 78.1 248.9)"/><path fill="#dbd6d2" d="M-15.2 192.8L52.3-1.7l-9.8 153.5-18.1 34.6z"/><path fill="#87453a" d="M31.7 169.8l13.2-10.9 48.3 3.3-42 .7z"/><path fill="#675b48" d="M134 125l14 2 1-46z"/><path fill="#111c25" d="M147.3 175l-98.7-7v-1l98.8 7z"/><path fill="#b6b1ac" d="M23-16l-9 33L77-4z"/><path fill="#020910" d="M152 126h5v17h-5z"/><path fill="#653526" d="M141 143.8l-76-2.6v-1l76 2.6z"/><circle r="1" fill="#574739" transform="rotate(-173.5 71.7 68) scale(25.83562 1)"/><ellipse cx="92" cy="151" fill="#dfcc8e" rx="45" ry="2"/><path fill="#c7c1be" d="M149 0h21v51h-21z"/><circle r="1" fill="#c6bda7" transform="matrix(.05234 -.99863 72.2638 3.78719 80 174.4)"/><path fill="#cbd1de" d="M185 144.2v16.4l-28.7 11.3-4.8-21.9z"/><path fill="#341d1f" d="M118 166l32 4-8 6z"/><path fill="#838074" d="M103 176h53v10h-53z"/><path fill="#f5edea" d="M52 185h72v5H52z"/><path fill="#fbffff" d="M59.2 138.8l-10.5 5.9-2-3.5 10.6-5.9z"/><ellipse cx="102" cy="164" fill="#ece5c3" rx="29" ry="1"/><path fill="#888a73" d="M51 53h11v67H51z"/><path fill="#e0e2ba" d="M88.6 142.1l38.9 2.8v1l-39-2.8z"/><circle r="1" fill="#6e6865" transform="matrix(-61.91951 -4.21329 .09762 -1.4346 95.8 177.7)"/><path fill="#756f5b" d="M149.5 44.6l.6 74.7-24.6-40.5-.6-65.5z"/><path fill="#a23b36" d="M129 164l-90-3v-1l90 3z"/><path fill="#170000" d="M49 165h22v1H49z"/><path fill="#8d8c85" d="M153 68h1v53h-1z"/><path fill="#cfc4b2" d="M139 183.2l-.1 1-77.8-5.4v-1z"/><path fill="#40302e" d="M164 168l21 7-24-1z"/><path fill="#d48e58" d="M23 197l20-10 26 3z"/><path fill="#95261a" d="M56 148h79v1H56z"/><circle r="1" fill="#544b38" transform="matrix(39.4099 .6879 -.15792 9.04731 112 2.3)"/><circle r="1" fill="#b9b2a9" transform="matrix(-1.55067 -27.67144 9.39085 -.52625 36.8 16.2)"/><path fill="#d5b16f" d="M-2.7 259.5L1.5 245l19.2 5.5-4.2 14.5z"/><path fill="#d4a37e" d="M31 194l23 49.3-29.1-2-27.8-34.2z"/><circle r="1" fill="#fdfafc" transform="matrix(-10.36719 3.40856 -1.99475 -6.06707 0 199.2)"/><ellipse cx="152" fill="#8a8683" rx="1" ry="64"/><ellipse cx="116" cy="156" fill="#ffcfa9" rx="11" ry="1"/><circle r="1" fill="#050d12" transform="matrix(-.32041 -3.43241 2.97697 -.2779 153.6 144)"/><path fill="#8f5e44" d="M45.3 147.1l29.1-7.2.3 1-29.1 7.2z"/><path fill="#aa9673" d="M73 35h32v87H73z"/><path fill="#e2b59b" d="M121.6 164.4l.1-1 26.7 4.2-.1 1z"/><path fill="#d3976a" d="M81 195h47v11H81z"/><path fill="#a78455" d="M60.3 121.1L68 96l27.7 18.6-18 3.2z"/><path fill="#e6e2e1" d="M157 30l-7 65 35 16z"/><ellipse cx="98" cy="167" fill="#76302c" rx="43" ry="2"/><path fill="#eae1df" d="M151.1 195.6l-28.5-.4-65.9-6.4 47.2-2.3z"/><path fill="#8d8470" d="M156 173l-9 15-36-3z"/><path fill="#8c5a3f" d="M59 242.2l12.6-.8-5.7 8.8-23.5 1.8z"/><path fill="#726051" d="M41 179h33v2H41z"/><path fill="#d5d6d9" d="M164 193.9l21 7.8-16 67.8-19.6-89.8z"/><path fill="#807e66" d="M136.5 115.3l-80.4 4.3-5.9 14.7 65.7-3.6z"/><path fill="#b3b3a0" d="M25.2 161l32.3-9-31.7 15.5 29.8-3.4z"/><path fill="#d8d0c6" d="M51 31.5L-11.3.1l-4.7 132 68-76.3z"/><path fill="#525b52" d="M65.4 20.8l-9.9 45.5-2.2-50.7 45-31.6z"/><path fill="#936853" d="M11.4 234.4l-16.2 13.1 45.5-2.6-5.7 14.4z"/><path fill="#d5d7d3" d="M156 135h8v4h-8z"/><path fill="#d39a73" d="M73.1 136.3l29.1-.9-11.1 6.7-22-.7z"/><path fill="#b78165" d="M37.5 214.3l11.6 3-4.6 18.4-11.6-3z"/><path fill="#343530" d="M34 168h41v2H34z"/><path fill="#5d5551" d="M155.1 147.6l-4 5.4 3.3 35.9-6.6-39.7z"/><path fill="#dedde1" d="M129 129h21v5h-21z"/><circle r="1" fill="#323531" transform="matrix(-.11059 -4.25662 3.97338 -.10323 155 130.2)"/><ellipse cx="102" cy="151" fill="#af814d" rx="46" ry="1"/></g></g></svg>