<svg xmlns="http://www.w3.org/2000/svg" viewBox="0 0 933 1400"><defs/><filter id="a"><feGaussianBlur stdDeviation="12"/></filter><rect width="100%" height="100%" fill="#48241f"/><g filter="url(#a)"><g fill-opacity=".5" transform="translate(2.7 2.7) scale(5.46875)"><circle r="1" fill="#fff" transform="matrix(-92.16657 -34.09345 58.63212 -158.50322 109.3 157)"/><ellipse cx="33" cy="96" fill="#901e00" rx="55" ry="112"/><circle r="1" fill="#fff" transform="matrix(36.79303 -5.2795 24.00425 167.28657 130 187.9)"/><circle r="1" fill="#f7fdfa" transform="matrix(-140.78924 11.76972 -3.21738 -38.48627 75.9 246.4)"/><circle r="1" fill="#d9805d" transform="matrix(-58.1144 44.90291 -29.48912 -38.16552 48.8 16)"/><circle r="1" fill="#310300" transform="rotate(-75.4 113.7 56.5) scale(35.023 61.3429)"/><ellipse cx="115" cy="39" fill="#dadbd2" rx="30" ry="133"/><path fill="#7c7343" d="M146 112h21v78h-21z"/><path d="M120.8 170.2l-3.7 26.7-8-1L113 169z"/><circle r="1" fill="#77a5ac" transform="matrix(-1.60143 -11.3948 54.83333 -7.70632 34.2 198.8)"/><circle r="1" fill="#8b331d" transform="rotate(-149.9 29.4 42.3) scale(60.22507 28.57201)"/><circle r="1" fill="#949189" transform="matrix(12.94927 -.31647 1.01223 41.41783 109.6 17.2)"/><path fill="#812912" d="M64 183l22-81 4 81z"/><path fill="#b14e2b" d="M85 4L16 21l70 111z"/><path fill="#dfdbd7" d="M57 271l26-87 102 33z"/><circle r="1" fill="#461c14" transform="matrix(-52.06028 18.02749 -8.7262 -25.19978 6.1 162.4)"/><path fill="#e7e1dd" d="M117 88h28v168h-28z"/><ellipse cx="19" cy="97" fill="#7e3626" rx="44" ry="29"/><path fill="#ccdadd" d="M30 197l-46 8v32z"/><ellipse cx="160" cy="80" fill="#a59e74" rx="15" ry="114"/><path fill="#d4c8bb" d="M160.7 125.4l1.7-23.1-21.3-72.2-55.2 11.1z"/><path fill="#0b191d" d="M24 202l15 3-9 7z"/><path fill="#74715a" d="M146 0h17v27h-17z"/><path fill="#11140f" d="M110 169h4v27h-4z"/><path fill="#e9e3e0" d="M87.7 147.2l4.3 46.2 22.5-22.6.3-93.8z"/><path fill="#552218" d="M0 173h91v11H0z"/><path fill="#24242e" d="M50 193h34v3H50z"/><ellipse cx="10" cy="192" fill="#65767a" rx="52" ry="7"/><path fill="#e3ded8" d="M115 183h28v73h-28z"/><circle r="1" fill="#c0c4c3" transform="matrix(-1.50913 23.3369 -44.82044 -2.8984 -.1 234.5)"/><path fill="#8c4423" d="M45 10l39 39v-61z"/><ellipse cx="115" cy="36" fill="#54514a" rx="1" ry="146"/><path fill="#817860" d="M145 170h25v18h-25z"/><path fill="#585447" d="M185 143l-31 1 3-12z"/><ellipse cx="169" cy="70" fill="#555a4a" rx="5" ry="14"/><path fill="#e4d7cd" d="M63 186h42v6H63z"/><path d="M119 176l-8-4 1 13z"/><circle r="1" fill="#bec3bd" transform="matrix(6.67796 -.7973 4.9599 41.5426 93.4 16.6)"/><circle r="1" fill="#ab5232" transform="rotate(7.3 -951.4 617.3) scale(15.66096 12.98741)"/><path fill="#ba5e3c" d="M35 36h51v40H35z"/><path fill="#5d5445" d="M52 202h12v7H52z"/><path fill="#cbc8c7" d="M35 197l5-4-21-3z"/><path fill="#e0d8d3" d="M131 39h14v69h-14z"/><circle r="1" fill="#bbae9c" transform="matrix(-2.32065 9.38763 -12.58974 -3.11222 157.6 156.5)"/><circle r="1" fill="#567d98" transform="matrix(12.00033 -1.8412 .45228 2.94782 0 208.8)"/><path fill="#743527" d="M64 137h24v47H64z"/><path fill="#b4a584" d="M147 142V49l34 48z"/><ellipse cx="165" cy="219" fill="#d9d9d7" rx="32" ry="27"/><path fill="#a5bbbb" d="M99 204l-27-6 42-2z"/><ellipse cx="93" cy="97" fill="#e4ded3" rx="7" ry="66"/><path fill="#c9bea7" d="M152.5 38l-30 26.6L185 .5 178.9 27z"/><path fill="#a84b34" d="M20 2h19v84H20z"/><path fill="#7e3422" d="M8 97h55v30H8z"/><path fill="#838a88" d="M56.5 208l-22.4-20.9-.8 26.3 51-7.5z"/><circle r="1" fill="#201a19" transform="matrix(-8.78334 2.96643 -.31998 -.94743 8.5 196.5)"/><circle cx="58" cy="191" r="2"/><path fill="#435e6e" d="M20.4 208.3l-4.6 3.9 6.3 1 12.1-13.6z"/><ellipse cx="115" fill="#9a938c" rx="22" ry="14"/><ellipse cx="11" cy="154" fill="#552218" rx="48" ry="32"/><path fill="#ca6b44" d="M61 62h24v17H61z"/><path fill="#b1afa4" d="M177 180l8 18-36-9z"/><path fill="#e7e5e4" d="M108 169h25v2h-25z"/><circle cx="86" cy="241" r="36" fill="#dcd6d3"/><path fill="#aea59b" d="M63.3 192l2.9 19.5-7.6-10.5 5.9-13.9z"/><ellipse cx="1" cy="247" fill="#c3c2c1" rx="30" ry="37"/><path fill="#0c0e08" d="M114 173h5v7h-5z"/><ellipse cx="127" cy="158" fill="#e0dbdb" rx="10" ry="36"/><circle cx="30" cy="207" r="5" fill="#2e2d2b"/><path fill="#d5d0c5" d="M86 30h4v56h-4z"/><path fill="#9f3f2b" d="M14.4-24.7l26.5 16-27.3 45.4-26.5-16z"/><path fill="#85846b" d="M169 54l6-34-21 38z"/><path fill="#a89480" d="M83 184l-23 6-7-7z"/><path fill="#cec1b9" d="M119 21h27v31h-27z"/><path fill="#ac4f38" d="M86.8 34.4L71.6 59.5-6.1-.2l66.4 23.7z"/><path fill="#bcbab3" d="M47.8 200.1l50.4-6.5-54.8 9.5-25.4-2.8z"/><path fill="#e7ddcf" d="M-3 215l16-3 11-10z"/><path fill="#762e22" d="M-11.7 46.2l46.5 47.3 48 17.9-98.8-2.7z"/><path fill="#cdcecc" d="M26 209l-9 10 29 4z"/><path fill="#d1dad5" d="M90.2 183.8l8.4 12.3-23.1 3.7 9.7 13z"/><ellipse cx="116" cy="106" fill="#aeaba3" rx="1" ry="66"/><path fill="#5f2b1e" d="M25 153h45v32H25z"/><path fill="#9d4730" d="M57 88h30v50H57z"/><path fill="#ddd5cf" d="M120 54h26v56h-26z"/><path fill="#c2bdb6" d="M96.3 184.2l-33.6 4.9-7.3-1.5 15.9 6.9z"/><path fill="#697980" d="M43.5 201v1l-47 1v-1z"/><path fill="#696566" d="M55 190l-24 7 33 3z"/><path fill="#a6a59c" d="M49.3 225L-21 240l-.2-1L49 224z"/><path fill="#baac9a" d="M62.1 208.2l6.9-10.9 3 7.2-16.2-8.4z"/><circle r="1" fill="#8d8361" transform="rotate(156.1 75.9 58.6) scale(7.39275 12.10192)"/><path fill="#8a8b82" d="M107 187h3v9h-3z"/><path fill="#7d7b6c" d="M162.1 16.7l-15 20-1.4-8.2 17.9-35.8z"/><path fill="#9a8b68" d="M151 109h19v7h-19z"/><path fill="#b6b3b1" d="M33.6 191.8l4.6-.7 6.1.4-16.4 7z"/><path fill="#b7c5c7" d="M18 199h9v7h-9z"/><path fill="#b95f40" d="M77 121h11v13H77z"/><path fill="#3d3631" d="M59 205l-8-2-1 3z"/><ellipse cx="110" cy="148" fill="#e9e6e5" rx="5" ry="25"/><circle cx="74" cy="202" r="2" fill="#1e567b"/><path fill="#ba603e" d="M-1.6 35.5l88 54.6-.8-40.7-9 9.4z"/><path fill="#6c7275" d="M33 202h11v10H33z"/></g></g></svg>