<svg xmlns="http://www.w3.org/2000/svg" viewBox="0 0 1200 800"><defs/><filter id="a"><feGaussianBlur stdDeviation="12"/></filter><rect width="100%" height="100%" fill="#35292a"/><g filter="url(#a)"><g fill-opacity=".5" transform="translate(2.3 2.3) scale(4.6875)"><circle cx="116" cy="89" r="165" fill="#fff"/><circle r="1" fill="#010000" transform="rotate(160.3 4 43.4) scale(47.33927 37.72787)"/><circle r="1" fill="#ebefe1" transform="matrix(71.45378 116.14646 -90.43881 55.63833 183.3 90.7)"/><path fill="#764420" d="M33 105h158v18H33z"/><circle r="1" fill="#16190d" transform="rotate(179.9 118.4 42.5) scale(5.0252 60.3169)"/><ellipse cx="33" cy="24" fill="#dddacf" rx="57" ry="27"/><path fill="#050000" d="M69.4 52.3l-2 38-86.8-4.6 2-38z"/><path fill="#270500" d="M176 118h28v16h-28z"/><ellipse cx="205" cy="52" fill="#ddf2fb" rx="28" ry="66"/><path fill="#444c4a" d="M262.1-9.1L271 3.7l-90.3 44.9 35.1-26.1z"/><circle r="1" fill="#d9cda6" transform="matrix(2.12068 -30.62836 50.79621 3.51708 72.7 150.2)"/><path fill="#324e69" d="M209 146.3l48.2 7.4 13.8-13.5-30.4-7.8z"/><circle r="1" fill="#e8dcd6" transform="matrix(-57.64842 10.58047 -6.22653 -33.92568 124 71.3)"/><path fill="#a68163" d="M0 89h77v16H0z"/><ellipse cx="251" cy="74" fill="#e0ffff" rx="11" ry="62"/><circle r="1" fill="#f1f4f7" transform="rotate(-136.2 140.3 41.8) scale(48.47208 18.39791)"/><ellipse cx="236" cy="29" fill="#3b3b34" rx="5" ry="20"/><path fill="#fff" d="M242.1 3.4l-33.5 21.8-14.7-22.6 33.5-21.8z"/><circle r="1" fill="#a3978b" transform="matrix(-11.5076 14.62402 -17.87054 -14.06228 94.5 14.2)"/><path fill="#e2faff" d="M204 90h27v48h-27z"/><circle r="1" fill="#81957f" transform="matrix(-22.8566 11.04931 -7.17688 -14.8461 173 106.4)"/><circle r="1" fill="#7a6f59" transform="matrix(.86889 -1.87657 82.29723 38.10534 255.3 144.8)"/><ellipse cx="193" cy="35" fill="#616a6a" rx="2" ry="75"/><ellipse cx="170" cy="58" fill="#e1f0ff" rx="8" ry="44"/><path fill="#d9dbd3" d="M84 142l-20-5 18-42z"/><path fill="#e2f1fe" d="M271 151l-60 3 59 29z"/><circle r="1" fill="#a99a89" transform="matrix(1.93274 -12.28372 39.86166 6.27189 0 37.8)"/><path fill="#63503a" d="M0 97h69v23H0z"/><path fill="#c8ceb4" d="M50 90h17v10H50z"/><circle r="1" fill="#0a080b" transform="matrix(4.14922 7.7708 -11.77686 6.28826 56.4 59.5)"/><path fill="#a29c95" d="M203.1-16l-66 27.3 25.3 41.9L162-16z"/><path fill="#bfbdb7" d="M8 120h76v6H8z"/><path fill="#443b28" d="M233 132.7l38 22.4-30.2-24.5-7.1-88.6z"/><ellipse cx="31" cy="90" fill="#db9" rx="46" ry="2"/><circle r="1" fill="#cabd9b" transform="matrix(90.80443 32.15553 -8.67928 24.50952 135.5 169.1)"/><circle cx="57" cy="17" r="34" fill="#c3c3c1"/><circle r="1" fill="#e0d8c6" transform="matrix(2.86114 -10.31693 48.12158 13.3453 148.7 137.6)"/><path fill="#0e091e" d="M12 91h16v9H12z"/><path fill="#b3a492" d="M90 11h11v95H90z"/><path fill="#6e522c" d="M200.9 111.5l3.9 9.2-27.7 11.8-3.9-9.2z"/><path fill="#6a6c68" d="M42 125l-58 34 24-30z"/><path fill="#905c3d" d="M118.4 122.3l42.3-23.9-10.4 26-12.5-2.5z"/><path fill="#f2fffd" d="M231 20l-38 25 40-5z"/><path fill="#080307" d="M0 52h67v13H0z"/><path fill="#eafaff" d="M242 16h14v38h-14z"/><path fill="#fff" d="M198 30l59-38-54-4z"/><path fill="#c8cec5" d="M156.8 112l12.3-2.3.9-17.2-31 67.5z"/><path fill="#dee2e7" d="M173 13h20v74h-20z"/><path fill="#f6ffff" d="M116 103h2v22h-2z"/><path fill="#8e4836" d="M84.7 122.8l-1.4-16 18-1.6 1.4 16z"/><path fill="#534d45" d="M271-8l-36 31 3-16z"/><ellipse cx="37" cy="163" fill="#b1ab92" rx="82" ry="16"/><ellipse cx="77" cy="59" fill="#d4cfd1" rx="10" ry="32"/><ellipse cx="129" cy="57" fill="#e7dbcc" rx="18" ry="40"/><ellipse cx="22" cy="46" fill="#a7998a" rx="42" ry="5"/><path fill="#9f978b" d="M103 26L45-3l76 15z"/><circle cx="213" cy="100" r="19" fill="#e2f0fb"/><ellipse cx="190" cy="114" fill="#d2aa89" rx="12" ry="5"/><path fill="#555f5a" d="M194 33l9 2-10 11z"/><circle r="1" fill="#7392b1" transform="rotate(100.9 56.5 169.3) scale(6.30943 24.49323)"/><path fill="#cbe5fd" d="M241 85h15v47h-15z"/><path fill="#495f37" d="M176 86h4v15h-4z"/><path fill="#4d2f32" d="M37 62l25 27-49-2z"/><ellipse cx="233" cy="126" fill="#282821" rx="2" ry="10"/><path fill="#bac8c4" d="M233 93l-21-10 20-37z"/><path fill="#42362f" d="M252.5 147.5l-5.9-13.9 24.4 13.7v16.9z"/><path fill="#2a4e68" d="M239 18h2v110h-2z"/><path fill="#d3d4d1" d="M187.4 166.8l21.2-32-32.1-2.6-25-19.3z"/><path fill="#cacccd" d="M8.3-13.6l84.7 55-9.3 14.2L-1 .6z"/><path fill="#695646" d="M74.8 104.7l-33.7 15.9-43.1-6.5 79.3-18.2z"/><path fill="#674f32" d="M172.3 130.7l19.8.2-19-26.9.3 23.9z"/><circle r="1" fill="#6d8090" transform="matrix(2.65404 .20806 -.93505 11.9274 196 0)"/><path fill="#54684b" d="M160 119l-8-19 30 24z"/><path fill="#b9c2c1" d="M149.7 86.2l15-80.4-2.1 75.7 5.2 33.3z"/><path fill="#9d8b6a" d="M237 18h2v99h-2z"/><path fill="#bd765a" d="M142.5 104.4l-45.1.3-7.4 15.6 62.4-7.3z"/><path fill="#b5b6b6" d="M12.6 183.1l.3-39.8 69.3-25.4-74 54.9z"/><circle r="1" fill="#1c1011" transform="rotate(143.6 -12.8 38.8) scale(29.70522 11.46821)"/><path fill="#111015" d="M57 51h10v32H57z"/><path fill="#c6c3bf" d="M109.5 97.3l-40.7 4.8 16 10.9-19 .5z"/><path fill="#3e392d" d="M233 16h3v48h-3z"/><path fill="#b92642" d="M33 98l-4-7h18z"/><path fill="#595a55" d="M263.7-1.6l.5.8-67.9 42.4-.5-.8z"/><circle r="1" fill="#b2bfbb" transform="rotate(90.1 39.9 163.9) scale(11.0898 1)"/><ellipse cx="41" cy="108" fill="#581d17" rx="34" ry="2"/><ellipse cx="228" cy="139" fill="#a1b1b9" rx="13" ry="3"/><circle r="1" fill="#e4eeea" transform="matrix(8.16065 -14.21195 7.07725 4.06383 214 42.8)"/><circle r="1" fill="#99978e" transform="matrix(7.63978 -.31406 .3396 8.261 156.9 17.2)"/><path fill="#4e5357" d="M236.6 135.3l34.4 7.8h-55.3l52.3 5.7z"/><path fill="#a6c7da" d="M266.1 134.3l-22 .4-.2-15 22-.4z"/><path fill="#dbd8d8" d="M78 37h5v82h-5z"/><circle cx="185" cy="127" r="6" fill="#403423"/><circle r="1" fill="#e8f3ff" transform="matrix(10.9925 -13.10034 2.12274 1.78119 251.9 18.6)"/><path fill="#aebeae" d="M178 90l-13.3 29.6 4.5-32.7 41.6 12z"/><path fill="#c7b48a" d="M-11.6 78.3l3.1 12.1 30.5-.7-29.5 8.8z"/><path fill="#d9e3e6" d="M189 46h4v65h-4z"/><path fill="#31502f" d="M186 100h2v11h-2z"/><path fill="#7d705d" d="M232 31h2v41h-2z"/><ellipse cx="116" cy="135" fill="#d5ccba" rx="41" ry="14"/><path fill="#9eb0b4" d="M228.1 16.2l-37.7 26.4-.5-.8 37.7-26.4z"/></g></g></svg>