<svg xmlns="http://www.w3.org/2000/svg" viewBox="0 0 1200 800"><defs/><filter id="a"><feGaussianBlur stdDeviation="12"/></filter><rect width="100%" height="100%" fill="#413434"/><g filter="url(#a)"><g fill-opacity=".5" transform="translate(2.3 2.3) scale(4.6875)"><circle r="1" fill="#fff" transform="matrix(156.31163 155.00622 -97.6472 98.46955 146.7 59.1)"/><circle cx="163" cy="79" r="127" fill="#e9d8b9"/><circle cx="13" cy="60" r="29" fill="#ad0c00"/><circle r="1" fill="#795b39" transform="matrix(7.3586 49.1578 -19.95655 2.98736 132.7 79)"/><circle r="1" fill="#f8f7ef" transform="matrix(2.28818 35.3429 -67.6016 4.37668 120.7 160.3)"/><circle r="1" fill="#917e59" transform="matrix(-20.75316 -40.38127 25.25844 -12.98107 244 83.3)"/><circle r="1" fill="#4d443b" transform="matrix(-39.2043 .81135 -.16589 -8.01558 172 117.6)"/><ellipse cx="42" cy="98" fill="#fff" rx="49" ry="10"/><ellipse cx="70" cy="52" fill="#e0ddda" rx="31" ry="69"/><circle r="1" fill="#5b4e58" transform="rotate(-176.3 15.3 73.4) scale(33.50626 18.11115)"/><circle r="1" fill="#cfc9bf" transform="matrix(-101.9171 -11.25175 2.2838 -20.68642 40.4 15.2)"/><path fill="#441001" d="M0 74h41v15H0z"/><ellipse cx="124" cy="104" fill="#7c4938" rx="26" ry="11"/><ellipse cx="8" cy="133" fill="#a3d2ee" rx="28" ry="5"/><ellipse cx="163" cy="89" fill="#d4d5d6" rx="15" ry="37"/><path fill="#291500" d="M8 109h16v22H8z"/><circle r="1" fill="#f1deab" transform="matrix(2.83842 27.07536 -82.61234 8.66058 203.1 169)"/><ellipse cx="76" cy="121" fill="#c27a4b" rx="36" ry="6"/><path fill="#db6e32" d="M37.9 67.8l3.9-31-43.7-5.3 18 33.4z"/><path fill="#371e2a" d="M39.2 135.6L-16 173.5l72.5-20.8 4-10.1z"/><path fill="#d6cebe" d="M223 114l-2-40-92 12z"/><path fill="#f2eade" d="M40 40h27v79H40z"/><path fill="#5c5845" d="M143 39h7v77h-7z"/><path fill="#797372" d="M205.3 129.2l-27.8-63.9L191 50.5l-17.6-11.4z"/><ellipse cx="194" cy="117" fill="#472e17" rx="15" ry="7"/><path fill="#ab7b57" d="M1.1 102.5l-15.1 9.9 9 1.4 61.8-.7z"/><path fill="#f8eacd" d="M187.7 52.1l3.1 58.6 19.4-42.9-5.2-14.3z"/><path fill="#3d3226" d="M153.4 110.5l4.2 4.9-6.4 11.8-9.5-1z"/><path fill="#dadce2" d="M135 118l-93 17 107 22z"/><path fill="#cdcecb" d="M70.1 125L87 154.9 85.4 174 44 177.7z"/><path fill="#dbaa8d" d="M99 88l32 16 21-19z"/><path fill="#655836" d="M119.2 49.6l-7-.2.6-19 7 .2z"/><ellipse cx="89" cy="68" fill="#ccc4c0" rx="24" ry="39"/><path fill="#f9efe0" d="M26 115h20l-25 13z"/><path fill="#dfe5ed" d="M150 39h10v71h-10z"/><ellipse cx="4" cy="150" fill="#bcd3eb" rx="10" ry="3"/><circle r="1" fill="#a39383" transform="matrix(1.83578 -7.04765 9.8601 2.56836 171 92.5)"/><circle r="1" fill="#24280d" transform="matrix(-1.28393 -6.83595 1.55869 -.29275 216.4 58.2)"/><path fill="#b8835b" d="M88 124l-49 9-12-14z"/><ellipse cx="178" cy="131" fill="#d1d0ce" rx="40" ry="8"/><circle r="1" fill="#652412" transform="rotate(-130.6 18.5 34.8) scale(13.48981 10.63824)"/><ellipse cx="255" cy="10" fill="#bbb3a8" rx="154" ry="41"/><circle r="1" fill="#cac5bf" transform="rotate(-29 39.5 -85.6) scale(42.10739 18.87777)"/><path fill="#b8afa6" d="M76.5 91.6l21.1 35.5-32.2-46.3L8.6 92.3z"/><path fill="#362a1d" d="M-16 120l38 5 3-19z"/><path fill="#79704f" d="M221 105h50l-39 11z"/><path fill="#2e3b7c" d="M184 75h4v16h-4z"/><circle r="1" fill="#4a362b" transform="matrix(-.37414 2.00478 -26.17779 -4.88544 130 109.6)"/><path fill="#a99f94" d="M46.3 25.4L-.8 6.9l59.3 10.9-9.8 32.4z"/><path fill="#686345" d="M178 57l4-17 6 19z"/><path fill="#dfd8d0" d="M102 37h11v53h-11z"/><path fill="#b27c60" d="M104 95l17-13 27 30z"/><path fill="#9a875f" d="M113 38h35v49h-35z"/><ellipse cx="130" cy="88" fill="#e6e7d8" rx="22" ry="2"/><path fill="#829172" d="M203.8 96.9l-6.1-1.9 32.6-39.8-22.9 16.3z"/><path fill="#a5542f" d="M40 36l-51-7 52 22z"/><circle r="1" fill="#e17651" transform="rotate(40.6 -57.8 57.3) scale(15.37534 11.61687)"/><path fill="#a4d9fb" d="M15 132.4l-1.4 5.8L3 135.6l1.5-5.8z"/><circle r="1" fill="#f6e8d2" transform="matrix(8.2573 -12.19405 3.0792 2.08511 212 85.8)"/><path fill="#edebe8" d="M72.6 184.4l-1.5-4.2 100.4-32.1-60.7-9.1z"/><path fill="#8a5973" d="M37.3 152l-1.8-4.6 23.2-9.4 1.8 4.6z"/><path fill="#e3d4be" d="M180.3 55l22.6 23.3L172 61.9l16.3 50.1z"/><path fill="#b7c5c9" d="M-16 115l38-27-26-1z"/><path fill="#403211" d="M-2 148l33-4-47-13z"/><path fill="#e2d1ac" d="M271 185l-58-53-145 53z"/><path fill="#bbbcc0" d="M26.5 124.6l-4.2-7.3 14.8 13.6-20.7 5.5z"/><path fill="#c0b8b5" d="M75 61h22v50H75z"/><path fill="#f9f3ee" d="M25 96h41v13H25z"/><circle r="1" fill="#cfc9c1" transform="rotate(-73.3 78.5 -68.1) scale(6.38587 36.08877)"/><path fill="#584228" d="M45 185l-43-2 55-42z"/><circle r="1" fill="#baa689" transform="matrix(-20.2982 13.53722 -10.56759 -15.84543 255 31.6)"/><path fill="#993c24" d="M23 63h17v25H23z"/><ellipse cx="15" cy="28" fill="#efe5d7" rx="15" ry="4"/><path fill="#77673f" d="M68.2 20.5l.6 35h-1l-.6-35z"/><path fill="#dfd1bd" d="M206.9 111.5l6.1 12.4 13.1-30-50.1 10.8z"/><ellipse cx="72" cy="72" fill="#e9eef5" rx="3" ry="44"/><ellipse cx="251" cy="127" fill="#bfb5a4" rx="58" ry="11"/><circle r="1" fill="#cecac7" transform="rotate(-80.1 189.3 -58.1) scale(7.10754 63.97994)"/><path fill="#5e4853" d="M21 169.9l13-19.5-16.7-13.6 32.5-6.4z"/><ellipse cx="145" cy="109" fill="#54463d" rx="5" ry="18"/><path fill="#cdcaca" d="M130 117l16 16-70 1z"/><circle r="1" fill="#c0bdb5" transform="matrix(4.44815 6.60956 -11.47175 7.72034 168.2 111.2)"/><path fill="#cdd4dc" d="M78 14L15-1l39-15z"/><path fill="#fcc486" d="M230 104h17l-15-8z"/><path fill="#faf0da" d="M56 31h10v42H56z"/><path fill="#c0724e" d="M28 113h26v2H28z"/><circle r="1" fill="#dedbd7" transform="rotate(12.6 -472.2 555) scale(28.48192 1.47395)"/><path fill="#9c8d75" d="M236 97l-13-43 48-8z"/><circle r="1" fill="#a54e2a" transform="matrix(-12.18106 -1.77702 2.35618 -16.15101 1.2 47.3)"/><ellipse cx="92" cy="16" fill="#cbc1b9" rx="18" ry="94"/><path fill="#d3d6d8" d="M58 142l46 43-16-59z"/><path fill="#534633" d="M180 110h18v6h-18z"/><path fill="#342411" d="M153 111h3v12h-3z"/><path fill="#f2f0eb" d="M41 57h7v48h-7z"/><path fill="#8c8170" d="M-16 110l40 1-17-9z"/><circle cx="208" cy="52" r="6" fill="#b19a6a"/><ellipse cx="210" cy="35" fill="#cbbca6" rx="36" ry="14"/><path fill="#343900" d="M181 51.7l.8-.5 9.2 13-.8.6z"/><path fill="#b37c60" d="M136.5 90.5v13h-29v-13z"/><ellipse cx="8" cy="81" fill="#602d27" rx="31" ry="7"/></g></g></svg>