<svg xmlns="http://www.w3.org/2000/svg" viewBox="0 0 933 1400"><defs/><filter id="prefix__a"><feGaussianBlur stdDeviation="12"/></filter><rect width="100%" height="100%" fill="#444548"/><g filter="url(#prefix__a)"><g transform="translate(2.7 2.7) scale(5.46875)"><circle r="1" fill="#fffff6" fill-opacity=".5" transform="matrix(-162.82512 17.68847 -16.2503 -149.58649 89.2 114.2)"/><circle r="1" fill="#fffdd9" fill-opacity=".5" transform="matrix(-43.01982 26.5081 -53.0273 -86.05763 2.2 127.6)"/><circle cx="92" cy="130" r="43" fill="#825732" fill-opacity=".5"/><circle r="1" fill="#fffff9" fill-opacity=".5" transform="matrix(-98.67447 21.11237 -5.29408 -24.74335 169 177.8)"/><circle r="1" fill="#dddacc" fill-opacity=".5" transform="rotate(25.3 -40 288.3) scale(157.45929 38.58873)"/><circle r="1" fill="#846d3e" fill-opacity=".5" transform="matrix(102.44876 -.8622 .256 30.41797 78.5 249.8)"/><circle r="1" fill="#796836" fill-opacity=".5" transform="matrix(-7.75883 11.36728 -45.37961 -30.97422 48.2 69.3)"/><circle r="1" fill="#f8c28d" fill-opacity=".5" transform="matrix(5.7509 17.80512 -29.09684 9.39802 77.3 121)"/><path fill="#2a201a" fill-opacity=".5" d="M77.4 147.9l39-9 6.2 27.2-39 9z"/><ellipse cx="155" cy="111" fill="#8cc4ee" fill-opacity=".5" rx="27" ry="31"/><circle r="1" fill="#f4f6ff" fill-opacity=".5" transform="matrix(-3.31642 -9.6316 69.95899 -24.08881 19.4 199.9)"/><path fill="#3d2b28" fill-opacity=".5" d="M177.7 139.8L97.3 151l78.6 1.3-4.9-15.5z"/><ellipse cx="119" cy="213" fill="#c3af8a" fill-opacity=".5" rx="103" ry="16"/><path fill="#c5c6ab" fill-opacity=".5" d="M41.7 92.4l27.8 43.9 12 27.8-86 33.2z"/><path fill="#4a4950" fill-opacity=".5" d="M130 94L72 81l57 47z"/><path fill="#ecf5fc" fill-opacity=".5" d="M171.8 191.7l-39-1.4 1.4-38 39 1.4z"/><circle r="1" fill="#f4f0db" fill-opacity=".5" transform="matrix(-14.3158 29.74603 -25.24757 -12.15083 7 94.8)"/><ellipse cx="134" cy="98" fill="#f3f0ef" fill-opacity=".5" rx="5" ry="31"/><path fill="#5f7f90" fill-opacity=".5" d="M117.2 92.4l13.5-1.8 1.9 69-21.5-28.8z"/><path fill="#ffab73" fill-opacity=".5" d="M79 103h26v33H79z"/><path fill="#2c3d46" fill-opacity=".5" d="M146 93l24 3-28 4z"/><ellipse cx="131" cy="70" fill="#cfccc9" fill-opacity=".5" rx="60" ry="21"/><circle r="1" fill="#90846a" fill-opacity=".5" transform="rotate(94.6 -73.3 165.5) scale(40.87235 86.72255)"/><circle r="1" fill="#908d6d" fill-opacity=".5" transform="rotate(86.3 -18.7 79.4) scale(42.31072 15.20979)"/><circle r="1" fill="#d2cebf" fill-opacity=".5" transform="matrix(70.13109 19.828 -2.91197 10.29955 134.2 210.3)"/><path fill="#3d2719" fill-opacity=".5" d="M93.9 174.6l-12.4-1.5-3.5-38.6 13.6 3.6z"/><path fill="#522415" fill-opacity=".5" d="M111.9 108.7l-6.1-20.4-31.2 11.3 3.9-19.9z"/><path fill="#4f88b0" fill-opacity=".5" d="M141 118h19v21h-19z"/><circle r="1" fill="#bab4a4" fill-opacity=".5" transform="matrix(110.53122 18.72627 -3.45037 20.36567 117.8 6.9)"/><path fill="#775a4e" fill-opacity=".5" d="M111.7 170.4l-6.1-71.8 24.9 36.6-59.1.6z"/><path fill="#c7c6ae" fill-opacity=".5" d="M83.7 157.3l-17.6 24.3-17.8-13 17.6-24.2z"/><ellipse cx="77" cy="255" fill="#7e745e" fill-opacity=".5" rx="169" ry="16"/><path fill="#d0d8e1" fill-opacity=".5" d="M135.5 95.8l16.9 73-5.9 1.4-16.9-73z"/><circle r="1" fill="#b8aa8b" fill-opacity=".5" transform="matrix(38.9219 -14.47492 4.43626 11.92873 36.6 217.7)"/><path fill="#a7b5b2" fill-opacity=".5" d="M117.6 63.4l7.3 42.6-3.7 7.6-6-10.4z"/><path fill="#4d4339" fill-opacity=".5" d="M170.1 141.3l14.9 15.3-33.3-5.5-3.3-8.6z"/><path fill="#f2b58b" fill-opacity=".5" d="M87 96h11v30H87z"/><path fill="#858768" fill-opacity=".5" d="M49-16l-3.8 5.3L17.6 9.6 6.7 25.9z"/><path fill="#888362" fill-opacity=".5" d="M90.3 68l-95-13L-16 25.6l46.6 18.8z"/><circle r="1" fill="#b9ba9e" fill-opacity=".5" transform="matrix(1.29707 26.52049 -14.97054 .73218 61 141.5)"/><ellipse cx="76" cy="128" fill="#aa4f2d" fill-opacity=".5" rx="2" ry="31"/><path fill="#b9b387" fill-opacity=".5" d="M44.2 78.4l2.9 25.4-49.9-57.4 8 3.7z"/><path fill="#35586a" fill-opacity=".5" d="M130 133l-17-1 1-17 17 1z"/><path fill="#552f1e" fill-opacity=".5" d="M105.7 91.1l-30.9-9.6-.5 13.4 40.4.4z"/><path fill="#1f1c10" fill-opacity=".5" d="M84 147h10v23H84z"/><path fill="#817170" fill-opacity=".5" d="M141.2 136.2l5.6 5.6-24 24-5.6-5.6z"/><circle r="1" fill="#dfe1e4" fill-opacity=".5" transform="matrix(-4.55756 9.6009 -17.33106 -8.2271 71.8 190)"/><path fill="#beb8ae" fill-opacity=".5" d="M142.5 72.6L9.7 21.3l109.1 72.3L66.1 79z"/><circle r="1" fill="#dde0e1" fill-opacity=".5" transform="matrix(-3.80957 14.0007 -36.72348 -9.9924 155.4 185.7)"/><path fill="#806a59" fill-opacity=".5" d="M101 172l-13-40 39 31z"/><path fill="#7facce" fill-opacity=".5" d="M142 98l22-4-23-9z"/><path fill="#c6c0aa" fill-opacity=".5" d="M-16 135l95 37-91 22z"/><path fill="#908a6c" fill-opacity=".5" d="M28 64l46 71-3-77z"/><path fill="#556c77" fill-opacity=".5" d="M130.7 103.6l-8 .7-1.4-16 8-.6z"/><path fill="#d3dde5" fill-opacity=".5" d="M131 84h9v54h-9z"/><path fill="#bcbebf" fill-opacity=".5" d="M121.7 151.8l14.4-2-24.9 24.8 40 .8z"/><path fill="#d6e4ee" fill-opacity=".5" d="M160 64l25 24-24 7z"/><circle r="1" fill="#b9b5a0" fill-opacity=".5" transform="matrix(3.11377 -6.6555 35.56731 16.64015 22.8 33.3)"/><circle r="1" fill="#c1b59e" fill-opacity=".5" transform="matrix(27.86867 9.10888 -2.415 7.38873 138 204.6)"/><path fill="#c1dbe7" fill-opacity=".5" d="M158 99h11v19h-11z"/><path fill="#aea087" fill-opacity=".5" d="M148.7 228.2l-58.8-23.5-27.1-.8 70.9 29.6z"/><path fill="#492f29" fill-opacity=".5" d="M76 138h3v19h-3z"/><path fill="#e6e8e5" fill-opacity=".5" d="M53 195l-69-5 9 29z"/><path fill="none" stroke="#687986" stroke-opacity=".5" stroke-width=".5" d="M141.6 140.4q.9-21.2-1.8-56.3"/><ellipse cx="31" cy="111" fill="#e1ddc7" fill-opacity=".5" rx="11" ry="30"/><path fill="#465c68" fill-opacity=".5" d="M135 138l-3-11 3 4z"/><path fill="#cdcac2" fill-opacity=".5" d="M89.4 48.1l88.2-8.4 7.4 37.5-70.7 13.2z"/><path fill="#aba68b" fill-opacity=".5" d="M75.2 130.6l1.5 29.2-31.9-53.5 30.1-13.6z"/><path fill="#434035" fill-opacity=".5" d="M122.6 160.9l-1 .2-10.2-48 1-.2z"/><circle r="1" fill="#9e8c70" fill-opacity=".5" transform="matrix(-.99934 11.90773 -45.33595 -3.80475 91 234.8)"/><path fill="#de8f5f" fill-opacity=".5" d="M75 107l27 28-25 1z"/><path fill="#73715e" fill-opacity=".5" d="M-4.2 251l42.4-24.4 6 10.3-42.4 24.5z"/><path fill="#2f2d28" fill-opacity=".5" d="M95 173l-5-21-14 16z"/><path fill="#5b3a41" fill-opacity=".5" d="M134 151l5-5-10-6z"/><path fill="#cac6b0" fill-opacity=".5" d="M0 156h82v6H0z"/><path fill="#abd3f3" fill-opacity=".5" d="M147 111h2v47h-2z"/><path fill="#42708c" fill-opacity=".5" d="M150 116h5v17h-5z"/><path fill="#ededde" fill-opacity=".5" d="M-14.8 129.7L-16 44.6l36 34.8 5.9 12.2z"/><path fill="#8b9aa4" fill-opacity=".5" d="M128 132l-2 10 14 2z"/><path fill="#4a7fa5" fill-opacity=".5" d="M144 116h4v22h-4z"/><path fill="#bbdcfa" fill-opacity=".5" d="M141 113h19v4h-19z"/><path fill="#99a6b1" fill-opacity=".5" d="M108 144h16v2h-16z"/><path fill="#c5c5bd" fill-opacity=".5" d="M133 150.4l-11 6.9-1-1.7 11-6.9z"/><path fill="#587c96" fill-opacity=".5" d="M148 90h4v20h-4z"/><path fill="#d2e2f4" fill-opacity=".5" d="M133 165l1-13h42z"/><path fill="#c0c0be" fill-opacity=".5" d="M114.7 138l18.3-5 .3 1-18.3 5z"/><path fill="#6a4435" fill-opacity=".5" d="M113 94l2 24-20-24z"/><ellipse cx="74" cy="146" fill="#d3d2cb" fill-opacity=".5" rx="1" ry="47"/><path fill="#463527" fill-opacity=".5" d="M151 141l9 10h-11z"/><path fill="#b5b1a5" fill-opacity=".5" d="M161-16l24 44L42-1z"/><path fill="#39332c" fill-opacity=".5" d="M109 138l-2 7 19-7z"/><circle r="1" fill="#494f4e" fill-opacity=".5" transform="matrix(.1092 .99402 -22.15754 2.43398 161.2 98)"/><path fill="#91bedd" fill-opacity=".5" d="M156 123l29 14-28 4z"/><path fill="#7f7c5f" fill-opacity=".5" d="M17.1 13.5l-9.7 9.7-11.1 35-4-9.4z"/><path fill="#9b6647" fill-opacity=".5" d="M85 92h13v6H85z"/><path fill="#583f33" fill-opacity=".5" d="M140.5 141v10h-3v-10z"/><path fill="#7a8f91" fill-opacity=".5" d="M165 119h5v12h-5z"/><path fill="#d3d0bf" fill-opacity=".5" d="M123.4 216.9l31.3 5.5-15.3-12.6-75.2-13.6z"/><path fill="#898774" fill-opacity=".5" d="M-16 233.9V271l37-35.3-10.4-11.2z"/><path fill="#432418" fill-opacity=".5" d="M74.1 101.2L76 84.3l4 .5-1.8 16.9z"/></g></g></svg>