<svg xmlns="http://www.w3.org/2000/svg" viewBox="0 0 1200 800"><defs/><filter id="a"><feGaussianBlur stdDeviation="12"/></filter><rect width="100%" height="100%" fill="#514031"/><g filter="url(#a)"><g fill-opacity=".5" transform="translate(2.3 2.3) scale(4.6875)"><circle r="1" fill="#fff" transform="rotate(153.1 32.9 69.9) scale(106.39425 255.00001)"/><path fill="#fff" d="M254.3 204.3L0 186.5l3.7-52.8L258 151.5z"/><circle r="1" fill="#5a2200" transform="matrix(-17.92201 46.2047 -33.66161 -13.05677 88.7 87.5)"/><path d="M168 107V-16l49 130z"/><circle r="1" fill="#fff" transform="matrix(-21.5587 -.15051 1.2616 -180.70853 145.7 90.1)"/><circle r="1" fill="#eedfcb" transform="matrix(-4.22664 -38.4853 80.2377 -8.81208 87.3 5.8)"/><path fill="#451908" d="M170 125h62v17h-62z"/><circle r="1" fill="#ff994f" transform="matrix(-11.73014 -10.83561 12.74455 -13.79666 92.7 76.8)"/><circle r="1" fill="#bdb99b" transform="rotate(97.3 65 164.4) scale(4.81454 68.64252)"/><ellipse cx="51" cy="61" fill="#684c28" rx="40" ry="13"/><ellipse cx="67" cy="162" fill="#f7efdc" rx="186" ry="27"/><path fill="#300d00" d="M85 49l39-14-1 37z"/><ellipse cx="21" cy="109" fill="#ffe4a4" rx="11" ry="47"/><path fill="#202f27" d="M168 51h88v57h-88z"/><ellipse cx="72" cy="101" fill="#331501" rx="9" ry="32"/><path fill="#310" d="M114 71h10v47h-10z"/><circle r="1" fill="#666c53" transform="matrix(25.25444 -4.12658 6.52422 39.92789 228.3 24.1)"/><path fill="#b9a17d" d="M0 13h64v102H0z"/><circle r="1" fill="#f6eee6" transform="matrix(20.17876 48.60795 -13.01508 5.40299 147.8 86.3)"/><path fill="#cedef2" d="M47-24.8l88 30.3-10 29.3L37 4.5z"/><path fill="#32382b" d="M167 0h37v85h-37z"/><path fill="#6f7681" d="M41 47h19v80H41z"/><path fill="#2f1204" d="M61.9 56.3l2.9-2.5 27-7.2L68.4 91z"/><path fill="#dbd3c1" d="M221.8 117.1l-6.5 18.5-4.3-8.9-1.5-12.4z"/><circle r="1" fill="#d2c3af" transform="matrix(-77.8965 -2.02237 .20457 -7.8797 50.4 138.3)"/><path fill="#fff8cf" d="M15 67h11v38H15z"/><path fill="#3f1611" d="M271 157.7l-54.1-11-4.5-4.1 58.6-19.9z"/><path fill="#d8dee4" d="M271 170.9L175 185l-74.8-64 .8-5.7z"/><path fill="#cdb294" d="M66 52l-82-62 143 46z"/><path fill="#977841" d="M20.7 56.9L7.4 107.5l-9-60.2-14.4 4.9z"/><path fill="#5e4533" d="M189 119h22v25h-22z"/><path fill="#ffa466" d="M106 84.8L83.2 88 80 65.2l22.8-3.2z"/><ellipse cx="156" cy="9" fill="#ede4dd" rx="10" ry="169"/><path fill="#966d32" d="M5.9 118l-20.2 1.9L.8 132.8l20.5-8.5z"/><path fill="#dcac6a" d="M152 124.8l-22.1 6.7.8-28.1 2.3 4z"/><path fill="#efdec5" d="M39 86l7 91-22-13z"/><circle r="1" fill="#797e79" transform="rotate(145.6 33.7 71) scale(13.08013 22.48606)"/><ellipse cx="255" cy="110" fill="#abb38f" rx="19" ry="3"/><path fill="#8f684c" d="M194 115.9l-16.8.3-7.4 14.2 37.9 4.3z"/><path fill="#cabfa8" d="M80 118h33v6H80z"/><path fill="#9f9e83" d="M233.8 105l9.9 5.1-20.9-3.6 7.1-2.6z"/><path fill="#34332b" d="M169 50h58v60h-58z"/><circle r="1" fill="#464637" transform="rotate(117.4 87.8 87.3) scale(15.77938 44.71091)"/><path fill="#d37341" d="M73.5 95.5l2-16.9 15 1.9-2 16.9z"/><path fill="#533923" d="M57 127l18-53 2 58z"/><path fill="#3f2819" d="M76 112h46v5H76z"/><ellipse cx="28" cy="169" fill="#fae8cc" rx="80" ry="29"/><path fill="#d4dade" d="M256 155l-2 30-95-49z"/><path fill="#aeacab" d="M56 78h7v35h-7z"/><path fill="#eff9ff" d="M126 67h5v69h-5z"/><path fill="#2b2a1f" d="M165.9-13.8l.5 45.5.1 26.2 19.2 56.9z"/><path fill="#613f2a" d="M123 97l-33-6 33-9z"/><path fill="#8f7542" d="M37 53l-17-1 15 42z"/><path fill="#e1c08e" d="M0 97h34v21H0z"/><path fill="#4d2f19" d="M109 42h15v31h-15z"/><path fill="#c6c9ad" d="M182 128h20v3h-20z"/><path fill="#a19882" d="M79.2 136.6l-.1-8.1 23.1.9-11.4 12.8z"/><path fill="#8f969a" d="M114 112l-32-5 31-6z"/><circle r="1" fill="#cab194" transform="matrix(3.54993 -14.3825 83.14333 20.52169 16.4 22.8)"/><path fill="#6c664c" d="M241.6-15.4l4.7 53.8-33.9 3-4.7-53.8z"/><path fill="#6f6458" d="M41 53h15v27H41z"/><path fill="#533227" d="M172 138l38 4-37-15z"/><path fill="#43382c" d="M61 125h54v2H61z"/><path fill="#cfb9a0" d="M52.7 140.1l-54.2-13.2 53.1-1.9 28.1 22.3z"/><path fill="#3b2112" d="M64 58h11v48H64z"/><path fill="#8f9da9" d="M41.6 94.7l21 19.7-21.9 8.4-2.1-51.6z"/><circle r="1" fill="#b1967b" transform="matrix(.52736 4.55455 -47.20591 5.46587 67.2 45)"/><path fill="#c5683b" d="M102 58h8v30h-8z"/><path fill="#cdd2d4" d="M98.9 131.8l45 2.4-.8 14-45-2.4z"/><ellipse cx="128" cy="169" fill="#f3efe6" rx="71" ry="16"/><path fill="#1e2221" d="M170 94h57v12h-57z"/><path fill="#c5bdad" d="M220 114h-22l19 15z"/><path fill="#000908" d="M72.9 128.4l.2-11 6 .2-.2 11z"/><path fill="#644835" d="M117.1 119.2l4-81.6 4.1 77.9-57-15z"/><ellipse cx="177" cy="11" fill="#2c2d23" rx="11" ry="100"/><path fill="#604923" d="M-2 104l-11 11 18 11z"/><path fill="#a09d88" d="M264 123l-42-6 19 10z"/><path fill="#263e3b" d="M271 137.4l-53.7-18.2 9.7 13.7 44 8.8z"/><path fill="#916544" d="M71.9 119.9l-8.6-9.9 6.8-5.9 8.6 9.9z"/><path fill="#4b1312" d="M175.7 124.1l.2-1 20.4 4.8-.2 1z"/><path fill="#47483a" d="M184.8 74L181 47.3 261.2 36l3.8 26.7z"/><ellipse cx="157" cy="132" fill="#e7e1de" rx="12" ry="95"/><path fill="#9a4f2b" d="M73 73v23l10-35z"/><path fill="#ffebca" d="M12.9 76.5l8.9-9.8L27 82.4l-12.3 10z"/><path fill="#d1c2ae" d="M141 40.7l8.3.8L34.4 27l1.3-22.2z"/><path fill="#4f3421" d="M120.1 119.9l5.7-79.3-54 12.1 52.1 9.6z"/><path fill="#4a4e39" d="M187 107h41v6h-41z"/><circle r="1" fill="#e2cfb9" transform="rotate(-56.3 78.2 -134) scale(13.84879 22.53292)"/><path fill="#c7c4b5" d="M195.6 148l18.2-1-.7 17.5 3.2-25.4z"/><path fill="#844b39" d="M170 130h29v7h-29z"/><ellipse cx="127" cy="64" fill="#d3e1ee" rx="3" ry="43"/><path fill="#fab57a" d="M86 63h11v13H86z"/><path fill="#331f25" d="M205.2 140.1l-.6 4-15.8-2.2.6-4z"/><path fill="#fff9e2" d="M29 38h5v6h-5z"/><path fill="#c9bea8" d="M107.7 105l.2 1-25.6 5-.2-1z"/><path fill="#b5976f" d="M-16 61.7l3.9-40.3L18.3 39l32 9.9z"/><path fill="#daceb9" d="M164.4 145l3.2-17 33.3 4-51.9-11z"/><path fill="#9e9183" d="M60.3 47L53 145.9l10.4-65.3 1.1-20.2z"/><path fill="#401710" d="M241 133h15v19h-15z"/><path fill="#36392e" d="M90 91h18v4H90z"/></g></g></svg>