<svg xmlns="http://www.w3.org/2000/svg" viewBox="0 0 1400 933"><defs/><filter id="a"><feGaussianBlur stdDeviation="12"/></filter><rect width="100%" height="100%" fill="#424651"/><g filter="url(#a)"><g fill-opacity=".5" transform="translate(2.7 2.7) scale(5.46875)"><path fill="#fff" d="M-8.5.5h249v169h-249z"/><circle r="1" fill="#dfddcb" transform="matrix(-153.67727 61.46652 -37.37124 -93.43475 80.2 60.2)"/><path fill="#615949" d="M23-16l36 141 34-23z"/><path fill="#463013" d="M164 97l57 38-5-47z"/><ellipse cx="129" cy="121" fill="#fdffff" rx="59" ry="17"/><path fill="#fff" d="M240 150l4 35 24-21z"/><circle r="1" fill="#81abce" transform="matrix(-39.16224 -5.78298 3.62102 -24.52149 100.5 75.2)"/><circle r="1" fill="#f9f9de" transform="rotate(70.1 -28.7 26) scale(57.81949 24.62023)"/><ellipse cx="245" cy="75" fill="#bcc6ce" rx="46" ry="22"/><circle r="1" fill="#847e52" transform="matrix(22.26625 25.43454 -9.5233 8.33701 32.2 5)"/><ellipse cx="116" cy="162" fill="#ab9364" rx="75" ry="15"/><ellipse cx="230" cy="104" fill="#e0dfd3" rx="10" ry="60"/><circle r="1" fill="#e5e8e9" transform="matrix(-73.74709 30.54704 -5.42552 -13.09836 62 140.5)"/><path fill="#4e3b34" d="M54 93h20v31H54z"/><path fill="#cbd5dd" d="M172.7 104.9l6-60.6L96.9-16l40.5 115.2z"/><path fill="#323433" d="M107.5 54.6l-4.4.7-1.8 25.6 3.2 21.1z"/><path fill="#eb8a66" d="M178 48h20v43h-20z"/><path fill="#4d4c51" d="M95.9 94.3l24 9.6-26.3.9-21.4-4.6z"/><ellipse cx="121" cy="80" fill="#1e190d" rx="2" ry="25"/><path fill="#bfbcaf" d="M45.9-1.7L271-16l-32.6 27.9.5 42.3z"/><ellipse cx="68" cy="69" fill="#fafaff" rx="4" ry="22"/><path fill="#3c5679" d="M241 29h15v69h-15z"/><ellipse cx="124" cy="57" fill="#3a4145" rx="36" ry="2"/><path fill="#d4d4d2" d="M133 153.3l37.3-5.4-86.1-46-32.6 35.6z"/><path fill="#000004" d="M265-3.2L271.5 9 245 23.2 238.5 11z"/><path fill="#6ea1c7" d="M133 74h22v21h-22z"/><ellipse cx="115" cy="46" fill="#d7e2ec" rx="48" ry="10"/><path fill="#664d4a" d="M55 45h9v77h-9z"/><path fill="#685a40" d="M194 89h27v34h-27z"/><circle r="1" fill="#d1d0b5" transform="matrix(21.57757 -46.913 22.52738 10.36144 24.2 102.2)"/><circle r="1" fill="#b8b6a2" transform="matrix(-21.39532 -31.13038 19.55543 -13.44008 203.6 155.5)"/><circle r="1" fill="#a18b82" transform="matrix(8.01475 12.6485 -14.8695 9.4221 185.3 97.9)"/><circle cx="58" cy="169" r="22" fill="#bdaf91"/><path fill="#584222" d="M133 100h9v6h-9z"/><circle r="1" fill="#9c9774" transform="matrix(-11.9447 4.8564 -9.88055 -24.30198 40.8 24.8)"/><circle r="1" fill="#dacfc6" transform="rotate(-107.1 102.2 -41.1) scale(29.12797 20.65387)"/><path fill="#e7ecf3" d="M79 105h71v30H79z"/><path fill="#c2ddf6" d="M119.8 58.5l.3 39.9-11.7 2.8-1.7-34.8z"/><path fill="#aaaaa0" d="M258.1-2l-17.5 8.8-.8 30.5L171.4 0z"/><path fill="#452913" d="M81 96h14v8H81z"/><path fill="#89a5ba" d="M77 117l10-63-17 29z"/><path fill="#6e6559" d="M60.9 90.6l-8.5 40.1-1.8.5 11.6-5.9z"/><path fill="#222422" d="M86 56.4l-16 2.2v-1l15.8-2.2z"/><path fill="#c9cac6" d="M234.6 128.5l-21-31.6 32.4 6.4L187.2 11z"/><path fill="#948770" d="M208 185l-82-35 45-2z"/><path fill="#2f2a22" d="M204 124l-3-16 17 8z"/><path fill="#aba381" d="M53.5 114.5l3.6-49.7-27.6-52.3L44 85.3z"/><path fill="#ccc0a6" d="M92 136h88v13H92z"/><path fill="#cdcecc" d="M198 45h42v41h-42z"/><path fill="#def4ff" d="M98 93h4v19h-4z"/><path fill="#5f5049" d="M196 50h2v53h-2z"/><circle r="1" fill="#e5e8e6" transform="rotate(-38.9 229.7 40.3) scale(32.53348 9.76083)"/><ellipse cx="141" cy="96" fill="#e1f5ff" rx="19" ry="3"/><path fill="#283642" d="M92 101h33v2H92z"/><path fill="#a5a49d" d="M271 113.1l-55.8-4.4-50.2-8.1 54.2 14.6z"/><circle r="1" fill="#3f3f3a" transform="matrix(1.39623 .06288 -.77671 17.246 103.7 83)"/><ellipse cx="255" cy="104" fill="#100e06" rx="9" ry="7"/><path fill="#bcc0ba" d="M271 168h-33l-44-47z"/><path fill="#5f7499" d="M254.8 73.7L243 70.8l12.1-48.5 11.7 2.9z"/><path fill="#4d5556" d="M122 53h2v41h-2z"/><path fill="#b7b7ae" d="M240 30l-21-15 4 85z"/><circle r="1" fill="#cecbc5" transform="matrix(-2.69084 -14.62897 57.44086 -10.56564 112.8 31.2)"/><path fill="#565248" d="M56.2 93.7l24 23.8-12.6 1.1 6.9-26.9z"/><path fill="#d1e7f7" d="M89 58h13v15H89z"/><path fill="#c9e6ff" d="M128 59h25v13h-25z"/><path fill="#535756" d="M112 44h2v16h-2z"/><path fill="#dae1e8" d="M64 50h7v33h-7z"/><path fill="#ced5df" d="M103.8 120.5l-20.6 28.3-21-15.3 20.6-28.3z"/><path fill="#c1bfb4" d="M69 30l95-32L24-16z"/><path fill="#c7e2f8" d="M126 48h30v9h-30z"/><path fill="#4d6f8c" d="M74.3 74.4l8.6-2.4.8 8.5-7.4-.7z"/><path fill="#fbc0a1" d="M182 50h8v44h-8z"/><path fill="#6881a2" d="M240 95h5v16h-5z"/><path fill="#273a48" d="M240 132h16v18h-16z"/><path fill="#c8c9ca" d="M193 117l-51 16 43 2z"/><path fill="#6a5c4a" d="M215.9 90.1l-29 5.8 14.1 28.9 1.8 2.1z"/><path fill="#17202e" d="M240.3 14.2l1.1 8.2-1.3 13.6L271 6z"/><path fill="#c4e0f7" d="M84 57L72 77l3-20z"/><circle r="1" fill="#e6e6d7" transform="matrix(-32.2116 -31.36866 16.07992 -16.51202 0 33.9)"/><path fill="#c2dcf6" d="M128.1 91.5l4.5 4.2-3.3 10.4-9.4-.9z"/><path fill="#c6cac7" d="M220 108h20v37h-20z"/><path fill="#c0c6cb" d="M81.8 86.1L70.9 126l29.8-7.2-21.4-1.4z"/><circle cx="56" cy="125" r="2" fill="#080800"/><path fill="#928078" d="M63.4 98.6l-5.1 7 2.1 19.1 11.3-6z"/><path fill="#675a53" d="M201.7 125.2l-32.2-21.8-2.7 1.7 50.7 20z"/><path fill="#d8dbdf" d="M198 50h11v37h-11z"/><circle r="1" fill="#d6d4d3" transform="matrix(-7.1345 -1.8451 7.52086 -29.08103 168.7 77.9)"/><path fill="#653d18" d="M214 90h7v6h-7z"/><path fill="#39372c" d="M199 114h21v7h-21z"/><path fill="#cce0f2" d="M112.8 44.4l3.7 1.5L96 51.3l-33.3-1.9z"/><path fill="#43423e" d="M124 56.9v3l-14-.8v-3z"/><path fill="#cbdef0" d="M106 59h12v14h-12z"/><path fill="#c0b59c" d="M89 147l-79 35 42-35z"/><path fill="#e5f5ff" d="M106 95h8v6h-8z"/><path fill="#99b4ca" d="M102 90.9l-46.4 13L78 94.7l5.3-15.3z"/><path fill="#c4ddf0" d="M124 61h11v23h-11z"/><path fill="#a4a7a1" d="M207.6 129.1l11.8.7-23.2 26.7 68.5 28.5z"/><path fill="#c6c6c4" d="M230.2 94l-24.4-65.4 1.6 63.2 5.3-2.4z"/><path fill="#9f9079" d="M169 137h21v7h-21z"/><ellipse cx="180" cy="64" fill="#d3896a" rx="2" ry="18"/></g></g></svg>