<svg xmlns="http://www.w3.org/2000/svg" viewBox="0 0 1400 933"><defs/><filter id="a"><feGaussianBlur stdDeviation="12"/></filter><rect width="100%" height="100%" fill="#403b32"/><g filter="url(#a)"><g fill-opacity=".5" transform="translate(2.7 2.7) scale(5.46875)"><circle r="1" fill="#fff" transform="matrix(144.26119 -98.95204 95.4529 139.15983 112.3 48.5)"/><circle r="1" fill="#faedd9" transform="matrix(-79.7113 76.97632 -38.89677 -40.27878 196.3 58.7)"/><circle r="1" fill="#e0d1bb" transform="rotate(-69.7 55.1 -6.2) scale(247.43924 41.84963)"/><path d="M65 101.1l11.6-9.2-1.3 42.7H59.7z"/><path fill="#2a1e00" d="M86.8 70.8l-.6-29 33-.6.6 29z"/><circle r="1" fill="#716343" transform="matrix(10.05088 -7.9377 29.86641 37.81744 232.8 150.4)"/><circle r="1" fill="#e3dac9" transform="rotate(-118.3 72.3 21) scale(65.08704 12.59996)"/><circle r="1" fill="#bf9f6c" transform="matrix(1.06085 -30.87853 92.74042 3.18614 125.2 157.3)"/><circle r="1" fill="#e2d0b5" transform="matrix(54.31094 -10.07613 4.14976 22.36748 137.4 19)"/><circle r="1" fill="#dcd9d1" transform="matrix(82.82939 40.44302 -15.97886 32.72554 239.6 63)"/><path fill="#3f392d" d="M212.6 158l.8-16 38 2-.8 16z"/><ellipse cx="209" cy="138" fill="#d4c6b1" rx="136" ry="6"/><path fill="#716d50" d="M155 40h12v27h-12z"/><path fill="#b2a484" d="M271 162.6l-41.4-1.9-70.6-37.8 47 62.1z"/><path fill="#987d57" d="M157 185L37 165l112-22z"/><path fill="#504631" d="M216 126h40v7h-40z"/><path fill="#050200" d="M63 105h12v25H63z"/><path fill="#ccc4bc" d="M33 66h26v96H33z"/><path fill="#25261c" d="M106 90l2-12 10 13z"/><circle r="1" fill="#bcab94" transform="matrix(-92.41328 -8.42377 1.55742 -17.0857 71.5 10)"/><path fill="#595140" d="M228 104h24v9h-24z"/><path fill="#ddd2b6" d="M211.4 117l27.5-4.2 27.6-5.1 2.9 24z"/><path fill="#f0f6fa" d="M154 33l24 6 7-50z"/><circle r="1" fill="#c1b39e" transform="matrix(-9.73493 -16.30194 38.28846 -22.86448 227.9 6.3)"/><path fill="#4f483b" d="M223.6 119.2l-25.5-4.8 36.4 28.7 1.7 19.5z"/><path fill="#f0dfc0" d="M87.1 143.7l33.2 8.1.7-18.1-24.3 2.9z"/><circle r="1" fill="#c1b2a3" transform="matrix(-12.99292 -19.78509 16.75051 -11.0001 185.3 122)"/><path fill="#ebe9de" d="M165.1 72.2l2.8 53-11 .6-2.8-53z"/><ellipse cx="241" cy="152" fill="#555042" rx="25" ry="10"/><path fill="#665433" d="M194 142l28 9-14-11z"/><path fill="#ccc5b5" d="M78 71h28v58H78z"/><circle r="1" fill="#b2a693" transform="rotate(-62.1 142.5 65.4) scale(23.87237 33.58794)"/><circle r="1" fill="#e8e8e3" transform="rotate(64.3 98.9 210.8) scale(10.44326 38.36247)"/><path fill="#c4b7ab" d="M120 17h33v128h-33z"/><path fill="#d0c0a7" d="M179.8 115.1l10.6 17.4 35.7 11.6 3.7-5.4z"/><path fill="#b6a991" d="M227.9 133.9l-3.2-8.2 46.3 19.4-11.2 7.5z"/><path fill="#907a59" d="M90.9 181.9L66 148.1l-28.4 29.2-6 7.7z"/><path fill="#d0c9bb" d="M202.1 111.6L271 93.7l-58.4-70.2 16.9 101.1z"/><circle r="1" fill="#524e3f" transform="matrix(6.19372 2.68143 -5.03712 11.63504 67.1 107.2)"/><path fill="#6a624b" d="M85 42h28v30H85z"/><ellipse cx="82" cy="131" fill="#94805f" rx="24" ry="4"/><circle r="1" fill="#c5c3bf" transform="rotate(-148.6 36.5 23.7) scale(27.88766 29.62964)"/><path fill="#f7ead0" d="M169.2 138.4l-3.2 4.4-11.6 5.6 2.3-16.2z"/><path fill="#a69777" d="M271 157l-57 10 17 18z"/><circle r="1" fill="#bfb7ad" transform="matrix(-20.18863 30.4417 -38.48207 -25.52093 17 38)"/><ellipse cx="174" cy="133" fill="#afa18d" rx="3" ry="64"/><path fill="#d6cfc1" d="M119.7 89.9l2 31.9-17.7-3.5-5.3-24.7z"/><path fill="#463e30" d="M221 133l6-8-22-4z"/><path fill="#d9d6cf" d="M165.9 29.9L195.7-16l-2.5 51.1-27.9 31.1z"/><path fill="#c4ad89" d="M68 133l51 14-13 19z"/><path fill="#ccc0aa" d="M226 118h25v9h-25z"/><path fill="#9a8260" d="M168 142h41v6h-41z"/><path fill="#bdae97" d="M-4 3l157 32 29-51z"/><path fill="#f0f3f8" d="M81 93l7-9-3-12z"/><path fill="#1e160f" d="M108 60h11v5h-11z"/><path fill="#eff2f0" d="M179.5 5.3L234-16h-50.3l-40.6 74.7z"/><path fill="#9a8968" d="M94 58l7-14 16-3z"/><path fill="#38372e" d="M105.2 59.5l6-6.9-21.7-8.9 25.3 18.1z"/><path fill="#c0b08e" d="M166 142l-14 17 72-1z"/><path fill="#5d584b" d="M242 141l-35 3 24 18z"/><ellipse cx="96" cy="88" fill="#7a776a" rx="4" ry="3"/><path fill="#c5bbaf" d="M7.1 58.2l31 119.3 14.7-15.6 11.3-63.7z"/><ellipse cx="216" cy="81" fill="#f8fffd" rx="3" ry="10"/><path fill="#cbc4bb" d="M117.3 87.9l51.3-9.8-27.8-24.8L111 87z"/><path fill="#968b75" d="M83 126h34v5H83z"/><path fill="#2b291e" d="M85.6 51.8l10.3 1 1.9-4.3-3.1-1.9z"/><path fill="#0a0b06" d="M71 102h5v26h-5z"/><path fill="#958d78" d="M59 101h4v36h-4z"/><circle cx="232" cy="133" r="4" fill="#cdc6b3"/><path fill="#846e4d" d="M121 145h31v3h-31z"/><circle cx="160" cy="62" r="6" fill="#7e7b6a"/><path fill="#564f44" d="M213 131l6-12-16-6z"/><path fill="#cbc1b7" d="M123 39h33v58h-33z"/><path fill="#cdc5bb" d="M164.9 53.3l50.1-8.8-11.6 73.7 3.4 15.8z"/><path fill="#4f4a40" d="M244 127h12v6h-12z"/><circle cx="112" cy="89" r="2" fill="#00090d"/><path fill="#c4c6c8" d="M59 41h20v54H59z"/><path fill="#bdb0a2" d="M122 116h31v28h-31z"/><path fill="#c5bcaf" d="M76 37h8v93h-8z"/><path fill="#716a61" d="M240.6 112.6l-11.2 2.9-3.6-11.2 19.3.5z"/><path fill="#bfb6a6" d="M219 117l2-23-32 13z"/><path fill="#c9bca8" d="M72 23h63v19H72z"/><path fill="#a79a84" d="M43-7l23 37L29-4z"/><circle r="1" fill="#62573b" transform="matrix(-3.69318 -1.97198 1.2846 -2.40585 224.5 133.8)"/><path fill="#ede0c8" d="M123 135.3l-1 11-17-1.6 1-11z"/><path fill="#e6e4e0" d="M147.6 42.5l42.6-4.8 3.8-5.9-33.4-4.6z"/><path fill="#9a967c" d="M119 44h3v31h-3z"/><path fill="#0e100b" d="M66 117h9v12h-9z"/><path fill="#bfb2a1" d="M214 130l-66-7 42 20z"/><circle cx="117" cy="69" r="3" fill="#2b2117"/><path fill="#b3a795" d="M0 151h46v19H0z"/><path fill="#c7beb2" d="M140.6 92.5l47.6-5.4-59.7 17.2-18.2-20.7z"/><ellipse cx="115" cy="72" fill="#d7d3c9" rx="54" ry="1"/><path fill="#d4cebe" d="M236 116l35-13v20z"/><path fill="#2c2922" d="M233 158h8v4h-8z"/><path fill="#cbb288" d="M100.2 55.4l-5-.8.6-4 5 .8z"/><path fill="#aa926d" d="M60 133h19v28H60z"/><circle r="1" fill="#d2cdc2" transform="matrix(-19.26699 21.08656 -4.94916 -4.5221 191.1 11.4)"/><path fill="#cec6bc" d="M221 71h35v33h-35z"/><path fill="#ae9f7e" d="M217.5 183.5L195 168.4l13.4-19.9 22.4 15.1z"/></g></g></svg>