<svg xmlns="http://www.w3.org/2000/svg" viewBox="0 0 1200 800"><defs/><filter id="a"><feGaussianBlur stdDeviation="12"/></filter><rect width="100%" height="100%" fill="#3f3630"/><g filter="url(#a)"><g fill-opacity=".5" transform="translate(2.3 2.3) scale(4.6875)"><circle r="1" fill="#fff" transform="matrix(98.1068 -208.48756 114.35266 53.81028 150 97.1)"/><circle r="1" fill="#5f2a04" transform="matrix(9.93704 53.61545 -66.80463 12.3815 49.4 89)"/><circle r="1" fill="#fff" transform="rotate(81.7 -14 169.1) scale(46.41439 122.70057)"/><circle r="1" fill="#e5eae5" transform="rotate(-171.2 48.7 3.4) scale(131.15665 22.8627)"/><circle r="1" fill="#ffaf64" transform="matrix(29.19369 4.8235 -3.7509 22.70181 47.1 71.3)"/><path fill="#b9d3e2" d="M189 0h67v104h-67z"/><circle r="1" fill="#30251d" transform="matrix(9.56632 -19.44424 28.81806 14.17812 41 118.2)"/><path fill="#bdc4b8" d="M0 122h30v48H0z"/><path fill="#3e3536" d="M125.9 109.4l56.6-1.6L137.4 97l-54.9 12.6z"/><path fill="#97c3e4" d="M116 32h44v65h-44z"/><ellipse cx="162" cy="143" fill="#e8ebe0" rx="73" ry="35"/><path fill="#290800" d="M-8 44l-8-36 95 33z"/><path fill="#000a08" d="M184 46h5v62h-5z"/><path fill="#384e56" d="M114.6 82.8l2.3-48-54.8 12 58.8 65.5z"/><path fill="#0e2122" d="M164.7 98.6l-5-.2 1.6-43 5 .2z"/><ellipse cx="144" fill="#cebfa7" rx="121" ry="22"/><path fill="#ffb47b" d="M73 55.7l-3.4 21.7L37 72.3l3.4-21.7z"/><ellipse cx="207" cy="109" fill="#362700" rx="11" ry="4"/><path fill="#5f8cab" d="M136 72h104v22H136z"/><path fill="#1e1c11" d="M15.4 140.4L32.8 129 34 91.3l13.4 55.9z"/><path fill="#26241c" d="M171 50.4l-.2-2L275 35.6l.2 2z"/><path fill="#cae9ff" d="M166 94h62v10h-62z"/><path fill="#c4ad97" d="M238.2 110.6l-4.4-124 36-1.2 4.4 124z"/><ellipse cx="100" cy="115" fill="#939999" rx="11" ry="25"/><ellipse cx="120" cy="49" fill="#f1eae4" rx="6" ry="35"/><path fill="#3d3d32" d="M94.8 129L72 136.3 61.2 103 84 95.6z"/><ellipse cx="152" cy="51" fill="#3b4b4d" rx="23" ry="3"/><path fill="#b0e7ff" d="M168 51h15v20h-15z"/><circle r="1" fill="#a09264" transform="matrix(-56.2008 -9.68604 .23382 -1.35666 234.7 157.7)"/><path fill="#b4d7f5" d="M194 49h33v34h-33z"/><path fill="#deecf7" d="M131 105l31 23-55-14z"/><path fill="#190d0a" d="M0 95h20v28H0z"/><path fill="#d6f6ff" d="M161 111l-9 7 8-31z"/><circle r="1" fill="#c6c7bc" transform="matrix(6.54152 17.22069 -49.11937 18.6587 56 161)"/><circle r="1" fill="#c4e2fd" transform="matrix(31.48583 -6.46311 2.14397 10.44461 205 28.5)"/><path fill="#b0a396" d="M89.8 7.6L80 39.2 12.2 18.4 22-13.2z"/><path fill="#a3a39a" d="M34 117l-42 68 4-60z"/><path fill="#944725" d="M13 48h17v48H13z"/><path fill="#463027" d="M101.4 91.3L80 39.5l-16.9-4 26.7 56.8z"/><path fill="#04111b" d="M172 28h3v19h-3z"/><ellipse cx="186" cy="83" fill="#3b3222" rx="3" ry="24"/><path fill="#3e2c1a" d="M152 109l1-14-22 10z"/><ellipse cx="235" cy="54" fill="#556976" rx="2" ry="41"/><path fill="#8b9e9a" d="M93.2 57.7l13.4 13.8 3.4-8.1L98.9 28z"/><path fill="#c7e7ff" d="M157 28h16v19h-16z"/><circle r="1" fill="#3d3c34" transform="rotate(89.2 39.5 124.4) scale(30.10534 2.00362)"/><circle r="1" fill="#cec8bc" transform="matrix(95.67795 -32.56397 4.37358 12.85026 175.9 4.5)"/><ellipse cx="179" cy="106" fill="#0a1817" rx="10" ry="2"/><path fill="#b6cad8" d="M150 55h11v44h-11z"/><path fill="#cfe4f2" d="M219 130l10-34-13-3z"/><ellipse cx="186" cy="130" fill="#ebe8dc" rx="63" ry="17"/><path fill="#415b68" d="M89 60h27v28H89z"/><path fill="#283030" d="M169 47h16v5h-16z"/><path fill="#7ea4bf" d="M202 67h30v28h-30z"/><path fill="#847c6d" d="M29 147l-3-17-42 32z"/><path fill="#5e423a" d="M111 95h15v15h-15z"/><path fill="#f3faff" d="M123 59h4v34h-4z"/><path fill="#e28756" d="M34 67h40v26H34z"/><path fill="#587b96" d="M150.7 70.9l-20.6 6.8 2.3 16.3 18.3-9.6z"/><path fill="#271205" d="M15 109l31 2-2 14z"/><path fill="#332519" d="M105 105l-33 1 8 9z"/><ellipse cx="131" cy="169" fill="#c2c4c0" rx="255" ry="7"/><path fill="#4f2f1d" d="M87.4 67.8l-7.6-10.4-50.6-32L89 41.6z"/><path fill="#110f07" d="M3 18h4v81H3z"/><path fill="#5c6759" d="M227 113l-1-9 15 7z"/><ellipse cx="142" cy="118" fill="#d7dfe3" rx="35" ry="10"/><ellipse cx="127" cy="68" fill="#5f646a" rx="1" ry="36"/><path fill="#878e92" d="M91 98.4l41.8-2.6 3.7 13.8-24.8-10.8z"/><ellipse cx="248" cy="22" fill="#bbb1a8" rx="13" ry="81"/><circle r="1" fill="#69453c" transform="matrix(.22777 2.50279 -7.91618 .72043 204.6 105.4)"/><circle r="1" fill="#beb6ab" transform="rotate(19.2 7.8 267.7) scale(20.73104 29.61913)"/><path fill="#f6b885" d="M39.1 49.9l20.8 30.4-3.8-38.8-1.9 18z"/><path fill="#c8ddec" d="M196 47h31v19h-31z"/><path fill="#d7dccf" d="M223 96h22v11h-22z"/><path fill="#111510" d="M126 53h9v2h-9z"/><path fill="#7c7d77" d="M128.2 99.9l-69.1 11.4 59.3-17.1-.1-14.2z"/><path fill="#8e5233" d="M36 88h26v18H36z"/><path fill="#b8d5ed" d="M120 46l23 2-12 3z"/><path fill="#c2daef" d="M180 22h54v19h-54z"/><path fill="#bfd4df" d="M151 52h10v11h-10z"/><circle r="1" fill="#e7e9ec" transform="rotate(-72.1 178.3 -21.7) scale(7.71616 31.72857)"/><path fill="#90b8d9" d="M188 48h7v22h-7z"/><path fill="#4b585a" d="M107 36h8v37h-8z"/><path fill="#a9cff6" d="M169 88h16v16h-16z"/><path fill="#aeaea3" d="M-11.4 128.3l27.7-4.4 3 19.8-27.6 4.4z"/><path fill="#cf804f" d="M27.4 56.4l.1 38.3 32.8-.8-28.1-49.2z"/><path fill="#2a2a23" d="M126.2 54.9l-.1-1 33.7-4.8.1 1z"/><path fill="#b2b6b4" d="M14 122h18v8H14z"/><path fill="#69503e" d="M48 94h24v43H48z"/><path fill="#86a8c3" d="M208 46h5v49h-5z"/><path fill="#ddf4ff" d="M162 96.9l-.1 1L130 95l.1-1z"/><circle r="1" fill="#bab090" transform="rotate(-82.1 199.2 -49.7) scale(1 160.74254)"/><path fill="#bfc0bb" d="M112.4 136.5l-90.6 32.8-4.8-13.9 109.3-38.5z"/><path fill="#3d3b37" d="M72 97l32-3-35 14z"/><path fill="#4d2c2a" d="M112.8 98.1l-4.6 14.7 10.4-2.8-2.8-6.5z"/><path fill="#547286" d="M135 39l3 21 4-14z"/><circle r="1" fill="#384345" transform="matrix(-.09212 -.99575 39.2428 -3.63056 198.3 46.3)"/><path fill="#2b6986" d="M166 108h17v2h-17z"/><path fill="#3d4247" d="M187 72h7v5h-7z"/><path fill="#9e6440" d="M35.7 44.7L45 40l14.6.9 24.2 23.6z"/></g></g></svg>