<svg xmlns="http://www.w3.org/2000/svg" viewBox="0 0 933 1400"><defs/><filter id="a"><feGaussianBlur stdDeviation="12"/></filter><rect width="100%" height="100%" fill="#4c4645"/><g filter="url(#a)"><g fill-opacity=".5" transform="translate(2.7 2.7) scale(5.46875)"><circle cx="81" cy="139" r="175" fill="#fffedb"/><ellipse cx="102" cy="56" fill="#7f5d3b" rx="51" ry="130"/><circle r="1" fill="#fffcff" transform="matrix(11.12828 -109.35188 38.54078 3.92213 11.6 104.4)"/><ellipse cx="150" cy="247" fill="#fff" rx="39" ry="59"/><circle r="1" fill="#fff" transform="rotate(-3.1 1474.2 -3002.7) scale(15.5487 93.03785)"/><circle r="1" fill="#e0824f" transform="matrix(-8.37481 -39.06502 69.50707 -14.90102 46.3 232)"/><circle r="1" fill="#4a432f" transform="matrix(1.0807 24.7519 -48.81203 2.13118 101.5 9.3)"/><path fill="#5f3834" d="M152 182l7-61-43 65z"/><path fill="#ffe2d3" d="M19 132h133v9H19z"/><ellipse cx="60" cy="189" fill="#ffede3" rx="81" ry="7"/><ellipse cx="61" cy="168" fill="#3d1a12" rx="33" ry="4"/><circle r="1" fill="#b69f76" transform="matrix(8.45587 -49.98617 26.18353 4.42932 91.2 72.7)"/><ellipse cx="102" cy="153" fill="#d88973" rx="56" ry="12"/><path fill="#331c22" d="M110.8 165.4l74.2 10.9-51.5-.8-52.9-5.4z"/><ellipse cx="66" cy="207" fill="#daa075" rx="58" ry="18"/><path fill="#19090a" d="M165 169h5v26h-5z"/><path fill="#e0e3ec" d="M91 271l50-86 44 57z"/><ellipse cx="47" cy="103" fill="#fff" rx="4" ry="44"/><ellipse cx="142" cy="57" fill="#4c594d" rx="8" ry="72"/><path fill="#00080e" d="M152 126h6v25h-6z"/><path fill="#9a6851" d="M-5 243l104 26 3-38z"/><path fill="#544e35" d="M52 3h5v124h-5z"/><circle r="1" fill="#f1f2f7" transform="matrix(-.04546 -34.00492 15.23993 -.02038 165.6 99)"/><path fill="#d3dff0" d="M153.5 181.7l5.2-9.8-8.4-23.5 28.3 3.7z"/><path fill="#beb5b1" d="M-16 3.3l64.1 36.4 3.8-31.5L100.7-16z"/><path fill="#fbffff" d="M150.5 129.5v5h-37v-5z"/><circle r="1" fill="#edeef1" transform="matrix(.35095 -3.28393 74.97254 8.01225 71.4 186.4)"/><circle r="1" fill="#a57b63" transform="matrix(7.29939 8.17752 -22.72762 20.28705 52.1 159.4)"/><path fill="#6c6a53" d="M51 134l4-17 40 13z"/><circle r="1" fill="#d8aa83" transform="rotate(137.4 -23.5 112.8) scale(30.17995 17.66933)"/><circle r="1" fill="#ce875a" transform="matrix(-.50645 4.95671 -28.10023 -2.87114 98.6 197.2)"/><path fill="#eae2c5" d="M81 143h47v3H81z"/><path fill="#5f5541" d="M134 126l15 1V97z"/><circle r="1" fill="#9e978c" transform="matrix(73.508 4.22407 -.28544 4.96734 95.7 177.4)"/><path fill="#e4e2e1" d="M150 41h16v84h-16z"/><path fill="#eae4e1" d="M44 10h7v72h-7z"/><path fill="#d9d9dd" d="M157 158h7v53h-7z"/><ellipse cx="137" cy="158" fill="#cfd1bb" rx="90" ry="2"/><path fill="#952a26" d="M48 160h33v3H48z"/><path fill="#f3f7fa" d="M-8.9 196.7l41.5-17.6 4.3 10.2-41.5 17.6z"/><path fill="#8f3d2b" d="M79 140h58v3H79z"/><ellipse cx="100" cy="155" fill="#8d3932" rx="56" ry="2"/><path fill="#ddd4cf" d="M29 35l20 124-63-21z"/><path fill="#836f52" d="M53 27l87 27-8-41z"/><path fill="#4f554b" d="M50.1 6l12-1.6L67.8 46l-12 1.6z"/><circle r="1" fill="#ad9671" transform="rotate(-57.8 124 -42) scale(26.4869 41.90073)"/><ellipse cx="87" cy="152" fill="#eaeac9" rx="38" ry="1"/><path fill="#4d4837" d="M68 0h81v10H68z"/><ellipse cx="90" cy="162" fill="#9e4138" rx="48" ry="2"/><path fill="#c58351" d="M37 189h29v8H37z"/><path fill="#a09d98" d="M152 0h2v98h-2z"/><path fill="#c18b6e" d="M28.5 243.1l83.7-50.2 19.3 6.7L97.8 241z"/><path fill="#55545d" d="M45.7 173.2l98.7 8.6-.1 1-98.7-8.6z"/><path fill="#e7e9f1" d="M157 136l28-60-14 95z"/><circle r="1" fill="#b5afa7" transform="rotate(-32.1 26.6 -55.8) scale(17.74531 20.61953)"/><path fill="#888172" d="M88.4 183.8l36.8-1.9 46.6-13.2-24.8 18.5z"/><ellipse cx="86" cy="148" fill="#8f251c" rx="39" ry="1"/><path fill="#e8eaed" d="M33 148l38-14H46z"/><ellipse cx="110" cy="169" fill="#5a302e" rx="38" ry="4"/><path fill="#d1bfa4" d="M40.2 172.7l65.4 3.2 26.7.3-75-4.4z"/><path fill="#c7c1bd" d="M149 0h21v51h-21z"/><circle r="1" fill="#d7a881" transform="matrix(1.79985 14.03382 -53.69088 6.8859 43.5 209)"/><path fill="#d8dada" d="M101 255h84l-57-54z"/><ellipse cx="80" cy="164" fill="#d6caaf" rx="51" ry="1"/><path fill="#8c9f90" d="M58 37h4v88h-4z"/><path fill="#d1ced1" d="M0 126h32v60H0z"/><path fill="#f1ece7" d="M40 56h11v77H40z"/><path fill="#757c64" d="M84.7 116.2l66-3.4.6 13-66 3.4z"/><circle r="1" fill="#ce8b6a" transform="matrix(40.59895 -2.05665 .0776 1.53188 107 139.6)"/><ellipse cx="49" cy="168" fill="#2d3533" rx="16" ry="2"/><path fill="#8d5b48" d="M25 240l9 13-37-19z"/><path fill="#855139" d="M53 241l20 1-22 10z"/><path fill="#e9d4b8" d="M59 144h42v2H59z"/><path fill="#593e24" d="M64 142h30v2H64z"/><path fill="#827861" d="M51 74h7v60h-7z"/><ellipse cx="102" cy="150" fill="#ffd886" rx="34" ry="1"/><path fill="#864e43" d="M75 231l2-6 16 6z"/><path fill="#c28b6b" d="M94.1 236.2l-57.8 5-8.5 9.2 11.4-38z"/><path fill="#562e26" d="M159 145l-.2 1-47.7-5v-1z"/><circle r="1" fill="#bfb8ad" transform="matrix(-.05756 .99834 -88.9447 -5.12852 50.7 177.7)"/><path fill="#5e5945" d="M125 10h24v29h-24z"/><path fill="#dedcda" d="M125.5 192.5l9.1 20.5 31.3-24.1 1.3-3.7z"/><path fill="#7b8f9d" d="M156 151l-7-5 6 22z"/><ellipse cx="157" cy="50" fill="#efe9e5" rx="4" ry="31"/><path fill="#ab865d" d="M59 118l6-20 59 15z"/><circle r="1" fill="#dacab6" transform="matrix(-.08716 .9962 -19.75904 -1.7287 130.4 145.8)"/><path fill="#493a31" d="M163 169h7v11h-7z"/><path fill="#e3e4b8" d="M43 163h32v1H43z"/><ellipse cx="72" cy="165" fill="#591818" rx="22" ry="1"/><path fill="#77746c" d="M152 99h1l1 16h-1z"/><path fill="#6e5646" d="M70.5 180v1l-29-1v-1z"/><path fill="#eecaa6" d="M102 156h27v2h-27z"/><path fill="#dfdac3" d="M30 171h26v2H30z"/><path fill="#926456" d="M104 251.8L86.3 271h-2.8l23.3-33.4z"/><path fill="#bbb5af" d="M41.8 45.2L20.6 1l117.3-17L51.6 4.8z"/><path fill="#d1c8be" d="M50 34.4l-17 21-59-47.8 17-21z"/><path fill="#c16e5f" d="M99.6 166.5h40.5l10.1 3.3-1.8-9z"/><ellipse cx="80" cy="74" fill="#b1a087" rx="7" ry="28"/><ellipse cx="80" cy="155" fill="#5c201b" rx="26" ry="1"/><path fill="#d3ae95" d="M104.8 139.5l47.1 4.4-18.7-15.1 15.3-.2z"/></g></g></svg>