<svg xmlns="http://www.w3.org/2000/svg" viewBox="0 0 933 1400"><defs/><filter id="prefix__a"><feGaussianBlur stdDeviation="12"/></filter><rect width="100%" height="100%" fill="#6d493e"/><g filter="url(#prefix__a)"><g transform="translate(2.7 2.7) scale(5.46875)"><circle cx="77" cy="132" r="164" fill="#fff" fill-opacity=".5"/><circle r="1" fill="#cfd1c0" fill-opacity=".5" transform="matrix(-35.90776 165.14125 -81.8443 -17.79595 36.5 132.5)"/><circle r="1" fill="#1a0200" fill-opacity=".5" transform="rotate(-99.5 101.4 85.3) scale(10.48565 31.00058)"/><path fill="#2c2b1f" fill-opacity=".5" d="M19.7 112.6l-.4-19 17-.2.4 19z"/><path fill="#000152" fill-opacity=".5" d="M44 149l-6 14-14-44z"/><path fill="#5c5930" fill-opacity=".5" d="M85 135.9l4.2-29.7 13.8 2-4.2 29.6z"/><circle r="1" fill="#fff3cd" fill-opacity=".5" transform="matrix(-4.73837 28.09076 -17.45683 -2.94463 58.7 134.1)"/><circle r="1" fill="#f2e3cb" fill-opacity=".5" transform="rotate(-159.9 57.2 80) scale(15.16522 34.59388)"/><circle r="1" fill="#c8c9c7" fill-opacity=".5" transform="matrix(69.1268 -19.6613 7.17676 25.23263 68 225.4)"/><ellipse cx="137" cy="158" fill="#b2a889" fill-opacity=".5" rx="43" ry="63"/><circle cx="71" cy="16" r="89" fill="#c8c4bd" fill-opacity=".5"/><path fill="#030000" fill-opacity=".5" d="M164 173h6v11h-6z"/><path fill="#5a4b37" fill-opacity=".5" d="M53.1 204.3L17 213.6l-15.2-25 35.7 1.4z"/><path fill="#616d78" fill-opacity=".5" d="M84.8 272.8l-10.8-18 29.2-17.6 10.8 18z"/><path fill="#71896b" fill-opacity=".5" d="M61.5 165.6l44.2-67.7-33.5 65.5L62 174.6z"/><path fill="#ded4c1" fill-opacity=".5" d="M23.5 117.9L42.2 179l-29.7 9-18.7-61z"/><path fill="#50524e" fill-opacity=".5" d="M180.8 199l.4 11-24 1-.4-11z"/><path fill="#424302" fill-opacity=".5" d="M50 120l-15-5-4-8z"/><path fill="#e6d9ce" fill-opacity=".5" d="M93.9 170.4l-64.4 11.5 70.8 15.4L111 141z"/><path fill="#34374c" fill-opacity=".5" d="M30 101l17 2-23-11z"/><path fill="#f8e4be" fill-opacity=".5" d="M52 138l-28-19 1-17z"/><path fill="#ddc79e" fill-opacity=".5" d="M72.3 111.4l18.5-4.3 5 21.5-18.6 4.3z"/><path fill="#010700" fill-opacity=".5" d="M91.3 111.4l4.7 11.5 4.8 11.1-7.1-26.1z"/><path fill="#000029" fill-opacity=".5" d="M21 98h3v20h-3z"/><path fill="#1c2615" fill-opacity=".5" d="M95 151l-1 5 6 2z"/><ellipse cx="151" cy="165" fill="#857256" fill-opacity=".5" rx="4" ry="18"/><path fill="#f1e1c9" fill-opacity=".5" d="M109 153l-8-22-28 24z"/><path fill="#c0beb1" fill-opacity=".5" d="M184.9 264.9L56.3 220.6l8.8-25.5 128.6 44.3z"/><path fill="#8f8869" fill-opacity=".5" d="M154 176l-48 15-3-14z"/><ellipse cx="145" cy="62" fill="#bdb6a5" fill-opacity=".5" rx="38" ry="48"/><path fill="#eedcc0" fill-opacity=".5" d="M85 123L43 94l5 90z"/><circle r="1" fill="#b0a190" fill-opacity=".5" transform="rotate(-23 370 -221.3) scale(14.66677 30.49978)"/><path fill="#f2e1b9" fill-opacity=".5" d="M37 103H27v-5z"/><path fill="#384678" fill-opacity=".5" d="M30.6 128.5l6.9 8.9 8.4 23.2-11.4-4z"/><path fill="#969da0" fill-opacity=".5" d="M-5 185.4l16.8 2.6L7 218.6-9.8 216z"/><circle r="1" fill="#d4ccb6" fill-opacity=".5" transform="rotate(23.7 -296.8 475.3) scale(6.2999 22.78639)"/><circle r="1" fill="#b8c3ce" fill-opacity=".5" transform="matrix(-65.60245 65.55555 -15.11197 -15.12278 23 5.5)"/><path fill="#fec786" fill-opacity=".5" d="M111 165h16v12h-16z"/><path fill="#7d7e51" fill-opacity=".5" d="M68.8 131l3.2 10.5-4.8 1.5-3.2-10.5z"/><path fill="#0a1300" fill-opacity=".5" d="M34 107l-3.4 2.2-2.6-4.3 3.4-2z"/><ellipse cx="95" cy="113" fill-opacity=".5" rx="2" ry="5"/><circle r="1" fill="#c9cacc" fill-opacity=".5" transform="matrix(-72.64536 10.09338 -2.6314 -18.93902 21.8 246.7)"/><path fill="#999567" fill-opacity=".5" d="M30.9 113.3l29.4 13.2.6.7-18.8-6z"/><circle r="1" fill="#d4c5ad" fill-opacity=".5" transform="matrix(-62.40331 8.79996 -.55708 -3.9504 135.7 192.2)"/><path fill="#b6a485" fill-opacity=".5" d="M91.3 106.3l5.9 24.6-33-30.1 62.9 6.4z"/><ellipse cx="48" cy="197" fill="#604d36" fill-opacity=".5" rx="17" ry="6"/><path fill="#deceb7" fill-opacity=".5" d="M48 156v34l-26-19z"/><path fill="#7b9074" fill-opacity=".5" d="M82 128.3l19.1.7v3.7l-28.3 19.4z"/><path fill="#d0bfa9" fill-opacity=".5" d="M42 88h102v16H42z"/><path fill="#c7bdae" fill-opacity=".5" d="M53 207.3l3-14.8 1 .2-3 14.8z"/><path fill="#b4a890" fill-opacity=".5" d="M16.2 105.1l19.3-25-19.1 8.3 10.5 48.9z"/><path fill="#c1bcb3" fill-opacity=".5" d="M29.3 173.1L-16 148.2l1.5 49.9 22.3-2.9z"/><path fill="#363f29" fill-opacity=".5" d="M90.9 154.8l10.7 2.5-.5 2-10.7-2.6z"/><path fill="#e9d7b5" fill-opacity=".5" d="M35 106l10 13 24-16z"/><path fill="#504236" fill-opacity=".5" d="M17 188l-8 7 26 13z"/><path fill="#f1e3cb" fill-opacity=".5" d="M69 135l22-11-34 1z"/><path fill="#9a9789" fill-opacity=".5" d="M170.7 212.4l-9.7 10.1-23.7-23 9.7-10z"/><circle cx="157" cy="135" r="19" fill="#bcb2a0" fill-opacity=".5"/><circle r="1" fill="#9aa0a0" fill-opacity=".5" transform="matrix(26.71924 15.30226 -4.98199 8.69904 124.8 255.4)"/><path fill="#530f05" fill-opacity=".5" d="M165 172h5v11h-5z"/><path fill="#111b08" fill-opacity=".5" d="M98.2 132l-3.4-17.7 1-.2 3.4 17.6z"/><ellipse cx="32" cy="176" fill="#aea491" fill-opacity=".5" rx="20" ry="2"/><path fill="#dacab7" fill-opacity=".5" d="M94.5 132.5l-.8-6.4 13.5 19.7-2 13.7z"/><circle r="1" fill="#ebdcc5" fill-opacity=".5" transform="matrix(5.58668 -3.1608 11.10149 19.62181 44.9 136)"/><path fill="#d4d1ce" fill-opacity=".5" d="M14 105l-30 67 30-19z"/><path fill="#695b54" fill-opacity=".5" d="M9.9 193l11-.9 1.2 19-11 .8z"/><circle cx="56" cy="193" r="6" fill="#826a4e" fill-opacity=".5"/><path fill="#edddc1" fill-opacity=".5" d="M92.3 149.4l2.3 18.9-18.9 2.3-2.3-18.9z"/><path fill="#c4c4c4" fill-opacity=".5" d="M-15 258l131-30-132-17z"/><path fill="#718c78" fill-opacity=".5" d="M72 155l-11 5 9 9z"/><path fill="#202645" fill-opacity=".5" d="M29 96l11 5 1 5z"/><circle r="1" fill="#b3ad9d" fill-opacity=".5" transform="rotate(173.8 79.2 18.7) scale(15.8281 93.06712)"/><path fill="#c1bbac" fill-opacity=".5" d="M142 165h8v15h-8z"/><path fill="#e1d8cc" fill-opacity=".5" d="M112.2 180.1l-31.6-4.4-25.8-5.7 7.2 23.2z"/><circle r="1" fill="#beb094" fill-opacity=".5" transform="matrix(14.26478 5.55175 -1.44895 3.72295 40.2 96.1)"/><path fill="#4c517d" fill-opacity=".5" d="M36 161l11-4-17-23z"/><path fill="#ddccab" fill-opacity=".5" d="M34 104h30v3H34z"/><path fill="#bcb8b4" fill-opacity=".5" d="M58.6 201.8l19.9 32.9L3 218.3l42.1-12.5z"/><circle r="1" fill="#c0b7ae" fill-opacity=".5" transform="rotate(67.9 44.2 83.7) scale(84.62357 23.49535)"/><path fill="#464542" fill-opacity=".5" d="M5 192h1v22H5z"/><path fill="#4e3c2d" fill-opacity=".5" d="M16.2 206.7l29.3-10 2.3 6.6-29.3 10z"/><circle r="1" fill="#cec5bb" fill-opacity=".5" transform="matrix(7.03026 -22.85223 47.53813 14.62464 54.2 71)"/><path fill="#53412d" fill-opacity=".5" d="M21.8 193.8l37.2-5.9-9 6.3-29 4.9z"/><path fill="#2f1f12" fill-opacity=".5" d="M5 199h5v3H5z"/><path fill="#8d7a5c" fill-opacity=".5" d="M145 150l12 8-4 16z"/><path fill="#b1a493" fill-opacity=".5" d="M109.9 170.5l-13-68 37.4 13.7-3.2 36.1z"/><circle r="1" fill="#b2b3b3" fill-opacity=".5" transform="matrix(-12.14006 -11.8057 56.38395 -57.98088 0 6.2)"/><path fill="#e8dbc5" fill-opacity=".5" d="M49.1 174.9l26.8-28.3-38.1-25.2 8.5 38.1z"/><path fill="#8e8e75" fill-opacity=".5" d="M120.5 194.8l8.7-34.1 1.4 25.4-26.7.7z"/><circle r="1" fill="#4b5d46" fill-opacity=".5" transform="rotate(141 20.3 82.2) scale(9.02529 1)"/><path fill="#cabfb3" fill-opacity=".5" d="M37 181.5l-28.8 2.7 17.4 9 8.3-3.6z"/><path fill="#101a2e" fill-opacity=".5" d="M22.4 98.1L29 96l.6 1.9L23 100z"/><circle r="1" fill="#b9ad99" fill-opacity=".5" transform="matrix(-.12201 -.99253 51.16249 -6.28945 65.6 173.6)"/><path fill="#cbbda1" fill-opacity=".5" d="M128.2 185.5l13.9 10.6 35.6-.4-28.7-12.8z"/><circle r="1" fill="#605947" fill-opacity=".5" transform="matrix(1.2282 -.0219 .04304 2.41322 100.4 132.3)"/><path fill="#2f3220" fill-opacity=".5" d="M94 113h4v9h-4z"/><path fill="none" stroke="#424714" stroke-opacity=".5" stroke-width=".5" d="M50.4 124.2q-9-5-19.3-15.8"/><path fill="#8b9092" fill-opacity=".5" d="M18.5 205.7l-12.4 8.2-17.8 1.7L.8 205.3z"/><path fill="#ddd0bb" fill-opacity=".5" d="M42.5 174.3l23.7-27.8-31.4 17.8-50.8 16.9z"/><path fill="#ecdec8" fill-opacity=".5" d="M101 154l-15-7 5-13z"/></g></g></svg>