<svg xmlns="http://www.w3.org/2000/svg" viewBox="0 0 933 1400"><defs/><filter id="a"><feGaussianBlur stdDeviation="12"/></filter><rect width="100%" height="100%" fill="#6c453a"/><g filter="url(#a)"><g fill-opacity=".5" transform="translate(2.7 2.7) scale(5.46875)"><circle r="1" fill="#fffff5" transform="matrix(-39.2603 150.9481 -148.01126 -38.49644 83.8 128)"/><circle r="1" fill="#4c3720" transform="matrix(-1.68302 -20.74024 122.6615 -9.95368 132.6 151.7)"/><ellipse cx="87" cy="215" fill="#f6fee9" rx="161" ry="44"/><circle r="1" fill="#fdffff" transform="rotate(95.6 45.5 88.5) scale(77.37267 34.07916)"/><path fill="#ee6427" d="M106.5 128.4l-95 5-8-153.8 95-5z"/><circle r="1" fill="#ffb483" transform="rotate(94.2 -2.5 57.2) scale(45.49522 25.77078)"/><path fill="#f1f4f3" d="M104 46h18v91h-18z"/><ellipse cx="146" cy="138" fill="#2c1a12" rx="24" ry="10"/><ellipse cx="2" cy="47" fill="#fdffff" rx="4" ry="121"/><circle r="1" fill="#8f523d" transform="matrix(15.83567 4.48104 -11.59139 40.9631 25 0)"/><circle r="1" fill="#d6cdaf" transform="rotate(-91.2 103.7 55.2) scale(1.44149 147.79718)"/><path fill="#aa5b3e" d="M5 35h16v105H5z"/><circle r="1" fill="#d6d5d1" transform="matrix(11.94261 -27.33556 35.3495 15.44382 165 100.8)"/><path fill="#f1eecc" d="M42 131h68v8H42z"/><ellipse cx="150" cy="168" fill="#695949" rx="169" ry="8"/><path fill="#914833" d="M124.6-16L103.6.7l.2 46.1L58.7-16z"/><path fill="#dddede" d="M181-16l-75 145-2-145z"/><path fill="#908369" d="M24 136h50v16H24z"/><path fill="#e6e7dc" d="M6.1 172l-25.8-13.2L-6.1 132l25.8 13.1z"/><circle r="1" fill="#ddd4bb" transform="rotate(-1 8405 -5011) scale(60.44273 1.31438)"/><path fill="#ac5f4b" d="M90 0h14v129H90z"/><path fill="#342920" d="M18.3 166.1l13 4 8.8-.9L3.2 176z"/><ellipse cx="84" cy="152" fill="#580f14" rx="44" ry="2"/><circle r="1" fill="#c0b8a2" transform="matrix(8.83706 16.27583 -126.55926 68.71607 154.5 245)"/><ellipse cx="139" cy="190" fill="#ddd8cd" rx="169" ry="16"/><path fill="#9f513a" d="M73 117h31v14H73z"/><path fill="#f9f2e9" d="M21.8 134.3l55.1 1.4 28.1 1.4-36.8-6.2z"/><circle r="1" fill="#d3ccc2" transform="matrix(-23.89363 14.95858 -28.18395 -45.01878 169 92.3)"/><ellipse cx="158" cy="152" fill="#440e0b" rx="41" ry="2"/><ellipse cx="132" cy="172" fill="#efdfb0" rx="98" ry="1"/><path fill="#995a42" d="M100-16L3 0l101 12z"/><path fill="#df8860" d="M14 27l3 59L47 7z"/><ellipse cx="141" cy="163" fill="#454033" rx="75" ry="3"/><path fill="#a66146" d="M26.7 138.5L6.5 66l.3 72-3.5 3.5z"/><path fill="#533d3d" d="M15.6 150.8l2.6 1.5 46.3-7.5-20.7-1.5z"/><path fill="#372d24" d="M152.7 139.3l32.3 20.9-23.8-29.8-36.1 3.7z"/><path fill="#100" d="M30.6 157.4l-16.9 6.1-.3-.9 16.9-6.1z"/><ellipse cx="126" fill="#bebbbe" rx="14" ry="27"/><path fill="#d7d5cb" d="M-2.4 166.8l-1.8-27.7 31.2 3.3 2.6.7z"/><circle r="1" fill="#dfddcc" transform="matrix(78.88374 -20.215 5.13263 20.02873 10.1 236.6)"/><path fill="#c3b799" d="M86 130h42v8H86z"/><path fill="#ccc3aa" d="M32.5 159.5l59-3v2l-59 3z"/><circle r="1" fill="#fba97d" transform="matrix(3.97102 -27.557 18.66146 2.68916 57.2 54.4)"/><path fill="#e3e3de" d="M0 91h6v55H0z"/><circle r="1" fill="#e48962" transform="matrix(21.32811 -36.32287 11.52704 6.76846 74.7 87)"/><path fill="#604436" d="M108 139h62v8h-62z"/><ellipse cx="99" cy="169" fill="#552823" rx="70" ry="1"/><path fill="#b5b2a2" d="M4.3 237.2l-18.7-10.5 37.8 17.2L45.7 271z"/><circle r="1" fill="#774c3b" transform="rotate(129.3 6.9 4.5) scale(11.21638 7.82313)"/><path fill="#723b35" d="M129 128h19v5h-19z"/><path fill="#eae5e3" d="M105 5h10v119h-10z"/><path fill="#dad5bf" d="M68.3 148.1L25.8 155l-.1-1 42.5-6.8z"/><path fill="#a89f84" d="M9 170.2l-16.4-.2 50.5-14-8 5.3z"/><path fill="#bea888" d="M137 147h23v3h-23z"/><ellipse cx="167" cy="205" fill="#d4c9b5" rx="89" ry="13"/><path fill="#635c48" d="M-11.5 174.1v-3l45 .8v3z"/><path fill="#e9986f" d="M35 121l27-9-34-78z"/><circle r="1" fill="#ca7957" transform="matrix(6.6997 -6.6068 18.0656 18.31963 80.8 17.6)"/><ellipse cx="127" cy="157" fill="#b2a481" rx="91" ry="2"/><path fill="#cb7958" d="M15 71h20v58H15z"/><ellipse cx="77" cy="173" fill="#b4ab90" rx="48" ry="3"/><ellipse cy="68" fill="#eceae9" rx="5" ry="41"/><path fill="#fff" d="M65.8 131l.1 1-39.7 5-.1-1z"/><ellipse cx="169" cy="135" fill="#171314" rx="41" ry="2"/><path fill="#81714a" d="M40 135h19v3H40z"/><path fill="#2d0c12" d="M155 143h15v5h-15z"/><path fill="#cec9c6" d="M121 130l52-85 1 74z"/><path fill="#c7beb1" d="M41.7 147.7l.4.9-53.8 21.7-.4-.9z"/><ellipse cx="104" cy="181" fill="#e5ded2" rx="71" ry="7"/><circle r="1" fill="#c7cecd" transform="matrix(21.80306 -20.7961 9.496 9.95582 10.1 196.8)"/><path fill="#632b28" d="M36 153h68v2H36z"/><ellipse cx="98" cy="141" fill="#90856a" rx="72" ry="1"/><path fill="#5a463b" d="M133.8 168.3l51.2-9.5v14.8l-23.7-1.6z"/><path fill="#3b0205" d="M13 155h4v4h-4z"/><ellipse cx="4" cy="35" fill="#d3d4cd" rx="2" ry="41"/><ellipse cx="103" cy="166" fill="#808489" rx="64" ry="1"/><path fill="#2e0913" d="M16.2 156.1l-.4-.9 20-9.3.4.9z"/><path fill="#e1dbdb" d="M156 102l-43 23 5-69z"/><circle r="1" fill="#70634f" transform="rotate(-96.2 119 21.2) scale(3.07018 37.76725)"/><path fill="#bdb6a1" d="M136.6 267.3l48.3-11.9-70.2-5.5-70.6-34.4z"/><path fill="#c5bfab" d="M42 148h82v2H42z"/><circle r="1" fill="#c9765a" transform="matrix(-10.56177 -4.74159 13.94447 -31.06095 87.5 95.9)"/><path fill="#dad6cd" d="M-2.2 81.8l-.4 60.5 37.1 3-25.8 6.3z"/><path fill="#cdc4b8" d="M125.7 67.4L161 89.5l23.3-32.3-47.7 10.1z"/><path fill="#eb8e62" d="M85.8 63.6L75.7 14.1 24.6 48.7 54.9 6.2z"/><path fill="#a8a08d" d="M45 216l-8 7 15-4z"/><path fill="#684740" d="M52 143h24v4H52z"/><path fill="#cc7352" d="M40.1 3.7l29.2.8L8.4 52.7 45-11.2z"/><ellipse cx="147" cy="125" fill="#afb1b5" rx="21" ry="3"/><path fill="#d0c8bd" d="M16 161l-32 9v-42z"/><ellipse cx="76" cy="163" fill="#93856e" rx="34" ry="1"/><ellipse cx="97" cy="162" fill="#35302b" rx="58" ry="1"/><ellipse cx="53" cy="142" fill="#dcd3bb" rx="14" ry="1"/><path fill="#beada0" d="M103 10h2v102h-2z"/><ellipse cx="131" cy="143" fill="#4f3530" rx="19" ry="3"/><path fill="#a89374" d="M185 152.4l-33-1.5 11.8-3.3 21.2 8.6z"/><ellipse cx="101" cy="168" fill="#a13d3b" rx="58" ry="1"/><circle r="1" fill="#e3946c" transform="matrix(17.41603 -6.93068 3.96373 9.96041 28.2 59.4)"/><path fill="#856f50" d="M7 129l1 10 25-1z"/><path fill="#ad6046" d="M6 10h5v124H6z"/></g></g></svg>