<svg xmlns="http://www.w3.org/2000/svg" viewBox="0 0 1200 800"><defs/><filter id="a"><feGaussianBlur stdDeviation="12"/></filter><rect width="100%" height="100%" fill="#523030"/><g filter="url(#a)"><g fill-opacity=".5" transform="translate(2.3 2.3) scale(4.6875)"><circle r="1" fill="#fff" transform="matrix(-205.6739 -61.9369 36.0695 -119.776 140.5 78.5)"/><circle r="1" fill="#100000" transform="matrix(34.67945 -19.2984 15.3659 27.6127 205 88.2)"/><circle r="1" fill="#fffffb" transform="matrix(3.58814 47.56299 -125.35123 9.45647 156.7 169)"/><path fill="#dfe9e1" d="M0-16L261 8-7 148z"/><path fill="#0b0201" d="M235 94l10-46-96 22z"/><circle r="1" fill="#ae9b7e" transform="rotate(80.6 1.7 107.8) scale(37.56807 76.38086)"/><circle r="1" fill="#d4d7cf" transform="matrix(2.84518 15.04047 -82.02563 15.51666 223.7 40)"/><circle r="1" fill="#967f5f" transform="matrix(75.77228 8.77952 -2.00442 17.29929 236.4 112.1)"/><path fill="#454e41" d="M-3 173.5l-7-13.3 67-35.7 7 13.3z"/><path fill="#e3edff" d="M27.5 140.5h-33v-123h33z"/><path fill="#00113f" d="M113.2 107l.6-38h9l-.6 38z"/><path fill="#e3e9e3" d="M241 39h15v62h-15z"/><path fill="#640000" d="M175 69l-13 46V59z"/><circle r="1" fill="#dcdac7" transform="rotate(69.1 -45.9 125.6) scale(11.72665 27.57211)"/><path fill="#e5d7b5" d="M133 74h29v41h-29z"/><ellipse cx="41" cy="84" fill="#9e9179" rx="14" ry="39"/><path fill="#788788" d="M-11.2 158.4l48-.8.4 22-48 .8z"/><ellipse cx="128" cy="8" fill="#d0d4da" rx="81" ry="35"/><circle r="1" fill="#eae8ce" transform="rotate(76.7 -3 205.3) scale(27.59407 94.1114)"/><path fill="#cab29f" d="M202 95l28 9 31-14z"/><path fill="#201417" d="M180 61h60v33h-60z"/><path fill="#f7ddce" d="M181 100l-4-36-4 26z"/><circle r="1" fill="#635649" transform="matrix(4.54245 8.53027 -19.01992 10.12829 231 111)"/><path fill="#221607" d="M101 93h8v11h-8z"/><path fill="#2d0000" d="M69 109h12v6H69z"/><path fill="#090a0d" d="M236 73.2l-57.5-6.6 57.4-14 8.1-.2z"/><path fill="#cad2d7" d="M71 74h22v34H71z"/><circle r="1" fill="#b8b9b4" transform="matrix(.36727 9.76826 -63.02524 2.36965 149.7 128.5)"/><path fill="#473d38" d="M34 136h31v10H34z"/><path fill="#725f38" d="M154.4 62.2l3.2 9.4-18 6.2-3.2-9.4z"/><path fill="#763219" d="M163 64h11v50h-11z"/><ellipse cx="49" cy="121" fill="#e5feff" rx="6" ry="7"/><path fill="#c1b6a7" d="M11 16l193 42L45 80z"/><ellipse cx="255" cy="32" fill="#c8cbce" rx="69" ry="18"/><path fill="#000607" d="M161 63h13v6h-13z"/><circle r="1" fill="#5e211c" transform="matrix(-41.53094 -4.3572 .13056 -1.24444 238.2 114.5)"/><path fill="#c2cfdc" d="M51.8 168.8L9.9 185l-5.8-25.8 12 12.1z"/><path fill="#563b3c" d="M194.3 93.7l2.3-18.1 21.1-5.3 12.7 22.8z"/><circle r="1" fill="#9a8872" transform="matrix(4.10541 6.37035 -19.285 12.42833 48.6 105.9)"/><circle r="1" fill="#c3ced0" transform="rotate(-64.5 156.6 36.7) scale(7.98813 28.66912)"/><circle r="1" fill="#9e9b8d" transform="matrix(43.40159 17.54271 -2.459 6.08371 221.2 0)"/><path fill="#ca9e89" d="M223.4 92.3l.2 4-43 1.4-.2-4z"/><path fill="#605b57" d="M17 185l23.3-27.2.1 6.3-19.6-24.6z"/><circle r="1" fill="#c0bbab" transform="rotate(-83.7 190.6 -66.6) scale(4.705 37.33653)"/><ellipse cx="95" cy="40" fill="#d2cac0" rx="62" ry="16"/><path fill="#1c1211" d="M179 63h14v30h-14z"/><ellipse cx="100" cy="89" fill="#be6d4e" rx="5" ry="14"/><path fill="#a29e8f" d="M28 22h7v100h-7z"/><path fill="#e5dfca" d="M26 124l4 20 7-22z"/><circle r="1" fill="#d5dde1" transform="rotate(-82.4 145.7 28.4) scale(22.7975 41.04107)"/><path fill="#e1eaf1" d="M253 89h3v23h-3z"/><path fill="#74213b" d="M186 96h31v6h-31z"/><circle r="1" fill="#5a2a16" transform="rotate(88.1 65.2 192) scale(7.42133 2.95813)"/><path fill="#3e536e" d="M113 74h9v30h-9z"/><path fill="#423f31" d="M37 129h25v4H37z"/><circle r="1" fill="#c0b3a7" transform="matrix(1.08363 -28.3253 2.18203 .08348 177 71.8)"/><path fill="#645538" d="M157 63l1.5 4.7-11.6 3.4-1.4-4.8z"/><path fill="#d1cbc7" d="M158 31h4v99h-4z"/><path fill="#8b7e5e" d="M165 95h23v21h-23z"/><path fill="#ccc8c6" d="M242 39h14v54h-14z"/><path fill="#928d84" d="M117.4 116l35 .7-54 10.3-7.5-5z"/><path fill="#b1a598" d="M181.1 41.1l-36.7 19.5 25.1 3.1 29.4-2.3z"/><path fill="#a3a1a7" d="M213 126.2l-31.7.8-55.9 9.2 32.2.4z"/><path fill="#cfccc5" d="M64.9 124.8l29.3-16.4-.9 57.2-27.7-23.7z"/><path fill="#464542" d="M23.6 141.5l1 8.8-35.3.4 35 9.3z"/><path fill="#bb4936" d="M174.1 87.7L162 101.9l1.3-24.2 10.7-.6z"/><path fill="#e1dccf" d="M67 102h32v6H67z"/><path fill="#cacabb" d="M240 108h8v6h-8z"/><circle r="1" fill="#e6cfa7" transform="matrix(1.90156 -5.5061 4.52781 1.5637 148.4 76.5)"/><path fill="#afb19b" d="M218 94h35v8h-35z"/><path fill="#9aa2a3" d="M29.2 148.6l30.8-3.2.8 8-30.8 3.2z"/><path fill="#b7ac9a" d="M35.4 52.4L68 57l-5.5 38.6L30 91z"/><circle r="1" fill="#bdc3c9" transform="rotate(-96.1 25.5 -15) scale(19.78115 45.11827)"/><path fill="#b7ae9c" d="M124 61h14v48h-14z"/><path fill="#d2b183" d="M25 138l-10 11-13-3z"/><circle r="1" fill="#d8dadb" transform="rotate(-9.3 942.2 -1016.3) scale(45.02995 5.29551)"/><path fill="#151316" d="M238.4 89.3l3.2-17.5-1.5-20.1-23.9 8z"/><path fill="#697ca4" d="M125.6 93.4l-12-3 3.6-15.8 2.1 5.3z"/><ellipse cx="69" cy="115" fill="#4e3724" rx="9" ry="1"/><ellipse cx="80" cy="88" fill="#78add3" rx="3" ry="13"/><path fill="#68655e" d="M91 95h17v7H91z"/><path fill="#b39771" d="M157 108l-15-13-4 14z"/><circle cx="244" cy="15" r="15" fill="#afb0ac"/><path fill="#2c2c31" d="M123 71l2 8-13-3z"/><circle r="1" fill="#aea295" transform="matrix(-24.71749 3.82647 -.68562 -4.42882 207.6 54)"/><ellipse cx="110" cy="69" fill="#ad9d88" rx="30" ry="3"/><path fill="#c3b596" d="M69 101l-19 10 19 9z"/><path fill="#2b2123" d="M210 88h31v6h-31z"/><path fill="#d0bfb0" d="M174 67h4v33h-4z"/><path fill="#64594e" d="M29 93h1v27h-1z"/><path fill="#72402c" d="M171 84h4v32h-4z"/><circle r="1" fill="#ebe4ce" transform="matrix(-1.92114 21.58822 -42.03924 -3.74107 226.5 163.8)"/><path fill="#212b2f" d="M236 103h17v3h-17z"/><path fill="#d0c8b9" d="M173.7 129.3l-62.1-5.4 82.7-3.5-34.5-6z"/><path fill="#655b53" d="M57.5 134.5l-1 12.9 9.3-8-7.1-19.3z"/><path fill="#313532" d="M171 100h28v2h-28z"/><path fill="#979da1" d="M51.7 145.1l31.8-.1-40 .9.5-7.7z"/><ellipse cx="169" cy="47" fill="#c8bfb6" rx="56" ry="7"/><path fill="#cec0a2" d="M183.8 95.6l-5.2 3.6 7.8.4 1.6-4.1z"/><circle cx="207" cy="98" r="5" fill="#de636c"/></g></g></svg>