<svg xmlns="http://www.w3.org/2000/svg" viewBox="0 0 1200 800"><defs/><filter id="prefix__a"><feGaussianBlur stdDeviation="12"/></filter><rect width="100%" height="100%" fill="#493a33"/><g filter="url(#prefix__a)"><g transform="translate(2.3 2.3) scale(4.6875)"><circle r="1" fill="#fffffa" fill-opacity=".5" transform="matrix(-36.16876 153.2709 -185.26173 -43.71794 153.7 103.8)"/><circle r="1" fill="#fffff9" fill-opacity=".5" transform="matrix(-2.75627 -33.88454 154.23637 -12.54603 140.5 162.6)"/><circle r="1" fill="#fffae3" fill-opacity=".5" transform="matrix(79.43792 -55.01902 31.77102 45.87184 160 17.3)"/><circle r="1" fill="#5e4120" fill-opacity=".5" transform="matrix(138.446 -18.96474 2.59542 18.94702 84.6 116.5)"/><circle r="1" fill="#ff6e21" fill-opacity=".5" transform="matrix(61.26204 18.8771 -16.23837 52.69854 19.6 36.7)"/><path fill="#08244e" fill-opacity=".5" d="M201 54h18v57h-18z"/><circle r="1" fill="#ecd6b3" fill-opacity=".5" transform="rotate(10.5 -109.6 1340.3) scale(20.4495 74.13327)"/><path fill="#d8c093" fill-opacity=".5" d="M196 37l-87 8 94 76z"/><path fill="#efe6e8" fill-opacity=".5" d="M81 63L256-9 81-4z"/><path fill="#8a744f" fill-opacity=".5" d="M182 65l-58-23 95 7z"/><path fill="#b95030" fill-opacity=".5" d="M80-16L43 88l39 1z"/><path fill="#3e2e1b" fill-opacity=".5" d="M186 103l-80-19 53 41z"/><circle r="1" fill="#f1e5cb" fill-opacity=".5" transform="matrix(2.19695 23.28972 -99.43916 9.38022 133.6 148.7)"/><circle r="1" fill="#fda06b" fill-opacity=".5" transform="matrix(7.05039 -52.14578 26.31778 3.5583 30.9 10)"/><path fill="#f3f0ef" fill-opacity=".5" d="M189.1 67.2l10-.4 1.8 50-10 .4z"/><path fill="#fffff2" fill-opacity=".5" d="M0 91h89v5H0z"/><path fill="#efebe6" fill-opacity=".5" d="M81 0h20v98H81z"/><path fill="#836f4c" fill-opacity=".5" d="M271 119.7l-13.1 14.8-68.6-24.2 46.4-.6z"/><ellipse cx="5" cy="121" fill="#89715a" fill-opacity=".5" rx="90" ry="25"/><path fill="#63452e" fill-opacity=".5" d="M105 88h55v17h-55z"/><path fill="ivory" fill-opacity=".5" d="M238 70h18v19h-18z"/><circle r="1" fill="#eae0c3" fill-opacity=".5" transform="matrix(-62.38484 5.9202 -.09447 -.99553 72.6 110)"/><path fill="#00081e" fill-opacity=".5" d="M200 50h11v13h-11z"/><circle r="1" fill="#e2d9b8" fill-opacity=".5" transform="rotate(-97.8 83.8 34.5) scale(1.52953 64.75718)"/><path fill="#59483e" fill-opacity=".5" d="M138.4 114.3L-5.4 150.5l-.4-64.7-9.8 50z"/><path fill="#f8e0b5" fill-opacity=".5" d="M169.3 67.8L148.8 47l-17.5 34.6L189.2 96z"/><ellipse cx="210" cy="73" fill="#7c93c7" fill-opacity=".5" rx="7" ry="14"/><path fill="#e2dfd2" fill-opacity=".5" d="M100 134l-26 47-90-27z"/><path fill="#866c3e" fill-opacity=".5" d="M234.4 70.7l1.3-10.9 12 1.5-1.4 10.9z"/><circle r="1" fill="#dfcfbf" fill-opacity=".5" transform="rotate(164 103 26) scale(72.43866 16.18058)"/><path fill="#a07e4c" fill-opacity=".5" d="M136 42l-4 20 19-15z"/><circle r="1" fill="#5b1e1d" fill-opacity=".5" transform="matrix(-.21502 -1.91699 58.32289 -6.54196 58.4 115.8)"/><path fill="#a08d5b" fill-opacity=".5" d="M189 102l2-49-22-5z"/><circle r="1" fill="#d9d0cc" fill-opacity=".5" transform="matrix(-18.43606 -2.26366 3.51764 -28.64884 116.2 59)"/><path fill="#533f31" fill-opacity=".5" d="M189.2 119.7l-21.8-.6L55 135.6l127.6-29.8z"/><path fill="#bf6846" fill-opacity=".5" d="M65 0h15v87H65z"/><circle r="1" fill="#d9d5bd" fill-opacity=".5" transform="rotate(-102.8 51.1 56.6) scale(2.02083 27.23364)"/><path fill="#ddd0c3" fill-opacity=".5" d="M190 0h10v114h-10z"/><path fill="#fefeff" fill-opacity=".5" d="M164 52h4v41h-4z"/><path fill="#1a2a3e" fill-opacity=".5" d="M200 99v16l17-5z"/><circle r="1" fill="#c1b4a3" fill-opacity=".5" transform="matrix(-.4648 4.81806 -55.50297 -5.3543 215.7 130)"/><path fill="#260d15" fill-opacity=".5" d="M-8 119.5l-.7-2.9L32 106.5l.7 2.9z"/><circle r="1" fill="#cdbca9" fill-opacity=".5" transform="rotate(73.9 82.3 163.1) scale(14.35533 16.37992)"/><path fill="#d2ba8f" fill-opacity=".5" d="M55 90l34 9 24-13z"/><circle r="1" fill="#e9e0cb" fill-opacity=".5" transform="matrix(-3.94692 33.0246 -117.97882 -14.1002 209.6 165.2)"/><path fill="#81573d" fill-opacity=".5" d="M248 89h8v16h-8z"/><path fill="#070000" fill-opacity=".5" d="M208.7 55.3l1.9-3.5 8.7 4.9-1.9 3.5z"/><path fill="#bbb495" fill-opacity=".5" d="M22.3 144.2l61.4-12.4 36.4-1.6-58.5 11.2z"/><path fill="#d67a52" fill-opacity=".5" d="M-5 92L83-16 57 87z"/><path fill="#806945" fill-opacity=".5" d="M244.5 117.7l19.6-6.6 6.9 19.6-66.5-8.6z"/><path fill="#8c7e5f" fill-opacity=".5" d="M143.4 86.5l21.3 15.9 32.9 3-49.6.8z"/><path fill="#e5e0dd" fill-opacity=".5" d="M122 65L80 89V25z"/><path fill="#fff" fill-opacity=".5" d="M251 66h5v24h-5z"/><ellipse cx="249" cy="76" fill="#544939" fill-opacity=".5" rx="1" ry="13"/><path fill="#ffe" fill-opacity=".5" d="M52.7 89.2l.3 3-63.7 6.6-.3-3z"/><path fill="#984427" fill-opacity=".5" d="M77 88l-32-1 33-13z"/><path fill="#c8b289" fill-opacity=".5" d="M106.2 116l-.3-3 35.9-3 .3 3z"/><ellipse cx="28" cy="100" fill="#958a5a" fill-opacity=".5" rx="38" ry="5"/><path fill="#beb29e" fill-opacity=".5" d="M255.2 103l1.6 6.9-74 17-1.6-6.8z"/><circle r="1" fill="#d6c7b2" fill-opacity=".5" transform="matrix(33.26528 -1.91806 .53335 9.24997 132.7 34.8)"/><circle r="1" fill="#bea790" fill-opacity=".5" transform="matrix(-31.03746 3.40695 -.28317 -2.57966 38.8 113)"/><path fill="#bab195" fill-opacity=".5" d="M56.1 122.9l-11.3-2.3L-16 134H3z"/><path fill="#39221d" fill-opacity=".5" d="M13 119l2.5 4.4L-9 137l-2.5-4.4z"/><circle r="1" fill="#b8a993" fill-opacity=".5" transform="matrix(-43.964 -3.7568 .69234 -8.10208 238.5 48.3)"/><path fill="#53251d" fill-opacity=".5" d="M139.6 109.8l-65.3 3.3 51.7-5.5 54.5 1.1z"/><path fill="none" stroke="#ffffd0" stroke-opacity=".5" stroke-width=".5" d="M47.5 98.9q-51.2 2-63.5 18.8"/><path fill="#d9c19b" fill-opacity=".5" d="M119.4 89.3l26 .1 36.8-54.6L143.7 80z"/><circle r="1" fill="#d0c9a2" fill-opacity=".5" transform="matrix(.0715 .99744 -48.80305 3.49825 61.7 97.7)"/><path fill="#000209" fill-opacity=".5" d="M110 93h29v2h-29z"/><path fill="#f8e8cb" fill-opacity=".5" d="M139 55h16v22h-16z"/><path fill="#4c382e" fill-opacity=".5" d="M-6.2 137.4l2.7 11.5 9.5-3.4 21-5.2z"/><path fill="#ddc59d" fill-opacity=".5" d="M114 105h26v2h-26z"/><path fill="#bdae94" fill-opacity=".5" d="M219 50h18v70h-18z"/><path fill="#bfb7a4" fill-opacity=".5" d="M21.3 114.3l-.1-1 109.5-9.6.1 1z"/><path fill="#6a5e3d" fill-opacity=".5" d="M20 97l-23-1-13 13z"/><path fill="#f2dcb9" fill-opacity=".5" d="M239.5 69.4l6.6.5.8 39.6-5.8 1.5z"/><circle r="1" fill="#9f9c7f" fill-opacity=".5" transform="matrix(1.14507 13.50468 -5.37045 .45536 184 97.5)"/><path fill="#2b2d37" fill-opacity=".5" d="M218.1 53.8l-.2 16.3-7.8-9-10.4-9.5z"/><circle r="1" fill="#6b4c3e" fill-opacity=".5" transform="rotate(86.1 -27.7 85) scale(1 50.79373)"/><path fill="#3e3f3a" fill-opacity=".5" d="M201.1 50l3.9 45.2 7.8.4-12.5-9.8z"/><path fill="#202012" fill-opacity=".5" d="M162 107h17v6h-17z"/><circle r="1" fill="#f1a372" fill-opacity=".5" transform="matrix(-17.75281 18.36643 -8.42375 -8.14231 35.3 13)"/><path fill="#4d5146" fill-opacity=".5" d="M185.2 118.9l3.8-15.8 1.7 15.9-25.6-11.7z"/><ellipse cx="182" cy="51" fill="#86764a" fill-opacity=".5" rx="9" ry="4"/><path fill="#b6996b" fill-opacity=".5" d="M132.7 41.6l2-.1 2.6 49h-2z"/><path fill="#ded1c3" fill-opacity=".5" d="M168.4 53.9l.4-1.9L271 .4 134.4 19.9z"/><path fill="#626d76" fill-opacity=".5" d="M217 96l-10 11-6-12z"/><path fill="#dcd8ce" fill-opacity=".5" d="M84 175l-46-32-44 11z"/><path fill="#fdedd2" fill-opacity=".5" d="M45 90h25v6H45z"/><path fill="#343c40" fill-opacity=".5" d="M201 104h19v9h-19z"/><path fill="#fbffff" fill-opacity=".5" d="M168 55h1v39h-1z"/><path fill="#7a6340" fill-opacity=".5" d="M146 87h15v26h-15z"/><path fill="#d2be89" fill-opacity=".5" d="M180.2 99l-12.6-39.2 14.8 9.2 3 6.9z"/><ellipse cx="182" cy="123" fill="#a7a29c" fill-opacity=".5" rx="28" ry="3"/><path fill="#73613a" fill-opacity=".5" d="M47 96.8l-.2 3-23.9-2.6.3-3z"/><path fill="#d3c49d" fill-opacity=".5" d="M32.8 144l-.2-1 60.6-13 .2 1z"/><path fill="#e3e9ee" fill-opacity=".5" d="M184.7 1.6L233.3-16h-72.9L126 24z"/><ellipse cx="123" cy="102" fill="#4c312f" fill-opacity=".5" rx="32" ry="2"/><circle r="1" fill="#dbceb8" fill-opacity=".5" transform="rotate(-120.3 166.3 9.8) scale(38.32925 13.43518)"/><path fill="#c9bda0" fill-opacity=".5" d="M10 125h30v2H10z"/></g></g></svg>