<svg xmlns="http://www.w3.org/2000/svg" viewBox="0 0 933 1400"><defs/><filter id="a"><feGaussianBlur stdDeviation="12"/></filter><rect width="100%" height="100%" fill="#47392e"/><g filter="url(#a)"><g fill-opacity=".5" transform="translate(2.7 2.7) scale(5.46875)"><ellipse cx="103" cy="87" fill="#fff" rx="114" ry="204"/><circle r="1" fill="ivory" transform="matrix(55.08545 2.0199 -3.8452 104.86433 74.7 97)"/><circle r="1" fill="#fff" transform="matrix(-163.69055 42.0286 -6.02116 -23.45087 122.9 247.7)"/><ellipse cx="166" cy="86" fill="#7b5217" rx="38" ry="94"/><circle r="1" fill="#4f3312" transform="matrix(-29.46524 3.72196 -4.13923 -32.76865 13.3 222.8)"/><circle r="1" fill="#e58d46" transform="matrix(50.59833 -13.59028 7.2465 26.97964 99.4 207.1)"/><circle r="1" fill="#fff" transform="matrix(66.56311 6.85104 -1.59482 15.49494 37.8 152.7)"/><path fill="#d11f00" d="M19.5 66v68h-37V66z"/><path fill="#f9e8d7" d="M19.9 68l-55.3-25.8L.1-34 55.4-8.2z"/><ellipse cx="14" cy="188" fill="#c08a5f" rx="41" ry="26"/><circle r="1" fill="#3f3b27" transform="matrix(8.6824 8.78325 -19.61189 19.38671 148.1 34.5)"/><circle r="1" fill="#c3b4a9" transform="matrix(78.37412 -32.30348 8.76807 21.27294 109.8 13)"/><ellipse cx="56" cy="113" fill="#f7e9db" rx="37" ry="73"/><path fill="#170e07" d="M-16 214.2l51.8 26.9 2.3-18 6-7z"/><circle r="1" fill="#bd8261" transform="matrix(-32.65636 12.73218 -5.66884 -14.53983 142.2 152)"/><path fill="#e9edeb" d="M185 194l-19 77-93-19z"/><circle r="1" fill="#fef9f0" transform="rotate(-78.1 178.2 4.3) scale(3.15358 102.54699)"/><path fill="#f2e0ca" d="M100 134h70v7h-70z"/><path fill="#5a3b2d" d="M176 172.5l-63.6-11.9 12.5-8.3 60.1 21.1z"/><path fill="#fffefa" d="M-16 166l99-12-80-17z"/><path fill="#713728" d="M-16 179.9l32.1-2.5 22.1 6.8-9.2-16.5z"/><path fill="#dd8645" d="M135 180l12 31 37-17z"/><path fill="#c0af9e" d="M90 0h40v55H90z"/><path fill="#632816" d="M-16 136.1l34.2-2.4-1.7-17.3-30.4.8z"/><path fill="#ddded5" d="M58.2 267.4l45.1-11-37.8-30-66.4 41.7z"/><ellipse cx="31" cy="40" fill="#d1c5b6" rx="52" ry="27"/><circle r="1" fill="#b99267" transform="matrix(-16.14706 8.7084 -3.93017 -7.2873 96.5 231.5)"/><path fill="#4c412b" d="M131.8 25.3L185 57.9V-5.9l-55.8 47.5z"/><path fill="#ddcabe" d="M83 35h46v124H83z"/><path fill="#f98750" d="M-2.7 77.3L21 79.8l-2.4 22.9-23.8-2.5z"/><path fill="#d4a17d" d="M31 187h114v16H31z"/><ellipse cx="76" cy="98" fill="#eeeff5" rx="7" ry="87"/><circle r="1" fill="#3b2e24" transform="rotate(27.3 -468.1 141.4) scale(24.72818 20.10179)"/><path fill="#a58965" d="M3.8 203.4l-19.6-54.9 27 42.8 93 47z"/><path fill="#c2b191" d="M66 42h5v99h-5z"/><ellipse cx="141" cy="149" fill="#ba7959" rx="20" ry="12"/><path fill="#bcb39e" d="M28 130h41v10H28z"/><path fill="#edebed" d="M61.8 187.7L30.7 128l84.3 47.8-13.8 4.5z"/><path fill="#b9b7ae" d="M219.2-34l5 8.6L110.8 40l-5-8.7z"/><path fill="#cec5b7" d="M30.1 188.4L46 173.2l13.9 14.4L44 202.8z"/><path fill="#f8d8b2" d="M0 179h28v4H0z"/><path fill="#553921" d="M16.2 198.5l6.8-4.1 13.3-16.6.6-8z"/><circle r="1" fill="#beb4b0" transform="rotate(-125.7 41.4 -21.2) scale(14.65932 76.78176)"/><path fill="#524e32" d="M130 29h5v92h-5z"/><path fill="#020000" d="M30 130h2v9h-2z"/><circle r="1" fill="#988b7b" transform="matrix(.75595 23.71024 -12.37888 .39467 49.8 218)"/><path fill="#d3cbc8" d="M82 92h30v82H82z"/><ellipse cx="156" cy="88" fill="#a48452" rx="23" ry="33"/><path fill="#7e7556" d="M129 96h11v38h-11z"/><path fill="#8b2800" d="M20.6 69.2l-25.4-5.4.2-1 25.4 5.4z"/><path fill="#fdf7f2" d="M21.7 89.7l16 .6-1.4 40-16-.6z"/><path fill="#f0e7d9" d="M117 96l13-32-3 76z"/><path fill="#c18c67" d="M104 234l55-28-108-18z"/><path fill="#f1debe" d="M37 56h30v78H37z"/><path fill="#b4a89b" d="M126.9 14.3L154-2.3 84.3.1l35.3 64.7z"/><path fill="#cabfb6" d="M34 82l30-98-71 44z"/><path fill="#63563b" d="M16 187l5 21 9-13z"/><path fill="#6a6647" d="M130 122h40v12h-40z"/><path fill="#daa36f" d="M82 182.8l7.2 54.1-12.5-10.5-26.1-19.5z"/><path fill="#915c3a" d="M45.9 207.2l-8.2.8 24.9 15.9 1.8-6.3z"/><path fill="#856b45" d="M135 40h35v23h-35z"/><path fill="#db9272" d="M50.5 184.2l4-11.6-35.3-.9 11.9-7.7z"/><path fill="#d5cdab" d="M187.8 160.8l-.2 1-61.4-8.6.2-1z"/><path fill="#a29882" d="M174 181l-13-13-37 1z"/><path fill="#524131" d="M29.4 231.5l-10 39.5h23.1L-6 246z"/><ellipse cx="147" cy="3" fill="#727269" rx="3" ry="14"/><path fill="#bcbfba" d="M74 235l-18 11-9-33z"/><path fill="#b69f73" d="M20 215.4l12.3-17 5.7 4.2-12.3 17z"/><ellipse cx="16" cy="176" fill="#452b1b" rx="8" ry="3"/><path fill="#6e5844" d="M147.8 165.9l-26-13.4-11.5 9.5h9.3z"/><circle r="1" fill="#170b00" transform="matrix(2.91985 -1.872 .82251 1.28291 31.9 183.3)"/><path fill="#f7f0e7" d="M25.9 140.6l10.5-28.7-38.3 48 66.7 10.7z"/><path fill="#eadaca" d="M-15.2 61.9L32.4 67l-45.9-28.8-2.5 20.2z"/><path fill="#29190e" d="M39.8 214.7l1.5 2.9L11.7 245l-3.6-15.1z"/><path fill="#5b2421" d="M137.4 160.6l43.5 6.9-.3 2-43.5-7z"/><path fill="#dca279" d="M117 176l-46 9 38 22z"/><path fill="#dcb17a" d="M174.5 151.8l-.3 3-36.7-4.6.3-3z"/><path fill="#dcdcda" d="M38 268l130 3 4-70z"/><path fill="#efede8" d="M121 143l21-9h-17z"/><path fill="#d8cfc6" d="M46.9 33.9L84 4.6l1.4 34.1-39.5 7.7z"/><circle r="1" fill="#debc9d" transform="matrix(.01458 .9999 -25.01005 .3647 168.9 145.1)"/><circle r="1" fill="#959280" transform="matrix(1.36276 1.738 -21.82207 17.11069 31.9 247.5)"/><path fill="#45493b" d="M185 1.5l-49.6 24.4-5.6 10.5 34-13.1z"/><ellipse cx="75" cy="120" fill="#eeeff3" rx="6" ry="44"/><path fill="#d2ab8a" d="M-4.1 189.2l35.2-13.8-2.7 8.2-44.4-2.4z"/><path fill="#902825" d="M173.3 156.7l-.2 1-36.4-6.4.2-1z"/><path fill="#f2e8d8" d="M162.4 187.9l22.5.4-78.9-20.2 8.8 5.2z"/><path fill="#f7ecda" d="M45 71h16v48H45z"/><path fill="#d6bd91" d="M37 62l39-28-9 20z"/><path fill="#30332d" d="M183.8 173.7L120 161.3l.2-1 63.8 12.4z"/><path fill="#ebe6dd" d="M84.1 240.8l-18.4-11.4L84.9 271h6.6z"/><circle r="1" fill="#888881" transform="matrix(-.16625 .98608 -12.71617 -2.14385 0 136.5)"/><path fill="#bc8c6a" d="M185 187.1l-44.3 3-56.2 53.3 55.2-25.1z"/><circle r="1" fill="#aea8a0" transform="rotate(-48 48.7 -56) scale(42.71614 1.78405)"/><path fill="#dbcfa3" d="M43 172l23 31-12-2z"/><path fill="#be5f56" d="M37 171l-15 2-4-11z"/><path fill="#666767" d="M55 197l-7 3-2 13z"/><path fill="#a29981" d="M3 172h2v42H3z"/><path fill="#c4aa9d" d="M161.4 163l-39-7.1-47-2.1 50.9 5.2z"/><path fill="#a66b4f" d="M121.7 208.5l-1.9 4.2-20.8.7 7.8-6.2z"/></g></g></svg>