<svg xmlns="http://www.w3.org/2000/svg" viewBox="0 0 1400 933"><defs/><filter id="a"><feGaussianBlur stdDeviation="12"/></filter><rect width="100%" height="100%" fill="#694e3f"/><g filter="url(#a)"><g fill-opacity=".5" transform="translate(2.7 2.7) scale(5.46875)"><circle r="1" fill="#feffff" transform="matrix(-136.11564 -87.5789 101.28562 -157.41872 138.5 84.9)"/><ellipse cx="121" cy="120" fill="#f8fffc" rx="85" ry="20"/><path fill="#1f1900" d="M0 104h38v36H0z"/><circle r="1" fill="#6e6643" transform="matrix(34.69479 -26.02699 19.41702 25.88349 254 126)"/><circle r="1" fill="#aec7d6" transform="matrix(-162.78844 9.09912 -2.01778 -36.09927 164.6 59.7)"/><path fill="#5c7e94" d="M68 73h128v20H68z"/><ellipse cx="108" cy="158" fill="#e1b885" rx="128" ry="18"/><path fill="#242c1c" d="M49 96h49v6H49z"/><path fill="#000402" d="M24.9 144.2L21 122l15.5.1.9 14.7z"/><circle r="1" fill="#88887a" transform="matrix(-4.87558 -21.0908 102.66738 -23.73372 14.1 4)"/><ellipse cx="134" cy="45" fill="#c8cac7" rx="95" ry="28"/><path fill="#f3f5f2" d="M112 106h53v33h-53z"/><path fill="#bbd4eb" d="M65 90l51-11 9 20z"/><path fill="#baa974" d="M30.7 146.5l-20.5 14.3-14.9-21.3 20.5-14.3z"/><ellipse cx="29" cy="96" fill="#837652" rx="40" ry="5"/><path fill="#d3d4cb" d="M38.2 81.7l-1.3 61.5-29.6-3.4 70.8-1.7z"/><path fill="#857349" d="M238 136l17 28-74-25z"/><ellipse cx="137" cy="74" fill="#504630" rx="67" ry="2"/><path fill="#cdccc1" d="M162 101h44v38h-44z"/><ellipse cx="246" cy="99" fill="#6a6c67" rx="47" ry="5"/><circle r="1" fill="#ad866f" transform="rotate(7.9 -1173.4 883.1) scale(39.09532 12.60812)"/><ellipse cx="77" cy="140" fill="#605429" rx="173" ry="1"/><path fill="#f8ffff" d="M271 111v12l-32-13z"/><path fill="#e4d9b8" d="M118 141h58v13h-58z"/><circle r="1" fill="#afaa9a" transform="matrix(6.52099 -13.75392 19.30713 9.15386 210.8 122.8)"/><path fill="#bbc4cb" d="M195 62h58v32h-58z"/><ellipse cx="111" cy="103" fill="#aba28f" rx="28" ry="3"/><path fill="#c2c5c8" d="M78 38h117v36H78z"/><path fill="#b2a58d" d="M38 121h167v3H38z"/><path fill="#445553" d="M131.9 77l8.6 2.6-4.4 15.3-8.6-2.5z"/><circle r="1" fill="#a6b0b4" transform="rotate(143.6 -4 30.2) scale(52.70757 29.74334)"/><path fill="#6e6e63" d="M15 80.6l11.7 5.1-39.2 15.9 46.7-7.8z"/><circle r="1" fill="#b6b5ab" transform="matrix(-125.26528 -.01698 .00236 -17.41255 231.6 16.2)"/><path fill="#e7be9d" d="M213.6 157.1L95.1 185l174.5-3.9-24.4-14.5z"/><path fill="#cfd3d7" d="M55 90.1l-14.9 1.6L37 61.9l14.9-1.6z"/><path fill="#463f32" d="M268.5 141.7l-67-2.4v-1l67 2.4z"/><path d="M254 90h2v11h-2z"/><path fill="#e1e5e3" d="M40 132h43v7H40z"/><path fill="#a0b2c5" d="M181 75l-34 20-12-20z"/><path fill="#ccc2a9" d="M8 94h27v10H8z"/><path fill="#020506" d="M66 100h27v2H66z"/><path fill="#82755b" d="M36 92h27v8H36z"/><path fill="#3f5364" d="M158 86h12v6h-12z"/><path fill="#dbc8b5" d="M43.3 152.8l5.8 17-44.4 15.4-5.8-17z"/><ellipse cx="117" cy="86" fill="#c8e4ff" rx="14" ry="2"/><path fill="#3d403a" d="M107.6 112.2l-9 .6-.2-3 9-.6z"/><path fill="#6c5941" d="M22.2 94.4l35.7-2.1-50.1-.1-12.2 7z"/><path fill="#56574d" d="M97 128h11v3H97z"/><ellipse cx="78" cy="93" fill="#b8c3c7" rx="17" ry="4"/><path fill="#bab38f" d="M271 144.4l-34.5 2.6 15.8 7.2.5 22z"/><path fill="#776848" d="M253.6 120l17.4-19.5-20.5 47.5-11.1-5z"/><ellipse cx="150" cy="74" fill="#303122" rx="44" ry="1"/><path fill="#d6d8d6" d="M61.7 98.9l1.4 23.4-13.5-4.8-12.9-11.6z"/><path fill="#0e100f" d="M22 121h13v17H22z"/><path fill="#e5e6e1" d="M170.6 114.2l-12.2 26.6 48.1-5.2-87.6-7.1z"/><path fill="#afb3b3" d="M288.6 55.5l-171 3-.2-10 171-3z"/><ellipse cx="73" cy="104" fill="#9e8c72" rx="62" ry="1"/><path fill="#7f715c" d="M3 109h20v25H3z"/><path fill="#4f5756" d="M73.1 76.9l-2.4 17.9-.8-19.7 4.8-4.6z"/><path fill="#edefed" d="M122 102h41v19h-41z"/><path fill="#c2b88b" d="M-4 171l65-29-50-4z"/><path fill="#a1b9cf" d="M175 79h18v18h-18z"/><path fill="#9b9588" d="M213 94h33v26h-33z"/><ellipse cx="26" cy="102" fill="#eaf5f9" rx="34" ry="1"/><path fill="#70634a" d="M69 121.5v1H27v-1z"/><path fill="#2a473d" d="M160 97h14v2h-14z"/><path fill="#ddddd0" d="M162.6 112.4l11.9-11.2-49 7.2 36.1-14.9z"/><path fill="#777b7a" d="M31 50h2v32h-2z"/><ellipse cx="149" cy="104" fill="#ab9a83" rx="83" ry="1"/><path fill="#817851" d="M105 100h24v2h-24z"/><circle r="1" fill="#b5a274" transform="matrix(-2.11094 4.25277 -60.0048 -29.78453 252 169)"/><ellipse cx="171" cy="111" fill="#767874" rx="6" ry="2"/><path fill="#5c6d7d" d="M117 87h17v7h-17z"/><path fill="#dedcd8" d="M174 106h22v14h-22z"/><path fill="#1b1f19" d="M231.1 130.2l-.1-1 9.9-1.4.1 1z"/><path fill="#5d5b53" d="M211 100l12-3-22-1z"/><circle r="1" fill="#a5a095" transform="rotate(-105.7 40.2 -22.4) scale(8.27465 100.57473)"/><path fill="#a9abac" d="M240 6h16v84h-16z"/><circle r="1" fill="#8d867b" transform="matrix(-4.88676 -10.33803 45.33326 -21.42893 18.4 0)"/><path fill="#b7c6d1" d="M125.6 87.4l7.7 1.5-14.4-8.6-32.6 29.8z"/><ellipse cx="165" cy="129" rx="1" ry="2"/><path fill="#bbaf95" d="M21.6 98.4l17.9-8.9 13.7 12.9L-16 90.8z"/><ellipse cx="135" cy="122" fill="#a9977a" rx="92" ry="1"/><path fill="#b9bdc0" d="M35 32h35v60H35z"/><path fill="#2e3129" d="M73 74h34v2H73z"/><path fill="#bcb598" d="M252 124h2v38h-2z"/><path fill="#b19c74" d="M-16 151.9v-10.2l38.1-7.6-13.6 18.1z"/><ellipse cx="112" cy="139" fill="#97988f" rx="75" ry="1"/><path fill="#cfab8a" d="M204 140.6l-38.3.5 5.6 34.7 36.1-11.5z"/><path fill="#e7e4d8" d="M105 94h35v4h-35z"/><path fill="#2b2e26" d="M170 129.2l3.7-1.4.3 1-3.7 1.4z"/><path fill="#6d4f3d" d="M0 99h92v1H0z"/><path fill="#cfcbc3" d="M67 105h31v34H67z"/><path fill="#000c15" d="M6 96l-22 7V93z"/><path fill="#756748" d="M252.5 165.8l-18.7-14.4 19.3 1.4-2.4 20.7z"/><path fill="#79868a" d="M22 80h10v10H22z"/><path fill="#bfa98b" d="M53 141h46v23H53z"/><path fill="#e3e2dd" d="M168.4 108.3l-4.4 22.1L83.3 112l98.5 15.5z"/><path fill="#879296" d="M55 54h2v33h-2z"/><circle r="1" fill="#b4aa8c" transform="rotate(-67.1 229.8 -107.6) scale(15.02178 1)"/></g></g></svg>