<svg xmlns="http://www.w3.org/2000/svg" viewBox="0 0 1400 933"><defs/><filter id="a"><feGaussianBlur stdDeviation="12"/></filter><rect width="100%" height="100%" fill="#604b37"/><g filter="url(#a)"><g fill-opacity=".5" transform="translate(2.7 2.7) scale(5.46875)"><circle r="1" fill="#fff" transform="rotate(10.6 -299.9 786.9) scale(254.90756 101.95881)"/><path fill="#ebf3f2" d="M40 46L241 9l-6 144z"/><circle r="1" fill="#7f775c" transform="rotate(-70.1 165.5 20.4) scale(59.83517 254.99999)"/><path fill="#6f6850" d="M-24 41.5l-9-29.7L76-21.5l9 29.7z"/><circle r="1" fill="#403f3a" transform="matrix(7.03441 -4.81646 16.3351 23.8573 94.5 114.3)"/><circle r="1" fill="#f6f1d7" transform="matrix(-31.65146 -3.97664 1.21501 -9.6707 181 134)"/><circle r="1" fill="#dae8f3" transform="matrix(-54.5018 1.52598 -.8227 -29.38355 185 73.7)"/><ellipse cx="50" cy="70" fill="#b9b8b0" rx="38" ry="51"/><ellipse cx="228" cy="137" fill="#ac9468" rx="10" ry="42"/><ellipse cx="147" cy="24" fill="#c1baab" rx="96" ry="25"/><path fill="#777360" d="M127.5 101.1l24.8-4.6-27.9-13.9-9.7 19.7z"/><circle r="1" fill="#8a7d64" transform="rotate(-84.7 129.2 23.5) scale(20.77743 68.14331)"/><ellipse cx="242" cy="79" fill="#a1bbc9" rx="95" ry="8"/><circle r="1" fill="#7c694c" transform="matrix(-1.93503 -15.35908 34.6929 -4.37082 209.9 169)"/><circle cy="89" r="56" fill="#9d988d"/><path fill="#d4d9d6" d="M13 32l97-28-64 40z"/><path fill="#fffbf1" d="M175 114l45 4-26-41z"/><path fill="#1a1812" d="M86 120h29v6H86z"/><path fill="#786d60" d="M173 121l3-24-27 25z"/><path fill="#d3cab7" d="M106.6 113.9L67 130.1 62.3 120l128.1-24.1z"/><ellipse cx="22" cy="102" fill="#cbc5b0" rx="5" ry="45"/><circle r="1" fill="#c1bbb4" transform="matrix(-10.35876 18.03482 -39.88442 -22.90864 78.6 70)"/><path fill="#babfba" d="M233 143l38-22-27-137z"/><path fill="#e7e4de" d="M240 95.6l-127.1 7.5 49.2 12.5 20.8-35.5z"/><circle r="1" fill="#d5d8d6" transform="matrix(82.43222 -19.03098 1.01598 4.40068 118.4 7.7)"/><path fill="#242220" d="M81 109l26 5-8-12z"/><path fill="#d9caac" d="M172 120h66v29h-66z"/><circle r="1" fill="#9a927e" transform="rotate(-85.5 124.3 -40.3) scale(1.76353 15.53688)"/><ellipse cx="35" cy="109" fill="#756c60" rx="4" ry="47"/><path fill="#878f8d" d="M160 73h86v3h-86z"/><circle r="1" fill="#aba597" transform="matrix(.58618 9.3171 -33.50932 2.10823 79.2 29.3)"/><ellipse cx="159" cy="65" fill="#e5e8f0" rx="56" ry="9"/><path fill="#988c79" d="M54-16l71 14-88 25z"/><path fill="#f0f2ee" d="M173 127h24v12h-24z"/><path fill="#a99b7f" d="M246 151L87 175l79-37z"/><circle r="1" fill="#ada694" transform="matrix(-.67045 -3.54827 86.6233 -16.36764 221.7 11.7)"/><path fill="#e2e6eb" d="M193 42h42v30h-42z"/><path fill="#565f5e" d="M146 116h24v6h-24z"/><path fill="#d4c3b2" d="M206 130.5L133.6 104l2.4-6.6 72.4 26.4z"/><path fill="#847b6f" d="M-2.7 119.1l34.5 3.7-36 30.5 3.8-34.6z"/><path fill="#ccc7c3" d="M101 29l19 58-16 30z"/><circle r="1" fill="#837964" transform="matrix(-25.53473 19.73548 -8.40716 -10.8776 98.8 145.9)"/><path fill="#dedfdf" d="M96 37.8l-25.3 2 4 4 11.5 23.6z"/><path fill="#928d83" d="M12.6 122.7l-30-1.5 4.8-92 30 1.6z"/><path fill="#252628" d="M135.9 95l10-1 .2 3-10 1z"/><path fill="#f5f4f2" d="M223.5 107.9l-26.8-18.5-29.6.2-27.9 4.5z"/><ellipse cx="98" cy="65" fill="#a6a096" rx="3" ry="27"/><path fill="#aca48f" d="M132.4 108.4l-31.8 11.5 1.7-12.5 86.3 51.2z"/><path fill="#b5afa4" d="M82.3 111.8l-15.5-2.3-56.8-71 49.1 7.7z"/><path fill="#826e54" d="M234.9 111.4l.2 11-6 .2-.2-11z"/><path fill="#b4b7b5" d="M189.2 88.8l81.8-9.1L246.8 185l-.4-93.2z"/><path fill="#dee3ea" d="M118 54h40v29h-40z"/><path fill="#3e3a31" d="M76.5 124.4l26.8 4.5.4-7-.5-3.5z"/><path fill="#585545" d="M112 98h22v3h-22z"/><path fill="#dee1e0" d="M45 22l-28 7 20 9z"/><circle cx="84" cy="100" r="6" fill="#454544"/><ellipse cx="131" cy="42" fill="#c2b6ab" rx="40" ry="8"/><ellipse cx="242" cy="146" fill="#a29d8b" rx="5" ry="35"/><path fill="#685a41" d="M3.6 151.6l61.6-25L50 137.5l-52.6 11.8z"/><path fill="#322a1c" d="M69 113h8l-13 5z"/><path fill="#dac9a5" d="M67 121h10v12H67z"/><path fill="#e4e9e9" d="M108.6 10.5l-1.3-3.8 50.1-17.2 1.3 3.8z"/><path fill="#ffebc1" d="M27 130v8l-7-2z"/><ellipse cx="194" cy="82" fill="#cee4f7" rx="46" ry="2"/><path fill="#ada593" d="M252 9l-69-9 5 20z"/><path fill="#666869" d="M128 110h22v2h-22z"/><path fill="#7d7665" d="M3 27.9l-19-11.7L2.6-15.5l49.6-.5z"/><circle r="1" fill="#413725" transform="matrix(-2.77347 2.9955 -1.09 -1.0092 171 106.7)"/><circle r="1" fill="#bcaf9b" transform="matrix(-.86132 3.9175 -48.56027 -10.67667 219 127.6)"/><path fill="#d8caae" d="M173 137h67v8h-67z"/><path fill="#5e6c74" d="M203 76l-3-3v12z"/><path fill="#c1b5a9" d="M144.4 36.3l93.5-16.5 1.7 9.9-93.5 16.5z"/><path fill="#ccc6ba" d="M145.4 80.1l.8 12.7-41.7-9.1-5.3 20.4z"/><ellipse cx="237" cy="89" fill="#cfcec7" rx="3" ry="52"/><path fill="#5c615f" d="M153 87h12v2h-12z"/><path fill="#061724" d="M124 82.8l1.8.8-1.8 3.6-1.8-.8z"/><path fill="#666c69" d="M159.5 73l57 1v1l-57-1z"/><path fill="#837159" d="M167 185l19-33 50 15z"/><circle r="1" fill="#cbc2ab" transform="rotate(-81.4 169.6 -68.2) scale(1.94366 21.14299)"/><path fill="#a09581" d="M143 140l-2-28-41 17z"/><path fill="#d7e6f5" d="M202 72h8v15h-8z"/><path fill="#ccc6ba" d="M20 93h8v24h-8z"/><circle r="1" fill="#979288" transform="matrix(2.022 -25.33342 3.87678 .30943 35 75)"/><circle r="1" fill="#7facbd" transform="rotate(116.6 85.8 108.9) scale(6.26003 2.84267)"/><path fill="#838175" d="M26.7 86l1.2 4.9L15.3 94l-1.2-4.9z"/><path fill="#f4f1e2" d="M123 106h29v3h-29z"/><path fill="#c6c1ba" d="M99 37L76 96l18-4z"/><path fill="#fbfcfd" d="M176.9 93.2l22-.4.2 12-22 .4z"/><path fill="#7ea0ac" d="M159 75h6v9h-6z"/><path fill="#837761" d="M35 133l-20 14 73 19z"/><path fill="#e3e5e9" d="M158 53h43v21h-43z"/><path fill="#3c3734" d="M81 104h18v9H81z"/><path fill="#9d9483" d="M80.9 134.6l-25 11.4 36.3-33.8-18 4.8z"/><path fill="#9e9a83" d="M105 103h37v2h-37z"/><path fill="#594c38" d="M-13.1 152.6l22-6.7L19 179.4l-22 6.7z"/><ellipse cx="254" cy="50" fill="#b0b0ab" rx="15" ry="124"/><path fill="#d3d9d4" d="M18 77h9v9h-9z"/><path fill="#7f878b" d="M239.2 83.2l-7 7-1.4-1.4 7-7z"/><path fill="#c7cac7" d="M224 109l12-4-5-10z"/><path fill="#767e79" d="M200 73h34v2h-34z"/></g></g></svg>