<svg xmlns="http://www.w3.org/2000/svg" viewBox="0 0 933 1400"><defs/><filter id="a"><feGaussianBlur stdDeviation="12"/></filter><rect width="100%" height="100%" fill="#512c2e"/><g filter="url(#a)"><g fill-opacity=".5" transform="translate(2.7 2.7) scale(5.46875)"><circle cx="133" cy="156" r="206" fill="#fffcdf"/><circle r="1" transform="rotate(-144.6 53 19.4) scale(35.47995 50.48022)"/><circle r="1" fill="#fff" transform="matrix(-17.54774 -130.54914 31.1979 -4.19346 156 94.5)"/><circle r="1" fill="#fff" transform="rotate(158.8 -17.7 116.9) scale(50.41187 65.62981)"/><circle r="1" fill="#6e0000" transform="rotate(177.6 10.9 40.5) scale(16.4027 35.95529)"/><path d="M95 9h26v104H95z"/><circle r="1" fill="#f75e2c" transform="matrix(-58.18316 7.1369 -5.4888 -44.74712 117.5 251.4)"/><circle r="1" fill="#dfd8c6" transform="matrix(-4.31637 -25.27452 69.75343 -11.91246 33.6 17.6)"/><path fill="#272c24" d="M142.9 160l-67.5-14.1 71.2-10 .2 18.1z"/><path fill="#0f0a09" d="M6 51h91v16H6z"/><path fill="#ded7bc" d="M67 150l-16-41 103 9z"/><circle r="1" fill="#895037" transform="matrix(40.0806 28.4838 -6.56621 9.23956 54.2 166.3)"/><circle r="1" fill="#9a2e26" transform="rotate(-128.8 100.2 100.3) scale(17.12184 29.41954)"/><ellipse cx="4" cy="116" fill="#faf8ee" rx="4" ry="66"/><path fill="#fad1a4" d="M181 205l-16.4 53.6L133 249l16.4-53.6z"/><path fill="#020005" d="M42 56l80-54-8 48z"/><path fill="#58100e" d="M91 181h45v8H91z"/><ellipse cx="165" cy="88" fill="#e9ebea" rx="21" ry="129"/><path fill="#fffef0" d="M39 44h5v58h-5z"/><path fill="#2c1219" d="M44 57h16v51H44z"/><path fill="#bfb7a3" d="M-16 45l95-14-38 23z"/><path fill="#ae482e" d="M7 71h32v58H7z"/><path fill="#e1e2d6" d="M44.9 267l-56.5-7.7 65-55.3 17.3 23z"/><path fill="#625d4e" d="M128 144l18 35-5-62z"/><path fill="#cfcdb4" d="M100 182l-31-14 97-20z"/><circle r="1" fill="#613c49" transform="rotate(118.2 15 68.2) scale(24.10492 31.80143)"/><circle r="1" fill="#d3d1c5" transform="matrix(9.31696 -.22776 1.66112 67.95011 129.5 67.9)"/><path fill="#a1806f" d="M7 113h54v40H7z"/><ellipse cx="139" cy="147" fill="#000005" rx="9" ry="4"/><path fill="#6f523d" d="M86 162.1l-47.5-18.3 59.2 55.6-52.4-36.1z"/><circle r="1" fill="#fecc96" transform="matrix(20.12947 -27.65574 1.41186 1.02763 103.3 217.3)"/><path fill="#310c00" d="M8 53h28v22H8z"/><path fill="#d5d3c6" d="M3.6 271L-16 124.3l40.5 49.1 40.2 45.4z"/><path fill="#a39c8b" d="M85 124h59v16H85z"/><path fill="#c4baab" d="M106.5 12.6L81.7 26.9.6-16 118.4.3z"/><path fill="#1f1a23" d="M105 12h15v99h-15z"/><path fill="#df764b" d="M161.6 225l-23.4 46 15.5-58.2 31.3 10.9z"/><path fill="#d8d4c3" d="M87.7 118.6l-6.5 32.3-24.6-7.4 9-37.8z"/><path fill="#863029" d="M91.2 271l26.3-54.6-10.2 1.3L67.9 271z"/><path fill="#4a4e53" d="M42 131.5l1.1-17.5-26.6 22.6.8-18z"/><path fill="#64634c" d="M73.5 220.1L8.6 150.3 33 183.6l44.7 47.2z"/><path fill="#f5a974" d="M136.3 207.8l-16.2 41.1-16.8 1.1 20.7-43z"/><path fill="#4d5248" d="M103.6 160.1l-22.7-7.8 3.5-10.4 22.7 7.8z"/><path fill="#424a2e" d="M86.1 200.7L40 168.1l35.7 28.3 2.6 5.9z"/><path fill="#bebea8" d="M36 113l-19 29 8-33z"/><path fill="#dcd7c4" d="M150 177l-62 3 23-12z"/><path fill="#ff768b" d="M52.1 136l-10.7-5.5L52 110l10.7 5.5z"/><path fill="#d6dcdf" d="M141.2 164.3l8.1 49.6 35.7 4.9-10.5-24.9z"/><path fill="#251d1f" d="M124-10.8L92 54.4 43.2 54l87.3-57z"/><path fill="#6f4e54" d="M43.3 108.7l11.9-9.3L77.4 58l19.7 55.4z"/><path fill="#e6a498" d="M87 195.5l-2.4 3.2L47 170.5l2.4-3.2z"/><path fill="#b9ab9a" d="M3.3 44L147-16 77.4 30.3 40 57.2z"/><path fill="#8f8874" d="M147.5 166L135 147.9l-49.1 2.6 43.5 8.8z"/><path fill="#91443c" d="M117.3 189.9l-44 7 23.7-3.1-47.1-29.4z"/><path fill="#d4bb9d" d="M121.2 188.8l18.9-1-19.8 20.8-32.1-12.2z"/><path fill="#c5c9b6" d="M26.8 143.3l30 14.2 8.5 6.9 1.7 1.7z"/><path fill="#113124" d="M63.5 183.4l-.6.8-32.4-23.6.6-.8z"/><path fill="#e16b4c" d="M89.1 207.1l24.1-6.9-5.6 8.3-41.7 32.6z"/><path fill="#665539" d="M87.2 170.5l37.5-6 .1 1-37.5 6z"/><path fill="#5b503b" d="M99 128l-15 6 4-9z"/><circle r="1" fill="#dbd7cf" transform="matrix(-16.79072 -1.63472 6.1799 -63.47575 139.9 56)"/><path fill="#cac0a9" d="M34.8 157L1.2 134.7l50.9 38.4 25.8 20.5z"/><path fill="#9e8765" d="M38.2 139.5l24.9 6 26.8 17.8 7.8 14z"/><path fill="#d7c6a7" d="M139.1 113.1l11.3 49.6-4.4-39-104.8-8.5z"/><path fill="#c5a979" d="M6.6 142.1l88 70 21.8-21.4L73 220.5z"/><path fill="#392827" d="M45 65h11v45H45z"/><path fill="#e3dedc" d="M44.7 114.6l-3 .5-4.4-31.7 3-.5z"/><path fill="#af402e" d="M9 70h30v42H9z"/><path fill="#241d1e" d="M118.4.6l2.3 47.6-76.9 14.7 73.5-60.1z"/><path d="M147 199l-1 3-5-5z"/><path fill="#964333" d="M79.1 178.6l2.5-2.5-62.3-36.3 12.8 13.8z"/><path fill="#5b3018" d="M17.5 135.4l8.5-26.7-1.4 3-6.3 3.7z"/><path fill="#111a12" d="M11 62L6 47l32 11z"/><path fill="#ac2532" d="M102.4 213.8L70 257l-6.3-4.8L96 209z"/><path fill="#893e46" d="M63.7 116.2l-8.5 24.6-2.9-1 8.5-24.6z"/><path fill="#1c1f2e" d="M91.1 147.3v-1l51.8-3.6v1z"/><ellipse cx="121" cy="22" fill="#857f70" rx="1" ry="91"/><circle r="1" fill="#f3a061" transform="matrix(-25.19972 32.88241 -1.38493 -1.06136 80.2 249.5)"/><path fill="#d96644" d="M145.9 242.2l-5.2 14.6 11.2 13.2 2.4-56.3z"/><path fill="#bdb8b1" d="M89 131h61v8H89z"/><path fill="#00153c" d="M146 210l1-4-3 1z"/><ellipse cx="4" cy="114" fill="#e8e9e4" rx="3" ry="41"/><path fill="#f1d39a" d="M155 222h10v17h-10z"/><path fill="#6d403b" d="M111 180h29v8h-29z"/><path fill="#cd4e39" d="M111.9 267.1l22-41.5 6.2 3.3-22 41.5z"/><path fill="#dddbc6" d="M73 143h10v10H73z"/><path fill="#e4e1d9" d="M49 203l10 37 11-15z"/><path fill="#f7c78f" d="M150.8 205.9l-18.1 42.3 4.9 17.9 11.4-40.9z"/><path fill="#c7bfad" d="M6.5 55.7l-9.8 75L7-16h19z"/><path fill="#cdc7b8" d="M-2 196.6l-18.2-39L6 145.4l18.1 39z"/><path fill="#261c1d" d="M57.7 46.9l52-37.8-49.9 71.1-16-24.5z"/><path fill="#797761" d="M137 165l10 17-19-17z"/><path fill="#584c60" d="M24 123l16 7 6-17z"/><path fill="#d0bfaa" d="M25.5 125.8l.2-14.5 43.2-.7-32.4 3.9z"/><path fill="#d9dad4" d="M120 159.4l44.7 10.3-.6 3-44.8-10.4z"/><path fill="#362c32" d="M95.8 105l20.3-27.9 7 35.9-45.7-3.2z"/><ellipse cx="8" cy="123" fill="#961a08" rx="1" ry="26"/><path fill="#ecd7a4" d="M89 175l-8-10H65z"/><path fill="#292a38" d="M91 148l13-1-22-7z"/><path fill="#f1b06f" d="M99.5 200.5l.8.7-35.8 44.3-.8-.7z"/></g></g></svg>