<svg xmlns="http://www.w3.org/2000/svg" viewBox="0 0 933 1400"><defs/><filter id="a"><feGaussianBlur stdDeviation="12"/></filter><rect width="100%" height="100%" fill="#352e2d"/><g filter="url(#a)"><g fill-opacity=".5" transform="translate(2.7 2.7) scale(5.46875)"><circle r="1" fill="#fff" transform="matrix(-33.04297 161.6479 -162.25958 -33.168 78.9 117.2)"/><ellipse cx="48" cy="212" fill="#fffff8" rx="81" ry="37"/><circle r="1" fill="#1b0800" transform="matrix(-67.88886 -2.48937 .60353 -16.45914 37.7 158.9)"/><circle r="1" fill="#212c43" transform="matrix(11.68384 83.71623 -19.66324 2.7443 147.6 168.4)"/><circle r="1" fill="#d6d2c2" transform="matrix(-144.8547 -21.40031 7.30108 -49.41966 70 43.1)"/><circle r="1" fill="#d8ceac" transform="matrix(-98.0576 -19.41593 3.2959 -16.64552 28.7 116.8)"/><ellipse cx="12" cy="217" fill="#eae5cc" rx="76" ry="41"/><path fill="#6f5e2f" d="M45 94h65v17H45z"/><path fill="#3b261e" d="M181.8 249.9l-56.2-36.5 12.6-19.3 56.2 36.5z"/><path d="M125 100h33v11h-33z"/><path fill="#e1ebed" d="M119.9 237.3l-2.5 33.7-133.4-1.3 98.1-19.2z"/><path fill="#e9e7da" d="M144 181l-50 39-25-39z"/><path fill="#433714" d="M45 139h38v33H45z"/><path fill="#eae5c3" d="M158 123h8v35h-8z"/><path fill="#c3c2be" d="M-16 153L24-16l82 48z"/><path fill="#a9a295" d="M139 7h31v96h-31z"/><path d="M123 240l22 21-8 10zm6-96h27v6h-27z"/><ellipse cx="117" cy="147" fill="#cbc8b8" rx="8" ry="50"/><circle r="1" fill="#697d99" transform="matrix(23.47366 22.1137 -9.78478 10.38653 154.7 188.6)"/><path fill="#808f94" d="M139 225l-45 15 87 14z"/><path fill="#35392f" d="M83.2 245l-63.1 26 34-15.2-67.8 14.2z"/><path fill="#000008" d="M152 106h6v18h-6z"/><circle r="1" fill="#8c91a0" transform="matrix(23.47975 -41.16438 17.52049 9.99351 7 7.5)"/><path fill="#3c3423" d="M0 164h109v9H0z"/><path fill="#06111b" d="M126 98h4v75h-4z"/><ellipse cx="106" cy="137" fill="#a7a282" rx="11" ry="32"/><path fill="#d8dcda" d="M44 120l-2 31-9-18z"/><path fill="#42322f" d="M168 244l-39-55 2 25z"/><path fill="#c7bda3" d="M101.6 72.4l-11.2 45.5 16.2 27-35.7-1.5z"/><path fill="#67573b" d="M51.6 137.4l-5.4 14.4 27.4 10.3-5.1-26.3z"/><path fill="#7e7355" d="M109.1 128.6L32.9 86.2l67.4 19 9.6-14.1z"/><circle r="1" fill="#4969a5" transform="rotate(-103.4 122.7 6.4) scale(14.81968 10.5865)"/><path fill="#dbdedf" d="M86.6 102.8l6-.5 2.8 41-6 .4z"/><path d="M73 160h25v4H73z"/><path fill="#b9af82" d="M0 160h40v3H0z"/><path fill="#272720" d="M42 255l61.7-13 .2 1-61.6 13z"/><circle r="1" fill="#4c4a43" transform="matrix(.24253 .97014 -42.0619 10.51503 87.8 245.1)"/><ellipse cx="148" cy="93" fill="#a4a090" rx="88" ry="6"/><path fill="#34180c" d="M-1 146.4l-15 3.5 54.4 3.7 8-3.5z"/><path fill="#e4d0ac" d="M54 108h22v22H54z"/><path fill="#3b434e" d="M156.7 262.8l28.3-12.9-29.9-21.7 28.1-20.2z"/><path fill="#6f6040" d="M66 95l-22-4 2 26z"/><path fill="#ab966e" d="M84 111l5 39-18-2z"/><ellipse cx="34" cy="175" fill="#9c9983" rx="103" ry="3"/><path fill="#e1dcd1" d="M0 186h128v30H0z"/><circle r="1" fill="#babaa3" transform="matrix(-43.5811 9.05168 -1.16475 -5.60792 54.6 246.9)"/><circle r="1" fill="#9f8c96" transform="matrix(-.75621 2.2921 -29.68402 -9.79337 164.9 164.7)"/><path fill="#b6b5b1" d="M0 73h43v67H0z"/><circle r="1" fill="#c8c2b5" transform="matrix(4.1335 23.11414 -51.98613 9.29668 70.4 52.2)"/><path fill="#a19e94" d="M76 171h57v11H76z"/><path fill="#7e8c94" d="M173.4 277.2L130 246.8l12.6-18 43.4 30.4z"/><path fill="#c2d2d4" d="M169.3 212.2l-29.1-15.5.5-.9 29.1 15.5z"/><circle r="1" fill="#d5d3c0" transform="rotate(-14.5 950.6 32.6) scale(109.82932 12.93641)"/><path fill="#c4c6c2" d="M127.4 180.2l12.2 8.4-4 3-72.9-10.1z"/><path fill="#a7a492" d="M158 70h12v90h-12z"/><path fill="#504064" d="M174.8 205l-12.3-29.4-19.6-10.6 28.7 4.8z"/><circle r="1" fill="#afb8ca" transform="rotate(118.5 14.4 14.6) scale(109.36913 8.34728)"/><path fill="#050e1d" d="M154 104l-23-5 25 17z"/><path fill="#7a6d51" d="M64.9 103.7l-9.2-11.4 39.4 12.1-9.9 14z"/><circle r="1" fill="#c7c9c8" transform="rotate(-96.3 165.3 74) scale(4.96414 15.84278)"/><circle r="1" fill="#a29f93" transform="rotate(-167.9 78.5 37.8) scale(30.87578 11.45973)"/><path fill="#414a4e" d="M127 192h22v5h-22z"/><path fill="#d2cdba" d="M94 204h25v33H94z"/><ellipse cx="17" cy="157" fill="#3b190a" rx="37" ry="2"/><path fill="#101723" d="M125 98h10v21h-10z"/><path fill="#c6c4a5" d="M91 138l12 27 1-27z"/><circle r="1" fill="#b4ada4" transform="rotate(62.7 59.4 97.6) scale(68.72477 15.78156)"/><path fill="#808255" d="M0 141h37v3H0z"/><ellipse cx="6" cy="153" fill="#a49673" rx="21" ry="2"/><circle r="1" fill="#f9fef6" transform="matrix(-2.8695 -2.75609 1.25563 -1.3073 145.2 56.8)"/><path fill="#7b6e4f" d="M63.9 158.8l43.4-2.4-33.3-14 23.8 3.5z"/><path fill="#c0bdb8" d="M110 122h15v44h-15z"/><path fill="#897e61" d="M51.8 173l-10.9 2.3-45.5 2.3 15.7-5.8z"/><path fill="#b2aa99" d="M5 79h71v13H5z"/><path fill="#1a1c17" d="M132 145h26v6h-26z"/><path fill="#b7b7a5" d="M62.1 210.4l-48.4 52-20.5-15.3 21.1 7.8z"/><path fill="#2c2411" d="M94.6 150.7L84.4 157l-1-1.7 10.2-6.3z"/><path fill="#8b8a83" d="M-4.6-9.3l19 6.2-9.8 30.4-19-6.2z"/><path fill="#37362b" d="M122 236.5l.2 1-22.2 6-.2-1z"/><path fill="#7c95b3" d="M168.3 193.3l-1.7 3.6-39-18.2 1.8-3.6z"/><path fill="#515965" d="M115 170.7l54.1 29.4-28.4-5.4 44.3 22z"/><path fill="#b9c4cb" d="M136.8 195l-17-14.7 21.5 6.3-5.4-.4z"/><path fill="#8a8167" d="M46.7 146.8l-2.9-70.4 1.2 80.5-9.4-.2z"/><circle r="1" fill="#4d4142" transform="matrix(26.9323 26.79105 -4.8306 4.85607 156.4 228.4)"/><path fill="#887d8e" d="M131.9 165.4l-5-14.4 22.4 19.5-8.3-2.3z"/><path fill="#32425e" d="M132.7 105.7l-6.7 25.8 20-27.7 10.9 20.6z"/><path fill="#4e442d" d="M64 137H47l-3 15z"/><path fill="#dadbd8" d="M40 118h4v28h-4z"/><path fill="#8f98a1" d="M122 224l29 3 1 28z"/><path fill="#445460" d="M158.6 144.6l-.2-6.8-31.8-5.7.8 13.9z"/><path fill="#29271f" d="M46 166h19v8H46z"/><path fill="#d4d1c5" d="M-6.8 177.2l69-2.4.6 16-69 2.4z"/><path fill="#c5b493" d="M74.7 142.6l17.4-27.5-43.9 19.7 18.6 3.8z"/><path fill="#7e7858" d="M105 96h4v41h-4z"/><path fill="#aea79b" d="M109 84h10v54h-10z"/><path fill="#6d7577" d="M172 271l-50-41 27 41z"/><path fill="#453e2c" d="M65 168h45v4H65z"/><circle r="1" fill="#37404d" transform="matrix(13.69065 5.46182 -.37055 .92881 141.2 169.9)"/><path fill="#c1c0b5" d="M158 127h6v29h-6z"/></g></g></svg>