<svg xmlns="http://www.w3.org/2000/svg" viewBox="0 0 1400 933"><defs/><filter id="prefix__a"><feGaussianBlur stdDeviation="12"/></filter><rect width="100%" height="100%" fill="#45392f"/><g filter="url(#prefix__a)"><g transform="translate(2.7 2.7) scale(5.46875)"><circle r="1" fill="#fff" fill-opacity=".5" transform="matrix(-81.16123 -138.07052 146.37368 -86.04204 98.1 66)"/><ellipse cx="108" cy="24" fill="#fbf9f1" fill-opacity=".5" rx="110" ry="149"/><circle r="1" fill="#270000" fill-opacity=".5" transform="matrix(-35.5537 -9.4988 3.95394 -14.79949 218.8 121.2)"/><circle r="1" fill="#f7edd0" fill-opacity=".5" transform="matrix(-28.3476 28.367 -32.78963 -32.7672 148 137.6)"/><circle r="1" fill="#7f7852" fill-opacity=".5" transform="matrix(-19.04364 -18.35482 54.25756 -56.29373 254 141.1)"/><circle r="1" fill="#ae966c" fill-opacity=".5" transform="matrix(25.03704 -35.95747 70.18203 48.86745 32.6 154.4)"/><path fill="#c3724d" fill-opacity=".5" d="M96 74h40v20H96z"/><path fill="#c5bfb3" fill-opacity=".5" d="M271.4 85.5l-67 20.5-29.8-97.5 67-20.5z"/><ellipse cx="14" cy="66" fill="#c9ddf2" fill-opacity=".5" rx="88" ry="30"/><path fill="#706855" fill-opacity=".5" d="M25.5 155.4L27 83.5 16.5 107-16 164.6z"/><path fill="#372304" fill-opacity=".5" d="M236.2 132.8l-34.4-1.6 14.5-25.5 24.8 1.1z"/><path fill="#414849" fill-opacity=".5" d="M0 70h62v3H0z"/><ellipse cx="92" cy="46" fill="#d9dce3" fill-opacity=".5" rx="82" ry="28"/><path fill="#c9bea9" fill-opacity=".5" d="M77.6 106.7l-19.2 90-44-9.4 19.2-90z"/><circle r="1" fill="#d1bf90" fill-opacity=".5" transform="matrix(1.03398 -4.70282 84.41413 18.55965 175.2 150.9)"/><circle r="1" fill="#39101a" fill-opacity=".5" transform="matrix(3.8893 .48418 -.43052 3.45828 159 67.5)"/><path fill="#f1f6fb" fill-opacity=".5" d="M128.5 90.6l39.7 9.9-8.7 35-39.7-10z"/><circle r="1" fill="#6f6451" fill-opacity=".5" transform="matrix(1.02251 -9.0014 30.89554 3.50958 230.7 144.1)"/><path fill="#605235" fill-opacity=".5" d="M111.7 135.1L4.5 163.8l-.2-1 107.2-28.6z"/><path fill="#73451d" fill-opacity=".5" d="M186 105h28v22h-28z"/><ellipse cx="195" cy="135" fill="#c0b193" fill-opacity=".5" rx="25" ry="6"/><circle r="1" fill="#a4cbe5" fill-opacity=".5" transform="rotate(24.3 -194.5 64.8) scale(23.67701 12.38654)"/><circle r="1" fill="#b8af9e" fill-opacity=".5" transform="rotate(11.6 46 971.2) scale(69.78339 18.90691)"/><path fill="#452f0b" fill-opacity=".5" d="M18.3 143.6l2 5.7-26.6 9-2-5.6z"/><path fill="#000007" fill-opacity=".5" d="M16 102h10v5H16z"/><path fill="#5c6341" fill-opacity=".5" d="M134 86l-15-3-3 14z"/><ellipse cx="198" cy="70" fill="#d1d0cf" fill-opacity=".5" rx="35" ry="26"/><path fill="#d3d2cf" fill-opacity=".5" d="M162 29h24v95h-24z"/><ellipse cy="102" fill="#000d1d" fill-opacity=".5" rx="5" ry="6"/><circle r="1" fill="#f0dbad" fill-opacity=".5" transform="rotate(108 1.4 122.7) scale(19.85414 34.0966)"/><path fill="#def1ff" fill-opacity=".5" d="M-9.2 71.4L5 80.3l56.4 6.6L51 73.1z"/><ellipse cx="30" cy="37" fill="#b8b8b7" fill-opacity=".5" rx="34" ry="7"/><path fill="#2d465a" fill-opacity=".5" d="M61 71h2v19h-2z"/><path fill="#241609" fill-opacity=".5" d="M223 110h14v24h-14z"/><path fill="#cea77c" fill-opacity=".5" d="M132 185l-63-36-85 15z"/><path fill="#cbc5ba" fill-opacity=".5" d="M103 135L30 95l-4 60z"/><path fill="#cebfaf" fill-opacity=".5" d="M114.1 77.6l-91.5 75.8 110.4-57-7.8 23.7z"/><circle r="1" fill="#75716d" fill-opacity=".5" transform="matrix(-7.401 5.16301 -8.02408 -11.50225 246.6 117.7)"/><path fill="#c4baa8" fill-opacity=".5" d="M0 107h109v5H0z"/><path fill="#f2d6b3" fill-opacity=".5" d="M127 179l133 6-103-33z"/><circle r="1" fill="#ebdca6" fill-opacity=".5" transform="matrix(-48.27656 -14.48366 1.01468 -3.3821 170.6 144.4)"/><circle r="1" fill="#a5ae9d" fill-opacity=".5" transform="rotate(108.9 40.7 136.2) scale(4.01628 29.25549)"/><path fill="#d6dbe3" fill-opacity=".5" d="M-12 17l152 31L63 9z"/><ellipse cx="67" cy="97" fill="#abafb2" fill-opacity=".5" rx="55" ry="3"/><path fill="#6b91b1" fill-opacity=".5" d="M8 83h19v5H8z"/><path fill="#454948" fill-opacity=".5" d="M0 69h29v3H0z"/><ellipse cx="227" cy="164" fill="#90845f" fill-opacity=".5" rx="34" ry="9"/><path fill="#a49e9b" fill-opacity=".5" d="M154.7 93.5l8.2-22.4-7-4.2-9.1-7z"/><circle r="1" fill="#9e917c" fill-opacity=".5" transform="rotate(155.5 -11.5 65.4) scale(32.47991 8.47755)"/><path fill="#e9e7ed" fill-opacity=".5" d="M65 79h31v14H65z"/><path fill="#6e6144" fill-opacity=".5" d="M68.2 149.3l5.1-4.4h-2.4l-50 14.2z"/><circle r="1" fill="#a8a38f" fill-opacity=".5" transform="matrix(1.11205 -2.1003 53.86093 28.5179 152.2 10.7)"/><path fill="#dee6f4" fill-opacity=".5" d="M137 55h12v35h-12z"/><circle r="1" fill="#a8a194" fill-opacity=".5" transform="matrix(-14.72843 2.49065 -26.8143 -158.56594 255 37.4)"/><path fill-opacity=".5" d="M32 140h2v3h-2z"/><ellipse cx="217" cy="49" fill="#beb8af" fill-opacity=".5" rx="16" ry="59"/><path fill="#958b67" fill-opacity=".5" d="M143 91h14v4h-14z"/><path fill="#7a786e" fill-opacity=".5" d="M237.7 175.2l-69.8-22L187 163l84 19.3z"/><path fill="#f1fdff" fill-opacity=".5" d="M34 72l23 5-25 17z"/><path fill="#cacaa9" fill-opacity=".5" d="M79 185l-95-15 72-10z"/><path fill="none" stroke="#505457" stroke-opacity=".5" stroke-width=".5" d="M67.4 74.7q-40.9-4.5-63.9-4.5"/><path fill="#dad0bb" fill-opacity=".5" d="M169 89h17v35h-17z"/><circle r="1" fill="#c2c2c1" fill-opacity=".5" transform="matrix(-61.35039 -12.68917 1.4356 -6.9409 44.2 38.3)"/><path fill="#b27667" fill-opacity=".5" d="M128 72h9v17h-9z"/><path fill="#ded9d0" fill-opacity=".5" d="M72.8 136.9l58.8-48.6-9.3 90.8-5.9-43z"/><path fill="#6a5a39" fill-opacity=".5" d="M19.6 147.6l15.6 14-19.6-11.7-26.6-1.7z"/><path fill="#41131d" fill-opacity=".5" d="M166 68l-10-4-3 3z"/><path fill="#e0dfe0" fill-opacity=".5" d="M37 50h52v21H37z"/><ellipse cx="179" cy="131" fill="#e2d5bf" fill-opacity=".5" rx="24" ry="4"/><path fill="#5e594d" fill-opacity=".5" d="M230.5 143.8l-21.9 1.7L271 173l-32-58.6z"/><ellipse cx="121" cy="90" fill="#545835" fill-opacity=".5" rx="3" ry="7"/><circle r="1" fill="#c3c8d0" fill-opacity=".5" transform="matrix(1.83885 -13.1009 89.723 12.59356 19.1 3.4)"/><path fill="#543a23" fill-opacity=".5" d="M186 123h28v5h-28z"/><path fill="#ffb69b" fill-opacity=".5" d="M117.4 86l3.2-9.8-24.5 14.9 19.6 2.5z"/><circle r="1" fill="#d1cac0" fill-opacity=".5" transform="matrix(30.01996 14.27983 -3.23665 6.8043 178.3 13)"/><path fill="none" stroke="#a19883" stroke-opacity=".5" stroke-width=".5" d="M100.6 136.1q2.6 3.2 59.5-14.7"/><path fill="#5e6261" fill-opacity=".5" d="M89 97h16v2H89z"/><path fill="#9d9e99" fill-opacity=".5" d="M151 147l-7-9-17 2z"/><path fill="#b3a585" fill-opacity=".5" d="M174.3 119l.3.9-69 17.2-.2-1z"/><path fill="#c0987a" fill-opacity=".5" d="M45 155l48-15-23 30z"/><path fill="#d1b570" fill-opacity=".5" d="M217.1 162.6l-26.3-7.7 26.7.4 25.5 9.1z"/><path fill="#eeecd9" fill-opacity=".5" d="M136 161.6l15.3 9 .2 14.4-61-38.8z"/><path fill="#566061" fill-opacity=".5" d="M-16 108l44-3v1l-44 3z"/><path fill="#e1e9f3" fill-opacity=".5" d="M104 66h36v7h-36z"/><path fill="#dccca5" fill-opacity=".5" d="M80 144h45v9H80z"/><circle cx="25" cy="104" r="3" fill="#252c35" fill-opacity=".5"/><path fill="#3a3b34" fill-opacity=".5" d="M31 116h5v4h-5z"/><path fill="#a05d4a" fill-opacity=".5" d="M254.5 108.7l-34.6-.5-32.1-1.9 6.1-2.2z"/><path fill="#313333" fill-opacity=".5" d="M53.5 72.5l.2-1 8.8 2-.2 1z"/><path fill="#d7d3cf" fill-opacity=".5" d="M177 121l-14-54 49-5z"/><path fill="#3a2d1b" fill-opacity=".5" d="M214.8 128.5l-2.4 4.2 41.9 2.7-19.3-10z"/><path fill="#ccc2ae" fill-opacity=".5" d="M36.5 122l97.3-5.7-65.9 13.4-43-24.7z"/><path fill="#f5f6f4" fill-opacity=".5" d="M126.9 102.1l29.8-3.1 2.4 22.9-29.8 3.1z"/><path fill="#b5d0e4" fill-opacity=".5" d="M-16 93.4l52.2-2.8 24.3-15.2 5.2 21.2z"/><circle r="1" fill="#f7efdd" fill-opacity=".5" transform="matrix(-1.1637 -3.73375 20.03595 -6.24465 143 131.2)"/><path fill="#e3987c" fill-opacity=".5" d="M96 77h38v10H96z"/><path fill="#d0d0cb" fill-opacity=".5" d="M115 88l11 22-29-17z"/><path fill="#a09c91" fill-opacity=".5" d="M106 124l-9 2 5 5z"/><path fill="#d8d7d7" fill-opacity=".5" d="M173 24L78 75l64-67z"/><path fill="#dbb68a" fill-opacity=".5" d="M140.3 185l-71.1-16.4 29.5-31.4-10.5 15.5z"/></g></g></svg>