<svg xmlns="http://www.w3.org/2000/svg" viewBox="0 0 933 1400"><defs/><filter id="a"><feGaussianBlur stdDeviation="12"/></filter><rect width="100%" height="100%" fill="#6d493e"/><g filter="url(#a)"><g fill-opacity=".5" transform="translate(2.7 2.7) scale(5.46875)"><circle cx="89" cy="75" r="204" fill="#fff"/><ellipse cx="55" cy="77" fill="#d4d6c2" rx="80" ry="113"/><path fill="#231600" d="M20.8 212.1l48.1-13.4-11.7-10.2-73.2 7.6z"/><circle r="1" fill="#d5ddd7" transform="matrix(74.3267 -35.21364 12.21797 25.78891 48.4 235.4)"/><path fill="#000858" d="M28 124l18 29-9 12z"/><ellipse cx="27" cy="103" fill="#37362b" rx="12" ry="10"/><path fill="#857e5f" d="M78 143l67-30-57-10z"/><circle r="1" fill="#fff1cc" transform="rotate(-76.1 116 29.4) scale(28.77362 17.45346)"/><circle r="1" fill="#f2e5ce" transform="matrix(9.92071 -25.61935 17.6637 6.84 84 183.2)"/><path fill="#d2cdbe" d="M6.2 67.6L37 161l2.7 1.3-49.3 56.6z"/><path fill="#010000" d="M164 173h6v11h-6z"/><circle r="1" fill="#b7b199" transform="rotate(5 -1431.6 1663.4) scale(31.37412 123.63331)"/><circle r="1" fill="#42412a" transform="rotate(167.7 41.8 63.3) scale(3.2849 13.62638)"/><circle r="1" fill="#69767f" transform="matrix(21.0625 -7.21514 3.65729 10.67639 94.9 255)"/><circle r="1" fill="#5c6052" transform="matrix(12.31167 -3.58782 1.6007 5.49285 165.3 205.1)"/><circle cx="68" cy="11" r="92" fill="#c6c1bc"/><path fill="#65886b" d="M62 162l4 14 16-41z"/><path fill="#514031" d="M15 213l45-12-49-14z"/><path fill="#57571a" d="M39.7 113.2l9.2 11-12-5.9-11-15.7z"/><circle r="1" fill="#a39474" transform="rotate(145.4 40.4 107) scale(33.22469 10.63624)"/><path fill="#e2d6c5" d="M-11 178l126 16-73-34z"/><circle r="1" fill="#bdbab1" transform="matrix(-55.80915 -25.90574 6.6061 -14.23164 122.6 227.5)"/><path fill="#040d2c" d="M20 98h4v18h-4z"/><circle r="1" fill="#c4cbce" transform="matrix(-29.9849 .6281 -.49052 -23.41721 9.9 235.3)"/><path fill="#3a456c" d="M37 155.8l-15.8-39.1L41 142.9l-6 16.9z"/><circle r="1" fill="#ffeecd" transform="rotate(-36.2 273.5 -58.9) scale(18.09072 5.50524)"/><path fill="#f4e1bd" d="M24 101l30 43-30-25z"/><path fill="#172105" d="M92 155h10v3H92z"/><circle r="1" fill="#b2a38f" transform="matrix(-14.11742 7.82695 -24.52346 -44.23284 126.5 148.7)"/><path fill="#ecdbbf" d="M45.3 173.9v-69.8l2.6-7.4 41.8 27.1z"/><path fill="#f7c487" d="M109 165h19v12h-19z"/><circle r="1" fill="#656a3c" transform="matrix(-1.85085 .89075 -1.78993 -3.7192 68.8 138.3)"/><path fill="#887257" d="M147 147l5 33 6-29z"/><path fill="#68523e" d="M25 188h35v14H25z"/><path fill="#313447" d="M41.8 104.2L13.4 91.6l.8-1.8 28.4 12.6z"/><circle r="1" fill="#c0c1c0" transform="matrix(-9.23512 101.0946 -27.2225 -2.4868 19.2 5)"/><path fill="#305131" d="M81.4 136.7l12-9 1.2 1.6-12 9z"/><path fill="#bbb4a8" d="M185-3L73-13l66 125z"/><path fill="#c5b395" d="M92.7 107.5L80 117.4l-72.6-32 164.9 33.7z"/><circle r="1" fill="#d2c9bb" transform="matrix(19.10704 25.3559 -13.71592 10.33569 15 162.4)"/><path fill="#d3cbb1" d="M156 150h14v22h-14z"/><path fill="#bdb9b1" d="M-19.2 185.5l31.4-29.3 17 18.3-31.4 29.3z"/><path fill="#f1e0bc" d="M56 109l-26-7 19 19z"/><circle r="1" fill="#bfb4a6" transform="matrix(-10.80263 -23.65773 5.36265 -2.4487 11.2 101.5)"/><path fill="#9a9586" d="M185 223.9l-41.3-10.7-11.6-15.6 19.8-4.2z"/><path fill="#757777" d="M17.2 209.4l-25.9 7.9-7.3-.1 38-24.1z"/><path fill="#2a2e07" d="M42 117l-9-14-5 3z"/><path fill="#859d85" d="M89.2 140.2l-9.3-10.6-15.8 47.3-3.9-12.4z"/><path fill="#d2c4a3" d="M129 184h41v11h-41z"/><path fill="#93886c" d="M164.4 181l-39.9 4.2-15.2 8 1.3-17.1z"/><path fill="#272c1a" d="M91.7 110.8l6.5 21.2-.4-10 .1-14.7z"/><path fill="#c9c8c7" d="M42 271l-58-52 139 5z"/><path fill="#bcbbb9" d="M69.4 241.5l-16-52.5 1.5 19.1-64 8.9z"/><path fill="#dfd0b9" d="M106.6 130l-20.2 38.1 3.6-38.5 18.9 45.6z"/><circle r="1" fill="#cec5b8" transform="rotate(-65.8 81.4 -11.2) scale(30.43856 52.73006)"/><path fill="#ebdcc6" d="M56.5 187.8L31 113.4l44 27.4-7.9-18.8z"/><path fill="#430700" d="M163 181l22 5-17-12z"/><path fill="#e5dad2" d="M62 174h38v19H62z"/><circle r="1" fill="#bcc5cb" transform="rotate(-131.1 11.5 10.3) scale(14.18875 78.3439)"/><path fill="#b2a694" d="M119.5 165.8l-25.7-61.6 78.2 3.6-13.6 42.3z"/><path fill="#a69a87" d="M54.9 176.1l4.2-.9-30.7.4-5.3 3.4z"/><ellipse cx="22" cy="146" fill="#e7d2ae" rx="5" ry="27"/><path fill="#4e521b" d="M95 137l-6-10 4 2z"/><path fill="#9da2a3" d="M100 236l26 35 38-13z"/><circle r="1" fill="#504c4a" transform="matrix(4.74298 -.91293 .56157 2.91753 166 203.2)"/><path fill="#dfceaf" d="M25.5 120l2-22h1l-2 22z"/><path fill="#c2af89" d="M91 109l6 23-30-33z"/><path fill="#cabcad" d="M130.8 191.3L69 220.7l-26-14.8 58-13.9z"/><path fill="#b2a590" d="M125.7 154.1l-29.2 17.3-58.3 5.6 96.1-13.6z"/><path fill="#0c1627" d="M29 97l-10 2 6-5z"/><path fill="#111d07" d="M100.6 131.4l-.8.6-4.4-5.4.8-.6z"/><path fill="#b6ad9f" d="M10 99l28-11-43-5z"/><path fill="#484f6e" d="M37.3 143.3l-16.5-32 5.6 14.5 8.5 31.7z"/><circle r="1" fill="#b1b4b5" transform="matrix(32.99973 -31.97897 7.78745 8.03603 6.6 9)"/><path fill="#d8d4cf" d="M-7 143l22 21v-52z"/><path fill="#dacaaf" d="M80.7 83.6L41.6 97.5l54.6 36.2-25-24.7z"/><path fill="#cec9c2" d="M-16 153.9l26.3 36.4L46.4 177 32 190.1z"/><path fill="#939178" d="M133 172l-6 16-32 3z"/><path fill="#4f4637" d="M15 188l13 7-20 2z"/><circle r="1" fill="#7e7e4b" transform="rotate(-58.7 129.8 20.3) scale(1 8.78993)"/><path fill="#77757b" d="M97 240l-41 31h44z"/><path fill="#dbccae" d="M25.4 98.8L51 110.2l-.4 1L25 99.8z"/><path fill="#aab3b7" d="M15.5 230.6l-7.3-28.4-24.2 37.2 7-68.8z"/><circle r="1" fill="#473f30" transform="matrix(-.86867 -2.65769 11.83739 -3.86906 33.1 194)"/><path fill="#7d8177" d="M0 186h7v4H0z"/><path fill="#806a53" d="M50.6 187.4l3.1-.8 7.1 1.4 3.8 18.3z"/><path fill="#c5b6a4" d="M110 117l-11 1 9 39z"/><circle r="1" fill="#b6afa2" transform="matrix(7.99026 -3.85071 6.13208 12.7241 139.5 165.5)"/><circle r="1" fill="#a89c8c" transform="rotate(-101 121.4 20.9) scale(31.68765 6.28611)"/><path fill="#cab9a7" d="M87 85h54v21H87z"/><path fill="#ddceb5" d="M72 173.3l-18.3.3 24.7-31.1-69.6 33.9z"/><path fill="#b1a9a0" d="M91 212l73 13-32-27z"/><path fill="#e7d6bb" d="M106.7 156.2l-8.8-.5-1.7-31.3 3.2 18.7z"/><path fill="#020c30" d="M35.8 99.7l-.6.9-9-6.3.6-.9z"/><path fill="#b7aea1" d="M152.7 166.3L175.2-16h-39l5.7 43.5z"/><path fill="#ebdbc0" d="M95 162l-8-20-20 30z"/><path fill="#19214a" d="M42 104h-4l-3-6z"/><path fill="#4f3a32" d="M24.9 205.9L3 199.3l45.5 4.6.2-9.9z"/><path fill="#d5c7b5" d="M100 158l2.7 42.4-47.6 4.4 55.4-32.1z"/><path fill="#c0bab1" d="M-16 120.1l.3-26.8L13.4 69l8.7 47.8z"/></g></g></svg>