<svg xmlns="http://www.w3.org/2000/svg" viewBox="0 0 1400 933"><defs/><filter id="a"><feGaussianBlur stdDeviation="12"/></filter><rect width="100%" height="100%" fill="#4f3e35"/><g filter="url(#a)"><g fill-opacity=".5" transform="translate(2.7 2.7) scale(5.46875)"><circle r="1" fill="#fffdeb" transform="matrix(133.28137 -134.60297 111.5743 110.4788 102.2 61.4)"/><circle r="1" fill="#fff" transform="matrix(-.11754 27.90736 -122.0874 -.5142 106.5 153.4)"/><ellipse cx="108" cy="106" fill="#3a3024" rx="255" ry="17"/><path fill="#071f49" d="M266 49l-55-10 18 133z"/><circle r="1" fill="#e05f2e" transform="matrix(46.39198 -27.00078 31.95233 54.8996 20 35.8)"/><circle r="1" fill="#dbdcd5" transform="matrix(-40.45403 -23.65351 33.8386 -57.87334 126.5 31.9)"/><circle r="1" fill="#e9ead5" transform="matrix(17.32116 26.95678 -11.22327 7.21154 194 93.6)"/><path fill="#5f4f26" d="M132 43h62v16h-62z"/><ellipse cx="239" cy="158" fill="#6d7c97" rx="23" ry="51"/><path fill="#6d3f2d" d="M73.8-16l3 138.9 108.7-9.4-138.4-24z"/><ellipse cx="165" cy="5" fill="#cbc8be" rx="91" ry="40"/><path fill="#fff9d8" d="M252 49h4v64h-4z"/><ellipse cx="238" cy="50" rx="26" ry="6"/><circle r="1" fill="#eae9d9" transform="matrix(3.9445 25.22826 -132.83805 20.76958 90.4 160)"/><path fill="#26220d" d="M132.4 121.3l-1.6-18 52.8-4.6 1.6 18z"/><circle r="1" fill="#b4ba9b" transform="matrix(66.00248 -1.9755 .08954 2.9914 65.7 92.8)"/><path fill="#c9c7be" d="M213.2 29.9l1.6 92-16 .2-1.6-92z"/><ellipse cx="86" cy="33" fill="#d7dde5" rx="11" ry="61"/><path fill="#020f1f" d="M214 43h7v74h-7z"/><path fill="#402f2b" d="M95.1 112.4l.5 7-116.7 8.2-.5-7z"/><circle r="1" fill="#f09f73" transform="matrix(-.75325 33.19281 -20.38476 -.4626 30.9 21.8)"/><path fill="#e3d1aa" d="M133.1 77.4l12.3-23 41.5 22.2-12.3 23z"/><path fill="#4c3e25" d="M133 87h23v34h-23z"/><path fill="#969279" d="M246.8 39.5l-72.5 3.2 23.1 88.2 2.2-102.6z"/><path fill="#010500" d="M216 158h10v6h-10z"/><path fill="#3f2f24" d="M38 96h91v6H38z"/><ellipse cx="23" cy="152" fill="#e0ded1" rx="207" ry="24"/><path fill="#a8a9a2" d="M158 120h67v13h-67z"/><circle r="1" fill="#676c80" transform="rotate(-31.8 362.5 -349) scale(14.96198 33.72619)"/><path fill="#82724f" d="M131.8 72.5l1-24 9.1-8.9 15 9.7z"/><ellipse cx="57" cy="107" fill="#3e0609" rx="33" ry="2"/><ellipse cx="97" cy="110" fill="#9b9d7f" rx="32" ry="3"/><path fill="#c8c9ca" d="M79.2-7.4l55.2 107.7-18-13.9-41.3 7.3z"/><ellipse cx="63" cy="28" fill="#b7684d" rx="12" ry="66"/><path fill="#aaa99e" d="M252 13h4v114h-4z"/><path fill="#d7ddb2" d="M18 92h60v4H18z"/><path fill="#121924" d="M251.8 56.5l.5 9.7L211.9 43l32 2.7z"/><ellipse cx="233" cy="69" fill="#476397" rx="15" ry="17"/><path fill="#161611" d="M244 97l7-11-36 6z"/><path fill="#9b6b4e" d="M-16 107l33-10-18-85z"/><ellipse cx="51" cy="104" fill="#b2ad95" rx="35" ry="2"/><path fill="#a29e92" d="M273.6-4.6L268.1 48l-51.7-5.5 5.5-52.7z"/><path fill="#34413e" d="M248.8 167.5l-3 7.4-30.6-12.4 3-7.4z"/><circle r="1" fill="#695249" transform="matrix(84.39756 -4.03604 .12664 2.64811 13 123.7)"/><path fill="#ddd9cd" d="M102 125l136 60-75-64z"/><ellipse cx="39" cy="113" fill="#a29b80" rx="32" ry="3"/><path fill="#77674b" d="M178.6 91.8l-.2 15-33-.6.2-15z"/><path fill="#914f3a" d="M75 92l-4-20-49 16z"/><path fill="#a2a9ac" d="M229.9 167l-18.2-34.1 19.5-9-10.5-9.1z"/><path fill="#d6d4cc" d="M204 73h10v29h-10z"/><ellipse cx="98" cy="103" fill="#9a977f" rx="33" ry="2"/><ellipse cx="177" cy="61" fill="#d3d4d3" rx="3" ry="32"/><ellipse cx="166" cy="39" fill="#b0a895" rx="59" ry="5"/><ellipse cx="127" cy="116" fill="#383831" rx="56" ry="4"/><path fill="#56647a" d="M247.8 132l23.2 53-54.5-44 44.3-30.8z"/><path fill="#504531" d="M96 91h28v10H96z"/><circle r="1" fill="#331e23" transform="matrix(-.16594 -1.31352 30.17007 -3.81137 7.2 104.4)"/><path fill="#7d7458" d="M195 66l3-29-46 14z"/><path fill="#503025" d="M6 108h71v3H6z"/><path fill="#d6d3bf" d="M181.9 105.5l-9-37.4 4.7-8.1 11.6 22.2z"/><path fill="#d5d5d0" d="M124 66h9v29h-9z"/><circle r="1" fill="#a2a39e" transform="matrix(20.76372 -3.06612 .8824 5.9756 105 87.8)"/><path fill="#dadcdb" d="M75 50h6v39h-6z"/><circle r="1" fill="#c9c4b9" transform="matrix(76.23923 -5.19747 1.88255 27.61423 162.7 3.6)"/><path fill="#331012" d="M66 105h71v2H66z"/><path fill="#593551" d="M267.5 134.2l-2.6 5.4-40.4-19.8 2.6-5.4z"/><path fill="#d2d5c9" d="M76 125l-92 58v-52z"/><path fill="#cecec6" d="M165 130h59v8h-59z"/><path fill="#9e9c94" d="M154 123l77-6-36 14z"/><path fill="#9e9882" d="M204 97.9l-14.8 21.2-5.5-16.6-34.8 3.1z"/><path fill="#987e7c" d="M271 134.9l-38.7-25.5-11.5.6 7.2 4.9z"/><path fill="#070a05" d="M224 164h8v6h-8z"/><path fill="#142226" d="M242 100h10v11h-10z"/><circle r="1" fill="#728da4" transform="matrix(-32.9621 -16.6868 1.39794 -2.76141 252.7 157.2)"/><path fill="#13100a" d="M154 110.6l29.6-4.2.5 3-29.7 4.2z"/><ellipse cx="216" cy="125" fill="#6b5d41" rx="6" ry="3"/><path fill="#6b593a" d="M169 48l5 14-26-18z"/><path fill="#ada994" d="M10 104h26v3H10z"/><ellipse cx="113" cy="122" fill="#a29a7a" rx="26" ry="2"/><path fill="#c4c7c3" d="M178.2 132.7l34.9-4.7 12.6 33.2 7-9.7z"/><circle r="1" fill="#bf7759" transform="matrix(16.02482 -32.7153 10.32883 5.05934 50.8 59.1)"/><path fill="#b8b2a3" d="M256.8-5.7l-52.4 4.2-42 48.5 38.7-5.4z"/><ellipse cx="34" cy="117" fill="#5f584d" rx="83" ry="3"/><path fill="#110c04" d="M158 99h21v2h-21z"/><path fill="#0a0f16" d="M215 44h9v17h-9z"/><path fill="#495964" d="M217 80h35v11h-35z"/><path fill="#b6b2a9" d="M197 42h8v79h-8z"/><path fill="#908c70" d="M26 89l-28 14-14-12z"/><ellipse cx="20" cy="98" fill="#9f9f89" rx="46" ry="1"/><path fill="#080c0e" d="M245 47h6v20h-6z"/><path fill="#dc926d" d="M65 26L26-16 16 72z"/><path fill="#807b54" d="M192 64h5v20h-5z"/><path fill="#e9ecf1" d="M174 67h6v26h-6z"/><ellipse cx="146" cy="97" fill="#5b4f3a" rx="16" ry="9"/><path fill="#a89878" d="M176.4 98.2L154.6 95l-6.4 9.1 23.9-32.5z"/><path fill="#3d372d" d="M.3 129.3L-16 98.4l2.1 17.3 25.8 7.8z"/><ellipse cx="68" fill="#9c5b40" rx="7" ry="26"/><path fill="#9daeb6" d="M221 154.9l26.6 19.4-.5.8-26.7-19.4z"/><path fill="#bab4a6" d="M174 13h6v53h-6z"/><path fill="#5970a4" d="M235 57l-9 23h24z"/></g></g></svg>