<svg xmlns="http://www.w3.org/2000/svg" viewBox="0 0 933 1400"><defs/><filter id="a"><feGaussianBlur stdDeviation="12"/></filter><rect width="100%" height="100%" fill="#6c453a"/><g filter="url(#a)"><g fill-opacity=".5" transform="translate(2.7 2.7) scale(5.46875)"><circle cx="104" cy="181" r="209" fill="#fffff5"/><circle r="1" fill="#fbffff" transform="rotate(-81.2 98 -63) scale(87.58503 40.83068)"/><circle r="1" fill="#4c3821" transform="matrix(1.52556 20.88452 -120.78795 8.82327 131.1 152.3)"/><ellipse cx="86" cy="219" fill="#f6fee9" rx="158" ry="48"/><ellipse cx="54" cy="52" fill="#eb6b31" rx="51" ry="102"/><circle r="1" fill="#ffaf7c" transform="matrix(-2.47588 48.93167 -25.73728 -1.30227 54.6 67.6)"/><ellipse cx="76" cy="134" fill="#e5fff4" rx="50" ry="4"/><path fill="#a35438" d="M6.3 79l3.8-95 15.1 160-20.4-7.1z"/><path fill="#2d1c15" d="M185 146h-74l33-23z"/><ellipse cy="75" fill="#fdffff" rx="6" ry="94"/><path fill="#ac553c" d="M88 0h16v134H88z"/><path fill="#ebedef" d="M131.9 54.1L104.2-16l.3 151.9 18.9-8.7z"/><path fill="#848b7f" d="M78.3 163.8l-50-2.6 1.4-27 50 2.6z"/><circle r="1" fill="#884b36" transform="rotate(-154.5 12.8 -2.6) scale(17.10888 29.3928)"/><circle r="1" fill="#332a1b" transform="rotate(-7.5 1307 -59.2) scale(18.97973 3.45199)"/><ellipse cx="116" cy="158" fill="#c7b998" rx="86" ry="3"/><ellipse cx="168" cy="167" fill="#645043" rx="137" ry="8"/><ellipse cx="98" cy="148" fill="#d7cfb6" rx="57" ry="2"/><path fill="#e7ece2" d="M22 141l-38-2 24 27z"/><path fill="#d5d5d4" d="M104 101h66v28h-66z"/><path fill="#9c573f" d="M105-16l-1.9 42.7L64.7 12l-65-9.8z"/><path fill="#beb69f" d="M98.5 302.7l-19.6-32.6 104.6-62.8 19.6 32.6z"/><ellipse cx="121" cy="152" fill="#4b070b" rx="80" ry="2"/><ellipse cx="125" cy="173" fill="#afa686" rx="100" ry="3"/><path fill="#ad593e" d="M107.7 128.8l-7.9 2.2-28.3-1.2 8.2-26.1z"/><ellipse cx="99" cy="186" fill="#e1dcd3" rx="169" ry="11"/><ellipse cx="51" cy="145" fill="#4c3d40" rx="17" ry="3"/><ellipse cx="54" cy="133" fill="#fff" rx="26" ry="2"/><path fill="#b56749" d="M6 74h20v66H6z"/><path fill="#dd845f" d="M94 115l3-83-64 100z"/><path fill="#201f1b" d="M137 127l9 11 27-3z"/><path fill="#ddd7b9" d="M65 131h47v8H65z"/><path fill="#dbd4c0" d="M20 157.8l23.7-10.5.4.9-23.8 10.5z"/><circle r="1" fill="#faa87c" transform="matrix(1.66168 -34.7759 17.93033 .85676 57.8 60)"/><ellipse cx="71" cy="154" fill="#734236" rx="40" ry="3"/><path fill="#7d5e4d" d="M118.2 140.7L137 122l-6.6 25.7H34.2z"/><circle r="1" fill="#cec8bf" transform="matrix(20.41986 -8.00061 14.05515 35.8728 163 96.3)"/><path fill="#1b0b0e" d="M28 146l3 3-13 2z"/><path fill="#58493d" d="M154 158.9l-60.3 3.4 40.8 8.2 50.5 2.6z"/><path fill="#d8cdb2" d="M20.5 164.4l-.4-2 35.4-6.8.4 2z"/><ellipse cx="42" cy="222" fill="#e0ddce" rx="43" ry="21"/><path fill="#d3c6a8" d="M29 150h71v1H29z"/><path fill="#d4cfc5" d="M-16 175l20-50 10 35z"/><path fill="#c0b293" d="M93 130h34v8H93z"/><circle r="1" fill="#d5d6d8" transform="matrix(21.89972 16.65422 -28.8129 37.88797 139 7.8)"/><ellipse cx="127" cy="172" fill="#ddcaa3" rx="94" ry="1"/><path fill="#9f5c42" d="M6 0h14v46H6z"/><path fill="#d47f5a" d="M12 24h22v103H12z"/><path fill="#bfbbba" d="M110.5 13.9l18.1 9.7 12.3-35.2-22.8-4.4z"/><path fill="#75784f" d="M67 137l-60 1v-1l60-1z"/><path fill="#ebedee" d="M0 31h5v69H0z"/><path fill="#b36c54" d="M5 46h9v63H5z"/><path fill="#b9b9bc" d="M169 127l-22-13-30 13z"/><path fill="#2e0a11" d="M153 145.2l.6-3 21.5 4.6-.7 3z"/><path fill="#e8e1df" d="M144 98l-39 30 2-106z"/><path fill="#d87852" d="M71 6L13 47 34 5z"/><path fill="#d9d7cc" d="M9 143l-25 31 47-34z"/><path fill="#3b302a" d="M25 173l2-10-20 9z"/><path fill="#f5ffd7" d="M46 138h27v1H46z"/><path fill="#9e9575" d="M-14.3 186.7L28.3 160-16 173.5l20.2-8.8z"/><path fill="#270006" d="M14.2 162.4l25.2-9.7.4 1-25.2 9.6z"/><path fill="#40070a" d="M13.7 159.3l-1.1-1.6 9.7-7 1.1 1.6z"/><ellipse cx="9" cy="194" fill="#caceca" rx="39" ry="19"/><ellipse cx="96" cy="166" fill="#898d91" rx="57" ry="1"/><path fill="#cbbda7" d="M48 158h62v3H48z"/><path fill="#b56147" d="M76 104h27v26H76z"/><ellipse cx="115" cy="162" fill="#2d2a23" rx="77" ry="1"/><path fill="#b4ae99" d="M138.8 271L77 230.8l63.1 32.8-68.9-10.5z"/><path fill="#8e4e3b" d="M83.6 7L64.8-8l42.6-8-6.4 30.3z"/><path fill="#a45942" d="M6 97h10v38H6z"/><ellipse cx="53" cy="58" fill="#f09f74" rx="39" ry="18"/><path fill="#a7a898" d="M53.7 273.5l-56-42.2.6-.8 56 42.2z"/><ellipse cx="157" cy="218" fill="#d3c9b7" rx="43" ry="29"/><path fill="#e3dfda" d="M184 22l-32-38-24 76z"/><path fill="#321c1c" d="M126 133h44v3h-44z"/><circle r="1" fill="#c6bfae" transform="matrix(-.35407 -.93522 99.00188 -37.48185 33.9 225.8)"/><ellipse cx="85" cy="174" fill="#92897b" rx="86" ry="1"/><path fill="#7f7960" d="M180.5 142.8l-153-2.6v-1l153 2.6z"/><circle r="1" fill="#482e2f" transform="matrix(.11705 .99313 -17.98308 2.11956 42 147.4)"/><ellipse cx="36" cy="134" fill="#fdfffd" rx="9" ry="2"/><path fill="#af9b7a" d="M128 148l.2-2 67.8 6-.2 2z"/><path fill="#cfccab" d="M21 148.5l-.2-1 24.2-6 .2 1z"/><path fill="#df8359" d="M51.3 7.4l32.2 42.7 15.4-18-26.8-22z"/><path fill="#998d6d" d="M42 155h52v3H42z"/><circle r="1" fill="#aca798" transform="matrix(.58889 .80822 -103.43498 75.36527 122 251.7)"/><path fill="#7d4c39" d="M6 0h13v10H6z"/><path fill="#e1dfda" d="M0 102h6v44H0z"/><path fill="#c4bfb3" d="M55.9 148.8l-33.6 5.4-.2-1 33.6-5.4z"/><path fill="#cccabc" d="M19.4 156.8l.5.9-15.3 9.5-.5-.9z"/><ellipse cx="55" cy="142" fill="#c7cbb9" rx="16" ry="1"/><ellipse cx="1" cy="17" fill="#cecec9" rx="5" ry="27"/><path fill="#cec5b8" d="M126 68l59-18-7 39z"/><ellipse cx="83" cy="168" fill="#b04645" rx="51" ry="1"/><ellipse cx="88" cy="144" fill="#5e524d" rx="29" ry="2"/><path fill="#c1bbaa" d="M104.7 247.4l-56.8-28-10.6-6.1 52 21.9z"/><circle r="1" fill="#bfb8a7" transform="matrix(.4602 .88782 -133.8135 69.36233 39.6 255.1)"/><ellipse cx="87" cy="169" fill="#612e2a" rx="51" ry="1"/><path fill="#9d332c" d="M127 130l8 4 4-6z"/><path fill="#d5d0ce" d="M105.8 130.6l34.8-47.5 44.4 24-57.6 23.4z"/><path fill="#c4bba1" d="M60.6 251.8l48.2.8 76.2 1.6L75.3 271z"/></g></g></svg>