<svg xmlns="http://www.w3.org/2000/svg" viewBox="0 0 933 1400"><defs/><filter id="a"><feGaussianBlur stdDeviation="12"/></filter><rect width="100%" height="100%" fill="#47423a"/><g filter="url(#a)"><g fill-opacity=".5" transform="translate(2.7 2.7) scale(5.46875)"><circle r="1" fill="#fff" transform="matrix(160.78106 36.26368 -35.34005 156.68597 98 127.3)"/><circle r="1" fill="#fff9ec" transform="matrix(-11.81275 88.53247 -167.51543 -22.35133 105.1 77.4)"/><circle r="1" fill="#867042" transform="matrix(9.12015 -40.65881 90.88412 20.38616 58.3 229)"/><circle r="1" fill="#f8fcff" transform="matrix(-55.52656 -4.95497 2.07702 -23.27557 141 106.9)"/><ellipse cx="113" cy="149" fill="#756f61" rx="41" ry="7"/><circle r="1" fill="#baae99" transform="matrix(116.31148 -30.2305 8.96743 34.50209 63.2 10.4)"/><ellipse cx="47" cy="195" fill="#2c2e2c" rx="27" ry="11"/><path fill="#291d04" d="M5 154l31 28-3-20z"/><path fill="#35302a" d="M44 154l-3-12h29z"/><ellipse cx="169" cy="197" fill="#535040" rx="38" ry="10"/><path fill="#fffff7" d="M153 136h17v46h-17z"/><circle r="1" fill="#eceae6" transform="matrix(-6.38574 -12.53272 72.09352 -36.73348 93.5 55.3)"/><circle r="1" fill="#c1af89" transform="matrix(-77.8183 -45.4609 8.54006 -14.61857 138.6 218.5)"/><path fill="#ccc2b2" d="M-16 229.4L-3.1 70.5l57.2 98.7-35.4-12.8z"/><path fill="#efe9e3" d="M145.9 170l39.1-5-49.3-13.4-47.9-12.1z"/><path fill="#6f7470" d="M110.5 148.4l47 4.6-48.3-22.3 2.9 12.5z"/><path fill="#554d39" d="M15 165h60v5H15z"/><ellipse cx="76" cy="99" fill="#e0dad5" rx="52" ry="51"/><path fill="#393426" d="M87 153h30v4H87z"/><circle r="1" fill="#d0ba96" transform="matrix(-.34031 -8.2728 74.03083 -3.04536 146.8 180.6)"/><path fill="#d9caac" d="M59.2 178.6l-37.7 13 29.2-32.9-26.8-.3z"/><circle cx="148" cy="149" r="5" fill="#151a19"/><path fill="#a5987d" d="M185 266L45 206l66-24z"/><path fill="#ece8cf" d="M185 218.9v18.4l-34.3-13.9 3.9-15.3z"/><circle cx="12" cy="215" r="19" fill="#b6a88a"/><path fill="#4d4637" d="M81.5 193.5L20 174.3l-8.1-9.8 57.9 31.6z"/><path fill="#5f5a4e" d="M38.5 212.9l25.3-29.7-19.3-.9-27.6 12.4z"/><path fill="#5b5651" d="M47 142h16v7H47z"/><path fill="#afa995" d="M127 144l-1-17 26 16z"/><ellipse cx="128" cy="64" fill="#d7cbbe" rx="48" ry="22"/><circle r="1" fill="#eaf1fb" transform="matrix(-45.51996 -2.30594 .98163 -19.3776 158.2 111.2)"/><path fill="#6c6c62" d="M152 172l-26 2-18-11z"/><path fill="#f5fafb" d="M94 41L55 76l-25-5z"/><path fill="#c5bdb1" d="M88.3 146.4l-5.6-50.3-5 16.7-5.9 43.1z"/><circle r="1" fill="#897d61" transform="matrix(-6.27581 30.41848 -35.13692 -7.2493 35.3 252.5)"/><circle r="1" fill="#3c413e" transform="matrix(-31.55378 -11.6721 .34694 -.93789 162.8 208)"/><path fill="#cfcabb" d="M37 168l24-6-58-28z"/><path fill="#c8baa0" d="M185 179.3l-142.7-5 80.6-13.9-25.3 34.2z"/><circle r="1" fill="#c3bbad" transform="matrix(-34.62676 7.42333 -5.23243 -24.4071 33.9 42.4)"/><path fill="#f4f8f8" d="M128 25l49-7-3-14z"/><path fill="#e0dad8" d="M110.4 93.6l2.2 56.2-5.1 2.3-40.1-92.8z"/><path fill="#955d14" d="M95 147h10v6H95z"/><path fill="#9d9072" d="M65 249l88-28 30 45z"/><path fill="#c1b69e" d="M-16 149.7l57.9 39.4 7.6-14.1-63.8 22.7z"/><path fill="#f8fafb" d="M151.9 156.3l5.2-63.3.1 39.3 27.2 22.3z"/><path fill="#fff" d="M37 129.3l-7 .4-1-17 7-.4z"/><path fill="#505d69" d="M124.9 128.9l3.4-2.5 2.3 6.9-2.9 1.4z"/><path fill="#4d4e4b" d="M114 144l30.4 6-.4 2-30.4-6z"/><path fill="#5e5646" d="M11 152l6 23 12-7z"/><ellipse cx="9" cy="139" fill="#c5beb4" rx="27" ry="17"/><path fill="#322e28" d="M53 202l20-8-22-6z"/><path fill="#d3ccba" d="M121 168.2l-72.8-6.4.9-10 72.7 6.4z"/><ellipse cx="132" cy="158" fill="#dcdbd5" rx="17" ry="9"/><circle r="1" fill="#66614d" transform="matrix(21.73599 -10.55443 1.01974 2.10008 60.2 249)"/><circle r="1" fill="#8f7a5b" transform="rotate(-12.1 872.8 -324.7) scale(43.50767 1)"/><path fill="#e8e9e8" d="M122.6 96.2L105.3 134l41.5 2.3-21.4-.1z"/><path fill="#37352a" d="M78 153h18v2H78z"/><ellipse cx="60" cy="167" fill="#544f45" rx="21" ry="2"/><circle cx="61" cy="86" r="16" fill="#e9e6e7"/><path fill="#eef2f1" d="M139.1 29.3l9.3-10.9L91 42.1l-5.2 12.5z"/><path fill="#d7d0c7" d="M75 121l6 47-41-63z"/><path fill="#595345" d="M10.9 191l-1.1-2.4 19.6 1 6.7 19.7z"/><circle r="1" fill="#6f6c62" transform="matrix(9.16834 2.87318 -1.76826 5.6425 157.2 193)"/><path fill="#cfbaa0" d="M151.9 181.6l-5-14 33.7 13.5.7 17.5z"/><path fill="#403e2d" d="M149.5 204.8l.3-1 38.7 13.4-.3 1z"/><path fill="#837961" d="M177.9 270.9l-30.6-26.3-22.3-7 3.2 9.9z"/><path fill="#d5ccb2" d="M154.4 211.8l-17.5 13.1 9.5-20.8 32.4 12.7z"/><circle r="1" fill="#d3cdc2" transform="rotate(63.5 37.7 137) scale(12.43429 79.08305)"/><path fill="#a09278" d="M85 257h42l-29-83z"/><path fill="#8e8672" d="M35.1 178.1l36.5 45.1-.7.7-36.5-45.1z"/><path fill="#dcd4ba" d="M148 185l-16 8-3-10z"/><ellipse cx="149" cy="1" fill="#bdb3a2" rx="113" ry="7"/><circle r="1" fill="#cdcdc8" transform="matrix(17.3552 -37.20989 11.22193 5.23406 0 15.5)"/><path fill="#cac0b3" d="M34 66l85-37-83 9z"/><path fill="#ad9f83" d="M52 208l-33-1 6 19z"/><ellipse cx="107" cy="164" fill="#c0b6a0" rx="33" ry="2"/><path fill="#cbc6b5" d="M119 136h19v8h-19z"/><ellipse cx="162" cy="166" fill="#fae7db" rx="27" ry="5"/><path fill="#ab9e86" d="M87.3 192.9l97.7 47-133.2-34.8 51.8-19.3z"/><path fill="#e2dddb" d="M109 87l-9 64-11-78z"/><path fill="#49483d" d="M59.7 200l-19.4 9.5L15 193.1 30.5 205z"/><path fill="#a49174" d="M61 186l25-11-5-11z"/><path fill="#cec4b4" d="M81 170l-39 1-6 13z"/><path fill="#494738" d="M51 169h13v2H51z"/><path fill="#5b564c" d="M137.2 202.3l1.7-.1-5.7-6 21.5-9.3z"/><path fill="#494339" d="M37 177L9 154l20 8z"/><ellipse cx="15" cy="215" fill="#7c735b" rx="1" ry="51"/><path fill="#f5f2ec" d="M129.6 136.4l20.5-6 34.9 48.5-21.6-42.2z"/><path fill="#dbd5cb" d="M116.9 145.1l-18.3-8.9L70 158.3l-13.1-8.6z"/><path fill="#423d2f" d="M54 181l-11 3 14 1z"/><circle r="1" fill="#e3e3e1" transform="matrix(57.37021 -5.59314 .77017 7.89987 169 88)"/><path fill="#848784" d="M150.5 203.3l3.2-10.5 25.8 7.9-3.2 10.5z"/><path fill="#bcb4ab" d="M80 94h5v54h-5z"/><path fill="#c3bcad" d="M-9 93l28 86-30-20z"/><path fill="#b4a88e" d="M116.5 205.7l10.4 27.1 8.9-5.6L127 172z"/><path fill="#8c846b" d="M175.2 188.5l-39.4 41.1-21.6 29.2-11.9 12.2z"/><path fill="#ccc5bb" d="M44 124h14v19H44z"/><path fill="#313431" d="M131.5 148.5h-5v-5h5z"/><path fill="#665f52" d="M131 146h14v5h-14z"/><path fill="#d3ccc0" d="M98.7 171.4l-12 1-1.4-15.8 12-1z"/></g></g></svg>