<svg xmlns="http://www.w3.org/2000/svg" viewBox="0 0 933 1400"><defs/><filter id="prefix__a"><feGaussianBlur stdDeviation="12"/></filter><rect width="100%" height="100%" fill="#3a3539"/><g filter="url(#prefix__a)"><g transform="translate(2.7 2.7) scale(5.46875)"><circle cx="110" cy="146" r="188" fill="#fff" fill-opacity=".5"/><circle cx="106" cy="28" r="128" fill="#efefe6" fill-opacity=".5"/><circle r="1" fill="#14111c" fill-opacity=".5" transform="matrix(22.62504 -.11086 .26281 53.63524 117.4 199)"/><circle r="1" fill="#fff" fill-opacity=".5" transform="matrix(-7.92473 51.19066 -37.7684 -5.84686 24.4 215.1)"/><ellipse cx="156" cy="164" fill="azure" fill-opacity=".5" rx="18" ry="255"/><path fill="#001341" fill-opacity=".5" d="M102.9 138.4l-30 2-3.8-54.8 30-2z"/><path fill="#3a2200" fill-opacity=".5" d="M2 168l51-15-69-33z"/><path fill="#2e2829" fill-opacity=".5" d="M113 155h26v101h-26z"/><ellipse cx="83" cy="179" fill="#72748e" fill-opacity=".5" rx="26" ry="47"/><circle r="1" fill="#856d35" fill-opacity=".5" transform="matrix(-39.47976 -4.64512 .80615 -6.8516 17.2 91.5)"/><circle r="1" fill="#f9f9e9" fill-opacity=".5" transform="matrix(31.79511 -31.85815 10.11184 10.09183 34.8 190.1)"/><circle r="1" fill="#b6cad7" fill-opacity=".5" transform="matrix(7.2305 -10.12925 34.41786 24.56829 88.2 241.6)"/><ellipse cx="138" cy="143" fill="#061e2d" fill-opacity=".5" rx="1" ry="115"/><circle r="1" fill="#f8e6b9" fill-opacity=".5" transform="matrix(31.99166 5.50887 -2.87001 16.66702 14.8 116.2)"/><circle r="1" fill="#e1d9cc" fill-opacity=".5" transform="matrix(15.5716 -35.49016 78.79054 34.57001 55.1 38.8)"/><ellipse cx="169" cy="141" fill="#d4e2fe" fill-opacity=".5" rx="30" ry="255"/><path fill="#66544f" fill-opacity=".5" d="M61.9 179.4l57.6 35 26 56.6-87.3-68.4z"/><path fill="#d0cabb" fill-opacity=".5" d="M100 8h36v146h-36z"/><path fill="#5d6056" fill-opacity=".5" d="M12.8 244.8l60.3-26.7-89.1 45.8 10.1-8.5z"/><path fill="#98a8be" fill-opacity=".5" d="M99.8 162.5l7.7 33.2-8 7.5-68.8-66z"/><path fill="#050509" fill-opacity=".5" d="M99 99L69 89l31-1z"/><ellipse cx="18" cy="200" fill="#f1eede" fill-opacity=".5" rx="39" ry="34"/><path fill="#819fd9" fill-opacity=".5" d="M91.3 128.6l9.4-11.3-10.2-23.9-16.7 21z"/><ellipse cx="117" cy="178" fill="#0e1017" fill-opacity=".5" rx="9" ry="21"/><path fill="#aa9b6f" fill-opacity=".5" d="M23.6 114.9l31.9-36.5.1 48.3L21 82.5z"/><path fill="#69676d" fill-opacity=".5" d="M121 235l19-47-64 28z"/><path fill="#56555b" fill-opacity=".5" d="M46.6 225.7l16.7 22.6 33.1 19.1-26.2-21.8z"/><path fill="#4d5961" fill-opacity=".5" d="M69.1 74l18.8 68.6 22.1-3.5-39-.7z"/><path fill="#564a30" fill-opacity=".5" d="M40.9 137.2l-52.1 26.3 27 3.2 30.4-7.8z"/><ellipse cx="139" cy="146" fill="#6c8092" fill-opacity=".5" rx="1" ry="62"/><path fill="#221d10" fill-opacity=".5" d="M74 129h24v6H74z"/><path fill="#8b7d5b" fill-opacity=".5" d="M134.4 94.4l6.1 14.7-13-21-1.9 26.5z"/><circle cx="131" cy="178" r="3" fill="#f9ffff" fill-opacity=".5"/><path fill="#d1cac1" fill-opacity=".5" d="M101 121h30v34h-30z"/><path fill="#957f59" fill-opacity=".5" d="M-9 152l19-24 35 18z"/><path fill="#d2ccb1" fill-opacity=".5" d="M63.3 153.3L28 56l19.1 102 27.6-3.9z"/><path fill="#020612" fill-opacity=".5" d="M71 87h10v12H71z"/><path fill="#a1a9ad" fill-opacity=".5" d="M121.2 197.8l17-6.2-13.3 10.1-3.9 18.1z"/><ellipse cx="135" cy="231" fill="#272b31" fill-opacity=".5" rx="3" ry="79"/><ellipse cx="104" cy="76" fill="#c3c1b8" fill-opacity=".5" rx="32" ry="14"/><path fill="#b3b5b7" fill-opacity=".5" d="M57.6 231.1L49 271l2.6-60.5 32.1 4.9z"/><path fill="#f8fbfd" fill-opacity=".5" d="M107.8 22l6.5 10.4 6.9 4.5 5.3-13.1z"/><path fill="#afc1c6" fill-opacity=".5" d="M72.5 184.8l30.9 19.2 6.8-24.8-5.1 14.7z"/><path fill="#8f6e97" fill-opacity=".5" d="M90.2 164.3l-35.7-22.4 18.9-2.7 26.6 25.9z"/><ellipse cx="134" cy="205" fill="#cfd9dd" fill-opacity=".5" rx="2" ry="4"/><path fill="#2d3d4f" fill-opacity=".5" d="M139-5.5l1 .2-3 20.8-1-.2z"/><path fill="#080401" fill-opacity=".5" d="M123 234l14 1-5-15z"/><ellipse cx="20" cy="47" fill="#dcd8ce" fill-opacity=".5" rx="66" ry="32"/><path fill="#5d6a86" fill-opacity=".5" d="M117.5 196.5L71.4 173l10.3 15.8 39.3 13.6z"/><ellipse cx="30" cy="87" fill="#8c7f5f" fill-opacity=".5" rx="26" ry="3"/><path fill="#b3b1a8" fill-opacity=".5" d="M44.4 173.2l-57.8-2.7 51.5-8.2 24.3-4.6z"/><path fill="none" stroke="#403f38" stroke-opacity=".5" stroke-width=".5" d="M56.6 227q-14.1 5-71.5 34.4"/><path fill="#deddd4" fill-opacity=".5" d="M31 125l5-47 12 71z"/><path fill="#1a252f" fill-opacity=".5" d="M111 201l-9 4 23 11z"/><path fill="#eae1c9" fill-opacity=".5" d="M-17.5 99.8l31.8-3.4 3.2 29.8-31.8 3.4z"/><path fill="#7990bb" fill-opacity=".5" d="M76 101h13v29H76z"/><path fill="#bdb4ba" fill-opacity=".5" d="M130 141l-25 16-34-13z"/><path fill="#d5e2e9" fill-opacity=".5" d="M83 245l-20-7 35 27z"/><path fill="#e8eeed" fill-opacity=".5" d="M45.4 167.6l21.1 6-1.9 6.8-21.1-6z"/><ellipse cx="160" cy="23" fill="#d4dfed" fill-opacity=".5" rx="22" ry="197"/><path fill="#4c3237" fill-opacity=".5" d="M138 153l-43 7 23 12z"/><path fill="#bdaab0" fill-opacity=".5" d="M127 170h4v13h-4z"/><circle cx="128" cy="187" r="6" fill="#00020a" fill-opacity=".5"/><path fill="#605559" fill-opacity=".5" d="M61 205l-2-25 55 51z"/><path fill="#1f1c19" fill-opacity=".5" d="M14.3 164.7l4.8-14.5 25.7-.1L-1 164.9z"/><path fill="#c4b595" fill-opacity=".5" d="M42.3 138.9l-13.7-17.3L45 69.8 14.9 139z"/><path fill="#7f8a95" fill-opacity=".5" d="M65.5 218.3l76.8 52.7-65.9-39.1 13.6 6.9z"/><path fill="#8a7870" fill-opacity=".5" d="M111.8 213.3l-58.9-31L69 195.9l55.9 39.3z"/><circle r="1" fill="#47453b" fill-opacity=".5" transform="matrix(-8.8823 4.8428 -.4787 -.87798 42.1 232.7)"/><path fill="#3b3a1b" fill-opacity=".5" d="M53 158l-8 1 8-4z"/><path fill="#e5eaeb" fill-opacity=".5" d="M-16 248.1l5.9 13 62-29.3L37.8 271z"/><path fill="#f4edd7" fill-opacity=".5" d="M145.5 97.8l-19.9 16.1 9.5 20.1 2.2-29.5z"/><path fill="#b3bbc1" fill-opacity=".5" d="M89.3 230.1L51.1 235l7-32 19.5 15.6z"/><path fill="#e4ded2" fill-opacity=".5" d="M55 105h15v30H55z"/><circle r="1" fill="#413234" fill-opacity=".5" transform="matrix(8.06876 5.3794 -3.38178 5.07246 124 255)"/><path fill="#8f805e" fill-opacity=".5" d="M139.1 95.4l-2.7 6.8-11.8 4.3 4.5-7.7z"/><ellipse cx="30" cy="134" fill="#513115" fill-opacity=".5" rx="9" ry="1"/><path fill="#223d41" fill-opacity=".5" d="M106.6 225.2l-6-1.4-9.1-.5 1.7-11z"/><path fill="#212935" fill-opacity=".5" d="M71 85h2v47h-2z"/><path fill="#2c2322" fill-opacity=".5" d="M137 211l-10-11-4 18z"/><path fill="#35211f" fill-opacity=".5" d="M129 166l9-15v33z"/><ellipse cx="149" cy="219" fill="#cfdae9" fill-opacity=".5" rx="11" ry="87"/><path fill="#e9e6dc" fill-opacity=".5" d="M-15 167l12.9 1.6 61.5 18.9-73.9 77z"/><path fill="#aab4bd" fill-opacity=".5" d="M120.6 201.5l60.1-46.1-54.9 45.1-7.9 17.1z"/><ellipse cx="138" cy="166" fill="#435159" fill-opacity=".5" rx="1" ry="103"/><path fill="#819bbb" fill-opacity=".5" d="M58.9 169.5l42.2 16.8 3.3-16.3-39-14.9z"/><path fill="#17120c" fill-opacity=".5" d="M18 142h20v2H18z"/><path fill="#7d6490" fill-opacity=".5" d="M93 166l-34-24 43 14z"/><path fill="#171c24" fill-opacity=".5" d="M106.5 196.4l27.2-10.6-31.8-6.6 13.6-5.7z"/><path fill="#827051" fill-opacity=".5" d="M31 85H14l19 18z"/><path fill="#3c4851" fill-opacity=".5" d="M93 129h8v13h-8z"/><path fill="#93a7bf" fill-opacity=".5" d="M106.3 189.7l-51.9-25.6 59 19.4-18.8 14z"/><path fill="#9b9ca1" fill-opacity=".5" d="M115.3 247.9l-13.6-15.7 1.7 20.6 13.1 6.4z"/><path fill="#c5c1b6" fill-opacity=".5" d="M115.5 94l15.2 1.3 7.1-20.5-107-.1z"/><path fill="#e2e1de" fill-opacity=".5" d="M57 161l-2-18 9 10z"/><path fill="#303636" fill-opacity=".5" d="M96 90h5v17h-5z"/><circle r="1" fill="#4d4450" fill-opacity=".5" transform="matrix(12.64135 9.60876 -1.04333 1.37262 69.5 248.3)"/><path fill="#dbe4ed" fill-opacity=".5" d="M102 201l2-3-12-4z"/><path fill="#a59d77" fill-opacity=".5" d="M48 79l6 29-15-4z"/><path fill="#959497" fill-opacity=".5" d="M127.5 164.8l19.1-1.7-28.9 6.6-89.1 46.4z"/></g></g></svg>