<svg xmlns="http://www.w3.org/2000/svg" viewBox="0 0 1200 800"><defs/><filter id="prefix__a"><feGaussianBlur stdDeviation="12"/></filter><rect width="100%" height="100%" fill="#3d332f"/><g filter="url(#prefix__a)"><g transform="translate(2.3 2.3) scale(4.6875)"><circle r="1" fill="#fff" fill-opacity=".5" transform="rotate(-103.3 104.2 18) scale(255 135.69821)"/><ellipse cx="105" fill="#e4dfcd" fill-opacity=".5" rx="150" ry="60"/><circle r="1" fill="#790800" fill-opacity=".5" transform="matrix(-6.44457 -56.56324 16.67274 -1.89962 230.6 73.8)"/><circle cx="104" cy="140" r="114" fill="#d7d6c6" fill-opacity=".5"/><ellipse cx="250" cy="117" fill="#9e5a3f" fill-opacity=".5" rx="38" ry="72"/><path fill-opacity=".5" d="M269 22l-57 5 2 31z"/><path fill="#bfb7ae" fill-opacity=".5" d="M255.4-6.8l3 28.8-45.8 4.8-3-28.8z"/><ellipse cx="132" cy="144" fill="#837e73" fill-opacity=".5" rx="44" ry="12"/><path fill="#dbf1e1" fill-opacity=".5" d="M237 103h19v14h-19z"/><path fill="#617e97" fill-opacity=".5" d="M129 74h37v31h-37z"/><path fill="#e8e4d9" fill-opacity=".5" d="M213.2 49.4l1.6 95-14 .2-1.6-95z"/><circle r="1" fill="#ecece2" fill-opacity=".5" transform="rotate(-139.7 21.5 57.2) scale(27.16244 36.03043)"/><path fill="#5a140b" fill-opacity=".5" d="M102 111l-6 14-15-1z"/><path fill-opacity=".5" d="M6 50l13 24-4-25z"/><path fill="#edeadc" fill-opacity=".5" d="M77.1 104.3l11.1-17.8 46.7 29.2-11.1 17.8z"/><path fill="#9b271a" fill-opacity=".5" d="M259 43.7l-3 54.9-43-2.3 3-54.9z"/><ellipse cx="244" cy="138" fill="#727866" fill-opacity=".5" rx="32" ry="24"/><ellipse cx="100" cy="165" fill="#d8d9d1" fill-opacity=".5" rx="52" ry="15"/><path fill="#c6ecff" fill-opacity=".5" d="M163 77h20v20h-20z"/><ellipse cx="173" cy="117" fill="#595341" fill-opacity=".5" rx="10" ry="5"/><path fill="#78797a" fill-opacity=".5" d="M91.1 140.4l-54.9 1.9 33.1 7.3 112.9.8z"/><path fill="#645549" fill-opacity=".5" d="M172.4 106.9l-42.6-9.5-2 9.5 23.9-2.3z"/><path fill="#deddd4" fill-opacity=".5" d="M183 128l46 24-73-8z"/><path fill="#818678" fill-opacity=".5" d="M10.1 108.5l14.3-5.3L-16 86.7 9.9 96.9z"/><ellipse cx="120" cy="48" fill="#beb8ab" fill-opacity=".5" rx="93" ry="28"/><path fill="#f0f7fe" fill-opacity=".5" d="M134.4 113.7l.2-8 39 .6-.2 8z"/><path fill="#566579" fill-opacity=".5" d="M191 66h4v55h-4z"/><path fill="#938966" fill-opacity=".5" d="M105.9 53.3l5.6 44.5 7.2-35.5 10.7 19.4z"/><path fill="#a8a896" fill-opacity=".5" d="M237 125.1l31.4 11.2 2.6 21.3-40.5-23.2z"/><path fill="#a59c8d" fill-opacity=".5" d="M197 11h16v46h-16z"/><path fill="#5f1b14" fill-opacity=".5" d="M87.3 115.5l12.8 2-1.4 9-12.8-2z"/><path fill="#722b1f" fill-opacity=".5" d="M246.7 165.4l-17.2-25.5 13.7 9.7 27.3 26z"/><path fill="#e9e3cf" fill-opacity=".5" d="M167.4 119l.6 6-113.4 12-.6-6z"/><path fill="#fffbe0" fill-opacity=".5" d="M113 95l8-22 7 37z"/><path fill="#190a04" fill-opacity=".5" d="M214 27h42v16h-42z"/><path fill="#4e372c" fill-opacity=".5" d="M228 98l-4 44 16-41z"/><path fill="#626367" fill-opacity=".5" d="M164 159l-36-15 36 2z"/><ellipse cx="205" cy="120" fill="#423f32" fill-opacity=".5" rx="1" ry="19"/><path fill="#314023" fill-opacity=".5" d="M20.6 82.3l-.3-5.2L10 49.5l4.4 23z"/><ellipse cx="150" cy="88" fill="#3f423f" fill-opacity=".5" rx="2" ry="16"/><path fill="#2a2516" fill-opacity=".5" d="M161 74h2v26h-2z"/><path fill="#9b9e85" fill-opacity=".5" d="M57.5 113.5l-46.2 22.8L31 139l25.8-16.4z"/><path fill="#082511" fill-opacity=".5" d="M232 156l17 29h13z"/><path fill="#d7d3bf" fill-opacity=".5" d="M255 102l-6 14-17-2z"/><path fill="#d9dcde" fill-opacity=".5" d="M207 40h6v124h-6z"/><path fill="#b8a680" fill-opacity=".5" d="M93 129h71v13H93z"/><path fill="#e3e2d6" fill-opacity=".5" d="M77 107h7v29h-7z"/><path fill="#a23f31" fill-opacity=".5" d="M214 66h42v36h-42z"/><circle r="1" fill="#cbc8bf" fill-opacity=".5" transform="matrix(1.4331 16.51287 -39.7154 3.44677 41.4 37.5)"/><path fill="#7a0b04" fill-opacity=".5" d="M214.8 146.5h-1l1.4-41h1z"/><path fill="#492d4b" fill-opacity=".5" d="M271 138l-25-13 9-19z"/><path fill="#cbc7be" fill-opacity=".5" d="M100-16L53 93l44-1z"/><path fill="#ccca9e" fill-opacity=".5" d="M-1.3 74L-11 42.4 3.3 38 13 69.6z"/><path fill="#2c4301" fill-opacity=".5" d="M11 82L4 68l7 6z"/><path fill="#a6a078" fill-opacity=".5" d="M216 103h8v56h-8z"/><path fill="#a9c1d3" fill-opacity=".5" d="M148 103V76l-17 14z"/><path fill="#000f02" fill-opacity=".5" d="M18.2 103l-.5.9L7.8 99l.5-.9z"/><circle r="1" fill="#651e1b" fill-opacity=".5" transform="matrix(-.46323 -9.47136 32.29609 -1.57954 245 49.8)"/><path fill="#563f32" fill-opacity=".5" d="M134 99h13v6h-13z"/><path fill="#e0ded8" fill-opacity=".5" d="M0 104h17v46H0z"/><path fill="#e8c797" fill-opacity=".5" d="M44.9 120.4l-24 7.3 9.9-16.8 16.3-.9z"/><path fill="#9a9289" fill-opacity=".5" d="M267-11l-60 38 64-10z"/><path fill="#7a7050" fill-opacity=".5" d="M204.2 44l-5.7 7.6 7.5-22.3.3 34.1z"/><path fill="#9d896b" fill-opacity=".5" d="M81.4 100L69 99l6.7 23.1 1.4-14.1z"/><path fill="#ede8dd" fill-opacity=".5" d="M29 99l-45-6 41-16z"/><path fill="#b5ab99" fill-opacity=".5" d="M178.2 110.9l-55.8 4.5-4.6 6.5 43.9 2.3z"/><path fill="#6d6051" fill-opacity=".5" d="M141 102l-13-3v12z"/><path fill="#66798e" fill-opacity=".5" d="M154.9 97.4L171 106l10.5-9.3h-30.6z"/><ellipse cx="204" cy="169" fill="#c8c4b8" fill-opacity=".5" rx="17" ry="21"/><path fill="#e1e2db" fill-opacity=".5" d="M105.6 116.7l-17.3-2.2-8.5 1.3 14-31.9z"/><path fill="#acc5dd" fill-opacity=".5" d="M152 79h9v25h-9z"/><circle r="1" fill="#d1ccc1" fill-opacity=".5" transform="matrix(-66.5998 17.72084 -1.12838 -4.24076 20.8 143.9)"/><path fill="#9c9173" fill-opacity=".5" d="M17 122h48v3H17z"/><ellipse cx="177" cy="107" fill="#f7fdff" fill-opacity=".5" rx="13" ry="2"/><path fill="#cca993" fill-opacity=".5" d="M250 171l-26-26 14 5z"/><path fill="#814f3f" fill-opacity=".5" d="M251.4 172.4l19.6 7.2-3.6-9-49.3-38z"/><path fill="#a19a7c" fill-opacity=".5" d="M255.3 185l-27.5-19.3-19.4-26.8 27.7 23.7z"/><path fill="#39434e" fill-opacity=".5" d="M150 83h7v4h-7z"/><circle r="1" fill="#bab0a7" fill-opacity=".5" transform="matrix(-3.38613 -14.5954 28.59844 -6.63483 207 10.9)"/><circle r="1" fill="#4a503d" fill-opacity=".5" transform="matrix(-1.53698 2.21069 -18.09602 -12.58123 252.8 150.8)"/><path fill="#eee6d0" fill-opacity=".5" d="M199 66h6v39h-6z"/><path fill="#cbd9c5" fill-opacity=".5" d="M224.7 145l23.3 23.3-.7.7-23.3-23.3z"/><path fill="#ada894" fill-opacity=".5" d="M109.7 54.9l26.5 21.7-10.1.5 17.4 42.8z"/><ellipse cx="130" cy="80" fill="#c7ced7" fill-opacity=".5" rx="2" ry="14"/><path fill="#b8b3a4" fill-opacity=".5" d="M12 44l40 75 10-64z"/><path fill="#b8b19c" fill-opacity=".5" d="M115 113l-9-63-8 45z"/><path fill="#4a4535" fill-opacity=".5" d="M173 116h8v6h-8z"/><path fill="#dad8cd" fill-opacity=".5" d="M225.5 185l-27.9-61.1-18.8 16.5 39.5 20.6z"/><path fill="none" stroke="#495559" stroke-opacity=".5" stroke-width=".5" d="M136.7 77.5q21-2.2 45.8-2.9"/><path fill="#1e4d34" fill-opacity=".5" d="M9 72l-25 9v9z"/><path fill="#526147" fill-opacity=".5" d="M221.9 160.4l-.8-.9L246 185l-24.6-17.6z"/><path fill="#c3c5c3" fill-opacity=".5" d="M87 139h31v3H87z"/><ellipse cx="78" cy="144" fill="#727271" fill-opacity=".5" rx="15" ry="3"/><path fill="#adaca6" fill-opacity=".5" d="M148.9 153L43.1 142.4l-22 11.7 55.1.3z"/><path fill="#9a8e75" fill-opacity=".5" d="M118 136l41-8 3 13z"/><path fill="#c9c7c2" fill-opacity=".5" d="M135.5 74.5v-9h29v9z"/><path fill="#53616b" fill-opacity=".5" d="M165.4 99l-17-1 .2-3 17 1z"/><path fill="#b3c9d5" fill-opacity=".5" d="M130 77h31v5h-31z"/><path fill="#2b3d2d" fill-opacity=".5" d="M8 101h14v2H8z"/><path fill="#8e8261" fill-opacity=".5" d="M115.2 74l13.2-2.1-18.2-8.2 1.4 19.7z"/></g></g></svg>