<svg xmlns="http://www.w3.org/2000/svg" viewBox="0 0 933 1400"><defs/><filter id="a"><feGaussianBlur stdDeviation="12"/></filter><rect width="100%" height="100%" fill="#444548"/><g filter="url(#a)"><g fill-opacity=".5" transform="translate(2.7 2.7) scale(5.46875)"><circle r="1" fill="#fffff6" transform="matrix(100.2441 -125.41437 121.34773 96.99363 91.3 107.4)"/><circle r="1" fill="#fffbd6" transform="rotate(-31.6 236.8 59.5) scale(54.73904 96.65121)"/><path fill="#fffef5" d="M185 147l-26 79-117-36z"/><circle cx="91" cy="131" r="44" fill="#815834"/><circle r="1" fill="#dfdbcb" transform="matrix(22.52825 -37.41015 106.843 64.34045 84.5 21)"/><circle r="1" fill="#8c7445" transform="matrix(-.27157 33.22557 -108.24553 -.88476 65.8 246.2)"/><circle r="1" fill="#756533" transform="matrix(47.18454 30.8767 -6.90467 10.55144 46.5 68.1)"/><path fill="#f2bf8b" d="M44 102h61v35H44z"/><path fill="#473b39" d="M95.9 176.3l58.4-32.2-77.5-6.1-.4 34.7z"/><ellipse cx="156" cy="109" fill="#94c9f2" rx="27" ry="33"/><circle r="1" fill="#c8d1ba" transform="rotate(154.9 14 83.4) scale(14.34733 32.25124)"/><path fill="#150000" d="M150 142h20v10h-20z"/><path fill="#e6eef5" d="M123 153h47v41h-47z"/><ellipse cx="119" cy="116" fill="#425d70" rx="11" ry="28"/><path fill="#eceef9" d="M75.2 169.4l6.5 17.8L.8 216.6l-6.5-17.8z"/><ellipse cx="144" cy="213" fill="#bdad8b" rx="134" ry="15"/><path fill="#370c05" d="M75 82l33 8 5 18z"/><circle r="1" fill="#f8f6e5" transform="matrix(-14.86354 19.5112 -31.75087 -24.18768 0 89.4)"/><path fill="#f0f1f5" d="M131 78h9v60h-9z"/><path fill="#120a00" d="M83 146h12v28H83z"/><circle r="1" fill="#8d8c6d" transform="matrix(2.86488 40.8104 -16.59755 1.16514 61.2 91)"/><ellipse cx="97" cy="255" fill="#7e745d" rx="165" ry="19"/><ellipse cx="142" cy="73" fill="#d0cdcb" rx="71" ry="18"/><path fill="#5e8fb2" d="M143 90h16v48h-16z"/><ellipse cx="92" cy="116" fill="#ffa874" rx="14" ry="20"/><path fill="#370a04" d="M75 83h10v16H75z"/><path fill="#878e94" d="M121 129h14v41h-14z"/><ellipse cx="23" cy="160" fill="#c4bfa5" rx="58" ry="22"/><path fill="#b7b1a3" d="M180 38.5L24.7 5.5l9.3-44 155.5 33z"/><path fill="#4d4f4c" d="M123.2 105.8l-.2-1 49.8-10.6.2 1z"/><path fill="#75919b" d="M116 89h15v27h-15z"/><circle r="1" fill="#baac90" transform="matrix(-2.04494 -8.9748 38.11188 -8.68392 35.1 217.4)"/><path fill="#63644a" d="M7.5 23.3L39.8-8l.7.7L8.2 24z"/><ellipse cx="154" cy="108" fill="#b2d1e5" rx="13" ry="9"/><circle r="1" fill="#e0e5e7" transform="rotate(119.4 31.4 140.2) scale(22.81435 41.64083)"/><path fill="#6c4938" d="M102.3 90.5l15.8 79.2-4-78-13.6 15.9z"/><circle r="1" fill="#babca0" transform="matrix(15.24151 -3.98756 8.28947 31.68456 58.4 138.9)"/><path fill="#8c8564" d="M60 107L0 32l79 30z"/><path fill="#3f596c" d="M124 89h6v46h-6z"/><path fill="#8b563d" d="M120.6 135l-15.4 2.9-31.3 20.6 2.9-25.2z"/><ellipse cx="134" cy="98" fill="#dee4e9" rx="5" ry="15"/><path fill="#c8c2b4" d="M100.6 214.2l9.6-43.8-26.2 6.1 73.1 25.9z"/><ellipse cx="86" cy="228" fill="#9e8c6e" rx="36" ry="18"/><path fill="#b0c9e6" d="M142 138h7v20h-7z"/><path fill="#beb98e" d="M9.8 54l9.7 4.4 17.3 17.4 21.5 44.4z"/><path fill="#35332d" d="M74.5 171.4l22.9 1.6-12.8-15.2-8.7 10.2z"/><ellipse cx="78" cy="186" fill="#d2d3d2" rx="23" ry="14"/><circle cx="86" cy="69" r="15" fill="#bbb3ad"/><path fill="#e7e9e8" d="M-16 224v-29l95-14z"/><path fill="#c3bfae" d="M28 43.2l46.4 17.6L45.7-16 3.5 32.4z"/><path fill="#7a7763" d="M-15 249l57-22 11 44z"/><circle r="1" fill="#c8c2bc" transform="matrix(-.42053 -22.01709 26.37713 -.5038 112.8 69.3)"/><path fill="#2d617e" d="M150 119h5v14h-5z"/><path fill="#996850" d="M89.3 99.7l-18.2 5.4 19.4-15.8 19.7 20.3z"/><circle cx="92" cy="110" r="8" fill="#ffc89c"/><ellipse cx="77" cy="117" fill="#d76731" rx="2" ry="19"/><path fill="#ced1d2" d="M98 207l57-51-80 25z"/><circle r="1" fill="#c6bea7" transform="rotate(112.8 4.3 157.3) scale(12.06428 47.30314)"/><path fill="#98a9a6" d="M127 103l-12-17v25z"/><ellipse cx="74" cy="131" fill="#d0d7d6" rx="1" ry="32"/><path fill="#2f2318" d="M109 147h12v6h-12z"/><path fill="#4b4b4e" d="M115.4 136.2l12.2-1.5-26.4-38.8 11-5.4z"/><path fill="#7d8c97" d="M136.6 139.3l25.2-.8-53.7 11.3 28-17.3z"/><circle r="1" fill="#ccd7dc" transform="rotate(-92.4 119 -39.3) scale(15.8714 17.66742)"/><path fill="#bdac8e" d="M43.1 213l47 .1-27.2-18.6-29.2 11.2z"/><ellipse cx="22" cy="125" fill="#dbd8c0" rx="28" ry="18"/><path fill="#c3b9a1" d="M2.8 228.4L-15 220l81.2-18.7L4.4 226z"/><path fill="#692023" d="M132 146h8v6h-8z"/><path fill="#574c3b" d="M149 143h21v10h-21z"/><path fill="#476980" d="M148 104h6v6h-6z"/><path fill="#ced4da" d="M121 152h36v4h-36z"/><ellipse cx="158" cy="251" fill="#85785e" rx="36" ry="19"/><path fill="#2c1f12" d="M91 146l4 13-19-7z"/><path fill="#6b5d48" d="M133 152l-13 5-3 10z"/><path fill="#bebba6" d="M-11.6 198.1l94.8-29-64 14.3-34.3-57.1z"/><circle cx="165" cy="103" r="5" fill="#dbeef1"/><path fill="#2a251c" d="M110 144l-6-6 15 2z"/><ellipse cx="159" cy="97" fill="#4b5456" rx="10" ry="2"/><path fill="#88a8c1" d="M159.1 90.7l-21.7-4.9 11.3 15.7 13.7-30.7z"/><path fill="#9b987c" d="M58 85h16v53H58z"/><circle cx="148" cy="60" r="24" fill="#cfcbc3"/><circle r="1" fill="#c3bfa4" transform="matrix(-4.7522 17.0205 -7.32732 -2.04582 6 9)"/><path fill="#c5c2ae" d="M-16 199.2l89.2-25.8 10.5-15.2-16.1-5.9z"/><circle r="1" fill="#b6b2a6" transform="matrix(-102.87919 -23.88745 2.49125 -10.72938 141.7 11.3)"/><path fill="#986351" d="M106 116h8v21h-8z"/><path fill="#afaa9d" d="M94.7 70.8L56.8 55-16 26.2l55.8 9z"/><path fill="#e59867" d="M79 119h27v17H79z"/><path fill="#b1b7b9" d="M111.7 137.5l30.4-6 .2 1-30.4 6z"/><path fill="#856350" d="M101.4 140.4l11.8 14.2-19.6 15.3-.2-36.4z"/><path fill="#d4d2c3" d="M78.8 195.1l74.2 24.1-1.8 5.7L77 200.8z"/><path fill="#848062" d="M53.1 54.8l23.1 8.7L-16 49.9l3.5-22.5z"/><ellipse cx="169" cy="137" fill="#63a1d7" rx="26" ry="3"/><path fill="#3c4040" d="M137 99h18v1h-18z"/><path fill="#72898f" d="M165 130l20-64v64z"/><path fill="#9f9981" d="M63.1 223.5l-58.7-3.6L6.8 271-16 245.4z"/><path fill="#dbeafb" d="M134 153h26v8h-26z"/><path fill="#738491" d="M141 98h1v53h-1z"/><path fill="#b9d0e5" d="M168.9 120.9l-28.3-11.8-5.5-20.4 6.1 25.3z"/><path fill="#5e6872" d="M140.8 85.5l-.6 29h-1l.6-29z"/><path fill="#4b6a7d" d="M130.4 116.2l1.1 18.2-14-8.3.8-9.5z"/></g></g></svg>