<svg xmlns="http://www.w3.org/2000/svg" viewBox="0 0 1120 1400"><defs/><filter id="a"><feGaussianBlur stdDeviation="12"/></filter><rect width="100%" height="100%" fill="#393b21"/><g filter="url(#a)"><g fill-opacity=".5" transform="translate(2.7 2.7) scale(5.46875)"><circle cx="114" cy="108" r="204" fill="#fff"/><ellipse cx="93" cy="77" fill="#fff" rx="203" ry="112"/><ellipse cx="129" cy="237" fill="#254866" rx="102" ry="31"/><path fill="#5d612b" d="M94.4 105l8.6 54.3-49.4 7.8-8.6-54.4z"/><circle r="1" fill="#fff" transform="matrix(136.96835 149.8288 -66.85983 61.12095 185 54.4)"/><path fill="#9d7241" d="M95.5 227.3L110 164l98.4 22.7L194 250z"/><ellipse cx="11" cy="70" fill="#faffff" rx="29" ry="114"/><circle r="1" fill="#efb779" transform="matrix(-34.03147 69.861 -21.93866 -10.687 21.5 202.6)"/><circle r="1" fill="#5b9261" transform="matrix(-25.15106 27.44757 -6.5681 -6.01856 83.5 85.3)"/><path fill="#030000" d="M79 214l-29-23 4 35z"/><circle r="1" fill="#2a8cd8" transform="matrix(-45.73171 4.44034 -2.08596 -21.48366 67.3 248.2)"/><circle r="1" fill="#beb89f" transform="matrix(27.91387 25.98652 -28.3389 30.44072 99.7 176.7)"/><ellipse cy="191" fill="#bf6a03" rx="80" ry="8"/><circle r="1" fill="#322e35" transform="matrix(-28.15697 -9.14875 4.26166 -13.11605 153.1 223.9)"/><ellipse cx="11" cy="232" fill="#ffead3" rx="13" ry="31"/><ellipse cx="194" cy="191" fill="#ab4800" rx="35" ry="9"/><path fill="#ffff94" d="M187 234h17v13h-17z"/><circle cx="150" cy="15" r="62" fill="#fcfefd"/><circle r="1" fill="#ffc568" transform="matrix(-27.97102 2.0034 -.43488 -6.07174 181.9 206.4)"/><path fill="#1c663d" d="M72 105h14v35H72z"/><ellipse cx="49" cy="70" fill="#ecf6f1" rx="30" ry="27"/><ellipse cx="72" cy="153" fill="#c3906f" rx="50" ry="13"/><path fill="#e1e3dc" d="M157 183l62-4L82 81z"/><circle r="1" fill="#8bc3ac" transform="matrix(-9.31767 7.15164 -13.1626 -17.14916 42.2 127.5)"/><circle r="1" fill="#4076ad" transform="matrix(-1.04912 8.4371 -29.55225 -3.67472 183.7 220.8)"/><circle r="1" fill="#e0e3d5" transform="matrix(-6.4923 23.0971 -8.27698 -2.32655 87.7 201.3)"/><circle r="1" fill="#b49351" transform="rotate(84.4 -19.2 159.5) scale(25.73966 4.84961)"/><path fill="#943a1b" d="M173 194l-64 12 29 15z"/><path fill="#739969" d="M117.7 65.2l.6 7-45.5 7.1 25.8-19z"/><path fill="#94b39d" d="M99 131h19v101H99z"/><path fill="#d2e4f1" d="M0 155h38v28H0z"/><path fill="#223b5a" d="M182 271H86l119.6-20.3-80-12.3z"/><path fill="#dcc7bc" d="M105.7 229.5l-75-68.9-3.2-42.9-6.5 52.2z"/><path fill="#c0c185" d="M91.8 241.8l-16.2 8.6 14.5-1.7 28.3-3.4z"/><path fill="#fafdfe" d="M0 0h89v22H0z"/><path fill="#220c00" d="M59 211h17v16H59z"/><path fill="#e5eeeb" d="M105.5 89l-2.2 20.9-26.8-2.9 2.2-20.9z"/><path fill="#0d5314" d="M86 76L74 98l5-27z"/><circle r="1" fill="#cee3e2" transform="matrix(-6.27405 6.97809 -18.48423 -16.6193 77.6 173.8)"/><path fill="#99c1a1" d="M41.4 39.6L19.2 18l38.7 8.1-4.6 35.5z"/><path fill="#357ab0" d="M-14.5 271l30.2-8.7 29.4-51.9L74 248.1z"/><path fill="#cf9e78" d="M177.9 189.4l-93 12.9 12.6 23.3-17-6.1z"/><circle r="1" fill="#ffecc1" transform="matrix(-.32136 .94696 -31.08484 -10.549 69.8 255)"/><path fill="#f1f9fa" d="M91 123h37v8H91z"/><path fill="#206135" d="M48 112l17 3-3 20z"/><ellipse cx="185" cy="241" fill="#dab620" rx="16" ry="5"/><path fill="#937119" d="M24 149h2v93h-2z"/><path fill="#f2f3f5" d="M0 59h54v52H0z"/><path fill="#bce6df" d="M65 120h9v18h-9z"/><path fill="#33363f" d="M135 223h57v13h-57z"/><path fill="#a7603b" d="M113.5 165.7l-20.7-5.1-38-17.6-8.8 9.2z"/><path fill="#95b8ad" d="M136 155l11 43-65-25z"/><path fill="#2d5fad" d="M111 211l-20 6 29 7z"/><path fill="#f3dfa7" d="M143.4 249.1l33.7 21.9-55.6-20.1 22.1 20.1z"/><path fill="#dfc199" d="M22.1 238.5l3.6-40.5-41.7 8.1 74.5 46.7z"/><path fill="#5c7b60" d="M112 186l9 8 13-28z"/><path fill="#f5b665" d="M160 198h44v14h-44z"/><path fill="#b95c00" d="M0 186h23v11H0z"/><path fill="#170000" d="M84 197l-4-5-12-1z"/><path fill="#dad0c1" d="M106.6 178.2l11.4 19-68.6-1.3 58.1 9.5z"/><path fill="#5a8f3b" d="M88 130l12 8 16-5z"/><path fill="#4d9f5e" d="M40 147l-7-25 12 19z"/><path fill="#ffd280" d="M116 203h2v53h-2z"/><path fill="#cbd5c8" d="M100.9 94.9L87.1 76.7l12-7.1 18.6 2z"/><path fill="#4e3e29" d="M155 203l-35 11 33 20z"/><path fill="#906533" d="M150.1 173.7l8.9 30.7-22.8-27.9 16.7-7.5z"/><path fill="#d7e7f0" d="M196.7-1.9l18.4 208.8-24.4 17.9 28.3-2.7z"/><path fill="#d8baa5" d="M154.6 198.6l5.5-41v30.2l23.4 3z"/><path fill="#ece2a9" d="M147 236h21v2h-21z"/><path fill="#f6eac5" d="M137 157.7l-27.1 7.2-2.8-10.6 27-7.2z"/><path fill="#bb826a" d="M58.8 151.7l-1.6 36.4-4-15.6-31.3-28.6z"/><circle r="1" fill="#e7d5ba" transform="matrix(.11359 -.99353 29.06742 3.32323 51 195)"/><path fill="#78bf77" d="M26 22L5 42l6-13z"/><path fill="#743000" d="M178.7 186l18-1 .6 11-18 1z"/><path fill="#cfe4db" d="M56 129l-13-3-4 31z"/><path fill="#75a176" d="M52.3 48.5l14.4 90.9-1 .1-14.4-90.9z"/><path fill="#236eb3" d="M210.8 241l-67.2 30h54.6l4.3-11z"/><path fill="#d8f4fc" d="M88 133l5 11 13 1z"/><path fill="#2e649a" d="M113 250l-35-33 39 16z"/><circle r="1" fill="#5f7925" transform="matrix(-.99211 -.12533 4.5915 -36.34547 29.2 204.2)"/><circle r="1" fill="#905535" transform="matrix(59.4824 -14.83063 .24192 .9703 80 220)"/><path fill="#bfcb9d" d="M134 236l-22-16H85z"/><path fill="#4e7b48" d="M108.8 56.9l-6.8 2.2-23 20.3-3.7 8.5z"/><path fill="#3c6944" d="M73 87h3v43h-3z"/><ellipse cx="153" cy="241" fill="#483c21" rx="13" ry="4"/><path fill="#a8c2a6" d="M62.8 26.3l5.8 20.2 7.2 4.7 36 52.2z"/><ellipse cx="180" cy="154" fill="#dce0df" rx="38" ry="29"/><path fill="#1966a4" d="M30 238l50 33H10z"/><circle r="1" fill="#d4d3cd" transform="matrix(-26.31126 -10.60295 .4872 -1.20898 123.4 181.8)"/><path fill="#ffe3a6" d="M192.3 248l-2.4-5.5 23.8-10.5 2.4 5.5z"/><path fill="#fffa52" d="M83.2 247.9l15.3-4.7.3 1-15.3 4.6z"/><path fill="#e5f0e8" d="M68 112L41 93l21 7z"/><path fill="#769359" d="M37.1 151.4L34.7 165l2.7 1.4 4.6-30.2z"/><path fill="#dbd2bf" d="M-16 208l66.1 40.6 94.6 22.4-89.3-17.9z"/><circle r="1" fill="#c0ac5f" transform="matrix(-.61483 -3.7961 12.87036 -2.08454 122.2 255)"/><path fill="#b99c8c" d="M66 169h10v22H66z"/><path fill="#a37e3c" d="M139 137h4v30h-4z"/><circle r="1" fill="#eff1ef" transform="matrix(43.69736 15.17864 -12.1459 34.96647 161.6 70.4)"/><path fill="#e29f33" d="M178 210h2v25h-2z"/><path fill="#f3ba75" d="M33.5 216L30 202.6l18.4-4.6 3.4 13.6z"/></g></g></svg>