<svg xmlns="http://www.w3.org/2000/svg" viewBox="0 0 1400 933"><defs/><filter id="a"><feGaussianBlur stdDeviation="12"/></filter><rect width="100%" height="100%" fill="#6a3938"/><g filter="url(#a)"><g fill-opacity=".5" transform="translate(2.7 2.7) scale(5.46875)"><circle r="1" fill="#e4fff1" transform="matrix(132.66667 89.63247 -53.7233 79.51686 96 119.5)"/><circle r="1" fill="#fff" transform="matrix(24.83173 2.9152 -5.27101 44.8987 251.5 66.6)"/><circle r="1" fill="azure" transform="rotate(77.7 -31.3 44.5) scale(71.5821 59.87813)"/><circle r="1" fill="#1b1617" transform="matrix(-.3571 16.14317 -78.8767 -1.74482 151.6 105.5)"/><ellipse cx="106" cy="15" fill="#00181b" rx="49" ry="18"/><ellipse cx="176" cy="61" fill="#e6ffff" rx="15" ry="30"/><path fill="#3c2800" d="M150.1 55.2l5.3 33.6-37.5 6-5.3-33.6z"/><path fill="#fff" d="M229 40h27v43h-27z"/><circle r="1" fill="#4b595c" transform="matrix(-58.91167 -32.19564 14.78836 -27.05978 226 125)"/><path fill="#b4d1d1" d="M171.8 46.8l-106 29.1 53.5-43.6L271 33.5z"/><ellipse cx="192" cy="10" fill="#02312f" rx="69" ry="23"/><path fill="#695234" d="M28 89h20v36H28z"/><ellipse cx="111" cy="138" fill="#dab183" rx="91" ry="25"/><path fill="#fff" d="M29 0h22v88H29zM0 30h14v96H0z"/><ellipse cx="209" cy="70" fill="#355857" rx="20" ry="38"/><path fill="#020000" d="M180 93h16v34h-16z"/><path fill="#ede3da" d="M41.2 127.4L55 104.3l43.7 26.3L85 153.7z"/><path fill="#fbe6b2" d="M119 86h10v21h-10z"/><circle r="1" fill="#282e2f" transform="rotate(-151.1 46 -7.3) scale(34.90942 19.4413)"/><ellipse cx="158" cy="142" fill="#a98a6b" rx="36" ry="29"/><circle r="1" fill="#72828a" transform="matrix(9.55421 -5.14681 12.87167 23.89413 13 9.2)"/><path fill="#e0f8ff" d="M182 32h8v63h-8z"/><path fill="#fff" d="M211 57h7v16h-7z"/><circle r="1" fill="#a5afb2" transform="matrix(11.52542 -4.03245 12.66725 36.20513 62.9 35.3)"/><circle r="1" fill="#f1f4fb" transform="matrix(-23.29215 -33.71415 11.29226 -7.8015 0 167.8)"/><circle r="1" fill="#b59061" transform="matrix(46.62603 22.57259 -5.11126 10.55784 223.3 159)"/><path fill="#a16e52" d="M11 126l63 29-46 10z"/><circle r="1" fill="#fff" transform="rotate(113.7 101.5 112.5) scale(22.77203 9.9062)"/><ellipse cx="255" cy="109" fill="#6c788d" rx="24" ry="28"/><ellipse cx="120" cy="111" fill="#1a1c27" rx="57" ry="4"/><ellipse cx="139" cy="93" fill="#040400" rx="8" ry="13"/><path fill="#605d3f" d="M139 50h26v23h-26z"/><ellipse cx="207" cy="36" fill="#070200" rx="4" ry="49"/><path fill="#b4afb4" d="M151 68h20v39h-20z"/><path d="M209 110.3l-1-13 23-1.6 1 13z"/><ellipse cx="131" cy="6" fill="#38393a" rx="70" ry="27"/><path fill="#e5decc" d="M86 43h13v54H86z"/><circle r="1" fill="#d7bb9e" transform="rotate(63.2 -78.3 154.6) scale(21.96866 42.15526)"/><path fill="#d2e6f7" d="M165 42.5h16v43h-16z"/><path fill="#9e908e" d="M218 82l-20-2 6 38z"/><path fill="#a0c4bc" d="M260 17l-35 17 7 27z"/><path d="M112 66h17v6h-17z"/><path fill="#040500" d="M218.9 76.5l-9.1 9.7-11.9-9 12.2-9.8z"/><ellipse cx="84" cy="47" fill="#00030a" rx="1" ry="39"/><path fill="#3a474f" d="M83 58l21-3-21-4z"/><path fill="#a4b0b6" d="M86 32h118v9H86z"/><circle r="1" fill="#293745" transform="matrix(4.7645 -7.06367 21.88317 14.76038 240.5 145.4)"/><path fill="#2b2d32" d="M271 97.5l-3.7-15.8-22.7 2.8-8.7 2.4z"/><path fill="#d0b4bf" d="M268.5 93.3l-24.2 10.4-11.2-16.2-.4 26.4z"/><path fill="#fffffb" d="M33 123h11v17H33z"/><ellipse cx="49" cy="143" fill="#e2b630" rx="12" ry="10"/><path fill="#1f1b1e" d="M164 108l16-22 25 43z"/><ellipse cx="26" cy="29" fill="#7c8b90" rx="3" ry="47"/><path fill="#574842" d="M125 112l-10-29-50 26z"/><circle r="1" fill="#727387" transform="matrix(17.1706 8.97864 -6.5343 12.4961 219.1 124.7)"/><path fill="#07191c" d="M190 39h8v23h-8z"/><path fill="#fff" d="M31 0h16v80H31z"/><ellipse cx="56" cy="38" fill="#fff" rx="2" ry="36"/><path fill="#8b959a" d="M58 12h8v64h-8z"/><circle cx="19" cy="141" r="16" fill="#b0799a"/><ellipse cx="6" cy="97" fill="#fcffff" rx="15" ry="28"/><path fill="#a0977c" d="M120 73l-34-4 55 40z"/><path fill="#764f1d" d="M126 55h21v31h-21z"/><path fill="#efffff" d="M237 44h19v39h-19z"/><path fill="#393f3d" d="M76 40h84v2H76z"/><path d="M0 134l4 11-8-1z"/><path fill="#20201f" d="M58 0l25 33 17-6z"/><path fill="#f6ffff" d="M183 74h8v20h-8z"/><path fill="#c2d5e3" d="M41 72h42v26H41z"/><path fill="#391f26" d="M166 86l-5 22-11 5z"/><path fill="#a68979" d="M96.3 84.2l-11.9 10 30.3 10.4-6.1-12.2z"/><circle r="1" fill="#282d31" transform="matrix(-.72732 2.74567 -37.0855 -9.82387 255 119.2)"/><path fill="#06171c" d="M225 42h3v47h-3z"/><path fill="#a08466" d="M234 185l-58-68 95 55z"/><path fill="#363029" d="M181.9 92.1l3.5 17.7 24.2-25.1 19 18z"/><circle r="1" fill="#c5c4c7" transform="matrix(-2.39548 15.76793 -13.14918 -1.99764 117.6 48.5)"/><path fill="#6b4c28" d="M37 100l1 22 8-8z"/><ellipse cx="163" cy="70" fill="#080f0c" rx="1" ry="30"/><path fill="#a1a9a8" d="M66.2 28.4l4.5 42.1 14.7-35.4-20.1-21z"/><path fill="#fff" d="M86 58h17v8H86z"/><ellipse cx="20" cy="125" fill="#fff" rx="33" ry="2"/><path fill="#252b27" d="M85 71h23v2H85z"/><path fill="#ab835d" d="M125 178l21-54 31 54z"/><path fill="#040816" d="M143 86h16v4h-16z"/><path fill="#c8d9e8" d="M60.1 85l4.2 34.1 8.3-37.2 2.6 33.8z"/><path fill="#cddcbc" d="M155.5 85.1l7.7 2.2-.8-35.6-6.8 8.9z"/><path fill="#9ba1a9" d="M177.1 108.2l-15.9-38.3 5.1 34.2 13.7-8.9z"/><path fill="#dde0e7" d="M12 136.9L5.2 149l-1.6 36-19.6-22.5z"/><path fill="#a7aea9" d="M212 34h38v7h-38z"/><path fill="#7c848c" d="M68 35h2v69h-2z"/><path fill="#b29f8e" d="M116 115h57v27h-57z"/><path fill="#393437" d="M84.9 108.7l-14-11.8 9.7-.9 32.4 11.6z"/><path fill="#44494e" d="M190 51l19 6-17 39z"/><path fill="#a6adba" d="M205.8 82.9l-6.9 19.8-4.7-1.6 6.9-19.8z"/><path fill="#a9aba5" d="M224 95l-3-14h-11z"/><ellipse cx="231" cy="84" fill="#dbf5fd" rx="3" ry="11"/><path fill="#735729" d="M58 151.2l-14.3 9.3-20.5-.4 44.7-7.2z"/><circle r="1" fill="#3b3c3c" transform="matrix(7.21533 -17.88719 52.62561 21.2281 103.6 5)"/><path fill="#d4dbe0" d="M86 42h53v8H86z"/></g></g></svg>