<svg xmlns="http://www.w3.org/2000/svg" viewBox="0 0 1121 1400"><defs/><filter id="a"><feGaussianBlur stdDeviation="12"/></filter><rect width="100%" height="100%" fill="#343e55"/><g filter="url(#a)"><g fill-opacity=".5" transform="translate(2.7 2.7) scale(5.46875)"><ellipse cx="119" cy="92" fill="#e9e1c8" rx="126" ry="227"/><circle r="1" fill="#dee3ed" transform="matrix(100.98694 9.09256 -6.93957 77.07464 122.7 245.4)"/><circle r="1" fill="#2e3d3d" transform="rotate(-27.4 336.8 -342.7) scale(32.20985 88.80121)"/><circle r="1" fill="#543222" transform="matrix(-29.90916 39.93895 -24.07115 -18.0262 18.7 103.4)"/><ellipse cx="34" cy="35" fill="#fff" rx="47" ry="11"/><circle r="1" fill="#4c321d" transform="matrix(-14.20344 15.34958 -35.13915 -32.51533 92.7 21.8)"/><circle r="1" fill="#456683" transform="matrix(-17.67887 -2.29088 9.0716 -70.00608 107 175.3)"/><circle r="1" fill="#fff" transform="matrix(5.02923 -21.5136 15.53902 3.63255 196.2 40.8)"/><ellipse cx="167" cy="186" fill="#0c2e69" rx="9" ry="35"/><circle r="1" fill="#270900" transform="rotate(2 -1343.3 4816.2) scale(13.86693 27.7947)"/><path fill="#200c0e" d="M39 213.8l-26.4 14-13.7-25.6 26.5-14z"/><circle r="1" fill="#eeeae8" transform="matrix(-21.38615 11.75714 -19.61502 -35.6796 58.6 191)"/><circle r="1" fill="#393528" transform="matrix(-6.99091 16.87755 -26.6666 -11.04567 15 7.4)"/><circle r="1" fill="#45534a" transform="rotate(-173 45.7 37.6) scale(12.41704 92.32413)"/><path fill="#fcf7f0" d="M118 198l35-51v124z"/><circle r="1" fill="#416599" transform="matrix(2.74113 -61.38508 18.30802 .81754 168.6 132.1)"/><path fill="#00000c" d="M36 130l4 22 27-14z"/><ellipse cx="142" cy="19" fill="#ebd4b3" rx="15" ry="41"/><path fill="#fff" d="M26 51h51v10H26z"/><path fill="#f4f692" d="M182 78l7 47 8-55z"/><circle r="1" fill="#355f28" transform="matrix(15.09056 31.07779 -20.51198 9.96008 200.6 161.9)"/><path fill="#e6b58d" d="M122 76l-29-4 13-58z"/><path fill="#040000" d="M80.9 56.5l7.8-39.6 15.3 27 12.4-8.9z"/><path fill="#384d47" d="M126 130h18v37h-18z"/><path fill="#bdad9b" d="M75.1 44.2L111.4-16l43.2 53-83.3-53z"/><path fill="#ded9da" d="M57 147l-4-35-25-2z"/><ellipse cx="27" cy="47" fill="#272828" rx="50" ry="3"/><path fill="#1f1c1b" d="M8.1 107L-6.8 56.8l43.5 41.4-29.5 1.6z"/><path fill="#111d2e" d="M39.6 97.5l40.8 14-25.9 9.9 7.2-7.3z"/><path fill="#fff3f5" d="M12 129l28 51-7-33z"/><circle r="1" fill="#e6dfd5" transform="matrix(1.61761 -23.45595 38.83882 2.67847 58.2 255)"/><circle r="1" fill="#4a3630" transform="rotate(168.5 -7 102.6) scale(15.49465 28.6772)"/><path d="M125.8 51.8L110 45.9l5.1-25.2 6.4 2z"/><path fill="#fff" d="M220 46.4l-33.3.6-9.6-17.4 42.5-3.3z"/><path fill="#d77a88" d="M-16 140.1l39.1 6.4-3.3 56 19.3 3.7z"/><circle r="1" fill="#f7ede2" transform="rotate(-179.8 26 18) scale(31.19444 11.0828)"/><path fill="#160508" d="M220 103.1l-9.2-25.8-13.7 87-3.8-51.5z"/><path fill="#1e2830" d="M57 9h20v17H57z"/><circle cx="103" cy="119" r="36" fill="#648077"/><ellipse cx="202" cy="49" fill="#423525" rx="50" ry="3"/><path fill="#50524e" d="M44 175l13 3-35 18z"/><path fill="#e9e9e3" d="M58.1 79.1l11.8-4.7.1 34.4-6.2-4.9z"/><path fill="#000100" d="M53 132h10v12H53z"/><circle r="1" fill="#eac9aa" transform="matrix(-10.00256 -.61854 .57425 -9.28628 32.9 60.6)"/><circle r="1" fill="#d3c7bd" transform="rotate(-117.2 139.1 79.5) scale(14.81572 45.05348)"/><path d="M213.6 196.9l-8.2 3.8-11-23.6 8.2-3.8z"/><path fill="#cbaa91" d="M-16 153l37-52-27 7z"/><ellipse cx="188" cy="164" fill="#62b155" rx="10" ry="22"/><ellipse cx="145" cy="98" fill="#dbe6d8" rx="6" ry="14"/><ellipse cx="17" cy="133" fill="#56403b" rx="26" ry="9"/><path fill="#1d1816" d="M-16 223l27 31 18-20z"/><ellipse cx="45" cy="95" fill="#000818" rx="4" ry="17"/><ellipse cx="110" cy="201" fill="#505f8d" rx="7" ry="36"/><path d="M29 204l14 9-29-1z"/><path fill="#f3f3f4" d="M124 173h31v39h-31z"/><path fill="#0e0201" d="M96.7 8.8L89 19.4l1.2 13L106.9 8z"/><path fill="#c32648" d="M24 150l-40-17 39 33z"/><path fill="#c5d0ca" d="M4.3 171.5l25.1 30.2 2.1.8-9.7-31.3z"/><ellipse cx="92" cy="174" fill="#7a96c5" rx="10" ry="29"/><path fill="#d9d9d5" d="M71 219.4l15.9-2.8-20.3-73.1-19.8 4z"/><path fill="#c7987c" d="M98 18h14v63H98z"/><path fill="#dcc1b0" d="M33.1 88.1L35 111l-15.7 7.8L40.7 100z"/><ellipse cx="163" cy="116" fill="#4f689a" rx="14" ry="43"/><path fill="#cfd8f3" d="M52.7 106.6l-2.1 32.6-.9 3.7 11.9-24.1z"/><path fill="#fff" d="M186.5 62.8l-1-8 14-1.6 1 8z"/><circle r="1" fill="#7d5e51" transform="matrix(9.94527 -2.8508 8.48936 29.6159 0 196.4)"/><path fill="#261e1f" d="M26 166h3v29h-3z"/><path fill="#73928c" d="M106 140l44-74-35-18z"/><path fill="#e5dfdd" d="M108.4 247l86.2.6L99.4 271l4.8-48.3z"/><path fill="#28292f" d="M45.7 85.2L27 96.8l-14.2 38 11.6-56.3z"/><circle r="1" fill="#030512" transform="matrix(6.48136 4.03429 -2.49116 4.00221 63.8 111.7)"/><path fill="#02020f" d="M33.2 148.2l14.3-12.5 5.3 6-14.3 12.6z"/><ellipse cx="30" cy="34" fill="#fcf4ee" rx="46" ry="6"/><circle r="1" fill="#2e281b" transform="rotate(-179.7 83.1 7.3) scale(1.5395 64.60757)"/><ellipse cx="133" cy="23" fill="#b1a495" rx="10" ry="26"/><path fill="#eae6e2" d="M36 182.9l-13.5-25.7 11.4-6 13.6 25.6z"/><ellipse cx="166" cy="236" fill="#a9a7a0" rx="31" ry="11"/><ellipse cx="22" cy="53" fill="#eae0d3" rx="56" ry="3"/><path fill="#a0785a" d="M19 84l10-35L2 59z"/><path fill="#e0dcd1" d="M202 216l-24-4-3-42z"/><ellipse cx="150" cy="161" fill="#ece6d8" rx="2" ry="34"/><path fill="#10151d" d="M3.4 108.9L1.2 97l18.6-18-5.6 19.8z"/><path fill="#000c23" d="M12.1 188.8l7-1.2 4.8 27.6-7 1.2z"/><path fill="#e1dadf" d="M39.9 142.4l-1.6 1.3L24 125.6l1.6-1.3z"/><path fill="#4e5e7c" d="M157.9 202.1l16.6 17.2 2-27.2-23-39.3z"/><circle r="1" fill="#1d1614" transform="rotate(-149.6 57.6 -7.3) scale(8.78691 3.86997)"/><path fill="#5f716c" d="M69.3 60.5l29 7.7 3.6 44.1-56.4-50.4z"/><path fill="#9d755c" d="M93 234h10v19H93z"/><path fill="#1c1713" d="M113.5 49V37.9l4-11.5 17.3 30.4z"/><path fill="#38466a" d="M175 175l-10-56 22 17z"/><path fill="#a5d96a" d="M188 105h5v33h-5z"/><path fill="#e2e3df" d="M144 156l19 57-38-30z"/><path fill="#836345" d="M212.4 58.3l-27.9 69L202 57.5l18-7.6z"/><path fill="#9cb398" d="M195.4 109.1l-16.6-12 12.3-29.8-15.5-24.5z"/><path d="M7.6 137.2l-7 5.7-8.2-10.1 7-5.7z"/><path fill="#5d6d7b" d="M78.4 175.3l-26.1-60.6 21.5 19.9 14.4 21.3z"/><circle r="1" fill="#c5a48e" transform="matrix(9.37293 -4.7445 1.32009 2.60787 35 99)"/><ellipse cx="164" cy="52" fill="#3b2e21" rx="13" ry="27"/><path fill="#b7b9ad" d="M165 22l55 9-17-20z"/><path fill="#e8e9ea" d="M65 171h19v37H65z"/></g></g></svg>