<svg xmlns="http://www.w3.org/2000/svg" viewBox="0 0 1120 1400"><defs/><filter id="a"><feGaussianBlur stdDeviation="12"/></filter><rect width="100%" height="100%" fill="#375132"/><g filter="url(#a)"><g fill-opacity=".5" transform="translate(2.7 2.7) scale(5.46875)"><circle cx="142" cy="66" r="153" fill="#e6cdbb"/><ellipse cx="166" cy="227" fill="#accecb" rx="39" ry="29"/><ellipse cx="43" cy="45" fill="#eae7d8" rx="200" ry="19"/><circle r="1" fill="#d8bbbd" transform="rotate(-46.5 258.2 107.3) scale(48.60491 25.47695)"/><circle r="1" fill="#3b4943" transform="rotate(177.8 40 93.2) scale(88.59796 37.90959)"/><circle r="1" fill="#ee7d6e" transform="rotate(170.4 12.5 46.3) scale(74.15523 43.14145)"/><circle r="1" fill="#2a4014" transform="rotate(153.4 78.8 84.5) scale(28.34847 24.29342)"/><path fill="#fff" d="M44.3 247l-3-12.7 22.4-5.2 3 12.6zm43-71.7l8-15 19.4 10.4-8 15z"/><ellipse cx="134" cy="4" fill="#0a4b00" rx="20" ry="21"/><ellipse cx="27" cy="88" fill="#a72f18" rx="76" ry="13"/><circle cx="140" cy="84" r="43" fill="#6a9060"/><circle r="1" fill="#c1e7e4" transform="matrix(-11.29248 3.38042 -7.1658 -23.93774 136.7 220.6)"/><circle r="1" fill="#d4ffea" transform="matrix(21.96135 -35.97846 16.6205 10.1452 11.2 0)"/><path fill="#c8cbb1" d="M77 107l-93 57 28-66z"/><path fill="#daf7fe" d="M157 147l-11-16-38 49z"/><path fill="#475c52" d="M179 152h22v104h-22z"/><circle r="1" fill="#e7cec4" transform="rotate(-121.1 57.4 100.3) scale(10.70777 27.10283)"/><circle r="1" fill="#fff" transform="rotate(-172.5 27.4 17.5) scale(58.70992 6.26477)"/><path fill="#0f1000" d="M134.7 177.7L115 188.9l30 11.5 31.7.1z"/><path fill="#d9ccbe" d="M88.7 18.8l37.3-2-42.1 64.3L34.8 78z"/><circle r="1" fill="#2a171e" transform="rotate(-8.8 1514.4 -433.8) scale(22.49237 31.80119)"/><path fill="#cdf2fd" d="M145 178h29v9h-29z"/><path fill="#200f0c" d="M49 149h41v16H49z"/><path fill="#418b36" d="M45 8h34v24H45z"/><circle r="1" fill="#913b2e" transform="matrix(9.26579 -17.37897 13.59236 7.24691 100.2 109.9)"/><circle cx="175" cy="227" r="8" fill="#f2ffff"/><path fill="#2b3d1d" d="M9 135h16v46H9z"/><path fill="#284c05" d="M96 139l-27 16 69 3z"/><path fill="#b0dce2" d="M180.1 158.1l-17.4-5.6 34.8 76.5-23.9-31.1z"/><path fill="#2a3314" d="M162 216l16 29-19 7z"/><path fill="#e7f5fa" d="M151 134l-33 6 19 16z"/><path fill="#b1d5d0" d="M109 214l23-17 54 27z"/><path fill="#a2caae" d="M185.3-8.6l2-7.4-59.7 49.5 36.7 23z"/><path fill="#fff" d="M83 182l-4-7 28-5z"/><path fill="#325f4b" d="M219 31l-40.8-3.1L188.5-16 219 8.2z"/><path fill="#e5fffe" d="M216 231l-27-21 3 14z"/><path fill="#171907" d="M125.8 172.7l33.8-9 2.6 9.6-33.8 9z"/><path fill="#c5b8bc" d="M13 202l-29 2 24 67z"/><path fill="#050000" d="M187.3 193.9l-7.1-20.8 8.5-3 7.1 20.8z"/><path fill="#333b29" d="M61.9 181.4l95.5 2.6-140 46.8 120.3-28.5z"/><path fill="#989483" d="M105.9 220.3l-3.6 27.2 35.5-22.1-13.4 13.9z"/><path fill="#84b3a6" d="M33 190h59v8H33z"/><path fill="#1b000e" d="M211.9 147.9l-21.8-3 4-28.8 21.8 3z"/><circle r="1" fill="#a4e3f8" transform="matrix(-3.19422 2.99958 -8.31248 -8.8519 200.5 179)"/><path fill="#291c18" d="M26 249.4l59-52-29.7 5.2 10.4-55.1z"/><path fill="#eecdc9" d="M49.3 233.7l12.8-2.2 2.6 14.8-12.8 2.2z"/><path fill="#dacbaf" d="M98.1 140l-62 2-.2-8 62-2z"/><path fill="#a2c991" d="M49 190l6-26-20-15z"/><path fill="#d1f7f3" d="M111.6 171l18.2 5.2-1.4 4.8-18.2-5.2z"/><path fill="#2e400d" d="M219 83l-26-8 2 18z"/><ellipse cx="16" cy="172" fill="#321019" rx="24" ry="11"/><path fill="#283419" d="M174.4 179.5l-15.7-16.3-.4-19.7-12.5 25z"/><circle r="1" fill="#ad997a" transform="matrix(9.69523 -11.92998 17.57777 14.28507 105 68.2)"/><path fill="#130c0f" d="M67 185l4-17 21-1z"/><circle r="1" fill="#a64732" transform="matrix(3.68527 -11.2751 44.27426 14.47106 25.5 85)"/><path fill="#d8f2fb" d="M175 153l-3 21-15-17z"/><path fill="#cce7da" d="M154.2 271l1.1-36.8-34.5.3 37.6 15.5z"/><path fill="#30342c" d="M196.4 205.6L219 192l-25.3 26.6-13.8-27.2z"/><path fill="#303d02" d="M176.4 212.6l28.8 23 3.6 16.2-22-22.5z"/><path fill="#d8ac9f" d="M-13.3 58.4l7.3-29 89.3 22.2-7.3 29z"/><path fill="#c1e1d0" d="M98 44l47-10L74 9z"/><circle r="1" fill="#36583b" transform="rotate(-62 133.2 -108.7) scale(2.02146 31.14933)"/><path fill="#226423" d="M86 3h12v15H86z"/><path fill="#c5e1e3" d="M94.7 178l-3.2-17.6 13.8-2.5 3.2 17.7z"/><path fill="#2a0000" d="M174 131l13 16-3 11z"/><path fill="#8aa9a1" d="M169 247h31v9h-31z"/><ellipse cx="123" cy="227" fill="#2c3518" rx="9" ry="7"/><path fill="#4c9a2e" d="M126.5 133.6l-33.4 30.3-3.7-17.7 21.1-12.4z"/><path fill="#370401" d="M130.7 85L102 110l-2.7-3L128 82z"/><path fill="#a3c2a3" d="M136.7 130.6l-9.7-20.1-37 36.1-8.4-9.7z"/><path fill="#b8d8be" d="M162 39l52 38-15-50z"/><path fill="#589033" d="M141 154h9v25h-9z"/><circle r="1" fill="#70715c" transform="matrix(12.41203 3.39993 -9.08048 33.14988 27.2 212.6)"/><path fill="#76ba75" d="M44 30l-32-5 39-41z"/><path fill="#0b0004" d="M117 148h11v11h-11z"/><path fill="#c2dee8" d="M107 159l24 10 8-8z"/><path fill="#9ccccd" d="M175 188l28 5-9 5z"/><ellipse cx="42" cy="114" fill="#e5bab1" rx="34" ry="9"/><path fill="#cccccf" d="M188 146h16v9h-16z"/><circle r="1" fill="#283020" transform="rotate(-160.4 74.4 74.3) scale(12.77829 2.63229)"/><path fill="#78a292" d="M21.5 206.9l30.1-40.4-21.4 15.7 22.4 16.7z"/><path fill="#77ae77" d="M22 126l-9 42-4-38z"/><path fill="#89b58f" d="M161 59.4l-39.7-16.3 23.3 44.8 38.1-14.6z"/><path fill="#6f8757" d="M157 75l44 25-62 40z"/><path fill="#c4dece" d="M10.2 7.7l4.2-21.6 31.4 6.2-4.2 21.6z"/><path fill="#89af95" d="M153 22l-7 21 64 37z"/><path fill="#ead3ce" d="M73.3 235.6l1.2 1.6-11.8 9.2-1.2-1.6z"/><path fill="#3e4b2f" d="M185.3 254.2l-4-.4-5.5-14.7 43.2-17.6z"/><ellipse cx="171" cy="208" fill="#b7e1e8" rx="15" ry="6"/><path fill="#fff7f5" d="M156 7h9v12h-9z"/><path fill="#334e3e" d="M163.6 232.8l-7.4-25.2 23.1-23.5-34.6 9.5z"/><path fill="#061201" d="M181 180l-3-5-11 2z"/><path fill="#201e17" d="M79.8 183.3l-8.2 27.5 4.7 4.4 11.3-32.1z"/><path fill="#d5fffa" d="M9 141l-18 4 9 9z"/><path fill="#35411f" d="M43 146h28v14H43z"/><path fill="#5b7c58" d="M57 33l30-1-10-17z"/><path fill="#362" d="M21 152.5l17-3.1-11.6-12.6-26.5 32z"/><path fill="#fcf4f2" d="M112.7 38.4l-.5 9-70.9-3.8.5-9z"/><path fill="#b27966" d="M29.7 124.2l66-3.4.6 13-66 3.4z"/></g></g></svg>