<svg xmlns="http://www.w3.org/2000/svg" viewBox="0 0 1120 1400"><defs/><filter id="a"><feGaussianBlur stdDeviation="12"/></filter><rect width="100%" height="100%" fill="#484749"/><g filter="url(#a)"><g fill-opacity=".5" transform="translate(2.7 2.7) scale(5.46875)"><circle r="1" fill="#fffbf1" transform="matrix(202.99722 1.0629 -.47934 91.5454 109.1 81.3)"/><circle r="1" transform="rotate(-18.3 363.2 -269.3) scale(75.34777 35.49681)"/><ellipse cx="195" cy="59" fill="#fff" rx="24" ry="184"/><ellipse cx="107" cy="222" fill="#cdbcb5" rx="203" ry="18"/><circle cx="10" cy="64" r="53" fill="#fbf6f5"/><circle r="1" fill="#f8ece0" transform="rotate(-80.6 68.8 -55.4) scale(36.06026 106.93548)"/><path fill="#1f2020" d="M63 61h109v71H63z"/><path fill="#070a0b" d="M14 162h179v28H14z"/><circle r="1" fill="#f2efee" transform="matrix(-116.27218 -.0541 .00573 -12.32432 6.2 151.9)"/><path d="M63 53h36v19H63zm83.8 47.2l2.6 66.2 13.5-11-11.9-34z"/><ellipse cx="127" cy="195" fill="#eee9ec" rx="203" ry="4"/><path fill="#fff" d="M174.2 54.7l44.6.2-15.5 146.2-30.7-87.3z"/><circle r="1" fill="#d9d8da" transform="matrix(-18.33454 -3.15172 13.59665 -79.09609 9.4 116.1)"/><ellipse cx="74" cy="249" fill="#070909" rx="114" ry="10"/><path fill="#fff" d="M99 133h47v18H99z"/><path fill="#dedbd7" d="M118.2 97l-52.4-1.4-5.9-20.9-75.9 26.4z"/><path fill="#27272a" d="M35 98h62v43H35z"/><ellipse cx="141" cy="202" rx="192" ry="3"/><path fill="#fffff8" d="M219 118l-37 45-26-27z"/><path fill="#292a2a" d="M126 155l42 42-132-23z"/><ellipse cx="177" cy="218" fill="#b5a8a4" rx="48" ry="15"/><path fill="#42413f" d="M95 61h78v72H95z"/><circle r="1" fill="#dddcdc" transform="rotate(137.5 -15.8 61.3) scale(19.70309 22.76404)"/><ellipse cx="99" cy="105" fill="#c8c5c0" rx="2" ry="51"/><path fill="#242829" d="M44 209l5-43-39-5z"/><path fill="#fff" d="M172 196l47 1-7-19z"/><path fill="#f7f2eb" d="M210.1 78.1l8.9 162.1-27-77.6-26.8 2.2z"/><circle r="1" fill="#cac2bd" transform="matrix(-17.78991 -49.77359 60.83616 -21.74386 56 0)"/><path fill="#2f2f2f" d="M62 52h37v27H62z"/><ellipse cx="147" cy="40" fill="#e1dbd2" rx="63" ry="21"/><path fill="#28292a" d="M93 163h101v26H93z"/><ellipse cx="29" cy="223" fill="#76706f" rx="64" ry="18"/><path fill="#b0b0b6" d="M12 178l-28 23 30-4z"/><path fill="#070507" d="M148.6 168.4l.8-49.5 8.9 43-9.5 2.5z"/><path d="M25.5 135.2L35 132l1.5 4.7L27 140z"/><path fill="#393939" d="M34 99h65v40H34z"/><path fill="#353637" d="M125 239h75v17h-75z"/><path fill="#e9e4dd" d="M39 95h58v3H39z"/><path fill="#aba3a0" d="M62 163l-33-12-45 13z"/><ellipse cx="77" cy="146" fill="#e6e8e5" rx="43" ry="6"/><circle r="1" fill="#e9eae3" transform="matrix(9.35564 .11333 -.0577 4.76333 176.5 195.2)"/><path fill="#897e7f" d="M88 153h44v6H88z"/><path fill="#3b2d23" d="M160 146h6v58h-6z"/><path fill="#f1ebe3" d="M172 57h30v104h-30z"/><path fill="#dbd2c9" d="M219 22.4L186.6-16l-86.3 76.1 35.7 1.2z"/><path fill="#afa4a1" d="M124 224h80v15h-80z"/><path fill="#383837" d="M101 62h71v70h-71z"/><path fill="#d2cdc7" d="M63.1 53L219-.8-16 48.6l79.2 50.8z"/><path fill="#cac5c2" d="M148.5 160.7l-.7-26.2-11.6.2-6.4 26.8z"/><path fill="#383838" d="M63 56h36v40H63z"/><path fill="#0e0f0e" d="M41.9 200.1l-31.7 1.1 42.9 6.2-18.7-31.8z"/><ellipse cx="203" cy="199" fill="#1b201c" rx="87" ry="1"/><path fill="#b38466" d="M158 146h13v16h-13z"/><path fill="#f7f6f2" d="M219 63.4l-6.2 116.8-18.3 17.1-2.8-96.7z"/><ellipse cx="108" cy="190" fill="#030707" rx="78" ry="1"/><path fill="#26292b" d="M12 162h13v29H12z"/><path fill="#929196" d="M41.3 199.2l-57.3.8 58.4-70.2L-3 180.2z"/><path fill="#eae9e2" d="M99.2 142l.7-10 31 2-.8 10z"/><ellipse cx="71" cy="206" fill="#645f5a" rx="70" ry="2"/><path fill="#f3f2ed" d="M158 133h46v13h-46z"/><path fill="#8f8b91" d="M127 191h34v7h-34z"/><path fill="#292829" d="M194 187l-89-3 5-28z"/><circle r="1" fill="#d2cfcf" transform="matrix(22.52417 -7.05865 6.73428 21.48912 11.1 119.1)"/><path fill="#3a3a3c" d="M37 99h31v43H37z"/><path fill="#cfceca" d="M184.9 190.7l18.9-7.1-36.6 17-2.7-10z"/><path fill="#928b8b" d="M0 228h28v12H0z"/><path fill="#ddcdc2" d="M39.4 134.7l2 2.2-18.8 16.4-2-2.2z"/><ellipse cx="39" cy="162" fill="#e3d8cf" rx="13" ry="2"/><circle r="1" fill="#cbc3be" transform="matrix(19.58058 -22.61227 55.2119 47.80949 34.6 0)"/><path fill="#2f2e2e" d="M38 139h61v2H38z"/><path fill="#a8978d" d="M161 160h27v4h-27z"/><path fill="#9a8e8d" d="M55 224h59v14H55z"/><path fill="#5d595a" d="M153 80h5v63h-5z"/><path fill="#dcdedb" d="M43.3 141.8l28.2-.5 26.6 12.5-44.6 4.8z"/><path fill="#dbd8d7" d="M61 94L39 42 8 99z"/><path fill="#b3aaa5" d="M174 204h30v35h-30z"/><path fill="#313336" d="M148 164h45v20h-45z"/><path fill="#091216" d="M162 185h4v16h-4z"/><path fill="#434444" d="M161 239h43v14h-43z"/><path fill="#6d6661" d="M116 204h62v2h-62z"/><path fill="#756f6c" d="M-16 205H93l-70 32z"/><ellipse cx="84" cy="196" fill="#bdb3b8" rx="38" ry="3"/><path fill="#9c9694" d="M59 53h3v26h-3z"/><path fill="#1e1d1a" d="M66.4 57.3l5.3 7.2L89 60.8l-12.5-8.5z"/><path fill="#242324" d="M116 123h36v9h-36z"/><path fill="#c5c2bd" d="M139.7 154.8l7.1-22.1-27.7 28.1L109 146z"/><ellipse cx="122" cy="188" fill="#151718" rx="65" ry="3"/><path fill="#c4c0c1" d="M42 142l-58-14 25 36z"/><path fill="#727370" d="M51 161h51v4H51z"/><path fill="#424241" d="M120 77h51v43h-51z"/><circle r="1" fill="#1f1f20" transform="rotate(3.1 -4633.7 1301.8) scale(82.47404 9.02968)"/><path fill="#d9d5cd" d="M99 51h30v10H99z"/><path fill="#020304" d="M115 200h50v3h-50z"/><path fill="#fffffa" d="M188 188h6v4h-6z"/><path fill="#7e7f86" d="M24 192h15v7H24z"/><path fill="#c0bcb7" d="M67 96h33v3H67z"/><ellipse cx="99" cy="102" fill="#b8b4b0" rx="1" ry="36"/><path fill="#b08f75" d="M31 138h4v16h-4z"/><path fill="#a6a2a5" d="M46 197h29v3H46z"/></g></g></svg>