<svg xmlns="http://www.w3.org/2000/svg" viewBox="0 0 1400 933"><defs/><filter id="a"><feGaussianBlur stdDeviation="12"/></filter><rect width="100%" height="100%" fill="#495025"/><g filter="url(#a)"><g fill-opacity=".5" transform="translate(2.7 2.7) scale(5.46875)"><circle r="1" fill="#ffe8f8" transform="matrix(-128.78403 74.65349 -113.13117 -195.1615 91.3 66.6)"/><circle r="1" transform="matrix(-.21713 -9.31964 254.93082 -5.93954 165.5 55.4)"/><circle r="1" fill="#dcfbff" transform="rotate(173.3 49.5 10.1) scale(93.3069 29.95113)"/><circle r="1" fill="#d4bfb0" transform="rotate(13.8 -630.8 374) scale(75.68263 97.56671)"/><path fill="#9e653d" d="M246.4 74.2l7.1 40.4-132 23.2-7-40.4z"/><ellipse cy="57" fill="#292400" rx="48" ry="17"/><ellipse cx="230" cy="53" fill="#2f2a00" rx="55" ry="14"/><path fill="#4d3e18" d="M138.4 36.3l25.8-13.9-5.2 83.2-15.2-11.5z"/><circle r="1" fill="#9b6c42" transform="matrix(-68.58969 5.87571 -.75598 -8.82486 62.3 101.8)"/><circle r="1" fill="#f9ebf0" transform="matrix(.32104 -6.64585 20.0346 .96782 255 37)"/><path fill="#fcddc7" d="M107.3 93.7l-83-1.4.4-24 83 1.4z"/><path fill="#d1d9e5" d="M116.1 51.7l19.3-.2 9.4-67.5L23.5 35.1z"/><circle r="1" fill="#3b3809" transform="rotate(71 -34.9 24.9) scale(26.56146 17.88797)"/><circle r="1" fill="#dce2e4" transform="matrix(27.2926 18.53926 -7.917 11.65501 187 18.3)"/><path fill="#454244" d="M228-14l43 42-53 3z"/><ellipse cx="118" cy="57" fill="#3b4009" rx="255" ry="8"/><circle r="1" fill="#b5bdc6" transform="matrix(-.83652 -15.10476 101.50686 -5.6216 121.6 162.3)"/><path fill="#adb0bb" d="M154.8 119l-20-6.4 8.4-25.7 20 6.5z"/><path fill="#e5dbdd" d="M88 64h80v5H88z"/><circle r="1" fill="#9abfe0" transform="matrix(-81.9624 7.74773 -1.69302 -17.91032 42.6 4.6)"/><path fill="#b36e35" d="M172.5 83.1l32.3 13-31.6 45.3-19.9-5.3z"/><path fill="#8d7464" d="M22 81.6l28 2-2 26.8-28-2z"/><path fill="#474c2f" d="M167.5 21.6L146.8 57l-19.4-21 41.5-3.6z"/><path fill="#e6d0c2" d="M54 66h83v20H54z"/><ellipse cx="255" cy="55" fill="#423d20" rx="90" ry="13"/><path fill="#cbcace" d="M0 75h17v33H0z"/><path fill="#888c96" d="M256.2 201L211 184.4 253.7 67 299 83.5z"/><path fill="#c4bec2" d="M173.7 87l-15.3 1.2 79.9-15-83.6-9.1z"/><path fill="#212b00" d="M12.1 69.4l56.2-21-18-.2L79.9 65z"/><path fill="#8c572d" d="M99.2 87.4l76.3 16.2-.7 3-76.3-16.2z"/><ellipse cx="161" cy="62" fill="#111c06" rx="67" ry="3"/><path fill="#c3bfb9" d="M116 167l3-69-131 46z"/><path fill="#8a835d" d="M182 58l17-37-36 29z"/><path fill="#b15410" d="M229 76l18-4-22 33z"/><path fill="#a1b9d2" d="M203 89h17v10h-17z"/><path fill="#dbd9d1" d="M116.7 51.5L69.8 36.8l36.4-7.3 39.4 22.1z"/><path fill="#50250d" d="M142.2 88l15.1-2.9-5-19.7-9.9 12.4z"/><path fill="#4a5d3d" d="M197.7-16h5.3l-.2 22.3-7 13.2z"/><path fill="#6e4524" d="M116.2 110.5l55.3 24.7.5-6.9-51.3-17.7z"/><path fill="#e17b1c" d="M139.3 85.6L89 94.4l-.4-2 50.2-8.8z"/><ellipse cx="175" cy="44" fill="#fff" rx="11" ry="2"/><circle r="1" fill="#8a6d3c" transform="matrix(.06142 -3.19858 31.9753 .61396 44.1 49)"/><path fill="#a3a4a9" d="M196 185l11-74 49 17z"/><path fill="#e7d0bb" d="M14.4 69.4l66.4 20.7L45 102.5 74.8 67z"/><path fill="#a3acb4" d="M164.1 120.5l-9.4-18.6-35.1-4 7.7 12.8z"/><path fill="#786747" d="M230-16l10.7 82.6L271 46.1l-28.5-6.8z"/><circle r="1" fill="#672500" transform="matrix(13.93659 1.0479 -.0771 1.02532 33.6 85.5)"/><path fill="#642600" d="M18 64h2v43h-2z"/><path fill="#b7b9b5" d="M122 117h12v53h-12z"/><path fill="#353c20" d="M177 33h7v9h-7z"/><circle r="1" fill="#d1d6dc" transform="matrix(-10.26045 -14.11998 41.98352 -30.50783 133.5 16.7)"/><path fill="#919b95" d="M240.7 7.3l-30.6-7-5.2 26.2 22.4-8z"/><path fill="#2e2c11" d="M261.1 68.4l-78-31.7 11.7-.1 6.5 26.7z"/><circle r="1" fill="#8d4f26" transform="matrix(1.94671 -.2757 2.21878 15.66704 202 125)"/><path fill="#c17b42" d="M172 147l-1-62 33-5z"/><path fill="#d0d5d9" d="M135.4 7.3l52.1 29.4L206.6-14l17.9 15z"/><path fill="#c8b3a5" d="M102 90h49v5h-49z"/><path fill="#2d2e11" d="M152 30.8l7 15.5-11 5-7-15.6z"/><path fill="#965a30" d="M117 73h28v3h-28z"/><path fill="#3d3613" d="M19 68l-26 9 8-53z"/><path fill="#787456" d="M-1 13l28 38-11 12z"/><path fill="#c9c9ce" d="M138 64h30v4h-30z"/><path fill="#b6afaf" d="M245 67l1 29 22-29z"/><path fill="#e4ded9" d="M244 32h12v9h-12z"/><path fill="#896644" d="M248 113l-4-18-44 18z"/><ellipse cx="162" cy="133" fill="#7e705d" rx="24" ry="6"/><path fill="#4f2101" d="M160.4 102.9l-41-8.8.2-1 41 8.8z"/><path fill="#c5cabc" d="M157.7 40.2l14 10.7-2.8-36L182 32.7z"/><path fill="#4f5343" d="M235 8l8 6-18 24-8-6z"/><path fill="#c6c2be" d="M20 86h24v11H20z"/><path fill="#723709" d="M120 95h2v35h-2z"/><path fill="#373125" d="M216.7 13.8l20.2-8.6.4 1-20.2 8.6z"/><path fill="#b9bfc2" d="M187 114l11-10-4-5z"/><path fill="#ffe3cb" d="M171 79h28v4h-28z"/><path fill="#c6d3d6" d="M201.1 11.8l-1.7 4.4 29.4-20.3-25.6 10.4z"/><path fill="#eceae0" d="M195 39l26-2-6-9z"/><path fill="#dccaba" d="M57.9 95.1l70.9-9.6-18.4-22.7L84 65.5z"/><path fill="#a6b3bd" d="M51 45.4L5.4 35.2 46.8-15 13.9 43z"/><ellipse cx="38" cy="100" fill="#8d4713" rx="18" ry="2"/><path fill="#474821" d="M185 56l33-19 41 6z"/><path fill="#2d231a" d="M267.5 25h-25V-9h25z"/><path fill="#f9ebe4" d="M143.2 63.6l3 2.7-7.4 8.1-3-2.7z"/><path fill="#151d00" d="M206 6l-12-19-19-3z"/><path fill="#94704d" d="M57 112.6L25.9 93.1l23.7 11 81.7-7.6z"/><circle r="1" fill="#75787c" transform="matrix(35.12373 -52.4672 11.89781 7.96489 254.9 165.4)"/><path fill="#313706" d="M134 59l-19 7-13-19z"/><path fill="#a6a7ab" d="M213.6 66.1h-32.9l47.7 19.8 9.2-18.3z"/><path fill="#6a694c" d="M198.5 26.8l-6-13.4 27.8 51.1L205 32z"/><ellipse cx="152" cy="76" fill="#6e4426" rx="11" ry="9"/><path fill="#181700" d="M0 67h20v7H0z"/><path fill="#70794e" d="M80.7 43.6l-5.1 9.5-4.8 3.3 27-9.2z"/><path fill="#34341a" d="M207-7l1-.3 5 18.3-1 .3z"/><path fill="#d38d49" d="M143.5 86l-87 9.3-16.1 6.8 17.7-2z"/><path fill="#9c968f" d="M0 102h40v10H0z"/><path fill="#5e562e" d="M181.7 46.8l-9.9 26.3-3.1-15.9-33.5-8.3z"/><path fill="#6c3008" d="M200 85h29v2h-29z"/><path fill="#535b3e" d="M178.8 40.9l57.3 23.7-69.3-29.1-5.9-16.3z"/><circle r="1" fill="#26340c" transform="matrix(.27969 2.21477 -36.15184 4.56537 62.7 63.4)"/><path fill="#0f1000" d="M212 57h21v9h-21z"/><circle r="1" fill="#9a9790" transform="matrix(.23907 -1.02441 69.12962 16.13268 65 133.8)"/></g></g></svg>