<svg xmlns="http://www.w3.org/2000/svg" viewBox="0 0 1120 1400"><defs/><filter id="a"><feGaussianBlur stdDeviation="12"/></filter><rect width="100%" height="100%" fill="#334c54"/><g filter="url(#a)"><g fill-opacity=".5" transform="translate(2.7 2.7) scale(5.46875)"><circle r="1" fill="#fff4da" transform="matrix(171.71126 97.6962 -80.783 141.98455 108 131.7)"/><circle r="1" fill="#40514f" transform="matrix(-49.86352 -27.6398 54.7645 -98.79779 73.7 162.7)"/><circle r="1" fill="#e4decc" transform="matrix(-76.03376 188.22292 -43.15267 -17.43178 152.6 237.5)"/><circle r="1" fill="#dedfd7" transform="matrix(2.02858 -33.09666 202.61976 12.41908 134.3 27.3)"/><circle r="1" fill="#cacfcd" transform="matrix(40.1006 -112.61555 47.17502 16.79827 15.3 43.7)"/><circle r="1" fill="#485650" transform="matrix(19.76824 -31.02617 20.37122 12.97947 141.6 107)"/><circle r="1" fill="#3a5458" transform="matrix(-8.46192 15.59333 -18.00836 -9.77247 86.3 62.6)"/><circle r="1" fill="#45514d" transform="matrix(34.82807 -19.13899 11.92211 21.6952 95.4 173.3)"/><circle r="1" fill="#8e968a" transform="matrix(-18.59558 -6.38902 21.80058 -63.45169 47.5 130.6)"/><path fill="#cfcfbf" d="M114 56l104 3-30 35z"/><circle r="1" fill="#6e531e" transform="matrix(3.6709 2.32563 -33.22686 52.44701 85.7 243.4)"/><circle r="1" fill="#415458" transform="rotate(-161 72 36) scale(39.98205 13.17208)"/><circle r="1" fill="#8d9388" transform="matrix(-14.35662 -18.17863 33.40682 -26.38311 17.4 213)"/><path fill="#64532e" d="M173 86.1l-36 73.7-8-4 36-73.6z"/><circle r="1" fill="#c8cac0" transform="matrix(-17.71263 -48.59187 57.08992 -20.81033 149.8 255)"/><path fill="#5e6960" d="M78.7 68L81 33.4l-9.7 17.3L41 108.6z"/><path fill="#99a49b" d="M75 85l23 18-82 37z"/><circle r="1" fill="#bbc0bd" transform="rotate(-74.5 37.6 3.4) scale(114.12416 32.20777)"/><ellipse cx="98" cy="72" fill="#536667" rx="24" ry="19"/><path fill="#6a848b" d="M120 135l12 18 26-55z"/><path fill="#c5c2ac" d="M93.4 223.1l-67.7-34.5.9-1.7 67.7 34.5z"/><circle r="1" fill="#755d2d" transform="matrix(52.26907 -100.71888 3.04694 1.58124 107.3 207.3)"/><circle r="1" fill="#a5aa9f" transform="matrix(-1.23615 2.40257 -50.27439 -25.86683 64.2 239)"/><circle r="1" fill="#bcbbac" transform="matrix(5.93736 -8.23322 16.73266 12.0667 93.6 40.7)"/><circle r="1" fill="#3f585e" transform="matrix(30.88679 17.40381 -1.73337 3.07624 73.9 250)"/><path fill="#394649" d="M51.8 161.8L108 190l-53-20.2-32.6-20.2z"/><path fill="#5c6a6a" d="M16 211l-32 3 30-63z"/><circle r="1" fill="#45575c" transform="matrix(1.09123 -2.35213 29.37618 13.6285 41.3 169)"/><ellipse cx="175" cy="136" fill="#b7b6a2" rx="20" ry="36"/><path fill="#bfbcac" d="M141 212l-22-21-35 70z"/><circle r="1" fill="#7c8a8a" transform="matrix(-61.41384 -24.68417 3.9668 -9.86936 13 255)"/><path fill="#bab599" d="M38.4 151.6l73.7 36-.5.8-73.7-36z"/><path fill="#9fada2" d="M52.1 152.6L95 168.5l-60.4-29.3 1.7 3.6z"/><path fill="#aabaad" d="M151.1 87.3l-1 1.8L117 70.7l1-1.8z"/><circle r="1" fill="#b4b8a9" transform="matrix(-50.59516 -23.6406 .56901 -1.2178 81.6 114.8)"/><path fill="#cac5ad" d="M61 201h10v9H61z"/><circle r="1" fill="#b0bcb4" transform="matrix(.43123 -.90224 32.53673 15.55124 80.1 133.1)"/><path fill="#324954" d="M9.2 166.2l1.8-3.6 63.8 31.2-1.8 3.6z"/><path fill="#a5b5a9" d="M131.9 111.4L75.7 87.5l.4-.9 56.2 23.9z"/><path fill="#a6ada1" d="M55.3 95.2l2-.4 69.2 31 32.4 17.5z"/><path fill="#a8a999" d="M63.2 229.7l-40.6-20.8-35.6-18.6 62.1 27.4z"/><circle r="1" fill="#3f5b65" transform="matrix(33.50673 17.25543 -1.09226 2.12095 134.6 73.7)"/><circle r="1" fill="#cacfc9" transform="matrix(32.60389 7.44005 -4.11333 18.0255 113.1 7)"/><path fill="#a0a390" d="M101 57H86l26 12z"/><circle r="1" fill="#4f5e5b" transform="rotate(-155.1 52.5 55) scale(49.88656 1.95237)"/><path fill="#bfc4b4" d="M37.6 104.9l.4-1 92.4 43.2-.4 1z"/><circle r="1" fill="#485b5f" transform="rotate(-155.3 51.8 64) scale(50.63084 2.62224)"/><path fill="#acaa9c" d="M25.5 217.1l-35.3 1.6L-16 271l36.6-66z"/><path fill="#485a5b" d="M91.4 238.5l-65.8-32.4L90 220.4l-24.7-.1z"/><path fill="#bec0b2" d="M99.8 86.9L67.1 72.1l-50.3-24 62.6 32.5z"/><path fill="#cfcfbf" d="M17.1 163.9l1.3-2.7 22.5 11-1.3 2.6z"/><circle r="1" fill="#a09d84" transform="rotate(-63.9 172 36.4) scale(1.22245 51.83482)"/><path fill="#48595c" d="M94 94l9-28 45 20z"/><path fill="#c5c4b3" d="M50 136l-24-12-1 7z"/><circle r="1" fill="#435b61" transform="rotate(26.2 -219.8 243.4) scale(39.6086 1.76399)"/><path fill="#4c554a" d="M88.8 232l-17.9 34.8-29-24.9L88 263.6z"/><path fill="#b8b7a7" d="M113 204l70-22V74z"/><path fill="#31474e" d="M80 102l13 1 10 9z"/><path fill="#c6cece" d="M26.7 154.8l10.3 3.7-1.7 4.7-10.3-3.7z"/><path fill="#bcbcac" d="M127.8 58.3l-43.3-7.7 9.8-31.4 124.7 66z"/><circle r="1" fill="#415459" transform="rotate(-66.2 176 55.4) scale(1.72584 19.04867)"/><path fill="#a4a894" d="M107.4 207l-.5.8-80.3-42.7.5-.9z"/><path fill="#43504f" d="M92.1 153.5l21.6-7.5-17.9 37-16 35.6z"/><path fill="#637d80" d="M132.2 93.5l-23-.8 9.3 4.9 23.5 25.5z"/><path fill="#afaf96" d="M48.4 187.5l.4-.8 42.8 21.8-.4.8z"/><path fill="#2c3a40" d="M104 122l21 7-12 1z"/><circle r="1" fill="#a1aba1" transform="matrix(59.18686 28.7867 -.51217 1.05306 83 98)"/><path fill="#aeaa94" d="M25 198l-45.1-19.2 1.1-2.8 45.1 19.2z"/><circle cx="11" cy="15" r="70" fill="#bbc0bb"/><path fill="#3c5761" d="M77.2 236.6L38.3 220 67 239.3l18.7 5.7z"/><path fill="#404e49" d="M59 99l-2-19-6 18z"/><path fill="#475f63" d="M25.3 140l41 18.3-1.6 3.7-41-18.3z"/><circle r="1" fill="#9f9c85" transform="rotate(116.4 -28.8 139.2) scale(1.58588 32.43739)"/><circle r="1" fill="#b0ad9b" transform="rotate(120 -34.2 76) scale(38.89342 5.64544)"/><path fill="#41606e" d="M24.3 236.7L93.1 271l-65.9-39.4-14.7-8.6z"/><circle r="1" fill="#414d4c" transform="rotate(-62.5 209 29.4) scale(3.24599 24.51904)"/><circle r="1" fill="#4e676a" transform="rotate(24.6 -182.4 276) scale(42.74314 1.92499)"/><path fill="#465f64" d="M74 98l21 19-27-12z"/><path fill="#2d444c" d="M81.3 137.4l-12 7.4-2.6-4.2 12-7.4z"/><circle r="1" fill="#364447" transform="matrix(-17.91702 -9.76868 .4787 -.87798 68 215.3)"/><path fill="#bdb392" d="M82 213.5l1.4-2.6 10.6 5.6-1.4 2.6z"/><circle r="1" fill="#455e63" transform="matrix(-1.08478 2.07858 -17.44838 -9.10603 59.2 147.7)"/><path fill="#45585c" d="M70.6 53.5L88 60.9l-6.7 15.6L64 69.1z"/><path fill="#a0a593" d="M39.9 69L33 67.5 20.6 95.2l14.1-15.9z"/><path fill="#b0bbbc" d="M64.3 91.1l8.1-2.2L56 107.1l16.2-4.7z"/><path fill="#33515e" d="M12 238l25 15-9-13z"/><path fill="#355058" d="M91.8 56L71.7 45l.5-1 20.1 11.2z"/><circle r="1" fill="#c8c7b8" transform="matrix(-12.3126 -8.18047 17.8357 -26.8449 182 46.5)"/><path fill="#b6bcb3" d="M114 111.1l-.4 1L56 88.9l.3-1z"/><path fill="#cfd1c4" d="M43.6 125.5l.5-.9 24.3 11.9-.5.9z"/><path fill="#76867f" d="M95.6 70.8l-.5 1.5 83.5 35L52.8 49.5z"/><path fill="#9da69e" d="M-16 204.9l63.5 37.5-.4-8.3-2.9 3.3z"/><path fill="#907a48" d="M171.8 84.4l-68.3 132.9 48.1-80.7-4.4 12.5z"/><path fill="#454c46" d="M152.2 114.4l-4.8-9.4 19.2-12.5-38 72z"/><path fill="#425050" d="M21 162l5-12-8-3z"/><path fill="#779495" d="M71.1 139.4l10.4 5.3 29.5 13.8-26.5-17.3z"/><path fill="#dbe3e2" d="M31 179h5v3h-5z"/><path fill="#a5ada2" d="M90.6 55.5l5.9 2.7-65.7-26.9 81.3 38.6z"/><path fill="#465d65" d="M-19.8 192.8l106 49.5-.4.9-106-49.5z"/><path fill="#afac9a" d="M32.3 215.7l-10-6.7 7.4-10.7 10 6.7z"/></g></g></svg>