<svg xmlns="http://www.w3.org/2000/svg" viewBox="0 0 1120 1400"><defs/><filter id="a"><feGaussianBlur stdDeviation="12"/></filter><rect width="100%" height="100%" fill="#3b592f"/><g filter="url(#a)"><g fill-opacity=".5" transform="translate(2.7 2.7) scale(5.46875)"><circle r="1" fill="#ffeaff" transform="rotate(-16 241.6 -233.4) scale(141.7234 125.7773)"/><circle r="1" fill="#fffcff" transform="matrix(.12316 -23.52086 50.72612 .2656 197 246.5)"/><circle r="1" fill="#e5cde0" transform="matrix(-39.52736 -3.76123 5.80878 -61.0454 0 207.6)"/><circle r="1" fill="#3c2e44" transform="matrix(-7.24133 -73.85281 69.91459 -6.85519 102.4 194.8)"/><circle r="1" fill="#001000" transform="rotate(-166.2 70 -5.5) scale(16.54317 36.10535)"/><circle r="1" fill="#e6d5d7" transform="matrix(-28.96012 42.25674 -75.54185 -51.77165 43.3 39.6)"/><circle r="1" fill="#9ec9d2" transform="matrix(.22273 -18.23014 26.16584 .3197 146.9 167.9)"/><path fill="#f4efed" d="M147 48v93l72-94z"/><path d="M17 124h54v14H17z"/><circle r="1" fill="#e4d1c0" transform="rotate(-101.2 84.5 62.6) scale(17.63471 37.87344)"/><path fill="#3c392c" d="M123.1 7.9l7.3 146.7-143.5 52.7 163.7-93.8z"/><ellipse cx="179" cy="206" fill="#caaaa6" rx="4" ry="72"/><ellipse cx="191" cy="246" fill="#fdd1ce" rx="28" ry="21"/><circle r="1" fill="#241417" transform="matrix(9.76145 18.05343 -49.52468 26.7779 126.5 226.6)"/><path fill="#e0f1e1" d="M191-16l-37 68 65-49z"/><path fill="#b7e2e7" d="M92.1 171.9l15 1.7 80.8-29.4-79.8 17.6z"/><path fill="#312513" d="M54.1 141.6l78.3-20.1L1 139.7l21.5-27.4z"/><path fill="#aecad1" d="M45.2 208.7l-32.6-2.2-24.1 64.5h23z"/><path fill="#4a8ea7" d="M25.5 113.8l43.3-4.1 39.2 1.2-66.4 20.5z"/><path fill="#a8d8d7" d="M79.8 134.9l38.3-7.5 18.4-2.3-18.5 15.7z"/><path d="M-11 233.1l-4.5-5.3 26.4-23 4.6 5.4z"/><path fill="#0e2020" d="M76 168l70-20-2-23z"/><circle r="1" fill="#36262c" transform="matrix(-5.84102 -42.094 17.57022 -2.43807 197.6 168.6)"/><path fill="#656c5a" d="M122-12l-23-4v74z"/><circle r="1" fill="#1e620c" transform="matrix(-3.77227 -1.13892 6.94982 -23.01893 163.7 7.8)"/><path fill="#58686b" d="M175.8 165.9l-5.6 8.9-55.4 38-2.9-40z"/><ellipse cx="43" cy="20" fill="#dcd8d8" rx="16" ry="95"/><path fill="#33251e" d="M21.6 171.8l-8.9-4.6 145.9 69.7-130.2-39.1z"/><path fill="#b2beb0" d="M158 171.2l-13.5-8.4 17.5-28 13.5 8.4z"/><ellipse cx="22" cy="69" fill="#5d504a" rx="2" ry="69"/><path fill="#e3ded8" d="M104 46h17v63h-17z"/><path fill="#afb1ac" d="M219 102l-15 2-10 42z"/><path fill="#837b70" d="M102.4 16.6l44.1 23.5 1.4 81.2L108.6.2z"/><circle r="1" fill="#2e292a" transform="matrix(-27.20962 -15.76724 35.78284 -61.75066 64.2 244.6)"/><path fill="#b8aaa1" d="M32 142l-48 49 95-29z"/><path fill="#0f0200" d="M61 180l22-18-46 15z"/><ellipse cx="8" cy="90" fill="#c0b0ab" rx="14" ry="47"/><path fill="#a98073" d="M118.8 270l55.4-53.4 9 9.3-55.4 53.5z"/><ellipse cx="74" cy="24" fill="#94897c" rx="4" ry="90"/><path fill="#bab9ac" d="M130 114l67-18-16 46z"/><path fill="#1d2013" d="M175.9 155.4l28.6-65 11.4-8.5-31 66z"/><path fill="#e5d9dd" d="M82.4 6.2l17.8-22.9 13.4 10.5-17.8 22.9z"/><path fill="#5a942b" d="M172 34l38-16-29 26z"/><circle r="1" fill="#2a441a" transform="matrix(-14.51991 25.07903 -9.76219 -5.65198 136.6 12.8)"/><path fill="#667259" d="M152 142l32-18-4 23z"/><circle r="1" fill="#122627" transform="matrix(27.26336 -5.39734 .50905 2.57133 113.8 125.1)"/><path fill="#add3db" d="M29 121l21 9 10-7z"/><path fill="#c6beb4" d="M101 23l37 35-37 7z"/><path fill="#f0e2d5" d="M-16 190.6l38.5-39.7 52.6-10.3-60.6-2.6z"/><path fill="#838681" d="M111 213l56-37-33 11z"/><ellipse cx="100" cy="79" fill="#675d58" rx="2" ry="27"/><path fill="#c8beb9" d="M178 182h7v26h-7z"/><circle r="1" fill="#9aaa98" transform="matrix(-16.1637 4.02755 -1.20286 -4.82743 68.4 182.7)"/><path fill="#21221e" d="M75.6 134.5l7.1 14.9 32.9 11.4-35.5 8.1z"/><path fill="#2f4852" d="M155.5 181l-30.2 19.5-8.8-13.4 30.2-19.6z"/><path fill="#cbc3be" d="M28 54h32v58H28z"/><path fill="#6a915f" d="M199.8-14.5l-16.6 40.2-2.9-37.8-8.8 29.6z"/><circle r="1" fill="#bdafab" transform="rotate(-173.7 78.1 37.2) scale(5.25421 40.78557)"/><path fill="#b1c1c1" d="M166.1 127.7L66 138.1l79.9-16.5 16.6 23.8z"/><path fill="#5d383c" d="M212.8 202.9l2.1 19.9-41.7 4.3-2.1-19.9z"/><path fill="#f1f6f0" d="M188.4 22.8l22.6-5-4.7-33.8-14.9 22.3z"/><circle r="1" fill="#548490" transform="matrix(34.28413 -3.62346 .62139 5.8794 72.1 113.4)"/><path fill="#b6bdb3" d="M34.7 202.8l10.3 6.1-9.7 16.3-10.3-6.1z"/><path fill="#c2d0bd" d="M145.2 42.9L211 95.5l-6.2-71-23.5 17.3z"/><path fill="#29231f" d="M34 138.1l37.6-2.2 26.1-6.1-34.9-5.7z"/><path fill="#082600" d="M179 147h4v33h-4z"/><path fill="#658785" d="M149.3 138.7l-67.7 6.6-5.4-7.7 71.6-9.1z"/><path fill="#1c0c09" d="M24 114l-7 7 28 16z"/><ellipse cx="167" cy="96" fill="#ebf0f8" rx="12" ry="10"/><path fill="#8bc2d0" d="M74.5 125.9l-7.3-2.2 32.5-9 54-.2z"/><path fill="#d4d4c6" d="M110.6 109.2l11.2-3.4-3.2-60.3 9.3-25.3z"/><path fill="#34462f" d="M123-6l-22 18 7 3z"/><path fill="#2b2b28" d="M94.6 173.1L76 171l56-38.4-94.7 51.5z"/><ellipse cx="62" cy="71" fill="#9c9283" rx="3" ry="42"/><circle r="1" fill="#dee9e7" transform="matrix(-1.60729 -.60734 5.91054 -15.64178 163 31.2)"/><path fill="#cad3c8" d="M140.9 150.8l13.9 6.4-5.2 27.5 13.1-33.6z"/><path fill="#896f55" d="M36.4 187.4L33 202l-23.4-5.4L13 182z"/><path fill="#dbd6d5" d="M86 13h11v81H86z"/><path fill="#b3a6a8" d="M-16 236.6l36.5-78.3-36.5 27.1 31.4 6z"/><path fill="#edf5e6" d="M55 0h4v109h-4z"/><path fill="#251a19" d="M98 221l69-6 4-38z"/><circle r="1" fill="#b7dde2" transform="matrix(17.51059 -3.27702 .37114 1.98319 104 168.2)"/><path fill="#a38d5d" d="M-16 111l21 35 18-18z"/><path fill="#e2b890" d="M155.5 185.6l-36.4 20.2-13.2 8 5.6-1.6z"/><path fill="#7c7677" d="M133 30h14v63h-14z"/><path fill="#141703" d="M178.8 126.8l1 .2-8.6 48.2-1-.2z"/><circle r="1" fill="#2c2c2a" transform="matrix(-10.21187 -13.45365 12.04468 -9.1424 102.7 193.6)"/><circle r="1" fill="#1d390a" transform="matrix(4.91037 -15.14063 2.29676 .74488 142.1 27.7)"/><path fill="#c0b5af" d="M47.2 158l.6-19 29 1-.6 19z"/><path fill="#faf6fb" d="M6 15L7-9l-23 21z"/><path fill="#574024" d="M27 192h6v15h-6z"/><path fill="#412818" d="M133 63l-3 18-5-20z"/><circle r="1" fill="#939984" transform="matrix(2.96507 -80.8618 .99933 .03664 182.6 73)"/><path fill="#dad2c7" d="M179 227l3.4 6-17.3 10-3.5-6z"/><path fill="#011900" d="M118 33h3v8h-3z"/><circle cx="195" cy="66" r="10" fill="#e8e5e4"/><path fill="#8e7c64" d="M182 225l5-17-43 31z"/><circle r="1" fill="#ceac8a" transform="matrix(-.5145 -.8575 31.91544 -19.14921 138.3 195.3)"/><path fill="#b9bdb4" d="M150 58l17-4-5-42z"/><circle r="1" fill="#d1c8cc" transform="matrix(4.68785 -6.27421 9.6491 7.20945 3.7 83)"/></g></g></svg>