<svg xmlns="http://www.w3.org/2000/svg" viewBox="0 0 1120 1400"><defs/><filter id="a"><feGaussianBlur stdDeviation="12"/></filter><rect width="100%" height="100%" fill="#363e32"/><g filter="url(#a)"><g fill-opacity=".5" transform="translate(2.7 2.7) scale(5.46875)"><circle r="1" fill="#fff" transform="rotate(-139.3 71.3 35.7) scale(177.73863 187.25667)"/><circle cx="165" cy="45" r="111" fill="#fffffb"/><circle r="1" fill="#324833" transform="matrix(5.62697 67.00157 -24.35412 2.04532 32.1 41)"/><path fill="#ffffe7" d="M-16.4 235.7L79 182.8l17.5 31.5L1 267.2z"/><circle r="1" fill="#20301e" transform="matrix(14.0423 2.19897 -8.49425 54.24318 15.5 167)"/><path fill="#8f6345" d="M188 271l-24-168-88 83z"/><path fill="#132c0b" d="M46 92h16v106H46z"/><ellipse cx="36" cy="131" fill="#ffffef" rx="6" ry="84"/><circle r="1" fill="#ffe6cc" transform="rotate(179.7 45.4 62.8) scale(28.51709 31.91206)"/><ellipse cx="185" cy="228" fill="#526d4f" rx="77" ry="25"/><path fill="#fce9dc" d="M168 137h36v45h-36z"/><ellipse cy="93" fill="#fffff8" rx="12" ry="67"/><path fill="#2c3a2b" d="M28.7 41.6l-1.4 81-16-.2 1.4-81z"/><circle cx="136" cy="8" r="82" fill="#e7e7e7"/><path fill="#161b0b" d="M52 150h17v28H52z"/><circle r="1" fill="#717a4d" transform="matrix(5.32818 -34.48108 20.03978 3.09664 74.5 250.9)"/><path fill="#196266" d="M155 95h11v47h-11z"/><circle r="1" fill="#293a26" transform="matrix(3.23982 -38.17505 8.09358 .68688 46.6 35.2)"/><circle r="1" fill="#bf856d" transform="matrix(17.6952 -22.55809 39.32255 30.84573 118.4 191.7)"/><ellipse cx="28" cy="229" fill="#fbedd8" rx="26" ry="23"/><path fill="#191b10" d="M6 193h31v10H6z"/><path fill="#e0d3c4" d="M61 55h94v79H61z"/><path fill="#d9cbba" d="M219 124.4l-44.7-90.1-7.7 152.1.7 39.6z"/><path fill="#ead5ba" d="M76 157l44 100-61-63z"/><path fill="#efd6c3" d="M40.4 82.9L35 219.6l5.6-46.1 8.7-5.5z"/><path fill="#445d46" d="M42.6 102.1L34-10.8l21.5 64 11 106.2z"/><path fill="#863e2d" d="M134 133h10v52h-10z"/><path fill="#273f17" d="M42 179h16v20H42z"/><path fill="#dccfbe" d="M64 94h69v57H64z"/><path fill="#bac3b9" d="M156 259.2l17.2-16.5-.1-3.3-31.2 5.2z"/><path fill="#36453b" d="M24.3 129.8l-27 45.2-13.3-47.1 47.5 70.6z"/><circle r="1" fill="#bae0f2" transform="matrix(-65.99016 -26.80996 9.58496 -23.59247 176.5 13.2)"/><path fill="#a06953" d="M90.9 201.2l7.1-50-21.5 17.3 8.6 29.4z"/><path fill="#fff6f1" d="M34 30h3v82h-3z"/><path fill="#fffff3" d="M3-9l4 65-23-17z"/><circle r="1" fill="#5b8060" transform="matrix(-26.4482 -19.07504 28.78342 -39.90919 203 223.7)"/><path fill="#5e5c4b" d="M99 211l25 43 7-37z"/><path fill="#dad2c7" d="M166 185.8l-18.6 7.2 7.4 18.2 4.7-5.3z"/><path fill="#efe6e1" d="M76.8 160.1l-11.2-15.3 31.6-23 11.2 15.4z"/><path fill="#e5decc" d="M40 192.8l-44.4-16.7 76 42.2L-16 271z"/><path fill="#e1d9d3" d="M60 33h106v66H60z"/><path fill="#fffffa" d="M54 144h12v4H54z"/><path fill="#454e46" d="M141.4 223.7l26.3-21.5-2.4 66.1 24.4-12.5z"/><ellipse cx="150" cy="143" fill="#dec7b6" rx="4" ry="42"/><circle r="1" fill="#0f230f" transform="matrix(-21.18279 -14.88751 1.07294 -1.52664 85.4 255)"/><path fill="#bab58f" d="M2 234l-15-48 19 2z"/><ellipse cx="36" cy="119" fill="#ead6c9" rx="7" ry="47"/><circle r="1" fill="#eaceb1" transform="matrix(8.92804 -14.56924 6.07996 3.7258 69.5 184)"/><ellipse cx="81" cy="36" fill="#e4ddd7" rx="27" ry="65"/><path fill="#466155" d="M13 74h17v66H13z"/><path fill="#dcbe96" d="M130.8 132.3l3.5 16.6-41 8.8-3.6-16.6z"/><path fill="#17270d" d="M66.9 271l-.8-21.6L82.9 271l-34.3-27.2z"/><path fill="#c0b19b" d="M88.1 180.7l14.8 47.7-2.2-30.2 73.6 68.5z"/><path fill="#c1beae" d="M77 110l71-6-68-23z"/><ellipse cx="145" cy="195" fill="#8d574c" rx="5" ry="35"/><path fill="#cba595" d="M144 200l-4 34-14-27z"/><path fill="#81968c" d="M36-16H14l15 80z"/><path fill="#252e1d" d="M62 149h8v21h-8z"/><path fill="#353930" d="M40 197L6 184l-1 27z"/><circle r="1" fill="#e1d8cb" transform="matrix(-2.87355 9.02211 -7.95664 -2.5342 1.3 147)"/><path fill="#0d1e00" d="M67 271l-25-25 14.9 25-24.3-1.1z"/><path fill="#467977" d="M155 104.3l12.5.8-.9 43.7-12.7-35.2z"/><path fill="#b4d2d4" d="M197 243h7v10h-7z"/><circle r="1" fill="#e9e5e4" transform="matrix(23.14083 13.84597 -6.85681 11.45981 203 161.8)"/><circle r="1" fill="#e4d3c0" transform="matrix(-5.60767 -.0957 .72512 -42.49156 7.4 92.1)"/><path fill="#363e35" d="M28 187l-29-13 31-20z"/><circle r="1" fill="#2c3f27" transform="matrix(.62515 -.9445 18.85473 12.47967 87.2 246.9)"/><path fill="#50615a" d="M8.3 2.3L3.4 4.2l8.7 56 18.8-37.7z"/><circle r="1" fill="#d9d2b9" transform="rotate(122.5 -24 152.7) scale(1 82.33251)"/><ellipse cx="51" cy="101" fill="#4a674e" rx="8" ry="37"/><circle r="1" fill="#baa598" transform="rotate(177 84.2 86.2) scale(6.13543 25.46129)"/><path fill="#465a3d" d="M90.4 236.3l35.3 35.3-2 2.1-35.4-35.3z"/><path fill="#d2ae8d" d="M111.8 199l-5.4 3.9-22.3-22.1 19.3-2.4z"/><path fill="#905b48" d="M120 151h27v24h-27z"/><path fill="#fffbdd" d="M69.2 257.3l-.7.8-19.7-15.4.7-.8z"/><path fill="#3a503a" d="M156 245l-12-13 24-15z"/><path fill="#415e50" d="M166.3 230.2l22.2-23.2-12.5-13 5.3 26.7z"/><path fill="#b5aaae" d="M44 166h9v9h-9z"/><path fill="#e9e1da" d="M71 127h6v54h-6z"/><circle r="1" fill="#ebdfc6" transform="rotate(122.9 -30 149) scale(1 71.1473)"/><path fill="#885c49" d="M101.7 172.1l17.5 41.7 6.2-11.1-20.5-33.2z"/><path fill="#e1d7c8" d="M-16 194v-15l25-16z"/><path fill="#b6b66b" d="M199.4 221l3.9 4.6-20.7 17.4-3.9-4.6z"/><path fill="#b0c6c2" d="M170 238l1 11-13 1-1-11z"/><path fill="#c09674" d="M139.5 192.4l-5.5-60.9-.9 15.5-3.2 48.9z"/><path fill="#b0b699" d="M84.3 240.6l-26.4-28.5 58 19-54.1 2.2z"/><path fill="#acb7b3" d="M112.8 43.4l30.2 36-3.8 3.2-30.2-36z"/><circle r="1" fill="#e2dbc8" transform="rotate(-112.5 89.4 112.7) scale(26.42383 20.0314)"/><path fill="#756c63" d="M154 150h14v34h-14z"/><path fill="#ead3a6" d="M101 162h16v6h-16z"/><path fill="#d0d2c5" d="M171 186l24-3-11 17z"/><path fill="#0f210a" d="M55.3 242.9l20 13.4-.6.8-20-13.4z"/><path fill="#3c3e35" d="M15 49l18 22-3 26z"/><path fill="#313432" d="M174.3 270.2l-1.6-30 9-.4 1.6 30z"/><path fill="#3e4f3b" d="M131 226l5 21-17-12z"/><path fill="#b2bfaa" d="M197.1 190.8l4.8 1.5-7 23-4.8-1.6z"/><path fill="#3d4438" d="M54.7 4.8l-2 79.7L39.6-9.2l17.2-.4z"/><path fill="#4a8764" d="M201 178l13 24-26-24z"/><path fill="#ede6da" d="M137 120h18v12h-18z"/><circle r="1" fill="#d1d9c3" transform="matrix(21.05633 43.23068 -2.87062 1.3982 110.5 245)"/></g></g></svg>