<svg xmlns="http://www.w3.org/2000/svg" viewBox="0 0 1120 1400"><defs/><filter id="a"><feGaussianBlur stdDeviation="12"/></filter><rect width="100%" height="100%" fill="#3e4a48"/><g filter="url(#a)"><g fill-opacity=".5" transform="translate(2.7 2.7) scale(5.46875)"><circle cx="102" cy="150" r="183" fill="#fff"/><circle cx="101" cy="255" r="105" fill="#ffffef"/><circle r="1" fill="#00293c" transform="matrix(27.0059 -.62712 .90238 38.85966 53.5 117)"/><circle r="1" fill="#000c0b" transform="matrix(-6.82024 -60.80383 8.80206 -.9873 48.5 38.4)"/><circle r="1" fill="#5c6b52" transform="matrix(6.48651 -26.21078 76.52275 18.93747 86.1 9.4)"/><circle r="1" fill="#164f4d" transform="matrix(-1.17109 14.90929 -37.4636 -2.94268 90 142.3)"/><circle r="1" fill="#eaf0e3" transform="matrix(-3.9197 160.65066 -22.9784 -.56065 4.2 186.9)"/><circle r="1" fill="#d5d8b9" transform="matrix(-21.99918 17.64446 -73.22365 -91.29552 163.5 135.4)"/><circle r="1" fill="#a19b6e" transform="matrix(-2.10752 -12.76277 66.9247 -11.05128 122 163.2)"/><path fill="#e6e8da" d="M27.6 277.3l-14.4-81.7 243.2-43 14.4 81.8z"/><circle r="1" fill="#01626f" transform="matrix(22.3905 -4.19027 7.13326 38.11624 55 117)"/><path fill="#d7e5dc" d="M30 26h12v64H30z"/><circle r="1" fill="#c7d5c9" transform="rotate(44.8 -63.5 155.7) scale(30.84953 16.7925)"/><path fill="#d0d3c3" d="M0 155h59v72H0z"/><circle r="1" fill="#7a8d88" transform="rotate(-149.8 98.5 108.7) scale(28.51538 4.01682)"/><path fill="#09424f" d="M31 107l24-64 9 55z"/><circle r="1" fill="#5b6450" transform="matrix(-29.0996 .81283 -.41036 -14.69098 107.4 11.5)"/><path fill="#8d9c99" d="M45 215.7l54.3 23-2.3 5.6-54.3-23z"/><circle r="1" fill="#909e85" transform="matrix(-19.39328 54.10963 -24.66642 -8.84063 155 27.9)"/><ellipse cx="26" cy="26" fill="#36545b" rx="4" ry="28"/><path fill="#150d08" d="M43 24h15v22H43z"/><circle r="1" fill="#a8b5a6" transform="rotate(135.6 32.7 39.5) scale(17.63883 30.69241)"/><path fill="#515c51" d="M93.3 148.5l25.2 5.5-20.7-39.6h-9.1z"/><path fill="#7c774e" d="M128 151h25v16h-25z"/><path fill="#87928a" d="M29.6 213.9l40.8 13.5-86.4-16.8 21.9-3.7z"/><path fill="#658180" d="M22 123h9v42h-9z"/><ellipse cx="16" cy="60" fill="#d2dbd7" rx="6" ry="162"/><path fill="#5b5b4b" d="M132 109l-6 37-17 6z"/><path fill="#cfd6c7" d="M93.1 140.2l-38.6 56.4 37.2-26.9 3.1-23.9z"/><path fill="#599395" d="M54.9 135.6l-11.7-5.5 34.9-44 1.4 32.7z"/><circle r="1" fill="#aab5a0" transform="matrix(81.30953 33.24872 -12.2137 29.86854 186.3 88)"/><path fill="#99aaa6" d="M46 0h33v12H46z"/><ellipse cx="54" cy="131" fill="#25535e" rx="28" ry="20"/><path fill="#372f21" d="M49-12L35-7v38z"/><path fill="#79a2a0" d="M85.3 158.8l-37.4-1.1 10.5 3.2 58.7-51.2z"/><path fill="#5c562b" d="M43.8 55.6l70.6 13.8-.2 1-70.6-13.8z"/><circle r="1" fill="#c9cfc4" transform="matrix(1.57206 -16.94633 31.04041 2.87953 175.7 128.8)"/><path fill="#d2dcd8" d="M120 98l-42.9.6 7.8 28.6 32.5-64.1z"/><path fill="#92a5a7" d="M46.1 35.7L6.1-16-4.5 54.9l35.9-57z"/><path fill="#3c828c" d="M27.4 129.6l7 16.8 38-54.3-6.9 52.4z"/><path fill="#c7d4cf" d="M26.4 106.9l5.3-62 12.2 5.7-9 44.8z"/><ellipse cx="102" cy="207" fill="#e5e8e2" rx="38" ry="28"/><path fill="#c0b993" d="M167.1 147.7l44-2.1-65 40.1-14.3 3.3z"/><circle r="1" fill="#7e897b" transform="matrix(9.16374 8.13595 -40.53098 45.65114 158.8 5)"/><circle r="1" fill="#898254" transform="rotate(-169.7 69.8 30.7) scale(70.68498 1)"/><path fill="#938c64" d="M76.7 166.3l-19 18.1 8.8-21.7 19 12.7z"/><path fill="#cdcdb5" d="M11 193l20-49 34 40z"/><path fill="#ecebe2" d="M0 189h61v17H0z"/><path fill="#00677a" d="M63 102l-34 23 9-40z"/><path fill="#49524e" d="M120.9 142l-12.2 28.8-.1-15.6-17.8-20.3z"/><circle r="1" fill="#203339" transform="matrix(1.75428 -.10355 3.49719 59.2453 46 59.7)"/><path fill="#424f4a" d="M116.5 241.5l.6-.7 20.4 17.7-.6.7z"/><ellipse cx="192" cy="215" fill="#dfdfce" rx="35" ry="54"/><circle cx="203" cy="152" r="6" fill="#6d6c4e"/><path fill="#515b4c" d="M73.6 10.4L75.1-16 67.6 2.9l-4.7 4.3z"/><path fill="#94a090" d="M107 104L76 92l25-11z"/><circle r="1" fill="#bac4b4" transform="rotate(-73 56.6 -31.7) scale(38.00569 2.11957)"/><path fill="#677670" d="M13.1 21.9L42 0 18.5 17.5l34 13.7z"/><path fill="#96b0ae" d="M22 64h6v63h-6z"/><path fill="#838f7e" d="M141.5 31.1L97.2-16 114 22.5l-21.6 32z"/><circle r="1" fill="#a2afa5" transform="rotate(-150.7 73.7 43) scale(14.17122 21.77318)"/><path fill="#c1c8bc" d="M95.2 65.7l-24.1-6 2.6-16.3 73 29.6z"/><path fill="#8d9b8f" d="M130 0h74v11h-74z"/><path fill="#62685b" d="M2.2 210.5l1.4-3.7 12.2 4.7-1.4 3.7z"/><path fill="#aaa780" d="M123 149.6l4-15.5 40.8 37.1-7.1-30z"/><path fill="#1d2021" d="M56 117l-7-6-16 13z"/><path fill="#b3bfab" d="M190 14h14v90h-14z"/><path fill="#e0e2d8" d="M-7.2 213.4l73.9 18.2 59.6 17-116 22.4z"/><path fill="#1e5159" d="M69.5 87.2l-21.3 16.6-11.7-15 21.3-16.6z"/><path fill="#183b45" d="M61 159l18-28-8-15z"/><ellipse cx="15" cy="136" fill="#7f8d80" rx="1" ry="38"/><circle r="1" fill="#c4cec2" transform="matrix(-4.67964 -10.99042 10.5898 -4.50906 74.4 76.6)"/><path fill="#4e5d59" d="M59 228l3 2 1-8z"/><path fill="#b6aa7e" d="M55 170l-16 18 16-4z"/><path fill="#ccd4d6" d="M11 2.1l-27 45.4 26.9 20.7L-14.5-16z"/><path fill="#d0ded2" d="M62 69l3-14-5-10z"/><path fill="#d7dedb" d="M10 38h13v55H10z"/><path fill="#555c4c" d="M56 13h51v5H56z"/><path fill="#93a39e" d="M46.6 17l5.6-13.8 9.2 3.7-5.6 14z"/><path fill="#110800" d="M143 160h3v4h-3z"/><path fill="#c0d4d4" d="M34-4L29 9l3 11z"/><path fill="#76a7a4" d="M95.3 143.1l-7.7-5.7-8.4-29.7-5.2 6.9z"/><path fill="#87806b" d="M3 138l6 2-1-10z"/><path fill="#d8dacc" d="M9.1 194.2L-8.1 169l49.6-2.6-36.2 50z"/><path fill="#83764b" d="M144.6 72.6l.7 8-10 .8-.6-8z"/><path fill="#cbd2c2" d="M87.8 156l-19.1 6.4L93 176.8l-.5-40.7z"/><path fill="#007e90" d="M65 97l-37 19 28-4z"/><path fill="#909277" d="M194.3 62.9L182.1 78l-22.5 7.2 32.2-5z"/><path fill="#a8b7b2" d="M41.2 26.8l2.7 28.4-9.9 3.4-1.9-29.5z"/><path fill="#575b4a" d="M207.8 102.2l-19 16.4-.6-.8 19-16.4z"/><path fill="#5a7f82" d="M40 128l29-1-3-18z"/><path fill="#5a614f" d="M123 17l22 4-32-31z"/><path fill="#3d4d4a" d="M95 146l11 2-17-32z"/><path fill="#aabdbb" d="M123 172l-21-12 1-13z"/><path fill="#e3e5da" d="M182 78.4l-.1 1-46-9.8.2-1z"/><path fill="#d4d6c2" d="M161.4 144.2l14.9 12.3 10.2-19.4 3.2-11.1z"/><path fill="#d8d9c8" d="M150 169h48v35h-48z"/><path fill="#95a2a0" d="M-1-16l16.3 60.2-29.5-17.4 17.6-9.5z"/><path fill="#8c9889" d="M184.4 37.2l-29.2 22.7 7.7 12.9L126-9.6z"/><path fill="#c0c5b5" d="M140.9 181.3l6.5-67.7-17-14.9-1.2-9.1z"/></g></g></svg>