<svg xmlns="http://www.w3.org/2000/svg" viewBox="0 0 1120 1400"><defs/><filter id="a"><feGaussianBlur stdDeviation="12"/></filter><rect width="100%" height="100%" fill="#423222"/><g filter="url(#a)"><g fill-opacity=".5" transform="translate(2.7 2.7) scale(5.46875)"><circle r="1" fill="#fff" transform="matrix(59.42917 129.80456 -175.27983 80.24937 90.1 112)"/><circle r="1" fill="#fff" transform="matrix(-48.62391 59.83171 -89.0503 -72.36922 50.2 77.7)"/><circle r="1" fill="#76441f" transform="rotate(-174.2 64.7 110) scale(105.33912 53.13455)"/><ellipse cx="196" cy="56" fill="#eaffff" rx="20" ry="99"/><ellipse cx="171" cy="141" fill="#483314" rx="6" ry="186"/><circle r="1" fill="#d2feff" transform="matrix(111.71672 -28.26868 5.5103 21.77648 81.2 7.3)"/><circle r="1" fill="#ffeec3" transform="matrix(13.20499 -.93653 3.15075 44.42527 5.4 178.7)"/><ellipse cx="21" cy="171" fill="#001200" rx="4" ry="32"/><circle r="1" fill="#725b44" transform="rotate(-81.8 218.8 21.3) scale(30.74635 104.44387)"/><path fill="#3b2200" d="M-3.3 254.6l-12-17.2 28.6-20 12 17.2z"/><ellipse cx="49" cy="77" fill="#ceecf4" rx="98" ry="36"/><circle r="1" fill="#e4be9b" transform="rotate(177.6 52.7 77.3) scale(44.6643 24.9071)"/><path fill="#54774d" d="M119.1 39L76.7 53.1l53.6-42.7 10.5 53.5z"/><ellipse cx="134" cy="216" fill="#0c0300" rx="6" ry="29"/><ellipse cx="41" cy="185" fill="#b5ac89" rx="17" ry="48"/><circle r="1" fill="#b8e2d8" transform="matrix(14.00046 7.0415 -10.89694 21.66615 146.7 24)"/><path fill="#75623b" d="M149.6 172.3l7-30.2 41.8 9.6-7 30.2z"/><ellipse cx="153" cy="85" fill="#564c2d" rx="5" ry="39"/><path fill="#346149" d="M81.3 162.6l7.7 2.8-.3-5.1-11.5-53.1z"/><circle r="1" fill="#ffdfc8" transform="rotate(-78.9 163.4 -10.4) scale(24.97134 10.69648)"/><path fill="#dad3ba" d="M72.8 263.3l61.9 3.5-37.5-16.5-2.1-14.8z"/><circle r="1" fill="#476c57" transform="matrix(-3.7047 -35.8776 1.93848 -.20017 98.7 134.3)"/><path fill="#4d0800" d="M104 167h32v4h-32z"/><path fill="#1f2012" d="M30 200h5v49h-5z"/><circle r="1" fill="#9f3c32" transform="matrix(12.06201 -12.2806 18.5164 18.18683 77.8 194)"/><path fill="#fddec0" d="M32.2 248.1l-30 3.1L32 271l17.4-28.8z"/><ellipse cx="195" cy="131" fill="#f0d0b3" rx="18" ry="28"/><path fill="#456252" d="M43 142l-7 63 13-29z"/><circle r="1" fill="#eabc98" transform="matrix(-2.49936 .00106 -.01258 -29.68306 146.3 194.2)"/><path fill="#373e2a" d="M41 252l45-17-14 36z"/><path fill="#faeed5" d="M158 166h6v26h-6z"/><circle r="1" fill="#f5d6b6" transform="matrix(39.64393 11.31297 -5.76296 20.1951 38.3 128.6)"/><path fill="#d5ecef" d="M82.5-32.8l53 35.8-20 29.8L62.5-3z"/><circle r="1" fill="#7c745e" transform="matrix(-14.72092 -12.74345 26.41957 -30.51925 187.7 226)"/><path fill="#b2d4d9" d="M175 0h29v88h-29z"/><path fill="#6c7f58" d="M171.7 24.6l-15.1 20.3 51.1 10.9-26.8-13.6z"/><path fill="#2f2716" d="M115 233.3l21.3 3.2 10.2-14.4-38.8 2.2z"/><path fill="#73915e" d="M134.1 6.7l-19.7 23.8 47.9-6.9-18.5-4z"/><circle r="1" fill="#efd5b8" transform="matrix(-3.14458 -.04391 .34746 -24.88317 29 191.2)"/><path fill="#413c20" d="M122.9 41.1l-20.3-22.7 24.8 16.3 18 33.5z"/><path fill="#f0c794" d="M139 242h6v14h-6z"/><ellipse cx="157" cy="140" fill="#746447" rx="5" ry="33"/><circle r="1" fill="#edd9c6" transform="rotate(-111.7 107.7 22.2) scale(45.01523 18.71618)"/><path fill="#3d5840" d="M25.9 149.9l.2 16.7-11.2 11.3 1.6-37.7z"/><ellipse cx="103" cy="199" fill="#d1b297" rx="2" ry="50"/><ellipse cx="170" cy="115" fill="#523b27" rx="4" ry="78"/><path fill="#676d50" d="M177.5 49.5l-.2-13.1-38.2 20.5 11.4 21.9z"/><path fill="#f6e0b8" d="M200.8 154.5l14.3 4.6-10 30.4L191 185z"/><path fill="#ffd2b5" d="M51 147h31v26H51z"/><circle cx="31" cy="17" r="60" fill="#c9e1e9"/><path fill="#a2503c" d="M129 160l2 56-35 2z"/><path fill="#312922" d="M36 221.2l-.1 24.1L11.8 221l-5.4 23.3z"/><ellipse cx="21" cy="255" fill="#dab594" rx="12" ry="20"/><path fill="#cfc1ab" d="M48.7 235l.1-18.5-9.4-69.1 2.1 57.7z"/><ellipse cx="87" cy="232" fill="#c9c0a5" rx="4" ry="12"/><path fill="#3a2d1f" d="M101.5 241.8l7.3 16.4L88.9 232l11.9-14.4z"/><path fill="#aab2aa" d="M171.1 51.7l-6.9-3.9-19.7 11.5-4.4 8.5z"/><circle r="1" fill="#cedcd9" transform="rotate(90.3 36.2 125.9) scale(26.95951 2.34498)"/><path fill="#d8bb9d" d="M126.1 235.1l5.5 2.4-7.7 17.4-5.5-2.4z"/><path fill="#aeae87" d="M219 267.7l-34.9-89.2-7.7 25.7 42.6 5.4z"/><ellipse cx="4" cy="181" fill="#f4d3b9" rx="13" ry="39"/><path fill="#5e3a21" d="M49.1 210l-3-12.7 8.5 59.8.7-40.9z"/><path fill="#f2b393" d="M124.5 179.6l16.5 6.7-24.4-36.7 31.7 26z"/><path fill="#f0ceb7" d="M45 194l9-17 3 24z"/><path fill="#c4e2e5" d="M125 30l18 24 10-7z"/><path fill="#8f3c30" d="M56 174h45v17H56z"/><path fill="#7b946f" d="M157.3 3.6l-26.1 14.7-56.2 32 54.8-19.2z"/><path fill="#534830" d="M153.3 202.9l21.6 4.9-26.1-21.9 9.8-33.5z"/><path fill="#46392c" d="M182.4 257l15.7-41.1 5.4 55.1-17.7-73.1z"/><path fill="#706d4a" d="M191 175l8-32-37 55z"/><ellipse cx="99" cy="128" fill="#587964" rx="2" ry="27"/><path fill="#47340a" d="M-1.6 246.7l17.7-7.1 1.5 3.7-17.7 7.1z"/><path fill="#ccb593" d="M108 172h3v55h-3z"/><path fill="#31390d" d="M31 172h5v8h-5z"/><path fill="#2c381c" d="M43 140h2v24h-2z"/><path fill="#4c6917" d="M119.5 32.9l-.8-.6L140.5 1l.8.6z"/><path fill="#ccbba1" d="M161 143h4v54h-4z"/><circle r="1" fill="#fd846c" transform="rotate(-90.2 140.2 33) scale(1.32641 46.95091)"/><ellipse cx="78" cy="219" fill="#3f1f12" rx="19" ry="2"/><path fill="#e6c199" d="M6.6 237.7l23 1.6-.2 3-23-1.6z"/><path fill="#0d2019" d="M38 189h3v20h-3z"/><path fill="#d1e4eb" d="M177 0h27v24h-27z"/><circle r="1" fill="#506c58" transform="rotate(161 29.4 85) scale(2.28456 14.25286)"/><circle r="1" fill="#543b2a" transform="rotate(144.5 68 57.6) scale(12.77492 3.00101)"/><path fill="#e2dad5" d="M0 92h96v24H0z"/><path fill="#324c3a" d="M15 146h10v19H15z"/><path fill="#f5ddc1" d="M26 135h3v74h-3z"/><ellipse cx="161" cy="9" fill="#c4e0e9" rx="4" ry="25"/><path fill="#bc7f65" d="M111.7 191.7l-50.9 1.9 72.1 9.1-67.5 2.6z"/><path fill="#d6b18e" d="M11 200l-27 17 41 2z"/><path fill="#372416" d="M126.8 45.6l.8-.6 25.6 29.4-.8.6z"/><path fill="#9c3622" d="M140 172h5v37h-5z"/><ellipse cx="191" cy="246" fill="#f5d5ba" rx="4" ry="3"/><path fill="#c7dadd" d="M115.1 36.5L161.5-16 219 40.7 170.7-16z"/><path fill="#809e81" d="M89.5 36.5l-7.2.5 47.8-13.9-27.3 28.7z"/><path fill="#9d4639" d="M60 205h43v14H60z"/><path fill="#ecd9b9" d="M143 202l6-13v15z"/><ellipse cx="191" cy="80" fill="#c9dde5" rx="13" ry="30"/><path fill="#b39169" d="M69 228l-18-20 15 41z"/><path fill="#7f694e" d="M163.2 174l1.6 18.5 18.1 76.3-3.4-108.1z"/></g></g></svg>