<svg xmlns="http://www.w3.org/2000/svg" viewBox="0 0 1120 1400"><defs/><filter id="a"><feGaussianBlur stdDeviation="12"/></filter><rect width="100%" height="100%" fill="#34424d"/><g filter="url(#a)"><g fill-opacity=".5" transform="translate(2.7 2.7) scale(5.46875)"><circle cx="91" cy="28" r="209" fill="#cedfa4"/><circle r="1" fill="#010f2a" transform="rotate(96.9 11.2 113.5) scale(48.83003 203)"/><circle r="1" fill="#ffffdb" transform="matrix(-164.66644 -12.88266 4.5651 -58.35127 103 0)"/><ellipse cx="39" cy="196" fill="#eaffa3" rx="184" ry="32"/><circle r="1" fill="#291500" transform="matrix(1.99227 14.17636 -113.60195 15.96498 89.5 245.6)"/><circle r="1" fill="#c8fb71" transform="matrix(59.3499 -13.702 2.14768 9.3026 181.6 254.3)"/><circle r="1" fill="#93a167" transform="matrix(-1.30994 -11.86527 127.7882 -14.10795 102.5 221.8)"/><path fill="#89ad98" d="M154.4 50.8l-7.8 30.9-98.2-19.6-62-31.2z"/><path fill="#2d3a3b" d="M216 186l3-54-200-3z"/><circle r="1" fill="#c7dc99" transform="rotate(-166.1 60.1 86.2) scale(123.95736 13.23472)"/><circle r="1" fill="#dae7b9" transform="matrix(-174.46495 -13.77892 1.1702 -14.81684 113 20.1)"/><path fill="#3a6892" d="M211.4 84L150 66.4l4.7-16.4L216 67.6z"/><path fill="#d9856e" d="M219 11l-34-27L97 1z"/><path fill="#88ad62" d="M-16 147.9l47.4 15.9L219 182.9 99.1 156.1z"/><path fill="#323f48" d="M0 56h47v37H0z"/><path fill="#9bbdd6" d="M220.5 47v14h-91V47z"/><path fill="#2f383a" d="M-4 148.7l1.1-22 89 4.6-1.2 22z"/><path fill="#a5c088" d="M106.1 64.1L-16 46.8l56.8-22.6 77.5 60.7z"/><circle r="1" fill="#686c49" transform="rotate(172.7 25 118.6) scale(124.83542 6.35367)"/><path fill="#4e6065" d="M111 65h58v58h-58z"/><circle r="1" fill="#a5bb83" transform="matrix(-2.49083 -12.07862 31.43567 -6.4826 24.3 222)"/><path fill="#282020" d="M120.7 261.7l32.9-34.7-82.2 8-87.4 22.8z"/><ellipse cx="69" cy="189" fill="#c9d9a0" rx="129" ry="13"/><path fill="#516a75" d="M30.2 77.3l4.4-22.6 41.2 8-4.4 22.6z"/><path fill="#37464f" d="M178 69h26v105h-26z"/><circle r="1" fill="#54742c" transform="matrix(1.03032 4.39279 -72.49739 17.0041 174 246)"/><path fill="#818b58" d="M219 220.8l-30.3-8.4-2.6-2-37.6 19.1z"/><ellipse cx="159" cy="106" fill="#60767b" rx="30" ry="6"/><circle r="1" fill="#b6ce92" transform="matrix(-.6856 -11.38802 116.19809 -6.99564 97.5 206.4)"/><path fill="#bad695" d="M217.5 244l2.5 9.7-49.5 12.3-2.5-9.7z"/><path fill="#64797f" d="M5.2 116.9L7.1 105l25.7 4.1-1.9 11.9z"/><path fill="#313b3e" d="M175.1 81l-55.2 4.9-79.8-15.2 136.6 28.2z"/><path fill="#637b60" d="M12.5 155.3l60.4.2-40.1-9.7-48.8-9.3z"/><circle r="1" fill="#7da8be" transform="rotate(-93.8 130.5 -64) scale(9.08043 19.125)"/><path fill="#2c2f2f" d="M25.1 82.7l96.1 12.6L-16 92l12.8-15.9z"/><path fill="#5e7a79" d="M158 79l29-25-96 22z"/><path fill="#a5be7f" d="M14 40l99 32-55-36z"/><circle r="1" fill="#84a6c2" transform="rotate(-172 60.8 26.2) scale(21.86757 4.06824)"/><path fill="#373f3b" d="M151.6 113l-32.1 11 41.2 9.8-2.9-61.5z"/><path fill="#d9c591" d="M191 13l-74-27L46 2z"/><path fill="#485b60" d="M107 140.6l33.3 7.1-3.3 15.7-33.3-7.1z"/><path fill="#d0dbbf" d="M125 48L84 8l135 41z"/><path fill="#869765" d="M22.7 224.5l-9.8 14.8 110.6-19.9-81.4 5z"/><path fill="#313532" d="M231.1 178.4l-4.7 11-51.5-21.8 4.7-11z"/><circle r="1" fill="#afca86" transform="rotate(86.5 -73 100.8) scale(5.23904 61.58634)"/><circle r="1" fill="#96ab77" transform="rotate(175.1 72.9 112.7) scale(66.8251 3.38236)"/><ellipse cx="195" cy="78" fill="#7d8374" rx="36" ry="2"/><path fill="#58686d" d="M29 92l44 12-49 1z"/><path fill="#b8cca3" d="M142.6 39.7L-16 16.2l178 52.4-41.4-6z"/><path fill="#86a4a7" d="M25.7 56.9L-16 55.1V38.6l77.2 17.8z"/><path fill="#232729" d="M203.1 94.8L214.6 50l4.4 55.8-67-14.2z"/><path fill="#b17474" d="M171.7-7.8L198.2-3l-1.9 10.9L169.8 3z"/><path fill="#2c4a60" d="M103 64h17v4h-17z"/><path fill="#697c7e" d="M98 107h70v3H98z"/><path fill="#343e44" d="M35 106h62v15H35z"/><path fill="#3d4e58" d="M76.3 63.8l63.9 29-20.9 20.1-46.6-42.3z"/><path fill="#687f86" d="M87 87h44v3H87z"/><circle r="1" fill="#90ad6c" transform="matrix(38.26714 8.79992 -.67612 2.94014 181.9 179)"/><path fill="#27201d" d="M-16 245.3L32.2 271l125-28.4-146.6.9z"/><path fill="#73888d" d="M141 94h11v10h-11z"/><path fill="#6c7a74" d="M40.9 78.7l-21.3.5 12-3.8 2.7-8.2z"/><path fill="#3f7596" d="M177.2 55.1l-11 6L219 65l-56.1-7.1z"/><circle r="1" fill="#20262a" transform="matrix(29.25113 -.66855 .02373 1.03819 110.2 92)"/><ellipse cx="3" cy="61" fill="#567283" rx="27" ry="4"/><path fill="#576769" d="M72 120h14v14H72z"/><path fill="#9ebec4" d="M88 50h19v14H88z"/><path fill="#28363e" d="M168 74h30v4h-30z"/><path fill="#2b353d" d="M100.5 126l33.3 10.8-4.3 13.3-33.3-10.9z"/><circle r="1" fill="#312e24" transform="rotate(-13 1113 -726.3) scale(73.31957 8.05025)"/><ellipse cx="181" cy="90" fill="#5a6e72" rx="24" ry="2"/><path fill="#2e3639" d="M82.2 89.9l5.1 14.3-49.6-8.3 41.2 1.9z"/><path fill="#5c6c6d" d="M138.7 128.8l-9.2 7.3-7.3-12.1 13 6.4z"/><circle r="1" fill="#707e7c" transform="matrix(.06011 -.9982 72.39004 4.35947 169.6 78.6)"/><circle r="1" fill="#617a46" transform="matrix(-.65805 2.69137 -19.75883 -4.83112 148.6 166.8)"/><circle r="1" fill="#545242" transform="matrix(-39.92237 5.14357 -.47659 -3.69907 71.4 235.8)"/><path fill="#313936" d="M148 79h14v22h-14z"/><path fill="#768f65" d="M166.7 67.6l-2.5 7.6-20.9-6.8 2.5-7.6z"/><path fill="#334035" d="M142 73h19v3h-19z"/><path fill="#f1dfbd" d="M175 12h29v6h-29z"/><path fill="#bb826b" d="M132 1h51v2h-51z"/><path fill="#7f9396" d="M140 95h13v3h-13z"/><path fill="#314146" d="M31 62L13 79l43-19z"/><ellipse cx="159" cy="62" fill="#34505a" rx="11" ry="2"/><path fill="#556564" d="M47 98V66l12 42z"/><path fill="#5c7174" d="M39 125h42v3H39z"/><path fill="#495c5f" d="M180 122l15-22-45 20z"/><ellipse cx="24" cy="42" fill="#a5ba8d" rx="77" ry="7"/><path fill="#546970" d="M77 112h33v3H77z"/><path fill="#3c5057" d="M64 66h29v18H64z"/><path fill="#627a80" d="M67.1 60.6L52.4 77.4 68 87.3 48.6 56.4z"/><path fill="#82a3b6" d="M157.5 66.3l.1-1 18.9 2.4-.1 1z"/><ellipse cx="54" cy="95" fill="#6a7f80" rx="20" ry="1"/><path fill="#222529" d="M93.8 150.5l-57.7-6 .1-1 57.7 6z"/><path fill="#9cb980" d="M91.9 57.4l11 14.4-17.7-7.9L-16 32.3z"/><path fill="#566c5d" d="M86.9 153.6l38.7 4.8-.5 4-38.7-4.8z"/><ellipse cx="136" cy="102" fill="#5e7683" rx="41" ry="1"/><path fill="#98aeaa" d="M42 51h9v9h-9z"/><path fill="#38454c" d="M106 105l15-9 25 9z"/><path fill="#3b5767" d="M107 66h36v3h-36z"/><path fill="#6c7f82" d="M56 103h20v3H56z"/></g></g></svg>