<svg xmlns="http://www.w3.org/2000/svg" viewBox="0 0 1120 1400"><defs/><filter id="a"><feGaussianBlur stdDeviation="12"/></filter><rect width="100%" height="100%" fill="#44443b"/><g filter="url(#a)"><g fill-opacity=".5" transform="translate(2.7 2.7) scale(5.46875)"><circle cx="130" cy="158" r="223" fill="#fff"/><circle cx="123" cy="88" r="220" fill="#fff"/><circle r="1" fill="#32342c" transform="matrix(-51.10907 .9576 -1.63392 -87.20616 101.6 127.3)"/><ellipse cx="178" cy="98" fill="#fff" rx="30" ry="255"/><ellipse cx="20" cy="169" fill="#fff" rx="33" ry="255"/><circle r="1" fill="#fff" transform="rotate(89.1 46.7 69.5) scale(26.66605 185.07856)"/><ellipse cx="72" cy="235" fill="#fff" rx="198" ry="27"/><path fill="#595a51" d="M52 160h33v50H52z"/><path fill="#5b5c53" d="M119 166h32v48h-32z"/><path fill="#53544d" d="M51 44h25v46H51z"/><ellipse cx="190" cy="163" fill="#fff" rx="41" ry="255"/><path fill="#4d4f44" d="M122 43l26 43V47z"/><ellipse cx="21" cy="178" fill="#fff" rx="32" ry="255"/><ellipse cx="101" cy="18" fill="#fff" rx="203" ry="30"/><ellipse cx="129" cy="244" fill="#fff" rx="203" ry="28"/><path fill="#1e1f17" d="M168 124l-5 10-14-9z"/><path fill="#73746d" d="M29 209l120-55 1 52z"/><path fill="#404239" d="M164.9 47.3l3.2 6.3-33.2 1.1-25.8 6.9z"/><path fill="#74756f" d="M152.5 172.2L24 112l32.4 23.4-6.2-93.5z"/><ellipse cx="42" cy="51" rx="10" ry="2"/><path fill="#5d5e57" d="M128 203l-8-19 50 24z"/><ellipse cx="188" cy="135" fill="#fff" rx="25" ry="253"/><ellipse cx="12" cy="124" fill="#fff" rx="25" ry="181"/><ellipse cx="84" cy="11" fill="#fff" rx="152" ry="30"/><path fill="#787973" d="M53 120h88v88H53z"/><path fill="#c7c4b9" d="M48 209h98v7H48z"/><circle r="1" fill="#fff" transform="matrix(-99.09694 4.6733 -1.30383 -27.64754 91.4 245.4)"/><path fill="#7f807b" d="M52 50h97v63H52z"/><path fill="#fff" d="M148 55h56v66h-56z"/><path fill="#353533" d="M36 203l15-1-14 7z"/><path fill="#fff" d="M51.3 202.8L-16 215.4-4.8 65.2l53.5 73.1z"/><path fill="#565852" d="M61.1 128.8l-24.5-11.2 6.8 9.9 27.6.7z"/><path fill="#54554f" d="M84.7 118.6l53 77.2L82 132.4l32.3 48.1z"/><path fill="#c3c3b7" d="M49 42h103v7H49z"/><path fill="#878882" d="M57 71h23v120H57z"/><path fill="#40403c" d="M84.6 136.5l-.8-.5 47.6-70.5.8.5z"/><circle r="1" fill="#fff" transform="matrix(22.30326 44.5526 -17.83401 8.9278 178.8 178.1)"/><circle r="1" fill="#474842" transform="rotate(-56 199.5 2.4) scale(47.71346 1)"/><path fill="#2a2a27" d="M69 52l.8-.6L115 116l-.9.5z"/><path fill="#54544a" d="M166.8 123.1l.6 2-20.2 5.8-.6-2z"/><path fill="#fff" d="M0 54h49v62H0z"/><path fill="#6c6e67" d="M31 49l25 5.6 22.7 24.9-1.9-31.2z"/><ellipse cx="146" cy="51" fill="#4c4d46" rx="19" ry="2"/><path fill="#fdfeff" d="M50.3 205.4l4.6 6.5-35.8 9.7 35.8-18.4z"/><ellipse cx="135" cy="158" fill="#858680" rx="16" ry="27"/><path fill="#373732" d="M35 119h6v4h-6z"/><path fill="#fff" d="M13.6-1.6l160-2.8.8 44-160 2.8z"/><path fill="#343528" d="M156.6 202l8.4 5.4-1.6 2.5-8.4-5.3z"/><path fill="#585954" d="M120.8 64l-50.2 76.3L82.9 123l35.2-47.7z"/><circle r="1" fill="#fff" transform="matrix(-98.95929 23.39298 -4.79313 -20.27636 123.2 238)"/><path fill="#3d3e3a" d="M122 141L67.2 65.6l.8-.6 54.6 75.2z"/><path fill="#fff" d="M151 134h53v68h-53z"/><path fill="#242525" d="M44 203h12v3H44z"/><path fill="#fff" d="M31.5 230.5l-8.9-126.2L43 131l10.8-3.2z"/><path fill="#888982" d="M84.7 184.6l-9.8 15.9 54.6 3.3-24.7-37.9z"/><path fill="#c8c7bf" d="M50 210h100v7H50z"/><path fill="#8f908a" d="M122 79h27v38h-27z"/><path fill="#5c5c57" d="M118 125l-8.1-13.2 15.8 15.5L84 183.7z"/><path fill="#60615b" d="M53 56h2v121h-2z"/><path d="M152 51.1v-1l8 .8v1z"/><path fill="#777973" d="M122 48h25v20h-25z"/><path fill="#fff" d="M168.4 247.3L219 25.8l-54.7 27.3 2.1-40.6z"/><path fill="#6f706c" d="M52.7 108.7l-2.4-45 7-.4 2.4 45z"/><ellipse cx="42" cy="50" fill="#3c3e3a" rx="7" ry="2"/><path fill="#fff" d="M27 106l27 20-8-66zm17.5 113l159.2 7.4-53.6-21.9-5.7 66.5zM0 129h52v72H0zm160.3 3.7l-11.9-4.3.6 9.6 70 101.7zM21 216.8l30.3-10.4 1.6 4.8-30.2 10.4z"/><path fill="#21251f" d="M161.4 45.4l.9-.4 2.3 5.6-.9.4z"/><circle r="1" fill="#4e4e49" transform="matrix(-.82219 .56921 -29.14981 -42.10497 106.2 166.3)"/><ellipse cx="53" cy="126" fill="#444740" rx="8" ry="2"/><path fill="#3c3d38" d="M67.3 207.2l42.5-63 .9.6-42.5 63z"/><path fill="#d2d3cb" d="M106 40h46v8h-46z"/><path fill="#f8f9f7" d="M42 41h9v9h-9z"/><path fill="#8a8c87" d="M78 114L51.4 85.7 66 71.9l26.6 28.5z"/><path fill="#fff" d="M150 56h54v67h-54z"/><path fill="#4a4a45" d="M164.5 128l-1.9-5.7 1-.3 1.8 5.7z"/><path fill="#33332f" d="M131.8 55.7L109 85l-.8-.6L131 55z"/><path fill="#7a7b75" d="M57.1 108.4L77.3 133l19.5-8.1-44.9 34.5z"/><path fill="#90918a" d="M122 186.6L99.4 149l2.6-1.5 22.6 37.7z"/><path fill="#8b8c87" d="M109 107l40-66-21 78z"/><path fill="#8a8b86" d="M122 63L69 51l34 38z"/><path fill="#d6d2c1" d="M153 127h17v2h-17z"/><ellipse cx="120" cy="204" fill="#6b6c61" rx="41" ry="2"/><path fill="#7d7f79" d="M150 210l-3-82-35-1z"/><path fill="#8b8c84" d="M65 160l24-4-24 38z"/><circle r="1" fill="#c1bfb8" transform="matrix(0 2.65778 -40.17084 0 96.8 211.2)"/><circle cx="151" cy="48" r="3" fill="#fff"/><path fill="#50514e" d="M51 51h2v32h-2z"/><path fill="#31322e" d="M135.6 62.5l-1.6-1.3 6.4-7.7 1.6 1.3z"/><path fill="#585856" d="M165 134l-.6.8L151 126l.6-.9z"/><path fill="#2c2f2a" d="M147 125h9v2h-9z"/><path fill="#fff" d="M-4 180l56-94L8 3z"/><path fill="#b8b5ad" d="M45.6 42.2l29 1.6-.2 2-29-1.6z"/><path fill="#484844" d="M71.7 71.4l-.9.5-12.5-19.3.9-.5z"/><path fill="#fff" d="M-8.8 225.1l44.9-82.8L34.9 271l18.7-65.7z"/><path fill="#53534f" d="M125.1 184.3l-31.2-52.5 30.1 46.8 24.6 32.9z"/><path fill="#8c8d87" d="M81.8 72.5L63 47.7l8.6 20.1 27 30.2z"/><path fill="#d7d3c4" d="M45 199l3 4-10-1z"/></g></g></svg>