<svg xmlns="http://www.w3.org/2000/svg" viewBox="0 0 1120 1400"><defs/><filter id="prefix__a"><feGaussianBlur stdDeviation="12"/></filter><rect width="100%" height="100%" fill="#4e3e2d"/><g filter="url(#prefix__a)"><g transform="translate(2.7 2.7) scale(5.46875)"><circle r="1" fill="#fff" fill-opacity=".5" transform="rotate(-107.3 84.2 32.5) scale(181.35215 190.55996)"/><circle r="1" fill="#fcf9f6" fill-opacity=".5" transform="matrix(.03174 84.4024 -202.99999 .07635 104.2 61.6)"/><circle r="1" fill="#855312" fill-opacity=".5" transform="rotate(-96.4 168.4 78.9) scale(59.26882 78.9886)"/><circle r="1" fill="#dacec5" fill-opacity=".5" transform="matrix(-45.06242 -16.62488 38.70499 -104.91147 21.2 161.8)"/><circle r="1" fill="#c6beb8" fill-opacity=".5" transform="rotate(47.5 -90.9 280) scale(141.85726 39.35829)"/><circle r="1" fill="#a28560" fill-opacity=".5" transform="matrix(35.83096 34.12136 -17.18814 18.04932 106.3 173.2)"/><circle r="1" fill="#ebe7e4" fill-opacity=".5" transform="matrix(.53216 -16.01723 99.55587 3.30767 99.5 37)"/><path fill="#a1a6ac" fill-opacity=".5" d="M78 58h50v88H78z"/><ellipse cx="146" cy="255" fill="#7a542a" fill-opacity=".5" rx="122" ry="11"/><circle cx="179" cy="139" r="48" fill="#d4c9c0" fill-opacity=".5"/><circle r="1" fill="#ece9e3" fill-opacity=".5" transform="matrix(13.90224 .87653 -4.4122 69.97973 166 44.7)"/><path fill="#221500" fill-opacity=".5" d="M104 126l-10-9 5 14z"/><circle r="1" fill="#b9986e" fill-opacity=".5" transform="rotate(-84.2 157.1 42.2) scale(27.71903 39.57544)"/><circle r="1" fill="#5e6265" fill-opacity=".5" transform="rotate(-68.2 165.5 -4.8) scale(8.23282 17.50327)"/><path fill="#eff5ff" fill-opacity=".5" d="M105 93h10v46h-10z"/><ellipse cx="39" cy="152" fill="#cfc4bc" fill-opacity=".5" rx="38" ry="41"/><circle r="1" fill="#dfdad5" fill-opacity=".5" transform="matrix(-7.02025 -61.07204 35.58672 -4.0907 43.6 57.3)"/><circle r="1" fill="#bba897" fill-opacity=".5" transform="rotate(140.6 53.4 142.3) scale(13.82988 38.91484)"/><path fill="#b2a284" fill-opacity=".5" d="M139 49h11v57h-11z"/><ellipse cx="131" cy="39" fill="#f1f0ee" fill-opacity=".5" rx="5" ry="74"/><path fill="#eadcc7" fill-opacity=".5" d="M78 164h42v5H78z"/><circle r="1" fill="#b5a396" fill-opacity=".5" transform="matrix(-18.18577 -16.66419 28.05273 -30.61419 11 234.3)"/><path fill="#f0d2bf" fill-opacity=".5" d="M68 188h25v10H68z"/><circle r="1" fill="#a18157" fill-opacity=".5" transform="matrix(-10.31343 9.71981 -24.25502 -25.73635 135.4 195)"/><path fill="#f4fbff" fill-opacity=".5" d="M88 101h6v38h-6z"/><path fill="#927047" fill-opacity=".5" d="M88.6 252.1l-51.5 10.3 54-122.5-42.2 75.4z"/><path fill="#a59c92" fill-opacity=".5" d="M126.9 60l-2.3 14.8L81 68l2.3-14.8z"/><circle r="1" fill="#c0b6ae" fill-opacity=".5" transform="matrix(14.67098 .5636 -1.7702 46.07969 1 133.5)"/><path fill="#a8a8ac" fill-opacity=".5" d="M93.1 137.6l-18.5 29.3 13.8-67.2-30.9 42.6z"/><ellipse cx="110" cy="246" fill="#504635" fill-opacity=".5" rx="70" ry="2"/><path fill="#5d3100" fill-opacity=".5" d="M120 253h55v3h-55z"/><path fill="#392e1c" fill-opacity=".5" d="M99 234h67v2H99z"/><path fill="#ece9e8" fill-opacity=".5" d="M147.6 56.3L88.9 42.8l35.7-34.5 12.3 37z"/><circle r="1" fill="#a69583" fill-opacity=".5" transform="matrix(-17.34742 4.13945 -5.05434 -21.18152 203.1 234.4)"/><path fill="#c7beb2" fill-opacity=".5" d="M219-7v33l-72 5z"/><ellipse cx="132" cy="249" fill="#b7986c" fill-opacity=".5" rx="31" ry="2"/><path fill="#f6f9fd" fill-opacity=".5" d="M157.6 17l5.6-17 15.2 5-5.6 17z"/><path fill="#d3d9e2" fill-opacity=".5" d="M84.2 95.1l26.8 26.3-21.8-2.5 17.9-27.2z"/><ellipse cx="94" cy="122" fill="#362f1f" fill-opacity=".5" rx="2" ry="4"/><path fill="#c7b8ab" fill-opacity=".5" d="M190.4 207.5L174.8 220l-35.2-43.6 15.6-12.6z"/><ellipse cx="118" cy="132" fill="#a69c90" fill-opacity=".5" rx="5" ry="19"/><ellipse cx="116" cy="230" fill="#483c2a" fill-opacity=".5" rx="52" ry="1"/><ellipse cx="91" cy="225" fill="#372e1f" fill-opacity=".5" rx="31" ry="1"/><circle r="1" fill="#c3b8af" fill-opacity=".5" transform="matrix(7.25772 .62777 -6.89376 79.69942 200.2 109.7)"/><circle r="1" fill="#ccc4b8" fill-opacity=".5" transform="matrix(-3.62205 31.79033 -18.41121 -2.0977 83.3 3.7)"/><path fill="#fffaf9" fill-opacity=".5" d="M81 165h15v3H81z"/><path fill="#767a75" fill-opacity=".5" d="M107 113l-6-11-3 7z"/><circle r="1" fill="#e5e0de" fill-opacity=".5" transform="matrix(15.49101 -3.28592 5.34388 25.193 42.1 64.4)"/><path fill="#d5af7c" fill-opacity=".5" d="M65 227h91v2H65z"/><circle r="1" fill="#9f8058" fill-opacity=".5" transform="matrix(-34.95448 -57.47438 4.34397 -2.6419 148.8 200.8)"/><path fill="#787671" fill-opacity=".5" d="M77.4 158.4l29.8-31-12.5-10 7 32.2z"/><ellipse cx="104" cy="240" fill="#504432" fill-opacity=".5" rx="61" ry="1"/><path fill="#bea585" fill-opacity=".5" d="M56.4 263l92.6-64.8.6.8L57 263.8z"/><ellipse cx="115" cy="213" fill="#594a33" fill-opacity=".5" rx="35" ry="1"/><path fill="#b69776" fill-opacity=".5" d="M62 196h45v11H62z"/><circle r="1" fill="#f6f4f5" fill-opacity=".5" transform="matrix(-4.42209 -.79566 3.4291 -19.05817 168.8 55.7)"/><ellipse cx="118" cy="101" fill="#b0aaa0" fill-opacity=".5" rx="5" ry="49"/><path fill="#b69b74" fill-opacity=".5" d="M109 242l21-9-21 17z"/><path fill="#7e4a12" fill-opacity=".5" d="M64 253h50v3H64z"/><path fill="#ad9370" fill-opacity=".5" d="M154.5 237.5l20.7-19.9-34.1 36.6-4.2-.8z"/><path fill="#a88458" fill-opacity=".5" d="M50.9 212.6l-12.7 45.3 25.7-47.5L77 199z"/><circle r="1" fill="#d1cbc4" fill-opacity=".5" transform="rotate(-56.4 144 15.8) scale(40.01911 18.71195)"/><ellipse cx="114" cy="210" fill="#594b36" fill-opacity=".5" rx="38" ry="1"/><path fill="#cfa776" fill-opacity=".5" d="M120 238v1l-62-1v-1z"/><path fill="#857d74" fill-opacity=".5" d="M95 154h33v11H95z"/><path fill="#b9a283" fill-opacity=".5" d="M151.6 204.5l.6.8-63.8 48.2-.6-.8z"/><path fill="#76675d" fill-opacity=".5" d="M3 250l6-12 2 4z"/><path fill="#d6cec7" fill-opacity=".5" d="M150 75h32v84h-32z"/><path fill="#6a655a" fill-opacity=".5" d="M141 60h2v13h-2z"/><circle r="1" fill="#d9d3c9" fill-opacity=".5" transform="matrix(8.60845 -5.03037 26.84435 45.9386 134.2 11.7)"/><path fill="#75562d" fill-opacity=".5" d="M146.5 220.5l14.8-6.5-31.2 27.4-25.7 22.3z"/><path fill="#e5ccb9" fill-opacity=".5" d="M68.3 191.8l-4.7 10.1 18.2-9.1-3.7-6.8z"/><ellipse cx="185" cy="201" fill="#bbaba1" fill-opacity=".5" rx="20" ry="29"/><circle cx="75" cy="178" r="7" fill="#9a7c56" fill-opacity=".5"/><circle r="1" fill="#bba68d" fill-opacity=".5" transform="rotate(149.6 36.3 117.2) scale(93.43507 1)"/><path fill="#5b4b34" fill-opacity=".5" d="M53.5 237.7v-1l69-2.4v1z"/><path fill="#e1e5ef" fill-opacity=".5" d="M103 113h4v18h-4z"/><path fill="#b38d64" fill-opacity=".5" d="M53 249h24v5H53z"/><path fill="none" stroke="#c4ac8e" stroke-opacity=".5" stroke-width=".5" d="M98.8 224.4q-10 7.1-35.8 22"/><ellipse cx="81" cy="131" fill="#8c8e97" fill-opacity=".5" rx="2" ry="21"/><ellipse cx="101" cy="221" fill="#5a4c37" fill-opacity=".5" rx="44" ry="1"/><ellipse cx="76" cy="241" fill="#604f38" fill-opacity=".5" rx="39" ry="1"/><path fill="#c5b5aa" fill-opacity=".5" d="M31 233l-47-73 82 24z"/><circle r="1" fill="#5b3a16" fill-opacity=".5" transform="rotate(31.7 -390.7 305) scale(2.30618 8.01708)"/><circle r="1" fill="#beb4ab" fill-opacity=".5" transform="matrix(-4.82457 -19.25634 8.91105 -2.23261 138.1 157)"/><path fill="#dddfe5" fill-opacity=".5" d="M6 247l1 7 5-11z"/><circle r="1" fill="#c2bab0" fill-opacity=".5" transform="matrix(-18.43513 -4.32392 4.70088 -20.0423 202 .6)"/><ellipse cx="101" cy="80" fill="#7c746c" fill-opacity=".5" rx="14" ry="1"/><path fill="#6e654f" fill-opacity=".5" d="M103.2 134.1l-8-1.4 1.6-8.8 8 1.4z"/><ellipse cx="131" cy="225" fill="#473925" fill-opacity=".5" rx="5" ry="2"/><path fill="#b1a79b" fill-opacity=".5" d="M136 84h8v24h-8z"/><circle r="1" fill="#d5cfcb" fill-opacity=".5" transform="rotate(-145.4 4.9 15.6) scale(23.6364 68.43941)"/><path fill="#dce1f0" fill-opacity=".5" d="M93 133.7l18.6 3.6-.6 3-18.6-3.6z"/><path fill="#b98b51" fill-opacity=".5" d="M117.7 248.6l-14.8 2.5 22.5 6.9-69.8-52.1z"/><circle r="1" fill="#c9bcb3" fill-opacity=".5" transform="rotate(-165.8 93.8 72.6) scale(19.47216 34.49982)"/><path fill="#b69f80" fill-opacity=".5" d="M124 208.6l.5.8-70.4 44-.6-.8z"/><ellipse cx="82" cy="233" fill="#cca574" fill-opacity=".5" rx="31" ry="1"/><path fill="#987853" fill-opacity=".5" d="M201 247l-8.5-9.2-7 33.2-17.9-38z"/><path fill="#6b4c24" fill-opacity=".5" d="M159.8 220.3L119.5 271l13.6-25.9 13.9-3.3z"/><circle r="1" fill="#cbc4b4" fill-opacity=".5" transform="rotate(-41 389.3 -134) scale(1.2753 61.19486)"/></g></g></svg>