<svg xmlns="http://www.w3.org/2000/svg" viewBox="0 0 1400 933"><defs/><filter id="a"><feGaussianBlur stdDeviation="12"/></filter><rect width="100%" height="100%" fill="#4d3f38"/><g filter="url(#a)"><g fill-opacity=".5" transform="translate(2.7 2.7) scale(5.46875)"><circle r="1" fill="#ddfbff" transform="matrix(-27.2668 -35.40666 51.68796 -39.80509 236.5 42.2)"/><path fill="#d2e1df" d="M-5-15l157 9L-8 123z"/><ellipse cx="70" cy="169" fill="#d2b393" rx="164" ry="17"/><circle r="1" fill="#9d9176" transform="matrix(20.50529 -21.70105 38.93561 36.7902 86 88)"/><path fill="#fff" d="M14.4 21.7l37 29.6L63.8 33 49.9 16.9z"/><path fill="#c2d3ed" d="M211.2 25.4L271 70.3v48.8l-63.4-60z"/><ellipse cx="236" cy="146" fill="#000910" rx="20" ry="65"/><circle cx="196" cy="100" r="30" fill="#8a8191"/><path fill="#96a0a1" d="M-8.7-5L136 17.8 271 6.5 84.4-16z"/><path fill="#00050a" d="M142 152l53-1-72-85z"/><path d="M127.8 52.9l-23.5-24.8-7.3 2.1-16.9 18.9z"/><path fill="#9f9c92" d="M-16 56l143-4-108 59z"/><ellipse cx="204" cy="3" fill="#080600" rx="3" ry="82"/><path fill="#0f161d" d="M-5 153l-11-53 181 51z"/><path fill="#000711" d="M17 0h5v81h-5z"/><circle r="1" fill="#081014" transform="matrix(-31.5639 -1.47103 .13654 -2.92973 41.2 13.4)"/><path fill="#ead098" d="M109 84v56L92 90z"/><path fill="#362e31" d="M60 34l46 104-47-42z"/><path fill="#5c4f28" d="M79 86L211 7l-31 69z"/><path fill="#000004" d="M183 136h73v17h-73z"/><path fill="#110f00" d="M52.5 53.8l-23.6-17 14 8.2-29.2 5.5z"/><path fill="#e9ffff" d="M248 71h8v32h-8z"/><path fill="#0c0c05" d="M136 73l-13 40 66-25z"/><path fill="#8c9279" d="M162 82.1l21.4-56.5 21.8-39.9-1.2 88.6z"/><path fill="#2c1b20" d="M168 150l39-70-5 39z"/><path fill="#fff" d="M66 29l-46 3 2-16z"/><path fill="#ccdcf4" d="M206.7 60.7l31 .6-.4 22-31-.6z"/><path fill="#807e93" d="M228 106h8v31h-8z"/><path fill="#d9c39c" d="M23 54h36v29H23z"/><ellipse cx="10" cy="164" fill="#beab97" rx="53" ry="11"/><path fill="#d9d8b4" d="M202 78l-21 4 22-45z"/><path fill="#f6b0d1" d="M167 95h28v6h-28z"/><path fill="#7f6853" d="M97 153h127v17H97z"/><path fill="#55360c" d="M121 17h49v67h-49z"/><ellipse cx="67" cy="14" rx="1" ry="64"/><circle r="1" fill="#0a0300" transform="matrix(-2.54079 10.45232 -5.90194 -1.43466 241 92.8)"/><path fill="#b8c4c9" d="M68 70h28v10H68z"/><path fill="#0d0a0c" d="M82 102h15v30H82z"/><path fill="#9799a5" d="M52.8 106.8l-63.5 1.4-4.9-72.6 60.2 60.3z"/><path d="M74 85.8v-4l48-1.6v4z"/><path fill="#8999a8" d="M237.2 79l-32 57.8-10.4-5.8 32-57.8z"/><path fill="#e3b9b4" d="M73.8 106.2l10.2 6.3-5.8 9.3-10.2-6.3z"/><path fill="#7c5a66" d="M160 116h23v20h-23z"/><path fill="#000502" d="M94.2 54.4L80.1 38.8l29.5-7.6 10.6 18.7z"/><path fill="#000002" d="M204 0h3v81h-3z"/><path fill="#232010" d="M158 13h24v34h-24z"/><path fill="#9b9d9e" d="M68 0h53v33H68z"/><path fill="#777868" d="M73 52h47v21H73z"/><path fill="#07150c" d="M178 52h25v3h-25z"/><path fill="#d6caab" d="M117 114l-14 19-5-19z"/><path fill="#ba9cb0" d="M181.6 105.6l-19.4 2.1 35.5 6-28.7-22z"/><ellipse cx="19" cy="9" fill="#172027" rx="2" ry="104"/><circle r="1" fill="#55636e" transform="matrix(3.80905 54.3994 -4.90007 .3431 9.1 .3)"/><path fill="#88724a" d="M151 139l-49-23 11-27z"/><ellipse cx="144" cy="138" fill="#25282d" rx="44" ry="9"/><path fill="#816757" d="M79 80l-45-2 6 36z"/><path fill="#030000" d="M24 108h14v29H24z"/><path d="M31 50h38v2H31z"/><path fill="#3d1f21" d="M209.4 106.6l-10.2-8.2-5.3-2.5-11 26.2z"/><circle r="1" fill="#0d100f" transform="matrix(-43.55143 -20.40513 4.74448 -10.12633 240.4 156.7)"/><ellipse cx="188" cy="16" rx="19" ry="2"/><path fill="#05090b" d="M155 133l-31-44 44-1z"/><circle r="1" fill="#7f6f61" transform="matrix(34.75 4.0264 -1.7088 14.74787 200.7 169)"/><circle r="1" fill="#a7b2c1" transform="matrix(-19.02788 30.33304 -13.13448 -8.23924 229 40.1)"/><ellipse cx="16" cy="50" fill="#b2c4d3" rx="2" ry="32"/><ellipse cx="2" cy="71" fill="#c2d6e8" rx="2" ry="35"/><path fill="#8f908f" d="M159-7L79 16h78z"/><path fill="#6d6670" d="M13.1 116.2L31.4 106 11 72.8l.7 12.8z"/><path fill="#d2c6ab" d="M100 106L89 83l15 4z"/><path fill="#3f2610" d="M66 106L44 83l18 46z"/><path fill="#fff" d="M25 20h27v12H25z"/><ellipse cx="160" cy="27" fill="#0d1416" rx="2" ry="92"/><path fill="#b9c3c8" d="M191 99.6l11.6-24.3-1-16.3-15.4 39.2z"/><path fill="#25261d" d="M248 90.8l-3.2-6.4-19 14.2-11.6 28.1z"/><path d="M46 13h21v3H46z"/><path fill="#cbdbec" d="M164 107h23v3h-23z"/><path fill="#99aeb8" d="M172 48h8v16h-8z"/><path fill="#142228" d="M66 0h2v73h-2z"/><path fill="#74727c" d="M193 84h37v17h-37z"/><circle r="1" fill="#f4daa2" transform="matrix(4.44512 -7.02044 10.22447 6.4738 46.8 39.5)"/><path d="M85 105l-12-8V83z"/><path fill="#2d1214" d="M166 112h38v5h-38z"/><path fill="#000203" d="M172 86h17v8h-17z"/><path d="M163 52h24v2h-24z"/><path fill="#bccbdb" d="M206 62h50v20h-50z"/><path fill="#7d1d2b" d="M169 100h26v6h-26z"/><path fill="#040707" d="M241 110h15v26h-15z"/><path fill="#b1a9b8" d="M166 121h20v3h-20z"/><ellipse cx="132" cy="59" fill="#674926" rx="13" ry="30"/><path fill="#675f4f" d="M72 34h15v16H72z"/><path fill="#b2a79f" d="M18 83l15-11 8 39z"/><path fill="#4e413f" d="M42 133h75v7H42z"/><circle cx="167" cy="169" r="17" fill="#6a5043"/><path fill="#3a3a2b" d="M195 24h3v27h-3z"/><path fill="#d1ba91" d="M36.6 43.6L19.7 30.2l19 3L22.1 47z"/><path fill="#916e5f" d="M73 81l20 34-6-22z"/><path fill="#7d7354" d="M121.2 43l-19.4-15.8 5-6.2 19.4 15.8z"/><path fill="#000102" d="M18 49h27v3H18z"/><path fill="#25201f" d="M93.4 101l13.8 49.5L87.4 99l4.3-6.4z"/><path fill="#e4be6e" d="M196.4 68.9l-10.6 2.7-2.3 4.1 4.6-19.9z"/></g></g></svg>