<svg xmlns="http://www.w3.org/2000/svg" viewBox="0 0 1121 1400"><defs/><filter id="a"><feGaussianBlur stdDeviation="12"/></filter><rect width="100%" height="100%" fill="#453631"/><g filter="url(#a)"><g fill-opacity=".5" transform="translate(2.7 2.7) scale(5.46875)"><circle r="1" fill="#f2e1f0" transform="matrix(-94.6344 -179.49012 156.63073 -82.58201 144.2 154.6)"/><circle r="1" transform="matrix(2.42166 59.50947 -20.5945 .83807 192 142)"/><circle r="1" fill="#f1e6ed" transform="rotate(-92 194.7 44.6) scale(84.89247 37.57103)"/><circle r="1" fill="#f1f4f4" transform="rotate(152 -2.3 120.8) scale(35.31963 54.36247)"/><circle r="1" fill="#f8fffc" transform="matrix(35.2772 .67736 -.42934 22.36054 179.4 34.2)"/><ellipse cx="99" cy="148" fill="#37475f" rx="26" ry="101"/><circle r="1" fill="#35250c" transform="matrix(-33.24787 -9.19663 4.83752 -17.4887 112 18.8)"/><path fill="#fff" d="M0 17h56v19H0z"/><circle r="1" fill="#584b2d" transform="matrix(-30.9365 19.84829 -10.02855 -15.63099 8 76.8)"/><circle r="1" fill="#e26ac3" transform="rotate(178.9 67.6 63.1) scale(14.92632 72.01169)"/><ellipse cx="197" cy="41" rx="51" ry="2"/><circle r="1" fill="#050000" transform="matrix(-9.37674 29.0436 -5.68955 -1.83687 103 246)"/><path fill="#220300" d="M162.5 148.1l-11.6.2 4.3-26.6 6.8-20.2z"/><path fill="#fffffb" d="M157 67h18v30h-18z"/><path fill="#da5bb6" d="M52 68h21v134H52z"/><path fill="#4a3b28" d="M175 54h30v149h-30z"/><path fill="#49483e" d="M3.8 83.5l29.3 68.3 21.2-29.9-70.3 27.8z"/><path d="M-8.8 229.5l31.2-12.6-38.4-16 28.2 25.4z"/><ellipse cx="44" cy="7" fill="#000200" rx="10" ry="9"/><path fill="#d5d6d4" d="M24.9 171.8L-16 125.4l53 123.9 22.7-128.5z"/><circle r="1" fill="#ffc108" transform="matrix(5.84058 3.0661 -8.14758 15.52025 169.4 114.7)"/><path d="M80.9 30.7l2 10.5 12.3-9.6-3.1-26.4zM0 37h49v5H0z"/><ellipse cx="174" cy="29" fill="#fff" rx="32" ry="10"/><path fill="#fdffee" d="M76.9 57.8L41.6 88.4 40 95.6l5.5 9.9z"/><ellipse cx="106" cy="48" fill="#d68db3" rx="30" ry="16"/><circle r="1" fill="#deebe2" transform="matrix(6.55474 18.10728 -28.46113 10.30279 142.7 216)"/><path fill="#121b11" d="M56.5 104.2l-22.4-2.4 10.5 29.8-.3-20.4z"/><path fill="ivory" d="M57.7 53.7L9.8 51.2l.5-9 47.9 2.6z"/><circle r="1" fill="#000002" transform="matrix(-2.4673 -12.46079 10.08142 -1.99618 133.6 26.1)"/><path fill="#e2e2d7" d="M102.1 235l-23.8-31.4-78.2-1.7 105.4 39.9z"/><path fill="#dcc7ba" d="M183 161l10 15-52-3z"/><path fill="#e5e3be" d="M154.3 31.9L141 12.4l-25.9-3.8L147.5-16z"/><ellipse cx="194" cy="84" fill="#a6a3ac" rx="12" ry="11"/><circle r="1" fill="#262123" transform="matrix(-29.03056 -3.04538 3.89547 -37.13415 198.8 134.4)"/><path fill="#7bac33" d="M85 168h16v51H85z"/><ellipse cx="27" cy="112" fill="#ecf9f6" rx="4" ry="33"/><path fill="#3e342a" d="M-16 107.2l38.1 55.2 35.8-6.6L18 167.5z"/><path fill="#322432" d="M129.1 197.6L114 216.2l-17.1-13.8 15.1-18.6z"/><path fill="#c4c9c0" d="M0 227h94v29H0z"/><path fill="#fff" d="M14 129l1 21-12-23z"/><path fill="#da76b9" d="M162 197L133 58l-14 135z"/><path fill="#c7ae80" d="M97 6h12v60H97z"/><ellipse cx="182" cy="41" fill="#2d3435" rx="39" ry="3"/><path fill="#0f0d10" d="M25.5 135.5l9.2 10.1 1.8-.2 19.8-5.3z"/><circle r="1" fill="#f3b67c" transform="matrix(-1.82555 -17.08208 4.82948 -.51612 204.1 189.5)"/><path d="M2 117l19 17v-11z"/><path fill="#94875f" d="M61-16h38L56 80z"/><path fill="#c89330" d="M156 107.4l29.1-15.6-17.3 54.6-7.3-16.3z"/><path fill="#5f7895" d="M140 41h16v60h-16z"/><path fill="#ffd5ff" d="M51.5 124.7L56.6 92l8 1.2-5.2 32.6z"/><circle r="1" fill="#5b5d88" transform="rotate(13.4 -479.8 482.7) scale(25.61298 47.40372)"/><path fill="#3c3b36" d="M34.4 183.3l-18.7-2.5-20.1 52.3 13-48.3z"/><ellipse cx="176" cy="247" fill="#bbc6bc" rx="70" ry="20"/><path fill="#d7c8d1" d="M137.1 163.2l10.6 11.3 2.8-26.6 1.2-77.9z"/><path fill="#fff" d="M193 149l27-23-3 13z"/><path d="M109 19h11v13h-11z"/><path fill="#101312" d="M215 222l-7.5 10.5-15.7-59.4-14.8 11.3z"/><path fill="#b1559b" d="M51 140h23v60H51z"/><path fill="#e05eb9" d="M84 48l-20 5 13 46z"/><path fill="#ddddd7" d="M2.2 144.6L23.5 176l-25.7 17.3-21.3-31.5z"/><circle r="1" fill="#505042" transform="rotate(155.7 12 35.4) scale(17.04132 7.99401)"/><path fill="#2a2916" d="M15.6 167.3L25.7 155l4.7 3.8L20.3 171z"/><ellipse cx="156" cy="140" rx="4" ry="12"/><circle r="1" fill="#b0bba0" transform="matrix(-29.9546 7.28636 -1.65115 -6.78795 179.9 9.5)"/><path fill="#463c31" d="M28 101.3L-.2 96.7l16.9-8.8 38.8 34z"/><path fill="#906135" d="M89 217l8 24 18-28z"/><ellipse cx="176" cy="49" fill="#fdfff9" rx="28" ry="4"/><path fill="#394640" d="M71 165h16v22H71z"/><path fill="#edecd5" d="M25 10l35 19-76-1z"/><path fill="#616b54" d="M22.6 13.4l-22.9 2-2.3-26.8 22.9-2z"/><path fill="#51452d" d="M191.8 156.9l-6.7 21.5-13.7-39.4-3.8 26.5z"/><path fill="#260f0e" d="M9.7 210.1L-16 191.6.9 221.8l17.8-6.5z"/><path fill="#6a759f" d="M85.5 88.7l28.6-47.3 3.4 33.2-14.8 44.9z"/><path fill="#d3e0d5" d="M40 73l-9 24-11-14z"/><path fill="#d073b1" d="M135.2 135.2L105.5 23.8l9 8 24.2 12.9z"/><path fill="#090800" d="M35.9 98.9L34.2 88l5.9-.9L41.8 98z"/><path fill="#00000e" d="M34 104h13v9H34z"/><path fill="#d2d8d2" d="M176 185.4l23.5 51.6-88.2-19.8 12.7-10.1z"/><ellipse cx="128" cy="165" fill="#b74e91" rx="8" ry="34"/><path fill="#111209" d="M102.8 235.9l-.6-14.9 11 19.6L86.3 271z"/><path fill="#d9c7a8" d="M18.7 46.7l-2.5 38.5-5.4-27.4-26.6-21.2z"/><path fill="#855d3c" d="M197 49l-13 56-13-41z"/><path fill="#e3e7df" d="M40 144h10v75H40z"/><path d="M119.9 22.2L103.1-.3l14.8-1.8L103.2-16z"/><path fill="#adb5be" d="M8 114l17-17 21 24z"/><path fill="#060009" d="M220 92.9l-44.2 38.4 4.7-16.3-10.7 2z"/><path fill="#bbad96" d="M106-12l26 12-9 20z"/><path d="M82 38l4-16 9 10z"/><path fill="#fcfffa" d="M145 21h60v16h-60z"/><path fill="#c6bba6" d="M198.6 47.6l-8.4 15.7 7.7 8.6-.1-80z"/><path fill="#fafff6" d="M54.4 89.8L42 84.7 39 103l5.3.6z"/><path fill="#2c4167" d="M42 128.1l-4.9-8.6-.3 21.9-7.5-31.7z"/><ellipse cx="98" cy="150" fill="#283246" rx="3" ry="31"/><path fill="#7c5f6d" d="M184.8 124l-23.1 23.3L220 95.2l-32.4 38.3z"/><path fill="#d5d19d" d="M54 0h4v96h-4z"/><path fill="#b9b8ba" d="M113 219h31v37h-31z"/><path fill="#252217" d="M15 178h9v7h-9z"/><path d="M28.8 136.7l5.8-4 4.6 6.6-5.8 4z"/><path fill="#4b2e51" d="M72 111h5v67h-5z"/></g></g></svg>