<svg xmlns="http://www.w3.org/2000/svg" viewBox="0 0 1120 1400"><defs/><filter id="a"><feGaussianBlur stdDeviation="12"/></filter><rect width="100%" height="100%" fill="#53423a"/><g filter="url(#a)"><g fill-opacity=".5" transform="translate(2.7 2.7) scale(5.46875)"><ellipse cx="127" cy="83" fill="#fff" rx="195" ry="131"/><ellipse cx="123" cy="64" rx="50" ry="37"/><circle r="1" fill="#fff" transform="rotate(-2.7 2734.6 -1899.6) scale(141.43648 27.3912)"/><circle r="1" fill="#ddc5ad" transform="matrix(-.92493 18.83772 -202.75575 -9.95526 110.6 247)"/><circle r="1" fill="#fff" transform="matrix(19.88708 .62498 -2.95827 94.13354 191.6 42.6)"/><circle r="1" fill="#e8dbcd" transform="rotate(83.4 -16.5 53.4) scale(170.62219 40.66936)"/><path fill="#000406" d="M83 26l-6 71 102-2z"/><ellipse cx="129" cy="5" fill="#f2f0e8" rx="112" ry="26"/><circle r="1" fill="#fde3c9" transform="matrix(-58.64225 -34.68034 10.1528 -17.16775 139.2 157.7)"/><path fill="#1a1c1d" d="M88 31h83v66H88z"/><path fill="#1f1200" d="M179 139h19v27h-19z"/><circle r="1" fill="#231209" transform="rotate(-59.6 179.8 83.6) scale(26.24478 15.2035)"/><ellipse cx="120" cy="223" fill="#070c0b" rx="53" ry="10"/><path fill="#dcad8e" d="M97 215L8 241v-25z"/><circle r="1" fill="#e1e0d8" transform="matrix(35.58025 5.82649 -2.65999 16.24357 199.8 250)"/><ellipse cx="198" cy="82" fill="#fffffb" rx="28" ry="55"/><circle r="1" fill="#68442d" transform="matrix(-14.5003 37.7746 -12.2959 -4.71995 74.3 231)"/><ellipse cx="90" cy="157" fill="#904b16" rx="34" ry="5"/><ellipse cx="183" cy="204" fill="#83837b" rx="74" ry="11"/><circle r="1" fill="#ffebce" transform="matrix(-.37279 9.70392 -37.47954 -1.43982 83.7 171.4)"/><circle r="1" fill="#fff4e0" transform="matrix(4.86901 19.2542 -74.10795 18.74047 98.3 126.1)"/><path d="M0 212h71v4H0z"/><path fill="#2a2a2a" d="M80 31h84v68H80z"/><path fill="#e0965e" d="M89 146l35-11-5 42z"/><circle r="1" fill="#c9c8c8" transform="rotate(-67.9 74.2 19) scale(97.23547 33.66344)"/><path fill="#192021" d="M140.9 218.2l10.6-27 9.2 39.4L219 225z"/><path fill="#dbd5cc" d="M120 128h57v67h-57z"/><path fill="#ae8573" d="M41.8 190L0 193l-1.7-25 41.9-3z"/><path fill="#fff" d="M161 213h43v2h-43z"/><path fill="#000402" d="M1 193.3l30.9-1.6 1.2 23-31 1.6z"/><path fill="#fff" d="M192 199h12v8h-12z"/><ellipse cx="143" cy="229" fill="#f3dac4" rx="62" ry="1"/><path d="M69 223h115v6H69z"/><path fill="#38393a" d="M128 31h42v67h-42z"/><ellipse cx="33" cy="240" fill="#b59179" rx="36" ry="25"/><path fill="#483628" d="M61 157h41v5H61z"/><circle r="1" fill="#130f0c" transform="matrix(-1.94957 -26.79586 2.74746 -.1999 72.3 255)"/><path fill="#222322" d="M143 195h61v3h-61z"/><path fill="#f5f7f8" d="M182 203l-21 3 7-11z"/><ellipse cx="125" cy="231" rx="46" ry="1"/><path fill="#13110f" d="M20.9 208.8L-16 249.3V191l44.5 2.7z"/><path fill="#bab7b1" d="M33 176h81v19H33z"/><path fill="#f7f3ec" d="M219 10.4v124.5l-98.4-2.7 45.1-26z"/><path fill="#5e5242" d="M219 126v39l-45-2z"/><path fill="#a7a19c" d="M31 181h43v30H31z"/><path fill="#1f0c00" d="M114 176h4v13h-4z"/><path fill="#ece8e4" d="M196.9 183.4l1.7-7-11.1-8.3-61.4-3.8z"/><path fill="#191919" d="M81 31h90v17H81z"/><path fill="#c8c6c2" d="M87-29l11.1 57L1 47l-11-57z"/><path fill="#6e533a" d="M75 205h85v4H75z"/><path fill="#e2dcd3" d="M222.5 29.5h-113v-43h113z"/><path fill="#fff6dc" d="M47 164h62v7H47z"/><path fill="#000006" d="M148 211h56v2h-56z"/><path fill="#ceccc6" d="M19 48h61v57H19z"/><path fill="#f9d2b7" d="M-16 162.2l144.8-30.8-41.9 24-2.5-.3z"/><path fill="#d3c9c0" d="M94 209h53v5H94z"/><ellipse cx="51" cy="214" rx="20" ry="2"/><path fill="#c5a28a" d="M11 219h58v13H11z"/><circle r="1" fill="#ffefde" transform="matrix(-49.9385 9.9787 -3.0157 -15.09208 76.4 129.8)"/><path fill="#3e3f3f" d="M143 30h28v68h-28z"/><path fill="#746d63" d="M84 243h68v13H84z"/><ellipse cx="169" cy="186" fill="#8c8275" rx="73" ry="2"/><path fill="#85553b" d="M77 197h16v26H77z"/><path fill="#aba397" d="M155 232h28v24h-28z"/><path fill="#94887a" d="M179 136h14v11h-14z"/><path fill="#c9beac" d="M195 148h9v9h-9z"/><path fill="#0f0904" d="M143 196l7 15-2-12z"/><path fill="#494c4b" d="M173.6 197.4l4.7 2.1 21.2 13.2-16.9-17.3z"/><circle r="1" fill="#cac3c1" transform="matrix(19.7126 2.9109 -7.96634 53.94796 14.3 118.5)"/><ellipse cx="197" cy="208" fill="#f1fbff" rx="24" ry="1"/><path fill="#d79d70" d="M117.1 171.2l10.9.7-13-26.4-30.2 5.4z"/><path fill="#2c2c2c" d="M81 70h47v29H81z"/><path fill="#683d1f" d="M52 97l14-2-8-1z"/><path fill="#776d64" d="M78 31h3v60h-3z"/><path fill="#a59280" d="M111 161h64v3h-64z"/><path fill="#ca9570" d="M12.6 166.8l56.9-13.9-52.1 29.2 1.1-17.3z"/><ellipse cx="203" cy="192" fill="#d7d1c8" rx="164" ry="3"/><path fill="#dcd1c6" d="M185 233h19v19h-19z"/><path fill="#241b14" d="M72.2 270l5.5-34.6 4.4-15.4.1 7.7z"/><path fill="#43322b" d="M112 198h15v3h-15z"/><path fill="#f0eae1" d="M172 27h8v121h-8z"/><path fill="#826a63" d="M-16 172l63 14-59 4z"/><path fill="#342a1f" d="M189 168l-8-21-1 17z"/><path d="M181 210h23v2h-23z"/><ellipse cx="176" cy="231" fill="#020a0a" rx="98" ry="1"/><path fill="#120a00" d="M115 178h2v18h-2z"/><path fill="#51412c" d="M199 177h2v22h-2z"/><ellipse cx="185" cy="226" fill="#04090b" rx="116" ry="3"/><circle r="1" fill="#999893" transform="rotate(147.3 4.4 59) scale(22.44722 1)"/><path fill="#2f383c" d="M131 216h73v8h-73z"/><path d="M69 227h2v29h-2z"/><path fill="#b2917b" d="M-16 246.5l44.4-26.6 48.9-6.2L60.8 235z"/><path fill="#b47242" d="M119.2 180l-1.8.8-10.6-22.7 1.8-.9z"/><path fill="#dfbd97" d="M129 196h14v8h-14z"/><path fill="#191919" d="M119.3 34.4l-39.6-.1 4.8 67.6L90.8 65z"/><ellipse cx="140" cy="195" fill="#716457" rx="62" ry="1"/><path fill="#3b3227" d="M191 150l12-7-12-6z"/><path fill="#7f6c5f" d="M20.8 191.9l6.8-6-5.7-81.4 8.4 88.1z"/><ellipse cx="126" cy="213" fill="#696159" rx="23" ry="1"/><path fill="#987a66" d="M48.1 233.7l18.3 10.4 3.8 26.9-79.8-4.5z"/></g></g></svg>