<svg xmlns="http://www.w3.org/2000/svg" viewBox="0 0 1400 2100"><defs/><filter id="a"><feGaussianBlur stdDeviation="12"/></filter><rect width="100%" height="100%" fill="#503629"/><g filter="url(#a)"><g fill-opacity=".5" transform="translate(4.1 4.1) scale(8.20313)"><circle r="1" fill="#fffffc" transform="rotate(-130.1 81.3 37.2) scale(166.30278 169)"/><circle r="1" fill="#ffefce" transform="rotate(149.7 53.9 53.5) scale(63.99731 168.99999)"/><circle r="1" transform="matrix(42.84268 -3.3718 1.04371 13.26165 89.9 185)"/><circle r="1" fill="#e1000e" transform="matrix(43.02146 -30.01219 18.98689 27.21707 14.5 80)"/><path fill="#4f331f" d="M185 242L47 202l-57 44z"/><circle r="1" fill="#ffffea" transform="rotate(-111.3 68.1 62.7) scale(26.41259 57.88594)"/><ellipse cx="12" cy="14" fill="#f2fcf8" rx="64" ry="28"/><path fill="#1f0d00" d="M57 180h113v12H57z"/><circle r="1" fill="#fff0c4" transform="matrix(-15.48542 -.61274 2.87707 -72.71089 142.3 159.4)"/><path fill="#d9c0b0" d="M34 210h116v22H34z"/><ellipse cx="69" cy="237" fill="#281000" rx="169" ry="5"/><path fill="#2e1700" d="M66 157h31v42H66z"/><path fill="#7a4e24" d="M43 183l-59-4v67z"/><circle r="1" fill="#c1898e" transform="matrix(-4.44264 -46.83944 28.27407 -2.68175 69.5 81.4)"/><circle r="1" fill="#ffefd1" transform="rotate(107.7 -44.6 90.4) scale(18.57521 42.59263)"/><ellipse cx="82" cy="206" fill="#500d00" rx="49" ry="3"/><path fill="#ffebcd" d="M158 106l19 63-116-15z"/><path fill="#9c673a" d="M185 167l-98 30 84-2z"/><path fill="#783c0f" d="M161.3 226.7l-13.8-23.1 37.5 23.5-39.5 19.4z"/><circle r="1" fill="#ff2f48" transform="rotate(129.4 -12.2 52.3) scale(18.32049 21.91482)"/><ellipse cx="143" cy="201" fill="#ffeab6" rx="132" ry="3"/><path fill="#f6cca2" d="M46.3 200.5L26.9 192 7.3 243.7l-23.3-2.3z"/><circle r="1" fill="#51301b" transform="matrix(3.968 3.2247 -18.05402 22.21547 25 225.2)"/><path fill="#906543" d="M28 181h35v18H28z"/><circle r="1" fill="#d5d5cb" transform="rotate(-95 38 -25.6) scale(27.71052 122.87566)"/><path fill="#050702" d="M68 174h57v19H68z"/><path fill="#973a3d" d="M64.9 92l-11.2-7.1.5-43.6-70.2 1.6z"/><ellipse cx="138" cy="120" fill="#fff9e1" rx="13" ry="46"/><path fill="#d3b89c" d="M44 166h46v6H44z"/><path fill="#ce8149" d="M155.2 202.4L154 200l12 13.9-80.1-10.1z"/><path fill="#bfb9b0" d="M-18.5 143v-28h139v28z"/><path fill="#c6b995" d="M165.3-16l-23 12.2 9 123L185 109z"/><path fill="#230700" d="M81 218h26v4H81z"/><ellipse cx="43" cy="42" fill="#c0cdba" rx="3" ry="39"/><path fill="#c9c4b5" d="M0 245h94v2H0z"/><path fill="#fff7e4" d="M-17 168l-2.4-18.9 74.5-9.1 2.3 18.9z"/><path fill="#ff3f4e" d="M0 110l42-3-22-64z"/><path fill="#4b2c13" d="M52 205h51v5H52z"/><ellipse cx="116" cy="240" fill="#493525" rx="113" ry="5"/><path fill="#deb387" d="M115.3 167.4l16.3 15.3-23.4-33.9-13.7 28.7z"/><path fill="#ffd8b6" d="M113 209l38 1 13 20z"/><path fill="#56301c" d="M15 213l-24-10-7 40z"/><path fill="#de8b9b" d="M60.5 39.6l-9 54.4-26.9 18.4 50-4.6z"/><path fill="#882428" d="M27.4 54l8.4-16.1 7 16-.4 35.9z"/><path d="M123 158h3v5h-3z"/><path fill="#ffffd4" d="M102 198h56v5h-56z"/><path fill="#3d2a18" d="M67 170.8l30.9 8.9 14.1-6.6-51 2.7z"/><path fill="#85755f" d="M124 179h46v13h-46z"/><path fill="#1b0000" d="M64 159h19v3H64z"/><path fill="#9a9273" d="M145 23h25v10h-25z"/><circle r="1" fill="#ffe1bb" transform="rotate(-44.1 275 82) scale(20.05171 3.40195)"/><path fill="#b5987d" d="M39 109h91v6H39z"/><path fill="#f6ddc1" d="M116 65h33v43h-33z"/><path fill="#ffeab5" d="M172.1 211.3l12.9 28.3-35.9-48.5 9.2-.2z"/><circle r="1" fill="#77604f" transform="matrix(-.07457 -2.1354 31.5537 -1.10188 9.1 114.8)"/><path fill="#baaba0" d="M79 221h75v10H79z"/><path fill="#beb59e" d="M185 242.8L70.7 248l62.1 23H77.6z"/><path fill="#b2754d" d="M29.1 200.8L-16 229.4l27.7-22 19.7-19.2z"/><path fill="#a19987" d="M0 244h82v12H0z"/><path fill="#9d5c3a" d="M44 194h67v5H44z"/><path fill="#ca9a75" d="M63 153h47v4H63z"/><path fill="#f9d9b8" d="M62 179L5 159l-19 21z"/><path fill="#fffce5" d="M113 141h38v17h-38z"/><path fill="#a98760" d="M152.8 185.6l32.2 39.3-8.1-45.6-23.4-4.9z"/><ellipse cx="152" cy="194" fill="#f4a664" rx="50" ry="2"/><path fill="#5a4431" d="M133.5 245.5l51.5-5.2v-10.4l-42.4 1.7z"/><path fill="#dcd7ce" d="M105 30L-3 43l17-59z"/><path fill="#f9d9b3" d="M123.1 179.8l5.3-21.2h41.4l10.8 14.4z"/><path fill="#722724" d="M39 84h3v24h-3z"/><path fill="#9e5732" d="M-16 39.6l10.1 57.1 25.8-42.5 2.7-6.7z"/><path fill="#8e7f6c" d="M29.7 195.4l38.4-15.5-66.5 2.5-17.6 35.1z"/><path fill="#fde0cc" d="M47 145l15 14-14-48z"/><path fill="#dbc6b3" d="M98.9 166.2l36.3-59.9L34 172.5l55.7-23.7z"/><path fill="#c27b4a" d="M127 202h28v6h-28z"/><path fill="#f95f7c" d="M24 101l13-26 4 39z"/><path fill="#b39271" d="M85 172h10v3H85z"/><path fill="#e52b38" d="M-16 115.8l37-5.7 18.8-41.7-55.8 34z"/><path fill="#412d21" d="M34 212l-7 19-29 15z"/><path fill="#a39f9c" d="M-16 256.4l2.4 14.6 31.9-49.8-19.3 8.5z"/><path fill="#fffcd3" d="M48.4 199l.2 5-21 1-.2-5z"/><ellipse cx="49" cy="70" fill="#ab2a4f" rx="3" ry="32"/><path fill="#9c967d" d="M46 69l1 33.9-5 .2-1-34z"/><path fill="#b19f93" d="M28.8 225.9l11-11.3 61.5-4.5-73.8 21.4z"/><path fill="#ffdab7" d="M117 209l38 8-8-10z"/><path fill="#bda793" d="M58 178.5l-2.3-27.9 1 11.4 18.4 1.6z"/><path fill="#453227" d="M-1.1 243.8l31.3.5 80.3-8.3-95.2-4.3z"/><path fill="#dba8ab" d="M47 96h29v14H47z"/><path fill="#b6a583" d="M83 46h8v65h-8z"/><path fill="#d4d0c6" d="M14.1-16L185 24.5 60.3 23.4l-18 24.2z"/><path fill="#794e28" d="M88.9 153.6l-.5 12.5-10.6 1.9-5.2-2.3z"/><path fill="#905f33" d="M119 172l-12 3-2-8z"/><path fill="#cd8194" d="M46 38l19 28-2-29z"/><path fill="#563822" d="M163.2 239.4l.1-19 21.7 7.7-11.5 6.5z"/><path fill="#fff5ca" d="M106 198h38v5h-38z"/><path fill="#9c8e7f" d="M40 120.9l-46-.8v-7l46 .8z"/><path fill="#e3cdb4" d="M106.7 156.6l4.1 2.8-9.5 14-4.1-2.8z"/><path fill="#bbbbbd" d="M46 143H-4v-18h50z"/><path fill="#f0d5ae" d="M152 106h17v69h-17z"/><path fill="#3c1d02" d="M92 165.5l-.2 1-27.9-8 .3-1z"/><ellipse cx="125" cy="55" fill="#dccdb4" rx="23" ry="39"/></g></g></svg>