<svg xmlns="http://www.w3.org/2000/svg" viewBox="0 0 1400 933"><defs/><filter id="a"><feGaussianBlur stdDeviation="12"/></filter><rect width="100%" height="100%" fill="#72523b"/><g filter="url(#a)"><g fill-opacity=".5" transform="translate(2.7 2.7) scale(5.46875)"><circle r="1" fill="#fff" transform="matrix(10.12912 -71.17089 128.49246 18.28718 66 38.2)"/><ellipse cx="232" cy="169" fill="#e2ffff" rx="233" ry="11"/><ellipse cx="43" cy="39" fill="#fff" rx="31" ry="59"/><path fill="#dff7ff" d="M208 89h48v35h-48z"/><path fill="#4e0f09" d="M219.3 133.9L184 156.8 118.7 56 154 33.2z"/><circle r="1" fill="#360000" transform="matrix(1.12621 20.07042 -141.8055 7.95713 83.5 142.7)"/><circle r="1" fill="#d23c4e" transform="rotate(83.5 -32.3 91.8) scale(19.71906 143.48251)"/><path fill="#859ea6" d="M195.5 84.2l-28.8 3-10.2-97.4 28.8-3z"/><ellipse cx="163" cy="169" fill="#b5c0ce" rx="66" ry="17"/><circle r="1" fill="#cce5f6" transform="matrix(-34.71836 -26.30132 11.76397 -15.52872 123 10.7)"/><circle r="1" fill="#78a095" transform="matrix(11.879 -15.65418 18.47905 14.02262 229 14.5)"/><ellipse cx="200" cy="76" fill="#1a2019" rx="10" ry="81"/><ellipse cx="26" cy="47" fill="#fbffff" rx="13" ry="49"/><circle r="1" fill="#98a4ac" transform="matrix(-16.38448 7.21286 -21.84118 -49.61368 255 135.9)"/><path fill="#e3f0fa" d="M-11.4 109.8L66.1 8.6l9.1 94.1-39.2-16z"/><ellipse cx="98" cy="61" fill="#fffad8" rx="8" ry="35"/><path fill="#735924" d="M124 41h43v48h-43z"/><path fill="#160505" d="M196 108l43 44-126-2z"/><ellipse cy="74" fill="#fffffc" rx="10" ry="24"/><path fill="#d48a93" d="M134.1 91.6L198.9 73l-49.7 37.5-37.6 4.6z"/><ellipse cx="95" cy="133" fill="#740407" rx="73" ry="16"/><path fill="#001109" d="M0 158h104v6H0z"/><ellipse cx="40" cy="169" fill="#ecf1fd" rx="97" ry="4"/><path fill="#606e73" d="M80 13l46 27-14-29z"/><ellipse cx="14" cy="105" fill="#c75458" rx="111" ry="11"/><ellipse cx="13" cy="52" fill="#8d9b9f" rx="7" ry="43"/><path fill="#9b8454" d="M210.5 85l-3-41.9 30-2.1 3 41.9z"/><ellipse cx="44" cy="35" fill="#a9b3b5" rx="7" ry="60"/><circle r="1" fill="#839091" transform="rotate(88.9 25.7 54.4) scale(44.88899 9.21599)"/><ellipse cx="178" cy="20" fill="#8c8f8d" rx="18" ry="30"/><circle r="1" fill="#354c51" transform="matrix(22.6013 4.55722 -2.8107 13.93955 226 146)"/><path fill="#aebebe" d="M193.6 74l-24.2-15.8-3 25.9 8.3 4.5z"/><path fill="#001a19" d="M190 35h66v6h-66z"/><path fill="#f2ffff" d="M46.2-16l25.2 4.8L57.5 91.7l17.9 5z"/><path fill="#b13131" d="M46 104h78v24H46z"/><path fill="#d1ab83" d="M130 66l-17-30-19 79z"/><path fill="#a38890" d="M19.6 107.4l32.8-4.2-38.5 19.1-27.2-19.9z"/><circle r="1" fill="#5e0708" transform="matrix(-2.22833 -9.87358 35.1335 -7.92914 175.4 116.6)"/><path fill="#fff" d="M114 23l18 16 11-20z"/><path fill="#aca8a5" d="M202 87h54v13h-54z"/><path fill="#f9ffff" d="M19 0h20v92H19z"/><path fill="#563f28" d="M151.1 52.4l20-13.1-4.5 23.4-58.4-12.5z"/><path fill="#2c4141" d="M248 0h8v87h-8z"/><path fill="#e4f0f7" d="M127.2 9.3L144 3.4 87.2-16l1.3 28.2z"/><path fill="#a4a6a7" d="M124 154h90v16h-90z"/><circle r="1" fill="#6c4343" transform="matrix(-31.4025 26.82026 -6.14692 -7.19712 18 133.8)"/><path fill="#26130d" d="M192.7 118l-65.4 27.3 66.2 12 37.6-29.8z"/><path fill="#c9ced4" d="M212 113l25 10-31-2z"/><path fill="#999c9a" d="M101 11h90v10h-90z"/><path fill="#9ca59f" d="M230 34l29-10-36-3z"/><path fill="#e89697" d="M48 91h107v11H48z"/><path fill="#ae4750" d="M181.1 87.4l-26.5.5-9.2 27.9 62.7-23.4z"/><path fill="#effaff" d="M56 22h14v74H56z"/><path fill="#4f3f2a" d="M123 79h45v6h-45z"/><path fill="#e3e1d8" d="M88 25h18v23H88z"/><path fill="#223944" d="M179 84h70v4h-70z"/><path fill="#93754e" d="M131 40h18v48h-18z"/><ellipse cx="148" cy="13" fill="#b5bdc2" rx="10" ry="30"/><path fill="#951f21" d="M186 108L68 121l53 13z"/><ellipse cx="8" cy="20" fill="#547179" rx="2" ry="20"/><path fill="#00080c" d="M197 0h3v80h-3z"/><ellipse cx="193" cy="8" fill="#625844" rx="4" ry="73"/><path fill="#f3ffff" d="M34.5-3.4l7 98.3-23.4-72.6L15.5-16z"/><path fill="#dc6562" d="M135 89l-49 4 19 22z"/><path fill="#fffff7" d="M-13 52L8 77V54z"/><ellipse cx="92" cy="157" fill="#111f14" rx="22" ry="5"/><ellipse cx="153" cy="152" fill="#414e44" rx="89" ry="2"/><path fill="#8f3638" d="M42.8 99.6l-39 18.2-2.6-5.4 39-18.2z"/><ellipse cx="233" cy="165" fill="#a3a2a6" rx="85" ry="8"/><path fill="#bfae89" d="M105 41h21v50h-21z"/><path fill="#620f0e" d="M71 112.1l4.1-12.7-5.9 54-39-.2z"/><path fill="#cfccc6" d="M14 59h8v33h-8z"/><circle r="1" fill="#b9b9b9" transform="matrix(-1.64128 -8.90397 30.89151 -5.69427 133.4 165.2)"/><circle r="1" fill="#706f71" transform="rotate(175.9 116.6 44.4) scale(37.26544 3.02351)"/><path fill="#fff" d="M12 94l-28 5 2-11z"/><path fill="#46301f" d="M127 52h40v7h-40z"/><path fill="#dcd6ce" d="M16 117l10-9-7-1z"/><path fill="#748180" d="M91.4 89.8l-4 .3-2.8-40 4-.2z"/><path fill="#61696e" d="M11 65h3v30h-3z"/><path fill="#dcdcd4" d="M90.9 8.7l-2.5 23.8 20.2-4.1-5.3 32.6z"/><path fill="#61332c" d="M174.4 101.8l12.5-8.6 20.6 4.5-27.4 19.3z"/><path fill="#aaa59d" d="M271 84l-11 62-59-54z"/><path fill="#565a5a" d="M125.1 39.5l-16.6-15.8 6.7-4.1-.7 20.3z"/><path fill="#edf8ff" d="M126 20h15v20h-15z"/><path fill="#5d6246" d="M232 11l26-27-22 49z"/><ellipse cx="2" cy="26" fill="#a5d2aa" rx="6" ry="28"/><path fill="#81695b" d="M8 113l-15-10 10 49z"/><path fill="#5f686d" d="M96.6 20.8l21.9 4-15.1 1.4-9 1z"/><path fill="#420500" d="M205.2 93.3l-8.1 48.4-84.1 3.7 84.4-36.9z"/><path fill="#c0c0b7" d="M47 30h7v65h-7z"/><path fill="#e96a66" d="M104.9 94.3l87-3.4-11.2-3.5-34.7.2z"/><path fill="#54422f" d="M201 71h55v7h-55z"/><ellipse cx="218" cy="144" fill="#323530" rx="14" ry="16"/><path fill="#4f1b12" d="M7 131h19v24H7z"/><path fill="#a4a8aa" d="M167 56h25v26h-25z"/><path fill="#b29670" d="M123.8 46.2l-36.4 18L155 38.1l-12.4 14.5z"/><ellipse cx="10" cy="37" fill="#707a83" rx="2" ry="35"/><path fill="#a8844d" d="M211 44h15v28h-15z"/><path fill="#7b7771" d="M161 185l20-33 5 33z"/><path fill="#939693" d="M158 0h31v42h-31z"/></g></g></svg>