<svg xmlns="http://www.w3.org/2000/svg" viewBox="0 0 1400 933"><defs/><filter id="a"><feGaussianBlur stdDeviation="12"/></filter><rect width="100%" height="100%" fill="#6a3938"/><g filter="url(#a)"><g fill-opacity=".5" transform="translate(2.7 2.7) scale(5.46875)"><circle r="1" fill="#e5fff1" transform="matrix(-144.66636 -86.49286 52.40042 -87.64398 84.7 121.2)"/><ellipse cx="249" cy="68" fill="#fff" rx="22" ry="46"/><circle r="1" fill="#eff" transform="matrix(-16.13807 -72.9904 51.32747 -11.34843 24.6 64.8)"/><ellipse cx="152" cy="104" fill="#141313" rx="80" ry="16"/><ellipse cx="177" cy="59" fill="#f1ffff" rx="14" ry="29"/><ellipse cx="116" cy="12" fill="#001d1e" rx="58" ry="21"/><circle cx="134" cy="73" r="20" fill="#392600"/><path fill="#f1ffff" d="M228 31h28v52h-28z"/><circle r="1" fill="#48595c" transform="matrix(-52.80469 -33.67797 16.57883 -25.99444 226.7 124.8)"/><path fill="#add0ce" d="M122 60l-4-30 111 4z"/><ellipse cx="206" cy="5" fill="#00312c" rx="55" ry="29"/><circle r="1" fill="#6d573b" transform="matrix(11.36746 .28203 -.46809 18.86669 39 105.5)"/><path fill="#dab585" d="M44 115h132v55H44z"/><path fill="#fff" d="M29 0h20v90H29z"/><path d="M199 130l-32-20 28-20z"/><path fill="#fff" d="M15 127L12 23l-28 107z"/><path fill="#af8d65" d="M105 173l165-2-103-58z"/><path fill="#748488" d="M30.6 44.2l-2-48.7 5.8-9.7L-16-8.3z"/><path fill="#a9afa6" d="M74 90.7l64.6 18.9-68.2-91.4L39.7-16z"/><path fill="#cae4f1" d="M165 45h25v50h-25z"/><path fill="#2e3332" d="M72 0h140v32H72z"/><path fill="#fff" d="M220.8 60.5l-3 9.6-8.6-2.6 3-9.6z"/><path fill="#a87152" d="M26 166l-16-43 62 31z"/><circle r="1" fill="#e5d4c3" transform="matrix(8.29129 -15.79257 30.87158 16.20794 79 134.8)"/><path fill="#053534" d="M190 40h22v41h-22z"/><path fill="#fff" d="M229 86l11-49 31 39z"/><path fill="#cedee2" d="M88 42h38v22H88z"/><circle r="1" fill="#60522f" transform="rotate(-106 92.7 -18.4) scale(9.67827 30.96287)"/><path fill="#7b646d" d="M148 86h35v20h-35z"/><path fill="#2c485f" d="M246.6 83.4l24.4-1.2v46.1l-31.4-42.1z"/><ellipse cx="241" cy="37" fill="#9eb0ae" rx="179" ry="4"/><path fill="#0f0800" d="M204 0h7v72h-7z"/><path fill="#514239" d="M130.6 78.3l-49.4 39.6-16.6-8.4 49.8-25.7z"/><path fill="#17140e" d="M147.5 99.3l-9.9 19.9-6.3-41.7 17.5 8z"/><path fill="#687181" d="M227 143l44-20-84-16z"/><path fill="#070b0b" d="M53-6.7l5.4-4.3 32.7 41.7-5.5 4.3z"/><path fill="#ecebf2" d="M.7 182.3l-15.4-25.7 18-10.9 15.4 25.7z"/><path fill="#9b9eb0" d="M230 118.1l41-15.7-44.9-24 10.4 47.7z"/><path fill="#1c1c1c" d="M178 83l-11 29 37 16z"/><path d="M212 95h20v14h-20z"/><path fill="#eed198" d="M117.1 85.3l4.9 24.3L132.3 90l-8.9-1.5z"/><ellipse cx="223" cy="65" fill="#184d4f" rx="6" ry="26"/><path fill="#6b7076" d="M208.4 126.3l-12 .4-2.8-79 12-.4z"/><path fill="#fff3d5" d="M86 57l2 41 13-36z"/><path fill="#fbffff" d="M57 121L29 53l13-69z"/><ellipse cx="47" cy="141" fill="#f4c12c" rx="13" ry="8"/><path fill="#b2b1a4" d="M163.4 89.7l-12.7 16.5-2.4-35.7 13.6-19.7z"/><path fill="#fff" d="M183 77h8v16h-8z"/><path fill="#a6a8a5" d="M184.3 82.5l35.9 1.2 29.2 28.3-7.5-15.3z"/><path fill="#0c1313" d="M83 55h25v2H83z"/><path d="M112 65h14v7h-14z"/><path fill="#213037" d="M271 168.3v-16.8l-48.9-21.8 2.4 16.6z"/><path fill="#000100" d="M223 81l-25-3 8-14z"/><ellipse cx="131" cy="111" fill="#29292f" rx="66" ry="4"/><path fill="#a0836a" d="M131 115h23v50h-23z"/><path fill="#7d8b91" d="M59 10h7v62h-7z"/><path fill="#95ab9e" d="M227.7 52.2l27.9-13.1L271 11.6l-41.6 21.1z"/><path fill="#fff" d="M-1.7 128.9L-7 84.2l24.8-3 5.4 44.6z"/><path fill="#000100" d="M83 71h20v2H83z"/><path fill="#674b28" d="M37 101h9v21h-9z"/><path fill="#040000" d="M2 133v11l-18 6z"/><path fill="#dbf7ee" d="M211 56h6v16h-6z"/><path fill="#101216" d="M149.7 83.4l10 5.4-25.9 2.9 10.4 21.6z"/><circle r="1" fill="#9f9484" transform="matrix(-3.53657 -7.18725 20.24557 -9.96205 105.7 84)"/><path fill="#2d140d" d="M113.9 88.7l6.7 14.5-4.5 2.1-6.7-14.5z"/><path fill="#acaca9" d="M162.8 98.5l11.8 37.6-19 9.9 21.6-65.9z"/><ellipse cx="84" cy="52" fill="#00030b" rx="1" ry="34"/><ellipse cx="128" fill="#383b3b" rx="70" ry="33"/><path fill="#596262" d="M154.3 39.1l14.9 2.7L55 42l101.5-3z"/><path fill="#bdccda" d="M47.8 124.9l5.3-69.6L100 102l-7-16.8z"/><path fill="#b37893" d="M27 163.4l-23-2 3-34.8 23 2z"/><path d="M199 97h2v31h-2z"/><ellipse cx="140" cy="36" fill="#bac2c5" rx="62" ry="4"/><path fill="azure" d="M271 47l-42 45 9-48z"/><circle r="1" fill="#a2896b" transform="rotate(-58.5 247.7 -119.6) scale(9.88182 71.98021)"/><path fill="#fffffd" d="M49 123l-15 19-3-19z"/><path fill="#272a2b" d="M191 44h6v51h-6z"/><path fill="#fffdd5" d="M94.7 61h5l-.4 24h-5z"/><path fill="#eeffe1" d="M155 73h8v14h-8z"/><path fill="#534020" d="M139.4 87.9l4.6-45.3 1.7 10.1 9.3 6.4z"/><path fill="#92929a" d="M191.9 93.4l18.1-4.2-12.6-9.7 16.6 39.8z"/><path fill="#adb7ba" d="M53.1 105.4l5.8-13.8 21.8-57.4-13.1-16.4z"/><path fill="#404047" d="M74 96h21v19H74z"/><ellipse cx="163" cy="67" fill="#0c1715" rx="1" ry="28"/><path fill="#211e1e" d="M243 82l18 14 10-14z"/><ellipse cx="4" cy="61" fill="#f0fcff" rx="9" ry="34"/><ellipse cx="37" cy="159" fill="#70532e" rx="18" ry="3"/><path fill="#beb4a6" d="M181.4 185.2l-3.6-28.8 28.8-3.6 3.6 28.8z"/><path fill="#fff" d="M57.1 76.5L56 3.5h1l1.2 73z"/><path fill="#4d5756" d="M103 41h2v44h-2z"/><path fill="#ebf6fc" d="M61 101.7l6.1 16-12.1 4.6-6.1-16z"/><path fill="#dac7b7" d="M74.6 109.4l.8 6.5 42.7.6L47 137.1z"/><path fill="#cde7e5" d="M240.5 32.5l24.9-17.1-5.8 15.7-24.3 4.2z"/><path fill="#8a999e" d="M24 6h4v88h-4z"/><path fill="#fff" d="M196.6 113l-.9-.4 1.7-3.6.9.4z"/><ellipse cx="66" cy="59" fill="#fff" rx="1" ry="40"/><path fill="#bea785" d="M40.8 95.1L12.1 121l5.9.4 16.4 3z"/><path fill="#d7e9e3" d="M213 83h6v6h-6z"/><path fill="#2d3635" d="M151 32l79-1-38-11z"/><path fill="#aaadc2" d="M175 97h4v9h-4z"/></g></g></svg>