<svg xmlns="http://www.w3.org/2000/svg" viewBox="0 0 1400 933"><defs/><filter id="a"><feGaussianBlur stdDeviation="12"/></filter><rect width="100%" height="100%" fill="#2c344c"/><g filter="url(#a)"><g fill-opacity=".5" transform="translate(2.7 2.7) scale(5.46875)"><circle cx="182" cy="19" r="166" fill="#b9b088"/><circle r="1" fill="#f1f6fb" transform="matrix(.79347 -37.87986 82.4681 1.72746 173.5 166.8)"/><circle r="1" fill="#080000" transform="matrix(2.90173 -72.24678 23.63286 .9492 228 59.7)"/><path fill="#fff" d="M94.2 61.5l10.7-23.7-68.8-22.4 4.5 43z"/><circle cx="44" cy="142" r="48"/><path fill="#020200" d="M231 82L98 72l155 61z"/><circle r="1" fill="#c3c5c3" transform="rotate(18.6 34.5 210.6) scale(90.69229 16.34765)"/><circle r="1" fill="#988f67" transform="matrix(16.87713 -.48256 1.54834 54.1519 6.2 55.8)"/><path fill="#141b20" d="M125 148l-24-29 61 15z"/><path fill="#33342c" d="M160.1 49.8L11.7 85.3l42.2 22.1 68.4-6.4z"/><path fill="#cad0d4" d="M206.9 64.4l-3.8 53.9-10-.7 3.8-53.9z"/><path fill="#dcdae2" d="M47 107h82v7H47z"/><path fill="#fff" d="M37 24h22v33H37z"/><path d="M162 80h33v23h-33z"/><path fill="#c1c7cf" d="M137 103l22 3 1-29z"/><ellipse cx="69" cy="49" fill="#54574e" rx="6" ry="33"/><circle r="1" fill="#110f00" transform="rotate(-142.8 57.7 58.3) scale(16.08444 34.55036)"/><path fill="#dae3eb" d="M165 185l60-45-59-18z"/><path fill="#b5bbc6" d="M202.3 107.7l-41.2-4.8-45.7-5.8 77.1 20.7z"/><path fill="#d1dae1" d="M161.5 127.7l-26.2 12.9-10.9-2 25.5-18.3z"/><path fill="#cfd5d5" d="M92 137h28v33H92z"/><path fill="#38362a" d="M154.8 19.5L148 43.8l-53.5-7.3 58.6 60.3z"/><ellipse cx="83" cy="45" fill="#fff" rx="8" ry="15"/><circle r="1" fill="#3a2400" transform="rotate(-100 138.5 -66) scale(43.39997 19.50301)"/><circle r="1" fill="#737863" transform="matrix(1.78268 9.2985 -57.7711 11.07571 221.3 7.1)"/><path d="M160 118h6v15h-6z"/><path fill="#eaedf6" d="M70 105h42v7H70z"/><path d="M128 73h21v18h-21z"/><circle r="1" fill="#151302" transform="matrix(21.02961 45.38537 -61.00534 28.26723 27.7 169)"/><circle r="1" fill="#000201" transform="matrix(-.64112 -2.00889 22.9678 -7.32996 146.3 138.9)"/><circle r="1" fill="#050602" transform="matrix(-.92878 -3.4422 33.60058 -9.06613 76.6 101.6)"/><path fill="#585544" d="M80 26L2 16l-18-32z"/><path fill="#a2acba" d="M-16 91.5l26.7-6.3 8.5 20.3-35.2 2.1z"/><path fill="#787a71" d="M96 33h19v52H96z"/><path fill="#1e1609" d="M205 79h42v46h-42z"/><circle r="1" fill="#91918a" transform="matrix(9.95808 .22924 -2.2931 99.6097 255 133.7)"/><circle r="1" fill="#828173" transform="matrix(69.35866 49.32854 -9.88118 13.8935 137.3 13.4)"/><path fill="#969292" d="M91 127l75-24-40-13z"/><circle r="1" fill="#c7cbcd" transform="matrix(-1.45196 5.86484 -32.95255 -8.15806 79.6 13.3)"/><path d="M136 106l16 11 7-6z"/><path fill="#696a5f" d="M133 79L12 45l2 33z"/><path d="M70.1 86.3L64.8 96l-14.9-8.2 5.3-9.6z"/><circle r="1" fill="#352607" transform="rotate(-11.5 228.5 -1196.5) scale(36.97577 9.93372)"/><path d="M190 80.5v21h-30v-21z"/><path fill="#343b31" d="M96.6 93.5l-26.6.6 37.5 12.7 30.9-.2z"/><path fill="#af9d8b" d="M279.2 175.3l-60.5-17.4 6-21.2 60.6 17.4z"/><path fill="#010200" d="M119 125h8v22h-8z"/><path fill="#cfbdd6" d="M89 87l-18 7-4-5z"/><path fill="#7e8172" d="M154 33h53v47h-53z"/><path fill="#030200" d="M30 107h49v2H30z"/><path fill="#d4d5dd" d="M42.1 111.6l16 .8-.2 4-16-.8z"/><path fill="#fbfffd" d="M38 24h20v32H38z"/><path fill="#bac1cb" d="M45.5 91.1l-18.4-4 7.1-2.4 23.3 6.9z"/><path fill="#aaaeb1" d="M107.6 41.8l10.3-13.3L15.6 2.2l140.6 25z"/><path d="M18.6 101.3L16 92.7l13.4-4 2.6 8.6z"/><circle r="1" fill="#614d3a" transform="rotate(-76.8 206.8 -87.7) scale(4.61586 47.79329)"/><path fill="#0a1925" d="M59 25h2v34h-2z"/><path fill="#1e1e1c" d="M47 115h45v55H47z"/><path fill="#5a5950" d="M37.7 18.6l15.6-5.2 58.6 14-40 4.2z"/><path fill="#82868b" d="M121.8 129.6l-22.6 6.7 16.8 12.9-.6 12.2z"/><path fill="#f6f8ff" d="M86 104h16v7H86z"/><path fill="#c4bdbe" d="M80.4 107.2l-5.6 1.2 54.2 8.2-3.9 6.9z"/><path fill="#57554e" d="M26 108l14-12-39 12z"/><path fill="#354554" d="M91 34h2v24h-2z"/><path fill="#e2e7ea" d="M158 132v-12l-11 2z"/><path fill="#000300" d="M193.3 78.4l.4 28.1-23.6-3.2-3.8-24.2z"/><circle r="1" fill="#7c7a6e" transform="matrix(13.39108 .81012 -.15032 2.48476 0 117.7)"/><path fill="#f7fff4" d="M77 30h14v26H77z"/><path fill="#a5aeb8" d="M128 92h32v8h-32z"/><path fill="#020001" d="M93 101l-3-14 13 3z"/><circle r="1" fill="#32312e" transform="matrix(-35.4511 6.56254 -.67818 -3.66358 96.7 129)"/><circle r="1" fill="#69685e" transform="matrix(4.82174 51.00873 -11.69152 1.10517 23.7 38)"/><path fill="#8d8d81" d="M131 51h12v11h-12z"/><circle r="1" fill="#513f30" transform="matrix(.5369 -1.49953 22.40914 8.02363 112.4 120.4)"/><ellipse cx="135" cy="81" rx="9" ry="8"/><path fill="#352e1e" d="M152.7 48.8L119.2 55l.5-16.2 12.4 1.3z"/><circle r="1" fill="#372715" transform="rotate(-123 141 -6.4) scale(11.50338 22.11188)"/><path fill="#656f62" d="M249 65.7l6-87.8 6 .4-6 87.8z"/><path fill="#8f8ea2" d="M85.5 97v2h-31v-2z"/><path fill="#6a6c5d" d="M157-16L271 3l-86 20z"/><path fill="#473311" d="M208 19h40v61h-40z"/><ellipse cx="15" cy="111" fill="#131201" rx="28" ry="5"/><path d="M154 136l10-5-1-9z"/><path fill="#a8adb3" d="M196 84h8v32h-8z"/><ellipse cx="98" cy="150" fill="#d2d5d5" rx="6" ry="12"/><path fill="#d9dbe5" d="M45 110h26v3H45z"/><path fill="#89897f" d="M156 17l18 43-21 28z"/><path fill="#727672" d="M127 65h39v8h-39z"/><path fill="#bac1c5" d="M144.3 202.6L119 169.1l52.7-39.7 25.3 33.5z"/><path fill="#787972" d="M66 20h10v45H66z"/><path fill="#8793a0" d="M245 129.2l2-24 18 1.6-2 24z"/><path fill="#aa9385" d="M165.4 125.8l3.3-11.6 27.9 8-3.3 11.6z"/><path fill="#666b5e" d="M107 73h19v27h-19z"/><path fill="#22211c" d="M65 113h27v52H65z"/><path fill="#211405" d="M1.5 51.9l3.3-3.3L-16-2.5v45.7z"/><circle r="1" fill="#0a0c03" transform="matrix(33.7234 14.08827 -16.72518 40.03544 0 163.5)"/><path fill="#f2ffff" d="M61 36h3v21h-3z"/><path fill="#575345" d="M81.9 20.3l24.5 11.1-11.7 1.1-23.8-3z"/><ellipse cx="242" cy="103" fill="#070700" rx="4" ry="21"/><path fill="#a8aeb6" d="M192.3 115.9l6.6-8.7-45.6-3.5 17.1 8.6z"/></g></g></svg>