<svg xmlns="http://www.w3.org/2000/svg" viewBox="0 0 1400 933"><defs/><filter id="a"><feGaussianBlur stdDeviation="12"/></filter><rect width="100%" height="100%" fill="#2c4454"/><g filter="url(#a)"><g fill-opacity=".5" transform="translate(2.7 2.7) scale(5.46875)"><path fill="#c5af91" d="M271 3L2-16l29 134z"/><circle r="1" fill="#fffff2" transform="matrix(-63.98956 -1.72528 .61498 -22.80934 217 142)"/><circle r="1" fill="#fff" transform="matrix(4.5337 -15.87083 27.67932 7.90695 87.7 46.1)"/><ellipse cx="115" cy="148" fill="#100000" rx="39" ry="52"/><circle r="1" fill="#a68979" transform="matrix(-21.65065 -19.85785 36.41763 -39.70546 31.3 155.8)"/><circle r="1" fill="#9f8d75" transform="rotate(101.7 58.1 116.7) scale(48.36822 28.24926)"/><path fill="#020000" d="M241.6 84.3l2.8 23.8-70.1-11.4-3.5-20.4z"/><circle r="1" fill="#4a2a00" transform="matrix(-18.49457 -.60318 2.17323 -66.6345 229.2 57.8)"/><ellipse cx="8" cy="40" fill="#5c4b34" rx="35" ry="102"/><path fill="#c5c9ca" d="M87-10L56 12l103 27z"/><circle r="1" fill="#d1c9c6" transform="matrix(49.00622 12.3713 -4.23199 16.7641 210.2 133.1)"/><ellipse cx="255" cy="78" fill="#a6977b" rx="10" ry="67"/><circle r="1" fill="#484133" transform="matrix(50.35257 -30.29253 12.58484 20.91866 117.8 80.3)"/><path fill="#cacacc" d="M141.4 101.1L132.5 88l38.1 2.7-1 12z"/><circle r="1" fill="#826140" transform="rotate(-85.4 201.2 -34.3) scale(16.36241 56.942)"/><path fill="#cbcfd0" d="M202.6 67.8l8 .5-3.2 61.9-8-.5z"/><path fill="#fff" d="M64.3 27.9l16 .2-.6 30-16-.2z"/><path d="M172 79h26v19h-26z"/><circle r="1" fill="#151100" transform="matrix(42.12477 58.02244 -25.6621 18.6309 130.2 169)"/><ellipse cx="89" cy="56" fill="#4d524e" rx="5" ry="35"/><path d="M23 42h19v10H23zm115 31h24v15h-24z"/><path fill="#c7d1d9" d="M191.8 118.3l-44.6 29.8 36.8 11.6 46.6-32.8z"/><ellipse cx="4" cy="70" fill="#6e6b60" rx="122" ry="15"/><path d="M185 123.7l-7-.5 1-15 7 .6z"/><path fill="#f3ffff" d="M112.1 62.4l-7.6-27.8-15.4-.1L97 60.4z"/><ellipse cx="213" cy="9" fill="#6b7165" rx="56" ry="18"/><path fill="#888a7b" d="M165 30h47v48h-47z"/><circle r="1" fill="#060500" transform="rotate(85.8 -48.9 63.7) scale(23.01818 6.39176)"/><circle r="1" fill="#615d69" transform="matrix(24.32265 -10.00537 19.41222 47.19031 53 126.5)"/><ellipse cx="154" cy="124" fill="#262319" rx="23" ry="5"/><circle r="1" fill="#87806f" transform="matrix(-58.67552 -30.58936 11.4755 -22.01194 31.3 169)"/><path fill="#bbc3d4" d="M180 100h28v8h-28z"/><path fill="#1a191b" d="M57.7 104l47.1-21.5-42.5-4.9 47.3 25.6z"/><path fill="#b6b9c0" d="M95 102h24v4H95z"/><circle r="1" fill="#827464" transform="matrix(-13.04824 23.73466 -17.94656 -9.8662 208.6 169)"/><path fill="#201606" d="M151 99l14 21-78-11z"/><path fill="#6e5741" d="M269 131.4l-79.2-16.9 1.2-5.9 79.2 16.9z"/><path fill="#5f6257" d="M111 42h27v54h-27z"/><path fill="#b8bcbf" d="M164.8 108.3l15.4 7.8-28 17.3 5.4 17.6z"/><path d="M171 79h31v16h-31z"/><path fill="#110c03" d="M211 79h33v36h-33z"/><path fill="#565448" d="M42 8.3L126.3 34l-2.3 7.7L39.8 16z"/><path fill="#feffff" d="M63 27h15v30H63z"/><path fill="#9f9eb5" d="M109.5 87.8l-50.8 4.4-.2-2 50.8-4.4z"/><path fill="#201b0a" d="M13 100l-29 26 49 5z"/><path fill="#8d8e8e" d="M244 88h9v31h-9z"/><ellipse cx="77" cy="134" fill="#38322e" rx="8" ry="40"/><path fill="#717384" d="M27 84h47v34H27z"/><path fill="#9b9f9e" d="M114.1 4.6l27.3 14.6 35.7 14.3-49.8 8.2z"/><ellipse cx="5" cy="27" fill="#656456" rx="20" ry="66"/><circle r="1" fill="#22303c" transform="rotate(38.8 -194 119.7) scale(9.26261 5.67151)"/><path fill="#39372b" d="M126 41h15v29h-15z"/><path fill="#412902" d="M212 29h35v42h-35z"/><path fill="#071923" d="M80 24h1v32h-1z"/><path fill="#000100" d="M74 98h52v5H74z"/><path fill="#574936" d="M185.5 185l4.8-25.2-23.7-6.6-22.1-7.9z"/><path fill="#b1afb9" d="M96 94l16-1-7 5z"/><circle r="1" fill="#c6cbcf" transform="matrix(27.35322 6.57662 -1.04082 4.32895 100 19.6)"/><path fill="#2d2c25" d="M49 78h31v6H49z"/><path d="M170 102h8v5h-8z"/><path fill="#686960" d="M43 33h21v47H43z"/><path fill="#686b5f" d="M167 20.9l81.7-38L260.9 9l-81.6 38z"/><path fill="#ccd9e2" d="M233.5 130.9l-58.1-5.3-5.2 11.9 18.6-23.4z"/><path fill="#031729" d="M106 37h1v24h-1z"/><path fill="#858479" d="M49 1l49-17 61 35z"/><path fill="#868e85" d="M130 85h16v17h-16z"/><path fill="#777b77" d="M124.6 84.8l-14-.7 2.8-55 14 .8z"/><path d="M138.4 85.1l1.4-10.9 21.8 2.7-1.4 10.9z"/><circle r="1" fill="#090900" transform="matrix(-11.53205 -1.053 .43227 -4.73411 32.3 45.6)"/><path fill="#8f7962" d="M30.2 49.4l2.1 32.3-42-3.5 49.6-26z"/><path fill="#040708" d="M174 124l-15 6-4-6z"/><path d="M175 78h25v21h-25z"/><path fill="#322e1e" d="M167 46.7l-38.7-3.1 39.6 14.5-22.5 7.6z"/><path fill="#beb2a5" d="M225 127h31v30h-31z"/><path fill="#0b0a06" d="M88 84l-4 48 13-35z"/><path fill="#fff" d="M82.4 32.4l3 .2-1.8 27-3-.2z"/><path fill="#959998" d="M165 52h6v38h-6z"/><path fill="#fff" d="M94 34h11v21H94z"/><path fill="#b5babc" d="M154 130h43v21h-43z"/><path fill="#a3a7ac" d="M197.3 108.9l-55.8-17.5-3.2-4.9 71.3 22.7z"/><ellipse cx="158" cy="69" fill="#767971" rx="24" ry="4"/><path fill="#28251d" d="M156 117l-50-38 44 94z"/><path fill="#a2aaae" d="M201 82h9v20h-9z"/><path fill="#78766b" d="M-2.8 26l100.6 1.3-16.4 4-48-16.4z"/><path fill="#888a94" d="M36 86h45v9H36z"/><circle r="1" fill="#70695a" transform="matrix(-.36081 6.59371 -47.5838 -2.60382 224 164.8)"/><path fill="#322714" d="M96 181l53-29 44 21z"/><path fill="#797d79" d="M85 27h9v42h-9z"/><circle r="1" fill="#54584a" transform="matrix(11.81993 -2.2765 5.61225 29.13954 254.3 10)"/><circle r="1" fill="#d0dce4" transform="matrix(-1.55224 -6.8322 17.85383 -4.0563 213.4 129.5)"/><path fill="#0e0f0a" d="M85 108h30v62H85z"/><circle r="1" fill="#bfc9ce" transform="matrix(6.7414 -.4554 .34215 5.0649 173 117)"/><path fill="#1b1d15" d="M39 83l-7 2V75z"/><path fill="#3e3a2e" d="M271 107l-29 14 22 6z"/><path fill="#73756a" d="M201 57l-61-15 83-36z"/><path fill="#4e4d52" d="M55.3 151.8l20-74.6-2.5 87.3-7.9-4.7z"/><circle cx="43" cy="85" r="6" fill="#9ea0a8"/><circle r="1" fill="#1c1f1b" transform="matrix(-8.7996 -1.74237 .52052 -2.62883 78.5 84.3)"/><ellipse cx="97" cy="74" fill="#5f655e" rx="41" ry="8"/></g></g></svg>