<svg xmlns="http://www.w3.org/2000/svg" viewBox="0 0 1400 933"><defs/><filter id="a"><feGaussianBlur stdDeviation="12"/></filter><rect width="100%" height="100%" fill="#292c49"/><g filter="url(#a)"><g fill-opacity=".5" transform="translate(2.7 2.7) scale(5.46875)"><circle r="1" fill="#eadfba" transform="rotate(158.2 74.6 67.4) scale(128.94468 103.16898)"/><circle cx="120" cy="137" r="69" fill="#d1c7ce"/><circle r="1" fill="#010b00" transform="rotate(-100.8 76.1 -34.1) scale(36.05203 23.09819)"/><circle r="1" fill="#4b3f26" transform="rotate(-118.9 130 -24.5) scale(72.33186 26.60111)"/><path fill="#fff" d="M54 11h7v84h-7z"/><circle r="1" fill="#dee9f7" transform="rotate(-100 123.5 -24.2) scale(55.85324 17.92128)"/><path d="M108 39h11v65h-11z"/><circle r="1" fill="#704a55" transform="matrix(-71.01034 .37181 -.0591 -11.28773 98.8 144.3)"/><ellipse cx="25" cy="98" fill="#4b411c" rx="28" ry="169"/><path fill="#0b0c03" d="M145.2 98.4l-.9 6.5-27.8-77.6L144.2 40z"/><path fill="#fff" d="M66 117l99 10-4-26z"/><circle r="1" fill="#57543a" transform="matrix(-35.2293 -29.07402 35.5295 -43.0515 102.4 0)"/><ellipse cx="190" cy="94" rx="2" ry="73"/><circle r="1" fill="#6e685a" transform="matrix(38.15832 18.94195 -45.48166 91.6222 255 49.8)"/><path fill="#47351e" d="M60 0h12v112H60z"/><path fill="#b2b5ba" d="M97 18h61v8H97z"/><path fill="#3c3732" d="M84 25h8v85h-8z"/><path fill="#ffffef" d="M53.8 72.7L55.6 13l5.7 57.1-5.4 15.2z"/><path fill="#fff" d="M120 67h11v24h-11z"/><path fill="#f5f7f0" d="M55.5 137.8l32.8-19.5-5.9-21.7-28.8 33.2z"/><path fill="#e5f8f0" d="M104.1 39.4l-5 67.4 8.1-.9 1.1-23.7z"/><ellipse cx="171" cy="169" fill="#c4d6d2" rx="36" ry="14"/><circle r="1" fill="#57514e" transform="rotate(103.3 -22.9 64.2) scale(50.86503 17.38443)"/><path fill="#d98fa1" d="M152 120l-64 34v-34z"/><path d="M187 0h3v39h-3z"/><path fill="#000f18" d="M115 12l39-13-13 19z"/><path fill="#fff" d="M135.2 122.1l-16.9-2.4 2.5-17.8 16.9 2.4z"/><circle r="1" fill="#fff" transform="matrix(-4.69344 .43097 -1.00681 -10.96464 181.5 0)"/><path fill="#b7b6b3" d="M191 1h25v23h-25z"/><path fill="#584936" d="M194 41h26v75h-26z"/><path fill="#413b28" d="M109 90h37v7h-37z"/><ellipse cx="255" cy="115" fill="#8e8774" rx="27" ry="57"/><circle r="1" fill="#1e1f16" transform="matrix(-17.79792 -4.9358 14.0324 -50.59922 7.3 27.4)"/><path fill="#acb4b0" d="M160.2 68.3l-15.2.1 3.9-76 13.5-8.4z"/><path fill="#35322a" d="M67 151l-76 18 10-63z"/><path fill="#94a19a" d="M53.4 152.2l33 1.7-1.8 32-33-1.8z"/><path fill="#cccecd" d="M75 62h9v45h-9z"/><ellipse cx="175" cy="14" fill="#05121a" rx="2" ry="37"/><path fill="#615f4e" d="M174 22l1 36-22-58z"/><ellipse cx="191" cy="89" fill="#000400" rx="2" ry="63"/><circle r="1" fill="#141613" transform="matrix(-7.29725 8.88588 -15.50618 -12.73397 122.4 47.5)"/><path fill="#b1c1ba" d="M106 47L93 30l1 63z"/><circle r="1" fill="#6f7883" transform="matrix(-37.11531 -35.36892 18.6659 -19.58756 241.7 17.9)"/><path fill="#161005" d="M70 61L61-5l16 23z"/><path fill="#556157" d="M94.1 113.9l20.3-6.4 9.5 5.5-38.9-6z"/><path fill="#171305" d="M108 64h8v36h-8z"/><path fill="#b5bfbf" d="M192 140h13v30h-13z"/><path fill="#fffffc" d="M165 0h8v8h-8z"/><path fill="#e29a1e" d="M72 34h11v8H72z"/><path fill="#779c9c" d="M114 5l30-1-9-20z"/><path fill="#9b8c6d" d="M53.7-16l22.2 30.9L92.1-16h21.6z"/><path fill="#3b2f48" d="M90 136l-17-6-5 14z"/><path fill="#584830" d="M199.3 132.8l60.2 9.5-.8 5-60.2-9.6z"/><path fill="#d3dbe2" d="M145 65h23v65h-23z"/><circle r="1" fill="#fff" transform="matrix(-1.6395 .07342 -1.2572 -28.07416 105.2 88.3)"/><path fill="#1d1b12" d="M140 56h5v48h-5z"/><path fill="#ae8f75" d="M78.8 85.4l-18 36.9-11.6-5.7 18-36.9z"/><path fill="#7c8176" d="M129.2 69.1l-30.6-6.8 43.8 1.4-3.3 47.5z"/><path fill="#b0b4bb" d="M176.2 98.6l10.6 86.4 2-100.9-8.7-25.5z"/><path fill="#fff" d="M55 50h4v37h-4z"/><path fill="#674968" d="M112 137h39v9h-39z"/><path fill="#2f3834" d="M94 109h25v3H94z"/><path fill="#fff" d="M73 114h82v5H73zm-20 9h17v8H53z"/><path fill="#d9d6c5" d="M176 0h10v16h-10z"/><path fill="#a19193" d="M143.7 122.4l42.8 27.8-21.9 3.8-15.7-1.9z"/><circle r="1" fill="#737378" transform="matrix(-3.61531 .80812 -3.7802 -16.9116 103 8.2)"/><path fill="#fcffff" d="M119 69h13v20h-13z"/><path fill="#050f10" d="M109 6h39v10h-39z"/><path fill="#8c878b" d="M49 120h87v3H49z"/><path fill="#b59e6f" d="M60.5 6v38h-5V6z"/><path fill="#eef8f9" d="M136.9 121.1l-26.5-.4 24.2-31.2-3.4 22.8z"/><path fill="#fff" d="M105 105h11v4h-11z"/><ellipse cx="41" cy="110" fill="#5c5455" rx="12" ry="31"/><circle r="1" fill="#ecb1ba" transform="matrix(.40891 4.4351 -21.68112 1.99897 98.1 128.2)"/><path fill="#a3a6af" d="M101 136l-26 7 70 42z"/><path d="M92 26h27v2H92z"/><ellipse cx="60" cy="98" fill="#764b29" rx="9" ry="5"/><path fill="#121d16" d="M117 72h2v39h-2z"/><path fill="#3c403b" d="M83 67h27v2H83z"/><path fill="#716453" d="M205.2 54.1l31.7-14.9 3.4 89.4-39 6.5z"/><path fill="#4d433c" d="M63 42.2l13.9 2-4 27.6-13.8-2z"/><path fill="#ecebe4" d="M161.5 118.9l29 30.6-37.8-17.8-7.4-19.1z"/><path fill="#d47379" d="M115 119v20l29-7z"/><path fill="#aebab4" d="M270.5 157.8L241.6 185l29.4-36.9-62.7-5z"/><path fill="#a3a7b2" d="M192 116h8v30h-8z"/><circle cx="139" cy="109" r="8" fill="#b7c6c3"/><path fill="#7e676a" d="M126 140l16 13 35-3z"/><path fill="#4a4a40" d="M162.5 23.7l.4-19.7 8.3 35.9-16.3-31.6z"/><path fill="#424b46" d="M89 88h19v2H89z"/><ellipse cx="60" cy="40" fill="#9d8e74" rx="2" ry="29"/><path fill="#a6a9ab" d="M145 30h23v31h-23z"/><path d="M92 47h21v1H92z"/><path fill="#9ea098" d="M217 118h39v3h-39z"/><ellipse cx="38" cy="22" fill="#3c382d" rx="17" ry="35"/><path fill="#8b8e91" d="M122 16h21v9h-21z"/><ellipse cx="112" cy="152" fill="#8a4f52" rx="45" ry="2"/><path fill="#585242" d="M237 53l-45-1-2-34z"/><path d="M189 104h3v52h-3z"/><path fill="#111c21" d="M163 0h2v28h-2z"/></g></g></svg>