<svg xmlns="http://www.w3.org/2000/svg" viewBox="0 0 1400 2100"><defs/><filter id="a"><feGaussianBlur stdDeviation="12"/></filter><rect width="100%" height="100%" fill="#3e4f5d"/><g filter="url(#a)"><g fill-opacity=".5" transform="translate(4.1 4.1) scale(8.20313)"><circle r="1" fill="#fff4e1" transform="rotate(60 -78 164.3) scale(131.54952 149.19256)"/><circle r="1" fill="#837d77" transform="matrix(-136.8839 39.76845 -11.46606 -39.46645 112.7 34.2)"/><circle r="1" fill="#bfc0c3" transform="matrix(-70.5365 -35.80971 39.11903 -77.05506 7.7 229.3)"/><circle r="1" fill="#321c00" transform="rotate(153.2 3.6 2.6) scale(104.64375 18.8175)"/><circle r="1" fill="#706c62" transform="rotate(179.4 52.7 7) scale(83.60155 14.85204)"/><ellipse cx="53" cy="252" fill="#c5ccd4" rx="71" ry="8"/><circle r="1" fill="#b4b4b4" transform="rotate(87.3 -9.2 103.4) scale(12.74393 127.46267)"/><circle cx="72" cy="138" r="27" fill="#9f9282"/><circle r="1" fill="#acaead" transform="matrix(-7.39734 34.0016 -65.47895 -14.24551 132.4 189.7)"/><path fill="#8d8a8a" d="M27 231h82v12H27z"/><ellipse cx="169" cy="141" fill="#352924" rx="15" ry="3"/><path fill="#564d3e" d="M92.9-16L37 28.7l-51.5 17.9L9.6 14.8z"/><ellipse cx="100" cy="72" fill="#979896" rx="94" ry="15"/><circle r="1" fill="#7d807d" transform="matrix(-22.22543 33.08681 -14.68122 -9.86183 148 23.7)"/><path fill="#234250" d="M101 226h16v5h-16z"/><ellipse cx="34" cy="204" fill="#c1c7c8" rx="36" ry="11"/><path fill="#7d573b" d="M84 153l8-9 14 9z"/><path fill="#737068" d="M-13 30l53-2-43 50z"/><circle r="1" fill="#0b0b02" transform="matrix(20.95707 -3.842 1.20183 6.55565 17 0)"/><path fill="#594f4b" d="M18.1 215l.6-2.5-11 1.1 3.9 3.4z"/><circle r="1" fill="#7f573e" transform="matrix(6.11008 -2.68282 1.32637 3.0208 52 149.4)"/><path fill="#858482" d="M57.5 223.1l34.3-6.1-40.2.3-1.7 8.6z"/><circle r="1" fill="#c1c7c9" transform="rotate(-107 88.4 115) scale(9.04557 44.12056)"/><path fill="#27384f" d="M32.3 242.1l3.6-3.5.7-2.2-7.6 1.1z"/><ellipse cx="20" cy="177" fill="#a2a39e" rx="30" ry="16"/><path fill="#aeb2b3" d="M114 191h32v48h-32z"/><ellipse cx="165" cy="240" fill="#6b6763" rx="18" ry="3"/><path fill="#777a7c" d="M39 31.2L69 9.4l14 19.4-30 21.8z"/><path fill="#95999c" d="M106 73L83 24l42-1z"/><circle r="1" fill="#adb2b7" transform="rotate(96.2 -57.3 167.1) scale(1.67547 73.79049)"/><path fill="#554940" d="M64 157h11v5H64z"/><path fill="#c1c5c6" d="M68 146.3l2.4 3.2L42 171.7l-2.4-3.2z"/><path fill="#bac0c7" d="M105 92l22-8 12 11z"/><path fill="#b1b7ba" d="M155 83h15v41h-15z"/><path fill="#343947" d="M28 237l10-7-5 8z"/><path fill="#7d7875" d="M118.9 140.6l.9-.9-12.9 5.9 56-5.1z"/><path fill="#b2b4b3" d="M19.4 100l88.7 12.8-79 5.2-45.1 59.1z"/><circle r="1" fill="#9c9e99" transform="matrix(-.07762 7.41202 -61.05155 -.63935 131.4 181)"/><path fill="#837a72" d="M185 143.3l-35.3.2-9.5-19.6 36.9 30.1z"/><path fill="#9e9e9c" d="M42.3 98.6l3.6-40.9 41.8 3.7-3.6 40.9z"/><path fill="#696157" d="M118 130l14-2-14-2z"/><path fill="#aab5ba" d="M172 20l-11 5 24 32z"/><path fill="#c1c7ce" d="M71 248L8 266l21-27z"/><path fill="#b7b9b6" d="M78.2 147.9l2.4 7.8-48.2 55.7 60.1-53.7z"/><circle r="1" fill="#8c9095" transform="rotate(27.1 -86.3 106) scale(15.68234 20.59974)"/><ellipse cx="137" cy="170" fill="#acb1b1" rx="6" ry="54"/><path fill="#887a6f" d="M31.1 231.3l61.9 4.4-.1 1-61.9-4.4z"/><path fill="#857771" d="M8 241h15v4H8z"/><path fill="#888074" d="M59 125h20v10H59z"/><path fill="#51575c" d="M139 45l8-3-1 9z"/><path fill="#989592" d="M79.9 245.4l7.6-27.1 3.2 21.9 24.4 11.9z"/><path fill="#615e56" d="M83 76h19v3H83z"/><ellipse cx="156" cy="65" fill="#91948f" rx="46" ry="18"/><path fill="#b2b9bf" d="M148.5 239.8l9.9 8.4-12.9-14.7-63.6-2.4z"/><ellipse cx="163" cy="250" fill="#898688" rx="24" ry="3"/><path fill="#44545a" d="M117 64l6 1-4-4z"/><path fill="#8c8c89" d="M47.5 66.7l-57.9 37.5-7-10.9 57.8-37.5z"/><path fill="#48453c" d="M34.6-12L18.1 19l99.2-35-13.2 23.4z"/><circle r="1" fill="#78402d" transform="matrix(2.63471 .09592 -.03638 .99934 145.4 127.2)"/><path fill="#aeb2b0" d="M70.4 145.4l-4.1 5.7-22.7-16.5 4.1-5.7z"/><path fill="#979995" d="M135.7 230.3l-12.8 3.6-20.9-15.3 26-.3z"/><path fill="#a2a29a" d="M76 107h66v20H76z"/><path fill="#c3cacf" d="M4 203l-20 11 23 44z"/><path fill="#696463" d="M13 212l13 6-16-2z"/><path fill="#747472" d="M80 8l-34 5 49 25z"/><path fill="#c5c8c7" d="M78 171l-30 6 14-12z"/><path fill="#797975" d="M125 28V3l60 17z"/><path fill="#4b403b" d="M115 142h11v2h-11z"/><path fill="#8a8e89" d="M154 172h16v8h-16z"/><path fill="#231717" d="M63.4 218l.9.4-1.7 3.6-.9-.4z"/><ellipse cx="139" cy="149" fill="#b2b6b5" rx="20" ry="4"/><path fill="#9fa5af" d="M112 23h10v12h-10z"/><ellipse cx="94" cy="148" fill="#6e3f29" rx="5" ry="2"/><path fill="#a7a7a3" d="M81 238l44-40-70-11z"/><path fill="#8e9391" d="M157 216h13v11h-13z"/><path fill="#a5a8a8" d="M126.7 215.6L23.6 237.2l-9.7 13.7 29.7-28z"/><ellipse cx="8" cy="185" fill="#85807e" rx="14" ry="2"/><path fill="#857d75" d="M58.7 232.8l31.5 3.7 22.7 4.4-8-6.3z"/><path fill="#a4a49e" d="M105.1 139.5l79.9 36-83.6-27.9-36.9-.8z"/><circle r="1" fill="#9c9f9f" transform="matrix(11.6813 7.17812 -3.19886 5.20567 16.5 86)"/><path fill="#787a76" d="M12.3 64.4l31.6-36.2L-16 58.4v8.5z"/><ellipse cx="92" cy="133" fill="#7c4733" rx="3" ry="2"/><path fill="#b4bcc0" d="M168.1 190.4l1.5 24.7-19.5-13.6 34.9-1.2z"/><path fill="#b4b7b6" d="M31.8 173.9L73.7 249l-27.6-63.4L11 223.1z"/><path fill="#8d8e8e" d="M120 36l-12.2 23L76 42l12.2-23z"/><path fill="#9a8c74" d="M87.4 108.6l-13 40-3.8-1.2 13-40z"/><path fill="#a2a19c" d="M8 127l53 5-5-15z"/><path fill="#928f87" d="M84 93l-4-11h36z"/><path fill="#94999f" d="M18.4 70l-6.1 2.5-7.4-5.2 46.9-36.8z"/><ellipse cx="44" cy="212" fill="#c1c6ca" rx="25" ry="4"/><path fill="#9e9e9b" d="M105.7 51.1l29.5-2.9L76.7 67l40.1 5.3z"/><path fill="#58564e" d="M52.9 12.3l-54.4 35L-16 33.6l31.7-10.5z"/><path fill="#696962" d="M86.7 9.5L58.6-16l122 6.5-56.1 28.2z"/><path fill="#622211" d="M153 136.8l-1.1 2.8-1-.4 1.2-2.8z"/><circle cx="161" cy="141" r="2" fill="#2c2521"/><path fill="#78422e" d="M54.1 133l8 1-.2 1-8-1z"/><ellipse cx="24" cy="113" fill="#b9bec0" rx="50" ry="2"/><path fill="#1f404f" d="M100 227h12v3h-12z"/><path fill="#030702" d="M22 7l-38-23h40z"/><path fill="#7c716b" d="M130 239h10v3h-10z"/></g></g></svg>