<svg xmlns="http://www.w3.org/2000/svg" viewBox="0 0 1400 933"><defs/><filter id="a"><feGaussianBlur stdDeviation="12"/></filter><rect width="100%" height="100%" fill="#5c4233"/><g filter="url(#a)"><g fill-opacity=".5" transform="translate(2.7 2.7) scale(5.46875)"><ellipse cx="57" cy="90" fill="#c2d5d8" rx="255" ry="79"/><circle r="1" fill="#e5f6f7" transform="rotate(80.3 90.2 161.9) scale(45.64372 95.57726)"/><ellipse cx="120" cy="117" fill="#372d31" rx="248" ry="15"/><ellipse cx="136" cy="42" rx="8" ry="85"/><circle cx="13" cy="68" r="26" fill="#2f0700"/><path fill="#ebffff" d="M64 24h35v70H64z"/><ellipse cx="109" cy="145" fill="#f0c7a5" rx="83" ry="19"/><ellipse cx="171" cy="70" fill="#fff" rx="17" ry="33"/><circle cx="10" cy="138" r="20" fill="#0f0f14"/><path fill="#011a20" d="M-14.6 2.6L130.9 25l4 6.3L254.5-16z"/><path fill="#010b09" d="M98 68l39-32-38-5z"/><path d="M57.6 95l43.8.2-11.4-.9-19.2 29.3z"/><path fill="#000311" d="M182 93l45 15 42-15z"/><ellipse cx="205" cy="163" fill="#000d16" rx="57" ry="8"/><path d="M209 56l-9 13h18z"/><path fill="#f1dbc4" d="M121.5 162.4l16.6-4.5-49.5 21.6-79.7-47.2z"/><path fill="#eefeff" d="M37 74h61v20H37z"/><path d="M160 88l-20 3-1-29z"/><path fill="#f4ffff" d="M128 53v34h-14V53z"/><circle r="1" fill="#b7c6c6" transform="matrix(-.2538 16.68706 -24.57388 -.37375 9.8 22.8)"/><circle r="1" fill="#e9e1ec" transform="rotate(-108.4 64.2 82.2) scale(10.73107 30.38143)"/><circle r="1" fill="#000013" transform="matrix(-15.06155 -4.82249 1.50397 -4.69718 49.8 163.8)"/><path fill="#b2adc5" d="M179 102h36v18h-36z"/><path fill="#7f5043" d="M90 131l1 28 50-6z"/><path fill="#c4d4e9" d="M235 103h21v15h-21z"/><path fill="#f2daa1" d="M67.3 115.1L44.6 88.3l-5.2 7.5 13 28.1z"/><path fill="#533d07" d="M35 104l-50-37 49-30z"/><path fill="#0b1012" d="M152 98l-87 31 81-6z"/><path fill="#fff" d="M153 92l20.8-1.9 1.3 14-21 1.8z"/><circle cx="168" cy="112" r="10"/><circle r="1" fill="#949c96" transform="rotate(-80.5 139.4 -122.5) scale(33.32196 55.06525)"/><ellipse cx="63" cy="67" fill="#0c1313" rx="2" ry="46"/><ellipse cx="234" cy="162" fill="#171e21" rx="54" ry="14"/><ellipse cx="234" cy="84" fill="#f3eae8" rx="54" ry="9"/><ellipse cx="177" cy="144" fill="#e0c7ac" rx="43" ry="10"/><path fill="#d9c8bc" d="M3.5 93.6l23.2 16.2-42.7 2.3V94z"/><path fill="#907582" d="M79 98h46v21H79z"/><ellipse cx="167" cy="64" fill="#faffff" rx="16" ry="26"/><path fill="#5c615f" d="M239-3l2 112h-4L235-3z"/><circle r="1" fill="#565b6b" transform="matrix(-90.41118 -12.86742 1.26598 -8.89525 242.6 132.4)"/><path d="M225 99l12 4-13 23z"/><path fill="#ffe2ba" d="M54 142.3l-34-.6v-8l34 .6z"/><path fill="#322e2f" d="M-15.4 137.3l-.8-9 109.6-9.6.8 9z"/><path fill="#10151d" d="M35 149l-51 12 28-25z"/><path fill="#ecffff" d="M19 162l17-16 12 7z"/><path fill="#0f0600" d="M138 0h5v90h-5z"/><path fill="#122126" d="M121 49h2v58h-2z"/><circle r="1" fill="#a4b4bb" transform="matrix(45.38549 5.45284 -.61068 5.08288 90.8 24.6)"/><path fill="#2c2e2c" d="M140.3 27.4l26.1-5.8L107.9-16 33.7 7.2z"/><path fill="#bbbfa2" d="M36 57h26v30H36z"/><path fill="#3d4c55" d="M116 85L99 72l12-39z"/><path fill="#2c2f30" d="M269.2 140.5l-55.3 10-95.5 16.2 84 18.3z"/><path fill="#523a0c" d="M59 49l-70 12-5-19z"/><path fill="#a39a91" d="M192.3 127.3l-47-14.8 14.2-12.2-28.1 56.5z"/><ellipse cx="214" cy="50" fill="#d9dadc" rx="15" ry="11"/><circle r="1" fill="#504c57" transform="rotate(99.2 58 134) scale(6.48173 20.21107)"/><path fill="#f5fffe" d="M173 82l-29-10 41-39z"/><ellipse cx="17" cy="169" fill="#b3b6bc" rx="29" ry="11"/><ellipse cx="124" cy="77" fill="#fff" rx="2" ry="25"/><path fill="#2e342f" d="M5.4 18.6l-21.4-.3 13.6 2.8 64.3 6.6z"/><path fill="#d8e8fe" d="M64 57h18v38H64z"/><path fill="#1d251e" d="M201.4 2.1L199.1 20 186.6-6.5l58 7.8z"/><path fill="#9eb6c1" d="M101 84l7 36 10-34z"/><path fill="#a8b1bf" d="M231.9 124.6l9.3-13.5 22.9 25.2-24.8-40.2z"/><circle cx="130" cy="29" r="6" fill="#b1bbbf"/><path fill="#121f28" d="M32 18h3v91h-3z"/><path fill="#fff" d="M183 90l-29 10-5-10z"/><path d="M205 61h7v7h-7z"/><circle r="1" fill="#e2ccb7" transform="rotate(40.5 -176.8 195.7) scale(34.26767 10.58808)"/><path fill="#9fb5cb" d="M181.8 166.8l.3 3-16 1.4-.2-3z"/><circle r="1" fill="#bc9f76" transform="matrix(26.07105 1.82307 -1.04803 14.9875 130.6 139.8)"/><path fill="#9da5ac" d="M64 26h35v24H64z"/><path d="M149 76l-7 13 18-1z"/><path fill="#afa3b2" d="M177 98h29v12h-29z"/><path fill="#535658" d="M129 53l2 48 29 12z"/><path fill="#040604" d="M79 97l-3 25-18-25z"/><path fill="#131b1a" d="M32.5 72.1l.1-1L63.5 74l-.1 1z"/><path fill="#0c2236" d="M97 185l-48-11-4-21z"/><path fill="#a78875" d="M40.9 119.7L26.3 90.5 9.5 95.9l-1.7 3.6z"/><path fill="#929086" d="M187 11h14v61h-14z"/><path fill="#2a2c2a" d="M107 127.2l12.8-36.1-5.2 27.5-71.9 13.5z"/><path fill="#0d0e0b" d="M124 104h23v21h-23z"/><circle r="1" fill="#fff6e5" transform="matrix(2.54723 9.24035 -12.47786 3.4397 222.7 84.3)"/><path fill="#070c14" d="M218 115v-2h34v2z"/><path d="M15 163h3v7h-3z"/><path fill="#cfc2b5" d="M162.5 159.5l-4.7-26.5 16.5-3.2 41.5 14.1z"/><path fill="#535358" d="M210.6 110.2l-19.8 34L213 91.6l13.9 14.8z"/><path fill="#9ca8aa" d="M-16 9.7l6.6-5.8 149.6 25.8-129.7-8.5z"/><path fill="#403a37" d="M11.4 135.3l64.3-7.8-70-17.2-21.7 14z"/><path fill="#3e4049" d="M254.1 111l-8.3-16 24.3 4.1-29.1 8.5z"/><path fill="#f1dabd" d="M15 71h7v4h-7z"/><path fill="#d9dbed" d="M90.4 75.7l2.6 47.1 3.5-28.7-26.7-5.5z"/><path fill="#e0dcc4" d="M44 93l17-42v44z"/><circle r="1" fill="#141c20" transform="rotate(78.5 -37.3 165.5) scale(2.78619 83.99903)"/><path fill="#eff" d="M181.1 104.5l-12-28.1-16.3 27.2 14.7-3.6z"/><path fill="#bb6300" d="M110 141h9v8h-9z"/><path fill="#b8baaf" d="M7 24h24v21H7z"/><path fill="#a79780" d="M195.6 26.1l-23 12.6-31.4-1.1-2.6.9z"/><path d="M204 66h13v3h-13z"/><circle cx="212" cy="116" r="5" fill="#cfccd2"/></g></g></svg>