<svg xmlns="http://www.w3.org/2000/svg" viewBox="0 0 1400 933"><defs/><filter id="a"><feGaussianBlur stdDeviation="12"/></filter><rect width="100%" height="100%" fill="#644e34"/><g filter="url(#a)"><g fill-opacity=".5" transform="translate(2.7 2.7) scale(5.46875)"><circle r="1" fill="#b7d0e5" transform="matrix(-.56664 -42.66865 152.37739 -2.02356 149 156.2)"/><ellipse cx="65" cy="51" fill="#e9ffff" rx="21" ry="23"/><path fill="#c0f8e2" d="M197 16h59v36h-59z"/><path fill="#141e25" d="M187 117L28 88l103 56z"/><circle r="1" fill="#000c1a" transform="rotate(5.4 -898.5 2483.4) scale(74.51269 21.16941)"/><ellipse cx="17" cy="58" fill="#354a52" rx="32" ry="94"/><circle r="1" fill="#bac5ca" transform="rotate(8.4 -1022.3 824.2) scale(49.36527 20.28996)"/><path fill="#a9becb" d="M158.6 3.8l72.3-15.4L233.4.2l-72.3 15.4z"/><circle r="1" fill="#435056" transform="rotate(111.1 53 65.2) scale(73.88326 42.59529)"/><path fill="#000006" d="M41 87h31v34H41z"/><path fill="#373f43" d="M241-2.5v91h-16v-91z"/><circle r="1" fill="#868b8e" transform="rotate(155.2 1 46) scale(25.70188 15.09911)"/><path fill="#a9b5c2" d="M155 97l43 4-46 12z"/><circle r="1" fill="#1c2622" transform="matrix(-1.40814 8.77468 -104.33258 -16.74298 30.6 16.5)"/><path fill="#f0ffd8" d="M247 11h9v33h-9z"/><circle r="1" transform="matrix(54.7634 -9.06602 2.12066 12.80989 240.8 98.8)"/><path fill="#c7ced0" d="M103 108v17l33 11z"/><path fill="#b0b3b2" d="M235 116L94 156h161z"/><path fill="#adb0bd" d="M183.3 79.7l-18.6-1.3L189.5 90l11.6-3.2z"/><path fill="#ecffe1" d="M198 33h26v18h-26z"/><path fill="#a7c5a9" d="M90.8 62.2L47.1 78.7l-2.4-52.6 50.2 11.8z"/><path fill="#090800" d="M141.4 105l-.8 42h-8l.8-42z"/><path fill="#191504" d="M-16 130l80-11-58-15z"/><path fill="#c2c7c2" d="M68 119l22-4 8 8z"/><ellipse cx="232" cy="64" fill="#4b5b59" rx="75" ry="14"/><path fill="#565a64" d="M41 69l103 10-32 38z"/><ellipse cx="92" cy="2" fill="#5c6a66" rx="58" ry="15"/><ellipse cx="67" cy="52" fill="#424442" rx="2" ry="28"/><circle cx="128" cy="49" r="29" fill="#3b392f"/><path fill="#67655a" d="M195.3 70.1l-26.1 18.7-23.9-91L199.7 11z"/><circle r="1" fill="#a08d7c" transform="matrix(.04185 3.99594 -26.72604 .27988 146.2 103.3)"/><path d="M103.8 126.5l-5.2-31.9-2.3 33.5 46.7 17.6z"/><ellipse cx="164" cy="125" fill="#0f1008" rx="13" ry="5"/><circle r="1" fill="#322f2a" transform="rotate(-167.2 54 35.6) scale(20.50715 10.07349)"/><path fill="#cce4bc" d="M48 30h19v39H48z"/><path fill="#171a34" d="M201 7h2v47h-2z"/><path fill="#9ea5a5" d="M207.5 128.6l-16.4 22-3-43.5-30.5 10.3z"/><path fill="#3b3e36" d="M0 0h48v59H0z"/><circle r="1" fill="#8f806e" transform="matrix(-21.0583 18.79686 -7.70587 -8.63296 27.5 144.2)"/><path fill="#949995" d="M139.6 74.7l-8.2 18.9-1.7-1.8-13.8-5.9z"/><path fill="#334240" d="M271-3.9L268.7 4l-67.8 17-13.1-10.5z"/><path fill="#060b0a" d="M141.1 81.5l38.9 8.6-4.2 5.2-24.7 3z"/><path fill="#a6aebb" d="M235.9 84.1l-29.6 4.7-.2-1 29.6-4.6z"/><path fill="#7b6b5c" d="M199 144l-62 41h64z"/><path fill="#fff" d="M242 10h2v36h-2z"/><path fill="#191e37" d="M244 18h2v41h-2z"/><path fill="#c0c6c6" d="M198.5 113.9l12.6 5.9-7.6 16.3-12.6-5.9z"/><circle r="1" fill="#72767f" transform="matrix(16.9314 13.63784 -3.08904 3.83505 73.5 84)"/><path fill="#1b1b13" d="M120 107h31v13h-31z"/><path fill="#a0aab4" d="M131.6 137.2l-12.4-3.8 3.2-10.6 12.4 3.8z"/><path fill="#fff" d="M198 20h3v34h-3z"/><circle cx="76" cy="59" r="6" fill="#f9ffff"/><circle cx="252" cy="105" r="15"/><ellipse cx="194" cy="111" rx="2" ry="10"/><path fill="#a2a5a2" d="M231-1l-82-6 41 17z"/><path fill="#293034" d="M64.4 79.3l17.7 32.5-8.6 9.7-27.3-44.1z"/><path fill="#1b1e12" d="M97 23l-55 5 6-17z"/><path fill="#a7adab" d="M144 136l93-16-138 65z"/><path fill="#4e4a45" d="M91 18h18v94H91z"/><path d="M147 45h12v9h-12z"/><path fill="#40473d" d="M251.2 48.3l-19.1 3.9L271 122V52.8z"/><path fill="#959d9d" d="M98 140l-3-26-67 13z"/><path fill="#bcefab" d="M247 13l-1 34 25-49z"/><path d="M134 119h7v25h-7z"/><path fill="#675a4a" d="M6 128l26-5 21 29z"/><path fill="#7fa972" d="M220 39l-16-3 33-32z"/><circle r="1" fill="#5d5851" transform="matrix(7.62643 .15319 -.6127 30.50308 233.1 31.7)"/><ellipse cx="156" fill="#7e7160" rx="28" ry="15"/><path fill="#030400" d="M178 91v1l-82 13v-1z"/><path fill="#464439" d="M67 28h3v38h-3z"/><path fill="#626664" d="M10.7 63.2l-25.2 24.5 56.7-8.1 61.3-2.5z"/><path fill="#040b05" d="M44.5 121.6l-2.4-30.3-1.9-11 19.6 41.4z"/><path fill="#7a7c7d" d="M0 88h41v13H0z"/><ellipse cx="181" cy="82" fill="#9ea9b0" rx="8" ry="4"/><path fill="#505049" d="M5 80l44-12-7-68z"/><path fill="#060d08" d="M173 108h33v3h-33z"/><path fill="#b6b0b6" d="M66.2 83.6l5.9-2.3 13.3 12.4 4.2-2z"/><path d="M96 109h6v20h-6z"/><path fill="#616f60" d="M176 92h31v3h-31z"/><path fill="#7c7977" d="M237.6 115.5L271 126l-29.1 9.5-12.9-16.1z"/><path fill="#9f9da2" d="M210 154.6l29.6-29.7 42.5 42.5-29.7 29.7z"/><path fill="#acc4a3" d="M71 33h15v24H71z"/><path d="M104 87h13v5h-13z"/><path fill="#d4f4d0" d="M203 21h6v31h-6z"/><path fill="#2e2f30" d="M78 90l-3 27 30-5z"/><path fill="#1e2e1d" d="M200 93l-21 2-3 10z"/><path fill="#fff" d="M241 33l2.9 17.8-1 .2-2.8-17.8z"/><path fill="#9b9291" d="M136 101.1l24.9-4.6 13.6 3.2-13.2 8.3z"/><circle r="1" fill="#958a7c" transform="matrix(-11.26476 -17.92897 40.05817 -25.16853 9.6 169)"/><path fill="#85818b" d="M73.6 97.3l72.6-7.6.2 1-72.6 7.6z"/><path fill="#899ea7" d="M217.2 84.1l3.9 1-2.3 8.8-3.9-1z"/><path fill="#605848" d="M143.5 21.7L102.9-16l96.8 54-61 11.1z"/><path fill="#816852" d="M153.1 68.3l7.8 15.2 19.6-18.8-18.9-.8z"/><path fill="#524f47" d="M113.9 119.9l61.5-3.8-24.2-9.5-1.7 6.3z"/><circle r="1" fill="#867058" transform="matrix(-31.14218 3.268 -.25345 -2.41526 116.3 105.8)"/><path d="M123.4 134.5l12.5 6.3-1.3 2.7-12.5-6.3z"/><path fill="#a09e9b" d="M186 101h10v4h-10z"/><path fill="#090c07" d="M205.8 80l13 4-36.2-.2 22.1-6.1z"/><path fill="#1e261d" d="M271-4l-29 15-5-21z"/><path fill="#111110" d="M80.8 80.8l4-3 10.4 13.4-4 3z"/></g></g></svg>