<svg xmlns="http://www.w3.org/2000/svg" viewBox="0 0 1400 933"><defs/><filter id="a"><feGaussianBlur stdDeviation="12"/></filter><rect width="100%" height="100%" fill="#3d3125"/><g filter="url(#a)"><g fill-opacity=".5" transform="translate(2.7 2.7) scale(5.46875)"><circle r="1" fill="#fff" transform="matrix(53.04145 77.21152 -93.2139 64.0345 64.3 3.4)"/><circle r="1" fill="#ac786b" transform="matrix(-30.10949 -39.09494 62.96154 -48.49067 139.4 59.7)"/><ellipse cx="38" cy="39" fill="#ebfdff" rx="32" ry="52"/><ellipse cx="183" cy="169" fill="#cdd9e2" rx="92" ry="15"/><ellipse cx="245" cy="101" fill="#d1d2cd" rx="24" ry="23"/><ellipse cx="37" cy="111" fill="#a6171f" rx="142" ry="21"/><circle r="1" fill="#322200" transform="rotate(-25.7 197.4 -304.6) scale(24.63086 27.37667)"/><circle r="1" fill="#2e0000" transform="matrix(1.0611 21.84625 -112.77433 5.47756 126.2 134)"/><path fill="#d9e2e7" d="M0 166h143v4H0z"/><ellipse cx="188" cy="35" fill="#7a9ba2" rx="14" ry="49"/><circle cx="136" cy="16" r="12" fill="#dfffff"/><circle r="1" fill="#cd4f51" transform="matrix(.79576 10.13815 -76.2713 5.98668 132.6 93)"/><path fill="#6f6547" d="M223 0h33v86h-33z"/><ellipse cx="42" cy="26" fill="#898684" rx="8" ry="70"/><ellipse cx="25" cy="53" fill="#f6ffff" rx="11" ry="39"/><path fill="#eef7ff" d="M56 44h15v47H56z"/><ellipse cx="99" cy="49" fill="#e4e2bc" rx="8" ry="36"/><circle r="1" fill="#150000" transform="matrix(25.08687 -2.23346 2.68068 30.1102 198.1 127.7)"/><circle r="1" fill="#324649" transform="matrix(23.11777 21.86139 -3.8259 4.04577 106.4 8.8)"/><ellipse cx="79" cy="9" fill="#5d665f" rx="10" ry="79"/><circle r="1" fill="#a08185" transform="matrix(2.06034 6.13075 -38.78203 13.03334 0 117)"/><path fill="#340601" d="M-57.8 170.4l-1.3-37 168.9-5.8 1.3 37z"/><path fill="#07110a" d="M253 23.1l18-1.2-72.6 16.2 1.7-21z"/><ellipse cx="1" cy="30" fill="#7a7b7b" rx="11" ry="79"/><circle r="1" fill="#6c1319" transform="matrix(7.61437 14.14233 -24.61777 13.25444 181.2 98.4)"/><path fill="#e8f5ff" d="M32.7-16L28.6 92.1 10.5 11.8 10-16z"/><path fill="#82a0a3" d="M145 0h33v29h-33z"/><path fill="#b3857a" d="M151.9 109L71 66.8l54.7 11.3 38.7 14.5z"/><path fill="#acb1b5" d="M259 118l-33-11-8 12z"/><path fill="#8b8780" d="M212.4 81.9l58.6-1.1v70.3l-53.9-61.3z"/><circle r="1" fill="#182626" transform="matrix(13.2588 13.9231 -15.40952 14.67429 237.5 140.2)"/><path fill="#747d7d" d="M132 153h95v4h-95z"/><path fill="#412f15" d="M130 31h47v20h-47z"/><path fill="#7f9799" d="M236.5 17l7.6-30.4 4.3 29.4-8.1 6.9z"/><ellipse cx="64" cy="11" fill="#dce6f0" rx="4" ry="84"/><path fill="#400200" d="M99.1 163.4l24.5-1.1-27-28.9 135.8-36.5z"/><path fill="#8f2123" d="M15 90h30v13H15z"/><path fill="#010802" d="M207 0h6v84h-6z"/><path fill="#a2a5a3" d="M44 165h117v5H44z"/><path fill="#cfdce9" d="M144 8.6l3.1 20.3-12.6-1.5L114 8.5z"/><path fill="#848a8c" d="M172 63l32 12-4-50z"/><path fill="#8d1d1b" d="M46 99h53v27H46z"/><path fill="#0c0100" d="M136 132h84v19h-84z"/><path fill="#85714b" d="M115.2 52.7l72-36-31.1 10.8-63.1 20z"/><circle r="1" fill="#727775" transform="matrix(42.35172 -.46342 .06028 5.50934 109.3 4.2)"/><path fill="#815722" d="M221 31h29v30h-29z"/><path fill="#3a4b4b" d="M-4.9-11.5l5-.6 6.8 55.6-5 .6z"/><path fill="#ccc6c2" d="M11 92l11-3L8 51z"/><ellipse cx="37" cy="162" fill="#02160e" rx="72" ry="4"/><path fill="#573535" d="M-16 135.2l45.5 9.7 18-41.5-17.9 4.7z"/><path fill="#dbdacc" d="M-16 43H3L2 91z"/><path fill="#3a3f3f" d="M118 9l-22 6V7z"/><ellipse cx="55" cy="169" fill="#babdbe" rx="55" ry="3"/><path fill="#9f9466" d="M110 47h20v39h-20z"/><path fill="#192017" d="M226.1 27.1l-24.4-3.6 1.8 58.9 8.9-97.9z"/><path fill="#526b68" d="M85 46h6v41h-6z"/><circle r="1" fill="#1f2930" transform="matrix(-.13778 -3.28723 30.16857 -1.26444 228.6 79.2)"/><path fill="#d05c52" d="M90 112l16-25 46-5z"/><path fill="#d1c9af" d="M99 16h9v72h-9z"/><circle r="1" fill="#64100e" transform="rotate(176.5 45.2 64.5) scale(64.09157 11.93793)"/><circle r="1" fill="#b5888a" transform="matrix(-3.61417 -1.50433 5.86773 -14.0973 134.6 98.4)"/><path fill="#d0d6dc" d="M75 88l-22 1 4-79z"/><path fill="#6c4d27" d="M132.4 50.4l25 1.3-1.8 32-25-1.4z"/><circle r="1" fill="#230200" transform="matrix(7.10131 9.31707 -19.4044 14.7897 202.7 115)"/><circle cx="185" cy="7" r="21" fill="#696b65"/><ellipse cx="96" cy="158" fill="#000d04" rx="22" ry="4"/><path fill="#def3ff" d="M88 10h6v10h-6z"/><path fill="#e1ecf2" d="M16 0h15v89H16z"/><path fill="#cdd4ca" d="M12 115l11.3-12.7.8.7-11.4 12.7z"/><path fill="#9fa09f" d="M147 152l-37 33 58-25z"/><path fill="#5c5e5e" d="M233.7 184.7l36-41.2-32.7-13.4 30-15.1z"/><path fill="#141106" d="M175 78l-3-15-13 11z"/><path fill="#908a7f" d="M11 41h3v32h-3z"/><circle r="1" fill="#b6524f" transform="matrix(2.3292 5.91059 -23.1298 9.11479 0 100.6)"/><path fill="#801e1b" d="M89.1 128.1l86.1-13.2-46.2-4-.7-20.9z"/><path fill="#281a10" d="M130 42h44v7h-44z"/><path fill="#10140c" d="M247.5 121.8l-17.5-2.4-29.8-2.4 14.3 34.9z"/><ellipse cx="165" cy="82" fill="#c93330" rx="20" ry="3"/><path fill="#795e3e" d="M132 29h30v12h-30z"/><path fill="#414d52" d="M8.5 87.8l-2 .2-5-57.8 2-.2z"/><circle r="1" fill="#c68382" transform="matrix(-.24714 3.21189 -20.65365 -1.58921 71.4 93.3)"/><path fill="#a2a4a5" d="M190.1 165.1l80.9 3.4L133 185l71.6-17.6z"/><path fill="#51504a" d="M190.5 161.3L158.3 185h44.8l-17.2-41.1z"/><path fill="#a5a199" d="M46 47h6v43h-6z"/><path fill="#160f06" d="M131 72h12v7h-12z"/><path fill="#828687" d="M174.9 80.7L195-16l2.3 80-10.9 13.1z"/><path fill="#3e2e1a" d="M179 32l-23-3 14 31z"/><path fill="#fff" d="M-3.3 93.4l-1.2-4.9 7.8-1.9 1.2 4.9z"/><ellipse cx="57" fill="#cdd4dc" rx="10" ry="68"/><path fill="#9aa0a3" d="M153.8 32.4l13.8-11.6-2.7-27.3L134.4-8z"/><path fill="#8e979a" d="M80 47h6v41h-6z"/><circle cx="118" cy="23" r="6" fill="#404e51"/><path fill="#3e0400" d="M24.9 137.1l150.6-16.4 25.3 17.7-167.9 17.1z"/><circle r="1" fill="#3e2811" transform="matrix(21.33226 -4.26559 .73717 3.68658 233 67.2)"/><path fill="#cab99d" d="M115 68l17-17h-11z"/><ellipse cx="39" fill="#9ba0a0" rx="6" ry="71"/><ellipse cx="99" cy="153" fill="#2e301f" rx="39" ry="4"/><path fill="#7b2532" d="M198 99l-41 1 3-12z"/><ellipse cx="92" cy="165" fill="#797570" rx="29" ry="2"/><path fill="#928a82" d="M221 81h35v16h-35z"/></g></g></svg>