<svg xmlns="http://www.w3.org/2000/svg" viewBox="0 0 1400 2100"><defs/><filter id="prefix__a"><feGaussianBlur stdDeviation="12"/></filter><rect width="100%" height="100%" fill="#4f463a"/><g filter="url(#prefix__a)"><g transform="translate(4.1 4.1) scale(8.20313)"><circle r="1" fill="#cdd9e2" fill-opacity=".5" transform="rotate(-92 148.9 65.4) scale(43.65797 169)"/><ellipse cx="39" cy="110" fill="#f8ffff" fill-opacity=".5" rx="23" ry="24"/><circle r="1" fill="#6e7771" fill-opacity=".5" transform="matrix(-91.08349 13.23992 -22.72234 -156.31736 92.1 43.5)"/><circle r="1" fill="#c2cfd9" fill-opacity=".5" transform="matrix(6.06904 -23.79957 41.07057 10.47325 77.2 217.7)"/><path fill="#050504" fill-opacity=".5" d="M150.2 185.2l-43.5 7-16.9-24 19.8-4.9z"/><circle cx="37" cy="108" r="20" fill="#dffed9" fill-opacity=".5"/><circle r="1" fill="#9c9d94" fill-opacity=".5" transform="rotate(-33.1 214 -245.8) scale(23.94139 49.03546)"/><path fill="#6a5a48" fill-opacity=".5" d="M172.5 247l-82.1 43.7-17-31.8 82.2-43.6z"/><path fill-opacity=".5" d="M185 165l-62.7-12.2 2.6-13.8 62.8 12.2z"/><circle r="1" fill="#737e82" fill-opacity=".5" transform="rotate(-77.6 82.6 59) scale(33.32575 13.64503)"/><path fill="#000205" fill-opacity=".5" d="M14 144h30v32H14z"/><circle r="1" fill="#b8c2c4" fill-opacity=".5" transform="matrix(59.28678 -27.1436 5.8021 12.67287 144 202)"/><path fill="#000007" fill-opacity=".5" d="M120.9 205.2l-43.5-20.5-16.8-33.9 9.2 36.6z"/><circle r="1" fill="#181604" fill-opacity=".5" transform="rotate(-81.4 69.3 16) scale(7.8796 24.72212)"/><ellipse cx="96" cy="106" fill="#423d35" fill-opacity=".5" rx="33" ry="30"/><path fill="#fff" fill-opacity=".5" d="M166 81h4v30h-4z"/><path fill="#bab1b0" fill-opacity=".5" d="M139 156l32 23-69-21z"/><path fill="#000406" fill-opacity=".5" d="M107.9 202.8l-2.1 6.6 8.7-20.9-23.2 9z"/><circle r="1" fill="#706d61" fill-opacity=".5" transform="matrix(19.11697 -23.6502 74.99113 60.61697 88.3 36.6)"/><path fill="#d4eaca" fill-opacity=".5" d="M19.3 88.1l18.2 44.1-2.1-43.1-9-2.9z"/><path fill="#a0a3b7" fill-opacity=".5" d="M142.9 136l6.7 1.1 35.4 15.8-46.1-11.8z"/><path fill="#4b4a4c" fill-opacity=".5" d="M38 88h4v38h-4z"/><path fill="#464842" fill-opacity=".5" d="M0 68h21v52H0z"/><path fill="#040704" fill-opacity=".5" d="M136.7 168.6l64.2-10.2.4 3-64.2 10.2z"/><path fill="#100f0c" fill-opacity=".5" d="M110 142h30v14h-30z"/><path fill="#2e2b30" fill-opacity=".5" d="M30 157h43v16H30z"/><path fill="#a2a19d" fill-opacity=".5" d="M185 44.5l-13.1 23.9-55.4 1.3 15.7-7.8z"/><path fill="#a6aeb2" fill-opacity=".5" d="M21.4 180l41.5-8.9L73 255.3 6.9 180.5z"/><path fill="#acb8cc" fill-opacity=".5" d="M75.3 176l29.9 11.5-2.5 6.5-29.9-11.5z"/><path fill="#010000" fill-opacity=".5" d="M158 132h12v10h-12z"/><circle r="1" fill="#403e43" fill-opacity=".5" transform="matrix(-20.70462 -10.40357 5.15998 -10.26911 68.7 137.6)"/><path fill="#bfc8ce" fill-opacity=".5" d="M91 137h13v9H91z"/><circle r="1" fill="#888e92" fill-opacity=".5" transform="matrix(5.02865 6.49947 -21.14181 16.35744 4.6 141.6)"/><circle r="1" fill="#7e736b" fill-opacity=".5" transform="matrix(44.01796 3.27369 -1.04179 14.00784 25 250.6)"/><path fill-opacity=".5" d="M104 182h7v16h-7z"/><path fill="#4f4735" fill-opacity=".5" d="M185 77.2L169.3 83l4.8-16.2-64.5 14.9z"/><path fill="#443d30" fill-opacity=".5" d="M21.4 177.8l-28.5-12.2L18.1 196-16 185z"/><path fill="#96aba6" fill-opacity=".5" d="M154 137h3v26h-3z"/><circle r="1" fill="#000907" fill-opacity=".5" transform="matrix(-2.28354 -.92684 6.32332 -15.57927 169 164.4)"/><path fill="#afa0b2" fill-opacity=".5" d="M66.7 156.3l-13.3-13.6-5.6.6 6 6.9z"/><path fill="#fff" fill-opacity=".5" d="M185 125l-18-48v30z"/><path fill="#e2f1ee" fill-opacity=".5" d="M42.5 116l12.3-8.8-5.8 18.4H17.3z"/><path fill-opacity=".5" d="M67 166h6v19h-6z"/><path fill="#1e160e" fill-opacity=".5" d="M93.4 179.6L85 174l7.6-11.7 8.4 5.5z"/><ellipse cx="124" cy="108" fill="#170d00" fill-opacity=".5" rx="9" ry="5"/><path fill="#a9b1b2" fill-opacity=".5" d="M116.9 194.3l-24.8 21.1 20 23 72.9-43.6z"/><path fill="#292d2a" fill-opacity=".5" d="M138.9 178.3l-44.1 23 19.1-7 37.4-11.3z"/><path fill="#868392" fill-opacity=".5" d="M64 149h52v3H64z"/><path fill="#6c6a5d" fill-opacity=".5" d="M153.6 21.5L2.7 69.2l114.4 11.3 20.7 54.6z"/><path fill="#c9d2d4" fill-opacity=".5" d="M166 172h4v18h-4z"/><ellipse cx="82" cy="146" fill="#040c05" fill-opacity=".5" rx="8" ry="4"/><path fill="#b2bcbe" fill-opacity=".5" d="M148.2 168.8l10.3 2.5 5.3 7.3-20.6-6.2z"/><path fill="#727682" fill-opacity=".5" d="M25 126h22l2 26z"/><path fill="#15160f" fill-opacity=".5" d="M62 170l-48-6-7 15z"/><path fill="#1a1e27" fill-opacity=".5" d="M125.7 169.7l38.8 9.7-.2 1-38.8-9.8z"/><ellipse cx="102" cy="161" fill="#ad865c" fill-opacity=".5" rx="18" ry="4"/><circle r="1" fill="#1a1915" fill-opacity=".5" transform="rotate(173.1 48 81) scale(67.53251 1)"/><circle r="1" fill="#7c776f" fill-opacity=".5" transform="rotate(-49.6 345.3 -54.6) scale(24.22846 31.74669)"/><path fill="#768872" fill-opacity=".5" d="M148 150h22v3h-22z"/><path fill="#9f9c9e" fill-opacity=".5" d="M120.9 168l28.9-8.6-25.3-4.9-14.2 49.7z"/><path fill-opacity=".5" d="M57.8 147l-6.2-10.4 2.6-1.5 6.2 10.3z"/><circle r="1" fill="#656a64" fill-opacity=".5" transform="matrix(16.38426 35.62193 -24.13096 11.099 40.8 40.3)"/><path fill="#6a6455" fill-opacity=".5" d="M128 76h37v59h-37z"/><path fill="#252416" fill-opacity=".5" d="M19 71h13v16H19z"/><path fill="#01070b" fill-opacity=".5" d="M106.6 203.5l-36.2-19.2 1-1.8 36.2 19.2z"/><circle r="1" fill="#aba29b" fill-opacity=".5" transform="matrix(35.24346 .25694 -.06766 9.28068 6.4 216.3)"/><path fill="#3f3e40" fill-opacity=".5" d="M54 170l-22 2-7-41z"/><path fill="#858a8f" fill-opacity=".5" d="M12.7 156.4l-15 .2-.4-19 15-.2z"/><path fill="#9ca3ac" fill-opacity=".5" d="M104.7 183.6l-4 9.3-29.4-12.5 4-9.3z"/><path fill-opacity=".5" d="M110 164h9v6h-9z"/><path fill="#b2bac1" fill-opacity=".5" d="M51.2 220l39.4 8.1L61 172.9l7.1-1.7z"/><path fill="#9eb6b8" fill-opacity=".5" d="M60 93h2v39h-2z"/><circle r="1" fill="#77766c" fill-opacity=".5" transform="matrix(-44.57258 26.25525 -4.71057 -7.99696 152.9 43)"/><path fill="#686b6e" fill-opacity=".5" d="M135.3 167.9l-24.2 26 .4-12.2 12.2-16.1z"/><path fill="#29231e" fill-opacity=".5" d="M174.5 140.4l-36.3-4.7-4.5 3.6 18-6.9z"/><path fill="#c9ced4" fill-opacity=".5" d="M147.7 178.6l-21.6-4.2.2-1 21.6 4.2z"/><path fill="#ebfffa" fill-opacity=".5" d="M22 88h8v6h-8z"/><path fill="#1b1d19" fill-opacity=".5" d="M21.1 177.6l15.3-41.4 12.7 21.6-37.4-19.3z"/><path fill="#111008" fill-opacity=".5" d="M140.7 157.8l-7.3-14.4 1.7-9.9 2.2 2.4z"/><path fill="#aac2a5" fill-opacity=".5" d="M47.8 109.9l-1.6-19 10-.8 1.6 19z"/><path fill-opacity=".5" d="M104 191l2-15 7-2z"/><path fill="#707575" fill-opacity=".5" d="M0 128h60v7H0z"/><path fill="#7f6f69" fill-opacity=".5" d="M64 162h26v6H64z"/><path fill="#535049" fill-opacity=".5" d="M65 74l73 2-80 86z"/><path fill="#8d9294" fill-opacity=".5" d="M118 134l-27 12-5-9z"/><circle cx="51" cy="150" r="3" fill-opacity=".5"/><path fill="#a7afb2" fill-opacity=".5" d="M68.2 260.7l20.9-55 33.4-7.5 10.2 26.7z"/><path fill="#000202" fill-opacity=".5" d="M30.4 142.7L18.7 137l.9-1.7 11.7 5.7z"/><path fill="#847f8e" fill-opacity=".5" d="M62 150h33v5H62z"/><path fill="#969aa1" fill-opacity=".5" d="M45.7 156.7L42.4 140l4-.7 3.2 16.7z"/><path fill="#565554" fill-opacity=".5" d="M39 98h2v50h-2z"/><path fill="#8b8f8d" fill-opacity=".5" d="M162.1 183.2l-11.6 6.9-39 12.2 32.6-18.8z"/><circle r="1" fill="#dce7e9" fill-opacity=".5" transform="matrix(8.03643 .7741 -.55681 5.78059 48.4 115.8)"/><path fill="#a9afae" fill-opacity=".5" d="M176 66.9l-28.4.9L174 50.1 185 63z"/><path fill="#b6a9b4" fill-opacity=".5" d="M54.5 152l-5-8.8 8.7 4.1 2.1 8.2z"/><circle r="1" fill="#575851" fill-opacity=".5" transform="matrix(5.24646 26.51417 -18.50187 3.66104 2.8 97)"/><path fill="none" stroke="#39352b" stroke-opacity=".5" stroke-width=".5" d="M126 232.6Q54.8 269.4 50.8 271"/><path fill="#929599" fill-opacity=".5" d="M130 159l-14 12 35-7z"/><path fill-opacity=".5" d="M67 169h6v16h-6z"/><path fill="#d6f2c1" fill-opacity=".5" d="M22 97h5v30h-5z"/></g></g></svg>