<svg xmlns="http://www.w3.org/2000/svg" viewBox="0 0 1400 933"><defs/><filter id="a"><feGaussianBlur stdDeviation="12"/></filter><rect width="100%" height="100%" fill="#483226"/><g filter="url(#a)"><g fill-opacity=".5" transform="translate(2.7 2.7) scale(5.46875)"><circle r="1" fill="#e4f2ed" transform="matrix(-80.53132 18.96385 -13.08715 -55.5755 134.4 82.7)"/><path fill="#abb7b8" d="M-9 178L130 78 57 185z"/><circle r="1" fill="#dce8e7" transform="matrix(-14.47123 -16.21201 36.31264 -32.41352 174.5 55.8)"/><circle cx="70" cy="57" r="32" fill="#9bada0"/><circle r="1" fill="#7f4714" transform="matrix(-48.31995 -9.13714 4.42146 -23.382 139.6 145.9)"/><ellipse cx="244" cy="41" rx="32" ry="122"/><ellipse cx="51" cy="5" rx="149" ry="20"/><circle r="1" fill="#4f553b" transform="matrix(-10.47653 17.09614 -31.6185 -19.37585 113.4 52.5)"/><path fill="#c5bbb2" d="M176 42h38v76h-38z"/><path fill="#270300" d="M147 91h25v20h-25z"/><ellipse cx="203" cy="96" fill="#4a3d28" rx="6" ry="108"/><ellipse cx="99" cy="109" rx="40" ry="2"/><path fill="#fffffb" d="M16 49h24v5H16z"/><path fill="#f2f4f9" d="M194.7 79.2l3.4-22.2-38.9 4.1-37.5 41.1z"/><path fill="#353c34" d="M167-16l11 90 16-90z"/><path fill="#b5b6bc" d="M60 72h27v70H60z"/><circle cx="34" cy="104" r="29" fill="#2d383e"/><path fill="#6c461f" d="M96 128h108v42H96z"/><ellipse cx="211" cy="50" fill="#e2f5ff" rx="2" ry="77"/><path fill="#717266" d="M40 26h98v34H40z"/><path fill="#849c81" d="M-9.5 27.8l39.8-3.5 1.2 14-39.8 3.4z"/><ellipse cx="191" cy="63" fill="#fff" rx="5" ry="37"/><circle r="1" fill="#000300" transform="matrix(15.0213 -15.66407 31.02297 29.74996 244.2 23.8)"/><path fill="#4b4e34" d="M85.5 80.1l66.2-9.6-45.4-26.1-6.6 49.2z"/><path fill="#d5e0ea" d="M148 107l-1-21-52 14z"/><ellipse cx="17" cy="5" fill="#000602" rx="121" ry="20"/><path fill="#f8e4d4" d="M180 100h14v21h-14z"/><ellipse cx="107" cy="82" fill="#0b141f" rx="22" ry="2"/><circle r="1" fill="#babfb9" transform="matrix(-12.76999 36.5429 -3.10763 -1.08597 188.3 41.6)"/><path fill="#010900" d="M32.9 60.4L-16 35.6v25.8l64.5 4.9z"/><path fill="#000500" d="M16 44l29 7-9-28z"/><circle cx="26" cy="113" r="36" fill="#37393a"/><ellipse cx="71" cy="76" fill="#b0b8bd" rx="33" ry="6"/><path fill="#d3dee5" d="M145 38h25v30h-25z"/><ellipse cx="115" cy="34" fill="#838673" rx="61" ry="11"/><path fill="#160e00" d="M213 108h43v44h-43z"/><ellipse cx="27" cy="51" fill="#ffffc3" rx="14" ry="2"/><path fill="#4e544c" d="M223 79h12v34h-12z"/><path fill="#76502d" d="M113 185l-9-52 88-16z"/><path fill="#40240a" d="M146 89h21v8h-21z"/><circle r="1" fill="#2d0000" transform="matrix(-4.39484 -2.91503 21.9202 -33.04791 87.4 163)"/><ellipse cx="159" cy="10" fill="#141f1c" rx="37" ry="15"/><path fill="#cccfd4" d="M103 114h43v6h-43z"/><path fill="#948e84" d="M60 176v-72l45 9z"/><ellipse cx="131" cy="70" fill="#6b8e49" rx="20" ry="6"/><path fill="#1f0832" d="M117 49l-11 18-3-23z"/><path fill="#c0d0dd" d="M208 9h2v33h-2z"/><circle r="1" fill="#54340f" transform="matrix(7.09402 -15.7303 45.71567 20.61676 216.5 154.6)"/><path d="M34 54h6v24h-6z"/><path fill="#bdc4bc" d="M150 97h13v6h-13z"/><path fill="#30281c" d="M56 107h59v4H56z"/><path fill="#2f1900" d="M152 102l16-2-1 16z"/><ellipse cx="8" cy="75" fill="#515a57" rx="25" ry="11"/><path fill="#b9c2c9" d="M82.9 61.4l3.9 20.4 1.5 25.2-33.4-16.9z"/><path fill="#c6d6e3" d="M97 76h54v4H97z"/><path fill="#7b7572" d="M196 74h15v41h-15z"/><ellipse cx="99" cy="104" fill="#3b3c41" rx="13" ry="2"/><path fill="#ab937e" d="M182 110.2l-14.3.1 7.5-19.6-.2-63z"/><circle r="1" fill="#ffffbd" transform="matrix(.09287 -.99568 13.34945 1.24519 22.5 51)"/><circle r="1" fill="#9b9e9a" transform="rotate(164.1 32.2 38.8) scale(29.8482 12.04043)"/><path fill="#e5ebed" d="M197 16l-13 29 11 37z"/><path fill="#d9dfe7" d="M134.7 118.5L162.2 53l-7.5 40.6L134.8 80z"/><path fill="#f8ffff" d="M211 38h2v74h-2z"/><path fill="#6d7358" d="M39 24h33v20H39z"/><ellipse cx="154" cy="118" fill="#c3bcbc" rx="41" ry="3"/><path fill="#282320" d="M66 93l-82-1 71.9-9.6-4.3 30.4z"/><ellipse cx="246" cy="62" fill="#050b03" rx="9" ry="75"/><path fill="#306403" d="M117.8 75.1l-1.2-4.4-12.2-9.1-4 13.5z"/><path fill="#a9aeaa" d="M126 36h50v12h-50z"/><path fill="#b4b9bc" d="M91 90h45v14H91z"/><ellipse cx="116" cy="110" fill="#2f2215" rx="20" ry="2"/><path fill="#373f38" d="M182.4-16h36.3l-24.5 36.7-7.2 15.8z"/><path fill="#b3a631" d="M148.4 69.8l-21.1-10.4L138 72l13.7-3.4z"/><path fill="#333b3e" d="M17.1 131.6L-16 15.7V182l71.2-47.1z"/><path fill="#060c07" d="M48 18h141v6H48z"/><path fill="#0c0c04" d="M80.5 28.1l-10.2-1L55.9-16 87 32.7z"/><path fill="#58574c" d="M199 1h10v55h-10z"/><path fill="#dbebfc" d="M87 85h53v1H87z"/><path fill="#0e0d02" d="M30.8 58.6l-46.8.5 50.9-19.3-37.2 4z"/><circle r="1" fill="#ffffca" transform="matrix(.00217 -1.96633 6.04228 .00668 19.6 50)"/><path fill="#a5a6bb" d="M114.7 80l-4.4-1.6 19.6-8-4.7-5.4z"/><path fill="#212214" d="M216.1 31.1l-2.7 44.6 1 51.6 27.2-107.5z"/><path fill="#5d3d1f" d="M179 95l-12 12-5-17z"/><path fill="#98988e" d="M178.6 25.8l-21.5-2.1 26.1 43.6-7 17z"/><path fill="#6a6e58" d="M29.3 38L9 43l-14.9-1.3 38.8-18.5z"/><path fill="#57374f" d="M144 48l-21-1-6 25z"/><path fill="#fff" d="M187.3 111.8l2 7.2-12.9-7.6 8.8-1.7z"/><path fill="#a58062" d="M114 121h56v8h-56z"/><circle r="1" fill="#81847f" transform="rotate(-17.9 549.1 3.3) scale(54.88508 10.78872)"/><path fill="#f0f2f2" d="M194.8 88.6L191 33.7 181.6 92 150 75.4z"/><path fill="#91877e" d="M195 72h10v40h-10z"/><path fill="#110221" d="M146 68h5v5h-5z"/><path fill="#6f4620" d="M102 156h130v14H102z"/><path fill="#b9c1c8" d="M71 66l-11 39 21-1z"/><path fill="#4e4c3a" d="M41.5 43.3l1.2-9.2-5.1 49.8 15-39.4z"/><path fill="#aeb0b6" d="M149.3 110.7l11-1.4.4 4-11 1.4z"/><path fill="#c8bacb" d="M121.2 73.1l-5-7.4-4.9-4 4.1 6.4z"/><path fill="#0f232c" d="M81.8 151.9l-19.2 22 2 5.9L77.7 167z"/><path fill="#29415b" d="M105.8 120.7l.8.7-26.4 33.9-.8-.7z"/><path fill="#090700" d="M212 0h44v29h-44z"/></g></g></svg>