<svg xmlns="http://www.w3.org/2000/svg" viewBox="0 0 1400 2100"><defs/><filter id="a"><feGaussianBlur stdDeviation="12"/></filter><rect width="100%" height="100%" fill="#3e4f5d"/><g filter="url(#a)"><g fill-opacity=".5" transform="translate(4.1 4.1) scale(8.20313)"><circle r="1" fill="#fff4e2" transform="rotate(46.5 -142.8 206.7) scale(147.75081 160.28823)"/><circle r="1" fill="#837d76" transform="matrix(161.18116 -49.12199 12.5023 41.02307 133 25.7)"/><circle r="1" fill="#bfc1c2" transform="matrix(70.07857 -22.49217 22.46272 69.9868 13.7 218.6)"/><circle r="1" fill="#311b00" transform="matrix(8.48466 16.22967 -129.63847 67.77335 14.6 0)"/><circle r="1" fill="#76766f" transform="matrix(-114.34326 11.78002 -1.34461 -13.05153 157.6 12.1)"/><circle r="1" fill="#b4b5b5" transform="matrix(-.63697 -11.83353 143.04017 -7.6995 95.4 105.5)"/><ellipse cx="60" cy="253" fill="#c7cdd6" rx="65" ry="8"/><circle r="1" fill="#5c513e" transform="matrix(4.80592 9.06794 -88.39756 46.8498 25.3 19.7)"/><path fill="#8e8b8b" d="M27 231h87v12H27z"/><ellipse cx="72" cy="138" fill="#9f9281" rx="31" ry="25"/><circle r="1" fill="#adafac" transform="rotate(101.5 -16.7 144.3) scale(32.21097 60.23276)"/><path fill="#46332a" d="M149.2 136.5l24.3 6-.7 3-24.3-6z"/><path fill="#1e3d4a" d="M103 226l15-2-11 7z"/><path fill="#767571" d="M-16 43.7l135.8-28.4-58.8-.7-77 76.2z"/><ellipse cx="95" cy="73" fill="#979896" rx="91" ry="16"/><ellipse cx="30" cy="237" fill="#152137" rx="6" ry="2"/><circle r="1" fill="#bdc2c4" transform="matrix(6.24584 18.23415 -40.38346 13.83276 19.2 215)"/><path fill="#764b2d" d="M87 147h16v6H87z"/><path fill="#050600" d="M-16-15.4V4.4l44.1 3L15.5-16z"/><path fill="#655c59" d="M10 212.3l14 .4v5l-14-.4z"/><path fill="#787473" d="M52 217h25v5H52z"/><circle r="1" fill="#7b7d79" transform="matrix(19.23259 -23.48162 13.0814 10.7143 146.7 26)"/><ellipse cx="13" cy="174" fill="#a1a19d" rx="39" ry="14"/><path fill="#afb3b5" d="M118 192h31v47h-31z"/><path fill="#685a4c" d="M63 156h13v7H63z"/><path fill="#7a4d33" d="M46 147h12v6H46z"/><path fill="#bbbcba" d="M28.6 167.9l84.5-.4-69 13.7 30-37.5z"/><path fill="#75726f" d="M144 241.8l41 2.9-18.3-6.6-8.5-2.7z"/><path fill="#999da1" d="M110.9 81.7l-3.2-50.2-17.5-3.3 35.6-7.4z"/><path fill="#6f6a67" d="M114 141h56v3h-56z"/><path fill="#808386" d="M20 39.5l26.4-13.6 74.1 8-69.1 8.9z"/><ellipse cx="134" cy="180" fill="#9c9d99" rx="64" ry="9"/><circle r="1" fill="#aeb2b2" transform="matrix(5.9247 -.33679 2.02363 35.59952 137.3 155)"/><path fill="#9ba0a4" d="M175 6.8l10 26.6-55.8-2.6 34.1-5.1z"/><path fill="#7b7569" d="M125 134l7-7-17-1z"/><path fill="#bfc5cb" d="M27.9 227.8l-.6 43.2 39.6-25.2-79.2-12.5z"/><path fill="#9d9d9b" d="M89.4 59.9l-.8 41-40-.8.8-41z"/><path fill="#c0c6ce" d="M134 91l-10-7-16 10z"/><path fill="#b1b7b9" d="M154 83h16v41h-16z"/><circle r="1" fill="#aeb4b9" transform="matrix(-.12199 1.62242 -63.50047 -4.77462 114 242)"/><path fill="#b4b6b6" d="M-21.2 157.5l60.5-62.6 7.9 7.6-60.5 62.6z"/><path fill="#615c54" d="M103.5 76.2l-24.9 2.6v-1l24.8-2.6z"/><path fill="#c5cace" d="M18 210h46v5H18z"/><path fill="#abaca8" d="M28.9 118.6L106.4 98l-71.9 39.8 81.9 34.2z"/><path fill="#68655b" d="M85-16L80 9l75 15z"/><path fill="#9b9b98" d="M132.8 215.3l-50.4-3.5 26.1 14.7 26.1 7.7z"/><path fill="#978b75" d="M86.8 107.4L70 166l-4.8-1.4L82 106z"/><circle cx="103" cy="228" r="3" fill="#304b54"/><path fill="#c8d1d9" d="M11 250.9l-27-38.3 26.7 19.1-14.9 20.2z"/><path fill="#8e9194" d="M35.9 33.6L-16 113.3l70.9-55.9-10.1-26.2z"/><path fill="#887e7a" d="M10 246l10-4-14-2z"/><circle r="1" fill="#0e1b31" transform="matrix(-1.7272 1.03781 -1.24509 -2.07218 32.9 237.5)"/><path fill="#bbc2c7" d="M111 232h34v5h-34z"/><path fill="#84786f" d="M61.6 233.2l.3-2 54.5 7.6-.3 2z"/><circle r="1" fill="#968e84" transform="matrix(4.92686 -3.57307 6.46127 8.90935 148.8 135.2)"/><path fill="#858078" d="M73.7 123.8l-.4 11-15-.6.4-11z"/><circle cx="119" cy="65" r="3" fill="#425359"/><circle cx="144" cy="47" r="5" fill="#5b6064"/><circle cx="59" cy="134" r="2" fill="#671807"/><path fill="#929590" d="M121 47h49v36h-49z"/><path fill="#a6a49c" d="M87.3 128.5l16.8 26 24.6-48.2-54.4 2.2z"/><path fill="#40372f" d="M160 142.8l-.3-1 14.3-4.6.3 1z"/><path fill="#838284" d="M151 256l-8-9h23z"/><path fill="#a1a4a4" d="M104.4 229.7l-30.2-10.8-31.2 6.6 85.2 14.9z"/><path fill="#b1b5b8" d="M36 235h47v5H36z"/><ellipse cx="14" cy="73" fill="#807e79" rx="26" ry="3"/><path fill="#938b86" d="M64.7 232.6l42.8 17-35.2-7.8 8.7-5z"/><path fill="#1e1312" d="M13.4 214.8l.2 2-5 .4-.2-2z"/><path fill="#7a4936" d="M89 132h6v3h-6z"/><path fill="#b4b8ba" d="M12 104h61v11H12z"/><path fill="#706f6c" d="M86.8-.3L43.6 17l6.4-.7 33.2 13.6z"/><path fill="#8a8787" d="M0 184h22v4H0z"/><path fill="#71716a" d="M-13.5 88.1L6.6 40.2-11 29.1l43.3 9z"/><path fill="#b8bbbc" d="M46.8 194.9l-62.8-.7 76.4 13.9 1.7 25.8z"/><circle r="1" fill="#7a7b78" transform="rotate(-89.8 77 -60) scale(7.11673 46.7787)"/><path fill="#a3a9ad" d="M81 38h18v5H81z"/><path fill="#6d2413" d="M147.4 126.1l-4.3 2.6-.5-.8 4.3-2.6z"/><circle cx="63" cy="219" r="2" fill="#322522"/><path fill="#837c77" d="M128 238h11v5h-11z"/><path fill="#b0b6ba" d="M176.6 195.6l-30.7-8.4 39.1 25.9-34.1-5z"/><path fill="#b2bcc1" d="M173.2 34.7l-3.7 1.6-4.7-11 3.7-1.6z"/><circle r="1" fill="#8c8d88" transform="matrix(-16.9232 .59442 -.0351 -.99938 128.3 109.8)"/><ellipse cx="141" cy="149" fill="#b4b9b9" rx="14" ry="4"/><path fill="#acaca8" d="M-5.5 160.3l61.6-36.1 7.7 8.5-52.7 2.7z"/><ellipse cx="27" cy="223" fill="#b7bbba" rx="7" ry="14"/><path fill="#91948f" d="M179.2 176.1l-26 12.8-4.4-9 26-12.8z"/><path fill="#5d5a53" d="M56.8 18.6L-16 57.2l7.6-20 47.2-24.4z"/><path fill="#999995" d="M86.3 103.3l46.3-28.1L7.2 87.7l69.8-26z"/><path fill="#c0c6cd" d="M43 257l-44-12 53-1z"/><path fill="#a3a5a6" d="M29 232l-39 39H7z"/><path fill="#828483" d="M80.2 62.5l-20.9-36-21.6 26 54.5-9.3z"/><path fill="#a4a9b2" d="M115 36l-3.3-8.3L121 24l3.3 8.3z"/><path fill="#5a564b" d="M106.5 8.6l-15.8 2.5-3.2-19.7 15.8-2.5z"/><path fill="#b4b6b0" d="M84 141l-8 12 12 15z"/><path fill="#acafad" d="M96 102l50-22-67 54z"/><path fill="#b8bbbd" d="M76.6 226.6l-20.1-13.1-59.3 34.4 52.2-65z"/><path fill="#372b27" d="M118 142.7l-3.7 1.5-.3-1 3.7-1.4z"/><path fill="#887b73" d="M31 232h32v2H31z"/><circle cx="111" cy="229" r="2" fill="#173d50"/><path fill="#9f9a91" d="M21.3 130.2l-11.1 6.3 63.5-7.8-63.9-2.6z"/></g></g></svg>