<svg xmlns="http://www.w3.org/2000/svg" viewBox="0 0 1400 933"><defs/><filter id="a"><feGaussianBlur stdDeviation="12"/></filter><rect width="100%" height="100%" fill="#6c543a"/><g filter="url(#a)"><g fill-opacity=".5" transform="translate(2.7 2.7) scale(5.46875)"><circle r="1" fill="#fff" transform="rotate(161.8 12 29.1) scale(58.25928 72.18208)"/><circle r="1" fill="#d4ecff" transform="rotate(171.2 67 85.7) scale(222.56543 27.01799)"/><circle r="1" fill="#bccad5" transform="rotate(-52.4 195.7 -67) scale(25.54541 35.71083)"/><ellipse cx="70" cy="139" fill="#1a0000" rx="49" ry="12"/><circle r="1" fill="#e8ffff" transform="matrix(-20.50082 7.1736 -14.5533 -41.5906 45 30.6)"/><path fill="#4b2200" d="M44 74l30 2-2 30-30-2z"/><circle r="1" fill="#0f1e2f" transform="matrix(-83.45693 -36.95218 8.33094 -18.81553 236 111)"/><circle r="1" fill="#788c8a" transform="rotate(99.6 44 55.2) scale(82.42739 37.89791)"/><circle r="1" fill="#0f0900" transform="matrix(51.11176 -9.69304 2.11617 11.15864 171.3 34.8)"/><circle r="1" fill="#df2b3d" transform="matrix(2.75247 14.45596 -55.86897 10.63765 27.7 122.3)"/><ellipse cy="57" fill="#fff" rx="7" ry="63"/><circle r="1" fill="#b2b7bf" transform="matrix(-19.7195 -27.14068 30.19132 -21.936 186 145.3)"/><path fill="#a2aca0" d="M196 75l69-82 6 50z"/><ellipse cx="254" cy="152" rx="4" ry="85"/><path fill="#bcc6da" d="M149.5 61.8l4 76-9 .4-4-76z"/><path fill="#010f1a" d="M150 75h26v48h-26z"/><circle r="1" fill="#929d99" transform="matrix(54.21085 8.78024 -2.67935 16.54278 150.9 0)"/><ellipse cx="74" cy="166" fill="#d4dbe0" rx="88" ry="13"/><path fill="#3e0000" d="M0 131h99v18H0z"/><path fill="#000003" d="M242.2 79.7l10-.1 4.6-23.8-28-.2z"/><path fill="#d7dcd7" d="M117 143l15-37-38 3z"/><path fill="#444d56" d="M256.1 165.3L184.5 132l3.4-7.2 71.6 33.4z"/><path fill="#adb3bb" d="M234.4 89.8l16.7-7.2-7.9-2.9L167.5 90z"/><path fill="#c8b4ab" d="M190.8 64.8l-29.1.8-4-16.8 30.7 5.2z"/><ellipse cx="246" cy="26" rx="2" ry="86"/><ellipse cx="134" cy="86" fill="#2a2d2a" rx="8" ry="36"/><path fill="#41331d" d="M91 40h14v66H91z"/><path d="M219.6 116.1l-3-24.8 27.8-3.4 3 24.8z"/><path fill="#3b230b" d="M216.3 80.9l-.5 2.9-64.9-69.2 53.9 10.9z"/><path fill="#ae896b" d="M251.4 152.5l-36.4-13 56-51.4-20 19.1z"/><path fill="#c2d0db" d="M75 73h16v30H75z"/><path fill="#cdd2ee" d="M189 105l-11 11 33-9z"/><path fill="#bbd0e9" d="M247.5 55.5v-33h15v33z"/><path fill="#c6a46e" d="M208 55l29-7-9 42z"/><path fill="#340707" d="M-2.7 156.7L26.8 145l67.5-34.1 2.5 33.1z"/><path fill="#a79d78" d="M103 48h23v48h-23z"/><path fill="#3f4d48" d="M90 130h29v22H90z"/><circle r="1" fill="#f6ffff" transform="matrix(-5.92667 .22632 -2.10483 -55.11832 1.3 63.5)"/><circle r="1" fill="#6e828a" transform="matrix(-6.33942 .54348 -4.9193 -57.38116 12.4 3.7)"/><path fill="#e3f0ff" d="M22 22h37v31H22z"/><ellipse cx="113" cy="75" fill="#11130d" rx="25" ry="3"/><ellipse cx="111" cy="11" fill="#000706" rx="23" ry="3"/><path fill="#101812" d="M103 36h60v9h-60z"/><path fill="#878a81" d="M81.8 41.8L52 22.5l118.5-9.1-39.7 25.5z"/><circle r="1" fill="#15181b" transform="matrix(-2.19262 -8.4176 15.3164 -3.98962 177.3 104.4)"/><path fill="#b3b3b1" d="M111 123h61v43h-61z"/><path fill="#372e17" d="M206.5 54l20-47.9-35.3 4.4L167 49z"/><path fill="#d1d1e7" d="M207 123h40v4h-40z"/><path fill="#f1eed3" d="M35 66l-10 41-3-49z"/><path fill="#b09b7d" d="M29.2 97l11 28.9 7.9-50-7.9-23.5z"/><path fill="#64735c" d="M211 15h25v37h-25z"/><path fill="#fff" d="M20 0h26v14H20z"/><path fill="#7e8890" d="M3 13l43 2-29 10z"/><ellipse cx="208" cy="98" fill="#080c0a" rx="19" ry="8"/><path fill="#020d14" d="M203 110h35v12h-35z"/><path fill="#c7bfbf" d="M131.2 105.6l-31.6 11.8 52-9.1-2.1-2.9z"/><path fill="#000f0e" d="M-13.6 157.4h30.7L35 151l-51 .9z"/><path d="M131 111.5h8v9h-8z"/><path fill="#f2adb1" d="M32.3 105l24.8 3-1.4 11-24.8-3z"/><path fill="#09111a" d="M94 0h2v138h-2z"/><path fill="#7b0e0c" d="M41 146l51-31-108 29z"/><path fill="#00050c" d="M98 104h30v2H98z"/><path fill="#000407" d="M252 119h4v49h-4z"/><ellipse cx="135" cy="78" rx="5" ry="10"/><path fill="#896a5b" d="M214.3 91.7l-40.4-37.2-28.6 12.1 45.5-18.8z"/><circle r="1" fill="#afafb7" transform="matrix(-3.58646 .09391 -.73789 -28.17881 145 79.7)"/><circle r="1" fill="#858c8c" transform="rotate(-9.8 89.4 -452.8) scale(10.8987 28.49417)"/><circle r="1" fill="#e16560" transform="matrix(.13977 9.38406 -21.76093 .32412 18.3 116.8)"/><path fill="#fffffd" d="M182 19l5-5-10 4z"/><ellipse cx="130" cy="33" fill="#000c13" rx="1" ry="72"/><path fill="#6e6c60" d="M126 47h32v21h-32z"/><ellipse cx="91" cy="26" rx="1" ry="49"/><circle cx="212" cy="129" r="6" fill="#fff6fd"/><ellipse cx="62" cy="25" fill="#bbc1c8" rx="7" ry="49"/><path fill="#000103" d="M232 58l22-2-1 25z"/><path fill="#eddcbf" d="M92 21h2v51h-2z"/><path d="M198 43h48v1h-48z"/><path fill="#d2d6d4" d="M97 121h33v8H97z"/><ellipse cx="224" cy="12" fill="#000707" rx="21" ry="2"/><path fill="#c8cccd" d="M166 126l-11 36 45-8z"/><path fill="#000604" d="M142.2 28.5l31 14.6-35.1 4.5-2.3-9.5z"/><path fill="#733d42" d="M218 127h25v7h-25z"/><path fill="#5d7187" d="M248 88h4v82h-4z"/><path fill="#969cb0" d="M210 107h17v3h-17z"/><path fill="#aaa0a4" d="M173.7 112.4l-.5 5.4 31.2 15.3.9-20z"/><path fill="#8a9098" d="M220 81h32v8h-32z"/><path fill="#6b7e8b" d="M14 52l26 6 9 17z"/><ellipse cx="255" cy="37" fill="#989da8" rx="2" ry="44"/><path fill="#8b98a6" d="M172 87h49v3h-49z"/><path fill="#b2b5b6" d="M38 150h57v20H38z"/><circle r="1" fill="#dbe2e6" transform="matrix(16.09982 -3.71694 1.56105 6.76163 .3 165)"/><path fill="#a57d4c" d="M97 77h24v27H97z"/><path fill="#9d9d99" d="M117 122h36v25h-36z"/><path fill="#2b2b27" d="M171 68l6 67-20-45z"/><path fill="#0e0808" d="M219.3 83.5l-7.7 2.3-5-17.3 7.8-2.3z"/><path fill="#b29065" d="M239 112h10v33h-10z"/><path fill="#6a522d" d="M45 81h28v23H45z"/><path fill="#23211f" d="M151 67h30v18h-30z"/><path fill="#4e4c48" d="M94.2 153.3l-1.8-8.8 27.4-5.8 1.8 8.8z"/><path fill="#070e0d" d="M90 49.5l-1-55h1l1 55z"/></g></g></svg>