<svg xmlns="http://www.w3.org/2000/svg" viewBox="0 0 1400 933"><defs/><filter id="a"><feGaussianBlur stdDeviation="12"/></filter><rect width="100%" height="100%" fill="#4a3f3a"/><g filter="url(#a)"><g fill-opacity=".5" transform="translate(2.7 2.7) scale(5.46875)"><circle r="1" fill="#f2ffff" transform="matrix(-12.33744 64.67512 -250.48323 -47.78223 134 154.6)"/><circle r="1" fill="#232828" transform="matrix(-73.39726 -15.7638 3.37022 -15.69197 123 97)"/><path fill="#d3d9d7" d="M244 171L37 101l-53 67z"/><circle r="1" fill="#acb1b1" transform="matrix(5.59967 -16.24753 39.47136 13.6037 104.4 78.5)"/><path fill="#b4b8b3" d="M269 77l-150 59 113 47z"/><circle r="1" transform="matrix(93.6279 7.53312 -2.0962 26.05332 219.9 0)"/><path d="M184.5-16l-16.4 135.3-31.3.6 13.6-14.2z"/><circle r="1" fill="#888b86" transform="matrix(-11.00407 12.17845 -28.38581 -25.64855 219.1 51.7)"/><ellipse cx="57" cy="61" rx="9" ry="32"/><path fill="#8f918c" d="M0 66h51v42H0z"/><circle r="1" transform="matrix(-1.19407 4.1752 -44.43849 -12.70903 101 99.5)"/><circle r="1" fill="#0d130c" transform="rotate(-91.8 26.8 17.5) scale(21.92795 54.36395)"/><path fill="#05110b" d="M157 66l-1 42 95-25z"/><path d="M120 34h67v16h-67z"/><ellipse cx="234" cy="52" rx="36" ry="5"/><ellipse cx="56" fill="#000400" rx="44" ry="12"/><path fill="#9c9999" d="M194 28h49v17h-49z"/><path fill="#dbc8d4" d="M12.4 15L-5-10.5 1.6-15 19 10.6z"/><path fill="#929b9b" d="M219.6 57.3l-28.9 5.6L271 82.3 166.4 68.1z"/><path fill="#bdbcb8" d="M213.7 63l1.7-7.9 47 10-1.8 7.8z"/><path fill="#6b6d69" d="M155 75l-1 34-89-77z"/><circle r="1" fill="#8a8b82" transform="matrix(-26.5502 11.22493 -4.93925 -11.68275 25.3 78.3)"/><ellipse cx="161" cy="30" fill="#d09a49" rx="30" ry="3"/><path fill="#969690" d="M171 101h85v16h-85z"/><path d="M52 47h14v42H52z"/><path fill="#19180a" d="M48 24h87v9H48z"/><path d="M170 109h-44l31 13z"/><path fill="#6f5d46" d="M52 36h58v12H52z"/><path fill="#a3a6a7" d="M155.3 103.8l-2.4 6.6-28.2-10.2 2.4-6.6z"/><path fill="#030900" d="M130 24h125L206 1z"/><path fill="#7f7467" d="M162.5 28.5l-10 14.6 27.9 13-15.5-1.3z"/><circle r="1" fill="#9b9b99" transform="matrix(-16.8089 -5.42913 3.06118 -9.4776 83.2 80.3)"/><path d="M187.3 60L311 84l-.3 2L187 62z"/><path fill="#a4a8a9" d="M69 94.8l-19.9-7.2-65.1 54.2 169.6-20.3z"/><ellipse cx="67" cy="54" rx="18" ry="4"/><path fill="#5a5d56" d="M209.1 111.6l-38.6-11.1 11-.5L271 79.1z"/><path fill="#ffffd5" d="M147 29l-10-1 9 6z"/><path fill="#33200b" d="M237.7 170.5l22-13.8.6.8-22 13.8z"/><circle r="1" transform="rotate(78.9 44.1 105.9) scale(8.12624 15.72162)"/><path fill="#000100" d="M164 31h25v18h-25z"/><path d="M-16 63.4v7.8L88.6 54.6l-60.4 3.9z"/><path fill="#8b9a97" d="M136.1-12.1L99 6l-7.1-22 35.2 23.5z"/><path fill="#bac3d2" d="M205.8 50.3l-.1-1 80.5-15.6.1 1z"/><path fill="#101103" d="M159 67l22-14 31 2z"/><path fill="#b5bbbd" d="M269.6 84.7l-30.1-7.5 1-3.9 30 7.5z"/><circle r="1" fill="#040503" transform="rotate(-77.1 129.3 -24.3) scale(3.21669 36.92434)"/><path fill="#464846" d="M171 67h17v35h-17z"/><ellipse cx="183" cy="26" fill="#90786d" rx="16" ry="3"/><path fill="#898984" d="M0 68h47v32H0z"/><path fill="#0e0f02" d="M265.5 60.2l-34-2.4 1-14 34 2.4z"/><circle r="1" fill="#c3c8c6" transform="matrix(-186.45689 -45.10867 3.99098 -16.49675 115.8 169)"/><circle r="1" fill="#171a12" transform="matrix(-55.87806 -12.52242 .21868 -.9758 116.3 61)"/><ellipse cx="42" cy="15" fill="#525253" rx="139" ry="4"/><path fill="#0a0e00" d="M233 35h23v3h-23z"/><path fill="#151814" d="M17 5h28v9H17z"/><ellipse cx="246" cy="112" fill="#9fa09b" rx="78" ry="10"/><path fill="#646660" d="M161 58l28-5 11-14z"/><circle r="1" fill="#070906" transform="matrix(1.28244 -3.94693 21.67957 7.04412 74.7 92.2)"/><path fill="#675b48" d="M64.8 39.2l93.9 18.5-1 7.1-3.8 4.6z"/><path fill="#735f4a" d="M134.2 23.8l-21 7.4-64 6.2 53.3 4.1z"/><path fill="#232320" d="M113 16h39v12h-39z"/><ellipse cx="51" cy="32" fill="#131410" rx="31" ry="4"/><path fill="#151715" d="M93.4 92.2l73.3 25.3-27.7-1.3-33.7-10.3z"/><path d="M-16 14l25-1L-8-3z"/><path fill="#161d17" d="M117 10L73-7 14 11z"/><path fill="#9b9892" d="M199 60h57v3h-57z"/><path fill="#97968e" d="M50 62l-14 1 14 31z"/><ellipse cx="163" cy="82" fill="#090a05" rx="8" ry="25"/><path fill="#000100" d="M51 55h13v34H51z"/><path fill="#7d888f" d="M109-8.4l-2.7 20.5L86.9-16l14.5 18.9z"/><path fill="#999b99" d="M103 136l-17-35 68 20z"/><path fill="#9c9793" d="M209.1 26l22 1-.2 5-22-1z"/><path fill="#4e5355" d="M156 88l-52-12 38-9z"/><circle r="1" fill="#999ea2" transform="matrix(.89426 -3.66838 35.43938 8.63919 112.1 94.2)"/><path fill="#7d8083" d="M99.6 79.7l54.8 8.9 1 25.7-30.7-19.5z"/><ellipse cx="156" cy="145" fill="#b9bab5" rx="66" ry="17"/><circle r="1" fill="#11150d" transform="rotate(169.1 103.7 53.4) scale(22.96525 7.61687)"/><ellipse cx="18" cy="36" fill="#030500" rx="32" ry="3"/><path fill="#796d62" d="M147 47l15-2-3-9z"/><circle r="1" fill="#858279" transform="matrix(.16914 -4.13094 23.54686 .96413 112.3 67.4)"/><path fill="#895a14" d="M118 28h22v5h-22z"/><path fill="#0e0f06" d="M138.4 31.6l-15 14.5-13.5-19.7-37.6 5.4z"/><circle r="1" fill="#adb1af" transform="matrix(23.1321 -30.45529 17.95774 13.63967 8.2 137.5)"/><path fill="#888781" d="M49.8 61l.7 16.4-54.7 33.5 5.4-41.2z"/><path fill="#4e4948" d="M123 10h35v11h-35z"/><path fill="#263b1b" d="M242 0h14v29h-14z"/><path fill="#000900" d="M131.8 6l31.6-5 .8 5-31.6 5z"/><path fill="#ae5400" d="M166.7 28.8l22.8 2.4-.2 2-22.8-2.4z"/><circle r="1" fill="#3b3a36" transform="rotate(100.1 -5 15.6) scale(6.19861 40.94366)"/><path fill="#000500" d="M42.2 62.6l47.9-8.4-29.3-2.9-70.1 17.1z"/><circle r="1" fill="#2b261a" transform="matrix(.7417 3.6456 -54.1891 11.0249 209.5 54.8)"/><circle r="1" fill="#3a3531" transform="rotate(-100.2 33.3 13.4) scale(9.49769 29.29902)"/><ellipse cx="62" cy="15" fill="#645f60" rx="50" ry="3"/><path fill="#aeb1ae" d="M122 130l43-11 80 61z"/><path fill="#000400" d="M49 17h6v15h-6z"/><path fill="#fffac4" d="M139 31h9v3h-9z"/><path fill="#0e0e08" d="M228-13l-87 39 57-5z"/><path fill="#8f908e" d="M173 66.7l.3-3 29.8 3.6-.4 3z"/><path fill="#534730" d="M172 0h5v22h-5z"/><ellipse cx="154" cy="50" fill="#1b1d0d" rx="25" ry="3"/></g></g></svg>