<svg xmlns="http://www.w3.org/2000/svg" viewBox="0 0 1400 2100"><defs/><filter id="a"><feGaussianBlur stdDeviation="12"/></filter><rect width="100%" height="100%" fill="#4f463a"/><g filter="url(#a)"><g fill-opacity=".5" transform="translate(4.1 4.1) scale(8.20313)"><ellipse cx="91" cy="223" fill="#cedbe4" rx="165" ry="50"/><circle cx="125" cy="56" r="133" fill="#757e79"/><path fill="#feffff" d="M55.2 130.5l-35.9-3.1 3.5-39.9 35.9 3.1z"/><ellipse cx="100" cy="180" fill="#25292c" rx="35" ry="17"/><circle r="1" fill="#c3d0da" transform="matrix(3.32425 -20.47291 44.93674 7.29652 82.9 217.6)"/><circle r="1" fill="#685948" transform="matrix(8.30618 19.50595 -65.11277 27.72683 125 255)"/><circle r="1" fill="#a0a29b" transform="matrix(-19.1495 -42.46544 16.83773 -7.59286 169 78)"/><path fill="#000300" d="M117.9 155.1l-9.2-10.8 23.7-7 45.9 22z"/><path fill="#000408" d="M14 141h29v36H14z"/><path fill="#c1ccd9" d="M106 187.2l-4.5 9-31.4-15.4 4.4-9z"/><circle r="1" fill="#413f3a" transform="rotate(-135.1 67.3 38.7) scale(26.91784 44.46276)"/><path fill="#88929c" d="M17.8 134l-9.4 34.1-24.4-52.8 70.1 21.5z"/><path fill="#262519" d="M-19.7 63.5l95.9 15.2-2.5 15.8-95.9-15.2z"/><circle r="1" fill="#b2bbbd" transform="matrix(-6.06094 -12.4792 113.42298 -55.0877 169 190.4)"/><path d="M108 203l7-40-19 34z"/><path fill="#fff" d="M166 78h4v33h-4z"/><path fill="#b3a8a5" d="M181 190.2l-46.1-35.5-36.1 4.1 68.3 21z"/><path fill="#c8e6d6" d="M17 125l44-26 1 23z"/><path fill="#181710" d="M85.9 170l66.1 11.9-25 9.5-10.7-27.6z"/><path d="M70 156l-4 24 8 7z"/><path fill="#130f13" d="M160 132h10v40h-10z"/><path fill="#525953" d="M38 83h4v61h-4z"/><path fill="#a0a8ae" d="M85.1 136.8l26.3 1.3-22.2 12.7 5 2.9z"/><circle r="1" fill="#a6adbf" transform="matrix(14.03493 3.82504 -.77155 2.831 153 142.5)"/><path fill="#a09d96" d="M186 51.2l1.6 15-63.6 6.6-1.6-15z"/><circle r="1" fill="#282527" transform="rotate(80.9 -66.2 115.1) scale(2.63433 100.19279)"/><circle r="1" fill="#a3acb1" transform="matrix(20.75786 -13.47623 7.93626 12.22446 44.8 191)"/><path fill="#4d4838" d="M155 95l19-30-27 8z"/><path fill="#d3f9c5" d="M21 88h17v36H21z"/><circle r="1" fill="#7c7169" transform="matrix(-48.02245 3.10547 -.99985 -15.46143 19.6 253.2)"/><path fill="#141a1e" d="M116.4 201.6l-58.1-24.1 28.6 17.1 8.4 3.6z"/><path d="M115 108l11-7 3 10z"/><path fill="#0b0b03" d="M171.4 172.9l-5.7-4.6-37.5 3.1 56.8-13.6z"/><path fill="#313032" d="M31.8 177.2l68.3-12-23.9 5.3-57.1-39.2z"/><path fill="#a9b1b7" d="M134 224l-54 29-21-74z"/><path fill="#b3abbc" d="M64 154l-12-14-15-2z"/><path fill="#49494c" d="M36.3 137.9l21-19.6 24.9 16.4 11.6 16.9z"/><path fill="#50493c" d="M12.1 157l-1.2 34.9-23-.8 1.2-35z"/><circle r="1" fill="#767367" transform="matrix(-35.24667 20.65715 -6.95123 -11.86067 138.2 49.4)"/><path fill="#a2aab3" d="M72 170l31 10v15z"/><circle r="1" fill="#535853" transform="matrix(6.05 42.9754 -13.76499 1.93781 7 91.6)"/><path fill="#bdc8cd" d="M146.5 169.4l-4.4 4.4 21.9 2.6-6.8-6z"/><ellipse cx="98" cy="162" fill="#a38361" rx="32" ry="3"/><path fill="#fff" d="M167 83h2v25h-2z"/><path fill="#a5a4a6" d="M123 154l-4 17 28-14z"/><circle cx="66" cy="31" r="48" fill="#686a61"/><path fill="#b4bbc0" d="M181 186.7l-47-13.3-10 1.9 39.7 7.7z"/><path fill="#0b0b02" d="M124 143h23v13h-23z"/><path fill="#4e5a4e" d="M159 153.3l-7.9 12.4-10.6-24.8 44.5 10.6z"/><path fill="#82888b" d="M-10 137l-3 37 40-48z"/><ellipse cx="82" cy="146" fill="#08100b" rx="9" ry="4"/><path fill="#aeb5b5" d="M82 213l63.5.8 37.3-30.3-62 12.7z"/><path fill="#020600" d="M162 179l4-26 7 6z"/><path fill="#a5acb1" d="M54 172h13v34H54z"/><path fill="#6d6554" d="M114 69h50v36h-50z"/><path fill="#656864" d="M79 70L56 93l4 45z"/><path fill="#c1c7d1" d="M156 160h9v3h-9z"/><path fill="#272412" d="M54.6 89l-36.7-5 1.5-11 36.7 5.2z"/><path fill="#a2a09e" d="M69.8 170.8L7.9 180.9l59.5 57.6-80.1-20z"/><path fill="#464238" d="M125.6 136.8l-48.7-2 34.6-51.4L71 78.2z"/><path fill="#6f7274" d="M-16 124.8l89.4 4.9-89.4 6.9 50 8.3z"/><path fill="#010000" d="M52 135l6 2 3 12z"/><path fill="#867d73" d="M163 208l19 27-79 9z"/><path fill="#0f1108" d="M31 176l-6-41-13 43z"/><circle r="1" fill="#484338" transform="rotate(62.5 -168.7 195.8) scale(1 45.93326)"/><path fill="#827e8f" d="M68 149h49v4H68z"/><path d="M73 187l-1-20h-6z"/><path fill="#0b0801" d="M153.6 135.7l2-3.4 28.8 16-2 3.4z"/><path fill="#262117" d="M103.3 180.6l-.3-1 105.7-30.2.3 1z"/><path d="M68.1 168.1l-22 6.7-.2-1 22-6.6z"/><path fill="#ebf8f4" d="M57 112l-3.6 10.3-12.3-4.2 3.5-10.4z"/><path fill="#0b0b05" d="M90 165h30v6H90z"/><path fill="#666058" d="M118.3 200.6l-13.1-32.4L150 96.4 109 165z"/><path fill="#353332" d="M-16 183.4l66-18-3-27.1 10.8 21.9z"/><path fill="#d1d9de" d="M166 173h4v14h-4z"/><circle r="1" fill="#121715" transform="matrix(.42493 3.41155 -6.43444 .80145 136 181.9)"/><path fill="#000200" d="M104 179h7v19h-7z"/><path fill="#846e5a" d="M134 118l-5 27 19-27z"/><path fill="#0c0f0f" d="M105 147l10-10v10z"/><path fill="#a1a5aa" d="M95 136h20v3H95z"/><circle r="1" fill="#acb3b9" transform="matrix(-18.74322 -18.85254 17.8176 -17.71428 76 217)"/><path fill="#847468" d="M-16 201.8l40 3.7-11.2-16.8-28.8-7.9z"/><path fill="#000202" d="M111 200l-21-9 7 8z"/><path fill="#978ca0" d="M185 149.5L149.5 138l16.3 10.6-.5-1.1z"/><path fill="#655d5b" d="M103.8 160.6L85.2 156l13.3 25.1-45-18.9z"/><circle r="1" fill="#4d5347" transform="matrix(1.46811 -17.46593 47.40613 3.98475 169 0)"/><path fill="#3d3d30" d="M167.9 77.6l9.3 33.8L185 63l-22.9 7.8z"/><path fill="#030000" d="M130 106l-16 6 3-8z"/><path fill="#6d6c68" d="M126.5 173.5l1 .3-21.4.3 27.9-9.4z"/><path fill="#a9b0b0" d="M176 66l6-27-32 28z"/><path fill="#d2d8dc" d="M102.5 136l2 11.8-1 .2-2-11.8z"/><path fill="#2f2621" d="M132 134h22v3h-22z"/><path fill="#6d635b" d="M77.3 271h5.2l-22.2-25.2-25.8-27.2z"/><path fill="#a2a9a8" d="M185 196l-74.9-4.4 10 42.3 22.1-13.5z"/><path fill="#8b969b" d="M80.5 203.8l-6.9-13.6 8.9 4.4 31.8 10.8z"/><path fill="#1b1e1a" d="M141.5 179.6l1.1 2.8-26.1 10-1.1-2.8z"/><path fill="#7a7e83" d="M48 127v27l-13-24z"/><path fill="#2c2829" d="M19 136h29v3H19z"/><path fill="#b7bbb8" d="M153 171h10v4h-10z"/><path fill="#6a6d64" d="M177.9 136.7l-10.4-18.4-3.4-36.7-22.8-.4z"/></g></g></svg>