<svg xmlns="http://www.w3.org/2000/svg" viewBox="0 0 1400 933"><defs/><filter id="a"><feGaussianBlur stdDeviation="12"/></filter><rect width="100%" height="100%" fill="#5d4735"/><g filter="url(#a)"><g fill-opacity=".5" transform="translate(2.7 2.7) scale(5.46875)"><circle r="1" fill="#dcf6ff" transform="matrix(68.23322 -72.40733 185.58205 174.88368 87 136.4)"/><circle r="1" transform="matrix(21.6252 1.10008 -2.2247 43.73271 152.5 82.8)"/><ellipse cx="100" cy="46" fill="#c0c9cf" rx="28" ry="169"/><circle r="1" fill="#b4bbb5" transform="rotate(-5.9 1547.1 -1944) scale(94.76863 30.59372)"/><ellipse cx="166" fill="#ae976f" rx="34" ry="50"/><path fill="#1a2320" d="M278.8 81.4l-9.4 41-146.2-33.8 9.4-41z"/><ellipse cx="65" cy="102" fill="#b2b5b5" rx="70" ry="87"/><path d="M136 88h26v39h-26z"/><circle r="1" fill="#705843" transform="rotate(110.8 -5.6 8.2) scale(50.14294 22.63286)"/><path fill="#191403" d="M212.9 85.3l-86-49.8 7.6 34.3 28.8-43z"/><circle r="1" fill="#8b8d89" transform="rotate(-141 116.3 27.2) scale(30.80121 24.73621)"/><ellipse cx="94" cy="16" fill="#a1a7a7" rx="33" ry="60"/><path fill="#d79324" d="M165.9 40l7.5-13L220 54l-7.5 13z"/><circle r="1" fill="#b3b5ad" transform="rotate(-177.6 106.6 76.4) scale(147.00749 17.35967)"/><path fill="#ffffb2" d="M156 21l-3 16-12 3z"/><circle r="1" fill="#fff" transform="matrix(3.06831 -.50884 .97001 5.84916 176 36.7)"/><ellipse cx="130" cy="32" fill="#000006" rx="4" ry="25"/><circle r="1" fill="#b7bdbf" transform="matrix(10.57492 30.08235 -50.43097 17.72812 82 98.7)"/><ellipse cx="220" cy="4" fill="#6f6868" rx="90" ry="18"/><path fill="#5e5f59" d="M219.3 84.1l2.5-35.9 52.9 3.7-2.5 35.9z"/><path fill="#a0a6a7" d="M164 95h23v29h-23z"/><ellipse cx="252" cy="96" fill="#0d120c" rx="41" ry="12"/><path fill="#686f69" d="M219 143l52-25-88-16z"/><path fill="#0f120f" d="M187.6 81.5L228.8 64 164 59.3 190.5 42z"/><path fill="#181309" d="M134 85h54v9h-54z"/><ellipse cx="140" cy="41" fill="#635b55" rx="5" ry="38"/><circle cx="83" cy="1" r="45" fill="#9fa3a2"/><path fill="#51311a" d="M212.2 50.6L202 57l-22.2-35.6L190 15z"/><path fill="#e29918" d="M155 18l28 7-45 6z"/><ellipse cx="120" cy="70" fill="#9da3a7" rx="10" ry="48"/><path fill="#5c5244" d="M144 77h86v9h-86z"/><path fill="#b2b6b5" d="M131 79L57 185l83-41z"/><path fill="#11120f" d="M159.9 125.2l-22.8-4.3-4-46.3 31.8 19.2z"/><ellipse cx="203" cy="52" fill="#b86300" rx="14" ry="10"/><circle r="1" fill="#9c988b" transform="matrix(-46.1916 18.68315 -5.13808 -12.70323 27 161)"/><path fill="#97988f" d="M270 154.4L165.6 98.7l-3.2 16.4-8.7 20.5z"/><path fill="#653d00" d="M160.1 23.8l12 5-8.2 19.4-12-5z"/><path fill="#574e41" d="M23.2 13.9L-14.4.2l5.2-14L28.4-.3z"/><circle r="1" fill="#858189" transform="matrix(24.71196 4.04674 -1.94138 11.8553 158.5 0)"/><path fill="#534635" d="M138 51l4 42 32-29z"/><path fill="#58555a" d="M136 35l-6-32 25 9z"/><path fill="#000004" d="M131 36h4v33h-4z"/><path fill="#999b9a" d="M71 2l50 27-137 29z"/><path fill="#fde48a" d="M183.1 48.1l2.7-8.6-14.2.8 2.4-18.8z"/><path fill="#534c44" d="M199.1 41.5L271 60.7l-79.9-49-4.1 39.5z"/><path fill="#060600" d="M216 81l-37-20 22-2z"/><ellipse cx="209" cy="58" fill="#ffe466" rx="3" ry="4"/><path fill="#b0b2ab" d="M271 166l-137-42-81 61z"/><path fill="#3e4440" d="M191.8 91.4l68.7 24.2-50.4-2.2-14.1-3.2z"/><path fill="#acb1b0" d="M160 123l5-21 15 26z"/><path fill="#a75300" d="M212 64l-1-23 13 15z"/><path fill="#ffce47" d="M192 54h8v5h-8z"/><path d="M153 50h24v8h-24z"/><path fill="#a8afb3" d="M97 104l33-42 5 51z"/><ellipse cx="183" cy="90" fill="#1e1a10" rx="40" ry="4"/><path fill="#ffe5c0" d="M145.3 36.8l5-9.8 4.4 2.2-5 9.8z"/><path fill="#9b8c7c" d="M2 70l-18-54 34-7z"/><path fill="#aaada9" d="M41-16l83 45 7-45z"/><circle r="1" fill="#12130f" transform="matrix(9.23332 3.61928 -6.76749 17.26485 148.1 108.2)"/><path fill="#7d8285" d="M168 94h29v16h-29z"/><path fill="#662900" d="M215 55l-19-5 11-8z"/><path fill="#7c796f" d="M151 126h23v5h-23z"/><circle r="1" fill="#b1b7b7" transform="rotate(116.5 -11.2 61.3) scale(36.64113 19.99639)"/><path fill="#9c9f99" d="M210.8 145.8l49.3-13.2 11.1 41.6-49.3 13.2z"/><ellipse cx="130" cy="20" fill="#000805" rx="2" ry="38"/><path fill="#d6ab56" d="M139.9 39.7l-1.8.5 23.6-13.5-5.5-8.9z"/><path fill="#706d66" d="M271 55h-48l48 24z"/><path fill="#4b4b4f" d="M179 53l6 6 8-23z"/><path fill="#ad9881" d="M62 133h11v29H62z"/><path fill="#898c8c" d="M122 33h6v32h-6z"/><path fill="#675e60" d="M131 6h27v14h-27z"/><circle r="1" fill="#685238" transform="rotate(-92.7 130.3 -113.5) scale(8.75201 53.29537)"/><path fill="#fcffff" d="M171.2 35.8l2.9-2.7 4.7 5.1-2.9 2.7z"/><path fill="#56524c" d="M133.2 26l7.6 66.6.3 4.2 5.6-31.4z"/><path fill="#bdc2c2" d="M103.1 114.8l7.5 16.8-35.3 5.2-14.1-65.9z"/><path fill="#e4ac40" d="M180.8 23l-4.2 11.3-9.4-3.4 4.2-11.2z"/><ellipse cx="221" cy="77" fill="#3f3629" rx="20" ry="5"/><path fill="#754504" d="M164 21h7v11h-7z"/><path fill="#10131a" d="M129.3 48.2l5-.9 6.4 36.5-5 .9z"/><path fill="#393327" d="M144.1 44.1l-6.9-35 6.2 61.1 38.7 10.6z"/><path fill="#15150f" d="M147.1 100.7l2-13.9 17.8 2.5-2 13.9z"/><ellipse cx="183" cy="18" fill="#685a54" rx="14" ry="4"/><path fill="#8d8c82" d="M256 150l-18-22-67 4z"/><circle r="1" fill="#453a30" transform="matrix(-13.49352 -1.96197 .9332 -6.41817 225.4 27.7)"/><path fill="#5b5b54" d="M253.6 111.5l17.4 2v10.7l-52.5-4.6z"/><path fill="#161710" d="M188.8 54.3l-20.2 9.3L187 77.3l21.3-2.7z"/><path fill="#010300" d="M190 67l18 8 7-11z"/><path fill="#141612" d="M139 124l7-39 15 40z"/><path fill="#85837f" d="M139.9 45.3L133 2.8l1-.1 6.8 42.5z"/><circle r="1" fill="#50370a" transform="matrix(.64473 -3.47863 5.36611 .99455 201 61.7)"/><path fill="#99a0a3" d="M162 116l4-22h17z"/><path fill="#b0b4b6" d="M68 54h49v45H68z"/><path fill="#0a110c" d="M229 94h27v9h-27z"/><path fill="#a1a4a3" d="M37-16l58 42L-9 95z"/><path fill="#7b7c7c" d="M39.8 38.8L45.5 26l2.7 1.2L42.5 40z"/><path fill="#564e41" d="M218.4 73.2l47.8-43.1-24.3-15.5-27.7 57.6z"/><path fill="#daab63" d="M141 34.4l2.3-2 7.7 9.2-2.3 2z"/><ellipse cx="139" cy="60" fill="#746a60" rx="2" ry="15"/><path fill="#ffd661" d="M153 20h4v11h-4z"/><path fill="#9c6009" d="M178 28l3-2.5 7 8.5-3 2.5z"/></g></g></svg>