<svg xmlns="http://www.w3.org/2000/svg" viewBox="0 0 933 1400"><defs/><filter id="a"><feGaussianBlur stdDeviation="12"/></filter><rect width="100%" height="100%" fill="#50372a"/><g filter="url(#a)"><g fill-opacity=".5" transform="translate(2.7 2.7) scale(5.46875)"><circle r="1" fill="#fffffb" transform="matrix(-145.2737 26.92489 -30.7978 -166.17008 80.5 118.6)"/><circle r="1" fill="#fff1d0" transform="matrix(78.10545 -20.93432 26.62172 99.325 137.2 77)"/><ellipse cx="88" cy="185" rx="43" ry="14"/><circle r="1" fill="#e5000f" transform="matrix(40.29305 -23.07605 16.9238 29.5506 18.8 78.2)"/><circle r="1" fill="#ffffef" transform="rotate(-109.9 67.5 64.6) scale(27.60185 50.02121)"/><circle r="1" fill="#fff" transform="matrix(2.82538 22.58935 -52.27045 6.53776 28.8 18.4)"/><ellipse cx="30" cy="238" fill="#090000" rx="169" ry="7"/><circle r="1" fill="#926a4b" transform="matrix(-2.97927 24.86572 -75.39086 -9.0329 29.7 207.6)"/><circle r="1" fill="#ffffdb" transform="rotate(85.9 -3.3 146) scale(40.91332 21.76783)"/><path fill="#1e0c00" d="M65.1 156.9l8.9 41 54.8-12.6-38.9-26.7z"/><path fill="#ffc989" d="M106 194h64v27h-64z"/><ellipse cx="70" cy="83" fill="#bf8a8f" rx="30" ry="47"/><path fill="#ffe9c6" d="M34.6 206.3L-16 263.1l41.5-63.4 81.4-.6z"/><path fill="#fff4d1" d="M0 144h61v38H0z"/><ellipse cx="83" cy="207" fill="#430f00" rx="50" ry="3"/><path fill="#511900" d="M185 221l-30-8 29 58z"/><path fill="#2d0f00" d="M39 204l-17 38-14-7z"/><ellipse cx="142" cy="237" fill="#4a290f" rx="136" ry="6"/><path fill="#8a6636" d="M126 195.3l-2.2-13.8 68.2-10.8 2.2 13.8z"/><path fill="#ff3248" d="M23 51l-36 63 55-7z"/><path fill="#151003" d="M65 172h58v22H65z"/><ellipse cx="97" cy="169" fill="#cdaa85" rx="31" ry="5"/><path fill="#8e3e34" d="M0 43h53v19H0z"/><path fill="#ffe8ca" d="M185 178l-79-28 33-83z"/><ellipse cx="146" cy="200" fill="#ffffda" rx="74" ry="3"/><path fill="#b9a9a0" d="M36 212h105v21H36z"/><path fill="#6c3e1e" d="M24.5 204.9l-40.5 1.4 5.9 26.3-5.9 14.8z"/><path fill="#210400" d="M81 218h26v4H81z"/><ellipse cx="160" cy="25" fill="#c8ba96" rx="15" ry="111"/><ellipse cx="56" cy="17" fill="#d8d8ce" rx="97" ry="22"/><path fill="#cbbdae" d="M64.9 157.4l41 .3 31.5-53.2L3.7 125.8z"/><path fill="#edd0bd" d="M48 97.6l-13.5 79.3 32.2 5.6-.6-3.4z"/><path fill="#f1ceb4" d="M124.3 224.2l-9.7-15.8 35-.7 15.2 23.9z"/><path fill="#acbda7" d="M47.4 73.3l-5 .3-1.8-33 5-.2z"/><path fill="#932c3e" d="M56 58l-31 4 27 24z"/><ellipse cx="120" cy="195" fill="#dd894d" rx="29" ry="3"/><path fill="#b06332" d="M105 203h50v5h-50z"/><path fill="#816e54" d="M0 181h60v13H0z"/><path fill="#fff7e7" d="M0 143h58v18H0z"/><path fill="#fffbe4" d="M113.5 157.8l39.2 1.5-3-26.7-.6-49.2z"/><path fill="#f8d8b6" d="M44.4 198.7l-13.6.1 6.4-6.9-53.2 59.5z"/><path fill="#5a422c" d="M116 232h54v13h-54z"/><path fill="#f9d5ad" d="M152.2 178.4l-26.8 3v-23l59.6 1.2z"/><path fill="#ffffec" d="M151.9 198l3.4-3.7L172 210l-3.4 3.7z"/><path fill="#ac967b" d="M57 109h71v7H57z"/><path fill="#965f36" d="M151.6 212.4l24.7 32.9 8.7-12.2-34.4-33.4z"/><path fill="#493121" d="M14.8 231.9L50 201.4l-36.4 43.8 42.1-12.3z"/><ellipse cx="100" cy="145" fill="#dec9b6" rx="5" ry="30"/><path fill="#9b9272" d="M174.7 24.5l-.4 10-31-1 .4-10z"/><path fill="#4f2702" d="M100 168l-37-9 21-2z"/><path fill="#fe5674" d="M38 70v45l-17-6z"/><path fill="#d68d9c" d="M77.9 91.9L45.3 37l23.6 2.7-32.4 86.5z"/><path fill="#8d1924" d="M23 47l14-8 6 46z"/><ellipse cx="14" cy="250" fill="#aea591" rx="135" ry="7"/><path fill="#b4b09a" d="M42 32h4v102h-4z"/><path fill="#000100" d="M64 181h33v12H64z"/><path fill="#c78340" d="M184 186l-8 24-20-20z"/><path fill="#763919" d="M50 195h57v4H50z"/><path fill="#b6b6b7" d="M0 121h48v22H0z"/><path fill="#f6dec3" d="M115 66h33v43h-33z"/><path d="M120.8 157l.8-.7 3.6 4.8-.8.6z"/><ellipse cx="71" cy="206" fill="#5d3922" rx="38" ry="3"/><path fill="#dbd6cb" d="M54-16l55 46L-5 43z"/><ellipse cx="72" cy="201" fill="#f3d0b7" rx="45" ry="3"/><path fill="#c6976a" d="M84 154h23v8H84z"/><path fill="#dbc9b7" d="M30.2 171.2l86.4-31.7-77.4.2 36.1 29.8z"/><path fill="#b5a79b" d="M11 235l-12-1 18-21z"/><ellipse cx="11" cy="113" fill="#6f4d3c" rx="29" ry="2"/><path fill="#dda26b" d="M106 192h62v4h-62z"/><path fill="#f33943" d="M.1 113l20.4-.4 11-49.2L20 42.9z"/><path fill="#150d03" d="M113 174h11v17h-11z"/><path fill="#c57e4a" d="M31.7 198.2l-15.2 12.6 3.3-19.5 34.5 7.6z"/><path fill="#908578" d="M0 244h35v12H0z"/><path fill="#712f25" d="M39 47h3v57h-3z"/><path fill="#634b32" d="M114.5 167.4l-14.6 7.2-10-21.8 2 28.6z"/><path fill="#f2d5af" d="M151 109h19v66h-19z"/><path fill="#a25834" d="M16.4 41.3L-16 47.9l16.4 37 16.3-24.1z"/><path fill="#ccc5b6" d="M111 246h25v10h-25z"/><path fill="#c5bcb0" d="M53 114h73v23H53z"/><path fill="#ffffdb" d="M125 197h37v5h-37z"/><path fill="#fa6363" d="M24.6 70.2L18.3 54 5.2 84.2l14-8z"/><path fill="#bfab9f" d="M43 210h59v7H43z"/><path fill="#796d5c" d="M-4 221l33-32-45 8z"/><circle r="1" fill="#c6c6bd" transform="rotate(-171 66.4 -2) scale(100.94178 11.73589)"/><ellipse cx="164" cy="236" fill="#583f2d" rx="33" ry="6"/><circle cx="111" cy="175" r="6" fill="#6a523a"/><ellipse cx="107" cy="155" fill="#f77c15" rx="4" ry="2"/><path fill="#522c19" d="M12 214l-16 4 2 11z"/><path fill="#b7a381" d="M83 45h8v59h-8z"/><path fill="#8a7459" d="M126 180h44v11h-44z"/><path fill="#453021" d="M25 232h49v12H25z"/><path fill="#d9cab1" d="M146-16l-1 93-64 39z"/><path fill="#ad3555" d="M46 39h6v50h-6z"/><path fill="#a28372" d="M41 54h6v41h-6z"/><path fill="#dac9b9" d="M99.1 164.8l2.2.2-36.9-28.1 64.7-16.4z"/><path fill="#ce8997" d="M58 110l12-44-14-24z"/><path fill="#ad9d90" d="M83 221h37v12H83z"/><path fill="#ad9287" d="M61 199h29v3H61z"/><path fill="#834d2d" d="M38 203l-18 18 30-17z"/><path fill="#b7a487" d="M70 162l21 9-20-2z"/></g></g></svg>