<svg xmlns="http://www.w3.org/2000/svg" viewBox="0 0 1400 933"><defs/><filter id="a"><feGaussianBlur stdDeviation="12"/></filter><rect width="100%" height="100%" fill="#2b493e"/><g filter="url(#a)"><g fill-opacity=".5" transform="translate(2.7 2.7) scale(5.46875)"><path fill="#c9a9ab" d="M-8-16l279 37L52 185z"/><circle r="1" fill="#210000" transform="matrix(5.36982 -22.45523 70.22728 16.79376 162.8 107.3)"/><path fill="#b2b2b0" d="M212 21l59 97L11-16z"/><circle cx="79" cy="161" r="61" fill="#b4a4a0"/><path d="M45 20h23v78H45z"/><path fill="#330f0d" d="M120 29h39v94h-39z"/><ellipse cx="250" cy="37" fill="#6d6662" rx="48" ry="84"/><path fill="#230000" d="M106 84h126v26H106z"/><path fill="#caffd9" d="M91.5 78l5.3-37.6 25.7 3.6-5.3 37.6z"/><circle r="1" fill="#c8cac8" transform="matrix(-55.51173 -4.61089 1.82396 -21.9591 102.6 10.4)"/><circle r="1" fill="#6e5950" transform="matrix(9.78214 -19.56102 55.79583 27.90257 145.8 145.5)"/><path fill="#eaf9ff" d="M74 72l-19 54 35-15z"/><path fill="#a5b4c2" d="M231 71h25v44h-25z"/><path fill="#bfcbd1" d="M154 86l85-7-66-21z"/><circle r="1" fill="#939f94" transform="matrix(-9.1867 -2.17164 9.33704 -39.49844 146.6 42.5)"/><ellipse cx="70" cy="98" fill="#2c0008" rx="160" ry="3"/><path fill="#02130c" d="M123.7 45.6l3.4 38.7 9.6-52.1-44.1 2.1z"/><path fill="#9bfccb" d="M89 34.8l-1 27-17-.6 1-27z"/><path d="M111 41h3v44h-3z"/><ellipse cx="226" cy="138" fill="#260f05" rx="55" ry="14"/><circle r="1" fill="#4c493e" transform="rotate(-66.6 139.3 -166.1) scale(11.02827 105.65005)"/><circle r="1" fill="#887485" transform="matrix(-6.7977 6.38346 -23.23088 -24.73837 19.8 78.4)"/><path fill="#080e0b" d="M43.3 23.5l56.4 14.2-36.3-4.3L45.3 112z"/><path fill="#670006" d="M160.5 95.3l-73.2-18-.8 17.2 58.2 27.4z"/><circle r="1" fill="#140005" transform="matrix(28.177 -14.6814 7.57448 14.53718 0 151.3)"/><ellipse cx="234" cy="169" fill="#806257" rx="95" ry="15"/><circle r="1" fill="#958c87" transform="matrix(12.06528 -18.7936 76.60615 49.18028 92.1 159)"/><path d="M223 110l-74-15 87-15z"/><circle r="1" fill="#cbd2d9" transform="matrix(-1.79795 8.76828 -21.17272 -4.3415 60.2 114.5)"/><path d="M89 32h3v50h-3z"/><path fill="#240000" d="M140.2 67l21.5-11.5-25.6 66.2 36.9-6.5z"/><path fill="#8b8982" d="M199 106l1 12 37-1z"/><circle r="1" fill="#625a52" transform="matrix(-16.7316 -12.7936 8.72899 -11.41587 38.2 139.8)"/><path fill="#1f0404" d="M21.5 65.4l6 57.3-14.8-74.4L-16 37.8z"/><ellipse cx="117" cy="71" fill="#fff" rx="3" ry="11"/><circle r="1" fill="#a6afb4" transform="matrix(-2.09367 8.85685 -27.72285 -6.5534 36.1 7)"/><path fill="#ebf4fa" d="M66.8 80.3l17-1.5 1.4 17-17 1.4z"/><path fill="#434532" d="M225 67.9l21-5.4 25-33.9-47.4 8.3z"/><path fill="#686960" d="M135.2 158.2l-66.8-46.8 116.4 28.2-2-7.1z"/><path fill="#9d918a" d="M107 80h70v3h-70z"/><path fill="#888c83" d="M133 27h87v32h-87z"/><circle r="1" fill="#8a9599" transform="matrix(-6.34196 -53.1853 8.70424 -1.03792 32 65.6)"/><path fill="#b9bbba" d="M88.5-16L61.8 29.7l2.1-.8 57.6 8.5z"/><path fill="#c6f3d1" d="M68 38h5v56h-5z"/><ellipse cx="181" cy="74" fill="#d4e8f6" rx="12" ry="8"/><path fill="#dce9ef" d="M58 104h46v8H58z"/><path fill="#0c0000" d="M23.2 95.1l-14 26.4-.4-2.3L3.5 90z"/><path fill="#ffffeb" d="M92 62.2l17-2.2 1 7.9L93.2 70z"/><path fill="#858c8b" d="M210 64h38v18h-38z"/><path fill="#000500" d="M98 103h2v17h-2z"/><circle r="1" fill="#332724" transform="rotate(171.2 16.5 53.7) scale(56.23442 1.98152)"/><path fill="#adafb2" d="M84.7 121.8l15.6-21.6-52.2 24.5 66.5 22.6z"/><ellipse cx="199" cy="150" fill="#44382f" rx="80" ry="7"/><path fill="#1f2d26" d="M155 123l-47-21 6 17z"/><circle r="1" fill="#0f1310" transform="matrix(35.10814 5.9381 -.24389 1.44194 112 38.3)"/><path fill="#4e463e" d="M237 27L196-9l-56 9z"/><path fill="#560f19" d="M80 81h47v7H80z"/><path fill="#838175" d="M152.1 83.5l27.7 6.3L167 73l5.6-54.9z"/><path fill="#faffff" d="M115 45h5v36h-5z"/><path fill="#96a4ae" d="M265.7 108.7l-38.3 6.3 11.1-39.4-11.7 3.3z"/><path fill="#121a16" d="M121 34h13v44h-13z"/><path fill="#8adaa5" d="M93 66l16-27-16-3z"/><path fill="#6e6b63" d="M237-16l19 39-116-39z"/><path fill="#8f857d" d="M193.7 179.2L56.6 185l-61.2-11.4L63.1 142z"/><path fill="#2c4e45" d="M77 77l20-17-45 16z"/><path fill="#171813" d="M45 19h17v56H45z"/><path d="M-10.1 57l-.7-7.9 24.9-2.2.7 8zm158.8 21.2l-6.7-6 9.3-10.4 6.7 6z"/><path fill="#080400" d="M219 88h10v52h-10z"/><path fill="#9f988b" d="M135 139l12 3-6-22z"/><path fill="#777d80" d="M31 54L0 41 11-3z"/><path fill="#5e5f58" d="M109 103l-16 23 61 50z"/><circle r="1" fill="#201609" transform="rotate(110.5 55.2 117.6) scale(26.53872 14.94173)"/><path fill="#b9f7a5" d="M109 62l2 23-12-17z"/><path fill="#cfd0d2" d="M76.6 9.3l46.6 6.5-1.8 13-46.6-6.6z"/><ellipse cx="93" cy="78" fill="#d1e5e0" rx="15" ry="2"/><path fill="#0e1412" d="M79.1 35.2l49.4 3.7L68.9 30l-8 6.3z"/><path fill="#6e6258" d="M222 112h29v11h-29z"/><ellipse cx="76" cy="105" fill="#fff" rx="11" ry="4"/><path fill="#ca1638" d="M114 86h3v22h-3z"/><ellipse cx="66" cy="65" fill="#000806" rx="2" ry="33"/><path fill="#000b09" d="M89 53h3v27h-3z"/><path fill="#030500" d="M129.3 39.2l-9-.4.4-8 9 .4z"/><path fill="#8c8e88" d="M229 28l-26 48-66-76z"/><path fill="#fff" d="M68 90h19v5H68z"/><path fill="#e4e9e6" d="M98.3 105.5l-7.9 1-.7-6 7.9-1z"/><path fill="#574649" d="M91 95h3v28h-3z"/><path fill="#725e60" d="M16.8 57.5l-22.2-6.4-5.1 20 33.3 22z"/><path fill="#510b19" d="M91.9 91.4l-4.8 19.4-1-.2 4.8-19.4z"/><path d="M25 94h2v26h-2z"/><path fill="#8e0018" d="M88 83h14v16H88z"/><circle r="1" fill="#160f0f" transform="matrix(-2.87934 -51.04223 3.29023 -.1856 0 116.7)"/><ellipse cx="192" cy="83" fill="#685c50" rx="44" ry="2"/><path fill="#39382f" d="M5.5 70.9l7.1-2.7 15.8 13.9-6.3-17.4z"/><path fill="#91c3a8" d="M69 36h21v24H69z"/><ellipse cx="251" cy="74" fill="#727873" rx="22" ry="11"/><ellipse cx="137" cy="29" fill="#979792" rx="4" ry="52"/><path fill="#0b110d" d="M224 38h3v19h-3z"/><path fill="#210804" d="M148 58h3v81h-3z"/><path fill="#2f383d" d="M44 80h20v25H44z"/></g></g></svg>