<svg xmlns="http://www.w3.org/2000/svg" viewBox="0 0 1400 933"><defs/><filter id="a"><feGaussianBlur stdDeviation="12"/></filter><rect width="100%" height="100%" fill="#483329"/><g filter="url(#a)"><g fill-opacity=".5" transform="translate(2.7 2.7) scale(5.46875)"><circle r="1" fill="#fff" transform="matrix(-217.64606 -21.34038 9.31418 -94.9934 144.1 71.4)"/><circle r="1" fill="#f3f6ea" transform="matrix(209.9209 46.92288 -21.41324 95.79734 254.2 54.1)"/><circle r="1" transform="matrix(-9.77309 24.31132 -27.19827 -10.93363 68 131.2)"/><circle r="1" fill="#b90000" transform="matrix(-4.26132 39.22608 -25.08175 -2.72475 6.4 25)"/><circle r="1" fill="#535f6c" transform="rotate(19.4 -237.2 600.8) scale(23.56449 47.18572)"/><circle r="1" fill="#fff" transform="matrix(-31.24683 14.71688 -21.07255 -44.74115 206.5 30)"/><circle r="1" fill="#fde5c3" transform="matrix(-22.87057 -12.1605 28.09107 -52.83162 3.9 125.6)"/><circle r="1" fill="#f8ffff" transform="rotate(86.9 34.4 194.1) scale(36.64122 19.80057)"/><path fill="#ffe5bf" d="M111.4 74.2L97.5 117l-59-19.2 14-42.8z"/><circle r="1" fill="#7d6857" transform="matrix(56.03495 16.38469 -9.0152 30.83163 148.3 144.2)"/><circle r="1" fill="#130500" transform="matrix(-25.10538 3.92666 -2.85025 -18.22328 57.7 135.6)"/><ellipse cx="217" cy="95" fill="#5f6e70" rx="24" ry="19"/><path fill="#1d3a5d" d="M248 117h8v53h-8z"/><path fill="#806b51" d="M40.5 123.3l-56.5 29L-2.2 185l45.6-19.8z"/><path fill="#e1d8cf" d="M174.6 167.5l-13.8-6.2 10-43.2 7.5 21.8z"/><circle r="1" fill="#cf9087" transform="matrix(-8.38257 -41.28682 20.86156 -4.23558 51.3 42.5)"/><path fill="#1c0900" d="M177 124l2 48 24 13z"/><path fill="#e9e9ea" d="M133 90h65v15h-65z"/><path fill="#dfcaaf" d="M73 0h103v112H73z"/><circle cx="224" cy="134" r="24" fill="#f1ffff"/><path fill="#fdffff" d="M206 12h26v74h-26z"/><path fill="#361a08" d="M104.5 156.7l42.7-3.7 18.1-27.1-5.5 34.9z"/><path fill="#6f7265" d="M164 26h5v97h-5z"/><ellipse cx="234" cy="89" fill="#000006" rx="4" ry="14"/><path fill="#f3d9c5" d="M81.5 158.2l5 4.3 33.3-30.5 11.4-16.5z"/><circle r="1" fill="#7194b4" transform="matrix(-17.96127 -54.20147 11.0149 -3.65012 206 166.5)"/><path fill="#452310" d="M108 159.3l-14.3-5.1 29.9-23.7-5.4 9.9z"/><path fill="#c1b3ad" d="M116.2 145.2l28.4 14.2 16.8-34.3-22.9.2z"/><circle r="1" fill="#fff0d1" transform="matrix(14.88491 9.68619 -12.44603 19.126 5.4 117.6)"/><ellipse cy="9" fill="maroon" rx="13" ry="23"/><circle r="1" fill="#e3f6fe" transform="matrix(-10.53422 30.53453 -24.02504 -8.28849 193.5 39)"/><path fill="#434b52" d="M184 70h21v21h-21z"/><circle r="1" fill="#bc9674" transform="matrix(.41928 3.738 -34.72828 3.8954 53.4 114.6)"/><path fill="#fff8da" d="M70.6 93.9l40.6 18.5-15.3-15.6-6-50.7z"/><ellipse cx="108" cy="58" fill="#c7b192" rx="13" ry="46"/><path fill="#effbfc" d="M184 103l9-25 3 27z"/><circle r="1" fill="#ee6072" transform="matrix(-3.21402 11.35809 -30.22294 -8.55223 7.6 51.6)"/><path fill="#4b1d00" d="M45.8 109.5l-.7 3.6 26.6-5.2-25.4-3.7z"/><path fill="#f2ffff" d="M225 88h6v82h-6z"/><ellipse cx="15" cy="35" fill="#a3ac9d" rx="3" ry="61"/><path fill="#6f9ac5" d="M256 176l-9-21-46 15z"/><path fill="#161f1c" d="M207.5 78.1l.1-1 30.9 2.8-.1 1z"/><path fill="#536173" d="M216.6 112.7l-15.5-9.8-60.6 17.4 53.7-2.4z"/><path fill="#aaa389" d="M242-5h26v50h-26z"/><path d="M212.9 79.8l-4.8 24.6-1-.2 4.8-24.6z"/><path fill="#070500" d="M54 117h28v21H54z"/><path fill="#fbffff" d="M171.8 58.1l47.2-7.4 15.3-64.3 1.2 92.8z"/><path fill="#f0fcff" d="M237 88h8v57h-8z"/><ellipse cy="39" fill="#ec2035" rx="14" ry="23"/><path fill="#dbd9df" d="M130 64h35v48h-35z"/><path fill="#d8aa7b" d="M85.5 109.4l1.3 34.6-5-33.2-6.3-16.4z"/><path d="M207 87h18v3h-18z"/><circle r="1" fill="#7f6953" transform="matrix(9.55008 12.58884 -25.30145 19.19405 8.2 157.4)"/><ellipse cx="21" cy="23" fill="#7a1227" rx="4" ry="29"/><path fill="#533d2d" d="M39 147l-1 38 75-55z"/><path fill="#d1c4bb" d="M93 159h45v4H93z"/><path fill="#d3e0d7" d="M170 28h12v71h-12z"/><path fill="#2c3131" d="M186 71h4v27h-4z"/><ellipse cx="86" cy="158" fill="#dfd0c6" rx="9" ry="3"/><circle r="1" fill="#be9893" transform="matrix(13.215 -37.9483 16.3732 5.70175 43.2 53)"/><path fill="#f5feff" d="M247.8 122.5l-13.5 47.4-35.2-49.4 6.9-6.2z"/><ellipse cx="145" cy="163" fill="#d4ccc4" rx="25" ry="2"/><path fill="#d8d1ca" d="M166 125h10v25h-10z"/><path fill="#4b230e" d="M113.3 143.2l14.6-15.1 2.8 2.7-14.6 15.1z"/><path fill="#4c3425" d="M159.8 129l-6.9 10.6-.8 21.5 11.8-1.3z"/><path fill="#d6c0a9" d="M2 138l45-71-6 61z"/><path fill="#22282d" d="M199 99l-6-22 9 5z"/><path fill="#677375" d="M232.8 114.9l7.9-27.4-20.8 28.4.7-25.3z"/><path fill="#c6c9c7" d="M201 86h6v19h-6z"/><path fill="#fff" d="M207 53h35v25h-35z"/><path fill="#ddbc95" d="M92.6 130.6l-5.3-48.9 5 29.1 24.1-10.4z"/><path fill="#4d555a" d="M168 72h2v54h-2z"/><circle r="1" fill="#543e30" transform="matrix(.21115 -2.51451 35.26699 2.96145 132.2 158)"/><path fill="#b9b6a7" d="M71.8 56.3L28.6 76.7l-2.4 18.7 57-17.3z"/><ellipse cx="164" cy="22" fill="#ada68b" rx="3" ry="75"/><path fill="#ffcf9b" d="M136 122l-23 2 4 6z"/><path fill="#52606e" d="M238 164l33 14-3-41z"/><path fill="#98c0ed" d="M228 168l22-38-1 24z"/><path fill="#201a10" d="M92.5 135.6l-52.1-19 .2 14.7 19.1 18.3z"/><ellipse cx="191" cy="89" fill="#dde8ec" rx="2" ry="20"/><path fill="#786f6d" d="M123 113h55v12h-55z"/><path fill="#453427" d="M181.2 126.2l15.2 48.7-17.8-5.9 2.8-33.8z"/><path fill="#ffebce" d="M60.3 97.3l40.8 5.9-25-79.8 6.6 64.3z"/><ellipse cx="232" cy="91" fill="#060c10" rx="2" ry="14"/><path fill="#101211" d="M209.3 90l-1.6 22h-1l1.6-22z"/><path fill="#ffe7d2" d="M23 83l-27 34 32-6z"/><path fill="#a8c2d9" d="M221.1 109.6l-25.6 11.9 7.4 29.9 16.3-61.5z"/><path fill="#32241e" d="M129.1 165.4l80.8 5.7-65.1 13.9-28.7-20z"/><path fill="#dac5a6" d="M61 10h42v46H61z"/><path fill="#c6a37c" d="M82.2 87.2l1.9 9.4-2.9 34.2 7.1-.7z"/><path fill="#d0c6c3" d="M130 129h27v6h-27z"/><circle r="1" fill="#5c636f" transform="matrix(9.04143 25.73396 -2.34902 .8253 255 143.4)"/><path fill="#b8aea3" d="M179.9 169.1l-6.1-38.6-14.6 37.6 13.1-1.2z"/><path fill="#fff" d="M214 86l-1-6h13z"/><path fill="#937558" d="M59.2 70.4l-36.8-3.8.4-3 36.8 3.8z"/><path fill="#a59473" d="M92 12l-2 7 23 2z"/><circle r="1" fill="#d16f83" transform="rotate(-4 273.8 -490.7) scale(4.67613 40.24885)"/><path fill="#6f777c" d="M196.8 74.2l-23.5 1.3 33.2-7.1.2 27.4z"/><ellipse cx="57" cy="41" fill="#9c7665" rx="2" ry="28"/><ellipse cx="216" cy="105" fill="#858575" rx="32" ry="2"/></g></g></svg>