<svg xmlns="http://www.w3.org/2000/svg" viewBox="0 0 1400 933"><defs/><filter id="a"><feGaussianBlur stdDeviation="12"/></filter><rect width="100%" height="100%" fill="#393129"/><g filter="url(#a)"><g fill-opacity=".5" transform="translate(2.7 2.7) scale(5.46875)"><circle r="1" fill="#fff" transform="matrix(55.01066 -97.70356 222.2008 125.10716 128 135.2)"/><circle r="1" fill="#333127" transform="rotate(85.2 57.3 104.4) scale(29.74098 120.85514)"/><circle r="1" fill="#e9f1f1" transform="matrix(-13.10854 51.42684 -167.70739 -42.74808 55.3 130.4)"/><circle r="1" fill="#c5d1d7" transform="matrix(-1.40922 -9.14219 66.8926 -10.31118 141 0)"/><ellipse cx="251" cy="74" fill="#868477" rx="99" ry="22"/><circle r="1" fill="#2b2820" transform="matrix(-15.58995 -30.62538 15.25013 -7.76313 149 27.9)"/><circle r="1" transform="rotate(-15.4 147.7 -129) scale(3.0077 50.92508)"/><path fill="#d4dcdf" d="M0 13h30v157H0z"/><path d="M20.9 42L4.7 9l2-25 8.4 61z"/><circle r="1" fill="#b3b4af" transform="matrix(-18.14354 30.88557 -82.8043 -48.64287 180.3 133.8)"/><circle r="1" fill="#7e7e7b" transform="matrix(-27.68123 18.45746 -19.71192 -29.56259 80.1 50.9)"/><path d="M52.3 7.2l13.2 60.7-15.3-53.7-8.7-28.9z"/><path fill="#dee7ef" d="M54.2 32.2l-5.4 28.7L39 6.6l8.8 2.1z"/><circle r="1" fill="#252219" transform="matrix(80.73956 -12.87793 .4528 2.83884 133.3 45.1)"/><path d="M71 34.2l-2 .5-10-43 2-.4z"/><circle r="1" fill="#5d564b" transform="matrix(-11.4966 13.0863 -35.72132 -31.38194 185 41.9)"/><path fill="#d4e1ed" d="M60.4 40L46.7-24.6l6.9-1.4 13.7 64.6z"/><path fill="#3c3b33" d="M45 55h19v26H45z"/><path fill="#babdbe" d="M39 39.4l14 61.4-34 7.8L4.8 47.2z"/><path d="M35 27L21-16 37 7z"/><path fill="#dce1e7" d="M126 8l2-17-56 21z"/><circle r="1" fill="#1d1c11" transform="matrix(-.91526 -24.18286 44.81962 -1.6963 226 14.4)"/><circle r="1" fill="#dce0df" transform="matrix(12.35121 24.45125 -35.80388 18.08584 24.6 146)"/><ellipse cx="100" cy="86" fill="#b1b3b0" rx="94" ry="10"/><circle r="1" fill="#8d8b83" transform="matrix(-42.89359 -6.67403 1.82567 -11.73348 113.9 68.1)"/><ellipse cx="236" cy="87" fill="#8b897e" rx="43" ry="26"/><path d="M154.5 61.2l-5 .4-6-68.8 5-.4z"/><path fill="#1c2424" d="M38.6 17.5l-19 18.3-20-48.6 15.1 48.6z"/><path fill="#e0e4e5" d="M134 0h9v9h-9z"/><path d="M128.4 3.2l.4-19.2L133.9.1l4.2 48.3z"/><ellipse cx="21" cy="17" fill="#fff" rx="9" ry="6"/><path d="M66.2-15.4l1-.3 12.6 41.1-1 .3z"/><path fill="#989795" d="M60 40l21-18 52 6z"/><path fill="#808280" d="M-13.2 63.7l53.9-27.4L-9.2 44l12 8.3z"/><path fill="#fff" d="M66 6h7v9h-7z"/><circle r="1" transform="rotate(-100.7 30.3 -15.8) scale(38.30344 1)"/><path fill="#030500" d="M53.5 56.8l98.7-15.6.3 2-98.7 15.6z"/><path fill="#fff" d="M7.6 13.4L10.8 26l-18.4 4.6-3.2-12.6z"/><circle r="1" fill="#030500" transform="matrix(2.34535 -.53628 7.11272 31.10666 43.1 49.2)"/><path fill="#73726b" d="M185.1 7.8l-34.4 6-3.8-21.6 34.4-6z"/><path fill="#d3f3ff" d="M25 3L9 4 8-16z"/><ellipse cx="54" cy="66" fill="#b9bab8" rx="3" ry="8"/><path fill="#010400" d="M65.7 24.2l76.5-9.4v1l-76.4 9.4z"/><ellipse cx="111" cy="98" fill="#c1c3c2" rx="46" ry="14"/><path fill="#fff" d="M47.8 12.2l-9.7 5.1-1.9-3.5 9.7-5.1z"/><circle r="1" fill="#a9a9a0" transform="rotate(-65.9 245.8 -120.2) scale(28.40852 108.02526)"/><path fill="#56697d" d="M60.7-13.1L49.6 7.5l79.1-9L52 .6z"/><circle cx="93" cy="142" r="30" fill="#d0d1cf"/><path d="M215.3 47.1l6.5 5.4 1.2-6.2-.1-62.3z"/><path fill="#e1e8ee" d="M76 4h17v11H76z"/><circle r="1" fill="#c6c9ca" transform="rotate(43.3 -85.6 57.5) scale(18.17626 33.55185)"/><path fill="#4d3b46" d="M125 131l-5-5 9 2z"/><circle r="1" fill="#9c9a94" transform="matrix(-21.55725 -30.66809 16.5288 -11.61844 200.9 106.2)"/><path fill="#554935" d="M224.8 54.8l2.7-21.8 33.7 4.2-2.7 21.8z"/><path fill="#aeaeac" d="M41 29l12 15-3 16z"/><path fill="#21221c" d="M197.8 13.1l-32-2.2 4.3-26.9 1 18.9z"/><path fill="#9d9d99" d="M63.1 91.6l8.2-9.8L35 73.9l3.8 15.2z"/><path fill="#112832" d="M227 108h7v4h-7z"/><path fill="#f1f6f9" d="M54.7 19L53.5 9 61 7.9l1.6 12.3z"/><path fill="#c0c3c0" d="M56 47h6v7h-6z"/><circle cx="116" cy="117" r="3" fill="#733e3f"/><path fill="#565044" d="M149 3.5l4.5 53.5 68.6 1.6-68.7-48.2z"/><path fill="#736d64" d="M102 63L67 74l22 4z"/><path d="M69.3 32.4L57.7-14.2l1-.2 11.6 46.6z"/><path fill="#2c3133" d="M0 32h21v2H0z"/><path fill="#1d1f1d" d="M45.5 69.5l-6.2-42.6 7.6 51.6 14-40z"/><path fill="#878888" d="M124.6 8.4l-9.4-2L93 16.9l36.9-2.7z"/><path fill="#5f5f5d" d="M221 83h10v14h-10z"/><path fill="#ebf5fd" d="M49 15L36 7l5 16z"/><path fill="#676256" d="M162 44h55v9h-55z"/><path fill="#e8f2fa" d="M14 12h13v15H14z"/><path d="M32.6 1.3l8.7 35-2 .4-8.6-35z"/><path fill="#b4b4b1" d="M146 113h44v52h-44z"/><path fill="#0b0d09" d="M14 33L9 16l5 8z"/><path fill="#b4b5b5" d="M149 5l19-7-19-14z"/><path fill="#605b4e" d="M211.4 3.3l-14.7 3.2-2-9.8 14.6-3.2z"/><path fill="#4d4a43" d="M134.1 11.2l-3.6 2.3 15.6-7.8 2.6 70.1z"/><path fill="#c3c5c2" d="M119 130l-56 36 133-27z"/><path fill="#9fa2a3" d="M35.6 49.2l2.8-15.7-4.3-7.8L6.6 54z"/><path fill="#9fa1a1" d="M61.6 44.3l10.5-2.4-3.7-22.3 5.1 8.8z"/><path fill="#807f7b" d="M66.2 54.9L131.4 20l.8 8.5-27.5-9.6z"/><path fill="#c8e9ff" d="M36 3l13-5-19-11z"/><path fill="#93918a" d="M55 56l1 16 6-15z"/><ellipse cx="70" cy="15" fill="#e8f3fd" rx="3" ry="5"/><path fill="#0a0d08" d="M184.1 13.4l4.8-27.6L194.1.7l4 31.8z"/><path fill="#aac9e8" d="M-9.1-13.8L-14 19.6l-2-12.3 23-.4z"/><path fill="#7e7b73" d="M141 67.4l108.7-13.8L155.2 73l-12.9 15.1z"/><path fill="#a0a09d" d="M215 71l-101 6 38 15z"/><ellipse cx="246" cy="19" fill="#3e382c" rx="24" ry="9"/><circle r="1" fill="#c8cac8" transform="rotate(-125.4 47.6 46.5) scale(32.52247 18.60186)"/><path fill="#070801" d="M197 37.6l51.8-6.4L271 26l-52.3 5.6z"/><path fill="#e2edf6" d="M11.9 30.2L6.2 12.7-16 40.8 8.3 29.7z"/><ellipse cx="108" cy="107" fill="#4a565f" rx="3" ry="2"/><path fill="#b9bcbd" d="M51.6 24.3l-.2 27.1 5-8.7-10.6-36z"/><ellipse cx="116" cy="123" fill="#c9ccce" rx="16" ry="5"/><path fill="#3f3627" d="M62.3 67.5l-3-.9 6.4-22 3 .8z"/><circle r="1" fill="#7e7b73" transform="rotate(88.2 22.4 81.6) scale(4.74433 31.56792)"/><path fill="#403a30" d="M152.3 32.1l70.1-11.4-24.3-12.1-2.6 31z"/><ellipse cx="2" cy="36" fill="#eef8ff" rx="11" ry="2"/><path fill="#8696a4" d="M164 168l-10-13h-11z"/></g></g></svg>