<svg xmlns="http://www.w3.org/2000/svg" viewBox="0 0 933 1400"><defs/><filter id="a"><feGaussianBlur stdDeviation="12"/></filter><rect width="100%" height="100%" fill="#413a33"/><g filter="url(#a)"><g fill-opacity=".5" transform="translate(2.7 2.7) scale(5.46875)"><circle r="1" fill="#fcffff" transform="matrix(-97.80161 -100.6911 121.2278 -117.74898 91.8 162.1)"/><circle r="1" fill="#787c7b" transform="matrix(-116.61852 37.73644 -13.17552 -40.71686 88.1 35.9)"/><circle r="1" fill="#bec4c7" transform="matrix(-66.56985 -65.30592 51.6323 -52.63159 13.6 219)"/><path fill="#6e6f6b" d="M103-16L-16 56 185 5z"/><ellipse cx="133" cy="105" fill="#b1b7b8" rx="156" ry="17"/><circle r="1" fill="#a9aeae" transform="matrix(-37.0175 -37.38463 51.72777 -51.2198 111.3 206.7)"/><path fill="#898888" d="M19 237l93-18v27z"/><circle r="1" fill="#989897" transform="matrix(-51.58022 5.47136 -4.11258 -38.77056 71.3 64.2)"/><circle r="1" fill="#c5cbd4" transform="matrix(-.37022 7.85057 -62.7656 -2.95995 52.8 252.2)"/><ellipse cx="163" cy="12" fill="#6f6f6a" rx="106" ry="13"/><path fill="#2f251e" d="M154.4 142.3l.2-4 25 1.4-.2 4z"/><path fill="#000300" d="M-1.7 5.6L20 7.4 68.7-15-5.7-3.1z"/><ellipse cx="95" cy="150" fill="#744826" rx="8" ry="4"/><circle r="1" fill="#bdc2c4" transform="matrix(7.85482 20.11787 -36.63507 14.30378 19.3 216.1)"/><path fill="#40312c" d="M9 214h13v3H9z"/><path fill="#153c4b" d="M100 226h14v5h-14z"/><path fill="#6b6a65" d="M5 37l-20 51 59-63z"/><path fill="#000621" d="M27 235.5h8v3h-8z"/><path fill="#7a4d2f" d="M47.3 147l9.8-1.9 1.6 7.9-9.8 1.9z"/><circle r="1" fill="#a7a9a6" transform="matrix(19.0567 1.06116 -3.22446 57.90595 16.4 135.4)"/><path fill="#948975" d="M86 109l-33 22 23 10z"/><path fill="#6c5d4a" d="M62 157h16v6H62z"/><path fill="#8d908b" d="M185 66l-6-60L77 90z"/><circle r="1" fill="#4b4a40" transform="rotate(151.8 20.4 9) scale(53.07915 7.24217)"/><ellipse cx="64" cy="219" fill="#7f7a79" rx="15" ry="3"/><path fill="#b6b9bb" d="M13 104.7l-1 21.5 73.8-24.7-18.2-1.3z"/><path fill="#afb4b5" d="M119 192h30v47h-30z"/><path fill="#999ca3" d="M85 22l35-2 2 19z"/><path fill="#82807c" d="M81 237.6l66.6 1.6 32.9-2.9-8.2 7.7z"/><circle r="1" fill="#7b7c79" transform="rotate(112.6 72 61.3) scale(38.02446 8.68213)"/><path fill="#bcbcb8" d="M84.3 171.9L49 159l21.4-22.8-12.6 43z"/><path fill="#757575" d="M42 26.8l36.4-21L92 29.2l-36.3 21z"/><path fill="#a5a5a1" d="M71.3 99.7l34.9 44.6L53.3 62l36.8.9z"/><path fill="#b9bdc0" d="M38 235h40v5H38z"/><path fill="#5d5b53" d="M72 16l48-7L99-7z"/><path fill="#626060" d="M115 141h15v4h-15z"/><path fill="#6d645d" d="M151.6 136.6l30.3 9.9-24.7-3.2-11.5-5.4z"/><path fill="#abb3b3" d="M154 83h16v57h-16z"/><path fill="#8c8480" d="M7 240h13v6H7z"/><path fill="#8e837c" d="M30 232h59v3H30z"/><path fill="#aaaaa5" d="M135 211l-56-69-18 99z"/><path fill="#969592" d="M155 231.5l-37.6-8.8-21.8 28.4-30.5-18.3z"/><path fill="#a1a29f" d="M57 172L6 161l-22 37z"/><path fill="#c5ccd3" d="M24.3 240.3l-16.8 1-20-11.8 3.4-13.6z"/><path fill="#afb0b3" d="M89 240h37v16H89z"/><path fill="#69665e" d="M79 76h25v3H79z"/><circle r="1" fill="#afb5b9" transform="matrix(-3.87033 2.25259 -3.81128 -6.54844 169 31.2)"/><ellipse cx="124" cy="128" fill="#696254" rx="8" ry="2"/><path fill="#aaafaf" d="M143.7 150.2l2.4 47.5-24-38.9 16.5-40.7z"/><path fill="#9c9e99" d="M82 173h88v15H82z"/><path fill="#b3b9bd" d="M122 85.3l-29.2 25.1L140 86.7l-14.4-1.8z"/><path fill="#c1c5ca" d="M21.6 215.3l16-16.4 25.8 27.7-7.2-16z"/><path fill="#a0a19e" d="M4.4 94.4l108.9-22 3.6-27-46.8 52.7z"/><ellipse cx="73" cy="42" fill="#8b8c8d" rx="43" ry="15"/><path fill="#534d4e" d="M9.3 215.4l-2.7 1.4 7.4.6.2-4.6z"/><path fill="#404551" d="M139 43h9v4h-9z"/><circle r="1" fill="#a7adaf" transform="matrix(-.4255 2.60002 -29.52506 -4.83195 95.7 231)"/><circle cx="60" cy="134" r="2" fill="#611101"/><path fill="#aeb4b7" d="M139.3 212.3l.4 34.8 23.9-62 21.4 28.4z"/><path fill="#865e45" d="M87 130l10 1-4 2z"/><path fill="#babdbf" d="M49.8 186.1l-34.4 34.3-1.9-15.7 61.7 12.2z"/><circle r="1" fill="#a4a69e" transform="matrix(-8.64462 -2.26787 5.98115 -22.79877 109 129.3)"/><circle r="1" fill="#888688" transform="matrix(-11.08236 7.39272 -.69509 -1.042 27.5 237.8)"/><ellipse cx="118" cy="65" fill="#505e64" rx="3" ry="4"/><path fill="#bfc2c1" d="M65.7 168l-16.1-11.1 7.4 23.8 23.5-11.9z"/><path fill="#7c7b75" d="M132.5 31.3l7.4-47.1-20.6 65.1 24.5-9.7z"/><path fill="#717471" d="M149 80h21v2h-21z"/><path fill="#857c74" d="M123.9 240.2l-44.6-7.9L84 236l1 .2z"/><path fill="#b0b2ac" d="M112.5 163.5l-35.6-11.2 35.2 62.9-26.6-35.6z"/><path fill="#979691" d="M90.3 222l2.6 14.7-5.9-27.2 18.4 5z"/><ellipse cy="89" fill="#949593" rx="38" ry="12"/><path fill="#acaea9" d="M35 139l26-8-12-10z"/><path fill="#7f5a47" d="M53 151l-6 3.5-2-3.5 6-3.5z"/><path fill="#979595" d="M71.8 243.7l78.8 10.5 25 16.8-22.4-22.9z"/><path fill="#94876f" d="M67.3 160.8l14.9-49.1h1.5l-11.8 55.7z"/><circle cx="63" cy="220" r="2" fill="#393132"/><path fill="#a1a39e" d="M139 106l38 24-90-16z"/><path fill="#c9cfd7" d="M44.2 245.4l20.6 21.1-41.5-21.1-2 10.6z"/><path fill="#828280" d="M126 140h32v4h-32z"/><path fill="#7c7677" d="M0 185h22v2H0z"/><path fill="#a9b3bc" d="M124 244h46v4h-46z"/><path fill="#989b9d" d="M184.8 14.4l-24.5 11.4-35.9 6.6 60.6.5z"/><path fill="#a3a6ac" d="M123 21l2 14-16-4z"/><circle r="1" fill="#989a97" transform="matrix(-12.20241 -18.1591 10.70958 -7.19654 138.5 74.8)"/><path fill="#999ca2" d="M26 67l18-30L6 70z"/><path fill="#7e5343" d="M144 125l-3 2h10z"/><path fill="#72726d" d="M3.6 76.6l12.3-27.2 44.5-31.1L-16 55.6z"/><path fill="#a6a194" d="M47.2 116.2l43 17.1-.4-23-22.1 4.1z"/><path fill="#a09f99" d="M35 179h85v6H35z"/><path fill="#bbc1c5" d="M122.8 251.4l-13-4.3L91.6 271h49.2z"/><path fill="#aeb2b3" d="M139 186.5l-8.2-49 22.2 52.9 11.2 6z"/><path fill="#bfc6cc" d="M118 233h28v4h-28z"/><path fill="#b3b7bb" d="M161.6 101l-1.1-12.9 24.5 31.6-59.3-16.6z"/><path fill="#7f7e7a" d="M178.6 241.1l-.9-3.5-51.2 4.9 51-.4z"/><path fill="#adb4b3" d="M156 142.4l24.1 14.5-21.1-6.2-22.9 2.9z"/><path fill="#8e928d" d="M181.6 168.9l-29.1 4.9 32.5 17.7-19.1-24.3z"/><circle r="1" fill="#838282" transform="matrix(-21.71965 -.34497 .0815 -5.13073 103.8 21.5)"/><path fill="#999d9a" d="M101 215h30v12h-30z"/><path fill="#afb3b3" d="M-11 145.9l42.1-23.4 9.5 5 10-38.7z"/><ellipse cx="128" cy="154" fill="#989690" rx="40" ry="2"/></g></g></svg>