<svg xmlns="http://www.w3.org/2000/svg" viewBox="0 0 1400 933"><defs/><filter id="a"><feGaussianBlur stdDeviation="12"/></filter><rect width="100%" height="100%" fill="#604d31"/><g filter="url(#a)"><g fill-opacity=".5" transform="translate(2.7 2.7) scale(5.46875)"><ellipse cx="120" cy="75" fill="#b0c0cd" rx="129" ry="95"/><ellipse cx="129" cy="33" fill="#fdffff" rx="42" ry="52"/><circle r="1" fill="#000a1b" transform="matrix(10.98877 15.69359 -52.13548 36.50566 78.7 156.6)"/><circle r="1" fill="#fdffff" transform="matrix(-3.51588 14.20044 -23.46598 -5.80992 135 157)"/><circle r="1" fill="#1f2c37" transform="matrix(8.02992 -12.086 96.697 64.24533 180 144.4)"/><ellipse cx="238" cy="133" fill="#ffffed" rx="10" ry="15"/><ellipse cx="68" cy="81" fill="#2f250c" rx="6" ry="166"/><path fill="#fff" d="M116 50h34v43h-34z"/><circle r="1" fill="#081017" transform="matrix(-11.38637 12.51452 -7.71146 -7.0163 158.6 88.7)"/><ellipse cx="24" cy="169" fill="#000411" rx="84" ry="18"/><circle r="1" fill="#7e684d" transform="rotate(160.2 110.4 44.5) scale(40.8602 80.48911)"/><ellipse cx="24" cy="15" fill="#856b45" rx="52" ry="53"/><path fill="#b6bcbf" d="M87.7 108.3l-4.8 1.6 101.2-16.5-87 33.1z"/><path d="M100 74h15v21h-15z"/><path fill="#988f8f" d="M0 102h63v50H0z"/><path fill="#fff" d="M157 104h15v16h-15z"/><circle r="1" fill="#000309" transform="rotate(-11.2 980 -1106.9) scale(65.79927 20.31134)"/><path fill="#3d372a" d="M187 16h9v151h-9z"/><circle r="1" fill="#d4f4ff" transform="rotate(171 62.5 88) scale(20.58458 23.88292)"/><path fill="#0f1817" d="M181 139h-70l51-18z"/><path d="M116 97.2l-3 35.9-3-.3 3-35.9z"/><path fill="#878387" d="M198 39h34v112h-34z"/><path fill="#435d8a" d="M153 144h33v26h-33z"/><ellipse cx="154" cy="92" rx="3" ry="23"/><circle r="1" fill="#aeb4a9" transform="matrix(8.95864 68.04759 -10.58579 1.39365 174.1 44.5)"/><path fill="#fff" d="M93.7 124.2l14.7-9.4.3-11.1-17 8.5z"/><ellipse cx="86" cy="41" fill="#aab1a3" rx="11" ry="49"/><circle r="1" fill="#6b5631" transform="rotate(169.3 125.4 34.3) scale(29.01001 62.07396)"/><path fill="#f4ffff" d="M131 123h7v10h-7z"/><path d="M107 85h47v2h-47zm-15-9h4v34h-4z"/><circle r="1" fill="#4e5c6b" transform="matrix(-17.94525 -41.07506 16.1061 -7.03658 98.2 158.6)"/><ellipse cx="134" cy="98" fill="#000300" rx="14" ry="3"/><path fill="#babec0" d="M130 101h21v13h-21z"/><path fill="#fff" d="M118.4 52.6l26.5-7.8L155.3 71l-37 2.9z"/><path fill="#ffecc1" d="M243.7 121.6l-.4 23-11-.2.4-23z"/><path fill="#2c2e33" d="M151 72h20v23h-20z"/><path fill="#d1dfe1" d="M96 88h5v15h-5z"/><path d="M125 95h2v47h-2z"/><ellipse cx="207" cy="65" fill="#877f75" rx="17" ry="85"/><path fill="#fff" d="M124 148h23v18h-23z"/><path fill="#c09f7b" d="M227 98h25v13h-25z"/><path fill="#bbc6c4" d="M184.9 50.9l-3.3 19.8-31.7 2.7-2.8-29z"/><path fill="#8d8c89" d="M177 90h12v56h-12z"/><path fill="#504e40" d="M154.5 120.3l-29 4.8L155.3 98l-22.8 1z"/><path fill="#000700" d="M121 85l-2 11 4 4z"/><path fill="#080f14" d="M188 149h27v20h-27z"/><circle r="1" fill="#7f7053" transform="matrix(-15.80005 -34.09388 50.38742 -23.35093 14.2 4.4)"/><path fill="#f6fff6" d="M116 88h3v22h-3z"/><path fill="#90847b" d="M2.6 150.7l-11-112.1 67.6 41.9 9.5 71z"/><path fill="#fff" d="M166 118l8-11-16-3z"/><circle r="1" fill="#08100b" transform="matrix(.99978 -.02094 1.03135 49.23607 183.3 87.1)"/><path fill="#ced9e5" d="M94 15h74v17H94z"/><path fill="#1f2417" d="M70 0h2v136h-2z"/><path fill="#a4aead" d="M151 32l-56 2-23 39z"/><ellipse cx="128" cy="3" fill="#a7b3b9" rx="40" ry="14"/><path fill="#1d221c" d="M110 93h6v46h-6z"/><path fill="#fff" d="M100 106h10v8h-10z"/><path fill="#767761" d="M121.9 131.3l2.8-5.2-.9-13.5-17.5 8.2z"/><circle r="1" fill="#7e623e" transform="matrix(3.09075 1.0982 -11.51233 32.40028 239.7 158)"/><path fill="#161a14" d="M5.7 185l77.4-33.2-46.1.1-41.2-1.3z"/><path fill="#181e21" d="M91 74h22v5H91z"/><path fill="#767576" d="M196 100h35v50h-35z"/><path fill="#94afe3" d="M106.2 185l57-30.9-25.9 30.9-21.6-38.1z"/><path fill="#ccf4bc" d="M111.9 87.1L125.8 70l12.3 1.8 20.3 11.5z"/><ellipse cx="205" cy="68" fill="#9e9a9b" rx="7" ry="26"/><path fill="#fff" d="M131 103l4-3-2 12z"/><circle r="1" fill="#7a6c4f" transform="matrix(-27.91569 -7.35795 4.99128 -18.93666 210.2 11.5)"/><path fill="#fff" d="M123 87h12v7h-12z"/><path fill="#a1abb4" d="M172 95l7 16-24-15z"/><path fill="#3a3f44" d="M172 127.7l.5 4.6 1.3 52.7-21.7-72.5z"/><path d="M246 148h10v22h-10z"/><path fill="#282f30" d="M109.7 122.1l8.8 12.2-24.2 17.6-8.8-12.2z"/><path fill="#8f8977" d="M73 0h17v48H73z"/><path fill="#040804" d="M152 86h4v44h-4z"/><ellipse cx="186" cy="12" fill="#3e3b1b" rx="2" ry="30"/><path fill="#b4bcc0" d="M89 0h24v74H89z"/><path d="M143.9 93l1 .1L142 119l-1-.1z"/><path fill="#080f00" d="M145 87h3v13h-3z"/><path fill="#5e7aa4" d="M119.9 140.6l36.3-.5-46.6 5.7-3.1 39.2z"/><path fill="#262826" d="M124 101h6v14h-6z"/><ellipse cx="63" cy="56" fill="#6a624d" rx="3" ry="65"/><path fill="#fbfff6" d="M116 48h13v37h-13z"/><path fill="#9aa09a" d="M137 50h-10l4-33z"/><ellipse cx="138" cy="103" fill="#282d2f" rx="2" ry="11"/><ellipse cx="98" cy="87" fill="#cad7d8" rx="1" ry="14"/><path fill="#a7b3ac" d="M118 93h34v2h-34z"/><path fill="#837d6c" d="M85.2 127.6l-.4 19-10-.2.4-19z"/><path fill="#fffff9" d="M122.5 91.5h1v19h-1z"/><ellipse cx="72" cy="94" fill="#00020a" rx="1" ry="25"/><path fill="#8ca3cd" d="M160.2 148.5l-14.8-5.7 26.9 42.2-24.8-13z"/><path d="M112 86h25v1h-25z"/><path fill="#3c4651" d="M92 123h14v47H92z"/><path fill="#bdc3c6" d="M130.6 118l-.4-17.8 21 12.8-7-16.3z"/><path d="M113.3 95.2l29.6 4.7-.2 1-29.6-4.8z"/><path fill="#949194" d="M26 114l39 37-5-62z"/><path fill="#727462" d="M142.8 115l20.7 4.1-23.6 6.1 16.5 5.9z"/><path fill="#645847" d="M199.9 103.6l-4-33.4-3.7 60.3 3.7 22.2z"/><path fill="#a6b0ae" d="M130 93h6v4h-6z"/><path fill="#9b9f8b" d="M72.8 79.9l9.1-84.8L92.2 91l-1.1 5.3z"/></g></g></svg>