<svg xmlns="http://www.w3.org/2000/svg" viewBox="0 0 1400 933"><defs/><filter id="a"><feGaussianBlur stdDeviation="12"/></filter><rect width="100%" height="100%" fill="#4d3f38"/><g filter="url(#a)"><g fill-opacity=".5" transform="translate(2.7 2.7) scale(5.46875)"><circle r="1" fill="#dafbff" transform="rotate(-41.1 174.9 -288) scale(64.0328 42.22559)"/><circle r="1" fill="#d0e2dd" transform="matrix(204.71846 -152.03734 29.8372 40.17583 3.6 50.4)"/><ellipse cx="38" cy="165" fill="#d1b492" rx="193" ry="13"/><path fill="#9f947e" d="M117 50L-16 94l140 37z"/><circle r="1" fill="#fff" transform="rotate(-160.5 24.4 11.1) scale(24.10322 11.21054)"/><ellipse cx="253" cy="81" fill="#fff" rx="7" ry="23"/><ellipse cx="239" cy="152" fill="#00060b" rx="18" ry="70"/><path fill="#7b7a75" d="M170 0h45v134h-45z"/><ellipse cx="100" cy="42" rx="19" ry="10"/><circle r="1" transform="matrix(-15.59662 2.21998 -4.05024 -28.45524 147 103.7)"/><circle r="1" fill="#c8dcf4" transform="rotate(159.4 109.1 51.8) scale(22.75739 21.47144)"/><circle r="1" fill="#929e9b" transform="matrix(-81.70086 3.85291 -.73913 -15.67328 144 1.4)"/><ellipse cx="130" cy="146" fill="#00090f" rx="255" ry="7"/><path fill="#0a070a" d="M104 155L66 84l29 19z"/><ellipse cx="37" cy="13" fill="#000001" rx="32" ry="3"/><ellipse cx="20" cy="8" rx="2" ry="73"/><circle r="1" fill="#1a1c19" transform="matrix(-39.64105 17.4012 -7.76632 -17.69218 28.4 129.4)"/><path fill="#d5bd88" d="M91 84l38 35-25 15z"/><ellipse cx="205" cy="5" rx="2" ry="87"/><circle r="1" fill="#452e00" transform="rotate(-33.6 139.3 -239.2) scale(34.23691 19.12495)"/><path fill="#a4b2c2" d="M208 14l1 116 54-114z"/><path fill="#e1ca9f" d="M23 53h36v30H23z"/><path d="M17 49h52v4H17z"/><path fill="#3b2b08" d="M89 81l58-19 43 32z"/><path fill="#98a098" d="M68 51.5l29 1-1 28-29-1z"/><path fill="#fff" d="M22 30.4l1.3-10.9 32.7 4-1.3 11z"/><ellipse cx="66" cy="68" fill="#403c3b" rx="3" ry="73"/><ellipse cx="194" cy="70" fill="#e9e8be" rx="9" ry="16"/><path fill="#ca8faf" d="M166 97h25v14h-25z"/><ellipse cx="231" cy="121" fill="#85889f" rx="5" ry="15"/><path fill="#d7fdff" d="M248 77h8v26h-8z"/><path fill="#9399a9" d="M-16 25l71.1 95.4-18.9-13L4 110.9z"/><path fill="#776351" d="M129 154h98v16h-98z"/><path fill="#290d18" d="M188 101l-8 50 28-51z"/><circle r="1" fill="#bdaa96" transform="rotate(88.3 -86 83.5) scale(12.7663 63.84745)"/><path fill="#ffe7ab" d="M43.8 31.4l14 1.2-1.6 18-14-1.2z"/><path fill="#919286" d="M77.2 50.2L71.3 3.9l52.8 41.9-5.8-34.1z"/><ellipse cx="216" cy="92" fill="#60626d" rx="19" ry="10"/><ellipse cx="19" cy="34" fill="#000914" rx="2" ry="54"/><ellipse cx="136" cy="49" fill="#674819" rx="20" ry="33"/><path fill="#75694b" d="M115.5 61.3l22.2 66.1-29.6 5.1 15.8-72.4z"/><path d="M78.1 48.4l45.9 3.9-19.3-23.1-9 5.6z"/><circle cx="102" cy="94" r="10" fill="#d3c2a0"/><path fill="#0a1011" d="M129.9 130.2l77.4 19.8 48.6 29.1 3.2-40.9z"/><path fill="#121006" d="M31 50l13-1-12-13z"/><path fill="#3b351e" d="M59 37h5v36h-5z"/><ellipse cx="10" cy="14" fill="#606e77" rx="8" ry="40"/><path fill="#4f392e" d="M73.9 80.2l18 2.1-55.6 58.4 12.6-49.8z"/><path fill="#091422" d="M151 85h40v9h-40z"/><ellipse cx="184" cy="53" rx="21" ry="1"/><path fill="#111619" d="M-14 102l38 46 18-30z"/><path d="M159 16h48v2h-48z"/><path fill="#030c0c" d="M122 87h45l-14 57z"/><path fill="#c2d4e8" d="M206 67h50v15h-50z"/><path fill="#f9c4e8" d="M167 95h28v4h-28z"/><circle cx="75" cy="114" r="8" fill="#b89491"/><ellipse cx="97" cy="83" rx="25" ry="2"/><path fill="#979a99" d="M159.5-16h-25.2L94.5 9.4l63 8.7z"/><path fill="#282413" d="M179.3 28.5l6.5 26.8-32-32.7 29.7-8.9z"/><circle r="1" fill="#323436" transform="rotate(176.3 37.4 72.5) scale(109.92393 9.47799)"/><path fill="#403f48" d="M33 106L16 94l-3-15z"/><path fill="#806f5e" d="M208 152l62 33-133-28z"/><path fill="#fff" d="M53.2 32l-32 1-.4-11 32-1z"/><path fill="#a6bac7" d="M1 10l-17 93 29-4z"/><path fill="#f2e4ce" d="M24 41h21v4H24z"/><path fill="#4c4c29" d="M191 31l6-17v33z"/><path fill="#837877" d="M33 79h39v12H33z"/><path fill="#544c34" d="M63 60h40v6H63z"/><path fill="#000a0b" d="M162.5-3.4l-3 85-2-.2 3-85z"/><path fill="#ccbfd8" d="M160.6 120l.2-1 30.6 5-.2 1z"/><circle cx="106" cy="125" r="6" fill="#ddd6c2"/><path d="M59.4 14.1l-.1 1L16.6 10l.1-1z"/><path fill="#161615" d="M84.3 143.8l-1.6-41.9-21.9-12.2 37.8 28z"/><path fill="#b2b3b5" d="M181.3 120.5l20.9-80.8 1 31-23.4 54.7z"/><circle r="1" fill="#5b2730" transform="matrix(-25.18595 2.41417 -.30103 -3.14053 174.7 103.4)"/><path fill="#75808c" d="M194.6 135.9l17.2-47.3 20.1 3.5-22.5 36.5z"/><path d="M216 131l11 3-2-28z"/><ellipse cx="174" cy="67" fill="#7b886d" rx="8" ry="14"/><path fill="#171506" d="M234 83h12v22h-12z"/><path fill="#8e661c" d="M101 99l3 17 25-5z"/><path fill="#cff1ff" d="M165 108h24v2h-24z"/><path fill="#777a66" d="M244 41h9v15h-9z"/><path fill="#716959" d="M80 57L67 32h21z"/><path fill="#0e0d05" d="M97.6 133.4l-58.5-5.7-5-23.6-12.3 30.7z"/><path fill="#b1c0c0" d="M62 18h4v27h-4z"/><ellipse cx="205" cy="40" rx="1" ry="41"/><ellipse cx="67" cy="15" rx="1" ry="63"/><path fill="#a8b3b9" d="M71 72h23v9H71z"/><path fill="#a89d94" d="M57 76l-8 6 18 21z"/><path fill="#b3a59e" d="M39 107L9 77l29 10z"/><path fill="#050c0b" d="M242 135.5l-4.4-21.5 27.7-9.4 5.7 41.6z"/><path fill="#a0a5ac" d="M69-16l-2 49 25-2z"/><path fill="#5a412c" d="M80.7 127.6L39.8 76.5l17 53.1-28.2-23.4z"/><path fill="#cfdff2" d="M15 39h2v42h-2z"/><path fill="#aec2c4" d="M172 48h4v14h-4z"/><circle r="1" fill="#654d3f" transform="matrix(-17.47443 -10.86759 3.77357 -6.06767 175.9 165.8)"/><path fill="#dbc088" d="M22 38l1.2-8 28.7 4-1.1 8z"/><circle r="1" fill="#3e4634" transform="matrix(1.3082 -17.61424 1.59488 .11845 181 66.4)"/><path fill="#da9bb8" d="M168 92h6v5h-6z"/><path fill="#c0b291" d="M21 52h22v25H21z"/></g></g></svg>