<svg xmlns="http://www.w3.org/2000/svg" viewBox="0 0 93 140"><defs/><filter id="a"><feGaussianBlur stdDeviation="12"/></filter><rect width="100%" height="100%" fill="#51382b"/><g filter="url(#a)"><g fill-opacity=".5" transform="translate(.5 .5)"><circle r="1" fill="#fff" transform="matrix(85.94766 32.81767 -32.62781 85.45043 48.6 61.9)"/><circle r="1" fill="#ffefd3" transform="matrix(45.02319 80.23037 -31.07319 17.43746 59.6 21.2)"/><path d="M32 95h35v13H32z"/><circle r="1" fill="#e6000a" transform="matrix(-22.6034 14.78961 -9.94826 -15.20422 7.3 43.4)"/><path fill="#fffff1" d="M0 67h36v32H0z"/><ellipse cx="56" cy="130" fill="#0b0000" rx="77" ry="4"/><path fill="#edefec" d="M-1.5 1.3L.2 24.4l64.5-8.9L5-16z"/><circle r="1" fill="#543215" transform="matrix(-.27786 -3.98578 91.77726 -6.39799 44.1 103.2)"/><ellipse cx="79" cy="72" fill="#ffe5c6" rx="43" ry="23"/><path fill="#1a0800" d="M37 86h16v19H37z"/><path fill="#714835" d="M52 111l-55 26 23-27z"/><path fill="#ffcb93" d="M70.7 127.8L108 107l-.5-2.5-51.1 1.5z"/><circle r="1" fill="#c18b90" transform="matrix(11.14585 -8.7081 18.30919 23.4347 43.8 44.1)"/><path fill="#6f3917" d="M1.5 105l9.6 7.2L-1.5 129l-9.6-7.2z"/><ellipse cx="43" cy="113" fill="#4f1600" rx="25" ry="2"/><path fill="#ffffe2" d="M69 58h15v40H69z"/><path fill="#fff9da" d="M0 78h30v18H0z"/><path fill="#d8b49b" d="M4.4 113.6l45.2 2.5-26.8 9.7-4.1-23.2z"/><path d="M69 102.2l-28.6 4.5-1.4-8.9 28.6-4.5z"/><path fill="#592c10" d="M81.5 109.6l9.6 22.7-92-2.8 100.3-2.3z"/><path fill="#ff384d" d="M26.6 58.6L8.2 27.8-6.5 57.1l25.2 6.3z"/><path fill="#8d3042" d="M30.3 44.5l-13 1-1.6-22 13-1z"/><circle cx="47" cy="64" r="23" fill="#d4bbaf"/><path fill="#f1caa5" d="M24.4 112.1L-16 134.9l4.4 19.9L18.6 105z"/><path fill="#fffed4" d="M13 109h80v2H13z"/><path fill="#3a1807" d="M22.6 113L9 134l-1.6-1L21 112z"/><path fill="#eec8aa" d="M0 91h50v3H0z"/><path fill="#c8b692" d="M108 14.8l-29.2-4.1 4 49.7 18.3 17.2z"/><path fill="#bd9795" d="M22.8 37.5l.8 41L-16 61.8l84.4 3.4z"/><path fill="#9e7a5d" d="M3.3 119.8l29.2-21.9L6 99.8l-15.4-3.5z"/><ellipse cx="14" cy="10" fill="#d9d5ce" rx="67" ry="12"/><path fill="#180000" d="M44.6 121l12.6-3 .2 1-12.6 3z"/><path fill="#efcabb" d="M59 122.3v-9l26 .4v9z"/><path fill="#5e2307" d="M30 107h21v2H30z"/><path fill="#8d562f" d="M2 46l-11.2-4.2L-2 22.1l11.2 4z"/><path fill="#b7baa3" d="M23 21h2v54h-2z"/><path fill="#f2dfc2" d="M54 35h27v23H54z"/><path fill="#a85c2f" d="M58 111h24v3H58z"/><path fill="#402718" d="M4 128h62v5H4z"/><path fill="#dc7e96" d="M39.2 47.1L26.3 19.2l10.3 5.4-14.7 41.1z"/><circle r="1" fill="#ffe3be" transform="matrix(-7.64739 5.88928 -.9996 -1.298 12.6 116.3)"/><path fill="#fddbb7" d="M87 106.7l21 45.7-8.3-42.3-77.9 2z"/><path d="M67 87h2v2h-2z"/><path fill="#fff5de" d="M67.5 76.4l-14.1 1.9 28.4 14.8-.3-51.5z"/><path fill="#ffe3d0" d="M-5.8 80.3l16.6 18.8 31.4-15.5-3.5-6.9z"/><path fill="#592c11" d="M47 84.5l.3 1-12.3 4-.3-1z"/><ellipse cx="76" cy="106" fill="#d78b55" rx="24" ry="2"/><path fill="#5a3b2c" d="M18.1 120.5l-1-6.3-11.6 14.6.2 3.2z"/><path fill="#bbaea8" d="M24 116l-11 10 11-1z"/><path fill="#f4cfa9" d="M108 64.2v10.4L64.6 93.9l13.3 7.8z"/><path fill="#cdc4bb" d="M61.4 79.3l-6.2-13.4-37.1-1.6 24.6 22.5z"/><path fill="#a29587" d="M0 133h34v7H0z"/><path fill="#951a25" d="M13 22h9v13h-9z"/><path fill="#f0ceb6" d="M77 111l2 14 10-1z"/><path fill="#9a5f31" d="M61 89.2l2.9 4.1-5 3.5-2.8-4.1z"/><path fill="#431802" d="M-16 126l23-9-23 22z"/><path fill="#c3b5a3" d="M42 134h45v6H42z"/><path fill="#f2394c" d="M14.5 33.7l8.6 10.9-7.9 19.1-26.8-5.4z"/><path fill="#aa153c" d="M26 48l4-12-4-11z"/><path fill="#9a8f74" d="M79 13h14v5H79z"/><path fill="#a3623a" d="M105.8 150.8l-26.3-41.3 8.1 5 20.4 18.2z"/><path fill="#9e8060" d="M98.3 105.9L67 103.2l13.6-5.9 14.9-2.2z"/><path fill="#e1dfd7" d="M18-16l-34 39 32-2z"/><path fill="#732928" d="M21 30h2v27h-2z"/><path fill="#c4a68a" d="M24.9 89.9l4.8-2.8 14.5 4.1-14.7 7.1z"/><path fill="#fffdd7" d="M108 132.8v-6.9l-21.8-18.7-3.6 1.1z"/><ellipse cx="12" cy="106" fill="#a78269" rx="24" ry="3"/><path fill="#fff6e4" d="M9.1 91.5L-16 78.6l39 .9-1.6 7.1z"/><path fill="#baa085" d="M45 24h5v34h-5z"/><path fill="#0c0805" d="M35 99h34v5H35z"/><ellipse cx="10" cy="62" fill="#4d7560" rx="10" ry="1"/><path fill="#b9babc" d="M-25.7 79.9l-.6-11 52-2.8.6 11z"/><path fill="#f2d4b7" d="M0 88h34v11H0z"/><circle r="1" fill="#ad9e8a" transform="matrix(-24.3582 -1.00134 .27626 -6.7202 92.8 139.7)"/><circle r="1" fill="#d2cbbe" transform="matrix(3.08782 15.50392 -30.26016 6.02672 65.5 3)"/><path fill="#baa9a1" d="M-16 136.9l26.9-18.8-7.1 13.8-19.8-.5z"/><ellipse cx="74" cy="109" fill="#fffdd5" rx="14" ry="2"/><circle r="1" fill="#ff597f" transform="rotate(-108.3 28.9 21.2) scale(4.38682 3.99866)"/><path fill="#cec0a9" d="M50 30h13v41H50z"/><ellipse cx="47" cy="60" fill="#a7866c" rx="22" ry="1"/><path fill="#c7aba0" d="M23 115h42v4H23z"/><path fill="#5d4a40" d="M25.8 98.8l10-.6.4 7-10 .6z"/><path fill="#daa7ab" d="M35 20h10v40H35z"/><path fill="#200a00" d="M38 97l-3-4h6z"/><ellipse cx="87" cy="101" fill="#967b5e" rx="20" ry="4"/><path fill="#340900" d="M46.5 88.4l-.1 1-11-1.8.2-1z"/><path fill="#b19992" d="M25 121h53v6H25z"/><path fill="#964337" d="M17 25.7l-23.9 1.6-.2-3 24-1.6z"/><path fill="#fbdab4" d="M81.2 60.4l7-.6 2.6 29.8-7 .6z"/><circle r="1" fill="#f9dccb" transform="rotate(175.9 12.3 38) scale(1 17.5077)"/><path fill="#5f4333" d="M89.3 120.4l18.7 3.8-55.3 4.9 39.7 3.5z"/><path fill="#e6bd98" d="M65.8 95.5l-6.5-4.9-9.9-4 11.1-8z"/><path fill="#9b7f67" d="M11.5 113.5L-16 102.8l2.6-6.3 35.9 4.7z"/><path fill="#fff1d9" d="M76.6 47.3L65.5 87.9l-14.3-9.2 31.7 9.2z"/><path fill="#181511" d="M35 98h25v8H35z"/><path fill="#db955c" d="M91 109l-5-6 11 7z"/><path fill="#cb895f" d="M9 106h21v3H9z"/><ellipse cx="43" cy="107" fill="#7f4228" rx="21" ry="1"/><circle r="1" fill="#b64463" transform="rotate(-84.7 34.8 3.6) scale(15.51905 1.891)"/><path fill="#ea2c3a" d="M8 61l12-22-36 20z"/></g></g></svg>