<svg xmlns="http://www.w3.org/2000/svg" viewBox="0 0 1400 2100"><defs/><filter id="a"><feGaussianBlur stdDeviation="12"/></filter><rect width="100%" height="100%" fill="#503629"/><g filter="url(#a)"><g fill-opacity=".5" transform="translate(4.1 4.1) scale(8.20313)"><circle r="1" fill="#fffffc" transform="matrix(-30.88993 163.48035 -166.06156 -31.37766 90.3 115.2)"/><circle cx="146" cy="82" r="94" fill="#ffefce"/><circle r="1" transform="matrix(-42.10919 2.40308 -.84236 -14.76063 91.7 184.5)"/><circle r="1" fill="#e20012" transform="matrix(-41.06241 26.16283 -18.81388 -29.52828 17 81)"/><circle r="1" fill="#fffff1" transform="matrix(13.22978 23.47907 -37.51339 21.1377 33.6 149.7)"/><path fill="#060000" d="M173.5 244.5H8.5v-13h165z"/><circle r="1" fill="#fff" transform="matrix(-5.6332 -32.54642 69.07094 -11.95494 34.2 7.2)"/><circle r="1" fill="#ffffdb" transform="matrix(-6.58205 49.3302 -18.42695 -2.45868 138.3 132.9)"/><ellipse cx="75" cy="207" fill="#300" rx="43" ry="3"/><path fill="#1b0800" d="M67 158h30v36H67z"/><circle r="1" fill="#966a43" transform="matrix(-8.33676 -21.75466 39.48306 -15.1306 23.8 207.1)"/><ellipse cx="67" cy="83" fill="#bd858d" rx="27" ry="47"/><path fill="#ffce8d" d="M140 230l45-37-90-1z"/><path fill="#fff4d2" d="M0 143h65v37H0z"/><path d="M66 175h56v18H66z"/><path fill="#ffddb8" d="M57.6 199.1L28 213.3-16 259l44.8-62.5z"/><ellipse cx="89" cy="168" fill="#caa783" rx="42" ry="5"/><path fill="#210500" d="M9.2 238.7l24.3-28 5.3 4.6-24.3 28z"/><path fill="#843e0e" d="M146.3 201.9l4.6 1.5 13.9 7.6 20.2 55.1z"/><path fill="#ff3347" d="M2 68h36v44H2z"/><ellipse cx="154" cy="186" fill="#8e6835" rx="32" ry="8"/><circle cx="142" cy="149" r="30" fill="#ffeccb"/><path fill="#bebcb3" d="M0 115h105v28H0z"/><path fill="#952926" d="M-4 44l46-5-3 37z"/><circle r="1" fill="#48270d" transform="rotate(-90.5 167.1 70.1) scale(4.39605 108.7924)"/><ellipse cx="128" cy="201" fill="#ffeec7" rx="106" ry="3"/><ellipse cx="63" cy="17" fill="#d8d8cc" rx="82" ry="24"/><circle r="1" fill="#94562c" transform="matrix(.12693 2.95057 -46.68253 2.00823 116 206.3)"/><path fill="#5a361e" d="M-16 199v52l33-44z"/><path fill="#43210d" d="M84 218h27v4H84z"/><circle r="1" fill="#e3c6b6" transform="matrix(-1.75095 8.3061 -28.77135 -6.06507 132.2 220.4)"/><path fill="#c3b48b" d="M153 119l32-104-40 11z"/><path fill="#8f4a50" d="M40.1 104.7L56.7 75l-7-36.3-11.1 16.5z"/><circle cx="123" cy="160" r="3" fill="#210c04"/><path fill="#fffcd0" d="M149 189.4l31.1 23.8 2.6 6.8-16-3.8z"/><circle r="1" fill="#d7c5b7" transform="rotate(-113.8 91.2 38.3) scale(13.46048 38.12228)"/><path fill="#c1cbb1" d="M42 21h4v67h-4z"/><path fill="#bb9e8b" d="M30 108h98v13H30z"/><path fill="#84360f" d="M49 195h73v3H49z"/><circle r="1" fill="#fff0d6" transform="matrix(-10.74778 2.54647 -11.29542 -47.67408 137.8 116.5)"/><path fill="#916f4e" d="M14.2 216l-23.4-22 15-16 23.4 21.8z"/><path fill="#fff9e7" d="M0 144h48v18H0z"/><path fill="#ffffd9" d="M27 201l-12 17 26-19z"/><path fill="#6a3b20" d="M129.5 203.5v3h-91v-3z"/><path fill="#975b31" d="M2.4 42l16.8 6.5L5.6 84l-16.8-6.5z"/><circle r="1" fill="#ff4252" transform="matrix(-3.94578 -30.38084 8.1084 -1.0531 23.3 81.4)"/><path fill="#60432f" d="M33.1 207.8L8.6 236.5l-23.4 29.4L51 201.8z"/><ellipse cx="10" cy="250" fill="#aea691" rx="143" ry="7"/><path fill="#dbb189" d="M104.2 172.6l-24.5-25 6 15.8 28.7-17.4z"/><path fill="#f3d2ba" d="M46.9 92l.1 61.7-44.9 26.2 58.8 1.8z"/><path fill="#c2b3ad" d="M30 227l11-16 22-1z"/><path fill="#ffffe3" d="M162 196.1v5l-42 .8v-5z"/><path fill="#ae998a" d="M44 221h88v12H44z"/><path fill="#928b6c" d="M146 24h24v8h-24z"/><path fill="#0c0600" d="M65 180h61v10H65z"/><path fill="#fc5c7a" d="M21.2 110.8l13-32.3L37.3 91l5.5 22.4z"/><path fill="#d78b9d" d="M63 50l8 46-29 19z"/><path fill="#6f5a49" d="M51.2 180.4l-27.9 14.5 2.2-7.2 50.1 14.6z"/><path fill="#59320f" d="M60.8 159.5l18.3 6.5 17.1 2.4-22.4-12.5z"/><path fill="#bdb29f" d="M70 246l57 17 58-20z"/><ellipse cx="132" cy="194" fill="#d18f5a" rx="28" ry="4"/><circle r="1" fill="#8d7b66" transform="matrix(-66.68606 4.3714 -.09663 -1.47407 20.1 114.4)"/><path fill="#ffe0c3" d="M119 210.5l39.1 10.8-11.8-13.4-19.1 2z"/><path fill="#3c3323" d="M65 172h18v9H65z"/><path fill="#ecd5b9" d="M105 101.8l18.4-43.3L151 70.2l-18.4 43.3z"/><path fill="#f6d3aa" d="M125.9 180.2l-1.4-10 31.6-4.4 1.4 10z"/><path fill="#623f26" d="M176.9 236.2l-9.2 3.9-8.6-20.3 9.2-3.9z"/><circle r="1" fill="#ed2a36" transform="matrix(-8.30711 -8.90063 14.65696 -13.67958 13.2 97)"/><path fill="#958f86" d="M-16 265.8l34.6-41.7L-16 234l73.2 30.3z"/><path fill="#831b25" d="M27 41l12-1 3 42z"/><path fill="#b32649" d="M47 39h7v46h-7z"/><path fill="#866f50" d="M154 175h16v16h-16z"/><path fill="#ffebd0" d="M122.6 151.8l-1.5 14.2-23.2-25.6 71.7-.6z"/><path fill="#b5a289" d="M88 169.4l-47.9-10.7 51.3 16.9 6.6 2.9z"/><circle r="1" fill="#e1a064" transform="matrix(9.21079 8.2354 -2.84259 3.17926 169.1 199.8)"/><ellipse cx="94" cy="219" fill="#412312" rx="13" ry="2"/><path fill="#513523" d="M87.6 203.1l14.6 5.2-69.8.8 17.9-1.4z"/><ellipse cx="125" fill="#c4c5b9" rx="60" ry="18"/><circle r="1" fill="#c3ab93" transform="matrix(9.59091 -1.16063 3.87063 31.9852 90.2 75)"/><path fill="#6d5031" d="M98.6 175.4L92 178l-8.7-21.4L90 154z"/><path fill="#c1855a" d="M-6.1 224l28.8-23.3 24.4-4.1-23.9-2.7z"/><path fill="#fff4dd" d="M95 180.1l55.5-81.5-2.4 60.2-32.7-2.6z"/><path fill="#dbd9d0" d="M46.1 49.8l-1.3-2.7L55-16-4.4-9.6z"/><path fill="#ccbbad" d="M19.3 211.4l5.7 5.5-40.3 41.7-5.7-5.5z"/><path fill="#ceb299" d="M121 159l-21 5 36 13z"/><path fill="#f4d6ad" d="M151 112h19v63h-19z"/><path fill="#d89ea2" d="M66 88L50 36l36 2z"/><ellipse cx="44" cy="105" fill="#baab95" rx="3" ry="23"/><path fill="#3f2819" d="M14 233h70v8H14z"/><circle r="1" fill="#543826" transform="matrix(31.42175 -4.13675 .35617 2.70536 87.6 194.8)"/><path fill="#281806" d="M105.5 185.2l31.1-5.3-42.5 3.1 12.9-13.5z"/><path fill="#e0dcd0" d="M90 32L-16 44 4 19z"/><circle r="1" fill="#dcd1c9" transform="matrix(-1.27075 3.65287 -2.67564 -.93079 101 170.4)"/><circle r="1" fill="#cbc3b7" transform="matrix(-13.37759 -18.73945 12.82817 -9.15768 72.8 136.8)"/><circle r="1" fill="#403226" transform="rotate(170.8 -3.3 121.4) scale(14.84955 1.1264)"/><path fill="#5f4329" d="M149 231h21v13h-21z"/><path fill="#c2aea0" d="M104 209l6 20 42-1z"/><circle r="1" fill="#d3ba9f" transform="matrix(12.92093 3.97777 -1.78496 5.79806 54 174.5)"/><ellipse cx="15" cy="133" fill="#bfbcbd" rx="32" ry="9"/><path fill="#e5b381" d="M140.8 206.2l26.9-15.9-24 1.4 19.1 17.5z"/></g></g></svg>