<svg xmlns="http://www.w3.org/2000/svg" viewBox="0 0 1400 933"><defs/><filter id="a"><feGaussianBlur stdDeviation="12"/></filter><rect width="100%" height="100%" fill="#493a2e"/><g filter="url(#a)"><g fill-opacity=".5" transform="translate(2.7 2.7) scale(5.46875)"><circle cx="234" cy="98" r="100" fill="#f2ffff"/><circle r="1" fill="#e4efe5" transform="matrix(1.36005 -133.68433 35.371 .35985 34.1 84)"/><ellipse cx="212" cy="113" rx="40" ry="30"/><circle r="1" fill="#fff" transform="matrix(-25.80966 19.94797 -27.01042 -34.9474 215.1 43.8)"/><circle r="1" fill="#fff" transform="matrix(2.71686 24.39366 -99.12466 11.04007 175.7 169)"/><ellipse cx="23" cy="50" fill="#fbffed" rx="17" ry="47"/><ellipse cx="154" cy="39" fill="#5c5650" rx="21" ry="118"/><circle r="1" fill="#7f6666" transform="matrix(9.8138 -36.285 108.65806 29.38815 32.6 141)"/><path fill="#fff" d="M187-16l61 54-74 53z"/><circle r="1" fill="#070600" transform="matrix(-29.70893 -8.68583 15.38085 -52.60848 109.3 59.2)"/><path fill="#fff" d="M56 36h38v6H56z"/><circle r="1" fill="#1c1818" transform="matrix(34.1184 -10.04222 3.75223 12.74817 184.2 126.6)"/><circle r="1" fill="#838783" transform="matrix(-10.77182 41.13794 -21.09719 -5.52422 164 21.2)"/><path fill="#1e1a12" d="M199.8 119.2l11.2-45-12.1-8.1-14.8 64z"/><circle r="1" fill="#f2f5f6" transform="rotate(-172.7 115.1 72) scale(96.95221 10.62135)"/><path d="M248 90l-35 4 37 39z"/><circle r="1" fill="#cbb0b6" transform="rotate(86 24.3 139) scale(11.26168 25.40858)"/><path fill="#020000" d="M47 37l91-12L82 8z"/><path fill="#fff" d="M179 55l71 35-18-83z"/><path fill="#701a1f" d="M49 116l-32 14-33-56z"/><path fill="#cfdfc8" d="M26 68h30v38H26z"/><circle r="1" fill="#8c8a78" transform="matrix(10.61346 20.24181 -31.13555 16.32542 71 148.3)"/><ellipse cx="127" cy="117" fill="#5b5759" rx="23" ry="31"/><path fill="#707871" d="M60.2 24.6L45.6 52.2 22.1-16l99.7 3.2z"/><ellipse cx="3" cy="50" fill="#232a2c" rx="3" ry="58"/><path fill="#170e00" d="M110 7h32v80h-32z"/><path fill="#fffffc" d="M178 57h16v33h-16z"/><ellipse cx="255" fill="#707a78" rx="213" ry="9"/><path fill="#ffffd9" d="M50 37h42v6H50z"/><path fill="#84868d" d="M233 138l4-32-33-4z"/><path fill="#040000" d="M75 96h28v27H75z"/><path fill="#caf5bc" d="M6 2h28v90H6z"/><ellipse cx="227" cy="91" fill="#1b1a10" rx="13" ry="10"/><ellipse cx="69" cy="98" fill="#636158" rx="7" ry="57"/><path fill="#b6a290" d="M121 141h49v29h-49z"/><path fill="#454748" d="M122 123h102v19H122z"/><path fill="#9fa59b" d="M270.6 118.1l-20.9 2.2L239.4 22l20.9-2.2z"/><path fill="#0e1718" d="M28 117l17 19-3-31z"/><path fill="#f2fcff" d="M176 143h72v27h-72z"/><path fill="#5e574c" d="M166 120l4-97-35 34z"/><circle r="1" fill="#422a2f" transform="rotate(55.4 -136.3 78.3) scale(6.42013 24.30293)"/><path fill="#2f3021" d="M101 153.9l-44-.4 65.7 8.5-17.7-53.1z"/><path fill="#e3eee3" d="M161.4 120l-7.8 2-7-26 7.8-2z"/><path fill="#231708" d="M100.9 41.1l36.3-34.5H83.7L55.1 30.9z"/><path fill="#afa890" d="M196.2 79.6l23.2-4.5-10.2 15L253 92z"/><path fill="#e6bdbb" d="M-16 133.8l16.7 1.8 45.4-62.4-21.6 43.6z"/><path d="M183 120l3.9-14.5L211 112l-3.9 14.5z"/><path fill="#d0b4c9" d="M175.7 116.7l9.9-21.7-27.2-.1 16.9 21.3z"/><path fill="#c7d0e7" d="M219 104l-15-4-7 6z"/><circle r="1" fill="#c6b7c5" transform="matrix(-7.19845 -8.8793 3.09757 -2.5112 138.7 103.2)"/><path fill="#000100" d="M236 92h12v41h-12z"/><path fill="#b61f26" d="M24.3 98.7l10.1 27.7-31.2-6.2L20.5 134z"/><circle r="1" fill="#202128" transform="rotate(177.4 86.4 48.3) scale(26.31693 1.47646)"/><circle r="1" fill="#fff" transform="matrix(8.86162 5.40916 -9.9984 16.38 193.6 26)"/><path fill="#252623" d="M137.6 113.5l15.7 28.4-20.4-1.6 2.9-33.8z"/><path fill="#baa78a" d="M53 125h51v9H53z"/><path fill="#f8ffff" d="M213.1.6l24.8 14.2 10.7 77.1-26.5-16.8z"/><path fill="#fff" d="M39 133l-15-3 10-5z"/><path fill="#dbc1d0" d="M-14.7 126l2.2-6.7 31.2 10.8-2.2 6.6z"/><path fill="#70716c" d="M81.9-16l-68 14.7 21.9 15.2 35.8 6.3z"/><path fill="#a28c8b" d="M105 101l31 2 27 21z"/><ellipse cx="52" cy="82" fill="#a6aab1" rx="6" ry="63"/><ellipse cx="249" cy="26" fill="#737166" rx="3" ry="44"/><path fill="#7d8287" d="M20 142l-36 30 133-8z"/><path fill="#aebbb6" d="M202 69.1l1.6-40.6-4.3 6.6-.5 36.1z"/><path fill="#1e1a10" d="M73.6 117l-1.2 36h-4l1.2-36z"/><circle cx="203" cy="74" r="5" fill="#000007"/><path fill="#7d7d78" d="M56 42h19v54H56z"/><path fill="#f5fde8" d="M26 103l13 1-1-36z"/><path fill="#96918c" d="M39 58h12v49H39z"/><ellipse cx="137" cy="74" fill="#220e00" rx="4" ry="20"/><ellipse cx="189" cy="133" fill="#595858" rx="52" ry="9"/><ellipse cx="14" cy="112" fill="#b5858c" rx="11" ry="10"/><ellipse cx="105" cy="136" fill="#040a0a" rx="48" ry="1"/><path fill="#c6ccc7" d="M255.1 147.1l-13.2-94 1-.2 13.2 94z"/><path fill="#b4d891" d="M22 58h11v42H22z"/><ellipse cx="214" cy="60" fill="#c7d6cf" rx="3" ry="32"/><path fill="#4c331a" d="M175 128l-18-31 7 29z"/><path fill="#c6c8cd" d="M204 178l-93 7 67-43z"/><path fill="#000200" d="M239.6 109.1l-3.9-12.6-23.3-6.6.4 12.1z"/><path fill="#59493f" d="M-1.4 81.9l23.3 13.5-8.5 14.7-23.3-13.5z"/><path fill="#abb5ba" d="M234.4 130.1l-.5 10.2 37.1-16.7-17.7 22.9z"/><path fill="#f1edf0" d="M6 85.5L15.3 72l4.3-3.4 5.7 24.8z"/><path fill="#273032" d="M103 111h15v50h-15z"/><path d="M51 37l19-18 3 13z"/><path fill="#835f38" d="M53.8 160.8l-5.7-3.7 54-10.6 4.9 11.9z"/><path fill="#7d8b78" d="M16 66L-2 48l-1 32z"/><path fill="#595b5d" d="M44.1 158.8L1.1 183l152.3-9-80.2-6.2z"/><path fill="#9fabae" d="M193.7-7.5l40 28.9 6.2-9.2 12.3 4.8z"/><circle r="1" fill="#686c69" transform="rotate(-167.2 125.4 -11.3) scale(11.16856 15.94566)"/><path fill="#ffffb0" d="M185 84.7l-.2-1 22.1-6.4.3 1z"/><path fill="#f0faf6" d="M186 88h21v1h-21z"/><path fill="#787975" d="M158.6 79.8l15-55.1 40.9-33.1-74.8-1.6z"/><path fill="#e1ecff" d="M207 104h15v3h-15z"/><path fill="#555" d="M208 108h26v35h-26z"/><path fill="#311b08" d="M75 7h67v14H75z"/><ellipse cx="51" cy="48" fill="#cfdce5" rx="2" ry="23"/><path fill="#332a1c" d="M103 60l28 44-55-17z"/><path fill="#9f998c" d="M74 138h29v9H74z"/><path fill="#6c3b37" d="M-9.1 79.3l4.8 41.3 17.7-33.5 5 31.8z"/></g></g></svg>