<svg xmlns="http://www.w3.org/2000/svg" viewBox="0 0 1350 900"><defs/><filter id="prefix__a"><feGaussianBlur stdDeviation="12"/></filter><rect width="100%" height="100%" fill="#605c64"/><g filter="url(#prefix__a)"><g transform="translate(2.6 2.6) scale(5.27344)"><circle cx="140" cy="79" r="178" fill="#fff" fill-opacity=".5"/><circle cx="216" cy="80" r="95" fill="#fff" fill-opacity=".5"/><ellipse cx="106" cy="128" fill="#007bbc" fill-opacity=".5" rx="34" ry="32"/><path fill="#9d4b00" fill-opacity=".5" d="M76.3 146L32 130l11.6-32L88 114z"/><ellipse cx="102" cy="34" fill="#eceee8" fill-opacity=".5" rx="255" ry="51"/><ellipse cx="108" cy="128" fill="#009bca" fill-opacity=".5" rx="32" ry="31"/><path fill="#f0f5ee" fill-opacity=".5" d="M164.9 125.8l32.9 45.3-56.7 41.1-32.9-45.3z"/><circle cx="107" cy="129" r="31" fill="#0096be" fill-opacity=".5"/><circle r="1" fill="#aa7a00" fill-opacity=".5" transform="matrix(.1964 -20.07976 12.5095 .12236 63.9 124.3)"/><circle cx="158" cy="61" r="31" fill="#fff" fill-opacity=".5"/><path fill="#abafa9" fill-opacity=".5" d="M98 26l43 66-94 12z"/><path fill="#ff171c" fill-opacity=".5" d="M32.4 149.7l3.9-32.4 14.4-24.7-8 23.3z"/><circle cx="226" cy="169" r="94" fill="#e5e7e3" fill-opacity=".5"/><circle r="1" fill="#c7c9c5" fill-opacity=".5" transform="matrix(22.72336 2.52009 -17.95669 161.91332 6.7 90.9)"/><path fill="#825400" fill-opacity=".5" d="M49 135l29 9-4-32z"/><circle cx="107" cy="129" r="32" fill="#0097be" fill-opacity=".5"/><path fill="#ebf1e9" fill-opacity=".5" d="M78.8 152.6l32.1 10.2-2 19.3-34.4-3.6z"/><path fill="#a6bcc4" fill-opacity=".5" d="M58.5 98.6l-16.4 45.1-6.6-2.3 16.4-45.1z"/><path fill="#d9a000" fill-opacity=".5" d="M54 110.5l16.3 5.3-8.4 25.7-16.2-5.3z"/><path fill="#e7e8e6" fill-opacity=".5" d="M123.4 39l-7.7-36 47-10 7.6 36.2z"/><path fill="#9c9c91" fill-opacity=".5" d="M85.2 148.2L31.5 162l-9.1-31.7 7.4 2.1z"/><path fill="#c9c9c7" fill-opacity=".5" d="M82 42L-3 80l71 26z"/><circle r="1" fill="#805900" fill-opacity=".5" transform="matrix(8.1293 -15.54992 6.10128 3.18967 68 125.5)"/><circle cx="160" cy="64" r="27" fill="#fff" fill-opacity=".5"/><circle r="1" fill="#d8dad7" fill-opacity=".5" transform="matrix(16.45637 -9.6645 33.6719 57.33532 171.3 147.6)"/><circle cx="97" cy="76" r="21" fill="#ababa8" fill-opacity=".5"/><path fill="#ff201e" fill-opacity=".5" d="M47 111l-17 26 10-32z"/><circle cx="107" cy="123" r="27" fill="#0098c0" fill-opacity=".5"/><path fill="#dca300" fill-opacity=".5" d="M73 108l-24 24 6-27z"/><path fill="#7c5300" fill-opacity=".5" d="M64 140l6-21 11 28z"/><path fill="#bdbebb" fill-opacity=".5" d="M78-16L25 32-15-9z"/><ellipse cx="76" cy="162" fill="#c7c7c0" fill-opacity=".5" rx="13" ry="16"/><circle r="1" fill="#e6e7e6" fill-opacity=".5" transform="rotate(-168 129.8 53.1) scale(29.60348 57.72)"/><path fill="#b1b1ab" fill-opacity=".5" d="M66.5 106.9l14.3 3.9 15.8-14.5 26.3-54.2z"/><path fill="#dadbda" fill-opacity=".5" d="M135.6 143.6l-21.4 29.9L225.5 185l-76.4-79.8z"/><circle r="1" fill="#b1b7b5" fill-opacity=".5" transform="matrix(1.98272 1.72096 -13.42493 15.46684 55.7 103)"/><circle cx="33" cy="137" r="5" fill="#94a7a4" fill-opacity=".5"/><ellipse cx="44" cy="105" fill="#ff0e0c" fill-opacity=".5" rx="3" ry="6"/><path fill="#c7c6be" fill-opacity=".5" d="M33 123l16-42-14 10z"/><ellipse cx="131" cy="166" fill="#dcdddb" fill-opacity=".5" rx="31" ry="8"/><circle r="1" fill="#eccfcc" fill-opacity=".5" transform="rotate(-159.9 28.8 51.7) scale(1 23.35783)"/><circle r="1" fill="#008fb7" fill-opacity=".5" transform="matrix(8.59362 -12.78167 19.32063 12.99002 98.5 142.2)"/><path fill="#a67200" fill-opacity=".5" d="M57 112l22-1-24 26z"/><circle cx="217" cy="59" r="31" fill="#dcdddb" fill-opacity=".5"/><path fill="#d5d7d6" fill-opacity=".5" d="M131.8 151.6l-6.3 29.7L86 152.1 82.6 180z"/><circle r="1" fill="#ff4128" fill-opacity=".5" transform="matrix(-.84484 -2.63614 3.39877 -1.08925 34.5 131)"/><circle r="1" fill="#c0c2be" fill-opacity=".5" transform="matrix(6.16384 31.76208 -6.87797 1.33476 120.5 70.8)"/><path fill="#e8b200" fill-opacity=".5" d="M51 120l-5 16 13-2z"/><circle r="1" fill="#a3a19e" fill-opacity=".5" transform="matrix(2.8893 -30.00652 3.25934 .31384 44 136.7)"/><circle r="1" fill="#9e9f98" fill-opacity=".5" transform="matrix(-5.03263 -2.631 4.59342 -8.7864 28 117.7)"/><circle r="1" fill="#d5d7d4" fill-opacity=".5" transform="matrix(30.54112 -1.39612 1.0189 22.28925 101.8 8.5)"/><path fill="#5d3f00" fill-opacity=".5" d="M71 116h5v27h-5z"/><circle r="1" fill="#c7c9c4" fill-opacity=".5" transform="matrix(-3.5835 22.83717 -19.13853 -3.00312 7.4 169.7)"/><path fill="#c7c8c6" fill-opacity=".5" d="M79 23h35v27H79z"/><ellipse cx="9" cy="60" fill="#c9c9c9" fill-opacity=".5" rx="17" ry="51"/><path fill="#dddfdb" fill-opacity=".5" d="M182.4 145.7l-43 1.5-1.8-55 43-1.4z"/><path fill="#ff0a00" fill-opacity=".5" d="M35.8 130.4l-1.9-.6 10.3-28.2 1.9.6z"/><circle r="1" fill="#009cc3" fill-opacity=".5" transform="rotate(138.8 35.4 86.7) scale(21.41256 19.48403)"/><path fill="#9f9e9d" fill-opacity=".5" d="M47 108l-21 49 20-5z"/><circle r="1" fill="#f1f1f3" fill-opacity=".5" transform="rotate(104.3 46.3 91.8) scale(16.91454 19.52796)"/><path fill="#e2ab00" fill-opacity=".5" d="M64 112l-6-6-12 27z"/><path fill="#a17302" fill-opacity=".5" d="M59.9 140.4l20.1 8.4-18.8-29.9-8.3 13.6z"/><path fill="#bcbebb" fill-opacity=".5" d="M23.7 92.3l3.8-16.5 42.8 9.9-3.8 16.5z"/><path fill="#b6b7b3" fill-opacity=".5" d="M79 165l1-20-26 15z"/><path fill="#dddeda" fill-opacity=".5" d="M192.9 62.1l-13-20.2-15-10.8 36.9 9.6z"/><path fill="#afafab" fill-opacity=".5" d="M120 72l-39 36-15-15z"/><circle r="1" fill="#ff2e26" fill-opacity=".5" transform="matrix(5.8613 -11.58682 .89233 .4514 37.7 119.4)"/><circle r="1" fill="#d2d8d4" fill-opacity=".5" transform="rotate(-129.1 103.9 28) scale(37.56557 1)"/><path fill="#e2e3e2" fill-opacity=".5" d="M136 32.1l-13.2-8.2L162.1-16l14 49.8z"/><ellipse cx="108" cy="129" fill="#0096be" fill-opacity=".5" rx="31" ry="30"/><path fill="#e9eae8" fill-opacity=".5" d="M240 8h16v53h-16z"/><circle r="1" fill="#fdfdfd" fill-opacity=".5" transform="matrix(-4.9137 12.75361 -25.67117 -9.89055 161.5 51.3)"/><circle cx="45" cy="101" r="3" fill="#ff3225" fill-opacity=".5"/><circle r="1" fill="#0089b1" fill-opacity=".5" transform="matrix(6.97406 -4.03226 7.17213 12.40469 85.7 137)"/><path fill="none" stroke="#ebd9d7" stroke-opacity=".5" stroke-width=".5" d="M27.8 134.5q9-14.4 16-42.3"/><circle r="1" fill="#7f620c" fill-opacity=".5" transform="rotate(-53.6 152.3 -16.7) scale(8.18294 3.07329)"/><path fill="#9e9e99" fill-opacity=".5" d="M39 101l-11 30-1-23z"/><path fill="#a09f9d" fill-opacity=".5" d="M65 142l-28 14-10-25z"/><path fill="#b3b3ad" fill-opacity=".5" d="M63 142l-14 43 31-38z"/><path fill="#d5d6d4" fill-opacity=".5" d="M107-8L64 50l-33 2z"/><path fill="#bdbdbb" fill-opacity=".5" d="M127 53L82 39l-9 21z"/><path fill="#b3b5b1" fill-opacity=".5" d="M50 89l-21 1-11 30z"/><circle r="1" fill="#009dc3" fill-opacity=".5" transform="rotate(-126.4 89 30.2) scale(26.74472 15.26078)"/><ellipse cx="215" cy="83" fill="#dddfdc" fill-opacity=".5" rx="33" ry="26"/><path fill="#cdccca" fill-opacity=".5" d="M78 172l1-27 11 13z"/><circle r="1" fill="#c7c8c5" fill-opacity=".5" transform="matrix(5.19025 -16.09665 12.49889 4.03018 54 9)"/><circle r="1" fill="#adaeaa" fill-opacity=".5" transform="matrix(1.82186 15.43059 -6.77714 .80016 77.9 95.2)"/><path fill="#b6b7b4" fill-opacity=".5" d="M126.3 73.9l-.9 25-33.5-40.2 52.8 34.7z"/><circle r="1" fill="#b2b5ae" fill-opacity=".5" transform="matrix(14.58624 11.60242 -7.13147 8.96549 39.5 169)"/><path fill="#b8b6b2" fill-opacity=".5" d="M57 99l-7-13-3 21z"/><circle r="1" fill="#0192ba" fill-opacity=".5" transform="matrix(6.5488 -19.68642 10.77478 3.5843 88.7 122.1)"/><path fill="#b7b5b2" fill-opacity=".5" d="M93 97l-1-18-14 31z"/><path fill="#7a5901" fill-opacity=".5" d="M78.8 145.6l-12.6-3.9 2.8-9.1 11.3 10.1z"/><path fill="#cfcfcc" fill-opacity=".5" d="M119.4 31.4l11.2 53.5 21.1 8.7-22 4z"/><circle cx="152" cy="73" r="19" fill="#f5f5f6" fill-opacity=".5"/><path fill="#cccecd" fill-opacity=".5" d="M67.9 88l-5.7 4.3-34.7-32.1 47-14.4z"/><ellipse cx="161" fill="#dadbd9" fill-opacity=".5" rx="85" ry="6"/><path fill="#c1c2bf" fill-opacity=".5" d="M5 119l13 44 9-89z"/><path fill="#cbccc6" fill-opacity=".5" d="M132.9 39.7l-8.9 19-.9-.4 8.9-19z"/><path fill="#ff1b12" fill-opacity=".5" d="M38.2 116.2l-.9-.5 8.5-15.9.9.5z"/></g></g></svg>