<svg xmlns="http://www.w3.org/2000/svg" viewBox="0 0 1120 1400"><defs/><filter id="a"><feGaussianBlur stdDeviation="12"/></filter><rect width="100%" height="100%" fill="#4c3e2c"/><g filter="url(#a)"><g fill-opacity=".5" transform="translate(2.7 2.7) scale(5.46875)"><circle r="1" fill="#f7fbf3" transform="matrix(15.83982 -49.11999 76.01748 24.51351 70.7 14.3)"/><circle r="1" fill="#bcc4c2" transform="rotate(52.9 -183.5 139) scale(85.0893 51.67389)"/><circle r="1" fill="#000206" transform="matrix(-10.9547 26.46553 -131.82059 -54.56365 46.3 107.3)"/><ellipse cx="8" cy="193" fill="#080500" rx="26" ry="37"/><circle r="1" fill="#7c725d" transform="matrix(-56.15572 47.12025 -14.2362 -16.96605 119.3 40)"/><path fill="#e6e7e1" d="M44 45l104-57L-16 0z"/><path fill="#0b1410" d="M219 123L204-14 45 140z"/><path fill="#fff" d="M-12.2 177.7l30.7 3.8-2.3 18.8-30.7-3.8z"/><circle r="1" fill="#52626a" transform="matrix(35.90005 12.85408 -25.0045 69.83484 200.3 195.7)"/><path fill="#bab5a8" d="M73 160l-58-38 29 95z"/><circle r="1" fill="#b8b7ae" transform="matrix(11.09765 54.06351 -13.88588 2.85036 85.6 220.2)"/><circle r="1" fill="#968f7e" transform="matrix(4.2298 -17.61839 39.65273 9.51978 73.6 65.8)"/><circle cx="136" cy="155" r="56" fill="#2d332e"/><path fill="#707a87" d="M79 141.4l11 .1 13.4 16.7 18.4 60.9z"/><path fill="#5d5543" d="M139 35l-35 23-53-35z"/><path d="M13.5 180.8L37.1 218l-10.5-59-25.3 12.6zM63 114L7 95l97 95z"/><path fill="#c0bfb6" d="M30.9 258.1l-43-2.2 1.2-22 43 2.2z"/><circle r="1" fill="#ebe9df" transform="matrix(-3.02054 4.89067 -28.82157 -17.80056 64 40.4)"/><path fill="#877c68" d="M127 3l68-14-81 83z"/><ellipse cy="142" fill="#a7a59c" rx="29" ry="22"/><ellipse cx="128" cy="250" fill="#1f2a2e" rx="24" ry="91"/><path fill="#676456" d="M-16 20L87 68 46 79z"/><path fill="#060b08" d="M-16 129.3l134.8-49.1L-16 114.6l34 20.3z"/><path fill="#070500" d="M-13 238l49-34-6-17z"/><path fill="#2d2b24" d="M32.9 263.3l9.5-33 .4 40.7 28-27.1z"/><path fill="#00040c" d="M117.1 234.4l-29.7-80.6 8 42.3 14.4 52.7z"/><path fill="#5e5440" d="M89 45l68-48-46 57z"/><path d="M52 111l47 65-115-84z"/><path fill="#d9d7ce" d="M-2.8 133.4l-8.4 13.2 30.2 2.7-14.8-16.5z"/><circle r="1" fill="#a5a398" transform="rotate(-160.3 37.6 6.2) scale(33.18515 7.05011)"/><path fill="#bcb6aa" d="M66.2 156.5l-31.7 2.4L24 127.4l19.6 11.3z"/><path fill="#181910" d="M106 153L-16 58l119 37z"/><ellipse cx="61" cy="255" fill="#433e31" rx="4" ry="37"/><path fill="#89806c" d="M158-12l34 4-82 86z"/><circle r="1" fill="#7b7668" transform="rotate(142.1 .9 101) scale(7.85682 19.9108)"/><circle r="1" fill="#434742" transform="matrix(-13.01073 -6.02544 46.77609 -101.00368 165.7 199.6)"/><path fill="#666c70" d="M111.6 173l-24-35.6 20.3 67.5 3.2 28.3z"/><circle r="1" fill="#60615d" transform="matrix(15.07654 -16.10224 34.66108 32.45318 203 218.1)"/><circle r="1" fill="#b4b2a7" transform="rotate(-66.5 38.8 -4.3) scale(8.07729 59.44084)"/><circle r="1" fill="#9b988d" transform="matrix(-8.39251 -6.2784 16.91456 -22.61016 45.1 213)"/><circle r="1" fill="#2e2a1d" transform="matrix(-34.24647 -6.00468 8.9061 -50.7942 141.6 143)"/><path fill="#c4c0b1" d="M-16 172l17 30 17-21z"/><path fill="#1f1e15" d="M61.9 117.3L179.8 19l39.2-6.6L87.2 146.8z"/><path fill="#5c5544" d="M-16 159.6v-8.7l53.2 11-20.5 5.8z"/><path fill="#19170f" d="M34.6 201.8l-8.2-34-14.7 53.8 8.6 13.2z"/><path fill="#877d69" d="M137.8 27l-80 56.6 39.5 4.1 52.5-46.6z"/><path fill="#05070a" d="M90 181l16-8-3 38z"/><circle r="1" fill="#dbddd8" transform="matrix(1.9017 -10.46437 33.20177 6.03378 72.4 .8)"/><path fill="#e1dfd5" d="M14.3 10.2l.6-24-10.5.3 78.5 62.3z"/><path fill="#aaa89f" d="M67 210h30v31H67z"/><path fill="#aab2b9" d="M80.6 148.7l5-3.3 3.8 5.9-5 3.3z"/><path fill="#a4abaf" d="M99 177l1-19-6 3z"/><path fill="#3c3a31" d="M-2.8 119.9l22.3 21.5-.7.7-22.3-21.5z"/><path fill="#453f31" d="M76 39l22 9 15-10z"/><path fill="#090600" d="M31.1 203.6L5 158.4v23.4l21.6-17.7z"/><circle cx="113" cy="223" r="4" fill="#7e868d"/><path fill="#c0bdb0" d="M77 164l9 22-25-32z"/><circle r="1" fill="#191911" transform="rotate(30.2 48.5 343.5) scale(8.37149 27.92632)"/><path fill="#898271" d="M-6.8 198.6L-4 190l22.8 7.4L16 206z"/><circle cx="23" cy="118" r="9"/><path fill="#b5b9b7" d="M13.6 122.9l-.5 4-26.7-3.8.5-4z"/><path fill="#42433e" d="M188 214l-58 21 13-61z"/><path fill="#080b0b" d="M99.7 169.4l23.6-32.3-34.2 41.8-34.2-39.3z"/><path fill="#212220" d="M38 227h3v29h-3z"/><path fill="#45443a" d="M15 67.4l-31-47.9 38.5 32 43.9 35.3z"/><path fill="#b1b0aa" d="M34 245l-13 5 14-42z"/><path fill="#a9a89f" d="M89 237h16v15H89z"/><path fill="#8d9295" d="M102 181h10v6h-10z"/><circle r="1" fill="#5e605b" transform="matrix(16.61488 -13.24668 20.52727 25.7467 203 228.6)"/><path fill="#77776f" d="M31 165l-13.5-26.5 11.8 36.4 15.3 8z"/><path fill="#010302" d="M87.2 136.2l-8.5-48.6-17.7.3 31.1 1z"/><circle r="1" fill="#2b281d" transform="matrix(-7.52151 -32.37233 18.3513 -4.26381 108.4 116)"/><ellipse cx="108" cy="195" fill="#c9d0d7" rx="3" ry="2"/><circle r="1" fill="#646d77" transform="matrix(1.10593 1.51398 -5.44226 3.97543 114.2 248.4)"/><path fill="#8c826f" d="M45 47l74 22-31 19z"/><path fill="#7f7f77" d="M62.2 251.2L82.9 262l4.8-22.1L76.6 229z"/><circle r="1" fill="#2f2d22" transform="rotate(118.2 42.2 110.3) scale(67.86536 26.66388)"/><path fill="#040607" d="M105.1 191.1l2.8 34.5-35-82.2 28.9 45.7z"/><circle r="1" fill="#acb2b4" transform="matrix(1.33967 2.20337 -4.3311 2.63335 99.2 160)"/><path fill="#8b877b" d="M21.6-4.1L62 31 48.4 11.7l1.7 11.2z"/><path fill="#adaca1" d="M33.4 10.8L77 35l60.8-32.5L75 21.8z"/><path fill="#827b6c" d="M62 178.4l4.1 73.5-14.4-68-21.4 2.1z"/><path fill="#787467" d="M20.5 48.3l69.2 38.4L-.7 23.5-16 16.2z"/><circle r="1" fill="#d2cfc5" transform="matrix(-1.61837 4.23808 -21.00267 -8.02014 68.8 43.2)"/><circle r="1" fill="#443e32" transform="matrix(-.44756 .89425 -18.17089 -9.09424 86.1 43.4)"/><path fill="#25231b" d="M162.8 150.5L108 207.3l13.5-16.8-18.5 1.3z"/><path fill="#494538" d="M27.2 219.7l8.2-12-36.8 19.6 23.3 5.7z"/><circle r="1" fill="#99968c" transform="rotate(68.1 -127.3 133.2) scale(30.38427 6.47378)"/><path fill="#525559" d="M116 213l8-2-8-26z"/><path fill="#0b0d0a" d="M38 243h5v9h-5z"/><circle r="1" fill="#aeab9f" transform="matrix(-6.2093 -2.32636 3.72626 -9.94578 11.7 188.6)"/><circle r="1" fill="#000104" transform="rotate(118.5 -28.2 62.4) scale(4.43437 34.08067)"/><path fill="#b7b6b0" d="M44.1 248.3L32.3 271l18-7.3-5.1-3z"/><path fill="#7d7666" d="M92.3 35.4l-15.6 4.2 26.5 2.6 41.5-35.9z"/><circle cx="110" cy="213" r="2" fill="#c0cbd3"/><path fill="#a99a81" d="M97 48L78 59l30 9z"/><circle r="1" fill="#a9a599" transform="matrix(-3.89903 4.22085 -23.2468 -21.47434 63.6 161.3)"/><circle cx="114" cy="200" r="5" fill="#1a1715"/><path fill="#27261d" d="M91.9 177.4l30.8-43.5 8.5 102.8-23.5-76.1z"/></g></g></svg>