<svg xmlns="http://www.w3.org/2000/svg" viewBox="0 0 1400 1120"><defs/><filter id="a"><feGaussianBlur stdDeviation="12"/></filter><rect width="100%" height="100%" fill="#3c332a"/><g filter="url(#a)"><g fill-opacity=".5" transform="translate(2.7 2.7) scale(5.46875)"><circle cx="114" cy="96" r="148" fill="#7a6b4d"/><ellipse cx="94" cy="88" fill="#efca9f" rx="234" ry="8"/><path fill="#ffffd8" d="M1 147.6l19.3-17.4L33 144.4l-19.3 17.4z"/><path fill="#ffffcd" d="M215.7 147.6l11.7-15 22.9 17.8-11.7 15z"/><circle cx="236" cy="35" r="13" fill="#ffffd1"/><circle r="1" fill="#ffffcd" transform="matrix(-9.45104 -9.32 8.6804 -8.80246 18 31)"/><path fill="#fffac5" d="M105.8 26l-26.5-5.2-2.8 12.3 7 15.9z"/><path fill="#12110a" d="M77.4 172.9L28.7 70.5l2.9 74.4L79 63.5z"/><path fill="#fff4b8" d="M171.8 30.5l9 11.4-25.8 2.6-7.6-22.8z"/><circle r="1" fill="#1d1a11" transform="rotate(-175 92.4 60.3) scale(9.99769 124.45234)"/><path fill="#fffff4" d="M136 160.5h-16v-19h16z"/><ellipse cx="86" cy="62" fill="#2f291d" rx="142" ry="17"/><ellipse cx="51" cy="140" fill="#e7c99d" rx="3" ry="157"/><ellipse cx="200" cy="61" fill="#ffecb7" rx="3" ry="55"/><path fill="#201c14" d="M128 126L19 194l76 5z"/><path fill="#161210" d="M138 8h15v170h-15z"/><path fill="#e1b496" d="M119.6 17.2l10.2 2.9 2.1-3.8L128 146z"/><ellipse cx="216" cy="117" fill="#221f14" rx="7" ry="108"/><circle r="1" fill="#fff3bb" transform="rotate(95 75.8 154.5) scale(8.38718 11.93897)"/><circle r="1" fill="#a88a69" transform="rotate(-47.3 223.2 -14) scale(47.82109 4.43246)"/><circle r="1" fill="#ffffc8" transform="rotate(95.9 -64 126.4) scale(4.63358 17.99906)"/><path fill="#d2ad86" d="M146.7 155.5l19.1-8.7 53.5 72.2-50.7-57.2z"/><path fill="#020408" d="M110.2 151.8l-38-43.8 13.6-11.8 38 43.8z"/><path fill="#ffffcf" d="M208 155l-7-17-8 18z"/><path fill="#ffd1b5" d="M113.8 82.3l24.5-5.2 3.9 18.6-24.5 5.2z"/><path fill="#1c160d" d="M116-5l4 106-27-29z"/><circle r="1" fill="#edd3aa" transform="matrix(-1.00978 10.76224 -14.7299 -1.38205 201.4 91.4)"/><circle cx="218" cy="70" r="5" fill="#ffffc9"/><path d="M55.9 4.7L81.8 42 52.4-12.6l-25.6 43z"/><circle cx="33" cy="108" r="5" fill="#ffffd3"/><path fill="#090907" d="M149 123l59 76-22-70z"/><path fill="#fff" d="M105.9 175.6l11 .8-.8 10-11-.8z"/><circle cx="50" cy="88" r="12" fill="#f8e4bc"/><path fill="#16160d" d="M257.6 14.4l-10.5 129.7L271 70.6l-28.9 19.7z"/><path fill="#ffffc2" d="M187 200h28v4h-28z"/><path fill="#040601" d="M182.4 96l18.4-41.2-18.5 25-68.1-94.1z"/><circle cx="69" cy="110" r="5" fill="#fffbbb"/><path fill="#ffffc4" d="M211.3 110.6l3-5.2 10.4 6-3 5.2z"/><path fill="#d59e74" d="M78.7 152.1l21.1 5.6 2.1-4.7-17.3-24.7z"/><path fill="#fbd6a3" d="M180.4 90.1l-9.9 9.3-22.8-12.8 15.2-8.6z"/><path fill="#ffedb3" d="M18 76l11 11.5L16 100 5 88.5z"/><path fill="#ffffc7" d="M239 196h9v8h-9z"/><path fill="#10100a" d="M166.5 189.5l-15.7 2.8 16-33.3 35.8 43z"/><circle r="1" fill="#ffdca3" transform="matrix(3.30933 -3.55475 4.40946 4.10503 34 69.5)"/><path fill="#12120a" d="M157.2-16l-46.1 47L79 9.7l2.3 15.4z"/><path fill="#dec195" d="M183.3 219l35.4-41.6 17.6-19.8-17.4 12.9z"/><path fill="#060701" d="M201-3l-23 21 50 7z"/><path d="M207 98l-3 18 25 26z"/><path fill="#ceb388" d="M-1.2 64.6l17.3 6.8 1.3-21.9-20.5 24.2z"/><path fill="#fdd1a0" d="M214.9 145.1l31.8-4.9-2.4 7.5 9.6 18z"/><path fill="#ddb688" d="M191 70.6L146.8 29l18-5.9 14.6 50.4z"/><path fill="#ffd095" d="M251 33l-20.3 17.6L219 37.1l20.4-17.7z"/><path fill="#0a0b08" d="M91.7 116.8l-28.5 20.6-14.7 47.9 3.9 5.9z"/><path fill="#ffe7b0" d="M46 142h10v17H46z"/><path fill="#090904" d="M36.1 103.3L15 115.5l22.9-42.7L43.5 53z"/><path fill="#dcc093" d="M22 162.1l11 5.2L70.7 219l-32.9-38.5z"/><path fill="#ffeeb6" d="M46.5 35.6L43 24.2l12.5-3.8L59 31.8z"/><path d="M-16 75.2l28.8 24.4-17.7 28.7 20.5 2.9z"/><path fill="#000300" d="M54.2 68.2l21.3 35.9-20.1-76.7 19-1.5z"/><path fill="#f4d39d" d="M73 75l-1-14H59z"/><path fill="#ffcaa5" d="M161 141v22l10-24z"/><path fill="#0c0d07" d="M36 123l-6 40 24 25z"/><ellipse cx="107" cy="88" fill="#f2bb93" rx="37" ry="6"/><path fill="#edbf98" d="M84.2 29.6L131.6 68l-1.8 2.4L82.4 32z"/><path fill="#e5c89c" d="M179.9 207.3L167.4 178l2.7-1.2 12.5 29.4z"/><path fill="#000100" d="M224.2 136.4l22.2 3.6 24.3-31.1.3-2.5z"/><path fill="#ffffbd" d="M149.3-6.7l.4 13-11 .4-.4-13z"/><circle r="1" fill="#d2ab83" transform="matrix(-1.33496 -1.54677 17.35299 -14.97667 147.6 49.1)"/><path fill="#ffffde" d="M249.1 172.3l12 .4-.2 7-12-.4z"/><path fill="#08090c" d="M95.7 161.7l19.6 15.3 15.8 42-12.7-73.7z"/><circle r="1" transform="matrix(3.5784 2.84639 -9.41804 11.8401 225.1 78.4)"/><path fill="#fff9b3" d="M187 117.6l-9.7-2.4 1.7-6.8 9.7 2.4z"/><path fill="#ffd99d" d="M1 129l33 13-10 12z"/><path fill="#e1c191" d="M50.9 55.1L37.3 37.9l20 11.6 8.5-18.4z"/><ellipse cx="201" cy="31" fill="#ffe6aa" rx="6" ry="7"/><path fill="#ffffdf" d="M249 8h7v6h-7z"/><path fill="#ffe4a0" d="M136.1 22.6l-1.9 9.3-18.4.5 10.8-13.5z"/><path fill="#fedba8" d="M200 125l13 16-18-7z"/><path d="M25.8 164.3l-41.8 10 24.9-18.6L38.7 189z"/><path fill="#fff9da" d="M145.4 205.5l-5 5-9.8-10 5-5z"/><path fill="#26201c" d="M110.1 82.8L76 159l35.6-59.7 63.1 96.7z"/><path d="M223.8 50.9L271 72.7 238.3 43l.6 6.2zM164 101h8v33h-8z"/><path fill="#fffcc6" d="M72 206l9-16-7 2z"/><path fill="#dab27f" d="M222 192l2-11 25 6z"/><path fill="#fccd98" d="M-.4 30.3l21.2 15.9 12.9-12.4-18.4-15.3z"/><path fill="#d3b187" d="M108.6 16.2L144.3-16l-50 50.7-37.5 21.5z"/><path fill="#000400" d="M108.8 45l35.8-14-12.3 1.7-39.5 10.1z"/><circle cx="107" r="7" fill="#fff5ae"/><path d="M199 108l-19-21 10 38z"/><path fill="#d2ac97" d="M156.1 150.7l-28.6 34.8-1.6-1.2 18.7-24.8z"/><circle r="1" fill="#030603" transform="rotate(137.3 28.4 17) scale(4.564 29.19075)"/><path fill="#050702" d="M20.7 19.5L56.1-2.6l-21.6 27 24.7 27.4z"/><path d="M-16 15.3L31.8 4.7 21.1-15.4 10 19.8z"/><circle cx="81" cy="179" r="4" fill="#fffdcf"/><path fill="#f5ce9b" d="M189 43l12 13 8-9z"/><path fill="#b39e7c" d="M72.8 130.3l-36.1 10.8 11.4-15 29.1 12z"/><path fill="#ffe3a9" d="M203 118.4l.7.8-30.8 22.4-.6-.8z"/><path d="M155 149v-49l-21 68z"/><path fill="#e3c696" d="M201.2-4.7l-39 38.9-1.4-1.5 39-38.9z"/></g></g></svg>