<svg xmlns="http://www.w3.org/2000/svg" viewBox="0 0 1034 1400"><defs/><filter id="a"><feGaussianBlur stdDeviation="12"/></filter><rect width="100%" height="100%" fill="#252d48"/><g filter="url(#a)"><g fill-opacity=".5" transform="translate(2.7 2.7) scale(5.46875)"><circle cx="68" cy="68" r="227" fill="#fdd7a3"/><ellipse cx="94" cy="135" fill="#28180f" rx="65" ry="93"/><ellipse cx="71" cy="19" fill="#fff9d2" rx="188" ry="25"/><circle r="1" fill="#e7edfa" transform="matrix(115.38244 -4.43255 .69593 18.11564 78.7 247.2)"/><circle r="1" fill="#ffe6bd" transform="matrix(-14.45522 -76.50212 24.8927 -4.70352 177.1 99.8)"/><ellipse cy="82" fill="#fff3d0" rx="40" ry="50"/><ellipse cy="128" fill="#fff" rx="8" ry="197"/><ellipse cx="187" cy="141" fill="#fff" rx="6" ry="255"/><path fill="#303647" d="M63.5 226.9l-56-3 5-94.8 56 3z"/><path fill="#292931" d="M144 247l-21-60 45 58z"/><ellipse cx="96" cy="12" rx="89" ry="2"/><ellipse cx="68" fill="#fff" rx="187" ry="12"/><path d="M137 154h31v18h-31z"/><path fill="#291700" d="M109 41l38 3 1 36z"/><path fill="#362208" d="M37 81l51-38-45-3z"/><path fill="#ffc7a6" d="M135 126.2l-2.5-24.4 39.7-2.8-16.4 13.6z"/><ellipse cx="180" cy="48" fill="#000009" rx="2" ry="144"/><path fill="#000006" d="M114 122h50v17h-50z"/><circle r="1" fill="#66697c" transform="matrix(21.24803 30.66593 -23.33393 16.16778 139.5 199.2)"/><path d="M8 18h3v118H8z"/><circle r="1" fill="#ecd1b4" transform="rotate(91.4 -26 200.5) scale(69.95696 6.45008)"/><circle r="1" fill="#f7b79a" transform="matrix(25.17827 6.5266 -.9462 3.65026 147 145.6)"/><circle r="1" fill="#fbffff" transform="matrix(-.01946 -11.15124 141.51591 -.247 131.8 0)"/><path fill="#dcdadc" d="M67 271l20-51-46 12z"/><path fill="#e8b481" d="M11 14h28v110H11z"/><path fill="#011f38" d="M15 207l1 37-11 4z"/><path fill="#22191c" d="M43 135l50 74-3-75z"/><ellipse cx="1" cy="122" fill="#fcfbff" rx="8" ry="117"/><ellipse cx="93" cy="30" fill="#e4ad75" rx="84" ry="15"/><path fill="#dea37c" d="M46.2 136.3L54 117l-5.2-22.4 20.4 38z"/><path fill="#866753" d="M8 128l33-36-36 85z"/><path fill="#d4cdc8" d="M60.4 271l83.1-38.4-112.2-2.1 6.8-28.3z"/><path fill="#fff" d="M183 113h6v112h-6z"/><path fill="#e9be8b" d="M180 159l-37-72 35-67z"/><path fill="#ffdfbc" d="M131.6 153.8l-19 8.9-2.2-4.5 19-8.9z"/><path fill="#ffbb8e" d="M74.2 128.7l22.9-2.4.7 7-22.9 2.4z"/><path fill="#e4ae93" d="M130.7 151.4l-10.1-40.9-6.5 7.1 23 28.9z"/><ellipse cx="89" cy="63" fill="#b08f63" rx="60" ry="4"/><path fill="#fff2a5" d="M97.5 81v10h-9V81z"/><path fill="#120d13" d="M95.1 219.2l23.3-82.1 26-13.8-42.6 46.2z"/><path fill="#f8ffff" d="M181 112l1-124 22 82z"/><path fill="#1f3552" d="M24 170h10v64H24z"/><path fill="#070611" d="M135 142l41 26-45-1z"/><path fill="#ffb58c" d="M47 165l-2-15 5-3z"/><circle r="1" fill="#fdcd89" transform="matrix(-3.08634 3.894 -4.96079 -3.93187 65 85)"/><circle cx="120" cy="87" r="5" fill="#fff1a0"/><path fill="#3e3b3e" d="M48.7 227.2l-23.8 14.4 82-34-68.5-3.6z"/><path fill="#efe0d1" d="M120 226l-22 14 10-21z"/><path fill="#382c1d" d="M41 45h102v15H41z"/><path fill="#2e231d" d="M50 11h131v3H50z"/><ellipse cx="94" cy="98" fill="#3d301c" rx="55" ry="8"/><path fill="#181322" d="M160.1 141l-15.4-26.9 15.2 6.9 7.8 22.1z"/><path fill="#dac2a4" d="M16 227l8-31 1 56z"/><path fill="#5d656e" d="M13 123h27v81H13z"/><path fill="#1b150c" d="M133.1 183.4l19.3-47.7-27.1 52.2 7.5 34.5z"/><path fill="#0c0d1d" d="M51 142h20v34H51z"/><path fill="#fec5af" d="M148 147l-6-15-6 13z"/><ellipse cx="93" cy="155" fill="#fddccf" rx="3" ry="8"/><circle cx="79" cy="109" r="4" fill="#ffffc1"/><path fill="#736972" d="M53.1 177.6l-7.5 56.6 29.8-68 28.9 14.6z"/><path fill="#e3c69f" d="M44.4 89L9.5 128l30.3-83.3-28.4-7.6z"/><path fill="#838496" d="M126 149l-2 70-17-20z"/><path fill="#ffd8bd" d="M110.6 122.6l3.8 26.7-1 .1-3.8-26.7z"/><path fill="#2a1d10" d="M68 116h47v12H68z"/><path fill="#292011" d="M118 74l-25 28 25-54z"/><circle cx="136" cy="65" r="4" fill="#ffe9ad"/><ellipse cx="181" cy="200" rx="1" ry="23"/><path fill="#edbd8e" d="M124 115h-16l-7-10z"/><circle r="1" fill="#646574" transform="rotate(145.1 46.6 116.7) scale(24.17345 11.31667)"/><path fill="#4d402d" d="M56 42h19v40H56z"/><ellipse cx="180" cy="104" rx="1" ry="92"/><path fill="#160e06" d="M103 204l11-33-22 18z"/><path d="M8 11h2v21H8z"/><circle r="1" fill="#e99f8d" transform="matrix(7.67504 .8609 -1.1453 10.2106 136.8 111.1)"/><ellipse cx="108" cy="235" fill="#feffff" rx="34" ry="3"/><path fill="#d39c7f" d="M91 104h5v33h-5z"/><path fill="#0a0400" d="M45 103l4 24-13-4z"/><path fill="#382c1d" d="M133.1 216.5l-14.8 17 26.2-12.8-20.7-29.2z"/><path fill="#dc9b73" d="M5 138h9v41H5z"/><ellipse cx="170" cy="5" fill="#f3f4ff" rx="188" ry="6"/><path fill="#090505" d="M102 134l-5 28 13-16z"/><path fill="#c7c8d2" d="M143 271l51-6-14-44z"/><path fill="#ddb283" d="M92 47l89-34-128 1z"/><ellipse cx="64" cy="74" fill="#bb976e" rx="2" ry="42"/><path fill="#dcba9d" d="M42.3 115l-29.5 8.1 24-16.4-16.4-67.1z"/><path fill="#362b1a" d="M92 55l-4 34-28 12z"/><ellipse cx="94" cy="236" fill="#ceb8a1" rx="2" ry="45"/><path fill="#cfa67c" d="M57.2 99.8l-4.2 19L68.6 129l-22.9-19.7z"/><path fill="#dca882" d="M167.1 140.3l-30.9 5.3L175 154l1.7 41.6z"/><path fill="#453823" d="M110.3 101L91.9 56l60.8 51.4-25.8-48.9z"/><path fill="#362a20" d="M66.9 151.9l34.7 51.4-45.3 7.5 64.7 12.3z"/><ellipse cx="94" cy="178" fill="#e9a486" rx="8" ry="4"/><path fill="#ffd1ab" d="M127 139h7v14h-7z"/><path fill="#000920" d="M9 180h2v50H9z"/><path fill="#80a1d0" d="M15 208l7-25-7-8z"/><path fill="#181822" d="M116 158h53v6h-53z"/><ellipse cx="120" cy="118" fill="#f9c2ae" rx="4" ry="8"/><path fill="#0a090f" d="M162 244l-21 1 13-6z"/><path fill="#b7a08a" d="M145.7 227.7l-12.6-7.6-.1 14 23.3-3.3z"/><path fill="#d9b284" d="M104.2 17.5l-.8-2.5 74.2-.1 1.2 53.1z"/></g></g></svg>