<svg xmlns="http://www.w3.org/2000/svg" viewBox="0 0 1120 1400"><defs/><filter id="prefix__a"><feGaussianBlur stdDeviation="12"/></filter><rect width="100%" height="100%" fill="#995e49"/><g filter="url(#prefix__a)"><g transform="translate(2.7 2.7) scale(5.46875)"><path fill="#fee0cf" fill-opacity=".5" d="M203-16l8 270-225 8z"/><ellipse cx="195" cy="124" fill="#fff" fill-opacity=".5" rx="13" ry="255"/><path fill="#aa5c3b" fill-opacity=".5" d="M179 238l4-254-199 250z"/><ellipse cx="84" cy="248" fill="#fff" fill-opacity=".5" rx="203" ry="10"/><path fill="#c38568" fill-opacity=".5" d="M-16 263V-16L192-4z"/><ellipse cx="194" cy="101" fill="#fff" fill-opacity=".5" rx="12" ry="255"/><path fill="#fff" fill-opacity=".5" d="M186 238.5l-199.7 1.2L-2.3 271 219 256z"/><ellipse cx="196" cy="133" fill="#fff" fill-opacity=".5" rx="13" ry="253"/><ellipse cx="73" cy="253" fill="#fff" fill-opacity=".5" rx="203" ry="14"/><ellipse cx="135" cy="68" fill="#ac6f55" fill-opacity=".5" rx="47" ry="150"/><ellipse cx="196" cy="92" fill="#fff" fill-opacity=".5" rx="13" ry="255"/><path fill="#b8775a" fill-opacity=".5" d="M0 61h135v177H0z"/><ellipse cx="65" cy="248" fill="#fff" fill-opacity=".5" rx="203" ry="9"/><ellipse cx="53" cy="20" fill="#a36751" fill-opacity=".5" rx="128" ry="34"/><path fill="#ae6e54" fill-opacity=".5" d="M29.2 121.3l152-7.8 2.9 54.7-11.5-24.2z"/><path fill="#fff" fill-opacity=".5" d="M182 85h22v33h-22z"/><path fill="#aa745d" fill-opacity=".5" d="M113 29h71v42h-71z"/><ellipse cx="201" cy="243" fill="#fff" fill-opacity=".5" rx="19" ry="246"/><ellipse cx="130" cy="175" fill="#bd7a5e" fill-opacity=".5" rx="52" ry="32"/><ellipse cx="80" cy="210" fill="#ac6248" fill-opacity=".5" rx="66" ry="3"/><ellipse cx="120" cy="250" fill="#fff" fill-opacity=".5" rx="203" ry="11"/><path fill="#b98469" fill-opacity=".5" d="M134 82h48v23h-48z"/><path fill="#b07962" fill-opacity=".5" d="M168 212h15v28h-15z"/><circle r="1" fill="#b6755a" fill-opacity=".5" transform="matrix(-42.61621 59.96683 -18.88984 -13.4243 52 178.2)"/><ellipse cx="129" cy="237" fill="#d09d86" fill-opacity=".5" rx="53" ry="2"/><ellipse cx="79" cy="92" fill="#ba8569" fill-opacity=".5" rx="66" ry="3"/><path fill="#9e6754" fill-opacity=".5" d="M178.2 61L158.6 7.8-16 6 178.9-.1z"/><path fill="#ad7964" fill-opacity=".5" d="M0 230h184v7H0z"/><ellipse cx="179" cy="121" fill="#c5927c" fill-opacity=".5" rx="1" ry="117"/><ellipse cx="140" cy="112" fill="#c58f73" fill-opacity=".5" rx="40" ry="2"/><ellipse cx="201" cy="63" fill="#fff" fill-opacity=".5" rx="17" ry="255"/><ellipse cx="21" cy="18" fill="#b07961" fill-opacity=".5" rx="80" ry="4"/><path fill="#b87a60" fill-opacity=".5" d="M142 152h40v74h-40z"/><path fill="#e1dfd8" fill-opacity=".5" d="M183 0h2v73h-2z"/><path fill="#fff" fill-opacity=".5" d="M59.5 255.5L.1 271l-6.2-39.1-5 2z"/><ellipse cx="23" cy="28" fill="#9d5e49" fill-opacity=".5" rx="32" ry="6"/><path fill="#c18266" fill-opacity=".5" d="M108 188h48v17h-48z"/><ellipse cx="64" cy="216" fill="#c18065" fill-opacity=".5" rx="45" ry="6"/><path fill="#aa654b" fill-opacity=".5" d="M181 148.6l-108 1.8v-1l108-1.8z"/><path fill="#a4634b" fill-opacity=".5" d="M105.3 23.8l39.8-3.5 1.6 18-39.8 3.4z"/><ellipse cx="43" cy="107" fill="#ab694e" fill-opacity=".5" rx="55" ry="4"/><ellipse cx="50" cy="81" fill="#b88365" fill-opacity=".5" rx="51" ry="3"/><path fill="#ba7d61" fill-opacity=".5" d="M69.2 90.8l41.1 10.4.9 17.7-26.6-2.6z"/><path fill="#a45c44" fill-opacity=".5" d="M34 208h73v3H34z"/><ellipse cx="182" cy="28" fill="#b79787" fill-opacity=".5" rx="1" ry="38"/><path fill="#a7725e" fill-opacity=".5" d="M181.9-3.7l2.1 19.2-84.3 6.1L209.3-9.1z"/><ellipse cx="25" cy="168" fill="#bd7a5f" fill-opacity=".5" rx="52" ry="9"/><path fill="#a25c45" fill-opacity=".5" d="M93 70h68v2H93z"/><circle r="1" fill="#b46b50" fill-opacity=".5" transform="matrix(131.30828 0 0 1 53 187.5)"/><path fill="#ba8569" fill-opacity=".5" d="M93 55h88v3H93z"/><path fill="#bc8b77" fill-opacity=".5" d="M174.2 67.6l11-.8-15.3 22 10.9 4.5z"/><path fill="#a96248" fill-opacity=".5" d="M0 153h49v4H0z"/><ellipse cx="135" cy="161" fill="#c28a6f" fill-opacity=".5" rx="48" ry="2"/><path fill="#a3624d" fill-opacity=".5" d="M-9.6 124.6l46.7 2 2.6.7-55.7 2.1z"/><ellipse cx="118" cy="146" fill="#bf8569" fill-opacity=".5" rx="65" ry="2"/><path fill="#954839" fill-opacity=".5" d="M115.6 124.5l18.9 2-.1 1-18.9-2z"/><path fill="#d8ae98" fill-opacity=".5" d="M121 130h15v1h-15z"/><path fill="#b8795e" fill-opacity=".5" d="M27 112h39v36H27z"/><path fill="none" stroke="#dfcabd" stroke-opacity=".5" stroke-width=".5" d="M182 214q.9-33 3.5-62"/><ellipse cx="95" cy="248" fill="#fff" fill-opacity=".5" rx="197" ry="8"/><path fill="#ab6950" fill-opacity=".5" d="M125 97h49v3h-49z"/><path fill="#af7055" fill-opacity=".5" d="M179.4 108.6l-33.6 3.7 24.9 60.3-41.7-67.9z"/><path fill="#af6b51" fill-opacity=".5" d="M81 179h101v3H81z"/><path fill="#ae6549" fill-opacity=".5" d="M50 193h22v6H50z"/><ellipse cx="168" cy="239" fill="#e6c9b3" fill-opacity=".5" rx="15" ry="1"/><path fill="#aa6c55" fill-opacity=".5" d="M163.9 139.1l19.7-13.7-11.1-27.5 8.1 49.9z"/><path fill="#a86449" fill-opacity=".5" d="M3 57h59v4H3z"/><ellipse cx="10" cy="237" fill="#ca9177" fill-opacity=".5" rx="86" ry="2"/><path fill="#ab6f54" fill-opacity=".5" d="M129.1 78.7l54.8-21.6-51.3.7 49.2 21.3z"/><path fill="#c69277" fill-opacity=".5" d="M102 225h34v2h-34z"/><ellipse cx="136" cy="201" fill="#c99275" fill-opacity=".5" rx="43" ry="1"/><ellipse cx="64" fill="#aa7b66" fill-opacity=".5" rx="43" ry="2"/><path fill="#b0765a" fill-opacity=".5" d="M181 85l-55.2 3.2-18.5-61-4 30.1z"/><path fill="#ab6f54" fill-opacity=".5" d="M33 82.4l-49-4.3 12.8-1.6 47.9-12.9z"/><path fill="#a3664d" fill-opacity=".5" d="M13 94h33v4H13z"/><path fill="#c28467" fill-opacity=".5" d="M33 176h51v4H33z"/><ellipse cx="181" cy="95" fill="#c59783" fill-opacity=".5" rx="1" ry="28"/><path fill="#b16f54" fill-opacity=".5" d="M183.5 163.2l-48.4-32.3-2.1 1.1 13.5 21.8z"/><path fill="#af7459" fill-opacity=".5" d="M51 228h130v5H51z"/><path fill="#b47c62" fill-opacity=".5" d="M23.1 94.8l4.3-7.3L6.6 116 1.7 77.4z"/><path fill="#b67d60" fill-opacity=".5" d="M58 32h73v2H58z"/><ellipse cx="15" cy="5" fill="#9d624c" fill-opacity=".5" rx="67" ry="3"/><ellipse cx="49" cy="46" fill="#ad6c52" fill-opacity=".5" rx="94" ry="8"/><path fill="#9c5944" fill-opacity=".5" d="M107 22h69v2h-69z"/><path fill="#b37055" fill-opacity=".5" d="M25 223h126v3H25z"/><ellipse cx="130" cy="107" fill="#ac6b50" fill-opacity=".5" rx="50" ry="2"/><circle r="1" fill="#c28267" fill-opacity=".5" transform="matrix(.20523 1.6498 -21.66393 2.69498 3.3 151.5)"/><path fill="#a66d58" fill-opacity=".5" d="M156 21h26v33h-26z"/><ellipse cx="149" cy="13" fill="#bc876c" fill-opacity=".5" rx="30" ry="1"/><ellipse cx="48" cy="239" fill="#e9d1c1" fill-opacity=".5" rx="60" ry="1"/><ellipse cx="23" cy="69" fill="#bd8d75" fill-opacity=".5" rx="26" ry="1"/><path fill="#fff" fill-opacity=".5" d="M52.7 239.5L-16 251.4 211.9 271 59.4 238.4z"/><ellipse cx="70" cy="129" fill="#b97e62" fill-opacity=".5" rx="63" ry="2"/><path fill="none" stroke="#d4b3a3" stroke-opacity=".5" stroke-width=".5" d="M181.9 130q2.8 29.6 0 109.5"/><path fill="#be876b" fill-opacity=".5" d="M149 104l-4-11 33 13z"/><ellipse cx="40" cy="37" fill="#9e5a46" fill-opacity=".5" rx="11" ry="3"/><path fill="#b5836a" fill-opacity=".5" d="M-16 8l38 8-36 2z"/><ellipse cx="150" cy="238" fill="#ddad93" fill-opacity=".5" rx="27" ry="1"/><ellipse cx="161" cy="112" fill="#d4aa8e" fill-opacity=".5" rx="9" ry="1"/><ellipse cx="145" cy="42" fill="#bf896e" fill-opacity=".5" rx="23" ry="1"/></g></g></svg>