<svg xmlns="http://www.w3.org/2000/svg" viewBox="0 0 1000 1400"><defs/><filter id="a"><feGaussianBlur stdDeviation="12"/></filter><rect width="100%" height="100%" fill="#2d3139"/><g filter="url(#a)"><g fill-opacity=".5" transform="translate(2.7 2.7) scale(5.46875)"><circle r="1" fill="#fffff9" transform="matrix(43.79454 153.55358 -175.0208 49.91714 79.1 139.1)"/><ellipse cx="55" cy="206" rx="103" ry="28"/><circle r="1" fill="#fffff7" transform="matrix(.7565 -60.96303 145.63065 1.80714 182 125)"/><circle r="1" fill="#fff" transform="matrix(7.73013 122.86683 -32.33851 2.03457 182 167.2)"/><path fill="#e3e7e1" d="M0 234h183v22H0z"/><circle cx="89" cy="28" r="85" fill="#a79b74"/><circle r="1" fill="#c5c2b2" transform="matrix(21.03534 33.8508 -95.12903 59.11443 38.1 115.1)"/><path fill="#3e4249" d="M134 174l-150 59h187z"/><path fill="#2e3329" d="M78.3 155.8l-25.6-3.2-3.4 77.3 15.1-61.5z"/><circle r="1" fill="#fff" transform="matrix(24.55641 -2.77187 11.4917 101.80673 182 160)"/><circle r="1" fill="#ffe" transform="matrix(10.18285 -19.64998 23.1459 11.99448 114.7 137.4)"/><path fill="#12191d" d="M74.5 181v26h-111v-26z"/><ellipse cx="172" cy="9" fill="#908264" rx="159" ry="33"/><path fill="#585a5d" d="M81.2 235.7l87.8-6.9-48.5-54.7-1.4-21.4z"/><path fill="#dfdecb" d="M62 162h29v19H62z"/><path fill="#c5c4b5" d="M9 100h42v81H9z"/><path fill="#2e3128" d="M92 150h3v78h-3z"/><path fill="#2f352f" d="M68 206l-3-31-20-23z"/><path fill="#2a2f30" d="M144 204l-5-24-65 1z"/><path fill="#cac8bd" d="M129-16l-19 52 29-29z"/><path fill="#fff9e5" d="M121 113h15v68h-15z"/><ellipse cx="145" cy="83" fill="#8c8e7c" rx="4" ry="45"/><path fill="#7f755f" d="M91 144h29v4H91z"/><circle r="1" fill="#dfe3e5" transform="rotate(14.1 -916.2 776.9) scale(39.39284 10.82479)"/><path fill="#77715d" d="M195.4-3.6l-45 57.5-15.8-12.3 45-57.5z"/><path fill="#fcfbeb" d="M97 147h20v28H97z"/><path fill="#26292b" d="M0 181h31v52H0z"/><path fill="#948b8b" d="M130.2 230L118 207.2l9.8-5.2 12.2 23z"/><path fill="#665327" d="M106 14l2 22 15-46z"/><path fill="#1a1805" d="M87 176h34v2H87z"/><path fill="#a9aca8" d="M0 233h89v23H0z"/><ellipse cx="85" cy="14" fill="#61512e" rx="4" ry="24"/><ellipse cx="118" cy="179" fill="#3f403c" rx="2" ry="36"/><ellipse cx="54" cy="66" fill="#a9a593" rx="92" ry="27"/><circle r="1" fill="#c1b79b" transform="matrix(-4.99062 36.04446 -6.60542 -.91457 97.3 4)"/><path fill="#b7b8af" d="M37 81h107v35H37z"/><path fill="#dde4e2" d="M153.7 61.8L198 51.1l-32.8 26.6-18.8 43.3z"/><circle r="1" fill="#595a4a" transform="matrix(13.65327 -.8477 .25616 4.12573 54.9 157.6)"/><path fill="#f7f8f6" d="M186 220.2l-39.4-24.6 30.5-134.9 7-33.5z"/><ellipse cx="101" cy="180" fill="#a5a89b" rx="59" ry="2"/><path fill="#a38e87" d="M96 205h5v27h-5z"/><path fill="#bdb59c" d="M54.5 28.8l-9.7 5.1L27.5 1.2l9.7-5.1z"/><path fill="#43474e" d="M5.2 222l152.5-30.2-58.3-3.2-82.2 13.2z"/><path fill="#fff9e8" d="M84.4 133.2l5.8-20.2 41.4 11.8-5.8 20.2z"/><path fill="#bdb394" d="M63.2 22.9l6.1 14.7L79 11.7 55.4-16z"/><path fill="#918a6f" d="M-5 4l31 34-31 34z"/><path fill="#cccabd" d="M25 127h69v28H25z"/><path fill="#736648" d="M68 40L55-16l-2 38z"/><path fill="#acaea1" d="M136.4 174.7l41.5 46.4-21-12.4-4.9-5z"/><ellipse cx="140" cy="147" fill="#bdb99f" rx="4" ry="38"/><path fill="#444a57" d="M104.9 232.5l58.7 1.5-48.3-44.4 46.9 27.1z"/><circle r="1" fill="#afb3a0" transform="matrix(-3.86035 -4.75637 31.69056 -25.72058 182 43.3)"/><path fill="#dde1dd" d="M144.2 161.2l3.7-46.5 24.5 61.2-12.8 30.7z"/><path fill="#343838" d="M46 181h92v8H46z"/><path fill="#776b4f" d="M161.4-22.7l-28.5 58.4-6.3-3 28.5-58.4z"/><path fill="#766d69" d="M52.4 207.8l1-9.9-9.2 7.9-14.5 33.9z"/><circle r="1" fill="#c2beaa" transform="matrix(18.77474 -26.8882 1.53767 1.07368 150.8 11.6)"/><path fill="#807a7f" d="M117 220l-9-20 3 33z"/><path fill="#c6c7be" d="M54 179l-21-33-1 34z"/><path fill="#111c28" d="M39 231l10 2 8-29z"/><path fill="#807760" d="M28.9 32.4l-.5-11.3L14.7-16l34.8 59z"/><path fill="#cbc8ba" d="M92 179l-2-56-25 57z"/><path fill="#272f37" d="M60 172l-29 61H7z"/><path fill="#141914" d="M67.5 191.9l-26 2.2-35.6-11 23.6-2z"/><ellipse cx="57" cy="158" fill="#505246" rx="18" ry="4"/><circle r="1" fill="#5d5d68" transform="matrix(10.56691 -21.52011 2.57706 1.2654 65.1 207.8)"/><path fill="#b5b4a2" d="M98.4 167.6l-.3-8.1 21.4-.5-5.5 3.2z"/><ellipse cx="97" cy="153" fill="#fff" rx="4" ry="7"/><path fill="#fff" d="M173 63h10v171h-10z"/><ellipse cx="67" cy="235" fill="#cccfcd" rx="70" ry="2"/><path fill="#32393c" d="M104 186.2l-33.2 20.7-7.1-31.4-29.3 12.9z"/><path d="M50.2 160l2-.5 3.6 12.5-2 .5z"/><path fill="#756e56" d="M91 148h4v27h-4z"/><circle r="1" fill="#75684c" transform="matrix(-3.22986 -2.76832 34.35654 -40.08446 178.8 .1)"/><path fill="#c9cbbf" d="M84 179h40v2H84z"/><path fill="#8f8b79" d="M179 10.7L190.8 23 149 63.3 137.2 51z"/><path fill="#a5a08c" d="M125 36L8 38l-24 78z"/><path fill="#897d7d" d="M136.6 234.3l2.4-3.2-17.3-36.4 7.9 35.8z"/><path fill="#bbbcaf" d="M89 73h56v44H89z"/><circle r="1" fill="#5f5e59" transform="matrix(17.38392 23.12109 -1.62859 1.22448 153.6 211.2)"/><path fill="#a1a496" d="M156.2 198.5l-3.6-15-18.1-7.3 20.6 28.9z"/><path fill="#b3ab91" d="M31.4 45l-46.7-55.6L2.3-3.5l19.4 20.9z"/><ellipse cx="104" cy="220" fill="#20292f" rx="2" ry="14"/><path fill="#eff1f1" d="M149 234h27v8h-27z"/><path fill="#a4a090" d="M148.1-16l-5.7 19.4-28.5 48.3-14.5 4z"/><path fill="#343d3f" d="M151.9 230.7L133 186.5l26.8 48.2-10.7-3.3z"/><path fill="#fbfbfc" d="M157.5 204.1l3-7.3 12 5-3 7.4z"/><path fill="#9b9f97" d="M169 213l5-4-19-3z"/><circle r="1" fill="#bcbbb0" transform="rotate(56.2 -105.4 95.4) scale(17.58743 47.69834)"/><path fill="#cdcdc6" d="M68 177l19-3-27-13z"/><path fill="#222b2d" d="M90 203h5v30h-5z"/><path fill="#3e3e30" d="M100 175h19v3h-19z"/><path fill="#979783" d="M119 177.5l.3-2 15.7 3-.3 2z"/><path fill="#feffff" d="M163 216l12 20-5-20z"/><circle r="1" fill="#b0ae9f" transform="rotate(-106.5 61 22) scale(13.12657 87.29904)"/><path fill="#f8f1e3" d="M128 121h9v56h-9z"/><path fill="#faf5e8" d="M117.2 143.4l14.4 34.1-1.9-56.7-50.2 21.5z"/><path fill="#988e74" d="M39.7-16l26.7 57.3-14.4-.7-17-52.1z"/><path fill="#6e6f72" d="M159.7 214.2l-14.5-6.4 11.4 21.3 13.2 5.8z"/><path fill="#d5dad8" d="M171.8 70.3l-23.5 18.2 4.5-17.4 30.6-23.4z"/></g></g></svg>