<svg xmlns="http://www.w3.org/2000/svg" viewBox="0 0 1120 1400"><defs/><filter id="prefix__a"><feGaussianBlur stdDeviation="12"/></filter><rect width="100%" height="100%" fill="#82563d"/><g filter="url(#prefix__a)"><g transform="translate(2.7 2.7) scale(5.46875)"><circle r="1" fill="#feffff" fill-opacity=".5" transform="matrix(-152.43152 134.06578 -82.75033 -94.08634 52.5 115.7)"/><circle cx="161" cy="57" r="74" fill="#ebfdea" fill-opacity=".5"/><circle r="1" fill="#e7fffe" fill-opacity=".5" transform="matrix(-38.55912 13.80616 -68.43034 -191.11852 19.5 187)"/><circle r="1" fill="#967659" fill-opacity=".5" transform="matrix(32.60068 44.21848 -64.29931 47.40554 156.6 190.7)"/><circle r="1" fill="#738165" fill-opacity=".5" transform="matrix(-15.00627 109.54845 -29.65832 -4.06269 55 57.5)"/><ellipse cx="159" cy="171" fill="#d4e3dc" fill-opacity=".5" rx="176" ry="12"/><ellipse cx="153" cy="149" fill="#1b1100" fill-opacity=".5" rx="44" ry="7"/><ellipse cx="3" cy="55" fill="#effcf2" fill-opacity=".5" rx="20" ry="127"/><circle r="1" fill="#d7e0d7" fill-opacity=".5" transform="matrix(-54.0429 108.73037 -24.33393 -12.09484 66.8 173.9)"/><circle cx="135" cy="234" r="53" fill="#9b613f" fill-opacity=".5"/><ellipse cx="99" cy="11" fill="#e8ecdd" fill-opacity=".5" rx="12" ry="172"/><path fill="#90907a" fill-opacity=".5" d="M27 0h61v143H27z"/><ellipse cx="114" cy="166" fill="#553d1b" fill-opacity=".5" rx="3" ry="38"/><circle r="1" fill="#bdbaac" fill-opacity=".5" transform="matrix(-28.32368 -12.37431 18.59749 -42.56797 50 154.9)"/><ellipse cx="178" cy="124" fill="#e2eae1" fill-opacity=".5" rx="92" ry="7"/><path fill="#2a2511" fill-opacity=".5" d="M96 134l30.9-2.7 39.5-.5 34.1 2.5z"/><path fill="#9b6c4d" fill-opacity=".5" d="M85 183h119v73H85z"/><path fill="#e1e5e5" fill-opacity=".5" d="M90.2 185.5l-106.1 46.3 91 39.2 10.5-50.7z"/><path fill="#79745c" fill-opacity=".5" d="M37 102V17l34 70z"/><ellipse cx="133" cy="187" fill="#744b2d" fill-opacity=".5" rx="45" ry="5"/><path fill="#251500" fill-opacity=".5" d="M115 131h89v2h-89z"/><path fill="#dcdcce" fill-opacity=".5" d="M88 0h24v182H88z"/><path fill="#9c9684" fill-opacity=".5" d="M42 89.2l-9.6 62.5L71.8 163l-56.2 2.9z"/><path fill="#cdcdc5" fill-opacity=".5" d="M160.5 165.5h47v17h-47z"/><path fill="#aea896" fill-opacity=".5" d="M117 156h87v14h-87z"/><path fill="#a47354" fill-opacity=".5" d="M87 189h117v36H87z"/><ellipse cx="180" cy="152" fill="#392611" fill-opacity=".5" rx="66" ry="3"/><ellipse cx="25" cy="79" fill="#aeb0a1" fill-opacity=".5" rx="5" ry="82"/><path fill="#e5eeeb" fill-opacity=".5" d="M36 209L.2 276.3-36 256.9l35.6-67z"/><path fill="#9ea999" fill-opacity=".5" d="M114 134h90v10h-90z"/><path fill="#e4e6db" fill-opacity=".5" d="M89 84h50v47H89z"/><circle r="1" fill="#c2c0b5" fill-opacity=".5" transform="matrix(7.02937 7.25374 -28.79945 27.9086 84.4 175.8)"/><circle cx="190" cy="35" r="96" fill="#d3d0bf" fill-opacity=".5"/><path fill="#868872" fill-opacity=".5" d="M80 38h8v89h-8z"/><path fill="#b4b29e" fill-opacity=".5" d="M46 100h32v44H46z"/><path fill="#60543d" fill-opacity=".5" d="M185 153l-6-11 40 1z"/><path fill="#d7d9cd" fill-opacity=".5" d="M95 145.5l-72.5 1.6 70.8 13.5L171 40.7z"/><path fill="#764e32" fill-opacity=".5" d="M205 192h-72v-8h72z"/><path fill="#524029" fill-opacity=".5" d="M116 156l27-8-26-5z"/><path fill="#ae7e62" fill-opacity=".5" d="M219 197.4l-16.2 55.7-9.3-38.4-20.2-24.5z"/><path fill="#dadfd2" fill-opacity=".5" d="M-16 41l39 75-3-132z"/><path fill="#d1d1c8" fill-opacity=".5" d="M117 156h13v27h-13z"/><path fill="#d7dbd5" fill-opacity=".5" d="M0 166h74v16H0z"/><ellipse cx="93" cy="254" fill="#946745" fill-opacity=".5" rx="12" ry="34"/><path fill="#8a856f" fill-opacity=".5" d="M28 108h59v5H28z"/><path fill="#7d7a61" fill-opacity=".5" d="M30 92.2l57.9-31.4.5 1.3-3.9 25z"/><path fill="#e5eae9" fill-opacity=".5" d="M84.2 210l-6.5 25.2-9.3-29.5 9.1-6.4z"/><ellipse cx="76" cy="132" fill="#d5d6cb" fill-opacity=".5" rx="34" ry="4"/><ellipse cx="75" cy="92" fill="#b5b4a1" fill-opacity=".5" rx="14" ry="5"/><path fill="#8c8b76" fill-opacity=".5" d="M51 81.6l-28.4-99L37-21.6l28.4 99z"/><path fill="#2b1905" fill-opacity=".5" d="M123 131h1v16h-1z"/><circle r="1" fill="#cdccb9" fill-opacity=".5" transform="rotate(-103.4 106.3 -63) scale(130.58276 22.31364)"/><path fill="#5c4b31" fill-opacity=".5" d="M112 130h2v40h-2z"/><path fill="#dadacd" fill-opacity=".5" d="M104 58h61v73h-61z"/><ellipse cx="176" cy="160" fill="#a3947f" fill-opacity=".5" rx="37" ry="4"/><path fill="#cacac0" fill-opacity=".5" d="M121 178h80v5h-80z"/><path fill="#bcbba8" fill-opacity=".5" d="M38 113h50v7H38z"/><path fill="#989580" fill-opacity=".5" d="M27 121h53v6H27z"/><path fill="#895f40" fill-opacity=".5" d="M89 183h54v11H89z"/><path fill="#a19d8b" fill-opacity=".5" d="M72.4 159.5l-51.5 2.8L32.6 47.9l-2.4 110.6z"/><circle r="1" fill="#9c9e8d" fill-opacity=".5" transform="matrix(-.76504 37.3836 -15.4484 -.31615 72.6 4.3)"/><path fill="#a6a391" fill-opacity=".5" d="M34 138h52v8H34z"/><path fill="#48320f" fill-opacity=".5" d="M114.5 157h1v36h-1z"/><path fill="#83765e" fill-opacity=".5" d="M114.5 145.7l95 1.6v1l-95-1.6z"/><path fill="#998f7c" fill-opacity=".5" d="M145 135h59v9h-59z"/><path fill="#5a4630" fill-opacity=".5" d="M173 148.8l-44.8 3.5 1.2-23.1 1.2 20z"/><ellipse cx="143" cy="255" fill="#92674a" fill-opacity=".5" rx="63" ry="39"/><path fill="#e2e3d8" fill-opacity=".5" d="M84.4 159l32.2-55.6-.8 40.8-14.7-82z"/><path fill="#7c765f" fill-opacity=".5" d="M34 94h37v6H34z"/><path fill="#c9beb4" fill-opacity=".5" d="M64.4 268.4l20.5-46-4.8 37.5-19.5-4.2z"/><path fill="#c6c3b8" fill-opacity=".5" d="M41.4 190.6l46.2 5.1 7.4-66.4 10.6 33.3z"/><path fill="#4e3d2c" fill-opacity=".5" d="M172 149h32v7h-32z"/><path fill="#bfbaaa" fill-opacity=".5" d="M26 144h26v13H26z"/><ellipse cx="162" cy="131" fill="#70634e" fill-opacity=".5" rx="48" ry="1"/><path fill="#767158" fill-opacity=".5" d="M85 87L45 73l-6 14z"/><path fill="#b5ac9d" fill-opacity=".5" d="M167.4 165.7l-36.2 14.5-5.4-22.2 11.2-3.2z"/><path fill="#d5d8d0" fill-opacity=".5" d="M16 45h5v135h-5z"/><path fill="#e8e8d9" fill-opacity=".5" d="M89 7h7v134h-7z"/><path fill="#301f0f" fill-opacity=".5" d="M179.5 132.5v21h-1v-21z"/><path fill="#3e2b18" fill-opacity=".5" d="M172.1 155.5l.8-23h1l-.8 23z"/><path fill="#cfcdc1" fill-opacity=".5" d="M91 136h21v47H91z"/><ellipse cx="173" cy="145" fill="#625641" fill-opacity=".5" rx="60" ry="2"/><path fill="#3b2404" fill-opacity=".5" d="M111 142.2l3-10.6 1 .2-3 10.6z"/><circle r="1" fill="#858572" fill-opacity=".5" transform="matrix(7.34954 .00668 -.06411 70.54519 40 8.4)"/><path fill="#594730" fill-opacity=".5" d="M166 132h2v14h-2z"/><path fill="#544231" fill-opacity=".5" d="M141 133h2v20h-2z"/><path fill="none" stroke="#45311f" stroke-opacity=".5" stroke-width=".5" d="M147.3 153.9q1.7-8.2 1-18.6"/><path fill="#412b11" fill-opacity=".5" d="M130 149l-14 1-1 6z"/><path fill="#e3eae1" fill-opacity=".5" d="M119.5 142.1l-1.8-.9 2.8-5.3 1.8.9z"/><path fill="#a39f8a" fill-opacity=".5" d="M53 89h19v7H53z"/><path fill="#b9b7a5" fill-opacity=".5" d="M47 125.7l34 10.5 11.2 7.2-59.8-10.8z"/><circle r="1" fill="#96947f" fill-opacity=".5" transform="matrix(18.76158 2.50441 -4.1896 31.38596 66.5 46.2)"/><path fill="#949b90" fill-opacity=".5" d="M32.6 45.1l-8-.3 2.8-78 8 .4z"/><path fill="#988b75" fill-opacity=".5" d="M113.1 108l-.3 67.3 2.7-20.1-2.6-8.2z"/><path fill="#d7d8d3" fill-opacity=".5" d="M84 200l-52 8-48-22z"/><ellipse cx="160" cy="144" fill="#503e29" fill-opacity=".5" rx="1" ry="12"/><path fill="#998a6f" fill-opacity=".5" d="M141 155h37v3h-37z"/><path fill="#bab9ac" fill-opacity=".5" d="M26 162h55v4H26z"/><circle r="1" fill="#bcbdae" fill-opacity=".5" transform="matrix(-1.62284 -.00416 .17378 -67.72774 23.2 82)"/><path fill="#ecede5" fill-opacity=".5" d="M15 147.5h-30v-63h30z"/></g></g></svg>