<svg xmlns="http://www.w3.org/2000/svg" viewBox="0 0 1000 1400"><defs/><filter id="a"><feGaussianBlur stdDeviation="12"/></filter><rect width="100%" height="100%" fill="#523b2c"/><g filter="url(#a)"><g fill-opacity=".5" transform="translate(2.7 2.7) scale(5.46875)"><ellipse cx="153" cy="205" fill="#fff" rx="60" ry="255"/><circle r="1" fill="#f6f7cb" transform="matrix(8.03148 36.22766 -177.68587 39.39201 145.4 221.7)"/><path fill="#fff" d="M115-16L-16 5l128 33z"/><path fill="#ffffe5" d="M70.7 123.4l-66 34.5L46 169.8l25.2-28.9z"/><ellipse cx="141" cy="138" fill="#ecedbf" rx="44" ry="69"/><circle r="1" fill="#706833" transform="rotate(-44.6 105 -166.1) scale(23.08577 170.48282)"/><path fill="#100" d="M105 44l7 32-13 30z"/><ellipse cx="9" cy="6" fill="#e1e8cb" rx="72" ry="13"/><circle r="1" fill="#bdb596" transform="rotate(16.2 -794.2 421.1) scale(97.34724 26.63014)"/><path fill="#c5c297" d="M148.4 93.6l49.6 16.7L64.1-16l2.7 29.3z"/><circle r="1" fill="#815a32" transform="matrix(-22.70914 -6.08712 19.75017 -73.68165 0 215)"/><path fill="#2b2009" d="M24 170h72v35H24z"/><path fill="#d8d5af" d="M73.1 129.3L58 161.6l-27.4 10.8L18 144.2z"/><path fill="#473417" d="M97 117l-1 72-58-9z"/><circle r="1" fill="#c5c0a7" transform="matrix(9.18588 19.43287 -93.2533 44.08063 91.9 228.3)"/><circle r="1" fill="#4d3e20" transform="matrix(6.91587 -28.61786 57.79202 13.96617 51.4 51.8)"/><path fill="#453315" d="M41 139l51-23-107-26z"/><path fill="#cecaae" d="M97.4 41.4L198 170.2 90.5 11.9l-54-5.7z"/><ellipse cx="96" cy="73" fill="#5a4121" rx="17" ry="26"/><path fill="#77694e" d="M-9 247l55.2-30.5 39.5-11.2-50.2-6.8z"/><path fill="#d2ceb1" d="M99 102h84v98H99z"/><path fill="#564025" d="M69 138h27v68H69z"/><circle r="1" fill="#90886b" transform="rotate(158.6 86 16.3) scale(73.92161 28.45466)"/><path fill="#ada583" d="M122 31l68 65 8 61z"/><path fill="#806649" d="M27.3 166.2l-24.6 4.3-4-22.7 24.6-4.3z"/><path fill="#21170e" d="M72.5 160.8l-43.3 12.7-9.5 51.6 52.1-87.3z"/><path fill="#2e2314" d="M73 27l-36-9L9 31z"/><path fill="#d6d2ad" d="M88.7 31.4l41 43.7-11.9 25.8-11.5-64.4z"/><path fill="#cccbbb" d="M25 16l-36 2 21-34z"/><circle r="1" fill="#5a4328" transform="rotate(-142.1 55.9 29.1) scale(25.85886 36.46155)"/><path fill="#c8c3a6" d="M198 265l-94-141-17 147z"/><circle r="1" fill="#4a361c" transform="matrix(64.35785 -10.92344 4.76301 28.06232 16.2 116)"/><path fill="#886543" d="M3.9 151.7l20 69.4L.5 271-16 125.8z"/><circle r="1" fill="#81734d" transform="rotate(-137.9 102.7 .2) scale(79.41493 10.06127)"/><path fill="#ccc6a8" d="M25.7 168.1l48-44.2-19.9 40.4-13.8 6.5z"/><path fill="#bdb9a8" d="M18 12l83 19L72-5z"/><path fill="#cec8a8" d="M23.5 143.4l28.5-5.5 2.5 12.7-28.5 5.5z"/><path fill="#1e130b" d="M29 193l2-22 59 32z"/><path fill="#554025" d="M72 110h25v80H72z"/><ellipse cx="10" cy="27" fill="#3a2e1e" rx="56" ry="9"/><path fill="#aea789" d="M100 0L63-3l83 70z"/><path fill="#d2cdaf" d="M106 151l24-89-33 48z"/><circle r="1" fill="#c4bea3" transform="rotate(89.3 -72.1 167.3) scale(32.52238 24.5044)"/><circle r="1" fill="#57422a" transform="matrix(2.379 23.4208 -43.2076 4.38887 68.7 70)"/><circle r="1" fill="#221810" transform="rotate(131.8 -10.4 96.9) scale(13.17071 5.71032)"/><circle r="1" fill="#d7d4bc" transform="matrix(-19.07292 6.71664 -13.05069 -37.05944 182 191.5)"/><circle r="1" fill="#352614" transform="matrix(-6.65664 16.81276 -2.78866 -1.1041 73.2 137.7)"/><path fill="#5e4528" d="M11 144.5l17.3 53 11.4-.8-21 25.2z"/><path fill="#c4c0ad" d="M26.1 17.2L.6 19l-6.8-35L98.9 29.2z"/><path fill="#d0cbab" d="M118.6 55.5l-13.7 52L134.4 67l-11.2-11.5z"/><circle r="1" fill="#47351c" transform="matrix(14.66112 41.69105 -27.44674 9.65195 4.5 102.8)"/><path fill="#553f27" d="M14.3 94.3l40.4 40.1 39.4-17.7 17.1-38.1z"/><circle r="1" fill="#97917f" transform="matrix(-35.71678 -24.82925 4.18085 -6.01413 170.3 16)"/><path fill="#cec7aa" d="M72 127l-7 22-25 13z"/><path fill="#81694e" d="M23.8 143.3l7 31.4-38.1-26.5 25-3z"/><path fill="#b2aa8e" d="M54.1 232l-23.6 58.4L-.1 278l23.6-58.4z"/><path fill="#8a846a" d="M18.3 231.6l10.8-27.1 37.3-1.4 11 3.5z"/><path fill="#948b70" d="M114 25.7L80.2-3.8 94-19.7l34 29.5z"/><path fill="#c8c0a3" d="M97.4 175.7l1.4-60.8 21.4 22.9L92.1 271z"/><path fill="#5c452b" d="M77 169h19v32H77z"/><path fill="#8e6f4c" d="M8.9 249l3.4-49.4-28.3-36.1L6.9 269.7z"/><circle r="1" fill="#c3bb9e" transform="matrix(-6.97738 -10.40306 14.27323 -9.57312 48.2 150.6)"/><circle r="1" fill="#362818" transform="matrix(2.08663 -5.9229 26.04087 9.17415 63.5 194)"/><path fill="#5f482f" d="M81 81.7L41 52.1l70.6 13.7 2.1 6z"/><path fill="#bfb696" d="M110.7 25.7l-31.8 1.2 53.4 41.6 28.1 27.8z"/><path fill="#c7c0a4" d="M28 157h15v13H28z"/><path fill="#25190f" d="M30 170h22v29H30z"/><circle r="1" fill="#847b61" transform="matrix(58.44385 54.7237 -6.36136 6.79381 157.7 28.9)"/><circle r="1" fill="#534129" transform="matrix(3.26909 24.47973 -28.68779 3.83104 66.2 52.7)"/><path fill="#c9c4a8" d="M159.4 118.5l2.5 39.3-4.6-75.4 40.7 61.7z"/><path fill="#81745a" d="M80.6 121.5l-15.1 10.6 32.8-27.6-1.5 6.9z"/><path fill="#d0cdb4" d="M183.8 261.9l-29.9 11.4-9.7-25.2 29.9-11.4z"/><path fill="#6f5033" d="M25.4 182.1l-9.7-31-31.7 24.1 44.8-5.7z"/><path fill="#5d4b2d" d="M94 114h4v49h-4z"/><circle r="1" fill="#4f3d26" transform="matrix(7.82072 -1.76248 4.79549 21.27927 102.3 65)"/><path fill="#392918" d="M52.5 191.9l-15.4-2.2 17.1-25.3 42.2-56.9z"/><path fill="#281b10" d="M28 188.4l31.4-20.5L72 132l-.1 14.3z"/><circle r="1" fill="#a59d81" transform="matrix(-9.85424 5.51977 -2.82095 -5.03613 38.3 221.7)"/><path fill="#d4d0b3" d="M97 108h47v5H97z"/><path fill="#e0dbbe" d="M73 126l-19 10 10 5z"/><path fill="#675840" d="M21.6 217.1l31.4-18-19-1.5-28.7 62z"/><path fill="#cec8ad" d="M99 195l86-2-87-39z"/><path fill="#a9a082" d="M150.3 71.4l47.7 53.4-44-67.1 4.4 16.3z"/><path fill="#d0cbaf" d="M170.6 141.7L101.8 38.4l12.3 29.4-5.8 46.1z"/><path fill="#c7bfa1" d="M70.8 136.8l-13.1 16L17 145l45.5-8.4z"/><circle r="1" fill="#c2bdab" transform="matrix(-25.84432 -12.396 4.2944 -8.95337 67.7 14.8)"/><path fill="#c3bda2" d="M75 209l16 61 34-72z"/><path fill="#61492f" d="M65.7 70l4-14.4 38.6 10.3-4 14.5z"/><circle r="1" fill="#3d2f1f" transform="matrix(24.89744 -5.24671 1.52986 7.25969 8.3 27.5)"/><path fill="#493720" d="M64.2 211l13.4-67 21.6-2.7L73 124.5z"/><ellipse cx="47" cy="30" fill="#463722" rx="25" ry="8"/><path fill="#4e3a22" d="M107.4 59.7l-9 41.8 12-14.5 1.4-23.3z"/><path fill="#817452" d="M182.3 92.9l1.9-30.4L156 40.9l13.9 33.9z"/><ellipse cx="13" cy="138" fill="#40301b" rx="26" ry="4"/><circle r="1" fill="#b5b1a1" transform="matrix(1.86288 -3.80789 30.01033 14.68154 75 7.5)"/><circle r="1" fill="#d1ccb0" transform="matrix(4.06643 -16.14261 6.40826 1.61428 105.2 115)"/><path fill="#beb69c" d="M167.2 103.6l-35.8-33.4 5.4-5.8 35.8 33.4z"/><path fill="#634325" d="M10.2 181.9l11.5 24.5 1.2 17.6 6.4-58.8z"/><path fill="#cfc8a9" d="M60 133l-34 11h38z"/><path fill="#382b18" d="M92 196l1 8-23-3z"/></g></g></svg>