<svg xmlns="http://www.w3.org/2000/svg" viewBox="0 0 1120 1400"><defs/><filter id="a"><feGaussianBlur stdDeviation="12"/></filter><rect width="100%" height="100%" fill="#9b5e49"/><g filter="url(#a)"><g fill-opacity=".5" transform="translate(2.7 2.7) scale(5.46875)"><circle cx="19" cy="148" r="239" fill="#ffefe4"/><ellipse cx="104" cy="128" fill="#9b4725" rx="77" ry="111"/><ellipse cx="192" cy="155" fill="#fff" rx="15" ry="255"/><ellipse cx="8" cy="136" fill="#fff" rx="17" ry="255"/><ellipse cx="100" cy="248" fill="#fff" rx="203" ry="13"/><ellipse cx="98" cy="8" fill="#fff" rx="203" ry="12"/><path fill="#a75d40" d="M26 20h54v73H26z"/><ellipse cx="198" cy="146" fill="#fff" rx="20" ry="255"/><ellipse cx="10" cy="102" fill="#fff" rx="14" ry="255"/><path fill="#914e34" d="M127 175h52v61h-52z"/><ellipse cx="101" cy="7" fill="#fff" rx="148" ry="13"/><path fill="#99573e" d="M126 20h53v72h-53z"/><ellipse cx="69" cy="248" fill="#fff" rx="203" ry="13"/><path fill="#ac6a50" d="M25 157h152v78H25z"/><ellipse cx="194" cy="103" fill="#fff" rx="16" ry="249"/><ellipse cx="7" cy="143" fill="#fff" rx="17" ry="255"/><ellipse cx="107" cy="247" fill="#fff" rx="203" ry="11"/><path fill="#b4765d" d="M26 28h151v208H26z"/><ellipse cx="104" cy="6" fill="#fff" rx="203" ry="13"/><ellipse cx="58" cy="123" fill="#c18166" rx="34" ry="79"/><path fill="#a1634c" d="M27 21h152v25H27z"/><ellipse cx="191" cy="214" fill="#fff" rx="14" ry="220"/><ellipse cx="7" cy="170" fill="#fff" rx="17" ry="255"/><ellipse cx="99" cy="8" fill="#fff" rx="203" ry="11"/><ellipse cx="90" cy="247" fill="#fff" rx="203" ry="11"/><path fill="#a56a52" d="M27 206h146v28H27z"/><path fill="#b1745b" d="M25 32h151v80H25z"/><path fill="#a66f58" d="M149 21h30v155h-30z"/><path fill="#fff" d="M180 20h24v229h-24z"/><path fill="#9a604b" d="M152 186h26v49h-26z"/><path fill="#c28469" d="M25 111h87v44H25z"/><ellipse cy="215" fill="#fff" rx="25" ry="195"/><circle r="1" fill="#b5785e" transform="matrix(36.56252 14.29122 -8.88464 22.73038 64.7 209.6)"/><ellipse cx="98" cy="5" fill="#fff" rx="203" ry="14"/><ellipse cx="118" cy="247" fill="#fff" rx="203" ry="11"/><path fill="#aa6c53" d="M25 20h62v25H25z"/><circle cx="101" cy="94" r="45" fill="#b7785e"/><ellipse cx="1" cy="43" fill="#fff" rx="23" ry="255"/><ellipse cx="194" cy="82" fill="#fff" rx="15" ry="255"/><path fill="#be8167" d="M25 61h21v124H25z"/><path fill="#a16550" d="M174 22v37l-45-39z"/><circle r="1" fill="#fff" transform="matrix(-34.58451 -5.47765 3.01078 -19.00934 112.3 254.8)"/><path fill="#9f6650" d="M124 219h55v16h-55z"/><ellipse cx="178" cy="59" fill="#b7a7a1" rx="1" ry="35"/><path fill="#cad1cf" d="M178 121h1v89h-1z"/><path fill="#b7765c" d="M60 155h55v36H60z"/><ellipse cx="57" cy="19" fill="#d1cec6" rx="33" ry="1"/><circle r="1" fill="#ab6f56" transform="matrix(-9.0423 -19.12914 30.01606 -14.18852 146.2 182.8)"/><path fill="#b77b61" d="M24.2 42.5l.4 8.2 117.1 17.9L25 76.8z"/><ellipse cx="86" cy="1" fill="#fff" rx="203" ry="18"/><ellipse cx="24" cy="73" fill="#cab7ad" rx="1" ry="49"/><circle r="1" fill="#b0745c" transform="rotate(-18.4 352.2 -401) scale(20.73568 74.65474)"/><ellipse cx="100" cy="98" fill="#c08165" rx="75" ry="3"/><path fill="#a76d56" d="M134.4 49.4l27.8-29.6-14.4-.6-33.6 14.9z"/><path fill="#ad6c54" d="M98 129h80v8H98z"/><ellipse cx="84" cy="103" fill="#b56f56" rx="53" ry="4"/><path fill="#c08469" d="M28 139h100v16H28z"/><circle r="1" fill="#fff" transform="rotate(124.4 -46.5 138.4) scale(15.99732 25.61062)"/><path fill="#ba9780" d="M98 234.7l-39.8 1.1 47.6.1 29.3.2z"/><path fill="#b3775e" d="M25 187h47v48H25z"/><path fill="#b2755b" d="M25 45h105v16H25z"/><path fill="#c2896e" d="M27 118h49v10H27z"/><ellipse cx="13" cy="44" fill="#fff" rx="11" ry="255"/><ellipse cx="93" cy="90" fill="#ae6c54" rx="68" ry="2"/><path fill="#b0806c" d="M31 20h109v2H31z"/><path fill="#a86b53" d="M38 224h86v6H38z"/><ellipse cx="178" cy="210" fill="#c2bcb6" rx="1" ry="25"/><path fill="#fff" d="M178.1 163.9l1.4 39.1-1 66 40.5-61.9z"/><ellipse cx="24" cy="151" fill="#d5cac1" rx="1" ry="72"/><path fill="#aa6d54" d="M25 22h47v20H25z"/><path fill="#a56952" d="M178.2 211.5l-3.2-59.3-16.1 42-44.9 38.1z"/><ellipse cx="114" cy="255" fill="#fff" rx="203" ry="19"/><path fill="#b67a5f" d="M125.8 145.2l-56.9-2 60.2 18.4 50.3-12.6z"/><ellipse cx="86" cy="183" fill="#bd8067" rx="48" ry="2"/><ellipse cx="146" cy="19" fill="#dbe1dd" rx="32" ry="1"/><path fill="#ab7158" d="M144 41h34v69h-34z"/><path fill="#b98067" d="M25 43h7v61h-7z"/><ellipse cx="115" cy="68" fill="#ba8368" rx="35" ry="2"/><path fill="#b07b62" d="M65 231h65v4H65z"/><path fill="#b87960" d="M81.8 139.2l85.8-30.1-91.2 19.2-43.4 2.2z"/><path fill="#bc8268" d="M107 99h69v2h-69z"/><path fill="#ad6b53" d="M113 188v4H67v-4z"/><path fill="#a3654c" d="M108 203h66v2h-66z"/><path fill="#b37a60" d="M119 113h57v16h-57z"/><path fill="#ac7964" d="M176 97h2v100h-2z"/><ellipse cx="137" cy="78" fill="#b37b62" rx="39" ry="3"/><ellipse cx="142" cy="236" fill="#d0cfc6" rx="21" ry="1"/><ellipse cx="84" cy="196" fill="#bb7e65" rx="38" ry="2"/><path fill="#ad7259" d="M121 180h36v23h-36z"/><path fill="#bc7e64" d="M74 113h51v15H74z"/><ellipse cx="195" cy="72" fill="#fff" rx="15" ry="255"/><path fill="#b97960" d="M29.4 159l.7 21.7 62.2-13.4L24 150.6z"/><path fill="#fff" d="M25 229.5l-5.5-89.9-35.5 86 39.6 22.1z"/><ellipse cx="67" cy="81" fill="#bc8066" rx="41" ry="2"/><path fill="#ae765e" d="M103 22h16v18h-16z"/><path fill="#ab6851" d="M130 103h41v4h-41z"/><path fill="#9e6452" d="M154 22h25v9h-25z"/><path fill="#9d6652" d="M175.6 197.6l3.3 16.9-5 18.2-8.9-22.5z"/><circle r="1" fill="#fefffe" transform="matrix(-18.98749 14.64469 -9.7015 -12.57843 162.7 255.2)"/><path fill="#ab6951" d="M57 172h69v1H57z"/></g></g></svg>