<svg xmlns="http://www.w3.org/2000/svg" viewBox="0 0 1400 1120"><defs/><filter id="a"><feGaussianBlur stdDeviation="12"/></filter><rect width="100%" height="100%" fill="#553c29"/><g filter="url(#a)"><g fill-opacity=".5" transform="translate(2.7 2.7) scale(5.46875)"><circle r="1" fill="#fff" transform="matrix(9.8085 -178.25609 178.85216 9.8413 115.8 92)"/><circle r="1" fill="#f6f9ee" transform="rotate(58.8 -56 120.1) scale(72.76378 255)"/><circle r="1" fill="#77725a" transform="matrix(13.06441 -71.48336 30.66368 5.60414 65 58.7)"/><ellipse cx="192" cy="128" fill="#100" rx="78" ry="6"/><ellipse cx="185" cy="187" fill="#994719" rx="99" ry="25"/><circle r="1" fill="#fff" transform="matrix(-16.95303 -.14238 2.14153 -254.991 11.5 112.2)"/><circle cx="44" cy="187" r="42" fill="#fff"/><path fill="#eae5de" d="M97 0h159v109H97z"/><path fill="#655034" d="M120 110h73v24h-73z"/><path fill="#e7e5da" d="M97 164l174-3-93-25z"/><path fill="#613b18" d="M97 164h159v10H97z"/><circle r="1" fill="#837b66" transform="matrix(17.47367 -24.7705 19.12412 13.49058 67 56.8)"/><path fill="#573a1d" d="M119.6 123l2.4 53.8 3.9-44.1 46.2.7z"/><circle r="1" fill="#bcb5a6" transform="matrix(-35.3352 28.57121 -13.40229 -16.57516 60.5 117.4)"/><ellipse cx="3" cy="91" fill="#fff" rx="17" ry="147"/><ellipse cx="163" cy="118" fill="#c7c6bd" rx="42" ry="6"/><ellipse cx="237" cy="27" fill="#c1bdb4" rx="26" ry="53"/><path fill="#eeeee9" d="M138 48L18 219h59z"/><ellipse cx="206" cy="110" fill="#45331b" rx="73" ry="2"/><ellipse cx="201" cy="98" fill="#e3e0d7" rx="108" ry="12"/><path fill="#b17e61" d="M91 172h137v32H91z"/><path fill="#eeece4" d="M98 166L97 40l25 87z"/><ellipse cx="33" cy="53" fill="#b3b2a5" rx="9" ry="95"/><path fill="#a09b8b" d="M74 0h23v110H74z"/><ellipse cx="190" cy="137" fill="#b9ab94" rx="68" ry="5"/><path fill="#51290a" d="M224 163h32v8h-32z"/><path fill="#feffff" d="M24.6 180.1l57.6 7-4.8 38.8-57.6-7z"/><ellipse cx="222" cy="129" fill="#4c2f11" rx="101" ry="4"/><path fill="#c6c1b3" d="M53 96h43v35H53z"/><ellipse cx="218" cy="111" fill="#210800" rx="97" ry="1"/><path fill="#a97759" d="M77 211l23-48 83 17z"/><path fill="#786f59" d="M53 58l-6 25 48-18z"/><path fill="#d9d9cf" d="M59 161h135v4H59z"/><ellipse cx="69" cy="171" fill="#cec9ba" rx="26" ry="7"/><path fill="#7f6d47" d="M159 123h97v3h-97z"/><path fill="#e9e5de" d="M101 44h57v66h-57z"/><path fill="#c4bba9" d="M251 137.1l16.5-18.7-12.6 44.3-60.6-18.3z"/><path fill="#dcdcd1" d="M31-16l-4 133L-5-16z"/><ellipse cx="66" cy="17" fill="#979481" rx="30" ry="47"/><path fill="#e3e0d9" d="M61 128h58v13H61z"/><path fill="#472d13" d="M123.8 111.6l-2.6 24.9-1-.1 2.6-24.9z"/><path fill="#e2dfd8" d="M174 152h35v12h-35z"/><path fill="#a69f8e" d="M85.9 144.7l-59.4.1 22.3-132L41 137.9z"/><path fill="#765c42" d="M120 120h4v57h-4z"/><circle r="1" fill="#d7d1c8" transform="matrix(-24.32561 -60.85832 27.146 -10.8505 205.3 47.6)"/><path fill="#341d04" d="M186 110h70v1h-70z"/><path fill="#f7fafa" d="M0 148h55v16H0z"/><path fill="#cfcac3" d="M124 135h28v27h-28z"/><circle r="1" fill="#c8c5bc" transform="matrix(-7.10643 73.80311 -24.7225 -2.3805 255 36.4)"/><path fill="#aca696" d="M34 120h63v7H34z"/><path fill="#685e4d" d="M122 112h116v1H122z"/><path fill="#8b6342" d="M94 166h59v9H94z"/><path fill="#dad8d1" d="M127 113h10v10h-10z"/><path fill="#c4beaf" d="M57 83h34v7H57z"/><ellipse cx="104" cy="27" fill="#eae7de" rx="8" ry="98"/><path fill="#ded8cf" d="M140 39h75v71h-75z"/><path fill="#ddd6cd" d="M100 114h20v51h-20z"/><path fill="#b38264" d="M148.2 184.2L93 177.7 75.2 219l66.9-4.7z"/><path fill="#beb9a9" d="M66 72h31v5H66z"/><circle r="1" fill="#86816c" transform="matrix(6.43305 -.69155 7.52603 70.01028 50.4 1)"/><path fill="#65543e" d="M235 122h21v11h-21z"/><ellipse cx="132" cy="118" fill="#271400" rx="1" ry="7"/><path fill="#2f1a04" d="M152.8 123.5h-1l-.6-13h1z"/><ellipse cx="171" cy="117" fill="#34240f" rx="1" ry="7"/><path fill="#916449" d="M253 182.8l18-9.5-113.8-3.2 8 8.5z"/><circle r="1" fill="#fdfffe" transform="rotate(-89.1 65.9 57.1) scale(40.54612 11.49964)"/><path fill="#543b26" d="M122 126h46v8h-46z"/><path fill="#2f1b06" d="M158 114h1v10h-1z"/><path fill="#938c7a" d="M40 73h11v36H40z"/><path fill="#afa28f" d="M149 133h97v11h-97z"/><path fill="#9c9786" d="M51-16h43l2 108z"/><circle cx="126" cy="118" r="5" fill="#d1cec1"/><path fill="#d5cbba" d="M250 134h6v24h-6z"/><path fill="#7f7964" d="M91 71l5-20-31 19z"/><path fill="#100700" d="M254 112h1v13h-1z"/><ellipse cx="197" cy="117" fill="#3d2a0b" rx="1" ry="7"/><path fill="#61452a" d="M122.8 173h-1l1.4-40h1z"/><path fill="#c5bdb4" d="M140.3 137.9l45 3.5h45.9l-93.7 14.3z"/><path fill="#d8d7cc" d="M73.1 128.5l28.2 26.2-14.4 35.9-2.7-10.2z"/><path fill="#4b432f" d="M247 108l2.9 17.8-1 .2-2.8-17.8z"/><path fill="#cecec5" d="M19 111h9v36h-9z"/><path fill="#e7e6e2" d="M92.7 162.3l-22.6-17.1-61.3 22.5 1.7 10.7z"/><ellipse cx="165" cy="122" fill="#4a3925" rx="1" ry="11"/><path fill="#a09a88" d="M47.9 88.7l20 21.3-32.2-.2 44.4-20.7z"/><ellipse cx="235" cy="122" fill="#4a371d" rx="1" ry="11"/><path fill="#d2cfc2" d="M44.2 124.8L69 150l53.5-20-3.2 21.1z"/><ellipse cx="25" cy="16" fill="#cbcabe" rx="6" ry="57"/><path fill="#4f391d" d="M144.7 123l-.4-14h1l.4 14z"/><path fill="#65513d" d="M177 112l3 23.8-1 .2-3-23.8z"/><path fill="#724f30" d="M164 164h67v7h-67z"/><path fill="#6e5e4c" d="M184.1 119.3l-.6-8.7 1.7 3 1.2 23.1z"/><path fill="#cec8ba" d="M82.2 112l-.4 8-36-2 .4-8z"/><path fill="#7b725d" d="M46 78h38v5H46z"/><ellipse cx="32" cy="66" fill="#b4afa2" rx="3" ry="80"/><ellipse cx="223" cy="122" fill="#5d4b32" rx="1" ry="11"/><ellipse cx="244" cy="155" fill="#beb3a7" rx="25" ry="8"/><path fill="#e2e2dc" d="M140 113h4v9h-4z"/><path fill="#ac7c63" d="M245.6 180.2l25.4 16.1-10.1 1.1-121.6-6.2z"/><path fill="#6a5a3f" d="M231.2 136.4l-3.4-24.7 1-.1 3.4 24.7z"/><path fill="#5c4c34" d="M241 126l5 5-4-19z"/></g></g></svg>