<svg xmlns="http://www.w3.org/2000/svg" viewBox="0 0 1120 1400"><defs/><filter id="a"><feGaussianBlur stdDeviation="12"/></filter><rect width="100%" height="100%" fill="#885842"/><g filter="url(#a)"><g fill-opacity=".5" transform="translate(2.7 2.7) scale(5.46875)"><path fill="#fff" d="M172-66.4L240 111 2 202.4-66 25z"/><circle r="1" fill="#f9fffc" transform="matrix(166.49083 -116.14561 49.46037 70.89978 51.7 70.1)"/><path fill="#a27848" d="M51 234l-27.7-38 123.8-90 27.6 38z"/><circle r="1" fill="#a2a089" transform="rotate(-18.6 108.3 -252.4) scale(50.87979 41.00193)"/><circle r="1" fill="#e7ecdf" transform="rotate(101.1 60.6 133.2) scale(34.05691 125.78266)"/><path fill="#fffff7" d="M6 210.2l-22-2.8 23.5-221L68 155.7z"/><circle r="1" fill="#a47c56" transform="matrix(33.21013 37.53723 -101.9126 90.16466 77 218.4)"/><ellipse cx="148" cy="151" fill="#91674b" rx="53" ry="29"/><circle r="1" fill="#e1dfd3" transform="matrix(42.41293 37.52379 -43.47084 49.13485 179.8 63.4)"/><circle r="1" fill="#f9f6ed" transform="rotate(-77.8 76.8 10.2) scale(18.88302 53.36992)"/><ellipse cx="107" cy="53" fill="#cdc8b7" rx="29" ry="25"/><circle r="1" fill="#a67c59" transform="matrix(102.18325 -72.657 16.91953 23.79527 41.2 216.7)"/><circle r="1" fill="#fdfef9" transform="matrix(33.13754 -8.34753 9.06947 36.00345 0 24.5)"/><circle r="1" fill="#f7f9ef" transform="matrix(-5.4856 -8.5447 48.16937 -30.92419 8 192.4)"/><circle r="1" fill="#a09b8a" transform="matrix(1.92555 -10.5254 42.45256 7.76639 95.4 4)"/><path fill="#dbd7c5" d="M51 174L4 99l113 23z"/><path fill="#795233" d="M188 130l-58-13 30 22z"/><circle r="1" fill="#8c6244" transform="matrix(-112.78172 105.90908 -17.33299 -18.45776 137.1 240.7)"/><path fill="#d4d0c4" d="M76.1 115.8l130.8-21.9 7 41L103.8 111z"/><path fill="#9f7656" d="M176.7 170.6L88 242.3l-42.8-52.9 88.6-71.7z"/><ellipse cx="175" cy="13" fill="#e4dfd4" rx="41" ry="77"/><path fill="#dcd8cc" d="M155.8 34.7l-41.4 17.8-31.7-23.2-61-12.2z"/><path fill="#a37b56" d="M-16 221l42 27 110-132z"/><circle r="1" fill="#d2cebd" transform="rotate(100.4 7.2 58) scale(6.24558 44.09136)"/><circle r="1" fill="#f8f7f0" transform="matrix(24.96848 8.11492 -11.33516 34.87672 0 173.5)"/><ellipse cx="109" cy="102" fill="#e3dfd1" rx="31" ry="24"/><circle r="1" fill="#c1baa8" transform="matrix(-2.31614 10.36184 -38.06401 -8.50832 97.8 52.2)"/><circle r="1" fill="#956848" transform="rotate(-38.7 366.5 47.6) scale(46.91864 17.06351)"/><path fill="#8e684b" d="M182 129l-43-11-48 27z"/><ellipse cx="201" cy="10" fill="#d8d2c8" rx="23" ry="124"/><path fill="#ede9e0" d="M135 8h18v77h-18z"/><path fill="#c8c6b7" d="M37 0h11v55H37z"/><path fill="#d1cdb8" d="M74 126l46-1-39 25z"/><path fill="#b1ac9d" d="M54 0h82v26H54z"/><ellipse cx="198" cy="116" fill="#cfcabd" rx="42" ry="13"/><path fill="#8d6145" d="M182 258L79 271l109-115z"/><ellipse cx="54" cy="105" fill="#e9e5d8" rx="52" ry="11"/><circle r="1" fill="#a97f5b" transform="matrix(6.07463 8.2696 -60.47413 44.42266 71.4 192)"/><path fill="#fdfbf6" d="M11.8 82.1L4-16l-20 42.9v85.4z"/><path fill="#cdc8b8" d="M38 10l-2 27 64-7z"/><circle r="1" fill="#f0ebe3" transform="rotate(-56.7 157.6 52.8) scale(16.40543 30.84936)"/><path fill="#b0a995" d="M80 41l-40 3 57 11z"/><circle r="1" fill="#e0dbd1" transform="matrix(-32.1263 14.70857 -9.62666 -21.02644 151.5 92.2)"/><path fill="#aaa494" d="M44 0h42v10H44z"/><circle r="1" fill="#f2ede6" transform="matrix(.06014 -8.61359 64.63467 .45124 51 79.6)"/><path fill="#9a6f51" d="M195.9 152.1l-11.2 10.3-68.3 61.4 30.7-101.4z"/><circle r="1" fill="#82533d" transform="matrix(1.40797 1.5468 -86.13905 78.40752 96 255)"/><circle r="1" fill="#d1cbbc" transform="matrix(48.29836 14.60997 -1.6379 5.41466 82.6 61.9)"/><path fill="#efece5" d="M9 0h25v48H9z"/><path fill="#7c583a" d="M199.2 146.6l-43.7-23.2 49.3 11.6 14.2-22.3z"/><path fill="#dbdacd" d="M38.1 60.8L31 26.6l1.3-42 7.2 28.5z"/><path fill="#92674a" d="M113.7 271l74.4-72.7 30.9-29.8-56.7 29.2z"/><circle r="1" fill="#a87f5b" transform="matrix(.63231 .77471 -76.69277 62.59568 104.2 205.7)"/><path fill="#dcd6c7" d="M63 148l-38-39 100 13z"/><path fill="#a6835b" d="M19 198l42-31-15 23z"/><circle r="1" fill="#ebe6dd" transform="matrix(9.07206 -7.29412 26.97728 33.55297 29.4 137.2)"/><path fill="#8a6648" d="M134 117l-20 14 61-3z"/><path fill="#ada695" d="M128 0h7v32h-7z"/><path fill="#d9d6c9" d="M7.5 56.7l63.6 10 7.2-5.2-46.2-11.7z"/><circle r="1" fill="#9f7859" transform="rotate(-20.9 484.5 -206) scale(23.96853 19.25828)"/><path fill="#82543a" d="M187.9 223.4l26.6.1L159 241l36-40.6z"/><path fill="#a17b55" d="M71.5 241.7l40.8-12.8-9.4-13.8-2.5-.6z"/><ellipse cx="203" cy="122" fill="#cbc7b9" rx="19" ry="11"/><path fill="#b1885f" d="M19 198h47l-16 12z"/><path fill="#d2cec0" d="M131 30L93 40l43 33z"/><circle r="1" fill="#f3efe7" transform="matrix(22.41578 -15.6957 8.08054 11.54021 29.8 83.4)"/><path fill="#996e4c" d="M28.7 213.3l12.5 25.9-22-36.5 53 14.4z"/><circle r="1" fill="#f7f7f1" transform="matrix(-7.7848 34.82719 -9.14122 -2.0433 .1 179.9)"/><path fill="#bebbae" d="M82 12L36.1 1.2l11.2 22.5 73.4-8.2z"/><ellipse cx="131" cy="88" fill="#d9d5c7" rx="4" ry="30"/><path fill="#e0dbd1" d="M161 97l58-47-44-10z"/><path fill="#a59f8c" d="M134.7 17.9l-2.7-7.4-68.3-5.1-5.9 1.7z"/><path fill="#e6e1d8" d="M115 77.2l-7.7 40.3-34.4-6.7 7.8-40.3z"/><circle r="1" fill="#c4bfae" transform="matrix(-.9502 4.10484 -23.05503 -5.3368 112.4 56.1)"/><circle r="1" fill="#8a6243" transform="matrix(5.46258 11.8221 -67.21623 31.05826 184.5 249.7)"/><ellipse cx="146" cy="28" fill="#e8e3d9" rx="12" ry="72"/><path fill="#946649" d="M135.4 176l-82.2 58.2 29-20.4-36.6 35.8z"/><path fill="#946c4e" d="M145.9 121.7l-106 77-1.8-2.4 106-77z"/><path fill="#a97f59" d="M89.1 201l-67.6 54.8-.6-.8 67.6-54.8z"/><path fill="#ece8df" d="M42 179l-6-23 36-2z"/><ellipse cx="134" cy="138" fill="#9c7355" rx="26" ry="11"/><circle r="1" fill="#a9815c" transform="matrix(25.91302 -22.77559 .66017 .75111 111.1 200.2)"/><path fill="#b08a63" d="M40 184l-10 8h28z"/><path fill="#9b7251" d="M151.1 225.2l-37.5 40.3-.7-.7 37.5-40.3z"/><path fill="#8d5f43" d="M22.5 244.5l-.6-.8 37.6-28.2.6.8z"/><path fill="#d2cbb2" d="M120.7 120.6l62.6-13.1-50.1 9.3-74.9 51.8z"/><circle r="1" fill="#8c5d43" transform="matrix(-40.84471 32.48935 -.62251 -.7826 79 230.4)"/><path fill="#94694c" d="M156.1 149.2l-9.3 29.4 9.2 3.8 27.9-25.8z"/><path fill="#7c4f39" d="M74.2 271l42.2-34.3-30 34.3 10.1-27z"/><path fill="#a27e56" d="M34.3 187.2l-29 20.6-6.4 23.4 31.7-38.8z"/><path fill="#885c3f" d="M20.5 255.9l11.9-6.8L48.8 271l-36.1-6.3z"/><path fill="#efeae1" d="M35.9 75.9l30.4 29.6 1.8 2.9-48.3-10.6z"/><path fill="#a7835e" d="M124 237l12-8-7 2z"/><circle r="1" fill="#dcd5ca" transform="matrix(4.12234 -16.74846 37.44405 9.2162 200.2 12.7)"/><path fill="#f7f5ee" d="M19.1 80.3l29.4-10.7L-11 47.7 4 93z"/><path fill="#865840" d="M135.6 224l41.9-22.9-38.3 29.5 28.2-47.8z"/><path fill="#d1cbbb" d="M128 59l-70 4 43 10z"/><path fill="#7f5239" d="M153.7 237.9l-.7-.7 49.3-51 .7.6z"/><circle r="1" fill="#a27c55" transform="rotate(51.3 -211.5 200.6) scale(1.30839 68.47817)"/><path fill="#d9d3c8" d="M168.1 117.2l8.7 11-38.6-13.1L219 78.4z"/></g></g></svg>