<svg xmlns="http://www.w3.org/2000/svg" viewBox="0 0 1400 913"><defs/><filter id="a"><feGaussianBlur stdDeviation="12"/></filter><rect width="100%" height="100%" fill="#553c29"/><g filter="url(#a)"><g fill-opacity=".5" transform="translate(2.7 2.7) scale(5.46875)"><circle r="1" fill="#fff" transform="rotate(90.5 20 100.2) scale(99.88373 243.22267)"/><circle r="1" fill="#fcfff6" transform="rotate(57.2 -50 114.2) scale(50.95905 254.99998)"/><circle r="1" fill="#fff" transform="matrix(12.52926 229.87113 -29.32286 1.59826 0 32.5)"/><ellipse cx="187" cy="90" fill="#140000" rx="78" ry="6"/><circle r="1" fill="#964818" transform="matrix(-.93923 23.38479 -123.5765 -4.96334 208.9 148.7)"/><circle r="1" fill="#89856a" transform="matrix(28.73463 -46.44634 21.01545 13.00148 61.7 59.2)"/><ellipse cx="56" cy="139" fill="#fff" rx="35" ry="32"/><circle r="1" fill="#e9e7dd" transform="matrix(6.56541 -27.9655 125.66305 29.5017 218.5 37)"/><path fill="#69583e" d="M119 72l1 30 88-31z"/><ellipse cx="162" cy="115" fill="#e1e1d5" rx="136" ry="11"/><ellipse cx="197" cy="130" fill="#5d3a16" rx="107" ry="5"/><ellipse cx="5" cy="82" fill="#fff" rx="15" ry="165"/><ellipse cx="110" cy="39" fill="#f8f6ee" rx="14" ry="64"/><circle r="1" fill="#818066" transform="matrix(18.94485 19.40643 -22.80917 22.26666 67.5 17.8)"/><path fill="#381300" d="M121 92h3v38h-3z"/><path fill="#e9e5dd" d="M97 42h140v30H97z"/><path fill="#b17b5a" d="M75 181l196-18-171-40z"/><path fill="#311c04" d="M137 72h62v3h-62z"/><path fill="#fff" d="M83 149.7l-1.2 24-62.9-3.4 1.3-24z"/><ellipse cx="229" cy="73" fill="#45341b" rx="109" ry="2"/><circle r="1" fill="#c2bdae" transform="rotate(58.1 -45.3 95.9) scale(14.78281 44.7646)"/><ellipse cx="178" cy="91" fill="#452702" rx="58" ry="4"/><ellipse cx="168" cy="80" fill="#c0beaf" rx="61" ry="6"/><ellipse cx="228" cy="34" fill="#d1cdc3" rx="62" ry="37"/><path fill="#cec9bb" d="M125 96h76v31h-76z"/><path fill="#dfded4" d="M121 68l-28 70-81 3z"/><ellipse cx="251" cy="129" fill="#542f12" rx="33" ry="5"/><circle r="1" fill="#b4a891" transform="matrix(-49.96653 -2.42962 .464 -9.54259 218 104.3)"/><path fill="#dddbd2" d="M55 89h66v38H55z"/><path fill="#fbfffa" d="M-16 6l15 175L27 42z"/><path fill="#5a4724" d="M237 84h19v11h-19z"/><path fill="#9e9a88" d="M96.3 69.9L88.8 75 68.6-4.7l27.3-3.8z"/><ellipse cx="107" cy="165" fill="#a87756" rx="21" ry="39"/><ellipse cx="29" cy="26" fill="#c4c6b6" rx="5" ry="84"/><path fill="#b6b2a0" d="M20 100h55v10H20z"/><ellipse cx="23" cy="117" fill="#f4f7f5" rx="55" ry="9"/><path fill="#735a3d" d="M120 73h3v68h-3z"/><ellipse cx="225" cy="73" fill="#321900" rx="100" ry="1"/><path fill="#452a13" d="M124 89h23v7h-23z"/><path fill="#817c66" d="M66.6 37.3L86.2 31 53.5 11.3 38.4 76.4z"/><path fill="#d7d4cd" d="M169 108h53v18h-53z"/><ellipse cx="167" cy="72" fill="#a09482" rx="31" ry="1"/><circle r="1" fill="#c4c1b5" transform="matrix(10.51793 16.97075 -23.96122 14.8504 250.6 14.9)"/><path fill="#bab4a4" d="M53 45h39v45H53z"/><ellipse cx="122" cy="14" fill="#e6e3da" rx="26" ry="57"/><ellipse cx="75" cy="133" fill="#cecaba" rx="19" ry="7"/><ellipse cx="240" cy="86" fill="#7f724f" rx="118" ry="2"/><path fill="#aca795" d="M173 74h83v11h-83z"/><path fill="#a89a81" d="M146 96h81v5h-81z"/><path fill="#a29d8b" d="M42 44L27 65l61-11z"/><path fill="#746e56" d="M97 31l-42 3 25-10z"/><path fill="#856140" d="M98 127h59v9H98z"/><path fill="#d9dad0" d="M19 0h10v98H19z"/><path fill="#af7e61" d="M122.4 137.9l-31.2 5.4L77.1 181 271 148.4z"/><path fill="#51402d" d="M191.8 95h-2l.4-22h2z"/><circle r="1" fill="#a8a694" transform="matrix(7.46682 -54.97609 5.54643 .75331 37.6 51.2)"/><path fill="#e8e6dd" d="M97 12h23v92H97z"/><path fill="#f5f9f4" d="M81.1 140.9l12.1-.2-29 40.3-80.2-22.2z"/><path fill="#d8cfba" d="M256 94l-1 17-10-14z"/><path fill="#221300" d="M254 73h1v18h-1z"/><path fill="#ded8d0" d="M144 0h76v71h-76z"/><path fill="#cdc9bf" d="M124 97h29v30h-29z"/><ellipse cx="74" cy="76" fill="#d5d2c3" rx="23" ry="4"/><circle r="1" fill="#916346" transform="rotate(91 43.5 177) scale(2.72602 79.6416)"/><path fill="#3a1f04" d="M121.8 73.5l-.6 19h-1l.6-19z"/><path fill="#cecbc2" d="M127 77h18v8h-18z"/><path fill="#dfdcd1" d="M39 90h81v8H39z"/><path fill="#604d36" d="M137.9 85l1.2-12h1L139 85z"/><path fill="#443728" d="M247 74h2v15h-2z"/><ellipse cx="246" cy="72" fill="#3d2911" rx="40" ry="1"/><path fill="#756f58" d="M71 45L55 22l-4 21z"/><path fill="#bab5a6" d="M62 35l35 7-4-9z"/><path fill="#604c36" d="M177.6 86l-1-.1 1.8-14 1 .2z"/><path fill="#6a573d" d="M236.5 84.1L218 91l6-18.7-.8 23.6z"/><ellipse cx="66" cy="86" fill="#ada996" rx="30" ry="4"/><path fill="#44331e" d="M131.3 77h1l.4 20h-1z"/><path fill="#bbb3a5" d="M213 98l51 25-53 2z"/><path fill="#6c5e4d" d="M171.8 74.4l-1-3.8.9 21.2 1.5-8.3z"/><path fill="#c7c3b3" d="M49 58h46v7H49z"/><ellipse cx="209" cy="91" fill="#553e27" rx="85" ry="4"/><path fill="#3c2814" d="M184 73h1v20h-1z"/><path fill="#dad4ca" d="M100 83h16v44h-16z"/><ellipse cx="158" cy="85" fill="#4d3926" rx="1" ry="12"/><path fill="#614f38" d="M203 73h2v14h-2z"/><path fill="#958f7b" d="M41 53h54v5H41z"/><path fill="#efefe8" d="M115.8 46.2L92.1 116l4.8-33 .7-43.4z"/><path fill="#a5a08e" d="M49 72l39-1-54-14z"/><ellipse cx="155" cy="74" fill="#675948" rx="33" ry="1"/><ellipse cx="122" cy="5" fill="#e0dbd0" rx="26" ry="23"/><path fill="#c4bcb2" d="M197 107l-48 12-20-24z"/><path fill="#d2ccc1" d="M123.1 91.7l-16.7 28.1 14.3 1.7-9.4-45.4z"/><path fill="#eff1ec" d="M80 90l17-1 2 20z"/><path fill="#76664c" d="M228.6 73l3.8 35.8-1 .2-3.8-35.8z"/><path fill="#aca08a" d="M205 96.5l42.5-2 .8 23.4-14.8-6.5z"/><path fill="#5c4733" d="M149 94.3l3.8-18.3.1 21 3.2-8z"/><path fill="#4b351b" d="M142 90l-19 6-1-6z"/><circle r="1" fill="#ede9da" transform="matrix(.18453 4.70556 -1.48768 .05834 251.2 80.4)"/><path fill="#a2856b" d="M120.5 168V88h1v80z"/><path fill="#371f05" d="M217 74l-1 12h-1l1-12z"/><path fill="#926a4d" d="M94 132h46v6H94z"/></g></g></svg>