<svg xmlns="http://www.w3.org/2000/svg" viewBox="0 0 1400 934"><defs/><filter id="a"><feGaussianBlur stdDeviation="12"/></filter><rect width="100%" height="100%" fill="#373b51"/><g filter="url(#a)"><g fill-opacity=".5" transform="translate(2.7 2.7) scale(5.46875)"><circle r="1" fill="#fff" transform="rotate(109.2 74.6 86.8) scale(64.60578 255.00002)"/><circle r="1" fill="#fffff8" transform="rotate(-101.9 146.5 -59.2) scale(100.97136 36.2498)"/><circle r="1" fill="#262714" transform="matrix(2.15158 47.90812 -86.33215 3.87723 123.3 76)"/><path fill="#fff" d="M-20.6 9.5L182.2-41l12.4 49.5L-8.2 59z"/><circle r="1" fill="#fff" transform="matrix(202.08004 27.0618 -2.63147 19.65015 153.8 14.6)"/><circle r="1" fill="#211f0e" transform="rotate(-8.6 1075.6 -323.2) scale(156.73419 54.59889)"/><circle r="1" fill="#fff" transform="rotate(76.5 -1.1 24) scale(30.19322 99.56771)"/><path fill="#43403e" d="M127 14L18 56l80 103z"/><path fill="#e0e2c8" d="M260.9 66.5l-8.5 114.7-36-44.2-29-37.9z"/><circle r="1" fill="#cfd4d1" transform="matrix(20.49878 -28.75826 7.9865 5.69275 137.5 44)"/><circle r="1" fill="#1a1d14" transform="matrix(34.0995 -33.38364 11.71096 11.96208 19 80.4)"/><circle r="1" fill="#343931" transform="matrix(21.96489 -23.94043 16.7202 15.34048 181.8 79)"/><circle r="1" fill="#f4f6e7" transform="rotate(-74.3 102.4 -135) scale(44.11977 195.42055)"/><path fill="#fdfdf7" d="M0 9h73v36H0z"/><circle r="1" fill="#181710" transform="matrix(33.81354 -2.77998 1.31224 15.96104 201.8 164)"/><path fill="#46484f" d="M125.2 19.4L137.4 39l-18.6 11.7L106.6 31z"/><path fill="#050a11" d="M91 37L64 62l-34-4z"/><path fill="#fff" d="M139 35L92-16l93 47z"/><circle r="1" fill="#958983" transform="matrix(-1.49077 -4.23805 52.92985 -18.61849 100.9 55)"/><circle r="1" fill="#0b1017" transform="matrix(59.49258 24.15743 -11.74025 28.91275 40 169)"/><circle r="1" fill="#9b8478" transform="rotate(-112.5 74.9 18.9) scale(3.37271 31.17174)"/><path fill="#ebede3" d="M214.7 136.5l-24-36.9 12.6-8.1 24 36.9z"/><circle r="1" fill="#6a594b" transform="rotate(66.7 -39.3 193) scale(5.73983 65.42978)"/><ellipse cx="169" cy="124" fill="#201e1c" rx="32" ry="26"/><circle r="1" fill="#e7eadb" transform="matrix(-1.1491 -59.8461 27.85767 -.5349 230 28)"/><circle r="1" fill="#404144" transform="rotate(-172.1 62.7 55) scale(17.59553 31.49281)"/><path fill="#767d7d" d="M114 71.3l43-37.4 11 12.8-43 37.4z"/><path fill="#fefff9" d="M0 28h35v23H0z"/><circle r="1" fill="#ebece9" transform="matrix(19.79894 24.41919 -13.2625 10.75317 50.2 19.4)"/><circle r="1" fill="#c8cac0" transform="rotate(168.7 114 70.4) scale(31.56465 25.49134)"/><path fill="#444649" d="M81.5 32.6L97 26.3l30.4-8L8.8 102.7z"/><path fill="#fff" d="M83-16l41 31-22 9z"/><circle r="1" fill="#101111" transform="matrix(47.68482 -20.3393 1.52533 3.5761 108.8 129.6)"/><circle r="1" fill="#82726a" transform="rotate(-22.5 278.8 -25.8) scale(101.74397 1.76535)"/><circle r="1" fill="#4d524b" transform="rotate(54 28 212.9) scale(25.8868 22.38588)"/><circle r="1" fill="#141a18" transform="matrix(.95324 2.4576 -20.26307 7.85953 94.9 68.2)"/><path fill="#2a2717" d="M49.2 42.6l31.4 13.3-63.2-3.6L-16 83z"/><ellipse cx="223" fill="#d3d6cf" rx="66" ry="15"/><path fill="#5b5148" d="M110.6 185l16.2-26.6 91.5-21.6-14.4-13.6z"/><path fill="#0f0f11" d="M142.5 147.9l-14.1-56 21.9 13.6 20.5 32.6z"/><path fill="#65594f" d="M127.2 131l9.4-.4v6.3l-66.5 23.2z"/><circle r="1" fill="#0c1210" transform="matrix(-.71448 -1.73742 27.55947 -11.33335 88.5 88.3)"/><path fill="#86776d" d="M52 115l-1.6-3.8L112 85.1l1.5 3.7z"/><path fill="#75695f" d="M48.3 82l-3.4-10.5L67.7 64l3.4 10.4z"/><path fill="#323a41" d="M111.2 32.4l-4.6 4.8 21.3-14.4 9.7 16.3z"/><path fill="#202120" d="M142 170l110 12-38-49z"/><circle r="1" fill="#4c504a" transform="rotate(64.6 25.9 180) scale(24.82097 33.78484)"/><circle r="1" fill="#e9ebe1" transform="matrix(-50.83428 -22.22304 9.62185 -22.00958 224.5 34.6)"/><path fill="#f2f2f1" d="M139 38l-12-50 43 33z"/><path fill="#2a2e30" d="M91.4 50.4l-18.3-15 27.5-9-52.4 30.1z"/><path fill="#d6d6cb" d="M63.1 34.7l14.8-3.9-9.7 15.6L36 43.7z"/><path fill="#e4e6d9" d="M197 108l22 29 9-103z"/><path fill="#fefffd" d="M61-2l35 4-27 40z"/><circle r="1" fill="#191b14" transform="matrix(-95.26069 32.8931 -.32639 -.94524 21.4 95.3)"/><path fill="#adae9d" d="M271 138l-39 14 20 33z"/><circle r="1" fill="#05090a" transform="rotate(67.6 -80.8 72) scale(1.91192 48.24164)"/><circle r="1" fill="#1d211e" transform="matrix(-34.59066 14.82557 -1.38279 -3.22628 93 101.3)"/><path fill="#13161a" d="M92.3 155.8l92.7-34.1L69.8 185h-83.6z"/><path fill="#1d2432" d="M31.5 109.8l64.7-29.2 20.4-9.6.9 8.3z"/><path fill="#97938b" d="M205.9 23.7l-71.6-1.1-69.2 24.2 49.3-24.4z"/><path fill="#5c625d" d="M135.7 38.4l35.4-4 26.2 12.9-36.5 1.8z"/><path fill="#c6c8bb" d="M240 61h16v70h-16z"/><path fill="#fdfdfe" d="M130-16l27 21-65 22z"/><path fill="#25251e" d="M-16 93L89 41-16 61z"/><path fill="#e7e8e3" d="M30.2 27.3L38.1 49l-10.3 3.8L19.9 31z"/><circle r="1" fill="#626162" transform="rotate(-16.7 317.6 -252.2) scale(52.00895 3.5553)"/><circle r="1" fill="#101724" transform="matrix(-.70944 -3.53885 30.1587 -6.04598 49.5 125.9)"/><path fill="#3d4345" d="M135.2 100.9l-5.9 15.1-57.7 23 55.9-54.5z"/><path fill="#292c2e" d="M195.3 109.8l-73.4 13.7 84.8 2.3-1.1-3.1z"/><circle r="1" fill="#f4f4f1" transform="rotate(133.5 -6.7 19.9) scale(22.72636 16.87163)"/><path fill="#535550" d="M130 91.4l1.2 2.7L64 122.6l-1.2-2.7z"/><circle r="1" fill="#333635" transform="rotate(-111.5 43.4 41.7) scale(9.89109 60.60019)"/><ellipse cx="179" cy="18" fill="#e2e4dd" rx="33" ry="18"/><path fill="#464334" d="M8.3 67.9L-16 66.1 17.9 52l32.2-3.2z"/><path fill="#303436" d="M171 165l51-9-8-17z"/><path fill="#857c79" d="M131.8 42L117 53.4 85.5 62l31.6-23.4z"/><path fill="#ced0c6" d="M215.9 135.6l19.5 18.4 9.6-40-42.3-25.8z"/><path fill="#131112" d="M120.1 185l34.7-23.5 63-27-88.7 50.5z"/><circle r="1" fill="#40433b" transform="rotate(71.2 -65.7 83.6) scale(3.9168 28.75759)"/><path fill="#1c1e19" d="M132.5 96.3l-98.4 36.1 44.2-9.5 45.3-20.5z"/><path fill="#000001" d="M134 115l-1-14 23 4z"/><circle r="1" fill="#50544c" transform="matrix(14.36634 24.58504 -18.62155 10.88156 186.1 67.2)"/><path fill="#414850" d="M89.9 38L130 25.5l-2.1 16-63.4 22.9z"/><path fill="#f5f6ec" d="M194 39l34 1-13 25z"/><circle r="1" fill="#828888" transform="rotate(-134.7 80 .4) scale(7.03606 23.50024)"/><path fill="#5c4b38" d="M222 173.2l-2.2-4.5 16.2-7.9 2.2 4.5z"/><path fill="#e9eae0" d="M200 113l17-34-26 22z"/><path fill="#454942" d="M188.5 117.3l-29.1-12.9-19.3-2.8L193.7 57z"/><path fill="#fafbfa" d="M138.5 36l-34-39.3 3-2.6 34 39.2z"/><path fill="#a7a98c" d="M-16 45.9L4.2 56.5l8.8-1.8-27.5-8z"/><path fill="#cfd1c8" d="M165.8 6l6.2-.4 76.9-3.9-98-17.7z"/><path fill="#050300" d="M13.1 159.9l53-23.6.8 1.8-53 23.6z"/><path fill="#35372f" d="M-4.7 154.2l69.4-31 2 4.6-69.4 31z"/><path fill="#5a534f" d="M137.4 174.1l-50.4.5 45.5-17.1 14 1.2z"/><path fill="#1a2029" d="M51.9 62.6l31.4-11.8L69 45.1-11.5 91z"/><path fill="#212b48" d="M-16 90.7l60.6-24.1L43 82.3l-45.8 15z"/><path fill="#1a1a18" d="M104.4 133.2L77.1 146l-8.4-6.3 87.3-33.6z"/><path fill="#0a0909" d="M142 135l48-16-13 14z"/><circle r="1" fill="#1c1d1a" transform="matrix(.35184 .93606 -72.5095 27.25453 44.8 86.4)"/><path fill="#463c31" d="M142 154l59-30-27 28z"/></g></g></svg>