<svg xmlns="http://www.w3.org/2000/svg" viewBox="0 0 1000 1400"><defs/><filter id="a"><feGaussianBlur stdDeviation="12"/></filter><rect width="100%" height="100%" fill="#725938"/><g filter="url(#a)"><g fill-opacity=".5" transform="translate(2.7 2.7) scale(5.46875)"><circle r="1" fill="#d4e3d7" transform="matrix(-99.43852 -56.4477 89.8478 -158.27626 82 138.2)"/><circle r="1" fill="#fbfeec" transform="matrix(64.32872 -22.158 14.17682 41.15792 65.6 240.7)"/><path fill="#4d3116" d="M44 128h45v67H44z"/><path fill="#e3e8e2" d="M221.5 144.7l-25.4 52.1-109.6-53.5 25.4-52.1z"/><circle r="1" fill="#544d2f" transform="matrix(15.94535 40.47962 -20.77451 8.1833 151 205.5)"/><circle r="1" fill="#7e7758" transform="rotate(110.5 0 35.6) scale(174.48571 47.61912)"/><circle r="1" fill="#e2e9d8" transform="rotate(-176.1 38.8 73.7) scale(9.20691 30.66208)"/><circle r="1" fill="#6e674a" transform="rotate(22.9 28.5 410.2) scale(17.26684 46.70049)"/><path fill="#e0e1d3" d="M89 148h29v108H89z"/><path fill="#0e0200" d="M45 132h9v64h-9z"/><path fill="#180000" d="M91.9 166.2l-29.3 21.4 21.1 6.5-1.6-54.1z"/><path fill="#fff" d="M149 164l49 3-7 34z"/><path fill="#141613" d="M198 100.1l-17.9 9.8L198 117l-48.9-18.7z"/><circle r="1" fill="#8e886b" transform="rotate(60.1 21.8 45) scale(65.32867 164.56094)"/><path d="M141 25h4v40h-4z"/><circle r="1" fill="#c2c1ac" transform="matrix(35.37654 -20.85804 15.47903 26.2534 13.4 230)"/><circle r="1" fill="#bcb9a4" transform="matrix(-28.30319 -13.6214 17.58076 -36.53013 114.9 112.8)"/><path fill="#b8b79f" d="M157 271l-43-98 10 94z"/><ellipse cx="173" cy="43" fill="#0b100d" rx="2" ry="22"/><circle r="1" fill="#695d40" transform="matrix(.14509 -4.43637 44.5969 1.45849 17.9 193.8)"/><path fill="#767158" d="M143 163l-4 108 59-63z"/><path fill="#9b9376" d="M50 20v139l35-29z"/><path fill="#3e2f18" d="M21 133h75v3H21z"/><path fill="#270900" d="M69 191l18-38-1 39z"/><path fill="#cac7aa" d="M144 27h25v16h-25z"/><path fill="#615c44" d="M148 91h11v25h-11z"/><circle r="1" fill="#030909" transform="rotate(-179.4 84.9 12.1) scale(31.09999 1)"/><circle r="1" fill="#80795f" transform="rotate(4.5 -1232 144.7) scale(21.34764 94.87662)"/><path fill="#868473" d="M132 153l51 83 15-28z"/><circle r="1" fill="#c5c5b8" transform="matrix(-11.1319 -18.27368 27.905 -16.99908 117.4 149.7)"/><circle r="1" fill="#844f1d" transform="matrix(6.24259 -.28347 1.28163 28.22379 57.3 166.7)"/><path fill="#1e2217" d="M169 48l-4-9-11 8z"/><circle r="1" fill="#675c37" transform="matrix(-13.86445 10.0362 -14.8166 -20.46832 156.5 230.5)"/><path fill="#bfbda9" d="M0 196h42v60H0z"/><path fill="#cbcec2" d="M126 116h57v44h-57z"/><path fill="#b5b39d" d="M58 126l53 14 64-99z"/><path fill="#dbd9c7" d="M71 192l85 69-96-9z"/><path fill="#afac95" d="M145 14h38v9h-38z"/><path fill="#2f1300" d="M83 134h4v56h-4z"/><path fill="#989682" d="M174 15h9v50h-9z"/><path fill="#c2c5b5" d="M141 78h42v9h-42z"/><path fill="#c0c2b1" d="M60 136h23v14H60z"/><path fill="#c8c6b6" d="M63.3 172.6l4.7 10.8L82.1 161l-9.2-13.3z"/><path d="M142 25h31v2h-31z"/><path fill="#bcbda7" d="M50 136h3v25h-3z"/><circle r="1" fill="#a19b7f" transform="matrix(25.9607 2.60738 -4.92066 48.99313 88.4 65.7)"/><path fill="#1f1100" d="M46.5 132v62.9l5.5 3.2 2.2-30.6z"/><path fill="#635b3f" d="M141.8 183.8l-24.7 1.2 23.7-25.9.7 20.3z"/><path fill="#feffff" d="M161.4 173.7l27.6 28 9 8.1v-48.1z"/><path fill="#bcb9a0" d="M145 34h4v77h-4z"/><circle r="1" fill="#31322a" transform="matrix(-11.40247 -9.8312 .98546 -1.14297 159 97.4)"/><path fill="#746846" d="M133.5-2.5l5-8.3 2.3 24.4 57.2 1.7z"/><path fill="#dcdac7" d="M62 194h50v42H62z"/><circle r="1" fill="#c0c1b4" transform="rotate(157.7 70.7 84) scale(9.26797 36.07335)"/><path fill="#c2c1b1" d="M151.7 82.4l-20.1 7.2-42 49.6 31.8 38.5z"/><ellipse cx="42" cy="194" fill="#4a3d22" rx="15" ry="3"/><path fill="#7a542e" d="M67.2 172.7l-5 22.4-10-24.6L54 127z"/><ellipse cx="165" cy="63" fill="#38372b" rx="22" ry="1"/><path fill="#a7a289" d="M145.7 250.3L135 271l-19.8-99.3 18 41.3z"/><path fill="#c8c3a7" d="M167 28h4v40h-4z"/><path fill="#9b9479" d="M43 71h34v62H43z"/><path fill="#b2ac94" d="M90 82l49-14V39z"/><path fill="#381900" d="M64 182h12v11H64z"/><path fill="#adad9d" d="M27.4 186.5l7.8-51.1 7.8 15.1 2.2 39.9z"/><path fill="#afab9b" d="M166 28.6l-1.3 14 8.5 1.4-25.4-.7z"/><path fill="#c4c6b5" d="M152 68l35-7 11 10z"/><circle r="1" fill="#94907d" transform="rotate(10.8 -829.7 193.5) scale(12.83619 28.94447)"/><path fill="#cbcbba" d="M88 164h19v36H88z"/><path fill="#d2cfbb" d="M83 197l-53 58 9-58z"/><path fill="#878066" d="M-32.6 109.5l68-139.3 33.2 16.3-68 139.3z"/><path fill="#201300" d="M53 133h4v12h-4z"/><path fill="#160800" d="M83.1 151.1l1 .2-5.2 29.6-1-.2z"/><path fill="#cac8b9" d="M55.1 204.1l24.2-34.8-13.8-1.3 4.2 15.1z"/><path fill="#b3a87a" d="M162.6 54l13.2 1.2-29.7-6.6-.5-15.6z"/><path fill="#4b3110" d="M88 183l-20 8 20-38z"/><path d="M141 26.5v-1l24-2v1z"/><ellipse cx="174" cy="111" fill="#a9a28b" rx="22" ry="4"/><circle r="1" fill="#555740" transform="matrix(-9.58544 2.42627 -6.17475 -24.3945 178.1 248.7)"/><circle r="1" fill="#81775a" transform="matrix(-5.01974 -32.33307 12.94947 -2.01042 5 123.6)"/><path d="M142 27h2v27h-2z"/><path fill="#989581" d="M173.7 34.9l2 31.2L198 29.9l-25.6-15z"/><circle r="1" fill="#bdbdae" transform="matrix(-21.54923 -14.5449 9.17055 -13.58678 111.2 153.7)"/><path fill="#121509" d="M161.6 45.3l-5.6-1.1 1.6 2 12.1 3.1z"/><path fill="#b1ac96" d="M51 148h2v17h-2z"/><ellipse cx="182" cy="102" fill="#252521" rx="22" ry="2"/><path fill="#5a4925" d="M66 129h7v7h-7z"/><path fill="#beb89f" d="M163 94h8v6h-8z"/><path fill="#6f6745" d="M149.3 100.3l4 .7-2.6 14.7-4-.7z"/><circle r="1" fill="#b7b5a0" transform="rotate(-1.9 7265 119) scale(22.02157 44.19654)"/><path fill="#8b8770" d="M107.8 187.2l34.4-29.6-26.3 32.4 50.1-6.8z"/><path fill="#835912" d="M152 51h5v8h-5z"/><path fill="#c4c4b3" d="M67.4 181.6l7.7-8.5 3.7-6.4L62.7 148z"/><ellipse cx="47" cy="168" fill="#221304" rx="3" ry="27"/><path fill="#936433" d="M54 159h11v37H54z"/><ellipse cx="172" cy="46" fill="#13120b" rx="1" ry="20"/><circle r="1" fill="#847f6b" transform="matrix(6.81701 -7.82532 40.3402 35.1423 182 207.9)"/><path fill="#22231f" d="M152.8 92.8l2.4-1.8 8 10.2-2.4 1.8z"/><path d="M158 45h8v4h-8z"/><circle r="1" fill="#948a6d" transform="matrix(12.24516 40.05213 -13.681 4.1827 35.8 93)"/><path fill="#c7c8bb" d="M88 193l110-77-62 1z"/></g></g></svg>