<svg xmlns="http://www.w3.org/2000/svg" viewBox="0 0 1120 1400"><defs/><filter id="a"><feGaussianBlur stdDeviation="12"/></filter><rect width="100%" height="100%" fill="#7b4b41"/><g filter="url(#a)"><g fill-opacity=".5" transform="translate(2.7 2.7) scale(5.46875)"><circle r="1" fill="#e29f77" transform="rotate(177.1 50.3 56.6) scale(169.39431 152.21013)"/><ellipse cx="110" cy="229" fill="#945f48" rx="184" ry="64"/><circle r="1" fill="#c58a6f" transform="matrix(-15.7086 -80.81378 104.886 -20.38777 101.2 25.2)"/><circle r="1" fill="#985f48" transform="matrix(-7.16283 -44.1053 139.33133 -22.62781 112 255)"/><circle r="1" fill="#ae7960" transform="rotate(-84.9 153.1 19.8) scale(31.63022 69.3046)"/><path fill="#c59479" d="M217.8 118.1l-109.4 15.4-47.8 28.7 37.4-11z"/><circle r="1" fill="#a3644b" transform="rotate(-104.3 85.4 43.8) scale(7.86921 112.92641)"/><circle r="1" fill="#af7057" transform="rotate(170.7 21.8 45.4) scale(63.65983 13.2182)"/><path fill="#b38970" d="M10.5 248.6l-1.8-3.7-6.8-17.5L-16 253z"/><path fill="#af8269" d="M188.6 204.6h26.6l-84.7 26.3-5-1.9z"/><circle r="1" fill="#9e664e" transform="rotate(73.2 -37.6 179.4) scale(5.68052 112.02667)"/><ellipse cx="157" cy="92" fill="#bf856a" rx="36" ry="18"/><circle r="1" fill="#a67a62" transform="rotate(-14.6 867.6 -12.2) scale(26.7887 13.47847)"/><circle cx="92" cy="241" r="4" fill="#d0a88d"/><circle r="1" fill="#8d5741" transform="matrix(-47.77415 -.2906 .07255 -11.927 120.6 255)"/><path fill="#99614b" d="M156 193l48-38-41 12z"/><path fill="#b17f65" d="M100.5 189l3.5 32 14.8-22.1 41-16.6z"/><path fill="#c0846b" d="M61 78l111-94L15 13z"/><path fill="#bb7e64" d="M19 97h81v25H19z"/><path fill="#ad6d58" d="M105.4 18l-38 10.3L83 13.2l28.7-11.1z"/><path fill="#6a2714" d="M155 202h9v5h-9z"/><path fill="#a05f49" d="M-16 99.8l85.9-17.2-9.9 4.9-53.8 14.2z"/><path fill="#8b513a" d="M-4 206l32-14 5 10z"/><path fill="#f6f4e4" d="M9 122l4 1-1-2z"/><path fill="#c59275" d="M99 208l-16 4-13-7z"/><path fill="#dabeab" d="M71 233h7v3h-7z"/><path fill="#ba876c" d="M175.8 186.2l15.1-10-12.7-2.9-9.8-16.3z"/><circle r="1" fill="#995c42" transform="matrix(.87658 2.36972 -54.72872 20.24477 23.4 152.5)"/><path fill="#884c38" d="M147 199l13 19-21-7z"/><path fill="#bd8e77" d="M149 196l-16 8 32-6z"/><ellipse cx="85" cy="229" fill="#93523d" rx="36" ry="4"/><path fill="#be8a70" d="M168.4 131.1l42.1-31.1-28.7-32.9 37.2 50.2z"/><path fill="#a56851" d="M176 103l-44 24 76-15z"/><path fill="#c9987e" d="M187 49l.6 4-38.5 6-.7-4z"/><path fill="#985f4a" d="M208 133.7l11-18.5-23.2 24.1-18.1-12.9z"/><path fill="#925943" d="M167.3 180.3l-6 4.6 29.2 13.8 13.3 2.8z"/><path fill="#ba876e" d="M129.7 154.2l-20.5-26 33.8 13.1-77.3 27.9z"/><path fill="#b0725b" d="M167 44l7 37 32-7z"/><path fill="#b6775c" d="M81 217l-10 11-21-10z"/><path fill="#bc886c" d="M45.3 159.2l17 4.2-34.4 1.9 33.3 10.9z"/><path fill="#ca977b" d="M133.9 85.4l-55.2 7.4 38.8-.7 14.3-.7z"/><path fill="#d8b096" d="M140 136l11 2 5-5z"/><path fill="#925a44" d="M25.1 191.9l-41.1-4.4 32.4-9.3 5.6 2z"/><path fill="#995b42" d="M108.2 210.8l-1-2.8 60.6-20.8 1 2.8z"/><path fill="#884c37" d="M115 171l12-6 14 4z"/><path fill="#b68a72" d="M182.3 158.7l17.3-5.9-5.9 11.8 25.3 16.1z"/><path fill="#f9e5d3" d="M136 202.9l.6.8-2.7 1.4-.5-.8z"/><circle r="1" fill="#af725b" transform="matrix(191.18206 -42.75613 .3314 1.48182 70.6 57)"/><path fill="#966048" d="M33.2 214.3L-16 225.9l87-11.6-41.7 11.3z"/><path fill="#874d36" d="M165.4 226.1l11.2-5.8 25.5 20.6-39.2-26.2z"/><path fill="#d7c0b0" d="M-2.3 251.8l-.5-.9 11.1-6.7.5.9z"/><path fill="#c2957a" d="M47.3 215.6l-29.1-7.3.5-1.9 29.1 7.3z"/><path fill="#874d39" d="M35.2 240.8l22-8.9L-16 270v-14.6z"/><path fill="#c2987c" d="M145 222l10-6-4 11z"/><path fill="#c9957b" d="M84.7 56.6l-1 4.3 42.5-7.2-4.8-4.1z"/><path fill="#b78a71" d="M46 196H34l-12-14z"/><path fill="#c28c73" d="M170 35l-41-5 77-16z"/><path fill="#8e4b34" d="M185.9 171.4l1.6-3-15.6-7.4 12.1 13z"/><path fill="#af6a56" d="M79.1 4.4L91-11.5 30.6 11.9 91.2-1.7z"/><path fill="#562012" d="M166 253h7v3h-7z"/><path fill="#a4634c" d="M122 67h23v4h-23z"/><path fill="#d7b097" d="M66.7 51.9l.4 2L55.3 56l-.4-2z"/><path fill="#884d38" d="M45 243h17v8H45z"/><path fill="#3a1309" d="M117.8 225.2l.6-2 5.8 1.6-.6 2z"/><path fill="#b07e64" d="M118.6 177.6l40.2-11.6-5.1 18-73.8-8.5z"/><path fill="#aa735a" d="M194 227l-47-23 46 8z"/><path fill="#975c44" d="M10.4 140.3l-.3-1 61.5-17.6.3 1z"/><path fill="#b87f65" d="M131.6 228.8l-10.3-10.2-19.3-34.4 2.4.7z"/><path fill="#8b4a37" d="M119 216l-45.6 13.4 52.2-18.4 1.9 6.4z"/><path fill="#b0755b" d="M88 150.6l3.1-58 14.5 30.5 12.2 15.6z"/><path fill="#ac7860" d="M36 251h26v5H36z"/><path fill="#b68268" d="M71.1 148.6l3.4 24.2-35-38.1 11.2 36.7z"/><path fill="#a36951" d="M180.1 122l-39.3 5.6-3.9-28.2-18.9 5.3z"/><path fill="#aa684e" d="M199.5 91.8l-72.4 15.4-.6-3 72.4-15.4z"/><circle cx="94" cy="225" r="2" fill="#d3af96"/><circle r="1" fill="#763d28" transform="matrix(4.80169 2.94248 -.7271 1.18653 67.5 208.7)"/><path fill="#d2a084" d="M24.6 250l.8-.4 6 10.3-.8.5z"/><path fill="#b78167" d="M29.6 123L2.3 65.6l34.1 87.7 5.2-50.2z"/><path fill="#d1a488" d="M15 42h21v3H15z"/><circle r="1" fill="#d1a083" transform="rotate(58.4 -33.1 127) scale(11.58032 1)"/><path fill="#ad7860" d="M75.4 253.7l-22.1-12.1-11.2-35.2 14.9 32z"/><path fill="#b0725a" d="M5.6 67.6L30 54.4l-18.5-7.5-22.7 21z"/><circle r="1" fill="#733326" transform="rotate(-4.5 1630.7 -2235.9) scale(2.31078 1)"/><path fill="#a0644b" d="M133 165l-18-14 22 35z"/><path fill="#cc9579" d="M156.4 152l8 1.2-.8 4.9-8-1.3z"/><circle cx="193" cy="226" r="2" fill="#ccb3a0"/><path fill="#b07057" d="M45.1 120.2l-2-8.3 64.1-16.4 17.2-2.9z"/><path fill="#be856a" d="M41.2 104.3l38.9 17.2-18.7 9.5 7.6-4.2z"/><path fill="#cd9174" d="M58.4 14.5L48.2 8.6l37.4-2.2 10.1.7z"/><path fill="#a16850" d="M61.1 130.4l36.7 32.9 34-8.7-34.9 14.1z"/><path fill="#c39479" d="M87.9 176.8l.8-.5 19.4 35-.8.4z"/><circle cx="78" cy="228" r="3" fill="#652f1f"/><path fill="#b9846a" d="M173.5 142.5l-30.3-14.2-11.3-7.6-9.3 6.4z"/><circle r="1" fill="#9b624b" transform="rotate(149.5 23.4 107.7) scale(1.04837 43.14868)"/><circle r="1" fill="#be896f" transform="matrix(-49.31757 12.75439 -.63992 -2.4744 203 68.8)"/><path fill="#734432" d="M67 173l-7-3-2 4z"/><path fill="#b3826a" d="M164.9 202.6l.1-10.6-10.9 11.2-36.6-31.9z"/><path fill="#d8b39a" d="M46.3 82.4l.2 1-10.8 2.2-.2-1z"/><path fill="#b5856b" d="M153.5 170.3l33.3 13-18.4-2.4-17.5-20.3z"/><path fill="#bd856a" d="M90.5 277.7l-22-45 1-.4 22 45z"/></g></g></svg>