<svg xmlns="http://www.w3.org/2000/svg" viewBox="0 0 1000 1400"><defs/><filter id="a"><feGaussianBlur stdDeviation="12"/></filter><rect width="100%" height="100%" fill="#584635"/><g filter="url(#a)"><g fill-opacity=".5" transform="translate(2.7 2.7) scale(5.46875)"><ellipse cx="111" cy="152" fill="#b4c1bd" rx="150" ry="173"/><circle r="1" fill="#271502" transform="matrix(-76.92324 -6.12425 3.57008 -44.84167 113.5 71.8)"/><ellipse cx="20" cy="180" fill="#c6cbcb" rx="87" ry="85"/><ellipse cx="122" cy="7" fill="#dde0c5" rx="90" ry="20"/><path fill="#fff" d="M25.5 35.8L-11 24.2l-5 49.5 38.3-28.5z"/><path d="M159 0h6v63h-6z"/><circle r="1" fill="#554b49" transform="matrix(108.42107 -56.45678 7.3333 14.08305 138.6 233.5)"/><path fill="#bcc5c7" d="M145.3 157.9l5.2 48.7-33.8 3.5-5.2-48.7z"/><circle r="1" fill="#5b5243" transform="matrix(-6.44611 22.41958 -126.6136 -36.40415 150.6 113)"/><circle r="1" fill="#5f4426" transform="matrix(102.85477 -46.13443 1.6197 3.61106 97.1 164.6)"/><path fill="#583f22" d="M170.3 110.6l2.4 5.5-169 75.3-2.4-5.5z"/><circle r="1" fill="#2e3b38" transform="matrix(1.31934 -6.60267 46.0032 9.19235 32.2 26.7)"/><circle r="1" fill="#5c5545" transform="matrix(-71.38449 -6.99931 .5295 -5.4002 22.6 109.7)"/><circle r="1" fill="#030a0b" transform="matrix(-3.02544 .34401 -6.61577 -58.18317 106.6 154.5)"/><circle r="1" fill="#9ca49c" transform="rotate(139.5 44.3 82.6) scale(30.14804 9.22195)"/><path fill="#000506" d="M105.7 120.1l65.9-80.2-63.3 92.2-4.1 10.7z"/><path fill="#b2c1c8" d="M92 270l55-46-67 31z"/><circle r="1" fill="#9c805e" transform="rotate(147 7 36.6) scale(51.12383 15.58427)"/><circle r="1" fill="#c0c6c2" transform="rotate(-106.2 73.8 57.4) scale(21.27286 63.65497)"/><path fill="#e4e6cf" d="M198 21l-33 13-1-50z"/><circle r="1" fill="#eee8e2" transform="matrix(-.7748 2.70598 -13.92972 -3.98843 69.8 107.2)"/><circle r="1" fill="#3f301f" transform="matrix(18.386 12.73107 -24.59186 35.51516 115.6 67.5)"/><circle r="1" fill="#c9cebf" transform="matrix(4.1381 12.22763 -30.71484 10.39456 62 7.6)"/><path fill="#0b0c0a" d="M-12.3 15.2l.6-18 44 1.6-.6 18z"/><path fill="#a8b3bb" d="M148.9 208.9l-150.8 2.2-13.7 59.9 85.5-20.5z"/><path fill="#d8dac0" d="M153.6 19.3l8.6 23.2-8.7-9.1-36.6-6.6z"/><path fill="#3f3623" d="M37 23h64l31 26z"/><path fill="#4a3627" d="M139.9 215.9l58.1-32.6-27.8 28.1-135.1 57.4z"/><circle r="1" fill="#656d70" transform="matrix(42.15737 -39.45774 10.11734 10.80955 180 163)"/><circle r="1" fill="#efe7e2" transform="matrix(29.88186 5.53828 -.5732 3.0927 31 102.2)"/><circle r="1" fill="#6d502f" transform="matrix(-26.8861 10.18099 -.92086 -2.43182 18.4 121.8)"/><path fill="#f7ffe8" d="M1.9 59l21.7-20.2-.6-6.9-33.3-.6z"/><path fill="#0d110c" d="M162 6.2l4.7 85.4L154.5-10l4-4.8z"/><circle r="1" fill="#8e9a9e" transform="matrix(-2.65249 -4.84486 58.88838 -32.24045 179.2 211)"/><path fill="#a2ada8" d="M128 91.4l-20.8 14.4-3.6 12 7.6-2.6z"/><path fill="#bdc2bf" d="M98.4 200.3l12 16.7-3-47.9-53.2 16.2z"/><path fill="#5c3e26" d="M102 69L13 86l28 13z"/><circle r="1" fill="#babeb8" transform="matrix(-1.81209 -4.30132 115.3016 -48.57505 47.7 176.3)"/><path fill="#4b4e47" d="M164 36v105l34-119z"/><path fill="#1c1c17" d="M104.2 158.6l.5-48.1 5.8 45.3 3.8 63.3z"/><path fill="#b1b5af" d="M115.9 192.7l42.6-26.8 4.3-25-50.8 21.4z"/><path fill="#898d85" d="M105.2 131.8l58.2-39.5 1.3 25.5-6.4-1.6z"/><circle r="1" fill="#11130f" transform="matrix(2.16907 44.34977 -1.91167 .0935 165.6 92.1)"/><circle r="1" fill="#4f3928" transform="matrix(2.09723 3.75254 -36.99409 20.6753 159.7 232.5)"/><path fill="#acada4" d="M-15 104l116 16-28 23z"/><path fill="#6d533f" d="M12 206l-28 4 46-21z"/><circle r="1" fill="#404138" transform="matrix(72.3491 10.4045 -.32143 2.2351 33.8 108.6)"/><path fill="#d5cecb" d="M-15.8 83.7l34 7.9-2.4 10.7-34-7.9z"/><ellipse cx="68" cy="18" fill="#d1d4c2" rx="37" ry="5"/><path fill="#040701" d="M26 7h5v16h-5z"/><path fill="#5d6b69" d="M-15 38l33-18-34-4z"/><path fill="#fbffe7" d="M157 24l-13 3 13 8z"/><path fill="#71746c" d="M167.5 123V87h17v36z"/><ellipse cx="174" cy="54" fill="#717167" rx="9" ry="13"/><path fill="#282d28" d="M26.3 38.6l-3-.6 4.4-22.6 3 .6z"/><circle r="1" fill="#9aa0a1" transform="matrix(25.79225 -11.00133 8.75348 20.52226 84.4 216)"/><path fill="#7e8d9b" d="M169 271l-41.9-14.7 11.8-6.2 59.1-31.8z"/><path fill="#556363" d="M114.2 47.1L36.1 36.7 24.6 24.1 102.3 40z"/><path fill="#888e89" d="M83 119l-34 32 19-33z"/><path fill="#0f100d" d="M129.3 101.5l-4-3 33.4-46 4 3z"/><path fill="#e8ecd7" d="M168 33.8l-3.7-9.4 31.8-12.2 3.6 9.4z"/><path fill="#4c3d2c" d="M58 56l37 63 66-83z"/><path fill="#c0c6c6" d="M39 167.1l3.6-21.9-58.6 9 1.9 33.9z"/><circle r="1" fill="#535d57" transform="matrix(-2.95995 .34453 -6.1819 -53.10978 95.9 75.5)"/><path fill="#705b4c" d="M20.2 181.1l-29.4 17-3-5.2 29.4-17z"/><path fill="#979b94" d="M136.4 102.3L133 97l-21.6 32.7 9.9.3z"/><path fill="#a3a38c" d="M70 0h84v10H70z"/><path fill="#7f877e" d="M161 78.1l2.3 4.5L141 93.9l-2.3-4.5z"/><path fill="#dae1e0" d="M31 110l-12-1-14 11z"/><path fill="#72644f" d="M40.6 108.4l-37.4 1.4 49.2.9-68.4 26.9z"/><circle r="1" fill="#cfd2ce" transform="matrix(-1.37415 -3.26896 29.62454 -12.45301 65 169)"/><path fill="#fff" d="M24.7 19.5L21 18l2.3-5.5L27 14z"/><circle r="1" fill="#69573c" transform="matrix(-.5288 4.53321 -26.10712 -3.04535 87.4 28.4)"/><path fill="#bfc2ba" d="M100.4 140.7l-1.7-16.3-6.1-2-50.7 42.4z"/><circle r="1" fill="#b5bcbe" transform="matrix(-49.19332 19.43098 -2.11913 -5.36498 46.5 197.8)"/><path fill="#aa9c91" d="M59.9 103.7L15.7 96l56.9 5.6 15.2 9.8z"/><path fill="#7b6853" d="M-16 115.1l13.2.1-13.2 7.4 58.4-19.4z"/><ellipse cx="21" cy="244" fill="#b7bcbf" rx="26" ry="15"/><path fill="#222319" d="M-15.1 13.8l80.5 18.6-8.2 7.3 12-10.7z"/><path fill="#c2c4af" d="M28.8 14.7l73.9-3.3 58.7 17.2L83.5 24z"/><path fill="#796757" d="M53.8 183.4l-12.2.4-19 9.4-7.6 13.6z"/><ellipse cx="175" fill="#b5b6a2" rx="13" ry="22"/><path fill="#31332c" d="M105.5 106.9l6.1 76.8-6.9-19.9-7.8-58.6z"/><path fill="#9d8668" d="M65.2 44.5L-4.2 89.8l-8.9-16.9L29 37.2z"/><ellipse cy="108" fill="#e8eeec" rx="8" ry="3"/><path d="M-13 37l-3-16 19 7z"/><path fill="#848a8a" d="M172 193l-27-33-13 56z"/><path fill="#5c452f" d="M95 100l-67-5 52-52z"/><circle r="1" fill="#4a3e33" transform="matrix(36.15693 -15.09387 1.68567 4.03798 182 198.6)"/><path fill="#e0e4d5" d="M5 28l17 4-38 45z"/><path fill="#2d2c22" d="M94.4 27l7.1 82.1 32.1-24.4-30.4 5.8z"/><path fill="#5d4838" d="M128.7 253.2L110 264.5l-4.6-7.7 18.8-11.3z"/><path fill="#423626" d="M164.1 25l-30.3 56.4-29.1-56.1L166 42z"/><path fill="#64655d" d="M198 171.8l-37.9-.5 20.6-34.8-5-49.5z"/><path fill="#d7d9c5" d="M58 20l-7 4-17-11z"/><path fill="#b9bfba" d="M74.5 117.4l-27.1-3.7-61.7 25.8 86.4-20.3z"/><path fill="#392d1e" d="M145 96.5l36.2-32.7-34.9 16.5 51.7-2.8z"/><circle r="1" fill="#302a21" transform="matrix(6.8912 6.8912 -18.59988 18.59988 24.3 .3)"/><path fill="#191e1c" d="M112.4 210.7l-2.7-16.8 4-.6 2.6 16.8z"/><circle r="1" fill="#080300" transform="matrix(-8.8163 13.89226 -1.85224 -1.17547 114.2 116.8)"/></g></g></svg>