<svg xmlns="http://www.w3.org/2000/svg" viewBox="0 0 1120 1400"><defs/><filter id="prefix__a"><feGaussianBlur stdDeviation="12"/></filter><rect width="100%" height="100%" fill="#403633"/><g filter="url(#prefix__a)"><g transform="translate(2.7 2.7) scale(5.46875)"><path fill="#cdc9be" fill-opacity=".5" d="M-22.2 182.8l3.4-194 255 4.4-3.4 194z"/><ellipse cx="199" cy="153" fill="#fff" fill-opacity=".5" rx="12" ry="255"/><path fill="#fff" fill-opacity=".5" d="M203.5 245v20h-211v-20z"/><ellipse cx="198" cy="94" fill="#fff" fill-opacity=".5" rx="10" ry="255"/><path fill="#fff" fill-opacity=".5" d="M0 246h204v10H0z"/><ellipse cx="75" cy="214" fill="#00080c" fill-opacity=".5" rx="116" ry="31"/><ellipse cx="116" cy="26" fill="#655e55" fill-opacity=".5" rx="73" ry="82"/><ellipse cx="185" cy="58" fill-opacity=".5" rx="3" ry="186"/><circle r="1" fill="#fff" fill-opacity=".5" transform="rotate(-91 182.4 -13.8) scale(193.14106 10.1698)"/><ellipse cx="95" cy="251" fill="#fff" fill-opacity=".5" rx="203" ry="6"/><circle r="1" fill="#5f5b54" fill-opacity=".5" transform="matrix(-20.0233 3.7111 -10.75852 -58.04776 16.6 11)"/><ellipse cx="101" cy="83" fill="#928980" fill-opacity=".5" rx="31" ry="30"/><path fill="#191c1d" fill-opacity=".5" d="M129 185h60v59h-60z"/><ellipse cx="199" cy="158" fill="#fff" fill-opacity=".5" rx="10" ry="255"/><ellipse cx="77" cy="252" fill="#fff" fill-opacity=".5" rx="159" ry="7"/><ellipse cx="9" cy="179" fill="#9d9285" fill-opacity=".5" rx="114" ry="6"/><path fill="#74685e" fill-opacity=".5" d="M140 92h41v43h-41z"/><ellipse cx="48" cy="141" fill="#fff0e2" fill-opacity=".5" rx="1" ry="35"/><ellipse cx="119" fill="#5f5852" fill-opacity=".5" rx="63" ry="17"/><ellipse cx="80" cy="64" fill="#e8dacd" fill-opacity=".5" rx="1" ry="57"/><path fill="#6d665e" fill-opacity=".5" d="M26 87h57v25H26z"/><ellipse cx="92" cy="100" fill="#221d1b" fill-opacity=".5" rx="1" ry="83"/><path fill="#d8cbbd" fill-opacity=".5" d="M44 98h2v83h-2z"/><path fill="#00030b" fill-opacity=".5" d="M182 0h5v38h-5z"/><ellipse cx="84" cy="96" fill="#e1d4c6" fill-opacity=".5" rx="1" ry="77"/><ellipse cx="87" cy="49" fill="#d4c7ba" fill-opacity=".5" rx="1" ry="103"/><path fill="#22201f" fill-opacity=".5" d="M41 92.4h-1L35-.3h1z"/><ellipse cx="136" cy="93" fill="#d3c6b6" fill-opacity=".5" rx="1" ry="77"/><path fill="#323131" fill-opacity=".5" d="M1 64l1 63-18-58z"/><ellipse cx="115" cy="90" fill="#d7cdbf" fill-opacity=".5" rx="1" ry="70"/><path fill="#efe5d6" fill-opacity=".5" d="M97.7 136.5l-2.4-47h1l2.4 47z"/><ellipse cx="82" cy="49" fill="#1e1b1a" fill-opacity=".5" rx="1" ry="81"/><ellipse cx="70" cy="84" fill="#23201e" fill-opacity=".5" rx="1" ry="60"/><ellipse cx="104" cy="76" fill="#25201d" fill-opacity=".5" rx="1" ry="65"/><ellipse cx="165" cy="92" fill="#cfc5b7" fill-opacity=".5" rx="1" ry="71"/><ellipse cx="51" cy="125" fill="#f1e5d7" fill-opacity=".5" rx="1" ry="41"/><ellipse cx="26" cy="105" fill="#1c191a" fill-opacity=".5" rx="1" ry="49"/><ellipse cx="133" cy="92" fill="#d7c9ba" fill-opacity=".5" rx="1" ry="64"/><ellipse cx="162" cy="90" fill="#d3c4b8" fill-opacity=".5" rx="1" ry="66"/><ellipse cx="131" cy="34" fill="#2b2623" fill-opacity=".5" rx="1" ry="107"/><ellipse cx="28" cy="112" fill="#f2eada" fill-opacity=".5" rx="1" ry="36"/><ellipse cx="168" cy="81" fill="#c3baab" fill-opacity=".5" rx="1" ry="96"/><path fill="#524c47" fill-opacity=".5" d="M65 162h20v10H65z"/><ellipse cx="90" cy="72" fill="#d4c8ba" fill-opacity=".5" rx="1" ry="80"/><ellipse cx="159" cy="82" fill="#c8bdb1" fill-opacity=".5" rx="1" ry="71"/><ellipse cx="24" cy="96" fill="#e9dfcd" fill-opacity=".5" rx="1" ry="37"/><ellipse cx="68" cy="71" fill="#d5c9bb" fill-opacity=".5" rx="1" ry="56"/><path fill="#48423d" fill-opacity=".5" d="M85 7h2v152h-2z"/><path fill="#ddd5c4" fill-opacity=".5" d="M-3-20.4l7 78.7H3l-7-78.6z"/><path fill="#2d2623" fill-opacity=".5" d="M106.5 135V9h1v126z"/><ellipse cx="134" cy="60" fill="#312822" fill-opacity=".5" rx="1" ry="91"/><path fill="#696059" fill-opacity=".5" d="M183 122.1l-17.6 10.4-12.1 42.7-2.6-59.8z"/><path fill="#433e3a" fill-opacity=".5" d="M88 7h2v133h-2z"/><ellipse cx="53" cy="144" fill="#261e1d" fill-opacity=".5" rx="1" ry="46"/><ellipse cx="110" cy="76" fill="#2f2624" fill-opacity=".5" rx="1" ry="61"/><path fill="#232323" fill-opacity=".5" d="M141 185h48v61h-48z"/><ellipse cx="125" cy="75" fill="#2a2222" fill-opacity=".5" rx="1" ry="56"/><path fill="#ddd4c7" fill-opacity=".5" d="M43.7 185h-1l-2.4-68h1z"/><path fill="#423936" fill-opacity=".5" d="M140 20h2v139h-2z"/><ellipse cx="171" cy="107" fill="#cbc0b2" fill-opacity=".5" rx="1" ry="79"/><path fill="#d2c6ba" fill-opacity=".5" d="M109.5 95.5v23h-5v-23z"/><ellipse cx="200" cy="145" fill="#fff" fill-opacity=".5" rx="11" ry="255"/><ellipse cx="30" cy="146" fill="#282322" fill-opacity=".5" rx="1" ry="49"/><ellipse cx="118" cy="89" fill="#dacec2" fill-opacity=".5" rx="1" ry="55"/><ellipse cx="139" cy="86" fill="#cbc4b4" fill-opacity=".5" rx="1" ry="64"/><ellipse cx="95" cy="106" fill="#3d3632" fill-opacity=".5" rx="1" ry="90"/><ellipse cx="65" cy="63" fill="#d1c9bc" fill-opacity=".5" rx="1" ry="46"/><ellipse cx="128" cy="7" fill="#2d2925" fill-opacity=".5" rx="1" ry="125"/><ellipse cx="21" cy="106" fill="#f2e9da" fill-opacity=".5" rx="1" ry="39"/><ellipse cx="73" cy="88" fill="#302926" fill-opacity=".5" rx="1" ry="60"/><ellipse cx="152" cy="47" fill="#2e2825" fill-opacity=".5" rx="1" ry="98"/><ellipse cx="32" cy="148" fill="#e1dacc" fill-opacity=".5" rx="1" ry="37"/><path fill="#37332e" fill-opacity=".5" d="M5.1 58h1L5 128H4z"/><ellipse cx="188" cy="45" fill="#919699" fill-opacity=".5" rx="1" ry="59"/><ellipse cx="115" cy="23" fill="#d5c9bb" fill-opacity=".5" rx="13" ry="2"/><ellipse cx="33" cy="146" fill="#2c2727" fill-opacity=".5" rx="1" ry="59"/><ellipse cx="76" cy="82" fill="#302825" fill-opacity=".5" rx="1" ry="60"/><path fill="#1e2022" fill-opacity=".5" d="M182 89h5v62h-5z"/><ellipse cy="155" fill="#efe5d5" fill-opacity=".5" rx="1" ry="31"/><ellipse cx="101" cy="72" fill="#2a2523" fill-opacity=".5" rx="1" ry="49"/><ellipse cy="214" fill="#171619" fill-opacity=".5" rx="72" ry="30"/><ellipse cx="88" cy="251" fill="#fff" fill-opacity=".5" rx="137" ry="6"/><ellipse cx="4" cy="154" fill="#f2e3d5" fill-opacity=".5" rx="1" ry="31"/><ellipse cx="160" cy="27" fill="#2c2826" fill-opacity=".5" rx="1" ry="115"/><ellipse cx="81" cy="124" fill="#e4dbce" fill-opacity=".5" rx="1" ry="39"/><ellipse cx="130" cy="106" fill="#d2c4b8" fill-opacity=".5" rx="1" ry="58"/><path fill="#e7e0d0" fill-opacity=".5" d="M17.5 130V60h1v70z"/><ellipse cx="40" cy="158" fill="#2c2727" fill-opacity=".5" rx="1" ry="38"/><ellipse cx="156" cy="42" fill="#bcb7a8" fill-opacity=".5" rx="1" ry="103"/><path fill="#3e3834" fill-opacity=".5" d="M42.2 56.5h-1l-1.4-83h1z"/><ellipse cx="121" cy="87" fill="#d2c6b9" fill-opacity=".5" rx="1" ry="55"/><ellipse cx="150" cy="4" fill="#bdb1a6" fill-opacity=".5" rx="1" ry="135"/><path fill="none" stroke="#b7b1a4" stroke-opacity=".5" stroke-width=".5" d="M30.2 192.2q3.7-21.7-1-189.9"/><path fill="#f1ecda" fill-opacity=".5" d="M37.5 68.5v43h-1v-43z"/><ellipse cx="122" cy="83" fill="#3a302b" fill-opacity=".5" rx="1" ry="62"/><ellipse cx="49" cy="30" fill="#e6decf" fill-opacity=".5" rx="1" ry="22"/><ellipse cx="98" cy="73" fill="#382e2b" fill-opacity=".5" rx="1" ry="58"/><ellipse cx="59" cy="60" fill="#c8c2b8" fill-opacity=".5" rx="1" ry="43"/><ellipse cx="102" cy="77" fill="#c6b8ac" fill-opacity=".5" rx="1" ry="64"/><ellipse cx="4" cy="6" fill="#e2dccc" fill-opacity=".5" rx="1" ry="38"/></g></g></svg>