<svg xmlns="http://www.w3.org/2000/svg" viewBox="0 0 1400 934"><defs/><filter id="a"><feGaussianBlur stdDeviation="12"/></filter><rect width="100%" height="100%" fill="#312e2b"/><g filter="url(#a)"><g fill-opacity=".5" transform="translate(2.7 2.7) scale(5.46875)"><circle r="1" fill="#fff" transform="matrix(-136.80274 -120.60784 113.14787 -128.34106 141.7 72.3)"/><ellipse cx="217" cy="51" fill="#fff" rx="77" ry="95"/><path d="M107 32h33v94h-33z"/><circle r="1" fill="#e8e1c6" transform="rotate(-82.8 40 -20.5) scale(91.35633 54.7969)"/><circle r="1" fill="#fffff7" transform="rotate(78.7 76.4 173.2) scale(66.92336 41.96487)"/><path fill="#e6e2ca" d="M141 0h75v130h-75z"/><path d="M142 48L119-1l18 103z"/><path fill="#060100" d="M162.5 87.6l6-.2 1 31-6 .2z"/><path fill="#fffff6" d="M130 0h19v33h-19z"/><ellipse cx="135" cy="125" fill="#fffffb" rx="126" ry="2"/><circle r="1" fill="#a7a8a0" transform="matrix(-38.305 7.1986 -5.5679 -29.62769 214.8 156.4)"/><circle r="1" fill="#76796e" transform="matrix(-2.05228 -23.15301 59.39914 -5.26513 27.8 149)"/><path fill="#9e9987" d="M127.5 23.7l-2 57-13-.4 2-57z"/><path fill="#272d33" d="M271 151l-2.5 1.5-46.5-22.9 6.7-3.3z"/><ellipse cx="123" cy="5" rx="4" ry="29"/><path fill="#080000" d="M131 33h10v86h-10z"/><circle r="1" transform="matrix(15.57967 -7.76774 .865 1.73492 7.7 133.6)"/><path fill="#fff" d="M271 150l-8-99-71 50z"/><path fill="#d8d3c1" d="M121-16L-12 53l130-23z"/><path d="M129 89l-22-10v27z"/><path fill="#c19b61" d="M115 97h14v20h-14z"/><path fill="#696554" d="M194.5 89.5l-6.8-5.4 3.4 35 1.6-31.7z"/><path fill="#e5e2d5" d="M141 36h17v88h-17z"/><path fill="#b1ac98" d="M107 65l-123 60 107 2z"/><path d="M188.5 116.2l-20.9 2.6v-1l20.8-2.6z"/><path fill="#7f745f" d="M173 127.4l19.1-.8-24.6 28.7-14.6-8.3z"/><path fill="#3a3a2d" d="M168 84h19v3h-19z"/><path fill="#060500" d="M108 32h3v92h-3z"/><path fill="#ffffe2" d="M149 134h16v6h-16z"/><circle r="1" fill="#afb1ac" transform="matrix(-14.79198 15.6821 -36.11979 -34.06962 240.4 164.8)"/><circle r="1" fill="#e0decf" transform="matrix(32.46346 60.79865 -56.62365 30.23421 195.3 0)"/><path d="M-16 137l33-10-33 22z"/><circle r="1" fill="#dddbce" transform="matrix(.00909 -1.96318 62.12125 .28757 117.7 125.8)"/><path fill="#ffe5c8" d="M197.6 141.5l-7.1-12.7-58 14 35.1-11.2z"/><path fill="#fcfffd" d="M193 105h61v22h-61z"/><path fill="#9d9986" d="M160 86h5v33h-5z"/><path fill="#e7e2cd" d="M108 0h11v33h-11z"/><path fill="#9b9476" d="M8 60.5l16.2 56.7L2 123.5l-16.3-56.7z"/><ellipse cx="125" cy="9" fill="#3b372c" rx="5" ry="23"/><path fill="#18180c" d="M111 91l29-21v37z"/><path fill="#bab6a6" d="M17 102l89-66 1 55z"/><path fill="#524b41" d="M149 139h31v4h-31z"/><path fill="#8f8974" d="M149 128h58v4h-58z"/><path fill="#645b48" d="M140 98l-20 17 7-21z"/><path fill="#ddd8c7" d="M179 31l-53 1 15-48z"/><path fill="#a69882" d="M120 88l5-23 6 3z"/><path fill="#dcd8c8" d="M141 39h65v46h-65z"/><path fill="#fff1db" d="M188 141l-11-13 23 8z"/><path fill="#100e03" d="M164 86h24v1h-24z"/><path fill="#90928a" d="M88.2 127.1l106.6 21.6 33.7-7.3L-16 185z"/><path fill="#242a2f" d="M256.3 143l-.5.8-26-12.7.4-1z"/><path fill="#fff" d="M234.5 128.4L241 117l28.5 16.5L263 145z"/><path fill="#352f20" d="M129.6 25.6l-12.1 19.6 4.5-32.3 12.6 86.2z"/><path fill="#e2e0d7" d="M147 117h42v8h-42z"/><path fill="#937a55" d="M136 108l-3 11-15-24z"/><path fill="#959182" d="M40 107h67v13H40z"/><path fill="#4b4a41" d="M190 93h2v23h-2z"/><path d="M167.2 86.5l.6 31h-1l-.6-31z"/><path fill="#1d1d14" d="M111 118h30v4h-30z"/><path fill="#e6e8e4" d="M191 87l80-50-76 87z"/><circle r="1" fill="#cac4b4" transform="matrix(-6.1229 -32.58619 47.63435 -8.95044 65.9 19.7)"/><path fill="#fffce0" d="M170 113l19 1-3-25z"/><path fill="#cbc8be" d="M12 122h87v5H12z"/><path fill="#d1af80" d="M117 98h4v18h-4z"/><path fill="#180f00" d="M126 34h13v35h-13z"/><path fill="#110e00" d="M107 36h6v20h-6z"/><path d="M9.5 134.7L7.2 129l9.3-3.8 2.3 5.6z"/><path fill="#a8a597" d="M108.6 86.7L87 84.3l-101.4 50.1 121.7-30.1z"/><path fill="#574f47" d="M179 136l-17-1 16 9z"/><path d="M142 93l-30-1 15-4z"/><path fill="#252219" d="M130 100l-12 13 20-11z"/><path fill="#080b08" d="M168 116h24v1h-24z"/><path fill="#adaea9" d="M227 128l-55 53 96-10z"/><path d="M122 103h1v17h-1z"/><path fill="#939490" d="M174 149l58 6-20-19z"/><path d="M125.8 90.9l3.2-2.5-17.8-.1 1.9 13z"/><path fill="#ffffec" d="M179 141h9v2h-9z"/><path fill="#dfded3" d="M89 124h57v4H89z"/><circle r="1" fill="#bbb9ac" transform="rotate(85.6 -2.4 12.5) scale(72.41605 12.15324)"/><path fill="#dbd7ca" d="M142.9 100.5L139.7-16l38.5 79.6-32.1 61.6z"/><ellipse cx="124" cy="52" fill="#949797" rx="2" ry="21"/><path fill="#a4a69b" d="M193 155l-127 1 82 25z"/><path fill="#3a3e41" d="M226 127l21 14-8-10z"/><path fill="#b5a78f" d="M181.5 136.6l-6.5-15.5-7-5.2 4.2 21z"/><path fill="#383832" d="M109 83h30v5h-30z"/><ellipse cx="110" cy="100" fill="#302f26" rx="3" ry="22"/><path fill="#817d6d" d="M84 115h22v7H84z"/><ellipse cx="138" cy="59" rx="2" ry="27"/><path fill="#20221a" d="M136 86h5v37h-5z"/><path fill="#9e9179" d="M131 95l-4-2-1 13z"/><path fill="#413625" d="M182.4 141l-7.8-2 1-4 7.8 2z"/><path fill="#c0bba6" d="M-6 136.6l23.8-12.9-33.8 5.9 13.8 6.3z"/><circle r="1" fill="#e9ece8" transform="matrix(-7.17059 46.86002 -12.55444 -1.9211 255 18.1)"/><ellipse cx="120" cy="42" fill="#3d3e37" rx="1" ry="46"/><path fill="#868882" d="M70 145h128v10H70z"/><path fill="#8b836e" d="M112 43h7v36h-7z"/><path fill="#34342c" d="M110 34l1 7 12-10z"/><ellipse cx="108" cy="65" rx="1" ry="32"/><path fill="#e6e5d7" d="M130 7h11v26h-11z"/><circle cx="158" cy="136" r="4" fill="#fffee3"/></g></g></svg>