<svg xmlns="http://www.w3.org/2000/svg" viewBox="0 0 1120 1400"><defs/><filter id="prefix__a"><feGaussianBlur stdDeviation="12"/></filter><rect width="100%" height="100%" fill="#4b3c35"/><g filter="url(#prefix__a)"><g transform="translate(2.7 2.7) scale(5.46875)"><ellipse cx="99" cy="127" fill="#fff" fill-opacity=".5" rx="132" ry="228"/><ellipse cx="199" cy="109" fill="#fff" fill-opacity=".5" rx="19" ry="255"/><ellipse cx="6" cy="133" fill="#fff" fill-opacity=".5" rx="17" ry="255"/><circle r="1" fill-opacity=".5" transform="matrix(.14851 -12.1551 80.41379 .98249 102.4 223.7)"/><ellipse cx="96" cy="247" fill="#fff" fill-opacity=".5" rx="199" ry="13"/><path fill="#706353" fill-opacity=".5" d="M22.8 20.9l11.4 193.2 146.9 13.1-.8-210.2z"/><path fill="#fff" fill-opacity=".5" d="M-21 19.5v-23h224v23z"/><path fill-opacity=".5" d="M21 20h160v12H21z"/><ellipse cx="193" cy="179" fill="#fff" fill-opacity=".5" rx="13" ry="252"/><ellipse cy="94" fill="#fff" fill-opacity=".5" rx="22" ry="255"/><path fill-opacity=".5" d="M23 219h158v15H23z"/><ellipse cx="105" cy="8" fill="#fff" fill-opacity=".5" rx="203" ry="12"/><path fill="#fff" fill-opacity=".5" d="M0 236h204v20H0z"/><ellipse cx="6" cy="141" fill="#fff" fill-opacity=".5" rx="16" ry="253"/><ellipse cx="198" cy="104" fill="#fff" fill-opacity=".5" rx="17" ry="255"/><path fill="#9f9488" fill-opacity=".5" d="M22 205L182 85 22 40z"/><ellipse cx="131" cy="8" fill="#fff" fill-opacity=".5" rx="198" ry="12"/><ellipse cx="97" cy="246" fill="#fff" fill-opacity=".5" rx="203" ry="11"/><path fill="#afa091" fill-opacity=".5" d="M22 212h136v7H22z"/><path fill="#02050b" fill-opacity=".5" d="M23 21h155v10H23z"/><path fill="#111316" fill-opacity=".5" d="M120 220h60v16h-60z"/><ellipse cx="11" cy="46" fill="#fff" fill-opacity=".5" rx="12" ry="230"/><path fill="#18191a" fill-opacity=".5" d="M23 221h149v14H23z"/><ellipse cx="195" cy="46" fill="#fff" fill-opacity=".5" rx="14" ry="255"/><ellipse cx="179" cy="134" fill="#5e5a53" fill-opacity=".5" rx="2" ry="97"/><ellipse cx="94" cy="249" fill="#fff" fill-opacity=".5" rx="203" ry="14"/><circle r="1" fill="#968b7f" fill-opacity=".5" transform="matrix(29.77743 4.52582 -12.47914 82.106 150 117)"/><ellipse cx="117" cy="8" fill="#fff" fill-opacity=".5" rx="203" ry="11"/><path fill="#a59c90" fill-opacity=".5" d="M22 64h40v84H22z"/><path fill="#857a6f" fill-opacity=".5" d="M61 217L85 40l28 176z"/><path fill="#1a1a1d" fill-opacity=".5" d="M180 21h1v85h-1z"/><ellipse cx="201" cy="223" fill="#fff" fill-opacity=".5" rx="20" ry="255"/><path fill="#fff" fill-opacity=".5" d="M0 0h22v256H0z"/><path fill="#958a7d" fill-opacity=".5" d="M23 131h38v88H23z"/><ellipse cx="162" cy="235" fill="#c0b7bd" fill-opacity=".5" rx="117" ry="1"/><path fill="#91867b" fill-opacity=".5" d="M46 41h136v37H46z"/><ellipse cx="180" cy="128" fill="#373a3c" fill-opacity=".5" rx="1" ry="103"/><circle r="1" fill="#a59b8f" fill-opacity=".5" transform="matrix(1.1455 -83.13592 2.9095 .04009 143.8 123.7)"/><path fill="#7d7067" fill-opacity=".5" d="M17.4 39.6l109.2-9.1 56.4 8.1-91.6 3.7z"/><path fill="#1f1f1e" fill-opacity=".5" d="M132 218h48v16h-48z"/><ellipse cx="104" cy="247" fill="#fff" fill-opacity=".5" rx="203" ry="12"/><ellipse cx="96" cy="4" fill="#fff" fill-opacity=".5" rx="203" ry="15"/><ellipse cx="137" cy="20" fill="#6f697d" fill-opacity=".5" rx="43" ry="1"/><ellipse cx="191" cy="238" fill="#fff" fill-opacity=".5" rx="11" ry="43"/><ellipse cx="66" cy="20" fill="#787286" fill-opacity=".5" rx="30" ry="1"/><path fill="#262626" fill-opacity=".5" d="M23 219h61v16H23z"/><path fill="#8b7f74" fill-opacity=".5" d="M105 170h75v48h-75z"/><path fill="#8b8076" fill-opacity=".5" d="M26 175h40v31H26z"/><path fill="#a3998f" fill-opacity=".5" d="M22 41h8v24h-8z"/><ellipse cx="3" cy="221" fill="#fff" fill-opacity=".5" rx="19" ry="255"/><path fill="#8d8178" fill-opacity=".5" d="M156 86h23v77h-23z"/><path fill="#ad9c90" fill-opacity=".5" d="M29 215h39v3H29z"/><ellipse cx="97" cy="218" fill="#666155" fill-opacity=".5" rx="55" ry="1"/><ellipse cx="106" cy="106" fill="#8f867b" fill-opacity=".5" rx="32" ry="45"/><path fill="#282829" fill-opacity=".5" d="M69.7 235l-45.9-16.9 95 15-34.7 2.7z"/><path fill="#9a9084" fill-opacity=".5" d="M158 90l-5 89-15-51z"/><path fill="#262626" fill-opacity=".5" d="M23 21h65v11H23z"/><path fill="#1e1f1e" fill-opacity=".5" d="M95 219h85v16H95z"/><path fill="#a99e92" fill-opacity=".5" d="M24 107l2-44 28 52z"/><path fill="#fefefe" fill-opacity=".5" d="M23.5 221.4L-16 238l100.4 33-65.3-38.1z"/><path fill="#a6998d" fill-opacity=".5" d="M149.5 43.2l.8 7-21.8 2.6-.8-7z"/><path fill="#857a6f" fill-opacity=".5" d="M98 65l33-14-77 3z"/><path fill="#82828b" fill-opacity=".5" d="M181 23.5h1l-1 19h-1z"/><ellipse cx="199" cy="168" fill="#fff" fill-opacity=".5" rx="18" ry="255"/><path fill="#81766b" fill-opacity=".5" d="M52 212.7l42.3.8 11.1-11-13.7-33.6z"/><path fill="none" stroke="#9e9b98" stroke-opacity=".5" stroke-width=".5" d="M175.5 73.8q11.8 37.6 2 97.1"/><path fill="#9f9589" fill-opacity=".5" d="M82.3 112.5l-18.2-7.8-32-2.3 43.8 21.9z"/><path fill="#b5a696" fill-opacity=".5" d="M24 206h15v7H24z"/><path fill="#9b9186" fill-opacity=".5" d="M26.8 180.1l34.1-9 111.7-3.5-149.3-3.3z"/><path fill="#877c71" fill-opacity=".5" d="M157 149h22v65h-22z"/><path fill="#8b8076" fill-opacity=".5" d="M45 90h51v10H45z"/><path fill="#9b9286" fill-opacity=".5" d="M170.9 189.9l-24.7-6.7 13.6-7.3-34.9 13.2z"/><path fill="#83766c" fill-opacity=".5" d="M122 53h55v4h-55z"/><path fill="#3e3d3e" fill-opacity=".5" d="M22 26h3v7h-3z"/><path fill="#90867a" fill-opacity=".5" d="M145.6 219l-52-3.9 54.2-14.8 19.6 16z"/><ellipse cx="45" cy="48" fill="#9d9388" fill-opacity=".5" rx="23" ry="5"/><path fill="#84776f" fill-opacity=".5" d="M146 32h30v15h-30z"/><path fill="#83786f" fill-opacity=".5" d="M110 183l-47-28 32-7z"/><path fill="#9c9186" fill-opacity=".5" d="M154 164h25v6h-25z"/><path fill="#9a8f84" fill-opacity=".5" d="M82 49h36v6H82z"/><ellipse cx="95" cy="113" fill="#82776e" fill-opacity=".5" rx="2" ry="35"/><path fill="#9e9488" fill-opacity=".5" d="M112 93h4v58h-4z"/><path fill="#72655c" fill-opacity=".5" d="M108 41l-19-4 30-4z"/><ellipse cx="91" cy="87" fill="#9f958a" fill-opacity=".5" rx="24" ry="3"/><circle r="1" fill="#a59c90" fill-opacity=".5" transform="rotate(-178.5 72 49.8) scale(2.23419 34.78905)"/><path fill="#958a7f" fill-opacity=".5" d="M176 35h4v104h-4z"/><path fill="#83786e" fill-opacity=".5" d="M72 138h69v4H72z"/><path fill="#91877c" fill-opacity=".5" d="M65.2 139.3l-16.9 44.3 52.7-54.8-53.7-15.6z"/><path fill="#7f756c" fill-opacity=".5" d="M115 94h23v4h-23z"/><ellipse cx="25" cy="133" fill="#aa9e93" fill-opacity=".5" rx="2" ry="69"/><path fill="#1e1c22" fill-opacity=".5" d="M180.7 29l-13 1-.4-7 13-1z"/><path fill="#a99e93" fill-opacity=".5" d="M148.5 99.4l-46.9 4.1v-1l46.8-4z"/><path fill="#998f83" fill-opacity=".5" d="M36 77L23 38l2 40z"/><path fill="#7f7572" fill-opacity=".5" d="M176 65h6v10h-6z"/><path fill="#a0968a" fill-opacity=".5" d="M41 68h30v18H41z"/><path fill="#84796f" fill-opacity=".5" d="M118 150.9l-7.6 11.3 43-3.8-56.8-6.4z"/><path fill="none" stroke="#615850" stroke-opacity=".5" stroke-width=".5" d="M97 32.6q-63 .5-72-1.4"/><ellipse cx="87" cy="34" fill="#968a80" fill-opacity=".5" rx="63" ry="1"/><ellipse cx="113" cy="2" fill="#fff" fill-opacity=".5" rx="203" ry="17"/><ellipse cx="97" cy="206" fill="#958b7f" fill-opacity=".5" rx="26" ry="2"/></g></g></svg>