<svg xmlns="http://www.w3.org/2000/svg" viewBox="0 0 1000 1400"><defs/><filter id="a"><feGaussianBlur stdDeviation="12"/></filter><rect width="100%" height="100%" fill="#664440"/><g filter="url(#a)"><g fill-opacity=".5" transform="translate(2.7 2.7) scale(5.46875)"><ellipse cx="145" cy="55" fill="#fff" rx="181" ry="67"/><path fill="#ffffef" d="M160 80L-2 133-16 31z"/><ellipse cx="92" cy="136" fill="#242c22" rx="63" ry="30"/><circle r="1" fill="#000f1c" transform="rotate(111.9 -68 118.5) scale(25.19717 59.63886)"/><path fill="#353d26" d="M29.1 40.3l-31-.6.8-40 31 .6z"/><circle r="1" fill="#001823" transform="rotate(-68.7 247.6 17.4) scale(25.34542 47.38846)"/><circle r="1" fill="#031617" transform="rotate(-149 110.9 64.8) scale(59.36463 22.18712)"/><circle r="1" fill="#fffff2" transform="matrix(61.4559 29.57672 -1.38844 2.88496 45 194)"/><path fill="#fffff6" d="M9.2 186.7l-25.2-4.2 64.9 31.1 40.2 15.7z"/><path fill="#fffff9" d="M32 27l160 104L16 76z"/><path fill="#c1d4bf" d="M132.4 189.6l65.6 29.9-96.5-22.6 96.5 41.9z"/><circle r="1" fill="#acb19a" transform="rotate(-71.9 161.9 -28.7) scale(6.76531 42.58204)"/><circle r="1" fill="#cbe0d6" transform="matrix(-1.8666 3.97286 -20.2915 -9.53365 95 247.3)"/><path fill="#2a322f" d="M65 110l-81 53 163 69z"/><path fill="#808373" d="M-12 92l8 48 72-34z"/><path fill="#0f0e07" d="M79 106l14-7 26 19z"/><path fill="#fff" d="M81 255.7l-2 3.4-18-10.8 2-3.4z"/><circle r="1" fill="#646f63" transform="rotate(-63.6 94.4 -110.5) scale(7.21211 82.28591)"/><circle r="1" fill="#b7bca6" transform="rotate(-142.4 54.4 3) scale(82.43601 30.37631)"/><circle r="1" fill="#001013" transform="matrix(.89951 -2.17162 41.70212 17.27358 158.9 211.8)"/><path fill="#19120e" d="M-16 146l79-33-45 48z"/><circle r="1" fill="#e1ebd4" transform="matrix(-.84895 2.29501 -18.55751 -6.86463 67.8 220.8)"/><circle r="1" fill="#000c0d" transform="matrix(-68.1107 -32.77947 1.0856 -2.25571 46 202.3)"/><circle r="1" fill="#08161a" transform="rotate(106.3 -56.4 134.7) scale(4.93319 57.92318)"/><path fill="#e9fdf3" d="M-2 243l14 12.8-10 11.1-14-12.7z"/><circle r="1" fill="#cdc6ad" transform="matrix(.56275 -1.55093 165.71512 60.12973 172.2 149.7)"/><path fill="#623530" d="M161 180l-33 25-91-73z"/><path fill="#15231c" d="M133.7 115.7l64.3 19.5-19.2 4.9-69.6-27.5z"/><path fill="#ffffe9" d="M141.2 195.1l33.2 14-1.6 3.8-33.2-14z"/><circle r="1" fill="#999b8d" transform="rotate(45.9 -22.9 250.1) scale(64.38169 19.27425)"/><path fill="#fdfce7" d="M30 20h29v74H30z"/><path fill="#a7a18f" d="M66 0h12v94H66z"/><circle r="1" fill="#0c0d09" transform="matrix(.45759 -1.3365 117.10225 40.09306 182.1 148.3)"/><circle r="1" fill="#ffffe9" transform="rotate(-158.7 61.1 38.3) scale(52.66956 8.08717)"/><path fill="#fcefd6" d="M132.5 203.2l43.2 21-2.2 4.6-43.2-21z"/><circle r="1" fill="#202220" transform="matrix(76.99755 25.91254 -4.53193 13.46635 123.7 149.4)"/><circle r="1" fill="#e1dbbe" transform="matrix(.31068 -.95052 172.0653 56.2396 89.3 113)"/><circle r="1" fill="#5e6965" transform="matrix(-1.35164 5.93108 -49.88772 -11.369 62.7 177.7)"/><path fill="#00080f" d="M105.6 271l-56.2-42.1 44.7 22.8 33.1 19.3z"/><path fill="#d5dac4" d="M189 27.9L132.6 1.7l6.4-13.6 56.2 26.2z"/><path fill="#213636" d="M114 210l-30-43 61 26z"/><path fill="#141a20" d="M128.1 258.4l-31.3-13.3-17.6-29 48 19.2z"/><path fill="#9e988d" d="M13 95l49 17-66 26z"/><path fill="#e1ddc3" d="M198 132.6l-79.3-50.1 8.7 27.9 45.1 17.8z"/><circle r="1" fill="#dddcc0" transform="matrix(-55.84854 -23.93671 .7404 -1.7275 55 198.9)"/><path fill="#6d6858" d="M32.1 39.6L4.2-16l-17.6 56.1L29 43.3z"/><path fill="#b74b36" d="M85.8 155l-60.7-23.2 1.1-2.8 60.7 23.2z"/><circle r="1" fill="#87342a" transform="matrix(-31.53944 -12.60316 1.18062 -2.95451 46.8 148.2)"/><path fill="#bdb7aa" d="M31-16l-1 42 89 55z"/><path fill="#d0d5c5" d="M84 231l4-8-14 2z"/><path fill="#faeed6" d="M168.8 207.6l21.7 10.1-1.3 2.7-21.7-10.1z"/><path fill="#fef3d9" d="M180 230l-14-11 25 8z"/><circle r="1" fill="#c2c6b6" transform="matrix(-70.50726 -38.85231 3.2772 -5.94732 143 37)"/><path fill="#d1ceb3" d="M67.8 217.9L4.1 186.7l-14.3-5L43.9 214z"/><circle r="1" fill="#cccbb2" transform="rotate(26 -407 218.6) scale(45.47426 2.77659)"/><circle r="1" fill="#fffff3" transform="matrix(-16.92828 -12.02356 8.02245 -11.29502 101 88.7)"/><circle cx="28" cy="233" r="26" fill="#1d2329"/><path fill="#faf8e5" d="M51.8 40l15.5 68.3-50.9-38.8L-16 48.6z"/><path fill="#e0d9c9" d="M123 68L85 58l-2-18z"/><path fill="#272d2f" d="M85.5 234.8l38.7-36.7-64.7-.7 98.6 47.2z"/><path fill="#1d292a" d="M178.4 200.2l-21.2-15.5L74 154.9l8.9 6.3z"/><circle r="1" fill="#1e292d" transform="rotate(-74.8 216.2 -14) scale(8.2849 26.35118)"/><path fill="#c1baa4" d="M25.1 83.7l-2.4-20.1 7-.6L-16 89z"/><circle r="1" fill="#423c36" transform="matrix(-21.00792 -9.4391 1.8926 -4.21223 108.8 111.7)"/><path fill="#cdc9ad" d="M180.4 150.9l14.6-6-72.7-19.9 75.7 26.1z"/><circle r="1" fill="#fffee4" transform="matrix(20.483 1.36264 -.35822 5.38478 68.3 99)"/><path fill="#13181c" d="M47 257.3l10.3-24.2-23.8-23.7 51.6 23.1z"/><circle r="1" fill="#1e2726" transform="matrix(-2.29517 7.29398 -63.5039 -19.98259 18.6 150.4)"/><path fill="#b5b1a8" d="M121 254.3l-4.3-1.6 13.6 13.4-58.4-25.4z"/><path fill="#924038" d="M155.1 179.4l9.7 11.7-56.6-29.6 34.5 12.8z"/><path fill="#919086" d="M149.4 80.3l11-23.5 36.2 16.9-11 23.5z"/><path fill="#f5eed3" d="M-1 170.3l26.8 13.6-.9 1.8-26.7-13.6z"/><path fill="#25302b" d="M62.1 186.5l-32.6-2.4 30.2 13.3 5.2.9z"/><path fill="#a7a190" d="M102.2 126.8l-50.5-17.6 53.8 13.5 43.6-53.1z"/><ellipse cx="80" cy="240" fill="#cec9be" rx="6" ry="4"/><path fill="#a09c92" d="M76.4-10.4l6.4-5.6-4.7 58.5-56-50.4z"/><path fill="#863d34" d="M112.2 179.6l-83.2-36 135.7 41-82.4-34z"/><path fill="#322d23" d="M118.4 123.1l-44.6-11.8-6.9.6 20 4.9z"/><path fill="#989185" d="M-9 95l86 12-81 29z"/><circle r="1" fill="#2b2f35" transform="rotate(-42.4 402 -90) scale(18.75497 32.2104)"/><path fill="#bbb5a7" d="M190.2 129.3l-27-11.3-50.7-41.5 17-16.1z"/><path fill="#d4ccb3" d="M197.3 158.9l-95.5-33 1-2.8 95.4 33z"/><path fill="#172121" d="M89.8 221.9l-38.7-21-21.1-4.3 74.6 38.5z"/><path fill="#0b120e" d="M187.3 166.2l-18.7-3.6 2.1-10.8 18.7 3.6z"/><circle r="1" fill="#212a29" transform="matrix(-.77306 2.00502 -67.25042 -25.92907 101.8 166)"/><path fill="#fdf9ea" d="M142 117.7l-41.4-45.2-18.9-12.8 7 38z"/><circle r="1" fill="#25282d" transform="rotate(148.4 -30.5 110.2) scale(24.9181 28.22085)"/><path fill="#d5ccb8" d="M58.4 93.5l6.2-40.3 19.8 4.1-8.8 38.6z"/><path fill="#9e998b" d="M42.9 37.7l19.2 6.1-44-29.7L4 2.7z"/><path fill="#e1ddcd" d="M29 10l27 21-26-9z"/><circle r="1" fill="#202324" transform="rotate(116.3 13 154.3) scale(2.43689 16.37749)"/><path fill="#fffff5" d="M36 81l28-30-34-20z"/><path fill="#534d41" d="M3 11l17 22-36-1z"/><path fill="#888880" d="M197.3 64.5L90.6-16l96.2 46.9 5.9 70.3z"/><path fill="#cdc4af" d="M29.7 85.3l.4-2 34.2 7.4-.4 2z"/><path fill="#29352f" d="M-16 161.2L6.9 187l26.3 12-14.5-8.1z"/><path fill="#575753" d="M-16 155.1l129.2 30.2 8.9 5.6-27.2 6.1z"/><path fill="#c7c2ac" d="M-16 180.4v9.2l17.5-7.1L27.4 204z"/><path fill="#39342e" d="M90.7 115.6l5.6-.1 52.9 22.5-29.7-7.9z"/><path fill="#2b2a26" d="M60.9 111.9L198 161.6l-3.3 14.1-78.6-10.3z"/></g></g></svg>