<svg xmlns="http://www.w3.org/2000/svg" viewBox="0 0 1120 1400"><defs/><filter id="a"><feGaussianBlur stdDeviation="12"/></filter><rect width="100%" height="100%" fill="#574a42"/><g filter="url(#a)"><g fill-opacity=".5" transform="translate(2.7 2.7) scale(5.46875)"><circle r="1" fill="#a5a799" transform="matrix(-200.27415 33.15517 -19.62154 -118.52409 119.4 155.8)"/><circle r="1" transform="matrix(-186.56184 21.58594 -4.21116 -36.39597 72.6 7.2)"/><ellipse cx="42" cy="230" fill="#544e45" rx="75" ry="33"/><circle r="1" fill="#aaa195" transform="matrix(-55.94573 1.008 -.5317 -29.51015 180 56.8)"/><circle r="1" fill="#fff2dc" transform="matrix(1.95983 -.52064 25.74155 96.89833 56.6 159.5)"/><path fill="#b0a698" d="M52.7 66.6l96.7-29.5L-8.8 56.2l-2 14.6z"/><path fill="#000003" d="M79.6 101l2.8-.9 64 196.9-2.8.9z"/><circle r="1" fill="#e3dac9" transform="matrix(-1.82445 .9284 -34.76354 -68.31605 181.8 161.9)"/><circle r="1" fill="#fff6df" transform="matrix(-2.24935 .58626 -9.4846 -36.39019 53.4 184.3)"/><path fill="#04080a" d="M194.9 194l-43.4-80.5 44.8 96.9L219 271z"/><circle r="1" fill="#0f1011" transform="matrix(32.1348 92.78034 -2.17566 .75355 115.2 174.4)"/><path fill="#fff1db" d="M165.7 263.3l-1.9.7L84.3 56.7l1.9-.7z"/><ellipse cx="98" cy="6" fill="#030e14" rx="139" ry="27"/><circle r="1" fill="#f8ead4" transform="matrix(1.99015 -.58162 30.23869 103.46862 75.8 192.1)"/><circle r="1" fill="#e3d7c5" transform="rotate(160 38.8 59.6) scale(1.88672 59.29646)"/><path fill="#ebddc8" d="M97.9 175.5l12.7 29.5-10.6-38.7L62.2 55.6z"/><circle r="1" fill="#f7ead6" transform="rotate(-107.1 101 54) scale(108.94983 1.24766)"/><circle r="1" fill="#e3d8c4" transform="matrix(1.3099 -.29093 23.66233 106.53763 30.7 131)"/><circle r="1" fill="#232423" transform="matrix(32.70466 71.16392 -1.64662 .75674 173.6 180.3)"/><circle r="1" fill="#c3b8a5" transform="matrix(23.77826 117.84586 -2.18196 .44026 20.2 209.2)"/><path fill="#020e15" d="M2 55l-18-31 129 11z"/><circle r="1" fill="#000002" transform="matrix(14.7098 42.87351 -1.81116 .6214 97.3 182)"/><path fill="#40413c" d="M-16 146l45-9-9-37z"/><path fill="#ded1bd" d="M78.5 79.3l27 88.9 21.4 47.3-30.2-88.2z"/><circle r="1" fill="#171b1d" transform="matrix(1.40773 -.69467 37.95798 76.92077 172.4 132.8)"/><circle r="1" fill="#181818" transform="rotate(71.5 -119 189.2) scale(116.43429 2.09222)"/><circle r="1" fill="#f8e9d3" transform="matrix(1.62852 -.56711 23.59571 67.75766 135 215.2)"/><path fill="#fdedd5" d="M98.7 48.7l65.5 162.2-.9.4L97.8 49.1z"/><circle r="1" fill="#14181a" transform="rotate(153.3 76.8 93.6) scale(1.93816 89.83229)"/><path fill="#0d0e0e" d="M169.2 276.1l-36.2-105 3.8-1.2 36.2 105z"/><path fill="#f6eedf" d="M189.1 241.7l-17.8-10.6 12.1 39.9-5.4-53.3z"/><circle r="1" fill="#0d0e0f" transform="rotate(-103.5 98.6 74.7) scale(119.87794 1.75906)"/><circle r="1" fill="#e1d3bc" transform="rotate(167.1 6.5 97.8) scale(1.59257 90.94724)"/><path fill="#fdefd8" d="M161.6 224.7l-1.8.7-61.4-152 1.8-.8z"/><circle r="1" fill="#161616" transform="rotate(160.5 51 115.5) scale(1.80563 90.28258)"/><circle r="1" fill="#c6bcab" transform="matrix(-1.56507 .6942 -54.22406 -122.24945 171.2 162.8)"/><path fill="#2a2926" d="M187.9 258.7L174 229.4 151.6 171l24.4 46.3z"/><path fill="#232321" d="M179.6 271l-20-70.3-44.3-95.8 35.3 87.8z"/><circle r="1" fill="#0d0e0e" transform="matrix(-.97862 .20567 -23.70832 -112.80708 26.7 177.7)"/><path fill="#ebddc8" d="M131 303.4L69 113.2l2-.6 61.8 190.2z"/><path fill="#fffee7" d="M45 153.9l-1 .2-19-90 1-.2z"/><circle r="1" fill="#3b3935" transform="matrix(2.18163 -.65137 53.1508 178.0172 88.8 183.4)"/><path fill="#000308" d="M54.7 170.8l-1 .2L27.3 65.2l1-.2z"/><circle r="1" fill="#d8cfbd" transform="matrix(-35.90194 -71.87045 1.68103 -.83974 181.3 139.8)"/><circle r="1" fill="#21201d" transform="matrix(-2.0088 .46013 -28.32041 -123.63889 39.7 194.9)"/><circle r="1" fill="#ccc2b0" transform="rotate(77.8 -94.9 98.1) scale(199.05074 1.31249)"/><circle r="1" fill="#31312e" transform="matrix(1.58686 -.7535 47.6297 100.3079 186.3 104.7)"/><circle r="1" fill="#24211d" transform="matrix(32.80496 74.47861 -1.55519 .685 169.5 189.7)"/><circle r="1" fill="#2a2824" transform="rotate(79.4 -121.1 117) scale(80.75836 2.57157)"/><path fill="#f9ecd5" d="M149.2 55.2l59.4 116.7-1.8 1L147.4 56z"/><circle r="1" fill="#c8bba5" transform="rotate(79.6 -133.8 127.7) scale(95.04696 1.72823)"/><circle r="1" fill="#e7d8c2" transform="matrix(.92587 -.37784 30.65513 75.11811 135.3 120.4)"/><path fill="#dbd3c4" d="M144.1 252.5l61.4-13.4-32.1-.4-45.5 19.2z"/><path fill="#252626" d="M160.6 136.4l-56-131.6 2.8-1.2 56 131.6z"/><path fill="#0d0f12" d="M144.3 154.8l-1 .3L99.8 41.2l1-.3z"/><path d="M57.3 186.4l2.9-.8 22.5 84-2.9.8z"/><path fill="#beb7a7" d="M136.5 102.9l51.3 112.5 3.2 13.4-61.2-132.3z"/><path fill="#c9c0ae" d="M198.5 143.4l-21.1-45.2 41.6-5.9-29.8 16.2z"/><path fill="#fff" d="M51 105.1l-1 .3-13-56.5 1-.3z"/><circle r="1" fill="#d4c8b5" transform="matrix(1.55885 -.52655 52.48237 155.37447 125.6 219.4)"/><path fill="#000001" d="M65.8 178.1l2-.5 26.4 92.3-2 .5z"/><path fill="#080b0e" d="M65.2 139.9l-1 .3L26.9 0l1-.3z"/><circle r="1" fill="#cfc5b1" transform="matrix(2.52569 -.18548 2.82238 38.43353 7.3 253)"/><path fill="#000005" d="M59.6 64.6l1.9-.6 17 55.4-2 .6z"/><path fill="#f6e4ce" d="M70 203.9l16 51.6-2 .6-15.8-51.6z"/><path fill="#dcd0bd" d="M79.4 105.9L60 77.5l12.2 50.4L67.4 62z"/><circle r="1" fill="#1b1b19" transform="matrix(2.09337 -.3842 31.81321 173.33656 0 176)"/><path fill="#1c1c1a" d="M112.9 244l5.7 4.4 5 5.8-23.7-72.4z"/><path fill="#1d1e1e" d="M63.2 169.8l-1 .3L20.8 4l1-.2z"/><path fill="#1c1d1b" d="M-3.3 83.2l2.9-.6 35.7 168.2-2.9.6z"/><circle r="1" fill="#dacfb9" transform="matrix(-1.48431 .7694 -34.9488 -67.42305 195.2 130.4)"/><path fill="#2d2f2e" d="M176.8 106.1l12.1 28 12 14.8L123.1-7.7z"/><path fill="#fef1da" d="M200 122.1l-46.8-91.8.9-.4 46.7 91.8z"/><path fill="#e5d7c3" d="M39.2 175.1l24.2-6.9 60.6-7.4-29 7.8z"/><path fill="#d4c6b0" d="M61.3 261.8l.6-6-3.5-21.2-17.9-47.2z"/><circle r="1" fill="#d9cbb5" transform="matrix(1.7782 -.30668 5.6849 32.96253 13.7 93.4)"/><path fill="#bbaf9e" d="M132.4 42.9l-12.8 15.8-.6-25.2 38.3 84.3z"/><circle r="1" fill="#f6eede" transform="matrix(-20.92545 -44.45844 .90479 -.42586 183 70.6)"/><path fill="#0d0e11" d="M132.6 102.7l-1 .4-32.2-79.8 1-.4z"/><path fill="#090a0b" d="M126 30l2.8-1.2L148 76l-2.7 1.1z"/><path fill="#313130" d="M117.1 51.7l30.7 73.7 12.4 28.6-23.1-63.4z"/><path fill="#1a1a1b" d="M143.7 191.7l-1 .4L90.4 62.3l1-.4z"/><circle r="1" fill="#dbccb8" transform="matrix(1.7311 -.60336 10.55823 30.29262 120.2 233.5)"/><path fill="#fff8dd" d="M197.8 89.5l-29.4-60.2 1.8-.8 29.4 60.2z"/><circle r="1" fill="#343230" transform="rotate(158.5 47.8 59.8) scale(1.43438 91.69867)"/><path fill="#f3e4ce" d="M148.9 150.7l33.2 78.2-1 .4-33.2-78.2z"/><circle r="1" fill="#333331" transform="matrix(1.0186 -.4774 81.8899 174.72563 171 55)"/><path fill="#2a2a29" d="M50 32.7l43.7 149.4L54.3 27.8-16-11z"/><circle r="1" fill="#e8d7c0" transform="matrix(-17.89642 -43.41996 .92455 -.38107 128 84.3)"/><path fill="#fffae7" d="M153.8 181.8l1-.4 29.4 80.8-1 .4z"/><path fill="#e3d6c1" d="M44 161l41 133.8-1 .3-41-133.9z"/><path fill="#131518" d="M57.8 4.8l41.3 120-.9.4-41.3-120z"/><path fill="#373531" d="M145.7 11.5l32.2 86-22.3-16.3 29.2 20.5z"/><circle r="1" fill="#141413" transform="matrix(-23.77713 -60.85558 .93143 -.36392 193.1 225)"/><path fill="#fff9e1" d="M208.9 74.2l-28.6-45.8.8-.6 28.6 45.8z"/><path fill="#f4e3ca" d="M94.7 219l17.6 65.7-1 .3-17.6-65.7z"/><path fill="#2c2a26" d="M136.8 29.6l20.2 50-1.8.8-20.2-50z"/><circle r="1" fill="#2e2f2e" transform="rotate(-118.1 118.6 -27.3) scale(68.93441 1.26096)"/><path fill="#e2d8c5" d="M55.1 93.9l20.1 66.2-11.7-47.4-18-69.2z"/><path fill="#131514" d="M83.8 200.8l.9 17.8 11.2 8.9 4.6 39.3z"/></g></g></svg>