<svg xmlns="http://www.w3.org/2000/svg" viewBox="0 0 1120 1400"><defs/><filter id="prefix__a"><feGaussianBlur stdDeviation="12"/></filter><rect width="100%" height="100%" fill="#383739"/><g filter="url(#prefix__a)"><g transform="translate(2.7 2.7) scale(5.46875)"><circle cx="86" cy="155" r="195" fill="#fff" fill-opacity=".5"/><circle cx="54" cy="132" r="206" fill="#fff" fill-opacity=".5"/><circle r="1" fill="#4c4e47" fill-opacity=".5" transform="matrix(-47.35925 -.16532 .28027 -80.29244 99.8 130)"/><circle r="1" fill="#fff" fill-opacity=".5" transform="matrix(-46.7511 -.5167 2.24344 -202.9876 191.2 127)"/><ellipse cx="15" cy="169" fill="#fff" fill-opacity=".5" rx="38" ry="255"/><ellipse cx="79" cy="22" fill="#fff" fill-opacity=".5" rx="202" ry="31"/><path fill="#fff" fill-opacity=".5" d="M213.4 204.1l1.1 62L.5 270l-1-62z"/><path fill="#787976" fill-opacity=".5" d="M53 53h92v53H53z"/><ellipse cx="176" cy="107" fill="#fff" fill-opacity=".5" rx="31" ry="255"/><path fill="#7b7b78" fill-opacity=".5" d="M53 144h92v62H53z"/><ellipse cx="24" cy="115" fill="#fff" fill-opacity=".5" rx="29" ry="253"/><circle r="1" fill="#fff" fill-opacity=".5" transform="matrix(.95852 40.1814 -124.41567 2.96793 104.2 11.7)"/><circle r="1" fill="#fff" fill-opacity=".5" transform="matrix(122.96773 -.12137 .02904 29.42236 104.6 235.2)"/><path fill="#8a8b88" fill-opacity=".5" d="M53 53h91v151H53z"/><ellipse cx="141" cy="56" fill="#6a6d6b" fill-opacity=".5" rx="40" ry="3"/><path fill="#5a5e5b" fill-opacity=".5" d="M61.8 54.5l1.5-.9-39.5-.1 2.8 4.7z"/><circle r="1" fill="#fff" fill-opacity=".5" transform="rotate(-174.5 11.5 75.5) scale(35.25122 96.67555)"/><circle r="1" fill="#fff" fill-opacity=".5" transform="rotate(-7.8 1206 -1332.5) scale(44.07149 88.98086)"/><path fill="#696c67" fill-opacity=".5" d="M144 128h28v4h-28z"/><ellipse cx="37" cy="205" fill="#0a0f11" fill-opacity=".5" rx="8" ry="2"/><path fill="#81847f" fill-opacity=".5" d="M172.4 204.1l-23.8.4-49.8 1.7 77.5-7.3z"/><ellipse cx="78" cy="19" fill="#fff" fill-opacity=".5" rx="203" ry="27"/><ellipse cx="114" cy="240" fill="#fff" fill-opacity=".5" rx="137" ry="23"/><path fill="#575c5a" fill-opacity=".5" d="M25.8 132.8l-.4-3 20.8-2.6.4 3z"/><path fill="#8b8a88" fill-opacity=".5" d="M56 53h89v146H56z"/><path fill="#fff" fill-opacity=".5" d="M145 57h25v54h-25z"/><circle r="1" fill="#585c5e" fill-opacity=".5" transform="rotate(95.1 54.3 101) scale(1 25.20485)"/><ellipse cx="185" cy="144" fill="#fff" fill-opacity=".5" rx="26" ry="70"/><path fill="#545552" fill-opacity=".5" d="M46 203h28v2H46z"/><circle r="1" fill="#fff" fill-opacity=".5" transform="matrix(3.73773 139.2109 -30.07527 .8075 0 117.6)"/><ellipse cx="95" cy="17" fill="#fff" fill-opacity=".5" rx="203" ry="28"/><path fill="#868784" fill-opacity=".5" d="M119 122h26v85h-26z"/><path fill="#686c6e" fill-opacity=".5" d="M38.4 57.1L30 52.2l-5.9 6.7 16-6.7z"/><ellipse cx="39" cy="85" fill="#fff" fill-opacity=".5" rx="15" ry="27"/><ellipse cx="109" cy="246" fill="#fff" fill-opacity=".5" rx="183" ry="23"/><circle r="1" fill="#fff" fill-opacity=".5" transform="matrix(15.16527 -108.0521 26.49047 3.71797 200 114.3)"/><path fill="#404147" fill-opacity=".5" d="M144 129h14v2h-14z"/><path fill="#898a87" fill-opacity=".5" d="M54 54h91v94H54z"/><path fill="#92928d" fill-opacity=".5" d="M55 165l19 49 23-43z"/><path fill="#959592" fill-opacity=".5" d="M101.2 140.4L53.4 69.6l8.1 67.7-18.8-10.4z"/><path fill="#c7cac0" fill-opacity=".5" d="M69 205l-17 17 1-15z"/><path fill="#575959" fill-opacity=".5" d="M27 54h53v2H27z"/><path fill="#fff" fill-opacity=".5" d="M219 185l-72 17-1-72z"/><path fill="#4e504e" fill-opacity=".5" d="M113 203h47v1h-47z"/><circle r="1" fill="#40454d" fill-opacity=".5" transform="matrix(-7.08833 1.00271 -.14006 -.99014 165 201.5)"/><ellipse cx="37" cy="166" fill="#fff" fill-opacity=".5" rx="15" ry="36"/><path fill="#8d8d89" fill-opacity=".5" d="M55 153h76v53H55z"/><path fill="#fff" fill-opacity=".5" d="M165.4-16L-16 23.3l175.4 24.2L219 74.9z"/><path fill="#909289" fill-opacity=".5" d="M158 129h16v2h-16z"/><path fill="#fff" fill-opacity=".5" d="M-16 213.6l65.9-8.6 4.7 20.1 100 45.9zM53.4 60.3l-1.1 46.3-51.2 47.8-17.1-104z"/><path fill="#595e60" fill-opacity=".5" d="M132 53l.2-1 47.7 5v1z"/><path fill="#fff" fill-opacity=".5" d="M153 61h51v68h-51z"/><circle r="1" fill="#7c7c7b" fill-opacity=".5" transform="matrix(-32.2072 -4.98594 1.16953 -7.5547 85.7 146.6)"/><path fill="#4b4f53" fill-opacity=".5" d="M32 204h19v2H32z"/><path fill="#fff" fill-opacity=".5" d="M147 58h28v69h-28zm-2-25h59v21h-59z"/><path fill="#80807e" fill-opacity=".5" d="M55 54h21v25H55z"/><path fill="#212830" fill-opacity=".5" d="M24.3 52.6l5.7 1.8-.3 1-5.7-1.8z"/><path fill="#989894" fill-opacity=".5" d="M100 95L74 71 53 93z"/><path fill="#7a7a7c" fill-opacity=".5" d="M114.3 112.6l-16.9 15.7-15.7-16.9 16.9-15.7z"/><path fill="#a9aca4" fill-opacity=".5" d="M174 58h11v3h-11z"/><path fill="#fff" fill-opacity=".5" d="M0 134h52v69H0z"/><circle r="1" fill="#e2e4dd" fill-opacity=".5" transform="rotate(178.8 45.6 25.5) scale(52.10266 3.60634)"/><circle r="1" fill="#959592" fill-opacity=".5" transform="matrix(-17.16887 -21.08655 7.08723 -5.7705 121 107)"/><path fill="#e6e8dd" fill-opacity=".5" d="M69 206h70v4H69z"/><path fill="#fff" fill-opacity=".5" d="M36 130h12v74H36z"/><path fill="#bbbdb4" fill-opacity=".5" d="M144.5 52.6l-.9-7.1-5.9.7 3.6 11.7z"/><path fill="#868684" fill-opacity=".5" d="M112 52h33v40h-33z"/><path fill="#787b79" fill-opacity=".5" d="M27 130h5v3h-5z"/><path fill="#fff" fill-opacity=".5" d="M161.2 132.8l-18.5-3.7 76.3 85.2-72.5-24.1z"/><circle r="1" fill="#fff" fill-opacity=".5" transform="rotate(71.8 -122.2 196.4) scale(47.17029 29.96421)"/><path fill="#fff" fill-opacity=".5" d="M44.5 46.5l60.6-6.1L-16 30.5l73 26.2z"/><path fill="#eef0e5" fill-opacity=".5" d="M169 201h20v3h-20z"/><path fill="#797978" fill-opacity=".5" d="M153.2 127.3l-12.4 4.1 5.3 12.5-26 6.6z"/><path fill="#898987" fill-opacity=".5" d="M145.3 92.8l-.7 116.3-90.1-26.7 73 13.8z"/><path fill="#fff" fill-opacity=".5" d="M0 60h53v66H0z"/><ellipse cx="72" cy="57" fill="#848481" fill-opacity=".5" rx="22" ry="5"/><path fill="#989891" fill-opacity=".5" d="M76.6 188l39 19.4 25.2-39.8-46.1 33.9z"/><circle cx="159" cy="131" r="2" fill="#8d8e83" fill-opacity=".5"/><path fill="#7c7c7c" fill-opacity=".5" d="M133 177h12v21h-12z"/><circle cx="48" cy="209" r="5" fill="#fffffe" fill-opacity=".5"/><path fill="#747876" fill-opacity=".5" d="M30 129h33v1H30z"/><path fill="#fefefe" fill-opacity=".5" d="M27.9 128.1l7.5 1.8-31.3 2.2 43.7-81.9z"/><path fill="#878785" fill-opacity=".5" d="M53 183h23v23H53z"/><path fill="#9e9f97" fill-opacity=".5" d="M65.6 158l-.7-.7 57.5-43.4.7.8z"/><circle r="1" fill="#fff" fill-opacity=".5" transform="matrix(2.68235 -9.97688 26.80047 7.20548 175.2 70)"/><path fill="#fefefe" fill-opacity=".5" d="M168.4 74.5l6.1 64L155.1 91 144 52.7z"/><path fill="#fff" fill-opacity=".5" d="M178 55L124 2l26 47z"/><path fill="#aeb0a5" fill-opacity=".5" d="M108.7 160.8l-.7-.8 37.3-34.8.7.8z"/><path fill="#dbddd4" fill-opacity=".5" d="M91 51h52v2H91z"/><ellipse cx="5" cy="56" fill="#fff" fill-opacity=".5" rx="21" ry="241"/><path fill="#c3c3b5" fill-opacity=".5" d="M21 205h11v2H21z"/><path fill="#79797a" fill-opacity=".5" d="M55.3 133l-1.3 9.6-1.5 9 23.6.6z"/><ellipse cx="154" cy="203" fill="#393c43" fill-opacity=".5" rx="4" ry="1"/><path fill="none" stroke="#595d64" stroke-opacity=".5" stroke-width=".5" d="M173.4 201.7q-4.6-3.5-22.6 3"/><path fill="#6c6b6c" fill-opacity=".5" d="M54 54h1v46h-1z"/><path fill="#7f7f80" fill-opacity=".5" d="M93.4 169.5l-34.3-2.9 45.4-16.9-27.6 26z"/><path fill="#fff" fill-opacity=".5" d="M-16 8.1L219-16 68.6 36.9l-27 18.3z"/><path fill="#323841" fill-opacity=".5" d="M40.7 53.2l.3 1-9.7 2.6-.3-1z"/></g></g></svg>