<svg xmlns="http://www.w3.org/2000/svg" viewBox="0 0 1120 1400"><defs/><filter id="a"><feGaussianBlur stdDeviation="12"/></filter><rect width="100%" height="100%" fill="#57463c"/><g filter="url(#a)"><g fill-opacity=".5" transform="translate(2.7 2.7) scale(5.46875)"><circle cx="93" cy="179" r="225" fill="#fff"/><circle r="1" fill="#472c0d" transform="matrix(-5.94802 37.1347 -91.45326 -14.64844 139.2 191.4)"/><circle r="1" fill="#fff" transform="matrix(-4.12597 36.00625 -146.57217 -16.79576 72 32.9)"/><path fill="#f8fbff" d="M-16 251l126 20-92-117z"/><path fill="#2d4622" d="M93.6 73.1l42 .8-1.2 67-42-.8z"/><circle r="1" fill="#dee6eb" transform="matrix(40.12777 -46.0275 32.26872 28.13257 184.9 100.7)"/><ellipse cx="60" cy="112" fill="#fcffff" rx="15" ry="44"/><path fill="#314a31" d="M-19.6 96.2l40.7-5 6.5 52.6-40.7 5z"/><circle r="1" fill="#7b6858" transform="matrix(78.4601 -5.15881 .52978 8.05735 93.7 223.9)"/><ellipse cx="85" cy="41" fill="#feffff" rx="79" ry="18"/><path fill="#e3e9ed" d="M-16 234l203-4-74 41z"/><ellipse cx="97" cy="150" fill="#bfc7c9" rx="12" ry="27"/><ellipse cx="78" cy="109" fill="#000604" rx="3" ry="38"/><path fill="#000204" d="M0 71h46v5H0z"/><ellipse cx="125" cy="194" fill="#270b00" rx="68" ry="5"/><ellipse cx="105" cy="74" rx="31" ry="3"/><circle r="1" fill="#fff" transform="rotate(-36.3 322 96.8) scale(46.9862 17.9154)"/><path fill="#6d6056" d="M29 238l-9-16 43-42z"/><path fill="#504c43" d="M189 135h11v75h-11z"/><path fill="#000003" d="M0 140h45v5H0z"/><path fill="#f4ead6" d="M66.7 231.3L45.9 224l9.4-27.4 20.8 7.2z"/><circle r="1" fill="#afb2b0" transform="matrix(26.7706 -1.87198 3.41803 48.88011 181.4 49.5)"/><path fill="#e7ecef" d="M135 50h15v103h-15z"/><path fill="#e9eff5" d="M0 145h140v8H0z"/><ellipse cx="9" cy="91" fill="#e3eddb" rx="7" ry="18"/><circle r="1" fill="#f6f8ff" transform="matrix(8.76645 6.20975 -28.12184 39.7003 203 111.8)"/><path fill="#070a10" d="M16 71h5v77h-5z"/><path d="M103 77h5v47h-5z"/><ellipse cx="17" cy="162" fill="#b4afa7" rx="29" ry="18"/><path fill="#b0ab9a" d="M188.9 207.9l30.1 39.7-49.7-38.8-8-13.5z"/><ellipse cx="97" cy="65" fill="#c3c7c5" rx="161" ry="7"/><path fill="#776144" d="M103 153h93v33h-93z"/><path fill="#816946" d="M47 154h30v44H47z"/><ellipse cx="106" cy="142" fill="#323e4b" rx="29" ry="3"/><path fill="#130800" d="M196.6 91.8l-4 .3-1.2-18 4-.2z"/><path fill="#93b262" d="M80 81h14v60H80z"/><path fill="#8eab68" d="M23 95h24v45H23z"/><path fill="#fff" d="M-16 82l32 2-3-8z"/><circle r="1" fill="#d3d6d6" transform="rotate(55.3 50 151) scale(65.71662 20.82511)"/><path fill="#867367" d="M146 230l-90 1 41-35z"/><circle r="1" fill="#aeafab" transform="rotate(71.5 12 20.4) scale(13.07703 65.76021)"/><path fill="#8b887e" d="M177.5 98.9l18.7-28.2-2.5-3.5L160 97z"/><path fill="#e7eaea" d="M46 109h29v43H46z"/><path fill="#00031d" d="M130 72h4v72h-4z"/><path fill="#eeeff4" d="M204.9 163.5L219 105l-41.9-13.9 17.9 29.1z"/><path fill="#c9d6bc" d="M23 77h52v17H23z"/><circle r="1" fill="#f6f9ff" transform="matrix(-14.38782 22.41133 -19.47685 -12.50392 5.4 207.6)"/><ellipse cy="172" fill="#91897d" rx="33" ry="8"/><path fill="#533f29" d="M79 202h80l-86-31z"/><path fill="#262424" d="M171 191l33 29 6-16z"/><path fill="#dad6d4" d="M44.8 146l2.3 50.2-9.2-28.3-25.3-13.4z"/><ellipse cx="157" cy="142" fill="#8d908f" rx="15" ry="6"/><path fill="#e5e8f3" d="M0 233h50v23H0z"/><path fill="#d0d2d3" d="M97.7 128.2l14.4.7-27.8 24.7 13.9-23.5z"/><path fill="#94a478" d="M113 78h16v39h-16z"/><path fill="#8b8a85" d="M217.1 169.4l-4.7 37.5-22.3-12.1 28.9-73.4z"/><path fill="#4c4541" d="M148.2 183.9l10.2 25.1 51.3 22-38.5-.9z"/><path fill="#a0897c" d="M82 206h54v14H82z"/><ellipse cx="165" cy="248" fill="#b2b6b4" rx="44" ry="19"/><ellipse cx="136" cy="189" fill="#9c9c92" rx="89" ry="2"/><path fill="#c8ccd1" d="M132.9 144l2.1-18.1 3.9 30.4-112.5-11.2z"/><path fill="#b9b8bd" d="M96 179l6-26 5 29z"/><path fill="#a8b482" d="M80 77h21v28H80z"/><path fill="#959f86" d="M-6 102.7L6.6 85.3l8.1 8.6 3.3 30.2z"/><path fill="#bbbebc" d="M85.2-11l72.9-5 24.3 40.6-82.7-6.4z"/><path fill="#3b4048" d="M44 73h2v67h-2z"/><ellipse cx="104" cy="97" fill="#2c323a" rx="27" ry="2"/><ellipse cx="106" cy="47" fill="#f7f9f9" rx="64" ry="11"/><path fill="#c3c2c4" d="M46 57h29v44H46z"/><ellipse cx="128" cy="153" fill="#94999b" rx="74" ry="2"/><path fill="#fff" d="M13.6 86.5l-14-1 .8-10 14 1z"/><path fill="#4e5b39" d="M88.5 118.3l2.7-14.3 21.8 27.8-36.4-15z"/><path fill="#60544a" d="M69 225h83v6H69z"/><path fill="#e3e3e6" d="M166 126l-31-49 1 67z"/><path fill="#becb9b" d="M39 123L22 96v41z"/><path fill="#7c7571" d="M197.1 115l-.7 1.9-19.5-8 .7-1.8z"/><path fill="#223036" d="M76 76h3v70h-3z"/><path fill="#5d5b56" d="M15 228h26v5H15z"/><path fill="#cbbcab" d="M93 206h6v30h-6z"/><path fill="#e7eaea" d="M0 66h45v5H0z"/><path fill="#474b4c" d="M43.5 98.5h-77v-3h77z"/><path fill="#bbbbb8" d="M-1.7 67.9l8.6-9.3-22.9-4.1 232 13.2z"/><path fill="#8b8b88" d="M206.7 179.9L179.9 121l-12.2 10.9 28.1 2.2z"/><path fill="#856c49" d="M46 156h42v18H46z"/><path fill="#3f3728" d="M173.6 96.7l3-10.5 3.8 1-3 10.6z"/><path fill="#d2d3d2" d="M43 271l124-41-92 2z"/><path fill="#d9d0c2" d="M30.7 227l47.9-25.1-11.7 27.9-8.8-6.6z"/><path fill="#90775e" d="M186 154h-64l61 24z"/><path fill="#fafcff" d="M174 134h14v19h-14z"/><path fill="#5f503e" d="M175.9 199.5l20.7-54.5 2 42.8-68.7 19.1z"/><path fill="#cac9c8" d="M161.4 58.8l-3.8 53.9-21-1.5 3.8-53.9z"/><path fill="#dcdce1" d="M104.4 140.4l-8.9-8 6-6.8 9 8z"/><circle r="1" fill="#4d5455" transform="rotate(-89.3 64 55) scale(1 38.80133)"/><ellipse cx="128" cy="193" fill="#3c1e0f" rx="62" ry="3"/><circle r="1" fill="#ad9b85" transform="matrix(-5.44858 -10.50544 2.82968 -1.4676 146.7 215.7)"/><path fill="#5f3b37" d="M102 230.3l-4-27.7 6-.9 4 27.7z"/><path fill="#6b563b" d="M169 185l-66-32 9 33z"/><path fill="#e0e4e1" d="M-16 60.6l15-26.5 75.6-20.5 51 8.9z"/><path fill="#d9dbdf" d="M149 130.5l-1.6-8.9 91.6-16.1 1.6 8.9z"/><path fill="#adaeae" d="M174 9l30 10 7 64z"/></g></g></svg>