<svg xmlns="http://www.w3.org/2000/svg" viewBox="0 0 1400 933"><defs/><filter id="a"><feGaussianBlur stdDeviation="12"/></filter><rect width="100%" height="100%" fill="#5c4233"/><g filter="url(#a)"><g fill-opacity=".5" transform="translate(2.7 2.7) scale(5.46875)"><circle r="1" fill="#c6dae1" transform="matrix(27.39524 75.71442 -137.56383 49.7738 157 80.3)"/><ellipse cx="25" cy="28" fill="#ceecf2" rx="76" ry="17"/><ellipse cx="173" cy="63" fill="#fff" rx="23" ry="42"/><ellipse cx="137" cy="4" rx="66" ry="19"/><circle r="1" fill="#2a232a" transform="matrix(-1.18224 -12.49326 170.11954 -16.09848 125.2 113.4)"/><path fill="#efffff" d="M99 91l-4-71-65 76z"/><circle r="1" fill="#e4d7d4" transform="rotate(-8.8 1123.9 -217.8) scale(64.71561 21.06029)"/><circle r="1" fill="#dfe9ea" transform="matrix(-1.37132 30.14884 -79.40103 -3.61155 222.8 63.5)"/><ellipse cx="136" cy="43" rx="8" ry="85"/><circle r="1" fill="#f5d5b2" transform="matrix(-.02367 8.87718 -59.64983 -.15905 178 145.2)"/><path fill="#161f1d" d="M95.9 63.8l2.5-11.1 1.5-27.9 38.6 18z"/><path fill="#ececec" d="M19.7 94.3l-.4 18-39-.6.4-18z"/><path fill="#f3fcfd" d="M151.1 109l13.6-7.5 31.8 14.6-31.8-73.6z"/><path d="M80 94l-22 2 16 30z"/><circle r="1" fill="#424556" transform="matrix(-.57891 10.23933 -97.87068 -5.53342 213.5 124.6)"/><circle r="1" fill="#00000d" transform="rotate(-146.1 51.9 75.5) scale(15.15105 7.28343)"/><path d="M158.2 92.3l6.4 4.5-12-20.3-20.3 7z"/><ellipse cx="208" cy="65" rx="7" ry="5"/><circle r="1" fill="#011522" transform="rotate(169.5 71.5 90.4) scale(105.7619 6.50021)"/><path fill="#352004" d="M33 67l13 54-29-35z"/><path fill="#ffe3ba" d="M80.4 129.8l2 22-50.8 4.4-2-22z"/><ellipse cx="120" cy="69" fill="#f1ffff" rx="8" ry="17"/><circle r="1" fill="#a9aea6" transform="rotate(-171.4 105.9 7.1) scale(39.43549 20.18442)"/><ellipse cx="63" cy="70" fill="#060b09" rx="2" ry="44"/><circle r="1" fill="#978e9e" transform="matrix(-19.5816 -10.48971 5.58943 -10.43402 192.9 106.3)"/><path fill="#8a95a7" d="M234 103h22v41h-22z"/><ellipse cx="6" cy="20" fill="#b7c1c3" rx="28" ry="14"/><path fill="#f3d594" d="M67.6 114.4l-15 9.5-8.8-18.9-7-14z"/><path d="M237.8 97.7l-5 21.5-12.6-3 5-21.4z"/><path fill="#1e2a2b" d="M15 0l245-16-119 42z"/><path fill="#dbedff" d="M64 54h34v41H64z"/><path fill="#dbe0ee" d="M23 185l13-30-51 3z"/><path fill="#040400" d="M123.2 115.5l-48.6 13.3 71.7-3.7-.8-24.4z"/><ellipse cx="118" cy="145" fill="#cea181" rx="51" ry="20"/><path fill="#000b16" d="M186.3 193.6l-5.9-25.3 103.3-23.9 5.9 25.3z"/><path fill="#fff6f1" d="M266 90l-61 2 9-23z"/><path fill="#9ca385" d="M35 27h27v48H35z"/><path d="M162 105h14v15h-14z"/><ellipse cx="239" cy="33" fill="#6f7778" rx="4" ry="72"/><path fill="#aeb7be" d="M64 19h35v53H64z"/><path fill="#fcffff" d="M179 80l-28.9 14.4 7.7 11.2 17.7-6.4z"/><path fill="#885b4b" d="M116.6 156.8L92.5 160 91 134l47.7 16.9z"/><path fill="#242d33" d="M99 32l17 18-16 38z"/><ellipse cx="198" cy="95" fill="#2c272f" rx="20" ry="4"/><path fill="#8c8c85" d="M187 9h16v64h-16z"/><ellipse cx="100" cy="27" fill="#aab5bb" rx="35" ry="5"/><ellipse cx="10" cy="148" fill="#0e243b" rx="19" ry="10"/><path fill="#eed0b0" d="M15.1 134.6l51.7 3 46.9 47.4-94.1-44.3z"/><path fill="#fbffff" d="M177 90l7-60-38 42z"/><path fill="#cdbaa5" d="M227.7 147.7l-51.9-18.5-62.4 4.9 23.9 29.8z"/><ellipse cx="33" cy="59" fill="#000d0b" rx="2" ry="41"/><path fill="#1b2428" d="M123.9 33l-2.8 80h-1l2.8-80z"/><path d="M145.1 74.7l6.1 2.1 8.7 10.1-19 4.6z"/><path fill="#47372a" d="M13.5 140.2l4.6-42 31 32.3-55.2 7.4z"/><path fill="#9cacbb" d="M105 123l16-37-20-13z"/><path fill="#fff" d="M123 50h4v53h-4z"/><path fill="#15272c" d="M58.3 14.9L-16 .3 43.2-16l48.4 33.9z"/><circle r="1" fill="#272823" transform="matrix(-44.51293 -5.4655 .12187 -.99255 20.4 22.6)"/><path fill="#3a3941" d="M202.7 129L189 118.5l66.1 13.7-7.1-15.1z"/><path fill="#000f22" d="M104 185l-53-1-5-28z"/><ellipse cx="140" cy="49" fill="#090000" rx="3" ry="46"/><path d="M203 63h14v6h-14z"/><path fill="#c4cedc" d="M251 102l-20 21 8-23z"/><path fill="#b8c2bd" d="M173.4 34.6l23.8-28.7-53.9 25.5 5.5 31.2z"/><path fill="#475663" d="M106 60h8v32h-8z"/><path fill="#a199a8" d="M178 105h39v13h-39z"/><path fill="#e2abc1" d="M86 106l10-16-2 25z"/><ellipse cx="208" rx="21" ry="2"/><ellipse cx="107" cy="162" fill="#f2dbbf" rx="22" ry="5"/><path fill="#e3e3f7" d="M6 159.4l41.1-8.7.9 3.9-41.1 8.7z"/><path fill="#888389" d="M148 103h11v27h-11z"/><path fill="#989b99" d="M153 90l-30 11 17 3z"/><circle r="1" fill="#3d4143" transform="matrix(31.2923 -7.10944 3.43026 15.09836 100.4 3.3)"/><path fill="#070708" d="M61.3 106.7l1.6-11.9 17.8 2.5-1.6 11.9z"/><circle r="1" fill="#a0a6a1" transform="matrix(-8.45663 18.1353 -51.99295 -24.2447 251.4 33.6)"/><path fill="#0a0a0a" d="M159 103h19v15h-19z"/><path fill="#030407" d="M231 103l-2 20-13-8z"/><path fill="#0f0811" d="M74 95h17v5H74z"/><path fill="#1d2d39" d="M15.1 172.2l.1-19.7 4.4 21.3-11.5-.4z"/><path fill="#b6c1c8" d="M127 25h8v10h-8z"/><circle r="1" fill="#674b17" transform="matrix(9.57072 -15.62373 25.52264 15.63456 10 64.4)"/><path fill="#14191d" d="M31 72h28v2H31z"/><path fill="#67666d" d="M194.4 121.5l16.5-19-10.3 35.9 70.4 6.8z"/><path fill="#c9cdbb" d="M35 76h20v24H35z"/><circle cx="35" cy="114" r="5" fill="#d4ab9a"/><circle r="1" fill="#1d1f21" transform="matrix(-.38734 -2.48059 51.4647 -8.03618 159.3 162.6)"/><path fill="#17150b" d="M147.4 87l-2.7 42.9-21.4-22.6 31.4-2.1z"/><path fill="#778593" d="M162 166h23v4h-23z"/><path fill="#1a1e29" d="M225 94l27 9 5-11z"/><path fill="#292626" d="M66 119l32 7-51 5z"/><path fill="#f6fffd" d="M153 91h28v12h-28z"/><path fill="#c7c9ca" d="M201 25h24v36h-24z"/><ellipse cx="237" cy="15" fill="#595953" rx="2" ry="59"/><path fill="#121624" d="M206 102l12 6V95z"/><path fill="#cdbaa0" d="M220 137l-20 11 51-5z"/><path fill="#9da6a8" d="M35.6 22.6l-51.3-6L1.9 5.9l132.2 29.7z"/><path fill="#9c9098" d="M195.6 113.6l-16.1 5.4-4-29.8 35.9 17.1z"/><path fill="#8aa6bf" d="M76.6 175.7l-2.1 8.8-42.7-26.6 1.7 27.1z"/><path fill="#79644a" d="M165.1 37.5l-.2-1 32-8 .2 1z"/><path fill="#0d0f17" d="M251.2 115.9l-24.6-4.8.2-1 24.6 4.8z"/></g></g></svg>