<svg xmlns="http://www.w3.org/2000/svg" viewBox="0 0 1121 1400"><defs/><filter id="a"><feGaussianBlur stdDeviation="12"/></filter><rect width="100%" height="100%" fill="#38364b"/><g filter="url(#a)"><g fill-opacity=".5" transform="translate(2.7 2.7) scale(5.46875)"><ellipse cx="114" cy="138" fill="#ebd6c6" rx="152" ry="184"/><circle r="1" fill="#2e0721" transform="matrix(84.05913 -40.63577 17.63282 36.47524 160.9 107)"/><circle r="1" fill="#efece6" transform="matrix(87.05994 50.45416 -41.18844 71.0717 116.7 250.3)"/><path fill="#010100" d="M13 136l37 26-58 87z"/><ellipse cx="178" cy="14" fill="#f5fee9" rx="34" ry="33"/><circle r="1" fill="#4c361f" transform="rotate(50.4 -86.8 61.3) scale(24.8352 50.06175)"/><path d="M187 166h18v42h-18z"/><ellipse cx="59" cy="198" fill="#dbdbe0" rx="24" ry="88"/><path fill="#49005a" d="M133 19h15v165h-15z"/><ellipse cx="100" cy="195" fill="#8e5f4f" rx="16" ry="49"/><path fill="#f9fffd" d="M146 149h26v27h-26z"/><circle r="1" fill="#f9ffed" transform="matrix(-17.457 25.63746 -5.71451 -3.89111 202.1 90.6)"/><ellipse cx="47" cy="30" fill="#fff" rx="29" ry="8"/><circle r="1" fill="#340600" transform="matrix(15.17447 9.19492 -14.80091 24.42609 99.1 139.9)"/><path fill="#99a3cf" d="M126 34L54 78l80 26z"/><circle r="1" fill="#5b5e45" transform="matrix(63.19158 5.9421 -1.66417 17.6977 33.7 6)"/><path fill="#fbfffa" d="M9.6 219l46.7 23.1-50-12.8-3.6-6.1z"/><path fill="#343812" d="M148.5 24.3l-3.1 19.5-36.6-8.1 7.9-18.5z"/><path fill="#dc72d9" d="M125.6 76.2l7-.3 3.8 71.9-7 .3z"/><path fill="#122934" d="M175.9 153.9l-.5-39.6 5.1-36.2-45.8 52.6z"/><circle r="1" fill="#000001" transform="rotate(113.2 -12 47.5) scale(12.20179 9.97017)"/><ellipse cx="184" cy="33" fill="#fff" rx="37" ry="7"/><path fill="#a243b2" d="M64.4 129.9l6.9 29.5 13.5-95.8L50.5 130z"/><circle r="1" fill="#f6e2c4" transform="rotate(-168.9 69 75.6) scale(14.15544 6.30073)"/><path fill="#282223" d="M35.1 204.6l-51.1 1.5 66.2-44.3-36.8-34.4z"/><path fill="#2e3634" d="M145 39h60v4h-60z"/><path fill="#e3d3b3" d="M142-6l-27-10 8 59z"/><ellipse cx="54" cy="46" fill="ivory" rx="21" ry="4"/><ellipse cx="187" cy="130" rx="7" ry="14"/><path fill="#e6ebe5" d="M0 242h98v14H0z"/><path fill="#210f00" d="M88 9h8v29h-8z"/><path fill="#e8fffa" d="M141 42h28v9h-28z"/><path fill="#000909" d="M6 241l20-7-42-3z"/><path fill="#c3c9c7" d="M196 243l-34-120-22 148z"/><path d="M198 175l-8.1 27.6L220 217v-34.3z"/><path fill="#fad1ab" d="M96 7h15v35H96z"/><path fill="#deece9" d="M96 206l8-31 2 63z"/><path fill="#050400" d="M1 58l-3-19 13 4z"/><path fill="#d3d4cf" d="M40.1 149.1l-7.4-47.3 48.6 66.3-21.5 3.5z"/><path fill="#d5d783" d="M15 171l-25.3-27.1L-3 137l25.3 27z"/><path fill="#5e684d" d="M52.3 81.6l16.3-12.2-21.4 78.1L67.5 108z"/><circle r="1" fill="#787d6e" transform="matrix(-11.00372 -8.80601 15.89074 -19.85658 165.5 68.2)"/><path fill="#aba29b" d="M5 88h62v12H5z"/><path fill="#03110c" d="M14 39h59v3H14z"/><path fill="#9f9c8c" d="M115 174h78v16h-78z"/><path fill="#d4d1bd" d="M61.9 39.2l-.8-35.5.7-19.7-17.9 49.9z"/><ellipse cx="202" fill="#7c7b6b" rx="13" ry="25"/><path fill="#000006" d="M0 208.2h4.1l-.6-41.1 14 53z"/><circle r="1" fill="#7c6a62" transform="rotate(-38.9 236.9 24.7) scale(35.14858 3.10591)"/><circle r="1" fill="#012151" transform="matrix(8.17836 1.3462 -2.76403 16.79182 154.9 133)"/><ellipse cx="109" cy="114" fill="#4a1c0c" rx="16" ry="18"/><path fill="#8e439f" d="M87 217.9l18.7 53.1 5.8-20.2-16.9-34.5z"/><path fill="#050f22" d="M52.2 108.2L39.4 92.9l13.2 6.5 1.3 2.8z"/><path fill="#180d00" d="M119 16L90-12l11-4z"/><path fill="#37341d" d="M169.6 46.8l18.9-.6L202 60.9l-9 8.5z"/><path fill="#c2c2b2" d="M220 71.1L171.2 115l33.4 4-14.9-9.4z"/><path fill="#1a261f" d="M178 176.1l20.9-4.6-20.9-16 6.6 15.8z"/><path fill="#fbecfe" d="M74 123h4v38h-4z"/><path fill="#6388a9" d="M156 110l-16-72 19 19z"/><circle r="1" fill="#dbdbe0" transform="matrix(.70595 -16.76552 36.83645 1.55109 146.5 250.3)"/><circle r="1" fill="#494b46" transform="rotate(94.8 14 17.4) scale(19.376 15.04629)"/><ellipse cx="107" cy="62" fill="#889bb2" rx="31" ry="21"/><path fill="#f1feff" d="M51.5 96.4l6.6 8.9 4-20.2-4.8 1.6z"/><path fill="#000800" d="M147 20.9l-5.5 19.2-10.5-3 5.5-19.2z"/><path fill="#dee4d9" d="M143 144l36 24-31-10z"/><circle cx="68" cy="88" r="5" fill="#11002b"/><path fill="#917158" d="M100.8 164.1l-19-3.6 8.6 76.9 6.9-37.4z"/><path fill="#f9fcfb" d="M149 27h56v13h-56z"/><circle cx="11" cy="141" r="6" fill="#1d1d22"/><path fill="#cf5bdf" d="M70 81h6v71h-6z"/><path fill="#373025" d="M161 70v51l35-32z"/><path fill="#92947f" d="M133.9 7.6l70.4 1.7-38.4 5.8-18.3 9.9z"/><path fill="#321f10" d="M111 35l2-30 13 36z"/><path fill="#0c1016" d="M1.6 208.2l4.8-34.9-22.4-12.9L29.7 203z"/><path fill="#b0a490" d="M77 59L74 5l20-21z"/><path fill="#b29b7c" d="M56.5 54.4L4.6 34.5l20 38.5L-16 51.4z"/><path fill="#d3d7c3" d="M21.6 21.6L-16 27.7l25.7 5.4-21 16.6z"/><path fill="#bd9a84" d="M102.1 162.5l22.3-10.3 1.1-3.6L106.9 271z"/><path fill="#640065" d="M152 97l-13 40-9-72z"/><circle r="1" fill="#a7a8a2" transform="matrix(-4.82957 5.20054 -34.9704 -32.47588 178.4 201.4)"/><path fill="#b6aca2" d="M4.7 98.5l2.6-1.6 34 56.6-2.6 1.6z"/><circle r="1" fill="#c8ae84" transform="matrix(-2.65496 1.36446 -2.80675 -5.46135 167 128.8)"/><path fill="#88504b" d="M39.6 132.3L20.9 83.4l3.1 80.2-17.4-49z"/><path fill="#292c31" d="M62-16l15 38-13-3z"/><path fill="#d2d5d6" d="M44 136.7l1.8-34.7 17.9 12.5-26.2 3.6z"/><path fill="#211917" d="M48 158.6l4.3 3.5-19.8 7-9.1-9z"/><path fill="#fffce9" d="M176.9 14.5l21.6-.9 4.5 1.2-20.5 11.1z"/><path fill="#1c1a0e" d="M176 132l-18 5 17 16z"/><path fill="#46372a" d="M16 78L0 101l-16-61z"/><path fill="#837083" d="M164.8 101.1l17-16.4L168 114l6.1-8.3z"/><circle cx="136" cy="172" r="6" fill="#434416"/><path fill="#685c48" d="M220 148l-15-64-11 89z"/><circle r="1" fill="#b8bcb5" transform="matrix(21.82406 7.04938 -2.92115 9.04356 54.6 180)"/><path fill="#dfddcf" d="M21 24h56v14H21z"/><path fill="#d6dad6" d="M32 200h55v55H32z"/><path fill="#bdbdb8" d="M146.6 157.5l-4.3-17.6 44.9 48-21.4-46.4z"/><path fill="#3b352f" d="M18.6 94.6l-.2 18.4 34-16.2-26.1 3.6z"/><ellipse cx="102" cy="185" fill="#d3dddd" rx="3" ry="25"/><path fill="#8b5a53" d="M131.6 120.4l-8.9-23.8-5.1 28.4 18.3 31.9z"/><path fill="#6b7783" d="M84 82l14-20-44-14z"/></g></g></svg>