<svg xmlns="http://www.w3.org/2000/svg" viewBox="0 0 1120 1400"><defs/><filter id="a"><feGaussianBlur stdDeviation="12"/></filter><rect width="100%" height="100%" fill="#43443e"/><g filter="url(#a)"><g fill-opacity=".5" transform="translate(2.7 2.7) scale(5.46875)"><circle cx="72" cy="131" r="203" fill="#fff"/><circle r="1" transform="rotate(-179.3 53 65.8) scale(53.65909 95.59057)"/><ellipse cx="18" cy="120" fill="#fff" rx="38" ry="243"/><ellipse cx="182" cy="92" fill="#fff" rx="28" ry="255"/><ellipse cx="103" cy="20" fill="#fff" rx="203" ry="28"/><path fill="#000002" d="M56 48h100v172H56z"/><ellipse cx="100" cy="249" fill="#fff" rx="172" ry="16"/><circle r="1" fill="#fff" transform="matrix(4.4615 -170.3781 27.95946 .73214 17 135.4)"/><ellipse cx="192" cy="113" fill="#fff" rx="26" ry="246"/><path fill="#fff" d="M203.6 262.8L66.5 217.7l72.4 4.3-144 36.3z"/><circle r="1" fill="#fff" transform="matrix(119.52256 -.73477 .12021 19.55476 112 5.8)"/><path fill="#414029" d="M25 36h162v6H25z"/><path fill="#53513b" d="M28 228h165v6H28z"/><ellipse cx="8" cy="122" fill="#fff" rx="36" ry="122"/><ellipse cx="196" cy="130" fill="#fff" rx="31" ry="104"/><ellipse cx="159" cy="122" fill="#ccbf93" rx="7" ry="102"/><ellipse cx="164" cy="223" fill="#ffffdc" rx="168" ry="4"/><path fill="#ccc094" d="M45 40h13v139H45z"/><circle r="1" fill="#fff" transform="matrix(-.46397 -14.2463 79.03184 -2.57388 98.3 7.6)"/><path fill="#252427" d="M53 176h89v43H53z"/><ellipse cx="106" cy="44" fill="#e1d9b4" rx="81" ry="5"/><path fill="#fff" d="M1 241l109 30 109-29z"/><path fill="#1f1d23" d="M57 51h96v33H57z"/><path fill="#0a0b0d" d="M128 215l27 5-3-43z"/><circle r="1" fill="#fff" transform="matrix(-10.84373 -89.4208 25.48718 -3.09074 17.2 137.5)"/><path fill="#5d5d54" d="M28 240l-3-13 18-3z"/><ellipse cx="187" cy="132" fill="#fff" rx="21" ry="96"/><path fill="#49483c" d="M23 38h29v5H23z"/><circle r="1" fill="#c8c4ae" transform="matrix(-.05949 3.7868 -61.89642 -.97235 98.2 237)"/><path fill="#9e9c8a" d="M43.1 20L45 36.1l29 5.7-29.9-27.5z"/><path fill="#d3c69c" d="M61.2 216.1l-18.7-40.9 17.7 13.9-16.9 13.5z"/><path fill="#fff" d="M0 43h43v183H0z"/><path fill="#76766c" d="M168.8 35.8l16.7 6.5-142.8-2L166 32.9z"/><path fill="#2a292e" d="M159.1 182.9l-31.6 30.9L54.6 167l9.1-110.8z"/><path fill="#262628" d="M63 84.4l99.3 119.5-46.2-9 43.5-48.7z"/><path fill="#1f2021" d="M152.2 46.1l-32.7 10.7 38.3 21.3L151 91z"/><path fill="#fff" d="M167 44h37v182h-37z"/><path fill="#28272b" d="M67.9 110L50.3 96.1l110.8-35.9-6.4 9.3z"/><path fill="#dcd1ab" d="M169 190l-4 38-13-22z"/><path d="M179 231h10v4h-10z"/><path fill="#e0dabe" d="M42.6 62.4l17.5-9.5-16.5 39.2 16.3-20.7z"/><path fill="#fff" d="M43-16v53l-59-1z"/><path fill="#ebe7d3" d="M40.5 84.7l21.4 22.4-36.1 4.5L59.5 124z"/><path fill="#2e2f31" d="M75.6 173.8l-23.1-27.3 18.1-20.7-17.5.8z"/><ellipse cx="116" cy="44" fill="#e7dfbf" rx="59" ry="4"/><path fill="#26262a" d="M53 113l50-47 56 101z"/><path fill="#efeacd" d="M162 132l-10-13 19-18z"/><path fill="#1d1d20" d="M80.8 219.2l-29.6-3.5 9.4-10.1-4-23.8z"/><path fill="#27262a" d="M54.1 81.1l18-34.8 71.7 27.2 15.2 27.1z"/><path fill="#101315" d="M68 48L54 64l5 6z"/><path fill="#29292c" d="M83.5 209.5l-31.2-46.6 60.4-56.1 46.5 3.6z"/><ellipse cx="96" fill="#fff" rx="83" ry="19"/><ellipse cx="146" cy="249" fill="#fff" rx="192" ry="7"/><path fill="#b1b19f" d="M163 13h6v21h-6z"/><path fill="#f4eed9" d="M172 123.6l4.5 6.5-20.4 14.3-4.6-6.5z"/><path fill="#242427" d="M157 127L94 73l44 83z"/><path fill="#e0d7b8" d="M44 134l14 20-15 15z"/><path fill="#e3dac0" d="M169.3 153.8l-17.6 18.8 28.1 27.5-29.7-47.1z"/><path fill="#e4dfc5" d="M171.2 80.6l-1.1 4.5-19.4 20.2 8.7 7.4z"/><path fill="#ecdfc1" d="M48 147l-4-28 14 18z"/><path fill="#393a37" d="M34 230l13-3-17 10z"/><path fill="#decfa5" d="M43 228l15-24-13-5z"/><path fill="#e0dabb" d="M167.9 77.5l-10.7 30.4 11.5-57.2-17.6 4.5z"/><circle cx="174" cy="39" r="4" fill="#222323"/><circle r="1" fill="#232326" transform="rotate(23.7 -425 415.4) scale(29.47316 6.53129)"/><path fill="#dbd5ba" d="M163.8 100.7l4.4 12.2-1.6-35.5-17 11.4z"/><circle r="1" fill="#928f78" transform="matrix(-2.13539 -9.76813 3.04043 -.66466 163.4 235)"/><path fill="#212124" d="M158.5 80l-12.6 16.8L123.5 80l12.6-16.8z"/><path d="M172 228l5 4h9z"/><path fill="#ddd2b0" d="M43 219h29v7H43z"/><path fill="#28282b" d="M80 76l-26 55 105 33z"/><path fill="#fff" d="M219 7.8L180.2-16l10.1 259.4L202 271z"/><path fill="#f6eed0" d="M49 98l1-12h10z"/><path fill="#262629" d="M66.5 49.8l88.2-1.6-15.3 46.3L48 47.3z"/><path fill="#d6cba9" d="M110.4 228.2l75.9.3-71.1-9.3-70.4 2.2z"/><path fill="#27262b" d="M92 100l-3-43-37 23z"/><path fill="#a6a18e" d="M51 235.4l-2.3 8.7-5.8-1.5 2.4-8.7z"/><path fill="#fff" d="M35.6 229.9L-16 201.3l59.7-7.1-16.7 44z"/><path fill="#282729" d="M148.9 139.6l1.9 81.2-81-4.1-19.3-18.3z"/><path fill="#e6e1c4" d="M165 70.2l-8 9-6-5.4 8-9z"/><path fill="#fff" d="M146.6 36.5L133 22.1l82.5-20.3-80.2-5.5zM43 43l-59 175 60 8z"/><path fill="#d6cbab" d="M158 105h9v121h-9z"/><path fill="#e0d8ba" d="M44 41h10v75H44z"/><path fill="#dcd2b0" d="M41.3 227.8l8.9-29.1 8-6.8-13.3-23.5z"/><path fill="#e5e1d0" d="M11.7 83.7l49.4-25.5L49 44.7l7.3 17.2z"/><path fill="#fff" d="M168 164h36v63h-36z"/><path fill="#e7e1cd" d="M192.7 235.8l-40.5-44.7 3.7-6.1 6.1 16.4z"/><ellipse cx="10" cy="131" fill="#fff" rx="15" ry="253"/><path fill="#dcd2b5" d="M42.4 171.7l13.4 17-12 2.8L60.6 170z"/><path fill="#2d2d2f" d="M82.4 142.4l-32.2 3.2 65.5 55.4-64.9-18z"/><path fill="#262528" d="M159.3 64.2l-44.8 50.2L96 47.5l52.1 7.8z"/><path fill="#101213" d="M132 49h25v3h-25z"/><path fill="#212224" d="M121.7 196.8l9.8-15 26.8 17.4-9.8 15z"/><path fill="#cbc9b7" d="M157.9 32.3l-18.6 3.5-15.2-23.4-18.9 24z"/><circle r="1" fill="#e5dfc2" transform="rotate(156.4 13.5 66.9) scale(6.60479 3.91644)"/><path fill="#fff" d="M168 43h36v184h-36z"/><path fill="#5a5b54" d="M65.8 39.1l11 1.2-46.8 2 32-5.5z"/><path fill="#fff" d="M167 233h16v23h-16zm-5-249l-51.2 43.7-67-43.7 45.6 45.7z"/></g></g></svg>