<svg xmlns="http://www.w3.org/2000/svg" viewBox="0 0 1120 1400"><defs/><filter id="a"><feGaussianBlur stdDeviation="12"/></filter><rect width="100%" height="100%" fill="#5b3f31"/><g filter="url(#a)"><g fill-opacity=".5" transform="translate(2.7 2.7) scale(5.46875)"><path fill="#faffff" d="M215.4 269.7l-195.2-17L34.6 88.2l195.2 17z"/><circle r="1" fill="#f7f3f2" transform="rotate(-169.5 69.6 87) scale(80.42238 41.55466)"/><ellipse cx="94" cy="60" fill="#778575" rx="203" ry="87"/><circle r="1" fill="#fff" transform="rotate(-129.6 49 41.2) scale(12.02847 26.2453)"/><circle r="1" fill="#4d3736" transform="matrix(33.64512 .4959 -.32942 22.34962 108 108.7)"/><ellipse cx="109" cy="249" fill="#7f8382" rx="198" ry="25"/><path fill="#ecf1f2" d="M44 93l-8-54 17-12z"/><circle r="1" fill="#404124" transform="matrix(.91369 -11.18296 46.19925 3.77464 40 135.6)"/><ellipse cx="150" cy="20" fill="#392309" rx="200" ry="9"/><circle r="1" fill="#efe3e1" transform="rotate(25.3 -314.4 375.1) scale(45.9992 31.03481)"/><path fill="#353432" d="M47 227h68v11H47z"/><ellipse cx="31" cy="2" fill="#ada9a6" rx="122" ry="9"/><circle r="1" fill="#405c2c" transform="rotate(168 -.6 71.1) scale(17.21761 78.38624)"/><circle r="1" fill="#c6bba0" transform="rotate(15.6 -91.7 440.1) scale(25.49187 9.81442)"/><path fill="#b6b1ae" d="M7 241h197v15H7z"/><circle r="1" fill="#b5b7b2" transform="rotate(-88.6 111.8 -29.1) scale(4.1548 41.23855)"/><path fill="#27221c" d="M179 226h25v13h-25z"/><ellipse cx="170" cy="109" fill="#000514" rx="56" ry="2"/><path fill="#423a3d" d="M148 140l-8-20 64 15z"/><path fill="#fbf6f3" d="M92 81l-74 24 21 14z"/><ellipse cx="20" cy="49" fill="#c4976c" rx="8" ry="30"/><circle r="1" fill="#c7bcb4" transform="matrix(-32.70384 14.19898 -9.80688 -22.58772 64.2 166.3)"/><path d="M20.7 74.6L-4 67.3l-12-26.2L-.6 85.8z"/><path fill="#99a59a" d="M194 31l-41-4 41 30z"/><path fill="#716e66" d="M23.7 183.5l-39.7 55 6 32.5 61.9-81.3z"/><path fill="#3c4647" d="M126 88h78v16h-78z"/><path fill="#a9aaa7" d="M138.7 117.9l-45.8-1.3-2.8-17.8 74.9 23.5z"/><circle r="1" fill="#444f49" transform="rotate(109.2 15.2 58.5) scale(20.79446 30.01368)"/><ellipse cx="66" cy="85" fill="#cac2c2" rx="50" ry="2"/><circle r="1" fill="#bebcbb" transform="matrix(5.03434 -9.79669 49.23095 25.29892 181 163.6)"/><path fill="#731201" d="M89 119h59v7H89z"/><path fill="#35462c" d="M119.2 76.6l20.3 10.1 10.8-18.9 4.9-37.2z"/><path fill="#0a090c" d="M77 94h10v22H77z"/><path fill="#1c280a" d="M4 150l25-45-43 18z"/><path fill="#c6c0bc" d="M58 182h73v44H58z"/><ellipse cx="180" cy="85" fill="#c3c7cf" rx="80" ry="2"/><path fill="#878a88" d="M180.3 192.4l38.7-17.1v83.4l-19.3-38.4z"/><path fill="#6f7741" d="M-16 108.7l46.5-21.1h22.4l-37.8 32.6z"/><path fill="#f1bca5" d="M77.3 124.1l-1.6-39.5-8.1 32.9 49.9 52.6z"/><path fill="#646f47" d="M43.9 116.1l-7.8 48.7-41.7-8.2 26.2-34.5z"/><path fill="#dbd3d6" d="M173 116l18.9 1-.8 15-19-1z"/><path fill="#b0b597" d="M150 66h9v33h-9z"/><path fill="#2c2824" d="M110.5 235.5h99v3h-99z"/><path fill="#9e9c8b" d="M110 54h11v63h-11z"/><circle r="1" fill="#a8aeb8" transform="matrix(-1.51556 5.93487 -18.20733 -4.6495 96.6 35.9)"/><path fill="#e7dcd7" d="M131.3 121.4l53.3 75.4-110.8-35.5 7.7 56.4z"/><path fill="#8a8883" d="M60.1 196l-10.5 38.4 30-65-32.2 31.4z"/><path fill="#dc432a" d="M135 212h50v3h-50z"/><ellipse cx="52" cy="48" fill="#cfd3d6" rx="3" ry="13"/><path fill="#d3c894" d="M118 48h50v4h-50z"/><path fill="#e3e1d7" d="M198 210l-60 16 41 1z"/><circle r="1" fill="#bfc2c1" transform="rotate(-57.8 236.7 117.4) scale(78.71172 4.11957)"/><circle cx="171" cy="69" r="16" fill="#415639"/><path fill="#13141a" d="M194 111h4v27h-4z"/><path fill="#845629" d="M-2.6 55.6L2.8 12l19.8 2.5L17.2 58z"/><path fill="#f7ede5" d="M97 233h95v2H97z"/><path fill="#554543" d="M92.2 121.5l-6 26.3-25.3-15.5 21.7-8z"/><path fill="#1d3f1a" d="M8.3 211l-31.4-10.3 14.8-45.6 31.4 10.2z"/><path fill="#f6f9fc" d="M54.3 87.2l-32.4 30.6 53.3-26.3-32.7-9.7z"/><ellipse cx="175" cy="230" fill="#5d4f3f" rx="66" ry="3"/><path fill="#7e7a71" d="M69 0h135v12H69z"/><path fill="#dbd8d8" d="M40 37h7v47h-7z"/><path fill="#4a4c40" d="M53.8 62.9l58 5L57 13.4l22.6 90z"/><path fill="#28313b" d="M26 50h13v21H26z"/><path fill="#d0cfb5" d="M167.7 29.7l-1.4 21-6-.4 1.4-21z"/><path fill="#cdc3c8" d="M58 142l7-20 3 20z"/><path fill="#001a26" d="M92 122h29v4H92z"/><path fill="#c19156" d="M45.9 23.1l-16 18.8-2.7-2.2L42 17z"/><ellipse cx="10" cy="103" fill="#a9ac5e" rx="22" ry="6"/><path fill="#bababb" d="M219 130.2l-61.3 28.1 53.6 34.8-15.3-83.2z"/><path fill="#928065" d="M102 28h39v19h-39z"/><path fill="#3c3225" d="M39 142l24-22-6 25z"/><path fill="#0a0c0d" d="M53 234h44v3H53z"/><path fill="#818178" d="M87.9 72.3l-.3 8.8L81.3 51 60.7 87.4z"/><path fill="#f3442d" d="M102 183h25v2h-25z"/><ellipse cx="167" cy="27" fill="#0a1824" rx="26" ry="3"/><path fill="#ecd3cd" d="M91.5 146.5l-25 55.5 70.9-40.6-58.3-31.6z"/><path d="M174.5 110.5l-2.7 1.8-1.2 10.8 3.5-6.2z"/><path fill="#c7c4bc" d="M45 145l25 42-43-1z"/><path fill="#222f31" d="M92 106h52v3H92z"/><path fill="#b2b0bb" d="M62 103l-38 27 43-12z"/><path fill="#030704" d="M190.4 223.3l20.9 9.7-1.7 3.7-20.9-9.7z"/><path fill="#434536" d="M158.1 99.9l-24.4-7.3-22-1.2-26.8 9.5z"/><path fill="#bdad9d" d="M21 28h5v57h-5z"/><path fill="#eee0d9" d="M143 118h25v4h-25z"/><path fill="#45402e" d="M53 188l-21 5-20-7z"/><path fill="#a8b8ab" d="M188 36h7v30h-7z"/><path fill="#706b66" d="M45 253h130v2H45z"/><circle r="1" fill="#b4aba8" transform="matrix(-1.40324 6.396 -35.1538 -7.71252 6.5 0)"/><path fill="#cf2413" d="M93 117h29v4H93z"/><path fill="#c4b9b5" d="M150.3 153.4l-52.9 3.4 25.4-30.5 20.6.4z"/><ellipse cx="95" cy="210" fill="#c3c4c1" rx="35" ry="18"/><path fill="#ecf6f7" d="M88.2 179.3l1-10 88.6 9.4-1 10z"/><ellipse cx="89" cy="53" fill="#42474c" rx="4" ry="43"/><circle r="1" fill="#2b281e" transform="matrix(.86544 23.31946 -3.28005 .12173 72 44.7)"/><circle r="1" fill="#b7aea4" transform="rotate(35.9 -322.7 146.6) scale(1.34532 26.17969)"/><ellipse cx="67" cy="44" fill="#5a5956" rx="162" ry="2"/><ellipse cx="99" cy="232" fill="#dacabd" rx="44" ry="1"/><ellipse cx="73" cy="246" fill="#6a6761" rx="89" ry="1"/><path fill="#e4eaea" d="M72 187h93v12H72z"/></g></g></svg>