<svg xmlns="http://www.w3.org/2000/svg" viewBox="0 0 1400 933"><defs/><filter id="a"><feGaussianBlur stdDeviation="12"/></filter><rect width="100%" height="100%" fill="#493a2e"/><g filter="url(#a)"><g fill-opacity=".5" transform="translate(2.7 2.7) scale(5.46875)"><circle r="1" fill="#fff" transform="rotate(-93.9 127.4 -80) scale(50.51007 74.37666)"/><circle r="1" fill="#e2ebe3" transform="matrix(50.0701 -3.15014 10.79172 171.5295 18.5 67)"/><circle r="1" fill="#fff" transform="matrix(-3.66453 -29.96797 138.33287 -16.91557 190.8 168.5)"/><circle r="1" fill="#fff" transform="matrix(20.13455 35.44321 -30.15884 17.1326 213.3 44.5)"/><ellipse cx="211" cy="165" fill="#fff" rx="66" ry="24"/><circle r="1" fill="#d0c5cd" transform="matrix(-28.41909 8.20275 -6.03825 -20.92 159.2 101.5)"/><circle r="1" fill="#f9ffec" transform="rotate(83.5 -14.4 36.8) scale(58.83511 15.75453)"/><circle r="1" fill="#795e5f" transform="matrix(23.4182 -34.27384 101.67298 69.46985 76.2 169)"/><path fill="#0e0d05" d="M78 130l97-91L89-1z"/><circle r="1" fill="#fff" transform="matrix(-35.83978 -40.65775 17.26949 -15.22304 225 49.8)"/><circle r="1" fill="#6e6e6a" transform="matrix(20.45732 2.72959 -9.31098 69.78259 162 25.3)"/><circle r="1" fill="#fff" transform="matrix(-.28218 4.0353 -15.13075 -1.05805 79 40.3)"/><path fill="#313941" d="M246.8 91l-45.7-22.4-32.4 72.7 65.3 2z"/><path fill="#dfeff1" d="M249 90h7v58h-7z"/><path fill="#fff" d="M178 24h18v66h-18z"/><ellipse cx="215" cy="164" fill="#fcffff" rx="44" ry="22"/><ellipse cx="81" fill="#6f7a7c" rx="255" ry="7"/><ellipse cy="1" fill="#111115" rx="6" ry="112"/><path fill="#73736a" d="M185.2 128.1L69.1 185l-62.9-.9 73.2-62.3z"/><path fill="#070000" d="M57 34l77 3L81 3z"/><path fill="#4a0000" d="M40 106l6 19-37 3z"/><path fill="#777e77" d="M254 103L236-7l35 9z"/><path fill="#e0edff" d="M201 103h23v5h-23z"/><path fill="#bda697" d="M124 141h42v29h-42z"/><path fill="#d2f7c4" d="M6.1 84.8L6.7-16l26.2 32.4 9.9 93.2z"/><path fill="#707177" d="M212 107h25v36h-25z"/><path d="M214 95l31-3 5 36z"/><path fill="#0e161c" d="M103 121h15v39h-15z"/><path fill="#71726b" d="M60 41h15v81H60z"/><circle r="1" fill="#716c66" transform="matrix(-7.81627 -98.97016 13.39885 -1.05819 156.3 13.7)"/><circle r="1" fill="#6d706a" transform="matrix(-13.15361 -14.82719 23.20369 -20.58465 62 0)"/><circle r="1" fill="#f7fffd" transform="matrix(14.23766 -.51085 1.48909 41.50125 217.5 41.4)"/><circle r="1" fill="#ccb5b7" transform="matrix(.69225 9.14417 -22.83958 1.72905 164.3 104.7)"/><circle r="1" transform="rotate(-87.2 158.7 -45.3) scale(10.56695 12.63351)"/><circle r="1" fill="#b1b7bd" transform="rotate(89.1 -20 72.7) scale(58.33251 5.96784)"/><path fill="#bea199" d="M0 126h101v8H0z"/><path fill="#3f280f" d="M167 132l-13-44 15 24z"/><path fill="#696a6d" d="M129.8 142.6L104.4 100l42.4 7.4 6.7-95.2z"/><path fill="#150b00" d="M109 7h32v80h-32z"/><circle r="1" fill="#43272f" transform="rotate(147.2 -21.7 73.9) scale(28.44879 7.50283)"/><ellipse cx="73" cy="39" fill="#ffffe4" rx="18" ry="4"/><path fill="#392b16" d="M207.2 67.6l-22.7 30.8-1.4-6.8 28 1.1z"/><circle r="1" fill="#9a3439" transform="matrix(12.25864 16.11317 -11.99821 9.12804 16 111.5)"/><ellipse cx="169" cy="132" fill="#46474d" rx="65" ry="10"/><path fill="#223a40" d="M41.6 139l-11.5-30 10.3-4 11.5 30z"/><path fill="#100800" d="M60 119l47 4-5-28z"/><path fill="#f6ffeb" d="M176 51h18v40h-18z"/><ellipse cx="161" cy="15" fill="#75716c" rx="20" ry="80"/><path fill="#fbffff" d="M235 19l-49-7 63 85z"/><path fill="#e9c4c2" d="M32 101l-13 18-1-12z"/><path fill="#dfeadf" d="M165 120l-12-3-6-30z"/><path fill="#8a8f9a" d="M52.6 125L-16 172.4l7.8 12.6 68.9-35.9z"/><circle r="1" fill="#c9d2c6" transform="matrix(-3.77061 -.19344 1.50932 -29.41974 214.8 63.5)"/><path fill="#9d907a" d="M77 136.1L58.2 185l43.9-55.4 1.1 19.4z"/><path fill="#1b1308" d="M77 44h18v79H77z"/><path fill="#202119" d="M220.7 80.9l27.1 23.5-11.2 16.4 3.7-36z"/><path fill="#f4fdff" d="M190 143h58v21h-58z"/><path fill="#02111d" d="M202 68l13 9-18-3z"/><path fill="#767478" d="M224 106h12v34h-12z"/><path fill="#151d20" d="M134 110h7v29h-7z"/><ellipse cx="171" cy="93" fill="#080d11" rx="20" ry="2"/><path fill="#fdf7bd" d="M181 79h42v4h-42z"/><circle r="1" fill="#0f0a03" transform="matrix(12.45423 -6.51091 2.53005 4.83953 68.4 28.5)"/><path fill="#8fa287" d="M-16 100.9l4.9-37.8 22.3-19.7 4.3 23.9z"/><path fill="#f6f1ea" d="M22.7 80.7l2.2 23.5 10.7 2.1L2.4 76.8z"/><path fill="#040704" d="M219.8 104.6L209.1 95l10.1-5.8 29.4 4.4z"/><path fill="#e4d3e6" d="M13 130l-29-32 8 35z"/><path fill="#878b87" d="M61 17l5-33 11 34z"/><path fill="#6a3d33" d="M-16 73.4l44.9 39.1 19.6-7.1-3.3 10.9z"/><path fill="#99a2a6" d="M262.5 24.5L210.2 8.7l-30.3 6.8 26.9-23.1z"/><path fill="#9bce7f" d="M32.7 87.4l-11 .2-.4-27 11-.2z"/><path fill="#000003" d="M236 98h12v31h-12z"/><path fill="#0b0d04" d="M4 28.3l-10-.7 2-28L6 .5z"/><path fill="#dadeef" d="M34 122l-9 9 10 4z"/><path fill="#fff" d="M185 18h13v56h-13z"/><circle r="1" fill="#a4a59f" transform="rotate(88.5 80.5 176) scale(69.86831 6.13284)"/><ellipse cx="70" cy="140" fill="#262717" rx="2" ry="21"/><path fill="#020000" d="M192 104.4l-18.2 19.1 37.8 1.2-2.8-.7z"/><path fill="#170700" d="M74 43h39v3H74z"/><path fill="#321513" d="M-16 93.7l37.3 7.7L5 103.7l-7.5 8.5z"/><path fill="#f2faff" d="M196.3 142.4l-58.7 1 29.1-1.3 87.6 42.9z"/><path d="M60 136h47v1H60z"/><circle r="1" fill="#b59798" transform="matrix(-2.71048 2.50993 -15.12052 -16.32867 142.6 108.1)"/><path fill="#d6bbd3" d="M176 114l5-20-20 1z"/><circle r="1" fill="#bfbbb1" transform="matrix(-2.98441 22.36966 -5.10775 -.68144 178 46.9)"/><path fill="#aeafaf" d="M35.7 103l15.7-74.1L63 96l-2.4 13z"/><path fill="#454750" d="M185 89h27v14h-27z"/><path fill="#575555" d="M161 126h71v16h-71z"/><path fill="#a0aab5" d="M205.1 3.2l4-.3 1.8 26-4 .2z"/><path fill="#1c0100" d="M193 83h20v3h-20z"/><circle r="1" fill="#4b381e" transform="rotate(-109.5 121.6 -.6) scale(11.24012 2.50053)"/><path fill="#67431a" d="M122.5 161.3l-28.9-1.4-19.5-5.4 13.4-3z"/><path fill="#281b0b" d="M76 6h39v31H76z"/><path fill="#6f7171" d="M199-3l67 21-4-34z"/><path fill="#68645e" d="M74.5 116.9l1.3-74.1-11.3 40.1L61 112z"/><path fill="#1b2120" d="M28 110l12 6v16z"/><circle r="1" fill="#908182" transform="matrix(.60131 -3.12257 9.70435 1.86876 121.7 104.8)"/><path fill="#f9fffa" d="M240.3 93.3L240 19l-41.7 47.2 48.9 21.4z"/><path fill="#656356" d="M41 0h8v40h-8z"/><path fill="#502819" d="M143.7 96.2l1-.3 9.6 42-1 .2z"/></g></g></svg>