<svg xmlns="http://www.w3.org/2000/svg" viewBox="0 0 1119 1400"><defs/><filter id="a"><feGaussianBlur stdDeviation="12"/></filter><rect width="100%" height="100%" fill="#66434f"/><g filter="url(#a)"><g fill-opacity=".5" transform="translate(2.7 2.7) scale(5.46875)"><circle r="1" fill="#c3d9d0" transform="rotate(70.3 -81.8 132.8) scale(203 101.87155)"/><path fill="#fff" d="M205.1 30.7L159.7 49 143 7.3 188.3-11z"/><circle r="1" fill="#f8fdf8" transform="matrix(-36.3649 -5.49967 16.56528 -109.5328 43.3 235.9)"/><circle r="1" fill="#381904" transform="matrix(-22.74984 -15.81155 23.32025 -33.55345 0 86)"/><circle r="1" fill="#d7d8db" transform="matrix(63.84412 23.58408 -14.05938 38.05995 162.7 255)"/><circle r="1" transform="matrix(-17.53265 -2.20778 4.01757 -31.90473 0 183.6)"/><circle cx="137" cy="103" r="63" fill="#705d76"/><path fill="#da71bb" d="M132 43h32v90h-32z"/><circle r="1" fill="#000700" transform="matrix(15.08324 23.76063 -14.18478 9.0045 190.1 197.3)"/><path fill="#31301b" d="M98 12l-114 3 7-31z"/><ellipse cx="188" cy="26" fill="#fff" rx="40" ry="9"/><path fill="#fffffe" d="M0 18h58v14H0z"/><path d="M174.2 117l15.5 12.5-23.9 29.6-15.5-12.6z"/><path fill="#2c3c3f" d="M83 251l62-94-60 50z"/><path fill="#7c735b" d="M141-10L30 137 67-16z"/><path d="M125 5h23v38h-23zM3 166h29v7H3z"/><path fill="#88a57b" d="M168 147h33v30h-33z"/><path fill="#dfe5c6" d="M108-11l11 41 16-45z"/><path d="M90.6 42.7l-9-27.6 5.8-1.8 9 27.6z"/><path fill="#f6fef7" d="M130 152l-15 9 16 32z"/><path fill="#ced4c9" d="M137.8 178l7.4-33.4 35.7 52.3-34.3-20.1z"/><circle r="1" fill="#0a100f" transform="matrix(-9.35558 17.55702 -9.40922 -5.01388 177.6 89.2)"/><path fill="#384f61" d="M118 147l3 35-51-31z"/><path fill="#4b5055" d="M45 77h86v19H45z"/><path fill="#f2f3ec" d="M47 115h22v56H47z"/><ellipse cx="184" cy="3" fill="#6f846b" rx="44" ry="16"/><path fill="#524232" d="M-15.7 90.7L-8 43.3l64.5 2.9-13.6 23.1z"/><ellipse cx="101" cy="67" fill="#e8f2f3" rx="13" ry="6"/><path fill="#c8d1b2" d="M174.5 124.5l19-40.5 5.3-4.4-.6 19.6z"/><path d="M0 34h59v2H0z"/><path fill="#291f06" d="M130 171l14-34-5 52z"/><path fill="#baab9e" d="M73.1 60.1L51.8 63-16 109.2l68.4-26.8z"/><path fill="#fdf8e5" d="M17 37h42v7H17z"/><path fill="#0d241a" d="M96.8 138.6l-20.2-18.7-3.5 7.6 28 24.6z"/><path fill="#f5efed" d="M8 104l27 37-14 4z"/><path fill="#000e04" d="M156 35h45v3h-45z"/><path fill="#a9abab" d="M11 174h91v25H11z"/><path fill="#f8ffff" d="M78.1 123l.3-7.8 17.2 20.2 10.2-4.8z"/><path fill="#ecf8e7" d="M219 44.2l-22.5 3.2 10-37.6L184.1 32z"/><path d="M219 162.1l-38.6 42.5-3.2 12.4 41.8 5.3z"/><path fill="#000009" d="M10 91l21 17 2-8z"/><path fill="#c8bec6" d="M147.4 191.4l-15.8 31.7-43.8-15.6 49.8 63.5z"/><path fill="#9a2c38" d="M5 109l13 29-34-3z"/><path d="M120 174l-9 6 16 18z"/><path fill="#e3bea8" d="M102 67l9-45L96 8z"/><path d="M16 70L-3 88l1-30z"/><path fill="#fffffe" d="M148.9 32.4l4.2 4 57.1-12.8-57.7-6.1z"/><path fill="#0a0c14" d="M170 178l36 13-34-26z"/><ellipse cx="37" cy="97" fill="#f0fdff" rx="4" ry="12"/><path fill="#cb91b7" d="M119 68l37-34 18 20z"/><path fill="#3c3a34" d="M68 103l-20-6-17 20z"/><circle r="1" fill="#a5a09a" transform="rotate(24.5 -377.5 445.3) scale(28.13557 24.96277)"/><path fill="#335b45" d="M92.4 72.1l48.1-32-26.9 11.1-28.9 21.5z"/><path fill="#646f83" d="M91 188l23-22-50-39z"/><path fill="#2e3b52" d="M96.9 234.4l-21.9-.3 35.5 36.9-12-.5z"/><path fill="#155e2c" d="M105.5 103.8l-4.9-5.7 5.4-15.4 24.2-17.9z"/><path fill="#d3ccc4" d="M75.9 107.7l-4 31.8-25.8-3.2 4-31.8z"/><path fill="#415264" d="M92.9 202.4l19.5-7.7 20.9 24.9 2 6z"/><ellipse cx="146" cy="105" fill="#8e4c7a" rx="13" ry="36"/><ellipse cx="1" cy="182" fill="#120e16" rx="8" ry="36"/><path d="M104 4L90 9l29 8z"/><circle r="1" fill="#d4d6d6" transform="matrix(-6.46862 -17.70833 62.27881 -22.74964 24.5 243.5)"/><path fill="#b4b47c" d="M192 177l-25-17 1-26z"/><path fill="#000a00" d="M173 120h10v31h-10z"/><path fill="#f6a6de" d="M160 67h5v41h-5z"/><path fill="#d8dae8" d="M80.3 50.5l26.2 26.7 8.3-12.2-33.3 2.8z"/><path fill="#91b1cc" d="M103.1 140.2l10.5-13.8 5.3 7.8-25.8 35.7z"/><path fill="#e7eeda" d="M164 116l17-5 5 7z"/><path fill="#9e8e7c" d="M57.1 6.7L55.7-16h48.4L74.9 38.5z"/><circle r="1" fill="#d4e5df" transform="matrix(-1.14801 -12.94586 2.38526 -.21152 111 110)"/><path fill="#030b09" d="M88.7 226l-6.1-20 6.7-2 6.1 20z"/><path fill="#b69a7e" d="M19.9 72.7l18.9-12.8-41.2-18.6 32.1 3.1z"/><path fill="#1d2d13" d="M165 131.3l28.1-7.5 11.6-61.6 14 65.1z"/><circle r="1" fill="#151a1f" transform="rotate(73.5 24.2 32.4) scale(18.35077 6.48471)"/><circle r="1" fill="#f4f5f1" transform="matrix(4.33297 1.19744 -2.17206 7.85968 53 74.7)"/><path fill="#0c140b" d="M136-9l-17 47 33 2z"/><path fill="#effff9" d="M99 96l-4-3 10-14z"/><path fill="#c0babf" d="M152.9 252.5l-34.8-59.3-10.2 11.1 39-4.8z"/><path fill="#29322b" d="M132.6 169.4l11.5-12.4-27.3-10.1 13.9-11.4z"/><path fill="#f2f5fb" d="M83 195h19v6H83z"/><path d="M87 50h2v20h-2z"/><path fill="#3c411f" d="M219 46l-58 14 13 17z"/><path fill="#fff" d="M80 124l8-10H77z"/><path fill="#202720" d="M0 33h59v4H0z"/><path fill="#d2d7d3" d="M148 144l20 28-27-1z"/><circle cx="132" cy="79" r="6" fill="#b9f9d1"/><path fill="#e2e7fc" d="M17 100l8 4 4 18z"/><path fill="#59473f" d="M64.1 38.9L8.5 90l16.3 22.8-18.4.2z"/><path fill="#001a00" d="M75 56h4v14h-4z"/><circle r="1" fill="#effdfe" transform="rotate(-157.9 48.1 43.5) scale(1.77642 10.13749)"/><circle cx="166" cy="47" r="5" fill="#304419"/><path fill="#b6b39b" d="M41.7 17.6l-12-.2.6-31 12 .2z"/><path fill="#10231c" d="M114 53h4v28h-4z"/><path fill="#120b11" d="M43 89l4-19 3 22z"/><path fill="#ceaeaa" d="M108.9 35.4l6.7 1.6 24.3 11.1-46.5-2.5z"/><path fill="#131406" d="M165.1 161.7l1.4-20.8-16.7-4.2 9.1 20.6z"/><path fill="#3b6349" d="M80 99l55-22-23 22z"/><path fill="#fff" d="M159 39h22v4h-22z"/><path d="M110 27h6v9h-6z"/></g></g></svg>