<svg xmlns="http://www.w3.org/2000/svg" viewBox="0 0 1120 1400"><defs/><filter id="a"><feGaussianBlur stdDeviation="12"/></filter><rect width="100%" height="100%" fill="#5f6054"/><g filter="url(#a)"><g fill-opacity=".5" transform="translate(2.7 2.7) scale(5.46875)"><circle cx="99" cy="122" r="185" fill="#fff"/><circle cx="95" cy="41" r="246" fill="#fff"/><circle r="1" fill="#727053" transform="matrix(-5.00286 92.24307 -54.24402 -2.94196 100 128.4)"/><circle r="1" fill="#fff" transform="matrix(-202.99827 -.83897 .11697 -28.30217 106.7 16.4)"/><path fill="#fff" d="M-19.8 283l2.8-79 254.8 9-2.8 79z"/><circle r="1" fill="#fff" transform="matrix(34.06953 -.81189 4.8362 202.94238 186.1 142.4)"/><ellipse cx="13" cy="118" fill="#fff" rx="35" ry="255"/><path fill="#939381" d="M45 41h107v60H45z"/><path fill="#9a9986" d="M60 93l114 113-132 7z"/><path fill="#fff" d="M-.5 42v-56h219v56z"/><ellipse cx="203" cy="127" fill="#fff" rx="30" ry="229"/><ellipse cy="119" fill="#fff" rx="28" ry="234"/><ellipse cx="58" cy="242" fill="#fff" rx="203" ry="22"/><path fill="#90917e" d="M136 46h15v176h-15z"/><path fill="#fff" d="M0 65h48v31H0z"/><path fill="#8d9184" d="M156 57.7l18.9 1.6-.8 9-19-1.6z"/><path fill="#a09f8e" d="M48 44h102v161H48z"/><ellipse cx="70" cy="9" fill="#fff" rx="203" ry="30"/><path fill="#fff" d="M151 161h17v95h-17z"/><ellipse cx="203" cy="126" fill="#fff" rx="28" ry="221"/><path fill="#34371d" d="M154 195h20v2h-20z"/><circle r="1" fill="#fff" transform="matrix(2.22102 -22.65173 133.13485 13.05399 90.8 243.5)"/><path fill="#9fa192" d="M27 49h68v16H27z"/><path fill="#a6a796" d="M119 122l59-27H25z"/><ellipse cx="39" cy="185" fill="#737766" rx="16" ry="2"/><ellipse cx="5" cy="79" fill="#fff" rx="23" ry="201"/><path fill="#a7a899" d="M123.3 157.6l51.9-11.4L-16 135l196.2 14.8z"/><path fill="#cfd0ca" d="M66 208h79v13H66z"/><ellipse cx="151" cy="189" fill="#8a8c79" rx="26" ry="2"/><path fill="#4d513e" d="M27 156h19v2H27z"/><path fill="#fff" d="M0 52h49v10H0z"/><path fill="#a5a694" d="M179.1 86.6l-68.2 2.7-90.7 1.1 103.7 12.3z"/><path fill="#fff" d="M152 113h52v25h-52z"/><path fill="#a3a393" d="M175.9 160.6l-61.8-1.5L46.4 47.6l14.5 88.1z"/><path fill="#828371" d="M126.6 110.2l48.9 2.6v1l-49-2.6z"/><path fill="#484b37" d="M27.1 55.4L49 57.7l-.1 1L27 56.2z"/><path fill="#4d503b" d="M30 200h14v2H30z"/><path fill="#fff" d="M0 113h48v23H0zm153.5-1.4l-.6-46 66.1 7.3L155.4 90z"/><path fill="#787a6b" d="M28 137h23v3H28z"/><path fill="#8c8f7f" d="M153.9 49l22 4-5.1.7-55.5-5.4z"/><path fill="#999886" d="M49 167h102v40H49z"/><path fill="#4c503d" d="M42.5 150.3l-14.8 2.4-.2-1 14.8-2.4z"/><path fill="#535745" d="M172 207.5l-26.3-6 .3-1 26.3 6z"/><path fill="#fff" d="M-11.1 183.6l-4.9-25.4 62.8 1.2 2.7 25.1z"/><path fill="#a9ac9d" d="M176 138h-20l15 10z"/><path fill="#676957" d="M26 194h17v2H26z"/><path fill="#fff" d="M0 0h49v49H0zm152 162h52v25h-52z"/><path fill="#717461" d="M28 144h21v2H28z"/><path fill="#767862" d="M28 104h13v2H28z"/><circle r="1" fill="#fff" transform="matrix(2.72066 3.97342 -10.83573 7.41938 37.4 209.3)"/><ellipse cx="62" cy="239" fill="#fff" rx="112" ry="20"/><ellipse cx="101" cy="13" fill="#fff" rx="112" ry="26"/><ellipse cx="98" cy="41" fill="#cbcdc9" rx="54" ry="2"/><ellipse cx="154" cy="139" fill="#5c5f4c" rx="15" ry="1"/><path fill="#9c9c8c" d="M48 45h105v42H48z"/><path fill="#fff" d="M0 68h48v22H0z"/><path fill="#fefffd" d="M19.1 100.8l27.6 4.5-48.1 67.4L49.3 98z"/><ellipse cx="198" cy="97" fill="#fff" rx="23" ry="242"/><path fill="#a0a191" d="M25 111h29v2H25z"/><ellipse cx="97" cy="211" fill="#cdcec7" rx="46" ry="5"/><path fill="#fff" d="M152 0h52v49h-52z"/><path fill="#8e8f80" d="M26.5 90.2v-1l49 2.6v1z"/><ellipse cx="4" cy="109" fill="#fff" rx="23" ry="151"/><path fill="#90917f" d="M173.5 148.1l.2 1-29.2 6.8-.2-1z"/><path fill="#a2a291" d="M48 72h103v112H48z"/><path fill="#6f7261" d="M152 158.8v-1l20 1.4v1z"/><path fill="#8c8e7f" d="M172.2 101l-32.2 7-.2-1 32.2-7z"/><ellipse cx="39" cy="63" fill="#4a4e3f" rx="10" ry="1"/><path fill="#fff" d="M152 114h52v24h-52z"/><path fill="#5b5e50" d="M51.5 104v1l-19-1v-1z"/><path fill="#fefffd" d="M-16 181.5l66.3 7.2-12.5 8.6 13-1.2z"/><circle r="1" fill="#f9faf8" transform="matrix(.06168 -169.8188 1 .00036 153.2 195.1)"/><path fill="#666a5d" d="M28 49h16v2H28z"/><path fill="#8f9080" d="M139 145h31v2h-31z"/><path fill="#fff" d="M152 207h52v49h-52z"/><circle cx="171" cy="53" r="3" fill="#898d7b"/><path fill="#6f7464" d="M43 149h6v2h-6z"/><path fill="#fff" d="M151 141h53v3h-53zm1.5 58.5l.6-3 28.4 6-.6 3zM47 107l-63 41 63-16z"/><path fill="#71756b" d="M167.8 189.7l7.9-4.3.5.9-7.9 4.3z"/><path fill="#fff" d="M22 159h26v25H22z"/><path fill="#757768" d="M170 53.2l-.3 1-15.6-3.4.2-1z"/><circle r="1" fill="#9b9c8c" transform="rotate(94.5 -22 160.2) scale(1 44.2145)"/><path fill="#c0c1ba" d="M105 39h38v6h-38z"/><path fill="#fff" d="M51 55.7l-28.8-6.8.8 179.5-39-175z"/><path fill="#939381" d="M125 204l25-31 2 37z"/><ellipse cx="166" cy="97" fill="#414536" rx="5" ry="1"/><path fill="#fff" d="M-16 208.2l63.1-6.6L6.6 271 219 239.7z"/><path fill="#828370" d="M172.6 87l-21 6.9-.2-1 21-6.8z"/><path fill="#fff" d="M33 195h15v4H33z"/><circle cx="160" cy="61" r="2" fill="#fff"/><circle cx="28" cy="202" r="2" fill="#777968"/><path fill="#fff" d="M132.5 210l14.2 26.7L219 170l-84.9 101zm22.2-58.7l26.3-9.6.3 1-26.3 9.6z"/><path fill="#737567" d="M176.9 67.5l-.3 1-15.5-4 .3-1z"/><path fill="#fff" d="M152 161l67 18-67 9z"/><path fill="#bec0b7" d="M58.5 215l-.4 2-20.6-4 .4-2z"/></g></g></svg>