<svg xmlns="http://www.w3.org/2000/svg" viewBox="0 0 933 1400"><defs/><filter id="a"><feGaussianBlur stdDeviation="12"/></filter><rect width="100%" height="100%" fill="#543"/><g filter="url(#a)"><g fill-opacity=".5" transform="translate(2.7 2.7) scale(5.46875)"><ellipse cx="116" cy="69" fill="#afb5bb" rx="112" ry="135"/><circle r="1" fill="#ccc2b4" transform="matrix(-61.92818 -23.09926 9.42802 -25.27612 73 255)"/><circle r="1" fill="#060b17" transform="rotate(52.8 -140.4 214) scale(74.17568 18.88237)"/><path fill="#000001" d="M120 106h34v40h-34z"/><path fill="#c6c9ca" d="M18 97h100v43H18z"/><path fill="#cbc8bf" d="M139 149.6L102.1 137l71 102.6-6.2-99.7z"/><circle r="1" fill="#5a6175" transform="matrix(-15.99517 33.99148 -93.61502 -44.05188 23.1 177.3)"/><path fill="#e9f0ef" d="M16 130h18v25H16z"/><path fill="#2c2317" d="M74.9 134.1l9-27.9 3.1 57.6L18.2 183z"/><path fill="#b5a488" d="M26.2 214.7l-1.8-66.3-9.8 56.6 131.5-64.2z"/><ellipse cx="164" cy="235" fill="#bcb2a0" rx="7" ry="45"/><path fill="#092a7e" d="M5 99h12v157H5z"/><circle r="1" fill="#0c0f13" transform="matrix(-8.79614 -3.60756 23.3492 -56.93125 135.1 244.8)"/><path fill="#0a0708" d="M96 173h31v32H96z"/><path d="M53 96h4v40h-4z"/><path fill="#b9ab8f" d="M95.9 215.3L93.4 179l-17.9 14.5 2.1 26.7z"/><path fill="#a19a96" d="M13 175h14v57H13z"/><path fill="#e2e5e7" d="M116.7 102.2l1.5 28-31 1.6-1.4-28z"/><path d="M93 141h13v23H93z"/><path fill="#03174e" d="M40.1 218.8l3.9-13.4 75.9 21.8-3.9 13.4z"/><circle r="1" fill="#c6c0b4" transform="matrix(17.98037 1.48604 -2.36886 28.6621 145.1 174.8)"/><path fill="#928b87" d="M6 0h58v100H6z"/><ellipse cx="88" cy="151" fill="#d0d0ca" rx="3" ry="25"/><path fill="#3a260d" d="M20 193l32-9-12-48z"/><path fill="#c3c0b8" d="M152.7 68.8l15.7 39.9-8.9 56.8-2.7-16z"/><path fill="#b7aa96" d="M51 140h10v48H51z"/><path fill="#0c0a0f" d="M53.5 195.9l-27.1 20 32.5 7.6-8.5-28.1z"/><circle r="1" fill="#bbaa8e" transform="rotate(-117.1 127.2 97.4) scale(14.73879 23.36144)"/><path fill="#030302" d="M63 142h12v29H63z"/><circle r="1" fill="#0e1a26" transform="matrix(2.57816 54.59089 -4.7203 .22293 1.3 31.5)"/><circle r="1" fill="#44463c" transform="matrix(2.4313 -.01583 .1466 22.5135 33.6 109)"/><path fill="#c0bab7" d="M119 92h37v11h-37z"/><path fill="#5d594f" d="M105.9 185l-23.1-24 48.8 12.5-11.3-20.7z"/><ellipse cx="169" cy="30" fill="#5d432d" rx="3" ry="113"/><path fill="#dee6e1" d="M38 89h7v48h-7z"/><path fill="#1e222e" d="M77 115h8v39h-8z"/><path fill="#191715" d="M120 206h38v50h-38z"/><path fill="#131927" d="M-4.2 268.5L7.3 137l5 .5L.6 269z"/><path fill="#303134" d="M119 104h36v40h-36z"/><path fill="#c3c1bb" d="M56.4 130.6l25.1 13.3-12-37.4-14 14.7z"/><path fill="#284496" d="M96 205h24v20H96z"/><path fill="#000019" d="M7 97l9 12-5 21z"/><path fill="#4a4647" d="M185 171.5l-48.1 44.7 17.2-23.9 14.5-14.7z"/><path fill="#5e6268" d="M4 151l7-107-27 79z"/><path fill="#a49d9c" d="M12 60h40v30H12z"/><path fill="#999188" d="M119.6 204.6l11.3.9 8.3-32.6 11.6-17.9z"/><path fill="#2c333c" d="M95 131h9v23h-9z"/><path fill="#11121b" d="M73 221v-36l-7 16z"/><path fill="#a48f6f" d="M55 204l2-33 32-5z"/><circle r="1" fill="#64533f" transform="matrix(-4.71345 12.8104 -13.51585 -4.97301 166.7 53.2)"/><path fill="#314578" d="M9 271l12-38-16-10z"/><path d="M97 187h19v16H97z"/><path fill="#7b716a" d="M6 0h161v27H6z"/><path fill="#e9e9db" d="M32 155l-4-37-5 32z"/><circle r="1" fill="#a69378" transform="matrix(42.69337 17.65126 -3.56536 8.6236 57 235.5)"/><path fill="#252426" d="M52 98h4v42h-4z"/><path fill="#3a363c" d="M58.7 150.6l-43 12.9-9.8-22.4 39.4 31.2z"/><path fill="#191713" d="M156 132l-14 11 15 2z"/><path fill="#37342e" d="M45 139l-10 28-1-32z"/><path fill="#856e5a" d="M167 103h3v137h-3z"/><path fill="#978c7b" d="M76 184h20v34H76z"/><path fill="#a28f74" d="M60.5 191.6l-37-.1 9.7-50.5-17.7 80.6z"/><path fill="#716243" d="M53 187h17v30H53z"/><path fill="#978d87" d="M77 91L30.9 69l35.7 41.5 111.5-24.8z"/><path fill="#d4d7d5" d="M154 72h2v58h-2z"/><path fill="#d3d1c8" d="M147.2 168.8l-15.9-13.9 29.8-4.5 4.8 18.9z"/><path fill="#4d4b47" d="M88 162.1l3.1 4.3-6.5 16.2 47.1 9.2z"/><path fill="#6679a9" d="M5 217h4v39H5z"/><path fill="#aeabac" d="M109 145h43v14h-43z"/><path fill="#c6c8c8" d="M68.9 129.8L58 150.1l-2.4-20.2 23.9-20.7z"/><path fill="#a8afb6" d="M86 138h33v6H86z"/><ellipse cx="165" cy="255" fill="#d7ccb0" rx="2" ry="28"/><path fill="#0b0c0f" d="M111 170h17v13h-17z"/><path fill="#b9b5ae" d="M22 122l-8 14 39 1z"/><path fill="#434445" d="M129 103h25v32h-25z"/><path fill="#243c7f" d="M10 146h5v98h-5z"/><path fill="#010002" d="M128.5 160v1l-11-1v-1z"/><path fill="#a39f9b" d="M27 190l-12-13 11-10z"/><path fill="#443628" d="M36.6 144.5L26 195.6l-12.6-1.3 33.8-14.1z"/><path fill="#c5c6c7" d="M102 128.6l11.4 24.2 5-44.2-46-3.1z"/><path fill="#c9dae9" d="M14 145h18v5H14z"/><path fill="#69645d" d="M142.5 171.1l13.7 2.9-3.9 54.2 2.3-44.7z"/><path fill="#c4c8c4" d="M34 110l16 34-9-55z"/><path fill="#73695f" d="M81.8-1.7l6.4-4.8 62 82.2-6.4 4.8z"/><path fill="#1b1a1a" d="M64 140h14v30H64z"/><path fill="#aa9a82" d="M125 271l-83-51 74 21z"/><path fill="#97908c" d="M53.6 74.5l-1.8 65.8-21.3-86.5 19 8.5z"/><path fill="#323130" d="M119 127l36-25-36 2z"/><path fill="#e7e9dd" d="M152.2 179.2l-2.4 19.6-7.5-18.8-5.1-.2z"/><ellipse cx="21" cy="114" fill="#9e9896" rx="5" ry="43"/><path fill="#161314" d="M92 144h16v12H92z"/><path fill="#c9ced3" d="M112.2 130.4l-9.7-21.9-16.9 51.6 3.7-28.6z"/><circle r="1" fill="#8d857d" transform="matrix(31.11297 21.99765 -12.29534 17.39025 86.6 38.1)"/><ellipse cx="10" cy="250" fill="#0d122b" rx="2" ry="36"/><ellipse cx="2" cy="136" fill="#686767" rx="4" ry="42"/><path fill="#27292b" d="M7.4 194.4L3.5 271l-8.6-94.3 7.3-9.5z"/><path fill="#25211f" d="M115.5 268.2l18.6-69.5 14 7.3 8.8 14.1z"/><path fill="#273765" d="M56 222l57 17-2-22z"/><path fill="#80756b" d="M104.3 69.6L44.6 55.2l26 27.3 4.4 28.6z"/><path fill="#2d2e36" d="M152 189h6v36h-6z"/></g></g></svg>