<svg xmlns="http://www.w3.org/2000/svg" viewBox="0 0 933 1400"><defs/><filter id="a"><feGaussianBlur stdDeviation="12"/></filter><rect width="100%" height="100%" fill="#5b4533"/><g filter="url(#a)"><g fill-opacity=".5" transform="translate(2.7 2.7) scale(5.46875)"><circle r="1" fill="#abb6c0" transform="rotate(72.2 -35.5 81) scale(98.50974 169)"/><circle r="1" fill="#00083c" transform="matrix(74.89367 17.56615 -8.85929 37.77177 106.7 223.6)"/><circle r="1" fill="#d7c6a8" transform="matrix(10.88105 -16.21516 85.23805 57.19827 27 246)"/><circle r="1" fill="#babcb7" transform="matrix(13.34002 -2.9086 15.83453 72.62372 149.7 132.4)"/><path d="M29 93h17v51H29z"/><path fill="#e0e0e2" d="M47 104h21v49H47z"/><ellipse cy="166" rx="6" ry="33"/><path d="M68 144h19v26H68z"/><path fill="#e3e5e5" d="M77 98h17v48H77z"/><path d="M96 95h13v41H96z"/><ellipse cx="2" cy="58" rx="5" ry="15"/><path fill="#120700" d="M114 150h52v9h-52z"/><circle r="1" fill="#dee0d7" transform="matrix(3.49167 .25906 -3.55717 47.94508 10.2 157.1)"/><path fill="#d2d5d0" d="M110 105h39v29h-39z"/><path fill="#d2d2d1" d="M26 143h30v24H26z"/><circle r="1" fill="#72685f" transform="matrix(-168.86385 -6.78227 1.71232 -42.63315 87.4 12.2)"/><path fill="#002f9e" d="M17 113h8v65h-8z"/><path fill="#07070e" d="M69 110h7v54h-7z"/><path fill="#cccac5" d="M92 161l-7-45 38 61z"/><path fill="#fdfffd" d="M140 118h13v31h-13z"/><path fill="ivory" d="M4 84l-17-2 17 36z"/><circle r="1" fill="#1e3f87" transform="matrix(-1.49076 13.76484 -28.74532 -3.11317 151.2 233.4)"/><path fill="#b4a68e" d="M55 195l-31-33 50 25z"/><circle r="1" fill="#0b100b" transform="matrix(41.10341 -4.09116 1.7574 17.6563 104.8 210.8)"/><path fill="#b3c9e8" d="M23.3 105.6l-.2 38.2 7.1 22.3.1-43.8z"/><path fill="#383023" d="M121 198l19-63-19-1z"/><circle r="1" fill="#c4b596" transform="matrix(-2.8905 4.18025 -9.1393 -6.3195 148 192)"/><path fill="#192c59" d="M71 232l-75-27 57-19z"/><path d="M-16 50.3L7.9 44 5.3 58l3.8 22.2z"/><path fill="#070300" d="M15 173h18v7H15z"/><path fill="#cbbc99" d="M5 175l42 11-42 16z"/><path fill="#928b85" d="M90.1 192.5l18.6-27.3L112-15.1l11.1 192.6z"/><path fill="#0b0c12" d="M35 205l-37-4 76 49z"/><path fill="#9b9391" d="M47 78h46v33H47z"/><path fill="#161110" d="M6.5 134.5L-16 165.1-.4 205l7.9-35.4z"/><path fill="#c4b698" d="M-14.1 213.3l8.6-12.3L14 214.7 5.5 227z"/><path fill="#a2a0a2" d="M7 71h20v44H7z"/><path fill="#010000" d="M105 146l17 4-16 1z"/><path fill="#09101e" d="M104 271l30-69-72 43z"/><path fill="#c7c7c2" d="M73 135h48v10H73z"/><path fill="#262420" d="M72 172l47 38-45 7z"/><path fill="#27272c" d="M31.9 149l11.8-7.8 6.8-20.3-22.3-10.3z"/><ellipse cx="9" cy="147" fill="#e4e9e9" rx="3" ry="28"/><path fill="#847a6d" d="M175.4 128.4l-40.9 58.9-14.6-1.3 51.6 20.3z"/><path fill="#4b504c" d="M135 94h5v20h-5z"/><path fill="#515752" d="M89 169h20v23H89z"/><path fill="#8a817c" d="M143 25L27 20l143 81z"/><path fill="#455381" d="M41.1 189.7l-9.2 8.2 22.8 15 7.4-18.9z"/><ellipse cx="6" cy="99" fill="#170b01" rx="1" ry="49"/><circle r="1" fill="#51412b" transform="matrix(-.54977 3.04496 -46.1864 -8.339 169 189.4)"/><path fill="#131e2c" d="M144.2 193.6l32.2 65.9L185 208l-88.9-20z"/><path fill="#c3d0cd" d="M125.6 103.8l15.5-18.7-11.1 34.7 12.7 7.4z"/><path fill="#39342c" d="M46 166h43v3H46z"/><ellipse cx="71" cy="141" fill="#302e31" rx="4" ry="30"/><circle r="1" fill="#2c3f76" transform="matrix(-23.7904 16.96953 -4.03054 -5.6506 135.5 228.4)"/><path fill="#f6f9f6" d="M141 94h4v53h-4z"/><circle r="1" fill="#d6c5a1" transform="matrix(-17.60162 -3.86487 .21447 -.97673 140.6 190.6)"/><circle r="1" fill="#635d55" transform="matrix(-11.24912 2.30911 -33.98218 -165.54829 169 29.4)"/><ellipse cx="117" cy="94" fill="#a39997" rx="9" ry="28"/><path fill="#29335c" d="M126.1 248.5l-49.3-24.6L37 203l42.9 36z"/><path fill="#c3c4c4" d="M41.9 117.5l27.9 5.1-24.1 21.3 5.5-37.9z"/><path fill="#b4a58c" d="M55 177.5L26.5 194l-5.5-9.5L49.5 168z"/><path fill="#87735b" d="M-19 238.7L.3 218.5 55 271.3l-19.5 20.2z"/><path fill="#111416" d="M94 125h8v9h-8z"/><path fill="#1d2d60" d="M26 160L8 176l18-3z"/><path fill="#948c8a" d="M68 112l67-41-123-5z"/><circle r="1" fill="#a26635" transform="rotate(94.6 -42 105.6) scale(8.3233 3.72775)"/><path fill="#281e14" d="M118 151h45v5h-45z"/><path fill="#322f2e" d="M77 145h12v21H77z"/><circle r="1" fill="#101f3d" transform="matrix(-.37156 11.20045 -33.25887 -1.10331 140.3 250.3)"/><path fill="#b7c1cd" d="M19.1 126.1l11.5-6.5-4 53.9 12.3-8.6z"/><path fill="#948c89" d="M144 157h22v23h-22z"/><path fill="#23242c" d="M28 93h19v17H28z"/><path fill="#0f0c0d" d="M57.5 197l57.3 28.2-1.3 17.6L59.4 211z"/><path fill="#adaaa4" d="M143.7 95.7l41.3 97-6.3-43.5-26.4-.2z"/><circle r="1" fill="#6e655d" transform="matrix(.12844 -8.67088 168.98146 2.50316 81.2 3.5)"/><path fill="#423d34" d="M166.1 161.7l1.3 27.3-40.5-6.6 58.1 5.4z"/><path fill="#a09188" d="M16.3 115.1l2.2 21-26.8 2.8-2.2-21z"/><path fill="#d5bc95" d="M76 172h12v7H76z"/><path fill="#ac9a81" d="M-16 192.7l50.9 50.2L97 271l-58.6-39.9z"/><path fill="#d2d3d1" d="M88.4 113.1l5.7-1.7 3.5 11.5-5.7 1.7z"/><path fill="#47392b" d="M120.9 157l-12.6-12.9 33.5 14.3-11.2 20.5z"/><ellipse cx="22" cy="128" fill="#3a68be" rx="3" ry="20"/><path fill="#0c0d10" d="M5 196l-21 17 12-77z"/><path fill="#998571" d="M53 194l13-41 5 36z"/><path fill="#14131b" d="M25 219l37 3 39 49z"/><path fill="#908986" d="M159.5 144.4l-26.6-99.1 28.9 39.5 9 63.4z"/><path fill="#a19d9e" d="M28.7 80.7l24.5 4.8-1.9 9.8-24.5-4.8z"/><circle r="1" fill="#393939" transform="rotate(81.3 -32.7 104.7) scale(12.90319 2.19409)"/><path d="M6 50l-22-10L5 72z"/><path fill="#0e110d" d="M110 184h13v18h-13z"/><path fill="#ac9874" d="M182.4 202.6l-.6 3-38.2-8.2.6-3z"/><path fill="#b5ab95" d="M2.8 201.2l-12.7 8.3 21.9-10 15.1-11.1z"/><path fill="#d8cdba" d="M64 143h3v22h-3z"/><path fill="#37373a" d="M27 113h18v13H27z"/><path fill="#dbdfdd" d="M75 138l19-21-11 25z"/><path fill="#2c304a" d="M19.4 197.6l-15.5 4.5 67 31.5-32.1-42.2z"/><path fill="#202328" d="M102 94h7v39h-7z"/><path fill="#31427c" d="M111.8 240.4l33.5-9 13.4 6.4-17.7-24.2z"/><path fill="#38332e" d="M72 113h3v76h-3z"/></g></g></svg>