<svg xmlns="http://www.w3.org/2000/svg" viewBox="0 0 1400 1120"><defs/><filter id="a"><feGaussianBlur stdDeviation="12"/></filter><rect width="100%" height="100%" fill="#292e49"/><g filter="url(#a)"><g fill-opacity=".5" transform="translate(2.7 2.7) scale(5.46875)"><circle r="1" fill="#decaa2" transform="matrix(-112.24702 164.34208 -137.97488 -94.238 119.6 118.5)"/><circle r="1" fill="#090a18" transform="matrix(3.56084 25.33666 -107.385 15.09198 182 148.8)"/><path fill="#f8fdf8" d="M22 52h37v108H22z"/><path fill="#ffffeb" d="M32.8 229.5L2 233.8l-10.9-77.3 30.7-4.3z"/><path fill="#000004" d="M239 68h17v52h-17z"/><circle r="1" fill="#c3bfb9" transform="rotate(162.2 111.3 83.7) scale(7.90073 79.76609)"/><path fill="#afaca9" d="M107 17h55v97h-55z"/><path fill="#130f00" d="M33.4 197.9L20 178l26.6-17.9L60 180z"/><path d="M163 68h14v38h-14zm-95 47h19v24H68z"/><ellipse cx="142" cy="164" fill="#00032a" rx="70" ry="10"/><path d="M92 68h15v38H92z"/><path fill="#cdd0d0" d="M176.6 108.4l2.9-40.9 29.9 2.1-2.9 40.9z"/><path fill="#0b0c0d" d="M211 179l-3-100 25 48z"/><ellipse cx="81" cy="97" fill="#dfe7e8" rx="9" ry="19"/><circle r="1" fill="#e1c595" transform="rotate(-120.9 81.8 87.7) scale(12.16342 52.24789)"/><path fill="#1b0700" d="M157.2 115.2L128.7 137l-7-17.1-11.8-4.7z"/><circle r="1" fill="#a78257" transform="matrix(78.55761 5.48043 -1.00047 14.3409 154.4 188.5)"/><path fill="#a69687" d="M159 106h28v39h-28z"/><path d="M188 108h14v27h-14z"/><path fill="#bcb8b2" d="M16 49h51v115H16z"/><path fill="#5d482d" d="M24.5 135.6L2.2 101.3l14.4-2.7L26.9 84z"/><path fill="#bec5cb" d="M240 101l-27 16 25-77z"/><path fill="#ae926f" d="M261.8 97.8l-21.5 86.3-49.6-53.4 58.1 88.3z"/><path fill="#e0eee9" d="M142.7 110.6l-13.8-33.3 12.6-8.7 8.4 44.8z"/><path fill="#0d0c0f" d="M240 100h12v22h-12z"/><ellipse cx="37" cy="88" fill="#dcdedc" rx="11" ry="48"/><path d="M120 151h47v12h-47z"/><circle r="1" fill="#182a56" transform="rotate(26.8 -240 483.8) scale(27.54419 9.76815)"/><circle r="1" fill="#6e5b56" transform="matrix(22.93654 7.67446 -18.66454 55.78242 10 16.6)"/><ellipse cx="168" cy="41" fill="#8f8480" rx="151" ry="31"/><path d="M90.2 172.1L70.3 174l-.5-6 19.9-1.8z"/><path fill="#b7bab8" d="M193.2 104.7l18.7-39.9-9.2 95.6-.8-48.2z"/><path fill="#130900" d="M221 147h22v19h-22z"/><path fill="#857360" d="M70.1 142.3l-.8 17.9 122.3-36.9-25.4-3.8z"/><path fill="#261b0a" d="M0 178h64v2H0z"/><path fill="#352d21" d="M128 105h12v37h-12z"/><path fill="#d5d9d7" d="M42 157l-25 17 13-77z"/><ellipse cx="213" cy="115" fill="#17191e" rx="7" ry="34"/><circle r="1" fill="#e9dfc1" transform="matrix(1.19308 20.54915 -24.9525 1.44874 9.6 202.3)"/><path fill="#b4b4b2" d="M90 51.2l.9 90 12.9-35.4-32.5 12.6z"/><path fill="#0f0501" d="M150 169h69v5h-69z"/><path fill="#382e1e" d="M60.6 169l-7.3 16.5-19.2 14.6L54.5 161z"/><path d="M69 86h3v44h-3z"/><path fill="#a0876a" d="M270.7 195.2l-147.4-19.5 94.7-3.9-20.3-24.6z"/><path fill="#959191" d="M271 129.6L219 116l19-11-5.3 46.4z"/><path fill="#c4b797" d="M11 61h11v40H11z"/><path d="M143 140h16v9h-16z"/><path fill="#a39b94" d="M53.5 150.9L53.4 9.5l17.3 159.8-4.4 22.2z"/><path fill="#304a81" d="M82 153h41v9H82z"/><path fill="#af936c" d="M207 137l-30 3 32 7z"/><path fill="#b7babe" d="M238.5 119.8l-17.9-52.9-5.4 45.3 21.8-49z"/><circle r="1" fill="#947a5c" transform="matrix(-6.90428 -22.3605 63.44514 -19.59002 110.4 203)"/><circle r="1" fill="#84796f" transform="matrix(13.6042 12.37153 -36.9549 40.63703 224.8 41.5)"/><path fill="#334f89" d="M167 155h38v9h-38z"/><path fill="#b7bcbe" d="M72 73h2v68h-2z"/><path fill="#908787" d="M144 119h42v15h-42z"/><path fill="#0d0b0b" d="M200.7 140l-11 1-2.4-29 11-1z"/><path d="M206.7 149.6l6.4-9 16.2 11.8-6.4 9z"/><path fill="#e3e5dd" d="M192.4 93.2l16.5 4-3.3 13.6-16.5-4z"/><path fill="#41301d" d="M4.4 109.1l25.2 1.6-11.8-6.2-29.8-2z"/><path fill="#878382" d="M259.2 122.4l-30.4 28-20.7-14.2 62.9 13.5z"/><path fill="#8e8581" d="M32 13l33 71L237-16z"/><path fill="#182035" d="M65.9 171.2l12.2-6.1 17.5-26-10.4 36.6z"/><path fill="#dfe4d6" d="M123 90h5v25h-5z"/><path fill="#998b7e" d="M95 104h12v52H95z"/><path fill="#7e6c4e" d="M-1.7 119.7L5 86.4l22 13.4-.4-25.2z"/><ellipse cx="129" cy="175" fill="#b59d80" rx="70" ry="2"/><path fill="#0a0808" d="M76 115h9v25h-9z"/><path fill="#0f0b0a" d="M206 118h27v19h-27z"/><path fill="#000003" d="M164 103.5v-11h12v11z"/><circle r="1" fill="#d2c5aa" transform="matrix(-23.59723 12.02339 -2.02486 -3.974 54.9 192.8)"/><path fill="#968574" d="M27 100l-5 45-38 18z"/><circle r="1" fill="#b2a080" transform="matrix(-1.25592 -1.1428 13.4322 -14.7618 70.1 167.1)"/><path fill="#f4f6f3" d="M146.2 113.4l-6 .2-.4-25 6-.2z"/><ellipse cx="202" cy="171" fill="#070612" rx="17" ry="3"/><path fill="#d1cec6" d="M46 43l2 34H7z"/><path fill="#212b30" d="M164 69h14v15h-14z"/><ellipse cx="253" cy="139" fill="#b2b1b3" rx="5" ry="16"/><path fill="#999290" d="M77 56h132v13H77z"/><ellipse cx="181" cy="135" fill="#2b1f10" rx="30" ry="2"/><path fill="#b3b2b1" d="M222.8 89.4L254.1 54l16.9 5.4-64.2 16.3z"/><path fill="#2f251b" d="M109 114h49v4h-49z"/><path fill="#696b70" d="M222 99l-8 18 16-2z"/><path fill="#978a81" d="M145.6 140.4l-5-21.4 5.8-1.4 5 21.4z"/><ellipse cx="109" cy="171" fill="#050000" rx="40" ry="2"/><path fill="#7e7677" d="M157 104h24v25h-24z"/><path fill="#5e5647" d="M23 172h11v20H23z"/><path fill="#80726e" d="M115 42L40-10 24 28z"/><path fill="#00052c" d="M110 145h11v8h-11z"/><path fill="#abaea7" d="M133.4 73l-2.5-21.7 19.4 30-35.1 14.3z"/><path fill="#101518" d="M105.1 91.8l1.6 9.9-15.8 2.5-1.6-9.9z"/><ellipse cx="6" cy="93" fill="#413118" rx="2" ry="17"/><path fill="#9b8368" d="M242.8 133.1l-.1 30.3-55.9 55.6 84.2-16.5z"/><path fill="#352e24" d="M29.1 183.2l24.3 6.9 4.5-19.4 1.4-7.8z"/><path fill="#353638" d="M242 67h14v56h-14z"/><circle r="1" fill="#c6c5bb" transform="matrix(20.03856 5.44436 -1.8286 6.73034 16.6 159.3)"/><path fill="#a29f9d" d="M41 172l27-63 1 33z"/><path fill="#c5c9c6" d="M93 92l-3-14-8 20z"/><path fill="#3e3f3c" d="M133 111l7-9h-14z"/></g></g></svg>