<svg xmlns="http://www.w3.org/2000/svg" viewBox="0 0 1200 1200"><defs/><filter id="a"><feGaussianBlur stdDeviation="12"/></filter><rect width="100%" height="100%" fill="#242c45"/><g filter="url(#a)"><g fill-opacity=".5" transform="translate(2.3 2.3) scale(4.6875)"><circle cx="180" cy="110" r="255" fill="#bfd6fc"/><path fill="#fff" d="M0 266.7l-1-53 255-4.4 1 53z"/><ellipse cx="142" cy="18" fill="#fff" rx="255" ry="27"/><ellipse cx="123" cy="80" fill="#000013" rx="255" ry="37"/><circle r="1" fill="#00196c" transform="rotate(-87.7 125 31.6) scale(56.38677 247.92547)"/><ellipse cx="123" cy="16" fill="#fff" rx="255" ry="29"/><ellipse cx="110" cy="237" fill="#fff" rx="255" ry="27"/><ellipse cx="202" cy="196" fill="#0b0e11" rx="255" ry="15"/><ellipse cx="48" cy="63" fill="#000319" rx="255" ry="19"/><circle r="1" fill="#2f68c7" transform="matrix(254.9518 -4.95826 .54702 28.12768 76.7 125.3)"/><ellipse cx="80" cy="236" fill="#fff" rx="255" ry="26"/><path fill="#fff" d="M-4.5-4.5h255v49h-255z"/><ellipse cx="34" cy="188" fill="#1f2f51" rx="255" ry="23"/><path fill="#010709" d="M15 45h241v10H15z"/><ellipse cx="185" cy="245" fill="#fff" rx="255" ry="35"/><ellipse cx="198" cy="10" fill="#fff" rx="255" ry="34"/><circle r="1" fill="#173368" transform="matrix(214.38423 -2.8059 .25462 19.4545 153.5 85.9)"/><ellipse cx="159" cy="207" fill="#14171b" rx="255" ry="4"/><ellipse cx="33" cy="14" fill="#fff" rx="255" ry="30"/><ellipse cx="64" cy="240" fill="#fff" rx="255" ry="29"/><circle r="1" fill="#273e71" transform="rotate(-.8 12459.8 -8556) scale(242.90324 16.36649)"/><ellipse cx="162" cy="126" fill="#3562b7" rx="255" ry="14"/><ellipse cx="183" cy="106" fill="#2f4c8c" rx="255" ry="13"/><circle r="1" fill="#295095" transform="matrix(-.04124 -9.435 176.89467 -.77323 139 152)"/><ellipse cx="232" cy="53" fill="#111927" rx="255" ry="9"/><ellipse cx="163" cy="215" fill="#fff" rx="255" ry="4"/><ellipse cx="193" cy="26" fill="#fff" rx="255" ry="18"/><ellipse cx="177" cy="204" fill="#202738" rx="255" ry="7"/><circle r="1" fill="#192947" transform="rotate(-92.1 111.8 -37.7) scale(13.31387 171.49126)"/><ellipse cx="132" cy="211" fill="#c0bfb9" rx="142" ry="1"/><ellipse cx="3" cy="47" rx="15" ry="3"/><ellipse cx="195" cy="237" fill="#fff" rx="255" ry="26"/><circle r="1" fill="#3664b7" transform="matrix(.56797 14.0481 -88.75557 3.5884 51.4 126.8)"/><path fill="#fff" d="M10 0h246v44H10z"/><ellipse cx="120" cy="93" fill="#223a6d" rx="168" ry="8"/><ellipse cx="153" cy="44" fill="#bebfb9" rx="155" ry="1"/><path fill="#2e477e" d="M93 165.8l-27.6 17.3 52 21-96.7-68.8z"/><ellipse cx="255" cy="51" fill="#141b29" rx="135" ry="7"/><ellipse cx="107" cy="115" fill="#2e56a2" rx="255" ry="6"/><path fill="#4276c4" d="M229 119l8 18 34 10z"/><path fill="#315594" d="M27.9 168.2l-31.2-16.5-5.4-20.4 59.4 44.4z"/><path fill="#273860" d="M271 179.1l-68.3-25.6 67.6 51.9-105.1-30.7z"/><path fill="#3f6ec1" d="M82 128l49 21-43-34z"/><ellipse cx="183" cy="83" fill="#1d315b" rx="243" ry="7"/><path fill="#2e55a3" d="M195.6 104.6L271 164l-48.6-17.5-7.8-3.8z"/><path fill="#284177" d="M247.6 123.5l-113.8-39L271 114.8 154.2 77.1z"/><ellipse cx="18" cy="18" fill="#fff" rx="255" ry="26"/><path fill="#2f539e" d="M102 97.3l83.4 64.6-51.6-52.7L67.9 83z"/><path fill="#2a3b64" d="M-3 185.2l68.8 26.1-39.5-42 59.4 33.2z"/><path fill="#294378" d="M222.5 176.3L133 137.7l38.1 40.3-69.6-34.8z"/><path fill="#3b6cc0" d="M53 118.5L41.6 120l9.5 12.7 51.1 19.8z"/><path fill="#fff" d="M-6.5 210.3l-9.5 46.5L271 271l-2.1-43.8z"/><path fill="#3b6abc" d="M25.7 141.1l2.9 12.2-27.9-14 24.5-24.4z"/><path fill="#2a457e" d="M11.4 89.4l4.2 11.3 42.8 20.4-26.5-27.3z"/><circle r="1" fill="#273965" transform="matrix(-45.09153 -24.47677 2.01531 -3.71265 142.2 178.2)"/><ellipse cx="52" cy="58" fill="#131c2f" rx="157" ry="7"/><path fill="#30559a" d="M14.9 131.5l16.4 21.4 47.5 21.7-19.9-22z"/><path fill="#30559c" d="M7.5 106.8l65.4 50.8 51.8 18.3-51.5-32.1z"/><path fill="#2c4781" d="M229 120.1l-12-35 54 21.5-58.6-2.7z"/><circle r="1" fill="#2d467e" transform="rotate(-148.3 80.6 31.3) scale(34.30888 4.28942)"/><circle r="1" fill="#2f55a7" transform="rotate(-46.9 256.1 -152.7) scale(5.29595 23.3817)"/><path fill="#121923" d="M0 206h20v5H0z"/><circle r="1" fill="#2e4f8d" transform="matrix(-2.75163 4.45526 -24.14924 -14.91488 189.7 153.6)"/><path fill="#21304f" d="M266.8 54.6L218.7 78l52.3 2.2-35.1-29.4z"/><path fill="#17233d" d="M0 60h201v13H0z"/><path fill="#2c4275" d="M-6.1 151.9l36.4 22.7-12.2 19.5-36.4-22.7z"/><path fill="#242e4a" d="M20.3 179.8l40.3 17.4 6.3 12.5-59.2-31.5z"/><path fill="#3a6bbe" d="M4 116.6l75.4 41.2-68.7-26.2 10.6-11z"/><path fill="#2a437b" d="M213.3 124.5l-15.4-8.7-56.3-32.9 17.6 22.2z"/><path fill="#283b68" d="M268.3 191.8l-126.4-19.2 68.7 25.4-36.5-42.9z"/><path fill="#232d47" d="M144.2 173.4l56.7 37.7 10.1-10.4-51.4-22.1z"/><path fill="#3158aa" d="M114 114l30 44-72-60z"/><path fill="#294278" d="M83.9 117.8L65.6 93.4 31.9 82.1l29.3 23.2z"/><path fill="#273454" d="M-11.1 193.5l24 12 22.3 3.9-51.2-36.5z"/><path fill="#222c45" d="M132.3 197.7l8.1 10-35-3.9-9.6-23z"/><path fill="#4677c4" d="M168 139.6l-13.2-18.9 3.2-2.3 13.2 18.9z"/><path fill="#0f151f" d="M0 45h60v11H0z"/><path fill="#2f4a84" d="M243.7 84.4l27.3.6-30.8 25.4 30.8 6.2z"/><path fill="#20283d" d="M186 202l-60-22 38 27z"/><path fill="#2d4479" d="M123.3 116.1l-3 .4-38.1-15.2-9.8-19.4z"/><path fill="#2e4e8c" d="M187.4 130.9l62.7 28.5-4.4 9.3-1.8 2.7z"/><path fill="#273a68" d="M119.4 202.4L35 155.3l-2.5 7.9 48.2 10.5z"/><path fill="#3866ba" d="M111.6 118.4l1 7.1 47.6 23-35.2-31.1z"/><ellipse cx="216" cy="47" fill="#0c131a" rx="255" ry="2"/><path fill="#283c6b" d="M57.2 152.4l51.7 19.7 21.9-.1 3.4 23.8z"/><circle r="1" fill="#1d2e52" transform="matrix(-31.61284 -19.98481 2.41325 -3.81738 184.3 77.8)"/><path fill="#182847" d="M74 98.1L13.5 70.3l-1.8-14.7L76.8 94z"/><path fill="#2f55a3" d="M170 128l-25-30 42 20z"/><ellipse cx="255" cy="18" fill="#fff" rx="17" ry="27"/><path fill="#242f4c" d="M41.1 174.4l54.5 36.2 12.9-2.3-22-15.2z"/><path fill="#182c50" d="M46.4 101L-9.2 73.6 10 68.3l13 8.3z"/><path fill="#305bb1" d="M56 150l-6-33-40-15z"/><path fill="#1b212e" d="M257.5 205.2l-1.1 2.8-36-15.2 1.2-2.8z"/><path fill="#2b4277" d="M-3.6 154.6l45.9 19.3 16.2 19.2-57-20.2z"/><path fill="#2d4d8d" d="M99.5 145.8l78.3 22-43.7-31.9 7 36.2z"/><path fill="#1a233a" d="M201.6 62.6l40.9 16.2-19-22.7-28.7-8z"/><path fill="#1b2b4c" d="M50.8 67.1l97 27.6-71.7-41.9 34.4 45.6z"/><path fill="#3159a7" d="M104.1 142.1L35.8 94.4l66.5 63.6-1.3-25.9z"/><ellipse cx="246" cy="211" fill="#c6c8cb" rx="255" ry="1"/><path fill="#407cd1" d="M249 115l22-2v18z"/></g></g></svg>