<svg xmlns="http://www.w3.org/2000/svg" viewBox="0 0 1120 1400"><defs/><filter id="a"><feGaussianBlur stdDeviation="12"/></filter><rect width="100%" height="100%" fill="#4c5233"/><g filter="url(#a)"><g fill-opacity=".5" transform="translate(2.7 2.7) scale(5.46875)"><circle cx="195" cy="98" r="233" fill="#fff"/><circle cx="61" r="142" fill="#fff"/><path fill="#00374d" d="M219 64l-45 144-146 8z"/><path d="M37.1 135l34 56.6L49 205l-34-56.6z"/><ellipse cx="192" cy="235" fill="#fff" rx="92" ry="31"/><circle r="1" fill="#fff" transform="matrix(-17.71337 5.9612 -27.96928 -83.10903 14 199)"/><circle r="1" transform="matrix(60.88743 75.03056 -6.80223 5.52002 79.2 224.6)"/><circle r="1" fill="#3e7d90" transform="rotate(-33.9 254.7 -178.3) scale(74.654 19.26218)"/><circle r="1" fill="#fff" transform="matrix(144.8655 -87.73367 32.30508 53.34202 102.4 45.7)"/><path d="M54.4-1.4L34.6 18.4l-17-17 19.8-19.8z"/><path fill="#fff" d="M39 99l35 98 19-20z"/><circle r="1" fill="#0d2727" transform="rotate(57.7 -90.6 207.5) scale(10.14586 131.24902)"/><circle r="1" fill="#fff" transform="matrix(-19.3873 -21.38121 13.59218 -12.32464 68.3 254.3)"/><ellipse cx="129" cy="210" fill="#80acb4" rx="50" ry="14"/><circle r="1" fill="#fff" transform="rotate(-116.5 173 59.5) scale(39.39388 90.37632)"/><circle r="1" fill="#5c8e9a" transform="matrix(48.4691 -39.51415 15.33918 18.81544 180 178.5)"/><path fill="#021300" d="M12 147l72 66-40-74z"/><path fill="#fffffc" d="M41 197l-57-95 34 148z"/><path fill="#fffff6" d="M219 271l-29.2-42-105.3-10.8 24.3 30.6z"/><circle cx="34" r="12"/><path fill="#faf3e7" d="M219-10.4L39.5 10.2l-1.1 127.2 19.5 23.2z"/><path fill="#050809" d="M57 202l79-12 37-39z"/><ellipse cx="194" cy="145" rx="32" ry="5"/><path fill="#fff" d="M71 170h19v20H71z"/><circle r="1" fill="#00000d" transform="matrix(-13.99851 8.5783 -24.819 -40.50094 -.1 252.8)"/><circle r="1" fill="#639098" transform="matrix(-19.3579 -10.7204 23.10687 -41.72426 123.6 138.2)"/><path fill="#fdfcf0" d="M207 58.5l-64.9 24.6 57.6-87.7 18.6 22z"/><circle r="1" fill="#172c06" transform="matrix(5.93332 -5.305 19.92563 22.2856 90.2 241.1)"/><circle r="1" fill="#77999b" transform="rotate(63.7 12.2 176.1) scale(11.66905 32.46355)"/><path fill="#83bccc" d="M194.6 144.9l-9-8 13.8-15.8 9 8z"/><path fill="#fffffd" d="M53.1 278.8l-20.6-29.5 34.4-24 20.6 29.4z"/><path fill="#fffdf4" d="M-16.3 19.4L6.7-7l31.6 27.6-23 26.4z"/><path fill="#769ba1" d="M219 150.4L74.4 210.6l51.9 14.2 35.5-5z"/><path fill="#6f9297" d="M67 144l96-69 9 50z"/><path fill="#5191a5" d="M35 216h25v16H35z"/><path fill="#354320" d="M107.7 250.8l-45-67.1-27.1 2.9 25.7 37.9z"/><path fill="#99b6ba" d="M175.8 192.8l16.5-7.4 26.7-31.1-41.4-2.4z"/><path fill="#1a2617" d="M64.3 180.6l-4.8-20-19.1-17.7-12.8 16.4z"/><path d="M-1-14l59-2-21 30z"/><path fill="#f8f7f0" d="M76 205l70 32-40 4z"/><path fill="#5d8a93" d="M62.6 219.4l-32.1 25.9-20.2 8 36-44.5z"/><path fill="#f4eee4" d="M135.7-16L-16 30.3v122.6l83.7-19.5z"/><path fill="#fafaf0" d="M64.7 176.7l23.6 10.8-3.9-26.6-40.3-31.2z"/><path fill="#3c737c" d="M91 185l-8-34 41 22z"/><ellipse cx="16" cy="202" fill="#f5f3e8" rx="22" ry="33"/><circle r="1" fill="#7b9fa4" transform="matrix(-76.14982 33.62766 -6.98993 -15.8287 195 81.5)"/><path fill="#121e1e" d="M153 151l41-30-39 51z"/><path fill="#2b3924" d="M41 210.3l1.6-16.4-35-52.7 81.8 65.3z"/><path fill="#fefbf0" d="M219 257l-10-68-58 35z"/><path fill="#76979d" d="M92.2 177.6l-23-35.5L187 83.2l-85.2 84.1z"/><circle r="1" fill="#efebe2" transform="rotate(142.2 26.1 15.4) scale(30.49768 11.36425)"/><circle r="1" fill="#3b7576" transform="matrix(4.98762 5.96484 -41.41599 34.63083 154.2 142.9)"/><path fill="#4a7a83" d="M179 147l-55 56 44 4z"/><path fill="#7e9c9f" d="M80 213.4l1.4-10 36.6 5.2-1.4 10z"/><path fill="#0a1113" d="M77 206l36-15-20-9z"/><path fill="#eae9e0" d="M40.8 195.2l-55.3-92.4 31.1 148.4L35.1 222z"/><path fill="#27321d" d="M97 268.6l-12.6-52.4 14.7 25.4 38.1 29.4z"/><path fill="#57838b" d="M30 245.2L17.8 248l32.7-38.2-8.8-13.2z"/><path fill="#fffef8" d="M219 48l-30 16 24-80z"/><path fill="#f6f4e9" d="M46 235l-25 18 91 8z"/><path fill="#05201b" d="M-16 260l42 2-26-38z"/><path fill="#101d1e" d="M160.2 150.8l41.7-35.4 13.1-10.2-56.6 54.1z"/><path fill="#f1ede5" d="M55.9-8.9l-71.9 157 41.4-3.1 69.4-30.4z"/><ellipse cx="203" cy="145" fill="#040d0f" rx="28" ry="4"/><path fill="#f5f3ea" d="M127 270l92-72-113 39z"/><path fill="#4f8391" d="M129.3 133.8L219.9 68l8.8 12.2-90.6 65.8z"/><path fill="#efede5" d="M72.5 146.4l4.3 38-34.4-43.9-25.8-78.6z"/><circle r="1" fill="#6d949c" transform="matrix(-3.10734 -5.31757 44.20777 -25.83293 195 191.5)"/><path fill="#7d9b9d" d="M144.4 195.8l-69.9 10.6 41.7 16.6 32 .4z"/><path fill="#ecebe3" d="M-10.9 227.2L44.6 201 9.5 144.1l24.8-72.9z"/><circle r="1" fill="#1b261b" transform="matrix(3.9663 -3.04345 10.84012 14.12712 46.7 154.4)"/><path fill="#121a1c" d="M136.8 184.4l47.3-45.5L72.6 204l4.4 2.2z"/><path fill="#58848f" d="M41 213l27 10-46 24z"/><path fill="#729aa1" d="M206.8 135l-8.6 49.1 16-37.5-36.8-8.9z"/><path fill="#f3f1e6" d="M68 158h14v30H68z"/><path fill="#344128" d="M76.8 192.3l11.2 55-37.7-38.8-12.3-5.4z"/><path fill="#222e1a" d="M34.3 183.7l17.3 25.7L76 197.3l-48.6-52.2z"/><path fill="#417071" d="M124 172l-31 15-5-21z"/><path fill="#7b9a9d" d="M113 159l-19-35 41-30z"/><circle r="1" fill="#ecebe0" transform="matrix(-6.68759 5.25484 -16.60275 -21.12954 79.2 252.2)"/><circle r="1" fill="#ebeae2" transform="matrix(-12.8483 9.96616 -13.02105 -16.78664 14.8 19.7)"/><path fill="#040f08" d="M40 6L7-4l57-7z"/><path fill="#f1f0e7" d="M98.5 236.8l79.7 19.3-75.4-39.9-9.1 13.3z"/><path fill="#6b8a8f" d="M78 156l-9.3-15.2 32.2-9.6-4.3-6.3z"/><path fill="#f1ede5" d="M-8.4-5.2L96.5 109.1 58.3 159-16 76.3z"/><circle r="1" fill="#f1ece3" transform="matrix(-28.6191 29.9984 -15.32382 -14.61925 57.3 24)"/><circle r="1" fill="#333e27" transform="matrix(3.6315 -3.97905 14.31615 13.06571 104.7 251)"/><path fill="#eaeae2" d="M36.7 202.7l-48.1-3 29.5 50.9 19-32.1z"/><path fill="#52818b" d="M91.6 202.3l22.2-2.8 34.1 3 23.9-30z"/><path fill="#407273" d="M199.4 117.5l-86.7 63.8 103-98-9 62.2z"/><path fill="#5e8b8d" d="M77 190h8v4h-8z"/><path fill="#000802" d="M36.4 4.3l3.3 2.3-6.1 9-3.3-2.2z"/><path fill="#faf9f0" d="M100 230l6-12-21-3z"/><path fill="#25311f" d="M57.8 161.2l13.5 33 14.5 8.9-43.1 2.1z"/><circle cx="63" cy="242" r="14" fill="#efeee5"/><circle cx="35" cy="151" r="9" fill="#0e1716"/><path fill="#f4f6ed" d="M28 262l14-23-23 12z"/><circle r="1" fill="#f1efe6" transform="rotate(-44.2 137.4 -234.2) scale(64.24061 17.50601)"/><circle r="1" fill="#87a7ac" transform="rotate(84.7 10 193.8) scale(16.85767 25.96797)"/><path fill="#3a6863" d="M177 147l-13 26-22 9z"/></g></g></svg>