<svg xmlns="http://www.w3.org/2000/svg" viewBox="0 0 1400 933"><defs/><filter id="a"><feGaussianBlur stdDeviation="12"/></filter><rect width="100%" height="100%" fill="#6b543a"/><g filter="url(#a)"><g fill-opacity=".5" transform="translate(2.7 2.7) scale(5.46875)"><circle r="1" fill="#fff" transform="matrix(53.83102 -33.35697 41.30065 66.65042 24 49.4)"/><circle r="1" fill="#cfe4fd" transform="rotate(175.4 88 86.7) scale(196.01475 40.20009)"/><circle r="1" fill="#c2cbd3" transform="matrix(35.59932 30.87393 -15.92094 18.3577 135.6 135)"/><path fill="#2a0000" d="M0 130h116v22H0z"/><circle r="1" fill="#edffff" transform="matrix(-16.30376 -50.78027 19.31741 -6.20214 42.5 23)"/><path fill="#461c00" d="M46 76h28v30H46z"/><ellipse cx="122" fill="#88989d" rx="76" ry="31"/><circle r="1" fill="#172338" transform="matrix(94.19593 39.50348 -8.25444 19.6827 239.9 111.3)"/><path fill="#140600" d="M136 20h71v27h-71z"/><ellipse cx="3" cy="61" fill="#fff" rx="4" ry="64"/><circle r="1" fill="#e12b3d" transform="rotate(-98.7 68.7 46.5) scale(14.17983 53.65403)"/><path fill="#a8b4ab" d="M271-12l-67 75 59-13z"/><path fill="#000002" d="M251 60.5h8v109h-8z"/><path fill="#8f9490" d="M101 47h50v95h-50z"/><ellipse cx="191" cy="139" fill="#b4b8c1" rx="23" ry="33"/><circle r="1" fill="#d0d7db" transform="matrix(90.70226 -9.2151 1.30848 12.87913 49.7 165.4)"/><path fill="#201d15" d="M130 30h12v91h-12z"/><path fill="#3a0000" d="M-16 147l108.3-30.9 11.8 36.6-23.4-2.9z"/><path fill="#061120" d="M151 75h25v48h-25z"/><path fill="#00070b" d="M247.8 1.8l-9.3 66.3 29.8 39.8L248 57.4z"/><path fill="#bca98a" d="M212.4 90l38-2.5-49-30.4 41.9-8.6z"/><ellipse cx="174" cy="58" fill="#c6b1a9" rx="17" ry="8"/><circle r="1" fill="#787f79" transform="matrix(-3.36362 -20.5404 45.36873 -7.42941 113.1 19.1)"/><path fill="#e1e0db" d="M97 106h32v22H97z"/><path fill="#cdcae0" d="M150 115h-8V63h8z"/><path fill="#786d67" d="M206.5 114.7l48.6 50.5-111.3-47.5L271 148.8z"/><path fill="#bed9ef" d="M78 78h13v24H78z"/><path fill="#010607" d="M249 89l-73 3 58 30z"/><path fill="#010400" d="M87 9h45v5H87z"/><path fill="#d6a770" d="M239 112h10v38h-10z"/><path fill="#e2eaf6" d="M21 0h37v54H21z"/><ellipse cx="201" cy="87" fill="#a0a7b2" rx="30" ry="3"/><path fill="#161710" d="M209.5-5.2l8.8 1.7-13.8 70.7-8.8-1.7z"/><path fill="#f8ffff" d="M0 0h6v111H0z"/><path fill="#a3abc3" d="M188 106h41v4h-41z"/><path fill="#000204" d="M140 71.1l-50.2 2.8 29.3 1.6 19.7 12.6z"/><path fill="#748089" d="M6.3 12.7l33.2.8 7.5 5.6-34.7 5z"/><path fill="#a6b6ce" d="M249 0h7v56h-7z"/><path d="M0 152h30v4H0z"/><path fill="#dad8f4" d="M209 123h32v5h-32z"/><path fill="#a2b59e" d="M125.3 73l-18-1 1.4-27 18 1z"/><path fill="#f9dea9" d="M241 33h4v21h-4z"/><path fill="#7e898c" d="M70 0h24v65H70z"/><path fill="#818e95" d="M8.7 75.3L4.3-8.5l15-.8 4.4 83.8z"/><path fill="#000200" d="M90 0h2v71h-2z"/><path d="M251 56h-20l20 24z"/><path fill="#1a232c" d="M84 103h45v3H84z"/><path fill="#fff0fe" d="M182 118l-8-3 22-9z"/><path fill="#b5b5b4" d="M113 122h59v48h-59z"/><path fill="#040006" d="M180 115.5l-7.6-7.9L184 96.5l7.7 7.9z"/><ellipse cx="24" cy="83" fill="#ebe4c5" rx="6" ry="25"/><path fill="#475551" d="M92 136h29v17H92z"/><circle r="1" fill="#000003" transform="rotate(23.9 -17.4 375.9) scale(13.53074 8.16695)"/><path fill="#fff1ed" d="M202 128l17 9-2-16z"/><path fill="#ba8e7c" d="M186 61l22 11-1 11z"/><path fill="#e9999c" d="M57 106l-2 16-57-13z"/><path fill="#dacdd7" d="M124 106h17v6h-17z"/><path fill="#525f4b" d="M210 0h22v49h-22z"/><path fill="#000005" d="M252 125h4v45h-4z"/><path fill="#ceaf7a" d="M214.3 50.6L231.2 87l-5.5 2.5L208.8 53z"/><ellipse cx="95" cy="16" fill="#17252d" rx="2" ry="103"/><path fill="#f3faff" d="M-8 185l-3-29 27 3z"/><path fill="#f2fbf6" d="M92 22l8 16-7-6z"/><path fill="#220c08" d="M60 148l49-8-26-26z"/><ellipse cx="222" cy="43" rx="25" ry="1"/><path fill="#6a7274" d="M39 55l16 28-26-24z"/><path fill="#8a1615" d="M-5 128l7 24 82-31z"/><ellipse cx="140" fill="#98948a" rx="46" ry="11"/><path fill="#382314" d="M226.7 98.6l-11.4-27.5-19.7-40.5-6.4 16.6z"/><path fill="#bec1c2" d="M232 177.7l-76.9-12 1.6-43.4 52.2 35.3z"/><path fill="#a5afb4" d="M73 48h17v56H73z"/><path fill="#472904" d="M157 17h19v32h-19z"/><path fill="#b6a99c" d="M172.7 52.9l5.2 14.9-14.3-8.8-13.5-12.9z"/><path fill="#b5894e" d="M104 78h19v26h-19z"/><ellipse cx="118" cy="43" fill="#00030b" rx="26" ry="2"/><path fill="#ab8d5b" d="M31 77h15v27H31z"/><path fill="#101518" d="M231 121l20-38-49 38z"/><path fill="#6f7a86" d="M252.6 174.3l-2.8-94.6-22 1.7 19.3 3.5z"/><path fill="#a298a7" d="M254 58h2v24h-2z"/><path fill="#b4b8b8" d="M39 150h35v20H39z"/><ellipse cx="64" cy="21" fill="#b6bbc4" rx="5" ry="54"/><path fill="#908879" d="M158 7.2l-2.2 21.9-21.9-2.3 2.3-21.9z"/><path fill="#e0b27c" d="M238 147l-29-15 35 3z"/><path d="M206 12h44v2h-44z"/><path fill="#795e31" d="M45 74h25v31H45z"/><path fill="#ffffe7" d="M175 20l8-4 1 3z"/><path fill="#38281a" d="M152 70h42v17h-42z"/><path fill="#7a4d2a" d="M206 85l-31-36 9 33z"/><ellipse cx="246" cy="2" rx="1" ry="79"/><ellipse cx="94" cy="45" fill="#0a110f" rx="1" ry="64"/><circle r="1" fill="#65717a" transform="matrix(-7.0435 4.19923 -7.38472 -12.38663 241 160.5)"/><path fill="#1c1f22" d="M163.4 100.4l-12.3 22.1 26.5 1.4-17.7-38.4z"/><path fill="#ccd0d5" d="M111.4 186.9l-15.7-18.1 24.9-21.7 15.7 18.1z"/><circle r="1" fill="#656056" transform="matrix(3.05411 -7.12578 20.65027 8.85072 141 55.9)"/><path fill="#d54a41" d="M0 114h37v14H0z"/><circle r="1" fill="#2a3233" transform="rotate(90.4 54.7 75.2) scale(89.47574 1)"/><path fill="#dadfe1" d="M113 128H94l9-9z"/><ellipse cx="99" cy="78" fill="#4c422a" rx="4" ry="32"/><path fill="#e1e4db" d="M26.6 77.3l13.8 1.8-5.6-15-13.7-1.4z"/><path fill="#7e443f" d="M218 127h24v8h-24z"/></g></g></svg>