<svg xmlns="http://www.w3.org/2000/svg" viewBox="0 0 1121 1400"><defs/><filter id="a"><feGaussianBlur stdDeviation="12"/></filter><rect width="100%" height="100%" fill="#4b4039"/><g filter="url(#a)"><g fill-opacity=".5" transform="translate(2.7 2.7) scale(5.46875)"><circle r="1" fill="#f3f6f6" transform="matrix(-161.62709 -124.46961 117.95872 -153.17252 128.6 162.6)"/><circle r="1" fill="#170b04" transform="matrix(29.7681 2.53817 -5.85025 68.61278 193 109.4)"/><circle r="1" fill="#fff" transform="rotate(8.7 -1319.9 396.9) scale(27.03972 85.25541)"/><ellipse cx="156" cy="217" fill="#f3f7f3" rx="29" ry="79"/><circle r="1" fill="#271309" transform="matrix(19.5142 5.74296 -12.17267 41.36194 0 85)"/><path fill="#fff" d="M147.4 42.6L140.2-16l70.4-8.6 7.2 58.6z"/><ellipse cx="104" cy="109" fill="#64666c" rx="28" ry="158"/><circle r="1" fill="#fffff8" transform="matrix(-51.85637 -.39296 .07245 -9.56099 17.8 14.1)"/><path d="M21 185l3 11-40-11z"/><ellipse cx="24" cy="252" fill="#e4e7e3" rx="56" ry="30"/><circle r="1" fill="#373121" transform="matrix(-.05373 -2.15537 66.18916 -1.64993 186.2 28)"/><ellipse cx="164" cy="116" fill="#3f3616" rx="17" ry="26"/><path fill="#fadda5" d="M143 17l27 49-10 65z"/><circle r="1" fill="#846a4c" transform="rotate(3.3 50.4 1740.7) scale(51.21464 29.05594)"/><path fill="#1a130c" d="M115 197.3l-8.4 55.7 1.7 18H86.4z"/><ellipse cx="119" cy="52" fill="#beb6c4" rx="17" ry="28"/><path fill="#ebe5e2" d="M-16 141l9-34 77 94z"/><path fill="#d2d3d1" d="M185 183l35 87-117-24z"/><path fill="#12151d" d="M34 125l16-4L3 93z"/><circle r="1" fill="#5e663a" transform="matrix(-10.01779 .15581 -.53576 -34.44618 123 179)"/><circle r="1" fill="#fcf0df" transform="matrix(-.45094 -5.56027 33.92798 -2.75155 23.6 36)"/><path fill="#86746a" d="M178.1 84.8l-14.8-41.2 56.7-9.2-2.1 27.4z"/><path fill="#060000" d="M87.6 3.1l-7.9 23.5 13-3 9.2-39.6z"/><path fill="#fff" d="M35 71h22v11H35zm109-61h61v16h-61z"/><path fill="#5e5a55" d="M36 85h32v26H36z"/><ellipse cx="19" cy="26" fill="#0a110f" rx="39" ry="3"/><ellipse cx="32" cy="46" fill="#7c7358" rx="85" ry="8"/><path fill="#d4d9e2" d="M40 89.8l-10.2 33.9-14.7-38.3 24.2 7.3z"/><circle r="1" transform="matrix(-8.44665 1.33782 -3.02294 -19.0861 204 147.5)"/><ellipse cx="78" cy="216" fill="#4c5589" rx="10" ry="27"/><path fill="#d4c57e" d="M206.5 190.2l-15.2-50.4-.9 42.8 4.7.6z"/><path fill="#594426" d="M126 0h14v36h-14z"/><path fill="#00020a" d="M-6.9 102.9l25.2-20.4-28.5-31.2-4.6 62.2z"/><path fill="#101d27" d="M220 201l-26-19 7 23z"/><path fill="#c9c6bd" d="M172.5 143.4l12.4 5.6-49.6 36.7-11.2-46.5z"/><path fill="#171514" d="M1 224l5-38-16-9z"/><path fill="#735e68" d="M66 148.6l1.8-44 1.4-3.9L85.1 152z"/><circle r="1" fill="#e6e9e7" transform="matrix(5.64568 -27.674 24.1609 4.92899 54.7 171.4)"/><ellipse cx="186" cy="153" fill="#060e0f" rx="5" ry="25"/><path fill="#c8a13a" d="M151.7 89.9l27.7-17.3-10.2 23.5-12.4 23.2z"/><path fill="#c4b7a4" d="M134-16L78.7 44l39-34.2-4.2 36.7z"/><path fill="#0b0c17" d="M197 83l-19-5-20 55z"/><path fill="#989aa3" d="M184.3 38.2l15.9 39.2-15.7 2.6-5-13.5z"/><circle r="1" fill="#7a81ad" transform="matrix(-23.90654 52.5564 -13.21905 -6.013 100.8 106.9)"/><path fill="#bdabc3" d="M95.7 196.2l-6.5 9.2 9.1 36.1 6.1-72.9z"/><ellipse cx="70" cy="48" fill="#a89577" rx="15" ry="69"/><path fill="#c2bebf" d="M8 101l63 3-56-18z"/><path fill="#edc5a2" d="M128 40h10v63h-10z"/><ellipse cx="20" cy="220" fill="#d0d2cf" rx="14" ry="27"/><path d="M44 97l-8-11h13z"/><path fill="#1b1b18" d="M190.2 180.6l-14.6-14.4-7.7-4.3 22.2-9.7z"/><path fill="#eefaff" d="M160.6 125.8L147 129l-1.6-6.8L159 119z"/><path fill="#5d412f" d="M175 93l-8-49 15-3z"/><path fill="#e9e3d9" d="M1 5h57v20H1z"/><path fill="#ced0cc" d="M113 226l-8 41 115-5z"/><path fill="#101420" d="M178 134l28-41-52 41z"/><path fill="#d6d5da" d="M8 178l13.2-65.1-21-9.6 25.2 25.8z"/><path fill="#d3b299" d="M106 11l4 38-19-39z"/><path fill="#5c6697" d="M155.8 97.9l-22.4-55.3 14.1 81.7-6.9-7.8z"/><path fill="#000001" d="M93.5 241.7l9.8-2 5.2 26.6-9.8 2z"/><path fill="#d4d5d0" d="M9.5 181.9l16.6 8.3L80.8 271 47.3 134.5z"/><path fill="#050c21" d="M16.3 101.1l7.7 20.5 3.6-16.9-15.1 5.3z"/><ellipse cx="177" cy="1" fill="#959c8f" rx="41" ry="5"/><path fill="#f1f6f8" d="M158 48h8v36h-8z"/><path fill="#4d4426" d="M128 213l-26.8 11.3-3.1-7.3 26.7-11.3z"/><ellipse cx="171" cy="36" fill="#fff" rx="21" ry="5"/><path fill="#020c0f" d="M38 0h17v4H38z"/><path fill="#110600" d="M118 23l-10 2 6-21z"/><path fill="#604f42" d="M43.3 39.1L3.9 79.9l24.9 6L19 41.6z"/><path fill="#e6d4ca" d="M146 35l-36-2 34 19z"/><path fill="#9398c6" d="M118.6 197.4l-7.8 17.4-27.4-12.2 7.8-17.4z"/><path fill="#401f11" d="M9 112.3l9 25-7.4-13.4-5-2.8z"/><path fill="#dad1cd" d="M21.7 99.9L78 122.4l23.3-6.4-40.9 7z"/><circle r="1" fill="#908e8d" transform="matrix(-1.96843 -3.72818 11.16213 -5.89346 191.9 124.6)"/><path fill="#d7d5dd" d="M85.6 236.1l8-.2.8 24-8 .2z"/><path fill="#404037" d="M31 161l-13-1 7-5z"/><ellipse cx="178" cy="28" fill="#222b32" rx="28" ry="2"/><circle r="1" fill="#6d7559" transform="rotate(-171.5 60.2 71.7) scale(15.08716 22.18197)"/><path d="M33 59l4 1-3 7z"/><path fill="#8f0f24" d="M2 131v16l-18-23z"/><circle r="1" fill="#1a110f" transform="rotate(95.1 -80.8 100.8) scale(3.3703 13.73539)"/><circle r="1" fill="#876e4c" transform="matrix(-2.41287 10.76014 -12.1535 -2.72531 133.8 26.9)"/><path fill="#fffffd" d="M154 8h51v17h-51z"/><path fill="#d8d8d2" d="M162.5 207.1L130 148.5l17.5-9.6 32.5 58.6z"/><path fill="#000001" d="M150 102h4v20h-4z"/><path fill="#0c0c0a" d="M32 114l8 16-1-23z"/><path fill="#eeece4" d="M0 30h56v7H0z"/><path fill="#836238" d="M136 159l3 11 6-10z"/><path fill="#c9ae59" d="M184 89l-19 5-15-12z"/><path fill="#62666a" d="M125 55l-7 41 16 16z"/><circle r="1" fill="#3c382f" transform="matrix(-16.3877 -1.98313 .17965 -1.48451 55.8 110.2)"/><path fill="#fffff6" d="M58 69L45 86l1-20z"/><path fill="#89746c" d="M-16 98.4v-2.3l37.1 3 10.6-10.5z"/><circle r="1" fill="#e2e6ea" transform="matrix(-2.03088 19.52745 -3.10416 -.32284 30.1 103.8)"/><path fill="#192023" d="M14.9 162l4 4.5-5.8 5.4-4-4.4z"/><path fill="#d1d0c9" d="M195 108h10v4h-10z"/><circle cx="187" cy="226" r="25" fill="#bcbbb5"/><circle r="1" fill="#7f7268" transform="matrix(9.5882 -6.78882 5.38309 7.60281 64.3 80.8)"/><path fill="#a3928d" d="M177 112h10l1-18z"/></g></g></svg>