<svg xmlns="http://www.w3.org/2000/svg" viewBox="0 0 1120 1400"><defs/><filter id="prefix__a"><feGaussianBlur stdDeviation="12"/></filter><rect width="100%" height="100%" fill="#61473d"/><g filter="url(#prefix__a)"><g transform="translate(2.7 2.7) scale(5.46875)"><circle cx="78" cy="120" r="205" fill="#fff" fill-opacity=".5"/><circle cx="81" cy="223" r="255" fill="#fff" fill-opacity=".5"/><circle r="1" fill="#8f3723" fill-opacity=".5" transform="matrix(45.97134 -.82297 1.3855 77.39506 100 118.4)"/><ellipse cx="180" cy="132" fill="#fff" fill-opacity=".5" rx="36" ry="255"/><ellipse cx="20" cy="139" fill="#fff" fill-opacity=".5" rx="35" ry="255"/><circle r="1" fill="#fff" fill-opacity=".5" transform="rotate(-.5 27532 -8410.4) scale(203 36.04442)"/><ellipse cx="58" cy="19" fill="#fff" fill-opacity=".5" rx="203" ry="27"/><path fill="#ab7668" fill-opacity=".5" d="M55 118h92v79H55z"/><path fill="#a87365" fill-opacity=".5" d="M42 45h102v35H42z"/><ellipse cx="174" cy="126" fill="#fff" fill-opacity=".5" rx="30" ry="255"/><ellipse cx="20" cy="94" fill="#fff" fill-opacity=".5" rx="35" ry="174"/><ellipse cx="93" cy="229" fill="#fff" fill-opacity=".5" rx="127" ry="36"/><path fill="#78463d" fill-opacity=".5" d="M160.7 221.5l-8.2-25.6-8-3.9 14.1 37.2z"/><ellipse cx="71" cy="9" fill="#fff" fill-opacity=".5" rx="149" ry="34"/><path fill="#7d543c" fill-opacity=".5" d="M39.1 218l16.1-29.2-7.3 33.2-1.1-1.9z"/><path fill="#a07368" fill-opacity=".5" d="M52.4 45.1l109 20.9-17.9-27.5L40.9 71.6z"/><path fill="#af7c70" fill-opacity=".5" d="M56 131h88v62H56z"/><ellipse cx="187" cy="136" fill="#fff" fill-opacity=".5" rx="42" ry="98"/><circle r="1" fill="#fff" fill-opacity=".5" transform="matrix(-12.12884 -94.8973 33.94559 -4.33859 16.8 127.7)"/><circle r="1" fill="#fff" fill-opacity=".5" transform="matrix(-65.67708 17.68152 -6.27523 -23.30903 88.5 228.4)"/><circle r="1" fill="#fff" fill-opacity=".5" transform="matrix(138.60072 -1.4934 .26095 24.2188 99.2 22.3)"/><path fill="#b28177" fill-opacity=".5" d="M55 58h89v136H55z"/><path fill="#997566" fill-opacity=".5" d="M162.6 69l-2.1 2-27.1-28 2.1-2z"/><path fill="#9d756b" fill-opacity=".5" d="M52.6 49.8l47.3-4.3-45.7 14.1-20 35.2z"/><path fill="#fff" fill-opacity=".5" d="M157 69l-11 35-3-54z"/><path fill="#855848" fill-opacity=".5" d="M159 210l-12-20h-9z"/><circle r="1" fill="#fff" fill-opacity=".5" transform="matrix(8.10216 -41.32606 55.49655 10.88035 98.2 242.6)"/><path fill="#fff" fill-opacity=".5" d="M52 54h3v128h-3z"/><circle r="1" fill="#7f564f" fill-opacity=".5" transform="rotate(-161.1 29.5 27.2) scale(2.0781 19.78806)"/><path fill="#fff" fill-opacity=".5" d="M23.9 271L38.8 89.3l15.1-75.1L-16 61.8z"/><circle r="1" fill="#fff" fill-opacity=".5" transform="matrix(27.96707 6.6627 -15.11499 63.44607 177 144)"/><path fill="#b5877a" fill-opacity=".5" d="M56 44h88v47H56z"/><path fill="#703934" fill-opacity=".5" d="M165.3 81.1l-19.5-33.7.9-.5 19.5 33.7z"/><path fill="#fff" fill-opacity=".5" d="M54 98l1-42-19 46zM0 164h56v27H0zM-16 15.7L202.5-16 219 132.7l-76.2-89.4z"/><path fill="#fff" fill-opacity=".5" d="M57.6 42.8l161.4-14L-3.5-16l5.3 118.8z"/><path fill="#aa776c" fill-opacity=".5" d="M88.7 175.2l-38.8 25.3 10.4-22.2-2.8-43.3z"/><path fill="#fff" fill-opacity=".5" d="M146 67h58v124h-58z"/><path fill="#934243" fill-opacity=".5" d="M108.1 189.6l26.3-36.9 7-14.1-32.2 47.1z"/><path fill="#ccd4bf" fill-opacity=".5" d="M113 194h30v8h-30z"/><path fill="#d5ddd0" fill-opacity=".5" d="M167.2 39.7l-93.9 3.7-47.6.9 66.5 3.3z"/><path fill="#a66862" fill-opacity=".5" d="M68.8 67.4l54.6 49.1L55.2 47l-.8 40.7z"/><path fill="#5f1e16" fill-opacity=".5" d="M50 196l-2 5 1 5z"/><path fill="#6d3b30" fill-opacity=".5" d="M155 210h3v15h-3z"/><circle r="1" fill="#fff" fill-opacity=".5" transform="matrix(11.68878 18.29283 -36.55563 23.35837 116.7 231.6)"/><path fill="#663433" fill-opacity=".5" d="M141.5 41.6l11.8 16.2-.8.6-11.8-16.2z"/><path fill="#fff" fill-opacity=".5" d="M189.1 138.1l-41.4 28.3-4.2-120 6.2 12.2z"/><ellipse cx="20" cy="164" fill="#fff" fill-opacity=".5" rx="33" ry="67"/><path fill="#9f5856" fill-opacity=".5" d="M139.7 48.4l-37 44 33.9-34.7 4.2.7z"/><path fill="#621d1f" fill-opacity=".5" d="M146.6 195.9l.8-.5 12 20.7-.8.5z"/><circle r="1" fill="#9c5151" fill-opacity=".5" transform="matrix(32.78241 -32.8449 .70778 .70643 88.8 105)"/><path fill="#9f7674" fill-opacity=".5" d="M165.8 82.3l-1 .4-4.6-11 1-.4z"/><ellipse cx="99" cy="145" fill="#b7887c" fill-opacity=".5" rx="27" ry="35"/><path fill="#ac7d71" fill-opacity=".5" d="M138 124h7v70h-7z"/><path fill="#8d393f" fill-opacity=".5" d="M97.6 92.9l.7-.7 46 43-.6.6z"/><path fill="#7a4e46" fill-opacity=".5" d="M41.8 216.2l2.4-2.3 7-16.8-6.7 21.1z"/><ellipse cx="190" cy="216" fill="#fff" fill-opacity=".5" rx="31" ry="255"/><path fill="#e5dfd8" fill-opacity=".5" d="M154.6 200.4l5.1 4.8L162 236l-4.2-23.2z"/><path fill="#fafefa" fill-opacity=".5" d="M52.2 51.6h1l2.6 50.8h-1z"/><path fill="#794640" fill-opacity=".5" d="M156 213h3v10h-3z"/><ellipse cx="50" cy="89" fill="#fff" fill-opacity=".5" rx="4" ry="23"/><path fill="#825b4b" fill-opacity=".5" d="M47 216l-2-5 5-8z"/><path fill="#fff" fill-opacity=".5" d="M175.3 64l-10.8 7.3L132.7 24l10.8-7.3z"/><path fill="none" stroke="#865953" stroke-opacity=".5" stroke-width=".5" d="M59 47.9Q45 47.2 43 80"/><path fill="#fff" fill-opacity=".5" d="M55.8 34.1L-16 64l71.3 67-16.7-54.6zM58 202h92v54H58z"/><path fill="#a67969" fill-opacity=".5" d="M57 182h85v11H57z"/><path fill="#fff" fill-opacity=".5" d="M57 187.2l-2.3-20.3L22.8-11.9-4.3 271z"/><ellipse cx="124" cy="43" fill="#cbccbd" fill-opacity=".5" rx="21" ry="2"/><path fill="#b6897e" fill-opacity=".5" d="M57.9 53.7L100.4 87l40.3-36.5-49.8-.9z"/><path fill="#934242" fill-opacity=".5" d="M76.6 168.8L84 180l-22.2-34.5L95 190.7z"/><path fill="#93685c" fill-opacity=".5" d="M53 47h30v4H53z"/><path fill="#fff" fill-opacity=".5" d="M219 236.7l-15.5-69.3-55.6 29 63.1 57.1z"/><path fill="#a6746e" fill-opacity=".5" d="M55 56h3v112h-3z"/><circle r="1" fill="#fffffe" fill-opacity=".5" transform="matrix(-4.35871 -7.3689 23.67916 -14.00626 132.6 228.5)"/><path fill="#bbbaab" fill-opacity=".5" d="M52 43h9v4h-9z"/><path fill="#590b14" fill-opacity=".5" d="M148.7 54.5l.9-.5 5.7 9.5-.9.5z"/><ellipse cx="87" cy="198" fill="#eaf0e5" fill-opacity=".5" rx="34" ry="3"/><path fill="#d5d5ca" fill-opacity=".5" d="M143.2 195.1l-16 .5 19.2 9.5.4-6.6z"/><path fill="#b5867e" fill-opacity=".5" d="M144 96.6l-5.4 40.7L118 80.2l25-32.7z"/><path fill="none" stroke="#974947" stroke-opacity=".5" stroke-width=".5" d="M114.8 109.4q-36-37-51.3-49.2"/><path fill="#b98e82" fill-opacity=".5" d="M165.7 185.2l-41.1-17.1 21.9-33.8-7.3 39.9z"/><path fill="none" stroke="#944546" stroke-opacity=".5" stroke-width=".5" d="M56.2 137.6Q81.6 174.1 94 187"/><path fill="#fff" fill-opacity=".5" d="M214 184l-45 87-11-62z"/><circle r="1" fill="#b5897a" fill-opacity=".5" transform="rotate(-127.9 77.1 67.9) scale(25.10977 5.80794)"/><path fill="#ab8c78" fill-opacity=".5" d="M91 190h56v4H91z"/><path fill="#9a6256" fill-opacity=".5" d="M43.3 73.7l-1.7 8.8-1-.2 1.8-8.8z"/><path fill="#fff" fill-opacity=".5" d="M51 64v29l-24 27zm-67 192.4l127.3-57.9 59.3 35.5 48.4 21.1z"/><path fill="#a98476" fill-opacity=".5" d="M42.8 211.3l10.4-20.1 39.9-11.4-41.8 17.7z"/><path fill="#fff" fill-opacity=".5" d="M-16-8L219 4 98 43zM0 85h46v126H0z"/><path fill="#b98a7f" fill-opacity=".5" d="M56 55l14 54 27-17z"/><path fill="#d5cccd" fill-opacity=".5" d="M159.4 75.8l4 5.8-.8.6-4-5.8z"/><path fill="#b19689" fill-opacity=".5" d="M138.2 51.8l1.5-8.8-13.6 9.9 19.4-15.3z"/><path fill="#c9a8a7" fill-opacity=".5" d="M144 97h1v31h-1z"/><path fill="#7b4d4b" fill-opacity=".5" d="M51.7 61L50 66.7 44.3 65l1.7-5.7z"/><path fill="#a1766a" fill-opacity=".5" d="M106 46h37v4h-37z"/><path fill="#fff" fill-opacity=".5" d="M146 122l-2-70 52 83z"/></g></g></svg>