<svg xmlns="http://www.w3.org/2000/svg" viewBox="0 0 933 1400"><defs/><filter id="a"><feGaussianBlur stdDeviation="12"/></filter><rect width="100%" height="100%" fill="#2d3054"/><g filter="url(#a)"><g fill-opacity=".5" transform="translate(2.7 2.7) scale(5.46875)"><circle r="1" fill="#e0d0a0" transform="rotate(118.9 27.5 74.5) scale(102.6404 169)"/><circle r="1" fill="#ffe295" transform="matrix(-16.13193 -14.38892 47.69983 -53.478 0 229)"/><ellipse cx="155" cy="143" fill="#fdf0df" rx="33" ry="51"/><path fill="#000209" d="M76 97h48v46H76z"/><path fill="#e8f1fa" d="M37 91h39v49H37z"/><path fill="#040200" d="M5 144h58v32H5z"/><circle r="1" fill="#706b5e" transform="rotate(-158.8 74.8 92.5) scale(64.82069 30.43625)"/><path d="M147.3 285.2l-123.7-24 7-36.4 123.8 24z"/><circle r="1" fill="#6f655a" transform="matrix(167.7403 -20.59592 7.31168 59.54887 89.7 17)"/><path fill="#dbdcde" d="M67 145h79v17H67z"/><path fill="#cdcfcb" d="M-9.1 149.2l34.9-10.8-8.4-46-27.2 38.8z"/><circle r="1" fill="#8f5624" transform="rotate(91.3 2.2 148.9) scale(67.50004 3.64758)"/><path fill="#cfbf9f" d="M169.2 227.5l15.8-48.2-85.6-10.7 38.9 14.9z"/><ellipse cx="40" cy="161" fill="#c8c6bd" rx="5" ry="29"/><path fill="#111726" d="M19.6 117.3L33.9 166l.3-55.4-6.9-5z"/><path fill="#11162c" d="M89 186.7l29.5 34.1 32.2-19.5-7.2-9.1z"/><path fill="#dfe4e8" d="M123 102h24v66h-24z"/><circle r="1" fill="#ad9876" transform="matrix(.7344 37.1326 -24.47373 .48404 0 222.4)"/><path fill="#dac69e" d="M45 177h34v10H45z"/><path fill="#0b0b11" d="M41 170l18-43 5 48z"/><ellipse cx="56" cy="217" fill="#1d1f2d" rx="16" ry="30"/><path fill="#717077" d="M94 217h56v25H94z"/><circle r="1" fill="#050000" transform="matrix(15.67464 14.67193 -20.26284 21.64764 79 253.5)"/><ellipse cx="160" cy="146" fill="#effdff" rx="5" ry="28"/><path fill="#201a09" d="M5.9 185.9l6.6-53.2 20.1 32.8-7.9 21.4z"/><path fill="#aba39d" d="M116.7 78.2l11.8 35.7 56.5-21-201 9.3z"/><path fill="#161738" d="M152 229l-16-47 49 64z"/><circle r="1" fill="#0f0806" transform="rotate(28.2 -458.3 176.2) scale(5.09246 49.56447)"/><path fill="#cccdd0" d="M34 96h43v33H34z"/><path fill="#9d9f98" d="M75.9 205l-1.7-16 20-2 1.6 16z"/><path d="M59 242h95v14H59z"/><path fill="#0a0600" d="M128.6 209.1l-11.7 12.1-16-14.4-7.6-19.6z"/><path fill="#5c6771" d="M47.1 128.2l14 1.7-2.2 17.9-14-1.7z"/><circle r="1" fill="#605a54" transform="matrix(-7.92782 -37.94833 19.58517 -4.09155 16.6 29.5)"/><path fill="#969394" d="M107.8 190.4l62.8-6.2-52.9-7.6 24.7 40z"/><path fill="#4c4942" d="M166 141h4v31h-4z"/><path fill="#8b7f74" d="M160 108.1L29.2 36.8 150.3 34l20.7 87.5z"/><path fill="#a45a18" d="M152.4 165.5l11.3 13-1.1.5-20.9-.5z"/><path fill="#292625" d="M78 179h45v5H78z"/><path fill="#c8c0ad" d="M82.8 168.3l30-1.6.4 9-30 1.6z"/><path fill="#b4b0ac" d="M65 129h12v50H65z"/><path fill="#232328" d="M85 163h40v4H85z"/><path fill="#bab2a7" d="M123 111h10v75h-10z"/><path fill="#f1f7f8" d="M7.1 142.6L-15.8 116l7.2 9.2 19.7.3z"/><path fill="#030200" d="M160.2 57.3l20.3-9.9 1.3-8.2-6.8-.8z"/><circle cx="83" cy="216" r="16" fill="#67624a"/><path fill="#bcb19d" d="M142.3 176.2l-6.2 4.4 48.9 66.9v-53.1z"/><path fill="#88430f" d="M150 118h4v54h-4z"/><path fill="#bcac8e" d="M7.1 252l42.5-63.4L23 238.7-2.2 271z"/><path fill="#e3e8eb" d="M153.3 116.1l3.4-15.7 4.1 15.6-4.4 48.7z"/><path fill="#fff" d="M168.9 90.8l3.1 13.7-2.9.7-3.1-13.7z"/><path fill="#ebf0f3" d="M135.9 169l.7-61.4 9.9-9.2.6 64.2z"/><path fill="#a3a1a2" d="M44.7 88.1L-16 110.2l1.6 20.9 79-45.7z"/><path fill="#938567" d="M5.1 142l-2.5 29.5 10.7 96.2-26.2-139.4z"/><path fill="#0e0b02" d="M3.8 185.8l.4-24 18 .4-.4 24z"/><path fill="#232d58" d="M35.8 269.8l26.9-82.7 9.5 3L45.3 273z"/><path fill="#262424" d="M77 138h46v6H77z"/><path fill="#cdc0a8" d="M104 184h62v3h-62z"/><path fill="#777781" d="M88.7 214.2l55.3 6.7-16.1-19.3 4.2 31.2z"/><path fill="#434d77" d="M105 188h36v10h-36z"/><path fill="#030000" d="M165 89l20-22v26z"/><path fill="#0d0e1d" d="M32 134h4v29h-4z"/><ellipse cx="147" cy="32" fill="#544c3e" rx="112" ry="2"/><path fill="#a8afb7" d="M37 140h37v5H37z"/><path fill="#6c6c70" d="M112.7 241.9l-39-66 43.5 46.6L90 243.9z"/><path fill="#0a0501" d="M109 200h19v16h-19z"/><path fill="#212224" d="M23 107h10v23H23z"/><path fill="#bac1cb" d="M36 131v36l15-50z"/><path fill="#c0bfc0" d="M90 89h25v8H90z"/><path fill="#988975" d="M17.4 239.5L23 173l53.3 13.7-92.3.1z"/><path fill="#75665b" d="M153 56h14v43h-14z"/><ellipse cx="152" cy="101" fill="#eea240" rx="3" ry="16"/><path fill="#373f6c" d="M150.3 271l4.5-22.1-26.2-63.2 55.8 80.2z"/><path fill="#110c0d" d="M46 152h15v25H46z"/><ellipse cx="20" cy="120" fill="#6a6766" rx="5" ry="6"/><ellipse cx="123" cy="170" fill="#645d53" rx="58" ry="1"/><circle r="1" fill="#a89d93" transform="rotate(60.7 49.8 164.5) scale(5.13042 17.66883)"/><path fill="#d3cbb9" d="M167 62h3v23h-3z"/><path fill="#24222a" d="M18 142h14v32H18z"/><path fill="#8d857f" d="M51.7 76.7l18.8-20.8 23.8 21.4-18.8 20.8z"/><path fill="#302f32" d="M77 164h27v3H77z"/><path fill="#ac9c87" d="M53 183l-19-11-18 75z"/><path fill="#c2c1b5" d="M82.3 201.6l-.4-.9 15.8-6.3.4.9z"/><path fill="#dbdee3" d="M155 116h10v57h-10z"/><path fill="#616468" d="M51 128l9 5-23 19z"/><circle r="1" fill="#b1afae" transform="matrix(-1.0391 -5.19087 29.76518 -5.9583 47.7 99.3)"/><path fill="#d9d8d2" d="M121 160h27v9h-27z"/><ellipse cx="161" cy="15" fill="#877c72" rx="50" ry="16"/><path fill="#9d9894" d="M101 148l-30-5-2 26z"/><path fill="#81664d" d="M148 73h3v49h-3z"/><path fill="#1b1d34" d="M53.3 187l-10.7 16.6 35-9.9-2.2-6z"/><path fill="#67635d" d="M166 112h1v40h-1z"/><path fill="#bdb096" d="M55 184h37v3H55z"/><path fill="#706962" d="M8.4 6.9l8.8 93.9 16.7-19.9L66-16z"/><path fill="#c7c2be" d="M91 157h35v6H91z"/><path fill="#090005" d="M153 243l-3 28-98-30z"/><path fill="#52585b" d="M114.7 126.8l-18 6.2-7.4-21.8 18-6.2z"/><path fill="#727274" d="M98.8 227.9l-12.2-9.7 20.1-3-.2-19.4z"/><path fill="#030005" d="M25 259l3-26-27 38z"/><ellipse cx="118" cy="169" fill="#737068" rx="55" ry="1"/></g></g></svg>