<svg xmlns="http://www.w3.org/2000/svg" viewBox="0 0 1200 775"><defs/><filter id="a"><feGaussianBlur stdDeviation="12"/></filter><rect width="100%" height="100%" fill="#242f4c"/><g filter="url(#a)"><g fill-opacity=".5" transform="translate(2.3 2.3) scale(4.6875)"><circle r="1" fill="#3a73df" transform="rotate(179.1 51.2 45) scale(255 40.54991)"/><circle r="1" fill="#04080f" transform="matrix(-246.3926 6.68332 -.47988 -17.69153 106.6 4.7)"/><circle r="1" fill="#2a4072" transform="matrix(237.19287 -6.20122 .49264 18.84335 107.6 128.3)"/><circle r="1" fill="#386ac5" transform="matrix(.11035 14.91356 -221.88464 1.64184 92.7 85.6)"/><circle r="1" fill="#213b71" transform="matrix(254.97385 -3.65197 .19479 13.5998 191.6 47.6)"/><circle r="1" fill="#191f29" transform="rotate(-91.4 132.8 30.5) scale(9.77273 181.81058)"/><ellipse cx="94" cy="127" fill="#2a3f71" rx="238" ry="11"/><circle r="1" fill="#152546" transform="matrix(.41573 12.53189 -160.55102 5.32603 110 25.7)"/><ellipse cx="210" cy="49" fill="#273d70" rx="251" ry="7"/><ellipse cx="70" fill="#0b1117" rx="193" ry="8"/><path fill="#3b6cc0" d="M7 77h99v14H7z"/><circle r="1" fill="#3b69b9" transform="rotate(-173.1 128.4 33.7) scale(20.31219 15.45593)"/><ellipse cx="32" cy="100" fill="#2f569d" rx="255" ry="6"/><path fill="#294c94" d="M221.7 88.1l-50.6-27.6 87.2 21.8-51.4-32.7z"/><ellipse cx="225" cy="126" fill="#2a3f70" rx="216" ry="7"/><ellipse cx="48" cy="70" fill="#2f58a8" rx="143" ry="4"/><path fill="#2f4c88" d="M217 41l50 16 3 21z"/><path fill="#3057a1" d="M115.9 126.8l-62.6-22.1-39.1-48.1-.2 5.8z"/><path fill="#3666bb" d="M-16 98.5V87.3l58.6 25.3-53.8-40z"/><ellipse cx="67" cy="36" fill="#1c3059" rx="218" ry="5"/><ellipse cy="21" fill="#19233d" rx="238" ry="7"/><path fill="#2f4c88" d="M249.2 136L116.9 89.3l62 30.7L165 91.1z"/><path fill="#2d4477" d="M-11.2 138.8l6-28.4 32.4 6.8-6 28.4z"/><path fill="#212d4a" d="M124.2 133.5l16 30.9L92 151.7l112.9 7.1z"/><circle r="1" fill="#304e8a" transform="matrix(2.26297 -4.84703 54.18941 25.29987 245.8 116.6)"/><path fill="#26427c" d="M39 52.5l15 19.8-23.7-8.2-36.2-30.8z"/><path fill="#263a66" d="M206.5 164.9l-96.2-53.3 35.4 45.1L52.1 103z"/><path fill="#2f508d" d="M79.1 129.8l-1.6-16.2-57-23.9 29.6 25.7z"/><path fill="#2e539f" d="M161 95l-29-35-35-10z"/><path fill="#345897" d="M34 123l-50-23 45 5z"/><path fill="#3159ab" d="M137.9 106.5l-12.7-3-56-51.8 49.2 19.9z"/><path fill="#2c4377" d="M92.7 130.7L48 130l53.2 21.8-45.8-48.6z"/><path fill="#4071be" d="M131.2 77.7l5.5 12.8-3.5 2.1-20.5-24.1z"/><circle r="1" fill="#2e4e8a" transform="matrix(-2.66676 4.00175 -24.6564 -16.43096 121.6 108.7)"/><path fill="#1b2235" d="M254.4 23.7L174.2-7.4 221 22.1l37.9-27.7z"/><path fill="#233150" d="M65 150.7L61 163l-36-11.8 4-12.4z"/><path fill="#3969bc" d="M23.3 76.2l55.6 36.2L24.6 90 .4 67.4z"/><path fill="#2d539f" d="M160.2 73.4l-19.7-22.6 33.9 15 51.8 52.1z"/><circle r="1" fill="#3e6ebe" transform="rotate(123 23.2 65) scale(5.12286 21.69782)"/><path fill="#1b2335" d="M191.4 180l-85.3-35.2-12.5-7.9 43.6 13.7z"/><circle r="1" fill="#283e70" transform="matrix(2.7137 -4.42835 23.88316 14.63562 191.5 50.6)"/><path fill="#294071" d="M45.1 135.7l65.3-43.2-73 48.3 55.3 20.4z"/><circle r="1" fill="#1b2437" transform="matrix(-57.83838 -23.3711 1.0272 -2.5421 215.1 158.2)"/><path fill="#3b6bbd" d="M94.5 99.6L48.6 73.8l3.2 12.9 60.4 24.4z"/><circle r="1" fill="#4275c3" transform="matrix(11.26431 8.71 -2.62115 3.38983 240.6 87)"/><path fill="#4576c3" d="M161 87l-4-16 17 20z"/><path fill="#192c51" d="M105.2 40.2L64.9 17.6 69.4 34l43.7 19.9z"/><path fill="#25375f" d="M260.1 141l-3.8 13.5-40.4-11.6 3.8-13.4z"/><path fill="#2e57aa" d="M80 69L43 56l49 48z"/><path fill="#222e4b" d="M55.4 137.3l18.4 2.4 47.9 33-40.9-14.5z"/><path fill="#28427a" d="M35.1 36.8L59 47.7l30.5 24-26.3-8.3z"/><path fill="#293d6a" d="M209 151l-27-41-6 26z"/><path fill="#2a4073" d="M157.4 42.5l-18.4-5 9.3 18.3 41 13.4z"/><path fill="#17294d" d="M37.8 22.2L26 31.9l55.4 22.9-9.6-10.5z"/><path fill="#3157a3" d="M267.5 121l-5-4.2-45.4-19.4 2.2-21.4z"/><path fill="#191e29" d="M223.6 180l-38-24.2-31.5-4.9 20.9 7.2z"/><path fill="#283d6d" d="M64 142l-71.5-7.6 94.4-4.4-60.4-20.4z"/><path fill="#2c4375" d="M252.1 39l-19.7-4.9 26.1 20.2 12.5-4.8z"/><path fill="#2a447b" d="M109 52.8l15.2 20.8-41.3-18.2-10.4-17.1z"/><circle r="1" fill="#2a3e6e" transform="matrix(-21.77035 -13.60363 3.0997 -4.96056 231.7 126.5)"/><path fill="#172e56" d="M29 35l24 21-39-16z"/><circle r="1" fill="#3f70bf" transform="rotate(-130.5 119.8 -4.1) scale(10.11207 3.70728)"/><path fill="#2c4a85" d="M124.8 55.2L158 75.6l1.6-4.5-13-19.9z"/><path fill="#161c22" d="M19 160l-22-6 35 25z"/><path fill="#1a212f" d="M21.7 155.9l-2.4-4.3-.1-2.6 86.1 31z"/><path fill="#2d4a86" d="M176.5 110.1l11.3 19.8-36.1-16.2-19.9-21.8z"/><path fill="#284681" d="M-1.3 51.6l37.4-3.9-52.1 16 36.1 6.7z"/><path fill="#20345c" d="M246 37l-14-20 39 13z"/><path fill="#305291" d="M213 123l-20-24-23 7z"/><path fill="#2e58ab" d="M37 90.5l-31.6-37L43.5 68l4.2 23.4z"/><circle r="1" fill="#1d2f56" transform="rotate(-59 96.2 -92) scale(4.90843 29.34955)"/><path fill="#202b46" d="M212.5 153.6l24.8 10.8 8.2-11.6-44.8-17.5z"/><path fill="#1d2e52" d="M116.8 12.5l40.3 14.8 31.6 29.9-45.3-21z"/><path fill="#32528d" d="M101 108L64 93l19 23z"/><path fill="#24314e" d="M53.2 180l-29.6-26.8L.8 139.4l-16.1 3.2z"/><circle r="1" fill="#131827" transform="matrix(23.21359 10.9264 -1.7888 3.80038 100.4 14.1)"/><path fill="#3a6abd" d="M9 81.9l60.1.9-29.6-14.3.3 29z"/><path fill="#3058aa" d="M226 64h20l25 39z"/><circle r="1" fill="#2b4882" transform="matrix(3.1644 -5.212 17.26198 10.4804 210.9 58.3)"/><path fill="#25355d" d="M157.7 131.4l44 28.6-61.8-29.7-46.3-22.5z"/><circle r="1" fill="#2e54a3" transform="matrix(-13.04038 -12.54849 3.823 -3.97286 161.2 95.4)"/><path fill="#223663" d="M214.7 35.9L174 52.7l-25.4-26.3 80.1 31.5z"/><path fill="#273b68" d="M123.1 106.5l67.4 30.2 16.8 1.4-79.6-32.7z"/><path fill="#171c22" d="M73 156.7L83.1 180H72.6l33.1-13z"/><path fill="#1c2f56" d="M229 45l3-16-38-13z"/><path fill="#1d2330" d="M220.6 146.3l40.5 33.7-50.7-18 60.6-1.3z"/><path fill="#1a2239" d="M187.5 27.2L216.1 8l23.2 25.1-93.8-38.3z"/><path fill="#15191e" d="M148 166l-2-10 22 9z"/><path fill="#0c111b" d="M78.7 22.4L26.6-9.7l-42.6-6L42.4 8.8z"/><path fill="#191e30" d="M125.3 1L153 12.9 148.7 23 121 11.2z"/><path fill="#181d24" d="M136 180l-35-28 50 19z"/><path fill="#2d406f" d="M243.9 134.7l26.5-28.5-23.5 10.4 12.7 29.8z"/><path fill="#3159ad" d="M185 97l-8-30 35 40z"/><path fill="#2c52a1" d="M236.3 105.6l-18.6-36.5-35.2-14.7-5.1-3.3z"/><path fill="#2a3f71" d="M227 143.6L192.4 116l-25.9-8.4 22.8 22.8z"/><path fill="#447dce" d="M251 69l20-4-1 24z"/><path fill="#304f8b" d="M233.9 117.9l14.8 9.3-7.5-22-60-.8z"/><path fill="#3c6aba" d="M136.5 105.7l-31.7-10-16.3-23.8-9.6 5.1z"/><path fill="#1c2e53" d="M194.5 29.1L156.1 15l18.3 18.8 35.8 16.5z"/><path fill="#2d4379" d="M107 38l22 8 9 18z"/></g></g></svg>