<svg xmlns="http://www.w3.org/2000/svg" viewBox="0 0 1120 1400"><defs/><filter id="a"><feGaussianBlur stdDeviation="12"/></filter><rect width="100%" height="100%" fill="#3b4348"/><g filter="url(#a)"><g fill-opacity=".5" transform="translate(2.7 2.7) scale(5.46875)"><circle r="1" fill="#fff" transform="matrix(-99.60985 -.52156 .8995 -171.78867 100.5 131)"/><ellipse cx="101" cy="129" fill="#fff" rx="88" ry="72"/><ellipse cx="114" cy="30" fill="#49576a" rx="203" ry="32"/><ellipse cx="96" cy="87" fill="#fffcf5" rx="191" ry="26"/><circle r="1" fill="#7b6849" transform="matrix(-155.9361 -42.9363 9.6654 -35.10284 92.6 249.7)"/><ellipse cx="195" cy="104" fill="#596168" rx="10" ry="255"/><path fill="#fef4e2" d="M15 62h49v140H15z"/><path fill="#475a38" d="M132 125l9 18-47 31z"/><circle r="1" fill="#0f4e08" transform="matrix(.78087 -7.12192 20.7747 2.27781 146.5 202)"/><ellipse cy="201" fill="#6c7477" rx="18" ry="203"/><ellipse cx="95" cy="14" fill="#68717d" rx="198" ry="49"/><path fill="#fff5ef" d="M100 154L24 66l166-5z"/><ellipse cx="188" cy="189" fill="#1d2326" rx="3" ry="135"/><path fill="#533827" d="M22.7 230.8l48.6-3.6 8.3-14.7-51.2-.6z"/><path fill="#9d9a87" d="M172 140h13v116h-13z"/><path fill="#dee1d2" d="M192 102h3v113h-3z"/><path fill="#71727b" d="M62 129l13-3 3 45z"/><path fill="#68717a" d="M189 236l10-161 20 79z"/><path fill="#575346" d="M115.7 226.4l63 25.5-6.4 15.7-63-25.5z"/><path fill="#bdaf93" d="M31 195h96v14H31z"/><path fill="#f5ede5" d="M105.8 88.4L41.5 116l78.9 28.9h15.9z"/><path fill="#eee4d5" d="M139 77h33v109h-33z"/><path fill="#22282a" d="M13.5 268h-3V50h3z"/><ellipse cx="8" cy="99" fill="#cfd3d8" rx="4" ry="39"/><circle r="1" fill="#beb297" transform="matrix(.47785 -11.56152 53.84012 2.22528 128 219.5)"/><path fill="#d7d7cd" d="M190 62h5v83h-5z"/><path fill="#a69f88" d="M14 255l1-71 23 87z"/><path fill="#202a30" d="M66 0h4v59h-4z"/><path fill="#000200" d="M130.6 166.6l.8-1.8 10 4.6-.8 1.8z"/><path fill="#efeae5" d="M14 67h50v70H14z"/><ellipse cx="3" cy="83" fill="#757a85" rx="4" ry="95"/><path fill="#fff" d="M175 61h11v46h-11z"/><path fill="#848a9a" d="M195 0h9v66h-9z"/><circle cx="100" cy="170" r="6" fill="#577056"/><circle r="1" fill="#e5dccb" transform="matrix(-6.48836 15.21174 -39.5433 -16.86664 66.5 182.7)"/><path fill="#1a242c" d="M130 0h4v63h-4z"/><ellipse cx="30" cy="41" fill="#39454d" rx="6" ry="23"/><path fill="#573f31" d="M70.3 202.2l20 2.7-56.2 24.6 36.1-6.4z"/><path fill="#e8dcbe" d="M65.8 141.3L87.6 170l-1.3 29.8 25.6-69.2z"/><ellipse cx="168" cy="11" fill="#6d7784" rx="17" ry="53"/><ellipse cx="49" cy="23" fill="#364149" rx="3" ry="42"/><path fill="#7b9b69" d="M145 183h17v14h-17z"/><ellipse cx="201" cy="96" fill="#626b79" rx="7" ry="111"/><path fill="#26323f" d="M169 0h5v60h-5z"/><ellipse cx="151" cy="26" fill="#283441" rx="3" ry="37"/><path fill="#f9f3f2" d="M114 61l32 99 16-95z"/><ellipse cx="100" cy="1" fill="#99a3b0" rx="5" ry="62"/><path fill="#2f3b45" d="M111 0h4v62h-4z"/><ellipse cx="191" cy="36" fill="#1f2830" rx="3" ry="28"/><path fill="#98a0ae" d="M115.8-29.6l10 .2-1.6 87-10-.2z"/><circle cx="132" cy="128" r="4" fill="#222f15"/><path fill="#3a3f45" d="M1 138h5v118H1z"/><path fill="#7c6f5e" d="M21 195h13v50H21z"/><path fill="#4e4f1f" d="M85.5 145.7L69.9 133l.6-.8L86.1 145z"/><ellipse cx="49" cy="205" fill="#b7b2a3" rx="19" ry="8"/><ellipse cx="21" cy="9" fill="#848b94" rx="5" ry="52"/><path fill="#272f35" d="M7 22h6v42H7z"/><path fill="#918f85" d="M175 163h11v93h-11z"/><path fill="#44528f" d="M75 169l7-4-11-17z"/><path fill="#272725" d="M195 227h9v29h-9z"/><ellipse cx="93" cy="20" fill="#2c373f" rx="2" ry="41"/><path fill="#d6d1c4" d="M163 67h10v127h-10z"/><path fill="#7f8897" d="M135 0h53v21h-53z"/><circle cx="77" cy="255" r="32" fill="#9c9682"/><path fill="#2e5c31" d="M146.1 210.8l-19.5-7.4 19.2-4.2 22.8 10.4z"/><ellipse cx="73" cy="25" fill="#2b353b" rx="2" ry="38"/><path fill="#0b1602" d="M141.7 147.3l-1.7 1.1-7.7-11.7 1.7-1.1z"/><path fill="#37414a" d="M85 0h4v62h-4z"/><path fill="#596165" d="M147.2 66.5l-2.8-6.2 29.9.9-9.2-8.8z"/><path fill="#b8cde6" d="M109 40.5h-1l3-57h1z"/><path fill="#8b95a1" d="M76 0h10v54H76z"/><path fill="#e1d7bf" d="M88.5 198.7l52.8-54.3-33.3 20.9 67.2 11.4z"/><path fill="#e4dbc8" d="M83 120l44 13-47 54z"/><path fill="#46604e" d="M131 146l-6-6-17 21z"/><path fill="#f2ebeb" d="M55 61h32v61H55z"/><path fill="#ebe6dd" d="M21 201.4L13.8 89.1l31.6-30.2 17.3 97.5z"/><path fill="#a09a84" d="M136.8 194.5L45.9 271l70.9-68.4-27.5-8.4z"/><path fill="#343d43" d="M125 31h3v33h-3z"/><path fill="#888b82" d="M219 197.8l-63.3-4.6 8.4 22.1 54.9-66.5z"/><circle cx="102" cy="152" r="2" fill="#182100"/><circle r="1" fill="#624031" transform="matrix(-10.01218 -5.32357 2.40377 -4.52083 29.7 212.2)"/><path fill="#3c4851" d="M105.4 63.5l-.8-49h4l.8 49z"/><path fill="#ebeceb" d="M7 65h5v35H7z"/><ellipse cx="136" cy="11" fill="#9fa6b4" rx="2" ry="51"/><ellipse cx="99" cy="91" fill="#f7f0f0" rx="17" ry="31"/><ellipse cx="165" cy="28" fill="#36414d" rx="2" ry="33"/><path fill="#4a5257" d="M65.7 51.7L75.8 56l-3.5 8.3L62.2 60z"/><ellipse cy="57" fill="#797f87" rx="6" ry="127"/><path fill="#aab99d" d="M14 134h5v77h-5z"/><path fill="#273135" d="M54 20h2v39h-2z"/><ellipse cx="145" cy="18" fill="#1f2b32" rx="1" ry="46"/><path fill="#adbed4" d="M89 0h2v59h-2z"/><path fill="#c4beb0" d="M124.3 220.2l2-12.8 53.4 8.4-2 12.8z"/><path fill="#929ba6" d="M56 34h10v27H56z"/><path fill="#4d3a2c" d="M41 230.7l-15.8-15.1 13.5 2.7 33.3 2.3z"/><path fill="#b6bcbe" d="M6 116h4v51H6z"/><path fill="#e9e3d9" d="M130.7 141.7l4 13.7 21.3-52.9 7.6 58.4z"/><path fill="#e7e0d0" d="M79.4 143.9l55.1-4-58.2 15L64.9 134z"/><ellipse cx="67" cy="181" fill="#ded6c5" rx="9" ry="25"/><path fill="#46515f" d="M196 82h4v83h-4z"/></g></g></svg>