<svg xmlns="http://www.w3.org/2000/svg" viewBox="0 0 1400 933"><defs/><filter id="a"><feGaussianBlur stdDeviation="12"/></filter><rect width="100%" height="100%" fill="#3d3125"/><g filter="url(#a)"><g fill-opacity=".5" transform="translate(2.7 2.7) scale(5.46875)"><circle r="1" fill="#fff" transform="matrix(-88.2145 70.92628 -46.1056 -57.3438 76.4 14.3)"/><ellipse cx="134" cy="40" fill="#a87e74" rx="70" ry="78"/><ellipse cx="177" cy="167" fill="#cdd8e2" rx="92" ry="12"/><ellipse cx="40" cy="36" fill="#eefdff" rx="31" ry="56"/><path fill="#cfcecd" d="M265.5 124.7l5.5-49.9-52.4 9.1 6.7 35.5z"/><ellipse cx="55" cy="110" fill="#ac1922" rx="122" ry="21"/><path fill="#311f00" d="M130 30h47v49h-47z"/><circle r="1" fill="#290000" transform="matrix(-97.66337 13.93187 -3.21168 -22.51412 129.9 138.3)"/><path fill="#d7dee5" d="M0 166h142v4H0z"/><ellipse cx="188" cy="28" fill="#7c98a1" rx="14" ry="53"/><circle r="1" fill="#dd756e" transform="matrix(48.2746 -1.76182 .37151 10.17963 120 90)"/><path fill="#c8e7f7" d="M111.2 7.6l22.4 21.6 18.8-2.2-4.9-20.5z"/><ellipse cx="23" cy="23" fill="#f6ffff" rx="11" ry="69"/><ellipse cx="242" cy="38" fill="#726346" rx="21" ry="46"/><ellipse cx="42" cy="28" fill="#8a8687" rx="8" ry="66"/><path fill="#e1dcb5" d="M92 18h16v70H92z"/><path fill="#e6ebf9" d="M55.7 93l-4.4-62.8 17-1.2 4.4 62.8z"/><circle r="1" fill="#9a9f9f" transform="matrix(-.50164 -9.26256 30.7325 -1.66441 151.3 162)"/><circle cx="189" cy="120" r="34" fill="#2c0000"/><ellipse cx="69" cy="136" fill="#4d0301" rx="76" ry="18"/><circle r="1" fill="#82474b" transform="rotate(-16.9 384 24.4) scale(46.68623 18.70601)"/><path fill="#607376" d="M69 0h53v29H69z"/><path fill="#a2222f" d="M159 81h41v22h-41z"/><circle r="1" fill="#3d4b50" transform="matrix(4.2827 65.66884 -2.416 .15756 3 27.5)"/><path fill="#150300" d="M18 142l-34 27 62-6z"/><path fill="#0f0503" d="M207.3 104.8l26.2-8-121.1 53.1 141.4 2z"/><ellipse cx="81" cy="61" fill="#64716c" rx="10" ry="34"/><ellipse cx="138" cy="45" fill="#493414" rx="33" ry="7"/><path fill="#d4cfc7" d="M111 19L83 4l22 39z"/><ellipse cx="249" cy="25" fill="#010b0a" rx="52" ry="5"/><path fill="#859da2" d="M239 0h9v21h-9z"/><path fill="#859a9e" d="M178 1.7l-3.2 29.8-30.8-3.2 3.2-29.8z"/><path fill="#a58272" d="M77.6 74.6l93.5 25.6-44.9 11.1 3.8-46.8z"/><path fill="#858d91" d="M201.7 52.8l4 20.6-29.4 5.8-4-20.6z"/><path fill="#ba3930" d="M134 93l-39 22-65-17z"/><path fill="#464e50" d="M130.8 30.2l-9 1.1L99.3 8.8l16.8-2z"/><path fill="#000e07" d="M38 158h72v7H38z"/><path fill="#acaeb3" d="M221 110h30v9h-30z"/><path fill="#767778" d="M165 153h62v11h-62z"/><path fill="#9f7676" d="M40 102l-53 28 23-26z"/><path fill="#e6f1fd" d="M16 32h18v58H16z"/><path fill="#6a100e" d="M212 99L63 121l81 10z"/><path fill="#18170d" d="M219-16l-7 104-12-58z"/><ellipse cx="55" cy="169" fill="#c8cace" rx="40" ry="3"/><path fill="#a0a1a2" d="M16.2 52.1L8.8-1.1 3.3-11 9.5 96.3z"/><path fill="#e0e4ec" d="M145 6l-1 23-27-18z"/><path fill="#825727" d="M223 28h24v32h-24z"/><path fill="#790e0c" d="M13.4 96.6l-8.2 11.5 39.7-11.3-6-3.9z"/><path fill="#74532b" d="M130 54h25v29h-25z"/><path fill="#888889" d="M247.7 181.8l23-29.9-32.7 7.7-100.2-6.6z"/><path fill="#d1d5df" d="M49.3 44.1l21.5 55.2-4-115.3L47-3.6z"/><path fill="#585b56" d="M87.3 33.7l-7-.4 2.4-47 7 .4z"/><ellipse cx="238" cy="78" fill="#162129" rx="52" ry="3"/><path fill="#a99565" d="M107 31h24v40h-24z"/><path fill="#cb6364" d="M44 91h42v7H44z"/><path fill="#182022" d="M227 122h14v38h-14z"/><path fill="#b2adab" d="M40 33h16v58H40z"/><circle r="1" fill="#e1ecf9" transform="rotate(73 -4.3 24.9) scale(27.65095 6.66661)"/><path fill="#8f959b" d="M36.8 42.7L38.6-16l7.5 34.8-16-25.7z"/><circle r="1" fill="#696762" transform="rotate(145 92 33.5) scale(19.29682 23.89555)"/><path fill="#3d2b18" d="M157 28l7 50 16-45z"/><path fill="#89827c" d="M258.8 138.3l-47.2-55.7 7.9-1 51.5-1.8z"/><path fill="#543032" d="M-11.3 132.5l48.1-25.2 17.1-9.9-22.7 35.5z"/><path fill="#eef0ea" d="M-16 77l11-60 8 54z"/><path fill="#3c4040" d="M96.4 9.2l21-.4.2 6-21 .4z"/><path fill="#cf6964" d="M163.8 89.9l-37.9-4.1L95 117.7l5.4-24.1z"/><path fill="#5e5b56" d="M189.8 152.9l13.1 32.1-23.7-7.8 9.7-27.5z"/><ellipse cx="149" cy="45" fill="#27180f" rx="23" ry="4"/><path fill="#791b1a" d="M69.6 127l60.7-31.3-3.1 14.2 9.3 14.3z"/><circle r="1" fill="#350402" transform="matrix(5.34811 10.57495 -42.97016 21.73149 181 120.2)"/><path fill="#cbbd9d" d="M111.4 87.9l-11.4-42L86.9 8.1l6 63.9z"/><path fill="#852a2d" d="M164 77l-10 34 60-25z"/><circle r="1" fill="#130b07" transform="matrix(7.77405 -22.55584 10.59046 3.65009 205.3 136.5)"/><path fill="#c0585e" d="M158 100L98 87l78-9z"/><path fill="#fff6ec" d="M-11 91l19 1-22-17z"/><path fill="#5c6a62" d="M252.2 11.4l15.3 13.2-46.9-13.9 6.1-22.2z"/><path fill="#7d7b77" d="M70 0h13v51H70z"/><path fill="#bdb8ab" d="M123 37l-23-13 4-13z"/><ellipse cx="24" cy="163" fill="#10120d" rx="35" ry="4"/><circle r="1" fill="#858586" transform="matrix(-9.82796 -3.43977 9.1178 -26.05096 188.6 48.3)"/><path fill="#464641" d="M199.4 82l.5-98 8.2 81.3-22 15.9z"/><path fill="#686360" d="M90.8 96l2.8-2.3L85 16l.9 54.7z"/><path fill="#dee8ed" d="M15 43h21v45H15z"/><path fill="#bf9091" d="M131.9 108.6l-1.5-1.3.1-12 13.8-12.8z"/><path fill="#421d14" d="M-9 159l15-43 44 45z"/><ellipse cx="65" cy="67" fill="#dae0e4" rx="7" ry="23"/><path fill="#7d191a" d="M69.5 107l-24.3 14.1 40-5.3 17.9-21.9z"/><path fill="#bcbfc0" d="M261.3 167.9l-25.4 14.7-23.3-18.3-47.7 16.5z"/><ellipse cx="210" cy="1" fill="#060a07" rx="3" ry="77"/><path fill="#b1c6b8" d="M14 108l-5 10 12-13z"/><path fill="#76878b" d="M148.9 7.2l-31 1.6-.8-16 31-1.6z"/><path fill="#817e7c" d="M55 165h64v2H55z"/><path fill="#8b653a" d="M130.9 39.5l23.4 2.2 16.3-4.9-46.4-1.8z"/><path fill="#9a9893" d="M231.4 104l1.5 1.4 38.1 2.1-53.9 11.8z"/><path fill="#302110" d="M150 81.3l9.3-4.7 13.5-18.4.4 19.5z"/><path d="M100 156h18v4h-18z"/><path fill="#ab8b91" d="M151 87h6v19h-6z"/><circle r="1" fill="#4d352b" transform="matrix(-3.10697 -4.48703 36.27224 -25.11609 217.3 82.2)"/><circle r="1" fill="#20160d" transform="matrix(5.80666 -.28187 .1882 3.8769 137.3 76.3)"/><circle r="1" fill="#a5a4a1" transform="matrix(-3.69869 .03228 -.23858 -27.33844 10.2 50.2)"/></g></g></svg>