<svg xmlns="http://www.w3.org/2000/svg" viewBox="0 0 1121 1400"><defs/><filter id="a"><feGaussianBlur stdDeviation="12"/></filter><rect width="100%" height="100%" fill="#3b3a51"/><g filter="url(#a)"><g fill-opacity=".5" transform="translate(2.7 2.7) scale(5.46875)"><ellipse cx="110" cy="108" fill="#f8f2d7" rx="130" ry="246"/><circle r="1" fill="#f1f5f4" transform="matrix(-104.71719 12.15526 -5.8712 -50.5803 101 244)"/><circle r="1" fill="#332317" transform="matrix(-36.75387 11.52743 -26.68436 -85.07997 204 130.5)"/><circle r="1" transform="matrix(-17.05613 40.7697 -20.54158 -8.59363 7.6 188.9)"/><path fill="#4c2916" d="M18.3 43.3l34.4 22.4-37 57-34.4-22.4z"/><circle r="1" fill="#fff" transform="matrix(-4.40953 -19.25302 26.36186 -6.03767 177.9 27.8)"/><circle r="1" fill="#535861" transform="rotate(169.6 41.7 103.4) scale(16.10405 31.24013)"/><ellipse cx="37" cy="26" fill="#fff" rx="49" ry="7"/><circle cx="152" cy="177" r="34" fill="#d4d6d0"/><circle cx="142" cy="18" r="10"/><circle r="1" fill="#f8f5ed" transform="rotate(-2.6 3700.7 -1558.9) scale(6.7976 76.84153)"/><circle r="1" transform="rotate(-49.2 322.6 -122.1) scale(13.37191 11.70954)"/><path fill="#1a150d" d="M144.1 160.8l.2-18.9-14.8 1.2 11.4 32.5z"/><ellipse cx="100" cy="66" fill="#6b7385" rx="21" ry="155"/><ellipse cx="24" cy="2" fill="#635f47" rx="77" ry="15"/><circle r="1" fill="#20221f" transform="matrix(4.9292 -14.56254 22.77005 7.70732 177.3 118.5)"/><path d="M-2 240l-6 16 30-13z"/><circle r="1" fill="#dddbd4" transform="matrix(-15.52484 .86797 -1.43899 -25.73823 46.6 137.1)"/><path fill="#bbd5ab" d="M220 157v25.9l-40.4-24.1 40.4-38.3z"/><path fill="#e3e5e2" d="M13 271h80l-52-94z"/><ellipse cx="116" cy="23" fill="#0e0000" rx="5" ry="13"/><path d="M154.5 37v-1l61 1v1z"/><path fill="#b7ac9c" d="M220 107.8l-14.8-13.5-19.4 7.6-10.7 15.6z"/><circle r="1" fill="#3e3638" transform="matrix(2.27098 -3.23391 28.01147 19.67077 39.8 96)"/><circle r="1" fill="#1d1d22" transform="matrix(-7.22492 -5.08219 27.60024 -39.23692 14.7 197.8)"/><path fill="#876d61" d="M4 101l9 117-29-82z"/><ellipse cx="200" cy="27" fill="#fff" rx="48" ry="8"/><circle r="1" fill="#636a91" transform="matrix(-10.15107 -3.13928 12.7716 -41.29781 141.8 104.3)"/><path fill="#c3a88d" d="M107.6-16l6.5 84.7L73.9-.6 60.6 150.5z"/><path fill="#1b0800" d="M90 8h6v26h-6z"/><path fill="#cccdc7" d="M148.6 139.3l16.4-13.6L208 271l-63.4-106.8z"/><path fill="#fff8e4" d="M32 38h50v8H32z"/><path fill="#1b221f" d="M0 34h75v4H0z"/><path fill="#efebd9" d="M63.9 32.6L-16 17.4l62.7 2.8 6.5-34.8z"/><path fill="#0a090f" d="M201 95l-35 14 46-38z"/><path fill="#0a1113" d="M180 157l-16-15 15-12z"/><path d="M187 121h10v24h-10z"/><path fill="#d3c1a1" d="M137.1 9.8l-11.2 51L113.8-16l26.3 4.4z"/><path fill="#402d31" d="M-5.6 131.4l15.1-16.1-11.2 25.9 34.7 7.6z"/><circle r="1" fill="#738ab9" transform="rotate(173.1 52.2 58.5) scale(14.29444 57.06788)"/><path fill="#fff" d="M56.3 105.5h-4l-.6-31h4z"/><path fill="#332e29" d="M3 100.9l-7.6-41.4 23.5 53.8L45.6 97z"/><path fill="#e6e5e4" d="M130.8 138.2l-10.3 20.3 3.4 14.9 10.9 7.2z"/><path d="M54 80l14 6-2 5z"/><circle r="1" fill="#d9d7d6" transform="matrix(-10.54714 18.94947 -94.15368 -52.40526 121.6 254.9)"/><path fill="#c0bba3" d="M13 162l-19 19-10-37z"/><path fill="#1c1215" d="M169.5 84l6.4 2.8-17.4 39.3-6.4-2.9z"/><path fill="#897561" d="M46.5 76l37.1-38L64 46.7-.8 99.1z"/><path fill="#996475" d="M173.7 45.1L141 66.5l19.4 33.7 22.7-56.4z"/><path fill="#1a2128" d="M63.8 19L61.3-2l8.9-1 2.5 20.8z"/><path fill="#0f1b1d" d="M12.5 79.8l25-19.4-4.2 16.7-16.5 3.1z"/><path fill="#fff" d="M65 68h5v14h-5z"/><path fill="#7d888d" d="M29.6 175.5l1.5 10.5 36.5 17.2 5.4-50.8z"/><circle r="1" fill="#a38667" transform="matrix(-32.13465 11.47167 -3.6643 -10.26452 9.3 56)"/><path fill="#0d0300" d="M132 28l14-25 6 21z"/><path fill="#b5a799" d="M8.8 97.6L7.6 82.4 10 81l20.8 15.6z"/><path fill="#b89379" d="M197.1 76.7L181.4 53l7.7-4.1 22.9 37z"/><path fill="#151622" d="M-16 139.9l64.8 32.7-6.8-11.4-18.2 7.2z"/><path fill="#20292d" d="M202.9 185.8l-24.9-15 5.1-8.6 24.9 15z"/><path fill="#190900" d="M220 66V24l-26 31z"/><circle r="1" fill="#edefee" transform="matrix(-6.07072 -30.68723 4.24024 -.83883 75.8 144.3)"/><path fill="#101518" d="M12 179h15v32H12z"/><path fill="#f8ecf1" d="M24.4 115.5l6.8-1.4 2.7-4.2 16.7 28.3z"/><path fill="#e8bd89" d="M189 150l-7-21v35z"/><path fill="#adaaa5" d="M11 213h27v17H11z"/><path fill="#e9c2a1" d="M122 41h7v68h-7z"/><path fill="#000005" d="M193 207l15 6 12-61z"/><path fill="#ac2f43" d="M32 120l-1 11-29-22z"/><path fill="#9a95a8" d="M186 87l1-17-22 35z"/><path fill="#d8af93" d="M115 12.8L103.5-8.4l-7.4 18.9 7.8 31.2z"/><path fill="#aeaca3" d="M178.9 212.9L220 250l-46.5-69.7 25.3-1z"/><path fill="#100f0c" d="M142 147l1 22-9-9z"/><path fill="#6b635a" d="M33 106l16 26 4-8z"/><path fill="#bfb29e" d="M171 123l5 11-29 1z"/><path fill="#bfa68b" d="M94.6-16H59L74.1 9.9l-4.9 109.9z"/><path fill="#c0bcb6" d="M158 34l-26-6 40 43z"/><path fill="#fff" d="M-14 141.8l28.7 3.5-.6 5-28.8-3.6z"/><path fill="#4d4f4a" d="M12 0h29v17H12z"/><path fill="#fff" d="M-1.4 234.2l3.2-6.3 11.6 6-3.2 6.2z"/><path fill="#2b261a" d="M163 54l17 20 12-6z"/><path d="M66 113l-9-12-1 10z"/><circle r="1" fill="#d7d8d9" transform="matrix(-17.20748 15.79275 -26.46238 -28.8329 148.9 231.4)"/><path fill="#e3dece" d="M1 37h20v8H1z"/><path fill="#000004" d="M9.2 219l-9.8 2-8.6-40 9.8-2z"/><circle r="1" fill="#523f20" transform="matrix(-10.73134 -37.17962 2.41982 -.69844 112 .3)"/><path fill="#24282a" d="M33 73L12 48l9 26z"/><path fill="#c6cbd9" d="M69.8 89.2l-31.4 15.4 7.9 30-1-33.3z"/><circle r="1" fill="#bdbfa8" transform="matrix(34.81138 -4.71392 2.2776 16.81958 182.4 3.1)"/><ellipse cx="82" cy="80" fill="#6f6c64" rx="5" ry="30"/><path fill="#fff" d="M146 29h59v5h-59zm8 11h43v4h-43z"/><path fill="#4f5259" d="M51 197l-5-21 22 23z"/><path fill="#372b22" d="M63.7 71.7L52.8 53.8l8.1 5.6-.1 20.3z"/><path fill="#c5c5c0" d="M53 217.2l-22.9 17.1 3.4-67.7 12.4 5.6z"/><path fill="#ead2b5" d="M45 68l1-25-8-3z"/><path fill="#634332" d="M-2.7 156.3l-2.8-50.6 26.4 44-10.6-22.1z"/><path fill="#282525" d="M21.4 89.7l14.9-2.1-4.6-7.3-39.4 46.3z"/><path fill="#e7e3d9" d="M34 19h41v16H34z"/><path fill="#cac2be" d="M45 131l-15 32-6-32z"/><circle cx="157" cy="154" r="14" fill="#dededb"/></g></g></svg>