<svg xmlns="http://www.w3.org/2000/svg" viewBox="0 0 1120 1400"><defs/><filter id="a"><feGaussianBlur stdDeviation="12"/></filter><rect width="100%" height="100%" fill="#3c3826"/><g filter="url(#a)"><g fill-opacity=".5" transform="translate(2.7 2.7) scale(5.46875)"><circle cx="141" cy="135" r="203" fill="#fff"/><circle cx="93" cy="113" r="194" fill="#fff"/><circle r="1" fill="#999154" transform="matrix(-51.39561 -.62763 1.0548 -86.3749 103 133)"/><ellipse cx="5" cy="141" fill="#fff" rx="48" ry="255"/><path fill="#fff" d="M254.5 252.5h-103v-255h103z"/><ellipse cx="94" cy="21" fill="#fff" rx="193" ry="28"/><ellipse cx="119" cy="240" fill="#fff" rx="185" ry="24"/><ellipse cx="66" cy="18" fill="#fff" rx="203" ry="31"/><ellipse cx="189" cy="162" fill="#fff" rx="39" ry="127"/><path fill="#a7a17c" d="M52 49h100v90H52z"/><path fill="#5e5a2b" d="M57 211h121v5H57z"/><ellipse cx="7" cy="165" fill="#fff" rx="26" ry="255"/><ellipse cx="121" cy="253" fill="#fff" rx="140" ry="38"/><path fill="#2a2500" d="M35.2 170.3l21.8 4.2 2.8 1.8-32.1.9z"/><path fill="#161200" d="M173 52l-29-1 26-7z"/><path fill="#4f4c23" d="M28.9 86.6l-9 9.5 1.1-2.3h49.5z"/><ellipse cx="163" cy="132" fill="#191400" rx="11" ry="3"/><path fill="#54512a" d="M153.6 94.5l21.5 5.1-3.5-8.4-21.6-.6z"/><path fill="#555438" d="M35 50h130v3H35z"/><ellipse cx="40" cy="132" fill="#666134" rx="11" ry="5"/><path fill="#b5b08c" d="M55 149h96v65H55z"/><ellipse cx="79" cy="24" fill="#fff" rx="165" ry="26"/><path fill="#9c9872" d="M63 174h108v7H63z"/><ellipse cx="14" cy="198" fill="#fff" rx="41" ry="24"/><path fill="#fff" d="M0 57h53v31H0z"/><circle r="1" fill="#fff" transform="rotate(174.4 43.3 123.2) scale(117.67202 22.49959)"/><ellipse cx="196" cy="132" fill="#fff" rx="25" ry="164"/><path fill="#6e6831" d="M41.2 215.9l22-2.2-27.1 10.7.3-3.2z"/><path fill="#fff" d="M0 136h53v32H0zm0-42h53v33H0z"/><path fill="#6b6634" d="M34.9 58.2l11.6-5.1 19.8-4.9-33.1 6.1z"/><ellipse cx="95" cy="133" fill="#343420" rx="63" ry="1"/><ellipse cx="99" cy="92" fill="#302f1c" rx="68" ry="1"/><path fill="#2c2809" d="M152 212h18v4h-18z"/><path fill="#b7b28d" d="M53 52h99v38H53z"/><circle r="1" fill="#fff" transform="matrix(18.15172 -.64373 4.92273 138.80929 14 156.3)"/><path fill="#fff" d="M152 53h52v35h-52z"/><path fill="#64634a" d="M36 173h115v3H36z"/><ellipse cx="115" cy="194" fill="#bdb998" rx="35" ry="20"/><path fill="#fff" d="M-16 0l235-2L23 54z"/><path fill="#6e683c" d="M171 182l-34.3-11 .3-1 34.3 11z"/><circle r="1" fill="#fff" transform="matrix(-13.6497 5.67835 -10.01098 -24.06452 172 159)"/><path fill="#b7b391" d="M54 152h46v61H54z"/><path fill="#fff" d="M0 177h54v36H0z"/><path fill="#747251" d="M35.2 167.4l17.6 9.4-20 .5-2.2-13.7z"/><ellipse cx="97" cy="237" fill="#fff" rx="84" ry="21"/><path fill="#fff" d="M155 179l64 12-69 21zm0-82h49v32h-49z"/><path fill="#beb897" d="M54 97h88v20H54z"/><ellipse cx="40" cy="90" fill="#34310e" rx="10" ry="2"/><path fill="#fff" d="M152 134h52v39h-52z"/><path fill="#5e5a33" d="M169 210h6v7h-6z"/><path fill="#948f6c" d="M54 54h89v5H54z"/><path fill="#747152" d="M44 135l-12-11 25 9z"/><path fill="#fff" d="M53 53l-4 33-65-17z"/><path fill="#b8b491" d="M127 135h23v78h-23z"/><path fill="#fffffd" d="M2 130.8v-1l42 1.4v1z"/><circle cx="170" cy="131" r="4" fill="#6d6a3f"/><path fill="#817f56" d="M165 42h7v8h-7z"/><ellipse cx="98" cy="27" fill="#fff" rx="98" ry="22"/><ellipse cx="140" cy="214" fill="#615f45" rx="24" ry="2"/><path fill="#302f14" d="M159.5 91.4l11.5 3.3-.5 2-11.5-3.4z"/><path fill="#fff" d="M53 172l-69-26 66-10zm0-43l-3-35-66 16z"/><ellipse cx="104" cy="133" fill="#7a775a" rx="58" ry="2"/><path fill="#b9b493" d="M62 59h90v32H62z"/><path fill="#76745b" d="M64 91h100v3H64z"/><path fill="#7a785d" d="M51 214h52v3H51z"/><ellipse cx="56" cy="49" fill="#878865" rx="14" ry="1"/><path fill="#b9b494" d="M57 178h91v36H57z"/><ellipse cx="191" cy="166" fill="#fff" rx="16" ry="255"/><path fill="#fff" d="M151 176l68 27-69 5z"/><path fill="#949374" d="M32.8 140l1.4-16h1l-1.4 16z"/><path fill="#666449" d="M41 174h91v2H41z"/><path fill="#fff" d="M152 99h42v30h-42zM57 215l-7-36-49 29z"/><path fill="#b9b495" d="M64 135h85v39H64z"/><path fill="#322f16" d="M40 175l12-1-19-4z"/><path fill="#fff" d="M-.2-14.9L.8 271l17.7-119.7 16.3-22zm153.8 97.4l60.1 39.8-.9-94.1-60.4 35.9z"/><path fill="#252107" d="M46 133.6v1l-16-.2v-1z"/><path fill="#4f4e39" d="M110 50h52v2h-52z"/><path fill="#37340f" d="M155 48h13v3h-13z"/><circle r="1" fill="#676336" transform="matrix(4.99635 2.98303 -.51263 .85861 166.8 180.7)"/><ellipse cx="63" cy="235" fill="#fff" rx="28" ry="19"/><ellipse cx="101" cy="130" fill="#c5c2a4" rx="51" ry="2"/><circle r="1" fill="#fff" transform="matrix(21.327 -2.56573 1.54144 12.8128 150.8 36.7)"/><circle r="1" fill="#95947a" transform="rotate(11.5 -991.4 946.3) scale(8.83004 1)"/><circle cx="30" cy="91" r="4" fill="#767146"/><path fill="#8c8968" d="M95 150h53v2H95z"/><path fill="#fff" d="M-16 94L24-16l20 61z"/><ellipse cx="42" cy="149" fill="#fff" rx="11" ry="15"/><ellipse cx="102" cy="112" fill="#8e8968" rx="48" ry="1"/><path fill="#fff" d="M-16 85l69-33-5 34z"/><circle r="1" fill="#fff" transform="matrix(-.71696 22.58875 -85.84708 -2.72474 109.5 239.1)"/><path fill="#534e26" d="M36.1 222.2l-.3-1 16-5.4.4 1z"/><path fill="#8c875c" d="M142 176h25v2h-25z"/><path fill="#fff" d="M163 52h5v30h-5z"/><path fill="#aca883" d="M147.7 87.4l3.7-1.6-.3-36.1-22.4 6.6z"/><path fill="#fff" d="M180.6 157.8l-10.1 20.7-17-8.3 10-20.7z"/></g></g></svg>