<svg xmlns="http://www.w3.org/2000/svg" viewBox="0 0 1400 933"><defs/><filter id="a"><feGaussianBlur stdDeviation="12"/></filter><rect width="100%" height="100%" fill="#72523b"/><g filter="url(#a)"><g fill-opacity=".5" transform="translate(2.7 2.7) scale(5.46875)"><circle r="1" fill="#fff" transform="matrix(130.91692 14.50126 -7.75008 69.96745 62.2 39.5)"/><circle r="1" fill="#d9f0fd" transform="matrix(30.63608 7.8493 -5.28216 20.61648 241 109.6)"/><circle r="1" fill="#f1ffff" transform="matrix(39.611 4.76767 -6.17882 51.33516 36.2 43.6)"/><circle r="1" fill="#4d2200" transform="matrix(-22.45564 -11.1424 11.63817 -23.45478 147 65.2)"/><circle r="1" fill="#e0ffff" transform="rotate(-92 166.1 2.9) scale(10.44158 240.16833)"/><circle r="1" fill="#340000" transform="rotate(172.5 49 74) scale(113.16673 19.48945)"/><circle r="1" fill="#d5334b" transform="matrix(.83431 18.37299 -109.48136 4.97152 76 111.2)"/><ellipse cx="189" cy="137" fill="#070000" rx="42" ry="17"/><path fill="#afc4d3" d="M88 0h102v40H88z"/><circle r="1" fill="#eef6ff" transform="matrix(-18.30178 -43.9672 22.65301 -9.42954 44.7 53.8)"/><path fill="#afb9c9" d="M122 153h86v17h-86z"/><path fill="#7ba097" d="M210 0h40v33h-40z"/><path fill="#7b8b7f" d="M-11 48l29 8-1-72z"/><ellipse cx="178" cy="24" fill="#82868a" rx="18" ry="70"/><ellipse cx="202" cy="33" fill="#151a17" rx="7" ry="119"/><circle r="1" fill="#73050a" transform="matrix(-80.18045 4.75345 -.92914 -15.67252 83 135.2)"/><path fill="#cc6974" d="M124 84l-4 32 112-27z"/><circle r="1" fill="#4c0002" transform="matrix(25.07639 -11.50586 8.27777 18.04093 182.2 118.2)"/><ellipse cx="97" cy="64" fill="#fff9d6" rx="8" ry="31"/><path fill="#738797" d="M271 180l-64-65 53 17z"/><ellipse cx="27" fill="#fff" rx="11" ry="95"/><circle r="1" fill="#eaeef6" transform="matrix(-5.62782 -25.81153 12.90109 -2.8129 130.1 15.2)"/><ellipse cx="45" cy="44" fill="#aaaaab" rx="7" ry="53"/><ellipse cx="63" cy="168" fill="#e8eaf9" rx="81" ry="4"/><path fill="#2d373c" d="M212 125h27v35h-27z"/><path fill="#b4b4af" d="M209 88h47v35h-47z"/><path fill="#72706b" d="M134 53L78 8l35 9z"/><path fill="#5d401e" d="M165 89l3-49-43 14z"/><ellipse cx="59" cy="23" fill="#eef8ff" rx="10" ry="72"/><path fill="#525b69" d="M12.9 94.1l-2.3-13.4L6.8-9.5l7.1 74.3z"/><path fill="#868f92" d="M71 0h17v79H71z"/><path fill="#bb898e" d="M13 122l25-15-48-13z"/><path fill="#a78a53" d="M207.6 43.2l28.7-4 4.1 29.6-28.7 4z"/><ellipse cx="229" cy="37" fill="#021c1e" rx="41" ry="4"/><ellipse cx="178" cy="65" fill="#aeb9c1" rx="13" ry="21"/><path fill="#091612" d="M-16 161.1l142.3-5.8 38.9-26.9-64.9 36.5z"/><path fill="#b83231" d="M47 103h77v22H47z"/><path fill="ivory" d="M0 54h8v45H0z"/><ellipse cx="110" cy="16" fill="#969593" rx="41" ry="5"/><path fill="#dda4ab" d="M152 93l-2 18.8-26-2.7 2-19z"/><path fill="#edf5ff" d="M95.8 12.7l-11-16 82-12.7L128 8.4z"/><path fill="#fbffff" d="M74 94l-13 2 10-48z"/><path fill="#3b3525" d="M190.9-16l-.4 77.8 30.9-28.1-26.9 6.3z"/><path fill="#c7aa7c" d="M107 41h20v51h-20z"/><path fill="#b23744" d="M156 87h30v20h-30z"/><path fill="#b2b3b6" d="M118.5 154.2L97 177.7l80.7-13.4-4.3-8.4z"/><path fill="#2c0804" d="M194 155l-83-9 100-42z"/><path fill="#2f4242" d="M250.2-12l16 1.2-6.4 90.7-16-1z"/><path fill="#a84347" d="M53.6 95.6l-1.2.4-60.7 25.3 27.6-27z"/><path fill="#ad8e62" d="M150.7 39.2l.6 12-30 1.6-.6-12z"/><path fill="#fff" d="M21 40h19v53H21z"/><path fill="#efe4d0" d="M88 26h20v23H88z"/><path fill="#ed776f" d="M86.9 116.4l83.6-32.3-45.5 6.5-28.9 9.9z"/><path fill="#9ca6a1" d="M225.3 36.3l18.8-3.6 7.6-6.4-25.6-5.5z"/><ellipse cx="218" cy="85" fill="#425862" rx="39" ry="5"/><path fill="#aca59d" d="M203.4 90.3l67.6-4.5-48 35.3-19.9-26.2z"/><path fill="#513713" d="M128 90l11-12-16 1z"/><path fill="#fcffff" d="M134 20l-19 7 30 13z"/><path fill="#6d474e" d="M29 146l24-45-46 26z"/><path fill="#8a8789" d="M238.2 114.8l36.5 16.3-8.9 20-36.5-16.2z"/><path fill="#8f877e" d="M250.9 77.3l.2 6-40 1.4-.2-6z"/><path fill="#d6d8de" d="M206 119h26v4h-26z"/><path fill="#888785" d="M159 30v-41l31 47z"/><circle r="1" fill="#1c1f17" transform="matrix(-46.76239 8.17714 -.61634 -3.52464 128.5 151.7)"/><ellipse cx="198" cy="50" fill="#030c0e" rx="2" ry="49"/><path fill="#bfbdc1" d="M13 24h7v71h-7z"/><path fill="#e78584" d="M103.9 91.6l15.8.9-71.8 14.9-2.5-10.6z"/><path fill="#7b7976" d="M175 152h9v18h-9z"/><circle r="1" fill="#97211f" transform="matrix(-1.37527 -6.75966 32.11907 -6.5347 128.1 122.3)"/><ellipse cx="50" cy="57" fill="#c3c0bb" rx="5" ry="38"/><path fill="#000a07" d="M0 158h19v7H0z"/><path fill="#676149" d="M227.5-1.2L253 11.9l-29 30 24.6 28.4z"/><circle r="1" fill="#8b6763" transform="rotate(-73.5 87.3 65.1) scale(28.4673 6.73542)"/><path fill="#b6b7b9" d="M25 164h142v2H25z"/><path fill="#e6d7ba" d="M116 61h10v13h-10z"/><path fill="#8e8272" d="M209 104h47v6h-47z"/><path fill="#5f482c" d="M147.5 87.1l19.4-1.7-6-43.7-9.7-3.4z"/><circle r="1" fill="#eef7ff" transform="matrix(5.59381 -.15977 2.8775 100.74332 63.5 0)"/><path fill="#696e72" d="M94 21.9l-3.7-3.1 41 26-19.6-23.3z"/><path fill="#3d4143" d="M207 137h39v21h-39z"/><ellipse cx="27" fill="#f9ffff" rx="9" ry="94"/><path fill="#e6d5bd" d="M109 40h17v9h-17z"/><path fill="#caeedf" d="M17 113.6l-2 8.6 7.2-11.2-1-.2z"/><path fill="#a22727" d="M42.2 101.8L13 109.1l-1.3-4.9L41 96.9z"/><path fill="#9e7b48" d="M141 59l11 10-43 8z"/><ellipse cx="63" cy="126" fill="#871e21" rx="33" ry="7"/><path fill="#a7a49f" d="M99.6 88.7l-27.3 7.6L69.7-9.1 92 78.6z"/><path fill="#6f502a" d="M201 41h8v44h-8z"/><path fill="#272926" d="M201 92l-21-7 21-1z"/><path fill="#071817" d="M158 150l51-13-11 16z"/><path fill="#4f3723" d="M124.1 55.1l1.2-6.9L152 53l-1.2 6.9z"/><path fill="#b42e2d" d="M89.6 114.2l-20.7-5.4 28.8-10.3-8.9 17z"/><path fill="#959c8c" d="M202.4 9.8l19.5-1.6 3.7-24.2h8.5z"/><circle r="1" fill="#646466" transform="rotate(-113.6 170.4 -2.6) scale(8.47586 6.99362)"/><path fill="#a58968" d="M145.4 37.8L88.7 58.2l4.5-2.2 21.9 3.6z"/><path fill="#510806" d="M203.7 139.9L98.3 150.2l101.8-50.1-16.9 37.3z"/><path fill="#818181" d="M15 82l-8-5 7 19z"/><path fill="#ecdec7" d="M96 27h10v65H96z"/><ellipse cx="147" cy="2" fill="#bcbdc5" rx="10" ry="40"/><path fill="#fefffc" d="M12 95l-13-1 6-8z"/></g></g></svg>