<svg xmlns="http://www.w3.org/2000/svg" viewBox="0 0 1120 1400"><defs/><filter id="a"><feGaussianBlur stdDeviation="12"/></filter><rect width="100%" height="100%" fill="#3f426c"/><g filter="url(#a)"><g fill-opacity=".5" transform="translate(2.7 2.7) scale(5.46875)"><circle r="1" fill="#ffffe7" transform="rotate(-125.7 53 22) scale(94.98941 203)"/><path fill="#c6c3b5" d="M-15 255L219 72 97-16z"/><circle r="1" fill="#001012" transform="matrix(-107.67022 97.83294 -12.49091 -13.7469 69 216.3)"/><circle r="1" fill="#2f6cad" transform="matrix(90.59877 -37.12225 15.40856 37.60538 193.8 168.7)"/><ellipse cx="102" cy="251" fill="#00182b" rx="99" ry="43"/><path fill="#bdbdba" d="M130.2 58.6l80.2 25.9-49.1 33.6-102.6 83.5z"/><path fill="#0a0700" d="M-43.3 297.8l-7.3-9.5 163.9-128 7.3 9.4z"/><circle r="1" fill="#3b79bc" transform="matrix(13.40547 -55.41155 20.82037 5.03698 202.9 147.2)"/><path fill="#acaea5" d="M-16 260l126-105L7 34z"/><path fill="#9d9d95" d="M117 27.7L75 89.9-31 18.3l42-62.2z"/><circle r="1" fill="#2c3a5f" transform="matrix(-26.70741 35.29632 -17.22575 -13.03409 155.3 152.6)"/><ellipse cx="167" cy="182" fill="#598bbf" rx="12" ry="21"/><path fill="#485da3" d="M111 182h21v40h-21z"/><circle r="1" fill="#8d8084" transform="matrix(-10.31573 18.3824 -6.51351 -3.65521 169 56.7)"/><circle r="1" fill="#244e84" transform="rotate(-36 432.3 -168.2) scale(37.58901 15.98775)"/><path fill="#111e33" d="M136 162.2l-63.3 65.6 47.9-76.8 34.1-24.6z"/><path fill="#c2beb3" d="M207 51L55-1l108-2z"/><path fill="#0d1000" d="M196.3 101.4l22.6-24.3-92.9 72.4 25.7-14.6z"/><path fill="#78747b" d="M118.5 74.8L110 91.5l-6.1-25.8 3.8-1.9z"/><circle r="1" fill="#131417" transform="matrix(-2.25538 -31.30983 23.9303 -1.7238 40.6 249.2)"/><path fill="#4e4c4c" d="M16.5 207.6l9.2-7.8 3.8 4.6-9.2 7.8z"/><path fill="#c9c6c3" d="M178 108l41-35-113 35z"/><ellipse cx="144" cy="195" fill="#24385e" rx="9" ry="39"/><path fill="#1d1718" d="M54 51h5v8h-5z"/><circle r="1" fill="#c2c3bc" transform="matrix(18.60723 -17.2909 2.99068 3.21835 44.3 199.9)"/><path fill="#504246" d="M152 89l-7-2 4-10z"/><path fill="#101008" d="M4.6 242.4l40-17.5L-6.3 271l-9.7-21.6z"/><ellipse cx="77" cy="60" fill="#b4b9bc" rx="7" ry="46"/><path fill="#3774ba" d="M182.2 154.2l36.8 85.1-32-25.2 32-55.8z"/><circle cx="89" cy="50" r="6" fill="#68616f"/><ellipse cx="99" cy="254" fill="#081a33" rx="35" ry="15"/><path fill="#163055" d="M219 243.5l-54.2 3.4 17.7-35.6 9.6 8.5z"/><path fill="#a4a39f" d="M133.4 142.1l-16.7 14.7L31 218.4 6.8 185.5z"/><circle r="1" fill="#bec3c1" transform="matrix(-13.21078 -80.74884 13.6111 -2.22682 125.8 44.1)"/><path fill="#62585f" d="M59.8 14.4l6-.6 2.4 23.8-6 .6z"/><circle cx="61" cy="114" r="46" fill="#adb2b2"/><path fill="#253963" d="M173.5 179.9l14.5-6.5 8.3 15.4 16.7-.9z"/><path fill="#375182" d="M160 133l40-35-6 28z"/><path fill="#827d8c" d="M101 14h9v30h-9z"/><path fill="#7f7870" d="M4 202h6v37H4z"/><path fill="#94968e" d="M5 77l15-67-36-20z"/><path fill="#8b7f79" d="M191 19l-11-35 1 46z"/><path fill="#13150c" d="M202.1 92.6l-104 83.5 4.1-7.3 33.8-28.6z"/><path fill="#7b7376" d="M173.4 29.5l-2.1 28.2-2.1-3.1 9 18.3z"/><path fill="#213867" d="M61.4 245l18.5-28.4 6.7 4.3-18.5 28.5z"/><circle r="1" fill="#534c37" transform="matrix(1.08717 1.38652 -118.32727 92.78043 11.1 239.2)"/><path fill="#574e75" d="M130.8 228.5l4.9-20.8-18.8-16.6-2.4 5.4z"/><circle cx="86" cy="19" r="2" fill="#0c000d"/><path fill="#c9cabf" d="M-1.9 236.4L-6 206.7l7.9-1.1L6 235.3z"/><path fill="#5a5358" d="M110 63l-8 10 4 4z"/><path fill="#6c716d" d="M42 105l6-13-16 18z"/><path fill="#2d5a9e" d="M107 242l-2-18 7-12z"/><path fill="#375485" d="M179 173l-22-37-15 14z"/><path fill="#3d76aa" d="M149 204l30 23-14-31z"/><path fill="#b2aca8" d="M129-16l58 28-37 65z"/><path fill="#343637" d="M153.2 143.1l-16-8.5 10.4-3.8 12.1-17.9z"/><path fill="#3c413a" d="M24.3 157.5l.8.6-5.4 8.4-.8-.6z"/><path fill="#bec7cb" d="M119 102l-17 63 49-48z"/><path fill="#7f8688" d="M66 180l-9-1 6-25z"/><path fill="#876f62" d="M35 186l4-23 2 15z"/><path fill="#345a9d" d="M122 167l14 10-7-19z"/><path fill="#d5d8c8" d="M-14 126l30-3-32-23z"/><ellipse cx="94" cy="130" fill="#978d89" rx="2" ry="37"/><circle r="1" fill="#182840" transform="matrix(9.3264 -16.56956 16.27009 9.15783 84.8 216)"/><circle r="1" fill="#c5c6c2" transform="rotate(-62.3 177.4 61.3) scale(40.4263 2.49942)"/><path fill="#c3c5c4" d="M74 52h18v16H74z"/><circle r="1" fill="#b9bcb7" transform="matrix(5.36541 -9.57102 31.45392 17.63274 71.6 120.8)"/><circle r="1" fill="#a7a5a4" transform="matrix(-16.96282 15.87353 -18.95843 -20.25942 68.7 81.7)"/><path fill="#496fb2" d="M155 238l8 7.6-4 4.3-8-7.5z"/><path fill="#1a3975" d="M127.4 213.5l-9.8-14.8-14.9-23.9 6.7 31.8z"/><circle r="1" fill="#2f578c" transform="rotate(74.7 -65.8 260.5) scale(48.21232 3.33963)"/><path fill="#26385c" d="M179.3 183.9l-6.4-47.2 13.5-34.2-23.4 41.1z"/><circle r="1" fill="#8b9390" transform="matrix(-.97507 -3.54247 22.22908 -6.1186 8.4 129.1)"/><path fill="#40454b" d="M34.4 271l-17.3-27.2L33.2 254l-3.1 17z"/><path fill="#899193" d="M59.9 121.2l2.5 4.2-22.3 13.4-2.5-4.2z"/><path fill="#3b75ce" d="M117 220l-5-10 11 5z"/><path fill="#b6aba5" d="M158.7 122.4l-7.9-6.6V51.2l20.6 14.2z"/><path fill="#575151" d="M16.5 204.7l2.4-1.7 8.6 12.3-2.4 1.7z"/><path fill="#050d1a" d="M24.3 271h69.5l-15.5-24.6 2.2-5.5z"/><path fill="#bfafa0" d="M7 138l17 66-27-15z"/><path fill="#908576" d="M4 136l-14 7 13 29z"/><path fill="#c1c6bf" d="M25 107l10-25 1 59z"/><path fill="#879290" d="M1.1 110.6l12-37 5.8 1.8-12 37z"/><ellipse cx="194" cy="36" fill="#b4b2ae" rx="5" ry="58"/><circle r="1" fill="#747474" transform="matrix(3.65921 7.15073 -2.24317 1.14789 63.7 52.7)"/><circle r="1" fill="#103158" transform="matrix(-2.9721 .60164 -2.63258 -13.00496 190.6 115.6)"/><path fill="#0c1c35" d="M141.3 253.5l-45.1-42.1-2.8-44 10.4 39.8z"/><path fill="#938b87" d="M26.2 200.8l-11.8 37.8-17.5-13 37.6-26.2z"/><path fill="#5794c8" d="M167.8 169l-5.1 16.3 9.5-.8.7-19.3z"/><path fill="#80797a" d="M82 3l2 21-8-11z"/><path fill="#172e52" d="M123.7 238.5l82.4 4.9-49.6 27.6 6.2-64.3z"/><path fill="#746c75" d="M108 39l-12 2 17-13z"/><path fill="#4f619a" d="M174.3 143.3l11-33 2.3 38.6-10.9-10.3z"/><path fill="#c2c9ca" d="M81 75h5v53h-5z"/><path fill="#545344" d="M58.4 192.8l1 .4-7.8 14-1-.4z"/><path fill="#b8ada1" d="M32 216L2 205l18 20z"/><path fill="#c5c4bc" d="M42.4 213.4l9.4-13.5-20.6 9.2-13.2-8.8z"/><path fill="#aba8a5" d="M73-5.9L57.6 31.3l58.7 5.4L28.9-9.9z"/><path fill="#5e5961" d="M93 26l-1-9 3-2z"/><path fill="#aeb4b4" d="M5.2 40.3l17.1 53.2L10.5 30l-15.8 9z"/></g></g></svg>