<svg xmlns="http://www.w3.org/2000/svg" viewBox="0 0 1120 1400"><defs/><filter id="a"><feGaussianBlur stdDeviation="12"/></filter><rect width="100%" height="100%" fill="#54442c"/><g filter="url(#a)"><g fill-opacity=".5" transform="translate(2.7 2.7) scale(5.46875)"><circle cx="109" cy="167" r="203" fill="#fff"/><circle cx="83" cy="55" r="235" fill="#fbfff6"/><circle r="1" fill="#625d33" transform="matrix(.92201 94.01831 -55.1222 .54057 102.5 135.8)"/><ellipse cx="104" cy="13" fill="#fff" rx="203" ry="31"/><ellipse cx="15" cy="135" fill="#fff" rx="35" ry="243"/><ellipse cx="104" cy="55" fill="#484523" rx="81" ry="11"/><path fill="#434122" d="M27 205h152v18H27z"/><circle r="1" fill="#fff" transform="matrix(43.07037 -1.22441 3.58846 126.22907 197.9 163.9)"/><path fill="#3d3b1e" d="M29 126h146v15H29z"/><circle r="1" fill="#fff" transform="matrix(.7516 21.95314 -174.75363 5.983 121 243.8)"/><ellipse cx="149" cy="18" fill="#fff" rx="203" ry="27"/><path fill="#4f4d2d" d="M138 202h46v17h-46z"/><ellipse cx="193" cy="95" fill="#fff" rx="41" ry="37"/><ellipse cx="197" cy="108" fill="#fff" rx="21" ry="246"/><circle r="1" fill="#fff" transform="matrix(0 148.88774 -18.56324 0 8.6 146.8)"/><ellipse cx="97" cy="240" fill="#fff" rx="203" ry="16"/><path fill="#959072" d="M49 44h105v50H49z"/><path fill="#545339" d="M173 72l2-30-33 9z"/><circle r="1" fill="#fff" transform="matrix(-19.23486 -26.66979 20.243 -14.59971 21.5 177.6)"/><path fill="#969274" d="M50 166h106v57H50z"/><path fill="#fff" d="M16 61h34v61H16z"/><path fill="#58573b" d="M177.6 143.1l-48.1-3.2 23.4-1.1 22.1-16.3z"/><path fill="#6b6a4d" d="M24 124h29v18H24z"/><path fill="#4c4a2f" d="M26 208h48v13H26z"/><path fill="#3d3c20" d="M22 50h53v5H22z"/><path fill="#fff" d="M192.5 202.2l-37-2.6 4-55.8 37 2.6z"/><circle r="1" fill="#fff" transform="rotate(-174.8 46 5.7) scale(125.62116 27.24759)"/><path fill="#fff" d="M219 82l-66 44 2-62z"/><ellipse cx="126" cy="251" fill="#fff" rx="154" ry="28"/><path fill="#fff" d="M0 142h49v66H0z"/><circle r="1" fill="#aba68b" transform="matrix(49.9061 -1.5138 .94879 31.27894 104.2 93.7)"/><ellipse cx="102" cy="170" fill="#a9a489" rx="53" ry="31"/><path fill="#54533d" d="M110 204h67v7h-67z"/><path fill="#fff" d="M17.3 133.4L16.1-16-16 161l52.1-21.6zM-16 224l55 47 13-51z"/><ellipse cx="192" cy="123" fill="#fff" rx="13" ry="146"/><path fill="#a29e82" d="M51 65h103v59H51z"/><ellipse cx="165" cy="212" fill="#f7f8ed" rx="12" ry="2"/><path fill="#6b6952" d="M49 49h116v15H49z"/><ellipse cx="98" cy="133" fill="#cdc9af" rx="54" ry="1"/><path fill="#36351a" d="M180 213l-19 1 22 7z"/><path fill="#817e61" d="M53 224l-2-40 45 38z"/><circle r="1" fill="#fff" transform="rotate(119.2 79.2 58.8) scale(32.68325 17.45097)"/><path fill="#5a583f" d="M179 143l-26-4 6-13z"/><path fill="#fff" d="M47 59l3 66-66-11z"/><ellipse cx="56" cy="18" fill="#fff" rx="203" ry="25"/><path fill="#a29d81" d="M71 140h84v64H71z"/><path fill="#fff" d="M155 141l64 18-62 44z"/><path fill="#aeab95" d="M49 136h124v2H49z"/><path fill="#fff" d="M155 219h15v37h-15zm-1-149h26v57h-26z"/><circle r="1" fill="#474732" transform="rotate(-81.6 95.4 38) scale(1 20.48587)"/><path fill="#bfbb9c" d="M51 51h97v2H51z"/><path fill="#363420" d="M55 49h116v2H55z"/><path fill="#363523" d="M84 217h89v2H84z"/><ellipse cx="41" cy="135" rx="7" ry="2"/><path fill="#aca78b" d="M50 113h101v14H50z"/><path fill="#fff" d="M-16 215.7l52.2-2-52.2 32.8 235 13.6z"/><path fill="#5b5b40" d="M25.4 59.4l36.8-2.2-34 5.8 2.7.8z"/><path fill="#141400" d="M159 207h15v4h-15z"/><path fill="#fff" d="M0 145h50v61H0zm178.6-88l19.8 214L219 57.7l-53.2-5.8z"/><path fill="#b8b499" d="M113 206h51v2h-51z"/><path fill="#090c00" d="M171.4 202l-12.6 3-.2-1 12.6-3z"/><path fill="#6d6c53" d="M24 207h68v8H24z"/><path fill="#f9f9f9" d="M172.7 134.5l-11.4-.1 57.7 12.4v18.3z"/><path fill="#4e4d33" d="M177 132l-21 2 19-11z"/><path fill="#a19f83" d="M57 220h96v4H57z"/><path fill="#f5f4e8" d="M154 60.3l44 2.4v1l-44-2.4z"/><path fill="#b6b294" d="M139.5 54.5v1l-119 2v-1z"/><circle cx="168" cy="126" r="4" fill="#e3e0c2"/><path fill="#2d2d1c" d="M55 206h71v1H55z"/><path fill="#20200b" d="M158 48h15v4h-15z"/><path fill="#bbbaa7" d="M15.4 115.2l20.2 16.2 23.9-4.6-15.5 7.5z"/><path fill="#fff" d="M0 0h48v48H0z"/><path fill="#2b2a18" d="M27 207l10 10 12-2z"/><path fill="#fff" d="M26 146.2l3.3-21.2-45.3 77.5 39.1 48.8z"/><path fill="#625e3e" d="M172.6 68.3L140 60.7l20.5 1.7v-4.8z"/><path fill="#fff" d="M152.4 49.8l9.8-16.8 22.5-49-19.2 62.8z"/><path fill="#b2ad8e" d="M32 212h57v2H32z"/><path fill="#a7a586" d="M32.4 143.1l4.8-12.1-5.5 18.1-4.6-9.4z"/><ellipse cx="65" cy="219" fill="#292814" rx="32" ry="1"/><ellipse cx="91" cy="130" fill="#afaa8d" rx="69" ry="1"/><path fill="#fff" d="M30.8 54.1l-11.7 6.7L-16-16 9.6 260.7z"/><ellipse cx="86" cy="46" fill="#a19e83" rx="38" ry="3"/><ellipse cx="113" cy="60" fill="#bcb89a" rx="46" ry="1"/><ellipse cx="98" cy="208" fill="#afab91" rx="42" ry="1"/><path fill="#464528" d="M175.3 41l-3.6 10.4-1-.4 3.6-10.4z"/><path fill="#44422e" d="M40 210h66v2H40z"/><path fill="#a19c80" d="M50 64h103v49H50z"/><ellipse cx="136" cy="247" fill="#fff" rx="133" ry="24"/><circle r="1" fill="#fdfdf9" transform="rotate(111.7 70.2 98.9) scale(2.52663 22.96838)"/><path fill="#a09c7f" d="M51 140h43v66H51z"/><circle r="1" fill="#2c2c1a" transform="rotate(-176.1 23.1 69.6) scale(7.12302 1)"/><path fill="#4c4b36" d="M34 53h131v2H34z"/><path fill="#35341b" d="M33 136l-6-6 24 4z"/><path fill="#fff" d="M48.7 125.2l-.8-63.7-14.3-.6L-16 119z"/><path fill="#44422b" d="M28 49l-1 7 11-4z"/><ellipse cx="117" cy="58" fill="#43412c" rx="57" ry="1"/><path fill="#fff" d="M153 67h13v34h-13z"/></g></g></svg>