<svg xmlns="http://www.w3.org/2000/svg" viewBox="0 0 1120 1400"><defs/><filter id="a"><feGaussianBlur stdDeviation="12"/></filter><rect width="100%" height="100%" fill="#513b35"/><g filter="url(#a)"><g fill-opacity=".5" transform="translate(2.7 2.7) scale(5.46875)"><circle r="1" fill="#fff" transform="matrix(-173.45514 105.46238 -72.2128 -118.76918 91.3 104.4)"/><circle r="1" fill="#000205" transform="matrix(31.00031 14.32415 -14.65898 31.72494 134.6 134.6)"/><circle r="1" fill="#fcfaec" transform="matrix(197.09998 48.58597 -13.2254 53.6518 142.4 42.5)"/><circle r="1" fill="#b65315" transform="matrix(-11.49772 -29.18865 43.51972 -17.14287 38.2 103.2)"/><circle r="1" transform="rotate(157.4 57.6 127.6) scale(25.30858 17.60109)"/><ellipse cx="199" cy="144" fill="#e3f7ff" rx="34" ry="77"/><path fill="#fff" d="M8.7 133.3l24 .4-1.4 83-24-.4z"/><circle cx="99" cy="207" r="73" fill="#707470"/><path fill="#fff" d="M127 221h12v35h-12z"/><ellipse cx="109" cy="240" fill="#fff" rx="7" ry="20"/><path fill="#000510" d="M149 101h17v65h-17z"/><circle r="1" fill="#84421f" transform="matrix(2.94567 -34.74765 16.59152 1.40652 74 148.3)"/><circle r="1" fill="#fff" transform="matrix(4.45922 2.09705 -13.08092 27.81559 59.7 247.8)"/><path fill="#fffff9" d="M0 135h56v25H0z"/><ellipse cx="192" cy="229" fill="#1e1e21" rx="58" ry="26"/><path fill="#000009" d="M34.1 226.4l10.6-5.7L23 258.8-1.4 271z"/><path fill="#000513" d="M10.4 241.3L24.9 219 2.4 235.2-16 271z"/><circle r="1" fill="#fff" transform="rotate(152.4 48.5 147.1) scale(6.53924 12.36363)"/><ellipse cx="85" cy="242" fill="#fff" rx="5" ry="45"/><ellipse cx="122" cy="194" fill="#fff" rx="4" ry="31"/><path fill="#fff" d="M53 223.6l-30 54.2-6-3.4 30-54.2z"/><path fill="#050801" d="M71 164l-42-3v14z"/><path fill="#000311" d="M52.3 273.2l49-84.9 4.4 2.5-49 84.9z"/><path d="M101 267.8l-10-.8 4-46.8 10 .8z"/><path fill="#cbaf98" d="M100 166l28-78-72-26z"/><path fill="#0d1825" d="M134.2 211.9L120.9 77.7l5.8 127-17 66.3z"/><path fill="#00101e" d="M28.5 271l31-54.5 3.3 14.8-16.4 27.6z"/><path fill="#fffff3" d="M46.7 217.8l-36.4 22.4 31.8-26.7 67.8-89.3z"/><path fill="#fff" d="M8.8 223.1l65.3-61.2L29.9 215l-3.1 6.3z"/><ellipse cx="139" cy="202" fill="#fff" rx="5" ry="18"/><circle r="1" fill="#fcf9ec" transform="matrix(2.66065 1.50005 -20.1826 35.79803 73.7 196.6)"/><path fill="#fff" d="M114.2 171.1l-9.5 49.1-7-1.3 9.6-49.1zm30.8-.1l18 28-7 9z"/><path fill="#030f1d" d="M106.8 221.3l7.8-62.8 3.5 6.4-1.6 52.3z"/><path fill="#fffff6" d="M102.7 176.2l-18 44.6-7.4-3 18-44.6z"/><path d="M9.5 176.9l-17.1-10.1-3.1 1.7 16.3-8.6z"/><path fill="#382906" d="M10 200l-2 26-24-4z"/><circle r="1" fill="#000006" transform="matrix(-.57992 29.85296 -6.10031 -.1185 128.8 137.6)"/><path fill="#051727" d="M46.7 194.7l33.2-33.9-17.8 26L25.4 227z"/><circle r="1" fill="#fff" transform="rotate(37.5 -361 139) scale(5.11452 33.66423)"/><circle r="1" fill="#d4d0c0" transform="matrix(7.99927 21.19335 -16.99722 6.41547 14.6 67.8)"/><path fill="#0c1925" d="M101.3 159.5l-28 63-4.6-2 28-63z"/><circle r="1" fill="#040e1b" transform="matrix(7.1487 -30.47865 3.05247 .71595 99.5 192.7)"/><path fill="#fdffff" d="M-6.6 195.7l35.9 16.8-.9-47.8-10.4-9.9z"/><path fill="#b2c0cf" d="M219 227.6l-44-14.1-27.2-56.6 35.3 46z"/><circle r="1" fill="#1b2934" transform="matrix(6.95182 .01213 -.05377 30.8061 110 226.9)"/><path fill="#15171e" d="M144 185h8v71h-8z"/><path fill="#5e220e" d="M80.7 120.4l-96.7 12 66.2-3.5 53.5.6z"/><path fill="#fffeec" d="M91.5 240.2L73.2 271l10.2-45.2 13.6-6z"/><path fill="#fff" d="M133.1 184.3l-3.1-19.8 4.9-.8 3.1 19.8z"/><path fill="#01111b" d="M74.2 255.4l-7.6-2.5 11.2-34.3 7.6 2.5z"/><path fill="#00030d" d="M123 102h44v12h-44z"/><circle r="1" fill="#2a3541" transform="matrix(15.17294 28.83125 -2.7013 1.4216 161.7 191)"/><ellipse cx="128" cy="155" fill="#2c2a2d" rx="51" ry="4"/><path fill="#001223" d="M76 187l-19 14 28-38z"/><path fill="#fffff9" d="M126 221.6l6.8-1.4 7.3 34.2-6.9 1.4z"/><path fill="#e2e1de" d="M256.2 124.4L205.5 160 133.8 57.6 184.5 22z"/><path fill="#fffff7" d="M100 258l15 6-1-39z"/><ellipse cx="112" cy="89" fill="#cdc9c7" rx="47" ry="13"/><path fill="#7a7e7d" d="M134 114h19v35h-19z"/><path fill="#162432" d="M54 206h6v26h-6z"/><circle r="1" fill="#f6e5d7" transform="rotate(58.8 -100 117.6) scale(4.47901 23.71923)"/><path fill="#2a1e1c" d="M27.6 203L76 147l2.3 2L30 205z"/><circle r="1" fill="#a5775a" transform="matrix(11.80712 14.79942 -26.62879 21.2447 92.1 135.2)"/><path fill="#fffff4" d="M70.2 234.5l-3.9-13.8-20.6 45.9 12.8 4.4z"/><path fill="#904f2e" d="M61 98L36 70l-17 49z"/><path fill="#fffffd" d="M58.8 165.9l.7.7-40.3 37.5-.7-.7z"/><path fill="#fff" d="M76 196l-10 22-11 1z"/><path fill="#fcf5e4" d="M128 185l-10-9 7 41z"/><circle r="1" fill="#11202e" transform="matrix(17.95302 -29.64714 1.73527 1.0508 72 187.2)"/><path fill="#29333f" d="M36.8 234.2L30.4 215l28.2-29-20 32.7z"/><path fill="#d7d3c5" d="M136.6 157.2L175 203l-20.9-47 8 56.8z"/><circle r="1" fill="#eeba94" transform="matrix(-3.99085 -.53758 3.3195 -24.64286 93.8 137.6)"/><ellipse cx="166" cy="225" fill="#2e241d" rx="31" ry="16"/><path fill="#fffffd" d="M31.6 256.4l-4.1-2.8 22.9-34 4.1 2.8z"/><path fill="#182535" d="M130 185h6v36h-6z"/><path fill="#ece8da" d="M97.4 163.2l-17.9 80.2 22.7-78.8-3.2-6.3z"/><circle r="1" fill="#17232c" transform="matrix(-1.45825 .97622 -11.134 -16.63178 159.3 167.4)"/><circle r="1" fill="#0f161c" transform="rotate(50.7 -171.5 130.1) scale(1.7132 12.07004)"/><path fill="#fffffd" d="M115 218l11 1-5-24z"/><path fill="#00000f" d="M135.8 164.7l3.9-.9 4.5 19.5-3.9.9z"/><path fill="#d0d6dc" d="M170 202l49-5-54-145z"/><ellipse cx="110" cy="134" fill="#7c817e" rx="11" ry="31"/><path fill="#e7e3d6" d="M146.7 161.3l-6.8-2.3 21.2 57.8-12.5-41.8z"/><path fill="#333b48" d="M150 173l18 17 5 28z"/><path fill="#4b5052" d="M53 157h33v10H53z"/><path fill="#f8f0dd" d="M107 164h5v34h-5z"/><path fill="#fffff8" d="M155 262l26 9-28-29z"/><path fill="#8493a1" d="M168 152h36v7h-36z"/><path fill="#171a1d" d="M124 106h2v79h-2z"/><path fill="#131f2c" d="M110.2 197.2l8.2-12.6 3.4 2.2-8.2 12.6z"/><circle r="1" fill="#c8c0b7" transform="matrix(-27.6828 -.9092 2.23446 -68.03348 98.7 39)"/><circle r="1" fill="#152635" transform="rotate(100.1 -56.9 164.8) scale(23.30668 5.22577)"/><path fill="#fffff2" d="M146 212l-11-28 2 27z"/><path fill="#fff" d="M57.7 193l4 3-17.4 23-4-3z"/><circle r="1" fill="#fff8e8" transform="rotate(-54.8 222.3 21.1) scale(26.29939 1.98885)"/><path fill="#f8f0dc" d="M128 234h12v22h-12z"/><path fill="#c98458" d="M74.6 68.3l-25 2.7-9 12.3 39.3 19.2z"/><path fill="#45494d" d="M89.6 206.1l20-47.2-8.6 45.9-7.2 7z"/><path fill="#e8e5d8" d="M45.1 219.4l17.5-34 14.8-12.8 1.1 1.6z"/></g></g></svg>