<svg xmlns="http://www.w3.org/2000/svg" viewBox="0 0 1121 1400"><defs/><filter id="a"><feGaussianBlur stdDeviation="12"/></filter><rect width="100%" height="100%" fill="#3e6235"/><g filter="url(#a)"><g fill-opacity=".5" transform="translate(2.7 2.7) scale(5.46875)"><ellipse cx="100" cy="47" fill="#ffe0f3" rx="86" ry="217"/><circle cx="102" cy="19" r="72" fill="#fffaf3"/><circle r="1" fill="#ffe5f9" transform="matrix(-6.39503 18.74422 -88.68662 -30.2575 21.3 243.7)"/><circle r="1" fill="#5b2316" transform="rotate(-6.6 1921.5 -856.5) scale(82.01251 18.45247)"/><circle r="1" fill="#fff" transform="matrix(5.90912 45.80307 -17.17094 2.21525 192.4 2.2)"/><circle r="1" fill="#8f7a4e" transform="rotate(69 -28.4 25.4) scale(72.58791 23.69867)"/><ellipse cx="71" cy="117" fill="#ff81a9" rx="50" ry="16"/><ellipse cx="181" cy="156" fill="#526f40" rx="24" ry="100"/><path fill="#7d402e" d="M16 86h109v20H16z"/><path fill="#5a8661" d="M116.9 19.2l51.4-11.3 11.1 24.4-65.7-3.4z"/><path fill="#d39482" d="M154 192L31 161l-13 63z"/><path fill="#425f6b" d="M62 134h64v40H62z"/><path fill="#262613" d="M7.2 107.9l12.5-11 5.1-34.1-.6 105.8z"/><path fill="#54181b" d="M127.5 216.1l-1.1 21-99.9-5.2 1.1-21z"/><path fill="#c6c0a1" d="M184 130.3l-77.6 3.1 65.6-29 19.5-35.9z"/><ellipse cx="134" cy="164" fill="#c8c4af" rx="10" ry="99"/><circle r="1" fill="#2d492b" transform="matrix(-15.96396 67.30742 -33.2051 -7.87558 170.6 238.8)"/><circle r="1" fill="#bdaf87" transform="rotate(-156.8 8.8 14.5) scale(17.42907 32.58236)"/><path fill="#efeef6" d="M198.3-16L21.8 15.7l157.4-8.2L220 35.2z"/><path fill="#dfc0b6" d="M75 271l48-32-139-10z"/><circle r="1" fill="#e9ecec" transform="matrix(19.13761 -8.409 4.3827 9.97439 169.2 50)"/><path fill="#e5ddd5" d="M39 0h49v90H39z"/><path fill="#240113" d="M9 174l18 1-2 37-18-1z"/><path fill="#ffa2b6" d="M25 104h72v28H25z"/><circle cx="204" cy="145" r="40" fill="#608048"/><ellipse cx="60" cy="215" fill="#a9575d" rx="49" ry="11"/><ellipse cx="8" cy="162" fill="#809292" rx="106" ry="11"/><path fill="#e1cdb6" d="M26 168h24v24H26z"/><path fill="#dc455a" d="M104 105h21v28h-21z"/><path fill="#384d1d" d="M10 65h27v14H10z"/><path fill="#848366" d="M144.3 252l-25.5 19 12.1-73.6 23.3-5.2z"/><path fill="#191a0d" d="M28 228h94v6H28z"/><ellipse cx="170" cy="178" fill="#273f1d" rx="12" ry="20"/><path fill="#f0e8d5" d="M175 66l-29 52-1-25z"/><circle r="1" fill="#606d48" transform="rotate(117.7 45.4 90.1) scale(19.74078 4.46962)"/><path fill="#7f987b" d="M186.5 9.2L220 85.9l-36.2-39-15.3-38.3z"/><path fill="#3b1c0f" d="M122.3 106.9l-24.1-4.5 24.1-11.1 3.1 9.3z"/><path fill="#241700" d="M33 163l-37 4-12-15z"/><path fill="#d7e3da" d="M127 175h26v21h-26z"/><circle r="1" fill="#e2e4e9" transform="matrix(31.61125 -2.2416 1.80587 25.46656 87.6 18.2)"/><circle r="1" fill="#d3bca0" transform="matrix(-.82692 -16.6038 35.50018 -1.768 111.3 65.2)"/><path fill="#5a5145" d="M118 128h7v68h-7z"/><path fill="#e9e9df" d="M178.1 82.7l8.7 2.3-5 18.3-8.6-2.3z"/><circle r="1" fill="#798e63" transform="matrix(16.81213 -10.95969 14.608 22.40862 204 108.8)"/><path fill="#b09681" d="M39 93.9L12.3 89l12.3-8.5L123.4 95z"/><path fill="#c2d1c7" d="M5.8 121.7l4.5-7.1-23.6 3.2-2.2 16.6z"/><path fill="#3c4929" d="M204.8 58.9l12.4 60.1-31.3-69.4-23.8 44.2z"/><ellipse cx="71" cy="159" fill="#93bec6" rx="41" ry="5"/><circle r="1" fill="#6c5e47" transform="matrix(75.7006 4.83847 -.14222 2.22515 58 167)"/><path fill="#668d9f" d="M25 133h52v24H25z"/><path fill="#c9c5aa" d="M151.6 141.7l24.5-3-39.7-18.5 40.7 1.4z"/><ellipse cx="22" cy="163" fill="#2c2e1c" rx="3" ry="51"/><path fill="#d7d1c9" d="M112.3 29.9l78 15.6L154.4 73 130 106.2z"/><path fill="#c4a083" d="M66 170h45v38H66z"/><path fill="#beaba4" d="M48.8 271L-16 232.1l45.6-24.8-7.9 36.6z"/><path fill="#6f5940" d="M115 196h27v13h-27z"/><circle r="1" fill="#869668" transform="matrix(6.46632 -55.10893 2.83678 .33286 148.1 181.7)"/><path fill="#336320" d="M174 28.1l-.5 3-29.5-5.2.5-3z"/><path fill="#d2c6a4" d="M36.4-5.8l.5 48.4-17.1-9.1 8-49.5z"/><ellipse cx="76" cy="150" fill="#505c5b" rx="26" ry="6"/><path fill="#da7086" d="M63 117h63v17H63z"/><circle r="1" fill="#1d2c19" transform="matrix(8.0073 12.15832 -27.3673 18.02372 183 255)"/><path fill="#774e3e" d="M36 195h20v36H36z"/><path fill="#7a9085" d="M-3 131.5h44v5H-3z"/><path fill="#d8f3d9" d="M17.3 154.5l-.8 5-11.8-2 .8-5z"/><path fill="#879f5e" d="M185.1 225.7l-7.2-2.7.3-10.7-12.7 19.7z"/><path fill="#d5d6d5" d="M154.4 21.4l31.2 9.3L161-11.8l58.3 17.9z"/><path fill="#322215" d="M106 212h19v23h-19z"/><path fill="#456331" d="M189.9 53.6l-44.4 31.9 11-15.1 42.4-23.7z"/><path fill="#6a6044" d="M-16-15.4l37.1 43.2-24.3 12.1L13.5 44z"/><path fill="#97c18c" d="M187 163h7v21h-7z"/><path fill="#769054" d="M11 50l25-21-12 54z"/><ellipse cx="128" cy="113" fill="#ded3c5" rx="3" ry="82"/><path fill="#230017" d="M20.3 211.5l-12.1-5-24.2-.7 15.4 14z"/><path fill="#d7cfbf" d="M158.5 101.8l3.2 20.2-19.4-24.1 22.6-27.3z"/><path fill="#93b18f" d="M11.4 163.7l12.3 4.4-36.9 13.4L-16 197z"/><path fill="#273019" d="M12 90h11v35H12z"/><path fill="#2b3b55" d="M59 134h64v3H59z"/><path fill="#a6babc" d="M32 136h48v8H32z"/><ellipse cx="166" cy="99" fill="#5e6c46" rx="6" ry="17"/><path fill="#1c2c00" d="M161 141l-5 1-5 9z"/><ellipse cx="41" cy="98" fill="#634031" rx="16" ry="6"/><path fill="#4a6137" d="M161.8 202.2l-26.1 54L172 132.7l27.1-12.3z"/><path fill="#d6d4ce" d="M173.1 105.7l14.3-15.9 5.6-7.9-5.2-3.4z"/><path fill="#b4a399" d="M130 210h18v16h-18z"/><path fill="#789377" d="M115.9 29l-9 10.9 59.4-35.2-16.4 21.6z"/><path fill="#d0ccb6" d="M143.7 102.1l34.5-34.5 6.6-7.8-25 15z"/><path fill="#c8bab0" d="M95 235l-1 29-89-32z"/><path fill="#dededf" d="M88 41l95 18-24-32z"/><path fill="#cbcfc5" d="M157 196l-11-4 9-25z"/><path fill="#3b2e21" d="M-10.4 136.4l-5.6 8.3 37.2-10.5-.2 23z"/><circle r="1" fill="#657b56" transform="matrix(2.38287 .30289 -2.59057 20.38044 140.9 105.7)"/><path fill="#b58374" d="M86 217l-7-49-37 32z"/><ellipse cx="3" cy="50" fill="#edc17b" rx="8" ry="6"/><path fill="#282a15" d="M12 74l-23-7L5 83z"/><path fill="#ebdecb" d="M145 134l11-3-12 14z"/><path fill="#bcbfa2" d="M151 162l15-25-7 33z"/><path fill="#c9beab" d="M168.5 64.7l-41.9 25.9-22.2-40.9 23.3-1.9z"/><path fill="#dcdfd7" d="M131 160h16v10h-16z"/><path fill="#96a67c" d="M46 80L24 92 7 78z"/></g></g></svg>