<svg xmlns="http://www.w3.org/2000/svg" viewBox="0 0 1400 1400"><defs/><filter id="a"><feGaussianBlur stdDeviation="12"/></filter><rect width="100%" height="100%" fill="#434343"/><g filter="url(#a)"><g fill-opacity=".5" transform="translate(2.7 2.7) scale(5.46875)"><circle cx="74" cy="139" r="229" fill="#fff"/><circle r="1" fill="#fff" transform="matrix(75.01848 3.322 -11.28095 254.75035 0 62.2)"/><circle r="1" fill="#fff" transform="matrix(-50.09919 -16.3969 64.13917 -195.97129 255 166)"/><circle r="1" fill="#111" transform="rotate(121.9 70.6 77) scale(20.99614 62.34937)"/><circle r="1" fill="#fff" transform="matrix(254.31723 18.64793 -1.7885 24.39129 115.7 6.4)"/><circle r="1" fill="#f2f2f2" transform="matrix(-7.80471 24.60358 -49.00037 -15.54383 146.5 88.7)"/><path fill="#0c0c0c" d="M196.7 163.7l2.1-87.5 29.4 23.8-10.8 20.5z"/><circle r="1" fill="#2b2b2b" transform="rotate(25.8 -9.4 382) scale(36.28852 19.20647)"/><circle r="1" fill="#080808" transform="matrix(-11.362 36.85414 -7.89426 -2.43377 84.3 83.9)"/><circle r="1" fill="#fcfcfc" transform="matrix(26.06594 -17.98225 55.9434 81.092 232.6 31.8)"/><path fill="#ececec" d="M125 152l-66.9 77L25 200l67-77z"/><path d="M67 268l-1-49-32 42z"/><path fill="#f6f6f6" d="M-20.1 100.8L112.2-22.6l26 27.8L5.7 128.6z"/><path fill="#0e0e0e" d="M98.2 62.6l-5-17.3 34.6-10 5 17.4z"/><ellipse cx="176" cy="200" fill="#e7e7e7" rx="12" ry="54"/><path fill="#ebebeb" d="M131 108h19v62h-19z"/><ellipse cx="167" cy="133" fill="#494949" rx="20" ry="13"/><path fill="#484848" d="M124.7 106.2l-1.4 27-26-1.4 1.4-27z"/><circle r="1" fill="#e9e9e9" transform="matrix(40.33273 5.22258 -18.0586 139.46222 21.7 109.3)"/><path fill="#535353" d="M159.7 206.5l12.7 11.4-32.1 35.6-12.7-11.4z"/><ellipse cx="246" cy="173" fill="#e7e7e7" rx="42" ry="82"/><path fill="#474747" d="M153.7 205.6l-48.9-10.4 1.5-6.8 48.9 10.4z"/><path fill="#696969" d="M61.4 142.4l11.7 14.8v-37.3l-16.5 8.5z"/><path fill="#3b3b3b" d="M202.6 171l-16.8 16.3 3-6.4 23.8-109.3z"/><circle r="1" fill="#5e5e5e" transform="matrix(25.13788 8.18853 -1.66127 5.0999 109.8 235.5)"/><path fill="#292929" d="M55.9 257l10.6-17.1-36.5 14-46 12.5z"/><path fill="#464646" d="M226 94l-67-78-50 32z"/><path fill="#cecece" d="M192 170l-122-9 8-46zM67 211l6 60 63-9z"/><path fill="#d5d5d5" d="M223.1 165.7l-115.4-67-17.6 12.2.8-35z"/><path fill="#272727" d="M174.6 260.3L164 263l-4.6-17.4L170 243z"/><path fill="#d8d8d8" d="M87 113h99v7H87z"/><circle r="1" fill="#3a3a3a" transform="rotate(13.3 -295.2 380.6) scale(5.374 22.10645)"/><path fill="#cdcdcd" d="M102 188l34 43h-29z"/><path fill="#e6e6e6" d="M301.3 64.4l-24.7 34L140.7-.4l24.7-34z"/><path fill="#dedede" d="M0 0h131v39H0z"/><circle cx="202" cy="228" r="35" fill="#dedede"/><ellipse cx="47" cy="198" fill="#dedede" rx="26" ry="34"/><path fill="#343434" d="M121.5 102.9l7.4 10.3-31-2.5-9.1-1.3z"/><ellipse cx="185" cy="104" fill="#c3c3c3" rx="15" ry="22"/><path fill="#474747" d="M83 54l3 29 45-61z"/><circle r="1" fill="#484848" transform="matrix(-23.39506 -28.97264 12.9448 -10.45278 196 64)"/><path fill="#393939" d="M197 133l10-63 18 39z"/><path fill="#c2c2c2" d="M142 146l30 80 24-78z"/><path fill="#3e3e3e" d="M63 153.2l18.2-63.5 3.8 1.1-18.2 63.5z"/><ellipse cx="112" cy="126" fill="#535353" rx="22" ry="6"/><path fill="#dedede" d="M-16 128.6l80.9 1.7 1.8 29.6 6.8-63.1z"/><path fill="#696969" d="M148 169l-3 17-32-19z"/><path fill="#c2c2c2" d="M71 245h93v11H71z"/><path fill="#dedede" d="M80 109l-5 29 30-49z"/><ellipse cx="190" cy="140" fill="#d2d2d2" rx="5" ry="31"/><path fill="#252525" d="M180 123l-23-2 29 12z"/><path fill="#c6c6c6" d="M56 165l62 27-15-70z"/><path fill="#909090" d="M100.5 242.9l-15-6.8-15.4-28.9 28.4-30.9z"/><circle r="1" fill="#e5e5e5" transform="matrix(-12.95826 -4.63239 19.66485 -55.0088 79.3 30)"/><path fill="#565656" d="M145.4 194.4l3.4 7.5-24.6-4.8-39.5-10.4z"/><circle r="1" fill="#d8d8d8" transform="matrix(17.9998 3.23255 -5.00937 27.89364 37.9 223.6)"/><path fill="#e0e0e0" d="M251 61l17-77L132 6z"/><path fill="#4b4b4b" d="M103 233l42 5-11 8z"/><path fill="#6d6d6d" d="M138.4 209.9l-11.6 6.9-7.6-2.9-.4-10.2z"/><path fill="#313131" d="M71.5 215.1l-30.7 42.8-13.2-2.1 33.3-10.9z"/><path fill="#434343" d="M182.7 149l-35-16.2 7.8-5.2 26.8 18z"/><path fill="#bfbfbf" d="M110.7 25.4l19.5 9.2-26.9 5.7L144.2-.5z"/><path fill="#d1d1d1" d="M183.7 75.7l-32.5 43.4-63.3-28.2 7.8-21.4z"/><path fill="#4c4c4c" d="M182.8 29.3l-56.2 31.6-6.5-8.4L141.5 18z"/><path fill="#323232" d="M196 127h6v31h-6z"/><path fill="#272727" d="M70 115h5v15h-5z"/><path fill="#a7a7a7" d="M163 218l-4-27 40-11z"/><ellipse cx="41" cy="88" fill="#e0e0e0" rx="32" ry="52"/><path fill="#3c3c3c" d="M161.4 262.8l-6.3 8.2H170l-1.8-39.1z"/><path fill="#7a7a7a" d="M118.1 145.8l-1.2-22.3 8-17.5 7.6 26.3z"/><circle r="1" fill="#e0e0e0" transform="rotate(-24.5 265.2 -509.6) scale(14.326 73.37363)"/><path fill="#7f7f7f" d="M152.7 50.7L167.8 73l-54.4-21.6 38.1 18.7z"/><path fill="#d1d1d1" d="M121 155.9L156.4 72 88.3 96.2l79.3 19.3z"/><path fill="#979797" d="M201 113l-5-27-16-11z"/><path fill="#606060" d="M83.2 224.3l4.6-13.7 10 23.7 21.9 5z"/><path fill="#505050" d="M165.6 116.6l25.2 25.8L187 130l-23.6-5.1z"/><path fill="#c5c5c5" d="M120.6 180.4l32.6 12.5-1.8 4.7-32.6-12.5z"/><path fill="#c2c2c2" d="M87 134l88 20-40 18z"/><path fill="#b8b8b8" d="M139 200l-52-9 16 17z"/><path fill="#bbb" d="M197.6 145.4l-28.1-17.6-8.6 3.8 31.3 16.1z"/><path fill="#ddd" d="M271 209.6l-4.6-211-41.9 101.2-2.5 70.8z"/><path fill="#d9d9d9" d="M161.3 239.4l69.5-12.3-34.9-62.1 1.2 16.9z"/><path fill="#bebebe" d="M228.1 109l-21.9 41.5 15.4-51.6-.9 15.3z"/><ellipse cx="81" cy="81" fill="#3e3e3e" rx="7" ry="17"/><circle cx="123" cy="170" r="5" fill="#585858"/><path fill="#c7c7c7" d="M176.4 183.3L149 171l12.6-28.4L189 155z"/><circle r="1" fill="#e2e2e2" transform="matrix(25.1441 27.3279 -83.20603 76.55694 37.9 49)"/><path fill="#dcdcdc" d="M22 171h49v50H22z"/><path fill="#343434" d="M100.4 110.3l.2-7 19 .4-.2 7z"/><path fill="#555" d="M228.5 80.9l-5.5 34.6-44.8-61.6 22.1 46.9z"/><path fill="#393939" d="M218.4 97.4L207.6 134l-5.2 21.9-7.1-32z"/><path fill="#9a9a9a" d="M174.7 209l-73.1-45.1 59.3 24.3 2.5 49.6z"/><path fill="#b5b5b5" d="M133 147.7l-62.1 46.2-2.8 41.8 28.5-50.6z"/><path fill="#919191" d="M108 42.5l28.3-22.8 8.4-2.9 16.8-5.7z"/><path fill="#ababab" d="M125 133l-14 13-28-21z"/><path fill="#bababa" d="M108 233.6l16.6 2.8 27.1-31.4-2.1-2.3z"/><path fill="#646464" d="M166.3 225.8l-24.6-7.4 4.1 7.6-7.8 20.5z"/><path fill="#c9c9c9" d="M69.8 191.2l14-71.7 31.3-8-42.4 23.4z"/><circle r="1" fill="#363636" transform="matrix(4.71162 2.48748 -10.37061 19.6433 57.4 243.9)"/></g></g></svg>