<svg xmlns="http://www.w3.org/2000/svg" viewBox="0 0 892 252"><defs/><filter id="a"><feGaussianBlur stdDeviation="12"/></filter><rect width="100%" height="100%" fill="#4c2b34"/><g filter="url(#a)"><g fill-opacity=".5" transform="translate(1.7 1.7) scale(3.48438)"><circle cx="121" r="170" fill="#fff"/><circle cx="128" cy="1" r="162" fill="#fff"/><circle r="1" fill="#fff" transform="matrix(.70687 -27.19528 199.84574 5.19446 162 0)"/><ellipse cx="166" cy="39" fill="#928289" rx="66" ry="19"/><circle r="1" fill="#fff" transform="rotate(-179.6 2.6 28) scale(22.09229 99.48371)"/><ellipse cx="29" cy="36" rx="3" ry="21"/><ellipse cx="245" cy="46" fill="#fff" rx="19" ry="71"/><ellipse cx="135" cy="70" fill="#fff" rx="255" ry="13"/><path d="M43 27h5v31h-5zm60-8h4v33h-4z"/><path fill="#715d66" d="M82.6 52.5l-28-1 .8-24 28 1z"/><path d="M222 22h5v30h-5z"/><ellipse cx="151" fill="#fff" rx="49" ry="28"/><path d="M127 28h4v23h-4z"/><path fill="#fff" d="M12-2l95-8-10 61z"/><ellipse cx="195" cy="36" fill="#130000" rx="3" ry="18"/><path d="M117.3 30.8L113 18.6l3.8-1.4 4.4 12.2z"/><path fill="#190000" d="M43 18h5v36h-5z"/><path fill="#533a45" d="M19 56h211v2H19z"/><path fill="#010000" d="M138 48l7 3-4-24z"/><path fill="#fff" d="M131 17h8v32h-8z"/><path d="M208 37l9 9-1 5z"/><ellipse cx="122" cy="41" fill="#fff" rx="4" ry="67"/><ellipse cx="38" cy="65" fill="#fff" rx="255" ry="8"/><path fill="#fff" d="M188-11l34 65-1-55z"/><path d="M182 50l3-19 3 8zM56 33h4v20h-4z"/><ellipse cx="146" cy="55" fill="#fff" rx="3" ry="71"/><path fill="#2f101d" d="M163 33h11v12h-11z"/><path d="M150 31h4v15h-4z"/><ellipse cx="168" cy="11" fill="#fff" rx="3" ry="71"/><ellipse cx="190" cy="37" fill="#fff" rx="3" ry="47"/><path fill="#fff" d="M212.7 48.6l-14-19.4-1.4 14.3.5 6.9zM33 23h11v49H33z"/><path fill="#fff" d="M271-13.1L180.2 31l51.3-7.9L245 87z"/><path fill="#31121f" d="M68.5 57.1L64.7 33l7.2-6.8L69 50.7z"/><path fill="#0b0000" d="M113 35.5l7.7 17.4-3.7 1.6-7.7-17.4z"/><path fill="#fff" d="M61 0h4v53h-4z"/><path fill="#080000" d="M19 17h30v2H19z"/><path fill="#705963" d="M150 55h36v9h-36z"/><path fill="#260513" d="M77 29h5v12h-5z"/><path d="M201.2 31.1l2.4-1.8L216.8 47l-2.4 1.8z"/><circle r="1" fill="#fff" transform="matrix(-17.89617 8.96173 -11.2201 -22.40604 7 35.2)"/><ellipse cx="92" cy="36" fill="#fff" rx="10" ry="71"/><path fill="#fff" d="M0 54h148v2H0zm71-8l9 5-10-18z"/><path fill="#674e58" d="M165.5 20l6 7.1-4.6-2.3-21.4 11z"/><ellipse cx="179" cy="38" fill="#fff" rx="4" ry="9"/><path fill="#0e0000" d="M104 17h11v3h-11z"/><path fill="#fff" d="M124.5 12.3l-9.2 33.9 37 40.8-25.2-33.9z"/><path fill="#120000" d="M28 20h4v33h-4z"/><path fill="#fff" d="M171.9 62.6l99.1 8.7L160.8 87l9.3-60.9z"/><path fill="#fff" d="M271 10.5l-66.7 8.1-4.3 55.8-4.5-90.4z"/><path fill="#060000" d="M174 28l-4 14 8 7z"/><path fill="#0c0000" d="M103 18h3v36h-3z"/><ellipse cx="166" cy="55" fill="#21000d" rx="19" ry="2"/><path fill="#fff" d="M155 32h7v14h-7zM49 32h7v21h-7z"/><path fill="#2c0011" d="M139 28h5v21h-5z"/><path fill="#0e0000" d="M162 47l2-21 3 17z"/><path fill="#fff" d="M145 46V29.9L27.1-16l133.1 29.7zm30.4 35l-12.5-32.6 3.7-1.5 12.5 32.7z"/><path fill="#fff" d="M113.8 26.9L108 8.1l.3 48.7 1.2-3.1zM190 52.5h-42v-3h42z"/><ellipse cx="79" cy="41" fill="#fff" rx="10" ry="3"/><path fill="#512f3e" d="M111.4 37.6l-12.6 1.1 15.3 4.2 6.3-16z"/><path fill="#100" d="M226 15l1 .2-3 25.8-1-.2z"/><path fill="#fff" d="M132 0h7v53h-7z"/><path fill="#170001" d="M178.6 25.1l.8-.6 10 12.4-.8.6z"/><ellipse cx="145" cy="4" fill="#fff" rx="255" ry="13"/><path fill="#1e0009" d="M73 53l-5-23-2 18z"/><path fill="#fff" d="M167 31l-6-7 17 1z"/><circle cx="186" cy="23" r="3" fill="#140000"/><path d="M51 26.3l6.4 2.5-.3 1-6.5-2.6z"/><path fill="#fff" d="M150.7 45.7L136.5 87l17.6-14L142 20.3z"/><path d="M215.6 30.5l-.6.8-4.6-3.8.6-.8z"/><path fill="#fff" d="M105.4 58.4L85.5 84.6 58.9 33.8 67.1 58z"/><ellipse cx="254" cy="19" fill="#fff" rx="24" ry="71"/><path fill="#260008" d="M56 29h4v26h-4z"/><path fill="#fff" d="M56.6 10.7l46.9 34.8-27-59.9L63 49z"/><path fill="#5d3e4c" d="M171.7 40.7l-2-5 16.2-17.4-2.7 4.8z"/><path d="M194 29h3v21h-3z"/><ellipse cx="129" cy="42" fill="#150000" rx="2" ry="12"/><path fill="#1a0004" d="M223 51h8v3h-8z"/><circle r="1" fill="#32091a" transform="matrix(1.9273 -.67658 3.0917 8.80696 153 42)"/><ellipse cx="135" cy="52" fill="#0e0000" rx="7" ry="1"/><ellipse cx="90" cy="71" fill="#fff" rx="79" ry="14"/><ellipse cx="190" cy="26" fill="#fff" rx="3" ry="30"/><ellipse cx="36" cy="34" fill="#fff" rx="5" ry="15"/><path fill="#020000" d="M205.3 39l-1-.2 2.4-11.8 1 .2z"/><path fill="#644b56" d="M80 52.8l2.3-14 4.3 1.3-5.9-10.6z"/><path fill="#fff" d="M48 0h51v27H48z"/><ellipse cx="91" cy="57" fill="#86737c" rx="57" ry="1"/><path d="M116 23h3v11h-3z"/><circle r="1" fill="#fff" transform="matrix(-20.13195 13.63036 -9.63164 -14.22587 5.6 39)"/><ellipse cx="219" cy="26" fill="#fff" rx="3" ry="40"/><path fill="#fff" d="M123 25h92v2h-92z"/><circle cx="179" cy="40" r="5" fill="#fff"/><path fill="#fff" d="M79 57.5l-2.5 16.3L96.2-16l7.5 63.5z"/><path fill="#0a0000" d="M44 19h3v19h-3z"/></g></g></svg>