<svg xmlns="http://www.w3.org/2000/svg" viewBox="0 0 1400 1400"><defs/><filter id="a"><feGaussianBlur stdDeviation="12"/></filter><rect width="100%" height="100%" fill="#434343"/><g filter="url(#a)"><g fill-opacity=".5" transform="translate(2.7 2.7) scale(5.46875)"><circle r="1" fill="#fff" transform="matrix(251.77768 36.74974 -22.40282 153.48488 123.1 109)"/><ellipse cx="19" cy="89" fill="#fff" rx="46" ry="156"/><circle r="1" transform="matrix(19.18813 1.25241 -4.7134 72.21372 198 227.5)"/><circle r="1" fill="#fff" transform="matrix(21.61156 200.50983 -29.03278 3.12924 240 111.1)"/><circle r="1" fill="#050505" transform="rotate(-167.7 45.5 118.6) scale(22.48339 52.06055)"/><ellipse cx="131" cy="71" fill="#f7f7f7" rx="50" ry="31"/><path fill="#2d2d2d" d="M216 72.2l-25.8-40-60.1-29.6-31.4 22.3z"/><circle r="1" fill="#fff" transform="rotate(45 6.3 73.8) scale(34.8583 149.64161)"/><circle r="1" fill="#fff" transform="rotate(29.6 68.4 389.4) scale(85.43542 20.68328)"/><circle r="1" fill="#1a1a1a" transform="rotate(85 54.6 149.4) scale(41.75684 10.71341)"/><path fill="#e2e2e2" d="M173.7 254.2L97 259.6l-4.6-65.8 76.8-5.4z"/><circle r="1" fill="#e0e0e0" transform="matrix(109.1754 .98899 -.23795 26.26794 84 150.1)"/><ellipse cx="227" cy="255" rx="22" ry="7"/><path fill="#343434" d="M67.7 60.3L65 76.2l68.9-70.1L83.3 34z"/><path fill="#e7e7e7" d="M65.1 206.2L33 239.4l-49 5.7L37.6-16z"/><ellipse cx="48" cy="249" fill="#3c3c3c" rx="53" ry="10"/><path fill="#d2d2d2" d="M193 89l-59 135 54-39z"/><ellipse cx="240" cy="88" fill="#e8e8e8" rx="32" ry="116"/><path fill="#3a3a3a" d="M128 190l30-12-61-1z"/><path fill="#3f3f3f" d="M225 271l-43-32 16-130z"/><circle r="1" fill="#c9c9c9" transform="matrix(-3.44134 25.1224 -46.3512 -6.34932 133 56.7)"/><circle r="1" fill="#282828" transform="rotate(-80.8 88.6 7.3) scale(23.98278 3.33004)"/><circle r="1" fill="#f6f6f6" transform="matrix(-6.5322 -23.88861 44.66353 -12.21298 83 0)"/><path fill="#141414" d="M108 111l-18-2 11 17z"/><ellipse cx="128" cy="96" fill="#e2e2e2" rx="13" ry="33"/><path fill="#fafafa" d="M209.9 36.2L193.4-16 143 14.4l-23.4-27.5z"/><path fill="#262626" d="M70 177l16 22-10 50z"/><path fill="#101010" d="M152 111h12v12h-12z"/><path fill="#3e3e3e" d="M123.1 20.8L200 62.2l-27.6-42.8-50.1-8.8z"/><path fill="#d7d7d7" d="M66.8 122.3L80.6 67l10.6 2.7L77.4 125z"/><path fill="#3a3a3a" d="M183.1 57.1l28.4 18.3-13.2 73.9-12.5-104.2z"/><path fill="#4a4a4a" d="M171.7 258.6l9.6-67.8 49.6 62.8 40.1 2.5z"/><circle r="1" fill="#adadad" transform="matrix(-7.71212 1.11133 -5.98572 -41.53805 213.5 160.7)"/><ellipse cx="159" cy="101" fill="#232323" rx="14" ry="3"/><circle r="1" fill="#c4c4c4" transform="matrix(19.69926 20.18014 -8.43988 8.23876 96.9 195)"/><circle r="1" fill="#cacaca" transform="matrix(-8.74754 3.65918 -18.08127 -43.22467 170 82.9)"/><path fill="#e8e8e8" d="M-2-16l-3 231L87 14z"/><path fill="#b5b5b5" d="M75 179l123-5-72-37z"/><path fill="#303030" d="M85 97h25v5H85z"/><ellipse cx="64" cy="252" fill="#424242" rx="29" ry="32"/><path fill="#525252" d="M76.5 38.7l18-15.9L153 11l-45.1 27z"/><path fill="#b9b9b9" d="M86 185h90v47H86z"/><path fill="#9b9b9b" d="M167 237h18v19h-18z"/><circle r="1" fill="#5f5f5f" transform="rotate(176.8 31 64.6) scale(1.83218 26.70239)"/><path fill="#6b6b6b" d="M209 58.3l-12-18.7-26.9 24.1 41.7 17.8z"/><circle r="1" fill="#575757" transform="matrix(-6.54955 26.73906 -5.85588 -1.43436 73.2 67.5)"/><path fill="#c4c4c4" d="M108.5 142.9l91 14.6-6-43.3-32.1 8.9z"/><path fill="#d1d1d1" d="M14 216l54-5-84 40z"/><path fill="#e6e6e6" d="M198.4 49.1l61.1 7.6 2.4-57.4L191.3-16z"/><path fill="#414141" d="M143.7 39.9l37.8-5.6-26.3-13.6-28-7.4z"/><circle r="1" fill="#d9d9d9" transform="matrix(-20.8271 -12.41544 16.90157 -28.35264 249.2 220.6)"/><path fill="#707070" d="M208 206l8-39 6 70z"/><circle r="1" fill="#d1d1d1" transform="rotate(-84.6 193 56) scale(14.55329 28.51202)"/><path fill="#4d4d4d" d="M101.4 113.1l-19.2 5.5-1.6-5.7 19.2-5.5zm16.4 156.3L92.7 271 72.3 169.5l-12 46.5z"/><path fill="#363636" d="M204.3 169.7l-23.7 23.5-3.5 30.4 13.4 37.4z"/><path fill="#c4c4c4" d="M85.1 105.8l22.1 3L68.3 88l1.2 96.3z"/><path fill="#d2d2d2" d="M235 180l-32-39 16-64z"/><circle cx="173" cy="116" r="4" fill="#3e3e3e"/><path fill="#696969" d="M198.2 243.7l1.7 27.3 6.1-36.1-21.9-36.8z"/><path fill="#474747" d="M5 242h85v14H5z"/><path fill="#cdcdcd" d="M46.3 214L38 242.7 21.7 238l8.3-28.9z"/><path fill="#323232" d="M67 112V92l-6 22z"/><circle r="1" fill="#8d8d8d" transform="matrix(15.2881 9.08778 -1.51519 2.54895 167.6 21.3)"/><path fill="#3a3a3a" d="M207.5 126.4l-12.7-11.1 8.9-53.1-15.3-9z"/><ellipse cx="141" cy="107" fill="#cbcbcb" rx="49" ry="3"/><path fill="#585858" d="M113 113l-16-6 19 16z"/><path fill="#d3d3d3" d="M196 172l5-12v7z"/><path fill="#c5c5c5" d="M101.3 224.4l90.5-72.7-2.3 29.3-15.9 24.6z"/><path fill="#d1d1d1" d="M126.7 25.3l10.7 120L92 45.1l49.3-15.8z"/><path fill="#b0b0b0" d="M87.3 86.6l-13.6-3.3 9-36 13.6 3.4z"/><path fill="#bbb" d="M185 67l-4 55-26-87z"/><circle r="1" fill="#e4e4e4" transform="matrix(-2.18077 38.61347 -19.05515 -1.07617 45.7 90.1)"/><circle r="1" fill="#e5e5e5" transform="matrix(60.92827 94.54217 -32.45667 20.9169 244 39.7)"/><ellipse cx="127" cy="185" fill="#646464" rx="18" ry="6"/><path fill="#bebebe" d="M103.1 122.5l-2.7 14.6-7.3-25.4L68.9 140z"/><path fill="#ebebeb" d="M169-5l38 44-94-54z"/><path fill="#cfcfcf" d="M192.1 105.5l-104.9-38 63.4-28.6 45.3 65.1z"/><path fill="#3d3d3d" d="M147 112h26v3h-26z"/><path fill="#444" d="M240 252l-21 16-35-40z"/><path fill="#c7c7c7" d="M150 119l8 9-6-14z"/><circle r="1" fill="#9c9c9c" transform="matrix(4.29756 -1.4814 9.96033 28.89499 97.2 252.5)"/><path fill="#9c9c9c" d="M110 162h33v9h-33z"/><path fill="#313131" d="M78 202h9v45h-9z"/><path fill="#4c4c4c" d="M199 142h6v19h-6z"/><circle r="1" fill="#e8e8e8" transform="matrix(-2.63242 53.8237 -63.11424 -3.0868 25.8 7.2)"/><path fill="#393939" d="M45 227l22-12-29 28z"/><path fill="#c9c9c9" d="M229.9 232.2l41.1 35.4-23-15-30.1-8.9z"/><path fill="#454545" d="M69 60l19-21-21 44z"/><circle r="1" fill="#d2d2d2" transform="matrix(10.307 3.08166 -13.3505 44.65239 47.7 185)"/><path fill="#d0d0d0" d="M208 94h7v35h-7z"/><path fill="#393939" d="M185.1 189l-2.2 11.8 39.9 47.1-31.9-75.2z"/><path fill="#6a6a6a" d="M147 98h30v8h-30z"/><path fill="#999" d="M59.3 218.4l-18.4 9.5 5.3-10.8 23.1-12.6z"/><circle r="1" fill="#d5d5d5" transform="rotate(-151 107.3 108.3) scale(9.68525 34.88705)"/><path fill="#dadada" d="M55 121L-5 242l38-3z"/><path fill="#e7e7e7" d="M123.6 1.7L271 11 3.3-16-16 104.3z"/><path fill="#6b6b6b" d="M207.3 54.3l-15.1-21.6v10.6l18 51z"/><path fill="#939393" d="M119.6 113l5 7.9-4.7 5.8-17.6 5.6z"/><path fill="#c9c9c9" d="M132.9 168.9l-16.7-8.4 5.8-32 21.8-8.4z"/></g></g></svg>