<svg xmlns="http://www.w3.org/2000/svg" viewBox="0 0 800 1000"><defs/><filter id="a"><feGaussianBlur stdDeviation="12"/></filter><rect width="100%" height="100%" fill="#71443f"/><g filter="url(#a)"><g fill-opacity=".5" transform="translate(2 2) scale(3.90625)"><circle r="1" fill="#f7fffd" transform="matrix(96.55171 -178.56866 162.17198 87.68606 142.6 113)"/><circle r="1" fill="#cbc9b7" transform="matrix(-9.58665 -44.71773 198.49 -42.55257 124 55)"/><circle r="1" fill="#868a6f" transform="rotate(33.1 -374.6 154) scale(109.15422 33.30039)"/><circle r="1" fill="#a98e7b" transform="matrix(15.79497 34.4992 -50.82298 23.26858 164 245.7)"/><circle cx="203" cy="118" r="75" fill="#b7bfad"/><path fill="#797260" d="M10 215l43 45-60-8z"/><circle r="1" fill="#9d9a8a" transform="rotate(166.4 14 77.2) scale(152.8607 15.09308)"/><circle r="1" fill="#b0a191" transform="matrix(-38.66817 -16.32835 6.7782 -16.05187 63 38.8)"/><circle r="1" fill="#a6a08e" transform="matrix(-78.38058 -38.08956 14.48985 -29.81718 98.7 244)"/><circle r="1" fill="#a0a293" transform="matrix(31.73935 21.12178 -11.1784 16.79759 50.3 115.8)"/><circle r="1" fill="#c7cdc6" transform="matrix(32.8036 9.59244 -3.46497 11.84928 147.1 57.6)"/><ellipse cx="112" fill="#cbb5a8" rx="75" ry="29"/><path fill="#c6b9b1" d="M161 228.9l-11.8 13.5L51 157.1l11.8-13.5z"/><circle r="1" fill="#ab9288" transform="matrix(38.84077 18.60938 -10.39928 21.70497 19.8 162)"/><circle r="1" fill="#c0c7be" transform="matrix(-41.45053 10.02085 -2.54353 -10.52112 73 72.7)"/><path fill="#9b857a" d="M115.8 247l24 18.3-65.6-83.9 96.9 82.1z"/><circle r="1" fill="#9b9381" transform="matrix(45.49174 31.39966 -1.82649 2.64621 53.5 21.3)"/><circle r="1" fill="#c1c8c2" transform="rotate(58.1 -31.3 242.3) scale(11.51351 25.04554)"/><circle r="1" fill="#c6b2a8" transform="matrix(-18.60107 2.21804 -9.67949 -81.17461 9.2 46.5)"/><path fill="#a79e8a" d="M145 78v22l54 15z"/><circle r="1" fill="#c8c3b8" transform="matrix(8.5631 -52.2917 18.59891 3.04569 203 61.9)"/><circle r="1" fill="#b2b7a7" transform="matrix(-16.56572 -15.12323 24.18034 -26.48672 111.7 95.3)"/><circle cx="82" cy="142" r="18" fill="#96978a"/><path fill="#b4b8ac" d="M81.2 195.6l94-42 1.9 1.1-54.6-14.2z"/><path fill="#b5afa2" d="M58 179h16v61H58z"/><path fill="#a49787" d="M177.1 166.8l7.7-9.1 16.1 13.5-7.7 9.1z"/><circle r="1" fill="#aca799" transform="matrix(20.68209 20.39505 -3.98297 4.03903 23 219.4)"/><circle r="1" fill="#d1cec7" transform="matrix(1.03382 -1.69635 55.73905 33.96941 125.8 57)"/><circle r="1" fill="#bb968b" transform="rotate(36.1 -66.5 88.9) scale(20.17865 3.41161)"/><path fill="#d0b7af" d="M219 34L183 5 70 42z"/><ellipse cx="154" cy="211" fill="#b8a196" rx="16" ry="40"/><path fill="#97756b" d="M130.9 227.4l-25-20.2 57.8 56.3-22.1-9.4z"/><path fill="#c1b2a9" d="M12 106l23 39 27 7z"/><path fill="#978e7a" d="M70 6l26 15L86 9z"/><path fill="#cdcdc6" d="M36.1 43.3l143 107.8-1.2 1.6-143-107.8z"/><path fill="#a1a598" d="M104 96v72l59-23z"/><path fill="#a68a7c" d="M172.8 246.6l11-25.7 29.4 12.5-11 25.7z"/><path fill="#8f8a75" d="M86.3 218.3l7 3.9-3.9 2.8-14.2 38.2z"/><path fill="#c1b5ad" d="M66.5 196.7l-35.7-32.2 4.7-5.2 35.7 32.2z"/><circle r="1" fill="#a18880" transform="matrix(-2.51379 3.10854 -24.04324 -19.4431 49 164.3)"/><path fill="#c6c2b6" d="M169.1 113.4l-13.3 4.1L39.5 33.8l91.9 56.5z"/><path fill="#aba596" d="M152.9 127.9L80.7 71.6l-1.1-3.2 32.6 14.2z"/><path fill="#bec0b5" d="M114 139l25 27 27-3z"/><path fill="#cac1b4" d="M12.2 5.6l42.3 30.1L-7.8-16-16 28.8z"/><circle r="1" fill="#c6aca2" transform="matrix(15.0031 22.5741 -17.0872 11.35643 137.9 15.3)"/><path fill="#b9afa2" d="M208.2 91.2L111.7 29l-.9-42 .8 49.6z"/><path fill="#b08a7e" d="M-8.8 50.5L11.5 59l-2.7 6.4-20.3-8.6z"/><path fill="#aaa18d" d="M16.8 241.2L9 231.5l-11.7-11.8-13.3 10z"/><circle r="1" fill="#b79a8c" transform="matrix(1.5005 -2.6299 21.3662 12.1906 55.1 53.3)"/><path fill="#949487" d="M133.4 139l-49.8-30.9 30.7 25.8 8.6 8.8z"/><circle r="1" fill="#aca89a" transform="rotate(-142.2 103 100.5) scale(23.08186 4.68489)"/><path fill="#bec2b9" d="M110 113L46 92l7-28z"/><path fill="#6a695a" d="M31 238l-11-1 10 16z"/><path fill="#bbb9ab" d="M41.6 1l17-13.9 25.8 32-17 13.8z"/><path fill="#a9988a" d="M98 171l23-9-68-18z"/><path fill="#c5bfb5" d="M157.8 92.3L50.5 25.5l72.9 50.9 34.4 22.5z"/><circle r="1" fill="#afa89a" transform="matrix(-11.64058 -25.42524 15.26153 -6.98727 40 110.1)"/><path fill="#838272" d="M60.2 26.6l-16.3-4.1-4.8-9.9 11.8 3.8z"/><path fill="#bcb6ae" d="M67.9 193.9L35 209.6l15-21.3 78.7-21.1z"/><path fill="#a39c8f" d="M28.1 201.4l35.8 22.1L36 181.7 7.3 168.5z"/><path fill="#bcbca6" d="M124 271l-23.6-23.5-5.8-11.8 10.6 3.3z"/><path fill="#919282" d="M85.7 219.3l-25.1-18.2 1.7-2.4 25.1 18.2z"/><circle r="1" fill="#6e685e" transform="matrix(11.38501 4.24608 -.45936 1.23168 1.6 190.4)"/><path fill="#a49f90" d="M173 117l-1-31 31 39z"/><path fill="#cdcec5" d="M92 34.4l106.5 70.9 20.5 9.9L168.4 80z"/><path fill="#aaa58f" d="M201.5 15.6L170.6-16l28.1 22 20.3 5.3z"/><path fill="#cbc9c0" d="M18.6 65l91.4 65.8-74.8-58.3L14 57.7z"/><path fill="#998f7d" d="M-6.7 271h50.9l-9.4-41.8 15.4 9.3z"/><path fill="#73847f" d="M76.3 110.3l6.8 1.6-1.4 5.8-6.8-1.6z"/><path fill="#b1aa99" d="M-6.1 26.6l-2.2 5.6L37.2-6l-5.1 44.1z"/><circle r="1" fill="#9c998e" transform="rotate(41.4 -98.5 239.8) scale(36.95192 1.86565)"/><path fill="#a3a39b" d="M60.5 85.9l-.8-5 17.8-2.8.8 5z"/><path fill="#dccfcb" d="M213.9 33l.2 7-28 1-.2-7z"/><path fill="#b1b6ad" d="M49.6 123.1l-14.9-15.8 31.6 16.3 2.4 10.1z"/><path fill="#8f8c7e" d="M110.5 74l16.7-6.8.3.9-16.7 6.7z"/><circle r="1" fill="#c8bcb3" transform="matrix(-1.21328 1.92665 -30.93898 -19.48332 47.4 39.4)"/><path fill="#b29e90" d="M158 173l-29-14 9 56z"/><path fill="#a28173" d="M177.6 249.2l-3.5 8.3-15.7-6.7 3.5-8.3z"/><path fill="#998879" d="M67.2 47.2l-13.5-8.7 1.1-1.7 13.5 8.7z"/><path fill="#d0d0c9" d="M186.5 65.3l-8.3 3.5L207 86.4l-1.9-5z"/><path fill="#c0baac" d="M145.5 137.5l6.9 21.8-17.4-21.8.5-9.6z"/><path fill="#b6b8ad" d="M214 50l-5 31-65-45z"/><path fill="#bbaba1" d="M211.4 257.3L95.5 156.9 219 256.5v4z"/><path fill="#ad9d92" d="M43.5 155.5L34 122.8 18.1 148-16 93.7z"/><path fill="#98927f" d="M102 239.5l-11.8 21.6L74 202.9l14.3 33.9z"/><path fill="#838276" d="M3 225l-10-33 27 37z"/><path fill="#858581" d="M88.6 132.2l-16.3-7.9 9.2 17.3-17.4-7.3z"/><path fill="#8b8e86" d="M130 124l-25 20-18-2z"/><path fill="#bdb5ac" d="M77.9 168.7l7.8-20.4 10.2 3.7-35.9 5.4z"/><circle r="1" fill="#d3d0c8" transform="rotate(-153.5 73.7 4.5) scale(34.01185 1.69998)"/><circle r="1" fill="#c1aba4" transform="matrix(-2.17937 10.71196 -38.94176 -7.92279 196.4 185.3)"/><path fill="#bba79e" d="M152 247l23-7-56-32z"/><path fill="#af9386" d="M164.9 185l39.3 28.3-44.7-8.5 32.9 42.3z"/><path fill="#be9f92" d="M128 41l-1.2-4L166 25l1.2 4z"/><path fill="#a38d81" d="M96.8 210.8l-19-17.7 5.4-5.9 19 17.7z"/><circle r="1" fill="#b9b5a6" transform="matrix(-7.758 -8.21008 3.55423 -3.35852 93.4 215.6)"/><circle r="1" fill="#a78a7f" transform="rotate(-57.6 150 82.5) scale(4.55453 38.62643)"/><path fill="#afa89a" d="M54 247l34-1-31 25z"/><path fill="#b6baa9" d="M108 152l-12-12v20z"/><path fill="#998f83" d="M89.7 44.3L104 60.4l6.6.2-71.8-46.5z"/></g></g></svg>