<svg xmlns="http://www.w3.org/2000/svg" viewBox="0 0 1000 1250"><defs/><filter id="a"><feGaussianBlur stdDeviation="12"/></filter><rect width="100%" height="100%" fill="#2d394a"/><g filter="url(#a)"><g fill-opacity=".5" transform="translate(2.4 2.4) scale(4.88281)"><circle r="1" fill="#fff0db" transform="matrix(6.287 101.0496 -202.60824 12.60566 113 64.7)"/><ellipse cx="98" cy="160" fill="#636868" rx="135" ry="77"/><circle r="1" fill="#f6e1cf" transform="rotate(174.6 54.5 12.1) scale(202.53974 36.06435)"/><path fill="#6a6d70" d="M71 31l-86 171 234-8z"/><circle r="1" fill="#ddd5cb" transform="rotate(94.2 -15 27.7) scale(83.00368 13.16477)"/><ellipse cx="115" cy="53" fill="#aba7a4" rx="96" ry="21"/><ellipse cx="87" cy="154" fill="#575c5f" rx="66" ry="27"/><path fill="#797c7c" d="M-29.2 230l4.5-86.9 54 2.9-4.6 86.9z"/><ellipse cx="156" cy="67" fill="#d6c5b8" rx="6" ry="67"/><circle r="1" fill="#243133" transform="matrix(47.90373 -2.09152 1.45815 33.39702 73 243)"/><circle r="1" fill="#707984" transform="matrix(-13.64276 -57.2925 23.71331 -5.64672 189.4 130.8)"/><circle r="1" fill="#1a241f" transform="matrix(-21.33782 -23.38392 17.24739 -15.73824 177.5 243.5)"/><path fill="#838280" d="M111.3 33.6L89.4 53.2l5.4 5.5 57.3 172.4z"/><ellipse cx="141" cy="249" fill="#696b6a" rx="10" ry="192"/><circle r="1" fill="#8b9299" transform="matrix(74.35483 -81.05357 14.79484 13.57211 6.6 124)"/><ellipse cx="31" cy="64" fill="#e2d4c5" rx="3" ry="63"/><ellipse cx="82" cy="82" fill="#d9c8b7" rx="2" ry="77"/><ellipse cx="121" cy="85" fill="#cfbfb0" rx="4" ry="36"/><circle r="1" fill="#decebf" transform="matrix(-22.0073 -20.71193 99.9323 -106.18225 25.2 13.8)"/><path fill="#d2c0af" d="M130 58h4v83h-4z"/><path fill="#54585b" d="M102 50h10v185h-10z"/><path fill="#d2c7c0" d="M182 94l-7-110 36 11z"/><path fill="#596168" d="M130.8 107.4l-6 .2-1.6-45 6-.2z"/><ellipse cx="125" cy="239" fill="#6d6d6b" rx="3" ry="190"/><path fill="#7a858f" d="M168.3 118.7l-.9-96.5L219 160.5l-3.3-131.6z"/><path fill="#353d3f" d="M102.3 261l11.8-96 8 52.9 1.4 53.1z"/><ellipse cx="66" cy="187" fill="#3c454c" rx="5" ry="63"/><circle r="1" fill="#6b7073" transform="matrix(-12.41427 14.81961 -35.61612 -29.83535 174.2 149.2)"/><path fill="#64696e" d="M150.5 94.8L146.8 56l-21.3 115 30.6.6z"/><path fill="#6d747b" d="M32 77h33v71H32z"/><circle r="1" fill="#d3c1b0" transform="rotate(89 11.5 54.8) scale(63.69222 1)"/><path fill="#3b474b" d="M215 217l-60 21-3-60z"/><ellipse cx="78" cy="216" fill="#0f212d" rx="2" ry="38"/><circle r="1" fill="#505653" transform="rotate(82.8 -121.3 122.4) scale(32.8752 4.83875)"/><path fill="#d6c2b2" d="M115.2 42.5l-1.4 79h-1l1.4-79z"/><path fill="#afa8a1" d="M86.2 77.6l31.9-59.8-39.2 39.8 8.5 64.5z"/><ellipse cx="189" cy="255" fill="#131c1f" rx="42" ry="15"/><ellipse cx="51" cy="80" fill="#757c81" rx="3" ry="50"/><path fill="#61676b" d="M68 58h12v123H68z"/><path fill="#6c6d6a" d="M176 160h5v85h-5z"/><ellipse cx="46" cy="239" fill="#555b5f" rx="2" ry="156"/><path fill="#9d9c9b" d="M104 51h5v32h-5z"/><path fill="#5d6268" d="M93 40h2v71h-2z"/><ellipse cx="130" cy="227" fill="#071921" rx="1" ry="55"/><path fill="#737c85" d="M5 85h4v64H5z"/><ellipse cx="165" cy="220" fill="#6d6b68" rx="2" ry="24"/><path fill="#475c6c" d="M70 29h2v33h-2z"/><circle r="1" fill="#142328" transform="matrix(5.70924 -46.49742 .99255 .12187 27.2 227)"/><path fill="#bab0a5" d="M160.1 49.6l2.8 74.4-7.6 19 .4-48.6z"/><path fill="#081e33" d="M107 89h1v54h-1z"/><ellipse cx="93" cy="103" fill="#b8ada4" rx="41" ry="1"/><ellipse cx="135" cy="80" fill="#565c63" rx="2" ry="17"/><path fill="#716f6c" d="M113.3 281.5h-1l4.4-125h1z"/><path fill="#71767d" d="M-16 205L29 84l-6 101z"/><path fill="#6b777f" d="M77 21h3v55h-3z"/><path fill="#1b2e3a" d="M40 183h5v73h-5z"/><circle r="1" fill="#828384" transform="matrix(.27854 -37.76624 2.10371 .01552 152.9 99)"/><path fill="#213335" d="M6.8 238.3l16 31.7-38.8-1 20.7-55.5z"/><ellipse cx="91" cy="90" fill="#b9afa5" rx="39" ry="1"/><ellipse cx="112" cy="143" fill="#ada298" rx="39" ry="1"/><ellipse cx="98" cy="87" fill="#bfb2a7" rx="31" ry="1"/><ellipse cx="57" cy="49" fill="#ccc0b3" rx="2" ry="40"/><ellipse cx="8" cy="64" fill="#a2a9ab" rx="3" ry="23"/><circle r="1" fill="#303b44" transform="rotate(-87.6 144.2 23.8) scale(73.33522 1)"/><path fill="#d7c9ba" d="M74.4 67.5l-1.8-49h1l1.8 49z"/><ellipse cx="105" cy="151" fill="#a29a91" rx="45" ry="1"/><ellipse cx="103" cy="170" fill="#9a9188" rx="47" ry="1"/><ellipse cx="118" cy="255" fill="#142937" rx="2" ry="78"/><ellipse cx="101" cy="95" fill="#baafa5" rx="39" ry="1"/><ellipse cx="25" cy="94" fill="#747d85" rx="3" ry="53"/><path fill="#d5c7ba" d="M52.5-16L14.1 48.1l28.8 4.2 5.3 17.8z"/><path fill="#76756f" d="M31 195h4v39h-4z"/><ellipse cx="93" cy="120" fill="#243442" rx="37" ry="1"/><ellipse cx="203" cy="130" fill="#1a3a58" rx="37" ry="1"/><ellipse cx="171" cy="205" fill="#223543" rx="5" ry="28"/><path fill="#8f989c" d="M29 111h3v57h-3z"/><ellipse cx="88" cy="115" fill="#24374a" rx="29" ry="1"/><ellipse cx="90" cy="158" fill="#23323e" rx="35" ry="1"/><ellipse cx="203" cy="153" fill="#c7b7a9" rx="37" ry="1"/><path fill="#10202e" d="M67 144.6h1l-5 56.8h-1z"/><ellipse cx="100" cy="154" fill="#aaa097" rx="33" ry="1"/><path fill="#122837" d="M188 172h2v45h-2z"/><circle r="1" fill="#172631" transform="rotate(-179.9 43.3 127.5) scale(2.5264 57.1026)"/><path fill="#61666b" d="M169 65h5v133h-5z"/><ellipse cx="188" cy="96" fill="#abaaa8" rx="2" ry="32"/><path fill="#d9c7b7" d="M65 0h4v64h-4z"/><ellipse cx="66" cy="197" fill="#565c60" rx="2" ry="83"/><path fill="#706b63" d="M21.5 230l-4 32.7-5-.6 4-32.8z"/><ellipse cx="70" cy="230" fill="#0d1e2a" rx="2" ry="38"/><ellipse cx="185" cy="70" fill="#5a6571" rx="1" ry="21"/><ellipse cx="105" cy="135" fill="#a69d94" rx="34" ry="1"/><ellipse cx="187" cy="164" fill="#b8aba0" rx="21" ry="1"/><path fill="#6c6f6f" d="M46 168h3v74h-3z"/><path fill="#bdb0a4" d="M119 79h2v58h-2z"/><ellipse cx="105" cy="146" fill="#9b958f" rx="45" ry="1"/><ellipse cx="75" cy="98" fill="#c1b5aa" rx="23" ry="1"/><ellipse cx="190" cy="121" fill="#243e56" rx="25" ry="1"/><path fill="#abb0b0" d="M16.5 110.4l5.3 5L8 50.4l.9 89.6z"/><ellipse cx="87" cy="127" fill="#aea49a" rx="30" ry="1"/><path fill="#c7bfb6" d="M48 29L27 54l3 39z"/></g></g></svg>