<svg xmlns="http://www.w3.org/2000/svg" viewBox="0 0 800 1000"><defs/><filter id="a"><feGaussianBlur stdDeviation="12"/></filter><rect width="100%" height="100%" fill="#735636"/><g filter="url(#a)"><g fill-opacity=".5" transform="translate(2 2) scale(3.90625)"><circle r="1" fill="#fff" transform="matrix(150.65817 59.8273 -66.686 167.92984 112.5 120.1)"/><ellipse cx="200" cy="122" fill="#fff" rx="25" ry="255"/><ellipse cy="162" fill="#fff" rx="22" ry="254"/><circle r="1" fill="#fff" transform="matrix(202.93311 -5.21074 .54237 21.12257 108.7 0)"/><circle r="1" fill="#fff" transform="rotate(90.7 -74 172.3) scale(13.26075 140.50049)"/><path fill="#935a15" d="M174 22l1 225-44-62z"/><ellipse cx="97" cy="197" fill="#96642e" rx="29" ry="39"/><circle r="1" fill="#a8753c" transform="matrix(-3.549 -72.97579 24.06035 -1.17011 99.5 91.2)"/><ellipse cx="192" cy="145" fill="#fff" rx="18" ry="255"/><ellipse cx="7" cy="145" fill="#fff" rx="14" ry="245"/><circle r="1" fill="#fff" transform="matrix(-.3272 19.85498 -145.85604 -2.40363 103.4 255)"/><ellipse cx="87" cy="3" fill="#fff" rx="203" ry="17"/><ellipse cx="58" cy="55" fill="#f5ebda" rx="9" ry="178"/><path fill="#aa7c43" d="M145 19h31v118h-31z"/><circle r="1" fill="#e3d1a9" transform="matrix(10.80518 -.07797 .66865 92.66457 136.9 113.8)"/><path fill="#976c41" d="M21.6 107.7l.9 132.7-8.2.4 38.1-11.3z"/><ellipse cx="190" cy="103" fill="#fff" rx="15" ry="255"/><ellipse cx="26" cy="84" fill="#9f6d3a" rx="7" ry="63"/><path fill="#8d622c" d="M170 237l4-31-102 25z"/><ellipse cx="7" cy="169" fill="#fff" rx="14" ry="234"/><ellipse cx="97" cy="2" fill="#fff" rx="203" ry="18"/><ellipse cx="96" cy="254" fill="#fff" rx="138" ry="19"/><path fill="#c0ae97" d="M85.5 163v68h-53v-68z"/><ellipse cx="170" cy="159" fill="#8c5928" rx="6" ry="50"/><ellipse cx="97" cy="129" fill="#9d6e41" rx="10" ry="107"/><ellipse cx="190" fill="#fff" rx="16" ry="250"/><ellipse cx="115" cy="116" fill="#b99d76" rx="12" ry="97"/><path fill="#cabb9b" d="M124 145h19v88h-19z"/><ellipse cx="97" cy="24" fill="#af8956" rx="48" ry="5"/><ellipse cx="186" cy="230" fill="#fff" rx="13" ry="93"/><ellipse cx="78" cy="112" fill="#bda586" rx="11" ry="89"/><ellipse cx="153" cy="106" fill="#b69a73" rx="11" ry="69"/><ellipse cx="21" cy="1" fill="#fff" rx="147" ry="21"/><ellipse cx="8" cy="175" fill="#fff" rx="13" ry="219"/><path fill="#986936" d="M167.8 17.2l9 41.5-.9 23.1-15-28.6z"/><path fill="#906d45" d="M49.7 236l-27.2-.2.4-17.2-.7-22.8z"/><ellipse cx="88" cy="253" fill="#fff" rx="169" ry="17"/><path fill="#895e33" d="M43 232h80v3H43z"/><path fill="#8e6636" d="M144 201h30v36h-30z"/><path fill="#d9cdbb" d="M51 24h17v197H51z"/><ellipse cx="40" cy="99" fill="#c0a787" rx="11" ry="78"/><path fill="#9d7140" d="M174.3 25.1l.9-4.2-18.3.4 19.8 114.9z"/><ellipse cx="23" cy="56" fill="#a3774a" rx="4" ry="35"/><path fill="#dfcca4" d="M125 22h19v65h-19z"/><path fill="#ac926a" d="M135 201h27v23h-27z"/><circle r="1" fill="#9c7a55" transform="matrix(-11.26986 -7.27997 16.72027 -25.88405 89.6 208.5)"/><ellipse cx="196" cy="223" fill="#fff" rx="22" ry="171"/><ellipse cx="7" cy="216" fill="#fff" rx="15" ry="179"/><path fill="#b89c79" d="M108 20h18v170h-18z"/><circle r="1" fill="#a58365" transform="rotate(-178 13.9 64) scale(4.4418 44.25678)"/><ellipse cx="77" cy="131" fill="#b8a286" rx="9" ry="100"/><ellipse cx="196" cy="18" fill="#fff" rx="22" ry="124"/><ellipse cx="160" cy="2" fill="#fff" rx="203" ry="17"/><path fill="#997045" d="M28 22h74v2H28z"/><circle r="1" fill="#8e6535" transform="rotate(-88.2 188.8 16) scale(33.76604 8.30853)"/><path fill="#a57a4d" d="M88 20h19v63H88z"/><path fill="#fff" d="M31.4 258.3l-16.5-46.7L20.7-3.9-16 219.2z"/><ellipse cx="91" cy="248" fill="#fff" rx="93" ry="14"/><path fill="#8d6135" d="M89 201h16v31H89z"/><path fill="#aa8d6d" d="M104 146h21v87h-21z"/><path fill="#9e794d" d="M21.5 49l9.4-11.5 6.8-12.9-16.4-2.7z"/><path fill="#bea787" d="M64.2 26.4l.4 22.5 20.1 70.6-3.6-98.4z"/><ellipse cx="155" cy="79" fill="#b5956a" rx="10" ry="60"/><path fill="#966634" d="M166 20h8v91h-8z"/><path fill="#b09a80" d="M32 182h18v51H32z"/><path fill="#8b643c" d="M24 237.1l-1-32 7-.2 1 32z"/><path fill="#c5b497" d="M126 160h16v73h-16z"/><path fill="#a2825a" d="M144 154h20v74h-20z"/><ellipse cx="27" cy="159" fill="#a17e5e" rx="6" ry="55"/><ellipse cx="141" cy="55" fill="#d1bf9a" rx="6" ry="33"/><path fill="#e2d4c0" d="M47.4 36.5l10.2 67.4 2.2 15.2L71 63.5z"/><path fill="#7d4c19" d="M145 234h27v3h-27z"/><path fill="#b2987c" d="M90.2 130.2L72.5 153l-7.3 50.5L83.5 215z"/><path fill="#b7986e" d="M107 20h20v33h-20z"/><path fill="#a1753f" d="M173 22.6l-42-2.2v-1l42 2.2z"/><ellipse cx="36" cy="154" fill="#b5a18b" rx="6" ry="49"/><path fill="#c4b396" d="M31 52h19v44H31z"/><ellipse cx="29" cy="3" fill="#fff" rx="103" ry="19"/><path fill="#a3845f" d="M119.7 233.1l7.6-20.7-.9-12.8-26.8 5.5z"/><path fill="#fff" d="M176 116h28v128h-28z"/><path fill="#b89d7c" d="M108 49h16v136h-16z"/><path fill="#ae8862" d="M87 57h8v121h-8z"/><path fill="#958a7a" d="M3 0l14-3-27-3z"/><circle r="1" fill="#d5c5a8" transform="matrix(-5.8918 1.12234 -5.2111 -27.35613 130.9 87.1)"/><path fill="#7d4c1b" d="M130 234h21v2h-21z"/><path fill="#946739" d="M70 21h34v1H70z"/><path fill="#8a5c29" d="M163 187h8v50h-8z"/><path fill="#d2c5b5" d="M47.4 145l3.6 21.3 22-12.1-8.6-47.5z"/><path fill="#cabfb0" d="M51 231l13 1v-44z"/><path fill="#ad9569" d="M136 197h3v36h-3z"/><path fill="#c3b399" d="M123 174h23v22h-23z"/><ellipse cx="103" cy="131" fill="#a2774d" rx="3" ry="43"/><path fill="#a98664" d="M21 61h7v86h-7z"/><path fill="#9b734d" d="M21 23h8v29h-8z"/><path fill="#fff" d="M-16-16l33.9 272.1 2.2-200.2.3-21.4z"/><ellipse cx="8" cy="237" fill="#fff" rx="15" ry="30"/><ellipse cx="143" cy="8" fill="#fff" rx="203" ry="11"/><path fill="#a88254" d="M177 101.7l-9.8-27-25.6-23.2 23 1.2z"/><path fill="#cdbda2" d="M124 182.5l8.5-48.5 15.9-16.9-13.9 73.5z"/><path fill="#fff" d="M24 237h125v19H24z"/></g></g></svg>