<svg xmlns="http://www.w3.org/2000/svg" viewBox="0 0 800 1000"><defs/><filter id="a"><feGaussianBlur stdDeviation="12"/></filter><rect width="100%" height="100%" fill="#60574b"/><g filter="url(#a)"><g fill-opacity=".5" transform="translate(2 2) scale(3.90625)"><circle cx="140" cy="129" r="192" fill="#fff"/><circle cx="121" cy="153" r="224" fill="#f5eee1"/><circle cx="99" cy="90" r="78" fill="#a59986"/><ellipse cx="203" cy="68" fill="#fff" rx="28" ry="255"/><ellipse cy="145" fill="#fff" rx="25" ry="232"/><circle r="1" fill="#fff" transform="rotate(177.5 51 1.1) scale(135.76877 16.16072)"/><circle cx="81" cy="187" r="58" fill="#b8a999"/><ellipse cx="107" cy="254" fill="#fff" rx="203" ry="10"/><circle r="1" fill="#fff" transform="matrix(27.33343 -.07329 .4616 172.15849 203 102)"/><path fill="#9a9383" d="M110 14h66v44h-66z"/><circle r="1" fill="#fff" transform="matrix(.2526 165.4882 -15.53737 .02372 9.6 142)"/><path fill="#9e9a85" d="M24 18h19v224H24z"/><path fill="#b5afa3" d="M141 127h37v113h-37z"/><ellipse cx="64" cy="5" fill="#fff" rx="139" ry="10"/><ellipse cx="88" cy="250" fill="#fff" rx="203" ry="6"/><ellipse cx="4" cy="155" fill="#fff" rx="21" ry="176"/><ellipse cx="193" cy="123" fill="#fff" rx="16" ry="141"/><path fill="#a39d8b" d="M22 15h154v19H22z"/><ellipse cx="128" cy="136" fill="#cabeb2" rx="27" ry="109"/><path fill="#ccc3b8" d="M168 159L51 137l2 33z"/><ellipse cx="82" fill="#fff" rx="103" ry="15"/><path fill="#aca79c" d="M156 13h20v175h-20z"/><circle r="1" fill="#bcab9d" transform="rotate(48.3 -17.3 166.6) scale(26.05281 46.68901)"/><ellipse cx="197" cy="84" fill="#fff" rx="21" ry="198"/><ellipse cx="120" cy="250" fill="#fff" rx="203" ry="6"/><path fill="#b5b5a7" d="M23 224h111v21H23z"/><path fill="#9f9888" d="M24.6 116l19-1 1.8 35-19 1z"/><path fill="#c0a797" d="M66 168h37v29H66z"/><path fill="#a2a599" d="M114 109h14v37h-14z"/><path fill="#d8c8bf" d="M137.5 96.1l-18.6-28.9 36.4 54.1-29.9 102.1z"/><ellipse cx="5" cy="159" fill="#fff" rx="19" ry="234"/><path fill="#ccc1b1" d="M33 45h84v14H33z"/><circle r="1" fill="#d4bdb0" transform="matrix(-8.07705 -5.46321 17.51834 -25.89986 67.9 100.6)"/><ellipse cx="25" cy="51" fill="#a9a28a" rx="3" ry="27"/><path fill="#fff" d="M152.6 247.5l-86.1-3.9L202.6 271l-20.5-29z"/><path fill="#9b9587" d="M164 24.1l-19.5-2.6 24.7 32.4 5.6-35.9z"/><circle r="1" fill="#ccc7ba" transform="matrix(38.24838 18.07993 -8.30222 17.56349 145.3 219.2)"/><ellipse cx="110" cy="1" fill="#fff" rx="203" ry="12"/><path fill="#b6a594" d="M103 90l23-25H32z"/><ellipse cx="32" cy="188" fill="#c3bbae" rx="5" ry="41"/><path fill="#b3ae9a" d="M23 16h36v40H23z"/><path fill="#c1beb3" d="M165 156l-16 67 37 20z"/><path fill="#c7c0b5" d="M160.3 143.7l2.4-45.9 9 .5-2.4 45.9z"/><path fill="#aca498" d="M150 142h27v17h-27z"/><path fill="#fff" d="M176 0h28v114h-28z"/><path fill="#979e92" d="M102 141l-31-2-1-12z"/><path fill="#a39f91" d="M150 92h8v25h-8z"/><path fill="#afa595" d="M96 151h7v56h-7z"/><path fill="#a4a194" d="M36 225h65v3H36z"/><path fill="#b0aa9b" d="M121 44l36-32-103 5z"/><ellipse cx="75" cy="252" fill="#fff" rx="203" ry="7"/><ellipse cx="43" cy="150" fill="#949787" rx="1" ry="44"/><path fill="#beb7a7" d="M31 15h45v13H31z"/><path fill="#bcbfb1" d="M75 102h43v27H75z"/><path fill="#dad1c7" d="M104 195h70v4h-70z"/><ellipse cx="11" cy="177" fill="#fff" rx="12" ry="255"/><path fill="#ccb4a4" d="M59 58h29v39H59z"/><path fill="#d0b7ab" d="M56 119l47 106-44-30z"/><path fill="#cfd1c6" d="M53 149h50v3H53z"/><path fill="#d5c0b3" d="M130.3 164.2l-36.2 62.3 38.5-18.6 12-26.5z"/><path fill="#fff" d="M179 133h25v72h-25zm40 97l-31.7 41-156.1-15.7L180.8 243z"/><path fill="#9d9888" d="M110 26h65v8h-65z"/><path fill="#d9d1c9" d="M136 99h3v106h-3z"/><path fill="#fff" d="M23 244h21v12H23z"/><path fill="#d1cebf" d="M146 173l2.2-23.1 10 34.1-11.3 26.8z"/><path fill="#b2af9e" d="M148.2 57.2l23.1-16.1-33.3-10 5.6 89.6z"/><path fill="#cfc5b5" d="M67.2 64.3l30.6-14.6-36.3-.2 1-38.2z"/><path fill="#fff" d="M0 129h25v58H0z"/><ellipse cx="99" cy="73" fill="#9da193" rx="14" ry="4"/><path fill="#afb0a7" d="M175.3 200.5l2-.4 5.4 25.4-2 .4z"/><path fill="#bcac9b" d="M78 236.6l-5 .5-7-65.7 5-.5z"/><ellipse cx="109" cy="137" fill="#b7ae9f" rx="2" ry="84"/><path fill="#c3c0b2" d="M151 79h19v12h-19z"/><path fill="#aca290" d="M24 204h5v32h-5z"/><path fill="#a8a598" d="M113 130h22v12h-22z"/><path fill="#d8cbc1" d="M103.5 163.1l1 6.7 51.1 7.3-43.2-12.8z"/><path fill="#cbcab8" d="M68 215l-17-20-10 29z"/><ellipse cx="143" cy="170" fill="#bcb4a6" rx="3" ry="34"/><path fill="#ccc6b9" d="M52 97l9 13 42-4z"/><path fill="#9e9788" d="M31 27h7v15h-7z"/><path fill="#bec4bb" d="M111.5 144.8l16.3 4.1-31.3 2.6-14.1-8z"/><path fill="#aba494" d="M40 115l-14 48-1-59z"/><ellipse cx="40" cy="20" fill="#bab1a1" rx="19" ry="7"/><ellipse cx="38" cy="3" fill="#fff" rx="159" ry="12"/><circle r="1" fill="#afaa9b" transform="rotate(-89 101 28) scale(21.41708 5.81502)"/><circle cx="33" cy="68" r="5" fill="#928c80"/><path fill="#b1a694" d="M25 176h38v5H25z"/><path fill="#c6c1b5" d="M101.5 237.8l31 7.7 15.9.3-45.9-38.5z"/><path fill="#fff" d="M177-9l42 131-34 137z"/><path fill="#c5b3a6" d="M114 139h4v75h-4z"/><path fill="#cbb7ac" d="M135 103.3l1 21.8-31.5-44.8 25.5-5.9z"/><path fill="#bfbaad" d="M39.7 225.2l-18.8 18.6 30.2 1 87.3-1.9z"/><path fill="#a8a395" d="M94 84h9v22h-9z"/><path fill="#b2ad9e" d="M77 235.5H45v-11h32z"/><path fill="#b4b3a9" d="M101 226h68v3h-68z"/><path fill="#b3ad97" d="M61 53L45 65l10 41z"/><path fill="#a8a997" d="M87 184h24v6H87z"/><path fill="#9b968b" d="M160 23h2v72h-2z"/><path fill="#aba594" d="M89 92h3v34h-3z"/></g></g></svg>