<svg xmlns="http://www.w3.org/2000/svg" viewBox="0 0 800 1000"><defs/><filter id="a"><feGaussianBlur stdDeviation="12"/></filter><rect width="100%" height="100%" fill="#605741"/><g filter="url(#a)"><g fill-opacity=".5" transform="translate(2 2) scale(3.90625)"><circle cx="110" cy="169" r="208" fill="#fff"/><ellipse cx="194" cy="123" fill="#fff" rx="17" ry="255"/><ellipse cx="5" cy="202" fill="#fff" rx="18" ry="255"/><path fill="#fff" d="M203-20.7l1.6 29-237.7 12.4-1.5-29z"/><circle r="1" fill="#fff" transform="matrix(161.25784 3.0963 -.24636 12.8305 113.3 245.5)"/><ellipse cx="89" cy="115" fill="#80816e" rx="67" ry="102"/><ellipse cx="192" cy="149" fill="#fff" rx="15" ry="255"/><ellipse cx="6" cy="205" fill="#fff" rx="16" ry="255"/><ellipse cx="59" cy="3" fill="#fff" rx="123" ry="11"/><ellipse cx="120" cy="254" fill="#fff" rx="203" ry="12"/><ellipse cx="97" cy="65" fill="#61635f" rx="27" ry="22"/><ellipse cx="101" cy="131" fill="#bab5a1" rx="33" ry="37"/><ellipse cx="193" cy="106" fill="#fff" rx="16" ry="253"/><ellipse cx="2" cy="153" fill="#fff" rx="19" ry="243"/><path fill="#999681" d="M22 16h52v170H22z"/><ellipse cx="54" fill="#fff" rx="118" ry="15"/><ellipse cx="81" cy="255" fill="#fff" rx="168" ry="13"/><path fill="#9e997e" d="M107 11l62 94 2-93z"/><circle r="1" fill="#707270" transform="matrix(16.6342 -24.94193 13.88216 9.25825 66 94)"/><circle r="1" fill="#747674" transform="matrix(17.41679 22.94682 -12.45537 9.4537 129.4 88.3)"/><circle r="1" fill="#aaa68f" transform="rotate(63.3 -141.8 148.7) scale(35.99877 26.10414)"/><ellipse cx="193" cy="96" fill="#fff" rx="15" ry="255"/><ellipse cx="8" cy="173" fill="#fff" rx="13" ry="202"/><path fill="#aba792" d="M26 241h70L21 107z"/><path fill="#7e807c" d="M42 159l93 17-36 43z"/><ellipse cx="33" cy="85" fill="#a5a18a" rx="14" ry="71"/><path fill="#fff" d="M0 0h204v10H0z"/><ellipse cx="10" cy="213" fill="#fff" rx="13" ry="106"/><path fill="#b0ac95" d="M173.5 167.3l-45.4 71.6L91.7 141l9.4 62.7z"/><path fill="#787a76" d="M48 95h13v66H48z"/><path fill="#a29e8a" d="M70 91h60v27H70z"/><path fill="#b4b2a4" d="M112 137l-51 22 86 7z"/><path fill="#a7a28c" d="M42 211h87v31H42z"/><path fill="#bdbaa5" d="M153 91h25v76h-25z"/><ellipse cx="70" cy="252" fill="#fff" rx="147" ry="10"/><path fill="#a19c83" d="M38 15h119v32H38z"/><path fill="#a19e8a" d="M91 60h15v79H91z"/><path fill="#a8a490" d="M141 10h37v70h-37z"/><circle r="1" fill="#fff" transform="matrix(-.63738 117.22211 -14.83792 -.08068 192.4 128)"/><path fill="#b9b59e" d="M125 186h54v52h-54z"/><path fill="#74746a" d="M86.6 81.9l25.2 1.7L62.2 54l37.9-16.2z"/><ellipse cx="115" cy="183" fill="#7b7d79" rx="8" ry="23"/><path fill="#757671" d="M79 165h14v36H79z"/><path fill="#9b967d" d="M86 48L23 75l-4-33z"/><circle r="1" fill="#8e908d" transform="rotate(-97.2 137 13.1) scale(21.65478 12.81839)"/><ellipse cx="40" cy="2" fill="#fff" rx="121" ry="13"/><path fill="#9f9a87" d="M110 13l50 87-14-90z"/><path fill="#aca88f" d="M20 29h58v20H20z"/><path fill="#afab99" d="M45.3 133l3.3 46.8-18 1.3-3.2-47z"/><path fill="#b0aea1" d="M125 116h46v14h-46z"/><ellipse cx="5" cy="114" fill="#fff" rx="16" ry="125"/><path fill="#aca796" d="M113.3 240l-36.2-41.4-.9-14.5-25.9 13.4z"/><circle r="1" fill="#95948a" transform="rotate(-96.4 150.7 29.5) scale(33.37229 4.47933)"/><path fill="#6f716f" d="M133 101l20-1-21-22z"/><path fill="#b3b1a1" d="M132.5 118.8l-4.1 7.9 6.3 28.1-37.8 19.3z"/><path fill="#aaa795" d="M28.5 71.7l-7.4 33.8 18.7-12.3 23.5-14.8z"/><path fill="#a19b7e" d="M158 240h19v4h-19z"/><path fill="#5d5f5b" d="M78 54l-1 31 14-40z"/><path fill="#a29f8d" d="M74 147.2l-14.7-33L94 98.9l14.7 33z"/><path fill="#afa993" d="M100.2 202.2l-11.7-22.5.8 2.3 15.6 1.1z"/><path fill="#a9a792" d="M50 60h26v10H50z"/><path fill="#fff" d="M4 242h40v14H4z"/><path fill="#7b7c76" d="M60 177h8v17h-8z"/><path fill="#fff" d="M186.4 11l-9 260L219-9.6 35.1 4z"/><path fill="#9d9a84" d="M34.5 16.3l133.1-4.7-127 24L20.9 31z"/><ellipse cx="94" cy="255" fill="#fff" rx="126" ry="13"/><circle r="1" fill="#a8a38d" transform="matrix(17.40194 -4.11364 2.04947 8.66986 130 44.3)"/><path fill="#aca998" d="M176.5 68.5l-1 51.1-30.3-40.2-15.5-1.2z"/><path fill="#76766c" d="M44 111l3-23 27 23z"/><path fill="#7e807b" d="M94.8 215l-11.7-11.1 36.6-1.9-14.5 16z"/><path fill="#9d9479" d="M114 238h35v4h-35z"/><ellipse cx="128" cy="176" fill="#b7b4a9" rx="2" ry="49"/><path fill="#787974" d="M65.2 83.6l10.4 11.3 29.9-17.6 13.8-10.4z"/><path fill="#adaa96" d="M127 108L98 78 86 95z"/><path fill="#939283" d="M96 61.8l-21.7.1 54.7 10 .5-7.3z"/><path fill="#998e6c" d="M173 242h6v3h-6z"/><path fill="#a5a496" d="M83.8 122.6l-22.2-1.7 27.2 41.5-30.5 5.6z"/><path fill="#7b7d79" d="M131 133h23v7h-23z"/><path fill="#777873" d="M112.1 79.3l1.8 17.9 26.3-30.4-60.8 10.1z"/><path fill="#a6a08a" d="M43 217h104v8H43z"/><path fill="#7e7f79" d="M48.9 133l32 12.1-31.4 4.7 31.7-86.6z"/><path fill="#6a6b65" d="M86 52h31v9H86z"/><path fill="#bfbaa8" d="M126 193h52v9h-52z"/><path fill="#8e8c7b" d="M101.7 110.3l-13.1 1.2-11.2 7.9 1.7-14.6z"/><path fill="#a09d82" d="M19 16h6v18h-6z"/><path fill="#aca99d" d="M37 174h42v4H37z"/><path fill="#d9d6be" d="M23 196h1v43h-1z"/><path fill="#c0bba3" d="M142 172h27v9h-27z"/><path fill="#97968b" d="M152.9 115.9L145.7 79l1.2 32.4 22.4-5.3z"/><path fill="#9c9c92" d="M138.8 200.2l-1.2 5.9-32.4-6.3 1.2-5.9z"/><path fill="#918c74" d="M77 25l8 17 20-8z"/><ellipse cx="115" cy="75" fill="#5a5b56" rx="2" ry="10"/><path fill="#bab5a1" d="M85.3 224.2l21.3 14.2 26.5-10.2-49.7 6.5z"/><path fill="#888982" d="M146.8 168.2l-57.7 15.2 21.7-18.1 41.3 6.5z"/><path fill="#b4af9d" d="M76.6 194.8l-50.2-1.6L50 205.8 75.3 184z"/><ellipse cx="6" cy="47" fill="#fff" rx="13" ry="255"/><path fill="#acaa98" d="M17.7 122.7l31.6 7 .9-5.1 54.7-1.6z"/><path fill="#918a72" d="M49 110l-24 5-4-8z"/><path fill="#9a998d" d="M22.3 208l57.2-10.5 30.7-6.1-35.1 14.9z"/><path fill="#b3b0a0" d="M43.6 149.7l43.4 3.1-.8 14.6 65.6-20z"/></g></g></svg>