<svg xmlns="http://www.w3.org/2000/svg" viewBox="0 0 1000 1250"><defs/><filter id="a"><feGaussianBlur stdDeviation="12"/></filter><rect width="100%" height="100%" fill="#905b4f"/><g filter="url(#a)"><g fill-opacity=".5" transform="translate(2.4 2.4) scale(4.88281)"><circle cx="143" cy="141" r="136" fill="#e75c61"/><circle r="1" fill="#9e0012" transform="rotate(50.1 -165.7 186.3) scale(29.56049 202.99999)"/><circle r="1" fill="#ebd0b1" transform="matrix(-8.34098 -13.11575 156.22381 -99.35073 70.5 94.2)"/><circle r="1" fill="#92000b" transform="matrix(-11.18104 -20.82064 141.57725 -76.02942 55.4 18.8)"/><circle r="1" fill="#e0c4a8" transform="matrix(13.25342 31.58537 -34.66923 14.54743 196.7 243.2)"/><ellipse cx="104" cy="82" fill="#e09f90" rx="47" ry="29"/><circle r="1" fill="#931620" transform="rotate(-79.3 165.5 99.6) scale(47.36843 45.06764)"/><path fill="#d27c72" d="M77 271l102-18-10-66z"/><circle r="1" fill="#a64741" transform="rotate(28.3 -2.7 408.9) scale(27.2079 29.17095)"/><path fill="#ba4c4f" d="M190 119L37 260l149-77z"/><circle r="1" fill="#c86566" transform="matrix(14.57263 17.28504 -35.6948 30.09349 128 109.4)"/><circle r="1" fill="#b06d66" transform="matrix(-6.63436 -14.16284 67.8406 -31.77886 58.4 131.5)"/><circle r="1" fill="#b74b49" transform="matrix(-76.80372 56.41794 -8.10082 -11.02793 17.2 79.4)"/><path fill="#f4cab3" d="M53 100l93-61-37 47z"/><path fill="#b34f50" d="M-5 161l-11 79 146-112z"/><circle r="1" fill="#eed8b3" transform="matrix(-55.50278 37.17838 -2.20207 -3.28742 192.7 11.7)"/><circle r="1" fill="#830411" transform="rotate(-28.6 87.9 -69.8) scale(92.21273 8.26797)"/><circle r="1" fill="#9f1421" transform="matrix(12.71795 4.10778 -9.78472 30.29408 193.6 92)"/><circle r="1" fill="#a55348" transform="matrix(-6.05678 -19.2459 38.78551 -12.206 136.8 17.9)"/><circle r="1" fill="#9b4943" transform="matrix(-8.89007 -14.11718 39.06532 -24.60074 34.5 7)"/><circle r="1" fill="#c16e63" transform="rotate(-119.4 40.4 40) scale(11.28745 129.16389)"/><circle r="1" fill="#800a11" transform="matrix(59.4569 -42.0834 3.3264 4.69966 36.6 231)"/><circle r="1" fill="#be8270" transform="matrix(-2.79236 -3.63774 59.97526 -46.03757 165.8 17.9)"/><circle r="1" fill="#c67066" transform="matrix(20.20992 -23.57932 11.64545 9.98135 160.4 61.5)"/><path fill="#be6b65" d="M219 170l-68-26 43 75z"/><path fill="#d7af97" d="M225 227.4l3.6 28.8-51.6 6.4-3.6-28.8z"/><path fill="#99131e" d="M81 200.4l-28.9-11 6.8-17.8 29 11z"/><path fill="#dea391" d="M65 68h59v24H65z"/><path fill="#e17374" d="M145.3 198.1l13.2-13.8-18.8 7.6-71 79.1z"/><path fill="#a94240" d="M106 215l-15 56-39-41z"/><path fill="#b9303c" d="M174 114l-69 37 97-94z"/><path fill="#a94341" d="M7 60h32v33H7z"/><path fill="#b32631" d="M188 187L51 175l77-19z"/><path fill="#b7726b" d="M62.6 155l-15.5-41.3-27.9 36.5 68.1 20.1z"/><path fill="#7c261f" d="M66.2 276l72.8-72.8 2.8 2.8L69 278.8z"/><path fill="#b12e37" d="M196 160.3l21.1-43.2-98.4-21.2 87.3 41.6z"/><path fill="#c96961" d="M104 27.1L116 48 76 71 64 50z"/><path fill="#9d413b" d="M152-16L85 30l97-34z"/><path fill="#830f16" d="M61.8 247.3L84.7 271l-43.1-28.1-16.2-21.3z"/><circle r="1" fill="#b7836a" transform="rotate(-38.5 133.2 -250.8) scale(38.84297 6.92551)"/><ellipse cx="167" cy="212" fill="#ca736d" rx="24" ry="18"/><circle r="1" fill="#b92834" transform="matrix(-18.4744 -15.34543 10.57534 -12.73167 104.3 192.1)"/><circle r="1" fill="#a3594e" transform="matrix(22.801 .45027 -.28093 14.22567 12.7 163.4)"/><path fill="#c75458" d="M74.3 202l32.8 7.8 8.4-.4-18.4 10.1z"/><path fill="#ca9484" d="M25.4 102.9L-16 131.5l39.9 15.7 5.5 3.7z"/><path fill="#f6c8b5" d="M1.3 138L169.6 24.3l1.1 1.7L2.4 139.6z"/><path fill="#9d161f" d="M136 159.5l-2 4.5-44-19.5 2-4.5z"/><path fill="#893831" d="M137 209l83.4-80.6.7.7-83.5 80.5z"/><path fill="#770f14" d="M32 240L2 266l-18-38z"/><path fill="#bb5857" d="M142 156l34 56 24-32z"/><path fill="#ab5f5a" d="M24 178l64-38-34-28z"/><path fill="#d49a8c" d="M90 73.1L45.1 58.2l20.1 13.7 49.2 1.2z"/><ellipse cx="142" cy="242" fill="#bf665e" rx="35" ry="8"/><path fill="#c06866" d="M103.2 94.5l28.1 13.1-18.5 39.9-28.1-13.1z"/><path fill="#ab2832" d="M135.2 147.1l-16.8-27.3 100.6 41-81.7-21.9z"/><path fill="#b85a56" d="M55.8 39.2L87.9 22l71 8.9L127.8 44z"/><path fill="#d17b73" d="M103.5 77l54.6 24.9-2.8-48.5-33.6 22.5z"/><path fill="#b0936d" d="M214.2-7.3l-11.1 34.4L205-16l-45.1 44.4z"/><path fill="#d8aa91" d="M156.1 222.4l28.3 17-2.5 4.2-28.3-17z"/><path fill="#d79987" d="M92.4 108.7l7.1-28.9-25 26.4-45.1-31z"/><path fill="#ca9080" d="M30 94.8l20 16.7-20 23.7-20-16.7z"/><circle r="1" fill="#8a4038" transform="rotate(84.5 -5 11) scale(9.17716 24.28204)"/><path fill="#d16e6e" d="M42.5 171.1L48 177l-16.6 16-5.4-6z"/><path fill="#a52a32" d="M16.8 215.3l9.3-23.1 11.1 4.5-9.3 23.1z"/><path fill="#b04243" d="M97.7 175.6l32.1 6.9-70.3 78.4 76.2-63.4z"/><path fill="#c4736d" d="M65 104h15v21H65z"/><path fill="#d66d6b" d="M90.8 243.8L68.1 271l87-81.6-46.8 33.1z"/><path fill="#c5645e" d="M97 63l-42-8 59-33z"/><circle r="1" fill="#93423b" transform="matrix(42.90406 -34.52758 .89499 1.11212 7.3 197.6)"/><path fill="#bb4f51" d="M4.9 216.6l-20.9 5.2 25.6-39.5 18 15.1z"/><path fill="#d49e88" d="M168.9 263.1l-29-13.5 1.2-2.7 29 13.5z"/><path fill="#bb434a" d="M50.5 156.4l6.3 38.9-23 8.1 39.1-38z"/><path fill="#de7477" d="M254.8 89.7l.7.8-132.3 127.8-.7-.8z"/><circle r="1" fill="#b15b52" transform="rotate(51 61.5 227) scale(12.55894 54.58092)"/><path fill="#cd6a67" d="M138.1 126.7l-.7.1-1-29.6-54.4-5z"/><path fill="#c34d53" d="M145 102.2l27.3 9.4 2.3-67.1 10.8 38.8z"/><circle r="1" fill="#740d11" transform="matrix(.90395 -3.893 20.72621 4.81263 0 39.9)"/><path fill="#97523f" d="M135.4 5.6l20.9 9.6 16.2.7L133-9.6z"/><path fill="#ba7468" d="M161.8 19.5l-51.1-9.3 38.7 18.5 30.9-11.9z"/><path fill="#aa1c28" d="M166.3 118.6l-15.4-8.5 56.1 2-78.7 31.4z"/><path fill="#bf6265" d="M55 271h28l-35-24z"/><path fill="#a83d40" d="M73 43l-52 3 14 19z"/><path fill="#ec8789" d="M179.9 65l.6.8L110 117l-.6-.8z"/><circle r="1" fill="#b24e4c" transform="rotate(-115.3 19.2 2.8) scale(2.61241 25.27236)"/><path fill="#9d2128" d="M48.1 204.5l51.7 26.8-10.8 5-36.2-35.9z"/><circle r="1" fill="#a34c49" transform="matrix(-.59902 -.80073 162.54847 -121.60179 172.8 73.5)"/><path fill="#a83a41" d="M190 115h14v24h-14z"/><path fill="#d55961" d="M126.1 112.4l42 7-25.2-12.1 56-46.9z"/><path fill="#f0c1ad" d="M127.2 65.8L170.5 22 76.7 87l60.9-33.2z"/><path fill="#b75d55" d="M158.9 242.6l-30.7-14.9 28.5 43.3-44.3-17.3z"/><path fill="#771215" d="M95.8 20l-8.7-9.3-43.3-16 17 9.9z"/><circle r="1" fill="#b42331" transform="matrix(-31.41748 25.7149 -2.52208 -3.08139 51.6 234.2)"/><path fill="#7e1318" d="M37.6 232l30.3 12-63.1-33.3L78.2 271z"/><path fill="#daa590" d="M45.5 112.1l55.6-20.4-67.9 7.2L67 119.4z"/><circle r="1" fill="#bd7368" transform="matrix(4.21855 5.63905 -16.57395 12.3989 14.4 109)"/><path fill="#85131b" d="M93.7 3.8l2.6-9.6 30 8-2.6 9.6z"/><circle r="1" fill="#aa222b" transform="matrix(29.18272 12.87111 -1.07391 2.43488 136.2 164.8)"/><path fill="#c87370" d="M49.4 161.4l17.8-7.2 2.2 11.8-19.5-23.7z"/><path fill="#c56c67" d="M29.4 178.3l28.3-24.7-73.7 59.1 52.1-49.6z"/><path fill="#b75a53" d="M37 66l29 12-61 7z"/></g></g></svg>