<svg xmlns="http://www.w3.org/2000/svg" viewBox="0 0 800 1000"><defs/><filter id="a"><feGaussianBlur stdDeviation="12"/></filter><rect width="100%" height="100%" fill="#293a4d"/><g filter="url(#a)"><g fill-opacity=".5" transform="translate(2 2) scale(3.90625)"><circle cx="48" cy="166" r="228" fill="#ffffec"/><path fill="#1e1607" d="M128 234l64 3-2-233z"/><circle r="1" fill="#fff" transform="matrix(.50538 20.48243 -202.82986 5.00463 111 0)"/><ellipse cx="57" cy="247" fill="#fff" rx="186" ry="13"/><ellipse cx="5" cy="111" fill="#fff" rx="10" ry="234"/><circle r="1" fill="#fff" transform="matrix(4.61379 -202.94756 11.39768 .25911 202.5 136.3)"/><ellipse cx="24" cy="125" fill="#081a26" rx="11" ry="109"/><ellipse cx="65" cy="128" fill="#ffe6c1" rx="19" ry="82"/><path fill="#fff" d="M217 16L91-16-16 20z"/><circle r="1" fill="#44473e" transform="matrix(-.07238 -14.00826 74.9151 -.38707 90.2 221.4)"/><circle r="1" fill="#2c2d21" transform="matrix(-43.15095 3.39605 -.97092 -12.3367 151.8 31.4)"/><circle cx="123" cy="167" r="45" fill="#c09f7b"/><ellipse cx="52" cy="247" fill="#fff" rx="187" ry="12"/><ellipse cx="6" cy="128" fill="#fff" rx="9" ry="172"/><circle r="1" fill="#fff" transform="matrix(-7.18829 -.06273 1.33476 -152.94837 198.7 151.5)"/><ellipse cx="99" cy="34" fill="#5d6359" rx="85" ry="15"/><path fill="#313633" d="M193 14l-38 54 35 97z"/><circle cx="126" cy="98" r="54" fill="#b99e81"/><ellipse cx="72" fill="#fff" rx="182" ry="20"/><path fill="#000d15" d="M177 136h13v103h-13z"/><ellipse cx="80" cy="251" fill="#fff" rx="155" ry="16"/><ellipse cx="3" cy="116" fill="#fff" rx="12" ry="232"/><circle r="1" fill="#88847a" transform="matrix(8.5938 -.24005 2.78225 99.60592 35.2 132.7)"/><path fill="#051f35" d="M15 197h15v39H15z"/><path fill="#12293b" d="M15 20h8v214h-8z"/><ellipse cx="142" cy="166" fill="#c9b998" rx="12" ry="44"/><ellipse cx="168" cy="126" fill="#68685f" rx="14" ry="102"/><ellipse cx="99" cy="216" fill="#4d4c46" rx="17" ry="19"/><path fill="#071114" d="M176 18h18v29h-18z"/><path fill="#efe0c4" d="M52 48h13v160H52z"/><ellipse cx="200" cy="208" fill="#fff" rx="10" ry="190"/><path fill="#d5bf9b" d="M132 47h20v80h-20z"/><path fill="#bdafa0" d="M69 46h21v161H69z"/><circle r="1" fill="#2f414a" transform="matrix(1.07054 -3.92047 30.0454 8.20429 78.4 39.7)"/><ellipse cx="148" cy="7" fill="#fff" rx="203" ry="11"/><ellipse cx="189" cy="65" fill="#0d1c22" rx="4" ry="48"/><path fill="#99a09a" d="M23 199l21 33 40-12z"/><path fill="#bbb198" d="M162.5 45.5l16 .2-4.6-3.4-82.1-19z"/><path fill="#0a0f10" d="M171 212h18v26h-18z"/><path fill="#fff" d="M194 0h10v256h-10z"/><ellipse cx="100" cy="130" fill="#85786f" rx="6" ry="102"/><path fill="#d6d4c4" d="M24.6 32.9l15.8 4.3 59.2-23.8L136.8 5z"/><path fill="#1b2224" d="M129 208h15v17h-15z"/><ellipse cx="96" cy="247" fill="#fff" rx="146" ry="11"/><path fill="#203037" d="M192.2 130.8l-2.7 70-7.5-100.4 9.4 16.5z"/><path fill="#0c1d28" d="M134 46l19-2-23-7z"/><path fill="#d3ccb4" d="M87.8 30.4l1.9 4-15.4 3.4-4.7-5.7z"/><circle r="1" fill="#dcc699" transform="matrix(.1383 2.13875 -7.94696 .5139 143 228.5)"/><path fill="#313e41" d="M150.1 238l-14.6-11.7-78.8-16.2 95.8 28.9z"/><path fill="#223540" d="M28.2 34.1L47 41.8l-33.9 1.5L32 21.5z"/><ellipse cx="4" cy="144" fill="#fff" rx="10" ry="255"/><path fill="#a18e77" d="M59.5 209.3l75.2-39.4 33.9 43.5-39.1-6.3z"/><path d="M133 19h12v3h-12z"/><path fill="#fff" d="M219 225.5L195.4 54.4l-4.8 165.7-1.6 26.2z"/><path fill="#c6c2ad" d="M30.5 45.5l6.9.6L67 41.9l-7.8-5.1z"/><path fill="#ada693" d="M139.4 23l-5.2 14.4-22.4-3.8 53.7-8.8z"/><path fill="#d1c5b0" d="M46 200l18-76 18 89z"/><path fill="#3c4c55" d="M15.4 212.7L58 212l-28.2 8.6 4.3 13.6z"/><path fill="#b2a486" d="M154.6 217.7l-.6 3-20.6-4.4.6-3z"/><path fill="#2e3f46" d="M17.3 29.2l.6-7 28.8 2.6-.6 7z"/><path fill="#cdbfab" d="M68.5 75V43h13v32z"/><ellipse cx="108" cy="32" fill="#021420" rx="8" ry="3"/><path fill="#fff" d="M-16 29.5L12.1 271l2.1-215.6 2-38.9z"/><path fill="#868680" d="M23.7 47.3l23.6 1.8-9.8 92.4L21 46.9z"/><circle r="1" fill="#45555a" transform="matrix(41.30212 -11.06687 .7413 2.76657 66 31.5)"/><path fill="#384d56" d="M10.9 209l75.2 16.3.8 8.2-29.4-10.2z"/><path fill="#c2b697" d="M90.3 225l5.2 5 13.4-.7-1.3-5.4z"/><path fill="#646d70" d="M16 208l24-2-1-58z"/><path fill="#fff" d="M76 231l72 27-140-1z"/><path fill="#333a38" d="M165.5 232.4l24.8-3.5-16.1-2.3-98.3-23.7z"/><path fill="#1d2629" d="M158 23.9l-.6 2.8 18.4 3.3 2.9-8.2z"/><path fill="#223038" d="M99.8 222.2l-28.1 8.5 31.2-23.4-20.5 1.7z"/><ellipse cx="38" cy="5" fill="#fff" rx="126" ry="16"/><path fill="#d1ccb6" d="M52 224h12v8H52z"/><path fill="#e5d8b8" d="M87 24l20 1-10 4z"/><path fill="#dcd1b9" d="M67.6 50.6l-16.2-2.4L45.7 71l27.1 53.3z"/><path fill="#404d52" d="M162.8 26.8L84.1 46.9l35.7 4.5-23.7-2.1z"/><path fill="#dbd5bd" d="M33 216l9.7 2.1-1.6 7.9-9.8-2.1z"/><path fill="#000308" d="M159 215h18v4h-18z"/><ellipse cx="122" cy="33" fill="#d6ccb0" rx="8" ry="3"/><path fill="#e3d7b3" d="M95 213h11v4H95z"/><path fill="#d0c1a0" d="M161 29h10v6h-10z"/><path fill="#c5b495" d="M139 73h12v134h-12z"/><path fill="#b1a493" d="M68.9 223.5l18.7.5-24.5-19.3 47.4-40.2z"/><path fill="#ceb481" d="M159.5 224.4l1.3-4.9 7.7 2.1-1.3 4.9z"/><circle r="1" fill="#e1d0ad" transform="matrix(-5.91324 2.09384 -.72137 -2.03723 146.8 38)"/><circle r="1" fill="#aaa093" transform="matrix(-7.39645 -15.57689 32.46417 -15.41512 108.5 136.2)"/><path fill="#b4a48f" d="M113 42h17v135h-17z"/><path fill="#383e38" d="M139 231h20v6h-20z"/><path fill="#a69774" d="M172.2 238l-.5-3.7-18-2.4 3 4.8z"/><path fill="#12222e" d="M16 28h9v21h-9z"/><path fill="#121c25" d="M99 20v4H85v-4z"/><path fill="#e4d8b5" d="M96 36h10v6H96z"/><path fill="#4c5c63" d="M102.6 210.5L30 225.7l-14.7 9.6 31.3-8.6z"/><path fill="#37484f" d="M114.4 22.9l20.2 3-45.1 10.2 17.6.9z"/><path fill="#f4e9cb" d="M54 42l10-6H51z"/><path fill="#010e16" d="M134.5 209h15v4h-15z"/><path fill="#152936" d="M59 31h13v6H59z"/><path fill="#6d6a61" d="M163.2 219.2l-3.5-164.1 20.5-16.3 2.1 33.9z"/><path fill="#11242f" d="M98 229l15 5-26-1z"/></g></g></svg>