<svg xmlns="http://www.w3.org/2000/svg" viewBox="0 0 1000 1250"><defs/><filter id="prefix__a"><feGaussianBlur stdDeviation="12"/></filter><rect width="100%" height="100%" fill="#6b4a2f"/><g filter="url(#prefix__a)"><g transform="translate(2.4 2.4) scale(4.88281)"><circle r="1" fill="#b5b9b1" fill-opacity=".5" transform="matrix(107.58736 -63.97126 101.2557 170.29261 134 114)"/><circle r="1" fill="#7f6a51" fill-opacity=".5" transform="matrix(139.51793 147.45761 -51.76408 48.9769 29.4 198)"/><circle r="1" fill="#a79c90" fill-opacity=".5" transform="matrix(-48.18906 19.21866 -38.62494 -96.84854 96.2 40.5)"/><ellipse cx="10" cy="79" fill="#876a4c" fill-opacity=".5" rx="21" ry="171"/><path fill="#795c3f" fill-opacity=".5" d="M9 157l110 15-107 79z"/><circle r="1" fill="#665e55" fill-opacity=".5" transform="matrix(23.27504 27.80041 -11.71614 9.80898 182.8 6.9)"/><circle r="1" fill="#a59682" fill-opacity=".5" transform="rotate(136.9 8.2 75.1) scale(36.06623 17.73591)"/><circle r="1" fill="#7e766f" fill-opacity=".5" transform="matrix(-57.01927 .88672 -.77903 -50.0949 109.3 248.6)"/><circle r="1" fill="#968e84" fill-opacity=".5" transform="rotate(-65.8 229.3 -35.7) scale(27.25394 40.75219)"/><path fill="#6d5742" fill-opacity=".5" d="M31.3 266.5l34.4-5.7 50.2-26.2-103.7 7.7z"/><path fill="#a39e95" fill-opacity=".5" d="M91 216l15-16-44 16z"/><path fill="#a4978a" fill-opacity=".5" d="M-16 68.6l39.5-6.3-5 13.5 47.4-31.1z"/><path fill="#9b8977" fill-opacity=".5" d="M55 168h25v13H55z"/><path fill="#947a60" fill-opacity=".5" d="M56.8 73.3l18 5.5-20.5 52.4L9.6 85z"/><path fill="#725535" fill-opacity=".5" d="M100 196L-9 233l40-34z"/><path fill="#a9a395" fill-opacity=".5" d="M121 109l-38 23-42-2z"/><circle r="1" fill="#94897b" fill-opacity=".5" transform="matrix(17.54018 -15.2491 56.95898 65.51674 172.9 67.9)"/><circle r="1" fill="#84817b" fill-opacity=".5" transform="matrix(12.4646 23.5607 -129.82844 68.68465 179.7 242.9)"/><ellipse cx="92" cy="37" fill="#a5998d" fill-opacity=".5" rx="43" ry="17"/><circle r="1" fill="#82684f" fill-opacity=".5" transform="matrix(28.8525 -3.44045 .46436 3.89421 29.3 48.9)"/><path fill="#867a6b" fill-opacity=".5" d="M103 160h25v66h-25z"/><circle r="1" fill="#746351" fill-opacity=".5" transform="matrix(-4.21927 -11.46763 28.42655 -10.45893 34.2 230.8)"/><path fill="none" stroke="#b4b5b0" stroke-opacity=".5" stroke-width=".5" d="M135 143.8q-71 17.5-96 19"/><path fill="#795a3c" fill-opacity=".5" d="M13.5 209.8L-.2 188.6l52.9-7.2-26.5-41.9z"/><circle r="1" fill="#a49b8d" fill-opacity=".5" transform="rotate(-10.8 793.8 -357) scale(12.69733 4.01561)"/><circle r="1" fill="#a19a8f" fill-opacity=".5" transform="rotate(-104.5 106.4 51.2) scale(1 41.7292)"/><path fill="#937e63" fill-opacity=".5" d="M54 146l-31-35-32 31z"/><circle r="1" fill="#b0a89c" fill-opacity=".5" transform="matrix(7.34567 -1.34694 .35314 1.92586 52 162.6)"/><path fill="#815b39" fill-opacity=".5" d="M64 158l-33-2 40-10z"/><path fill="#7b654e" fill-opacity=".5" d="M90.1 179.4l15.3-20.6 10.8 3.3 7.8 6.1z"/><path fill="#a79c8a" fill-opacity=".5" d="M66.9 133.1l-35 8.2 1-13.7 9.3 7.1z"/><circle r="1" fill="#877764" fill-opacity=".5" transform="rotate(76.5 -.3 153.6) scale(3.76905 32.86286)"/><path fill="#a09688" fill-opacity=".5" d="M51 95h53v13H51z"/><path fill="#867c70" fill-opacity=".5" d="M190.6 10l-18.9 34-32.3-18 18.9-34z"/><path fill="#876c51" fill-opacity=".5" d="M128.2 125.7L20.1 148l45.4-16.2 20.7 5.5z"/><path fill="#9f9587" fill-opacity=".5" d="M136 176.5L81.8 94.7l76.2 81.2-71.6 21.7z"/><path fill="#806e5a" fill-opacity=".5" d="M114 50h25v5h-25z"/><circle r="1" fill="#8b7760" fill-opacity=".5" transform="rotate(169 46.3 55) scale(61.81577 1)"/><path fill="#6c5845" fill-opacity=".5" d="M107 247l8 24-38-28z"/><ellipse cx="67" cy="234" fill="#8e8374" fill-opacity=".5" rx="34" ry="3"/><path fill="#928f87" fill-opacity=".5" d="M199 262l-52-14 62-16z"/><path fill="#8d7c69" fill-opacity=".5" d="M75 29h26v8H75z"/><path fill="#9d968a" fill-opacity=".5" d="M113.4 180l47.6-8.2-46.3 34.4 81-21.5z"/><path fill="#6c6254" fill-opacity=".5" d="M176-2.9l3.3-5.7L219 16.6v45.6z"/><circle r="1" fill="#807468" fill-opacity=".5" transform="matrix(-7.12784 3.91857 -10.36985 -18.8627 187.8 217.4)"/><path fill="#654d33" fill-opacity=".5" d="M21.1 162.5l-10.6-34v11.8l13.9 27z"/><path fill="#9a8c7d" fill-opacity=".5" d="M65 44L23 55l24 29z"/><path fill="#65503d" fill-opacity=".5" d="M115 239l14-12-17 5z"/><circle r="1" fill="#9b9689" fill-opacity=".5" transform="rotate(161.7 67 74.3) scale(32.72953 3.03666)"/><path fill="#887562" fill-opacity=".5" d="M194.1-2.9L144.5-16l-31.4 37.4-13.6-6.1z"/><path fill="#817059" fill-opacity=".5" d="M219 146.7l-51.2 12.6 18.9 4.4-43.2 11.9z"/><path fill="#876c4f" fill-opacity=".5" d="M89.2 111.1l-42 9.7-.4-2 42-9.6z"/><path fill="#6e543f" fill-opacity=".5" d="M175.3 174.9l55.1-14.8.3 1-55.1 14.8z"/><path fill="#3b210b" fill-opacity=".5" d="M95 195h3v7h-3z"/><path fill="#756252" fill-opacity=".5" d="M218.3 214L76 255l-.3-1L218 213.1z"/><circle r="1" fill="#6a5c49" fill-opacity=".5" transform="rotate(-110.1 133.7 24.5) scale(14.65757 1.17776)"/><path fill="#7c5c3f" fill-opacity=".5" d="M-16 26l39.7 10.6-20.1 4.2L1 50.1z"/><path fill="#9d968b" fill-opacity=".5" d="M116.4 176.4l.4 1-35.2 14.2-.4-1z"/><ellipse cx="141" cy="137" fill="#553b22" fill-opacity=".5" rx="4" ry="2"/><path fill="#96826c" fill-opacity=".5" d="M70 227l-9-24-6 17z"/><path fill="#856f55" fill-opacity=".5" d="M64.7 177.9L-.5 192l43.3 13.3-5.1-14.8z"/><path fill="#624a35" fill-opacity=".5" d="M91 250l-11-9 1-16z"/><path fill="#816d58" fill-opacity=".5" d="M134.8 186.8l64.9-12.4-83.3 20.6-12 3.5z"/><path fill="#49311a" fill-opacity=".5" d="M29.6 221.8l-1 .4-14.2-32 1-.4z"/><path fill="#8f8275" fill-opacity=".5" d="M108.5 230.2l-20.8 7.2-8.2-23.6 20.8-7.2z"/><path fill="#a89d90" fill-opacity=".5" d="M98.1 113.6l11.1-29.3-42.4-8.6L61 26z"/><path fill="#817767" fill-opacity=".5" d="M179.8 70.8l3.1 10.4-15.9 42.5 31.7-36.5z"/><path fill="#7a614c" fill-opacity=".5" d="M72 76l-21 8 23-2z"/><path fill="#998d7e" fill-opacity=".5" d="M95.3 113l31.9 31.6-40.9 17.6 7.1 12.5z"/><path fill="#73583f" fill-opacity=".5" d="M79 145h21v3H79z"/><path fill="#a0998d" fill-opacity=".5" d="M103.4 189.6l.8-.5 40.4 79.3-.8.5z"/><path fill="#a9aeaa" fill-opacity=".5" d="M93 234.4l19.7-3.8.2 1-19.6 3.8z"/><path fill="none" stroke="#715e4e" stroke-opacity=".5" stroke-width=".5" d="M-16 267.5q71.2-41.8 215.6-70.4"/><path fill="#61452b" fill-opacity=".5" d="M36.3 232.4L14.7 166l1-.3L37.3 232z"/><circle r="1" fill="#9c9386" fill-opacity=".5" transform="matrix(-.89877 .43842 -17.31565 -35.49745 115.6 227.9)"/><circle r="1" fill="#979285" fill-opacity=".5" transform="matrix(-113.6983 25.3791 -.21785 -.97598 155.9 151.1)"/><path fill="#998e81" fill-opacity=".5" d="M174.6 83l-18.8-16.5 25.6-29.4 18.8 16.4z"/><path fill="#715033" fill-opacity=".5" d="M113 175l-41 13 18-13z"/><circle r="1" fill="#7e5a37" fill-opacity=".5" transform="rotate(-22.2 457.4 -65.3) scale(27.79032 2.24966)"/><path fill="#b0b2ad" fill-opacity=".5" d="M93.5 153l46.8-10.9.2 1-46.8 10.8z"/><path fill="#75522f" fill-opacity=".5" d="M85 131h9v5h-9z"/><circle r="1" fill="#a09a8c" fill-opacity=".5" transform="matrix(49.24394 -11.0979 .62752 2.78444 141.2 108.2)"/><path fill="#9d9181" fill-opacity=".5" d="M105.4 145.7l-56.7 19.4 53-12.7-30.7-1.7z"/><circle r="1" fill="#a18a70" fill-opacity=".5" transform="matrix(-6.9205 -14.10204 .89773 -.44055 26.9 150.3)"/><path fill="#adaea7" fill-opacity=".5" d="M241 174.5l.2 1-104.2 24-.2-1z"/><path fill="#755f45" fill-opacity=".5" d="M150 159.3l-.3-1 90.4-17.6.2 1z"/><path fill="#a8a295" fill-opacity=".5" d="M94.1 261l-3-10.6 4.8-1.4 3 10.6z"/><path fill="#9b968a" fill-opacity=".5" d="M178 141.1l-9.8-11.5 1.6 15.8 31.1-6.1z"/><path fill="#75573d" fill-opacity=".5" d="M78 217l-24 1 10 4z"/><path fill="#978874" fill-opacity=".5" d="M47.7 196.5l60.4-14 .2 1-60.4 14z"/><path fill="#bdb4a4" fill-opacity=".5" d="M67.5 147.5L57.6 129l1-.5 9.8 18.5z"/><path fill="#8a765b" fill-opacity=".5" d="M-16 118.2l34.1 38.2-2.7 5.1-31.4 8.3z"/><path fill="#9ea19b" fill-opacity=".5" d="M183.2 210l.3 1-48.7 15-.3-1z"/><path fill="#897b66" fill-opacity=".5" d="M149 82h8v21h-8z"/><path fill="#9b8974" fill-opacity=".5" d="M77.2 272.7l-.9.4-17.5-45.8.9-.4z"/><ellipse cx="2" cy="216" fill="#8b7556" fill-opacity=".5" rx="4" ry="16"/><path fill="#7c5f43" fill-opacity=".5" d="M84 168l-30 21-5-10z"/><path fill="#a69e90" fill-opacity=".5" d="M73 180l-9-4h21z"/><path fill="#6d553c" fill-opacity=".5" d="M85.6 144.2l-1 .5-8.2-14.9 1-.5z"/><path fill="#72685c" fill-opacity=".5" d="M126.7 216.2L99.2 222l29.2-10.6 29.8 59.6z"/></g></g></svg>