<svg xmlns="http://www.w3.org/2000/svg" viewBox="0 0 800 1000"><defs/><filter id="a"><feGaussianBlur stdDeviation="12"/></filter><rect width="100%" height="100%" fill="#5c442e"/><g filter="url(#a)"><g transform="translate(2 2) scale(3.90625)"><circle cx="129" cy="72" r="228" fill="#fffef6" fill-opacity=".5"/><circle cx="130" cy="182" r="58" fill="#833d1d" fill-opacity=".5"/><ellipse cx="196" cy="218" fill="#fff" fill-opacity=".5" rx="12" ry="255"/><ellipse cx="6" cy="40" fill="#fff" fill-opacity=".5" rx="10" ry="255"/><ellipse cx="102" cy="4" fill="#fff" fill-opacity=".5" rx="203" ry="14"/><ellipse cx="33" cy="253" fill="#fff" fill-opacity=".5" rx="203" ry="17"/><circle r="1" fill="#83361e" fill-opacity=".5" transform="matrix(.92941 -66.97241 20.17145 .27993 166 81)"/><path fill="#8f4622" fill-opacity=".5" d="M90 17l5 172 41-170z"/><path fill="#6b0000" fill-opacity=".5" d="M15 18h9v215h-9z"/><path fill="#400" fill-opacity=".5" d="M178 20h7v220h-7z"/><ellipse cx="201" cy="134" fill="#fff" fill-opacity=".5" rx="16" ry="223"/><ellipse cx="6" cy="188" fill="#fff" fill-opacity=".5" rx="10" ry="215"/><ellipse cx="149" cy="4" fill="#fff" fill-opacity=".5" rx="203" ry="14"/><ellipse cx="87" cy="250" fill="#fff" fill-opacity=".5" rx="161" ry="12"/><path fill="#7a482f" fill-opacity=".5" d="M55 235l135 4-88-61z"/><circle r="1" fill="#f1dca6" fill-opacity=".5" transform="rotate(-179.1 70.6 69.7) scale(5.20216 91.21011)"/><path fill="#ffffde" fill-opacity=".5" d="M54 22h9v218h-9z"/><path fill="#75321f" fill-opacity=".5" d="M139 237l44 2 1-121z"/><ellipse cx="120" cy="105" fill="#b29374" fill-opacity=".5" rx="18" ry="86"/><path fill="#752106" fill-opacity=".5" d="M95 18h8v178h-8z"/><path fill="#b27970" fill-opacity=".5" d="M22 19h29v218H22z"/><ellipse cx="198" cy="157" fill="#fff" fill-opacity=".5" rx="13" ry="217"/><ellipse cy="143" fill="#fff" fill-opacity=".5" rx="15" ry="255"/><ellipse cx="58" cy="8" fill="#fff" fill-opacity=".5" rx="203" ry="10"/><ellipse cx="70" cy="255" fill="#fff" fill-opacity=".5" rx="172" ry="18"/><path fill="#420000" fill-opacity=".5" d="M183 19h4v60h-4z"/><path fill="#ba967b" fill-opacity=".5" d="M64 19h29v192H64z"/><ellipse cx="18" cy="81" fill="#630000" fill-opacity=".5" rx="3" ry="66"/><path fill="#4a0300" fill-opacity=".5" d="M94 186h8v51h-8z"/><path fill="#8d5639" fill-opacity=".5" d="M186.3 17.8l-43.3 2 7.1 28.6 32.4-4.4z"/><path fill="#640d00" fill-opacity=".5" d="M23 19h67v2H23z"/><ellipse cx="163" cy="100" fill="#a07762" fill-opacity=".5" rx="18" ry="81"/><path fill="#790000" fill-opacity=".5" d="M17 47h3v185h-3z"/><ellipse cx="86" cy="234" fill="#825035" fill-opacity=".5" rx="70" ry="2"/><ellipse cx="7" cy="192" fill="#fff" fill-opacity=".5" rx="9" ry="139"/><ellipse cx="182" cy="166" fill="#580100" fill-opacity=".5" rx="3" ry="79"/><path fill="#a18166" fill-opacity=".5" d="M171.6 232.7L103.1 208l-.5-67 33.4 95.5z"/><ellipse cx="119" cy="96" fill="#ad8c72" fill-opacity=".5" rx="17" ry="61"/><ellipse cx="49" cy="251" fill="#fff" fill-opacity=".5" rx="130" ry="15"/><path fill="#7b1811" fill-opacity=".5" d="M15 87h5v47h-5z"/><path fill="#875844" fill-opacity=".5" d="M140 202l40-77 2 115z"/><ellipse cx="149" cy="2" fill="#fff" fill-opacity=".5" rx="203" ry="16"/><ellipse cx="199" cy="134" fill="#fff" fill-opacity=".5" rx="13" ry="227"/><ellipse cx="140" cy="43" fill="#f3d092" fill-opacity=".5" rx="5" ry="23"/><path fill="#9b7b6a" fill-opacity=".5" d="M61 185h31v50H61z"/><path fill="#d5b3ab" fill-opacity=".5" d="M26 167h30v18H26z"/><path fill="#e8d4bb" fill-opacity=".5" d="M53 24h12v173H53z"/><path fill="#c4ab84" fill-opacity=".5" d="M131.8 217.8l19.4-182.5-8.1 148.8-3.3 56.2z"/><path fill="#82271b" fill-opacity=".5" d="M23.7 234l-7.1-18.6-.3 21.4 49.4-2z"/><path fill="#601607" fill-opacity=".5" d="M180 207h6v27h-6z"/><path fill="#560000" fill-opacity=".5" d="M182 18h5v38h-5z"/><circle r="1" fill="#fff" fill-opacity=".5" transform="matrix(8.1246 1.33908 -7.778 47.19162 5 44.8)"/><path fill="#b69b88" fill-opacity=".5" d="M95 141l-34 4 3 64z"/><path fill="#723118" fill-opacity=".5" d="M106.2 87.1l-9.8-62 9.8-3.6-3.7 46.5z"/><path fill="#712f10" fill-opacity=".5" d="M91 19h59v2H91z"/><ellipse cx="140" cy="133" fill="#e1cda8" fill-opacity=".5" rx="4" ry="42"/><path fill="#fff" fill-opacity=".5" d="M30.7 236.5L-11.9 271l217.1-25.9-138.1-8.8z"/><path fill="#a87c71" fill-opacity=".5" d="M19.9 115.4l12.4 19.9L57 101.1 19.1 83.3z"/><path fill="#956a50" fill-opacity=".5" d="M147 20h34v44h-34z"/><path fill="#fff" fill-opacity=".5" d="M186 70h18v186h-18z"/><path fill="#aa8a70" fill-opacity=".5" d="M105 20h31v150h-31z"/><path fill="#a17e66" fill-opacity=".5" d="M69 18h21v29H69z"/><path fill="#8a6951" fill-opacity=".5" d="M133 235l-1-100-31 96z"/><ellipse cx="144" cy="8" fill="#fff" fill-opacity=".5" rx="28" ry="11"/><path fill="#894f39" fill-opacity=".5" d="M172.8 239.6l-31.8-.1 7.5-43.9 34.2 13.8z"/><ellipse cx="22" cy="8" fill="#fff" fill-opacity=".5" rx="203" ry="10"/><path fill="#851c19" fill-opacity=".5" d="M16 120h6v115h-6z"/><path fill="#602411" fill-opacity=".5" d="M80 236h56v2H80z"/><path fill="#aa826d" fill-opacity=".5" d="M146 31l21 77-22 40z"/><path fill="#ae736b" fill-opacity=".5" d="M23 216h30v18H23z"/><path fill="#bfa870" fill-opacity=".5" d="M141.6 220l1.8 17-9 1-1.8-17z"/><path fill="#bda193" fill-opacity=".5" d="M47 22h8v140h-8z"/><path fill="#fff" fill-opacity=".5" d="M195 244.9l-32-5.9-11.1.8 15.5 31.2z"/><ellipse cx="58" cy="235" fill="#5e1d04" fill-opacity=".5" rx="41" ry="1"/><path fill="#fff" fill-opacity=".5" d="M29 237h65v19H29z"/><ellipse cx="156" cy="19" fill="#632308" fill-opacity=".5" rx="30" ry="1"/><ellipse cx="183" cy="98" fill="#650b00" fill-opacity=".5" rx="2" ry="80"/><path fill="#9b775b" fill-opacity=".5" d="M113 18h21v30h-21z"/><ellipse cx="8" cy="194" fill="#fff" fill-opacity=".5" rx="8" ry="103"/><path fill="#6f331f" fill-opacity=".5" d="M92 171h6v66h-6z"/><ellipse cx="161" cy="238" fill="#420600" fill-opacity=".5" rx="23" ry="1"/><path fill="#fff" fill-opacity=".5" d="M185 103h19v26h-19z"/><path fill="#996e5a" fill-opacity=".5" d="M154 43h26v127h-26z"/><ellipse cx="58" cy="110" fill="#ece1c8" fill-opacity=".5" rx="4" ry="85"/><path fill="#fff" fill-opacity=".5" d="M0 9h15v112H0z"/><path fill="#c1b1a1" fill-opacity=".5" d="M21 79h33v6H21z"/><ellipse cx="107" cy="143" fill="#ac8c76" fill-opacity=".5" rx="6" ry="45"/><circle r="1" fill="#ae927b" fill-opacity=".5" transform="matrix(8.46547 -.78532 2.39458 25.81279 88 57)"/><path fill="#c4b09b" fill-opacity=".5" d="M64 43h5v114h-5z"/><path fill="#8d3d1e" fill-opacity=".5" d="M94 92h8v41h-8z"/><path fill="#5f0a00" fill-opacity=".5" d="M183 20h3v70h-3z"/><path fill="none" stroke="#f0efec" stroke-opacity=".5" stroke-width=".5" d="M94.5 18.3q25.2-.2 62.5-4"/><path fill="#8a5135" fill-opacity=".5" d="M24 18h29v4H24z"/><ellipse cx="80" cy="144" fill="#b59680" fill-opacity=".5" rx="14" ry="41"/><ellipse cx="20" cy="52" fill="#732019" fill-opacity=".5" rx="2" ry="35"/><path fill="#9f8271" fill-opacity=".5" d="M69 178l24 21-27 24z"/><ellipse cx="136" cy="237" fill="#490f00" fill-opacity=".5" rx="17" ry="1"/><path fill="#fff" fill-opacity=".5" d="M208.7 271l-6.8-167.6-17.4 137.8L1 237.7z"/><path fill="#976956" fill-opacity=".5" d="M172 144l-29 11 1 39z"/><path fill="#d7bb8f" fill-opacity=".5" d="M135.7 68.4l3.1-48.9 8.1 2.8-2 52.1z"/></g></g></svg>