<svg xmlns="http://www.w3.org/2000/svg" viewBox="0 0 800 1000"><defs/><filter id="prefix__a"><feGaussianBlur stdDeviation="12"/></filter><rect width="100%" height="100%" fill="#40332c"/><g filter="url(#prefix__a)"><g transform="translate(2 2) scale(3.90625)"><circle r="1" fill="#ffbc96" fill-opacity=".5" transform="matrix(-16.22242 165.33576 -177.23294 -17.38974 87.7 116.8)"/><circle r="1" fill="#ffd9b0" fill-opacity=".5" transform="rotate(67.6 54 159.7) scale(90.79927 44.96747)"/><circle r="1" fill="#8c3620" fill-opacity=".5" transform="matrix(-11.2907 -46.7863 163.32364 -39.41406 133.6 214.8)"/><circle r="1" fill="#d4b797" fill-opacity=".5" transform="rotate(-121 59.2 20.4) scale(35.57758 62.74947)"/><circle r="1" fill="#391522" fill-opacity=".5" transform="rotate(-91.5 46 -30) scale(18.88069 40.63037)"/><path fill="#5c3435" fill-opacity=".5" d="M115.6 12.7l51.1 59.9-40.1 9.4 8.7-1.6z"/><path fill="#d23b22" fill-opacity=".5" d="M212 129v142l-94-88z"/><ellipse cx="188" cy="90" fill="#ffd695" fill-opacity=".5" rx="51" ry="23"/><path fill="#3a3a3f" fill-opacity=".5" d="M104.5 183l102.1 98.6-11 11.5-102.2-98.7z"/><circle r="1" fill="#ebc39b" fill-opacity=".5" transform="rotate(7.7 -139 49) scale(21.42105 13.15573)"/><circle r="1" fill="#dcd5bb" fill-opacity=".5" transform="matrix(2.39073 -10.23356 40.36669 9.43032 147 5.4)"/><circle r="1" fill="#834240" fill-opacity=".5" transform="matrix(-.55148 10.8864 -38.5936 -1.95507 140.4 117.4)"/><path fill="#092931" fill-opacity=".5" d="M128.2 165.1l-2.9-6.4 26.5-11.8 2.9 6.4z"/><path fill="#69212e" fill-opacity=".5" d="M228.5 207.4l-51.7 32.4-13.3-21.2 51.7-32.4z"/><circle r="1" fill="#856b4e" fill-opacity=".5" transform="matrix(-27.72607 15.38497 -26.85052 -48.38875 92.2 222.2)"/><path fill="#f2f4a9" fill-opacity=".5" d="M120 50l24 42-19-13z"/><path fill="#a48a75" fill-opacity=".5" d="M7 21l71 17-90 166z"/><circle r="1" fill="#d4705c" fill-opacity=".5" transform="rotate(130.7 88.8 61) scale(10.69935 24.30819)"/><path fill="#f2e4ad" fill-opacity=".5" d="M187.7 132.8l-21.2-31.5 29.8-20.1 21.2 31.5z"/><path fill="#bc6b63" fill-opacity=".5" d="M128 25h28v21h-28z"/><path fill="#b39b98" fill-opacity=".5" d="M113 158l63-18-79-15z"/><path fill="#fd6b2a" fill-opacity=".5" d="M154.8 224.4l-8.4-12.4 68.8-46.4 8.4 12.4z"/><path fill="#81323f" fill-opacity=".5" d="M125 195l37 11 57-65z"/><path fill="#9ea79f" fill-opacity=".5" d="M153 159l-33 15-24-7z"/><ellipse cx="143" cy="255" fill="#8e8873" fill-opacity=".5" rx="54" ry="8"/><path fill="#612221" fill-opacity=".5" d="M137 63l36 7-32-19z"/><path fill="#5b614b" fill-opacity=".5" d="M78.4 30.7L70.1 43l-94.5-63.8 8.3-12.4z"/><circle r="1" fill="#93907a" fill-opacity=".5" transform="matrix(-18.40564 64.1881 -3.37004 -.96634 29.8 221.6)"/><path fill="#842522" fill-opacity=".5" d="M43-16l74 53-51-14z"/><circle r="1" fill="#fb6f33" fill-opacity=".5" transform="matrix(-2.22774 -4.25754 52.69706 -27.57344 168.4 164.4)"/><circle r="1" fill="#d6cfb1" fill-opacity=".5" transform="matrix(7.0211 -8.27899 21.84616 18.5269 174.7 53.2)"/><circle r="1" fill="#88525b" fill-opacity=".5" transform="matrix(-17.22689 -20.48173 11.07075 -9.31145 93.4 147)"/><path fill="#2c282e" fill-opacity=".5" d="M136.8 219.6l-63.4-53.7L95 176.3l52.3 50z"/><path fill="#fd6c5a" fill-opacity=".5" d="M174 92.7l-4-8 50-25.4 4 8z"/><path fill="#3a385a" fill-opacity=".5" d="M-7 173l28 32-24-8z"/><circle r="1" fill="#c18d74" fill-opacity=".5" transform="matrix(-2.59509 3.04921 -109.37628 -93.08651 98.9 173.3)"/><path fill="#dc5f0f" fill-opacity=".5" d="M69 218l-20-12 27-21z"/><path fill="#d5a189" fill-opacity=".5" d="M126.4 93.9l-42 2.2-2.8-56 42-2.2z"/><path fill="#f6cf91" fill-opacity=".5" d="M1.6 82.5l36.9-12.7 2 5.7-37 12.7z"/><path fill="#c8a896" fill-opacity=".5" d="M72 40.4l44.4-19.1-18.8 13.5 7 19.5z"/><path fill="#9da388" fill-opacity=".5" d="M20.8 200L9.7 183.2 41.2 162l11.1 16.6z"/><path fill="#363c51" fill-opacity=".5" d="M52-14l50 36 30-7z"/><circle r="1" fill="#627774" fill-opacity=".5" transform="matrix(-17.57055 47.11071 -3.3986 -1.26755 34.8 236.4)"/><path fill="#56090a" fill-opacity=".5" d="M90 230l-19 12 13-31z"/><circle r="1" fill="#81856f" fill-opacity=".5" transform="matrix(-5.26456 -1.61959 11.64419 -37.85002 75.3 217.3)"/><path fill="#dc3039" fill-opacity=".5" d="M114 125l49 14-22-15z"/><path fill="#5f526b" fill-opacity=".5" d="M-16 105.4l15.4 90.5-2.3-66.9 83.6 67.5z"/><path fill="#f25815" fill-opacity=".5" d="M206.4 219.3l-26.5 19.1 10.3 14.2L219 235z"/><path fill="#da5200" fill-opacity=".5" d="M27 271l12-31 21 4z"/><path fill="#ffe9ac" fill-opacity=".5" d="M219 62.2l-90.6 30.9 74.2-37.4L219 67z"/><path fill="#17342d" fill-opacity=".5" d="M145 103l3 9-24-7z"/><path fill="#4d211a" fill-opacity=".5" d="M140.9 249.6L124.5 232l14.6-13.6 16.4 17.6z"/><circle r="1" fill="#e1544d" fill-opacity=".5" transform="matrix(-3.9301 .38385 -1.58592 -16.23744 113.7 60)"/><circle r="1" fill="#675976" fill-opacity=".5" transform="matrix(-2.31483 2.74894 -46.08072 -38.80357 30.9 132.6)"/><path fill="#0d2b2d" fill-opacity=".5" d="M145 127l7 2-5-21z"/><path fill="#7c4c45" fill-opacity=".5" d="M28 63l14-34 2 41z"/><path fill="#a4a292" fill-opacity=".5" d="M-16 161.7l15-33.3 40.8 38.5L-16 159z"/><path fill="#d5553a" fill-opacity=".5" d="M186 11l28-10 5 27z"/><path fill="#805a44" fill-opacity=".5" d="M91.1 154.5L57.5 127 136 84.6l-84.1 40.2z"/><circle r="1" fill="#3b4e47" fill-opacity=".5" transform="rotate(-164.6 64.8 10.5) scale(26.24723 1.5255)"/><path fill="#263f39" fill-opacity=".5" d="M139 71.4l-4.7 1.8L121 38.6l4.7-1.8z"/><path fill="#f7746c" fill-opacity=".5" d="M149 59.2l-4.4 2.5 17.7.4-12.7-39.5z"/><path fill="#283c3b" fill-opacity=".5" d="M134 30h10v6h-10z"/><path fill="#442629" fill-opacity=".5" d="M114.8 183.8l136-78.5.4.9-136 78.5z"/><circle r="1" fill="#cebda4" fill-opacity=".5" transform="rotate(64.4 -8.6 148.6) scale(1 96.70703)"/><path fill="#c97362" fill-opacity=".5" d="M138.2 51.3l15.5 29.2-8 4.2-15.4-29.2z"/><path fill="#e4e4c1" fill-opacity=".5" d="M23.9 65l15.3-44.4 1 .3-15.4 44.5z"/><path fill="#e86957" fill-opacity=".5" d="M37.2 144.3L-16 100.5l27 29.8 44.2 36.3z"/><path fill="#16403b" fill-opacity=".5" d="M262.5 135.2l.6.9-119.6 74.7-.6-.9z"/><path fill="#394644" fill-opacity=".5" d="M60.8 248.7l35.2 4.1L29.1 271 57 249.8z"/><path fill="#a1a484" fill-opacity=".5" d="M35.5 209.6l-1.8 2.8-24.9 10.2 20.6 11.7z"/><path fill="#5b1f24" fill-opacity=".5" d="M22.4 205.6l12.2 1.3-32.4 21.6 5-13.3z"/><path fill="#bde49c" fill-opacity=".5" d="M167 137h20l-34 11z"/><path fill="#ecaf79" fill-opacity=".5" d="M189 68l-67 31 31 8z"/><path fill="#203a36" fill-opacity=".5" d="M133.4 101l-19.3 12.8 11.2 10.6-3.8-18.6z"/><path fill="#d14444" fill-opacity=".5" d="M123.5 151.5L112.2 140l8.3-5.9 10.3.5z"/><path fill="#9c1616" fill-opacity=".5" d="M85 139l5 12-29-17z"/><path fill="#ffdbb2" fill-opacity=".5" d="M152 112h7v6h-7z"/><circle r="1" fill="#999a94" fill-opacity=".5" transform="matrix(-9.4362 -5.29954 2.09525 -3.73074 99.6 192.5)"/><path fill="#edffc7" fill-opacity=".5" d="M137 119l-4 5-7-2z"/><path fill="#d0c3a9" fill-opacity=".5" d="M193.9-16l-56.5 30.4-44.7 18.2L179.3 10z"/><path fill="#c8a18b" fill-opacity=".5" d="M79.2 122l14.4 8.6 30.6-31.5 47.4-24.8z"/><path fill="#c6b48d" fill-opacity=".5" d="M84.8 164.7l-48.2-47.6 22.9 26.3 21.3-1.1z"/><circle r="1" fill="#b7bdac" fill-opacity=".5" transform="matrix(1.24602 2.88667 -46.45764 20.05327 68.7 90)"/><path fill="#ffc5a1" fill-opacity=".5" d="M120.8 36l-11.7-5.5 2-4.5 11.8 5.5z"/><path fill="#674d2f" fill-opacity=".5" d="M99.3 69.2l-82.2 36.6-.4-1 82.2-36.6z"/><path fill="#960000" fill-opacity=".5" d="M23.9 230.2l-13.1 9.6 1.4-10.5 13.8-1.9z"/><path fill="#0b2626" fill-opacity=".5" d="M136.3 64.2l.6-4 24.8 3.6-.6 4z"/><path fill="#8e3d0f" fill-opacity=".5" d="M66 180l19 6v-19z"/><circle r="1" fill="#b37865" fill-opacity=".5" transform="matrix(.73922 1.57092 -65.12663 30.64626 174.1 68.2)"/><path fill="#787786" fill-opacity=".5" d="M67.9 205.8l-15.1 12.4 2-11.9 5.4-1z"/><path fill="#aebda2" fill-opacity=".5" d="M38.6 226.1l-.5-5.9 14.1 1.5-3.4 3.6z"/><path fill="#dfecaf" fill-opacity=".5" d="M122 109h13v4h-13z"/><path fill="#9a7e6a" fill-opacity=".5" d="M33 88l3-28 57 2z"/><circle r="1" fill="#a8b1a6" fill-opacity=".5" transform="rotate(-25.8 261.4 -154.2) scale(34.91383 4.34603)"/><path fill="#956847" fill-opacity=".5" d="M57.4 103.1l32.9 31.5-52-40.5 17.2 7.4z"/><path fill="#d1967c" fill-opacity=".5" d="M159.8 122.9L219 95l-71.6 35.9 61.3 3.8z"/><path fill="#c2a18c" fill-opacity=".5" d="M91.3 34.9l-28.1 6.6-17.3-16.3 1.2 32.3z"/><path fill="none" stroke="#fefac9" stroke-opacity=".5" stroke-width=".5" d="M12.5 106.1q48.2-24 67.8-30.6"/><path fill="#26413e" fill-opacity=".5" d="M102 168l10.9-5.5 37.4-13.9-52.8 23z"/></g></g></svg>