<svg xmlns="http://www.w3.org/2000/svg" viewBox="0 0 1400 1120"><defs/><filter id="a"><feGaussianBlur stdDeviation="12"/></filter><rect width="100%" height="100%" fill="#542c54"/><g filter="url(#a)"><g fill-opacity=".5" transform="translate(2.7 2.7) scale(5.46875)"><circle cx="184" cy="116" r="219" fill="#ffffc5"/><ellipse cx="11" cy="104" fill="#fff" rx="17" ry="203"/><ellipse cx="130" cy="57" fill="#6b2601" rx="104" ry="42"/><circle r="1" fill="#fff" transform="matrix(3.72181 -193.83445 14.24922 .2736 243.6 123.2)"/><ellipse cx="146" cy="7" fill="#fff" rx="245" ry="10"/><ellipse cx="129" cy="201" fill="#fff" rx="253" ry="12"/><circle r="1" fill="#7c4122" transform="matrix(10.08019 -77.44388 24.2554 3.15711 205.4 95.3)"/><path fill="#9e6345" d="M28 75h187v115H28z"/><ellipse cx="8" cy="87" fill="#fff" rx="20" ry="203"/><ellipse cx="244" cy="135" fill="#fff" rx="15" ry="180"/><ellipse cx="83" cy="4" fill="#fff" rx="255" ry="12"/><path fill="#3d1200" d="M168 18h64v27h-64z"/><path fill="#402b23" d="M52.5 101.5l-5.2-52.4-18.5 2.1-1.3 83.2z"/><ellipse cx="191" cy="203" fill="#fff" rx="218" ry="15"/><path fill="#deaf94" d="M151 131h63v32h-63z"/><ellipse cx="12" cy="104" fill="#fff" rx="15" ry="201"/><path fill="#0f0d11" d="M109 48h27v25h-27z"/><ellipse cx="250" cy="142" fill="#fff" rx="21" ry="180"/><path fill="#8e3f2f" d="M174 160l57 28-102-2z"/><path fill="#764e37" d="M52 134h31v56H52z"/><path fill="#865942" d="M191 52h39v84h-39z"/><path fill="#f8f3d6" d="M34 35h20v10H34z"/><ellipse cx="118" cy="1" fill="#fff" rx="255" ry="15"/><path fill="#9c3e1a" d="M46 15h50l-7 32z"/><circle r="1" fill="#b58b6f" transform="matrix(4.90587 15.3951 -70.76791 22.55122 113.1 101)"/><path fill="#e2b489" d="M112 138h21v50h-21z"/><path fill="#ebb878" d="M33 129h20v33H33z"/><ellipse cx="165" cy="200" fill="#fff" rx="201" ry="11"/><ellipse cx="219" cy="61" fill="#d79b5c" rx="13" ry="11"/><path fill="#9e8c7a" d="M156 91l74 51-35 45z"/><path fill="#8a432e" d="M161 17h30v58h-30z"/><path fill="#f4f1d0" d="M106 95.8v8l-22 .4v-8z"/><path fill="#a8260c" d="M209.3 131.3l.4-27 19 .4-.4 27z"/><path fill="#d5dbbf" d="M83 75h22v6H83z"/><path fill="#0c221f" d="M28 181h16v9H28z"/><path fill="#905f50" d="M103 72h44v51h-44z"/><ellipse cx="13" cy="93" fill="#fff" rx="14" ry="203"/><path fill="#d25944" d="M68.5 162v-28h27v28z"/><circle r="1" fill="#fff" transform="matrix(-3.8865 92.7291 -21.66757 -.90814 250.5 128.4)"/><path fill="#511301" d="M209 18h23v34h-23z"/><path fill="#d6a993" d="M96.6 13l21.3 24.8-15.6-.6 22.9-5.2z"/><path fill="#f1d8ba" d="M170.4 159.2l-12.7-30.7-5.7 32.3 19.5-32.4z"/><path fill="#63362e" d="M27 76h37v27H27z"/><path fill="#b73e30" d="M165 160h26v29h-26z"/><path fill="#c38157" d="M146 23h29v13h-29z"/><path fill="#574743" d="M231.2 81l-32.5 43-12-9 32.6-43z"/><ellipse cx="213" cy="4" fill="#fff" rx="215" ry="13"/><path fill="#8e010c" d="M173 132h3v29h-3z"/><path fill="#edb169" d="M150 81h25v11h-25z"/><path fill="#4b362d" d="M111 56.5l57.2-18.4-72.4 44.2 34.3-2z"/><path fill="#ebcc9a" d="M29.4 17.9l24 1.2-.8 13-24-1.2z"/><ellipse cx="75" cy="62" fill="#a08d6c" rx="28" ry="7"/><path fill="#8b786a" d="M203 131h26v56h-26z"/><path fill="#8c6f4b" d="M165 188l-45 1 32-36z"/><path fill="#af9980" d="M150 169h56v7h-56z"/><path fill="#cdc798" d="M83 163h7v28h-7z"/><path fill="#7f6b52" d="M47 170h59v21H47z"/><path fill="#fff" d="M0 191h256v13H0z"/><path fill="#dcc39f" d="M170.5 117.2l-7.8-11.6-18.3-3.6 28.1-4.8z"/><path fill="#664058" d="M140 108h23v14h-23z"/><path fill="#8b7568" d="M104 77.5l-47.9 6.4.9-.3-5.1 46.3z"/><path fill="#000b0d" d="M161 45h3v23h-3z"/><path fill="#5a4340" d="M54 18h17v19H54z"/><path fill="#494639" d="M54 134h13v27H54z"/><path fill="#ae9584" d="M42 103h48v32H42z"/><path fill="#a7220d" d="M168 47h15v28h-15z"/><ellipse cx="254" cy="68" fill="#fff" rx="23" ry="203"/><path fill="#a5522a" d="M118 153l36-10-25 18z"/><path fill="#7e654a" d="M171 36l46 59-19-75z"/><path fill="#b8907a" d="M64.5 58.1l-8.5-13 20.9-18.5L70.2 38z"/><path fill="#c69964" d="M66 162h10v26H66z"/><ellipse cx="152" cy="148" fill="#ff6d08" rx="2" ry="14"/><ellipse cx="162" cy="94" fill="#1d3032" rx="14" ry="2"/><path fill="#513130" d="M110 47h41v27h-41z"/><path fill="#353c44" d="M66 47h22v9H66z"/><ellipse cx="12" cy="193" fill="#fff" rx="16" ry="178"/><path fill="#7d6f57" d="M29.3 58.8l.6 16.6 15.6.7 37.5-.9z"/><path fill="#693515" d="M28 32h14v4H28z"/><path fill="#cc593b" d="M27 131h6v26h-6z"/><path fill="#323331" d="M77 168h6v23h-6z"/><path fill="#aab195" d="M198.8 154.4l15.1 9.8-8.7 13.4-15.1-9.8z"/><path fill="#000b0a" d="M53 100h25v2H53z"/><path fill="#875e4b" d="M56.4 120.3l25-43-30.6 46.1 34.9 39.5z"/><path fill="#623330" d="M175 84h33v10h-33z"/><path fill="#eba950" d="M125 164h10v24h-10z"/><path fill="#b39d89" d="M201.9 81.9l35.5 28.8-34.3-33.9.8 21.6z"/><path fill="#5e2f28" d="M29.4 75.9l15 5.5L33.8 127l9.8-3.7z"/><path fill="#c8c0a4" d="M26 103h20v3H26z"/><path fill="#501e11" d="M149 136h2v28h-2z"/><path fill="#a09088" d="M103 81h21v12h-21z"/><path fill="#bab0b7" d="M119 148l-.8-7 28.9-3 .7 7z"/><path fill="#5b5548" d="M188.2 107.3l-6.5 19.3-14.4 7.6 10-14.9z"/><path fill="#9e5a41" d="M42.8 136l.4 6.8 7.3 45.4-3.5-52z"/><path fill="#d78e68" d="M179 101h28v4h-28z"/><path fill="#e03b33" d="M162 133h3v31h-3z"/><ellipse cx="8" cy="18" fill="#fff" rx="20" ry="203"/><circle r="1" fill="#b14b32" transform="matrix(4.35811 -24.05035 5.27014 .955 138 74.7)"/><path fill="#e0b99e" d="M152.4 125.9l22.7 35.1-13.8 4.2-8.3-18.7z"/><path fill="#42574a" d="M177.9 109.1l-4.9 8.2-10 11.2 11.1-22.2z"/><path fill="#a98667" d="M193 44l10 19-12 16z"/></g></g></svg>