<svg xmlns="http://www.w3.org/2000/svg" viewBox="0 0 1400 934"><defs/><filter id="a"><feGaussianBlur stdDeviation="12"/></filter><rect width="100%" height="100%" fill="#3c3c3b"/><g filter="url(#a)"><g transform="translate(2.7 2.7) scale(5.46875)"><circle cx="111" cy="84" r="171" fill="#fff" fill-opacity=".5"/><circle r="1" fill="#fff" fill-opacity=".5" transform="matrix(-181.1081 27.73016 -21.44327 -140.04783 138 75.3)"/><circle cx="178" cy="69" r="234" fill="#fff" fill-opacity=".5"/><circle r="1" fill="#fff" fill-opacity=".5" transform="rotate(-25.2 181 -297.3) scale(224.85154 130.79625)"/><ellipse cx="151" cy="82" fill="#585858" fill-opacity=".5" rx="35" ry="3"/><path fill="#787878" fill-opacity=".5" d="M155 149h32v12h-32z"/><path fill="#545454" fill-opacity=".5" d="M2 80h62v5H2z"/><path fill="#999" fill-opacity=".5" d="M122 102h59v12h-59z"/><path fill="#aab1a5" fill-opacity=".5" d="M44 150h88v12H44z"/><ellipse cx="95" cy="50" fill="#9a9a9a" fill-opacity=".5" rx="48" ry="4"/><circle cx="243" cy="43" r="91" fill="#fff" fill-opacity=".5"/><path fill="#414141" fill-opacity=".5" d="M219 157h33v4h-33z"/><circle r="1" fill="#fff" fill-opacity=".5" transform="matrix(-1.7639 52.02 -26.42091 -.89589 88.6 110.8)"/><ellipse cx="48" cy="117" fill="#fff" fill-opacity=".5" rx="74" ry="33"/><circle r="1" fill="#fff" fill-opacity=".5" transform="matrix(-20.39593 -48.23353 33.14012 -14.01357 10 29.7)"/><path fill="#606060" fill-opacity=".5" d="M223 150h19v5h-19z"/><ellipse cx="199" cy="137" fill="#fff" fill-opacity=".5" rx="255" ry="13"/><circle r="1" fill="#fff" fill-opacity=".5" transform="rotate(-146.4 96 -14.6) scale(109.23412 46.56257)"/><ellipse cx="169" cy="155" fill="#fff" fill-opacity=".5" rx="197" ry="2"/><path fill="#fff" fill-opacity=".5" d="M261.6 162.7L241.5 185 20.8 160.4l168.3 1.3zm9.2-74.5l-131.3 22.1-47.6-61.8-24.2 37.9z"/><path fill="#625f65" fill-opacity=".5" d="M100 150h29v4h-29z"/><ellipse cx="62" cy="151" fill="#57545a" fill-opacity=".5" rx="14" ry="2"/><path fill="#616161" fill-opacity=".5" d="M166 80h20v4h-20z"/><ellipse cx="95" cy="67" fill="#fff" fill-opacity=".5" rx="255" ry="13"/><path fill="#727272" fill-opacity=".5" d="M155 150h34v4h-34z"/><ellipse cx="158" cy="132" fill="#fff" fill-opacity=".5" rx="255" ry="18"/><ellipse cx="10" cy="155" fill="#fff" fill-opacity=".5" rx="33" ry="71"/><path fill="#fff" fill-opacity=".5" d="M4.2 85.4l61.2-95.5L-16 1.4 7.8 185z"/><path fill="#909090" fill-opacity=".5" d="M140 111h43v4h-43z"/><path fill="#68666b" fill-opacity=".5" d="M57 158h18v3H57z"/><path fill="#fff" fill-opacity=".5" d="M0 41h224v7H0zm107 97l-17 32-63-93z"/><path fill="#e5e5e5" fill-opacity=".5" d="M53 12h73v26H53z"/><path fill="#717171" fill-opacity=".5" d="M162 157h22v4h-22z"/><path fill="#d9d9d9" fill-opacity=".5" d="M125.2 122.7L98.9 130l-61.5 15.9 67-20z"/><path fill="#fff" fill-opacity=".5" d="M181 115l9-77 81 127z"/><circle cx="131" cy="158" r="3" fill="#717073" fill-opacity=".5"/><path fill="#fff" fill-opacity=".5" d="M135 163l1-62 27 73z"/><ellipse cx="177" cy="166" fill="#fff" fill-opacity=".5" rx="255" ry="5"/><path fill="#9d9d9d" fill-opacity=".5" d="M48 48h14v7H48z"/><circle r="1" fill="#cecece" fill-opacity=".5" transform="rotate(-76 190.4 -70.8) scale(1 31.7672)"/><path fill="#868685" fill-opacity=".5" d="M51 80h16v5H51z"/><circle cx="189" cy="15" r="63" fill="#fff" fill-opacity=".5"/><path fill="#fff" fill-opacity=".5" d="M0 86h245v17H0z"/><path fill="#89888b" fill-opacity=".5" d="M116 157h22v4h-22z"/><path fill="#939295" fill-opacity=".5" d="M44 151h29v4H44z"/><path fill="#9b9b9b" fill-opacity=".5" d="M118 80h52v5h-52z"/><path fill="#fff" fill-opacity=".5" d="M271-3.3L131.7 23.8 154 93.4l-.8-29z"/><ellipse cx="132" cy="155" fill="#fefefe" fill-opacity=".5" rx="171" ry="2"/><path fill="#888" fill-opacity=".5" d="M214 156h7v6h-7z"/><ellipse cx="126" cy="14" fill="#d2d2d2" fill-opacity=".5" rx="13" ry="4"/><ellipse cx="92" cy="9" fill="#fff" fill-opacity=".5" rx="6" ry="43"/><circle cx="126" cy="113" r="2" fill="#454545" fill-opacity=".5"/><path fill="#fff" fill-opacity=".5" d="M-16 132l54 53L57 80zm185-24.4l-20.2 67.6-13 3.6-1.1-26.6z"/><path fill="#8c8c8c" fill-opacity=".5" d="M122.6 104.5l15-.2-11.8-.5-3 11.3z"/><path fill="#fcfcfc" fill-opacity=".5" d="M36.8 91.6l25.6-24.1-28.7 35.9-5.1-35.7z"/><path fill="#fff" fill-opacity=".5" d="M189 137h35v20h-35zm-23.6-44.6l-5.8-36.6 1-.2 5.8 36.6z"/><path fill="#acacac" fill-opacity=".5" d="M101 48h37v6h-37z"/><path fill="#fff" fill-opacity=".5" d="M177.6 82.7L200.4-16 271 12.6l-164.6 52z"/><path fill="#cdcdcd" fill-opacity=".5" d="M81.2 10l8.6-2.5 3 10.5-8.6 2.5z"/><ellipse cx="133" cy="60" fill="#fff" fill-opacity=".5" rx="2" ry="27"/><path fill="#f6f6f6" fill-opacity=".5" d="M104.9 26.6l-5.2 65.6-5.4-81.7L113.5 74z"/><path fill="#fff" fill-opacity=".5" d="M126.8 46.4L220.5-16 113.4 37l21.3 26.1z"/><path fill="#0f0f0f" fill-opacity=".5" d="M89 48h1v7h-1z"/><path fill="#2d2d2d" fill-opacity=".5" d="M81 48h2v6h-2z"/><path fill="#fefefe" fill-opacity=".5" d="M70.6 55.5l-18-2.4 1.1-11.3L61.4 83z"/><path fill="#fff" fill-opacity=".5" d="M75 145l4 35 22-35z"/><path fill="#fcfcfc" fill-opacity=".5" d="M223 185l-6.3-6.4 12.6-22-68.9 28z"/><ellipse cx="162" cy="167" fill="#fff" fill-opacity=".5" rx="1" ry="58"/><path fill="#5d5d5d" fill-opacity=".5" d="M133 103h2v12h-2z"/><path fill="#fff" fill-opacity=".5" d="M122 50l-10 71-128 37z"/><path fill-opacity=".5" d="M130 49h1v3h-1z"/><path fill="#fff" fill-opacity=".5" d="M134 108h6v4h-6z"/><path fill="#898989" fill-opacity=".5" d="M147 109h34v4h-34z"/><path fill="#fff" fill-opacity=".5" d="M42.5 84.7L-16-8.8l63 36.1-6.6 72.9zm38-66.7l-92-34 245.1 30.4L77.1 6z"/><path fill="#d1d1d1" fill-opacity=".5" d="M47 7h14v6H47z"/><path fill="#fff" fill-opacity=".5" d="M173 107l1 .2-1 5.8-1-.2zm-24.2-2.8l1-.1 3.4 21.7-1 .1zM140 94l-3-13-3 22z"/><path fill="#909090" fill-opacity=".5" d="M105.6 33l-.5-1 13.3-7 .5 1z"/><circle r="1" fill="#f2f2f2" fill-opacity=".5" transform="matrix(-.9985 .05462 -1.46379 -26.75768 162.7 110.1)"/><path fill="#fff" fill-opacity=".5" d="M58 44h2v28h-2z"/><ellipse cx="233" cy="96" fill="#fff" fill-opacity=".5" rx="53" ry="37"/><path fill="#282828" fill-opacity=".5" d="M76 49h2v3h-2z"/><path fill="#fff" fill-opacity=".5" d="M143 107h2v16h-2z"/><path fill="#797a79" fill-opacity=".5" d="M125 107l9 3-13-9z"/><path fill="none" stroke="#fff" stroke-opacity=".5" stroke-width=".5" d="M122.3 165.4q7-52 1.8-107"/><path fill="#d2d2d2" fill-opacity=".5" d="M141 102h38v6h-38z"/><path fill="#d6d6d6" fill-opacity=".5" d="M56.1 37.5L52 33.7l-2.2-1.6 61.5 9.2z"/><ellipse cx="166" cy="161" fill="#fff" fill-opacity=".5" rx="1" ry="52"/><circle r="1" fill="#fff" fill-opacity=".5" transform="rotate(91.1 33.3 81.2) scale(16.31985 1)"/><path fill="#85c55c" fill-opacity=".5" d="M43 158h11v2H43z"/><path fill="#fff" fill-opacity=".5" d="M125 87h2v27h-2z"/><path fill="#bebebe" fill-opacity=".5" d="M85 59.8l.7.8-12.8 9.6-.6-.8z"/><ellipse cx="18" cy="82" fill="#757675" fill-opacity=".5" rx="11" ry="2"/><ellipse cx="224" cy="169" fill="#fff" fill-opacity=".5" rx="82" ry="9"/></g></g></svg>