<svg xmlns="http://www.w3.org/2000/svg" viewBox="0 0 800 640"><defs/><filter id="a"><feGaussianBlur stdDeviation="12"/></filter><rect width="100%" height="100%" fill="#223b20"/><g filter="url(#a)"><g fill-opacity=".5" transform="translate(1.6 1.6) scale(3.125)"><circle r="1" fill="#ef2e4b" transform="matrix(84.63725 -67.37215 81.14352 101.93773 159 46)"/><ellipse cx="154" cy="110" fill="#f4ffff" rx="33" ry="39"/><circle r="1" fill="#e8ffff" transform="matrix(-21.36989 16.08158 -12.65787 -16.82032 61.2 11.3)"/><circle r="1" fill="#fbffff" transform="matrix(2.21338 20.46829 -16.31387 1.76413 83.3 71.1)"/><circle r="1" fill="#720000" transform="matrix(-29.962 -26.85506 158.03809 -176.32198 210.8 157.2)"/><ellipse cx="173" cy="6" fill="#230000" rx="32" ry="72"/><circle r="1" transform="matrix(-31.64486 -15.77755 20.11768 -40.34983 24.3 70.1)"/><path fill="#600000" d="M48 88h77v54H48z"/><path fill="#a60000" d="M95.8 39.7L284.2 3.1l8 41.2-188.4 36.6z"/><path fill="#6f0000" d="M125 150h111v54H125z"/><circle r="1" transform="rotate(96.9 60 189.2) scale(99.43937 15.87561)"/><ellipse cx="236" fill="#beffff" rx="21" ry="11"/><circle r="1" fill="#001b0c" transform="rotate(153.4 54 23.2) scale(13.45133 24.10422)"/><path fill="#000100" d="M144.8 32l-6.3-29.4L197.2-10l6.3 29.3z"/><path fill="#030900" d="M102 105h23v58h-23z"/><path fill="#c70002" d="M53 93h52v27H53z"/><ellipse cx="149" cy="85" fill="#d4dcdd" rx="24" ry="15"/><circle r="1" fill="#610000" transform="matrix(30.1951 -9.54373 11.02244 34.87354 248.3 48.7)"/><circle r="1" fill="#a80001" transform="matrix(19.76846 -24.56464 22.6286 18.21042 216.4 123)"/><path fill="#cbe3e1" d="M42 0h39v27H42z"/><path fill="#cdbc42" d="M203 63h19v28h-19z"/><path d="M4 132L72 26l-82 31z"/><ellipse cx="83" cy="70" fill="#cae0db" rx="18" ry="21"/><circle r="1" fill="#c4cecf" transform="rotate(80.6 2.2 157.6) scale(16.60482 26.68609)"/><path fill="#b50008" d="M126 148.2l19-.4 1 60-19 .4z"/><path fill="#8d1c22" d="M135 106h34v12h-34z"/><path fill="#db1720" d="M135-9L115 92l43-39z"/><path fill="#d00000" d="M92 52.6l-31.5-5.5L64 27.4l31.5 5.5z"/><ellipse cx="95" cy="18" fill="#9bdacd" rx="4" ry="15"/><path fill="#960000" d="M201 64l-50-20 57 78z"/><circle r="1" fill="#cbd9db" transform="rotate(-107.9 126.2 -13.2) scale(20.14711 10.18908)"/><circle r="1" fill="#244324" transform="matrix(1.74667 29.98982 -70.8636 4.12725 57.5 155)"/><path d="M228 219l28-153 15 131z"/><circle r="1" fill="#271719" transform="rotate(96.3 1 11.5) scale(24.3276 29.32392)"/><path fill="#740000" d="M115 62l8 69-56-8z"/><path fill="#b10004" d="M70 109l-9-62-11 69z"/><ellipse cx="236" cy="86" fill="#8e0006" rx="12" ry="71"/><path fill="#e2ffff" d="M126 104h8v28h-8z"/><path fill="#040801" d="M-16 26l67 78 10-67z"/><ellipse cx="176" cy="1" fill="#000d01" rx="29" ry="22"/><circle r="1" fill="#ab0005" transform="rotate(-169.3 104.2 12) scale(5.26834 79.38343)"/><circle r="1" fill="#470004" transform="rotate(34.9 -196 413) scale(28.95805 58.21368)"/><ellipse cx="129" cy="95" fill="#d35a5d" rx="8" ry="7"/><path fill="#525800" d="M206 43h20v22h-20z"/><path fill="#bdb8aa" d="M39 21h25v13H39z"/><path d="M110 0h6v44h-6z"/><circle r="1" fill="#8b0006" transform="rotate(-108.2 145.1 11) scale(10.9725 50.56471)"/><path fill="#c7cccb" d="M141.4 93.9l7.6 23 39.6-4-27.5 16.3z"/><path fill="#d63433" d="M115.5 46.5l6 48.6 15.3-34.2-4.2-32.3z"/><path fill="#051509" d="M99.7 17L90.4-9.7l-3.3 39L104-15.8z"/><path fill="#e6eae6" d="M126.4 80.5l-1.7 13.8L150 72.4l-12.4 2.1z"/><path fill="#380001" d="M174 81l16-69 10 28z"/><path fill="#001202" d="M126.4 159.5l-63.7-38 56.2 12.7 5.9 2.1z"/><path fill="#bb0017" d="M245 112l-71 43 18-46z"/><path fill="#60756b" d="M107.5-16l-8.7 44.9-7.6-34.7 17.7 39.5z"/><path fill="#78625c" d="M229-1l-14.2 40.1 3.3-55.1-17.7 3.6z"/><path fill="#1c0000" d="M221.4 78.8l13 9.1-31.7 5.5 22.5 3.7z"/><path fill="#d1dad9" d="M178 136l-37 12-13-15z"/><path fill="#d6d7d5" d="M134.2 123.2l3.2-3.1-15.2-15.1 2.9-20.4z"/><path fill="#650000" d="M142 99h3v17h-3z"/><path fill="#c5c1bf" d="M81 29l-39-6 45-35z"/><path fill="#aa000b" d="M101.3 33.6l14.7 3.7 5.8 45.5L74.3 35z"/><path fill="#ba000d" d="M92 41L57 62l7-23z"/><path fill="#000e02" d="M271 211.2l-28.3-61.8 5.9-47.4 6.3-48.8z"/><ellipse cx="159" cy="50" fill="#a20010" rx="16" ry="23"/><path fill="#880b12" d="M165 113l7-11-13 3z"/><path fill="#530000" d="M140 0h8v32h-8z"/><ellipse cx="178" cy="116" fill="#cecfcf" rx="10" ry="16"/><ellipse cx="57" cy="158" fill="#2b4225" rx="60" ry="32"/><ellipse cx="126" cy="14" fill="#143d29" rx="3" ry="25"/><path fill="#b7b7b8" d="M178.8 83.1l-5.1 9.5-9.3 19.4-16.7-39.6z"/><path fill="#af8f8e" d="M139.5 130.8l5.1-9.6 39.1 9.5-50.7 5.8z"/><circle r="1" fill="#580000" transform="matrix(6.6555 20.72944 -6.17542 1.9827 114.6 93.8)"/><path fill="#550003" d="M218.4 51.5l14.4-8.1L271-16v67.6z"/><circle r="1" fill="#bfb4b5" transform="matrix(-26.99865 10.14813 -2.4785 -6.59394 254 -.2)"/><path fill="#9b000e" d="M76.7 89.6L56.3 71.1l7.5 51.5 49.1-33.1z"/><path fill="#340e09" d="M209.2-16l5.9 33-1.4-3.2 8.7.7z"/><path fill="#b4000a" d="M127 137l2 48 13-36z"/><path fill="#e7ead8" d="M217 14h2v14h-2z"/><path fill="#393b2d" d="M33-16l11 37L-9 6z"/><path fill="#b21e24" d="M128 89h8v12h-8z"/><ellipse cx="117" cy="2" fill="#690000" rx="3" ry="41"/><path fill="#3c0000" d="M219 102l11-9-6-33z"/><path fill="#1e392a" d="M101.3 13.8l-1.7 9.3L95 34.2l13.7-1.2z"/><path fill="#cce7e5" d="M146 106l10 12h-10z"/><path fill="#15260b" d="M-16 135.5l64.2-18 7.5-29.7-65.8 17.7z"/><path fill="#790f14" d="M159 107l-1 10-10-13z"/><ellipse cx="123" fill="#728876" rx="4" ry="15"/><path fill="#cfd2d2" d="M154.3 114l-7.2-43-18.7 12.7 30.2 18.2z"/><path fill="#8e0009" d="M225 54h25v47h-25z"/><path fill="#d89c91" d="M215 22h2v21h-2z"/><path fill="#000e06" d="M204.5 14.6l-58.8 16.9 7.7-47.5h49.9z"/><circle r="1" fill="#c1c5be" transform="matrix(2.05614 .1905 -.88725 9.57644 93.3 23.7)"/><path fill="#6d0007" d="M202 153l-63 1-11 62z"/><path fill="#b70113" d="M208.8-16h-2l-5.9 53.8 15.7-9z"/><path fill="#010000" d="M98.4-31l-9.8 62.2-1-.2 9.8-62.2z"/><path fill="#c0181c" d="M85.5 34.6L90.1-3l-4.1.6-6.3 45.1z"/><path fill="#ab8c85" d="M77 72l16 2-20-21z"/><path fill="#1a4620" d="M119 168h8v36h-8z"/><path fill="#bf131e" d="M167 71.5l-29.6-3.9-18.8 28.6-6.6-23.4z"/></g></g></svg>