<svg xmlns="http://www.w3.org/2000/svg" viewBox="0 0 1400 1120"><defs/><filter id="a"><feGaussianBlur stdDeviation="12"/></filter><rect width="100%" height="100%" fill="#5b3e2b"/><g filter="url(#a)"><g fill-opacity=".5" transform="translate(2.7 2.7) scale(5.46875)"><circle r="1" fill="#dfddce" transform="rotate(140.2 34 112.4) scale(147.39402 114.17576)"/><path fill="#fff" d="M36 6h11v194H36z"/><circle r="1" fill="#fff" transform="matrix(-.02414 11.82409 -167.34362 -.34164 104.7 189.9)"/><path fill="#55462e" d="M177 76h79v107h-79z"/><path fill="#fff" d="M208 56h22v68h-22z"/><path d="M138 48h18v63h-18z"/><path fill="#fff" d="M116 58h22v52h-22z"/><path d="M98 48h17v55H98z"/><path fill="#0a0000" d="M50 88h16v58H50z"/><circle r="1" fill="red" transform="rotate(176.3 10.9 89.8) scale(14.07484 11.12478)"/><path fill="#24221c" d="M0 0h35v161H0z"/><path fill="#fff" d="M66 49h5v110h-5z"/><ellipse cx="41" cy="92" fill="#fff" rx="6" ry="66"/><circle r="1" fill="#090603" transform="matrix(-2.2741 47.27028 -9.36259 -.45042 240.5 78.4)"/><ellipse cx="77" cy="152" fill="#fff" rx="39" ry="5"/><path fill="#65472a" d="M168 56h39v67h-39z"/><path fill="#cbcdc6" d="M143 124h113v7H143z"/><path fill="#fff" d="M20 200l-9.9-42 23.8 5.9-49.9 20.7z"/><path fill="#272216" d="M27.7-8.1l31.9 84.3L72.4-7.6-16 30.5z"/><ellipse cx="133" cy="187" fill="#f2f2e8" rx="97" ry="10"/><path fill="#edf4f1" d="M157 137l15-6 4 52z"/><path fill="#6c563d" d="M123-12L74 137l-2-82z"/><path fill="#d2d4bf" d="M225.2 49.5l-41.7 21.6 22.2 3.4 23.4 69.4z"/><path fill="#544129" d="M200 130h56v53h-56z"/><path fill="#dacba8" d="M169.8 46.4l-7.8 5.7 22.8 5.7 36.4-11.2z"/><path fill="#e9eddc" d="M116 44h22v68h-22z"/><circle r="1" fill="#765938" transform="matrix(13.95618 -21.90681 29.85895 19.02225 137.5 33.2)"/><path fill="#534031" d="M2 53h34v108H2z"/><path fill="#fffeff" d="M18.4 170.7L4 192.1l7.8-31.6 37.6.8z"/><ellipse cx="68" cy="87" fill="#fff" rx="3" ry="44"/><path fill="#fdffff" d="M35 27h10v83H35z"/><ellipse cx="239" cy="194" fill="#ece9db" rx="100" ry="7"/><path fill="#3c2d18" d="M266.5-1.2L174-16l40.2 76.7-24.6 2.3z"/><path fill="#3c2919" d="M97 42h18v69H97z"/><circle r="1" fill="#2d1d11" transform="rotate(-96.5 101.5 -34.5) scale(25.95225 9.39708)"/><path fill="#200f06" d="M195 77h12v37h-12z"/><ellipse cx="24" cy="177" fill="#f40f22" rx="9" ry="12"/><path fill="#4c3825" d="M48 79h19v66H48z"/><path fill="#cbbfae" d="M86 117h23v62H86z"/><path fill="#fff" d="M37.8 189.3l4.4-54.2 5.3 59.9-63.5 6.2zM135 149h19v7h-19z"/><path fill="#c7a46e" d="M56 7h98v3H56z"/><path fill="#342416" d="M8.9 176.9l-8.3-.4 2.7-8.4L6.7 39.7z"/><path fill="#5b4b35" d="M109.4 144.1l10.4 29.4-.8-6.6-11.6 14.9z"/><path fill="#9f8b6e" d="M47 188h191v2H47z"/><ellipse cx="15" cy="92" fill="#8f755e" rx="3" ry="55"/><circle r="1" fill="#918066" transform="matrix(9.56646 20.38739 -11.03526 5.17812 228.8 154.9)"/><path fill="#292321" d="M72 28h5v106h-5z"/><path fill="#1d160f" d="M29 53h7v106h-7z"/><circle r="1" fill="#2b1f13" transform="matrix(-7.3595 -57.73939 3.47312 -.44269 246.4 123.8)"/><path fill="#97856a" d="M179.5 70.6l14-.2 1 57-14 .2z"/><path fill="#69573a" d="M110 124l26 11-1 27z"/><circle cx="26" cy="179" r="12" fill="#e81a26"/><path fill="#a8885c" d="M49 200h207v4H49z"/><circle r="1" fill="#261703" transform="matrix(1.10315 -19.82447 .99846 .05556 155.8 152.2)"/><path fill="#c2baac" d="M137.8 133.1l53.2-1.2L88.3 116l27 11.9z"/><path fill="#f2b6b2" d="M37 181l-17-11v8z"/><path fill="#090805" d="M206 134h7v33h-7z"/><path fill="#5d3410" d="M170 55h8v54h-8z"/><ellipse cx="253" cy="87" fill="#836449" rx="6" ry="45"/><path fill="#765a3d" d="M208 24h21v33h-21z"/><ellipse cx="101" cy="145" fill="#7f7160" rx="54" ry="4"/><path fill="#d5c3aa" d="M183 74l31-16 23 13z"/><path fill="#b8a589" d="M107.4 219L3.9 198.2l92.6 2.1 13.4-27.2z"/><path fill="#755d3c" d="M193 153l-4-23-28 21z"/><path fill="#c6c1b1" d="M182.4 179.6l-14.5-53.1 2.3 57.3 37.4-5.5z"/><ellipse cx="154" cy="17" fill="#99764b" rx="98" ry="2"/><path fill="#f1f4ec" d="M66 33h2v71h-2z"/><path fill="#fffffe" d="M39.7 159.7l11 21.6 17.4 15.4-43-35.8z"/><path fill="#fff" d="M69 135h16v4H69z"/><path fill="#977f64" d="M77 49h21v63H77z"/><path fill="#d3c0a4" d="M48 169h55v9H48z"/><path fill="#d3dccb" d="M208 84h20v45h-20z"/><path fill="#231c15" d="M45 4l3 49 22-17z"/><path fill="#f0f4f1" d="M115 60h22v35h-22z"/><circle r="1" fill="#fdfcef" transform="matrix(-4.31066 -1.4927 1.21269 -3.50203 162.5 97)"/><ellipse cx="165" cy="8" fill="#93714a" rx="130" ry="2"/><path fill="#1f180f" d="M194 6h11v40h-11z"/><path fill="#a1845e" d="M34 12l6-28 6 53z"/><path fill="#f7faf9" d="M51 179h116v8H51z"/><path fill="#725845" d="M23 21h5v109h-5z"/><path fill="#6d3b0e" d="M213 201h41v3h-41z"/><path fill="#fff" d="M169.9 132.5l-10.3 17.1-3.5-2 10.3-17.2z"/><circle r="1" fill="#2a231c" transform="matrix(18.54845 5.42257 -11.90712 40.72949 13.2 28)"/><path fill="#f6f7ed" d="M40 153h84v3H40z"/><path fill="#533b2a" d="M-21.2 140.5l58-1 .4 20-58 1z"/><path fill="#817058" d="M135.2 117.4l64-7.1-26.4 19.8 47.8-7.1z"/><path fill="#fff" d="M31.5 159.5l-21.4 16.8-.5-17.9.7 3.6z"/><path fill="#edefe8" d="M210 184h46v15h-46z"/><path fill="#c19f80" d="M49 116h3v29h-3z"/><path fill="#826b48" d="M161 158l-54 11 63 7z"/><ellipse cx="142" cy="196" fill="#ac936e" rx="77" ry="1"/><path fill="#b08c5a" d="M78 24h98v2H78z"/><path fill="#6f5d48" d="M119.7 151.5l-17.1 39.9 18.5-59.6-17.9 73.7z"/><path fill="#0d1109" d="M69 20h3v33h-3z"/><path fill="#fff" d="M17.1 186.7l-5.3-15.9-2.3 21.9 29.8 7.8z"/><path fill="#866543" d="M161 31l-78-2 52 17z"/><path fill="#978062" d="M157 41h13v48h-13z"/><path fill="#2a1d15" d="M231 73h16v50h-16z"/><path fill="#241a0d" d="M215 150h16v5h-16z"/></g></g></svg>