<svg xmlns="http://www.w3.org/2000/svg" viewBox="0 0 1400 1120"><defs/><filter id="a"><feGaussianBlur stdDeviation="12"/></filter><rect width="100%" height="100%" fill="#4a372f"/><g filter="url(#a)"><g fill-opacity=".5" transform="translate(2.7 2.7) scale(5.46875)"><circle r="1" fill="#fff" transform="matrix(143.37223 24.76468 -24.00125 138.9524 137.3 39.5)"/><circle r="1" fill="#e6ffff" transform="matrix(-246.3193 -65.96821 14.14801 -52.8274 168.4 32.5)"/><ellipse cx="173" cy="150" fill="#34250d" rx="101" ry="14"/><path fill="#513d22" d="M92 31l53 100-84-58z"/><circle r="1" fill="#bdf3ff" transform="matrix(-46.15067 76.8554 -27.37534 -16.43854 37.5 36.1)"/><ellipse cx="34" cy="123" fill="#1b1c1b" rx="20" ry="44"/><circle r="1" fill="#d0f5ff" transform="rotate(-57.5 139.5 -163.3) scale(52.38193 226.77995)"/><path fill="#817265" d="M232 89l-22 105-226-16z"/><circle r="1" fill="#f6ad5d" transform="matrix(2.35026 -49.31785 20.49532 .97671 79.4 114.3)"/><circle r="1" fill="#22333a" transform="matrix(4.51354 .95102 -13.4744 63.94933 125.7 101.4)"/><path fill="#23333e" d="M228 173l-1-70-58 59z"/><path fill="#b0a8a6" d="M122 159l132 15-116 18z"/><path fill="#92cbf9" d="M227 81h29v60h-29z"/><ellipse cx="151" cy="132" fill="#d4a876" rx="21" ry="45"/><circle cx="48" cy="40" r="31" fill="#d4ebff"/><path fill="#252932" d="M109 81L72 46l41 10z"/><path fill="#000506" d="M25 113v48h-40v-48z"/><path fill="#a8d6ff" d="M0 0h22v113H0z"/><path fill="#5a5147" d="M93 126h37v50H93z"/><path fill="#d6ffff" d="M55.8 82.2l-10-25.1 2.8 49 15.1-7.6z"/><path fill="#e1f1ff" d="M199.4 5.5l7 79.7-59.8 5.3-7-79.7z"/><path fill="#515358" d="M133.9 55.8l6.3-9 2.4 15.5 7.2 59z"/><path fill="#364146" d="M114.2 81.9l11.4-18.2 4.3 25.2 4.3 75.9z"/><ellipse cx="112" cy="33" fill="#e3f3ff" rx="19" ry="26"/><path fill="#90a1b1" d="M93 85h25v45H93z"/><path fill="#a4969b" d="M46.2 192.7l124.6-29-82.2 26.9-29.5 9.3z"/><path fill="#cde4ff" d="M140 53l99 60 20-129z"/><path fill="#4e2f1c" d="M101.4 62.5L73.7 51.8l22.2-10.2-43.2 37.2z"/><circle r="1" fill="#916e55" transform="matrix(1.73856 27.63362 -13.77394 .86658 55.7 138.7)"/><path fill="#13334b" d="M228 165l16-39 27 74z"/><path fill="#38393e" d="M22 76h12v40H22z"/><path fill="#010200" d="M25 105.4l-1 37.2-9.7-29.7-3-1.7z"/><ellipse cx="90" cy="117" fill="#ffe2a7" rx="3" ry="50"/><ellipse cx="199" cy="141" fill="#1f1814" rx="36" ry="4"/><circle r="1" fill="#3b312e" transform="matrix(-.156 -21.43387 64.9891 -.47298 196 203)"/><path fill="#5b5751" d="M102 48h9v102h-9z"/><path fill="#e3c39d" d="M57.4 132.2l21.1-16.3 57.8 25.6-29.8-21.7z"/><path fill="#b0a59a" d="M146.6 134.8l37.8 1.6 34.1 3.7L165 83.3z"/><circle r="1" fill="#292e31" transform="matrix(25.26108 -28.79288 12.84687 11.27104 20.4 167)"/><path fill="#ffe1ba" d="M133 68h7v49h-7z"/><path fill="#182026" d="M245.2 144.6l-73.7 20.7 32.4 4.7 52.6-2.7z"/><path fill="#2b4566" d="M59 104H38l23 30z"/><path fill="#d6e8ff" d="M98.6 6.9L67.3 68.4 33.4 51l31.3-61.5z"/><path fill="#b76e21" d="M57 86l38 11-35-27z"/><path fill="#5b4426" d="M107 155h57v8h-57z"/><path fill="#501c00" d="M60 78l-8-6 32-10z"/><path fill="#306998" d="M85.9 52.7l2.3-22.9 3.9 6.1 14.8 32.4z"/><circle r="1" fill="#c3bfbd" transform="matrix(.148 -4.03637 35.60467 1.30556 148.8 168)"/><path fill="#9ec9e8" d="M-15.3 132.8l23.9-18.3 13.7-17.2L1.8 69.4z"/><path fill="#815428" d="M78.6 124l21.6 8.2-51.1 7.9L38 159z"/><path fill="#b29e8d" d="M180 146h19v10h-19z"/><path fill="#6f7479" d="M193 105h35v33h-35z"/><path fill="#e1f2ff" d="M113 0h19v65h-19z"/><path fill="#b78c5e" d="M153.7 168.5l-34.3-43.2-1.7 20.3L165 89.2z"/><path fill="#bbd8f3" d="M52 86L51-16l-67 70z"/><circle cx="32" cy="68" r="3" fill="#000a34"/><path fill="#0a406d" d="M136 34l-4 34 9-8z"/><path fill="#cbbaac" d="M44 117h7v20h-7z"/><path fill="#afbcca" d="M94 89h8v52h-8z"/><circle r="1" fill="#180d06" transform="matrix(5.67126 -2.53837 4.0203 8.98221 124 112.8)"/><path fill="#ffe5af" d="M148 85h11v28h-11z"/><path fill="#f4cba2" d="M173.3 159l-12-1.2 1.4-12.9 12 1.3z"/><path fill="#6f8690" d="M142.9 91.9l-27.5 5.5L133 106l-12.5-42z"/><path fill="#727f9a" d="M181 171l43 10 41-14z"/><ellipse cx="162" cy="140" fill="#644a38" rx="37" ry="5"/><path fill="#e4a562" d="M62.8 80.9l-4.2-5.1 38.2-10.9-38.1 83.5z"/><ellipse cx="27" cy="136" fill="#a89386" rx="2" ry="18"/><circle r="1" fill="#574f52" transform="matrix(-.14872 6.87037 -51.04134 -1.1049 73.4 171.5)"/><path fill="#221709" d="M122.2 91.9L89.4 57.1l36 29.2-5.2 12.6z"/><path fill="#472811" d="M73.7 155.2l-.4-10 9-.4.4 10z"/><path fill="#abb5bd" d="M117 110.3l-5 50.5 2-63.2-22.8 9.8z"/><ellipse cx="72" cy="124" fill="#ffd19f" rx="3" ry="40"/><path fill="#ece2c6" d="M156 127h10v13h-10z"/><path fill="#c9eaff" d="M61.5 105.4l-6-31.9-7.5 27.3 10.5 6.7z"/><ellipse cx="168" cy="29" fill="#daebfd" rx="31" ry="58"/><path fill="#393532" d="M131.8 143.1h-29.5l16.2 35.3-1.1-12.6z"/><path fill="#394247" d="M48 89.8L22.4 81l1.6-4.8L49.6 85z"/><path fill="#8290a9" d="M91.2 51.4L61.4 69.3l35-13.7L123.1 72z"/><path fill="#3a2200" d="M160.1 147.7l3.4 8.3-5.6 2.3-3.4-8.3z"/><path fill="#100d00" d="M144 146l2 12-7 2z"/><path fill="#e3c69c" d="M134 148h6v40h-6z"/><path fill="#d8eafe" d="M102.9 57.6L130.2-16 49.1 32.9l44.1-1z"/><circle r="1" fill="#a59ca0" transform="matrix(-83.74968 12.5638 -.14836 -.98893 71.5 175)"/><path fill="#1e1c1a" d="M37.1 153.3L64.9 167l-79.9-3.5L7.7 152z"/><path fill="#ca9c7a" d="M62.8 124l2.6-7.2-3.4 46.5-16-8.7z"/><path fill="#7e8da1" d="M221.7 146.7l24.8 2.6-.2 2-24.8-2.6z"/><path fill="#dccc9b" d="M125 135l-13-10 11 20z"/><path fill="#302921" d="M128.5 180.3l8.7 35-41.7 10.4-8.7-35z"/><ellipse cx="144" cy="114" fill="#4c4b56" rx="3" ry="10"/><path fill="#1a0f01" d="M38 128h5v35h-5z"/><circle r="1" fill="#bbd9f3" transform="matrix(17.36957 11.76904 -37.75084 55.71533 255 48.8)"/><path fill="#302d2a" d="M5.9 187.1l110.5-16.3 20.3.5L-16 203z"/><path fill="#5f340b" d="M65 132h3v34h-3z"/><path fill="#ffe1c8" d="M135 84h7v31h-7z"/><path fill="#fdc69b" d="M91 120l1 31-11 11z"/><ellipse cx="250" cy="143" fill="#181b1d" rx="80" ry="3"/><path fill="#d1bfaf" d="M160 84l35 25-25-2z"/><path fill="#c1ecff" d="M113 74l1-13 12 20z"/><ellipse cx="133" cy="118" fill="#f6b064" rx="3" ry="17"/><circle r="1" fill="#5d5458" transform="rotate(-16.3 718.3 22.4) scale(45.98146 6.78638)"/></g></g></svg>