<svg xmlns="http://www.w3.org/2000/svg" viewBox="0 0 1400 1120"><defs/><filter id="a"><feGaussianBlur stdDeviation="12"/></filter><rect width="100%" height="100%" fill="#4a372f"/><g filter="url(#a)"><g fill-opacity=".5" transform="translate(2.7 2.7) scale(5.46875)"><circle r="1" fill="#fff" transform="rotate(37 16.9 214.6) scale(152.07404 144.30014)"/><circle r="1" fill="#e6ffff" transform="rotate(14.6 -50 674.6) scale(255 53.31345)"/><circle r="1" fill="#615a50" transform="rotate(-93.9 173 -12.8) scale(29.45435 165.8454)"/><circle r="1" fill="#26231d" transform="matrix(-21.92897 -26.79197 10.05799 -8.23237 99.9 69.5)"/><ellipse cx="22" cy="31" fill="#c6f9ff" rx="59" ry="50"/><circle r="1" fill="#111718" transform="matrix(23.21588 -33.11164 21.93933 15.38253 27.8 134)"/><circle r="1" fill="#d2f6ff" transform="matrix(24.23942 -52.4458 139.48736 64.46833 204 38.7)"/><path fill="#3c3932" d="M85 182l41-11 13-130z"/><path fill="#061116" d="M172 165.8l2.1-29 75.8 5.4-2 29z"/><ellipse cx="78" cy="111" fill="#f0a048" rx="19" ry="53"/><ellipse cx="156" cy="175" fill="#ada1a2" rx="78" ry="10"/><path fill="#aedbff" d="M-13.8 134.7L-15.5 3.1l64-19.1L17 106.1z"/><path fill="#a2d7ff" d="M228 55h28v85h-28z"/><path fill="#3b1c09" d="M106 63L51 77l34-27z"/><path fill="#172733" d="M20 116l25-32-21-11z"/><path fill="#47545c" d="M222.3 162.4l7.3-52.8-13.9-10.2-27.8-1.9z"/><path fill="#062f59" d="M145 69l-12-37 1 32z"/><path fill="#c89c6d" d="M131 102h42v86h-42z"/><path fill="#dffaff" d="M40 59l11 43 21 3z"/><path fill="#655e61" d="M63 201l-77-36 145 5z"/><circle r="1" fill="#dbebff" transform="matrix(-16.57101 26.581 -81.04377 -50.52395 159.3 22.2)"/><path fill="#26394b" d="M109 80.9L90.5 26.1l-2.6 17.2L77.5 50z"/><path fill="#020603" d="M2 113h23v46H2z"/><path fill="#bf8d68" d="M39 116l70 49-55-3z"/><path d="M118 101h13v18h-13z"/><path fill="#8e99a0" d="M93 85h25v50H93z"/><path fill="#f5d2af" d="M132 69h10v47h-10z"/><circle r="1" fill="#cfe2ff" transform="matrix(28.09986 13.16294 -12.90471 27.5486 48.6 41.2)"/><path fill="#ffd097" d="M87 53h6v101h-6z"/><path fill="#a4dafd" d="M21.4 103.6l1.4-35.8L-16 93.6l23.3 22.9z"/><path fill="#5b4935" d="M91.3 141.5l57-1 .4 22-57 1z"/><path fill="#e0f2ff" d="M197 68l-49 24-13-108z"/><path fill="#8d8378" d="M177 157.7l61.2-9.7-54.4-3.4 5.6-27.1z"/><path fill="#e8f7ff" d="M139 29l-27-3 2 53z"/><ellipse cx="106" cy="111" fill="#60554a" rx="5" ry="66"/><path fill="#61727a" d="M138.3 81.1L91 73.3 148.4 93l-13.5-69.4z"/><path fill="#1a2935" d="M241.2 136.3l1-9.1 28.8 42.6-91.2-.1z"/><path fill="#c5c3c1" d="M144.6 183l-23.4-20.8 61.1 2.9-49.2 13.3z"/><circle r="1" fill="#3f1500" transform="matrix(.62638 2.43433 -16.79217 4.32084 66.8 70.6)"/><path fill="#c6c0b0" d="M107.2 102l6.3 19.9-20.6-4.8 35 27.9z"/><path fill="#476d83" d="M136.4 90.8L122 60.2 118.4 76l7.5 26.4z"/><path fill="#de964a" d="M61 123l1-48 29-11z"/><path fill="#656161" d="M26 81l24 3-23 73z"/><path fill="#9d8786" d="M57.7 198.9l14.9-14.5 26.5-4.4 38.6-3.8z"/><path fill="#482900" d="M161.8 147.2l4.1 15.5-7.7 2-4.1-15.4z"/><path fill="#ffe388" d="M148 92h11v19h-11z"/><path fill="#ffffd2" d="M135 158l8-14-7 2z"/><circle r="1" fill="#38210c" transform="matrix(1.94775 -2.29928 22.74 19.2633 106.8 74)"/><path fill="#352417" d="M184.5 138.3l-49.1 5.9 135.6 3.5-76.2-10.4z"/><circle r="1" fill="#332318" transform="matrix(-.5876 -2.7884 31.0631 -6.54602 92.2 178)"/><path fill="#5078a2" d="M220.4 177.5l-.6-7 45.8-4 .6 7z"/><path fill="#b8d5f0" d="M52.8 108.6l3.8-21.7L-16 62.7 31-16z"/><circle r="1" fill="#c8e0fc" transform="matrix(-37.16102 63.73845 -31.65181 -18.45375 227.4 33)"/><path fill="#6b492b" d="M71.8 130.7L19 154.5l45.6-13.1-.8 28.7z"/><path fill="#311700" d="M75 144h9v11h-9z"/><path fill="#6986a1" d="M107.8 55.8l5.5 38-2.6-46.3-44 15.3z"/><path fill="#f5d8b1" d="M116 108l-44-2-9-16z"/><path fill="#61554f" d="M142 91h6v33h-6z"/><path fill="#d5e7fe" d="M52-16l67 18-80 79z"/><path fill="#fff" d="M155.6 130.2l11 .6-.2 5-11-.6z"/><circle r="1" fill="#a7a4af" transform="matrix(.35074 -5.48083 29.55566 1.89139 181 172.6)"/><path fill="#a2cdec" d="M271 64l-10 77-34-30z"/><path fill="#002045" d="M34 63v10l-4-8z"/><path fill="#9c5a1b" d="M58 73h11v17H58z"/><path fill="#19120a" d="M38 127h5v45h-5z"/><path fill="#e9c6a7" d="M72 153l-19-22 23 11z"/><circle r="1" fill="#111c24" transform="rotate(170.7 -.7 96.2) scale(27.75875 6.14949)"/><path fill="#b6a59a" d="M43 113h7v25h-7z"/><path fill="#845e36" d="M48.4 132.6l63.2 1.6-36.3-9-4.5 8z"/><path fill="#242c36" d="M243 122l27 87-24 10z"/><path fill="#806e62" d="M146.4 172.7l45 16.3-53.6 5.9-3.3-6.3z"/><path fill="#f8cb9a" d="M65.1 130l-12.8 8.3L74 114.2l19.1 3.7z"/><path fill="#ddedff" d="M96 7h39v41H96z"/><path fill="#312820" d="M51 201l76 14 5-37z"/><path fill="#2a577b" d="M101 56l-9-20-15 13z"/><path fill="#c9eaff" d="M48 66l-27 7 38 10z"/><path fill="#ffc996" d="M142 145h33v3h-33z"/><path fill="#dac5b3" d="M206.9 96.1l-57.4 17.6 24.8-21.5 8.4 17z"/><path fill="#905d23" d="M75 87h13v11H75z"/><path fill="#ffdec0" d="M133.9 69.1l2.6 40.7 1.8 10.9 3.8-35.5z"/><path fill="#ffefc9" d="M171 153l-7-7 2 13z"/><path fill="#ccb6b3" d="M193 145h5v13h-5z"/><circle r="1" fill="#92888a" transform="rotate(81.4 -68.9 126.3) scale(1.50735 70.73544)"/><path fill="#f7c669" d="M119 131h6v15h-6z"/><path fill="#97928e" d="M169.6 136l-13.4-20.1 53.1-11.5-5.4 30.8z"/><path fill="#215981" d="M139.2 48.2l-3.2-19-2.4 36.1 7-8.6z"/><path fill="#b3aea4" d="M107.2 98.1l-14.8-4.7 10.7-16.7-13.2-10.6z"/><path fill="#ccecff" d="M48 102l3-29 12 32z"/><path fill="#0b0d0f" d="M18.7 109.1l11.4 3.5-7.6 17.9-30.5-2.2z"/><path fill="#ba8962" d="M73 137l-16 24-15-8z"/><path fill="#3b4b65" d="M36 101l25 30-2-24z"/><path fill="#d8e9fa" d="M138.2-16L147 98.7l5.7-10.3L225.5 76z"/><path fill="#6a5c5e" d="M-16 207.9l89.9-24-2.1 13.5-23.1 1.8z"/><path fill="#b0b7c7" d="M223 147h12v3h-12z"/><path fill="#372f31" d="M186 182h70v22h-70z"/><path fill="#332205" d="M160 92.7l4 .8-2 9.8-4-.8z"/><path fill="#f0be96" d="M70.8 154.3l21.7 3.5-1.3 7.9-21.7-3.5z"/><path fill="#3a444b" d="M22 76l28 17-27-6z"/><path fill="#342e2a" d="M112.3 146l22.8-2.1-26.2 18.9-6.9-33.5z"/><path fill="#4e2e13" d="M115.7 71.6l-30.5-6.1.7-20-8.1 8.7z"/></g></g></svg>