<svg xmlns="http://www.w3.org/2000/svg" viewBox="0 0 1400 1120"><defs/><filter id="a"><feGaussianBlur stdDeviation="12"/></filter><rect width="100%" height="100%" fill="#444443"/><g filter="url(#a)"><g fill-opacity=".5" transform="translate(2.7 2.7) scale(5.46875)"><circle cx="167" cy="123" r="225" fill="#fff"/><circle cx="95" cy="64" r="230" fill="#fff"/><circle cx="130" cy="89" r="173" fill="#fff"/><circle r="1" fill="#f9fcfa" transform="matrix(-21.2442 75.90468 -245.56347 -68.72832 18.9 123.5)"/><ellipse cx="180" cy="14" fill="#fdffff" rx="220" ry="32"/><path fill="#c9aba8" d="M145 47h30v49h-30z"/><path fill="#d1c2bf" d="M102.5 141.5L98 175.6l29.6-5.8 6.6-53.3z"/><path fill="#d89191" d="M178 101l-1 17-33 16z"/><path fill="#c1aca8" d="M226.8 64.7l-.3 13.9-33.6-6.2 10.9-12.5z"/><path fill="#c5c5c5" d="M10 25h13v76H10z"/><path fill="#c4c3c4" d="M50 67h9v100h-9z"/><path fill="#f56366" d="M167 61h11v11h-11z"/><path fill="#e59b9c" d="M122.7 156.5l-25.5-22.3 35.8 51.1-14.9-23.9z"/><ellipse cx="127" cy="203" fill="#fff" rx="255" ry="12"/><circle r="1" fill="#f2a1a1" transform="matrix(1.14716 -2.0276 31.71485 17.9434 247.2 109.4)"/><path fill="#f5fffd" d="M130 61l71-3V38z"/><path fill="#fff" d="M19.8 101.5l58-1 .4 22-58 1z"/><path fill="#384f4e" d="M145 47h25v2h-25z"/><ellipse cx="251" cy="34" fill="#f5fbf8" rx="33" ry="75"/><path fill="#ca7172" d="M125 115h4v19h-4z"/><path fill="#fff" d="M50 22L39 180 17 76z"/><path fill="#f6353d" d="M147 78h7v7h-7z"/><ellipse cx="166" cy="126" fill="#c98888" rx="15" ry="3"/><path fill="#979e9b" d="M17 25h23v4H17z"/><circle r="1" fill="#d4ebe5" transform="rotate(142.4 54 45.8) scale(12.14275 39.92308)"/><path fill="#2f2f2f" d="M12 37h15v2H12z"/><ellipse cx="197" cy="97" fill="#f5fdf8" rx="25" ry="23"/><ellipse cx="128" fill="#fff" rx="255" ry="12"/><path fill="#f1faf7" d="M126.2 135.3l92.9 59.1-97.4-37.2L32.1 8.8z"/><path fill="#e30000" d="M223 94h5v4h-5z"/><path fill="#ec4248" d="M207.5 72.1l-5.7-12.8 6.8 7.8 1.1 1.3z"/><path fill="#fc161f" d="M162 86h14v2h-14z"/><path fill="#e5f0ed" d="M156 78.6l-33.9 31.6 61.1-15.4-20.1 40.5z"/><circle cx="237" cy="104" r="2" fill="#d90000"/><ellipse cx="15" cy="156" fill="#b9b8b9" rx="5" ry="8"/><path fill="#ea0000" d="M164.1 122.2l-1.7 3.7-4.5-2.1 1.7-3.7z"/><path fill="#e93e44" d="M174 111h6v6h-6z"/><circle cx="159" cy="62" r="3" fill="#f52129"/><path fill="#d72a30" d="M249 108h4v7h-4z"/><circle r="1" fill="#f2faf6" transform="matrix(6.39244 24.50697 -68.22346 17.79553 252.4 138.4)"/><path fill="#f5fdfa" d="M61 43h53v46H61z"/><circle cx="123" cy="167" r="2" fill="#e90000"/><path fill="#9aa8a6" d="M138 91h30v3h-30z"/><path fill="#e40000" d="M102 140h4v4h-4z"/><path fill="#c3c2c3" d="M10 119h12v16H10z"/><path fill="#d7dedb" d="M226 87l1 29 16-42z"/><circle r="1" fill="#fff" transform="matrix(9.6165 6.93433 -13.54597 18.7855 33.6 155.9)"/><path fill="#f20000" d="M155 125h3l-2 3z"/><path fill="#e80000" d="M117 155h4v4h-4z"/><path fill="#cdd3d1" d="M152.8 61.7l-17.9 14.2 63 5.4-14.1-4.4z"/><path fill="#a7aeab" d="M117 107.7v4l-16 .6v-4z"/><path fill="#9eaeac" d="M102 155h10v14h-10z"/><path fill="#6c6b6c" d="M10 86h18v1H10z"/><path fill="#a8b1ae" d="M163 145h13v5h-13z"/><path fill="#c5c5c5" d="M51 89h18v12H51z"/><path fill="#ccc" d="M48 165l18-21-16-30z"/><path fill="#de0000" d="M175 61h3v5h-3z"/><path fill="#879490" d="M223 113h29v2h-29z"/><path fill="#eef6f2" d="M165.3 159.8L150 117l-47 45-8.2-15.7z"/><path fill="#89918d" d="M218 105h16v2h-16z"/><ellipse cx="72" cy="120" fill="#fff" rx="5" ry="68"/><path fill="#daebe7" d="M121.3 11.6L90.8 11l-4.9 59.9L123.6 23z"/><path fill="#feffff" d="M7.4 38.4l34.1-4.5L.9 26.7 9.1 130z"/><path fill="#cbcacb" d="M34.7 100.8l-23-11.6 18.7-2.7L8.1 100z"/><ellipse cx="110" cy="198" fill="#fff" rx="255" ry="7"/><path fill="#819492" d="M137 134h-13l7-4z"/><path fill="#fd232c" d="M157 70l5-6 3 2z"/><path fill="#eb0000" d="M105.6 145.9l-2.8 1.1-.4-.9 2.8-1.1z"/><path fill="#f3f6f3" d="M155.8 55.5L271 57.8l-105.8 4.3 16.6 23.7z"/><path fill="#c4ccc8" d="M229.5 49.5l3.6.3-31.5-5.3-2.8 6.2z"/><path fill="#fff" d="M-22 39l60 1v9l-60-1z"/><ellipse cx="156" cy="53" fill="#a4b3b1" rx="17" ry="2"/><ellipse cx="204" cy="68" fill="#dc595d" rx="2" ry="7"/><path fill="#eff4f2" d="M175 96l33-31-28 54z"/><path fill="#f6faf8" d="M158 85l-36 30 22 2z"/><path fill="#929192" d="M17 59h16v2H17z"/><path fill="#aab2af" d="M206 78h15v3h-15z"/><path fill="#ed0000" d="M167.3 83.3l.6-.8 6.8 4.2-.6.8z"/><path fill="#f6fffd" d="M113.8 168.2l-28.6 6.4 38.9.4-13.5-21.6z"/><path fill="#e3dbd8" d="M174 65h6v23h-6z"/><path fill="#8c8b8c" d="M10 133h26v1H10z"/><path fill="#9b9b9b" d="M52 149h16v2H52z"/><path fill="#e9f5f2" d="M96.4 60.2l33.3 65.9-40.6 5.7 39.5 17.7z"/><ellipse cx="160" cy="2" fill="#fff" rx="255" ry="9"/><path fill="#cbcacb" d="M45.8 64.1l21.8 10.6-22.7 4.5 12.4 19.5z"/><ellipse cx="126" cy="128" fill="#f20000" rx="1" ry="3"/><circle cx="237" cy="103" r="2" fill="#e00000"/><path fill="#f7f9f7" d="M271 107.4l-34.8-5.7-49 10.6 45.1-16.8z"/><path fill="#f70000" d="M206.6 71.4l1-1.8 1.8 1-1 1.8z"/><ellipse cx="7" cy="154" fill="#fff" rx="3" ry="128"/><path fill="#88918e" d="M174 78h14v2h-14z"/><path fill="#ea5d61" d="M167 69h14v2h-14z"/><path fill="#838283" d="M66.5 155.8v1l-19-.6v-1z"/><path fill="#a1a1a1" d="M24.9 151.6L9 149.4l.1-1 15.9 2.2z"/><path fill="#eff4f1" d="M195.1 46.4l-40.6 21.3 58.3-51.9L271 43.9z"/><path fill="#fff" d="M154 59.8l12.9 17.8-.8.6-13-17.8z"/><path fill="#eefdfb" d="M150 90l15-2-14-6z"/><path fill="#e9f0ed" d="M190.7 99.4l-26.4 50.4-1.8-37.9-1.5 32.2z"/><path fill="#eb0912" d="M120 170.8l-.7-1.8 4.7-1.8.7 1.8z"/><path fill="#f1f5f3" d="M241 160l-76-73 53 14z"/></g></g></svg>