<svg xmlns="http://www.w3.org/2000/svg" viewBox="0 0 1400 933"><defs/><filter id="a"><feGaussianBlur stdDeviation="12"/></filter><rect width="100%" height="100%" fill="#362a22"/><g filter="url(#a)"><g fill-opacity=".5" transform="translate(2.7 2.7) scale(5.46875)"><circle r="1" fill="#fff" transform="matrix(220.1094 89.99328 -37.65446 92.09689 91.6 101.5)"/><circle r="1" fill="#fff" transform="matrix(4.12009 48.05878 -254.06805 21.78132 168.3 129.9)"/><path fill="#fff" d="M66.4 32l11.4 81.2L1.6 124-9.8 42.8z"/><circle r="1" fill="#805534" transform="rotate(-24.3 158 -499.9) scale(161.99102 57.82699)"/><circle cx="197" cy="152" r="79" fill="#fff"/><circle r="1" fill="#d9936e" transform="matrix(-72.7472 41.57032 -9.6962 -16.96816 214.7 24.3)"/><circle r="1" fill="#533425" transform="matrix(40.40368 16.32415 -9.9513 24.63033 115 80)"/><circle r="1" fill="#fff" transform="matrix(-2.24395 -34.9586 184.50957 -11.84346 110.7 144.5)"/><circle r="1" transform="matrix(-61.28958 16.76693 -3.4277 -12.52955 243 52.4)"/><circle r="1" fill="#fff" transform="matrix(-6.15166 -26.56537 41.82 -9.68413 29 63.5)"/><ellipse cx="56" cy="17" fill="#6e765d" rx="90" ry="21"/><path d="M135.8.5l48-36.1L210.1-.5l-48 36.1z"/><path fill="#fff" d="M137 25h19v13h-19z"/><path fill="#c9d2c1" d="M129 78h127v18H129z"/><path fill="#f5f8ef" d="M-7 37l50-2 49 70z"/><circle r="1" fill="#ae6f56" transform="matrix(50.20713 52.97303 -12.9913 12.31299 60.4 15)"/><path fill="#5090d0" d="M96.4 25.3L70.2-5l23.4-20.4L119.8 5z"/><ellipse cx="230" cy="81" fill="#cbcdbd" rx="80" ry="10"/><path fill="#372013" d="M108 103l36-30-64 15z"/><circle r="1" fill="#c4937d" transform="matrix(61.93247 -35.0397 4.11565 7.27439 189.2 28.6)"/><circle r="1" fill="#bb8263" transform="matrix(53.8533 15.7478 -3.9409 13.4768 131 44.1)"/><path fill="#4f754b" d="M67.1 34.7L43.4 14.2-16 20 7.1 36.2z"/><path fill="#76482a" d="M199.6 75.7L170.8 72l3.6-29.8 28.8 3.6z"/><circle r="1" fill="#edf0e9" transform="matrix(168.11804 79.19987 -18.55598 39.38889 66.3 146.3)"/><circle r="1" fill="#000708" transform="rotate(159.6 119.4 46.5) scale(39.29378 12.93658)"/><circle r="1" fill="#4d281a" transform="matrix(-8.89041 -10.93965 7.935 -6.4486 81 72.7)"/><path fill="#6bffb1" d="M114.6 26.7l-.7-3.9 31.5-5.5.7 3.9z"/><path fill="#f7deb0" d="M121 9l-14-25V6z"/><path fill="#7cfeb0" d="M50.9 26L8.1 27.6l-17.4 4.2 38.7-.9z"/><path fill="#6f6f65" d="M148 77l6 35-22-7z"/><path fill="#946141" d="M238 0l-39 56 72-37z"/><circle r="1" fill="#fff" transform="matrix(4.55244 4.44254 -4.30044 4.40682 150 30.7)"/><ellipse cx="111" cy="64" fill="#85553e" rx="22" ry="23"/><path fill="#12120f" d="M185.4 20.7l15.2-10.4L238.1-16 125.5 16.1z"/><path fill="#372d22" d="M128 107.6L89.5 90.5l4.5-10 38.3 17z"/><path fill="#adb0a4" d="M31.2 13.2l-31 1.6-1.4-28 31-1.6z"/><path fill="#c6c8c1" d="M124 89.4L178.2 75l-47.6 21.5-7.3-9.1z"/><ellipse cx="219" cy="70" fill="#5e5a4c" rx="57" ry="3"/><path fill="#875846" d="M52 34.9l29.2 18.6-29.5-37.2L20.3-16z"/><path fill="#000002" d="M192.8 64.8l-2.4-5.5 22.8-10.1 2.4 5.5z"/><path fill="#be947f" d="M84 43l47-16 38 19z"/><path fill="#bb9789" d="M94.5 41.4l.4-17.6-60.4-37.4 5.7 14.9z"/><path fill="#39261d" d="M77 12L62-7l14 5z"/><path fill="#f0f3e7" d="M111.7 113.7l159.3 23L254.4 81l-31.1 16.5z"/><ellipse cx="51" cy="98" fill="#d9dbd0" rx="34" ry="18"/><path fill="#564437" d="M162.7 39.4L152.6 9.6l-23.3 5.3-5.9-30.9z"/><path fill="#341c1a" d="M24 20h18v6H24z"/><path fill="#a06d53" d="M88 50l-19 4 2 16z"/><path fill="#6b4531" d="M150.3 92.3L148 59.4 94.3 104l47.5-26z"/><path fill="#232e28" d="M209 60h47v10h-47z"/><path fill="#f2f3ed" d="M-16 119l53.4-83.5 15.7 1L70 67z"/><circle r="1" fill="#ab6f47" transform="matrix(5.10937 8.53714 -25.27312 15.12565 172 57.6)"/><path fill="#494634" d="M110 13l-5 9 26-5z"/><circle cx="138" cy="84" r="6" fill="#d9dfd7"/><ellipse cx="141" cy="28" fill="#fff" rx="7" ry="3"/><path fill="#4076a9" d="M80 14l26-30-5 39z"/><path fill="#9b9d91" d="M159 98l27-7-38-1z"/><path fill="#d9d6bb" d="M152 166h104v4H152z"/><path fill="#64cd87" d="M101 22h43v4h-43z"/><path fill="#7f7c70" d="M137.3 3.7L89.1 16.6l40.6-3.1-24.4-19.4z"/><path fill="#828578" d="M197 60h22v3h-22z"/><path fill="#54382d" d="M80.5 90.7L102.9 46 70.1 71.1l30 33.4z"/><path fill="#a2755b" d="M133 42.9l-29.8 41.3-10.6-15.5 14.4.6z"/><path fill="#aeb3ab" d="M75.6 99.4l30.1-4.8-13.8 6.3-32.6 5.7z"/><path fill="#d1d4c8" d="M151 77h5v40h-5z"/><path fill="#936243" d="M270 21L170 67l85-76z"/><path fill="#b6917b" d="M105.3 22.1l-31 10.4-6.1 32.3 6.3-.6z"/><circle r="1" fill="#0a0d0b" transform="matrix(17.52954 -16.97504 10.63093 10.9782 254.2 48.4)"/><ellipse cx="180" cy="69" rx="3" ry="4"/><path fill="#b78a74" d="M235.3-16l-77.9 61.2 26-.3 15.1-4.6z"/><path fill="#31822d" d="M0 32h49v3H0z"/><path fill="#683e2a" d="M117.8 40.5L107.3 54l-3.1-2.4L114.7 38z"/><path fill="#e1e0d3" d="M115 160h62v10h-62z"/><path fill="#6d442d" d="M161.7 77l-50.6-19.7 8.2 28.2 78.2-21.4z"/><path fill="#6d665e" d="M151 77l-16 24 9 6z"/><path fill="#bc8a6e" d="M114.2 40.1l22.4 27.3 30.3-29.6-27.3-2.7z"/><path fill="#040b09" d="M184.8.4l33-1.7-37.3 23.9-14.6-28.8z"/><path fill="#6e4e37" d="M105 36l22-10-26 3z"/><path fill="#a8b8ac" d="M107 105.6l5.8-5.5 4.2 4.3-5.8 5.5z"/><path fill="#878471" d="M187 70h69v6h-69z"/><circle r="1" fill="#cad1cc" transform="matrix(2.21928 1.0674 -2.55057 5.303 130.1 89.4)"/><path fill="#b6b6a4" d="M167 74h89v5h-89z"/><path fill="#351d13" d="M143.5 11.6L155-1l21.6 19.4L165 31z"/><path fill="#eff0eb" d="M-16 68.3l67.2-34.1 18.1 44-22.6 11z"/><path fill="#7adc9e" d="M8 27h38v4H8z"/><circle r="1" fill="#583624" transform="matrix(-1.35018 -1.26348 16.10877 -17.2142 118 73.8)"/><path fill="#d0d2c9" d="M67.5 74.2l27 32.1-16 13.5-27-32.1z"/><path fill="#452d21" d="M81 82.8l14-5.4 6 15.8-14 5.4z"/><path fill="#bbbbac" d="M222.7 91.2l-23-33.9 18.7 27.2-72.5 17z"/><path fill="#dde2da" d="M142.3 28l.2 1-24.8 3-.2-1z"/><path fill="#2c9d47" d="M118 29l18-4-13-2z"/><circle r="1" fill="#edeeeb" transform="matrix(-56.08128 -28.20595 29.46166 -58.57799 57.3 169)"/><circle r="1" fill="#f6f8f4" transform="matrix(-5.39564 9.08729 -8.32581 -4.9435 58.9 51.5)"/><path fill="#37362e" d="M176.2 64.7l56.8 7.6 13.2-3.5-6.1-9.3z"/><circle r="1" fill="#a06545" transform="matrix(-23.57208 -14.1076 2.60148 -4.34676 138.6 62.3)"/><path fill="#4c382a" d="M89.5 92.3l36.2 8.9.3-19.9-34.5 17.2z"/><path fill="#fcfffc" d="M133 28l15-3 12 12z"/><path fill="#342a2d" d="M0 25h18v2H0z"/><path fill="#a17562" d="M188 68l6 6 1-10z"/><ellipse cx="135" cy="2" fill="#4d4033" rx="9" ry="16"/></g></g></svg>