<svg xmlns="http://www.w3.org/2000/svg" viewBox="0 0 1400 933"><defs/><filter id="a"><feGaussianBlur stdDeviation="12"/></filter><rect width="100%" height="100%" fill="#484d57"/><g filter="url(#a)"><g fill-opacity=".5" transform="translate(2.7 2.7) scale(5.46875)"><circle cx="109" cy="91" r="175" fill="#fff"/><circle r="1" fill="#fffffc" transform="rotate(73.6 -15 180.5) scale(59.93367 255.00002)"/><circle r="1" fill="#644d3e" transform="matrix(32.50785 38.67498 -49.89292 41.93698 80.7 54.5)"/><circle r="1" fill="#fff" transform="matrix(-17.33524 -24.39306 65.35982 -46.4488 225.5 6)"/><circle r="1" fill="#764b2f" transform="matrix(-37.19212 -21.38642 7.66654 -13.33252 191.7 106)"/><path fill="#571700" d="M97 95h31v29H97z"/><path fill="#fff" d="M-16 147l194 38 93-58z"/><path fill="#0b0b08" d="M207.2 61.5l2.8-22.8 30.8 3.8-2.8 22.8z"/><path fill="#fff" d="M116 86l-8-39-19 36z"/><path fill="#fff5e1" d="M0 0h76v22H0z"/><ellipse cx="248" cy="89" fill="#fff" rx="10" ry="169"/><circle r="1" fill="#375976" transform="rotate(-140.8 39.5 32) scale(21.00944 55.60609)"/><path fill="#fff" d="M254.8 102.7L238 119.9l-66.9-64.6L188 38.1z"/><ellipse cx="223" cy="21" fill="#fff" rx="70" ry="17"/><path fill="#814a29" d="M182 79h17v45h-17z"/><ellipse cx="159" cy="58" fill="#82b7dc" rx="25" ry="39"/><circle r="1" fill="#b06f46" transform="matrix(26.54534 -1.60694 1.08353 17.89898 39.2 32)"/><circle r="1" fill="#282b28" transform="matrix(-2.77336 -4.37909 19.1927 -12.15511 177.4 95.1)"/><ellipse cx="86" cy="154" fill="#fafbf6" rx="254" ry="25"/><path fill="#635140" d="M119.2 122l3.6-27.5 10.7 14L47 135.7z"/><ellipse cx="69" cy="95" fill="#784427" rx="34" ry="15"/><circle r="1" fill="#fffffe" transform="matrix(-9.32644 .82425 -2.34093 -26.48763 138.2 98)"/><circle r="1" fill="#fff" transform="matrix(-11.94261 -9.13081 59.80618 -78.22324 18 0)"/><ellipse cx="20" cy="51" fill="#e1dec5" rx="38" ry="7"/><path fill="#d5a082" d="M180.6 75.3l39.3 32.1 34.2 23.7-33 5.6z"/><ellipse cx="19" cy="94" fill="#6393b8" rx="21" ry="33"/><path fill="#e2aa8e" d="M30 10h88v16H30z"/><path fill="#fdffff" d="M136 122l48-24-3 16z"/><path fill="#553b06" d="M164 2h22v8h-22z"/><path fill="#334754" d="M80.9 27.7L33.3 73.3-8.6 63l131.8-11.4z"/><circle r="1" fill="#af6640" transform="rotate(85.3 51.5 79.3) scale(14.20235 15.60898)"/><path fill="#f2f5f1" d="M199 53l71-68-118 30z"/><path fill="#fff" d="M110 62L81 88l31-15z"/><circle r="1" fill="#595858" transform="rotate(43.3 53.2 314.5) scale(14.88204 9.45698)"/><circle r="1" transform="rotate(92.3 33.4 34.6) scale(8.97058 1.74582)"/><circle r="1" fill="#fcfcf2" transform="matrix(91.12782 -20.2902 .9848 4.42294 17.7 132.5)"/><ellipse cx="28" cy="92" fill="#2a3849" rx="29" ry="4"/><path fill="#f7f8f3" d="M271 143.8l-79.4-77.3 43.1-3.2 33.1-39.5z"/><path fill="#b38970" d="M91.8 129.7L123.6 95l11-39.8L108 88.1z"/><path fill="#6a757b" d="M123.1 27.3l-4.2.8 35.7 72.9 12 6.2z"/><path fill="#fffff9" d="M137 66l-13 27 33 13z"/><path fill="#a2c9e8" d="M156-6.6l-45.5 10 38.7 13.1 15.1 10.6z"/><path fill="#7190a0" d="M116.4 31.7L92.2 81 70 62.3l-16.3 7.8z"/><path fill="#8c5d3d" d="M6 29l25 17 60-15z"/><path fill="#1e2022" d="M209 52h27v12h-27z"/><path fill="#dcddd5" d="M135 106l-28 38 113-12z"/><circle r="1" fill="#a56a48" transform="matrix(4.81784 8.14653 -14.81759 8.7631 58.6 101.3)"/><path fill="#e8e9de" d="M60.4 132l45.1-14.5-12.2-10.3-48.7 6z"/><path fill="#fdffff" d="M205.7 56.8l1.3-12.5-21.6 17.5 42.2 16.8z"/><path fill="#89a7b7" d="M32 91l17 24-65 23z"/><path fill="#d6d6c8" d="M7.1 80.6l8.4-32.5-22-54.3-7.3 81.5z"/><path fill="#1d4764" d="M80 11l12-27 24 16z"/><path fill="#21394c" d="M77.6 34.3l-24 49.5L84.7 91l-31-34.7z"/><path fill="#3e3824" d="M114 69l-7-23 12-14z"/><path fill="#7092bc" d="M29.2 91.3l29.4-21.4L23.4 71-16 95.8z"/><path fill="#b18770" d="M208.4 117.8l36.7 4.5-1.5 12-36.7-4.6z"/><path fill="#d1ccbc" d="M96.6 131.2L114.1 79l8.9-37.4-12.2 35.2z"/><path fill="#accfe3" d="M196.7 76l-22.8 14.9L145.3-16l30 51.7z"/><path fill="#717062" d="M22.2 141l-.3-1 36-9 .2 1z"/><ellipse cx="62" cy="28" fill="#ad6d48" rx="50" ry="5"/><path fill="#dbaf96" d="M64.9 19.6l18.8 4.5L130.6 6l-14.1-2.9z"/><path fill="#a5a1a1" d="M216 40h26v8h-26z"/><circle cx="94" cy="101" r="5" fill="#1a120f"/><path fill="#a4704d" d="M200 99l9 26-30-5z"/><circle r="1" fill="#f6f7f6" transform="matrix(-10.3114 22.214 -46.82019 -21.7332 211.3 155.3)"/><circle r="1" fill="#b48164" transform="rotate(-18 335.2 -186.3) scale(30.90658 4.4346)"/><path fill="#fffff9" d="M96.5 78.3l4.5-20.9 8.9-2.7-10.4 29.9z"/><path fill="#7c4d37" d="M91.7 124.8l29.5-25.6 12 5.4-38.6 22.1z"/><path fill="#77a2c7" d="M142.3 56.4l-15-20 14.4-10.8 15 20z"/><path fill="#294c57" d="M92 77L76 90l1-16z"/><path fill="#4b3f35" d="M125.8 111.8l-5.1 1.5 5.8 7.4-41.5 4z"/><path fill="#8e6754" d="M117.4 117.6L105 114l17.7-61.6L135 56z"/><path fill="#afb1a2" d="M6 44h55v5H6z"/><path fill="#3b1e14" d="M189 80l-9 12 19-13z"/><path fill="#2e3c45" d="M58.7 57.9L-16.2 71l-.5-3 74.9-13z"/><path fill="#3e2c22" d="M90.3 104.9L44 113.1l-.3-2 46.3-8.2z"/><path fill="#a6b5b2" d="M120 44l-5 8 33 9z"/><path fill="#3d3f42" d="M207 49h34v11h-34z"/><path fill="#cbc7ba" d="M49.6-16l50.6 5.2L81.6 4.5l-1.4 3.3z"/><path fill="#edece8" d="M194.9 70.5l26 52.6 5.4 1.4L271 57.8z"/><path fill="#273848" d="M20 96l28-1 11-19z"/><ellipse cx="63" cy="69" fill="#526d8a" rx="35" ry="11"/><circle r="1" fill="#f0f1ec" transform="matrix(-10.90528 22.74396 -69.03878 -33.10274 255 21.3)"/><path fill="#d2a286" d="M235 121l-42-37 25 43z"/><path fill="#3c2f22" d="M213 125l-17-3 13-3z"/><path fill="#b2aba6" d="M45.4 16.6L45-10.6l26.3 24.2-24.2 11.5z"/><path fill="#dcddd7" d="M153 116l27 30-92-19z"/><path fill="#9f6d52" d="M149.8 15.5l-23.5 23.2-20.6-4.5 2.2-19.9z"/><path fill="#6a502b" d="M189.8-1.8l3.8.2L158.9 9l26.8-1.8z"/><path fill="#dcddd8" d="M120.7 91.6l40.7 15.4 24.2-3-24.8 39.5z"/><path fill="#1d1e1c" d="M66 40l16-6-29 27z"/><path fill="#d5d1c5" d="M-16 73l49-19-49 3z"/><path fill="#385469" d="M102.7 29.2l-.1 4.4-22.7 25-1.6-23.1z"/><path fill="#2b231e" d="M182 86l-7 4 13 10z"/><path fill="#5e4a3b" d="M217 129h12v3h-12z"/><path fill="#2e3127" d="M102.1-10.3l-14.2 4-2.5 15.5-11.2 2.3z"/><path fill="#add0e4" d="M37.6 116l-21.2 11.3 4-6.2 17.7-10.2z"/><path fill="#755b49" d="M49.1 43l-31.7.4-.8.6-6.4-14.3z"/><path fill="#f9fcfa" d="M39.4 7.8L8.6 22l-14-29.9L25.4-22z"/><path fill="#ba8362" d="M188.1 88.8l3 33.8 21.8-.9-9.3-21.6z"/></g></g></svg>