<svg xmlns="http://www.w3.org/2000/svg" viewBox="0 0 933 1400"><defs/><filter id="a"><feGaussianBlur stdDeviation="12"/></filter><rect width="100%" height="100%" fill="#552829"/><g filter="url(#a)"><g fill-opacity=".5" transform="translate(2.7 2.7) scale(5.46875)"><circle cx="11" cy="8" r="177" fill="#98b091"/><ellipse cx="152" cy="39" fill="#fff" rx="8" ry="82"/><circle r="1" fill="#191113" transform="matrix(-84.86713 27.03805 -8.71129 -27.34303 47.6 92.5)"/><circle r="1" fill="#001712" transform="rotate(67.4 -140.2 178.9) scale(55.70644 169.00001)"/><circle r="1" fill="#abb185" transform="matrix(-3.1102 37.71694 -95.4083 -7.86751 25.1 11.2)"/><circle r="1" fill="#ad945a" transform="matrix(-20.70594 -3.20545 5.80887 -37.523 75 169.4)"/><path fill="#ffffed" d="M119 117l-39 21 23-42z"/><path fill="#fff" d="M148 28l37-24-36 68z"/><circle cx="23" cy="167" r="12" fill="#fff4ff"/><circle r="1" fill="#000e0d" transform="matrix(4.32984 -22.2751 25.49555 4.95583 122.8 161)"/><path fill="#e7f1ec" d="M144 107.1l41-2.6-27.6 17.6.9-102.6z"/><circle r="1" fill="#322f1f" transform="matrix(-25.43004 -3.08663 4.20968 -34.6826 44.8 118)"/><circle r="1" fill="#251415" transform="matrix(4.96836 66.07714 -6.73489 .5064 123 114)"/><path d="M163.2 41l16 1.1-4.4 62.9-16-1.1z"/><circle cx="19" cy="221" r="37" fill="#050d16"/><path fill="#bcc1ae" d="M32 5L5 88-7 61z"/><circle r="1" fill="#ea8355" transform="matrix(19.78126 -.9429 .7692 16.1373 83.3 139.2)"/><path fill="#5e5c4d" d="M148.6 31.5L185-7.4l-53.3 33-25.5-2.3z"/><path fill="#193447" d="M32 48h27v40H32z"/><path fill="#d2ba9f" d="M19 158h35v24H19z"/><circle r="1" fill="#7a604c" transform="matrix(-6.89746 18.4481 -34.49326 -12.8965 158.4 131.7)"/><ellipse cx="102" cy="59" fill="#def196" rx="2" ry="42"/><path fill="#436337" d="M67 164h35v55H67z"/><path fill="#900f25" d="M23.7 96.6L25.1 53 23 46.8 8.4 55.5z"/><path fill="#090b12" d="M107 183h63v66h-63z"/><path fill="#260a18" d="M93 112.4l-16.9-.9 2.8-54 17 1z"/><path fill="#a97d69" d="M32.4 173.6l33-6L79.6 193l-16.7-3.5z"/><path fill="#24221f" d="M110 93h35v14h-35z"/><path fill="#656552" d="M145 121L107 14l39-20z"/><circle r="1" fill="#464524" transform="matrix(14.62183 20.6357 -4.41454 3.128 58.2 154.4)"/><circle r="1" fill="#f5d2ba" transform="matrix(2.9918 -.52846 4.31462 24.42643 99 118.9)"/><path fill="#fff" d="M119 115l-15-16 10 28z"/><path fill="#8b92ba" d="M37.2 176.6l-47.9-22.8 21.1 5-22.1 19.6z"/><path fill="#264800" d="M81-10.3l3.8-1.4 16.1 42-3.7 1.4z"/><path fill="#cceed7" d="M133 87.5l-4.2-6.8 10.3-6.2 4.1 6.8z"/><circle r="1" fill="#437828" transform="matrix(-1.97112 1.88024 -12.94194 -13.56745 43 169.4)"/><path fill="#736248" d="M75.1 100l-44.6 21.1-2.2 34.9-35.2 15.7z"/><path fill="#ffffc0" d="M109.5 5l-7.4 14 3.1-23.1 4.7-11.9z"/><path fill="#030012" d="M27 142l10-50-14-11z"/><path fill="#45501d" d="M-3.3 36.9L-9.5 1.4 3.3-.9l6.2 35.5z"/><circle r="1" fill="#555c58" transform="matrix(15.96157 -6.33068 20.11816 50.72399 1.4 108)"/><path fill="#8b7549" d="M89.1 22.3L61.6 56.1l8 58.5L78 54.5z"/><path fill="#fefdfb" d="M147.7 51.4V28.9l21.9-6.9-1 16.4z"/><path fill="#dbe1de" d="M6 49h6v27H6z"/><circle r="1" fill="#bfbb80" transform="matrix(13.26573 -.3702 1.17983 42.27761 19 1.2)"/><ellipse cx="67" cy="252" fill="#0a0a14" rx="22" ry="45"/><path fill="#515430" d="M112 122l-10-11 5 33z"/><path fill="#6a552b" d="M61 115l-16 47V58z"/><path fill="#c3cd7b" d="M10 29.8l41 88-1 .4-41-88z"/><path fill="#fff" d="M36.8 158.8l1.3-1.5 9 7.9-1.2 1.5z"/><path fill="#272527" d="M60 97l1 24 25 19z"/><path fill="#020003" d="M42 157l-12-6 3-8z"/><ellipse cx="160" cy="13" fill="#524d51" rx="1" ry="65"/><path fill="#5a854f" d="M53.8 196.5l-30.6-11.4 34.5 7.6 33.2 21.6z"/><path fill="#271d19" d="M45.7 58.1l8.9 33.7 14.1-4.7L55.1 48z"/><path fill="#c8937b" d="M59.6 142.9l21.5-33.8-12.7 36.7 13.4 36.7z"/><path fill="#151e16" d="M30.4 183.6l12.8 7.9 24 4-17.5-13.3z"/><path fill="#fff" d="M16.8 161.1l1.2-2.7 19.2 8.5-1.2 2.7z"/><path fill="#f67b74" d="M130.8 119l8.8-4.6 5.6 10.6-8.8 4.6z"/><ellipse cx="123" cy="171" fill="#1f1e1d" rx="24" ry="32"/><path fill="#2b040b" d="M148 131h15v13h-15z"/><path fill="#4d2f18" d="M108 46h13v59h-13z"/><path fill="#3a2129" d="M139.8 81.3l37.7-17.5-10.9 29-2.5-18.8z"/><path fill="#163d66" d="M30.6 47.5l16.5 62.7 1.5-4-9.7-66z"/><path fill="#727950" d="M12.1 19.4l5 .3-3.2 47-5-.4z"/><path fill="#918881" d="M28 3l42-19-26 83z"/><path fill="#a0a299" d="M159 0h11v17h-11z"/><path fill="#835844" d="M91 91l17 3-18 14z"/><path fill="#4b3e40" d="M115.7 106.7l42 51-44.2-24.1 4.4-17.5z"/><path fill="#dcc0c2" d="M19 45l-1-13 22 11z"/><path fill="#e2e4cd" d="M76 160h20v3H76z"/><path fill="#ffff7c" d="M82 41.3l-3 13.6-1-.2 3-13.6z"/><circle cx="168" cy="108" r="5" fill="#f6deb0"/><path fill="#ead2bd" d="M99.3 96.3l5.6 40.8-24.2-9.3 12.7-2.3z"/><path fill="#a40b2d" d="M20 42h3v62h-3z"/><path fill="#fff" d="M147 37h11v34h-11z"/><path fill="#de5480" d="M49 171l24 11-11-16z"/><path fill="#6c6758" d="M106.9 8.4l39.6 88.1-.2-64.4 16.5-15.4z"/><path fill="#a25e49" d="M86.4 125.2l7.3-2.1-24.6-21.3 23.8 87.6z"/><ellipse cx="7" cy="211" fill="#1e181b" rx="48" ry="28"/><path fill="#c99860" d="M13.2 184.8l67.4-5.8-53.7-1.2-22.1 5.4z"/><path fill="#d09ea2" d="M186 146.4l-42 2.2v-1l42-2.2z"/><path fill="#dfdcdd" d="M3.7 73.7l1.6-15.3.4-4.2 8.2 19.5z"/><circle r="1" fill="#3f151f" transform="matrix(3.66143 33.13099 -2.2007 .2432 18 87.5)"/><path fill="#7c6b59" d="M18.9 115.7l27.2 34.2-4.5-33-57.6 45.8z"/><path fill="#616c3e" d="M98.9 54.6l7.2 82.7h-1L98 54.8z"/><path fill="#223421" d="M122.8 186.8l-45-6.4 15.5 23.3-5.6 66.2z"/><path fill="#88a964" d="M78 180H50l31 16z"/><path fill="#a06b46" d="M157.2 122.7l12.5 5.6-34.8 1-2-6.3z"/><circle r="1" fill="#446725" transform="rotate(-50 203.4 37.3) scale(2.08676 17.15407)"/><path fill="#4c7354" d="M105.7 101.5l-1.5-6.8 49.4-3.3-38.8-7.4z"/><path fill="#3e3229" d="M30 146l15 12 28-38z"/><path fill="#8fb379" d="M30.5 185.3l.4-.9 36.6 16.3-.4.9z"/><path fill="#2e431a" d="M74.8 192.5l-13.2-43.7 17.9 44.7-5-9.2z"/><path fill="#f8ffff" d="M85.5 22.2L97.2 33l-.7.7L84.8 23z"/><path fill="#fffffd" d="M16.1 53.2L21 28.6l1 .2-5 24.6z"/><path fill="#1a1a22" d="M29.8 136.5l-7.3 8.5 7.9-70.8 7.8 24.9z"/><circle r="1" fill="#1f1a1a" transform="matrix(13.14273 -21.48003 28.47076 17.42006 130.6 170.2)"/><path fill="#ffffb1" d="M103 0h2v24h-2z"/><ellipse cx="23" cy="161" fill="#fafeff" rx="9" ry="3"/></g></g></svg>