<svg xmlns="http://www.w3.org/2000/svg" viewBox="0 0 1120 1400"><defs/><filter id="a"><feGaussianBlur stdDeviation="12"/></filter><rect width="100%" height="100%" fill="#362d46"/><g filter="url(#a)"><g fill-opacity=".5" transform="translate(2.7 2.7) scale(5.46875)"><ellipse cx="102" cy="121" fill="#fff" rx="95" ry="255"/><circle r="1" fill="#fff" transform="matrix(2.16115 202.9885 -88.51097 .94235 102.8 121.2)"/><path d="M107.5 8.2l-2 57-41-1.4 2-57z"/><circle r="1" fill="#fff" transform="rotate(-177.1 24 92.7) scale(26.30476 179.9756)"/><ellipse cx="171" cy="158" fill="#fff" rx="16" ry="255"/><ellipse cx="147" cy="89" fill="#fffffe" rx="41" ry="255"/><path fill="#714325" d="M187 82h17v174h-17z"/><path fill="#9f975d" d="M123 130h55v32h-55z"/><ellipse cx="2" cy="140" fill="#7b4d2f" rx="15" ry="254"/><ellipse cx="87" cy="134" fill="#aa3a08" rx="10" ry="25"/><path fill="#fff" d="M17 58l1-74L75-3z"/><ellipse cx="197" cy="105" fill="#715043" rx="11" ry="255"/><ellipse cx="77" cy="249" fill="#fff" rx="61" ry="28"/><path d="M10 68h38v5H10z"/><path fill="#3c2e4f" d="M64 5h44v56H64z"/><path fill="#fffffc" d="M188 142l-59-81H46z"/><path fill="#714541" d="M17.5 87.6L-16 180.3l49.5-2-16.9-16.4z"/><ellipse cx="168" cy="238" fill="#fff" rx="19" ry="74"/><path fill="#fff" d="M17 0h49v39H17z"/><ellipse cx="48" cy="160" fill="#fff" rx="19" ry="88"/><circle cx="147" cy="11" r="40" fill="#fff"/><path fill="#97998b" d="M69 74h34v21H69z"/><ellipse cx="197" cy="84" fill="#6b504b" rx="11" ry="251"/><ellipse cx="11" cy="124" fill="#664e48" rx="6" ry="255"/><path fill="#9b9f96" d="M19 69l29-48-12 53z"/><ellipse cx="84" cy="2" fill="#fff" rx="67" ry="4"/><circle r="1" fill="#fcfef3" transform="matrix(-6.03568 -29.08303 18.2831 -3.79434 113.2 127.9)"/><ellipse cx="61" cy="38" fill="#fff" rx="5" ry="255"/><path fill="#5f5c57" d="M117 175h48v3h-48z"/><path fill="#fff" d="M18 181h17v74H18z"/><path fill="#3e7a2b" d="M156 156h23v6h-23z"/><path fill="#a8885d" d="M68.6 138.6l16.3-34.2 20.7 60.2L71.4 111z"/><path fill="#fafbf8" d="M107 181h80v75h-80z"/><path fill="#cccebc" d="M66 156h39v76H66z"/><ellipse cx="6" cy="87" fill="#705650" rx="11" ry="245"/><path fill="#f4e9d4" d="M158.9 165.3L137.8 109l-1.6 34.6 7.1 21.1z"/><path fill="#562b05" d="M133.2 129.6l2.4 15.4-.9 18.1-2.3-12.2z"/><ellipse cx="129" cy="35" fill="#5a5653" rx="12" ry="2"/><path fill="#fff" d="M43 63h65v6H43z"/><path fill="#fe191d" d="M20.5 175.1l-5.4-1.3 5.2-5.7 10.6 1.2z"/><path fill="#f1050d" d="M82.6 140.3l6.7 2-3.9 13.4-6.7-2z"/><path fill="#fff" d="M17 225l2 46 160-26z"/><circle r="1" fill="#f3f5ef" transform="rotate(93.3 -41.3 66) scale(55.7566 4.24442)"/><path fill="#2a2a27" d="M45.3 74.3l2.4-4.7-17.8 4.2 5.9-13.3z"/><ellipse cx="163" cy="22" fill="#fefffd" rx="24" ry="106"/><path fill="#3f512f" d="M152.1 147.1l6.1 2.5.3 14.1.9-23.4z"/><path fill="#4e4443" d="M5 86h35v3H5z"/><path fill="#39323a" d="M65 39h42v23H65z"/><path fill="#8f3e1e" d="M94.2 137.2l4-.3 1.6 17.9-4 .3z"/><path fill="#d1c1c0" d="M76.6 40l-.7-14.6-2.8 5.5-3.7 5z"/><path fill="#fff" d="M179.7 115.2l-18.2 26 25.5-.8-2.5 130.6z"/><path fill="#fef9f0" d="M74 71l-10 3 19-23z"/><path fill="#eee9ce" d="M95.9 18.5l14.7-16.3 1.5 1.3-14.7 16.3z"/><ellipse cx="198" cy="78" fill="#6a4f4a" rx="11" ry="255"/><path fill="#fff" d="M17 142h40v26H17z"/><circle r="1" fill="#e4e5e3" transform="rotate(98.1 42.7 98.2) scale(22.25546 30.25586)"/><circle r="1" fill="#ffffde" transform="matrix(-1.99343 -.04872 .1034 -4.23125 102 35.6)"/><path fill="#0d053c" d="M107.5 7.2v1l-41-1.4v-1z"/><path fill="#e3d4a2" d="M70.5 121.2l-2-18.9 15-1.5 2 18.9z"/><circle r="1" fill="#ffff94" transform="matrix(1.70234 -1.4083 2.66249 3.2184 90.5 28.5)"/><path fill="#6d8c34" d="M168 143h11v9h-11z"/><path fill="#fff" d="M179.2 97.3L79.8 85.6l32-5.5-7.6 58.9z"/><path fill="#fcfffb" d="M43.6-2.5l3.3 72 20.4 31.7-2.8-78.5z"/><path fill="#3a3836" d="M71 92h29v2H71z"/><path fill="#898884" d="M115 191h42v2h-42z"/><path fill="#e1e3e1" d="M124 197h53v29h-53z"/><path fill="#f4f4d5" d="M77 157l2-35-8 14z"/><circle r="1" transform="matrix(7.84163 1.86814 -.23175 .97278 43.4 71.2)"/><path fill="#52514e" d="M69 80h29v3H69z"/><path fill="#fff" d="M141.7 4.9L22.9-16l-6.1 62.3L57.7 5.9z"/><path fill="#f2f5ef" d="M113.6 164.2l-2.2 66.4-13.3-91.2-5.2-16.4z"/><path fill="#fe2c32" d="M23.2 168.6l5.9-1 1.7 9.8-5.9 1z"/><circle r="1" fill="#dddfdb" transform="matrix(11.15259 6.21328 -10.22555 18.35445 40.6 209)"/><path fill="#bba889" d="M144.8 142.5l3.9-18.1-34.3 8.7 53.2-2.9z"/><ellipse cx="143" cy="48" fill="#564d4f" rx="12" ry="1"/><path fill="#fff" d="M19 73h37v11H19z"/><path fill="#8a8065" d="M100.6 118l-28-10.8 24.4 6.2-35.9 16z"/><circle cx="65" cy="23" r="3" fill="#fffffc"/><path fill="#56413c" d="M5 8h16v3H5z"/><path fill="#191326" d="M66 37h9v22h-9z"/><ellipse cx="113" cy="76" fill="#e7e9e5" rx="48" ry="5"/><ellipse cx="89" cy="111" fill="#09120d" rx="2" ry="4"/><path fill="#243124" d="M155 155l5 6-1-9z"/><path fill="#e5e6e3" d="M17 103h38v41H17z"/><circle r="1" fill="#fff6c5" transform="matrix(-2.36236 3.06759 -.79229 -.61015 101 54.5)"/><circle r="1" fill="#fff" transform="matrix(5.88501 18.8946 -18.68913 5.82102 127.4 15.3)"/><path fill="#755c4c" d="M146 137l3-6 14-1z"/><path fill="#fffffe" d="M108.5 164.9l.3 6.3 56.2 3.9 13.1-14.4z"/><path d="M81 123h1v10h-1z"/><path fill="#e3e8e0" d="M22 69l23-45-27 23z"/><path fill="#edefec" d="M132.4 87.2l-15.6-54.5-4.8 50.1-67.4 12.6z"/><circle r="1" fill="#918b51" transform="rotate(-22.6 164.3 -167.2) scale(2.60672 10.42475)"/><circle r="1" fill="#fff" transform="matrix(7.13113 25.54664 -31.6753 8.8419 155.1 255)"/><ellipse cx="110" cy="61" fill="#fff" rx="3" ry="173"/><path fill="#b0b1ac" d="M27.5 73.9l19.8-16.7 8 .8-33.2 1.4z"/><circle r="1" fill="#450714" transform="rotate(-30.6 282 -100.8) scale(1.29851 5.42832)"/><path fill="#e0a97d" d="M97.3 155l-9 .9-1.6-19 9-.8z"/><circle r="1" fill="#908f8c" transform="matrix(11.93727 .25005 -.02094 .99978 83.5 234.2)"/><circle r="1" fill="#d3c890" transform="rotate(-40.2 95 -92.8) scale(4.80081 1)"/><path fill="#4b270a" d="M133 142h3v18h-3z"/></g></g></svg>