<svg xmlns="http://www.w3.org/2000/svg" viewBox="0 0 1120 1400"><defs/><filter id="a"><feGaussianBlur stdDeviation="12"/></filter><rect width="100%" height="100%" fill="#4a3924"/><g filter="url(#a)"><g fill-opacity=".5" transform="translate(2.7 2.7) scale(5.46875)"><ellipse cx="102" cy="74" fill="#fff" rx="107" ry="251"/><circle r="1" fill="#fff" transform="matrix(74.9801 28.37837 -22.376 59.1209 101.5 39.5)"/><path fill="#230a00" d="M106 211.1l-130 23-10-57.2 130-23z"/><circle r="1" transform="matrix(9.4964 13.75393 -63.03912 43.52533 183.4 93.4)"/><ellipse cx="170" cy="248" fill="#cdccb4" rx="195" ry="16"/><circle r="1" fill="#00331e" transform="rotate(-170.9 108.2 75) scale(18.17495 61.82404)"/><circle r="1" fill="#c8e5eb" transform="matrix(47.3429 6.6958 -5.7309 40.5205 10.4 134)"/><circle r="1" fill="#443f0a" transform="matrix(40.42459 37.62613 -7.06346 7.5888 53.7 96.6)"/><circle r="1" fill="#dfeeec" transform="matrix(3.68295 -46.26925 140.9674 11.22076 101.7 24.6)"/><circle r="1" fill="#77481c" transform="matrix(91.6088 -69.10929 10.82824 14.35353 39.7 201)"/><path fill="#e5c4ae" d="M84 160h86v18H84z"/><circle r="1" fill="#14272b" transform="matrix(-5.22429 -19.0163 54.6677 -15.01868 12.5 192.8)"/><circle r="1" fill="#ece6df" transform="matrix(22.82868 -4.22818 9.72832 52.52483 105.8 86.1)"/><circle r="1" fill="#9fad9f" transform="matrix(-14.8101 21.99543 -88.57272 -59.63834 169.8 9.5)"/><path fill="#072903" d="M219 50l-21 50-87 27z"/><circle r="1" fill="#867b4d" transform="matrix(3.05357 13.71515 -81.35334 18.1127 42.6 227)"/><circle r="1" fill="#adb9a4" transform="rotate(-72.3 203.2 -6.6) scale(95.90573 17.12305)"/><path fill="#002009" d="M218.3 175.4L178.5 203l-4-9.1 44.5-35.3z"/><path fill="#f4f4f5" d="M87-15l106 72L7 40z"/><path fill="#c8652f" d="M113.7 197.1L66 172.4l65.1 1.7-29.5 17.1z"/><path fill="#d3d7cb" d="M-4 168l41-47-49-106z"/><path fill="#5785b0" d="M1.6 160.7l62.2-3.3-20 13.1-59.8 16.1z"/><path fill="#d8683a" d="M127 154l-60-2 64-26z"/><ellipse cx="203" cy="136" rx="11" ry="13"/><path fill="#7e9887" d="M168 147h36v30h-36z"/><path fill="#ffebdc" d="M104.7 138.5L65 152.2l-1.7-4.7 39.7-13.7z"/><ellipse cx="141" cy="191" fill="#d0c9bd" rx="30" ry="14"/><path fill="#382303" d="M13 185h92v12H13z"/><circle r="1" fill="#576847" transform="matrix(-38.53988 42.20656 -4.17353 -3.81095 158.7 116.4)"/><circle r="1" fill="#a5afa2" transform="rotate(52.8 -159.7 317.8) scale(14.21634 44.76433)"/><path fill="#001501" d="M221.6 72.4L186.8 111l-10.4-9.4L211.2 63z"/><circle r="1" fill="#acb09b" transform="matrix(-2.87414 -4.51654 33.28401 -21.18058 166.1 219)"/><path fill="#524a26" d="M17.5 49.1L29.9 74l15.9 9.9-8-16.5z"/><path fill="#a4bbb7" d="M70.2-3.1L16.8 30.3-.2 3l53.4-33.4z"/><path fill="#b5b19e" d="M138 84l45-18-73 67z"/><path fill="#a4ac96" d="M63.2 117.6l-9.5 8.9-43-46.1 9.6-8.9z"/><path fill="#7a5f2a" d="M103 225l-53-34 58-1z"/><path fill="#8aa193" d="M192 153v-46l-65 42z"/><circle r="1" fill="#b0ad9b" transform="matrix(-40.1164 18.11325 -3.8 -8.41605 48.7 242.1)"/><path fill="#685a33" d="M62 91l41 42-40-6z"/><path fill="#291d00" d="M136.3 136.6l-9.6-12.7 26.9-28 35-25.6z"/><path fill="#366d4f" d="M210 62l-28 6-7 29z"/><path fill="#e1e2de" d="M92 120l83-70L26 31z"/><path fill="#d1783f" d="M61 161l14 1 1-17z"/><path fill="#00250f" d="M190.2 216.7l-3.5 18.4-8.5 6.4 27.7-15.7z"/><path fill="#ffcebf" d="M94 165h22v10H94z"/><circle r="1" fill="#455360" transform="matrix(2.73602 7.24416 -33.1954 12.53743 25.1 179.2)"/><path fill="#bbc7bf" d="M-6.3 70.5l.1-28.8 45.6-3.2L16 63.1z"/><path fill="#161411" d="M81.9 160.1l-92.8 44.1 29.9-.7L81.7 163z"/><path fill="#aac1cc" d="M59 132l-70 37 84-19z"/><path fill="#a4a897" d="M190 210l-11 58-32-104z"/><ellipse cx="96" cy="177" fill="#c97748" rx="29" ry="6"/><path fill="#856c43" d="M96 132l-27 14 12-38z"/><path fill="#8cb0a2" d="M212.8 79.1l-33 50.1 9.3-7.7 29.9-19.1z"/><path fill="#ffcfc0" d="M117 125h12v5h-12z"/><path fill="#474428" d="M90 116L59 86l-11 9z"/><path fill="#614e27" d="M36 235l24-47-76 31z"/><path fill="#00210e" d="M192 176l-19 22 46-23z"/><path fill="#c6c4b9" d="M47.9 86.4l31.8 3.1L-16 4l63.7 75.2z"/><path fill="#9c9576" d="M112.8 250l-27-31.6 86.9-13.1-31.9 2z"/><path fill="#042610" d="M196 117h8v31h-8z"/><path fill="#8d9885" d="M195.4 175.7L177 189.5l-8.4-11.2 18.4-13.8z"/><circle r="1" fill="#86795a" transform="rotate(153.1 -12.7 119.4) scale(59.55665 8.40381)"/><path fill="#fabdb1" d="M123 174l-35-4 36-14z"/><path fill="#590500" d="M71 171l-5-6 24 1z"/><path fill="#864524" d="M80.7 150l-6.7-7.3 2.4 18.7 41.1-5.6z"/><path fill="#cecac0" d="M68.9 94.3l-4-5.5 73.3 8.1-44.1 26.8z"/><path fill="#b8bbb3" d="M216 61.6l-60.7 13.6-10.5-9.4 70.6-7.7z"/><path fill="#386f5e" d="M183.2 166.7l28.1-12-10.9 43.4 18.6-12.7z"/><path fill="#00250f" d="M202.7 96.4l-1.1-23-14.3 11.8-9.3 29.5z"/><path fill="#c1b1a0" d="M89.9 116.3l43.2-2.3-16.6 16.5-18.4.3z"/><ellipse cx="196" cy="196" fill="#265a44" rx="25" ry="4"/><circle r="1" fill="#bfb6a6" transform="matrix(33.29603 15.55041 -9.05072 19.3791 155.8 246.2)"/><circle r="1" fill="#97a99d" transform="matrix(10.53368 6.49525 -11.86376 19.24008 181.9 129.6)"/><circle r="1" fill="#032815" transform="matrix(-8.2241 -5.23098 14.59395 -22.9445 203.3 210.6)"/><path fill="#183713" d="M210 63l-33 19 8-14z"/><path fill="#ca7954" d="M128.7 135.2l8.7 8-15.2-15.4-43.9 26z"/><path fill="#838d79" d="M171.6 109.5L112 161.3l58.1-27.2 13.4-43.5z"/><path fill="#bd7459" d="M118.3 185.5l-1.8-22L98.9 148l30.1 26.9z"/><path fill="#769a98" d="M80.4 166.3l-.7-3 42-9.6.6 3z"/><path fill="#99967e" d="M143.2 102.4l13.7-11.3L182 75.7l-36.3 13.1z"/><path fill="#4e4525" d="M173.1 104.9l1.3 11 2.8-32.6-56 64.7z"/><path fill="#9b9a87" d="M186.1 220.6l9.2-18.7-26.7-2.7 8.1 46.8z"/><path fill="#879080" d="M208.5 162l-41.9-3 .9-13 41.9 3z"/><circle r="1" fill="#cdc9bc" transform="rotate(-139 35 54.8) scale(54.40059 11.64954)"/><path fill="#606d57" d="M195 237.7l-3.3 7.9 27.3-.2v-9.1z"/><path fill="#2a1e10" d="M53 183h38v7H53z"/><path fill="#fdd8ce" d="M112.8 135.2l7.7-12.3L93 141.4l8.4-2.1z"/><path fill="#8e9f89" d="M61.3 108.2l7.1 9.2L84.1 141l-23.3 4.6z"/><path fill="#999580" d="M-6.5 256.1l84.2-42.4 8.3-2-65.8 48.9z"/><path fill="#709a94" d="M176.1 90l18.6-13.6L196 78l-18.6 13.6z"/><ellipse cx="41" cy="106" fill="#798d78" rx="11" ry="3"/><path fill="#364652" d="M47 164h20v21H47z"/><path fill="#1a1a0d" d="M133.4 115.5l31.2-16.8 12.7-2.2-5.1-16.7z"/><path fill="#4e411c" d="M28.8 61l18 18.6-3.6 3.5-18-18.7z"/><ellipse cx="16" cy="153" fill="#a0baca" rx="46" ry="8"/><path fill="#b8baaf" d="M133.9 150.7l49 17.2-24.8 2.2-41.8 41.2z"/><circle cx="87" cy="34" r="40" fill="#e9eceb"/><path fill="#452d0e" d="M-16 205.4l44.8 11 6.8-11.6 17.6-13.4z"/><path fill="#b3bbb1" d="M29.1 85.4l13.2 12.3-12.2 19.9L2.5 78.7z"/></g></g></svg>