<svg xmlns="http://www.w3.org/2000/svg" viewBox="0 0 1119 1400"><defs/><filter id="a"><feGaussianBlur stdDeviation="12"/></filter><rect width="100%" height="100%" fill="#346541"/><g filter="url(#a)"><g fill-opacity=".5" transform="translate(2.7 2.7) scale(5.46875)"><circle cx="92" cy="122" r="182" fill="#fff"/><circle cx="111" cy="149" r="192" fill="#fff"/><path fill="#752e08" d="M22 95h63v25H22z"/><circle r="1" fill="#fff" transform="matrix(-.06832 79.13705 -202.99992 -.17524 98 197.3)"/><circle r="1" fill="#fff" transform="matrix(21.70197 71.75617 -98.49398 29.78856 32 10.8)"/><circle r="1" fill="#005200" transform="rotate(-178.5 77.3 45) scale(22.72395 7.88814)"/><circle r="1" fill="#fffcfc" transform="matrix(29.58315 -10.47594 64.7738 182.91558 174 16.8)"/><ellipse cx="2" cy="115" fill="#fff" rx="14" ry="255"/><path fill="#a6a08f" d="M188 120l-28-38 28-51z"/><path fill="#667e61" d="M103 58l34-46 11 20z"/><path fill="#fffeff" d="M77 120l129 151 13-152z"/><circle r="1" fill="#feece0" transform="rotate(71.2 7.5 117.4) scale(14.12721 83.8475)"/><circle r="1" fill="#c39c78" transform="matrix(-2.83618 11.2383 -32.04742 -8.08772 100.7 106.5)"/><circle cx="74" cy="22" r="8" fill="#6c6e71"/><path fill="#572b16" d="M47.2 119l32.5-5.7-56.7-9.8 14.4 11.3z"/><circle r="1" fill="#fffcf1" transform="matrix(25.79342 12.01178 -4.77647 10.25673 111.7 17)"/><path fill="#4f60a5" d="M78.2 60.5l-6.1-26.8.5-3.4L85.1 55z"/><ellipse cx="202" cy="66" fill="#fff" rx="14" ry="255"/><ellipse cx="105" cy="239" fill="#fff" rx="203" ry="9"/><ellipse cx="111" cy="144" fill="#b0b1ae" rx="68" ry="3"/><path fill="#00712c" d="M154 85l-20 7 41 10z"/><circle r="1" fill="#d9d9d7" transform="rotate(177 75.6 97.5) scale(28.81885 22.40278)"/><circle r="1" fill="#fff8f3" transform="matrix(-12.82999 -68.31739 21.767 -4.08784 41 16.6)"/><ellipse cx="95" cy="152" fill="#a2a3a0" rx="88" ry="2"/><ellipse cy="167" fill="#fff" rx="16" ry="255"/><circle r="1" fill="#b3b193" transform="matrix(-2.83298 .0544 -.88105 -45.88546 19 76.2)"/><path fill="#273919" d="M145.5 34.3l-1.5 3.3-9.1-19.3 2-6.9z"/><path fill="#142107" d="M133.4 55l1-2.7 12.2 4.6-1 2.8z"/><path fill="#fef3ec" d="M180 82l-52-38 45-36z"/><ellipse cx="101" cy="175" fill="#a8a8a6" rx="93" ry="2"/><ellipse cx="90" cy="164" fill="#fff" rx="202" ry="9"/><circle r="1" fill="#fff" transform="matrix(179.27358 -1.48409 .09286 11.21668 113.3 .7)"/><ellipse cx="131" cy="219" fill="#abaaa9" rx="134" ry="2"/><path fill="#a4a3a1" d="M15 227h142v3H15z"/><path fill="#c5a683" d="M23 84h31v11H23z"/><path fill="#acaaaa" d="M86 249h103v4H86z"/><path fill="#acacaa" d="M38 200h119v4H38z"/><path fill="#b3b4b1" d="M14 159h60v5H14z"/><path fill="#5c8a76" d="M114.6 41.3l-5.8 25.5-14.1-2.2 49.6-38.7z"/><ellipse cx="69" cy="124" fill="#fff" rx="203" ry="4"/><ellipse cx="112" cy="183" fill="#babab8" rx="82" ry="3"/><ellipse cx="203" cy="221" fill="#fff" rx="17" ry="218"/><path fill="#d3bea3" d="M66 119l58-39 26 39z"/><ellipse cx="82" cy="137" fill="#fff" rx="203" ry="5"/><path fill="#acabaa" d="M19 209h87v4H19z"/><path fill="#fffbf7" d="M57 68h92v16H57z"/><ellipse cx="119" cy="192" fill="#b0b0ae" rx="121" ry="2"/><ellipse cx="99" cy="179" fill="#fff" rx="143" ry="3"/><path fill="#453f00" d="M85.1 29.4l-.5.8-11.7-7.6.5-.8z"/><ellipse cx="183" cy="64" fill="#a8aba7" rx="6" ry="40"/><path fill="#835642" d="M53 118l25-27 12 8z"/><path fill="#fff5e3" d="M164 28l-52 24 7 16z"/><ellipse cx="150" cy="188" fill="#fff" rx="203" ry="3"/><path fill="#f7e6ce" d="M76.2 25.6l37.3 19.5-46.3-11.4 4.3-15.8z"/><ellipse cx="143" cy="197" fill="#fff" rx="203" ry="3"/><ellipse cx="52" cy="130" fill="#b4b2b1" rx="37" ry="3"/><ellipse cx="102" cy="147" fill="#fff" rx="119" ry="2"/><path fill="#dec8b9" d="M131 99h58v21h-58z"/><path fill="#c4b996" d="M20 102l-6 17 24-5z"/><path fill="#89b789" d="M154 72h14v15h-14z"/><ellipse cx="109" cy="206" fill="#fff" rx="177" ry="3"/><path d="M134.7 33.7l3.5 6-.9.6-3.5-6z"/><circle r="1" fill="#bfc0be" transform="rotate(89.7 -47.1 164.7) scale(1.61859 65.25401)"/><ellipse cx="197" cy="197" fill="#fff" rx="9" ry="255"/><ellipse cx="51" cy="250" fill="#b0aeac" rx="40" ry="2"/><path fill="#544d19" d="M106 39h3v7h-3z"/><ellipse cx="95" cy="239" fill="#fff" rx="203" ry="9"/><path fill="#929491" d="M19 235h21v4H19z"/><ellipse cx="120" cy="255" fill="#fff" rx="183" ry="3"/><ellipse cx="4" cy="208" fill="#fff" rx="12" ry="232"/><ellipse cx="110" cy="214" fill="#fff" rx="155" ry="3"/><path fill="#abaaa9" d="M17 142h42v4H17z"/><path fill="#85341c" d="M43.9 106.5L26.2 92.4l-6.6.4 24.3 13.9z"/><path fill="#fffcfa" d="M191.6 7.3L135-12.8 147.3 43l36.6-59z"/><ellipse cx="49" cy="223" fill="#fff" rx="152" ry="3"/><path fill="#fcedda" d="M89.1-1.9l-9.3 27.6 29.3 19-25 47.5z"/><path fill="#f9eee3" d="M26.7 24.5l56.6 34.9-39.4 18.8-25.4 12.9z"/><path fill="#2a4421" d="M134 12h6v7h-6z"/><path fill="#19894a" d="M170.4 94.2L159 87.7l-30-.9 30.8 15.3z"/><path fill="#fffcf5" d="M168.5-12.4l-43.7 5.9 16.1 41.3-20.5-15z"/><path fill="#fff" d="M0 163h158v10H0z"/><path fill="#e3d6c6" d="M185 109l-57 2-28-27z"/><ellipse cx="58" cy="112" fill="#592c1a" rx="11" ry="5"/><path fill="#fff" d="M95.5 131.5l95 14.9 3-25.5-189.4-.8z"/><path fill="#c2c3c1" d="M48 226h126v4H48z"/><path fill="#d9d2b9" d="M60.9 104.2l-27.7-7.3-5.9-5 36.1 1.3z"/><path fill="#4e6eb8" d="M82 44l-1 10-10-21z"/><path fill="#192911" d="M135.1 54l10.6 3-.8 3-10.6-3z"/><circle cx="75" cy="21" r="2" fill="#121800"/><ellipse cx="101" cy="173" fill="#babab8" rx="84" ry="1"/><ellipse cx="98" cy="154" fill="#babab8" rx="78" ry="1"/><path fill="#fff" d="M35.7 139.3l127.1-17.1 51.9 141.2L219 143z"/><path fill="#001591" d="M69.5 16.5v5h-3v-5z"/><circle r="1" fill="#c2c2c0" transform="matrix(-13.12412 -.59596 .11177 -2.46133 32 201.7)"/><path fill="#afa589" d="M56 117h93v3H56z"/><path fill="#e1ded8" d="M189 39l-3-35-29 65z"/><path fill="#a9aaa6" d="M152 200h22v3h-22z"/><path fill="#fdf1e4" d="M77.5 23.7l56.2 9.2L89.8 3.5l-.6 4.3z"/><path fill="#bfb897" d="M97.8 84.4l34.6 9.3-6 3L141.2 84z"/><path fill="#4c6746" d="M119.5 38.3l15.4-4.5-4.4-6 .1 10.4z"/></g></g></svg>