<svg xmlns="http://www.w3.org/2000/svg" viewBox="0 0 1400 904"><defs/><filter id="a"><feGaussianBlur stdDeviation="12"/></filter><rect width="100%" height="100%" fill="#2f3254"/><g filter="url(#a)"><g fill-opacity=".5" transform="translate(2.7 2.7) scale(5.46875)"><circle cx="118" cy="93" r="166" fill="#ffffe6"/><circle r="1" fill="#fff" transform="matrix(-11.62465 -114.44257 36.43474 -3.7009 130.1 61.6)"/><circle r="1" fill="#000010" transform="matrix(36.12675 -10.8475 17.51256 58.32426 206.7 67.7)"/><ellipse cx="210" cy="150" fill="#fff" rx="190" ry="26"/><path fill="#5a3709" d="M66 130l1-146-83 141z"/><ellipse cx="146" cy="59" fill="#fff" rx="21" ry="164"/><ellipse cx="255" cy="78" fill="#fff" rx="8" ry="164"/><path fill="#0b0f2c" d="M201 7l44 120V7z"/><circle r="1" fill="#fff" transform="rotate(96.1 53.6 190.4) scale(30.82032 104.19427)"/><ellipse cx="235" cy="1" fill="#fff" rx="109" ry="7"/><path fill="#7e6742" d="M93 124h34v24H93z"/><path fill="#111716" d="M168 82h34v42h-34z"/><path fill="#653f12" d="M17 15l-1 56 39-57z"/><path fill="#ffffbf" d="M213.2 108.5l24.4-5.4-11.8-11-35.5 30.3z"/><circle r="1" fill="#cfc1a2" transform="rotate(92.8 33.6 62.1) scale(111.42693 30.32529)"/><path fill="#ffffc3" d="M186.3 74.8l41.3-21.1-40 34-6-18.4z"/><path fill="#1f2747" d="M167 8h81v41h-81z"/><path fill="#fffff5" d="M236.4 60.4l5-25.3L271 23.4l-4.3 56.1z"/><ellipse cx="148" cy="34" fill="#fff" rx="20" ry="163"/><circle r="1" fill="#ad9a80" transform="matrix(-37.8035 -15.0249 6.49153 -16.33307 46 54.7)"/><path fill="#000013" d="M246 122l-2-22-73 24z"/><path fill="#473421" d="M13 88h56v40H13z"/><path fill="#c9bfa2" d="M127.8 18.4L-1 11.6l1.2-22L129-3.6z"/><ellipse cx="252" cy="66" fill="#fff" rx="5" ry="164"/><path fill="#fffff4" d="M208 16l6 4-23 9z"/><path fill="#fff" d="M195 94l-19 19 13-4z"/><ellipse cx="56" cy="164" fill="#d6ceb8" rx="41" ry="37"/><ellipse cx="189" cy="2" fill="#fff" rx="63" ry="5"/><path fill="#a38d62" d="M-1.2 151.7l-1.5-31.1 47.4 25 27.2 7.3z"/><path fill="#00010d" d="M167 70h6v55h-6z"/><ellipse cy="54" fill="#a69371" rx="16" ry="161"/><circle r="1" fill="#f3ecae" transform="matrix(-23.60557 21.32927 -1.09384 -1.21058 210 65)"/><ellipse cx="229" cy="164" fill="#fff" rx="103" ry="40"/><path fill="#3e250b" d="M43 38l26-25 1 26z"/><path fill="#fffad2" d="M232 94l-22-2 21 12z"/><path fill="#1f325d" d="M167 8h28v60h-28z"/><path fill="#dcdad8" d="M44.9 59.9L33.7 46.8l.4 19.3 11.7 4.3z"/><path fill="#f1f3ed" d="M101.6 70.8l.9 26.6 91.9 20.6-10.4 2.8z"/><ellipse cx="147" cy="62" fill="#fff" rx="20" ry="164"/><path fill="#0f0000" d="M15 15h49v3H15z"/><path fill="#2b2c41" d="M249.1 54.3l-9.8-47.7-75.5 91 68.3-62.7z"/><path fill="#eeece7" d="M86 129l5 29-56-30z"/><path fill="#160400" d="M3 124h72v4H3z"/><path fill="#e4e0b3" d="M239.1 43.4l22.1-18.1 8.8-3.2-43 23.4z"/><path fill="#927d62" d="M77 127.6l-8.2-70.9-21.6 68.6-10.8-48.2z"/><path fill="#222a46" d="M236 68h12v56h-12z"/><path fill="#ffffe0" d="M191 83l11-15-19 11z"/><path fill="#232547" d="M235.6 52.1l12 19.5-41.7 27.1-21-10.9z"/><path fill="#a29379" d="M33 159l3-64-24 49z"/><path fill="#c9c792" d="M175.2 118.4l-2.1-13.2-.9 1.6 11.2-10.1z"/><path fill="#a59e8e" d="M127.9 178l.6-34.6-5.8-24.3-23.5-.2z"/><path fill="#c5beb0" d="M73.8 60.3l54.1 17.4.6-93.7L74.8-5.9z"/><path fill="#250700" d="M16 16h3v111h-3z"/><path fill="#ffec9f" d="M222 94l-29 23 29-12z"/><ellipse cx="205" cy="1" fill="#fff" rx="76" ry="6"/><ellipse cx="254" cy="61" fill="#fff" rx="7" ry="164"/><path fill="#181a2c" d="M211 9h35v19h-35z"/><path fill="#bfb8bc" d="M185.9 43.4l8-9.3 15.8-15.5-12.1 4.6z"/><path fill="#4d3519" d="M46 53h6v30h-6z"/><path fill="#c9c1b0" d="M130.3 16.6L83.9 62.9 70.1-16 46.2 14.1z"/><path fill="#200d00" d="M17 86h40v4H17z"/><path fill="#0e151b" d="M175.9 114.9l31.9.6-25.1-3.2-2.5-3.5z"/><path fill="#ffffe3" d="M173.6 114.9l5.9-18 1 .2-6 18z"/><path fill="#eddcbf" d="M17 75h5v9h-5z"/><path fill="#d0d1d0" d="M149.1 98.9l15.2 5 3.9 20.1-23.6-10.1z"/><path fill="#574531" d="M39.4 90l-9.9-52.3-7.9 78.8.9-44z"/><path fill="#0c1423" d="M178.4 77.6l13.4 6.8-8.2 16-13.4-6.8z"/><path fill="#1a0b00" d="M34 113h35v4H34z"/><path fill="#a39c88" d="M25 19h48v6H25z"/><circle r="1" fill="#bfbaaa" transform="rotate(-174.4 23.1 81) scale(67.0128 12.86805)"/><path fill="#fff" d="M43 62.3l1.7 7.8-7.8 1.6-1.6-7.8z"/><path fill="#958a76" d="M27 42.1l-4.1-8.8-24.7 126.3L-16 51.2z"/><path fill="#dedddd" d="M167 130h76v19h-76z"/><ellipse cx="53" cy="63" fill="#fbf9f1" rx="2" ry="8"/><path fill="#21232f" d="M167.3 9l81.1 3.3L168.1 25l3.1-13.1z"/><circle cx="245" cy="53" r="2"/><path fill="#fff" d="M41 91h9v3h-9z"/><path d="M60 21h5v15h-5z"/><path fill="#dbdedb" d="M123.6 139.4l6.6-12.1-7-58-22.3-10.4z"/><path fill="#d0b698" d="M31.5 33.1l20.8 6.2L23 36.8l8.1-10.6z"/><path fill="#84735a" d="M119 142v-25l-16 31z"/><ellipse cx="49" cy="107" fill="#c7baa1" rx="6" ry="4"/><path fill="#fff" d="M238.5 56.5L271 97.3 250.6 180l-2.9-125.5z"/><path fill="#ffff9e" d="M177 116h17v3h-17z"/><path fill="#30324a" d="M228.1 35.5l20.1 45.1-34.3 21.9 6.4-7.5z"/><path fill="#2b1600" d="M17 99h15v12H17z"/><ellipse cx="85" cy="151" fill="#fffffa" rx="17" ry="5"/><path fill="#fff" d="M127.7-16l39.5 22.7.3 35.8-35.2 127.8z"/><path fill="#fff" d="M277.5 147.9l1 27-150 5.2-1-27z"/><path fill="#2a2d49" d="M210 62l-31 16 39-68z"/><path fill="#0e0000" d="M38 101h4v26h-4z"/><path fill="#bfbdaf" d="M193.2 98.5l6.6-31.3 1 .3-6.6 31.3z"/><path fill="#0e1519" d="M169.8 87.3l6.6 36 30 .9-36-6.2z"/><ellipse cx="30" cy="24" fill="#f1ede3" rx="6" ry="2"/><path fill="#191e30" d="M170.4 123.2l51.5 1 24.6 1.2-5.2-13.1z"/><path fill="#e9e2cd" d="M33 94h3v16h-3z"/><path fill="#0d142d" d="M200 111l12-28-27 29z"/><path fill="#1a222c" d="M173.1 108.2l-4.7-23.4-.3-16.6 15.5 13.7z"/><path fill="#270600" d="M17 26h28v2H17z"/><path fill="#fff" d="M154 125h72v5h-72z"/></g></g></svg>