<svg xmlns="http://www.w3.org/2000/svg" viewBox="0 0 933 1400"><defs/><filter id="a"><feGaussianBlur stdDeviation="12"/></filter><rect width="100%" height="100%" fill="#6b653d"/><g filter="url(#a)"><g fill-opacity=".5" transform="translate(2.7 2.7) scale(5.46875)"><circle cx="35" cy="68" r="234" fill="#fff"/><circle r="1" fill="#fff" transform="rotate(.7 -3158 7058.5) scale(169 72.7224)"/><circle r="1" fill="#7c6400" transform="matrix(-.23011 42.39495 -168.99751 -.91728 84.4 150.1)"/><ellipse cx="86" cy="229" fill="#fff" rx="169" ry="38"/><ellipse cx="61" cy="41" fill="#fff" rx="169" ry="68"/><ellipse cx="68" cy="228" fill="#fff" rx="169" ry="37"/><ellipse cx="21" cy="234" fill="#57585d" rx="169" ry="3"/><ellipse cx="85" cy="151" fill="#d6c809" rx="66" ry="7"/><ellipse cx="118" cy="103" fill="#fff" rx="169" ry="5"/><ellipse cx="125" cy="202" fill="#fff" rx="169" ry="10"/><ellipse cx="5" cy="44" fill="#fff" rx="25" ry="65"/><path fill="#9d9ea3" d="M39 215h88v8H39z"/><ellipse cx="58" cy="119" fill="#c4c2bf" rx="97" ry="3"/><ellipse cx="169" cy="61" fill="#fff" rx="30" ry="47"/><ellipse cx="127" cy="89" fill="#b2b2b7" rx="169" ry="4"/><ellipse cx="84" cy="8" fill="#fff" rx="169" ry="11"/><ellipse cx="9" cy="170" fill="#978933" rx="125" ry="22"/><path fill="#796a4b" d="M29.9 133.1L-16 225l7.3-116.6 31.1.3z"/><ellipse cx="83" cy="21" fill="#b7b190" rx="72" ry="3"/><path fill="#fff" d="M135.4 245.9L13.8 239-16 191.4 5.2 271z"/><path fill="#7f6f43" d="M141 108h29v84h-29z"/><ellipse cx="83" cy="135" fill="#d0c10e" rx="36" ry="7"/><ellipse cx="91" cy="46" fill="#a39a72" rx="57" ry="2"/><path fill="#fff" d="M0 238h170v18H0z"/><path fill="#cdc11a" d="M23 164h140v7H23z"/><path fill="#fff" d="M185 188.5l-92.2 14.6 67 26.1 1.5 40.8z"/><ellipse cx="86" cy="97" fill="#85868b" rx="60" ry="2"/><ellipse cx="10" cy="211" fill="#fff" rx="45" ry="20"/><ellipse cx="96" cy="30" fill="#b4ad8c" rx="89" ry="2"/><path fill="#a49b73" d="M53 37h92v3H53z"/><path fill="#fff" d="M153 0h17v109h-17z"/><circle r="1" fill="#fff" transform="matrix(2.87603 -49.87948 17.37274 1.0017 3.6 58.6)"/><path fill="#fff" d="M0 49h170v12H0z"/><path fill="#c9bd1b" d="M37 178h97v7H37z"/><ellipse cx="110" cy="188" fill="#77684a" rx="169" ry="4"/><ellipse cx="22" cy="112" fill="#7d6e4b" rx="169" ry="5"/><ellipse cx="77" cy="234" fill="#939394" rx="85" ry="4"/><path fill="#fff" d="M-1.9 190.4L0 271l147-32.3-135.7-.6z"/><ellipse cx="92" cy="72" fill="#b5b6ba" rx="76" ry="2"/><path fill="#fff" d="M-2.5 91l169-3v1l-169 3z"/><ellipse cx="134" cy="81" fill="#fff" rx="169" ry="4"/><ellipse cx="68" cy="87" fill="#767777" rx="90" ry="1"/><ellipse cx="75" fill="#fff" rx="93" ry="21"/><path fill="#fff" d="M185 192l-65-1 15 43z"/><ellipse cx="97" cy="92" fill="#636464" rx="60" ry="1"/><ellipse cx="90" cy="103" fill="#fff" rx="169" ry="5"/><path fill="#7a6b4f" d="M24 122h30v23H24z"/><ellipse cx="121" cy="227" fill="#fff" rx="169" ry="4"/><path fill="#80724e" d="M113 125h57v20h-57z"/><path fill="#cabc21" d="M60 146h85v11H60z"/><path fill="#b5ae8f" d="M27 37h43v3H27z"/><ellipse cx="81" cy="161" fill="#7d6f53" rx="86" ry="4"/><ellipse cx="88" cy="77" fill="#b8b8bd" rx="28" ry="2"/><ellipse cx="130" cy="218" fill="#fff" rx="130" ry="1"/><path fill="#444447" d="M152.7 238.2l-.4-6 7-.4.4 6z"/><ellipse cx="6" cy="51" fill="#fff" rx="11" ry="46"/><ellipse cx="79" cy="174" fill="#7e7152" rx="152" ry="4"/><path fill="#a6a7ab" d="M21 67h124v2H21z"/><circle r="1" fill="#fff" transform="matrix(3.6924 -23.31293 29.47773 4.66881 169 52)"/><path fill="#fff" d="M123.5 220.8l-75-2.6v-1l75 2.6z"/><path fill="#d2d0c1" d="M148.4 122l-25-1 .2-5 25 1z"/><path fill="#fff" d="M122 255l57-32 2 43z"/><ellipse cx="80" cy="207" fill="#fff" rx="169" ry="8"/><path fill="#fff" d="M37 242.8l6.2-17 3.8 1.4-6.2 17z"/><path fill="#929293" d="M33 215h18v3H33z"/><path fill="#fff" d="M122 271l7-52.1-.1 52.1-7.4-51.6z"/><path fill="#7d6f52" d="M63 134h6v28h-6z"/><path fill="#b9babf" d="M38 61h52v3H38z"/><ellipse cx="91" cy="29" fill="#c0bba0" rx="71" ry="2"/><ellipse cx="56" cy="34" fill="#fff" rx="152" ry="2"/><ellipse cx="117" cy="216" fill="#959596" rx="20" ry="2"/><path fill="#eee009" d="M36.9 159.2l-12-3.5 2.7-13-4.8 8.6z"/><path fill="#fff" d="M0 50h170v12H0zm10.3 179.6l64.6-36.1-84.2-1L6.3 271z"/><path fill="#a2a3a4" d="M15 91h45v3H15z"/><path fill="#b4b4b7" d="M58 196h56v2H58z"/><ellipse cx="106" cy="25" fill="#fff" rx="137" ry="2"/><ellipse cx="134" cy="154" fill="#7c6e4e" rx="2" ry="37"/><path fill="#7d7054" d="M92.6 163.8l-.3 26.7 2.3-43.7-7.1-27.7z"/><ellipse cx="126" cy="7" fill="#fff" rx="141" ry="13"/><ellipse cx="77" cy="97" fill="gray" rx="51" ry="1"/><path fill="#fff" d="M89 74h81v12H89z"/><path fill="#84774f" d="M79.8 143.1l57.4 2-53.1-5.2-11.5 56.3z"/><ellipse cx="94" cy="21" fill="#c1bba1" rx="71" ry="2"/><path fill="#fff" d="M94.6 271l-30.3-37-2.7 8.1 111-2.7z"/><path fill="#7e7153" d="M106.5 169h-3l-2-56h3z"/><path fill="#f2e405" d="M106 130h9v9h-9z"/><path fill="#887a4d" d="M0 109h21v79H0z"/><path fill="#fff" d="M158.8 91.3L156.3-16 185 106.1l-44.9 3z"/><ellipse cx="86" cy="221" fill="#a6a6a7" rx="50" ry="2"/><path fill="#8c8c8e" d="M138 231h14v7h-14z"/><ellipse cx="146" cy="93" fill="#b5b6ba" rx="87" ry="1"/><path fill="#ff0" d="M37.9 158l1.2-12h1L39 158z"/><path fill="#fcfcfd" d="M88.7 257.3l9.3-29.7-13.5 22.6 3.6-24.8z"/><path fill="#fff" d="M0 74h59v12H0z"/><path fill="#857851" d="M41.4 158.3l-1.8-13.4 31 31.9-15.4-28.7z"/><path fill="#f6e800" d="M138 145h7v8h-7z"/><path fill="#fff" d="M-16 205.1l52.5 60.3-5.3-34.5L11 271z"/><path fill="#f0e303" d="M54 129h33v3H54z"/><path fill="#ff0" d="M61.8 155.1L60 154l6.1-9.1L68 146z"/></g></g></svg>