<svg xmlns="http://www.w3.org/2000/svg" viewBox="0 0 1400 904"><defs/><filter id="a"><feGaussianBlur stdDeviation="12"/></filter><rect width="100%" height="100%" fill="#502c2a"/><g filter="url(#a)"><g fill-opacity=".5" transform="translate(2.7 2.7) scale(5.46875)"><circle cx="124" cy="96" r="164" fill="#fff"/><ellipse cx="103" cy="156" fill="#fff" rx="80" ry="162"/><circle r="1" fill="#840000" transform="matrix(17.49809 -19.4336 27.09592 24.39728 38.6 40.4)"/><circle r="1" fill="#fff" transform="matrix(138.39759 3.9987 -1.44597 50.04574 57.3 164)"/><ellipse cx="244" cy="95" fill="#f1ffff" rx="19" ry="162"/><path fill="#5d5d40" d="M162 24h65v88h-65z"/><ellipse cx="103" cy="65" fill="#fff" rx="25" ry="164"/><path fill="#725529" d="M128 115l.1-60.4 13.8 8.2 9.6 73.7z"/><path fill="#643611" d="M54 101l19-63 5 74z"/><circle r="1" fill="#fff" transform="matrix(-1.58408 -207.9479 9.05422 -.06897 0 37.6)"/><path fill="#fff" d="M120 9L46-16-15 7z"/><ellipse cx="188" cy="11" fill="#e4fefe" rx="49" ry="14"/><path fill="#800" d="M10 9h33v55H10z"/><ellipse cx="32" cy="154" fill="#fff" rx="97" ry="33"/><path fill="#023141" d="M163 26h64v19h-64z"/><ellipse cx="200" cy="115" fill="#fff" rx="29" ry="6"/><path fill="#faffff" d="M227 27h26v76h-26z"/><path fill="#4a3919" d="M186 123h20v29h-20z"/><ellipse cx="2" cy="65" fill="#fff" rx="7" ry="157"/><circle r="1" fill="#cad3c7" transform="matrix(-1.11327 -6.5977 38.29237 -6.46128 47.1 68.8)"/><path fill="#709e6a" d="M222 108l42-1-19 30z"/><path fill="#900000" d="M9 10h33v56H9z"/><path fill="#002d34" d="M254 4h2v101h-2z"/><circle r="1" fill="#fff" transform="matrix(8.299 -13.94931 53.83311 32.0275 115 31.4)"/><path d="M13 104h15v10H13z"/><path fill="#554340" d="M131.4 121.4l-5.3-16.3 26.7-9.6-2.7 31.6z"/><path fill="#f1333a" d="M18 10h12v87H18z"/><path fill="#c1d9d0" d="M63.6 69.8L42.2 31l1.3 13.9L41 76.1z"/><path fill="#6d0000" d="M68.6 49.9l-10.7.4-20.6-32 13-2.7z"/><ellipse cx="43" cy="1" fill="#fff" rx="85" ry="8"/><path fill="#fff" d="M237 136h19v29h-19z"/><path fill="#1d4253" d="M75.1 24.3l4.4 10.2-30-25.2 14.3 4.9z"/><path fill="#ab9274" d="M164 44h55v67h-55z"/><ellipse cx="153" cy="62" fill="#eef3ee" rx="10" ry="49"/><circle r="1" fill="#8b9b91" transform="matrix(-6.67035 -14.75018 12.46526 -5.63706 141.2 12.5)"/><path fill="#c2c8b7" d="M14 65h46v14H14z"/><path fill="#a1816d" d="M39 121l-22-6 56-19z"/><ellipse cx="39" cy="44" rx="4" ry="21"/><ellipse cx="117" cy="61" fill="#fff" rx="11" ry="164"/><path fill="#fff" d="M-24.4 196.8l-5-69.8 111.8-7.8 5 69.8z"/><path fill="#cdb6ae" d="M201.9 179l9.5-60.2 26.7 4.2-9.5 60.2z"/><path fill="#fffef3" d="M177.8 180l7.1-69.7-32.3-1.7 12.9 54.8z"/><path fill="#47554d" d="M189 85l22-59-33 42z"/><path fill="#fff" d="M226 59h13v45h-13z"/><path fill="#896c4c" d="M56 71h20v35H56z"/><path fill="#dfebd8" d="M99 57L66 39 48 6z"/><ellipse cx="2" cy="34" fill="#fff" rx="6" ry="164"/><path fill="#6d7670" d="M130.8 148.5l11.8-16.5-.6-1.5-15.2 14.7z"/><path fill="#f8e0b8" d="M126 83h14v20h-14z"/><path fill="#699397" d="M214 32l6 37-45-31z"/><path fill="#2a0705" d="M9 13h3v71H9z"/><path fill="#cda062" d="M166.6 85.1l-5-37.2 25.8-6 .8 14.8z"/><ellipse cx="67" cy="53" fill="#b4384d" rx="11" ry="8"/><path fill="#f7f2ee" d="M162.2 90.2l1-49.8-19.9 38.5-.9 17.7z"/><path fill="#bdc4c0" d="M138 0h26v46h-26z"/><path fill="#cba581" d="M186.1 103l-8.5-15.8 20.2-2.9 6.4 36.5z"/><path fill="#092528" d="M184.2 25.2l-17.2-1-.7 29-2.5-8.5z"/><ellipse cx="215" cy="5" fill="#cbd4d6" rx="41" ry="20"/><path fill="#fff" d="M110.2-16L-16 15.6 32.8-16l11.6 31.7z"/><path fill="#f9fffc" d="M42 96l1 9-33-8z"/><path fill="#670a00" d="M20 89h11v7H20z"/><path fill="#31040d" d="M59.7 30.8l-24-6.1-1.3-13.4 19.2 7.2z"/><path fill="#ddc9c3" d="M181.2 152.8l45.7 5.6-2.1 16.8-45.7-5.6z"/><path fill="#ebffff" d="M43 13h1l-1 50h-1z"/><ellipse cx="164" cy="86" fill="#882e2d" rx="2" ry="25"/><path fill="#c5bfb9" d="M59.3 66.7l17.5-9.4-1.6 17.3-88.9-10.9z"/><path fill="#4f2e25" d="M129 106h15v16h-15z"/><path fill="#d3d4ca" d="M219 62.7l-31 12.7L205.4 63l38.9 22.3z"/><path fill="#eff2f2" d="M79 9h34v141H79z"/><path fill="#6d716a" d="M139.9 28.4l.6-2-11.2-29.5-1.6 14.3z"/><path fill="#528f70" d="M240 95h6v27h-6z"/><path fill="#73614f" d="M185 123h23v30h-23z"/><path fill="#fdfbf9" d="M152 71h11v40h-11z"/><path fill="#fff" d="M2 118l-18 47 171-2z"/><path fill="#437ea0" d="M47.5 117.8v3l-29-.6v-3z"/><ellipse cx="13" cy="89" fill="#bfdadf" rx="4" ry="15"/><path fill="#266579" d="M208 79h7v18h-7z"/><path fill="#e7e8e4" d="M159 110l36 3-70 40z"/><path fill="#293844" d="M213.2 27.1l10.8-.9 2.9 13.7-6.6 32.5z"/><path fill="#001338" d="M74 27l-9-11 13 9z"/><path fill="#c8cac3" d="M67 9h36v9H67z"/><path fill="#24191f" d="M140 96h11v4h-11z"/><path fill="#244d3a" d="M180 103l-6-4 11-11z"/><path fill="#fff0e1" d="M81.4 97.7l-26.9-2.4v-1l27 2.4z"/><path fill="#412825" d="M68.3 100.9l9.7 7-2.3 3.2-9.7-7z"/><path fill="#dddcdc" d="M82 121h31v25H82z"/><ellipse cx="234" cy="64" fill="#f5ffff" rx="7" ry="35"/><path fill="#a39283" d="M137.8 115.1l19 13.1-9.6-37.6-2.1 19z"/><path d="M223.5 89.7l1.6 1.3-4.6 5.3-1.6-1.3z"/><ellipse cx="250" cy="90" fill="#e8ffff" rx="4" ry="29"/><path fill="#c2ded3" d="M214 97l-3.4 3.3 28 10.9 15-11.8z"/><ellipse cx="121" cy="78" fill="#fff" rx="7" ry="159"/><path fill="#b8a59d" d="M207 114l30 14-1 52z"/><path fill="#cca088" d="M187 67.3l19 1.1-15.6 44.6 19.4-25.8z"/><path fill="#d48655" d="M26 107h39v4H26z"/><ellipse cx="9" cy="2" fill="#fff" rx="117" ry="7"/><path fill="#fff" d="M188 110l14 7-38 1z"/><path fill="#b48b6f" d="M195.9 152.3l-9.4-25.5-6.5 28.4 27.3-26.6z"/><path fill="#dde1e1" d="M127 28h36v34h-36z"/><path fill="#5c573f" d="M170 63l8-29 3 11z"/></g></g></svg>