<svg xmlns="http://www.w3.org/2000/svg" viewBox="0 0 933 1400"><defs/><filter id="a"><feGaussianBlur stdDeviation="12"/></filter><rect width="100%" height="100%" fill="#56422f"/><g filter="url(#a)"><g fill-opacity=".5" transform="translate(2.7 2.7) scale(5.46875)"><circle r="1" fill="#dcf9ee" transform="matrix(159.03216 57.18192 -50.54276 140.5676 93.4 123.8)"/><circle r="1" fill="#0c2b19" transform="matrix(-5.95528 -69.46534 36.19877 -3.10333 110.6 217.3)"/><circle r="1" fill="#070f00" transform="matrix(-20.11845 -3.1926 9.23798 -58.21394 130 41.7)"/><ellipse cx="24" cy="65" fill="#f8efe2" rx="45" ry="90"/><circle r="1" fill="#fffffc" transform="rotate(-89 156.2 -15.6) scale(147.95362 26.53163)"/><circle r="1" fill="#283520" transform="matrix(-14.56618 -103.64372 18.14575 -2.55022 48.9 252.5)"/><path fill="#586e5c" d="M17 61l36 18-32 78z"/><circle r="1" fill="#fff6e0" transform="matrix(6.42042 99.71813 -7.557 .48656 62 140.4)"/><ellipse cx="148" cy="120" fill="#fceede" rx="15" ry="55"/><path fill="#ffeacb" d="M21 103l-37 22 42 120z"/><ellipse cx="80" cy="19" fill="#4a6a5b" rx="16" ry="82"/><path fill="#ebefeb" d="M122.3 132.3l.4 18-75 1.4-.4-18z"/><circle r="1" fill="#f1e7e0" transform="matrix(-1.228 -52.16788 50.12207 -1.17984 16.9 15)"/><path fill="#112b16" d="M86.6 153.5l-12.1 40-1.8-15.1 6.5-37.9z"/><ellipse cx="103" cy="52" fill="#fff" rx="4" ry="82"/><path fill="#3c483a" d="M105.6 16.4l4.6 98.5L125-3.3 107.9-16z"/><path fill="#3f3925" d="M67.3 257.9l.6-13 138.8 7.2-.6 13z"/><path fill="#2c4339" d="M42.5 116.2l6-.3 3 57.9-6 .3z"/><path fill="#14311c" d="M114 119h5v51h-5z"/><path fill="#4e6651" d="M71 153h69v33H71z"/><path fill="#2e3b2d" d="M26.9 131.2l4.7 68.7-12-58.8 3.8-7.3z"/><path fill="#263119" d="M0 240l15-35-31 19z"/><path fill="#a9b498" d="M145.2 253l-66.5-29L185 259.5l-16.8-25.9z"/><path fill="#f3f7f3" d="M120 102l8 21-47-25z"/><path fill="#343226" d="M115.4 72.9l39.8-55.7-3.9 37.7-20.2 27.5z"/><path fill="#414f3c" d="M137.4 91l-6 41.1-23.5-77.2 2-65.9z"/><path fill="#a6ad9b" d="M4.1 126.9L30.9 107l20.6-36.7 7.1 59.2z"/><path fill="#213e26" d="M78 103h5v35h-5z"/><path fill="#fff" d="M74 103h4v48h-4z"/><path fill="#f2f4ef" d="M145.3 152.8l-16.7-3.5 8.1-38.1 16.7 3.5z"/><path fill="#caedff" d="M155 0h15v87h-15z"/><path fill="#fff" d="M91 102h5v23h-5z"/><path fill="#5e7d67" d="M87 235l4-106 15 53z"/><ellipse cx="30" cy="127" fill="#33432c" rx="18" ry="3"/><path fill="#2f3224" d="M125.6 232.7l-20-.4.8-51 20 .4z"/><path fill="#596a56" d="M13 83l9 27 28-22z"/><path fill="#3a3a10" d="M69 116h2v45h-2z"/><path fill="#fff" d="M34 128.8l1 22-7 .4-1-22z"/><path fill="#fcf2e9" d="M-13 47l36 67-37 19z"/><path fill="#fff" d="M119 132h6v18h-6z"/><ellipse cx="156" cy="160" fill="#e4ceb8" rx="14" ry="85"/><path fill="#fffffe" d="M49 131h17v21H49z"/><path fill="#eaefec" d="M53.1 117.1l-20.7-15.4 13.7 35.1-12-3.5z"/><path fill="#faf9f5" d="M103.6 112.6l14.3.4-22.6 19.4 2.1 26.4z"/><path fill="#f4cb99" d="M64 214h11v35H64z"/><circle cx="134" cy="6" r="22" fill="#657468"/><path fill="#253828" d="M1 207l15-20-30 20z"/><path d="M110 114l9-1-2-4z"/><path fill="#d2f0ff" d="M98 0h8v53h-8z"/><path fill="#143020" d="M-13 263l-3-15 41-5z"/><path fill="#f6f3ec" d="M134 101h32v24h-32z"/><circle r="1" fill="#21312b" transform="matrix(-3.77893 .50714 -6.94903 -51.78033 48.3 255)"/><path fill="#9da48d" d="M46.5 180.2l-3.2-47.7-1.9 55.4L57 267.8z"/><path fill="#1b3e25" d="M125 125h4v30h-4z"/><path fill="#475944" d="M31 117L14 95l33 24z"/><path fill="#f2eee6" d="M58.2 130.7l-5.9-33.5-22.5 4 48 8.2z"/><ellipse cx="118" cy="127" fill="#748570" rx="60" ry="3"/><ellipse cx="81" cy="255" fill="#2f3a2c" rx="6" ry="61"/><path fill="#fff" d="M114 145l-1-15-11 22z"/><path fill="#617c67" d="M68.2 99l-1.4-39 31-1 1.4 39z"/><path fill="#3e563f" d="M108.9 80l19.5 37.7 3.5-31.6-22.8 18.3z"/><path fill="#f3e6dc" d="M-16 191l37-15-2-46z"/><path fill="#cdad79" d="M25.7 241.3l3.6-1L16.5 203l-20.4 43.1z"/><path fill="#eaddd2" d="M66 30L37 56l31 61z"/><circle r="1" fill="#3b412b" transform="matrix(-28.37454 10.94882 -.4836 -1.25326 14.3 231.3)"/><path d="M106 129h2v13h-2z"/><path fill="#e0d9cc" d="M137 73h25v67h-25z"/><path fill="#2c4431" d="M109.8 129.8l.4-10 12 .4-.4 10z"/><path fill="#516858" d="M144 202l-6-52H64z"/><path fill="#83aa8f" d="M84.9 180.1l1.7-27.2 3.1 33.2.9 55.6z"/><path fill="#fff" d="M19 117l-3-18 13 27zm71 13l-1 20-5-21z"/><path fill="#4e573f" d="M22 151h33v17H22z"/><path fill="#285b41" d="M86 104h5v22h-5z"/><path fill="#f9e1ca" d="M17.7 203.9L-16 220.1l3.4-1.7 29.4-26.7z"/><circle r="1" fill="#333e38" transform="matrix(.99913 -.04182 5.48295 130.99851 74.7 6.6)"/><ellipse cx="98" cy="111" fill="#5b795b" rx="4" ry="9"/><path fill="#fff" d="M28 146h16v5H28z"/><circle r="1" fill="#67775d" transform="rotate(-175.9 24.5 52.6) scale(10.27119 2.90024)"/><ellipse cx="131" cy="252" fill="#c8baa8" rx="2" ry="28"/><path fill="#000b00" d="M33 143h10v3H33z"/><circle r="1" fill="#9fb9a6" transform="rotate(178.1 40.4 22.7) scale(1.51612 85.32298)"/><path fill="#fff" d="M31 107l9 6-3-15z"/><path fill="#f5f7f4" d="M5.2 138.4l8.3 19 12.7-31.5-1.7 3z"/><path fill="#231b17" d="M115 269l20-22-30-5z"/><path fill="#88977f" d="M54 106L23 61l17 4z"/><circle cx="80" cy="146" r="4" fill="#1b2c1b"/><path fill="#df9b22" d="M23.4 184.4l.2 4-37 1.2-.2-4z"/><path fill="#fff" d="M78.6 120.9l-4 .2-1.2-22 4-.2zm51.1 2.4l-1.8 1-13.6-25.6 1.8-1z"/><path fill="#262a1e" d="M31 251.2l-4-37.8 6-.6 4 37.8z"/><path fill="#fff" d="M85 99h18v4H85z"/><path fill="#000600" d="M32.5 134.5h7v3h-7z"/><path fill="#fcfefa" d="M130 131h32v10h-32z"/><path fill="#332318" d="M105 154h5v42h-5z"/><path fill="#3b402b" d="M72 153h4v51h-4z"/><path fill="#ebd9c8" d="M101 57h7v68h-7z"/><path fill="#253c2c" d="M44 141.2l2-16.9 4 .5-2 16.9z"/><path fill="#fff" d="M73 139h16v4H73z"/><path fill="#e9d2bb" d="M71.5 237.9l-19.2-94.8 15.7 9.6 4.9 37.4z"/></g></g></svg>