<svg xmlns="http://www.w3.org/2000/svg" viewBox="0 0 1400 933"><defs/><filter id="a"><feGaussianBlur stdDeviation="12"/></filter><rect width="100%" height="100%" fill="#3c493a"/><g filter="url(#a)"><g fill-opacity=".5" transform="translate(2.7 2.7) scale(5.46875)"><circle cx="121" cy="66" r="179" fill="#fffffd"/><ellipse cx="232" cy="77" fill="#fffff1" rx="31" ry="101"/><circle r="1" fill="#123316" transform="rotate(5.2 -1588.1 1830.8) scale(55.56748 33.83688)"/><path fill="#000700" d="M210.9-13l-5 55.8-42.8-3.8 5-55.8z"/><circle r="1" fill="#ffffe4" transform="matrix(-5.39802 -140.51446 21.70234 -.83372 10.6 112.8)"/><ellipse cx="93" cy="108" fill="#fffff1" rx="11" ry="141"/><path fill="#1f2f16" d="M74.7 196.2l-40-1.4 2.6-75 40 1.4z"/><circle r="1" fill="#44664b" transform="rotate(21.3 22.9 340.2) scale(23.04362 29.33604)"/><ellipse cx="99" cy="99" fill="#e3e1d6" rx="221" ry="12"/><path fill="#072711" d="M172 72h7v69h-7z"/><ellipse cx="36" cy="110" fill="#1c240b" rx="5" ry="31"/><path fill="#52684c" d="M74.6 25.5L35.7 57 17.4 34.5 56.3 3z"/><path fill="#000a00" d="M66 80h7v37h-7z"/><ellipse cx="192" cy="88" fill="#3b583f" rx="5" ry="149"/><path fill="#fff7e4" d="M151 0h13v80h-13z"/><ellipse cx="121" cy="95" fill="#324a35" rx="5" ry="58"/><path fill="#fff4e2" d="M67-13l33 21-5 105z"/><ellipse cx="113" cy="72" fill="#fff" rx="4" ry="48"/><path fill="#4d6452" d="M212 120l-1 65-112-66z"/><path fill="#f2fbf7" d="M112 103l35-14 17 31z"/><path fill="#fff" d="M150.9 40L138 87.7l-2.2-39-21.3-3.2z"/><path fill="#426348" d="M135.5 141l9.7-22.6-4.1-36.4-4.9-6.4z"/><path fill="#fff" d="M167.7 69.5l27.9 8.9L175.3 40l-25.9 46.5zM50.3 41.8l29.3 42.6-4.1-21.6-26.6-3zM42 110h25v9H42z"/><path fill="#fffffa" d="M18 27l20 44-34 7z"/><path fill="#475845" d="M162 91l12-43 11 27z"/><path fill="#fff" d="M74 88h24v31H74z"/><path fill="#4b522d" d="M101.3 79.1l5.2 52.9.8-42.1 18.5-5.9z"/><path fill="#fff" d="M160 65h26v6h-26z"/><path fill="#505e42" d="M33.2 81.2l59.9-.8-67 9.6L23 68.9z"/><ellipse cx="243" cy="60" fill="#ebdac8" rx="40" ry="119"/><path fill="#3e4d35" d="M193.6 43.2l-30 .6-1.2-65 30-.6z"/><path fill="#fff" d="M180 93h7v26h-7z"/><ellipse cx="161" cy="94" fill="#0b0d00" rx="2" ry="17"/><path fill="#5c6a50" d="M16.6 17l16.3 42.3 6.9 16.8 20.1-6.2z"/><path fill="#1e4f2f" d="M129 49h7v38h-7z"/><path d="M51 107h12v5H51z"/><path fill="#fff" d="M16 127l23-41-30 9zm32-54h24v6H48zm5-31h21v7H53z"/><path fill="#f0feff" d="M195 89h22v31h-22z"/><path fill="#fff" d="M171.2 103l-2.3-8.2-14.9 27.7 12.9-6.1z"/><path fill="#f0cfaf" d="M106 126l4 59-33-81z"/><path fill="#2a503d" d="M212 111l-23.6-10.9-.4 10.3 17.8 2z"/><path fill="#fff" d="M42 89h9v27h-9z"/><path fill="#343922" d="M108 122h8v48h-8z"/><circle r="1" fill="#5e6c59" transform="matrix(6.1348 -52.23038 20.15737 2.36761 64.7 169)"/><path fill="#3e5443" d="M101.7 39.5l4.9 12.9 12.7-54.6 1.4 45.7z"/><path fill="#415f45" d="M203.4 52.3l-29.9-21.9L196 80.3l-6.7 47z"/><path fill="#fff" d="M127 92h9v28h-9z"/><path fill="#3a5540" d="M163 87l3-17 38 16z"/><circle r="1" fill="#eacdb5" transform="rotate(-17.7 519 9.6) scale(16.57387 58.48645)"/><path fill="#486e4d" d="M145 82l9-28-10-4z"/><path fill="#fff" d="M171.5 39.9L175 38l21.4 44-3.4 2z"/><path fill="#fffefa" d="M203 42h29v37h-29z"/><circle r="1" fill="#dbc3a9" transform="matrix(38.01515 12.5106 -11.59397 35.22981 251.8 152.8)"/><path fill="#fff" d="M107 100h28v8h-28z"/><path fill="#323f21" d="M48 96h22v4H48z"/><ellipse cx="140" cy="62" fill="#fff" rx="3" ry="21"/><path fill="#394331" d="M30 109l10-26v56z"/><path fill="#c8ebff" d="M253-16l14 49-60-28z"/><circle r="1" fill="#d4d6bf" transform="matrix(6.59988 96.8106 -1.75253 .11948 66.3 134.8)"/><path fill="#273b1b" d="M104 64h6v19h-6z"/><path fill="#fff" d="M163 88h8v27h-8zM91.6 59.8L89 38.7l-5 39.2 34.2-21.7z"/><path fill="#748570" d="M19 41l14-57 39 54z"/><path fill="#fff" d="M111 45h7v34h-7zm14-3h30v6h-30z"/><ellipse cx="162" cy="169" fill="#2f2217" rx="5" ry="50"/><path fill="#1f1007" d="M181.3 1.6l23.4-17 10 13.8-23.4 17z"/><path fill="#fff" d="M30 53l-2 16 13 13zm77 36h9v30h-9zm126-1h9v30h-9z"/><path fill="#2e4a2f" d="M60.8 46.8l13.2 7-2.8 5.4-13.2-7z"/><ellipse cx="247" cy="60" fill="#fff" rx="4" ry="21"/><ellipse cx="153" cy="128" fill="#a4b097" rx="3" ry="82"/><path fill="#fff" d="M47 51l25 10-14 4z"/><path fill="#253227" d="M59.9 159.6L61 185l-10.7-64 11.8-1.9z"/><path fill="#fff" d="M40 92l29 2-10-7z"/><path fill="#55776c" d="M191 119h20v51h-20z"/><path fill="#b2ad99" d="M207.8 74.8l14.7-3.5-28.5 16 77 .1z"/><path fill="#fff" d="M149 118l10-2-16-22z"/><ellipse cx="107" cy="45" fill="#4a5e43" rx="4" ry="13"/><path fill="#404b39" d="M190 20l-25 30-1-35z"/><circle r="1" fill="#cfbca0" transform="rotate(-53.8 141.8 -212) scale(10.91016 28.60016)"/><path fill="#e8ccb3" d="M24.6 32.3L-16 110.7 1.7-5.6 27.6-16z"/><path fill="#fff" d="M180 87h8v29h-8z"/><ellipse cx="46" cy="14" fill="#314940" rx="2" ry="56"/><path fill="#222a23" d="M121.2 99L115.8-3h1l5.4 101.8z"/><path fill="#fff" d="M42 112h25v7H42z"/><path fill="#3a4e36" d="M70.6 68.8l-1.8 4.7-21.4-8.3 1.8-4.7z"/><path fill="#364132" d="M120 108h7v58h-7z"/><path fill="#445340" d="M85.6 119.1l-16.7 48-.9-59 9.6 15z"/><path fill="#fff" d="M173.4 40.8l3.7 1.6-10.5 24.8-3.7-1.6z"/><path fill="#ceb288" d="M243 96h13v36h-13z"/><path fill="#fff" d="M45 100h20v7H45z"/><path fill="#d2b283" d="M-16 124l35.4.8-27.7-60.1 8.5 52.2z"/><path fill="#87ac8f" d="M124.5 126.8l8.1 52.5 1.1 5.7-1.7-66.8z"/><path fill="#75927b" d="M119 21h33v21h-33z"/></g></g></svg>