<svg xmlns="http://www.w3.org/2000/svg" viewBox="0 0 1400 904"><defs/><filter id="a"><feGaussianBlur stdDeviation="12"/></filter><rect width="100%" height="100%" fill="#7c6141"/><g filter="url(#a)"><g fill-opacity=".5" transform="translate(2.7 2.7) scale(5.46875)"><circle r="1" fill="#fff" transform="matrix(-233.14422 -103.28974 41.50568 -93.68607 151.9 58)"/><circle r="1" fill="#fff" transform="matrix(-49.26391 40.07213 -99.12596 -121.86359 207.3 48.6)"/><path fill="#d3dedd" d="M0 65h42v100H0z"/><path fill="#fff" d="M127 180L271 2 129-16z"/><circle r="1" fill="#1e5047" transform="matrix(28.70684 22.03048 -12.5778 16.38952 173 125.8)"/><ellipse cx="107" cy="101" fill="#747154" rx="21" ry="153"/><circle r="1" fill="#fff" transform="matrix(-25.47007 -5.2746 35.55902 -171.708 236.1 123.8)"/><path fill="#001702" d="M42 109h23v56H42z"/><circle cx="204" cy="127" r="9" fill="#001409"/><path fill="#4f2502" d="M-16 137l32-3 38-50z"/><path fill="#fff" d="M128 154h128v11H128zM9 0h36v25H9z"/><path fill="#73756d" d="M0 29h83v30H0z"/><path fill="#fff" d="M110 42l.9 12-27 2-.8-12z"/><path fill="#3e5e54" d="M208.3 143.8L169.7 161l-7.7-7.1-12.8-15.6z"/><circle r="1" fill="#3f3114" transform="matrix(-9.20607 4.83986 -7.59255 -14.44207 73.4 0)"/><ellipse cx="210" cy="61" fill="#fff" rx="52" ry="60"/><path fill="#414a30" d="M94 55h34v27H94z"/><circle r="1" fill="#fcffff" transform="rotate(72 53.2 102.4) scale(13.25726 32.58041)"/><ellipse cx="134" cy="88" fill="#fff" rx="7" ry="164"/><path fill="#ad8e67" d="M63 108h65v47H63z"/><path fill="#fff" d="M128 162l41 18-37-88z"/><path fill="#4d0200" d="M79 14h4v44h-4z"/><path fill="#f2f6f8" d="M23.2 110.1L-5.1 81.8l22-21.9L45 88.2z"/><path fill="#2c3d46" d="M91 8h13v33H91z"/><path fill="#fff" d="M210 145l40 35-89-18z"/><ellipse cx="63" cy="80" fill="#a9c2c8" rx="25" ry="30"/><path fill="#c7e4da" d="M166 142l25-7-26-13z"/><path fill="#101810" d="M158.4 104.3l-11.7 15-7-5.6 11.6-15z"/><ellipse cx="20" cy="159" fill="#d0cdc1" rx="23" ry="21"/><circle r="1" fill="#fff" transform="matrix(-27.74245 -7.64154 24.071 -87.3892 164.7 15.7)"/><path fill="azure" d="M115.6 49.1l48.6 6.9-81.3-2.9 39-13.3z"/><path fill="#2b3516" d="M65 111.9l-17.6 61.4-6-82.9-18 20.4z"/><path fill="#c6b7a4" d="M43.6 120.9L15.1 91.7l2.9 31 24.6 28.2z"/><path fill="#4d0000" d="M68.4 26.5h-5l.2-15h5z"/><path fill="#fff" d="M210.6 132.3l26.6-41 56.2 36.4-26.6 41z"/><path fill="#566c5f" d="M177.8 160.2l-20.5-8.8-7.7-17.3 41.1 16.5z"/><path fill="#453e12" d="M6 105L0 90l22 19z"/><path fill="azure" d="M85 0h5v52h-5z"/><path fill="#4f7067" d="M178 141.6l2.1-23.9 29.9 2.7-2.1 23.9z"/><path fill="#4c3519" d="M27.4 139.3l-15.6-24.1-27.8 14.2 26.7 1.6z"/><ellipse cx="102" cy="112" fill="#dac197" rx="10" ry="17"/><path fill="#afbdae" d="M129 54L97 21l29-25z"/><path d="M12.5 36.1l.1-1L43.5 38l-.1 1z"/><path fill="#73706e" d="M67.2 110L51 139.4 78.8 180l7.2-34.5z"/><path fill="#cfcec8" d="M76.6 44.5l3-7.3L78 20.6 53.8 38.2z"/><path fill="#1b130a" d="M79.6 40.7l2.8 17.8-10.9-11.3-1.4 2.6z"/><circle r="1" fill="#edf1ee" transform="rotate(13.8 -40.3 143.1) scale(26.87853 11.11766)"/><path fill="#3a3631" d="M-7 23l-8-37L8 0z"/><path fill="#fff" d="M130 81l-1 89 37 10zm48-81h18v114h-18z"/><circle cx="124" cy="59" r="4"/><path fill="#8a6a41" d="M85 129h43v36H85z"/><path fill="#7a7f74" d="M85 57h25v35H85z"/><path fill="#fff" d="M194.2 148.8L146.9 180h93.4l30.7-13.9z"/><path fill="#aba194" d="M85.8 160.9l-8.3 3.5-13.3-31.3 8.3-3.5z"/><circle r="1" fill="#e6e7e9" transform="matrix(-21.65722 5.24608 -9.10088 -37.57084 218.1 75.8)"/><path fill="#475b52" d="M150.8 97.3l21.8 2-18.8 10.2-5.4 25.5z"/><path fill="#6d3624" d="M57.4 26.7l11-6.2.9 12.1h-3.7z"/><path fill="#919b96" d="M57.3 95l45.9 15.3-47.4-.9-27.6 3.6z"/><path fill="#3c3e3b" d="M90 77l4 9 21-6z"/><path fill="#647569" d="M147.5 128.4l17.2 29.2-10.9-8.3 11.8-45.4z"/><path fill="#e2dbd4" d="M194 12h44v18h-44z"/><path fill="#544a41" d="M52 157h76v8H52z"/><path fill="#fff" d="M203.9 150l64.5-166 2.6 144.1-71.7 22.3z"/><ellipse cx="7" cy="60" fill="#92b5b2" rx="55" ry="6"/><path fill="#c1a378" d="M117.4 159l-26.2-24 39.4-38.9-35.2 61z"/><path fill="#ecf1f7" d="M82 44h33v11H82z"/><path fill="#c7cace" d="M211 143h29v13h-29z"/><ellipse cx="223" cy="4" fill="#fff" rx="95" ry="9"/><path fill="#b9c3c0" d="M52 108L37 74l65-21z"/><path fill="#486055" d="M211 123l-24-8 13 33z"/><path fill="#fff" d="M188.8 161.4l-2.5 12.8-49-9.6 2.4-12.8z"/><path fill="#4e5352" d="M89.1 16.6l31.2-22.4-22.7 9.2 14.6 13.3z"/><path fill="#1b2d09" d="M121 55h7v23h-7z"/><path fill="#86674d" d="M84.9-16l-.8 79.3-6.8-48.1L33-16z"/><path fill="#bdcfd2" d="M9.1 117.5l-.7-14.7-12.6-1.1L-16 119z"/><ellipse cx="47" cy="158" fill="#001000" rx="5" ry="16"/><path fill="#bcbeb1" d="M117.1 72.8l6.3-7.9 11 9.4-21.3-10.2z"/><path fill="#a3b8ae" d="M199 133l-29-14-10 22z"/><path fill="#110800" d="M53 133l10-4-20-21z"/><path fill="#acbbb7" d="M42.8 24.8l.4-20 22 .4-.4 20z"/><path fill="#dadcde" d="M138 40h14v54h-14z"/><path fill="#394241" d="M91 5h7v38h-7z"/><path fill="#c4a08c" d="M38.8 121.6l-26.4-8.8 42-37.1-42.9 49.9z"/><circle r="1" fill="#fcf5ed" transform="matrix(.7708 25.90362 -10.59765 .31535 33 2.5)"/><path fill="#c3bcb2" d="M86.7 46l-4.6-2.4 45.4-28.1 4.2-31.5z"/><path fill="#5d8579" d="M118.9 33.5L95.2 43.8l35.6-.4-10 8z"/><path fill="#f4d4b2" d="M73 112l11 17 1-19z"/><path fill="#fff" d="M155 85l38 32 1-115z"/><path fill="#fff" d="M153.8 91.5l19.8 3.7-46.1 1.9 10.5 18z"/><path fill="#a25832" d="M9.8 126.7l1.6-11.5 27.1-7.8-18.2 11.1z"/><ellipse cx="3" cy="23" fill="#7d7f80" rx="5" ry="13"/><path fill="#4f533c" d="M79 180l-37-49 25 8z"/><path fill="#e9e9ea" d="M193 49h46v60h-46z"/><ellipse cx="177" cy="150" fill="#55695d" rx="10" ry="8"/><path fill="#b2a372" d="M113 59.2l-12.3 13.3-.6-11.5 6.4-8.5z"/><path fill="#000100" d="M159 119l-1-4 2-4z"/><path fill="#ccbea0" d="M124 80h4v36h-4z"/><path fill="#d5e3e1" d="M70 15h8v22h-8z"/></g></g></svg>