<svg xmlns="http://www.w3.org/2000/svg" viewBox="0 0 1084 1400"><defs/><filter id="a"><feGaussianBlur stdDeviation="12"/></filter><rect width="100%" height="100%" fill="#3b5564"/><g filter="url(#a)"><g fill-opacity=".5" transform="translate(2.7 2.7) scale(5.46875)"><circle r="1" fill="#ffd7b9" transform="matrix(61.2705 -187.2296 82.87765 27.12154 148.8 151.6)"/><circle r="1" fill="#fe2d00" transform="matrix(5.1468 52.33112 -93.58759 9.2044 35.6 34.1)"/><circle r="1" fill="#ac1e00" transform="matrix(-19.81729 4.92438 -15.40132 -61.97987 116.8 97.2)"/><ellipse cx="51" cy="244" fill="#c6beb0" rx="197" ry="26"/><circle cx="41" cy="141" r="64" fill="#596d75"/><circle r="1" fill="#e6e0cf" transform="matrix(-46.1696 11.08735 -4.41482 -18.38406 155.7 178.2)"/><circle r="1" fill="#94adbe" transform="matrix(56.53289 13.99048 -4.12262 16.65874 23.2 133)"/><circle r="1" fill="#130800" transform="matrix(9.2682 2.59293 -11.02875 39.42133 34.5 192.8)"/><path fill="#b7c5bf" d="M203 98l-61 28-26-142z"/><path fill="#ccdcde" d="M74 102l12-33-38 1z"/><circle r="1" transform="matrix(-9.19846 -20.66009 6.2898 -2.8004 95 170.7)"/><circle r="1" transform="matrix(5.34762 -8.65853 12.93307 7.98763 67.7 119.5)"/><circle r="1" fill="#9e2c00" transform="matrix(52.57506 -49.02317 27.26407 29.23944 28.3 32.8)"/><path fill="#140000" d="M42 183l27-26-76 7z"/><circle r="1" fill="#bc8f6f" transform="matrix(-13.24645 7.79905 -48.72325 -82.75502 11.2 214.2)"/><ellipse cx="92" cy="52" fill="#edaf8f" rx="40" ry="6"/><circle r="1" fill="#d9e1d8" transform="matrix(-18.04027 11.1815 -6.67538 -10.77007 80.4 203.7)"/><path fill="#820600" d="M90.2 79.4l-.8 16.2 13.1-1.4 30.1-8.6z"/><circle r="1" fill="#a44513" transform="matrix(-16.35654 -25.87349 13.85692 -8.75998 125 128.9)"/><path fill="#ffdabb" d="M108 159l51 40-50-2z"/><path fill="#8d2c03" d="M102 32l15-48 11 80z"/><path fill="#a2c0d2" d="M73.6 66.3l25.2 38 16.6 58.5-24.9-41.7z"/><path fill="#fcd6b9" d="M51.4 248.6l-12.5 19.2L16 246.6l3-7.9z"/><circle cx="179" cy="11" r="59" fill="#9ca7a7"/><circle r="1" fill="#acb4ae" transform="matrix(-21.98236 3.46723 -20.44699 -129.6345 173 193.5)"/><path fill="#b9afaa" d="M58 96h105v10H58z"/><circle r="1" fill="#563e32" transform="matrix(5.9383 2.73132 -12.60729 27.41021 21 236.1)"/><path fill="#fff" d="M58 43h2v36h-2z"/><path fill="#000a0e" d="M75.7 126.9L94.2 145l-40.6-23.6 13.2-15.8z"/><circle r="1" fill="#571100" transform="rotate(-97.6 81.6 77.8) scale(5.69754 22.69959)"/><path fill="#eadac8" d="M125 61l1 17 43 3z"/><path fill="#97b1bb" d="M55.7 75.3L-16 96.8l57.2-11.5L86.9 76z"/><path fill="#627b8b" d="M7 163l-23-41 123 28z"/><circle r="1" fill="#4c7287" transform="matrix(8.37705 -2.24462 8.63413 32.223 84.2 119.8)"/><path fill="#b42c01" d="M-16 52.3l138.2 10.2L63.4 76l-9.6-26.8z"/><path fill="#6d270a" d="M113-16l6 26-99 9z"/><path fill="#790803" d="M128 116l-31-14 9 23z"/><path fill="#b95916" d="M108 11L96 44-16 32z"/><path d="M35 117l29-3 11 15z"/><ellipse cx="134" cy="157" fill="#a89e82" rx="21" ry="14"/><circle r="1" fill="#91a3b0" transform="matrix(1.5556 -5.8878 63.38523 16.74679 13.3 118.8)"/><path fill="#fff" d="M79.1 106.9l-.8.6L63 89.1l.8-.6z"/><path fill="#45341b" d="M106 199l-26-37 27 13z"/><circle cx="18" cy="60" r="25" fill="#9a1e00"/><circle r="1" fill="#7a95a3" transform="rotate(-54.1 222.9 40.7) scale(33.82834 8.71368)"/><circle r="1" fill="#f0b291" transform="matrix(.61052 7.50079 -5.95035 .48432 21 243.5)"/><circle r="1" fill="#878073" transform="matrix(12.62208 8.22402 -14.8945 22.8598 6.6 196.8)"/><path fill="#720000" d="M123 81h4v28h-4z"/><circle r="1" fill="#5f0b03" transform="matrix(35.557 -38.82026 3.62769 3.32274 10 13)"/><circle r="1" fill="#959a94" transform="matrix(-31.46176 -85.01265 18.52757 -6.85674 197 134.5)"/><path fill="#859195" d="M204.7 212l3.5 8.3L91.3 270l-3.5-8.3z"/><path fill="#ffdaa2" d="M31 230h13v9H31z"/><path fill="#2e5569" d="M70.4 154l-17.6 12.4L27.7 225l7.2.9z"/><path fill="#375a6a" d="M-16 104l77-25-3 39z"/><path fill="#af7c59" d="M146 209l-46-13h46z"/><path fill="#c7cdcc" d="M77.4 72.9l9 7.9-28.9-1.3L39.6 77z"/><path fill="#fff" d="M39.6 68.6l3.8 12.5-1 .3-3.8-12.5z"/><path fill="#8b1500" d="M127 80l-13 14-33-15z"/><circle r="1" fill="#ad4626" transform="matrix(-22.50706 -63.20716 .94206 -.33545 93.8 93.8)"/><path fill="#6c0000" d="M99 68.8v-4l26 .4v4z"/><path fill="#a53b07" d="M128 65h3v37h-3z"/><path fill="#d2d0c5" d="M137.2 62.4l14 1.4-4.4 41.8-14-1.4z"/><path fill="#c07c71" d="M121.3 79.5l-29.6.4-30.3-11.5 54.8 1.7z"/><circle r="1" fill="#8d1c16" transform="matrix(-1.74643 .01524 -.26175 -29.99327 99.2 57.2)"/><path fill="#351800" d="M10 241l3 17 8-4z"/><path fill="#a5c7d7" d="M86 148l-11-15 7 28z"/><path fill="#dc5108" d="M48.4 76.5l20-23.2-4.9 21.3-9.1-28.8z"/><path fill="#c4b1a2" d="M7.8 250.2L2.3 221-16 254.6 28.1 271z"/><path fill="#578096" d="M114.5 164.2l-14.4 7-6.6-13.4 14.4-7z"/><path fill="#f9f1de" d="M132 187l-23-19 8-6z"/><path fill="#202922" d="M85.3 162.8l-1.4-3.6 19 29.9-16.7-55.2z"/><circle r="1" fill="#7a827f" transform="matrix(30.179 -5.1044 1.84575 10.91274 197.5 137.3)"/><path fill="#740000" d="M112 65h2v50h-2z"/><path fill="#fff" d="M101 46h2v11h-2z"/><path fill="#5b6f7b" d="M-16 92l89-13-35 24z"/><path fill="#cd732a" d="M113 143h34v10h-34z"/><path fill="#c68782" d="M116.3 54.7l-.5 14.5-8.2-18.7 26.9-8.5z"/><path fill="#edfeff" d="M63 105l4-1-6-8z"/><path fill="#f6ffff" d="M95 69h2v13h-2z"/><path fill="#690806" d="M135 140l5-10-25 6z"/><path fill="#ef7402" d="M-14 45l40-19-30 2z"/><path fill="#cc4b09" d="M10 47h16v26H10z"/><path fill="#710700" d="M130.6 106.7l12.5 27.8-9.2-25.8-4.2-17.7z"/><path fill="#760905" d="M110 0h3v59h-3z"/><path fill="#7d090d" d="M98.5 48.3l15 45.5.8 4.2-9.6-18.3z"/><circle r="1" fill="#f5f5fe" transform="matrix(-.99999 -.00524 .03103 -5.9259 122.2 93.7)"/><path fill="#554c3d" d="M20 169h10v69H20z"/><path fill="#bf734b" d="M95 10.4l16.3 6.2 15.1-.7-36.7 10.2z"/><path fill="#4c6772" d="M86.1 122.1L32.5 82.8l33.4 26.3-5.6-22.8z"/><circle cx="127" cy="120" r="9" fill="#cb7d37"/><path fill="#0c1d1c" d="M35 167.5l-9.6 67.4 22.2-57.2 8.3-18.1z"/><path fill="#0c3445" d="M18 103l-29 1 53 13z"/><path fill="#fff" d="M98 95h2v11h-2z"/><ellipse cx="77" cy="207" fill="#c2c1b9" rx="21" ry="13"/><ellipse cx="68" cy="56" fill="#ffca90" rx="10" ry="2"/><path fill="ivory" d="M74 48h3v8h-3z"/><path fill="#c7cac2" d="M162.9 186.4l-35-10.9 4.3 1.7 62.7-34.2z"/><path fill="#801201" d="M-3 88l37-22 5 13z"/><path fill="#c24617" d="M55 42h3v36h-3z"/><path fill="#c74205" d="M75 39.7l-7.2 27.1-13.5-45.9 20.4 45.6z"/></g></g></svg>