<svg xmlns="http://www.w3.org/2000/svg" viewBox="0 0 1400 1120"><defs/><filter id="a"><feGaussianBlur stdDeviation="12"/></filter><rect width="100%" height="100%" fill="#2c3352"/><g filter="url(#a)"><g fill-opacity=".5" transform="translate(2.7 2.7) scale(5.46875)"><circle r="1" fill="#2e73db" transform="matrix(238.01434 -1.28532 .24174 44.76438 113 108.9)"/><circle r="1" fill="#000910" transform="rotate(88.3 52 67) scale(23.33144 255.00004)"/><circle r="1" fill="#254376" transform="matrix(-205.90108 3.9535 -.42857 -22.32009 125.7 153.2)"/><circle r="1" fill="#3569c1" transform="rotate(-89.8 102 2) scale(15.78006 206.94981)"/><circle r="1" fill="#153563" transform="rotate(-91.1 109.2 -58) scale(25.75171 251.31815)"/><circle r="1" fill="#0f1d21" transform="matrix(.05442 -15.58888 240.97158 .84115 170.3 203)"/><circle r="1" fill="#294681" transform="matrix(254.99721 -1.19237 .06474 13.84616 193 68.6)"/><circle r="1" fill="#090f12" transform="matrix(196.37622 -2.56105 .1283 9.83742 121.7 3.1)"/><circle r="1" fill="#15253e" transform="matrix(-.35346 -14.26759 215.43564 -5.33717 96.5 33.4)"/><circle r="1" fill="#2a4274" transform="rotate(88.5 -27.4 128.9) scale(12.43844 213.54555)"/><ellipse cx="194" cy="182" fill="#1b3150" rx="245" ry="11"/><path fill="#3566b7" d="M-16 80l101 49 31-29z"/><path fill="#2c56a4" d="M153 84l35 53-87-72z"/><path fill="#3163b5" d="M-16 83.4l97.9 62.4-38.4-16.3-21.2-5.1z"/><path fill="#2b54a4" d="M202 89l-58-24 84 70z"/><path fill="#2f59a9" d="M146 139l-29.4-49.4-47.1-21.3 5.8 18.2z"/><path fill="#2a4272" d="M99.6 188.8l-49-17.2 15.8-38.8 12 33.4z"/><path fill="#1a2230" d="M129.1 191.6l94.1 27.4-112.8-60.5L223.8 206z"/><circle r="1" fill="#263d6c" transform="rotate(-34.6 273.6 33) scale(12.91765 26.14717)"/><path fill="#31599a" d="M89 148.1L63.7 139 75 108l25.3 9.2z"/><path fill="#233760" d="M117.2 154.3l-8.3 26.3 84.3-4.9-111.9-46.5z"/><path fill="#2951a0" d="M271 143l-77-74 47 17z"/><circle r="1" fill="#2e4f8c" transform="rotate(-61.9 214.2 -104.2) scale(6.58493 55.11888)"/><path fill="#253c68" d="M213 147.3l58 28.1-71.9 3.2-18.9-45z"/><path fill="#2c56a4" d="M134 112.4L73.8 81.1l-16.1 26.2-39.4-41.6z"/><path fill="#1b2330" d="M266.8 215.6l-107.1-51.5 41 13.8 70.3 27.2z"/><path fill="#3f74be" d="M104 110L75 89l-2 24z"/><path fill="#1c345c" d="M42 43h200v16H42z"/><path fill="#294881" d="M271 94.5l-4.8-19.9-58.7-18.2 4.4 18.4z"/><path fill="#19202a" d="M217.4 219l53.6-27.2-87.6 27.2-95.2-50.7z"/><circle r="1" fill="#4578c0" transform="rotate(60 -23.8 163) scale(12.78078 3.6106)"/><path fill="#4073bc" d="M162.1 96.2l15 20.3 5.1-10.3-15.5-13.4z"/><circle r="1" fill="#2b4072" transform="rotate(-53.4 148.8 -134.8) scale(7.42492 23.02376)"/><path fill="#2b477d" d="M153.5 66.8l-53.2-20 24 26.5 43.3 18.8z"/><path fill="#3e75c2" d="M32 105l39 15-35-27z"/><path fill="#1a212b" d="M145 217.6L57.9 177l64.8 20.4 13.8 9.1z"/><path fill="#273d69" d="M141.4 145.4l91.5 45.2-40.6-32.7-53.1-25.1z"/><path fill="#244580" d="M-13 67l59 27L4 57z"/><path fill="#22324f" d="M58.4 205.8l-60.7-18.5-13.7-31.1 51.5 32.7z"/><path fill="#152a4b" d="M12.7 43l60.2 26.5-32.2-29.4L-16 12.4z"/><path fill="#2c487f" d="M223 157l-47-5-43-39z"/><path fill="#161c1f" d="M57.6 193.5l86.1 25.5-69.1-6-23.4-24.2z"/><path fill="#263f74" d="M3 41l56 23-9 15z"/><path fill="#2b4173" d="M60.5 61.6l6-12.7 29 13.5-6 12.7z"/><path fill="#2c4678" d="M214 135.2l57-4.2-39.5-10.4 27.9 47.7z"/><path fill="#202c44" d="M271 186l-20 11-46-35z"/><ellipse cx="98" cy="13" fill="#121b2b" rx="178" ry="6"/><path fill="#2f538f" d="M6.3 110.6L-16 124.3l45.5 35.5-39.2-12.5z"/><circle r="1" fill="#366dc1" transform="matrix(-25.5051 -15.70584 2.26785 -3.68282 2.2 106.6)"/><path fill="#253b66" d="M78.3 144.4L48 137.9l100.3 54.4-25.1-26.3z"/><ellipse cx="238" cy="24" fill="#19253c" rx="132" ry="10"/><path fill="#223251" d="M50 168.8l56.4 39.1-57.9-22.4-25.6-25.6z"/><path fill="#2e508a" d="M52.8 137.6l23.6 24.7-54.7-22.4-17.1-25.2z"/><path fill="#2f5eae" d="M62 118l51 20-56-46z"/><path fill="#3663b4" d="M109.3 121.1l2-5.7 27.4 9.5-2 5.7z"/><path fill="#182b4c" d="M44.5 37.9l98 6L69.6 15l42.6 53.2z"/><path fill="#3868b8" d="M210 90l44 34-46-18z"/><path fill="#253b68" d="M191.4 45.8l-21.8 14.7 59.2 16.9L223 70z"/><path fill="#2953a6" d="M40 121l-56-42 24-1z"/><circle r="1" fill="#305dad" transform="matrix(-34.52703 -15.64973 1.0061 -2.2197 213 124.4)"/><circle r="1" fill="#294272" transform="matrix(-33.34562 -15.36889 1.31341 -2.84968 17.5 171)"/><circle r="1" fill="#161f24" transform="matrix(-.95924 2.42493 -33.25113 -13.15335 28.5 200.5)"/><ellipse fill="#091115" rx="198" ry="5"/><path fill="#151b1e" d="M218.4 212.2L190.3 199l3.3-7.3 28.1 13.1z"/><path fill="#1a2e51" d="M174.4 20.1l-4.3 4.7 28 25.1 46.8 17.8z"/><path fill="#2b508d" d="M88 120l4.4-6.7 45.6 30.8-4.4 6.6z"/><path fill="#3566b5" d="M15.8 132.4L-16 108.9 5.5 93.3l-15.1 40.9z"/><path fill="#163055" d="M11.3 62.9L-16 44.3V20.7l45.1 44.4z"/><path fill="#13192a" d="M130 34L60-16l31 39z"/><path fill="#151d2d" d="M151.2-16l64.4 51.9-37.3-12.7-36.8-36.7z"/><circle r="1" fill="#233252" transform="matrix(-2.75418 4.01473 -24.5917 -16.87033 98.5 180.1)"/><path fill="#2a4274" d="M122.7 160.5l52.8 22.6-95.9-54 44.9 40z"/><circle r="1" fill="#1a2d4e" transform="matrix(-24.93782 -12.8588 4.2365 -8.21609 233.4 37.2)"/><path fill="#162135" d="M101.5-11.2L163.6 35l6.1-15.3-31.9-13.9z"/><path fill="#274681" d="M209.1 89.6L207.6 77l-38.3-20.9 15.1 21.8z"/><path fill="#2e59aa" d="M186 131l-31-10-3-41z"/><path fill="#3469bb" d="M241 90h15v4h-15z"/><path fill="#202b43" d="M178 187l-55-22 50 38z"/><circle r="1" fill="#293f6e" transform="matrix(-14.02516 -10.30436 3.92259 -5.339 246.8 58.6)"/><path fill="#2f5494" d="M169 128l61 22-21-19z"/><path fill="#161e2e" d="M234.8 9.2L190.3-7 271 43.1l-65.1-29.3z"/><path fill="#1a2b4a" d="M110 13.3L137 43l57 20-51.5-35.6z"/><path fill="#2e5493" d="M24.8 105.9l9 4.9 39.5 34.3L99 133.8z"/><path fill="#1b2f53" d="M139.4 41.5l8.4 21.3L97.9 45l24.8-12z"/><path fill="#2d4578" d="M151.6 158.1l8.8.7 42.1 18.6-85.6-53.3z"/><path fill="#1f293c" d="M42.5 203l-11-12.9 32.2 4.6-45-17.2z"/><path fill="#0e1725" d="M4.9 5.5l56.8 4.1L-4.9-16l94.2 53.8z"/><circle r="1" fill="#212d47" transform="matrix(-2.31256 3.2582 -24.3947 -17.31449 201.1 186.2)"/><path fill="#2d5599" d="M247.9 69.3L271 147l-25.4-5 18.8-61.2z"/><path fill="#23385f" d="M207.3 165l-45.6-1.2-43.4-21.8 52 41.3z"/><path fill="#3768b9" d="M116.6 126.8l-64-44.4.4-.5 40.8 14.8z"/><path fill="#274984" d="M76.4 87.4L66.1 60.8 50.4 72.7l8.1 9.8z"/><path fill="#3565b4" d="M131.6 112.5l-11.1-20.3-13.7-10.4-3.9 5.2z"/><path fill="#192743" d="M40 24h61v15H40z"/><path fill="#2a5396" d="M146 80l29-6 16 27z"/><path fill="#141b1b" d="M259 219l-22-23 26 3z"/><path fill="#293f6e" d="M178.9 148.6l23.2 13.5-18.1-27.9 81.9 51.9z"/><circle r="1" fill="#2e56a1" transform="matrix(-22.23363 -13.9533 3.57528 -5.69697 136.3 85.5)"/><path fill="#263c6a" d="M115.9 49.5l-19.6-4.8 9.2 20.5 24.8 10.2z"/><circle r="1" fill="#294c86" transform="matrix(-6.60463 1.49632 -2.4025 -10.6044 107 74.2)"/></g></g></svg>