<svg xmlns="http://www.w3.org/2000/svg" viewBox="0 0 1400 1120"><defs/><filter id="a"><feGaussianBlur stdDeviation="12"/></filter><rect width="100%" height="100%" fill="#453027"/><g filter="url(#a)"><g fill-opacity=".5" transform="translate(2.7 2.7) scale(5.46875)"><ellipse cx="158" cy="40" fill="#fffff5" rx="255" ry="71"/><path fill="#ff9824" d="M204 219L-16 71v148z"/><circle r="1" fill="#ffffd3" transform="matrix(-2.83495 -31.36542 204.1786 -18.45462 59.2 48.4)"/><circle cx="76" cy="124" r="39" fill="#4e1100"/><path fill="#e06a00" d="M140 30l131-40L0-5z"/><path fill="#faf1b0" d="M271 6l-59 21 59 178z"/><circle r="1" fill="#614860" transform="rotate(92.9 60.9 118.9) scale(24.33535 40.00341)"/><ellipse cx="93" cy="34" fill="#ffe" rx="147" ry="13"/><ellipse cx="177" cy="118" fill="#ffb700" rx="13" ry="12"/><circle r="1" fill="#ffba08" transform="rotate(-173.7 43.2 96.7) scale(45.02404 24.10001)"/><ellipse cx="224" cy="3" fill="#be4600" rx="255" ry="7"/><ellipse cx="201" cy="187" fill="#8c2f17" rx="88" ry="33"/><path fill="#000009" d="M29 144l-19-27-26 43z"/><path fill="#0c0308" d="M76 114l-26 34 2-81z"/><path fill="#ffa529" d="M96.9 137.4l28.4 1.1-27.4 44.4 4.3-48.3z"/><circle cx="210" cy="94" r="22" fill="#efb386"/><path fill="#fdc492" d="M113 103l117 8L57 45z"/><path fill="#001547" d="M163 68h28v20h-28z"/><path fill="#360000" d="M207 102h33v60h-33z"/><path fill="#ffb33f" d="M64 136h20v40H64z"/><path fill="#ff7600" d="M16 99h26v36H16z"/><ellipse cx="51" cy="57" fill="#f48932" rx="70" ry="6"/><path fill="#fff4db" d="M63 68h21v26H63z"/><circle r="1" fill="#c79e71" transform="rotate(-147.1 40.5 88.6) scale(19.63773 30.08561)"/><ellipse cx="128" cy="64" fill="#e6f7f8" rx="16" ry="22"/><path fill="#e85100" d="M112 86h16v16h-16z"/><ellipse cx="91" cy="125" fill="#3b0d0b" rx="10" ry="45"/><path fill="#300000" d="M101 163l170-12-124-31z"/><path fill="#efd495" d="M151 13L30 9l92 29z"/><path fill="#932900" d="M35.2 13.3l-23-22.7.5 24 16.6 7.8z"/><path fill="#260b10" d="M53 183.9l-9.6-86.6 27.9 18-11.6 64.4z"/><path fill="#c0d3de" d="M184 114.3l16-65.7 7.1 24.5-2.5 34.5z"/><path fill="#a1746c" d="M157 41h69v24h-69z"/><path fill="#ffea9f" d="M97.6 190.5l4-24.7 10.8 1.7-4 24.7z"/><path fill="#f5fffd" d="M24 22h78v31H24z"/><path fill="#edd0a3" d="M169 172h5v32h-5z"/><path fill="#f0e8e9" d="M2.2 103.4l30.3-10.5-23.2 5.4-13.6-46.5z"/><path fill="#ad5d50" d="M240.4 164.6l-.8 24-36-1.2.8-24z"/><ellipse cx="178" cy="119" fill="#ff8400" rx="8" ry="16"/><path fill="#ffa002" d="M207 102h18v13h-18z"/><path fill="#763104" d="M13.1 95l-7.7-9.5 18.8-4.2.9 14z"/><path fill="#652810" d="M152 86h79v3h-79z"/><path fill="#ffbc00" d="M180 30l17-12-3 13z"/><path fill="#a65f5d" d="M117.6 164.7l36.9-3.3 1.9 22-36.9 3.2z"/><path fill="#bcf180" d="M244 108h10v33h-10z"/><path fill="#e7a42d" d="M239.8-8.4l-23.1 41.1L271 11.4l-29.6 29.8z"/><path fill="#e1dad2" d="M31 142h53v3H31z"/><circle r="1" fill="#eff8f8" transform="matrix(2.65355 -5.3957 67.87461 33.37999 241.7 46.8)"/><path fill="#f2e1da" d="M26 64h19v36H26z"/><path fill="#ffc012" d="M125.5 43.4l-14.2-11-11.9 9.8L115 12.9z"/><path fill="#b66729" d="M153 95l7 19-20 3z"/><path fill="#d4e4f1" d="M118.9 64.1l-52.5.1 48.4 33.4-9.1-19.4z"/><ellipse cx="73" cy="168" fill="#f5ffff" rx="11" ry="3"/><path fill="#9a5d3e" d="M25 83.7l-20.1-.4 14.8 8.4L22.6 18z"/><circle r="1" fill="#e6dbcd" transform="matrix(-8.58762 -9.6006 2.61992 -2.3435 80.6 88.6)"/><ellipse cx="240" cy="2" fill="#aa5807" rx="77" ry="11"/><path d="M121.5 216.2l-1-26 10-.4 1 26z"/><path fill="#180000" d="M173 176.1l26-3.1 2 16.9-25.8 3.1z"/><path fill="#6a1900" d="M91 162.8l-63.6-3.1 17.6 2.5 4.7-33z"/><path fill="#b6797b" d="M144 39h17v49h-17z"/><path fill="#ffd60b" d="M-8.2 24.6l27.1-8L4.5 31.1-16-16z"/><circle r="1" fill="#3c0200" transform="matrix(3.51454 2.1778 -23.2668 37.548 156.9 187.5)"/><path fill="#ffe353" d="M100 139h26v6h-26z"/><path fill="#ee7c06" d="M64.1 91.7l16.3 21.8-7.2-3.2L85 93.8z"/><path fill="#dfbd86" d="M9.3 151.8l21.3-2.4 9.8 37.7 10.1-21.8z"/><path fill="#190005" d="M11 127l-27 23 47-2z"/><path fill="#c9a994" d="M156 10h94v12h-94z"/><path fill="#290000" d="M229 194l26-31-24 56z"/><path fill="#d4ddf2" d="M177 54h4v22h-4z"/><ellipse cx="210" cy="136" fill="#2c0805" rx="31" ry="21"/><path fill="#b99b95" d="M21 121h3v49h-3z"/><path fill="#fa0" d="M85 20L75 30l5-19z"/><ellipse cx="87" cy="159" fill="#0c0000" rx="3" ry="23"/><circle r="1" fill="#e2851a" transform="matrix(5.92578 29.12616 -2.22375 .45243 74.3 138.5)"/><path fill="#e96c00" d="M33 139L5 99l41 1z"/><path fill="#734b29" d="M57.2 96.3l12.3-19.8L57 83.6 26.2 95.1z"/><path fill="gold" d="M145 32l12-13-26 10z"/><path fill="#eef7fb" d="M130 30l19-21-42 22z"/><path fill="#221511" d="M40 135.4l2.7-26.7 21.1-27.9-8.6 52.7z"/><path fill="#aea4b5" d="M-4.4 114.9l16.4-4.4 2.4 8.6-16.4 4.4z"/><path fill="#e89432" d="M162.7 73.2l13.8 69.9 14.6-35.2-27 15z"/><path fill="#fff6e6" d="M-16 18L9 9l5 11z"/><path fill="#fffffe" d="M181 12l-24 26-42 6z"/><path fill="#e8d7d3" d="M204 89l-41-2 42 25z"/><path fill="#39170f" d="M93 139l-7-41 91 31z"/><path fill="#b04700" d="M224 80v12l12-15z"/><path fill="#dbd6cc" d="M114 45l31 40v35z"/><path fill="#dbe8ff" d="M109 9l-14 5 16 14z"/><path fill="#b5a04e" d="M236 66.1l-5.2 30 1.9-44.9 26 14.8z"/><path fill="#e36700" d="M102 74l16-1-7 9z"/><path fill="#e29700" d="M34 180h55v10H34z"/><path d="M112 166l4 7v-19z"/><path fill="#0e0000" d="M4 177l-1 16-8-11z"/><path fill="#003458" d="M185 87l14-22-37 13z"/><path fill="#7a4724" d="M242 140h14v32h-14z"/><path fill="#a85814" d="M112 14h19v8h-19z"/><path fill="#dbdff4" d="M156.7 97.4l17.8 6.8-3.2 8.4-17.8-6.8z"/><path fill="#a47c66" d="M10 150h22v54H10z"/><path fill="#e4e6f1" d="M-3.5 64L-16 120.3l30-46.8 49.9-8.2z"/><path fill="#fff" d="M255 47l-12-31 24 28z"/></g></g></svg>