<svg xmlns="http://www.w3.org/2000/svg" viewBox="0 0 1400 1119"><defs/><filter id="a"><feGaussianBlur stdDeviation="12"/></filter><rect width="100%" height="100%" fill="#3d683d"/><g filter="url(#a)"><g fill-opacity=".5" transform="translate(2.7 2.7) scale(5.46875)"><circle r="1" fill="#fff" transform="matrix(61.9112 -140.95013 233.47053 102.55005 134.3 59.8)"/><circle r="1" fill="#fff" transform="matrix(-21.1456 -129.84953 209.50264 -34.11686 123 26.2)"/><circle r="1" fill="#006303" transform="matrix(33.6996 5.77275 -1.84 10.7414 211 155.5)"/><ellipse cx="37" cy="45" fill="#fff6f2" rx="108" ry="122"/><ellipse cx="107" cy="195" fill="#ecae9b" rx="154" ry="42"/><circle r="1" fill="#754228" transform="matrix(49.74719 -32.55307 10.8212 16.53683 50.6 193.7)"/><path fill="#3e6648" d="M109.2 118L183 38l5.2-30.7L201.8 44z"/><circle r="1" fill="#fff" transform="matrix(16.51456 80.69122 -32.7569 6.70415 237.2 57.6)"/><ellipse cx="213" cy="184" fill="#ecece4" rx="64" ry="17"/><path fill="#7c84a0" d="M89.3 13.5l.7 16.7.8 74-29.1-81.4z"/><circle r="1" fill="#fffffa" transform="matrix(-10.33698 21.76964 -41.51175 -19.71123 146 22.9)"/><circle r="1" fill="#ffeee2" transform="matrix(-68.08185 57.73761 -20.23464 -23.85987 172 112.3)"/><path d="M186.8 90.2l1.3-2.7 17.1 8.3-1.3 2.7z"/><path fill="#1a2d0a" d="M180 10l20 47-3-34z"/><ellipse cx="70" cy="2" fill="#fff" rx="167" ry="16"/><circle r="1" fill="#008a44" transform="matrix(0 -14.10383 22.5643 0 217.9 152.7)"/><path fill="#632816" d="M82 183l-95-4 52 21z"/><path fill="#3f7f6a" d="M124 106.1l10.3-19.4L144 92l-10.3 19.4z"/><path fill="#494600" d="M75 35.3l19.2 8.4-14.4-17.6-4.4 5.9z"/><ellipse cx="22" cy="45" fill="#fff9f6" rx="43" ry="94"/><path fill="#3c3700" d="M192.3 67.3l-20-28.9 3.9 1.9L191 55.4z"/><path fill="#fffbe4" d="M68.8 43.3l6.8-10.9 63.1 49.2-30.8 12.1z"/><path fill="#375bc0" d="M78.9 54.5v20.9l18 21.5-2.6-13.8z"/><circle r="1" fill="#cdbc9c" transform="matrix(-38.25277 -11.62823 3.54662 -11.66712 35.5 155.7)"/><path fill="#d6cbaf" d="M104 140h75v58h-75z"/><path fill="#fff3e5" d="M139.6 81.4l39.5-59.9 24.7 40.3-64-48.6z"/><path fill="#c0bb9b" d="M91.3 193.7l1 10-81.6 8.6-1-10z"/><circle r="1" fill="#fef5f0" transform="matrix(-.1282 -18.36168 86.41578 -.6033 130.7 123)"/><path fill="#2d4022" d="M203.3 57.1l-8-6.9-3.3-26.6L204.8 53z"/><path fill="#3d3a00" d="M128 59l11 2 1 9z"/><path fill="#9fbe93" d="M215 119h31v25h-31z"/><circle r="1" fill="#558e81" transform="rotate(139.8 70.5 60.4) scale(15.97598 8.58055)"/><path fill="#052c8f" d="M65.3 29.2l2.6 16.2 4.4-27-1.5-.5z"/><path fill="#66937e" d="M155 65l-32 33 7 15z"/><path fill="#9b523b" d="M31.4 187l-46.5-29.6 40.8 16.2 60.4 7.5z"/><ellipse cx="225" fill="#fff6f6" rx="32" ry="67"/><path fill="#016d33" d="M170 152h75l-17 16z"/><ellipse cx="190" cy="91" fill="#031300" rx="7" ry="3"/><path fill="#3a3600" d="M84.8 39.2l.5-.9 15.9 8.5-.5.9z"/><circle r="1" fill="#e3dcd2" transform="matrix(-90.22583 -38.7525 4.14844 -9.65865 199.8 180.9)"/><path fill="#d0c2a4" d="M136.5 219l-55-32.3 30.4-21.6 77.4-28.5z"/><circle cx="189" cy="60" r="3" fill="#030a00"/><path fill="#0a2381" d="M92 23l-6 2-10-8z"/><circle cx="158" cy="95" r="16" fill="#fef1db"/><path fill="#fff5ed" d="M142 33L60 14l168-24z"/><path fill="#fffbe7" d="M71 27l37 34-38-12z"/><circle r="1" fill="#f6eee4" transform="rotate(-101.1 102.5 21.4) scale(34.27887 25.42736)"/><path fill="#871700" d="M-9.8 154.5l10.7 6.6 18.9 13.6-.8 6.3z"/><path fill="#ada591" d="M168 183l-23 22 68-6z"/><ellipse cx="43" cy="192" fill="#5b3320" rx="30" ry="5"/><path fill="#d6caaf" d="M23 173l-39-43 83 34z"/><path fill="#e9ead8" d="M186 132h68v8h-68z"/><path fill="#89a581" d="M235.3 122.5l-2.1 37 16.1 1.4-10.5-43.3z"/><path fill="#5c75bf" d="M77 52l7 36 16 3z"/><path fill="#b68f7b" d="M29 186l-17-6 38-4z"/><path fill="#082f21" d="M184.1 51.4L160.5 67l10.3-10.6-7.4 2z"/><path fill="#f8efeb" d="M204 0h52v118h-52z"/><path fill="#fff5e9" d="M80 25l87 16-21 26z"/><path fill="#424700" d="M94 41l-13-3-4-12z"/><path fill="#c6b598" d="M0 140h37v14H0z"/><path fill="#f8eede" d="M186.4 25.6l-1.9 8.2L211.7 68l-17.3 19.5z"/><path fill="#005b28" d="M231 161h18v4h-18z"/><path fill="#3e5b39" d="M187 14h7v15h-7z"/><path fill="#4d4a00" d="M167.1 35l.7-.7L182.9 49l-.7.8z"/><path fill="#ded2ca" d="M286.3 155.8l-37.5 65-25.1-14.6 37.5-65z"/><ellipse cx="139" cy="109" fill="#e1d9c5" rx="88" ry="3"/><circle r="1" fill="#a4886c" transform="matrix(3.7921 -28.8039 9.09084 1.19683 82 181.9)"/><ellipse cx="70" cy="90" fill="#f9eacf" rx="13" ry="27"/><path fill="#213c18" d="M191 91h14v4h-14z"/><circle r="1" fill="#a7c6b3" transform="rotate(135.6 73.5 68.6) scale(13.89982 4.57167)"/><path fill="#85764f" d="M157 198h13v6h-13z"/><path fill="#5f1600" d="M-9.3 167.5l-4.5 5.7L17 193.1l1.7-1.1z"/><path fill="#f7ebd7" d="M89.4 93.8l39.9-33.6-8.6 58.9-50.9-22.5z"/><path fill="#eee0be" d="M-.2 183.9l4.5 2.2-4.1 8-4.5-2.2z"/><circle cx="187" cy="57" r="3" fill="#2a3600"/><path fill="#f0e9dc" d="M271 138l-72-49 72 4z"/><ellipse cx="155" cy="141" fill="#c6b79e" rx="51" ry="2"/><circle cx="63" cy="135" r="25" fill="#f4eceb"/><path fill="#f9ecde" d="M96.8 46.7L72.4 32.8l29 64.5 36.2-43.4z"/><path fill="#7da678" d="M188 151l-9-7-7 11z"/><path fill="#6371a8" d="M63.7 30.2L69.5 47l10.6 10 2.1 19.6z"/><path fill="#06298f" d="M74 19h6v4h-6z"/><path fill="#fffce6" d="M81 25l27 9-19 2z"/><circle cx="18" cy="14" r="49" fill="#fef4f3"/><path fill="#141b00" d="M138 66l-2 1-2-5z"/><path fill="#fff6f0" d="M122.8-16L184 47.6l6.7-8.3L174.1-2z"/><path fill="#a3c4a3" d="M217.8 135.9l1.5-18 25 2.2-1.6 18z"/><path fill="#f7f3ef" d="M38 112h170v28H38z"/><path fill="#204020" d="M189.2 19.7L203.8 56l-1 .4L188.2 20z"/><path fill="#82a693" d="M124 92h11v18h-11z"/><path fill="#f2ecde" d="M235.6 92.2l-123.1 19.1 79.9-1.1 14.1 31.3z"/><path fill="#bcb396" d="M260.2 209.3l-9.1-41.6-64 .1 65.5 6.8z"/><path fill="#09984f" d="M189.4 145.7l16.9 14.3 44.5-5.8-39.6-7.9z"/><circle r="1" fill="#002484" transform="matrix(-.65606 -.75471 3.92924 -3.41564 70.3 22)"/><path fill="#fff2e0" d="M182 55l14 26-19 7z"/><path fill="#986145" d="M91.5 164.2l14 7.3L92.7 156l-30.6 33.4z"/><path fill="#c8c2b3" d="M165.6 41.2l-26-27.8.8-.6 26 27.8z"/><path fill="#fdfbf9" d="M67 0h160v14H67z"/><path fill="#002d92" d="M66 22h3v18h-3z"/><circle cx="74" cy="25" r="4" fill="#fffff3"/></g></g></svg>