<svg xmlns="http://www.w3.org/2000/svg" viewBox="0 0 420 280"><defs/><filter id="a"><feGaussianBlur stdDeviation="12"/></filter><rect width="100%" height="100%" fill="#735d49"/><g filter="url(#a)"><g fill-opacity=".5" transform="translate(.8 .8) scale(1.64063)"><circle cx="98" cy="134" r="232" fill="#92c0e2"/><circle r="1" fill="#4f1e00" transform="matrix(-13.96708 26.83052 -79.668 -41.47253 191.3 155.7)"/><circle r="1" fill="#d4e6e3" transform="matrix(65.37709 -34.78058 18.68006 35.11293 44.6 114.7)"/><path fill="#744625" d="M133 3h42v167h-42z"/><circle cx="229" cy="88" r="51" fill="#83bee2"/><path fill="#fffff9" d="M128.9 174.6l2.8-45.1-12 7.7-16.2 47.8z"/><ellipse cx="148" cy="57" fill="#f8c9a9" rx="15" ry="28"/><circle r="1" fill="#1d5599" transform="matrix(4.4248 -32.72655 73.16028 9.89166 191.4 0)"/><circle cx="57" cy="18" r="66" fill="#6093c5"/><circle r="1" fill="#56290b" transform="matrix(-14.51932 -.3168 .88952 -40.76682 165.7 100)"/><circle r="1" fill="#bc8347" transform="matrix(62.98954 -64.55731 11.95668 11.66631 83.5 147.5)"/><circle r="1" fill="#471600" transform="matrix(-6.30516 15.6091 -17.0957 -6.90566 138.7 16.7)"/><circle r="1" fill="#35321d" transform="matrix(68.21825 -1.83445 .38662 14.37733 208.8 162.8)"/><circle r="1" fill="#f1dea1" transform="matrix(11.51422 9.62028 -22.84512 27.34262 91 114.5)"/><path fill="#a4bfd7" d="M174 54l70 7-82-44z"/><path fill="#bad8e1" d="M186 102h20v30h-20z"/><path fill="#ffffce" d="M112 134h17v36h-17z"/><path fill="#9cb8cd" d="M-16 61l155 3-152 87z"/><path fill="#7c5021" d="M119 96l-8 66-27-4z"/><path fill="#fffcff" d="M45 158l38 27H12z"/><path fill="#3d74a8" d="M14 24l-30 34 154 4z"/><path fill="#8baecc" d="M149 44L86 11l35 77z"/><path fill="#530d00" d="M56 167l20-15-8-9z"/><path fill="#755532" d="M228.8 130.3l.4 10-42 1.4-.4-10z"/><path fill="#a9916e" d="M101 100h56v12h-56z"/><circle r="1" fill="#862a02" transform="rotate(-11.8 340.7 -769.3) scale(5.9635 22.69359)"/><circle r="1" fill="#5581b0" transform="matrix(-4.90712 18.21857 -59.82248 -16.113 214.8 26)"/><path fill="#060000" d="M131.6 8.4l16.9 22.7 8.9-6.1-7.1-24z"/><circle r="1" fill="#e9c99f" transform="matrix(-41.86739 22.07417 -1.33072 -2.52393 124 94.3)"/><path fill="#fffcff" d="M104 161l-23 6 34 18z"/><path fill="#949eac" d="M117.3 40.9L-12.9 6.1l22.8-10L144.1 20z"/><path fill="#002f49" d="M0 165h31v5H0z"/><path fill="#5f452b" d="M103 111h81v22h-81z"/><path fill="#43200b" d="M145 84h36v13h-36z"/><path fill="#c98053" d="M133.5 25.6L168.4 63 127.6 5.4l2.9 41.1z"/><path fill="#4b6266" d="M225 175.2l-1.9-26 36-2.4 1.8 26z"/><ellipse cx="106" cy="86" fill="#ae4528" rx="10" ry="4"/><ellipse cx="141" cy="65" fill="#d9ded5" rx="4" ry="22"/><path fill="#7e6e54" d="M128 182.7l4.1-53-4.4 1.3 43.7 3.7z"/><path fill="#e6dec7" d="M43 89h86v8H43z"/><path fill="#9fc1c5" d="M231 124h25v24h-25z"/><path fill="#d8855b" d="M153 51h12v29h-12z"/><path fill="#85351f" d="M130 97l-15 36 1-33z"/><circle r="1" fill="#709ab6" transform="rotate(-81.2 67.2 37) scale(6.05269 28.10117)"/><circle r="1" fill="#5a6b90" transform="rotate(71.7 -78.3 133.7) scale(6.88815 15.46425)"/><path fill="#97acbe" d="M157 23l82 26-49 19z"/><ellipse cx="111" cy="62" fill="#5e8fb9" rx="19" ry="16"/><path fill="#eae8c0" d="M68.4 131l13.9-29.5L100.6 79l-3.9 46.7z"/><path fill="#8c6f3d" d="M93 131.9l28.6 3.2-22.2-43.8 6.3 27.8z"/><circle r="1" fill="#3d240a" transform="matrix(36.17436 -3.38373 .51137 5.46693 182.8 155.4)"/><path fill="#45301f" d="M117.2 137.1l-3.8-18.4 47.6 16.6 1.6-22.9z"/><path fill="#923c13" d="M140 41l-9-14 15-17z"/><ellipse cx="40" cy="121" fill="#7ca9c4" rx="33" ry="6"/><path fill="#b9aa7e" d="M71 136h44v8H71z"/><circle r="1" fill="#669ec3" transform="matrix(2.03573 -11.44747 45.67257 8.12208 224.2 94)"/><path fill="#9ab9c6" d="M184 102h41v29h-41z"/><path fill="#9d9576" d="M159 104.9l-27.6-11.1 2.8 20.9L131 130z"/><path fill="#572818" d="M87 153l-5 8 29-2z"/><ellipse cx="147" cy="71" fill="#554946" rx="3" ry="10"/><path fill="#91b6d3" d="M192 60l-12 19-8-29z"/><ellipse cx="168" cy="75" fill="#4c2616" rx="5" ry="37"/><path fill="#d6ccba" d="M150.2 39l-2.1-9.9L126.4 72l18-16.2z"/><path fill="#6280a2" d="M129 3l66.1 1.8L12.4-16l101.2 34.3z"/><path fill="#f1b896" d="M65 140l-18 18 5 7z"/><path fill="#886648" d="M231.3 186.7L218.9 133l7.8-1.8 12.4 53.6z"/><path fill="#ffe7cb" d="M114 136h16v34h-16z"/><path fill="#acbdc0" d="M84 160H70l11-14z"/><path fill="#572f18" d="M170.6 118.8l-11.1-22.2-26.4 6.2 41.3-33.6z"/><path fill="#9ea9af" d="M42 163.6l59.5 21.4-84.3-39.7-33.2 22.5z"/><ellipse cx="34" cy="77" fill="#9fb3c2" rx="95" ry="10"/><ellipse cx="113" cy="87" fill="#9f3f18" rx="6" ry="3"/><circle cx="175" cy="104" r="4" fill="#beb97d"/><ellipse cx="107" cy="164" fill="#593413" rx="2" ry="20"/><path fill="#bfb892" d="M102.7 97.9l58.7 1.1-21 6.7 4.8-11.1z"/><path fill="#261708" d="M161.9 126.1l-20.3 4.8.7 1 38.9.3z"/><path fill="#b3c6d2" d="M70 121L27 82h67z"/><path fill="#000110" d="M123 8h4v11h-4z"/><path fill="#2e2014" d="M271 159.4l-32.3 6.8-4.6-4.4 5.6-3.7z"/><path fill="#bf7b53" d="M162.4 74.5l5.4-2.1L157 27.5l-10.5 23.6z"/><path fill="#cca597" d="M135.8 17.6l-3.2 3.9-8.4-7.1 3.2-3.9z"/><path fill="#4f73a0" d="M158 27.4l89-5.9 24-23.9L149.2-16z"/><path d="M136 4l20 19-3-15z"/><path fill="#ced2c8" d="M142.3 27.7l1-.3 10.4 49-1 .2z"/><path fill="#786a54" d="M139 153l55-22 38 14z"/><path fill="#582603" d="M71 150l-2 13-9 1z"/><path fill="#d38561" d="M169 73.1l-27.9 19.8-26.9-1.7 35.7-9.6z"/><path fill="#bdb190" d="M91.4 100.6L87 156.3l-28.9-16.6 10.8 2.4z"/><path fill="#86774e" d="M177 124l3-26 8 29z"/><path fill="#7b2e09" d="M128 31h12v5h-12z"/><path fill="#000d0b" d="M128 97l5 3h-10z"/><path fill="#315c68" d="M238.5 174.7l17.5-27.8-28.5 3.9 38.4 20.5z"/><path fill="#b28b5f" d="M121.5 106.1l-40 42.4 37.6-49.4 5.5 41.6z"/><ellipse cx="133" cy="70" fill="#534b41" rx="1" ry="15"/><path fill="#f5edf7" d="M33 168l11 17 4-25z"/><path fill="#5a503e" d="M157.5 133.5l6.4 6.3-20.5-24 4.1-13.6z"/><path fill="#bfb08d" d="M102 144h4v12h-4z"/><circle r="1" fill="#a3c1c8" transform="rotate(-10.2 813 -1118.3) scale(28.04248 3.10045)"/><path fill="#c9c598" d="M114.9 98l-18.3-4.2 10.2 10.6 7.2 9.1z"/><path fill="#d08052" d="M123 24l6 8 6-15z"/><ellipse cx="142" cy="104" fill="#c6b28b" rx="14" ry="4"/></g></g></svg>