<svg xmlns="http://www.w3.org/2000/svg" viewBox="0 0 1400 933"><defs/><filter id="a"><feGaussianBlur stdDeviation="12"/></filter><rect width="100%" height="100%" fill="#623c42"/><g filter="url(#a)"><g fill-opacity=".5" transform="translate(2.7 2.7) scale(5.46875)"><circle cx="100" cy="133" r="204" fill="#fff"/><ellipse cx="54" cy="2" fill="#fff" rx="130" ry="133"/><circle r="1" fill="#393831" transform="matrix(-8.1834 -52.77224 40.24788 -6.24125 178.7 125.7)"/><ellipse cx="104" cy="92" fill="#fffffe" rx="33" ry="169"/><circle r="1" fill="#e4af5a" transform="matrix(34.69045 58.61541 -38.97412 23.06612 236.2 54)"/><circle r="1" fill="#fff" transform="matrix(111.59416 -3.11937 .63607 22.75516 29.1 98.1)"/><ellipse cx="155" cy="39" fill="#ffffe4" rx="30" ry="39"/><ellipse cx="60" cy="129" fill="#676c63" rx="27" ry="10"/><circle r="1" fill="#e9ffff" transform="matrix(5.74536 -15.8623 156.76174 56.7794 5.2 160)"/><ellipse cx="225" cy="162" fill="#614534" rx="131" ry="6"/><ellipse cx="52" cy="1" fill="#fff" rx="131" ry="16"/><path fill="#fff" d="M93 168h163v2H93z"/><ellipse cy="85" fill="#fff" rx="7" ry="169"/><path fill="#24b037" d="M95 147h50v7H95z"/><path fill="#f7d5a9" d="M263 163.8l-59.7-23.9 20.5-20.2 47.2-7.6z"/><path fill="#ffe1dc" d="M177.3 132.6l2.2 13.8-18.8 3-2.2-13.8z"/><path fill="#e5c4a3" d="M182.7 94.7l61.1-69.9-70.3 18.6.2 43.3z"/><ellipse cx="29" cy="35" fill="#fff" rx="109" ry="7"/><path fill="#b8bbb3" d="M122 16l-51 2 32 41z"/><path fill="#4c4b44" d="M271 168.2l-73.6-14.1 73.6-4.9-63 15.5z"/><path fill="#524e54" d="M135 118l19-44 72 66z"/><ellipse cx="222" cy="2" fill="#7f6355" rx="39" ry="9"/><ellipse cx="53" cy="58" fill="#fff" rx="84" ry="6"/><path fill="#fafffc" d="M91 59h43v88H91z"/><ellipse cx="241" cy="135" fill="#6a342f" rx="26" ry="3"/><ellipse cx="116" cy="163" fill="#ff6a53" rx="22" ry="4"/><path fill="#f6ebd8" d="M128.4 158.8l14.7 24.1-10.8 2.1 9.6-69.3z"/><path fill="#404447" d="M137 143h18v25h-18z"/><ellipse cx="237" cy="122" fill="#fffff7" rx="20" ry="5"/><path fill="#ffedbb" d="M200 31h37v16h-37z"/><path fill="#aab9b5" d="M6 143h77v23H6z"/><path fill="#a27b5b" d="M184 0h15v54h-15z"/><path fill="#fff" d="M.8 106.7l-.5-28 85-1.4.4 28z"/><path fill="#fcffff" d="M127.9 168.3l-51.2-1.7 1.9-14L32 185z"/><path fill="#fff" d="M140 168h116v2H140z"/><ellipse cx="67" cy="108" fill="#a1a39b" rx="70" ry="2"/><ellipse cx="238" cy="23" fill="#b86b3b" rx="18" ry="8"/><path fill="#986f62" d="M205.4 38.5L179 84.8l38.1 2.1-19.9-8z"/><path fill="#fefffd" d="M136.3 27.9L-9.6 30.2 118 43.7l17.2 90.4z"/><ellipse cx="240" cy="109" fill="#976c50" rx="29" ry="6"/><path fill="#aaafa5" d="M47 65h44v12H47z"/><path fill="#60615e" d="M42 154h24v8H42z"/><ellipse cx="163" cy="18" fill="#fff8e5" rx="21" ry="48"/><ellipse cx="9" cy="33" fill="#5f5d4c" rx="2" ry="23"/><ellipse cx="112" cy="159" fill="#fff" rx="22" ry="2"/><ellipse cx="229" cy="74" fill="#edc887" rx="29" ry="16"/><circle r="1" fill="#fff3e3" transform="matrix(-23.04058 1.06227 -.25335 -5.49507 241.3 145.3)"/><ellipse cx="48" cy="6" fill="#fff" rx="42" ry="11"/><path fill="#7e8c87" d="M7 129h25v21H7z"/><path fill="#f9daa7" d="M135 0h9v98h-9z"/><path fill="#a8a89f" d="M88 41h29v12H88z"/><path fill="#fff" d="M0 167h135v3H0z"/><ellipse cx="1" cy="169" fill="#fff" rx="6" ry="168"/><path fill="#f8eee3" d="M200.7 62.7l-42.3-41.9 22.2 36.1 11.8 7.2z"/><path fill="#ee9e3d" d="M227 127h29v6h-29z"/><path fill="#cdcbc2" d="M85 122h40v18H85z"/><path fill="#585254" d="M193 83h16v34h-16z"/><path fill="#5c524a" d="M51 121h30v4H51z"/><path fill="#48524a" d="M64.5 141.8l1.2-5.9 11.8 2.3-1.2 5.9z"/><path fill="#af7356" d="M241.6 49.7l23 11.2-45-4-13.4 11.4z"/><path fill="#241807" d="M81 17h2v16h-2z"/><path fill="#69625a" d="M230.8 168.3l21.4-5.3-59.8-26.9-49.7 26.9z"/><path fill="#fff" d="M21.5 33l-25.2 4 18.9-11.8 6 33.2z"/><path fill="#cbccc8" d="M45.5 129.2l1.6-5.7 39.4 11.3-1.6 5.7z"/><path fill="#443f2d" d="M57.2 59l-1.4 20h-1l1.4-20z"/><path fill="#b4b8ad" d="M81 47l-41 3 10-16z"/><path fill="#ffead4" d="M142 129l-8-13-1 42z"/><path fill="#fdffff" d="M27.9 122L42 54.1l17.3 37.8-7.6-34.6z"/><path fill="#c0c6c1" d="M14.7 120.4l79.7 39.8-38.5-8.5 2.1 10.7z"/><path fill="#5d584b" d="M114.1 21.7l.5-.9 15.3 7.5-.5.9z"/><ellipse cx="159" cy="101" fill="#5b5553" rx="15" ry="26"/><path fill="#e4e2c6" d="M198 12h32v5h-32z"/><path fill="#342f1e" d="M21.5 64.5l1 .2-2 10.8-1-.2z"/><path fill="#585245" d="M89 57h2v12h-2z"/><path fill="#fce4cc" d="M148 76l-9-26 54 19z"/><ellipse cx="165" cy="137" fill="#fff4e9" rx="4" ry="5"/><path fill="#44412e" d="M35 29.5l-1-11h1l1 11z"/><path fill="#4d4d3a" d="M23 18h2v11h-2z"/><ellipse cx="63" cy="118" fill="#fff" rx="73" ry="3"/><path fill="#666155" d="M129 11h3v8h-3z"/><path fill="#201301" d="M76 22h2v6h-2z"/><path fill="#22210e" d="M35 66h2v10h-2z"/><path fill="#f7d89b" d="M218 43l47-9-4 17z"/><path fill="#fff" d="M94 155h41v4H94z"/><path fill="#fdffff" d="M2 53h84v12H2z"/><path fill="#5f635d" d="M69.2 136.7l1.9 7.8-10.7-2.5-13-9z"/><ellipse cx="104" cy="35" fill="#645d50" rx="1" ry="19"/><path fill="#5d5447" d="M90 25l5-2-6-4z"/><path fill="#c6cadd" d="M185 99.2l-12.7-16.6 3.2-7.2.4 4.3z"/><path fill="#595044" d="M98 36h2v17h-2z"/><path fill="#404332" d="M8 65h2v11H8z"/><path fill="#ebebe9" d="M89.2 51.4l7.4-2.3 5.8-.8 8.3-28z"/><path fill="#fcfffd" d="M82.5 55.7l-16-13.3-1 37.6-6.6-15.7z"/><path fill="#847b74" d="M58.7 122.4l-5.6 2 23.7-4.7 13.3 17.9z"/><path fill="#6a6266" d="M224 113l-70-34 36 80z"/><path fill="#babeb7" d="M0 112h77v3H0z"/><path fill="#626454" d="M24 66h3v10h-3z"/><path fill="#77594e" d="M206.3 84.6l-19.2-3.1 16.3-20-8.5 16.2z"/><path fill="#d6a25f" d="M240 55l-37 11 26 15z"/><path fill="#e8d9cd" d="M207 140h30v5h-30z"/></g></g></svg>