<svg xmlns="http://www.w3.org/2000/svg" viewBox="0 0 1400 933"><defs/><filter id="a"><feGaussianBlur stdDeviation="12"/></filter><rect width="100%" height="100%" fill="#4d3f38"/><g filter="url(#a)"><g fill-opacity=".5" transform="translate(2.7 2.7) scale(5.46875)"><circle r="1" fill="#daf8ff" transform="rotate(133.4 106.7 71.8) scale(62.21828 44.73476)"/><path fill="#d3e1df" d="M63.4-64.6l67.2 67.2-116 116-67.2-67.2z"/><ellipse cx="71" cy="168" fill="#d2b393" rx="163" ry="16"/><path fill="#b4ab8d" d="M111 134L20 10l108 63z"/><circle r="1" fill="#9aa5a5" transform="matrix(1.42993 14.5746 -103.28588 10.13348 173 0)"/><ellipse cx="43" cy="26" fill="#fff" rx="23" ry="10"/><ellipse cx="237" cy="146" fill="#00060d" rx="19" ry="65"/><path fill="#d8eeff" d="M271 73.1l-2.3 31.5-17.5-.9-24.5-65.1z"/><path d="M167 88l-49-19 34 84z"/><ellipse cx="200" cy="111" fill="#796b7f" rx="38" ry="23"/><circle r="1" fill="#0f1519" transform="matrix(51.58662 8.26934 -3.3494 20.89454 26.3 131.8)"/><ellipse cx="101" cy="42" rx="20" ry="10"/><ellipse cx="205" cy="66" fill="#000607" rx="2" ry="98"/><path fill="#c7d5ef" d="M244.8 39L240 84.7 205.2 81l4.8-45.7z"/><circle r="1" fill="#bfa98b" transform="matrix(-1.62255 27.3107 -22.02747 -1.30867 43.3 80)"/><ellipse cx="35" cy="14" fill="#2a363d" rx="34" ry="6"/><ellipse cx="207" cy="144" fill="#00070e" rx="139" ry="9"/><circle r="1" fill="#6b7152" transform="matrix(-10.3093 -3.94258 16.72004 -43.72057 185.6 42.6)"/><path fill="#141a19" d="M59 43h10v35H59z"/><ellipse cx="19" cy="49" rx="2" ry="57"/><path d="M17 49h42v4H17z"/><ellipse cx="119" cy="82" fill="#160d00" rx="49" ry="3"/><path fill="#b39d6d" d="M98 88h28v42H98z"/><path fill="#9c9d9f" d="M69 0h53v33H69z"/><path fill="#f5f0de" d="M25 16h33v29H25z"/><path fill="#8f92a0" d="M229.6 91.1l-27.7 52.2 5.9-60.7-34.1 18.6z"/><circle r="1" fill="#543a0f" transform="rotate(41.6 4.3 216.7) scale(20.67183 49.37416)"/><path fill="#c2ac93" d="M84.6 113.9l-7.2 14.4-38.7-76-16.6 5.2z"/><ellipse cx="192" cy="169" fill="#7d6a59" rx="39" ry="17"/><path fill="#d095ad" d="M167 94h21v17h-21z"/><ellipse cx="7" cy="165" fill="#beab97" rx="56" ry="12"/><path fill="#201f23" d="M76.1 149.1l31.3 9.4-12.5-56.1-5.1-11.8z"/><path fill="#1a1f1a" d="M209.1 153.3l41.4-68.5-16.3-3.5-24.1 56.1z"/><path fill="#e7feff" d="M248 78h8v24h-8z"/><circle r="1" fill="#1c1910" transform="matrix(-1.48867 -.03638 2.0782 -85.03482 205.6 15.1)"/><path fill="#d7c499" d="M90.1 84.6l21.9 1.3-7.7 5.9 1.5 44.6z"/><path fill="#0f0e03" d="M31 33l2 18h11z"/><path fill="#7d8177" d="M68 53h53v20H68z"/><circle r="1" fill="#acc0d6" transform="matrix(5.80557 25.88093 -11.39756 2.55668 0 77)"/><path fill="#babb96" d="M171 55h32v24h-32z"/><ellipse cx="67" cy="18" rx="1" ry="60"/><path fill="#352426" d="M187.7 111.3l-9 25.9 15.4-.9 16.1-49.2z"/><path fill="#5e422f" d="M49 124l28-21-40-22z"/><path fill="#aebcca" d="M69 71h24v10H69z"/><path fill="#7b7c90" d="M229 110h7v27h-7z"/><circle r="1" fill="#181c1c" transform="rotate(94.9 11.6 22.4) scale(2.11695 30.52951)"/><path fill="#959798" d="M70 12l87 4 2-32z"/><path fill="#fff" d="M22 19h30v14H22z"/><path fill="#6b7372" d="M48 19l37 24-27-30z"/><path fill="#2d302c" d="M183 95.5V34.1l-5.6 47.3-96.8-.3z"/><ellipse cx="239" cy="36" fill="#9faab6" rx="32" ry="28"/><path fill="#68502d" d="M120.4 116.6l-12.4-3.8 17.6-57.4 12.4 3.8z"/><path fill="#616e77" d="M13 58l6-71H-1z"/><ellipse cx="153" cy="169" fill="#846d58" rx="82" ry="17"/><ellipse cx="160" cy="22" fill="#060e0c" rx="2" ry="96"/><path fill="#010405" d="M174 115l-48-31 11 34z"/><path fill="#e0c898" d="M52.7 51l5.7-.6 1-17-38.7-2.2z"/><path fill="#d3c19b" d="M23 53h36v25H23z"/><path fill="#0c0e01" d="M144 52h63v2h-63z"/><path fill="#8b8878" d="M88.1 16.2L68.5 61l48.2-53.4 8.7 40z"/><path fill="#8d8289" d="M13 80h32v27H13z"/><path fill="#b6bbb1" d="M182.2 76.7l-10.1 7.6 32.5 1.9-1.9-26z"/><path fill="#3e393c" d="M38 133h127v11H38z"/><path fill="#000306" d="M99.7 31.5L77.8 51.7l25-.8 17.5 1.9z"/><path fill="#661820" d="M166 101h29v6h-29z"/><path fill="#77747f" d="M188 83h44v18h-44z"/><path fill="#aea691" d="M98.8 115.3l37.8 11.8-4.9-14.7-28.7 23z"/><path d="M180.5 18.2v-1l27-1.4v1z"/><path fill="#623f15" d="M121 18h32v64h-32z"/><circle r="1" fill="#0a0b0b" transform="matrix(51.42995 25.83772 -4.27303 8.50546 247.7 161.5)"/><path d="M26 109h12v27H26z"/><path fill="#262011" d="M159 16h23v29h-23z"/><path fill="#3d414a" d="M18 99l8-1-12-17z"/><path fill="#989792" d="M39.7 74.5L2.5 88.7l75.9-6.9-38.8-10.9z"/><ellipse cx="183" cy="90" rx="6" ry="5"/><path fill="#593104" d="M96 72.7l24-.4v7l-24 .4z"/><circle r="1" fill="#7f8e96" transform="rotate(-47.9 240.6 -171.4) scale(13.53676 7.16068)"/><ellipse cx="54" cy="14" rx="14" ry="2"/><ellipse cx="2" cy="57" fill="#b7c6d5" rx="2" ry="51"/><path d="M215 126l8 8 4-28z"/><path fill="#bccadd" d="M207 57h49v25h-49z"/><path fill="#161e2b" d="M72 80h16v8H72z"/><path fill="#5a513b" d="M59 59h65v6H59z"/><path fill="#1a1914" d="M246.2 82.2l-17.9 12.6 40.6 90.2-19-79.8z"/><path fill="#c1ddfa" d="M171.4 56l2.3-8.7 3 .7-2.4 8.7z"/><path fill="#a891a1" d="M175.7 108.8l19 3.3-17-19.5-10.2 36.3z"/><path fill="#161310" d="M98.9 127.7L70.7 80.1l19.1 49.1 5-31.1z"/><path fill="#6e5544" d="M58.3 183.4l113.6-29.3 43.4 30.9-66.3-16.8z"/><path fill="#cedef7" d="M15 42h2v35h-2z"/><path fill="#b79ead" d="M176.2 120.8l5.4 4.7 13.3-4.9-25.6 1.5z"/><path fill="#bdc3cc" d="M188 98.9l4.1-26.7 6 1-4.2 26.6z"/><path fill="#4d472d" d="M192 19l4 26 3-26z"/><path fill="#472f1b" d="M40.3 85l13.6 4.4 8.6 19.4 9 27.6z"/><path fill="#332223" d="M168.2 110.4l25.8 3.8 15.3-17.1-11.9 28.3z"/><path fill="#747370" d="M59 41l32 21-14-30z"/><path d="M209-.3l-5 46.7h-1l5-46.8z"/><path fill="#b9a889" d="M24 32h10v16H24z"/><path fill="#27282f" d="M0 108h27v46H0z"/><ellipse cx="12" cy="106" fill="#886f78" rx="17" ry="5"/><path fill="#a3866b" d="M102.5 152.6l32.6 8.6L57 178.1l18.7-20.2z"/></g></g></svg>