<svg xmlns="http://www.w3.org/2000/svg" viewBox="0 0 1400 1120"><defs/><filter id="a"><feGaussianBlur stdDeviation="12"/></filter><rect width="100%" height="100%" fill="#2c2c4c"/><g filter="url(#a)"><g fill-opacity=".5" transform="translate(2.7 2.7) scale(5.46875)"><path fill="#ffffd4" d="M115 44l69-6-74-31z"/><path fill="#ffe9a6" d="M260 211l11-32-91-34z"/><circle r="1" fill="#fff071" transform="matrix(-9.5355 -11.36775 20.51495 -17.20837 155.7 122.1)"/><circle r="1" fill="#f1dfa6" transform="matrix(-25.47 1.3777 -.90078 -16.65305 115.5 191.5)"/><path fill="#fffde4" d="M189.4 88.9l23.4-30 7.8 6.2-23.4 30z"/><circle r="1" fill="#8f933d" transform="matrix(-40.85987 24.5776 -8.46266 -14.06903 26.8 58.8)"/><path fill="#f9e78b" d="M-16 134.5L5.4 188l-21.4-4.3 48.4 7.6z"/><path fill="#ffff95" d="M90 135l-38-13 3 23z"/><path fill="#f0d97a" d="M79.9 78.2l9.8-12.6 28.4 22.2-9.8 12.6z"/><circle r="1" fill="#a4a55f" transform="rotate(-124 134.9 -46.6) scale(25.56364 19.0217)"/><path fill="#ffd0b6" d="M113 11h25v29h-25z"/><path fill="#1c203f" d="M153-16l-19 72 35-32z"/><path fill="#ffede8" d="M15 82l-29-30 40 23z"/><ellipse cx="112" cy="201" fill="#00000b" rx="16" ry="7"/><circle r="1" fill="#ffedc3" transform="matrix(9.41726 -7.54674 12.55924 15.67214 255 200.9)"/><path fill="#ffe4c6" d="M126 177l15 19-49-6z"/><circle r="1" fill="#a8af4d" transform="matrix(14.76024 15.02013 -6.93523 6.81523 213.1 158.4)"/><path fill="#ffef8e" d="M164 95l-11 45-12-19z"/><path fill="#6f9224" d="M115.8 186l-33.6-5.2 2-12.9 33.6 5.3z"/><path fill="#23284a" d="M193 170L57 147l147-17z"/><path fill="#fffff7" d="M246 48.5l-7 5.8-9-10.8 7-5.8z"/><ellipse cx="59" cy="78" fill="#1c2039" rx="29" ry="28"/><path fill="#535861" d="M197 84h52v29h-52z"/><path fill="#fff1d9" d="M174 34l-20 3-2 10z"/><circle cx="31" cy="156" r="27" fill="#191c30"/><path fill="#6a7bc8" d="M143 193.7l-10.5-3.4 6.5-20 10.5 3.4z"/><path fill="#c8b4b5" d="M50.4 111.6L61.8 122l28.4 11.6-24.1 1z"/><path fill="#59642c" d="M14.3 75.5l86.1-53.8L-6.3 34l22.4 41.4z"/><ellipse cx="34" cy="11" fill="#14162c" rx="48" ry="27"/><path fill="#fcf2df" d="M-4.3 164l27.9 24.3-3.3 3.7-27.9-24.3z"/><path fill="#ffd5bb" d="M88.9 55.6l6 21.1-5.8 1.7-6-21.1z"/><path fill="#5f6f37" d="M134.4 120.3l17.4-13.9-19.3 34.7-27.9-14.2z"/><path fill="#cecdb0" d="M21 108l4 8-15 11z"/><circle cx="218" cy="196" r="19" fill="#242c50"/><path fill="#171a33" d="M3 115l-19-53 79 46z"/><circle r="1" fill="#0d1644" transform="matrix(6.97329 -3.85037 6.64683 12.03788 248 34.7)"/><path fill="#1b1e3d" d="M148.8 35.7l2.8.9L111.5-16l60.7 48.8z"/><path fill="#ffd299" d="M212 85.2l-14.1-5.1 4.1-11.3 14.1 5.1z"/><path fill="#ffffe1" d="M144 30l-19 12 24-7z"/><circle r="1" fill="#79993a" transform="rotate(-16.4 691.2 71.9) scale(4.57429 27.01987)"/><path fill="#ffd71e" d="M121 85l-21 4 5 9z"/><circle r="1" fill="#fbf8d2" transform="matrix(.56662 -.82398 21.28027 14.63357 0 31)"/><path fill="#f2f3d9" d="M123 189l-22-5-18 12z"/><path fill="#1a2033" d="M91 36h26v28H91z"/><path fill="#262c4f" d="M236.7 35.7L218 111.4l-12.6-3.1L224 32.6z"/><path fill="#37487c" d="M219.6 163.7l48 38.4-19.5-15.9-11.2-21.9z"/><ellipse cx="54" cy="134" fill="#998924" rx="6" ry="11"/><path fill="#8b8f3e" d="M239.4 8.2l-15.6 17 10.6 7.3 25-8.2z"/><path fill="#867c22" d="M186 109l-35 21 13-25z"/><path fill="#bbbdad" d="M203.7 17.2l-1.5-1.4 26.1-29 1.5 1.4z"/><path fill="#a19834" d="M236 115l-21-11 26-3z"/><circle r="1" fill="#20243c" transform="rotate(-23.7 315.6 -174.3) scale(34.44058 12.77537)"/><path fill="#f3dcb2" d="M154 138l-20-15 30 6z"/><path fill="#283055" d="M263.6 207.1l-28.5-70.5 9.3-3.7 28.5 70.5z"/><path fill="#232948" d="M271 77l-63-49-49 15z"/><path fill="#0a103f" d="M92.4 97.4L75.9 74.7l5.7-4 16.5 22.6z"/><path fill="#798a60" d="M77.9 33L36.4 47.3 96 15.1 74.9 48.2z"/><path fill="#ffd7d5" d="M201.8 162.2l1.9-2.4 20.5 16-1.9 2.4z"/><path fill="#aa9fa0" d="M155.4 40.1l-17.3 22.8L173.5 32l10.1 1.7z"/><path fill="#1a1e34" d="M81 213l3-76-81 76z"/><path fill="#dcc749" d="M241.3 197.4L222.7 163l18.8 19.1 8 36.9z"/><ellipse cx="16" cy="104" fill="#bbb9aa" rx="3" ry="5"/><circle r="1" fill="#88730e" transform="matrix(-17.08495 15.51056 -3.0061 -3.31124 32 44.4)"/><path fill="#cebd9a" d="M123 133l25-4-16 10z"/><path fill="#f5c3b0" d="M109.1 24l15.3-7.5L134.9 38l-15.3 7.4z"/><circle r="1" fill="#2f324f" transform="matrix(-24.39535 -36.03178 10.05073 -6.80486 187.7 162.6)"/><path fill="#fffff9" d="M169 0h5v3h-5z"/><path fill="#eac1c2" d="M238.4 169.1l16.1 16.7-5.9-14.2-7.9-6.6z"/><path fill="#e1aeaa" d="M108.7 163.8l24.5 27.1 8.6 9.2-14 .1z"/><circle r="1" fill="#222748" transform="matrix(-.85673 -24.53348 13.9043 -.48555 137.2 97.7)"/><path fill="#262c46" d="M81.6 118.5l69.9 28.1-7.5-17-36.9 53.4z"/><path fill="#20243d" d="M6.2 169.4l88.3 12.2 9-2-14.6 13z"/><path fill="#272c4a" d="M185 110l-50-25 75-70z"/><path fill="#d2b9b9" d="M65.4 138L52 108.1l9.6 19.2 34.5 6.7z"/><path fill="#36511d" d="M243 4l-13 8 11 24z"/><path fill="#171836" d="M89 158l14-14-29-9z"/><path fill="#62643a" d="M103.6 192.9l19 1.9L84.8 208l8.2-12.1z"/><path fill="#f5d0c8" d="M24.4 73.7l-11.2 1.2-13-16.6-8.7 13.6z"/><path fill="#ffff6b" d="M246 19l16 13 9-6z"/><path fill="#000168" d="M6 64L0 54l15-3z"/><path fill="#202541" d="M136.1 61l-14.6 29.8-6.8-36.6 43.6-24.1z"/><path fill="#968e34" d="M148.8 128l29.6-20.1 7.4-2.7-19.7 26.8z"/><circle r="1" fill="#40434f" transform="matrix(.31958 3.2291 -33.42525 3.30811 41 65.1)"/><path fill="#1d203d" d="M89 49V1l40 58z"/><path fill="#fffed9" d="M180 31l-2 6-11-2z"/><path fill="#2d3252" d="M230.6 178.5L64.5 217.3l180 1.7-8.4-29.5z"/><circle r="1" fill="#dbb9ae" transform="matrix(2.92236 -.85791 3.75087 12.77688 93 76.4)"/><path fill="#fff8d8" d="M110 10h4v14h-4z"/><path fill="#ddafb0" d="M228.1 26.1l2.8 6.1 5.4 1.3-7.8-15.3z"/><path fill="#b4b2a5" d="M87.6 28.7L61.2 64l-.8-.6L86.8 28z"/><circle cy="160" r="6" fill="#ffbdc5"/><path fill="#ffd7cb" d="M205 66l11-5-9 20z"/><path fill="#303557" d="M215 0h14v139h-14z"/><path fill="#888ac3" d="M230 84h16v6h-16z"/><path fill="#1f213b" d="M66 179L34 92 4 170z"/><path fill="#20223d" d="M66 56h21v73H66z"/><circle r="1" fill="#282c48" transform="rotate(-49.9 71.9 -143.4) scale(10.1504 46.09446)"/><circle r="1" fill="#d0ceb5" transform="matrix(-.67671 -.73625 11.13933 -10.23856 14.8 123.6)"/><path fill="#e5d173" d="M155 124.5L133.6 139l21.3-36.2 12.2-3.4z"/><path fill="#928a41" d="M207.5 91.5l-6.8 5.3 5.2-15.4 14.1-11z"/></g></g></svg>