<svg xmlns="http://www.w3.org/2000/svg" viewBox="0 0 1400 933"><defs/><filter id="a"><feGaussianBlur stdDeviation="12"/></filter><rect width="100%" height="100%" fill="#65483c"/><g filter="url(#a)"><g fill-opacity=".5" transform="translate(2.7 2.7) scale(5.46875)"><circle cx="192" cy="21" r="201" fill="#e1fded"/><path fill="#fff" d="M193.1 164.7l-5-72.8 66.8-4.6 5 72.8z"/><ellipse cx="169" cy="124" fill="#0c0000" rx="21" ry="38"/><ellipse cx="35" cy="24" fill="#3d5833" rx="56" ry="38"/><path fill="#fff" d="M271.2 101.4l-94-124.6 37.6-28.2 94 124.6z"/><ellipse cx="113" cy="123" fill="#180000" rx="15" ry="28"/><circle r="1" fill="#3a3f1e" transform="rotate(-46.9 157.2 -.8) scale(63.32233 17.84233)"/><circle cx="70" cy="169" r="32" fill="#fff"/><circle r="1" fill="#fff" transform="matrix(-1.74502 58.94504 -8.31735 -.24623 113 35.2)"/><path fill="#253200" d="M179.6 3.3L164 13.6l-22.7-2 28.9 59.3z"/><circle r="1" fill="#fff" transform="rotate(108.6 74.1 138.6) scale(30.34043 45.0236)"/><path fill="#322414" d="M218 34h17v51h-17z"/><circle r="1" fill="#fff" transform="rotate(-88.1 117.8 -76) scale(33.96593 9.37978)"/><path fill="#fff" d="M271 20l-56-36-23 52z"/><circle r="1" fill="#e6d7cc" transform="matrix(-102.87555 5.71414 -.3251 -5.8531 98.5 165)"/><circle r="1" fill="#ddfc92" transform="rotate(96.8 -30.5 43) scale(19.51247 44.21692)"/><path fill="#67573d" d="M0 109h81v30H0z"/><ellipse cx="253" cy="60" fill="#f6f6fe" rx="18" ry="74"/><path fill="#fff5fb" d="M79.3 141.6l2.4-46 15 .8-2.4 46z"/><circle r="1" fill="#4a382b" transform="rotate(-25.1 402.5 -322) scale(11.4216 61.35722)"/><ellipse cx="146" cy="81" fill="#fff" rx="40" ry="3"/><path fill="#561e1a" d="M146.2 153.9L90.8 148l28.9-38.2 9.8 32.7z"/><path fill="#301812" d="M119 86h47v6h-47z"/><path fill="#1d1a2c" d="M100 56h4v49h-4z"/><ellipse cx="96" cy="23" fill="#edffff" rx="3" ry="91"/><path fill="#577055" d="M47 20h32v113H47z"/><ellipse cx="109" cy="68" fill="#fff" rx="5" ry="31"/><path fill="#1b2432" d="M195 73h36v8h-36z"/><ellipse cx="229" cy="128" fill="#f4f8ff" rx="31" ry="39"/><path fill="#fff" d="M46.1 139.7l32 .6-.2 16-32-.6z"/><ellipse cx="240" cy="85" fill="#c3ab8e" rx="55" ry="6"/><path fill="#dce8bc" d="M123.4 4.7l-47.1 5.8 1.3 19.7L126.1-16z"/><circle r="1" fill="#bebdc2" transform="rotate(-169.4 72.4 19.2) scale(27.1477 17.35619)"/><path fill="#2a1b12" d="M181.4 157l-32.5 1.2 38.3-54.4-1 24.1z"/><path fill="#404b12" d="M152.7 33.7L197.2-16l-17.1 40.1-11.7 18.2z"/><ellipse cx="110" cy="40" fill="#fff" rx="5" ry="59"/><path fill="#1c3500" d="M0 97h18v9H0z"/><ellipse cx="102" cy="7" fill="#12233c" rx="2" ry="56"/><path fill="#553a1b" d="M34 110h11v54H34z"/><ellipse cx="172" cy="94" fill="#dfebff" rx="48" ry="2"/><path fill="#c8de8f" d="M19 91l54-42-34 61z"/><path fill="#948a82" d="M210 176l-25-17 3-52z"/><circle r="1" fill="#dfd2cc" transform="matrix(-48.60525 -10.64934 3.32978 -15.19763 132.8 168.6)"/><path fill="#d6d1bb" d="M38 24h7v55h-7z"/><ellipse cx="190" cy="55" fill="#f7f7f9" rx="5" ry="51"/><path fill="#ccacb0" d="M147.1 98.2l3.7 34.8-25.9 2.8-3.7-34.8z"/><path fill="#750414" d="M242 162h14v8h-14z"/><path fill="#bfbab2" d="M114 0h24v76h-24z"/><path fill="#e6e8dd" d="M225.9 62.4l1 6.8-3.1 6.6-6.7-3.9z"/><path fill="#ece3d9" d="M143 159h54v4h-54z"/><path fill="#4f6250" d="M61 71h36v28H61z"/><path fill="#686364" d="M161 39h11v41h-11z"/><path fill="#2e3a36" d="M45 53h19l1-49z"/><ellipse cx="191" cy="84" fill="#fce9d1" rx="46" ry="3"/><ellipse cx="24" cy="169" fill="#e5e7df" rx="31" ry="4"/><path fill="#809474" d="M21.4 85.2L5.5 87.1l-21.5-19 74.5 18.4z"/><path fill="#354741" d="M32 3L21 56l17 11z"/><path fill="#725c45" d="M167 87h20v25h-20z"/><path fill="#553421" d="M118.5 140.3L98 104.7l15.5-9 20.5 35.6z"/><path fill="#9e8a7a" d="M197 39h24v35h-24z"/><path fill="#84917d" d="M47 82h13v57H47z"/><path fill="#5f3f26" d="M252.1 168.2l-113.6 9.3 48.1-12 76 5.6z"/><path fill="#fff" d="M187 91h48v23h-48z"/><path fill="#839f76" d="M64 12l30 81 1-71z"/><path fill="#97794e" d="M29.6 123.2l-22-19.6-9.1 4.3 37 51.2z"/><path fill="#30403d" d="M-14.9 38.1l1.6 13 24.2 10.2.1-23z"/><circle r="1" fill="#d3d2cf" transform="matrix(11.66084 3.66938 -8.38073 26.6329 186.7 36.4)"/><path fill="#706e66" d="M221 90h35v2h-35z"/><path fill="#809532" d="M36.3 97.6L-16 94.4l58.6 11.3 4.7 8.7z"/><path fill="#2b1b0b" d="M222 37h7v23h-7z"/><path fill="#283239" d="M153 120l7 37-10-3z"/><ellipse cx="97" cy="124" fill="#ed99a9" rx="3" ry="29"/><path fill="#907a59" d="M157 100h6v48h-6z"/><ellipse cy="89" fill="#f8ffb2" rx="44" ry="4"/><ellipse cx="238" cy="135" fill="#89888d" rx="1" ry="49"/><path fill="#434a4f" d="M64 83h15v52H64z"/><ellipse cx="15" cy="51" fill="#bfb9a7" rx="4" ry="23"/><path fill="#ffe6f8" d="M98.5 98l16.8-3 .2 1-16.8 3z"/><ellipse cx="109" fill="#fff" rx="5" ry="96"/><circle r="1" fill="#41490e" transform="matrix(-16.13567 -23.13236 .82018 -.5721 149 17.5)"/><circle r="1" fill="#e1efb1" transform="rotate(-167.4 16.2 32.8) scale(33.35899 5.26743)"/><circle r="1" fill="#cae1ff" transform="matrix(-2.58858 .18211 -1.43697 -20.42528 156.3 63.6)"/><path fill="#ede7e5" d="M18 104h27v4H18z"/><path fill="#f9fbff" d="M239.2 50.1l-2.6 20.7 2.1 11.4 12.4-4.2z"/><ellipse cx="97" cy="23" fill="#f5fdfc" rx="2" ry="86"/><path fill="#a16f84" d="M124.9 144.4l-2.3-10.4-1.5-41.5 24.1 66z"/><path fill="#d5d6da" d="M215.2 168.6l55.8-10.3-71.4-20.8-8.8 16.6z"/><path fill="#76121c" d="M92.4 146.8l-.5 1-12.3-6.6.5-1z"/><path fill="#060d0d" d="M23.4 152l.2 7-27 1-.2-7z"/><circle r="1" fill="#cac4b4" transform="matrix(-4.16684 -.2765 1.60783 -24.23056 146.3 135.8)"/><circle r="1" fill="#bdb4a5" transform="matrix(-2.04514 10.14277 -27.39559 -5.52392 67.8 169.1)"/><path fill="#402019" d="M130 148l-18-19-16 20z"/><ellipse cx="10" cy="6" fill="#8b9771" rx="19" ry="31"/><path fill="#f1f4f9" d="M206 0h50v32h-50z"/><circle r="1" fill="#b8d280" transform="rotate(177.5 36.7 30.2) scale(21.48296 3.6388)"/><path fill="#fff" d="M74.4 151.8l-29-.6.2-13 29 .6z"/><path fill="#2b1e10" d="M209 63l12-3-1 5z"/><ellipse cx="100" cy="32" fill="#33485e" rx="1" ry="34"/><path fill="#4d5722" d="M187.4-16l-22.3 56.8-26.8-27.5 26.1 7.1z"/><path fill="#fff" d="M196 91h41v39h-41z"/></g></g></svg>