<svg xmlns="http://www.w3.org/2000/svg" viewBox="0 0 375 250"><defs/><filter id="a"><feGaussianBlur stdDeviation="12"/></filter><rect width="100%" height="100%" fill="#4a313d"/><g filter="url(#a)"><g fill-opacity=".5" transform="translate(.7 .7) scale(1.46484)"><circle cx="183" cy="114" r="217" fill="#fff"/><circle cx="126" cy="102" r="169" fill="#fff"/><circle cx="103" cy="77" r="181" fill="#fff"/><circle r="1" fill="#8c7c83" transform="rotate(90.2 33 114.5) scale(20.04164 191.45623)"/><path fill="#fff" d="M98 51l12 132-126-21z"/><circle r="1" fill="#fff" transform="matrix(190.4833 .21372 -.03755 33.46407 132.2 24.6)"/><ellipse cx="116" cy="155" fill="#fff" rx="255" ry="55"/><path d="M102 53h5v42h-5z"/><path fill="#070000" d="M12 52h6v50h-6z"/><path d="M30 53h6v48h-6zm213 8h6v35h-6z"/><path fill="#fff" d="M17 65h14v97H17z"/><path d="M209 55h5v40h-5zM45 67h5v33h-5zm11 1h6v25h-6zm78.8 27.5h-5l-.6-29h5z"/><path fill="#93858a" d="M157.8 60.4l47.9-4.6-4.8 50.2-42.9 3.2z"/><path d="M145 62l-1 35 8-11zm-25-6l-8-7 7 19z"/><path fill="#fff" d="M0 60h11v110H0z"/><ellipse cx="61" cy="99" fill="#060000" rx="192" ry="1"/><path fill="#fff" d="M114.5 79.6l116.4 97.8L109 185l24-134z"/><path fill="#fff" d="M150 0h7v143h-7z"/><circle r="1" transform="matrix(8.71753 11.22005 -2.0589 1.59969 228.6 80)"/><path fill="#fff" d="M271-16l-37.7 79.4-59.9 5.6-188-51.5z"/><path fill="#2d0b19" d="M106.6 75.2l11.5 21.7 1.7-48.6-5.3 30.4z"/><path d="M157 70h5v18h-5z"/><path fill="#060000" d="M101 57h5v39h-5z"/><ellipse cx="14" cy="53" fill="#080000" rx="15" ry="2"/><path fill="#4c323d" d="M78.1 87.3L63.7 57.8l14.6 15.1-11.6 30z"/><path fill="#1c0008" d="M172 57h5v33h-5z"/><path fill="#fff" d="M71.3 177.4L-16 96.1l50.6-.4 3-34.9zm199.7 7.4L166.9 139l14.9-81.1.2 39.9z"/><path fill="#4c313c" d="M154.7 109.8l48.2-56.4-2.6 35-7.6-29.7z"/><ellipse cx="88" cy="57" fill="#fff" rx="13" ry="42"/><path fill="#fff" d="M135 21h9v72h-9z"/><ellipse cx="182" cy="93" fill="#fff" rx="26" ry="3"/><path fill="#fff" d="M120-16L56 72-16 3z"/><path fill="#0d0000" d="M182 68h6v21h-6z"/><path fill="#fff" d="M188 70h9v18h-9z"/><ellipse cx="239" cy="81" fill="#fff" rx="4" ry="134"/><path fill="#fff" d="M248 0h8v92h-8z"/><ellipse cx="27" cy="100" fill="#695660" rx="255" ry="1"/><path fill="#fff" d="M221.8-16l-26.2 32.2 34.1 77.3-16.4-4.5z"/><path fill="#fff" d="M202 62h6v42h-6zm-39 9h9v16h-9z"/><path fill="#070000" d="M158 97h41v3h-41z"/><ellipse cx="33" cy="69" fill="#170000" rx="3" ry="19"/><path fill="#fff" d="M178.4 99.9l-8.2-7.4 9.4-10.4 8.2 7.4zM171 64l20-8-11 16zM51 14h6v85h-6z"/><path d="M68.2 95.4l-2 2.3-8.4-7 2-2.4zM12 59h4v35h-4z"/><ellipse cx="200" cy="76" rx="3" ry="8"/><path fill="#0d0000" d="M245 55h3v28h-3z"/><path fill="#fff" d="M114.5 74.5l16.7 56.6L125.4-16 265.3-3.6z"/><path fill="#452934" d="M176.1 71.4l-6.8-3.8-13-.8 15.5-3.9z"/><path fill="#fff" d="M106 55h6v115h-6z"/><path fill="#2b0515" d="M116 51l-18 1 4 4z"/><path fill="#fff" d="M17 68h13v30H17z"/><circle r="1" fill="#fff" transform="matrix(-4.79894 40.77187 -64.72063 -7.61776 236.7 142.3)"/><path fill="#fff" d="M-16 20l130-30-19 86z"/><path d="M110.2 81.7l-1.5-1.2 11-14.2 1.6 1.2z"/><path fill="#180000" d="M145 67h5v30h-5z"/><path fill="#fff" d="M100 96h55v3h-55z"/><circle r="1" fill="#160000" transform="matrix(2.26865 .93044 -2.052 5.0033 235 91)"/><path fill="#160000" d="M46 67h5v27h-5z"/><path fill="#fff" d="M17.4-16l102.8 73.2 39.1 11.4L247.5-16z"/><path fill="#020000" d="M77 72l-9-10 9 18z"/><path fill="#f9f9f9" d="M213.4 65.6l-17.9-31.3 12.9 43.8-16.3-16.5z"/><ellipse cx="225" cy="97" fill="#fff" rx="25" ry="2"/><circle r="1" fill="#1b0006" transform="matrix(-3.53385 -9.98517 2.1364 -.7561 115.5 86.4)"/><ellipse cx="41" cy="80" fill="#fff" rx="5" ry="14"/><path fill="#fff" d="M182.8 98.2l-3.3-30.8-5 42 4.9 75.6zM240 70l2 18-17-20zm-256 36.6l10.2-40.8 16.6-11.2-.5 41.1z"/><ellipse cx="101" cy="147" fill="#fff" rx="119" ry="47"/><path fill="#380e20" d="M57.5 89.5l8.3-26.3-7 6.2-3.3 6.1z"/><circle cx="211" cy="58" r="3"/><path d="M70 85h6v3h-6z"/><path fill="#fff" d="M149 72l10 15-4 21z"/><path fill="#40252f" d="M179.7 104l.4-1 14.2 5-.4 1z"/><path fill="#160000" d="M162 65l-6 11 7 13z"/><ellipse cx="62" cy="97" fill="#fff" rx="83" ry="2"/><path fill="#22000e" d="M198 56l-7 4 13-1z"/><path fill="#0b0000" d="M200.2 80.7l.8.6-7.2 12-.8-.6z"/><path fill="#1a0000" d="M131 65h4v30h-4z"/><path fill="#fff" d="M77 78h23v21H77z"/><ellipse cx="119" cy="99" fill="#4a2035" rx="133" ry="1"/><circle r="1" fill="#3b1725" transform="rotate(-169.2 114.7 24.6) scale(2.52487 6.03279)"/><circle r="1" fill="#fff" transform="rotate(-95.1 119.2 -38) scale(8.6804 5.0847)"/><path fill="#4f333e" d="M170.7 85.8l6.3 17.4-8.7 4.5 10.2-33.1z"/><path fill="#26000a" d="M115.3 53.8l5.6 4.8-1.7 9.2-7.5-16z"/><ellipse cx="211" cy="80" fill="#170000" rx="3" ry="16"/><path fill="#fff" d="M17 56h13v38H17z"/><ellipse cx="253" cy="86" rx="1" ry="8"/><path fill="#fff" d="M187-16l38 49-47 39zm15.8 113.6L188.9 95l14-8.3 7.1-3.2z"/><path fill="#fff" d="M215.9 88.2L243.7-16-16 52.8l228.5-.8z"/><path fill="#fff" d="M45.1 57.5l23.3-14.7-18.2 45.3L67 112.4z"/></g></g></svg>