<svg xmlns="http://www.w3.org/2000/svg" viewBox="0 0 800 534"><defs/><filter id="a"><feGaussianBlur stdDeviation="12"/></filter><rect width="100%" height="100%" fill="#4c473c"/><g filter="url(#a)"><g fill-opacity=".5" transform="translate(1.6 1.6) scale(3.125)"><ellipse cx="109" cy="50" fill="#ffa87d" rx="188" ry="137"/><circle r="1" fill="#ffffb5" transform="matrix(-109.36869 -74.42926 15.93843 -23.42043 234.1 22)"/><circle r="1" fill="#b12b0d" transform="matrix(145.8508 -77.55024 27.60639 51.92006 228 143.3)"/><circle r="1" fill="#c7b990" transform="matrix(13.26526 33.96152 -74.52347 29.10863 93 8.4)"/><path fill="#654932" d="M-16 175l218 10-93-76z"/><circle r="1" fill="#fc6713" transform="matrix(5.8387 8.82131 -59.52884 39.40128 221 148.4)"/><path fill="#653133" d="M220 39l-35 22-37-37z"/><path fill="#032e38" d="M170.2 90.1l22-9.9-5.8 14.6-56.4 10.7z"/><path fill="#df6100" d="M96 125l-39 36 27 24z"/><circle r="1" fill="#ffd593" transform="rotate(146.9 113.2 38.6) scale(29.08646 45.43956)"/><circle r="1" fill="#a2bbba" transform="rotate(-167 81 23.3) scale(59.87454 3.03589)"/><circle r="1" fill="#ff6e1b" transform="matrix(-61.3757 32.65695 -3.4947 -6.56795 205.7 105)"/><circle r="1" fill="#8e7e7a" transform="matrix(-37.6336 -28.70393 29.0714 -38.1154 21 103.8)"/><path fill="#031523" d="M152.8 31.5l5 20.4-10.6 2.6-5-20.4z"/><path fill="#7c2a3a" d="M240.6 93.5l13.4 22.2-74.6 44.8-13.4-22.2z"/><circle r="1" fill="#625b5f" transform="matrix(7.4943 -10.78287 42.44504 29.50007 148.8 153.3)"/><path fill="#b6a892" d="M206.3 89.7L271 41.3l-67.1 33.4L96.7 50.3z"/><circle r="1" fill="#7b5160" transform="matrix(-14.61549 7.22343 -12.63505 -25.56508 121.5 83.6)"/><path fill="#413351" d="M21 145.7L9.7 157-13 134.3-1.7 123z"/><path fill="#9cbbbc" d="M130.7 112.4h16.6l22.6-7.3-21.3-6.7z"/><circle r="1" fill="#faa467" transform="rotate(-128.5 110.3 -53.2) scale(17.76311 44.09154)"/><path fill="#342426" d="M106.3 108.1l49.8 40.3-4.4 5.5-49.8-40.3z"/><path fill="#b7cc9f" d="M22 92l-38-38v52z"/><path fill="#5d3b29" d="M66.6 58l-1.3-2.7 150-73.3 1.4 2.7z"/><circle r="1" fill="#c99f7f" transform="matrix(68.64164 53.43606 -3.25915 4.18656 57 60)"/><circle r="1" fill="#675a78" transform="matrix(3.34286 -3.86583 51.07813 44.16832 45.4 70.6)"/><path fill="#e4e1b0" d="M187 45.7l18.2-7.1-18.3.2 4.2 12.2z"/><path fill="#a5aead" d="M134.4 56.4l6.8 2.7 6.8 46L132.3 73z"/><path fill="#efe7cc" d="M231 46l3 22 37-51z"/><path fill="#992522" d="M114 98L84.5 68.6l15.1-.3 12.7 10.5z"/><path fill="#ffc84d" d="M-1.5 4.6l37.2-17.3 3.8 8.1L2.3 12.7z"/><circle r="1" fill="#131a18" transform="matrix(18.66953 18.72906 -1.90954 1.90347 159 159.1)"/><path fill="#6a95c9" d="M70.4 155.6l5.9 1.1-2.7 13.7-5.9-1.1z"/><path fill="#cbb18d" d="M181 29L71 11l51-23z"/><path fill="#e46d4e" d="M-16 36.4l113.9 94.7-42.2-46-57.4-45.5z"/><path fill="#c93c40" d="M127.8 54.8l88.7 19.4-68.1-23.9-7.5-13.9z"/><circle r="1" fill="#735331" transform="rotate(-114.4 29.4 -5.2) scale(1.69981 31.42621)"/><circle r="1" fill="#92725f" transform="matrix(-27.08744 3.61424 -4.31116 -32.31061 118.6 163.1)"/><path fill="#b4453c" d="M186.5 48.7l38.2 7.9V43.3l-17.2-8z"/><circle r="1" fill="#78231e" transform="matrix(22.4839 -9.8374 2.97662 6.80322 17.8 165.2)"/><circle r="1" fill="#a3a77f" transform="matrix(-3.32216 -10.1145 27.13543 -8.91277 45.3 126.6)"/><path fill="#f99775" d="M179.9 40.3l-1.6 5.8-24.2-6.4 1.6-5.8z"/><path fill="#5a4a66" d="M76 115.6l-4.5 5.3-53.6-46.5 4.6-5.3z"/><circle r="1" fill="#b67e66" transform="matrix(74.64165 63.52502 -2.84819 3.34661 177.4 161.2)"/><path fill="#eeebdb" d="M208.5 29.4l52.1-23.2 2.9 6.4-52.1 23.2z"/><path fill="#2b3c36" d="M184.7 40.3l2.6 31.7.9-40.1-42.1-3.7z"/><circle r="1" fill="#765c3b" transform="rotate(-113.9 22.5 -1) scale(1 99.36193)"/><circle r="1" fill="#77928f" transform="matrix(-1.68005 -18.6476 5.80803 -.52327 119.4 90.4)"/><path fill="#a2b1ab" d="M49.3 50.8l91.8-46.7 3.6 7L52.9 58z"/><circle r="1" fill="#3e343c" transform="rotate(-28.3 288 -354.5) scale(85.79051 1)"/><circle r="1" fill="#fdffd8" transform="rotate(-21.1 100.5 -519) scale(54.22159 1)"/><path fill="#e64140" d="M168.4 38.5l8.9-1.6 4.3 24.6-8.9 1.6z"/><path fill="#a6ddbe" d="M186 79.7l.4.9L154 96.3l-.4-.9z"/><path fill="#dae1b9" d="M70.8 55.1l50.9-21.6-41.6 20.2-13.2 7.1z"/><path fill="#d0f2be" d="M205 52l-17 9h16z"/><path fill="#895137" d="M78.4 31.9l64.3 56.9-79.1-61-.3-3.3z"/><path fill="#49331e" d="M67.8-4l.4.9-52 23.1-.4-.9z"/><path fill="#b6927e" d="M260.6 42.3L271 69.1l-49.2-25.3-3.1 21.3z"/><path fill="#b2aea3" d="M49.9 104.1L-16 50.5l49.1 44.8 28.5 21.4z"/><path fill="#8f4612" d="M101.6 111.9l-24.8 13.8 24.9 1.6 28.5 45.7z"/><path fill="#ddcb5e" d="M120.2 152.2l5.2 31.7-8.3-9-4.4 9.5z"/><path fill="#cc4b4b" d="M271 101l-32.3 13.5-35.3 7 37.3-22z"/><circle r="1" fill="#d8b87f" transform="matrix(.59127 1.21228 -68.40699 33.36432 147.9 27.2)"/><path fill="#dc9655" d="M134.1-6.6l4.8 9.9-97 47.3-4.8-9.9z"/><path fill="#3c423f" d="M171.7 102.7l-7.3 9.3 24.5-31.8-39.4 18.7z"/><path fill="#c2c990" d="M95.4 79l-19.3-4.4L99 94.3l5.5-7.1z"/><path fill="#ba7350" d="M29 95.5l15.9 17.6L13 126.3l-21.4-23.4z"/><path fill="#d64e54" d="M162 63l-24 8 17 14z"/><path fill="#c6584e" d="M216.5 60.4l25.4 7.4-28.9 2.7-17.5-34.2z"/><circle r="1" fill="#c1694d" transform="matrix(2.25778 -2.64352 37.79143 32.27693 41.8 57.4)"/><path fill="#97a782" d="M40.2 184l-34.9 1 35.6-25.4 5.3-14.6z"/><path fill="#8a1d20" d="M106 71.1l-1.6 7.8L76 73l1.6-7.8z"/><circle r="1" fill="#d6e6c9" transform="matrix(-.99667 -.08149 .96322 -11.78122 100.5 147.9)"/><circle r="1" fill="#35443a" transform="matrix(-74.1177 45.32637 -.66284 -1.08388 214.9 137.7)"/><path fill="#cc6a14" d="M59.6 137.7l40.1-19.9-41.2 13.4-9.6 11.6z"/><circle r="1" fill="#b2b4a5" transform="matrix(64.86821 -27.13496 1.65216 3.9496 94 8.4)"/><path fill="#6c1316" d="M133.3 160l-3.4 3.7-21.2-19.8 3.4-3.6z"/><path fill="#573334" d="M145.4 52.2l17.7-1.2 8.9-9.9-22.3 1.4z"/><path fill="#63060b" d="M52 185l-2-38-8 25z"/><circle r="1" fill="#ae2c37" transform="matrix(-4.49538 -6.24442 52.64878 -37.90202 230.7 169)"/><circle r="1" fill="#625a73" transform="matrix(-2.45032 2.61265 -37.14905 -34.84092 13.3 67.7)"/><path fill="#bd8c74" d="M176-13.5l8.7 14.6L164 13.5l-8.8-14.6z"/><path fill="#1d3932" d="M196.3 123.8l-36.2 19.3-.4-1 36.2-19.2z"/><path fill="#c35200" d="M73.1 145.9l-12 32.7-1.3-20.9 6.7-14.9z"/><path fill="#dae7c7" d="M58.6 143.3l.9.4-12 35-1-.4z"/><circle r="1" fill="#dfd5a7" transform="matrix(225.1481 -106.16062 .42648 .9045 9.3 27.3)"/><path fill="#313735" d="M184 34.9l.2 30.8-6-25.3 27.8-5.8z"/><path fill="#889983" d="M131.1 147.3l-24.8-15 4.6-7.6 24.8 15z"/><path fill="#223832" d="M130.9 106.2L162.6 93l-28 14.2-11.6 3.1z"/><path fill="#abdb8c" d="M208 68l-22 15 40-11z"/><circle r="1" fill="#68150b" transform="matrix(-26.35353 -17.50924 1.62294 -2.44272 246.3 164.7)"/><path fill="#ede3b9" d="M271 28.7v8.1l-52.4 27.4 2.9-3.6z"/><path fill="#ecfec5" d="M157 52l9 2 2-6z"/><path fill="#b94a45" d="M184.7 83.1L200 70.6l-47-19.4 46 11.9z"/><path fill="#9b9698" d="M104 60l-27 1 55 20z"/><path fill="#8d2a15" d="M167 114.4l5-3.4 26.8 7.8 23.3 30.6z"/><path fill="#6f1707" d="M113.4 161.6L94.6 185l12-28.6 8 .4z"/><path fill="#473f35" d="M218.6 56.6l-5.3-7.3 8.1-5.9 5.3 7.3z"/><path fill="#f1eebb" d="M120-16l-19.2 6.3-67.7 31L74.6 5.1z"/><path fill="#ef6a25" d="M196 98l64-33 1 20z"/></g></g></svg>