<svg xmlns="http://www.w3.org/2000/svg" viewBox="0 0 1400 787"><defs/><filter id="a"><feGaussianBlur stdDeviation="12"/></filter><rect width="100%" height="100%" fill="#603f39"/><g filter="url(#a)"><g fill-opacity=".5" transform="translate(2.7 2.7) scale(5.46875)"><circle r="1" fill="#f0e5c5" transform="matrix(-228.65671 -4.39043 1.23895 -64.52514 124.8 83.4)"/><circle r="1" fill="#190000" transform="matrix(25.87798 10.4027 -11.99781 29.84603 149.6 123.3)"/><circle r="1" fill="#190000" transform="matrix(14.9046 41.39912 -22.4492 8.0822 246.3 104.2)"/><circle r="1" fill="#fcf3d0" transform="matrix(.2506 -21.7074 144.48354 1.66792 104.7 45.3)"/><ellipse cx="25" cy="104" fill="#502c25" rx="42" ry="35"/><circle r="1" fill="#fff7ea" transform="matrix(-14.29405 8.7594 -36.98022 -60.34623 191.7 100.5)"/><circle r="1" fill="#fff" transform="rotate(-150.3 55.8 52.1) scale(18.02874 25.25793)"/><path fill="#fff" d="M16-16l-6 43L26-4z"/><path fill="#a98765" d="M247 28L79 27l9-43z"/><path fill="#c6b791" d="M266 23l-32 48-126-47z"/><path fill="#6c5851" d="M101 105l55-34-162 1z"/><path fill="#081107" d="M21 4h61v18H21z"/><path fill="#24130b" d="M222.4 93.8L271 72.6l-61.7-4 .8.2z"/><path fill="#f7decd" d="M88.3 128.3l62.6-45-96.3 41.4L93 140z"/><circle cx="147" cy="142" r="42" fill="#623a2e"/><circle r="1" fill="#ebe3cf" transform="matrix(57.67112 .8053 -.19664 14.08232 105.9 51)"/><circle r="1" fill="#e5af93" transform="rotate(33.3 -152.2 261.4) scale(3.53547 23.55247)"/><ellipse cx="16" cy="30" fill="#bea87e" rx="70" ry="9"/><ellipse cx="152" cy="86" fill="#5c4137" rx="8" ry="23"/><path fill="#b9b18c" d="M69.9-3.3l38.6 16.2-13.8 7.5L42.4-16z"/><path fill="#846657" d="M37.5 177l-46.3-21.6L30.5 71l46.3 21.5z"/><circle r="1" fill="#000604" transform="matrix(5.40634 -.07347 .10156 7.47374 245.3 66.8)"/><path fill="#421c19" d="M133 11l33 10-55 1z"/><path fill="#bb9981" d="M224.3 148.5L179 41.7l14.7-6.2L239 142.3z"/><circle r="1" fill="#fff2e7" transform="rotate(84.9 48.3 139.8) scale(32.54989 6.13292)"/><circle r="1" fill="#b08566" transform="matrix(4.0822 -3.09856 7.8364 10.32409 170.3 62)"/><path fill="#382320" d="M160 94l-16 64H98z"/><circle r="1" fill="#6c4e40" transform="rotate(151.5 -1.9 62.4) scale(14.12109 57.03549)"/><ellipse cx="70" cy="75" fill="#5f3a33" rx="70" ry="3"/><path fill="#db8f6b" d="M45.1 9l8.4 10-4.6 4-8.4-10z"/><path d="M-2.5 11.1l8-4 5 9.8-8 4z"/><ellipse cx="47" cy="69" fill="#d7dac1" rx="37" ry="3"/><circle r="1" fill="#c79782" transform="matrix(1.95806 -8.16231 15.06141 3.61309 11.7 142)"/><circle r="1" fill="#f1e2d4" transform="matrix(-5.28122 3.55976 -38.33337 -56.87085 189.6 110.5)"/><ellipse cx="77" cy="113" fill="#fffcf1" rx="9" ry="13"/><ellipse cx="68" cy="34" fill="#dacbae" rx="5" ry="21"/><path fill="#8d7f72" d="M21 77h44v27H21z"/><path fill="#b4996c" d="M222 52.1l-2.7-24.9 50.8-5.3 2.6 24.9z"/><path fill="#847362" d="M208-16l-60 27 35 12z"/><path fill="#785242" d="M162 77l12 29-68 12z"/><path d="M30-3.8L66.2 25 60.8-3.7l15.8 20z"/><circle r="1" fill="#052738" transform="matrix(.0593 -.99824 53.67691 3.189 20 72.3)"/><ellipse cx="244" cy="72" rx="36" ry="2"/><path fill="#b29480" d="M135 102L76 75l75-1z"/><ellipse cx="109" fill="#7d211d" rx="15" ry="11"/><path fill="#dfd1b8" d="M199.4 52.5l-3.2-20.9L42.3 31l106 23.4z"/><path fill="#d6a76c" d="M219 11h10v9h-10z"/><ellipse cx="253" cy="94" fill="#33251b" rx="13" ry="15"/><ellipse cx="241" cy="21" fill="#1a2016" rx="38" ry="2"/><path fill="#803729" d="M0 104h67v10H0z"/><path fill="#f2fffc" d="M21.4-16l4.8 2.7-13.9 35.6-3.9 6.2z"/><path fill="#997455" d="M255.7 158L184.3 41.4l54.5 71.7 19.5 44.9z"/><circle r="1" fill="#2a241e" transform="rotate(38.6 48.2 214) scale(9.34445 3.73659)"/><circle r="1" fill="#051e19" transform="matrix(5.89475 6.32135 -2.95581 2.75634 230.3 8.4)"/><path fill="#b4b5a3" d="M232 34l9 35-42-5z"/><path fill="#fae3b6" d="M119 8h12v4h-12z"/><path fill="#b05434" d="M41 66h61v2H41z"/><ellipse cx="9" cy="26" fill="#b9a177" rx="71" ry="5"/><ellipse cx="181" cy="139" fill="#8b6456" rx="17" ry="12"/><path fill="#e3dbc6" d="M106.7 65.7l46.6 4.7L139 59.7l29.2-31.1z"/><path fill="#9b7157" d="M7.4 6.5L-16 14.9 19.9-16l-8.6 33.5z"/><path fill="#b78269" d="M128 125l-24-17-11 50z"/><path fill="#ba9b81" d="M190.5 74.2l24.7 51.1 3.5-42.7-39.9-49.1z"/><path d="M80 6l-4 13L65 9z"/><path fill="#eedecc" d="M78.2 100.6l-3.5 55.2-17-39 45-12.9z"/><path fill="#d5c8b1" d="M-13.3 65l92.9-38.1 4.3-17.7L59 60.7z"/><path fill="#ecdcce" d="M211.2 83.5l-10.7-13.4-14.7 54.6-24-49.4z"/><path fill="#42312a" d="M180.7 131.7l-65.3 12.1 22-36.7 36.5 14.2z"/><path fill="#9f4d2f" d="M-8 65.6v-3l54 1.8v3z"/><path fill="#140806" d="M158.4-12.5L156 1l-5.2-13.7 5.5 32.3z"/><ellipse cx="87" cy="70" fill="#dee3cf" rx="23" ry="2"/><path fill="#fee3b7" d="M137.2 22.7l2.7-11.7 1 .3L138 23z"/><circle r="1" fill="#9b9480" transform="matrix(31.28131 -1.04546 .18325 5.4832 82.3 91.5)"/><ellipse cx="104" cy="73" fill="#3a4c58" rx="38" ry="2"/><ellipse cx="75" cy="83" fill="#735249" rx="69" ry="2"/><path fill="#cebd9a" d="M55 23h113v8H55z"/><path fill="#dae2ca" d="M257.5 41.2l-3 23.8-2-.2 3-23.8z"/><path fill="#d9c1ac" d="M58.7 128.3L90.6 158l5-26.4-46.8 15.6z"/><path fill="#794538" d="M138.2 120.6l19.4 8.5 3.9-18.1-41 37.7z"/><path fill="#907b5b" d="M125 19l-50 3 25-14z"/><path fill="#351f19" d="M144.1 62.8l.4-1 9.4 3.4-.4 1z"/><path d="M154.4 20.5l-11.6-5-.9-.2 4.3 7.1z"/><path fill="#b7ccab" d="M146 9h10v5h-10z"/><path d="M-16 14l26-3-2 11z"/><path fill="#100" d="M124.6 108l-10.4 14.7-.8-.6 10.4-14.8z"/><path fill="#958c6d" d="M246.7 133.4l24.3-26.6-30.1 24.4 1.4 8.6z"/><path fill="#415550" d="M64.4 154.3l-27.5-23.4-9.8 9.6-37.3-38.4z"/><path fill="#232f27" d="M211.1 20.9l12.8-12.4L204 9.9l29 15.9z"/><path d="M65.3 19.5L16.8-13 46.9 2.4l8.4 19.5z"/><path fill="#00293b" d="M130.5 14l-1.2 5.9-9.8-2 1.2-5.8z"/><path fill="#a48256" d="M222.4 61.6l-1.8-24.9 5-.3 1.8 24.9z"/><path fill="#953832" d="M116.8-13l19.7 34.3-9 1.5L165.2-16z"/><path fill="#c4a68a" d="M161.7 44.7l-.5-60.7-3.8 82 9.3-27.3z"/><circle r="1" fill="#c3ab64" transform="rotate(-83.3 79.1 39.9) scale(2.37636 6.73292)"/><path fill="#effaef" d="M188 39h4v15h-4z"/><path fill="#97805c" d="M235 41h6v20h-6z"/><path fill="#bea988" d="M10.4 33.6L23.1 5.4-6.2 49.8l27.4-1.3z"/><path fill="#a07759" d="M197.6 54.2L182.5 57l57.7 42-21.3-15.2z"/><path fill="#e0cbbb" d="M133.7 90l14-15.9L132 98.9l-62.1 24.6z"/><path fill="#55423e" d="M105 104l-14-5 23-2z"/></g></g></svg>