<svg xmlns="http://www.w3.org/2000/svg" viewBox="0 0 805 1400"><defs/><filter id="a"><feGaussianBlur stdDeviation="12"/></filter><rect width="100%" height="100%" fill="#6c3c38"/><g filter="url(#a)"><g fill-opacity=".5" transform="translate(2.7 2.7) scale(5.46875)"><circle r="1" fill="#e45436" transform="matrix(2.71663 72.84432 -145.89858 5.44108 63.9 168.8)"/><ellipse cx="55" fill="#030000" rx="128" ry="36"/><ellipse cx="79" cy="63" fill="#851503" rx="146" ry="39"/><ellipse cx="74" cy="255" fill="#751c1b" rx="69" ry="48"/><circle r="1" fill="#ca6a50" transform="matrix(145.92812 -4.58071 .48633 15.49306 112.3 155.7)"/><circle r="1" fill="#200000" transform="matrix(.0832 -16.99564 145.99825 .71472 47.6 8.6)"/><path fill="#3e0c14" d="M130.2 241.8l1.3 18-119.7 8.4-1.3-18z"/><ellipse cx="85" cy="205" fill="#a03b31" rx="146" ry="35"/><circle r="1" fill="#b7573d" transform="matrix(-10.74288 20.45493 -44.7357 -23.49508 16.7 118.3)"/><circle r="1" fill="#9e3f2c" transform="matrix(44.2483 22.35143 -7.64551 15.13554 134 105.4)"/><ellipse cx="76" cy="165" fill="#933425" rx="7" ry="71"/><path fill="#c5674e" d="M148 153l-64 11 21-56z"/><circle r="1" fill="#6b1e15" transform="matrix(37.04223 9.84552 -8.18283 30.7866 50.7 60)"/><path fill="#ba5345" d="M0 200h15v43H0z"/><path fill="#ad493a" d="M58 180l3 59-37 2z"/><path fill="#8f382a" d="M134 95l28-90-37 51z"/><path fill="#551610" d="M111 25l51-10-50 36z"/><path fill="#933a29" d="M152.6 102.1L-16 104.3l52.7-19.4 23.9 11z"/><path fill="#b14e42" d="M124 198h23v34h-23z"/><ellipse cx="72" cy="194" fill="#932f26" rx="63" ry="5"/><ellipse cx="53" cy="185" fill="#db7563" rx="16" ry="2"/><path fill="#913525" d="M72.5 171.2L6.6 191l4.9-27.6L58.2 184z"/><path fill="#8e2f23" d="M14 205h25v21H14z"/><path fill="#641c1f" d="M-16 236.3l85.2 13.9 29.8-13-106.1 20.6z"/><ellipse cx="34" fill="#260205" rx="109" ry="21"/><path fill="#581b15" d="M0 23h108v15H0z"/><path fill="#ad4e37" d="M81 99h66v43H81z"/><ellipse cx="79" cy="224" fill="#832c22" rx="12" ry="18"/><path fill="#c66650" d="M39 146h19v27H39z"/><path fill="#c86a54" d="M80 145h26v23H80z"/><ellipse cx="3" cy="128" fill="#bb5f46" rx="9" ry="28"/><path fill="#78271b" d="M122 48L10 103l72-79z"/><path fill="#ba5142" d="M34.1 214.3l-17.6-28 57.8-.2-48.6 6.2z"/><path fill="#3e0f10" d="M71 244h22v12H71z"/><path fill="#591610" d="M17 54h74v4H17z"/><path fill="#953929" d="M140.6 83.5l-33.2 13.9 10 22.3 11.5 2.5z"/><path fill="#b3533c" d="M103 113L-8 175l43-56z"/><path fill="#77251a" d="M131 93L-3 51l63 48z"/><path fill="#390d0d" d="M75.3 23.3L78.8-.4l60.5 25-18 4.4z"/><path fill="#b24a3d" d="M88 181h23v24H88z"/><path fill="#9a3925" d="M68 147l24-23-39 20z"/><path fill="#c76d55" d="M143.9 134.7l-12.4 35.9-8.7-27.4 39.2-15.5z"/><path fill="#913627" d="M84 54h26v10H84z"/><path fill="#8c322c" d="M122 248.1l16.9-29.4 10.7 27.1-48.7-13.3z"/><path fill="#842b22" d="M128 204l-26 2-6 14z"/><path fill="#a8432e" d="M35 163h47v4H35z"/><path fill="#ba5849" d="M143 181h4v54h-4z"/><path fill="#bd5a4a" d="M15.7 218.3l2.2 12.8-25.6 4.6-2.2-12.8z"/><path fill="#943929" d="M57.7 119.8l24-27.9-8.3-3.8 35.1-4.7z"/><path fill="#b3503a" d="M81.6 163.9L47 134.7l15.5 23.1 42.1-40.6z"/><path fill="#320a0a" d="M0 17h78v10H0z"/><path fill="#681a13" d="M129 67.5l-18.6 5.3-69.7 11 46-15.7z"/><path fill="#9b3b31" d="M8 246.8l-1.8-7.3 101.1-54.4-67.4 53.6z"/><circle r="1" fill="#611a11" transform="matrix(4.54309 1.12499 -7.6269 30.80004 29.4 59.4)"/><ellipse cx="45" cy="108" fill="#aa4d37" rx="19" ry="11"/><path fill="#82291e" d="M109.9 192.6l12.1-5.4 8.7 10.4-6 1z"/><path fill="#913526" d="M37 59h29v5H37z"/><path fill="#6f2419" d="M80 28.2L69.5 71l70-46.8 2.2 33z"/><path fill="#a24233" d="M150.9 194.7l-35.1 25-23.3 14.1 29.6-1.3z"/><path fill="#943327" d="M39 71h30v5H39z"/><path fill="#611812" d="M68 53h6v44h-6z"/><path fill="#c46654" d="M26 167h36v6H26z"/><path fill="#cd7258" d="M9 156l5-10-15 1z"/><ellipse cx="54" cy="217" fill="#ae483b" rx="8" ry="24"/><ellipse cx="2" cy="48" fill="#7f2d1f" rx="130" ry="4"/><path fill="#903528" d="M125 42h7v34h-7z"/><path fill="#953729" d="M79.7 182.6l-73.7-8 86.3-1.6 28.3-4.4z"/><path fill="#ab4639" d="M69.2 222.5l27-1.4-6.7-50 10.7 40.9z"/><path fill="#aa4f3f" d="M148.6 45.7l-6-.4.8-11 6 .4z"/><ellipse cx="112" cy="162" fill="#a44531" rx="11" ry="3"/><path fill="#cd7159" d="M47 155l16 5-16-21z"/><path fill="#df907c" d="M20 167h10v2H20z"/><path fill="#ac4a35" d="M8.2 129l-17.9 10.2L32 149.4l23.3-8.6z"/><path fill="#8a3227" d="M45 240.5l-32.3-25.4 6.3.2 46.3 31.1z"/><path fill="#bb5d47" d="M63.7 115.5l-3.6 23.1-9.6-1.4-6.6-9.4z"/><path fill="#c1614b" d="M109.9 105.8l-9.4 34.2 17.7-.5-8.3-8.7z"/><path fill="#9d422d" d="M-11 90l26 19 20-2z"/><path fill="#612024" d="M75.5 244.9l-33.8 7.5-40.4 3.1.5-11.4z"/><path fill="#ac5039" d="M141 106h6v65h-6z"/><path fill="#7e2819" d="M128 181h7v6h-7z"/><path fill="#bd5144" d="M34.4 209l-10.8-2.1 2-9.9 10.8 2.1z"/><path fill="#bf584a" d="M158.2 177.5L125.8 190l-.2.4 11.7-.5z"/><path fill="#621b12" d="M-16 39.9L6.3 24.6l29.3 42.2 1.3-37.2z"/><path fill="#5f2024" d="M131.7 252.8l2.1-20-53 38.2 81.2-20.6z"/><path fill="#6e2319" d="M113.2 31l-19-1.6L129 64.5 110.3 26z"/><path fill="#ca6e5a" d="M98 167l-10-12v20z"/><path fill="#a94434" d="M6.1 162l4.4 28.3-5.2 37.8-21.3-98.4z"/><path fill="#d27b63" d="M105.2 149.5l-10.6-8.2-3.8-5.2 4.6 14.3z"/><ellipse cx="16" cy="2" fill="#1c0407" rx="79" ry="5"/><path fill="#bc6047" d="M-8 124l31 5 25-11z"/><path fill="#aa494c" d="M137 239h10v3h-10z"/><path fill="#853422" d="M8 31.4l-4.5 19L18 51.5l4.7-.9z"/><path fill="#b85640" d="M100 111l-21-8 29 32z"/><path fill="#b24d3d" d="M112.4 178.6l-52.7 8.6 64.8-2.4 8.6 10.7z"/><path fill="#a0412d" d="M142 125l-8 10-25-8z"/><path fill="#922f26" d="M93 207l-35-17 19-5z"/><path fill="#cc6f56" d="M124.6 127.4l-6.8-4.2 1.6-2.6 6.8 4.2z"/><path fill="#bc5c53" d="M106.5 213.5l14.9-2 .1 1-14.9 2z"/><path fill="#742621" d="M109 247.7L73.5 238l1.5-5.8 35.7 9.6z"/><path fill="#cd6455" d="M20 185h6v6h-6z"/></g></g></svg>