<svg xmlns="http://www.w3.org/2000/svg" viewBox="0 0 420 280"><defs/><filter id="a"><feGaussianBlur stdDeviation="12"/></filter><rect width="100%" height="100%" fill="#675734"/><g filter="url(#a)"><g fill-opacity=".5" transform="translate(.8 .8) scale(1.64063)"><ellipse cx="81" cy="139" fill="#ff9690" rx="109" ry="130"/><circle cx="239" cy="78" r="90" fill="#8e110a"/><circle r="1" fill="#ddc6a6" transform="matrix(4.45973 -29.4886 99.5895 15.0615 77.8 113.4)"/><circle r="1" fill="#971007" transform="rotate(-101 48.3 -19.6) scale(56.99246 38.06683)"/><circle r="1" fill="#e06f3b" transform="matrix(-36.55094 83.70835 -19.39329 -8.468 166.7 39.4)"/><circle r="1" fill="#ff3f00" transform="matrix(-13.35837 -1.3886 2.75351 -26.48896 94.6 135.3)"/><ellipse cx="14" cy="11" rx="29" ry="15"/><circle r="1" fill="#6c9b7e" transform="matrix(-23.65266 17.43824 -141.66517 -192.14996 16.5 149.4)"/><ellipse cx="255" fill="#311511" rx="39" ry="128"/><circle r="1" fill="#b91f00" transform="matrix(2.14437 16.30394 -39.72437 5.22474 163.9 84.3)"/><path fill="#ce9497" d="M91 102l41-86 61 8z"/><ellipse cx="129" cy="6" fill="#000b0e" rx="30" ry="14"/><circle r="1" fill="#bc6f5a" transform="rotate(49.3 -71.6 270.4) scale(46.30044 21.09328)"/><circle r="1" fill="#cbd2ba" transform="matrix(-19.26905 27.0142 -19.63461 -14.00523 61.7 114.4)"/><ellipse cx="17" cy="49" fill="#cf5549" rx="38" ry="25"/><ellipse cx="72" cy="8" fill="#f44913" rx="32" ry="14"/><path fill="#7f2069" d="M109 35L90 78l53-38z"/><ellipse cx="130" cy="158" fill="#c8b2a1" rx="22" ry="31"/><path fill="#eb80e7" d="M120.7 70l-4.1-16.5-33.1 41.8 19.9 14.3z"/><path fill="#00140b" d="M199.3-16l21.8 29 49.9 5.2L229.4-16z"/><path fill="#deefdb" d="M129 58.3l7.2 13.3 16.6-19.5-23.5-2.4z"/><path fill="#e74223" d="M214.2 15.6l-52 3.7-2.4-35 52-3.6z"/><path fill="#b0783d" d="M150 18h39v49h-39z"/><circle r="1" fill="#a12300" transform="matrix(34.2821 46.65912 -8.27002 6.07627 192.5 116.9)"/><path fill="#000200" d="M271 131V70l-35-18z"/><ellipse cx="243" cy="27" fill="#89301f" rx="57" ry="12"/><circle r="1" fill="#462526" transform="matrix(-4.66119 15.53654 -26.0666 -7.82036 210.3 48)"/><path fill="#bb5c4d" d="M0 26h54v53H0z"/><path fill="#f5cbd2" d="M124.3 100.1L114 117.3l-22.3-13.4L102 86.7z"/><path fill="#020909" d="M0 0h42v23H0z"/><path fill="#992753" d="M120 29l15 60-24-39z"/><ellipse cx="234" cy="144" fill="#702321" rx="28" ry="70"/><ellipse cx="75" cy="77" fill="#c53a1f" rx="30" ry="6"/><path fill="#db8556" d="M119 19h54v17h-54z"/><ellipse cx="84" cy="40" fill="#81392e" rx="34" ry="21"/><path fill="#bec1a4" d="M9.2 88.7l30.1-9.6 53.3 52.5-75.4-15.2z"/><path fill="#ff5b00" d="M85 113l21-6-12 50z"/><path fill="#c92415" d="M136.9 94l-30-1 .2-7 30 1z"/><path fill="#2d2921" d="M168.3 20.2l-26.5-1.9-72.4-30.6 86.3 14.8z"/><circle r="1" fill="#14090e" transform="matrix(-1.86919 -5.75382 30.902 -10.03884 243.5 169)"/><path fill="#ac2300" d="M233.9 185l-25.3-15.6-7.3-40.5 10.7.2z"/><circle r="1" fill="#8b3833" transform="matrix(.35073 -14.7702 29.5327 .70128 215.9 78.3)"/><circle r="1" fill="#835e4c" transform="matrix(2.33355 -2.05691 26.7126 30.30523 34.5 139)"/><path fill="#ff4439" d="M77 137h24v15H77z"/><ellipse cx="182" cy="153" fill="#ab6c59" rx="19" ry="27"/><circle r="1" fill="#b53505" transform="rotate(-149.8 93.3 23) scale(27.4114 18.08123)"/><path fill="#f7ced4" d="M81 150l2 7 5-17z"/><path fill="#e680d8" d="M108.2 74.1l25.2 12.2-4.4-13-11.7 2.2z"/><path fill="#bffd00" d="M188 31l-5-15-4 17z"/><path fill="#a37e72" d="M49 155h90v15H49z"/><path fill="#a4b095" d="M27.2 135.2l12 17.2-20.4 14.4-12-17.2z"/><path fill="#980044" d="M98 98l-11-2 6-6z"/><path fill="#be4e52" d="M198 73l-42-9 24-25z"/><path fill="#861595" d="M131.4 50.2l4.1-10.9 2-4.1 8.9 17.6z"/><path fill="#bd4787" d="M93.8 86l-4.2-18.6 14.6-3.3 4.2 18.5z"/><path fill="#262b1e" d="M134.4 8.4l8.3-24.4H95.1L109 24.8z"/><path fill="#c6705c" d="M58 73l-74-45 63-5z"/><path fill="#c5836b" d="M106 123l38 34-44 1z"/><path fill="#b0b627" d="M147.7 41.4l13.2-14.8 5.6 8.2-19.1 21.1z"/><path fill="#8a2201" d="M265 11l13.8 37.6L244.9 61l-13.7-37.6z"/><path fill="#526d5a" d="M-16 165l60-4-21 24z"/><path fill="#d5d6c7" d="M137 129l-31-8 40 25z"/><ellipse cx="83" cy="87" fill="#ecd2d7" rx="26" ry="3"/><path fill="#c2411c" d="M106.4 22.7l-62.2-.8L36-8.4 97.7-16z"/><path fill="#a95041" d="M15.1 78.4l-24.5 22.3 7.9-54.2 54 32.4z"/><path fill="#6a3530" d="M186 16h38v14h-38z"/><path fill="#171911" d="M44 23h-60l52-36z"/><path fill="#dccdc9" d="M108.5 82.6l19.2-4.6-22.7-7.7 10.4-5.1z"/><path fill="#db49ca" d="M110.7 87l-5.4 20.9.7 2-6.4-3.7z"/><path fill="#8c2400" d="M170 112l51 34-32-68z"/><circle r="1" fill="#dc511c" transform="matrix(.88322 -4.93844 12.0938 2.16291 81.8 80.5)"/><path fill="#ccf65e" d="M147 47.4l-12.2-15.8 16.4 9.7 6.4 3.4z"/><circle r="1" fill="#cb3e0d" transform="rotate(-71.2 135.9 -52.4) scale(6.7786 29.25018)"/><circle r="1" fill="#bd7d67" transform="matrix(-23.65457 -8.28371 5.67183 -16.1962 161.4 128.4)"/><path fill="#beaf96" d="M91 125l-71-14 27 37z"/><path fill="#997c66" d="M85.4 126.4l-46.8 30.1-11.5 3.6 25.2 20.6z"/><path fill="#e8f3d5" d="M138 69l-4-17 14 2z"/><path fill="#edd8c0" d="M72 94.3l4.1-5.6 20 15-4.2 5.6z"/><circle cx="160" cy="41" r="4" fill="#534000"/><circle r="1" fill="#ff9c25" transform="rotate(-166.4 52.8 54.4) scale(3.4715 15.27027)"/><path fill="#722f25" d="M64.3 47L48.4 28.9l2.4-5.3L70 20.8z"/><path fill="#d3bba1" d="M84 84l2 53-53-59z"/><path fill="#817627" d="M152.2 62.1l53.4-39.9-62.2 40.5-3 3.5z"/><path fill="#d79d77" d="M134.2 96.6l9.8 15.1-30.2 19.7-9.8-15.1z"/><path fill="#aaa176" d="M27.8 103.8l-40-.7.4-25 40 .8z"/><path fill="#ceb282" d="M128 54l-3-12 9-12z"/><path fill="#561432" d="M89.6 68.5l16.5-17.2 4 12.7-4.8-1.5z"/><path fill="#d728cf" d="M130 78l-10-8 8 14z"/><circle r="1" fill="#c4cbc4" transform="matrix(28.61803 3.8693 -.61252 4.5303 48.2 114)"/><path fill="#2c0d2c" d="M115.9 45.1l-1.7-3.6 10-4.6 1.6 3.6z"/><path fill="#7e9677" d="M13.4 126.2l10.8 37.2-18 8.3-22.2-68.8z"/><path fill="#d65fba" d="M121 73.5l-2.5-23.9-8.8 13.7-1.8-11.2z"/><path fill="#010e02" d="M260.5 55.5l10.2 24-21.2 9-10.2-24z"/><path fill="#c0492a" d="M172 17l32-32 15 31z"/><path fill="#eb3214" d="M86 154l17-38-6 39z"/><path fill="#b73913" d="M134 70h57v19h-57z"/><path fill="#ad5035" d="M132 59l-15-9 13 24z"/><path fill="#a62f13" d="M230.2 27.9l12.5 15.8.6-26.1-14.5-.6z"/><path fill="#984135" d="M58 39h36v39H58z"/><circle r="1" fill="#c3b08e" transform="matrix(-27.72296 -11.42658 4.85249 -11.77302 42.7 95.5)"/></g></g></svg>