<svg xmlns="http://www.w3.org/2000/svg" viewBox="0 0 1400 787"><defs/><filter id="a"><feGaussianBlur stdDeviation="12"/></filter><rect width="100%" height="100%" fill="#603537"/><g filter="url(#a)"><g fill-opacity=".5" transform="translate(2.7 2.7) scale(5.46875)"><circle r="1" fill="#f5fff3" transform="rotate(149.6 75.3 49.6) scale(227.83183 55.13727)"/><circle r="1" fill="#fff" transform="matrix(7.98709 28.0389 -52.15256 14.85605 36.8 135.9)"/><circle r="1" fill="#eff0d9" transform="rotate(-64.3 133.8 -130.3) scale(14.98163 147.22317)"/><ellipse cx="94" cy="46" fill="#081c16" rx="70" ry="12"/><circle r="1" fill="#2c3232" transform="rotate(48.9 94.1 274.7) scale(39.23349 23.07308)"/><circle r="1" fill="#000100" transform="matrix(-21.25286 -1.59127 .947 -12.64814 29 98)"/><circle cx="37" r="57" fill="#00241a"/><path fill="#ffffeb" d="M30 56h38v29H30z"/><ellipse cx="234" cy="134" fill="#eb9aa2" rx="30" ry="12"/><path fill="#450e0d" d="M171.2 68.8l38.7-3.5-1.7 18.8-32.7 2.1z"/><circle r="1" fill="#fffffd" transform="matrix(31.19783 6.17734 -6.73411 34.00976 59 135.4)"/><path fill="#fff" d="M120 23h27v21h-27z"/><path fill="#71695b" d="M94.2 168.3l-10.3-53 59.9-11.6 10.3 53z"/><path fill="#ffffea" d="M253 102l18-57-37 20z"/><path fill="#2a201a" d="M106 60.6L70.8 71.4l-6.8-22 35.4-10.8z"/><circle r="1" fill="#68725b" transform="matrix(-9.66476 -22.22742 27.63087 -12.01425 12.4 80.2)"/><path fill="#ffffed" d="M-5.6 107L-16 141.5l110.5 9.9-17.8-38.8z"/><path fill="#13130e" d="M259 106l-30-34-59 49z"/><circle r="1" fill="#fff" transform="rotate(90.4 77.5 137.8) scale(5.19467 61.39643)"/><path fill="#999687" d="M98-15l73 29-88 19z"/><path fill="#fff" d="M181.7 104.8l37.8-20.1-19.2 1.6-21.5-1.4z"/><path d="M165 48l-2-11-23-1z"/><path fill="#fff" d="M54.4 92.3l-1.8-34 13-.6 1.8 34zM87 32h53v4H87z"/><path fill="#2b2a25" d="M5 106l69-8-57-13z"/><path fill="#432c25" d="M144 20l9-9-16-13z"/><circle r="1" fill="#958d84" transform="matrix(33.30172 34.44829 -8.5663 8.28119 206 21.2)"/><path fill="#4b362b" d="M117.3 10.3l21 5.8-23.9 6.7 1.4-8.3z"/><ellipse cx="163" cy="24" fill="#14110e" rx="2" ry="24"/><path fill="#f9e9cc" d="M100-6l-5 21 29-8z"/><path fill="#454a4f" d="M175.4 158l-39.6-9.9.9-31.6 28.7-13.4z"/><path fill="#f6ffff" d="M210 88l11-7-6-32z"/><path fill="#ebdcbb" d="M13 57l11 2L0 74z"/><path fill="#fff" d="M121 44h3v17h-3z"/><path fill="#c4bca0" d="M70 71h101v26H70z"/><path fill="#392d25" d="M41.9 87.2l-4.8-20.8-15 40.5 15.2 3.5z"/><ellipse cx="134" cy="26" fill="#fff" rx="30" ry="3"/><circle r="1" fill="#534f4f" transform="matrix(14.88455 -40.02335 19.64462 7.30577 255 15.3)"/><path fill="#352f2a" d="M124.4 39.1L45.3 57.9l-9.4 19.4L44.7 30z"/><path fill="#99897c" d="M145.4 130.5l-39.9 24.9-24.9-39.9 39.9-24.9z"/><path fill="#fffff8" d="M68 128l11-29-33 3z"/><path fill="#dbcaaf" d="M244.5 29l-92 22.5-14.6 2.4 34.5 9.1z"/><path fill="#d4c6b5" d="M122 116.2l.1-18.9 11.5 9.8-13.9 33.5z"/><circle r="1" fill="#182016" transform="matrix(4.98706 -3.58673 23.22767 32.29615 244.5 103.5)"/><path fill="#fff" d="M143 42h3v12h-3z"/><path fill="#212a25" d="M-1.2 53.7L-5.9-16l109.2 77.9 23.1-2.9z"/><path fill="#ebd0ac" d="M267 90.5L256.6 101 229 73.4 239.5 63z"/><path fill="#7d5a47" d="M126.7 121.2l-10 6.5-17.4-26.9 10-6.5z"/><path fill="#fffff1" d="M85 27l2 7 10-4z"/><circle r="1" fill="#f8bd8a" transform="matrix(6.10686 -1.35386 3.46114 15.6122 46.9 80.7)"/><circle cx="134" cy="36" r="6" fill="#fff"/><circle r="1" fill="#47201c" transform="matrix(-19.50596 12.57073 -7.73902 -12.00861 183.3 121.9)"/><ellipse cx="16" cy="117" fill="#fffdf2" rx="28" ry="9"/><path fill="#fff" d="M57 53.5l-6.1 32.3-4.1 1.1 27.4 2.7z"/><path fill="#e5d4b8" d="M165 11h26v38h-26z"/><path fill="#fff" d="M170 57h86v8h-86z"/><ellipse cx="242" cy="142" fill="#bb8787" rx="14" ry="25"/><ellipse cx="67" cy="8" fill="#292f2b" rx="29" ry="31"/><circle r="1" fill="#833442" transform="matrix(5.97698 7.5182 -19.29255 15.33759 220.7 122.4)"/><path fill="#41423a" d="M44 93h30v5H44z"/><path fill="#2d2721" d="M172 76h34v8h-34z"/><ellipse cx="185" cy="73" fill="#ee8f91" rx="26" ry="2"/><path fill="#a57c47" d="M156.3 19.2l1.3-.4-1.8 9-12.3-4.6z"/><path fill="#5b5750" d="M133.7 16.2L96.1 29.9 85.9-16l-.8 38.8z"/><path fill="#533a2e" d="M114 116h6v27h-6z"/><path fill="#574942" d="M87 36h43v5H87z"/><path fill="#5c5856" d="M179 0h77v7h-77z"/><path fill="#2d2020" d="M90 125l3-9 9 9z"/><path fill="#9f9887" d="M-5.7 54.5l16.8 58.9L-16 76.1l28.1-17.5z"/><circle r="1" fill="#1d201f" transform="rotate(12 -433.7 45.4) scale(27.61325 3.36645)"/><ellipse cx="159" cy="5" fill="#fff6e7" rx="3" ry="32"/><path fill="#c2bba6" d="M28 67.4l7.1 7.3 5.1-12.1-12.3-.9z"/><path fill="#62534d" d="M120 58L92 35l-5 28z"/><path fill="#513c2d" d="M139 125l-6-28 20 38z"/><path fill="#a69789" d="M238 38L83-16h84z"/><path fill="#c1bbaf" d="M85.7 139.4L73.4 86.7l27.8 58.4 8.6-20z"/><path fill="#a79885" d="M149.5 90.9l-2.8 40.9 19-15.7-57.3-28.8z"/><path fill="#280704" d="M214.3 151.3l-6.7 4.3-24-36.9 6.8-4.3z"/><path fill="#bfbcb7" d="M113.7 135.7l-32.6-30.9 30 20.3-4.9 29.4z"/><path fill="#fffff1" d="M208 87l-25 18 1-20z"/><path fill="#fff" d="M108 33h49v3h-49z"/><circle r="1" fill="#203028" transform="matrix(-1.88866 -2.9532 38.52818 -24.6398 151 131.9)"/><path fill="#c19173" d="M222 65h31v3h-31z"/><path fill="#fff" d="M53 57h14v31H53z"/><path fill="#afa08a" d="M163.3 82.7l8.9-30.6-12.9-2-79.9 17.5z"/><path fill="#d4cab2" d="M95 82L75 95l25 16z"/><ellipse cx="131" cy="23" fill="#fff" rx="15" ry="2"/><path fill="#615851" d="M147.3 15.8l-15.5-31.6 25.9 16.9-17.4 9.4z"/><ellipse cx="165" cy="15" fill="#fff" rx="1" ry="31"/><path fill="#201f15" d="M264 103l-38-19 45 64z"/><path fill="#413c35" d="M40 86v24L-3 70z"/><path fill="#685b56" d="M91 132.5l20.6 7.4L96.2 128l-1.4 2.1z"/><path fill="#5a493d" d="M170 66h26v4h-26z"/><path fill="#706967" d="M220 49h36v7h-36z"/><path fill="#f1e9da" d="M149.4 102.4l6.9 1.4-1.7 7.8-6.9-1.4z"/><path fill="#3b3936" d="M146 38h17v11h-17z"/><path fill="#4d468c" d="M168.3 138.1l-20.2 14.7-6.4-8.9 20.2-14.7z"/><path fill="#93302a" d="M169.9 124.9l10.5-7.7 21.7 30-10.5 7.6z"/><path fill="#101919" d="M99 21h4v11h-4z"/><path fill="#fdffff" d="M212 58h10v20h-10z"/></g></g></svg>