<svg xmlns="http://www.w3.org/2000/svg" viewBox="0 0 1400 934"><defs/><filter id="a"><feGaussianBlur stdDeviation="12"/></filter><rect width="100%" height="100%" fill="#643b2b"/><g filter="url(#a)"><g fill-opacity=".5" transform="translate(2.7 2.7) scale(5.46875)"><circle r="1" fill="#fff" transform="matrix(18.19401 -12.1764 44.65132 66.71813 143.4 39.8)"/><circle r="1" fill="#ffd286" transform="matrix(-18.93802 -4.95437 9.74649 -37.25587 211.4 24)"/><circle r="1" fill="#004366" transform="matrix(-44.66861 79.70497 -43.12714 -24.1695 16.3 48)"/><circle r="1" fill="#feffff" transform="rotate(51.5 28.7 169.5) scale(62.11487 14.79712)"/><circle r="1" fill="#c46547" transform="matrix(-9.6015 12.06432 -55.10879 -43.85886 148.6 103.8)"/><circle r="1" fill="#ffbb76" transform="matrix(4.50695 14.7411 -25.65575 7.844 182 89)"/><ellipse cx="67" cy="113" fill="#c14b27" rx="17" ry="58"/><circle r="1" fill="#907165" transform="matrix(-25.00862 .04365 -.07793 -44.65128 123 153.9)"/><path fill="#431f12" d="M115.4 41.5l-19.1-1.8 53.6 27.2 11.4 40.6z"/><path fill="#cbf3ff" d="M204.3-12.4l32 14.2-6.6 14.6-32-14.2z"/><ellipse cx="218" cy="62" fill="#a3531f" rx="36" ry="26"/><circle r="1" fill="#db7872" transform="rotate(-103.3 70.5 74) scale(24.41398 8.71416)"/><path fill="#e8f6ef" d="M106.3 49l28.1 6.6L117.9 25l9.3 42.3z"/><circle r="1" fill="#4c5d71" transform="matrix(-22.66742 -23.06653 7.33265 -7.20577 95.4 15.6)"/><circle r="1" fill="#0c3038" transform="matrix(28.39574 -71.45676 27.747 11.0262 46.8 35)"/><path fill="#3b95c4" d="M-10 44l-5-30 57-30z"/><path fill="#d5621f" d="M237 132.4l-54.4-70.8 13.7 42.3 11 23.8z"/><path fill="#e9edef" d="M122.9 30.1l57.3 27.4-18.9 51.1-7.4-35.6z"/><circle r="1" fill="#362915" transform="matrix(10.12555 -5.0705 18.84461 37.63182 171.3 27.7)"/><path fill="#af4d35" d="M171 140l100 25-61 20z"/><ellipse cx="4" cy="76" fill="#277d90" rx="7" ry="35"/><path fill="#9c9a99" d="M25-16l104 2L79 8z"/><path fill="#37303d" d="M191.7 149.8l-31.8-35.2-35.4 22.8 30.6-1.8z"/><path fill="#286080" d="M27 95l-8-40 36-29z"/><path fill="#e9e4c0" d="M187 85h30v4h-30z"/><path fill="#dd8b3e" d="M200 17h28v36h-28z"/><path fill="#2b261f" d="M43.3 143.5L28.9 185l-1-100.1L64 132z"/><path fill="#cf9a44" d="M2.8 79.5L-16 58l26.2 53-15.2-2.2z"/><path fill="#233334" d="M212 156l-12-55-19 4z"/><path fill="#eaa16c" d="M218 14l-46 15 28-25z"/><circle r="1" fill="#b08966" transform="matrix(9.3755 8.95056 -5.98109 6.26506 61.8 144)"/><circle r="1" fill="#2f2e26" transform="matrix(2.44894 5.52634 -18.53983 8.21572 217.5 72)"/><path fill="#101914" d="M24 12l45-4-74 61z"/><path fill="#583120" d="M125.7 77.9l28.3-6.1-29.2-17.1-10.5-29.5z"/><path fill="#d1c7ae" d="M108.5 52.2l8.4 11.8-24.6 7L130 48.1z"/><path fill="#e69f4f" d="M170 67.8l12.7-11.6 13.8 24.6 4.2 22.6z"/><path fill="#a33416" d="M69 48l-29 67 55 11z"/><path fill="#8f3517" d="M2 106.1l32.6 24.4-13.4 22-37.2-26.3z"/><path fill="#380f01" d="M195.2 56.8l3.6-25 2.7 8.5-6.4 37.6z"/><path fill="#c1a15f" d="M245.4 49.7l4.6-.9-10.5 10-34.3 12.9z"/><path fill="#281d15" d="M89.9 32.7l-1.8 26.4-38.7.3L85.6 12z"/><circle r="1" fill="#5b2f0c" transform="matrix(11.55725 16.94454 -20.1896 13.77058 249.8 26.3)"/><path fill="#e3faff" d="M135 55.2l-9.8 1.9-8.2-42.3 9.8-1.9z"/><path fill="#c59687" d="M122.9 154.9l7.8 30.1 15.9-2.4-62.8 2.4z"/><path fill="#0e4d74" d="M109-16l44 21 48-5z"/><circle r="1" fill="#973f10" transform="matrix(37.55929 -16.92533 1.44064 3.19694 202.4 96.7)"/><path fill="#cb5e3a" d="M152.5 124.9l-18.6-48.1v50.3L115 103.4z"/><path fill="#4e251b" d="M131 82l-57 40 18-34z"/><path fill="#b66260" d="M35 43l-5 17 16-17z"/><path fill="#163a4d" d="M98.2 126.4l12.5 38.9.8.4 2.3-27.3z"/><path fill="#e7ffff" d="M120-16l-3 39L97-7z"/><path fill="#c0bd97" d="M184.8 73.1l-34.9-39.3-46.2-48.3 30.8-1.5z"/><path fill="#441f13" d="M222.9 51.4L220 36.9l-1.3.8-1.9 28.5z"/><path fill="#be593d" d="M31-16L-5 17 5-5z"/><path fill="#64707a" d="M61 183l20-16 3-25z"/><path fill="#4f5058" d="M115.3 26L97.2 36.5 80.7 8 98.8-2.5z"/><path fill="#846365" d="M169.4 131.8l-38.9 31.3 12.3 2.6 19.2-9.4z"/><path fill="#05556e" d="M45.4 67.6L13.1 99l-9.9 12.5 15.4 2.7z"/><path fill="#d74f3b" d="M49 121l-2-29 18-16z"/><path fill="#09668d" d="M43.9 1.9L21.4-16l-7.1 55.4-26.5-24.1z"/><path fill="#11221e" d="M13.7 94.7l.3-41.9 29 71.6 4.7-43.7z"/><ellipse cx="168" cy="160" fill="#00183c" rx="4" ry="16"/><path fill="#7b3012" d="M94 57v88L54 59z"/><path fill="#9b381c" d="M246.7 56.6L271 70.9l-39.3-3.8L244.5 185z"/><path fill="#725e5d" d="M42.8 125.9L54 178.7l-6.8 1.4L36 127.3z"/><circle r="1" fill="#1f3b54" transform="matrix(2.78857 -2.89013 9.08679 8.76747 131.1 133.7)"/><path fill="#a95326" d="M174.8 93.9l14.2 23.3 19.7 39.9-20.9 24.4z"/><path fill="#0e7398" d="M47.8 70.9l-9.5-38.3.1 13.3-8.7 20.4z"/><path fill="#644b38" d="M138 58l13 30-51-33z"/><circle cx="220" cy="123" r="13" fill="#b13f21"/><path fill="#2b1c0d" d="M163.6 39l19.1 19.1 8.7-32.6-23.6 12.9z"/><path fill="#fff" d="M73 2l-3-18H32z"/><path fill="#b56247" d="M128.1 55.4l-26.5 38.9-7.2-22.4 9.8-4.5z"/><path fill="#c36f6c" d="M-16 162l27-5 8-23z"/><path fill="#181e1a" d="M217.3 88.3h-4.6l11.6 22.5 8.7-4.5z"/><path fill="#a85026" d="M119.9 144.7l2.5-17.8-15.7-21.7-3.6 21.2z"/><path fill="#8ca08b" d="M246.5 1.7L271 5.6 238.6-6.9l-10 15.8z"/><circle cx="112" cy="52" r="4" fill="#fffdc7"/><path fill="#e5883b" d="M188 42l16-26-12 42z"/><path fill="#432210" d="M72 59.3l9.4-2.3 37.2-26.2 1.9 16.4z"/><path fill="#094054" d="M-16 77.8V64.9l78.7 7.2 2.8 4.7z"/><path fill="#763713" d="M208.4 76.5l2.1-30.2-12.7 34-29.9-37.9z"/><path fill="#29180c" d="M48.9 185l-13.1-5.7-8.9-56.9-2.4-21z"/><path fill="#47324c" d="M205.5 163l27.5-6.7-5.3 18.4 31.8-49.4z"/><path fill="#6e2f1f" d="M73.6.4l-3.8 7.3 12.1 18.1 2.3-17.7z"/><path fill="#d5e3ee" d="M154.3 28.5l5.4 46.8L134 57.6l-15.3-22.3z"/><circle cx="242" cy="35" r="7" fill="#bc491e"/><circle r="1" fill="#b44422" transform="matrix(3.98086 -7.52974 18.69425 9.88336 144 100.6)"/><path fill="#e6a667" d="M210 39h6v24h-6z"/><ellipse cx="203" cy="49" fill="#e09855" rx="3" ry="19"/><path fill="#85463c" d="M113 43l1-22-31 21z"/><circle r="1" fill="#f2cfc1" transform="matrix(-4.92677 -8.21688 14.35611 -8.6078 171.8 78.4)"/><path fill="#c27461" d="M167.9 124l3.5-6 20.7 12-3.5 6z"/><circle r="1" fill="#0b587e" transform="matrix(3.35332 37.00625 -4.70829 .42664 6.4 72)"/><path fill="#2d2926" d="M110 85h7v35h-7z"/><path fill="#00386f" d="M155 171l-8-17-4 31z"/><path fill="#cf3023" d="M24 122L9 153l13-3z"/><path fill="#aa3e20" d="M206 127l2 13 30 8z"/><path fill="#93a1b2" d="M15 5L0-16l47 8z"/><path fill="#412818" d="M150.8 13.8L186.1 66l-26.3-76 20.3 14.6z"/></g></g></svg>