<svg xmlns="http://www.w3.org/2000/svg" viewBox="0 0 1400 933"><defs/><filter id="a"><feGaussianBlur stdDeviation="12"/></filter><rect width="100%" height="100%" fill="#4e3c31"/><g filter="url(#a)"><g fill-opacity=".5" transform="translate(2.7 2.7) scale(5.46875)"><circle r="1" fill="#fff" transform="matrix(-200.57024 -86.56461 50.98438 -118.13084 170 51.7)"/><circle r="1" transform="matrix(-59.17724 -10.99452 2.52148 -13.57169 105.8 104.5)"/><circle r="1" fill="#e1e0bc" transform="rotate(58.6 36.8 99.7) scale(59.25145 91.08689)"/><path fill="#142c39" d="M224.4 137.4l7.9-49.5-32.6 5.9-20.5 9.1z"/><circle r="1" fill="#d9f1fb" transform="matrix(134.23766 -38.59573 6.09124 21.18559 229.7 142)"/><circle r="1" fill="#fbfadc" transform="matrix(3.0878 -25.93428 75.91668 9.03884 200.2 0)"/><circle r="1" fill="#a66e23" transform="matrix(14.21436 31.70148 -68.51082 30.71898 8.5 139.9)"/><path fill="#edf4f1" d="M92 9h31v83H92z"/><circle r="1" transform="rotate(-165.9 70.2 45.6) scale(36.13602 8.50036)"/><ellipse cx="244" cy="57" fill="#2a130b" rx="4" ry="38"/><path fill="#363d24" d="M220 30h11v69h-11z"/><path fill="#847e5e" d="M131 24h36v63h-36z"/><path fill="#d2e7e5" d="M140.8 77.7l50.3 14.2-30 62.3 4.7-33.7z"/><path d="M71.9 77.1l-18 18.7 58 16.1L91.6 97z"/><path fill="#201500" d="M44 58h35v5H44z"/><path fill="#7b4200" d="M21.6 115.9L-7.9 185h145.8l-64-41.4z"/><ellipse cx="246" cy="125" fill="#f5ffff" rx="22" ry="17"/><path fill="#c0cdc9" d="M245.3 33.9l-12.2 95.5-3.1-62.2-80.7 11.5z"/><circle r="1" fill="#171f21" transform="rotate(146.2 83 85.8) scale(9.04634 14.33643)"/><circle r="1" fill="#a6a57e" transform="matrix(49.68545 9.87364 -3.55977 17.9132 75.7 121)"/><path fill="#deffff" d="M250 37h6v65h-6z"/><path fill="#fff" d="M205.8 109.1l1.3-3.8 17 5.6-1.2 3.8z"/><path fill="#ffffb3" d="M52.9 32.2l-22 7.1L19 11l38.4 5.8z"/><path fill="#161c1a" d="M135 76h35v6h-35z"/><path fill="#c0b9ae" d="M0 63h58v31H0z"/><ellipse cx="205" cy="16" fill="#ffffe6" rx="18" ry="12"/><path fill="#472f25" d="M9 115.7l9.3-43.6L8.5 101l74.9-12.2z"/><circle r="1" fill="#c5e5eb" transform="matrix(-7.40266 -3.59523 8.59679 -17.70096 182.7 126.4)"/><path fill="#0f0200" d="M189 36l-1.1 7.9L175 42l1.1-8z"/><path fill="#2d211a" d="M246.2 27.2l18.6-7.6-11.1 3.7-7.8 50z"/><circle r="1" fill="#13263b" transform="matrix(1.19459 -6.91593 11.44881 1.97755 214.6 120.8)"/><path fill="#ebefe5" d="M105 66l30 23-19 11z"/><path fill="#a59f8e" d="M96.6 43l39.3-19.9 48.8-18.3 2.5 30.3z"/><path fill="#0a0f08" d="M83 98h65v13H83z"/><path fill="#798472" d="M147.6 122.4L144 137l-77.6-19.4L70 103z"/><path fill="#34262f" d="M267.2 109.9l-28.6-13.2 1.8-.3-3.3 10.7z"/><path fill="#230500" d="M214 33h20v8h-20z"/><path fill="#ffffd1" d="M130.7 28.5l-28 2-1.4-21 28-2z"/><path fill="#020000" d="M214 65l13 13 3-12z"/><circle r="1" fill="#c5c3af" transform="rotate(-73.2 159.7 -5) scale(10.75343 63.65989)"/><circle r="1" fill="#baa278" transform="matrix(25.23334 -78.04825 18.37863 5.9419 0 66.4)"/><path fill="#c7d4e4" d="M152 69l-37-29-68 37z"/><path fill="#001135" d="M97 79l-11 2-1-6 10.8-2z"/><path fill="#060b01" d="M69 100L55 82l33 7z"/><path fill="#050702" d="M144.8 78.8l-1.9 8.8-11.7-2.4 1.9-8.8z"/><path fill="#9fa9b1" d="M241 34l-23-10 48-40z"/><path fill="#cddad6" d="M167 55h23v23h-23z"/><ellipse cx="168" cy="91" fill="#d8dbcf" rx="38" ry="7"/><circle r="1" fill="#b2a28e" transform="matrix(5.58519 -16.98502 36.16116 11.89089 66.2 4.9)"/><circle r="1" fill="#cbb181" transform="matrix(-20.26176 -7.65628 2.39375 -6.33487 39.2 116.2)"/><path fill="#7d7a88" d="M223 150l-21 35 36-26z"/><path fill="#5a637a" d="M102 40h4v29h-4z"/><path fill="#c4c2b2" d="M140.5 79.1l10.7 32.2 11.2-9.2-6.8-23.3z"/><path fill="#b8aa53" d="M35 50h48v9H35z"/><path fill="#754f2f" d="M16.3 123.7l-7 .5-3.6-51.9 7-.5z"/><ellipse cx="35" cy="82" fill="#bfc1c7" rx="22" ry="14"/><path fill="#a6a399" d="M132.3 55.4l-4.5 36.7-7.9 14.3-3.9-79.3z"/><circle r="1" fill="#bfd1d8" transform="rotate(-80.8 180.3 -50.4) scale(11.15664 45.55082)"/><path fill="#1d242e" d="M69 78l11-3-2 8z"/><path fill="#2f3130" d="M213 87l-8 27-23-14z"/><path fill="#a6aba4" d="M221.6 83.5l-16.2 13.1 8.9-70.7.2-10.8z"/><path fill="#100" d="M245.2 34l-1.6-4.8 15.2-5.2 1.6 4.8z"/><ellipse cx="87" cy="83" fill="#d9d3c1" rx="27" ry="3"/><path fill="#feffff" d="M108 43h9v43h-9z"/><path fill="#7d8360" d="M177 44h51v10h-51z"/><path d="M135 48.3l4.3 5.5-2.3 1.9-4.3-5.5z"/><path fill="#9aaaa2" d="M124 110l43 36-66-10z"/><path fill="#0a0f0e" d="M134.6 114.9L124.5 93l23.6 8.1 4.8 25.8z"/><circle r="1" fill="#1f2d2a" transform="matrix(-10.34206 -1.26985 .28797 -2.34533 172.4 81.3)"/><path fill="#acc2c3" d="M160 116l-29 35 71-42z"/><circle r="1" fill="#cab68c" transform="matrix(-1.68507 -5.61664 19.22213 -5.76691 53 107.8)"/><path fill="#5c563b" d="M74.8 113.7l32.9 11.4-8.8-13.5 4.2-12.5z"/><ellipse cx="38" cy="25" fill="#ffffd6" rx="14" ry="8"/><ellipse cx="243" cy="84" fill="#4c342d" rx="4" ry="15"/><path fill="#bdbdaf" d="M123 54h102v12H123z"/><path d="M145.2 44.6l.6-4 5 .8-.6 4z"/><path fill="#6a3f0e" d="M85 185l-73-78 73 44z"/><path fill="#a7bce6" d="M253.5 197.7l-21 1.5-4-58.9 21-1.5z"/><path fill="#d1cfc7" d="M91.4 98L87 95.3 96.6 80l4.3 2.7z"/><path fill="#0f120e" d="M100.7 90.3l56.8 34.7-91.6-30.5 20.7 11z"/><circle r="1" fill="#b8aca2" transform="matrix(-13.83278 -6.08082 10.46634 -23.80905 27.6 57)"/><path fill="#e2f3ff" d="M100 51L69 76l34-4z"/><path fill="#2f3839" d="M121 74h27v4h-27z"/><path fill="#cfddea" d="M233 46h5v58h-5z"/><circle r="1" fill="#050d0f" transform="matrix(.63582 -1.92463 7.696 2.54245 199.8 120.4)"/><circle r="1" fill="#fffdce" transform="matrix(4.54513 9.1561 -19.9787 9.91752 110 24.8)"/><path fill="#f0f8f9" d="M251 32l20-4-20 47z"/><path fill="#b5c0bf" d="M197.8 102.8l26-47.5-35 37.5-34.4-83.2z"/><circle r="1" fill="#c0c5cb" transform="rotate(3.2 -372.5 4411.4) scale(2.1168 69.61863)"/><path fill="#8b724d" d="M225 19h10v15h-10z"/><path fill="#a8cfd4" d="M250 64l-5 37 20-1z"/><path fill="#d2deeb" d="M271 156.7L170.2 113l49.5 16 17.6-20.1z"/><circle r="1" fill="#ffffd4" transform="matrix(-17.39175 6.9562 -4.17341 -10.43428 207.3 16)"/><circle r="1" fill="#bfbbac" transform="rotate(-69.5 174.3 -8) scale(10.7622 38.01833)"/><path fill="#1f2526" d="M203.4 110.2l7.3-1.9-27.6-.6L195.3 93z"/><path fill="#bfcccc" d="M176 56.5l-10.2-9.3 29.7 100.3-31.9-23.8z"/><path fill="#8b5301" d="M81 154l41 18-70 1z"/><path fill="#000e00" d="M52 60h21v2H52z"/><ellipse cx="111" cy="66" fill="#63739b" rx="9" ry="2"/><path fill="#513322" d="M54.8 102.1l-39.1 6.8 7-10.1 23.5-3.7z"/></g></g></svg>