<svg xmlns="http://www.w3.org/2000/svg" viewBox="0 0 420 280"><defs/><filter id="a"><feGaussianBlur stdDeviation="12"/></filter><rect width="100%" height="100%" fill="#754c3f"/><g filter="url(#a)"><g fill-opacity=".5" transform="translate(.8 .8) scale(1.64063)"><circle r="1" fill="#fbffff" transform="rotate(-47.6 160.7 -153.7) scale(110.05976 254.99999)"/><circle r="1" fill="#fff" transform="matrix(-16.63664 44.8284 -62.005 -23.0112 41.6 21.4)"/><circle r="1" fill="#594430" transform="matrix(43.64574 47.6396 -25.25503 23.13778 159.5 97.5)"/><circle r="1" fill="#fff" transform="matrix(-2.9805 -47.37355 31.39695 -1.97533 239.1 136.2)"/><circle cx="49" cy="155" r="43" fill="#000300"/><circle r="1" fill="#000a0c" transform="rotate(41.6 51.8 358) scale(32.73474 22.06926)"/><ellipse cx="139" cy="162" fill="#fff" rx="51" ry="18"/><circle r="1" fill="#e3f5ff" transform="matrix(-8.23705 65.90973 -26.17615 -3.27136 196 24.3)"/><ellipse cx="14" cy="94" fill="#b5feff" rx="10" ry="28"/><ellipse cx="94" cy="81" fill="#fff" rx="6" ry="103"/><circle r="1" transform="matrix(-1.39207 -65.2701 2.28944 -.04883 82.6 34)"/><path fill="#050000" d="M152 153l7-63-21-2z"/><path fill="#223c2a" d="M54.2 119l-30.5-5.5 6-34.4 30.6 5.4z"/><ellipse cx="224" cy="91" fill="#e4fbff" rx="17" ry="39"/><path fill="#271500" d="M65 118h26v52H65z"/><path d="M105 89h103v11H105z"/><ellipse cx="124" cy="87" fill="#ffffe5" rx="66" ry="3"/><circle cx="43" cy="17" r="36" fill="#fff"/><circle r="1" fill="#d8e8fc" transform="matrix(3.84695 14.56013 -61.63598 16.28493 238.3 14.9)"/><path fill="#f6ffff" d="M67 0h12v115H67z"/><path fill="#0e080e" d="M208 91l-2 62-9-35z"/><path fill="#fff" d="M118 20h25v18h-25z"/><ellipse cy="70" fill="#7eb78a" rx="74" ry="17"/><circle r="1" fill="#1e1700" transform="matrix(62.07149 1.72561 -.78217 28.13515 13.7 155)"/><ellipse cx="127" cy="110" fill="#f5c2c1" rx="19" ry="12"/><circle r="1" fill="#edf9ff" transform="matrix(16.41563 11.62291 -32.06296 45.28414 236.8 134.3)"/><ellipse cx="165" cy="63" fill="#c0a681" rx="21" ry="27"/><circle r="1" fill="#001226" transform="matrix(1.80078 70.50384 -1.92045 .04905 82 62.5)"/><path fill="#210b00" d="M154.7 100l1.7 42.9 19.3 9.1-33.7-9.6z"/><ellipse cx="249" cy="46" fill="#222407" rx="35" ry="11"/><ellipse cx="96" cy="169" fill="#fff" rx="5" ry="138"/><path fill="#a8c4d4" d="M157 100h38v14h-38z"/><path fill="#fff" d="M86 0h13v113H86z"/><path fill="#3d2300" d="M134 42h11v42h-11z"/><ellipse cx="104" cy="106" fill="#7c5131" rx="4" ry="37"/><path fill="#fffff1" d="M131.8 175L93 170.9l3.2-29.9 38.8 4.1z"/><path fill="#dae1ff" d="M9 85h13v34H9z"/><path fill="#575e46" d="M10.9 147.2l22.4-51.9 32.4-17.6 9.6 8z"/><path fill="#8595be" d="M227 55h20v36h-20z"/><path fill="#c0d3aa" d="M60.4 118.5L2.2 126l74.6-5.6-46.7-108z"/><path fill="#c5a46e" d="M98.7 40.6l30-2.1 2.6 37-30 2z"/><path fill="#e8f1ff" d="M197 82l-6-56 45 54z"/><ellipse cx="167" cy="169" fill="#efddc9" rx="76" ry="18"/><circle r="1" fill="#8b8573" transform="matrix(-8.9516 -5.7028 20.20414 -31.71415 131.1 .2)"/><path fill="#998d90" d="M156 99h44v50h-44z"/><path fill="#892f33" d="M186 130.4l23.6 4.6-3.6 18.6-23.6-4.6z"/><path fill="#3f0000" d="M131 143h25v3h-25z"/><path fill="#3e5343" d="M7.9 124.7l-.4-66.8 15.8 4.4-37.3 61z"/><path fill="#fff" d="M79.2 116.4l-21-.8.6-14 21 .8z"/><ellipse cx="214" cy="86" fill="#dfbf91" rx="96" ry="4"/><path fill="#f1ffed" d="M-11 64l88-54-46-26z"/><ellipse cx="39" cy="31" fill="#d3d9be" rx="10" ry="54"/><path fill="#412d13" d="M70 117h20v53H70z"/><circle r="1" fill="#e7f0ff" transform="matrix(20.11518 -8.47283 12.04505 28.59591 231.6 120.2)"/><circle r="1" fill="#fff" transform="matrix(-8.8878 6.04014 -3.1405 -4.6211 124.4 33.7)"/><path fill="#252918" d="M261 94l-24-49 20-23z"/><path fill="#10070a" d="M203 112h6v27h-6z"/><path fill="#090000" d="M136.4 90.8l.2 8-27 .4-.2-8z"/><path fill="#6a8d7e" d="M68.5 76.6L74.4 95l-36.2-4.8 8.9-16.8z"/><path fill="#201b14" d="M151 89h57v10h-57z"/><path fill="#fff3e4" d="M91.2 142.4l71.5 5.5-24.9 13.8-37.6 3.8z"/><path fill="#1c3242" d="M80 76h5v39h-5z"/><path fill="#2b1e0b" d="M39.5 164.8l-51.3 25-23.7-48.6 51.3-25z"/><path fill="#8e8f97" d="M12 106h15v21H12z"/><ellipse cx="1" cy="29" fill="#9d896c" rx="6" ry="11"/><path fill="#3a2d1b" d="M198 89h58v1h-58z"/><path fill="#c44552" d="M106 127h13v15h-13z"/><path fill="#453e3b" d="M23.1 103.1l35 12.4-1.2-18.9-33.6-17.1z"/><path fill="#ab9471" d="M133 39l42-1 10 29z"/><path fill="#e2ffbc" d="M47 42h26v30H47z"/><path fill="#e0858b" d="M128 100h17v28h-17z"/><path fill="#6f947f" d="M11.3 52.7L27 68 .7 95.3-15 80z"/><ellipse cx="76" cy="73" fill="#fff" rx="3" ry="45"/><path fill="#617d85" d="M165.6 112.8l18.8-2.3 4 32.7-18.8 2.3z"/><ellipse cx="133" cy="86" fill="#ffefd7" rx="48" ry="3"/><path fill="#605c40" d="M271 34.1l-57.6-.8L233.9 55l-15 2.1z"/><path fill="#a9a7a0" d="M120.6 2.1L97-1.7l3.9 64 15.2-32.6z"/><path fill="#fff" d="M87 31h12v85H87z"/><circle r="1" fill="#928875" transform="matrix(17.27714 13.40153 -4.69787 6.05646 137.6 11.4)"/><path fill="#5a8280" d="M33 84l4-11-37 8z"/><path fill="#c1695b" d="M187 119h14v31h-14z"/><path fill="#e6edfe" d="M209 94h47v62h-47z"/><path fill="#341702" d="M145 98h11v49h-11z"/><ellipse cx="125" cy="82" fill="#2c2c24" rx="25" ry="2"/><path fill="#ebe3bf" d="M107 108h11v20h-11z"/><path fill="#faffff" d="M147 36l-17-18-16 20z"/><path fill="#fff" d="M48 0h30v39H48z"/><path fill="#362b22" d="M9.5 102.4l-12.4 22.4L-16 98.3l19.9-5.9z"/><path fill="#bdaaad" d="M122.4 101.4l47.7-2.9-30.5 3.3-23.5 38.6z"/><circle r="1" fill="#bec2cd" transform="rotate(164.3 85 22.3) scale(10.49659 27.6294)"/><path fill="#b69a75" d="M131 40l-30 11-1 42z"/><path fill="#644335" d="M107.7 140.4l-4 .2-1.4-41 4-.2z"/><path fill="#b0ac9a" d="M186 142l-16 9-13-26z"/><path fill="#bca182" d="M0 124h37v2H0z"/><circle r="1" fill="#e0d1c2" transform="matrix(-61.02211 -6.992 1.5656 -13.66357 217.1 169)"/><path fill="#fff" d="M40.6 17.8L44.8-16 18.1 37.2 13.6-3.1z"/><path fill="#5b4224" d="M137 38l7 46-18-36z"/><path fill="#d2dfed" d="M18 92.4l-22.5-.9L15 86.2l-8.1 24.2z"/><ellipse cx="234" cy="65" fill="#81a0e9" rx="7" ry="12"/><path fill="#283133" d="M205 152l-7 1 7-19z"/></g></g></svg>