<svg xmlns="http://www.w3.org/2000/svg" viewBox="0 0 1400 1120"><defs/><filter id="a"><feGaussianBlur stdDeviation="12"/></filter><rect width="100%" height="100%" fill="#444045"/><g filter="url(#a)"><g fill-opacity=".5" transform="translate(2.7 2.7) scale(5.46875)"><circle r="1" fill="#b5b5df" transform="matrix(76.74685 -98.56873 161.30377 125.59314 121.2 43.8)"/><circle r="1" fill="#fff2ff" transform="rotate(-160.9 34.1 98.6) scale(24.33439 27.98608)"/><circle r="1" fill="#000005" transform="rotate(149.1 34.5 75) scale(14.95231 48.0586)"/><ellipse cx="190" cy="164" fill="#fff" rx="30" ry="19"/><path fill="#000003" d="M223.2 182.3l-8.5-40 40-8.6 8.6 40z"/><circle cx="32" cy="71" r="40" fill="#b9d1ef"/><circle r="1" fill="#000024" transform="matrix(-7.34452 -12.75915 41.10905 -23.66353 169.5 136.9)"/><path fill="#ffe3fd" d="M96.5 181.7l26.2-26.2 24.8 24.8-26.2 26.2z"/><circle r="1" fill="#d3edff" transform="rotate(-110.7 73.2 -18.2) scale(42.72314 18.63838)"/><ellipse cx="161" cy="203" fill="#000005" rx="30" ry="27"/><circle r="1" fill="#000015" transform="matrix(2.59815 -10.94306 36.1264 8.57728 76 161.1)"/><circle r="1" fill="#fffdff" transform="matrix(.11212 11.23082 -29.58957 .29539 237.3 122.3)"/><path fill="#080a13" d="M60.5 114.3l-56.7-4.9 24.9 31.8 151.9-81.4z"/><circle r="1" fill="#010432" transform="rotate(-114.8 126.6 -31) scale(10.2339 39.66165)"/><circle r="1" fill="#ffebf9" transform="matrix(5.07948 12.90982 -19.14861 7.5342 130.4 115.6)"/><ellipse cx="184" cy="36" fill="#b5c1d5" rx="114" ry="18"/><circle r="1" fill="#feffff" transform="matrix(33.99013 -5.33674 1.41146 8.98971 70.9 3.6)"/><path fill="#000027" d="M127.2 79.3l45.2 8.8-3.6 18.6-45.2-8.8z"/><path fill="#fff" d="M217 82h31v19h-31z"/><ellipse cy="137" fill="#90a5e5" rx="11" ry="54"/><circle r="1" fill="#fff2f6" transform="rotate(2.7 -1991.3 3943.2) scale(21.17368 9.14614)"/><path fill="#fff3ff" d="M217 185l24 30-61-20z"/><circle r="1" fill="#000800" transform="matrix(14.63468 -1.8446 1.31728 10.45098 40 23.3)"/><path fill="#ffd8f0" d="M73 127h24v25H73z"/><path d="M113.1 21.7L120.7-8l19.5 28.4-9.4 1.2z"/><path fill="#00001c" d="M242 42l-19-25-13 20z"/><path fill="#000007" d="M113 174L76 83l34 16z"/><ellipse cx="57" cy="101" fill="#edc3dc" rx="22" ry="15"/><path fill="#000021" d="M227 108l-36-47 20 50z"/><path d="M78 45l14 19 13-16z"/><circle r="1" fill="#badcff" transform="matrix(9.29031 -23.31094 12.81903 5.10888 167.9 15.6)"/><path fill="#0e0f34" d="M197 46l74 25-34 10z"/><path fill="#d7e4f3" d="M59 69l-8 24 74-34z"/><path fill="#00001c" d="M183.4 128.9l76.1 31.3-97.8-28.6 1.5-32.5z"/><path fill="#0b0b3f" d="M163 219l-13-94-23 20z"/><path fill="#000036" d="M271.2 108.7l-15 14.6-17.4-18 15-14.6z"/><path fill="#0f1433" d="M90 154L7 127l101 90z"/><circle r="1" fill="#000034" transform="rotate(22.7 -369.4 702.4) scale(20.62139 8.92505)"/><path fill="#d0bfd4" d="M0 132h95v8H0z"/><path fill="#eef4ff" d="M231.4 29.8L271 8.3l-42.5 8.3L181.1-16z"/><path fill="#000600" d="M161.5 56.8l-24.2 20.1 37.6-8.4-5.3 5.5z"/><path fill="#0a0509" d="M224.5 37.7L271 28l-44.8-44L271 13.9z"/><path fill="#ffe5fa" d="M235 44.5l-41-19.2 22.7 29.6 10.8 4.5z"/><circle r="1" fill="#f8d0f3" transform="rotate(-57.7 184.3 -159) scale(8.72335 17.23869)"/><circle r="1" fill="#112019" transform="matrix(-34.60219 39.39253 -3.60977 -3.1708 18 13)"/><ellipse cx="168" cy="187" fill="#000003" rx="34" ry="6"/><circle r="1" fill="#ffccdb" transform="rotate(163.3 82.6 95.6) scale(30.98597 16.24965)"/><path d="M113.3 78l-2.4 7.6L92.7 80l2.4-7.6z"/><circle r="1" fill="#ffffeb" transform="rotate(151 -8.1 52.9) scale(20.99534 7.36127)"/><path fill="#100f00" d="M139.8 39.5l-3-10.6 15.4-4.4 3 10.6z"/><path fill="#feebff" d="M152 73h25v13h-25z"/><path fill="#fff" d="M196 113l-13 20 9-3z"/><path fill="#eef7f9" d="M56 64l50-43-33 12z"/><path fill="#c9d6dd" d="M35.7 7.3l-32 15.9 7.7 4.7-7.3 27.9z"/><path fill="#c8e0fa" d="M151 20l12 44 30-3z"/><path fill="#efaacf" d="M27 173h25v31H27z"/><path fill="#0f0b00" d="M189.5 25l1.7 8.8-16.7 3.2-1.7-8.8z"/><circle r="1" transform="rotate(7.6 -297.3 1460.1) scale(6.81748 5.2834)"/><path fill="#110b00" d="M24 76h16v9H24z"/><path fill="#c3a9cb" d="M185.8 146.8l10.3 41.2-29.5-25.6-37-17.4z"/><path fill="#2d3935" d="M71.8 38.9L19.4-16l43.3 45.3-17.6 22.4z"/><path fill="#090822" d="M32 114h62v12H32z"/><path fill="#fed0db" d="M169 123l-47-27-4 24z"/><path d="M133 59l6-8 26 7z"/><path fill="#ffeef8" d="M240.6 48.8l-3.3-13.4 33.7-3.6L245.8 56z"/><path fill="#fcf7ee" d="M142.1 21L93.2 65.3l32.5 5.1-9-43.1z"/><path d="M87 179.3l20.8 20.1L91 216.7l-20.9-20.1z"/><path fill="#7774b7" d="M58.7 218.7L78.9 184l68.4-58.9-77.5 56.6z"/><path fill="#000012" d="M204 189.6l28.7-15.6 3.1-43.5 19.4 7.8z"/><path fill="#1d2519" d="M97.2 60.8l-6.4 7.1-26.1-6.2 24.5-19.8z"/><path fill="#040b22" d="M34.2 144l11.6-49.7-29.7 57.1 64.4-6.5z"/><path fill="#f7bed0" d="M128.4 157.4l17.6 21.8-26.4 21.4-17.6-21.8z"/><path fill="#383a23" d="M215 16l-21 6-21-38z"/><path fill="#3c4896" d="M-16 132l75 24-75 21z"/><path fill="#000016" d="M63 90l4-10 31 12z"/><path fill="#ffd6e3" d="M271 126.1l-101.4-28 38-3.2 8.8 40z"/><path fill="#202715" d="M77 10.7l19.5 10-5.4 10.6-19.6-10z"/><path fill="#000005" d="M218 23l10-5 12 34z"/><path fill="#000400" d="M152 17L140 3l12-19z"/><path d="M9.4 117.4l-4.5 23.3L28.2 107l-26.9 9.8z"/><path fill="#827fc9" d="M157.9 177.2l18.7 41.8-27.1-3.3 41.9 2.8z"/><path fill="#0f103a" d="M229.1 109.2l-36.6-38.3-42.2 37.7 33.3-22z"/><path fill="#d4a5c5" d="M50 138l42 16-30-35z"/><path fill="#e1ebf4" d="M207.1 13.6l-22-10.4 15.4 13.5 24.3-20.5z"/><path fill="#fff" d="M19 123l2-6 13-1z"/><path d="M9.1 35L-5.1 55.2l8-45.9L-12.2-.8z"/><path fill="#090d0d" d="M154 90l-14 10V56z"/><path fill="#00000f" d="M169.4 189.9l9.5-11.5 5.6 5.1 6.3 35.5z"/><path fill="#e8fdff" d="M54 23h22v8H54z"/><path fill="#39356a" d="M134 82.4l-42.3 38 38.7-3.4-45.8-29.2z"/><path d="M89 177l32-29-9 22z"/><path fill="#fff" d="M126 5h20l-5 8z"/><path fill="#151973" d="M105 199h91v5h-91z"/><circle r="1" fill="#000034" transform="matrix(.46494 -2.96671 23.13912 3.62632 245.3 106.4)"/><path fill="#fff" d="M80 55h7v7h-7z"/><path d="M62.3 184.1l21.5-15.5-57.4-6.1 22.7 9.3z"/><path fill="#e4e0eb" d="M40.6 120.3l4.7 19.5-10.6 6.9 6.8-17.5z"/><path fill="#1b4188" d="M-7.1 77.2L-16 63.3 1.1 93.6 31 87.8z"/><path fill="#00001f" d="M4 187l10-25 19 10z"/><path fill="#050b59" d="M153 136h17v20h-17z"/></g></g></svg>