<svg xmlns="http://www.w3.org/2000/svg" viewBox="0 0 1400 1121"><defs/><filter id="prefix__a"><feGaussianBlur stdDeviation="12"/></filter><rect width="100%" height="100%" fill="#2b3354"/><g filter="url(#prefix__a)"><g transform="translate(2.7 2.7) scale(5.46875)"><circle r="1" fill="#ffffdf" fill-opacity=".5" transform="matrix(20.9375 -12.83052 43.01595 70.19565 62.6 139.3)"/><circle r="1" fill="#ffb" fill-opacity=".5" transform="matrix(-31.78351 -48.8669 19.1577 -12.46036 52.7 133)"/><circle r="1" fill="#69627e" fill-opacity=".5" transform="matrix(1.39037 88.50643 -19.03623 .29905 86 58.5)"/><circle r="1" fill="#ffffac" fill-opacity=".5" transform="matrix(-47.50112 -101.91252 13.93912 -6.49698 77.2 167.3)"/><path fill="#ffb" fill-opacity=".5" d="M121 219L37 61l-25 53z"/><circle r="1" fill="#172020" fill-opacity=".5" transform="matrix(-18.70232 48.96512 -19.29425 -7.36948 7 76.7)"/><circle r="1" fill="#345077" fill-opacity=".5" transform="rotate(8 -232 1728.9) scale(153.73097 50.47563)"/><path fill="#313646" fill-opacity=".5" d="M114 205L58 91l111 49z"/><circle r="1" fill="#aeada7" fill-opacity=".5" transform="rotate(103.6 -45.7 84) scale(4.11962 28.38858)"/><path fill="#262b33" fill-opacity=".5" d="M90 209.8l-24.3-29.4-27.2-35.1-54.5 20.8z"/><path fill="#f9fff1" fill-opacity=".5" d="M155.6-.7l33.9 67.4L142.2-16h10.9z"/><circle r="1" fill="#f1e588" fill-opacity=".5" transform="matrix(-24.71413 -22.83417 8.57067 -9.2763 106.8 199.5)"/><circle r="1" fill="#646c9a" fill-opacity=".5" transform="matrix(22.3415 -1.56227 2.29377 32.80248 89.7 48.2)"/><path fill="#aba8ad" fill-opacity=".5" d="M194 70l68 30-41-6z"/><circle r="1" fill="#252f33" fill-opacity=".5" transform="matrix(-33.3187 -11.99547 35.0944 -97.47844 0 51.2)"/><path fill="#131c2c" fill-opacity=".5" d="M82 131l-19-24 7-19z"/><circle r="1" fill="#fef7c7" fill-opacity=".5" transform="matrix(-24.52827 6.3129 -4.44336 -17.26431 38.5 107.5)"/><path fill="#1f2b47" fill-opacity=".5" d="M204.7 78.3l12.4-30.6 74.2 30-12.4 30.6z"/><path fill="#20261b" fill-opacity=".5" d="M112-14L62-3l45 27z"/><path fill="#48405a" fill-opacity=".5" d="M102 87l-30 13 43 111z"/><path fill="#c6c3c0" fill-opacity=".5" d="M8.4 138.4l69 45.7-26-17.6-12.8-13.4z"/><circle r="1" fill="#fff6b2" fill-opacity=".5" transform="matrix(28.43404 32.3044 -4.94938 4.3564 43 141.6)"/><circle r="1" fill="#252c37" fill-opacity=".5" transform="rotate(165.8 93 108) scale(55.95462 26.93785)"/><circle r="1" fill="#e0dce2" fill-opacity=".5" transform="matrix(-28.63901 -12.3339 .60714 -1.40976 232.9 92.6)"/><path fill="#fcf8ff" fill-opacity=".5" d="M-28.9 136.9L29.2 147l-.3 2-58.1-10.2z"/><circle r="1" fill="#2a3d5f" fill-opacity=".5" transform="matrix(-55.69193 12.58676 -7.463 -33.0211 192.6 124.2)"/><path fill="#ece5d4" fill-opacity=".5" d="M223.2 208.5l5.1 6.3 34.5-21.9-18.8 20.7z"/><circle r="1" fill="#fcec92" fill-opacity=".5" transform="rotate(-28.9 367.3 -66.7) scale(16.00832 30.83399)"/><path fill="#e2dfe8" fill-opacity=".5" d="M186.4 61l.7-.7L215.6 87l-.7.8z"/><path fill="#2b373a" fill-opacity=".5" d="M64-2l-80-9 83 116z"/><path fill="#293038" fill-opacity=".5" d="M-16 128.7V82.5l54.7 63.9-1 4.6z"/><circle r="1" fill="#25375b" fill-opacity=".5" transform="matrix(-42.64523 -42.16535 34.96035 -35.35823 235.2 36.5)"/><path fill="#f8f6d6" fill-opacity=".5" d="M62 104L35 63l-10 67z"/><circle r="1" fill="#262d43" fill-opacity=".5" transform="matrix(8.47519 -21.63999 12.87476 5.04233 11.4 83.5)"/><path fill="#fffffc" fill-opacity=".5" d="M165.7 20l-.8.5L140.3-16l.8-.5z"/><circle r="1" fill="#2c334b" fill-opacity=".5" transform="matrix(1.31355 -1.0503 47.867 59.86403 66.9 185.1)"/><path fill="#fbfdc2" fill-opacity=".5" d="M132.2 216.9l-20.4-23.7 8.6 3 10.9 22z"/><circle r="1" fill="#253049" fill-opacity=".5" transform="matrix(-3.89186 9.06627 -54.2024 -23.26738 213.8 97.6)"/><ellipse cx="8" cy="161" fill="#1f252f" fill-opacity=".5" rx="26" ry="14"/><circle r="1" fill="#244680" fill-opacity=".5" transform="matrix(-9.65046 9.99334 -19.819 -19.13898 131.2 17)"/><circle cx="95" cy="196" r="13" fill="#fff692" fill-opacity=".5"/><path fill="#f0df87" fill-opacity=".5" d="M61.4 111.4l20.5 24.3-5 7.7L51.8 113z"/><path fill="#494e68" fill-opacity=".5" d="M116.5 209.8l-6.5-39.3-8.7-34.5-22.6-3.2z"/><path fill="#304370" fill-opacity=".5" d="M155 116l75-1-49 43z"/><circle r="1" fill="#d7d0a8" fill-opacity=".5" transform="matrix(-.55484 .83195 -39.55605 -26.3806 58 169)"/><path fill="#29343f" fill-opacity=".5" d="M72-8l-6 57L6 77z"/><path fill="#232b38" fill-opacity=".5" d="M-18 140l2-23 34 3-2 23z"/><path fill="#585d86" fill-opacity=".5" d="M115.5 31.3L98.1 18.2l-27.3-6.9-7.9 66.4z"/><path fill="#293f63" fill-opacity=".5" d="M102 57h22v73h-22z"/><path fill="#443747" fill-opacity=".5" d="M103.7 117.3L60 89.3l25.2 54.8 10.2 6.8z"/><ellipse cx="166" cy="167" fill="#232f3f" fill-opacity=".5" rx="59" ry="8"/><path fill="#2a3149" fill-opacity=".5" d="M54 170l-61 21 109 28z"/><circle r="1" fill="#dfe5db" fill-opacity=".5" transform="rotate(62.5 76.2 129.3) scale(39.3574 1)"/><path fill="#ddd5da" fill-opacity=".5" d="M249 97h7v5h-7z"/><path fill="#fbf8a1" fill-opacity=".5" d="M57.7 101.3L49 89l3.2-2.3L61 99z"/><path fill="#263b63" fill-opacity=".5" d="M196.7 84.7l-27.1-53.2-58-1.4-8 53.3z"/><circle r="1" fill="#f3ecae" fill-opacity=".5" transform="rotate(-164.3 30 56.6) scale(32.58584 11.46783)"/><path fill="#5c6088" fill-opacity=".5" d="M65.8 66.3l42.2-47 3.3 15.8-12.8 52.2z"/><path fill="#393f51" fill-opacity=".5" d="M61 58l-24 7 53 66z"/><ellipse cx="132" cy="140" fill="#232d45" fill-opacity=".5" rx="29" ry="15"/><circle r="1" fill="#364677" fill-opacity=".5" transform="matrix(22.78387 -1.0053 .21633 4.90293 168 152.8)"/><circle r="1" fill="#222a3c" fill-opacity=".5" transform="matrix(5.35358 6.39569 -2.49557 2.08894 37.6 149.7)"/><circle r="1" fill="#f6f3c8" fill-opacity=".5" transform="matrix(-9.49524 3.45598 -9.77104 -26.84571 38 125.3)"/><path fill="#293245" fill-opacity=".5" d="M-16 122l56-89-18 60z"/><ellipse cx="251" cy="139" fill="#232b38" fill-opacity=".5" rx="21" ry="9"/><circle r="1" fill="#f0e593" fill-opacity=".5" transform="rotate(145.5 6 95.1) scale(6.38891 20.43957)"/><circle r="1" fill="#e9e59c" fill-opacity=".5" transform="matrix(2.71137 .83154 -8.48784 27.67612 26.3 92)"/><path fill="#cdc8c1" fill-opacity=".5" d="M251.8 199.5l18.8-20.3-28.4 36.6 6.8-12z"/><ellipse cx="253" cy="90" fill="#222838" fill-opacity=".5" rx="16" ry="6"/><path fill="#ffffba" fill-opacity=".5" d="M125.7 206.7l-.8.6-12.6-18 .8-.6z"/><ellipse cx="5" cy="144" fill="#cac9dd" fill-opacity=".5" rx="17" ry="2"/><path fill="none" stroke="#a6aeb8" stroke-opacity=".5" stroke-width=".5" d="M189.9 63.7Q175.4 42 174.2 41.6"/><path fill="#293551" fill-opacity=".5" d="M181.9 76l2.1 48.5 34.1-25.3-36.2-44.9z"/><circle r="1" fill="#505f74" fill-opacity=".5" transform="matrix(3.60363 -1.03332 8.73424 30.45992 108.5 183.8)"/><ellipse cx="145" cy="90" fill="#27354f" fill-opacity=".5" rx="45" ry="19"/><path fill="#2f364e" fill-opacity=".5" d="M190 173l-55 46-27-48z"/><path fill="#f3e98f" fill-opacity=".5" d="M85.9 209.6l-9.8-32 11.8-20.8 12.9 23z"/><path fill="#f3f0bd" fill-opacity=".5" d="M57.4 162.5L53.8 142l-37.4-26.6 6.5 13.6z"/><path fill="#f5edb0" fill-opacity=".5" d="M60 97l26 92-48-70z"/><circle r="1" fill="#58618e" fill-opacity=".5" transform="matrix(10.31793 12.51665 -4.224 3.482 81 19.2)"/><path fill="#333c47" fill-opacity=".5" d="M62.6 108.9l.7-11.8 7-2.1 16.1 44.2z"/><path fill="#1e2537" fill-opacity=".5" d="M222 100h21l-29-12z"/><path fill="#584863" fill-opacity=".5" d="M71 85h29v24H71z"/><path fill="#2b3344" fill-opacity=".5" d="M22.9 80.3L40 57.6-14 95l8 64.8z"/><path fill="#f3e995" fill-opacity=".5" d="M92 201.8l17.8-5.7-5.7-12.1-48.5-14.1z"/><ellipse cx="12" cy="15" fill="#242a36" fill-opacity=".5" rx="15" ry="69"/><circle r="1" fill="#222937" fill-opacity=".5" transform="matrix(5.5285 2.82908 -16.44359 32.1336 251.5 185.7)"/><path fill="#272f3f" fill-opacity=".5" d="M-16 125l57 25-31-38z"/><path fill="#f8f6dc" fill-opacity=".5" d="M37.4 68l11.7 18.7-8.5 5.3-11.7-18.7z"/><path fill="none" stroke="#bcbdd4" stroke-opacity=".5" stroke-width=".5" d="M48.4 163.5Q19.7 142.5-1 141"/><path fill="none" stroke="#333949" stroke-opacity=".5" stroke-width=".5" d="M60.4 202.1q16.7-21-25.4-53.6"/><path fill="none" stroke="#e8e1a8" stroke-opacity=".5" stroke-width=".5" d="M125.4 212.5q-66.5-36.8-78.9-51.7"/><path fill="#2c3748" fill-opacity=".5" d="M49 77l-5-93-23 60z"/><path fill="#283145" fill-opacity=".5" d="M271 106.1l-20.8-11.4L271 13.9l-26.2 43z"/><path fill="#2a3551" fill-opacity=".5" d="M235 131l-44 8 21 80z"/><path fill="#2e343d" fill-opacity=".5" d="M107.8-16l4.2 38.6-12.1-.9L60.1-3z"/><path fill="#284779" fill-opacity=".5" d="M158 14l25 40-27-5z"/><path fill="#234d90" fill-opacity=".5" d="M170.4 7.2l-9.4 3.6-5.4-14 9.4-3.6z"/><path fill="#2e3e65" fill-opacity=".5" d="M154.7 119.8l-48.6-1.8 62.2 14 19.1-75z"/><path fill="#c2c1c9" fill-opacity=".5" d="M240 95.7l18.5 4.6-.5 2-18.5-4.6z"/></g></g></svg>