<svg xmlns="http://www.w3.org/2000/svg" viewBox="0 0 1400 933"><defs/><filter id="a"><feGaussianBlur stdDeviation="12"/></filter><rect width="100%" height="100%" fill="#3e414d"/><g filter="url(#a)"><g fill-opacity=".5" transform="translate(2.7 2.7) scale(5.46875)"><circle r="1" fill="#ffffd3" transform="matrix(-184.83931 -13.91841 11.36357 -150.91044 125.3 62)"/><circle r="1" fill="#632207" transform="matrix(-71.54976 -33.97432 17.3099 -36.45458 80 121)"/><circle r="1" fill="#f0ddc4" transform="matrix(76.90748 39.35554 -38.5606 75.354 240.1 123)"/><circle r="1" fill="#fff" transform="matrix(-18.29062 -55.70278 21.42707 -7.03581 0 26.1)"/><circle cx="112" cy="33" r="45" fill="#f0eded"/><circle r="1" fill="#000014" transform="rotate(-5.1 1650 -1356.6) scale(28.21725 19.32586)"/><circle r="1" fill="#e2f3ef" transform="matrix(-43.72003 11.38821 -2.69916 -10.36225 127.2 110.7)"/><circle r="1" fill="#fffff6" transform="matrix(-38.0872 5.82816 -3.01944 -19.73213 213 3.4)"/><path fill="#af471b" d="M45.3 77.9l-3 62 106.9-52.4L111.4 71z"/><path fill="#51433a" d="M157 10h22v78h-22z"/><circle r="1" fill="#fff" transform="matrix(19.0861 -6.20746 16.68342 51.29652 0 24.8)"/><circle r="1" fill="#fff" transform="matrix(-5.84725 -23.62764 14.12848 -3.49644 84.3 50.4)"/><ellipse cx="211" cy="63" fill="#797665" rx="18" ry="35"/><circle r="1" fill="#9d6f43" transform="matrix(39.43873 -38.55174 23.37947 23.91738 58.8 169)"/><circle r="1" fill="#fff" transform="matrix(6.0714 30.38438 -5.49953 1.09891 189.2 57.6)"/><circle r="1" fill="#475663" transform="matrix(-4.73015 8.64408 -12.9634 -7.09374 198.2 114.6)"/><path fill="#897162" d="M117 36l-10 62L91-14z"/><path fill="#fff" d="M123 45.8l27.8-3.4 4.2 33.8-27.8 3.4z"/><ellipse cx="241" cy="132" fill="#f8e7c8" rx="26" ry="40"/><ellipse cx="127" cy="136" fill="#0f262e" rx="26" ry="18"/><ellipse cx="141" cy="110" fill="#d5e3e0" rx="43" ry="11"/><path fill="#1c0300" d="M44.3 108.5L18.6 110l17.9 20.4 12.1 1.6z"/><ellipse cx="234" cy="36" fill="#fffff5" rx="5" ry="51"/><circle r="1" fill="#e8e0ca" transform="rotate(-75.4 144.9 -95) scale(11.34603 29.13758)"/><path fill="#361a0a" d="M197 89h27v7h-27z"/><ellipse cx="194" cy="169" fill="#eaba86" rx="45" ry="43"/><path fill="#5a2814" d="M47.3 97.5l-71.9 12.7-2.7-15.7 71.9-12.7z"/><ellipse cx="12" cy="134" fill="#c8baba" rx="11" ry="29"/><path fill="#fff" d="M-11.8-4L16-7.4 25.8 72-2 75.4z"/><path fill="#111416" d="M209.9 47.3l-2.8-12.1-10.3-3-1.1 12.6z"/><ellipse cx="205" cy="4" fill="#f0e7cd" rx="69" ry="10"/><ellipse cx="166" cy="35" fill="#666351" rx="16" ry="25"/><path fill="#afe0e1" d="M82 79h12v12H82z"/><path fill="#726134" d="M251.6 8l5.8 16-17 6-5.8-16z"/><path fill="#e3eced" d="M142 107l22 32 27-21z"/><path fill="#a3dad0" d="M62 97.8l-9-6.1 5-7.5 9 6.1z"/><path fill="#eaece3" d="M175 34h20v32h-20z"/><path fill="#d35a24" d="M52 128l96-45-44-1z"/><path fill="#000c16" d="M224 53h4v17h-4z"/><circle r="1" fill="#81888c" transform="matrix(34.89256 -12.51369 1.84277 5.1383 32.8 74.3)"/><path fill="#fff" d="M73 30h26v39H73z"/><circle r="1" fill="#957453" transform="rotate(-151.9 55.4 72) scale(46.68783 25.52667)"/><path fill="#99988d" d="M103.7 18.2l-40.2-7.8 4.8-24.6 40.2 7.8z"/><path fill="#784330" d="M75 78l38-9 13 17z"/><path fill="#dbffff" d="M38 107.2l-.8-5 8.9-1.4.7 5z"/><path fill="#c8ecff" d="M181.1 99.9l2-8.8 47.8 11-2 8.8z"/><path fill="#cca77e" d="M89 185l79-38 89 38z"/><path fill="#72341a" d="M78.9 65.5l4.4 2.8-7.7 34.3-8.8-10z"/><path fill="#ffffeb" d="M198 22.9l-3.3-12.6 49.2-13.2 3.4 12.6z"/><path fill="#584f2e" d="M230 15l-15 10 10 9z"/><circle cx="135" cy="139" r="21" fill="#2a333a"/><path fill="#b7af8c" d="M191.7 36.5L167.3 5.2l14.1-7.5 28.5 33.2z"/><path fill="#cdd1c6" d="M178.5 111.8l-76.4-10.9 2.7 31.7-18.7-7.1z"/><path fill="#4c5652" d="M262 86l-8 5-6-22z"/><path fill="#5c5148" d="M163 42h18v14h-18z"/><path fill="#e7f4fb" d="M246.1 28.1l-.6 66.6-5.6-13.9 1.3-17.6z"/><circle r="1" fill="#a39f90" transform="matrix(-42.00423 9.46606 -1.16289 -5.16013 135.6 100.7)"/><path fill="#000005" d="M108 55l7-2-7-5z"/><path fill="#495c5f" d="M238.6 64.7l2.4 12.7 2.3-33.6-.8-7.6z"/><path fill="#cbb7a7" d="M167 20h2v64h-2z"/><path fill="#583223" d="M62.2 83.6l7.4 11-.8-25.4-48.2 19.7z"/><path fill="#c85823" d="M54 119l48-4-14-26z"/><ellipse cx="67" cy="26" fill="#908c85" rx="4" ry="53"/><circle r="1" fill="#fefffa" transform="matrix(-.5945 1.83893 -21.27633 -6.87836 136.2 116.7)"/><path fill="#a5a4a0" d="M123 71.2l-8-53.9-1.1 66.6 39.5-6.5z"/><circle cx="214" cy="115" r="10" fill="#89a6c2"/><path fill="#ffffd7" d="M197 61h27l-7 6z"/><path fill="#98958c" d="M187.3 84l-26.6-14 23.5-3.7 2.3.4z"/><path fill="#0d100b" d="M104 136h27v22h-27z"/><ellipse cx="6" cy="95" fill="#656e67" rx="12" ry="13"/><path fill="#ffffd1" d="M187 73h20v13h-20z"/><path fill="#878683" d="M21.5 8.1l2.1 33.7 38.5-56-59.6 11z"/><path fill="#fff" d="M250 79l-20-4 9 14z"/><path fill="#b9b9b0" d="M64.1 49.6l-24 1.7-2.2-33 24-1.6z"/><path fill="#5a5e5c" d="M183.9 115.7l5-14.1 13.2 4.7-5 14.1z"/><path fill="#c4beb3" d="M89 3h71v10H89z"/><path fill="#d4b28e" d="M203.9 99.5l-74.2-25.4 16.4 12.2 66.2 6.5z"/><path fill="#95a279" d="M155.4 36.5l-14.9-2.1 2.1-14.9 14.9 2.1z"/><path fill="#794b33" d="M227 83h3v15h-3z"/><path fill="#e4caa5" d="M210.3 121.5l-56.4 14.4 86.3 36.9 30.8 11.1z"/><circle r="1" fill="#fff" transform="rotate(-119.9 10.6 18.2) scale(38.74786 19.80453)"/><path fill="#f7feed" d="M182 19h4v46h-4z"/><circle cx="186" cy="37" r="5" fill="#9e9877"/><path fill="#825942" d="M80.2 61.5l-.3-6.6-6.1 29.2 11.8 22.3z"/><path fill="#3d3f44" d="M112.1 123.7l9.6-6.1 36.4 11.1-34.5 11.7z"/><path fill="#34342e" d="M179.4 26.4l-22.8-10.2 2-4.6 22.8 10.2z"/><ellipse cx="175" cy="52" fill="#c6c0b2" rx="2" ry="26"/><path fill="#5b3b23" d="M156.9 80.7l17.5 10.1 3.2-7.1-9 .4z"/><path fill="#ebeee5" d="M123 23h19v49h-19z"/><ellipse cx="158" cy="50" fill="#383936" rx="2" ry="30"/><path fill="#9ea69c" d="M244.9 61.9L235 86.3l31.5-59-11.3-25.5z"/><path fill="#cfddd9" d="M161.8 128l-12-16 26.4-20 12 16z"/><path fill="#8d9c96" d="M79 79h24v11H79z"/><path fill="#ba9464" d="M195 58h13v14h-13z"/><path fill="#d8ffff" d="M160 86h6v10h-6z"/><path fill="#94724f" d="M56.5 125.4l68.6 41.2-21.6 36-68.6-41.2z"/><path fill="#879389" d="M232 59l-37-1 31-31z"/><path fill="#1d1f1f" d="M216.3 87.4l2 4-6.8 6.1-4-2.8z"/><path fill="#b2b8af" d="M112-16L98 45l22 6z"/><path fill="#f3fffd" d="M151.9 39.9l.5 28.1-22.2-16.9 2.9 27.7z"/></g></g></svg>