<svg xmlns="http://www.w3.org/2000/svg" viewBox="0 0 1400 934"><defs/><filter id="a"><feGaussianBlur stdDeviation="12"/></filter><rect width="100%" height="100%" fill="#444"/><g filter="url(#a)"><g fill-opacity=".5" transform="translate(2.7 2.7) scale(5.46875)"><circle r="1" fill="#fff" transform="rotate(29 2.7 353.8) scale(255 86.11439)"/><circle r="1" fill="#fff" transform="rotate(-154.6 23.1 40.2) scale(22.08822 141.83015)"/><circle r="1" transform="matrix(25.99837 -1.54459 2.75085 46.30203 177 114.5)"/><circle r="1" transform="matrix(-42.23516 -12.7372 17.04082 -56.50552 90.2 121.3)"/><circle r="1" fill="#fdfdfd" transform="rotate(-3.5 590.7 -3820.8) scale(35.2317 255.00002)"/><circle r="1" fill="#fff" transform="matrix(13.22964 -3.49542 19.92687 75.4202 129.3 37.2)"/><path d="M183 21h14v50h-14z"/><path fill="#090909" d="M74.9 19.8l29.2-6.2-18.4 20.2L55.2 183z"/><path fill="#626262" d="M24.5-24.5v117h-25v-117z"/><path fill="#e2e2e2" d="M135.8 107l10.8 2.1-12.4 63.9-10.8-2.1z"/><circle r="1" fill="#eee" transform="matrix(-5.7071 1.16201 -6.3215 -31.0474 97 76.2)"/><circle r="1" fill="#787878" transform="matrix(-28.52946 -8.72233 20.76878 -67.9316 191.1 153.2)"/><circle r="1" fill="#fff" transform="matrix(-8.7664 23.32263 -18.02797 -6.77627 51.8 61)"/><path fill="#030303" d="M40 89h90v73H40z"/><path fill="#0d0d0d" d="M145 12h12v53h-12z"/><path fill="#fff" d="M138.8 36.8L63.3 0l18-36.8L156.6 0z"/><circle r="1" fill="#010101" transform="matrix(22.31742 -56.65607 7.8835 3.1054 159.9 118.6)"/><path d="M107 35h10v35h-10z"/><circle r="1" fill="#f7f7f7" transform="matrix(3.8007 -1.74017 9.23523 20.17063 97.7 89)"/><ellipse cx="3" cy="144" fill="#929292" rx="27" ry="115"/><path fill="#fcfcfc" d="M155 43l25 23 9-29z"/><path fill="#ededed" d="M271 103L158-16l75 14z"/><path d="M145.5 10.6l29.7-4.1 1.3 8.9-29.7 4.1z"/><path fill="#1b1b1b" d="M90.4 26.7l21.2 20.7L99.3 13l-24.8 5z"/><path d="M186 95l11 45-14 45z"/><path fill="#bdbdbd" d="M52 185l7-33-41 26z"/><path fill="#414141" d="M26.3-11.6l-2.6 48.9-32-1.7 2.6-48.9z"/><circle r="1" fill="#040404" transform="rotate(-162.2 67.3 47.2) scale(14.98618 30.12898)"/><ellipse cx="229" cy="163" fill="#b7b7b7" rx="32" ry="22"/><path fill="#060606" d="M28 157l14-63 109 91z"/><path d="M152.2 185l8.7-122.8 12 33.7-25.4 26.3z"/><circle cx="57" cy="9" r="24" fill="#efefef"/><path fill="#d8d8d8" d="M112.2 72l16.7-31.4 23.2 4.7L133.6 88z"/><path fill="#f4f4f4" d="M36.5 118.8l-1.3-61.2L65 76.3 42.3 90.5z"/><circle cx="96" cy="55" r="13" fill="#dcdcdc"/><path fill="#373737" d="M198.7 65.3L170.4 4.5l16.5 8.5 6.4 18.5z"/><path fill="#fbfbfb" d="M199.6 23.8L145.7-16l-9.6 32.3 63.7-24.7z"/><ellipse cx="171" cy="147" fill="#737373" rx="14" ry="39"/><path fill="#f9f9f9" d="M183 38.7l-9 4.2-11-23.6 9-4.2z"/><path fill="#b3b3b3" d="M154.8 106.9l-1-45.2-27.9 97.6.9 24.5z"/><path fill="#f0f0f0" d="M54 152h5v13h-5z"/><path fill="#1a1a1a" d="M21.6 162.4L17.7 183-16 165.7l8.3-3z"/><path fill="#141414" d="M116.9 57.5L106.7 89l-7.6-2.4L109.3 55z"/><path fill="#5f5f5f" d="M68 76l3-29 26 23z"/><circle r="1" fill="#fff" transform="matrix(9.60824 13.77309 -1.68605 1.1762 94.1 85.6)"/><path fill="#080808" d="M201 37l-18 40 7-45z"/><ellipse cx="29" cy="53" fill="#a1a1a1" rx="7" ry="91"/><path fill="#8d8d8d" d="M229.5 110.2l-34.1-42.7-43 16.6 18.2-22z"/><circle r="1" fill="#e6e6e6" transform="matrix(-11.5155 10.3782 -44.04813 -48.87518 241.3 95.6)"/><path fill="#101010" d="M83 67L71 44l7-24z"/><path fill="#d4d4d4" d="M83.3 29.8l9.8 1.9-4.4 22.5-9.8-1.9z"/><path fill="#0c0c0c" d="M34 122l58-30-46-7z"/><circle r="1" fill="#313131" transform="matrix(-2.04936 1.51092 -22.43108 -30.42478 171.4 87.6)"/><path fill="#d0d0d0" d="M159.7 101.4l-24.5-46.3L163 75.4l-27.7 30.4z"/><path fill="#040404" d="M79 21h20v8H79z"/><path fill="#0a0a0a" d="M161.9 67.7l11.1-2.9-18.9 21.1 8.8 31.9z"/><circle r="1" fill="#c9c9c9" transform="matrix(11.5691 .56612 -.66466 13.58285 173 57)"/><path fill="#9c9c9c" d="M27 133l4 35-23-14z"/><path fill="#010101" d="M154 167l-23 18 21-74z"/><path fill="#ccc" d="M32 164h17v6H32z"/><path fill="#121212" d="M123.3 185h-11.8L102 67.3l32.3 35.7z"/><circle r="1" fill="#e4e4e4" transform="matrix(-13.0708 59.40188 -11.19403 -2.46314 136 16)"/><path fill="#eaeaea" d="M77.6 15.5l89.5-9.1L222-2 62.4-16z"/><path d="M159.5 8.8l-15.3 23.5-1.7-1.1 15.3-23.5z"/><path fill="#b4b4b4" d="M107.7 121.3l3.6-2-2.6 9.1-13.6-51.8z"/><path fill="#2c2c2c" d="M176 125l-8-40 27-40z"/><path fill="#2f2f2f" d="M108.7 27.4l5.2 4 6.1 43-6.5-4.8z"/><path fill="#a4a4a4" d="M213 84.2l-2.7 45.7-12.7-3.1 1-59.2z"/><path fill="#fff" d="M105 88H94l9 14z"/><path fill="#868686" d="M93.4 41.2L85 73.1l11.6-19.3-15-17.3z"/><path fill="#0b0b0b" d="M26.1 158.7l12-39.3 25.8 8-12 39.2z"/><path fill="#cacaca" d="M153 23h19v11h-19z"/><path fill="#e6e6e6" d="M38.4 98.3L69 58.4 36.5-6 41 105z"/><path fill="#444" d="M160 60h-18l20-14z"/><path fill="#a5a5a5" d="M163.7 135.1l4.3 20.7 5.4 27.3-10.5-2.4z"/><path fill="#070707" d="M46 89.4l10.6-7.7L70 76.9l-34.6 46.4z"/><path d="M49.9 174.1l11.2-15.8L79.3 185H49.5z"/><path fill="#f3f3f3" d="M92.3 31l15 28.2-3.6 1.9-15-28.3z"/><circle r="1" fill="#2d2d2d" transform="matrix(2.77082 -12.49838 3.56922 .79128 193.3 108)"/><path fill="#8e8e8e" d="M182.1 77.6l36.4 40.4-22.7-54.1 2.9-.4z"/><path fill="#282828" d="M168.7 134.2l8.1 38.2-10-27-2.7-20z"/><path fill="#393939" d="M118.4 41.1L94.8 40l17.5 9.8-12.1 43.9z"/><path fill="#6d6d6d" d="M26.3 20.4L24.8 6.1l-34.4 26 30.8 45.4z"/><path fill="#151515" d="M87 82l-5-10-13 20z"/><path fill="#c6c6c6" d="M188.9 43.8l-29.1 25.9-.9-26 32.2-7z"/><path fill="#ccc" d="M80 76l-5-4 1-5z"/><ellipse cx="127" cy="17" fill="#e4e4e4" rx="16" ry="29"/><path fill="#dadada" d="M271-4l-82 3 45 138z"/><path fill="#343434" d="M114 92L99 71l11-12z"/><circle r="1" fill="#606060" transform="matrix(4.9541 -.59074 3.22001 27.00383 198.5 148.3)"/><path fill="#e1e1e1" d="M33-16l27 55L88 8z"/><path fill="#b9b9b9" d="M270.4 128.7l.6 43.7-69.4 12.6 6.1-25.4z"/><circle cx="156" cy="12" r="5" fill="#252525"/><circle r="1" fill="#b0b0b0" transform="matrix(2.00793 .30009 -9.12593 61.06306 131 145)"/><path fill="#020202" d="M185 125h5v45h-5z"/><path fill="#373737" d="M83 20l28 5-11-10z"/><ellipse cx="204" cy="68" fill="#ececec" rx="9" ry="4"/><path fill="#959595" d="M-16 90l26-32 25 127z"/><circle cx="146" cy="97" r="11" fill="#bfbfbf"/><path fill="#cacaca" d="M140.2 90.1L112 71.6l48.1.3-26.5 38.8z"/></g></g></svg>