<svg xmlns="http://www.w3.org/2000/svg" viewBox="0 0 704 470"><defs/><filter id="a"><feGaussianBlur stdDeviation="12"/></filter><rect width="100%" height="100%" fill="#545335"/><g filter="url(#a)"><g fill-opacity=".5" transform="matrix(2.75 0 0 2.75 1.4 1.4)"><circle cx="86" cy="90" r="199" fill="#fff"/><ellipse cx="98" cy="46" fill="#fff" rx="179" ry="86"/><ellipse cx="36" cy="54" fill="#fff" rx="44" ry="64"/><ellipse cx="201" cy="129" fill="#007511" rx="28" ry="11"/><path fill="#6f2301" d="M59 180l-49-37h92z"/><path fill="#fce7cf" d="M97.2 182.1l14.9-64.3 164.7 38-14.9 64.4z"/><path fill="#618a6b" d="M191 34l-72 61 58-88z"/><circle r="1" fill="#fff" transform="matrix(45.31482 18.67742 -9.27697 22.50761 133.2 16.2)"/><path fill="#fffff7" d="M240 1v114h-52V1z"/><circle r="1" fill="#fffff8" transform="matrix(1.37233 17.3883 -77.34283 6.10408 120.3 104.7)"/><path fill="#0d2400" d="M182.7 37.9l-11.3-27 8.9 3.5L193.1 51z"/><path fill="#007d35" d="M166.1 131l2.7-13.8 51 9.9-2.6 13.7z"/><path fill="#77af7e" d="M204.6 99l21.2.8 2.6 30-38-9.2z"/><path d="M96.8 35.3L83.9 24.2l1.3-1.5 12.9 11.1z"/><path fill="#244dbe" d="M85.6 50l6.8-1.9 8 27.9-6.8 1.9z"/><path fill="#fffced" d="M186 0l-85 108L97-2z"/><circle r="1" fill="#efd7b7" transform="matrix(-1.33834 13.14755 -28.96532 -2.94849 48.5 130.4)"/><path fill="#862d09" d="M12.5 144.3l-7.3-10.2 11.3-4 20.3 14.6z"/><path fill="#3b4425" d="M195.8 79l-12 1.3-14-6.1 16.3-.7z"/><circle r="1" fill="#fff" transform="rotate(82.1 15.9 28.7) scale(14.29303 81.65336)"/><path fill="#a96c4c" d="M96.7 126.2l12.3 13.2-19.7 18.4L77 144.6z"/><circle r="1" fill="#e0d9d2" transform="rotate(142.5 93.3 114.6) scale(76.36955 14.97818)"/><ellipse cx="3" cy="89" fill="#b1c0a1" rx="4" ry="71"/><path fill="#29469a" d="M105.3 22.6l-32.8-4.8 6.2 17 2.7-20.2z"/><circle cx="221" cy="11" r="38" fill="#fdf8f7"/><path fill="#653f26" d="M86.5 157.9l-27.2-6.2-28.4 6.3-45 27z"/><path fill="#fffbe7" d="M195 49l-64 75 12-54z"/><ellipse cx="128" cy="169" fill="#baaa89" rx="79" ry="9"/><path fill="#455f34" d="M182 51l-12-17-11 17z"/><path fill="#fffbf3" d="M8 127L7 33l74-22z"/><path fill="#6a9982" d="M133.6 98l-13-12.6 7.1-6.6L147 58.9z"/><path fill="#a7aeaa" d="M240 120.5v-63h30v63z"/><path fill="#fbf3e7" d="M112.2 120L69 138.2 35.8 60.1 79 41.7z"/><circle cx="135" cy="55" r="3" fill="#050900"/><path fill="#fffdf0" d="M201.8 68.5l-5 3.2-36.6-56.2 5-3.2z"/><path fill="#d0bd99" d="M136.8 116.3l48.5.8-98.9 32.6 75.2 35.3z"/><path fill="#fff4e2" d="M77.8 30.8L99.5 66l31.2 47.6-17.6-72.1z"/><path fill="#b2856d" d="M24.8 152.1l62.9-17.3 3.2-9.8 12.7 24.6z"/><path fill="#4d0800" d="M36 159l-2 2.3L8 141l2-2.3z"/><path fill="#007d3c" d="M203.8 139.3l23.2-.5-26.8-21.4-23 12.3z"/><path fill="#e3ceb1" d="M-4.2 160.2l24-43.1-35.8 12.8 41.6 25.7z"/><path fill="#f0eada" d="M250.1 124.7l-72.8-73.3-23.2-35.9 26.2 53.9z"/><ellipse cx="137" cy="4" fill="#fefbf9" rx="167" ry="7"/><path fill="#e3dbce" d="M174 158l-47-45 126 50z"/><path fill="#d2c2a7" d="M22.5 114.3l-11 10.2 34.1 25.9 12.7-30.7z"/><path fill="#444200" d="M105.4 39l-.5.8L92.6 33l.5-.8z"/><path fill="#faf5f0" d="M85 114l51-26 66 28z"/><path fill="#347163" d="M164.8 45.6l15.3-6.2-53.4 43L147 62.9z"/><circle r="1" fill="#7e7150" transform="matrix(-.76492 3.79356 -8.9186 -1.7983 158.2 168.9)"/><path fill="#332d00" d="M182 48l-11-10 7 14z"/><path fill="#001800" d="M191 43l-5-2-2-14z"/><path fill="#264721" d="M178 12h5v10h-5z"/><path fill="#6b80be" d="M94.7 59L80.4 38.4l10.3 32.3 16 6.6z"/><path fill="#bfb4a6" d="M270.9 119.6l-56.2 1.6 37.1 24.6-.5 39.2z"/><path fill="#000200" d="M185 77h7v4h-7z"/><path fill="#f7efdf" d="M198.5 113.1l-32.7-9.3 7.7-27 32.7 9.4z"/><path fill="#1c4092" d="M76 16h3v21h-3z"/><path fill="#b3a38f" d="M19.2 138.6l-.7 9.4 22.9 6.2-14.7-11.7z"/><circle r="1" fill="#603a26" transform="matrix(.21597 3.74554 -25.37672 1.46321 66.4 160.5)"/><path fill="#a4946e" d="M24 157l41 15-81-5z"/><path fill="#001500" d="M177.2 74.8l1.3-2.7 14.3 7-1.3 2.8z"/><path fill="#40a663" d="M184 117h36v8h-36z"/><circle cx="133" cy="53" r="3" fill="#5e5d1c"/><path fill="#f9f4e9" d="M56 99l-58 29 48-52z"/><circle r="1" fill="#f9f3ef" transform="matrix(-13.0545 2.72723 -4.57143 -21.88222 200.9 66.4)"/><path fill="#f4ecde" d="M242 117l-4-42-14 40z"/><path fill="#fcf6ea" d="M86.3-7L69.1 37.8 61.7 35 78.9-9.8z"/><path fill="#00622b" d="M194 134h35v3h-35z"/><path fill="#dbd1ba" d="M87 130l-36 15-36-21z"/><ellipse cx="156" cy="92" fill="#c9bfae" rx="80" ry="1"/><path fill="#756b24" d="M176.1 40.2l-.3-.4-4.8-.3-7.9-8.5z"/><circle cx="94" cy="20" r="3" fill="#001f85"/><path fill="#8d2a0e" d="M24 139.6l9.1 5.7 12.7 2.9-28.5-16.3z"/><path fill="#fbf2e7" d="M150.7 80.8L132.5 45 92.9 29.6l16-41.4z"/><circle r="1" fill="#4e563a" transform="matrix(-3.10392 -11.34602 .96456 -.26387 188.1 37.3)"/><circle r="1" fill="#b2a593" transform="rotate(60.3 -104.3 72.4) scale(3.73239 18.81864)"/><path fill="#fbf1e7" d="M95.2-3.3L136 60.2l-41.1 2.3 76.4-24.1z"/><ellipse cx="152" cy="118" fill="#d5c5ab" rx="37" ry="3"/><path fill="#f2ede0" d="M166.5 49.9l32.9 8.2 36.5 1.2L184.6 77z"/><path fill="#f5ead1" d="M75 29l21 62-29 1z"/><circle r="1" fill="#8d8e70" transform="matrix(2.84105 -.11915 .35322 8.42205 252.6 169)"/><path fill="#a5785f" d="M36 156l72-14-13-15z"/><path fill="#6a6e13" d="M92.5 34.1l2.6-.7-9.3-3.5 4.9-8.5z"/><circle r="1" fill="#e0cfb1" transform="matrix(-4.49244 2.85854 -4.18482 -6.5768 5.8 144.7)"/><path fill="#001e82" d="M78 18.8l13.8-2.6.2 1-13.8 2.6z"/><path fill="#e3e2de" d="M217.3-5.3l43.4-11.6 14 52.2-43.4 11.6z"/><path fill="#f1ede6" d="M115.1 139l-26.5-13.3-82.2-17.9 20.2-64.2z"/><path fill="#a9bfa8" d="M6 121l-22-58H6z"/><path fill="#387671" d="M155 55l6.4-13.6L165 43l-6.4 13.6z"/><ellipse cx="160" cy="125" fill="#cdc5a2" rx="20" ry="3"/><path fill="#fff5ee" d="M184 43L168 1l-25 12z"/><path fill="#0553ca" d="M89.6 63.5l-2-7.7 4.8-1.3 2 7.7z"/><path fill="#395837" d="M175 11l8 4v21z"/><path fill="#6b9886" d="M124 80l10 6 15-27z"/><path fill="#f8edda" d="M196.5 47.7L115 102.8l79.4-39.3L180.2 48z"/><path fill="#002091" d="M76 31.3l-1-.4 5-14.2 1 .4z"/><path fill="#f9f5f1" d="M71-16l-73.8 2.6L.4 24.2l70.1 63.2z"/><path fill="#c4c1b6" d="M216 131l52 7 3-15z"/><path fill="#beb293" d="M163 128.6l12.7 2.7 29.8 11.7-35.2-5.2z"/><path fill="#79b2a3" d="M170.3 46l4.3 8.7L146.9 66l13.9-13z"/></g></g></svg>