<svg xmlns="http://www.w3.org/2000/svg" viewBox="0 0 320 213"><defs/><filter id="a"><feGaussianBlur stdDeviation="12"/></filter><rect width="100%" height="100%" fill="#56332b"/><g filter="url(#a)"><g fill-opacity=".5" transform="matrix(1.25 0 0 1.25 .6 .6)"><ellipse cx="131" cy="44" fill="#fff" rx="254" ry="62"/><circle r="1" fill="#180b02" transform="matrix(-8.51422 91.78048 -21.7282 -2.01566 57.3 132.2)"/><circle r="1" fill="#75665f" transform="matrix(15.63112 50.49598 -42.59775 13.1862 216.7 106)"/><circle r="1" fill="#deebe5" transform="rotate(-36.3 117 -199.8) scale(75.99507 34.54959)"/><ellipse cx="14" cy="105" fill="#c8b79b" rx="28" ry="36"/><ellipse cx="255" cy="108" fill="#e6dccf" rx="15" ry="40"/><circle r="1" fill="#e8d6bb" transform="rotate(133.9 20.2 108) scale(19.34226 13.65581)"/><ellipse cx="255" cy="13" fill="#e5e6e6" rx="54" ry="31"/><circle r="1" fill="#dfdad1" transform="rotate(162.9 61.5 57.8) scale(33.82099 15.30774)"/><circle r="1" fill="#291514" transform="matrix(12.06637 1.5037 -6.6376 53.26292 228.4 117.3)"/><circle r="1" fill="#dcddd0" transform="matrix(11.85907 -.1063 .5784 64.52324 31.6 42.8)"/><path fill="#ded3cb" d="M212.3 142.1l-30.4 7.1 6-35 21.8 34.9z"/><circle r="1" fill="#8a5c4b" transform="rotate(37.7 -113.4 205.6) scale(35.92179 15.30527)"/><circle r="1" fill="#08080a" transform="rotate(-87.8 181.8 -20.4) scale(11.8857 62.16046)"/><path fill="#684e46" d="M233.1 92.4l-1.5 13.4-48.8 7.3-18.2-53z"/><path fill="#dbbba5" d="M234 143l7-26 8 29z"/><path fill="#bc9f8a" d="M25.7 39.9L88.8 80l-4.7-39.7L64.8 57z"/><path fill="#291914" d="M41 71h23v99H41z"/><circle r="1" fill="#cfd6d8" transform="matrix(23.47652 14.33013 -13.56314 22.21998 148.5 45.2)"/><path fill="#e2dfde" d="M173 106V87l-69 1z"/><ellipse cy="4" fill="#dfddc6" rx="10" ry="71"/><path fill="#261410" d="M29.2 96.6l-6 54.9 98.2 33.5-91.2-60.3z"/><path fill="#a88e78" d="M-16 50.7l65 60.5-5.8 18.7-33.5-7.1z"/><path fill="#83542c" d="M48 1h5v100h-5z"/><path fill="#7e6143" d="M75 0h5v65h-5z"/><path fill="#7d6861" d="M207 39.4l3.8 13.5 34.3 41.3-.4-46.7z"/><ellipse cx="149" cy="112" fill="#826457" rx="65" ry="7"/><path fill="#b4875e" d="M8.6 154.8L3 160l9.8 5.6 26.8-11.7z"/><path fill="#d7d7d4" d="M244 62.2l-2 10L257.8 97l-1.7-53.9z"/><path fill="#754739" d="M78 89l16 74 11-66z"/><ellipse cx="1" cy="153" fill="#2d1507" rx="4" ry="43"/><path fill="#906f5d" d="M132.6 167.2l18.7 4.9-31.6.4-16.1-79z"/><path fill="#bdaca3" d="M206.2 145.8L187 133l26.1 15.3-2.1-27.7z"/><circle r="1" fill="#261814" transform="matrix(-5.32264 15.17444 -34.10296 -11.96208 160.6 153.5)"/><path fill="#928481" d="M136.2 88.7l5.4-9.5 2.3-17.9-24.2 1.5z"/><path fill="#c9bdb0" d="M199 89l21-30-21 12z"/><path fill="#d2d2cf" d="M147-16h35l11 89z"/><circle r="1" fill="#1b1214" transform="matrix(-19.25287 1.56198 -4.14 -51.02958 64.8 147.4)"/><ellipse cx="10" cy="51" fill="#876034" rx="2" ry="60"/><ellipse cx="54" cy="54" fill="#ede3c4" rx="3" ry="9"/><path fill="#cdbaac" d="M102 163l22.7-12.9-15 34.5-14.3.4z"/><ellipse cx="92" cy="129" fill="#c08c80" rx="2" ry="32"/><circle r="1" fill="#1e0c10" transform="matrix(-.79674 -17.5455 9.90831 -.44993 223.7 134.7)"/><circle r="1" fill="#1e0a00" transform="matrix(-4.21133 2.02765 -3.02304 -6.2787 63.7 45.6)"/><path fill="#cfc0b8" d="M11.6 136.8l11 5.7-16.2-23.8-.2-48.3z"/><circle r="1" fill="#291d1f" transform="matrix(27.02163 -16.23624 6.2774 10.44736 245.6 161.3)"/><path fill="#d0cabb" d="M20 0h28v65H20z"/><path fill="#d6cfc9" d="M191 112l-9 31 12-4z"/><path fill="#5c433b" d="M176 88h22v25h-22z"/><circle r="1" fill="#d3c6b0" transform="rotate(92.9 20.6 34.1) scale(43.37579 2.50777)"/><ellipse cx="204" cy="22" fill="#b5abac" rx="21" ry="24"/><path fill="#c1b8af" d="M82 8h27v83H82z"/><path fill="#c5b7b2" d="M133.2 39.5l-26.4 67 10.3 41.7-5-34z"/><path fill="#bfb3a8" d="M11 47h28v59H11z"/><path fill="#916a4d" d="M45.8 125v4.8l-26.7.9-4.4-33.4z"/><path fill="#a59482" d="M57 0h59v22H57z"/><path fill="#dbcbc6" d="M86 75L67 60l5-7z"/><path fill="#dcd2cb" d="M128 91l-2 21-26-26z"/><circle r="1" fill="#5f3c2c" transform="matrix(3.15256 1.07984 -13.8976 40.57366 54.8 79.9)"/><path fill="#7d6b66" d="M164.9 69.3l45.1 46.8-37.7-75.3 13 7.2z"/><path fill="#341913" d="M197 140.6l-2-17 2-.2 2 17z"/><path fill="#ccc0b9" d="M21.2 116.2l4.1 27.1-12.9-39.5 1.4 16.8z"/><ellipse cx="80" cy="103" fill="#553229" rx="3" ry="25"/><path fill="#5e4337" d="M231 153l-15-4 2 33z"/><path fill="#624942" d="M206 78h38v17h-38z"/><path fill="#462111" d="M19.6 136L9.5 114.4l.9-.4 10.1 21.8z"/><path fill="#c9c0b5" d="M211 137l-4-13h7z"/><path fill="#4c2713" d="M25 108h6v39h-6z"/><ellipse cx="12" fill="#7f522b" rx="2" ry="30"/><circle r="1" fill="#6c4a38" transform="matrix(-2.7432 -14.94657 6.97824 -1.28075 49.6 80.7)"/><path fill="#c9c2bc" d="M152.8 75.4l21.1 3.9 2 26.4-22 .1z"/><path fill="#6b5640" d="M140.9 166.4l-8.3 14.9-17.5-9.7 8.3-14.9z"/><path fill="#aa8f7e" d="M233 150l15.9-5.8L271 75.5l-36 53.1z"/><path fill="#786155" d="M70 2h36v5H70z"/><path fill="#b7a8a0" d="M82.3-3.3l-10 24.1L145.6-16l-42.5 34z"/><path fill="#dcd5d5" d="M213.9 19.8L228.5-16 271 21.9 203.9 7.4z"/><path fill="#663d1d" d="M6 109l-22 17 24-5z"/><path fill="#492f2b" d="M128 116h54v28h-54z"/><path fill="#a8928a" d="M203 80l2 28-18-41z"/><path fill="#311305" d="M41 94h5v29h-5z"/><path fill="#643227" d="M104 91l8 39-27 53z"/><ellipse cx="218" cy="72" fill="#c8beab" rx="4" ry="9"/><path fill="#ccb5ab" d="M1 120l26 23-17-7z"/><path fill="#b7a39a" d="M187 137l16 12 13-5z"/><path fill="#d2c6c5" d="M235 1h4v55h-4z"/><path fill="#72574a" d="M102.1 116.1l98.7-5.5-27.2 42.7 28.9-53.4z"/><path fill="#765e57" d="M226.1 92.5l-37.5-34.6 21.4-8.8-9 77.7z"/><path fill="#754f37" d="M4.1 143.9l25.7 1.2-31.7-13.2 7.8-34.1z"/><path fill="#b5ada6" d="M21 117l-1-28 30-35z"/><path fill="#d6dbdc" d="M166.5 41.9L177.4 58l-30.3 8.5 9.2 6.3z"/><path fill="#906b56" d="M65 74h12v25H65z"/><path fill="#443b3b" d="M109.3 87l-14.8-3 .2-1 14.8 3z"/><path fill="#b7a6a0" d="M213 91h2v34h-2z"/><path fill="#b2998b" d="M142 168l-13-3-21 20z"/><path fill="#cbc7c0" d="M249 0h7v107h-7z"/><path fill="#cac6be" d="M9.8 130L5.5 53.3-.4-1.1l1.6 65.7z"/><circle cx="7" cy="159" r="5" fill="#ab7c5a"/><path fill="#684a3f" d="M127.9 104.2h-5.2l46 19.1-40.6 2z"/><path fill="#998f8b" d="M143 84h31v5h-31z"/><path fill="#6a5a56" d="M241 47h8v11h-8z"/></g></g></svg>