<svg xmlns="http://www.w3.org/2000/svg" viewBox="0 0 1400 933"><defs/><filter id="a"><feGaussianBlur stdDeviation="12"/></filter><rect width="100%" height="100%" fill="#44643c"/><g filter="url(#a)"><g fill-opacity=".5" transform="translate(2.7 2.7) scale(5.46875)"><circle cx="124" cy="74" r="119" fill="#e7d2ec"/><circle cx="127" cy="19" r="65" fill="#fff"/><path d="M90 63l-57-2 59 92z"/><circle r="1" fill="#343637" transform="rotate(128.1 42.7 101.4) scale(85.63964 30.2906)"/><circle cx="129" cy="60" r="41" fill="#fffff1"/><circle r="1" fill="#fff" transform="matrix(6.94067 22.95415 -14.84268 4.488 190.7 132)"/><path fill="#373833" d="M165 139l60 46-209-19z"/><circle r="1" fill="#fff" transform="matrix(6.42305 10.16026 -18.749 11.85262 60.2 140.7)"/><ellipse cx="25" cy="123" fill="#989188" rx="20" ry="169"/><circle r="1" fill="#171920" transform="matrix(-15.50766 9.04346 -14.59544 -25.02816 183.7 86.8)"/><ellipse cx="241" cy="121" fill="#988482" rx="37" ry="169"/><path fill="#d2d8e0" d="M120 117h45v25h-45z"/><path fill="#292f2f" d="M46 127l105-12L44 86z"/><path d="M239 0h6v170h-6zM68 86h104v3H68z"/><circle r="1" fill="#bcc9ce" transform="rotate(-3.9 1539.8 -803.9) scale(5.72519 24.27446)"/><circle cx="49" cy="19" r="43" fill="#b2b9b5"/><path d="M165 86h9v84h-9z"/><path fill="#fff" d="M120 163h24v7h-24z"/><circle r="1" fill="#bbc4bd" transform="matrix(-18.97312 36.50567 -29.1659 -15.15842 203 21.5)"/><path fill="#fff" d="M106 91h47v13h-47z"/><circle r="1" fill="#0e1111" transform="rotate(-177.3 44.3 74.5) scale(4.94366 94.23828)"/><path fill="#181d16" d="M143.5 104.4l18.2 28.6-9-53.6-6.9 91.8z"/><ellipse cx="129" cy="34" fill="#fff" rx="37" ry="25"/><path d="M44.6 68.9l.8 69.4 7.5-41.1L56.1 64z"/><ellipse cx="111" cy="147" rx="3" ry="44"/><path fill="#fff" d="M123 117h12v25h-12z"/><path d="M100 87h6v41h-6z"/><path fill="#fff" d="M94 90h6v48h-6zm-43.6 42.9l31.1-9.1-.6 23.8-38.8-7.4zM175 126h25v19h-25z"/><path d="M108.7 118.5l21.6-17.2-43.8 9.8 95.3-3.7z"/><ellipse cx="4" cy="59" fill="#130010" rx="3" ry="164"/><path fill="#939699" d="M183 109.7l47.4 60.7 7.7-.4 1.5-66.6z"/><path fill="#7e8078" d="M7 70h37v94H7z"/><path fill="#080f23" d="M167 160h38v10h-38z"/><path fill="#deffca" d="M165 41l-2 44-82-2z"/><ellipse cx="137" cy="139" fill="#25271f" rx="3" ry="32"/><path d="M152 87h6v38h-6z"/><path fill="#36373a" d="M204.5 61.5L206 111l-40.5-38.4-2.2-13.8z"/><path fill="#1c1e22" d="M61 60l31 1-29 37z"/><path fill="#b3bdbf" d="M39 0h56v60H39z"/><path fill="#fff" d="M106 111h3v24h-3z"/><path fill="#b8c2c6" d="M56 38h4v87h-4z"/><path fill="#b9c1c8" d="M162 0h46v61h-46z"/><ellipse cx="159" cy="121" fill="#d1dcd4" rx="2" ry="33"/><path fill="#bbb9b2" d="M71 143l-27 16h54z"/><path fill="#172439" d="M44 160h47v10H44z"/><path fill="#f6fafc" d="M149 124l1-14 7 28z"/><path fill="#909ba2" d="M174 109h39v16h-39z"/><ellipse cx="219" cy="62" fill="#9ea792" rx="15" ry="110"/><ellipse cx="37" cy="28" fill="#676247" rx="2" ry="157"/><path fill="#f6fff5" d="M116 98l32-5 8 11z"/><path fill="#fff" d="M131 109l-11-4h19z"/><ellipse cx="10" cy="54" fill="#89796b" rx="4" ry="150"/><path fill="#171c0e" d="M126 102l40 5-21 4z"/><path fill="#92928b" d="M166.3 124.6l-5.2 40.7 42.6-14.6-54.9 1.1z"/><path fill="#a3aba8" d="M132.7-20.8l7.2 37.3-22.6 4.3-7.2-37.3z"/><ellipse cx="146" cy="134" rx="2" ry="26"/><ellipse cx="129" cy="34" fill="#fff" rx="36" ry="20"/><path d="M91 86h75v3H91zm26 19h4v31h-4z"/><path fill="#fff" d="M207.5 132.8l-4.3 12.3-22.7-7.9 4.3-12.3z"/><ellipse cx="169" cy="126" rx="4" ry="28"/><path fill="#9e8d88" d="M244 0h4v118h-4z"/><path fill="#060908" d="M81 90h9v63h-9z"/><path fill="#514e38" d="M49 43l-16 4 18 5z"/><path fill="#fff" d="M62 125h19v15H62z"/><path fill="#a7b293" d="M17.1 78.1L43.8 84l-.2-27.9L13 4.2z"/><path fill="#020b07" d="M239 35h4v115h-4z"/><path fill="#4a515b" d="M204 122l1 9-17-10z"/><path fill="#fff" d="M134.6 135.3l-10.8 2.1-2.4-12.7 10.8-2.1z"/><path fill="#1d2314" d="M94 105h24v7H94z"/><path fill="#5f6460" d="M43 134l37-37 1 19z"/><ellipse cx="142" cy="130" fill="#e1e5e8" rx="3" ry="14"/><ellipse cx="106" cy="42" fill="#fffff8" rx="13" ry="32"/><ellipse cx="171" cy="81" fill="#c6cfdb" rx="3" ry="5"/><path fill="#eefffb" d="M125 163h13v7h-13z"/><path fill="#110400" d="M198 45h9v3h-9z"/><path fill="#727668" d="M91 137h18v33H91z"/><path d="M157 126l-3 2-2-12z"/><path fill="#fff" d="M163.4 50.6l-1.2 33.6L132 35.1 147 0z"/><ellipse cx="75" cy="161" fill="#101009" rx="130" ry="1"/><path fill="#d0f5b4" d="M112.3 49.7l2.2 28.2 42.1 8.1-8.6-27.3z"/><path fill="#69686d" d="M.7 151.5l37.3 1.3 37.9 25.9L4.4 185z"/><ellipse cx="211" cy="69" fill="#7c746b" rx="2" ry="161"/><circle r="1" fill="#c1c7d2" transform="matrix(-12.76231 -3.0672 1.76516 -7.34466 190.6 151.9)"/><ellipse cx="47" cy="86" fill="#090a06" rx="4" ry="25"/><path d="M109 108h5v47h-5z"/><path fill="#797b73" d="M122.5 150.6l-4.9-9 29.2-1-9.4 13.5z"/><path fill="#dae0eb" d="M107 127.6l2.4 5.5-16.4 7.3-2.4-5.5z"/><path fill="#878b8b" d="M69 108l-63 1 6 32z"/><path fill="#fff" d="M121 117h12v4h-12z"/><path fill="#b1bca8" d="M230.4 79.8l-17-.6 2.2-63 17 .6z"/><path fill="#030a05" d="M101 89h4v39h-4z"/><path fill="#050908" d="M142.7 112.2l-33.7 1 28.2-3.1.4 25.3z"/><path fill="#fbffff" d="M65 126l-20 34 1-25z"/><ellipse cx="36" cy="53" fill="#716b57" rx="2" ry="99"/><path fill="#fff" d="M114 125h2v15h-2z"/><path fill="#b6bebb" d="M97.5 103l-9.2 3 26.8-.7-21.2-4.8z"/></g></g></svg>