<svg xmlns="http://www.w3.org/2000/svg" viewBox="0 0 1400 933"><defs/><filter id="a"><feGaussianBlur stdDeviation="12"/></filter><rect width="100%" height="100%" fill="#282e4a"/><g filter="url(#a)"><g fill-opacity=".5" transform="translate(2.7 2.7) scale(5.46875)"><circle r="1" fill="#edddba" transform="matrix(147.46276 -22.82844 17.03152 110.01695 190.3 108.4)"/><circle cx="132" cy="128" r="58" fill="#d6ccd7"/><path fill="#12190e" d="M108 3h37v97h-37z"/><path fill="#453821" d="M161 5l87 49-32 106z"/><ellipse cx="57" cy="55" fill="#fff" rx="4" ry="44"/><ellipse cx="153" cy="94" fill="#d8e1e8" rx="36" ry="37"/><ellipse cx="26" cy="111" fill="#4f3f1e" rx="27" ry="169"/><path fill="#050000" d="M136 26h9v77h-9z"/><path fill="#7a4b5d" d="M66 133h96v21H66z"/><path fill="#ffe7e8" d="M53 112h72v20H53z"/><ellipse cx="190" cy="122" rx="2" ry="142"/><path fill="#fff" d="M119 67h13v23h-13z"/><circle r="1" fill="#5a5745" transform="rotate(-128 59.7 -11.8) scale(18.17272 58.92103)"/><path fill="#0c0f0b" d="M132.1 27.7l5.5 38.7-27.7 3.9-5.5-38.7z"/><path fill="#cad0d4" d="M190.4 157.6L149.6-16l2.5 201 91.4-1.5z"/><circle r="1" fill="#6e6960" transform="rotate(6.7 -371.7 2160.7) scale(33.36421 88.50031)"/><path fill="#d2e5df" d="M92 52h16v54H92z"/><path fill="#b0b2b7" d="M100.4 18.9l51-1.8.2 8-51 1.8z"/><path fill="#e3e4e6" d="M74 55h10v62H74z"/><circle r="1" fill="#635232" transform="rotate(-105.8 44.7 -16.3) scale(53.47152 16.15181)"/><circle r="1" fill="#a2747d" transform="matrix(-39.72281 -15.32776 3.34498 -8.6687 142.8 136.6)"/><path fill="#fffff8" d="M53.5 40.3l6.8 5.9-3 57.9-3.4-44.5z"/><path fill="#bcbdb8" d="M208.8 21.2l6.8-16.7L178.8.1l-45.2-4.7z"/><path fill="#1f1e16" d="M108 32h11v73h-11z"/><path fill="#fff" d="M66 114h112v6H66z"/><circle r="1" fill="#605757" transform="rotate(-171.1 24.4 48.4) scale(11.77333 47.79181)"/><path fill="#2a1e16" d="M62 0h11v79H62z"/><ellipse cx="188" cy="17" rx="2" ry="20"/><ellipse cx="70" cy="165" fill="#b0bab9" rx="18" ry="13"/><path fill="#aaadaa" d="M194 142h29v17h-29z"/><path fill="#000003" d="M112 6h37v9h-37z"/><circle r="1" fill="#221f15" transform="matrix(-23.96783 -7.68288 19.68538 -61.4113 0 26.4)"/><path fill="#423d3e" d="M85 13h6v101h-6z"/><path fill="#cd8f9b" d="M76 120h65v15H76z"/><path fill="#373a34" d="M159.4 20.1l21.7 38.8-7.8-73.7-.1 39.3z"/><path fill="#f8f8f9" d="M51.7 133.2l1.7-11.9 17 1.8-8.2 13.6z"/><path fill="#f6fffd" d="M117.3 113.6l6.4-13.4 50.3 29.3-84.1-16.1z"/><path fill="#3c2000" d="M118 91h11v7h-11z"/><path fill="#886141" d="M55.9 98.7l-31.8 1 47.6-7.2-11.5 33z"/><path fill="#39332c" d="M-10.4 173.4l-5.6-63.9 93.6 43.6-15.4.3z"/><path fill="#bfc1cd" d="M180.7 142l2.8-76.4-26.1-36.4 8.8 109.2z"/><path fill="#9f9173" d="M76.4 16L65.3-.4 73.6-6l11.1 16.6z"/><path fill="#a29a96" d="M72 37h12v43H72z"/><path fill="#f3fbf4" d="M120 63h10v26h-10z"/><circle r="1" fill="#111d11" transform="rotate(179.6 51 55.2) scale(16.46303 1)"/><path fill="#1e1f18" d="M96 26l38 47 11-15z"/><path fill="#9ca49b" d="M91.7 43.2l4.5-15.4 16.1 37.1-17.1 9.6z"/><path fill="#5d4f3d" d="M194 27h24v89h-24z"/><path fill="#79a09d" d="M117 1h28v5h-28z"/><ellipse cx="56" cy="37" fill="#fdf4ce" rx="2" ry="33"/><ellipse cx="168" cy="6" fill="#d1d1c4" rx="4" ry="17"/><ellipse cx="104" cy="76" fill="#fff" rx="2" ry="33"/><circle r="1" fill="#806f59" transform="rotate(67.5 24.1 233.7) scale(20.98549 32.66678)"/><path d="M188 148l5-94h1l-5 94z"/><path fill="#302c44" d="M90 137l-18-7 5 12z"/><path fill="#fffffc" d="M156 122.8l4.3-4.2 25.7 26.6-4.3 4.2z"/><path fill="#cdaab5" d="M121 122l-19 29-22-4z"/><path fill="#989589" d="M133 67h7v38h-7z"/><path fill="#574460" d="M118 137h31v9h-31z"/><ellipse cx="248" cy="65" fill="#88857c" rx="22" ry="19"/><path fill="#2e312c" d="M90 88h23v2H90z"/><path fill="#636257" d="M98.5 39l5.5 7 4-44.1-15.6-17z"/><path fill="#515c6d" d="M258.3 9.2l-10-22.1-16.8 20.4L271 59.9z"/><path d="M174 0h2v26h-2z"/><path fill="#b8c1c0" d="M199 184l-55.6-15.2 62.4-13.8-7.2-22.3z"/><path fill="#020f14" d="M162.7 26.5l1.6-29h1l-1.6 29z"/><path fill="#3a3d3a" d="M102 26h38v15h-38z"/><path fill="#fffdef" d="M186-16L175-3l9 15z"/><path fill="#504847" d="M10 115l44 62-3-148z"/><path fill="#241d12" d="M78.6 55.7L57.7-3.2l26.9 21.6-17.3 26.1z"/><ellipse cx="193" cy="120" fill="#d2dbeb" rx="1" ry="25"/><path fill="#7c5551" d="M133 150h40v3h-40z"/><path fill="#d8d4cc" d="M191 3h7v16h-7z"/><path fill="#b2bdb9" d="M202.4 139l68 12-.8 4-68-12z"/><circle cx="77" cy="37" r="4" fill="#f49a00"/><path fill="#212421" d="M91 67h22v2H91z"/><path fill="#a69168" d="M57 10h5v39h-5z"/><path fill="#6d5c54" d="M60 61h13v25H60z"/><path fill="#d6b388" d="M53 106h6v17h-6z"/><ellipse cx="116" cy="82" fill="#8f9b98" rx="1" ry="33"/><path fill="#0e1a1b" d="M108 8h39v8h-39z"/><path fill="#242218" d="M131.2 28.5l9.4 46 4.3 43.5-.2-51.7z"/><ellipse cx="191" cy="109" fill="#060a08" rx="2" ry="39"/><path fill="#625441" d="M264.6 143.1l-1 6-64.2-10.2 1-6z"/><path fill="#afb2bf" d="M173 78h16v50h-16z"/><path fill="#f8fdf7" d="M104.6 111.3l11.1-6.1-12.5-5.6 2.6-23.2z"/><path fill="#d5d1cf" d="M72 87h11v26H72z"/><path fill="#fff" d="M55 56h5v36h-5z"/><ellipse cx="159" fill="#eceddc" rx="3" ry="9"/><path fill="#96a0a8" d="M84.1 118.7l22.4 5.6-19.7 1.7-25.4-4.8z"/><path fill="#d9dee7" d="M166.7 113.7l-26 6.9L157.5 73l11.2 28.7z"/><ellipse cx="171" cy="25" fill="#7f7c6f" rx="4" ry="14"/><circle r="1" fill="#00040a" transform="rotate(88.4 68 123.7) scale(74.20764 1)"/><path fill="#82786a" d="M226.6 147.4l-2.6 14.8-20.6-3.6 2.6-14.8z"/><path fill="#737b87" d="M207.6 25.8l14.2-18.1 64.6 50.5-14.2 18.1z"/><path fill="#5c4f2e" d="M48.8 18.6L46.6-5.5 64.4-16 51.9 33.2z"/><ellipse cx="104" cy="144" fill="#63557c" rx="20" ry="2"/><path fill="#9ca29e" d="M150-15l12 49-17 34z"/><circle r="1" fill="#232827" transform="rotate(86 68.8 112.6) scale(29.25007 1)"/><path fill="#4f544b" d="M109 62h26v6h-26z"/></g></g></svg>