<svg xmlns="http://www.w3.org/2000/svg" viewBox="0 0 420 280"><defs/><filter id="a"><feGaussianBlur stdDeviation="12"/></filter><rect width="100%" height="100%" fill="#4a3e2b"/><g filter="url(#a)"><g fill-opacity=".5" transform="translate(.8 .8) scale(1.64063)"><circle r="1" fill="#fdffff" transform="matrix(-87.12785 170.72628 -128.54878 -65.60313 143.5 108.8)"/><ellipse cx="95" cy="143" rx="69" ry="16"/><circle r="1" fill="#f6f1fe" transform="matrix(78.5431 4.66632 -2.6044 43.83716 226.7 59.9)"/><circle r="1" fill="#fcf5eb" transform="matrix(-17.77226 -17.77264 35.29427 -35.2935 64.1 54.5)"/><path fill="#15141c" d="M103 74h31v84h-31z"/><path fill="#f4f2ff" d="M162.5 174v-42h109v42z"/><path fill="#271926" d="M147 112h75v19h-75z"/><ellipse cx="115" cy="27" rx="12" ry="15"/><path fill="#616049" d="M-5.4 7.3l39 1.4-2.2 64-39-1.4z"/><circle r="1" fill="#38517b" transform="rotate(-94.2 64.4 55.1) scale(34.67795 21.14691)"/><circle cx="239" cy="96" r="31" fill="#bbd2ff"/><circle cx="72" r="40" fill="#e1c87b"/><path d="M88 142h80v14H88z"/><ellipse cx="5" cy="80" fill="#eff2ff" rx="86" ry="8"/><path d="M138 63h8v23h-8z"/><circle r="1" fill="#765d56" transform="matrix(-2.64847 -10.5324 74.15019 -18.64576 135.9 116.8)"/><circle r="1" fill="#ccb172" transform="matrix(45.91847 12.33747 -7.92473 29.49484 164.6 10)"/><ellipse cx="121" cy="63" rx="28" ry="2"/><path fill="#f8e39d" d="M-7.4 25.2l20.3-10.8 6.5 12.4L-.9 37.6z"/><path fill="#a29ebe" d="M135.3 130.1L43 85.3l155 60.2-31 6.5z"/><circle r="1" fill="#889fc9" transform="matrix(6.28257 13.87415 -22.21894 10.0613 36.3 122.6)"/><path fill="#1e1b12" d="M102 150v-32l-57 20z"/><path fill="#dbd4d5" d="M103 58l88 5-54-36z"/><path fill="#000634" d="M233 97h12v10h-12z"/><path fill="#211e12" d="M39.5 150.7l-12 2.2-43.5-7.8 2.8-13.2z"/><circle r="1" fill="#ced3e3" transform="matrix(.80904 7.32218 -72.34232 7.99325 116.4 167.5)"/><path d="M200 126h30v6h-30z"/><path fill="#a4a5c0" d="M53.4 127.1L64.9 45l27.7 3.9L81.1 131z"/><ellipse cx="160" cy="99" fill="#a48a8a" rx="19" ry="26"/><ellipse cx="229" cy="31" fill="#d2dadf" rx="38" ry="27"/><path fill="#3d2605" d="M185.8 46.9l.8-4 19.6 4.2-.8 4z"/><path fill="#070b09" d="M104 79h28v16h-28z"/><path fill="#41290b" d="M179 102h18v28h-18z"/><path fill="#f1f6ff" d="M246 39h10v93h-10z"/><path fill="#b5a29d" d="M-13 168l89-28 25 45z"/><circle r="1" fill="#534e41" transform="matrix(-13.0286 28.58864 -10.55124 -4.80848 17.2 42.3)"/><path fill="#e8ebef" d="M34 34h26v55H34z"/><path fill="#070308" d="M48 112l4-5-18-15z"/><path fill="#a17c38" d="M60.5 46.4L59.3 1l8.5-10 .3 55.7z"/><path fill="#000018" d="M243.5 116.2l-49 2.6v-1l49-2.6z"/><path fill="#fffdff" d="M234 111.5l-21.9 2-2.1-25 21.9-2z"/><path fill="#806b48" d="M236.1 33.6l9.7-.8-7.5-35.7 8.8-5.3z"/><ellipse cx="187" cy="25" fill="#a17841" rx="3" ry="39"/><circle r="1" fill="#c4bccf" transform="matrix(-11.29412 8.44742 -19.54405 -26.13018 83.7 86)"/><path fill="#e2e0f3" d="M148 138l69 5-46-16z"/><path fill="#6e5d4d" d="M78 62l26-10-25-2z"/><path fill="#5e5053" d="M48 127h114v6H48z"/><path fill="#d2d5dd" d="M194.5 178.3l-70-27.7 13.4 17.3 73.7-33.4z"/><path fill="#fffff3" d="M83.1 28.6L69.7 48l19.9 3.2 6.4-19z"/><path fill="#7f8aab" d="M52 98h45v28H52z"/><path fill="#ffd4b5" d="M184.7 60.8l31.9 31.8-64.9.8 4 9.3z"/><path fill="#9691ae" d="M136.2 68.1l-6.5 77.4L140.1 82 90.5 68.4z"/><ellipse cx="144" cy="95" fill="#00030c" rx="2" ry="10"/><path fill="#cdc396" d="M34 0h26v43H34z"/><path fill="#050b0f" d="M131 141h32v15h-32z"/><path fill="#d9daef" d="M111 85h2v32h-2z"/><path fill="#8b9ccf" d="M209 72h31v17h-31z"/><path fill="#02060c" d="M92 63h49v3H92z"/><path fill="#f5ffff" d="M68 65h23v10H68z"/><path fill="#d2d1d8" d="M96 48.5l45.6 2.3 8.4 32.5 36.4-49.8z"/><path fill="#11170b" d="M125 134H78l50 27z"/><path fill="#adafbf" d="M123 84h3v32h-3z"/><path fill="#4d3123" d="M202 91h6v16h-6z"/><path fill="#8a5326" d="M226.4 58.4l-40.7 4.2-.1-1 40.7-4.2z"/><ellipse cx="116" cy="36" fill="#211a00" rx="5" ry="9"/><path fill="#5b587b" d="M24.9 54.8l1.8 16.8-42.7 4.2 6-33.5z"/><circle r="1" fill="#e6effd" transform="matrix(.30431 5.2092 -22.40624 1.30894 213.4 54)"/><path fill="#a9b9d4" d="M19 106l20 24-22 11z"/><ellipse cx="130" cy="106" fill="#080f0f" rx="3" ry="14"/><path fill="#a8a5b9" d="M133 68h7v61h-7z"/><path fill="#7f8ec3" d="M212 118h33v9h-33z"/><path fill="#847a72" d="M127.8 63l10.1-21.6.6 4.3-18 4.8z"/><path fill="#9db4f4" d="M196 107h31v6h-31z"/><path fill="#e2eaec" d="M106 50L94 26l28 27z"/><circle r="1" fill="#d0c6ba" transform="rotate(141.8 .2 56.6) scale(3.15038 20.00128)"/><path fill="#6a5654" d="M154 101.9l11.7 27.9-32-22.2 6 15.6z"/><ellipse cx="228" cy="144" fill="#e7e8f0" rx="46" ry="6"/><circle r="1" fill="#cdc9d9" transform="rotate(87.2 13.8 157.2) scale(4.11502 30.08952)"/><path fill="#f5f7fd" d="M-7.4 87.3l5.8-16 15 5.4-5.8 16z"/><path fill="#edf5ff" d="M196 33h43v12h-43z"/><circle r="1" fill="#8f78b5" transform="rotate(-129.9 120.3 32.5) scale(6.41556 11.53024)"/><ellipse cx="116" cy="25" fill="#473b08" rx="11" ry="12"/><path fill="#897774" d="M178.8 80.8l-20.5-6.9-9.4 6.4 4.3 9.9z"/><path fill="#73614a" d="M20 152l66 8-6-21z"/><circle r="1" fill="#d5a97c" transform="matrix(3.77233 3.8523 -14.18418 13.88974 199 90.6)"/><path fill="#b8995e" d="M136-2l38-14-36 58z"/><path fill="#ec8b56" d="M175.8 73.7l14-17.9-5.3 17 4 2.6z"/><path fill="#dacb91" d="M134.2 9.1l-43 9.2-5.4-25.4 43-9.2z"/><circle r="1" fill="#c3bcc0" transform="matrix(-.3441 3.3875 -65.00765 -6.60324 25 160.4)"/><circle cx="141" cy="107" r="5" fill="#d0d6e5"/><path fill="#472509" d="M240 20h3v17h-3z"/><ellipse cx="47" cy="143" fill="#303025" rx="27" ry="4"/><path fill="#f5ece5" d="M191.7 93.4l-4.1.9-11.4-11.4L225 59.8z"/><path fill="#3c4d63" d="M4 140l3-44-23-16z"/><path fill="#2b3b49" d="M17.4 88.6l12.7 25-3.5 1.8-12.7-25z"/><path fill="#f2fbff" d="M146 64h13v10h-13z"/><path fill="#9f90a6" d="M106 67l27 6-60 10z"/><path fill="#46361f" d="M102.1 122.5l-19.2.2 26.3-8.2-.5-14.6z"/><path fill="#2b2721" d="M121.7 95.9l30.4 8.4-53.7-24.8 40.4-.4z"/><path fill="#8a9696" d="M130 165.4l-3 .1-1-25h3z"/></g></g></svg>