<svg xmlns="http://www.w3.org/2000/svg" viewBox="0 0 1400 933"><defs/><filter id="a"><feGaussianBlur stdDeviation="12"/></filter><rect width="100%" height="100%" fill="#45463d"/><g filter="url(#a)"><g fill-opacity=".5" transform="translate(2.7 2.7) scale(5.46875)"><circle r="1" fill="#ffe4b6" transform="rotate(-106.3 129.5 -50.5) scale(224.08423 90.09197)"/><circle r="1" fill="#fff" transform="matrix(22.60866 25.27685 -30.54906 27.32434 13 66.8)"/><path d="M40 87h125v52H40z"/><circle r="1" fill="#ffeeec" transform="rotate(-24.3 447.3 -289.7) scale(66.13277 21.591)"/><circle r="1" fill="#edcdb9" transform="matrix(-85.28858 84.10596 -18.84557 -19.11056 58.2 10.1)"/><path d="M183.9 19.3l-13.3 16.3-50.5-40.9 13.3-16.3z"/><path fill="#fff" d="M102 33l20-30-54 46z"/><circle r="1" fill="#c5874d" transform="matrix(13.37404 9.78831 -25.0611 34.24166 22.3 104.8)"/><circle r="1" transform="matrix(3.771 3.81713 -23.10864 22.82933 67.3 17.7)"/><circle r="1" fill="#f9c087" transform="matrix(19.4748 44.4358 -28.37152 12.43434 210.5 41.5)"/><circle r="1" fill="#000001" transform="matrix(-24.5904 -22.12012 15.62889 -17.37425 75 72.6)"/><circle r="1" fill="#dc9875" transform="rotate(5 -617 1499.7) scale(27.05609 28.13867)"/><circle r="1" fill="#e6a471" transform="matrix(-17.67895 -31.9002 12.75865 -7.07079 37.7 167.4)"/><path d="M107 44.5L98.5 36 141-6.5l8.5 8.5z"/><circle r="1" fill="#fff" transform="matrix(-4.50761 -23.4077 36.43123 -7.01555 5.9 60.7)"/><path fill="#0c0c05" d="M146.8 66.1l26-41.5 8.4 5.3-26 41.5z"/><circle r="1" fill="#c5c7cf" transform="matrix(106.8244 -146.70983 28.08159 20.44716 238.3 169)"/><circle r="1" fill="#040d11" transform="matrix(-50.69127 32.96406 -12.8012 -19.68536 110.3 131.7)"/><circle r="1" fill="#f5bd7e" transform="rotate(-132.8 106.2 2.2) scale(27.00911 26.54586)"/><path fill="#8e5b33" d="M0 0h43v37H0z"/><path fill="#151d1e" d="M29 118h140v21H29z"/><circle r="1" fill="#fdb195" transform="matrix(-19.64071 -.78885 .89851 -22.37094 142.5 37)"/><path fill="#bb925c" d="M260-16l-17 149-59-8z"/><path fill="#3b1b0a" d="M202-10.2l77.5 9.5-1.6 12.9-77.4-9.5z"/><path fill="#f8f9ff" d="M227.4 135.9l43.6 6.8-90.8-.7-16.1-22.8z"/><circle r="1" fill="#ffffe9" transform="matrix(26.15525 -24.22003 2.29978 2.48354 85.6 13)"/><path fill="#ffe7c9" d="M103.4 15.7L144.7-16l-34.2 39.7-29.3 26z"/><circle r="1" fill="#be7332" transform="matrix(-11.91728 -5.76822 8.50378 -17.569 145.4 155.4)"/><circle r="1" fill="#d4ebfe" transform="rotate(133.4 -9.1 63) scale(10.65708 5.72859)"/><path fill="#fff" d="M104.9 169.2l24.4-21.4-1.5 27.1 20.3 10.1z"/><path fill="#010b0d" d="M139 77l19 22-31 2z"/><path fill="#ffdbbb" d="M108 78.6l5.1-10.9 20.9 9.7-5.1 10.9z"/><path fill="#7d858d" d="M173 149h78v18h-78z"/><path fill="#00110e" d="M58 17l8.2 8.9-18.2 17-8.2-8.8z"/><path fill="#141b1a" d="M63.2 40.8l48.6 16.8-54.5 96.7L46.5 51.6z"/><path fill="#745024" d="M7.2 140l-13-31.2 29.4-29.3 1.6 44.9z"/><path fill="#252b0e" d="M145.5 71.6l3.4-7.3-27.3 6.2 5.8 4.1z"/><path fill="#131e1c" d="M45.9 71.9l78.2-75.6 1.1 2.2-8.5-14.5z"/><path fill="#061414" d="M177 21l-23-37 14 74z"/><path fill="#d9b286" d="M177 11h79v58h-79z"/><ellipse cx="250" cy="118" fill="#f0edee" rx="6" ry="26"/><path fill="#d0a079" d="M9 146l54 8-24-15z"/><path fill="#001110" d="M7 144.4l25 29.9-23 19.3-25-29.9z"/><path fill="#e2f3ff" d="M.8 123.8l6.1 20-7.7 2.4-6.1-20z"/><circle r="1" fill="#14241f" transform="rotate(38.9 -30.3 77.5) scale(33.40644 2.14929)"/><path fill="#f1f4fd" d="M151.6 184.3l15.5-11.8 21-45-22.3 9.5z"/><path fill="#f9f0f2" d="M-10 105l50-70 5 26z"/><path fill="#8b7248" d="M155.2 117.2l87.2.5-6.2 22.6-2-4.4z"/><path fill="#cd8c58" d="M2 111l42-46 9 23z"/><path fill="#eff6fe" d="M165 167h91v3h-91z"/><path fill="#cca77e" d="M25.2 11.5L72.8-16 70.1 1.7l-27 31.4z"/><path fill="#162723" d="M106.3-12l7.8-4L70.3 2.1 49.6 38.8z"/><path fill="#1c2120" d="M31 116h137v22H31z"/><path fill="#ffdcc7" d="M161 27l-19-15-4 26z"/><path fill="#0f170f" d="M119 12h13v16h-13z"/><path fill="#3a321c" d="M256 60.4l4 .8-6 30.4-4-.8z"/><path fill="#ffcc8f" d="M181 20.8l-22.4-33.2 12.4-8.4 22.4 33.2z"/><circle r="1" fill="#2a2a1c" transform="rotate(-80.7 155.3 -4.7) scale(56.59972 1.81564)"/><circle r="1" fill="#e4b885" transform="matrix(-9.80222 -6.83812 22.32919 -32.00814 178.5 60.9)"/><circle r="1" fill="#a89070" transform="matrix(13.99808 -10.9759 5.37751 6.8582 0 18.4)"/><path fill="#ece9ec" d="M225.2 134.3l-52.7-9.6-3.7 24.8 49.5-1.1z"/><path fill="#f8ebf0" d="M0 37h46v27H0z"/><path fill="#ab805b" d="M12 121l68 63-66-32z"/><path fill="#262d26" d="M113 46.7l4.2-28.7 26.5-34-29.3 66.2z"/><path fill="#181d1d" d="M39 96h66v47H39z"/><ellipse cx="214" cy="162" fill="#fff" rx="43" ry="1"/><circle r="1" fill="#191f1e" transform="matrix(-28.11931 50.10803 -15.091 -8.46867 99.8 146.6)"/><path fill="#fffdfc" d="M160 152h90v2h-90z"/><path fill="#f7cfb1" d="M72 48.2l-1.5 1.3L139.2-16 90.8 42.2z"/><path fill="#191e1d" d="M144 97l-76 83L51 52z"/><path fill="#1d2522" d="M171 6l-31-22 34 63z"/><path fill="#fbf9f7" d="M248.5 157.7l-91 1.6v-1l91-1.6z"/><ellipse cx="176" cy="99" fill="#c2965e" rx="15" ry="21"/><circle r="1" fill="#e6b48c" transform="matrix(4.13046 -4.19689 9.2671 9.12041 113.5 73)"/><circle r="1" fill="#ffd5b8" transform="matrix(-2.72007 -2.60228 24.23986 -25.33709 84.7 14.9)"/><path fill="#9d7352" d="M141.5 40.9l24.6-10.2-12.2 33.4 9-10z"/><path fill="#c85129" d="M26.7 10.3l-9.4 6.4-3.9-10.6L62.2-8.4z"/><ellipse cx="205" cy="163" fill="#fbf9f9" rx="44" ry="1"/><ellipse cx="191" cy="155" fill="#656665" rx="25" ry="2"/><ellipse cx="16" cy="28" fill="#513017" rx="19" ry="3"/><path fill="#987758" d="M118.3 27.5l23.9 10.4-11.3-18.1-31 38.7z"/><path fill="#d19d77" d="M139 181l2-41 22-3z"/><path fill="#585755" d="M178 150h75v2h-75z"/><circle r="1" fill="#b08255" transform="matrix(2.9951 .4316 -11.67818 81.04097 227.5 38)"/><path fill="#1b2020" d="M145 84L22 125l150 10z"/><ellipse cx="31" cy="111" fill="#efeaeb" rx="5" ry="6"/><circle r="1" fill="#c5b094" transform="matrix(15.27049 1.8209 -4.83292 40.53011 209 49.7)"/><path fill="#252b28" d="M53.7 74.6l4.1-28.4 10.6-10L104 .7z"/><circle r="1" fill="#575139" transform="rotate(-120.2 44.7 66.5) scale(86.79692 3.64069)"/><circle r="1" fill="#232e24" transform="rotate(38.8 -26.2 67.3) scale(25.41881 1.69362)"/><circle r="1" fill="#957245" transform="rotate(99.3 106 119.7) scale(89.83309 1.36144)"/><path fill="#00160a" d="M116.8 64.9l-4.5-25.6 1-.2 4.4 25.6z"/><path fill="#595f63" d="M225 144h31v3h-31z"/><path fill="#d3ae92" d="M111 38l1 16-11-3z"/><path fill="#1b211f" d="M26.5 122.4l78.9-67.5-35.2 86.9-46.3-1.6z"/><ellipse cx="217" cy="165" fill="#494847" rx="45" ry="1"/><path fill="#dbd9da" d="M252 96h4v71h-4z"/><path fill="#dc9f84" d="M119 45h39v18h-39z"/><path fill="#d9b383" d="M163.1 101.2l-19.7-18.4 35.5-38 19.7 18.4z"/><path fill="#212825" d="M132.1 1.9L95.7 55l18.5.7-57.6 19.4z"/></g></g></svg>