<svg xmlns="http://www.w3.org/2000/svg" viewBox="0 0 420 280"><defs/><filter id="a"><feGaussianBlur stdDeviation="12"/></filter><rect width="100%" height="100%" fill="#6d3c3f"/><g filter="url(#a)"><g fill-opacity=".5" transform="translate(.8 .8) scale(1.64063)"><circle r="1" fill="#baf2f4" transform="matrix(-254.6271 -13.7856 5.13863 -94.91318 104.8 55.5)"/><ellipse cx="161" cy="33" fill="#268ef7" rx="47" ry="41"/><circle r="1" fill="#fffffb" transform="matrix(29.11602 32.15938 -18.17042 16.45089 200.9 107.2)"/><circle r="1" fill="#000538" transform="matrix(6.87369 -11.4826 32.4383 19.41814 49.4 121.5)"/><circle r="1" fill="#797d69" transform="matrix(-254.89332 -7.37549 .6708 -23.18246 182.9 159)"/><circle r="1" fill="#174c8a" transform="rotate(-160.2 39.5 24) scale(17.06283 46.77188)"/><circle r="1" fill="#f49801" transform="rotate(95.6 20.5 18.6) scale(15.61102 74.97973)"/><circle r="1" fill="#fff" transform="rotate(-52.1 174.5 -95.3) scale(12.64979 20.92295)"/><circle r="1" fill="#ffdc79" transform="matrix(5.62457 -133.02256 14.23468 .60188 0 91)"/><circle r="1" fill="#464300" transform="matrix(24.4408 14.58968 -3.74475 6.27325 164.4 90.1)"/><circle r="1" fill="#fff7ee" transform="rotate(53.5 -57.4 131.1) scale(13.4382 23.61889)"/><circle r="1" fill="#d6975d" transform="matrix(7.17519 -181.93647 18.88533 .7448 255 62)"/><path d="M20 101h27v22H20z"/><circle r="1" fill="#0c4672" transform="rotate(-103.2 90 60) scale(21.57999 33.02272)"/><circle r="1" fill="#274281" transform="matrix(-13.99438 -4.79985 6.76633 -19.72781 31.3 38.4)"/><circle cx="209" cy="119" r="26" fill="#eaecfd"/><path fill="orange" d="M237.6 16l-26-1 .8-21 26 1z"/><path fill="#653d32" d="M226.1 150.1L165 133l-54.8 8.3 30.2 10.8z"/><ellipse cx="233" cy="81" fill="#b07542" rx="31" ry="12"/><path fill="#feffb6" d="M129.7 83.8l21.2-34.9-17.7-1.5.3 5.5z"/><ellipse cx="89" cy="128" fill="#8c4211" rx="6" ry="31"/><path fill="#e8e2eb" d="M50 142l-4-20-19-1z"/><ellipse cx="123" cy="43" fill="#736263" rx="90" ry="5"/><path fill="#92bfe6" d="M244.8 17l-1.6 30-38-2 1.6-30z"/><path fill="#d63750" d="M50.3 77.1L20 70.9l1.9-19.6 21.8 5z"/><path fill="#fedad3" d="M19.3 73.1l24-1.2 1.4 27-24 1.2z"/><path fill="#ffffe7" d="M134.8 94.8l32-.6.4 21-32 .6z"/><path fill="#8c7517" d="M114.5 77.8l60.7-6.3-69.7 19.2-1.9-55.9z"/><ellipse cx="185" fill="#ffb528" rx="86" ry="2"/><path fill="#1a0905" d="M90.3 43.2l-20.8 2.5-1.8-14.9 20.8-2.5z"/><path fill="#9efcff" d="M114 1h10v34h-10z"/><path fill="#c7d3e1" d="M95.4 49.9l20-34.2-34 .7 11.5 31z"/><ellipse cx="181" cy="149" fill="#794423" rx="8" ry="30"/><path fill="#a4734e" d="M199.8 198.2l-17-17 93.4-93.4 17 17z"/><path fill="#4184b5" d="M46 43h56v32H46z"/><ellipse cx="183" cy="82" fill="#ffffea" rx="22" ry="9"/><path fill="#f6d6e0" d="M54 29h14v18H54z"/><path fill="#e1998b" d="M249.1 59.6l-13.5 23.3-28.1-22-2.4-27.8z"/><path fill="#4089d5" d="M149 3h58v68h-58z"/><path fill="#005102" d="M137.6 72.5l23.5 4.2L150 95.4l-2.4-6.4z"/><path fill="#bac1ca" d="M130 120l-14 39-20-34z"/><path fill="#58c1ff" d="M114 46l16 20-18 9z"/><path fill="#66b500" d="M119.9 112.1l-4.4 14 4.8-28.3 15.9 6.7z"/><path fill="#fffffd" d="M85 81h19v16H85z"/><path fill="#363042" d="M163 44.6l23.6-11.2-.2 14.9-75.8-1z"/><ellipse cx="32" cy="27" rx="11" ry="3"/><path fill="#924b43" d="M166 89h20v18h-20z"/><path fill="#08478f" d="M49 69l3 40 30-38z"/><path fill="#ddc7d0" d="M262.9 22.6l-23.2 49.2-19.5-.2L254.7 27z"/><path fill="#1b468e" d="M235.5 21.9l-3.7 29.3L248 38.1l-24.3-9.3z"/><path fill="#abcbde" d="M119 135l59-27v23z"/><circle cx="131" cy="154" r="5" fill="#89f5ff"/><circle r="1" fill="#513751" transform="rotate(-102.1 70.1 -27.2) scale(14.76884 4.09805)"/><path fill="#453b32" d="M205 52l-5-27h8z"/><ellipse cx="17" cy="121" fill="#4d4169" rx="3" ry="39"/><path fill="#fff" d="M137.6 64l-2.7-1.3 9.5-18.7 2.7 1.3z"/><path fill="#de9454" d="M100.9 40.1l2.3 60.9L114 36.4l-3.2 2.2z"/><path fill="#ffffe8" d="M120.9 102.7l2.6-13.1 12.6-7.4 17.8 16.3z"/><path fill="#00254b" d="M142 141l-22 2 2 11z"/><path fill="#acd4d0" d="M191 37h13v23h-13z"/><ellipse cx="14" cy="41" fill="#def1ff" rx="2" ry="29"/><path fill="#dde1eb" d="M210.2 151L184 124.8 215.8 93l26.2 26.2z"/><path fill="#154e84" d="M69 156l19-13-43-45z"/><circle r="1" fill="#e2a031" transform="rotate(-54 25.3 12.9) scale(15.52025 12.90419)"/><ellipse cx="48" cy="118" fill="#ce8681" rx="4" ry="11"/><path fill="#ead6b6" d="M19.1 117.2L.2 57.9l-4.1 53.5 15 13z"/><path fill="#fdfdfc" d="M207 16h31v5h-31z"/><path fill="#f6d6d6" d="M180 45.8l-26.4-5.6.4-2 26.4 5.6z"/><circle r="1" fill="#9a745f" transform="matrix(-9.53367 -.28295 .96658 -32.56746 245.4 95.4)"/><path fill="#938f9b" d="M31.3 124.3l28.8 21-28 1.6L.5 179z"/><ellipse cx="164" cy="97" fill="#afc89d" rx="6" ry="28"/><circle r="1" fill="#e3c87a" transform="matrix(8.27238 -.7086 6.70286 78.25063 255 26.6)"/><path fill="#000218" d="M24 100h19v23H24z"/><path fill="#519fec" d="M142 44L116 1l95 1z"/><circle r="1" fill="#8c4c1a" transform="rotate(161.3 36.2 91) scale(9.33401 27.59802)"/><path fill="#cfbbc9" d="M84 69v61l-21-17z"/><path fill="#fffffd" d="M90.1 82.9l-1.5 23.4 11.9-6.3-2.2-16.8z"/><circle cx="146" cy="104" r="4" fill="#ffd300"/><path fill="#ffffef" d="M221.1 38.4l-7.7 4.5-6.5-11.3 7.7-4.5z"/><path fill="#1a66bd" d="M183 62h25v11h-25z"/><path fill="#5f87a9" d="M55.9 42.1L8.7 27.6l79.2 58.3-5.6-29.5z"/><path fill="#476192" d="M54 21h48v6H54z"/><path fill="#1a112e" d="M15 51l8 10-2-18z"/><path fill="#339400" d="M157.2 129l-4.9-1.2 2.5-10.7 4.9 1.1z"/><path fill="#98b2de" d="M19 16h63v6H19z"/><path fill="#49abe6" d="M220 30h19v17h-19z"/><ellipse cx="125" cy="125" fill="#ffffec" rx="4" ry="9"/><path fill="#895635" d="M177.9 113.7l24.5 49.5-55.6 21.8 41-57.3z"/><path fill="#1d5117" d="M137 79l17 15-3-25z"/><path fill="#d29e4f" d="M205.5 38.5l9-.8 4 45.8-9 .8z"/><path fill="#efd198" d="M-16 181h62l1-17z"/><path fill="#61cb4b" d="M141.1 85.4l-9.7-23-8.8 30L136.4 81z"/><path fill="#6d7bc9" d="M12 65h4v49h-4z"/><path fill="#f4d1aa" d="M73 35h11v4H73z"/><path fill="#9e4031" d="M46 65h5v25h-5z"/><circle cx="194" cy="87" r="11" fill="#fff"/><ellipse cx="99" cy="36" fill="#f8eed5" rx="8" ry="7"/><path fill="#f4c46d" d="M-9 39l22-13-5 80z"/><path fill="#cdf3ff" d="M14 16h8v14h-8z"/><path fill="#090b1f" d="M68 28h8v20h-8z"/></g></g></svg>