<svg xmlns="http://www.w3.org/2000/svg" viewBox="0 0 1400 933"><defs/><filter id="a"><feGaussianBlur stdDeviation="12"/></filter><rect width="100%" height="100%" fill="#433e33"/><g filter="url(#a)"><g fill-opacity=".5" transform="translate(2.7 2.7) scale(5.46875)"><circle r="1" fill="#fffffc" transform="matrix(163.27166 22.18473 -19.96288 146.91968 133.7 90.5)"/><circle r="1" fill="#fff" transform="matrix(-10.96574 -29.64424 48.79308 -18.0491 237 66.2)"/><ellipse cx="41" cy="9" fill="#ffffdf" rx="84" ry="47"/><ellipse cx="107" cy="106" fill="#4e4113" rx="22" ry="77"/><circle r="1" fill="#fbffff" transform="matrix(21.48978 2.29952 -5.9863 55.94396 18.1 97)"/><ellipse cx="251" cy="15" fill="#fff" rx="18" ry="101"/><ellipse cx="81" cy="161" fill="#524d24" rx="68" ry="18"/><path fill="#fff" d="M201.5 24.1L213.3-16H161l2 47.5z"/><path fill="#444225" d="M150 36l78 17 7-33z"/><path fill="#2b5b00" d="M18.9 115.8l-37 1.3-.8-23 37-1.2z"/><circle r="1" fill="#ffe42c" transform="matrix(-23.9853 20.341 -5.80945 -6.85026 136.9 78.2)"/><path fill="#605a45" d="M130 135l57-97-16 100z"/><circle r="1" fill="#211209" transform="rotate(-131.7 72 10.5) scale(14.49883 21.38355)"/><circle r="1" fill="#665e33" transform="matrix(31.36447 28.6397 -9.26254 10.14378 71.7 88.4)"/><circle r="1" fill="#fff" transform="matrix(-12.5237 -24.6394 16.49436 -8.38374 205 74.6)"/><path fill="#bfc880" d="M181-16L35 54l51 23z"/><path fill="#fff" d="M93.2 136.8l-4.7-20.9-19.3-2.4 2.3 24.8z"/><circle r="1" fill="#fff" transform="matrix(-11.31196 -1.75118 8.49617 -54.88194 26.7 39.7)"/><ellipse cx="248" cy="130" fill="#d2d6bf" rx="37" ry="48"/><path fill="#d3d2d5" d="M138.7 136.5L95 109.8l19.7 37 7.3-36.2z"/><path fill="#a49964" d="M184 222l-74.7-65 42.7-49 74.7 65z"/><path fill="#7e4920" d="M45 0h9v35h-9z"/><path fill="#fff" d="M230.8.7l11.7 69.5 28.5 30.2L254.7-16z"/><path fill="#faebb0" d="M144 37h21v49h-21z"/><path fill="#f4f1e6" d="M167 111h59v10h-59z"/><path fill="#373d22" d="M194.4 105.5l-8.7-19.8-17.1 16.2 59.7-.3z"/><circle r="1" fill="#2c2a23" transform="matrix(6.74058 7.41376 -6.95913 6.32723 175.9 60.9)"/><circle r="1" fill="#f9f6e8" transform="rotate(109.7 74.3 90.4) scale(4.89559 31.05531)"/><path fill="#fff" d="M205.2 11.2l-40.8 3.6-1.6-18 40.8-3.6z"/><path fill="#ffc80c" d="M135.8 87.8l-6.9-24.6 41.8-6.7-21.1 14.2z"/><path fill="#5a6e45" d="M236.4 14.8L196.3 3.7 211-9.8l9.1 69.4z"/><path fill="#fff" d="M143 126l20-10h-21z"/><circle r="1" fill="#f6efe4" transform="rotate(142 52.6 18.1) scale(65.19249 17.60382)"/><path fill="#3e423e" d="M0 155h71v9H0z"/><circle r="1" fill="#4d4b40" transform="matrix(1.13562 5.24298 -74.69976 16.17986 83 145.6)"/><circle r="1" fill="#f1f7ff" transform="matrix(-7.3629 9.20374 -24.03348 -19.22653 21 83)"/><path fill="#534b37" d="M72 96h51v20H72z"/><path fill="#688d46" d="M8 30.4l3.8 30.8L-8 63.6l-3.8-30.8z"/><ellipse cx="137" cy="41" fill="#abb370" rx="24" ry="19"/><path fill="#e1e7e3" d="M44.1 137.7l-16.8 14.2 32.3-7.6-8.4-10.7z"/><path fill="#e8ecf7" d="M166.7 84.7l-28.7-4 22.8-13.9 16.1 32.4z"/><circle r="1" fill="#64654b" transform="matrix(-34.71694 18.77138 -3.38085 -6.25274 153.4 169.2)"/><path fill="#595921" d="M178.3 103.1l43.4 3.1-2.5-4.3-15.1-3.8z"/><path fill="#2e0700" d="M28 135h11v8H28z"/><path fill="#f0f3f4" d="M29 148l4-55-42 64z"/><circle r="1" fill="#47484d" transform="matrix(3.4425 4.31662 -16.31538 13.01148 148.6 110.3)"/><path fill="#ccc59a" d="M122 137h51v16h-51z"/><path fill="#a3a69d" d="M53 120.7L91.9 94l-24.6-7.3-34.2-5.5z"/><path fill="#75954e" d="M109 33l-36 3 35 21z"/><path fill="#fff" d="M10 14h27v22H10z"/><ellipse cx="91" cy="56" fill="#e5e1d8" rx="11" ry="7"/><path fill="#51432f" d="M154.9 132.3l18.4-24.9-26.4-6.9 34.7 33.7z"/><path fill="#6b4f3d" d="M187.1 109.4l8.2 17.4-.6-17.6-23-40.1z"/><path fill="#f8fbf9" d="M188 61h43v35h-43z"/><path fill="#4a211d" d="M103 108l23 29-25-64z"/><ellipse cx="16" cy="169" fill="#dae1e9" rx="15" ry="6"/><path fill="#74923c" d="M-3 13L-8.5-9.1l15.5-4 5.5 22.3z"/><path fill="#feffff" d="M116.2 129.9l-13.9-18.4 2 20 16.2-1.4z"/><path fill="#869767" d="M122.7 114.1l-14.1-29.8 14.5-1.5 28.6 11.1z"/><path fill="#564f49" d="M60.1 139.8l-8.9-11.3 15.6-4.7 2.6 14.6z"/><ellipse cx="205" cy="136" fill="#b2ae86" rx="39" ry="14"/><path fill="#606744" d="M220 170l-25-2.1 1-12 25 2.2z"/><path fill="#b6c1af" d="M161 47h75v7h-75z"/><path fill="#b4b77f" d="M68.3 185l2.3-27.1 4.1-8.9 14.5 1.5z"/><path fill="#eaae91" d="M138.9 86.2l9.3 16.1 18.5 21.1-24.4-17.7z"/><path fill="#312829" d="M113.2 83.6L99.6 59l19.2-10.7L132.4 73z"/><path fill="#bbc0b6" d="M168.6 81.5l-52.1 36.4 24.4 29.4-13-22.7z"/><path fill="#4e3c28" d="M108.7 185l-24.2-16.4 16.2-45.7 3.5.5z"/><path fill="#48432f" d="M66.4 86l-23.5-8.5 2.7-7.5 23.5 8.5z"/><path fill="#2a211c" d="M185 65l-13-13 1 28z"/><path fill="#fef4ee" d="M112.4 39.6l-15-51.2 13 12.2 10.2 10z"/><path fill="#a79975" d="M37 39l-6 21 68 21z"/><path fill="#99acb7" d="M165 115.6l.5-33-15.3-4.9 28 6.5z"/><path fill="#f2f4f3" d="M242.6 163.3L230.2 177l40.8-7.9-15.6-15.6z"/><path fill="#f3c634" d="M118 81l23 6 13-29z"/><path fill="#fff" d="M250.5-30.4l9.7 61.2-22.7 3.6-9.7-61.2z"/><circle r="1" fill="#fff" transform="rotate(166.6 91.8 12.6) scale(21.02079 11.28399)"/><path fill="#0d0f0f" d="M186 43h18v4h-18z"/><circle cx="179" cy="113" r="7" fill="#f8fef7"/><circle r="1" fill="#814f3a" transform="rotate(42.3 26.5 68.6) scale(7.0294 9.89131)"/><ellipse cx="231" cy="69" fill="#8dafa0" rx="2" ry="57"/><path fill="#9d9681" d="M225 59l-38-24 22-6z"/><path fill="#e3e3ec" d="M2 46l29-8 8 19z"/><path fill="#371a1f" d="M160.2 33.5l30.6-4.9 1 6-30.6 4.8z"/><path fill="#d4d4d4" d="M160.6 118.9l-12.9-2.7-12 13.8 15.5-1.9z"/><path fill="#647347" d="M216.3 5l-6.2 41.5 23.5-35.4-61-18z"/><path fill="#d6ddcf" d="M91.3 139.9l-35.4-.2 6.9 7 24.5-37.3z"/><path fill="#657164" d="M11.3 93.7L-16 85.5 20.2 105l-1.1-11.3z"/><path fill="#9f8c63" d="M114 133h18v37h-18z"/><circle r="1" fill="#58312c" transform="matrix(4.71821 -1.08928 7.28655 31.56152 98.8 130.2)"/><circle r="1" fill="#fdffff" transform="matrix(6.8727 -9.22038 3.01282 2.2457 152 77)"/><path fill="#dfe7f1" d="M136 54h32v4h-32z"/><path fill="#fcfcfd" d="M185 56h33v26h-33z"/><path fill="#b7bcad" d="M210.5 111.6L180.7 182l2.3 3 30.1-40.4z"/><path fill="#b0af75" d="M126 0h34v48h-34z"/><path fill="#dfe1d3" d="M204.6 103.6l-.2 15-11-.2.2-15z"/><circle r="1" fill="#2b2013" transform="matrix(.64104 2.04558 -12.70095 3.98024 153.9 130)"/><path fill="#dbddd0" d="M242.3 116.6l13.9-19.9-60.8.8-14.3-24.8z"/><path fill="#3f4a4e" d="M133.6 115.3l33-.8 15.1-34.1-7.8 34.2z"/><circle r="1" fill="#a49975" transform="rotate(-75.8 200.1 -100.8) scale(3.36085 42.50117)"/></g></g></svg>