<svg xmlns="http://www.w3.org/2000/svg" viewBox="0 0 1300 867"><defs/><filter id="prefix__a"><feGaussianBlur stdDeviation="12"/></filter><rect width="100%" height="100%" fill="#913507"/><g filter="url(#prefix__a)"><g transform="translate(2.5 2.5) scale(5.07813)"><circle cx="128" cy="70" r="165" fill="#fff" fill-opacity=".5"/><circle cx="108" cy="75" r="183" fill="#f7ffff" fill-opacity=".5"/><path fill="#6a1800" fill-opacity=".5" d="M-16 92l146 35-42-43z"/><circle r="1" fill="#651500" fill-opacity=".5" transform="matrix(1.75427 11.87992 -60.29826 8.90407 182.9 71.5)"/><ellipse cx="51" cy="23" fill="#fff" fill-opacity=".5" rx="209" ry="49"/><circle r="1" fill="#e1f7ff" fill-opacity=".5" transform="matrix(19.89339 40.78749 -112.60588 54.92156 170 144.7)"/><path fill="#320000" fill-opacity=".5" d="M109 132l-23-14 39-16z"/><ellipse cx="53" cy="135" fill="#e4faff" fill-opacity=".5" rx="43" ry="32"/><circle r="1" fill="#feffff" fill-opacity=".5" transform="matrix(76.86048 5.22366 -2.14714 31.59289 51 55.8)"/><path fill="#822900" fill-opacity=".5" d="M123 74l46 9-43-28z"/><path fill="#f7ffff" fill-opacity=".5" d="M271 0L-16-1l13 98z"/><path fill="#833100" fill-opacity=".5" d="M171 57h68v14h-68z"/><path fill="#9d4300" fill-opacity=".5" d="M0 98h95v7H0z"/><ellipse cx="206" cy="87" fill="#d3dddd" fill-opacity=".5" rx="36" ry="15"/><path fill="#510d00" fill-opacity=".5" d="M115 124l-19 6-16-45z"/><path fill="#590900" fill-opacity=".5" d="M244 63l-10 8h20z"/><ellipse cx="15" cy="139" fill="#e1e8ec" fill-opacity=".5" rx="87" ry="35"/><path fill="#eaf8fa" fill-opacity=".5" d="M-11.1 115.6l6.7 5.7.6-45.2 30.5 7.2z"/><path fill="#af550e" fill-opacity=".5" d="M16 87h72v17H16z"/><ellipse cx="157" cy="59" fill="#f6ffff" fill-opacity=".5" rx="15" ry="10"/><path fill="#8a3c08" fill-opacity=".5" d="M180.7 80l-2.2-21.9L142.3 82l11.3 6.8z"/><ellipse cx="183" cy="23" fill="#f1f8fe" fill-opacity=".5" rx="255" ry="33"/><ellipse cx="107" cy="78" fill="#e8f1f3" fill-opacity=".5" rx="17" ry="27"/><path fill="#915932" fill-opacity=".5" d="M126.4 81.3l4.8 1.5-13.6 41.9-4.8-1.5z"/><path fill="#dae1dd" fill-opacity=".5" d="M57 105h28v16H57z"/><circle r="1" fill="#e4f9ff" fill-opacity=".5" transform="rotate(143 93.8 125.3) scale(84.46835 14.37804)"/><path fill="#d8e0e3" fill-opacity=".5" d="M127.8 81.8l26.5 5.2-8 41.2-26.6-5.2z"/><ellipse cx="154" cy="39" fill="#eef1f0" fill-opacity=".5" rx="26" ry="31"/><path fill="#fafbff" fill-opacity=".5" d="M5 0h98v87H5z"/><path fill="#f0f3f2" fill-opacity=".5" d="M113.6 127.6l16.4-18.3.1 36.3-48-7.3z"/><path fill="#582600" fill-opacity=".5" d="M80.4 107.9l27 15.8-19-37.2-3.6 13.4z"/><circle r="1" fill="#dfe8e7" fill-opacity=".5" transform="matrix(19.9192 -3.6918 6.7272 36.29669 246 30.4)"/><path fill="#9d5727" fill-opacity=".5" d="M152.3 87.4L123.7 71l6-10.3L158.3 77z"/><path fill="#7b2b00" fill-opacity=".5" d="M124 94l-5 25-14 6z"/><path fill="#e2e4e3" fill-opacity=".5" d="M97.8 185l-9.3-72.2-6.7-6.2-97.8 56.2z"/><path fill="#aa9181" fill-opacity=".5" d="M123 76h17v16h-17z"/><path fill="#ecf1f2" fill-opacity=".5" d="M36.5 71.4L-16 121.7l15.7 13.8-9.1-93.2z"/><ellipse cx="244" cy="103" fill="#d9dcdc" fill-opacity=".5" rx="93" ry="31"/><path fill="#925024" fill-opacity=".5" d="M243.4 63.5l6.8 7.4-112 3.7 71.9-17z"/><path fill="#89431c" fill-opacity=".5" d="M179.1 77.8l-9.3-5.8 11.1-17.8 9.3 5.8z"/><path fill="#a65b25" fill-opacity=".5" d="M21 86l61 10-80 9z"/><circle r="1" fill="#c1b9a0" fill-opacity=".5" transform="matrix(4.41994 -3.38473 5.75097 7.5099 105.7 102.3)"/><path fill="#8b5833" fill-opacity=".5" d="M234.9 70.8l-10.7 7 7.2-24.4 15.7 15.4z"/><path fill="#602400" fill-opacity=".5" d="M95 110h19v18H95z"/><circle r="1" fill="#e2e3e4" fill-opacity=".5" transform="matrix(5.34718 -26.0428 35.4727 7.28336 158.4 114)"/><ellipse cx="107" cy="66" fill="#eeeeed" fill-opacity=".5" rx="18" ry="30"/><path fill="#eaeded" fill-opacity=".5" d="M132.5 126.2l-28.9 35.9-18.3-43.4 16.3 12.3z"/><ellipse cx="16" cy="143" fill="#dfe2e2" fill-opacity=".5" rx="64" ry="39"/><circle r="1" fill="#eaedec" fill-opacity=".5" transform="matrix(15.25742 -33.3251 40.98123 18.76267 209.8 19.2)"/><path fill="#cacbc2" fill-opacity=".5" d="M30 105h49v10H30z"/><path fill="#abad9f" fill-opacity=".5" d="M204 84l-11-13 29 1z"/><path fill="#95491f" fill-opacity=".5" d="M150 71h19v16h-19z"/><path fill="#541f00" fill-opacity=".5" d="M92.1 103.2l23.6 13.1-5.8 10.5-23.6-13.1z"/><path fill="#a65a25" fill-opacity=".5" d="M101 130.4l-1.1-5.8 20.9-3.6-8.5 7.6z"/><path fill="#d1d3d0" fill-opacity=".5" d="M175.5 80.2L271 69.6l-27.1-12.9 27.1 51.6z"/><path fill="#b57448" fill-opacity=".5" d="M61.2 106l-51.3-.7L40 95.9l45.4 7.5z"/><path fill="#9e592c" fill-opacity=".5" d="M126 69l33 12-32-26z"/><path fill="#f3f5f6" fill-opacity=".5" d="M180.6 18.2L90 84.2l9.8 12.3-49.7-41.2z"/><path fill="#ae5f2a" fill-opacity=".5" d="M5.5 103.4l83.7-17.9-6 7.5-11 9.1z"/><path fill="#eef0ee" fill-opacity=".5" d="M106.2 43.9L271-12.6 197.8 48 150 70.1z"/><path fill="#f8fbfc" fill-opacity=".5" d="M50.7 87.3l15.4.4 20.8-2.5L-16-16z"/><ellipse cx="199" cy="64" fill="#98552f" fill-opacity=".5" rx="29" ry="8"/><path fill="#e4e6e6" fill-opacity=".5" d="M-16 171.2l287-2L121.8 116l-10.3 18.1z"/><circle r="1" fill="#e0e3e3" fill-opacity=".5" transform="matrix(20.04458 18.39924 -11.15863 12.15648 252.8 50.3)"/><path fill="#cdc6bd" fill-opacity=".5" d="M142.2 81l6.1 8-20.5 16-6.1-8z"/><path fill="#e1e0db" fill-opacity=".5" d="M93.9 95L127 50.6l-10.8 57-30-27.7z"/><path fill="#8b4924" fill-opacity=".5" d="M171.7 84.5L158 71.4l19.5-10.5 12.9 8.6z"/><path fill="#451b01" fill-opacity=".5" d="M109.3 118l-20-24 10.6 22.9 19-9.8z"/><path fill="#c7c8bf" fill-opacity=".5" d="M187 72l20 14h-37z"/><path fill="#ada083" fill-opacity=".5" d="M92 90l9 7v10z"/><path fill="#996645" fill-opacity=".5" d="M121.6 107.4l-1-.1 3.8-26.7 1 .1z"/><circle cx="76" cy="116" r="11" fill="#dbdcda" fill-opacity=".5"/><path fill="#8d512c" fill-opacity=".5" d="M241.2 64.3l-15.4 11.1-7-9.7 15.4-11.1z"/><path fill="#72320e" fill-opacity=".5" d="M103.7 128.2l-10.2-2.7-10.7-23.2 7-15.3z"/><path fill="#d8dbd9" fill-opacity=".5" d="M221.9 69.6l38.4 40.8-3.6-53-17.4 71.8z"/><path fill="#e9ebea" fill-opacity=".5" d="M83.9 148.8l.2-37.2 15.1 20.8 38.2-9.1z"/><path fill="#dfdede" fill-opacity=".5" d="M221.9 71.4l9 6.1-12.8 19.1-9-6.1z"/><path fill="#ebf0ef" fill-opacity=".5" d="M-2 94.6l23-19.3 5 6.1-23 19.3z"/><path fill="#83390a" fill-opacity=".5" d="M121 107l-14 14 8 4z"/><path fill="#a25e2d" fill-opacity=".5" d="M19.1 103.6l30.3-10.7-29.2-7.1-11.6 18.3z"/><path fill="#cdc2b2" fill-opacity=".5" d="M107 102h8v6h-8z"/><path fill="#aaa193" fill-opacity=".5" d="M184.3 74.2l2.7 6.5 21.7-2.1 14.3-7.1z"/><circle r="1" fill="#fbfdff" fill-opacity=".5" transform="matrix(16.84112 -24.57408 35.96391 24.6468 33.3 23.5)"/><circle r="1" fill="#e1e3e3" fill-opacity=".5" transform="matrix(-20.23132 15.76167 -21.26736 -27.29829 185.2 115.3)"/><path fill="#f4f5f6" fill-opacity=".5" d="M118.2 65.9l34.4-38.5L-3 81l83.6 7z"/><path fill="#e7eae9" fill-opacity=".5" d="M90.1 145.9l-.7-19.5 47.3 14.4-11.1-23.4z"/><path fill="#955229" fill-opacity=".5" d="M171.9 85.1l6.7-30.1 22.2 15.1-48.6 11.8z"/><path fill="none" stroke="#9a623d" stroke-opacity=".5" stroke-width=".5" d="M255 72.6q-36.4-1.6-79.6-8.2"/><circle cx="157" cy="49" r="19" fill="#eff0ef" fill-opacity=".5"/><path fill="#934a22" fill-opacity=".5" d="M135 67l32 16 5-11z"/><path fill="#813e1d" fill-opacity=".5" d="M83.3 100.1l-5.7 4.3 14.7 5.4-3-21.4z"/><path fill="#894c1e" fill-opacity=".5" d="M245 65l-8 2 16 5z"/><path fill="#a48e75" fill-opacity=".5" d="M83.9 83.1l6 5.2 13.9 23.4 7.2-1.6z"/><path fill="#e1e3e2" fill-opacity=".5" d="M0 113h88v57H0z"/><path fill="#7e3f18" fill-opacity=".5" d="M89.7 92.7l-5-6.2 1.6-1.2 5 6.2z"/><path fill="#c4c7c0" fill-opacity=".5" d="M34 105h30v5H34z"/><path fill="#a95b29" fill-opacity=".5" d="M24 88h63v8H24z"/><path fill="#c7bdb5" fill-opacity=".5" d="M24 86.5h8v1h-8z"/><path fill="#9b5831" fill-opacity=".5" d="M136 77l30 3-40-23z"/><circle r="1" fill="#965826" fill-opacity=".5" transform="matrix(9.1552 -4.2303 .782 1.69241 11.7 100.8)"/></g></g></svg>