<svg xmlns="http://www.w3.org/2000/svg" viewBox="0 0 805 1400"><defs/><filter id="a"><feGaussianBlur stdDeviation="12"/></filter><rect width="100%" height="100%" fill="#5f4931"/><g filter="url(#a)"><g fill-opacity=".5" transform="translate(2.7 2.7) scale(5.46875)"><circle r="1" fill="#f7ecc3" transform="rotate(4.9 -1200.2 904.7) scale(146 124.67261)"/><circle r="1" fill="#e4d6b0" transform="rotate(.6 -12600 9755) scale(143.36843 32.43535)"/><circle r="1" fill="#8e7c5b" transform="matrix(-5.76271 49.0556 -112.41638 -13.20589 92.6 236)"/><circle r="1" fill="#7c6345" transform="rotate(-178.5 18.8 8.4) scale(104.46157 19.91288)"/><path fill="#6a5435" d="M40 224h77v14H40z"/><ellipse cx="143" cy="122" fill="#d6c7a4" rx="76" ry="30"/><circle r="1" fill="#9b8c6d" transform="rotate(-78.1 196.8 18.5) scale(21.32067 52.58487)"/><ellipse cx="43" cy="63" fill="#998b71" rx="50" ry="32"/><ellipse cx="11" cy="212" fill="#958668" rx="75" ry="17"/><ellipse cx="130" cy="6" fill="#9b8668" rx="81" ry="37"/><ellipse cx="12" cy="128" fill="#b6a988" rx="31" ry="33"/><ellipse cx="4" cy="25" fill="#7c6545" rx="90" ry="8"/><ellipse cx="122" cy="162" fill="#bcac88" rx="96" ry="12"/><ellipse cx="52" cy="85" fill="#95866a" rx="73" ry="8"/><path fill="#bcac90" d="M128 44h19v39h-19z"/><ellipse cx="84" cy="99" fill="#b6a889" rx="146" ry="7"/><path fill="#aa9a7b" d="M152.6 193.1l-35.4-3.3 44.8 37.3-34-3.8z"/><ellipse cx="49" cy="70" fill="#afa080" rx="69" ry="10"/><path fill="#665133" d="M58 225h28v25H58z"/><ellipse cx="113" cy="237" fill="#826d4e" rx="27" ry="15"/><path fill="#a09170" d="M0 212h52v12H0z"/><path fill="#887553" d="M0 243h57v11H0z"/><ellipse cx="105" cy="207" fill="#8e7e61" rx="130" ry="5"/><path fill="#b7a486" d="M88.3-10L110-6.8 107.7 10 86 7z"/><path fill="#a49575" d="M0 167h88v28H0z"/><path fill="#877354" d="M38.2 32.6L4.4-9.2l-20.4 46 40.4 6.3z"/><circle r="1" fill="#947f60" transform="matrix(-17.95325 -14.95808 6.4966 -7.79746 70.8 26.4)"/><path fill="#988265" d="M104-14l44 24-27 31z"/><path fill="#bdac85" d="M72 142l-56 17 81 2z"/><path fill="#d4c5a1" d="M157 173l-87-73h79z"/><path fill="#7a6545" d="M0 225h61v16H0z"/><path fill="#b3a384" d="M108 20l10 51-23 32z"/><path fill="#8b7a5e" d="M46 79h19v13H46z"/><path fill="#a79472" d="M66-16L35 14l-5-27z"/><path fill="#786040" d="M11.8 21.1l-4.6.3 35.9 1.4-37.4 8z"/><path fill="#cfbe99" d="M78 127h51v29H78z"/><path fill="#59482f" d="M33 254h53v2H33z"/><path fill="#8e8168" d="M54 53h27v8H54z"/><path fill="#a99476" d="M127 12h19v14h-19z"/><ellipse cx="130" cy="234" fill="#6d583c" rx="69" ry="3"/><path fill="#a79675" d="M70 208h39v9H70z"/><path fill="#8e7b5c" d="M80 219h55v5H80z"/><path fill="#b3a78c" d="M32 166h7v27h-7z"/><path fill="#9b8d72" d="M7 31l22 5v61z"/><path fill="#b9ab8c" d="M145 152l14 28-38 1z"/><path fill="#867355" d="M96 237h47v8H96z"/><path fill="#857251" d="M59 199h9v14h-9z"/><path fill="#ac9f82" d="M6.8 58.5L10.4 95-16 32.4l36.6 20.5z"/><path fill="#8a7153" d="M116 7h31v4h-31z"/><circle r="1" fill="#cfc09c" transform="rotate(29.1 -213.3 185.8) scale(7.12652 30.78914)"/><path fill="#9c8b6d" d="M78 100L57 78l24-17z"/><path fill="#bbac8a" d="M87.7 180.5l.6-7 22 2-.6 7z"/><path fill="#aa9d81" d="M32.6 98.4l6.7-48 25.5 23.1H45.5z"/><path fill="#9e8b6f" d="M93.4 42.9l-9-7.5 57.3 5-40.2-20.5z"/><path fill="#ad9e7c" d="M66.7 203.6l-.1-26.3-15.8-25.2L75.4 199z"/><path fill="#897558" d="M118 0h4v42h-4z"/><path fill="#a89877" d="M49 207l-7-2 18-19z"/><path fill="#816b4d" d="M75 24h13v11H75z"/><path fill="#8c7a5c" d="M108 175h14v3h-14z"/><ellipse cx="115" cy="187" fill="#96866a" rx="32" ry="3"/><path fill="#a08c6c" d="M61-7.2L41.4-16l13.8 33.5L77 12.9z"/><path fill="#aa9c7d" d="M74 102l45.5-13.2-54.4 3.6-81.1 2.5z"/><path fill="#baab8e" d="M141 89l-20 15-24-8z"/><path fill="#948567" d="M-15.5 245.3v-1l43-1.6v1z"/><path fill="#7d6647" d="M43 8h6v20h-6z"/><path fill="#c8bb9c" d="M29 96h8v19h-8z"/><path fill="#a89a7c" d="M139 207h8v13h-8z"/><ellipse cx="123" cy="81" fill="#71624d" rx="5" ry="1"/><path fill="#8a785a" d="M121 209l-2 7-22-16z"/><ellipse cx="140" cy="18" fill="#7f684e" rx="33" ry="1"/><path fill="#897758" d="M19 219h33v11H19z"/><path fill="#b8ab87" d="M-16 157l44-21 5 24z"/><path fill="#654c2b" d="M55 240h33v5H55z"/><path fill="#aea07f" d="M83 213l-19 2 16 4z"/><path fill="#cfbe96" d="M64 100h38v37H64z"/><path fill="#a49677" d="M37.8 161.3l-53.8-2.2 14.9 46.1 24.9-12.3z"/><path fill="#7d6a4c" d="M86.5 249.4l-19.6 8.2 10.3-14.1L156 271z"/><ellipse cx="4" cy="215" fill="#a89877" rx="65" ry="2"/><path fill="#918364" d="M46.4 176.6l3.8 1.3-8.6 23.5-3.8-1.3z"/><path fill="#a4967a" d="M91.5 32L22.2 54.3l11.2 34.5 27.2-38.1z"/><path fill="#6a593c" d="M27 252l-16-7-1 11z"/><path fill="#ada086" d="M50 36h26v2H50z"/><path fill="#867151" d="M81 34.7v1l-46-2.4v-1z"/><ellipse cx="61" cy="163" fill="#ad9e7b" rx="70" ry="2"/><path fill="#87775b" d="M76.9 211.8L75 206l18.1-5.9L95 206z"/><circle r="1" fill="#685335" transform="matrix(55.52041 .66852 -.01204 .99993 29.2 230.8)"/><path fill="#7f7056" d="M23.4 70.9l.1 1-8.9 1.2-.1-1z"/><path fill="#8a7350" d="M159.1 229.2l-18.3 12.1-2.8-17.8-49.8 2.1z"/><path fill="#bdaf92" d="M140 42h7v23h-7z"/><ellipse cx="125" cy="250" fill="#a5936f" rx="7" ry="1"/><ellipse cx="122" cy="87" fill="#98876c" rx="25" ry="2"/><path fill="#c2b18d" d="M38 100h67v6H38z"/><path fill="#a7977b" d="M41 45h97v5H41z"/><circle r="1" fill="#d5c8a5" transform="matrix(5.58087 1.06493 -4.98273 26.11236 106.2 130.6)"/><ellipse cx="88" cy="14" fill="#ab9572" rx="16" ry="2"/><path fill="#725c3e" d="M112.5 255.7l49.5-9.4-35.2 24.6-14.5-48.3z"/><path fill="#b1a384" d="M-16 63.2l24.9-1.5 16.3 6-31.8 15z"/><ellipse cx="119" cy="65" fill="#a89678" rx="27" ry="3"/><path fill="#c5b594" d="M47 71h26v2H47z"/><path fill="#907f61" d="M19 40h43v2H19z"/></g></g></svg>