<svg xmlns="http://www.w3.org/2000/svg" viewBox="0 0 1284 1000"><defs/><filter id="a"><feGaussianBlur stdDeviation="12"/></filter><rect width="100%" height="100%" fill="#282c3c"/><g filter="url(#a)"><g fill-opacity=".5" transform="translate(2.5 2.5) scale(5.01563)"><circle cx="151" cy="61" r="224" fill="#fff"/><circle cx="145" cy="66" r="201" fill="#fff"/><path fill="#ffe100" d="M-9.3 187.3l.6-32 84 1.4-.6 32z"/><circle r="1" fill="#fffbf3" transform="rotate(54.6 67.7 131.2) scale(77.13712 235.03372)"/><path fill="#008b2e" d="M153 84h9v70h-9z"/><ellipse cx="194" cy="109" rx="2" ry="78"/><ellipse cx="38" cy="118" fill="#610000" rx="5" ry="33"/><circle r="1" fill="#fffffe" transform="matrix(-22.07653 -1.73746 11.6406 -147.90775 244.2 107.8)"/><ellipse cx="175" cy="114" fill="#802000" rx="4" ry="37"/><circle cx="112" cy="45" r="10" fill="#605d58"/><ellipse cx="134" cy="122" fill="#fffffe" rx="19" ry="36"/><ellipse cx="158" cy="171" fill="#c99e91" rx="40" ry="16"/><ellipse cx="216" cy="116" fill="#a37216" rx="5" ry="35"/><path fill="#5f584b" d="M223.5 35.2l5.9 17-19 6.6-5.8-17z"/><path fill="#fffbf3" d="M168 205l74 9-33-69z"/><ellipse cx="111" cy="119" fill="#c59530" rx="5" ry="34"/><ellipse cx="74" cy="119" fill="#f1efeb" rx="33" ry="37"/><ellipse cx="47" cy="193" fill="#fffffb" rx="173" ry="7"/><ellipse cx="31" cy="171" fill="#ffd423" rx="47" ry="15"/><path fill="#c4a49c" d="M76 156h118v30H76z"/><path fill="#00a472" d="M153 86h9v62h-9z"/><path fill="#f2f0ef" d="M125 0h67v88h-67z"/><ellipse cx="203" cy="106" fill="#fdfaf5" rx="7" ry="107"/><path fill="#020b22" d="M193 37h4v103h-4z"/><circle r="1" fill="#fbf6f1" transform="matrix(-16.37739 -28.79116 11.49332 -6.5378 229.2 89.1)"/><ellipse cx="186" cy="125" fill="#fffffb" rx="6" ry="38"/><ellipse cx="86" cy="11" fill="#f3f1f0" rx="255" ry="24"/><path fill="#935228" d="M173 89h7v58h-7z"/><path fill="#b2afae" d="M32 38h14v41H32z"/><ellipse cx="176" cy="57" fill="#b3b0ae" rx="8" ry="21"/><path fill="#975d27" d="M34 87h8v64h-8z"/><ellipse cx="166" cy="115" fill="#fdfdf5" rx="5" ry="43"/><ellipse cx="77" cy="153" fill="#fffcef" rx="110" ry="3"/><path fill="#efeded" d="M0 73h35v78H0z"/><path fill="#8f8b85" d="M231.8 57.5l-31.5-.7 16.5-21.6 9.6 5.3z"/><path fill="#a4864e" d="M211 89h8v64h-8z"/><ellipse cx="202" cy="131" fill="#eceae9" rx="7" ry="83"/><ellipse cx="195" cy="51" fill="#242939" rx="2" ry="21"/><path fill="#cecccb" d="M129.8 49.4l-4.9 11.4L107.1 92l-8.8-43.6z"/><circle r="1" fill="#edeae4" transform="matrix(33.58647 16.30872 -10.49086 21.60507 242 22.2)"/><path fill="#884b24" d="M172 137h8v14h-8z"/><path fill="#00a473" d="M154 94h8v54h-8z"/><path fill="#e8e7e6" d="M42 55h64v98H42z"/><circle cx="224" cy="184" r="33" fill="#eae8e2"/><circle r="1" fill="#e6e5e3" transform="matrix(-1.14162 -19.12171 6.51832 -.38916 214 71)"/><ellipse cx="194" cy="145" fill="#00041b" rx="2" ry="20"/><circle r="1" fill="#f0edea" transform="matrix(-5.63442 41.67303 -17.32491 -2.34242 134.4 106.6)"/><path fill="#f2f0ee" d="M191.2 77l1.2 24-7.4-12.3-45.7-6.9z"/><circle r="1" fill="#f4f2f1" transform="matrix(-5.85419 36.52815 -20.85434 -3.34222 80.8 36.5)"/><ellipse cx="179" cy="195" fill="#eae7e2" rx="255" ry="10"/><path fill="#f3f0ee" d="M215.8 196.4L230 44.2l-26.1-21.8L271 43z"/><path fill="#c8b2ae" d="M79 157h112v25H79z"/><path fill="#b2b4ab" d="M58 61h2v85h-2z"/><path fill="#f6d63c" d="M31 156h44v30H31z"/><circle r="1" fill="#918d8a" transform="rotate(163.9 56.9 32.5) scale(2.75096 10.83799)"/><path fill="#eae7e4" d="M115.1 149.9l43.4 10-52.2-103.3 9.3-9.1z"/><path fill="#84827b" d="M222 45h7v17h-7z"/><path fill="#c9b07f" d="M107 84h9v20h-9z"/><path fill="#888480" d="M122 44l-23 5 12-16z"/><path fill="#d0d1cf" d="M85.3 149.8l-2-2.8-1.7-68.8 11.7 25.1z"/><ellipse cx="12" cy="70" fill="#eceaea" rx="19" ry="85"/><path fill="#00a373" d="M154 94h6v57h-6z"/><ellipse cx="226" cy="130" fill="#efedeb" rx="7" ry="55"/><path fill="#b99a59" d="M107 134h8v16h-8z"/><circle r="1" fill="#b0b0ad" transform="matrix(-4.41675 -4.57685 3.48295 -3.36112 111.6 73.7)"/><ellipse cx="194" cy="50" fill="#2a2e3e" rx="2" ry="20"/><ellipse cx="192" cy="132" fill="#858284" rx="1" ry="34"/><path fill="#c7b1ad" d="M77 156h112v30H77z"/><path fill="#67635e" d="M212 38h11v9h-11z"/><path fill="#f1ede9" d="M180 77h12v80h-12z"/><ellipse cx="250" cy="11" fill="#e9e7e5" rx="92" ry="27"/><path fill="#a5a19b" d="M204 45h5v20h-5z"/><path fill="#a78c5b" d="M211 120h9v32h-9z"/><path fill="#eae8e8" d="M23 78h168v8H23z"/><path fill="#ebe9e8" d="M198 214l66-91-72 45z"/><path fill="#f5d11c" d="M0 183h73v3H0z"/><path fill="#00a677" d="M154 86h7v47h-7z"/><circle cx="38" cy="71" r="6" fill="#a5a5a6"/><path fill="#eeeceb" d="M87.1 61.4L193 85.3l-87.4-28.2-8 102.8z"/><ellipse cx="211" cy="112" fill="#948e86" rx="1" ry="40"/><ellipse cy="155" fill="#efe299" rx="74" ry="1"/><path fill="#acaaa8" d="M99 44h25v9H99z"/><path fill="#f2f0ef" d="M197.2 72.7l24.9-10.3-9.5 27.9 58.4-30z"/><path fill="#d1b98b" d="M213 87h8v11h-8z"/><circle r="1" fill="#e5e3df" transform="matrix(71.9767 -16.09955 3.99501 17.86063 235.2 191.5)"/><ellipse cx="58" cy="35" fill="#bab6ad" rx="1" ry="21"/><path fill="#eae9e6" d="M0 187h182v12H0z"/><ellipse cx="162" cy="137" fill="#a8c7b5" rx="1" ry="49"/><ellipse cx="10" cy="170" fill="#f2d547" rx="64" ry="15"/><path fill="#c7b2ad" d="M98 156h94v30H98z"/><ellipse cx="38" cy="138" fill="#8f5b3c" rx="5" ry="13"/><path fill="#d0d1ce" d="M58 78h6v72h-6z"/><path fill="#e6e4e1" d="M239.4-14.8l-42.9 79.7.6-26.8L271 16.5z"/><path fill="#f3f1ed" d="M43 136h15v15H43z"/><path fill="#f1efec" d="M93 114h13v36H93z"/><path fill="#e9e7e5" d="M2.3 155.8l32.5-8.3-2.1-41.5L-16 44.5z"/><path fill="#e3e0de" d="M25 78.8L55.2 87l-23.8.1 2.9 39z"/><path fill="#c8b2ac" d="M75 157h62v29H75z"/><path fill="#e8e6e6" d="M-14 150.5l122.3.1 26.7-3.2 35.7 7.5z"/><path fill="#00a371" d="M153 140h9v12h-9z"/></g></g></svg>