<svg xmlns="http://www.w3.org/2000/svg" viewBox="0 0 1400 933"><defs/><filter id="a"><feGaussianBlur stdDeviation="12"/></filter><rect width="100%" height="100%" fill="#2c2c4c"/><g filter="url(#a)"><g fill-opacity=".5" transform="translate(2.7 2.7) scale(5.46875)"><circle cx="163" cy="111" r="205" fill="#dcddd3"/><circle cx="146" cy="84" r="76" fill="#000010"/><circle r="1" fill="#fff" transform="rotate(-88.6 153.1 -96) scale(206.65439 21.97165)"/><ellipse cx="14" cy="82" fill="#fff" rx="19" ry="169"/><circle r="1" fill="#fff" transform="matrix(-.22294 15.36733 -140.89546 -2.04404 118 0)"/><ellipse cx="120" cy="167" fill="#fff" rx="255" ry="11"/><ellipse cx="66" cy="89" fill="#0f122c" rx="35" ry="70"/><ellipse cx="14" cy="112" fill="#fff" rx="19" ry="169"/><ellipse cx="242" cy="77" fill="#fff" rx="19" ry="169"/><ellipse cx="192" cy="142" fill="#00000b" rx="32" ry="15"/><path fill="#141430" d="M148 14h76v87h-76z"/><ellipse cx="129" cy="5" fill="#fff" rx="255" ry="8"/><path fill="#fff" d="M0 157h256v13H0z"/><path fill="#2f304d" d="M115.8 14.1l-82-.1-1.6 51.4 49.6 93z"/><path fill="#ffefd4" d="M138 142l-46-20 42 1z"/><circle r="1" fill="#c0b27c" transform="rotate(-132.5 67.8 19.9) scale(8.16421 32.4037)"/><circle r="1" fill="#fff" transform="rotate(86.3 69.6 182.4) scale(115.47191 22.40658)"/><ellipse cx="8" cy="87" fill="#fff" rx="24" ry="169"/><path fill="#edd49f" d="M43 13l11 33 32 6z"/><path fill="#ffebc1" d="M130.1 29.5l26 .1-29 13.4L117 22.8z"/><path fill="#fde5a9" d="M211.3 48.4l-7.9 6.1-14.7-18.9 7.9-6.1z"/><path fill="#232541" d="M33 127h82v29H33z"/><path fill="#ffd1be" d="M182.7 95.1l37.5 18.1 5.4 22-11.3-15.1z"/><ellipse cx="162" cy="66" fill="#f9e39a" rx="12" ry="6"/><ellipse cx="110" cy="2" fill="#fff" rx="255" ry="11"/><path fill="#fff" d="M248.4 154.6L91.4 185l9.5-37.1-84.3 26.4z"/><path fill="#141933" d="M139 126h81v30h-81z"/><path fill="#0f1439" d="M68 14h151v13H68z"/><path fill="#161d45" d="M50.9 60.5l12.7-21.6 36.3 82.4 64.4-3.8z"/><path fill="#090a2a" d="M207 14h16v63h-16z"/><path fill="#fff" d="M224 0h32v170h-32z"/><path fill="#e4cc76" d="M142.5 87.7l13.2 24.7-24.4-17.3.5-1.7z"/><path fill="#171d3d" d="M33 19h15v135H33z"/><ellipse cx="134" cy="164" fill="#fff" rx="255" ry="8"/><circle r="1" fill="#8c8d52" transform="matrix(-10.7936 -14.74758 8.60877 -6.30067 53 124.3)"/><ellipse cx="9" cy="78" fill="#fff" rx="23" ry="169"/><path fill="#161636" d="M193.2 90.6l30.1-23.3.6 55.7-2-6.1z"/><path fill="#fedccb" d="M71.9 100.3l2.5 10.8 10-8.6 1.2-6.1z"/><path fill="#eeda63" d="M108.3 61.7l11.8 9.2-10.4 13.4-11.8-9.2z"/><path fill="#859223" d="M145 132l51-31-2 18z"/><circle cx="127" cy="130" r="9" fill="#ffd6bb"/><path fill="#20254b" d="M147 44l7 40L36 12z"/><path fill="#bebc59" d="M72.8 59.6l8.4 2.3 1.1-9.8-29.1-24z"/><path fill="#dcc2c8" d="M112 42l29-10-21-5z"/><ellipse cx="113" cy="3" fill="#fff" rx="255" ry="10"/><path fill="#17193d" d="M103 142h120v14H103z"/><path fill="#fff" d="M223.1 153.1l47.9 20L237.5-16 223 125z"/><path fill="#303556" d="M86 156l17-45-69 45z"/><path fill="#f4d2bc" d="M186 99l10-2 14 15z"/><path fill="#f6d3cb" d="M47.7 19.5l1.2 20.2 6.7-4.8 1.4-7.6z"/><path fill="#2b2e52" d="M121.2 111.6L107.3 128l-76.4-10.3 82.6 34.7z"/><ellipse cx="83" cy="29" fill="#2a2d51" rx="24" ry="15"/><path fill="#283b11" d="M223.4 134.2l-9.4 7.3-15.4-19.7 9.4-7.3z"/><path fill="#e3d6b9" d="M-16 109.5l79.8 7.7-5 8.2-4-9z"/><path fill="#202345" d="M142.7 79.6l14.5 46.7 32-47.9-48.4-13.8z"/><path fill="#f0d89c" d="M210.8 48.8l-13.9-7L183 31l7.3 1.8z"/><path fill="#1f2440" d="M177.2 20.3l-86.4 84 67.8 25.3L129 94.1z"/><ellipse cx="128" cy="165" fill="#fff" rx="214" ry="8"/><path fill="#f1cdb7" d="M136 136l-6-17-15 5z"/><path fill="#161a29" d="M199 44l-8-6 8 29z"/><ellipse cx="139" cy="40" fill="#909e46" rx="13" ry="4"/><path fill="#24274b" d="M86 46h73v19H86z"/><path fill="#1a1f43" d="M49 13L35 62l-2-47z"/><path fill="#cebdb7" d="M106.9 127l8.8-11.7-3.4 1.7-16.4 9.6z"/><path fill="#fff" d="M34-1L19 185-16 27z"/><path fill="#d1c630" d="M58 86l3-7 8 3z"/><path fill="#25284d" d="M136 97L88 80l-5 52z"/><path fill="#fbfbfa" d="M79.5 138.2l-30.2 44.7L12 159.4l50.4-1z"/><path fill="#2b3142" d="M149 21h58v13h-58z"/><path fill="#1d203c" d="M217.5 111.4l-47.3-25.7-1.4 24.9 36.3-19.1z"/><path fill="#e4d372" d="M106.7 85.9l-6.6-1.3 20.7-20.4 6.3-.8z"/><path fill="#181d41" d="M39 100l25-4 26 37z"/><path fill="#e2e0c9" d="M188.7 79l-.7-.7L199.3 67l.7.7z"/><path fill="#e8cdc9" d="M169 73l-4-9-14 1z"/><path fill="#7e8496" d="M32 61h1v87h-1z"/><path fill="#f8d853" d="M52.5 137.3l-7.3-5.3 2.3-3.3 7.3 5.3z"/><path fill="#fff" d="M0 0h65v14H0z"/><circle r="1" fill="#f8d2ba" transform="matrix(2.75317 10.20368 -.96547 .2605 147.9 104.4)"/><path fill="#6c6824" d="M113.8 69.6L96 69.5l5.7 15.9 10.9-17z"/><circle cx="128" cy="134" r="7" fill="#ebb9a7"/><path fill="#7c6c17" d="M175.9 121.7l22.8-14-6.4 10.8-18.9 15z"/><path fill="#2c2f50" d="M53 13l12 25 74-25z"/><path fill="#8c844a" d="M170.1 78.8l-8.6-19.7 10 .9 1.5 23.2z"/><ellipse cx="249" cy="33" fill="#fff" rx="26" ry="169"/><path fill="#25284d" d="M105 62L88 87 33 65z"/><path fill="#23263e" d="M192 106.1l-65 8.3 12.4 19.7 7-7.8z"/><path fill="#fffff9" d="M105 168l-34 4 21-24z"/><circle r="1" fill="#9c9c5d" transform="matrix(.60871 -.79339 10.21311 7.83584 193.2 121.1)"/><path fill="#252847" d="M142.9 67.1l22.2 3.9-64.9 42.2-17.5-11.6z"/><path fill="#ece8c8" d="M95 125h3v5h-3z"/><path fill="#2f3b41" d="M38.5 114.3l19.1 9.9 11.8 27.4-18.7-21z"/><path fill="#ffd2ce" d="M80 46l-10-6-1 4z"/><path fill="#738d36" d="M197 31l12 10-10-18z"/><path fill="#26273f" d="M157 131h65v26h-65z"/><path fill="#70845f" d="M153.6 130.9l-.8-1.4-7.7 10.8 33.8-21.2z"/><path fill="#e0bfab" d="M209 106l15 14-35-18z"/><path fill="#21223d" d="M217.5 23l-23.7 66.2 29.3 28.7-1.1-83.2z"/><ellipse cx="101" cy="42" fill="#2b2f53" rx="20" ry="24"/><circle r="1" fill="#e8c123" transform="rotate(162.5 61.4 57) scale(7.61647 1.88961)"/><path fill="#f7b8be" d="M206 53l-1-16-5 16z"/></g></g></svg>