<svg xmlns="http://www.w3.org/2000/svg" viewBox="0 0 1250 1000"><defs/><filter id="a"><feGaussianBlur stdDeviation="12"/></filter><rect width="100%" height="100%" fill="#262a4f"/><g filter="url(#a)"><g fill-opacity=".5" transform="translate(2.4 2.4) scale(4.88281)"><circle r="1" fill="#ffffca" transform="rotate(-80.5 143 -59.5) scale(47.91856 141.56841)"/><circle r="1" fill="#fff4bb" transform="matrix(-8.05136 -24.5003 102.96526 -33.83672 133 100.7)"/><circle r="1" fill="#7ba92f" transform="rotate(-165.1 48 20.5) scale(79.62521 25.25383)"/><circle r="1" fill="#ffded1" transform="rotate(-136.8 130.7 9.4) scale(80.77718 26.55728)"/><ellipse cx="106" cy="141" fill="#494d49" rx="112" ry="26"/><path fill="#000020" d="M97 74l-65-5 28 32z"/><circle r="1" fill="#ffffed" transform="matrix(-3.09253 -9.6362 62.56513 -20.07895 85.5 109)"/><circle r="1" fill="#4e598b" transform="matrix(8.06584 -34.33535 102.43176 24.0626 209.4 22)"/><ellipse cx="174" cy="138" fill="#272d51" rx="31" ry="28"/><circle r="1" fill="#c5ba28" transform="matrix(3.00105 9.23378 -38.65203 12.5622 97 137.6)"/><path fill="#071a4d" d="M255.5 160.4l15.5-27.7-26.1 5-24.3 18.7z"/><circle r="1" fill="#83a250" transform="rotate(-75.3 74.8 -28.2) scale(24.1646 58.86531)"/><path fill="#3d61d2" d="M232 99l39-3-5-105z"/><path fill="#fdf8dc" d="M82 84h90v28H82z"/><path fill="#0d154a" d="M52.8 143.1l-30.6-3.9 11.2-11 102.9-16.3z"/><circle r="1" fill="#ffe0c6" transform="matrix(29.69575 16.32537 -10.89142 19.81143 224.9 115.1)"/><path fill="#354066" d="M155 55l-17-71H-12z"/><path fill="#efe9ca" d="M92.4 79.9l37.1 3.8-73.7 48.1-25.5-6.4z"/><path fill="#ffcfb9" d="M187 112l52-33-88-44z"/><path fill="#1d214e" d="M151 25l96 35-54-4z"/><path fill="#92890e" d="M181.9 105.9l5.3 8.3-79.6 26.4-29.5-3.8z"/><path fill="#cccec1" d="M10 150l17-28-8 32z"/><path fill="#7a974b" d="M151.6 46.1L16 23.4l81 57 74.4 7.5z"/><circle r="1" fill="#2d345b" transform="matrix(28.77393 65.4308 -20.17507 8.87221 14.7 53.8)"/><ellipse cx="182" cy="169" fill="#333b60" rx="39" ry="52"/><circle r="1" fill="#1b254f" transform="matrix(-27.08061 -1.33442 .6714 -13.62526 53.4 82.6)"/><path fill="#fcfdd7" d="M12 149h58v2H12z"/><path fill="#b5af5d" d="M61 138h19v19H61z"/><path fill="#ffffe8" d="M40.6 60.7l-7.7-11.8 2.5-1.6 7.7 11.8z"/><path fill="#ffd7ce" d="M244.8 57.7l-10.2 30.4-30.2-25.8 56.2-2.6z"/><path fill="#0d2478" d="M236 89h15v10h-15z"/><circle r="1" fill="#363d5b" transform="matrix(23.71146 17.44584 -23.39801 31.80133 246 174)"/><circle r="1" fill="#eee8cd" transform="rotate(176.7 67.6 53) scale(45.80264 13.62613)"/><path fill="#192147" d="M28 129L6 164l45-36z"/><path fill="#f8d7c3" d="M271 98l-51 2 5 53z"/><path fill="#7b91c9" d="M248.4 94.6L241.2 63l14.6-27.3L271 72.3z"/><path fill="#86a554" d="M37.7 52.4l122.9 1.7-89.3-31.2-43.5 10.7z"/><path fill="#232a48" d="M-15 186l98 33 90-97z"/><path fill="#34395d" d="M198.5 127.6l-32.5-6.3-80.8 30.6L271 175.8z"/><path fill="#fbf7cf" d="M24.5 120.4l3.5 2.3-12.5 21.4L35.2 120z"/><path fill="#dee0e7" d="M62 139l20-6-21 15z"/><circle r="1" fill="#2f3860" transform="matrix(82.94776 -1.9996 .3877 16.08263 42 8.8)"/><path fill="#323962" d="M35.7 11.3l103.7 33.5 14.1 5.4-4.6-35.9z"/><path fill="#f3cab6" d="M147.5 33.9L229.3 150l-5.1-85.8-39.1-10.8z"/><path fill="#161c41" d="M47 146l40-18-50 5z"/><path fill="#283050" d="M-16 6l15 163 54-95z"/><path fill="#ebe6c6" d="M38 121l20 9 34-50z"/><path fill="#272c4f" d="M117.3 121.1l-98.6 27.5 72.9-31.1 44.4-4.7z"/><path fill="#7b934b" d="M121 57h40v28h-40z"/><circle cx="189" cy="7" r="42" fill="#3f4871"/><path fill="#827c23" d="M143.4 114.6l-77 47.4-1.7-14.3L82.1 136z"/><ellipse cx="21" cy="172" fill="#202742" rx="59" ry="21"/><ellipse cx="211" cy="39" fill="#34395f" rx="27" ry="20"/><path fill="#e5e1c6" d="M183.6 86.5L88 82.6l-53.5 46.6 94.7-19.1z"/><path fill="#eaebd3" d="M13 151.5l19.9-2 .1 1-19.9 2z"/><ellipse cx="46" cy="65" fill="#ffffe9" rx="4" ry="3"/><circle r="1" fill="#2a2f4d" transform="matrix(-13.67612 -10.1028 12.65492 -17.13092 40.5 98.2)"/><circle r="1" fill="#282e5b" transform="matrix(-12.7834 -18.26683 9.10166 -6.36947 16.7 39.4)"/><path fill="#333b64" d="M68-12l102 34-29 24z"/><path fill="#718e45" d="M56 70L22 29l96 47z"/><path fill="#efcab7" d="M172.1 97.8l59.3-19.7 7.6 49.5-19.2 14.5z"/><path fill="#354995" d="M235.8 96.1l-2.3-9.7 10.7-2.5 2.3 9.7z"/><path fill="#f0ceba" d="M268.9 144.4L150.8 46.9l35.3 3.8 17.3 10z"/><path fill="#282e52" d="M87.6 81.1l17.8-1.4-38.5-7.9-35.3 50.6z"/><path fill="#232d56" d="M104 115h33v1h-33z"/><path fill="#85a457" d="M28 25h61v15H28z"/><path fill="#f2eed2" d="M102 96h56v18h-56z"/><path fill="#282e4f" d="M134.5 113.9l-71.7 10.3-1.1 23.6-41.4 1.9z"/><circle r="1" fill="#343a5a" transform="matrix(-7.01549 56.06182 -37.27188 -4.66414 179.3 172.2)"/><ellipse cx="232" fill="#444f7b" rx="97" ry="17"/><circle r="1" fill="#948e2d" transform="matrix(1.62047 3.62277 -26.67766 11.93298 152.5 120.8)"/><path fill="#282e4e" d="M26 128h21v21H26z"/><path fill="#dedabd" d="M41 119l16 12 16-38z"/><path fill="#778e4a" d="M130 77h38v8h-38z"/><circle r="1" fill="#3c4264" transform="matrix(4.81382 2.24472 -11.70507 25.1016 249.7 36.9)"/><path fill="#e6e1c7" d="M92 100.1l3.3-20.7 28.7 4.5-3.3 20.7z"/><path fill="#212849" d="M-7.3 165.8l12.1-45.4 14.5 3.8-12.1 45.4z"/><path fill="#fefcd9" d="M20.8 132.8l.9.5-8.5 15.9-.9-.5z"/><path fill="#5268af" d="M257 62l-7-10-16 33z"/><path fill="#878333" d="M65.1 144.7l-5.5 15.6 128.4-48-82.1 13.2z"/><circle r="1" fill="#d6d0b3" transform="rotate(-108.9 107.5 11.5) scale(1 68.06273)"/><path fill="#f5efd4" d="M180 101l-14-17-25 31z"/><path fill="#363c60" d="M271 120.2l-32.7 32-55.7-27.8 67.1 55.6z"/><path fill="#eee2ca" d="M248.6 51.5l-19.1 42.1 5.9-30.4 5.7-.2z"/><path fill="#f1cab6" d="M150.5 36.5l31.3 20.8 63.5 5.1-66.9 42.7z"/><circle r="1" fill="#262c48" transform="rotate(167.5 96.7 101.6) scale(10.5998 32.20611)"/><circle r="1" fill="#89a357" transform="matrix(3.84801 -11.85757 14.77458 4.79464 146.2 60.2)"/><path fill="#f1cdb8" d="M157.7 38.9l54.1 24.8-44.3 19.4-9.1-31.3z"/><path fill="#76944b" d="M23 26l58 16-36 19z"/><circle r="1" fill="#efd5c2" transform="matrix(11.87711 12.2135 -17.39994 16.9207 243.6 120.7)"/><circle r="1" fill="#2b3152" transform="rotate(-175.2 18.3 45) scale(29.4025 25.16959)"/><path fill="#ffffe7" d="M40.5 57.5l11.8 12.3-.8.7-11.8-12.3z"/><ellipse cx="148" cy="29" fill="#373e68" rx="56" ry="9"/><ellipse cx="177" cy="23" fill="#434c77" rx="16" ry="24"/><path fill="#9b9537" d="M172.5 121.7l-11.1-7.4 17.7-9.5 7.6 6.4z"/><path fill="#1c1e57" d="M18.5 23.8L51 19.2l.4 3L19 26.8z"/><path fill="#262c4a" d="M48 153.7l11.8-2 47.6 67.3L8 151.5z"/><path fill="#e5e0c0" d="M28 120h32v8H28z"/><path fill="#292f51" d="M40 118l-6-60 40 32z"/><circle r="1" fill="#282e4b" transform="matrix(16.77685 24.68638 -40.81624 27.73869 98.1 179.2)"/></g></g></svg>