<svg xmlns="http://www.w3.org/2000/svg" viewBox="0 0 1400 933"><defs/><filter id="a"><feGaussianBlur stdDeviation="12"/></filter><rect width="100%" height="100%" fill="#613f33"/><g filter="url(#a)"><g fill-opacity=".5" transform="translate(2.7 2.7) scale(5.46875)"><circle r="1" fill="#fff" transform="matrix(-22.2277 192.55525 -159.4563 -18.40691 139.3 100.8)"/><circle r="1" fill="#fff" transform="matrix(-51.1645 2.59829 -2.01778 -39.73337 120.6 49.4)"/><circle r="1" fill="#fdffff" transform="matrix(2.26297 33.96276 -98.30238 6.54997 183.5 159.3)"/><circle r="1" fill="#fff" transform="matrix(-87.1017 -118.14188 21.426 -15.79661 237.9 13)"/><circle cx="74" cy="109" r="49" fill="#a35d37"/><circle r="1" fill="#fff" transform="matrix(-10.01593 22.81418 -116.58789 -51.18467 18.2 159.5)"/><circle r="1" fill="#a0522c" transform="matrix(-96.39779 23.28018 -6.04976 -25.05065 51 3)"/><circle r="1" fill="#6d3e25" transform="matrix(-8.16588 -9.6973 28.15491 -23.70864 210.1 117.1)"/><circle r="1" fill="#fff" transform="matrix(.51914 -15.6494 49.18661 1.63169 79 42.2)"/><circle r="1" fill="#f9ffff" transform="matrix(-16.55823 -4.87335 28.72187 -97.58855 242.2 137.3)"/><ellipse cx="184" cy="41" fill="#c07248" rx="24" ry="49"/><circle r="1" fill="#fffffa" transform="matrix(9.04987 -6.85309 42.3421 55.915 143.8 73.8)"/><ellipse cx="41" cy="82" fill="#d8936c" rx="53" ry="31"/><circle r="1" fill="#71442f" transform="matrix(-37.53977 4.52798 -1.91249 -15.85568 120.7 114.7)"/><circle r="1" fill="#85634e" transform="rotate(-138.8 39.5 53.5) scale(54.51752 19.1486)"/><ellipse cx="156" cy="146" fill="#464331" rx="23" ry="5"/><circle r="1" fill="#feffff" transform="matrix(-44.44963 -48.26691 17.94042 -16.52157 233.4 13.5)"/><path fill="#8a4d31" d="M248 65l-58 4 46 32z"/><path fill="#f4f8f1" d="M115 7h46v85h-46z"/><path fill="#fff" d="M176 119.8l4.2 15.5-48.3 12.9-4.1-15.5z"/><circle r="1" fill="#f7d0bc" transform="rotate(48.7 -11.8 262.5) scale(10.07167 47.25431)"/><ellipse cx="139" fill="#2d0900" rx="32" ry="4"/><circle r="1" fill="#e7efeb" transform="rotate(-109.8 158.4 9.2) scale(26.13046 151.5077)"/><path fill="#61422f" d="M43.7 31.9L188.3-16-10.8 40.5l20 5.5z"/><circle r="1" fill="#dfb79f" transform="rotate(-40.4 149.8 -51.7) scale(16.61685 30.5859)"/><path fill="#66483b" d="M61 127h38v29H61z"/><circle r="1" fill="#ecf8f2" transform="rotate(-68.9 107.4 73.7) scale(24.95862 42.73759)"/><path fill="#1f0000" d="M190.9 71.5l-1.6 7.5 21.9-4.3 3-11.3z"/><path fill="#ecf7f4" d="M99.4 146.1l-2.5 22.7 37.8 16.2-14.1-54.2z"/><path fill="#d09979" d="M148 95l-46-25 35 56z"/><path fill="#eef2ee" d="M134 78L26 39 141 1z"/><circle r="1" fill="#d59776" transform="matrix(4.4588 -17.82264 36.84479 9.21768 202.6 49.6)"/><path fill="#3a160a" d="M122 101L89 91l39 29z"/><path fill="#a96552" d="M166 74h21v27h-21z"/><path fill="#21221b" d="M196 134l3-10 29-2z"/><path fill="#f9fdfc" d="M227.9 167.3l-46-42.3 4.4-1.1 55.2 43z"/><path fill="#57503d" d="M118 147h32v5h-32z"/><path fill="#8f593e" d="M177.5-8l24-8-4.8 46.1 23.8 7.1z"/><circle r="1" fill="#cb9177" transform="rotate(-98.3 23.9 -16.1) scale(11.42059 85.03393)"/><path fill="#665746" d="M27.5 118.9l18.4 17.5-46.7-18.5-12.4-38.6z"/><path fill="#62594b" d="M180 138l-36 7 35 5z"/><path fill="#e8feff" d="M190 109l12-34-14 10z"/><path fill="#f0f4f0" d="M61 52l5-29-53 22z"/><path fill="#c38668" d="M46 54l8 102-70-121z"/><path fill="#46210c" d="M170 8l-9-10-16 5z"/><path fill="#ebf0ed" d="M34 158h177v12H34z"/><path fill="#6d3f2e" d="M234.7 87.9l-22.8 23.8 26.3-49.4 7.9.9z"/><path fill="#eef4ee" d="M249.5 152.1L271-16l-70.6 31.6L246.5 59z"/><path fill="#f6faf5" d="M95 152l31-24 24 15z"/><path fill="#40453d" d="M103 152l-15 7-30-13z"/><circle r="1" fill="#4a2b20" transform="matrix(.71294 -2.31372 21.1378 6.51333 92.3 120)"/><path fill="#f2f5f3" d="M164 105L85 56l79 14z"/><path fill="#d39c82" d="M59 135l33 14 14-8z"/><path fill="#36140a" d="M199.2 71.8l15.1-10.2-2.9.1-3.9 20.6z"/><ellipse cx="166" cy="24" fill="#9b6e55" rx="4" ry="45"/><path fill="#dcb096" d="M101 67l-80 1 122 32z"/><path fill="#99aca3" d="M48.6 138.3l21.1 21.1-37.1-11.3-2.4-14.7z"/><path fill="#d2a48c" d="M30.8 56.9l-33.4-6.5 77.7 61 30.1 1.3z"/><path fill="#644c3e" d="M127 127l-34 16 33-38z"/><path fill="#da926f" d="M227.2 100.8l-35 24.5 13.3.1 20.1-18.6z"/><circle r="1" fill="#9d644c" transform="rotate(-82.6 137.1 -48.7) scale(17.91636 2.18115)"/><path fill="#343128" d="M134.6-10L83.2 20.2l17.9-5.8 47.7-21.2z"/><circle r="1" fill="#c48369" transform="matrix(4.53568 3.87383 -31.8497 37.2912 212 92.7)"/><ellipse cx="181" cy="37" fill="#ce9f83" rx="23" ry="18"/><path fill="#f8ffff" d="M163 117h15v18h-15z"/><circle r="1" fill="#733c29" transform="rotate(142.6 88.1 89.6) scale(25.59292 3.25454)"/><circle r="1" fill="#57584f" transform="matrix(.85458 -2.8912 5.8419 1.72674 49.5 149)"/><path fill="#38180f" d="M82 131l15 4-27 1z"/><path fill="#e0e1db" d="M182 7.9l-20.9-.7 3.4 23.3-42.2-25.3z"/><path fill="#a78b78" d="M223.4 101.9l21.4-10.5-.2-22.1h-.4z"/><path fill="#514e44" d="M238 104l-17 24-13-3z"/><path fill="#906450" d="M158.4 105.9l-35.5 3.8 29.6 8.2-11.9-27.4z"/><path fill="#e3e6e3" d="M256.8 75.2l-37.3 66.5-42.3-18.6 79 61.9z"/><path fill="#9f6649" d="M75.3 58.5l-59.9-5.8L-16 13.3l39.7 35.4z"/><path fill="#9b634e" d="M83.6 85.3l15.1 33.4 2.6-33.1 31.2 25.9z"/><path fill="#9ea89a" d="M128 110l27 17-29-3z"/><circle r="1" fill="#cf9177" transform="matrix(13.89505 10.24343 -4.3626 5.9178 63.1 117.5)"/><path fill="#b37b60" d="M231 58.1l1.6 12.6 9.8-16.9-84-69.8z"/><path fill="#dfe0dc" d="M110.6 169.8L216 143.7 58.3 162.2l-.4-9.4z"/><path fill="#f5fdfd" d="M102.4 152.1l-3.1-8.4 10.3-3.8 3.1 8.4z"/><path fill="#c08f72" d="M179 113l-11 5-4-9z"/><ellipse cx="175" cy="66" fill="#d7a991" rx="6" ry="15"/><path fill="#e9e9e5" d="M164 105L147 9 55 26z"/><circle cx="186" cy="135" r="3" fill="#000100"/><ellipse cx="2" cy="105" fill="#362e25" rx="5" ry="6"/><circle r="1" fill="#af7358" transform="matrix(-7.00236 7.56186 -38.48988 -35.64202 23.9 103.6)"/><circle r="1" fill="#b5b5ae" transform="matrix(28.54582 19.61665 -1.39957 2.03663 206.8 155)"/><path fill="#a07562" d="M174.6 97.3l-9.2-58 2.8-24.1-9.3 27.1z"/><path fill="#e9ede6" d="M174.9 140.5l-16.1.5 3.3-31 30.2 54.5z"/><path fill="#272c24" d="M65 147l3 9 19-2z"/><path fill="#dcdbd4" d="M76.2 26l80.2-3-22.9-21.4-14.4 5.9z"/><path fill="#e0b6a8" d="M198 108l-17 15-7-30z"/><path fill="#a5684b" d="M-16 47.6L6.4-16l8.8 31.9L28 35.3z"/><path fill="#d1a289" d="M150.4 97.2l-28.2 6.1-61.6-45.1 61.2 23z"/><path fill="#494337" d="M149.6 150.1l-1.2-3.8 20-6.4 1.2 3.8z"/><path fill="#eceeea" d="M242.1-1.9l-43.3 8.2 1.8 9.2L271 83.2z"/><path fill="#59392c" d="M240 60.7l1.9-5.8.1 14-15.2 23.6z"/><path fill="#8c5c46" d="M148 125l13-13-22-7z"/><path fill="#ebeee9" d="M102.6 148.4l49.5-2.4 26.3-30.4-8.3 6.3z"/><path fill="#693c2e" d="M190 119.6l38.8-22.3-27.9 22.5-1.7 14z"/></g></g></svg>