<svg xmlns="http://www.w3.org/2000/svg" viewBox="0 0 933 1400"><defs/><filter id="a"><feGaussianBlur stdDeviation="12"/></filter><rect width="100%" height="100%" fill="#58402d"/><g filter="url(#a)"><g fill-opacity=".5" transform="translate(2.7 2.7) scale(5.46875)"><circle r="1" fill="#fff" transform="matrix(-66.74068 -14.79605 22.8828 -103.21766 32.8 193.4)"/><circle r="1" fill="#fff" transform="matrix(60.70409 -15.69914 29.92028 115.69314 23.2 218)"/><path fill="#f7ca9d" d="M51.5 5.4L95.3 27l.5 126.7L38.9 48.2z"/><ellipse cx="137" cy="17" rx="48" ry="91"/><circle r="1" fill="#502c10" transform="matrix(27.65818 7.71995 -9.12785 32.70226 52.8 98.1)"/><circle r="1" fill="#fff" transform="matrix(-17.47902 -5.0743 18.77153 -64.66075 70.7 167.5)"/><circle r="1" fill="#5f6173" transform="matrix(-31.85867 .63176 -1.365 -68.83494 119.7 197.7)"/><circle r="1" transform="matrix(16.6346 -.75537 4.11294 90.574 158.6 133)"/><circle r="1" transform="matrix(19.61269 2.72764 -10.87385 78.18666 18.5 22.5)"/><path fill="#fff" d="M94 262.8l-73.6 14.4-10.5-54 73.7-14.4z"/><path fill="#ffa86c" d="M122.7 162.1L104 141.3l19.3-17.4 18.7 20.8z"/><ellipse cx="145" cy="224" fill="#ffbb81" rx="7" ry="42"/><circle r="1" fill="#fff" transform="matrix(-16.17633 21.23447 -40.21861 -30.63837 15.6 140.5)"/><circle r="1" fill="#ffe6ab" transform="matrix(6.56389 -9.30895 17.37522 12.25154 72.8 26.7)"/><path fill="#224263" d="M89 172h45v80H89z"/><circle r="1" fill="#291b09" transform="rotate(-73.9 87.9 -40.1) scale(6.59846 96.37464)"/><path fill="#f3ab7c" d="M48 80l28-31-41-1z"/><path fill="#faffdb" d="M80 123.5l11.2-52.8 8.8 1.8-11.2 52.8z"/><circle r="1" fill="#2e2618" transform="matrix(-7.02902 6.74778 -24.73594 -25.76693 45 102.6)"/><circle r="1" fill="#886122" transform="matrix(-5.17042 17.39216 -11.31252 -3.36303 123 80.7)"/><circle r="1" fill="#fff" transform="matrix(44.90979 -13.10646 7.52368 25.78015 45.3 245)"/><circle cx="67" cy="156" r="25" fill="#fcfeee"/><circle cx="169" cy="157" r="33" fill="#000001"/><path fill="#959f9c" d="M-16 236v-73l46 64z"/><circle r="1" fill="#080e06" transform="rotate(116.8 65.7 55) scale(28.42721 117.48739)"/><path fill="#ffd2a6" d="M83.4 24l-8 12.9-.6 34.3L60.9 9z"/><circle r="1" fill="#e58d65" transform="matrix(7.6863 -4.3221 14.49682 25.78076 150.2 255)"/><ellipse cx="81" cy="196" fill="#f9fdf4" rx="6" ry="102"/><path fill="#5d2f0f" d="M103.4 135.5l19 35.2-19.9-7.8-12.1-21.2z"/><circle r="1" fill="#453323" transform="matrix(-10.101 -15.04374 16.66474 -11.1894 165.2 230.8)"/><path fill="#c3c2b3" d="M48 178h35v22H48z"/><path fill="#3b2d0e" d="M94 79h19v40H94z"/><path fill="#41536a" d="M87 185h37v40H87z"/><ellipse cx="51" cy="41" fill="#29140c" rx="12" ry="8"/><path fill="#b87c49" d="M9.9 92.1l25.6 8.6 10.2 29.5-20.5-9.8z"/><path fill="#b77b59" d="M117.1 162.3l9.3-43.1-19.2 1.7-4.1 17.2z"/><path fill="#aa8669" d="M89 110L78 86l-43-6z"/><circle r="1" fill="#f7fdf0" transform="rotate(-93.6 71 68.1) scale(41.86362 26.39014)"/><path fill="#ffb68d" d="M142 196h11v25h-11z"/><path fill="#131b17" d="M36 95l-52 10L-5-16z"/><path fill="#604734" d="M149.3 139.4L106 131l6.6-34.4L156 105z"/><circle r="1" fill="#e3eec4" transform="matrix(-14.80921 26.5325 -1.50737 -.84135 86 93)"/><ellipse cx="130" cy="191" fill="#2e3b4a" rx="12" ry="35"/><path fill="#ffb06f" d="M97 166l-7-21 23 30z"/><path fill="#b67f4b" d="M31 53l14-41 23-7z"/><path fill="#c2bcae" d="M61 163l18-8-46-15z"/><path fill="#090000" d="M61 67h16v6H61z"/><ellipse cx="169" cy="95" fill="#050404" rx="16" ry="102"/><path fill="#e6a077" d="M111.2 131.2l-6.1-7.3 5.2 21.9 37.5-5.5z"/><path fill="#926246" d="M31 69.1l-8 .7-2-23 8-.6z"/><path fill="#11110c" d="M18.1 52.5L61-16l-48.8 1.6-24.3-1.6z"/><path fill="#1e2831" d="M113.8 180.8l-7.7 2.9-9.7.3-5.4-20.2z"/><path fill="#231308" d="M74.8 53.3l2.1-9.8 34.3 7.2-2.1 9.8z"/><circle r="1" fill="#693419" transform="matrix(10.8026 5.24712 -2.108 4.33987 136.7 224)"/><path fill="#667898" d="M108 208l-17-30 33 21z"/><path fill="#2e291f" d="M65.7 119.5l-3.1 1.7 18.8-27-25 14.6z"/><path fill="#e3ad7a" d="M70.9 55.1L89 79.4l8.7-15.9 4.5 12.8z"/><path fill="#fff" d="M87 190l-62 44 58 36z"/><path fill="#f6fef2" d="M24 202l30-16-44-8z"/><path fill="#0d0b06" d="M106 37L92 69l4-47z"/><path fill="#e6ae75" d="M157 267l-28-39 17 2z"/><path fill="#fefffd" d="M94 271l-110-9 102-47z"/><path fill="#d1cdc1" d="M49.4 164.5l50.6-30.4-7.1-24.4-1.6 41.5z"/><path fill="#fbfdec" d="M80.1 146.2L65 151.6l31.4-62.7-6.3 50z"/><path fill="#1d010c" d="M55 80h22v4H55z"/><circle r="1" fill="#3a4859" transform="rotate(-96 147.2 64.5) scale(20.27186 11.73055)"/><path fill="#fffffd" d="M89.4 176l-73.3-6.8 76.2-4.4 2-7.8z"/><path fill="#bcbdb0" d="M56 181l-32-1-11-17z"/><path fill="#93a1a0" d="M75.5 101.7l8.9 2-4.9 14.8-12.5 3.3z"/><path fill="#6a4432" d="M81 94l-24-4 34-16z"/><path fill="#7a1c2d" d="M86 261l52-13 18 17z"/><path fill="#e4a26e" d="M94.2 35.2L92 48.1 71.7 24.5l13.3.9z"/><path fill="#c59275" d="M77 81.5l-26.8-8.2.9-2.8 26.7 8.2z"/><circle r="1" fill="#b1303d" transform="rotate(-136.4 131.9 95.1) scale(18.04622 3.81453)"/><path fill="#2a201b" d="M115 117l-17.4 14 .4-29.5 62.1 29.7z"/><path fill="#ffcfa2" d="M85 38l-30-7L66 9z"/><path fill="#f8faf2" d="M10 118.3L15.8 94-16 132.9l69 42.7z"/><path fill="#fff" d="M89.5 76l6-6.7 3 2.7-6 6.7z"/><path fill="#e29d71" d="M129.5 125.9l-8.1 18.2 21.6-2.4-14 12z"/><path fill="#ca805e" d="M128 215h18v5h-18z"/><path fill="#604215" d="M95 76h11v29H95z"/><path fill="#2f2b1d" d="M148.4 140.9l-15.9 14.9 10.9 24.4 10.9 15.8z"/><path fill="#5e4a34" d="M28.8 98.1l12.7-33.2 4 9.9 10.3 59z"/><path fill="#fffff1" d="M56.1 150l13.2-14.8-22.9-1.6L2 100.3z"/><path fill="#7e583e" d="M93.7 133.5l66.3-12.3-16.8-9.3-.4 20.9z"/><circle r="1" fill="#211a13" transform="matrix(15.92596 8.0687 -2.91782 5.75918 134 100.6)"/><ellipse cx="71" cy="43" fill="#ffc195" rx="3" ry="26"/><circle r="1" fill="#423524" transform="rotate(-115.7 152 63) scale(12.18114 14.96359)"/><path fill="#c18860" d="M104 168l15 2-6 5z"/><circle cx="61" cy="46" r="5" fill="#2d130d"/><circle cx="150" cy="213" r="5" fill="#de9c7b"/><path fill="#ced1c8" d="M83.2 173.2L-16 239.6 58.3 208l23-17.8z"/><path fill="#694b1c" d="M112 57h22v33h-22z"/><path fill="#c8956e" d="M49.1 79.6l20.9 20-10.5-1.1-8.8-8.4z"/><circle cx="55" cy="123" r="10" fill="#6c4d35"/><ellipse cx="133" cy="205" fill="#1e2430" rx="8" ry="10"/><path fill="#7b5948" d="M89.3 142.4l-9.9 9.7 2.9-6.7 63.8 11.1z"/><path fill="#31281e" d="M47 111L32 50l-5 31z"/><path fill="#34261f" d="M94.2 141.3l16.9-25.2L99.9 103l4.7 52.2z"/><path fill="#d57b74" d="M80.7 87.8l-21.2-5.2 4.1 6.2 12.6-2.7z"/></g></g></svg>