<svg xmlns="http://www.w3.org/2000/svg" viewBox="0 0 1120 1400"><defs/><filter id="a"><feGaussianBlur stdDeviation="12"/></filter><rect width="100%" height="100%" fill="#343852"/><g filter="url(#a)"><g fill-opacity=".5" transform="translate(2.7 2.7) scale(5.46875)"><circle r="1" fill="#1e73ed" transform="matrix(-163.5094 118.47323 -42.03604 -58.01554 102.4 71.3)"/><path fill="#00215b" d="M33 335.4l-59.6-163.5 239.7-87.3 59.5 163.5z"/><circle r="1" fill="#000413" transform="matrix(16.85318 31.83013 -129.99813 68.83047 181 230.1)"/><circle r="1" fill="#3f76d0" transform="rotate(142.5 57.7 43.6) scale(82.2218 37.53315)"/><circle r="1" fill="#204987" transform="matrix(158.52013 -88.95735 18.15928 32.35946 116.1 143.5)"/><circle r="1" fill="#214076" transform="matrix(87.16853 -76.57943 17.56722 19.99634 5.2 59)"/><circle r="1" fill="#144fb0" transform="matrix(13.00058 32.01656 -71.84121 29.1717 26.2 124.7)"/><circle r="1" fill="#010004" transform="matrix(-9.11406 -13.06163 38.45934 -26.83591 192.7 247.5)"/><circle r="1" fill="#03214d" transform="matrix(15.29298 23.13297 -112.85043 74.60432 43.3 255)"/><circle r="1" fill="#38578b" transform="rotate(-55.6 160.2 -119.8) scale(67.0486 27.60708)"/><circle r="1" fill="#0a3c90" transform="matrix(-28.19064 37.79772 -25.33057 -18.89228 4 170.1)"/><path fill="#020b21" d="M-16 17l2-31L53-3z"/><circle r="1" fill="#0c326a" transform="matrix(-76.61137 43.52132 -9.6701 -17.02247 39.6 208.3)"/><path fill="#3e75ca" d="M154 70.5l-44.8-14.6 22.9-70.4L176.8.1z"/><circle r="1" fill="#285ebb" transform="matrix(-33.14202 18.48952 -14.4487 -25.89896 73.4 82.8)"/><circle r="1" fill="#305ca5" transform="matrix(-41.31903 31.54876 -11.87645 -15.55444 116.7 98.5)"/><path fill="#354d7d" d="M105.8-21.2l11.1 16.6-88.7 59.8-11.1-16.6z"/><path fill="#27416e" d="M175 68h29v74h-29z"/><path fill="#326dc9" d="M5.3 122.6l46.5 1.7 8.1-8.8-38.8-4.2z"/><path fill="#375ca3" d="M45 33l100-49-64 68z"/><path fill="#111c37" d="M219 181l-52-20 35-21z"/><circle r="1" fill="#274c87" transform="matrix(-59.30097 21.90683 -4.71832 -12.77233 101 142.1)"/><circle r="1" fill="#3a65a9" transform="matrix(-75.15352 78.13821 -12.2024 -11.7363 203 12.8)"/><path fill="#192d57" d="M63.3-6.1L1 13l-17 11.2L2.5 43.3z"/><path fill="#1f3d72" d="M129 112l55 5 16-30z"/><path fill="#427bd1" d="M45 76h52v7H45z"/><circle r="1" fill="#0f2043" transform="matrix(7.8566 11.26216 -51.63256 36.01937 143.6 244.7)"/><circle r="1" fill="#2253aa" transform="matrix(-1.30147 -6.82808 38.77607 -7.39094 49.9 65.5)"/><path fill="#1a335d" d="M216 106l-64 64-40-17z"/><circle r="1" fill="#274377" transform="matrix(7.62284 8.52568 -52.52842 46.96582 25.5 42)"/><path fill="#5188da" d="M113 21h43v6h-43z"/><path fill="#2d4a7d" d="M219 53.8l-26.1 63 11-78.5-33.2 17.2z"/><path fill="#456fb1" d="M179 67l-36-20 54 12z"/><path fill="#497dd1" d="M157.1 69l-40.2-23-36.3 3.1 34 4.9z"/><path fill="#132a52" d="M104.1 191.8L134 170l66.2 8.3-76.3 49.2z"/><path fill="#122b54" d="M52 189l46-16-23-7z"/><path fill="#0d3677" d="M-16 255l44-50 38 6z"/><path fill="#28477b" d="M110 118l53-3 49 26z"/><circle r="1" fill="#031d47" transform="matrix(3.54411 11.44918 -31.65587 9.79913 24.3 249)"/><path fill="#134799" d="M-15 182l53 10 12-16z"/><path fill="#12449a" d="M-16 139l8 35 104-46z"/><path fill="#3f6aaf" d="M166.2 94.2l-2 8.8-22.4-5.2 2-8.8z"/><path fill="#3e5d97" d="M100 12l-43-1 72-19z"/><path fill="#486cae" d="M41 27h13v6H41z"/><path fill="#070c1c" d="M182 184h22v13h-22z"/><path fill="#17499e" d="M90.2 97L-16 95l22.6 17.7 56.7-12.9z"/><path fill="#254173" d="M182 69l-18 19-14-6z"/><circle r="1" fill="#3963a9" transform="rotate(-13.7 264.9 -683) scale(43.84425 6.67184)"/><path fill="#2a5496" d="M113.9 143.2l-3.4 13.8-34.8-6.7 15.4-8.4z"/><path fill="#274c8e" d="M79 48.5l-23.7-7.4L-12 57.2l50.5 4.7z"/><path fill="#204b95" d="M6.3 78.4l79.9-14-51 17.9L2.1 95.1z"/><path fill="#1e3a6b" d="M97 126l31 7-46 7z"/><path fill="#2e63c0" d="M55.3 42l46.7 4.3L169.7 36l-54.9-12.4z"/><path fill="#202e53" d="M191 113.4l15.4-1.1.7 19.5-35.6-5.4z"/><path fill="#3368ba" d="M125.4 92.4l-36.1-1.6 93.9-23.7-9.5 3.4z"/><path fill="#2c5190" d="M67.5 124.9l105.6-43.8-39.3 7.4L32 131.2z"/><path fill="#305eac" d="M136.2 8.3l8-24.3-60.6 47.7 61.6-18.4z"/><path fill="#062a67" d="M26 221L1 252l-7-40z"/><path fill="#173971" d="M42.8 170.1l51.4 33.7-98.1 11.7 65.4 6.7z"/><path fill="#2c66be" d="M13.5 130.7l10.8-21.4 29.6 13.1-69.9-14z"/><circle r="1" fill="#233a67" transform="matrix(.69582 5.28524 -31.50512 4.14773 28.2 25.4)"/><path fill="#345b9a" d="M146.6 30.8l24.5-12.3 44.5 16L219 2.3z"/><path fill="#3e76cd" d="M135.4 65.7l-1.6-3.7 36.8-15.7 1.6 3.7z"/><path fill="#26477f" d="M161 125l7-33 36 15z"/><path fill="#153b7a" d="M25 166.3l9.1-15.1 33.4 22.7-82.9 5.7z"/><path fill="#000107" d="M205 241.9l-19.3-5.2L189 224l19.3 5.2z"/><path fill="#01030d" d="M198 184h21v-46z"/><path fill="#13203e" d="M140 208l43 32 8-28z"/><path fill="#203c6c" d="M53.8 37.3L-16 41l3.3 16.9 43.8-9.8z"/><path fill="#08388a" d="M2 142h21v14H2z"/><path fill="#365c9e" d="M92 81l49-2 32-26z"/><path fill="#1b3969" d="M120.3 170.5l-14.8 23.8-23.8-14.8 14.8-23.8z"/><path fill="#214f96" d="M64.3 156l26.2.7-1 10.1-15.3.7z"/><path fill="#2a62bf" d="M31 80h41v9H31z"/><ellipse cx="3" cy="20" fill="#141c37" rx="12" ry="4"/><path fill="#31538c" d="M194 78.2l9.2 1.5-40.7 22.3L219 29.9z"/><path fill="#3d6cbe" d="M89 14h34v5H89z"/><path fill="#3571cf" d="M81 70h31v7H81z"/><path fill="#121f3c" d="M148 171l23-2-10-10z"/><path fill="#09214a" d="M73.3 202.9l-51.5 55.4 17.4-34.4 38.9-8.5z"/><path fill="#427ad0" d="M147.6 55.9l-21.2-39.3 36.8 2.8-36.4 18.8z"/><ellipse cx="121" cy="233" fill="#05102f" rx="10" ry="11"/><path fill="#2358b7" d="M93.7 71.2l32.2-5.8-53.2-11.5-24 4.1z"/><circle cx="184" cy="137" r="13" fill="#223f70"/><path fill="#2053a6" d="M68.4 145l42.2-43.1-21.1 33.4-36.7-3.2z"/><path fill="#2955aa" d="M116 34l-46 1 22 10z"/><path fill="#304e85" d="M84 29l-30 9 7-16z"/><path fill="#010511" d="M167 239l11 1-18 21z"/><path fill="#2b426f" d="M19.1 23.1l56.3-1.8L21.6-16h121.9z"/><path fill="#2c5ca8" d="M108 126l20-24-56 20z"/><path fill="#123264" d="M130 109h26v3h-26z"/><path fill="#3d73c8" d="M190 25.7l-20.5 2.2-75.3.4 81.7 4.4z"/><path fill="#102a58" d="M164.9 189.1L57.7 248.2l62.2-51.2 36 15.1z"/><path fill="#16305b" d="M148 180h31v17h-31z"/><path fill="#083b91" d="M11 208.8l-27-13.2 35.5-4.4.3 4.8z"/><path fill="#0c1b3f" d="M87 239h72v17H87z"/><path fill="#1b3868" d="M132.8 121.9l3.4-11.4-5.1 6 63.5 28z"/><path fill="#2a5392" d="M113 138l23-3-9 12z"/><path fill="#243f6e" d="M194.1 24l18.6 4-.8 4-18.6-4z"/><path fill="#3f6cb1" d="M185.5 19.2l33.5 4.6-44.1.4L213 46z"/></g></g></svg>