<svg xmlns="http://www.w3.org/2000/svg" viewBox="0 0 1400 1120"><defs/><filter id="a"><feGaussianBlur stdDeviation="12"/></filter><rect width="100%" height="100%" fill="#392036"/><g filter="url(#a)"><g fill-opacity=".5" transform="translate(2.7 2.7) scale(5.46875)"><ellipse cx="143" cy="161" fill="#ebd9eb" rx="255" ry="74"/><ellipse cx="140" cy="195" fill="#fff" rx="254" ry="18"/><ellipse cx="112" cy="3" fill="#fff" rx="251" ry="5"/><circle cx="211" cy="93" r="86" fill="#c91500"/><circle r="1" fill="#0754a3" transform="rotate(-124.9 53 36.6) scale(75.31602 85.63595)"/><ellipse cx="127" cy="95" fill="#fff" rx="4" ry="203"/><ellipse cx="125" cy="93" fill="#fff" rx="183" ry="3"/><ellipse cx="107" cy="193" fill="#fff" rx="255" ry="15"/><ellipse cx="132" fill="#fff" rx="255" ry="8"/><ellipse cx="151" cy="168" fill="#2a1e38" rx="249" ry="11"/><path fill="#e5130c" d="M131 26h125v40H131z"/><ellipse cx="117" cy="82" fill="#170300" rx="255" ry="9"/><path fill="#fff" d="M125 0h6v204h-6z"/><ellipse cx="66" cy="196" fill="#fff" rx="255" ry="18"/><path fill="#441728" d="M165 124l105-28-138-1z"/><ellipse cx="170" cy="2" fill="#fff" rx="255" ry="6"/><ellipse cx="48" cy="106" fill="#0f2d52" rx="77" ry="11"/><path fill="#d54948" d="M131 120h125v44H131z"/><path fill="#3871bc" d="M0 113h124v55H0z"/><ellipse cx="84" cy="93" fill="#fff" rx="254" ry="3"/><path fill="#1c48ac" d="M0 30h125v30H0z"/><path fill="#4c0c00" d="M131 8h123v24H131z"/><ellipse cx="127" cy="105" fill="#fff" rx="3" ry="147"/><path fill="#001430" d="M2 8h123v25H2z"/><path fill="#7c2125" d="M131 153h123v25H131z"/><ellipse cx="226" cy="190" fill="#fff" rx="228" ry="13"/><path fill="#0f3d64" d="M0 162h121v16H0z"/><circle r="1" fill="#ed6966" transform="rotate(-89.7 174.3 -37.1) scale(8.99326 79.42195)"/><path fill="#8a2e37" d="M132 104h123v20H132z"/><ellipse cx="106" cy="3" fill="#fff" rx="241" ry="4"/><path fill="#5a84c1" d="M0 127h126v21H0z"/><path fill="#000408" d="M2 80h123v11H2z"/><ellipse cx="141" cy="93" fill="#fff" rx="165" ry="2"/><path fill="#1e344f" d="M5 96h120v10H5z"/><circle r="1" fill="#283169" transform="matrix(-.10222 -8.36789 75.06886 -.91707 51.2 29.6)"/><ellipse cx="255" cy="93" fill="#ccaaa5" rx="1" ry="86"/><path fill="#aa160f" d="M251.7 77.4l-120.6 2.8 1.3-62.2 43.6 4.9z"/><ellipse cy="91" fill="#b5c3d0" rx="1" ry="90"/><path fill="#de1319" d="M131 42h125v16H131z"/><ellipse cx="209" cy="200" fill="#fff" rx="255" ry="22"/><path fill="#000305" d="M0 9h116v8H0z"/><path fill="#2a0905" d="M134 9h122v8H134z"/><path fill="#1a1d44" d="M1 68h124v14H1z"/><path fill="#a0a8a0" d="M130 182h43v3h-43z"/><path fill="#fff" d="M126 5h5v199h-5z"/><path fill="#3663a3" d="M101 108h24v57h-24z"/><path fill="#5b2a33" d="M140 172h116v7H140z"/><path fill="#9c393f" d="M131 148h117v19H131z"/><path fill="#140403" d="M133 86h91v4h-91z"/><path fill="#5d2833" d="M133 97h122v12H133z"/><ellipse cx="48" cy="93" fill="#fff" rx="241" ry="2"/><path fill="#98a298" d="M0 182h51v2H0z"/><ellipse cx="211" cy="75" fill="#671609" rx="80" ry="7"/><ellipse cx="204" cy="29" fill="#881a11" rx="65" ry="8"/><path fill="#1e4597" d="M4 39h121v24H4z"/><path fill="#33558b" d="M3 108h122v12H3z"/><circle r="1" fill="#33558d" transform="rotate(89.1 -52 109.3) scale(7.20711 60.39988)"/><circle r="1" fill="#b14043" transform="matrix(-.64824 9.27021 -32.31018 -2.25935 184 120.8)"/><ellipse cx="57" cy="1" fill="#fff" rx="255" ry="6"/><ellipse cx="42" cy="178" fill="#a3a7ab" rx="215" ry="1"/><path fill="#da423b" d="M131 125l1 25 17 4z"/><path fill="#1d3e64" d="M44 168h81v10H44z"/><ellipse cx="181" cy="95" fill="#a6aaac" rx="187" ry="1"/><ellipse cx="127" cy="102" fill="#fff" rx="3" ry="102"/><ellipse cx="239" cy="87" fill="#2f1412" rx="104" ry="4"/><path fill="#dde3dd" d="M0 0h13v8H0z"/><path fill="#5f130a" d="M132.5 12l-2.1 15.1 26.5.4L271 17.6z"/><ellipse cx="90" cy="203" fill="#fff" rx="140" ry="21"/><path fill="#5880bd" d="M125.4 121.8l-45.9 11.5-74.9.4 119.5 13.5z"/><path fill="#a9b0a9" d="M131 2l14-4-4 5z"/><path fill="#fff" d="M0 179h100v3H0z"/><ellipse cx="35" cy="92" fill="#fdfffd" rx="255" ry="2"/><path fill="#82333a" d="M182.9 104l-52.4-3.3 3.2 15.5 137.3-5.3z"/><path fill="#243379" d="M123.2 57.7L5.1 59.9l120.5 13.7-.4-22.1z"/><path fill="#8d180f" d="M131 73V63h178v10z"/><path fill="#000307" d="M5 86h120v4H5z"/><path fill="#1f3579" d="M2 32h123v7H2z"/><path fill="#2f4a72" d="M10 164h115v8H10z"/><path fill="#000307" d="M112 9h13v7h-13z"/><ellipse cx="15" cy="90" fill="#3d3f37" rx="109" ry="1"/><path fill="#acb2ac" d="M13 .6v3L1 3.4v-3z"/><path fill="#111c37" d="M2 15h123v10H2z"/><path fill="#792f38" d="M131 162h124v10H131z"/><path fill="#502632" d="M134 96h115v4H134z"/><ellipse cx="128" fill="#fff" rx="165" ry="2"/><path fill="#b6bbb6" d="M128 182h51v2h-51z"/><ellipse cx="87" cy="98" fill="#213756" rx="37" ry="3"/><ellipse cx="242" cy="197" fill="#fff" rx="99" ry="19"/><ellipse cx="211" cy="8" fill="#373b36" rx="80" ry="1"/><path fill="#852a26" d="M131 96h4v20h-4z"/><path fill="#294368" d="M2 96h123v12H2z"/><path fill="#224c99" d="M76.9 43.8l-84.3 6.6 132.3 7 .6-18.6z"/><path fill="#3e6aae" d="M15 144h110v13H15z"/><path fill="#5b120a" d="M134.1 69.9l-2.2 16.4 52.6-11.1-9.3 11.3z"/><path fill="#222959" d="M2 65h123v11H2z"/><path fill="#de5f5d" d="M150.1 127.6l30.1 19.6-48.5-3.7-.8-12.2z"/><path fill="#c4494a" d="M144 143h107v7H144z"/><ellipse cx="206" cy="10" fill="#200c0d" rx="33" ry="2"/><path fill="#fff" d="M48 180h84v24H48z"/><path fill="#c99b9d" d="M255 98h1v81h-1z"/></g></g></svg>