<svg xmlns="http://www.w3.org/2000/svg" viewBox="0 0 1400 1120"><defs/><filter id="a"><feGaussianBlur stdDeviation="12"/></filter><rect width="100%" height="100%" fill="#2c3757"/><g filter="url(#a)"><g fill-opacity=".5" transform="translate(2.7 2.7) scale(5.46875)"><circle r="1" fill="red" transform="matrix(-61.76082 .5838 -1.78372 -188.69953 53 97)"/><circle r="1" fill="#070000" transform="matrix(-34.27808 -.45604 3.39227 -254.97744 125.8 123.5)"/><circle r="1" fill="#0049bc" transform="matrix(26.7503 -.06441 .34356 142.6834 197.8 102.7)"/><circle r="1" fill="#f90f1c" transform="rotate(90.8 -18.1 74.3) scale(123.11588 26.96666)"/><circle r="1" fill="#510000" transform="matrix(7.3819 -205.70122 31.05363 1.1144 .8 145.6)"/><circle r="1" fill="#700000" transform="matrix(-26.41156 .18439 -1.4573 -208.73843 99 83.3)"/><circle r="1" fill="#001c42" transform="matrix(-28.05674 210.27545 -26.5957 -3.54862 243.9 135.1)"/><circle r="1" fill="#080000" transform="rotate(90.7 -18.3 141.4) scale(211.37927 16.24696)"/><circle r="1" fill="#ad0000" transform="rotate(.4 -10563 4114.6) scale(11.90574 196.53301)"/><ellipse cy="126" fill="#390000" rx="14" ry="203"/><circle r="1" fill="#e33c49" transform="matrix(-9.90992 -.20758 2.72322 -130.00505 54.8 110.4)"/><circle r="1" fill="#012255" transform="rotate(87.6 3.8 159.7) scale(202.14362 15.87668)"/><ellipse cx="83" cy="88" fill="#ad0000" rx="14" ry="169"/><circle r="1" fill="#1c50b1" transform="matrix(-1.77064 -75.9205 13.16207 -.30697 195.3 82.8)"/><circle r="1" fill="#173a70" transform="rotate(-179 113 23.8) scale(13.26526 179.91573)"/><path fill="#0b101e" d="M268.5-7.5l-12 227.7-15-.7 12-227.7z"/><circle r="1" fill="#780000" transform="rotate(-90.7 51.7 36) scale(132.40736 8.77685)"/><circle r="1" fill="#500" transform="matrix(13.23163 -.33444 4.37372 173.03832 104.1 42.7)"/><ellipse cx="137" cy="147" fill="#000b20" rx="12" ry="203"/><circle r="1" fill="#d4041c" transform="rotate(-2 1872.7 -1982) scale(9.37125 66.43658)"/><ellipse cx="174" cy="84" fill="#173977" rx="7" ry="199"/><ellipse cx="93" cy="75" fill="#7f0000" rx="8" ry="169"/><circle r="1" fill="#b00000" transform="matrix(2.42135 -81.97117 8.13057 .24017 29.8 77.6)"/><path fill="#400000" d="M-10-5l26-6L1 89z"/><ellipse cy="159" fill="#3e0000" rx="7" ry="83"/><path fill="#db3a48" d="M78.5 83.3L29.8 200.7l36.5-60.3-32.4 17.2z"/><path fill="#260000" d="M126 127l-41 89 39-2z"/><path fill="#234583" d="M205 56h26v69h-26z"/><path fill="#ac001e" d="M77 154l3 54-40 11z"/><circle r="1" fill="#051836" transform="matrix(-8.34998 -56.8328 10.99638 -1.6156 153.2 177.6)"/><ellipse cx="115" cy="46" fill="#340000" rx="10" ry="102"/><circle r="1" fill="#0d203b" transform="matrix(10.4519 21.52485 -25.32953 12.29936 255 10.7)"/><ellipse cx="82" cy="82" fill="#a00" rx="7" ry="79"/><path fill="#e94c45" d="M68 82l-30 45 8-26z"/><ellipse cx="196" cy="175" fill="#063889" rx="17" ry="41"/><path fill="#e73639" d="M41.6 96.4l-14.9 27.1 22.9-56.3L65 60.7z"/><path fill="#a8001c" d="M32 149l-2 70 18-37z"/><path fill="#0a2246" d="M253 109l-9 93-31 8z"/><path fill="#d20927" d="M30 62l10-31L77 8z"/><path fill="#c62840" d="M44 160h22v44H44z"/><path fill="#2051a9" d="M188 61h25v46h-25z"/><path fill="#500000" d="M84.2 203.9l30.2-75.3-27.1 50.2-6.5 27.3z"/><path fill="#d6021d" d="M35.3 72.2L24.7 98.9l39.6-47.2 19.9-31.3z"/><path fill="#193563" d="M210 12.3L240.1 154l4.2-127.2L196-16z"/><path fill="#940002" d="M61.4 194.9l32.9-86 21.3-49.8-22.1 37z"/><path fill="#630000" d="M5.7 219l39.6-57.9-24.9 53.5-15.7-137z"/><path fill="#11203c" d="M136 49l14 80 18-141z"/><path fill="#cd0323" d="M87.6 93.2l-31.4 39.4 25.8 9.5-25.7 26.4z"/><ellipse cx="128" cy="117" fill="#000305" rx="4" ry="187"/><path fill="#7e0000" d="M31.7-16L14.8 62.8l34.9-77.7L4.1 60.3z"/><path fill="#d30018" d="M24.7 127.7l29.4-32.6-21.4 1.2 4.3 5.2z"/><path fill="#e34c43" d="M52 36L42 58l23-23z"/><path fill="#dc444b" d="M38 173l19-9 13-33z"/><path fill="#c70324" d="M28 26.9L61.8-16l6.7 31 27.9-31z"/><path fill="#d93f3e" d="M46.8 19.5L78.4-16 56.5 20.7 39.6 36.4z"/><path fill="#e55851" d="M45.9 133.2l10.6-14.5 5.6 4-10.6 14.6z"/><circle r="1" fill="#9c0000" transform="rotate(121.6 -.9 32.5) scale(34.97131 3.53725)"/><path fill="#040e1e" d="M241 219l30-36-12-67z"/><path fill="#1f4083" d="M166.7 60.8l10.7 85.3 8-26.6.5-87.9z"/><path fill="#1b2e51" d="M219 112l35-65-5 87z"/><path fill="#13376e" d="M205 219l30-98-31 46z"/><path fill="#800" d="M58.6 219.3L90 152.2l5.5 2.5L64 221.8z"/><path fill="#940000" d="M33.3 99.2l-27.6 10 19.6-37.3L10 134.2z"/><path fill="#d1072b" d="M41 134.7l-15.7 20.1 10.4-28.2 17.5-2.2z"/><path fill="#a00000" d="M83 104l24-54-23 27z"/><path fill="#6c0000" d="M32.2-2.9L12.8 10.6-1.7 44.1 18 26.8z"/><path fill="#12284e" d="M155 13h10v165h-10z"/><path fill="#d90018" d="M72.1 97.2l-13.9 7.1 6.1-12.7 22.3-23.5z"/><path fill="#820000" d="M39 144L5 188l21-9z"/><path fill="#3f0000" d="M11.4 141.6L-6.2 219l30-67.2-39.8 52.7z"/><path fill="#9d0000" d="M105.7 26.7L76.8 61.5l-5.9 18.9 11.8-5.1z"/><path fill="#980000" d="M85-8L62 39l25-28z"/><circle r="1" fill="#d8001c" transform="rotate(-54.6 97 -36.3) scale(20.26032 4.15855)"/><path fill="#e34a44" d="M56.6 76.4l16.3-33.2-9 14.1L44 78.8z"/><path fill="#7e0000" d="M113 85.9l-19.7 28.7-33 70.2 50.7-82.6z"/><path fill="#850000" d="M26.2 148.3l13.6-31.7-24.9 27.9-10.6 27.3z"/><path fill="#570000" d="M104.5 79.6l7.7 50.7-29.7 35.9 18-40.7z"/><path fill="#c00929" d="M50.4 153.7l-11.9-3.2-14.8 31.3 22.1-21.9z"/><path fill="#13439d" d="M198.1 157.5l-19.2-69 7.6 71.3L180 179z"/><path fill="#930000" d="M50-7.2l49.6 24.1-30.7 39L89.2 7.4z"/><path fill="#173d7b" d="M229.7 36.4L219.6 56l-16.2-44.3L214-16z"/><path fill="#5c0000" d="M75.7 219l37.5-44.8-3.5 19.7-19.2 19.4z"/><circle r="1" fill="#20427d" transform="rotate(123.5 89.8 95) scale(21.44736 4.50628)"/><path fill="#11294d" d="M236.8 126.9l-22 50.8 16.1-9.8 40.1-86z"/><path fill="#c41132" d="M59 219l20-51-47 47z"/><path fill="#af0009" d="M86.1 125.1l-7.7 18.2 2.8-32.6-24.3 53.2z"/><path fill="#275ebc" d="M194 63l8 4-23 25z"/><path fill="#c00004" d="M23.9 75.8L25.7 65l22.5-24.9-5.4 18.2z"/><path fill="#1c3560" d="M233.7 113.3l16.6-51.7-34.1 33 7.9-23.4z"/><path fill="#113e8f" d="M204.6 29.4l-32.4 22.1L188.3 27l32.1-29.5z"/><path fill="#430000" d="M-14.3 219L23 180.9 8.6 219-4.2 105.4z"/><path fill="#de1f3a" d="M56 138l21-24-15 34z"/><path fill="#210000" d="M119 0h6v204h-6z"/><path fill="#e22532" d="M38 98l37-33-11 25z"/><path fill="#ca1d36" d="M64.8 177.6L43 162l-12.6 33.2 45.4-46.8z"/><path fill="#4b0000" d="M20.1 45.2L-16 95.9v28.4l33.3-67.4z"/><path fill="#10192b" d="M236 46.8l10.9-24.1L261.4-16l-.8 32.3z"/><path fill="#092c63" d="M174.8 185.2l12.3-32.1-29.2 42.5 27.1 14.9z"/><path fill="#163262" d="M186-6.6L164.4-16l8.9 109.9-16.1-37.8z"/><path fill="#e14d46" d="M61.7 96.7l-14.1 10.7 1.6-14.7 9.8-3z"/></g></g></svg>