<svg xmlns="http://www.w3.org/2000/svg" viewBox="0 0 1207 965"><defs/><filter id="a"><feGaussianBlur stdDeviation="12"/></filter><rect width="100%" height="100%" fill="#4b3331"/><g filter="url(#a)"><g fill-opacity=".5" transform="translate(2.4 2.4) scale(4.71484)"><circle cx="191" cy="102" r="226" fill="#fff"/><circle r="1" fill="#fff" transform="rotate(-81.9 184.4 -80.2) scale(197.15847 32.25152)"/><ellipse cx="84" cy="116" rx="18" ry="60"/><circle cx="186" cy="33" r="36" fill="#560000"/><circle r="1" fill="#fcffff" transform="matrix(-2.53375 38.14746 -84.71245 -5.6266 194.1 106.6)"/><circle r="1" fill="#7d0000" transform="matrix(-34.9444 38.64345 -10.27928 -9.29532 169 188)"/><path fill="#1f0000" d="M47 72l15-52-51-10z"/><path fill="#401501" d="M117 0h28v69h-28z"/><ellipse cx="243" cy="98" fill="#fff" rx="24" ry="203"/><ellipse cx="72" cy="72" fill="#fff" rx="254" ry="3"/><circle r="1" fill="#000007" transform="matrix(-3.32815 -2.47457 21.29419 -28.6394 124.2 170)"/><path fill="#ffbba5" d="M181 11l7.7 24.8L138.9 51l-7.6-24.8z"/><circle r="1" fill="#1b0f02" transform="matrix(25.51411 -6.4658 4.9606 19.57456 85.2 96.5)"/><path fill="#fff5d6" d="M96 67L-5 119l-11-43z"/><path fill="#6e1e1d" d="M220 10l-71 35 8 50z"/><path fill="#fff" d="M61-5.9L76-5l-3 59-15-.8z"/><circle r="1" fill="#e5e2d5" transform="matrix(-8.58948 -7.3978 53.04381 -61.58843 167.5 150.8)"/><circle r="1" fill="#7d766b" transform="matrix(75.38308 11.40062 -4.4256 29.26287 31 159.4)"/><path fill="#00171c" d="M151-16l68 29 2 36z"/><path fill="#000c5f" d="M111.4 14L93.8 30.5l-17.2-5.8L99.5 2z"/><circle r="1" fill="#4a0000" transform="rotate(62.2 -90.3 231) scale(15.27448 30.02788)"/><circle r="1" fill="#3f1b1e" transform="matrix(4.60836 -12.39664 18.99923 7.06283 125.4 47.1)"/><path fill="#f2fcf0" d="M45.2 43.2L27.7-6.7l17.6 11-17.7 55z"/><ellipse cx="255" cy="96" fill="#fff" rx="36" ry="203"/><path fill="#e5e2c3" d="M87.7 58.8l32.4-66.3 19.5-8.5-22.4 44.5z"/><path fill="#fffff4" d="M0 17h19v26H0z"/><path fill="#fff4e0" d="M128.6 120.1l-28 8-5.2-18.2 28-8z"/><path fill="#fff" d="M148.9 16.4l33.6-21.5L146-16l-2.1 117.8z"/><path fill="#623b34" d="M25 48h43v22H25z"/><path fill="#030d16" d="M55.9 152.4l-2.2-13.8 44.4-7 2.2 13.8z"/><ellipse cx="137" cy="4" rx="8" ry="21"/><path fill="#221617" d="M70.2 46.9l13.1 14.8 10.2-12.1-15.3-10.2z"/><path d="M22 21h13v20H22z"/><path fill="#e84841" d="M199 70l-44-29 31-19z"/><path fill="#270000" d="M45 3l3 61 12-39z"/><path fill="#cacfca" d="M128 219l-99-6-3-48z"/><path fill="#cd5741" d="M80.6 68.5l46.2 1.5 5.2-12.1-26.1-15.7z"/><path fill="#fff3ca" d="M132-16L60.5 28.4l8.7-24.8-75.5.7z"/><ellipse cx="177" cy="71" fill="#fff" rx="212" ry="2"/><path fill="#243f71" d="M11.4 43.1l-5.8-5L-7 58.8l21.6 13.9z"/><path fill="#bbc2b2" d="M109.4 11.9L94.3-11.4 152 37l-25.3 3.6z"/><path fill="#fcfbe2" d="M55 13l51 23-8 15z"/><path fill="#403c33" d="M66.2 185.3l29.2 12.8-16-14.5-48.6-28.2z"/><path fill="#355438" d="M25 17l8-15-49 10z"/><path fill="#b6071a" d="M195 175l-5-36-31 50z"/><path fill="#e0d4c3" d="M109.4 75.8l41.4-13.2-15.2 88.8L97 62.9z"/><path fill="#020d23" d="M101.8 191.8l23-32.8 7.4 5.2-23 32.8z"/><circle r="1" fill="#00113e" transform="matrix(-6.73876 6.22462 -2.6918 -2.91414 117.4 129.7)"/><path fill="#8f7366" d="M54.6 106l50.8 1.9-18.5 14.6-21.8 7.7z"/><path fill="#4b1404" d="M219.5 54h-33V30h33z"/><circle r="1" fill="#0b1013" transform="rotate(-153.3 55.3 34.5) scale(19.15783 17.31277)"/><circle r="1" fill="#c0c8ca" transform="matrix(-28.91373 5.86748 -8.3849 -41.319 192.8 104.4)"/><path fill="#dececf" d="M50.4 163.5L90 181.2l-46.9-35.1 10.4-20.3z"/><path fill="#2b4d5b" d="M149 94.6l11.7 3.7 4.2-6.3.4-17.6z"/><path fill="#15292f" d="M117.5 31L84.9 64.2l30.9-20.4 28.5 14.1z"/><path fill="#4a382f" d="M149 52h36v17h-36z"/><path fill="#3a4148" d="M48.7 184.8L25 138.4l6.2-3.2L55 181.6z"/><ellipse cx="242" cy="174" fill="#fff" rx="22" ry="203"/><ellipse cx="8" cy="55" fill="#fff" rx="14" ry="2"/><circle r="1" transform="rotate(-55.1 207 1) scale(3.35465 9.45235)"/><path fill="#e5d6be" d="M50 195h87v9H50z"/><ellipse cx="147" cy="33" fill="#fff" rx="2" ry="44"/><ellipse cx="70" cy="26" fill="#fff" rx="3" ry="55"/><path fill="#2c688a" d="M214.5 4.9l6 12.1-20.1 2.2L188.1-16z"/><path fill="#daa478" d="M195.4 72.7l8.5-12.2 2-12.4-27.5 11.8z"/><path fill="#e5dac8" d="M195 123l-37-27-5 96z"/><path fill="#837260" d="M27 105l-6 95-29-21z"/><path fill="#294b71" d="M153.7 131.7l-34.3 62.8 20.8-29-11.1-14.2z"/><ellipse cx="127" cy="71" fill="#fff" rx="177" ry="2"/><path fill="#ffaaa3" d="M32 50l11 8-29 9z"/><path fill="#c3d6d5" d="M20.6 38.9L7.8 59.2l32.5-18.7 16.1 12.6z"/><path fill="#cf5b67" d="M183 139l11 49 15-33z"/><path d="M45 64h15v5H45z"/><path fill="#eaf5df" d="M31.4-14.6L23.5 8.1l-13.3-.6L-16 4.7z"/><path fill="#2b2913" d="M198.8 70.1l-2.7-.3 31-26-26.9 26.7z"/><path fill="#96969d" d="M101 158.3l1.6 6.5-73.4-5.3 55-15.2z"/><path fill="#ecb797" d="M119 56L77 70l35-25z"/><ellipse cx="236" cy="34" fill="#fff" rx="16" ry="197"/><path fill="#7b0a09" d="M140 45l-37 23 37-1z"/><path fill="#5d3908" d="M64 42h5v23h-5z"/><path fill="#fafff2" d="M59 49h5v16h-5z"/><path fill="#153748" d="M40.3 39.8l14.2 20.6L59.9 45l-6.7-7.6z"/><path fill="#000102" d="M98.7 144l.5-29.3-14.6 43.4 15.3-15.2z"/><path fill="#690b07" d="M135.1 204.2l31.7-28.5 24.5 8.2-24.4 35.1z"/><circle r="1" fill="#cf2031" transform="matrix(15.39486 -13.29305 5.192 6.01293 175.5 46)"/><path fill="#c6beb7" d="M107 76h49v21h-49z"/><path fill="#d4b283" d="M14 112L-8 91l12 87z"/><path fill="#e8e1d4" d="M35.8-16l7.1 53.7L30.6 4.8l14.3 13.4z"/><path fill="#d6d4c9" d="M98.7 143.8l6.6 5.4 71.8-53.5-56.2 60.6z"/><circle r="1" fill="#9aa2b1" transform="matrix(-6.29963 -35.36593 10.6433 -1.89586 36.5 191)"/><path fill="#063290" d="M3 53L-8 41l26 1z"/><path fill="#abbbc4" d="M60.8 144.3l11.4-23.4-39.2-23-6.4-19.4z"/><path fill="#050800" d="M142 11l-6-27-11 42z"/><path fill="#163276" d="M103.3 4l9.1 7.9-15.7 18-9.1-7.8z"/><path fill="#9a7a64" d="M85.5 191.7l56.2-52.3-15.4 23.2-32.5 40.8z"/><path fill="#674d3f" d="M78.2 119l-14.6 3.4L57.8 97l14.6-3.4z"/><path fill="#a4c0da" d="M40 154l18 13-11-38z"/><path fill="#23282b" d="M242.4-16l-73.2 31-20.7 4.4 26.9-22z"/><path fill="#dbcabf" d="M212.1 207.4l-38 9.3 49.7-63.9L190 177z"/><circle cx="79" cy="190" r="4" fill="#080000"/></g></g></svg>