<svg xmlns="http://www.w3.org/2000/svg" viewBox="0 0 1324 1059"><defs/><filter id="a"><feGaussianBlur stdDeviation="12"/></filter><rect width="100%" height="100%" fill="#2d385b"/><g filter="url(#a)"><g fill-opacity=".5" transform="translate(2.6 2.6) scale(5.17188)"><circle cx="179" cy="138" r="233" fill="#ffc7b2"/><ellipse cx="233" cy="100" fill="#fff" rx="28" ry="203"/><ellipse cx="173" cy="36" fill="#720000" rx="34" ry="101"/><circle r="1" fill="#000036" transform="matrix(-7.22779 37.8894 -32.68234 -6.23449 102.4 176.5)"/><ellipse cx="67" cy="101" fill="#e91a1f" rx="141" ry="33"/><circle r="1" fill="#fff" transform="matrix(28.38444 .13299 -.79094 168.81373 235.4 97.8)"/><circle r="1" fill="#300" transform="matrix(17.04926 -7.33187 19.38424 45.07537 104.6 20.2)"/><path fill="#fff" d="M70 133l-82 3 80 54z"/><circle r="1" fill="#002079" transform="matrix(14.87762 -55.13892 23.3159 6.29111 180 203)"/><ellipse cx="162" cy="67" fill="#fff" rx="240" ry="3"/><circle r="1" fill="#0d0000" transform="matrix(-18.81772 20.03884 -7.03047 -6.60205 46.3 33)"/><path fill="#e5ffff" d="M192 134l-56 66v-65z"/><ellipse cx="174" cy="25" fill="#230000" rx="33" ry="40"/><circle r="1" fill="#000722" transform="matrix(57.96855 45.45315 -3.5181 4.4868 36.4 179.9)"/><path fill="#d2ebdd" d="M66 95h33v44H66z"/><ellipse cx="67" cy="54" fill="#fff" rx="3" ry="202"/><ellipse cx="138" cy="118" fill="#fff" rx="3" ry="151"/><ellipse cx="233" cy="142" fill="#fff" rx="27" ry="203"/><path fill="#002957" d="M70 140h67v64H70z"/><circle r="1" fill="#fff" transform="matrix(10.77845 -12.84525 49.711 41.7125 13.5 203)"/><path fill="#bf010f" d="M208 134l-71-2 69-61z"/><circle r="1" fill="#570000" transform="matrix(-11.56555 -44.72068 17.01525 -4.40044 105.2 19)"/><circle r="1" fill="#e8f2cc" transform="matrix(-11.6946 -14.19778 38.37605 -31.61008 15.8 0)"/><ellipse cx="170" cy="202" fill="#0054b1" rx="31" ry="20"/><path fill="#ecf5d4" d="M91.2-16L18.7 13 53.2-1.5-16 66.8z"/><path fill="#d8e4d0" d="M56.3 67.2l2.5-37 37 2.6-2.6 37z"/><path fill="#ffffe8" d="M140.7 93l-40-29.1 33.9 2.1 5.5-4.9z"/><path fill="#9c1925" d="M71 69h37v37H71z"/><circle r="1" fill="#f5fce0" transform="matrix(55.15276 6.18637 -.9218 8.2181 0 59.3)"/><ellipse cx="102" cy="136" fill="#fff" rx="180" ry="2"/><circle r="1" fill="#bf1f28" transform="matrix(35.65657 19.1046 -13.712 25.59188 27.8 100.1)"/><path fill="#c6182a" d="M140 69h67v61h-67z"/><ellipse cx="238" cy="44" fill="#fff" rx="32" ry="197"/><path fill="#003667" d="M206 205.8l-40.1-30.4 33.7-36.8 7.7 4.8z"/><path fill="#00050a" d="M43.3 4.3L-25.4 64l-2-2.3L41.5 2z"/><path fill="#e5efcf" d="M123 0h17v38h-17z"/><ellipse cx="138" cy="91" fill="#fff" rx="2" ry="145"/><path fill="#180000" d="M56 31.8L42.7 57.7 24 48.2l13.1-25.9z"/><path fill="#809c9a" d="M138.9 137.9l19.8 55.5 15.2-26.3-25.1-27.5z"/><path fill="#370900" d="M135 102l1 31h-22z"/><path fill="#bf3039" d="M12 69h54v67H12z"/><ellipse cx="107" cy="138" fill="#fff" rx="169" ry="1"/><path fill="#fff" d="M124 65h86v4h-86z"/><path fill="#00394e" d="M-1.9 168.5l-13.3-13.4 35.5 24.8L60.8 219z"/><ellipse cx="67" cy="89" fill="#fff" rx="2" ry="139"/><path fill="#4d0615" d="M140 0h67v63h-67z"/><path fill="#16385d" d="M71 139h64v65H71z"/><path fill="#c4d7c8" d="M73.7 84.7l17.6 15.5-19.6 2.6-3.6 10.3z"/><path fill="#272626" d="M161.9 163.2l-6.7 15.1-10.2-24 10.6 15.4z"/><path fill="#d8ede6" d="M167.6 179.7l-27 11.7 56.3-54.5-17.7 1.6z"/><path fill="#6b1510" d="M177 109h28v25h-28z"/><path fill="#dff7d6" d="M106 117h15v9h-15z"/><path fill="#a1282d" d="M70.7 122.7l3.7-19.9 63.1 9.9-18.1-39.8z"/><path fill="#9e171d" d="M132.2 65.1l-34.3-.4 15.8-31.6 12.6-2.1z"/><path fill="#4d370a" d="M176 147l10 39-18-3z"/><path fill="#001e38" d="M-6.5 151.2l3.9-4.6 55.1 46.2-3.9 4.6z"/><path fill="#210005" d="M126 12L72-14l27 45z"/><path fill="#aaa79d" d="M101 51l-31-5 1-62z"/><circle r="1" fill="#d5d5b7" transform="rotate(-129.4 13.6 28) scale(8.47487 34.40466)"/><path fill="#822c31" d="M96.3 132.1l30.4-36.5-42.3 30.9 8.3 3.2z"/><path fill="#e9f2db" d="M-10 134l80 48-6-47z"/><ellipse cx="89" cy="136" fill="#fff" rx="192" ry="2"/><circle r="1" fill="#db2d40" transform="matrix(14.47518 -22.4884 16.13549 10.38598 183.9 93.6)"/><path fill="#f6f3e4" d="M104 111l-5 9.8-15-7.8 5-9.8z"/><ellipse cx="231" cy="161" fill="#fff" rx="25" ry="199"/><path fill="#67343b" d="M102.4 47.8L73.4-.7l23 61.2L81.5 2.4z"/><ellipse cx="35" cy="66" fill="#fff" rx="255" ry="2"/><path fill="#000d28" d="M19 7h8L37-7z"/><path fill="#890000" d="M35 34l28-12V4z"/><path fill="#e3ece5" d="M13.4-12.4l62.4 9L67 6.4 35.5 4.5z"/><path fill="#270700" d="M82 105l8 1 12-15z"/><circle r="1" fill="#1357a0" transform="matrix(-.18682 -11.54119 30.8604 -.49954 173.7 196.6)"/><path fill="#fff" d="M207 0h49v204h-49z"/><ellipse cx="68" cy="83" fill="#fff" rx="2" ry="161"/><circle r="1" fill="#0750aa" transform="rotate(-46.3 272.3 -157.8) scale(10.85073 8.45907)"/><path fill="#21362e" d="M6.4 31.3L-16 57l37.5-26.4.5-10.5z"/><path fill="#c42931" d="M59 134L0 115l-16 19z"/><path fill="#d9ece4" d="M195 135l-13 21-25-14z"/><path fill="#95090d" d="M147 110l37-42h-30z"/><path fill="#cfcfba" d="M30.4 169.9L64 191.4 50.6 139l-46.4 3.5z"/><path fill="#6c7f84" d="M140 170l4-32 9 4z"/><path fill="#9c8e69" d="M126 1l6 50-12-23z"/><circle r="1" fill="#02365d" transform="matrix(-14.60648 -10.03876 3.15964 -4.5973 51.3 193.5)"/><path fill="#c6d1b5" d="M62 31L45 58l12 6z"/><path fill="#f5fee6" d="M111 66l27-1-34 11z"/><path fill="#bb1a2b" d="M79 69h28v27H79z"/><path fill="#afcdc7" d="M10.5 175.6l15 3.8L44.4 191l-13.2-5.3z"/><path fill="#8f5955" d="M36.5 64.9L68.8 2.7l-6.6 27.5-3.6 5.8z"/><path fill="#330303" d="M27.5 50.1l11.4 5.6 25.3-36.8-31 8.1z"/><path fill="#53141d" d="M141 0h64v65h-64z"/><ellipse cx="130" cy="137" fill="#fff" rx="163" ry="2"/><ellipse cx="138" cy="99" fill="#fff" rx="2" ry="161"/><path fill="#c64453" d="M93 134l-8-20 33 20z"/><ellipse cx="2" cy="69" fill="#ae1014" rx="108" ry="1"/><path fill="#e5f4ee" d="M136.7 192.7l11.9-37.9-4.5-5.5 9.4 35.2z"/><path fill="#c32330" d="M142 112h29v23h-29z"/><path fill="#c9d3c8" d="M91.7 54.6L67.6-13.2l2.6 47.1 13.1-2.3z"/><path fill="#611b1e" d="M80.6 111.1l43.8-30.8-7.2-5.8 6.6.4z"/><path fill="#aebea8" d="M70 111h17v23H70z"/><path fill="#683031" d="M74.1 100.9l6.5-10.7 23.2-11-1.8 2.1z"/></g></g></svg>