<svg xmlns="http://www.w3.org/2000/svg" viewBox="0 0 1400 1120"><defs/><filter id="a"><feGaussianBlur stdDeviation="12"/></filter><rect width="100%" height="100%" fill="#3f5761"/><g filter="url(#a)"><g fill-opacity=".5" transform="translate(2.7 2.7) scale(5.46875)"><circle cx="165" cy="84" r="219" fill="#fffff4"/><circle r="1" fill="#996e21" transform="matrix(70.96199 91.52215 -47.65083 36.94622 41.5 108.8)"/><circle cx="234" cy="98" r="128" fill="#e3ffff"/><circle r="1" fill="#003262" transform="matrix(1.82526 48.56816 -32.17395 1.20914 190.6 99)"/><circle r="1" fill="#fff" transform="matrix(-3.87984 32.06125 -71.96106 -8.70824 200 26.2)"/><circle r="1" fill="#324961" transform="matrix(25.58146 -24.79016 30.0466 31.00568 80.9 100.3)"/><ellipse cx="198" cy="183" fill="#fff" rx="81" ry="41"/><circle r="1" fill="#00708a" transform="matrix(-16.69951 42.94782 -24.24693 -9.428 188.7 103)"/><ellipse cx="23" cy="184" fill="#f3ac5e" rx="106" ry="51"/><ellipse cx="91" cy="26" fill="#a69b7a" rx="36" ry="74"/><path fill="#efa139" d="M98 110h29v94H98z"/><ellipse cx="144" cy="98" fill="#fff" rx="18" ry="203"/><path fill="#18a2af" d="M79 82L54 33l-70 26z"/><path d="M160 82h60v11h-60z"/><circle r="1" fill="#fff" transform="matrix(-1.14293 -83.30363 26.61287 -.36513 247.5 101.5)"/><circle r="1" fill="#2b0000" transform="matrix(8.80086 7.95849 -18.166 20.08879 83.6 128.4)"/><circle r="1" fill="#e381ff" transform="matrix(3.11362 -24.30562 12.02324 1.54021 53.3 133.7)"/><circle r="1" fill="#001c00" transform="matrix(1.987 -23.61486 10.84955 .9129 54.6 87)"/><path fill="#007ecb" d="M160 58h60v18h-60z"/><path fill="#0092af" d="M160 98h62v46h-62z"/><circle r="1" fill="#0ea7ff" transform="matrix(-21.84419 -11.99383 4.65377 -8.47584 106.4 88.1)"/><path fill="#134a7a" d="M92.2 26.8l13.3 11.5 22.3-10-4.2-23.4z"/><path fill="#ebb063" d="M59.3 52.3l61.8-20 9.6 29.4-61.8 20z"/><circle r="1" fill="#e0ffff" transform="matrix(-47.40265 5.82031 -1.5388 -12.53254 .8 2.6)"/><path fill="#1c7bc8" d="M127 229.5l-6.8 5.9L69 176.5l6.8-5.9z"/><circle r="1" fill="#d0d05f" transform="matrix(-31.96695 36.72104 -13.39761 -11.6631 4.8 106.1)"/><circle r="1" fill="#d08f42" transform="matrix(2.89056 8.25415 -60.45502 21.17105 74.4 16)"/><ellipse cx="218" cy="17" fill="#fffefc" rx="93" ry="42"/><ellipse cx="178" cy="95" fill="#fcfff5" rx="52" ry="2"/><circle r="1" fill="#92e8ee" transform="matrix(27.4786 -9.46164 2.7753 8.06008 65.5 37.3)"/><circle r="1" fill="#486371" transform="matrix(-60.41018 21.5224 -2.58206 -7.24747 12.9 22.4)"/><path fill="#336100" d="M31 83h8v44h-8z"/><path fill="#9ac8d9" d="M80.8 113.5l-10.7-8.1-10.5-49.5 13.1 3.6z"/><path fill="#ed6e35" d="M73.9 68.9l52.5 77.7-24.8-56-28.9 6.3z"/><path fill="#ffe9e9" d="M170.1 131.5l-12.7-5.2 19.3 1.3 72.5-5.4z"/><circle r="1" fill="#005187" transform="matrix(21.30186 -11.97855 4.43637 7.88935 10.9 64)"/><path fill="#fffbfb" d="M127.8-16l-1.4 138.3-13.3-14.4 48.1 2.2z"/><path fill="#0081b2" d="M160.8 77.8l61.4-2.2-6.6-14.6-53.7-6.4z"/><path fill="#dcffff" d="M39 76h4v40h-4z"/><path d="M83 93l3 48 12-34z"/><path fill="#315168" d="M59.3 49.1l49.1-19.8 2.3 5.6-49.1 19.8z"/><path fill="#001b03" d="M60 66l-23 50 27-12z"/><path fill="#f1d0ff" d="M68.9 120.7l-20.5 3.6-6.5-7.6 17.8-9.5z"/><path fill="#a43f00" d="M59 178.8l21 26.8-7 5.6-21-26.8z"/><path fill="#fff" d="M8 172l-22 11 15-26z"/><path fill="#ebf1f6" d="M124 78h128v2H124z"/><path fill="#b9dcff" d="M15.6 66.5L9.3 51.8l17.1-8.7L-4 52z"/><path fill="#dabca7" d="M173 144l32 11 18-16z"/><path fill="#9c567d" d="M53 123h16v33H53z"/><path fill="#3b0100" d="M218.5 122.8l-9-.5-69.1 5.6 62.2-3.2z"/><path fill="#c10000" d="M101.7 100.3l5.9 1.2-7.3 34.2-5.9-1.2z"/><path fill="#0e1012" d="M161 83h60v11h-60z"/><path fill="#dba34c" d="M40.4 120.3L33 208.2l-16.3-23.3-32.7-59.8z"/><path fill="#927c8d" d="M73.3 153l7.1-58.8 6.1 27.4-3.8 6.7z"/><path fill="#d68546" d="M115.9 39.4L52 58l-15.7 5.3L9.1 78.8z"/><path fill="#c6ffab" d="M15 78l1 24 22-34z"/><path fill="#b8a8d3" d="M60.3 156.2L38 169.6l-8.3-13.8L52 142.4z"/><path fill="#eff3fb" d="M221 62h35v142h-35z"/><path fill="#00925d" d="M52 94L39 69l18-9z"/><ellipse cx="144" cy="118" fill="#f7f4f3" rx="17" ry="136"/><path fill="#39aef9" d="M107.8 65.5l18.8 52.3-29.5-29.3-14.3-6.9z"/><circle r="1" fill="#0b0600" transform="matrix(3.12797 .16418 -1.0436 19.88282 72.3 127.7)"/><path fill="#f3d8b2" d="M-6.9 215.1L1.3 181 72 219l-36.2-28.8z"/><ellipse cx="196" cy="135" fill="#006cb3" rx="26" ry="7"/><path fill="#cac7f8" d="M109.1 63.2l8.8 2.2 13.8 36.2-29.1-28.4z"/><circle cx="176" cy="194" r="50" fill="#f1f0f3"/><path fill="#d09949" d="M127 117L13 184l113-26z"/><path fill="#c7d0cb" d="M83.1 186.9l-19.2-10.2-9.8 4.7 22-12.9z"/><path fill="#008f95" d="M179 96h42v26h-42z"/><path fill="#80ae04" d="M22 89h15v33H22z"/><path fill="#00bbd0" d="M161 99h15v25h-15z"/><path fill="#62bdd0" d="M64 62h10v36H64z"/><path fill="#33253f" d="M3.4 53.7L15.3 69l-18.8 5.4-12.5-3.3z"/><path fill="#cef2ff" d="M67.2 31.3l-.7-1.9 38.3-14.7.7 1.9z"/><path fill="#0070a7" d="M206 60h15v19h-15z"/><path fill="#e0c26c" d="M127 219l-2-54-45 11z"/><path fill="#213534" d="M99.7 209.8L86 196.6l6.3-6.4 13.7 13.2z"/><path fill="#62d799" d="M38 58l42.4-17.3-37.8 1.1-19.9 3.9z"/><circle r="1" fill="#985e27" transform="matrix(22.36144 -13.01038 4.27823 7.35315 0 40.9)"/><path fill="#101308" d="M79.9 151.6l15-35.5-20.3-18 17.9 1.8z"/><path fill="#686261" d="M-6.9 72.4L99.8 36.1l11.7-.4L23 70.8z"/><path fill="#d2a05a" d="M126 73l-25-33 25-12z"/><path fill="#c0ecf5" d="M65.7 61.4l-4.4-10.1L78.9 73 53.5 61.5z"/><path fill="#e2e9ff" d="M42.6 42.5l.4 36.8-12.4-14.8 12.6 24.2z"/><path fill="#00000b" d="M67 104.4l10.8 10.4-2.8 2.8-10.8-10.4z"/><ellipse cx="177" cy="80" fill="#00518e" rx="17" ry="2"/><path fill="#002" d="M37 81h2v37h-2z"/><path fill="#0287c9" d="M86 77l42 19-29-24z"/><path fill="#0083d4" d="M162 130h20v13h-20z"/><path fill="#1b455e" d="M107.3 35.7l-6.9-18.2.3 1.6-11.5 5.4z"/><path fill="#a36d34" d="M28 184l-29-6 21-8z"/><path fill="#0a051b" d="M160 75.7v-1l44 1.6v1z"/><path fill="#000e03" d="M58.8 68.6l6.7 1.9-8.3 30.9-6.7-1.9z"/><path fill="#080000" d="M162 124h20v3h-20z"/><ellipse cx="180" cy="45" fill="#f6f6f5" rx="52" ry="11"/><path fill="#dbdfff" d="M44.5 194l-8 6-3-4 8-6z"/><path fill="#004b1c" d="M44 78h12v33H44z"/><path fill="#efffff" d="M-3.8 180l-6.5-12.4 14-7.5 6.6 12.3z"/><path fill="#ff0434" d="M107 100.1l-4 4.5-12-10.7 4-4.5z"/><path fill="#009895" d="M26 46L10 56l30 2z"/></g></g></svg>