<svg xmlns="http://www.w3.org/2000/svg" viewBox="0 0 1120 1400"><defs/><filter id="a"><feGaussianBlur stdDeviation="12"/></filter><rect width="100%" height="100%" fill="#7f4b45"/><g filter="url(#a)"><g fill-opacity=".5" transform="translate(2.7 2.7) scale(5.46875)"><circle r="1" fill="#b3e1ac" transform="matrix(197.04674 48.80145 -35.35196 142.74141 101.8 114.9)"/><circle r="1" fill="#8c2600" transform="matrix(107.76434 32.94868 -9.1502 29.92729 47.3 184.6)"/><circle r="1" fill="#00480b" transform="matrix(1.41587 -12.0796 155.19151 18.19023 64.7 77)"/><circle r="1" fill="#43ade8" transform="rotate(86.9 -50 75.6) scale(28.22347 168.58735)"/><circle r="1" fill="#ffe5c4" transform="matrix(-82.263 167.13373 -36.54755 -17.98866 203 200.4)"/><circle r="1" fill="#fad178" transform="rotate(-177.8 65.7 13.1) scale(176.37221 29.29377)"/><path fill="#dfffff" d="M106.2 280.3l-32.1-37 31.7-27.6 32.1 37z"/><path fill="#003f8f" d="M162 98h28v38h-28z"/><circle r="1" fill="#ffdce6" transform="matrix(-.97228 8.1538 -77.3814 -9.22717 104.4 136.3)"/><circle r="1" fill="#bfeeff" transform="matrix(-.67153 10.38434 -56.29177 -3.64023 41.6 45.4)"/><ellipse cx="155" cy="63" fill="#a2c408" rx="59" ry="17"/><circle r="1" fill="#c05d4e" transform="matrix(2.0005 -25.1977 48.61012 3.85927 129.9 171.5)"/><ellipse cx="38" cy="75" fill="#001a1c" rx="48" ry="10"/><circle r="1" fill="#652300" transform="matrix(2.8894 -13.8308 94.30209 19.70073 58.7 197.7)"/><path fill="#bbfcff" d="M-14 81l73 32 26-23z"/><path fill="#f8a639" d="M-6 154.7l104.9 14.8-2.8 19.8-105-14.8z"/><ellipse cx="52" cy="233" fill="#8bdaff" rx="20" ry="14"/><circle r="1" fill="#0061a5" transform="rotate(9.5 -847.5 175.8) scale(39.02875 13.3474)"/><circle r="1" fill="#32aa8b" transform="rotate(97.7 11.3 70.4) scale(6.5341 91.42339)"/><path fill="#2e6c93" d="M77 266l-93-71 2 69z"/><path fill="#c5dff7" d="M111 253l-28-1 31-63z"/><path fill="#4a0000" d="M117 198h28v31h-28z"/><circle r="1" fill="#99793c" transform="rotate(119.2 36.8 105.8) scale(77.08968 6.78694)"/><path fill="#2a6b89" d="M95 109h57v23H95z"/><ellipse cx="62" cy="213" fill="#dcdab7" rx="7" ry="13"/><path fill="#00dcff" d="M165 100h27v11h-27z"/><path fill="#dfc5ff" d="M178.1 138.2l-3.6 20.7-28.6-5 3.6-20.8z"/><path fill="#005918" d="M87.5 96.3l-13-10.9 20-23.7 13 10.9z"/><path fill="#006a00" d="M143.1 81.9l-1.2 10.5 21 14.1.2-23.7z"/><path fill="#002b5b" d="M164 113h25v24h-25z"/><path fill="#001819" d="M34.2 70L50 72.6 21 90.2l-37-41z"/><path fill="#019fbb" d="M18 88l-1 59-33-49z"/><path fill="#75713a" d="M91.4 139.3l30.5-47 6.7 4.4-30.5 47z"/><path fill="#002104" d="M67 83l-15-9-1 20z"/><circle r="1" fill="#fdeef7" transform="rotate(-113.5 81.8 44) scale(10.97497 16.2628)"/><circle r="1" fill="#32354a" transform="matrix(-5.71699 14.53926 -6.98279 -2.7457 68.9 250)"/><circle r="1" fill="#bcffff" transform="rotate(-102.5 70 49.3) scale(6.69569 14.57567)"/><path fill="#ada000" d="M125.5 58l3.9-13.9 22.1 6.2-12.8 42.5z"/><path fill="#9ab6bf" d="M23.8 222.7l2.1-34L-16 239l26.1-2.8z"/><path fill="#fabfac" d="M126.5 138l-15.2-42.5 13.5 18.9-36.6 35z"/><path fill="#380f00" d="M69 190h29v27H69z"/><path fill="#78f3ea" d="M106.8 105l-24.7-1.6 56-34.4-25.7-.6z"/><ellipse cx="61" fill="#c39458" rx="203" ry="21"/><path fill="#2f281c" d="M28 252l-1-33-30 40z"/><path fill="#7bf6ff" d="M128 97h24v13h-24z"/><path fill="#354a00" d="M190 60h14v14h-14z"/><path fill="#ac5a02" d="M44.5 224.6l-61.2-23.3 46.5-43.9-2.5 39.4z"/><path fill="#923605" d="M123.4 180.9l-23.3-9 6.5-16.8 23.3 9z"/><path fill="#ade593" d="M163.6 84.3l43.1-2.2-26.4-20.5-4.9 36.6z"/><circle r="1" fill="#e6d1bf" transform="rotate(162.1 77 136.2) scale(72.25564 24.01922)"/><path fill="#a5671f" d="M147.3 227.7l-38.6 41.7 21.8-35.8-64.8-19.3z"/><path fill="#7d8688" d="M43.1 96.6l31.3 26.6-63.7 33.9 55 8.7z"/><path fill="#00427b" d="M13.5 154.4l-29.5-3.8 42-30.4-10.2 29.4z"/><ellipse cx="168" cy="51" fill="#ffe48c" rx="21" ry="6"/><path fill="#099b63" d="M37.7 64.6l60.1-.2 19.5 35.7L134.8 81z"/><path fill="#fff" d="M82.2 91.8l-8.1 9.4-23.5-2.6 14-10z"/><circle r="1" fill="#71f9ff" transform="rotate(-107.9 36.4 41) scale(5.83442 11.58199)"/><path fill="#814263" d="M170.7 152.1l-2.5 28-24.9-2.2 2.5-28z"/><path fill="#6c2a00" d="M28 206l29 3 14-45z"/><path fill="#49e7ff" d="M-1 114l3 18 19-12z"/><path fill="#eaffff" d="M108 230v35l19-32z"/><path fill="#e7b77e" d="M149 127l10 7 5-33z"/><circle r="1" fill="#ddf7f5" transform="matrix(-.32099 4.00232 -78.48444 -6.29454 36.3 42.5)"/><path fill="#b39695" d="M50.8 137.7l57.5 5.8-9.2 20 23.6 31.7z"/><circle r="1" fill="#ffc238" transform="matrix(-16.59688 7.66524 -3.82298 -8.27756 5 166)"/><circle r="1" fill="#9cc5ef" transform="matrix(-2.0406 -9.2658 22.86417 -5.03537 50.9 232.4)"/><path fill="#1c8bae" d="M85 105h28v21H85z"/><path fill="#24841d" d="M200.5 86.8l-2.3 22.4-21.6-18 17.9-7.8z"/><path fill="#f1ffff" d="M28 86h19v10H28z"/><path fill="#d6b98b" d="M79.7 50.6l112.7-15.8-4.4 45.1-24.4-68.7z"/><path fill="#b3a200" d="M178 59l-5 39-18-42z"/><path fill="#7ef596" d="M145 71h21v10h-21z"/><ellipse cx="44" cy="53" fill="#99b1b9" rx="46" ry="6"/><circle r="1" fill="#00502c" transform="matrix(2.41963 -8.2745 24.5494 7.17874 77.7 81.7)"/><circle r="1" fill="#5f7b64" transform="matrix(-30.14765 -6.06976 1.0153 -5.0429 8.5 112)"/><ellipse cx="188" cy="161" fill="#d8ac7e" rx="18" ry="23"/><path fill="#0a77b8" d="M122 108h25v23h-25z"/><circle r="1" fill="#c8967d" transform="matrix(-4.07943 -4.43457 22.90745 -21.0729 129 177.2)"/><path fill="#ff0" d="M129 46h19v9h-19z"/><path fill="#636b75" d="M24 243.1l67.2 7.6 46 20.3-112.9-12.1z"/><path fill="#f7a45b" d="M41.1 162.7l22.5-6.2-8.9 25.2-33-3.9z"/><path fill="#797400" d="M139 78l-16-25 28 4z"/><path fill="#c6ae73" d="M206 65l-22 92 35-60z"/><path fill="#8f4c00" d="M168.8 183.4l-24.7-3.9 1.1-7 24.7 4z"/><path fill="#8e9333" d="M101.4 89.2l4.1-36.3-37.9 14 45.4-2.7z"/><path fill="#6d7b73" d="M67.2 113.8l6 5.3-18.4 21-6-5.2z"/><path fill="#ae8c85" d="M146 198h11v34h-11z"/><path fill="#f3b97f" d="M134 79h5v16h-5z"/><path fill="#cfa875" d="M26.3 194.7l-.8 21.2-22.7-4.5 19.5-16.7z"/><path fill="#624c23" d="M96 194l15-24-6 41z"/><path fill="#ba879a" d="M131 142l-4 16 59 7z"/><path fill="#85efff" d="M90 94h23v12H90z"/><circle r="1" fill="#8fcffb" transform="matrix(-1.87164 -10.09849 17.4463 -3.23348 39.1 131)"/><path fill="#00a5a6" d="M51 62h18v10H51z"/><path fill="#5ea1d2" d="M-4.9 227L-16 208.3l44.3 8.1-19.4 24.5z"/><circle r="1" fill="#9f7550" transform="matrix(-19.00395 -16.26431 8.65354 -10.11118 81.3 172)"/><path fill="#0f3901" d="M91.2 94.1l-9.6 7.4 5-16.8 8.4 2.6z"/><path fill="#b07113" d="M88.9 226.9l-3.4 8-20.1-22 38 13.4z"/><path fill="#25683d" d="M137.3 92.3l-54.7-.5 36 1.9-11 14.2z"/><path fill="#00adff" d="M178.9 112.2l2.5-12.7 11.7 2.3-2.5 12.7z"/></g></g></svg>