<svg xmlns="http://www.w3.org/2000/svg" viewBox="0 0 1400 1120"><defs/><filter id="a"><feGaussianBlur stdDeviation="12"/></filter><rect width="100%" height="100%" fill="#825c3e"/><g filter="url(#a)"><g fill-opacity=".5" transform="translate(2.7 2.7) scale(5.46875)"><circle r="1" fill="#c5ffff" transform="matrix(-240.60328 -4.61982 2.19012 -114.0631 116 96.3)"/><ellipse cx="54" cy="38" fill="#fff" rx="78" ry="158"/><circle r="1" fill="#006c85" transform="matrix(-69.26276 66.08375 -41.30714 -43.29425 203 47.7)"/><path fill="#004380" d="M41.1 134L44 80l37 2-2.8 54z"/><ellipse cx="127" cy="163" fill="#edeaf2" rx="206" ry="31"/><path fill="#000300" d="M122 91h39v22h-39z"/><circle r="1" fill="#fff" transform="matrix(-92.95133 211.7413 -40.8487 -17.93198 10.6 59.5)"/><circle r="1" fill="#017a87" transform="matrix(25.07866 -5.8584 14.57938 62.4115 167.4 31.3)"/><ellipse cx="225" cy="77" fill="#054658" rx="90" ry="16"/><circle r="1" fill="#fff" transform="matrix(-.31904 -91.39651 2.90563 -.01014 201.3 66.6)"/><path fill="#008aa5" d="M42 82h36v52H42z"/><path fill="#9eb2bb" d="M165 93h91v100h-91z"/><path fill="#949d00" d="M161.2 117.3l.6 16-41 1.4-.6-16z"/><path fill="#9df7ff" d="M135.2 70.5l-14.7 32.7L131-16l19 60.4z"/><path fill="#843b0d" d="M122 194h120v7H122z"/><circle r="1" fill="#3ce5f3" transform="matrix(-101.38702 .29951 -.0179 -6.05817 229.3 44.6)"/><path d="M44 96h37v9H44z"/><ellipse cx="210" cy="28" fill="#fffcf8" rx="97" ry="2"/><path fill="#2f6e75" d="M256 124V76l-47 49z"/><circle r="1" fill="#e7e6e9" transform="matrix(71.1903 -9.33137 1.97312 15.05318 172.7 143.6)"/><ellipse cx="209" cy="11" fill="#3ce2e0" rx="79" ry="7"/><path fill="#d28535" d="M0 193h80v11H0z"/><ellipse cx="102" cy="179" fill="#ddd6d5" rx="23" ry="181"/><path fill="#fcfcf8" d="M0 0h82v82H0z"/><path fill="#fff5f0" d="M64 60h183v3H64z"/><ellipse cx="210" cy="109" fill="#b7dadd" rx="49" ry="7"/><path fill="#00313e" d="M144 54h112v6H144z"/><ellipse cx="144" cy="115" fill="#fff" rx="23" ry="3"/><path fill="#b2cfcc" d="M105 81h57v11h-57z"/><path fill="#0d1922" d="M133 63h111v5H133z"/><path fill="#06b3c1" d="M47 104h34v26H47z"/><ellipse cx="201" cy="50" fill="#ede5e5" rx="4" ry="57"/><path fill="#fffff8" d="M42 82l2 95-51-17z"/><path fill="#003d00" d="M127 93h32v19h-32z"/><path fill="#06363a" d="M144 21h112v5H144z"/><path fill="#a63c00" d="M125 201h58v3h-58z"/><path fill="#a0a49e" d="M260 161.3l-6.6 35.3 8.1 22.4-84.9-63.3z"/><path fill="#fff1f2" d="M123 0h8v81h-8z"/><ellipse cx="231" cy="32" fill="#003b4b" rx="27" ry="4"/><ellipse cx="24" cy="191" fill="#9a7b4b" rx="4" ry="33"/><path fill="#171117" d="M160 88h96v4h-96z"/><path fill="#607800" d="M126 118h33v9h-33z"/><path fill="#009cdc" d="M45 83h36v14H45z"/><path fill="#22626e" d="M164 121h84v5h-84z"/><path fill="#02303a" d="M145 30h56v5h-56z"/><path fill="#089daf" d="M271 77.1l-118.3-3.8L134.3 59l-5.2 23.7z"/><ellipse cx="201" cy="63" fill="#f1ebeb" rx="3" ry="94"/><path fill="#1a0000" d="M47 122h35v2H47z"/><path fill="#50cfd9" d="M141.3-36.2l3.4 96-12 .4-3.4-96z"/><path fill="#fffdfc" d="M191 93h55v2h-55z"/><ellipse cx="233" fill="#00787a" rx="92" ry="6"/><path fill="#dffaff" d="M184 201h36v3h-36z"/><path fill="#fff1ec" d="M37 126.7v-1l44-2.4v1z"/><path fill="#afbf00" d="M124 121h38v13h-38z"/><path fill="#186071" d="M205 96h51v5h-51z"/><path fill="#0093df" d="M43 126h38v8H43z"/><path fill="#ffd3d4" d="M49 104h35v2H49z"/><path fill="#efe4c8" d="M34.9 195l33.5-20.3-66.9 27-17.5-20.3z"/><ellipse cx="235" cy="51" fill="#0091a3" rx="31" ry="4"/><path d="M124 93h37v8h-37z"/><path fill="#dae0ea" d="M122 133h44v58h-44z"/><ellipse cx="103" cy="157" fill="#d2d0cf" rx="24" ry="61"/><path fill="#99a0aa" d="M166 167h57v28h-57z"/><path d="M45 98h29v4H45z"/><path fill="#c8c1b5" d="M220 126h36v48h-36z"/><path fill="#002f37" d="M161 63h13v30h-13z"/><path fill="#00863c" d="M126 101h36v10h-36z"/><path fill="#efc7bc" d="M53 94h32v2H53z"/><ellipse cx="201" cy="15" fill="#d2d9dc" rx="3" ry="164"/><circle r="1" fill="#0095a6" transform="matrix(28.2864 -.06504 .00825 3.58578 233.6 36.9)"/><circle r="1" fill="#5f5842" transform="matrix(-.02532 -3.0824 31.80989 -.2613 230.7 196.5)"/><path fill="#d9dde2" d="M161 126h50v30h-50z"/><path fill="#fff6f7" d="M140 60h116v2H140z"/><ellipse cx="233" cy="18" fill="#008d92" rx="31" ry="3"/><path fill="#fff" d="M31.9 195.2l-8.5-40.1 10.7-2.3 8.5 40.1z"/><path fill="#0a6b86" d="M165 96h32v4h-32z"/><path fill="#5f614d" d="M0 201h60v3H0z"/><path fill="#fffffe" d="M170 93h29v2h-29z"/><path d="M126 118h35v2h-35z"/><ellipse cx="166" cy="28" fill="#fbeeec" rx="94" ry="1"/><path fill="#dcd9d6" d="M81 12h42v125H81z"/><path fill="#00afb8" d="M43 106h37v16H43z"/><ellipse cx="198" cy="42" fill="#2f8792" rx="1" ry="50"/><ellipse cx="252" cy="87" fill="#153843" rx="48" ry="5"/><path fill="#1bb1bc" d="M182 45l-37-15-3 24z"/><path fill="#cb8845" d="M22 194h54v8H22z"/><path fill="#22b5c3" d="M189.1 56.9l-18.5-23.4 33.2 5.3-23.7-9.3z"/><path fill="#068495" d="M204 73h52v11h-52z"/><path fill="#add1da" d="M162 103l-3 14 45-6z"/><path fill="#00001e" d="M46 93h28v1H46z"/><path fill="#009ad0" d="M44 83h37v9H44z"/><path fill="#007f81" d="M163.5 25l10-9.4L143 4.8 157.9-16z"/><path fill="#3e7074" d="M205 118h51v8h-51z"/><path fill="#004854" d="M204 52h33v7h-33z"/><path d="M43 97h30v5H43z"/><path fill="#08899a" d="M133 72h65v9h-65z"/><path fill="#5ccad3" d="M196.8 43.6L181 52.9l-17.3-10.3 21-3.6z"/><path fill="#93836e" d="M168 157h4v39h-4z"/><path fill="#70d5de" d="M236.7 50.2l9.1-10.3 20.4 14.3-42.5-16.4z"/><path fill="#edede3" d="M42 135h37v59H42z"/></g></g></svg>