<svg xmlns="http://www.w3.org/2000/svg" viewBox="0 0 1120 1400"><defs/><filter id="a"><feGaussianBlur stdDeviation="12"/></filter><rect width="100%" height="100%" fill="#364352"/><g filter="url(#a)"><g fill-opacity=".5" transform="translate(2.7 2.7) scale(5.46875)"><ellipse cx="101" cy="75" fill="#fff" rx="108" ry="213"/><circle cx="142" cy="39" r="114" fill="#fffffd"/><circle r="1" fill="#4d2700" transform="rotate(-174.9 42.7 98.1) scale(203 19.50777)"/><circle r="1" fill="#e9ad51" transform="matrix(81.4648 -5.03831 1.36483 22.06811 31.3 235.4)"/><circle cx="184" cy="189" r="41" fill="#393f29"/><circle cx="94" cy="85" r="42" fill="#fff"/><ellipse cx="21" cy="184" fill="#2d2000" rx="28" ry="26"/><circle r="1" fill="#b49f75" transform="rotate(113.7 5.4 172.3) scale(18.06733 90.7748)"/><ellipse cx="106" cy="255" fill="#f5fcfb" rx="48" ry="22"/><circle r="1" fill="#cdd0b2" transform="matrix(1.29357 116.2786 -49.61 .5519 0 47.5)"/><path fill="#6e6045" d="M13.5 41.5h37v39h-37z"/><path fill="#878f5e" d="M200.4 46.3l-40 1.4-.8-24 40-1.4z"/><path fill="#bac1b4" d="M83 126h85v64H83z"/><circle r="1" fill="#926326" transform="matrix(-5.64081 -18.22253 59.10894 -18.29727 58.2 209.7)"/><ellipse cx="150" cy="176" rx="3" ry="22"/><path fill="#53442f" d="M48 129l27 2-67 34z"/><circle r="1" fill="#d8e8df" transform="matrix(192.35006 -30.12121 3.53975 22.60436 53.5 14.1)"/><path fill="#a1a99b" d="M35 136h81v49H35z"/><path fill="#f4fefb" d="M49 48h77v77H49z"/><path fill="#e8f3f6" d="M117 113h17v78h-17z"/><path fill="#373a22" d="M165.1 90.5l-15-1 .8-10 15 1z"/><ellipse cx="5" cy="114" fill="#ddebe8" rx="12" ry="49"/><path fill="#796e53" d="M42.4 102.8L15.1 105l9.5 20.5 20.6.6z"/><circle r="1" fill="#c5a166" transform="matrix(47.97636 -1.3401 .49901 17.86483 29 245.2)"/><path fill="#524835" d="M219.5 204.2l-50 2.6-3-57 50-2.6z"/><path fill="#dae6f5" d="M117 204h12v52h-12z"/><circle r="1" fill="#3d738c" transform="matrix(-27.84097 -36.98821 5.11774 -3.85211 176.4 236)"/><path d="M155.6 192.7l-.2 6-39-1.4.2-6z"/><path fill="#000105" d="M13.4 158.1l14.2 21.8-40.3 20.5 37.6 2.6z"/><path fill="#388bb3" d="M140.2 232.2L129.7 192l1.1 26.9-14.6 15.6z"/><ellipse cx="160" cy="160" fill="#e2efeb" rx="5" ry="22"/><path fill="#000005" d="M131 244h4v12h-4z"/><circle r="1" fill="#bb9255" transform="matrix(-28.57771 -52.17848 8.36116 -4.57934 163.3 249.6)"/><path fill="#cdd5c9" d="M63.8 57.5L38 98.4l-41.3-4 73.5 21.9z"/><path fill="#370900" d="M139 158h14v5h-14z"/><path fill="#890000" d="M111 207l8 4-5 17z"/><path fill="#985b0f" d="M220.8 270.5l-10.2 6.4-33.4-53.4 10.2-6.4z"/><circle cx="181" cy="206" r="16" fill="#181b1c"/><path fill="#fff" d="M115 75h14v76h-14z"/><path fill="#466168" d="M72 204l19 3-42 40z"/><path fill="#f1ffff" d="M17 127h21v11H17z"/><path fill="#58544f" d="M108.8 159l-3.8 12.2 13.6 32.2-3.9-35.5z"/><path fill="#5e2d32" d="M39 132h37v7H39z"/><ellipse cx="98" cy="136" fill="#b0bdc5" rx="6" ry="50"/><path fill="#662d00" d="M30 186h39v15H30z"/><path fill="#d3e2d5" d="M219 149L199.5 36.9 159.4 150l38.6-2.7z"/><path fill="#fff" d="M-12 167l5-14h32z"/><path fill="#6f6444" d="M23 141h12v44H23z"/><path fill="#c8beb0" d="M60 228h47v21H60z"/><path fill="#b5c0be" d="M117.2 165.4l23.3-11.4L50 134.5l7.4 25.1z"/><path fill="#fff" d="M131.3 237.9l-.2 29.7-23.4-3.3 4.3-24.5z"/><path fill="#abbab6" d="M130 70h6v119h-6z"/><path fill="#293434" d="M28 61h12v12H28z"/><path fill="#b2a688" d="M13 75h38v23H13z"/><path fill="#5b2f25" d="M15 43h5v41h-5z"/><path fill="#8f9497" d="M80.4 142.2l.3-17 33 .6-.4 17z"/><path fill="#2e2e21" d="M162.5 135.1l-15-.2v-4l15 .2z"/><path fill="#fff" d="M69 51h62v14H69z"/><path fill="#77532d" d="M166 149h38v18h-38z"/><path fill="#81968e" d="M155.8 192.9l-6.6-36.7 33.8 11.7-20.3 34.8z"/><ellipse cx="47" cy="171" fill="#867e55" rx="9" ry="16"/><ellipse cx="35" cy="101" fill="#eef6f3" rx="25" ry="4"/><path fill="#bfa46c" d="M92.8 207.8l-39.3-4.7 58.7-1.4-.9 33.5z"/><ellipse cx="107" cy="71" fill="#b6c7c8" rx="45" ry="3"/><path fill="#c5d0c4" d="M190 23L34 62 4 18z"/><path fill="#aa9d83" d="M68 221l1-13-39 10z"/><path fill="#b5c3be" d="M120 164h27v28h-27z"/><path fill="#adc4c4" d="M166 229l9-3 17 16z"/><circle r="1" fill="#708083" transform="matrix(7.1644 .56447 -.97847 12.41907 203 167.1)"/><path fill="#2a2b34" d="M46.3 128.3l6-.5 1.4 16-6 .4z"/><path fill="#8a826d" d="M16 104h32v22H16z"/><circle cx="11" cy="174" r="13" fill="#323f3d"/><path fill="#b5b996" d="M30.2 74.3L17.3 99.8l18.5-66.6-22.7 34.3z"/><path fill="#232628" d="M36 147l5-5 8 6z"/><path fill="#fdfffe" d="M82 68l14.4 30.2-21.9 33.2 2.9 24.5z"/><path fill="#0f7ec3" d="M117 227h28v4h-28z"/><path fill="#cfd9cc" d="M73 131L63 93l-12 37z"/><ellipse cx="48" cy="222" fill="#412918" rx="9" ry="3"/><path fill="#9b8450" d="M136 199.1l-15.7-2.8 13.4 20.4-17.6.1z"/><circle r="1" fill="#d9e4e3" transform="matrix(1.72794 -13.12503 76.38234 10.05593 34.9 5.7)"/><ellipse cx="178" cy="36" fill="#827647" rx="19" ry="3"/><path fill="#929a94" d="M87.7 147.4l-8 34 17.5.3-64.3-.7z"/><path fill="#181513" d="M148 198h10l-9-36z"/><path fill="#52300e" d="M139 163l-1-6 14-1z"/><path fill="#d0dccd" d="M205.6 82l-70.5-.6 1-43.5 52.6 16.6z"/><path fill="#294350" d="M96 169l17 2v-5z"/><path fill="#d1d7bf" d="M36 125h3v54h-3z"/><path fill="#c4d1d7" d="M83.3 174.2l21-42.3-18.7 11.3L98 182z"/><path fill="#001132" d="M42 63h6v5h-6z"/><path fill="#fff" d="M65 51h68v17H65z"/><path fill="#2b1907" d="M187.8 161.4l2-6.6 12.4 3.8-2 6.6z"/><circle cx="107" cy="141" r="4" fill="#344b6b"/><path fill="#003d6e" d="M55.8 245.3l-4.7-1.6 3.8-4 7.4-18.6z"/><path fill="#c9e2f6" d="M149 240l-2 31-16-36z"/><path fill="#3e3e3e" d="M72 205l-2 13 31-3z"/><circle r="1" fill="#cba261" transform="matrix(-17.23744 7.8811 -5.81623 -12.72119 35.3 243.1)"/><path fill="#465769" d="M213.9 271l-20.8-.7-34.3-41.7 33.1 17.7z"/><path fill="#b6c5c3" d="M95 72h7v35h-7z"/><circle r="1" fill="#2f4531" transform="matrix(9.21018 -3.37045 1.1976 3.2726 54.5 209.5)"/><path fill="#b3ada2" d="M63.7 221l48.3-6.7-42.4 26.2 82.3-6.8z"/></g></g></svg>