<svg xmlns="http://www.w3.org/2000/svg" viewBox="0 0 933 1400"><defs/><filter id="a"><feGaussianBlur stdDeviation="12"/></filter><rect width="100%" height="100%" fill="#3a494e"/><g filter="url(#a)"><g fill-opacity=".5" transform="translate(2.7 2.7) scale(5.46875)"><circle cx="121" cy="40" r="249" fill="#fff"/><circle r="1" fill="#210000" transform="matrix(11.03124 -85.1673 22.24012 2.88064 69.3 105.3)"/><path fill="#fff" d="M244.8 237.1l-107.3 19L93.2 4.8l107.3-19z"/><ellipse cx="5" cy="78" fill="#fff" rx="27" ry="255"/><circle r="1" fill="#fffcf0" transform="matrix(4.8037 -35.15675 167.44417 22.87905 83.1 237.8)"/><circle r="1" fill="#fffff7" transform="matrix(73.38501 -10.44587 5.27476 37.05657 42.6 0)"/><circle r="1" fill="#80535a" transform="matrix(-27.65803 -4.00885 5.30087 -36.57198 94 183.2)"/><circle r="1" fill="#b65264" transform="matrix(3.12423 -24.38935 29.05482 3.72187 107.4 88.2)"/><path d="M55 39h33v29H55z"/><path fill="#a47985" d="M22 69h31v117H22z"/><path fill="#000304" d="M46.8 108.3l17.4 32.8 17.9-56.2-14.3 6.7z"/><path fill="#000203" d="M73 84l5-66 23 13z"/><path fill="#d3cdd5" d="M175.1 80.6l-80.8 64.6-19.3-17 16-18.3z"/><path d="M96.8 158.7l19 24.6 8.1-11.7-23.7-16.5z"/><ellipse cx="78" cy="253" fill="#fffff7" rx="165" ry="22"/><ellipse cx="169" cy="80" fill="#fef3ef" rx="30" ry="239"/><path fill="#282027" d="M13 126l4-22 20-12z"/><path fill="#c2e0e5" d="M81.9 144.2l-16.2 11.1L83 175.9l.3-12.1z"/><path fill="#ffd324" d="M46.5 213l3.3-.4 18 14.6-4.4 30z"/><ellipse cy="154" fill="#fdf8f6" rx="29" ry="41"/><path fill="#fa3f43" d="M120.1 227.7l18.9 9.9-6.3-19.2-13 2.8z"/><circle r="1" fill="#fbefe4" transform="matrix(-14.64776 -9.93762 63.6291 -93.78738 41 17.1)"/><path fill="#6a8faf" d="M31.2 157.9l-5.9 41.5.6 26.7 34.8-60z"/><path fill="#ff1f3b" d="M112.5 92.7l-15.3 15.8-13.7-13.2 15.3-15.8z"/><circle r="1" fill="#d2b5b4" transform="rotate(-126 102.3 82.5) scale(15.90292 44.11104)"/><circle r="1" fill="#f7eeea" transform="rotate(101.2 57.4 51.9) scale(29.79822 47.99877)"/><circle r="1" fill="#ffd095" transform="rotate(-116 42 -6.2) scale(11.43423 10.73015)"/><circle r="1" fill="#b38787" transform="matrix(1.50656 -39.2169 16.04605 .61643 44.5 71)"/><path fill="#db364d" d="M128.6 53l3.4 3.8-44.6 40.1-3.4-3.7z"/><path fill="#661f14" d="M95 190l-18-8-4 28z"/><path fill="#1b241e" d="M44 32l62 31-15 16z"/><circle cx="49" cy="149" r="10" fill="#ee314d"/><path fill="#d6c7ba" d="M141 90l-35 66 54 24z"/><ellipse cx="52" cy="183" fill="#6a5848" rx="11" ry="12"/><path fill="#a8d4eb" d="M87.9 188.8l8.6-10.9 30.2 28.4-22.6-15.1z"/><path fill="#f3ca7c" d="M19.2 83.9l15 22.6L41 88.4 15.2 69.9z"/><path fill="#0e131c" d="M67.8 68.3l38.7-27.5-60.4 5.3 6.4 2.5z"/><path fill="#ead269" d="M6.2 11.2l25-1 40.6 30-31.2-34z"/><path fill="#935b8d" d="M102.9 228.7l-9.7 6.4-1.2-11.6 21.8-32z"/><path fill="#7b8693" d="M111.1 113.8l-29.3 9.5-4.1-38.7 17.7 23.3z"/><path fill="#f2e2ce" d="M93.2 52.1l38.9-37.5L148.8 32l-38.9 37.5z"/><path fill="#398ccc" d="M32 199l22-37-8-14z"/><ellipse cx="29" cy="48" fill="#dad3dd" rx="15" ry="18"/><path fill="#fcfdfc" d="M-7.4-4.6l19 .3-4.2 239-19-.4z"/><path fill="#11140e" d="M86.8 17.8l-9.5 27L92 36.9 73.3 20.7z"/><path fill="#6b736a" d="M57.3 88.2l59.3-38.6-33.4 32.6-38.7-33.8z"/><path fill="#82575d" d="M81.4 209.2l-15.2 14 58.1-97.4-51.9 53.5z"/><path fill="#b6bbc5" d="M97.5 181.5l-24.4-33-8.2-3.5 6.5 18.1z"/><path fill="#2a1418" d="M19 101h12v10H19z"/><path fill="#ccb6a7" d="M129 33l23.6 8.2-7.5 21.7-23.7-8.1z"/><path fill="#faca24" d="M63.7 225l-2.3 8-10.6-1.9-7-26.3z"/><path fill="#bcb4be" d="M115 82l48 31-56 28z"/><path fill="#00050f" d="M61 182l11-7-8-14z"/><path fill="#eae9db" d="M78 240l22-49-53 51z"/><path fill="#93aec1" d="M18 109h22v28H18z"/><path fill="#bdd8d3" d="M61.5 80.9l3.4-5.4-21.1 14.2 7.1 4.8z"/><path fill="#623c43" d="M62.4 117.6l2.7 25.9-6.1 8.8L38.9 109z"/><path fill="#0b1417" d="M104.4 160.9l12.8 24.5 8.6-5.8-9.8-11.4z"/><circle r="1" fill="#00101d" transform="matrix(-3.40617 -3.61443 5.40622 -5.09471 77.3 140.3)"/><path fill="#000911" d="M81.6 100L61 120.7 50.3 110 71 89.4z"/><path fill="#fde7df" d="M5 184h29v10H5z"/><path fill="#f8f5f0" d="M43 0h34v23H43z"/><path fill="#e9c05c" d="M117.7 186l-2.5-2.1-4.2 7 27.7 27.6z"/><ellipse cx="40" cy="90" fill="#a63c25" rx="4" ry="10"/><path fill="#c8c4bf" d="M72.4 233.1l8.2-18.8-62.9-18.8 58.2-2.8z"/><path fill="#e8ac3d" d="M60 31l8 3 15-23z"/><path fill="#bfcece" d="M79.5 127l14.9 27.8 24.9-38.1-40.6 8.1z"/><path fill="#a3a47f" d="M80.8 79.5l-17.9 10 30.8-5.9-12.2 23.9z"/><path fill="#998672" d="M6.4 93.3l-1.6-6.4 4.6-2.8 11.1-.9z"/><path fill="#dbd1d6" d="M179.5 19.2L105.8 1.9l-18.4 32 15.9-9z"/><path fill="#a9ccea" d="M130 79l-11-10 37-23z"/><path fill="#030a10" d="M106 25L71 39l3 12z"/><circle r="1" fill="#d4af94" transform="matrix(6.04682 -1.50764 5.36308 21.51016 126.4 161.2)"/><path fill="#4a5c5d" d="M118.9 206.9l-20.7-11.6-.3-7.1 16.8 12.9z"/><path fill="#eff2ec" d="M132.4 164.6l25.4-33.2-39.8-2 9.2-1.1z"/><path fill="#a19b9d" d="M17 160l41 8-32 13z"/><path fill="#507e9d" d="M16 118h27v6H16z"/><path fill="#f172bb" d="M103.3 203.9l.4 18-15 .2-.4-18z"/><path fill="#c82d4d" d="M61.9 187.9l11.2-11.1 13 7.1 6.1-16.7z"/><path fill="#553c3d" d="M67 214h17v3H67z"/><circle r="1" fill="#f15557" transform="matrix(-12.0013 -5.21832 1.26634 -2.91237 128.3 225.3)"/><path fill="#bb74a8" d="M48.3 62.8l-35.4 7.6 30.3 12.7 9.9-7.2z"/><ellipse cx="111" cy="31" fill="#e3e0db" rx="12" ry="30"/><path fill="#7685a0" d="M116 101l20-32-1 24z"/><path fill="#3d8db5" d="M30 164l13 11-8-32z"/><path fill="#a78072" d="M106 187h51v3h-51z"/><path fill="#a63446" d="M115.5 74.6l12.4-17.1-22.8 16.7-10.6-14.9z"/><path fill="#c4b8bf" d="M129 234h11v17h-11z"/><circle r="1" fill="#7b8b94" transform="matrix(3.3566 1.04546 -4.69847 15.08506 68 150.2)"/><circle r="1" fill="#f3eeec" transform="rotate(176.2 73 110) scale(26.91289 12.26694)"/><path fill="#031e1b" d="M94.5 158.4l9.8-1.7 1.2 6.9-9.8 1.7z"/><path fill="#c79664" d="M53 168l14 20-7 6z"/><path fill="#fdcb5a" d="M128.4 31.4l19.8 15.5-.4-1.9-7.5 3.4z"/><path fill="#fec84b" d="M116.2 21l9.4 23.2-1.8.8-9.4-23.2z"/><ellipse cx="28" cy="26" fill="#e7edf2" rx="20" ry="16"/><path fill="#0092de" d="M35 200.3l-3-1 9-27.6 3 1z"/><path fill="#eff4f4" d="M84 24.5l70-22.8L110.8-16 86.3 29z"/><path fill="#d86c7a" d="M28 50H16l-4-10z"/><path fill="#f8e9ff" d="M66.4 39.6l-2.1-3.4 9.3-5.8 2.1 3.4z"/><ellipse cx="94" cy="255" fill="#fafbf9" rx="32" ry="20"/></g></g></svg>