<svg xmlns="http://www.w3.org/2000/svg" viewBox="0 0 867 694"><defs/><filter id="a"><feGaussianBlur stdDeviation="12"/></filter><rect width="100%" height="100%" fill="#252027"/><g filter="url(#a)"><g fill-opacity=".5" transform="translate(1.7 1.7) scale(3.38672)"><circle cx="138" cy="77" r="203" fill="#fff"/><circle r="1" fill="#fff" transform="rotate(-7.3 270 -537.1) scale(232.73682 50.11848)"/><circle r="1" fill="#fff" transform="matrix(254.98901 2.3669 -.34594 37.26885 130.6 186.5)"/><circle r="1" fill="#241108" transform="matrix(-78.99345 -18.73533 4.35096 -18.3449 75.9 119.7)"/><ellipse cx="240" cy="97" fill="#ffe9d7" rx="27" ry="198"/><circle cx="95" cy="11" r="96" fill="#ffdece"/><circle cy="193" r="59" fill="#fffcee"/><ellipse cx="69" cy="106" fill="#ad7f73" rx="18" ry="73"/><path fill="#99716b" d="M146 52h67v112h-67z"/><circle r="1" fill="#fff" transform="matrix(2.16748 23.36475 -129.55204 12.01818 157.2 203.1)"/><path fill="#2d3235" d="M20 88h48v47H20z"/><path fill="#554448" d="M126 190.8l-17.5-23.9-18.6-.2 7.1 15.1z"/><circle r="1" fill="#faf8f2" transform="matrix(-199.83763 4.89945 -.95721 -39.04246 93.6 0)"/><ellipse cx="8" cy="126" fill="#ffffcb" rx="12" ry="18"/><path fill="#9f3b21" d="M87 90l2-20 45 48z"/><path fill="#070304" d="M207 59l-25-3-19 31z"/><path fill="#54373b" d="M207.9 78.7l21.4-15.9-29.3 39.5 29.4 21.6z"/><path fill="#0e0e11" d="M102.9 146.9l46.7-50.7 2 23.1-71.5-8.1z"/><circle r="1" fill="#f0e0e0" transform="rotate(-129.4 114.5 9.3) scale(6.24221 36.92113)"/><circle r="1" fill="#e0e1dd" transform="matrix(-29.89023 -10.22636 3.92192 -11.46322 137.4 87.3)"/><path fill="#35342e" d="M197.3 137l-57.7-2.6 45.3-15.7 17.4 5.5z"/><path fill="#bb9288" d="M162.5 165.9l-99.9 2.9-52.9-27.6 47.6-16.5z"/><path fill="#ffdf00" d="M231 144l24-22 16 19z"/><path fill="#ff2805" d="M242.4 48l-.9 14.6L259.4 47l-8.1-9.9z"/><path fill="#cb9799" d="M189 82l81 21-62-63z"/><ellipse cy="64" fill="#fff7e5" rx="11" ry="38"/><path fill="#866284" d="M211.9 161.2l26-.4.2 12-26 .4z"/><path fill="#2b262e" d="M28.4 143.1l23.4-16.2-25.4-46.1-8.3 65.4z"/><path fill="#733e3d" d="M242.1 121.2L231 109.9l-24.5-16.8-8 18z"/><path fill="#f2ece3" d="M214 165l4-45 53-24z"/><path fill="#dccbc6" d="M164.1 75.2l-96.8-2.8 31-58.3 96.5-.6z"/><path fill="#e07365" d="M133 136h41v18h-41z"/><path fill="#060612" d="M18 116L9 83l15 17z"/><path fill="#fff8ef" d="M123 168h45v36h-45z"/><ellipse cx="111" cy="128" fill="#382f33" rx="11" ry="27"/><circle r="1" fill="#fff6cf" transform="matrix(13.48987 6.55033 -10.56315 21.75395 75 186.2)"/><path fill="#2c3953" d="M198.6 159.1l-4-3.5 3.5-18.8 16.4-1.6z"/><path fill="#956464" d="M215.6 117.2l-75.1-60.5 6.2 19.1-2.7 3.4z"/><path fill="#fdf6e0" d="M41 92.7l-58.6-38.1 12.5-19.3 58.7 38.1z"/><path fill="#e1856b" d="M46 80l60 22-6-36z"/><circle r="1" fill="#ddbecd" transform="rotate(-101.2 85.4 55.7) scale(5.36036 40.74283)"/><path fill="#697b8a" d="M114 79l11 20-30 10z"/><path fill="#b4ceea" d="M175 149l6-18 24 39z"/><path fill="#ece1dd" d="M131.6 98.3l23.7-19.1-29.9 41.2 1.3-77.9z"/><path fill="#dfe3c8" d="M210.9 74.4l33.9-33.1-34.3 14.3-15.1 63z"/><path fill="#b57a63" d="M79.6 151.2l73.2-12.2-83.7 23.4-4.9-47.2z"/><path fill="#010104" d="M139 103h14v13h-14z"/><path fill="#ab4a79" d="M220 70l19 24 25-5z"/><path fill="#ffe2c0" d="M3.6 162.8L-9.2 157l19.6-43.9 12.8 5.7z"/><path fill="#605e6a" d="M45 83l14-5 30 32z"/><circle r="1" fill="#fe7474" transform="matrix(-2.37158 2.50787 -15.27229 -14.44228 54.9 62)"/><circle cx="100" cy="173" r="7" fill="#382e38"/><ellipse cx="236" cy="111" fill="#43353f" rx="2" ry="11"/><path fill="#fbebe4" d="M265.1 39.1l5.9 114.2L246.4 57 232 69.1z"/><path fill="#e3dcdd" d="M189.6 146.5l-88.4 67.2 46.8-70.9-45 41.8z"/><path fill="#f3605f" d="M196.9 90.3l-9.4 11.3 7.2 21.8 4.9-7.7z"/><path fill="#908582" d="M22.9 158.8l-10.6-15.7 19.6-8.5-7.1 37z"/><circle r="1" fill="#fff0ec" transform="rotate(-72.5 135 88.8) scale(30.70515 76.98297)"/><circle cx="181" cy="84" r="5" fill="#fffffa"/><path fill="#f2f0e6" d="M133 1h69v42h-69z"/><path fill="#b49da7" d="M88.5 68.5l24 22.7L72 41l27.8-3.1z"/><path fill="#27242a" d="M35 92.2l12.9 25.9-20 13.5-14.5 20.7z"/><path fill="#e1e8e0" d="M170.6 110.5l7.8 6.4-9.2 1.1-28.7-19.6z"/><path fill="#efca51" d="M29 39V23L13 42z"/><path fill="#1d1e25" d="M197.2 55.3l-14 13.9-10.9-7.1-.9-1.8z"/><path fill="#c5dbde" d="M69.5 125.6l-6-2.8 25.3 24.6-11.6 3z"/><path fill="#f5e9e5" d="M248.6 16l-12.5 58.7-12.7-2.7 12.5-58.7z"/><path fill="#aa5f68" d="M131.6 35.7l.8 12-10 .6-.8-12z"/><path fill="#191f29" d="M173 120h22v10h-22z"/><path fill="#001e26" d="M203 97h16v9h-16z"/><circle r="1" fill="#4e81cb" transform="matrix(-15.49907 -5.81478 1.08012 -2.87902 202.2 158.4)"/><path fill="#e2a83d" d="M195.3 65.1l-1-.7 12.3 3.9 28-28z"/><circle r="1" fill="#e5e1e3" transform="rotate(-107.1 39 -3.7) scale(30.50607 11.86881)"/><path fill="#ffffe5" d="M255 138l3 29-17-19z"/><path fill="#f2ded8" d="M271 159.5l-.2-108.1-17.6 46.5-22.1.1z"/><path fill="#9a8e8e" d="M129.1 106.8l-8.7 13.9-3.8-4.4 66 16.7z"/><path fill="#9aa4ad" d="M72 126.6l-24.1 10.5 8.3-17.1-6.3-5.9z"/><ellipse cx="39" cy="111" fill="#24232d" rx="30" ry="5"/><path fill="#a39ea2" d="M119.1 168.6l11.1-40.7-14.7 7.1 41.7 26.6z"/><path fill="#375a5c" d="M231 75.4l-17.9 5.3-9.2 11.9 11.8-22.7z"/><path fill="#fff" d="M26 141l-3-1 4-7z"/><path fill="#7e7181" d="M162.8 132.4l29.6 33-17.1 5.7-.6-51.7z"/><path fill="#fabe0a" d="M227.7 148l21.4-18 3.2 4-21.4 18z"/><circle r="1" fill="#dde7e0" transform="rotate(52.6 15.8 197) scale(7.98092 10.04191)"/><circle r="1" fill="#fffffd" transform="rotate(123 36.9 26.6) scale(19.13483 18.14717)"/><path fill="#494142" d="M77.3 193.3l-5.5-5.9 3-2.7 5.4 5.9z"/><path fill="#e8c4c9" d="M61 176l-48 14 47-50z"/><path fill="#000007" d="M87 81h10l-2 6z"/><path fill="#c4b6af" d="M43.6 41.1l-10 53.1-17.8-3.7 10.5 12.8z"/><circle r="1" fill="#f5cb7a" transform="matrix(3.11373 3.85962 -24.46644 19.73816 80.5 166)"/><path fill="#f2e9e5" d="M163 86l-41 23 16-25z"/><path fill="#e9ddd6" d="M66 63h7v28h-7z"/><path fill="#e38f21" d="M186 131h25v4h-25z"/><path fill="#f9e6e0" d="M209 127l15-6 19 17z"/><path fill="#ddd3d4" d="M-2 62l-6 20 22 17z"/><path fill="#b8bca2" d="M125.4 85.1l-49.2 35.2 11.5 14.2-14.2-25.4z"/><ellipse cx="184" cy="203" fill="#fffaf3" rx="112" ry="14"/><path fill="#ff9363" d="M87.9 101l15.4-7.2-45.9-23.5 1.5 3z"/><ellipse cx="203" cy="21" fill="#79736e" rx="2" ry="11"/><path fill="#ff7141" d="M157.5 132.2L153 159l-2.4-1-5.5-15.6z"/></g></g></svg>