<svg xmlns="http://www.w3.org/2000/svg" viewBox="0 0 1400 933"><defs/><filter id="a"><feGaussianBlur stdDeviation="12"/></filter><rect width="100%" height="100%" fill="#1b332c"/><g filter="url(#a)"><g fill-opacity=".5" transform="translate(2.7 2.7) scale(5.46875)"><circle cx="141" cy="84" r="169" fill="#fff"/><circle cx="94" cy="62" r="196" fill="#fff"/><path fill="#fff" d="M-16-1l207-15L-2 185z"/><path fill="#fffff9" d="M165 175.5l-9.8-187.7L295-19.5l9.8 187.7z"/><circle r="1" fill="#c2c4b0" transform="matrix(19.25731 -44.36117 89.88466 39.01919 130 100.2)"/><circle r="1" fill="#fff" transform="matrix(-254.82874 -9.34415 .54386 -14.83175 84.3 169)"/><circle r="1" fill="#fff" transform="matrix(34.03073 1.23388 -6.65646 183.58648 9.6 67)"/><ellipse cx="241" cy="94" fill="#fff" rx="18" ry="169"/><path fill="#88978d" d="M103 51h17v56h-17z"/><path fill="#728375" d="M120 99h34v13h-34z"/><path fill="#d9d8ca" d="M222 116L39 12l185 4z"/><path fill="#bdbea3" d="M34.1 146.5l54.8 12.6-29.7-57.4-14.9 8.3z"/><ellipse cx="139" fill="#fff" rx="255" ry="12"/><circle r="1" fill="#fffffc" transform="matrix(-70.99767 -11.34328 4.39497 -27.50817 3.7 79.7)"/><ellipse cx="138" cy="169" fill="#fff" rx="255" ry="9"/><ellipse cx="245" cy="119" fill="#fff" rx="22" ry="169"/><ellipse cx="18" cy="98" fill="#fff" rx="19" ry="169"/><path fill="#bcc1b5" d="M203 76h21v74h-21z"/><path fill="#eceadd" d="M101.3 139.5l-.5-14 86-3 .4 14z"/><path fill="#84958d" d="M86 51h78v6H86z"/><circle r="1" fill="#909d91" transform="matrix(-6.42773 -3.64572 13.37492 -23.5812 141.5 102.7)"/><path fill="#6f8076" d="M81 72l-8-19 22 20z"/><path fill="#f5f3ec" d="M188 105l-12-48-40 6z"/><ellipse cx="125" cy="41" fill="#f4f3e9" rx="55" ry="7"/><ellipse cx="126" fill="#fff" rx="255" ry="12"/><path fill="#efeddf" d="M66.4 57.9l37.7 53.1-36 23 33.4-44.7z"/><path fill="#b3bab0" d="M91 55l28-33-22-7z"/><path fill="#e6e1d1" d="M34.7 107.8l2.6-75 40 1.4-2.6 75z"/><path fill="#c8cbbf" d="M178 12h43v31h-43z"/><ellipse cx="246" cy="51" fill="#fff" rx="22" ry="169"/><path fill="#697668" d="M48 106h3v21h-3z"/><path fill="#77877c" d="M46 62l-7-8 19 6z"/><path fill="#899588" d="M73 117h64v4H73z"/><path fill="#4a5f55" d="M76 81l6 5-5 6z"/><path fill="#a8b2a5" d="M192 113l12 25-21 16z"/><path fill="#fff9e7" d="M76 122h18v13H76z"/><ellipse cx="11" cy="50" fill="#fff" rx="26" ry="169"/><path fill="#d8dacf" d="M110.4 81.1L92.3 69.3l43.4 10.3 1.7 24.9z"/><path fill="#afb7ae" d="M180.5 76.5l12.3 11.1-25.8 5.7.4 28.9z"/><path fill="#e2e2d4" d="M157 123l-27-18-11 6z"/><path fill="#b7beb1" d="M71 36.2l-9 14.5-11-7 9-14.4z"/><ellipse cx="84" cy="166" fill="#fff" rx="195" ry="6"/><path fill="#fffef8" d="M118.3 18.3l-24-12.6 52.9-19-27.1 76.8z"/><path fill="#dfe1d4" d="M133.9 89.7l-53.7 19.4 37-19.6 41.5 11z"/><path fill="#8a988d" d="M211.5 111.5l-.5-5.6 12.2 16-14.2.5z"/><path fill="#8e9c93" d="M113.9 76.1L97.7 63.2l40.5-9.6-8.7-11.5z"/><path fill="#677d74" d="M149 85l-2 8 17-9z"/><path fill="#f2efe4" d="M135 120h49v10h-49z"/><path fill="#57695b" d="M78 119.5l3.2-11.2 3.3-5.2-6.1 3.7z"/><path fill="#849389" d="M98 51h2v50h-2z"/><path fill="#f3eddd" d="M52 141h18v17H52z"/><path fill="#c2c5b2" d="M199 142l-69 17-65-24z"/><path fill="#f1f3ea" d="M118 63l20 5V53z"/><path fill="#f0eee5" d="M194.8 75.6l16.8-68-15.5 44.5-44.7 45.8z"/><path fill="#828c7c" d="M43 142h9v11h-9z"/><path fill="#fbf6e9" d="M86.3 90l-.1 8.5-10.2 5.7-25.7-5z"/><path fill="#fcf6ec" d="M97 24l-28 1 8 28z"/><path fill="#f0efe5" d="M64.5 79.8l21.6 1.4-11.2-19-22.5-34.1z"/><path fill="#edeae0" d="M171 90l46-7-25 32z"/><path fill="#6e8077" d="M98.1 50l.2.9L74 56l-.2-1z"/><path fill="#fff6e3" d="M117 147l5 16-19-11z"/><ellipse cx="145" cy="58" fill="#7f918b" rx="8" ry="4"/><path fill="#f1f1e9" d="M154 7l-19 44 21-1z"/><path fill="#8b978a" d="M117 121l-14-10 12-17z"/><path fill="#8d9b90" d="M128.2 66.3L104.1 64l8.4 20.3-23.2 6.3z"/><path fill="#dfe0d3" d="M116.1 107.8l20.6-18.2-39.5 33.2.4-21.9z"/><path fill="#51655d" d="M99 33l1 6-6-5z"/><path fill="#fffff7" d="M100 54h4v14h-4z"/><path fill="#eceade" d="M139.9 136.4l14.7-5.1-20.1-19 29.9 53z"/><path fill="#919d93" d="M101.9 81.6l30.2.9-2.2 13.2-3.6-11.3z"/><path fill="#1e3c33" d="M83.9 61.7l-4 3-1.8-2.4 4-3z"/><path fill="#7f8f85" d="M209.1 84.3l1-4.9 10.8 2.3-1 4.9z"/><path fill="#75867b" d="M88.4 95.9L90.7 74l1 .1L89.2 96z"/><path fill="#758274" d="M43 117h10v4H43z"/><path fill="#68796c" d="M72 138h3v13h-3z"/><path fill="#919c93" d="M211 29h11v6h-11z"/><path fill="#64746b" d="M95 19.2l5 .7-1 7-5-.8z"/><path fill="#fcfbef" d="M100.1 109.4l-1 .2-15.2-57 1-.2z"/><path fill="#e9e9e0" d="M94.9 30.1l45.2 44.3-55.3-61.7 8.6 51.2z"/><circle r="1" fill="#b6bdb1" transform="matrix(1.41453 -.8101 17.84816 31.16464 182.5 116.2)"/><path fill="#9ca89e" d="M119.1 70.1l-2.5-7.4 28.7 12.2 17.6 11.5z"/><path fill="#8d9b91" d="M108.3 81l-2 2-16.6-16 2-2z"/><path fill="#6b7c71" d="M128 126.5l-4.6-11.1 4.7-1.9 4.5 11.1z"/><path fill="#fff" d="M100 83l-4-3 9-7z"/><path fill="#375145" d="M170.6 104.3l-1.2-1.6 4-3 1.2 1.6z"/><path fill="#7e8d83" d="M156.1 113.3l-14.8 4.3 2.2-21.6 3.5 2z"/><path fill="#b3bbaf" d="M80 86l-12 4 4-10z"/><path fill="#f0e9da" d="M37 18h7v115h-7z"/><path fill="#929f97" d="M177 20.7l-1 6-9-1.4 1-6z"/><path fill="#b9bfb1" d="M118 126h13v33h-13z"/><path fill="#e3e0cc" d="M130 160H84l-15-22z"/><ellipse cx="139" cy="89" fill="#89968c" rx="2" ry="21"/><path fill="#959e8e" d="M108.8 150L73 141l.3-1 35.9 9z"/><path fill="#f3eee2" d="M37 58l33 62 10-21z"/><path fill="#eaeae0" d="M92.1 55.3l16.1 4.8-3.4-6.6-22.5 17.3z"/><path fill="#354d44" d="M109.9 96.4l.9-.5 5.3 9.7-.9.5z"/><path fill="#a9b1a5" d="M220 59.5l-7.4-4.3-5.1-7.4 8.5 2z"/><path fill="#f0efe2" d="M134.3 93.3l-16.2 14 8.7-9.4-5.7-11z"/><path fill="#fff" d="M103.4 91.4l-9.8 5-1-1.8 9.8-5z"/><path fill="#4c5f53" d="M139 22l2-4 2 2z"/></g></g></svg>