<svg xmlns="http://www.w3.org/2000/svg" viewBox="0 0 1400 1119"><defs/><filter id="a"><feGaussianBlur stdDeviation="12"/></filter><rect width="100%" height="100%" fill="#423748"/><g filter="url(#a)"><g fill-opacity=".5" transform="translate(2.7 2.7) scale(5.46875)"><circle cx="117" cy="60" r="213" fill="#fff"/><circle cx="126" cy="78" r="190" fill="#fff"/><ellipse cx="198" cy="133" fill="#000200" rx="13" ry="40"/><circle r="1" fill="#fff" transform="matrix(70.0848 91.00696 -202.03386 155.58702 57.8 78.8)"/><circle r="1" fill="#f7e06c" transform="matrix(-7.0799 -29.48993 44.47352 -10.67715 22.4 62.7)"/><circle r="1" fill="#55564d" transform="matrix(-1.69628 -20.2004 36.27405 -3.04602 194.8 147)"/><circle r="1" fill="#fff" transform="matrix(-14.51568 56.12276 -224.68242 -58.11223 176.8 17)"/><path fill="#49483c" d="M192.4 105.1l12.2-1.6-7.9-57.9-20.2 36.7z"/><circle r="1" fill="#fff" transform="matrix(-21.56409 56.7083 -82.2741 -31.28583 67.6 178.5)"/><path d="M152.2 124.3l-2.2-15.8-8.8 28.3 9-2.7zM223 173l25 2-5-10zm-35.6-30.7l45.4 3.7 8.6 1-44.5 11.2zm-.1 51.3l3.8 1-2.8 7.8-26.2-6z"/><ellipse cx="119" cy="36" fill="#fff" rx="48" ry="78"/><path d="M234.4 197.6l-19 17.1-4.5-22.7 27.5 22z"/><path fill="#90908c" d="M209.9 99.3l15.7 59.6-72.1-58.4 37.2 16.1z"/><path fill="#fff" d="M217 167l-34-13 28 52z"/><path fill="#131611" d="M151.9 160.9l-.3-11.5 7.3 8-18.4 22.9z"/><circle r="1" fill="#fff" transform="matrix(-27.5319 23.26949 -50.8903 -60.2122 238 52.1)"/><path fill="#1c1f1b" d="M240 124h4v45h-4z"/><path d="M133 134l-6-2-5 9z"/><path fill="#120606" d="M201.4 174.4l-20.1-7.8 1.4-24.9-12.5 23.3z"/><path d="M236.6 112l-4.8-3.5 7.6-10.5 4.8 3.5zm-52.2.1l-2.9 9.4 36.8 9.7 9 11.6z"/><path fill="#fff" d="M225.7 177.5l-16.9 17.4 50.7 13.7 11.5-33.5z"/><path d="M154.8 79.9l11.2 1.4-7.7 8.6-.5-.6z"/><path fill="#fffffb" d="M155.2 181l26-32.8-37.7-4.8 80 68.5z"/><ellipse cx="59" cy="184" fill="#fff" rx="89" ry="60"/><ellipse cx="66" cy="103" fill="#c9c8b6" rx="26" ry="24"/><path fill="#fff" d="M242 148l-6-25-39-21z"/><path fill="#f9fbf8" d="M223.3 139.6l-84.2-25.9 84 33 47.9-27.8z"/><path d="M201 132l6 33-20-29z"/><path fill="#3c2a10" d="M167.6 198.9l-5.3 2.8-9.9-18.6 5.3-2.8z"/><path fill="#26272a" d="M187.5 80.2l1.2-6.3 21.1 13.8-1 5.6z"/><path fill="#4c4e4c" d="M137 110h38v5h-38z"/><path d="M248 132l6 7-6 3z"/><path fill="#45453a" d="M162.3 169l-9.6-19 18.4-16.9-19.2 31.3z"/><path d="M205.8 101.2l-13.2-2.3v7.7l19-.9z"/><path fill="#fff" d="M208.2 107.1l-10.5 37.8 20.9-46.1L233.3-16z"/><ellipse cx="2" cy="87" fill="#fff" rx="3" ry="165"/><path fill="#fff" d="M271 28.5L91.2-16l174.3 117.1-34.7 27.5z"/><path d="M233.8 154l-34.4-45.5.8-.6 34.4 45.6z"/><path fill="#efecef" d="M183.1 147.3l9.5-21.3-6.1 46.2-1.6-12.3z"/><path fill="#fff" d="M180.1 92.8l-16 64.1 26.4-58.4-67.7-51.7z"/><path fill="#fff" d="M222-12L79-4l14 175z"/><path fill="#fefaec" d="M218 166.5l-5.8-35.1-1.6-20.6-1.2 91.3z"/><path d="M127.4 147.2l1 .4-3.8 9.2-1-.4zm125.9-37.7l5.5 2.4-2 4.6-5.6-2.4z"/><path fill="#e2c33e" d="M28 32h40v8H28z"/><path fill="#090700" d="M187.9 156.9l38.5-10.1-.9 16.4-29.9-31.7z"/><path d="M145 118h6v14h-6z"/><path fill="#fff" d="M33.3 46.4l166.9 24.8-13.4 6.6-11.3-80z"/><path d="M132 188h-10l11-5z"/><circle cx="201" cy="193" r="3"/><path d="M219 166h5v8h-5z"/><path fill="#454743" d="M225.9 129.2l-7.8-8.8.9.3.4-14.9z"/><path fill="#fff" d="M271 168.8l-10.5 49.5-15.3-58-1-25.3zM0 94h42v110H0z"/><ellipse cx="79" cy="84" fill="#8f9194" rx="30" ry="3"/><path d="M161 127.5l2.4-3.2 5.6 4.2-2.4 3.2zm41.2.6l-15.5 3.6-1-3.8 15.6-3.6z"/><path fill="#908069" d="M133 103l-9 23 12 1z"/><path fill="#fff" d="M214 155l-51.7 19-.3-1 51.7-18.8z"/><path d="M228.7 79l-2.6 1.6-4.8-7.6 2.6-1.6zm-39.5 115.8l-8 10.2-2.4-1.8 8-10.2zM171 180h8v4h-8z"/><path fill="#0d0e0d" d="M144.7 187.7l-4.6-2 3.2-7.4 4.6 2z"/><path fill="#fff" d="M186 174l-67 12 36-18z"/><path d="M258.1 219L207 200.5l9.8-4.7 6.1 8z"/><ellipse cx="43" cy="62" fill="#fff" rx="159" ry="3"/><path fill="#fff" d="M209.7 128.1L240.6-16 189.5 99.9 212 71.5z"/><path d="M194 60h4v24h-4z"/><circle r="1" transform="matrix(1.99104 -4.69059 .9205 .39073 170.3 92.5)"/><ellipse cx="203" cy="135" fill="#fff" rx="3" ry="7"/><path fill="#72584b" d="M196.7 174.2l27.9-22.1-46.4 21.5-1.9-6.7z"/><path d="M225.3 97l-5.5-9.5.9-.5 5.5 9.5z"/><path fill="#e2c54a" d="M7 65h61v10H7z"/><path d="M140 156h4v4h-4zm97.8-35l5-.8 1.4 8.9-5 .7z"/><path fill="#fff" d="M151 0h6v151h-6z"/><path d="M226 195.7l1.3-4.8 4.8 1.4-1.4 4.8z"/><path fill="#f0f3ef" d="M238 150.3l-25.1 12.2 17.5 4.8 14.5-3.3z"/><circle r="1" fill="#2f2f2e" transform="matrix(-4.16627 -11.26477 1.42895 -.5285 234.6 161.1)"/><path fill="#1a0f00" d="M213 123l-3 16-6-12z"/><circle r="1" fill="#feffff" transform="matrix(.04366 -2.8125 87.47672 1.3581 15 78.2)"/><ellipse cx="46" cy="8" fill="#fff" rx="255" ry="24"/><path fill="#fff" d="M181.5 183.6l58 35.4-54.4-16.5 28.9-29.2z"/><path d="M230 171h20v5h-20z"/><path fill="#000400" d="M227 111.7l-2.5 1.8-5.4-7.2 2.4-1.8z"/><path d="M198 95l-5 14-1-14z"/><circle r="1" fill="#f9faf8" transform="matrix(-116.32011 -35.8682 .64486 -2.09126 186.8 86.5)"/><path fill="#fff" d="M232 192l16 27-8-52zM86.7 176.9l102.2-53.8-28 53 20.9-46.9z"/><path fill="#f2d44d" d="M41 120h44v5H41z"/><path d="M185.2 134.2l32.2 17.3-10.9-.2-28.7-16.4z"/><path fill="#fff" d="M218.8 109.7l27 14.3 3.3 11.9L271 119z"/><path d="M191 171l-3 5 3 4zm-26-34l6 4-11 6z"/><path fill="#fff" d="M183.8 71.7l15.7-2.5 31.6 28.6 39.9-1.1zM218 112l-22 1 7-5z"/></g></g></svg>