<svg xmlns="http://www.w3.org/2000/svg" viewBox="0 0 1400 1120"><defs/><filter id="a"><feGaussianBlur stdDeviation="12"/></filter><rect width="100%" height="100%" fill="#2c3454"/><g filter="url(#a)"><g fill-opacity=".5" transform="translate(2.7 2.7) scale(5.46875)"><ellipse cx="131" fill="#fff" rx="255" ry="15"/><circle r="1" fill="#fff" transform="matrix(189.722 2.60401 -.21469 15.64166 156.2 203)"/><path fill="#ffffc4" d="M17 76l59 65-25 24z"/><circle r="1" fill="#ffffca" transform="matrix(-25.64005 -38.91225 8.14783 -5.36877 113.7 82.8)"/><ellipse cx="104" cy="201" fill="#fff" rx="255" ry="12"/><path fill="#ddd99a" d="M51 70H9V30h42z"/><ellipse cx="138" cy="6" fill="#fff" rx="255" ry="9"/><path fill="#fff" d="M145 169l-42 42 84-39z"/><path fill="#fffea6" d="M91.9 49.7l6.5 34.4 98.2 97.6-13.6-18.1z"/><path fill="#fff" d="M204.8 74.5l7.7-4.7 22.7 37.7-7.7 4.7z"/><path fill="#fff7af" d="M41 113h27v45H41z"/><ellipse cx="110" cy="7" fill="#fff" rx="255" ry="8"/><ellipse cx="166" cy="200" fill="#fff" rx="255" ry="10"/><path fill="#ffffe3" d="M174.3 150.5l9.2 24.8 18.8 43.7h16.8z"/><path fill="#fffcff" d="M81 78L30 48l22 24z"/><path fill="#020a14" d="M19 45l50 49-49-10z"/><path fill="#ffffcd" d="M28.3 28.5l33.8 8.1-3.5 6-37.5-7.7z"/><ellipse cx="80" cy="186" fill="#12244a" rx="50" ry="5"/><path fill="#1c2421" d="M80.5 80.8L44.3 54.5l39.6-42.4 13.2 38z"/><path fill="#ffff90" d="M16 75l39 45-2 35z"/><path fill="#ffffbc" d="M88.6 66.2L99.5 47l19.8 34 17.3 41.3z"/><path fill="#ffa" d="M17 75l3-41L8 57z"/><circle r="1" fill="#1f2442" transform="matrix(-4.26737 1.06509 -8.75557 -35.08001 50.7 100.5)"/><path fill="#001" d="M20 35h18l24 23z"/><path fill="#00002b" d="M67 131h10v17H67z"/><path fill="#b6b6bd" d="M183.1 57.4l28.6 24.7 21.4-6-23-4.9z"/><path fill="#fff" d="M151.3 166.4L90.5 219l178.3-25.3-115.6 1.1z"/><path fill="#f8f6ff" d="M50.3 61.5l-7.2 7-17.4-18 7.2-7z"/><path fill="#334768" d="M91 18l140-4-101 89z"/><ellipse cx="218" cy="5" fill="#fff" rx="255" ry="9"/><path fill="#2c3a5b" d="M180.4 172.9l11.2 18.7-10.7-.4-25.3-.3z"/><circle r="1" fill="#1c1d1d" transform="rotate(176.4 -1.6 51.4) scale(17.90546 56.47227)"/><circle r="1" fill="#10160b" transform="rotate(-53.1 38.6 19.3) scale(27.85457 11.5037)"/><path fill="#fff99c" d="M11.1 43.1l11.4-15.8 6.9 1.8L6.8 58.6z"/><ellipse cx="93" cy="199" fill="#fff" rx="255" ry="9"/><path fill="#7b78a4" d="M125.4 52.1l-15-1.3 2.2-25 15 1.4z"/><path fill="#000919" d="M67.2 53.1L20.4 35.9 19.5 54 39 40z"/><path fill="#2e3548" d="M-8.3 191.2l4.9-6.1 125.5-55.8-4.7 60z"/><path fill="#fffdf6" d="M212.4 82.5l-24.3 15.8-.5-.8 24.3-15.8z"/><path fill="#272939" d="M148.3 167.1l-31.5-52.2 50.5 29.4 15.1 28.3z"/><path fill="#2e3543" d="M119.5 104L78.2 53.1l-22.3 77.8-25.3-70.3z"/><path d="M159 186l-4-18-2 23z"/><path fill="#fff" d="M140-12l-7 12 17 29z"/><path fill="#ffffe3" d="M174 175l-13 10-2-13z"/><circle r="1" fill="#ffffb2" transform="rotate(-139.1 97 36.1) scale(23.68673 3.0838)"/><circle cx="6" cy="148" r="36" fill="#242631"/><path fill="#ffffb6" d="M53 45l4-8-30-9z"/><path fill="#ffee9a" d="M48 164l10-33-30-42z"/><path fill="#fffeff" d="M62 129l-1-18 9 9z"/><circle r="1" fill="#262a39" transform="matrix(5.52717 34.50728 -56.0756 8.98186 237 144.1)"/><path fill="#202928" d="M92.2 60.7L66.9 36.4l-41-13 82.4-8.9z"/><path fill="#26364d" d="M217 76l54-38-107 4z"/><path fill="#ffffad" d="M185.6 168.6l14 23.5-6.2 2.9-22.7-47.7z"/><path fill="#f4e8d9" d="M219 91h11v18h-11z"/><path fill="#282d3f" d="M15.8 80.7l22 46.1 8.6 48-62.4 19.3z"/><path fill="#c6c5cb" d="M68 77h25v3H68z"/><circle r="1" fill="#a7a8a8" transform="rotate(-40.1 282.5 -63.4) scale(18.93139 1)"/><path fill="#222935" d="M17.8 79.4l2.9-26.9 66.8 39.4-59.6-.7z"/><ellipse cx="147" cy="86" fill="#29324b" rx="21" ry="28"/><path fill="#fffeb7" d="M132 112L89 63l13-13z"/><path fill="#ffffa5" d="M17 44l-7 16 6 14z"/><ellipse cx="33" cy="7" fill="#fff" rx="255" ry="7"/><path fill="#2a314d" d="M166.4 137.1L212 81.9l16 41-25.5 70.7z"/><path fill="#aea5ad" d="M71.1 113.1l-9 22.9 21.8 48.1-27.3-44.5z"/><path fill="#1c2533" d="M38 43l26 1v26z"/><path fill="#c5bdb7" d="M161.6 130l-.7-.8 33.5-37.1.7.7z"/><circle r="1" fill="#1f2937" transform="rotate(6.3 -502.1 225.7) scale(3.95128 14.63309)"/><circle r="1" fill="#9398a6" transform="matrix(31.06442 16.5129 -.97043 1.82559 193.8 66.5)"/><path fill="#fff9b4" d="M23.5 28.7l7.6-.2 25.7 12.7L31 37z"/><path fill="#f5e19f" d="M49 112.2l-4.6 50.9 25.4-10.3.3 7.4z"/><path fill="#37394f" d="M163.6 88.9l-58-33.7 15.6 28.5 28.9 44.5z"/><path fill="#25324f" d="M198 167h55v23h-55z"/><path fill="#efede4" d="M227 72l1.5 4.8L219 80l-1.5-4.7z"/><path fill="#f7ffc6" d="M171.3 171.6l-14.7-1.1 2.9 11.4 7.1-.2z"/><circle r="1" fill="#242d28" transform="matrix(-46.48391 3.18214 -.36062 -5.26778 39.9 20.5)"/><ellipse cx="113" cy="199" fill="#fff" rx="255" ry="9"/><circle r="1" fill="#2b304c" transform="matrix(-14.52154 -24.3475 11.2791 -6.72718 109 112)"/><path fill="#ffffa9" d="M147.6 126.4L144 130l-21.6-22.3 3.6-3.5z"/><path fill="#2b2c34" d="M271 137L234 20l-5 75z"/><path fill="#252b3a" d="M15.2 190l60.1-35.2-15.6 2-45.1 23z"/><path fill="#010d2f" d="M180 187.5v1l-28 2v-1z"/><path fill="#2d3145" d="M119.1 180.3l6.4-68.8 65.2 78.4-25.4-46.6z"/><ellipse cx="87" cy="137" fill="#292e4c" rx="21" ry="34"/><path fill="#ccc0cd" d="M192 65.2l35.5 23.1-4.8 16.2-15.5-33.6z"/><path fill="#1e2227" d="M0 15h10v76H0z"/><path fill="#f0f9b1" d="M153 170l-29 19 25-1z"/><path fill="#d0cdda" d="M25.1 51.8l53.5 31.1L52 63 37.1 44z"/><circle r="1" fill="#2b3956" transform="matrix(-2.2053 19.47727 -14.97122 -1.69511 218.3 56.7)"/><path fill="#edf4c6" d="M151.8 191.9l-8-.9 2.4-22.9 8 .9z"/><path fill="#1f272d" d="M7.9 22.4l101 25.2-81.3-24L-16 62.5z"/><path fill="#2a323f" d="M70.3 75.2L44.7 54.9l11-13.5 74.9-25.5z"/><path fill="#2e3c61" d="M125 189l-18 1 38-21z"/><path fill="#222d3b" d="M126 83l73 1-18 20z"/><path fill="#ffffbe" d="M201 195l-14-26-2 10z"/><path fill="#fff295" d="M43 110L20 86l19 41z"/><path fill="#293047" d="M49.8 86.9l13.4 57.3L53 118.9 18.6 69.4z"/><ellipse cx="160" cy="14" fill="#a1b0bc" rx="159" ry="1"/><circle r="1" fill="#2c4c7d" transform="matrix(-5.52448 5.9107 -17.50171 -16.35812 142.5 32)"/><path fill="#212835" d="M59 79h28v16H59z"/><ellipse cx="135" cy="4" fill="#fff" rx="255" ry="10"/></g></g></svg>