<svg xmlns="http://www.w3.org/2000/svg" viewBox="0 0 1400 933"><defs/><filter id="a"><feGaussianBlur stdDeviation="12"/></filter><rect width="100%" height="100%" fill="#1b332c"/><g filter="url(#a)"><g fill-opacity=".5" transform="translate(2.7 2.7) scale(5.46875)"><circle cx="91" cy="78" r="193" fill="#fff"/><circle cx="113" cy="62" r="200" fill="#fff"/><circle r="1" fill="#fff" transform="matrix(111.19768 -229.47783 47.50415 23.019 9.8 87.6)"/><circle r="1" fill="#fffffe" transform="matrix(-162.82661 -187.5088 53.56932 -46.51787 230.3 57.7)"/><circle r="1" fill="#fff" transform="matrix(228.45487 8.27605 -.4901 13.52913 136.9 169)"/><ellipse cx="15" cy="62" fill="#fff" rx="25" ry="168"/><circle r="1" fill="#fff" transform="matrix(1.7096 -245.3707 25.54793 .178 249.3 88.5)"/><ellipse cx="130" cy="82" fill="#a7af9b" rx="32" ry="39"/><path fill="#d1d0bd" d="M154 14h70v142h-70z"/><ellipse cx="91" cy="1" fill="#fff" rx="242" ry="12"/><path fill="#c7c7ae" d="M38 107h96v45H38z"/><ellipse cx="8" cy="95" fill="#fff" rx="30" ry="169"/><circle r="1" fill="#fff" transform="rotate(89.8 76 167.9) scale(92.03384 20.39241)"/><path fill="#f8f5ed" d="M179 82l34-19-103-3z"/><ellipse cx="120" cy="165" fill="#fff" rx="244" ry="5"/><path fill="#fffdee" d="M121 53l18-22-55 8z"/><ellipse cx="129" cy="109" fill="#949f94" rx="26" ry="14"/><circle r="1" fill="#dcdac5" transform="rotate(147.7 25.7 44.8) scale(19.73813 53.65317)"/><path fill="#b2baac" d="M209.3 79.2l15.2 72.5-39.7-19.7 34.5-54.3z"/><path fill="#f3efdf" d="M139.2 115.9l-12.7 25.2 124.4-18.9-46.5 6.7z"/><path fill="#84938a" d="M71.7 56.7l15.7 7.1 6 1.4-7.3 11z"/><path fill="#faf1df" d="M36 86.5l5.7-25.2 36.6 34.3-5.3 22.8z"/><path fill="#ecebe0" d="M135 70.1l1.1 29.4-11.2-5.2-5.5-10z"/><ellipse cx="98" cy="53" fill="#819081" rx="21" ry="3"/><path fill="#83938c" d="M150 58l13-7-37-1z"/><circle r="1" fill="#9da799" transform="matrix(1.24114 -4.0344 8.41928 2.59011 51.6 62.6)"/><circle r="1" fill="#fff" transform="matrix(-.28872 11.15515 -155.3536 -4.0209 102.7 0)"/><path fill="#6b7d75" d="M115.3 72.6l-11.9-1.3 1.3-11.9 11.9 1.3z"/><circle r="1" fill="#fff" transform="matrix(.08026 -5.88779 157.41072 2.14581 166.4 167.4)"/><path fill="#bec2ad" d="M120 141h52v19h-52z"/><path fill="#7d8877" d="M44 116l8-7-4 18z"/><path fill="#f6f2e4" d="M96 124.6l-8.5 14.5L69 128.3l13.7-8.3z"/><path fill="#7e8e85" d="M147 79h8v33h-8z"/><circle r="1" fill="#fff" transform="matrix(-6.00028 -118.40002 22.70977 -1.15089 12.9 47.6)"/><path fill="#294037" d="M79 104h3v8h-3z"/><path fill="#8d998e" d="M208 109h10v15h-10z"/><path fill="#ecede0" d="M121 113l7-8 12 10z"/><path fill="#76877e" d="M110.8 72.9l-1.9 22.8-9.5-8.4 21.3-18z"/><circle r="1" fill="#fffcf6" transform="rotate(21.8 -318.2 659.6) scale(30.7694 12.00183)"/><circle r="1" fill="#7f8d83" transform="matrix(2.82284 .8219 -1.93897 6.65951 79.5 87.5)"/><ellipse cx="247" cy="71" fill="#fff" rx="23" ry="169"/><path fill="#f7f4e9" d="M61.2 117.3l12.6-53.7 28.1 31.2L63.4 75z"/><path fill="#8b9a92" d="M187.8 89.6l-11 .8-.6-8 11-.8z"/><path fill="#98a399" d="M85 73.4L57.6 32.8l3.4-2.2 27.4 40.6z"/><ellipse cx="147" cy="32" fill="#e9e7db" rx="23" ry="21"/><ellipse cx="97" cy="36" fill="#5b6b5f" rx="3" ry="4"/><circle cx="158" cy="86" r="3" fill="#31514b"/><path fill="#c2c5b2" d="M119.9 21.7l-37.4 4.2 2.7-15.2 36.9 19.4z"/><path fill="#e7e7de" d="M219 53.8l-74.7 44.8 34.8-5.9-56.4-30.3z"/><path fill="#979e8f" d="M56 127.4l-9.2 32.5-3.2-17.1 23.3-22.7z"/><ellipse cx="215" cy="28" fill="#a9b0a8" rx="6" ry="10"/><path fill="#f0efe1" d="M89.3 73.9l2.5-20.8 12.4 17.1-22.5-11.3z"/><ellipse cx="145" cy="101" fill="#3e564b" rx="3" ry="5"/><path fill="#f7f1e1" d="M99.6 29.5l-23 35.3 20.9-23.5-43.3-19.8z"/><path fill="#e6e7db" d="M129.5 161.2l-18-84.2 1-.2 18 84.2z"/><path fill="#f0f0e6" d="M106 109.2l-19.2 8.6-4.8-11 19.2-8.6z"/><path fill="#f1f0e4" d="M126 137h-25l3-16z"/><path fill="#64776d" d="M78 58h5v13h-5z"/><path fill="#f3eddb" d="M58 138.6l14.9 18.5 1.8 5.5-30.1-3.1z"/><path fill="#99a291" d="M77.3 156.4l-3.8-27.5-3 19.6-14.6-11.4z"/><path fill="#a9b0a5" d="M137.8 33.4l-3.6-1.8 8-15 3.6 1.8z"/><path fill="#a2ada0" d="M89.3 108.7l10.1 38.4-1.7-29.5-12.3 9.6z"/><path fill="#f1efe4" d="M57 94.2l36.5-3.7L113 61.2l-35 45.4z"/><path fill="#909d90" d="M97.5 54h1l2 56h-1z"/><path fill="#6e7c73" d="M59 59l-13-1-1 4z"/><path fill="#e7e8df" d="M170.9-13.3l-39 85.7-24-64.7 15 68.6z"/><path fill="#76887f" d="M210 80h10v5h-10z"/><path fill="#8c9b8e" d="M183 115.5l-5.2-12.5-10.5 1.8 5.3-5.8z"/><path fill="#6f8175" d="M89 76h2v20h-2z"/><path fill="#93a095" d="M158 57h2v61h-2z"/><path fill="#c2c7be" d="M177.7 37.4l-9-15.5 18.4-11.6 6.7 33.9z"/><path fill="#f4f3eb" d="M164 48l-6-20 59 29z"/><ellipse cx="113" cy="119" fill="#88958b" rx="26" ry="2"/><path fill="#96a299" d="M149.2 78.8L119 63.1l-3.3-11.2-4.1 15.1z"/><path fill="#f8f3e8" d="M185 104l20-19-37 4z"/><path fill="#899791" d="M122.3 55.9l29.6-3.1-2.5 10.5L127 48.8z"/><path fill="#66786f" d="M103.4 75.3l1-.4 12.2 31.8-1 .4z"/><path fill="#ebebdf" d="M79.2 54.6l34.7 22.9-8.8 1.7L98 69z"/><path fill="#e5e2cd" d="M69 159l24-13 25 7z"/><path fill="#dbddd2" d="M140.7 86l-38.3 14.7-1-2.8 38.2-14.6z"/><ellipse cx="136" fill="#fff" rx="255" ry="12"/><path fill="#dcdaca" d="M71 12l-23-1 25 47z"/><path fill="#849187" d="M126 84h8v6h-8z"/><circle r="1" fill="#f2f1e8" transform="matrix(.80733 1.93037 -4.28119 1.79049 84.9 64.4)"/><path fill="#efede1" d="M158.5 121.8l11.4-11.1-13.1-7 26.1 46.7z"/><circle r="1" fill="#67796d" transform="matrix(-4.79007 2.39197 -.44676 -.89466 131.5 123.7)"/><path fill="#aeb1a1" d="M51 122l-6-15 17-4z"/><ellipse cx="97" cy="80" fill="#fff" rx="6" ry="3"/><path fill="#efeadc" d="M62.7 45.4l9.9 18.8-36-.9.6 73.1z"/><circle cx="99" cy="75" r="2" fill="#133024"/><path fill="#7a877b" d="M88 105.4l-1 .1-1-13h1z"/><path fill="#03251f" d="M85 69h3v4h-3z"/><path fill="#617468" d="M127 98.6l20.6 16-.7.8-20.5-16z"/><ellipse cx="127" cy="79" fill="#f2f0e6" rx="19" ry="2"/><path fill="#f2f0e6" d="M97.6 53l61.7-14.4-49.5-6.6-8.9 32.6z"/><path fill="#99a499" d="M83.6 88.2l37.4-5.7-25.1 5.8-29.6-9.6z"/><ellipse cx="74" cy="120" fill="#637468" rx="2" ry="5"/><path fill="#fff" d="M95 90h8v5h-8z"/><path fill="#f9f7eb" d="M128.6 97.5l-7.4-11 16.7 15.4-4.3-.5z"/><path fill="#edece1" d="M104 97l-18 11 14 11z"/></g></g></svg>