<svg xmlns="http://www.w3.org/2000/svg" viewBox="0 0 1400 1120"><defs/><filter id="a"><feGaussianBlur stdDeviation="12"/></filter><rect width="100%" height="100%" fill="#783b3c"/><g filter="url(#a)"><g fill-opacity=".5" transform="translate(2.7 2.7) scale(5.46875)"><circle r="1" fill="#fff" transform="matrix(-34.41693 16.7706 -27.70647 -56.8597 177.3 178.3)"/><ellipse cx="168" cy="18" fill="#a7cda8" rx="175" ry="51"/><ellipse cx="176" cy="179" fill="#fff" rx="37" ry="56"/><circle r="1" fill="#000d0f" transform="matrix(25.78513 3.94402 -9.34344 61.08533 15.2 81.8)"/><circle r="1" fill="#fff" transform="rotate(54.9 -170.8 89.8) scale(17.2783 34.13368)"/><ellipse cx="180" cy="90" fill="#022d30" rx="60" ry="38"/><path fill="#fffff9" d="M245 71l-1-47-65 16z"/><circle cx="178" cy="181" r="37" fill="#fff"/><ellipse cx="251" cy="50" fill="#f8be65" rx="14" ry="77"/><circle r="1" fill="#003440" transform="matrix(-8.34033 -38.02408 22.03167 -4.8325 226.6 140.5)"/><ellipse cx="38" cy="4" fill="#e8ffff" rx="19" ry="17"/><path fill="#fff" d="M238 210l-111-92 25 98z"/><path fill="#eed8b0" d="M49 135l-2 20 52 22z"/><circle r="1" fill="#2d4639" transform="matrix(-31.77835 -4.69262 2.12023 -14.35818 206.1 17.3)"/><path fill="#fff" d="M134 26l18-27-24-3z"/><ellipse cx="255" cy="200" fill="#abffff" rx="11" ry="31"/><ellipse cx="57" cy="196" fill="#144b41" rx="45" ry="29"/><circle r="1" fill="#9e5953" transform="matrix(-15.76637 -44.57122 52.41161 -18.53978 87.6 100.8)"/><path fill="#fff" d="M79 33l22-49-21 2z"/><circle r="1" fill="#003334" transform="matrix(-13.56669 -13.10738 16.11421 -16.67889 122.3 192.7)"/><path fill="#070f0f" d="M116.8 14.3L63.8-16h56.5l14.4 48.5z"/><path fill="#f8ffff" d="M-5 212l-11-37 41-5z"/><path fill="#ffffcf" d="M221 0h25v11h-25z"/><path fill="#0f2829" d="M-16 11l33 149L46 23z"/><path fill="#090200" d="M150 7l16-19 21 31z"/><path fill="#dafdff" d="M135 127h66v28h-66z"/><path fill="#fff" d="M26.9 196.4l1.7 4.7-23.5 8.5-1.7-4.7z"/><circle r="1" fill="#bd8c6d" transform="matrix(13.18388 -22.9854 33.3399 19.12298 83.7 53)"/><circle r="1" fill="#a16b54" transform="matrix(-13.0912 -34.28245 12.48077 -4.76594 172.4 50.5)"/><ellipse cx="239" cy="2" fill="#def3e3" rx="5" ry="85"/><path fill="#cee2cf" d="M56 13l6 40H39z"/><path fill="#3d6870" d="M246.8 203l-31.5-5.6 7.9-44.3 31.5 5.5z"/><path fill="#3d2d30" d="M125 59h48v68h-48z"/><path fill="#ebf2dc" d="M210 56l-23-43 3 35z"/><path fill="#d97012" d="M65 0h14v54H65z"/><ellipse cx="109" cy="163" fill="#89695e" rx="28" ry="20"/><ellipse cx="146" cy="36" fill="#352417" rx="4" ry="29"/><circle r="1" fill="#ffbd63" transform="matrix(-.86207 -30.86268 5.1181 -.14296 255 155)"/><ellipse cx="128" cy="58" fill="#176ab9" rx="14" ry="9"/><ellipse cx="83" fill="#ecffff" rx="5" ry="38"/><path fill="#001312" d="M20.4 155.2l-29.8-3.7 5-40.7 29.8 3.7z"/><ellipse cx="220" cy="101" fill="#1d2931" rx="21" ry="42"/><path fill="#ffff9b" d="M199-16l-14 26-22-26z"/><path fill="#93cad8" d="M15.8 8.3L-16 11.9 5.3-12.2l11.3 57.4z"/><circle r="1" fill="#44373f" transform="matrix(-18.2461 -75.82613 4.21976 -1.0154 136.3 180.6)"/><path fill="#d96b00" d="M0 165h33v7H0z"/><path fill="#efecda" d="M131 0h8v52h-8z"/><path fill="#b56161" d="M44 71l-24 82 33-6z"/><ellipse cx="253" cy="44" fill="#c26b21" rx="8" ry="98"/><ellipse cx="60" cy="7" fill="#12322c" rx="5" ry="20"/><path fill="#d8e2db" d="M141.5 127l65-2.6-22.7 5.2-4 61.6z"/><path fill="#1c2923" d="M194 16h37v15h-37z"/><path fill="#783437" d="M98.2 150.9l-19.8 14.4-32.9-31.8 34.7-83.7z"/><circle r="1" fill="#212322" transform="matrix(-11.0897 16.64847 -3.37463 -2.24787 97.3 11)"/><ellipse cx="17" cy="159" fill="#b3dfee" rx="19" ry="5"/><circle r="1" fill="#88433f" transform="rotate(152.4 50.8 65.2) scale(20.93261 31.41252)"/><circle r="1" fill="#cfe4d8" transform="matrix(-.93053 -25.37687 2.76586 -.10142 242.9 78.3)"/><path fill="#c1ede7" d="M59.9-4.4l-4.2 26.7-37.6-6 4.2-26.6z"/><circle cx="189" cy="187" r="28" fill="#fff"/><path fill="#131109" d="M132 18l-7 23-1-19z"/><path fill="#1b413f" d="M151 79h46v46h-46z"/><path fill="#fff" d="M134 14.5L125 .1l17-10.6 9 14.4z"/><path fill="#ccd9cd" d="M200 16l22-8-26 1z"/><circle r="1" fill="#415d70" transform="matrix(-5.73731 23.0855 -19.05146 -4.73475 0 32)"/><circle r="1" fill="#201c1c" transform="matrix(-20.54095 -10.64742 4.68424 -9.0368 38.2 192.7)"/><path fill="#b6ae66" d="M170 170l18-11-14-2z"/><path fill="#c1876a" d="M95.3 154.1l-.6-30 14-.2.6 30z"/><circle r="1" fill="#73a1bc" transform="matrix(-.13554 -10.88922 4.40003 -.05477 138 202.4)"/><circle r="1" fill="#a88e72" transform="rotate(72.6 4.7 106) scale(19.1937 13.76096)"/><path fill="#4e3020" d="M180 11h6v35h-6z"/><path fill="#81816d" d="M106.1 216.3L66.9 212l12.9-29.8-37.1-43z"/><path fill="#d3d1b9" d="M242.8 72.4l-66.2-37.6 33.6-4.6 31.8 3.9z"/><path fill="#292f35" d="M192.4 111.4l-7.6-66.6L236 75.9l-15.6 108.4z"/><circle r="1" fill="#937157" transform="matrix(10.88328 -.0989 .20858 22.95411 178.7 60.7)"/><path fill="#1a2120" d="M-16 126.2l26.6-80.6 44.2 13.9 18.6-14.3z"/><path fill="#1d2123" d="M165.6 57.2l-5.4 66.5-5.2 4.3-17.8-68.8z"/><path fill="#4f5042" d="M37 14l-23 8 33 18z"/><path fill="#edfafd" d="M130.8 130.5l18.6 86.8 16.8-87.4 27.8-6.8z"/><path fill="#434b3b" d="M243.5 5.2L228.9 30l-48-11.9 58.2-9.5z"/><path fill="#e2ac75" d="M152.1 53.4l2.4-2.5-16.6-21.6-5.2 4.8z"/><path fill="#c9a48c" d="M104 177l-44-15 35 1z"/><path fill="#522d2d" d="M131.8 91.3l-9.6 58-38.6 25.3 26-27.2z"/><ellipse cx="239" cy="136" fill="#2d3a44" rx="7" ry="39"/><path fill="#1a2828" d="M5.1 156.7l22.9-.1-44-37.7 14.5 31.2z"/><path fill="#fff" d="M25 197.8l2.4 4.4-10.3 6-2.5-4.4z"/><path fill="#b09686" d="M122.9 181.4l-13.9-2 2.1-14.8 13.9 2z"/><path fill="#131c1b" d="M98 184h30v28H98z"/><path fill="#855544" d="M105.2 72.8L119 13.4l7.8 1.8L113 74.6z"/><circle cx="231" r="11" fill="#ffffac"/><path fill="#b26f37" d="M56 36h24v18H56z"/><path fill="#b2c6b7" d="M37 45.7l20.8 15.8-16.9-44.6 28.9 12.9z"/><path fill="#e4fafe" d="M-16 177.9L5.6 171l1.5 18.9L1 219z"/><path fill="#252827" d="M42.6 169.6L2 205.8 45.5 187l15.1-28.6z"/><circle r="1" fill="#d2b0a3" transform="matrix(-6.79833 3.95672 -3.026 -5.1992 160.4 20.7)"/><path fill="#edfeff" d="M254.6 169.6l5.4 12.9-4.6 2-5.4-13z"/><path fill="#d1b294" d="M75.1 166l-4 4.1-29.9-24.2h19.9z"/><path fill="#a75750" d="M33 161l-9 25 27-35z"/><path fill="#48626d" d="M245.9 178.5l-.6 26.7-8.1 11.6-27-50.5z"/><path fill="#fdffff" d="M245 29l-11-4 7-14z"/><path fill="#3b372e" d="M177.7 7.9l-21.5 6.2-12.8 1.6 5.8-12.2z"/></g></g></svg>