<svg xmlns="http://www.w3.org/2000/svg" viewBox="0 0 1400 1119"><defs/><filter id="a"><feGaussianBlur stdDeviation="12"/></filter><rect width="100%" height="100%" fill="#503947"/><g filter="url(#a)"><g fill-opacity=".5" transform="translate(2.7 2.7) scale(5.46875)"><circle cx="101" cy="100" r="199" fill="#fff"/><circle r="1" fill="#ffffe5" transform="matrix(-182.00788 178.60048 -77.58173 -79.06185 87 62.5)"/><path fill="#364026" d="M243.3 152l-71.7 20.9 22-131 19.5 83.9z"/><circle r="1" fill="#f0f9da" transform="rotate(171.4 124.7 47.1) scale(49.55267 98.23492)"/><circle r="1" fill="#f0f8d9" transform="rotate(-89.4 152.4 35.5) scale(18.46093 162.36408)"/><path fill="#d0c14c" d="M67 84.5H5v-53h62z"/><path d="M149 104l-7 33 11-10z"/><path fill="#f0f5df" d="M109 115L270-6 23-16z"/><path d="M214 152l-21 5-7-33z"/><path fill="#0c0800" d="M184 208.2l5-15.9-30.4 3.3-5.2-14.5z"/><circle r="1" fill="#ecefda" transform="matrix(107.95323 45.1307 -14.2815 34.16153 45.9 152.3)"/><path d="M227 205.4l-2.8 4.1-13.2-8.9 2.8-4.1z"/><path fill="#050802" d="M244.3 149.6l-66.5 6.4 58.7-12.3 9.2 43.8z"/><path fill="#707056" d="M235 103l24 45-42-41z"/><path fill="#000600" d="M171 141.1l-6.7-4.1-17.1 40.2 3.9-24.3z"/><path fill="#63685d" d="M195.3 100l-7.6-39.6-2.9 10.8-14.3 14.6z"/><path fill="#e1e5d1" d="M221.8 140.4l-2.2 5.6-45.4-18.4 2.2-5.6z"/><circle r="1" fill="#fffffc" transform="matrix(6.9324 -2.18788 2.8962 9.1767 184.6 102.8)"/><path d="M231.5 169.3l19 3.5-16.2 3.3-5.6-1zm-110-30.3l8.5-7 2.5 3-8.5 7z"/><path fill="#353c31" d="M155.8 89.5l.6-16.2L169 93.7l4.4-4.3z"/><path d="M209.6 164.4l-19.8-9.9 13.2-52.9-4.6 28.1z"/><path fill="#fff" d="M184 167l3-10 17 2z"/><path fill="#2a3227" d="M158.9 117.2l-29-7 43.4 3.2-6.9-8z"/><circle r="1" fill="#b2b899" transform="matrix(10.05806 18.07076 -31.12656 17.32482 69.3 102.8)"/><ellipse cx="151" cy="185" fill="#030503" rx="11" ry="3"/><path fill="#fdfddb" d="M199.3 112.8l1-4.9 78.4 15.3-1 4.9z"/><ellipse cx="255" cy="63" fill="#f4f4e3" rx="30" ry="41"/><ellipse cx="176" cy="196" rx="16" ry="2"/><path fill="#fdffdd" d="M249 234.7l-20.6-51 30.6-12.4 20.6 51z"/><ellipse cx="237" cy="104" fill="#151815" rx="5" ry="7"/><path fill="#f6fbde" d="M214.7 145.2l-2.2-3.4-12.2 77.2 16.8-50.7z"/><path fill="#464944" d="M178.3 79l3.6-8.7 32 19.1-7.5.1z"/><path d="M192 99h18v7h-18z"/><path fill="#f0f1dc" d="M185.7 178.7l-7.6-84.6-.7 46.5 11.1 7.5z"/><path d="M138 139l13-9-1-12z"/><path fill="#cbb42d" d="M7 81h30v12H7z"/><circle r="1" fill="#4a4736" transform="matrix(2.30745 2.53446 -10.72791 9.76703 196.8 170)"/><path d="M249 114.9l1.2-5.9 10.8 2.1-1.2 5.9z"/><circle r="1" transform="rotate(-65.2 213.5 -60.4) scale(8.43621 3.99935)"/><path fill="#5a5d55" d="M220.3 105.8l3.1-22.8 1.1 49-8.5-26.2z"/><path fill="#edeed9" d="M144.9 192.6l6.6-29.3 48 29.8-25.4-28.9z"/><path fill="#333631" d="M239 121h5v36h-5z"/><path fill="#0b0e0c" d="M191.5 128.5l-27.6-20.3 25.8 9.4-9.7 32.6z"/><path fill="#fffff3" d="M187 89l12 7-5-15z"/><path fill="#f7fde7" d="M150.4 82h6l1.2 70h-6z"/><path d="M177 145l-17-1 5-7z"/><path fill="#ededd1" d="M225.7 63.4l2.2 77.9 22.7-6.3-14.6-8.5z"/><path d="M153 154h4v11h-4z"/><path fill="#f3f6e0" d="M175 86l-1 41 18-29z"/><circle r="1" fill="#eff5df" transform="matrix(1.87474 -16.98123 37.61033 4.15222 17.1 15.1)"/><path fill="#0f0e04" d="M214.8 127.6l-20.7-1 31.2 13.4-14.7-20.6z"/><path fill="#e6e7d2" d="M216.2 65.3l-41.1 9.3 24.1 3.1-4.9 13.4z"/><path d="M247.8 135.6l14.3 2.3-12.8 5-9.3-20.8z"/><ellipse cx="61" cy="78" fill="#e8eee7" rx="116" ry="3"/><path d="M188.8 119.4l11.4-35.1 1 .3-11.4 35.1z"/><path fill="#f7f9e7" d="M198.4 87.7l11.6 14.8 1.8-20 30.6 38z"/><path d="M120.6 188.6l11.6-4.7-3.1 1.2 1.2 4z"/><path fill="#1f1e12" d="M199.4 57.4l-1 3.3-1.4 27.7-5-36.8z"/><path fill="#e7f2d1" d="M228 171l-3-21 21 9z"/><path fill="#6e6d55" d="M125.4 114.5l3 41.5-4.9 2 11.4-49.6z"/><circle r="1" fill="#ebefdb" transform="rotate(-162.3 64.5 55.9) scale(17.98298 31.80694)"/><circle cx="217" cy="185" r="3"/><circle cx="202" cy="192" r="3"/><path d="M211.2 197.7l10.7 21.3-25.7-3.3 45.9-10.5z"/><path fill="#e8f0f1" d="M0 44h78v5H0z"/><path d="M139 156h4v5h-4z"/><path fill="#ecf9ff" d="M0 61h73v4H0z"/><path fill="#f1f2e0" d="M244.4 129.2L271 66.4l-33.5 43 33.5 43.5z"/><circle cx="165" cy="128" r="3"/><circle r="1" fill="#eaeddc" transform="matrix(2.0338 .10678 -.71308 13.58182 204 131)"/><path d="M223 73h4v8h-4z"/><path fill="#20231d" d="M222.7 143.7l10.5 4-.3 14.4 12.6 9.7z"/><path fill="#e6e8d7" d="M147.8 111.2L175.2 99 136 77.9 71 95.7z"/><circle cx="228" cy="192" r="3"/><path fill="#edf0db" d="M156.2 198.9l-9.6-29.4 4.8-12.5-20.6 10.1z"/><path fill="#fafee7" d="M255.6 180.9l15.4-80.7-27.3 66.3 27.3 30.9z"/><path fill="#fdffe5" d="M168 142l-10 10 21-2z"/><path fill="#030d00" d="M219 171h29v4h-29z"/><path d="M224.4 159.4l-11.1-12.8 2.3-2 11.1 12.8z"/><path fill="#6c7269" d="M41 91h42v4H41z"/><path fill="#f6fae6" d="M181.7 214.1l-32.4 4.9 40.7-29.7-12.8-7.1z"/><circle r="1" fill="#e6ead8" transform="matrix(10.07957 8.3003 -2.0755 2.5204 210 113.4)"/><path fill="#f3fade" d="M223.5 156.6l1.5 21.9 8.2-14.7-18.5.8z"/><path fill="#dadbcb" d="M208.5 122.6L215.3-16l-3.7 143.8-77.7-46.5z"/><path fill="#e5e9d6" d="M180 135l5 12 5-5z"/><circle cx="160" cy="82" r="3"/><path fill="#6a7073" d="M49 82h52v4H49z"/><circle cx="174" cy="182" r="3"/><path d="M209.9 145l-18.4-6-.5 18.5 13.9.8z"/><path fill="#f6f9e5" d="M160 108l21 26 5-10z"/><path fill="#010400" d="M175.7 135.3l-3.1 4.7 18.6-11.7-2.7 6.8z"/><path d="M183 114h9v7h-9z"/><path fill="#c8ae42" d="M29 32h38v8H29z"/><path fill="#dac558" d="M89.3 124.7l-3.7-4.7-42.5-.6-7.3 4.9z"/><path fill="#090903" d="M214.6 122.4l.9 2.9-22.1 6.3-.9-2.9z"/><path fill="#e9eada" d="M238 101.7l-37.6-65.1 28 60.9-19.3 6.7z"/><path fill="#cab245" d="M5 66h63v10H5z"/><ellipse cx="162" cy="167" rx="4" ry="2"/><path fill="#ad8000" d="M250 190h6v5h-6z"/></g></g></svg>