<svg xmlns="http://www.w3.org/2000/svg" viewBox="0 0 1400 933"><defs/><filter id="a"><feGaussianBlur stdDeviation="12"/></filter><rect width="100%" height="100%" fill="#373d35"/><g filter="url(#a)"><g fill-opacity=".5" transform="translate(2.7 2.7) scale(5.46875)"><circle cx="83" cy="69" r="210" fill="#fff"/><path fill="#fff" d="M112.5-13.5L4.8 217.6l-103.3-48.1L9.2-61.6z"/><circle r="1" fill="#fff" transform="matrix(-2.40645 -217.6399 23.13167 -.25577 246.7 92.7)"/><ellipse cx="180" cy="5" fill="#fff" rx="255" ry="8"/><ellipse cx="106" cy="169" fill="#fff" rx="250" ry="10"/><path fill="#fff" d="M37-15v180H-3V-15z"/><circle r="1" fill="#fff" transform="matrix(2.91636 -149.55803 19.68047 .38377 243.7 62.5)"/><ellipse cx="61" cy="72" fill="#9d9574" rx="25" ry="63"/><ellipse cx="132" fill="#fff" rx="171" ry="13"/><ellipse cx="13" cy="105" fill="#fff" rx="24" ry="169"/><ellipse cx="242" cy="107" fill="#fff" rx="19" ry="169"/><ellipse cx="120" cy="167" fill="#fff" rx="255" ry="7"/><circle r="1" fill="#757a61" transform="matrix(16.46098 -20.31723 28.54547 23.12749 129.2 95.6)"/><ellipse cx="125" cy="29" fill="#bdb79e" rx="89" ry="18"/><path fill="#99977c" d="M37 109h179v52H37z"/><ellipse cx="184" cy="70" fill="#c3bba3" rx="25" ry="31"/><ellipse cx="153" cy="4" fill="#fff" rx="255" ry="8"/><ellipse cx="12" cy="97" fill="#fff" rx="24" ry="169"/><circle r="1" fill="#fff" transform="matrix(-.00777 -4.44971 121.41235 -.2119 154.8 166.1)"/><ellipse cx="248" cy="114" fill="#fff" rx="24" ry="169"/><path fill="#636c5a" d="M160.1 60.1l-68.5-9.7 22.6 28.2 8.8-33.9z"/><path fill="#b1af9e" d="M42 12h162v39H42z"/><path fill="#bfbba6" d="M104 93l-45 17V51z"/><path fill="#566056" d="M149.2 114.3l7.4-16.2-46.6 2.4-5.8 1.6z"/><ellipse cx="159" cy="127" fill="#c5beac" rx="28" ry="8"/><path fill="#b4b2a0" d="M137.5 100.5h-17v-27h17z"/><path fill="#2c3931" d="M42 62l3-4 13 3z"/><path fill="#979683" d="M204 15h21v140h-21z"/><path fill="#cdc8b6" d="M154 44l-54 3 28-36z"/><path fill="#808271" d="M37.6 131l6.6 29.7L59 138.5l-9.7-33.8z"/><path fill="#535f56" d="M75 65l5-13 11 24z"/><path fill="#c8c2a8" d="M116.8 52.1L153 77.9l19.3-20-50.4 7z"/><circle r="1" fill="#fff" transform="matrix(-.07902 -7.54566 170.91089 -1.78984 76.9 168.9)"/><path fill="#d6cdb9" d="M66 147l-39 13 46-2z"/><path fill="#8a8e84" d="M176.3 11.9l23.2 14-9.8 16.2-23.2-14z"/><path fill="#5d685e" d="M180 80h10v10h-10z"/><path fill="#747b6f" d="M125 120l-39-1 78-37z"/><ellipse cx="123" cy="5" fill="#fff" rx="255" ry="7"/><path fill="#949788" d="M123.7 31.5l-6.6-10.9-42.4-8.9 22.7 26.7z"/><path fill="#505c4e" d="M166 50l-20 2-3 9z"/><path fill="#58625b" d="M209 103l-1 24 12-13z"/><ellipse cx="253" cy="43" fill="#fff" rx="29" ry="169"/><ellipse cx="6" cy="56" fill="#fff" rx="31" ry="169"/><path fill="#44514b" d="M75 83h8v9h-8z"/><path fill="#c7c1a8" d="M102.3 95.7l-.7 24.6-20.1-12 45.4-16.8z"/><path fill="#c9c5af" d="M100 49h4v36h-4z"/><path fill="#86897a" d="M137.3 158.8l-73.4-22 65 4.8 99.6-4.1z"/><path fill="#aca894" d="M37 12h35v37H37z"/><ellipse cx="84" cy="127" fill="#c5bfa8" rx="11" ry="8"/><path fill="#818577" d="M225 144l-28-1-30-49z"/><ellipse cx="129" cy="119" fill="#3f4d49" rx="6" ry="5"/><path fill="#5d685c" d="M129.9 43.2l-4.9 9.6 3.7 10.2 5.4-14.6z"/><path fill="#586251" d="M87 51l-1 8 22-12z"/><path fill="#5f6a5e" d="M162.3 84.2l-.7 4.8-12.6-.9-6.5-13.7z"/><circle r="1" fill="#c4beaa" transform="matrix(.94726 -4.5216 23.2328 4.8672 79.8 77)"/><path fill="#4b5750" d="M103 80h9v12h-9z"/><circle r="1" fill="#717869" transform="matrix(-2.29433 -1.19805 9.58325 -18.3525 81.2 108.8)"/><path fill="#c1baa6" d="M87 150h32v11H87z"/><path fill="#c2beaa" d="M43.1 17.3l52.8 12.2L77.8 56 115 82.2z"/><path fill="#6c7465" d="M106.8 47.7l13.6 11.4-32.2 13.2 12.1 4.1z"/><path fill="#bcb7a7" d="M183 81.7l-34.3 3.4 23.9-15.2 53.5-34.1z"/><circle r="1" fill="#47544b" transform="matrix(-.12062 -2.21584 5.04607 -.27469 213.6 82.3)"/><path fill="#aaa896" d="M211.9 109.1l-30.6 1.9-45.4-22.5 38.3 30.9z"/><path fill="#b0ae9c" d="M126.8 107.2l34 56.4-26.1-57.2-42.5 47.1z"/><path fill="#beb8a6" d="M51.4 86.2L89.8 96l-12 11-8.2 16.1z"/><path fill="#fff" d="M0 0h36v170H0z"/><path fill="#83887a" d="M56.3 27.4l23.3 38.1-8.1-23.7-16.8-7.5z"/><path fill="#5e6656" d="M71 133h5v20h-5z"/><path fill="#505c55" d="M147.9 82.8l13.8 2.8-20.3 17.5 13.8 13z"/><path fill="#bdb7a9" d="M194 151h31v10h-31z"/><path fill="#0c211c" d="M112 97h3v9h-3z"/><path fill="#bdb59f" d="M37 66h8v64h-8z"/><path fill="#616a60" d="M42 116h34v2H42z"/><path fill="#cec8ba" d="M117 12h55v7h-55z"/><path fill="#555f56" d="M134.6 115.5l3.7 3.5-8.9 9.5-3.7-3.5z"/><path fill="#c5c0ab" d="M126.9 66.1l25.1-37-11.8 24.2-4.3 15.9z"/><path fill="#b8b5a1" d="M98.4 73l37.9 22.7-7.3 1.2-39.6-44.1z"/><ellipse cx="89" cy="89" fill="#7d816f" rx="2" ry="14"/><path fill="#c1beaf" d="M119.4 54.6l44.8-32.1 25.4 28.3-89.8-16.7z"/><path fill="#c4bea8" d="M162.7 89.5L160 49.6l7.6 52.7-13.8-13.6z"/><path fill="#646c63" d="M209 29h14v5h-14z"/><path fill="#556057" d="M106.3 16.1l-9.7 24.1-1-.3 9.8-24.1z"/><path fill="#707869" d="M109 144.5l-14-5.8 1.3-28.2 4.6 44.1z"/><ellipse cx="248" cy="144" fill="#fff" rx="25" ry="139"/><path fill="#9d9c8d" d="M181 12h42v17h-42z"/><circle cx="129" cy="88" r="2" fill="#051b16"/><path fill="#2b392c" d="M171 93h2v12h-2z"/><path fill="#001410" d="M98 74h3v4h-3z"/><ellipse cx="74" cy="165" fill="#fff" rx="255" ry="5"/><path fill="#bcb8a3" d="M105 123l-9 19 23-11z"/><path fill="#152621" d="M78 105h3v6h-3z"/><path fill="#aeac9e" d="M147.5 58.1l33.3-6.5 42.6 5.9-.5 18.6z"/><path fill="#445148" d="M101 52h18v2h-18z"/><path fill="#c1bdab" d="M113.2 25.3L89.4 39.5l7.1 22-20.3-31.7z"/><path fill="#b5b09f" d="M183.8 120.3l-3.8 40.2-17.4-57.2-3.8 18.6z"/><path fill="#838675" d="M60 70l-2-13H48z"/><path fill="#b9b7a6" d="M110 77h33v4h-33z"/><path fill="#b7b5a3" d="M87.8 94.2l-.3-1 50.7-15.4.3 1z"/><path fill="#51615b" d="M183 148l1 8 4-9z"/><path fill="#4f584c" d="M52 150.8l-4.7-6.5-4.5-1.7 8.6-1z"/></g></g></svg>