<svg xmlns="http://www.w3.org/2000/svg" viewBox="0 0 1400 933"><defs/><filter id="a"><feGaussianBlur stdDeviation="12"/></filter><rect width="100%" height="100%" fill="#373d35"/><g filter="url(#a)"><g fill-opacity=".5" transform="translate(2.7 2.7) scale(5.46875)"><circle cx="75" cy="54" r="219" fill="#fff"/><circle r="1" fill="#fff" transform="matrix(28.68102 1.75275 -14.24695 233.12918 13.6 86.4)"/><circle r="1" fill="#fff" transform="matrix(21.245 -.22679 1.86621 174.82225 244 100.4)"/><ellipse cx="133" cy="4" fill="#fff" rx="255" ry="9"/><ellipse cx="157" cy="166" fill="#fff" rx="255" ry="7"/><ellipse cx="16" cy="85" fill="#fff" rx="21" ry="169"/><ellipse cx="244" cy="93" fill="#fff" rx="21" ry="169"/><ellipse cx="129" cy="3" fill="#fff" rx="255" ry="9"/><circle r="1" fill="#fff" transform="matrix(24.46833 1.32516 -6.06391 111.9669 11.6 94.7)"/><ellipse cx="242" cy="90" fill="#fff" rx="18" ry="169"/><circle r="1" fill="#767b62" transform="matrix(18.69963 -18.62128 26.79267 26.9054 128 93.5)"/><ellipse cx="126" cy="168" fill="#fff" rx="255" ry="8"/><path fill="#c9c2a5" d="M36 13h138v38H36z"/><path fill="#afa98e" d="M37 14h67v125H37z"/><ellipse cx="185" cy="71" fill="#c2baa1" rx="26" ry="32"/><ellipse cx="137" cy="1" fill="#fff" rx="255" ry="11"/><ellipse cx="97" cy="137" fill="#959479" rx="61" ry="24"/><circle r="1" fill="#fff" transform="matrix(23.42148 -2.84461 10.90783 89.81102 10.7 91.6)"/><ellipse cx="128" cy="55" fill="#6e7664" rx="43" ry="5"/><path fill="#8e8e77" d="M178 155l46-113 1 98z"/><ellipse cx="136" cy="169" fill="#fff" rx="255" ry="8"/><path fill="#cdc4ae" d="M42 65h33v37H42z"/><ellipse cx="252" cy="74" fill="#fff" rx="29" ry="169"/><path fill="#5e675a" d="M105 99h49v13h-49z"/><path fill="#b0ae9c" d="M124 100l53-52-68 29z"/><path fill="#b8b39d" d="M198.8 129.3l-97.2-24.2 34.6 13.4-9 21.1z"/><ellipse cx="24" cy="77" fill="#fff" rx="13" ry="169"/><path fill="#596459" d="M80 69l24 7-32-24z"/><path fill="#c8c0a6" d="M37 154h77v7H37z"/><path fill="#898b7a" d="M37.2 133.1l11.1-25.3 45.3-3.4-50.2 51.1z"/><ellipse cx="150" cy="3" fill="#fff" rx="230" ry="9"/><path fill="#92927b" d="M156 127l-43 33h86z"/><path fill="#ccc7b7" d="M54 83l24-60 19 6z"/><path fill="#747c70" d="M169.8 92.3l-65.5-22.4L91 45.1l22.5 12.1z"/><path fill="#d4cdba" d="M120 13v50l16-49z"/><circle cx="129" cy="50" r="5" fill="#43514b"/><path fill="#57645b" d="M176.6 89.1l-.2-8 13-.2.2 8z"/><path fill="#bdbaa5" d="M119 54.7l21.8 47.1-18.4-33 45.3-1.7z"/><path fill="#42504a" d="M123 115l8 14 4-13z"/><ellipse cx="138" cy="168" fill="#fff" rx="207" ry="7"/><path fill="#60685c" d="M72.8 78.8l9.7 7-5.3 7.4-9.7-7z"/><path fill="#7a827c" d="M96 18h9v24h-9z"/><ellipse cx="247" cy="112" fill="#fff" rx="23" ry="169"/><path fill="#6d7569" d="M190.8 135.7l11.7 7.1 9.7-37.8 11.6 15z"/><path fill="#c2c0b1" d="M104.8 32.6l-1.6 47-4-.2 1.6-47z"/><path fill="#4f5a52" d="M147.5 85.7l15.9-1.8-20.5 18.4 13.5 14.7z"/><path fill="#c8c4b3" d="M108 34h72v13h-72z"/><path fill="#616b61" d="M88.2 89.7l17.5-8.1 14.1-27.5-9.9 33.8z"/><path fill="#d0c9b7" d="M92.8 126.6l-2.3 7.7-17.3-5 2.3-7.6z"/><path fill="#a4a290" d="M199 12h26v69h-26z"/><path fill="#3a463c" d="M42 59h11v4H42z"/><ellipse cx="12" cy="64" fill="#fff" rx="24" ry="169"/><path fill="#888a76" d="M189.7 133.6l-29.9-48.9 28 27 33.6 36.1z"/><path fill="#c0baa6" d="M62 59h14v57H62z"/><path fill="#d9d5bf" d="M85.8 67.2l-2-6.6 12.4-3.8 2 6.6z"/><ellipse cx="109" cy="119" fill="#697167" rx="29" ry="3"/><path fill="#747a6f" d="M211 17h9v20h-9z"/><path fill="#192b2a" d="M87 52h4v8h-4z"/><path fill="#43514e" d="M172.5 20l1.8 2.4-4.8 3.6-1.8-2.4z"/><path fill="#475346" d="M73 137l3 17-5-4z"/><path fill="#bab7a4" d="M92 97.8l-12.4 20.8L103 92.3 36.7 29.2z"/><path fill="#606757" d="M49 125l-6-7 9-12z"/><path fill="#bdb9a8" d="M154 55h40v27h-40z"/><path fill="#a5a592" d="M125.6 123.5l-20.7-14.8 29.4-2.5-55.1 49.5z"/><path fill="#7a8074" d="M73.2 52.8l-23-29.2L77 51.9l5.6 21z"/><path fill="#6a7268" d="M116 53l6 41-19-33z"/><path fill="#bcb9a8" d="M51 77h87v4H51z"/><path fill="#fff" d="M0 0h37v170H0z"/><path fill="#58625a" d="M139 52h12v10h-12z"/><path d="M80 104.5l1 .2-1 4.8-1-.2z"/><path fill="#b5b09a" d="M218.4 65.4l-22.3 51.4-38.1 29.9 53.2-64.4z"/><path fill="#cbc5b0" d="M155 89h3v26h-3z"/><circle r="1" fill="#47554c" transform="matrix(1.006 -2.41674 4.78418 1.99146 108 82.2)"/><path fill="#c1beaa" d="M136.7 66.5L119 65l27.4-15.6-7.3.8z"/><ellipse cx="90" cy="84" fill="#7d8275" rx="2" ry="18"/><path fill="#606757" d="M41 145l8 7 3-15z"/><path fill="#b8b39d" d="M41.2 118.9L63 152.4l-4.2 2.7L37 121.6z"/><ellipse cx="112" cy="142" fill="#828576" rx="35" ry="5"/><path fill="#5f685c" d="M116.2 108.4l2.2 13-13.7-5.2 20.3-9z"/><path fill="#afad9b" d="M103 126h54v12h-54z"/><path fill="#8b9185" d="M160.3 48.5l35.4 24.6L151.3 48l8.3-17.9z"/><path fill="#4b574b" d="M148 79l15 9-10-11z"/><path fill="#cdc6b1" d="M131 91l5 11-19-18z"/><path fill="#878c81" d="M119 21.9L84.5 46.8l10.6-11 27.1-4.6z"/><ellipse cx="211" cy="82" fill="#59635c" rx="8" ry="3"/><path fill="#c4c0b0" d="M76.7 39.7l16.5-.2 7.1-11.9-38.5-9.2z"/><path fill="#bcb9a5" d="M102.7 98l-2.4 22-10.8-10.5 38-20.9z"/><path fill="#2a3b36" d="M110 87.2l2.9 4.1-5 3.5-2.8-4.1z"/><path fill="#38453e" d="M107 54.8l-14.3-4.6.3-1 14.3 4.6z"/><ellipse cx="113" cy="1" fill="#fff" rx="255" ry="10"/><ellipse cx="163" cy="98" fill="#c5bea7" rx="2" ry="39"/><path fill="#767c6a" d="M154.6 107.1l13.4-6.8 5.3 5.7-.1-14.5z"/><path fill="#bab29b" d="M199 142v18h18z"/><path fill="#132520" d="M143 98h3v8h-3z"/><path fill="#bfb8a4" d="M36.4 89.5l1.9-72.8 9.6 72.6.1 32.5z"/><path fill="#5a655b" d="M95 116h3v25h-3z"/><path fill="#32413b" d="M129.1 82.3l3 .5-1.2 7-3-.6z"/><path fill="#bab5a1" d="M37.2 105.3l50.1-14.9-38.6 68.7 27.5-59.3z"/><circle cx="140" cy="21" r="3" fill="#576158"/><path fill="#1b2c2b" d="M139 147h7v2h-7z"/></g></g></svg>