<svg xmlns="http://www.w3.org/2000/svg" viewBox="0 0 1400 933"><defs/><filter id="a"><feGaussianBlur stdDeviation="12"/></filter><rect width="100%" height="100%" fill="#614d2e"/><g filter="url(#a)"><g fill-opacity=".5" transform="translate(2.7 2.7) scale(5.46875)"><circle r="1" fill="#edffff" transform="matrix(-156.75869 -201.12611 80.13504 -62.45764 93.5 148)"/><circle r="1" fill="#fff" transform="matrix(-50.03553 -13.49175 33.54632 -124.40992 33.8 50.9)"/><circle r="1" fill="#517395" transform="matrix(-52.97105 -61.58453 116.81031 -100.47272 167.5 114)"/><circle r="1" fill="#ffffdb" transform="matrix(-46.46846 14.19698 -3.25915 -10.66758 240.7 106.7)"/><circle r="1" fill="#a1c5eb" transform="matrix(33.15014 33.73383 -22.22685 21.84226 231.8 13.7)"/><path fill="#1a1213" d="M217 50l-87-65 22 130z"/><ellipse cx="33" cy="43" fill="#fff" rx="55" ry="84"/><path fill="#5c81aa" d="M260.5 119v70h-89v-70z"/><circle r="1" fill="#e1e151" transform="matrix(-20.4042 -47.6408 11.62654 -4.97956 151.4 147.7)"/><circle r="1" fill="#697a96" transform="matrix(2.1598 29.19904 -24.50184 1.81236 111.1 27.7)"/><path fill="#f5ffff" d="M15.4 193.8l-50.3-29L48.6 20.2l50.3 29z"/><path fill="#b49e8d" d="M175.5 40.7l23.5 9.7-68.4 38.2-6 5.8z"/><circle r="1" fill="#566f8d" transform="rotate(-157.1 55.8 66.6) scale(32.96842 102.89921)"/><circle r="1" fill="azure" transform="matrix(3.83368 2.55067 -9.67942 14.54825 113.9 19.9)"/><ellipse cx="216" cy="113" fill="#fff5e7" rx="30" ry="5"/><path d="M138-16l7 85 28-26z"/><path fill="#ffea58" d="M241.2 89.9l-10.8-2.2 29.2 15.6L271 64.9z"/><path fill="#5f4a3a" d="M104.5-16l-.9 46.2 23.9 66.9-38-59.6z"/><path fill="#34291f" d="M173.2 75.1l38.1 27.8 21.1 4.7L209 32.5z"/><path fill="#ffedd7" d="M127 53h14v18h-14z"/><path fill="#675753" d="M172 115.6L100.3 76l9.7-17.5L181.7 98z"/><circle r="1" fill="#567493" transform="matrix(21.99228 24.26312 -15.62634 14.16384 238.3 54.4)"/><ellipse cx="173" cy="113" fill="#637f99" rx="26" ry="23"/><circle r="1" fill="#5f7790" transform="matrix(-14.83291 21.13458 -38.59256 -27.08547 228.8 151.5)"/><path fill="#7b7287" d="M176.8 48.5l-19.5-42L222.1-16l-55.7 33z"/><path fill="#9ebcd5" d="M19 90l38-61-10 35z"/><path fill="#6986a2" d="M122 78l-62 52 81 23z"/><circle r="1" fill="#f7ffff" transform="rotate(114.1 -1.8 57.8) scale(100.09219 14.12947)"/><path fill="#6f87a2" d="M124.7 7.5L137.6 59 114 64.6 95.4 49.2z"/><circle r="1" fill="#4e6d89" transform="rotate(-175.9 34.6 83.4) scale(26.66433 35.01459)"/><path fill="#fff353" d="M120.2 161.8l56.9 22.6-38.2-3.1-24.2 3.7z"/><path fill="#ffffed" d="M145.6 75.6l-2-3.5 12.8-7.7 2 3.5z"/><path fill="#ffdcd3" d="M179.4 110l46.3 9.7 29.2-7.4-.9-2.7z"/><path fill="#333b48" d="M164.4 43.7l-6.7 31.4-18.5 34.2 44.2-17.7z"/><circle r="1" fill="#9aadc0" transform="matrix(6.49197 18.67373 -30.90067 10.7427 225.8 5)"/><path fill="#161d25" d="M122-16l17 60 30-59z"/><circle r="1" fill="#9cbbd7" transform="rotate(-150.8 34.8 2) scale(3.39272 34.04085)"/><path fill="#fff" d="M190 151h2v19h-2z"/><path fill="#a2a53e" d="M201.3 111.8l37.6-4-9.4-10.2-36 10.4z"/><path fill="#b97752" d="M151 75l-12 36-2-41z"/><path fill="#e8e699" d="M162 185l-19-17-6-39z"/><path fill="#2c2f21" d="M92 43.1l13-.1-6.4-13.9-3.9-1.6z"/><path fill="#fff5dc" d="M140 102.2l54.7 52.8-.7.8-54.7-52.8z"/><path fill="#a7ae9d" d="M173 49l6-13 11 16z"/><ellipse cx="72" cy="52" fill="#f6feff" rx="20" ry="23"/><path fill="#fff" d="M113 8l-1 19-9 1z"/><path fill="#21201c" d="M204.5 22.8l-3.2.2-24 59.2 29.5-42.6z"/><path fill="#8c7e75" d="M158 47l35-2-17 24z"/><ellipse cx="94" cy="93" fill="#7591aa" rx="16" ry="27"/><circle r="1" fill="#637c95" transform="matrix(-12.3695 -24.97143 49.38444 -24.46238 243.4 146)"/><path fill="#ffd4bf" d="M129.2 66.5L160.4 82l-18.7-8.8-2.5-25.9z"/><path fill="#24050e" d="M182 13h11v11h-11z"/><ellipse cx="24" cy="24" fill="#fef7ed" rx="27" ry="43"/><circle r="1" fill="#57718d" transform="rotate(35.5 -166 260) scale(12.46136 24.27792)"/><path fill="#3a3619" d="M230 98l-25 12 19-38z"/><path fill="#a9623c" d="M105 55l24 27-26-8z"/><path fill="#5f768a" d="M177 86l-31 20 79 79z"/><path fill="#cfc8a0" d="M224 103l36-31 11 9z"/><path fill="#f4f3b2" d="M127 103l4-8 4 26z"/><path fill="#4e4643" d="M142.4 100.9l-21.2-39.1 19.9 47.6 12.8-28.1z"/><circle r="1" fill="#7d6561" transform="rotate(-151.1 49.6 -3.3) scale(7.4143 5.98339)"/><circle r="1" fill="#bfc556" transform="rotate(157.7 62.4 94.1) scale(9.86236 40.9514)"/><path fill="#61afe0" d="M226 93l28 14 17-5z"/><path fill="#f8c631" d="M231.6 90.1l14.7 7.5L257 80.9l1.9 21.6z"/><path fill="#aaa759" d="M52 2h7v8h-7z"/><path fill="#152632" d="M193.4 84.9l-.8-35.5-51 55.7L176.8 82z"/><path fill="#f3f9f7" d="M89.1-16L64 60.3 105.4-16 46.8 11.4z"/><ellipse cx="210" cy="72" fill="#584a4e" rx="15" ry="20"/><circle r="1" fill="ivory" transform="matrix(-7.91053 -6.1792 .61559 -.78807 96.2 10.7)"/><path fill="#a99a96" d="M134.9 22.2l-39.7-32 2-2.4 39.6 32z"/><path fill="#3e5161" d="M116 71h24v12h-24z"/><circle r="1" fill="#ecf9fe" transform="matrix(41.65757 13.13458 -16.85095 53.44439 1 132.9)"/><path fill="#cdb4a5" d="M197.4 11.8l-3-9.8 12.4 13.2-13.5 14.6z"/><path fill="#5a6e7e" d="M151.3 117.7l33.8 34.1 10.7 33.2-69.6-95z"/><path fill="#888078" d="M176.7 25.1l43.6 10.6-37.7-12.2-2.9-39.5z"/><circle r="1" fill="#80a1bf" transform="matrix(.84423 .53598 -12.29717 19.36972 36.8 68.2)"/><circle r="1" fill="#d1d1bb" transform="rotate(-107.1 103.2 -20.7) scale(3.43841 8.2932)"/><path fill="#506d8b" d="M19.3 188.6l28-45 9.4 5.8-28 45z"/><path fill="#e2ddcc" d="M189.9 155.8l-17-19.9 20.8 19-6.1 6.1z"/><path fill="#303226" d="M107 14l3-11-16 2z"/><path fill="#fffdfa" d="M155.1 219L134 119.2l1-.2 21.2 99.8z"/><path fill="#778ea6" d="M132.4 62l-29.9-10.7 6.6-22.7 14.1-25z"/><path fill="#f5ffff" d="M121.7 8.8l-5.5 1.1-9.7 17-6.7 8.1z"/><path fill="#1b1a19" d="M152.6-16l-14.7 65.6-7.9-23.3 32.6 16.2z"/><ellipse cx="235" cy="89" fill="#6c7610" rx="6" ry="5"/><path fill="#ffeada" d="M139 55l-14 11 6 6z"/><path fill="#fff2eb" d="M232 108h23v4h-23z"/><path fill="#f2f9fa" d="M83.9 29.3l14.4 33.9 2.9-17.6-27 44.7z"/><path fill="#6d869d" d="M60 118l35-60 39 64z"/><path fill="#61768c" d="M203.4 30.3l-5.7-10.2L270.3 59l-19.6 25.9z"/><path fill="#4b5f73" d="M135.3 51.2l.1 2.4-12.6 15.2-6.3-8.4z"/><path fill="#544640" d="M154 11l-23 7-2 15z"/><path fill="#0e1515" d="M140 17L115-7l57-4z"/><circle r="1" fill="#846f83" transform="matrix(-3.38432 -.92585 3.3708 -12.32157 164 3.2)"/><path fill="#6a371d" d="M146.9 99.6l-5.3 2.2 9.9-22.1 8.4-1.7z"/><circle cx="193" cy="111" r="3" fill="#ffffde"/><path fill="#3c5870" d="M188.4 80.9l13.2 15.9-21.9 5.3-21.8-17.3z"/><path fill="#d7cdbf" d="M196.9 105.5l2.3 10.6 40-20.4-39.5 24.9z"/><path fill="#738ca5" d="M224.4 133.6l40.2-2.1 6.4-24.8-39.4 13.6z"/><path fill="#bdc8b9" d="M191 50l-9-1v6z"/></g></g></svg>