<svg xmlns="http://www.w3.org/2000/svg" viewBox="0 0 1400 933"><defs/><filter id="a"><feGaussianBlur stdDeviation="12"/></filter><rect width="100%" height="100%" fill="#6b4539"/><g filter="url(#a)"><g fill-opacity=".5" transform="translate(2.7 2.7) scale(5.46875)"><circle r="1" fill="#fff" transform="matrix(-239.62162 -87.21514 31.64836 -86.95314 87 122.3)"/><ellipse cx="87" cy="147" fill="#fff" rx="255" ry="32"/><circle r="1" fill="#d89c77" transform="matrix(17.71045 10.0201 -51.2847 90.6454 215 45)"/><path fill="#2b1200" d="M173 93l-18-59-82-14z"/><circle r="1" fill="#fff" transform="matrix(.88368 -33.74646 254.91265 6.67512 133.3 166.9)"/><ellipse cy="79" fill="#fff" rx="19" ry="63"/><path fill="#7b4626" d="M81 111l-46-3L-1-16z"/><ellipse cx="159" cy="97" fill="#9a6d55" rx="62" ry="32"/><ellipse cx="85" cy="66" fill="#f8fffa" rx="35" ry="17"/><circle r="1" fill="#befff1" transform="rotate(-46.7 45.6 -62.1) scale(10.93205 26.24423)"/><circle cx="237" cy="153" r="46" fill="#fdffff"/><path fill="#9b6a4d" d="M41.2 21.6l59.3 29-9.7 19.8-59.3-29z"/><path fill="#cfa894" d="M166 66l-2 70L266-16z"/><circle r="1" fill="#1c322e" transform="matrix(27.85647 -11.7004 14.85877 35.37593 171 17.4)"/><path fill="#021c13" d="M216 76h40v16h-40z"/><path fill="#626458" d="M102 137l-17-21 20-38z"/><circle r="1" fill="#fff" transform="matrix(-3.71958 -7.58343 8.41222 -4.1261 173.5 62)"/><path fill="#a67158" d="M65 47L12-16 24 93z"/><circle r="1" fill="#e8f3ee" transform="matrix(60.3937 90.55653 -13.70516 9.1402 31.6 127.3)"/><path fill="#734f3f" d="M141-8L110 92l58-8z"/><path fill="#f6fef8" d="M103 103h17v67h-17z"/><path fill="#fafdf9" d="M54.5 14.2l65.3 64.3 1.7-10.9L69.8 13z"/><path fill="#fff" d="M68.8 47.2L55.1 58.8l3 26.6 20.2-17.7z"/><path fill="#1c2a1f" d="M53.6-15.6l42.5 32.9 38.4 38.5-30.1-6.9z"/><circle r="1" fill="#6f8269" transform="matrix(-42.88748 .20312 -.05724 -12.08665 28 4.5)"/><path fill="#684b3a" d="M75 113.9L35.6 70.6H20.2l8.1 31.9z"/><path fill="#af8875" d="M149.3 136.5l66-11.6L134 58.1l-9.1 80z"/><path fill="#fbfffc" d="M46 119l54 66 160-24z"/><path fill="#735b4d" d="M92.2 66.5l30.6 44.9-40.3-47.8 13.9-3z"/><path fill="#faffff" d="M94 51h25v21H94z"/><circle r="1" fill="#b3826c" transform="matrix(39.45175 66.8977 -10.99744 6.48555 14.6 8.3)"/><circle cy="51" r="18" fill="#fff"/><path fill="#975f47" d="M72 30.6l6.1 13.7-35.3 11.9 9.8-30.4z"/><circle r="1" fill="#4b4b3c" transform="matrix(29.3373 -44.76703 12.31344 8.0694 248.4 51)"/><path fill="#291c14" d="M162 45l3 38-15-32z"/><path fill="#845945" d="M100-16l33 115 18-68z"/><path fill="#86887e" d="M246.3 63.4l12 24 12.7 20.4-1.1-123z"/><circle r="1" fill="#c5927a" transform="matrix(-11.93578 -5.84585 28.0284 -57.22708 216 42.9)"/><path fill="#fdf5f0" d="M43 17.5l14.6-2.8 19.3 2-27.7 11.8z"/><path fill="#816d5e" d="M31.2 87.4l62.9 38.1-20.5-29.3 9-16.4z"/><path fill="#a9b6aa" d="M203 112l33-22 32 15z"/><ellipse cx="190" cy="95" fill="#ac826c" rx="21" ry="37"/><path fill="#bbcac4" d="M80.8 83.5l18.3-1.4-1.1 14-27.8 26.5z"/><path fill="#91897c" d="M105.3 120.2l3.1 17.2-12.4-3.1-29.2-35.6z"/><path fill="#f8ffff" d="M166 55h10v19h-10z"/><circle r="1" fill="#f0f4ed" transform="matrix(-10.53811 -28.17026 35.2778 -13.19695 229.9 142.1)"/><path fill="#361f17" d="M188.7 116.9l-5.3 9.6-6.1-3.4 5.3-9.6z"/><path fill="#3f9a79" d="M39 14l6-30 29 26z"/><path fill="#d9c6ba" d="M138 104l-35-4 6 27z"/><path fill="#8b6555" d="M164 86L97 99l43-52z"/><circle r="1" fill="#3f3b2f" transform="matrix(20.80403 7.69564 -2.47025 6.67796 100.8 31.2)"/><path fill="#fff" d="M185 55l-21-1 2 12z"/><ellipse cx="90" cy="52" fill="#b0ab9e" rx="9" ry="12"/><path fill="#2b2b25" d="M126-5l67 44-27 13z"/><path fill="#41342d" d="M43.7 93.7l24.7 8-2.1 6.6-24.7-8z"/><path fill="#f3fafa" d="M98 94L55 62l15-11z"/><ellipse cx="120" cy="43" fill="#3c2e25" rx="19" ry="9"/><circle cx="29" cy="74" r="12" fill="#815341"/><path fill="#ae8772" d="M14.7 9.2l4.4 61.3 8.5 5.6 26.9-49.6z"/><path fill="#e0cdc3" d="M200.2 111.9l-27.6 20.9 19.2-3.9-9.3 20z"/><path fill="#1a211d" d="M218.4 86.6l35.7.1-21.3-24.8-4.1 19.2z"/><path fill="#e2e7e4" d="M-16 183l25-82 83 24z"/><path fill="#987053" d="M208.2 86.3l.5 36.4 5.6-15.6 8.9-40.5z"/><path fill="#776a61" d="M92 65l11 18-1 19z"/><path fill="#eff3eb" d="M-13 21.9l10.2 51.4 29.5 17.1 9 21.4z"/><ellipse cx="49" cy="75" fill="#bb826e" rx="6" ry="18"/><ellipse cx="173" fill="#494b43" rx="39" ry="24"/><path fill="#c7a495" d="M104 117l53 18 28-27z"/><path fill="#4b7333" d="M32 10h41v4H32z"/><path fill="#87543f" d="M164.5 117.6l-17 17-2-2.2 17-17z"/><path fill="#946a54" d="M56.9 43.4l23 16.1-16.2-20.3-23.3 47.1z"/><path fill="#995f42" d="M91.1-14.5l28.4 8 13.4 19.2 9.7 33.5z"/><path fill="#eaf1ee" d="M114 76l-12-25v34z"/><path fill="#7e7b71" d="M35.5 109.4l29.2 5.2 25.4-2.1-25-15.4z"/><path fill="#705d40" d="M10.9 5.6L-16 2.1 0 14.5l6.9 3.2z"/><ellipse cx="175" cy="30" fill="#333029" rx="21" ry="25"/><path fill="#f5faf6" d="M98 39l-16 2-19-23z"/><path fill="#8d5133" d="M261.8 8.2l-38.5 66.6-5.1-3 38.5-66.6z"/><path fill="#f4d7cf" d="M142 125v6h-16v-6z"/><path fill="#5d4330" d="M57 98l14 6-14 10z"/><path fill="#7ab0ac" d="M70 8H42L64-5z"/><path fill="#a8755c" d="M233.3-16l-22.4 48.1-54.3 65.3 19.1-27.2z"/><path fill="#e1edec" d="M105 105h7v32h-7z"/><circle r="1" fill="#f0f6ef" transform="matrix(3.75691 31.1458 -8.04404 .9703 7 51.4)"/><circle r="1" fill="#f0f6f6" transform="matrix(-2.09872 13.97825 -4.467 -.67068 62.5 63.5)"/><path fill="#f5f7f2" d="M164.7 124l-13.7 8.3 74.6 2.2-75.7 50.5z"/><path fill="#555c87" d="M62.1-8l1.6 13-23.8 3-1.6-13z"/><path fill="#7d5b4c" d="M102 83h39v12h-39z"/><path fill="#c1947f" d="M148.9 95.3L106 97.1l26.3 16.2 14.2-36.2z"/><path fill="#352c22" d="M243.1 39.8l19.8-23.6-42.1 73.9 12.8-30.2z"/><path fill="#edeae7" d="M49 14h25v11H49z"/><path fill="#eaece5" d="M216.8 106l-8.2 13.4 12.8 36.1 49.6-27.6z"/><path fill="#ab826b" d="M166.2 135.7l33.6-63.1 39.9 2.9-11.8-4.6z"/><path fill="#f9faf8" d="M118 155l-59 5 15-43z"/><path fill="#a27b69" d="M121.8 94.5l28.3-3.5-31.5 32.1 61.5-26.3z"/><path fill="#5c5344" d="M103 10L66-5l60 48z"/><path fill="#eff0ef" d="M73.9 79.3l18.2-2.7-32.5-24.8 8 33.6z"/><circle r="1" fill="#c69a88" transform="matrix(-22.35008 37.49261 -5.44744 -3.24732 228 19.5)"/><path fill="#fff" d="M118 53l-13-3 13 8z"/><ellipse cx="94" cy="111" fill="#777069" rx="8" ry="11"/></g></g></svg>