<svg xmlns="http://www.w3.org/2000/svg" viewBox="0 0 319 75"><defs/><filter id="a"><feGaussianBlur stdDeviation="12"/></filter><rect width="100%" height="100%" fill="#040404"/><g filter="url(#a)"><g transform="translate(.6 .6) scale(1.2461)"><circle cx="140" cy="29" r="149" fill-opacity=".5"/><circle cx="135" cy="39" r="161" fill-opacity=".5"/><path fill-opacity=".5" d="M146 53h4v7h-4z"/><circle r="1" fill-opacity=".5" transform="matrix(2.42957 .04117 -.02654 1.56643 10 10.6)"/><circle cx="221" cy="52" r="11" fill-opacity=".5"/><path fill-opacity=".5" d="M203.1 3.7l1.2-13.1L214 7.4l-10-17.6zm-67.4 3.2l.6-8 4 .2-.6 8zM228 22l29 3-10 5z"/><path fill="none" stroke="#000" stroke-opacity=".5" stroke-width=".5" d="M176.3 8.4q-8.2-11.9-37-11.6"/><ellipse cx="151" cy="54" fill-opacity=".5" rx="27" ry="13"/><ellipse cx="196" cy="35" fill-opacity=".5" rx="7" ry="9"/><path fill-opacity=".5" d="M51.7 2.6L40.5 30.4l-22.2-9L29.5-6.4z"/><ellipse cx="41" cy="2" fill-opacity=".5" rx="24" ry="11"/><path fill-opacity=".5" d="M239.3 9.4l12.9 15.4 5.7-17.3L228 9.8zm-189.4.5l25.5-3.1L52 13.7l17.8 6.1zM25 32h18v3H25z"/><circle cx="128" cy="11" r="1" fill-opacity=".5"/><circle cx="86" cy="31" r="25" fill-opacity=".5"/><path fill-opacity=".5" d="M190 41h11v19h-11z"/><ellipse cx="118" cy="9" fill-opacity=".5" rx="4" ry="22"/><circle r="1" fill-opacity=".5" transform="matrix(2.16009 10.5724 -2.28915 .4677 4.5 44.2)"/><path fill-opacity=".5" d="M209 44h16v16h-16zm-71.8 25l-29.5 9.6L92.8 33l29.5-9.6z"/><path fill-opacity=".5" d="M131.7 25.6L117 31l32.6-13.9 3.8 7.4zm14.5 22.9l-1.2-2.8 14.8-6.2 1.2 2.8zM35.9 52.8l-24 29.5-45.8-37.1 24-29.5z"/><circle cx="209" cy="36" r="5" fill-opacity=".5"/><path fill-opacity=".5" d="M106 58h10v2h-10zM82.8 28.6l-.3 12.7L69 23l20.4 14.9zm28.5-38.7l-10.1 29.3-26.5-9.1 10.1-29.3z"/><circle cx="94" cy="3" r="4" fill-opacity=".5"/><path fill="none" stroke="#000" stroke-opacity=".5" stroke-width=".5" d="M42 49.1q-10.2 8.4-3 19.3"/><ellipse cx="108" cy="22" fill-opacity=".5" rx="6" ry="15"/><ellipse cx="118" cy="51" fill-opacity=".5" rx="27" ry="3"/><ellipse cx="255" cy="20" fill-opacity=".5" rx="23" ry="14"/><path fill-opacity=".5" d="M170 30h31v15h-31zM30.1 65.3L17.5 48.5l10.4-7.8 12.6 16.8z"/><path fill="none" stroke="#000" stroke-opacity=".5" stroke-width=".5" d="M102 7.2q7.4-1.5 16.8-23.2"/><circle cx="235" cy="57" r="2" fill-opacity=".5"/><path fill-opacity=".5" d="M31 46h18v14H31zm104 8h32v6h-32zm121-17.9l-45.1 20.3 33.7.3-16-26.9z"/><path fill-opacity=".5" d="M251.8 34.7l-.4.9-33.2-16.3.4-.9z"/><path fill="none" stroke="#000" stroke-opacity=".5" stroke-width=".5" d="M95.4 55.7Q54.7 1.7 61.6-9.6m189.1 39.2Q243 5.4 224 4.7"/><ellipse cx="227" cy="3" fill-opacity=".5" rx="8" ry="10"/><circle cx="180" cy="45" r="12" fill-opacity=".5"/><path fill-opacity=".5" d="M220 21h14v19h-14zM97 59l-7-2 11 15zm-60-5l-5 9-15-21z"/><path fill="none" stroke="#000" stroke-opacity=".5" stroke-width=".5" d="M-5.9-4.3q29.4 16.2 35.1 17"/><ellipse cx="192" cy="8" fill-opacity=".5" rx="31" ry="2"/><circle cx="32" cy="58" r="26" fill-opacity=".5"/><circle cx="235" cy="39" r="2" fill-opacity=".5"/><path fill-opacity=".5" d="M12.6 59.7L28 54.4 11.1 40.6 36.5 52zM21 32L4 41l18-17zM3 25l-17-7-2 6z"/><circle cx="222" cy="23" r="8" fill-opacity=".5"/><path fill-opacity=".5" d="M51 37h13v18H51z"/><circle cx="30" cy="43" r="1" fill-opacity=".5"/><path fill-opacity=".5" d="M155 62h-20l21-19zM26 36h21v24H26z"/><ellipse cx="117" cy="2" fill-opacity=".5" rx="5" ry="6"/><circle cx="66" cy="15" r="7" fill-opacity=".5"/><circle cx="75" cy="10" r="9" fill-opacity=".5"/><path fill-opacity=".5" d="M117 34l-31-9 28 26zM-7 31.7l32.1-15.8 20.2-3.4-4.5 23.1zM210 25h10v3h-10zm-92 15h24v6h-24z"/><circle cx="219" cy="54" r="14" fill-opacity=".5"/><path fill-opacity=".5" d="M124 3h5v27h-5z"/><ellipse cx="38" cy="59" fill-opacity=".5" rx="6" ry="7"/><circle cx="90" cy="23" r="16" fill-opacity=".5"/><ellipse cx="63" cy="46" fill-opacity=".5" rx="24" ry="22"/><path fill-opacity=".5" d="M221 39l23 17-5-11zm-70.5-25.3l15.5-1.9 15.9-2.1-5.5-5.9zM204 57l5 10-16-10zM1 29h9v31H1z"/><circle r="1" fill-opacity=".5" transform="matrix(-25.1988 -1.53922 .2835 -4.64116 238.9 58.6)"/><path fill="none" stroke="#000" stroke-opacity=".5" stroke-width=".5" d="M-11.4 57q20.7-13.6 40-17"/><path fill-opacity=".5" d="M110.4 40.4l3 .4-3.8 26.8-3-.4z"/><circle cx="20" cy="44" r="13" fill-opacity=".5"/><path fill-opacity=".5" d="M106 21h8v9h-8zm13 23h30v2h-30zM228 8l23 2-15 10zm-72.8 5l-.2 3.9L194-2l-10.9-2.2zM25 44h4v16h-4zm105.2-19.8L113.5.4l12.3-8.6 16.7 23.8z"/><path fill="none" stroke="#000" stroke-opacity=".5" stroke-width=".5" d="M124.9 9.8q3.5 25.1 13.5 29.4m19 2.8l31 18.6"/><path fill-opacity=".5" d="M204.2 52.7l-6.6 16.6-12.2 1.7 36.1-9zM150 42h15v18h-15zm-38.7-28.3l19.4-16.1-31.3 3-2.5-.8zM133 21h23v11h-23z"/><circle r="1" fill-opacity=".5" transform="matrix(4.96056 -12.5622 6.19772 2.44735 162.6 56)"/><path fill="none" stroke="#000" stroke-opacity=".5" stroke-width=".5" d="M227.2 42.4q3.1 4.9 3.3 32.6"/><path fill-opacity=".5" d="M5 32h2v10H5zm205.3 19.9l-1.5-4.8 23-7 1.4 4.8z"/><path fill="none" stroke="#000" stroke-opacity=".5" stroke-width=".5" d="M129.4 41.4q13 11.8 31.5 29.3"/><path fill-opacity=".5" d="M20.4 18.7L24.8 2l2.9 4.8-15.1 21.4z"/></g></g></svg>