<svg xmlns="http://www.w3.org/2000/svg" viewBox="0 0 975 1220"><defs/><filter id="a"><feGaussianBlur stdDeviation="12"/></filter><rect width="100%" height="100%" fill="#623732"/><g filter="url(#a)"><g fill-opacity=".5" transform="translate(2.4 2.4) scale(4.76563)"><circle r="1" fill="#91c4b6" transform="matrix(-50.85122 -196.52774 63.76194 -16.4983 108.9 38)"/><circle r="1" transform="matrix(-28.32917 -1.64607 4.14646 -71.36138 89.7 229.1)"/><circle r="1" fill="#89a5a1" transform="matrix(-14.53982 63.48418 -21.49277 -4.9225 53.5 147.4)"/><circle r="1" fill="#000a11" transform="matrix(20.59315 -140.2887 21.18611 3.10993 5.2 144.6)"/><circle r="1" transform="matrix(1.37786 13.28811 -165.11948 17.12146 130.8 249.8)"/><circle r="1" fill="#000315" transform="matrix(8.8563 46.54777 -17.38187 3.30712 193.3 121.8)"/><circle r="1" fill="#9ea698" transform="matrix(-34.99578 -13.63677 47.16947 -121.05012 146.8 41.7)"/><circle r="1" fill="#657b76" transform="matrix(-10.38123 -25.82413 59.06054 -23.74218 167.3 202.3)"/><ellipse cx="196" cy="250" rx="47" ry="29"/><circle r="1" fill="#00040a" transform="matrix(-11.80212 10.07997 -23.91546 -28.0014 87.2 186.4)"/><path fill="#ffd" d="M91 4l44 8 14-25z"/><path fill="#0f1d25" d="M36 129L88-12-16 135z"/><path fill="#f6e8e9" d="M136.9 238.6l51.1-22.7 31-3.8v.1z"/><path fill="#958e8b" d="M18 180l35-96 13 137z"/><ellipse cx="35" cy="216" fill="#324657" rx="24" ry="34"/><ellipse cx="6" cy="232" rx="7" ry="83"/><ellipse cx="48" fill="#f5e3db" rx="9" ry="26"/><circle r="1" fill="#00090e" transform="matrix(-20.15188 -11.3087 36.60891 -65.23632 71.9 240.8)"/><path fill="#c09796" d="M20.6 214.3l13.6 63.6-8.8 1.8-13.6-63.6z"/><path fill="#d8d7cc" d="M94.2 58.4l26.7-20.5 24.8 9.1 7.5 11.4z"/><path fill="#5f6350" d="M169 104l-30-90 27-30z"/><circle r="1" fill="#696f6e" transform="rotate(-146.3 27.1 10.8) scale(85.46661 16.66287)"/><path d="M116 231L9 262l205-4z"/><path fill="#f2e6d8" d="M46.6 112.6l-2.8-1.1 35.6-88.1 2.8 1.1z"/><path fill="#202b33" d="M190 162L219-1l-51 108z"/><path fill="#000200" d="M24.8 145.2l7.7 27.2-43.1-8.6L1.6 269.5z"/><ellipse cy="14" fill="#9cacbb" rx="3" ry="72"/><path fill="#fff8f3" d="M161 230l-34 2 13 5z"/><circle r="1" fill="#40504a" transform="rotate(164.8 71.2 89.7) scale(7.70227 52.80211)"/><ellipse cx="113" cy="123" fill="#acb2b2" rx="12" ry="48"/><circle cx="44" cy="154" r="10" fill="#ffbe9b"/><ellipse cx="203" cy="35" fill="#3f535d" rx="26" ry="35"/><path fill="#ffceb3" d="M18.8 186.6l-5.3-7.2 13.7-10 5.3 7.2z"/><circle r="1" fill="#636d62" transform="matrix(.72023 -39.66992 17.77176 .32266 68.1 125.1)"/><circle r="1" fill="#3b433c" transform="rotate(8.3 -1427 1013) scale(23.48931 10.08335)"/><path fill="#5a6046" d="M108.4 5.9l11 36.3-25.8 8-11-36.4z"/><path fill="#ba9287" d="M132.3 234.6l-15.2-14.7-9 21.5-2.8-23z"/><path fill="#d2d7e8" d="M63 212l-5-23-3 27z"/><path fill="#0b1112" d="M18 0h11v138H18z"/><path fill="#1d1c1f" d="M19.6 204.6l11 66.4-.6-74.4 80.2 5.6z"/><path fill="#acb9ab" d="M162.3 95.9l6.7 8.6 13.1-31.6-.7-22.6z"/><path fill="#b7b096" d="M185.2-18.3l10.3 7.8-30.7 40.8-10.3-7.8z"/><path fill="#171516" d="M113.3 225.1L43 152.3l7.1 8.6 59.6 5z"/><circle r="1" fill="#a95a41" transform="matrix(-9.78588 -.55244 .80674 -14.29062 89.7 146.3)"/><path fill="#333430" d="M91 90.5l28.2-18.8-1.4-10-12.6 12.5z"/><path fill="#687970" d="M123 136l58 15-24-84z"/><circle r="1" fill="#000004" transform="rotate(-115.4 171 69.7) scale(29.68526 31.9373)"/><path fill="#4b414c" d="M84-12L58-7l11 56z"/><path fill="#ebb498" d="M82.2 151.6l9-.7 2.3-9.5-9-13.3z"/><path d="M22 271l-11-43-27 30z"/><path fill="#7d8d89" d="M116 218l-5-44 38-29z"/><path fill="#000103" d="M126 236.3l-7-11.9L79.2 271l131.2-29.6z"/><circle r="1" fill="#48555e" transform="matrix(4.35196 -.72046 4.09968 24.76416 68.9 201.8)"/><path fill="#353c37" d="M141.4 76.2l-10.9 19L141.3 61l-8.9 2.5z"/><path fill="#b5b695" d="M103.6-1.6l62.5 25.3L142.2-16 125 38.4z"/><path fill="#ae837d" d="M67.1 187.6l-46.8-12.9-7.2 38.5 29-56.9z"/><path fill="#899a8e" d="M59 119l14-62-49 92z"/><path fill="#040607" d="M7 103l39-1-18 38z"/><circle cx="22" cy="244" r="7" fill="#ff9f8c"/><path fill="#171814" d="M91.6 77.1l1.9.8-19.1 43-1.9-.8z"/><path fill="#ccc1b6" d="M96.6 58.7l1 .5-40.2 86-1-.4z"/><path fill="#4b4448" d="M192.4 50.2l-6 3.8-46.8-72.2 6-3.8z"/><path fill="#101a19" d="M4.3 193l-24.9-21.7L5.7 141l24.9 21.6z"/><path fill="#30372e" d="M146.6 163.3l6.7 22.6 3.9-34.4 10.2 29.3z"/><path fill="#71857c" d="M219 195l-36 24 3-60z"/><path fill="#fff" d="M144.6-3.4l.5 4-39.7 4.8-.5-4z"/><circle r="1" fill="#393e43" transform="matrix(24.90392 29.67933 -11.30494 9.48597 29.9 49.2)"/><path fill="#c4d0cb" d="M135.6 79l-18 8.8-5.2-10.8 18-8.8z"/><circle cx="48" cy="166" r="10" fill="#995039"/><path fill="#4a5140" d="M155.5 24.6l6.8 38.1-6.7-16.6-21.7-11.5z"/><path fill="#737778" d="M8 158l9-13-9-7z"/><path fill="#272923" d="M166.4 177.1l12.2 10 .2 7.2-4.4 21.2z"/><path fill="#2c1b1a" d="M100.9 152.6l-11.1-1.7 5.4 24.7 3.1-38.5z"/><path fill="#c6ccc5" d="M119.3 48.9l-2.6-13.3 17.8 19.6-34.2 14.9z"/><path fill="#1a1713" d="M137 105h3v28h-3z"/><path fill="#f0e3d4" d="M181.7 148.6l-1 .3-14.4-39.5 1-.3z"/><path fill="#dfc9bf" d="M133 203l12 4 16-6z"/><path fill="#eadbce" d="M149.6 72.7l-2.2-25 5-.4 2.2 25z"/><path fill="#191c22" d="M193 168l26 16-38-71z"/><path fill="#9b928f" d="M19-16l36 62 11-16z"/><path fill="#0a1012" d="M26 232.3l5.6-39.1L16.1 211l2.6 1.8z"/><circle r="1" fill="#373a37" transform="matrix(27.09562 12.43628 -1.9226 4.18887 122.1 191.2)"/><path fill="#f8f4f7" d="M188 222l21-10h-10z"/><path fill="#03080c" d="M206.3 212.4l-34.7 29.5 33.5 23.8 3.4-47.5z"/><path fill="#e3c5c9" d="M219 221l-24-51 24 24z"/><path fill="#c3c5aa" d="M182.3 56.6L178.6 46l-14-26.7 15.7 59.1z"/><path fill="#b8baaf" d="M142.3 89l-9.8 42.9 3.2-41.7 21-22.1z"/><path fill="#33392e" d="M188.2 171.6l-1 .4-19.4-53.6 1-.4z"/><circle cx="201" cy="108" r="31" fill="#2f2d33"/><path fill="#0b0d0e" d="M40.1 253l67.7-60-.3 78-117.2-19.1z"/><path fill="#3f3c44" d="M26 213l32-29-14 84z"/><path fill="#545e55" d="M92.3 161.5l-8 10.2-42.6-33.2 8-10.2z"/><path fill="#54584b" d="M63.9 112.9l13.2-45 31-52.2-12.2 26.4z"/><circle r="1" fill="#a8a9a1" transform="rotate(76.2 -21.4 159.9) scale(64.99576 1.36552)"/><path fill="#fab29a" d="M112.5 234l-5-11.3 10.7-2.5-5.6 6.5z"/><circle r="1" fill="#43493a" transform="matrix(14.09501 -23.29932 1.10813 .67037 155 77.2)"/><circle r="1" fill="#212427" transform="matrix(-7.09032 3.03535 -.91036 -2.12652 128.5 90.5)"/><path fill="#7a9088" d="M152 120l20-46-7 99z"/><path fill="#9b9480" d="M77.1 16.9l3.1-8.1 17.5-8-21.3 59.3z"/><path fill="#dcd9d9" d="M54.5 171.8l3.5 10.3-17.9-7.1 8.9 13.7z"/></g></g></svg>