<svg xmlns="http://www.w3.org/2000/svg" viewBox="0 0 1400 1119"><defs/><filter id="prefix__a"><feGaussianBlur stdDeviation="12"/></filter><rect width="100%" height="100%" fill="#34483f"/><g filter="url(#prefix__a)"><g transform="translate(2.7 2.7) scale(5.46875)"><circle cx="70" cy="32" r="255" fill="#fff" fill-opacity=".5"/><ellipse cx="143" cy="182" fill="#fff" fill-opacity=".5" rx="255" ry="44"/><ellipse cx="130" cy="26" fill="#fff" fill-opacity=".5" rx="255" ry="34"/><path fill="#001201" fill-opacity=".5" d="M91 59h64v80H91z"/><ellipse cx="76" cy="178" fill="#fff" fill-opacity=".5" rx="255" ry="40"/><circle r="1" fill="#fff" fill-opacity=".5" transform="rotate(88.5 41.7 69.9) scale(35.16837 165.88577)"/><circle r="1" fill="#253a33" fill-opacity=".5" transform="rotate(150.5 10.3 57) scale(31.06944 40.64418)"/><circle r="1" fill="#2e3f33" fill-opacity=".5" transform="rotate(25.7 -131.7 581.4) scale(71.10203 15.28916)"/><ellipse cx="230" cy="31" fill="#fff" fill-opacity=".5" rx="255" ry="29"/><circle r="1" fill="#fff" fill-opacity=".5" transform="rotate(87.2 -7.3 176.4) scale(34.35653 216.7473)"/><path fill-opacity=".5" d="M0 127h81v13H0z"/><path fill="#fff" fill-opacity=".5" d="M51 126.8l-45.6 1 67.8-14 35.6-67.2z"/><ellipse cx="171" cy="98" fill="#fff" fill-opacity=".5" rx="4" ry="189"/><path fill="#fff" fill-opacity=".5" d="M80.3 62.7l-.4 35.1 45.3-85.2L-16-10.3z"/><ellipse cx="83" cy="114" fill="#fff" fill-opacity=".5" rx="4" ry="187"/><path fill="#1a241f" fill-opacity=".5" d="M21 103l58-45-4 31z"/><ellipse cx="135" cy="112" fill="#28463a" fill-opacity=".5" rx="32" ry="28"/><ellipse cx="68" cy="168" fill="#fff" fill-opacity=".5" rx="255" ry="30"/><path fill="#fff" fill-opacity=".5" d="M127.7 146.6l-15-29.4 3.6-1.8 15 29.4z"/><path fill="#bdd7cd" fill-opacity=".5" d="M73.7 65.8l-7 35.8-23.1 11.7 2-4.7z"/><ellipse cx="22" cy="39" fill="#fff" fill-opacity=".5" rx="255" ry="20"/><circle r="1" fill="#f7f9f4" fill-opacity=".5" transform="matrix(-59.74816 134.166 -1.27517 -.56787 113 83.1)"/><path fill="#00120b" fill-opacity=".5" d="M6 59l8 6-15 25z"/><path fill-opacity=".5" d="M216.6 113.4l55.3 25.8-2.5 5.4-55.3-25.8z"/><path fill="#011a11" fill-opacity=".5" d="M-5.8 88.1l3.8 51.4 15.8-1.8-20.9-59.1z"/><path fill="#fff" fill-opacity=".5" d="M231.2 139.6L160.1 219 271 144.5l-63.3-27.3z"/><circle r="1" fill="#fff" fill-opacity=".5" transform="rotate(3.3 -275.3 2847) scale(177.573 36.59013)"/><path fill="#000d07" fill-opacity=".5" d="M87.2 139.5l5.6.9 26.6-73.9-7.2 73.5z"/><path fill="#334e40" fill-opacity=".5" d="M103 58l65 1-32 49z"/><path fill="#475847" fill-opacity=".5" d="M174.1 124l25 8 42 6.9-64.8.2z"/><path fill="#091a0d" fill-opacity=".5" d="M168.9 92.2l-2.3-17.5-1.2-2-5.4 24.2z"/><path fill="#001700" fill-opacity=".5" d="M88 77h3v53h-3z"/><circle r="1" fill="#ebe7e0" fill-opacity=".5" transform="rotate(118.4 62.6 110.9) scale(4.05926 41.6462)"/><path fill-opacity=".5" d="M141.7 132.6l-10 6.7-13.4-19.9 10-6.7z"/><path fill="#fff" fill-opacity=".5" d="M78 106l-30 13 12 2z"/><ellipse cx="171" cy="67" fill="#fff" fill-opacity=".5" rx="4" ry="203"/><path fill="#060d09" fill-opacity=".5" d="M41 126h41l-11-10z"/><path fill="#bdccc2" fill-opacity=".5" d="M230.1 105.6l-38-26 78.8 14.8L260.3 54z"/><path fill="#b3b8ad" fill-opacity=".5" d="M116.7 124.9l2.9-12.8 4.1-9.5-1.1-56.9z"/><path fill="#0b1e1a" fill-opacity=".5" d="M18 61l22 43-21-7z"/><path fill="#86998e" fill-opacity=".5" d="M39.6 89.5L79 58.7l-42.6.8-11.6 34z"/><path fill="#25372e" fill-opacity=".5" d="M192.7 81.5l-16.3-2.2-.7 18 .2-29.3z"/><path fill="#fff" fill-opacity=".5" d="M5.5 99.3l10.6 23.8-3.6 1.6-10.6-23.8z"/><path fill="#e5f7f0" fill-opacity=".5" d="M107.7 101.2l-2-.5 10.6-49.9 2 .5z"/><path fill-opacity=".5" d="M55 94l16-34-25 27zm19-29h5v20h-5z"/><path fill="#1e3c35" fill-opacity=".5" d="M11 108l15 11-16-29z"/><path fill="#5c8170" fill-opacity=".5" d="M168 137l-16-71-7 69z"/><ellipse cx="84" cy="135" fill="#fff" fill-opacity=".5" rx="3" ry="197"/><path fill="#212926" fill-opacity=".5" d="M180.7 81.9l-5.5-10.8 6.8 7 46 35.4z"/><path fill="#99b7b4" fill-opacity=".5" d="M62.3 95.3l-30.6 21.5L1.7 83 30 105.4z"/><path fill="#fff" fill-opacity=".5" d="M261-9l-59 77L-3-6z"/><path fill="#000100" fill-opacity=".5" d="M123 75h5v52h-5z"/><ellipse cx="34" cy="98" fill-opacity=".5" rx="12" ry="5"/><circle r="1" fill="#fff" fill-opacity=".5" transform="matrix(5.05546 45.42305 -149.49808 16.63871 149.2 188.5)"/><path fill="#fffef6" fill-opacity=".5" d="M184.4 50.9l-10.3 5.4L156.9 78l-1.2 10.5z"/><path fill="#fff" fill-opacity=".5" d="M86.1 85.2l17.5-26.8L271 58 59.2-16z"/><path fill="#283d32" fill-opacity=".5" d="M79.5 90.3l-16 22.9-5-3.5 16-22.9z"/><path fill="#344038" fill-opacity=".5" d="M243 61l6 5-11 20z"/><circle r="1" fill="#0d1b10" fill-opacity=".5" transform="matrix(-6.61232 -10.35525 .84283 -.53819 217.1 68.4)"/><path fill="#111713" fill-opacity=".5" d="M33 59L20 77l16-6z"/><path fill="#adc4bb" fill-opacity=".5" d="M51.8 83.6l-28.7 5.9L28 15.4l-3.9 61.1z"/><path fill="#fffbef" fill-opacity=".5" d="M116 120.5l-.9-.3 8.8-30.7 1 .3z"/><path fill="#181917" fill-opacity=".5" d="M73 111h8v20h-8z"/><path fill="#b9bfb9" fill-opacity=".5" d="M173.5 143h27v8h-27z"/><path fill="#000700" fill-opacity=".5" d="M167 97l-6-17 7-6z"/><path fill-opacity=".5" d="M105 108l-14 29 10 1z"/><path fill="none" stroke="#fefbf6" stroke-opacity=".5" stroke-width=".5" d="M133.8 15.2q-28.3 43.2-54.9 103.4"/><path fill="#aebfb5" fill-opacity=".5" d="M217 107l-31-21 15 19z"/><path fill="#f8fcf8" fill-opacity=".5" d="M255 68h1v87h-1z"/><path fill="#fff7ef" fill-opacity=".5" d="M62.2 116l.8 4-37.2 8-.8-4z"/><path fill="#000a00" fill-opacity=".5" d="M234 114l14-10v9z"/><path fill="#39453a" fill-opacity=".5" d="M178.4 136.7l6.7 3.9 22.8-3.8-34.4-7.2z"/><path fill="#99b2ab" fill-opacity=".5" d="M1.9 95.5l11.5-41.2 3.2 28.1 3.9 17.5z"/><ellipse cx="46" cy="32" fill="#fff" fill-opacity=".5" rx="255" ry="27"/><path fill="#c3d4c7" fill-opacity=".5" d="M204.2 101.2l42 18.7-.4 1-42-18.8z"/><ellipse cx="171" cy="94" fill="#fff" fill-opacity=".5" rx="4" ry="49"/><path fill="#879e93" fill-opacity=".5" d="M205.2 93l30.6 14.2 27.1-12.3-86.8-31.2z"/><path fill="#efefe4" fill-opacity=".5" d="M94.5 116.9l-17.7 48.7 28.4-61.4-.3-2.3z"/><path fill="#131d15" fill-opacity=".5" d="M225.8 122.9l-39.9-24.7 39.6 17.3 35 24.1z"/><path fill="#fff9f6" fill-opacity=".5" d="M246 85l11-12-17 3z"/><path fill="#bdc3bd" fill-opacity=".5" d="M86 144h23v9H86z"/><path fill="#fff" fill-opacity=".5" d="M77.7 133.7L-16 160.8 211.2 219 65.6 138.4z"/><path fill="#9fb4aa" fill-opacity=".5" d="M73.2 51.3l-.8 29.8-7.6 16.2-6.6-2.6z"/><path fill="#1b2e24" fill-opacity=".5" d="M165 59.6l-9.7-.2-14.8 48.9-7.2-24.7z"/><path fill="#fffffd" fill-opacity=".5" d="M67.3 118.5L84.8 96l.2 123-5.5-128.8z"/><path fill="#bbc1bb" fill-opacity=".5" d="M22 145l-1.2 7.8-26.7-3.7 1-8z"/><circle r="1" fill="#0b1612" fill-opacity=".5" transform="rotate(-145.4 114 15) scale(31.69885 1)"/><ellipse cx="5" cy="137" fill="#000b08" fill-opacity=".5" rx="58" ry="2"/><path fill="#364b43" fill-opacity=".5" d="M8.7 119.5l8.9 9.5-10.3 9.5-8.9-9.5z"/><path fill="#fffaf5" fill-opacity=".5" d="M6.8 119.2l-2.3-18.9 14 27.2 17.7-2.7z"/><path fill="#bbc5bd" fill-opacity=".5" d="M271 109V80l-27 36z"/><path fill="#b9c1b3" fill-opacity=".5" d="M147.5 89.1l6.7 9.3-3.6-12.8 3.4-14.3z"/><path fill="#fff" fill-opacity=".5" d="M114.3 119.8l2.6-1.6 10.8 18-2.6 1.6z"/><path fill="#03120c" fill-opacity=".5" d="M-6.5 108.6L9.5 59l1 .3-16 49.5z"/><path fill="#45655a" fill-opacity=".5" d="M144 134h23v6h-23z"/><path fill="#dfe9e3" fill-opacity=".5" d="M-16 94.8v38.4l30.4-57.6-6.6 24.6z"/><circle r="1" fill="#00110e" fill-opacity=".5" transform="rotate(-14 492.8 -105.8) scale(14.46327 1)"/><path fill="#000402" fill-opacity=".5" d="M43.8 135.6l17.5 2.6 14.8-6.3 1.1-7.8z"/><path fill="#f6e7e0" fill-opacity=".5" d="M170.7 92.8l80.3 50.5-37.4-16.8-40.5-30.2z"/></g></g></svg>