<svg xmlns="http://www.w3.org/2000/svg" viewBox="0 0 1400 1360"><defs/><filter id="a"><feGaussianBlur stdDeviation="12"/></filter><rect width="100%" height="100%" fill="#343c1c"/><g filter="url(#a)"><g fill-opacity=".5" transform="translate(2.7 2.7) scale(5.46875)"><ellipse cx="124" cy="202" fill="#fcf4ff" rx="117" ry="19"/><path fill="#ffd22b" d="M193.2 16.9l47-1.7 4.6 130-47 1.6z"/><path fill="#fff" d="M227.9 183.5l1.2 36-27 1-1.2-36z"/><path fill="#d49826" d="M191 16h50v132h-50z"/><path fill="#eceafa" d="M20 185h40v34H20z"/><ellipse cx="163" cy="221" rx="4" ry="59"/><ellipse cx="111" cy="181" fill="#00000e" rx="235" ry="5"/><ellipse cx="123" cy="208" rx="4" ry="40"/><ellipse cy="143" fill="#ffff31" rx="2" ry="197"/><ellipse cx="82" cy="173" fill="#050000" rx="4" ry="73"/><path fill="#030011" d="M252.9 243.7l-7.4 2.8-18.2-41.1 23.4-123.6z"/><ellipse cx="168" cy="247" fill="#ffff31" rx="192" ry="2"/><path fill="#00000e" d="M30.2 246.6L20.1 202 3.9 106.3 3.6 226z"/><path d="M193 151h8v76h-8z"/><path fill="#fdfdff" d="M215 219.8l-57.1-10.9-29.8-30.1 20.3 41z"/><ellipse cx="81" cy="232" fill="#060017" rx="204" ry="13"/><ellipse cx="255" cy="136" fill="#ffda2c" rx="3" ry="193"/><ellipse cx="116" fill="#ffd72a" rx="183" ry="3"/><circle r="1" transform="matrix(3.52636 .2281 -1.1641 17.99605 65.3 203.4)"/><ellipse cx="164" cy="161" fill="#ffd72c" rx="204" ry="2"/><path fill="#fff" d="M69 186h10v32H69z"/><path d="M31 226l17-3-6-23zm180-34h8v31h-8z"/><path fill="#fff" d="M87 185h8v35h-8z"/><path d="M151 164l-15 4 16 43z"/><path fill="#fff" d="M119 220.2l-1.1-46.7-9.7 50.5-16.7-41.7z"/><path d="M44 166l9 42 3-43z"/><ellipse cx="164" cy="207" rx="4" ry="34"/><path fill="#281617" d="M190 160L-16 1l206 1z"/><path fill="#050009" d="M31 204l12-59-24-11z"/><path fill="#fff" d="M169 187h8v31h-8zm-42-1h8v33h-8z"/><path fill="#100a1a" d="M9 163h234v23H9z"/><path fill="#000016" d="M241 8h12v142h-12z"/><path d="M95 196l-1 31 16-2zm41 27v-26l23 40zm-23.1-53.5L96.5 175l13 33.1.8.1z"/><path fill="#fff" d="M152 191h8v24h-8zm65.6-5.4l17.6 6.2-30.2 12.4 22.8 5z"/><ellipse cx="93" cy="153" fill="#070018" rx="160" ry="7"/><path fill="#fff" d="M19 186l5 34 12-3z"/><path d="M179 207h23v7h-23zm21-13l-24 5 6-7z"/><path fill="#fff" d="M170 185h24v8h-24zm-59 2h9v33h-9z"/><path d="M119 183h8v41h-8z"/><ellipse cx="1" cy="180" fill="#e89b26" rx="2" ry="247"/><path fill="#f6bd2a" d="M191 24h6v123h-6z"/><path fill="#fff" d="M45 220l18-39-4 36zm124.6-24.2l25.6 6.3-27 8.3 1.8-30.7zM201 186h10v32h-10z"/><ellipse cx="57" cy="83" fill="#342519" rx="55" ry="72"/><path fill="#fff92e" d="M16 63h2v37h-2z"/><path fill="#ae8a23" d="M84 16h101v3H84z"/><path fill="#191b15" d="M202.4 91.8l22.7 18.6-6.5-.4-27.4-25.8z"/><path fill="#fff730" d="M180 62h2v39h-2z"/><path d="M69 188l-1 27-16 16z"/><path fill="#ffcd2c" d="M87 15h3v37h-3z"/><path fill="#fff" d="M69 186h10v34H69z"/><path fill="#020117" d="M135 3h118v12H135z"/><path fill="#fffe31" d="M171 17h2v26h-2z"/><ellipse cx="198" cy="79" fill="#3f361a" rx="2" ry="65"/><path fill="#fff" d="M48.5 200l-12 .9-1-15 12-.8z"/><path fill="#ffed2e" d="M138 14h2v36h-2z"/><path fill="#ffd22b" d="M47 64h3v36h-3z"/><ellipse cx="225" cy="214" fill="#fff" rx="5" ry="7"/><path fill="#ffd02b" d="M148.3 54.6l1-.1 2.4 45h-1z"/><path fill="#e4b227" d="M62.3 112.8l13.4 35.3 12.2-38-11.1 27.6z"/><path fill="#fff" d="M24.7 184.1l7.4 32.2-6.8 1.6-7.4-32.2z"/><path d="M79 183h7v39h-7z"/><path fill="#ffd42c" d="M113 9h2v45h-2z"/><ellipse cx="40" cy="226" fill="#100c09" rx="4" ry="30"/><path fill="#fff" d="M87.5 185.5l.5 34.3L98 182l18.6 40.3z"/><path fill="#ffca2a" d="M98 62h3v36h-3z"/><path fill="#fcb92a" d="M133 109h3v37h-3z"/><path fill="#957c20" d="M85.9 76.9L63.1 13.4 50.3 59.6l17.8-45.8z"/><path fill="#0e0d0f" d="M223.3 171.4l8 26.7-9 5.3 32.6 14z"/><ellipse cx="114" cy="127" fill="#ffbb28" rx="2" ry="20"/><ellipse cx="120" cy="9" fill="#0b0f18" rx="117" ry="7"/><path fill="#fff" d="M152 186h8v32h-8z"/><path fill="#b78f22" d="M40.3 145.6l-13-40.8-12.7 40.6 13.1-26.1z"/><ellipse cx="93" cy="105" fill="#000418" rx="93" ry="5"/><path fill="#020117" d="M13.5 139.5h-11V6.5h11z"/><ellipse cx="215" cy="196" rx="5" ry="4"/><path fill="#040a18" d="M2 53h182v10H2z"/><path fill="#1a1a1b" d="M8 166h194v20H8z"/><path fill="#222216" d="M199 135h34v4h-34z"/><path fill="#2f2b18" d="M223.2 45.7l20.2-13.8-21.2 17.7L172.6 2z"/><circle r="1" fill="#8a701f" transform="matrix(-.92423 1.66353 -41.1486 -22.8616 145.8 112.8)"/><path fill="#fff" d="M201 186h27v6h-27zm-28 27h21v7h-21zm-34.9-25.8l-4.2-.8 11.5 30.8 11.2.7z"/><path fill="#db8d25" d="M0 245h256v3H0z"/><path fill="#d9ab25" d="M156.1 70l28 31.6-23.5-21.7-11.1-15.7z"/><path d="M195 186h6v40h-6z"/><path fill="#151413" d="M29 244l-27-4 9-78z"/><path fill="#fff" d="M128 185h7v35h-7z"/><circle r="1" fill="#bc9323" transform="matrix(-9.2259 -28.06075 .94997 -.31233 45.6 137.8)"/><path fill="#fff" d="M39.9 201.4l1.1-18.9-15.5 38.4 8.4-1z"/><path d="M211 209h9v14h-9z"/></g></g></svg>