<svg xmlns="http://www.w3.org/2000/svg" viewBox="0 0 1119 1400"><defs/><filter id="a"><feGaussianBlur stdDeviation="12"/></filter><rect width="100%" height="100%" fill="#5a4d35"/><g filter="url(#a)"><g fill-opacity=".5" transform="translate(2.7 2.7) scale(5.46875)"><circle r="1" fill="#9a9d7d" transform="matrix(24.34537 -81.06957 103.1357 30.97188 93.7 44.6)"/><circle r="1" fill="#00071f" transform="matrix(192.39699 -64.74874 22.91452 68.08911 118.1 213.4)"/><path fill="#818387" d="M59.8 189.6l-1.6-45 66-2.2 1.6 45z"/><circle r="1" fill="#a5a892" transform="matrix(-2.61991 -25.79256 49.78422 -5.0569 110.5 18.7)"/><circle r="1" fill="#030909" transform="matrix(-152.76002 4.18595 -.83086 -30.32104 105.2 247.6)"/><ellipse cx="8" cy="158" fill="#1c2437" rx="52" ry="49"/><path fill="#242a32" d="M156.4 99.4l32.8-33.9-56.6 20.4 10.5 82.4z"/><path fill="#d9b61d" d="M152.5 107.3l9.7 15.6 28.2-25.3 9.6-39.2z"/><circle r="1" fill="#e8b03d" transform="matrix(-7.00397 7.26982 -18.9565 -18.2633 29.5 99.2)"/><path fill="#292837" d="M67 83l1 41-49-59z"/><path fill="#252c35" d="M165.6 15.1l20.9 40.8L174.7 89l-15.2-50.5z"/><path fill="#ada25a" d="M79 55h88v25H79z"/><path fill="#e9cb34" d="M185.3 23l13 45.2-9.6 2.8-13-45.2z"/><circle r="1" fill="#232a44" transform="matrix(8.9391 .73893 -7.60852 92.04285 0 36.5)"/><path fill="#14212e" d="M205.3 74l25 18.2-37.6 51.8-25-18.2z"/><path fill="#29374f" d="M226 61.8l-14.6 8.7L162-11.8l14.6-8.7z"/><path fill="#b1aa6d" d="M42 19h116v23H42z"/><ellipse cx="96" cy="7" fill="#5c637b" rx="196" ry="10"/><ellipse cx="124" cy="120" fill="#2b2f3d" rx="120" ry="4"/><circle r="1" fill="#cfa757" transform="matrix(6.22381 1.8596 -9.67893 32.39411 16.6 49)"/><ellipse cx="95" cy="125" fill="#ced8f2" rx="43" ry="2"/><path fill="#171716" d="M56 153h71v8H56z"/><ellipse cx="100" cy="85" fill="#373b4a" rx="73" ry="7"/><circle r="1" fill="#373e45" transform="rotate(-178.5 65.8 67.3) scale(103.36804 8.52035)"/><path fill="#40485c" d="M22.8 82.9l-.9-44.7 145.8 16.2-131 .2z"/><path fill="#283246" d="M139 61l12-7v34z"/><circle r="1" fill="#ead168" transform="matrix(-.172 -16.42463 2.2209 -.02326 71.7 65)"/><path fill="#bea356" d="M59 82.2l3.5-16-21.2 16.7-12.4-36.1z"/><ellipse cx="93" cy="174" fill="#191817" rx="41" ry="3"/><path fill="#3a445e" d="M144 22h11v17h-11z"/><ellipse cx="80" cy="115" fill="#ccae4a" rx="58" ry="2"/><path fill="#363641" d="M55.1 100.4l-18.6 40.5 30.8-26.2 7.5-17.4z"/><path fill="#fbdd49" d="M131 94h5v21h-5z"/><ellipse cx="99" cy="168" fill="#e5e5e5" rx="29" ry="1"/><path fill="#fff94f" d="M85 94h3v21h-3z"/><path fill="#f8de67" d="M98.6 80.3l-.7 2.2-21-33.3 24.5 27.3z"/><circle cx="180" cy="214" r="46" fill="#191d1d"/><path fill="#2a335b" d="M127 54h6v28h-6z"/><path fill="#ffe756" d="M97 93h4v22h-4z"/><path fill="#383c51" d="M101 53h5v64h-5z"/><ellipse cx="80" cy="171" fill="#e2e2e2" rx="24" ry="1"/><path fill="#3e4558" d="M20.8 51.2l3 25.9 25-62.7-13.6-.8z"/><ellipse cx="79" cy="145" fill="#b9bec8" rx="22" ry="2"/><path fill="#ffff5e" d="M155.9 19.8l2.7 19.2 3-14.6-14.9-4.7z"/><path fill="#303035" d="M58 197L0 63l-7 121z"/><path fill="#404866" d="M58.8 14.4L69 50l-5.8 1.6L53 16z"/><path fill="#ffed84" d="M51.2 17.2l-3.8-.6 3 9 11.7 21z"/><path fill="#ffff65" d="M133 57h4v22h-4z"/><path fill="#f0cd65" d="M62 72l-6 6-9-25z"/><path fill="#eaba4a" d="M22 113.1l20.6 4.4.5-23.8 8.5 13.9z"/><path fill="#535151" d="M137.8 135.6L92 88.5l-15 22.3 9.2-44.1z"/><path fill="#ffff68" d="M126 78.3l-2.5 1.8L112 63.7l2.5-1.8z"/><path fill="#454c63" d="M96 66L85 51l10-30z"/><path fill="#d1c74c" d="M61 215h26v2H61z"/><path fill="#fff357" d="M103 114l14-14-9 16z"/><ellipse cx="90" cy="165" fill="#d5d4d4" rx="37" ry="1"/><ellipse cx="97" cy="94" fill="#d9c057" rx="36" ry="2"/><path fill="#ffff7c" d="M120 17h3v30h-3z"/><circle r="1" fill="#373a3a" transform="matrix(34.6841 -9.03453 5.0923 19.54966 147 142.1)"/><path fill="#b89345" d="M8 87l28 24-25-71z"/><path fill="#ffff76" d="M107 54h3v28h-3z"/><path fill="#ffff6d" d="M141 20h4v19h-4z"/><path fill="#ffdc3b" d="M156 113l-2-11 9-8z"/><path fill="#393d4f" d="M121.5 114.4l-11.9-47.6 4.9-1.2 11.9 47.6z"/><path fill="#a0a19a" d="M105.2-21.8l36.5 24.6-12.9 19L92.3-2.8z"/><path fill="#545a62" d="M28 44h138v11H28z"/><ellipse cx="90" cy="177" fill="#cfcfce" rx="30" ry="1"/><path fill="#595c6a" d="M36-15.3L-7.9 37.8l89-44.3-8.4 34.6z"/><ellipse cx="77" cy="54" fill="#3c425a" rx="3" ry="29"/><ellipse cx="201" cy="100" fill="#2b2f30" rx="5" ry="250"/><path fill="#4a5269" d="M140 20l-10 13 9 8z"/><path fill="#ffff6a" d="M124 52.5h1l1 29h-1z"/><path fill="#b2b1b1" d="M62 161h62v2H62z"/><path fill="#ffff72" d="M81 58h3v23h-3z"/><path fill="#dbb931" d="M186.7 50l-5.9 23.9 5.1 8.9 3.5-21z"/><path fill="#ffe07d" d="M47 36l-8 6 8-23z"/><path fill="#9c9ea2" d="M60 149h52v4H60z"/><path fill="#565c71" d="M122.8 72.5l-.7-18.2-6.3-36.2-4.1 7.5z"/><ellipse cx="104" cy="240" fill="#050707" rx="37" ry="15"/><path fill="#ff7" d="M115 42l-7-6V19z"/><path fill="#ffff59" d="M79 100l-9 12 7-18z"/><path fill="#24282e" d="M163 68l17-14-7 33z"/><circle r="1" fill="#362f43" transform="matrix(.79557 8.81606 -4.61161 .41616 93.3 103.5)"/><path fill="#282927" d="M0 164h59v74H0z"/><circle r="1" fill="#fff163" transform="matrix(-.05246 -2.02326 7.1933 -.1865 148 42)"/><circle r="1" fill="#ddc669" transform="matrix(2.16405 .58242 -2.35674 8.7568 62.5 61.3)"/><path fill="#585349" d="M35.2 89.4l9.5 20.6-11.4-2.9L69 41.8z"/><ellipse cx="92" cy="180" fill="#c9c8c9" rx="34" ry="1"/><path fill="#ffec72" d="M97 48h3v27h-3z"/><path fill="#626562" d="M108 37L49 54h59z"/><circle r="1" fill="#f1d94c" transform="matrix(.5466 -17.39311 1.3946 .04383 153.8 69.2)"/><path fill="#d1b334" d="M172 115l-16 2 31-17z"/><path fill="#48494e" d="M69.4 81.1l.8-25-.1-11.4-19.2 59.7z"/><ellipse cx="85" cy="183" fill="#c4c4c2" rx="25" ry="1"/><path fill="#56596b" d="M85 35l6-24-14-9z"/><path fill="#e7d378" d="M83 10.4L66 39l4 6.4 5.7-15z"/><path fill="#ffff76" d="M89 42l-6-2-4-15z"/><path fill="#111c30" d="M184.3 111.3l-.3 1-22.3-5.6.3-1z"/><path fill="#ffff5e" d="M114 94h4v9h-4z"/><path fill="#3e4351" d="M38.5 59.8l4 13.5 8.4-52.7-6.4 18.5z"/></g></g></svg>