<svg xmlns="http://www.w3.org/2000/svg" viewBox="0 0 1400 1120"><defs/><filter id="a"><feGaussianBlur stdDeviation="12"/></filter><rect width="100%" height="100%" fill="#232c3f"/><g filter="url(#a)"><g fill-opacity=".5" transform="translate(2.7 2.7) scale(5.46875)"><circle r="1" fill="#faffff" transform="matrix(60.87816 -2.24564 1.91352 51.8745 130.6 75.3)"/><ellipse cx="38" cy="120" fill="#8e645e" rx="243" ry="27"/><circle r="1" fill="#b4f5ff" transform="rotate(-68.7 108.2 -61) scale(35.30128 53.84445)"/><ellipse cx="147" fill="#010500" rx="161" ry="28"/><path fill="#a5c1ea" d="M72 26l72 138 33-135z"/><circle r="1" fill="#e5ac75" transform="matrix(10.30173 39.75253 -19.67026 5.09748 .4 141.5)"/><ellipse cx="147" cy="187" rx="85" ry="22"/><ellipse cx="139" cy="134" fill="#664c49" rx="67" ry="39"/><path fill="#004972" d="M175 35h16v91h-16z"/><path fill="#e5f7f7" d="M78 65h97v30H78z"/><path fill="#f9c2a6" d="M124 104l57 23-55 1z"/><path fill="#080c18" d="M77 120h47v30H77z"/><path fill="#09385a" d="M19 107l58-83-1 60z"/><ellipse cx="133" cy="49" fill="#4fa0ec" rx="58" ry="12"/><path fill="#84675b" d="M111 80L40 98l31 35z"/><ellipse cx="196" cy="137" fill="#ffd4ab" rx="4" ry="19"/><path fill="#dbaa9b" d="M271 160l-45 3 10-11z"/><path fill="#fff" d="M139 134h8v22h-8z"/><circle r="1" transform="matrix(33.06636 -22.39422 12.48662 18.43721 184 185)"/><ellipse cx="231" cy="139" fill="#000028" rx="29" ry="14"/><path d="M25.5 174.6L31 206 .5 211.4-5 180z"/><circle cx="222" cy="106" r="9" fill="#ffac6e"/><path fill="#a5dbff" d="M137 30h37v73h-37z"/><circle r="1" fill="#090000" transform="rotate(-133.4 78.1 68.7) scale(39.59315 16.28914)"/><path fill="#6e4f48" d="M72 195L9 139l36 80z"/><circle r="1" fill="#2b2a16" transform="matrix(-20.86149 -.48445 2.34312 -100.90007 238.9 19)"/><path fill="#fffff8" d="M3.7 141.6L-16 136l25.5-10.3-2.7 38.6z"/><path fill="#cfbabb" d="M105.1 166.2l-3.2-18.6-5.7-4.9V171z"/><path fill="#b7410b" d="M132.2 102.2l-10-4.6 5.6-11.8 10 4.6z"/><path fill="#271207" d="M155.8 132.2l45.6-12.4-25-23.8-1.6 21.6z"/><path fill="#ffcd9e" d="M41 99h15v12H41z"/><path fill="#927b7b" d="M166.2 142.8l6 23.1-41.6-1.3 11.8 19.1z"/><path fill="#17102c" d="M12.7 153.1l64.7 25.4L36 132.1l-52 27.8z"/><path fill="#3c40ff" d="M115 95h58v6h-58z"/><path fill="#ffab64" d="M21 114l-6-17-31 16z"/><path fill="#b78e1f" d="M248 5h8v27h-8z"/><circle r="1" fill="#000015" transform="matrix(-.39266 3.59282 -8.9763 -.98103 144.4 105.7)"/><path fill="#dc9072" d="M197.7 145.1l-7.5 4.7 5.8 7.8 16.8-.3z"/><path fill="#ffba7b" d="M68 89h9v18h-9z"/><path fill="#afba9e" d="M75 24l13 19 52-8z"/><path fill="#ffb66d" d="M190 110.9l-1.8-8.8 13.7-3 1.9 8.8z"/><path fill="#241621" d="M111 101l14 3-10 51z"/><path fill="#434ac1" d="M80 37h30v12H80z"/><path fill="#1f4060" d="M50 87.1l11.9 37.2 18.3-78-96.2 57.5z"/><circle r="1" fill="#000c7d" transform="matrix(-5.8789 -2.78873 7.68985 -16.21088 233 126.5)"/><circle r="1" fill="#0e1721" transform="matrix(-2.26809 -32.43516 52.22104 -3.65165 24.5 32)"/><circle r="1" transform="matrix(5.58046 -.80742 7.10817 49.12815 69.8 180)"/><circle r="1" fill="#433136" transform="rotate(-106.8 78.5 31) scale(8.66209 30.10813)"/><path fill="#000004" d="M116.3 219l-8.5-47.9 19.5-28.6 3.3 4.7z"/><path fill="#111924" d="M26 120l14-17-53 21z"/><path fill="#d7ffff" d="M77 60h44v23H77z"/><path fill="#ffb891" d="M111 163l6-10-19 13z"/><path fill="#908882" d="M94 82h15v41H94z"/><path fill="#c69681" d="M220.2 100.9l12 16.8-12.1 13.2-5.5-29.1z"/><path fill="#fff" d="M126 112h7v17h-7z"/><path fill="#3f8eb6" d="M178 52h14v41h-14z"/><path fill="#987f7d" d="M243.2 136.7l27.8-28.1-19.7-4.1-8.3 2.5z"/><path fill="#0d1a2d" d="M193 4l-37 24-57-3z"/><path fill="#9b8576" d="M47 187l-6 32-9-46z"/><path fill="#743739" d="M148.6 117.6l-2.4 14.8-12.8-2 2.4-14.8z"/><path fill="#123149" d="M216 162h40v38h-40z"/><path fill="#081329" d="M163.8 158.8l10-.9-33.5 7.4 17.9-30z"/><path fill="#ffa366" d="M154.7 122.8l-1.4-21 8-.6 1.4 21z"/><path fill="#ffac68" d="M58.7 178.7l2-.4 8.6 41-2 .4z"/><path fill="#e9f2ff" d="M137 134l7 24 3-22z"/><path fill="#adb6c9" d="M70 124h5v23h-5z"/><path fill="#1c3350" d="M54 70l-70-14 50 64z"/><path fill="#f8d0a5" d="M24.4 127.3L7.7 142.8l-9.5-11.7 22-6.8z"/><path fill="#fff" d="M7 157h4v9H7z"/><path fill="#aa7f6e" d="M184.7 130.2l-28.5-14 19.6-2.4-4.4 36.7z"/><path d="M183 156h33v48h-33z"/><path fill="#ca7933" d="M125 89h11v19h-11z"/><path fill="#8ad7ff" d="M77 26h9v42h-9z"/><path fill="#13191e" d="M178.3 111.7l-21.3-1.2 30.5-13.4 5.5 49.6z"/><path fill="#3d2f24" d="M216 161h20v43h-20z"/><path fill="#aaedff" d="M139 29h37v11h-37z"/><path fill="#1b648b" d="M60 48l2 52 15-24z"/><path fill="#2d4e57" d="M176 29h15v25h-15z"/><circle cx="105" cy="106" r="6" fill="#ffb66e"/><circle r="1" transform="rotate(77.8 -119.6 100) scale(13.52452 33.9744)"/><path fill="#866da0" d="M39.3 134.7l8.7-2.1-8.5-19.5-10.1 9.7z"/><path fill="#000219" d="M126.5 169.6l13.8 31.2 20.7-46.2 6.8 32.9z"/><path fill="#a78a8f" d="M147.3 177.7L143 175l11.6-18.7 4.2 2.7z"/><path fill="#dfa091" d="M236.2 152.2l11.3 1.3-.9 6.9-10.3 3z"/><path fill="#ffbc99" d="M133 167.8l5.5-2.1 2.6 6.5-5.6 2.1z"/><path fill="#809eff" d="M115.7 95.6L95.6 90l2.6 20.7-1.7-10.3z"/><path fill="#d8ebe8" d="M141 61h32v34h-32z"/><path fill="#132634" d="M219.3 71.9l25.9 14-3.1 60.9-4.7-20.5z"/><path fill="#ecd9ce" d="M146.4 124.8l6.5 5.2 13.2-7.3v-3.3z"/><path fill="#1b173a" d="M67.4 123.5L63 166.8l-37.6-42.9-3.6 58.2z"/><path fill="#58a9e2" d="M137 42h22v19h-22z"/><circle cx="50" cy="122" r="5"/><path fill="#ffb5b5" d="M27 175h8v5h-8z"/><path fill="#1a1c2c" d="M98.6 164.2l9.1-17.2 38.1 20.7-9.7-22.5z"/><path fill="#c0efff" d="M78 58h16v31H78z"/><path fill="#2b7b50" d="M96 83h13v9H96z"/><path fill="#ccb6b5" d="M166.7 167l-3.4-21.7 2-.3 3.4 21.7z"/><path fill="#b58073" d="M99 169l11-5-19-8z"/><path fill="#000007" d="M89.6 124.3l5.8 16-15 5.4-5.8-16z"/><path fill="#7e5e3e" d="M106.9 175.4l1.2 23-3 .2-1.2-23z"/></g></g></svg>