<svg xmlns="http://www.w3.org/2000/svg" viewBox="0 0 1400 1120"><defs/><filter id="a"><feGaussianBlur stdDeviation="12"/></filter><rect width="100%" height="100%" fill="#2c2c4c"/><g filter="url(#a)"><g fill-opacity=".5" transform="translate(2.7 2.7) scale(5.46875)"><path fill="#fffff1" d="M166.7 171.2l12.3 36-39.7 13.6-12.3-36z"/><circle r="1" fill="#ffff7d" transform="matrix(8.5311 15.68067 -26.91806 14.64482 112.3 93.2)"/><path fill="#fff8b8" d="M131.7 28.2L135 4.4l67.3 9.4-3.3 23.8z"/><path fill="#ded97e" d="M59.8 49.6L47 69.9-9.8 34.4 3 14.1z"/><circle r="1" fill="#fffcd0" transform="matrix(-7.35823 -7.20571 15.6196 -15.95022 45.3 138.9)"/><ellipse cx="244" cy="76" fill="#ffffa4" rx="37" ry="9"/><circle r="1" fill="#d9cd6f" transform="matrix(-19.80923 -19.9682 9.18437 -9.11125 189.5 137.2)"/><path fill="#ffe" d="M72 189l46-4v-13z"/><path fill="#fcead3" d="M169.3 11.5l-35.4 15.4 63.2-9.3 15.1-8.1z"/><circle r="1" fill="#93a842" transform="matrix(47.88088 -26.75972 3.34967 5.99354 246 179.5)"/><path fill="#d6c789" d="M-13 172.4l18.5-4 7.5 35.2-18.5 4z"/><path fill="#526524" d="M169 21h45v20h-45z"/><path fill="#efdd8b" d="M160.5 71.1l-64 11.5 23.3-1.8L98 119.6z"/><ellipse cx="156" cy="203" fill="#ffdab1" rx="19" ry="26"/><ellipse cx="3" cy="107" fill="#c8c24c" rx="20" ry="6"/><circle r="1" fill="#2a2f38" transform="matrix(-23.44528 -18.545 14.37364 -18.1717 179 162.8)"/><circle r="1" fill="#9a91b5" transform="matrix(-5.70254 -4.95432 18.12084 -20.85752 142.3 14.4)"/><circle cx="247" cy="78" r="14" fill="#b9a05c"/><path fill="#f7d1cf" d="M192 125l17 16-1 26z"/><path fill="#ffe3d0" d="M28 30l23 19-52-23z"/><path fill="#353a40" d="M112 114l67 5 27-106z"/><path fill="#e6d8bb" d="M122.3 193.8l-3.9-16.9-39.5 13.2 78.9-10.4z"/><path fill="#484d65" d="M0 111h55v25H0z"/><path fill="#fcdd40" d="M179 136l-18-9 31-12z"/><path fill="#ffdece" d="M32 160l2-19 30-11z"/><path fill="#918632" d="M98 80l-31 31 47-16z"/><path fill="#343650" d="M-6.3-15.1L112.9 91.3 30 31.9 4.4 23.4z"/><path fill="#343752" d="M130 80l46-45L22-10z"/><circle r="1" fill="#928e39" transform="matrix(-36.71208 9.97445 -.67635 -2.48939 196.5 3.8)"/><path fill="#ffe9f6" d="M105 79l17-10 2 13z"/><circle r="1" fill="#f8c6b3" transform="matrix(-5.5906 3.84452 -9.42803 -13.71002 154.5 17.1)"/><path fill="#abad96" d="M218.5 183.5l-12.9 17 35.3-38.4 5.6-8.9z"/><path fill="#ffeff1" d="M211 77h33v5h-33z"/><path fill="#1f2030" d="M221 75l50-65-85 46z"/><path fill="#637320" d="M137 78h39v13h-39z"/><circle r="1" fill="#75823c" transform="matrix(5.83004 -7.65038 21.6755 16.518 30.2 51.7)"/><path fill="#cdb2b3" d="M229.8 79.2l1.5-11.1 39.7 49.6-29.9-31.8z"/><circle r="1" fill="#5561a1" transform="rotate(123.5 59.5 49.8) scale(14.96586 7.49485)"/><path fill="#788645" d="M214 44.5L186 37l4-15.5 28 7.5z"/><path fill="#2e3148" d="M106 182l-40-79 80 22z"/><path fill="#dedec2" d="M213 8l-16-2-8 15z"/><path fill="#27293d" d="M235 84l-38-7 18 105z"/><path fill="#343852" d="M30 145l-33 43 35-3z"/><ellipse cx="134" cy="192" rx="5" ry="3"/><path fill="#fffcef" d="M9.9 178l-17-14.7 6.5 19.6-15.4-.8z"/><path fill="#16182a" d="M167 4L137-8l28 21z"/><circle r="1" fill="#ecdb79" transform="matrix(-6.42793 9.97419 -5.97291 -3.84928 110.5 104.4)"/><path fill="#ffffd8" d="M84 183.5l3.3 6.1-5.2 3-3.4-6.2z"/><path fill="#6e6d13" d="M260 63l-1 24-22-16z"/><path fill="#fff351" d="M9.2 29l-4.6 3.9L-9.2 17l4.6-3.9z"/><path fill="#757254" d="M28.1 144.1l14-25.2 19.8-2.9-32.7 31.9z"/><path fill="#ffe291" d="M40 37l5 16 8-2z"/><path fill="#2a2a48" d="M131.6 147.9L234 84.5l-122.7 28.7 29.5-25.4z"/><path fill="#292b3f" d="M143.1 161.7l14.9-29.9-42 51.8-6.9 25.5z"/><path fill="#384496" d="M8.7 38l4 17L-16 19.4l32.6 21.1z"/><path fill="#73692e" d="M123.7 76.3l-8.6 8.9-20 8.4.2 23z"/><path fill="#c8b99f" d="M158 80l-2-8-18 1z"/><path fill="#959eca" d="M-7 124l23 5-19 3z"/><path fill="#31344d" d="M12 158h69v46H12z"/><path fill="#e5e7c3" d="M269.4 149.8l-28.5 9.3-.3-1L269 149z"/><path fill="#fffffa" d="M217.1 78l-6.8 1.8-1.4-5.9 6.8-1.7z"/><path fill="#d5b6a7" d="M134.7 9.2l34.5 28.1 3.3-3.8-29.3-30.2z"/><path fill="#f0dfc4" d="M84 183h30v5H84z"/><path fill="#efe085" d="M108 98l15-22 18 11z"/><path fill="#9189a4" d="M116.5 177.5l14.8-14.3-13.5-1.1-9.6 28.7z"/><path fill="#2c2d45" d="M188.9 173.7l-57.9 5.9.1-89.5 51.4 124.3z"/><path fill="#272849" d="M173 28l56 46-65-8z"/><circle r="1" fill="#353853" transform="matrix(15.31577 -8.45476 21.28253 38.55324 63.1 34.8)"/><path fill="#252539" d="M244-16l17 41h-71z"/><path fill="#f5f4d5" d="M129 188l13-11h15z"/><path fill="#3543a0" d="M184 128l12-6-13 18z"/><path fill="#c4bf5b" d="M83 105l-10 1 16-15z"/><path fill="#3d4d1c" d="M168.1 132.4l39.6 24.8-8.3 3-32.7-21.9z"/><path fill="#bbbea1" d="M296.5 163.1l.4 1-83.4 38.8-.4-1z"/><path fill="#333fb0" d="M46.4 134.9l4.4-17.5 6.8 1.7-4.4 17.5z"/><path fill="#e3c1bb" d="M12.3 201.4L2.4 190l-1.7-4.7L13 197.2z"/><path fill="#272a4b" d="M70 176l29 5 37-23z"/><path fill="#4c5600" d="M7 201l-13-27-10 45z"/><path fill="#353755" d="M29.3 30.4L7.6 28-8.9-14.5 52.9-16z"/><path fill="#26273f" d="M215.6 164.4l-14.7 52.1-16.6-13.7-29.6-40.2z"/><path fill="#ffdfd3" d="M57 129l8 1-7-9z"/><circle r="1" fill="#dab7a5" transform="matrix(5.61174 .7032 -2.18607 17.44546 160.6 192.2)"/><ellipse cx="234" cy="122" fill="#232435" rx="11" ry="39"/><path fill="#dcb5aa" d="M230 68l12 22 5-10z"/><path fill="#c3c897" d="M237 66h19v2h-19z"/><path fill="#ccccb9" d="M195 214.7l27.1-36 .8.6-27 36z"/><circle r="1" fill="#888330" transform="matrix(9.9996 -9.58928 4.42309 4.61235 0 108.8)"/><path fill="#2c2d48" d="M151 57l-22 22-36-69z"/><path fill="#363b4e" d="M14.2 45l23.9 64.4L-16 97.6V36.1z"/><path fill="#32354d" d="M95.6 82.4L35.5 53.6 63.2 59-16 170.8z"/><path fill="#dfb9a5" d="M131 197l17 18 11-35z"/><path fill="#30324c" d="M100.2 114.9l90.4 1.1-131.3 42.2 7.4-53.1z"/><circle r="1" fill="#aaaeac" transform="matrix(.90408 .42736 -4.71915 9.98344 127.8 27)"/><path fill="#d4b1a4" d="M140.6 27.2l19.2.9 14 8.3-21.6-30.6z"/><path fill="#978a35" d="M26 147l22-16-7-6z"/><circle r="1" fill="#2c2b46" transform="matrix(-2.07317 5.11955 -28.90942 -11.70694 168.9 40.4)"/><path fill="#ffdb2b" d="M184.9 121.7l4-3 4.2 5.6-4 3z"/><path fill="#cec9a2" d="M104 109.5l-29.2-3.8 33.7 8.8 3.9-3.4z"/><path fill="#adab94" d="M204.8 160.4l.6-12.4-25.2-10.2 37.1 21.1z"/><path fill="#e1e1c7" d="M183 21l-18-6 43-7z"/></g></g></svg>