<svg xmlns="http://www.w3.org/2000/svg" viewBox="0 0 1400 1120"><defs/><filter id="a"><feGaussianBlur stdDeviation="12"/></filter><rect width="100%" height="100%" fill="#2c2c4c"/><g filter="url(#a)"><g fill-opacity=".5" transform="translate(2.7 2.7) scale(5.46875)"><ellipse cx="150" cy="197" fill="#ffffec" rx="26" ry="21"/><circle r="1" fill="#ffff7f" transform="matrix(8.2598 14.2123 -26.79207 15.57082 111.8 91.9)"/><circle r="1" fill="#fcedb2" transform="matrix(-36.8669 -4.34969 1.65789 -14.05185 166.6 18.2)"/><path fill="#eee97f" d="M36 34l24.3 19-24.2 15.7L-16 16z"/><path fill="#fff9d1" d="M52.3 116.1L66.7 130l-25 25.9L27.3 142z"/><path fill="#fff79e" d="M271 58.7l-71.9 18.9L271 92.4l-1.5-14z"/><circle r="1" fill="#f8e684" transform="matrix(18.4334 16.83724 -7.00845 7.67285 190.5 135.5)"/><path fill="#fff9d8" d="M71 189.4l43.3-1.2 2.8-.3 3-16.6z"/><circle r="1" fill="#8b9d42" transform="matrix(4.05065 7.286 -32.92801 18.3063 237.6 183.6)"/><path fill="#e8d6c1" d="M187.3 18.6l44.1-15.1-89.7 14.4L152 28.3z"/><circle r="1" fill="#cbbd85" transform="matrix(-4.8636 -30.81994 11.438 -1.805 0 193.8)"/><circle r="1" fill="#ffd2ae" transform="matrix(-11.35721 23.04407 -15.6308 -7.7036 152.4 199.6)"/><path fill="#c8ba62" d="M108 113l60-47-99 36z"/><path fill="#feddc4" d="M66 127l-32 32-7-14z"/><circle r="1" fill="#64782d" transform="matrix(-1.55017 10.1378 -25.32964 -3.87316 193.7 31)"/><circle r="1" fill="#54575c" transform="matrix(5.71754 -18.20894 34.37941 10.79501 21.7 117.8)"/><path fill="#f0d63d" d="M197 112l-34 16 13 9z"/><path fill="#f8d4c8" d="M208 142v24l-17-44z"/><path fill="#707ec7" d="M131 14.7l13 5.4-9 21.2-13-5.4z"/><path fill="#333528" d="M156 0h40v11h-40z"/><path fill="#1a172b" d="M124 219l.5-23.8-13.8 5.5 29.1-14.1z"/><path fill="#dccc90" d="M132.2 79.7l25-14.4L104 121l9-50.7z"/><path fill="#efcdb2" d="M53 51.1L32.5 33.8-16 13.7 54.3 56z"/><path fill="#f0d0c8" d="M256 98l-21-27-9 7z"/><path fill="#ecc4be" d="M147-3l26 38-37-21z"/><path fill="#544f1f" d="M120 81l-24 31-8-15z"/><path fill="#5d6f1f" d="M137 78h41v14h-41z"/><path fill="#b9b346" d="M13.8 110.3l17.2-3-47-9.1v22.1z"/><path fill="#31344e" d="M44 20l153 29-67 29z"/><circle r="1" fill="#6d7734" transform="rotate(30.4 -86.3 94.7) scale(19.79197 9.74775)"/><path fill="#f6f3d1" d="M121.7 186.3l28.5-9.3 2.1 6.7-28.5 9.3z"/><path fill="#fae45d" d="M45.8 44.1L10.5 32.8-14.4-16-16 24.3z"/><path fill="#212235" d="M192 22l59-38 20 52z"/><path fill="#fefff6" d="M212 76h21v6h-21z"/><path fill="#2c2e44" d="M134 90l-40 48 114 55z"/><path fill="#fffbed" d="M-7 177l18 1-27-26z"/><path fill="#e5e0c7" d="M212 7.8l-18.9 15-54.4-8.4 55.6-2.9z"/><path fill="#31334b" d="M96.8 181l15.6-.1-39.9-82.8-25 78.1z"/><path fill="#b7b8a5" d="M247.8 153l.7.7-42.3 45.3-.7-.7z"/><path fill="#2e3334" d="M179 214l23-62-38-23z"/><path fill="#ffffdf" d="M80 192l26-11-22 3z"/><path fill="#292b41" d="M136.3 126.1l89.9-12.2L177.5 53l41 33.9z"/><path fill="#7a7112" d="M239.8 71.5l25.8-14.6-9 43.4 14.4 13.2z"/><path fill="#333652" d="M15 9l99-25 31 36z"/><ellipse cx="191" fill="#878348" rx="11" ry="9"/><path fill="#343951" d="M-1 188l40-81-16 82z"/><path fill="#2b2c46" d="M195.6 39.7l35.9 39-29-7.7-84.7 4.4z"/><path fill="#ebdbc1" d="M105 79l12-8 32 20z"/><ellipse cx="2" cy="37" fill="#6472c0" rx="9" ry="6"/><path fill="#717c45" d="M213 26.8l4.4 12.8-20.2 2.6-43.5-24.7z"/><path fill="#33364f" d="M133 89.8l-14.7 96.6 40.1-10.6-44.4-60.6z"/><path fill="#262848" d="M198.6-2.3L118.3-16l50.3 30.9-2.1-2.6z"/><path fill="#7781b6" d="M-16 132.8v4.3l35.9-8.3-8.8-3.6z"/><path fill="#c6b09b" d="M14.6 198.6l-4.4 11.1L-8 146.5l-8 14.9z"/><ellipse cx="68" cy="38" fill="#363853" rx="15" ry="96"/><path fill="#faf9e8" d="M210 80l13-4-14-5z"/><path fill="#e4d678" d="M123 105.1L98.3 114l19.1-25.6 24.5-16z"/><path fill="#464e94" d="M49.2 119.8l-5.4 8.4 9.5 9.9 5.2-24.2z"/><path fill="#2a3fa6" d="M195 124l-12 19 1-13z"/><path fill="#f2d4c4" d="M119 172l-24 12 16 3z"/><path fill="#14152d" d="M243 160l-31 31 19-9z"/><path fill="#252639" d="M214 3h42v62h-42z"/><path fill="#373a53" d="M7 0h39v29H7z"/><path fill="#242535" d="M220 83h19v80h-19z"/><path fill="#e0cab9" d="M38.7 137.3l-8.1 16 .5 7.5 17.2-27.4z"/><path fill="#2e324b" d="M91 197l-40-39-46-2z"/><path fill="#efcf47" d="M160 128l26-11-6 13z"/><circle r="1" fill="#d2ada1" transform="matrix(4.9295 -3.62176 11.8257 16.09567 157.5 18.3)"/><path fill="#2b2c43" d="M122.1 189.7l49.7-46.9-75.1 57.6 51.4 18.6z"/><path fill="#262740" d="M221 171l-76-33 46 81z"/><path fill="#ddbca9" d="M185 219l-54-22 33-21z"/><path fill="#6f74a6" d="M112 175l22-14h-16z"/><path fill="#807301" d="M42 122l3 7-13 15z"/><path fill="#2b2d46" d="M87 115h22v66H87z"/><path fill="#918a37" d="M75 108l47-27-34 6z"/><path fill="#d9d292" d="M87 106l18 8 13-6z"/><path fill="#596100" d="M14.2 209.3L0 218.5l-14.2-21.8L0 187.5z"/><path fill="#919c66" d="M191.2 219l53.5-34.7 26.3-4.9-58.1 18.5z"/><path fill="#4f6119" d="M204.9 156.2l-3.5 4.9-30.3-21.3 3.5-4.9z"/><path fill="#2f314d" d="M122.3 68.3L81.5 93.2 3.7 152.3l36.9-78.2z"/><path fill="#c6a98f" d="M223.9 69.6l18.8 22.6 6.9-12.9-18.2-11.7z"/><path fill="#d0c096" d="M212 156l-8-9v19z"/><path fill="#000423" d="M135 188l-9 6 13-2z"/><path fill="#31334f" d="M82 195l-12-61-73 52z"/><path fill="#2b2b41" d="M232.4 159.9l38.6-11.1-65.8-22.7 3.7 24.5z"/><path fill="#dfc4c4" d="M133 77l10-5 14 3z"/><path fill="#788a46" d="M56 71L14 52l-1-20z"/><path fill="#d2d4c4" d="M132.6 20.3l.8.5-10 15-.8-.6z"/><path fill="#545a90" d="M148.4 12l-16.3 35.5-4.9-30.3 22.6-3.4z"/><circle r="1" fill="#c9b5b3" transform="matrix(1.77372 -.53628 3.19163 10.55617 59 127.2)"/><circle r="1" fill="#e0c2c4" transform="rotate(-170 15 16.1) scale(5.74614 4.52513)"/><path fill="#d5b7a8" d="M150 5l-11 23 32-10z"/><path fill="#2e3049" d="M129.7 83l21.7-56.2 88.9 78.9-122.1-43.8z"/><circle r="1" fill="#dbc5ba" transform="rotate(-135.8 50 66) scale(5.30535 12.14898)"/><path fill="#343653" d="M79.8 80.4L46.4 43.2-16-2.1 91.2-16z"/><path fill="#e3c4cd" d="M116 79h-10l19-12z"/><path fill="#e5e6c3" d="M253.5 154.4l.3 1-13.3 4.2-.3-1z"/><path fill="#feddca" d="M11.6 179.7l-.6.8-14.6-12.2.6-.8z"/><path fill="#32354e" d="M-16 36.1l51.5 28.4 59.9 64.3-85.9-27z"/><path fill="#27283e" d="M191 51h16v77h-16z"/></g></g></svg>