<svg xmlns="http://www.w3.org/2000/svg" viewBox="0 0 1120 1400"><defs/><filter id="a"><feGaussianBlur stdDeviation="12"/></filter><rect width="100%" height="100%" fill="#444"/><g filter="url(#a)"><g fill-opacity=".5" transform="translate(2.7 2.7) scale(5.46875)"><circle cx="129" cy="120" r="193" fill="#fff"/><circle r="1" fill="#080808" transform="matrix(-8.37875 -199.91083 32.69205 -1.3702 72 44.5)"/><circle r="1" fill="#fff" transform="matrix(67.27784 21.54249 -30.66486 95.76729 183.1 90)"/><path fill="#fff" d="M-16 219l75-59L2-16z"/><circle r="1" fill="#fff" transform="matrix(-44.4427 4.12834 -9.77583 -105.23939 178.4 70.5)"/><ellipse cx="77" cy="20" fill="#2e2e2e" rx="53" ry="24"/><path fill="#2b2b2b" d="M52 163h64v52H52z"/><ellipse cx="104" cy="126" fill="#cbcbcb" rx="19" ry="39"/><path fill="#fff" d="M95 152l119 21-8-189zM11-16l-27 212 64-15z"/><circle r="1" fill="#7e7e7e" transform="matrix(-39.12953 -37.65519 73.6687 -76.5531 124.8 255)"/><path fill="#575757" d="M21 29l38-45-36 119z"/><path fill="#474747" d="M140 33l-10 52-16-101z"/><path fill="#fff" d="M-16-4.9l8.9 139.4L24.3 20.7 41.4-3.2z"/><path fill="#dbdbdb" d="M98 29h24v39H98z"/><path fill="#fff" d="M115.7 204.8L219 40.5 157.9-16l-40 201.9z"/><ellipse cx="45" cy="62" fill="#7f7f7f" rx="7" ry="89"/><circle r="1" fill="#222" transform="rotate(-66.3 80.7 -29.6) scale(44.64823 17.76883)"/><path fill="#353535" d="M126.5 152.6L77 179.2l44.8 34.4-8.1-27z"/><path fill="#494949" d="M58 229l43-118-57 23z"/><path fill="#fff" d="M172.5 14.8l-23 19.3-36-43 23-19.2z"/><path fill="#f4f4f4" d="M84.6 90.6l8-.2.8 25-8 .2z"/><ellipse cx="55" cy="244" fill="#8a8a8a" rx="33" ry="37"/><path fill="#1a1a1a" d="M89 75l9 25 17-33z"/><path fill="#2f2f2f" d="M33.6 71.4l-.4-22.6 6-29-18 7.5z"/><path fill="#bdbdbd" d="M129 150l-30-16-11 39z"/><path fill="#f4f4f4" d="M44 66l-11-5-5 42z"/><ellipse cx="8" cy="136" fill="#fff" rx="27" ry="51"/><circle r="1" fill="#242424" transform="matrix(15.65875 15.08524 -27.60306 28.65248 90.4 1.6)"/><path fill="#8c8c8c" d="M31.4 114.1l15.7-10.8L75.4 187 13.9 65.2z"/><path fill="#242424" d="M72 122h18v41H72z"/><ellipse cx="133" cy="81" fill="#8d8d8d" rx="6" ry="15"/><path fill="#a1a1a1" d="M159 233l60-38-85-32z"/><path fill="#fff" d="M111.4 185.1l10.8 11.2-4.1 4.8 45.4-98.9zm-63.5 9l-12.3-33.8 6.5-2.4 12.3 33.8z"/><circle r="1" fill="#fefefe" transform="rotate(-166.3 8.4 -1) scale(15.43644 32.86989)"/><path fill="#fff" d="M162.4 38l-21 6.4L123.6-14l21-6.4z"/><ellipse cx="123" cy="255" fill="#797979" rx="20" ry="56"/><path fill="#4c4c4c" d="M21 76.7l9.7 20.9-3.7 1.7-9.7-20.9z"/><path fill="#1b1b1b" d="M74.1 76.5L51 70.8l-8 .7L65.3 102z"/><path fill="#575757" d="M86 68.5l35-63.7-46.4 5.4 27.3-8.8z"/><path fill="#393939" d="M50.8 192.1l-.7 5.9 36.2 24.4 42.7-67.8z"/><path fill="#8c8c8c" d="M118 101l-3-34-28 50z"/><path fill="#aaa" d="M57 219l-67-5 50-41z"/><path fill="gray" d="M51.6 174.7l-11-51.1 23.9 21.5 8.7 26.6z"/><circle r="1" fill="#323232" transform="matrix(-3.21022 .59362 -3.4017 -18.39611 127.4 28.9)"/><path fill="#f1f1f1" d="M12 66l22 24-17-45z"/><path fill="#8e8e8e" d="M38 0h7v72h-7z"/><path fill="#a5a5a5" d="M109.1-3.5l3.1-6-1.9 37.3 35.9 65.7z"/><path fill="#373737" d="M81.3 121.7l-45.6-33 23.5 11.9-1.8 46z"/><ellipse cx="86" cy="93" fill="#cacaca" rx="2" ry="16"/><path fill="#a3a3a3" d="M58 194h3v35h-3z"/><circle cx="29" cy="156" r="19" fill="#f9f9f9"/><ellipse cx="184" cy="137" fill="#fff" rx="62" ry="28"/><path fill="#c7c7c7" d="M105.3 147.4l10.3 14.6 9.5-33.9-21.1-27.9z"/><path fill="#f7f7f7" d="M142.7-14.7L136 58.8l22.7 105.4L219 6.3z"/><path fill="#676767" d="M99.9 102.1l-5.8 8.3 11.5 35 .6-14.4z"/><path fill="#7f7f7f" d="M84.1 251.6l23.5-65.1-9.1 8.8-5.2 12.5z"/><path fill="#4b4b4b" d="M40.4 12.4L18.9 36.7l2.2 9.3 15.4 13.4z"/><circle r="1" fill="#252525" transform="matrix(4.87998 -8.55671 7.26917 4.14568 97.2 85.4)"/><path fill="#909090" d="M76.1 98V86.2l-6.4 28 7.3.3z"/><path fill="#353535" d="M52.4 189.7l57.6-7.3-24.2-18.6 4.5 66.9z"/><ellipse cx="138" cy="184" fill="#848484" rx="3" ry="22"/><path fill="#929292" d="M-7 203l27-6-7 74z"/><path fill="#b4b4b4" d="M84 93h10v25H84z"/><circle r="1" fill="#8c8c8c" transform="matrix(4.56806 25.64496 -31.27901 5.57164 54.2 250.5)"/><circle cx="25" cy="90" r="4" fill="#4d4d4d"/><ellipse cx="34" cy="106" fill="#f6f6f6" rx="3" ry="44"/><path fill="#5b5b5b" d="M127.5 191.3l-16.9 35.9 17.8-24.8 6.2-20.6z"/><path fill="#575757" d="M38 92l13-32 9 83z"/><circle r="1" fill="#8a8a8a" transform="rotate(83.6 18.1 83.7) scale(17.44194 3.59015)"/><path fill="#e0e0e0" d="M102 128l21 3 9-58z"/><path fill="#c7c7c7" d="M94 142l-2-13 14 12z"/><ellipse cx="56" cy="49" fill="#575757" rx="8" ry="22"/><path fill="#979797" d="M54.5 132.7l-8.6 17.7-9.4-26.1 20-4.3z"/><path fill="#eaeaea" d="M26.9 214.4l15.3-57 1 .2-15.4 57z"/><path fill="#f9f9f9" d="M219 90.1l-80.4-5.4-14.1 79.4-10.2 22z"/><circle r="1" fill="#8c8c8c" transform="matrix(-44.89056 -24.73578 12.58923 -22.84697 166.6 237.7)"/><path fill="#fff" d="M42.8 169.8l7.4 32.2-1 .2-7.4-32.2z"/><path fill="#b6b6b6" d="M177.3 202.1L142.4 161l36.3 8.8 13.8 6.8z"/><path fill="#f4f4f4" d="M47 156.6L2.3 200.5-9.3-2.7l33.7 98.5z"/><path fill="#a4a4a4" d="M123.4 52.5l14.5-4.9-1.3 28-6.5 18.9z"/><path fill="#cdcdcd" d="M119 76l-16-28 16-21z"/><path fill="#272727" d="M65.9 199.2l-18.1-33-.8 2.1 8.5 18z"/><path fill="#a9a9a9" d="M86.4 243l27.8-22.2-22.8 33-7.3 12.6z"/><path fill="#737373" d="M127.6 154.4l-31 10.4-7.6-38.2-3.8 48.9z"/><path fill="#bfbfbf" d="M26.1 75.4L27.6 59l-1.5-8.9-8.6 53.1z"/><path fill="#f7f7f7" d="M219 53.8L207.9-16 120.7-2.9l51.4 80.6z"/><path fill="#1f1f1f" d="M35.2 17l-5.4 30.5-3-.5 5.4-30.5z"/><circle r="1" fill="#6a6a6a" transform="matrix(3.66575 .88142 -7.59261 31.57687 36.5 44)"/><path fill="#404040" d="M79 79l-4 47 12-20z"/><path fill="#f3f3f3" d="M34.7-39.2l21.5 19.4-54.9 61-21.5-19.4z"/><circle cx="89" cy="115" r="2" fill="#191919"/><path fill="#4c4c4c" d="M131 87h3v10h-3z"/><path fill="#8d8d8d" d="M36.5 31.9l4.1 50.2 10-61.4-8.5 10.6z"/><path fill="#aeaeae" d="M100.8 120.1l22.1 21.6L84 113.3l-1.6 7z"/><path fill="#373737" d="M109.5 89.4L66.6 64.7 89.8-1.4l6.9 95.6z"/><circle r="1" fill="#404040" transform="rotate(163.9 13.6 111.8) scale(1 18.42227)"/><path fill="#ececec" d="M109 88l8-2-6 9z"/><path fill="#2f2f2f" d="M133.3-16L66.1 41.9l45.7-27.8-26-30.1z"/></g></g></svg>