<svg xmlns="http://www.w3.org/2000/svg" viewBox="0 0 1120 1400"><defs/><filter id="a"><feGaussianBlur stdDeviation="12"/></filter><rect width="100%" height="100%" fill="#444"/><g filter="url(#a)"><g fill-opacity=".5" transform="translate(2.7 2.7) scale(5.46875)"><circle cx="132" cy="108" r="200" fill="#fff"/><ellipse cx="74" cy="42" fill="#050505" rx="32" ry="206"/><circle r="1" fill="#fff" transform="rotate(114.1 74.2 95.4) scale(124.79572 70.22025)"/><circle r="1" fill="#fff" transform="matrix(24.88009 121.20634 -27.71613 5.6893 7.5 94.7)"/><circle cx="203" cy="89" r="86" fill="#fff"/><path fill="#242424" d="M71 164h46v56H71z"/><path fill="#343434" d="M134 94L108-16l29 40z"/><path fill="#e4e4e4" d="M85 86l68 59-60 19z"/><path fill="#2b2b2b" d="M21 29l6 66L49-16z"/><path fill="#fff" d="M55.6 172.8L3.2 195.1l-34.8-82L20.8 91z"/><path fill="#fff" d="M-5.7-20.1l36.4 6.4-25 141.8-36.4-6.4z"/><circle r="1" fill="#7b7b7b" transform="matrix(96.53776 -5.7156 2.20706 37.27785 123 240.2)"/><path fill="#fff" d="M201.7-31.6l36.2 186.5-75.6 14.7-36.2-186.5z"/><circle r="1" fill="#212121" transform="matrix(36.07122 -95.65939 21.98656 8.29069 93.8 1.4)"/><path fill="#dbdbdb" d="M96.7 36.3l29-1.5 1.6 33-29 1.4z"/><path fill="#303030" d="M110 197l16-45-80 47z"/><path fill="#fff" d="M122.9 192.7l-12.4-6.6 20.6-38.8 12.4 6.6z"/><circle r="1" fill="#939393" transform="matrix(-16.46292 25.39673 -29.5106 -19.12965 36 219.4)"/><circle r="1" fill="#919191" transform="matrix(-32.70485 17.38948 -14.42985 -27.1386 156.8 198.1)"/><path fill="#a0a0a0" d="M49.4 112L65 159.4 50.6 164 35 116.5z"/><path fill="#343434" d="M89 116.9l-38 10.6 24 37.9 33.2-59.4z"/><path fill="#fff" d="M-1.5 61.8L-16 4.8 60.4-16 33.7 6.1z"/><path fill="#a3a3a3" d="M99.1 119.1l34.3-19.8 8.7-26.8-32.3-8.5z"/><circle r="1" fill="#fff" transform="matrix(36.67752 22.32397 -18.54744 30.47281 160.2 129)"/><path fill="#fefefe" d="M216-16l-4 214-93-214z"/><path fill="#282828" d="M78.1 60.2l21.3 35.2 17.1-28.5L36.2 90z"/><ellipse cy="171" fill="#fff" rx="26" ry="30"/><path fill="#fff" d="M48 197.8l6.1-9.5L-.8 30.6l47.6 167.2z"/><path fill="#828282" d="M37 5h13v63H37z"/><path fill="#cacaca" d="M16.2 82.5l9-24.5 20.6 7.5-9 24.5z"/><path fill="#2f2f2f" d="M52 167l46 55-46-17z"/><circle r="1" fill="#202020" transform="matrix(7.1201 30.10998 -16.69692 3.94832 70.8 7.4)"/><path fill="#343434" d="M18.3 43.8l6.8-27.2 14.6 3.6-6.8 27.2z"/><path fill="#9b9b9b" d="M25 231l68 22 16-26z"/><path fill="#525252" d="M28 99l-8-14 2-17z"/><path fill="#d6d6d6" d="M95 113L85 78l-1 43z"/><path fill="#696969" d="M47 163h58v12H47z"/><circle r="1" fill="#373737" transform="matrix(4.83433 -1.50572 6.32695 20.3135 123.8 22.9)"/><circle r="1" fill="#fdfdfd" transform="matrix(-17.87971 5.74615 -17.74089 -55.20253 13 118.4)"/><path fill="#7a7a7a" d="M138 271l4-104-52 92z"/><path fill="#fff" d="M32 67h5v65h-5z"/><path fill="#717171" d="M84 127l19-33 5 43z"/><path fill="#fff" d="M120 193.1l-8-4.2 16-30 8 4.2z"/><ellipse cx="47" cy="93" fill="#5f5f5f" rx="8" ry="20"/><path fill="#d6d6d6" d="M95 136h7v31h-7z"/><path fill="#494949" d="M38 56.4l-8.5 20.1-2.3-5.2 4-54.9z"/><circle r="1" fill="#767676" transform="matrix(13.46509 -29.50872 5.14045 2.34563 105.4 29.7)"/><path fill="#424242" d="M126 157.9l-19 45.5-44.2-13.7 60-33.3z"/><circle r="1" fill="#a6a6a6" transform="matrix(10.02108 -25.49465 12.11058 4.76026 28.4 201.1)"/><path fill="#2b2b2b" d="M74 121h13v57H74z"/><path fill="#d5d5d5" d="M131 110l-29-68 18-15z"/><path fill="#f3f3f3" d="M0 55h27v23H0z"/><path fill="#9f9f9f" d="M133 24h5v60h-5z"/><path fill="#c8c8c8" d="M58 194h2v23h-2z"/><path fill="#fff" d="M112-16l24 34 83-29z"/><path fill="#bebebe" d="M168.3 205l30.6-30.6-22.5-6.2 5.6 45z"/><path fill="#2b2b2b" d="M110 187h6v22h-6z"/><path fill="#888" d="M76.8 88.4l.9 17.6-12.2 14.5 5.4-17.2z"/><path fill="#e9e9e9" d="M113.7 183.1l-20.2 20.5 65.4-79.3-39.4 75z"/><path fill="#9f9f9f" d="M136.9 170.6l-.8-7.8L189 189l-60.1 22.8z"/><path fill="#fafafa" d="M117.9 145.1l26.8-77.7 73.6 51.8-16.8 60.4z"/><path fill="#1f1f1f" d="M70 72v26L40 71z"/><path fill="#8a8a8a" d="M63.6 204.8L97 237.3l-69.4-15.6L98 271z"/><ellipse cx="116" cy="131" fill="#d3d3d3" rx="10" ry="29"/><circle cx="46" cy="131" r="9" fill="#999"/><path fill="#363636" d="M81.4 223.1l-35.1-53.3 51.2 35.1-12 25.3z"/><path fill="#a3a3a3" d="M144.6 87.7l-2.5-5.5-11.2 17.3-11.4-66.8z"/><path fill="#606060" d="M33.6 111.9l-7.2-14.2L17.9 77l7.9 8z"/><path fill="#343434" d="M111.7 2.1L102.8-16h-.6l4.4 49.4z"/><path fill="#696969" d="M133.9 41.9l-5.6-22.3 5.8-1.5 5.6 22.3z"/><path fill="#f8f8f8" d="M8 58l30-74L9 1z"/><path fill="#5b5b5b" d="M37.7 97.4l28.9-44.8.8-14.7-14.3-10.5z"/><path fill="#212121" d="M106 83l-17 6V64z"/><path fill="#e3e3e3" d="M115 128l8-68 10 46z"/><path fill="#acacac" d="M104 66l17-45-22 17z"/><path fill="#8a8a8a" d="M31 218l9-44 4 18z"/><path fill="#777" d="M70.4 160.4l-.5 11-30.6-33.9 25.2 4.3z"/><ellipse cx="110" cy="71" fill="#5a5a5a" rx="7" ry="4"/><path fill="#383838" d="M71 115.6l31.4 10.5-44.7 2 2.7-20.5z"/><circle r="1" fill="#818181" transform="matrix(1.8346 4.49542 -11.56827 4.72108 97.8 165.3)"/><circle r="1" fill="#f7f7f7" transform="matrix(-8.68352 -35.31544 1.42155 -.34954 43.7 174.4)"/><path fill="#2b2b2b" d="M52.2 194.4l5.9 29.5.7-37 23.5 32.4z"/><path fill="#898989" d="M87.1 112.3l23.6 17.8-27.9-9.9 1.7-44.9z"/><path fill="#a3a3a3" d="M116 107.3l-7.7 1.8-18.7-10.7 19.8-6.7z"/><path fill="#565656" d="M132 182l-17 34 13-12z"/><path fill="#f3f3f3" d="M-6-16l-10 230 57-43z"/><path fill="#c3c3c3" d="M16.5 236.8L14.2 271l-.8-1L44 161z"/><path fill="#303030" d="M36.5 10.3l4.7 1.6-7.7 23.8-4.7-1.6z"/><path fill="#dedede" d="M29 89.4l10.2 50.9 2-38.5-18.5-33.1z"/><path fill="#888" d="M140.3 239.5l24.7-41.9-77.1 20.9 7.1 7.6z"/><ellipse cx="131" cy="155" fill="#fefefe" rx="6" ry="26"/><path fill="#979797" d="M30 57l-6 9-4-28z"/><path fill="#c8c8c8" d="M12 190.9l27.9-20.3-21.1 24.9-34.8 17.7z"/><path fill="#7d7d7d" d="M33 33h15v29H33z"/><path fill="#ababab" d="M83 78h5v10h-5z"/><path fill="#767676" d="M133.7 87.4l-7.6-9.9.5-17 6 38.5z"/><path fill="#888" d="M117 19l16 31-12-2z"/><path fill="#3c3c3c" d="M48.2 181.9l59.5 9.3 7.8 13.4-7.6-38.5z"/><path fill="#999" d="M195.1 180.4L219 271l-55.4-95.2 5.4 77.1z"/><circle r="1" fill="#ddd" transform="matrix(-2.86284 -11.39744 2.2126 -.55577 37.7 73.4)"/></g></g></svg>