<svg xmlns="http://www.w3.org/2000/svg" viewBox="0 0 1120 1400"><defs/><filter id="a"><feGaussianBlur stdDeviation="12"/></filter><rect width="100%" height="100%" fill="#30374e"/><g filter="url(#a)"><g fill-opacity=".5" transform="translate(2.7 2.7) scale(5.46875)"><circle cx="59" cy="101" r="203" fill="#e8d1a0"/><circle r="1" fill="#252c2c" transform="matrix(5.11025 45.50485 -115.74955 12.99881 111 100.3)"/><circle r="1" fill="#ffdd86" transform="matrix(68.74592 53.90369 -28.50986 36.35997 59.2 239.8)"/><circle cx="70" r="70" fill="#e7d0bb"/><path fill="#fff" d="M219 216l-68-35 40 61z"/><circle r="1" fill="#d3cabd" transform="matrix(-2.70945 -30.5413 52.9996 -4.70183 171.2 25)"/><path fill="#102349" d="M185 251l-44-15-4-91z"/><circle r="1" fill="#00050a" transform="rotate(-55 125 -86) scale(15.98104 23.62024)"/><path fill="#0b0d30" d="M69 146l-28 22L27 63z"/><path fill="#95a8c8" d="M147 84h28v55h-28z"/><path fill="#eae9e8" d="M103.2 82.3l-2.1-29.2-20.7 16.2-16.6 5.2z"/><circle r="1" fill="#bcc4ce" transform="matrix(.89086 13.9545 -44.06437 2.81307 97.3 184.3)"/><circle r="1" fill="#180200" transform="matrix(46.3567 1.19453 -.09892 3.83882 28 68.4)"/><path fill="#000e0f" d="M171 83L93 47l126 16z"/><circle r="1" fill="#423a50" transform="matrix(-39.56042 -22.10957 7.02349 -12.56705 149.3 164)"/><path fill="#e8e917" d="M145.7 81.9l-12.4 7.2-4.9 30.4 5.5 17.9z"/><circle r="1" fill="#bda193" transform="matrix(3.79106 46.753 -8.11522 .65804 69 118)"/><circle r="1" fill="#ffffe8" transform="matrix(26.3399 15.5995 -5.75098 9.71057 185.8 216.9)"/><path fill="#03222e" d="M72.5 85.9l10.3 8-1 55.5 47.9-37.2z"/><circle r="1" fill="#738abb" transform="matrix(8.55881 -9.3731 77.65263 70.9066 128.5 231)"/><path fill="#290f08" d="M168 104l51 47-38-68z"/><circle r="1" fill="#fdca7a" transform="matrix(-13.70702 12.87175 -72.1958 -76.88072 104 251.2)"/><path fill="#9d7b5e" d="M0 106h37v77H0z"/><path fill="#091120" d="M187.9 249.6l23.7 6.6-83.3-61 49.4 49.3z"/><path fill="#d2d8dc" d="M139 50h5v29h-5z"/><path fill="#ebffff" d="M193 175.1l23.6 27.2-7.6 6.6-23.6-27.2z"/><path d="M48 129h16v25H48z"/><ellipse cx="22" cy="32" fill="#c1ae9a" rx="99" ry="32"/><path fill="#32405f" d="M152 200l1 31-56-34z"/><path fill="#5f6c8b" d="M65.9 169.4L98.4 137l17.7 17.7L83.6 187z"/><path fill="#fff" d="M27 75h2v35h-2z"/><path fill="#434e77" d="M46.2 140.4l-14-11.6L16.1 143l39.2 30.5z"/><path fill="#2e6918" d="M180.6 164.1l8.1-25.2-5.5 3.1-19.4-9.2z"/><circle cx="152" cy="89" r="8" fill="#dee1e7"/><path fill="#c9e37b" d="M196 142l-35-7 37-13z"/><ellipse cx="3" cy="110" fill="#fee2b8" rx="25" ry="4"/><path fill="#f4f6fa" d="M54 129l5-5-11-4z"/><path fill="#2a1107" d="M17.5 111.5l-29-26 8-9 29 26z"/><path fill="#b08357" d="M84.3 259.6l-50 .8-.6-30 50-.8z"/><path fill="#a9bfdd" d="M79.1 164.5l-.5-38.3L64 145l1.4 20.4z"/><path fill="#1d2928" d="M120 155l-17-99 38-6z"/><path fill="#342622" d="M48.7 124.3l27.2-33.8-31.8 22.8-55 1.7z"/><path fill="#b0bbce" d="M160.9 260.8l-58.4-42.6 51.7 20.9 1.7-13.4z"/><path fill="#b2a31a" d="M184.6 197.7l3.5-11.1 21.2 21.5-28.9-2.9z"/><path fill="#3b0906" d="M198 88h6v55h-6z"/><path fill="#dfd8c0" d="M99 168h36v15H99z"/><path fill="#b0a598" d="M41.3 140.2l-6.1-21.3-27.9 12.2-23.3 6.1z"/><path fill="#aac3f3" d="M180 245l39 22-106 4z"/><ellipse cx="111" cy="6" fill="#c9b8a5" rx="97" ry="29"/><path fill="#686f8b" d="M148.6 110.6l51.4 16.5 2.8-38.6-59.3 86.6z"/><path fill="#231310" d="M50 66h10v41H50z"/><path fill="#cfd6d0" d="M187 201l-30-1 7-21z"/><circle cx="128" cy="240" r="5" fill="#0d0d00"/><ellipse cx="126" cy="39" fill="#a69e94" rx="198" ry="11"/><path fill="#54414a" d="M101 152.3l-26.6-2.8 56.7-5.1-13.6 31.6z"/><path fill="#658181" d="M86.4 74.4l20.6 7.8-3.4 26.3-42.4-32.3z"/><path d="M176 242l-13 8-4-10z"/><path fill="#f2c678" d="M88.3 141l24.5-4.8 1 4.9-24.6 4.7z"/><path fill="#b2aa8f" d="M164.6 209.8l-2.5 7.8 26.7 22.3 30.2 10.3z"/><path fill="#fff" d="M0 72h30v3H0z"/><path fill="#c0b18b" d="M81 115H55l25-22z"/><path fill="#696a53" d="M174.1 28.7L219 40.6h-32.1l-17.1-4.2z"/><path fill="#cfdcf0" d="M135 223h7v33h-7z"/><path fill="#fffff2" d="M175 217l44-19-6 45z"/><path fill="#cedae2" d="M87 54h16v20H87z"/><path fill="#ddde0f" d="M141.7 125.6l-9.8 6.9.3-26.8 2-16.5z"/><path fill="#b4c5d8" d="M160 48.8l60.6 6.4-.6 6-60.6-6.4z"/><path fill="#521f68" d="M174 159h13v32h-13z"/><path d="M87 197h9v5h-9zm89-108h7v29h-7z"/><path fill="#c2746c" d="M217 78l-37 4 17 11z"/><path fill="#afbacd" d="M47 155h55v6H47z"/><path fill="#474c62" d="M83 179l-53-20-12-39z"/><path fill="#080909" d="M111 209l13-6-11 13z"/><path fill="#07110b" d="M84 150l12-18-13-42z"/><path fill="#a0896c" d="M70 50h18v31H70z"/><path fill="#402f14" d="M29 84V68l51-6z"/><path fill="#0c0b00" d="M219 253.5l-30.5-2.3-5.9-11.2-2.5.7z"/><path fill="#0b0b00" d="M142 245h12v4h-12z"/><path fill="#ddcdb4" d="M92.8 195.9l-72.7-17.5 6.7 26.6 88.3-40.3z"/><circle r="1" fill="#ceb7a2" transform="matrix(-9.8856 28.3812 -22.3437 -7.78265 2 241.2)"/><path fill="#384663" d="M127.5 161.6l27.5 46.5L165.5 83 152 167.5z"/><path fill="#553c34" d="M65.6 76.1l14.5 19.4 27.2-21.6-39.2 36.2z"/><path fill="#d9d384" d="M170 119h8v19h-8z"/><path fill="#000023" d="M46 128h19v26H46z"/><circle cx="193" cy="203" r="3"/><path fill="#7d6d60" d="M-2 74l46 6-56 20z"/><path fill="#6f84c5" d="M147 95h11v67h-11z"/><path fill="#969891" d="M72.8 183.8l48.9 17.9 13.8-5.5 22.4-7.6z"/><path fill="#324062" d="M78 167l30-5-16 14z"/><path fill="#dadddf" d="M125 265l21-24-18 3z"/><path fill="#0e0d11" d="M106 226l-6-7 9 3z"/><path fill="#233144" d="M152.7 231.6l-32.9 8.8-.5-2 32.9-8.8z"/><path fill="#556782" d="M54.1 84.3l-6.2 28.9-13.1-23.7-3-.7z"/><ellipse cx="31" cy="53" fill="#c0a27d" rx="42" ry="12"/><path fill="#d2d8da" d="M187.9 260.9l-33-9.6-1.9-30 5.8 25.8z"/><path fill="#41474b" d="M128.8 81.5l1.6 61.5-34.7-6.2 15.5-63.6z"/><path fill="#172324" d="M100.8 82.7l60.9-4.2 12.8 20.9-2.4-18.3z"/><path fill="#8c8c82" d="M161.8 98l11.1 59.5-4 29.4-7.6-17.8z"/><path fill="#010100" d="M13 100l-9 3 4-20z"/></g></g></svg>