<svg xmlns="http://www.w3.org/2000/svg" viewBox="0 0 1120 1400"><defs/><filter id="a"><feGaussianBlur stdDeviation="12"/></filter><rect width="100%" height="100%" fill="#30374e"/><g filter="url(#a)"><g fill-opacity=".5" transform="translate(2.7 2.7) scale(5.46875)"><circle cx="42" cy="89" r="224" fill="#e8d1a0"/><ellipse cx="130" cy="107" fill="#2c3434" rx="134" ry="54"/><circle cx="41" cy="251" r="76" fill="#ffda8c"/><circle r="1" fill="#e4cfba" transform="rotate(-10.9 126.6 -525) scale(139.86069 43.83058)"/><circle r="1" fill="#fff" transform="matrix(32.18575 30.07558 -8.77375 9.38934 190.8 218.2)"/><path fill="#000206" d="M100.2 45.5l38.9 8.1 79.9 9.7-112.5 20.6z"/><path fill="#031740" d="M144.5 198.4l66.4 63.8-44.2-17-54.4-42.5z"/><path fill="#e6e0d9" d="M60 77l41 4 3-37z"/><ellipse cx="173" cy="142" fill="#9ba996" rx="29" ry="22"/><circle r="1" fill="#8c9bb6" transform="matrix(36.74901 54.87187 -20.55804 13.76821 103.9 196.9)"/><path fill="#1a1a35" d="M36 69h25v97H36z"/><path fill="#8c99bb" d="M178 120l-29 23-11-94z"/><ellipse cx="149" cy="178" fill="#2f3d66" rx="11" ry="61"/><path fill="#fafb00" d="M129.8 130.4l1.6-32.6 7.1-14.5 2.2 46.4z"/><path fill="#0d262e" d="M82 92h48v47H82z"/><circle r="1" fill="#ffd076" transform="rotate(133.7 -5.4 136.2) scale(18.12382 73.00377)"/><path fill="#af9072" d="M80 32l1 83-30 14z"/><path fill="#ceccc1" d="M142 194l-101-5 90-24z"/><path fill="#110303" d="M175 59h13v58h-13z"/><path fill="#ffffe4" d="M149.3 186.6l69.7 42.9-19.3-53-6.9 56.4z"/><path fill="#3b2a3f" d="M171 142h15v48h-15z"/><path d="M48 129h16v26H48z"/><path fill="#260e00" d="M0 65h76v6H0z"/><path fill="#b4c0c6" d="M241 43.4l-1.2 18-96.8-6.8 1.2-18z"/><path fill="#ffdda5" d="M-16 94.7l41.2 19.5-12.2-.5-10 2.1z"/><ellipse cx="153" cy="76" fill="#202827" rx="51" ry="8"/><path fill="#cec9cd" d="M66 128h12v33H66z"/><path fill="#3b496d" d="M79 196l28 22 43-18z"/><path fill="#c2a99c" d="M44.8 139.7L-16 137l15.9-2.9 29.8-14.3z"/><ellipse cx="174" cy="255" fill="#b4d0ff" rx="21" ry="7"/><path fill="#e0ebff" d="M150 83h8v27h-8z"/><path fill="#313746" d="M185.9 245.9L143 222.3l24.7-52.2-48.3-15.9z"/><circle r="1" fill="#4c4e71" transform="matrix(-47.91758 6.2234 -.67835 -5.22301 87.4 166.4)"/><ellipse cx="27" cy="98" fill="#ecdee3" rx="2" ry="27"/><path fill="#d6ea74" d="M168 129h31v11h-31z"/><path fill="#150000" d="M3 92h24v13H3z"/><path fill="#350000" d="M198 93h6v50h-6z"/><path fill="#b28656" d="M32.7 228.4l50-.8.6 34-50 .8z"/><circle r="1" fill="#ffffef" transform="matrix(4.19412 -13.24743 24.12262 7.6372 203 221.7)"/><path fill="#000f0b" d="M103.8 49.9l35 1.2-.6 19-35-1.2z"/><path fill="#71799e" d="M177 162l-21-64-15 61z"/><path fill="#a39302" d="M187 189l-6 12 38 11z"/><path fill="#cbab7d" d="M116.1 130.2l-2.6 2.2-13.1 16.4-13.8-5.4z"/><path fill="#e5f3ff" d="M154 229h4v27h-4z"/><path fill="#414139" d="M136.7 241.8l-14.5 2.7-2.4-15.4-24.3-9.5z"/><path fill="#51577a" d="M73 186l-53-40 6-32z"/><path d="M157 238l16 6-9 6z"/><path fill="#000900" d="M83 92h5v60h-5z"/><path fill="#d3e6f4" d="M185 181.6l7.6-6.6 20.3 23.4-7.5 6.6z"/><ellipse cx="55" cy="125" fill="#fff" rx="5" ry="3"/><path fill="#c5c9ae" d="M140 49h4v44h-4z"/><path fill="#ca8075" d="M174.5 86.3l42.1 1.1-25.9-6.6-7.1-4.8z"/><path fill="#bbcff5" d="M134 222h8v34h-8z"/><ellipse cx="81" fill="#cebeac" rx="86" ry="24"/><path fill="#0d0b01" d="M214.8 271l-49.9-45.4 29.9 20.3 24.2 3.9z"/><circle r="1" fill="#a47f4f" transform="matrix(-5.39484 12.04585 -30.53874 -13.67704 15.3 161.8)"/><path fill="#220f00" d="M0 115h57v5H0z"/><path fill="#507984" d="M106.9 92.4l-3.7 24.1-26.5-42.6 33.4 9.9z"/><path fill="#9aa8c2" d="M85.3 166.4l-41.1-2.6 21.7-12.5 38.7 2.9z"/><path fill="#ffeb92" d="M78 112l-18 6-3-8z"/><circle r="1" fill="#b79f85" transform="matrix(1.94194 -20.13691 44.13333 4.25607 42.1 45.9)"/><circle r="1" fill="#f6eeca" transform="matrix(-3.64546 -5.99572 7.00991 -4.2621 105.7 175.2)"/><path fill="#8d9794" d="M102.8 48l30.2 5.1 86-27.2-39.9-.4z"/><path fill="#d1cfba" d="M155.3 180.6l43.8 61.7-11.3.1-26.7-33.3z"/><path fill="#ffdc86" d="M154 271l-51-45-4 29z"/><path fill="#d0dce4" d="M87 54h16v19H87z"/><path fill="#ffffd7" d="M191 143h13v4h-13z"/><path fill="#1e2023" d="M146.1 216.7l-21.9 1.6-.3-5 21.9-1.6z"/><path fill="#e1dfdd" d="M110.5 207.3l-6.9 12.7 2.2-15.6-42.7.8z"/><path fill="#a09688" d="M120 37.8L84 65.4 57.2 94.5l20-41.7z"/><path fill="#fff" d="M0 73h26v2H0z"/><ellipse cx="159" cy="132" fill="#313748" rx="2" ry="38"/><path fill="#102420" d="M144 59h60v14h-60z"/><circle r="1" transform="rotate(-44.2 325.8 -15.2) scale(1 6.42664)"/><path fill="#362822" d="M30 65h10v50H30z"/><path fill="#617587" d="M32.8 84.6L50 113l.9-28-45.5-.8z"/><path fill="#e7dfdc" d="M27.3 73l-5.6 24.3-1-.2 5.6-24.4z"/><path fill="#5a3e2e" d="M-5 111l-11-41 30 8z"/><path fill="#918c77" d="M113.6 176.5l33.9 22.7-47.1 5 4.5-24.2z"/><path fill="#050406" d="M79 81h102v2H79z"/><path fill="#347015" d="M158 132l27 9-2 14z"/><path fill="#42441e" d="M138 94h8v48h-8z"/><path fill="#fde0c0" d="M14 113l-17-5h31z"/><path fill="#302112" d="M0 64h22v8H0z"/><path fill="#43201e" d="M193 92l-4 33-11 2z"/><path fill="#edf1f9" d="M129 226l-9-2-3 15z"/><path fill="#543c29" d="M31.1 79.2L85 89.8l-16.9 23.4-7.7-48.9z"/><path fill="#f4d59f" d="M22.3 185.2l-7.7 18.9 33.4-9.4 20-17.2z"/><ellipse cx="70" cy="175" fill="#6278a8" rx="19" ry="7"/><path fill="#000015" d="M64 130v23l-26-22z"/><path fill="#3c475a" d="M69 166h26v9H69z"/><path d="M121 238.6l1.3-2.7 10.7 5.5-1.3 2.7z"/><path fill="#461354" d="M170 172h18v14h-18z"/><path fill="#c3d3f1" d="M125.8 249.3l-.6-2 39-12.6.6 2z"/><circle cx="128" cy="175" r="7" fill="#e6ebdb"/><circle cx="114" cy="211" r="4"/><path fill="#8c0e52" d="M114 157h6v16h-6z"/><path fill="#814d1d" d="M33.7 111.7l-14.2 14-35.5 13.1 10.7-17z"/><path fill="#222417" d="M151 222l-11 11 14 3z"/><path fill="#000001" d="M85 119h9v21h-9z"/></g></g></svg>