<svg xmlns="http://www.w3.org/2000/svg" viewBox="0 0 1119 1400"><defs/><filter id="a"><feGaussianBlur stdDeviation="12"/></filter><rect width="100%" height="100%" fill="#374024"/><g filter="url(#a)"><g fill-opacity=".5" transform="translate(2.7 2.7) scale(5.46875)"><circle cx="155" cy="127" r="206" fill="#fff"/><circle r="1" fill="#fff" transform="matrix(-41.55652 -7.32754 35.25058 -199.91598 27.3 81.6)"/><circle r="1" fill="#fff" transform="matrix(34.20334 200.0978 -37.15045 6.35024 181.4 87)"/><circle r="1" fill="#205cb6" transform="matrix(65.80983 1.61633 -2.8083 114.34167 107.2 178.8)"/><path fill="#112600" d="M59 227h82v29H59z"/><path fill="#180000" d="M79.1 24.7L91.3-7l47.6 18.3L126.7 43z"/><circle r="1" fill="#fff" transform="rotate(107.3 -39.2 58.6) scale(203 48.79209)"/><circle r="1" fill="#fff" transform="matrix(4.06397 -6.35885 31.75233 20.29307 115.4 98.6)"/><ellipse cx="183" cy="204" fill="#fffffd" rx="19" ry="255"/><path fill="#fff" d="M94.1 129.3l36.2 40-10.4 9.4-36.2-40zM192 103l-72-42 39-77z"/><circle r="1" fill="#0033bf" transform="matrix(24.74366 -5.25943 4.41055 20.75 80.1 110.6)"/><path fill="#fffff2" d="M94 190l-61-13 98 51z"/><ellipse cx="124" cy="193" fill="#007" rx="18" ry="20"/><circle r="1" fill="#001391" transform="matrix(11.57893 17.37272 -15.9538 10.63321 129 139.9)"/><circle r="1" fill="#fffff2" transform="matrix(2.93015 4.18538 -39.22043 27.4579 122.4 113.2)"/><circle r="1" fill="#003dca" transform="matrix(5.56347 -21.15955 19.9512 5.24576 78.6 167.7)"/><path fill="#f3f7fc" d="M0 45h105v44H0z"/><path fill="#ffe" d="M168 200l-18-23-7 45z"/><path fill="#fff5ea" d="M65.6 243.8l-36.2 14.6-9-22.2 36.2-14.6z"/><path fill="#fffffb" d="M84.5 201.9l-6.1-8 33-25.8 6.2 8z"/><path fill="#00006c" d="M160 86l7 46-22-19z"/><path fill="#00168b" d="M165.9 190.5l-24.3-22 25.1-20.1-.9 30.9z"/><circle r="1" fill="#0028aa" transform="rotate(104.5 -46 135.2) scale(11.91133 29.02418)"/><path fill="#fffbea" d="M-16 71.2l171.2 118.4-61.8-58.4-25.8 14.2z"/><path fill="#fffffb" d="M60 192.5l-5.4-27.7 13.1-14.1-53.5 19.8z"/><path fill="#f7dcbe" d="M95.1 227.3l64-25.9 3.8 9.3-64 25.9z"/><path fill="#005ada" d="M97.2 72.3L87 78.5l-23.9.9L87 61.3z"/><path fill="#002fad" d="M153 75l-50-4 25 32z"/><path fill="#ffffe7" d="M164 259l-23-25 5 37z"/><path fill="#471b01" d="M76 36l14 15-5-50z"/><path fill="#4f2b13" d="M107 0h22v52h-22z"/><path fill="#00217e" d="M163.1 247.7l-20.3-9.8-21 23.5 41-57.5z"/><path fill="#f5e5cc" d="M126.6 105.7l10.8-10.5 22.8 36.7 40.6 55z"/><ellipse cx="102" cy="249" fill="#314f00" rx="39" ry="22"/><path fill="#dfad8a" d="M103 85L85 20l37 14z"/><path fill="#f2eeec" d="M121-16l76 169L219-5z"/><path fill="#f7e3c5" d="M136.8 172.3l59.1-51.7-63.6 41.3-28.5-1.8z"/><path fill="#d8bab9" d="M96.3 236.4l9.5 11.8 5.9-33.6-14.1 16.5z"/><path fill="#005cd7" d="M60 149l-15 12 1-43z"/><path fill="#eae4df" d="M219 257L205-9.1l-36.4 168.6-8.2 98.8z"/><path fill="#fdfbf6" d="M102 60.9L-4.8-16l10 287 44-194.7z"/><path fill="#001eac" d="M59 271h32l-49-33z"/><path fill="#efe9de" d="M152.1 102.5L192.5-16l-58.3 121-85.1 49.4z"/><circle r="1" fill="#e5ddc9" transform="rotate(-59.4 230.5 76.3) scale(25.59949 6.31556)"/><circle r="1" fill="#005fd1" transform="matrix(3.53091 1.03896 -1.85115 6.29113 54.1 90.3)"/><ellipse cx="82" cy="111" fill="#004aaf" rx="31" ry="12"/><path fill="#004cc9" d="M44 225l19-25-20-19z"/><ellipse cx="122" cy="196" fill="#003492" rx="26" ry="10"/><path fill="#00378a" d="M122.2 112.9l.9 50.8 38.1-22.5-27.9-22.3z"/><path fill="#005fc5" d="M89.3 145.7l19.3 25.5-28 21.1-19.2-25.5z"/><path fill="#fff4e5" d="M114.6 94.8L94.4 73.9l22.1 43.7 21.9-8.9z"/><path fill="#a5844b" d="M39.2 223.2l-14.8 9.7-5 38.1 2.7-51.3z"/><path fill="#fcfbf6" d="M159.1-8.2L133.4 7.3l18.4 77.9-29.1-28.4z"/><circle r="1" fill="#ede5d5" transform="matrix(28.93063 -32.58535 2.95065 2.6197 47.5 167.2)"/><path fill="#fffffc" d="M62 193l1 10 20-12z"/><path fill="#9e714f" d="M123 63.4l-13.7-30.9-7.9 29.5 12.2 10.9z"/><path fill="#003e9a" d="M55 235l20-38 29 21z"/><path fill="#fff8e4" d="M152 207l-8-35 14 12z"/><ellipse cx="142" cy="189" fill="#333542" rx="2" ry="48"/><path fill="#003d8e" d="M100 195l27-29 27 36z"/><circle r="1" fill="#004cb6" transform="matrix(.53552 -8.47682 14.8213 .93632 116.3 138.2)"/><path fill="#000750" d="M64 159l-13.5 13.4 2.3-.2 11 8.6z"/><circle r="1" fill="#ffefd8" transform="matrix(-3.29509 -2.77202 15.65661 -18.61093 104.6 179.7)"/><circle r="1" fill="#221c10" transform="matrix(12.71558 25.63789 -6.73425 3.33998 118.3 10)"/><path fill="#003c90" d="M165 120l-4-30-16 26z"/><path fill="#e1d3bf" d="M142.3 217.5l6.9.7-16.5 9-50.2-23.4z"/><path fill="#22460b" d="M107 228h34v28h-34z"/><path fill="#c5b99b" d="M35 187h8v69h-8z"/><ellipse cx="123" cy="80" fill="#003da2" rx="20" ry="9"/><path fill="#0053bc" d="M67 88h23v12H67z"/><path fill="#f5f4f1" d="M19 0h59v71H19z"/><path fill="#233010" d="M77.8 230.2l-13.1 31-5.4-77.2 5 40.7z"/><circle r="1" fill="#4c3621" transform="matrix(5.29359 5.92954 -19.4787 17.38958 97 6.3)"/><circle r="1" fill="#d8d6cb" transform="matrix(-39.8005 68.49922 -33.36048 -19.38363 203 248.8)"/><circle r="1" fill="#e7e5db" transform="matrix(-4.34641 -3.43259 25.11286 -31.7984 170.3 131.5)"/><path fill="#003798" d="M138 230l21 20 6-46z"/><path fill="#fef5e4" d="M111 70L62 85l39 1z"/><path fill="#001d80" d="M59 139l4.3 9-6.4 3-4.2-9z"/><circle r="1" fill="#f8f8f6" transform="matrix(16.36564 27.46628 -7.59198 4.52364 35.7 157)"/><path fill="#0067cb" d="M84 65L65 78l34-7z"/><path fill="#fffdf2" d="M64 135h32v6H64z"/><path fill="#1a0900" d="M84 37h5v13h-5z"/><circle cx="76" cy="181" r="10" fill="#025ec1"/><path fill="#e4cdb9" d="M106 33l-3 34-18-38z"/><path fill="#c0af8c" d="M19 191h5v65h-5z"/><ellipse cx="134" cy="135" fill="#063c93" rx="10" ry="20"/><path fill="#fff" d="M27 192h7v28h-7z"/><circle r="1" fill="#e9ebe8" transform="matrix(29.46226 -4.90858 12.75517 76.55903 195.1 122.6)"/><circle r="1" fill="#feefde" transform="matrix(-22.09321 -4.32945 .512 -2.6127 78.4 197.4)"/><path fill="#f1eae1" d="M-16 185l7.7 76.9 64.5-3.9L30 244.3z"/><path fill="#003f98" d="M164 192l2-39-21 12z"/><path fill="#feeede" d="M139.2 235.6l3.8-1.3 11.8 34-3.8 1.4z"/><path fill="#f1eae5" d="M104.9 117.5l-14.8 23 .4 2.7 40.8-34.5z"/><path fill="#faf3e8" d="M49 125l-7-24 33 39z"/><path fill="#f0e8df" d="M55.7 217.2l-15 16.7 12.8 11 7.7-38.4z"/><path fill="#f2f3ef" d="M77.1 15.5l20-31.5L-16 58.1l52.7 64.6z"/><path fill="#ece8e4" d="M163 251l56-166-52 71z"/><path fill="#055cc2" d="M97.9 156.5L80 140.2l-4.5.6-14.9 14.8z"/><ellipse cx="37" cy="250" fill="#ab9973" rx="5" ry="15"/></g></g></svg>