<svg xmlns="http://www.w3.org/2000/svg" viewBox="0 0 656 1400"><defs/><filter id="a"><feGaussianBlur stdDeviation="12"/></filter><rect width="100%" height="100%" fill="#2c2c4c"/><g filter="url(#a)"><g fill-opacity=".5" transform="translate(2.7 2.7) scale(5.46875)"><circle r="1" fill="#ffff7e" transform="matrix(15.0116 27.09994 -15.24985 8.44742 50.4 112.7)"/><path fill="#e1dd7e" d="M128.1 6.8L91.8 60.7l-20-13.5 36.4-53.9z"/><ellipse cx="66" cy="255" fill="#fffea2" rx="10" ry="48"/><path fill="#fff27f" d="M-25.4 199.4L15 166.7l14.4 17.9-40.4 32.7z"/><path fill="#ebdbbc" d="M-14 45.9l27.9 18.5 15.9-10.5L-16 12.7z"/><path fill="#babe67" d="M111.8 218.2l-9.7-18.7 32.9-136v107.3z"/><path fill="#dccd84" d="M69.1 161.4l-1.4-52.5-28.4 1.6L62 152.8z"/><path fill="#c1bb48" d="M37.1 21.1l.9 4.4L18.3-16 45 .6z"/><path fill="#e9c7c1" d="M66.3 223.5l-21.1 30.6 15.4-9.5 8.2-2.3z"/><path fill="#ffdada" d="M109 167l15-34 11 35z"/><circle r="1" fill="#7f89c4" transform="matrix(-10.34679 -11.23982 4.31604 -3.97312 114.6 133.5)"/><path fill="#353b3e" d="M60 229L12 97l54 49z"/><circle r="1" fill="#ebd1a7" transform="matrix(-3.74393 -1.44975 13.91692 -35.9401 113.5 9.5)"/><path fill="#c9bb63" d="M46.3 128.8l-22-21.9L55.8 89 34.6 73.9z"/><path fill="#ecca34" d="M26 185l-14-29 5 38z"/><path fill="#343752" d="M62.1 129.6L135 53.8l-76.5-4 21.9 100.5z"/><path fill="#675f2c" d="M43.7 84.9L31.1 98.8 14.5 80.4 63.8 125z"/><path fill="#fff" d="M65.9 228.4l-5.8-1.3 4-17.5 5.8 1.3z"/><path fill="#252a36" d="M65 229l70-70-56 30z"/><path fill="#857a18" d="M67.9 244.3l3.6-7.9 17.2 33.4-48.9-9.4z"/><path fill="#444a65" d="M8 0h23v55H8z"/><path fill="#eede80" d="M55.4 140.5l6.3-21.4-31.9-19.8-3.2 2.1z"/><path fill="#fddfce" d="M-16 53.1l38.4 3.8-12.8 8.5-23-81.4z"/><path fill="#213465" d="M-11 153l31 40-36-17z"/><path fill="#5c6c22" d="M51 138h14v38H51z"/><path fill="#29294b" d="M22 109l3 91 27-68z"/><path fill="#000041" d="M123.7 8.6l-2.5 17.8-7-1 2.6-17.8z"/><path fill="#f4e0e4" d="M71 113l-8-9-4 29z"/><circle r="1" fill="#6a7733" transform="matrix(12.98001 -22.27406 7.83273 4.56446 89.3 32)"/><path fill="#6c8130" d="M106 218.5l-7.7-2.5 15.8-48.5 7.6 2.5z"/><path fill="#deb9ca" d="M2.6 207.9l-18.6 2.4 30.7-19.8 1.2 6.3z"/><path fill="#252639" d="M0 210h60v30H0z"/><path fill="#d0c0a2" d="M72 145l-9 12 3-21z"/><path fill="#f9d7c2" d="M101.2 34.9l-8.4 57 7.1-48-13.2 7z"/><circle r="1" fill="#212231" transform="matrix(29.24668 21.03773 -8.49579 11.81085 100 232.5)"/><path fill="#9ea7d9" d="M14 14l4-30-8 15z"/><path fill="#343852" d="M31.4-11.8l56.7 71L6.3 77.9l123-88z"/><path fill="#edecba" d="M36 23l3-2-6-7z"/><path fill="#807b25" d="M-16 26.4l.8-22 13.5 21.8 28.4 25.1z"/><path fill="#f5d7a3" d="M99 46l6-19-21 29z"/><circle r="1" fill="#b6b895" transform="matrix(-.9978 .06632 -.7935 -11.9386 77 249.6)"/><path fill="#30324d" d="M39 66l-21 73-27-80z"/><path fill="#f6d5bd" d="M-16 57l27-13-27-21z"/><path fill="#31334c" d="M110 72l-6 107-40-50z"/><path fill="#323551" d="M135 108.9L81.3 49 49.8 88l54.8-44.8z"/><path fill="#d6cf95" d="M64.7 127.3l-13.1 19.9 5.8-24.3 15.3-4.6z"/><path fill="#8b8336" d="M43.5 79.8l20.7 24.3-11 11.1-18.4-31.9z"/><path fill="#5869b7" d="M109.7 12.5l-8.9-1 1.5-12 8.9 1z"/><path fill="#e6ccc2" d="M61.7 101.6l.8-.4 11.8 23.2-.8.4z"/><path fill="#d5beb7" d="M72.3 224.6l1.5 1.4-36.1 37.4-1.5-1.4z"/><path fill="#c3c4b2" d="M135 130.2l-19.8-.9-9-7.5 12 6.1z"/><path fill="#282941" d="M15 193h38v55H15z"/><path fill="#e3c0ca" d="M110.7 33.7l-7.9-1.7 2.5-11.7 7.9 1.7z"/><path fill="#343d23" d="M-8 181l25-30-13 30z"/><path fill="#f0e188" d="M29 109l19 17-16-28z"/><path fill="#eff0d8" d="M36 76h1v18h-1z"/><path fill="#809352" d="M113.5 7.5l-14.9 5.1-18.4 17.1 23 .3z"/><path fill="#434fad" d="M8 47h18v9H8z"/><circle r="1" fill="#d3ba3e" transform="rotate(13.2 -748.3 155) scale(6.2366 7.61574)"/><path fill="#33334a" d="M84.3 132.1l-.8-19.6L88 39.3l-25 64.8z"/><path fill="#e8bcaf" d="M116 141h4v26h-4z"/><path fill="#2d2f48" d="M-16 218.5l131.5-79.6-.6 18.1-27.3 42.7z"/><path fill="#607136" d="M111 173l24 7-31 38z"/><path fill="#4552b7" d="M16 185l-19-4 17 10z"/><path fill="#8c812b" d="M6 39l11-2 4 12z"/><path fill="#343652" d="M135-9l-9.6 90.7-64.3 13.2 44.2-54.6z"/><circle r="1" fill="#26273c" transform="rotate(-133.5 107 92.4) scale(16.99018 51.51372)"/><path fill="#f1eddc" d="M61.6 218.4l2.2-7.9 6.7-1.5-9.5 18z"/><path fill="#ead649" d="M119.4 1l1.7 2.4-10.5 7.6-1.7-2.4z"/><path fill="#cfac9c" d="M135 154.1l-28.2 14.2 3.2 3.5 25-13.8z"/><path fill="#cbb64b" d="M15 161l11 26-20-7z"/><path fill="#2a2a46" d="M22 175l32-18-7 74z"/><path fill="#282843" d="M94.5 160.3L90 171.8l17.3 56.4-40.6-5.6z"/><path fill="#d7b19f" d="M62.7 248l-3.5.5-7.1-6.8 23.3-15.5z"/><path fill="#30314d" d="M70 130h34v63H70z"/><path fill="#736927" d="M60.5 118.2l-18-24.8-7.4 8.1L50.9 112z"/><circle r="1" fill="#e8d1c5" transform="matrix(-12.7515 -5.55396 .64831 -1.48847 4.1 54.1)"/><path fill="#32344d" d="M21 67l65-47L43 5z"/><path fill="#b8b694" d="M81.8 42.5l-.6-.7 35-28.3.6.7z"/><path fill="#8e883e" d="M60 119V96L34 69z"/><circle r="1" fill="#eff2de" transform="matrix(-1.83526 4.37385 -1.76047 -.73869 62.4 229)"/><path fill="#efc6c8" d="M65 135.4l3-.5 3 15.7-3 .5z"/><circle r="1" fill="#30334f" transform="matrix(4.73642 -7.02203 30.78658 20.76581 10.2 25.8)"/><path fill="#2e3049" d="M54.3 139.7l-4.1-9.4L-16 122l43.6 57.5z"/><path fill="#3f4359" d="M12.5 151.9l-2.3 26.4 3.2-9.2-6.3-87.9z"/><path fill="#806b1c" d="M83 39l17-2-25 12z"/><path fill="#30324e" d="M76.9 198l31.6-76.4-47.5 6.2 7.8 6z"/><path fill="#202238" d="M59 235l-31 17 33-37z"/><path fill="#4d58a2" d="M127.2 136l-4.7 7.8-19.7-11.9 4.7-7.7z"/><ellipse cx="61" cy="154" fill="#4f5b2d" rx="5" ry="18"/><path fill="#30314d" d="M27.1 107.4l27.8 35.5-70.9-37.6 50.6-18z"/><path fill="#d9d6be" d="M37.5 85.4l-6 13.7-1-.5 6-13.7z"/><path fill="#537531" d="M.4 197.3l-2-4.6 9.2-4 2 4.6z"/><path fill="#dbbcbe" d="M112 28L99 42l15-36z"/><path fill="#8c843a" d="M49 259.3L64.2 271l14.6-17.8L68 240.4z"/><path fill="#e7e4b1" d="M27.4 106l2.7-1.4 2.5 5.5-2.7 1.3z"/><path fill="#737f4f" d="M94 33.5l.9-21.7L73.5 39l45.3-29z"/><path fill="#2e304a" d="M30 27h45v48H30z"/><circle r="1" fill="#b7b7af" transform="matrix(1.5601 -3.0264 4.20491 2.16762 67.1 210.4)"/><path fill="#858c95" d="M51 99l-8-9-8 1z"/></g></g></svg>