<svg xmlns="http://www.w3.org/2000/svg" viewBox="0 0 1120 1400"><defs/><filter id="a"><feGaussianBlur stdDeviation="12"/></filter><rect width="100%" height="100%" fill="#4f3936"/><g filter="url(#a)"><g fill-opacity=".5" transform="translate(2.7 2.7) scale(5.46875)"><circle r="1" fill="#fff" transform="rotate(-174.7 57.6 60) scale(106.18132 200.04497)"/><circle r="1" fill="#fff" transform="rotate(-167.1 42.6 44.9) scale(47.15505 163.87113)"/><circle r="1" fill="#142b5a" transform="matrix(28.36084 5.3104 -5.6362 30.10084 143 62.9)"/><path fill="#3b3424" d="M54 219l-2-40 119 79z"/><ellipse cx="203" cy="109" fill="#3d150c" rx="18" ry="206"/><path fill="#fdffff" d="M17 111L201 1 17-12z"/><circle r="1" fill="#fff" transform="rotate(86.2 -31.8 174.6) scale(20.59948 48.04369)"/><path d="M163 148h25v26h-25z"/><ellipse cx="6" cy="170" fill="#5e3931" rx="11" ry="255"/><circle r="1" fill="#fff" transform="matrix(15.13712 63.53897 -16.108 3.83746 165.8 7.4)"/><ellipse cx="34" cy="209" fill="#fcffff" rx="18" ry="175"/><path fill="#3b476e" d="M117 31l-1 71 65-67z"/><circle cx="100" cy="137" r="45" fill="#f0f1e2"/><circle r="1" fill="#84816b" transform="matrix(-10.52171 18.37195 -16.44038 -9.4155 44.2 21)"/><path fill="#fff" d="M186.1 271l4.1-44.3-30.6 25.5-131.7.5z"/><circle r="1" fill="#323f78" transform="matrix(9.08692 -18.2617 20.02866 9.96616 150.8 234)"/><path fill="#fff" d="M110 228l49 43-42-7z"/><circle r="1" fill="#fff" transform="matrix(42.4354 11.4763 -5.59526 20.68935 145 9.6)"/><ellipse cx="196" cy="231" fill="#684c47" rx="10" ry="255"/><path fill="#f8ffff" d="M110 175h77v36h-77z"/><path fill="#131e0b" d="M53 189h12v34H53z"/><path fill="#a48e66" d="M72 178h40v76H72z"/><path fill="#937441" d="M134 133l-17-14 2 55z"/><ellipse cx="139" cy="97" fill="#926925" rx="9" ry="23"/><path fill="#141615" d="M44 57h1v141h-1z"/><path fill="#fbfffa" d="M148 88h19v21h-19z"/><path fill="#fff" d="M170 4h14v69h-14z"/><path fill="#91928d" d="M31 62h13v27H31z"/><ellipse cx="32" cy="241" fill="#fff" rx="16" ry="43"/><ellipse cx="8" cy="135" fill="#6c514c" rx="9" ry="255"/><ellipse cx="105" cy="62" fill="#f7fbfd" rx="11" ry="116"/><path fill="#63441e" d="M166 126v22h-14v-22z"/><ellipse cx="73" cy="202" fill="#f6f6f1" rx="3" ry="38"/><ellipse cx="156" cy="219" fill="#7981af" rx="32" ry="11"/><path fill="#f8f8f6" d="M16.4 160.6l1.7-100.1-3.3-34.7 23.1 9.1z"/><path fill="#8b7b6a" d="M194.3 81.4l-7.4-5.7-9 30.1-64.4-69.5z"/><path fill="#fff" d="M191.3 210.9L156.5 271l31.7-14.2-2.2-26.2z"/><path fill="#eaece4" d="M160.1 200l-52.5 23.8 48.7-74.8-32.4 5.6z"/><path fill="#959182" d="M83-14L20 26l25 17z"/><path fill="#6a4f4a" d="M188 0h16v256h-16z"/><path fill="#6d3d1b" d="M133 174l-17-1 3-21z"/><circle r="1" fill="#fff" transform="matrix(19.27393 -26.46088 12.73374 9.27517 76.8 28)"/><path fill="#705125" d="M104.7 228l-3-20.2-30.8 42 18.3-1.2z"/><ellipse cx="19" cy="119" fill="#3e4041" rx="1" ry="52"/><path fill="#535e7d" d="M118 33h45v58h-45z"/><path fill="#c0c0bb" d="M32.3 168.6L98.1 198l-2.4 5.5L29.9 174z"/><path fill="#e7eced" d="M46 84h71v94H46z"/><path fill="#17162d" d="M141 248h25v6h-25z"/><path fill="#fffff2" d="M54.9 263.7l144.2-9.6-56.1.4-23.3-15.5z"/><path fill="#daccb3" d="M120.5 247.2l-37.8-14.1 5.7-15.2-43 8.8z"/><path fill="#dbd3ab" d="M156.9 163.9l-17.6 6.2-7.8-41.5 17.2-15.7z"/><ellipse cx="81" cy="136" fill="#d1d3d1" rx="29" ry="35"/><path fill="#fff" d="M116 0h65v33h-65z"/><path fill="#d8d248" d="M135 71l5 13 7-24z"/><path fill="#fff" d="M179.2 172.1l6.6 12.5 1.8 29-13.3-2z"/><path fill="#2e375a" d="M135 95.5l-19-1 1-20 19 1z"/><path fill="#ddbfb7" d="M132.1 53l-.8 1.7-12.4-18.8 20.3 12.3z"/><path fill="#72573c" d="M109.3 234.2l-24.4.4-9.4-45.9 38.7 70.1z"/><path fill="#e7eceb" d="M184 2h3v112h-3z"/><path fill="#ced3d0" d="M50 55h58v35H50z"/><path fill="#304196" d="M101 226l35-14-13 12z"/><path fill="#4c371b" d="M185 86l-6-16-12 3z"/><path fill="#af976f" d="M99 238l-49 15 2-20z"/><ellipse cx="5" cy="77" fill="#6c514c" rx="12" ry="255"/><path fill="#0a0c08" d="M32 172l12 1-10 3z"/><ellipse cx="111" cy="19" fill="#cacdcb" rx="31" ry="6"/><path fill="#787e95" d="M164 118h23v33h-23z"/><path fill="#25301a" d="M65 196h5v26h-5z"/><ellipse cx="190" fill="#654a44" rx="4" ry="98"/><ellipse cx="114" cy="171" fill="#fff" rx="2" ry="147"/><path fill="#fff" d="M18 202h32v54H18z"/><path fill="#cdcfd1" d="M87 190h73v13H87z"/><path fill="#425495" d="M136 34h33v27h-33z"/><path fill="#171713" d="M34 83h10v4H34z"/><path fill="#d8d9d8" d="M184.5 109.5l-39.4-16.3 16.8-8.1 14.6 37z"/><circle r="1" fill="#8888a3" transform="matrix(14.14186 3.72002 -3.00765 11.43376 154.8 218)"/><path fill="#f4ffff" d="M118 271l-59-27-6 27z"/><ellipse cx="20" cy="117" fill="#7e8080" rx="1" ry="54"/><path fill="#ffff97" d="M143 240h14v4h-14z"/><path fill="#424239" d="M159 152h29v23h-29z"/><path fill="#8c9995" d="M103 215l28 14-27 3z"/><path fill="#fff" d="M18 28l33 22-33 18z"/><path fill="#2e3576" d="M136 226l4 26-23-18z"/><path fill="#c5c4c2" d="M27.1 27.8l36.3-12.2-50.1-6.1 67.6-19.7z"/><path fill="#f3efdc" d="M108 103l31 31-9-40z"/><path fill="#713226" d="M76 196h9v21h-9z"/><path fill="#474c82" d="M185.8 220.5l-30.4 22.6 6.3 11.6 8.8-9.6z"/><ellipse cx="200" cy="228" fill="#6c514c" rx="14" ry="111"/><ellipse cx="48" cy="127" fill="#fff" rx="3" ry="84"/><path fill="#f8f9f9" d="M44 80l-27 8 9-33z"/><ellipse cx="82" cy="174" fill="#fff" rx="36" ry="4"/><path fill="#fff" d="M149 202l-34 18-1-17zm17 50l20 19v-49z"/><path fill="#afac50" d="M151 57h8v19h-8z"/><path fill="#3a4363" d="M116 34h6v62h-6z"/><path fill="#9e9b94" d="M60 178h53v13H60z"/><path fill="#0c0c07" d="M34 62h11v3H34z"/><path fill="#877554" d="M151 107h7v35h-7z"/><path fill="#ecca86" d="M111.6 241.9l-5.2 14-16-5.8 5.2-14z"/><ellipse cx="34" cy="128" fill="#c8ccca" rx="7" ry="42"/></g></g></svg>