<svg xmlns="http://www.w3.org/2000/svg" viewBox="0 0 1400 1120"><defs/><filter id="prefix__a"><feGaussianBlur stdDeviation="12"/></filter><rect width="100%" height="100%" fill="#2d3f56"/><g filter="url(#prefix__a)"><g transform="translate(2.7 2.7) scale(5.46875)"><circle cx="126" cy="49" r="214" fill="#f4a48d" fill-opacity=".5"/><ellipse cx="161" cy="6" fill="#fff" fill-opacity=".5" rx="255" ry="9"/><ellipse cx="128" cy="203" fill="#fff" fill-opacity=".5" rx="249" ry="14"/><circle r="1" fill="#334b3b" fill-opacity=".5" transform="matrix(-67.9784 27.46506 -21.22706 -52.53883 209.7 132.2)"/><circle cx="47" cy="103" r="88" fill="#98313e" fill-opacity=".5"/><path fill="#fff" fill-opacity=".5" d="M1.5-13.5h255v27H1.5zM0 191h256v13H0z"/><ellipse cx="136" cy="80" fill="#fff" fill-opacity=".5" rx="3" ry="173"/><circle r="1" fill="#4e604f" fill-opacity=".5" transform="rotate(-83.5 140.5 -97.6) scale(37.42637 80.82463)"/><ellipse cx="77" cy="4" fill="#fff" fill-opacity=".5" rx="255" ry="10"/><path fill="#25403d" fill-opacity=".5" d="M144 170h112v20H144z"/><circle r="1" fill="#fff" fill-opacity=".5" transform="matrix(.04735 10.7631 -71.58281 .3149 58.3 201.6)"/><ellipse cx="220" cy="198" fill="#fff" fill-opacity=".5" rx="255" ry="8"/><path fill="#8e484f" fill-opacity=".5" d="M0 14h135v68H0z"/><ellipse cx="192" cy="95" fill="#6c6459" fill-opacity=".5" rx="54" ry="80"/><path fill="#945057" fill-opacity=".5" d="M0 14h135v174H0z"/><ellipse cx="146" cy="3" fill="#fff" fill-opacity=".5" rx="255" ry="11"/><path fill="#60655d" fill-opacity=".5" d="M139 15h45v176h-45z"/><path fill="none" stroke="#fff" stroke-opacity=".5" stroke-width=".5" d="M138.1 28.2q-2 42.9-.7 177.1"/><ellipse cx="136" cy="118" fill="#fff" fill-opacity=".5" rx="2" ry="161"/><circle r="1" fill="#fff" fill-opacity=".5" transform="rotate(89 -17.6 185.2) scale(8.37678 117.70381)"/><ellipse cx="200" cy="161" fill="#6c5041" fill-opacity=".5" rx="51" ry="14"/><path fill="#796b5f" fill-opacity=".5" d="M146 30h100v72H146z"/><path fill="#33595e" fill-opacity=".5" d="M246 38h10v151h-10z"/><path fill="#44686d" fill-opacity=".5" d="M146 17h110v12H146z"/><path fill="#2f4545" fill-opacity=".5" d="M139 174h32v16h-32z"/><path fill="#99505b" fill-opacity=".5" d="M0 136h135v53H0z"/><ellipse cx="144" cy="104" fill="#4b6c6f" fill-opacity=".5" rx="6" ry="86"/><path fill="#fff" fill-opacity=".5" d="M139.8 177h-2l-3.6-202h2z"/><ellipse cy="89" fill="#745a63" fill-opacity=".5" rx="7" ry="76"/><path fill="#fff" fill-opacity=".5" d="M0 191h256v13H0z"/><path fill="#fffffd" fill-opacity=".5" d="M117 189h21v15h-21z"/><ellipse cx="198" cy="103" fill="#4b6457" fill-opacity=".5" rx="18" ry="19"/><ellipse cx="72" cy="160" fill="#995359" fill-opacity=".5" rx="59" ry="31"/><path fill="#7f726c" fill-opacity=".5" d="M156 45l26 12-2 81z"/><path fill="#fff" fill-opacity=".5" d="M134 0h108v15H134z"/><ellipse cx="252" cy="182" fill="#2f494b" fill-opacity=".5" rx="61" ry="6"/><ellipse cx="62" cy="3" fill="#fff" fill-opacity=".5" rx="255" ry="11"/><path fill="#9e7447" fill-opacity=".5" d="M155 37h14v18h-14z"/><ellipse cx="36" cy="15" fill="#454149" fill-opacity=".5" rx="98" ry="1"/><path fill="#765e4e" fill-opacity=".5" d="M148 96h22v79h-22z"/><ellipse cx="56" cy="14" fill="#739298" fill-opacity=".5" rx="78" ry="1"/><path fill="#595549" fill-opacity=".5" d="M208 31h17v27h-17z"/><path fill="#5a6764" fill-opacity=".5" d="M244 15h12v99h-12z"/><path fill="#966e3d" fill-opacity=".5" d="M225.8 43.6l17 .9-.6 12-17-1z"/><ellipse cx="12" cy="83" fill="#9d5565" fill-opacity=".5" rx="8" ry="54"/><path fill="#4e504d" fill-opacity=".5" d="M210 141h15v50h-15z"/><path fill="#59544b" fill-opacity=".5" d="M168.7 38.6l14.8-2.8 3.8 19.6-14.8 2.8z"/><path fill="#a1564f" fill-opacity=".5" d="M103 95l6-39-78 8z"/><path fill="#764b51" fill-opacity=".5" d="M0 15h134v7H0z"/><ellipse cx="236" cy="162" fill="#795f48" fill-opacity=".5" rx="11" ry="14"/><ellipse cx="102" cy="27" fill="#99444e" fill-opacity=".5" rx="28" ry="8"/><ellipse cx="25" cy="107" fill="#855259" fill-opacity=".5" rx="6" ry="74"/><path fill="#fff" fill-opacity=".5" d="M-8.6 189.1l54.9 3.8-1.7 24-54.9-3.8z"/><path fill="#89747a" fill-opacity=".5" d="M182 81h37v4h-37z"/><ellipse cx="15" cy="187" fill="#7f555e" fill-opacity=".5" rx="116" ry="3"/><ellipse cx="121" cy="100" fill="#a04857" fill-opacity=".5" rx="8" ry="85"/><path fill="#796b72" fill-opacity=".5" d="M224.7 99.8L216.5 49l-.3 59.1-1.3 20.5z"/><path fill="#504c46" fill-opacity=".5" d="M198 170.8l-29.9-.9 2.9-19.3-18.6-9.3z"/><path fill="#aa515f" fill-opacity=".5" d="M45.4 171.1l71-1.2.2 13-71 1.2z"/><path fill="#1d394c" fill-opacity=".5" d="M184 116h28v2h-28z"/><ellipse cx="136" cy="113" fill="#fffffe" fill-opacity=".5" rx="2" ry="98"/><ellipse cx="144" cy="37" fill="#607679" fill-opacity=".5" rx="6" ry="22"/><path fill="#736a4e" fill-opacity=".5" d="M210.7 93.9l-25-1.7 2.7 19.7 15.3-.3z"/><path fill="#495b59" fill-opacity=".5" d="M139 115h9v74h-9z"/><circle r="1" fill="#6f5d54" fill-opacity=".5" transform="matrix(12.02115 -9.94982 15.93644 19.25406 195.4 141.4)"/><path fill="#8b694d" fill-opacity=".5" d="M223 127h13v14h-13z"/><ellipse cx="138" cy="44" fill="#d8ede9" fill-opacity=".5" rx="1" ry="49"/><ellipse cx="67" cy="100" fill="#89515c" fill-opacity=".5" rx="21" ry="22"/><ellipse cx="134" cy="86" fill="#798f86" fill-opacity=".5" rx="1" ry="73"/><path fill="#4f5157" fill-opacity=".5" d="M153 119h7v31h-7z"/><path fill="#8c735d" fill-opacity=".5" d="M232.7 66.3l-25.4 10.3 33.4 1.5-3.7-1.2z"/><path fill="#80545e" fill-opacity=".5" d="M19 163h68v6H19z"/><ellipse cx="131" cy="93" fill="#7f545d" fill-opacity=".5" rx="3" ry="78"/><path fill="#a15751" fill-opacity=".5" d="M47 143l59-49 2 53z"/><ellipse cx="3" cy="190" fill="#8c9397" fill-opacity=".5" rx="89" ry="1"/><circle r="1" fill="#916f56" fill-opacity=".5" transform="matrix(1.7407 4.6027 -6.8295 2.58287 164 134)"/><circle r="1" fill="#504f51" fill-opacity=".5" transform="matrix(.27188 2.63094 -47.53665 4.91243 235.4 142)"/><circle r="1" fill="#7c4f59" fill-opacity=".5" transform="matrix(-6.261 .37983 -1.64769 -27.1597 0 160.1)"/><path fill="#fff" fill-opacity=".5" d="M0 0h256v14H0z"/><path fill="#3e5255" fill-opacity=".5" d="M261.7 183.5l-19.9-2.4 6.5-52.6 19.9 2.4z"/><circle r="1" fill="#786b5b" fill-opacity=".5" transform="matrix(-9.04703 31.55074 -7.50843 -2.153 159.7 97.8)"/><path fill="#995451" fill-opacity=".5" d="M28 56h20v93H28z"/><circle cx="197" cy="137" r="4" fill="#a18038" fill-opacity=".5"/><path fill="#886444" fill-opacity=".5" d="M157 149h12v17h-12z"/><circle r="1" fill="#8e7b81" fill-opacity=".5" transform="rotate(88.9 -14.5 148.5) scale(29.77572 1)"/><circle cx="165" cy="71" r="7" fill="#997656" fill-opacity=".5"/><path fill="#5a626a" fill-opacity=".5" d="M220 35h4v48h-4z"/><ellipse cx="66" cy="39" fill="#84565b" fill-opacity=".5" rx="47" ry="4"/><path fill="#64766c" fill-opacity=".5" d="M193.5 96l-18.1 14 5.4-22.8 50.7 13.4z"/><path fill="#5c4a39" fill-opacity=".5" d="M140 187h116v3H140z"/><ellipse cx="204" cy="184" fill="#34484a" fill-opacity=".5" rx="64" ry="3"/><path fill="#88575d" fill-opacity=".5" d="M107 41h8v129h-8z"/><ellipse cx="138" cy="123" fill="#bececa" fill-opacity=".5" rx="1" ry="67"/><ellipse cx="194" cy="190" fill="#9b9f8e" fill-opacity=".5" rx="55" ry="1"/><path fill="#92663f" fill-opacity=".5" d="M192 42h10v11h-10z"/><path fill="#726455" fill-opacity=".5" d="M240 41h7v78h-7z"/><path fill="#435658" fill-opacity=".5" d="M143 175h105v7H143z"/><path fill="#856f53" fill-opacity=".5" d="M236 99l4 20-15-12z"/><ellipse cx="178" cy="199" fill="#fff" fill-opacity=".5" rx="255" ry="8"/></g></g></svg>