<svg xmlns="http://www.w3.org/2000/svg" viewBox="0 0 1400 1120"><defs/><filter id="a"><feGaussianBlur stdDeviation="12"/></filter><rect width="100%" height="100%" fill="#27414c"/><g filter="url(#a)"><g fill-opacity=".5" transform="translate(2.7 2.7) scale(5.46875)"><circle r="1" fill="#fff" transform="matrix(95.34325 -.61953 1.56475 240.80992 222.4 100.6)"/><circle r="1" fill="#fff" transform="matrix(246.35136 65.84838 -11.99105 44.86079 116.9 3.3)"/><circle r="1" fill="#fff" transform="matrix(-2.14201 -25.50851 243.01338 -20.4064 136.7 193)"/><circle cx="208" cy="124" r="79" fill="#ffe4e4"/><ellipse cx="34" cy="11" fill="#fec3bf" rx="55" ry="59"/><ellipse cx="73" cy="193" fill="#fff" rx="255" ry="14"/><ellipse cx="96" cy="11" fill="#fff" rx="255" ry="13"/><path fill="#1c170e" d="M129.9 176.5l-68.2 5.4L24.3 24.4l107.3.4z"/><ellipse cx="142" cy="105" fill="#ffe7ea" rx="12" ry="203"/><circle r="1" fill="#ffe3e8" transform="rotate(24 32.8 525.5) scale(170.9614 39.43344)"/><ellipse cx="28" cy="121" fill="#929492" rx="11" ry="32"/><path fill="#000615" d="M93 177l-47-58-22 60z"/><path fill="#e6edf3" d="M89.7 35l-32.5 5.7L52.3 13l32.5-5.8z"/><path fill="#a38c8c" d="M146 121h41v52h-41z"/><circle r="1" fill="#ffeff4" transform="matrix(-.675 -20.65685 76.84483 -2.51103 64.6 200.7)"/><circle cx="35" cy="60" r="13" fill="#f2b8a1"/><ellipse cx="114" cy="168" fill="#aba75b" rx="20" ry="11"/><circle r="1" fill="#ffe1e7" transform="rotate(-130.1 155 30) scale(27.56998 154.20493)"/><circle r="1" fill="#a38c8b" transform="matrix(15.33796 -11.58098 19.54242 25.88215 223.8 100.6)"/><path fill="#520013" d="M22 27h35v22H22z"/><circle r="1" fill="#000a0f" transform="rotate(-123.1 20.3 37.5) scale(38.53579 17.41392)"/><path fill="#1c2c24" d="M95 25h36v129H95z"/><ellipse cx="64" cy="59" fill="#afa183" rx="7" ry="20"/><circle r="1" fill="#ffe8ea" transform="matrix(-52.43873 -26.08027 4.19446 -8.43365 187.6 117.9)"/><path fill="#6d605c" d="M160 74h60v6h-60z"/><path fill="#8b9d9f" d="M43 100L4 151l29-4z"/><circle r="1" fill="#877162" transform="matrix(-3.7335 -6.50333 21.09454 -12.11019 114.3 92.7)"/><ellipse cx="47" cy="197" fill="#ffdee3" rx="255" ry="18"/><path fill="#5e544d" d="M166 97h53v5h-53z"/><path fill="#00111f" d="M94 178l-49 1L93 50z"/><ellipse cx="136" cy="120" fill="#ffebf0" rx="6" ry="94"/><ellipse cx="82" cy="8" fill="#ffe1e7" rx="255" ry="16"/><path fill="#ffe3e8" d="M179 19h77v56h-77z"/><path fill="#6f625f" d="M153 86h94v5h-94z"/><ellipse cy="49" rx="4" ry="14"/><ellipse cx="255" cy="83" fill="#ffedf0" rx="111" ry="4"/><path fill="#d7babb" d="M155.9 74.9l-37.2-55.3 38.8 15L184 63z"/><path fill="#000012" d="M100 106h31v26h-31z"/><path fill="#000105" d="M-16 176.7l31.7-42.2-31.7-12.4 37.5 48.1z"/><path fill="#1b2531" d="M38 132.1l-41.8 2.6 90.2 16.7L51.1 46z"/><path fill="#7d766a" d="M38.8 87l-.9-.5L-16 42.3 47.9 81z"/><path fill="#ffe2e3" d="M188.5 117.6l-59.1-6.6 100.4-12.2-40.2 49.5z"/><ellipse cx="190" cy="150" fill="#746a66" rx="43" ry="2"/><path fill="#fff1f4" d="M247 78h9v84h-9z"/><path fill="#526f71" d="M24.2 166.7l-12.4-9.2 26.3 1.1 11.1 14.7z"/><path fill="#fde1e5" d="M132 28l34 92-34 58z"/><path fill="#aabbac" d="M27 65L4 24l2 35z"/><path fill="#998b8c" d="M171 118h14v56h-14z"/><path fill="#62042d" d="M23 25h32v21H23z"/><path fill="#383e33" d="M67 37h63v34H67z"/><circle cx="84" cy="31" r="9" fill="#9ebeb9"/><path fill="#ae9ea0" d="M208 100h40v30h-40z"/><path fill="#7c7975" d="M139 32h15v8h-15z"/><path fill="#707447" d="M94 158h37v22H94z"/><circle cx="95" cy="120" r="5" fill="#92965d"/><path fill="#6a615c" d="M169 142.9l52-2.8v1l-52 2.8z"/><path fill="#c3d2d1" d="M22.5 122.5l2.8 1-5.8 16-2.8-1z"/><path fill="#11262f" d="M33.4 115.2l-40.6 34.4 40.6-44.4L-16 90.5z"/><path fill="#fae1e4" d="M23.1 176.1L95.3 219-16 207.1v-20.8z"/><path fill="#ffe7eb" d="M169 53l-36-7 93-37z"/><path fill="#000a14" d="M0 76.3l1.6 22.1 25.8-15.7.2-14.3z"/><circle cx="29" cy="94" r="4" fill="#ff9c82"/><path fill="#001f21" d="M82 123h49v33H82z"/><path fill="#bfbdb7" d="M57 45h13v9H57z"/><path fill="#6a7f86" d="M28.9 99.1L7.4 135.3l10-32.3 4.6 16z"/><path fill="#b6a3a5" d="M147 54h33v22h-33z"/><path fill="#00101f" d="M89.3 105.8l27.7 14.7-83.8-31.3 26-15.7z"/><path fill="#00121b" d="M75 100l10-52 27 32z"/><path fill="#fb8372" d="M40 84l9-9-16 7z"/><path fill="#695e46" d="M73.1 44.6l.8 40.8-17.2-13.3-3.1-8z"/><path fill="#8a1a3c" d="M51 42L9 49l28-16z"/><path fill="#fde3e7" d="M225 130h31v74h-31z"/><path fill="#958e4c" d="M8.6 107.7l-1.8-6.2-11.6 4.8-11.2 19.6z"/><ellipse cx="114" cy="138" fill="#486d44" rx="16" ry="4"/><path fill="#d0c0c2" d="M145 117h19v48h-19z"/><path fill="#00121b" d="M50 25h5v76h-5z"/><path fill="#99b1a7" d="M55 39V25l12 16z"/><path d="M225 71h2v8h-2z"/><path fill="#9ca39f" d="M18.2 147.3l.5-20.3-5.7 26.7 11.2-8.8z"/><path fill="#fff0f1" d="M149 91h71v3h-71z"/><ellipse cx="210" cy="134" fill="#ffebef" rx="25" ry="5"/><circle r="1" fill="#264049" transform="rotate(-165.7 21.6 65.2) scale(2.4492 23.11377)"/><path fill="#9f8e91" d="M225 90h22v23h-22z"/><path fill="#adb4b2" d="M42 98l-1 17-11 14z"/><path fill="#a4c9c1" d="M22 23H-3l25 10z"/><circle r="1" fill="#2a2e37" transform="rotate(168.7 28.6 69.3) scale(8.69304 41.52843)"/><path fill="#f8dfe1" d="M193 87h5v71h-5z"/><ellipse cy="58" fill="#00151b" rx="3" ry="30"/><path fill="#04131d" d="M69.6 133.6l-37.8-3.5 25 47.1 3.4-16.4z"/><path fill="#efdbde" d="M222.2 119.1l-32.2 8.5-4.4 14.1 36.7-43.5z"/><circle r="1" fill="#f9dfe3" transform="matrix(7.06167 -25.4612 114.2659 31.69168 174.5 12.5)"/><path fill="#00111d" d="M77.9 169.1l8.2-68.9 8.9 42.6 37.9 3.9z"/><path fill="#6a6563" d="M204 86h27v6h-27z"/><path fill="#090702" d="M181.3 74l.4 26h-1l-.4-26z"/><path fill="#f5ddde" d="M141.5 98.3l26.4 5.2 7.5-21.6-.2 29.2z"/><path fill="#f7dfe3" d="M187 152h69v52h-69z"/><path fill="#001a26" d="M11.3 71.5l29.8 27 4.4 8.1L50.6 94z"/><path fill="#66615c" d="M182 158h26v2h-26z"/><path fill="#aebab6" d="M8 143h12v7H8z"/><ellipse cx="168" cy="76" fill="#484342" rx="10" ry="2"/></g></g></svg>