<svg xmlns="http://www.w3.org/2000/svg" viewBox="0 0 1080 1080"><defs/><filter id="a"><feGaussianBlur stdDeviation="12"/></filter><rect width="100%" height="100%" fill="#444442"/><g filter="url(#a)"><g fill-opacity=".5" transform="translate(2.1 2.1) scale(4.21875)"><circle cx="85" cy="65" r="255" fill="#fff"/><circle cx="174" cy="108" r="233" fill="#fff"/><circle cx="165" cy="69" r="249" fill="#fff"/><ellipse cx="133" cy="116" fill="#a3a4a2" rx="93" ry="14"/><circle r="1" fill="#fff" transform="rotate(179.9 64.6 32.8) scale(198.46497 30.68783)"/><circle r="1" fill="#fff" transform="matrix(134.61187 3.62195 -.52574 19.53938 153.6 172.5)"/><path fill="#989996" d="M99 193h92v14H99z"/><path d="M20.1 123.2L19.9 97 15 114.6l26.8 18.2z"/><path fill="#a4a5a3" d="M38 218h187v10H38z"/><ellipse cx="114" cy="245" fill="#fff" rx="255" ry="18"/><ellipse cx="81" cy="28" fill="#9b9b99" rx="51" ry="8"/><ellipse cx="84" cy="146" fill="#b1b2af" rx="255" ry="5"/><path d="M206 93h3v36h-3z"/><path fill="#fff" d="M-8 141l171 27L1 234z"/><path d="M91 95h3v33h-3z"/><ellipse cx="240" cy="129" fill="#fff" rx="22" ry="165"/><ellipse cx="154" cy="110" rx="2" ry="17"/><circle r="1" fill="#fff" transform="matrix(.42714 17.47751 -156.03264 3.81336 150.8 4.5)"/><ellipse cx="179" cy="104" rx="2" ry="13"/><path fill="#060603" d="M85.7 94.4l.9 16.5-1.6 20.6-2.3-39.4z"/><path d="M168 97h3v30h-3zm-110 5h9l-15 10zm-3.4 21.9l17.5 3.3-10.1 2.7-7.8-13.3z"/><path fill="#fff" d="M189.1 147l8.2-32.9-19.2-44.9 11.6 164.3z"/><path fill="#71716f" d="M224.5 126.4L180.1 96l45.2 36.8 5.6-4.9z"/><path d="M17 100.4l5 .2-1 19-5-.2z"/><path fill="#fff" d="M109 114h17v103h-17z"/><path d="M123.4 111.7l2.8-.8 4.4 15.4-2.8.8z"/><path fill="#fff" d="M70.6 124.4L55.2 120l4.2-14.4 15.4 4.4z"/><path fill="#222320" d="M63.1 101.7l11.5 9.7 9 16.1-8.9-22.1z"/><path d="M105.3 127.9l-.8.6-7.8-10.4.8-.6z"/><ellipse cx="5" cy="101" fill="#fff" rx="12" ry="133"/><ellipse cx="135" cy="115" fill="#fff" rx="8" ry="10"/><path fill="#4c4d4a" d="M132.8 103.5l25.4.8 9.8 1.8-43.5.6z"/><ellipse cx="150" cy="38" fill="#fff" rx="32" ry="60"/><path fill="#a1a19e" d="M186 143h51v9h-51z"/><path d="M233 107h4v6h-4z"/><circle r="1" fill="#282925" transform="matrix(.95546 -9.2458 1.4929 .15428 199.2 119.2)"/><path d="M178 98h2v30h-2z"/><path fill="#bcbcbb" d="M188 19h50v16h-50z"/><path fill="#fff" d="M169.9 123.1l3-100.8 4.9 103.4-16.5 36.4z"/><path fill="#50504e" d="M240.4 128.1l-24.5.3-.8-25.9 4.2 22.6z"/><path d="M127 190h2v13h-2z"/><path fill="#fefefe" d="M11.6 23.6L153.3 57l-29 57.6-7-9.3z"/><path fill="#fff" d="M194 154h62v65h-62z"/><circle r="1" fill="#fff" transform="rotate(5.1 -2735 1572.5) scale(87.41821 17.50107)"/><ellipse cx="138" cy="135" fill="#fff" rx="153" ry="7"/><circle r="1" transform="rotate(47.8 -101.6 145.9) scale(1 8.95466)"/><circle r="1" fill="#3b3c38" transform="matrix(-1.34688 .54049 -2.56167 -6.38363 43 97.3)"/><path fill="#656563" d="M136.1 202.2l3.4-12.4 4.2-1.7 3 3.6z"/><path d="M82 19h2v15h-2z"/><path fill="#7c7d7b" d="M139.7 131l19.7-20.3-11.5 11.2-22.9 4.2z"/><path fill="#fff" d="M156 107h11v33h-11z"/><path fill="#afb0ae" d="M21 140h72v12H21z"/><path fill="#fff" d="M19.6 67L7.8 73.9l45.5 38.3-5.9 43.1z"/><path d="M118 194h2v12h-2z"/><circle r="1" fill="#fff" transform="rotate(-179 102.5 58.3) scale(2.8403 29.17823)"/><path fill="#fff" d="M21 153h77v64H21zm126-46h6v26h-6z"/><circle r="1" fill="#070704" transform="rotate(61.7 -23 163.9) scale(1 7.27655)"/><path fill="#292926" d="M58.7 105.6l-6.8 6.8 2 8.9 6.8-20.9z"/><path d="M98.4 190.1h1l2.2 17.8h-1z"/><ellipse cx="212" cy="92" fill="#fff" rx="3" ry="48"/><path d="M181.5 205.5v-19h1v19zM98 109h2v12h-2z"/><path fill="#fefefe" d="M109.2 156.7l-14.8-49.5.6 39.3 8.2 70.5z"/><path d="M66 191h10v1H66z"/><path fill="#fff" d="M23.5 92l31.7-65.7 32.8 92-25.1-21.4z"/><path fill="#020200" d="M152 125h9v3h-9z"/><path fill="#525250" d="M31 22h3v15h-3z"/><path fill="#8e8e8c" d="M160 197l-35 6 37 5z"/><path d="M207 93h2v36h-2z"/><path fill="#565654" d="M57.6 30l22-9.8.8 1.8-22 9.8z"/><path fill="#0d0d0b" d="M84 103h3v20h-3z"/><path fill="#fff" d="M101 94l1 25 29 9z"/><path d="M25.2 128l-8.8-12.2 2.4-1.7 8.8 12zm101.2-5l9.7 5.1-.5 1-9.7-5.2z"/><circle r="1" fill="#fff" transform="rotate(64.7 -25.2 167.8) scale(8.03743 9.22125)"/><path fill="#090a07" d="M105 126h11v3h-11z"/><circle r="1" fill="#232420" transform="rotate(-43.6 134.4 20) scale(5.91176 1)"/><circle r="1" fill="#7d7e7b" transform="matrix(1.76882 -1.17297 2.76186 4.16483 125 26)"/><path fill="#fff" d="M121 124h6v93h-6z"/><path d="M189 103.7l.5-.9 9.5 5.5-.5.9zm26.5 20l-2-10.9 3-.5 2 10.9z"/><path fill="#fff" d="M57.7-16L271 9.6 48.5 20.2l12.3 68.9z"/><path fill="#070705" d="M40.7 125l.3 1-13.7 3-.3-1z"/><ellipse cx="250" cy="107" fill="#fff" rx="14" ry="99"/><path fill="#fff" d="M159.6 68.2L52.1 106.1 22.3 65.7l126.3 40.6z"/><ellipse cx="86" cy="219" fill="#787775" rx="50" ry="1"/><path fill="#fff" d="M87 73h4v69h-4z"/><ellipse cx="145" cy="110" rx="2" ry="3"/><path fill="#1b1b19" d="M117 108h4v7h-4z"/><ellipse cx="99" cy="27" rx="1" ry="9"/><path d="M146.2 119l.8.5-7.2 9.6-.8-.6z"/><path fill="#44453f" d="M112 140h2v13h-2z"/><path d="M117 35l1-12h1l-1 12z"/><path fill="#fff" d="M197 113l-10 41-5-45zm8.4-101.4l-38.3 70.7 22.3 22.9 14.9-2.1z"/><path d="M79 121l-5 3 4-11z"/><ellipse cx="40" cy="28" fill="#60605d" rx="2" ry="9"/></g></g></svg>