<svg xmlns="http://www.w3.org/2000/svg" viewBox="0 0 1400 933"><defs/><filter id="a"><feGaussianBlur stdDeviation="12"/></filter><rect width="100%" height="100%" fill="#333250"/><g filter="url(#a)"><g fill-opacity=".5" transform="translate(2.7 2.7) scale(5.46875)"><circle r="1" fill="#fff2bc" transform="matrix(21.19774 109.16117 -250.32397 48.6098 126.4 110.2)"/><path fill="#eecdb1" d="M240.2 159.5L196.9 172l-25-87.4L215 72z"/><ellipse cx="97" cy="160" fill="#3a365f" rx="55" ry="21"/><circle r="1" fill="#dbc1ac" transform="rotate(-72.6 127 -37.4) scale(61.74513 29.8867)"/><circle cx="51" r="56" fill="#7a5f60"/><circle r="1" fill="#cdc3b1" transform="matrix(57.82755 -36.2212 12.75333 20.36083 24.9 90.8)"/><path fill="#a10a2a" d="M212.8 106.8l60.5 7.5-2 16.9-60.6-7.5z"/><circle r="1" fill="#dab07f" transform="matrix(-79.52069 -3.80061 1.15714 -24.21102 216.3 15)"/><circle r="1" fill="#ee8560" transform="matrix(16.9853 -.91826 1.71375 31.69968 159.2 134.1)"/><path fill="#2a233d" d="M32.8-16l58.5 46 18.1-12.8-30-33.2z"/><path fill="#8d5550" d="M169 41h87v27h-87z"/><ellipse cx="78" cy="135" fill="#60596f" rx="23" ry="40"/><circle r="1" fill="#e2d7b8" transform="rotate(-164.5 135.3 62.3) scale(70.95772 14.82695)"/><ellipse cx="99" cy="46" fill="#263367" rx="14" ry="11"/><ellipse cx="105" cy="126" fill="#cbdee6" rx="5" ry="51"/><ellipse cx="10" cy="164" fill="#e2e0e0" rx="5" ry="76"/><path fill="#ffaf86" d="M0 162h57v8H0z"/><ellipse cx="140" cy="80" fill="#ebf3e8" rx="5" ry="34"/><circle r="1" fill="#c8b59e" transform="rotate(124.3 101.8 116) scale(16.82816 55.62761)"/><path fill="#ffecc1" d="M100 22h25v13h-25z"/><circle r="1" fill="#9a8a80" transform="matrix(-31.74334 -7.09531 2.85417 -12.76914 33.2 16.8)"/><path fill="#583141" d="M105.2 21.3L176.7-16h-53l12.7 40.7z"/><path fill="#382e47" d="M68.7 31.4L40.8 48.1 39.1 3.9l2.5 23.3z"/><circle r="1" fill="#413955" transform="rotate(-12.2 800.7 -521.3) scale(11.17686 22.74676)"/><path fill="#eeefbf" d="M158 149h18v15h-18z"/><ellipse cx="159" cy="81" fill="#c08566" rx="13" ry="67"/><path fill="#2c2943" d="M65.7 176.9l108.7-10-65.5 2.3-24.1-17.7z"/><path fill="#43374c" d="M40.2 130l21.2 16.3L85.8 185 49 158.8z"/><path fill="#a8c1c3" d="M70 143h11v16H70z"/><circle r="1" fill="#dbb89b" transform="rotate(-111.1 20.4 10.6) scale(4.00865 55.25661)"/><path fill="#c5c5ba" d="M62.6 117.3l-16.9 8.3 2-40L56 30.2z"/><path fill="#5b525e" d="M3.6 12.2l45.6 63.9-1-88-15.4 77.6z"/><circle r="1" fill="#bd9b7c" transform="matrix(-1.90386 -13.2169 42.78218 -6.16264 152 38)"/><path fill="#726265" d="M208.4 66.3l-4.9-37.9-45.9 28.5L193.4 79z"/><path fill="#cfb38b" d="M201.5 57.9l-40.8 46.2L132 19.8l32.7 56.8z"/><path fill="#6a4b57" d="M168.3 96.3l16 26.5-4.9 23.9-1.1 10.6z"/><path fill="#d7d0c1" d="M31 143L14 97l18-12z"/><circle r="1" fill="#756e77" transform="matrix(-4.741 .78926 -8.21723 -49.35997 41.3 114.4)"/><circle r="1" fill="#907769" transform="matrix(-3.04393 -28.22944 5.57245 -.60087 130.7 47.7)"/><path fill="#533e67" d="M6 118l-2 36-20-50z"/><path fill="#3d374c" d="M0 15h47v7H0z"/><path fill="#b9544b" d="M150.5 85.2l18.9 47.2-15.4 10.1-4.8-23z"/><circle r="1" fill="#eeab7a" transform="matrix(-5.96416 -13.06905 9.87777 -4.5078 113.5 0)"/><ellipse cx="87" cy="96" fill="#a8978b" rx="13" ry="42"/><path fill="#bda78d" d="M68.5 22.5l.1-17.9-29.3 20.7 81.3 11.2z"/><path fill="#503842" d="M231 135h25v5h-25z"/><path fill="#877469" d="M217 166l-44-19 41 37z"/><circle r="1" fill="#9b3f4e" transform="matrix(6.2342 6.58508 -11.98811 11.34935 232 118.4)"/><circle cx="33" cy="158" r="7" fill="#573a5b"/><path fill="#decdb1" d="M197 79l45 27-61-9z"/><path fill="#c7c6be" d="M100 57h17v81h-17z"/><path fill="#c5a088" d="M119 103h29v39h-29z"/><path fill="#4b384f" d="M46 29L13 48l40-4z"/><path fill="#d88296" d="M16 33L-2.2 50.6-16 61.3l34.9-.8z"/><path fill="#b58770" d="M185.2 64l45.5 6.4 33.8-39-43 6.5z"/><path fill="#443a4c" d="M106.1-15.1L59.2-9.4l13.5 31L88.1 32z"/><path fill="#beb097" d="M216.8 120.3l29.2 15.4-68.8-15.2-4.5-39.7z"/><path fill="#7f7683" d="M12 117h13v38H12z"/><path fill="#b7a081" d="M66 91L55 44l62 16z"/><ellipse cx="7" cy="105" fill="#dee8eb" rx="2" ry="36"/><path fill="#4a415b" d="M249.7 53.3l15.7 16.5 5.6-10.4-28.6 12.8z"/><circle r="1" fill="#b89274" transform="rotate(165.9 57.7 54) scale(4.05766 42.741)"/><path fill="#4b495a" d="M168 52l11 20 8-22z"/><path fill="#a29688" d="M11 58l47-16-46 49z"/><path fill="#beb4ac" d="M30.3 111l14.6 38 2.4.6-21.7 2.5z"/><path fill="#6e5a65" d="M159 28V15l-15 4z"/><circle r="1" fill="#c8b18b" transform="rotate(40.7 76.3 299.1) scale(28.54626 15.76732)"/><path fill="#a38a71" d="M207 172l59-1 5-20z"/><path fill="#e5bba0" d="M41 22l-5 14-20-14z"/><path fill="#5e4a54" d="M55.9 142.5L83 86.9l-19.1 68.4-17.6-.5z"/><path fill="#aaacad" d="M107 81h4v87h-4z"/><path fill="#878482" d="M271 109.4l-44.6-41.6 4.6 19-11.9-4.1z"/><circle r="1" fill="#ecfbff" transform="matrix(-1.1052 -17.56652 1.28478 -.08083 29.8 83.2)"/><circle r="1" fill="#927676" transform="matrix(35.3088 40.21837 -3.7943 3.33113 153.5 161.8)"/><path fill="#564f5e" d="M0 15h17v18H0z"/><path fill="#dee6e4" d="M51 58h4v44h-4z"/><path fill="#e3bfa0" d="M138 134.6l-6.2-47.9 16.6 28.4 3.2 25.3z"/><ellipse cx="240" cy="147" fill="#d3c7af" rx="60" ry="9"/><path fill="#594c57" d="M210 37l-18-1 14 23z"/><path fill="#e1e4e6" d="M101 74h5v50h-5z"/><path fill="#d1bd96" d="M128.8 51.5L182 39.6l-17.9-13.2-11.5 48.2z"/><ellipse cx="120" cy="30" fill="#d4c2a3" rx="33" ry="4"/><path fill="#c4b08f" d="M60.4 29.1l-12.9-12L54 9l12.1 3.6z"/><ellipse cx="7" cy="39" fill="#eae2b5" rx="9" ry="4"/><path fill="#3a2d42" d="M133.4 150.2l22.8 30.4-9.6 7.2-22.8-30.4z"/><path fill="#84808a" d="M74 103h28v46H74z"/><ellipse cx="255" cy="76" fill="#e5d7c4" rx="12" ry="5"/><path fill="#988078" d="M158 56l13 34 23-13z"/><path fill="#494e67" d="M85.6 59.1l4.8-11.5L76 18.1l25.9 33.6z"/><path fill="#d5b192" d="M169.2 127.4l-12.4-47.6 20.2 45.7-1.8 10.8z"/><path fill="#a77a71" d="M109.3 44.2l31-27.9-16.7 30.9-16 15.5z"/><circle r="1" fill="#dba78d" transform="matrix(-51.61624 -11.06556 1.27784 -5.9606 28.2 167.8)"/><path fill="#9fa396" d="M8-16L20.8 8.1l-4.3 7.3-1.2 1.4z"/><path fill="#c8ad93" d="M230.9 107.7l-28.7-44.9 33.8 6.1-60 53.4z"/><path fill="#8c7874" d="M57.2 147.4l25.4-63.2-21 12L50 111.5z"/><circle r="1" fill="#a6a39f" transform="matrix(.97639 -.21601 17.4288 78.77913 117.3 130.7)"/><path fill="#af947d" d="M63.2 97.9L75.1 19l11.7 16.1-22.7-2.5z"/><path fill="#554354" d="M103 15h33v6h-33z"/><path fill="#c3ced4" d="M44.9 93.8l2-.2 6.2 50.6-2 .2z"/><path fill="#894955" d="M217 108.3l1.7 26.5 17.6-11.7-23.7-19.8z"/></g></g></svg>