<svg xmlns="http://www.w3.org/2000/svg" viewBox="0 0 1120 1400"><defs/><filter id="a"><feGaussianBlur stdDeviation="12"/></filter><rect width="100%" height="100%" fill="#65433c"/><g filter="url(#a)"><g fill-opacity=".5" transform="translate(2.7 2.7) scale(5.46875)"><ellipse cx="92" cy="217" fill="#f3ffff" rx="115" ry="166"/><ellipse cx="127" cy="107" fill="#2c140a" rx="125" ry="17"/><circle cx="90" r="111" fill="#ac998c"/><circle cx="67" cy="253" r="134" fill="#d1ede1"/><circle r="1" fill="#0f090a" transform="matrix(-6.62512 -17.25902 73.66804 -28.27851 200 105)"/><circle r="1" fill="#2c1f18" transform="matrix(-11.15055 5.3664 -19.76593 -41.07056 81.3 65.3)"/><circle r="1" fill="#91afdb" transform="matrix(-139.55938 58.31636 -16.16991 -38.69691 197 175.1)"/><circle r="1" fill="#e6e1e5" transform="matrix(9.26822 7.69462 -25.37245 30.56127 134.5 94.3)"/><path fill="#3d170b" d="M29.7 79.9l84.9 43.7-116.9-15.2L-16 92.8z"/><ellipse cx="26" cy="160" fill="#f0eda7" rx="77" ry="44"/><path fill="#efffff" d="M75.7 64.7l-31.1-2-17.3 12.6L68 95.5z"/><circle r="1" fill="#43261d" transform="matrix(11.58661 8.2879 -40.28582 56.32021 171.7 86.7)"/><circle r="1" fill="#ffd9ca" transform="matrix(60.56448 -93.63026 4.43598 2.8694 203 0)"/><path fill="#542b1e" d="M20 16h43v38H20z"/><path fill="#f6f8fe" d="M109 65l33-31-21 59z"/><circle r="1" fill="#60261b" transform="rotate(-147.8 88 -8) scale(9.05904 43.06546)"/><circle r="1" fill="#a7bfd2" transform="matrix(-.82449 -26.2357 63.43592 -1.99355 190.5 155.8)"/><circle r="1" fill="#bcb2a5" transform="matrix(1.22431 10.83137 -70.08752 7.92227 60 0)"/><path fill="#fbf4e6" d="M63 265.5l-2.3-14.8L277 216.5l2.3 14.8z"/><path fill="#150c08" d="M92.4 102.5l12.3-26.2-2.1-1.8-29.7-16.6z"/><circle r="1" fill="#621908" transform="matrix(.80359 4.55738 -14.72669 2.59671 135.5 67.4)"/><path fill="#9b8578" d="M90 99l27 47 32-42z"/><circle r="1" fill="#bfb29a" transform="matrix(50.83704 -2.73642 .27041 5.02367 118.6 20)"/><ellipse cx="103" cy="34" fill="#2c3629" rx="33" ry="6"/><circle r="1" fill="#c1d6cb" transform="matrix(-27.57401 -2.85797 1.0176 -9.81783 9.7 119.4)"/><path fill="#dfe8f5" d="M148.3 78.9l-12.9 40.4-32.1-60.6 24.3 14.9z"/><path fill="#726358" d="M15 72.1l70-51.9 10.5 43.1 44.1-14.6z"/><circle r="1" fill="#d0aa9a" transform="matrix(-5.04309 -2.53391 22.76949 -45.3167 147.2 25.8)"/><path fill="#c99d91" d="M11.9 26.3L3.7-16-16 93.5l22-18z"/><path fill="#675d5e" d="M113.3 97.6l24 65.6-4.6-17.8 30.3-11z"/><circle r="1" fill="#9dafca" transform="matrix(120.69931 -40.02677 5.683 17.13686 53.6 231.7)"/><circle r="1" fill="#f7d2c4" transform="matrix(-16.501 35.38652 -3.94069 -1.83757 196 .1)"/><path fill="#cec9c1" d="M82.8 60.6L111 77.1 95.7 59.9l-21.9-7.6z"/><circle r="1" fill="#e2e1b0" transform="matrix(-8.76849 -19.6022 97.16045 -43.46197 33.1 191)"/><path fill="#141513" d="M12.5-5.3l20.9 6.8-1.9 5.8L10.6.5z"/><path fill="#34271c" d="M-16 78.1l30.1 33.5 71.3 10.5-60.1-31.4z"/><path fill="#f1f9ff" d="M67.7 66l1.5 22-26.9 2-1.5-22z"/><path fill="#a86759" d="M82.3 109.7L43.2 85.3 2 39.9l34.3 62.5z"/><path fill="#060a0c" d="M160.7 111l10.5-3.2 47.8 11-32.7 13.4z"/><path fill="#f2f4f9" d="M148.7 79.2l-3.8-3.3 24.4-29 3.8 3.2z"/><ellipse cx="203" cy="89" fill="#53362c" rx="55" ry="18"/><path fill="#bbb6ac" d="M98 86l20 43-3-41z"/><path fill="#f7f4f1" d="M184.3 232.9l34.7-29.7v35.7l-89.3 11.8z"/><path fill="#3c1515" d="M109.6 57.1l-9.7 8.1-1.7-4.8L110 48.1z"/><path fill="#92a4b6" d="M129 145l-20-26-61 3z"/><circle r="1" fill="#d98a73" transform="matrix(-15.88765 25.92629 -3.51236 -2.15238 145.7 98)"/><path fill="#a2b3c7" d="M152.9 240.9l50.3-21.3 1.4-89.2-182.4 93.7z"/><path fill="#5d4f40" d="M66.8 96.9l10.8-20.8 11.3-12.4-3.2 45.8z"/><circle r="1" fill="#d4d07d" transform="matrix(.27624 5.27095 -90.61917 4.74915 169.2 254.9)"/><circle r="1" fill="#211d1b" transform="matrix(-26.58969 .32487 -.05734 -4.69342 75.7 116.3)"/><path fill="#5c5d4c" d="M122.2 2.9L115.5-16l32.2 31.2-106.5 1.3z"/><circle r="1" fill="#756a58" transform="matrix(-10.54773 -17.97817 3.45529 -2.0272 109.3 122.4)"/><path fill="#4c1108" d="M123 67l22 2-16 5z"/><path fill="#4c251d" d="M146.2 67.4l37.7-63.6-7.1 28.3-23.6 32.1z"/><path fill="#8f5546" d="M154.1 17.2L185.7-12l-14.5 39.7L141.5 66z"/><path fill="#291c17" d="M207 53l-33 15-17 60z"/><path fill="#e5e4e9" d="M107.7 57.5l12.7 36.3.3-25.1 24.7-12.5z"/><path fill="#3b4544" d="M73 60l-5 15 15-9z"/><path fill="#4d3323" d="M120 104.5l15.5 29.1-3.5 2-15.5-29.2z"/><path fill="#e2eff9" d="M119 74h27v13h-27z"/><circle r="1" fill="#b87a69" transform="matrix(-3.72682 -2.75107 29.10248 -39.42452 188.6 33.5)"/><path fill="#bbb0a2" d="M117.1 4.1l-82 1.6L39 22.9l20.3-37.3z"/><path fill="#56382f" d="M219 34.4l-17.2-6.3-7-2.2-64.2 119.5z"/><path fill="#5f3d32" d="M30 69.1l35.2-50.6-43 50.5L40 85.3z"/><path fill="#526b80" d="M137 132l35-11 17 9z"/><path fill="#4b483f" d="M88.6 53.8l-17.5-9.1 80.1-16L108 27z"/><ellipse cx="110" cy="157" fill="#dcdeaf" rx="20" ry="18"/><path fill="#8c897c" d="M122 55l-35-6 52-7z"/><path fill="#a6b6c8" d="M2.8 124.7l27.9-13.4-46.7-.1V91.4z"/><path fill="#5a362c" d="M31 32L56 9l20 25z"/><path fill="#613b2f" d="M9 91l2-20 57 44z"/><path fill="#e0ebfa" d="M71 86l5-13-27 16z"/><path fill="#271a15" d="M176.3 89l14.3 28.6-45.1 10.4-15.4 15.8z"/><ellipse cx="162" cy="221" fill="#96a7c3" rx="27" ry="15"/><path fill="#a4796c" d="M12 74.5l2.2-35.3 32.9-41-54.2 22.5z"/><path fill="#898a82" d="M47.9 47.4l18.4 14.3-42.6 10.2 2 6.8z"/><path fill="#c29486" d="M145.9 62.4l-22.2 6 56-84.4-44.6 52.6z"/><path fill="#a46c64" d="M81.4 107.6L63 92.9 30.4 82.3l25.8 21.6z"/><path fill="#887f7a" d="M111 72l7 16-22 13z"/><path fill="#66829d" d="M138.9 143.9l-8.3-8.1.3 2.5 88.1-13.6z"/><path fill="#a9a08e" d="M112.6 15.8l-46.8 11 88-1.6-34.2-14.5z"/><path fill="#362120" d="M96.7 104.5l-16-7.7 24-17.3-9.1-12.7z"/><path fill="#e1e2e4" d="M65 122h35v3H65z"/><path fill="#66483d" d="M219 47.3l-35.8 42.3 1.1 11.6 24.5-1.1z"/><path fill="#441a19" d="M104 63l5-12-12 7z"/><path fill="#74625f" d="M127 132l6-27-10 5z"/><ellipse cx="190" cy="168" fill="#a9b9cb" rx="62" ry="36"/><path fill="#c2a195" d="M6.4 70.3L2.1 28.8-13 26.7l-3 62.9z"/><path fill="#9f938a" d="M104 103l1 16-24-18z"/><path fill="#c3ac9b" d="M157 3.9l-46.3-7.1L180.6-16l-44.1 52.2z"/><circle cx="97" cy="52" r="5" fill="#e1bba9"/><path fill="#2e1c1c" d="M98.2 115l-8.1 3.1-4.4-1.4L73.9 100z"/><path fill="#daeaf6" d="M142 74l3 11 21-33z"/><path fill="#d5cdc3" d="M81.1 56.1l6 4.6 16 10.4-3.4-8.3z"/><circle r="1" fill="#ccd0cf" transform="rotate(-101.1 138.7 96.7) scale(6.27342 57.93238)"/><path fill="#7f5c50" d="M60 18l-2 46 18-10z"/><path fill="#89574b" d="M219-4.3L143.9 98l-11.3 41.4 31-55.4z"/><path fill="#3f4f5a" d="M219 131.8l-65.5-.3 62.6-7.1-2.9-10.7z"/><ellipse cx="26" cy="132" fill="#d2d5aa" rx="39" ry="15"/><path fill="#b7cbdf" d="M138 88l-18-2 7 26z"/></g></g></svg>