<svg xmlns="http://www.w3.org/2000/svg" viewBox="0 0 1120 1400"><defs/><filter id="a"><feGaussianBlur stdDeviation="12"/></filter><rect width="100%" height="100%" fill="#57352e"/><g filter="url(#a)"><g fill-opacity=".5" transform="translate(2.7 2.7) scale(5.46875)"><circle r="1" fill="#eafeff" transform="rotate(-119.3 120 46.8) scale(106.48489 203.00001)"/><circle r="1" fill="#fff" transform="rotate(90.5 -69.3 160.6) scale(38.49145 184.99313)"/><circle r="1" fill="#64515c" transform="rotate(-172.7 42.8 52.2) scale(129.53226 86.93033)"/><circle r="1" fill="#ffb994" transform="matrix(16.17196 -17.74837 52.38947 47.73626 26.4 83.5)"/><path fill="#f9ffff" d="M180 18h24v68h-24z"/><circle r="1" fill="#053665" transform="matrix(1.15319 -26.68024 57.00998 2.46411 27.3 166.5)"/><path fill="#001f43" d="M75 44l108 1-37 63z"/><ellipse cx="82" cy="230" fill="#fff" rx="120" ry="39"/><circle r="1" fill="#d37a58" transform="matrix(7.69012 -50.84853 34.8857 5.27597 151.4 151.2)"/><ellipse cx="104" cy="102" fill="#2f6094" rx="23" ry="53"/><path fill="#001123" d="M29.4-39.2L69.4-3 20.7 51.2l-40-36.1z"/><circle r="1" fill="#df8a6f" transform="matrix(15.98099 -32.0529 27.66782 13.79466 42 106)"/><ellipse cx="99" cy="182" fill="#012644" rx="37" ry="7"/><circle r="1" fill="#fff" transform="matrix(-18.91885 -14.1483 21.1395 -28.26735 182.2 221.2)"/><path fill="#fff" d="M15 48l-30 27-1-56z"/><circle r="1" fill="#234a7d" transform="matrix(-13.49842 41.4114 -17.14172 -5.5875 203 136.2)"/><path fill="#d8f5fe" d="M192.7 25.9l38.7 18.8-24.1 49.4-38.7-18.8z"/><circle r="1" fill="#6b8ebb" transform="matrix(-94.8169 -8.38451 .69961 -7.91159 15.4 169.2)"/><path fill="#0f428b" d="M219 211.4l-44 59.5 9-6.2 17.2-4.3z"/><path fill="#3e6796" d="M57.4 226.7L9.1 271l15.7-8.6 59-55.1z"/><path fill="#151a21" d="M166 91l-62-59 74 12z"/><path fill="#000412" d="M20 146L-7 59l-9 74z"/><path fill="#b66c4d" d="M66 9.7l13 32.5-25 10-13-32.4z"/><ellipse cx="180" cy="101" fill="#cc6a45" rx="18" ry="21"/><path fill="#f6cbbe" d="M114.3 152l19.7 11.8 4.9 9.1-37-1.5z"/><path fill="#984f31" d="M84 111l-55 29 58 15z"/><ellipse cx="10" cy="185" fill="#15283d" rx="85" ry="7"/><circle r="1" fill="#00243b" transform="rotate(111.1 88.8 60.9) scale(15.2572 36.48197)"/><path fill="#426488" d="M177 69L46 57l68 70z"/><path fill="#011e37" d="M138.7 134.8l-5.8-1.9-3.9 27.9 13.8-19.6z"/><ellipse cx="118" cy="255" fill="#fcfffc" rx="71" ry="41"/><circle r="1" fill="#83827b" transform="matrix(-1.51896 3.85642 -72.7106 -28.63907 176.6 18.4)"/><path fill="#6a8eb2" d="M105.7 188.7l-35.5 32.6 32-42.8-7.7-36.2z"/><circle r="1" fill="#a67b6a" transform="matrix(-28.4608 12.61191 -8.70773 -19.6504 154 181.4)"/><circle r="1" fill="#00060c" transform="rotate(-110.1 18.2 -5.8) scale(9.2845 37.62247)"/><path fill="#30343e" d="M101.8 187.4l20.7-7.3L8.3 148.4 63 134.1z"/><path fill="#1f3849" d="M69 78L29 14 14 46z"/><path fill="#db9079" d="M148.9 109.7l36.7-32.2-17 50.3-40 58.7z"/><path fill="#f9ffff" d="M16 42H-4l-12 38z"/><path fill="#b77863" d="M46.2 65.4l52.9 116.8-12.9-45.7-5.8-42.6z"/><path fill="#2d4769" d="M82 131l34 9-12 28z"/><circle r="1" fill="#1b1d1d" transform="matrix(-39.00145 8.48043 -.93302 -4.29095 89.7 52.3)"/><path fill="#d8e0ed" d="M198 181.8l21-11.2-36.3-3.6 34.6-4.3z"/><path fill="#925a49" d="M28 96l-13.8 11.6L-14 74-.2 62.4z"/><path fill="#74432e" d="M65.2 19.6l51.6-15.8 10 32.6-51.6 15.8z"/><path fill="#adc0c0" d="M137.6 207.1l-55.4-14.4 29.6-6.3 57.8 18.9z"/><path fill="#d6e4e7" d="M172 75l12-44 24 59z"/><path d="M175 59l-1-13-39 3z"/><circle r="1" fill="#e1a08f" transform="matrix(16.97683 29.7933 -7.9024 4.50295 51.7 97)"/><path fill="#e5957a" d="M139 116.2L127.2 146l-10.2-4.1 12-29.7z"/><path fill="#30465f" d="M157.6 96L70.2 52.1l78.8 2.5L173.1 84z"/><path fill="#2f5c90" d="M181 182h23v6h-23z"/><ellipse cx="59" cy="189" fill="#607a96" rx="44" ry="4"/><path fill="#f8fbfa" d="M177 192h27v42h-27z"/><path fill="#040e12" d="M104 174l15 1 14 17z"/><ellipse cx="36" cy="182" fill="#0d171e" rx="59" ry="3"/><path fill="#e6a087" d="M159.4 158.3l-16.5 20-8.5 15 22.8-17.7z"/><path fill="#c17f6b" d="M12 38l2 93 47 12z"/><path fill="#3d474c" d="M199.7 15.6l-42 37.7 38.7-41-2.6 32.3z"/><path fill="#7796c2" d="M19.2 139.3L-16 171.5l109.2 3.3L-16 162.7z"/><circle r="1" fill="#f6faf5" transform="matrix(8.64069 13.56316 -47.1609 30.04481 21.6 235.1)"/><path fill="#6f4b41" d="M205.7 97.3l-14.3-12.2 3.4 6.1-23 61.9z"/><path fill="#364a62" d="M193 57.7l-66 10.4 33.4 31.3 17.3-44.6z"/><path fill="#000e18" d="M-16 144.9v-29.1l39.3 23.6z"/><circle r="1" fill="#526a89" transform="matrix(6.7158 -16.539 40.2011 16.32397 107.5 86.3)"/><path fill="#323d4a" d="M41 64.6l2.8-36.9-59.8-5.8L9.7 42.1z"/><path fill="#efffff" d="M181 178h23v3h-23z"/><path fill="#3589a5" d="M181 45h18v3h-18z"/><path fill="#1b3147" d="M138 153l1-20-16 28z"/><path fill="#7b655c" d="M152 198l-28-10 47 3z"/><path fill="#edab98" d="M150 134l6.5 4.6-18.4 27.3-6.6-4.5z"/><path fill="#48291c" d="M84 45l78-24v26z"/><path fill="#a66a58" d="M183.9 115.4l-37.1 47.4 37.4 21.4.7-21.5z"/><path fill="#93b6dc" d="M100 166v21l7-23z"/><path fill="#f8faf9" d="M204.2 82.8l14.8 1.4-50.2-5.7 12.4-10z"/><path fill="#eceeef" d="M197 25h7v22h-7z"/><path fill="#40a2bf" d="M180.8 67.8l.3-1 22.1 9.4-.3 1z"/><path fill="#806860" d="M181 34l8-17-24-5z"/><path fill="#5f779a" d="M122.5 105.5l-32.3 17.4-7.3-51.1 54.7 31.4z"/><path fill="#302217" d="M161.4 25.6l-45-8.5L120.2-9l-31.7-7z"/><path fill="#cbd3d0" d="M-16 196.5l72.2-5.8 31.1 6.8-84.2 1.9z"/><path fill="#b77961" d="M68.9 134.8l12.8-5.7L95 159.2 82.3 165z"/><path fill="#2e3c4f" d="M79.9 170.5l-44.8-39.4 2.8 31.6-.1.4z"/><path fill="#405c8b" d="M181 170h23v8h-23z"/><path fill="#96604f" d="M93.2 37.8L37.8 15.1l12.6 32.5 32.9-32z"/><path fill="#ce8770" d="M5.2 60.2l12.7-5.6 35.8 15.3L67.9 98z"/><path fill="#52719d" d="M186 271l6-27 27-24z"/><path fill="#3a567a" d="M23 191l-34 3-5-13z"/><circle r="1" fill="#5b789e" transform="matrix(-.67534 -.7375 83.90702 -76.8337 29.7 255)"/><path fill="#456186" d="M-5 161l21-26 12 33z"/><path fill="#324963" d="M108.5 49.9l-44.4 9.9-12 7.9 16.8 17.6z"/><path fill="#ffe7d0" d="M110 156h9v7h-9z"/><path fill="#b57b6a" d="M123.9 114.7l5.1 37.1 22.9-56.1-39.8 58.1z"/><path fill="#316383" d="M189.2 57.3l.4-.9 25.2 12.3-.4.9z"/><path fill="#304b68" d="M187 134l32-83v56z"/><path fill="#416283" d="M175.6 77.5l17.2 8-.4 1-17.2-8z"/><path fill="#5a769a" d="M19 173h80v7H19z"/><path fill="#e0ffff" d="M-1.1 34.8l15 11.7L7 55.2-8 43.5z"/><path fill="#91604d" d="M129.7 190.5l-4.2-9.4 24.3-20.8 7.8 1.2z"/><ellipse cx="3" cy="180" fill="#00060c" rx="15" ry="3"/></g></g></svg>