<svg xmlns="http://www.w3.org/2000/svg" viewBox="0 0 1120 1400"><defs/><filter id="a"><feGaussianBlur stdDeviation="12"/></filter><rect width="100%" height="100%" fill="#414138"/><g filter="url(#a)"><g fill-opacity=".5" transform="translate(2.7 2.7) scale(5.46875)"><circle r="1" fill="#fff" transform="rotate(-92.7 111.1 16.8) scale(163.05321 168.7909)"/><circle r="1" fill="#1d1404" transform="matrix(-14.60146 -63.24585 35.11011 -8.1058 104.3 144.4)"/><ellipse cx="116" cy="239" fill="#fff" rx="203" ry="35"/><path fill="#ffffe5" d="M-3.9-46.2L89-31.5 59.9 152.2-33 137.5z"/><circle r="1" fill="#e2e7c9" transform="rotate(136.9 78.9 50.3) scale(64.75079 142.77441)"/><circle r="1" fill="#44581c" transform="matrix(-15.1089 4.03873 -7.66443 -28.67268 90.2 62.6)"/><ellipse cx="22" cy="206" fill="#dee7f7" rx="41" ry="40"/><ellipse cx="94" cy="249" fill="#fff" rx="203" ry="23"/><path fill="#320d00" d="M150.2 218l-.5 10-38-2 .6-10z"/><path fill="#150e20" d="M64 122l75 84-71-35z"/><path fill="#c4bc91" d="M56-7L44 135l40-16z"/><path fill="#fff" d="M140 169h64v13h-64z"/><ellipse cx="88" cy="194" fill="#4e4357" rx="56" ry="10"/><circle r="1" fill="#e5f2ff" transform="matrix(29.72716 6.3187 -8.01535 37.70927 23 27.6)"/><path fill="#6d4a25" d="M-12.3 168l-.4-11 85-3 .4 11z"/><ellipse cx="199" cy="154" fill="#6c5a36" rx="72" ry="7"/><circle r="1" fill="#7b8159" transform="rotate(-22.7 373 -242.3) scale(23.12317 49.68678)"/><path fill="#fbf6f2" d="M0 175h82v11H0z"/><ellipse cx="171" cy="211" fill="#f8ffff" rx="65" ry="6"/><path fill="#7d8869" d="M139.7 33.3l32.9 3.5-2.3 21.9-32.9-3.5z"/><path fill="#3c272a" d="M65.5 176.5l11-51.8-4 58.4-8.1 5.8z"/><path fill="#d2d6d4" d="M92.5 127.7L64.1 121l-.3-137 15 139.2z"/><path fill="#413b4c" d="M92 176h50v31H92z"/><path fill="#eaead2" d="M63 0h74v27H63z"/><path fill="#94953c" d="M117 0h6v65h-6z"/><path fill="#4f719c" d="M43.4 200l-57.7-6 .9-8 57.7 6z"/><circle r="1" fill="#2a1819" transform="matrix(-9.87327 4.14376 -12.27045 -29.23664 103.8 171.2)"/><circle r="1" fill="#4f596a" transform="rotate(-171.4 24.7 105.1) scale(114.4668 1)"/><path fill="#afae7c" d="M89.6-8.6v58.5l19.3 30-9.2-91.5z"/><path fill="#b8786a" d="M74.3 200.4l-2-3.5 67.4-37.3 2 3.5z"/><circle r="1" fill="#3e5027" transform="rotate(-97.1 86.4 6.2) scale(37.61964 8.85488)"/><circle r="1" fill="#b1ad7e" transform="matrix(-.18193 -8.27583 42.9663 -.94456 41.3 73.6)"/><path fill="#839dcd" d="M150 217h54v8h-54z"/><circle cx="179" cy="94" r="41" fill="#c7c4be"/><path fill="#ccccd1" d="M151.9 197.8L132.3 164l21.4-3.6 7.9-3.5z"/><circle r="1" fill="#c8ae8a" transform="matrix(-.93021 -10.4057 69.0153 -6.1696 15 101.9)"/><ellipse cx="191" cy="191" fill="#889eb7" rx="52" ry="13"/><circle cx="128" cy="187" r="9" fill="#7980a7"/><path fill="#b16f74" d="M111.8 115.5l15.1 63.5-27.3-49.2 15-1z"/><path fill="#e0eaea" d="M120 24.1L104-16l.9 31.3 1.2 56.7z"/><ellipse cx="175" cy="19" fill="#ddddce" rx="9" ry="78"/><circle r="1" fill="#d9e8ff" transform="matrix(81.16568 11.22691 -.60147 4.34835 35 203.9)"/><path fill="#c0a484" d="M0 140h53v18H0z"/><ellipse cx="58" cy="5" fill="#ada85b" rx="3" ry="104"/><path fill="#d6dadd" d="M36 166h27v26H36z"/><path fill="#8a9777" d="M120 122l21-51 7 19z"/><path fill="#e0f0ff" d="M182 205h22v15h-22z"/><path fill="#4f5f3d" d="M100.7 118.7l27.8 30.3 15.1 15.2-1.2-43z"/><circle cx="75" cy="134" r="12" fill="#2b2b2e"/><path fill="#a2995b" d="M156 0h3v123h-3z"/><path fill="#272224" d="M135.2 165.7l-4.9 11.1-32.1 28 2.9-19.1z"/><path fill="#4f5c3d" d="M96.5 123.4L70.6 58.8l10.5-8.9L107.2 89z"/><path fill="#dce8ec" d="M120.6-16l5.9 71.9 7.6-17.2 6.7-24.7z"/><path fill="#818196" d="M111 207l-32-2 9-14z"/><ellipse cx="191" cy="230" fill="#f6f5f5" rx="41" ry="7"/><circle r="1" fill="#f0eeed" transform="matrix(2.3336 -12.9696 106.45012 19.1534 77.8 235)"/><path fill="#ab9f80" d="M144 135h35v19h-35z"/><path fill="#dcd0c4" d="M22 62L9 134l60 20z"/><path fill="#f2f2f4" d="M194 175l-52-6 1 14z"/><path fill="#dee8e9" d="M5 83h67v7H5z"/><path fill="#a8b797" d="M124.3 61.4l-6.4 40.6-22.8-62.4-9.5 10.9z"/><ellipse cx="3" cy="171" fill="#b1a594" rx="47" ry="5"/><path fill="#996055" d="M77.6 153.6l9.1-20.8 17.2-3.7L81.8 154z"/><path fill="#251b0a" d="M134 219h13v6h-13z"/><path fill="#aa9889" d="M104 224l38-7-35-4z"/><path fill="#909291" d="M214-16h-45.8L219 26.5l-35.2-10.7z"/><circle r="1" fill="#cbd3dd" transform="rotate(96.1 -43.7 124.8) scale(8.86156 4.75473)"/><path fill="#7f8867" d="M77.3 26.7l25.4 16.1-2.9-19.9-28.4 34.4z"/><path fill="#868f9e" d="M66.4 215.6l-.6 4-52.2-9.2.6-4z"/><path fill="#849ab3" d="M18 187h43v12H18z"/><path fill="#f1fbff" d="M164.4 218.2l-56.1-8.8 40.7-1.9 70-4.1z"/><path fill="#764d42" d="M66 159h6v37h-6z"/><path fill="#f9dca8" d="M141 194h40v3h-40z"/><path fill="#202a3a" d="M62.4 135.7l38.3 42.7-13.6 7.1L73 166.1z"/><path fill="#070e0f" d="M113.8 189.2l18.1 16.7L95 190.4l12.4-4.2z"/><path fill="#c6be7c" d="M139 0h12v34h-12z"/><path fill="#63714b" d="M75 99l34-12 2-21z"/><circle cx="56" cy="96" r="6" fill="#908940"/><path fill="#776c5a" d="M176.4 143l53-1 .2 17-53 1z"/><path fill="#f8ffff" d="M-16 174l7 13 39-2z"/><path fill="#5a2829" d="M95 136h15v18H95z"/><circle r="1" fill="#898e9b" transform="matrix(46.21358 6.74183 -.34053 2.33426 99.6 220.9)"/><path fill="#c1d0d2" d="M103 41h12v29h-12z"/><path fill="#6d5440" d="M-16 168l17-17 16 14z"/><path fill="#868579" d="M79.7 73.9l-5.1 29.7 2.6 22.4 12.2 6.2z"/><path fill="#2f3446" d="M134 175h7v29h-7z"/><ellipse cx="183" cy="165" fill="#bbb0a7" rx="52" ry="5"/><path fill="#a5967a" d="M45.2 142.4l1.5-4.7 18.1 5.9-1.5 4.7z"/><path fill="#d9e6e2" d="M125 66h7v24h-7z"/><ellipse cx="56" cy="123" fill="#ae9f89" rx="15" ry="3"/><circle r="1" fill="#8196b8" transform="matrix(-.55154 -3.26088 27.28738 -4.61532 165.3 201.5)"/><path fill="#7a876e" d="M166 52l8-10-34-1z"/><path fill="#dce5e8" d="M12 0h41v65H12z"/><ellipse cx="104" cy="206" fill="#8c9fc7" rx="21" ry="3"/><path fill="#c2c6cd" d="M187 19h17v76h-17z"/><path fill="#b6ac9d" d="M170.6 171l-20-15.9-13.1-6.9 13.4-2.7z"/><path fill="#8b997a" d="M146 110l-37-3 46 22z"/><ellipse cx="91" cy="203" fill="#5a5763" rx="20" ry="3"/><path fill="#efe6d8" d="M71 194l-5 4h6z"/><path fill="#f2f2ef" d="M27 174h38v11H27z"/></g></g></svg>