<svg xmlns="http://www.w3.org/2000/svg" viewBox="0 0 1400 933"><defs/><filter id="a"><feGaussianBlur stdDeviation="12"/></filter><rect width="100%" height="100%" fill="#564a42"/><g filter="url(#a)"><g fill-opacity=".5" transform="translate(2.7 2.7) scale(5.46875)"><circle r="1" fill="#fff" transform="matrix(-7.49384 254.88986 -126.80533 -3.72812 67.1 101.4)"/><circle r="1" fill="#191804" transform="matrix(9.23245 51.5325 -30.41413 5.44893 101 87.8)"/><ellipse cx="84" cy="161" fill="#fff" rx="111" ry="24"/><ellipse cx="239" cy="100" fill="#a59c9e" rx="21" ry="169"/><circle r="1" fill="#f3f1d5" transform="rotate(-125.3 22.7 10.6) scale(62.82666 48.4642)"/><ellipse cx="161" cy="27" fill="#d4dccd" rx="31" ry="59"/><path fill="#4e4a40" d="M134.2 139.2l-52.6 3.6-7.5-124.5L84.2-9.8z"/><path fill="#deeafa" d="M0 114h65v56H0z"/><ellipse cx="22" cy="103" fill="#5b3f2a" rx="116" ry="6"/><path fill="#331703" d="M102 149h33v7h-33z"/><ellipse cx="163" cy="143" fill="#fff" rx="30" ry="5"/><circle r="1" fill="#deeef8" transform="matrix(-4.614 -17.46557 53.3111 -14.08358 25.6 12.2)"/><path fill="#566383" d="M-1 127.4l81-4.4-1.8-.4 4.1 18.2z"/><path fill="#f3f6f8" d="M201.1 116.3L119.4 104l14.9 15.3 20.9.8z"/><path fill="#191528" d="M70 107l50 33-54-72z"/><path fill="#766549" d="M105 93h91v11h-91z"/><circle r="1" fill="#b5c4a2" transform="rotate(73.2 41 99.1) scale(46.54838 22.28027)"/><path fill="#b2a767" d="M58 0h9v78h-9z"/><ellipse cx="98" cy="164" fill="#fdfcfb" rx="93" ry="10"/><circle r="1" fill="#8895a9" transform="rotate(-80.6 105.9 47.3) scale(2.95044 48.453)"/><circle r="1" fill="#464342" transform="matrix(-11.65275 -41.9489 15.73078 -4.36977 255 17.2)"/><path fill="#49463c" d="M191 0h12v165h-12z"/><circle r="1" fill="#828162" transform="matrix(-20.11033 8.8872 -11.35465 -25.69377 118.4 81.4)"/><path fill="#d5c1a2" d="M0 51h84v24H0z"/><ellipse cx="141" cy="13" fill="#738163" rx="11" ry="9"/><ellipse cx="182" cy="12" fill="#cdd0d5" rx="9" ry="82"/><path fill="#fffffe" d="M65.6 123.7l-47 1.6-.2-9 47-1.6z"/><path fill="#486026" d="M97 15l-21 8 17 53z"/><ellipse cx="119" cy="143" fill="#def2ff" rx="72" ry="4"/><path fill="#c7b18e" d="M7 88h63v12H7z"/><ellipse cx="157" cy="151" fill="#70798a" rx="84" ry="3"/><path fill="#2c1d2a" d="M109.8 130.7l6.1-14.7-49.3-3.2 33.7-29.3z"/><path fill="#6a4437" d="M70.2 101.6L69.1 83l6.6 33.1-8.1 22.1z"/><path fill="#cbdee5" d="M116 0h11v44h-11z"/><circle cx="78" cy="120" r="4" fill="#fff"/><path fill="#f3f6f8" d="M157 154h35v16h-35z"/><path fill="#6a8dc1" d="M186 138l6-20-53 19z"/><path fill="#e8f3fa" d="M100 0h9v22h-9z"/><path fill="#e0dfde" d="M131.6 115.3l62.5-6.7-58.4 17-19.4-25.5z"/><path fill="#21274d" d="M124.3 130.4l-27.5 9.5 31.5-2.7-.2-22z"/><path fill="#bcb887" d="M11 29h62v13H11z"/><path fill="#a07063" d="M65.7 133.5l15 2.2 33.7-22.5 64.3-32.3z"/><path fill="#6b533e" d="M109 151h28v7h-28z"/><ellipse cx="120" cy="126" fill="#7275ae" rx="6" ry="8"/><path fill="#0a050b" d="M112.8 131.6L98 134.1l-4.5-7.8 15.7-5.9z"/><path fill="#dbd2c8" d="M72 59l-88 16 79 22z"/><ellipse cy="50" fill="#a39b6a" rx="20" ry="5"/><path fill="#dbecff" d="M177.4 138.9l-72.6 7.3 67.5 6.6 20.3-14.6z"/><path fill="#ae9670" d="M8.7 78.6l10 9.1 59.2 18.4-93.9-9.5z"/><path fill="#a8656b" d="M105 76.6l17.5 31.5-9.6 5.3L95.5 82z"/><circle r="1" fill="#435831" transform="matrix(6.40607 -2.56396 5.9903 14.9668 120 85.5)"/><path fill="#524b41" d="M192 68h27v102h-27z"/><path fill="#cfdbd7" d="M76.1 41.5l-84.4 5 90 2.3L65.6 4.4z"/><path fill="#e5ecf2" d="M130 112h62v8h-62z"/><path fill="#779057" d="M92 20l9 51 5-36z"/><ellipse cx="238" cy="81" fill="#908682" rx="10" ry="46"/><path fill="#9f9780" d="M132 83h27v28h-27z"/><path fill="#dfe0d7" d="M149 23h13v36h-13z"/><path fill="#f0ece8" d="M-37 164.2l4.6-29.6 121.5 19.2-4.7 29.6z"/><ellipse cx="61" cy="53" fill="#8f853c" rx="5" ry="6"/><path fill="#c6cee1" d="M104 156l7-11-30-6z"/><ellipse cx="6" cy="121" fill="#fffffc" rx="20" ry="5"/><ellipse cx="148" cy="100" fill="#5c523b" rx="35" ry="2"/><path fill="#d6cfc8" d="M34 108h36v12H34z"/><path fill="#e3f2ea" d="M77.4 6.2l-.8 12-6-.4.8-12z"/><ellipse cy="106" fill="#6c573c" rx="45" ry="4"/><path fill="#9da468" d="M81-16l15 52 7-52z"/><path fill="#d6e3f9" d="M131.7 147.5L-8.9 127.3l-7.1 6.3 43 7.9z"/><path fill="#625d5c" d="M219 0h10v42h-10z"/><path fill="#b8d1f6" d="M192 146l-1-14-28 21z"/><circle r="1" fill="#9f9495" transform="matrix(-13.26526 32.99837 -6.21246 -2.4974 255.1 155.6)"/><path fill="#9fabb5" d="M149.7 84.5l-16.4 34.2 33.4 10.5-40.7 12.1z"/><path fill="#828e77" d="M121.8 53V38.3l10 3.9-24.5 49.6z"/><path fill="#505e3c" d="M84 73l19-17L79 7z"/><path fill="#5f6775" d="M-21.8 134.4L80 150.6l-.1 1L-22 135.4z"/><path fill="#242629" d="M69 78h14v15H69z"/><path fill="#b4a89c" d="M71.7 59.3l24.2 27.6L59.3 61l6.6 26.1z"/><path fill="#b9afa6" d="M128.4 96l19.1 9.2L130.9 64l54.2-12.2z"/><path fill="#8c903a" d="M109.4 25.8l3.2-45.9 4 .3-3.2 45.9z"/><path fill="#dae1ea" d="M7 0h53v28H7z"/><ellipse cx="111" cy="168" fill="#ecedef" rx="49" ry="13"/><path fill="#b86d5f" d="M91 82L80 99l2-9z"/><path fill="#f3f3f3" d="M77 111l-2 7 5-1z"/><path fill="#e1e5e3" d="M181 66h9v17h-9z"/><ellipse cx="216" cy="103" fill="#363127" rx="2" ry="126"/><ellipse cx="103" cy="139" fill="#67729c" rx="22" ry="2"/><path fill="#e4e4ce" d="M85.3 4.4L116.2-16l-9.1 25.6-31.8-25.3z"/><path fill="#625052" d="M75.7 139l9.3-1.1-15.8-18.4.7-3.2z"/><ellipse cx="121" cy="133" fill="#2d2e44" rx="8" ry="6"/><ellipse cx="167" cy="121" fill="#7894ae" rx="20" ry="3"/><path fill="#fff8d5" d="M42 126h12v2H42z"/><path fill="#88846e" d="M127.5 84.4l52 10.6-14.8-10.8 48.4.9z"/><path fill="#301f0f" d="M125 155l1-6 9 3z"/><path fill="#15161e" d="M110 108l-19-7-1 21z"/><path fill="#97b0da" d="M137 148h26v7h-26z"/><path fill="#a59970" d="M141 7h3v68h-3z"/><path fill="#cecab5" d="M157 42l-29 21 8-48z"/><path fill="#5d554c" d="M192 118h24v52h-24z"/><path fill="#dde2dc" d="M33.6 38.4l-21.4 9 32.5 1.4L19.3-2.3z"/><path fill="#6e4a44" d="M69 103h5v26h-5z"/></g></g></svg>