<svg xmlns="http://www.w3.org/2000/svg" viewBox="0 0 1400 933"><defs/><filter id="a"><feGaussianBlur stdDeviation="12"/></filter><rect width="100%" height="100%" fill="#583931"/><g filter="url(#a)"><g fill-opacity=".5" transform="translate(2.7 2.7) scale(5.46875)"><circle r="1" fill="#e4fee8" transform="matrix(-237.41923 -93.04358 36.28772 -92.59534 56.2 109)"/><circle r="1" fill="#250709" transform="rotate(-174 79.5 37) scale(86.89105 24.31935)"/><circle r="1" fill="#f6ffd3" transform="rotate(-57.6 135 30.8) scale(57.10589 179.05971)"/><circle cx="111" r="99" fill="#846760"/><circle r="1" fill="#afcff1" transform="rotate(-28.2 355.1 -449.4) scale(67.60284 30.26244)"/><path fill="#572314" d="M70.1-16.1L98.4-3.5 64 74 35.6 61.5z"/><circle r="1" fill="#759cd0" transform="matrix(-8.37134 -19.43805 76.7639 -33.05976 164.2 138)"/><circle cx="90" cy="48" r="15" fill="#f9ffff"/><path fill="#e7bdb4" d="M132 92.8l28.9-58.3-33.7 33.9L235.5-16z"/><path fill="#0b080d" d="M128 85h108v22H128z"/><circle r="1" transform="matrix(-20.13779 15.90386 -10.14443 -12.84508 168.5 18.7)"/><circle r="1" fill="#c9b39a" transform="matrix(-4.7745 17.9439 -27.559 -7.33288 133.5 4.6)"/><path fill="#f7ffff" d="M0 45h36v24H0z"/><circle r="1" fill="#474138" transform="rotate(-108.3 13.5 10.3) scale(18.99005 27.16906)"/><path fill="#fffff9" d="M224 153l29-8 4-53z"/><path fill="#3d2725" d="M176.7 103.4L246.8-16 132.3 97.4l-3.3 31.4z"/><path fill="#c8eaff" d="M134.5 34.7l38.9 7.7-38 13.4 1.3 37.4z"/><path fill="#dade9f" d="M0 94h126v53H0z"/><path fill="#cf9581" d="M200 22.9l-9.7-22L226-14.8l9.8 22z"/><ellipse cx="216" cy="169" fill="#cad164" rx="82" ry="18"/><path fill="#503020" d="M45 44l71.9 27.5-7.9 20.6-71.9-27.6z"/><circle r="1" fill="#fff" transform="matrix(-31.04989 -17.68434 5.07355 -8.90806 57.5 169)"/><path fill="#2d2b23" d="M98.4 47.1l13.1-9.2 16 23-13 9.2z"/><path fill="#d7a297" d="M35 0h24v38H35z"/><circle r="1" fill="#ae837b" transform="matrix(-2.49089 4.6077 -38.91135 -21.03514 95.4 66.6)"/><circle r="1" fill="#fcc654" transform="rotate(-101.7 69.8 83.6) scale(22.38185 31.10542)"/><ellipse cx="197" cy="117" fill="#7b98b5" rx="46" ry="17"/><path fill="#c0d4f6" d="M-8 75l99 12-107-44z"/><path fill="#966857" d="M214 73l20-34-74 43z"/><path fill="#6e4c3f" d="M77-16l64 55-96-18z"/><path fill="#b2ae9f" d="M144.2 34.3L103.9-16l62.9 2.5L119 39.8z"/><circle r="1" fill="#9ab0cc" transform="matrix(1.36187 18.9243 -57.03686 4.1046 175.1 138)"/><path fill="#def2ff" d="M95.8 59l-16.9-6.5-2.8-17.2 28.6 4.4z"/><circle r="1" fill="#221612" transform="matrix(40.0973 -27.5777 7.20775 10.4799 236.2 73)"/><circle r="1" fill="#8b4537" transform="matrix(-22.1457 18.59255 -5.77837 -6.88265 165.3 7)"/><path fill="#000105" d="M172 38l26-34-55 24z"/><path fill="#fdf4e3" d="M184.1 149.3L91 185l3.1-15.2 176.9-26z"/><path fill="#af9a8c" d="M126.8 44.2l-13 62.5 53.4-66.2-27.5 58.8z"/><circle r="1" fill="#708596" transform="matrix(-7.55292 -8.36057 21.3055 -19.24735 244.2 97.1)"/><path fill="#335475" d="M127.1 107.4l57.2-5.4-37.9 21.5-15.6 3.2z"/><path fill="#e9efff" d="M-16 69.7l44.6-4.4 6.7-21-38.8.4z"/><path fill="#cad8f2" d="M152 55l-19 4 6-30z"/><path fill="#f6c5b4" d="M214.3-16l-26.2 40.3L210 4.1l4.8 8.6z"/><path fill="#030606" d="M156.5 91.5l80.7 6.4-75.6 4.4-30.6 10.5z"/><path fill="#180000" d="M128 39l4 11 4-15z"/><path fill="#1c1600" d="M109 86.8L69.9 79l1.1-5.9 39.3 7.7z"/><path fill="#4c2a1e" d="M194 66l37-70-77 78z"/><path fill="#473324" d="M35 63l50 15-49-38z"/><path fill="#496031" d="M126.9 7l16-19.1 6.2 5.1-16 19.1z"/><path fill="#c2aaa4" d="M8.5-.3L37 5.8l.8 15.6L99.9-16z"/><path fill="#965a4c" d="M54 24l55 59-69-42z"/><circle r="1" fill="#373328" transform="matrix(.14536 3.96425 -22.49855 .82498 10.3 27.3)"/><path fill="#cb9d8d" d="M171 74l15-5-26 20z"/><path fill="#140b05" d="M80 28l-16 5 9 10z"/><path fill="#d9d5c8" d="M231 93h25v4h-25z"/><path fill="#0d171a" d="M140.8 35.7l56.4-39.6-26.1 44-21.5-.4z"/><path fill="#7a93af" d="M194.7 147.8l-2-16.9 38.6-4.7 2 16.9z"/><path fill="#7f5041" d="M127.8 76.5l-4.9 32.6 58.3-71.9-41.7 67.4z"/><path fill="#bca690" d="M0 15h28v6H0z"/><path fill="#7e97bc" d="M66.7 185l17.6-25.5 59.6-6-62.1 25.6z"/><path fill="#fff5ed" d="M233 122h16v25h-16z"/><path fill="#83a38c" d="M56 85h46v9H56z"/><path fill="#d4a495" d="M146 54l-6 30 43-53z"/><ellipse cx="120" cy="82" fill="#9ea098" rx="5" ry="20"/><path fill="#354252" d="M244 97l-3 10-17-9z"/><path fill="#331f18" d="M152 89l72-51-43 10z"/><path fill="#4e2f27" d="M231 87.2l7.7-18.9-47.7 8.2-39.6 13z"/><path fill="#7b4f42" d="M185.8 36.3l51.3-43 7.1 8.4-51.3 43z"/><path fill="#f0c1be" d="M154-10l-11 28-12-2z"/><path fill="#3d4045" d="M33.9 13.7l6.5-29.1L42-16 26.6 19.7z"/><path fill="#494039" d="M73.6-12.3l53 41.4-16.6 6.5 1.5-29.7z"/><path fill="#c6d9f2" d="M136 39h32v6h-32z"/><path fill="#d5d9a2" d="M95.9 92.4l-51.1 66.9 66.2-11.7 9-48.6z"/><path fill="#292927" d="M107 90l13 2-19-26z"/><circle r="1" fill="#a39376" transform="rotate(172.2 51 33.3) scale(5.28784 7.07252)"/><circle r="1" fill="#d5def2" transform="rotate(53.6 -2.7 114.4) scale(14.52723 9.54605)"/><path fill="#473c35" d="M128.7 58.2l21.8 7.9-29 3.2-14.6-34z"/><path fill="#423429" d="M94.8 31.7l-21.2-2.4 12.9-9.7 7.8 3.8z"/><path fill="#070b08" d="M197.2 10.8l-18.1-8.9.5 27.3 16.1-15.8z"/><path fill="#fffafb" d="M41 183l36-16-43-14z"/><path fill="#c1bfbb" d="M123 39l-14-5 23 21z"/><path fill="#bf806c" d="M178.9 31.2l-23.7 36.6 64-60.2-30.3 13.5z"/><path fill="#be998f" d="M33 43.2l1.9-27L58 3.3 33.7 54.1z"/><path fill="#aeb36a" d="M134 168l137 17-16-38z"/><path fill="#738aaa" d="M250 129h6v12h-6z"/><path fill="#d7e5e4" d="M28 12l9-28H25z"/><path fill="#362018" d="M237.4 22.3l-41.1 36.6 18.5-35.4 21.2-9.6z"/><path fill="#493f32" d="M128 84h11v31h-11z"/><path fill="#a6a49a" d="M120 75l8 26-21-31z"/><path fill="#31211d" d="M257.6 31L277 51.3 250.4 77 231 56.8z"/><path fill="#91a9c3" d="M132.7 124.9l-30.9 32-30.6 16.4 137.7-26.2z"/><path fill="#a3b3cd" d="M-17.4 72.4l55.5-7.8 1.3 9-55.5 7.8z"/><path fill="#e4b9a8" d="M164.3 50.9l-2.2-2.2 39.6-39.6 2.2 2.2z"/><path fill="#6684a7" d="M189 105l-46 6 6 13z"/><path fill="#f8f1e1" d="M115 166l31-7-26 18z"/><path fill="#9f6f60" d="M44.6 36l36.5-52 1.3 23.6L55.6-16z"/><path fill="#b8cbd2" d="M53 80h24v8H53z"/><path fill="#140b0a" d="M130.9 100l37.5 4.6L197.8 80l21.1 19.4z"/><path fill="#93857d" d="M151.1 62l-33.5 1.5 3.1 8.2 51.8-31.4z"/><path fill="#c2c389" d="M52.1 84.6L89.4 96l-3.5 11.4L48.6 96z"/></g></g></svg>