<svg xmlns="http://www.w3.org/2000/svg" viewBox="0 0 1400 933"><defs/><filter id="a"><feGaussianBlur stdDeviation="12"/></filter><rect width="100%" height="100%" fill="#2a374e"/><g filter="url(#a)"><g fill-opacity=".5" transform="translate(2.7 2.7) scale(5.46875)"><circle r="1" fill="#fff" transform="matrix(203.93053 -120.297 37.72748 63.95659 72.5 44)"/><circle r="1" fill="#ffffe2" transform="matrix(39.47787 52.81676 -170.17865 127.19996 69 37)"/><circle r="1" fill="#d7641c" transform="rotate(-158.1 105.6 34.6) scale(86.74226 46.14985)"/><circle r="1" fill="#ffe6b9" transform="matrix(-36.32109 -26.40045 8.5715 -11.79247 210.2 82.6)"/><path fill="#a7dcff" d="M87 98h22v72H87z"/><path fill="#4b1d0c" d="M111 79h80v68h-80z"/><circle r="1" fill="#ffe6ce" transform="rotate(153.9 62.4 31.7) scale(169.10649 26.21629)"/><circle r="1" fill="#511b00" transform="rotate(106.3 56.5 152.7) scale(23.7453 63.76467)"/><circle r="1" fill="#7d747d" transform="rotate(-159.5 113.6 4.8) scale(49.0381 19.48882)"/><circle cx="42" cy="39" r="84" fill="#f3dcc7"/><circle r="1" fill="#556484" transform="matrix(-23.48795 40.19481 -20.57003 -12.02015 61 155)"/><circle r="1" fill="#ffdbbf" transform="matrix(-5.30157 7.54598 -22.72977 -15.96923 207.2 73.7)"/><circle r="1" fill="#d7c2af" transform="matrix(18.393 3.07555 -15.54005 92.93553 3.7 149.1)"/><circle r="1" fill="#dc8255" transform="matrix(-3.44412 8.59914 -75.9613 -30.42393 201 88.9)"/><path fill="#545e7c" d="M196.1 197.2l-63.6-39.8 15.4-24.6 63.6 39.8z"/><path fill="#464e6b" d="M251 102l-52-55 54-60z"/><path fill="#937e6c" d="M195.1 16.9l-51.2 44.8 6.5 4.6 38.9-2.1z"/><path fill="#080000" d="M117 77l40 14-21 9z"/><path fill="#9d5335" d="M150.1 128.5l-53.4-36 68.4 6.1 6.1 37.3z"/><path fill="#ffe9d2" d="M229.4 9.9l-26 21.8-14.8-17.6 26-21.8z"/><circle r="1" fill="#964e2b" transform="matrix(8.35454 13.06363 -29.88073 19.10952 215.6 125.4)"/><path fill="#030608" d="M128 134l-16-41 4 92z"/><circle r="1" fill="#4a5c82" transform="matrix(-3.8406 -6.54614 52.99178 -31.0901 39.7 149.6)"/><path fill="#250900" d="M255.8 163.5L253 173l-78.8-22.6 2.8-9.6z"/><path fill="#ee9263" d="M119 89h10v22h-10z"/><path fill="#e2d1c2" d="M132.9-7.1l91.8-8.9-21.5 59.2 20.3-6.9z"/><path fill="#f6c6a8" d="M202.9 60.7L311.6 152l-4.5 5.3L198.4 66z"/><path fill="#250000" d="M151 113l-23-8 6-20z"/><path fill="#e4d4c2" d="M4 160l135-95L-4 38z"/><path fill="#94c4e7" d="M88 124l12-3-11 40z"/><path fill="#765e4b" d="M174 0h4v24h-4z"/><path fill="#8e3a17" d="M116 75h63v10h-63z"/><path fill="#526172" d="M117.4 176l-25-8.1 10.9-17.6.3-45.7z"/><circle cx="136" cy="11" r="39" fill="#f5e6db"/><path fill="#3e4761" d="M262 30l-54 30 63 58z"/><path fill="#52230a" d="M271 130.3l-83.2-9.2-42.6-7.1 36.2-12z"/><path fill="#f6c9aa" d="M212 94l27-3-59-30z"/><ellipse cx="112" cy="91" fill="#536176" rx="8" ry="6"/><path fill="#a55b35" d="M238.6 100l-70.1-10.8L271 143l-34.2-11.3z"/><circle r="1" fill="#2a3243" transform="matrix(-14.60605 16.00615 -12.7941 -11.67497 48.2 168)"/><path fill="#bfefff" d="M102 94l-29 15 18 5z"/><path fill="#cd7b59" d="M156.9 124.8l-10.3-27.3 18.5 3.6-18.7 13.5z"/><circle r="1" fill="#2e303d" transform="rotate(97.7 -3 135.7) scale(31.92966 18.11542)"/><circle r="1" fill="#3d1a06" transform="matrix(12.44739 -14.94341 29.5078 24.57907 255 167.1)"/><circle r="1" fill="#ebdfd0" transform="matrix(41.61323 -3.5849 7.0764 82.14217 87.1 12.3)"/><path fill="#627092" d="M56.1 145.8l-45.6 10.3 55.4-34.6 12.5-12.9z"/><path fill="#978779" d="M216.2 38.9L153.9 71l-5.1-5.5 44.8-45.2z"/><path fill="#ffc394" d="M122 66h75v4h-75z"/><path fill="#6487ac" d="M106.3 101.6L81.6 129l28.3-9.1.5-5.2z"/><path fill="#2e0701" d="M129 86h42v11h-42z"/><ellipse cx="195" cy="136" fill="#8f4e2f" rx="24" ry="10"/><path fill="#3c0800" d="M112 100h30v3h-30z"/><path fill="#46506b" d="M206.5 164.9l-39 5.8-29-23.5-.2-17.3z"/><path fill="#4d536f" d="M238 64l-25-39 27-19z"/><path fill="#200902" d="M109.6 113.7l1.9-3.6 53 28.2-2 3.6z"/><path fill="#f8a778" d="M116 92h14v5h-14z"/><path fill="#dd631e" d="M177 58h12v6h-12z"/><circle r="1" fill="#2d2a33" transform="matrix(10.1109 3.71325 -8.05514 21.9335 255 13.7)"/><path fill="#3c1a09" d="M142.6 106.7l-19.8-33.2-2.8-1.7.4 13.5z"/><circle r="1" fill="#f0decf" transform="rotate(-50.1 109 -196.1) scale(28.65325 4.98858)"/><path fill="#331207" d="M172.2 97.3l3.2 23.3 33 1.5-20.3-11.9z"/><circle r="1" fill="#d2bda6" transform="matrix(10.13848 5.58928 -12.32172 22.35054 11.8 139.5)"/><path fill="#435277" d="M11 184l32-48-51 36z"/><path fill="#b5a89c" d="M106 99h5v22h-5z"/><path fill="#39445d" d="M68 134.2L78.9 185l-4.8-73.8 5.1 1.8z"/><path fill="#c07042" d="M188 94l-13-31 42 41z"/><path fill="#e9dece" d="M64 0h53v85H64z"/><path fill="#7f90b1" d="M37.9 150.8h1.5l2.7-17.9 26.7-1.3z"/><circle cx="129" cy="70" r="7" fill="#ffd5b4"/><circle r="1" fill="#e3d1be" transform="matrix(44.00139 122.21855 -51.3446 18.4852 0 12.2)"/><path fill="#4a5d89" d="M113.6 87.1l-10.9 9.6-5.2-1.9 30.6-15.7z"/><ellipse cx="115" cy="135" fill="#07090f" rx="6" ry="20"/><path fill="#ce6c3b" d="M173 72l-35-6-8 10z"/><path fill="#5a6881" d="M87 155l-1 23-59 7z"/><circle r="1" fill="#3e455e" transform="rotate(-172.9 102.3 75.7) scale(32.57806 5.16643)"/><path fill="#d07f5c" d="M147 113l14 6-15 3z"/><path fill="#897e79" d="M183 59l-43 4 36-28z"/><path fill="#521805" d="M129.2 125.9l14.9-19-17.6 8.5-12.1-8.7z"/><path fill="#e5905c" d="M116 104h15v5h-15z"/><ellipse cx="107" cy="130" fill="#8f8a86" rx="2" ry="29"/><circle r="1" fill="#c77b53" transform="matrix(-4.24902 -9.54344 10.81274 -4.81414 230.8 104)"/><ellipse cx="255" cy="61" fill="#3f4054" rx="18" ry="40"/><path fill="#4e5f7d" d="M163.3 141.3l-11.9-5.8.1 20.3 19.6-10.6z"/><path fill="#7c4020" d="M240.2 141.2l-72.9-51.4 40.2 15.8 63.5 33.9z"/><path fill="#bf5a31" d="M124 58h6v6h-6z"/><path fill="#526173" d="M110 147l6 32-18-21z"/><path fill="#653419" d="M206.3 156.6l-74.1-34.8L234.8 153l-9-33.6z"/><circle r="1" fill="#b79e93" transform="matrix(-1.45592 -1.72285 26.32413 -22.24562 237.4 4.2)"/><ellipse cx="205" cy="134" fill="#9e5439" rx="10" ry="12"/><path fill="#7d371a" d="M180.7 135L143 106.6l4.2-5.6 37.6 28.2z"/><path fill="#995335" d="M147 56l-13 9 10-1z"/><path fill="#de9c7c" d="M161 100l-12-2 6 6z"/><path fill="#fbb78c" d="M129 62l33-15-32 4z"/><path fill="#4c5775" d="M194 50l41-8 3 42z"/><path fill="#763b1e" d="M183.8 89.4l-29.6-13.9 15.6 9.5-15.5 50.4z"/><path fill="#48719c" d="M122.2 185l-33-58 11.6 29-16.7 20.1z"/><path fill="#d5c0a7" d="M-16 39l15-52 28 7z"/><path fill="#bcddf8" d="M91.7 95.5l-16.8 15.3 15.3 5.9 11.2-11.5z"/><path fill="#57617e" d="M177.6 149.6l5.4 4.5-18.6 22.3-5.4-4.5z"/><path d="M126.8 87.6l36.7 9.8-.3 1-36.7-9.8z"/></g></g></svg>