<svg xmlns="http://www.w3.org/2000/svg" viewBox="0 0 1400 933"><defs/><filter id="a"><feGaussianBlur stdDeviation="12"/></filter><rect width="100%" height="100%" fill="#2e435f"/><g filter="url(#a)"><g fill-opacity=".5" transform="translate(2.7 2.7) scale(5.46875)"><circle r="1" fill="#ffbe8e" transform="matrix(215.16246 136.85802 -45.43792 71.4356 182.7 54.5)"/><circle r="1" fill="#fff" transform="matrix(102.37853 -.32823 .02268 7.07514 99.3 169)"/><ellipse cx="56" cy="32" fill="#d97650" rx="61" ry="48"/><circle r="1" fill="#e0c0c4" transform="matrix(3.84495 15.85435 -97.27687 23.59132 161.8 87.9)"/><path fill="#000b37" d="M222 57l-7-40-52 70z"/><path d="M128 118h38v33h-38z"/><path fill="#000f2a" d="M150.4 50.5l-.9-9.4-92.8 53.4 64.8-11z"/><ellipse cx="25" cy="102" fill="#588dbf" rx="98" ry="14"/><path fill="#ffc3a8" d="M199.2 164.7l-14-25.3 79.6-44.1 14 25.3z"/><circle r="1" transform="matrix(-50.64804 3.75816 -1.06502 -14.35314 42.6 128.8)"/><ellipse cx="139" fill="#0151aa" rx="28" ry="31"/><circle r="1" fill="#9dc8ef" transform="matrix(26.55555 -46.05815 5.51423 3.17932 85.7 150.1)"/><circle r="1" fill="#ffae94" transform="matrix(29.8692 -43.63682 16.97134 11.6168 191.2 7.1)"/><circle r="1" fill="#ffa887" transform="rotate(11 -53.6 1294.4) scale(17.78169 56.90696)"/><circle r="1" fill="#ffdad0" transform="rotate(15.9 -75.9 427.4) scale(23.6664 12.36222)"/><circle r="1" fill="#340000" transform="rotate(58.3 13.4 254.4) scale(5.22144 26.61146)"/><ellipse cx="151" cy="86" fill="#ffd4bf" rx="22" ry="23"/><circle r="1" fill="#5a3926" transform="matrix(-25.45091 -34.52078 12.63727 -9.317 45.6 56.2)"/><path fill="#dbe2e5" d="M109 66l17 22-3 43z"/><path fill="#0e0904" d="M98 87L-16 58l32 31z"/><path fill="#1a0500" d="M210.3 119.7l-71.1 14.1-45.7 3.3 83.6-21.5z"/><circle r="1" fill="#faf7ed" transform="matrix(-1.80744 .34479 -18.62425 -97.63173 131 169)"/><path fill="#eba48e" d="M36.5-16l87.9 98-92.3-66.2L-16 4.9z"/><path fill="#223c55" d="M198.9 27.7L178 84.8l49.9-38.2 7.3-6.8z"/><path fill="#ffbca6" d="M271 46.8l-21.7-17-87.2 79.8L211.2 88z"/><ellipse cx="108" cy="169" fill="#eaefed" rx="59" ry="6"/><path fill="#49739e" d="M119 80L-1 117l116-3z"/><circle r="1" fill="#e39b83" transform="matrix(-29.07894 -2.0844 .91716 -12.79501 188.7 137.4)"/><path fill="#000012" d="M114 55h20v18h-20z"/><path fill="#e9b099" d="M97.6 74.2L67.2 32.3l50.1 29.6-5.3 10.4z"/><circle r="1" fill="#bd6f56" transform="rotate(67.3 57.5 222) scale(10.7739 93.99428)"/><path fill="#e0866f" d="M193.5 51.6l-24.4 29-14.6-12.2 24.4-29z"/><ellipse cx="41" cy="160" fill="#4f7395" rx="79" ry="6"/><circle r="1" fill="#000005" transform="matrix(-.39708 -3.54605 24.0142 -2.68904 88.5 81.8)"/><path d="M108 119h12v23h-12z"/><circle cx="148" cy="73" r="9" fill="#fff"/><circle r="1" transform="rotate(-62.2 180.5 -51.5) scale(9.11403 19.32114)"/><circle r="1" fill="#5d3026" transform="matrix(24.396 20.18212 -2.29559 2.77489 101.8 48.1)"/><path fill="#a25338" d="M242 40l-51-6 39-33z"/><path fill="#471b06" d="M228.2 113.9l-4.6-5.3 58.2-50.5 4.6 5.3z"/><path fill="#fff" d="M111 88h23v8h-23z"/><circle r="1" fill="#b4735c" transform="matrix(99.01566 -39.40312 11.6286 29.22136 252.4 169)"/><path fill="#000d16" d="M0 120h83v25H0z"/><path fill="#fcc1ae" d="M205.3 147.5l37.5-41.7 11.9 10.7-37.5 41.7z"/><circle r="1" fill="#5d3226" transform="matrix(13.51948 33.46188 -3.13706 1.26746 68.9 0)"/><path fill="#1f5288" d="M125.7 72.4l-12.2-1.5 5.7 15.9 15.2-.4z"/><path fill="#6282a4" d="M0 93h40v28H0z"/><circle cx="126" cy="37" r="9" fill="#ffefe5"/><circle r="1" fill="#98594d" transform="rotate(-31.3 172.4 -252.3) scale(12.0882 15.44504)"/><path fill="#805440" d="M47 85l-63-38L97 76z"/><path fill="#010000" d="M196 118l6 12 5-12z"/><path fill="#9c6453" d="M206 116l-83 2 37-20z"/><path fill="#426592" d="M147 43L90-16l76 10z"/><path fill="#ed9f85" d="M254-15l-38 51 55-16z"/><path fill="#486689" d="M31 92l94 4-93 21z"/><circle r="1" fill="#a7674e" transform="rotate(85 -16.4 15) scale(16.15557 64.10573)"/><path fill="#729bc7" d="M105.7 87L82.1 99.4.8 94.3l109.1-1.1z"/><path fill="#ecb6a4" d="M202 109l-31-19 34-24z"/><path fill="#7c4939" d="M218 178l23 1 15-46z"/><path fill="#92b2d7" d="M63 173.7l40.2-57.4 5.7 4-40.1 57.4z"/><path fill="#264360" d="M209 29l-44 57 62-38z"/><path fill="#3b2319" d="M70.8 91.2l-21.2-18-20.2-25.1-12.7-26z"/><path fill="#030f18" d="M14.2 80.3l31.3 11.1-61.5-51v44.9z"/><path fill="#051017" d="M4 121.2l97-6.2-1.8 5.4-17 20.4z"/><path fill="#fbfbf5" d="M123.9 127l-7.4-39 11.9 85.5 4.7 11.5z"/><path fill="#f3b9a6" d="M204 86l-91 29 28-32z"/><path fill="#edb89e" d="M64.3 13.7l1.9 6.2-5.4-30.1 32.3 75.4z"/><ellipse cx="182" cy="23" fill="#e4a28e" rx="14" ry="36"/><path fill="#b08272" d="M169 146l102 17-25 22z"/><path fill="#0c2136" d="M114 87.6l-29 1-69.3 5.3 95.6-19.1z"/><path fill="#461c0b" d="M200 29l23-8-12 14z"/><path fill="#061722" d="M122.2 134.8l-1.1 11.4-24.3-5.4 16.6-24.7z"/><path fill="#d18e80" d="M72-16l51 50-38-7z"/><circle r="1" fill="#372524" transform="matrix(-14.28576 7.0564 -.9105 -1.84331 225.3 42.6)"/><path fill="#516f94" d="M92.6 140.5L60.3 185l27.2-22.4 20.8-5z"/><path fill="#15232c" d="M131 146l39-1 30 19z"/><circle r="1" fill="#c77352" transform="rotate(63.2 21.1 242.4) scale(3.12333 26.19217)"/><circle r="1" fill="#cd8c77" transform="matrix(-4.79787 -5.92754 38.25726 -30.96619 250.5 131.5)"/><path fill="#1a354c" d="M-13 142l42 18 53-26z"/><path fill="#2d4663" d="M4 100h74v5H4z"/><path fill="#243147" d="M184 82h-17l23-20z"/><path fill="#516e95" d="M171-1l-30 54-1-50z"/><path fill="#e9a288" d="M13.4-16L.6 37.9-16 11.5l68.8-8.6z"/><path fill="#000008" d="M126 122h31v19h-31z"/><circle r="1" fill="#9f6f60" transform="matrix(10.33089 -6.3556 14.80474 24.06477 60.3 56.2)"/><path fill="#cc7f6b" d="M171 81l14-27-35 38z"/><path fill="#a96e59" d="M254.8 66.7l12.5 7.3-54.3 39.1-37.5 16.7z"/><path fill="#73786f" d="M215 163.7l-22.4-6.9 73.7 28.2-119.1-24z"/><path fill="#e4ad98" d="M79.5 69.4l21.1-9.3-26.7-35.3 5.5 7.1z"/><path fill="#f9c5b9" d="M88.3 25.3L120.7 49l18.5-14.5-.8 8.5z"/><circle r="1" fill="#d5917d" transform="matrix(32.29893 -5.46296 .92964 5.49637 154.7 105.6)"/><path fill="#eeb8a6" d="M236.2 38.3l13.6 11.9-36 41.5-13.6-11.9z"/><path fill="#210400" d="M88 41.4l4.7-2 3.2 7.2-4.6 2z"/><path fill="#39587b" d="M200 30l-9 21 36-7z"/><circle cx="8" cy="96" r="6" fill="#89aed3"/><path fill="#759bc1" d="M79 117l30-9-32-5z"/><path fill="#000b15" d="M118 55l-4 22 16-16z"/><path fill="#707077" d="M112.2 109.3l4.2-9.3 4.6 23.1 10.1 16.5z"/><path fill="#f3b3a4" d="M251 150h5v16h-5z"/><circle cx="121" cy="98" r="3" fill="#432931"/></g></g></svg>