<svg xmlns="http://www.w3.org/2000/svg" viewBox="0 0 1400 933"><defs/><filter id="a"><feGaussianBlur stdDeviation="12"/></filter><rect width="100%" height="100%" fill="#41404e"/><g filter="url(#a)"><g fill-opacity=".5" transform="translate(2.7 2.7) scale(5.46875)"><circle r="1" fill="#fff" transform="rotate(-98.1 46.9 7.5) scale(81.29835 227.60039)"/><circle r="1" fill="ivory" transform="matrix(-136.9313 96.95276 -40.26875 -56.8736 57.2 27.2)"/><circle r="1" fill="#88635a" transform="rotate(61.4 -17.4 208.3) scale(77.60051 198.89095)"/><circle r="1" fill="#3b6ea6" transform="matrix(61.84014 -38.90096 14.86266 23.6269 49.3 145.6)"/><circle r="1" fill="#8e593d" transform="matrix(-25.85249 23.26517 -80.75931 -89.74055 232.7 124)"/><circle r="1" fill="#f8a77f" transform="matrix(-50.9675 -31.1107 4.20582 -6.89024 165.9 115)"/><ellipse cx="133" cy="169" fill="#8f9cb8" rx="52" ry="25"/><circle r="1" fill="#5f90cf" transform="matrix(-12.50146 13.71115 -21.47317 -19.57865 172 95.4)"/><path fill="#ffe6cb" d="M167 0h26v43h-26z"/><path fill="#5b3120" d="M120 66h136v15H120z"/><path fill="#58250b" d="M98.9 94.2L271 185l-112.8-39-60.5-2.6z"/><path fill="#e5a080" d="M249 123.6l7.9 7.7-89.2-9.2 67.3 23.8z"/><circle r="1" fill="#4b0000" transform="matrix(31.32563 30.46093 -6.67209 6.86149 255 2.1)"/><path fill="#e0d8ce" d="M212-5l1 71 25-79z"/><circle cx="57" cy="26" r="70" fill="#eddbd0"/><path fill="#c5683d" d="M216 148l-108-33 19-24z"/><ellipse cx="243" cy="62" fill="#ffbb9c" rx="34" ry="5"/><circle r="1" fill="#56586a" transform="rotate(-27.7 215.5 -281.4) scale(34.34198 19.08546)"/><path fill="#788eb5" d="M223 85l-56 26-19-39z"/><path fill="#4a1a03" d="M219 185l52-25-94-7z"/><ellipse cx="224" cy="112" fill="#573614" rx="32" ry="14"/><circle r="1" fill="#536c8f" transform="matrix(-25.24379 68.33439 -21.9521 -8.10945 66.6 160.5)"/><path fill="#ded5d0" d="M59.3 107l-73.8 48-16.8-26 73.8-48z"/><path fill="#763515" d="M176 79l6-32 81 36z"/><path fill="#d98667" d="M198.5 42.3l-30.8-12.8-16.9 1.6 83 46.9z"/><path fill="#bf946e" d="M271 89.2l-76.1-7.9 54.1 44.2-29.1-33z"/><path fill="#668eaa" d="M219 17h31v40h-31z"/><path fill="#ffbd94" d="M138 102l14-8 32 32z"/><path fill="#d68f6c" d="M205 105l7 43 16-15z"/><path fill="#c4938a" d="M122.9 144.1l3.6 9.9-5.9 16.2-48.8 6.7z"/><circle r="1" fill="#3f5369" transform="rotate(14 -424.1 479.5) scale(10.30871 42.08353)"/><path fill="#fff" d="M248 34h8v7h-8z"/><ellipse cx="135" cy="169" fill="#3b4e6e" rx="13" ry="26"/><path fill="#d8c7ba" d="M147 50.1l-29.5 21.8L62.9 106l30-122z"/><circle r="1" fill="#5e7190" transform="matrix(-14.2469 -21.68884 61.87767 -40.64603 28 157.8)"/><path fill="#3a5483" d="M217.1 19l-17.6 10.8-9.9 3.1L205.9 48z"/><ellipse cx="255" cy="148" fill="#9c5233" rx="67" ry="13"/><path fill="#e7cbb3" d="M186.1 33.4l-5.9-12.7 51.7-24 5.9 12.6z"/><ellipse cx="132" cy="106" fill="#d99175" rx="25" ry="6"/><ellipse cx="158" fill="#eed4c4" rx="36" ry="31"/><path fill="#514a51" d="M206-5l-13 24-1-12z"/><path fill="#7b95c1" d="M174.9 53.6l-13-7.6-4.6 14.7 21.9-1.6z"/><path fill="#3b231c" d="M102 131h73v12h-73z"/><circle r="1" fill="#e6cdc4" transform="matrix(-12.66092 -3.80928 1.1182 -3.71657 215.4 55.5)"/><path fill="#070e11" d="M206 127l-7-28-6 21z"/><path fill="#b3603c" d="M268 80l-48-15 43-2z"/><path fill="#d6d7cc" d="M154.6 163.1l-6.4-19.3 4.4 41.2h2.4z"/><path fill="#b6c3d8" d="M201 81h11v11h-11z"/><path fill="#753c1e" d="M149 62h52v10h-52z"/><path fill="#a0a252" d="M225 13h7v34h-7z"/><path fill="#714135" d="M99 141h8v25h-8z"/><path fill="#687d9d" d="M77.5 92.5l34.3 4.1-8.3 17.8L133.9 94z"/><path fill="#9b5639" d="M163.4 47.4l36.6 9.1-48.6-26.4-7.4 25.1z"/><path fill="#cb9667" d="M238.9 93.5l4.5 3.7 27.6 7.7-48.6-23.7z"/><circle r="1" fill="#e3dfdc" transform="matrix(28.18753 4.7006 -8.49596 50.94669 40.2 48.4)"/><path fill="#69799b" d="M201 90l-11 36-49-45z"/><path fill="#2b1c0e" d="M205.9 112.7l19.2-5.2 4.1 8.4-8 3.1z"/><path fill="#d6b7aa" d="M180.2 124l44 11-32.3-11.2-31.3-12z"/><circle r="1" fill="#7084aa" transform="matrix(59.44908 -40.25006 2.56834 3.79343 50.2 119)"/><path fill="#753c23" d="M198.5 148.2l-89.7-20.7 2.7-11.7 89.7 20.7z"/><path fill="#567c9f" d="M121 141.1l-8.9 23.6-.9-14.9-4.5-10.6z"/><path fill="#5e6d9a" d="M237 10h12v47h-12z"/><path fill="#547299" d="M150 152l6.4-9.9 15.6 11.4-3.4 31.5z"/><circle r="1" fill="#e5d2c4" transform="matrix(-22.07778 -24.08693 11.5858 -10.6194 125.9 20)"/><path fill="#4a586c" d="M129 63h21v26h-21z"/><circle r="1" fill="#e36375" transform="matrix(4.29143 -9.7996 5.27961 2.31205 255 23.4)"/><path fill="#8d7864" d="M110.7 77.2l20.7-18.3 6.4 16.6-39.5 15.6z"/><circle r="1" fill="#7486ab" transform="matrix(16.8528 2.78362 -1.63585 9.9039 164.4 83)"/><path fill="#3a241a" d="M183 164h67v6h-67z"/><path fill="#bbbfbf" d="M170 155h8v11h-8z"/><circle cx="123" cy="83" r="3" fill="#fffae8"/><path fill="#4f5f7c" d="M68 135L7 150l97-61z"/><path fill="#4f2c15" d="M213 79l58-6-2 15z"/><path fill="#7b95bd" d="M249.4 10.1l-35.7 47.7 9.7-35.7 10.4 40.1z"/><path fill="#7a9cd2" d="M131.4 68l-.8-1.8 24-10.2.8 1.8z"/><path fill="#162b3f" d="M100 97h5v46h-5z"/><path fill="#d1aaa6" d="M110 159l16-5-16 31z"/><path fill="#3b3428" d="M162 70l-6-26-2 28z"/><path fill="#643103" d="M244-16h-20l45 40z"/><path fill="#23242d" d="M110 128l-9 10 44 9z"/><path fill="#d1a795" d="M211 129h33v5h-33z"/><path fill="#ab8777" d="M163.9 50.4l-2.6-15.1 5.2-39.9 2.3-11.4z"/><path fill="#e2c7ba" d="M234-16l-29 8 13 40z"/><path fill="#bf7c65" d="M153.4 28.1l3.4 7.7-15.4 16.5 39.2-17.4z"/><path fill="#ba7456" d="M199 145.9l-67.6-57.3 17.6 32.7 78.2 19z"/><path fill="#f3c1ad" d="M214 57.2l-2.8 3-37.1-33.4 2.7-3z"/><circle r="1" fill="#9e6450" transform="matrix(-15.37822 -7.90165 1.53954 -2.99626 170.5 64)"/><path fill="#a96949" d="M245.7 119.7l-5.5-4.4-3.1 34.8 27-27.9z"/><path fill="#fffae5" d="M267 51l4-20-24 5z"/><path fill="#cbbdb2" d="M107.8 61.5L149.9 42l-31.8 28.2-52.6 33.3z"/><path fill="#f4bc9d" d="M146 93l-12 7 32 3z"/><path fill="#583120" d="M192.9 84.5l-11.3-26.7 5.5-2.3 11.3 26.7z"/><path fill="#cec9c6" d="M-4.9 99.7l39.1 17.2 63.5-33.6L-16 154.9z"/><path fill="#425874" d="M75 184l-5-20 37-38z"/><path fill="#6f7ea0" d="M165.3 106.5l-.3-32.3 25.2 7.2 16.1 3.3z"/><path fill="#753c26" d="M197.4 50.1l-15.6 17.4 17.9-5.6-40.8-17.7z"/><path fill="#617491" d="M58 185l-21-34 65-41z"/><path fill="#414455" d="M245 38l4 18-7-2z"/><path fill="#ca918b" d="M97 185l1-34-15 23z"/><path fill="#534b4a" d="M160.1 71.8l-9.2-6.9L135 90.4l-18.7-13.5z"/></g></g></svg>