<svg xmlns="http://www.w3.org/2000/svg" viewBox="0 0 1166 933"><defs/><filter id="a"><feGaussianBlur stdDeviation="12"/></filter><rect width="100%" height="100%" fill="#353454"/><g filter="url(#a)"><g fill-opacity=".5" transform="translate(2.3 2.3) scale(4.55469)"><circle r="1" fill="#fff" transform="rotate(-28.9 150.8 -101.5) scale(255 83.62362)"/><path fill="#ffffe2" d="M271-16L-3-12l-5 203z"/><circle r="1" fill="#d46b1c" transform="matrix(-10.9463 53.26818 -94.31756 -19.38172 209.8 117.2)"/><circle r="1" fill="#fffac9" transform="matrix(11.11703 -15.20372 28.81275 21.06802 226.5 94.6)"/><path fill="#9fdffc" d="M87 117h26v87H87z"/><circle cx="154" cy="131" r="45" fill="#4c1d08"/><path fill="#ffe4cb" d="M262-16L16 171-16-3z"/><circle r="1" fill="#5e2100" transform="rotate(-70.5 227.4 -79.8) scale(31.12441 58.23061)"/><ellipse cx="234" cy="50" fill="#7c7a77" rx="51" ry="22"/><circle r="1" fill="#4a647b" transform="matrix(-25.82683 -10.24668 19.30731 -48.6642 55.7 191.2)"/><path fill="#ffefd4" d="M226 34l-40-50 85 20z"/><path fill="#ffd5b8" d="M214.6 67.1l64 46.4-11.2 15.4-64-46.4z"/><circle r="1" fill="#0b0000" transform="rotate(16.3 -301 571) scale(22.68316 7.14151)"/><path fill="#d26f3c" d="M273.3 153.5l-96.1-64.9 9.5-14 96.1 64.8z"/><circle r="1" fill="#4a6177" transform="matrix(-35.39533 -22.99367 8.27848 -12.7435 175.8 185.7)"/><circle r="1" fill="#060c05" transform="rotate(-8.6 1294.7 -758) scale(7.20787 72.03526)"/><path fill="#617498" d="M83.6 148v-13.9L6.4 177.6-16 215.3z"/><path fill="#f18a5a" d="M126.3 109.6l5.1-4.4 9.2 31.4-19.6-3.8z"/><path fill="#c86c4a" d="M158 116.3l18.8 2.7-4.8 34.7-18.8-2.7z"/><path fill="#264e86" d="M230.9 49l42.3 32-12 16-42.4-32z"/><path fill="#e5e3db" d="M82.2 138.7L52.9 58.2l62.8 72.6-.8-17.9z"/><path fill="#877161" d="M192 0h4v70h-4z"/><path fill="#f29c72" d="M158.5 90.5L134.9 95l-5.4-27.5 23.6-4.5z"/><circle r="1" fill="#ac5c3d" transform="matrix(-12.0058 -8.30542 8.81907 -12.7483 227.4 162.3)"/><path fill="#a18877" d="M148 100.7l43.6-57.2 16.1-18.1 41.5 15.4z"/><path fill="#290c00" d="M224.5 143l-52.3-39.9 13 3.1 15.3 50.6z"/><path fill="#7f9eba" d="M126.1 89.8L114 95.6l.5 49.9L77.7 174z"/><circle r="1" fill="#4f6170" transform="matrix(-2.79337 -25.30207 8.6859 -.95893 110.2 197.9)"/><path fill="#fbc499" d="M131 79h107v5H131z"/><circle r="1" fill="#f5e6dc" transform="matrix(-41.96717 4.41093 -2.77216 -26.37533 149 36.8)"/><path fill="#320500" d="M145 129l-17-36 48 48z"/><path fill="#5c4e51" d="M126.7 84.3l3.3 12.1-29 16.3 15.6 8.5z"/><path fill="#3d4c72" d="M233.5 31.1l11 11.5 16.8 81.9L271 12.3z"/><path fill="#ebd9cd" d="M211.9 23.2l54-9.5L194.7-16l50.1 61.7z"/><circle r="1" fill="#e0cab4" transform="matrix(-49.95906 42.4223 -23.9043 -28.15115 0 139.8)"/><path fill="#8e847d" d="M243.6 45.7L215.1 24l-65.4 53.2 31.8 1.3z"/><path fill="#c6ecff" d="M103.1 126.4l-2.1-17.6-27.5 23.5 14.8 9.7z"/><ellipse cx="165" cy="88" fill="#d06632" rx="23" ry="8"/><circle r="1" fill="#200a00" transform="matrix(-1.17918 5.54762 -49.13853 -10.44472 251.4 193.4)"/><circle r="1" fill="#1e2124" transform="matrix(-9.49938 -27.27851 19.39463 -6.75392 133.4 166.4)"/><path fill="#f9e6d2" d="M144.5 77.2L141.3 92l-21.5-13.6 8.3-1.1z"/><path fill="#ffbb8f" d="M134.3 111.7l-12.1 7-2.5-4.4 12.1-7z"/><path fill="#88b3d3" d="M85.3 200.8l4.4-56.7 2 19.2 12.1 22.2z"/><path fill="#4c5b7d" d="M74.2 130.3l8.3 63 6.5-53.1-35.8 17.2z"/><circle r="1" fill="#2b3648" transform="rotate(141.4 -19.7 107) scale(34.46247 18.5069)"/><path fill="#ece0d1" d="M58 0h64v100H58z"/><path fill="#a86042" d="M185.5 161.2l-42.4-29.4 36.7 9.3 6 .8z"/><path fill="#210000" d="M178 117l-43-10 49-6z"/><path fill="#bd5f39" d="M158.5 69.6l-11.1 13-14.2-16.4-3.3 11z"/><circle r="1" fill="#7a8cb1" transform="matrix(-2.41217 -4.10558 14.9482 -8.78259 43.7 167.7)"/><circle r="1" fill="#f2c5a8" transform="matrix(9.985 -7.03114 12.05269 17.11614 230 90.5)"/><path fill="#d78755" d="M212.9 69.3l-19.6 20.2-11.9-4.9 21.4-21.4z"/><path fill="#3c6695" d="M111.5 122.6l-4.8 18.5-24.4 2.8-2.6 10.4z"/><path fill="#974121" d="M152.9 108l-6-.6 49.4-15.8-75.6.7z"/><path fill="#0a080c" d="M116.4 120.1l2.5 88.3 10.2-57.6-11.9-35.4z"/><path fill="#713615" d="M217.6 182.4l-74.7-34 15.6-.4L271 180.4z"/><path fill="#b67153" d="M155.5 126.6l29.2-2.8.3-.8-29.5-9.2z"/><circle r="1" fill="#b9704a" transform="matrix(33.28602 3.32042 -.6227 6.24239 241.2 117.1)"/><ellipse cx="136" cy="121" fill="#501200" rx="18" ry="3"/><path fill="#4d1500" d="M139 132l31 31-47-24z"/><path fill="#48546b" d="M158 193h82v11h-82z"/><path fill="#46506d" d="M206 63l64 26-19-45z"/><path fill="#e4d4c7" d="M246.9 46.8L234 32.2 271-16l-74.6 30.5z"/><ellipse cx="6" cy="25" fill="#e1ceba" rx="28" ry="153"/><path fill="#426990" d="M105 184.1l2.8-68.1 3.7 95.3-23.1-7z"/><path fill="#313a4b" d="M164 163l-33-16 4 72z"/><path fill="#686c72" d="M123.2 100l10.5 4-29.2 18.3 3.7-14.3z"/><path fill="#e4d7c7" d="M122.5 99.1l-62.4 43.7L-16 97l138.7-25.6z"/><path fill="#efe2d8" d="M192.7 29.9L176.1-16l-6.7 77.4 48.7-44.6z"/><path fill="#2b0c00" d="M204 173l-28-6 38 21z"/><path fill="#aa9b88" d="M112.3 147.9l4.5-15.6-7.2-2.2 1.9 46.2z"/><path fill="#525d7a" d="M204.1 185.3l-43.5-24.1 6 6-23.5 5.9z"/><circle r="1" fill="#a38969" transform="matrix(-5.2678 -38.96148 .99098 -.13399 115 188.7)"/><path fill="#8c4823" d="M170.8 88.8l35.6 4.4-22.6 25 87.2 28.5z"/><path fill="#e69469" d="M139.4 111.6l-14.8 17.1 11.2 1.4-13.6-19.5z"/><path fill="#ecb58d" d="M211 96l1-29 38 50z"/><path fill="#98887f" d="M164.8 65.6L212 24.1l11.1 8-16 37.2z"/><path fill="#685544" d="M193 0h2v27h-2z"/><path fill="#82b1d6" d="M106.5 148.7L81 153l23.8 8.2-18.7 19.4z"/><path fill="#758faf" d="M9 199l-20 19-5-39z"/><circle r="1" fill="#657399" transform="rotate(-157.3 122.6 -7.1) scale(8.59782 3.82746)"/><path fill="#353d52" d="M69 147.7L40.4 219l2.7-24.9 44.1-39.7z"/><path fill="#e8c6ab" d="M271 114.3l-36.9-36.8-21.5-9.1L197 62z"/><path fill="#bdb3ad" d="M86 182h4v22h-4z"/><path fill="#e7dacb" d="M86 115.9l28.5 8.3v-4.7l-37.6-16.7z"/><path fill="#3f4b65" d="M75.4 170.3L5.3 203.2 34.2 164l-40.9 26.3z"/><path fill="#b06644" d="M144.7 144.1l2.6.6 33.5-.8-30.2-10.6z"/><ellipse cx="169" cy="121" fill="#c4917f" rx="5" ry="6"/><path fill="#7e6e60" d="M134.3 94.9l-10.2 7.7 8.2 5.7-38.6 18.4z"/><path fill="#160602" d="M125.8 94.3l16.6 21.2-1.7 12.4 13.7-13.7z"/><path fill="#d1662e" d="M192 75l15-7 4 8z"/><path fill="#653d1e" d="M199 70.4l-17.4 10-.5-.8 17.3-10z"/><path fill="#b3663d" d="M241.7 123.7l-35.1-28.1L194.7 70l5.9 45.5z"/><path fill="#fffdea" d="M244 42l-8 4 4-5z"/><path fill="#93491c" d="M133.5 97.2l-5.6-13.6-5 7.7.3 9.4z"/><circle r="1" fill="#f5c092" transform="matrix(-9.95014 2.55476 -1.0125 -3.94346 161.3 61)"/><path fill="#431700" d="M261.6 212.2l9.4-33-64.7.7 47.4 17.5z"/><path fill="#465e8c" d="M69.2 139.3l2.6-5.5 19 9-2.6 5.4z"/><path fill="#3e180b" d="M243.2 146.7l-59.7-11.1 20.1-17 9.7 28z"/><path fill="#abd2ed" d="M88 148h2v41h-2z"/></g></g></svg>