<svg xmlns="http://www.w3.org/2000/svg" viewBox="0 0 1400 933"><defs/><filter id="a"><feGaussianBlur stdDeviation="12"/></filter><rect width="100%" height="100%" fill="#454959"/><g filter="url(#a)"><g fill-opacity=".5" transform="translate(2.7 2.7) scale(5.46875)"><circle cx="188" cy="89" r="211" fill="#fff"/><circle cx="255" cy="60" r="171" fill="#fffcee"/><circle r="1" fill="#4d2b28" transform="rotate(-88.3 130 -48.2) scale(58.18917 21.13252)"/><circle r="1" fill="#fff" transform="matrix(-11.19495 155.32082 -28.98025 -2.08879 17.4 70.4)"/><ellipse cx="71" cy="78" fill="#462320" rx="21" ry="54"/><circle r="1" fill="#fffffe" transform="matrix(-252.90684 -32.60568 3.00168 -23.2826 125 163.5)"/><ellipse cx="94" cy="10" fill="#fff" rx="255" ry="21"/><ellipse cx="243" cy="79" fill="#fff" rx="31" ry="146"/><ellipse cx="6" cy="76" fill="#fff" rx="25" ry="169"/><circle r="1" fill="#a18785" transform="matrix(0 -35.31671 29.50626 0 176.2 118.4)"/><path fill="#252423" d="M157 94l22-75v82z"/><circle r="1" fill="#a98a95" transform="rotate(99.6 .6 86.2) scale(55.2965 16.83391)"/><circle r="1" fill="#fffffe" transform="matrix(-1.26608 -176.62789 13.7766 -.09875 126 109.7)"/><path d="M59.7 50.4l14-26.5 10.6 5.7-14 26.5z"/><ellipse cx="199" cy="81" fill="#e2c4bf" rx="24" ry="27"/><circle r="1" fill="#765d63" transform="matrix(-15.84306 2.26697 -5.88855 -41.15306 51.9 90.2)"/><circle r="1" fill="#fff" transform="matrix(-26.2388 -.0916 .51239 -146.78827 255 97.8)"/><path fill="#151412" d="M57 67h15v34H57z"/><path fill="#060100" d="M87 109h11v14H87z"/><path fill="#e1fbfc" d="M79.7 100.3l-7-13.2 17.6-9.4 7 13.2z"/><path fill="#292a2e" d="M175.4 64.7l-16.1-31.1 10.4 1.4 21.5-7.7z"/><circle r="1" fill="#fff" transform="matrix(16.45092 -.14357 1.20842 138.47107 11.6 71.8)"/><path fill="#1c0f11" d="M204 111l-2 15-15-20z"/><circle r="1" fill="#f8efe6" transform="matrix(92.45862 -33.86377 5.17566 14.13117 80.8 169)"/><path fill="#a28176" d="M207.9 50.6l-66.7 32.7-4.4 1.8 12.3-32.2z"/><circle r="1" fill="#fffffd" transform="matrix(-70.96276 .79347 -.20834 -18.63214 82.3 0)"/><path fill="#e9e3de" d="M79 42.9l12.2 11.9-12.8-39.6 99.3-8.3z"/><path fill="#090e0c" d="M56.3 34.5l19.4 5.1-.1 20.2-21.9-20.7z"/><path fill="#dbe7e9" d="M170.9 111l23-26.5 5.2 4.6-23 26.4z"/><path fill="#b70007" d="M94 144l12 3-3 4z"/><path fill="#eedccf" d="M188 13h44v39h-44z"/><ellipse cx="56" cy="162" fill="#fefef1" rx="44" ry="13"/><path fill="#f3b600" d="M58 151l-7-13 10 9z"/><path fill="#634343" d="M63.8 146.3l5.1-14.3-15.6-30.4 27.5 26.9z"/><path fill="#614a4a" d="M159.5 91.1l5.8 24.1-13.7 10.7 34.3 7.4z"/><path fill="#b6a2a7" d="M55 48l-13 93-12-82z"/><path fill="#352e2b" d="M156.8 89.5l6.1-24.3 14.7 2.9 2.1 16.2z"/><path fill="#b79da6" d="M141.2 170.2L158.5 21l2.5 89.8-3.1 9.5z"/><circle r="1" fill="#fff" transform="matrix(-.4329 -110.60312 23.223 -.0909 255 90.1)"/><path fill="#7e7d7d" d="M47 3h63v2H47z"/><path fill="#ffe89b" d="M68.4 33.4l-3.2 4-25.6-20.8 3.2-4z"/><path fill="#d96955" d="M212.4 151.1l2.3-3.5-20-6.6 13 11.7z"/><path fill="#17171d" d="M35 73l8-2-11 13z"/><path fill="#c54d64" d="M102.8 42.4L85.7 78.7l-16.5-7.1-1.9 4z"/><ellipse cy="96" fill="#fff" rx="24" ry="161"/><path fill="#c3dbe0" d="M76 109l-9 1-3-13z"/><path fill="#edddb1" d="M153.7 138.8l10.3 28.9 18-14.9-12.6-23.9z"/><path fill="#3d3c3a" d="M176 25h9v36h-9z"/><path fill="#e6d4b9" d="M169.3 38.6l-34.2-26.4 104.4 13.2-58-6.5z"/><path fill="#73676b" d="M194.5 141.9l-4.2-41-18.2.5 25.4-4.9z"/><path fill="#8d8d8f" d="M152 2h59v3h-59z"/><path fill="#e1e4e9" d="M39.8 82.6l-3.9-5-12.7 84.6 21.3-70.1z"/><path fill="#e0d4ce" d="M219 74l9 63-53-49z"/><path fill="#bc8e81" d="M197.8 54l.5 24.2-36.1-15.4 55.2 3z"/><path fill="#010c09" d="M55 73h13v10H55z"/><path fill="#b08b8c" d="M204 85l-40 44 23-10z"/><path fill="#c59e7d" d="M57.9 72.9l-7.5 4.6-18.2-17.1L59 57.7z"/><path fill="#e3b50e" d="M165 153l-9-13 11 7z"/><ellipse cx="128" cy="96" fill="#fff" rx="4" ry="83"/><path fill="#393a36" d="M83.6 102.4l-5.2 11-4.5-7.1 28.5 16.7z"/><path fill="#121712" d="M71.2 30.3L56.6 48.2l24.5 3.2-9.8-30.1z"/><circle cx="143" cy="76" r="5" fill="#545564"/><path fill="#897f95" d="M69 83.9L57.3 109l49.6-55.8L105 66z"/><ellipse cx="106" cy="97" fill="#dad3cc" rx="14" ry="24"/><path fill="#a29097" d="M81 153l20-22-23-26z"/><path fill="#c9969b" d="M148.2 71.8l-4-20.6 15.6-3 4 20.6z"/><path fill="#f2efdb" d="M-6.9 4.6l52.4 63.5-28.8 15 21.7-23.5z"/><path fill="#dcdcdb" d="M87.5 27.9l-10.3 3.7-2.7-7.5 10.3-3.7z"/><path fill="#39363a" d="M191.7 39.8l-20.3-2.5L157 32l9 17.8z"/><path fill="#9196b2" d="M36 109l5 34 14-34z"/><circle r="1" fill="#e9e4e0" transform="matrix(-1.35738 5.8172 -8.36772 -1.95251 89.8 45)"/><path fill="#f6e8da" d="M132 18h15v53h-15z"/><ellipse cx="62" cy="143" fill="#e1ca93" rx="3" ry="21"/><path fill="#d8dbdd" d="M168 108l4-13 3 13z"/><path fill="#da8c79" d="M192.7 63.8l-4.5 13.7-10.2-8.3 38.8-33.3z"/><path fill="#4c4a45" d="M71.6 109.3L58 128.5l-9.9-4 6.5-8.5z"/><path fill="#f4eeeb" d="M144 87v84l-33-79z"/><path fill="#805750" d="M164.6 98.5L189.1 75l5.1-3.4-5.3-3.5z"/><path fill="#b34374" d="M184 139h6v13h-6z"/><ellipse cx="170" cy="7" fill="#fff" rx="160" ry="3"/><path fill="#efe3da" d="M171.5 145.5L141.4 174l35.9 4.2 7.9-48.2z"/><path fill="#be364c" d="M57 94l-14 6 16 6z"/><path fill="#383923" d="M62.8 67.4l5.7 14.8 3.6-32.1-17.7 21.1z"/><path fill="#e7e8e6" d="M63 34L33 10l-4 17z"/><circle cx="82" cy="68" r="6" fill="#be1934"/><path fill="#beb3bf" d="M89 97l34-17-35-23z"/><circle r="1" fill="#2c2b2d" transform="rotate(-44 242 -186.6) scale(1.69402 11.36648)"/><path fill="#242422" d="M174.6 80.3l4.8 2-23.8-.7 18-18.1z"/><path fill="#8f5969" d="M155 65l2-7-15-4z"/><circle r="1" fill="#f2ede4" transform="matrix(8.25849 .16266 -.11488 5.83269 194.3 44.3)"/><path fill="#9d6384" d="M48 69l10-30-17 18z"/><path fill="#514347" d="M64.6 119.5L48.2 77l31.1 21.1-18 4.8z"/><path fill="#b0a1a9" d="M159 62l5-24-7-5z"/><path fill="#f2e4dc" d="M208 138l23 47v-63z"/><path fill="#fff" d="M232.4 6.5l-98.3-9 136.5 3.9-36 183.6z"/><path fill="#a4b9c0" d="M72.2 108l26.2-24.8-27 33.8-8.3-13.5z"/><path fill="#d6b77f" d="M99.3 120.7l4.8 20.2-12.7-12.5-.9-2.5z"/><path fill="#fff" d="M-16 15.1l59.5 26.6-6.8-23.6L3.2 144.4z"/><path fill="#c79a73" d="M188.1 117l21.6 23.5-1.8-3.5 1.5-9z"/><path fill="#aeacb0" d="M137 77h18v10h-18z"/></g></g></svg>