<svg xmlns="http://www.w3.org/2000/svg" viewBox="0 0 1120 1400"><defs/><filter id="prefix__a"><feGaussianBlur stdDeviation="12"/></filter><rect width="100%" height="100%" fill="#384e45"/><g filter="url(#prefix__a)"><g transform="translate(2.7 2.7) scale(5.46875)"><circle cx="114" cy="63" r="243" fill="#fff" fill-opacity=".5"/><circle cx="122" cy="82" r="213" fill="#fff" fill-opacity=".5"/><circle r="1" fill="#2b4c3d" fill-opacity=".5" transform="rotate(-54.2 221.6 -5.7) scale(62.82211 40.35118)"/><circle r="1" fill="#fff" fill-opacity=".5" transform="rotate(23.2 -210.4 147) scale(57.65791 202.99999)"/><path fill="#fff" fill-opacity=".5" d="M107 14.8l92.2-23L261 239.2l-92.1 23z"/><ellipse cx="124" cy="253" fill="#fff" fill-opacity=".5" rx="133" ry="29"/><path fill="#18372c" fill-opacity=".5" d="M77 162l59-36-46-20z"/><path fill="#2c4433" fill-opacity=".5" d="M130.5 139.9l-13.7 75 28.2-9.8 9.2-35.2z"/><circle cx="107" r="112" fill="#fff" fill-opacity=".5"/><ellipse cx="180" cy="160" fill="#fff" fill-opacity=".5" rx="29" ry="255"/><circle cx="41" cy="133" r="44" fill="#fff" fill-opacity=".5"/><ellipse cx="15" cy="178" fill="#fff" fill-opacity=".5" rx="32" ry="255"/><circle r="1" fill="#111e16" fill-opacity=".5" transform="matrix(17.24852 13.06921 -5.64542 7.45073 64 218)"/><circle r="1" fill="#fff" fill-opacity=".5" transform="matrix(3.22212 20.81363 -53.84478 8.33561 131.4 235)"/><path fill="#c5dfd3" fill-opacity=".5" d="M123 190l-7-36-40 44z"/><path fill="#fff" fill-opacity=".5" d="M219 271l-19-86-179 68z"/><path fill="#2f584f" fill-opacity=".5" d="M49 185l28-22-27 45z"/><circle r="1" fill="#d6d4d5" fill-opacity=".5" transform="matrix(44.95938 -3.78511 2.33014 27.67735 101.1 58.9)"/><circle r="1" fill="#fff" fill-opacity=".5" transform="matrix(-67.02755 -20.6944 7.21566 -23.37095 166.2 113)"/><path fill="#2e433b" fill-opacity=".5" d="M105.1 115.1l-8.2-8.6-12.1 12.2-.2 23.1z"/><circle r="1" fill="#fff" fill-opacity=".5" transform="rotate(149.5 67.3 89.1) scale(31.71025 58.36891)"/><circle r="1" fill="#fff" fill-opacity=".5" transform="matrix(-19.35141 15.78785 -78.3345 -96.01582 49.5 255)"/><path fill="#5e7166" fill-opacity=".5" d="M155.6 169.4l-13.3 39-24.8 5.2 2.9-93.5z"/><path fill="#fff" fill-opacity=".5" d="M0 0h76v169H0zm137 141l77 130-15-287z"/><path fill="#678279" fill-opacity=".5" d="M92 120l-27 68 23 36z"/><ellipse cx="101" cy="58" fill="#9f9f9f" fill-opacity=".5" rx="52" ry="2"/><ellipse cx="104" cy="34" fill="#a0a09f" fill-opacity=".5" rx="52" ry="2"/><path fill="#455148" fill-opacity=".5" d="M68.2 233.3l-23.7-20 69.1-.5-42.8 21.3z"/><ellipse cx="130" cy="10" fill="#fff" fill-opacity=".5" rx="203" ry="22"/><path fill="#868786" fill-opacity=".5" d="M83 65h57v3H83z"/><path fill="#799288" fill-opacity=".5" d="M117.9 130.5l17.7 53.6-36.7-44.2 2.4-7.1z"/><path fill="#2d4137" fill-opacity=".5" d="M117 129l16 23 3-25z"/><path fill="#a1a2a1" fill-opacity=".5" d="M56 73h70v3H56z"/><circle r="1" fill="#42584d" fill-opacity=".5" transform="matrix(4.37783 -21.83189 5.753 1.15362 141.8 177.6)"/><path fill="#fff" fill-opacity=".5" d="M-12 271L5-16l78 153z"/><path fill="#a3a3a2" fill-opacity=".5" d="M52 41h68v3H52z"/><path fill="#fff" fill-opacity=".5" d="M28 84h165v25H28z"/><ellipse cx="104" cy="82" fill="#9c9c9c" fill-opacity=".5" rx="42" ry="2"/><circle r="1" fill="#fff" fill-opacity=".5" transform="rotate(28.3 -337.8 429.4) scale(19.91229 73.06964)"/><path fill="#080805" fill-opacity=".5" d="M74 201h16v4H74z"/><path fill="#c1cfc9" fill-opacity=".5" d="M71.7 183.5l-16.2 12 5.9 2.6 21.3-15.5z"/><path fill="#a2a3a2" fill-opacity=".5" d="M67 49h67v3H67z"/><path fill="#0f110a" fill-opacity=".5" d="M80.7 211.9l-.3-1 21-6.8.2 1z"/><path fill="#2f3c37" fill-opacity=".5" d="M56.3 208.9L53 193.7l24 26.1-5.2 16.8z"/><circle r="1" fill="#879a8c" fill-opacity=".5" transform="matrix(-1.13685 15.53287 -7.72746 -.56557 122.2 197.5)"/><ellipse cx="111" cy="46" fill="#fff" fill-opacity=".5" rx="158" ry="3"/><ellipse cx="77" cy="54" fill="#fff" fill-opacity=".5" rx="177" ry="3"/><path fill="#fafff9" fill-opacity=".5" d="M79.3 213.5l-.4.9-16.2-7.9.4-.9z"/><path fill="#bdd8cf" fill-opacity=".5" d="M84 207H66l-6-9z"/><path fill="#aabfb7" fill-opacity=".5" d="M43.7 213.2l10.3 4.7 9.2 23.8-15.7-42z"/><path fill="#31463c" fill-opacity=".5" d="M118 119l-32 3 8-14z"/><path fill="#949494" fill-opacity=".5" d="M126 73h24v3h-24z"/><path fill="#495b52" fill-opacity=".5" d="M148.7 160.2l-29.5-34.5 12.7 76.5-21.2-68.9z"/><ellipse cx="89" cy="70" fill="#fff" fill-opacity=".5" rx="166" ry="3"/><path fill="#2d3529" fill-opacity=".5" d="M102 204l1-10 10 4z"/><path fill="#29342c" fill-opacity=".5" d="M89.7 170.2l-.9-.4 15.5-28 .9.4z"/><path fill="#527067" fill-opacity=".5" d="M53.7 178.6l-6.3 22.3 8.4 4 9.6-33.6z"/><circle r="1" fill="#fff" fill-opacity=".5" transform="rotate(40.9 -312.8 194.3) scale(64.96808 25.34838)"/><path fill="#fff" fill-opacity=".5" d="M-2 134l92-34-17 65zm21.9-54.3l61.4-4.4 134.2 2.8-120.9 3.2z"/><path fill="#fff" fill-opacity=".5" d="M149 0h55v157h-55z"/><path fill="#fff" fill-opacity=".5" d="M0 60h204v4H0z"/><path fill="none" stroke="#ecf3ee" stroke-opacity=".5" stroke-width=".5" d="M121 140.5q7 19.4 7 32.2"/><path fill="#8fb1a5" fill-opacity=".5" d="M132 154h5v17h-5z"/><circle r="1" fill="#fff" fill-opacity=".5" transform="matrix(8.8565 23.64307 -51.15308 19.16152 124 240.2)"/><path fill="#a4b6ac" fill-opacity=".5" d="M87.5 202.7l7.8.3 27.1-19.1-41.8-3.6z"/><path fill="#5e7d75" fill-opacity=".5" d="M104.8 150.9l-15.3-27.3-22 58.7 41.4-32.8z"/><path fill="#8d8d8c" fill-opacity=".5" d="M120.6 43.4l-.1-1 25-1.8v1z"/><path fill="#77887f" fill-opacity=".5" d="M136 130.2l-49.5-16.7 39.8 5.4 13.4 14.9z"/><path fill="#9baaa0" fill-opacity=".5" d="M123.6 148.2l-11.8-19.3 13.1 9.3 8.6 55.9z"/><path fill="#fff" fill-opacity=".5" d="M144.9 128.4l20.1 98.2L219 49 88.1 104.6z"/><ellipse cx="126" cy="12" fill="#fff" fill-opacity=".5" rx="195" ry="20"/><path fill="#fff" fill-opacity=".5" d="M61-16L40 271-16 45z"/><ellipse cx="65" cy="66" fill="#959595" fill-opacity=".5" rx="7" ry="2"/><path fill="#fff" fill-opacity=".5" d="M41 36h115v4H41z"/><path fill="#3a4641" fill-opacity=".5" d="M71.3 203.4l3.6-16.7 20.2-21.2-26.7 29.4z"/><circle r="1" fill="#34473d" fill-opacity=".5" transform="matrix(-.91706 -.39875 10.76476 -24.75725 97.6 141.3)"/><path fill="#e4e2da" fill-opacity=".5" d="M70 211h19v2H70z"/><path fill="#0a140d" fill-opacity=".5" d="M85.4 167.5l-.9-.5 14.1-26.5.9.5z"/><path fill="#121b16" fill-opacity=".5" d="M56 216l16-3-1 14z"/><path fill="#7a8e82" fill-opacity=".5" d="M74 233l-4-5 23-7z"/><path fill="#a0beb2" fill-opacity=".5" d="M73.6 179.8l15.8-12.6-6.7 13.3 35-9.7z"/><path fill="#fff" fill-opacity=".5" d="M106.8 72.3l28.1 56.4 20.2 47.7 63.9 47.1z"/><ellipse cx="65" cy="50" fill="#a4a3a4" fill-opacity=".5" rx="10" ry="2"/><path fill="#2c382d" fill-opacity=".5" d="M71 223.5l-.4-1 38.5-14 .3 1z"/><path fill="#79a49c" fill-opacity=".5" d="M50.2 189.4l6.9-13.4 13.7 2.3 11.7-23z"/><path fill="#fff" fill-opacity=".5" d="M71 166l-48 28 70-97z"/><path fill="#43534c" fill-opacity=".5" d="M54.4 198.5L86 223.7l-30.1-8.2 7.9-43.5z"/><path fill="#eaf9f0" fill-opacity=".5" d="M108 143l-7 8 7-4z"/><ellipse cx="82" cy="188" fill="#2d3532" fill-opacity=".5" rx="5" ry="2"/><path fill="#000500" fill-opacity=".5" d="M80 203.2l-.4.9-9.7-5.3.5-.9z"/><circle cx="112" cy="133" r="2" fill="#fefff6" fill-opacity=".5"/><path fill="#a8c1b7" fill-opacity=".5" d="M83 187l44 1-12-33z"/><path fill="#aeb2a5" fill-opacity=".5" d="M137 187.6l-12.8 10.9 9.2-11.6-7.1-24.1z"/><path fill="#beccc5" fill-opacity=".5" d="M60.4 207.1l-.3-12.4 14.2-8.4-10.6-2z"/><circle r="1" fill="#4d615a" fill-opacity=".5" transform="matrix(-6.22451 16.53526 -.93589 -.3523 80.3 152)"/><path fill="#abd8c8" fill-opacity=".5" d="M91 164l-8 6 10-13z"/><path fill="#273129" fill-opacity=".5" d="M127.5 156.3l1-.3 10 37.7-1 .3z"/><path fill="#42574d" fill-opacity=".5" d="M146 172l-10-36-20-9z"/></g></g></svg>