<svg xmlns="http://www.w3.org/2000/svg" viewBox="0 0 1400 1400"><defs/><filter id="a"><feGaussianBlur stdDeviation="12"/></filter><rect width="100%" height="100%" fill="#49362d"/><g filter="url(#a)"><g fill-opacity=".5" transform="translate(2.7 2.7) scale(5.46875)"><circle r="1" fill="ivory" transform="matrix(-93.2311 186.99265 -188.08014 -93.7733 139.8 157.5)"/><circle r="1" fill="#fff" transform="matrix(-242.0591 -4.39387 .76592 -42.19443 146.7 249.7)"/><circle r="1" fill="#fff" transform="rotate(105.9 85.3 106.4) scale(87.28384 55.34655)"/><circle cx="49" cy="46" r="108" fill="#ff7a38"/><circle r="1" fill="#5d3d25" transform="matrix(2.41885 31.43573 -206.98033 15.92627 209.3 170.6)"/><circle r="1" fill="#29150c" transform="matrix(2.52254 -15.56346 38.24391 6.19862 228 149)"/><circle r="1" fill="#ffa979" transform="rotate(-6.7 338.6 -551.8) scale(43.28627 117.30995)"/><ellipse cx="172" cy="8" fill="#eefafb" rx="19" ry="142"/><path fill="#c65336" d="M103 26h52v110h-52z"/><ellipse cx="112" cy="143" fill="#e6f5de" rx="82" ry="7"/><path fill="#1f1207" d="M50 202l-65 6 41-17z"/><ellipse cx="113" cy="183" fill="#ecebcc" rx="82" ry="3"/><ellipse cx="190" cy="238" fill="#e9f1e2" rx="255" ry="30"/><path fill="#d7ddda" d="M154 52h102v82H154z"/><ellipse cx="82" cy="166" fill="#d1cbb3" rx="207" ry="3"/><circle r="1" fill="#f7fef6" transform="matrix(-9.77352 -3.26539 5.8044 -17.37295 3.2 170.5)"/><ellipse cx="236" cy="193" fill="#554235" rx="154" ry="10"/><path fill="#5a3933" d="M71 172.9l-60.3-.1L69.3 152l-47.1 33.6z"/><ellipse cx="213" cy="172" fill="#641a16" rx="154" ry="4"/><path fill="#c2593f" d="M-16 160l49-22L2-11z"/><path fill="#849073" d="M0 145h97v12H0z"/><ellipse cx="99" cy="204" fill="#e3dfb2" rx="70" ry="2"/><ellipse cx="207" cy="180" fill="#cec197" rx="64" ry="4"/><ellipse cx="73" cy="142" fill="#faffff" rx="45" ry="3"/><circle r="1" fill="#f1875f" transform="matrix(69.47893 -15.02188 7.24577 33.513 86 102.6)"/><ellipse cx="68" cy="19" fill="#ffae7d" rx="28" ry="81"/><path fill="#764734" d="M100 56h52v12h-52z"/><path fill="#e1e4cf" d="M49.2 170.8l-32.5 13-1.9-4.6 32.5-13z"/><path fill="#765640" d="M97 27h63v11H97z"/><path fill="#e8e5c6" d="M105.5 169.3l-67 2.4v-3l67-2.4z"/><circle r="1" fill="#dfe4dd" transform="matrix(-.15266 -6.72697 24.95353 -.56627 7.6 159.4)"/><path fill="#c95f3b" d="M85 119h68v19H85z"/><ellipse cx="230" cy="144" fill="#00080d" rx="41" ry="3"/><path fill="#59402f" d="M167 149h52v14h-52z"/><circle r="1" fill="#e1e8e7" transform="matrix(9.27287 22.80144 -28.54958 11.61052 184.6 16)"/><circle r="1" fill="#aba48a" transform="matrix(-1.18441 -3.27333 27.46553 -9.93803 33.5 185.6)"/><path fill="#ffab7a" d="M54.8.3L113.4-16l17.9 35 1 14.1z"/><path fill="#a28a76" d="M227.1 148.3l-74.7-4.8 78.4-19.9-50 26.7z"/><path fill="#1a0000" d="M25 165l13-1-28 18z"/><ellipse cx="125" cy="207" fill="#8a805d" rx="62" ry="2"/><path fill="#fcfff8" d="M4 191l12-9-32 9z"/><ellipse cx="112" cy="155" fill="#e9e3c6" rx="51" ry="1"/><path fill="#9a988b" d="M148 228h45v5h-45z"/><circle r="1" fill="#ea7e55" transform="matrix(-14.28824 2.48698 -16.0675 -92.3113 21.9 40.8)"/><path fill="#e2e4e1" d="M160.6-6.6l-5.5 119.3 2 35.7 60.3-79.9z"/><ellipse cx="146" cy="7" fill="#d66344" rx="9" ry="27"/><circle r="1" fill="#b1b4ab" transform="matrix(33.64311 .07268 -.00813 3.76271 98.5 230.5)"/><path fill="#ffa26c" d="M99.6 40.1L121 28.2l-7.9 31.9 1.3 12.6z"/><ellipse cx="152" cy="199" fill="#7e483f" rx="130" ry="4"/><ellipse cx="118" cy="195" fill="#9dabb7" rx="72" ry="1"/><path fill="#4c2623" d="M39.8 167.1l-10.6-2.4 28.4-2.7 48.8-.5z"/><path fill="#776840" d="M37 146h61v3H37z"/><path fill="#cbcbad" d="M99 165h56v5H99z"/><path fill="#caccc6" d="M214.1 49.3L292 63l-14 79.7-78-13.7z"/><path fill="#d3e0df" d="M16 271l33-63-65 2z"/><path fill="#c2b597" d="M64 179h72v8H64z"/><ellipse cx="109" cy="142" fill="#f4eedd" rx="28" ry="5"/><path fill="#452c26" d="M18 182.4l14.3-1.9L5 195.7l28.2-29.4z"/><path fill="#817452" d="M160 174h74v5h-74z"/><path fill="#fa9c6d" d="M89.9 33.1l-21.7 67.8 38.9-5.3 9.1-11.5z"/><path fill="#e3ddad" d="M271 170.4l-36-1.8v-1l36 1.8z"/><ellipse cx="5" cy="142" fill="#985c40" rx="24" ry="10"/><ellipse cx="180" cy="188" fill="#151e18" rx="131" ry="1"/><path fill="#5d0f16" d="M42.5 176.3v-1l87-1.6v1z"/><ellipse cx="154" cy="143" fill="#ccbf9d" rx="33" ry="7"/><circle r="1" fill="#efffff" transform="matrix(19.97514 -1.8944 .2025 2.13524 50.4 143.5)"/><path d="M98 23.5h1l-1 13h-1z"/><path fill="#cecaaf" d="M71.7 178.9l.5 3L14.3 193l-.5-3z"/><path fill="#b5a77a" d="M289.4 158l-70.8-5v-1l70.8 5z"/><path fill="#be5c45" d="M153 74.2l2 61-16 .6-2-61z"/><path fill="#cd5a51" d="M49 197h138v2H49z"/><path fill="#f8b78b" d="M102.2 36.6L115.1-16 39.5 15.6 89.3 2.1z"/><path fill="#d43229" d="M193 135h16v7h-16z"/><path fill="#5d241b" d="M8 180.2L25.4 167l.6.8L8.5 181z"/><path d="M110 26h3v12h-3zm30 29h2v11h-2z"/><path fill="#e18967" d="M122 53h11v50h-11z"/><path fill="#8a4c37" d="M118 43h23v9h-23z"/><path d="M108.5 65.3l-5.8-8 .8-.6 5.8 8z"/><circle r="1" fill="#222a21" transform="matrix(-1.17712 3.67168 -43.25391 -13.86698 250.4 148.4)"/><path d="M149 58h2v10h-2z"/><path fill="#edefc2" d="M57.5 151v-1l61-1v1z"/><path fill="#5c5246" d="M77 202l-82 1 35-14z"/><path fill="#d43e30" d="M247 144l2-9 11 7z"/><circle r="1" fill="#735f40" transform="rotate(-3.6 2496.6 -1083) scale(31.72462 1)"/><path fill="#a09c7b" d="M182 152h37v2h-37z"/><path fill="#c1c6c9" d="M186.8 140l-26.7-6.8 13.1-6 95.5-23.1z"/><path fill="#20292c" d="M157.7 36l-7.4 2.4 10.1-2.6-9.7-9.3z"/><path fill="#ed845c" d="M102 134l-64 6 86-68z"/><ellipse cx="221" cy="199" fill="#421c0f" rx="101" ry="1"/><path fill="#fe8e60" d="M130-16l11 41H96z"/><ellipse cx="93" cy="167" fill="#c6c1ae" rx="44" ry="3"/><path fill="#492320" d="M41 183l4-10-23 10z"/><path fill="#0d0905" d="M135.5 25.8l-4 18.6-1-.2 4-18.6z"/><path fill="#f69563" d="M116 32l-8-15 27 24z"/><ellipse cx="196" cy="205" fill="#b4a174" rx="61" ry="3"/><ellipse cx="106" cy="190" fill="#a49a7e" rx="58" ry="1"/><path fill="#3d1015" d="M227 160l44-6-18 11z"/><path d="M104.1 34.1l1.8-6.7 2 .5-1.8 6.7z"/><path fill="#3a2c22" d="M29 206l-11-12-17 11z"/></g></g></svg>