<svg xmlns="http://www.w3.org/2000/svg" viewBox="0 0 1163 930"><defs/><filter id="a"><feGaussianBlur stdDeviation="12"/></filter><rect width="100%" height="100%" fill="#443c3b"/><g filter="url(#a)"><g fill-opacity=".5" transform="translate(2.3 2.3) scale(4.54297)"><circle cx="93" cy="63" r="234" fill="#fff"/><circle r="1" transform="matrix(52.36903 -38.31356 31.79573 43.4601 133.6 161)"/><circle r="1" fill="#fff" transform="matrix(-254.91262 6.67512 -1.65742 -63.29416 143.4 45.1)"/><ellipse cx="31" cy="134" fill="#fff" rx="38" ry="203"/><circle r="1" fill="#fff" transform="matrix(27.79849 -172.26252 36.24045 5.84822 232.6 152.9)"/><circle r="1" fill="#131516" transform="rotate(59.1 -55.7 139) scale(17.11668 29.08409)"/><path fill="#fff" d="M127 197l-15-48 19-20z"/><circle r="1" fill="#f8fafb" transform="matrix(-18.76771 9.16269 -64.03933 -131.1702 203.4 108.9)"/><path fill="#1b1d1d" d="M144.8 219l39.6-111-29.6-11.7-27.7 34.8z"/><path d="M127 69h24v10h-24z"/><ellipse cx="29" cy="161" fill="#f4f6f7" rx="48" ry="57"/><path fill="#f5f6f7" d="M205 219l-47-39 93-6z"/><path fill="#f6f7f8" d="M164.2 63l-97.7 8.6L59.8-5l97.7-8.5z"/><path fill="#1a1c1c" d="M108 71.6l16.6 70.7-28.2-70.5-.5-3.6z"/><ellipse cx="97" cy="193" fill="#242626" rx="25" ry="50"/><path fill="#fff" d="M107.1 114.8l-10.7 2.7L91 95.2l10.7-2.7zM176 143h6v27h-6z"/><path fill="#979998" d="M182.1 54.5l63.6-25.3-67.3-6.6 61.5 32.3z"/><path fill="#141617" d="M150.9 84.2l-.6-11.7-13.5-8.6 10.8 23.9z"/><path fill="#2f3030" d="M81.3 162.2l-10-50.9-11 20.9 121.9-26.3z"/><circle r="1" fill="#e4e5e5" transform="rotate(-72.8 199 18.2) scale(32.64503 2.19973)"/><circle r="1" fill="#e8e9e9" transform="matrix(-19.75448 32.74738 -72.34211 -43.63955 246.3 119.5)"/><path fill="#2d2e2e" d="M152.2 90.3l10.9 85.8 17-31.2 23.1 4.5z"/><ellipse cx="201" cy="10" fill="#f6f8f9" rx="41" ry="16"/><path fill="#fff" d="M115.9 101.1l21.2 3.8-9.7 12.8-5.6-11.9z"/><path fill="#020404" d="M171 219l8-34-37 34z"/><ellipse cx="96" cy="82" fill="#7f8181" rx="10" ry="15"/><path fill="#2e2f30" d="M188 181l11-33-14-29z"/><path fill="#919394" d="M137 107l18-13-31-18z"/><path fill="#e8e9e9" d="M31 126L75-3l12 104z"/><path fill="#2a2a2a" d="M71.7 132.6l41.9-1.8-28-26.4-20.8 17.8z"/><path fill="#e8e9e9" d="M121.9 178.5l3.2 18.2 6.9-44.1-7.4 11.1z"/><path fill="#d6d6d6" d="M116.1 138.4l13.4.6-1.8 16.6-16.4 5.1z"/><ellipse cx="63" cy="203" fill="#d6d6d6" rx="11" ry="76"/><path fill="#646464" d="M71 137l5 30-9-19z"/><circle r="1" fill="#373737" transform="matrix(-19.14937 -17.0016 20.3321 -22.9006 157.8 130)"/><path fill="#fbfdfc" d="M158 182h25v4h-25z"/><ellipse cx="111" cy="116" fill="#2c2c2c" rx="6" ry="28"/><path fill="#e5e5e5" d="M165.5 219L271 195.8 250.4-16l-58.6 189z"/><path fill="#e4e5e5" d="M271 126.2L135.9 65.1l-19.2 19.3L29.8-16z"/><path fill="#ccc" d="M108 82l-8 39-6-48z"/><path fill="#2b2c2c" d="M126.5 213.7l62.6 1.5-52.9-42.9-9 21.2z"/><path d="M90 73l6-4 14 7z"/><ellipse cx="168" cy="35" fill="#e4e4e4" rx="22" ry="67"/><path fill="#898a8a" d="M189 27h46v7h-46z"/><path fill="#343536" d="M140.3 66.5l-10.3 4 18.5 15 1.8.1z"/><path fill="#272929" d="M181 159h8v23h-8z"/><path fill="#898b87" d="M193 47h37v8h-37z"/><path fill="#353535" d="M109.4 74.1l4 39.9-.2 65-8.1-106.4z"/><circle r="1" fill="#e3e3e3" transform="matrix(47.30783 66.07888 -20.34062 14.56245 177.1 67.4)"/><ellipse cx="9" cy="95" fill="#e5e5e5" rx="57" ry="119"/><path fill="#f4f5f5" d="M182.9 151.2l-5.1 22.4-1.7-21.2 3.5-.4z"/><path fill="#414141" d="M76 159l-3 55 46-109z"/><path fill="#282929" d="M180.5 121.7l-6.9 55.8-23.7 5.3 12.2-9.2z"/><path fill="#ececec" d="M123 165h4v39h-4z"/><path fill="#313131" d="M166 134l-51 3 23-31z"/><path fill="#3a3a3a" d="M125.1 182.7l-65 36.3 23.7-27.2 26.4-44.5z"/><path fill="#e8e8e8" d="M7 168h66v36H7z"/><path fill="#e0e0e0" d="M221.4 99.7l-98.2-5.9 73.1-15.4 2.9 134.6z"/><ellipse cx="169" cy="188" fill="#d6d7d7" rx="4" ry="6"/><path fill="#c5c7c5" d="M223.4 42l-2.9 2.6-13.8 15.1-5.2-36.1z"/><path fill="#3d3e3e" d="M87 78h2v77h-2z"/><path fill="#aeaeae" d="M61 132h12v29H61z"/><path fill="#e4e5e5" d="M0 0h84v107H0z"/><path fill="#2e2f2f" d="M89.7 131.3l-13.3-21.2 12-7.4 13.2 21.2z"/><path fill="#dbdcdb" d="M222.1 26.6l-.1 24.1 3.8 9.7 4.6-43.9z"/><path fill="#3a3a3a" d="M156.3 93.2l-12.8 21.7-16.3 43.8 71.8-16.5z"/><circle r="1" fill="#2f2f2f" transform="matrix(-5.80368 -3.66893 11.09652 -17.55295 154.4 203)"/><path fill="#dfe0e0" d="M131.8 101.9L101.1-.2l15.3 106.1L130 116z"/><path fill="#303030" d="M93 125l41 2-18-25z"/><path fill="#f1f3f2" d="M204 43l-11-15 8 23z"/><path fill="#1b1b1b" d="M128 72h20v5h-20z"/><path fill="#e4e4e4" d="M147.8 91.4l99 49.9-37.9-94.7 7.1 3.7z"/><circle r="1" fill="#bfbfbf" transform="matrix(5.03474 4.37663 -8.10966 9.3291 93.4 84.9)"/><path fill="#343434" d="M196 159l-16 10 16-23z"/><ellipse cx="138" cy="174" fill="#373737" rx="7" ry="70"/><path fill="#e6e6e6" d="M60 0h131v42H60z"/><path fill="#020300" d="M206 36h1v9h-1z"/><path fill="#e4e4e4" d="M133 174l-8 12 6-4z"/><path d="M227.5 48h1v8h-1z"/><path fill="#dfe0e0" d="M160.3 181.7l19.2-2.8 2.2 31.4 39-26.3z"/><path fill="#e5e6e6" d="M73 143h5v13h-5z"/><path fill="#e4e4e4" d="M107.4 72.4L5.4 37.9l202.1-1.2-31.6 26.2z"/><path d="M203 49h2v7h-2z"/><path fill="#404040" d="M131.4 219L71.5 108.7l3.6 18 6.2 52.3z"/><path fill="#e5e5e5" d="M269.6 211.2L271-16l-81.7 140.1 35.5 83.7z"/><path fill="#444" d="M75 104.5l-10.8 23.8 32.3 18.3 3.9-3z"/><path fill="#4f4f50" d="M129.5 90.9l-4-15.5 1-.3 4 15.5z"/><path fill="#fafafa" d="M190 35h40v2h-40z"/><path fill="#434343" d="M145 65.5l6.8 15.5-4.7 11.3v-17z"/><path fill="#f7f7f7" d="M117 140l-3 13 8-2z"/><path fill="#ecedeb" d="M218 45h3v27h-3z"/><path fill="#393a3a" d="M131 157h46v19h-46z"/><path fill="#636362" d="M232 26.2l-13.2 16.3-.8-.7 13.2-16.3z"/><path fill="#d8d9da" d="M128 78h16v6h-16z"/><path fill="#595855" d="M207 55.6l-.9-.4 6.9-18.8.9.4z"/><path fill="#e5e5e5" d="M115.9 54.5L268.6-2.6-16-4.3l11.6 142.8z"/><path fill="#e6e6e6" d="M235 37l-32-25 10-17z"/><path fill="#bcbcbc" d="M87.1 91l22.8-4.6-10.1 26.7.6 9.9z"/><path fill="#3d3d3d" d="M91 207.4l-24.5-65.3 8.3 15.8 51.2-43.2z"/></g></g></svg>