<svg xmlns="http://www.w3.org/2000/svg" viewBox="0 0 1120 1400"><defs/><filter id="a"><feGaussianBlur stdDeviation="12"/></filter><rect width="100%" height="100%" fill="#343434"/><g filter="url(#a)"><g fill-opacity=".5" transform="translate(2.7 2.7) scale(5.46875)"><circle cx="129" cy="99" r="210" fill="#fcfcfc"/><circle r="1" transform="matrix(9.3075 -113.20925 72.09896 5.92761 101.7 204.8)"/><ellipse cx="203" cy="125" fill="#fff" rx="31" ry="255"/><ellipse cx="13" cy="87" fill="#fff" rx="19" ry="255"/><circle r="1" fill="#fff" transform="matrix(-1.2183 41.5938 -202.91298 -5.94341 100.6 35.6)"/><path fill="#070707" d="M137 84h37v100h-37z"/><path fill="#111" d="M30 99h54v157H30z"/><circle r="1" fill="#fafafa" transform="matrix(-14.52758 1.41057 -3.11524 -32.08415 101.3 176)"/><path d="M106.3 48l4.2-21.6 39.2 7.6-4.2 21.6z"/><path fill="#fff" d="M172 258.2l7-197.9 43 1.5-7 197.9z"/><path fill="#272727" d="M82 39L48 27l49 107z"/><path fill="#fff" d="M-6.2 264.8l-3.6-203 38-.6 3.6 203zm117.6-156l-21-17 18.2-22.6 21 17z"/><ellipse cx="143" cy="240" fill="#070707" rx="31" ry="60"/><ellipse cx="78" cy="11" fill="#fff" rx="150" ry="20"/><path fill="#e2e2e2" d="M56 43h17v67H56z"/><circle r="1" fill="#fff" transform="matrix(21.11353 .03592 -.30198 177.50821 194.6 133.8)"/><path fill="#cacaca" d="M102 146h11v88h-11z"/><ellipse cx="3" cy="115" fill="#fff" rx="27" ry="255"/><path fill="#232323" d="M46.3 84L30.8 96.7l.5 63.7 35.9-37.8z"/><circle r="1" fill="#aeaeae" transform="matrix(-7.18887 -24.52355 18.69306 -5.47971 129.4 71.8)"/><circle r="1" fill="#2c2c2c" transform="matrix(20.56338 8.51742 -21.01888 50.74535 142.7 131.7)"/><path fill="#242424" d="M129.3 28.3l14.9 2 6 21.8-7.5 14.8z"/><path fill="#1f1f1f" d="M36.8 64.6L48 36.8l33.6 10.7-20.3-18z"/><circle r="1" fill="#232323" transform="matrix(5.57023 25.33484 -10.0601 2.21186 83.8 94.4)"/><ellipse cx="77" cy="251" fill="#1f1f1f" rx="24" ry="80"/><path fill="#fff" d="M170.6 271l48.4-69.2-63.6 17.9 20.9 9.5z"/><circle cx="190" cy="53" r="38" fill="#fff"/><path fill="#fff" d="M-16 173l59-99-23-90z"/><path fill="#eee" d="M104.5 28l-27.8.9L82 62.3l28.2 48z"/><path fill="#343434" d="M167 84l7 59-147 6z"/><path fill="#f0f0f0" d="M97.9 173l1.2-16.6-7.5-9-8 30.5z"/><path fill="#bdbdbd" d="M39.2 64.8l17.4-25.3 20 26.3-13.5 47.4z"/><path fill="#343434" d="M99.5 195.4l71.9-97.2-139.3 28.1 89.1 21.7z"/><path fill="#202020" d="M62 30l16 11 7 33z"/><path fill="#1a1a1a" d="M100 45l47-3-16-15z"/><path fill="#b4b4b4" d="M85.6 208.2l1.8 3.4 29 6.9 2.7-11.8z"/><path fill="#e7e7e7" d="M122.3 46.2l17 .9-20.5 16.1-8.1-16.3z"/><path fill="#252525" d="M160.3 100.7L149.7 78l10-4.7L170.3 96z"/><path fill="#131313" d="M110 228h63v28h-63z"/><path fill="#ebebeb" d="M123 93l-14 17-14-59z"/><ellipse cx="192" cy="142" fill="#fff" rx="19" ry="255"/><ellipse cx="141" cy="179" fill="#333" rx="28" ry="55"/><path fill="#e1e1e1" d="M45 69l26 29-7 17z"/><path fill="#3a3a3a" d="M43.3 86.1l-13.6 33.1 19.7-25.6-8.5-41.9z"/><ellipse cx="11" cy="189" fill="#fff" rx="19" ry="255"/><path fill="#3d3d3d" d="M30 253l2-121 59-35z"/><path fill="#dfdfdf" d="M112.7 34L87.8 75.6 68.3-3l106 9.2z"/><path fill="#383838" d="M171.7 168L126 85.7l-2.4 9.2-34.9 43.3z"/><path fill="#7c7c7c" d="M65.4 77.5L42.5 53.2 70.2 61 52.1 77.7z"/><path fill="#737373" d="M149 54.1l-37 15.8-7.6-27.7 12.8 17.7z"/><path fill="#a2a2a2" d="M101.8 287.5l-5-.6 9.4-76.4 5 .6z"/><circle r="1" fill="#1c1c1c" transform="matrix(4.45625 -6.29378 1.5101 1.0692 46.8 41)"/><path fill="#e3e3e3" d="M136.7 96.2l18.7-37.4L123-16l63 51.7z"/><path fill="#1e1e1e" d="M31 216h70v40H31z"/><path fill="#cdcdcd" d="M101 144h13v19h-13z"/><path fill="#303030" d="M70.8 95.5L81 59.7l7.1 27 55.9 66.1z"/><path fill="#313131" d="M150 85h23v123h-23z"/><path fill="#e6e6e6" d="M70.7 22.9l-32.9 19L29.3 27 62.2 8z"/><path fill="#9b9b9b" d="M84 189h20v7H84z"/><path fill="#1f1f1f" d="M30 94h20v5H30z"/><path fill="#474747" d="M119 140l-75 21-13-24z"/><circle cx="161" cy="224" r="4" fill="#b1b1b1"/><path fill="#363636" d="M88.1 191.2l19.5-31.5-54.4 71.8 6.1-82.5z"/><path fill="#d9d9d9" d="M112 114L88 77l23-13z"/><path fill="#fff" d="M174 89h30v167h-30z"/><path fill="#303030" d="M111.6 214l-1.3-4.8 60-27.6-53.7-15.1z"/><path fill="#c3c3c3" d="M137 97l12-25-26 12z"/><circle r="1" fill="#c4c4c4" transform="matrix(-1.8451 -.70262 5.53797 -14.54297 89.5 159)"/><path fill="#393939" d="M68.4 38.7l9.4-.6-36.5 4.5L55 32.3z"/><path fill="#202020" d="M173 209l-72 50 71-84z"/><ellipse cx="6" cy="195" fill="#fff" rx="24" ry="255"/><path fill="#3f3f3f" d="M114.9 173l-39.7 51 31.5-46.7 54.1-37.2z"/><path fill="#303030" d="M137.5 167.9l-66.9-59.2L105 101l14.8 50.7z"/><path fill="#828282" d="M82 229h37v3H82z"/><path fill="#dfdfdf" d="M53.4 42.5l5.3 31.9.1-12.1L70 44.9z"/><path fill="#3e3e3e" d="M149.4 47.9L109 37.2l6.2-4.4 19-7z"/><path fill="#dadada" d="M146.9 33.6l3 42 24-56.3-66.1 2.1z"/><path fill="#dbdbdb" d="M133 46v33l8-20z"/><ellipse cx="189" cy="39" fill="#fff" rx="16" ry="255"/><path fill="#1f1f1f" d="M108.1 248l68 23-3.8-31.8 1.3-16.8z"/><path fill="#333" d="M72 149l-41-43 14-29z"/><path fill="#e7e7e7" d="M113 208h2v14h-2z"/><ellipse cx="35" cy="60" fill="#e0e0e0" rx="6" ry="33"/><path fill="#242424" d="M42 45h2v17h-2z"/><path fill="#c6c6c6" d="M98 190h21v6H98z"/><path fill="#c8c8c8" d="M74 101L51 90l11 24z"/><path fill="#323232" d="M106.5 145.3l28.1-63.6-62.1 98.8-3.9-30z"/><path fill="#313131" d="M137.4 54.1l-2.6-22.7 14.2 20-5.8 9.3z"/><path fill="#969696" d="M151.8 71.6l-17.9 19.9-29.6-44.7 17.1 43.1z"/><path fill="#303030" d="M151 76h10v25h-10z"/><circle cx="127" cy="61" r="4" fill="#4c4c4c"/><path fill="#5d5d5d" d="M44 62h11l-4-7z"/><path fill="#d7d7d7" d="M108.9 113.3l3.2 11.4-5.4-70.8 8.7 41.9z"/><path fill="#e0e0e0" d="M176.9 13.5L25.5 22.1l58.3 15.8 24.8-4.2z"/><path fill="#2f2f2f" d="M92.9 184.5l-56.4-32.1 58.1 42.3-4.3 76.3z"/><path fill="#191919" d="M113 193h5v14h-5z"/><path fill="#1b1b1b" d="M108.6 41l.8 14h-2l-.8-14z"/><path fill="#e5e5e5" d="M113 55l13 14-8-20z"/><ellipse cx="149" cy="142" fill="#3a3a3a" rx="24" ry="44"/></g></g></svg>