<svg xmlns="http://www.w3.org/2000/svg" viewBox="0 0 1400 1400"><defs/><filter id="a"><feGaussianBlur stdDeviation="12"/></filter><rect width="100%" height="100%" fill="#454c3d"/><g filter="url(#a)"><g fill-opacity=".5" transform="translate(2.7 2.7) scale(5.46875)"><circle cx="111" cy="99" r="217" fill="#fff"/><circle cx="106" cy="157" r="227" fill="#fff"/><circle r="1" fill="#fff" transform="matrix(-56.15807 6.96897 -31.40351 -253.05893 12.2 114.5)"/><ellipse cx="231" cy="126" fill="#fff" rx="35" ry="255"/><ellipse cx="25" cy="110" fill="#fff" rx="32" ry="255"/><ellipse cx="230" cy="130" fill="#fff" rx="31" ry="255"/><circle r="1" fill="#e3c39d" transform="rotate(-86.2 120.4 -5) scale(74.96664 43.96675)"/><circle r="1" fill="#fffbf7" transform="matrix(-138.60646 -28.72422 10.45316 -50.44088 89.7 239.3)"/><circle r="1" fill="#96a989" transform="matrix(16.5712 24.49916 -14.61455 9.88527 172.3 189)"/><path fill="#7c7332" d="M134.5 123.1l24.5-18.2-8.2 19.4-1.9 27.5z"/><path fill="#bab9bc" d="M56 2h113v55H56z"/><circle cx="241" cy="121" r="66" fill="#fff"/><circle r="1" fill="#fff" transform="matrix(31.03288 .0994 -.49652 155.01241 25 118.2)"/><circle r="1" fill="#373004" transform="matrix(-3.845 4.32394 -3.37091 -2.99753 132 160.8)"/><ellipse cx="232" cy="166" fill="#fff" rx="33" ry="255"/><path fill="#1c3100" d="M89 153h6v14h-6z"/><path fill="#fbe8d5" d="M162 45l-46 135-6-119z"/><path fill="#9c8325" d="M112.8 191.6l11.5 2.9-16.4-38 5.3 41.1z"/><path fill="#695440" d="M79 124.1l.2-2 18.2-10 6.3 8.1z"/><path fill="#7e544a" d="M177.7 74.1L158 95.3l-3.6-3.4L174 70.7z"/><circle cx="165" cy="169" r="6" fill="#1b3f00"/><path fill="#c7ae93" d="M111 105L50 68l96 4z"/><path fill="#868888" d="M114 32h22v23h-22z"/><circle r="1" fill="#c8dceb" transform="matrix(-12.96737 .6688 -4.41404 -85.58464 186.8 101.2)"/><path fill="#2a0708" d="M101 83l-12-8 7-2z"/><ellipse cx="68" cy="190" fill="#ded4cf" rx="13" ry="164"/><circle r="1" fill="#a36615" transform="matrix(3.2723 1.11082 -2.4037 7.0809 108.1 142.4)"/><path fill="#6b786a" d="M194.9 215.1l7.1-1.8-43.2-17 23.6 17.6z"/><path fill="#ebe4d0" d="M144.6 173.3l48.8 17.7-34.2 12.8L164 94.7z"/><path fill="#f3e7df" d="M92.8 202.6L81.7 271 111 161.7l-15.7-36.6z"/><path fill="#dfdddf" d="M92 38h28v37H92z"/><path fill="#8a3f00" d="M109.8 102.5l-5.8-1.3 2.2-9.7 5.8 1.3z"/><path fill="#8d9340" d="M155.1 152.9l-15.3-35.5.7 17.9 4.5 11.6z"/><ellipse cx="27" cy="66" fill="#fff" rx="29" ry="255"/><path fill="#fde6c8" d="M142 145l-26-59-21 47z"/><ellipse cx="228" cy="46" fill="#fff" rx="29" ry="255"/><ellipse cx="135" cy="227" fill="#b1a9a3" rx="43" ry="2"/><path fill="#818388" d="M85 13h114v2H85z"/><path fill="#19389a" d="M86 178l1.8-3.7 8.1 3.8-1.7 3.6z"/><path fill="#6f6c68" d="M153.3 119.6l-5.1-10.5-15.5 22 1.8.8z"/><path fill="#f1e9df" d="M148 122l14 43 18-64z"/><path fill="#726f24" d="M88.7 115.2l7 7-8.4 8.6-7-7z"/><path fill="#f4e4d1" d="M117 71l-50 48 26-2z"/><path fill="#757474" d="M110 32h36v6h-36z"/><ellipse cx="111" cy="169" fill="#253f0e" rx="3" ry="5"/><path fill="#f0dfd1" d="M129.4 130.2l21.3 20.4L89 175.1l-6.2-1z"/><path fill="#97beb5" d="M182.9 197.1l-3.6-25.7 17.8-2.5 3.6 25.7z"/><path fill="#fcecdb" d="M132 202l-11.7-11 17.7-19 11.7 11z"/><path fill="#e0e1e2" d="M139 68l19-84 6 92z"/><path fill="#8e7d4d" d="M152 184l-4 6 15 6z"/><path fill="#3c5818" d="M125.7 179.8l5.8-8.1.8.5-5.8 8.1z"/><path fill="#494c0e" d="M132 166l-7-3 13-8z"/><path fill="#9b9a99" d="M87 11h5v59h-5z"/><path fill="#7a7a77" d="M112.4 48.8l2.3 7.3 25.9-7.9 1 6.8z"/><path fill="#746153" d="M117 143l5-6-18 4z"/><path fill="#7f924f" d="M145.2 133.9l6 9.8 9.8 15.9-18.2-17.7z"/><path fill="#000031" d="M92 87h3v6h-3z"/><path fill="#c6c5c2" d="M56-3l35-6-35 123z"/><path fill="#e8eae6" d="M141 153h53v12h-53z"/><path fill="#485200" d="M90 154h6v7h-6z"/><path fill="#f5e6d4" d="M124.6 40.6l3.3 73.4 64.9-24.1-52.6 9.8z"/><path fill="#859976" d="M170.8 166l-30.8 1.3 51.6 5.7-29.3-13.4z"/><circle cx="84" cy="88" r="3" fill="#4c3200"/><path fill="#9f9f9b" d="M178 235v-6l16 5z"/><path fill="#eddfce" d="M114.3 127.2L94 151.9l-26 17.2-2-38z"/><path fill="#c68c44" d="M118 83l7 9-5 7z"/><circle r="1" fill="#5c5c1e" transform="matrix(-2.55571 -.12947 .2724 -5.37721 111 173.2)"/><path fill="#e3d1c0" d="M100.6 117.6l-45.7 18.6 91.8-17.3L64 144.8z"/><path fill="#ede2d7" d="M93.2 180.8l-30.6-10.5 70.5 61.4-37.6-77.9z"/><circle cx="117" cy="186" r="6" fill="#bb9028"/><path fill="#c4c0b7" d="M57 71h145v5H57z"/><path fill="#eedbc1" d="M105 74h57v13h-57z"/><path fill="#f9f2e7" d="M123 162l6 14-17 2z"/><path fill="#000065" d="M163.3 88.7l-6.1 3.4-.5-.8 6.1-3.4z"/><path fill="#f0ecec" d="M155 192l-93 19 117 8z"/><ellipse cx="111" cy="198" fill="#c9c8c5" rx="40" ry="3"/><path fill="#fff" d="M0 0h56v256H0z"/><path fill="#997a25" d="M85.6 169.5L79.5 157l.9-.4 6.1 12.6z"/><path fill="#f9f3f2" d="M32.3 225.1l41.4 5-37.9 11.1 183.9-2.4z"/><path fill="#092000" d="M81 120h7v4h-7z"/><path fill="#d5d5d5" d="M94.5 18.9L133.4 40 111 42.1l42.9-26.6z"/><path fill="#27307e" d="M96 112h5v5h-5z"/><path fill="#f2e6d2" d="M141.9 151l-27.5 6.6 11.9-40.9 50.6 84.5z"/><path fill="#f5ddc2" d="M98.8 111l5 19.6 28.7 3.3 20.6-53.6z"/><path fill="#d6e8f0" d="M196.1 143.9l-.4 26-24.4-1.6-4.6 14.2z"/><path fill="#835513" d="M163.2 78.9l8.8-1.7.8 3.9-8.8 1.7z"/><circle cx="145" cy="117" r="4" fill="#3d59b5"/><path fill="#655f61" d="M187 210h12v5h-12z"/><path fill="#bfb2a2" d="M76 70h2v127h-2z"/><path fill="#48541a" d="M135 158l-1 6 7-11z"/><path fill="#9a9b9d" d="M164 41h3v31h-3z"/><path fill="#d2a940" d="M142 133l14 3-20-18z"/><path fill="#596a28" d="M146 125l7-9-11 5z"/><path fill="#4a5703" d="M87 161h5v6h-5z"/><path fill="#476335" d="M162 174l13-10-18 3z"/><path fill="#efe9db" d="M147.1 175.6l-16.5-5.3-.9 1.2 7.3-11.1z"/><circle cx="107" cy="141" r="3" fill="#804d00"/><ellipse cx="132" cy="66" fill="#f0e8e3" rx="31" ry="7"/><ellipse cx="120" cy="255" fill="#f3e3d5" rx="65" ry="16"/><path fill="#74a37f" d="M178 213l-16-12 16-1z"/></g></g></svg>