<svg xmlns="http://www.w3.org/2000/svg" viewBox="0 0 1400 1400"><defs/><filter id="prefix__a"><feGaussianBlur stdDeviation="12"/></filter><rect width="100%" height="100%" fill="#384e45"/><g filter="url(#prefix__a)"><g transform="translate(2.7 2.7) scale(5.46875)"><circle cx="117" cy="124" r="195" fill="#fff" fill-opacity=".5"/><circle cx="62" cy="118" r="241" fill="#fff" fill-opacity=".5"/><circle r="1" fill="#29493b" fill-opacity=".5" transform="matrix(24.39486 28.9065 -48.04997 40.5505 126 184)"/><circle r="1" fill="#fff" fill-opacity=".5" transform="matrix(62.00853 19.78576 -60.48136 189.5485 62 72.5)"/><circle r="1" fill="#fff" fill-opacity=".5" transform="matrix(-57.24521 13.42674 -58.22947 -248.26262 216.5 108.1)"/><path fill="#092c20" fill-opacity=".5" d="M103 171l62-41-50-25z"/><path fill="#fff" fill-opacity=".5" d="M266 227.5L50.3 301.8 34 254.5l215.5-74.3z"/><circle r="1" fill="#fff" fill-opacity=".5" transform="matrix(-10.10039 175.17255 -51.49634 -2.96926 32 122.8)"/><circle r="1" fill="#fff" fill-opacity=".5" transform="matrix(70.92281 -31.00966 60.383 138.10315 221.1 82.8)"/><circle r="1" fill="#3e5043" fill-opacity=".5" transform="matrix(2.41697 28.19362 -13.56438 1.16284 165 177.5)"/><circle r="1" fill="#fff" fill-opacity=".5" transform="matrix(3.49904 29.36941 -80.75267 9.62078 169.8 243.2)"/><path fill="#091813" fill-opacity=".5" d="M77.7 192.8l28.9 33.2-8.3 7.2L69.4 200z"/><path fill="#fff" fill-opacity=".5" d="M254-16l10 172L94 98z"/><circle cx="60" cy="246" r="32" fill="#fff" fill-opacity=".5"/><path fill="#a2bdb4" fill-opacity=".5" d="M97.7 157l39.7-13.6 15 43.5-39.8 13.7z"/><circle r="1" fill="#fff" fill-opacity=".5" transform="matrix(50.76585 -200.26362 61.30378 15.5402 55 60.3)"/><path fill="#d5d4d4" fill-opacity=".5" d="M84 33h91v53H84z"/><path fill="#4a655c" fill-opacity=".5" d="M94 183l69-58-44-16z"/><circle r="1" fill="#fff" fill-opacity=".5" transform="rotate(106.9 32.8 168.8) scale(88.8069 26.52054)"/><path fill="#fff" fill-opacity=".5" d="M-1.9-16l-11.8 252 112.9-69.8 21.5-72.8z"/><path fill="#3d6058" fill-opacity=".5" d="M79 177.5l-6.2 15.6 6.4 24.9L91 175.4z"/><circle r="1" fill="#fff" fill-opacity=".5" transform="matrix(35.196 -20.94862 57.04342 95.83925 223 165)"/><path fill="#2d362f" fill-opacity=".5" d="M80 214h43v10H80z"/><path fill="#fff" fill-opacity=".5" d="M45 191.7l71 61.7-27 31-71-61.8z"/><path fill="#314439" fill-opacity=".5" d="M162.3 129.9l1.9 24.1-10.4-5.6-14.1-27z"/><circle r="1" fill="#fff" fill-opacity=".5" transform="matrix(201.45235 2.84628 -.44113 31.22216 114.8 .8)"/><path fill="#586b60" fill-opacity=".5" d="M174 202l-31-59 11 69z"/><path fill="#748981" fill-opacity=".5" d="M150.9 138.5l-17.4-10.9-1.7-.3L92.7 214z"/><path fill="#fff" fill-opacity=".5" d="M107 84h63v25h-63z"/><path fill="#b8cec5" fill-opacity=".5" d="M120.3 191.5l26.4.3-3.6-38.3-39.9 46.6z"/><path fill="#787878" fill-opacity=".5" d="M131 65h40v3h-40z"/><circle r="1" fill="#fff" fill-opacity=".5" transform="rotate(69 -103.5 229.7) scale(28.10365 107.83334)"/><ellipse cx="224" cy="189" fill="#fff" fill-opacity=".5" rx="45" ry="255"/><path fill="#141a16" fill-opacity=".5" d="M101.4 198.3l-8.4-1.5 8.9 7.1 22.5 1.3z"/><path fill="#3e4841" fill-opacity=".5" d="M85 223l11 11 15-8z"/><ellipse cx="128" cy="58" fill="#a0a0a0" fill-opacity=".5" rx="51" ry="2"/><path fill="#a3a3a3" fill-opacity=".5" d="M81 81h86v3H81z"/><path fill="#3a4b43" fill-opacity=".5" d="M145.3 132.3l-35.1-3.6 1.5-13.3 13.3-6.9z"/><path fill="#fff" fill-opacity=".5" d="M109 137l-125 17 112 15z"/><ellipse cx="122" cy="74" fill="#a3a3a3" fill-opacity=".5" rx="52" ry="2"/><ellipse cx="128" cy="42" fill="#9c9b9c" fill-opacity=".5" rx="44" ry="2"/><path fill="#b8cbc5" fill-opacity=".5" d="M98.1 181.6l-9.2 22.5-18.7-16.7-.1 22.2z"/><path fill="#fff" fill-opacity=".5" d="M86.5-16l-15 230.5L132 271l-148-18z"/><ellipse cx="129" cy="34" fill="#a5a5a5" fill-opacity=".5" rx="49" ry="2"/><path fill="#464942" fill-opacity=".5" d="M115.8 215.8l-7.1-7.5 26.4-5-2.2-10.4z"/><path fill="#fff" fill-opacity=".5" d="M271 256.7L184.4 165l-14.9 43.8-124.2 46.4z"/><ellipse cx="161" cy="46" fill="#fff" fill-opacity=".5" rx="225" ry="3"/><path fill="#fff" fill-opacity=".5" d="M118 106L13 271-16-4z"/><path fill="#a3a3a3" fill-opacity=".5" d="M82 49h85v3H82z"/><ellipse cx="133" cy="54" fill="#fff" fill-opacity=".5" rx="198" ry="3"/><ellipse cx="142" cy="38" fill="#fff" fill-opacity=".5" rx="196" ry="3"/><path fill="#46594e" fill-opacity=".5" d="M160 147l20 22-8 19z"/><path fill="#fff" fill-opacity=".5" d="M70 69h105v4H70z"/><path fill="#486259" fill-opacity=".5" d="M74 199.5l16-26.6 6 3.6-16 26.6z"/><path fill="#fff" fill-opacity=".5" d="M215 78L101 90l62 35zM0 60h256v4H0z"/><path fill="#f5fef9" fill-opacity=".5" d="M98.6 212l-.8.6L83.4 196l.8-.6z"/><path fill="#c1d3cd" fill-opacity=".5" d="M88.7 193.8l28.7-16.6-14.7 6-14.4 4.3z"/><path fill="#aab4ac" fill-opacity=".5" d="M162 186l-11-15v-17z"/><path fill="#1f2823" fill-opacity=".5" d="M107.5 180.7l-.7-.7 13.7-14.7.7.7z"/><ellipse cx="129" cy="13" fill="#fff" fill-opacity=".5" rx="255" ry="19"/><path fill="#b0c3bb" fill-opacity=".5" d="M154 145l-12-14 10 22z"/><path fill="#3b504a" fill-opacity=".5" d="M154 174l-7 5 2-30z"/><ellipse cx="104" cy="78" fill="#fff" fill-opacity=".5" rx="216" ry="3"/><path fill="#202c28" fill-opacity=".5" d="M154 134.6l5 34.7-1 .1-5-34.7z"/><path fill="#708375" fill-opacity=".5" d="M169.5 204.9l-71.5 28-3.9-1 61.5-38.3z"/><path fill="#fff" fill-opacity=".5" d="M119 94L22 210l77-45z"/><path fill="#d4e7dc" fill-opacity=".5" d="M130 150l10-6h-9z"/><path fill="#fff" fill-opacity=".5" d="M164.8 149.4l99.5 95.6L271-6.9l-92.9 5.4z"/><path fill="#192621" fill-opacity=".5" d="M100 188h12v3h-12z"/><path fill="#27322e" fill-opacity=".5" d="M83 214h21v12H83z"/><path fill="#6c958d" fill-opacity=".5" d="M79 176.8l31.9-12.1 15.4-29.9-36.8 52z"/><path fill="#9fc3b8" fill-opacity=".5" d="M160.5 171.1l-3.9-13.4 3-.8 3.8 13.4z"/><ellipse cx="120" cy="66" fill="#afafaf" fill-opacity=".5" rx="41" ry="2"/><path fill="#b9c8bf" fill-opacity=".5" d="M122.4 198.6l14.2-11-16.4 18-2.5-33z"/><path fill="#101a16" fill-opacity=".5" d="M127.8 123.6l-6.7 25-1-.2 6.8-25z"/><path fill="#799690" fill-opacity=".5" d="M116 125l-4 22 13-23z"/><path fill="#677f78" fill-opacity=".5" d="M151.2 139.9l-30 38.1-15.2-33.6 16.7 23.9z"/><path fill="#0a1715" fill-opacity=".5" d="M95 193h4v9h-4z"/><path fill="#fff" fill-opacity=".5" d="M98 212h16v1H98z"/><path fill="#b1cdc7" fill-opacity=".5" d="M87 191.8l2.5-1.7 9.5 14.1-2.5 1.7z"/><path fill="#b4e1d0" fill-opacity=".5" d="M89.3 183.9l17-8.7.4 1-17 8.6z"/><path fill="#3a423a" fill-opacity=".5" d="M109.1 211.8l19.3-8.9 11.5-3.4-8.6 4.5z"/><path fill="#63776b" fill-opacity=".5" d="M177.5 180.7l-33.1 13.1 4.7 16.4 19.1-1.2z"/><circle r="1" fill="#323f3a" fill-opacity=".5" transform="matrix(3.2699 3.46286 -4.03846 3.81342 118.3 115.3)"/><path fill="#fff" fill-opacity=".5" d="M168 261l-184-6 81-34z"/><circle r="1" fill="#fff" fill-opacity=".5" transform="matrix(2.6198 17.25061 -21.7113 3.29722 89 135)"/><path fill="#fff" fill-opacity=".5" d="M85.7 195.3l-.7-.8 11.3-9.8.7.8z"/><path fill="#9eaba3" fill-opacity=".5" d="M148.5 138.6l-13.5-4.9-1.8 13.2 5.8-16.4z"/><path fill="#5f6b62" fill-opacity=".5" d="M112.6 211.8l-14.5 12.9 33.6-4.1-1.7-9.8z"/><path fill="#fff" fill-opacity=".5" d="M129.1 109.8l29.4 11.9L211 249.5 271 6z"/><path fill="#4c6157" fill-opacity=".5" d="M160.9 137.4l8.9 20.1 5.7 3.8-10.8 43.6z"/><circle r="1" fill="#4c5e56" fill-opacity=".5" transform="rotate(-108.9 112.7 58.8) scale(1 18.4316)"/><path fill="#aeaeae" fill-opacity=".5" d="M166 72h10v5h-10z"/><circle r="1" fill="#24362f" fill-opacity=".5" transform="rotate(28.8 -238.2 308.2) scale(1 12.8106)"/><path fill="#90a89e" fill-opacity=".5" d="M144.2 120.8l-.3 1-24.1-6.6.3-1z"/><path fill="#fff" fill-opacity=".5" d="M159 84l-74 44-18-43z"/><path fill="#abc1b9" fill-opacity=".5" d="M138 193l-29-6 34-28z"/><path fill="none" stroke="#c4cac5" stroke-opacity=".5" stroke-width=".5" d="M130.9 147.6q-13.3 26.3-18.6 31"/><path fill="#52655c" fill-opacity=".5" d="M160.1 124.6l-30.2-11.9 39.2 58-8.8-44.2z"/></g></g></svg>