<svg xmlns="http://www.w3.org/2000/svg" viewBox="0 0 1400 1400"><defs/><filter id="a"><feGaussianBlur stdDeviation="12"/></filter><rect width="100%" height="100%" fill="#444"/><g filter="url(#a)"><g fill-opacity=".5" transform="translate(2.7 2.7) scale(5.46875)"><circle cx="57" cy="104" r="255" fill="#fff"/><circle cx="138" cy="136" r="217" fill="#fff"/><circle cx="152" cy="168" r="243" fill="#fff"/><path fill="#858585" d="M69 94h110v19H69z"/><circle cx="89" cy="64" r="255" fill="#fff"/><path fill="#999" d="M139.3 87.9l37.2 76.8-85.8-.7-5.8-14.8z"/><path fill="#7c7c7c" d="M73 92h76v19H73z"/><circle r="1" fill="#fff" transform="matrix(-167.21448 -.71337 .2463 -57.73319 138.2 34.7)"/><path d="M165.3 91.5l3.3-2.4 14 19.4-3.2 2.4zM103 145h4v19h-4z"/><path fill="#202020" d="M151.1 141.1l.7 26.9-15.1-23.3-3.9 23.1z"/><path fill="#fff" d="M271 245L-16 109 3 271z"/><circle r="1" fill="#fff" transform="rotate(-83.1 202.2 -46.3) scale(108.12505 55.48497)"/><ellipse cx="165" cy="151" rx="3" ry="10"/><path d="M86 142l11 19-21-19z"/><path fill="#fff" d="M0 112h256v32H0z"/><path d="M110 118h3v21h-3z"/><path fill="#373737" d="M111.5 151.2l1.6 13.2 14.2-46.1-22.8 45.9z"/><path d="M94 113l7-4-4-16z"/><path fill="#fff" d="M100 127V90l26 17z"/><path d="M73 91h4v21h-4zm63.6 63l-1-.4 13.8-37.6 1 .4z"/><ellipse cx="140" cy="74" fill="#fff" rx="3" ry="93"/><path fill="#fff" d="M92.2 82.4l41.5 23.7L123.2-16-16 141.4z"/><path fill="#4a4a4a" d="M132 139.3l-5.3-3.4.5.9 7.4-22.4z"/><circle r="1" fill="#fff" transform="matrix(-4.03933 69.65047 -3.9449 -.22878 79.8 124.3)"/><path d="M125.6 105.4l-12.2-7 1-1.8 12.2 7z"/><path fill="#fff" d="M139 138h8v65h-8z"/><path fill="#fff" d="M135.6 137.5L129.1 271l36.9-88.2-66.7-44.3z"/><path d="M156 105h5v6h-5zm-23-13h3l1 26h-3zm-5.4 25.4l-8.3 21.5-.9-.3 8.3-21.5z"/><ellipse cx="35" cy="129" fill="#fff" rx="37" ry="255"/><ellipse cx="87" cy="102" rx="3" ry="8"/><path fill="#fff" d="M87.7 64.7l6-.3 2.6 51-6 .2zM151 124h11v132h-11zm-30.2-39l19.3 34.4-11.7-1.7-.5-30.7zm46.2 26h89v145h-89z"/><path d="M135 147.5h4v17h-4zm44.1-37.9l-.8.5-9.4-17.7.8-.5z"/><path fill="#fff" d="M179.3 105.3L255 271l16-287L96.7-7.5z"/><path d="M73.2 111l-.4-18h4l.4 18zm56.5 44l2.5 1.8-6 8.1-2.4-1.7z"/><path fill="#fff" d="M96 140h6v116h-6z"/><path d="M82.2 142.5L96.6 163l-.8.5L81.4 143z"/><circle r="1" transform="matrix(-2.03165 -.06415 .1909 -6.04575 145.4 102)"/><path fill="#fff" d="M271 255L96.8 167.2 6 34.4l-22 225.7z"/><path d="M167.2 144.6l-1.4 19-3-.2 1.4-19z"/><path fill="#fff" d="M85 130.4l.9-31-11.1-25.3 4.1 39.1z"/><path d="M152 143l-4 5 1 10zm-16.3 10l-1-.4 13.6-35.5 1 .3z"/><path fill="#fff" d="M85 137.3l82 1.4v6l-82-1.4z"/><ellipse cx="115" cy="152" rx="2" ry="9"/><path fill="#fff" d="M116 149h9v97h-9zm12.5-6.8l4-.3 3 42-4 .2zm21.2-21.3l-3.1-24.2 26.5-5.9-1.7-17.3z"/><path fill="#484848" d="M174.5 146l-29-1v-1l29 1z"/><ellipse cx="97" cy="98" rx="2" ry="7"/><path d="M132 117l3 7h-3z"/><path fill="#0d0d0d" d="M102.2 137.5l4.4 17-2.8 10.8-1.2-4.1z"/><path fill="#fff" d="M107 139h5v88h-5z"/><path d="M146.7 163.6l-.4-9 5-.2.4 9z"/><path fill="#fff" d="M81 112h84v6H81zm70 12h5v132h-5zm-53-12l15-22 1 13z"/><path fill="#252525" d="M104 103l1-6-3 5z"/><path fill="#fff" d="M162.5 134.6L159 54.8l13.1 168.5 59.4 19.7zM93 94l9 69-16-21z"/><path d="M154.6 122l-.9-.4 1.7-3.6.9.4zm5.4-26l-2-5h-2zm5.7-2.7l1.6-1.3 9 10.7-1.6 1.3z"/><ellipse cx="167" cy="195" fill="#fff" rx="237" ry="32"/><path fill="#6d6d6d" d="M117.4 108.3l-15.6 2.5-15.7.5 30.1.8z"/><ellipse cx="119" cy="101" rx="4" ry="2"/><ellipse cx="111" cy="125" rx="1" ry="9"/><path d="M82.1 92.7l.6-.8 7.2 5.4-.6.8z"/><path fill="#fff" d="M46 138h119v6H46z"/><path d="M97.9 95.8l3 .6-2.8 13.8-3-.6zm29.3 10.4l-11.7-5.7 1.3-2.7 11.7 5.7z"/><path fill="#fff" d="M-16-16l151.5 73.7 3.7 59.1 21-100.2z"/><ellipse cx="88" cy="102" rx="3" ry="5"/><ellipse cx="130" cy="81" fill="#fff" rx="3" ry="44"/><path d="M113 148h3v14h-3z"/><path fill="#fff" d="M78 97h8v10h-8z"/><path d="M144.7 102.7l1-.2 1.6 6.8-1 .2z"/><path fill="#fff" d="M271 11.2L93.8-16l88.8 134.9-28.7-17.2z"/><path d="M163.8 163.7l-2.5-12.8 3-.6 2.4 12.8z"/><path fill="#fff" d="M108 153l-1 19 26 11z"/><ellipse cx="135" cy="101" rx="2" ry="11"/><circle cx="141" cy="119" r="2" fill="#1b1b1b"/><path d="M135 144h4v18h-4z"/><path fill="#fff" d="M100 89h4v22h-4zm42.7 19l13.5 9.6-22.8 1-2.8 1.3zm-32.8 42.6l12.1-11.3-22.6 1.6 5.7-11.1z"/><path d="M143.4 96.5l2.1 10.8-1 .2-2-10.8zm-11.6 29.3l-2.6 10.7-1-.3 2.6-10.7z"/><path fill="#323232" d="M179 109h-1l1-14h1z"/><path fill="#fff" d="M178.6 103.3l5.4-60.5-41.7 56-30.5-84.3zM138 115l-6 14 6 14z"/><path d="M144.2 107l-2-.6 3.6-11.4 2 .6z"/></g></g></svg>