<svg xmlns="http://www.w3.org/2000/svg" viewBox="0 0 1400 1120"><defs/><filter id="a"><feGaussianBlur stdDeviation="12"/></filter><rect width="100%" height="100%" fill="#4a372e"/><g filter="url(#a)"><g fill-opacity=".5" transform="translate(2.7 2.7) scale(5.46875)"><circle r="1" fill="#ffffd8" transform="rotate(-29.6 199.7 -171.7) scale(251.8139 125.82299)"/><circle r="1" fill="#fff" transform="matrix(56.36326 10.151 -15.09117 83.7935 209.9 51.3)"/><circle cx="60" cy="52" r="97" fill="#ff7a44"/><circle r="1" fill="#765a48" transform="rotate(80.6 -21.3 192.9) scale(40.37857 193.65778)"/><circle r="1" fill="#ffaa79" transform="matrix(-39.89435 4.75711 -12.6342 -105.95352 65 45.3)"/><circle r="1" fill="#e7f0f6" transform="matrix(-16.71695 44.47473 -23.4411 -8.81093 183 102.1)"/><ellipse cx="108" cy="143" fill="#e1f3e1" rx="80" ry="7"/><path fill="#7c6654" d="M271 205l-46-80-229 79z"/><path fill="#2b1a12" d="M190 136h59v27h-59z"/><ellipse cx="139" cy="58" fill="#c55239" rx="16" ry="85"/><path fill="#dae1e1" d="M155 0h101v134H155z"/><ellipse cx="219" cy="181" fill="#d9d4b0" rx="183" ry="4"/><path fill="#f4fdff" d="M-16 152.4l45.4 1.8-43 53-2.4-60.7z"/><path fill="#ca5c3f" d="M41 134L-2-16l-14 176z"/><circle r="1" fill="#604440" transform="matrix(49.58237 -10.1599 .93984 4.58663 60.7 162.6)"/><ellipse cx="162" cy="166" fill="#e0dbbe" rx="121" ry="3"/><ellipse cx="119" cy="111" fill="#e66949" rx="36" ry="26"/><path fill="#e4e2b4" d="M55 202h201v2H55z"/><ellipse cx="187" cy="171" fill="#671f1b" rx="128" ry="4"/><path fill="#9b563e" d="M93.9 64.6l39.3-37.2 25.8 1.9-6.6 38.2z"/><path fill="#6b6b43" d="M0 145h97v4H0z"/><ellipse cx="90" cy="13" fill="#ffad7b" rx="55" ry="14"/><path fill="#cdcbc3" d="M271 142L249-16l-69 134z"/><circle r="1" fill="#e4eaea" transform="rotate(3.5 -183.8 2925.3) scale(22.16982 112.73852)"/><path fill="#360f13" d="M53.7 161.3l-35.3 7.1-10.5 16.4 12.6-8.8z"/><path fill="#473733" d="M-6 203l39-14 48 12z"/><path fill="#051515" d="M235.7 136l-31-4.4 66.3 19.3-79.3-6.8z"/><path fill="#f7ffff" d="M37 140h84v5H37z"/><path fill="#8b593f" d="M168.3 34l-66.4 4.5-12.3-12.9 35.6 1.3z"/><ellipse cx="159" cy="189" fill="#444535" rx="113" ry="4"/><path fill="#a84328" d="M156 135l-59-1 57-15z"/><path fill="#c7b897" d="M135 136h61v12h-61z"/><path fill="#3a1011" d="M58.8 170.6l1.2 3.9-48.8 14.9-1.2-3.9z"/><circle r="1" fill="#ff9c6e" transform="rotate(58.3 -27.8 98.3) scale(58.89636 32.11659)"/><circle r="1" fill="#ec8158" transform="rotate(-97.9 41.3 20.2) scale(77.11323 13.91721)"/><ellipse cx="64" cy="183" fill="#d4d1bb" rx="35" ry="3"/><path fill="#dcd9b3" d="M38 168h88v2H38z"/><ellipse cx="235" cy="184" fill="#53452f" rx="53" ry="2"/><path fill="#5e3f36" d="M87 156h135v6H87z"/><ellipse cx="82" cy="173" fill="#6c1e23" rx="38" ry="3"/><ellipse cx="130" cy="197" fill="#aa3735" rx="88" ry="2"/><ellipse cx="184" cy="176" fill="#95835e" rx="71" ry="3"/><path fill="#b1a37a" d="M284.4 157l-92.9-5v-1l93 5z"/><path fill="#c7c4a7" d="M77 154h89v2H77z"/><path fill="#e8754e" d="M56 113h40v25H56z"/><circle r="1" fill="#726a4c" transform="rotate(-92.8 125 26) scale(1.70616 50.42516)"/><circle r="1" fill="#f8ae7f" transform="matrix(17.85468 4.34574 -13.25526 54.45992 76 38.6)"/><path fill="#aa3a34" d="M194 133h21v9h-21z"/><path fill="#804027" d="M122.9 72.4l-4.1-39.2 1.3 28.6-24.4-5.9z"/><path d="M150.5 26.1l4 .9 6.4 12.9-15.4-20.5z"/><circle r="1" fill="#b0b39a" transform="matrix(-.84172 -2.97458 20.96437 -5.93232 26.8 188.8)"/><path fill="#eb8a62" d="M99.6 65.3l39.8 3.5-3 33.9-39.8-3.5z"/><path d="M99.7 26.8l-2.5 10.7-1-.3 2.6-10.7z"/><path fill="#81734a" d="M59 144h26v5H59z"/><ellipse cx="184" cy="194" fill="#8f9fa9" rx="134" ry="1"/><path fill="#c5beb0" d="M33.2 168.1l79.8-4.7-90.3 12-8.7 7.4z"/><path fill="#fd8c5c" d="M137.1-2.2L128.8-16l-17.2 89.3-6.7-24.3z"/><path d="M144 70l-4-4 1-10z"/><path fill="#ad6448" d="M-16 148.4L.2 43.6l16.9 98.6 31.2 12.2z"/><path fill="#1d120c" d="M100.4 53.5l2.7 2 8.1 10.9-2.4.4z"/><path fill="#dbdece" d="M-16 162.9l53.4-9.1-33 26.6-5.3 28.3z"/><path fill="#430000" d="M8 176h5v7H8z"/><path fill="#b1b7bc" d="M178 122h78v11h-78z"/><circle r="1" fill="#513631" transform="rotate(177.1 34.2 82) scale(49.32732 1)"/><path fill="#e1d5b3" d="M30 203h207v1H30z"/><path fill="#f0e6d0" d="M89 137h59v9H89z"/><path d="M149 60h2v7h-2z"/><ellipse cx="230" cy="179" fill="#bfab87" rx="41" ry="4"/><ellipse cx="199" cy="163" fill="#d0c9b6" rx="27" ry="1"/><ellipse cx="112" cy="183" fill="#ccc0a9" rx="33" ry="3"/><path fill="#28352f" d="M209 133h18v11h-18z"/><path fill="#a2937b" d="M49 189h80v2H49z"/><circle r="1" fill="#603d33" transform="rotate(-90.6 162.6 36.2) scale(1 122.47296)"/><path fill="#f6b88d" d="M92.1 7.5L55.3 9.9 105.1-16l-1.4 56.6z"/><path fill="#e3e8dc" d="M1 192l12-10-10-2z"/><path fill="#6f4137" d="M103 169h68v10h-68z"/><path fill="#baa87b" d="M256 170.4l-34-1.8v-1l34 1.8z"/><ellipse cx="105" cy="32" fill="#000708" rx="2" ry="5"/><circle r="1" fill="#effefe" transform="matrix(.28683 1.6267 -14.68285 2.58898 44.7 143.3)"/><path fill="#f79362" d="M110.8 41.8l47.2-1.6-59-5.1-12.8 53.7z"/><path fill="#ec8158" d="M114 0h40v26h-40z"/><path fill="#0b0b06" d="M115 57l1 11-3-1z"/><path fill="#4c2d2c" d="M31 168l20-11 24 3z"/><ellipse cx="109" cy="54" fill="#ff9b6d" rx="44" ry="2"/><path fill="#3f2519" d="M206 153l-45.8 4.9-.1-1 45.7-4.8z"/><path d="M110.4 23.2l-.4 4 .6 11.3 2-3.1z"/><ellipse cx="163" cy="25" fill="#e9ece9" rx="5" ry="113"/><path fill="#000a0d" d="M192 143h46v3h-46z"/><path d="M136 52.8l-3 12.6-1-.2 3-12.6z"/><path fill="#bcb699" d="M145.3 140l41-2 .4 10-41 2z"/><path fill="#34362a" d="M-14.6 215.7L14 195.3l17.9-5.9-25.2 19.8z"/><ellipse cx="244" cy="37" fill="#d0cbba" rx="50" ry="20"/><path fill="#643b2d" d="M221.1 177.7l-40-9.5 28-.7 1.5 12.1z"/><path d="M132 29h3v10h-3z"/><path fill="#4b2624" d="M271 159.8l-64.3-7.1 1.1 6.8 50.3 6.8z"/><ellipse cx="60" cy="180" fill="#b4a98a" rx="23" ry="4"/><ellipse cx="93" cy="176" fill="#c4ac86" rx="43" ry="1"/><ellipse cx="169" cy="187" fill="#35342d" rx="65" ry="2"/><path fill="#f18f67" d="M126.8 94.5l11.4-81.2 1 .2-11.4 81.2z"/><path fill="#f99b6d" d="M121.5 18.9l12.4 25-8.8-48.1L.8 30z"/></g></g></svg>