<svg xmlns="http://www.w3.org/2000/svg" viewBox="0 0 1400 1400"><defs/><filter id="a"><feGaussianBlur stdDeviation="12"/></filter><rect width="100%" height="100%" fill="#343434"/><g filter="url(#a)"><g fill-opacity=".5" transform="translate(2.7 2.7) scale(5.46875)"><circle cx="148" cy="98" r="218" fill="#fff"/><circle r="1" transform="matrix(-11.69664 103.88877 -72.4488 -8.15687 127.2 195.7)"/><ellipse cx="25" cy="88" fill="#fff" rx="34" ry="255"/><ellipse cx="231" cy="126" fill="#fff" rx="33" ry="255"/><ellipse cx="159" cy="32" fill="#fff" rx="250" ry="46"/><ellipse cx="184" cy="114" rx="17" ry="40"/><path fill="#fefefe" d="M118 196.2l20.3 32.2.3-86.9-28.7 12.1z"/><path fill="#fff" d="M-16 219L55-16l1 287z"/><circle r="1" fill="#fff" transform="matrix(-33.66238 4.91081 -11.00308 -75.42335 235 140.4)"/><circle r="1" transform="matrix(2.72227 -41.5505 12.97317 .84997 67.4 123.1)"/><circle r="1" transform="rotate(-173.1 78.6 15.5) scale(21.61731 10.84367)"/><circle r="1" fill="#fff" transform="rotate(2 -6228.6 6734.7) scale(28.18922 111.89462)"/><path fill="#181818" d="M128 125L72 253l31-217z"/><ellipse cx="172" cy="244" fill="#141414" rx="28" ry="155"/><path fill="#fff" d="M136.4 109.7l-21.2-19.8 16.4-17.6 21.2 19.8z"/><ellipse cx="15" cy="165" fill="#fff" rx="41" ry="255"/><ellipse cx="91" cy="236" fill="#121212" rx="36" ry="73"/><ellipse cx="227" cy="66" fill="#fff" rx="28" ry="255"/><path d="M69 41l17-12 22 15z"/><circle r="1" fill="#fdfdfd" transform="matrix(.40042 26.02623 -117.07868 1.80128 122 6.3)"/><path fill="#343434" d="M141 101h59v88h-59z"/><path fill="#2a2a2a" d="M177.6 65.2l-26.8-20.5-23.3 4.1 35.2-26.9z"/><circle r="1" fill="#fff" transform="matrix(35.44627 -.57862 2.35218 144.09419 20.4 124)"/><path fill="#2a2a2a" d="M56 106h31v150H56z"/><path fill="#e7e7e7" d="M101.7 107.1l-13.5 6.6-18-36.8 13.6-6.6z"/><ellipse cx="167" cy="246" fill="#0a0a0a" rx="33" ry="27"/><path fill="#373737" d="M129.8 132.2L96 60.4 86 66l14.3-30.8z"/><circle r="1" fill="#fefefe" transform="rotate(177.7 101.9 22.6) scale(31.12421 45.88945)"/><path fill="#b0b0b0" d="M114.5 52.9l66.3 35.9-6.7-19.4-14-26z"/><ellipse cx="236" cy="103" fill="#fff" rx="37" ry="255"/><path fill="#b5b5b5" d="M126 211l18-5-13 42z"/><circle r="1" fill="#ebebeb" transform="matrix(10.36162 -4.92006 14.2165 29.9399 124.7 74.2)"/><circle r="1" fill="#a1a1a1" transform="rotate(60.8 -10.6 103.9) scale(23.30364 17.89)"/><path fill="#cacaca" d="M182.7 219.5l16.6-3.8 2 8.8-16.6 3.8z"/><path fill="#fff" d="M-2.8-16L-16 130.7l82.7-40.4.3-59.2z"/><path fill="#e4e4e4" d="M115.5 148.2l-4.5 34.6 8.5-5.1 13.3-27.9z"/><path fill="#363636" d="M64 113h136v33H64z"/><path fill="#262626" d="M168.4 63.4l7.7-11.7-8.9-26.3-.1 37.5z"/><ellipse cx="81" cy="170" fill="#3e3e3e" rx="26" ry="41"/><path fill="#2d2d2d" d="M70 39l15-11-18 27z"/><path fill="#222" d="M56.5 94l20 1-1 17-20-1z"/><path fill="#d0d0d0" d="M96.2 106.2l4.9-49.5-24.3 38.4-3.7-14.2z"/><path fill="#2c2c2c" d="M102.2 67.9l36.7 48.7 12 44-53.8-64.2z"/><path fill="#343434" d="M173 85h27v94h-27z"/><path fill="#d7d7d7" d="M141 175l-21 38 18-11z"/><circle r="1" fill="#858585" transform="rotate(-26.8 222.2 -267.2) scale(3.78264 28.07004)"/><path fill="#fff" d="M146 47h16v4h-16z"/><ellipse cx="225" cy="208" fill="#fff" rx="26" ry="255"/><ellipse cx="25" cy="225" fill="#fff" rx="31" ry="247"/><path fill="#ddd" d="M132 145h8v24h-8z"/><path fill="#e4e4e4" d="M115 58l50-55L79-9z"/><path fill="#dedede" d="M199.6 29.3l.5-45.3L72 31l77.5-3.2z"/><ellipse cx="90" cy="250" fill="#171717" rx="34" ry="24"/><path fill="#707070" d="M105 194l17 3 20-25z"/><path fill="#212121" d="M96 33H77l32 18z"/><path fill="#3d3d3d" d="M149 58h10v6h-10z"/><path fill="#dadada" d="M114.9 182.4l-5.3-12.1 4.9-14.6 12.1 11.9z"/><circle r="1" fill="#969696" transform="matrix(12.70094 -3.1667 1.1169 4.47964 126 208)"/><path fill="#292929" d="M166 112l-13-24-27 58z"/><path fill="#dfdfdf" d="M136.4 114.5l10-27.5-42.1-103 23.1 111.7z"/><path fill="#242424" d="M139 32l-8 15 41-11z"/><path fill="#c6c6c6" d="M136 71l26 25 37-49z"/><path fill="#1f1f1f" d="M137 223h62v33h-62z"/><path fill="#3a3a3a" d="M94 143l-37 53L70 72z"/><path fill="#393939" d="M192.6 81.7l-12.5 122.1-45.4-62.5 38.9-57.6z"/><ellipse cx="235" cy="233" fill="#fff" rx="36" ry="255"/><path fill="#545454" d="M102 102.1l28.9 61.5-3.4 7.4-7.6-32.9z"/><path fill="#3c3c3c" d="M169.3 65.5L158.5 43l8.7-14.6 7.7 20.2z"/><circle cx="77" cy="60" r="4" fill="#4c4c4c"/><circle r="1" fill="#373737" transform="rotate(-55 175.7 -44) scale(29.60223 22.35652)"/><path fill="#363636" d="M115 95.2l-11.1-54.4-6-5.5-4.4 3.6z"/><path fill="#e5e5e5" d="M79 42h13v13H79z"/><path fill="#939393" d="M131.1 269.7l-8.8 1.3 7.5-38.1 7.5-34.3z"/><path fill="#b8b8b8" d="M110 190h28v6h-28z"/><path fill="#141414" d="M134 43.5l1 13h-1l-1-13z"/><path fill="#242424" d="M140 193l16 53 34-32z"/><path fill="#454545" d="M127.7 167.7l.8.6-16.2 24-.8-.6z"/><ellipse cx="28" cy="217" fill="#fff" rx="27" ry="255"/><path fill="#dadada" d="M149.3 96.2L91.7 8.1 123 95.8l15.9 8.8z"/><path fill="#484848" d="M59 140h57v15H59z"/><path fill="#373737" d="M132 182l48-105 19 39z"/><path fill="#a3a3a3" d="M193.8 218.3l2 6.7-9.6 2.7-2-6.7z"/><path fill="#3b3b3b" d="M73.9 42.8L67 61.6l-.9-.4L73 42.4z"/><path fill="#dbdbdb" d="M136 47h27v10h-27z"/><path fill="#dedede" d="M201.9 83.6l42.4 3-54.9-3.7L154.6-16z"/><path fill="#343434" d="M87 110L67 86 57 97z"/><ellipse cx="60" cy="53" fill="#dadada" rx="5" ry="41"/><path fill="#707070" d="M135.2 58.9l3.5 11.3 6.1-3.5-.5-5.4z"/><path fill="#cfcfcf" d="M98 103l-9 10-15-26z"/><ellipse cx="136" cy="109" fill="#d0d0d0" rx="2" ry="9"/><path fill="#343434" d="M174.9 75.7l5.9 1.5 5.5-3.2 9.4 28.7z"/><path fill="#dbdbdb" d="M113 160l16 16-9-31z"/><path fill="#8c8c8c" d="M145 86.8l-5.3-7.3 11.3-8.3 5.3 7.3z"/><path fill="#d2d2d2" d="M74 44h21v12H74z"/><path fill="#282828" d="M121.4 226.6l-29-74.3 26-7.2L84 231.2z"/><path fill="#4b4b4b" d="M136 208h2v28h-2z"/><path fill="#e0e0e0" d="M200.2 7.1h-82.7l54.4 25.4 20.4 51.4z"/><path fill="#909090" d="M125 230.5l-14 1v-2l14-1z"/><circle r="1" fill="#6c6c6c" transform="matrix(7.26108 -.61458 .08434 .99644 85.1 75.8)"/><path fill="#bebebe" d="M123.7 200.4L136 213l-.5-29.3 9.8 9.5z"/></g></g></svg>