<svg xmlns="http://www.w3.org/2000/svg" viewBox="0 0 1120 1400"><defs/><filter id="a"><feGaussianBlur stdDeviation="12"/></filter><rect width="100%" height="100%" fill="#454c3d"/><g filter="url(#a)"><g fill-opacity=".5" transform="translate(2.7 2.7) scale(5.46875)"><circle cx="79" cy="133" r="197" fill="#fff"/><circle cx="142" cy="144" r="203" fill="#fff"/><circle r="1" fill="#fff" transform="rotate(85.2 -70.4 76.9) scale(192.34071 33.70729)"/><ellipse cx="194" cy="131" fill="#fff" rx="24" ry="250"/><circle r="1" fill="#fffcf7" transform="matrix(11.2647 -39.65777 195.2751 55.46745 66.3 228.8)"/><circle r="1" fill="#dac3a7" transform="matrix(-16.84815 -95.81668 50.19057 -8.82538 83.3 99.2)"/><ellipse cx="195" cy="115" fill="#fff" rx="23" ry="246"/><ellipse cx="9" cy="39" fill="#fff" rx="22" ry="255"/><circle r="1" fill="#99ae92" transform="matrix(14.99934 -14.44964 21.12532 21.92899 148.6 189)"/><path fill="#7c752f" d="M107 124l18-15 2 43z"/><circle r="1" fill="#a68d35" transform="matrix(-4.59375 1.62856 -6.00645 -16.94261 89.5 181.4)"/><path fill="#89929b" d="M84 31h34v24H84z"/><path fill="#263700" d="M66.1 166.1l-5.8-4 5.6-8.2 5.8 4z"/><path fill="#282200" d="M112 157.7l-6 10.2-6-3.6 6-10.2z"/><ellipse cx="165" cy="133" fill="#f1f8fb" rx="43" ry="34"/><path fill="#2e4d0d" d="M130.1 168.7l10.6 10.2-.6-1.6 8.2-12.9z"/><circle r="1" fill="#fde4c8" transform="matrix(15.51318 6.7236 -27.15777 62.66042 99.6 109.4)"/><path fill="#804e47" d="M148 79l-7-6-16 26z"/><path fill="#7b5e37" d="M76.5 120.7l-17 8.6-4-8 17-8.6z"/><path fill="#c6a27a" d="M67.2 69.7L101.6 88l-10.8 20.3L56.4 90z"/><path fill="#815a2e" d="M84 146l12-9-23 3z"/><circle r="1" fill="#bec2c9" transform="rotate(-80.6 43.3 -26.3) scale(62.50823 31.66106)"/><ellipse cx="195" cy="79" fill="#fff" rx="22" ry="255"/><ellipse cx="2" cy="112" fill="#fff" rx="28" ry="255"/><ellipse cx="42" cy="168" fill="#e0d9d6" rx="13" ry="98"/><path fill="#6d7f71" d="M137.1 206.8l35.7 10.2.4-4.7-28.3-11.4z"/><path fill="#8a8e95" d="M60 13h113v3H60z"/><path fill="#cce3f3" d="M151 51h23v115h-23z"/><path d="M65 74h5v5h-5z"/><path fill="#f2eeed" d="M69 58h67v14H69z"/><path fill="#efe4ce" d="M83.6 90.3l53.5 86.3 26.4 17.5-27.4 3.9z"/><path fill="#f0e4da" d="M69.3 113.8l.1 98.3 22.7 38-15.5-121.7z"/><path fill="#f8e4ca" d="M89 169.2l32.7-20.7-15.4-20.2L83.8 65z"/><path fill="#f0e4db" d="M19 266l101-101 7 106z"/><ellipse cx="101" cy="227" fill="#abaaa3" rx="43" ry="2"/><path fill="#f1e2cd" d="M70.9 91.9L63.3 81l26.2 4.3-45.7 45.9z"/><path fill="#203600" d="M53 120h11v4H53z"/><path fill="#924800" d="M78 98l9-12-4 15z"/><path fill="#fff" d="M158.8 199.2l60.2-20.5-45.8-191 5.3 224.9z"/><path fill="#e3d3c2" d="M148.5 92.7l5 70.9-24 1.7-5-70.9z"/><path fill="#6a7643" d="M127.8 152.8l-14.9-19.4 17.3-20.1-16.8 5.9z"/><path fill="#293e0f" d="M88 175l-8-2 6-6z"/><path fill="#858585" d="M83 32h38v7H83z"/><path fill="#3c4b00" d="M70 152l-8 6 2 8z"/><circle r="1" fill="#d1d2d2" transform="matrix(51.83086 -.75968 .07795 5.31822 108 43.1)"/><path fill="#3d52a5" d="M65 179l3-5-11 2z"/><path fill="#f9eedd" d="M102.1 176.8l-5.4-18.9 3.9-27.8-13.7 48.6z"/><path fill="#8b4e00" d="M79 139h4v10h-4z"/><circle r="1" fill="#5c4304" transform="matrix(2.52852 1.36747 -1.19393 2.20765 59.4 89)"/><circle cx="138" cy="169" r="6" fill="#466233"/><path fill="#a3a3a7" d="M138.8 84.1l-4.2-79.2.8 6.7 8.3-4z"/><path fill="#e3936a" d="M125 115l-6-8 17-4z"/><path fill="#607e1e" d="M129.2 154.8l-14.7-17.6 2.3-2 14.7 17.6z"/><path fill="#40181a" d="M63.5 78.7L65 74l9.4 3.3L73 82z"/><ellipse cx="10" cy="106" fill="#fff" rx="20" ry="255"/><path fill="#a39a71" d="M132.4 181.1l3.4-.2-18.5 10.4 19.6 3.4z"/><path fill="#999b9b" d="M61 13h6v41h-6z"/><path fill="#f4e1c5" d="M54 158l-2-31 82-33z"/><path fill="#e8eaeb" d="M127.2 192.6l45 46.8.3-24.2-122.7.3z"/><path fill="#4d5312" d="M104.5 160.7l10.5-8-1.8 3.6-3.7 6z"/><path fill="#6a706c" d="M145 210h29v4h-29z"/><path fill="#acada9" d="M142.9 228.5l30.9 7 5.9.4-21.8.1z"/><path fill="#b7afa4" d="M30 70h57v5H30z"/><path fill="#5c63c2" d="M122.7 113.3l1.1 3.7-9 7 3.9-13.5z"/><path fill="#828079" d="M87 49h29v6H87z"/><path fill="#e6d9ca" d="M89.7 98l9.2-32.9-26-33.2 3.6 53.7z"/><path fill="#a2c9c7" d="M154 169h20v26h-20z"/><path fill="#ebe2dc" d="M83.5 162.9l-3.1 28.4L53 173.5l-4 94.3z"/><ellipse cx="67" cy="88" fill="#000039" rx="1" ry="5"/><path fill="#86713a" d="M66.7 117.7l-4.1 13.4 8.6-11.3-13.3.9z"/><path fill="#e5e5d9" d="M128.1 169.6l-17.5-45.2 8.6 28.7 34.2 3.2z"/><path fill="#e1dcd6" d="M70.9 116l-15.6 3.3-24 86-2-132.8z"/><path fill="#d0d2d8" d="M69 15h64v17H69z"/><path fill="#9e7852" d="M119 95.9l29.8-18.4-13 1.5.8 11.1z"/><ellipse cx="203" cy="180" fill="#fff" rx="30" ry="255"/><path fill="#c5c5bc" d="M106 71h67v6h-67z"/><path fill="#d8a731" d="M110 120l18 15-7 1z"/><path fill="#b48d32" d="M93.7 182.8l1.7 10.7-8.7-4.1-4.3-7.5z"/><path fill="#cfc9c1" d="M48.2 204.3l77.2-6.9-72.4-1.7-2.9-63.1z"/><path fill="#75844d" d="M98 180l9-12v7z"/><path fill="#6d8354" d="M116 167h37v2h-37z"/><path fill="#f7e3cc" d="M97.1 121.9l57.5-29.4-75.7 11-25.5-.5z"/><path fill="#dae8ea" d="M144.5 170.1l21.8 15.7v.2l8.5-5.2z"/><path fill="#7f9d86" d="M177 188l-29-12 4 9z"/><path fill="#f5ebd9" d="M137.9 125.5l-15.1 27.8-18.2 14.8 5.8 9.1z"/><path fill="#ba9f82" d="M56 161l6 15v-17z"/><circle cx="90" cy="141" r="3" fill="#485aa3"/><path fill="#f4e7d7" d="M122 126l13 22 7-50z"/><path fill="#517755" d="M152 170h12v2h-12z"/><path fill="#b9989d" d="M145 135h7v11h-7z"/><path fill="#dadcde" d="M113.8 36.7L100 16.9l36.4 40.9-20.2 4.8z"/><path fill="#cac9c6" d="M30 0h28v71H30z"/><circle r="1" fill="#b79a4d" transform="rotate(-29.5 361.8 -110.4) scale(3.70805 5.48431)"/><path fill="#f2e5d4" d="M112.2 129.3l2.6 3.7-3.3 16.8-49.1 25.5z"/><path fill="#767671" d="M96 41h8v6h-8z"/><path fill="#413a7f" d="M69 111h4v7h-4z"/><path fill="#c58d4d" d="M92 87h6v11h-6z"/><path fill="#8f865c" d="M154 208.2l-32.5-19.6.5-.8 32.5 19.6z"/><path fill="#e5d1b9" d="M49 98h21v20H49z"/><ellipse cx="111" cy="58" fill="#eee8df" rx="2" ry="17"/></g></g></svg>