<svg xmlns="http://www.w3.org/2000/svg" viewBox="0 0 1400 1120"><defs/><filter id="a"><feGaussianBlur stdDeviation="12"/></filter><rect width="100%" height="100%" fill="#554"/><g filter="url(#a)"><g fill-opacity=".5" transform="translate(2.7 2.7) scale(5.46875)"><circle cx="131" cy="99" r="171" fill="#fff"/><circle r="1" fill="#fff" transform="matrix(75.717 -95.7866 200.04756 158.13277 162.5 82.2)"/><path fill="#5f624e" d="M101.4 99l1.2 73-50 1-1.2-73z"/><circle r="1" fill="#fff" transform="rotate(177.8 74.6 16) scale(204.99028 78.14254)"/><circle cx="220" cy="199" r="118" fill="#f6f8f6"/><circle r="1" fill="#4e5145" transform="rotate(-112.5 73 81) scale(15.4558 40.53958)"/><circle r="1" fill="#ffffe6" transform="matrix(-4.76627 -18.83055 53.23566 -13.47468 8.8 145.4)"/><circle r="1" fill="#adb59e" transform="matrix(-64.9394 -2.0738 .39482 -12.3635 151.3 77.3)"/><ellipse cx="168" cy="203" fill="#fff" rx="194" ry="6"/><circle cx="26" cy="27" r="75" fill="#fff"/><path fill="#938e66" d="M113 148l-41-48-88 1z"/><path fill="#b9bfbb" d="M230.2 29l-.4 26-108-2 .4-26z"/><path fill="#606061" d="M201 74h49v5h-49z"/><circle r="1" fill="#5c6699" transform="matrix(-8.18116 -8.89695 23.04269 -21.18884 68 155)"/><path fill="#d2d3d0" d="M162 177l87-77-164-1z"/><path fill="#807f83" d="M84 65h81v6H84z"/><circle r="1" fill="#c7c0b2" transform="matrix(13.37299 5.10665 -18.62924 48.78516 91 175)"/><path fill="#fff" d="M164 53h92v21h-92z"/><ellipse cx="234" cy="196" fill="#fff" rx="121" ry="14"/><path fill="#fff" d="M113 79h8v125h-8z"/><path fill="#eae4d2" d="M-.6 178.7l60.3-45.4-75.7-26.4v85.3z"/><circle r="1" fill="#fff" transform="matrix(-73.04278 -14.99783 4.48508 -21.84331 209.5 1.6)"/><path fill="#9a9c9d" d="M122 14h41v8h-41z"/><path fill="#828085" d="M184.4 84.3l-55.5 6.5-5.8-3.9 7.8-3z"/><path fill="#778d5a" d="M78 139L0 188l29-35z"/><ellipse cx="207" cy="137" fill="#fff" rx="97" ry="4"/><ellipse cx="254" cy="112" fill="#fff" rx="7" ry="203"/><ellipse cx="138" cy="59" fill="#fffffc" rx="252" ry="7"/><ellipse cx="138" cy="5" fill="#787a7e" rx="11" ry="3"/><path fill="#cce58f" d="M63 75h83v5H63z"/><ellipse cx="4" cy="87" fill="#fcfff7" rx="116" ry="14"/><path fill="#acadab" d="M199.4 181.4l-78.7 6 64.2.2-43-6.5z"/><path fill="#8b8355" d="M76.7 132.1l35.5-6.4-63.8-17.1-6.7 8z"/><ellipse cx="108" cy="24" fill="#fff" rx="12" ry="40"/><path fill="#eef0e8" d="M-16 202.9l59.6-3.1L58 189.4l97.3 29.6z"/><path fill="#8a8891" d="M199.7 79.6l-24.4.7-31.1-4.7 37.8-1.7z"/><path fill="#c0c6c2" d="M230 27h19v21h-19z"/><path fill="#fff" d="M105 80h151v3H105z"/><path fill="#d0d2cf" d="M154 140h94v25h-94z"/><path fill="#7b7281" d="M93 161l-46-5-9 38z"/><ellipse cx="221" cy="172" fill="#fff" rx="133" ry="3"/><path fill="#989c75" d="M106.9 123.7l-23.2-23.5-29.9.6 59.9 43.6z"/><path fill="#cccbb5" d="M19 98.5l50.5 9.3-85.5 15.6 86.7 14.2z"/><path fill="#cbc4b8" d="M83.3 154.2l25.1-32.9 5.1 39.2-2.3 58.5z"/><path fill="#fffff8" d="M77.5 73.4l109-3.8v3l-109 3.8z"/><path fill="#ced0ce" d="M133 100h114v29H133z"/><ellipse cx="154" cy="2" fill="#fff" rx="188" ry="2"/><ellipse cx="164" cy="29" fill="#808284" rx="45" ry="1"/><path fill="#c9daa2" d="M60 74h41v7H60z"/><ellipse cx="173" cy="177" fill="#9d9d9c" rx="52" ry="1"/><ellipse cx="130" cy="95" fill="#fff" rx="234" ry="5"/><ellipse cx="182" cy="38" fill="#8b8f92" rx="62" ry="1"/><path fill="#9f9f9d" d="M120 154h114v2H120z"/><path fill="#979581" d="M71 171l-21 8 55 20z"/><path fill="#95aac1" d="M54.2 168.1l-7.6-18 44-1.2-33.3 9.5z"/><ellipse cx="161" cy="15" fill="#989999" rx="22" ry="2"/><path fill="#626382" d="M66.3 135.4L84 162l-35.4 18.7 49-49.7z"/><ellipse cx="85" cy="202" fill="#838a8d" rx="29" ry="1"/><path fill="#656e56" d="M-16 210.1l19.4-29.3 35.2-16.2 10.2 8.7z"/><path fill="#706f71" d="M121 84h12v5h-12z"/><ellipse cx="188" cy="150" fill="#a1a19e" rx="60" ry="1"/><path fill="#989c9d" d="M206.5 32v1l-85 3v-1z"/><ellipse cx="194" cy="105" fill="#999a98" rx="53" ry="1"/><path fill="#d4ed97" d="M180 84h35v5h-35z"/><ellipse cx="135" cy="31" fill="#fff" rx="128" ry="1"/><ellipse cx="196" cy="125" fill="#fff" rx="83" ry="1"/><ellipse cx="202" cy="42" fill="#919595" rx="44" ry="1"/><ellipse cx="185" cy="141" fill="#9e9e9c" rx="63" ry="1"/><path fill="#fff" d="M116 161h105v2H116z"/><ellipse cx="189" cy="40" fill="#fff" rx="86" ry="1"/><ellipse cx="217" cy="49" fill="#fff" rx="119" ry="1"/><ellipse cx="176" cy="18" fill="#fafcf7" rx="56" ry="2"/><ellipse cx="228" cy="159" fill="#aaaaa8" rx="107" ry="1"/><path fill="#dedbc3" d="M113.1 100.2L80 110.9l3.7-13.3 26.1 30.2z"/><ellipse cx="175" cy="132" fill="#989997" rx="39" ry="1"/><path fill="#fff" d="M0 201h55v3H0z"/><path fill="#9e8884" d="M22.2 200.4l-3.5-10.6 69.7-21 19.8-20z"/><ellipse cx="173" cy="51" fill="#939896" rx="53" ry="1"/><path fill="#fff" d="M113 99h8v105h-8zm1-55h142v2H114zm6 10h3v21h-3z"/><ellipse cx="172" cy="168" fill="#9e9f9d" rx="49" ry="1"/><ellipse cx="184" cy="112" fill="#fff" rx="72" ry="1"/><path fill="#fff" d="M118 189h133v15H118z"/><ellipse cx="185" cy="119" fill="#a4a4a4" rx="63" ry="1"/><ellipse cx="168" cy="47" fill="#949999" rx="48" ry="1"/><path fill="#adadac" d="M167 181h82v2h-82z"/><path fill="#fffffd" d="M184 52.5l-26.2 19.4 33.2.7 4 29.5z"/><ellipse cx="184" cy="143" fill="#fff" rx="72" ry="1"/><path fill="#abacaa" d="M121 127h115v2H121z"/><ellipse cx="188" cy="107" fill="#fff" rx="94" ry="1"/><ellipse cx="191" cy="114" fill="#a2a3a2" rx="55" ry="1"/><path fill="#7c7e77" d="M92 70l-8-7 13 3z"/><ellipse cx="253" cy="67" fill="#fff" rx="6" ry="140"/><path fill="#fff" d="M101 35h155v2H101z"/><path fill="#e9e5d4" d="M64.6 137.5l-12.9-16.7-28.4 27.9 16.9.9z"/><path fill="#afb1ae" d="M124 100h100v2H124z"/><path fill="#bba5a4" d="M101 119h11v31h-11z"/><ellipse cx="211" cy="28" fill="#919392" rx="36" ry="1"/><path fill="#878b5c" d="M64 101h10v48H64z"/></g></g></svg>