<svg xmlns="http://www.w3.org/2000/svg" viewBox="0 0 1400 1120"><defs/><filter id="a"><feGaussianBlur stdDeviation="12"/></filter><rect width="100%" height="100%" fill="#191933"/><g filter="url(#a)"><g fill-opacity=".5" transform="translate(2.7 2.7) scale(5.46875)"><circle r="1" fill="#cdb0cb" transform="matrix(-32.45182 -132.31786 222.28144 -54.51597 140.7 77.7)"/><path fill="#000007" d="M-13 79l131 132 49-28z"/><circle r="1" fill="#fed0e4" transform="matrix(28.93063 50.3137 -24.36227 14.00843 94.9 110.5)"/><circle r="1" fill="#fdc5de" transform="matrix(9.90445 -27.26743 48.76588 17.71342 222.7 133.8)"/><circle r="1" fill="#fff3fd" transform="rotate(-168.7 81 30.5) scale(29.45603 24.66924)"/><circle r="1" fill="#000010" transform="matrix(10.22166 -9.8427 66.75288 69.32292 182.4 161.6)"/><circle r="1" fill="#ffeafb" transform="matrix(-5.96812 14.33748 -28.73928 -11.96301 105 24)"/><circle r="1" fill="#00001c" transform="matrix(-21.69779 37.7929 -19.50249 -11.19684 58.5 190)"/><circle r="1" fill="#110d1d" transform="matrix(49.66575 -17.58757 6.03927 17.05437 143 37.7)"/><circle r="1" fill="#091552" transform="rotate(-144.5 33.2 7.8) scale(36.6558 28.36217)"/><circle r="1" fill="#ffd8e4" transform="rotate(82.3 89.7 140.8) scale(14.03315 43.366)"/><circle r="1" fill="#ecb7d4" transform="matrix(17.40941 -18.9326 24.28651 22.3326 20.6 152.3)"/><path fill="#08152f" d="M184 48h44v57h-44z"/><path fill="#000001" d="M-8.5 89.9L30 84.4l4.4 31.7-38.6 5.5z"/><circle r="1" transform="matrix(-13.32636 -9.9789 26.08435 -34.83446 129 182.3)"/><path fill="#fbcde0" d="M60.2 9.8l65.5 36 19.6-14.1-58.7-34z"/><circle r="1" fill="#fff" transform="matrix(1.5391 -29.63551 7.3664 .38257 93.1 200.5)"/><ellipse cx="97" cy="69" fill="#ffdde7" rx="29" ry="11"/><circle r="1" transform="matrix(1.65397 -12.1704 21.8525 2.96979 134 111)"/><circle r="1" transform="matrix(51.92884 21.36639 -2.35132 5.71464 125.4 6.9)"/><circle r="1" fill="#ffcfe9" transform="matrix(19.35518 -15.90154 8.401 10.2256 9.8 57)"/><circle r="1" transform="matrix(-35.31157 14.41039 -2.67413 -6.55277 248.6 43.8)"/><path fill="#d5b7cb" d="M149.8 135.6l-47.6-31.9-27.9 44.7 54.9 11.7z"/><ellipse cx="2" cy="188" rx="34" ry="9"/><path fill="#c1c1e0" d="M206 76.9l6.8-16.7 37.1 15-6.7 16.6z"/><ellipse cx="183" cy="167" fill="#00083d" rx="26" ry="22"/><path fill="#ffd3ea" d="M25.9 13.4l-41.6 8.7-.3-19.4 80.8-14.3z"/><path fill="#fff0fe" d="M226.2-16L215 7.2 204.8 14l-30.2-5.3z"/><path fill="#d3b6d2" d="M151 186h49v18h-49z"/><path fill="#e4b5cc" d="M144.2 63.6L40.9 85.9l-10.7 15.2 36.7 17.1z"/><path fill="#000001" d="M170 12h66v10h-66z"/><path fill="#00042f" d="M77.2 123.4l7 14-100.2-25 3.5-30.7z"/><circle r="1" transform="rotate(-17.9 419.6 -522.3) scale(37.27938 4.60139)"/><path fill="#d3a4bf" d="M223 100h33v84h-33z"/><path d="M117.1 115.8l35.2 12-29.2-52.1-6.1 34.6z"/><circle r="1" transform="matrix(-28.64193 14.15573 -2.64408 -5.34989 137.5 47.5)"/><path d="M33 46h92v11H33z"/><path fill="#e5bfcf" d="M188.8 40.4l-51.2 25.1 49.8 77.4-28.2-19.6z"/><path fill="#ffdbed" d="M235.5 9.2l26-1.4 1 21-26 1.4z"/><path fill="#0c1243" d="M80-16L32 37l-48-1z"/><path fill="#fff" d="M-11 181l19 34 15-8z"/><ellipse cx="241" cy="76" fill="#005" rx="25" ry="4"/><path d="M110 209l46-14-59-45z"/><path fill="#000608" d="M164.8 28.8l10.8 13.7 42.6 5.1-91.4.9z"/><path fill="#b693ae" d="M6.8 114.2l57.3 34L45 168.3l-61 19.1z"/><path fill="#c7a6bd" d="M84 121h58v32H84z"/><path fill="#9ca4ce" d="M91 162l-19 21-17-2z"/><path fill="#000051" d="M56 60l-2 20-28 4z"/><path fill="#e0b6cd" d="M170 30l76 17-37-30z"/><path fill="#00002c" d="M238 36h18v25h-18z"/><path fill="#cecdca" d="M95 173l13 26-45 20z"/><path d="M174.8 99.7l23-16 7.4 10.6-23 16z"/><path fill="#525c9e" d="M169.2 166.2L159 132.6l-17.6 43.7 7.9 15.4z"/><path fill="#09134d" d="M262 0l-47-16 5 34z"/><path fill="#000015" d="M47 121h29v22H47z"/><path fill="#000009" d="M43 192h35v12H43z"/><path fill="#ffffec" d="M215 87l24-10 18 10z"/><path fill="#fffffe" d="M87.1 42L71.6 29.6l1.3-1.6 15.5 12.6z"/><path fill="#00094b" d="M15.9 76.2l25-33.9L46.4 62l-17.1 9.3z"/><path fill="#a6aec8" d="M14.9 86.1l51-33.5L-16 93.3l27.2-8.8z"/><path fill="#00052b" d="M187 149l-7 44-16-8z"/><ellipse cx="232" cy="197" fill="#071036" rx="39" ry="13"/><path d="M53 178l-53 9 16 11zM123 8l22 18 48-3z"/><path fill="#cdb9c2" d="M271 140.4h-75.9l31.2 50.1-20.2-93z"/><path fill="#000012" d="M231.1 88.5l-3.9 18.5L180 88.2l91 12.3z"/><path fill="#000008" d="M86.6 163.6l-14.8-28.7-23.2 40.8-39.9 25.2z"/><path fill="#d0abc0" d="M112-16L86 32 71 4z"/><path fill="#dbafc3" d="M190.2 80.3L177.9 49l-40 2.5-3.7 43z"/><path fill="#faf2e7" d="M240 64.6l.7 6-34.6 4.8-.8-6z"/><path fill="#29307e" d="M32 113l-11 15 64 3z"/><circle r="1" fill="#ecfee1" transform="matrix(-13.16556 .78218 -.4166 -7.01209 22.2 147.7)"/><path fill="#0c1339" d="M234.4 206.9l-22.8-39.3-41-34.3L135 131z"/><path fill="#e5c5cd" d="M136.2 18.9l-22.8 21.3 1.7-30.6 26 11.5z"/><path fill="#000018" d="M184 83l40-25-26 3z"/><path fill="#3a479f" d="M172.5 21.5l-29.7-9 6.7-22 29.7 9z"/><path fill="#daded8" d="M180 197.5l3.3 8.4 24.7-21.4-6.2-.8z"/><path fill="#0e1444" d="M99 35l21 10-64 19z"/><path fill="#b4adc7" d="M22 219l-6-17 30-18z"/><path fill="#c6aabe" d="M74.8 138.4l37.5-16.8 27.3-1.5-58.4 32.1z"/><path fill="#ebc4d4" d="M89 14l-30-1 6-10z"/><path fill="#dcc4d1" d="M263.2 7.3l-63.6 28.2-3.2 27.2 10.8-16z"/><path d="M9 37l9-3-21-23zm89 125h47v19H98z"/><path fill="#182473" d="M271 86.6l-25.7-4.9-17.9-25.1 32.1 16.6z"/><circle r="1" fill="#000f65" transform="matrix(1.68447 4.09914 -23.29904 9.57435 0 81)"/><path fill="#000100" d="M0 100h32v18H0z"/><path fill="#273181" d="M55 65l-69 33 38 1z"/><path fill="#a4abd0" d="M90 162h7v14h-7z"/><circle r="1" transform="rotate(-65.7 63.5 -91.3) scale(7.19379 13.00073)"/><path fill="#f2c6d6" d="M217 5l-20 10-17-31z"/><path fill="#bf9eb5" d="M152.1 199.1L74.8 219l136.7-13-67-25.7z"/><path fill="#caa5bb" d="M59.8 80L26.6 93l69.8 40.9-14.9-76.3z"/><path fill="#0c0d0b" d="M170.9 8.5l6.7-.3 16.2 11.6-.2 11.9z"/><ellipse cx="202" cy="109" fill="#c88ab0" rx="11" ry="10"/><path fill="#d2b7c5" d="M165.2 110.2l18.5 23.1-20.4-6.7 31-18.5z"/><path fill="#3f4286" d="M87.2 22.9L70 13.4 28 57.3l2.8-29.7z"/><path fill="#000833" d="M89 184l-2-19-45 45z"/><circle cx="161" cy="93" r="13" fill="#d3b4c5"/><path fill="#001" d="M85.2 222.4l-90.4-40.2 2-4.6 90.4 40.2z"/></g></g></svg>