<svg xmlns="http://www.w3.org/2000/svg" viewBox="0 0 1400 933"><defs/><filter id="a"><feGaussianBlur stdDeviation="12"/></filter><rect width="100%" height="100%" fill="#574131"/><g filter="url(#a)"><g fill-opacity=".5" transform="translate(2.7 2.7) scale(5.46875)"><circle r="1" fill="#fff" transform="matrix(179.01912 1.56228 -1.1147 127.73129 127 84.3)"/><circle r="1" fill="#fff" transform="rotate(-175.2 95.8 5.2) scale(98.40473 34.97196)"/><circle r="1" fill="#fff" transform="rotate(-1.8 3672 -5995.3) scale(77.18685 39.36696)"/><circle r="1" fill="#131c00" transform="matrix(.47237 15.03117 -130.4766 4.1004 30.8 60.4)"/><circle r="1" transform="rotate(66 -45.8 122.2) scale(8.58032 35.59094)"/><circle r="1" fill="#fff" transform="matrix(-5.20927 -15.09596 51.45379 -17.7555 61.6 101)"/><circle r="1" fill="#fff" transform="matrix(4.70018 -17.15906 77.46548 21.21922 11 20)"/><ellipse cx="239" cy="66" fill="#4d3d20" rx="109" ry="14"/><circle r="1" fill="#fff" transform="matrix(126.12993 8.55652 -1.6188 23.86253 167.8 0)"/><circle r="1" fill="#fffffb" transform="matrix(66.76532 -13.38607 2.91341 14.53114 146.7 118.1)"/><circle r="1" fill="#7e6944" transform="rotate(-173.5 66.4 74) scale(51.74428 15.92637)"/><circle r="1" fill="#1a1608" transform="rotate(151.8 34.8 66.7) scale(54.42802 6.08785)"/><circle r="1" fill="#287a57" transform="matrix(-42.56352 9.4361 -.94303 -4.25371 209 124.9)"/><path fill="#fff" d="M246 166l-90-21 55-17z"/><path fill="#775b35" d="M-16 137l66-20 6 20-66 20.2z"/><circle r="1" fill="#242e11" transform="matrix(-42.0668 19.70553 -5.93384 -12.6674 17 67.6)"/><path fill="#f2e9d9" d="M137.3 85.4L25 131.5l4.9-49.7 42.3-16.3z"/><path fill="#423f21" d="M271 127.2L240.8 185l9.3-55.5-17.5-23.6z"/><circle r="1" fill="#5b4421" transform="rotate(-110.6 85.3 65.4) scale(9.4654 39.03664)"/><path fill="#e7fdf8" d="M197 67h26v45h-26z"/><path fill="#8aa6a8" d="M244.3 47.3L75.9 23.6l1.8-12.9 168.4 23.7z"/><path fill="#1c1b0f" d="M139.3 144.8l-17.2 2.3-22.1-9.7 16-5.1z"/><circle r="1" fill="#433a22" transform="matrix(1.00962 -3.716 64.27333 17.46268 212 166)"/><path fill="#fcffff" d="M-6 16l-10 31 120-17z"/><path fill="#19130a" d="M90 126l44-40-93 41z"/><circle r="1" fill="#f6d9a8" transform="matrix(-1.47891 -7.01795 50.40906 -10.62286 46.9 152)"/><path fill="#f7f9ef" d="M141 82h115v26H141z"/><path fill="#319172" d="M146.9 137.5l29.7-5-13.8 13-19.8-3.3z"/><path fill="#3c4b2f" d="M271 163.7l-54.1-25.3 8.8 3.6-11.3 1z"/><path fill="#40261c" d="M223 54h26v25h-26z"/><path fill="#fff" d="M78 134l36-5 39-51zm-46.5-10.8l-3.9 8.2-57-26.6 3.8-8.2z"/><path fill="#a87e5c" d="M83 42L69 76h67z"/><path fill="#c9c3a9" d="M200.1 57.7l-17.8-31.9 19.8 53-52.9-33.5z"/><path fill="#48607e" d="M130 121l-10 2 16-24z"/><path fill="#090100" d="M7 140h38l-18-7z"/><path fill="#8c6838" d="M73.6 129l-1.3 3.9-79.9-26 1.3-3.8z"/><path fill="#edf6f0" d="M175.2 31L190 50.9l-39.1.9L124 41.4z"/><path fill="#f1d0a1" d="M81.4 163.3l35.5 21.7-9.1-35.7 25.9 13.7z"/><path fill="#4f4823" d="M133.5 86.8l2.3-5.2 51.1-25.8-71.3 46.5z"/><circle r="1" fill="#f9fdf9" transform="matrix(-1.53941 -11.0872 90.89416 -12.62027 208.8 9.5)"/><path fill="#243e1c" d="M11.9 40l20 6.5L28 58 8 51.5z"/><circle cx="239" cy="137" r="11" fill="#fffff8"/><path fill="#194050" d="M103 45h32v15h-32z"/><circle r="1" fill="#9ab5b6" transform="matrix(-51.9596 4.0893 -.81155 -10.31171 19.3 6.6)"/><path fill="#252400" d="M239 128l-9-1-6-12z"/><path fill="#fff9e8" d="M253.5 133.2L224 99.9 62.9 140.8l159.4-26.2z"/><path fill="#ffffec" d="M154 141l86 11.7 3.3 7.1-6.5 5.2z"/><path fill="#fffff5" d="M102.7 82.5l27-10.4 3.6 9.4-27 10.4z"/><path fill="#a58765" d="M77.6 121.2L1.2 153.7l75.1-17 18.9-21.4z"/><path fill="#27422a" d="M254.7 131.2l5.9 4.3-27.8-33.6 4.3 12.8z"/><path fill="#504138" d="M200.3 65.1l8.9-14.9-.2 30.4 7.3-10.3z"/><path fill="#4f3f15" d="M139.9 64.7l-5.6 6.2-29 8.6 14.9-8.7z"/><path fill="#fff" d="M73.5 73.8l-37.1 15-1.9-4.6 37.1-15z"/><path fill="#b29362" d="M47.2 92.2l64.6-28.4-25.6 5.3-89.7 35.8z"/><ellipse cx="10" cy="91" fill="#65c4d8" rx="17" ry="7"/><path fill="#b5c9c9" d="M95.7 23.9l2.4 22.9L66.3 50l-2.4-22.9z"/><path fill="#f7faf5" d="M30.8 49.9l-8.1-11.5 9.1-28.3L52.3 16z"/><path fill="#789096" d="M202 45l-32.5-11.9 57 3.1 2.2 7.1z"/><ellipse cx="157" cy="106" fill="#f8f5eb" rx="20" ry="30"/><circle r="1" fill="#4d7991" transform="matrix(-1.18794 5.0086 -42.98543 -10.19523 124.4 49.3)"/><path fill="#f0f3f3" d="M62 87L2 106l54 8z"/><path fill="#ffffec" d="M249 127l-53 28-20-22z"/><path fill="#161614" d="M89.6 104.7l-41.9 22.4-9.2 8.3 90.3-37z"/><path fill="#a3ada5" d="M119.2 118.3l15.1-17.6 20.1 9.7-9.8-15.6z"/><path fill="#eed2a1" d="M160 68h-26l-11 16z"/><path fill="#020000" d="M119.7 133l2.2 5.9-14.6 5.2 26.5 2.5z"/><path fill="#272e1c" d="M66.9 59.9l-82.3-12-.6 26 99.1-26.7z"/><circle r="1" fill="#c7cfca" transform="rotate(99.8 56 61) scale(6.73238 80.77099)"/><path fill="#fef9eb" d="M136.9 144.6l21.2 3.3-61.3-25.3 80-.1z"/><path fill="#716241" d="M58 73l-74 15L2 66z"/><ellipse cx="183" cy="52" fill="#5e340c" rx="9" ry="2"/><path fill="#642510" d="M199 54h23v12h-23z"/><path fill="#338372" d="M195.9 128l-.7-7.9 24.9-2.2.7 8z"/><path fill="#3d1f12" d="M254.7 114.5l-3.6 27.7 12.4-32.8 7.5-12.5z"/><path fill="#4c4133" d="M153.5 150.3l-19.2 12.6L95 185l61.9-30.2z"/><path fill="#d7bf90" d="M137 63.7l-35 11.4-1-2.8 35.2-11.4z"/><path fill="#5e5f28" d="M178 123.3l-.6.8-9.4-7.4.6-.8z"/><path fill="#5d6047" d="M197 78.8l-21.2.1-40.6-4.8 82.4 2.9z"/><path fill="#eef9ee" d="M194 46h62v7h-62z"/><path fill="#e8ede7" d="M235 81l17 43 6-41z"/><path fill="#000103" d="M-15 135l16 9 9-4z"/><path fill="#443115" d="M82.8 74.8l24.6-4.5-3-20.4L131.8 62z"/><path fill="#1b1d19" d="M102.3 117.3l2.7-4.7-37.2 5 75.1-35.9z"/><path fill="#6d4d2a" d="M-16 112.6l37.6 16.8-10.1 1.9-22.5-15.7z"/><ellipse cx="199" fill="#fff" rx="74" ry="14"/><path fill="#f8faf4" d="M10.8 41.1L-16 66.7v-38l65.6-14.4z"/><circle r="1" fill="#272116" transform="matrix(25.7961 1.6651 -.19393 3.0044 251.2 71.4)"/><path fill="#a68d72" d="M27.1 133.7l12.7-20.3 11 6.9-12.6 20.3z"/><path fill="#bab09b" d="M110.8 131.4l-13.5 14-25.7 1.7 58.6-11.9z"/><path fill="#fffbef" d="M49.9 84.5l-22.2 2.4-2.6-4.5 55-14.3z"/><ellipse cx="163" cy="169" fill="#b69a76" rx="28" ry="12"/><path fill="#718588" d="M119 28h52v3h-52z"/><path fill="#dbc29f" d="M0 174l62-22-52-10z"/><path fill="#7f5a48" d="M31.5 74.1l64-9.1-29 14.2L107 42.1z"/><path fill="#fffdf4" d="M21.9 129.3l14.7-4.4L-16 102l3.2 5.5z"/><circle r="1" fill="#455940" transform="matrix(10.3302 5.1055 -.86066 1.7414 234.6 147.3)"/><path fill="#3e3a2d" d="M72.3 156.1l-31 7.8L-16 185h10.6z"/><path fill="#8fa4a7" d="M121.5 26.7L78.7 50.3l55.6-9L-5-9z"/><path fill="#605a47" d="M191 155l53 30-14-20z"/></g></g></svg>