<svg xmlns="http://www.w3.org/2000/svg" viewBox="0 0 1400 1120"><defs/><filter id="a"><feGaussianBlur stdDeviation="12"/></filter><rect width="100%" height="100%" fill="#614c40"/><g filter="url(#a)"><g fill-opacity=".5" transform="translate(2.7 2.7) scale(5.46875)"><circle cx="105" cy="87" r="211" fill="#daeeef"/><circle r="1" fill="#40464b" transform="matrix(58.08622 -2.12389 2.19009 59.89666 227.9 113.4)"/><circle r="1" fill="#d2dbe1" transform="matrix(121.9205 -46.21501 23.29367 61.45136 130 4)"/><circle r="1" fill="#6d624d" transform="matrix(-74.86702 -24.5216 7.46277 -22.7846 123.8 137.3)"/><circle r="1" fill="#fff1d7" transform="rotate(16.3 -406.5 799.7) scale(12.48004 26.45117)"/><circle r="1" fill="#2a303b" transform="matrix(-41.08516 -22.55058 8.267 -15.06175 217.4 105.6)"/><circle r="1" fill="#557b9f" transform="rotate(22.2 -24.2 573.3) scale(36.20084 29.55678)"/><circle r="1" fill="#e2d0b4" transform="matrix(53.3364 -24.44242 9.54732 20.83344 113 188.2)"/><path fill="#583920" d="M160 189h50v15h-50z"/><circle r="1" fill="#eadbbc" transform="matrix(-47.3254 -85.12517 19.00593 -10.56636 6.8 173)"/><path fill="#e9eaea" d="M269-15L115 3l152 23z"/><path fill="#000009" d="M177 134h12v39h-12z"/><path fill="#565241" d="M8 113h47v23H8z"/><path fill="#fffaef" d="M172.6 79.9l7 29-2.4-14-23.3 106.6z"/><path fill="#fff8d8" d="M210 173l61 39-57-16z"/><path fill="#32404e" d="M180.7 51.5l-2.5 20.2 33.6-8.6 59.2-1z"/><path fill="#837f6d" d="M43 104h115v61H43z"/><ellipse cx="3" cy="178" fill="#897e6a" rx="91" ry="9"/><path fill="#fff5da" d="M-86.4 132.2L123.9 177l-1.5 6.9L-87.9 139z"/><ellipse cx="86" cy="45" fill="#676d6c" rx="39" ry="4"/><path fill="#d7c8ac" d="M102 163l-61-31 72 15z"/><path fill="#5b2314" d="M162 190.6l16-101.8 4 .6-16 101.8z"/><path fill="#333a39" d="M-18.8 66.8l59 11.5-1.4 6.9-59-11.5z"/><circle r="1" fill="#fff5d7" transform="matrix(-1.01536 4.94643 -56.4759 -11.59284 50.8 201.1)"/><ellipse cx="79" fill="#cfd2d1" rx="237" ry="19"/><path fill="#797067" d="M1.9 27.6L-16 .3l1.3 44.2L71.2 20z"/><circle r="1" fill="#7f94ac" transform="matrix(-35.45862 -14.18244 5.02487 -12.56306 233 78)"/><circle r="1" fill="#ffe4d9" transform="rotate(99.8 -8.1 166.6) scale(77.96431 3.73341)"/><path fill="#d4cdbb" d="M236 149l-24-36-23 29z"/><ellipse cx="152" cy="44" fill="#c9ccc9" rx="29" ry="40"/><path fill="#d1d8d9" d="M56 102l-59-7 2-17z"/><circle r="1" fill="#8a7e5d" transform="matrix(37.35146 -1.50326 .88676 22.03339 244 162.7)"/><path fill="#dae6f5" d="M278.5 94.3L209 75.6l.5-1.9L279 92.4z"/><path fill="#ced5d3" d="M48 94h84v9H48z"/><path fill="#666560" d="M119 151l-45-37 82-16z"/><ellipse cx="135" cy="48" fill="#707674" rx="33" ry="3"/><circle r="1" fill="#6c4d49" transform="matrix(-3.4341 40.05694 -2.80898 -.24081 183 50.9)"/><path fill="#000005" d="M189 133l7-18v21z"/><path fill="#605a47" d="M87 154.2l-1.5 9.9-58.4-8.3 1.4-9.9z"/><ellipse cx="178" cy="111" fill="#b6bcb2" rx="3" ry="21"/><path fill="#7d9bb6" d="M187 17l116.6 18.4L299 65 182.4 46.6z"/><circle r="1" fill="#f4e4cb" transform="matrix(.45264 -2.78361 62.66288 10.18963 113.9 189.5)"/><circle r="1" fill="#112538" transform="matrix(15.32833 4.66733 -.61333 2.01427 241.3 79.3)"/><path fill="#ddcfc7" d="M211.3 176l-12.9-26.1-16.4 38.6 33.4-22.6z"/><path fill="#d4dcdd" d="M-10 65l33 5-28-37z"/><path fill="#6b7273" d="M19.3 87.5l80.9-3.9-44.8-6.1-30.1 19.2z"/><path fill="#40382e" d="M244.9 217.2l-1.3-.5-40.3-25-55.8 25.2z"/><path fill="#555151" d="M170.4 74.6l-17.8 51 39.1-76.5-3.1 72z"/><ellipse cx="118" cy="60" fill="#727572" rx="33" ry="3"/><circle r="1" fill="#e4d5b6" transform="matrix(33.75668 3.08146 -.17573 1.92509 131 158.2)"/><path fill="#707473" d="M25.8 59.2l61 8-76.4-13.8-26.4-4.3z"/><path fill="#bbb8a2" d="M47 124.7L6.7 182.1l19.1-77.3-9.6 23.3z"/><path fill="#14293d" d="M259 69l-33-8 45-7z"/><path fill="#877b6d" d="M24.4 187l2.9-11.6L81.6 189l-2.9 11.6z"/><path fill="#282f32" d="M177.6 157.7l-3.5 24.4 12.3-.9 7.4-37.2z"/><circle r="1" fill="#eae4dc" transform="matrix(-.18242 .98322 -51.24147 -9.50715 188.6 175.7)"/><path fill="#817665" d="M80.2 172.7l-9 5.3 12.3 4.9 56.3 4.1z"/><path fill="#aaa084" d="M192.8 101.3l9.7 37.3 68.2 9.7-63.2-18.6z"/><path fill="#3a382c" d="M215 163l32 10-14-18z"/><circle r="1" fill="#d9dad8" transform="matrix(.44573 -6.97603 64.19733 4.10186 123.9 37.4)"/><path fill="#836f5a" d="M126 195h26v9h-26z"/><path fill="#6d7372" d="M69 47.7l-52.5-7.4.5-4 52.5 7.4z"/><path fill="#d1c1ae" d="M205.5 188.3l59.7.9-66.1-15.3.8 32.2z"/><path fill="#54524d" d="M24 140.1L9.6 87.7l2.3 42.4 25-25.1z"/><circle r="1" fill="#d2c8b1" transform="matrix(14.99696 .04937 -.00811 2.4649 174.3 196.6)"/><path fill="#dee0dd" d="M87 63h33v17H87z"/><path fill="#e4d3c8" d="M178.4 70.4L168 132.5l-10.4-1.9 8.3-31.9z"/><path fill="#e9e1d3" d="M25.2 156L.4 124.1l-2.3-42.2-1.7 85.3z"/><path fill="#a69b83" d="M186.9 113.4l45.5 8.2-50-12.5-17.2 97.2z"/><circle r="1" fill="#f0dfc8" transform="rotate(-78.9 173.7 8.5) scale(4.8612 30.95272)"/><path fill="#eaffff" d="M209 122h11v13h-11z"/><ellipse cx="142" cy="163" fill="#515244" rx="11" ry="4"/><path fill="#bab9b1" d="M155.5 113.2l-13.7 17.2-8.1-24.4-.7 32.1z"/><path fill="#565743" d="M115.8 155.8l28.3-12.7-12.3 1.1-.8-45.9z"/><path fill="#2e343a" d="M230.2 131.3l30 2.8 10.8-40-39.6 22.3z"/><path fill="#cfbea5" d="M194.8 165.6l75.9 20.2.3-6.6-36.4-7.6z"/><circle r="1" fill="#a7aaa7" transform="matrix(-7.80902 17.98244 -7.28637 -3.16416 65 114.7)"/><path fill="#40464e" d="M180.1 54.6l4-20 2.9 29.6 60.1 17.7z"/><path fill="#b5bcc3" d="M204.4 75.4l.6-2.6-35.8-8.5-34.7-9.1z"/><circle r="1" fill="#e4d8ae" transform="rotate(-169.5 131 60.4) scale(27.95085 1.80375)"/><path fill="#e2e9e9" d="M31 86h94v2H31z"/><path fill="#bfc5c2" d="M127 83h34v16h-34z"/><circle r="1" fill="#676554" transform="matrix(.32207 -1.9447 30.40515 5.03558 75.7 147)"/><path fill="#e2d3be" d="M190.4 148l-1.8-7.9 2.3-2.7 18.4-2.6z"/><path fill="#fbf2f3" d="M224.3 143l-2 7.8-14.6-3.9 2-7.7z"/><path fill="#888a8a" d="M63.7 24.8l24.4-6.2 19.3 13.2-41.7-17z"/><path fill="#5d4342" d="M203 128l15 10-6 2z"/><path fill="#4f2718" d="M178.3 130.7l-2.2-5.5-3-20.1-6.7 66.7z"/><circle r="1" fill="#849cad" transform="rotate(-68.6 150.7 -122.6) scale(3.64846 26.96875)"/><circle r="1" fill="#988674" transform="rotate(-83.4 159.1 14.5) scale(1.71345 46.98786)"/><path fill="#8b9195" d="M163 25.4l29.4.1-111 1.7 65.2 4.3z"/><circle r="1" fill="#ddcba7" transform="matrix(17.93895 1.9488 -.18937 1.74316 152.8 143.6)"/><path fill="#feffff" d="M0 106h33v2H0z"/><circle r="1" fill="#716963" transform="matrix(-39.23553 -3.31057 .17235 -2.0426 235.8 179.3)"/><path fill="#faebd8" d="M213.7 196.3l29.1-12-24.8-2 32.7 29.5z"/><path fill="#2a2420" d="M153 120l-13 12 4 4z"/><path fill="#2e3838" d="M217.1 105.3l-39.1 1.9 7.6-31.1 13 40.6z"/><path fill="#fffff2" d="M2.7 6.4L39.5-5.2-16-14.6v25.8z"/><path fill="#261f13" d="M200 146l-11 12-1-11z"/><path fill="#d5cea2" d="M123 148h29v3h-29z"/></g></g></svg>