<svg xmlns="http://www.w3.org/2000/svg" viewBox="0 0 933 1400"><defs/><filter id="a"><feGaussianBlur stdDeviation="12"/></filter><rect width="100%" height="100%" fill="#5f3833"/><g filter="url(#a)"><g fill-opacity=".5" transform="translate(2.7 2.7) scale(5.46875)"><ellipse cx="99" cy="168" fill="#b0b4c3" rx="142" ry="170"/><circle r="1" transform="rotate(148.3 67.7 71.6) scale(55.31828 23.5266)"/><ellipse cx="154" cy="163" fill="#cbe7ff" rx="116" ry="24"/><path d="M10 81l23 27L94 9z"/><circle r="1" fill="#2e0000" transform="matrix(-4.02208 -14.18506 57.75063 -16.37482 159.8 226.8)"/><path d="M123 245l-27-63-34-4z"/><circle r="1" fill="#c92723" transform="matrix(25.3878 -1.81495 5.50434 76.99577 109 17.8)"/><circle r="1" fill="#005495" transform="matrix(-17.9626 19.6766 -24.61491 -22.47074 53.6 17)"/><circle r="1" fill="#e8f7ff" transform="matrix(12.62072 -16.50721 14.2024 10.85855 87 59.3)"/><ellipse cx="31" cy="214" fill="#9fc3d3" rx="35" ry="48"/><path d="M40.4 135.8l-4.5 19.9 43.5-23.4 31.7-40.5z"/><path fill="#ffe3fd" d="M185 31l-44-13-13 73z"/><circle r="1" fill="#cfedff" transform="matrix(-2.60994 -17.05606 27.18289 -4.15957 126.7 193.2)"/><path fill="#00262c" d="M122.2 219.3L20.1 198.7l-23.6-9 50.4-3.5z"/><circle r="1" transform="matrix(13.52748 -2.99296 4.01043 18.12618 78.3 98.5)"/><circle r="1" fill="#005e95" transform="rotate(-46.1 226.3 -49.1) scale(8.17857 44.33551)"/><circle r="1" fill="#fff" transform="matrix(6.40615 31.57614 -7.68365 1.55885 96.5 242.7)"/><circle r="1" fill="#ff4700" transform="matrix(-39.4524 20.6538 -5.98164 -11.42599 0 140.7)"/><circle r="1" transform="matrix(-12.7008 -4.4088 13.5675 -39.08498 145.8 107.6)"/><path fill="#ffdbe2" d="M0 37h45v21H0z"/><path fill="#f6d8d7" d="M-2 179l102-60-41 66z"/><circle r="1" fill="#ffffec" transform="rotate(-144.5 18.8 47.3) scale(29.03226 10.57573)"/><path fill="#fff" d="M185 253.8l-32.2-2.9-16.5-7.7-35.1 27.8z"/><path fill="#ffdcf4" d="M150 122h20v61h-20z"/><path fill="#bfedff" d="M71 101l-43 23 53-2z"/><path d="M46 268l17-33 21 36zM185.3-13.4l6.3 27.3-41 9.5L144.5-4z"/><path fill="#cdebff" d="M103.5 31.5L115.7-16l3.7 25.6-.9 17.9z"/><circle r="1" fill="#ef072e" transform="matrix(-5.61034 -7.26129 13.42996 -10.37648 35.2 159.3)"/><path fill="#740000" d="M127.2-.2L97.9 73.7l43.4-18.9-4.5-6.1z"/><path d="M-7 36l36-5 23-47z"/><path fill="#d9b1c2" d="M131 3h17v85h-17z"/><path fill="#e89e19" d="M90.3 265.8L77.5 268l-13.8-77.8 12.8-2.2z"/><path fill="#fff" d="M92 113l31 13-35 2z"/><circle r="1" fill="#c2000a" transform="matrix(-7.17823 -3.0322 10.61965 -25.14023 131.1 229.4)"/><circle r="1" fill="#fff5fb" transform="matrix(-6.80564 -5.15867 26.84865 -35.42041 39.1 253.2)"/><path fill="#001f28" d="M145 217h25v34h-25z"/><path fill="#fff" d="M134 105l-12-18-11 16z"/><path fill="#00000c" d="M56.4 100.7l28.2-28.4-20.2 32.8-49.7 13.2z"/><circle r="1" transform="rotate(-142.6 32.9 30.2) scale(8.97207 30.88595)"/><path d="M110 108h60v15h-60z"/><circle r="1" fill="#a30000" transform="rotate(138.3 46.2 132.8) scale(11.64853 22.67434)"/><path fill="#179dd8" d="M61.4 194l7.5 20.6L26.6 230l-7.5-20.6z"/><circle r="1" fill="#ff3b5a" transform="rotate(-46.4 17 -3.3) scale(17.42893 10.76537)"/><circle r="1" fill="#df8318" transform="matrix(5.01373 5.91198 -21.64803 18.35886 18.5 248.5)"/><path d="M35.5 185.5l-5.7 24.2 19.5-10.2 8.3-8.6zm72.5-43.6L72.7 135l1.3-6.9 35.3 6.9z"/><path fill="#f1dbe2" d="M54.5 100.8l44.7-50.9-36.6 19.2-12.7 16.8z"/><path d="M107 205l14 41-14 15z"/><path fill="#2eaaef" d="M162 45h8v43h-8z"/><path fill="#c66500" d="M21 65l-1 32-36-45z"/><path fill="#b40003" d="M84 117l25-7 9-38z"/><ellipse cx="61" cy="17" fill="#006d9e" rx="22" ry="29"/><path fill="#e7cfd5" d="M65.3 48.3l26.3 44.9-.4 35.4 9.5-44.3z"/><path fill="#ffafc3" d="M-7 180l30 40-15 39z"/><path fill="#8f0000" d="M7 213l-23 11 31 2z"/><path fill="#bbd5eb" d="M119 222l-51-84 72 55z"/><path d="M43 47h25v21H43z"/><path fill="#fff2ff" d="M110 135h23v7h-23z"/><circle r="1" fill="#0071b9" transform="matrix(14.32778 8.74571 -4.015 6.57762 12.3 189.7)"/><path fill="#ff6101" d="M110 2L82 45l4-61z"/><path fill="#b76409" d="M33.1 98.6l-2 37.3 23-37.4-17.2-14.2z"/><path fill="#ffd8f7" d="M136.6 195.3l9.1-11.8 11 19.9-2.1 13.8z"/><path fill="#000106" d="M82.6 207.8l-1.2-32 10.1 11.4 33.2 56.5z"/><path fill="#d1bfd1" d="M119 65l32 28-7-39z"/><path d="M49.6 145.8l-6-14.8 26.8-10.8 6 14.8z"/><path fill="#000001" d="M150 142.2l-1.5-79.3 29.7 44.7-47.5 29.3z"/><path fill="#ffd6d6" d="M-2 58l33 11V57z"/><path fill="#ebd0e6" d="M93 205l-13.4 30.8 5.3 6.8 24.3 28.4z"/><path fill="#31a3d3" d="M59.6 178.7l-8.6 54 15.2-34.1 1.8-29.4z"/><path fill="#d6e6e2" d="M17 193l73-72-11 47z"/><path fill="#750002" d="M141 45L92 33l41 25z"/><path d="M185 15.1l-28.9 5.1-7.1 12 .2-48.2z"/><path fill="#780002" d="M120 4l-5 37 25-16z"/><circle r="1" fill="#020a0e" transform="matrix(-5.45149 1.91977 -7.23688 -20.55025 84.5 95.6)"/><path fill="#fff5ff" d="M71 103l2-13 10-6z"/><path fill="#f2cacd" d="M39.9 38.4l-3.2 4.1 24.7 6.3 2.4-2.8z"/><path fill="#dd5c18" d="M-1 105l-3 80 33-61z"/><path fill="#ddcbde" d="M133.2-6.7l-4.7 25.2 17.5 3.1-2.9-12.2z"/><path fill="#fff" d="M165 227h3v15h-3z"/><path fill="#fbdbde" d="M46 74h5v14h-5z"/><path fill="#4085b0" d="M88.7 149.3l-2 29.9 13.9-30.7L67 108.7z"/><ellipse cx="159" cy="131" fill="#e0d2e3" rx="12" ry="11"/><path fill="#09608f" d="M5 34l73 2 4-38z"/><path fill="#000510" d="M38.3 110.4l31.2-20.7 6.5-13-5.4 27.5z"/><path fill="#d3bece" d="M122.6 38.4l51.5-23.1-12.5 52.8-27.1-25.4z"/><path fill="#8f000d" d="M95 68l14 29 23-21z"/><path fill="#d3dbd8" d="M9.7 167.1l73.4 12.2 3.4-45.4-59.3 62.2z"/><path fill="#fff" d="M170.8 251.3L155 271l-12.7-27.6-29.3 15.1z"/><path fill="#a11225" d="M119.4 220.3l28.5-17.1 1.7 18.4-26.7 34.3z"/><ellipse cx="64" cy="251" rx="6" ry="21"/><path fill="#bacfe4" d="M115 154.9l-18.6 51.4 22-3.8-14.4-46.3z"/><path fill="#96c0da" d="M82.6 130.2l-13.7-7.9-38.5 14 29.7-35.8z"/><ellipse cx="99" cy="123" fill="#fbe5f1" rx="12" ry="9"/><path fill="#baf3ff" d="M129 199l-13 32-2-17z"/><path fill="#010000" d="M52.8-7.6l-28.4 10L15.2 24l10 6.2z"/><path fill="#091a20" d="M185 246.4l-50.8-11.8L185 196l-40 57.1z"/><path fill="#c1c1cb" d="M60.6 81l48.1-18.2-11.5-20.2 13.9-27.2z"/><path fill="#800213" d="M131.5-16l-20.9 99.1-12.1-58.4 29 18.9z"/><path fill="#000005" d="M111.8 131.9l13.7-27.3-22.5 37.5-24.4-9.4z"/></g></g></svg>