<svg xmlns="http://www.w3.org/2000/svg" viewBox="0 0 1400 933"><defs/><filter id="a"><feGaussianBlur stdDeviation="12"/></filter><rect width="100%" height="100%" fill="#344751"/><g filter="url(#a)"><g fill-opacity=".5" transform="translate(2.7 2.7) scale(5.46875)"><circle r="1" fill="#f5ab7a" transform="matrix(43.20665 88.58676 -229.19247 111.78464 91.5 65.3)"/><circle r="1" fill="#fff0e5" transform="rotate(117.6 79.5 138.9) scale(24.17925 14.60315)"/><path fill="#fff" d="M137.5 77.7l24-.4 1 61-24 .4z"/><ellipse cx="190" cy="128" fill="#22110d" rx="28" ry="53"/><circle r="1" fill="#281e06" transform="rotate(-110.9 47.7 -22.5) scale(64.53905 20.0768)"/><path fill="#dde3ea" d="M155 59l65-17 51-58z"/><path d="M227 24l42 4-25 37z"/><path fill="#0a2610" d="M53 102h27v44H53z"/><circle r="1" fill="#aa6538" transform="matrix(13.11051 90.98067 -19.7339 2.8437 127 163)"/><circle r="1" fill="#daab8b" transform="matrix(-61.55837 50.9596 -6.67218 -8.05989 44 109)"/><path fill="#000400" d="M39 77.1l17.5 11.4 15.1-20.9-17.7 2.5z"/><circle r="1" fill="#efac57" transform="matrix(-8.0462 11.97178 -40.85302 -27.4572 36.7 13.3)"/><ellipse cx="181" cy="158" fill="#c1ac95" rx="6" ry="36"/><path fill="#2a020b" d="M196.1 58.5l16.4 63.1 22.3-64.8-60.6 70.2z"/><path fill="#ffffe8" d="M119.9 6L113 21.4l1.7 4.7L172.2-16z"/><path fill="#dae8f7" d="M235 64h21v21h-21z"/><circle r="1" transform="matrix(-10.0216 -3.92211 13.17001 -33.65143 162.5 160.2)"/><path fill="#efdabd" d="M103.3 128l-14.6-14-32.6 6-23.3 2.7z"/><path fill="#003048" d="M170.6 69.5l18.8-23.2-35.1-26.1L205 67.8z"/><ellipse cx="2" cy="101" fill="#731d0f" rx="5" ry="99"/><path d="M85.9 34.7l51.5 1.7-41-25.1-15.1 51z"/><path fill="#f0c9a0" d="M45.2 77.5L9.1 36.7l64.8 22.6-51.3 24.9z"/><path fill="#b9b4bb" d="M197.1 8.5l-39-18.2L144 45.5l33.4-19.1z"/><path d="M248.1 92.7l-14.9 2.6-.6 28.1L261.2 97zM32 36h20v9H32z"/><path fill="#cabebe" d="M251 134l-31-29 4 55z"/><path d="M140 7h7v23h-7z"/><path fill="#e7c8a4" d="M141.2 29.4L122.5-16 78.9 32.9 95.8-16z"/><path fill="#dfc4b4" d="M196.5 72l-40.4-5.3 30.4 43.1-10.4-19.5z"/><path fill="#fffff1" d="M204 61h9v23h-9z"/><path fill="#fde0bf" d="M39.7 137.4l-37.5 28 28.4-11.2 30.7-5.3z"/><path fill="#e0d1ba" d="M216.6 14.7l27.7 11.4 19.6 38.2L271-14z"/><path fill="#950000" d="M146 45l30 10-50 7z"/><path fill="#e0b089" d="M70 88l-2-60 55 108z"/><path d="M178 23l-11 14 15 8z"/><circle r="1" fill="#8b110c" transform="matrix(-16.41076 15.83314 -5.59297 -5.79701 240.8 154)"/><path fill="#ffffdc" d="M204 106l5 11-22-13z"/><path d="M93 65L65 16l15-2z"/><path fill="#b59d7b" d="M89.9 35.9l78.2 3.1-74.6 23.6-18.1-54z"/><path fill="#241e25" d="M133.1 145.7l-16.5 8.5-5.2-15.8-26.5-32.9z"/><path fill="#031e1c" d="M-16 162.3l58.3-25.5 43.5 13.1-31-25.8z"/><path fill="#efb893" d="M140 171l-47-40-8 14z"/><path fill="#050000" d="M187.5 15.3L213-16l-4.1 55.6L206.5.7z"/><ellipse cx="17" cy="33" fill="#dcaa80" rx="6" ry="102"/><path fill="#000b18" d="M160 85l12 36 2-32z"/><path fill="#121b0a" d="M70.3 94.5l15 16-11.6 11-15-16z"/><path d="M265.3 58.2l-41.7-36.6 23.3 44.9 24.1-50z"/><ellipse cx="77" cy="12" fill="#fff" rx="13" ry="2"/><path fill="#eed2c9" d="M201 28l39 35-9-28z"/><path fill="#020000" d="M101 54h13v19h-13z"/><ellipse cx="150" cy="114" fill="#e3e1d7" rx="14" ry="29"/><path fill="#f0d4d0" d="M232.3 145.1l30-14.3-19.4-22.5 1.9 46.5z"/><path fill="#abbcc3" d="M199 52.6l13.5-11.4L203.3 7 173 48.4z"/><path fill="#b16018" d="M4.7 12.5L69 20.2 5 39.5 55.6 2.6z"/><path fill="#000006" d="M214 4h4v25h-4z"/><path fill="#f8d9d6" d="M227 101l13-13V59z"/><path fill="#f45200" d="M160.7-8.9l-13.4 27.8 21-6.6L140.1-16z"/><path fill="#be8b60" d="M149.8 185l-9.6-68.2L126 146l27.3 39z"/><path fill="#d7b89a" d="M8.5 146.4l25.7-13.6 26.5-9.8-23-32.3z"/><path fill="#136785" d="M192 72l-10-13 34-18z"/><path fill="#f4e3c6" d="M66.6 81.1l1 19.9-23.2-21.3-6.7 12.2z"/><path d="M90.6 8.2L67.3-16l30.4 43.9-11.3 12.9z"/><circle r="1" transform="rotate(-134.4 103.7 -7.7) scale(3.8452 11.66237)"/><circle r="1" transform="matrix(-13.63237 -28.35713 3.18449 -1.5309 255 112.8)"/><path d="M271 5l-22 27 22 1z"/><path fill="#eabfa3" d="M160 57h13v28h-13z"/><path fill="#006590" d="M237.5 10l-19.7-3.2 2.7-16.8 19.7 3.2z"/><circle r="1" transform="matrix(-4.28396 1.99044 -4.0565 -8.73069 144.2 17)"/><path fill="#87340b" d="M104 89l5 25 29-56z"/><path fill="#2e211f" d="M-16 167.5l24.2-34.1-9.3 34.1 46.7-39z"/><path fill="#2b2c16" d="M71.2 145.8l-29.1-28.2.3 6.7 46.3 10.9z"/><path fill="#090000" d="M81.9 56.5l13.6 17.1-18.4-62.8-2.8 9.5z"/><path fill="#fbedaf" d="M28.2-8.6L7.8 18.6l-8-6 20.4-27.2z"/><path fill="#060000" d="M147 164l43-19-40-3z"/><path fill="#a08b7b" d="M171.6 170.4l16.5-49.6-3.2 22.5 11 41.7z"/><path fill="#edd4b7" d="M87.7 86.7l1.9-3.6-38.5-41.2-3.3 4.8z"/><path fill="#d2b296" d="M57 163h59v7H57z"/><path fill="#ffedcd" d="M161 22l-23 14 33-37z"/><path fill="#fff1e0" d="M94 66l-3-21 11 23z"/><path fill="#ffe0bc" d="M130 0h9v32h-9z"/><path fill="#d7c0a9" d="M43 18.4L27.5 36.7l21-4.5 41.5 40z"/><path fill="#930710" d="M238.3 74.9h-5.6l-1.9-25.8L217.9 91z"/><path fill="#d9a795" d="M145 89l-30 11 24-41z"/><path fill="#c56e0b" d="M68.9 27.8L77.1 60l4.1-26.2-23.6-20.2z"/><path d="M255 63l-22-44 4 35z"/><path fill="#1d140c" d="M50.2 32.7L81.3-16 92 12.4 64-.5z"/><path d="M122 17h7v10h-7z"/><path fill="#f0deae" d="M38.7 18L54.7.4-16-8.1l77.7 18.5z"/><path fill="#248099" d="M248 73h8v20h-8z"/><path fill="#efd2ad" d="M88.3 66.6l-39 1.8-21 24.5 11.9-30.5z"/><path fill="#8b4400" d="M19.6 13l-.2 2.2L37.3-16-6.4 39.9z"/><path fill="#510000" d="M204.3-3.3l-.6 15-10-.4.6-15z"/><ellipse cx="255" cy="41" fill="#ffffc3" rx="11" ry="3"/><path d="M213 109l58-2-21-14z"/><path fill="#cc7310" d="M108.7 125.3l.1-39-58.3-68.8 49.9 65.4z"/><path d="M136 108l-17-11 15 4z"/><path fill="#7a4a10" d="M111 30.2L125.9-16 95.6 47.6l6.1 22.9z"/><path fill="#e3baa5" d="M207 79l20-21-5-58z"/><path fill="#070c0e" d="M165 112h36v10h-36z"/><path d="M153 75l-5 3-7-10z"/></g></g></svg>