<svg xmlns="http://www.w3.org/2000/svg" viewBox="0 0 933 1400"><defs/><filter id="a"><feGaussianBlur stdDeviation="12"/></filter><rect width="100%" height="100%" fill="#412b35"/><g filter="url(#a)"><g fill-opacity=".5" transform="translate(2.7 2.7) scale(5.46875)"><circle r="1" fill="#ecffff" transform="matrix(-12.41059 -168.5437 115.30692 -8.49054 82 144.8)"/><ellipse cx="135" cy="141" rx="12" ry="54"/><circle cx="20" cy="198" r="39" fill="#eff9ff"/><path fill="#fffeff" d="M155 161l-50 79 80-1z"/><path fill="#fff" d="M69 152h55v40H69z"/><ellipse cx="124" cy="143" rx="29" ry="10"/><circle r="1" fill="#871a2c" transform="matrix(7.1871 69.85405 -20.73978 2.13386 169 81.5)"/><ellipse cx="89" cy="219" rx="4" ry="34"/><circle r="1" fill="#0d4670" transform="rotate(-130 8 -3.7) scale(30.57992 142.01983)"/><path d="M125 247h36v9h-36z"/><circle r="1" fill="#006bc7" transform="matrix(5.174 9.77068 -15.81018 8.37219 133 201)"/><path fill="#b00407" d="M36.9 271l56.2-89.5-37.7 15 5.3 9.3z"/><path fill="#15242e" d="M95 14l-6-30 76 36z"/><path fill="#000001" d="M83.9 44.9L94.2 48l-41 28-9.6-1.6z"/><path fill="#c0dadc" d="M54.8 8.4L83 40.8-.8 113.6-29 81.2z"/><path fill="#fff" d="M126 104l32-15-30 26z"/><path d="M100 206h5v39h-5z"/><circle r="1" fill="#5d90e8" transform="matrix(-11.97007 -9.3577 24.76389 -31.67714 22 223.6)"/><path fill="#fff" d="M88.5 132.5l62-11 1 6-62 11z"/><path fill="#000005" d="M124.4 119.6l8.6-21.5-27.6 23.5-1.2 8.8z"/><path d="M19.3 144.4l-33.5-15.7 51.9 20.8 20.1-13.3z"/><ellipse cx="9" cy="179" fill="#fff" rx="41" ry="19"/><path fill="#ffe8ff" d="M108 210l77 6-78 39z"/><path fill="#00243c" d="M117.8 86.9L82 138.7l46.6-54.1 14.7-36.8z"/><circle r="1" fill="#d97310" transform="rotate(-154.3 16.4 72) scale(68.29991 7.4276)"/><path fill="#000007" d="M19.7 109.2l30.9-18.7-40.1 9.5 4.6 7.3z"/><path fill="#bbd7ff" d="M45.9 271L63 223.9l23.8-15.8-1 44.5z"/><path fill="#0b2837" d="M84.2 134.9l-40.1 32.4 38.2-2.3-33.6-18.2z"/><circle r="1" transform="matrix(3.07944 -33.19534 7.50273 .696 135 162.2)"/><circle r="1" transform="matrix(-1.6455 19.19391 -4.65357 -.39895 90.6 207.8)"/><path fill="#fdffff" d="M49 151.8l44.8-34.5-55.2 33.3 24.9 23.6z"/><path fill="#fff" d="M185 188.1l-30.1-64.6-3.6 28 33.7 18.2z"/><path fill="#f2ffff" d="M143 73l-66 29 40-34z"/><path d="M100 135h52v14h-52z"/><path fill="#bfe7ff" d="M62 178l24-48 46 73z"/><path fill="#cb0014" d="M152.5 155.9l32.5 69.4v-46.2l-22.9-22.8z"/><path fill="#c4dbdd" d="M52 124L24 98l114 5z"/><path d="M6 131l5-12 22-2z"/><path fill="#083951" d="M114.2 76.2l57.5-90.4-62.3 84.7L83.2 84z"/><path fill="#0e0000" d="M161.5 98.7l-2.2 9.6-35.7 18.6 36.9-36.5z"/><path d="M185 5.7l-38.8 29.4-1.7 27.3L165.9 14zM99 231l11-25-6-8z"/><path fill="#cee5e4" d="M100 44l26-49-54 53z"/><circle r="1" fill="#e9ecfb" transform="matrix(3.42266 .4196 -4.9449 40.33518 98.8 209.5)"/><path fill="#153d4e" d="M111 56.6L55.3 81.4l52-10.9-39.4-14.3z"/><path d="M-1 271h27l7-30zm149 0l-8-32-35 32zm-88.8-73.5l2.2 19.9 15.4-21.7-12.7 1.1z"/><path fill="#f9ffff" d="M86 56L76 80l-9-18z"/><path fill="#fef" d="M141.7 172l37.3 26.1-37.2 65 10.1-65.1z"/><path fill="#00141f" d="M140.1 54.3l20.1.8 22-36.3L115 92.5z"/><ellipse cx="112" cy="174" fill="#ffedee" rx="15" ry="25"/><circle r="1" fill="#050000" transform="matrix(5.95762 -8.18273 5.1424 3.74404 104 9)"/><path fill="#00a0e6" d="M64.4 261l1.7 10 18.4-43.4-15.8.5z"/><circle r="1" transform="matrix(9.53646 -9.2954 1.5999 1.6414 98 117.1)"/><path fill="#621929" d="M64.2 11.6l-51-2.4 85.2-3.7-1 1.7z"/><path d="M113.6 146l-14.1 9.5-5-7.5 14-9.5z"/><path fill="#002236" d="M120.4 31.1L94 46.9l35.3-33.4-13.7-.6z"/><path fill="#e29314" d="M161.2 247.6l-9.6-3.3 23.5-28.8 9.9 19.2z"/><path fill="#002637" d="M139.8 5.8L110.3 53l8.1-2.8L145.5 3z"/><path fill="#5c0b29" d="M.7 56.3l16.6-29.9L5 62.5l-21 18z"/><path fill="#c7e6f6" d="M85.1 140l36.4-46.1-33 66.7-37.9-6.5z"/><path fill="#0e87c3" d="M108.9 201l22.5 15.9 16.5-12.2-1.5-20.5z"/><path fill="#f7f5e8" d="M30.6 88.8l-20 55.4 37.1-73.7 1 14.8z"/><path fill="#002031" d="M45.3 118.9L40 106.5l7.5 1.4-35.8 17.7z"/><path fill="#e92e45" d="M81.6 195.4l-2.8 23.8-53.1 34 49.6-52.9z"/><path fill="#ffd4e5" d="M53.1 263.3l-25.2-.4 35.7-53.1-25.3 7z"/><path fill="#fffef3" d="M-4.7 119.1l30.4-9.7-5.5 18.1L-16 72.4z"/><path fill="#cfd8d6" d="M126.7 34.4L147.9 4l-1 18.7 18.9-5.5z"/><path fill="#d8e7e7" d="M133 53h16l-31-35z"/><circle r="1" fill="#f2ffff" transform="matrix(-10.17266 5.1673 -1.7091 -3.36462 145.4 82.2)"/><path fill="#eaf9f8" d="M77.2 135.6l50.6-64.7-55 58.7-44.9 5.5z"/><path d="M19 130h14v5H19z"/><path fill="#dccfd3" d="M162.1 83l12.8 20.1-13.7-10.8-44.7 32.1z"/><path fill="#00000c" d="M112.4 128.1l14.4-22.6L179 72.3l-55.6 28z"/><path fill="#f2e2fb" d="M102.8 250.6l-28.2-.1 54.2 20.5-16.9-51.6z"/><path d="M101 99l-11 3 14-14zm40-22l11-3-6-6zm-88 79l10 12 6-10z"/><path fill="#d6882b" d="M56.2 165.4l-24.4-9.6 35.8 41.6 3.2-.2z"/><path fill="#da1c3f" d="M141.9 182l7.7-19.1 35.4 14.7-41.3-25.8z"/><path fill="#eaf8f3" d="M71.1 79.3L59 96.4l-22.3 4.4 28.7-19.6z"/><path fill="#00001e" d="M86 117l-15 13-8-2z"/><path fill="#ffedf6" d="M66 219l-13 33 29-34z"/><path fill="#1c313e" d="M61.7 119.4l5-2 17.1-14.2 2.6 5.4z"/><path fill="#ff5f0b" d="M-16 177v72l24-34z"/><path fill="#dae7e6" d="M129.6 68.4l-60.2 15-1-3.8 60.2-15z"/><path fill="#fff" d="M156 130l-6-11-24 8z"/><circle cx="139" cy="140" r="12" fill="#00000c"/><path d="M126.9 108.8l-13.3 7.6 42.1-8-20.6 17.1z"/><path fill="#cedde3" d="M122.1 105.8l41.8-64-60.5 74.2-9.1 14.3z"/><path fill="#d8e6e4" d="M110.7 47.3L150.8-16 102 50.3l14.6 10.2z"/><path fill="#fffeff" d="M33.4 157l-3.5-7.8-4.2-12.7-13.9-3.8z"/><path fill="#00030f" d="M107.4 129.5l22.4 10.8-5.2 32.8 18.6 13.2z"/><path fill="#172140" d="M35.8 14.7l-4 14.9L53-16 71 3.1z"/><path d="M28 93l-10 17-2-11z"/><path fill="#dcf9f1" d="M152.3 48.3L163 24.5l2.8 1.2L155 49.5z"/><path fill="#fdffff" d="M185-10.9l-21.9 65.7 3-2.7 18.9-3z"/><path fill="#ebfffb" d="M185 76.2l-12.5-1.9-12.1-9.9-9.1 4.6z"/><path fill="#fffff7" d="M20.3 166.5l46.1 22-37.4 6.6-31.6 22.1z"/></g></g></svg>