<svg xmlns="http://www.w3.org/2000/svg" viewBox="0 0 933 1400"><defs/><filter id="a"><feGaussianBlur stdDeviation="12"/></filter><rect width="100%" height="100%" fill="#273a45"/><g filter="url(#a)"><g fill-opacity=".5" transform="translate(2.7 2.7) scale(5.46875)"><circle cx="65" cy="242" r="254" fill="#ffd7ac"/><path fill="#56361d" d="M92 247l75-263L18 46z"/><circle r="1" fill="#ecfcff" transform="matrix(168.38457 14.40964 -3.47486 40.6056 76.8 235.4)"/><ellipse cx="4" cy="47" fill="#fff" rx="14" ry="255"/><path d="M138 180l-38-65 33 136z"/><circle r="1" fill="#060b12" transform="rotate(171.1 33.8 91.5) scale(11.41099 71.1862)"/><circle r="1" fill="#fff" transform="matrix(-22.28343 10.98535 -18.35897 -37.24058 166.8 229)"/><circle r="1" fill="#cf9e6b" transform="matrix(-5.75677 48.27771 -31.07988 -3.70605 53.7 59.8)"/><circle r="1" fill="#ebe2d8" transform="matrix(7.24789 -34.97298 16.77086 3.47563 140.8 138.2)"/><circle r="1" fill="#402f28" transform="matrix(62.5718 6.68663 -2.70322 25.2961 78.6 172.2)"/><path fill="#fffedc" d="M125 54l9-24 47-18z"/><ellipse cx="24" cy="114" fill="#8f2010" rx="7" ry="74"/><path d="M107 162l29 71 1-55zm25.3-104.9l-17 12.4-13.6-18.6 17-12.4z"/><path fill="#f5fdff" d="M163.4 270.2l17.5-25.6-67.7-15.1-4.8 7.8z"/><path fill="#b10000" d="M185 100.7l-39-15.8 7-17.6 39 15.8z"/><path fill="#000711" d="M134.8-15.3l26.5 14.1-14.1 26.5-26.5-14.1z"/><path fill="#392921" d="M107 96L74 31l29-47z"/><circle r="1" fill="#050c12" transform="matrix(6.57977 3.96917 -10.49049 17.39028 121.4 125.4)"/><path fill="#c59974" d="M107.6 116l8-9L81 53.9 63.3 88.5z"/><ellipse cy="191" fill="#e8ebe8" rx="18" ry="255"/><path fill="#d7d5d3" d="M0 195h82v41H0z"/><path d="M152 28.8l.4-.5v37.1l9.8-21z"/><circle r="1" transform="matrix(4.97276 1.10146 -2.32313 10.48818 48.5 9.5)"/><ellipse cx="43" cy="143" fill="#a56e52" rx="19" ry="50"/><path fill="#000b0e" d="M85 176l-4 61 14-15z"/><path fill="#ffffe8" d="M142 18l4-15-9-16z"/><path fill="#fff1ca" d="M185 47.3l-26.6 10.1L185 10.5 160.8-4.2z"/><circle r="1" fill="#bda485" transform="matrix(-6.17912 -3.2441 16.55678 -31.53601 135.4 75.4)"/><circle r="1" fill="#e1b58b" transform="matrix(-4.28272 -30.09197 11.99881 -1.70768 155 161.6)"/><ellipse cx="61" cy="66" fill="#000900" rx="10" ry="5"/><path fill="#c3b7a5" d="M70.5 38.2h43.4L98.6 54.6 95 43.2z"/><path d="M18 13h5v43h-5z"/><path fill="#f9bb5f" d="M47.3-6.3L37.7 23l-21-6.8L26.3-13z"/><path fill="#cbdce3" d="M127.5 271l-34.6-78.1 22.6 1.1 3.8-4.6z"/><path fill="#e9faff" d="M144.1 195l-8.7-2.2 12.7 78.2 36.9-74.7z"/><path fill="#ffefe0" d="M94 132H77l16 11z"/><path fill="#030000" d="M161.1 105.2l23.9 10.6-29.3-20.4-3.7-1.7z"/><path fill="#122934" d="M103 127L93 229l-19-56z"/><path fill="#eff" d="M139 104h6v63h-6z"/><path d="M73 8l1-9-12 13z"/><path fill="#201300" d="M125.1 6.5l19.6 23.4L128.3-16 97.2 7.8z"/><path fill="#a18d59" d="M56 237l43 13-2-16z"/><path fill="#eddb92" d="M55.1 32.7L93-16 76.5 29.2 47.7 16.9z"/><path fill="#cb7310" d="M75.6 54.5L20.1 28.8l68.1 21.1L102.3 94z"/><path fill="#77150c" d="M114.6 124.3l32.9-43.5 24.1-16.3-27.1 31.8z"/><circle r="1" fill="#4f2c2c" transform="matrix(-5.93732 7.88626 -30.0217 -22.60238 90.7 119.5)"/><path fill="#00090d" d="M125 202h13v27h-13z"/><path fill="#b15204" d="M176.2 191.6l-20.7-31-18.3-20.9 47.8 39.9z"/><circle r="1" fill="#37280c" transform="rotate(-120.6 114.6 15) scale(14.82672 2.7432)"/><path fill="#ab9879" d="M119.2 120.4l-17.6-53.3 83.4 6.2-76-10.7z"/><circle r="1" fill="#122a21" transform="matrix(26.08124 -16.04529 1.76335 2.8663 50.4 164)"/><path fill="#090b03" d="M122 76.2l-26.3-6.8.1-27.6-16 5.6z"/><path fill="#f5d0af" d="M149 60.5L132.5 28l17.7 9.3-.8 26.3z"/><path d="M164 143l5 13 16-6z"/><path fill="#ab975e" d="M103 25.3L117.1-16l7.2 31.6-7.2 26.2z"/><circle r="1" fill="#cfc0b7" transform="matrix(4.98402 -.70257 3.44442 24.43479 128.8 151.6)"/><circle r="1" fill="#e2ddd9" transform="rotate(98.3 -82 152) scale(10.57895 139.33099)"/><path fill="#041011" d="M122.4 140.3l3.7 84.3-13.2-55.4 2-51.6z"/><path fill="#aeb0ac" d="M56 193h25v51H56z"/><path fill="#fff288" d="M69.3.4L61 13l-8.4-5.4L61-5z"/><path fill="#e0b49b" d="M78.7 110.7l8.2-22.5 8.4 3-8.2 22.6z"/><path fill="#ff5000" d="M162 31h8v13h-8z"/><path fill="#e2b5a6" d="M162.1 114.6l14 6.7-23.3-24.8-14.8 8.3z"/><path fill="#b49d87" d="M52.9 73.8l-.7 35.9 20.7-16.5 18.7-26.3z"/><path fill="#a6825d" d="M22.7 189.4l51.7-16.3-14.2-14.9-14.4 11z"/><path fill="#8f4d00" d="M52.4 19L44 35.7l46.2-5L31.8 44z"/><path fill="#e3ddbc" d="M140.8 35.3l37.5-37.5 5 5-37.6 37.4z"/><circle r="1" fill="#000201" transform="matrix(2.8639 4.6476 -2.38258 1.46816 96 233.7)"/><path fill="#132f4d" d="M99.5 14.2L72.7 49.8l1.7-8.5 27.4-39.6z"/><path fill="#000608" d="M119.1 50.2l-16.9 19.5 11.5-40.1 3 43.1z"/><path fill="#d6b394" d="M54 52h34v9H54z"/><path fill="#4e4139" d="M79.4 81.7l-11-23.3 20.6 29-19.7 50.3z"/><path fill="#030c0d" d="M136.9 34.3L153 16.1l4.9-32.1L142 19.3z"/><path fill="#000208" d="M141.7 167.8L134 184l-3.6-1.8L138 166z"/><path fill="#c9b2a3" d="M97 52.6l18.3 46.1-12.2-42.3L99.6 44z"/><path fill="#fad0c8" d="M180 106.7l-30-18 2-3.4 30 18z"/><path fill="#42341b" d="M138.7 94l-9.4-16.9 3.4 6.1-32.9-18.5z"/><circle r="1" fill="#0a0400" transform="matrix(-5.88744 -14.57193 3.4972 -1.41296 101 78.7)"/><path fill="#b38962" d="M56.4 155.9l5.3-48.9-33.5 60.6L15.9 178z"/><path fill="#6e4600" d="M133.6 54.5l24.3 9.3-1.5 3.7-24.3-9.3z"/><path fill="#fddeb9" d="M78 36l-22 3 11 5z"/><path fill="#d9cd94" d="M43.9 34.3l27.6-2.7L79.1-16 94.7-4.9z"/><path fill="#ab791e" d="M161.7 143l-20-15.9 43.3 20.1-14.1-.6z"/><path fill="#c19b86" d="M45 116L27 93l13-32z"/><path fill="#dfc986" d="M24.4 23.6l10.7-8.9L43.2 30 25.7 46.3z"/><path fill="#c9c098" d="M89.7 231l-8.1 13.1-45.3-10.3 62.2 12.4z"/><circle cx="64" cy="110" r="4" fill="#f8d3aa"/><circle r="1" fill="#d9d9d3" transform="rotate(81 -124.6 116) scale(28.34441 41.94005)"/><path fill="#d7dbda" d="M104.4 271l-6.8-52.1-3.1-15.2 45.3 37.1z"/><path fill="#000711" d="M125.4 24.7L121.3-16 101.7 5.9 144.3-16z"/><path fill="#83332b" d="M19.9 189.3l-1.4-8.7-.2-68.5 13.2 71.3z"/><path fill="#8e6b4c" d="M104 139h8v37h-8z"/><path d="M155 40l7 6-9 13z"/><path fill="#ad2100" d="M26 12.3l-3-2.7 19-21.9 3 2.7z"/><path d="M49-16h12L45 21z"/><path fill="#9a620c" d="M122 29l-3 37 12-30z"/><path fill="#fff3e1" d="M137.2 20.9l-8 1.2-.4-3 8-1.2z"/><path fill="#193f2f" d="M81.3 97.7l-14-2.6-21.2 36.1 5.2-17.4z"/><path fill="#febda2" d="M119 81l14 11-7 10z"/></g></g></svg>