<svg xmlns="http://www.w3.org/2000/svg" viewBox="0 0 1400 933"><defs/><filter id="a"><feGaussianBlur stdDeviation="12"/></filter><rect width="100%" height="100%" fill="#305463"/><g filter="url(#a)"><g fill-opacity=".5" transform="translate(2.7 2.7) scale(5.46875)"><circle r="1" fill="#e0814c" transform="rotate(59.2 12 120.5) scale(108.34824 249.47415)"/><circle r="1" fill="#180000" transform="rotate(-164.6 103.6 52.7) scale(27.67169 60.44773)"/><circle r="1" fill="#fff" transform="matrix(13.65863 -.63282 1.57298 33.9506 150.4 111.6)"/><circle r="1" fill="#ffbbac" transform="matrix(-10.47605 21.02129 -14.21532 -7.08427 238.8 134.5)"/><circle r="1" fill="#2e1e03" transform="matrix(15.73864 55.3946 -21.59252 6.13484 90 19)"/><circle r="1" fill="#efe7e8" transform="matrix(56.05716 -44.58988 3.96913 4.98989 244.4 9)"/><path d="M250 63.5l-9-3.8-15.8-36.3 32 7.2z"/><path fill="#001a0a" d="M56 103h23v46H56z"/><path fill="#ffffe1" d="M140 .3l-4.5 19.5-17.5-4 4.5-19.6z"/><circle r="1" fill="#500" transform="matrix(-53.32906 39.83877 -7.33735 -9.82193 239.3 161.6)"/><path fill="#d7ab86" d="M107 50L8 119l29 15z"/><circle r="1" transform="matrix(-14.31177 4.23934 -5.19153 -17.52631 159.8 158.8)"/><path fill="#f5bc9f" d="M207.7 90.9l8-17.7L226 26.9l-26.2 42.7z"/><circle r="1" fill="#8b4821" transform="matrix(-16.72097 3.41371 -14.76396 -72.31656 126.7 141.2)"/><circle r="1" fill="#eb9c48" transform="matrix(51.04285 40.60131 -7.91224 9.94705 28.2 4.5)"/><path d="M258 102.5l-26 18.8-10-13.8 26-18.8z"/><path fill="#e9d1d8" d="M264.3 60.2L231.1 67l4.9 10.8-11.2 27z"/><path fill="#fff2cd" d="M47 119h42v6H47z"/><path fill="#000300" d="M56 85.3L37.8 74.4l32.5-4.7-24.2 35.7z"/><path fill="#efbd8e" d="M76.1 65.5l-25.6 5.2-13.7 8.1-14.2-39.7z"/><path fill="#b29a7f" d="M195 185l-13-62-9 47z"/><path fill="#000c14" d="M163.5 121.4l-1-35.5 28.3 16.3 12.3-47z"/><path fill="#0a263c" d="M176 48.9L167.9 25l37 44.7-32.2-.7z"/><path fill="#b6b3b6" d="M207 23.5l6.5 10.1L169 62.5l-6.5-10.1z"/><path fill="#c89c77" d="M91 35h10v120H91z"/><path d="M79.5 53.1L97.6 9.6l33 22.7-51.7 5.4z"/><circle r="1" fill="#5f1305" transform="matrix(.42561 -84.98463 6.87262 .03442 0 85.2)"/><path fill="#d5c9cb" d="M177-16l-4 38-29 9z"/><ellipse cx="60" cy="132" fill="#000500" rx="23" ry="6"/><path fill="#ffe1b5" d="M205.4 105.9l-9.7.4-8.4 1.8 22 9.4z"/><path fill="#e5c2a0" d="M72.9 156.2l-31.3-20.5-32.9 23.4 71.2-13.8z"/><path d="M151 18L138 5l4 26zM32 35h19v9H32z"/><path fill="#e8c5b5" d="M169.6 49.6l3.3 20.6 24.5.9-55.3 25.6z"/><ellipse cx="15" cy="55" fill="#cc9065" rx="8" ry="89"/><path fill="#dfb691" d="M82 27l-.4-6.3L95-7.7l12 10.8z"/><path fill="#00090d" d="M-12.9 158.6l63-31.6-39.3 29.4-15.1 12.2z"/><path fill="#570106" d="M184.1 41.7l-7.4-17.8-18.5 41.7-39-10z"/><path fill="#41050e" d="M224 114.5l-26.5-11.8 36.2-48.4-14.7 63.5z"/><path fill="#0b0c16" d="M89.5 109.6l31.7 43.4 8.5 6.5-7-21.6z"/><path fill="#b3b0af" d="M226 159l27-29-34-23z"/><path d="M94.3 66.8l-3.7 1.4-23-63 3.8-1.4z"/><path fill="#e6dbba" d="M236.4 31.4l11.5-38-2 49.8 13.9-35.7z"/><path fill="#fff3da" d="M65 11h23v4H65z"/><ellipse cx="204" cy="147" fill="#18130c" rx="19" ry="24"/><path fill="#cdb6b5" d="M241 65L220-1l-4 43z"/><path fill="#ce9f7f" d="M63 31l14 68 46 32z"/><path d="M242.5 66.3l13.2-18.8-3.8.9-21.7-25.3z"/><path fill="#372219" d="M53 104.9l46.6-13.2-22.4-8.1-3.2 43.8z"/><ellipse cx="210" cy="4" fill="#1f384e" rx="29" ry="6"/><path fill="#000100" d="M167.6 102.6L155 184l-8.4-31.8 37.4-1.9z"/><path fill="#251500" d="M88.1 35.3l22.3 43.9 7.6-20.7-4.9-1.1z"/><path fill="#ebf6ef" d="M172 80.5l10.9 25.8-2.8 1.2-11-25.8z"/><path fill="#0d2d39" d="M206.7 44.6l7.6 17.3-31.4-9.4-18.3 29.1z"/><path fill="#e0c0b8" d="M252.7 108.9l-6.9 24.7-5.6 18 1.2-41.6z"/><path fill="#69738b" d="M164.6 15.8l-13.2 18 70.9-3.2-43-33.6z"/><path fill="#ffe695" d="M265.3 39.7l-18 6.2-2.6-7.6 18-6.2z"/><path fill="#aea585" d="M116.2 81.7l-6.1-48 34.5 12.5-14.2-11z"/><path fill="#090000" d="M204.7 110.7l66.3-25-11.2 36.7-9.7-12.3z"/><path fill="#120900" d="M98.6 14.5L67.9 6.4l-16.1 20L71.9-16z"/><path fill="#ff3f00" d="M152 5h12v12h-12z"/><path fill="#984700" d="M20 6L-6 32 54 5z"/><path fill="#ded0b1" d="M146.3 2.7l-38.8 26.7L142.7-16l34.7 18.7z"/><path fill="#d39069" d="M152.5 182.2l-71.3-55.6 6.4 9.7-12.7 4.2z"/><path fill="#0d0202" d="M147.4 50.2l32-25.4 1.9 19.3-21.7-8.2z"/><path fill="#112414" d="M104.5 118.5l-6.3-3-49.3-8.5L71 99z"/><path fill="#fff1cf" d="M234.6 165.2l22.6 19.8 7.4-21-42.7 15.4z"/><path fill="#ffce9b" d="M132 17h7v16h-7z"/><path fill="#ddc3b5" d="M97.2 60.5l-2.8.9-13.6-41.9 2.8-.9z"/><path d="M78.2 50.1l20.7-37.2 7-1.6 1.7 13z"/><path fill="#fffde8" d="M211.4-17.5h1l2.2 61h-1z"/><path fill="#001004" d="M36.6 83l13.3-12.1L62.3 68l9 11.9z"/><path fill="#3a0000" d="M194.3 52.3l-16.1 16.9-10-16.2-28.1 4.4z"/><path d="M212.4-16l-2.2 47.6-2.6-.7-.9-46.9z"/><path fill="#dfbe9c" d="M62 93l-33-9 63-2z"/><path fill="#e9d086" d="M40.5-16L4.8 21.9l.1-30.1L49.6 9.6z"/><path fill="#1c282b" d="M215.9 150.3l10.3-27.2 12.8 15.7-73.1-35.4z"/><path fill="#f6fcf7" d="M156.5 76.1l11.1-2.8-26 8 21.5 20.9z"/><path fill="#e1b890" d="M52 43l14 14-35 27z"/><ellipse cx="164" cy="124" fill="#fff" rx="9" ry="2"/><path fill="#b65200" d="M104.4 112.8l9.9-9.5-46.9-62.7 36.2 36.9z"/><path fill="#fff8e3" d="M210.1 85.8l2.8-7.2 1.4-15.6-9.8 15.1z"/><path fill="#801911" d="M132.4 51.9l-22.8 57 36.1-65.6 18.8 32.4z"/><circle cx="84" cy="119" r="7" fill="#fde4c4"/><path fill="#8d0000" d="M183 22l7 3 10-20z"/><path fill="#8da5a9" d="M206.6 10.1l-4 50.8L179 39.1l19.2-23.8z"/><path fill="#020000" d="M65.3 22.1l-12.2.4 21.4-9 8 15.5z"/><path fill="#ffe1bb" d="M37 89l7 12-16 7z"/><path fill="#d3ab8e" d="M77 32L38.3 21.3l-5.4 12.6 20.2 2.2z"/><path fill="#132721" d="M90.2 148.1l-38.1-17.9-11.6-14.8 12 29.9z"/><path fill="#491629" d="M15.3 160.8L-3.2 185h116.5l-67.4-19.5z"/><path fill="#c58e80" d="M142.1 55.5l-25.4 45.1 14.8-2.6L146 64.2z"/><path fill="#c59c82" d="M63.7 160l60.7 10.1-82.5-5.6 34.4-19.8z"/><path fill="#521421" d="M69 154h39v7H69z"/><path fill="#cd8b88" d="M183 144l-4-26 9 6z"/><path fill="#e4c7b7" d="M146 42l10 3-5-30z"/><path d="M241.5 24l-4.2 28.5 33.7 23-22.5-19z"/><path fill="#b5835c" d="M149 182l-27-52 20-1z"/><path fill="#d3b192" d="M14 135.3L3.9 151.1l32.5-19.4 37.9-15.2z"/><path fill="#824135" d="M2 80h13v54H2z"/></g></g></svg>