<svg xmlns="http://www.w3.org/2000/svg" viewBox="0 0 933 1400"><defs/><filter id="a"><feGaussianBlur stdDeviation="12"/></filter><rect width="100%" height="100%" fill="#2f4b56"/><g filter="url(#a)"><g fill-opacity=".5" transform="translate(2.7 2.7) scale(5.46875)"><circle r="1" fill="#e9a87c" transform="rotate(50.1 -169.3 185.2) scale(167.86441 169)"/><circle r="1" fill="#fff" transform="matrix(3.15562 -26.40486 149.13897 17.82344 91.5 246)"/><path d="M93 247l20-92h67z"/><circle r="1" transform="matrix(-9.83603 .9471 -4.40387 -45.73597 137.4 208.4)"/><path fill="#3e3423" d="M68 158l61-174L35 98z"/><path fill="#fff" d="M149 214h21v42h-21zm-56-62h14v39H93z"/><circle r="1" fill="#f1ede7" transform="matrix(5.1808 29.44247 -74.60357 13.1275 25.1 246.6)"/><path d="M110.6 193.9l.8 48-12 .2-.8-48z"/><ellipse cx="169" cy="35" fill="#2c0000" rx="12" ry="51"/><path fill="#fff" d="M112 215h16v32h-16z"/><circle r="1" fill="#675a4c" transform="matrix(.05196 -29.32495 69.53645 .1232 75.5 23.8)"/><path fill="#021100" d="M34 168h18v29H34z"/><path fill="#ffef8f" d="M74 65L55 78 30 55z"/><path d="M151 118l13 24 5-26z"/><circle r="1" fill="#140600" transform="matrix(-34.95784 38.6886 -15.5359 -14.03775 .1 22.8)"/><path fill="#f1e1c3" d="M146 91l-46-2-29 25z"/><path d="M157.6 103.2l.5-27.9-14.2 6.2-3.2-9z"/><path fill="#73330c" d="M65 109l37 96-31-1z"/><path fill="#060000" d="M180.3 210.6l-19.8-51.4 24.5 20.3-46.4 35.5z"/><ellipse cx="20" cy="94" fill="#bb8141" rx="24" ry="58"/><path fill="#5b2c2c" d="M149.8 204.6l-46.4-81.4-29.8 32.6 54.6-22.3z"/><path fill="#0f1d0f" d="M37.2 67.5L15.8 92.8l-.2-11.6L28 56z"/><path fill="#969482" d="M120 4l47 40-52 8z"/><path fill="#000109" d="M147.4 243l-1.9-40.8-22.9-16.8 10.3 53z"/><ellipse cy="151" fill="#570800" rx="5" ry="59"/><path fill="#c6d0de" d="M149 204l23-24-24-4z"/><circle r="1" fill="#f7ffff" transform="matrix(-8.3896 7.3912 -10.97143 -12.45346 161.1 227)"/><path fill="#181210" d="M77.7 77.2l-15.2-6.8L82.3 103l22.4-20z"/><path fill="#ebd7d5" d="M126.8 129.2l74.2-56 4.2 5.6-74.2 56z"/><path fill="#fff5a2" d="M22 99l6-33 9 8z"/><path d="M66.4 106.8l16.5 16.4-20.7-.8-19.8 22z"/><path fill="#f4cfd3" d="M157 143l17-3-24 25z"/><path fill="#606e6c" d="M-16 16L97 67l29-35z"/><path fill="#330600" d="M106 101l-14 22 1-23z"/><ellipse cx="40" cy="150" rx="9" ry="5"/><path fill="#e2a980" d="M5 181l24 3 30-42z"/><path fill="#d79f6c" d="M36 18l17-1 10 60z"/><path d="M34 29l9 22 2-22z"/><ellipse cx="131" cy="172" fill="#fffbc9" rx="6" ry="3"/><path d="M118.3 189.4l-9.8 51.9-14.9-33.4 30.1-37.1zM22 123h15v6H22zm16-54l-4 20 11-21z"/><path fill="#f9d8bd" d="M85 90l-4-15 10 1z"/><path fill="#d8996a" d="M57 167.8l19.9 20.8-10.1-43.4-33.4-11.7z"/><circle r="1" transform="rotate(-162.8 51.2 -5.7) scale(4.44166 27.41471)"/><circle r="1" fill="#dce4e5" transform="rotate(113.1 -23 157.3) scale(33.49379 5.81503)"/><circle r="1" fill="#eff1dd" transform="rotate(174.8 64.6 129.3) scale(1.6264 20.8535)"/><path fill="#53050c" d="M153.2 137.6L131 167.3l25.3-12.3 4.4 26.5z"/><path d="M151 116.7l5.5-2.3 10.5 24.9-5.5 2.3z"/><path fill="#eed693" d="M20.6 102L36 90.5l29.3-57-27.9 69.9z"/><path fill="#1b0700" d="M56.8 13.3l18.7 29.9-33-34.5L-16 48.1z"/><path fill="#331809" d="M58.3 102.2l-1.8-22-23.1 34.5 19.3 3z"/><path fill="#fff8d1" d="M32 180h27v3H32z"/><path d="M110 123l8-8 1 12z"/><path fill="#e6e3dd" d="M149 83v16l-20-6z"/><path fill="#011209" d="M27.2 190.4l51.7-.9-58.2-.9-19.2 17.5z"/><path fill="#4a200f" d="M131.6 86.9l-17.1.2 33.7 20.2-21.4.1z"/><path fill="#ecc16e" d="M-9 72l25-27 12 22z"/><path fill="#f6dbb6" d="M99 98l-23 18 3-18z"/><path fill="#ffc184" d="M111 10l16 12-2-15z"/><path fill="#0b0400" d="M185 46L138-3l3 26z"/><path fill="#d2c5b7" d="M91 159h17v37H91z"/><path fill="#183b49" d="M142.5 131.4l-11 14.5-23.1.3L122 135z"/><path fill="#090e13" d="M134 73l18 2 17-9z"/><circle r="1" fill="#100000" transform="matrix(2.41784 -.77628 6.946 21.63425 55.2 129.3)"/><path fill="#e6c37d" d="M34 24h5v42h-5z"/><path fill="#e3aa8e" d="M118 161l-16-13 12-15z"/><path fill="#14170e" d="M38.3 171l26.5 5.2 19.8 22L45.7 163z"/><path fill="#f7c0a5" d="M142.6 155.7l-8.4-5.9L152 124l-10.9-2.5z"/><path fill="#c0a588" d="M108.5 116.4L99 58.7l19.9-17.5-25 92.3z"/><path fill="#0b0000" d="M144 170l-24-7 10-16z"/><path d="M88.4 76.7l-6.3 16.7L68.5 82l33.6 4.7zM141 79h20v5h-20z"/><path fill="#e8c17e" d="M2 120l19-55L3 91z"/><path fill="#cabca5" d="M15 245h132v7H15z"/><path fill="#dcdad4" d="M72 215h26v32H72z"/><path fill="#e08a45" d="M49 116l-30-16 40 50z"/><path fill="#06190e" d="M26.3 187l16.2-4.3 11.3 13.9-14 2.5z"/><path fill="#395f6a" d="M61 31l17 34 68-45z"/><path fill="#d0a677" d="M63 85l10 13-18 17z"/><path fill="#ecd6bf" d="M156.5 92.4l4.6-1.8 10.4 27-4.6 1.8z"/><path d="M41 73L23 57l5-5z"/><path fill="#000400" d="M24 74l4.4 2.4L16 98.1l-4.3-2.5z"/><path fill="#a87467" d="M26.2 35.1L12.8 15.9-16 32.5l26-5.1z"/><path d="M185 171l-21-11-22 12z"/><circle r="1" fill="#dcc5ad" transform="matrix(8.14578 -.0158 .00251 1.29495 50 107.8)"/><path d="M99 195h6v48h-6z"/><path fill="#edc4a6" d="M66 150.2L57.2 127l2.8-1.1 9 23.3z"/><path fill="#850e17" d="M164 41h6v59h-6z"/><path fill="#4c3a1f" d="M107.7 84.3L67.2 57.9l43.3 22.4 40.5 3.8z"/><path fill="#263b4b" d="M155.7 108.1l3.4-22.1-18.9 27-6.4-20.3z"/><path fill="#935a47" d="M-16 213.8l110.3-17.5 3.6 19.4L67 214z"/><path fill="#ccaf8f" d="M87.2-16l6.6 24.5 8.8-24-29.8 26.7z"/><path fill="#b51900" d="M11 62l4 10L3 88z"/><circle cx="71" cy="143" r="5"/><path fill="#e7c6c5" d="M145 105h15v10h-15z"/><path fill="#e4b68e" d="M26.8 189L7.1 206.7l-.6.6 30.8-8z"/><path fill="#a48c80" d="M123.2 190.2l-20.6-112 21.5 140.7-11.1-2.7z"/><circle r="1" fill="#010c15" transform="matrix(4.58741 10.96239 -3.52006 1.47303 113 169.2)"/></g></g></svg>