<svg xmlns="http://www.w3.org/2000/svg" viewBox="0 0 1400 933"><defs/><filter id="a"><feGaussianBlur stdDeviation="12"/></filter><rect width="100%" height="100%" fill="#384f5e"/><g filter="url(#a)"><g fill-opacity=".5" transform="translate(2.7 2.7) scale(5.46875)"><circle r="1" fill="#f4a472" transform="matrix(-181.69405 178.91973 -79.2837 -80.51306 95.3 42.4)"/><circle r="1" fill="#fffaeb" transform="matrix(-10.1775 -8.33018 14.03018 -17.14154 239.4 133.9)"/><circle r="1" fill="#2a0a00" transform="rotate(-171.9 99.4 54.3) scale(27.76342 42.94046)"/><circle r="1" fill="#31250f" transform="matrix(-20.04917 -41.27067 18.7934 -9.12977 90.1 30.2)"/><circle r="1" fill="#f1f8f9" transform="matrix(-12.53643 1.32671 -3.78057 -35.72349 151.3 105.8)"/><path fill="#ffead3" d="M261 64l-36 38 8-46z"/><path fill="#001400" d="M52 146l3-43.8 25 1.7-3 44z"/><circle r="1" fill="#c6c9cf" transform="rotate(148.9 110.1 42.7) scale(58.39886 10.71833)"/><path d="M244 24l-18-1 20 45z"/><ellipse cx="159" cy="157" rx="15" ry="16"/><path fill="#e1caaf" d="M174 185l6-68 13 58z"/><path fill="#fcd6b6" d="M47.7 99.9l56.2-25.5L80.4 9.3l13.9 54.5z"/><path fill="#ffffdf" d="M204 105.7l-17.3 1.5 21.3 11-3-17.6z"/><ellipse cx="55" cy="77" rx="11" ry="8"/><ellipse cx="52" cy="121" fill="#f2d2b6" rx="47" ry="4"/><path fill="#ffffeb" d="M176-16l-61 36 7-24z"/><circle r="1" fill="#e8a868" transform="rotate(-152.3 15.3 2.2) scale(56.1641 14.71311)"/><path d="M122 29L98 10 85 37zm17.2-18.2l2.1-9.3 9.2 22.6-9.1 9.1zM231 94h25v16h-25z"/><path fill="#000d27" d="M174.1 57.7l9-6.2 23.5 3-35 17.2z"/><circle r="1" fill="#a76a46" transform="matrix(12.94915 79.17266 -21.21826 3.47037 124.8 155.8)"/><path d="M32 35h18v10H32z"/><path fill="#dac9c9" d="M245 127l-26-21 7 51z"/><path fill="#cb9e83" d="M60 119l-49 24L9-16z"/><path fill="#8a1408" d="M201.7 98.4l18.7 13L234.8 79 231 53.3z"/><path d="M178.2 111.6l-5.8-22.9-11.1-2.7 8.9 99z"/><path fill="#7a2121" d="M138 51l9 29 39-60z"/><path d="M62 124l29 12-60-2z"/><path fill="#6c1102" d="M269.9 94.4L249.8 185l-47.2-9 68.4-55.7z"/><path fill="#b9b7c0" d="M169-16l23 29-56 36z"/><ellipse cy="24" fill="#6e1f11" rx="7" ry="144"/><path fill="#0a020a" d="M92 112l30 40 7-13z"/><path fill="#eed1b9" d="M41.9 135.5l29.9 22.1-6.6-11.4-68.8 24z"/><circle r="1" fill="#151817" transform="rotate(56.5 -132.9 88.1) scale(4.08984 36.73424)"/><path fill="#eacec1" d="M172.3 67.8V44l-29.8 50.5L199 72.2z"/><path fill="#0a0000" d="M199 67l8 38-29-9z"/><path fill="#ecd0b9" d="M118.6-16L90.3 20.7 64.1 10.2l29.2 1z"/><circle r="1" fill="#060200" transform="matrix(-13.57968 4.96497 -8.05992 -22.04465 201.8 157)"/><path fill="#020000" d="M76.7 16.9l-23-2.2 12.6 6.8 31.2 53.7z"/><path fill="#ddb693" d="M34 45h45v24H34z"/><ellipse cx="209" cy="11" rx="3" ry="17"/><path fill="#d4c29c" d="M142.3 16.1l-22.5 49.7L104 46.4l24.9-13.3z"/><path fill="#dfbdb2" d="M223.8.8L204.9 68l.8 21L231 48.9z"/><path d="M241.8 29l12 33.9-7.9-2.2-21.6-34.2z"/><path fill="#fad5b2" d="M81 98l35 33-15-41z"/><path fill="#ffffa9" d="M257.6 33.1l3.6 6-12.8 7.8-3.6-6z"/><path fill="#d7b197" d="M83 145l52 27-46-59z"/><path fill="#fffbf0" d="M250 108l-9 2 7 23z"/><path d="M179 25l1 17-13-7z"/><path fill="#ddc9c4" d="M271 87.1l-17.2-54.3 1.6 18.1-24.8 32.7z"/><path fill="#55282b" d="M24 56h7v53h-7z"/><path fill="#fffff7" d="M136 66l5-6 21 11z"/><path fill="#fde2ca" d="M53 165l23 10 25-16z"/><path d="M100 72l18 2-11-18z"/><path fill="#3a0116" d="M56 166l-37-6-35 23z"/><path fill="#050000" d="M212.1 100.2l58.9 15.1-27.9-30-1.3 37.3z"/><path fill="#f9d4b4" d="M125.7 9L143 5.9 137-16l2.3 72.3z"/><path d="M218.4-18l2 .2-4.8 45.8-2-.2z"/><circle r="1" transform="matrix(-12.5375 32.9488 -10.594 -4.03117 163.3 157.6)"/><path fill="#e0ccc7" d="M230.6 34.2L178 37.3l50.9 10.2 20.6 39.7z"/><circle r="1" fill="#e7caaf" transform="matrix(-17.1069 22.70163 -3.42622 -2.58184 65.5 87.3)"/><path fill="#6b200c" d="M111 108l-1-25 30-33z"/><path fill="#d5d2c7" d="M182.7 103.7l-3.9 3-7.1-19-4.5-19.9z"/><path fill="#051512" d="M56.7 37l-26 2.2 23.9 3 19.9 24.9z"/><path fill="#c9b098" d="M96.5 42l-7.1-5.2 38.9-1.2L202.2 47z"/><path fill="#352001" d="M136.4 34.7L100.8 36l28.3-19.8.4 15.8z"/><path fill="#0d0000" d="M196 11l21-27-24 17z"/><path fill="#1b200b" d="M91.5 112.3L80 114.1l-31.4 5.8 19.6-22.1z"/><path fill="#f9c9c2" d="M179 120h7v21h-7z"/><path fill="#f5d5b7" d="M55.6 166.2L74 146.6l35.5 6.8-52.6-1.1z"/><path fill="#dda273" d="M80 35l-9 24-42-75z"/><path fill="#fce5cd" d="M245.9-16l4.3 46.2 17.5-25.9-30.9 26.1z"/><path fill="#fffff3" d="M262.4 163.3L218.2 185l16.1-20.3 22.8 20.3z"/><path fill="#e7c4a9" d="M124 130h38v12h-38z"/><path fill="#33637b" d="M219.4 45.7l-22.8 22.7-23 3.7 31-26.9z"/><path fill="#a6b6c3" d="M191 23.3l-14.5 6.2L198.7 59l9-51.3z"/><ellipse cx="89" cy="157" fill="#4c0a16" rx="20" ry="4"/><path fill="#100809" d="M78.9-7.7l22.8 26.6L62.2-3.3l-5.3 23.8z"/><path fill="#e9d5a5" d="M-16 15.2L87.5-16l4 36.4 10.8-28.2z"/><path fill="#000800" d="M34.4 84.1l39.5-12-16.1-3.9-17.9 11.1z"/><path d="M79 16.9l15.4 53.7-13.3-14.5-4.7-40z"/><path fill="#580000" d="M31 30l4-11-22 13z"/><path fill="#592e2d" d="M93.5 185l33.5-10.9-25.7-39.5 27.3 9.7z"/><path d="M240 57l-8-30 25 36z"/><path fill="#954601" d="M6 19L21 3l27 3z"/><path fill="#ebc6c4" d="M240.3 108.5l2.7 47.3-9-15.2 32.4-8z"/><path fill="#d9b59f" d="M129.2 101.9l14.1-24.5-28.3-5.2 3.3-31z"/><path fill="#fff0de" d="M83 19l7-8-6 23z"/><path d="M103 38L86 21l21-11z"/><path fill="#f4e4b3" d="M29-7L3-13l1 35z"/><path fill="#facec7" d="M231.1 99.5l3.8 4.1-12-3 21.5-26.8z"/><path fill="#112015" d="M40.6 120.6l4.4-2.4 18.4 33.2-4.4 2.4z"/><path fill="#5d7190" d="M194.1-1.5l-30.5 42-9.7-7 30.5-42z"/><path fill="#281700" d="M149.2 78.6l-8.5-8.4 21.7 2.5-12.7 5.6z"/><circle r="1" fill="#000306" transform="rotate(-54.7 166.4 -74.7) scale(2.04811 9.49638)"/><circle r="1" fill="#ffe2db" transform="matrix(6.41879 -5.14242 1.45827 1.82022 159.6 43.4)"/><path fill="#774a07" d="M247.2 26.6L271-11.2l-24 27.7-7.8 15.4z"/><path fill="#ffd1a2" d="M55 21l20-11-3-7z"/><path fill="#0f1d19" d="M32 89.4l24.6 4.3-.6 3-24.6-4.4z"/></g></g></svg>