<svg xmlns="http://www.w3.org/2000/svg" viewBox="0 0 1400 2100"><defs/><filter id="a"><feGaussianBlur stdDeviation="12"/></filter><rect width="100%" height="100%" fill="#414141"/><g filter="url(#a)"><g fill-opacity=".5" transform="translate(4.1 4.1) scale(8.20313)"><circle r="1" fill="#fff" transform="matrix(115.90883 -18.01306 24.19212 155.66936 82.2 75.7)"/><circle r="1" fill="#f3f3f3" transform="matrix(-162.53428 46.2991 -23.46982 -82.39145 65.5 65.4)"/><ellipse cx="46" cy="225" fill="#232323" rx="20" ry="73"/><ellipse cx="131" cy="190" fill="#2b2b2b" rx="13" ry="137"/><path fill="#f9f9f9" d="M56 141l67 71-33 50z"/><path fill="#141414" d="M89.2 30.1l17.9-9.8-47.4 25.9 88.6 24.9z"/><circle r="1" fill="#f9f9f9" transform="rotate(-99.1 139 1.7) scale(61.66343 20.93256)"/><circle r="1" fill="#fafafa" transform="matrix(17.2446 28.2512 -29.97458 18.29656 7.8 157.3)"/><path fill="#b6b6b6" d="M136 109L93 259 23 44z"/><circle r="1" fill="#fff" transform="matrix(-33.36528 -18.43153 67.68428 -122.524 22 31.7)"/><path fill="#383838" d="M47 54.6l47.5-25.8-39.3 39.9-14 38.8z"/><circle r="1" fill="#414141" transform="matrix(19.59445 59.06061 -18.46618 6.1265 143.3 216.6)"/><circle r="1" fill="#fff" transform="matrix(83.64654 25.65489 -8.60805 28.06613 145.2 23.3)"/><path fill="#262626" d="M90 252l-79-60 39-10z"/><path fill="#313131" d="M106 48l11.5-6L142 88l-11.4 6z"/><ellipse cx="87" cy="102" fill="#818181" rx="48" ry="10"/><circle r="1" fill="#5e5e5e" transform="rotate(101.2 -84.3 140.8) scale(32.38007 54.50053)"/><ellipse cx="120" cy="113" fill="#cecece" rx="8" ry="42"/><path fill="#e3e3e3" d="M89.5 204.3l28 25.2-25.4 26.1-21.4-37.3z"/><circle cx="152" cy="230" r="35" fill="#4e4e4e"/><ellipse cx="84" cy="177" fill="#cecece" rx="28" ry="23"/><ellipse cx="72" cy="151" fill="#6e6e6e" rx="35" ry="5"/><circle r="1" fill="#f0f0f0" transform="matrix(26.55197 23.40871 -13.71194 15.55314 160.6 63.7)"/><path fill="#e6e6e6" d="M57 68l52 12-23 30z"/><path fill="#3c3c3c" d="M141.2 134.4l6.7 19.3-20.6 77.7-8.5-73.5z"/><path fill="#464646" d="M118 43l16 86 6-61z"/><ellipse cx="5" cy="105" fill="#e7e7e7" rx="35" ry="85"/><path fill="#ddd" d="M186.6 202.5l-42-9.7 6.8-29.3 42 9.7z"/><path fill="#2d2d2d" d="M162.9 199.8l-16.6-9-22.3 32.8 9.4 10.1z"/><path fill="#3c3c3c" d="M115.9 42l-8.1 10.6-36.7-12.4 30.4-4z"/><circle r="1" fill="#414141" transform="matrix(12.92887 -38.91164 16.67247 5.53963 38 205)"/><circle r="1" fill="#939393" transform="matrix(3.27663 2.65336 -21.66489 26.75391 160.7 243.8)"/><path fill="#787878" d="M120.3 267.6l9.1-9 24-38.6-36.5 28.5z"/><ellipse cx="67" cy="103" fill="#484848" rx="5" ry="10"/><ellipse cx="160" cy="80" fill="#e2e2e2" rx="22" ry="87"/><path fill="#7d7d7d" d="M9 225.6l24.4 46L13 282.4l-24.5-46z"/><ellipse cx="106" cy="106" fill="#414141" rx="11" ry="4"/><path fill="#9d9d9d" d="M124.6 194.7l-5.4 40.9-7.5-28.3.3-33.7z"/><path fill="#464646" d="M43 67h2v67h-2z"/><path fill="#ebebeb" d="M83 23L34 70-8-16z"/><path fill="#c9c9c9" d="M59 199l70-83-17 80z"/><ellipse cx="86" cy="149" fill="#2c2c2c" rx="19" ry="2"/><path fill="#bbb" d="M36.8 134l11.4-9.6 45 53.6-11.4 9.6z"/><path fill="#e5e5e5" d="M12.4 3.4L111.1 42l32.2 21L185-11.2z"/><path fill="#c5c5c5" d="M107 54l-50 7 70 11z"/><circle r="1" fill="#262626" transform="matrix(4.04887 13.08375 -3.52605 1.09116 51.3 163.7)"/><path fill="#444" d="M9 190h53v44H9z"/><path fill="#1c1c1c" d="M99.5 97.6l12.6-3.1.4 1.9-12.6 3.1z"/><path fill="#d5d5d5" d="M49 98h43v4H49z"/><path fill="#444" d="M139.9 78.2l-1.7 25.6-9.2 28.3.5-53.5z"/><path fill="#424242" d="M42.6 85l14-33.2 2.8 1.2-14 33.2z"/><path fill="#c3c3c3" d="M40.5 175.9l-19.8-3.2 4.8-30.6 19.8 3.2z"/><path fill="#515151" d="M66 54.8l-14.9 4.1L84 30.6 97.4 44z"/><circle cx="65" cy="253" r="24" fill="#4b4b4b"/><path fill="#d8d8d8" d="M93.7 250.5l-13 20.5 43.5-56.3-55.1 4.2z"/><circle r="1" fill="#cfcfcf" transform="matrix(9.68398 -.4134 1.22348 28.66003 86.9 74.1)"/><path fill="#393939" d="M55 103h18v4H55z"/><path fill="#afafaf" d="M132.6 112.2l15.7 4.4-6.7-20.9L154 201z"/><path fill="#e2e2e2" d="M0 192l-3-84 63-83z"/><path fill="#b8b8b8" d="M51 65.3l-11.4 100L68.7 52.1 50.2 66.3z"/><path fill="#3f3f3f" d="M126.5 128.6l9.9 17.7 14.9 65.5-25.2-45.4z"/><path fill="#d5d5d5" d="M121 92h8v26h-8z"/><path fill="#2c2c2c" d="M18.8 237.9L36.1 271l8.2-6.5L2.1 193z"/><ellipse cx="62" cy="159" fill="#bbb" rx="5" ry="37"/><ellipse cx="61" cy="93" fill="#575757" rx="5" ry="3"/><path fill="#484848" d="M132 53L85 35l5 17z"/><path fill="#7d7d7d" d="M149.2 167.6l-14.7-47 7 55.6 3.8 14.6z"/><circle r="1" fill="#3e3e3e" transform="matrix(-3.5455 -20.96227 1.7626 -.29812 50.6 163.3)"/><path fill="#585858" d="M125 232l-35 28 14-20z"/><path fill="#4b4b4b" d="M29 179l39 18-51 30z"/><circle r="1" fill="#dadada" transform="matrix(-16.26676 -13.30538 27.89645 -34.10537 9.3 157.9)"/><path fill="#4a4a4a" d="M54.1 69.2l-11.6 9.4 2-8.3L51 58.6z"/><path fill="#3e3e3e" d="M85 242l-29-40 11 61z"/><path fill="#c2c2c2" d="M110 104l15 13-23 38z"/><path fill="#8b8b8b" d="M109 54l15 36 2-20z"/><circle r="1" fill="#cbcbcb" transform="matrix(-4.97612 -31.76725 5.42875 -.85038 53 128.4)"/><path fill="#5a5a5a" d="M33.6 246l-24-54.1 3.4-2 20.6 30.3z"/><path fill="#acacac" d="M67.4 148.9l53.7-12.4-67.6-1.1-10 7.6z"/><path fill="#cecece" d="M67 215l22 27 20-61z"/><path fill="#777" d="M126.6 50.7l13.2 19.6-1 1.2-39.9-36z"/><path fill="#d2d2d2" d="M91.1 66.6L61.7 54.7l29.5 83.5-.9-9.3z"/><circle r="1" fill="#323232" transform="rotate(122.2 24 153.5) scale(57.08894 5.17223)"/><path fill="#cecece" d="M154.5 199.9L138.6 96.7l-.4-36.9 12.5 25.6z"/><path fill="#333" d="M123.8 228.5l6.1-21.2-4.6-39.2-3 9.1z"/><path fill="#929292" d="M123 213l-6-22-14 11z"/><path fill="#313131" d="M49 162h8v33h-8z"/><path fill="#ebebeb" d="M93 26l-1 8 4 4z"/><path fill="#414141" d="M128.3 95.8l-3.1-3.5 9.9-3-2.3 43.1z"/><path fill="#323232" d="M40 214h28v16H40z"/><path fill="silver" d="M124.5 213.5l-8.7 18-6.3-3 8.7-18z"/><path fill="#5b5b5b" d="M124.3 172.7l9.6 37.1 11.3-76.6-10 45.7z"/><circle cx="105" cy="106" r="4" fill="#2b2b2b"/><path fill="gray" d="M69.3 114.9l.4-12 7 .2-.4 12z"/><path fill="#e0e0e0" d="M92 253l-9-18 31-6z"/><path fill="#848484" d="M63 192.4l13.2 18.9-3.2 2.3-13.2-18.9z"/><path fill="#606060" d="M41 232l48 38-41-5z"/><circle r="1" fill="#e4e4e4" transform="matrix(25.1068 9.07505 -13.50042 37.34991 15 93)"/><circle r="1" fill="#e6e6e6" transform="matrix(-13.48562 5.74394 -14.55965 -34.18314 58.6 6.4)"/><path fill="#4e4e4e" d="M98 95h18v3H98z"/><circle r="1" fill="#7e7e7e" transform="matrix(3.47066 2.21105 -8.43815 13.24523 124.6 253.6)"/></g></g></svg>