<svg xmlns="http://www.w3.org/2000/svg" viewBox="0 0 1400 1050"><defs/><filter id="a"><feGaussianBlur stdDeviation="12"/></filter><rect width="100%" height="100%" fill="#6c4c41"/><g filter="url(#a)"><g fill-opacity=".5" transform="translate(2.7 2.7) scale(5.46875)"><circle r="1" fill="#edfffd" transform="matrix(75.32133 -100.99521 191.02145 142.4621 126.4 49.6)"/><circle r="1" transform="matrix(2.47172 -14.7583 59.42163 9.95195 104.2 125.9)"/><ellipse cx="155" cy="27" fill="#fbf3cd" rx="79" ry="28"/><circle r="1" fill="#071d2b" transform="rotate(84.2 34.3 181.3) scale(18.38938 21.49021)"/><circle r="1" fill="#d2eaf5" transform="matrix(127.6303 -30.32825 4.98181 20.96495 246 160)"/><ellipse cx="100" cy="77" fill="#ecf9f6" rx="24" ry="36"/><circle r="1" fill="#978152" transform="matrix(69.6268 11.1046 -1.91011 11.97658 53 132.3)"/><circle r="1" fill="#030902" transform="matrix(-39.22735 -12.59452 3.03455 -9.4515 94.5 120.8)"/><ellipse cx="245" cy="86" fill="#220e0a" rx="4" ry="44"/><ellipse cx="224" cy="82" fill="#404532" rx="7" ry="43"/><ellipse cx="39" cy="44" fill="#ffc" rx="17" ry="13"/><ellipse cx="156" cy="58" fill="#918b70" rx="33" ry="23"/><path fill="#2d3124" d="M179 100l-43-7-11 15z"/><path fill="#7d4302" d="M-16 198l28-70 122 74z"/><circle r="1" transform="rotate(41.8 -100 249.2) scale(18.25632 7.71602)"/><path fill="#f3ffff" d="M226 131h30v29h-30z"/><path fill="#e0e1d3" d="M144.8 107.6l-59.1 4.1 98.8 12.5-37.8-30z"/><path d="M185 119h24v11h-24z"/><circle r="1" fill="#3f1304" transform="rotate(168.8 10.5 63) scale(32.02327 4.07393)"/><path fill="#c5e3e9" d="M166 163l38-10-40-49z"/><circle r="1" fill="#dfe2d8" transform="matrix(-42.2162 6.15868 -2.68795 -18.42524 229.2 30.6)"/><ellipse cx="67" cy="80" fill="#4b4300" rx="22" ry="3"/><circle r="1" fill="#fff6d2" transform="rotate(81.2 70.3 97.2) scale(22.14559 26.97802)"/><path fill="#edf1eb" d="M235 138l-24-7-2-10z"/><path fill="#c9b283" d="M69.5 118.8l2.4 4.5-6.8 37.6-49.5-29z"/><path fill="#c6cfca" d="M168 74h69v13h-69z"/><path fill="#ffffdb" d="M120 26l10 19.6L98 62 88 42.4z"/><path fill="#d9ffff" d="M250 54h6v69h-6z"/><path fill="#cacbcc" d="M15 89h44v26H15z"/><path fill="#021729" d="M223 147l5-14-35 7z"/><path fill="#a19c93" d="M0 0h128v28H0z"/><path fill="#130000" d="M217 53h17v9h-17z"/><path fill="#0a0000" d="M248.3 56.9l-3.2-7.7 21.5-7.8 4.4-.3z"/><path fill="#926644" d="M0 94h14v81H0z"/><path fill="#819791" d="M118.3 159.3l-27.7-29.8 45 8.5 32 17.5z"/><ellipse cx="246" cy="127" fill="#2e1918" rx="12" ry="3"/><path fill="#9e9f9f" d="M88 95h9v22h-9z"/><path d="M177 58h11v7h-11z"/><path fill="#eaece2" d="M135 110l-27-19 8 30z"/><circle r="1" fill="#c4d4e0" transform="rotate(5.2 -973.8 2657.6) scale(4.00897 75.6938)"/><path fill="#ccdbde" d="M189 105.5l25.5 6.9-10.6 2.8-57.3 10.1z"/><path fill="#0b0f0c" d="M141.4 118.1l5.6 2.8 10.2 25.9-87.2-28z"/><path fill="#bdb9a5" d="M97 13.8l-7.1 67.6L59 78.2l7.1-67.6z"/><path fill="#a9b3bb" d="M183 0h73v23h-73z"/><circle r="1" fill="#101210" transform="rotate(-121.9 139.2 -16.5) scale(7.37264 5.57936)"/><path d="M68 100l10 1 4-4z"/><path fill="#c2d6d9" d="M245.1 126.2l6.5-66.9 1.2-8.7 18.2 53.3z"/><ellipse cx="204" cy="35" fill="#ffffd9" rx="17" ry="14"/><path fill="#dbecfd" d="M113 63l-65 40 71-20z"/><path fill="#474e63" d="M103 59h3v32h-3z"/><path fill="#868694" d="M235.4 185l-24.8 20.1 4.9-23 12.3-15.5z"/><ellipse cx="41" cy="45" fill="#ffffd2" rx="14" ry="10"/><path fill="#626354" d="M167 83l-4 18-47-3z"/><circle r="1" fill="#baa47e" transform="matrix(17.27365 5.38014 -19.21746 61.70017 0 78)"/><circle r="1" fill="#c3c3b3" transform="matrix(4.39978 -13.61244 45.93366 14.84656 130.4 179.4)"/><ellipse cx="241" cy="111" fill="#472623" rx="2" ry="19"/><path fill="#122943" d="M98.9 99l-12.7 2.8-1-4.9 12.6-2.7z"/><path fill="#2f3333" d="M189.5 119.4l22.3-2.1-10.9 25.4 23.1 10z"/><path fill="#202827" d="M155 97.5l28.7 4-.7 5-28.7-4z"/><ellipse cx="174" cy="89" fill="#cededf" rx="6" ry="15"/><path fill="#3e2b24" d="M105 59h13v3h-13z"/><path fill="#302e00" d="M45 81h33v3H45z"/><path fill="#8b9277" d="M192.7 65l40-2 .6 12-40 2z"/><path fill="#a3a29b" d="M271 38l-65 19 25-26z"/><path d="M143 99.7l-2.3 8.7-7.7-2 2.3-8.8z"/><path fill="#fcffff" d="M107 63h10v47h-10z"/><path fill="#122032" d="M226.1 138.4l.5-35.4 3.5.5.8 22.6z"/><circle cx="136" cy="71" r="3"/><path fill="#bdbcb4" d="M118 53h13v43h-13z"/><path fill="#c9bda0" d="M-16 97l87-24 65-73z"/><path fill="#000001" d="M140 125l21 8-6 7z"/><path fill="#b3ae9f" d="M171 73l-40-26 65-30z"/><path fill="#686b53" d="M55.8 131.5l43.8-6.1 2.9 16.3-8 2.5z"/><path fill="#a4b6b1" d="M149 121h16v9h-16z"/><ellipse cx="247" cy="64" fill="#44322a" rx="4" ry="18"/><path fill="#bfbfa9" d="M151.3 95l-22.9 2-1.7-20 22.9-2z"/><circle r="1" fill="#99a090" transform="rotate(129 22.4 101.9) scale(19.74296 6.67046)"/><ellipse cx="65" cy="125" fill="#beb59b" rx="16" ry="4"/><path fill="#f5faf1" d="M221 135l-15-5 18-2z"/><ellipse cx="10" cy="117" fill="#20160d" rx="4" ry="5"/><path fill="#acc2c5" d="M181.7 146.9l-36 2.3 32.9-22.3 21.5 5.4z"/><path fill="#4d4f4b" d="M194.3 115.6l-15.6 9.6 55.6 5.9-27.8-8.7z"/><path fill="#0f1210" d="M214 113l-15 17-17-3z"/><path fill="#cecfce" d="M86 119l24-16-7-20z"/><circle r="1" fill="#0c0b06" transform="matrix(1.25725 -2.55506 30.27698 14.89812 85.6 119)"/><circle cx="101" cy="116" r="5"/><path fill="#cbd3ce" d="M61 83h23v15H61z"/><path fill="#292c2c" d="M190.2 142.9l14.9-.6.1-5.6 7.3-22.6z"/><path fill="#ffffd9" d="M104 30h27v18h-27z"/><path fill="#cacbc1" d="M179.3 105.8l8.2 33.7-50.3-38.7 21.1 3z"/><path fill="#3f2716" d="M49 185.2L76.9 168l6.9 8.2-51.7 26.3z"/><path fill="#c4b761" d="M42 71h39v8H42z"/><path fill="#b7c9e2" d="M261 162l-15 33-46-51z"/><path fill="#80aca6" d="M248 98h8v18h-8z"/><circle r="1" fill="#938b82" transform="rotate(96.1 -3.8 4.3) scale(44.63652 19.36542)"/><circle cx="193" cy="104" r="3" fill="#0d1f2d"/><path fill="#c2d6dc" d="M198.4 112.9l5 14.7-17-30.3-15 29.8z"/><path fill="#baa97f" d="M102.6 165.8l-45.5-11.2L21 133l79.2 14.1z"/><path fill="#aabbc8" d="M207 131l11-14-6-1z"/><path fill="#090900" d="M145 63l1 3 3-4z"/></g></g></svg>