<svg xmlns="http://www.w3.org/2000/svg" viewBox="0 0 1400 2100"><defs/><filter id="a"><feGaussianBlur stdDeviation="12"/></filter><rect width="100%" height="100%" fill="#3a3a3a"/><g filter="url(#a)"><g fill-opacity=".5" transform="translate(4.1 4.1) scale(8.20313)"><circle r="1" fill="#fff" transform="rotate(3.7 -1457.7 1544.4) scale(150.05221 121.83251)"/><circle cx="106" r="193" fill="#e1e1e1"/><path d="M162 77L58 47l52-24zM98 219l5-44 56 34z"/><ellipse cx="137" cy="83" fill="#040404" rx="8" ry="26"/><ellipse cx="73" cy="148" fill="#a3a3a3" rx="39" ry="79"/><circle r="1" fill="#fff" transform="matrix(32.11015 5.3158 -20.32553 122.77657 17 70.9)"/><path fill="#010101" d="M43 209l2-46-39 31z"/><circle r="1" fill="#090909" transform="matrix(-7.01555 28.11694 -5.34678 -1.3341 54.7 72)"/><circle r="1" fill="#fff" transform="matrix(116.50738 47.98953 -8.57606 20.82067 134.2 17)"/><circle r="1" fill="#f9f9f9" transform="matrix(-24.69945 24.7583 -36.11194 -36.02611 166.5 171)"/><ellipse cx="68" cy="202" fill="#e9e9e9" rx="21" ry="22"/><path fill="#ececec" d="M185-16l-73 191 73-61z"/><circle r="1" fill="#868686" transform="matrix(18.75306 10.82708 -28.01146 48.51727 105 137)"/><circle cx="10" cy="154" r="31" fill="#e5e5e5"/><circle cx="73" cy="94" r="12" fill="#4d4d4d"/><path fill="#eee" d="M91.3 20.2L43 62.2 14.7 29.8l48.3-42z"/><path fill="#3b3b3b" d="M130.9 92.6l8.3-44.8L149.6 83l-22 51.6z"/><path fill="#373737" d="M165 211L64 243l47-60z"/><path fill="#e2e2e2" d="M37.5 167.2L18.1 153l42.4-58.3L79.9 109z"/><path fill="#323232" d="M63.5 46.6L45.9 70.1 112.5 33l22 30.3z"/><path fill="#d8d8d8" d="M125 114l3 64-43-70z"/><circle r="1" fill="#dfdfdf" transform="rotate(-141.5 59.7 20.7) scale(25.59431 17.52502)"/><path fill="#454545" d="M119.2 113.5l-18.5-4.6 4.1-16.4 18.5 4.6z"/><path fill="#868686" d="M56 140h54v37H56z"/><ellipse cx="137" cy="168" fill="#d9d9d9" rx="25" ry="27"/><path fill="#464646" d="M83.5 21.9l53.8 26.2L151 67.7l-3.7 24z"/><path fill="#d0d0d0" d="M64 145l33 21-26 2z"/><circle r="1" fill="#e7e7e7" transform="matrix(-24.554 10.32155 -39.18109 -93.20813 156.5 20.4)"/><path fill="#3e3e3e" d="M35.4 181.8L42 210l-61.4 14.2L-26 196z"/><path fill="#c2c2c2" d="M110.2 180.7L44 172.6l4.9 36.9 19.7 21z"/><path fill="#cfcfcf" d="M77.6 48.4l58.3 35-8 15.3-64.1-25z"/><path fill="#d9d9d9" d="M135.7 113.6l6.8-23.3 42.5 19.2-61.7 85.1z"/><path fill="#6a6a6a" d="M104.9 160.2L85 196.4l6.3-33.6 26.1 23.7z"/><path fill="#696969" d="M51 99l-12-1 5 19z"/><path fill="#3e3e3e" d="M71 41L50 58l-4 47z"/><ellipse cx="74" cy="86" fill="#1c1c1c" rx="10" ry="3"/><path fill="#d3d3d3" d="M53 87l31 3-35 6z"/><circle r="1" fill="#e2e2e2" transform="rotate(-121.7 34.4 32.7) scale(26.85765 23.28545)"/><path fill="#dcdcdc" d="M75 120l17 7 10-44z"/><path fill="#282828" d="M131 98h4v30h-4z"/><path fill="#3e3e3e" d="M185 262l-54-71-69 41z"/><path fill="#ddd" d="M119.9 185.9l43.1 23.4 22 14.5-14.6-41.7z"/><path fill="#e2e2e2" d="M172.8 16.8L-5.9-16 2.2 94.3l79.6-64.9z"/><path fill="#515151" d="M54 55.7l55.2-6-8.4-26.2-22.3 11.3z"/><path fill="#bdbdbd" d="M97.4 209.4l-26.9 18.1-32.4-23.1 72.9-34z"/><path fill="#676767" d="M67.8 175.3l-19.2-22.5 22.2 15.3L108 178z"/><path fill="#727272" d="M103.8 132.3L76 135.5l1.8-2.7 1.9-9.2z"/><path fill="#d7d7d7" d="M-16 196.3l62.9-97L32.2 179l-12.9 4.9z"/><path fill="#cdcdcd" d="M87.2 36.6L86 40.4l-15.2-5 1.2-3.8z"/><path fill="#464646" d="M96.1 147.6l-3.3-3.5-32.7-5 23.9 8.6z"/><path fill="#e0e0e0" d="M129.9 113.6l-26.3-16.4.5-.8 26.3 16.4z"/><circle r="1" fill="#4b4b4b" transform="matrix(.53749 16.76604 -9.2334 .296 128.8 57.8)"/><path fill="#4b4b4b" d="M81.3 96.3l-8.8-2-13.4 4.9 31.9 3.6z"/><circle cx="39" cy="176" r="6" fill="#262626"/><circle r="1" fill="#767676" transform="rotate(28.4 -290.6 277.5) scale(5.41653 23.66981)"/><path fill="#636363" d="M98 101l5 13 6-19z"/><circle cx="127" cy="133" r="4" fill="#555"/><path fill="#d2d2d2" d="M70.4 82.2l59.2 15.1L67.2 62 51.1 95.7z"/><path fill="#d5d5d5" d="M114.1 183.2l-3.2-27.6 74.1 36.8-56.5.3z"/><path fill="#404040" d="M175.3 215.1l-45-19-44.4 19.7-54.3 47.9z"/><path fill="#202020" d="M110 96.2l1-1.7 13 7.3-1 1.7z"/><path fill="#c7c7c7" d="M124 77h6v44h-6z"/><path fill="#e0e0e0" d="M185-13.9L95.9 27.9l-.6-12.1L168 70.3z"/><path fill="#cdcdcd" d="M72.4 51.5l18.6 60L115.7 64 93 56.8z"/><path fill="#696969" d="M44 173l5 27-14 1z"/><ellipse cx="15" cy="205" fill="#424242" rx="25" ry="18"/><circle r="1" fill="#3a3a3a" transform="matrix(3.9279 .73704 -5.57995 29.73738 137.3 91)"/><path fill="#454545" d="M115.4 42.1l-18.3-4.5-31.3 4.2-12.4 16.8z"/><circle cx="68" cy="236" r="3" fill="#aaa"/><circle r="1" fill="#2b2b2b" transform="matrix(-3.8197 4.00264 -1.85985 -1.77484 40.9 167.8)"/><path fill="#bbb" d="M79.4 96.9L56.2 119l63.8 34.3-44.9-15.1z"/><circle r="1" fill="#c2c2c2" transform="matrix(-37.2878 -8.89237 .52265 -2.1916 65.6 145.6)"/><path fill="#e1e1e1" d="M33.5 168.1l14.2-10.2-2.8-30.9-17.4-1.2z"/><path fill="#252525" d="M46 101h2v14h-2z"/><path fill="#e1e1e1" d="M152 22h18v123h-18z"/><path fill="#dfdfdf" d="M14 11l39 18-7 68z"/><path fill="#c8c8c8" d="M91 179l-20 41-27-42z"/><circle r="1" fill="#373737" transform="matrix(4.82854 -33.08775 4.8117 .70218 106.7 209.5)"/><path fill="#757575" d="M86 94v11l-10 5z"/><path fill="#d7d7d7" d="M60.6 92.1l-6.5 20-6.7-2.2 6.5-20z"/><path fill="#4d4d4d" d="M81 42l48-2-21-12z"/><path fill="#9f9f9f" d="M87 36l5-12-24 17zm30 26l17 28-4-18z"/><path fill="#c4c4c4" d="M53.1 126.4L127.5 79l-29.6 24-49.6 51z"/><path fill="#464646" d="M152.4 204.2l46.3 27.8-19 31.8-46.4-27.8z"/><path fill="#c4c4c4" d="M110.8 110.6l18.9 6.5-10.5 30.3-18.9-6.5z"/><path fill="#c1c1c1" d="M75 165l11 5 16-20z"/><path fill="#434343" d="M132.6 103.7l1.7-35 15.1 6.7-.3 11.6z"/><path fill="#787878" d="M92 137l-17-12 24 3z"/><path fill="#494949" d="M87 177l-12-5 25-1z"/><path fill="#535353" d="M61.8 139.7l27 7.7 5.2 2.4 9.3-2.8z"/><path fill="#a9a9a9" d="M93.9 177.7l-19 35.8 36.9-52.3-4.1 28.4z"/><path fill="#dbdbdb" d="M159 163l-23-48 9-28z"/><path fill="#d5d5d5" d="M86 125l6 4 5-16z"/><path fill="#dcdcdc" d="M161.6 209l-34.8-70.4 42.4-63.2 11.1 139.5z"/><path fill="#c4c4c4" d="M98.6 71.2l33.1 38.9-15.8 30.8 17.3-52.4z"/><path fill="#ababab" d="M41 199h19v8H41z"/><circle r="1" fill="#434343" transform="matrix(-2.56558 14.99863 -2.93068 -.5013 51.3 83.8)"/><path fill="#dfdfdf" d="M171.4 67.6l-.3-83.6L32.7 36.1l73.7-10.4z"/></g></g></svg>