<svg xmlns="http://www.w3.org/2000/svg" viewBox="0 0 1400 1050"><defs/><filter id="a"><feGaussianBlur stdDeviation="12"/></filter><rect width="100%" height="100%" fill="#452c27"/><g filter="url(#a)"><g fill-opacity=".5" transform="translate(2.7 2.7) scale(5.46875)"><circle r="1" fill="#ee895b" transform="matrix(-30.78492 146.0849 -164.56256 -34.67877 124.2 89)"/><circle r="1" fill="#8f3614" transform="matrix(31.78627 -3.20086 17.72578 176.0263 52.4 171.4)"/><ellipse cx="2" cy="29" fill="#ada092" rx="7" ry="149"/><circle r="1" fill="#a36c5b" transform="matrix(45.852 -65.9724 72.66106 50.50075 229.2 77.5)"/><path fill="#833a1d" d="M-16 205l78 2-17-93z"/><ellipse cx="63" cy="76" fill="#b2643f" rx="7" ry="101"/><ellipse cx="90" cy="23" fill="#7b4c39" rx="25" ry="32"/><path fill="#b49690" d="M17 26.3l-19-.6 1-30 19 .6z"/><circle cx="155" cy="110" r="71" fill="#a36444"/><path fill="#bd7f68" d="M198 63l73 48-28 4z"/><circle r="1" fill="#704229" transform="matrix(6.97662 -6.87432 17.53653 17.7975 84.3 177)"/><path fill="#64453d" d="M241 52h15v16h-15z"/><ellipse cx="122" cy="36" fill="#b67f66" rx="3" ry="57"/><circle r="1" fill="#77513e" transform="matrix(35.62497 45.56986 -2.48719 1.9444 141.7 45)"/><path fill="#6a3922" d="M86.9 90.7l-19.2 5.4-2.1 4.4 15.9 9.7z"/><path fill="#936f57" d="M8.7 165.6L7.1 101-16 89.9 5 199.2z"/><path fill="#ab6252" d="M11 11l20 8L5 72z"/><path fill="#72594f" d="M144.9 88.4l93.8 96.8-19.8-27.3-88.1-95.8z"/><path fill="#c77b56" d="M151.5 93.8l48.4 12.4-22.6 8.1-6.2-36.9z"/><path fill="#694841" d="M222.4 51.3L259.2 23l-17-2.1-2.4 13.3z"/><path fill="#6f4940" d="M239.5 9l-30 16.8 33.8-5.6-41.5-28.5z"/><path fill="#754125" d="M102.3 84.8l-9.1-20.9-7.8-10.4 15.7-20.2z"/><circle r="1" fill="#bc7257" transform="rotate(45.7 -20 308.2) scale(80.52074 2.17367)"/><path fill="#b67a61" d="M191 117h7v59h-7z"/><path fill="#b97c65" d="M234 47l-2 30-41 13z"/><path fill="#c78956" d="M83.5 137.5l8.4-13.4 8.2 12.1 1.5 9z"/><path fill="#7b4f39" d="M94.6 89.7l50.5 52.3L86 93.9l19.2-34.3z"/><circle r="1" fill="#943c20" transform="rotate(-168.8 25.7 2.1) scale(8.68094 91.08285)"/><circle r="1" fill="#b26942" transform="matrix(4.51329 3.91063 -44.84837 51.75992 122.2 138.3)"/><path fill="#7c4630" d="M143.1 168.7l12.5-4.6 46.6 42.9-53.1-60.6z"/><circle r="1" fill="#5a432a" transform="matrix(2.86746 2.20824 -8.3284 10.81465 79.3 132.5)"/><path fill="#704336" d="M210 69l-10-26 21 22z"/><circle r="1" fill="#654d46" transform="rotate(49.3 36.9 144.8) scale(2.42392 40.82089)"/><circle r="1" fill="#923d1a" transform="matrix(-5.56215 -36.32868 18.70066 -2.8632 43.5 135.6)"/><path fill="#ad5c30" d="M48.5 132.2l-3.7 6.9 1.8-55.7 44.8 40z"/><path fill="#6a331f" d="M8 132h4v60H8z"/><path fill="#af5e41" d="M48 17l46 28-13-30z"/><path fill="#755243" d="M157.9 16.9l-2-19.4 13.2 13-92.5 94.6z"/><path fill="#c87456" d="M104 17h11v11h-11z"/><path fill="#b17364" d="M188.9 49.3l-9.2-9.2L217 2.7l9.2 9.2z"/><path fill="#7e554a" d="M224.6-16L205 6.3l46.9 58.8-83.2-75.9z"/><circle r="1" fill="#ca7a58" transform="matrix(5.83866 -2.86315 4.11589 8.3933 168.5 154.3)"/><ellipse cx="165" cy="25" fill="#c37f6a" rx="10" ry="8"/><path fill="#b66d49" d="M59.6 48.9L44.3 61.3l45.3-3.2-27.4-14.5z"/><path fill="#78463c" d="M238.7 168.8l-20.9 28-22.7-21.5 60.5 13.4z"/><path fill="#d28872" d="M162.1 57.1l6-6.8 9.8 8.6-6 6.8z"/><path fill="#7a5644" d="M155.9 54.4L123.3 91l36.9-56.4 21.8-3z"/><path fill="#89432f" d="M8 59h28v51H8z"/><path fill="#5b3928" d="M115-6L92 18l19-5z"/><path fill="#c36d4d" d="M83 8l13 5 2-29z"/><path fill="#824e2f" d="M96.1 185.2l45.1-60 4.8-10.1 14.6 4z"/><circle r="1" fill="#794f43" transform="matrix(-1.66674 -1.58462 35.30252 -37.13188 215.7 158.6)"/><path fill="#684b2f" d="M67 64h12v16H67z"/><path fill="#b16f4d" d="M123.8 29.5l-20.9 10.8 2.7-2.8 40.7 34.4z"/><path fill="#a05e3b" d="M25.5 177.6l9.8-5.7-11-22-23.5.6z"/><path fill="#67534b" d="M71.3 5.2l52.5 58.6-10.6-20.5L59.5-16z"/><path fill="#c27958" d="M126 139l26 14-15 8z"/><path fill="#804d41" d="M236 45h4v74h-4z"/><path fill="#c87a53" d="M127.9 87.1l10.9 9 6.8-30.9 12.8 8.2z"/><path fill="#644730" d="M67 32h14v16H67z"/><path fill="#70423c" d="M243 151h13v15h-13z"/><path fill="#805744" d="M185 149.8l57.8-51.6-76 78.2 13-28.7z"/><path fill="#bf7b63" d="M143 35h14v13h-14z"/><path fill="#c38473" d="M184.6 41.5l-4.5-29.3L193-2.9l-9.9 27.8z"/><path fill="#cd845e" d="M209 100l-3 16 23-5z"/><path fill="#c17259" d="M240.3 147.4l3 15.7-17.6 3.5-3-15.7z"/><path fill="#925336" d="M179.8 82l-15.9 38.5-8.8 37.1 27-29.8z"/><path fill="#7f5842" d="M105.9 138.5l75.9-75v-9l-26.9 26z"/><path fill="#ba6b44" d="M114.1 80.8l24.6-3.1-49.2-21.8L111 44.6z"/><path fill="#7f5346" d="M191.8 10.7l-9.4 15.5L205 51.6l-6.9 6.5z"/><path fill="#b16e60" d="M236.6 37.2l11.2-40.7 19 24.9-58.7 4.9z"/><path fill="#8e5a46" d="M200.8 123l19.5-48.6 6.8 24.4-28 4z"/><path fill="#624336" d="M256 98l-22-18 13 5z"/><path fill="#7e4d31" d="M128 147l-25-14 35 39z"/><path fill="#bf7f69" d="M173.7 71.8l16.9-3.3-15.9 7.7-23.3-3.7z"/><path fill="#b97367" d="M249 57l-10-16 23-8z"/><circle r="1" fill="#b36f49" transform="matrix(4.38235 -4.77175 24.01084 22.05141 106.3 122.9)"/><ellipse cx="85" cy="88" fill="#b56a4a" rx="38" ry="3"/><path fill="#b87460" d="M203 46.3l7.6-13 14 3.2-1 16.1z"/><circle r="1" fill="#825134" transform="matrix(54.85344 61.93866 -1.23986 1.09803 92.1 152.2)"/><path fill="#c4643d" d="M185.2 127.8l8.4 17.1-10.8 5.3-8.4-17.1z"/><path fill="#7b4732" d="M212 125l28 10-12 5z"/><path fill="#6f4028" d="M103 200.7l-29.1-27.5-11.7 13.1 10.6-33z"/><path fill="#814f36" d="M94 128l5-29 19-11z"/><ellipse cx="5" cy="151" fill="#a99380" rx="2" ry="28"/><path fill="#9d5637" d="M1.7 111.1l14.9 45.7-21.1 7.9 29.7-34.1z"/><path fill="#af998e" d="M16.7 49.4L-.5 68.8l5.8-84.2L-16 61.3z"/><path fill="#b66745" d="M81 29h14v17H81z"/><path fill="#b96842" d="M132 93l33 38 13-10z"/><path fill="#754e30" d="M138.2 165l-13.7 21.7 14.4-6-13-23z"/><path fill="#804e2f" d="M74.7 163.4l25.6-2.8 2-26.4 11.8 1.2z"/><path fill="#7d4d3e" d="M158.6 11.4l19.9 2.2-7-29.6 11 44.2z"/><path fill="#7c5043" d="M255.6-16l-28.9 41.5-22.7 9.7 16-14.7z"/><path fill="#4589ae" d="M162 104l4 5v-4z"/><circle cx="183" cy="122" r="3" fill="#548ba9"/><path fill="#b46c46" d="M89.6 80.5L66 52.2l28.6 15.7 5.9 5.2z"/><path fill="#c87e68" d="M222.2 75.5l-6.2 5-8.2-10 6.2-5z"/><path fill="#c37860" d="M242 84l3-16 25 4z"/><circle r="1" fill="#78543b" transform="matrix(-25.39454 -23.30739 1.18794 -1.29432 117.2 85.3)"/><circle r="1" fill="#7a4e35" transform="matrix(3.42048 -.2152 .62227 9.89076 191.4 125)"/></g></g></svg>