<svg xmlns="http://www.w3.org/2000/svg" viewBox="0 0 1400 2100"><defs/><filter id="a"><feGaussianBlur stdDeviation="12"/></filter><rect width="100%" height="100%" fill="#414141"/><g filter="url(#a)"><g fill-opacity=".5" transform="translate(4.1 4.1) scale(8.20313)"><circle r="1" fill="#fff" transform="matrix(119.47061 -7.63406 10.76115 168.40863 85.9 65.2)"/><circle r="1" fill="#f3f3f3" transform="matrix(22.39259 81.34904 -162.93964 44.85167 66.3 65.7)"/><path fill="#4a4a4a" d="M137 57l6 181L79 28z"/><path fill="#070707" d="M54.2 175.1l17.3 50.1L31.8 239l-17.3-50.1z"/><ellipse cx="95" cy="202" fill="#f7f7f7" rx="20" ry="50"/><circle r="1" fill="#242424" transform="matrix(-6.78469 -50.48878 17.07505 -2.29455 136.4 200.6)"/><ellipse cx="167" cy="143" fill="#fff" rx="23" ry="56"/><path fill="#fff" d="M0 0h28v190H0z"/><ellipse cx="103" cy="118" fill="#cecece" rx="25" ry="63"/><path fill="#292929" d="M98 34L39 80l22-40z"/><circle r="1" fill="#fff" transform="matrix(-142.027 -36.99526 6.43408 -24.70082 123.9 18)"/><path fill="#494949" d="M-16 268l66-126 28 120z"/><path fill="#999" d="M40 92h68v66H40z"/><path fill="#292929" d="M77.4 24.6l44.8 47.1 13.5 44.3.7-55.1z"/><circle r="1" fill="#f3f3f3" transform="rotate(151 14.5 24) scale(63.7225 19.2997)"/><ellipse cx="153" cy="230" fill="#4d4d4d" rx="34" ry="35"/><path fill="#dbdbdb" d="M120.6 67.3l-33.6 49-29-54.8 19-12.8z"/><path fill="#f1f1f1" d="M86.1 241.9l5.2 19.3 30.1-47-40.3 21.3z"/><path fill="#f5f5f5" d="M184.3 81.8l-33.8 15-20.8-46.6 33.8-15z"/><path fill="#2a2a2a" d="M44 101l-1-30 13-18z"/><path fill="#cacaca" d="M52 139l63 39-37 47z"/><ellipse cx="90" cy="43" fill="#414141" rx="23" ry="8"/><path fill="#5c5c5c" d="M57.2 92.6l22.6 4-3 16.8-22.6-4z"/><ellipse cx="31" cy="88" fill="#ebebeb" rx="11" ry="90"/><path fill="#cfcfcf" d="M39.6 108.9l10.8 16.2 71.7 29L130 119z"/><path fill="#828282" d="M35.6 276L.8 293.7-29.6 234l34.8-17.7z"/><path fill="#252525" d="M67 148h37v4H67z"/><path fill="#dedede" d="M146 87h24v106h-24z"/><path fill="#3d3d3d" d="M48.1 147.8l-31 116.3 44-92.8-10-18z"/><path fill="#434343" d="M66.8 218.5L52.3 157l-63.4 72.8 94.3 6.1z"/><path fill="#3e3e3e" d="M166.3 196.3l-47.6 17.1 12.6-112.6 17.5 113.3z"/><circle r="1" fill="#909090" transform="rotate(-140.7 121.2 100.5) scale(4.37004 74.96636)"/><path fill="#5f5f5f" d="M97 95h19v16H97z"/><path fill="#4a4a4a" d="M80 271l66-3 2-79z"/><path fill="#2f2f2f" d="M124 81l10 31 6-35z"/><path fill="#e3e3e3" d="M-16-16L53.5 9.6 27.4 187.4l-43.4 7.2z"/><path fill="#979797" d="M100 209l18-29 7 37z"/><path fill="#757575" d="M120 247l38-37-35 61z"/><path fill="#585858" d="M29 243l-18-56 70 84z"/><circle r="1" fill="#c9c9c9" transform="matrix(22.86072 22.70168 -17.23916 17.35993 92.8 209.7)"/><circle r="1" fill="#dcdcdc" transform="rotate(-134.2 104 22.7) scale(21.41865 27.77572)"/><path fill="#bfbfbf" d="M58 160h57v30H58z"/><path fill="#3a3a3a" d="M123 196h39v38h-39z"/><path fill="#cdcdcd" d="M131.2 122.6l-6.7-34.7-42.1-41.5 45.4 77.5z"/><circle r="1" fill="#3f3f3f" transform="matrix(-12.2026 -.67837 1.1105 -19.97555 130 170.3)"/><path fill="#838383" d="M150 154l-4 28-8-51z"/><path fill="#575757" d="M141.7 71.8L73.9 39.1l10.5-9.9 41.9 21.5z"/><path fill="#545454" d="M41 94h5v18h-5z"/><path fill="#cbcbcb" d="M117 97l-28 9-30-9z"/><path fill="#cfcfcf" d="M44.4 150.1l45.3-33.3L-16 139l56 36.3z"/><circle r="1" fill="#4b4b4b" transform="matrix(-6.80868 4.59737 -13.68168 -20.2625 76.7 243)"/><path fill="#e2e2e2" d="M93.9 254.5l18.2-26-29.9-.1 12.6 38z"/><path fill="#b9b9b9" d="M93 46L54 63 44 98z"/><circle r="1" fill="#767676" transform="matrix(-5.1976 -7.42293 3.14733 -2.20378 68.7 204.6)"/><circle r="1" fill="#e6e6e6" transform="rotate(-152 29.2 -.2) scale(32.68877 30.99057)"/><path fill="silver" d="M130.8 126l-4.6-37.1-42.6 100.9 34.1-23.8z"/><path fill="#e6e6e6" d="M185-9L95 37 45-7z"/><path fill="#4d4d4d" d="M46 60l53-20-34 2z"/><path fill="#d1d1d1" d="M172 201l13 50.4-46.4-181.7L150.1 193z"/><path fill="#3f3f3f" d="M74.8 32.9l44.3 20.7-25.7.8.9-3.8z"/><path fill="#d2d2d2" d="M64 58h51v35H64z"/><circle cx="65" cy="105" r="4" fill="#292929"/><path fill="#606060" d="M137 179.6l-.4 50-6.4-40.4-5.1-19.2z"/><path fill="#444" d="M98 95h17v4H98z"/><path fill="#e5e5e5" d="M169.2 202.7L156 79.2l-44.1-42L180.2-16z"/><path fill="#949494" d="M128.8 91.4l-25.4-39.9 23.3 20.7-8 21.2z"/><path fill="#404040" d="M47 190l35 49-80-49z"/><path fill="#898989" d="M116 190.6l7.1-1.3-.2 25.3-17.2-13z"/><path fill="#303030" d="M50.1 174l5.2 4.7 2.5-14.2-9.9-16z"/><path fill="#c4c4c4" d="M39 126l23-22-1 63z"/><path fill="#3c3c3c" d="M97 251l33.3-34.5L141 227l-33.4 34.6z"/><path fill="#2c2c2c" d="M102 103h8v8h-8z"/><path fill="#424242" d="M144.5 160.1l-9.4-25.1-17.1 27 3.1 17.9z"/><path fill="#cdcdcd" d="M110.7 105.1l15.1 11.9-18.4 21-5.9-10.8z"/><ellipse cx="43" cy="105" fill="#464646" rx="1" ry="20"/><path fill="#404040" d="M130 68h8v43h-8z"/><path fill="#636363" d="M91 156l5-8-24 3z"/><path fill="#303030" d="M44.9 268.2l-31-62.9L1.3 196 21 243.4z"/><ellipse cx="58" cy="99" fill="#d0d0d0" rx="10" ry="3"/><path fill="#dfdfdf" d="M-11.5 137.2l18.6 51.4-16.8 8.1 58.2-92.1z"/><path fill="#5b5b5b" d="M86.1 38.1L46.4 62.8l-5.8 44.5L61.5 48z"/><path fill="#bcbcbc" d="M129.5 115.4l-1.6-24.2-33.2 12 20-1.3z"/><path fill="#222" d="M61 94h11v2H61z"/><circle r="1" fill="#e8e8e8" transform="matrix(25.61635 7.71149 -13.13425 43.62991 25.5 45.8)"/><circle r="1" fill="#d7d7d7" transform="rotate(138.3 1 130.5) scale(10.63099 17.85854)"/><path fill="#7b7b7b" d="M125 271l-15-8 27-30z"/><path fill="#959595" d="M96 95l-6 12 15 8z"/><circle r="1" fill="#3e3e3e" transform="matrix(21.72498 10.58918 -4.0947 8.40078 161.6 207.1)"/><path fill="#9d9d9d" d="M42.3 140.5l-4.7 33.4L48.9 144l-4.2-25.4z"/><path fill="#343434" d="M38.4 228l38.9 4.3-11.4-16-26.1-3.7z"/><path fill="#a7a7a7" d="M112 169l-15 13-19-4z"/><path fill="#d9d9d9" d="M53 103l-7-15-1 29z"/><path fill="#373737" d="M70.4 102l1.6 1-6.4 9-1.6-1.2z"/><path fill="#d3d3d3" d="M95.3 264.6l-24.8-68.3-8.6-4.3 11.2-16.5z"/><path fill="#424242" d="M137 77.3L97.8 44.5l3.2-3.8 39 32.8z"/><path fill="#d0d0d0" d="M88.3 128.4l-4.8 7.9 20.7-77.2-43.3-4z"/><path fill="#606060" d="M146 217l16-10-23 33z"/><path fill="#a0a0a0" d="M98 129l10 8-28 5z"/><path fill="#515151" d="M25.7 184l36.6 35.3-15.9-40.2-8.9-4.6z"/><path fill="#343434" d="M110.7 299.5l-8-6 62.6-83 8 6z"/></g></g></svg>