<svg xmlns="http://www.w3.org/2000/svg" viewBox="0 0 1400 2100"><defs/><filter id="prefix__a"><feGaussianBlur stdDeviation="12"/></filter><rect width="100%" height="100%" fill="#3a3a3a"/><g filter="url(#prefix__a)"><g transform="translate(4.1 4.1) scale(8.20313)"><ellipse cx="99" cy="82" fill="#fff" fill-opacity=".5" rx="158" ry="135"/><circle cx="103" cy="7" r="187" fill="#e1e1e1" fill-opacity=".5"/><path fill-opacity=".5" d="M67.6 34.7l74.3 55.9L152.4 71 118 30z"/><circle r="1" fill-opacity=".5" transform="matrix(3.66941 -15.31625 23.97755 5.74446 121.8 205.7)"/><ellipse cx="12" cy="36" fill="#fff" fill-opacity=".5" rx="37" ry="150"/><circle cx="67" cy="207" r="19" fill="#fafafa" fill-opacity=".5"/><path fill-opacity=".5" d="M52 86l-4-24 37-33z"/><path fill="#020202" fill-opacity=".5" d="M47 204l-6-38-37 35z"/><circle r="1" fill="#747474" fill-opacity=".5" transform="matrix(-8.78356 27.00443 -28.8377 -9.37985 81.6 154.2)"/><circle r="1" fill="#fff" fill-opacity=".5" transform="rotate(115 66.7 54.8) scale(26.81273 125.95362)"/><circle r="1" fill="#fcfcfc" fill-opacity=".5" transform="matrix(-32.32584 -46.4096 23.73207 -16.53018 169 174.4)"/><path fill="#464646" fill-opacity=".5" d="M93 105l59-37-20 52z"/><path fill="#585858" fill-opacity=".5" d="M46 83h41v19H46z"/><circle r="1" fill="#f1f1f1" fill-opacity=".5" transform="matrix(6.4452 25.65939 -29.32657 7.36633 66.5 16.5)"/><path fill="#393939" fill-opacity=".5" d="M99 23l44 29-95 2z"/><path fill="#383838" fill-opacity=".5" d="M111.7 176.2l45 74.2-2.5-49.9-83.7 49.1z"/><circle r="1" fill="#e2e2e2" fill-opacity=".5" transform="matrix(-9.30484 11.29282 -16.57771 -13.65938 113.4 78)"/><ellipse cx="169" cy="122" fill="#ececec" fill-opacity=".5" rx="22" ry="90"/><path fill="#343434" fill-opacity=".5" d="M150.5 84.3l-6.6 9.2-18.2 49.3 12-94.3z"/><path fill="#141414" fill-opacity=".5" d="M39 163h6v23h-6z"/><path fill="#3e3e3e" fill-opacity=".5" d="M-16 196l89 37-52-49z"/><circle r="1" fill="#dadada" fill-opacity=".5" transform="matrix(-16.16101 57.49463 -4.91106 -1.38044 51.6 114)"/><circle cx="68" cy="199" r="24" fill="#c5c5c5" fill-opacity=".5"/><path fill="#dedede" fill-opacity=".5" d="M107.3 169l19.9-26.3 53.5 40.3-19.9 26.3z"/><path fill="#e5e5e5" fill-opacity=".5" d="M128 120l1-36-10 33z"/><path fill="#505050" fill-opacity=".5" d="M40 99h9v16h-9z"/><path fill="#626262" fill-opacity=".5" d="M103.8 153.6l3.5-.5 9.7 38.8-34.9-15.6z"/><path fill="#e0e0e0" fill-opacity=".5" d="M32 177L0 190V73z"/><path fill="#3c3c3c" fill-opacity=".5" d="M63 271l47-87 61 29z"/><path fill="#313131" fill-opacity=".5" d="M49 60h10v24H49z"/><path fill="#e2e2e2" fill-opacity=".5" d="M179.7-16L-16 3.7 38.1 91l19.7-42.7z"/><circle r="1" fill="#424242" fill-opacity=".5" transform="rotate(-50.7 121.5 -108.6) scale(9.50833 25.90904)"/><path fill="#d7d7d7" fill-opacity=".5" d="M74 51l18 61 31-42z"/><path fill="#515151" fill-opacity=".5" d="M87.4 28.1L60 45.7 145.5 74l-37.8-47.4z"/><path fill="#cdcdcd" fill-opacity=".5" d="M80.1 172.3l17.3-13.5-17.8-.7L-9.7 53.9z"/><path fill="#bfbfbf" fill-opacity=".5" d="M67 227l32-19 14-48z"/><circle r="1" fill="#e4e4e4" fill-opacity=".5" transform="matrix(-24.6692 17.14554 -13.77307 -19.81685 163.9 111.9)"/><path fill="#090909" fill-opacity=".5" d="M65 85h17v4H65z"/><path fill="#434343" fill-opacity=".5" d="M64 93l18 14 6-9z"/><path fill="#262626" fill-opacity=".5" d="M104.4 149.7l-.2 1-38.6-10.4.2-1z"/><path fill="#d0d0d0" fill-opacity=".5" d="M33.5 133.7l31.8-35.2 11.3 33.3 24.5 11.8z"/><path fill="#3e3e3e" fill-opacity=".5" d="M53.2 53.4l-3.3 20.4-4.4 27.5 13.1-20.4z"/><path fill="#444" fill-opacity=".5" d="M46.4 210.6l61.8 53.4L-16 197.1l43.7-16.8z"/><path fill="#d8d8d8" fill-opacity=".5" d="M133.4 194.1l-17.8-9.6 36.8-108.9 31.2 143.9z"/><path fill="#c8c8c8" fill-opacity=".5" d="M86 38L97 9 67 40z"/><path fill="#e3e3e3" fill-opacity=".5" d="M183 109l-4.3-125L61.2 20.2l64.4 11.9z"/><path fill="#bdbdbd" fill-opacity=".5" d="M62.3 223.3l41.5-26.7-42.6-25.1-22.9 32.6z"/><path fill="#4b4b4b" fill-opacity=".5" d="M76 176l-19-13 37 13z"/><path fill="#3e3e3e" fill-opacity=".5" d="M182 263l-103-7 32-78z"/><path fill="#393939" fill-opacity=".5" d="M79.1 39.4l69.1 39.1-17.4 44.7 4.5-65.3z"/><path fill="#2c2c2c" fill-opacity=".5" d="M31 178l15-19-4 22z"/><path fill="#1f1f1f" fill-opacity=".5" d="M115 94.5l8.3 5.6-2.3 3.4-8.3-5.6z"/><path fill="#464646" fill-opacity=".5" d="M134 111l1 15-12 9z"/><path fill="#dcdcdc" fill-opacity=".5" d="M46 160l-62 40 62-70z"/><path fill="#c2c2c2" fill-opacity=".5" d="M134.5 87.7l-12.6 14.2-44.1-50.8 26.5 6.3z"/><path fill="#383838" fill-opacity=".5" d="M126.6 242.5l-24.7-34.3-13.3 6.9-24.7 17.1z"/><circle r="1" fill="#c9c9c9" fill-opacity=".5" transform="matrix(1.30276 24.05479 -11.06596 .59931 68 204.2)"/><circle r="1" fill="#6d6d6d" fill-opacity=".5" transform="matrix(6.3608 -.98473 1.57022 10.1427 43 191.4)"/><path fill="#3f3f3f" fill-opacity=".5" d="M119 109l-19-2-1-9z"/><path fill="#d0d0d0" fill-opacity=".5" d="M56 90h48v4H56z"/><path fill="#6c6c6c" fill-opacity=".5" d="M72 124l28 3-4 7z"/><path fill="#c4c4c4" fill-opacity=".5" d="M118 114l-31-13-1 30z"/><path fill="#c1c1c1" fill-opacity=".5" d="M131.1 110.2l-28-14.5 24.8 20.1-6.6 23.4z"/><path fill="#424242" fill-opacity=".5" d="M43.1 125.1L48 97.3l1.6-24.4 14.2-28.1z"/><path fill="#e3e3e3" fill-opacity=".5" d="M12 137.3L-16-16 108.7 5.2 55.8 51.1z"/><circle r="1" fill="#424242" fill-opacity=".5" transform="matrix(19.9057 25.20498 -18.48865 14.60145 136.2 223.2)"/><path fill="#d7d7d7" fill-opacity=".5" d="M65.4 77.8l11.4-24.4 31.8 14.8-11.4 24.4z"/><path fill="#4d4d4d" fill-opacity=".5" d="M137.9 48.6l-42.8 3.8-44-.5L122 33.7z"/><path fill="#9c9c9c" fill-opacity=".5" d="M112 170l-25 10-5 15z"/><path fill="#cdcdcd" fill-opacity=".5" d="M70.9 69.1l-9.5 5.2-13.1 29.1-.3 12.5z"/><circle r="1" fill="#d8d8d8" fill-opacity=".5" transform="matrix(9.372 26.61324 -11.76187 4.142 18.8 154.3)"/><path fill="#757575" fill-opacity=".5" d="M114.8 94.4l-12.9-.3-3.3 15.8 5.1 9.2z"/><path fill="#454545" fill-opacity=".5" d="M45.1 117.6l16.8-60.1 58-25.2-67 20.5z"/><path fill="#414141" fill-opacity=".5" d="M110 95l16 13-3-8z"/><path fill="#dadada" fill-opacity=".5" d="M108.4 168.9l16.9 23.6 52.8-13.5-14.7-94.7z"/><path fill="#525252" fill-opacity=".5" d="M81 141.2l15.5 3.8-1.5 5.8-15.5-3.8z"/><path fill="#b6b6b6" fill-opacity=".5" d="M60 135.9l-19.6-11.2 2-27.7 13.2 63z"/><path fill="#858585" fill-opacity=".5" d="M69.9 240.6l-6.9-4 3.1-5.2 6.9 4z"/><path fill="#404040" fill-opacity=".5" d="M7 271l34-95-57 21z"/><path fill="#c2c2c2" fill-opacity=".5" d="M68 168l1-27 19 27z"/><circle r="1" fill="#dfdfdf" fill-opacity=".5" transform="matrix(-9.16477 4.4339 -11.3443 -23.44842 33.3 72)"/><path fill="#cfcfcf" fill-opacity=".5" d="M69 55l43 47-52-33z"/><path fill="#e1e1e1" fill-opacity=".5" d="M87.5-16l96.1 39.7 1.4 99.5-39.8-65.8z"/><path fill="#3c3c3c" fill-opacity=".5" d="M64 95h17v4H64z"/><circle r="1" fill="#484848" fill-opacity=".5" transform="rotate(69.5 -90.2 243) scale(34.56685 17.17333)"/><path fill="#848484" fill-opacity=".5" d="M64 138l-2 32-8-19z"/><path fill="#c4c4c4" fill-opacity=".5" d="M110.1 145.3l-11.3-8 15.6-28.3 11 11.7z"/><path fill="#606060" fill-opacity=".5" d="M152 73.8l-4.8 19.7-16.9-51.2 23 28.2z"/><path fill="#383838" fill-opacity=".5" d="M32 199l37 31-22 29z"/><path fill="#454545" fill-opacity=".5" d="M56 89l25-5-13-1z"/><path fill="#cecece" fill-opacity=".5" d="M125.8 194.3l5.7-69.1 5.9 12-24.9 43.9z"/><path fill="#e0e0e0" fill-opacity=".5" d="M57.9-5l69.6 44.1L179.2 80 163.4-7.6z"/><path fill="#a9a9a9" fill-opacity=".5" d="M77.4 112.2l10.4-7.8-34.6-7.2 21.1 13.2z"/><path fill="#747474" fill-opacity=".5" d="M105.2 24.9l1.2 2.9 38.4 31.6L132 43.1z"/><path fill="#4f4f4f" fill-opacity=".5" d="M109 166.2l-19 11.3-1-1.7 19-11.3z"/><path fill="none" stroke="#464646" stroke-opacity=".5" stroke-width=".5" d="M121.5 56q-18-41.8-41.4-20.5"/><path fill="#404040" fill-opacity=".5" d="M148.9 74.2l-18.1-2.5 7.4-14.5 3.9-3.5z"/><path fill="#d5d5d5" fill-opacity=".5" d="M117.1 151.6l54.7 43.9-20 9.8-35.5-29.1z"/><circle r="1" fill="#a7a7a7" fill-opacity=".5" transform="matrix(2.95818 -1.53993 4.53954 8.72038 54.6 202.6)"/><path fill="#a8a8a8" fill-opacity=".5" d="M112.4 140.8l-1.8 28.7-43.5 48.3 66.5-86z"/></g></g></svg>