<svg xmlns="http://www.w3.org/2000/svg" viewBox="0 0 1400 1050"><defs/><filter id="a"><feGaussianBlur stdDeviation="12"/></filter><rect width="100%" height="100%" fill="#673c36"/><g filter="url(#a)"><g fill-opacity=".5" transform="translate(2.7 2.7) scale(5.46875)"><circle cx="63" cy="45" r="196" fill="#f0f8e4"/><circle r="1" fill="#f6ffff" transform="matrix(-10.1377 -56.49161 140.51365 -25.21585 171.2 16.7)"/><circle r="1" fill="#80533c" transform="rotate(173.1 68.3 71) scale(255 49.56662)"/><ellipse cx="205" cy="104" fill="#b7f8ff" rx="34" ry="12"/><ellipse cx="144" cy="101" fill="#364640" rx="43" ry="28"/><path fill="#03151f" d="M2.5 51.3l17-2 8 65.4-17 2z"/><circle r="1" fill="#fbffff" transform="matrix(-2.23483 27.4175 -13.41268 -1.09328 64.7 78.8)"/><circle r="1" fill="#d78f87" transform="rotate(-172.6 79 87.6) scale(115.56454 24.06838)"/><path fill="#000004" d="M246.2 106.7l24.8 7.9V52.2l-25.7 5.6z"/><circle r="1" fill="#8eb4c1" transform="rotate(-32 357.2 -369.5) scale(21.83662 29.65647)"/><ellipse cx="76" cy="136" fill="#b36634" rx="128" ry="24"/><circle r="1" fill="#eff" transform="matrix(2.06093 18.08858 -39.20214 4.46652 225.5 45.3)"/><path fill="#dcefff" d="M215 109l-60-7 85-13z"/><path fill="#0c323f" d="M87 85h140v9H87z"/><path fill="#d3d9d7" d="M25 67h55v37H25z"/><circle r="1" fill="#b6b9ae" transform="matrix(6.88515 34.24612 -32.68183 6.57065 32.4 19.8)"/><circle r="1" fill="#7e6435" transform="matrix(-64.5756 -35.86527 11.12714 -20.03448 191.9 148.2)"/><ellipse cx="3" cy="158" fill="#6e4c33" rx="22" ry="49"/><path fill="#69bea4" d="M238 82l-15-30-40 34z"/><path fill="#000004" d="M235.3 100.1l.4-11 23 .8-.4 11z"/><path fill="#e3e6dc" d="M106 99L94 34l-65-8z"/><ellipse cx="233" cy="70" fill="#d0e3e8" rx="4" ry="71"/><path fill="#39293b" d="M118 61l-24 1 21-9z"/><path fill="#90877f" d="M50.5 40.1l-1.6 38.1-50.1-41 39.1 4.3z"/><path fill="#86884a" d="M76 82h56v8H76z"/><circle r="1" fill="#d7e4ec" transform="matrix(2.85349 0 0 20.27846 188.9 80)"/><path fill="#b0b2b9" d="M144.5 103.7l-11.8 6.8 18.9 2.5 55.6-19.5z"/><path fill="#1b5ac5" d="M158 87.7l-17.8 2.5-2.2-15.9 17.8-2.5z"/><ellipse cx="170" cy="117" fill="#342728" rx="18" ry="9"/><ellipse cx="96" cy="153" fill="#bf7d67" rx="82" ry="18"/><path d="M139.7 98.4l-.4-7 33-1.8.4 7z"/><path fill="#fff" d="M217.7 64.6l-12.2 2.3-12.2-24.5 26.9-16.5z"/><path fill="#dae6ea" d="M223 6h23v62h-23z"/><path fill="#d5e9f3" d="M99 65h4v47h-4z"/><path fill="#be8b83" d="M245 191l-224 2 115-41z"/><path fill="#3f3f39" d="M-16.9 71.8l.8-23 37 1.4-.8 23z"/><path fill="#6f6c68" d="M231.5 93.9l-20.6 41.6 31.3 36.1-20.3-77.1z"/><path fill="#e6eee7" d="M134.2 64.6l.5 14-83 2.8-.4-14z"/><circle r="1" fill="#1b1c1c" transform="matrix(-24.2556 1.98014 -.22402 -2.74415 110.7 92.4)"/><path fill="#bfc0b7" d="M151 24h44v52h-44z"/><circle r="1" fill="#c8cdc2" transform="matrix(48.77087 -2.92893 .0975 1.62346 87.2 98.5)"/><path fill="#3e7054" d="M187 74h42v6h-42z"/><ellipse cx="17" cy="31" fill="#d0d7d1" rx="25" ry="8"/><path fill="#687278" d="M7.6 112.6l6.4-8.8 12.5-2.1-31.9-50.2z"/><path fill="#031f23" d="M191.6 86.2l27.7-3.4 1.1 9-27.7 3.4z"/><path fill="#684733" d="M-16 141l25.3-34.5 53.7 8-13.6-14.8z"/><path fill="#5b8749" d="M222 49l-3 28 9 5z"/><path fill="#e9ffff" d="M205.2 79.1l1.4 5.8-7.8 2-1.4-5.8z"/><path fill="#fff" d="M185 71h23v3h-23z"/><ellipse cx="121" cy="82" fill="#6de150" rx="9" ry="7"/><path fill="#ca3500" d="M82 79l3.7 11.5-7.7 2.4-3.7-11.4z"/><path fill="#a28642" d="M78 122l43-16 93 85z"/><circle cx="240" cy="79" r="5" fill="#0f452f"/><circle r="1" fill="#d3dfe1" transform="matrix(-138.7614 -20.73803 3.44682 -23.06322 213.4 -.1)"/><path fill="#555351" d="M238 123h18v19h-18z"/><path fill="#c2c2bd" d="M153 68h39v12h-39z"/><path fill="#757887" d="M191.3 33.4l-.7-1.9 30-11 .8 2z"/><path fill="#976744" d="M6.1 227.6l-20.7-72.1 38.5-11 20.7 72z"/><path fill="#df7f8a" d="M40 199.4L21.2 134l4.8-1.4L44.8 198z"/><circle r="1" fill="#e9dec2" transform="matrix(-1.53331 -15.92406 45.50616 -4.38174 117.6 7.7)"/><path fill="#000005" d="M96 92l-15 1 6 4z"/><circle r="1" fill="#6a4b32" transform="matrix(-.5617 8.45688 -32.60519 -2.16563 214.8 160.6)"/><circle r="1" fill="#ba5f3e" transform="matrix(37.22154 13.3889 -3.87487 10.77226 58.8 129.2)"/><path fill="#8a8178" d="M188 115h29v34h-29z"/><path fill="#c9a298" d="M243.9 197.8l-3.3 9.4-78.5-27 3.3-9.4z"/><path fill="#b7bdc3" d="M177.6 90.9l13 .2-.2 16-13-.2z"/><path fill="#e0ffff" d="M238.8 85.3l.5-1 7.9 4.4-.5 1z"/><path fill="#c6b8a2" d="M29 0h46v27H29z"/><path fill="#feffff" d="M196 34h23v31h-23z"/><path fill="#60ca6d" d="M210 68h14v17h-14z"/><path fill="#645d4d" d="M89.6 103.5l9.4-3.8 1.1 14.5-46.2-8.5z"/><path fill="#c0cfce" d="M148 98h5v13h-5z"/><circle r="1" fill="#231728" transform="matrix(-2.63474 -2.53547 6.26582 -6.51115 174.8 86.3)"/><path fill="#e1eaea" d="M103.9 122.3L97 83.9l1-.2 6.8 38.4z"/><path fill="#d2e5ec" d="M230 115h7v23h-7z"/><path fill="#93b5d1" d="M174.9 96l18 18.1 23.9 5.1 9.7-4.5z"/><ellipse cx="144" cy="126" fill="#8c562a" rx="39" ry="7"/><path fill="#f4ffff" d="M220 98v11l-25-12z"/><ellipse cx="74" cy="99" fill="#cbcfc7" rx="27" ry="3"/><path fill="#c4d5cd" d="M211 93l23 3v-7z"/><path fill="#b7afa7" d="M24 53h29v43H24z"/><path fill="#7d849d" d="M192 35h3v37h-3z"/><path fill="#00070d" d="M237 91h19v8h-19z"/><circle cx="224" cy="86" r="4" fill="#00130f"/><path fill="#71798b" d="M193 97h35v2h-35z"/><path fill="#a9d5af" d="M228 64h16v12h-16z"/><path fill="#98877a" d="M33 41h14v27H33z"/><path fill="#e1e1d9" d="M51 45l6 61 46-73z"/><circle r="1" fill="#9d8c63" transform="rotate(-68.4 249.4 -70) scale(7.09754 63.34773)"/><path fill="#b57174" d="M29 137l94 27-79 29z"/><path fill="#bde9ff" d="M197 79l-1 7 12-6z"/><path fill="#877d84" d="M95.1 63.2L113.2 52l1.5 1.5 7.6 11.4z"/><path fill="#ae9063" d="M62 114h46v10H62z"/><path fill="#43372d" d="M141 103l-22-5-16 13z"/><path fill="#6b6380" d="M209.8 66.5l.3 3-19.9 2-.3-3z"/><circle r="1" fill="#343a61" transform="matrix(7.56293 -.46554 .58855 9.56129 141.7 83.8)"/><path fill="#e5e7e3" d="M186 22h6v53h-6z"/><path fill="#5f1730" d="M249 56h7v33h-7z"/><path fill="#60453b" d="M-7.9 145.3l-5.6-26.4 29.4-6.2 5.6 26.4z"/><path fill="#b9cad2" d="M2.5 83.7L-16 112.9v3.6l18.9-3.6z"/></g></g></svg>