<svg xmlns="http://www.w3.org/2000/svg" viewBox="0 0 933 1400"><defs/><filter id="a"><feGaussianBlur stdDeviation="12"/></filter><rect width="100%" height="100%" fill="#414141"/><g filter="url(#a)"><g fill-opacity=".5" transform="translate(2.7 2.7) scale(5.46875)"><circle r="1" fill="#fff" transform="matrix(112.32882 -34.90544 50.15013 161.38762 71.3 66.6)"/><path fill="#fff" d="M185 5L-16 213 1-16z"/><ellipse cx="133" cy="189" fill="#070707" rx="16" ry="48"/><circle r="1" fill="#181818" transform="rotate(-145.8 63.9 10.5) scale(35.48829 11.56439)"/><circle r="1" fill="#111" transform="matrix(-4.35039 -38.18287 17.83244 -2.03175 47 201.4)"/><circle r="1" fill="#fff" transform="matrix(30.23204 -2.3616 8.52738 109.16355 169 96.3)"/><path fill="#eaeaea" d="M101 271l28-173-70 94z"/><path fill="#292929" d="M44.5 63.4l-.4 18.7 51.7-50.7-29.4 8.8z"/><circle r="1" fill="#101010" transform="matrix(-4.66897 .14095 -.8727 -28.90721 132.2 93.5)"/><circle r="1" fill="#737373" transform="matrix(-8.36471 7.69175 -19.20277 -20.88286 60.7 97.1)"/><ellipse cx="16" cy="42" fill="#f5f5f5" rx="28" ry="148"/><circle r="1" fill="#414141" transform="rotate(-166.9 32.6 102.8) scale(32.60339 26.4232)"/><circle r="1" fill="#4b4b4b" transform="matrix(-16.8463 -24.1486 27.06748 -18.88254 151 226)"/><path fill="#f3f3f3" d="M83.9 205.9l5.5 65.1 5.9-20.5 25.8-25.7z"/><circle r="1" fill="#f5f5f5" transform="matrix(-7.98099 24.7765 -98.63753 -31.77303 106.5 12.8)"/><path fill="#4f4f4f" d="M-16 253l68-108 25 115z"/><ellipse cx="79" cy="129" fill="#c8c8c8" rx="49" ry="19"/><path fill="#e8e8e8" d="M145 20h25v173h-25z"/><path fill="#4a4a4a" d="M44.4 120.1l-4.7-16.2 10-50.6L46.4 96z"/><path fill="#d1d1d1" d="M59 55h55v39H59z"/><path fill="#434343" d="M65 51.6l14.5-18.3 8.1-3.5 46.1 30.3z"/><path fill="#3e3e3e" d="M116 177l45 53-29-111z"/><circle r="1" fill="#323232" transform="matrix(-18.00446 .55498 -.08619 -2.796 87 150)"/><circle cx="18" cy="158" r="25" fill="#d4d4d4"/><circle r="1" fill="#575757" transform="rotate(79.7 -81.2 213.5) scale(26.35507 51.89954)"/><path fill="#828282" d="M31 268l-47-4 24-44z"/><path fill="#3a3a3a" d="M139 104l-29-56 28 28z"/><circle r="1" fill="#cbcbcb" transform="rotate(-170.4 42.5 84.8) scale(12.76378 19.80915)"/><path fill="#ededed" d="M2.4-16L-16 101.2l63.5-44.1 54.4-42.2z"/><circle cx="94" cy="208" r="29" fill="#c7c7c7"/><circle r="1" fill="#373737" transform="matrix(4.40127 -7.02258 32.60653 20.43554 44 212)"/><path fill="#1c1c1c" d="M63 102h9v9h-9z"/><path fill="#3d3d3d" d="M185 205.6l-34-11.4-38.1-3 31.3 62.9z"/><path fill="#939393" d="M185 212.6l-53.4 57 53.4-3.2-38.5 4.6z"/><path d="M103 103h6v8h-6z"/><path fill="#c5c5c5" d="M132 132l-11-66-38-21z"/><path fill="#292929" d="M43 138l15 31-5 23z"/><path fill="#c5c5c5" d="M65.9 147.7l-3.8 20.7-31.7-45.7 101.8-15.2z"/><ellipse cx="150" cy="164" fill="#c2c2c2" rx="8" ry="29"/><ellipse cx="12" cy="207" fill="#454545" rx="52" ry="17"/><path fill="#d3d3d3" d="M25 188l26-52-67 53z"/><path fill="#e7e7e7" d="M114 24l64 110-9-150z"/><path fill="#373737" d="M112 267l20-54-47 51z"/><path fill="#727272" d="M114.1 256.9l43.1-47.7-2.8 9.3-33 51.9z"/><path fill="#4b4b4b" d="M140.7 82.5l-15-32.4-2.5 32.4 9.1 28.2z"/><path fill="#c4c4c4" d="M55 60l20 3-33 61z"/><path fill="#dbdbdb" d="M94.9 254.1l29.5-42-50.4 7.2 18.3 35.9z"/><path fill="#414141" d="M41.2 74.9l24.5-30.3 3.1 2.5-24.5 30.3z"/><path fill="#4d4d4d" d="M63.4 210.6L30.5 249l69.8 22-17.1-32.9z"/><ellipse cx="104" cy="96" fill="#1f1f1f" rx="9" ry="2"/><path fill="#9d9d9d" d="M123 190.1l-8.7-14.4-11.1 30.8 18.9 15.2z"/><ellipse cx="117" cy="133" fill="#c3c3c3" rx="10" ry="25"/><path fill="#4e4e4e" d="M62 91l13 6-24-2z"/><ellipse cx="43" cy="130" fill="#767676" rx="2" ry="44"/><path fill="#5e5e5e" d="M148 150.4l-12.8 5.4-9.7-22.3 5.5-14z"/><path fill="#7a7a7a" d="M85.1 160.7l-29.4-17.9 29 8.4 29-7.7z"/><path fill="#cfcfcf" d="M133.1 111l32.2 91.2-25.5-135.3-1.6 45z"/><path fill="#e8e8e8" d="M79-16L45 69l-61 6z"/><path fill="#c2c2c2" d="M34 124l51 80 14-32z"/><path fill="#3f3f3f" d="M50.5 53.8l28.1-13 53.8 25.9-28.5-23.8z"/><path fill="#dadada" d="M152.6 193.6l8.2-23.7 24.6 8.5-8.2 23.7z"/><path fill="#e6e6e6" d="M91 0h79v37H91z"/><path fill="#313131" d="M55 271l-60.2-87.4 38 84.1 47.9 2.2z"/><path fill="#4c4c4c" d="M58.5 107.7l-5.2 1 1-2.5 9.7-6.7z"/><path fill="#cacaca" d="M51.8 104l10.3-24.7-15.4 7.6-2.1 28.9z"/><path fill="#e5e5e5" d="M6 187l2-66-24 75z"/><path fill="#474747" d="M43 74h3v34h-3z"/><path fill="#5c5c5c" d="M7.3 192.1l13.1 22.4L68.8 271 19 197.6z"/><path fill="#333" d="M170 201l-48 25 30-31z"/><circle r="1" fill="#727272" transform="matrix(2.64225 5.08422 -4.0211 2.08975 72.7 109.3)"/><path fill="#d3d3d3" d="M91.1 249l-20-28.6L98.8 201l20 28.7z"/><path fill="#b7b7b7" d="M40 121l3 27 88-4z"/><path fill="#cfcfcf" d="M79 50l33 12-28 62z"/><path fill="#bbb" d="M60 156h58v29H60z"/><path fill="#8c8c8c" d="M79.1 219.8l-18.2-22.6-5.7-20.3 15.9 24.2z"/><path fill="#444" d="M96.4 107.7l-.4-2 17.6-3.4.4 2z"/><path fill="#9f9f9f" d="M115 78l12-7-14-11z"/><circle r="1" fill="#303030" transform="matrix(4.60259 24.98579 -2.918 .53752 124.6 184.4)"/><path fill="#313131" d="M137 263l-6.2-5 46.1-59 6.3 5z"/><path fill="#353535" d="M72 225l-9-17-45 25z"/><path fill="#b2b2b2" d="M49.8 66.6l58.7-11.8-6.6 2.9-27.2-8z"/><circle r="1" fill="#515151" transform="rotate(-85.5 64.4 11.5) scale(10.72091 3.53732)"/><path fill="#717171" d="M128.9 51.7l-31.6-9.5 1.4-8.3 41.6 36z"/><path fill="#151515" d="M132 138l-6 5 3-10z"/><path fill="#636363" d="M139 189l-5 19-8-43z"/><path fill="#ddd" d="M38 57l5 83-59 67z"/><path fill="#393939" d="M49 194l7-27-9-23z"/><path fill="#c4c4c4" d="M122 93h7v41h-7z"/><path fill="#3f3f3f" d="M103 38l28 24-54-23z"/><path fill="#e8e8e8" d="M26-16l47 54-38 16z"/><circle r="1" fill="#737373" transform="rotate(81.7 -22 162.4) scale(28.67448 3.05212)"/><path fill="#313131" d="M134.6 141.9l-11.8 14.3 9.8 23 5.5-4.2z"/><circle cx="72" cy="96" r="3" fill="#5a5a5a"/><circle r="1" fill="#9e9e9e" transform="matrix(2.28864 .19405 -1.47244 17.36632 40.7 158.8)"/><path fill="#d1d1d1" d="M52.6 77.7l65.3-4.2 4.3 20.7-64.3-3.1z"/><circle r="1" fill="#626262" transform="matrix(11.56703 -5.81537 1.78613 3.5527 64.6 48.8)"/><path fill="#444" d="M43.5 189.6l-59 2.1 34.5 8.4 15.7-25.4z"/><path fill="#434343" d="M65 149h36v2H65z"/><circle r="1" fill="#525252" transform="matrix(7.53 -7.79754 17.86748 17.25442 44.6 243.7)"/><ellipse cx="131" cy="96" fill="#393939" rx="2" ry="29"/></g></g></svg>