<svg xmlns="http://www.w3.org/2000/svg" viewBox="0 0 1400 1050"><defs/><filter id="a"><feGaussianBlur stdDeviation="12"/></filter><rect width="100%" height="100%" fill="#4e6476"/><g filter="url(#a)"><g fill-opacity=".5" transform="translate(2.7 2.7) scale(5.46875)"><circle r="1" fill="#fcdab0" transform="matrix(.115 -224.13766 152.75513 .07838 111 75)"/><circle r="1" fill="#8d6a5b" transform="matrix(-31.08265 -8.81118 22.70164 -80.0832 87.8 134.1)"/><circle r="1" fill="#bfccc4" transform="matrix(56.62827 52.20506 -16.9255 18.35956 176.4 145.4)"/><circle r="1" fill="#6b3917" transform="matrix(5.00063 5.5667 -41.62376 37.391 130.8 71.9)"/><ellipse cx="77" cy="9" fill="#bbc7c8" rx="113" ry="27"/><path fill="#ccd2c2" d="M106 110L228-13l-78 148z"/><path fill="#7e5045" d="M166 169L67 67l44 81z"/><circle r="1" fill="#806c61" transform="rotate(-124.9 61.6 75) scale(17.80584 57.28981)"/><path fill="#aeb1a8" d="M86.6 106.3L19.4 47.5-16 124.3l90.5 7.6z"/><circle r="1" fill="#775e39" transform="rotate(-142.5 99.8 -30.2) scale(5.56492 44.64167)"/><circle r="1" fill="#8b876d" transform="rotate(119.1 64.1 166.2) scale(88.7536 22.14956)"/><path fill="#a15230" d="M198 130l-12-52 17 24z"/><path fill="#c0c2bc" d="M212-11l-95-5 31 69z"/><path fill="#d1d8d5" d="M123 125l37-71-53 51z"/><circle r="1" fill="#aa7e77" transform="matrix(33.74145 9.10414 -4.88642 18.1099 76.7 69.4)"/><ellipse cx="97" cy="179" fill="#969d8e" rx="65" ry="29"/><circle r="1" fill="#b1b09d" transform="matrix(26.14645 -33.32932 19.47726 15.27967 156.4 103.4)"/><path fill="#6f431e" d="M138.4 65.3L175 34.2l-63.1 69.4-4.1-17.8z"/><circle r="1" fill="#b1b69a" transform="matrix(-10.00204 -69.50417 17.50855 -2.51958 217.3 85.7)"/><path fill="#8eaab9" d="M140 47l-25 8 20 15z"/><path fill="#8a5047" d="M75.9 137l22.5 14-50.6-2.5 34.7-20.3z"/><path fill="#b6aaa3" d="M54 73l26-20 30 19z"/><path fill="#97635e" d="M60 66l33-20-68 15z"/><circle r="1" fill="#8b7871" transform="rotate(20.6 -417.3 90.5) scale(57.84123 7.47797)"/><ellipse cx="247" cy="63" fill="#98967b" rx="14" ry="43"/><path fill="#633b27" d="M91 86l31 40-35-26z"/><path fill="#a3948b" d="M89 118h22v25H89z"/><path fill="#9d4f2d" d="M196 80.9l3.9 18.6-7.8 1.6-4-18.6z"/><circle r="1" fill="#a6847e" transform="rotate(14.7 -107.4 426.2) scale(47.59929 4.66601)"/><circle r="1" fill="#b0b19d" transform="matrix(-65.48359 76.40101 -11.8999 -10.19945 205.3 43.8)"/><circle r="1" fill="#71542d" transform="matrix(-1.72087 -1.68237 43.85318 -44.85686 189.7 20.4)"/><path fill="#b3b295" d="M179 128l21-25-53-27z"/><path fill="#97634f" d="M106.3 73.7L85.8 91.4 81 116.1l37-43.8z"/><path fill="#81493f" d="M105 140h37v7h-37z"/><path fill="#d2d5cc" d="M194.5 20.6l-26 39.6-28.4 26.6L117.5 97z"/><circle r="1" fill="#a1a8a1" transform="matrix(-8.69748 26.6415 -27.01857 -8.82058 156.5 186.6)"/><path fill="#d5dedf" d="M134 86l-19 25-10-6z"/><path fill="#abae9d" d="M224 207l22-132-53 52z"/><path fill="#bfc7c8" d="M219 207l-33-55-37-11z"/><path fill="#81745e" d="M253.2 208.1l-13.9-1.7 7.5-60.5 13.9 1.7z"/><ellipse cx="21" cy="75" fill="#b0b6b1" rx="33" ry="11"/><ellipse cx="255" cy="99" fill="#857768" rx="15" ry="8"/><path fill="#a6ada4" d="M77.8 141.1l19.4-13.6-.6 12.4 5.3 5.7z"/><path fill="#a8736a" d="M154.8 40.4l.3 4-45.9 3.2-.3-4z"/><path fill="#a66c65" d="M102 48l27 25-44-14z"/><path fill="#99696c" d="M12 51l5 13-16-1z"/><path fill="#c1bab5" d="M71 43l42-4-6 11z"/><path fill="#986f62" d="M102 107l6 47-26-54z"/><circle r="1" fill="#602e13" transform="matrix(14.07797 -10.92 1.95147 2.51581 127.1 78.6)"/><ellipse cx="64" cy="9" fill="#a9aaa4" rx="23" ry="40"/><path fill="#583833" d="M112.6 116.9l5.5 15.9 9.5.8 1.7-.1z"/><path fill="#a6a494" d="M8 96h74v27H8z"/><path fill="#9b9485" d="M146 149l-43 33-54-29z"/><path fill="#7e7267" d="M26 207l32.9-34.8L86 163l-28.8 1.4z"/><circle r="1" fill="#9c9982" transform="matrix(-14.80621 8.41075 -6.96607 -12.26301 227 51.4)"/><path fill="#9a6f6d" d="M60 67L44 36H31z"/><path fill="#b2b6b6" d="M22.8 41.1l20.1 8.2-24.4 12.1-.4-18.2z"/><path fill="#9a7361" d="M58 74l15 20 38-3z"/><path fill="#5d768d" d="M13 125l6 7 12-4z"/><path fill="#b4b4aa" d="M85 50l2 36-9-14z"/><path fill="#899792" d="M238 126l-7 38 25-7z"/><path fill="#a4a18a" d="M193.8 127.6l31.8 35.2-38.6-33.5-26.3-30.5z"/><ellipse cx="8" cy="147" fill="#90675f" rx="142" ry="2"/><path fill="#a1a8ae" d="M107.5 110.7l35.5 19.5 46.7 59.7-56.2-53.4z"/><path fill="#a29f98" d="M6 136.7l48.5 22.7-20.8-4.1-14.2 3.3z"/><path fill="#6f685b" d="M127.4 133.8l61.9 59.7-.7.7-61.9-59.7z"/><path fill="#9e6951" d="M205.6 110.9l-5.4-15.3 3.2 7.9-17.3 28.1z"/><path fill="#8e969d" d="M148 53.7l-17.7 16-8.9-1.9-11.3-17.6z"/><path fill="#bdc0b0" d="M198 44l9 10-34 34z"/><path fill="#a09692" d="M63.8 31.3l18.7 5.8-87.8 5.7 24.9-14.5z"/><path fill="#a27970" d="M119 36l-25 8-4-10z"/><path fill="#7d98a3" d="M133 25l-12 4 3-13z"/><path fill="#adb3ac" d="M170 207h60l-72-35z"/><path fill="#91948b" d="M2.1 154.3L87.5 192l-66.7-24-36.8 21.6z"/><circle cx="18" cy="180" r="5" fill="#795f4c"/><path fill="#b0a69c" d="M113 33h57v8h-57z"/><path fill="#c8cdc5" d="M132 96.2l67.3-80.9L230.7-16h6.2z"/><path fill="#7c413a" d="M153 157l-21.8 3-.2-1 21.8-3z"/><path fill="#9d766c" d="M102.5 86.3l-52.7-6.9 28-17.1-4.4 29.6z"/><path fill="#996a60" d="M129.3 69.1l-22.9-6.2 20.7-25.4-24.5 50.1z"/><circle r="1" fill="#c0c4c0" transform="rotate(-26.4 136.5 -330.3) scale(17.91722 6.93788)"/><ellipse cx="56" cy="115" fill="#a4a28c" rx="12" ry="22"/><ellipse cx="94" cy="72" fill="#bcbbb1" rx="8" ry="3"/><path fill="#8b5b51" d="M86 151l-14-25-17 23z"/><path fill="#a2a8a2" d="M0 131h50v14H0z"/><path fill="#b6bbba" d="M149.8 123.2l-42.2-15 24.3 28.4 28.8-39z"/><path fill="#898878" d="M0 179h50v13H0z"/><ellipse cx="50" cy="59" fill="#8c6055" rx="6" ry="8"/><path fill="#a0917f" d="M175.7 20.8l-9.6 20.9-25.3-5 37.5-3z"/><circle cx="96" cy="127" r="4" fill="#adb1a9"/><ellipse cx="57" cy="158" fill="#8e5e58" rx="48" ry="1"/><ellipse cx="112" cy="149" fill="#986d65" rx="18" ry="4"/><circle cx="216" cy="77" r="22" fill="#afac90"/><path fill="#babab3" d="M54.5 56.6L72 40.8l13.1 4.1-30.9 5z"/><ellipse cx="163" cy="43" fill="#69200b" rx="6" ry="2"/><ellipse cx="123" cy="161" fill="#a8aba4" rx="39" ry="2"/><path fill="#7b869a" d="M44 16h6v8h-6z"/><path fill="#9b6e64" d="M77.4 130l16.4-26.3 6.8 4.3-16.4 26.3z"/><path fill="#784b3b" d="M34 163h13v3H34z"/><path fill="#9aacad" d="M119.2 56.2l7.4-9.5 14.2 11.1-7.4 9.5z"/></g></g></svg>