<svg xmlns="http://www.w3.org/2000/svg" viewBox="0 0 933 1400"><defs/><filter id="a"><feGaussianBlur stdDeviation="12"/></filter><rect width="100%" height="100%" fill="#3d3d3d"/><g filter="url(#a)"><g fill-opacity=".5" transform="translate(2.7 2.7) scale(5.46875)"><circle r="1" fill="#fff" transform="matrix(-143.90916 -27.1729 23.66464 -125.32923 89.5 89.7)"/><circle r="1" fill="#fff" transform="rotate(92.9 .7 16.6) scale(169 62.8888)"/><ellipse cx="169" cy="140" fill="#fff" rx="35" ry="71"/><circle r="1" fill="#fff" transform="rotate(-56.9 105.3 -132.5) scale(28.67817 168.99998)"/><circle r="1" fill="#0a0a0a" transform="matrix(-37.63338 .76847 -.2114 -10.35272 97.3 47.7)"/><circle r="1" fill="#050505" transform="matrix(-26.4386 -4.60173 2.79672 -16.06813 122.2 206.5)"/><path d="M55.7 48.4l-9.3 26.9 2.1 25.5 24.2-55.3z"/><ellipse cx="67" cy="202" fill="#f4f4f4" rx="20" ry="24"/><circle r="1" fill="#262626" transform="matrix(8.0613 -6.7403 27.6488 33.0676 124 58.4)"/><circle r="1" fill="#292929" transform="rotate(-55.5 202.9 78.3) scale(35.54052 15.36263)"/><path fill="#f3f3f3" d="M107 107l7 75 71 38z"/><path fill="#f8f8f8" d="M92 112l35-43-52-20z"/><path fill="#1d1d1d" d="M127 130l22-51-13-35z"/><circle r="1" fill="#f5f5f5" transform="matrix(-11.57682 -31.63516 158.70695 -58.0785 0 30.6)"/><ellipse cx="164" cy="59" fill="#efefef" rx="16" ry="138"/><circle r="1" fill="#ededed" transform="rotate(102.3 -44 62.6) scale(75.8664 30.24181)"/><path fill="#3e3e3e" d="M62 84h20v17H62z"/><path fill="#ddd" d="M61 111h67v15H61z"/><path fill="#3a3a3a" d="M165 210l-59-30-25 70z"/><path fill="#4d4d4d" d="M100 95h20v17h-20z"/><path fill="#5b5b5b" d="M39.4 104.2l30.7-61.4-18.4 60-8.7 18.4z"/><ellipse cx="21" cy="218" fill="#3b3b3b" rx="22" ry="35"/><circle r="1" fill="#4c4c4c" transform="matrix(-2.72406 10.39206 -21.5694 -5.65397 105.6 38.9)"/><ellipse cx="121" cy="84" fill="#dadada" rx="12" ry="13"/><circle r="1" fill="#bfbfbf" transform="matrix(-21.55543 24.57439 -6.06974 -5.32407 88 203.2)"/><path fill="#4f4f4f" d="M105 173.1l22.5 84.2-20.8-108.1-23.1 30.5z"/><circle r="1" fill="#e8e8e8" transform="matrix(-55.46451 -8.9833 3.03254 -18.72345 120.2 12.7)"/><circle r="1" fill="#e1e1e1" transform="matrix(13.34006 -35.97736 17.54545 6.50569 141 155.4)"/><ellipse cx="10" cy="159" fill="#dedede" rx="28" ry="26"/><path fill="#343434" d="M140 51l-10 66 21-48z"/><path fill="#2f2f2f" d="M35.6 166.9l-1.6 1.3 14.3-2.7-24 45.1z"/><path fill="#3f3f3f" d="M185 215.9L45.7 248.3l44.6-35.7 33.4-6.7z"/><circle r="1" fill="#d1d1d1" transform="matrix(26.69895 15.04228 -8.14951 14.4648 95 73.8)"/><circle r="1" fill="#c5c5c5" transform="matrix(10.40136 30.20774 -9.50283 3.27209 58.6 197.9)"/><ellipse cx="39" cy="64" fill="#e7e7e7" rx="10" ry="38"/><path fill="#414141" d="M112.6 28L56 52.2l-14.1 67.5 22.4-59.5z"/><path fill="#cdcdcd" d="M99 107l-68 58 20-68z"/><circle r="1" fill="#e7e7e7" transform="matrix(-31.83705 -43.98115 8.73514 -6.32319 150 47.2)"/><path fill="#454545" d="M146 80L73 39l67 12z"/><path fill="#313131" d="M69.3 141.4l.5-2 36.9 9.2-.5 2z"/><ellipse cx="80" cy="92" fill="#cdcdcd" rx="30" ry="3"/><path fill="#bcbcbc" d="M83.5 103l7.2 26.3 42.8-27.2-15.2 65.5z"/><path fill="#3d3d3d" d="M170.1 229.4l-186.1-.2 33.8-41.5 70.1 56.7z"/><path fill="#4b4b4b" d="M73 171h25v6H73z"/><ellipse cx="129" cy="167" fill="#d7d7d7" rx="18" ry="25"/><path fill="#d0d0d0" d="M80 170.2l6.4-3.7-19.8-26.8 1.6 21z"/><path fill="#c4c4c4" d="M54 175h30v44H54z"/><path fill="#404040" d="M47.5 197.6L-6 217l-7.5-20.7L40 177z"/><ellipse cx="111" cy="190" fill="#303030" rx="7" ry="9"/><path fill="silver" d="M67.5 231l37.6-39.5 10.2-30L100 175z"/><path fill="#cfcfcf" d="M59.3 67.4l2.8 11.4 67.4 20.5-52.4-47.8z"/><circle r="1" fill="#e2e2e2" transform="rotate(-111.8 32.7 5.8) scale(19.99625 29.63205)"/><circle cx="81" cy="100" r="7" fill="#5f5f5f"/><path fill="#ccc" d="M121.5 104.7l1.3 28.7 7.5-17.7-30.8-20.5z"/><path fill="#242424" d="M124.3 102.4l-3.2 2.4-5.4-7.2 3.2-2.4z"/><ellipse cx="70" cy="86" fill="#222" rx="7" ry="3"/><path fill="#d8d8d8" d="M-5 193l50-93 4 57z"/><path fill="#1f1f1f" d="M40 163h5v13h-5z"/><path fill="#747474" d="M97.2 137.3l-24.4-9 2-5.6 24.4 9z"/><circle r="1" fill="#d5d5d5" transform="rotate(68.7 -46.4 213.1) scale(30.05431 31.50735)"/><path fill="#c3c3c3" d="M44 173l7-26 7 61z"/><path fill="#676767" d="M53.7 153.3l16 15.6 32.3 10.4-42.9-8.3z"/><path fill="#dedede" d="M172 216l-43-73 40-115z"/><path fill="#dcdcdc" d="M42 159L5 187l25-9z"/><path fill="#c8c8c8" d="M52.6 91.6L48.8 104l6.6 33.2 31.2 5.7z"/><path fill="#3f3f3f" d="M97 103.7l1.6-3.7 20.3 8.3-1.5 3.7z"/><path fill="gray" d="M107 52l19 16-46-16z"/><path fill="#434343" d="M135 110l-2 18-10 7z"/><path fill="#323232" d="M97.3 242.5L85.5 216l19.2-8.5 11.8 26.5z"/><path fill="#353535" d="M50 64l16-21-16 44z"/><path fill="#434343" d="M91.4 28.6l57.4 34.5-6.2 10.3-57.4-34.5z"/><path fill="#a2a2a2" d="M81 43.7l-2.9-17.9L72 47.2l29.5-31.9z"/><path fill="#c4c4c4" d="M129.1 110.6l.1-39-43.6-16.7 18.3 12.6z"/><path fill="#717171" d="M147 93l-3-14 8-12z"/><path fill="#989898" d="M107.9 141.5l-19.4 31 49.2-51.9-31.6 52.3z"/><path fill="#3c3c3c" d="M110 176l-12 61 61 12z"/><path fill="#414141" d="M123.5 253.1l61.5 5.2-28.3-52.8-53.1-9.5z"/><path fill="#c6c6c6" d="M48.9 213.5l-7.3-9.8 19.7 19.7 28.8-44.6z"/><path fill="#cdcdcd" d="M96.8 123.3l-28.1-8 39.2-19-9-11.5z"/><path fill="#c5c5c5" d="M51.5 87.3L62 118.9l.6-58.5 37.3 17.9z"/><path fill="#909090" d="M102 110h21v6h-21z"/><circle r="1" fill="#3a3a3a" transform="matrix(-.9955 -.09474 .6263 -6.58086 46.7 110.5)"/><circle cx="94" cy="206" r="5" fill="#9a9a9a"/><path fill="#4a4a4a" d="M149.7 76l-22-36.9-27-12.4 5.4 30.8z"/><path fill="#393939" d="M38.5 203.9l25.9 22.6L96 234l-73.4-.4z"/><ellipse cx="69" cy="97" fill="#3f3f3f" rx="8" ry="3"/><path fill="#2a2a2a" d="M131 94h4v25h-4z"/><path fill="#949494" d="M39.6 202.5l8.2-6.7-5.1-10.1 19.9 19.7z"/><path fill="#989898" d="M71 235l-2.2 6.6-1.9-.6 2.3-6.6z"/><path fill="#4a4a4a" d="M94.2 53L111 39.8l-36.8.2-16.4 11.2z"/><path fill="#e1e1e1" d="M168-16l11 116-67-87z"/><ellipse cx="43" cy="68" fill="#e2e2e2" rx="5" ry="32"/><circle r="1" fill="#434343" transform="matrix(.4819 -19.7184 25.83958 .6315 14.8 207.5)"/><circle r="1" fill="#d9d9d9" transform="matrix(-11.15211 -5.54286 6.72126 -13.52304 152.1 102.8)"/><path fill="#cacaca" d="M121.8 116.1l-9.6 24.3-29.9-29.7 5.6 19.5z"/><path fill="#a8a8a8" d="M60.4 95l9.1 6.2-3.9 5.8-9.1-6.2z"/><circle r="1" fill="#535353" transform="matrix(-21.2847 -5.07073 .23175 -.97278 82.2 144.7)"/><path fill="#ccc" d="M49.4 213.5l-4.3-9 22.4 22.2 25.2-15.5z"/><ellipse cx="88" cy="3" fill="#dedede" rx="38" ry="25"/><path fill="#606060" d="M87.8 158.4l-8.7-2 1-4.8 8.8 2z"/></g></g></svg>