<svg xmlns="http://www.w3.org/2000/svg" viewBox="0 0 930 1400"><defs/><filter id="a"><feGaussianBlur stdDeviation="12"/></filter><rect width="100%" height="100%" fill="#593c2c"/><g filter="url(#a)"><g fill-opacity=".5" transform="translate(2.7 2.7) scale(5.46875)"><ellipse cx="68" cy="196" fill="#e8efe1" rx="114" ry="167"/><ellipse cx="65" cy="230" fill="#fff" rx="106" ry="35"/><circle r="1" fill="#473b2c" transform="matrix(14.8842 -47.78766 122.96852 38.30043 14 118)"/><circle r="1" fill="#261200" transform="matrix(-27.49983 -10.61545 23.04792 -59.70674 130.9 27.8)"/><circle r="1" fill="#fff" transform="rotate(162.9 68.3 80.4) scale(22.82869 30.85192)"/><ellipse cx="65" cy="55" fill="#d8faff" rx="20" ry="35"/><ellipse cx="13" cy="30" fill="#260900" rx="27" ry="45"/><ellipse cx="102" cy="185" fill="#a69f8d" rx="91" ry="32"/><path fill="#00001d" d="M67 123h35v29H67z"/><circle cx="149" cy="80" r="28" fill="#bb7e54"/><path d="M69.8 94l-24.3-4.5-2.4 65.4-5.3 14.8z"/><circle r="1" fill="#004373" transform="matrix(6.2592 -11.8602 19.69118 10.392 124.8 156)"/><ellipse cx="87" cy="238" fill="#fffdef" rx="67" ry="21"/><circle r="1" fill="#ccc8bc" transform="matrix(17.03156 -34.6127 9.8103 4.82726 82.4 91.2)"/><circle r="1" fill="#543b0e" transform="matrix(19.6129 18.62866 -16.50935 17.38162 0 177.4)"/><path fill="#310600" d="M78 212l2-39 14 38z"/><circle r="1" fill="#e5dcc6" transform="rotate(164.5 36.8 94.3) scale(7.08804 40.27692)"/><circle r="1" fill="#0d0f05" transform="matrix(-10.1394 26.14095 -154.72338 -60.01324 115 0)"/><circle r="1" fill="#974c2a" transform="matrix(28.33524 -27.76164 21.70846 22.157 11.9 78.2)"/><path fill="#e4eee9" d="M121.9 192.9l-13.3-26.3 76.4 26.3-18.7-32.2z"/><circle r="1" fill="#1b0900" transform="rotate(176 31.4 5.5) scale(7.70244 28.55739)"/><path fill="#331f31" d="M33 208h76v5H33z"/><path fill="#2a1a10" d="M103.7 105.7l-14-7.8 28.6-51.6 14 7.8z"/><path fill="#240200" d="M116 191h9v24h-9z"/><path fill="#e6f6fa" d="M70.2 63.1l-12.6-9.8 22.2-28.4 12.6 9.8z"/><path fill="#463715" d="M185 241l-92 21 87 9z"/><path fill="#ffffef" d="M33 194h48v11H33z"/><path fill="#6f4933" d="M82 62l84-11-59-38z"/><path fill="#000008" d="M111.3 144.7l-12.7-29-11.1 13.5 9.1 27z"/><path fill="#d8e9ee" d="M81 42.1l-7 16.6L39 44l7-16.6z"/><path fill="#eef3f0" d="M130 173.1l7.2 29.9-11.9-.1-10.4-31.6z"/><circle r="1" fill="#e4dac5" transform="matrix(5.13789 22.88694 -45.72645 10.26513 159 223.6)"/><path fill="#001e32" d="M144 160l-10 29 10-10z"/><path fill="#d8c5a1" d="M128 137l-15 9-9-28z"/><path fill="#a4865c" d="M23.9 196.2l-5.7-80.8 22-1.6 5.6 80.8z"/><path fill="#d3d2c3" d="M101 166l-21.6 7.9L73 156l21.7-7.9z"/><path fill="#c1d7d7" d="M42 85.2L48.6 58 68 62.8 61.3 90z"/><path fill="#004777" d="M116 191l-7-33-4 23z"/><circle r="1" fill="#a37a5d" transform="matrix(-24.60522 11.30184 -10.00217 -21.77571 141.6 86.1)"/><path fill="#092936" d="M64 122h23v31H64z"/><circle r="1" fill="#221f11" transform="matrix(9.6661 23.23347 -31.63985 13.1635 14.7 24.2)"/><path fill="#f6f3e6" d="M143 115h23v44h-23z"/><path fill="#270c00" d="M75 171l11 4 1 27z"/><ellipse cx="96" cy="182" fill="#dcccb5" rx="10" ry="28"/><ellipse cx="111" cy="103" fill="#fff" rx="5" ry="6"/><path fill="#ebc8a2" d="M41.2 174.3l30.4 5.9-7.9-9.3-3.3-8.1z"/><path fill="#49372d" d="M134 122l-23-12 20 40z"/><path fill="#090b00" d="M-3.7 166.1l1.2-9.7-3.7 22.8 31.6-11.9z"/><path fill="#633b1b" d="M68.6 131.9l1.8 43.6-32.3-42.1 10.4 31.8z"/><path fill="#815339" d="M-16 119l65-75-8 71z"/><path fill="#002c54" d="M140.9 170.5l-19.8 2.8-2-13.8 19.8-2.8z"/><path fill="#efebd7" d="M11.3 128.1l22.2-1.8-3.3 2.1-43.5 6.2z"/><ellipse cx="64" cy="237" fill="#ece6d9" rx="93" ry="24"/><path fill="#6d5e4c" d="M93.4 75.5l-4.8 10.2 59.1 32-50.4-42.5z"/><path fill="#5b2f19" d="M80 45h27L90 60z"/><path fill="#cfcdbf" d="M71.9 123.4l19.5.8-31.4-7.9 16.4-29.8z"/><path fill="#1f1a1f" d="M72.7 92.7l-4.5 5-26 68.9 2.2-80.8z"/><circle r="1" fill="#040000" transform="matrix(-1.51092 -30.95263 10.4704 -.5111 169 27.5)"/><path fill="#fff" d="M120.3 187.5l5.9-6 15.8-8.8-32.3 1.8z"/><path fill="#140c39" d="M40 207h20v5H40z"/><path fill="#c7e6e5" d="M86.7 28.2L98.2 42l-6.9 5.8L79.8 34z"/><path fill="#6e5647" d="M129.4 206.4l.7 3.9-27.5 5.3-.7-3.9z"/><ellipse cx="161" cy="221" fill="#6d6955" rx="21" ry="2"/><circle r="1" fill="#806638" transform="matrix(-12.18584 1.50907 -.27794 -2.24436 168.8 160.4)"/><path fill="#c0a792" d="M127.2 108.8l-8.5-30 8.7-13.1 5.5 39.1z"/><path fill="#e5ebe6" d="M58 62h43v8H58z"/><ellipse cx="125" cy="56" fill="#2d2418" rx="19" ry="9"/><path fill="#cbbeae" d="M112.5 96.2l-32.6 14.4-1.4-16.4 41.6 22.3z"/><path fill="#b19977" d="M42 181.2l7 12.5 61.2-47-2.4 12.5z"/><path fill="#a2694d" d="M4 68h42v35H4z"/><path fill="#8a5e41" d="M150 53.7l-15.6 36.8-10.8-52.2-39.5 6.9z"/><circle r="1" fill="#463926" transform="matrix(-33.18723 -1.44899 .21982 -5.03481 17 109.6)"/><path fill="#f1eedd" d="M44 117.4l-39.8 4.2-.1-1 39.7-4.2z"/><path fill="#553522" d="M115.1 188.5l-3.1.2 8 18.7 13.3-.8z"/><path fill="#f2e6cb" d="M150 172l-6-10h41z"/><path fill="#f3ecdb" d="M94.9 194l19.2 5.5-3 10.5-19.2-5.5z"/><circle r="1" fill="#f5e9d2" transform="matrix(.94399 -.32998 6.9581 19.90505 91.3 152.2)"/><circle cx="108" cy="83" r="6" fill="#0d0000"/><path fill="#989288" d="M105.3 125l7.3-15.5-20.8 16.9 4.4-12.7z"/><path fill="#5d3c28" d="M66 33l15-22-27 7z"/><circle r="1" fill="#a7987d" transform="matrix(-1.09412 8.57696 -13.41635 -1.71145 99.2 188.1)"/><path fill="#000b12" d="M103 122l-25 2 25 27z"/><path fill="#5a3321" d="M47 172l-13 1 16-31z"/><path fill="#4a3b28" d="M23 129h45v6H23z"/><path fill="#7a8d8d" d="M139 144l-47 18 20 2z"/><ellipse cx="52" cy="3" fill="#9b7256" rx="4" ry="26"/><circle r="1" fill="#f1e2ca" transform="matrix(-1.15907 -5.18036 26.08499 -5.83632 43.7 200)"/><path fill="#f6f7ec" d="M106 114l-2 11-1-6z"/><path fill="#907d5f" d="M144.5 184.1l26.9 26.2 2.4-14.6-2.6-4.7z"/><path fill="#401808" d="M90 109h23v6H90z"/><path fill="#a0947d" d="M131 125l7-14-28 22z"/><circle r="1" fill="#5f3722" transform="matrix(32.64994 18.47116 -3.17358 5.60968 12.2 41.3)"/><path fill="#20180b" d="M119.1 69.8l14.2-22.3 9.9 14.3-7.9-51.3z"/><path fill="#dee9ec" d="M43 33l12-7 13 41z"/><path fill="#eed3b6" d="M100.3 168.1L37.9 177l-.2-1 62.4-8.8z"/><path fill="#b99f73" d="M22 143l21 23-5-31z"/><path fill="#946b4d" d="M185 117.7l-31.3-13.8-13.8-52.4 8.3-13.3z"/><ellipse cx="14" cy="210" fill="#ceb58d" rx="21" ry="7"/><path fill="#00204c" d="M125 141l14 7h-26z"/><path fill="#a6b8b5" d="M106.2 82.5l-62-18.8 6.6 26.1L99.2 73z"/></g></g></svg>