<svg xmlns="http://www.w3.org/2000/svg" viewBox="0 0 1400 788"><defs/><filter id="a"><feGaussianBlur stdDeviation="12"/></filter><rect width="100%" height="100%" fill="#4e3a2e"/><g filter="url(#a)"><g fill-opacity=".5" transform="translate(2.7 2.7) scale(5.46875)"><circle cx="128" cy="29" r="130" fill="#c6d5c9"/><ellipse cx="59" cy="61" fill="#0e0500" rx="235" ry="12"/><circle r="1" fill="#fff" transform="matrix(3.15615 -29.61543 84.05946 8.9583 187.7 0)"/><circle r="1" fill="#d8ccb3" transform="matrix(-10.62705 23.4272 -63.89882 -28.98579 172.9 101.6)"/><circle r="1" transform="rotate(-28.4 248.3 -158.6) scale(65.07109 5.38143)"/><path fill="#492f14" d="M65.8 150.8l7.8-40.2 126.6 24.6-7.8 40.2z"/><circle r="1" fill="#fbfaf4" transform="matrix(-.77683 -9.98173 63.28789 -4.92537 20.5 37.5)"/><circle r="1" fill="#e5d3c5" transform="matrix(27.85975 -7.67385 4.17628 15.1619 86.2 81.7)"/><path fill="#131808" d="M37 46L3 88l146-44z"/><circle r="1" fill="#746852" transform="matrix(-164.54256 -70.16392 9.252 -21.69703 27.3 124.5)"/><path fill="#e6ddce" d="M95 118l143-27-80-22z"/><circle r="1" fill="#0d422e" transform="matrix(-28.29908 4.9899 -.71488 -4.05428 203.8 108)"/><circle r="1" fill="#222215" transform="matrix(12.99082 -41.64498 9.39656 2.93118 245.4 99.6)"/><path fill="#465b64" d="M29-16l104 49L2 11z"/><circle r="1" fill="#0e0700" transform="rotate(-113.7 83.6 17.3) scale(5.96407 39.66117)"/><ellipse cx="34" cy="118" fill="#1f1409" rx="29" ry="6"/><path fill="#f5dbbd" d="M226 132.3l-38.6-15-26.3 7.4 65.9 17.7z"/><circle r="1" fill="#f0f1e9" transform="rotate(104.6 87.5 69.4) scale(15.01718 62.93786)"/><path fill="#170a00" d="M211 64h39v10h-39z"/><circle r="1" fill="#ad9274" transform="matrix(2.69525 7.90354 -79.10525 26.97636 33.8 143)"/><path fill="#b6bcb4" d="M150 73h89v18h-89z"/><circle r="1" fill="#a6afac" transform="matrix(11.74536 23.15138 -15.4065 7.81616 251.8 46)"/><path fill="#a4aca6" d="M129-9l-69-5 146 91z"/><circle r="1" fill="#f2d8c8" transform="matrix(1.5567 -3.761 22.04367 9.12398 42 102)"/><path fill="#352d20" d="M8.9 159L135 115.3l9.2 9.7-49.6 16.9z"/><path fill="#99a8a2" d="M-3.1 136.1l15.8-17.9 11.2 9.4 22.5-5.4z"/><path fill="#003527" d="M148 120l32-10-13 10z"/><path fill="#458396" d="M-16 88l76-11-76 33z"/><path fill="#142010" d="M96.7 54.5l-43-10.3-2.2-2.4L-16 76.2z"/><path fill="#28332e" d="M160 57l-53-27 16 41z"/><path fill="#cfcfc6" d="M59 16l19 6-19 27z"/><path fill="#cacbbd" d="M165.3 37.9l-10.1 13.8 109.2-1-73.8-4.2z"/><path fill="#f5ddc0" d="M139.9 121.4l-17.7-12.3 53.4-.4-12 7.1z"/><path fill="#7f634c" d="M118 33l-8 33-53 21z"/><path fill="#cacdc5" d="M-10.3 55.7L-.8-16l4.6 31.6 49.8 22z"/><ellipse cx="73" cy="94" fill="#d6cfcc" rx="26" ry="7"/><path fill="#ebd5ba" d="M182 114.6l48.7-5.1 1.3 12-48.7 5z"/><path fill="#d9cfd1" d="M139 77l-25-6-15 23z"/><path fill="#617479" d="M105 31h110v12H105z"/><path fill="#2c384d" d="M139 106h-6l6-15z"/><path fill="#4e3c2a" d="M2 124l17-28 35 16z"/><path fill="#1a140a" d="M102.8 97.4l-44.1 14.8 43.6-.5 63.9-49.2z"/><path fill="#f3e2cc" d="M57 73l13 5 23-12z"/><path fill="#464b3a" d="M252.5 136.9l-39.6-51.1 57.6 68.8-75.7-38z"/><path fill="#b3a996" d="M13 70l3 7 25-7z"/><path fill="#061808" d="M17.3 47.5l4.5 3.3-1.6 17.8-36.2-7.4z"/><path fill="#251f13" d="M271 116l-35-7 13-58z"/><path fill="#66a3ae" d="M195 63h16v9h-16z"/><path fill="#0e0f09" d="M119.8 123.3l12.7-8.5-.6 4.9 29.3 11.2z"/><path fill="#e5d9c8" d="M109.2 117.4l-12.5-2.5 24.5-16.2 15.3 13z"/><ellipse cx="245" cy="138" fill="#5a5442" rx="20" ry="25"/><path fill="#385e65" d="M47 73L9 91l58-9z"/><path fill="#97a19d" d="M53.6 14.7l33.8 36.2 44.8-21.6-28.5 5z"/><ellipse cx="176" cy="58" fill="#422f1b" rx="63" ry="4"/><path fill="#3a2b1d" d="M213.9 53l.9 20.4 30.6 2.9L227 51.4z"/><path fill="#364448" d="M13-16L-16-2l76 13z"/><path fill="#e9d1b8" d="M206 97l27 15-21-21z"/><path fill="#b9bbae" d="M161.8 51.3l26.4-6.9-35.1-9.7-16.8 10.7z"/><path fill="#b3b7ab" d="M16 45l35-4-23 10z"/><circle r="1" fill="#867059" transform="rotate(-71.3 127 0) scale(3.54427 34.60849)"/><circle r="1" fill="#8a6f52" transform="matrix(-25.29465 -8.82928 1.4724 -4.21823 24.4 107.8)"/><path fill="#122110" d="M226 105l16 8-25-23z"/><path fill="#ae906f" d="M67.3 156.6L103 159l30.7-25.7-3-2.6z"/><ellipse cx="200" cy="81" fill="#abaea4" rx="39" ry="9"/><path fill="#7a5a36" d="M121.3 73.9L142 58 64.4 81.7l51.2-25.3z"/><path fill="#b3b8af" d="M238 36h18v20h-18z"/><circle r="1" fill="#313229" transform="matrix(-48.98755 -10.63204 .45844 -2.11228 166.8 132)"/><circle r="1" fill="#453222" transform="matrix(-74.17212 14.33886 -.47076 -2.43513 9.9 81.4)"/><path fill="#0f1d11" d="M234.4 132.2l-.8 1.8-24-10.2.8-1.8z"/><path fill="#7e8077" d="M137 88h16v7h-16z"/><path fill="#ead4ba" d="M138 92h62v12h-62z"/><path fill="#d7c4ae" d="M178.9 125.5l37.9-3.7 12.9 9.7-.1-19.5z"/><path fill="#4c616a" d="M187 38h39v8h-39z"/><path fill="#3a6b5b" d="M209.5 101.1l-61.3 18.8 9.4 4.3 37.4-14z"/><path fill="#d5c7af" d="M211.6 128.1l15.5 25.6-18.3-2 18.6-10.3z"/><path fill="#0e0b04" d="M32 117l-6 12 21-10z"/><circle r="1" fill="#515d5d" transform="matrix(24.64307 3.32812 -.35597 2.63576 137 32.4)"/><path fill="#e2d1b8" d="M134 116l21 10-16-22z"/><path fill="#694b30" d="M46.9 132.7l19-32.4 11.3 6.1L40.5 124z"/><circle r="1" fill="#383411" transform="matrix(2.92945 1.34934 -1.1601 2.5186 217.6 109.2)"/><ellipse cx="69" cy="50" fill="#171f0e" rx="12" ry="6"/><path fill="#969f9b" d="M69.6 15.3l50.5.6 130.3 20.2-56.6-4z"/><path fill="#322e25" d="M28.3 100.5l-13.4 19.6-30.9-10.3 59.2-2.3z"/><path fill="#b9bcb3" d="M233 107l7-32h-21z"/><path fill="#2a4958" d="M155.9 50.6L97.2 38.4l14.7 10.2 59.7 12.3z"/><path fill="#ffe5d1" d="M15 91h12v4H15z"/><ellipse cx="12" cy="127" fill="#9fa8a1" rx="13" ry="4"/><path fill="#625e58" d="M254.9 54.7l-16.4 4 2.3 15.2 16.4-11.8z"/><path fill="#835c37" d="M45.3 100.5l14.2-.2-28-9.1-2.7 1z"/><ellipse cx="30" cy="34" fill="#dfd9cf" rx="56" ry="5"/><path fill="#dac6ad" d="M171 116h37v15h-37z"/><circle r="1" fill="#e8dbc9" transform="matrix(14.93949 5.33345 -.58362 1.63478 51.3 103.5)"/><path fill="#725c3c" d="M175 50h16v21h-16z"/><path fill="#564330" d="M86 109l-1 12 27-20z"/><circle r="1" fill="#252019" transform="rotate(154.3 51.8 86.4) scale(31.83985 1)"/><path fill="#d9dcd4" d="M165 80l-8-9-30 21z"/><path fill="#d2c9b7" d="M88.7 65.6l7.5.1-6.3 5.5-23.7 6.6z"/><path fill="#686f60" d="M-6 52.6l16 21.9-4 2.9-16-21.9z"/><ellipse cx="228" cy="12" fill="#ddded6" rx="93" ry="10"/><path fill="#a2a69c" d="M38 38h47v6H38z"/></g></g></svg>