<svg xmlns="http://www.w3.org/2000/svg" viewBox="0 0 1400 2119"><defs/><filter id="a"><feGaussianBlur stdDeviation="12"/></filter><rect width="100%" height="100%" fill="#584633"/><g filter="url(#a)"><g fill-opacity=".5" transform="translate(4.1 4.1) scale(8.27734)"><circle cx="47" cy="162" r="169" fill="#fff"/><circle cx="48" cy="175" r="121" fill="#ffffe9"/><circle r="1" fill="#3d1800" transform="matrix(-22.61982 27.63142 -14.07884 -11.52532 86.5 187.3)"/><path fill="#260e00" d="M150-16L51 84l94-34z"/><circle r="1" fill="#ffffef" transform="matrix(-38.98948 119.28847 -15.81736 -5.16991 161.1 43)"/><path fill="#fffff9" d="M102.8 17.4L52.5 97.9 15.2 74.6 65.5-5.9z"/><circle r="1" fill="#000036" transform="rotate(147.5 -1.8 26.3) scale(48.90358 8.20169)"/><path d="M172 141l12-53-33 31z"/><circle r="1" fill="#fffcf3" transform="rotate(-44.9 200.3 -47.8) scale(93.14315 22.23441)"/><circle r="1" fill="#ffffe6" transform="rotate(-123.5 16.7 -4.7) scale(21.13307 48.73951)"/><path fill="#fefaf4" d="M133 157l-72-57 29-42z"/><path fill="#3c200b" d="M93.6 176.1l90.4-40.4-66.4 38-21.4 19.2z"/><path fill="#553c28" d="M155.7-16L89 40.7 97.1 83l47.4-38.5z"/><circle r="1" fill="#f7eede" transform="matrix(-30.59098 78.91978 -21.75445 -8.43249 33 100)"/><path fill="#5b5836" d="M174.8 207.3l-10.4 4 12.7-16-57.1 48.9z"/><path fill="#475115" d="M55.9 110.1l2-10.3 9.8-26.9 31.5-39.6z"/><path fill="#000047" d="M153-2L68 9l53-25z"/><path fill="#f9f2df" d="M81.2 9.3L39.5 87.9l98-92.1L127 3.5z"/><circle r="1" fill="#f5ebd8" transform="rotate(-159.5 80 29.6) scale(35.0141 18.21121)"/><path fill="#2e2e00" d="M22.9 169.3L12 179.7l-28 28 2.2 9.9z"/><path fill="#001a4e" d="M54 22l-70 28 3 25z"/><circle r="1" fill="#f4ece0" transform="matrix(12.8963 -58.17147 17.15313 3.80276 44.9 196.5)"/><path fill="#161d28" d="M124.4 54.8l1.1 1.7 22.6-22.7-11.6 29.9z"/><circle cx="168" cy="120" r="14"/><circle r="1" fill="#e4d8ba" transform="rotate(-57.7 298.2 -34.3) scale(54.81374 16.10798)"/><path fill="#34421a" d="M47.3 143.5l7.8-10.7 5.1-24.4-12.3 33.1z"/><ellipse cx="168" cy="51" fill="#e4d1b5" rx="19" ry="53"/><circle r="1" fill="#a08167" transform="rotate(-72.8 167.8 49.6) scale(29.99251 9.60348)"/><path fill="#f0ebe1" d="M91.3 52.6l16.9 59.9 21.9 48.4-77.8-23z"/><path fill="#546186" d="M55.2 16.6l24-10.4-50.8 38.1-21.9 6.4z"/><circle r="1" fill="#f1e8db" transform="matrix(41.40177 -8.55577 3.47322 16.80707 82.2 238.2)"/><path fill="#151912" d="M154 21.5l-9.3 16.1-5.7-23.9-4.9-20.3z"/><path fill="#66432a" d="M184 131.4l-8.9 2.7-45.2 28.6 36.4-15.2z"/><path fill="#7c5942" d="M87.1 50.7l13.2 27.5 41.5-35.1-29.1-10.3z"/><path fill="#2f3419" d="M134.5 234l30.3-25.2 18.9 13 .3-21.6z"/><path fill="#ebe3d4" d="M67 76L53.4 30.4-3.9 70.3l35.7 96.2z"/><path fill="#53402a" d="M85.5 65.3l-3.8-14.4 22.4-21.2L184-16z"/><path fill="#ece5d9" d="M165.5 84.8l-24.4 70.9-24.6-8.5 24.4-70.9z"/><path fill="#4b402d" d="M88 209l11-54 16 13z"/><circle r="1" fill="#efe9dd" transform="rotate(11.1 -976.7 287.5) scale(25.44046 30.09849)"/><circle cx="109" cy="206" r="15" fill="#e7d8c5"/><path fill="#69754d" d="M60.5 107.4l2.7 5.8-7.3-12.8.9 23.2z"/><path fill="#eee9de" d="M170.9 138.7L59.9 101l9.6 38.2 47.1 26.3z"/><circle r="1" fill="#eee3d3" transform="matrix(42.77357 -13.27278 2.46406 7.9408 152.2 167.4)"/><circle r="1" fill="#e7dbc8" transform="matrix(-4.40965 -7.94069 52.38671 -29.09157 70.3 0)"/><path fill="#cfbca1" d="M148.7 27.1l-14.8 50.6 36.5-24.6 13.6-39z"/><path fill="#957a64" d="M58.4 216.7l-2 8.1 17-7.1-2.1-54.3z"/><path fill="#12315b" d="M116.6-1.1L63.7 14.1l-.3-1 52.9-15.2z"/><path fill="#e5dccb" d="M121.8 4.3l5.2 1.6-58.7 52.8L89.7 6z"/><path fill="#cfbfa7" d="M160.7 174.2l-50.2 81 56.2-49.7 17.3 24.3z"/><path fill="#262711" d="M108 189l-15 5 17-21z"/><path fill="#393a15" d="M17.8 172.6l.8.6-28.4 36.2-.8-.6z"/><path fill="#0e2943" d="M154 7l-46-9 70-14z"/><circle r="1" fill="#102640" transform="rotate(-117.3 19.7 22.2) scale(9.19568 18.5122)"/><path fill="#ece6db" d="M163.9 105.8l-60.4 56.6-10-70.1 33-35.5z"/><path fill="#0b1529" d="M130.6 57.4l6.7-13.5 5.2 3.1-4.4 15z"/><circle r="1" fill="#b1b5a4" transform="matrix(-3.19152 .25118 -.15777 -2.00472 134.2 5.5)"/><path fill="#f1ede2" d="M75 75l46 64-29-79z"/><path fill="#b4a990" d="M172.1 207l-82.8 63.1 43.2-37.2 16 11.6z"/><path fill="#424e1a" d="M66 87.8l-3.1-2.5L88 54.2l3.1 2.5z"/><path fill="#dfe0d5" d="M166 147h3v103h-3z"/><path fill="#efeadd" d="M69.3-16L21.5 170.8l23-27.5 10.3-22.6z"/><path fill="#765841" d="M102.6 180.4l22.2-17.9 50.9-27.3 8.3.8z"/><path fill="#bfaf99" d="M150.9 4.3L148.5-16 184 22.1 179.3-16z"/><ellipse cx="86" cy="109" fill="#f0ede5" rx="27" ry="30"/><path fill="#755846" d="M97 46.2l2.5 36 20.1-25.3 8.1-36.8z"/><circle cx="158" cy="15" r="7" fill="#d9cab2"/><path fill="#6c6e4c" d="M49 136l-2 8-6 6z"/><path fill="#4b577a" d="M2.6 44.2l68.7-34-3.2 1.7-26 22z"/><path fill="#c9b9a2" d="M56.7 224.7l32.4-17 23-6.5-25.2 21.4z"/><circle r="1" fill="#563b26" transform="rotate(38.3 8.5 170.6) scale(3.44491 28.30165)"/><circle r="1" fill="#ebe7d9" transform="matrix(-17.81671 -9.35398 14.68252 -27.96609 63.8 43.7)"/><circle r="1" fill="#deceb7" transform="matrix(24.13056 -14.15732 31.59353 53.84987 13 250.7)"/><path fill="#897057" d="M150.7 118.8l4.1 9.1.6.1 28.6 23.7z"/><path fill="#ece6da" d="M12 194l41 35L89 85z"/><path fill="#05284e" d="M83.9 7.5l21.9-2.7 45-4.5-49-16.3z"/><path fill="#957a62" d="M91 162.2l11.7 22L77 197.8l-11.8-22z"/><path fill="#4d5432" d="M88 271l25-21-8 15z"/><circle r="1" fill="#e9e2d3" transform="matrix(-16.0324 34.07058 -21.95254 -10.33008 41 72)"/><path fill="#e2d7c5" d="M92.7 271L184 134.9l-63.8 48.6-23.5 13z"/><path fill="#505a2c" d="M68 83.2l-11 20.1-1-.5 11.2-20.1z"/><path fill="#e2d3c0" d="M4-16l-20 66 56-27z"/><path fill="#1b1b0f" d="M184 87.5l-24.2 25.2-5.6 13.8 29.8 7.6z"/><path fill="#987e67" d="M58.8 225.1l-.1-14.6 27.9-48.9 6.3 43.1z"/><path fill="#24230e" d="M164.4 207.6l-1.3 12.2.9-8.7-11.7 8.7z"/><path fill="#e8e1d2" d="M117.8 142.9l-7.1 29.1 51.6-39.6-28.1-17.9z"/><path fill="#291f11" d="M137 5l18-3-15 32z"/><path fill="#e5dece" d="M184 83.3l-36.7-25-29.7 16.4 46.5 30.4z"/><path fill="#efebe2" d="M126.5 138.7l-8-59.5-33.6.9-22.4 97.6z"/><path fill="#35471e" d="M57 103h2v14h-2z"/><path fill="#e4d7c5" d="M45.4 37.5L-16 77.2v167L38.2 42.6z"/><circle r="1" fill="#e0d4c0" transform="rotate(-90.4 85.3 82.5) scale(13.7438 14.68686)"/><path fill="#232118" d="M154 116h14v11h-14z"/><path fill="#eae5da" d="M56 221.6l62.6 49.4L7.8 215l61.4-48.5z"/><path fill="#ece6da" d="M114 79h39v62h-39z"/><path fill="#0f1901" d="M167 206.6l-7.3 9.4-.8-.6 7.4-9.4z"/><path fill="#30331c" d="M2 206l-14 16 3-19z"/><path fill="#5f5c2d" d="M97.3 38.8L72 73.6l-3.3-2.4L94 36.4z"/><path fill="#000c1a" d="M109 5l9-4-12-17z"/><circle r="1" fill="#0c182d" transform="rotate(93 39.3 94) scale(6.92871 1)"/></g></g></svg>