<svg xmlns="http://www.w3.org/2000/svg" viewBox="0 0 925 1400"><defs/><filter id="a"><feGaussianBlur stdDeviation="12"/></filter><rect width="100%" height="100%" fill="#594834"/><g filter="url(#a)"><g fill-opacity=".5" transform="translate(2.7 2.7) scale(5.46875)"><circle cx="46" cy="172" r="178" fill="#fff"/><circle r="1" fill="#fffde7" transform="matrix(-54.02073 -114.28174 92.14062 -43.55467 67.1 173.1)"/><circle r="1" fill="#3a1600" transform="matrix(-14.21526 -10.36595 19.16127 -26.27666 90 184.1)"/><circle r="1" fill="#2c0b00" transform="matrix(13.43861 15.8246 -31.93992 27.1241 117.6 40.3)"/><circle r="1" fill="ivory" transform="matrix(-19.18084 -7.55553 47.91467 -121.63847 167.9 37.5)"/><circle r="1" fill="#fff" transform="matrix(42.2679 -24.6005 8.03885 13.81212 70.5 33.6)"/><path fill="#00002a" d="M36.7 25.6l7.2 10.7-50.6 34.1-7.2-10.7z"/><ellipse cx="168" cy="120" rx="15" ry="14"/><path fill="#ffffe9" d="M101-7L-16 50V1z"/><circle r="1" fill="#fbf4e9" transform="rotate(157.5 28.8 68.1) scale(94.31011 35.85863)"/><path fill="#312f00" d="M52.7 114.6l24.6-40.8L124.7 11 72.5 63.3z"/><circle r="1" fill="#45210a" transform="matrix(1.43573 2.68436 -48.69744 26.04577 140.5 157.9)"/><path fill="#825c40" d="M68 171l13.7 3.2L70 225l-13.7-3.1z"/><path fill="#000200" d="M133.2 235.1l-.6-.8 54.2-39.4.6.8z"/><path fill="#2d251c" d="M136.8 64.4l10.9-35.1 4.9-45.3-40.4 38z"/><path fill="#00134d" d="M-13 75V47l64-22z"/><path fill="#fdf5e3" d="M21.5 125.9L61.8 14.6l71.7-9.2-26.3 12.9z"/><circle r="1" fill="#fbf5eb" transform="rotate(-82.2 133.6 74.7) scale(45.31504 20.18033)"/><path fill="#000851" d="M96.7-3.2L69.2 11.4 131.4 0l1.1-8.9z"/><path d="M-16 223l30-45-30 26z"/><path fill="#36451b" d="M62.5 89l-14 53.4 9.2-18.5 3.9-33.4z"/><path fill="#f8f6f0" d="M59.8 100.4l50.6 64L93.6 63.8l-2.9-4.7z"/><circle r="1" fill="#5d2f11" transform="matrix(-4.31346 -3.807 6.11298 -6.92623 104.7 71)"/><path d="M185 124.9l-17.4 13.5-16.6-21.3 17.4-13.5z"/><path fill="#e7decb" d="M101.9 30.5l26.7-26.9-13.4.9-75.3 33.3z"/><path fill="#e5d0b3" d="M160 103L184-7 152 8z"/><path fill="#3e3724" d="M94.7 172.4l-2.4 31.3 16.8-19.2 6.7-19z"/><circle r="1" fill="#efe7d8" transform="matrix(-63.56276 82.53793 -20.1891 -15.5477 23.6 93.6)"/><circle r="1" fill="#9c7f66" transform="matrix(-13.70717 -.27632 .48297 -23.95787 77.5 194.1)"/><ellipse cx="82" cy="238" fill="#f2e9dc" rx="37" ry="19"/><path fill="#000012" d="M135 63l9-23-14 15z"/><path fill="#eee6d8" d="M117 64h36v82h-36z"/><circle r="1" fill="#c9bba1" transform="rotate(-28.4 556.8 -174.2) scale(72.09718 17.49698)"/><path fill="#48511e" d="M93 56L65.9 86.9 63.2 77l19.7-22.4z"/><path fill="#292b07" d="M165 204l1.4 9.8-3.8-1.1-10.8 10.8z"/><path fill="#2c4276" d="M0 45l30 1 31-32z"/><ellipse cx="103" cy="205" fill="#e7d8c5" rx="9" ry="13"/><path fill="#f0ece2" d="M127 56L7 209l138-82z"/><path fill="#002758" d="M130.1-16l18.3 19.3-20.8.5L77 5.9z"/><path fill="#eee9df" d="M149.2 180.6l-12.9 4.6L91.9 58.3l-33.4 43.9z"/><path fill="#73523b" d="M127 15.6l19.6 22.7-41.5 36-19.7-22.6z"/><path fill="#efeadf" d="M93.7 152.8l14.5-27.4 22.1 11.8-14.5 27.4z"/><path fill="#38321b" d="M100 158l11 3-5 29z"/><path fill="#0a213a" d="M4.9 62.1l22.8-14.5-13.5-9.1L-16 51.2z"/><circle r="1" fill="#957c64" transform="rotate(107.6 -30.3 124.4) scale(27.46433 13.01971)"/><circle r="1" fill="#787b5e" transform="matrix(.84897 .52844 -11.47885 18.44154 52.1 134.2)"/><path fill="#c3af91" d="M162.3 46.3l15.9 27.5L155.9 14l-21.3 53.5z"/><path fill="#4f5683" d="M41 36l-16-1 39-22z"/><path fill="#150d04" d="M146.1 17.7l.5-3.6.4-3.2L177.8-16z"/><ellipse cx="168" cy="211" fill="#dbdccf" rx="3" ry="66"/><path fill="#e8dbc9" d="M184 136l-74 42-8 77z"/><circle r="1" fill="#ede5d7" transform="matrix(29.25918 -12.53707 8.52111 19.8867 36.4 78.7)"/><path fill="#e5d8c4" d="M32 47L4 188-10 71z"/><path fill="#d2c0a9" d="M175 197.1l-41.5 36.1L121 219l41.5-36.1z"/><circle r="1" fill="#765742" transform="rotate(62.6 -64.3 190.5) scale(2.56391 48.84906)"/><path fill="#e9e3d6" d="M112 170l72-97-70 2z"/><circle r="1" fill="#969169" transform="matrix(-.69545 -.71858 28.17503 -27.26824 16 176.3)"/><path fill="#90755f" d="M88 206l-21-25-11 43z"/><circle cx="134" cy="5" r="2" fill="#fffff7"/><path fill="#e7d9c7" d="M65-16L37 26-5 44z"/><ellipse cx="141" cy="136" fill="#eee5d7" rx="21" ry="12"/><path fill="#606d43" d="M57 92h3v21h-3z"/><path fill="#505b3a" d="M57.7 109.4l-7.2 30.7 7.3-19.2 1.5-21.8z"/><path fill="#7c7857" d="M85.9 273.2l89.6-75.2.6.8L86.5 274z"/><path fill="#ede9de" d="M121.9 161.1l24.3-11.5-29.1-71.9-14.3 82.4z"/><path fill="#1e1a0e" d="M179.1 113.1l2.3 6.7-26.5 9-2.3-6.6z"/><path fill="#e2d9c5" d="M128.7 3.9L97.2 32.6 74.7 59.7l17.4-52z"/><circle r="1" fill="#ece5d8" transform="matrix(11.09442 -25.4188 17.29504 7.54868 29.5 192.7)"/><path fill="#ede8dc" d="M39.9 149.4L69.6 65l34.1-40.5-89.2 70.7z"/><path fill="#3a3619" d="M.5 209.5l-.9-.4 1.9-4.6.9.4z"/><path fill="#553d25" d="M138.4 15.8l-10.5 7.7-8.3-11.3 10.5-7.7z"/><path fill="#775742" d="M139 42L99 79l-8-32z"/><path fill="#42471c" d="M70 77l10-22 7 7z"/><path fill="#262212" d="M142 32l-5-46 16 36z"/><path fill="#e9e2d1" d="M172 99l-35 22-10-64z"/><path fill="#c6bba5" d="M169 271l-26-41 32-26z"/><circle r="1" fill="#e3d6c2" transform="matrix(8.66326 -6.48094 22.13794 29.59239 23.7 226.2)"/><circle r="1" fill="#323500" transform="matrix(.85743 1.151 -9.27024 6.90582 1 193.2)"/><circle r="1" fill="#e9dbc9" transform="matrix(-16.6582 12.37047 -7.44219 -10.02173 55 4.3)"/><circle cx="152" r="2" fill="#fff"/><path fill="#cfc3ac" d="M122.6 60.1l9.8 16.9 1.7-19.6-39.9 30.1z"/><path fill="#556087" d="M21.9 43.9l.3-10.8 39.9-17.8-38.9 34.2z"/><path fill="#d4c6ae" d="M151 13l29-29-12 83z"/><circle r="1" fill="#efebe3" transform="matrix(-9.44081 27.57436 -26.09945 -8.93584 88.7 105.6)"/><path fill="#e9e5d9" d="M36.3 40.3l19.9-17.4 39.5 6.8-21.9 35.1z"/><path fill="#e3dacc" d="M107 269l64 2-49-32z"/><path fill="#03152d" d="M144 41l-17 15 11 2z"/><path fill="#efe9dc" d="M57 124l6 63L90 61z"/><circle r="1" fill="#5d472d" transform="matrix(3.52484 3.59644 -25.39644 24.89082 106.7 32)"/><path fill="#3c4b1b" d="M63.7 90.4l.8.6-8.2 12.6-.8-.6z"/><path fill="#dbcebb" d="M88 223l85-41-75 13z"/><path fill="#ece6d9" d="M103 102l65 36-55 29z"/><ellipse cx="35" cy="110" fill="#ede6d9" rx="22" ry="19"/><path fill="#d5ccbc" d="M75.2 12l61.6-10.1L57 37.6l46.8-20.7z"/><circle r="1" fill="#dccab1" transform="matrix(19.17667 37.4877 -20.89739 10.68997 0 244.7)"/><path fill="#000a2e" d="M146 0l-39 3 10-19z"/><path fill="#564733" d="M90 201l16-13-8-29z"/><circle r="1" fill="#cdc0a9" transform="rotate(-103.6 126 78.9) scale(4.66168 12.06754)"/><circle r="1" fill="#2c300f" transform="rotate(-128.5 130 72.7) scale(1 12.61918)"/><path fill="#e8decd" d="M14 59l34 2-8-23z"/></g></g></svg>