<svg xmlns="http://www.w3.org/2000/svg" viewBox="0 0 1400 2108"><defs/><filter id="a"><feGaussianBlur stdDeviation="12"/></filter><rect width="100%" height="100%" fill="#593c2c"/><g filter="url(#a)"><g fill-opacity=".5" transform="translate(4.1 4.1) scale(8.23438)"><circle r="1" fill="#e8f0e1" transform="rotate(-93.8 133.2 60.1) scale(169 103.93464)"/><ellipse cx="95" cy="239" fill="#fff" rx="169" ry="27"/><ellipse cx="17" cy="127" fill="#3a2a18" rx="103" ry="43"/><circle r="1" fill="#281503" transform="rotate(23.1 5 335.5) scale(28.93288 77.76646)"/><ellipse cx="158" cy="133" fill="#fff" rx="25" ry="27"/><path fill="#e3ffff" d="M50.8 82.5l-4.5-51.8 36.9-3.2 4.5 51.8z"/><circle r="1" fill="#023550" transform="matrix(-27.70356 -24.6097 10.5514 -11.87789 118.4 148)"/><ellipse cx="21" cy="67" fill="#7a2e0f" rx="25" ry="27"/><path fill="#bbbeb5" d="M66 63h32v61H66z"/><circle r="1" fill="#b77e57" transform="matrix(-35.77698 10.16237 -6.69742 -23.57852 150.5 84)"/><ellipse cx="56" cy="242" fill="#f1e8d9" rx="81" ry="50"/><ellipse cx="71" cy="210" fill="#392632" rx="46" ry="4"/><ellipse cx="169" cy="255" fill="#2c1900" rx="39" ry="8"/><path fill="#0b0900" d="M4.7-19.6l41.5 5.8-8.9 63.4-41.5-5.8z"/><path fill="#000001" d="M56.9 86.4l13.2 7-15 28.2-13.2-7z"/><circle r="1" fill="#543d11" transform="matrix(18.86725 -14.2692 15.16366 20.04995 .3 178.1)"/><path fill="#000b24" d="M66 123h39v29H66z"/><path fill="#2d0c00" d="M87.6 182.1L83 218.8 78.9 188l-8.5-23z"/><path fill="#f3ead4" d="M104.8 167.2l-20.9-36.5 4.7 26.1L102.9 271z"/><circle r="1" fill="#101106" transform="rotate(-161.6 61 -4.7) scale(96.48204 22.85041)"/><path fill="#fff" d="M132 205l-21-31 26-3z"/><path fill="#ffe3b3" d="M125 142.6l-12.4 4-5.6-17.2 12.4-4z"/><path fill="#21272d" d="M103 165.3l21.8 32.6 1.5 17.5-4.8.8z"/><ellipse cx="160" cy="156" fill="#eee6cd" rx="16" ry="31"/><path fill="#ab956c" d="M3 120l40-4-6 80z"/><circle r="1" fill="#eae1cd" transform="matrix(-8.8607 -21.25238 38.0656 -15.8706 148.2 225.8)"/><path fill="#462c1d" d="M147 35l-64 93 36-115z"/><path fill="#e3eade" d="M81 170l13-20-24 7z"/><path fill="#09020a" d="M45 90h8v63h-8z"/><path fill="#d5e8f1" d="M72.4 47.4L55.8 58.6l-16.2-24 16.6-11.2z"/><path fill="#a68e79" d="M85.2 77.5l30.2-49.2-13 46.7 14 80z"/><path fill="#20150d" d="M58 0h13v34H58z"/><path fill="#383733" d="M139 166l-22-47 14-6z"/><ellipse cx="149" cy="72" fill="#a06e4c" rx="13" ry="35"/><path fill="#734931" d="M83.7 65l40.8-17.8 6.2-11.1-24.1-29z"/><path fill="#cddddf" d="M99 40L60 65l12-45z"/><circle r="1" fill="#eeebe2" transform="matrix(65.42333 6.72003 -2.39315 23.29872 72.4 236.8)"/><path fill="#dddbcf" d="M60 120l15-1 2-41z"/><path fill="#432615" d="M76.4 180.9l7.4-12.5 6.6 41.8-6.6-4.1z"/><path fill="#b6c8c6" d="M47 62h54v28H47z"/><path fill="#003c69" d="M146.1 167.6l-41.3-2.7 1 12.2 23.8-27z"/><path fill="#5a4c3c" d="M91 76h11v47H91z"/><circle r="1" fill="#96593c" transform="matrix(24.33473 7.19866 -8.72596 29.49768 20.2 79.4)"/><path fill="#553525" d="M118.3 189.7l10.4 17.4-41.1 5.6 32.4 1.4z"/><circle r="1" fill="#a88660" transform="matrix(27.7553 -10.45645 5.42064 14.38841 38.1 179)"/><path fill="#583c29" d="M79.9 47.5l9-7.9 11.2 12.9-9 7.9z"/><circle r="1" fill="#264f56" transform="matrix(-3.55666 -2.01699 5.71095 -10.07041 138.6 181.6)"/><path fill="#f6eeda" d="M117.2 201.6l-31.6-10.3 13.1 17.1 12.3 2.9z"/><ellipse cx="150" cy="126" fill="#f0f1e7" rx="15" ry="20"/><circle cx="110" cy="104" r="6" fill="#fff"/><path fill="#080400" d="M138-1l28-13.6L198 51l-28 13.6z"/><ellipse cx="54" cy="199" fill="#fff7e2" rx="26" ry="6"/><path fill="#b4a391" d="M129 63l-13 18 15 48z"/><path fill="#000100" d="M22 167l-38-1v15z"/><path fill="#091626" d="M71.5 89.4l-.4 1.9-18.5 42.6-7.3-45.7z"/><path fill="#fdffff" d="M112 173h24v10h-24z"/><path fill="#f1e3c8" d="M48 163h14v11H48z"/><path fill="#faf8ee" d="M-13.3 132.1l58.5-7.2.1 1-58.5 7.2z"/><path fill="#271a11" d="M108 53l-8 49 39-61z"/><path fill="#5d3017" d="M62 142h8v29h-8z"/><ellipse cx="165" cy="221" fill="#6c6752" rx="27" ry="2"/><circle r="1" fill="#513b2a" transform="matrix(9.1758 -23.65663 5.24677 2.03509 72.4 13.4)"/><path fill="#00070a" d="M99.1 156.5l10.4-17.2-9.4-18.6-15 10.7z"/><path fill="#ded2bc" d="M88 137v53l10-33z"/><path fill="#00154b" d="M134 142l-18 1-6 11z"/><path fill="#beb3a3" d="M70.8 109.7l20.8-3.8 3.7-46.3-22.1 18.8z"/><path fill="#361402" d="M42 130v32l16-44z"/><path fill="#7f5739" d="M181.9 114.3l-6.6 6.1L154 97.7l6.6-6.1z"/><circle r="1" fill="#342a16" transform="matrix(10.66212 30.44624 -10.28788 3.60277 91 10)"/><path fill="#68402c" d="M43.9 71.2L-16 64 3.6 32.2l43.7 22.9z"/><path fill="#ede8d3" d="M106 129l2-15-5 4z"/><path fill="#766856" d="M119.8 90l25.5 27.5-57-33.7-4.7-5.3z"/><path fill="#d8e2e2" d="M41.5 33.6l35.7 44 5.7-14-26.8-38.5z"/><path fill="#ded6bf" d="M136 143.4l10.5 22 16.1 20.2-27.4-74.8z"/><path fill="#806d48" d="M171.1 162.2l-27.4 1.2 33.8-7.8 7.5 7.3z"/><path fill="#261f44" d="M37 208h34v4H37z"/><path fill="#001f3c" d="M72 124h14v29H72z"/><path fill="#dbd0ba" d="M38 196l-54 10 26 65z"/><path fill="#e5e2d6" d="M42.6 119.5l-29 2-.2-3 29-2z"/><path fill="#856b4b" d="M63.9 144.3l-13.6 25-19.1 11.2L63.7 118z"/><path fill="#5a492a" d="M182 254.6l-23.6 4.6-2.3-11.8 23.5-4.6z"/><path fill="#4b3527" d="M77 110h35v6H77z"/><path fill="#005484" d="M106.6 184.9l3.6-34.3.4 27.7.6 8.4z"/><path fill="#7a6141" d="M18 162h91v2H18z"/><path fill="#a6694a" d="M0 81h44v24H0z"/><path fill="#004568" d="M125 154l-6 18 29-2z"/><path fill="#dfe5e0" d="M91.5 73.6L60.7 51.2 41.8 72.5l61.7-11.1z"/><ellipse cx="8" cy="110" fill="#4d321b" rx="38" ry="5"/><path fill="#050600" d="M43.3 30.9L-16 19.4 12.6.9l4.8 13.9z"/><path fill="#73513a" d="M68.8-16L46 30.2l25.6-8.7L-16-14.4z"/><ellipse cx="59" cy="83" fill="#9dc5cd" rx="13" ry="7"/><path fill="#bfbeb0" d="M70 170l14 3 8-25z"/><path fill="#303729" d="M34.6 124.5l-32.8 4-.4-3 32.8-4z"/><path d="M55 5.3l19-1.6 1 11-19 1.6z"/><path fill="#3e3226" d="M55 125l1.3 5.8-29.3 6.3-1.3-6z"/><path fill="#c0bba2" d="M103 149.7l5-.4 1 13-5 .4z"/><path fill="#b27150" d="M106 49l21-8-14-6z"/><path fill="#f6fbf7" d="M123 188l20-19-28 11z"/><path fill="#a5957b" d="M129.6 124.2l-28.1-2.2 8.6 10.1 31.3-8z"/><circle r="1" fill="#dcece9" transform="rotate(-53.3 74 -65.9) scale(2.62292 13.66903)"/></g></g></svg>