<svg xmlns="http://www.w3.org/2000/svg" viewBox="0 0 1400 930"><defs/><filter id="a"><feGaussianBlur stdDeviation="12"/></filter><rect width="100%" height="100%" fill="#533e2b"/><g filter="url(#a)"><g fill-opacity=".5" transform="translate(2.7 2.7) scale(5.46875)"><circle r="1" fill="#ede9e7" transform="matrix(101.6428 31.617 -47.87817 153.91941 153 42.3)"/><path fill="#fffff6" d="M124 151l104-7-99-115z"/><circle r="1" fill="#3d2a22" transform="matrix(47.83307 184.02094 -17.26462 4.48764 214 43.4)"/><ellipse cx="115" fill="#40322c" rx="102" ry="29"/><circle r="1" fill="#fffbed" transform="rotate(149 31.4 38.7) scale(34.01094 26.20052)"/><circle r="1" fill="#000507" transform="matrix(-15.20585 -36.42366 6.64636 -2.77467 74.4 136.6)"/><path fill="#fff" d="M169 41h27l18 81z"/><ellipse cx="177" cy="165" fill="#50433f" rx="150" ry="13"/><path fill="#fff6e1" d="M70 108l20 45 47-67z"/><path fill="#2b413a" d="M61.2 113l68.2-76 3.3 10.1-8.5 25.2z"/><path fill="#3c1e19" d="M162.2 83.1L145 67.7 163.8 47 181 62.3z"/><ellipse cx="30" cy="116" fill="#404146" rx="21" ry="88"/><ellipse cx="255" cy="97" fill="#d4b9a7" rx="13" ry="26"/><ellipse cx="152" cy="103" fill="#fcebda" rx="45" ry="24"/><path fill="#57544e" d="M218 129l-24 7-17-33z"/><path fill="#e7d7cc" d="M104 73l22-40-90-9z"/><path d="M72 50l-6 5-20-14z"/><path fill="#4d312b" d="M112.3 33.5l3.1 39.7 16.9-25.1-43 2z"/><path fill="#ded4c9" d="M48.4 72.2l7.4 85.7 96.6-6.9-90.6-4.7z"/><path fill="#281308" d="M242 78l-11-42 17 27z"/><path fill="#ecd7c4" d="M136 35h23v55h-23z"/><path fill="#fed" d="M68 54l-1 49-20-23z"/><path fill="#3b5446" d="M113 84l-25 26-23-27z"/><path fill="#69463d" d="M120 117v26h-14v-26z"/><path fill="#1b1c19" d="M78 140.7L32.5 65.3l3.5-2 45.3 75.4z"/><path fill="#242629" d="M3-16l30 175-49-13z"/><ellipse cx="161" cy="125" fill="#fbe9d9" rx="29" ry="21"/><path fill="#5b4f46" d="M146 152l123-8-119 41z"/><ellipse cx="33" cy="59" fill="#645c58" rx="13" ry="38"/><path fill="#000c56" d="M193.8 90.9l-3.3 2.2-16.3-24 3.3-2.2z"/><path fill="#e4dbd0" d="M41.4 25l1.9 16.1 23.4 2.3L183 37.7z"/><path fill="#f7e9db" d="M157.9 86.5l58.9 19.2-43-81.9L207.7 125z"/><path fill="#5b5146" d="M170.8 19.3l-64.4-3.1 7.7 12.3L160 37z"/><path fill="#451a08" d="M158 65h15v16h-15z"/><path fill="#070000" d="M205.2 42.3l-14 .4-.4-11 14-.4z"/><path fill="#688170" d="M97.4 67.4L76.6 88.1 131.9 77l12.5 15.7z"/><path fill="#9d9590" d="M79.7 185l-27.5-40.2-3.4 8.1 6.1 17z"/><path fill="#b5a9a9" d="M192.4 23.4l-7.8 25.2-25.3-.8 24.9-37.3z"/><ellipse cx="236" cy="125" fill="#4f423b" rx="18" ry="27"/><circle r="1" fill="#b69b87" transform="matrix(-19.97217 11.07075 -24.15764 -43.58153 243.7 14.2)"/><path fill="#f3e8dc" d="M45.6 59.7l18.1 11.4 15.1 22.4 22.9-43.4z"/><ellipse cx="116" cy="101" fill="#936d5c" rx="2" ry="56"/><path fill="#0a150a" d="M41 47l25 1-17-6z"/><path fill="#1a2022" d="M38.2 26.2L18.4 38.1-2.2 3.8 17.6-8.1z"/><path fill="#00000a" d="M186.9 128.1l.2-1 22 6.8-.2 1z"/><path fill="#000809" d="M83 140l-14 6-7-46z"/><circle cx="124" cy="48" r="6"/><path fill="#383411" d="M171.7 104.6l32.2 20.5-11.3-10.6-12.3-7.9z"/><path fill="#f1e2d5" d="M109.2 123.7l14.5-46.4 23.8 20.3-62.8 4z"/><path fill="#000035" d="M207 114h3v17h-3z"/><path fill="#faf0e5" d="M174 73l-6 23 36 15z"/><path fill="#60504b" d="M163.9 40.6l-46.6 19.5-6.7-13.2 41.8 4.4z"/><path fill="#e8dcd0" d="M206.2 132.7l7.4-10.6 6.3 11.3-86-35.4z"/><path fill="#ecd6c1" d="M62.4 94l43.4 31.9-.9 29.4-17.5-10.4z"/><path fill="#1d1204" d="M78 100.5l-12-16 4-3 12 16z"/><path fill="#f9f2e9" d="M137.9 85.2l-15-26 11.2-6.4 15 26z"/><ellipse cx="41" cy="142" fill="#5a4d46" rx="11" ry="82"/><path fill="#060300" d="M75 97.2l.6-.7L99 116.8l-.6.7z"/><path fill="#f0dbc2" d="M57 144l1-32 12 38z"/><path fill="#fff8e9" d="M112.8 54.8l3 6.3-12.6 6.1-3-6.3z"/><path fill="#67483c" d="M90 42h25v6H90z"/><path fill="#776963" d="M142.3 70.3l22.3-5.2 8.1-25.3 5.2 4.3z"/><path fill="#aa9d92" d="M116.5 185l2.8-5-21.1-24.9 29.3-2.4z"/><path fill="linen" d="M136 145l-20-42 30-8z"/><circle r="1" fill="#5b5250" transform="matrix(22.46344 -22.07476 11.44965 11.65125 57.2 .2)"/><path fill="#e5d4c5" d="M224 145l-42 4-39-38z"/><path fill="#dedede" d="M166.7 39.3L133 46.2 114.7 33l8.6-1.8z"/><path fill="#5d524d" d="M99.9 185l-48.8-28.7 38.8-2.4 35.3 30.8z"/><ellipse cx="255" cy="89" fill="#ba9d8a" rx="14" ry="21"/><path fill="#759a8f" d="M114 65L79 93l-2-13z"/><circle r="1" fill="#5c514f" transform="matrix(-2.16087 -16.195 44.99645 -6.0038 0 55.4)"/><path fill="#5b493e" d="M166 0h15v27h-15z"/><path fill="#4d4025" d="M131.8 77.9l-7.6 3.2 14.2 6.6-4.2-3.3z"/><path fill="#f8eada" d="M171 48l23-4 23 81z"/><path fill="#eadfd6" d="M206.9 120.1l-4.5-17.4-11.1-5.4 13.8 35.2z"/><path fill="#cabebc" d="M161 32l30 13 1-24z"/><path fill="#635044" d="M238.6 40.8l5.9 18.6-7.8 101.8-38.9-148.3z"/><path fill="#84655b" d="M125.9 121.6L122 150l-18.1.2 6.5-32.1z"/><circle r="1" fill="#253e69" transform="matrix(2.9153 10.56049 -2.23905 .6181 178.4 66.6)"/><path fill="#eee1d4" d="M103 66L86 31 48 90z"/><path fill="#000d39" d="M208 118h3v15h-3z"/><path fill="#312727" d="M107 37l11 10-15-3z"/><path fill="#836d59" d="M271 34.8L252.4 3.9 244.6-16 232.9.5z"/><path fill="#334a43" d="M66.7 106.1l63.2-53-3.9 7.8-35.4 34.9z"/><path fill="#0f0d00" d="M188.1 114.9l2.2-2L200 123l-2.2 2z"/><path fill="#b8a397" d="M224 27l-1-43 48 92z"/><path fill="#e1d1c4" d="M89 108.7l-38.9-60-2.8 26.6L77 78.1z"/><path fill="#d6d3ce" d="M159 52l-9 6 16 2z"/><path fill="#eeece7" d="M133.4 47l2 .6-12.8 47.3-2-.5z"/><circle r="1" fill="#cec7bf" transform="matrix(9.55415 -.19911 .06858 3.2905 79.9 150)"/><path fill="#431005" d="M150 49.6l4.8 1-.7 3.8-5-1z"/><path fill="#363a2f" d="M46.3 45l17.8 9.4 10.3-4.1-20.7-6z"/><path fill="#3b4147" d="M165 67l9-8-17-24z"/><path fill="#c3ac9a" d="M60 185l9-20-11-4z"/><path fill="#10130f" d="M59 99.4l-4.4 2.3-3.6-7.1 4.4-2.3z"/><path fill="#091d46" d="M188 125l13 5-13 1z"/><path fill="#ded1c4" d="M47 48.1l32.4 10-34.3 24.5 24.6 26.3z"/><path fill="#d8c9b9" d="M80.7 51.7l-33.6-8.4-6.2-22.4 16.4 17.7z"/><circle r="1" fill="#e0d5cd" transform="matrix(-.72567 -3.03143 27.71954 -6.63559 131.4 148.4)"/><path fill="#6d5f57" d="M163.7 178.4l-2.2-25.9 56.8-5 2.2 26z"/></g></g></svg>