<svg xmlns="http://www.w3.org/2000/svg" viewBox="0 0 1400 788"><defs/><filter id="a"><feGaussianBlur stdDeviation="12"/></filter><rect width="100%" height="100%" fill="#6f5136"/><g filter="url(#a)"><g fill-opacity=".5" transform="translate(2.7 2.7) scale(5.46875)"><path fill="ivory" d="M231 131l-247 20L96-16z"/><circle r="1" fill="#a39c8f" transform="matrix(-100.09468 -95.65255 22.5795 -23.6281 188.6 40.4)"/><circle r="1" fill="#f8f0e1" transform="rotate(129.7 21.5 88.8) scale(83.63103 39.50274)"/><path fill="#b17242" d="M142.2 22.9L29 75.7-.2 13 113-39.7z"/><circle r="1" fill="#001d3a" transform="matrix(15.38202 9.13749 -13.84384 23.30467 193 59.4)"/><path fill="#fff4d3" d="M183 82l88 6-26 19z"/><path fill="#3a240e" d="M153 7l29 11-79 56z"/><path fill="#482915" d="M174.1 135.3l-17-1L187 16.9l-6.2 71.5z"/><path fill="#fff" d="M167 35.5l12.8 2.5-4.8 24.5-12.8-2.5z"/><path fill="#241b00" d="M38 107l37 13-57 1z"/><circle r="1" fill="#c7c19c" transform="matrix(11.69981 27.92757 -17.59275 7.3702 50.4 67.4)"/><path fill="#ded7cd" d="M198.4 30.3l18.3.3-38.9-45.2-32.4-1.4z"/><path fill="#e8e3d9" d="M22.8 118l33.8-25.7-72.6 28L81.4 159z"/><path fill="#614d18" d="M62.6 21.2l38-1.4.8 23-38 1.4z"/><ellipse cx="64" cy="134" fill="#eef0f0" rx="58" ry="12"/><path fill="#fff" d="M129.1 37.5l-12.8-2-11.2 7.1 3 22.9z"/><circle r="1" fill="#3e2409" transform="matrix(-.18284 4.5805 -50.52476 -2.0168 243.6 110.6)"/><circle r="1" fill="#f4f3ec" transform="matrix(12.50822 -1.73566 .62872 4.53097 246.7 122.3)"/><path fill="#faecd5" d="M201 127l-14-54-11 45z"/><ellipse cx="253" cy="28" fill="#3e2813" rx="21" ry="44"/><path fill="#00202f" d="M-16.7 83L1.2 56.5 22.7 71 4.8 97.5z"/><path fill="#604a35" d="M169 130h87v14h-87z"/><path fill="#bcd2b9" d="M0 43h116v7H0z"/><path fill="#cfb590" d="M166 25.2l-9.5-3.4L125 101l40.8 24.3z"/><circle r="1" fill="#c2724b" transform="matrix(-59.67178 7.53931 -2.1267 -16.83233 82.2 18)"/><path fill="#4f2705" d="M126 58.6L63 101l-1-1.7L125 57z"/><ellipse cx="146" cy="126" fill="#88633f" rx="34" ry="4"/><ellipse cx="69" cy="41" fill="#00c60e" rx="6" ry="7"/><circle r="1" fill="#9d8c5e" transform="matrix(-6.21707 -8.1316 23.3857 -17.87972 32.8 87)"/><path fill="#ca965f" d="M216.9 28.2l-11 30.4 8.9 18.5 25.3 4.7z"/><path fill="#fff" d="M136 79l-27-2 26-25z"/><path fill="#060000" d="M221 82h35v4h-35z"/><path fill="#431f10" d="M206.5 102.5l8.4-8.2 6.5 4.4 7.1 34.1z"/><path fill="#a38966" d="M102.3 87.6l60.6 13-1.2 5.8-60.6-13z"/><path fill="#524730" d="M46.2 118.6l20.5-10.5-24.9-2-28.5 13.7z"/><path fill="#322d21" d="M178.3 32.8l4.6-2.4-7.5-23.6-23.2 11.5z"/><ellipse cx="24" cy="37" fill="#4b482f" rx="83" ry="6"/><path fill="#03171d" d="M167.2 70.3l25-2.7-12.1 11.5 13.7-48.3z"/><ellipse cx="47" cy="2" fill="#753922" rx="64" ry="8"/><path fill="#e3dcce" d="M126 105h41v18h-41z"/><path fill="#ebedeb" d="M124 135h44v5h-44z"/><path fill="#fff6e7" d="M55 112h47v6H55z"/><path fill="#fffffd" d="M113 35.2h39.5L134 36l-24.9 23.6z"/><ellipse cx="153" cy="88" fill="#f1f3f3" rx="23" ry="5"/><circle r="1" fill="#6d6666" transform="matrix(-50.29516 -2.84275 .05643 -.9984 135.4 111.5)"/><path fill="#5e1f03" d="M167 95h8v35h-8z"/><path fill="#e7a16a" d="M114 12h23v23h-23z"/><path fill="#b5ac9d" d="M163.7 7.4L220 34.6 160-16l-27 32.4z"/><path fill="#381c0c" d="M237.7 2.5L208.5.3l15.9 20.3L260.1-1z"/><path fill="#c9c7c0" d="M180.9 82.1l2.3-6.6L219 87.9l-2.3 6.6z"/><path fill="#c9bfae" d="M-16 103l96 41-74-3z"/><path fill="#e2ca9e" d="M71.8 54.8L32.7 100l28-6.4 54.7-30.9z"/><ellipse cx="111" cy="104" fill="#fff" rx="26" ry="4"/><path fill="#fffffa" d="M168 71l-2-28 12-3z"/><path fill="#8c6632" d="M90.4 77.8l45.5 6.4-.3 2-45.5-6.4z"/><path fill="#e8e1d3" d="M184.9 108.9l-8.3 16.9 46.9-2.2-15.5 14.2z"/><ellipse cy="78" fill="#004c87" rx="11" ry="9"/><ellipse cx="159" cy="54" fill="#512100" rx="4" ry="5"/><path fill="#d4cec4" d="M188 31l7-27 16 24z"/><ellipse cx="68" cy="96" fill="#6b5f41" rx="13" ry="4"/><path fill="#554029" d="M196 119h44v4h-44z"/><path fill="#3a505d" d="M210.3 24.3l.5 31.2-43.9 21.6.4 16.8z"/><path fill="#3f3629" d="M139 13l45-4-46 25z"/><ellipse cx="239" cy="70" fill="#54310f" rx="27" ry="3"/><path fill="#153145" d="M205 71l7-37-25 50z"/><path fill="#886f50" d="M169.5 140.2l-54.5 7.6-.5-4 54.5-7.6z"/><path fill="#b77c58" d="M-4 7l73 14-12 21z"/><path fill="#e6c9a6" d="M244.9 89.3L221 84l-1.9 17.4 12 5.5z"/><path fill="#fffdf1" d="M161.8 35.7l-10 6.8 1.8 18.4-5.5 1.1z"/><path fill="#554921" d="M46.9 87.5l-28.1-.4L-16 34.8l51.3 46.1z"/><path d="M216 140h22v4h-22z"/><circle r="1" fill="#fafcfb" transform="matrix(-31.80923 .00867 -.00161 -5.91306 95 131.4)"/><path fill="#d6a573" d="M248 59.2l23 4.1L242.1 79l28.9 8z"/><circle r="1" fill="#886745" transform="matrix(8.88438 -.44255 1.61586 32.43885 235.3 41.8)"/><path d="M137.7 5l-3.2-3.8 7.8-6.3 3.2 3.9z"/><path fill="#abac9b" d="M178 93.7l.3-15.2-6.5-6.6 1.1 20.8z"/><path fill="#3e220c" d="M174.1 27.1l-53.7 31.8 13-7.3 30-23.3z"/><path fill="#7d5f46" d="M232.5 136.1l-64.6 17.1-2.4-35.6 11.9 8.9z"/><path fill="#755944" d="M153 23.9l-32.5 44.4-9.2-8.2 44.5-46.9z"/><path fill="#cec1a4" d="M33.4 61.2l22.1-11.4-3.7-14.1-7.5 46.1z"/><path fill="#efefec" d="M-11 118l49-15-18 15z"/><ellipse cx="141" cy="66" fill="#b18e5b" rx="4" ry="18"/><circle r="1" fill="#966139" transform="matrix(6.77656 -5.0572 3.60554 4.83137 106 36.4)"/><path fill="#918060" d="M67 49h39v7H67z"/><path fill="#ac9371" d="M168.7 107.9l-5.6-11.8-50.2 2.6 32.9 6.8z"/><path fill="#342811" d="M50 107h9v7h-9z"/><path fill="#dfd5bd" d="M50 102l-6 12-1-8z"/><path fill="#7d6637" d="M138 119h75v1h-75z"/><path fill="#00ca30" d="M63.7 37l10.6.7.3 10.6-9-2.2z"/><path fill="#fef7ea" d="M97 113h38v7H97z"/><path fill="#eee1cd" d="M210 113.1l-3.7 6.7-31.1-7.7 25.2-3z"/><circle r="1" fill="#74583a" transform="matrix(26.79506 3.385 -.16995 1.34529 195.6 104.6)"/><path fill="#2e2a1c" d="M193.5 131.2l15 7.9h-28.4l3.6.2z"/><path fill="#020000" d="M262 47l-12 14 2-25z"/><path fill="#525147" d="M204 94l-16-13 5-3z"/><path fill="#4c1b07" d="M230 121l-12 23 2-13z"/><path fill="#eab994" d="M158 21l6 4-19 14z"/><ellipse cx="182" cy="67" rx="4" ry="10"/><path fill="#dfd8c8" d="M207 97l-7-17 30 7z"/><path fill="#f7f7f1" d="M126.4 110.4l44.9-.9-24.2-4.3L71.3 99z"/></g></g></svg>