<svg xmlns="http://www.w3.org/2000/svg" viewBox="0 0 1400 2108"><defs/><filter id="a"><feGaussianBlur stdDeviation="12"/></filter><rect width="100%" height="100%" fill="#593c2c"/><g filter="url(#a)"><g fill-opacity=".5" transform="translate(4.1 4.1) scale(8.23438)"><ellipse cx="75" cy="234" fill="#e9f0e2" rx="113" ry="207"/><ellipse cx="98" cy="239" fill="#fff" rx="169" ry="27"/><ellipse cx="14" cy="128" fill="#392916" rx="105" ry="43"/><path fill="#100200" d="M89-16l16 111 80-90z"/><circle r="1" fill="#fff" transform="matrix(-21.48544 12.43413 -21.01965 -36.3207 164.5 145)"/><path fill="#e0ffff" d="M83 78.8l-37-.6 1-53 37 .6z"/><path fill="#361300" d="M0 1h39v80H0z"/><path fill="#002c48" d="M131 130l22 55-109-69z"/><path fill="#c4ccc5" d="M65 67h26v55H65z"/><path fill="#ae7a54" d="M104 154l39-117 41 38z"/><path d="M72 86l-30 73 5-66z"/><path fill="#ffffe8" d="M-20.8 207l97.2-18.8 2.4 12.7-97.2 19z"/><ellipse cx="45" cy="240" fill="#fdf8e8" rx="98" ry="28"/><circle r="1" fill="#2e1a00" transform="rotate(80.6 -65.7 227) scale(8.98529 53.51266)"/><path fill="#d9d1bb" d="M92 144l-23 17 52 61z"/><path fill="#faffff" d="M140.4 220.9l-7.8-39.3 9.8-9.7-33.3.5z"/><path fill="#100" d="M74 175l13-3-1 35z"/><circle cy="177" r="26" fill="#594214"/><path fill="#a35534" d="M-16.9 102l1.8-52 60 2-1.8 52z"/><path fill="#0e0600" d="M58 0h13v34H58z"/><path fill="#260c04" d="M116 189h8v25h-8z"/><circle r="1" fill="#412d1e" transform="matrix(-6.79533 -3.94058 23.53658 -40.5876 107.2 82.1)"/><path fill="#00122d" d="M65 127h22v27H65z"/><path fill="#ad9268" d="M20 117h20v80H20z"/><path fill="#834f2f" d="M108 15l23 25-44 22z"/><circle r="1" fill="#060700" transform="matrix(57.6749 67.43792 -16.60989 14.20527 153.6 10.4)"/><path fill="#cbbe9e" d="M145 158h25v66h-25z"/><path d="M95.6 151.5L83.8 125l14.6-6.5 11.8 26.5z"/><path fill="#e1d3af" d="M102 113l23 27-13 4z"/><path fill="#075681" d="M132.3 170.2l-29 7.4 4-16.4 35-8.7z"/><circle r="1" fill="#f7ecda" transform="matrix(1.8929 -6.60769 15.14382 4.33825 103.2 203)"/><path fill="#e3ddce" d="M83.7 172.7l1.6-29.1 22.8 38.5-22-50.8z"/><ellipse cx="81" cy="211" fill="#463441" rx="47" ry="3"/><path fill="#e3f1f8" d="M37 36l15-9 39 46z"/><path fill="#05100a" d="M0 4h44v27H0z"/><path fill="#bbb3a5" d="M98.4 104.3l-16.5 8.2-28.4 20.1 21.3-51.3z"/><path fill="#a37453" d="M159.6 66.2l13.2 44.6-61.7-20.1 21.8-36.2z"/><ellipse cx="153" cy="131" fill="#f0eedd" rx="20" ry="25"/><path fill="#ffe9c3" d="M47.8 173.3l.4-11 14 .4-.4 11z"/><path fill="#bdd0ce" d="M106 56L72 90l-29-6z"/><path fill="#eee3d0" d="M153 200l32 18-61-6z"/><path fill="#52321c" d="M185 49.7l-62.5 15.6-32.8-6.2-10.9-12.5z"/><path fill="#faf8e8" d="M41.9 124l.2 1-56 11-.2-1z"/><path fill="#fff9e5" d="M57 206l23 1-1-16z"/><path fill="#114156" d="M119.8 201.9l3.4 4.8-15.4-23.7-5.2-33.4z"/><path fill="#222110" d="M110-16l-5 56L56 8z"/><path fill="#d3e7eb" d="M97.7 43.7v-5l-25-15.5-7.2 21.9z"/><path fill="#50473c" d="M130.8 97.1l5.1 43.7-32-78.9 29.4 101.2z"/><path fill="#fcfffe" d="M136 174l-25-4 13 25z"/><path fill="#7d523c" d="M15.4 47.6l34.3 1.7-11.2 42.6-46.3-21.4z"/><path fill="#eadace" d="M112.6 97.9l8.3 17.8 9.9-.3-33.7-8z"/><path fill="#130b38" d="M45 211l15-3-26-2z"/><path fill="#735039" d="M49.4-5.5l15 41.5L85.1 6.1 45.4 31.6z"/><path fill="#7a745e" d="M185.4 207.7l-52.6-19.1 3.8-10.3 52.6 19.1z"/><path d="M-9.6 175.5l20.5-10.4 2.7 5.4-20.5 10.4z"/><circle r="1" fill="#c59c81" transform="matrix(-2.93175 -1.70632 14.93686 -25.6641 99.3 61.8)"/><ellipse cx="14" cy="119" fill="#b0b19b" rx="31" ry="3"/><path fill="#aa8a65" d="M15 174h62v20H15z"/><path fill="#00071c" d="M45 90h18v22H45z"/><path fill="#56371d" d="M-7.3 111.9l-5.2 12 61.1-13.3-42.4-7.5z"/><path fill="#d4c8b1" d="M89.8 203.3l21.3-54.8-15.5 8.1-7.9-17.2z"/><path fill="#044163" d="M121 143h14v30h-14z"/><path fill="#613619" d="M70.3 170.4l-8 .2-.6-35 8-.2z"/><circle r="1" fill="#9c9488" transform="matrix(20.8605 -3.31684 .3268 2.05536 96.8 120.4)"/><path fill="#85979e" d="M117 151l20-3-23 14z"/><path fill="#dadcd6" d="M93.5 72.9l5.2-2.9 7.2-8.2-57.8 2.9z"/><ellipse cx="166" cy="161" fill="#74623d" rx="24" ry="2"/><circle r="1" fill="#592e1a" transform="rotate(111.1 -27.3 130.6) scale(7.45339 3.42614)"/><path fill="#d4c7b2" d="M-5.5 201.8l33.5 5.4-12.5 79-33.5-5.4z"/><path fill="#efeadf" d="M41 223h129v21H41z"/><path fill="#644028" d="M130.1 76.4l.7-33.1 8.4 16.3 5.8 12.9z"/><path fill="#001833" d="M112.6 155.3l-11.7-39.4-6.5 35.8 38.5-8.3z"/><path fill="#5a3829" d="M82.4 111.7l29.2 4.1 16 26.2-9.8-33z"/><ellipse cx="39" cy="172" rx="5" ry="2"/><path fill="#5a5545" d="M121.3 92.6l-2.3 6.6-28.3-9.8 2.3-6.6z"/><path fill="#2f1e12" d="M147 34l-42 55 2-35z"/><path fill="#c4a58a" d="M116 77.1l9.5-5.6L142 98.9l-9.5 5.6z"/><path fill="#6f4d36" d="M87 26l43-2-16 37z"/><path fill="#b3c4c4" d="M53 45.1l9.8-27.6L37 43.7l.6 8.5z"/><path fill="#cecbbf" d="M63 117l11 6V81z"/><path fill="#f0e1ce" d="M13.4 210.9L34 195.7l33.5-3.5 12.1 9.5z"/><path fill="#002a43" d="M67 122l23 30-20-2z"/><path fill="#171921" d="M48.6 99.3l-6.5 9.3 5.3 26.5L72.8 88z"/><path fill="#e1dbcb" d="M165 179.4L135.9 115l18.6 72.7 23-3.6z"/><path fill="#d9dfd7" d="M71 155h25v5H71z"/><ellipse cx="63" cy="229" fill="#eae7de" rx="56" ry="17"/><path fill="#6a6050" d="M107.8 85.4l-9.7 30.1-30.4-11.2 23.6 20z"/><path fill="#4c3326" d="M117.7 184.2l11 24.7-6.4 2.9-11-24.7z"/><ellipse cx="44" cy="131" fill="#473726" rx="21" ry="4"/><path fill="#204a56" d="M148.4 171.5l-15.7 16.1 8.7 2.2-.6-28.5z"/><path fill="#362b1b" d="M49 13L3-15l35 56z"/><path fill="#b79d71" d="M26 138h16v21H26z"/><ellipse cx="155" cy="221" fill="#7c7968" rx="17" ry="2"/><path fill="#efeddf" d="M106 177.3l-20 .4v-7l20-.4z"/><path fill="#6b604c" d="M69.6 161.4l40.9 2.2v1l-41-2.2z"/><path fill="#3a2b21" d="M60.6-16l-5.4 31.1 20.5 19.6-17.6-4.1z"/><path fill="#141008" d="M17 16l6 23 29-13z"/><path fill="#441d0b" d="M46 165l10-43-15 13z"/><path fill="#dae5e7" d="M59 74.2l-5.4-25.5 33.3-21.5 4.1 6.4z"/><path fill="#fff" d="M119 109l-10-9-3 6z"/></g></g></svg>