<svg xmlns="http://www.w3.org/2000/svg" viewBox="0 0 1400 2119"><defs/><filter id="a"><feGaussianBlur stdDeviation="12"/></filter><rect width="100%" height="100%" fill="#5a4935"/><g filter="url(#a)"><g fill-opacity=".5" transform="translate(4.1 4.1) scale(8.27734)"><circle cx="52" cy="159" r="165" fill="#fff"/><circle cx="52" cy="165" r="113" fill="#ffffe9"/><circle r="1" fill="#3c1700" transform="rotate(-49.1 249.8 -2.8) scale(34.37185 17.88002)"/><circle r="1" fill="#2e0f00" transform="matrix(32.18336 -26.95806 13.95528 16.66024 117.9 43.6)"/><path fill="#fffbee" d="M179 94l-2-108L3 221z"/><path fill="#000034" d="M20.1 53.9l-36.1 22 15-33 59.2-22.3z"/><circle r="1" fill="#fffffc" transform="matrix(42.97908 -36.06373 12.06445 14.37785 61.3 45.2)"/><path d="M150 119.8l14.4-13.9 21.6 22.3-14.4 13.9z"/><path fill="#ffffe9" d="M99-7L-6 46l8-62z"/><path fill="#2e3300" d="M63.9 78.8l-7.4 23.4 22.9-30 19.1-42.9z"/><path fill="#302418" d="M132 69.2l13.9-23.6 9.1-51-43.8 22.8z"/><path fill="#4b2710" d="M162.1 149.9l-73.6 37.7 21.6-17.7 73.9-38.4z"/><path fill="#fffffe" d="M83 64h13v70H83z"/><circle r="1" fill="#f4ebde" transform="rotate(8 -885.5 310.2) scale(66.85011 47.14546)"/><path fill="#fbf0d8" d="M89.7 39.1l39.9-35.4-9.9.2-30.1 5.9z"/><circle cx="166" cy="234" r="77" fill="#e1d4be"/><path fill="#ead6b6" d="M153 10l28-26-25 108z"/><path fill="#00003f" d="M180-9L73 9l39-25z"/><path fill="#2b2a00" d="M19 175l-35 41 6-22z"/><path fill="#262a09" d="M124.1 240.8l42.6-33.2 1.2 1.6-42.6 33.2z"/><path fill="#5e6944" d="M49.2 143.7l10.5-51.1L61 123l-16.9 23.5z"/><path d="M153.4 119.2l9.9-13.8 20.7-5v55.7z"/><path fill="#98775d" d="M64 175l29-14-34 70z"/><circle r="1" fill="#f4ede2" transform="matrix(17.05617 -51.71862 17.7966 5.8691 43.8 191.1)"/><circle r="1" fill="#f8f0de" transform="rotate(-146.2 37.2 15.2) scale(20.13421 42.93959)"/><path fill="#362e1a" d="M95 159h14v32H95z"/><path fill="#191317" d="M137 62l12-42-23 32z"/><circle r="1" fill="#f7f0e8" transform="rotate(-117.2 104 31.1) scale(22.10415 29.86461)"/><path fill="#000e3a" d="M1 64l-15-20 51-5z"/><path fill="#e9e0d2" d="M32 223h110v33H32z"/><path fill="#715037" d="M142.5 42.4l-15-35.5-41 37.5 12.9 37.5z"/><circle cx="132" cy="90" r="29" fill="#f3ebde"/><path fill="#3c3e0e" d="M105 42L77 59 62 87z"/><path fill="#997f67" d="M104.6 150.6l-23.9 67.3-24.5 8.2 10-48.3z"/><path fill="#565e2f" d="M82.8 57.2L70.2 67.7l-14.3 37.5 1 2.4z"/><path fill="#f4f0e9" d="M57.8 129.7l77.1-.4-45.8-67.4-29.2 39.6z"/><path fill="#ebe1d1" d="M56 27L29 250-4 71z"/><path fill="#e6e1d0" d="M184 129.6l-16.9 122.1-1.1-56.1-15.5-30.8z"/><path fill="#385088" d="M70.8 10.3L36.2 27.9l-12.5 5.2-6 16.8z"/><path fill="#cfbda1" d="M170 54l-5-61-29 70z"/><path fill="#1b1f1f" d="M137.2 63.6l8.7-63.7 7.4 23.3-23.4 33.3z"/><path fill="#bdb29a" d="M98.7 265.9l63.3-75.3-20.9 50.8-25 10.8z"/><path fill="#36301a" d="M111 161l-6 29-14 7z"/><ellipse cx="120" fill="#00184f" rx="30" ry="4"/><path fill="#1e1b0e" d="M177.2 114.6L172 133l-19.2-5.5L158 109z"/><path fill="#dcd2bc" d="M8 162l41-16-65 57z"/><path fill="#5c5b37" d="M2.6 197.2l-18.6.8 8.2 4.6L23.8 166z"/><path fill="#efeade" d="M65 82L64 7 15 157z"/><path fill="#e9dfd1" d="M111 177l-9 42 82-81z"/><path fill="#ede9df" d="M74 80h80v65H74z"/><path fill="#4c3624" d="M124.7 21L90 54.8l2.1-10.9L131 2.1z"/><path fill="#0e1900" d="M162 214.3l-2.2-2.1 6.2-6.5 2.2 2.1z"/><path fill="#efebe0" d="M102.6 158.4L79 77l12.7-20.1 9.7 30.1z"/><path fill="#d4c7b3" d="M151 14l10-12 6 38z"/><path fill="#ede7dd" d="M4.3 195.8L16 183.6l85.6 82.6L90 278.4z"/><path fill="#001e3e" d="M23.8 35l-34.1 14.9-5.7 27.2L5 62.8z"/><path fill="#273213" d="M57 125.1l-7.2 14.3-.9-.5 7.3-14.3z"/><path fill="#d7cbb7" d="M106 190l78 11-104 17z"/><path fill="#d6d5c5" d="M147-16l5 20 9-20z"/><path fill="#e6ddcb" d="M121.7 10.1l-23-4.8L50 26l45.1 10.3z"/><circle r="1" fill="#dcccb4" transform="matrix(20.4356 -5.00985 10.13877 41.3569 11.8 239)"/><path fill="#08142a" d="M135 55l7-8-8 18z"/><path fill="#e5dac1" d="M133.4 59l5 16.3-5.8 1.7-5-16.3z"/><path fill="#775d4a" d="M126 55l-46 1 65-25z"/><path fill="#0d1500" d="M146 225.5l19.4-15.8.6.8-19.4 15.8z"/><path fill="#ece5d7" d="M171 138L59 163l71-42z"/><path fill="#83845f" d="M47 145.8l-25.3 27-.7-.6 25.3-27z"/><circle r="1" fill="#e6d5c2" transform="rotate(172.2 13.6 1.9) scale(47.12028 23.50111)"/><circle r="1" fill="#6e4f37" transform="matrix(48.68099 -24.62064 .64984 1.2849 131.3 161.7)"/><path fill="#cfc6b5" d="M146.7 4.2l-19.6 3.7-48.3 17.7 36.3-21.4z"/><path fill="#2f281e" d="M166.8-2.1l-36.2 31 17.5-32.5-14.7 12z"/><path fill="#967c65" d="M59 214.7l-1.1 11.5L91.4 203l-21.8-33.3z"/><path fill="#314970" d="M115-16l-8.8 7.5-44.5 23.9 38.5-11.9z"/><path fill="#42502b" d="M52.9 135.7l-1-.2 7.2-31.2 1 .2z"/><circle r="1" fill="#ede8db" transform="matrix(-9.70232 59.04266 -10.89112 -1.7897 55.5 174)"/><path d="M1.3 206.4l.6.8-3.2 2.4-.6-.8z"/><path fill="#eeeadd" d="M24 179L43 53l14 59z"/><path fill="#6f7450" d="M134.2 233l-29.7 26.8-.7-.8 29.7-26.8z"/><path fill="#715947" d="M96 156h7v29h-7z"/><path fill="#705240" d="M90.9 50.4l8.3 28.9 3.4 1.2L130.3 19z"/><path fill="#d7c9b3" d="M102 202l-10 19-37 4z"/><circle r="1" fill="#3d3824" transform="matrix(-2.23797 -.1565 .49023 -7.01056 94.2 195.5)"/><ellipse cx="38" cy="72" fill="#e9e0d1" rx="28" ry="24"/><path fill="#d3c6b2" d="M151.9 220.8l-46.5 27.8 59.8-82.6 2.7 35.4z"/><ellipse cx="121" cy="197" fill="#ded5c3" rx="25" ry="6"/><path fill="#ece6d9" d="M100.1 104.7l12.6 64.8 32.1-35.1 37.4-71.2z"/><path fill="#4c3925" d="M130 3l10 12-36 16z"/><path fill="#dfdfd5" d="M166 159h3v54h-3z"/><path fill="#45588c" d="M42.6 29l2.7 3-22 19-2.6-3z"/><path fill="#e4d8c5" d="M-12 159l-4-68 69-66z"/><path fill="#00142a" d="M138-2l-26-14-5 21z"/><circle r="1" fill="#e8e3d6" transform="matrix(18.90463 6.2127 -7.9599 24.22117 27.5 196.3)"/><path fill="#e3d7c4" d="M12.6 178.5L9.7 78.2l-4-17.3L-16 208.8z"/><path fill="#556032" d="M69.6 78.6l.8.5-14 24.3-.8-.5z"/><path fill="#515529" d="M92 38L66 78l19-13z"/><path fill="#ede9df" d="M135.1 105.6l-34 57.9 18.8-14.8-104.3 39.2z"/><path fill="#e7e2d5" d="M55 224h67v22H55z"/><path fill="#012146" d="M148.3 6.4l3.7-4.2-13.1-8.1L121.8.3z"/><path fill="#261b0b" d="M143 27l-5-23 15 4z"/><path fill="#c8b89f" d="M184 7.6l-20.5-8-20.8 45.9-.2 14.2z"/></g></g></svg>