<svg xmlns="http://www.w3.org/2000/svg" viewBox="0 0 1400 933"><defs/><filter id="a"><feGaussianBlur stdDeviation="12"/></filter><rect width="100%" height="100%" fill="#416472"/><g filter="url(#a)"><g fill-opacity=".5" transform="translate(2.7 2.7) scale(5.46875)"><circle r="1" fill="#fff2e0" transform="rotate(-130.1 65.2 36.1) scale(238.96456 79.16285)"/><ellipse cx="239" cy="83" fill="#000018" rx="48" ry="88"/><circle r="1" fill="#020010" transform="matrix(7.51172 -7.56982 68.81394 68.2858 193 105)"/><circle cy="107" r="141" fill="#baaead"/><circle r="1" fill="#2c4ca3" transform="rotate(-30 117.3 -297.5) scale(35.95748 70.32562)"/><circle cx="42" cy="150" r="43" fill="#939693"/><path fill="#b4a69e" d="M203.5 140.4L158 82.8 133.5 185h106.2z"/><circle cx="255" cy="138" r="42" fill="#070d17"/><circle r="1" fill="#c4c2c0" transform="matrix(42.49922 34.30097 -12.5236 15.51685 114.3 63.4)"/><circle r="1" fill="#1e2243" transform="matrix(-4.49376 7.17043 -26.0709 -16.33881 139.1 36)"/><circle r="1" fill="#1b376f" transform="rotate(13.3 33 1002.3) scale(30.58654 40.82586)"/><path fill="#050000" d="M211.2 147.2l-55.5-70.9 7.1-5.5 55.5 70.9z"/><circle r="1" fill="#726b71" transform="rotate(108.8 -1.5 9.7) scale(9.54824 21.13027)"/><path fill="#447abc" d="M189.4 34l-9.7 7.8L99.6-8.8l86.4-4.9z"/><path fill="#cac8c6" d="M135.9 56.3l-11.2 8.4-56.6-75 11.2-8.4z"/><path fill="#080000" d="M98.3-8.5l20.1 35.3L80.2-16l4.5 11.2z"/><circle r="1" fill="#c4c7c2" transform="matrix(-69.89363 13.14817 -2.31607 -12.3119 48.2 65.5)"/><path fill="#22365c" d="M237 37l-77 29-25-19z"/><path fill="#958b8d" d="M80 26L32 11l72 47z"/><path fill="#837a76" d="M225 160l-19 8-23-25z"/><circle r="1" fill="#102041" transform="matrix(-6.8201 -22.03217 64.37714 -19.92806 238.4 85.7)"/><path fill="#2c3e51" d="M224 150l29 16-6-29z"/><path fill="#455b9a" d="M196 50l-21 13 39 21z"/><path fill="#090800" d="M228 170l-31-47 71 62z"/><path fill="#324372" d="M172.1 69.6l-14.4-49.9-2.4 1-47.7-12.4z"/><path fill="#959094" d="M40 70l-11 38 44-15z"/><ellipse cx="19" cy="160" fill="#99a09e" rx="96" ry="18"/><ellipse cx="138" cy="115" fill="#afb4b4" rx="30" ry="45"/><path fill="#4f7eaf" d="M163 26h41v14h-41z"/><path fill="#827d84" d="M36 114h36v12H36z"/><path fill="#3264ad" d="M108.8 7.6L77.4-16h98.5l43.7 24.6z"/><path fill="#102341" d="M206 45h50v34h-50z"/><path fill="#b7bab7" d="M195.5 130.5l-35.2 29-5.4-22.9 53.3 14.5z"/><path fill="#131016" d="M123 34l-15-19 7-5z"/><path fill="#6d676d" d="M77 83l16-6-19-1z"/><path fill="#121c29" d="M217 148l-79-93 58 30z"/><path fill="#bfbeb6" d="M7 59h17v75H7z"/><path fill="#2a3f68" d="M118.1 20.9l24 17.8 36.8-33-10.1 19.4z"/><path d="M64.5 121.5l2.7-1.4 2.3 4.4-2.7 1.4z"/><path fill="#355da1" d="M234.8 7.9L204.9-16 271 2.4l-21.6-.6z"/><path fill="#241e1d" d="M123.9 40.9l-6.3-3.8 25.1 20.7-25.8-38.7z"/><path fill="#1d3d73" d="M169 77h55v7h-55z"/><path fill="#233a61" d="M192 108l30-5 7 15z"/><circle r="1" fill="#2b4572" transform="matrix(23.54227 19.71252 -4.0028 4.78047 217.7 33.5)"/><path fill="#5a5a58" d="M189 164h20v2h-20z"/><path fill="#9e928d" d="M100.8 90.3l52.8-1.7 8.1 2.2-21 3.6z"/><path fill="#aba49d" d="M202.3 142.3l31.2 38.6-19.7-3.5-14.2-22.2z"/><path fill="#7f8280" d="M21 154.7l21 6-3 10.6-21-6z"/><path fill="#928c8e" d="M61-16L45 13 10 31z"/><path fill="#8c938e" d="M114.8 137.7l15.1 33.8-2-24.8-28.6-11.9z"/><path fill="#565453" d="M193 148l6-1-7 12z"/><circle cx="92" cy="45" r="4" fill="#6a6061"/><path fill="#b0b6b6" d="M55 123l18 40 20-11z"/><path fill="#bfc5c6" d="M63.2 54.2l44.9-7.6 25.4 12 18.3 25.7z"/><path fill="#6c6369" d="M56 21l18.8 3-.8 5-18.8-3z"/><path fill="#152d47" d="M212 36l-20-3 16 11z"/><path fill="#091121" d="M227 106h29v35h-29z"/><path fill="#c3bebb" d="M113 23L78 53l7-60z"/><ellipse cx="63" cy="96" fill="#5e5964" rx="3" ry="6"/><path fill="#b9bcbb" d="M52.2 91.8l3.9 57.8 3.7-58.7L-16 73.1z"/><path fill="#162747" d="M254.7 44.6l-60.1-30.4L249.9 6l-32.5 52.9z"/><path fill="#b7b7b9" d="M135.2 59.2l-69.7 61.1 20.8 2.2-29.1-18.7z"/><path fill="#140f03" d="M181 111l-9-26 30 41z"/><circle r="1" fill="#606058" transform="rotate(-151.6 94.4 39.2) scale(5.40165 1)"/><path fill="#453d2d" d="M180.8 118.7l9 7.9-.6.7-9-7.9z"/><path fill="#254378" d="M271 21l-40.7 6 34.8 24.9 5.9 5.5z"/><path fill="#9d9387" d="M174.2 147l-20.8-16.2 2.3 9.6 25.2-8.1z"/><path fill="#3d8ad1" d="M158-8l-6 23 16-8z"/><ellipse cx="163" cy="58" fill="#203860" rx="10" ry="16"/><path fill="#0d0d07" d="M164.7 84l-.8.7L95.3 0l.8-.7z"/><circle cy="10" r="4" fill="#413d48"/><path fill="#283b6a" d="M212.6-6.5l-.8 20.9-33.6 5.4 21.7 8.9z"/><path fill="#4a504d" d="M150.1 146.8l8.3 5.6-.5.8-8.3-5.6z"/><path fill="#8d8a8a" d="M80 101l17-7-19-1z"/><path fill="#4f432c" d="M214.7 144.2l-5.6-2.2 28.2 38.8-37.8-41.9z"/><path fill="#c5c8c3" d="M111.8 127l15.9 7.1-19.3-32.1 25.3 9.7z"/><path fill="#5d585f" d="M1 39h13v2H1z"/><circle cx="50" cy="115" r="3" fill="#3f3e45"/><path fill="#204384" d="M109 9l21-5-13 14z"/><path fill="#cec7b9" d="M3 167h19v3H3z"/><path fill="#b0a8a2" d="M116.7 34l17.5 16.3L64.6 29l7.3-1.2z"/><path fill="#4f7fca" d="M226.8 36.8l1.2 4.8-6.8 1.6-1.2-4.8z"/><path fill="#bfc3c3" d="M84 98h63v5H84z"/><path fill="#746d6f" d="M32 105l8-11-13 9z"/><path fill="#b8b4af" d="M38 81L17 22l38-8z"/><path fill="#847e89" d="M50 74L32 85l27-1z"/><path fill="#c7c9c5" d="M10.7 51.2l5.6 30.2 33.4 13.8-28.9-24.5z"/><path fill="#b3b0ad" d="M41 66h8v59h-8z"/><path fill="#c1bfba" d="M190.3 140.9l-35.8-11.5-4.9-20.1L118.7 96z"/><path fill="#8a7d6f" d="M137 167h26v3h-26z"/><ellipse cx="206" cy="101" fill="#182943" rx="16" ry="23"/><path fill="#385989" d="M138 39l12-16-3 29z"/><path fill="#64577d" d="M209 60l-29 12 12-14z"/><path fill="#527baf" d="M153 33l18-12 31 20z"/><circle cx="11" cy="140" r="1"/><path fill="#b7bfbc" d="M86.3 123.7l39.3 28.7-1.1 25.2-27.1-44.8z"/><ellipse cx="33" cy="14" fill="#6d686b" rx="10" ry="2"/><path fill="#8c918f" d="M145.1 134.8l-35.2 6.2-31.6-29.7 33.8 27.1z"/><path fill="#3e454f" d="M255 142.8l-26.3 7.7 2.5-6.1-.1-.9z"/><path fill="#837a79" d="M143 90h21v3h-21z"/></g></g></svg>