<svg xmlns="http://www.w3.org/2000/svg" viewBox="0 0 1400 933"><defs/><filter id="prefix__a"><feGaussianBlur stdDeviation="12"/></filter><rect width="100%" height="100%" fill="#3a535b"/><g filter="url(#prefix__a)"><g transform="translate(2.7 2.7) scale(5.46875)"><circle cx="135" cy="103" r="174" fill="#fbe4d1" fill-opacity=".5"/><circle r="1" fill="#040000" fill-opacity=".5" transform="matrix(.21706 -14.94732 69.2407 1.0055 58.2 23.4)"/><ellipse cx="43" cy="146" fill="#170912" fill-opacity=".5" rx="81" ry="16"/><ellipse cx="155" cy="169" fill="#fff" fill-opacity=".5" rx="248" ry="9"/><ellipse cx="154" cy="3" fill="#fff" fill-opacity=".5" rx="255" ry="5"/><ellipse cx="128" cy="35" fill="#fff" fill-opacity=".5" rx="5" ry="169"/><path fill="#514240" fill-opacity=".5" d="M5 8h119v50H5z"/><circle r="1" fill="#bcccc0" fill-opacity=".5" transform="matrix(-39.67286 -62.10369 59.83487 -38.2235 255 80.6)"/><path fill="#524a4c" fill-opacity=".5" d="M2 122h121v40H2z"/><ellipse cx="112" cy="1" fill="#fff" fill-opacity=".5" rx="255" ry="8"/><ellipse cx="168" cy="165" fill="#fff" fill-opacity=".5" rx="184" ry="5"/><circle cx="63" cy="87" r="61" fill="#8d8073" fill-opacity=".5"/><path fill="#fff" fill-opacity=".5" d="M0 0h2v170H0z"/><ellipse cx="255" cy="96" fill="#fff" fill-opacity=".5" rx="2" ry="113"/><ellipse cx="128" cy="116" fill="#fff" fill-opacity=".5" rx="4" ry="169"/><path fill="#110d13" fill-opacity=".5" d="M119 42l5-34H78z"/><ellipse cx="87" cy="157" fill="#2d252c" fill-opacity=".5" rx="37" ry="5"/><path fill="#97aaa5" fill-opacity=".5" d="M132 91h117v68H132z"/><path fill="#fff" fill-opacity=".5" d="M0 162h256v8H0z"/><ellipse cx="114" cy="3" fill="#fff" fill-opacity=".5" rx="237" ry="5"/><ellipse cx="126" cy="67" fill="#fff" fill-opacity=".5" rx="3" ry="166"/><path fill="#1d161a" fill-opacity=".5" d="M4 9h33v14H4z"/><path fill="#1e181f" fill-opacity=".5" d="M105 145h19v17h-19z"/><path fill="#322c32" fill-opacity=".5" d="M7 144h59v18H7z"/><circle r="1" fill="#6c6667" fill-opacity=".5" transform="rotate(-15.2 583 -232.7) scale(28.60568 11.36229)"/><ellipse cx="67" cy="64" fill="#8f8679" fill-opacity=".5" rx="57" ry="22"/><path fill="#bcc1b1" fill-opacity=".5" d="M153 142l28-2-33-56z"/><path fill="#abae9e" fill-opacity=".5" d="M164 8h65v45h-65z"/><path fill="#6e8888" fill-opacity=".5" d="M132.3 61l-.9-11.8 37.2 10.2-15.5 25.2z"/><path fill="#fff" fill-opacity=".5" d="M-2 .5h1l3 169H1z"/><ellipse cx="255" cy="98" fill="#fff" fill-opacity=".5" rx="2" ry="131"/><path fill="#818e8c" fill-opacity=".5" d="M175.4 133.9l-2.8-17.4 5.2-3.3 65.7-4.3z"/><ellipse cx="59" cy="32" fill="#5e5757" fill-opacity=".5" rx="58" ry="9"/><path fill="#93897e" fill-opacity=".5" d="M2 36h18v86H2z"/><ellipse cx="67" cy="107" fill="#9d9488" fill-opacity=".5" rx="47" ry="22"/><path fill="#2f292c" fill-opacity=".5" d="M108.5 31.2l16.1 3.5L114.8 8l-57.2 3.5z"/><ellipse cx="125" cy="169" fill="#fff" fill-opacity=".5" rx="255" ry="8"/><path fill="#c2bfac" fill-opacity=".5" d="M170 92h36v14h-36z"/><path fill="#373030" fill-opacity=".5" d="M2 10h49v6H2z"/><path fill="#a7b6ad" fill-opacity=".5" d="M134 157h112v5H134z"/><path fill="#bdbfaf" fill-opacity=".5" d="M187 29h67v22h-67z"/><ellipse cx="128" cy="35" fill="#fff" fill-opacity=".5" rx="4" ry="166"/><ellipse cx="177" cy="3" fill="#fff" fill-opacity=".5" rx="255" ry="5"/><path fill="#76716f" fill-opacity=".5" d="M123.7 106.5l-49 29.7 45.2 9.5 4.1-6.2z"/><path fill="#9ba49a" fill-opacity=".5" d="M133 8h106v18H133z"/><path fill="#94a5a0" fill-opacity=".5" d="M132 8h14v141h-14z"/><path fill="#81989a" fill-opacity=".5" d="M218 154l25-36 10 27z"/><path fill="#7c7671" fill-opacity=".5" d="M107 37h17v50h-17z"/><path fill="#5191a5" fill-opacity=".5" d="M144 150l6-11-7-21z"/><path fill="#7b7779" fill-opacity=".5" d="M42.8 114.6L-2 121.2l99 10.2-81.4 12.1z"/><path fill="#9f9e94" fill-opacity=".5" d="M201 107l29-57-7 73z"/><path fill="#b6c1b8" fill-opacity=".5" d="M196 118l19 17-23 2z"/><path fill="#6c6160" fill-opacity=".5" d="M3 42l55-6L2 26z"/><path fill="#3b3338" fill-opacity=".5" d="M25.7 159.4l-24.2 2.3 1-21.1 24.9 1.5z"/><path fill="#7f9694" fill-opacity=".5" d="M167.7 159.9l2-13.4 58.2-6-46.6 20.3z"/><path fill="#bac7bd" fill-opacity=".5" d="M252.1 100.1l1.6-88.9-19.3 94.7-2.7-48.3z"/><path fill="none" stroke="#fff" stroke-opacity=".5" stroke-width=".5" d="M-1.7 173.7q3-99.5-.3-181"/><path fill="#635b56" fill-opacity=".5" d="M20 33l37-20 8 16z"/><path fill="#3e373b" fill-opacity=".5" d="M88 144h36v17H88z"/><path fill="#999d95" fill-opacity=".5" d="M193 44l10-26 14 27z"/><path fill="#4e4645" fill-opacity=".5" d="M101 26h21v14h-21z"/><path fill="#a99d89" fill-opacity=".5" d="M44 51h11v49H44z"/><path fill="#6a7a79" fill-opacity=".5" d="M151 93l6-21-10-16z"/><path fill="#7c746f" fill-opacity=".5" d="M62 156l19-14 9 10z"/><path fill="#768d89" fill-opacity=".5" d="M183.4 41.5l-43.9 3.7 2.4-10 43.4 9.9z"/><path fill="#c3bcaa" fill-opacity=".5" d="M172 29l23-12-3 25z"/><path fill="#867f77" fill-opacity=".5" d="M40.4 41.5L58.3 92 100 53.9 74.8 35.8z"/><path fill="#292224" fill-opacity=".5" d="M3 9h121v3H3z"/><path fill="#251d1f" fill-opacity=".5" d="M13 156h29v5H13z"/><path fill="#a09584" fill-opacity=".5" d="M37.4 73.8l-17 13L2.7 69.7V45.8z"/><path fill="#453f3f" fill-opacity=".5" d="M81.4 17.3L46.2 31.4l14.6-.2h14.6z"/><path fill="#788886" fill-opacity=".5" d="M172 117h20v15h-20z"/><path fill="#c6c3b1" fill-opacity=".5" d="M202.4 47.9l20.5-.7 5.3-4.9L218 76.1z"/><path fill="#abb6b1" fill-opacity=".5" d="M149.1 91.4l-10.6-23.5-4.1 2.7-3.2 26.2z"/><path fill="#afb7ab" fill-opacity=".5" d="M135.8 29.9L132.4 55l-.9-46.5 23.9 3.4z"/><ellipse cx="255" cy="81" fill="#fff" fill-opacity=".5" rx="2" ry="107"/><path fill="#97a098" fill-opacity=".5" d="M174 29l-39 106 59-76z"/><path fill="#767170" fill-opacity=".5" d="M38.9 109.8L29 108l2.1-11.8L41 98z"/><path fill="#89908c" fill-opacity=".5" d="M156 8h55v5h-55z"/><path fill="#ced7d0" fill-opacity=".5" d="M253 6h1v106h-1z"/><ellipse cx="88" cy="8" fill="#908d8d" fill-opacity=".5" rx="34" ry="1"/><path fill="#403a3a" fill-opacity=".5" d="M5.4 8.4h48.4L16.9 31.1 7 11.8z"/><path fill="#595153" fill-opacity=".5" d="M36.4 145.9l42.9 5.5-11.9.8 2.2-13.9z"/><circle r="1" fill="#fff" fill-opacity=".5" transform="matrix(-108.3755 .15494 -.00713 -4.98902 151 2.6)"/><path fill="#abb6ae" fill-opacity=".5" d="M190 151h36v10h-36z"/><ellipse cx="194" cy="169" fill="#fff" fill-opacity=".5" rx="247" ry="8"/><ellipse cx="101" cy="120" fill="#88847e" fill-opacity=".5" rx="14" ry="10"/><path fill="#666061" fill-opacity=".5" d="M89 130h35v15H89z"/><path fill="#6c6564" fill-opacity=".5" d="M58 36h66v8H58z"/><ellipse cx="128" cy="55" fill="#fff" fill-opacity=".5" rx="3" ry="143"/><path fill="#b1b7ab" fill-opacity=".5" d="M173.7 148.6l-25.9-18.7.6-7.5 23-17.8z"/><path fill="#bfc3b4" fill-opacity=".5" d="M202 93l-5 30-8-46z"/><path fill="#798789" fill-opacity=".5" d="M132 56h16v11h-16z"/><path fill="#4b95ae" fill-opacity=".5" d="M243 135h4v11h-4z"/><path fill="#838c87" fill-opacity=".5" d="M150 77l10 17 18-3z"/><path fill="#6e666a" fill-opacity=".5" d="M2 120h21v16H2z"/><path fill="#7c7a77" fill-opacity=".5" d="M133 145h6v13h-6z"/><ellipse cx="21" cy="2" fill="#fff" fill-opacity=".5" rx="255" ry="6"/><path fill="#a99e8b" fill-opacity=".5" d="M88 108l-16 6 7-43z"/><ellipse cy="101" fill="#fff" fill-opacity=".5" rx="1" ry="120"/></g></g></svg>