<svg xmlns="http://www.w3.org/2000/svg" viewBox="0 0 99 132"><defs/><filter id="prefix__a"><feGaussianBlur stdDeviation="12"/></filter><rect width="100%" height="100%" fill="#040404"/><g filter="url(#prefix__a)"><g transform="translate(.5 .5)"><circle cx="59" cy="61" r="111" fill-opacity=".5"/><circle cx="28" cy="77" r="108" fill-opacity=".5"/><path fill-opacity=".5" d="M38 129l11 4-26 7zM-2 7l-3 34 15-19zm68.8 32.2l-.5-.9 26.9-15.5.5.9z"/><circle cx="13" cy="26" r="3" fill-opacity=".5"/><path fill-opacity=".5" d="M62 110h9v22h-9zm-14 2l-21-1 24-10zm-4-45h7v5h-7z"/><path fill-opacity=".5" d="M25 53h20v30H25zm39 51h18v23H64zM47 57h24v10H47z"/><path fill-opacity=".5" d="M43 75h31v29H43zm61.4-49.3l-13 28-11.8-5.4 13-28z"/><path fill-opacity=".5" d="M73 90h5v19h-5zm11.8-58.3l-13.8.1 6.4-29.4L75 13.1z"/><circle r="1" fill-opacity=".5" transform="matrix(2.18155 -6.17191 13.47432 4.76269 56 128.5)"/><circle cx="1" cy="118" r="13" fill-opacity=".5"/><circle r="1" fill-opacity=".5" transform="matrix(-18.03412 13.9649 -4.21251 -5.44 85.5 47)"/><path fill-opacity=".5" d="M16 25l9 8v-4zm-6.8 98.7l6.6-16.4-29.2 31.5 25.9-33.4z"/><ellipse cx="5" cy="54" fill-opacity=".5" rx="5" ry="12"/><path fill-opacity=".5" d="M57 71h4v16h-4zm-46 60h16v1H11zm81-15h6v16h-6zM30.3 23.3l2 38.7 5.9-20.9 6.2 1.4z"/><circle cx="51" cy="81" r="15" fill-opacity=".5"/><circle cx="28" cy="108" r="3" fill-opacity=".5"/><path fill="none" stroke="#000" stroke-opacity=".5" stroke-width=".5" d="M-15.8 44.3q6.5-6.4 17.2 3.3"/><ellipse cx="69" cy="43" fill-opacity=".5" rx="29" ry="8"/><path fill-opacity=".5" d="M28-5L22 5l38-7zm8.3 125.6l-.9-.4 6.3-14.8.9.4z"/><path fill-opacity=".5" d="M14 0h15v6H14z"/><circle cx="91" cy="96" r="9" fill-opacity=".5"/><path fill-opacity=".5" d="M80.5 111.4l4.4-15.3 8.6 2.5-4.4 15.3z"/><ellipse cx="90" cy="3" fill-opacity=".5" rx="4" ry="30"/><path fill-opacity=".5" d="M44 46l15 7-24 8zM6 125h32v3H6zm81-59L69 27l30 33zm-37 9h18v26H50zm46 11.3l-16.8 2.3-1.2-8.9 16.8-2.3zM1.9 45.7l-15 13.6 33.7-27.2-25.3 3.3zM23.8 9.1l37.6-5.4L75 8.2l-18.4-.7z"/><path fill-opacity=".5" d="M68 28l6.9 17.4-18.3-6.6L91.5-9zm-15.1 2l-28.7 4.6 19.3 6.1 5.4-15.5zm12.9 55l10.1.1-2.2-.6 6.5 7.1z"/><path fill="none" stroke="#000" stroke-opacity=".5" stroke-width=".5" d="M44.9 10.4q1.5-.8 30 1.5"/><path fill-opacity=".5" d="M78.8 29.8L95.7 36l-4.5 12.2L74.3 42z"/><circle cx="42" cy="81" r="2" fill-opacity=".5"/><circle r="1" fill-opacity=".5" transform="matrix(24.99129 -5.83799 .33942 1.453 59.7 35)"/><path fill="none" stroke="#000" stroke-opacity=".5" stroke-width=".5" d="M-3.8 46.8Q.9 28.3 2.8 27"/><circle cx="32" cy="120" r="16" fill-opacity=".5"/><ellipse cx="95" cy="41" fill-opacity=".5" rx="8" ry="22"/><path fill-opacity=".5" d="M51 92h14v19H51zM33 82h18v17H33zm56.5-38.5l1 12-12 1-1-12z"/><path fill-opacity=".5" d="M76 43h23v16H76z"/><path fill="none" stroke="#000" stroke-opacity=".5" stroke-width=".5" d="M-16 19.8Q16.2 1.2 29 51.7"/><circle r="1" fill-opacity=".5" transform="rotate(100.5 24 45.5) scale(6.14157 19.49639)"/><path fill-opacity=".5" d="M6.6 30.8l-18.2 5.4 9.3-20.6-12.5 4.8zM49 68h6v33h-6zm27.1-14.4l13.3-2.4-3 2-21.7-5.4z"/><circle r="1" fill-opacity=".5" transform="matrix(1.38716 1.94684 -9.30956 6.63323 11.8 96.2)"/><path fill-opacity=".5" d="M43.8 20.3l-22.7.6L37.2 17l23.9-3.1z"/><circle cx="37" r="22" fill-opacity=".5"/><ellipse cx="26" cy="54" fill-opacity=".5" rx="1" ry="7"/><path fill-opacity=".5" d="M3 70h12v27H3zm73-14l25-19 1 19z"/><ellipse cx="48" cy="50" fill-opacity=".5" rx="31" ry="6"/><ellipse cx="48" cy="47" fill-opacity=".5" rx="19" ry="13"/><circle r="1" fill-opacity=".5" transform="matrix(25.42578 -11.26715 2.78422 6.28295 70.8 106.7)"/><path fill="none" stroke="#000" stroke-opacity=".5" stroke-width=".5" d="M73 124.5Q48.4 142 44.7 140"/><circle r="1" fill-opacity=".5" transform="matrix(6.95871 -1.19861 1.41472 8.21337 56.5 54.3)"/><path fill-opacity=".5" d="M32 129l-8-13 28-11zM21.7 23.9l-4.5 15.7 16-14.6.2-19.2z"/><circle cx="53" cy="7" r="10" fill-opacity=".5"/><path fill-opacity=".5" d="M-16 131l10-29 30-12z"/><circle cx="40" cy="11" r="20" fill-opacity=".5"/><ellipse cx="21" cy="13" fill-opacity=".5" rx="7" ry="1"/><path fill-opacity=".5" d="M78 119l19 9-25-1zM23.5 89.7l13.1 8.2L8.1 100l-9.4 12zm18.8-76.4l-9.8-2.1 5.2-24.5 9.8 2.1z"/><path fill-opacity=".5" d="M67 107h19v23H67zm-64-2.8l1.7 2.5-1.7 1.1-1.7-2.5z"/><ellipse cx="41" cy="45" fill-opacity=".5" rx="4" ry="19"/><circle cx="15" cy="22" r="6" fill-opacity=".5"/><path fill-opacity=".5" d="M92 20h7v13h-7zm-29.2-6l1 1.7L43.2 28l-1-1.7z"/><ellipse cx="98" cy="30" fill-opacity=".5" rx="25" ry="21"/><path fill-opacity=".5" d="M12.7 60.3l13.3-8L9 74.7l5.7-2.8z"/><ellipse cx="96" cy="10" fill-opacity=".5" rx="20" ry="21"/><path fill-opacity=".5" d="M60.8 16.3L35.5 4.5l9.7-20.8L70.5-4.5z"/><path fill-opacity=".5" d="M65 5.8l-15.3 17-.8-.6 15.4-17z"/><path fill="none" stroke="#000" stroke-opacity=".5" stroke-width=".5" d="M5.8 26.5q8 4 8.4 12"/><ellipse cx="31" cy="95" fill-opacity=".5" rx="21" ry="4"/><ellipse cx="31" cy="119" fill-opacity=".5" rx="20" ry="9"/><path fill-opacity=".5" d="M0 28h5v13H0z"/><circle cx="10" cy="41" r="4" fill-opacity=".5"/><path fill-opacity=".5" d="M4 109l12 8-26-5zm72.8-17.7l19-6.2-11-11.8-12.2 2.8z"/></g></g></svg>