<svg xmlns="http://www.w3.org/2000/svg" viewBox="0 0 1400 917"><defs/><filter id="a"><feGaussianBlur stdDeviation="12"/></filter><rect width="100%" height="100%" fill="#6b3c45"/><g filter="url(#a)"><g fill-opacity=".5" transform="translate(2.7 2.7) scale(5.46875)"><circle r="1" fill="#ffffe9" transform="matrix(65.68934 -84.7852 178.07298 137.96627 161 37.2)"/><ellipse cx="97" cy="73" fill="#f6ffec" rx="31" ry="83"/><path d="M267.8 94.5l-.6 30-57-1 .6-30z"/><path fill="#fff" d="M14 67h16v80H14z"/><circle r="1" transform="matrix(-6.2231 -66.45165 16.8218 -1.57534 48.7 124.7)"/><ellipse cx="186" cy="138" fill="#fffff8" rx="26" ry="53"/><path d="M243.3 156.3l-31-.6.4-18 31 .6z"/><ellipse cy="47" fill="#fff9c4" rx="24" ry="23"/><ellipse cx="119" cy="154" fill="#343528" rx="43" ry="27"/><path fill="#fffff8" d="M121 87h77v37h-77z"/><ellipse cx="19" cy="166" rx="33" ry="21"/><path fill="#2c2a17" d="M128 48h27v38h-27z"/><path fill="#856e1f" d="M212-7v46h-52V-7z"/><circle r="1" transform="matrix(-14.45098 -.8365 2.16329 -37.3719 0 112.7)"/><ellipse cx="198" cy="43" fill="#fff" rx="87" ry="4"/><path fill="#edfef2" d="M71 65h7v102h-7z"/><ellipse cx="229" cy="90" fill="#fff" rx="157" ry="4"/><ellipse cx="245" cy="166" fill="#fff" rx="84" ry="10"/><circle r="1" fill="#5b522e" transform="matrix(16.03681 -12.39466 20.11226 26.02223 46.8 64.3)"/><path fill="#c1b39c" d="M102 97h16v70h-16z"/><path d="M36 70h18v75H36z"/><path fill="#f5f0ff" d="M210 123h46v16h-46z"/><ellipse cx="92" cy="50" fill="#a87f56" rx="111" ry="6"/><ellipse cx="88" cy="14" fill="#fffffd" rx="18" ry="30"/><path fill="#201b00" d="M212.5 122.5v-25h33v25z"/><ellipse cx="88" cy="107" fill="#fffff1" rx="17" ry="20"/><path d="M120 153l18 29v-45z"/><path fill="#ffd100" d="M246 97h9v23h-9z"/><path fill="#814d01" d="M151 97h9v24h-9z"/><path fill="#a7856d" d="M210 137l-30 1 24-45z"/><circle r="1" fill="#a49868" transform="matrix(-19.48916 2.54298 -8.63317 -66.16383 44.1 5.7)"/><circle cx="135" cy="15" r="24" fill="#d0bf75"/><ellipse cx="158" cy="135" fill="#b27b3f" rx="52" ry="4"/><circle r="1" fill="#d8d3e8" transform="matrix(6.3331 1.43846 -6.27134 27.6109 23.2 98)"/><path fill="#f0e4a3" d="M191 40h33v46h-33z"/><path fill="#1c0064" d="M98 32h10v8H98z"/><path fill="#2e2500" d="M212 138h25v17h-25z"/><circle r="1" fill="#34425e" transform="rotate(-109.7 103 47) scale(22.40261 20.635)"/><path fill="#9e7553" d="M155 46h36v41h-36z"/><path d="M0 146h42v21H0z"/><path fill="#4c613e" d="M56 89h16l-5 56z"/><path fill="#c1c0d6" d="M12 131h23v14H12z"/><path fill="#edb49d" d="M-7.2 61.2l6-28.4 28.4 6-6 28.4z"/><path fill="#9c8e71" d="M-16 21.6v17.5L34.8 36l56-52z"/><ellipse cx="116" cy="142" fill="#fff" rx="1" ry="96"/><path fill="#8f5c33" d="M113 3h10v27h-10z"/><path fill="#000002" d="M57 84.5v51H33v-51z"/><path fill="#fff" d="M123 0h5v42h-5z"/><circle r="1" fill="#00151d" transform="matrix(3.14803 -52.98734 8.86065 .52642 2.3 122.2)"/><ellipse cx="192" cy="34" fill="#e6e3dc" rx="2" ry="40"/><ellipse cx="96" cy="128" fill="#dec079" rx="27" ry="7"/><ellipse cx="216" cy="43" fill="#f9fefc" rx="103" ry="4"/><path d="M145 138h4v29h-4z"/><path fill="#966123" d="M104.5 94.5h7v25h-7z"/><path fill="#460097" d="M245 138h10v9h-10z"/><path fill="#f2f5e7" d="M113 87h39v37h-39z"/><ellipse cx="231" cy="163" fill="#fcffff" rx="35" ry="7"/><path fill="#f9fefb" d="M211.1 135.7l13.6.2-14.7-14.7-22.5-4.7z"/><circle r="1" fill="#8fb4a9" transform="rotate(-35.6 140.3 -393) scale(41.58215 25.88907)"/><ellipse cx="217" cy="16" fill="#8f7147" rx="6" ry="24"/><path fill="#fff" d="M207 92h4v29h-4zm-44 27h25v13h-25z"/><path fill="#020612" d="M47.4 82.5l-24-14.4 5.2-8.6 24 14.4z"/><path fill="#d4a807" d="M214 141h26v4h-26z"/><path fill="#fff" d="M15 76h7v21h-7z"/><path d="M76 155l22-4-20 18z"/><path fill="#3a3a3a" d="M158 75.6L125.5 87l32.9-.4-4-30z"/><path fill="#a1a7be" d="M96.4 175.8l-4.6-2 15.8-35.6 4.6 2z"/><path fill="#996d29" d="M198 96h8v24h-8z"/><path fill="#fff" d="M243 134h3v29h-3z"/><ellipse cx="72" cy="130" fill="#fff" rx="1" ry="142"/><path fill="#826821" d="M160 12h25v23h-25z"/><path fill="#030000" d="M118 138h7v29h-7z"/><ellipse cx="158" cy="23" fill="#fff" rx="1" ry="74"/><path fill="#a99e79" d="M71 89L24 20 70 6z"/><path fill="#2b0000" d="M145 129l-7 12v-14z"/><path fill="#753aa3" d="M230 131h24v4h-24z"/><path fill="#e4e5e4" d="M103 69l22-5 13 73z"/><path fill="#fffffc" d="M183 87h73v7h-73z"/><path fill="#a58661" d="M162 46h94v9h-94z"/><path fill="#3c330b" d="M211 138h32v15h-32z"/><path fill="#5e382e" d="M24 45h11v27H24z"/><ellipse cx="104" cy="45" fill="#9e753e" rx="25" ry="2"/><path fill="#000004" d="M113 126h2v16h-2z"/><path fill="#dcaf5c" d="M134.2 114.6l8 11.3 20-2.7-2.3 31.5z"/><path fill="#fff" d="M73 29h53v4H73z"/><path fill="#f9ffff" d="M71 56h56v6H71z"/><path fill="#142b31" d="M-7 84l26-12-5-9z"/><circle r="1" fill="#544c2c" transform="matrix(16.87554 20.74538 -7.60774 6.18859 60.7 166)"/><path fill="#fff" d="M99.3-16l5.8 26.5 5 37.7 3.7-57.9z"/><path fill="#828788" d="M224 160h18v4h-18z"/><path fill="#38310c" d="M212 95h33v25h-33z"/><path fill="#876554" d="M75 63h45v2H75z"/><path fill="#b7b79d" d="M162 82l25-15-19-18z"/><path fill="#1a1102" d="M116.8 182l16.7-40.2 28.6 40.2-.9-24.5z"/><path fill="#faedd3" d="M86 145h3v9h-3z"/><path fill="#dbe0df" d="M162 139h49v28h-49z"/><path fill="#997c6b" d="M168 144h30v3h-30z"/><path fill="#8f8797" d="M27.5 122.1L18 144l19.1-.1-7.6-29.7z"/><path fill="#d57b5c" d="M146.6 157.1l-9.5-1.9 8-9.5-7.9-7.6z"/></g></g></svg>