<svg xmlns="http://www.w3.org/2000/svg" viewBox="0 0 805 1400"><defs/><filter id="a"><feGaussianBlur stdDeviation="12"/></filter><rect width="100%" height="100%" fill="#4a6976"/><g filter="url(#a)"><g fill-opacity=".5" transform="translate(2.7 2.7) scale(5.46875)"><ellipse cx="56" cy="131" fill="#faebcc" rx="139" ry="182"/><circle r="1" fill="#bbbfb2" transform="matrix(41.3933 25.79875 -48.8388 78.36034 119.1 94.9)"/><circle cx="51" cy="201" r="20" fill="#697e82"/><ellipse cx="15" cy="83" fill="#8f958f" rx="36" ry="88"/><circle r="1" fill="#7c9496" transform="matrix(-.4773 -21.5956 67.60576 -1.49419 90.8 255)"/><circle r="1" fill="#999f99" transform="matrix(-21.86993 62.84394 -17.0009 -5.91638 107.9 155.3)"/><path fill="#8e8e83" d="M85 38l18-54-72 8z"/><path fill="#bac1b4" d="M30.2 193l8.5 40-47 10-8.4-40z"/><path fill="#c3bba7" d="M19.6 48.8L31.2 30l38.7 54.6 9.3-79.1z"/><path fill="#819091" d="M80 178h52v20H80z"/><ellipse cx="141" cy="146" fill="#b2c0b9" rx="16" ry="49"/><path fill="#718687" d="M.6 128.3l-22.4-15.1L-.6 81.7l22.4 15.1z"/><path fill="#acb9b3" d="M68 201h70v29H68z"/><circle r="1" fill="#c3c0ad" transform="rotate(111.4 -29 99.8) scale(7.36143 31.54814)"/><path fill="#c7c3b2" d="M108 41h39v37h-39z"/><path fill="#638283" d="M-16 76l51-23-37 5z"/><path fill="#8d8e87" d="M126 65h4v70h-4z"/><path fill="#c6c6b4" d="M113 131L90 73l25-7z"/><path fill="#8e928d" d="M-16 127.8l61.9-.8 15.3 17.3-49.2 9z"/><circle r="1" fill="#6d7a7a" transform="rotate(-3.7 3307 -433.4) scale(7.85925 3.10059)"/><path fill="#b3af9e" d="M121.4 63.8L81.2 51.5l11.4-37.3 40.2 12.3z"/><path fill="#748181" d="M34 173h7v29h-7z"/><path fill="#b1b4a5" d="M3 78l32-32 4 32z"/><circle r="1" fill="#c3c6b6" transform="matrix(7.12623 -.88762 3.08695 24.78351 72 158.8)"/><path fill="#91a7a3" d="M117.2 16.7l19-17.7 24.6 26.3-19 17.7z"/><path fill="#b2c0b8" d="M64 252h51v4H64z"/><path fill="#9ab5b6" d="M70.9 97.5l17-.9 3.2 62-17 .8z"/><path fill="#b6b9ad" d="M39.5 211.7l-53.2-60.3 28.9 3.3-31.2 23.6z"/><ellipse cx="104" cy="41" fill="#c6c4b2" rx="57" ry="3"/><ellipse cx="95" cy="61" fill="#95948a" rx="12" ry="5"/><path fill="#728281" d="M36.7 70.7l.6-12 12 .6-.6 12z"/><path fill="#6c7f79" d="M101.1 244.4l9.7-2.2-11.6 6.2-34.4 2.1z"/><path fill="#4c595c" d="M12 161h3v12h-3z"/><path fill="#7d837d" d="M97.2 5.9L46.5-10.2 68 11.2 102.6-16z"/><path fill="#a6a79d" d="M7 107h36v30H7z"/><ellipse cx="72" cy="73" fill="#cbc4af" rx="32" ry="3"/><path fill="#85867f" d="M88 27l2 11-30-9z"/><ellipse cx="6" cy="49" fill="#9bb2b3" rx="26" ry="7"/><ellipse cx="49" cy="37" fill="#cbbea7" rx="25" ry="4"/><path fill="#8da6a5" d="M129 233l-64 14-24-28z"/><path fill="#587a84" d="M87 181l-4 17 8-4z"/><path fill="#7a8d8a" d="M56.3 271l-1.6-32.6L-2.6 271H13z"/><circle r="1" fill="#829797" transform="rotate(178.9 49.6 88) scale(1.78186 48.23999)"/><path fill="#bbb6a4" d="M107 122h11v53h-11z"/><path fill="#809fa0" d="M-16 252v-15l56 3z"/><path fill="#849996" d="M22.4 125.5l6.9-23.8 47.2-1.7L9.3 87.3z"/><path fill="#d8c8b1" d="M66.8 61l-9.6-2.8 6-21.2 9.6 2.8z"/><path fill="#a1aba4" d="M46.7 184.8l9.3-56.2 14.9 63.7-74-1.3z"/><path fill="#acac9f" d="M61 3l-2 70-24-51z"/><path fill="#76807f" d="M4 143l-13-22 21 7z"/><path fill="#898681" d="M8 23h23v10H8z"/><path fill="#658589" d="M24.5 55.6l4 28.7-1 .1-4-28.7z"/><path fill="#738b8a" d="M41.3 215.6l16.3-4.2-2.1 28 11.4-7.3z"/><path fill="#7d8c8c" d="M20 6.7l-33.7-9.1L-2 69.4l5.8-56.1z"/><path fill="#788e90" d="M54.9 186.7l-13.2 45.1 14.1-23.7-25.1-40.7z"/><path fill="#c9c7b1" d="M87.1 128.7L90 106l11 1.4-3 22.6z"/><ellipse cx="52" cy="82" fill="#928e85" rx="12" ry="6"/><path fill="#82928e" d="M93 135l-2 8 28 6z"/><circle r="1" fill="#bbc0b1" transform="rotate(-169.6 25.2 113.8) scale(26.39678 4.93048)"/><path fill="#525a57" d="M-.7 117.8l5.6-4 1.8 2.4-5.6 4z"/><path fill="#9c9e92" d="M138 27l-21-8-8 20z"/><circle r="1" fill="#aeb3a6" transform="matrix(.07892 1.9138 -46.35187 1.91147 61.3 205.4)"/><path fill="#dbd9c6" d="M116 89h7v9h-7z"/><path fill="#bdb9aa" d="M15.8 153.7L-16 172.8 34 147l9.3 22.6z"/><circle r="1" fill="#93928c" transform="matrix(-17.9171 11.81415 -6.4508 -9.78316 135 251.1)"/><path fill="#beb5a2" d="M-4.2 7L-16 28.1l28.1-10L7.7 35z"/><path fill="#5f7d80" d="M87 243l11-11-8 1z"/><path fill="#9eaeaa" d="M93 223l24 17 45-82z"/><path fill="#b0beb8" d="M58 218h57v7H58z"/><path fill="#9a958f" d="M114 54h11v9h-11z"/><path fill="#bbb9a7" d="M103.1 26.3L91.6 5l-5.2 18.6L162 43.2z"/><path fill="#8a8f89" d="M129.4 109.2l-6-.6 3.2-29.8 6 .6z"/><path fill="#6b7e80" d="M68 218l-2-9-18 6z"/><path fill="#767d7a" d="M28 138.2l-4.9 16.3-7-10.7 14.6-4.8z"/><path fill="#7d9a9d" d="M67.4 58.1l13-.2.2 8-13 .2z"/><path fill="#cfcbb8" d="M72 198h11v8H72z"/><path fill="#c3c1af" d="M34 237l-13 4 19-31z"/><path fill="#c4c4b2" d="M58.2 129.4L74.8 193l.9-23.6-7.3-55.6z"/><path fill="#9baaa5" d="M34.4 147.2l7.5-78.5-16.8 15.8 18.7 79.9z"/><path fill="#b2af9e" d="M10.2 78.9L-16 57.6l35.9 12.2L27.1 83z"/><path fill="#96a19f" d="M75 175h26v12H75z"/><path fill="#8a928c" d="M45 24.4l-.5-2L85 11.7l.5 2z"/><path fill="#e1d4b9" d="M4 121h6v4H4z"/><ellipse cx="93" cy="46" fill="#47879e" rx="8" ry="1"/><path fill="#b5b3a3" d="M124 203h14v36h-14z"/><path fill="#86948d" d="M82-5L45-16l-6 31z"/><path fill="#6a7f7d" d="M.6 61.4l19.7-8L9 72.4l3.2-7.1z"/><path fill="#89928f" d="M134.2 151.1l.1 1-42.5 6.8-.1-1z"/><ellipse cx="93" cy="210" fill="#c0c1b2" rx="5" ry="13"/><path fill="#bab8a6" d="M71.2 113.6l-37.7 58.7 21-4.2 4.2-50.7z"/><path fill="#6f8589" d="M81.1 216.3l8.8-32.9 1 .3-8.8 32.9z"/><path fill="#bebeb2" d="M-16.2 186l.7-5.9 47.7 5.8-.7 6z"/><circle r="1" fill="#c6c7b6" transform="matrix(-.9172 3.88951 -44.03102 -10.38307 136.8 49.6)"/><circle r="1" fill="#bcbeae" transform="rotate(94.3 -37.2 151.8) scale(4.63454 6.79094)"/><path fill="#b9b7a6" d="M96.9 40.7l-15.3 51-28.8-8.8 4.6 9.6z"/><path fill="#afb9b2" d="M65.2 237.1l15.2 4.2-7.7-13 3.4-10.5z"/><path fill="#b9b7a9" d="M45 69h2v40h-2z"/><path fill="#878d8a" d="M22 0h9v22h-9z"/><path fill="#808784" d="M50.7 186.5l-26.9 8.7 52.8 4.6-48.7 1z"/><path fill="#888d88" d="M48.9 139.4l9.4 5.8-14.4-17-2 24.2z"/></g></g></svg>