<svg xmlns="http://www.w3.org/2000/svg" viewBox="0 0 1400 917"><defs/><filter id="a"><feGaussianBlur stdDeviation="12"/></filter><rect width="100%" height="100%" fill="#4b3d36"/><g filter="url(#a)"><g fill-opacity=".5" transform="translate(2.7 2.7) scale(5.46875)"><circle r="1" fill="#fff" transform="matrix(-42.12784 140.4194 -244.24473 -73.27693 126.4 21.2)"/><circle r="1" fill="#fff" transform="matrix(11.46354 206.81749 -43.10859 2.38944 226.8 116)"/><circle r="1" fill="#ffffed" transform="matrix(-8.9689 -81.2393 45.98352 -5.07663 9.2 59.4)"/><circle cx="255" cy="75" r="84" fill="#fff"/><path fill="#010000" d="M137 94h47v29h-47z"/><circle r="1" fill="#fffee8" transform="matrix(3.3149 -53.57544 27.53237 1.70353 112.6 134.1)"/><circle r="1" fill="#320700" transform="matrix(-7.34273 18.45148 -20.63736 -8.2126 66.4 149.5)"/><ellipse cx="224" cy="117" fill="#fff" rx="42" ry="165"/><path d="M138 138h34v16h-34z"/><path fill="#fffff6" d="M40 87h78v38H40z"/><circle r="1" fill="#ab8a4e" transform="matrix(33.87423 -76.80317 37.82498 16.6828 103.2 7.8)"/><path fill="#fff" d="M182 40v6H54v-6zm-14.4 114.9L246.9-16 271 174.4l-190.1-8.2z"/><circle r="1" fill="#857f82" transform="matrix(-11.163 8.35099 -15.73547 -21.03404 27 147.2)"/><path fill="#3f383b" d="M55 49h30v39H55z"/><path fill="#ffe7a6" d="M118 44h32v51h-32z"/><circle cx="62" cy="16" r="25" fill="#deca91"/><path fill="#fff" d="M0 87h256v7H0z"/><path fill="#ffefff" d="M137 124h40v13h-40z"/><path fill="#b2865b" d="M33.2 40.2l31.2 14.4-64 2.2-16.4-8.2z"/><path fill="#180c00" d="M138 144h33v12h-33z"/><path fill="#4c3700" d="M139 94h43v29h-43z"/><path fill="#b48140" d="M78 97h11v67H78z"/><circle r="1" fill="#fffff7" transform="matrix(-19.89997 -15.54756 20.97304 -26.84427 11.3 13.7)"/><ellipse cx="212" cy="36" fill="#fff" rx="29" ry="166"/><path fill="#7c6212" d="M113 8v30H87V8z"/><path fill="#a89244" d="M174 48h10v76h-10z"/><path fill="#8f520d" d="M125 95h9v24h-9z"/><circle r="1" fill="#cca061" transform="rotate(-176.7 30.6 65.1) scale(85.31944 6.47023)"/><path fill="#020200" d="M44.2 141l20.8-2.6 4.8 38.7-20.8 2.5z"/><path fill="#894a01" d="M31.1 119.4l.8-21 7 .2-.8 21z"/><path fill="#a46c45" d="M102 72h27v15h-27z"/><circle cx="30" cy="36" r="5" fill="#210067"/><path fill="#380070" d="M174 138h9v10h-9z"/><path fill="#e6e1dc" d="M9.3 134.1l-6.7 32.4-9.7-111.1 59.2 1.2z"/><path fill="#8d5722" d="M49.2 26.3l-10-.7 1.6-22 10 .8z"/><path fill="#fff" d="M130 157h126v10H130zm-47-36h31v11H83z"/><path fill="#320076" d="M116 123h7v8h-7z"/><circle r="1" fill="#2d2e40" transform="matrix(5.29747 5.82757 -14.10912 12.82571 15.1 148.8)"/><ellipse cx="79" cy="42" fill="#fff" rx="212" ry="2"/><path fill="#fff" d="M84.7 96l1.6-96h1l-1.6 96zm-43.6 39.6h1l2.8 38.8h-1z"/><ellipse cx="52" cy="6" fill="#f8f8f6" rx="3" ry="117"/><ellipse cx="136" cy="129" fill="#fff" rx="2" ry="44"/><ellipse cx="179" cy="90" fill="#fff" rx="46" ry="4"/><path fill="#935f44" d="M49 47h85v6H49z"/><path fill="#fcfaea" d="M51 87h27v35H51z"/><path fill="#9b734f" d="M123 0h27v38h-27z"/><path fill="#fff" d="M170 136h3v27h-3z"/><ellipse cx="118" cy="27" fill="#fff" rx="1" ry="95"/><path fill="#c5bbb6" d="M42.5 142.6l-16.1 21 6.3-31.4L.3 112.6z"/><ellipse cx="214" cy="27" fill="#fff" rx="31" ry="165"/><path fill="#f3a887" d="M58 131l-6 8 3 11z"/><path fill="#dfab00" d="M172 101h10v19h-10z"/><path fill="#00000e" d="M3 160.7l18.4-9.1-.2 11.7-18.1 2.6z"/><ellipse cx="23" cy="64" fill="#8f705f" rx="22" ry="2"/><circle r="1" fill="#786853" transform="matrix(.99926 -.03839 1.15506 30.06705 41.3 130.2)"/><path fill="#c89900" d="M138 141h28v4h-28z"/><path fill="#fcf6e9" d="M0 95h31v26H0z"/><path fill="#1c0000" d="M71 128l-6 2v12z"/><path fill="#fff" d="M217.5 139.2l-79-1.4v-3l79 1.4z"/><path fill="#dbc9ae" d="M14 142.6l4.9 1.2-3 11.6-4.8-1.2z"/><path fill="#9d753f" d="M0 44h54v3H0z"/><path fill="#dbf9ff" d="M62 116h3v23h-3z"/><path fill="#fff" d="M258.6-16l-56.2 133.7-29 8.4 80.7 55.9z"/><ellipse cx="123" cy="44" fill="#fff" rx="79" ry="2"/><path fill="#aba28a" d="M150 47h34v38h-34z"/><ellipse cx="73" cy="155" rx="2" ry="19"/><path fill="#9665b9" d="M156 135l24-4-30-4z"/><path fill="#281f18" d="M45 159h44v8H45z"/><path fill="#e6e6e9" d="M89 147h50v20H89z"/><path fill="#a2523f" d="M111 53h7v34h-7z"/><path fill="#f08c67" d="M73 155l-3-22-5 19z"/><path fill="#a98154" d="M74 132h63v7H74z"/><path fill="#272511" d="M143 95h30v28h-30z"/><ellipse cx="150" cy="29" fill="#fff" rx="1" ry="64"/><ellipse cx="51" cy="133" fill="#280000" rx="2" ry="6"/><path fill="#fff" d="M95 130h52v2H95z"/><path fill="#a8c1b2" d="M166 0h18v40h-18z"/><circle r="1" fill="#b9a995" transform="matrix(-3.32646 -11.08767 13.49293 -4.04807 102.2 72.3)"/><path fill="#91632a" d="M3 54h55v2H3z"/><path fill="#e5cd8a" d="M85 119l-5 31 11-13z"/><path fill="#9c9e9f" d="M148 161h27v4h-27z"/><path fill="#777381" d="M-16 182l26.4-52.3-7.7 39.4 32.1-7.7z"/><path fill="#413b37" d="M55 77h28v10H55z"/><path d="M52 152l10-14 5 17z"/><ellipse cx="81" cy="109" fill="#987545" rx="4" ry="12"/><path d="M139 153.4l32 2.2v1l-32-2.2z"/><path fill="#03060b" d="M25 135h4v19h-4z"/><ellipse cx="30" cy="31" fill="#fff" rx="25" ry="2"/><path fill="#f9ffff" d="M95 139h40v4H95z"/><path fill="#545e9a" d="M20 136h6v31h-6z"/><circle r="1" fill="#701794" transform="rotate(-127.3 24 11.5) scale(5.97567 3.53461)"/><path fill="#000008" d="M182 103h2v19h-2z"/><path fill="#fff" d="M182 128h74v39h-74zM43 73h1v94h-1z"/><path fill="#92735f" d="M4 79h45v2H4z"/><path fill="#2c2b32" d="M40 124h2v27h-2z"/><path fill="#cdb880" d="M120 47h20v39h-20z"/></g></g></svg>