<svg xmlns="http://www.w3.org/2000/svg" viewBox="0 0 805 644"><defs/><filter id="a"><feGaussianBlur stdDeviation="12"/></filter><rect width="100%" height="100%" fill="#4a6875"/><g filter="url(#a)"><g fill-opacity=".5" transform="translate(1.6 1.6) scale(3.14453)"><circle r="1" fill="#fcedce" transform="matrix(-158.88996 44.64343 -48.1072 -171.21783 124.7 92.5)"/><circle cx="145" cy="150" r="79" fill="#b9bcb0"/><circle cx="166" cy="10" r="78" fill="#8f968f"/><circle r="1" fill="#677c81" transform="rotate(95.4 -12.3 52.6) scale(25.95643 21.78259)"/><path fill="#7d8a8c" d="M43 108h21v69H43z"/><ellipse cx="255" cy="61" fill="#8f9189" rx="23" ry="83"/><circle r="1" fill="#c2baa6" transform="matrix(12.49766 20.2137 -25.96088 16.051 216.7 77.5)"/><circle r="1" fill="#b8beb2" transform="matrix(-9.99783 -33.13426 47.23319 -14.252 13.4 17.4)"/><circle r="1" fill="#9da098" transform="matrix(60.58792 24.35336 -7.5312 18.73664 98.3 156.1)"/><path fill="#cfceba" d="M105.2 80.6l6.7 15.7-45.1 19.1L60 99.7z"/><path fill="#887d71" d="M215 106h25v17h-25z"/><circle r="1" fill="#bdc0b1" transform="matrix(17.7034 -16.32957 54.0463 58.59324 187.6 178.7)"/><path fill="#738a8b" d="M153 49l13-65-41 17z"/><path fill="#57787a" d="M195.7 39.8l-1.5-49.6-3.3 2.3-5.5 21.3z"/><ellipse cx="157" cy="177" fill="#808580" rx="21" ry="5"/><path fill="#838481" d="M69 17h39v17H69z"/><path fill="#82908c" d="M80 47l-56-7-32 51z"/><ellipse cx="140" cy="203" fill="#b2c0b9" rx="92" ry="21"/><path fill="#c5bea9" d="M72 52l23-18-17 87z"/><path fill="#709398" d="M-3 146.1l7.9-48.3 3.2 41.7-24.1 33.8z"/><circle r="1" fill="#aebbb6" transform="rotate(-157.2 23.4 56.7) scale(15.131 26.5582)"/><ellipse cx="189" cy="121" fill="#929b94" rx="6" ry="29"/><path fill="#aeafa2" d="M189.6-16l62.8 105.8-79.7-49.5 45.7-5.8z"/><ellipse cx="176" cy="82" fill="#c0bca9" rx="5" ry="154"/><path fill="#748483" d="M179 51h24v13h-24z"/><path fill="#7b8684" d="M106.1 14.2l71.1-29.7-76.9 18.8-7 66.9z"/><path fill="#9ab5b7" d="M87 100h67v23H87z"/><path fill="#787f79" d="M245.1 88.8l23-17.8-14.7 57 17.6 36.1z"/><path fill="#899d9b" d="M95.1 124l16.2 4.5-7.7 15-86.2-1.3z"/><path fill="#658389" d="M26 117l36 11-10-14z"/><path fill="#c3c1b0" d="M101 150h111v10H101z"/><path fill="#7e8381" d="M93 55l23 5-9 15z"/><path fill="#d0c4ad" d="M208.2 180.3l1.9-75.8-30.7-29.1 39.7 12.2z"/><path fill="#a1a397" d="M187 170.9l-32.4 17.4 41.6-15.4 36-103.9z"/><path fill="#92a8a4" d="M241 163l30 34-65 1z"/><path fill="#a8aea7" d="M197 42l-66 18-25-19z"/><circle r="1" fill="#6b8082" transform="matrix(-3.6757 -.04435 .22597 -18.72792 22.7 79)"/><path fill="#86827e" d="M221 12h10v32h-10z"/><path fill="#a8b5af" d="M5 142h37v48H5z"/><ellipse cx="33" cy="55" fill="#abb1a5" rx="3" ry="33"/><path fill="#abaa99" d="M215 124.6l34 3-4 45.8-34-3z"/><path fill="#d5c4a9" d="M212 34h5v44h-5z"/><path fill="#7c8580" d="M147 66h49v4h-49z"/><path fill="#616e6d" d="M65 20h20l-8-6z"/><path fill="#b4b2a4" d="M119 3l4 24 21-8z"/><path fill="#738f91" d="M45 101l17-8-39-6z"/><path fill="#bcc0b0" d="M.5 12.3l33-5.2L-16 60.4l40.8-5.7z"/><path fill="#9baeab" d="M199.5 62.6L198 19.1 187.1-8.4l34.9 18z"/><path fill="#bbb6a8" d="M84.3-16l7.4 21.1-3 53.3L78.2-7.7z"/><path fill="#b9bdaf" d="M112 73h32v25h-32z"/><path fill="#6c7a7b" d="M25 38h4v32h-4z"/><path fill="#9cb1af" d="M51.1 81.2l25.2-26.4-12.8 48.8-27.6-39.8z"/><path fill="#707471" d="M33.2 52.5l-13.1 2.7 22.2-9.6 6.5 9.8z"/><path fill="#5e7c7f" d="M209 4v-8h18v8z"/><path fill="#96988f" d="M219 133.9l-18.8-43.4-.9 20.9 32.7 12.8z"/><path fill="#b7bfb6" d="M109.9 170.8l1.2 21.1-40.5-20.3-21.3 19.9z"/><path fill="#a2a89e" d="M223 47l37-8-42 60z"/><path fill="#cdc9b1" d="M137 137l-25-4 12-14z"/><path fill="#93948e" d="M43.9-16l-1.5 35.7 5.8-1.3L51.1 9z"/><path fill="#9b9d96" d="M94 177l24-15-66 6z"/><ellipse cx="241" cy="171" fill="#838a80" rx="2" ry="22"/><path fill="#919690" d="M98.8 131.5l-4 19 34.6-12-34.4-4.1z"/><path fill="#b9bcae" d="M84.8 161.6l-18.2-6.3 28.3-6.1 7.9-80.2z"/><path fill="#728586" d="M51 112l-2.8 21.1-5.8 17.5-.6-39.5z"/><path fill="#ccc4ac" d="M176 141.7l-9.4-5.7 15.4-25.7 9.4 5.7z"/><path fill="#6c898c" d="M163 37l31.6-5 .4 3-31.6 5z"/><path fill="#c3bba6" d="M223 157l8-41 11 10z"/><path fill="#cacab8" d="M7.7 66.9l-.3 5.8L-16 90.6V53.7z"/><path fill="#cac8b6" d="M212.3 183l-.1-64.3L196 219l-17.5-14.8z"/><ellipse cx="145" cy="3" fill="#7c8986" rx="46" ry="3"/><path fill="#8a8d84" d="M214.2 123.4l3.7-21.1 48.5 45.5L271 108z"/><path fill="#768688" d="M243.4 4l5 20.7 9-36.4 13.6 1z"/><path fill="#bcb5a2" d="M226.5 11l-2.9-17.2L236 30.7 233.6-3z"/><path fill="#bfc2b3" d="M14 126h28v9H14z"/><circle r="1" fill="#b7b8af" transform="matrix(-3.64363 -.41358 2.42168 -21.33497 53.9 31.3)"/><path fill="#9aadab" d="M-1.8 157.4l10.3-37.6 46.9 64.1L69.9 210z"/><path fill="#959188" d="M166 59h8v33h-8z"/><path fill="#cfcbb7" d="M33 98h9v13h-9z"/><path fill="#93aeb2" d="M174 194l-13 23-9-30z"/><path fill="#d8c6ac" d="M172.3 169.4l13.3-2.2-.7-16.2-21.9 16.3z"/><path fill="#88827e" d="M96 35h28v5H96z"/><path fill="#a8b2ab" d="M40 107l60.6 20.3-48.8-9.7 23.9-30.8z"/><path fill="#739da6" d="M205 119h4v20h-4z"/><path fill="#b7b4a3" d="M0 175h36v16H0z"/><path fill="#545d5b" d="M127 2l5-6-1 13z"/><path fill="#698389" d="M99.9 136.4l-43.6 6.2-.2-1 43.6-6.2z"/><path fill="#778d90" d="M69.5 62.5l-4.3-22.7-13 36.2-44.4-.1z"/><path fill="#7b9c9f" d="M183 106l3-14 10 23z"/><path fill="#8e9d9b" d="M34.8 128.9l-14-17.9 8.4 3.6 2.6-20.5z"/><path fill="#9b9c92" d="M210.7 80.7l-7.6 5-15.8-24.4 7.6-5z"/><path fill="#b6bbad" d="M237 91l12 10-3 11z"/><path fill="#939b97" d="M118.2 21.3l23.9-19.4 2.1-17.9 4.6 32.8z"/><path fill="#7f9694" d="M15.4 78L-.2 76.7l7.3 19.5L29.5 50z"/><path fill="#94a4a1" d="M196.4 50.9L95.5 20.4l17.9-4.2 34.8 41.2z"/><path fill="#afb7ab" d="M8 81h32v3H8z"/><path fill="#bfbaa9" d="M166 25h18v9h-18z"/><path fill="#dfd2b5" d="M212.5 146l-5.9-19.1 3-.9 5.8 19.1z"/><path fill="#80a0a3" d="M12 29h13v7H12z"/><path fill="#b1afa0" d="M232 21h24v9h-24z"/><path fill="#557275" d="M1 124h3v13H1z"/></g></g></svg>