<svg xmlns="http://www.w3.org/2000/svg" viewBox="0 0 1400 917"><defs/><filter id="a"><feGaussianBlur stdDeviation="12"/></filter><rect width="100%" height="100%" fill="#4b3d36"/><g filter="url(#a)"><g fill-opacity=".5" transform="translate(2.7 2.7) scale(5.46875)"><circle r="1" fill="#fff" transform="rotate(-74.1 91.8 -57.8) scale(120.28908 255.00001)"/><circle r="1" fill="#fff" transform="rotate(-89.4 155.2 -74.6) scale(255 46.09438)"/><path fill="#fff4df" d="M3-16l-19 118 177 73z"/><ellipse cx="224" cy="84" fill="#fff" rx="41" ry="166"/><path fill="#030000" d="M139 94h44v30h-44z"/><path fill="#392310" d="M54.7 86.7l.6-38 34 .6-.6 38z"/><path fill="#380b00" d="M45 126h39v41H45z"/><circle r="1" transform="matrix(.18775 8.96316 -15.68572 .32857 155.3 146.4)"/><circle r="1" fill="#fff4cc" transform="matrix(-36.70017 30.92346 -9.89943 -11.74871 113 102.6)"/><circle cx="115" cy="11" r="29" fill="#976e1c"/><circle r="1" fill="#f4f1e6" transform="matrix(24.79477 12.3611 -25.24947 50.64715 0 107.6)"/><path fill="#fff" d="M84 156h172v11H84z"/><circle r="1" fill="#fff" transform="matrix(-15.47098 32.40524 -37.4569 -17.88275 0 7.2)"/><circle r="1" fill="#fff" transform="matrix(-47.17855 1.93452 -7.99227 -194.9136 230.3 69.1)"/><circle r="1" fill="#fffeff" transform="matrix(.0556 -7.40051 36.31995 .27286 162.8 130.4)"/><ellipse cx="139" cy="43" fill="#fff" rx="105" ry="4"/><ellipse cx="139" cy="90" fill="#fff" rx="213" ry="4"/><path fill="#868ca4" d="M20 136h25v31H20z"/><path fill="#503b00" d="M138 94h46v25h-46z"/><path fill="#d0a66f" d="M84 50h63v37H84z"/><path fill="#996b34" d="M79 97h10v70H79z"/><path fill="#080000" d="M170 154l-30-15-2 16z"/><path fill="#d9bf8d" d="M87-16l-1 51-102 30z"/><path fill="#f6f2f7" d="M88 88h38v44H88z"/><path fill="#ffda06" d="M174 99h8v21h-8z"/><ellipse cx="62" cy="50" fill="#a98259" rx="121" ry="5"/><path fill="#8a520a" d="M32 96h7v24h-7z"/><path fill="#ebedee" d="M89 140h49v27H89z"/><path fill="#fcfff2" d="M41 93h37v31H41z"/><path fill="#fff" d="M258 67L142 182l124-20z"/><path d="M44.4 136l34.3 46-18.2-45.9L47.2 182z"/><path fill="#13007b" d="M26 33h9v9h-9z"/><circle r="1" fill="#fff" transform="matrix(-41.37852 2.1766 -8.42366 -160.13932 226.2 71.2)"/><ellipse cx="35" cy="131" fill="#cca362" rx="55" ry="8"/><path fill="#f1e3b3" d="M118 42h33v33h-33z"/><path fill="#fdfffb" d="M50 0h5v99h-5z"/><path fill="#fff" d="M134 92h4v75h-4z"/><path fill="#846d25" d="M87 11h28v29H87z"/><ellipse cx="103" cy="135" fill="#ae7839" rx="37" ry="4"/><circle r="1" fill="#3a3f55" transform="matrix(19.5767 -24.2981 10.80432 8.70492 8.2 159.4)"/><path fill="#965f58" d="M126 89.4l7.1 23.9-18.5 13 7.2 8.5z"/><path fill="#955446" d="M105 47h13v41h-13z"/><path fill="#fff" d="M42 115h2v52h-2z"/><path fill="#413200" d="M139 138h31v18h-31z"/><path fill="#23210b" d="M139 95h34v28h-34z"/><path fill="#fff" d="M118 0h2v43h-2z"/><path fill="#b2956f" d="M0 45h57v11H0z"/><path fill="#fcf7ea" d="M40.2-6.6l.1 49.7L17.1-.6l33.6 1.8z"/><path fill="#0b0109" d="M80 158h9v9h-9z"/><path fill="#fefaf3" d="M138 137h22l-51-29z"/><ellipse cx="153" cy="43" fill="#fff" rx="135" ry="3"/><path fill="#2c2a2d" d="M55 78h30v8H55z"/><path fill="#a57f60" d="M120 0h30v40h-30z"/><path d="M48 169l21-41-7 34z"/><path fill="#fdffff" d="M85 13h2v73h-2z"/><path d="M17.6 153.8l1.5 7.9-12.7 2.5-1.5-7.9z"/><path fill="#a8702a" d="M40 5h10v23H40z"/><path fill="#7c39a4" d="M152 131h31v4h-31z"/><path fill="#4a008b" d="M173 138h9v8h-9z"/><path fill="#fff" d="M140 87h84v7h-84z"/><path fill="#e5dbc2" d="M-15.3 87.6l50.8 39-9.3 26 14.4-6.1z"/><path fill="#cba132" d="M140 141h37v4h-37z"/><path fill="#8f8386" d="M-10.9 182l35-51.5-8.5 21L-2.7 138z"/><path d="M39.3 139.8l2.5-17.8 1 .2-2.6 17.8z"/><path fill="#7b5744" d="M4 63h42v2H4z"/><path fill="#ffa57d" d="M66 142h5v14h-5z"/><path fill="#fff" d="M182.1 138.8l-5.3-15.1 76.7-7.8-71.1 66.1z"/><path fill="#d6f1f9" d="M62 121h4v17h-4z"/><path fill="#37170c" d="M76.9 150.5l-1.4 11.7-9.4-31.9 5-.6z"/><path fill="#f6ffff" d="M0 56h50v6H0z"/><ellipse cx="27" cy="50" fill="#e2dac9" rx="22" ry="3"/><path fill="#f5f1e4" d="M-3.8 94l31.7-3.8 4 31.7L0 126z"/><path fill="#8e6f5d" d="M97 144h29v3H97z"/><path fill="#a77932" d="M126 96h8v20h-8z"/><ellipse cx="67" cy="16" fill="#c4af69" rx="13" ry="24"/><ellipse cx="90" cy="48" fill="#7a3c27" rx="32" ry="2"/><path fill="#fff" d="M0 29h53v3H0zm174 103.7l-3 20.8-1-.2 3-20.8z"/><ellipse cx="223" fill="#fff" rx="40" ry="166"/><ellipse cx="26" cy="145" fill="#07040e" rx="3" ry="10"/><path fill="#a9885d" d="M0 44h52v4H0z"/><path fill="#886b59" d="M4 79h36v2H4z"/><path fill="#b3a986" d="M161 46h23v40h-23z"/><path fill="#140000" d="M51 149l-5-2 5-17z"/><path fill="#78509b" d="M116 123h17v7h-17z"/><path fill="#fff" d="M0 29h25v15H0z"/><path fill="#ab867c" d="M87 162l-3-30-9 29z"/><path fill="#fff" d="M77 121h38v4H77z"/><path fill="#e7edf0" d="M35 66h20v31H35z"/><path fill="#a5826c" d="M81 158h48v2H81z"/><path fill="#f5f6f0" d="M27 87h104v9H27z"/><path fill="#fff" d="M135 157h121v3H135z"/><path fill="#f8feff" d="M89 141h8v26h-8z"/><path fill="#f0edd6" d="M128 122l-12 10 39-9z"/><path fill="#fff" d="M46 40h112v2H46z"/><path fill="#a9c1b1" d="M184.5 35.5l-18 1-3-56 18-1z"/><path fill="#fff" d="M96 164h160v3H96z"/><path fill="#f5ecaa" d="M87.6 119.6l5.8 1.4-5 21.4-5.8-1.4z"/><path fill="#d4c6af" d="M7 47h41v7H7z"/><ellipse cx="181" cy="136" fill="#fff" rx="46" ry="2"/></g></g></svg>