<svg xmlns="http://www.w3.org/2000/svg" viewBox="0 0 735 1400"><defs/><filter id="a"><feGaussianBlur stdDeviation="12"/></filter><rect width="100%" height="100%" fill="#323133"/><g filter="url(#a)"><g fill-opacity=".5" transform="translate(2.7 2.7) scale(5.46875)"><circle cx="64" cy="177" r="192" fill="#fff"/><circle cx="52" cy="117" r="171" fill="#fff"/><circle cx="34" cy="238" r="152" fill="#fffdf5"/><circle r="1" fill="#fff" transform="matrix(-16.65015 36.01095 -120.72068 -55.81683 80.6 18)"/><path fill="#a09a8a" d="M14 18l-1 224 38-115z"/><circle r="1" fill="#ad9e8d" transform="rotate(-81.5 133.5 14.7) scale(79.35007 16.57933)"/><path d="M12 73h27v10H12z"/><ellipse cx="53" cy="163" fill="#fff" rx="13" ry="255"/><ellipse cx="2" cy="93" fill="#fff" rx="10" ry="252"/><circle r="1" fill="#fff" transform="matrix(3.26541 30.95245 -132.266 13.95375 76.7 246.4)"/><path fill="#6d684f" d="M10 164h29v21H10z"/><path fill="#fff" d="M132 51l-30 220 47-91zM0 136h57v28H0z"/><path fill="#9d5f36" d="M122 100l1-24-39 22z"/><ellipse cx="121" cy="118" fill="#fff" rx="66" ry="7"/><path fill="#886b3c" d="M13 39h33v12H13z"/><path fill="#696455" d="M12 220l30 1-15-16z"/><circle r="1" fill="#fff" transform="matrix(-3.87603 30.68197 -131.95124 -16.66932 41.4 0)"/><path fill="#a59d8f" d="M79 124h39v47H79z"/><path fill="#82724d" d="M83.5 86l-15-1 2-27 15 1z"/><path fill="#896c55" d="M17 123h31v13H17z"/><path fill="#535654" d="M77 20h33v4H77z"/><path fill="#fff" d="M104 131h5v125h-5z"/><path fill="#e9ebe8" d="M14.7 101.7l112.2-10.8-95.4-9.8-23.9 3.4z"/><path fill="#957477" d="M62 124h49v9H62z"/><path fill="#fff" d="M61 200l-88.6 7.8L-29 192l88.6-7.7z"/><path fill="#f5f7fc" d="M52 133h57v13H52z"/><path fill="#4b2d0c" d="M92 83h26v4H92z"/><ellipse cx="5" cy="149" fill="#fff" rx="7" ry="207"/><path fill="#785d37" d="M81 160l-1-21 14 21z"/><path fill="#a9abaa" d="M67 35h53v8H67z"/><circle r="1" fill="#fff" transform="rotate(-5.9 2444.8 -668.7) scale(107.65165 23.96135)"/><path fill="#fafeff" d="M90 101h44v23H90z"/><path fill="#e5dece" d="M86 59h40v21H86z"/><path fill="#393930" d="M12 186.7l16.2-1.4 1.9-22.7 4.6 19.5z"/><path fill="#fff" d="M149 183.7L116.5 271l-12.9-90.4-36.9-24.8z"/><path fill="#acadb1" d="M61 103h67v9H61z"/><ellipse cx="130" cy="78" fill="#fff" rx="5" ry="255"/><ellipse cx="104" cy="96" fill="#98481f" rx="23" ry="3"/><path fill="#6d6341" d="M100.4 169l17.6-6.8-5.2 10.5L94.9 154z"/><path fill="#fff" d="M40 55L74-4 57 159z"/><path fill="#857058" d="M82 197h23v8H82z"/><path fill="#00091c" d="M111 134h6v8h-6z"/><path fill="#a49165" d="M12 109h24v9H12z"/><path fill="#a2cb23" d="M81 28h24v3H81z"/><path fill="#363e47" d="M42.1 82.2l-29.6.5 2-10.9 23.5 1z"/><path fill="#040000" d="M24 206h4v8h-4z"/><path fill="#dddfd9" d="M41.9 117.8l-9.6 24.9-1.2-55.8 20.1-7.7z"/><circle r="1" fill="#fff" transform="matrix(112.07859 -20.36813 3.3908 18.65838 68.7 3.4)"/><ellipse cx="89" cy="132" fill="#900000" rx="26" ry="1"/><path fill="#c8c9c6" d="M12 27h41v12H12z"/><ellipse cx="96" cy="125" fill="#031b1e" rx="21" ry="1"/><path fill="#fffffd" d="M28 198h51v20H28z"/><path fill="#f9f5f6" d="M53.2 133.5l32-9.4-43.4 90.3 39.8-83.8z"/><ellipse cx="116" cy="54" fill="#fff" rx="77" ry="5"/><path fill="#ffffe9" d="M24 128l-15-1 16-7z"/><path fill="#aaadb2" d="M80 226l-1-8 28-1z"/><path fill="#e2e1ce" d="M26.7 167l-1.4 12.9-8-.9 1.4-12.9z"/><path fill="#dadde0" d="M12 82h28v24H12z"/><ellipse cx="106" cy="90" fill="#c7c1b2" rx="19" ry="5"/><path fill="#928d79" d="M11 203h3v20h-3z"/><path fill="#391800" d="M100 84h26v2h-26z"/><path fill="#afac91" d="M37 61.4l-25-1.8 1-13 25 1.8z"/><path fill="#c3a454" d="M61 99h43v2H61z"/><ellipse cx="109" cy="105" fill="#fff" rx="109" ry="1"/><ellipse cx="107" cy="38" fill="#fff" rx="43" ry="2"/><path fill="#e4e0d2" d="M100.5 65.4l-19.4 39.5-18.5-45.8L64 84.9z"/><path fill="#fff" d="M74 142h5v60h-5z"/><path fill="#515757" d="M10 183h28v3H10z"/><path fill="#fff" d="M59.4 226.4l5-99.7-15.1-25.1-4.9 135.9z"/><path fill="#d3d7cc" d="M91.3 162.9l14.9 26.2-14.1 22 7.4-75.4z"/><circle cx="44" cy="132" r="4" fill="#a8461a"/><path fill="#fff" d="M13.6 208.2l-5.1-59.4 62.3-12.2-86.8 2.3z"/><path fill="#797458" d="M33 107h4v16h-4z"/><path fill="#fff" d="M69 112h65v12H69z"/><path fill="#878988" d="M68 40h50v2H68z"/><path fill="#e8e7de" d="M53.7 55.6l-43 7.8L35 70.5 51.1 90z"/><path fill="#733e17" d="M88.5 95.8l37-2.6v1l-37 2.6z"/><path fill="#998f79" d="M90 80h35v4H90z"/><ellipse cx="133" cy="151" fill="#fff" rx="17" ry="45"/><path fill="#9f9166" d="M80 187h17v7H80z"/><path fill="#575f62" d="M11 130h21v5H11z"/><path fill="#d5d0c7" d="M100.5 79.5v-21h25v21z"/><ellipse cx="93" cy="104" fill="#838383" rx="32" ry="1"/><ellipse cx="106" cy="170" fill="#fff" rx="2" ry="37"/><path fill="#f2f3ee" d="M51 197h38v4H51z"/><path fill="#000002" d="M13 73h11v4H13z"/><path fill="#fff" d="M0 92h57v4H0z"/><ellipse cx="115" cy="167" fill="#38331f" rx="2" ry="4"/><path fill="#fff" d="M122.5 32.5l8.6 81.9L149 6.2 72.6-16z"/><path fill="#ced4db" d="M79 167h25v20H79z"/><path fill="#908871" d="M85 79l1-20-15 1z"/><circle r="1" fill="#fff" transform="matrix(-100.3807 -.57977 .09127 -15.80274 79.8 246)"/><path fill="#a1a2a2" d="M68 35h55v3H68z"/><path fill="#968363" d="M85.7 145.9l7.7 10.2-13.2 11.5-1.4-12.6z"/><circle r="1" fill="#1b1207" transform="rotate(-74.8 133.3 69.2) scale(3.62342 2.37575)"/><path fill="#b1b3b0" d="M38 83L8 90v-8z"/><circle cx="113" cy="129" r="3" fill="#c2ac00"/><path fill="#eebe93" d="M93 126h20v6H93z"/><path fill="#dedee1" d="M45 35h7v57h-7z"/></g></g></svg>