<svg xmlns="http://www.w3.org/2000/svg" viewBox="0 0 516 1400"><defs/><filter id="a"><feGaussianBlur stdDeviation="12"/></filter><rect width="100%" height="100%" fill="#36302f"/><g filter="url(#a)"><g fill-opacity=".5" transform="translate(2.7 2.7) scale(5.46875)"><circle cx="44" cy="136" r="152" fill="#fff"/><circle cx="45" cy="130" r="144" fill="#fff"/><ellipse cx="65" cy="152" fill="#fffffa" rx="39" ry="255"/><path d="M5 175h22v17H5z"/><path fill="#a8937e" d="M48 34h41v36H48z"/><path fill="#9c8f80" d="M58 166h18v68H58z"/><ellipse cx="3" cy="86" fill="#fff" rx="5" ry="153"/><ellipse cx="16" cy="43" rx="11" ry="4"/><path fill="#7d4822" d="M61 104h23v12H61z"/><path fill="#fff" d="M-16 253l124-43 1 53z"/><path fill="#5c5534" d="M9 104h17v16H9z"/><ellipse cx="37" cy="186" fill="#fff" rx="10" ry="228"/><path fill="#6b5948" d="M4 226h23v15H4z"/><path fill="#675437" d="M46.6 149l25 1-.2 7-25-1z"/><path fill="#64583a" d="M78 166h6v31h-6z"/><path fill="#fff" d="M0 145h45v31H0z"/><path fill="#a08b68" d="M10 64h24v21H10z"/><ellipse cx="93" cy="146" fill="#fff" rx="10" ry="106"/><path fill="#8b7143" d="M9 16h21v11H9z"/><path fill="#92562b" d="M11 207h16v11H11z"/><path fill="#fff" d="M109 18L78-16-16 5z"/><ellipse cx="74" cy="59" fill="#8f2900" rx="14" ry="3"/><path fill="#919397" d="M54.8 114.5L46 82l4.6-2.6 10.8 22.9z"/><ellipse cy="89" fill="#fff" rx="8" ry="110"/><path fill="#fafaf8" d="M60.7 47.7l-1.3-25 48-2.4 1.2 25z"/><ellipse cx="76" cy="51" fill="#4a2505" rx="12" ry="2"/><ellipse cy="167" fill="#fff" rx="5" ry="188"/><ellipse cx="66" cy="6" fill="#646466" rx="12" ry="2"/><path fill="#6e664f" d="M18 132L8 142l18 2z"/><circle r="1" fill="#f9fbfc" transform="matrix(52.39203 23.64674 -5.07872 11.25249 67.3 76.7)"/><path fill="#9c7876" d="M50 166h31v7H50z"/><path fill="#fdfefe" d="M0 85h44v20H0z"/><path fill="#83714b" d="M86 197l-25-17-2 10z"/><path fill="#857e66" d="M60.8 44.6l.1-12.3-12.8 1.2 4.3 14.2z"/><path fill="#fff" d="M77.2 219.8l-16.4-26.2 28.9 7.4L78 271z"/><path fill="#3d2421" d="M6.8 192.3l-2.5-15.8 5-.8 2.4 15.8z"/><path fill="#2c343c" d="M29 45l-15-9-3 10z"/><path fill="#fff" d="M43.4 271L20.9 134.1-16 120l62.9 1.6zm65.6-85.5l-46-43.2-10 21.8 56-58.9z"/><path fill="#a5a5a8" d="M46 16h40v5H46z"/><path fill="#fff" d="M26 217h31v39H26z"/><path fill="#aaadb2" d="M41 64h35v6H41z"/><path fill="#fff" d="M-16 257.4l87.8-18.7 20-58 17.2 75.4z"/><path fill="#000186" d="M52.6 86.5l-6-1.1.8-4 6 1.2z"/><ellipse cx="6" cy="189" fill="#7d7b6e" rx="2" ry="22"/><path fill="#f5f5f5" d="M108.5 261.7l-43.4-90.2 13.8.8.1 47.2z"/><path fill="#e4e7dd" d="M52 108h28v4H52z"/><ellipse cx="70" cy="160" fill="#fff" rx="88" ry="3"/><circle r="1" fill="#fff" transform="matrix(57.00606 -2.93702 .34308 6.659 50.6 0)"/><path fill="#1c170e" d="M21 109l4 4-5 4z"/><path fill="#7f796c" d="M81.2 135.2l.6 5-5 .6-.6-5z"/><path d="M24 230h2v12h-2z"/><ellipse cx="92" cy="29" fill="#fff" rx="5" ry="255"/><path fill="#9b8f7d" d="M48 149h28v9H48z"/><path fill="#fff" d="M53 71h41v26H53z"/><path fill="#7c7b7c" d="M46 91h35v1H46z"/><path fill="#9ec719" d="M58 11h15v2H58z"/><path fill="#f0f0ec" d="M1 192h70v5H1z"/><path fill="#ecece2" d="M65.3 42l-1.1 13.5-35.5 8.7-5.2 17.4z"/><path fill="#2a3c3e" d="M46 166h36v1H46z"/><path fill="#95300a" d="M33 80l-6-1 3 4z"/><path fill="#ada992" d="M8.8 39.3l4.8 1.2 24.6-26.6-28 13.7z"/><circle cx="81" cy="196" r="3" fill="#47432d"/><path fill="#968461" d="M50.9 103.3l.2-7 10 .4-.2 7z"/><path fill="#fff" d="M28 107.7l54.2-47.2-34 39.7-5.6 125.4z"/><circle r="1" fill="#f4f7f2" transform="matrix(90.4994 -4.5845 .0506 .99872 6.2 210.2)"/><path fill="#e4e2df" d="M68.2 96l-15.1 15.8 4.3 81.8 4-79.2z"/><path fill="#fffffb" d="M0 62h94v2H0z"/><path fill="#994d26" d="M63 112h22v3H63z"/><path fill="#fbfbfb" d="M39.1 16.8L28.4 45.1l-.8-21.7 46.3 13.5z"/><path fill="#5a5d5b" d="M24 84l-11-3 8-5z"/><ellipse cx="72" cy="18" fill="#fff" rx="35" ry="1"/><path fill="#fffff4" d="M0 74h18v6H0z"/><circle r="1" fill="#b3ae98" transform="matrix(-.32913 8.18808 -2.442 -.09816 26.3 111.6)"/><ellipse cy="189" fill="#fff" rx="4" ry="208"/><path fill="#fff" d="M56.4 165.8l-72.4-6.9 33.9-5.7L109 167z"/><path fill="#876552" d="M59 220h17v3H59z"/><path fill="#d6d3bd" d="M8 115l10-1 1-11z"/><path fill="#d2d5d2" d="M48.3 167.5l21.8 7.5-.2 20.1-10.1-27.4z"/><circle cx="82" cy="84" r="2" fill="#535855"/><path fill="#4f3921" d="M64 106h18v2H64z"/><path fill="#fff" d="M75 140h19v25H75z"/><path fill="#bfc4c8" d="M76 231l-19 7 10-20z"/><path fill="#3b3936" d="M5 226h2v17H5z"/><path fill="#b9b9ba" d="M5 245h28v4H5z"/><path fill="#e1e2e1" d="M4 15h5v43H4z"/><path fill="#121a20" d="M9 40h10v6H9z"/><path fill="#8e7654" d="M57.2 182.2l9-.4.6 12-9 .4z"/><path fill="#423042" d="M84 171v6h-4v-6z"/><path fill="#725b44" d="M68 48h20v4H68z"/><path fill="#170800" d="M17 134h2v8h-2z"/><ellipse cx="67" cy="118" fill="#fff" rx="37" ry="2"/><path fill="#908e84" d="M15 139l-9 5 21-2z"/><circle cx="11" cy="215" r="3" fill="#b86338"/><path fill="#de9f6c" d="M67 168h18v5H67z"/><ellipse cx="67" cy="171" fill="#a94753" rx="20" ry="1"/><circle r="1" fill="#fff" transform="matrix(-4.04733 43.30538 -3.767 -.35207 41 51.6)"/><path fill="#fff" d="M60 147h5v7h-5z"/><path fill="#bcbdc0" d="M50 124h32v4H50z"/><path fill="#d3d3d3" d="M8 90h26v12H8z"/></g></g></svg>