<svg xmlns="http://www.w3.org/2000/svg" viewBox="0 0 515 1400"><defs/><filter id="a"><feGaussianBlur stdDeviation="12"/></filter><rect width="100%" height="100%" fill="#3c3839"/><g filter="url(#a)"><g fill-opacity=".5" transform="translate(2.7 2.7) scale(5.46875)"><circle cx="58" cy="158" r="169" fill="#fff"/><circle cx="72" cy="136" r="158" fill="#fff"/><ellipse cx="89" cy="186" fill="#fffffb" rx="64" ry="129"/><path d="M5 173h22v16H5z"/><path fill="#a09280" d="M58 145h17v80H58z"/><ellipse cx="37" cy="91" fill="#fff" rx="10" ry="255"/><ellipse cy="66" fill="#fff" rx="8" ry="199"/><circle r="1" transform="matrix(-.01666 -4.77181 9.03311 -.03153 17.4 39.3)"/><path fill="#804b24" d="M62 100h22v13H62z"/><path fill="#90582f" d="M62 44h25v15H62z"/><path fill="#624e3b" d="M5 222h21v16H5z"/><ellipse cx="82" fill="#fffffe" rx="55" ry="33"/><path fill="#5b522d" d="M8 101h17v14H8z"/><path fill="#564b28" d="M79 162h5v33h-5z"/><circle r="1" fill="#fff" transform="matrix(2.0901 14.50423 -92.04916 13.26449 48.2 248.6)"/><path fill="#fff" d="M-10 166l-6-30 112 23z"/><path fill="#836a3a" d="M9 13h23v10H9z"/><ellipse cx="93" cy="122" fill="#fff" rx="6" ry="250"/><path fill="#a38e6a" d="M9 61h26v20H9z"/><circle cx="51" cy="150" r="5" fill="#3b3925"/><path fill="#915429" d="M12 204h14v11H12z"/><path fill="#8a7b58" d="M49 29h11v20H49z"/><ellipse cx="39" cy="63" fill="#fff" rx="6" ry="255"/><path fill="#908367" d="M51 92h10v14H51z"/><path fill="#fff" d="M109 72v35L27 63zm-98.9-3.4L-2.7-16l3.8 222.7 7-80z"/><path fill="#a07a6e" d="M45 163h41v6H45z"/><path fill="#4a3e3a" d="M5 172h20v15H5z"/><path fill="#837c64" d="M6.6 136.7l4.9 6.1 8.7-3.7 2.4-10.9z"/><path fill="#938663" d="M57 178h19v13H57z"/><path fill="#717172" d="M54 2h25v3H54z"/><path fill="#fff" d="M73.4 285.7l3.2-90 18 .6-3.2 90zM18 124l30-26v69z"/><path fill="#57370c" d="M66 147h6v7h-6z"/><ellipse cx="69" cy="51" fill="#f1f2ec" rx="88" ry="3"/><path fill="#fff" d="M85 90h9v166h-9z"/><path fill="#0e1822" d="M12 37h16v6H12z"/><path fill="#1842a0" d="M47.3 85.7L45.9 80l6.8-1.6 1.4 5.8z"/><circle r="1" fill="#fff" transform="matrix(-.69271 6.09542 -47.90782 -5.44447 12.7 0)"/><path fill="#afafb0" d="M44 12h44v6H44z"/><path fill="#f5f7f7" d="M0 83h87v11H0z"/><path fill="#fff" d="M23.9 271L-16 241l123.9 24-78.8-57.1zM70 137h22v26H70z"/><path fill="#eeece0" d="M47.6 52.8L-.9 79.5 53 62l56-71.3z"/><path fill="#b3b4b5" d="M44 60h47v7H44z"/><path fill="#a7512b" d="M64 54h25v5H64z"/><path fill="#595a53" d="M23.9 105.7l.1 9.1-17.2 3.3 16.5-10.4z"/><path fill="#fff" d="M101 65l7-61-37-20z"/><path fill="#ecedec" d="M.6 222.3l51.8 1.3 23.4-60.2-9.3 38z"/><path fill="#77584e" d="M9 77h25v4H9z"/><path fill="#aca58a" d="M9 15h11v22H9z"/><ellipse cx="6" cy="197" fill="#645c35" rx="2" ry="4"/><path fill="#fff" d="M3 141l-19 63 21 67z"/><path fill="#ad5328" d="M9 210h19v4H9z"/><path fill="#42290d" d="M65 47h24v2H65z"/><path fill="#9a999a" d="M48 87h34v2H48z"/><path fill="#e2e0d6" d="M84.1 97.9l-36.1 3 30.1 6.7-50.1 6.7z"/><path fill="#9d481d" d="M59 109h23v3H59z"/><circle r="1" fill="#fff" transform="matrix(44.37102 3.87877 -.3609 4.1285 29.4 156.2)"/><path fill="#fff" d="M34 67h60v11H34z"/><path fill="#eeede3" d="M9.4 188.3l18.9.6-22.9 22 6-11.8z"/><path d="M24 223h2v15h-2z"/><path fill="#d9d9cf" d="M18 114l-10.9-1.5 10.6-13.7 19.9-79.4z"/><path fill="#c8c8c9" d="M47 121h34v10H47z"/><path fill="#fff" d="M-16 138.6l62.4-22.4-42.3.9 4.2-70.4zM0 143h94v3H0zM29 22h62v7H29z"/><path fill="#6e4a37" d="M59 217h16v2H59z"/><ellipse cx="93" cy="109" fill="#fff" rx="5" ry="255"/><path fill="#c6c8cd" d="M58 219h17v13H58z"/><path fill="#736d5e" d="M17 129l-1 12h9z"/><path fill="#d7dadb" d="M79 190l4-11-33-20z"/><ellipse cx="35" cy="223" fill="#fff" rx="9" ry="67"/><ellipse cx="73" cy="103" fill="#331a00" rx="9" ry="1"/><path fill="#3c3120" d="M19 107h5v9h-5z"/><path fill="#1e2129" d="M9 36l12 4-13 2z"/><path fill="#5b5c59" d="M79 80.7l.3-1 5.7 1.6-.3 1z"/><path d="M5.9 234.5h-1l-.8-11h1z"/><path fill="#470600" d="M62 182h2v6h-2z"/><path fill="#897b61" d="M80.9 194.1l7.4-.5-29.9-10.2 20.5 11.8z"/><path fill="#dde0df" d="M77 214l-2-21-23-7z"/><path fill="#b0b1b1" d="M4 242h29v3H4z"/><ellipse cy="137" fill="#fff" rx="4" ry="213"/><path fill="#fff" d="M4 125h90v2H4z"/><path fill="#9e8469" d="M59 151h16v4H59z"/><path fill="#fff" d="M28.9 102.2L45 75l1.9 72.9-19.2-9.7z"/><path fill="#aa6944" d="M59.3 59.5l-.7-5.3 30.5 1.9-18-.3z"/><path fill="#4d5452" d="M8 113h15v3H8z"/><ellipse cx="65" cy="163" fill="#3c5459" rx="19" ry="1"/><path fill="#fffffb" d="M20 59h74v2H20z"/><path fill="#fff" d="M75.2 168.6h1l2.6 48.8h-1z"/><ellipse cx="42" cy="253" fill="#fff" rx="68" ry="8"/><path fill="#d4d6c8" d="M2.5 205.5l28.2 2.7-22.6 2.4-24.1-21.9z"/><path fill="#524a3b" d="M81.1 132.6l.4 1-4.6 1.8-.4-1z"/><ellipse cx="67" cy="8" fill="#cfeb77" rx="10" ry="2"/><path fill="#a9a9a9" d="M62 87l-13 5-2-4z"/><path fill="#827b62" d="M19 101h9v14h-9z"/><ellipse cx="20" cy="74" fill="#4b4532" rx="2" ry="3"/><ellipse cx="58" cy="136" fill="#b9b9bb" rx="14" ry="2"/><path fill="#b1b2b4" d="M50 117h30v2H50z"/></g></g></svg>