<svg xmlns="http://www.w3.org/2000/svg" viewBox="0 0 1120 1400"><defs/><filter id="a"><feGaussianBlur stdDeviation="12"/></filter><rect width="100%" height="100%" fill="#3b3539"/><g filter="url(#a)"><g fill-opacity=".5" transform="translate(2.7 2.7) scale(5.46875)"><circle cx="91" cy="156" r="203" fill="#fff"/><circle cx="100" cy="117" r="173" fill="#fff"/><path d="M10.4 91.3l1.2-34 42 1.4-1.2 34z"/><circle cx="203" cy="129" r="155" fill="#fff"/><circle r="1" fill="#fff" transform="rotate(-4 3635 -1029.2) scale(160.35051 51.16635)"/><path fill="#743d10" d="M141 78h46v26h-46z"/><ellipse cx="38" fill="#fff" rx="176" ry="57"/><path fill="#6d5b3b" d="M107 176h59v19h-59z"/><path fill="#94806c" d="M6 195l52 8-1-149z"/><ellipse cx="81" cy="166" fill="#fff" rx="25" ry="250"/><circle r="1" fill="#979591" transform="rotate(157.3 55.1 45) scale(11.30464 40.26021)"/><path fill="#fff" d="M0 149h101v18H0z"/><circle r="1" fill="#fff" transform="rotate(170.8 57.6 122.2) scale(203 37.13647)"/><ellipse cx="30" cy="109" fill="#fcfdf8" rx="100" ry="16"/><ellipse cx="3" cy="124" fill="#fff" rx="7" ry="255"/><path fill="#493c39" d="M11 59h48v34H11z"/><circle r="1" fill="#fff" transform="matrix(7.48876 -169.86682 15.95636 .70345 201.7 123.1)"/><ellipse cx="53" cy="185" rx="3" ry="18"/><circle r="1" fill="#000086" transform="matrix(7.30118 -.55163 .44554 5.89698 112 35)"/><ellipse cx="44" cy="2" fill="#fff" rx="203" ry="29"/><path fill="#aa4b19" d="M17 138h42v10H17z"/><path fill="#857e60" d="M10.4 98.1l1.5 34.8L22 113.7l1.2-2.3z"/><path d="M11 163h3v40h-3z"/><ellipse cx="183" cy="91" fill="#f1f3ea" rx="95" ry="5"/><path fill="#290300" d="M148.5 194.3l-2-17.9 7-.7 2 17.9z"/><path fill="#a7481c" d="M135 96h48v8h-48z"/><path fill="#fffff9" d="M147 159l-23 36 21-9z"/><ellipse cx="144" cy="51" fill="#fff" rx="101" ry="11"/><ellipse cx="42" cy="130" fill="#3f1b00" rx="19" ry="2"/><path fill="#6a614d" d="M172 148h12v8h-12z"/><path fill="#878987" d="M14 44h55v3H14z"/><path fill="#fff" d="M219 103l-8 132-49-60z"/><ellipse cx="82" cy="131" fill="#fff" rx="24" ry="245"/><path fill="#958663" d="M114.7 92.4l3.4-29.1 22.2-.3-30.4 34.6z"/><circle r="1" fill="#fff" transform="matrix(.45532 146.70516 -10.43794 .0324 .6 138.7)"/><path fill="#260800" d="M149 83h39v3h-39z"/><path fill="#464d45" d="M111 176h12v18h-12z"/><path fill="#b6b7b6" d="M12 208h57v9H12z"/><ellipse cx="146" cy="50" fill="#494949" rx="33" ry="1"/><path fill="#998b7c" d="M14 167h39v29H14z"/><path fill="#b2b3b2" d="M105 122h76v7h-76z"/><ellipse cx="70" cy="241" fill="#fff" rx="171" ry="25"/><ellipse cx="75" cy="7" fill="#fff" rx="203" ry="23"/><ellipse cx="143" cy="138" fill="#b4b5b4" rx="41" ry="4"/><path fill="#a3a5a5" d="M111 113h80v3h-80z"/><path fill="#e6e9ec" d="M6 150h64v17H6z"/><path fill="#51544d" d="M188.4 32.5l-1.1 1.6-11 .6 11.4 5.3z"/><path fill="#080d14" d="M53 75h6v16h-6z"/><path fill="#fff" d="M0 201h204v8H0z"/><ellipse cx="198" cy="112" fill="#fff" rx="11" ry="172"/><path fill="#faf7ec" d="M137 63h7v32h-7z"/><path fill="#fff" d="M114 259l51-32-2-51z"/><ellipse cx="148" cy="50" fill="#9e9e9e" rx="36" ry="2"/><path fill="#e8ede0" d="M8 134h43v5H8z"/><path fill="#fff" d="M79 105h125v7H79zm47.8 64l5.3 37.6-3 .4-5.2-37.6zm-18.8 2h3v43h-3z"/><path fill="#adaead" d="M106 153h54v5h-54z"/><path fill="#1c509f" d="M104 29h16v11h-16z"/><path fill="#d2c8b4" d="M150 63h37v15h-37z"/><path fill="#ece6db" d="M38.5 104h-1l-2-30h1z"/><path fill="#d0c9be" d="M27.8 106.4h-1l5.4-50.8h1z"/><ellipse cx="55" cy="183" rx="1" ry="17"/><path fill="#09121b" d="M164 184h3v10h-3z"/><path fill="#fff" d="M165 142l-41 1 95 80z"/><path fill="#e4e1d8" d="M43 76h3v47h-3z"/><path fill="#696a69" d="M10 45h12v4H10z"/><path fill="#e6e4db" d="M51 76h2v26h-2z"/><path fill="#fff" d="M24 44.8l-22.4.4L-16 20.6l84.7 23.1zM62 65l-6.2-11.9 59.3 9L89.4 271z"/><path fill="#acadac" d="M110 165h53v4h-53z"/><path d="M53 167h3v28h-3z"/><path fill="#a6998d" d="M13 173h40v27H13z"/><circle r="1" fill="#c2bdb5" transform="matrix(-.99317 -.11667 5.44663 -46.36499 15.3 73.7)"/><path fill="#5f5f60" d="M112 54h21v2h-21z"/><ellipse cx="38" cy="45" fill="#5c5c5c" rx="28" ry="1"/><path fill="#e5e7ea" d="M8 93h67v12H8z"/><path fill="#8a5433" d="M142.9 97.4l41 4.2 3.7 2.4v-9.2z"/><path fill="#9ea09e" d="M56 29l-18 2 21 4z"/><path fill="#a08c75" d="M54 110h5v40h-5z"/><path d="M11 169h2v27h-2z"/><path fill="#fff" d="M9 218V41l-25 87z"/><ellipse cx="112" cy="5" fill="#fff" rx="203" ry="25"/><ellipse cx="155" cy="172" fill="#fff" rx="66" ry="4"/><path fill="#8d876f" d="M10 106h10v18H10z"/><path fill="#afafaf" d="M136 153h29v5h-29z"/><ellipse cx="165" cy="132" fill="#fff" rx="63" ry="3"/><path fill="#fff" d="M108 118h96v3h-96z"/><path fill="#14181d" d="M56 58h3v18h-3z"/><path fill="#dfddd0" d="M46.9 97.4l-33.5 52.7 7.5-49.8 43.8 27.1z"/><ellipse cx="43" cy="51" fill="#bebebe" rx="33" ry="2"/><path fill="#fff" d="M165 267l54-23-53-99z"/><path fill="#fcfeff" d="M119 24h57v24h-57z"/><ellipse cx="145" cy="192" fill="#fff" rx="1" ry="23"/><circle cx="140" cy="189" r="4" fill="#9d7759"/><ellipse cx="119" cy="150" fill="#666766" rx="11" ry="1"/><path fill="#fff" d="M57 161h48v40H57z"/><path fill="#d6d1c8" d="M22.8 35.5h3l-.6 39h-3z"/><ellipse cx="125" cy="146" fill="#fff" rx="63" ry="3"/><path fill="#bcbcbc" d="M11 159h61v3H11z"/></g></g></svg>