<svg xmlns="http://www.w3.org/2000/svg" viewBox="0 0 1400 788"><defs/><filter id="a"><feGaussianBlur stdDeviation="12"/></filter><rect width="100%" height="100%" fill="#8b6c48"/><g filter="url(#a)"><g fill-opacity=".5" transform="translate(2.7 2.7) scale(5.46875)"><circle r="1" fill="#fff" transform="matrix(-43.63396 83.28927 -26.46672 -13.8655 248.2 143)"/><circle cx="173" cy="28" r="95" fill="#cf8151"/><ellipse cx="28" cy="98" fill="#872f14" rx="84" ry="143"/><path fill="#fff" d="M112 95h31v17h-31z"/><circle r="1" fill="#8d3e22" transform="matrix(67.1806 -20.79335 6.42204 20.74879 155.2 128.4)"/><circle r="1" fill="#cca26b" transform="rotate(-64.8 117.9 -163) scale(33.51955 56.0044)"/><circle r="1" fill="#a2623a" transform="matrix(-26.36993 34.5134 -56.77352 -43.37776 91.9 38.6)"/><circle r="1" fill="#cfdee9" transform="matrix(-31.44843 62.27867 -15.30411 -7.72801 252.3 115.7)"/><path fill="#bda289" d="M71 68h99v9H71z"/><ellipse cx="10" cy="113" fill="#6d371e" rx="35" ry="51"/><ellipse cx="127" cy="102" fill="#f1edee" rx="17" ry="10"/><path fill="#782600" d="M125 97l-3 8 10-1z"/><path fill="#935835" d="M144 81l1 57 79-66z"/><ellipse cx="214" cy="70" fill="#bb946e" rx="70" ry="5"/><path fill="#995a31" d="M121 39h16v54h-16z"/><ellipse cx="131" cy="139" fill="#89492c" rx="80" ry="27"/><path fill="#a36b42" d="M200.6 68.3l41.8 29.2-31 44.2-41.8-29.2z"/><path fill="#f3f2f0" d="M131 93h12v19h-12z"/><ellipse cx="134" cy="92" fill="#9b623c" rx="55" ry="2"/><circle r="1" fill="#ba824b" transform="rotate(-53.3 110.5 -162.7) scale(16.07 55.37304)"/><ellipse cx="3" cy="74" fill="#6e3921" rx="7" ry="142"/><circle r="1" fill="#c59d6d" transform="rotate(100.2 108 99.5) scale(20.05881 25.15036)"/><circle r="1" fill="#a06035" transform="rotate(-24.6 135.9 -203.2) scale(32.88446 33.49522)"/><path fill="#f7f8f6" d="M112 94h30v4h-30z"/><path fill="#c2c3bd" d="M271 138.9L201.1 159l46-67.5-19.9 40.8z"/><path fill="#904f30" d="M115 137l-3-56-36 33z"/><circle r="1" fill="#834629" transform="rotate(13.6 -467 314.7) scale(63.68548 30.13888)"/><circle r="1" fill="#f7f3ef" transform="matrix(4.00921 .3462 -.74857 8.66893 120 103)"/><path fill="#fff" d="M182.2 76.5h-1l.6-9h1z"/><circle r="1" fill="#ad6c3c" transform="matrix(-9.40978 15.06622 -93.35841 -58.30806 89 1)"/><path fill="#c3a489" d="M90 71h31v5H90z"/><ellipse cx="41" cy="51" fill="#8e4d2c" rx="42" ry="23"/><path fill="#592f18" d="M-6.4 157.6L42 159l-24.8-26.7-27.1-6.2z"/><path fill="#8d583b" d="M145 77h89v4h-89z"/><path fill="#b07b4d" d="M163 83h65v10h-65z"/><path fill="#9f623b" d="M161 62h5v46h-5z"/><ellipse cx="115" cy="56" fill="#9f633b" rx="53" ry="14"/><path fill="#b4937d" d="M135 73h60v5h-60z"/><path fill="#905432" d="M63 80h81v12H63z"/><circle r="1" fill="#9f643d" transform="matrix(-2.1501 -.4748 6.83973 -30.97318 166.5 92.5)"/><ellipse cx="151" cy="86" fill="#97552f" rx="2" ry="21"/><path fill="#744128" d="M193 73h10v5h-10z"/><path fill="#f2e9e4" d="M112 96h11v16h-11z"/><path fill="#dac3a8" d="M181 68h12v4h-12z"/><path fill="#eee7e0" d="M134 96h10v15h-10z"/><circle cx="131" cy="102" r="2" fill="#7b3513"/><circle r="1" fill="#955636" transform="matrix(-2.4139 -14.36022 25.45612 -4.27908 192.4 132.2)"/><path fill="#8f4f30" d="M67 113.8l49.5 30.1-5.2-46.3-109.9 16z"/><circle r="1" fill="#804126" transform="matrix(28.5005 1.2002 -.11248 2.67098 61 44.3)"/><path fill="#9c5e37" d="M158.3 135.4L135 47.2l10.8 24.9-2.8 17z"/><circle r="1" fill="#67351d" transform="matrix(-65.7748 -13.03207 .32237 -1.62706 32 119.5)"/><path fill="#874328" d="M12-5l61 28-65-7z"/><circle cx="125" cy="106" r="1" fill="#570000"/><path fill="#ab7a52" d="M248.2 90.7l-36.4 39.1L271-2.4v46.5z"/><path fill="#dbd0ce" d="M173 69h4v5h-4z"/><path fill="#a0663e" d="M187 50h4v94h-4z"/><circle cx="127" cy="102" r="3" fill="#84390f"/><ellipse cx="93" cy="21" fill="#97522f" rx="45" ry="3"/><circle r="1" fill="#7f3c23" transform="rotate(176.6 3.7 15.5) scale(33.53298 6.28017)"/><path fill="#6a3d26" d="M127 121h39v4h-39z"/><path fill="#b49079" d="M70 72h30v5H70z"/><ellipse cx="180" cy="106" fill="#9c603b" rx="35" ry="17"/><path fill="#8f5533" d="M80.7 84l-6.4-18.1-1.8 34.8 10.2-39.8z"/><circle r="1" fill="#c8c9c7" transform="matrix(1.71273 15.33737 -29.1793 3.25846 250.5 127)"/><circle r="1" fill="#a8663b" transform="rotate(8.1 -156.5 418.5) scale(51.69014 2.00075)"/><path fill="#f0ebe3" d="M135.6 102.3l-.5 1-18.7-9.6.5-1z"/><path fill="#934b2d" d="M95.4 32.7l-3.6 9.1 33.3 1.8 7.6-.7z"/><path fill="#ded0c3" d="M145 68v4l5 2z"/><path fill="#92552d" d="M179 70h2v18h-2z"/><path fill="#f6f4f1" d="M129.4 110.7l-2.4-3.2 5.6-4.2 2.4 3.2z"/><path fill="#d4d4d4" d="M250.7 122.9l20.3 13.5v-95l-33.7 76.7z"/><path fill="#ab7044" d="M221.4 34l.2-4 39 2-.2 4z"/><path fill="#ba844f" d="M173.3 32l-.9 7-41.7-5 .9-7z"/><path fill="#7c4327" d="M29 52l49 12-17 7z"/><path fill="#b57e4d" d="M210.2 24.3L172.3 53l-17.1 21.7 6.8-63.1z"/><path fill="#c0925f" d="M244.9 78.2l-48.5-7.6-19.3-6.4 60.9 5.4z"/><path fill="#a56d43" d="M239.6 46L204 41l.4-3 35.6 5z"/><path fill="#b48356" d="M270.3 31.8l-65.4-17.5 35.8 3.5 16.4 2.4z"/><circle r="1" fill="#9a5732" transform="rotate(19 -185.8 155.3) scale(26.79777 4.6776)"/><path fill="#b68151" d="M227 91l-54-13 25 14z"/><circle r="1" fill="#af7a4b" transform="matrix(-.30097 2.9124 -132.18676 -13.66017 231.9 66.8)"/><path fill="#b99578" d="M119.7 65.5l-7 19.2-.5-11-7.2 1z"/><circle r="1" fill="#9e5d39" transform="matrix(-24.72568 -5.0305 .45681 -2.2453 133 133.6)"/><path fill="#9b643f" d="M86 91h65v3H86z"/><ellipse cx="159" cy="74" fill="#f1e7dc" rx="1" ry="6"/><path fill="#a16339" d="M167.6 91.8l-.9.6-12.3-18.2.9-.6z"/><ellipse cx="143" cy="55" fill="#9b5d35" rx="3" ry="20"/><path fill="#d7c1ac" d="M184 69l4 7-11-11z"/><path fill="#925432" d="M33.8 129.7l-10.1-8.5-17.8 6.6 31.3 7.4z"/><ellipse cx="154" cy="73" fill="#f1f3f1" rx="1" ry="5"/><path fill="#8f5331" d="M18.2 75.8l66 18.8 5.6-20.1 38.1 19.2z"/><path fill="#a66b42" d="M149 77h32v17h-32z"/><path fill="#b67a48" d="M91.4 31.6l.4-2 116.8 22.8-.4 2z"/><path fill="#edede6" d="M191 68h2v9h-2z"/><path fill="#713c22" d="M15.2 115l48 17.3L.4 159h87.2z"/><path fill="#a16940" d="M102.9 56l-9.7 8.7 19.9 20.2-45.4-29.1z"/><circle cx="139" cy="71" r="2" fill="#dacbbc"/><path fill="#995d38" d="M176.7 65.7l9.6 26.3-1 .3-9.6-26.3z"/><path fill="#9e5f35" d="M54 45l-39 2 70 16z"/><path fill="#956240" d="M242.2 83.8l4.9-1.6-42.4-9.2-6.2 12.5z"/></g></g></svg>