<svg xmlns="http://www.w3.org/2000/svg" viewBox="0 0 1400 785"><defs/><filter id="a"><feGaussianBlur stdDeviation="12"/></filter><rect width="100%" height="100%" fill="#4c4434"/><g filter="url(#a)"><g fill-opacity=".5" transform="translate(2.7 2.7) scale(5.46875)"><circle r="1" fill="#888f71" transform="rotate(93.3 91.8 103.2) scale(117.44665 17.88012)"/><path d="M63 13h29v37H63zm79.5-11.4L163-14.6l5 74.7-26.7-4.9z"/><path fill="#727a6b" d="M42.5 69h167v18h-167z"/><circle r="1" fill="#27291a" transform="matrix(-21.58667 -2.88028 20.177 -151.21959 245 87.9)"/><ellipse cx="154" cy="125" fill="#747752" rx="50" ry="12"/><path fill="#1d2113" d="M65 89h85v23H65z"/><ellipse cx="118" fill="#656a45" rx="25" ry="60"/><ellipse cx="172" cy="53" fill="#090a02" rx="25" ry="5"/><path d="M91.3 42.3l-25.9 2.3-2.7-31 25.9-2.2z"/><circle r="1" fill="#2c2f20" transform="matrix(-27.09073 -198.00985 18.07797 -2.47334 0 67.5)"/><path fill="#9d9d7e" d="M87 63L63 94l-3-28z"/><circle r="1" fill="#595f40" transform="matrix(18.64796 -2.06649 10.93774 98.7022 44.6 38)"/><circle r="1" fill="#7c8062" transform="rotate(-41.2 102.4 -257.5) scale(30.89792 26.32809)"/><path fill="#141409" d="M77 76h111v5H77z"/><path d="M66 96l14-23-8 37z"/><path fill="#38392a" d="M192 71l1 43-39 1z"/><path fill="#91938f" d="M107 69h75v6h-75z"/><path fill="#73764f" d="M102.3 11l-49-1 .4-21 49 1z"/><path fill="#343729" d="M116.3 83.9L195 35.1l10.8 11-22.6-18.2z"/><ellipse cx="143" cy="83" fill="#88897e" rx="65" ry="3"/><path d="M66 12h25v37H66z"/><path fill="#5e5d3b" d="M135 114l-20 23-86-32z"/><path fill="#171b10" d="M84 68.6l3-2.4 86.1-2.3-83.9-5.7z"/><path fill="#080c04" d="M143 0h19v56h-19z"/><path fill="#5c5c45" d="M187.4 63.4l14.6 6.5-15.4 34.7-14.6-6.5z"/><path fill="#868771" d="M203 136l-9-29-8 29z"/><path fill="#141511" d="M181.4 35.4l-12.3-9.3 16.8 33.2-17.3 3.8z"/><path fill="#999374" d="M181 35l-1 13 32-1z"/><path fill="#434639" d="M157.1 34.5l9.4-12.1 9.3 23.4L165 57.4z"/><path fill="#464433" d="M80 87h93v13H80z"/><ellipse cx="129" cy="84" fill="#232114" rx="2" ry="22"/><circle cx="76" cy="69" r="3" fill="#e4e7df"/><circle r="1" fill="#45432d" transform="rotate(102.7 86.4 124.8) scale(54.07717 16.30921)"/><ellipse cx="118" cy="139" fill="#69737e" rx="134" ry="1"/><path fill="#8e8c78" d="M196 0h8v36h-8z"/><ellipse cx="77" cy="139" fill="#252b2d" rx="246" ry="3"/><path d="M201.4 39.5l-.2 1-34.6-10 .2-1z"/><circle r="1" fill="#8c8f8a" transform="rotate(-35.9 161.4 -128.4) scale(3.19673 5.28309)"/><path fill="#262619" d="M174.3 115.7l-56.1-3.1-49.4-6.8 124.9 4.1z"/><ellipse cx="140" cy="85" fill="#8e8f86" rx="36" ry="2"/><path fill="#1e1d14" d="M79 75h30v5H79z"/><ellipse cx="129" cy="58" fill="#737758" rx="24" ry="2"/><circle r="1" fill="#5b5b40" transform="matrix(-4.94463 -97.60834 10.99174 -.55682 51.6 18.9)"/><circle cx="166" cy="49" r="4" fill="#838967"/><circle r="1" fill="#454530" transform="matrix(16.53212 -3.7389 15.9314 70.44303 26 69.7)"/><path fill="#76755a" d="M101.1 112.9l100.3 18.9L208.7-16l-17.1 132.3z"/><circle r="1" fill="#69684b" transform="matrix(8.33341 .62559 -3.19637 42.57886 212.6 22.3)"/><ellipse cx="179" cy="54" fill="#1a150e" rx="16" ry="5"/><circle cx="95" cy="71" r="3" fill="#acaeaf"/><path fill="#2c2a1d" d="M81 109.3l80.4 5.6L81 90.8l13.5-16.3z"/><path fill="#535034" d="M126.9 136.9l57.7.6-102.1-27.4L42.9 137z"/><ellipse cx="164" cy="139" fill="#757470" rx="151" ry="1"/><path d="M156.5 5l2.5 24.6 4.9-3 .6-25.3z"/><circle r="1" fill="#29291c" transform="rotate(8.1 -628.8 1856.7) scale(10.11949 104.43083)"/><ellipse cx="122" cy="75" fill="#24231b" rx="42" ry="1"/><path fill="#000704" d="M86 60h9v9h-9z"/><path fill="#16160a" d="M102 68l-4-7 2 14z"/><path fill="#f3f8ff" d="M84 66h1v8h-1z"/><path fill="#3d3b2c" d="M190.9 116.8l-61.5-6.9-8.6-24.5 70.7 19.9z"/><path fill="#a4a5a1" d="M117.6 78.2l-2.6-4.3 3.4-2L121 76z"/><path fill="#222110" d="M90.3 52.2l.7-32.7 8.1 32.8-34.6-4.5z"/><path fill="#919789" d="M164 66h12v9h-12z"/><path fill="#1f1c0f" d="M122 62h1v25h-1z"/><path fill="#1d1b10" d="M135 73l-1-6 4 1z"/><path fill="#918f78" d="M183.3 49.6l.5-4 22.9 2.8-.5 4z"/><path fill="#3a392b" d="M108 67h2v27h-2z"/><path fill="#0c0c01" d="M115.1 75h-1l.8-10h1z"/><path fill="#323129" d="M157 34l16-9 10 27z"/><path fill="#91928b" d="M91 82h14v5H91z"/><ellipse cx="197" cy="61" fill="#aeaf9d" rx="4" ry="2"/><path fill="#1d1b0e" d="M114.2 59.6l-1.4 13-1-.2 1.4-13z"/><path fill="#cbccc1" d="M74.6 67.5l5.3 7.3-2.5 1.7-5.3-7.3z"/><path fill="#adb0ac" d="M151 67.4l-1 6-5-.8 1-6z"/><path fill="#000100" d="M68 109l-3-14 10-11z"/><path fill="#7a7a60" d="M211.9 37.8L196 119.3l-5.9-1.1L206 36.7z"/><path fill="#1e1d0f" d="M146.5 66.7l1-.2 2 10.8-1 .2z"/><path fill="#5b5b3d" d="M37 60h50v6H37z"/><path fill="#494838" d="M133.6 82.1l1.4 15.6 3.7-16.1 21.2 25.3z"/><path fill="#9aa486" d="M187 142h12v1h-12z"/><circle cx="135" cy="67" r="2" fill="#b2b8b5"/><path fill="#fff" d="M133 66.1l.9.5-3 5.3-.8-.5z"/><circle r="1" fill="#2d2b1e" transform="matrix(4.05658 34.61125 -9.85225 1.15472 3 129.4)"/><path fill="#353224" d="M101 65h1l3 44h-1z"/><path fill="#393520" d="M60 49h23v10H60z"/><path fill="#242316" d="M127 67h4v17h-4z"/><ellipse cx="179" cy="76" fill="#0b1209" rx="1" ry="7"/><path fill="#7a7961" d="M59.8 74.4l20.5-1.6-15.7 25.7-1.4-22.9z"/><path fill="#4c5341" d="M166 68l30-3-33-6z"/><path fill="#54543c" d="M71.1 153.9L31.9 63.1 36 40.4l26.1 36.4z"/><circle r="1" fill="#4d4d37" transform="matrix(5.11081 -.12464 .58371 23.93562 137.7 24)"/><path fill="#252215" d="M74 95l-5 13 46 3z"/><path fill="#4a4939" d="M153 28.5l44.1 7.4-11.4 52.6 9.8-55.8z"/><path fill="#6e7155" d="M157 60l-.4 2-37.5-6 .3-2z"/><path fill="#646a4f" d="M165.9-16l-1.1 39.2 21.3 8.2.5-25.7z"/><path d="M74 82h4v6h-4z"/><path fill="#fff" d="M170.3 86h-1l.4-4h1z"/><circle r="1" fill="#615f42" transform="matrix(6.75799 32.34867 -15.05296 3.14473 105.6 4.9)"/><path fill="#23241a" d="M150 48h2v31h-2z"/><path fill="#4d5040" d="M148 75h41v6h-41z"/></g></g></svg>