<svg xmlns="http://www.w3.org/2000/svg" viewBox="0 0 1400 787"><defs/><filter id="prefix__a"><feGaussianBlur stdDeviation="12"/></filter><rect width="100%" height="100%" fill="#444"/><g filter="url(#prefix__a)"><g transform="translate(2.7 2.7) scale(5.46875)"><circle cx="106" cy="135" r="138" fill="#fff" fill-opacity=".5"/><circle r="1" fill="#fff" fill-opacity=".5" transform="matrix(85.27 94.29908 -26.93495 24.35595 180.5 86.6)"/><path fill="#0b0b0b" fill-opacity=".5" d="M40 13l-56 41 116 63z"/><circle r="1" fill="#fff" fill-opacity=".5" transform="matrix(26.51458 -24.67286 36.05016 38.74116 43.7 138.4)"/><path fill="#040404" fill-opacity=".5" d="M163.9 9.1l15.5-12.6L246.1 79l-15.5 12.6z"/><ellipse cx="184" cy="122" fill="#fff" fill-opacity=".5" rx="85" ry="30"/><circle r="1" fill="#3b3b3b" fill-opacity=".5" transform="matrix(55.8237 75.71743 -5.73975 4.2317 96.3 44.6)"/><path fill="#fff" fill-opacity=".5" d="M72 88l15-34 68 104z"/><path fill="#d9d9d9" fill-opacity=".5" d="M76.1 71.1L57.8-16l18 21.6L16.3-16z"/><path fill="#f2f2f2" fill-opacity=".5" d="M209.4 72L166 106 78.6-6.1 122-39.8z"/><path fill-opacity=".5" d="M55.2 42.4L77.5 78 58.8 89.6 36.5 54z"/><circle r="1" fill="#5f5f5f" fill-opacity=".5" transform="rotate(30.9 -90 56.2) scale(27.87481 42.60039)"/><path fill="#404040" fill-opacity=".5" d="M71 113l38 21-23-46z"/><circle r="1" fill="#252525" fill-opacity=".5" transform="matrix(2.45685 81.91869 -21.29947 .6388 241 23.4)"/><circle r="1" fill="#fff" fill-opacity=".5" transform="rotate(44.3 -131.5 138.5) scale(32.56787 18.30717)"/><path fill="#272727" fill-opacity=".5" d="M28 158l2-36 10 18z"/><path fill="#f3f3f3" fill-opacity=".5" d="M77.6 103.5l-6 1.3 10.3-58.3 1.5 52z"/><path fill="#bababa" fill-opacity=".5" d="M59 95.8l-33.6 17.8L15 94.2l33.5-17.8z"/><ellipse cx="197" cy="129" fill="#fafafa" fill-opacity=".5" rx="35" ry="59"/><path fill="#fefefe" fill-opacity=".5" d="M255.6 124.1L271 81.7l-25.9 30.9-23.7 45.4z"/><path fill="#232323" fill-opacity=".5" d="M76.1 119.3L62 99.6l-4.3-13.4L88 129z"/><path fill="#fff" fill-opacity=".5" d="M-11 171.4l20.5-67 13.4 4.2-20.4 67z"/><circle r="1" fill="#464646" fill-opacity=".5" transform="rotate(-127.5 99.5 -36) scale(102.58823 13.67621)"/><ellipse cx="51" cy="3" fill="#fff" fill-opacity=".5" rx="21" ry="2"/><circle r="1" fill="#626262" fill-opacity=".5" transform="matrix(-1.86033 -8.1434 18.5203 -4.2309 70.5 9.3)"/><path fill="#f6f6f6" fill-opacity=".5" d="M162.1 154.2l-17.6 14.7L90 104l17.5-15z"/><path fill="#979797" fill-opacity=".5" d="M96 86h40l36 51z"/><path fill="#e8e8e8" fill-opacity=".5" d="M152-16L85 13l67 95z"/><circle r="1" fill="#c2c2c2" fill-opacity=".5" transform="matrix(27.4087 41.6372 -10.01656 6.59365 87.6 61.4)"/><path fill-opacity=".5" d="M60.8 69.3l3 28.7-19.3-28.3L51.4 33z"/><path fill="#8c8c8c" fill-opacity=".5" d="M197 10l18 27-11-53z"/><path fill="#090909" fill-opacity=".5" d="M75.2 118.4l10-25 5.6 2.2-10 25z"/><ellipse cx="25" cy="28" fill="#757575" fill-opacity=".5" rx="8" ry="68"/><circle r="1" fill="#515151" fill-opacity=".5" transform="matrix(9.99694 2.24552 -26.28754 117.0309 0 78.4)"/><path fill="#e0e0e0" fill-opacity=".5" d="M76.8 71.5l-7-6.8-32.5-53 43.2 51.7z"/><path fill="#fff" fill-opacity=".5" d="M36 158l10-51 43 35z"/><circle r="1" fill="#d4d4d4" fill-opacity=".5" transform="matrix(7.43662 -6.04358 58.62832 72.14214 144.6 44.3)"/><ellipse cx="245" cy="99" fill="#5b5b5b" fill-opacity=".5" rx="6" ry="10"/><path fill="#313131" fill-opacity=".5" d="M53.9 81.1l16.5 16.8 6.9-21.2-20.8-34.4z"/><path fill="#e4e4e4" fill-opacity=".5" d="M96 81.8l-28.9 22.8 6-14.8 4.1-9.7z"/><path fill="#545454" fill-opacity=".5" d="M75 20.1l7.3-5.2 64.7 89-7.3 5.2z"/><path fill="#d2d2d2" fill-opacity=".5" d="M53.4 84.8l-39.7 50.5 49.8-21.5 18.7 19.1z"/><path fill="#f9f9f9" fill-opacity=".5" d="M183 158l39-9-106-99z"/><path fill="#9b9b9b" fill-opacity=".5" d="M32.5 71.7l19.4 16.8-31.2 11.8 4.6-30.5z"/><path fill="#8d8d8d" fill-opacity=".5" d="M122 148l-30-44-14 14z"/><path fill="#4a4a4a" fill-opacity=".5" d="M80 0L26-14l3 15z"/><path fill="#484848" fill-opacity=".5" d="M71.7 113.4l14.7 27-27.6-76.1 2.5 29.1z"/><path fill="#fff" fill-opacity=".5" d="M183.4 81.9l-18.1-60.3 9.8 33.6-52.9-58.3z"/><circle r="1" fill="#4b4b4b" fill-opacity=".5" transform="matrix(-4.4693 3.8851 -29.50134 -33.93741 168.9 10.9)"/><path fill="#202020" fill-opacity=".5" d="M237.3 8.4l-6 62.7L271-.9 132.2-16z"/><circle r="1" fill="#303030" fill-opacity=".5" transform="matrix(3.67282 -3.19253 26.70001 30.71683 204.7 53)"/><path fill="#dfdfdf" fill-opacity=".5" d="M93.9 81.6l36.8 23.6-14 23.8-49.3-67.7z"/><path fill="#878787" fill-opacity=".5" d="M144.1 99.3l-3.7 17.7-12.7-12.8-24.8-33.5z"/><path fill="#727272" fill-opacity=".5" d="M217.3 34.7l14.1-7.5 3.3 6.1-14.1 7.5z"/><path fill="#b4b4b4" fill-opacity=".5" d="M30 3l67 66-24-48z"/><circle r="1" fill="#fff" fill-opacity=".5" transform="matrix(31.8933 27.87044 -3.20413 3.66662 129.8 142)"/><path fill="#fff" fill-opacity=".5" d="M181.3 130.3l-34.5 11.3 19 16.4 12.4-34.1zM14 154l-16-20 20-26z"/><path fill="#ddd" fill-opacity=".5" d="M98.1 157.1l12.1-6.5-8.4-15.6-8.8-3.6z"/><circle r="1" fill="#d1d1d1" fill-opacity=".5" transform="matrix(-2.442 1.96581 -27.51374 -34.17842 204.1 84.4)"/><circle r="1" fill="#d9d9d9" fill-opacity=".5" transform="matrix(19.84947 15.99406 -5.54457 6.8811 144.2 5.2)"/><path fill="#535353" fill-opacity=".5" d="M225.6 67l-8.7 10.2 20.7 23.5 26.1-1.5z"/><ellipse cx="87" cy="3" fill="#f7f7f7" fill-opacity=".5" rx="56" ry="1"/><path fill="#c8c8c8" fill-opacity=".5" d="M186 4l1-20h-16z"/><path fill="#b7b7b7" fill-opacity=".5" d="M164.9 132.5l-11.2 6.7-14.8-33.9 38.4 33.2z"/><path fill="#505050" fill-opacity=".5" d="M35 5h50v3H35z"/><path fill="#575757" fill-opacity=".5" d="M76.8 3.4l-6.6 9.9 34.2 54.5-15.2-45.9z"/><path fill="#bdbdbd" fill-opacity=".5" d="M256 124l-36 34 51-15z"/><path fill="#4e4e4e" fill-opacity=".5" d="M-5-12l30 93-26-10z"/><circle r="1" fill="#f9f9f9" fill-opacity=".5" transform="matrix(1.27623 1.24977 -13.20732 13.48687 255 104.5)"/><path fill="#b3b3b3" fill-opacity=".5" d="M17 110l8 48 6-35z"/><path fill="#0f0f0f" fill-opacity=".5" d="M245.8 79.7l19.1 11 6.1-69.1L250.7 68z"/><path fill="#171717" fill-opacity=".5" d="M49.5 46.4l-7.1 26.7 33.9.1-24.1-35.8z"/><circle r="1" fill="#353535" fill-opacity=".5" transform="matrix(-2.50787 7.73403 -4.12731 -1.33834 84.6 99.7)"/><path fill="#fbfbfb" fill-opacity=".5" d="M92 103l-2-20 15 25z"/><path fill="#8e8e8e" fill-opacity=".5" d="M198.7 10.2L188.2-16l12.6 21.2 6.3 21.8z"/><ellipse cx="76" cy="100" fill="#c3c3c3" fill-opacity=".5" rx="4" ry="7"/><path fill="#b2b2b2" fill-opacity=".5" d="M23.2 85.8l-6.8-2.9-22.6 27.8-9.8 28.1z"/><path fill="#fff" fill-opacity=".5" d="M48.8 153.9L88 139.3l-13.2-12-41.3 2.1z"/><path fill="#292929" fill-opacity=".5" d="M271 63l-34 12-41-44z"/><path fill="none" stroke="#fff" stroke-opacity=".5" stroke-width=".5" d="M89.8 93.8Q27.5-7 18.6-16"/><path fill="#595959" fill-opacity=".5" d="M0 11h40v27H0z"/><path fill="#c6c6c6" fill-opacity=".5" d="M153.5 126.1L57 37.8l50.9 36.7 9.4 41.5z"/><circle r="1" fill="#bebebe" fill-opacity=".5" transform="rotate(46.4 -13.4 347.3) scale(2.5162 16.40254)"/><path fill="#c6c6c6" fill-opacity=".5" d="M183.8 80l-29.9-37 3.9 32.7 13.5-3.9z"/><circle r="1" fill="#dcdcdc" fill-opacity=".5" transform="matrix(-17.62146 -7.55481 6.44864 -15.04133 105.7 15.2)"/><circle r="1" fill="#fcfcfc" fill-opacity=".5" transform="rotate(-33.1 318 -305) scale(29.34533 12.84159)"/><circle r="1" fill="#fff" fill-opacity=".5" transform="matrix(1.8138 -1.43884 55.47308 69.92936 175.3 65.6)"/><path fill="#5b5b5b" fill-opacity=".5" d="M92.8 128.5l-2.3-30.3-15.1 23.5-8.8-25.9z"/><path fill="#fdfdfd" fill-opacity=".5" d="M84.5 87.3l-9 16.6 4.4-26.3 6.5 10.2z"/><path fill="#fff" fill-opacity=".5" d="M296.8 78.2l4 4.3-93.6 87.3-4-4.3z"/><path fill="#686868" fill-opacity=".5" d="M143.9-25l.7-.6L218.1 59l-.7.7z"/><path fill="#f9f9f9" fill-opacity=".5" d="M135 117l13 18-46 23z"/><path fill="#3e3e3e" fill-opacity=".5" d="M48.4 31.5L32 72.3l12.7-3.9 6.8-30.3z"/><path fill="#ababab" fill-opacity=".5" d="M155.6 131.1l14.6 1.9-67.3 24.5 60.4-24.1z"/><path fill="#8a8a8a" fill-opacity=".5" d="M106 129h7v14h-7z"/><path fill="#3c3c3c" fill-opacity=".5" d="M241.6-15.1l-45.3 5 54.8 45.9-52.7-18.1z"/><path fill="#020202" fill-opacity=".5" d="M54 75.3l4.1.8-17.5-8.9 15.5-23.4z"/><path fill="#bbb" fill-opacity=".5" d="M101 6.9v1L57 7V6z"/><path fill="#dbdbdb" fill-opacity=".5" d="M121.5-1l13.7-15L180 31.9l55.3 67.2z"/></g></g></svg>