<svg xmlns="http://www.w3.org/2000/svg" viewBox="0 0 1120 1400"><defs/><filter id="a"><feGaussianBlur stdDeviation="12"/></filter><rect width="100%" height="100%" fill="#533725"/><g filter="url(#a)"><g fill-opacity=".5" transform="translate(2.7 2.7) scale(5.46875)"><circle cx="155" cy="215" r="211" fill="#a5967b"/><path fill="#fff" d="M-23.2 218.9l-4-10.2L209.1 113l4 10.2z"/><circle r="1" fill="#000619" transform="rotate(152.9 30 111.7) scale(108.07061 23.78668)"/><circle r="1" fill="#ffac2b" transform="matrix(16.24415 29.86078 -39.3253 21.39282 162.5 67.2)"/><circle r="1" fill="#98cdfb" transform="rotate(-130.2 136.7 60.6) scale(20.50924 130.91076)"/><ellipse cx="19" cy="78" fill="#db963b" rx="44" ry="70"/><circle r="1" fill="#500600" transform="rotate(85.5 -3 89.6) scale(62.46476 20.71999)"/><circle r="1" fill="#a6e2ff" transform="matrix(78.2209 -9.85143 1.205 9.56775 55.4 255)"/><circle r="1" transform="matrix(5.6022 8.4704 -76.9215 50.87474 160.6 255)"/><circle r="1" fill="#420f00" transform="matrix(-35.47821 22.20777 -7.68479 -12.2769 172.7 112.5)"/><path fill="#fff" d="M219 256l-69 15 52-32z"/><path fill="#0b1e2c" d="M156 214l-62 31-16-59z"/><circle r="1" fill="#394a56" transform="matrix(1.18447 12.30123 -80.23837 7.72608 45.4 34)"/><path fill="#ffffea" d="M66 104.3l7.7 17.3-13.7 6.1-7.7-17.3z"/><circle r="1" fill="#b8d9ef" transform="rotate(-29.1 367.4 -169.5) scale(52.01952 7.72853)"/><circle r="1" fill="#3c2924" transform="matrix(40.74508 -8.73499 4.51254 21.0491 97.6 134.9)"/><circle r="1" fill="#e1ffff" transform="matrix(-2.56858 -5.96418 83.38168 -35.90982 36.5 190)"/><circle r="1" fill="#000a1f" transform="matrix(-65.69161 21.9296 -1.36982 -4.10338 22.2 182.3)"/><path fill="#1a1618" d="M-13.3 262.3l-11.3-26.7 93.9-39.9 11.3 26.7z"/><path fill="#f19423" d="M9 129l-25-61 88-11z"/><path fill="#889cac" d="M40 34L39 2l-55 38z"/><ellipse cx="159" cy="58" fill="#ffba4f" rx="34" ry="17"/><path fill="#210700" d="M122.2 16.1l12.5-25.3L24.8 8.5 87 18.1z"/><circle r="1" fill="#532e07" transform="matrix(-.67952 -5.69865 111.43285 -13.28756 70.5 38.2)"/><path fill="#211b1d" d="M219 79l-92 66 92-34z"/><circle r="1" fill="#daac3d" transform="rotate(82.1 11.1 81.5) scale(5.15588 29.64623)"/><path fill="#fffaa2" d="M36 44h30v8H36z"/><path fill="ivory" d="M106.9 111.9l2.9-18.3 7.1 2.7-1.3 13.6z"/><circle r="1" fill="#7293af" transform="matrix(-2.20136 -4.9227 57.6045 -25.75991 31.7 205.3)"/><path fill="#e3e6d9" d="M81 215h6v21h-6z"/><path fill="#f7ffff" d="M240.8 104.5l2.9 7.4-134.5 51.6-2.9-7.4z"/><path fill="#340d00" d="M58 66h57v16H58z"/><path fill="#0e120f" d="M126.4 190l-7-14.4L241.6 116l7 14.4z"/><path fill="#e9c087" d="M55 1l-70-17 4 19z"/><path fill="#702d03" d="M-16 26.2l47.7 55.4 43.5-36.5-37.7 17.4z"/><circle r="1" transform="matrix(3.48898 5.5901 -40.12577 25.04394 188.2 237.7)"/><circle r="1" fill="#dde7e9" transform="matrix(-2.81241 -.19173 .77887 -11.42483 130 10.4)"/><circle r="1" fill="#ad5621" transform="rotate(-142.5 103 20.4) scale(13.31255 35.84599)"/><path fill="#190000" d="M97 84h11v56H97z"/><path fill="#682900" d="M174 20h30v18h-30z"/><path fill="#fff" d="M30 9h9v16h-9z"/><path fill="#b3c1d4" d="M127.1 265l-15.8-24.3L145 219l15.8 24.4z"/><path fill="#d2a248" d="M75.5 46.6l58.3-3.6 2.9-16.2 7.9 1.4z"/><path fill="#e0ffff" d="M208.6 235.9l10.4 14.7-33.6 23.5-10.4-14.7z"/><path fill="#252721" d="M13 31l16-2 5-45z"/><path fill="#0d1317" d="M75.6 246.6l61.1-51.9-1.7-10 15 20.8z"/><ellipse cx="84" cy="104" fill="#912a06" rx="15" ry="33"/><circle r="1" fill="#995928" transform="matrix(9.09583 15.75098 -57.22004 33.04327 6.8 157.9)"/><path fill="#687278" d="M66.4 186.9l87.9-41 3.3 7.2-87.9 41z"/><path fill="#a3cae9" d="M86 239l26 32-116-15z"/><path fill="#929fa2" d="M105 149.3L80.4 158l-3.4-9.4 24.4-8.8z"/><path fill="#507393" d="M89.2 239.6l87-47.1-58.7 38.1-23.6 21.5z"/><path fill="#e5b293" d="M1.8 185.6l-17.8-3.2v-.9l55.7-12.2z"/><path fill="#160000" d="M123 54V32l-8 22z"/><path fill="#00090b" d="M154.2 16.7l.7-20 15 .6-.8 20z"/><path fill="#ebece0" d="M148.5 197.8l-3.8 2.1 3.4-15.9 3.4-7.4z"/><path fill="#ca803b" d="M110 55l15 60 77-27z"/><path fill="#ffb13c" d="M27 86l3-26-44 8z"/><path fill="#d4aa76" d="M28 24L1 9l-17 19z"/><path fill="#703c16" d="M158.8 21l-27.2 9 12.3 14.5 25.3-8z"/><path fill="#849da8" d="M219 143.5l-69.1 98-1.7-36 33-33.8z"/><path fill="#b7bac0" d="M136.7 242.8l28.2-2.1 54.1-35.3-19.3 6.1z"/><path fill="#2b1504" d="M-16 66.4l37.2-29.2-35.8 17.1L35 60z"/><path fill="#020000" d="M-16 192.7l41.2-16.8 17.2 1.6-40.3 17.7z"/><path fill="#f8d390" d="M44.3 52.6l-20.7-8.8-.7 4.7 19.9 13z"/><circle r="1" fill="#b1c6d5" transform="matrix(67.46082 -6.13942 .09063 .99588 197 16.5)"/><path fill="#dcd5c4" d="M103.4 226l-1.8-26h1l1.8 26z"/><circle r="1" fill="#dcf2ff" transform="matrix(90.57644 -37.26167 2.15474 5.23778 46.4 185)"/><path fill="#6c7981" d="M72.6 190.4l40.9-14.6 18.1-8.5-63.6 9.6z"/><path fill="#1b2a2e" d="M121 118l-36 44 32-13z"/><path fill="#495157" d="M54.2 158.4l110.2-24.5-139.6 46.6 25.7-45.9z"/><path fill="#bbced8" d="M119.7 26v1L14.4 38v-1z"/><path fill="#674b33" d="M96.2 129.2l107.4-26.7-77.9 1.2L219 78.2z"/><path fill="#e9b159" d="M173 99l2-78-30 57z"/><path fill="#e08d48" d="M26 66l29 8 7 60z"/><path fill="#0f0d0b" d="M149.8 165l-6.2 38.7 5.8 17.6-17.3-15.3z"/><circle r="1" fill="#84939d" transform="rotate(-93.8 32.8 -8.2) scale(1.63449 81.19167)"/><path fill="#261205" d="M29.5 37.7l20.6 9.4 19.7-11.4 10.7-4z"/><path fill="#9f885a" d="M7.8 133.8l86-52.4L-7 107.1l26.9 9.3z"/><path fill="ivory" d="M86.5 53.1l-4.6 9.6 5 2.3 2.1-9.8z"/><path fill="#130f0f" d="M59 241l25-2-7-31z"/><path fill="#211200" d="M41 67l6-13 21-3z"/><path fill="#ffe785" d="M100 33l6 11 15-2z"/><path fill="#121617" d="M49.4 18.8L54-1.5 35.2 4.8 41 24.5z"/><path fill="#ffffe3" d="M67.4 106.7l2.9 18.5h-3.4l-9.8-12.9z"/><path fill="#6d7c86" d="M158.5 156.6l-19.2-5.8-12.3 3.7 92-27z"/><path fill="#ffd57e" d="M63.7 51.4l-14.8.6 12.6-13.1 7.9 9.7z"/><path fill="#341200" d="M59.3 108.5l-2.2-7.7 11.6-3.3 2.2 7.7z"/><path fill="#ffffcb" d="M129 33l-1 13 7-16z"/><path fill="#cb4300" d="M22.1 172.4l-22 2.8-16.1-3 43.1-10.9z"/><path d="M97 250l-9-14 1-21z"/><path fill="#000202" d="M126.5 3v12h-23V3z"/><path fill="#351100" d="M36 43.8L6.9 38.4l23.3 2.9 7.1 22.1z"/><path fill="#271909" d="M109.4 82.9L88 71.6l1.9-16.1 24.1 10z"/><path fill="#feb63b" d="M145 2h10v8h-10z"/><circle r="1" fill="#451d15" transform="matrix(13.64437 -59.60804 .97479 .22313 193.3 69.8)"/><circle r="1" fill="#2b0000" transform="matrix(7.12955 -25.70834 2.26198 .6273 203 83.9)"/><circle cx="111" cy="104" r="5" fill="#fffffd"/><path fill="#8c837a" d="M126 104.8l-6.1 17.5 22.8 15-23.4 4.9z"/><circle r="1" fill="#4f3320" transform="matrix(5.73807 3.50367 -11.65208 19.08296 70 74.9)"/></g></g></svg>