<svg xmlns="http://www.w3.org/2000/svg" viewBox="0 0 1120 1400"><defs/><filter id="a"><feGaussianBlur stdDeviation="12"/></filter><rect width="100%" height="100%" fill="#45413f"/><g filter="url(#a)"><g fill-opacity=".5" transform="translate(2.7 2.7) scale(5.46875)"><circle r="1" fill="#c9eeff" transform="matrix(-192.16342 25.8209 -6.77584 -50.4269 143.2 255)"/><circle r="1" fill="#ffa626" transform="matrix(57.72727 -.45566 .5434 68.8429 148.8 9)"/><circle r="1" fill="#ebffff" transform="matrix(-104.43499 53.1507 -5.35495 -10.52185 68.2 161.2)"/><circle r="1" fill="#f28e28" transform="matrix(23.3272 -64.19433 43.70775 15.8827 20.6 81.5)"/><circle r="1" transform="matrix(-95.35907 69.03745 -5.82891 -8.05128 151.3 227.6)"/><circle r="1" fill="#a2bfd4" transform="matrix(13.59263 15.4895 -70.53338 61.89579 195.8 157.4)"/><path fill="#fff" d="M208.8 195.4l32 41-79.6 62.2-32-41z"/><circle r="1" fill="#fff" transform="rotate(153.2 81.8 71) scale(85.09332 4.9746)"/><ellipse cx="87" cy="53" fill="#620" rx="31" ry="69"/><circle r="1" fill="#f39b47" transform="rotate(-55 114.6 -108.4) scale(51.1741 24.50033)"/><path fill="#1c1f20" d="M108 215l-124-10L219 87z"/><circle r="1" fill="#e4faff" transform="rotate(154.2 1.6 89.6) scale(131.62764 6.75271)"/><circle r="1" transform="rotate(-36.6 400.1 -174.7) scale(104.91167 7.29665)"/><path fill="#fff" d="M53 88h13v18H53z"/><path fill="#f47e36" d="M24.3 140.7l7.3 16.4-32 14.2-7.2-16.4z"/><circle r="1" fill="#a4bfd6" transform="matrix(62.5058 -21.69438 6.623 19.08218 41.6 246.3)"/><circle r="1" fill="#441008" transform="matrix(7.95057 31.888 -24.71054 6.16103 77.3 66.5)"/><circle r="1" fill="#e5872e" transform="matrix(-37.34113 3.36086 -2.59166 -28.7949 10.6 69.5)"/><path fill="#722701" d="M144 111l75-64-84 23z"/><path fill="#ffffaf" d="M71 24h9v15h-9z"/><path fill="#ffed94" d="M21 18h34v8H21z"/><path fill="#fff" d="M102 70h9v18h-9z"/><circle r="1" fill="#daf7ff" transform="matrix(9.72133 22.52664 -54.3965 23.47472 203 233.7)"/><circle r="1" fill="#c6e0e8" transform="rotate(-117.6 67.3 96.1) scale(1.64793 35.69886)"/><circle r="1" fill="#e4feff" transform="matrix(-1.92539 -4.129 33.06499 -15.41846 183.5 99.7)"/><ellipse cx="172" cy="24" fill="#ee9338" rx="53" ry="21"/><path fill="#879bb0" d="M71 231l125-68-65 73z"/><ellipse cx="112" cy="60" fill="#1c0e0d" rx="3" ry="72"/><circle r="1" fill="#634b37" transform="rotate(178.1 18.8 67.1) scale(48.51238 21.78835)"/><circle r="1" fill="#4b2100" transform="matrix(2.22976 4.30164 -30.27436 15.69274 45 32.6)"/><path fill="#ffff96" d="M94 5h17v7H94z"/><circle r="1" fill="#1e0e0a" transform="matrix(58.0617 -25.98037 3.80425 8.50186 28 215.9)"/><path fill="#0e0000" d="M32 7l-6 14L66 0z"/><path fill="#9b9d95" d="M93.9 201.5l-9.5-26.3 2.2 23 3 23.1z"/><path fill="#ffc430" d="M84 23h18v8H84z"/><path fill="#1a1c1c" d="M125.5 200.1l-62-24 79.2-37.8 5.6 50.7z"/><path fill="#030402" d="M16.9 162.8l-32.9 25 48.6-20.7 27.5-13.6z"/><path fill="#aebdc3" d="M18 7.3L74-2.8-6.8 14.9l-4.4-12.4z"/><path fill="#df9b35" d="M36.5 37.6l32.1-9.3-29.8 27.3 25.7 75.8z"/><path fill="#29140f" d="M208 43l9 35-88 40z"/><path fill="#6d787f" d="M37.9 191.4l-42.2 21.4L77 154.2l70.6-21.3z"/><path fill="#190000" d="M-7.6 30.8l3.5 14.3 19.6-10.3L-16 10z"/><path fill="#170a05" d="M89.1 53.9L61 38l46.2 2.3L96 119.8z"/><path fill="#130b05" d="M132 142l87-47-60 66z"/><path fill="#010d17" d="M45.8 158.8l116-56.5.4.9-116 56.5z"/><circle r="1" fill="#6c190c" transform="matrix(9.11443 -44.3018 2.8475 .58583 191.4 28.6)"/><circle r="1" transform="matrix(-23.3918 22.66823 -3.76997 -3.8903 134.5 245.5)"/><path fill="#7c7f7f" d="M149.7 130.5l-3.2-6.2 61.8-32.8 3.2 6.2z"/><circle r="1" fill="#e6f9ff" transform="rotate(62.4 -120.4 117.9) scale(5.50161 56.90803)"/><path fill="#99968b" d="M152 152.9l-7.1-4 .4-8 .1 33.2z"/><path fill="#fff8af" d="M25.4 38.3L19.7 17l4.9-1.3L30.3 37z"/><path fill="#9b7f56" d="M92 57L26 71l-27 34z"/><path fill="#486a88" d="M90 213l14 6 33-34z"/><circle r="1" fill="#894c20" transform="matrix(4.5294 -15.5468 28.3994 8.27388 139.6 84.1)"/><path fill="#ebbc69" d="M23.3 39.7L6.5 17.4l-6.8 3.4L26 41.6z"/><path fill="#020000" d="M95.2 66.3l2.6 50.9 10 6-8.3-56z"/><ellipse cx="80" cy="95" fill="#6f1a05" rx="15" ry="32"/><path fill="#2f3031" d="M53 88l7-28-15-22z"/><path fill="#462600" d="M64 27l54-10-71-9z"/><ellipse cx="102" cy="58" fill="#8d9fa1" rx="11" ry="3"/><path fill="#4c1e0e" d="M126-16l2 25 31-6z"/><circle r="1" fill="#270800" transform="matrix(56.34008 -12.34418 .57871 2.64131 31 10.4)"/><path fill="#ffc163" d="M54 15L33 27l13-17z"/><ellipse cx="12" cy="49" fill="#ff4a00" rx="9" ry="10"/><path fill="#231713" d="M87 159l-5 50-58 20z"/><path fill="#c87513" d="M-7 142l-3.2-7.3L41 112l3.2 7.3z"/><path fill="#080000" d="M150.3 233.6l-6.8-8.7 44.2-34.5 6.8 8.7z"/><path fill="#9aa7b8" d="M128.8 201.5l13.6 29-17.2 8-13.6-29z"/><path fill="#788fa0" d="M189.5 87.2L219 75l-20.2 2.6-7.4 3.3z"/><path fill="#ec3800" d="M131 69l9-34 4 26z"/><circle r="1" fill="#e7b378" transform="rotate(12.2 93.8 947.4) scale(1.76608 64.48624)"/><path fill="#261f1f" d="M-31.6 157.8l78-36.3 1.2 2.7-78 36.3z"/><circle r="1" fill="#dfc09d" transform="matrix(.94149 2.3676 -19.2949 7.6727 9.2 164.2)"/><path fill="#323130" d="M143.1 132.1l5.5-13.4-9.3 6.8 66.4 58.6z"/><path fill="#fffdbf" d="M116 15l4-14 7-4z"/><path fill="#fffff8" d="M50 91l14 14 1-14z"/><path fill="#787c78" d="M112 122l-26-2-14 20z"/><path fill="#ff2400" d="M188 29l-5 24-9-2z"/><path d="M30 27h21l-20 8z"/><circle r="1" fill="#f9f3f4" transform="matrix(74.40765 -55.91137 10.28019 13.68102 203 240)"/><path fill="#e5a544" d="M168 53l-39-23 57-38z"/><path fill="#9d6b3e" d="M121.2 94.3l75.4-36.7-67.1 6.3-27.6-44.3z"/><circle cx="107" cy="105" r="3" fill="#e7f3ea"/><path fill="#9dbecf" d="M96.9 213.3l-13.4-1.1-99.5 46 116.1-36.7z"/><path fill="#972a00" d="M29 149l-45 23 9-21z"/><path fill="#7d7673" d="M56 130l11 10-33 19z"/><path fill="#e5f7ff" d="M120 136l-37.4 19-4.6-9 37.4-19z"/><path fill="#350000" d="M195 41h9v34h-9z"/><path fill="#090300" d="M148 112.4l-9.3-18.7 1.7-3-10.9 13.2z"/><path fill="#210d07" d="M76.3 124.2l-20.2-8.1 25.9-2.8 47.3-23.1z"/><path fill="#7f9198" d="M168 153l51-48-3 47z"/><path fill="#a7c1c6" d="M28.4 195.6l-.5-.9 43.7-26.3.5.9z"/><path fill="#8e9baa" d="M67 271l57-70 81-25z"/><path fill="#ffdf8a" d="M44 54h4v20h-4z"/><path fill="#e58e29" d="M2 119l13-58-31-39z"/><path fill="#96915d" d="M7.5 85l14.6-1.9 16.7 26.1-51.2-17.1z"/><path fill="#301200" d="M22.3 9.8l17.8 8-56.1-3.2L18.2 23z"/><circle r="1" fill="#a5d2ef" transform="rotate(50.7 -179.2 288.5) scale(7.03396 74.87887)"/><circle cx="66" cy="123" r="3" fill="#eff8f4"/><path fill="#ffee89" d="M103 11l-10 2-1-6z"/></g></g></svg>