<svg xmlns="http://www.w3.org/2000/svg" viewBox="0 0 1120 1400"><defs/><filter id="a"><feGaussianBlur stdDeviation="12"/></filter><rect width="100%" height="100%" fill="#61493e"/><g filter="url(#a)"><g fill-opacity=".5" transform="translate(2.7 2.7) scale(5.46875)"><ellipse cx="103" cy="238" fill="#dce2d9" rx="101" ry="255"/><circle r="1" fill="#060000" transform="matrix(11.86698 -2.17014 21.90046 119.75818 134.1 86.2)"/><circle r="1" fill="#211409" transform="matrix(18.06717 -139.63226 13.08661 1.6933 72.1 79.6)"/><circle r="1" fill="#fff" transform="matrix(-17.07653 -31.0621 47.46186 -26.09238 181.3 226.4)"/><circle r="1" fill="#fff" transform="matrix(-13.799 -2.12519 11.37339 -73.84816 47.3 71.2)"/><path fill="#fff" d="M183.6 136l-22.4 5.1-34.8-151 22.4-5.2z"/><circle r="1" fill="#f7f5ee" transform="rotate(102.1 -82.3 124.3) scale(37.11651 61.23324)"/><circle r="1" fill="#220600" transform="matrix(-29.32635 -105.43162 19.11167 -5.31601 192.9 78.3)"/><circle r="1" fill="#420700" transform="matrix(-12.0224 -2.92231 35.46525 -145.90406 13.8 101)"/><path fill="#120000" d="M164.3 203.8l-28.6-1.4-5.3-.6 43.7-47.7z"/><path fill="#653308" d="M71.8 200l-19 11-66.6-115 19-11z"/><path fill="#eb6f09" d="M-16 52l47 9L6-16z"/><path fill="#070905" d="M116 69h22v45h-22z"/><ellipse cx="110" cy="31" fill="#5a564d" rx="27" ry="47"/><path fill="#fff" d="M179.1 133l-24.7 3.4-9.5-67.3 24.7-3.5z"/><circle r="1" fill="#904c14" transform="matrix(-26.73609 19.20362 -12.83575 -17.87047 203 132.7)"/><path fill="#fffff9" d="M19.7 127.4L50.9 2.2l17.4 4.4-31.2 125.2z"/><circle r="1" fill="#fff" transform="matrix(-8.24674 -23.67394 12.86056 -4.47994 144.2 226.7)"/><path fill="#f2e9dc" d="M169 168h31v88h-31z"/><circle r="1" transform="matrix(9.21932 5.9606 -25.34214 39.19697 192.1 15.5)"/><path fill="#e7cdb2" d="M41 158l16-64 3 79z"/><path fill="#000209" d="M74.6 202.6l-29.8 1.9-2.9-28.7 40.7 26.6z"/><ellipse cx="23" cy="198" fill="#dccebe" rx="19" ry="36"/><path fill="#f8f9f8" d="M58 204h22v52H58z"/><path fill="#292622" d="M86 109l-33 33L77 10z"/><circle r="1" fill="#fff" transform="matrix(-9.94407 1.51943 -6.78505 -44.40537 150 41.1)"/><circle r="1" fill="#e7873a" transform="matrix(4.6583 1.48615 -9.88853 30.99543 3.9 130.2)"/><path fill="#1c0f00" d="M-24 48.8l58.9 15.8L24 105.2l-58.9-15.8z"/><circle r="1" fill="#837068" transform="rotate(-83.6 185 60.8) scale(47.93977 24.82327)"/><path fill="#ffc27f" d="M157.2 173.2l10.7-8.7-8.4-27.6-11.6 5.1z"/><path fill="#ebe7de" d="M52.2 145.3L47.7-16h42.8l-21 21.9z"/><path fill="#0d0d04" d="M12.7 157.2L43.3 24.1l-47.8 151-.8 49.4z"/><circle r="1" transform="matrix(-2.5471 .76166 -20.09907 -67.21369 167.7 49)"/><path d="M164 169l-2 32-21-1z"/><path fill="#866d56" d="M184 86l-14-42 34 6z"/><path fill="#261c12" d="M121.5 68.9l30 95.4-18.1-111.8L122.6-16z"/><path fill="#fff" d="M184 119l-11-41-1 37z"/><path fill="#ffffe5" d="M201.4 20.7l5 .7-1.8 13.9-5-.7z"/><path fill="#7a7974" d="M83 1h37v76H83z"/><path fill="#7a3403" d="M159.7 146.1l17.2 27.3-21-1.7 27-8.6z"/><ellipse cx="101" cy="145" fill="#a7a7a8" rx="29" ry="41"/><path fill="#93491c" d="M19.1 90.2L8.3 63.1 6.2 10.3 34 41.1z"/><path d="M71 75h54v2H71zM28 21l-11 6-2-26z"/><path fill="#53270f" d="M38.3 174.5l-20.9-31-1.8 16.6 36.3 1.7z"/><circle r="1" fill="#2f2a23" transform="matrix(-4.14864 7.08993 -14.48508 -8.47588 73.4 72.2)"/><path fill="#201d16" d="M177.8 97.7l10.7 31 7.4-12.4-39.8-103.2z"/><path d="M73 59h54v2H73z"/><path fill="#976431" d="M12.4 127.2l10.4-5.3 14.1 12.4-19.6 35.3z"/><ellipse cx="89" cy="96" fill="#8b8281" rx="13" ry="18"/><path fill="#c56411" d="M-16 8.1l61.3 1.3-6.8 2.5L49.2-14z"/><path fill="#7e6248" d="M187.6 29.4h-30.3l38.1-31.7-44-12.4z"/><path fill="#8f8173" d="M145.6 62.3L135.5 48l-4.2-17.7 25.8 176.5z"/><path fill="#c2bbb1" d="M28.2 271L-16 225.9l54.4-21.1 32.9-.2z"/><path fill="#e69a4b" d="M47.9 186.5l-13.6-8.3 28.5-19.4-6.7-20.4z"/><path fill="#a05230" d="M208.2 33.2l3.6 133.8-27.1-75.2 17.3 15z"/><circle r="1" transform="matrix(11.25112 -46.0695 2.18362 .53329 40.2 25.7)"/><path fill="#bbc2c3" d="M124 188l21 5-26-72z"/><path d="M133.5 54.5l-57 2v-1l57-2zm-9.5-8.1l-50-1.8v-1l50 1.8z"/><path fill="#efceac" d="M168.9 151.9l22.9 5.4-28.2 20.3 55.4 19.5z"/><path fill="#ecece8" d="M39 92h13v51H39z"/><path d="M83 49h42v2H83z"/><path fill="#763c12" d="M49.7 146.8l-13.8-2.7 19 11.2-4.8 4.4z"/><path d="M183.1 22.2l-12.5 4.9L208.9-16l-20.2 66.8zM75 64h54v2H75z"/><ellipse cx="100" cy="4" rx="25" ry="1"/><path fill="#f1f6f2" d="M85 36h33v2H85z"/><path fill="#471000" d="M182 151l-6-5-6 24z"/><path fill="#eff2ef" d="M132 203h18v53h-18z"/><ellipse cx="95" cy="19" fill="#010000" rx="29" ry="1"/><path fill="#403e38" d="M131.3 133.6l-18.5-50.3 14.4-27.1 11.8 45z"/><ellipse cx="103" cy="42" fill="#d2d7d0" rx="20" ry="2"/><path fill="#fbb752" d="M-16 64.4L9.6 2 .4-.7l-.9 47.8z"/><path fill="#130200" d="M170.5 34.5l30.8 6L188.7 88 219 75z"/><circle r="1" fill="#f2f3ed" transform="matrix(-17.15716 -63.14306 2.88258 -.78325 166.3 66.8)"/><ellipse cx="105" cy="24" rx="25" ry="1"/><ellipse cx="99" cy="9" rx="24" ry="1"/><path d="M-7.4 54.5L-16 73.6l39.4 22.9L7.8 64.7z"/><path fill="#e4eaeb" d="M214 193l-32-20 23 96z"/><ellipse cx="101" cy="70" rx="24" ry="1"/><path fill="#d65000" d="M171.9 6.9l-11.3 4-6.5-17.8 11.3-4z"/><path fill="#010000" d="M132 40.5v1l-58-2v-1z"/><path fill="#f6f3ea" d="M120 16.5l-38 2v-1l38-2z"/><path fill="#fcfbf3" d="M84 21h35v2H84z"/><path d="M54.9 173.4l-11.3 31.9 28.9-3.8-19.3-7.1z"/><path fill="#c9c7c2" d="M25.4 259.2l-37.3-11.4 20.5-67 37.3 11.4z"/><path fill="#abb2b3" d="M82.7 191.6l2-50.3-13 4.1-5.4 48.5z"/><path fill="#d69c61" d="M8 161.8l41.8-30.7-30.6 27L29 198z"/><ellipse cx="96" cy="29" rx="25" ry="1"/><path fill="#fdf5e9" d="M194.4 168.6l-38.1-30.2 16.3-32.8-8.7 42.5z"/><ellipse cx="102" cy="32" fill="#d5d6cd" rx="20" ry="2"/><path fill="#d6d6ce" d="M86 26h34v3H86z"/><circle r="1" fill="#e7eef6" transform="matrix(4.29652 -1.59786 1.87623 5.04503 28.9 167.6)"/><path fill="#ae7240" d="M73-8l4 30H65z"/><ellipse cx="104" cy="34" fill="#22170c" rx="25" ry="2"/><path fill="#6d6864" d="M68.1 79.8l-2-16.5-12.9 66.3 6.1 26.1z"/><path fill="#020605" d="M172.6-2.2l-1.4 18.6-9.7 17.6-3.9-13.3z"/><path fill="#fcf7ed" d="M82 11h35v2H82z"/><path fill="#c0cccc" d="M89 76h23v10H89z"/></g></g></svg>