<svg xmlns="http://www.w3.org/2000/svg" viewBox="0 0 1400 1120"><defs/><filter id="a"><feGaussianBlur stdDeviation="12"/></filter><rect width="100%" height="100%" fill="#4d3931"/><g filter="url(#a)"><g fill-opacity=".5" transform="translate(2.7 2.7) scale(5.46875)"><circle cx="115" cy="140" r="153" fill="#b69a72"/><circle r="1" fill="#fff" transform="matrix(41.7978 -97.56326 13.78118 5.9041 187.5 158.2)"/><path d="M139 141l47-106L41 186z"/><circle cx="51" cy="14" r="100" fill="#9a4800"/><circle r="1" fill="#fcffff" transform="matrix(46.15902 -90.59218 13.4806 6.8687 181.3 165.9)"/><path fill="#fff" d="M22.5 172L163.6 49.2l6 6.8L28.3 178.7z"/><circle r="1" fill="#fc9b2b" transform="matrix(-17.9742 -25.08782 50.71785 -36.33687 17.2 67.3)"/><circle r="1" fill="#1b0b0c" transform="rotate(-33.2 182.8 -134.6) scale(88.62149 12.96046)"/><ellipse cx="32" cy="201" fill="#afbec1" rx="23" ry="66"/><circle r="1" fill="#390f00" transform="matrix(13.70064 -62.83683 10.6498 2.32203 221.1 147.3)"/><path fill="#000003" d="M158 138l48-47-60 104z"/><circle r="1" fill="#4b2100" transform="rotate(-75.9 130 -116) scale(21.13303 63.22104)"/><ellipse cx="100" cy="43" rx="11" ry="27"/><circle r="1" fill="#afb8b9" transform="matrix(15.39361 14.55701 -24.97164 26.40677 85.5 194.5)"/><circle r="1" fill="#ffb846" transform="rotate(-74.2 70.8 -85.5) scale(40.64224 12.4093)"/><path d="M157.1 156.7L122.4 219l-1-26 20.9 22.7z"/><path fill="#a2abb1" d="M129 146v53l53-86z"/><circle r="1" fill="#f1fcff" transform="matrix(15.59986 7.54127 -31.86165 65.90899 173.6 190.6)"/><path d="M183.1 106.7l79-119.4L204 91.5l-58.6 103.4z"/><path fill="#00000c" d="M70.5 115.9l66.7-45.6-34.1 30-59 47.3z"/><circle r="1" fill="#dfd6c7" transform="rotate(115.2 -39.3 67.8) scale(8.44303 58.82924)"/><circle r="1" fill="#ad7138" transform="matrix(5.7558 -35.5374 32.8333 5.31783 205.2 9.2)"/><ellipse cx="255" cy="110" fill="#b9aa9b" rx="12" ry="57"/><path fill="#ff9939" d="M222 162l-19 57-1-47z"/><path fill="#00070c" d="M65 184l49-67-70 56z"/><ellipse cx="39" cy="98" fill="#92501a" rx="36" ry="37"/><circle r="1" fill="#00081c" transform="rotate(-44.1 202.3 72) scale(15.88874 7.783)"/><path fill="#1e0500" d="M32 27L27 7.8 62-1l4.8 19.4z"/><path fill="#090200" d="M221 17l-1-22-50 50z"/><circle r="1" fill="#0f1211" transform="matrix(6.51835 5.44476 -45.09683 53.98894 123 112.4)"/><path d="M233.3 19.9l-4.2 28.6 18.8 3.4L271-4.5z"/><path fill="#0a0906" d="M195.9 184.3l33.7-29.9 3.1-15.5-18.6-7.7z"/><circle r="1" fill="#9dc7df" transform="matrix(49.18354 -11.66438 .65161 2.74757 38.6 0)"/><path fill="#bfd4e5" d="M204.3 60.4L202 70l-28.3-6.5L176 54z"/><circle r="1" fill="#ffb03e" transform="matrix(2.81519 11.4419 -39.87169 9.8101 26.6 41.8)"/><path fill="#e9feff" d="M180 37.7L59.8 155.6l-12.9-6.8 19.8-18z"/><path fill="#ffffbc" d="M21 15l7-4v21z"/><path fill="#0b0000" d="M239 104l3-49-18 48z"/><path d="M189.8 55.8l-25.6-5 4-20.6 25.6 5z"/><ellipse cx="255" fill="#e4ad72" rx="62" ry="6"/><path fill="#dce7eb" d="M211 136l25-70-20-6z"/><path fill="#fff" d="M95 65l-10 2 1-12z"/><path fill="#4d6676" d="M145 123.9l31.5-64.7 22.5 11-31.5 64.6z"/><path fill="#a09f96" d="M60.6 157.1l-46.8 43.7-20.4-22 46.8-43.6z"/><path fill="#310607" d="M113 17l-33 3 23 71z"/><path d="M171.5-14l4 .6-9 63.4-4-.6z"/><path fill="#ffffe9" d="M108.5 51.5l4-14.1-.1 2.2 3 17z"/><path fill="#ffe181" d="M89.8 7.9l-26.3 6-1.3-5.8 26.3-6z"/><circle r="1" fill="#010706" transform="rotate(11.8 -850.4 1144) scale(3.84787 51.45287)"/><path fill="#ffbf55" d="M46.5 125.7L21.3 114 62 124.1l-23.2 18.4z"/><path fill="#d17130" d="M238.8 123.8l10.5-39.7-24.4 36.8-6.9 13z"/><path fill="#1c0c08" d="M225 52.3l41.7-56.5-61.4 63.1L260 70.1z"/><circle r="1" fill="#000106" transform="matrix(-1.898 -.66268 22.63221 -64.82162 205.8 164.5)"/><path fill="#ffff9c" d="M211.4 34.2l.2-5 17 .6-.2 5z"/><path fill="#e09655" d="M191 32l-20-5 26-30z"/><path fill="#e1eaed" d="M219 64l-8 62-41 30z"/><circle cx="130" cy="117" r="22" fill="#191d1d"/><path fill="#abaca5" d="M93 189l-46 3 69-42z"/><path fill="#fbfbfa" d="M207 148l-26 38 3 29z"/><ellipse cx="119" cy="196" fill="#300600" rx="3" ry="36"/><path fill="#fffff2" d="M253 20l18-15-13-12z"/><path fill="#ffa24f" d="M208 163l-11 39 18-30z"/><path fill="#000308" d="M102.5 82.9l-1.4-41.1 17.3 21.7L121 85z"/><circle r="1" fill="#677377" transform="matrix(17.594 .99 -3.97889 70.71127 245.6 190)"/><path fill="#444c51" d="M53 175.3l-4.3-4.2L137 82.7l4.2 4.2z"/><path fill="#d4a573" d="M129.7 176.2l4.1-24.2 10.6 29.1-45.3 24.7z"/><circle r="1" fill="#010000" transform="rotate(31.1 -251.7 357.8) scale(4.99106 43.39526)"/><circle r="1" fill="#010000" transform="rotate(172.1 35.2 2.4) scale(1.93773 20.47853)"/><path fill="#1c1008" d="M49.7 175.5l10.6 7.6 57.3-32.7-72 22z"/><path fill="#2d1507" d="M18.6 6.6l-5.2 2.9L-16 14l39.7 19.9z"/><path fill="#c18f33" d="M126.9 155.9l-13.6-20.5-2.1 21.2 4.4 7.8z"/><path fill="#fe9242" d="M81 63l-9-33 9-12z"/><ellipse cx="236" cy="53" fill="#ddb88f" rx="9" ry="4"/><path fill="#693707" d="M51 144l-57-31 25-10z"/><path fill="#e08a39" d="M118 0h48v22h-48z"/><path fill="#0e0d10" d="M120.8-18l-10.7 61-5-1L116-19z"/><path fill="#fcd3b7" d="M230-16l-11 5 5 29z"/><path fill="#b3561b" d="M230.4 88.8l15.3 1.9L271 14.1l-26.2 57.3z"/><path fill="#2d1911" d="M153.8 29.9l-30.5 33.7 3 17.4 37.5-33.2z"/><path d="M49 143l35-29-21 7z"/><path fill="#d79256" d="M222.2 37.5l17.9-39.3-12.7 45-5.1-31.4z"/><path d="M216-2l-5 29 11-20z"/><circle r="1" fill="#868d8d" transform="matrix(59.25495 7.50321 -2.12739 16.80056 59.3 197.6)"/><path d="M16.7 149.6l3.2 6.2-36.6 18.6-3.2-6.2z"/><path fill="#aa5b2a" d="M117.7 42.9l-1.4 16.2 27.9-16.7L167.8-16z"/><path fill="#551500" d="M251-13l-30 34 15-32z"/><circle r="1" fill="#aa4a13" transform="matrix(6.91348 -23.62295 9.73784 2.84987 62.6 41)"/><path fill="#acc9df" d="M164.1 161l-20.6 46.1 34.9-43.4-26.8 55.3z"/><path fill="#51362c" d="M84 56l16-21-18-5z"/><path fill="#94a8bd" d="M161 136l-26 10 18-23z"/><path fill="#f6ae5a" d="M128 188l-31-4-1-12z"/><path fill="#330b00" d="M194.2 16.5l9.6-18.4 11.3 19.5-4.6 2.5z"/><circle r="1" fill="#e6edf5" transform="matrix(-35.00928 32.72183 -3.21125 -3.43573 101.9 108.4)"/><path fill="#e3ac5c" d="M95.9 21.4l-1.6-9.5 15.3-4.7-8.2 8.5z"/><path fill="#16130f" d="M175.4 65l-47.6 72.2 45.8-94.9 2.5 9z"/><path fill="#0c0000" d="M251.6 51.4l1.7-47.2-17.7 11.5-4.3 36z"/><path fill="#010000" d="M221.8 37.3l-12.5 43.9-25.6 42.6 35.9-85.2z"/><path fill="#a66f36" d="M200 58l-16-37 23 5z"/><path fill="#3f1b01" d="M94-3l20 7-35 10z"/><path fill="#503d2b" d="M25.8 84.6l-5.6-15 9.3-7.9 8 15.7z"/></g></g></svg>