<svg xmlns="http://www.w3.org/2000/svg" viewBox="0 0 1400 1399"><defs/><filter id="a"><feGaussianBlur stdDeviation="12"/></filter><rect width="100%" height="100%" fill="#352d25"/><g filter="url(#a)"><g fill-opacity=".5" transform="translate(2.7 2.7) scale(5.46875)"><circle r="1" fill="#f8e7da" transform="matrix(53.79789 174.39356 -190.41116 58.73909 124.7 143.5)"/><circle r="1" fill="#760000" transform="matrix(60.54893 -37.62706 3.72899 6.00063 71.8 139.4)"/><circle r="1" fill="#780000" transform="matrix(-3.68536 -5.36223 62.08903 -42.67261 114.1 238.5)"/><circle r="1" fill="maroon" transform="rotate(-123.8 97 66) scale(6.79864 55.69929)"/><circle r="1" fill="#8f0000" transform="matrix(-44.78641 25.73533 -2.70488 -4.70723 36.5 99.2)"/><path fill="#c6d2ca" d="M62 149.5L85.3 182 2.1 242.5-21.4 210z"/><circle r="1" fill="#bac0b5" transform="rotate(28.1 21.6 217.3) scale(50.17281 60.01568)"/><path fill="#3d0803" d="M159 192.7l68.6-24.6-4.7-15.3-32.8 17.1z"/><path fill="#ced9cf" d="M-8.2 131.3L32.5 106l21.7 34.8L13.5 166z"/><circle r="1" fill="#910000" transform="matrix(31.12909 -17.22151 2.90324 5.24782 20.8 47.5)"/><path fill="#b7c3bb" d="M-6.2 241l107.1-39 11.3 31L5.1 272z"/><circle r="1" fill="#451511" transform="rotate(-135.9 116.6 23) scale(9.52229 18.06985)"/><path fill="#7e0600" d="M49.5 222.4L37.1 216l22.8-15.1 84.1-48.4z"/><path fill="#cdd6ce" d="M-1.9 114.2l-18.4-27.4 28.2-19 18.4 27.4z"/><circle r="1" fill="#d1dbcc" transform="rotate(124.8 67 182.3) scale(35.12855 10.25049)"/><circle r="1" fill="#656054" transform="rotate(-110.4 74.1 31.2) scale(14.3895 32.17555)"/><circle r="1" fill="#5e6459" transform="matrix(-5.27 -7.22697 49.817 -36.32718 173.8 238.4)"/><path fill="#656a5d" d="M271 23l-1 48-101 27z"/><circle r="1" fill="#6c6d60" transform="matrix(81.8403 -55.7137 6.159 9.04723 183 159.5)"/><circle r="1" fill="#a7aea1" transform="matrix(9.68683 13.63076 -44.33809 31.50929 172 75)"/><path fill="#830c00" d="M98.2 243.5l72.5-52.3 2.8 12.9L78.9 270z"/><path fill="#851301" d="M14.5 166.1l127.4-71.7-58.2 46.8-75 36.4z"/><path fill="#ced0c5" d="M61 27l-51 6 98-49z"/><path fill="#170000" d="M78 12l3 8-13 1z"/><circle r="1" fill="#bcbdb0" transform="rotate(-30.8 145 -127.3) scale(123.13891 5.93166)"/><circle r="1" fill="#68685b" transform="matrix(-5.1394 -8.08342 39.58659 -25.16899 112.8 141.5)"/><path fill="#7f8078" d="M18.1 86.9L9.9 68.4 183.1-16 80.3 53.1z"/><circle r="1" fill="#acb2a4" transform="matrix(-4.48463 -6.1794 74.02193 -53.72048 226 174.7)"/><path fill="#abad9e" d="M169 193.9l9.5-19.3 12.6-6.8-12.3 42.3z"/><path fill="#8f0f00" d="M78.2 81.2l-5 1.4-89.2 45.7 95.4-61.8z"/><path fill="#280000" d="M247 224l-9-7 12-1z"/><path fill="#290000" d="M209.4 160.9l12-7.4 6.4 1.2-8.1 18.3z"/><path fill="#431e1a" d="M128.8 104.5l-9.2 16.9-33.3-12.5-5.6 10.7z"/><circle cx="113" cy="50" r="4" fill="#180000"/><circle r="1" fill="#6d7367" transform="rotate(50.1 73.8 226) scale(9.13239 51.69736)"/><path fill="#680000" d="M206 248.8L136.8 270l24.9-8.6 54.2 8.6z"/><circle r="1" fill="#471510" transform="matrix(1.33442 2.41023 -4.84218 2.68087 53.8 12.5)"/><path fill="#a9b1a5" d="M253.3 207.9l17.7-25.2-95.8 64.3 27 1.2z"/><path fill="#adb0a1" d="M180.2 134.8l-18.7 27.8 47.6-35.2-24.9-5.3z"/><path fill="#350000" d="M190 170l3-10 17 16z"/><path fill="#c2cac1" d="M16 151l-27 76-5-87z"/><path fill="#b2b3a9" d="M36.8 229.1l39.2-25 14.9-12.3 16.9 27.6z"/><path fill="#a9b2a6" d="M211.3.6L175.5-16l-26.8 28 17.9 26z"/><path fill="#1d0000" d="M154 27h5v12h-5z"/><path fill="#340000" d="M177.1 139.8l-5.8-1.6 7.6-28 5.8 1.6z"/><path fill="#0d0000" d="M129 149h9l-10-8z"/><path fill="#7e0500" d="M47 43l8-9-30-3z"/><path fill="#d2d4ca" d="M82 15L58-9h97z"/><path fill="#bdbfb4" d="M-16 75.6l58.6-34.8 12.3 8.9-31.3 7.6z"/><path fill="#2c0000" d="M129 34h-7l1 6z"/><path fill="#7d0500" d="M12 44l24-5-43 29z"/><path fill="#bac0b2" d="M32 39.2l-4.2-9.4L3.3 42l21.1-.4z"/><path fill="#b7bdb5" d="M126.5 240.5l10.5 13.4-12.9 16.1-24.3-16.8z"/><path fill="#c5cdc3" d="M20 9l16-25-52 39z"/><path fill="#b4b8ad" d="M-16 145.6l47.7-39 31.6-19.5-45.9 41.1z"/><circle cx="106" cy="13" r="3" fill="#2f0000"/><path fill="#430906" d="M192.8 115.4l.7 9.8 6.7-5.1-11.2-19.7z"/><path fill="#646155" d="M101 193l10 24 33-22z"/><path fill="#acab9c" d="M185.4 118.9l-7.2-26.8 10.3 22.4 42.8-6.9z"/><path fill="#abaea0" d="M254.1 131.5l-22.1 4.8-10.3 51.9 30.3-14z"/><path fill="#9e9f93" d="M-16 231.2l119.3-72.4 7.8 7.3-42.2 30.5z"/><path fill="#a2a496" d="M102.7 139.7l48.2-35.7-53.2 24.1-15.3 6.9z"/><path fill="#9ea697" d="M226.7 56.9l-19.3-25.6 72-54.2 19.2 25.6z"/><path fill="#a2a89b" d="M127 168l-42 56-4-24z"/><path fill="#881000" d="M111.5 167.7l-36.2 28.4 58.5-31 12-10.8z"/><path fill="#d8331f" d="M-9.5-16L-16 5.5l45.2-15.6-39.1 25.3z"/><path fill="#7a766c" d="M181 109l-62 19 106-72z"/><path fill="#190000" d="M168.9 190.2l-2.6-4.3 6.8-4.1 2.6 4.3z"/><circle r="1" fill="#75776c" transform="rotate(149.9 82.8 130.3) scale(47.55555 8.87823)"/><path d="M60 38l2-4 3 2z"/><path fill="#aeb2a4" d="M115.8 55.3l5.4 8.4-57 37-5.4-8.4z"/><path fill="#832215" d="M159.6 215.6l28.2-19.6-55.3 19.2L70 270z"/><path fill="#c0c1b7" d="M69 172L8 204l57-58z"/><path fill="#7f190d" d="M-2.7 112.8l-13.3 8.9 22.1-1.3 53.4-30.7z"/><path fill="#bcc3b6" d="M144 74l-42 27 22-2z"/><path fill="#c3c4ba" d="M26 11l31 24 32-10z"/><path fill="#2f0100" d="M163 130h5v8h-5z"/><path fill="#240000" d="M86.4 19h5l.2 4h-5z"/><path fill="#c0c2b5" d="M156.7 42.4L139.1 54l-15.8-24.3L140.9 18z"/><path fill="#2b0000" d="M40-16h14L21 8z"/><path fill="#aba89c" d="M240 176l-22 11-11-21z"/><path fill="#1d0000" d="M70 118l-4 9 8-5z"/><path fill="#612014" d="M25.2 44.8l-12.9 9-4.9-17.3-13.8-.7z"/><path fill="#372421" d="M86 141l-23 8 24-18z"/><path fill="#828377" d="M168.7 37.2l-79.1 85.4-.6 2.5 6.7-44.4z"/><path fill="#98998b" d="M130 139l19 25 67-30z"/><circle r="1" fill="#4d0200" transform="matrix(-1.52986 5.72332 -1.94924 -.52104 46 219.2)"/><path fill="#a6a69c" d="M54.6 244l50.5-34.2 12.3 18.3L67 262z"/><ellipse cx="216" cy="104" fill="#9b9d90" rx="17" ry="24"/><path fill="#56554b" d="M5.7 260.2l-.5-.8 67-43.6.6.8z"/><path fill="#92200f" d="M86.9 135.1l-74.8 45.6L56.8 141l67-37.9z"/><path fill="#a5a497" d="M149.7 131.5l50.1 2-27.1-5.3-10.4-10.8z"/><path fill="#300" d="M190 160l20 14-8 3z"/><path fill="#9b9a8d" d="M159.9 192.7l28.5 16.6 6.8-38.6 12.1 17.2z"/><path fill="#310000" d="M196 178l-13-3 9 7z"/><path fill="#5c574e" d="M43.7 259.2l-.6-.9 91.2-61.5.6.9z"/><path fill="#6e6b5f" d="M271 113l-14-19-30 43z"/><circle r="1" fill="#7e7c74" transform="matrix(-64.08002 42.32024 -.5511 -.83445 52.7 246)"/><path fill="#380000" d="M208 163l18-12-4 17z"/><circle r="1" fill="#868277" transform="rotate(147.2 -12.6 111.3) scale(94.11198 1)"/></g></g></svg>