<svg xmlns="http://www.w3.org/2000/svg" viewBox="0 0 863 444"><defs/><filter id="a"><feGaussianBlur stdDeviation="12"/></filter><rect width="100%" height="100%" fill="#4d3c2b"/><g filter="url(#a)"><g fill-opacity=".5" transform="translate(1.7 1.7) scale(3.3711)"><circle cx="122" cy="61" r="158"/><circle r="1" fill="#f4c481" transform="matrix(6.3999 -33.87047 14.26572 2.69554 136.3 57)"/><circle r="1" transform="matrix(64.9762 11.19035 -31.11824 180.68646 36.8 52.4)"/><circle r="1" transform="rotate(70.5 72.3 177.3) scale(198.81809 58.27081)"/><circle r="1" fill="#986f4d" transform="rotate(-158.6 56.5 27.1) scale(47.24044 8.11792)"/><circle cx="138" cy="49" r="12" fill="#fffab0"/><circle r="1" transform="rotate(-158.7 45.7 47) scale(187.2991 33.48622)"/><ellipse cx="224" cy="21" rx="74" ry="66"/><path fill="#60573c" d="M95 66l33-82 3 113z"/><circle r="1" transform="rotate(86.5 17 36.6) scale(34.52681 65.75782)"/><path fill="#291d14" d="M144.3 62.3l-4 13.4-32.6-10 4-13.4z"/><path fill="#8e6244" d="M44.2 51.1L-16 47l32.3 3.3L100 74.6z"/><path fill="#7c654b" d="M192 116l43-23-16-4z"/><ellipse cx="128" cy="22" fill="#574a2f" rx="18" ry="13"/><circle r="1" transform="matrix(-71.42978 -68.97894 15.60217 -16.15652 91.3 122)"/><path fill="#926d4a" d="M166.5 64.2l-2.1 3.5-59.3 11.9 51.5-15.9z"/><path fill="#f9c887" d="M128 62l25-27-22 1z"/><circle cx="229" cy="128" r="29"/><path fill="#a87050" d="M168.5 76l49.3 13-.3 1-49.3-13.2z"/><ellipse cx="154" cy="102" fill="#130a0e" rx="20" ry="29"/><circle r="1" transform="matrix(27.16407 -20.4696 21.71178 28.8125 74 22.5)"/><path d="M267 116L123-4l148 3z"/><circle r="1" transform="matrix(67.17916 20.42565 -15.15203 49.83441 35.4 110.3)"/><path d="M244 100L135 21l123-37z"/><path fill="#785840" d="M229.8 98.7l41.2 12.7-27.1-12.2-7.9-3.4z"/><path fill="#54523d" d="M190.4 120.3l-45.4 5.2-16.7-5.8 26.3 11.4z"/><path fill="#7e7047" d="M157.5 56.1l-12-16.1-4.5-13.5 21 27z"/><path fill="#745038" d="M50 58l100 12-20 24z"/><path fill="#8d6748" d="M133 10h7v19h-7z"/><path fill="#bb804a" d="M119.8 14.9l.4-14 6 .2-.4 14z"/><path fill="#7a5b37" d="M132.4 28.5l-27 11 51.5-5.4 3.4 6.8z"/><ellipse cx="23" rx="96" ry="48"/><path fill="#d5cc94" d="M130 78l-1-6-11 3z"/><path fill="#566954" d="M91 56l22-5 7-16z"/><path fill="#2d2420" d="M109.2 105.3l36 27.3-52.4-55-25.2-11.5z"/><path fill="#7e5031" d="M133.8 54.8l49.1 24-27.6-10.3L135 84.9z"/><path fill="#131512" d="M112.3 52.3l13-15-1.4 25.5-15.8 2.3z"/><path fill="#f7c390" d="M149.6 46l-14.1-3.2-8.5.1L148.6 65z"/><circle r="1" transform="matrix(3.2087 12.45657 -82.1232 21.15424 215.6 127.7)"/><path d="M151 54h105v11H151z"/><circle r="1" fill="#6e5136" transform="matrix(1.17884 -3.67165 22.52396 7.23165 58.7 59.1)"/><circle r="1" fill="#5b5743" transform="matrix(-10.06145 4.43763 -.50666 -1.14876 186 120.4)"/><ellipse cx="162" cy="96" fill="#140c0e" rx="15" ry="30"/><path fill="#98875f" d="M216 97h16v3h-16z"/><path d="M93 62l29-76-83 58zm28-57l15-2-3 8z"/><path fill="#36211e" d="M148.2 90.1l-32.8 5.2 39 6.9 4.4-15.3z"/><path fill="#724e39" d="M177.5 76.7l24.4 9-15.2.1-21.6-20.3z"/><path fill="#805c48" d="M-2.8 48l.2-1 63.4 9-.2 1z"/><path fill="#434235" d="M113.3 70.2L51.4 56.1l75 19.8 4.5-18z"/><path d="M-16 133.9l168.2-2.8L32.9 74.7l-48.7-40.4z"/><path fill="#9a6c50" d="M71.3 58.8L135 72.3l-.2 1L71 59.6z"/><ellipse cx="118" cy="29" fill="#4a472c" rx="12" ry="13"/><path fill="#dec186" d="M138 9.5l.8.6-4.7 6.4-.9-.6z"/><path fill="#4f4d35" d="M141.6 73.8L120 88l.3-3.9L152.8 57z"/><path d="M135.9 10.2L271 20 144.2-16l-19.6 33.4z"/><circle cx="156" cy="34" r="2" fill="#bea26e"/><path fill="#090508" d="M181.4 83.8l-38.2 22.4-.1 14.3 79.2-28.3z"/><path fill="#3d342b" d="M105.5 100l45.7 31.8-41.7-24-28.8-34z"/><circle cx="153" cy="55" r="4"/><path fill="#77492c" d="M84.8 73.1L138.6 88l-18.3 2.2-16.7-4.1z"/><path fill="#ba723c" d="M148 69l11-3-23-1z"/><circle r="1" fill="#32231e" transform="matrix(-4.3551 2.87995 -8.02053 -12.12877 172.3 78.1)"/><circle r="1" fill="#0a0407" transform="matrix(17.05134 13.77162 -4.07156 5.0412 134.8 105)"/><path fill="#301c1d" d="M161 109h26v12h-26z"/><path fill="#4d3725" d="M138 18l-12 8 16 8z"/><path d="M123.4-14.8l24.8 39.5 54.9 59.2 67.9 22.2zM106 18.3l-3.3-10.5 13.4-4.1 3.2 10.5z"/><path fill="#d8c8a1" d="M145 28h3v3h-3z"/><path fill="#413f32" d="M108.7 80.6L52.1 51.4l67.6 27.3 25.4-.3z"/><path fill="#faedbf" d="M130 43h9v9h-9z"/><path fill="#c0984c" d="M129.7 44.8l-2.7-1.4 7.3-14.2 2.7 1.4z"/><path fill="#785631" d="M141 37h1v14h-1z"/><path d="M158.9 6l4 25.6-15.8 2.5-4-25.7z"/><path fill="#ca784f" d="M236.8 97l.6-.9 9.8 7-.6.8z"/><path fill="#c17f51" d="M121 9h4v9h-4z"/><circle r="1" fill="#4f4d38" transform="matrix(-1.17289 -1.9065 13.33993 -8.20678 200.4 111.4)"/><circle r="1" fill="#7a6a40" transform="matrix(-3.60102 -4.47877 2.60095 -2.09122 116.9 37.4)"/><ellipse cx="228" cy="122" rx="24" ry="22"/><path fill="#7d6c4b" d="M206.6 110.8l13.8-13.1-7.4 4.5.5-3.7z"/><circle r="1" transform="rotate(124.9 85.2 77) scale(31.4418 28.9452)"/><circle r="1" fill="#eaab73" transform="matrix(-.29376 4.30898 -10.96413 -.74746 139 54.9)"/><path fill="#8a825a" d="M97 54h2v9h-2z"/><path fill="#8a5332" d="M28.5 51.1l52 15.7 51.3 25.7L81 70.9z"/><path fill="#131011" d="M108.6 65.9l-14-3.2 18.6-5.1-1 10z"/><path fill="#d6bb88" d="M111.5 75v-1l17 1v1z"/><path d="M88.6 61.3l36-70L-16 1.7l46.7 45.8z"/><ellipse cx="127" cy="44" fill="#a76631" rx="2" ry="17"/><path fill="#383a24" d="M123.7 67.1L119 16.7 107.3 27l20.3 11.1z"/><path fill="#050204" d="M181.2 104.9L149 73.2l-6.1 5.9 42.5 27.7z"/><path fill="#635d43" d="M153 131l-.3-1 36.3-11 .3 1z"/><path fill="#222d2d" d="M138.3 62.4l-16 12-.6-.8 16-12z"/><path d="M129 0h5v15h-5z"/><path fill="#080708" d="M207.4 92l-4.4.5-15.4 13.9L225.3 95z"/><path fill="#5b7165" d="M122.9 38.8l.6.7-20.4 17.7-.6-.7z"/><path fill="#a58445" d="M113.5-16l14.3 19.4.6 4.1-16.3-18.2z"/><path fill="#b26c48" d="M154 65l.3-1 13.7 3-.3 1z"/><path fill="#916748" d="M172.4 75.2l.5-.9 14.7 8.5-.5.9z"/><path fill="#464239" d="M125.6 75.2l-22.3-3.9 20.7 2 14.6-8.9z"/><path d="M163 146L49 61l-65 70z"/></g></g></svg>