<svg xmlns="http://www.w3.org/2000/svg" viewBox="0 0 847 1124"><defs/><filter id="prefix__a"><feGaussianBlur stdDeviation="12"/></filter><rect width="100%" height="100%" fill="#7e703c"/><g filter="url(#prefix__a)"><g transform="translate(2.2 2.2) scale(4.39063)"><circle cx="120" cy="166" r="213" fill="#fff" fill-opacity=".5"/><circle r="1" fill="#fdffff" fill-opacity=".5" transform="matrix(-130.20666 -141.1036 122.6492 -113.17742 95.7 116.7)"/><circle r="1" fill="#005100" fill-opacity=".5" transform="matrix(-1.0179 25.34335 -18.10648 -.72723 101.6 72.4)"/><circle r="1" fill="#ffce00" fill-opacity=".5" transform="matrix(12.55087 -15.9756 20.81453 16.35245 80 130)"/><ellipse cx="144" cy="200" fill="#fff" fill-opacity=".5" rx="140" ry="42"/><ellipse cx="153" cy="134" fill="#446fb8" fill-opacity=".5" rx="17" ry="31"/><path fill="#00851c" fill-opacity=".5" d="M86 50h31v46H86z"/><circle r="1" fill="#fff" fill-opacity=".5" transform="matrix(-22.4875 57.08786 -33.2472 -13.09642 48.8 69.4)"/><circle r="1" fill="#fff" fill-opacity=".5" transform="matrix(-8.63099 41.3142 -33.98435 -7.0997 152.2 60)"/><ellipse cx="80" cy="128" fill="#f5d400" fill-opacity=".5" rx="21" ry="22"/><path fill="#fbfaff" fill-opacity=".5" d="M196 237l-180 8 1-137z"/><path fill="#feffff" fill-opacity=".5" d="M102.8 149.2l31.6 37.6 5.8-100.7-39.9 10.6z"/><ellipse cx="192" cy="125" fill="#9babbd" fill-opacity=".5" rx="8" ry="253"/><ellipse cx="95" cy="30" fill="#fbfdff" fill-opacity=".5" rx="90" ry="18"/><path fill="#008735" fill-opacity=".5" d="M120.2 90.3l-23.6 4.6-8.8-45.2 23.6-4.6z"/><ellipse cx="177" cy="127" fill="#fff" fill-opacity=".5" rx="8" ry="113"/><path fill="#a3b3c6" fill-opacity=".5" d="M185.3 261.7l-187.9 6.6-.7-22 187.9-6.6z"/><ellipse cx="136" fill="#a2b2c6" fill-opacity=".5" rx="148" ry="13"/><circle r="1" fill="#d7a89a" fill-opacity=".5" transform="matrix(-28.7229 -6.6284 2.8826 -12.49115 10.5 168.7)"/><ellipse cx="47" cy="68" fill="#f7f8fe" fill-opacity=".5" rx="40" ry="45"/><path fill="#efd100" fill-opacity=".5" d="M72.3 152.6L68 121.9l31.7-4.5 4.3 30.7z"/><ellipse cy="121" fill="#a2b4c7" fill-opacity=".5" rx="7" ry="242"/><path fill="#008637" fill-opacity=".5" d="M117 87L90 48l-3 50z"/><path fill="#7a797c" fill-opacity=".5" d="M82.5 20.5v3h-45v-3z"/><path fill="#88a1c8" fill-opacity=".5" d="M151.3 103.4l12.2 75.4 5.5-61.1-5.4-25.8z"/><circle r="1" fill="#f4d708" fill-opacity=".5" transform="matrix(18.46371 -7.91356 6.272 14.6337 74 123.7)"/><ellipse cx="147" cy="54" fill="#f9faff" fill-opacity=".5" rx="32" ry="40"/><path fill="#f3f6fb" fill-opacity=".5" d="M142.8 114.5l21.9-25.7-86 9.5 37.5 38.4z"/><path fill="#f5f5f8" fill-opacity=".5" d="M78 16h108v32H78z"/><path fill="#f1f5fb" fill-opacity=".5" d="M64 169.7l-35.8-49.4 13.7-10 35.9 49.4z"/><ellipse cx="103" cy="169" fill="#eef0f5" fill-opacity=".5" rx="42" ry="21"/><path fill="#fff" fill-opacity=".5" d="M18 11h47v8H18z"/><path fill="#008e40" fill-opacity=".5" d="M118.1 92.1L93.3 53.7l21.3-7.9 5.4 41.9z"/><path fill="#008b3d" fill-opacity=".5" d="M86 63h8v36h-8z"/><path fill="#f8f9fe" fill-opacity=".5" d="M146 230l38-26-3-109z"/><path fill="#879ebe" fill-opacity=".5" d="M136.5 133.1l-.3 28.4 27.8 4.4-2.4-72.7z"/><ellipse cx="12" cy="111" fill="#9899a2" fill-opacity=".5" rx="2" ry="29"/><ellipse cx="108" cy="106" fill="#b2b8b6" fill-opacity=".5" rx="11" ry="5"/><path fill="#f5f6f6" fill-opacity=".5" d="M83 104l-67 17L91 16z"/><circle r="1" fill="#fbfcfe" fill-opacity=".5" transform="matrix(11.0841 28.62638 -15.41697 5.96943 37.6 143.2)"/><ellipse cx="50" cy="233" fill="#f8fafd" fill-opacity=".5" rx="43" ry="12"/><circle r="1" fill="#737374" fill-opacity=".5" transform="rotate(-176.6 52.7 10.7) scale(7.1361 1)"/><path fill="#008a3c" fill-opacity=".5" d="M90 49h25v44H90z"/><path fill="#e3e5ea" fill-opacity=".5" d="M7 16h13v81H7z"/><path fill="#fafbff" fill-opacity=".5" d="M183 154V80l-24 1z"/><path fill="#f3d40c" fill-opacity=".5" d="M60 109h31v27H60z"/><path fill="#889088" fill-opacity=".5" d="M60 146h10v4H60z"/><circle r="1" fill="#f3f6f3" fill-opacity=".5" transform="matrix(23.70185 -5.60288 1.01784 4.30576 103.3 99.7)"/><circle r="1" fill="#f5f6f8" fill-opacity=".5" transform="rotate(-40.3 328.2 -105) scale(24.18343 27.45774)"/><ellipse cx="174" cy="9" fill="#bbc4c9" fill-opacity=".5" rx="71" ry="7"/><path fill="#626f6a" fill-opacity=".5" d="M105 165h1v17h-1z"/><path fill="#8aa0c1" fill-opacity=".5" d="M133.3 160.3l36.5-27.2.8-14.4-11.5-24.4z"/><path fill="#96a5b1" fill-opacity=".5" d="M103.5 159.3l-1.9-1.3 67.2-16.4-2.1 2.6z"/><path fill="#f7f7f8" fill-opacity=".5" d="M114.8 104.7l-6.8-8 75.4-34.9-51.6 65.7z"/><path fill="#f8d80f" fill-opacity=".5" d="M86.2 105l12 13.3L81.8 133l-12-13.3z"/><path fill="#d5a791" fill-opacity=".5" d="M19 152l-1 27-11-9z"/><path fill="#aeb39e" fill-opacity=".5" d="M62 83.4l-2.7 45.2 4.7 42.8-5.3-22z"/><path fill="#f4f4f5" fill-opacity=".5" d="M7.3 162.8l-1.9-.9L51.5 8.4l6.1 111.2z"/><path fill="#8aa0c0" fill-opacity=".5" d="M166 166l-1-26-23 19z"/><path fill="#f6f5f5" fill-opacity=".5" d="M21 26h156v22H21z"/><path fill="#008a3c" fill-opacity=".5" d="M87 57h29v35H87z"/><path fill="#bac2c9" fill-opacity=".5" d="M44.5-15.4L-16-4.3l11.3 60.2 7-31.2z"/><path fill="#979fa3" fill-opacity=".5" d="M104 135h19v2h-19z"/><path fill="#8f8f92" fill-opacity=".5" d="M33 19h13v4H33z"/><path fill="#807064" fill-opacity=".5" d="M13.4 162l.2 12h-3l-.2-12z"/><path fill="#becfc6" fill-opacity=".5" d="M82.1 70.8l11.8-13.9L65 92.2l-5.2 19.4z"/><path fill="#969141" fill-opacity=".5" d="M71.4 144.2l41-9.4.2 1-41 9.4z"/><path fill="#f6f6fb" fill-opacity=".5" d="M103 114h29v38h-29z"/><path fill="#adb6b2" fill-opacity=".5" d="M63.7 183.3l3.4 2.6-6.9-31.5 3.8 26z"/><path fill="#f3f4f5" fill-opacity=".5" d="M168 132h17v107h-17z"/><path fill="#899491" fill-opacity=".5" d="M95 108h25v2H95z"/><path fill="#f9fafe" fill-opacity=".5" d="M28 48L18 10l15-1z"/><ellipse cx="12" cy="209" fill="#dfe4eb" fill-opacity=".5" rx="6" ry="29"/><path fill="#c0c1bd" fill-opacity=".5" d="M95 181h32v2H95z"/><path fill="#f4f4f4" fill-opacity=".5" d="M19 24h82v25H19z"/><path fill="#f6f7fa" fill-opacity=".5" d="M24 12h71v8H24z"/><path fill="#008c3d" fill-opacity=".5" d="M94.7 49.6l20.3-1.7 4.4 45.2-32.3-38.4z"/><path fill="#f7d800" fill-opacity=".5" d="M102 137l-1 10-16 2z"/><path fill="#f7f6f7" fill-opacity=".5" d="M120 76h18v55h-18z"/><path fill="#f7c5af" fill-opacity=".5" d="M40 179l-20-27-8 30z"/><path fill="#7d94b3" fill-opacity=".5" d="M137 140h18v19h-18z"/><path fill="#d2be00" fill-opacity=".5" d="M61 133l-8-8 7-6z"/><path fill="#d6c017" fill-opacity=".5" d="M73.1 150.8l9.3.7-16-14.6 3.7 12.2z"/><path fill="#00893a" fill-opacity=".5" d="M88 50h7v48h-7z"/><path fill="#f3f4f4" fill-opacity=".5" d="M158.5 178.7l-4.4 62.4-128.8 5.4-8.8-55.7z"/><path fill="#bec6ca" fill-opacity=".5" d="M185 0h8v256h-8z"/><path fill="#a5adac" fill-opacity=".5" d="M105 160.4l-28.3-9.8.3-1 28.3 9.8z"/><ellipse cx="9" cy="99" fill="#ecedf3" fill-opacity=".5" rx="2" ry="62"/><path fill="#bfc8cc" fill-opacity=".5" d="M8.8 237.8L5.6 105.7-13.2 271l37.6-19.5z"/><path fill="#a4a4a4" fill-opacity=".5" d="M62 21h18v4H62z"/><ellipse cx="42" cy="112" fill="#f6f6f6" fill-opacity=".5" rx="15" ry="23"/><path fill="#fafbfe" fill-opacity=".5" d="M87 104l-24 3 19-25z"/><path fill="none" stroke="#81919e" stroke-opacity=".5" stroke-width=".5" d="M166.8 150.5q-18.3-11.8-54.4-14.9"/><path fill="#dce4ee" fill-opacity=".5" d="M54.1 130.4l.8-.7 19 22-.8.6z"/><path fill="#c8c8c8" fill-opacity=".5" d="M135.4 205l-28.6 5-.2-1 28.6-5z"/><path fill="#fff" fill-opacity=".5" d="M100.8 97l3.7 3.4L93.2 113l-3.7-3.4z"/><path fill="none" stroke="#859194" stroke-opacity=".5" stroke-width=".5" d="M112.8 135.4q28.6 4.5 35.4 6.3"/><path fill="#7c7c7c" fill-opacity=".5" d="M102 23h10v2h-10z"/><path fill="#fafaf9" fill-opacity=".5" d="M103.1 158.6l-3 14.7-37.2-8 3-14.6z"/><path fill="#fdfeff" fill-opacity=".5" d="M117 146l-31 5 20 5z"/></g></g></svg>