<svg xmlns="http://www.w3.org/2000/svg" viewBox="0 0 1400 933"><defs/><filter id="a"><feGaussianBlur stdDeviation="12"/></filter><rect width="100%" height="100%" fill="#685349"/><g filter="url(#a)"><g fill-opacity=".5" transform="translate(2.7 2.7) scale(5.46875)"><ellipse cx="93" cy="46" fill="#ffe5cf" rx="189" ry="88"/><circle r="1" fill="#fffef5" transform="matrix(-2.09467 -19.28438 135.95329 -14.76724 106.1 80.9)"/><ellipse cx="148" cy="142" fill="#a87367" rx="213" ry="41"/><circle r="1" fill="#272622" transform="matrix(39.9433 -11.50315 4.05062 14.06528 66.6 7)"/><circle r="1" fill="#fdc3a0" transform="matrix(25.36309 53.41454 -33.64762 15.97707 200.8 27.8)"/><circle r="1" fill="#8c6d64" transform="matrix(178.1383 -38.51486 3.86048 17.85543 150.1 117.6)"/><ellipse cx="91" cy="46" fill="#a87055" rx="77" ry="16"/><ellipse cx="255" cy="31" fill="#bf5632" rx="13" ry="86"/><circle r="1" fill="#feede3" transform="matrix(14.12842 -13.20728 18.76919 20.07825 188.5 65.8)"/><path fill="#3e3529" d="M129 8l6-24-35 30z"/><circle r="1" fill="#a17766" transform="rotate(67.8 -39 173.8) scale(23.41825 102.44724)"/><path fill="#ecad90" d="M93 13h65v26H93z"/><path fill="#350e06" d="M249 147.7l18.1-15.3 3.9 1.7-42.6-6z"/><path fill="#6f5a46" d="M160 50l-40-6 69-16z"/><path fill="#ffeadd" d="M35.3-6L12 30l-9.2-6L26-12z"/><circle r="1" fill="#e19667" transform="matrix(-20.3987 -23.3147 9.27182 -8.11218 222.2 49)"/><path fill="#bb765c" d="M208.3-6.4l42.4-6.8 5 31.6-42.4 6.8z"/><circle r="1" fill="#cf8e73" transform="matrix(-3.24691 -15.81771 93.14158 -19.11922 41.7 42)"/><path d="M-1 33.5l-4.8-19.4L1 12.5l4.8 19.4z"/><path fill="#d68568" d="M265 145l-63 2 69 23z"/><path fill="#fffddb" d="M219 25.2l18-2.2 2 15.8-18 2.2z"/><ellipse cx="17" cy="146" fill="#977f75" rx="28" ry="38"/><path fill="#5b564e" d="M8.5 32.5l86.6-16.2 6.1-.6L70.3-16z"/><path fill="#7e6956" d="M102 64l-4-21h69z"/><ellipse cx="12" cy="102" fill="#dbded9" rx="38" ry="8"/><path fill="#f2d9ca" d="M7.7-16l3.9 64L.8 8.8-16 20.7z"/><path fill="#323124" d="M50 53l8 1 5 16z"/><path fill="#252e30" d="M197.9 150.7l2.2 3.5 17-23.7-18 5.8z"/><path fill="#753a26" d="M179 159h60v11h-60z"/><path fill="#f3e3da" d="M108.8 61l.9-17.8 12 65.5-11.9-37.9z"/><path fill="#14251f" d="M228 81l13 2 4 10z"/><path fill="#e9dccd" d="M193.3 66.5l-18.4-32.2 58.9 59.2L213.1 44z"/><path fill="#dac6bc" d="M205.6 82.6l-50.5 19.7.2-97 6.9 67.1z"/><ellipse cx="255" cy="59" fill="#f1e9e2" rx="15" ry="3"/><path fill="#f8dcce" d="M72 60h30v34H72z"/><circle r="1" fill="#7d5042" transform="matrix(44.76175 -6.45445 .6085 4.21991 148 118.1)"/><path fill="#adafa7" d="M231 108l-28 5 24 11z"/><path fill="#170c00" d="M160 36h4v21h-4z"/><path fill="#dabaa8" d="M103 27l14-2 7 35z"/><ellipse cx="141" cy="103" fill="#99898d" rx="50" ry="9"/><path fill="#a67c68" d="M64.1 55.3L9.4 73.7-16 74.8l30.2-41.5z"/><path fill="#a6958b" d="M41.4 95.3l-4-13.4 17.2-5.2 4 13.4z"/><path fill="#4b321d" d="M149 37h5v25h-5z"/><path fill="#d6897a" d="M123-16l-23 31-24-31z"/><path fill="#c47955" d="M203.7 47.7l56 6.2-47.4-12.3-12.5-29.5z"/><path fill="#935450" d="M195 89h28v21h-28z"/><path fill="#b67d65" d="M159 132h38v26h-38z"/><circle r="1" fill="#e6d7c9" transform="matrix(.95963 -.28126 17.55138 59.88319 134.1 16.7)"/><path fill="#7b372d" d="M167 154l-22-11 7 32z"/><path fill="#feefe4" d="M146 30h2v36h-2z"/><path fill="#fbdbc6" d="M60.1-4.7l-38.5 14-1.7-4.6 38.5-14z"/><path fill="#e4b18e" d="M232.1 41l-14.5 37.8 20.8 6.4 11.5.9z"/><path fill="#fff" d="M132 48h2v22h-2z"/><ellipse cx="141" cy="2" fill="#967860" rx="28" ry="5"/><ellipse cx="90" cy="54" fill="#3c2005" rx="3" ry="6"/><path fill="#b0928e" d="M206.9 150.8l26.4-12.6-6.3-8.9-19.2 17.1z"/><path fill="#fff" d="M-7.1 64.2l2.6-1.4L7 83.8l-2.6 1.4z"/><path fill="#f2ffff" d="M210 25h2v28h-2z"/><path fill="#b49179" d="M110.1 179.8l15.7-32.9 28.4-9.5-21.6 25.6z"/><path fill="#f4f6f0" d="M45.3 58.4l-.8.4-11.8-23.2.8-.4z"/><circle r="1" fill="#747166" transform="matrix(-5.42116 15.74419 -2.92489 -1.00712 16 0)"/><path fill="#763127" d="M20 149.5l-31 7.3 25.4 3 .5-23.3z"/><path fill="#f4ede5" d="M117.7 75l-.9.5-24.5-52.6.9-.4z"/><path fill="#c8beb3" d="M54 148l8-8 2 15z"/><path fill="#f1ded1" d="M85.3 34l.9-.4L110.7 84l-.9.5z"/><path fill="#8a6952" d="M39.7 57.9L50.1 53l114.7-18-95.3 23.4z"/><circle r="1" fill="#f6c7a5" transform="matrix(-84.29354 13.04933 -.46841 -3.02577 193.3 3.5)"/><circle r="1" fill="#e7b594" transform="matrix(-.37768 -2.41885 251.94722 -39.3395 77 22.7)"/><path fill="#ebd6c8" d="M193.3 40.7L147.5 77l-25.9-40.6 13.1 31.4z"/><path fill="#f1e6dd" d="M56.9 54.3l24.6 26.8-7.1-28 .5 30.9z"/><path fill="#fffffd" d="M120 63l8 8-8-23z"/><circle r="1" fill="#463e33" transform="rotate(-10.5 408.5 -1) scale(1.85664 5.3635)"/><path fill="#ac4a2b" d="M251 75h5v95h-5z"/><path fill="#fbf7f1" d="M10 82L9 63l9 24z"/><path fill="#513c29" d="M95 48l12 8 1 11z"/><circle r="1" fill="#f8f2ea" transform="matrix(-1.14974 .3419 -7.1769 -24.13415 25.4 84.4)"/><path fill="#161512" d="M197 148l10 9 11 1z"/><path fill="#bf6553" d="M154.5 95.4l2.7 13.8-17.7 3.4-2.7-13.8z"/><ellipse cx="223" cy="58" fill="#c4693f" rx="3" ry="16"/><path fill="#666b6a" d="M216 83l14 6-8 31z"/><path fill="#ecd8cc" d="M158 92.7l20 .2 46.3-8.4-56-43.8z"/><path fill="#8f271e" d="M49 133l6 23-11-4z"/><path fill="#815428" d="M182.9 32.1l6-.2.2 8-6 .2z"/><path fill="#c6c8c0" d="M229.4 86.1l16.2 11.8-3 4-16.2-11.8z"/><path fill="#553a2e" d="M230 131l41 21-26-38z"/><path fill="#4b4c49" d="M235.4 86.7l-6.8-1.7 2-7.7 6.8 1.7z"/><path fill="#99706b" d="M41.7 108.5l63-8.6-21.9 31.8-98.8 8.9z"/><path fill="#b7a497" d="M158.5 84.2l-4.8-30.9-7.5 40.9-4.6-30.7z"/><path fill="#6d4d35" d="M140.5 54.7l-.8-9.8L126 61.8l-4.7-13z"/><path fill="#92959a" d="M55 103h23v19H55z"/><path fill="#e4dcd4" d="M76 68.7l-16.8-33 .8-.4 16.8 33z"/><path fill="#eedfd2" d="M67.3 19.9l1-.4L84.7 58l-1 .4z"/><path fill="#7ea6b2" d="M25 121l-17 1 17-16z"/><path fill="#eee3da" d="M49 70l-10-6 10 25z"/><path fill="#f0e0d2" d="M177.2 34.3l-3.6-27.1 9.8 36.1-2.8 47.3z"/><circle r="1" fill="#e8dacf" transform="matrix(5.63751 30.12378 -.98294 .18395 165.8 34.3)"/><path fill="#5d3e27" d="M110.2 39.1l3.9 20 4.7 8.2-.1-8.8z"/><path fill="#fffff9" d="M28.2 67.5l3.7-1.7 5.9 12.7-3.7 1.7z"/><path fill="#7e6c5d" d="M31.1 5.7l26.8-8-25.8 29.4-17.5-.8z"/><circle r="1" fill="#b45c38" transform="matrix(.38706 11.55891 -3.12142 .10452 206.7 38.9)"/></g></g></svg>