<svg xmlns="http://www.w3.org/2000/svg" viewBox="0 0 1120 1400"><defs/><filter id="a"><feGaussianBlur stdDeviation="12"/></filter><rect width="100%" height="100%" fill="#54452c"/><g filter="url(#a)"><g fill-opacity=".5" transform="translate(2.7 2.7) scale(5.46875)"><circle cx="99" cy="13" r="60" fill="#9ca1be"/><circle r="1" fill="#001e38" transform="matrix(26.13602 -142.49272 199.66906 36.6233 71.2 165.7)"/><path fill="#e4c7b8" d="M106 79L49-16l2 79z"/><circle r="1" fill="#82868a" transform="matrix(-12.25432 -2.04327 15.2369 -91.38185 83 126.5)"/><circle r="1" fill="#b5b26a" transform="rotate(-99.2 177.3 16) scale(14.68163 30.52911)"/><circle cx="92" cy="29" r="21" fill="#590005"/><path fill="#a9c7c0" d="M111-16l50 9-44 80z"/><circle r="1" fill="#000515" transform="matrix(-43.4243 -89.75397 25.8065 -12.48556 146 231.9)"/><ellipse cx="20" cy="211" fill="#acb46b" rx="30" ry="10"/><ellipse cx="20" cy="62" fill="#000b13" rx="30" ry="62"/><circle r="1" fill="#a1d5ec" transform="rotate(-129.5 105.2 -40.1) scale(97.32362 10.20766)"/><ellipse cx="22" cy="173" fill="#000410" rx="33" ry="30"/><circle r="1" fill="#7cbcca" transform="matrix(1.34279 -16.68515 36.3578 2.926 58.7 0)"/><ellipse cx="29" cy="255" fill="#000210" rx="45" ry="34"/><circle r="1" fill="#00161e" transform="matrix(-14.76032 24.76067 -67.2372 -40.08142 161.2 132.4)"/><path fill="#94b0b4" d="M53 158h33v13H53z"/><circle r="1" fill="#10363d" transform="matrix(-14.18062 7.85353 -22.4259 -40.49301 175.2 20.5)"/><ellipse cx="40" cy="90" fill="#000516" rx="42" ry="21"/><path fill="#7f6b55" d="M164 116.1l-6.7-13.4 46.8-22.8 6.6 13.4z"/><circle cx="90" cy="59" r="13" fill="#e9a188"/><path fill="#001823" d="M0 171h77v30H0z"/><path fill="#668075" d="M5.6 111.2l44.8 2.2 44.9 6-.9 28.4z"/><circle r="1" fill="#001517" transform="rotate(174.6 87.7 123) scale(70.50204 27.46081)"/><path fill="#00000a" d="M88 77l22-11 13 22z"/><path fill="#79603d" d="M131 89l5-59-25 38z"/><path fill="#001618" d="M182 82l-38 25-15-76z"/><circle r="1" fill="#385a6a" transform="rotate(-125.1 101 94) scale(41.51661 10.97974)"/><path fill="#b0c3c8" d="M73 134l-9 19 32-18z"/><path fill="#aac8c9" d="M114 16h41v16h-41z"/><path fill="#5b6747" d="M21.9 22.3l-7 43.4-12.8-2 7-43.4z"/><path fill="#7e8255" d="M158 183h24v29h-24z"/><path fill="#56102f" d="M123.2 44.1L62.5 49 94 11.6l9.8-.4z"/><path fill="#012" d="M154 98L75 88l24 22z"/><path fill="#ff9f8c" d="M83.8 95.6l2.8 7.4-6.7 8.3-4.1-12.1z"/><circle r="1" fill="#001a1b" transform="matrix(12.40213 18.18084 -37.00599 25.24377 180 153.2)"/><path fill="#002023" d="M0 144h57v21H0z"/><path fill="#92aba9" d="M60.9 68.1l2.2-25.2L80.4 4.3l-47.6-18z"/><circle r="1" fill="#00101f" transform="matrix(51.26557 -73.21482 13.77178 9.6431 5.2 0)"/><path fill="#4c7247" d="M160 153h41v8h-41z"/><path fill="#91935d" d="M168.1 132.4l-6 7.9-6.8-4.5.1-12z"/><circle r="1" fill="#7baab6" transform="matrix(35.25541 -3.44582 1.14038 11.66762 129.6 0)"/><circle r="1" fill="#002028" transform="matrix(10.55774 16.76541 -54.86364 34.54948 27.7 250.8)"/><path fill="#363b32" d="M128 34h76v38h-76z"/><path fill="#5d777f" d="M59 204h38v10H59z"/><path fill="#2c1023" d="M75 14l33-5 9 35z"/><path fill="#403a46" d="M135.3 115.8l-15.6-15.9-22.2 17.8 31.2 25.7z"/><path fill="#193843" d="M86.4 99.6l-20.2 80.8-12.4-1.2 16.8 24.9z"/><path fill="#d4bcaa" d="M129 48l-15 5 9-21z"/><circle r="1" fill="#00141b" transform="matrix(-26.74082 52.4462 -16.55518 -8.44102 19.4 86.3)"/><path fill="#11293b" d="M53.8 120l6.8-32.2 19.6 4.1-6.8 32.3z"/><path fill="#c4a092" d="M87 75l21-28-55 5z"/><path fill="#f88472" d="M98 89l7-11-20 12z"/><circle r="1" fill="#813b48" transform="matrix(5.96763 29.86508 -2.81223 .56194 90 45.9)"/><path fill="#00171e" d="M-16 208l52-13 43-69z"/><path fill="#798d8f" d="M76.1 228l17 10.1-16.4 7.7 5.7-3.7z"/><path fill="#547c87" d="M82 225.9l-13.3-31.6 34.2-1-31.7-16.2z"/><path fill="#5e7b7d" d="M65 120l-3.7 25.3-23-4.9 62.2-20.7z"/><path fill="#8aa7ab" d="M60 164.9L76.7 138l-12.9 46.9-1.1-.7z"/><path fill="#99153f" d="M73 27h21v17H73z"/><path fill="#001217" d="M105 42h7v71h-7z"/><path fill="#000a19" d="M138.6 208.9L115.9 271l45.2-51.2-7.3-79.3z"/><path fill="#babec0" d="M83 136l7 6 7-32z"/><path fill="#1a4d32" d="M-16 105l34 41 45-18z"/><path fill="#b9bab0" d="M113 20h11v17h-11z"/><path fill="#000f1f" d="M82 185h6v36h-6z"/><circle r="1" fill="#102823" transform="matrix(15.88893 -.55074 .38197 11.01985 169.7 16)"/><path fill="#90acaf" d="M98.4 5.3l44.3 4.6L161 26.2 146.8 39z"/><path fill="#3f5d58" d="M91.8 83.3l-45-22 1.4-2.6 45 22z"/><circle r="1" fill="#828b8b" transform="matrix(-19.0008 9.3084 -.89856 -1.83419 83.5 255)"/><path fill="#979253" d="M26 113l21 10 9-10z"/><path fill="#001220" d="M100 154h22v67h-22z"/><path fill="#4e534b" d="M126 30h15v32h-15z"/><ellipse cx="56" cy="117" fill="#000915" rx="3" ry="28"/><path fill="#000a18" d="M184.2 150.2l34.8-34.3-78.2 8.8-35.6-59.6z"/><path fill="#000917" d="M176 211h28v25h-28z"/><path fill="#355b38" d="M203 248l16-21-54 24z"/><path fill="#001f2c" d="M97.4 246.8l-40.7 18.1 37.8-28.3 21 4.4z"/><path fill="#242529" d="M60 43h43v4H60z"/><circle cx="38" cy="210" r="11" fill="#737d54"/><path fill="#849596" d="M142.1-16L219 27.3l-33.1 4L219 7.4z"/><path fill="#00101a" d="M153 48l-22 109 38-73z"/><ellipse cx="31" cy="40" fill="#00111c" rx="12" ry="32"/><path fill="#39505f" d="M110.9 252.1l-10-31.2 13.5-1.5 1 37.8z"/><path fill="#313d3f" d="M59 29h18v5H59z"/><path fill="#000c16" d="M0 224h49v26H0z"/><path fill="#786c54" d="M133.6 88.4l4.4-4.6-20.3-30.6-9.1 13.7z"/><circle r="1" fill="#000e19" transform="matrix(2.10625 20.47364 -37.64401 3.87267 30.3 91)"/><path fill="#04202a" d="M48.1 172.9l-.4 98.1 15.6-92.2 126.9-.1z"/><path fill="#6c724d" d="M219 173.7l-54 40.9-6.4-6.1 2.4-27.2z"/><path fill="#6e7d7f" d="M64.7 218.3l25 50.6-16-28.7L57 207.1z"/><path fill="#052533" d="M80 208l24-48-12-18z"/><path fill="#a9b0aa" d="M52 10l22 53-20-3z"/><path fill="#00121d" d="M-7.6 135.1l.3-5 52.9 2.8-.3 5z"/><path d="M115 43l-1-6 6 1z"/><path fill="#000a17" d="M12.7-13.3L22 4.4 5.3 13.3-4-4.4z"/><path fill="#001a27" d="M83 90h44v9H83z"/><ellipse cx="92" cy="1" fill="#809ca5" rx="65" ry="9"/><path fill="#4c4a40" d="M159 94l60 9-61 14z"/><path fill="#335461" d="M77.1 117.4l2.1 28.1 22.4-43.9-12.7 1.7z"/><path fill="#ff646d" d="M117 271l4-7-9-18z"/></g></g></svg>