<svg xmlns="http://www.w3.org/2000/svg" viewBox="0 0 1120 1400"><defs/><filter id="a"><feGaussianBlur stdDeviation="12"/></filter><rect width="100%" height="100%" fill="#4f2929"/><g filter="url(#a)"><g fill-opacity=".5" transform="translate(2.7 2.7) scale(5.46875)"><circle r="1" fill="#e1eeea" transform="matrix(4.60553 202.94775 -81.74921 1.85515 114.5 129.5)"/><ellipse cx="99" fill="#fffff4" rx="39" ry="89"/><circle cx="104" cy="255" r="124" fill="#615d71"/><ellipse cx="158" cy="98" fill="#fff" rx="11" ry="74"/><path fill="#fff" d="M36 42h18v139H36z"/><path fill="#ecfefb" d="M116 181.4l-30 1-4-109.8 30-1z"/><path fill="#2a1910" d="M54 60.3l28-.5 2 112-28 .4z"/><path fill="#2a1e15" d="M118 163.7l-2-111 28-.4 2 111z"/><path fill="#aebfff" d="M18 228h118v23H18z"/><path fill="#7a8975" d="M-16-7l27 204L47-6z"/><circle r="1" fill="#b7a785" transform="rotate(-96.5 112.4 -78.4) scale(22.1912 114.72392)"/><circle r="1" fill="#312b36" transform="rotate(-172.9 41.5 101.9) scale(46.47462 20.25593)"/><path fill="#843200" d="M137 245.2l-8.6-54.3 38.6-6.1 8.6 54.3z"/><ellipse cx="178" cy="206" fill="#ffa7c2" rx="10" ry="31"/><ellipse cx="54" cy="8" fill="#130000" rx="6" ry="19"/><circle r="1" fill="#4d452a" transform="matrix(23.6693 -1.95502 1.29938 15.73152 183.3 158)"/><path fill="#fff" d="M61 0h78v23H61z"/><path fill="#20201a" d="M67 137h26v19H67z"/><path fill="#768be4" d="M82.4 213.6l-21.6-10.5 22.8-46.7 21.6 10.5z"/><circle r="1" fill="#af6d37" transform="matrix(11.3255 10.37934 -30.1389 32.8863 143.8 192.9)"/><circle r="1" fill="#331e07" transform="rotate(-90.1 60.7 27) scale(114.325 1.71242)"/><ellipse cx="158" cy="90" fill="#fff" rx="10" ry="43"/><circle r="1" fill="#091f25" transform="matrix(-9.50743 -4.59946 14.6336 -30.24874 13.6 228)"/><ellipse cx="57" cy="181" fill="#19180b" rx="7" ry="28"/><ellipse cx="44" cy="85" fill="#fff" rx="9" ry="33"/><path fill="#2f333a" d="M124 184l-16-42 41-17z"/><path fill="#586559" d="M170 84h27v93h-27z"/><path fill="#150000" d="M140 0h9v19h-9z"/><path fill="#f7f7e1" d="M78 56l37 81 3-93z"/><path fill="#1c0d00" d="M165.6 26.6L184.7-16l-2.5 36.3L167.4-7z"/><path fill="#ffa678" d="M184 242h20v14h-20z"/><path fill="#fa8088" d="M49 26h73v20H49z"/><path fill="#623834" d="M53 52h27v25H53z"/><path fill="#b0dbe3" d="M32.4 22.3l2.8-3.6L39.6-16l4 43.5z"/><ellipse cx="187" cy="37" fill="#8faaa7" rx="5" ry="47"/><ellipse cx="54" cy="255" fill="#4156cc" rx="40" ry="8"/><path fill="#000c20" d="M144.9 222.7l23.6 4.7 2.3 17-22.7-8.3z"/><path fill="#82ad93" d="M204-3l14 44-21 59z"/><path fill="#a12d32" d="M187.7 261.6l-1.8-37-11.1.3L160 271z"/><path fill="#a4b6f2" d="M144.9 271l-21.6-35 23.7 14.5 27.4-13.3z"/><path fill="#bcd4e4" d="M147 124h7v58h-7z"/><path fill="#c5dfff" d="M189.6 195.8l6.5.2-.6 12.8-22.4-12z"/><path fill="#a7b5d7" d="M85.3 159.7l32.2-2.3.9 30.9-45.2-3.5z"/><path fill="#3d413e" d="M16 179l-32-87 56 30z"/><ellipse cx="24" cy="59" fill="#b9b5b1" rx="4" ry="21"/><path fill="#000a0c" d="M199.6 239.1l-.9 3.5-11.8-3.8 15.8-51.7z"/><path fill="#faf8ec" d="M60 35l-22 69-3-60z"/><ellipse cx="100" cy="34" fill="#a0663d" rx="10" ry="12"/><path fill="#611222" d="M149.5 79.9l-.6-15-.7 1.9-38.1 1.3z"/><path fill="#4c340b" d="M39 217h83v10H39z"/><path fill="#c6c0a3" d="M113.7 54.7l17.7 8.2 53.4-38.3-36.9-8.9z"/><path fill="#1c1c22" d="M121 169h23v14h-23z"/><circle r="1" fill="#1d0000" transform="matrix(2.29866 .32805 -2.58027 18.07977 193.8 23.2)"/><ellipse cx="19" cy="73" fill="#0b0e0d" rx="2" ry="98"/><path fill="#9aa6ae" d="M127.2 160.8l2.1 19.7 6.3-.3 7.5-16.7z"/><ellipse cx="15" cy="38" fill="#869585" rx="3" ry="110"/><path fill="#32719c" d="M5 190h9v42H5z"/><path fill="#909698" d="M21 98h8v37h-8z"/><circle r="1" fill="#cc893e" transform="matrix(8.08625 -8.43334 13.91772 13.34492 125.2 211.9)"/><path fill="#c4c2b5" d="M19.4 1.3l8-.6 1.2 18-8 .6z"/><path fill="#909cd0" d="M20.7 217.7l-3.4-.6 15.9 40.6 20.1-20.5z"/><path fill="#2767a1" d="M184 158h12v39h-12z"/><path fill="#010000" d="M169 41h3v30h-3z"/><path fill="#fff7ff" d="M70 43l23-16-34-43z"/><path fill="#ffa5b8" d="M169 179h14v39h-14z"/><path fill="#949b93" d="M54 179l-23 58 5-61z"/><ellipse cx="138" cy="126" fill="#91a9b5" rx="2" ry="50"/><path fill="#957d55" d="M140 38h34v11h-34z"/><path fill="#2f3831" d="M148.3 72.6l-3.6 105-3-.2 3.6-105z"/><path fill="#0f1d1c" d="M197.6 219.2l-2.7-101.3-5.8-13.3 29.9 6.6z"/><path fill="#391e0f" d="M29 18h6v179h-6z"/><path fill="#000e0e" d="M15.3 172.9l-5.6 97.8 9.2-42.4.5-86.6z"/><path fill="#adc7ea" d="M132 229h8v27h-8z"/><path fill="#ad9e89" d="M121 76h8v37h-8z"/><path fill="#e8daa9" d="M176 25h7v57h-7z"/><path fill="#632625" d="M61 27L57 2 35 41z"/><path fill="#f7fff9" d="M152 48h17v49h-17z"/><path fill="#2d3262" d="M63 187h50v7H63z"/><path fill="#250809" d="M-8.2-16h35.8L6.9 33.2 8.8-16z"/><circle r="1" fill="#d0ddd5" transform="matrix(-11.47309 9.3 -5.6119 -6.9232 43.2 151.1)"/><ellipse cx="20" cy="40" fill="#ad8d79" rx="34" ry="5"/><path fill="#e7e4d8" d="M95 50h15v110H95z"/><path fill="#200" d="M117 77h4v74h-4z"/><path fill="#c5dcff" d="M115 188h13v7h-13z"/><path fill="#5f849c" d="M19 155h7v44h-7z"/><path fill="#fff" d="M83 80h5v45h-5z"/><path fill="#ebefe7" d="M33.8 99.4l-8.7 13.9L48.8 54l4.7 78.3z"/><ellipse cx="12" cy="151" fill="#5a84a0" rx="4" ry="29"/><path fill="#fbfbef" d="M79 46h41v16H79z"/><path fill="#0777cb" d="M206 181l-7 55 20 16z"/><path fill="#454345" d="M57 125h22v49H57z"/><path fill="#0a0000" d="M.5 207.7l7.8-39-4.6-6.2-12.9-1.3z"/><path fill="#99a48e" d="M73 85h4v56h-4z"/><path fill="#c7c9e4" d="M181 114l12-4-1 14z"/><path fill="#000811" d="M90 142h4v15h-4z"/><path fill="#2a0203" d="M6 46h6v40H6z"/><path fill="#692600" d="M141 204h29v12h-29z"/><path fill="#35abe3" d="M199 9h5v20h-5z"/><path fill="#232663" d="M60 207h40v14H60z"/><path fill="#300700" d="M25.6 77.8l-4.8 6.4 5.9 18.2 6-10.7z"/></g></g></svg>