<svg xmlns="http://www.w3.org/2000/svg" viewBox="0 0 1400 927"><defs/><filter id="a"><feGaussianBlur stdDeviation="12"/></filter><rect width="100%" height="100%" fill="#53392f"/><g filter="url(#a)"><g fill-opacity=".5" transform="translate(2.7 2.7) scale(5.46875)"><circle r="1" fill="#fff" transform="matrix(9.708 20.02508 -86.42672 41.899 233 153.7)"/><circle r="1" fill="#cfbeb1" transform="matrix(-17.20897 -57.47396 104.95782 -31.42669 177.6 41.9)"/><ellipse cx="90" cy="137" rx="134" ry="28"/><path fill="#fff" d="M268.3 2.5l-5.2 29.6-37.4-6.6 5.2-29.6z"/><circle r="1" fill="#1a1910" transform="rotate(-90.6 107.7 -78.7) scale(40.74259 22.62423)"/><circle r="1" fill="#c0b3b3" transform="matrix(-5.53592 16.94107 -32.24807 -10.53788 29.7 88.3)"/><circle r="1" fill="#fff" transform="matrix(.09262 -17.68965 23.3711 .12237 141.2 10)"/><circle r="1" fill="#f1ffff" transform="matrix(59.0744 -53.92066 17.23562 18.883 244 155.7)"/><circle r="1" fill="#000103" transform="rotate(-161 31.5 -1.3) scale(57.62427 20.44263)"/><circle r="1" fill="#e5c9c3" transform="matrix(12.52113 18.09005 -10.87073 7.52424 79.2 59)"/><path fill="#f3d0c5" d="M195 83l76-46-68 73z"/><path fill="#dfc3ba" d="M94 97h20v23H94z"/><circle r="1" fill="#000002" transform="matrix(-96.88858 17.7342 -4.72884 -25.8354 84.1 155.6)"/><circle cx="151" cy="64" r="21" fill="#f2bfad"/><circle r="1" fill="#0a1315" transform="matrix(13.75105 -2.9965 16.45249 75.50105 17 19.6)"/><path fill="#201106" d="M138 4l-30 52 17 8z"/><path d="M84 125l13-42-46-12z"/><path fill="#fff" d="M259.4 30l-33.6-5.4L230.6-6l33.6 5.4z"/><path fill="#b4c9bd" d="M175 167l45 17-33-61z"/><path fill="#090100" d="M208.1 30.3l-1.5 6.3 18 26.5 12-14z"/><path fill="#dfe5dc" d="M214.4 108.1l43 68L271 184l-41.3-73.6z"/><path fill="#cac6c5" d="M40 30l2 63 22 14z"/><path fill="#272921" d="M153.3 29.3L210.9-16l-59.3 59.3L45.5 9.7z"/><path fill="#ffe2d7" d="M189.4 41l4.5-5.4L214.6 53l-4.5 5.4z"/><path fill="#d4d4ce" d="M51.7 110.4l12.1 10.5-1.2.8-9.9 4.5z"/><path fill="#fff" d="M148 30l22-46-32 18z"/><path fill="#1e0803" d="M206 52.9v10.6l-9.7 14.1L164 35.7z"/><path fill="#6a4335" d="M204 94l-65 21-38-19z"/><path fill="#000b0f" d="M235.7 45.8L230 32.3l24.3 6L242 50.2z"/><path d="M210 91h46v8h-46zm20.2 43.5l-15.8-10.6 6.5 21.6-82.5 9.4z"/><path fill="#e4e5dc" d="M140.3 75.6L128.5 2l-18.9-.9 9.7 8.9z"/><circle r="1" fill="#b4dfce" transform="matrix(28.03227 -6.21763 1.53822 6.9351 183 163)"/><path fill="#050a0c" d="M48.8 63.5l-38.3-16 76.2 56.8-40.3-63.7z"/><ellipse cx="134" fill="#3e3e25" rx="4" ry="37"/><path fill="#accac2" d="M60 12v-28l-9 26z"/><path fill="#84868a" d="M20 49L9 75 5 17z"/><circle r="1" fill="#000004" transform="rotate(27.1 -67.7 52.3) scale(4.65244 68.78947)"/><path fill="#311b0f" d="M106.5-15.9L88.4 47.5l-7.6 7.2 32.8-18.1z"/><path fill="#fff" d="M158 37h8v28h-8z"/><circle cx="191" cy="10" r="30" fill="#555446"/><path fill="#b8988b" d="M115.6 78.5l-25.2 65.1 9-78 4.4-39.5z"/><path fill="#622b18" d="M157.9 127.5l-40.2-68.8 13.7 13.8-16.9 7.2z"/><path fill="#8c5e4c" d="M138.5 115.6l21.5-4.5-18.1-81.6 25.7 45.1z"/><path fill="#150a08" d="M157 30l-33-1 22 15z"/><path fill="#f3e2dc" d="M224.9 85.8l-3.3-11.1 35.2-36-7.5 26.5z"/><circle r="1" fill="#000004" transform="matrix(74.42216 54.38496 -9.35143 12.7968 35.1 152.8)"/><path fill="#000100" d="M247.5 125.8l-16.1-13.5 5.1-6.1 16.1 13.5z"/><path fill="#9d9e9b" d="M58.1 30.2L33 33.4l21.8 55.3-8.7-44.8z"/><circle r="1" fill="#bc8e7e" transform="matrix(9.37528 -7.72134 2.60938 3.16833 81.2 82.6)"/><path fill="#b7907e" d="M76.3 57l-24-5 3.9-11.1L96 32.1z"/><path fill="#000707" d="M27-16l46.2 52.1-23.1-10-66.1-2.5z"/><path fill="#dec0b3" d="M216 83l-2-35-26 58z"/><path fill="#e3cdcc" d="M162 108l-12 1-7-15z"/><path fill="#e49477" d="M255.1 81.2l-33.6 14.4 31-17.9 14.8-60.4z"/><path fill="#fff" d="M279 32l-51.6-6.3L231-4l51.6 6.4z"/><path fill="#3e4338" d="M119.1 97.4l-4.1 21.9-94.3 9.7 65.9 9.9z"/><path fill="#0a0c0c" d="M-3 184l166-77 28 45z"/><path fill="#d57c56" d="M22 68h20v10H22z"/><path fill="#fff" d="M120 0h10v23h-10z"/><ellipse cx="83" fill="#7d8974" rx="5" ry="26"/><path fill="#c3c5d5" d="M20 84l-8-21-10 7z"/><ellipse cx="244" cy="165" fill="#d9f0e4" rx="25" ry="43"/><path fill="#4f291b" d="M209.4 32.4l26.1 24.3-7.2 13.5L217.9 57z"/><path d="M1 124l1-78-18 22z"/><path fill="#d1959e" d="M195.6 129l-.2 16h-9l.2-16z"/><path fill="#56291b" d="M232 123l-84-23 54-1z"/><path fill="#943a14" d="M183 64h15v19h-15z"/><path fill="#d3e0e3" d="M223.4 39.1l20.5 15.8-19.4-21.1-7.9-7.2z"/><path fill="#968684" d="M3 90h37v17H3z"/><path fill="#0a0608" d="M101 75l-34 71-2-48z"/><path fill="#d9d3cd" d="M34.5 71.4l-2.5.7L57.3 84l8.4 22.8z"/><path fill="#a3918c" d="M262.2 143.2l-25.6-16.7-52.9-14.4 45.3 15.6z"/><path fill="#fdffff" d="M150.7 31.3l12.2-25.1-3.7-22.2-23.5 36.3z"/><path fill="#dfeae6" d="M109 18l2-17 4 15z"/><path fill="#582418" d="M271 46.5l-66.9 60.6 26.8-17 40.1-36z"/><path fill="#d29c8d" d="M237.3 128.9l-27.4-20-10.3-32.7 14.7 27.6z"/><path fill="#020206" d="M224.8 140.6l-75.5-28.9 17 .7 60.7 14.8z"/><path fill="#3a302a" d="M153.7 28.9l34.9 16.4 14.8-16.4-51-7.7z"/><path d="M110 57l3-14 20 3z"/><path fill="#000608" d="M110.7 11.2l9.1-1.1L84.6-9.2l6.5 34.7z"/><path fill="#f8f7f6" d="M141 42v16l-12-2z"/><path fill="#c99e9b" d="M225 99h31v3h-31z"/><path fill="#8e7064" d="M12 44.3l-7.3 19 10.8-11.4 21.9-8z"/><path fill="#b16c51" d="M139.2 62.1L75.3 89.9 114.8 60l2.3-10.3z"/><path fill="#cba295" d="M131.2 87.9l-15.1 20.7 23.7-45 44.1-6.3z"/><path fill="#000305" d="M48 61l18-6 9 66z"/><path fill="#c1b2b0" d="M110.6 67.8l-39.5 8.6L65 64.2l2.2-19.6z"/><path fill="#847a6a" d="M199 9l12 7-41 33z"/><path fill="#000204" d="M264.7 94.9l-56.4 7.5 24.5-9.8L271 77.3z"/><path fill="#020002" d="M45 104h12v10H45z"/><path d="M229 132l-20 19-14-14z"/><path fill="#eff" d="M260.5 34.8l-.3 2-20.7-3.6.3-2z"/><path fill="#899092" d="M-10.8 31l22-6.4L14.9 37l-22 6.3z"/><path fill="#9a938d" d="M44.3 135.2l20.1-18.6-7.2-3-5.7 7.2z"/><path fill="#625344" d="M261.5 64.7L271 56l-23.4-9.6L177.5-16z"/><path fill="#e5c1b4" d="M166 50v47l10-21z"/><ellipse cx="240" cy="29" fill="#404537" rx="27" ry="2"/><path fill="#ece1dc" d="M240 57.6l12.1 3.4-23.6 11 9.1-24.4z"/><ellipse cx="28" cy="59" fill="#100b0b" rx="14" ry="12"/></g></g></svg>