<svg xmlns="http://www.w3.org/2000/svg" viewBox="0 0 1400 1120"><defs/><filter id="a"><feGaussianBlur stdDeviation="12"/></filter><rect width="100%" height="100%" fill="#593a2f"/><g filter="url(#a)"><g fill-opacity=".5" transform="translate(2.7 2.7) scale(5.46875)"><circle cx="255" cy="35" r="176" fill="#aeada5"/><circle r="1" transform="rotate(-18.1 575 -318.3) scale(148.83615 31.34901)"/><circle r="1" fill="#fff" transform="matrix(-8.60696 -22.61807 159.58113 -60.72612 228.1 190)"/><circle r="1" fill="#f6d3c4" transform="matrix(-17.71433 18.4181 -27.32411 -26.28004 56 74.5)"/><circle r="1" fill="#fff" transform="matrix(15.91267 17.00975 -23.21987 21.72226 248.8 8)"/><circle r="1" fill="#fff" transform="matrix(-28.07097 -2.18198 1.79218 -23.05626 116.2 9.7)"/><circle r="1" fill="#2c1d10" transform="matrix(10.943 56.29687 -22.54991 4.38326 169.2 38.3)"/><circle r="1" fill="#fffbfc" transform="matrix(9.95433 -10.15162 15.57696 15.27425 4.1 110.4)"/><path fill="#e2ae9c" d="M135.1 40.3l-89 100L271 50.1l-73.2 80.3z"/><path fill="#030001" d="M201 185l25-29-136-28z"/><path fill="#f8ffff" d="M221 149h35v49h-35z"/><path fill="#000408" d="M35 110l107 86-158 13z"/><ellipse cx="247" cy="15" fill="#fff" rx="26" ry="20"/><ellipse cx="32" fill="#000d10" rx="48" ry="40"/><path fill="#c4b6b0" d="M60 106h20v40H60z"/><circle r="1" fill="#4e1f0c" transform="rotate(-94.2 79 -10.4) scale(43.37756 7.53479)"/><path fill="#e9a593" d="M229.9 138.1l-.2-8.3-.8 23.6-65-48.7z"/><path fill="#fec6c9" d="M184.3 156.5l-2.8 15.8-15.8-2.8 2.8-15.8z"/><path fill="#281914" d="M176.8 23.8l60.7 38.6-22.2 21.8-3.1-20z"/><circle cx="138" cy="164" r="30"/><circle r="1" fill="#000006" transform="matrix(24.96082 36.25845 -9.91529 6.82582 32 104.6)"/><path fill="#1d1b02" d="M105 0h8v44h-8z"/><path fill="#fff" d="M145 1.2l-14.6 36.2-21.4-8.6 14.6-36.2z"/><path fill="#f4d8ce" d="M179.1 49.3l13.4-4.4 19.3 26.2-10.3 5.4z"/><path fill="#f9ece7" d="M205 99l36-10 24-53z"/><path fill="#3d1a08" d="M128 71l-22-41 32 11z"/><path fill="#3c1811" d="M241.3 150.6l-32-35.7 59.4-53.5 32 35.7z"/><path fill="#fdf0e8" d="M107.1 80.8l13.7-19 1-5.4-18-13.5z"/><path fill="#fff" d="M136 45h11v32h-11z"/><ellipse cx="45" cy="79" fill="#d3cccd" rx="19" ry="15"/><path d="M17 152l48-65-8 53z"/><path fill="#d5dad8" d="M-1.6 46.5L22 136.9l-2.7-23.3L-16 46.5z"/><path fill="#fff" d="M97-16l8 42-16 1z"/><path fill="#463222" d="M33.6 167.9l64.7-45.8 7.4-24.4 22.7 39.9z"/><path d="M255 46l-22-5 2 19z"/><circle r="1" fill="#0e0404" transform="rotate(120.1 69.2 85.1) scale(11.43617 20.9665)"/><path fill="#a7c3bb" d="M23 15L8 13l5-29z"/><path fill="#c8efe2" d="M137 196l127-28 7 51z"/><path fill="#fff" d="M254.8 34.5L219 30.1l6.2-50.6 35.8 4.4z"/><path fill="#030302" d="M112 29L79 76l3-22z"/><path fill="#eef9f7" d="M10.2 147.9L12 138l11.8 2.1L22 150z"/><path fill="#cab3aa" d="M72.2 66.5l-14.8 86.4 24.7-97.5-14.5-20.6z"/><ellipse cx="194" fill="#4f5447" rx="21" ry="54"/><circle cx="198" cy="165" r="16"/><circle r="1" fill="#97634e" transform="matrix(36.6135 -29.86124 8.01007 9.82131 158 105.2)"/><path fill="#e7cabd" d="M205.2 66l-33.3 57.7 27.8-7.5-1.6-11.7z"/><path d="M76 40L56-2l34 30z"/><path fill="#120200" d="M246 110l-40 15-6-16z"/><circle r="1" fill="#cbd1d3" transform="matrix(17.34425 21.29798 -2.92308 2.38044 228 56.7)"/><path d="M207.5 65.3l.1-11.7 19.6-1.1.4 10.1z"/><path fill="#b07f6b" d="M82.3 70.3l-47.7 45 8.3-30.1 163.8 45z"/><path fill="#0d1313" d="M138.9 29.1l-32.6 23.4 54.7-18-1.3 21.3z"/><path fill="#d3a79f" d="M219.6 123.7l-.2-4 43-1.4.2 4z"/><path fill="#634937" d="M64 82L38-12l36 59z"/><path fill="#b59384" d="M60.3 29.1L46.6 73.7l-31.1-30-6 28z"/><path fill="#06060e" d="M-16 143.4l29.5-24.3 3.5 16.7-33 18.2z"/><path fill="#d2a99a" d="M136.9 129.2L96.8 69.4l26.5 58-.5 11.1z"/><path fill="#dae0d9" d="M78-10l14.1 39.2L115.9-16l-34 46.2z"/><circle r="1" fill="#000003" transform="rotate(-110.6 68 85) scale(19.69013 32.05674)"/><path fill="#010100" d="M37 52l4-54-31 25z"/><path d="M132.5 111.3l-2.4 11.2 15.6 6.1-2.7-4.8zM261 95l10 24-46-2z"/><path fill="#daffea" d="M250 138l12-6-10 28z"/><path fill="#320000" d="M88 95l19-5-10 19z"/><path fill="#000103" d="M33 99.2L2.8 48.7l-6.1-4 35.2 98.8z"/><path fill="#fff" d="M142.4 1l-.8 25-24-1 .8-25z"/><path fill="#050607" d="M175.5 183.8l-33.8-56.7-20 69.8 46.5-11.1z"/><path fill="#b28482" d="M183.2 134.4l-5.5 9.7 42.7 4.2 12.1 10.4z"/><circle r="1" fill="#f8d8cc" transform="matrix(-2.836 -20.75688 3.20738 -.43822 151.4 85.5)"/><path fill="#fff" d="M242.5 36.3l20.2 8.6-1.2 2.8-20.2-8.6z"/><path fill="#947061" d="M72 109h31v22H72z"/><circle r="1" transform="matrix(30.72057 6.19435 -2.44293 12.1156 95.8 157.6)"/><path fill="#dcb0a6" d="M215.9 134.6L190 118.1l31.8 27.7 8.2-14.3z"/><path fill="#de987c" d="M262.1 64.1L244.4 107l-11.1-9.5 37.7.5z"/><path fill="#b69093" d="M165 168l19 8-1-21z"/><path fill="#1e1713" d="M150.7 66.2l16.1-39.1-22.4 31.4 52.3 17.2z"/><path fill="#783926" d="M139 106h-13l26-33z"/><path fill="#121d01" d="M235 157.4l.6-.8 17.3 10-.5.8z"/><path fill="#88492c" d="M168 83l22-10-13 54z"/><ellipse cx="47" cy="12" fill="#707f6d" rx="5" ry="20"/><path fill="#caa798" d="M129 133V48l-26 38z"/><path fill="#070807" d="M67.6 34.8L52.1 54.3 69 48.2 42.8.7z"/><path fill="#fffff2" d="M84 37h4v14h-4z"/><circle r="1" fill="#518a73" transform="rotate(-25.6 515.6 -199.6) scale(23.12043 8.60873)"/><path fill="#dda895" d="M170 55h18l6-14z"/><path fill="#ffd6b9" d="M96 44h12v8H96z"/><path fill="#d6d4d1" d="M26 130l-10-28-32-22z"/><path fill="#a16146" d="M236 55h20v10h-20z"/><circle r="1" fill="#000008" transform="rotate(-83.3 79.5 -23.6) scale(4.95777 11.79748)"/><path fill="#eee6e3" d="M219 106l29-41-35 26z"/><path fill="#3f6f57" d="M40.1 166.6l-3.3-12.5 25-6.7 3.4 12.5z"/><path fill="#031114" d="M115.1 42.2l-27-2 8.5-3.4 28.8-3.1z"/><path fill="#fff" d="M91 0h14v28H91z"/><path fill="#def2e9" d="M271 158.4l-24.7 9.5-19.6-16.6-23.4 49z"/><path fill="#908978" d="M107.2 34.8l-16.5 1.4 21.5-15.6-1.7 55.1z"/><path fill="#341309" d="M70.5 88.2l-6.3 15.5-35.6 10.5 50.6-22.7z"/><path fill="#000404" d="M252 125l-26 12 20 12z"/><path fill="#e8e3dd" d="M190 55l14 28 2-26z"/><path fill="#000303" d="M78.9 13.5l1.7-16.2-25 2.8-7.8 36z"/><path fill="#672e1b" d="M153 114l66 18-76 5z"/></g></g></svg>