<svg xmlns="http://www.w3.org/2000/svg" viewBox="0 0 1120 1400"><defs/><filter id="a"><feGaussianBlur stdDeviation="12"/></filter><rect width="100%" height="100%" fill="#2b3852"/><g filter="url(#a)"><g fill-opacity=".5" transform="translate(2.7 2.7) scale(5.46875)"><circle r="1" fill="#fffff9" transform="rotate(-31.8 216 -76.6) scale(203 135.71836)"/><circle r="1" fill="#0a1526" transform="matrix(40.33518 -.17924 .138 31.05323 58.5 56.1)"/><circle r="1" fill="#fbe7b8" transform="matrix(48.02503 -34.63674 74.8383 103.76585 158.3 37.2)"/><circle r="1" fill="#d2cec2" transform="matrix(-25.6218 -53.76324 183.25388 -87.33279 48.2 185.7)"/><circle r="1" fill="#0f1200" transform="rotate(62.2 -108.8 246.6) scale(20.33705 96.18087)"/><path fill="#fffdc7" d="M65.4-33L83 14.9-5.4 47-23-.9z"/><path d="M47.8 119.5l-3.5-9.4 71.9-27.6 3.5 9.4z"/><circle r="1" fill="#f7fcfd" transform="matrix(140.221 -66.88198 4.21192 8.83048 103.7 127.5)"/><circle r="1" fill="#feedba" transform="matrix(18.61077 53.77816 -27.75104 9.60368 0 85)"/><path fill="#4b5054" d="M-4 230l84-46-57 7z"/><circle r="1" fill="#757776" transform="matrix(-32.83503 19.3526 -8.5011 -14.42358 150.3 147.2)"/><path fill="#001334" d="M25 67l21 50 2-57z"/><path fill="#ced1d0" d="M59 271l-75-24 138-62z"/><circle r="1" fill="#b8ac97" transform="rotate(58.5 -68.8 249.7) scale(13.60958 53.16398)"/><path fill="#182c4a" d="M78.8 39.7L72.7 9.1l40.1 70.5-2.5 17.3z"/><path fill="ivory" d="M78 80l-38 27 65-22z"/><ellipse cx="184" cy="243" fill="#1d2905" rx="62" ry="39"/><path fill="#b8ac8c" d="M219 40.7L106.3 65.1l13.6 45.5 72.3-37.5z"/><path fill="#6a6e6f" d="M98.8 148l-3.1-5.2 77.1-37.7-10.8 11.1z"/><path fill="#998966" d="M105.2 222.3l61.2-32.4-58.2 51L22.9 271z"/><path fill="#3b485c" d="M99 74L13 38l26 57z"/><path fill="#b1a57f" d="M141.2 82.8l6.4 15.8-154.8 62.6-6.4-15.8z"/><ellipse cx="52" cy="46" fill="#9f845b" rx="15" ry="14"/><path fill="#b5c0cc" d="M95.8 61.6l1.4 3.7-29 11.1-1.4-3.7z"/><path fill="#213759" d="M64.2 20.2l14.2 46.6L96 60.4 85.8 24.7z"/><path fill="#17293f" d="M42.9 85.8l-1.6 28.3 22.3 3-33.5-33z"/><path fill="#ece8df" d="M102.2 74.6L43.9 95.5l6.8 8.7 51.1-17.9z"/><path fill="#172b49" d="M115 91L89 38l5 32z"/><path fill="#dacdb5" d="M-5.5-16l-9.9 63.2L68.8 22l88.9-16.1z"/><path fill="#c1c4c5" d="M44 200.3l1.1-46.5 58.1-20.1-34.6 49.9z"/><path fill="#080800" d="M204 178l-72 50 85-30z"/><path fill="#aeadad" d="M189.9 186.5l-30.2-36 34.4-29 30.2 36z"/><circle r="1" fill="#c2bda3" transform="matrix(-11.66082 -16.65387 23.81283 -16.67343 16.4 120.8)"/><path fill="#888886" d="M104.6 164.3l65.5-42.9-40.2 51.9-13.2 6.5z"/><path fill="#636667" d="M36 202l48-25-14 18z"/><path fill="#bfc0c2" d="M172 176L70 230l81-77z"/><circle r="1" fill="#edf1ef" transform="rotate(62.8 -9.7 171.8) scale(5.04824 106.14765)"/><path fill="#ded8c2" d="M-15.4 107.6l28.6-7.1 3.1-77.3-18.7-10.5z"/><path fill="#c6cbd6" d="M220.6 116.6L189 139.5l-27.6-38 31.6-23z"/><path fill="#7b7d7a" d="M126 139h65v7h-65z"/><path fill="#bfb398" d="M168.1 208.5l-6.5-13.4-92.1 56 78.8-42.6z"/><path fill="#284471" d="M15 40l13 23 21-35z"/><circle r="1" fill="#c0c4c6" transform="matrix(-28.35732 16.30618 -6.30779 -10.96958 28.2 179.9)"/><path fill="#0f1307" d="M118.9 227.8l-19.7 36.7L219 175.1l-90.1 50.8z"/><path fill="#f2b354" d="M58 60l-4-10-1 22z"/><path fill="#bf9757" d="M67 40h7v10h-7z"/><path fill="#2e353a" d="M59 79L42 93l46-15z"/><path fill="#c3c6c7" d="M60.5 188L9 216.6 7.5 214 59 185.4z"/><path fill="#383c3d" d="M46 191.4l-12.7 8.2-3.2-5 12.6-8.2z"/><ellipse cx="185" cy="255" fill="#26321e" rx="104" ry="24"/><circle r="1" fill="#ccbfa3" transform="matrix(52.17148 -38.024 18.01297 24.715 160.4 36.3)"/><path fill="#8490a1" d="M34.9 83.6l19.6-2 36.6-14.8-30 7.1z"/><circle r="1" fill="#24354f" transform="matrix(12.10289 29.07532 -3.83247 1.5953 40.7 93)"/><path fill="#b6b7a6" d="M114 235l-6 6v-13z"/><circle r="1" fill="#79756e" transform="matrix(56.39364 -28.53124 .7931 1.5676 67.6 245.9)"/><circle r="1" fill="#d0d5d8" transform="matrix(-57.49386 36.48671 -4.71275 -7.4261 8.1 255)"/><circle r="1" fill="#001735" transform="matrix(31.9915 -11.99256 .35101 .93637 83.1 102)"/><path fill="#dda34b" d="M74.2 62.6l-2 2.2-10.4-9.4 2-2.2z"/><circle r="1" fill="#b0a98f" transform="matrix(-4.93913 -9.40295 58.20501 -30.57362 58.1 128.1)"/><path fill="#505354" d="M10.4 200.8l15.5 1.1-.6 1.2-12.6 4.9z"/><path fill="#263856" d="M93.9 63.6L78.8 32 67.7 56l8.4 5.8z"/><path fill="#32486b" d="M79 19l18 33-49-25z"/><path fill="#172d50" d="M58 53l-1 21 17-9z"/><path fill="#f0f3f0" d="M-16 178.1L20.5 167l138.1-70.4-106.8 45.9z"/><circle r="1" fill="#151707" transform="matrix(-26.80408 11.89358 -3.1641 -7.1308 91.4 255)"/><path fill="#c4c7c9" d="M65 185l-9-2 14 13z"/><circle r="1" fill="#766e60" transform="rotate(60 -122.6 216.4) scale(1 74.49358)"/><circle cx="157" cy="29" r="4" fill="#947b54"/><path fill="#585c5c" d="M37.3 201.3l-51.5 30.4 16.1-2.9 38.6-24.3z"/><circle r="1" fill="#273643" transform="matrix(-.96598 -3.24033 33.70016 -10.04645 84.5 98.6)"/><path fill="#838686" d="M163.5 107.1l-27.6 20.1 15.8-5.5 15.9-13.1z"/><path fill="#f0f0e9" d="M100.5 85.2l-16.2-3.5 15.7-6.9-.2-.2z"/><path fill="#bab39d" d="M115 70h35v28h-35z"/><path fill="#cfc9b3" d="M40.5 110.7L8.2 89.9-16-16l43.4 88.4z"/><path fill="#253756" d="M30 57h24v18H30z"/><circle cx="52" cy="39" r="4" fill="#0d3471"/><path fill="#1c2d47" d="M100 75.5l-10.8 1.9-1.2-6.9 10.8-1.9z"/><path fill="#827753" d="M174.2 198.6l-38.1 19.2 25.8-18.8 32.9-15.2z"/><path fill="#b1b3b3" d="M123 169l-81 20 71-42z"/><ellipse cx="99" cy="70" fill="#c9d0d3" rx="2" ry="3"/><path fill="#d3c29c" d="M180.5 190.7l-2.7-4.1 25.7-17.3 2.7 4.1z"/><path fill="#676767" d="M129 174l-20 2 13-7z"/><path fill="#bcc0c3" d="M26.8 234.4l59.5 2.7-29.1 9.5-34.6-41.1z"/><path fill="#192942" d="M114.9 88l-9.4-17-2.9 6.5 2.9 11.3z"/><ellipse cx="171" cy="150" fill="#cbccca" rx="8" ry="6"/><circle r="1" fill="#898c8b" transform="matrix(-12.85505 -7.86756 4.81147 -7.86161 175.2 137)"/><circle r="1" fill="#293827" transform="rotate(-30.6 555 -199.5) scale(94.32379 26.06333)"/><path fill="#b5b5b2" d="M132.5 175.4l20.8-46-26.4-7.3 26.8 28.1z"/><path fill="#535453" d="M138.5 140l.7.7-19.7 25.2-.7-.6z"/><path fill="#a3a5a7" d="M6 219l-22-13 36-19z"/><path fill="#b7b8b9" d="M83.6 238.3l100.5-75.1-65 11.5 16.2-14.8z"/><circle r="1" fill="#8c8375" transform="matrix(.75501 1.16707 -42.00634 27.17512 203 167.3)"/><path fill="#9ea1a6" d="M69.6 209.2l-34.8 1 38-19.6 11 8.1z"/><circle r="1" fill="#c5c7cb" transform="matrix(17.36577 17.4265 -4.72832 4.71185 96 199.6)"/><path fill="#454646" d="M124 136l-21.5 10.9-.4-.9 21.4-10.9z"/><path fill="#6c685e" d="M60 96l1 3-6-5z"/><circle cx="45" cy="83" r="4" fill="#788797"/><path fill="#374c6d" d="M45.3 45.9l-26.6 8.6-4-12.4 26.6-8.6z"/><path fill="#e0e0da" d="M45.8 94.8l5.2 11.6L94.3 89l-28.7 9.6z"/><path fill="#b8b49d" d="M-15 175l47-86 24 49z"/></g></g></svg>