<svg xmlns="http://www.w3.org/2000/svg" viewBox="0 0 1400 1120"><defs/><filter id="a"><feGaussianBlur stdDeviation="12"/></filter><rect width="100%" height="100%" fill="#293753"/><g filter="url(#a)"><g fill-opacity=".5" transform="translate(2.7 2.7) scale(5.46875)"><circle r="1" fill="#fffff8" transform="matrix(-224.92354 119.59397 -45.97563 -86.46758 101.6 99.7)"/><circle r="1" fill="#060b12" transform="matrix(35.48172 -17.38231 14.23692 29.06116 54.4 38.8)"/><circle r="1" fill="#f3ebcc" transform="rotate(145 75.3 56.9) scale(225.49887 28.47702)"/><path fill="#fffbce" d="M44 156.8L-4 167-44-20.8 4-31z"/><circle r="1" fill="#000705" transform="matrix(41.57408 -21.31633 2.8838 5.62438 80 83)"/><circle r="1" fill="#ddd4b4" transform="matrix(32.28833 -23.8921 72.29092 97.69558 145.7 37.7)"/><circle r="1" fill="#181b00" transform="matrix(18.32198 30.69993 -119.3721 71.2423 222.9 179.2)"/><path fill="#fffffa" d="M-45.2 46.6l-14-25.3 122.4-68 14 25.4z"/><path fill="#001537" d="M46.4 45.7l2.1 57.3-9-11.1-41.9-81z"/><circle r="1" fill="#d9d7cc" transform="rotate(154.2 6.9 107.4) scale(160.53496 17.63692)"/><path fill="#03183a" d="M73.7-6.5l-7.5 34.2L112.6 77l-2.7-14z"/><ellipse cx="44" cy="23" fill="#a58b5e" rx="19" ry="17"/><ellipse cx="201" cy="47" fill="#c1bdae" rx="93" ry="90"/><circle r="1" fill="#eaf2fa" transform="rotate(58.5 -9.8 166) scale(8.78904 161.61408)"/><circle r="1" fill="#838689" transform="matrix(34.1858 -1.3958 .75187 18.41472 152.5 117)"/><path fill="#cec6a3" d="M-11 163l34-91 37 48z"/><path fill="#ebe3c2" d="M5.4 29.5L4.7-16-16 91.9l67.8 24.8z"/><circle r="1" fill="#b2a883" transform="rotate(57.6 52.8 182.6) scale(11.29027 145.99622)"/><path fill="#efe5d1" d="M91.6 70.8l6.8-17.1-60.1 29.5 19 5.1z"/><circle r="1" fill="#707275" transform="matrix(-24.61372 20.65336 -4.63006 -5.5179 231.5 71.7)"/><circle cx="137" cy="2" r="52" fill="#d9cda7"/><path fill="#fbf0be" d="M52.4-10.8l-37.9-3.9L-16 49V32.7z"/><path fill="#707680" d="M101.1 134.3l-9.8-6.8 41.4-18.6-29.4 26.7z"/><path fill="#63645a" d="M17 198l23-29 35 3z"/><path fill="#b8bcbe" d="M109 170l-114-4 125-40z"/><circle r="1" fill="#111500" transform="matrix(-73.65685 50.52228 -6.00143 -8.74953 207 162.2)"/><circle r="1" fill="#c7ccd6" transform="rotate(138 85.3 74.1) scale(42.70326 18.10298)"/><path fill="#303f55" d="M99 50L74 3 33 83z"/><path fill="#99a1af" d="M59.5 54.8l30.1-17.7-1.5 9.8-28.5 13.3z"/><path fill="#091726" d="M106 66.2L74.6 80.1 43 105l66.5-32z"/><path fill="#1a2a44" d="M13.5 14.6l43.2 95-12.9-9.6L5.3 17.5z"/><path fill="#aba189" d="M181.1 141.9L271 90.8l-9 24.6L103 213z"/><path fill="#71777e" d="M130.4 106.7l44.4-24.3-13.3 11.3-20.4 15.2z"/><circle r="1" fill="#edf1ed" transform="matrix(-44.3879 14.15963 -1.73589 -5.4417 96.7 113.8)"/><circle r="1" fill="#263218" transform="rotate(176.3 113 100) scale(100.16175 24.66552)"/><path fill="#c1bca0" d="M39 138h-55L96 80z"/><path fill="#a2a5a7" d="M47 178L0 166l-16 44z"/><circle r="1" fill="#f0f6f7" transform="matrix(68.06241 -36.34194 2.2595 4.23168 56.2 131.9)"/><path fill="#c9ced0" d="M107.2 215.7l-117.5-11.3L3 201.1l87.5-16.6z"/><path fill="#8b8a82" d="M125.4 124.9l53-29.5-51.5 64.1-15.3.4z"/><path fill="#243a62" d="M34 10L3 19l16 32z"/><path fill="#152437" d="M108.9 62.6L94.4 34.8l-2.2-1.9 10.9 44.7z"/><path fill="#0c0e06" d="M241.3 139.6l-125.2 64.7-13 14.7h19z"/><path fill="#cc9c50" d="M38 27.8l.8-1.8 33.3 16.2-1 1.8z"/><circle r="1" fill="#c0b79b" transform="matrix(-7.95893 -12.47008 71.91874 -45.90156 183.2 22)"/><path fill="#5d5d5a" d="M80 172l2-9-24 13z"/><path fill="#babcc3" d="M290 81.7l-95.4 52.8-14.5-26.2 95.3-52.8z"/><path fill="#bec0c1" d="M164.9 92.6l-60.5 38.2 35-14.9L271 53.6z"/><path fill="#253249" d="M61.6 43.7l29.6-6.6-42.3 21.6L50.4 30z"/><path fill="#5b5c5d" d="M206 93.4l-1.9-3.5L268 54.6l1.9 3.5z"/><path fill="#bbbfc1" d="M72 129.1l-22.5 53.1 78.5-54.6L-16 179z"/><path fill="#bdb8a4" d="M156 182l1-23 6 24z"/><path fill="#e9ad50" d="M46 31h4v22h-4z"/><path fill="#253d65" d="M79 3.5L51.1 17.1 45 4.5 72.9-9.1z"/><path fill="#b5b8bb" d="M162.2 125.5l4 38.3 38.1-22.9 11.4-8.8z"/><path fill="#7e8082" d="M176.9 104.7l-24.3-.1 1.9 20.5 38.2-.4z"/><path fill="#b8b9bc" d="M215.9 39.5L253 18l13 22.5L229 62z"/><path fill="#1b2a3d" d="M44 101.7L7.5 26 48 93.2l29.4-14.1z"/><path fill="#eee9ce" d="M-8.4 25.1l9.9-4.8L16.4 51l-9.9 4.8z"/><path fill="#edf0ee" d="M144 76l-43 48-19-12z"/><path fill="#4f4f4f" d="M252.6 48.5l14.8 1.1-24.8 10.2 24.3-24.9z"/><path fill="#677487" d="M62.5 57.1L38.7 72l-3.2-5.1L59.3 52z"/><path fill="#f4f8f3" d="M256.7 10l6.7-4.7-19.8 7.4L150 73.1z"/><path fill="#d8dcde" d="M204.3 57.8l-52.2 9-68.6 66.5 36.9-19.9z"/><circle r="1" fill="#c4b895" transform="matrix(-155.6674 96.51787 -.80556 -1.29923 184.5 158.2)"/><path fill="#bbbcba" d="M145 128l23 33-56 26z"/><path fill="#3b3f3d" d="M28.5 180.7l19.6-10 1.4 2.6-19.6 10z"/><path fill="#373d41" d="M83 58.9l22.3-7.4-19.8-1.4-52.4 34.7z"/><path fill="#9d8868" d="M34 8h15v15H34z"/><path fill="#bebdbb" d="M265.2 98.6L254 64l-11.5 9.1-13.5-5.8z"/><path fill="#cccac0" d="M43 79l7 12 21-26z"/><path fill="#1b3050" d="M42 11.9l17 43.9-1 .3-16.8-43.9z"/><path fill="#022761" d="M45.8 10.2l1.2 5.9-8.8 1.7-1.2-5.9z"/><path fill="#60666d" d="M167.2 89.2l-12 8.8-2.4-3.2 12-8.8z"/><circle r="1" fill="#666b6d" transform="matrix(1.0064 1.70173 -8.7787 5.19171 103.6 128.3)"/><path fill="#182948" d="M93.7 41l-9.3-.2-8.6 5.4L57 27.7z"/><path fill="#bebba4" d="M76 114L28 97 6 150z"/><path fill="#a6a28b" d="M21.3 139.9l79.3-47-61.1 32.9-55.5 33.7z"/><path fill="#172947" d="M35 38h12v12H35z"/><path fill="#464746" d="M225 70l1-7h11z"/><path fill="#e1ddc2" d="M-7.2-16h45.4L-3.5 29.9l12.9 20z"/><path fill="#d6a354" d="M54.5 30.6l9.3-14.3 1.7 1.1-9.3 14.3z"/><path fill="#a6997e" d="M234 18.5l-4.9-7.6L256-6.5l4.9 7.6z"/><path fill="#8e8262" d="M97.3 205.4L75.2 219l51-25.8 38.6-25.7z"/><path fill="#dad2b6" d="M226.5-16L178 18.5l-21.9-8.1L191.5-16z"/><ellipse cx="37" cy="36" fill="#f1b65d" rx="6" ry="2"/><path fill="#bdbdbd" d="M271 74.6V50.9l-98 53.7 89.6-54.9z"/><circle cx="91" cy="62" r="7" fill="#dfd8cd"/><path fill="#bdc3c6" d="M49.8 234l-1 .1-18.6-88 1-.2z"/><circle r="1" fill="#aeafaf" transform="rotate(90.6 -24.7 120.6) scale(13.26623 26.42913)"/><path fill="#c9cccd" d="M228 39l-65 36 7 28z"/><path fill="#253756" d="M17.1-12.3L64.7 16l8.1 37.1 7-50.6z"/><path fill="#737372" d="M134.7 119.9l3.9 3.2-19.3 23-3.9-3.2z"/><path fill="#0e1f39" d="M105.6 72.1L95.3 55l5.1-3.1L110.7 69z"/><path fill="#d7d0b4" d="M116 45l20-58-67 2z"/><ellipse cx="242" cy="203" fill="#293622" rx="48" ry="49"/><path fill="#c79b56" d="M49.8 18l-2.7-8.6-1.4 15.2-11.6-2.1z"/><path fill="#a5aab0" d="M-9 198l29-30 47-11z"/><path fill="#f1b65f" d="M55.5 32.9L67 42.3l-.6.8L55 33.7z"/><path fill="#2e405c" d="M13.9 12.3l21.7 8.8-8.1 11.5-6.1 26.2z"/></g></g></svg>