<svg xmlns="http://www.w3.org/2000/svg" viewBox="0 0 1120 1400"><defs/><filter id="a"><feGaussianBlur stdDeviation="12"/></filter><rect width="100%" height="100%" fill="#033895"/><g filter="url(#a)"><g fill-opacity=".5" transform="translate(2.7 2.7) scale(5.46875)"><circle cx="139" cy="119" r="203" fill="#fff"/><circle cx="108" cy="129" r="169" fill="#fff"/><circle cx="120" cy="105" r="202" fill="#fff"/><ellipse cx="95" cy="102" fill="#0053b9" rx="43" ry="23"/><path fill="#00099b" d="M61.7 168.2l31.5-29.5-2.7-43.2-12.4 41.6z"/><path fill="#00059a" d="M103.9 110.9l24 47.2-9.8 5-24-47.2z"/><ellipse cx="107" cy="184" fill="#3d6dc6" rx="72" ry="8"/><path fill="#fff" d="M219-14l-17 285L98-7z"/><circle cx="97" cy="70" r="20" fill="#00b3d3"/><circle r="1" fill="#fff" transform="matrix(30.0926 -.36767 2.47096 202.24079 25.8 118)"/><ellipse cx="115" cy="226" fill="#fff" rx="190" ry="35"/><path fill="#fff" d="M99 108L58 74l47 20z"/><ellipse cx="89" cy="24" fill="#fff" rx="203" ry="29"/><path fill="#fff" d="M88 62h19v20H88z"/><path fill="#000c9b" d="M92 128l-18 33-9-6z"/><path fill="#0025a5" d="M50 99.6l49.9 29.5-46-16.8 21.5-25.2z"/><path fill="#0061ba" d="M137 115l5-19-37 28z"/><path fill="#fff" d="M103.9 88.6l-27 124.5L96.6 98.2l72.9-26.8z"/><path fill="#fff" d="M127.5 95.1l5.3 9.6-18.3 10.2-5.3-9.6z"/><path fill="#0018a3" d="M77.3 72.5l18.6 24.2-9.3-27.9.5-15z"/><path fill="#4372c6" d="M27 177h13v21H27z"/><path fill="#fff" d="M63.9 106.4l12.3 6.6 9.3-3.5-19.9-13.3z"/><ellipse cx="109" cy="169" fill="#fff" rx="151" ry="9"/><path fill="#fff" d="M218 37l-99 91 82 87z"/><path fill="#0059ba" d="M101.5 130.2l10.3 24.2 10.1 8-16.4-64.6z"/><path fill="#fff" d="M0 0h79v90H0z"/><circle r="1" fill="#fff" transform="rotate(92 -50.5 171.2) scale(35.49465 128.08914)"/><path fill="#000898" d="M68.9 93.5l4.4-5.5L91 102.5l-4.4 5.5z"/><path fill="#fff" d="M109.7 125.7l12.5 25.7 92.4 43.1-3.2-106.3z"/><circle r="1" fill="#fff" transform="matrix(41.09476 35.65124 -22.43734 25.86326 22 124.2)"/><path fill="#00aad0" d="M102 99l39-2-14-11z"/><path fill="#fff" d="M-16 50.3L202.2-16 65.3 69.1l40.2 34.7z"/><path fill="#4975c7" d="M92 179h76v12H92z"/><path fill="#00fff0" d="M95.7 49.4l2.7 7.3 21.8 28.9-4.4-25.8z"/><path fill="#fff" d="M117 0h87v89h-87z"/><path fill="#002ba9" d="M77.3 72.9l31 15.4-17.6 4.2-8.9-8.9z"/><path fill="#fff" d="M100.5 83.3L88.8 74l10.7-13.2 11.7 9.4z"/><path fill="#0038ac" d="M95.9 114.8L81.6 152l-7.5-2.9L88.4 112z"/><path fill="#fff" d="M99.5 120.4l-24 40.2-21.8 38.9 52.9-44.4zM160 271l-22.6-115 3.3 48.8L-16 249.4z"/><path fill="#0021a2" d="M55 110l22 12-22-28z"/><path fill="#fff" d="M97 110l10-15-25-7zm47-21.5l-32.6 22.9-17.6 1.1 15.6 2.6z"/><path fill="#0027a5" d="M113.6 137.1l15.3 21-6.5 4.8-15.3-21z"/><path fill="#fff" d="M100.3 127.6l30.6-3.9-35.3-.2-11 106.6z"/><path fill="#008dca" d="M132 87l-36.7 33.5 16.9-28.8 29.4 11.1z"/><path fill="#fff" d="M62.6 103l3.5-6 17.3 10-3.5 6z"/><path fill="#0056b8" d="M124 120l-19-3 37-14z"/><path fill="#4975c7" d="M30 177h58v3H30z"/><path fill="#527cca" d="M35.6 182l18.8-5.4-23.9 14.9 24.5.6z"/><path fill="#fff" d="M107.8 195.2l6.7-23.3-7 99.1L-16 200.5zM182 79l17-95-93 107z"/><path fill="#00d7d5" d="M77 68l16-17 13 4z"/><path fill="#004cb4" d="M69.9 86.9L89 111.1 73 98.3l-24-.1z"/><path fill="#fff" d="M219 42l-81 21 9 121z"/><path fill="#fff" d="M146.7 181l-46.3-35.7 26.9 38.5 25.2-147.1zM-16 226.1l56.2-60.6L71 193.9 32.3 9.8z"/><path fill="#fff" d="M127 108l-26 6 24-18z"/><circle r="1" fill="#87a4da" transform="matrix(4.30435 -3.19408 3.77218 5.08341 176.7 182)"/><path fill="#fff" d="M130.2 117.1l-5.3 80 7.3-25L219 72.6zM83 124l1-15-5-5zm71 56l13 91-30-39zM88.2-16L7.2 90.9l93.1-41.7 60 46.2z"/><path fill="#fff" d="M96.1 106.6l-52.2-79 10.5 59.3 57.5 6.1z"/><path fill="#00ffdf" d="M109 61h7v22h-7z"/><path fill="#0050b6" d="M85.2 147.3l-14 17.7-3.9-8.1 24-43.4z"/><path fill="#fff" d="M90.1 187.6l-21.7-25.4 31.7-12.1-23.5 35.8z"/><path fill="#003faf" d="M80.8 124.6l.1-10.3-27.4-5.7-3.5-8.8z"/><path fill="#fff" d="M80 130l-96-73 50 132z"/><path fill="#0052b9" d="M84.2 75.6l-8-4 7.6-15.2 8 4z"/><path fill="#fff" d="M124.8 173.2l-31.3 7.5.5-74.2 3.6 21.7z"/><circle cx="95" cy="72" r="9" fill="#fff"/><path fill="#fff" d="M191.6 193l-33.5-6 .3-2 33.5 6z"/><path fill="#275bbc" d="M36 178h4v19h-4z"/><path fill="#004cb4" d="M80.8 100.6l3.5-10.3 9.6 24.9-3.6 18.2z"/><path fill="#fff" d="M81 243l9-61 10 20z"/><circle r="1" fill="#0031ab" transform="matrix(1.81301 -3.3531 4.10873 2.22158 105.4 107.6)"/><path fill="#00b8d6" d="M134 89l7 12-15 13z"/><path fill="#000096" d="M88.6 171l1 .2-2.2 9.8-1-.2z"/><path fill="#1e55b9" d="M157 178h10v14h-10z"/><ellipse cx="57" cy="190" fill="#4e79c9" rx="14" ry="2"/><path fill="#0049b3" d="M104.9 140.7l-1.4-12.9 8.6.2 5.9 33.6z"/><path fill="#fcfdfe" d="M94.6 112.6l-7.7-24.8-21.1-9.1 42.3 38.3z"/><ellipse cx="106" cy="171" fill="#fff" rx="2" ry="16"/><path fill="#fff" d="M21.7-16l-10 215.9 28-6.3L-16 181z"/><path fill="#004eb5" d="M90.2 132.2l-1.7-5.9 39.8-11.9H98.7z"/><path fill="#0076c3" d="M111.3 77.9l.6 7.3-8.2 6.6-9.4-7.1z"/><path fill="#fff" d="M102 185l20 61-55 25z"/><path fill="#0040af" d="M54.6 96.1l35.2 3.7-11.4-8.1L61.5 90z"/><circle r="1" fill="#002da8" transform="matrix(.31707 6.68663 -1.66018 .07872 137.7 184.5)"/><path fill="#0d47b4" d="M68.2 177.5l.8-.6 14.8 17.6-.8.6z"/><circle r="1" fill="#0018a0" transform="matrix(-2.84355 7.3359 -.9324 -.36142 100 184.7)"/><path fill="#0042b2" d="M111 105V93l-8 9z"/><circle cx="97" cy="71" r="11" fill="#fff"/><path fill="#fff" d="M54.2 271l1.7-87 7 9.5 116.1-.2z"/><path fill="#00ffe7" d="M119.1 72L112 86.1l-2.1-31.6-21.6-.4z"/><path fill="#fff" d="M74 181.6l-28.8-33.3 6.8-5.9 28.8 33.3zm90.4-122.2l-74.7-8.5-40.4 50.7L49-16z"/><path fill="#00109e" d="M89 193l-3-13.7 1-.3 3 13.7z"/><path fill="#004cb5" d="M60 116l6.1-28.8-13.7 14.1 25.7 22.9z"/></g></g></svg>