<svg xmlns="http://www.w3.org/2000/svg" viewBox="0 0 1120 1400"><defs/><filter id="a"><feGaussianBlur stdDeviation="12"/></filter><rect width="100%" height="100%" fill="#432420"/><g filter="url(#a)"><g fill-opacity=".5" transform="translate(2.7 2.7) scale(5.46875)"><path fill="#fffff2" d="M-16 257l8-273 227 215z"/><circle r="1" fill="#300" transform="matrix(21.58996 31.29643 -42.65558 29.42611 117 158.5)"/><circle r="1" fill="#fff" transform="matrix(26.0839 18.19638 -16.27009 23.32263 186.6 172)"/><circle r="1" fill="#fff" transform="matrix(-130.1998 17.54311 -1.9201 -14.25036 56.4 217)"/><ellipse cx="28" cy="85" fill="#fffeed" rx="41" ry="36"/><ellipse cx="175" cy="47" fill="#000306" rx="116" ry="70"/><circle r="1" fill="#ffa088" transform="matrix(-28.87351 -27.72478 49.96731 -52.03764 54.8 149.3)"/><circle r="1" fill="#552516" transform="rotate(168.9 62 72.9) scale(25.12841 63.05412)"/><path fill="#1c0000" d="M93 167l68 21-118 18z"/><circle r="1" fill="#a1684e" transform="matrix(140.27097 -19.8161 1.1347 8.03219 117.8 232.8)"/><circle r="1" fill="#c1a590" transform="matrix(29.23807 42.4326 -7.63384 5.26008 38.3 27.5)"/><ellipse cx="13" cy="216" fill="#f4fbff" rx="97" ry="14"/><path fill="#dbd0c9" d="M152.5 140.4l67 11.8-6 33.4-67-11.8z"/><path fill="#470000" d="M2 89l16-22L8 54z"/><circle r="1" fill="#f4f5fc" transform="matrix(13.73418 -.82127 .45182 7.55585 84 234)"/><circle r="1" fill="#dddee5" transform="rotate(-26.8 378.9 -132.2) scale(24.82315 7.37376)"/><path fill="#110908" d="M80.5 98l8.1-8.8L219 60.9 59.9 63.5z"/><ellipse cx="193" cy="78" rx="43" ry="68"/><circle r="1" fill="#4a0b00" transform="matrix(-25.67661 24.4515 -3.90863 -4.10447 103.5 130.2)"/><path fill="#180000" d="M20 122l-16-3 4 29z"/><circle r="1" fill="#fff6ef" transform="matrix(-9.09403 -13.13155 37.77509 -26.1605 23.2 92.4)"/><circle r="1" fill="#ffe1cc" transform="matrix(5.03302 6.39582 -21.26089 16.73067 98.8 109.2)"/><path fill="#220a03" d="M52 260.8l-11.4 18.8-50.6-30.4 11.4-18.8z"/><path d="M123 156h43v8h-43z"/><path fill="#3d1914" d="M66.7 224.7l-14.6-1.4-4.6 36.8 14.4 3.7z"/><ellipse cx="102" cy="52" fill="#42434a" rx="32" ry="21"/><path fill="#2e0000" d="M39 114l3-12 14 34z"/><circle r="1" fill="#74422b" transform="matrix(122.49449 -40.02054 2.8409 8.69539 191.9 210.5)"/><circle r="1" fill="#fff" transform="matrix(17.95368 16.65365 -9.6821 10.4379 27.4 221.8)"/><circle r="1" fill="#000304" transform="matrix(38.09125 -20.25348 63.0367 118.55478 178.8 39.1)"/><path fill="#7a3422" d="M98.6 157.1l33.9-16.5 28.3-61.4-47.7 6.9z"/><circle r="1" fill="#74796e" transform="matrix(17.47773 -3.61946 7.93241 38.30418 18.3 20.6)"/><circle r="1" fill="#fec6b6" transform="matrix(-11.25235 -4.27728 14.0144 -36.86806 16.5 162.3)"/><circle r="1" transform="matrix(122.3858 -13.27483 1.22347 11.2797 157.9 255)"/><path fill="#000301" d="M127 130h23v31h-23z"/><circle r="1" fill="#fffce7" transform="matrix(-2.4975 9.94296 -4.47636 -1.12438 42.5 28.9)"/><path fill="#fff5e8" d="M62 157.7L46.4 139l31.6 5.2.5 12.6z"/><path fill="#702514" d="M79.4 139.9l-15.7 68.6 24.9-60.9 3.9-26.5z"/><path fill="#0f1d23" d="M48 0h41v45H48z"/><path fill="#e9f4ff" d="M147 211l-39-17 104-2z"/><path fill="#f6c9ba" d="M81 56L31 78l-47-37z"/><path fill="#b85740" d="M26.6 158.7l8.4-16 42.4 22.6-8.4 16z"/><path fill="#400f04" d="M72 170h82v24H72z"/><path fill="#410700" d="M4 118h11v25H4z"/><path fill="#d0c7cc" d="M122 153l-40 19 10-32z"/><path fill="#fff" d="M41 134.7l-11.7 2.9L-16 66.5l33.2 46.9z"/><path fill="#e3d9d3" d="M215 145l4 54-65-50z"/><path d="M60.4 13l-22.7 8-6.1-18 22.7-7.8z"/><path fill="#ffe7db" d="M81.1 121.6l19.3 6.5 1.4-30.4-14.4-4.6z"/><circle r="1" fill="#ffc19b" transform="rotate(74.8 -32.3 83) scale(25.99622 16.40116)"/><path fill="#fff" d="M28 57h11v62H28zM1 148l-17-47 20-9z"/><path fill="#a5462a" d="M98.7 96.9l59.1 9.5-53.3-23.9-29.9 13.8z"/><path fill="#b25043" d="M162 164l-18-3-9 24z"/><circle r="1" fill="#8c7c71" transform="matrix(1.70369 5.67868 -39.5687 11.87118 141.1 220.3)"/><path fill="#786e73" d="M98 140.8l22.4-5.2 3.6 15.6-22.4 5.2z"/><path fill="#260400" d="M13.9 58.6l-.8 21-5-.2.8-21z"/><path fill="#34291d" d="M219 192.7l-33 12.2-26 9.3 32.4-1.1z"/><path fill="#5e1910" d="M113 135l-31 9-19-10z"/><path fill="#000007" d="M129 183h27v10h-27z"/><path fill="#ffd1c6" d="M39.6 173.7l28 17.5-3.2 5-28-17.4z"/><circle r="1" fill="#fff" transform="matrix(-4.03936 1.58352 -3.89975 -9.94775 2.9 55.5)"/><path fill="#e5e9f6" d="M88.8 207.5l63.3-14.6 3.1 13.6L92 221.1z"/><path fill="#c06c58" d="M32.1 143.3L9.3 124l43.3 22-21.5 58.6z"/><path fill="#190d0c" d="M67 77l34.9-28.3L115 65 80 93.3z"/><path fill="#604442" d="M63 53l28 13 13-30z"/><path fill="#4d3633" d="M178.7 152.4l6.4-.2-96.4-25.4 36.7 13.5z"/><path fill="#cf725b" d="M47.5 110.1l1.5 25.1 27.9 7.3 14-7.6z"/><path fill="#190b05" d="M152.1 154.3l-72.4 24.3 53.3-28.1-10.6-21.1z"/><path fill="#cba18c" d="M54.5 28.6L3.9 89.8l46.2-71.1L31.2 23z"/><circle r="1" fill="#64220b" transform="matrix(-1.30323 -11.20751 37.4741 -4.35755 134.7 240.2)"/><path fill="#eef2ef" d="M150 148h11v7h-11z"/><path fill="#e6e1e2" d="M88.4 167l13.6-26.4-4.7.5-21.2 29.6z"/><path fill="#eea289" d="M39 155.6l-52.8 15.1-5.3-18.3 53-15.1z"/><path fill="#171c19" d="M185.6 138.2l-30.5 6-6.7-34.4 30.5-6z"/><path fill="#282f38" d="M69.7-13.7l71 78.7-16.4 14.7L53.3 1z"/><path fill="#200f0c" d="M74.4 3.8L45.6 44.1l9 4.9-1.6-3z"/><circle r="1" fill="#f0dacc" transform="matrix(3.89313 -.10853 .73963 26.53207 40.3 50.1)"/><circle r="1" fill="#a78379" transform="rotate(-63.3 188 115.9) scale(6.99629 29.39248)"/><path fill="#857e73" d="M21 64L5-16l34 60z"/><path fill="#ffcbae" d="M34 72.6l25.4-34.3 3.6 82.4-25.4-54.2z"/><path fill="#c5c2c9" d="M100 218l-2 19-54-19z"/><path fill="#120700" d="M-11.4 244.6l42.2 7.5 60.6.9L-16 271z"/><path fill="#0f0703" d="M126.6 149.4l2.6-5.4 34.2 16.6-2.6 5.4z"/><circle r="1" fill="#000101" transform="matrix(29.26027 2.92056 -5.6912 57.01844 162.8 3.3)"/><path fill="#ecedf1" d="M45.6 133.4l-18.4-2.8 7.5 10.2 6.2-23.6z"/><path fill="#3d161c" d="M28 120l9 2-6 4z"/><path fill="#8b7878" d="M157 193v-15l19 1z"/><circle r="1" fill="#603c3c" transform="rotate(177.3 41.7 99.9) scale(32.18829 3.7135)"/><path fill="#a0a2ae" d="M219 152.2L161.2 140l4.7 10.4 47.3 7z"/><ellipse cx="188" cy="229" fill="#84482f" rx="57" ry="7"/><path fill="#c66350" d="M24.7 188.1l11.5-11 16.9 28.3 10-12.7z"/><circle r="1" fill="#eb8b71" transform="matrix(-9.1131 16.99587 -2.86962 -1.53868 106.4 114.7)"/><path fill="#924332" d="M67.7 168l-1 27.1 18.2-14-10.3-22.6z"/><path fill="#fff8fb" d="M-5.2 111.3l20-34.6 10.4 6-20 34.6z"/><path fill="#461204" d="M133.3 100.5l-28 41.5-6.6-4.5 28-41.5z"/><path fill="#9d98a8" d="M54.6 235.9l-15.2 7.8L61 219.4l-18.1 9.1z"/><path fill="#fcffff" d="M25 204h18v35H25z"/><path fill="#a85f4d" d="M62.4 69.5l-2.6-3 23.8-20 2.6 3z"/><path fill="#f2ede9" d="M191 164h13v33h-13z"/></g></g></svg>