<svg xmlns="http://www.w3.org/2000/svg" viewBox="0 0 1400 1120"><defs/><filter id="a"><feGaussianBlur stdDeviation="12"/></filter><rect width="100%" height="100%" fill="#033895"/><g filter="url(#a)"><g fill-opacity=".5" transform="translate(2.7 2.7) scale(5.46875)"><circle cx="119" cy="64" r="204" fill="#fff"/><circle cx="185" cy="111" r="220" fill="#fff"/><circle cx="167" cy="82" r="213" fill="#fff"/><ellipse cx="119" cy="80" fill="#0055b9" rx="44" ry="22"/><path fill="#000093" d="M89.5 140l26.9-59.8-.3 30.1-11.2 20.5z"/><path fill="#000b9c" d="M120.3 95.4l9.9-4.8 21.5 44-9.9 4.8z"/><path fill="#1750ba" d="M107 154h83v14h-83z"/><ellipse cx="219" cy="60" fill="#fff" rx="57" ry="203"/><circle cx="122" cy="49" r="20" fill="#00b3d3"/><path fill="#fff" d="M-67.8 183.9L11-58.6 111.8-26 33 216.6z"/><ellipse cx="116" cy="188" fill="#fff" rx="224" ry="22"/><path fill="#fff" d="M123.8 96l7.7-25.6L27.1 61l49.3-48.5z"/><circle cx="122" cy="51" r="10" fill="#fff"/><path fill="#fff" d="M128.1 93.6l28.2-10.8L134 64.6l71.1-73z"/><circle r="1" fill="#fff" transform="rotate(134.6 85.4 73.8) scale(26.45479 165.45309)"/><path fill="#003bae" d="M89.3 65.5l64.5 67.6-17.7-.9L111 76.8z"/><path fill="#799ad9" d="M51 153h66v14H51z"/><circle r="1" fill="#fff" transform="rotate(30.1 -107.8 224.7) scale(12.36792 4.80406)"/><path fill="#001aa4" d="M114.5 64.8l-4.3-31.9-7.8 13.6 3.5 17.1z"/><path fill="#fff" d="M161 152l-24-46 134-92z"/><circle r="1" fill="#fff" transform="matrix(-52.30814 8.75174 -6.42755 -38.41676 41.8 118.3)"/><path fill="#000094" d="M79 73l25 26-20-7z"/><ellipse cx="114" cy="3" fill="#fff" rx="255" ry="28"/><path fill="#0866c1" d="M92.1 126.3l3.1 13 6.6-5.1 42.8-76.4z"/><path fill="#4270c4" d="M138 154h53v13h-53z"/><path fill="#005ab8" d="M118 99l38-6 11-16z"/><path fill="#fff" d="M128.7 67.4l31.9-16-43.1 35.4-1.3 26.9zM87 150l66 1-31-39zm91.1 69l-13.8-68.6-3.8 26.7-176.5-4.2z"/><circle r="1" fill="#fff" transform="rotate(59 -54 60.5) scale(86.19605 44.1732)"/><path fill="#0095cc" d="M139.8 67.6l-23.7 34.9 39.7-37.3 7 18.1z"/><path fill="#00109c" d="M86 67l19 2-28 11z"/><path fill="#fff" d="M121.8 82.8l-44.2-31 4.6-6.6 44.2 31z"/><path fill="#00ffed" d="M114.7 32.3l22.8 3.7 5.2 24.9L132.5 46z"/><circle cx="121" cy="49" r="11" fill="#fff"/><circle r="1" fill="#fff" transform="matrix(49.0172 -29.69313 88.66303 146.36427 245.3 113.8)"/><path fill="#fff" d="M171.4 162.2l-44.2-66.9 4.2 5.2 53.1 3.8z"/><path fill="#001ca4" d="M102 51l8 16 21-1z"/><path fill="#0031a9" d="M108.8 101.2l-3.3-31.5 12.7 26.8-21.9 39.3z"/><ellipse cx="102" cy="144" fill="#fff" rx="255" ry="8"/><path fill="#000092" d="M61.1 152.2l1-.2 2.8 19.8-1 .2z"/><circle cx="141" cy="84" r="6" fill="#fff"/><path fill="#fff" d="M118.2 169.2l149-3-157.6 37.9 4.9-57.8z"/><path fill="#0051b6" d="M138.2 130.8L127.9 116l-4.8-30.7 25 47.3z"/><path fill="#002da8" d="M113 106l-25 27 10 2z"/><path fill="#fff" d="M108.8 86.6l-3.8 6-17.8-11.2 3.8-6zM96.1 51.9L145-12.6-16 51.6l130.5 18.2zm49.5 90.9l-26.5-41-14.2 84.5-2.5-30.5z"/><circle r="1" fill="#fff" transform="rotate(53.9 -85.2 133.7) scale(15.76737 38.08587)"/><path fill="#fff" d="M110.9 121.7l8.7-23.2 40.9 13.4-28.6-12.3z"/><path fill="#00d0dc" d="M141 67l18-1 6 18z"/><path fill="#fff" d="M271 78.2L252.7-16 141 12.5l-.2 54.2z"/><path fill="#0030a9" d="M91 89h14v9H91z"/><path fill="#00139f" d="M62.5 171.4l-10.8 2.1-.2-1 10.8-2z"/><path fill="#00ffe5" d="M107.4 34.9l31.2 9.6 2 18.7-15.8-31.3z"/><path fill="#0070c2" d="M122.9 87.5l8.2-14.5 19.8-7.3-4.1 9.5z"/><ellipse cx="137" cy="95" fill="#003caf" rx="11" ry="5"/><path fill="#fff" d="M116 84l14 5-8 2zm36.8 69.6l-1.3 10.2-134.1 12.8 65 42.4z"/><ellipse cx="20" cy="172" fill="#fff" rx="32" ry="203"/><path fill="#fcffff" d="M129.2 92.8l21.4-5.2 3-13-8.7-.2z"/><circle r="1" fill="#003dae" transform="matrix(6.79233 -7.59685 3.29882 2.94947 84.4 75)"/><path fill="#fff" d="M119 95l4 62-17-14z"/><circle cx="200" cy="157" r="4" fill="#4673c7"/><path fill="#fff" d="M144 63l-24.4 22.9-12.4-16.2 6.2 3.3zm61.4 148.9L-16 200.4l189-29.6 2.8-12.6zM65.2 82.6l9.7 84.7 35.2-75.6-6.3 11.2z"/><path fill="#4f7ac8" d="M50.7 155.7l12-.5-7-4.7-2.5 17.5z"/><path fill="#0341b1" d="M135 154.6l-6.4 16.3-3.6-17-4.9 12.8z"/><path fill="#fff" d="M91.8 73.7l14.9 10-4.5 6.6-14.9-10z"/><path fill="#002ca8" d="M104.4 154l-12 14.7-.8-.6 12-14.8z"/><path fill="#00cbd7" d="M112.5 32.1l15.2.5 1 4.1-26.4 9.8z"/><path fill="#00e8dd" d="M135.5 43.4L142 46l-7.5 18.6L128 62z"/><path fill="#0037ab" d="M84 71l19-2 12 12z"/><path fill="#5c83cc" d="M78.8 157.5l-11.2-4.4 10-1.9 14.2 20.6z"/><circle r="1" fill="#3c6cc3" transform="rotate(138.4 19.3 99) scale(1 13.26419)"/><circle cx="91" cy="159" r="5" fill="#fff"/><path fill="#00008f" d="M190 158.9v1l-12 1.2v-1z"/><path fill="#003caf" d="M110 147h3v14h-3z"/><path fill="#fff" d="M129.6 161.3l-1-.1 5.8-32.5 1 .1z"/><path fill="#0090cd" d="M159.3 72.7l-15.9-3.9 20.9 18-23.8 13.7z"/><path fill="#fff" d="M158 139l-20-28 70-69z"/><path fill="#000899" d="M123 166l-5-1v-9z"/><path fill="#fff" d="M134.8 160.2l-10.6 24.6 27.1-21.1 6.9 28.2z"/><path fill="#004db5" d="M116.9 82.4l-5.8 38.5-22.2 17.5 16-29.2z"/><path fill="#0038ac" d="M125 102l9 23v-21z"/><path fill="#fff" d="M96 65.2L122.2-16-16 6.5l81.7 67.6z"/><path fill="#fff" d="M119.3 82l-.7 14.4 9.7-21.9L91 57.8z"/><circle cx="121" cy="49" r="10" fill="#fff"/><path fill="#004ab4" d="M84.4 92.9l20.2 6.7.4-6.5-30.5-15z"/><path fill="#fff" d="M134 68l60-11-39-34z"/><circle r="1" fill="#fff" transform="matrix(.0157 .99988 -29.65774 .4659 145.5 101.8)"/><path fill="#fff" d="M60.4 165.1v-11.3L-4.5 208l-6.6-82.6z"/><path fill="#0061bc" d="M107.3 61.1l20 9-27.1-20.2 17.4-19.8z"/><circle cx="145" cy="132" r="5" fill="#0029a6"/><path fill="#fff" d="M125.2 219l-48.3-58.3 68.7 42.2-21.6-45.5zM105 108l-1-.2 3-19.8 1 .2z"/><path fill="#0074c2" d="M131.2 67.7l-23.7-3.3 7.5 1.3 23-12.4z"/><path fill="#00149e" d="M135.7 154l-5.5 12.8-1.9-.7 5.5-13z"/><path fill="#fff" d="M160.6 153.6L271 122.8 149.1 115l20 54z"/></g></g></svg>