<svg xmlns="http://www.w3.org/2000/svg" viewBox="0 0 1400 1120"><defs/><filter id="a"><feGaussianBlur stdDeviation="12"/></filter><rect width="100%" height="100%" fill="#6b5941"/><g filter="url(#a)"><g fill-opacity=".5" transform="translate(2.7 2.7) scale(5.46875)"><circle r="1" fill="#ffe5aa" transform="matrix(58.94392 -79.65813 204.7256 151.48898 244.8 79.7)"/><circle r="1" transform="matrix(80.73598 -51.4345 19.78575 31.0574 95.3 169.6)"/><circle r="1" fill="#ea7326" transform="rotate(89.8 16 62.1) scale(91.10394 69.06904)"/><circle r="1" fill="#f9c98d" transform="rotate(-30.1 228 -115) scale(73.87409 22.12218)"/><circle r="1" fill="#d8efd2" transform="matrix(.62015 44.41201 -25.293 .35318 197.6 139.2)"/><ellipse cx="213" cy="23" fill="#ebddd0" rx="60" ry="33"/><circle r="1" fill="#911d00" transform="matrix(101.70976 -39.03519 10.26157 26.73747 17.7 77.1)"/><ellipse cx="155" cy="188" fill="#131608" rx="23" ry="105"/><circle r="1" transform="rotate(-30.7 339.8 -75.4) scale(52.31216 30.54959)"/><circle r="1" fill="#ecffe7" transform="matrix(-17.765 -13.25924 21.3442 -28.5974 253.4 122.3)"/><ellipse cx="7" cy="115" fill="#8c2c07" rx="36" ry="95"/><path fill="#500000" d="M246 174l-21-16 23 61z"/><path fill="#f6be83" d="M47 98h136v12H47z"/><path fill="#ff986e" d="M207.4 170.6l20.4-4.7 12.8 55.5-20.4 4.7z"/><circle r="1" fill="#832e00" transform="matrix(-24.2274 -4.66906 1.5706 -8.14977 138.8 52.4)"/><path fill="#424b2d" d="M195 83h31v18h-31z"/><circle r="1" fill="#d06e37" transform="matrix(26.22527 -15.0802 10.78727 18.75964 31.3 139.2)"/><path d="M175 86l-42 8 23 6z"/><path fill="#050000" d="M13.3 112l25-7.6-47.7 39.8 2.2-68z"/><circle r="1" fill="#f0d8a0" transform="rotate(169.6 84 45) scale(31.31511 12.75759)"/><path fill="#000d0c" d="M48 189h136v15H48z"/><circle r="1" fill="#cb6d19" transform="matrix(.09312 -18.80345 57.53778 .28494 94.5 40.7)"/><path fill="#c5ceab" d="M168.2 34.5l39.1 109.6-20.3 67.7-12.6-76.4z"/><path d="M45.8 219l-1.1-54.1 90.9-48.7 41.7-10.6z"/><path fill="#ffebc0" d="M268 143l-11 76-14-49z"/><path fill="#160000" d="M206 173l-20 46 26-29z"/><circle r="1" fill="#463e27" transform="matrix(9.50538 21.65386 -2.46303 1.0812 226.1 106.8)"/><path fill="#8c9973" d="M93.1.4L-16 45l76.7-14.9 13.8-4.7z"/><path fill="#ccb67f" d="M187.1 68.3l-121-81.7 16.8-24.9 121 81.7z"/><path fill="#cff8ff" d="M61.7 129.6l-17.8-19 4.4-4.2 17.8 19z"/><path fill="#a35026" d="M74.2 117.4L-16 195l78.6-53.2 106.1-35.7z"/><path fill="#8b752c" d="M126.7 61.1l4.3 18.8 15.9-4.4 7.1-1.8z"/><circle r="1" fill="#bf661f" transform="rotate(72.7 22.7 30.8) scale(16.72844 60.23176)"/><path fill="#ad663c" d="M244.9 167.7l-57.4 17.6 43.3-31 25.7-2.7z"/><path fill="#270300" d="M145.1 98.4l-9.9-.7L174.7 82l-3.6 14.3z"/><path fill="#ffd8bd" d="M213 189.2v-10l22-.4v10z"/><path fill="#dbe5c9" d="M226 94l29 65 16-66z"/><circle r="1" fill="#e8b37b" transform="matrix(26.57648 -2.3574 1.95011 21.98482 102 89.2)"/><circle r="1" fill="#510400" transform="rotate(69.5 -17.3 269.5) scale(29.15244 2.99023)"/><circle r="1" fill="#3a3f2b" transform="matrix(18.5238 10.97803 -18.4158 31.07394 152 167.8)"/><circle cx="238" cy="162" r="5" fill="#ffedbe"/><path fill="#710c00" d="M203 191h40v6h-40z"/><ellipse cx="219" cy="93" fill="#363621" rx="38" ry="2"/><path fill="#3b2b09" d="M136 58l16-8 19 9z"/><path fill="#d0d6b6" d="M186 111h41v51h-41z"/><circle r="1" fill="#9c2f0c" transform="matrix(28.25215 -3.41713 .85079 7.03413 95 57.8)"/><path fill="#de7a1b" d="M139 32L85 49l1-44z"/><path fill="#801600" d="M246.3 167.1l-5.7-15.6 11.5 5.2-22.3 25.1z"/><path fill="#f2855c" d="M200 216l5-20 47 7z"/><path fill="#dda06a" d="M184 94l-60 23-21-15z"/><path fill="#ffd7a1" d="M120 78h34v10h-34z"/><ellipse cx="244" cy="67" fill="#b6ad9d" rx="25" ry="21"/><path fill="#be9658" d="M138.6 39.9l24 18.9-5.2-74.8h-41.6z"/><path fill="#cb6d33" d="M130.6 85.5l1.6 11.9 49.1-17.8-47.5 7.7z"/><path fill="#fff" d="M224 94h32v2h-32z"/><circle r="1" fill="#eedaae" transform="rotate(176.1 81.8 12.7) scale(4.22662 40.52675)"/><path fill="#863918" d="M88.4 135l59.7-25.6-29.7 3.8 1.9 17.6z"/><circle r="1" fill="#797446" transform="matrix(3.31184 -1.51628 8.33482 18.20483 213 71)"/><path fill="#edc791" d="M134.9 114.2l-27.5-45.9H90.6l36.7-9.7z"/><path fill="#69280f" d="M.2 118.6l37-40.2L11 55.9-1 3.6z"/><circle r="1" transform="rotate(-49.2 213.4 1) scale(36.7988 19.69394)"/><path fill="#d28c4f" d="M29 114h18v32H29z"/><path fill="#953a17" d="M-16 156l28 37 46-46z"/><path fill="#b34721" d="M232.5 199.9l-1.8 1-13.2-24.8 1.8-1z"/><path fill="#422618" d="M-5 228.4L-16.8 216 33 169.6 44.7 182z"/><path fill="#bfb798" d="M171 27h34v62h-34z"/><path fill="#493012" d="M235.6 125.4l-5 1-2.2-11.8 5-1z"/><path fill="#4c2510" d="M228 171l15 7-17-28z"/><path fill="#3d2f1f" d="M206 177l-54 42 64-25z"/><path d="M141.6 112.5l21.7-1.1-3.3 16.5-107.9 43.8z"/><path fill="#999d79" d="M226.8 78.1l-10 53.3-7.3-39.5 20.2 9.2z"/><ellipse cx="98" fill="#e9d59d" rx="12" ry="9"/><path fill="#c0c3a4" d="M232.9 151.1l-60.7-6.7.6-46.6 9.8 94.5z"/><path fill="#7e230a" d="M234.6 171.4l15.2 27.5-21.8 11.8 18.6-45z"/><path fill="#f9c782" d="M151.7 58.8l22 8.3 3.9 11.6-26.3 8.4z"/><circle r="1" fill="#dbd2c3" transform="matrix(-.84512 -9.1162 43.76604 -4.05734 205 0)"/><path fill="#550d09" d="M148 .3l7.8-6.1L160-.3l-7.9 6.1z"/><path fill="#8b855f" d="M200 76h56v7h-56z"/><path fill="#2c1d06" d="M261 89l-54 1v-1l54-1z"/><path fill="#e19368" d="M207.4 219l29.1-36.5-.3 36.5-38.6-10.1z"/><path fill="#f4e8c7" d="M237.1 129.1l33.9 23.4-44.4-3.9 13.6 10.7z"/><path fill="#6b603d" d="M46 219l-22-24 7-13z"/><path fill="#8e2e0f" d="M4 112l83-61-23 38z"/><path fill="#e3a768" d="M77.3 125l-15.6-.1-7.9-27.1 45.8-33.6z"/><ellipse cx="241" cy="63" fill="#5c381c" rx="19" ry="1"/><path fill="#666b4d" d="M155 185h44v3h-44z"/><path fill="#000606" d="M-16 116.9l34.7-.7-30.2 28.3-4.5-12.4z"/><path fill="#ffcba2" d="M251 214l-4-51 20-7z"/><path fill="#160000" d="M152.9 98.7l-18-2.9 8.6-5.5h29.2z"/><path fill="#c2bf93" d="M165 95h50v11h-50z"/><path fill="#b29a4a" d="M114.1 69.9l44.8 2.7-23.3-13.3-17.4 10.9z"/><path fill="#eec59c" d="M225.8 190.5L215.3 149l-3.9 2.6 26.5 34.3z"/><path fill="#5b4d26" d="M232 97h24v1h-24z"/><path fill="#682504" d="M214 165l-2 5 7 5z"/><path fill="#030a0d" d="M11 201h125v3H11z"/><path fill="#704e34" d="M221 51.2l-36 .6v-1l36-.6z"/><path fill="#343525" d="M153.2 190.3l28.4-22-19.9-29.4-72.6 51.6z"/><path fill="#bc6620" d="M22 46.8l17.8 11.6 15 1-2.6-29.8z"/><path fill="#5d4333" d="M46 114l-16-7 15-4z"/><path fill="#966f61" d="M165 28h25v4h-25z"/></g></g></svg>