<svg xmlns="http://www.w3.org/2000/svg" viewBox="0 0 1278 1022"><defs/><filter id="a"><feGaussianBlur stdDeviation="12"/></filter><rect width="100%" height="100%" fill="#52362e"/><g filter="url(#a)"><g fill-opacity=".5" transform="translate(2.5 2.5) scale(4.99219)"><circle cx="92" cy="99" r="198" fill="#fff"/><circle r="1" transform="matrix(-14.06418 38.47309 -88.14817 -32.22335 138.7 152)"/><circle r="1" fill="#fff" transform="rotate(79.8 30 72.6) scale(69.18098 162.05019)"/><circle r="1" fill="#000900" transform="matrix(1.32404 42.13163 -16.64608 .52312 212.2 99.6)"/><circle r="1" fill="#fff" transform="rotate(90.4 64.3 185.9) scale(183.54723 23.94725)"/><ellipse cx="19" cy="75" fill="ivory" rx="31" ry="159"/><path fill="#040600" d="M234 53L58 135l50 30z"/><path fill="#3f0000" d="M102.4 165.9l2.1 31-46.9 3.2-2.1-31z"/><circle r="1" fill="#dda187" transform="rotate(-73 187.7 -49.5) scale(16.89366 47.54292)"/><ellipse cx="169" cy="186" rx="43" ry="16"/><path fill="#01213a" d="M158.7 7.1l14 30-25.4 11.8-14-30z"/><circle cx="86" cy="45" r="59" fill="#feffff"/><path d="M28 104h95v21H28z"/><ellipse cx="128" cy="137" fill="#fffff5" rx="3" ry="60"/><path fill="#fff" d="M106 174h23v30h-23z"/><circle r="1" fill="#f49f85" transform="matrix(-22.20666 27.05866 -18.97324 -15.57107 51.6 172.4)"/><path fill="#1c7fad" d="M77.2 23.8L57.9 41.2l5.9 26.4 26.4-19.8z"/><path fill="#fff" d="M26 79h131v25H26z"/><path fill="#ffefdc" d="M26 159l21-46 19 42z"/><path fill="#092f0d" d="M155 93l72 8V53z"/><path d="M129 170h77v31h-77zm-30-65h27v68H99z"/><path fill="#322519" d="M151 113l17 23 36-16z"/><path fill="#fff" d="M200.7 102.4l-57-.2 13.1-5.9 34.4 25.1z"/><ellipse cx="249" cy="101" fill="#eff8d4" rx="22" ry="203"/><path fill="#e0ffe8" d="M225 209l15-23-63 17z"/><path d="M132.1 142.2l-3.3-17.9 29.7 39.1-9.9 20.6z"/><path fill="#180000" d="M94 196l-38 4 47-33z"/><ellipse cx="32" cy="167" rx="4" ry="7"/><path fill="#ffceb7" d="M56.9 121.5l7 44.5 30.9-18.2-65.2 5.7z"/><circle r="1" fill="#fff" transform="rotate(175.8 53.5 15.8) scale(17.87506 72.94621)"/><path fill="#240f08" d="M228.5 187.2l-59.7 8.1 58.4-57.2-31.9-21z"/><path fill="#5488ab" d="M48 72h59v6H48z"/><path fill="#cbb6af" d="M157.8 136.1l.4 45.9 10.2-21-40.3-38.9z"/><ellipse cx="6" cy="167" fill="#e8f0d4" rx="22" ry="171"/><path fill="#004c84" d="M79 63.7l-2.7-19.3 11.2 25.9-1.5-2.4z"/><path fill="#fff" d="M27 202h203v2H27z"/><path fill="#957c6d" d="M28.8 147.2l14.6-17.9 2.8-14.5-14.3-7.9z"/><path fill="#72200b" d="M95.1 141.5l-23.8 26.6-8.6 7.8 47.1-11.5z"/><ellipse cx="225" cy="103" fill="#f1f5da" rx="68" ry="2"/><circle r="1" fill="#ecd1ca" transform="matrix(-3.6913 -9.27584 3.52647 -1.40335 135 158.7)"/><path fill="#deb9a9" d="M183 157l-5-35 30 22z"/><path fill="#e1e1c7" d="M254.3-8.5L138.4-16l65.4 82.6 57.3-28.9z"/><ellipse cx="148" cy="113" fill="#0f0f0b" rx="20" ry="10"/><path fill="#1e1013" d="M64 146l46-4-61-40z"/><path fill="#c9ccb9" d="M126.9 42.3l8 69.2 16.3-67.8 19.5-10.8z"/><path fill="#fff" d="M25 4h96v22H25z"/><path fill="#394b31" d="M205.8 73.6l-67 20 37.5.4 4.9 23.4z"/><path fill="#fff" d="M48.4 91l20.5-38-44.6-20 4.5 63.9z"/><path fill="#2e4159" d="M137.4 18.5l22.7-7.9 6.5 19-22.7 7.8z"/><path fill="#6d622f" d="M129 95l28-4-27 13z"/><path fill="#191816" d="M129 164h25v38h-25z"/><path fill="#d3dde7" d="M74 170l-10 15 20-7z"/><ellipse cx="224" cy="183" rx="4" ry="10"/><path fill="#fdedde" d="M126 180v14l-27-20z"/><path fill="#faffff" d="M82 198h37v6H82z"/><path fill="#bdaea3" d="M141.7 173.2l-36.6 25-.3-11.8 31.3-16.6z"/><path fill="#fffffe" d="M127 101h2v86h-2z"/><circle r="1" fill="#fbfefd" transform="matrix(75.95663 -36.41948 1.5513 3.2354 151.5 57.8)"/><path fill="#000001" d="M44 105h82v8H44z"/><circle cx="59" cy="175" r="5" fill="#fff"/><path fill="#fbfcf3" d="M199.2 102.5l-1.4 14.1-24.2-14.3 36.7 1.2z"/><ellipse cx="69" cy="44" fill="#035084" rx="2" ry="19"/><path fill="#fff" d="M29 28l-5-44 50 57z"/><path fill="#c7aeaf" d="M217 179l-1 16-6-18z"/><circle r="1" fill="#ffe9db" transform="rotate(-141.6 65.7 66.3) scale(5.45263 6.13197)"/><path fill="#46190b" d="M121.4 195.2l-61.5-9 22.5-26.5-25.5 37.7z"/><path fill="#b79788" d="M182.1 113.5l-37.2 28 15.2-31.1-16.3 51.7z"/><path fill="#35c2e4" d="M61.8 22.8l17 3.1L90.7 50l.2-9.4z"/><path fill="#eff2d3" d="M253.8 1.8L116.6-14.5l11.5 36.2 40.6-16.8z"/><path fill="#ce7e65" d="M46.4 153.2l-13.5 61.7 30-53.3 7.6-12.1z"/><path fill="#fff" d="M30 78h98v25H30z"/><path fill="#342216" d="M193 134.4l1.2-12.3-58-9.2 41.8 10.5z"/><path fill="#100906" d="M146.3 208.1l14.8-62.1-22.4 23.7 14.2 9.6z"/><path fill="#2f412b" d="M148.2 92.6l76.5-36.2-2.2 43.5-37.8 2.7z"/><path fill="#895f4c" d="M226.1 145.1l-34.6 23.4-16.7-27.1-21 36.7z"/><path d="M125.1 113l.9 61.7-15.6-4.2-20.7-58.2z"/><path fill="#a1a8ac" d="M119.8 85.1L186 45.6 141.5 4.5 198 57z"/><ellipse cx="31" cy="137" fill="#510c00" rx="3" ry="5"/><path fill="#feffff" d="M79.6-14.8L21.5 86.6l49.8-64.4L74 66.7z"/><path fill="#dbcab9" d="M225 122.6l-13.3 5.8 37.6 16.3-25.5 1.4z"/><path fill="#ffffef" d="M129 102h38v2h-38z"/><path fill="#fdffff" d="M167 111l13 6-4-15z"/><path fill="#fff" d="M82.7 71.1l26.7 2.7 14.9 26.9L127.8-16z"/><path fill="#115687" d="M52 43l31 6-15 2z"/><path fill="#584a3b" d="M200 104h28v27h-28z"/><path fill="#cab4af" d="M143 134h24v13h-24z"/><ellipse cx="6" cy="34" fill="#e2e3cf" rx="21" ry="203"/><path d="M132.1 132.7l16.4 26.3-18.3 42 18.9-2.8z"/><path fill="#006697" d="M66.4 37.3L85.7 42l-9 3.6 3.7-10z"/><path fill="#d3b9aa" d="M188.5 104.9l19.6 55.9 26.1-.3-32.5-7.6z"/><path fill="#4c3e37" d="M129.1 134.7l.1-32.6 13.9 37.3-7.7-1.6z"/><path fill="#e9d8c9" d="M45.2 151l-15.5-33.7-45.7 25.2L66.5 129z"/><path fill="#5d4434" d="M132.2 177.6l19.2 6.6 31.7-27.7 44.2 8.3z"/><path fill="#81331d" d="M69 147.5l-15.6 1.8 55.4-8.5-13.4 15z"/><path fill="#233e66" d="M151.2 31.5l-11.7-12.1 8.5 28.8 1.3-1.2z"/><path fill="#fff" d="M91.4 22L22.3 3.4l108 2.6-55.7 38.2z"/><path fill="#c9ada2" d="M187 142h5v28h-5z"/><path fill="#feffff" d="M84.5 67L72.4 55.8l-9.7 18.1 68-3.4z"/><path fill="#fff" d="M156 36l10-4-5 6z"/></g></g></svg>