<svg xmlns="http://www.w3.org/2000/svg" viewBox="0 0 1120 1400"><defs/><filter id="a"><feGaussianBlur stdDeviation="12"/></filter><rect width="100%" height="100%" fill="#584231"/><g filter="url(#a)"><g fill-opacity=".5" transform="translate(2.7 2.7) scale(5.46875)"><circle r="1" fill="#fff" transform="matrix(-57.80915 48.18238 -67.22506 -80.65653 72.8 53.8)"/><circle r="1" fill="#fffce2" transform="matrix(31.3198 18.67035 -38.88853 65.23611 100.9 61.8)"/><circle r="1" transform="rotate(-114.1 162.2 58) scale(69.77563 41.45605)"/><ellipse cx="33" cy="73" fill="#662e07" rx="20" ry="58"/><circle r="1" transform="matrix(30.8221 -12.48056 31.78322 78.49213 196 90.6)"/><circle r="1" fill="#d72d15" transform="rotate(163.9 39.3 88) scale(27.30384 49.84395)"/><circle r="1" fill="#fcdcb7" transform="matrix(11.94732 -.49589 6.2225 149.91707 0 88.7)"/><circle r="1" transform="matrix(4.4231 59.73623 -40.87133 3.02627 56.2 236.6)"/><ellipse cx="133" cy="105" fill="#fff" rx="24" ry="36"/><circle cx="119" cy="247" r="15" fill="#ffe471"/><circle cx="178" cy="227" r="47"/><circle r="1" fill="#fff" transform="matrix(29.89973 -28.02263 11.64298 12.42288 80.7 99.1)"/><path fill="#4a0900" d="M132 73l-10 11-5-27z"/><circle r="1" fill="#9a5c3b" transform="rotate(153.5 29.6 37.8) scale(23.76026 8.6406)"/><path fill="#97230b" d="M67 141l27-31 48 43z"/><circle r="1" transform="matrix(18.37911 40.39629 -25.66192 11.67541 184 74)"/><circle r="1" transform="matrix(-23.30742 22.27988 -21.32094 -22.30425 50.8 238)"/><circle r="1" fill="#ebc4a1" transform="rotate(-141.2 44.2 -1) scale(19.72844 39.53127)"/><circle r="1" fill="#de5548" transform="matrix(27.04348 -13.50393 8.96678 17.95721 109.1 158.3)"/><ellipse cx="28" cy="75" fill="#886a50" rx="21" ry="102"/><path fill="#fdead9" d="M92 23l75-39L90 94z"/><circle r="1" fill="#fff4e5" transform="rotate(-139.1 78.2 33.2) scale(40.64636 15.60651)"/><circle r="1" fill="#3d1a68" transform="rotate(-8.3 1584 -576.3) scale(22.90738 19.58397)"/><path fill="#9c9c97" d="M172.7 145.7l46.3 38-20.7-2.6-6.7 6.8z"/><ellipse cx="28" cy="85" fill="#483926" rx="12" ry="28"/><path fill="#fff0dc" d="M103.6 112.8L164 91.4 140.8 55l23.7-12z"/><path fill="#070a07" d="M219 172L157.2 11.9l-12.3 2.9 20.7 83z"/><ellipse cx="163" cy="201" fill="#000203" rx="27" ry="50"/><circle r="1" fill="#ab947d" transform="matrix(-22.63693 -18.4013 33.05567 -40.66445 47.1 0)"/><circle r="1" fill="#e8dfce" transform="rotate(-88.8 29.9 27.4) scale(77.13742 5.14175)"/><path fill="#725844" d="M33 208l-1-91 52 33z"/><path fill="#fdf1da" d="M59.1 21.1l21.8 3L77 53l-21.8-3z"/><circle r="1" fill="#fd9e54" transform="rotate(-136.3 109.3 99.2) scale(11.97496 16.75264)"/><path fill="#bf9679" d="M76 24l50-35-45 57z"/><circle r="1" fill="#000002" transform="matrix(9.83102 2.64877 -13.77279 51.1182 64.5 222)"/><path fill="#7c3a17" d="M94 85h3v16h-3z"/><circle r="1" fill="#fffff5" transform="matrix(-8.39205 8.53863 -16.27404 -15.99468 68.3 95.9)"/><path fill="#43230f" d="M70 68.1l-1.7-2.4L88 51.9l1.7 2.4z"/><path fill="#927656" d="M12.8 247.9l-15 .2-.6-36 15-.2z"/><path fill="#a3714f" d="M111.2 63.8l10.3-9.5 2.6 29.7 19-14.1z"/><path fill="#c8653f" d="M94.7 98.9l32 71-.7 4.5-15.7 27.2z"/><ellipse cx="170" fill="#7f5735" rx="14" ry="25"/><circle r="1" fill="#000001" transform="matrix(8.33651 -57.25701 25.62138 3.73042 159 250.6)"/><path fill="#ca5c2e" d="M50.6 86.2l-19.5 62.1 14.4-79.9 14.1-18.7z"/><ellipse cx="14" cy="137" fill="#8d6e50" rx="6" ry="52"/><path fill="#470000" d="M101 136l-16-11-12 15z"/><path fill="#010504" d="M160 225l-38-45 14-11z"/><path fill="#373223" d="M12 170h50v42H12z"/><path fill="#0e100c" d="M219 155l-65-50 65-64z"/><path fill="#381f57" d="M106.3 260.8l-19.8 2.8-8.8-62.4 19.8-2.8z"/><circle r="1" fill="#050704" transform="matrix(4.10374 7.04234 -24.24026 14.12537 175.2 58.8)"/><path fill="#766851" d="M219 25.4l-26.9.8 3 20.1 6.6 3.4z"/><ellipse cx="111" cy="93" fill="#fffbf1" rx="12" ry="29"/><circle r="1" fill="#221506" transform="matrix(8.22205 2.04097 -6.71906 27.06768 191.6 7.5)"/><path fill="#f4deca" d="M146.5 70.2l8.4-17.3-2.4-8-65-24.5z"/><path fill="#4f0c00" d="M53 55l7 7-7 12z"/><path fill="#331906" d="M127.1 70.6l-4 6.3-9.7-15.2 12.4 8.5z"/><circle r="1" fill="#efdfcf" transform="matrix(-23.5624 9.51983 -7.4141 -18.35055 137.6 93.5)"/><path fill="#ead0bb" d="M85 116l-36 11 23 10z"/><circle r="1" fill="#7c2513" transform="matrix(10.57389 22.4669 -3.85702 1.81528 120.6 146.4)"/><circle r="1" fill="#796551" transform="matrix(17.35048 28.39933 -4.48598 2.7407 172.5 134.4)"/><path fill="#3a184b" d="M119.8 238.8l-8.1-6.3 12-32 10.2 18.3z"/><path fill="#d5b99d" d="M-1.2 118.4l5-.5 7.4 85.7-5 .5z"/><path fill="#52493c" d="M189 220h7v30h-7z"/><path fill="#c3a18a" d="M115.1 75l32.7-91h18.1l-24.6 43.7z"/><path fill="#bc2b2c" d="M118 174l-61-39 45 2z"/><path fill="#ee7841" d="M34.7 120.4l2.2-3.2 1.5-18.8 13.9 34.5z"/><path fill="#725a45" d="M18 116l69 66-11-40z"/><path d="M216 149l-28 11 31 10z"/><path fill="#b28466" d="M88.8 43.3L70.1 85.4 70 72l17.2-43.4z"/><circle r="1" fill="#000001" transform="rotate(18.4 -692.8 272.6) scale(31.17862 16.75405)"/><path fill="#fffff5" d="M75.9 123.2L57.1 90.4l44.6-27.7-21.5-2.3z"/><path fill="#e6c9b2" d="M82.2 49L50.7 80.4l-1 36.6 31.2-76.9z"/><circle r="1" fill="#f8f5e9" transform="matrix(-7.80946 10.61798 -13.12721 -9.655 103.5 37.6)"/><path fill="#362e1e" d="M174 154l-20-35-3 86z"/><path fill="#2b2118" d="M169 76l-21-42 13-17z"/><path fill="#696052" d="M174 143h29v12h-29z"/><circle r="1" fill="#4c0400" transform="rotate(-177.1 25 49.2) scale(1.4682 13.69725)"/><path fill="#e99558" d="M120.6 180.3l-27 1.4-.2-6 27-1.4z"/><circle r="1" fill="#f6ece6" transform="matrix(5.40425 8.91642 -12.71678 7.70766 136.8 129.7)"/><path fill="#a7623c" d="M111 214l6-37-21 30z"/><path fill="#502d18" d="M85 59l4-1.7 4.7.6-10.4-11.6z"/><path fill="#48311e" d="M47.3 69.3l-26.9 6.6 1.1-6.1 20.9 18z"/><circle r="1" fill="#a6907d" transform="matrix(-38.76628 22.13006 -11.72902 -20.5463 52.7 0)"/><path fill="#cea284" d="M114.6 78.6l7.9-1.8 20.7 19.4-5.8-.8z"/><path fill="#fdfffa" d="M126 109l8-22-58 15z"/><path fill="#887561" d="M38 72l18-56-45 37z"/><path d="M153 7l-2 18-5-5z"/><path fill="#8e7357" d="M-16 173.6l27.8 86.1 3.2-21.1-18-58.7z"/><circle r="1" fill="#a2876e" transform="matrix(-4.13007 -35.56321 3.74735 -.4352 13 119.8)"/><path fill="#e83a42" d="M123 140h11v14h-11z"/><path fill="#55442f" d="M155 123.3l14.5 8.8-30.4 50.6-14.6-8.8z"/><path fill="#b0815f" d="M106.4 18.9L99.3 10l-19 31.4 9.5-21.5z"/><path fill="#030708" d="M176 190.2l31.9-9.3-8 38.4-13.8 8.5z"/><path fill="#999592" d="M190 167h12v16h-12z"/><path fill="#e3cab8" d="M144 95l-32 27 8 15z"/><path fill="#f3f7f0" d="M6.8-16L5.3 25.1l-13 29.5-2.6-70.6z"/><ellipse cx="64" cy="53" fill="#d8c0a8" rx="16" ry="6"/><circle r="1" fill="#0a0a08" transform="rotate(-156.8 91.8 12.2) scale(18.41386 24.52513)"/><path fill="#5d4936" d="M83.6 173.1l-5.2-17.3-68.1 1.9.7 20z"/></g></g></svg>