<svg xmlns="http://www.w3.org/2000/svg" viewBox="0 0 934 1400"><defs/><filter id="a"><feGaussianBlur stdDeviation="12"/></filter><rect width="100%" height="100%" fill="#3b5348"/><g filter="url(#a)"><g fill-opacity=".5" transform="translate(2.7 2.7) scale(5.46875)"><circle r="1" fill="#f8fffa" transform="matrix(150.14184 -79.73348 55.43613 104.38881 35.3 99.3)"/><circle r="1" fill="#ffded0" transform="matrix(-147.44377 0 0 -11.56122 74.6 255)"/><ellipse cx="130" cy="181" fill="#f9fbff" rx="170" ry="8"/><circle cx="36" cy="170" r="43" fill="#ebe0ec"/><path d="M21 47h102v7H21z"/><circle cx="131" cy="136" r="68" fill="#709980"/><ellipse cx="71" cy="92" rx="4" ry="46"/><ellipse cx="141" cy="39" fill="ivory" rx="25" ry="19"/><circle r="1" fill="#271800" transform="matrix(-2.10354 20.709 -85.05195 -8.63926 138.1 225)"/><circle cx="5" cy="205" r="41" fill="#c2a59f"/><path d="M25 48h48v8H25z"/><path fill="#3e5d4c" d="M108 122h38v42h-38z"/><path fill="#d4e3f7" d="M110.6 173.6l75.4.9v2.8l-53.7 15.8z"/><path fill="#eaf6ff" d="M67 128l-83 6 80 33z"/><path fill="#cae5c7" d="M73 52h52v26H73z"/><path fill="#c1dcc3" d="M103 208.3l3.7-17.9.6-83-31.9-13z"/><ellipse cx="111" cy="181" fill="#050000" rx="3" ry="26"/><circle cx="26" cy="94" r="39" fill="#70bcbc"/><path fill="#35616b" d="M55.4 174.1l22.9.2-13.7-51.1 15.8 25.4z"/><path fill="#fff" d="M113 25h48v11h-48z"/><ellipse cx="85" cy="255" fill="#d2d5e7" rx="34" ry="12"/><path d="M161 47h10v5h-10z"/><ellipse cx="71" cy="87" rx="3" ry="41"/><ellipse cx="142" cy="10" fill="#d7a77d" rx="52" ry="13"/><path fill="#ecf0fb" d="M33 231l57-57-43-1z"/><circle r="1" fill="#817a74" transform="matrix(-60.31998 .3964 -.12161 -18.50589 37.5 0)"/><path fill="#37634b" d="M88 78l-39 35-3-22z"/><path fill="#366a4a" d="M167 106l-16-36-13 27z"/><ellipse cx="153" cy="213" fill="#0e0a00" rx="55" ry="10"/><path fill="#00140f" d="M173.2 158.9l-2.2 8.7-26.2-6.5 2.2-8.7z"/><path d="M19 48h88v5H19z"/><path fill="#54695e" d="M82 234l-43-12 70-35z"/><path fill="#a78044" d="M118 244h53v12h-53z"/><path fill="#9fc1ab" d="M120 118l49 40 17-56z"/><path fill="#a68565" d="M119 38h47v10h-47z"/><path fill="#b3dbc2" d="M73 67h2v73h-2z"/><path fill="#fbe9f5" d="M-4 44.3l26.3 12.3-4.3 9-26.3-12.2z"/><ellipse cx="144" cy="169" fill="#e1c3c7" rx="52" ry="2"/><ellipse cx="125" cy="172" fill="#382944" rx="67" ry="2"/><path fill="#547d5c" d="M76.6 113.5l32.1 7.9-29 11.1-7.2-19.1z"/><path fill="#d2f6ff" d="M56 129h13v38H56z"/><ellipse cx="135" cy="52" fill="#fff" rx="15" ry="5"/><path fill="#6c98a4" d="M78 184h29v20H78z"/><ellipse cx="136" cy="189" fill="#89a5a1" rx="23" ry="5"/><path fill="#a3c4a2" d="M85 61l20 37 75-44z"/><ellipse cx="98" cy="240" fill="#1a150a" rx="73" ry="3"/><path fill="#3b664a" d="M122.8 128.9l30.3-6.3-21.6 24.1-27.5-2.6z"/><ellipse cx="90" cy="39" fill="#bbc2c8" rx="35" ry="8"/><circle cy="108" r="19" fill="#a9d3e2"/><circle r="1" fill="#a49da0" transform="matrix(-8.2954 -10.65591 18.38814 -14.31477 26.6 220.6)"/><path fill="#fcfee6" d="M81 52h79v3H81z"/><path fill="#5e9469" d="M105 98h40v18h-40z"/><ellipse cx="145" cy="176" fill="#fff" rx="31" ry="3"/><path fill="#957c6e" d="M59.4 304l-36.3 21-82.5-143 36.3-21z"/><ellipse cx="108" cy="49" rx="15" ry="3"/><path fill="#5990af" d="M113 197h58v6h-58z"/><path fill="#fff" d="M117 24h36v13h-36z"/><path d="M20 50h52v5H20z"/><path fill="#17345d" d="M69 125h4v47h-4z"/><path fill="#837062" d="M113 26l19-9-13-33z"/><path fill="#c8e9ba" d="M103.3 126l6.4 21-23 7-6.4-21z"/><path fill="#05000f" d="M125 194h38v3h-38z"/><path fill="#acdfd7" d="M14 56l51 14V56z"/><path fill="#e5ebdd" d="M159 90l27-18-3 28z"/><path fill="#41654d" d="M186 133.5l-28.3 5.8 3.1 45.4 1.1-38.7z"/><path fill="#cecbd0" d="M5 129l37 95 19-68z"/><circle r="1" fill="#00050e" transform="rotate(92 -12.4 83.7) scale(40.25354 1.91835)"/><path fill="#fbeab7" d="M177.6 21l-12.8 2.5L160.4 1l12.8-2.5z"/><path fill="#63958f" d="M17.2 84.1l-4.8 10.4-26.2-42.7 42.9 20.5z"/><ellipse cx="62" cy="169" fill="#001836" rx="5" ry="3"/><path fill="#fff" d="M60 175.1l29.1-.2-18 19.9-17.5 3.5z"/><path fill="#cae3dc" d="M103 109L74 98l-1 15z"/><path fill="#7d695e" d="M142 150h3v55h-3z"/><path fill="#00000a" d="M6 128l-22 12v-15z"/><path fill="#fff" d="M97.6 179.2l-.2-4 11-.4.2 4z"/><path d="M160 48h11v4h-11z"/><path fill="#fcf5f7" d="M112 171H95l-2-8z"/><path fill="#4a827e" d="M23 119h23v9H23z"/><ellipse cx="123" cy="184" fill="#475352" rx="2" ry="18"/><path fill="#6d9274" d="M121 56l16 5-15 16z"/><path fill="#d1ddd8" d="M185 119l-46 17 26-1z"/><path fill="#93d5cd" d="M46 110h21v19H46z"/><path fill="#84aea0" d="M105 146h27v11h-27z"/><path fill="#ebf4f7" d="M74 59h10v16H74z"/><ellipse cx="4" cy="191" fill="#b9a798" rx="14" ry="30"/><path fill="#dfdaba" d="M115 0L97 11l14 13z"/><path fill="#b7aeb0" d="M23 23.4l-3.1 29.8L-5 50.6l3.1-29.8z"/><path fill="#455248" d="M34 230h83v11H34z"/><path fill="#57704e" d="M81 155h11v15H81z"/><path fill="#76976a" d="M127.9 118.4l-1.6-2.8L83.6 75l-8.7 15z"/><path fill="#b7cec1" d="M130.4 122.3l-8.3-.8 45.5-14-25.2 18.9z"/><path fill="#b8d7bb" d="M172.4 94.1l-20.6-33-39.3 30.6 29.2-33.3z"/><path fill="#babcc4" d="M39 244h82v7H39z"/><path fill="#3e4f4b" d="M184 162.5l-54-16.4 34.7 3.4-18.6 21.8z"/><path fill="#b3a18d" d="M112 163h33v8h-33z"/><path fill="#dff1f8" d="M84.4 135.5l-77.3-1.1 1-4.2 36.5 2.5z"/><path fill="#487d51" d="M165 70h6v13h-6z"/><path fill="#231405" d="M109 157h3v53h-3z"/><path fill="#355449" d="M140 83h22v7h-22z"/><path fill="#414e4f" d="M159 177h4v27h-4z"/></g></g></svg>