<svg xmlns="http://www.w3.org/2000/svg" viewBox="0 0 933 1400"><defs/><filter id="prefix__a"><feGaussianBlur stdDeviation="12"/></filter><rect width="100%" height="100%" fill="#505c47"/><g filter="url(#prefix__a)"><g transform="translate(2.7 2.7) scale(5.46875)"><circle r="1" fill="#fff" fill-opacity=".5" transform="rotate(-153.6 34.2 28) scale(106.60791 169)"/><circle r="1" fill="#fff" fill-opacity=".5" transform="rotate(-130.1 41.5 22.7) scale(86.24455 141.04433)"/><path fill-opacity=".5" d="M182.6 164.1L181 74.2l-37.7-3.6 3.4 78.5z"/><circle r="1" fill="#fff" fill-opacity=".5" transform="matrix(167.70108 20.91283 -1.01707 8.1559 127.4 161)"/><circle r="1" fill="#658064" fill-opacity=".5" transform="rotate(-103.8 118.3 82.9) scale(41.76548 115.07462)"/><circle r="1" fill="#fff" fill-opacity=".5" transform="rotate(165.5 37.1 28.4) scale(155.68814 47.30014)"/><path fill="#f4f1f5" fill-opacity=".5" d="M126 168l-142-11L149-16z"/><circle r="1" fill-opacity=".5" transform="matrix(30.36147 24.23724 -9.37738 11.74685 169 99.3)"/><circle r="1" fill="#72a8b1" fill-opacity=".5" transform="matrix(2.26035 -10.91136 68.94562 14.2825 119.6 206.7)"/><circle r="1" fill="#757248" fill-opacity=".5" transform="matrix(-4.846 24.2885 -94.3949 -18.83348 37.2 224)"/><path fill="#6e4c2c" fill-opacity=".5" d="M53.3 111.3l3.2 20.8.5-.6-15.7-1.5z"/><ellipse cx="124" cy="180" fill="#384f3c" fill-opacity=".5" rx="72" ry="10"/><path fill="#bcb7b4" fill-opacity=".5" d="M132 69h13v69h-13z"/><circle r="1" fill="#e6e4eb" fill-opacity=".5" transform="matrix(47.66993 3.3334 -.46302 6.62144 146.7 162.7)"/><circle r="1" fill="#000006" fill-opacity=".5" transform="matrix(.22028 -3.94008 22.40532 1.25265 151.1 153.6)"/><circle cx="169" cy="9" r="62" fill="#fffffe" fill-opacity=".5"/><path fill-opacity=".5" d="M145 75h25v28h-25z"/><path fill="#f4f4f4" fill-opacity=".5" d="M98 115h36v30H98z"/><path fill="#629da8" fill-opacity=".5" d="M87 168h50v9H87z"/><circle r="1" fill="#76866f" fill-opacity=".5" transform="matrix(48.39313 -26.60435 7.34977 13.36919 33.4 235.1)"/><ellipse cx="162" cy="145" fill="#7b7b95" fill-opacity=".5" rx="37" ry="3"/><ellipse cx="15" cy="134" fill="#fefdff" fill-opacity=".5" rx="30" ry="12"/><path fill="#dfdbd8" fill-opacity=".5" d="M59 175l41-35 33 13z"/><path fill-opacity=".5" d="M68.8 167.1L3.5 186l-.3-1 65.3-19z"/><path fill="#ada49a" fill-opacity=".5" d="M147 118l-8 27-7-21z"/><path fill="#e4e4e4" fill-opacity=".5" d="M103 103h52v4h-52z"/><path fill="#304430" fill-opacity=".5" d="M134.8 198.8l1.5-28 44.9 2.4-1.5 28z"/><circle r="1" fill="#595d38" fill-opacity=".5" transform="matrix(63.2327 -13.5324 4.8306 22.57192 115.2 246)"/><circle r="1" fill="#d8d5d8" fill-opacity=".5" transform="matrix(2.69924 -72.89596 12.56852 .4654 10.3 50.8)"/><path fill="#ede6e6" fill-opacity=".5" d="M11.2 182.5l-13.4 6.1-7.3 8.3 73.8-22.4z"/><ellipse cx="74" cy="160" fill="#d7d6d7" fill-opacity=".5" rx="88" ry="7"/><path fill="#000003" fill-opacity=".5" d="M185 93l-35 30-4-14z"/><path fill="#789b90" fill-opacity=".5" d="M85.9 210L5.1 192.9l108-10.9 16.6 27z"/><path fill="#577253" fill-opacity=".5" d="M119 110h8v4h-8z"/><path fill="#f9f8fd" fill-opacity=".5" d="M33 25h20v85H33z"/><path fill="#647357" fill-opacity=".5" d="M75.8 171.4l-38.7 13.1 88.4 9.7-23.1-28.7z"/><path fill-opacity=".5" d="M145 76h25v25h-25z"/><path fill="#e3e8e2" fill-opacity=".5" d="M179 24.2l-7.6 45-31.2 3.8-14.5-5z"/><ellipse cx="80" cy="105" fill="#e6e6e5" fill-opacity=".5" rx="27" ry="65"/><ellipse cx="147" cy="148" fill="#282438" fill-opacity=".5" rx="21" ry="3"/><path fill="#7a5f44" fill-opacity=".5" d="M42 124l11 5-2-14z"/><circle r="1" fill="#666d4a" fill-opacity=".5" transform="matrix(.472 -5.29819 26.46678 2.35786 41.5 211.2)"/><path fill="#edeced" fill-opacity=".5" d="M126 161h14v9h-14z"/><ellipse cx="149" cy="152" fill-opacity=".5" rx="19" ry="3"/><path fill="#444134" fill-opacity=".5" d="M134.5 143h-1l2-24h1z"/><path fill="#1c1925" fill-opacity=".5" d="M141.3 104.7l6.9 18.2-4.2 19.9 41-19.3z"/><path fill="#dadbda" fill-opacity=".5" d="M118.4 128.5l12.8-30.6 13.2 8.2-5.4 13.6z"/><path fill="#568484" fill-opacity=".5" d="M125 219.5l5-23.4 49 10.4-5 23.4z"/><path fill="#ccc9c2" fill-opacity=".5" d="M136 130h7v14h-7z"/><circle r="1" fill="#fff" fill-opacity=".5" transform="matrix(-10.09312 27.13959 -12.80743 -4.76304 155.8 10.3)"/><circle r="1" fill="#e9e8ec" fill-opacity=".5" transform="matrix(-5.88883 -11.81117 76.68345 -38.23296 10.5 163.7)"/><path fill="#493d35" fill-opacity=".5" d="M34.1 177.1l-32.5 6.1L-16 194l32.1-15.2z"/><path fill="#607f81" fill-opacity=".5" d="M-14 230l75 25-77 16z"/><circle r="1" fill="#d7d7d6" fill-opacity=".5" transform="matrix(43.42555 -1.5527 .34918 9.7659 67.6 156.3)"/><circle r="1" fill="#eff0f1" fill-opacity=".5" transform="matrix(.1309 -72.43667 26.38269 .04768 104.4 34.7)"/><path fill="#9e9e97" fill-opacity=".5" d="M143.3 135.1l1.3-18.9 1.2-33.6-12.9-14.9z"/><path fill="#2d4b54" fill-opacity=".5" d="M185 180.1l-48.8-5.1 25.8-40.2-25.5 44.3z"/><circle r="1" fill="#e5e5e7" fill-opacity=".5" transform="matrix(3.76697 12.0204 -85.97517 26.94299 46.4 100.8)"/><path fill="#e2dede" fill-opacity=".5" d="M68.5 132h-15V-10h15z"/><path fill="#7b7470" fill-opacity=".5" d="M22 9l-1-4 12 4z"/><circle r="1" fill="#807d45" fill-opacity=".5" transform="matrix(-.66076 2.75226 -19.1859 -4.60613 129.3 248.7)"/><ellipse cx="100" cy="170" fill="#619aa0" fill-opacity=".5" rx="18" ry="4"/><path fill="#030303" fill-opacity=".5" d="M157 74h13v39h-13z"/><path fill="#e0dbd9" fill-opacity=".5" d="M88.5 163.1l1 2.9-58 18.9-1-2.9z"/><circle r="1" fill="#7e8964" fill-opacity=".5" transform="matrix(36.5994 2.75192 -.62164 8.2675 41.3 225.8)"/><circle r="1" fill="#7aa099" fill-opacity=".5" transform="matrix(-2.0826 8.5563 -37.79716 -9.1998 69.2 196.3)"/><circle r="1" fill="#646b45" fill-opacity=".5" transform="rotate(-168.3 82.9 89.2) scale(38.15193 4.2966)"/><circle r="1" fill="#e7e7e6" fill-opacity=".5" transform="matrix(-24.84677 -11.46898 7.98833 -17.30617 107.9 126.6)"/><path fill="#00000d" fill-opacity=".5" d="M144 137h26v5h-26z"/><path fill="#3c492b" fill-opacity=".5" d="M161.3 255.6l-38.8-19.2 62.5 16.4-7.7 3.8z"/><circle cx="139" cy="124" r="5" fill="#7c7769" fill-opacity=".5"/><path fill="#60623f" fill-opacity=".5" d="M116.2 180l-36.7-6.9-26.9 5.9 51.2 6z"/><ellipse cx="158" cy="144" fill="#9ba4ad" fill-opacity=".5" rx="24" ry="1"/><path fill="#807d4e" fill-opacity=".5" d="M68.6 229.4L43 221.9l75.5 21.4-44.9.7z"/><path fill="#e5e6e5" fill-opacity=".5" d="M132 144l-78.5-29.8 94.4 5.2-14.5-10.5z"/><path fill="#d8dae0" fill-opacity=".5" d="M158 158h12v14h-12z"/><circle cx="56" cy="138" r="8" fill="#fff" fill-opacity=".5"/><ellipse cx="153" cy="176" fill="#1c4d50" fill-opacity=".5" rx="21" ry="5"/><path fill="#5c6244" fill-opacity=".5" d="M97 271l-77-32 59-3z"/><path fill="#5a6447" fill-opacity=".5" d="M91.3 237l4-25.8 49.4 7.9-4 25.7z"/><path fill="#434629" fill-opacity=".5" d="M136.2 187.1l48.8 6.4-40.7-15.4-32.4 5.1z"/><path fill="#181721" fill-opacity=".5" d="M141 153.9l-13.7-6.1 1.7-3.7 13.7 6.1z"/><path fill="#e8e8eb" fill-opacity=".5" d="M43 133L11 68 33 5z"/><path fill="#dededd" fill-opacity=".5" d="M123 147l-3 21h28z"/><path fill="#dcd9d7" fill-opacity=".5" d="M22.9 9.5l15 6.2L-16 50.1 24.9-6z"/><path fill="#818366" fill-opacity=".5" d="M56 201l52 11-28 4z"/><path fill="none" stroke="#5b6a5a" stroke-opacity=".5" stroke-width=".5" d="M145.3 156.4q13.6 0 15 43.9"/><path fill="none" stroke="#1e1810" stroke-opacity=".5" stroke-width=".5" d="M14.4 181.1q11.8-3.2 52.5-13"/><ellipse cx="162" cy="130" fill-opacity=".5" rx="12" ry="2"/><path fill="#4f5059" fill-opacity=".5" d="M168 127.4v1l-20-1.8v-1z"/><circle cx="122" cy="111" r="2" fill="#2f4f26" fill-opacity=".5"/><path fill-opacity=".5" d="M146 108h3v10h-3z"/><path fill="#615948" fill-opacity=".5" d="M141.4 76.9l-.3-2 55.5-7.8.3 2z"/><path fill="#d1cdcf" fill-opacity=".5" d="M57 156.7l-70.5 30 58-14.9 54.8-12.7z"/><path fill="#e7e7e8" fill-opacity=".5" d="M117 88l10 61-50-51z"/><path fill="#686a45" fill-opacity=".5" d="M58.5 207.6l115.6 34-132.6-25.8 28.5-4z"/><path fill="#f1f1f0" fill-opacity=".5" d="M61 83h9v51h-9z"/><circle r="1" fill="#797b56" fill-opacity=".5" transform="matrix(7.22675 -5.20997 4.15698 5.76614 3.8 200)"/><path fill="#cdcfcd" fill-opacity=".5" d="M133.8 76.5l9.2 36.8-8.8 2.2-9.2-36.8z"/><ellipse cx="46" cy="191" fill="#739d9a" fill-opacity=".5" rx="33" ry="6"/></g></g></svg>