<svg xmlns="http://www.w3.org/2000/svg" viewBox="0 0 1400 933"><defs/><filter id="a"><feGaussianBlur stdDeviation="12"/></filter><rect width="100%" height="100%" fill="#201f1b"/><g filter="url(#a)"><g fill-opacity=".5" transform="translate(2.7 2.7) scale(5.46875)"><circle r="1" fill="#fff" transform="rotate(160.7 59.9 53.7) scale(151.79137 205.02578)"/><circle r="1" fill="#fff" transform="rotate(62.5 9.6 92.8) scale(66.95524 246.24251)"/><path d="M180.1 115l-17.8-58.3 31.6-9.7 17.8 58.3z"/><circle r="1" fill="#ff4828" transform="matrix(8.43782 43.0079 -144.89074 28.42643 90.4 169)"/><circle r="1" fill="#f9efe8" transform="matrix(35.47416 22.774 -48.24644 75.15155 119.3 59.2)"/><circle r="1" transform="rotate(65.7 30.6 174.7) scale(25.95354 15.55501)"/><ellipse cx="218" cy="23" fill="#f4f3eb" rx="91" ry="24"/><circle r="1" fill="#eee9d1" transform="matrix(16.0286 .5559 -1.98563 57.25334 243.1 169)"/><circle r="1" fill="#ff745c" transform="rotate(1.8 -4626.1 4125.6) scale(96.52222 29.89077)"/><circle r="1" fill="#fff" transform="matrix(1.93407 21.49857 -70.07427 6.30407 21.8 107.9)"/><ellipse cx="222" cy="77" fill="#e0ffc5" rx="30" ry="9"/><path fill="#f8f0e1" d="M133 81h26v36h-26z"/><circle r="1" fill="#ac221b" transform="matrix(-.66393 7.61593 -53.88945 -4.69789 183.9 128.6)"/><path fill="#6a3e14" d="M52 69h13v17H52z"/><path d="M191 0h2v96h-2z"/><path d="M168 54h25v27h-25z"/><circle r="1" fill="#b60125" transform="rotate(119.8 -36 92) scale(14.62753 34.6615)"/><path fill="#f8ad8e" d="M231 170L93 140.6l4-18.6 138 29.4z"/><path fill="#c3cba3" d="M206 86h33v39h-33z"/><path d="M203.2 103.9l-27.3-6.3 5-21.5 27.2 6.3z"/><path fill="#1e0000" d="M105 90l2-14-9 12z"/><path fill="#b3e9e2" d="M56 123l-30 17 63-16z"/><ellipse cx="195" cy="113" fill="#c2c2ad" rx="59" ry="7"/><circle r="1" fill="#39382a" transform="matrix(.21822 .9759 -75.9109 16.9745 38 131.9)"/><circle r="1" fill="#1c140a" transform="matrix(16.78956 1.59402 -.419 4.41327 176.8 102)"/><path fill="#c4c4bd" d="M86 78l79 5 2-24z"/><circle r="1" fill="#545a36" transform="matrix(.199 3.50748 -59.1737 3.35738 241.6 51.1)"/><path fill="#cc3028" d="M131 113l-30 10 60 1z"/><path fill="#e2f2d2" d="M193 68h17v14h-17z"/><path fill="#baaf98" d="M168 82h9v18h-9z"/><path fill="#6f7954" d="M212.7 104.6l23.8-19.3-10.1-.4 44.6 25.8z"/><circle cx="10" cy="2" r="81" fill="#d8cac4"/><path fill="#c5c2b4" d="M152 54l84-9-31-25z"/><path d="M252 51h2v51h-2z"/><path d="M205.7 68l-.1-1 46.7-5 .1 1zM175 52h19v28h-19z"/><path fill="#f9fefc" d="M185.3 41l-.8-57 15.2 18.9-79.1 3.8z"/><ellipse cx="157" cy="169" fill="#ec4c34" rx="66" ry="9"/><path fill="#eaf8d8" d="M208 59h48v4h-48z"/><path fill="#71726d" d="M185 2h3v42h-3z"/><path fill="#e7f6eb" d="M208 86h15v13h-15z"/><ellipse cx="248" cy="86" fill="#eafbce" rx="4" ry="14"/><circle r="1" fill="#eaf0f2" transform="rotate(-102.4 61.4 -16.8) scale(25.18659 15.62363)"/><path fill="#bb291c" d="M199 126h32v16h-32z"/><path fill="#16210e" d="M213.1 86.1V63.4l.5-1 2.3 8.3z"/><circle r="1" fill="#768475" transform="matrix(.56008 -3.99113 18.31404 2.57003 188.6 119.3)"/><path fill="#cbd6cf" d="M233 130l18 11-29 33z"/><circle r="1" fill="#c2b7af" transform="matrix(1.10336 12.12384 -71.17809 6.47771 42.5 8.7)"/><circle r="1" fill="#949686" transform="matrix(29.77108 41.43084 -.81208 .58354 212.7 32.1)"/><circle r="1" fill="#ddd3cc" transform="matrix(-8.00893 -9.99638 33.85753 -27.1261 243.9 20.7)"/><path fill="#aba59f" d="M52.1 60.3l55.4 24.9-42.1.4-14-28.7z"/><circle r="1" fill="#f15b4c" transform="matrix(6.75603 -25.39102 77.70238 20.675 104.1 169)"/><path fill="#fff" d="M255 62h1v38h-1zm-44-37l-30-41h28z"/><circle cx="137" cy="94" r="22" fill="#cfccc4"/><path fill="#f1e8e8" d="M-2.1 135.5l50-66.3L69.7 105l-13.3 23.1z"/><path fill="#675d45" d="M158 88v21l15-42z"/><path fill="#9f9e90" d="M153.8 79.5L141 80.7l14.5-12.4 19.1 5.4z"/><path fill="#f0e8f1" d="M225 115h20v8h-20z"/><path fill="#9d987a" d="M265.5 117.4L241 98l5 33.9 25 2.6z"/><path d="M209 42h-1l1-16h1z"/><path fill="#d8d7d3" d="M155 107h16v12h-16z"/><path d="M204.2 102.8l-7-.8 2.6-20.8 7 .8z"/><circle r="1" fill="#4a3a2b" transform="matrix(-.21822 -.9759 38.78137 -8.67202 7.8 139.1)"/><ellipse cx="100" cy="133" fill="#faa994" rx="41" ry="6"/><circle r="1" fill="#e0d7d6" transform="matrix(-2.54237 -7.4997 60.97693 -20.67093 99 107.1)"/><circle r="1" fill="#82674c" transform="matrix(3.00836 6.78588 -5.19947 2.30506 60.3 80)"/><path fill="#e8795b" d="M217 181l-48-46 60 11z"/><circle r="1" fill="#7e1721" transform="matrix(42.0562 4.79661 -.27125 2.37827 192 125)"/><path d="M167 53h24v20h-24z"/><path fill="#9f997d" d="M207 93l-3 21 40-4z"/><path fill="#1d1a18" d="M180 79l24 25-32 3z"/><path fill="#e9e5da" d="M72.1 128L6.7 146.9 6 144l65.4-18.7z"/><ellipse cx="183" cy="48" fill="#9c6d51" rx="9" ry="2"/><path fill="#f5f6f7" d="M116 99L77 84 6 114z"/><ellipse cx="76" cy="52" fill="#d5d3d3" rx="17" ry="31"/><path fill="#eefdf3" d="M241 69h4v18h-4z"/><ellipse cx="253" cy="83" rx="1" ry="21"/><path fill="#503110" d="M104 81l-7 7 2 4z"/><path fill="#82886b" d="M195 49h61v11h-61z"/><path fill="#e15842" d="M191.3 143.3l-78.4-24 46.9 3.3 66.2 10.5z"/><circle cx="202" cy="36" r="6" fill="#feffff"/><ellipse cx="236" cy="70" fill="#7d9672" rx="5" ry="9"/><path fill="#f9fdf9" d="M140 43l46-48-16 56z"/><path fill="#343f32" d="M111 114l-20 4 11 1z"/><circle r="1" fill="#dbd4d5" transform="matrix(8.20097 15.48893 -34.16603 18.08998 25 65)"/><circle cx="149" cy="77" r="3" fill="#425532"/><path fill="#fcfffc" d="M205 62h24v2h-24z"/><path fill="#747c7b" d="M194.6-2.1l-33 6.6 1.1-2.1 2.4-.1z"/><path fill="#e0e2e2" d="M118 0h35v77h-35z"/><ellipse cx="191" cy="100" fill="#616257" rx="33" ry="2"/><path fill="#876242" d="M58.7 62.4l3.6 22.7-3 .5-3.6-22.7z"/><path fill="#b7aca2" d="M-7.4 120.6l7.7-9 32-6.3-44 4.9z"/><path fill="#a0988a" d="M164.7 44.2v13.5l4 43.6-14.1-41.6z"/><path fill="#d6d1cb" d="M208.2 40.6l-20.5 10.1 39.7-2.3L271-14.7z"/><path fill="#9c161d" d="M170 121.1l-.3 3-49.7-5.2.3-3z"/><path fill="#ced7cb" d="M108.6 120.1l7.5-5.1-90.4 24.7 71.6-17.2z"/><path fill="#b3ad9a" d="M234.3 125.8l-8.5.7-34.2-3.4 22.8-9.2z"/><ellipse cx="186" cy="6" fill="#283039" rx="1" ry="19"/><ellipse cx="192" cy="34" fill="#000b09" rx="1" ry="9"/></g></g></svg>