<svg xmlns="http://www.w3.org/2000/svg" viewBox="0 0 1400 933"><defs/><filter id="a"><feGaussianBlur stdDeviation="12"/></filter><rect width="100%" height="100%" fill="#6c4935"/><g filter="url(#a)"><g fill-opacity=".5" transform="translate(2.7 2.7) scale(5.46875)"><circle r="1" fill="#fdffff" transform="rotate(-26.5 231.6 -199.2) scale(186.16604 135.20791)"/><circle r="1" fill="#e5f0ee" transform="matrix(-59.17687 38.39581 -27.20643 -41.93142 148.5 71)"/><ellipse cx="207" cy="154" fill="#70735b" rx="80" ry="23"/><path fill="#d5e4ea" d="M69 185L83 4l-99 151z"/><path d="M17.5 102.5v-85h5v85z"/><ellipse cx="9" cy="27" fill="#fff" rx="9" ry="59"/><path fill="#333534" d="M59 68L8 21l50 12z"/><path fill="#3e2b00" d="M60.4 143.8l28.7-1.4 30.9-10-57.7-2.1z"/><ellipse cx="215" cy="89" fill="#332801" rx="6" ry="26"/><ellipse cx="69" cy="54" rx="2" ry="27"/><path d="M-8 90l33 9-41 7z"/><circle r="1" fill="#fff" transform="matrix(-3.60165 9.71837 -17.64525 -6.53937 62.8 24.8)"/><path fill="#313734" d="M78.5 46l20-1 1 19-20 1z"/><circle r="1" fill="#eff1f5" transform="matrix(10.7814 29.33675 -21.47932 7.89376 147.2 68.7)"/><ellipse cx="109" cy="72" fill="#0b1211" rx="2" ry="28"/><path d="M.6 22.5l28.2 8.6-41.4-20.2 14.4 46z"/><path fill="#533612" d="M181 165l-21-8 52-35z"/><ellipse cy="61" rx="1" ry="43"/><path fill="#e9e0cb" d="M220 124l-182-6 84-27z"/><path fill="#eaeef2" d="M-18.5 176.5v-73h37v73z"/><circle r="1" fill="#727466" transform="matrix(74.15927 7.27138 -.46849 4.778 218.9 108.7)"/><circle r="1" fill="#171913" transform="rotate(-75.8 62 -27.4) scale(1 46.88196)"/><path fill="#fff" d="M2 26h16v49H2z"/><circle r="1" fill="#d3e1e3" transform="matrix(-1.656 -8.68293 36.43212 -6.94826 90.2 152.6)"/><path fill="#e0e5eb" d="M23 58h44v36H23z"/><ellipse cx="161" cy="3" fill="#92998c" rx="121" ry="20"/><ellipse cx="21" cy="38" rx="2" ry="65"/><ellipse cx="4" cy="3" fill="#fff" rx="17" ry="16"/><ellipse cx="81" cy="55" fill="#001115" rx="2" ry="30"/><path fill="#f5fcfb" d="M60.5 34.9l54.7 12.4 1.4-14.1-57.3-19.3z"/><path fill="#434541" d="M101 46h2v53h-2z"/><path fill="#091315" d="M116 32h2v70h-2z"/><ellipse cx="19" cy="68" rx="2" ry="34"/><ellipse cx="57" cy="60" fill="#211404" rx="2" ry="22"/><path fill="#504a47" d="M29 32h23v25H29z"/><path fill="#edf4f8" d="M82 40h4v55h-4z"/><ellipse cx="5" cy="100" rx="16" ry="3"/><path fill="#fff" d="M58 41h9v53h-9z"/><path fill="#7b766a" d="M119.4 95l.4 3-77.2 11-.4-3z"/><path fill="#fff" d="M71 43h9v21h-9z"/><circle r="1" fill="#b38e56" transform="matrix(-29.73713 1.5849 -.4226 -7.92913 90.8 128.4)"/><circle r="1" fill="#b3b6b1" transform="rotate(32 36.3 402.7) scale(54.38222 21.91875)"/><path fill="#fff" d="M-16 12l36 10v-33z"/><path fill="#c1c7cb" d="M23 23h7v99h-7z"/><circle r="1" fill="#8a8f86" transform="matrix(-40.9504 123.82256 -13.34229 -4.41254 255 123.2)"/><path fill="#e3dfdb" d="M52 28h4v39h-4z"/><circle r="1" fill="#15140d" transform="matrix(-.31045 24.63986 -1.8213 -.02295 70 55.7)"/><ellipse cx="131" cy="109" fill="#dfdccf" rx="18" ry="28"/><path fill="#4b3311" d="M181.9 161.2l-1.1 2.8-60.7-23.2 1.1-2.8z"/><path fill="#010303" d="M81 18h2v52h-2z"/><ellipse cx="76" cy="68" fill="#fff" rx="4" ry="24"/><path d="M-3.1 19.1l.2-1 22 6.8-.2 1z"/><path fill="#020603" d="M111 134.9l-49.6 8.2 4.5-5.1 12.4-1.2z"/><path fill="#0f1726" d="M51.9 8.8L49 8.4l15.9 2 23.5 11.9z"/><path fill="#979c9d" d="M56.5-16H8.6l39.1 43.1 9.8 10.5z"/><path fill="#dbe9e8" d="M219 83h4v22h-4z"/><path fill="#b6c0ba" d="M2 71h14v26H2z"/><path fill="#fff" d="M103 50h6v28h-6z"/><path fill="#706d62" d="M163.8 105.1l-.1 1L88.2 97l.1-1z"/><path fill="#959a8d" d="M136 149l-94 36h192z"/><path fill="#b6a581" d="M106 136l66 17 27-27z"/><ellipse cx="36" cy="169" fill="#a8aaaa" rx="13" ry="49"/><path fill="#c2c0c1" d="M146 102L60.3 81.7l-46.9 23.5 98.9-5.3z"/><path d="M108.1 47h1l.8 42h-1z"/><path fill="#fff" d="M2 28h16v45H2z"/><path fill="#877e68" d="M143.5 6.9l70-26.9 5 13.1-70 26.9z"/><path d="M76.2 40.4l-.2 1-20.2-5.8.2-1z"/><path fill="#afb0a9" d="M84 16h17v30H84z"/><path fill="#fff" d="M59 40h9v35h-9z"/><path fill="#5b4726" d="M214 103l8-33-14 1z"/><path fill="#fff" d="M57.5 11l23.4 11-8.6 15.3-11.9-4.7z"/><path fill="#ede6d8" d="M185 110L92 98l41 33z"/><path fill="#00110d" d="M118 32l-11-5 4 5z"/><circle cx="110" cy="39" r="8" fill="#fff"/><path fill="#fff" d="M111 51h4v27h-4z"/><path fill="#948e88" d="M22.7 36.2L54.6 41 42.2 55.6l17.9 16.3z"/><circle r="1" transform="matrix(4.23022 4.53966 -1.71774 1.60066 48 35.8)"/><path fill="#dddfe3" d="M80.6 145.7L88 188l-24.6 4.3L56 150z"/><ellipse cx="4" cy="85" fill="#000100" rx="12" ry="1"/><path fill="#d5d1d0" d="M153 48h39v56h-39z"/><ellipse cx="227" cy="127" fill="#b4b4a1" rx="23" ry="11"/><path fill="#d9dcde" d="M82.2 79.4l9.9 17.4 9.7-16.7L82.4 56z"/><circle r="1" fill="#625c4e" transform="matrix(.102 -1.94638 34.40992 1.80335 205 108.1)"/><ellipse cx="80" cy="72" rx="1" ry="13"/><path fill="#151920" d="M81.4 19l-.4 1L50.6 7l.4-1z"/><path d="M1.5 104h-1l-2-60h1z"/><path fill="#9c8b95" d="M22 53h1v49h-1z"/><path fill="#eff1f3" d="M127 34h16v52h-16z"/><path fill="#e5e0d8" d="M54.4 119.8l-1.8-9.8 67-11.8 1.8 9.8z"/><path fill="#342a22" d="M86 58l4-15 9 4z"/><path fill="#a5a6a5" d="M23 0h34v26H23z"/><path d="M68 60h3v22h-3z"/><circle r="1" fill="#a5aaa9" transform="matrix(18.02787 4.59525 -13.70044 53.74895 243.8 52.2)"/><path fill="#dbddde" d="M38 100.3l42.3-15.2 40.6 6.9-81.9.1z"/><path fill="#bcbab5" d="M213 81l-30-21 5 46z"/><path fill="#9e9b91" d="M227.7 141.7l-17.6-16.5-29.7 41.6 14.6 5.7z"/><path fill="#000001" d="M19.8 38l-1-.1L22.2-2l1 .1z"/><path fill="#1c1e03" d="M95 92h6v2h-6z"/><path d="M20.5 103l-1.3-36.6.3 29.4-35.5 6.9z"/><circle cx="32" cy="53" r="3" fill="#0c0305"/></g></g></svg>