<svg xmlns="http://www.w3.org/2000/svg" viewBox="0 0 1400 933"><defs/><filter id="a"><feGaussianBlur stdDeviation="12"/></filter><rect width="100%" height="100%" fill="#44242c"/><g filter="url(#a)"><g fill-opacity=".5" transform="translate(2.7 2.7) scale(5.46875)"><circle r="1" fill="#ff663e" transform="matrix(79.132 -2.98682 9.57482 253.67244 155.3 78.7)"/><circle r="1" fill="#902209" transform="matrix(-1.28517 -185.6598 35.98404 -.24909 60.3 79.7)"/><circle r="1" fill="#170000" transform="matrix(4.3361 165.58877 -27.15004 .71095 0 87.6)"/><ellipse cx="139" cy="84" fill="#c66549" rx="26" ry="167"/><circle r="1" fill="#7b2222" transform="matrix(17.13047 174.87883 -27.71492 2.71485 255 118.1)"/><circle r="1" fill="#7c291e" transform="rotate(87.4 3.6 60.8) scale(192.47009 31.04249)"/><path fill="#8f2d25" d="M199 43h25v98h-25z"/><circle r="1" fill="#b95148" transform="rotate(43.7 -100.2 359.6) scale(35.42891 20.77613)"/><ellipse cx="6" cy="149" fill="#240000" rx="17" ry="139"/><ellipse cx="201" cy="10" fill="#b9574d" rx="35" ry="9"/><path fill="#cb6e57" d="M138 71l26-2-28-85z"/><circle r="1" fill="#993826" transform="rotate(53.1 -18 168.9) scale(17.48937 12.00505)"/><path fill="#6b1f15" d="M23 69h69v69H23z"/><path fill="#481214" d="M230 53h26v35h-26z"/><circle r="1" fill="#8e3628" transform="rotate(112.8 19.7 30.7) scale(8.24256 37.52595)"/><path fill="#843338" d="M224 148l43-8-31 45z"/><circle r="1" fill="#8f2c23" transform="rotate(-1.8 2611 -5824.5) scale(36.28608 8.69494)"/><ellipse cx="112" cy="112" fill="#b3533b" rx="13" ry="70"/><path fill="#7d3131" d="M232 31l-23-47 39 33z"/><path fill="#460f0a" d="M23.7 9.8l9.5 48.1L-1.4 6.2 92.5-16z"/><ellipse cx="110" cy="22" fill="#9e432e" rx="20" ry="27"/><path fill="#a63f33" d="M194.8 74.9L137.5 185l94-99.7-2.3 63.9z"/><ellipse cx="27" cy="117" fill="#4f150f" rx="7" ry="87"/><path fill="#c96852" d="M140 98h26v21h-26z"/><circle r="1" fill="#7f2c20" transform="matrix(-14.4016 39.86827 -16.73543 -6.04533 75 42)"/><ellipse cx="170" cy="127" fill="#933224" rx="5" ry="70"/><path fill="#8c2922" d="M180 37h22v13h-22z"/><ellipse cx="178" cy="100" fill="#db7061" rx="2" ry="13"/><path fill="#8c3022" d="M68.9 89l-15.2 36.9 5.7-38.7 16.7 36.4z"/><ellipse cx="216" cy="157" fill="#bf5a4a" rx="11" ry="19"/><path fill="#b55840" d="M87 144h77v16H87z"/><path fill="#993b28" d="M95 76h44v16H95z"/><path fill="#822e1f" d="M98.7 135.9L84.8 185l-58.7-40.4 70-10.3z"/><ellipse cx="186" cy="93" fill="#973027" rx="5" ry="49"/><path fill="#c36054" d="M197.5 2l15.9 29.8L213-16l-16.1 42.1z"/><path fill="#5e1d1e" d="M232 86h14v69h-14z"/><path fill="#782f34" d="M247 86h9v40h-9z"/><path fill="#ca6d56" d="M161.3 79.8l-21.5-15.7 25.3-42.4-21.2 6.4z"/><ellipse cx="206" cy="102" fill="#b14a3d" rx="25" ry="6"/><ellipse cx="131" cy="133" fill="#aa4732" rx="8" ry="26"/><path fill="#b35741" d="M102.8 26.1l-14.1 4.1 102-23.6-80.1-4z"/><path fill="#4f181a" d="M238 42l33-10-48-3z"/><path fill="#923b2a" d="M99 158l-3-66-13 38z"/><path fill="#ac4437" d="M201.5 63L190 77.8 150.5 47 162 32z"/><path fill="#883025" d="M204.6 91.6l32.4 3.8L217.6 60l-18.2-9.9z"/><path fill="#cc7157" d="M141 142h7v19h-7z"/><path fill="#8e3526" d="M68.3 36.6l-32.6-1.9 16.1-9.4 18.5-8.8z"/><path fill="#91382a" d="M83 22h15v53H83z"/><path fill="#3a0d0c" d="M8 42h15v41H8z"/><path fill="#691a12" d="M63 39h8v51h-8z"/><path fill="#6e231b" d="M83.4 30.7L43.8-16 92 10.1 62.9 51.3z"/><circle cx="54" cy="57" r="8" fill="#913626"/><path fill="#ba5042" d="M200.1 127.2l-15.2.2-9.9-19.8 5.8 31.1z"/><path fill="#d27966" d="M165 114.8l1 .3-7 24-1-.2z"/><ellipse cx="34" cy="64" fill="#6b2116" rx="7" ry="36"/><path fill="#994333" d="M27 8l6 11 19-2z"/><path fill="#b44b40" d="M195 23l3 54-10-25z"/><path fill="#4e120c" d="M50 119h6v20h-6z"/><path fill="#220506" d="M0 120h24v50H0z"/><path fill="#bf5a4c" d="M187-2.5L176.2 20l-7.2-3.5L180-6z"/><circle r="1" fill="#7b2a1b" transform="matrix(-6.44862 .68443 -3.64772 -34.36828 44 92.1)"/><path fill="#b05151" d="M229.7 14h3l-.4 10h-3z"/><path fill="#b4533c" d="M129.8 61.9l-9.3-24.7-25.7 43.5 51.3-8.4z"/><path fill="#892d21" d="M225 117l-30 20 11 5z"/><path fill="#6b1e17" d="M73 127l25-43-22-5z"/><ellipse cx="157" cy="109" fill="#af4b35" rx="3" ry="33"/><path fill="#b0483b" d="M240 144.9l-85.2 8.2 21.3-6.1.9 25.2z"/><path fill="#8a2c22" d="M191 21.1l-4.2-.2-4 25.5 4.2 8.2z"/><ellipse cx="243" cy="2" fill="#551d1f" rx="24" ry="6"/><path fill="#84372a" d="M105.3-2.8l-5.1 14.1-23.5-8.5 5.1-14.1z"/><path fill="#81353b" d="M240.8 161.9l10.1-24.2 5.1 22-48.6 25.3z"/><path fill="#77251b" d="M87 49h6v60h-6z"/><path fill="#8f2d21" d="M185.3 95l2.8 42.6-22.9 9.4 24-.6z"/><path fill="#3d0f10" d="M239.3 77.9l.3-12.6-6.2 22.1 33.8-3.3z"/><path fill="#7f3d46" d="M252.7 2.7l2.5 11.8-4 .8-2.4-11.8z"/><path fill="#ab4631" d="M131 108l30-29-17-3z"/><path fill="#882d21" d="M70 93.3l-7.8 42.3 13.9-26-7.8-27.9z"/><path fill="#a84337" d="M212.5 68.5L188.3 49l16.3 19.6 7.8 16.2z"/><circle r="1" fill="#c16951" transform="matrix(4.99182 -.92362 4.14092 22.38 136.4 15.7)"/><path fill="#933225" d="M174 16l10 28-20-27z"/><path fill="#a74933" d="M83 34l64-18-37-4z"/><ellipse cx="176" cy="78" fill="#ba5343" rx="2" ry="40"/><path fill="#7b2c27" d="M234.4 5.9l-9 67.3-11.9 13 18.8-4.9z"/><path fill="#621d15" d="M33 45L17 4l36 43z"/><path fill="#71292a" d="M222.8 151l48.2 34h-45.8l20.9-34.9z"/><circle r="1" fill="#300b0a" transform="matrix(6.46276 .00672 -.04621 44.44043 19.2 121.6)"/><path fill="#8b3826" d="M36 145l13-11-1 21z"/><path fill="#8c3123" d="M160 139l11-24 7 5z"/><path fill="#ac453a" d="M222.3 14.7L190 40.5 188.8-10l-11.9 31.3z"/><path fill="#cf745d" d="M147 109l-9-1 18-14z"/><path fill="#953328" d="M183.5 118.1l-6.1-36.9 12.9-1-3 69.3z"/><path fill="#a74538" d="M225 47.6l3 21.8-7 1-3-21.8z"/><path fill="#b04b40" d="M196.3 15.6l8.4 26.1 21.6-36.1-22.8 49z"/><path fill="#b74c3f" d="M194 113l-12-18 32 23z"/><path fill="#8a3228" d="M222.9-16h-10.2l3.6 26.2 15.6-7.6z"/><ellipse cx="243" cy="119" fill="#461216" rx="2" ry="26"/><path fill="#c2624b" d="M106 50h43v4h-43z"/><ellipse cy="86" fill="#160202" rx="24" ry="5"/><path fill="#4b191f" d="M271 3.9L246.2-16 271 63.6l-27.5-38.2z"/><path fill="#681c13" d="M84.7 146.4l4.3-13.9-49.2-12 25.4 13.9z"/></g></g></svg>