<svg xmlns="http://www.w3.org/2000/svg" viewBox="0 0 1400 933"><defs/><filter id="a"><feGaussianBlur stdDeviation="12"/></filter><rect width="100%" height="100%" fill="#333534"/><g filter="url(#a)"><g fill-opacity=".5" transform="translate(2.7 2.7) scale(5.46875)"><circle r="1" fill="#fff" transform="rotate(-95.3 106.8 -29.6) scale(206.11698 159.20228)"/><ellipse cx="172" cy="52" fill="#fffcef" rx="195" ry="55"/><path d="M167.3 103.2l74 17.1-4.6 20.5-74-17.1z"/><path fill="#ffffea" d="M225 129h31v41h-31z"/><ellipse cx="129" cy="79" fill="#f1f0ed" rx="60" ry="36"/><circle r="1" fill="#72694f" transform="matrix(-11.8509 -17.89367 69.09563 -45.7617 15.9 142.2)"/><path fill="#b6b1a1" d="M97-16L-16 12v137z"/><path fill="#0a0700" d="M256.8 128.8l-62.4 1.6-38.8-22.8 30.7-1.6z"/><path fill="#f2efe5" d="M249.5 125L195 105.5l76-3.6-21.6 83.1z"/><circle r="1" fill="#5f7471" transform="matrix(-61.01118 10.42883 -1.88796 -11.045 173.2 143.7)"/><circle r="1" fill="#dbd7cd" transform="matrix(12.0146 21.94512 -57.47888 31.46877 37 75.2)"/><ellipse cx="182" cy="15" fill="#b3b0a6" rx="255" ry="18"/><path fill="#c2c0ae" d="M124 92l66 35-115-6z"/><path fill="#fff" d="M167 74h29v32h-29z"/><path fill="#beb5a4" d="M231 138L65 185h178z"/><path fill="#b4a281" d="M124 185l-59-56-81 49z"/><circle r="1" fill="#1e1b13" transform="rotate(81.1 27.4 179.2) scale(7.49846 28.2535)"/><ellipse cx="219" cy="140" fill="#95896f" rx="23" ry="13"/><circle r="1" fill="#f5f2ee" transform="matrix(11.32504 -.94302 2.13767 25.67184 63.9 54.3)"/><ellipse cx="9" cy="21" fill="#9d9b8e" rx="40" ry="21"/><path fill="#aea295" d="M114 93h37v13h-37z"/><ellipse cx="123" cy="63" fill="#eaf1f0" rx="27" ry="29"/><path fill="#c0cdc8" d="M76.4 125.9l20.8-31 38.1 43.8h-13.4z"/><path fill="#4f4c3f" d="M17.2 157.2L-16 176.5l12.4-20.3 34.1-23.5z"/><ellipse cx="123" cy="138" fill="#7699a4" rx="30" ry="24"/><circle r="1" fill="#d1ccc1" transform="matrix(-1.8995 -13.15546 39.00281 -5.63159 57 85.6)"/><circle r="1" fill="#abaaa6" transform="rotate(-8 302.4 -1779.4) scale(13.46087 52.27381)"/><path fill="#e0dcd7" d="M86 57h32v55H86z"/><path fill="#f8f6f3" d="M274 158.7l-23.8 10.6-14.2-32 23.8-10.6z"/><path fill="#130d00" d="M254 128l-13-1-5-8z"/><path fill="#eceaef" d="M129.2 86l8.9 22-45.1 8.1 62.7-5.9z"/><ellipse cx="202" cy="61" fill="#dad5d0" rx="18" ry="49"/><circle r="1" fill="#bcbbb0" transform="matrix(-21.9248 -9.7294 18.5873 -41.8857 15.3 78.8)"/><path fill="#bfbfb6" d="M35 105l1 23 8-26z"/><path fill="#5e7e87" d="M154.1 159.2l35-8.7-39.7-23.5-24.4 34.9z"/><path fill="#736d60" d="M70 109l18.8-21-4.9 28.6-74.6 45z"/><circle r="1" fill="#d0ccc6" transform="matrix(-55.00116 -72.69751 16.34916 -12.36938 130.4 0)"/><path fill="#a39e8e" d="M208 156.6l-88-40.5 62.9 6.9-11.4 7.7z"/><path fill="#cad4d8" d="M102 129l24 10-2-17z"/><path fill="#706453" d="M185 139l42-1-63-16z"/><path fill="#3b3a2d" d="M9.8 122.3l8.2-5 26.2-17.4-7.5 2.2z"/><path fill="#1f1e16" d="M32.7 106l-48.8 36.8-.6-.8 48.8-36.8z"/><path fill="#a9a89b" d="M243 150l-20-23 19 1z"/><path fill="#bcada6" d="M114 185h74l-90-36z"/><path fill="#c7d3f2" d="M129 167.7l-.2-1 58.2-14.4.2 1z"/><path fill="#b6b29b" d="M82 116l-51 33 65-21z"/><circle r="1" fill="#bebbb4" transform="matrix(20.87946 1.7166 -.70654 8.59376 218.2 105.9)"/><path fill="#c4c4bd" d="M36 106.7l-.3-1 62.4-14.4.2 1z"/><path fill="#e5e4dd" d="M235.7 107.1L271 94.3 252.5 136l2.2-13.2z"/><path fill="#9c9f99" d="M145 89h8v14h-8z"/><path fill="#6a8d9c" d="M138.8 158.6l-63.6-13.5 2-9.7 63.6 13.5z"/><path fill="#c3c0b3" d="M40 111h3v21h-3z"/><ellipse cx="14" cy="135" fill="#030400" rx="1" ry="12"/><path fill="#8d7758" d="M117 103h22v3h-22z"/><ellipse cx="4" cy="144" fill="#000100" rx="1" ry="14"/><path fill="#bab6ab" d="M200 151.2l46.3-5.7-63.2 26.9 3.3-25.5z"/><ellipse cx="200" cy="119" fill="#11110e" rx="27" ry="5"/><path fill="#e1edf2" d="M100.1 85.3l12.7 28.5 2.6-75.7 31.5 60z"/><path fill="#2c291d" d="M162 106h9v5h-9z"/><path fill="#d6d3c3" d="M30 124h3v14h-3z"/><circle r="1" fill="#c1beb4" transform="matrix(-34.826 -20.83185 12.80122 -21.40065 84 14.2)"/><path fill="#d2cec8" d="M75.7 58.3l22.9-15.2-5.3 54.6-5.2 5.7z"/><ellipse cx="134" cy="144" fill="#8da1a9" rx="19" ry="5"/><path fill="#d9d6ce" d="M153 83l7 30-10 8z"/><path fill="#d2cdc4" d="M83 58h78v5H83z"/><circle r="1" fill="#c4c3bd" transform="matrix(11.36063 -9.98056 40.69572 46.32297 240.6 53.7)"/><path fill="#b3b2a5" d="M-15.7 141.4l58.9-39.7.5.9-58.9 39.7z"/><path fill="#c0bbaa" d="M20 130h3v18h-3z"/><path fill="#545349" d="M28.7 114.6L-16 146.8l43.9-32.9 3-7.7z"/><path fill="#978c77" d="M44 161L5 142l41 43z"/><path fill="#d8d3cb" d="M89.2 93.4L7.2 106l40.1-11.4L83.2 43z"/><path fill="#38372f" d="M23 120h2v25h-2z"/><ellipse cx="39" cy="125" fill="#434038" rx="1" ry="13"/><ellipse cx="128" cy="46" fill="#f5f0ea" rx="23" ry="7"/><path fill="#555145" d="M197 147h20v2h-20z"/><path fill="#7c7a72" d="M84 114l2-22-50 20z"/><path fill="#fcfcf9" d="M165.3 106.6l18.8-31.2 1.1 29.1-3.9.4z"/><path fill="#26251f" d="M8 136h2v13H8z"/><circle r="1" fill="#3f3e33" transform="matrix(.59797 .80152 -21.93417 16.3639 11.5 156.7)"/><path fill="#393934" d="M199.4 137.3l16.7-8.4-5.5 4.7-33-13.3z"/><path fill="#536b70" d="M124 149h38v4h-38z"/><path fill="#6f532c" d="M127.8 92.5l.2 1-9.8 2-.2-1z"/><path fill="#cac5b4" d="M25 123h3v14h-3z"/><path fill="#e0ded3" d="M253.3 169.5l-14.6-33.8 32.3 11.2-49.4 2.2z"/><path fill="#4c626a" d="M100 137.9l22.4 11.3-.5 1-22.3-11.4z"/><path fill="#444137" d="M83.1 109l.5.9L58.9 123l-.5-.9z"/><path fill="#5c7780" d="M98 134.5l.6-2 43.5 15-.7 2z"/><path fill="#cfccc5" d="M96 27h70v13H96z"/><circle r="1" fill="#5b584c" transform="rotate(175.5 11.8 68.4) scale(1 14.33995)"/><path fill="#876338" d="M138 98.4l-7.7 2.1-.3-1 7.7-2z"/><path fill="#bbb8b0" d="M171.6 30.7l7 28.7 6.7-46.2-68.9 5.1z"/><path fill="#181811" d="M250 126l-2.2-1.6-19.7-5.9-45.8 7.4z"/><ellipse cx="195" cy="81" fill="#dfdcd5" rx="12" ry="27"/><path fill="#949084" d="M25.1 165.9L39 128.7l49.7-28.3L50.9 111z"/><path fill="#312f27" d="M20.2 129.6l-1.4 11-1-.2 1.4-11z"/><path fill="#e6e5e0" d="M95 69h24v42H95z"/><path fill="#a9a89c" d="M249 123l-28-10 13-1z"/><path fill="#5c5a4f" d="M229 141.7l-50.3-26.2 58.5 28.5 14.5 7.4z"/><path fill="#9d9486" d="M129.6 185l-22.3-29.2-17.2-1.4L64 173.7z"/><path fill="#8ba5a8" d="M96.7 122.5l8.6 19 7.4 6.8-42.3-8.4z"/></g></g></svg>