<svg xmlns="http://www.w3.org/2000/svg" viewBox="0 0 1400 933"><defs/><filter id="a"><feGaussianBlur stdDeviation="12"/></filter><rect width="100%" height="100%" fill="#333534"/><g filter="url(#a)"><g fill-opacity=".5" transform="translate(2.7 2.7) scale(5.46875)"><circle cx="164" cy="75" r="182" fill="#fff"/><circle r="1" fill="#fffcef" transform="matrix(3.86523 58.0946 -183.38477 12.2012 173 48.8)"/><circle r="1" transform="matrix(43.15824 6.8356 -1.6254 10.26239 203.7 121.8)"/><circle r="1" fill="#796e54" transform="matrix(-15.4201 -19.17874 63.9768 -51.43867 20.1 144.6)"/><path fill="#fffff3" d="M246.8 94.1l33 7.7-16.6 72-33-7.6z"/><circle r="1" fill="#eeece8" transform="matrix(69.59285 6.08859 -3.40602 38.93098 121.8 75)"/><path d="M182.6 125.3L271 130l-72.3-19.6-42.4-6.2z"/><circle r="1" fill="#b6b2a7" transform="matrix(196.20873 -13.30508 1.5693 23.1424 127 15)"/><circle r="1" fill="#58706f" transform="matrix(-2.1633 -14.02661 55.47814 -8.55633 164.6 142.2)"/><ellipse cx="228" cy="90" fill="#d9d6cf" rx="43" ry="26"/><circle r="1" fill="#c2beaf" transform="matrix(30.82727 -44.23602 29.18283 20.33698 9.2 75.2)"/><circle r="1" fill="#bdc3b8" transform="matrix(-41.25364 3.39167 -1.73332 -21.08282 122.7 115)"/><path fill="#737064" d="M6.6 129.1l84.6-39-8.8 24.3-95.9 67.3z"/><path fill="#c3bca0" d="M219 129h21v41h-21z"/><ellipse cx="255" cy="153" fill="#fffffb" rx="10" ry="30"/><path fill="#191409" d="M182.7 105.5l45.2 13.5-27.8 15.2-7.4 4.5z"/><path fill="#fffefc" d="M158 79h36v27h-36z"/><circle r="1" fill="#c6bfb2" transform="rotate(85.2 5.6 190.4) scale(17.6204 55.2773)"/><path fill="#b9a98b" d="M19 158.5l50.5-34 19.6 29-50.6 34z"/><path fill="#9d9988" d="M221 156l-56-43-44 11z"/><path fill="#f9f5ef" d="M46.8 62l10.5-32.4 20 6.5-10.6 32.3z"/><path fill="#ecf5f7" d="M110 41h36v52h-36z"/><path fill="#d2cdc2" d="M-16 119l92-31-28-40z"/><circle r="1" fill="#ababa6" transform="rotate(-11.5 282.7 -1246.8) scale(19.4993 71.36469)"/><circle r="1" fill="#a5a294" transform="rotate(88.2 -5.5 18.7) scale(26.25027 39.01817)"/><circle r="1" fill="#655743" transform="matrix(32.93926 6.3431 -.79907 4.1495 200.9 133.2)"/><path fill="#9c836c" d="M121 98h17v10h-17z"/><path fill="#7399a9" d="M118.8 131.1l-55.7 11.4 84.2 22.2 1.6-39.7z"/><path fill="#2c2b21" d="M17 155l-33 21 22-27z"/><path fill="#a19f96" d="M33.4 99.9l8.8 12.9 38.5-8.3-52.5 31.7z"/><path fill="#1b1a11" d="M157 106l48 26-13-26z"/><path fill="#e9e4e1" d="M86 85h28v27H86z"/><path fill="#d5d0c7" d="M102.5 22.5l-6.7 67.8-34 7.6-35.4 4.9z"/><circle r="1" fill="#ece3e4" transform="matrix(-.30291 -3.20448 27.58293 -2.60735 132.2 110.5)"/><path fill="#d0cdc8" d="M111 20l160 39-31 61z"/><path fill="#908e89" d="M145 88h6v17h-6z"/><path fill="#b3bbb4" d="M128.4 139.4l14.5 2.9-49.4-34.1-27.4 18.6z"/><path fill="#908773" d="M239.7 146.1l-53.7 5.7-1.7-16 53.7-5.6z"/><path fill="#0a0c05" d="M39 100.3l.7.8-40.8 30.6-.6-.8z"/><path fill="#716e65" d="M70 95h15v19H70z"/><path fill="#bfc3d2" d="M198.5 151.5l-74.1 14.1 63.3-9.1-4.2-14.7z"/><circle r="1" fill="#b9b7ab" transform="matrix(-6.36188 17.38464 -44.81932 -16.40154 63.5 5.6)"/><path fill="#a99b86" d="M110.1 152.2l21.9 25-148-1.7 37.3-17.8z"/><ellipse cx="194" cy="80" fill="#e2dfd8" rx="12" ry="28"/><path fill="#577a88" d="M180 139.5l-60.1 15.8 12.7 7.5 46-9.2z"/><path fill="#b0ab9d" d="M176.5 141.1l3.3 1.8-15-30.5-28.1 10.7z"/><path fill="#373224" d="M168 106h19v7h-19z"/><circle r="1" fill="#d3d0cb" transform="matrix(33.75274 .58916 -.25012 14.32909 136.2 2.7)"/><path fill="#78928e" d="M160 150l-13-33-32-4z"/><path fill="#b09f8b" d="M116 93h18v12h-18z"/><circle r="1" fill="#c0bfb5" transform="matrix(27.16957 1.65631 -2.23405 36.64668 20 73.4)"/><path fill="#b1b0a7" d="M35 131V99l10 3z"/><path fill="#eeede4" d="M226 153.9l22.4-8 16.8-62.7 5.8 91z"/><path fill="#010300" d="M4 134h1v31H4z"/><path fill="#1d190a" d="M198 123h48v5h-48z"/><path fill="#cac8c3" d="M186 19l50-8 17 117z"/><path fill="#b9b3b4" d="M132 185l-29-34 61 24z"/><path fill="#d8d5d0" d="M153.9 130l-3-41.6-28.4 15.3 54.3-47z"/><path fill="#fafaf8" d="M182.2 73.6l-16.7 1.3 1.8 28.7 24.3 1.4z"/><path fill="#c9c5b4" d="M25 124h3v14h-3z"/><path fill="#819aa0" d="M64.2 147.7l68.5 1.4-47.3-21.6 39-7.5z"/><path fill="#adad9f" d="M229 129h13v19h-13z"/><path fill="#9e9c8d" d="M-13-11l-3 35 76-1z"/><ellipse cx="14" cy="138" fill="#070803" rx="1" ry="15"/><path fill="#d9ebf4" d="M161.2 111.5l-18.8-2.2-17.2-48.8-11.6 23.7z"/><path fill="#b1a691" d="M87 114l-44 29 18 31z"/><path fill="#ccc9c1" d="M56 29l83-2-44 21z"/><path fill="#757067" d="M189.6 147.4l-32.7-31.9 39.5 18 18.6-7.6z"/><ellipse cx="233" cy="127" fill="#403823" rx="20" ry="2"/><path fill="#c3bcab" d="M178 122l-37-5 11-10z"/><path fill="#b2cad5" d="M123 135l1-14-25 11z"/><path fill="#6b675b" d="M41.7 128.8l13.8-6 29.7-15.1-39.1 35.2z"/><path fill="#2d2a22" d="M39 111h1v19h-1z"/><path fill="#d4d1c1" d="M41 114h2v20h-2z"/><circle r="1" fill="#151615" transform="rotate(1.3 -5524 9005.6) scale(12.95256 7.34512)"/><path fill="#c0bfb5" d="M216 92l55 39-70-25z"/><path fill="#38382f" d="M23 119h2v26h-2z"/><path fill="#eae9ec" d="M109.6 102.7v-1l34.8-2.4v1z"/><path d="M9 137h1v14H9z"/><path fill="#f3efe9" d="M152.3 56l-12.9-16.2-32.1.3-14.5 17.2z"/><circle r="1" fill="#edeae5" transform="matrix(1.56443 19.19969 -10.74023 .87514 64.7 55)"/><path fill="#d2cfc6" d="M55.4 31.4l-2.6 42.3 24.7 21.4-48.6 7.8z"/><path fill="#6a6458" d="M80 98h6v18h-6z"/><path fill="#d2cdc5" d="M81 58h76v5H81z"/><path fill="#444338" d="M1.3 134l16.8-12.7.6.8-16.8 12.6z"/><path fill="#cdc0ab" d="M88.5 115.2L66 136.1l51.6-22.9-16.7-2.8z"/><circle r="1" fill="#a7a5a0" transform="matrix(26.50052 70.58852 -10.13582 3.80521 255 14.7)"/><path fill="#465e62" d="M125.5 152v-3l27 1v3z"/><path fill="#acbcd6" d="M143.3 165.1l-10.6 1.2-6.2-2.6 61.6-11z"/><circle r="1" fill="#c8c4b1" transform="rotate(84.9 -65.1 81.2) scale(7.54228 1)"/><path fill="#46463e" d="M42.5 109.6l1-.1 2 23h-1z"/><path fill="#978d77" d="M55.6 172.2L32 157.4l-23.7 2.5L-2.6 174z"/><path fill="#d8d5d0" d="M189 25h23v82h-23z"/><path fill="#cecab9" d="M15 128h2v14h-2z"/><path fill="#dfded5" d="M50.4 103l-12.6 3-.2-1 12.6-3z"/><ellipse cx="33" cy="126" fill="#413d35" rx="1" ry="14"/><circle r="1" fill="#bebeb8" transform="matrix(26.72272 63.37994 -10.36298 4.36931 236 38.7)"/><path fill="#e7e6e3" d="M119.7 116.2l-25-11 2-46.7 8.3 21.1z"/><path fill="#a7b5b7" d="M65.9 126.4l.3-1 70 24.2-.4 1z"/><circle r="1" fill="#a49d93" transform="matrix(-26.56866 6.67359 -1.92902 -7.67977 159.9 169)"/></g></g></svg>