<svg xmlns="http://www.w3.org/2000/svg" viewBox="0 0 1208 966"><defs/><filter id="a"><feGaussianBlur stdDeviation="12"/></filter><rect width="100%" height="100%" fill="#324c45"/><g filter="url(#a)"><g fill-opacity=".5" transform="translate(2.4 2.4) scale(4.71875)"><circle r="1" fill="#c1d4c5" transform="rotate(-4.9 1092.9 -1066.6) scale(190.42441 133.97755)"/><circle r="1" fill="#c6ded3" transform="matrix(22.80098 -33.83601 77.53053 52.24527 105 78.3)"/><circle r="1" fill="#293e34" transform="matrix(-2.29421 -11.09733 107.53481 -22.23126 168.5 151.5)"/><circle r="1" fill="#37584e" transform="matrix(-20.93952 28.47927 -72.90142 -53.60111 226.7 34.7)"/><circle r="1" fill="#2d3d34" transform="matrix(1.85042 9.26042 -80.96516 16.17843 161.4 186)"/><path fill="#2f342a" d="M36 113l24-25-64-58z"/><path d="M36.8-7.6L13.6-16l6.9 61.1 8.4-40.6z"/><circle r="1" fill="#b2cabb" transform="matrix(-30.22322 5.1032 -7.3497 -43.52789 90.7 120)"/><path fill="#364b3e" d="M28 200l85 19-102-70z"/><path d="M11 40L-3-16l-8 52z"/><circle r="1" fill="#fff" transform="matrix(.43318 1.81935 -100.52438 23.93416 213.8 156)"/><path d="M145.1 23.4L93.3-16l49.5 45.4 82.4 34.3zm56.3 4.9L120.6-16l116.5 72.3 33.9 3.3z"/><ellipse cx="214" cy="203" fill="#789587" rx="88" ry="25"/><path fill="#fff" d="M130.6 30.8l.5-1 128.3 65.4-.5 1z"/><path fill="#354842" d="M129.7 50.1l57.7 53.1-17.3-35.9-58-37.6z"/><circle r="1" fill="#b2e4d5" transform="matrix(1.86695 -3.41373 62.8971 34.398 172 25.5)"/><path fill="#303a29" d="M77 186l-30-43 67 33z"/><path fill="#f0fdf4" d="M251 95l-23 2-15-26z"/><circle r="1" fill="#b1c1b3" transform="matrix(-16.0366 -34.6822 3.49415 -1.61565 26.8 71.8)"/><path fill="#0a100c" d="M156 173h72v9h-72z"/><circle cx="66" cy="29" r="37" fill="#9bafa4"/><path d="M56.4-21.2l2.6-1.4 28.6 53.8-2.6 1.4z"/><path fill="#c7ded5" d="M162.8 129.1l22.3-24.3 24.2 13.3-9.2 6.7z"/><path fill="#1b332b" d="M194.5 72l5.7-7 23.3 19-5.7 7z"/><circle r="1" fill="#f9f2e0" transform="matrix(1.53523 -.70938 17.96325 38.87602 43 151.7)"/><circle r="1" fill="#fff" transform="rotate(-21.8 185.8 6.8) scale(1.51393 71.97431)"/><path fill="#fff" d="M92.3-16L126.1.4 80.7-16l54.4 49.3z"/><path fill="#0b170f" d="M-1.7 11.9l28.9 71.9 19.4 48-30.7-54.2z"/><circle r="1" fill="#fffff4" transform="matrix(-17.35885 9.5018 -1.10564 -2.0199 108.2 187.2)"/><path fill="#000700" d="M85.8 215.6l53.2-26.4 28.2-8.7-24.5-1.3z"/><path fill="#546e5f" d="M32.5 89.2l37.9-28.9-40.9-36L61 82.7z"/><path fill="#f0dfe0" d="M271 39l-26.6-21.4-14.4-1.4 9 3.9z"/><circle r="1" fill="#323526" transform="matrix(-.93483 .3551 -38.58126 -101.56587 14 95)"/><circle r="1" fill="#f4eae9" transform="matrix(-.67516 1.3179 -65.43174 -33.52072 234.5 16)"/><path fill="#22362b" d="M204.8 56.4L260 90.6 244.3 155l6.7-81z"/><ellipse cx="123" cy="98" fill="#adc6bc" rx="51" ry="42"/><circle r="1" fill="#7ca69f" transform="matrix(63.38955 36.23674 -4.18507 7.32101 198.8 15.8)"/><path fill="#000c02" d="M224 13l38 18-37-5z"/><ellipse cx="170" cy="191" fill="#98b6ac" rx="24" ry="9"/><path fill="#c8dbd2" d="M37.6 5.4L43.8-5l32.6 19.5L70.2 25z"/><ellipse cx="150" cy="143" fill="#5f7e75" rx="50" ry="15"/><circle r="1" fill="#5d7c6c" transform="matrix(8.04844 7.00413 -10.59001 12.16898 46.1 24.3)"/><path d="M114-16l22 38-34-33z"/><path fill="#c7dad1" d="M87 35l29 17-34-68z"/><circle r="1" fill="#000301" transform="rotate(-100.4 159.5 -1.7) scale(1.56301 42.88241)"/><path fill="#f2e7d8" d="M119.5 199L74 185.6l-20.7-15 12.6 17z"/><circle r="1" fill="#0e1915" transform="rotate(169.8 89.7 80) scale(57.65209 2.00543)"/><path fill="#a4c0b3" d="M223.6 146.6L222 143l48.4-21.6 1.6 3.6z"/><path fill="#fff" d="M155.7-2.8L204.9 28l-.6.9L155.1-2z"/><path fill="#4a5849" d="M68.8 152.5L41.4 92l22.8 88 31.5 11.5z"/><path d="M44.8 185.7L79.6 211l-2.4 3.3L42.4 189z"/><path fill="#82aeaa" d="M59 213l-40-61 9 34z"/><path fill="#9cc6bd" d="M211.2 86.4L152 54.9l2.8-5.3L214 81.1z"/><path fill="#06130b" d="M132.2-16l43.6 37.4 70.3 30.9-58.5-32.8z"/><circle r="1" fill="#f9fcf4" transform="rotate(-10.8 942.5 -1028.2) scale(77.78422 1)"/><path fill="#0b1811" d="M242.4 110.9l28.6 14.6-47.1 24.1 42.1-11.7z"/><path fill="#759c8e" d="M266.8 110.7l-10.7 9-29-34.4 10.8-9z"/><path fill="#3f5345" d="M231 219l18-40-116 33z"/><circle r="1" fill="#000500" transform="matrix(15.9517 -6.30154 .70179 1.7765 125 168.4)"/><path fill="#141b13" d="M20.4 36.7l2.4-34 2.3 32.9 16.1-50.1z"/><path d="M260.2 25.7l-.5 1-75.9-40.4.5-1z"/><path fill="#2a3934" d="M163 60l16 38 6-22z"/><path fill="#fffdf7" d="M220.5 93.2l1-17.3 11.8 23.9 11.7-1.1z"/><path fill="#2b3325" d="M23.5 113.2l20.4 71.7-13.2-14.5 2.1-14.5z"/><path fill="#9bc0b8" d="M192.2 90.8l-28.6-29.4 24.3 37.5 45.7 12.1z"/><path fill="#c1d0c4" d="M73 136l23-1-46-57z"/><path fill="#f7efe4" d="M166.2 166.1l-55.7 18.4 30.5-15.7 40.1-8.2z"/><path fill="#313e2d" d="M17.1 157l-9-37.2 11.5 15.3 2.7 53.7z"/><path fill="#a8d1c2" d="M185 36l-57-52 1 26z"/><path fill="#192119" d="M53 93.1L27.6 63l16 35.8 2.7-27z"/><path d="M185.1 99.7l34 11.7-.2 1-34-11.8z"/><circle r="1" fill="#b9c6b7" transform="rotate(69.7 -56.8 81) scale(61.01834 1)"/><path fill="#ddf4e6" d="M13 0h4v23h-4z"/><path fill="#040902" d="M106.9 161.2l37.1-13.3-8.6 6-45.9 17.7z"/><path fill="#fff" d="M139.3 33.8l-.6.8-26-20.4.6-.8z"/><path fill="#09130e" d="M135.4 49.4l-.7.7-38-35.5.6-.7z"/><circle r="1" fill="#e7ece3" transform="matrix(-.25496 -2.273 40.72544 -4.56809 132.3 127.7)"/><path fill="#fff" d="M194.8 21.1L241.6 46l-.4.9L194.4 22z"/><path fill="#fffefb" d="M214.7 158.9l56.3-24.5-11 8.8-37.2 14.7z"/><path fill="#ceddd4" d="M48.1 35.5l.6 11.9 27.7 4 9.9-14.3z"/><path fill="#121914" d="M20.3 51.1L17.5 7.5 15.6-16 30.3.4z"/><path fill="#f0f3ed" d="M187.9 54.7l-44.6-15.8 120.2 56.4-61.7-28.4z"/><path fill="#04100b" d="M74.2 5.1L48.8-.3l1-4.8L75.2.3z"/><path fill="#3a665b" d="M179 101l-17-24 6 19z"/><path fill="#041005" d="M229.3 71.6l31.8 14.8L239.4 70l-28.3-7.2z"/><path fill="#d0e3d9" d="M149 97l12-14-51-42z"/><path fill="#88afa2" d="M254 146.4L183.8 170l48.8.9 38.4-21z"/><circle r="1" fill="#394c45" transform="matrix(.42831 -.90363 36.29423 17.20324 165.3 51.3)"/><path fill="#839b91" d="M171 181l6 19 43-23z"/><path fill="#4e655c" d="M77 31l30-12-11-4z"/><path fill="#d0d8cb" d="M36.6 39.9l-13.9 2.2 9.1 25.8 15-6.9z"/><path fill="#19251e" d="M216 180.1l55-14.1-55.8 19.1-23.1-4.9z"/><circle r="1" fill="#7ca496" transform="matrix(-3.0012 3.74257 -19.76149 -15.8469 218.8 50.5)"/><path fill="#6f8d7f" d="M162.4 167l-33.8 18.8 60.1-17.3-8.6-1z"/><path fill="#9dbfb3" d="M222.7 134.3l-7.9-23.2 56.2-4.7-42.8-3.9z"/><path fill="#779385" d="M89.8 136.7l-23-58-34.3-53.5 42.1 40.9z"/><path fill="#d6e6dd" d="M46-16l21 5-36 33z"/><path fill="#f0e5e2" d="M271 104.8V89.5l-18.5-15.6-4.8-4.6z"/><circle r="1" fill="#182419" transform="matrix(-.93728 .34857 -15.443 -41.525 38 111.5)"/></g></g></svg>