<svg xmlns="http://www.w3.org/2000/svg" viewBox="0 0 1120 1400"><defs/><filter id="a"><feGaussianBlur stdDeviation="12"/></filter><rect width="100%" height="100%" fill="#4a3924"/><g filter="url(#a)"><g fill-opacity=".5" transform="translate(2.7 2.7) scale(5.46875)"><circle r="1" fill="#fdffff" transform="matrix(-53.45094 -180.63713 172.08256 -50.91963 113.7 114)"/><circle cx="110" cy="19" r="79" fill="#fff"/><circle r="1" fill="#200600" transform="rotate(76.6 -99.8 120.1) scale(33.79445 67.97154)"/><circle r="1" transform="matrix(-9.26474 -13.03138 61.10655 -43.44408 182.6 83)"/><circle r="1" fill="#001a01" transform="matrix(16.99317 1.11383 -4.63472 70.70976 203 172)"/><circle r="1" fill="#f2fdfd" transform="matrix(110.69601 28.0348 -9.4999 37.51059 55.8 16)"/><circle r="1" fill="#4b4310" transform="matrix(-37.24369 -35.94788 7.93362 -8.2196 58.3 90.2)"/><circle r="1" fill="#c9e3e7" transform="matrix(-38.64249 -34.65817 24.4201 -27.22745 14 117.3)"/><circle r="1" fill="#552e0f" transform="matrix(114.76592 -59.2351 6.03801 11.69843 28.9 181)"/><ellipse cx="131" cy="243" fill="#cbc8b2" rx="109" ry="22"/><circle r="1" fill="#ea9771" transform="matrix(17.69668 -29.38953 17.54698 10.56578 104.8 143)"/><path fill="#8d793d" d="M44 189h71v28H44z"/><path fill="#002914" d="M206.2 211.9l-30.5-27.5 20.1-22.3 30.5 27.5z"/><circle r="1" fill="#0b2d06" transform="rotate(61 23.6 198) scale(13.12092 54.62541)"/><circle r="1" fill="#e4e3dd" transform="matrix(9.13113 -34.18509 25.65455 6.85255 107.7 81)"/><circle r="1" fill="#342705" transform="matrix(3.0482 13.52595 -54.7152 12.3306 37.4 189.2)"/><path fill="#d0cebd" d="M121 148h48v48h-48z"/><circle r="1" fill="#86a38f" transform="matrix(-19.42057 5.16742 -10.1576 -38.1751 175.9 133.6)"/><path fill="#837144" d="M-16 250.5l1.6-18.8 84.6-48.8 48.5 13.3z"/><circle r="1" fill="#abc1b5" transform="rotate(34.6 56.8 321.9) scale(113.16983 21.31307)"/><circle r="1" fill="#2f5c80" transform="matrix(-38.78282 11.35314 -2.9859 -10.19997 24.5 164.7)"/><path fill="#001601" d="M181.2 233.2l36.2-27.8 1.6-46.2-26.2 45.3z"/><ellipse cx="96" cy="168" fill="#d77237" rx="31" ry="6"/><path d="M193 121h11v16h-11z"/><circle r="1" fill="#a14b1c" transform="matrix(-1.4962 -7.62624 28.53808 -5.59895 93.7 143)"/><path fill="#e3d7c7" d="M193 191l-8-1 2 21z"/><circle r="1" fill="#d1d6c9" transform="rotate(-11.7 375.5 13.5) scale(12.80047 61.73368)"/><path fill="#ffe7e3" d="M55.6 148.7l-2-4.6 72.8-30.8 2 4.6z"/><path fill="#adab93" d="M43 209h143v26H43z"/><path fill="#001300" d="M201.6 64.2l9.8 6.9-23 32.7-9.8-6.9z"/><path fill="#ffd5cd" d="M115.6 164.7l9.8-16.2-19.3 4.2-20 9z"/><path fill="#534e24" d="M49 72L13 61l11-19z"/><path fill="#e8eced" d="M201.3 55.4l-15.6-14.7L79.7-16l101.2 74.1z"/><circle r="1" fill="#09141a" transform="matrix(1.62566 3.22037 -57.8435 29.19976 25 181.2)"/><path fill="#7a9b87" d="M176.8 78.8L212 51l-28.5 29.6-16.9 72.9z"/><path fill="#a4a48e" d="M135.1 98.7l-5.6-7 47.4-38.4 5.6 7z"/><path fill="#d7d8d2" d="M52 75L-16-3l136 89z"/><path fill="#2e2000" d="M171 75.7l8.7 10.9-46.6 37.7-8.8-10.9z"/><circle r="1" fill="#6a491e" transform="rotate(-18.4 645 -199.2) scale(9.87345 23.10223)"/><path fill="#003a00" d="M209 53l-18 13-10-6z"/><path fill="#78a2c9" d="M-16 151l35 13 44-21z"/><path fill="#002310" d="M206.3 139.1l-9.4-6.4-.4-23.8L219 89.4z"/><path fill="#788e80" d="M170 138h34v28h-34z"/><circle r="1" fill="#615331" transform="matrix(34.20283 32.34177 -4.08781 4.32304 62.5 89.4)"/><path fill="#979d83" d="M24.6 91.3l61.8 40.6-40.9-44.5 11.8-23.6z"/><path fill="#695023" d="M-12 250l84-70-82 27z"/><path fill="#686849" d="M185 80.8l-21.8 13.6-61 61.6 34.6-16.7z"/><path fill="#949685" d="M214.6 213.2l12.7 26-36 17.6-12.6-26z"/><circle r="1" fill="#623a1e" transform="matrix(3.46795 12.13666 -3.1496 .89997 78.3 147.3)"/><path fill="#6d9798" d="M129 145.6l-39.6 3.6-14.3 6.2h23.1z"/><path fill="#cb6f48" d="M121.9 145.7l-4 26.8 9.2-56.8-42.7 25z"/><circle r="1" fill="#a8beb9" transform="rotate(56.9 6.1 21) scale(12.88651 45.88255)"/><circle r="1" fill="#c1beaf" transform="rotate(-93.3 177.4 44.6) scale(68.32633 15.12421)"/><path fill="#00230f" d="M171.7 189.1l47.3-18.3-10.2-9-27 16.2z"/><path fill="#2c3940" d="M67.3 160.9l1.7 13.9L-31.3 187l-1.7-13.9z"/><path fill="#d3cfc6" d="M123 92L18 33l61 63z"/><path fill="#969f8b" d="M188.9 189.7l-75.4 8.9 76.6 3.1 9.4-14.4z"/><path fill="#9aaea3" d="M170 110l49-28-57 65z"/><circle r="1" fill="#928c71" transform="matrix(44.96122 -22.41684 4.9072 9.84232 38.6 227)"/><circle cx="70" cy="148" r="7" fill="#e18548"/><path fill="#e9eae9" d="M14 21l113-37-23 107z"/><path fill="#dad5c9" d="M0 106h41v26H0z"/><circle r="1" fill="#948c6e" transform="matrix(-4.61264 9.39486 -18.95352 -9.3057 108.5 216.5)"/><path fill="#c46a32" d="M93 156l-24 17 1-12z"/><path fill="#00230f" d="M219 215.4l-18.5-28.5-13.4 23.3.4 11.3z"/><circle r="1" fill="#1f6255" transform="rotate(-13.1 779 -791.5) scale(14.03994 4.47336)"/><circle r="1" fill="#b3bbb1" transform="matrix(7.8886 -24.13518 56.5285 18.47636 190.4 10.5)"/><path fill="#1a1304" d="M51 175l-67 11 17 14z"/><path fill="#d47153" d="M120.1 172.6l-5.1.4 1.5-20 11.7 12.2z"/><path fill="#cdc8bd" d="M103 123l40-32-77-12z"/><path fill="#4e2511" d="M97.4 155.6l-15.9.9 15.3-16.9-48 28.4z"/><circle r="1" fill="#b7c2bb" transform="matrix(-30.40899 6.40818 -1.90802 -9.0542 8 42.8)"/><path fill="#8e9787" d="M152.5 163.4l52.4.3-23.8 10.6-35.9-2.1z"/><ellipse cx="191" cy="186" fill="#31614b" rx="19" ry="5"/><circle r="1" fill="#000e00" transform="rotate(141.7 79 80.4) scale(12.8293 1.87962)"/><circle r="1" fill="#bfbaaa" transform="rotate(-118.6 106.7 109) scale(29.25926 43.09067)"/><path fill="#0c0c01" d="M172.6 79.6l10.6-12.5-16.7 8.5-37.3 35.8z"/><path fill="#ffd7d8" d="M127.8 114.9l1.8 3.5-5.4 2.7-1.8-3.5z"/><circle r="1" fill="#7e6e4e" transform="matrix(-2.74288 -5.7552 50.33964 -23.99149 26.1 222)"/><path fill="#bfbcae" d="M180 156l-71 24 50-38z"/><ellipse cx="71" cy="178" fill="#341d06" rx="31" ry="4"/><path fill="#82927c" d="M153 138l-37 8 63-51z"/><path fill="#7e7552" d="M63.6 120.2l-1.9-13 41.8 16.8-16 4.7z"/><path fill="#a5ab9d" d="M114.3 167l62.1-48.9 42.6 41.1-39.7-27z"/><path fill="#cbcfca" d="M181.4 75l-3.6-13.4 20.5-12.1-37.1-9.9z"/><path fill="#cecbc2" d="M48 75V43l21 27z"/><circle r="1" fill="#dcdcda" transform="matrix(4.01316 10.61289 -50.02791 18.91757 133.5 59.6)"/><path fill="#929b81" d="M29 65.2l15.9 26.1L4.3 59.7l3.6-6.3z"/><path fill="#9ebedc" d="M38 153l-45-5 75-12z"/><path fill="#bab6a8" d="M148.4 65.6l.1 27.6-11.8 5.1-33.1 22.4z"/><path fill="#c4c1b4" d="M107.6 185.6l44.4 11.6 28.6-16.6-62.7-2.5z"/><circle r="1" fill="#433d1f" transform="matrix(9.92645 12.80733 -2.07583 1.60889 70.3 93.1)"/><path fill="#acccc1" d="M202 82h2v11h-2z"/><path fill="#a29a7c" d="M138 207l-35-38 10 52z"/><path fill="#5f5a39" d="M57.7 98.5L42.5 63.9 19.2 41.1l20.1 36.2z"/><path fill="#00220f" d="M190.3 97l-10.8-10.5L215.7 49l10.8 10.4z"/><path fill="#6f5126" d="M54 181h48v17H54z"/><path fill="#843e19" d="M79.9 154.1l12.4-15.7 16 7.4-24 5z"/><path fill="#fdf4f3" d="M117 119.5l-37.7 16-.4-1 37.8-16z"/><path fill="#b16638" d="M67 167l31 9 25-11z"/></g></g></svg>