<svg xmlns="http://www.w3.org/2000/svg" viewBox="0 0 1400 1120"><defs/><filter id="a"><feGaussianBlur stdDeviation="12"/></filter><rect width="100%" height="100%" fill="#43424c"/><g filter="url(#a)"><g fill-opacity=".5" transform="translate(2.7 2.7) scale(5.46875)"><circle cx="117" cy="88" r="193" fill="#fff"/><circle r="1" fill="#070702" transform="matrix(-40.74777 56.89063 -42.42765 -30.3887 138.7 160.7)"/><circle r="1" fill="#fff" transform="matrix(-254.69557 12.4567 -2.96025 -60.52663 98.2 47.2)"/><circle r="1" fill="#fff" transform="rotate(86.8 -69.9 103) scale(210.92152 43.18018)"/><circle r="1" fill="#fff" transform="matrix(56.25919 -7.5548 33.83515 251.96411 251.3 135.1)"/><circle r="1" fill="#22221e" transform="rotate(58.4 -51.9 146.4) scale(19.02934 30.52023)"/><path fill="#fff" d="M124 132h12v51h-12z"/><circle r="1" fill="#fffffc" transform="rotate(-60 255.3 -101.1) scale(110.10264 21.04219)"/><path fill="#868782" d="M175 104l-57-93-24 73z"/><circle r="1" fill="#fcfcf9" transform="matrix(-37.25253 40.79673 -36.6268 -33.44487 32.2 157.8)"/><path fill="#f2f2f1" d="M155 172l116 3-34 44z"/><path fill="#292929" d="M208 146l-42-54-57 36z"/><path d="M135 67h20v8h-20z"/><ellipse cx="79" cy="27" fill="#f6f6f2" rx="33" ry="51"/><ellipse cx="175" cy="30" fill="#f4f5f1" rx="26" ry="69"/><path fill="#f5f5f0" d="M137.2 119.9l-29-58.7 51.7-5.1-27.6 13.1z"/><ellipse cx="182" cy="151" fill="#fff" rx="3" ry="14"/><path fill="#fff" d="M114 84l-7 28-10-15z"/><ellipse cx="103" cy="180" fill="#3a3a3a" rx="23" ry="68"/><path fill="#ebebeb" d="M133.6 184.1l1.6-29.7-15.3-25.7.2 19.9z"/><path fill="#424348" d="M109 24h38v7h-38z"/><path fill="#2e2d2e" d="M133 125l-22-58 3 73z"/><circle r="1" fill="#343434" transform="matrix(10.92083 -67.6635 14.88784 2.40288 151.2 159)"/><path fill="#eaeaea" d="M129.4 183.5l.9-51.3 6.7 42.5-13.3 44.3z"/><path fill="#e9e9e8" d="M234.8 219L271-16 153.8 90.4l29.2 9.9z"/><circle r="1" fill="#343434" transform="matrix(1.74879 -20.3987 5.62634 .48235 194 148.4)"/><path fill="#2d2d2d" d="M174.4 219H55.7l105.1-21.1 21.6-20.2z"/><path fill="#292928" d="M78 103h24v21H78z"/><path fill="#b3b3b3" d="M82 166l2-36-22 3z"/><path fill="#393937" d="M95 67h18v7H95z"/><path fill="#eaeaea" d="M81-16l-97 139L94 99z"/><path fill="#fff" d="M119 140h5v13h-5z"/><path fill="#e5e5e2" d="M114.8 53.2l19.7 59.8 14.4-22.8-75.2-41.7z"/><path fill="#424242" d="M80.9 100.4l49.7 74.3-6.8 20.9-34 1.2z"/><path fill="#050405" d="M149 73h7v8h-7z"/><ellipse cx="239" cy="157" fill="#e7e7e7" rx="39" ry="203"/><path fill="#f3f5ea" d="M124 26.9L105-1.3 134-21l19 28.2z"/><path fill="#909190" d="M147.2 16.2l-7.1 1.2-12.7 14.9 4.9 54.4z"/><circle r="1" fill="#3e3e3e" transform="matrix(16.78327 6.21985 -8.86122 23.91058 167.2 123)"/><path fill="#404040" d="M73 121l23-26 29 67z"/><path fill="#e2e2e2" d="M191.9 176.4L271 181l-109.6-1.9 16.3-8z"/><path fill="#4e4d55" d="M128 51l-10 12 7-21z"/><path fill="#3a3a3a" d="M142.3 105.1l-21 12.8 51.6 53 10.7-36.3z"/><path fill="#cecece" d="M100 77h12v33h-12z"/><circle r="1" fill="#e1e1e1" transform="rotate(75.5 8.8 120.9) scale(24.87539 6.00363)"/><path fill="#303030" d="M172 177l-23 40-14-31z"/><path fill="#ebebeb" d="M0 162h81v42H0z"/><path fill="#454545" d="M161.5 128.3l-53.2 48.6 57.6-64.5-95.7 4.5z"/><path fill="#98999a" d="M101.8 30.8l22.6-18.3 3.8 4.7-22.6 18.3z"/><path fill="#fff" d="M181 142h5v10h-5z"/><path fill="#e7e6e6" d="M271 43l-60 114-56-115z"/><path fill="#4a4b46" d="M153.6 65.8l-22.1 12.8-1.5-8.5 14.3-5.6z"/><path fill="#d0cfd0" d="M158.6 83.6l16.9-13.2-26.5 35-18.4-34.2z"/><path fill="#727175" d="M114 38h33v5h-33z"/><path fill="#585857" d="M76.5 147.6l31.4 35.4-34.1-40.7 6.3-11.2z"/><path fill="#fff" d="M129 173h3v24h-3z"/><path fill="#4b4b4b" d="M198.5 155.7l2.8-15.2-8.4-17.5-4.9 58.8z"/><path fill="#4f4f4e" d="M94 73h2v33h-2z"/><circle r="1" fill="#313131" transform="matrix(-1.1116 .13963 -3.61525 -28.78139 117.3 97)"/><path fill="#ecede7" d="M135 61l-12-1-1 39z"/><path fill="#393939" d="M141 154.5l-10.1-33.2 12.7-22.6 4.8 10.7z"/><path fill="#e7e7e6" d="M132.9 89.2l-26-26.1L-16 146.6 60.5-16z"/><path fill="#e5e5e4" d="M204.3-16l-70.4 75.6-11-1.3 84.6-23.1z"/><path fill="#333" d="M187.5 134.9l-37 40.1 28.1-3.2.1-43.4z"/><circle cx="133" cy="47" r="4" fill="#feffff"/><path fill="#e8e8e8" d="M176 206l95-4-85-28z"/><path fill="#d9d8d9" d="M108 73l-9-3-6 15z"/><path fill="#161522" d="M119 57l-1 .3-5-16.3 1-.3z"/><path fill="#e1e1e1" d="M84 132l-16-12 16 27z"/><path fill="#e6e6e4" d="M145 0h54v64h-54z"/><path fill="#e7e7e3" d="M62 30l16-13 49 31z"/><path fill="#e9e9e9" d="M129 132h6v11h-6z"/><path fill="#383838" d="M112.8 76.8l11.5 45.7-9.2-51.1-14.3-4.5z"/><ellipse cx="172" cy="181" fill="#f2f2f2" rx="2" ry="5"/><path fill="#e4e4e5" d="M164.2 96.1l-1-112.1 77.9 231.6-60.3-116.5z"/><circle cx="135" cy="171" r="3" fill="#eaeaea"/><path fill="#4a4b51" d="M124 25l20 3 1-6z"/><path fill="#3a3a3b" d="M171 167l20 2 1 6z"/><path fill="#393939" d="M127 166l1 25-31-53z"/><path fill="#4d4d4d" d="M79 105l33 37-39-20z"/><path fill="#383838" d="M137 219l-3-41 31-11z"/><path fill="#e4e6e0" d="M131.8 39.6l-21.3-7.9 12.3-45.4-34.4 33.9z"/><path fill="#afafae" d="M100.5 105.7l-8.9-27 27.2 5.1L100 96.7z"/><path fill="#363734" d="M147.4 66.7L130.3 71l2.4 4.2 24.5-4.2z"/><path fill="#eaeae9" d="M100.8 85.9L-16 61.2.7 210.5l78-104.7z"/><path fill="#d0d0d1" d="M119.9 86l7.4 20.5-.7-21.9 10.3 36.6z"/><path fill="#f9f9f9" d="M186.3 145l-5.6 22.3-1-.3 5.6-22.3z"/><circle r="1" fill="#616269" transform="matrix(1.88733 1.57247 -2.86042 3.43318 131.5 53.2)"/><path fill="#959496" d="M142 102l2-20h-11z"/><ellipse cx="118" cy="43" rx="1" ry="4"/><ellipse cx="255" cy="167" fill="#e6e6e6" rx="60" ry="41"/><path fill="#dfe0dd" d="M151 34.8l-27 3.8 30.4-15.3-24.2 11.6z"/><path fill="#3f3f3f" d="M153 99l37 34-56 35z"/><path fill="#dcddd7" d="M128.7 34.7l9.9-5.2 1.5 23.5 32.8-1.1z"/><path fill="#f2f3f1" d="M120.4 30.6l4.2 18.5-1 .3-4.2-18.5z"/><path fill="#393943" d="M129.9 24.8L121 53.5l-1-.3 8.8-28.7z"/><path fill="#2a2b2a" d="M97 68h13v4H97z"/><circle r="1" fill="#474747" transform="matrix(5.6402 13.35854 -10.07975 4.25583 91.4 199.8)"/><path fill="#3b3b3b" d="M114 88l-5 72 23-45z"/><path fill="#fff" d="M130 195l-15 24 10-3z"/></g></g></svg>