<svg xmlns="http://www.w3.org/2000/svg" viewBox="0 0 1400 933"><defs/><filter id="a"><feGaussianBlur stdDeviation="12"/></filter><rect width="100%" height="100%" fill="#6d4537"/><g filter="url(#a)"><g fill-opacity=".5" transform="translate(2.7 2.7) scale(5.46875)"><ellipse cx="132" cy="74" fill="#e4c78a" rx="156" ry="169"/><circle r="1" fill="#ffffcb" transform="matrix(-15.19064 .79992 -3.05136 -57.94622 66 29)"/><circle r="1" fill="#4c1919" transform="rotate(134.1 109.8 82.6) scale(45.24319 30.32132)"/><path fill="#540700" d="M58 94L40-16 22 91z"/><ellipse cx="1" cy="45" fill="#fff8b3" rx="20" ry="82"/><circle r="1" fill="#5c371e" transform="matrix(6.67187 16.43083 -57.33744 23.28232 106.4 92)"/><ellipse cx="144" cy="120" fill="#dde7bb" rx="41" ry="21"/><path fill="#3d0000" d="M129 182l17-52 59 55z"/><path fill="#450000" d="M181 130l25 35 65-22z"/><path fill="#fbcc7c" d="M11 138.9l27.3-40.7 54.8 37-27.4 40.6z"/><path fill="#f2fffd" d="M78 68h25v20H78z"/><circle r="1" fill="#dcdfa3" transform="matrix(-5.48548 12.5869 -40.48353 -17.64306 179.7 62.8)"/><circle r="1" fill="#63301d" transform="matrix(8.53975 -41.23688 17.67404 3.66012 124.6 69)"/><circle r="1" fill="#e3c7a8" transform="rotate(-33 313.4 -319.3) scale(29.71095 14.44787)"/><path fill="#102728" d="M101.9-10.2L90.1 60.4l3.2-2.2L121.2-16z"/><path fill="#662d06" d="M91 154h80v16H91z"/><path fill="#4b1301" d="M271 85.4l-28.3-17.1-46.9 25.1 8.2 18.3z"/><path fill="#c9cfb7" d="M209.5 185L133 103.6l17.3-34.9 24.7 52.9z"/><path fill="#beb2ac" d="M152.6 14.7l44.2-31 20.6 29.6-44.2 31z"/><path fill="#14141d" d="M167.4-16l-41.6 81 1.2 39.6L146.4-8.6z"/><circle r="1" fill="#fff1bc" transform="matrix(12.12965 -37.7233 3.87189 1.24498 37.8 106.4)"/><circle r="1" fill="#a9d0ac" transform="matrix(-7.32435 -3.8027 26.01966 -50.11615 117.6 23.4)"/><ellipse cx="76" cy="96" fill="#000406" rx="18" ry="8"/><path fill="#10110b" d="M40 148l-23 16 20 6z"/><path fill="#dfcde7" d="M209 167l62-21-28 39z"/><path fill="#6b4838" d="M211.8 73.2l-49.1-61.3L210 42.5l38.1 13.9z"/><ellipse cx="22" cy="79" fill="#d27622" rx="8" ry="58"/><circle r="1" fill="#050000" transform="matrix(6.69107 5.36056 -8.15763 10.1824 43.7 0)"/><ellipse cx="255" cy="138" rx="10" ry="8"/><path fill="#e3733f" d="M108.6 70.9L124 94.5l-.5-24.8 24.1-75.3z"/><circle r="1" fill="#fff1bf" transform="rotate(92.1 13 48.4) scale(24.76183 12.9939)"/><path fill="#501b00" d="M45.6 66l-.4-45.2-7.9 13.3-16.9 106.7z"/><circle r="1" fill="#d4cf93" transform="rotate(147 81.7 81.1) scale(7.38313 38.793)"/><circle r="1" fill="#7d2b10" transform="matrix(13.2 20.34616 -6.05601 3.92897 196.6 135.5)"/><circle r="1" fill="#251c0a" transform="rotate(-131.7 94 48.7) scale(26.57881 2.75301)"/><circle r="1" fill="#9a6727" transform="matrix(-2.55412 -28.6183 11.68838 -1.04316 51.2 83.8)"/><path fill="#0e1014" d="M146.6-27.7l3.7 1.4-26.9 70-3.7-1.4z"/><path fill="#5d4023" d="M159 63l31 46-35-22z"/><circle r="1" fill="#f1c48b" transform="matrix(-6.1751 -88.77489 14.98517 -1.04236 5.2 53.7)"/><path fill="#f27a2a" d="M83 116.6l-18.2-3.8 40.3-20.4 20.3.5z"/><path fill="#301608" d="M-2.5 164.1l15-7.1 13.7 10.6-16.5-.6z"/><path fill="#000003" d="M77.8 185h50.5L96 157.6z"/><path fill="#4d3b49" d="M227 3l-19 22 20 20z"/><path fill="#dcc97f" d="M97.7 116.5l39-15.4 4.8 51.7-6.1 13.2z"/><path fill="#b7bfd7" d="M240 108.5l23.3 1 5-22.3-65.6 26.1z"/><path fill="#fafcd7" d="M29.8 130.3l4.5-1.4 20.3-11.5-18.5-18.3z"/><path fill="#02191b" d="M105 56h8v33h-8z"/><path fill="#27201e" d="M165.5 46.5l-28.3-33.7 22.6 20.8 2.2-14.8z"/><path fill="#ded393" d="M176 133.7l16 17.9-14 12.7-16-17.9z"/><path fill="#d4cba4" d="M191.6 63l31.5 48.5-14.4-28 22.2-12.6z"/><path fill="#d0d6e2" d="M271 77.4l-16.6-20.1-8.6 4.1L266.1 75z"/><circle r="1" fill="#e6c3a9" transform="rotate(134.5 93.4 49.6) scale(4.81436 42.02324)"/><path fill="#1e242f" d="M204.3 3.9l-6.4 6.4L183.7-4l6.4-6.4z"/><circle cx="1" cy="19" r="28" fill="#ebc49f"/><circle r="1" fill="#df9e4f" transform="matrix(4.92135 -3.95687 33.50073 41.6665 112 162.3)"/><circle r="1" fill="#e16218" transform="matrix(-5.01968 -5.00117 12.64217 -12.68897 7.7 150.6)"/><circle r="1" fill="#d1696b" transform="matrix(10.43165 -8.2977 39.48412 49.63835 254.7 22.5)"/><path fill="#e4c2a0" d="M207.9 36.5l-37.6 9.1-13-41.2-7.5 19.3z"/><path fill="#f1c888" d="M60.9 122.4l-23.7 11.4-22.7 25.6 10.1 3.6z"/><path fill="#db9b4b" d="M208.4 136.9L271 96.5v31l-48.7 13.1z"/><path fill="#ecb865" d="M78.5 29.3l-23.7-3L88.2-16l2.9 64.2z"/><path fill="#c6daa9" d="M57 71h45v18H57z"/><path fill="#160f00" d="M226.3 174.1l-32.4-3.9 13.8 14.8-38.2-22.2z"/><path fill="#4f3426" d="M209 69l-1-26-26-28z"/><circle r="1" fill="#de9d54" transform="matrix(21.86774 -23.95762 15.91304 14.5249 65.5 164.4)"/><path fill="#d3c695" d="M145.1 27l33 34.5-4.3 20.6-35.7-36.3z"/><path fill="#39291a" d="M231.5 145.7l35.5.3-40.8 14.3-27.2 13.3z"/><path fill="#fc7824" d="M43.2 89l10 18 23.8 6.8-32.6-28.3z"/><path fill="#9a7f15" d="M78 73l19-19-31 12z"/><path fill="#3c504f" d="M142.3 88.7l-.8-12.5-2.6-49.9-12 77.5z"/><path fill="#232118" d="M53 116h29v4H53z"/><path fill="#8f6846" d="M52.5 116.3l18.3-5.8-24.7 18L5.7 158z"/><path fill="#131b24" d="M247 51.9l-25.9 15.4 43.4-16.7 1.8-21.9z"/><path fill="#c2c4b5" d="M151.4 126.8l37.5-20.4L163 98l-21.3-30.6z"/><path fill="#363325" d="M58.3 60.5l-7.7 28.7 51 15.5-51.5-24.3z"/><path fill="#dfc7b5" d="M131.9-16l76.5 38.3 30.5 9-11.4-6.4z"/><path fill="#272c23" d="M121.3 35.8l-4.8 13.6-5.8 14-3.6-10.9z"/><path fill="#efd786" d="M113.7 131l-22 2-1.4-16 22-2z"/><path fill="#524b42" d="M182.6 41.6l-10.1 10.7 11.2 3.7 3.2-12.9z"/><path fill="#202412" d="M140 170l4-41 9 9z"/><path fill="#b9bcaa" d="M134.9 78l-1-20.8 4.6 4.6.1 16.4z"/><path fill="#452511" d="M37.8 74.5l2-81.4 9.1 62.5-22.5 72.5z"/><path fill="#d9ac8a" d="M167.5 30l47.9 12.2-20.2-19.4-3.3 25z"/><path fill="#cfd7c0" d="M100 86l6-33-34 21z"/><path fill="#1c180c" d="M112.4 144l3.7-3-21.3-6.1 6.9-4.6z"/><path fill="#b07b3f" d="M136.9 150.1l-2.4 11.2 17-36.6-13.1-3.1z"/><path fill="#cd5d33" d="M204.2 57.6l2.6-9.7 30.2 9.4-15.4 6.8z"/><ellipse cx="186" cy="123" fill="#08222d" rx="3" ry="12"/><path fill="#c6a874" d="M173.7 185h41.8l-29.8-33.1 29 9.6z"/><path fill="#b35618" d="M21.3 113.4L35.7-52l7 .6L28.3 114z"/><path fill="#000004" d="M181.4 100l-1 2.8-17.8-6.8 1-2.8z"/><path fill="#dfc6b2" d="M210.6 40.3l.5-.9 26.3 12.3-.5.9z"/><path fill="#c9d1cb" d="M186 50.6l14.5 1.9-11.1 7-31.3-37.8z"/><path fill="#4a4025" d="M121.9 101.3l-50.1 27.4 19.3-9.4-18.3 2.6z"/><path fill="#50514a" d="M191.6 39.6L155.1 3.3l-8.9 33.6 6.2-42.7z"/><path fill="#2d1007" d="M244 93l-11-36 29 33z"/><path fill="#dbd7a8" d="M217.2 74.3l11.9-9.3 3.7 4.7-11.9 9.3z"/><path fill="#ebc07a" d="M54 119h19v29H54z"/><path fill="#e7cc8f" d="M52.2 158.7L15.6 185l-27.2-17.4 75.8 4.2z"/><ellipse cx="102" cy="7" fill="#23271c" rx="4" ry="28"/></g></g></svg>