<svg xmlns="http://www.w3.org/2000/svg" viewBox="0 0 1400 933"><defs/><filter id="a"><feGaussianBlur stdDeviation="12"/></filter><rect width="100%" height="100%" fill="#2b3246"/><g filter="url(#a)"><g fill-opacity=".5" transform="translate(2.7 2.7) scale(5.46875)"><circle r="1" fill="#fff7d0" transform="matrix(-251.38003 -42.81448 14.45966 -84.89817 130.6 58.7)"/><circle r="1" fill="#fffde8" transform="matrix(-9.8343 -4.0735 26.52554 -64.03831 92 143.3)"/><circle r="1" fill="#ffe8e4" transform="matrix(-50.68105 4.83638 -4.163 -43.62452 169.6 10.4)"/><path d="M63 185l28-83-107 52z"/><ellipse cx="128" cy="138" rx="22" ry="12"/><circle r="1" fill="#f6cfd2" transform="rotate(162.8 4 59.5) scale(76.99787 12.17295)"/><path fill="#1a0600" d="M-15 45l71 49-43 7z"/><circle r="1" fill="#4f82e9" transform="rotate(-126.6 107.5 50.1) scale(18.95124 22.77507)"/><path fill="#220400" d="M15 36.3l-16-6.1L13-6.3 29-.2z"/><circle r="1" fill="#6a4f4c" transform="matrix(-3.12478 -27.16226 54.77791 -6.30171 251.9 142)"/><circle r="1" fill="#d3af9b" transform="rotate(-149.7 56.8 19.5) scale(79.84691 43.6276)"/><path fill="#8a0d00" d="M75-19.7l47.6 27.5-11.5 20L63.4.1z"/><path fill="#d7d8d7" d="M39.2 79.5L-16 37.1l226.8 118.7L44.8 89z"/><circle r="1" transform="rotate(169.2 82.5 92.6) scale(11.38995 26.04422)"/><ellipse cx="89" cy="169" fill="#ffdabf" rx="9" ry="59"/><path d="M96 154l34-6-4-33z"/><path fill="#eef1ff" d="M158 153l17-18-31-11z"/><path fill="#090500" d="M35 123h48v17H35z"/><path fill="#f3c596" d="M252.5 38.5l15.3 15.8-32.3 31.2-15.3-15.8z"/><circle r="1" fill="#78656b" transform="matrix(-32.28092 -78.91003 10.23496 -4.18697 233.1 107.2)"/><path fill="#060003" d="M259.5 95.8l-14.3-4.4 5.3-17.2 14.3 4.4z"/><circle r="1" fill="#d9c2c5" transform="matrix(8.64714 -7.17899 27.45252 33.06672 181.4 68)"/><circle r="1" fill="#72492f" transform="rotate(57.3 95.1 241.4) scale(6.44596 26.16677)"/><path fill="#c7ba92" d="M229 138l-33 19-15-13z"/><path fill="#ac86ad" d="M52 104h21v20H52z"/><circle r="1" fill="#caa479" transform="matrix(-14.28602 -4.33374 16.5268 -54.48 36.6 19)"/><path fill="#b0a4b6" d="M132.2 137.5l-25.3-49 21.7 5.9 47.6 24.3z"/><circle r="1" fill="#b29784" transform="rotate(-86.6 106.9 -31.9) scale(33.51912 52.14834)"/><ellipse cy="88" fill="#c57b2c" rx="11" ry="22"/><path fill="#121005" d="M183.6 137l10.4 48-43.7-13.1 11.5-14.2z"/><path fill="#170d00" d="M32 89l-2-19L4 85z"/><path fill="#fff" d="M154 37h21v15h-21z"/><path fill="#78a5c6" d="M230 149h26v10h-26z"/><path fill="#dcd0c7" d="M130 18h113v11H130z"/><path fill="#2c3956" d="M231.3 133.7l39.7 35.5V134l-67.2 29.7z"/><path d="M135.6 145.2l-23.9 2.5-1.3-13 23.9-2.4z"/><path fill="#231200" d="M86.3 110l-12.7-7-20.2 73.5 19.8-12z"/><path fill="#e4c3bd" d="M140 99l-78 86 29-64z"/><path fill="#170000" d="M229 2h12v5h-12z"/><path fill="#bca395" d="M174 31h32v49h-32z"/><circle r="1" fill="#3d3a24" transform="rotate(70.5 63.2 180.7) scale(14.48088 4.0967)"/><path fill="#e7e1d9" d="M172 12L112 1l22 24z"/><path fill="#ddc8a5" d="M39 3l64 25L73 2z"/><circle r="1" fill="#d3ca9c" transform="matrix(1.26745 1.82204 -26.66772 18.5506 247.7 121.8)"/><circle r="1" fill="#535875" transform="matrix(-2.69248 8.2739 -20.4352 -6.65 228.4 93.4)"/><path fill="#e9f3ff" d="M166 132h3v26h-3z"/><path fill="#351b0f" d="M205 124l1 15 14-6z"/><path fill="#171e3e" d="M55 40l-6-11 4-10z"/><path fill="#c5b0a0" d="M14.6 97.7L-16 118l47.6 5.8-5.4-34.2z"/><path fill="#d6d3c1" d="M-3 41l33 21-9 13z"/><path fill="#d9bdb7" d="M206 74h30v8h-30z"/><path fill="#111a10" d="M79.1 148.9l-33.3-30.4-61.8 61.2 71.8 4.5z"/><circle r="1" fill="#b19cb9" transform="rotate(85.3 58.3 183.7) scale(5.5612 19.16038)"/><circle r="1" fill="#feeacf" transform="rotate(168.5 22.6 52.7) scale(32.19717 4.07277)"/><circle r="1" fill="#000c19" transform="matrix(-8.45238 -2.29646 1.19045 -4.38159 40.5 93.4)"/><path fill="#a28a85" d="M218-16l16.9 33.9-56.4-14.3 10.8 15.9z"/><path d="M113 125h5v8h-5z"/><circle r="1" fill="#4b5855" transform="rotate(149.7 81.9 40.2) scale(1.68165 10.33106)"/><path fill="#ccb8a9" d="M251.2 104.9L242.6 61l-2.7 13.6-26.5-20.4z"/><path fill="#423413" d="M19 6l-34 14 36 12z"/><circle cx="250" r="7" fill="#f5eced"/><path fill="#ab886d" d="M36 69.5l-3.5-48.1-18.7 8.4-29.8-3z"/><path fill="#0a040c" d="M158.9 152.1l-34-12.7 16.6-1 38.3 46.6z"/><ellipse cx="138" cy="124" fill="#ccd5e4" rx="3" ry="15"/><path fill="#482206" d="M241 17h15v4h-15z"/><path fill="#3c1622" d="M115 27L93 14l25 3z"/><path fill="#520f05" d="M215.2 152.5l-13 29.2 21.2-20.1 47.6 11.1z"/><path fill="#ccbeb4" d="M216 62l-8-67 14 33z"/><path fill="#553a12" d="M16 68l1 25-25-52z"/><circle cx="227" cy="92" r="7" fill="#d69596"/><path fill="#c0ab94" d="M43.6 56.6l125.3 1.2-60.6-50.7 12.4 16.6z"/><path fill="#ffffef" d="M31 74h4v9h-4z"/><path fill="#e6e8f0" d="M156 127l-7 19 33-7z"/><path fill="#000634" d="M221.1 107.2l-2.5-5.4 6.3-3 2.5 5.4z"/><path fill="#000b14" d="M265.7 118.5l.5.8-38 20.2-.4-.8z"/><path fill="#594c39" d="M65 92.8l-7.1 3.7-2.8-5.3 7-3.7z"/><circle r="1" fill="#736d85" transform="rotate(-19.6 477.3 -493.5) scale(15.55402 7.74861)"/><path fill="#c0914c" d="M-1.1-5.9L13.6.4 1.1 29.9l-14.7-6.3z"/><path fill="#9a7f9c" d="M73.9 118.2l-6.1 4-41.4.5 49.2-18.9z"/><circle r="1" fill="#26301d" transform="matrix(-17.68953 -17.50525 15.45134 -15.614 7.6 152.7)"/><path fill="#624229" d="M67.7 127.4l33.6-33.3-46.4 40.7L67 149.5z"/><path fill="#fcfef4" d="M204 46l-18-8 17 15z"/><path fill="#dfc8c9" d="M57 20h16v19H57z"/><path fill="#afa0b2" d="M218 94.4l-45 14.3 22.1-25.3 30.7 56.1z"/><path fill="#e8eee5" d="M63.3 84.4L11.5 58.2l67.2 39.2 13.2-.8z"/><path fill="#e07c44" d="M73.5 2.3l27.2-12.7 3.8 8.1-27.2 12.7z"/><path fill="#534a33" d="M223.4 74.9l-32.5-12.4 2.7-1.2 22.1 1.5z"/><path fill="#6d626a" d="M55 39.8l20.5-4.4 1.5 6.8-20.5 4.4z"/><path fill="#e0f2f5" d="M181 43.8l8.4 3.2-4.3 11.2-8.5-3.2z"/><circle cx="102" cy="115" r="15" fill="#dececf"/><path fill="#704c47" d="M238.7 29.7l-15.2 17.5 31.5-5.7-31.7-7.4z"/><path fill="#b08d85" d="M215 155.5l-46.7-30.2L179 74l3.3 81.5z"/><path fill="#eceae3" d="M145 13l26 5 9-23z"/><path fill="#b09582" d="M136 92L96 18l97 49z"/><path fill="#feffff" d="M104 51l9 1 3 8z"/><path fill="#22254d" d="M143 137.9l9.4 14.4-17.1-1.8 9.9-31z"/><path fill="#0f130e" d="M184.3 138.3L146.9 185l18.9-43.2-5.1 43.2z"/><circle r="1" fill="#e5b36b" transform="matrix(4.95496 1.46055 -7.91648 26.85697 76.6 169)"/><ellipse cx="126" cy="169" fill="#5375b4" rx="23" ry="10"/><circle r="1" fill="#b4a2a2" transform="rotate(114.9 14.7 69.1) scale(7.2231 60.202)"/></g></g></svg>