<svg xmlns="http://www.w3.org/2000/svg" viewBox="0 0 1400 933"><defs/><filter id="a"><feGaussianBlur stdDeviation="12"/></filter><rect width="100%" height="100%" fill="#2a3146"/><g filter="url(#a)"><g fill-opacity=".5" transform="translate(2.7 2.7) scale(5.46875)"><circle r="1" fill="#fff9ce" transform="matrix(252.54765 35.28007 -11.53944 82.60355 146.3 62.6)"/><path fill="#fffff3" d="M116.6 105.3l-26.4 76.6-20.8-7.2 26.4-76.6z"/><circle r="1" fill="#ffe9e5" transform="matrix(11.18821 -44.54215 46.89659 11.7796 165.5 10)"/><path d="M97.3 157.7l54.4-12.9-28.9-24.5-23.7 29.1z"/><circle r="1" transform="rotate(-145.9 52.2 61.2) scale(15.04399 39.30494)"/><circle r="1" fill="#1a0200" transform="matrix(-36.10006 -25.35723 6.40113 -9.11303 8.5 72.6)"/><circle r="1" fill="#fbd1d4" transform="matrix(3.48406 11.11766 -110.41346 34.60148 4.1 121.6)"/><circle cx="132" cy="169" r="23" fill="#5081f0"/><circle r="1" fill="#1c0000" transform="rotate(-71.3 19.4 -.2) scale(19.78742 8.1688)"/><circle r="1" fill="#930e00" transform="rotate(133 47.6 21) scale(16.26644 29.23018)"/><circle r="1" fill="#6e5655" transform="matrix(-.06668 25.48507 -77.60059 -.20304 255 144.5)"/><circle r="1" fill="#d4ae94" transform="matrix(-2.4112 34.15264 -78.50078 -5.5422 87 57)"/><circle r="1" fill="#0c0c00" transform="rotate(-108.6 77 54.8) scale(24.84205 32.59178)"/><path fill="#cbb8c8" d="M143.2 89.1l41 44-23.4 21.8-41-44z"/><ellipse cx="176" cy="166" rx="11" ry="24"/><path fill="#030003" d="M248.9 74.9L271 87l-9.5 10.9-16.2-7.2z"/><path fill="#f1c4b5" d="M85.5 185l-15.1-.9 19.3-77.9 39.6-18z"/><path d="M115.7 125.1l19.6 10-9 17.8-19.6-10z"/><circle r="1" fill="#f8c692" transform="matrix(19.45625 -21.86929 8.22104 7.31394 245 57.8)"/><circle r="1" fill="#e2b590" transform="rotate(96.9 20.4 32) scale(14.30287 29.48392)"/><path fill="#ddd1a2" d="M187 141h24v14h-24z"/><path fill="#bb9e93" d="M204.7 46.2l6 56.7-103.4 10.9-6-56.7z"/><circle r="1" fill="#2c291e" transform="matrix(-2.46113 9.33007 -21.44448 -5.65672 27.9 88.7)"/><path fill="#774f2e" d="M222 47l49-12-1-43z"/><path fill="#312416" d="M201 67l8-25 11 31z"/><path fill="#ad8cb7" d="M20 119l60-19-12 22z"/><circle r="1" fill="#0b1605" transform="matrix(.97714 -22.77556 60.98846 2.6166 11 159.7)"/><circle r="1" fill="#4b4a6e" transform="matrix(-17.06488 -7.19121 4.5277 -10.74434 226.3 93.3)"/><path fill="#ebf6f0" d="M31.2 67.8l73.7 36-2.1 4.4-73.7-36z"/><path fill="#6b6973" d="M264 166l-111-41 99 5z"/><path fill="#e9f3fc" d="M177.6 137.7l-32.8-14.9 9.7 25 32.7-8.7z"/><path fill="#0d0d17" d="M142 125l11 15-13 4z"/><circle r="1" fill="#decec4" transform="matrix(-.322 -7.68268 33.0537 -1.38536 213 25.3)"/><path fill="#f6ffff" d="M192 64l-21-29-24 5z"/><path fill="#2e0e00" d="M71 103l10 42 6-39z"/><circle r="1" fill="#c87b21" transform="rotate(82.2 -49 42.7) scale(22.56655 10.40337)"/><path fill="#0b0905" d="M153 157h66v13h-66z"/><path fill="#e0daee" d="M111 112l28-4-54 32z"/><path fill="#500000" d="M21.8-16h70.4L71.6 5.5l-4.3-1.3z"/><path fill="#dfe4d2" d="M21 73l12-8-35-24z"/><ellipse cx="29" cy="25" fill="#b98c55" rx="9" ry="37"/><path fill="#c5b68a" d="M190.4 159.4l29.5-24 36.1-21.5 10.6-.3z"/><path fill="#b8a49a" d="M175 31h31v57h-31z"/><path fill="#0f0800" d="M14.4 89.5L28.7 69l5 3.5L19.2 93z"/><path fill="#322810" d="M28-3.4L17.6 32.2 8 29.4 18.3-6.2z"/><path fill="#7da3c2" d="M231 149h25v10h-25z"/><circle r="1" fill="#ffe8b4" transform="matrix(-.45796 -2.624 58.35122 -10.18392 20.7 105.2)"/><path fill="#390907" d="M227 1h14v7h-14z"/><path fill="#373a56" d="M56.5 40.5L48 31.9l-1.3 2.6 7.2-15.4z"/><circle r="1" fill="#a48a81" transform="matrix(-44.11118 -49.1627 10.98718 -9.85824 161 100.8)"/><path fill="#704d2b" d="M201.8 144.4l3.9-16.1 40-14.1 6 2.8z"/><path fill="#23314f" d="M221 146l50 3-42-15z"/><path fill="#3c0913" d="M115.3 28.5l-12.1-7 3.5-6 12.1 7z"/><path fill="#b3a8c2" d="M185 75l34 26 5 36z"/><path fill="#eae7de" d="M150 26l-28-6 74-27z"/><path fill="#3b4655" d="M7 103l15-17 42 6z"/><path fill="#cfd8f0" d="M165 134h4v24h-4z"/><path fill="#16130b" d="M40.8 121.8L63.3 185l21.2-50.8-5.2-5.4z"/><path fill="#52564c" d="M177.3 43.1l-15.5-25.7.9-.5 15.5 25.7z"/><path fill="#f5d4ae" d="M80.4 167l4.3-48.9 11 1-4.4 48.8z"/><path fill="#efe8ed" d="M239-16l32 31-28-13z"/><path fill="#b8bcc9" d="M140 138l-24-31 18-10z"/><path fill="#272636" d="M262.6 118.5L165 185l53.8-22.6 9.9-26z"/><circle r="1" fill="#c6bfc0" transform="matrix(4.02835 7.9403 -16.78234 8.51417 61.4 78.8)"/><path fill="#dfaf7c" d="M114 185l-34-38-13 29z"/><path fill="#b09b97" d="M204.5 30L172.2 8.6l75.4-13.2L193.9 23z"/><path fill="#020300" d="M97 151l43-9-23-16z"/><path fill="#c4ae95" d="M152 49L66 61 60 0z"/><path fill="#6c6971" d="M82.5 41.6l-36.5 7-14 13.9 30.7-21.8z"/><circle cx="222" cy="103" r="4" fill="#00012f"/><path fill="#010200" d="M142.2 177.6l37.3-30.9-12.4-3.1 20.1 41.4z"/><path fill="#fffff9" d="M32 71h2v13h-2z"/><path fill="#b0947b" d="M150.8 33.1l2.7 26-79.6 60.3L88 104.3z"/><path fill="#b88137" d="M-16.5 38.2l38-81.5 11 5-38 81.6z"/><path fill="#653c3b" d="M226 29h10v12h-10z"/><path fill="#6b4f2a" d="M58 131h10v14H58z"/><path fill="#bcb0a4" d="M148.5 97.7l99.8-30.1-.2 17-90.7-6.1z"/><path fill="#baa2a9" d="M155.5 107.7l63.1-12.2 4.6-14.1 14.3 15.7z"/><path fill="#050a01" d="M159.4 154.3l50.4 30-43.5-9.6-.6-28.4z"/><path fill="#fff" d="M195 39l9 15-17-16z"/><path fill="#94a1d3" d="M110 10l32 32-12-21z"/><path fill="#1c1812" d="M45.1 97.1l18.8-4.3-30 1 3.2-18z"/><path fill="#233f7d" d="M121.4 145.3l36.4 14.3-21.2-18.4L91.8 185z"/><path fill="#d36c32" d="M130.1-16L71.9 3.7l8.7 9L131.4-16z"/><path fill="#71201e" d="M226 160h27v10h-27z"/><path fill="#d2d6de" d="M164.2 135.2l-5 15.3-11.4-3.7 5-15.3z"/><path fill="#cdc5c3" d="M213.1 25.1L211 44.6l13.2-5.5L208.1-16z"/><path fill="#b4b1c0" d="M175 104l-47 26 3-20z"/><ellipse cx="222" cy="57" fill="#963b22" rx="6" ry="5"/><path fill="#aa775b" d="M206.7 48.6l-16.8-10.9 5.4-8.3 16.8 10.9z"/><path fill="#ecf1f3" d="M161 35.5l-15.2 9.6L186 56.7l2.5-7.2z"/><circle r="1" fill="#a9856f" transform="rotate(108.5 -9.5 23.3) scale(8.65729 29.02983)"/><path fill="#421d08" d="M238.6 18.1l.3-2 32.5 5.8-.3 2z"/><path fill="#e6e5d0" d="M96.8 50.5l25.2 3-8.9 5.6-2.6-2.5z"/><path fill="#d1b7a7" d="M219 60l24 12 7 31z"/><circle r="1" fill="#383e36" transform="matrix(2.27696 -5.16257 22.87871 10.09071 12.4 136.6)"/><path fill="#686476" d="M73.8 12.1l5.9 23.1-21.5 11.3 17.2-3.3z"/><path fill="#5374bb" d="M67 185l70-33 15 21z"/><path fill="#e9d6ce" d="M57.7 79l11 11.9-42.1 17.8 65-4.7z"/><path fill="#394f6a" d="M250.3 103.9l-34.9-7.1 24.1 7.4-12.6-24.7z"/></g></g></svg>