<svg xmlns="http://www.w3.org/2000/svg" viewBox="0 0 1400 933"><defs/><filter id="a"><feGaussianBlur stdDeviation="12"/></filter><rect width="100%" height="100%" fill="#60513c"/><g filter="url(#a)"><g fill-opacity=".5" transform="translate(2.7 2.7) scale(5.46875)"><circle r="1" fill="#ddc3c6" transform="matrix(221.50924 28.86464 -16.63562 127.66292 153.5 72)"/><path d="M217 66L117 87l115 54z"/><circle cx="139" cy="164" r="55" fill="#fff4da"/><circle r="1" fill="#145ed2" transform="matrix(-10.39701 12.93127 -46.46742 -37.36076 227.3 157.1)"/><ellipse cx="121" cy="25" fill="#dfc7ba" rx="53" ry="34"/><ellipse cx="230" cy="44" fill="#b0631c" rx="95" ry="21"/><path fill="#efd1bb" d="M181 144L80 167l39-88z"/><path fill="#0e0000" d="M248.4 97.5L140.8 84.1l2 23.4 21.9 3.5z"/><path fill="#d38f53" d="M181 86l-49-7 72-95z"/><circle r="1" fill="#020000" transform="rotate(158 94.3 73) scale(9.98221 31.95011)"/><ellipse cx="253" cy="106" fill="#5d6693" rx="29" ry="50"/><circle r="1" fill="#856850" transform="rotate(86.3 -71.3 66.9) scale(109.20146 31.31077)"/><circle r="1" fill="#d7914e" transform="matrix(22.18819 2.62282 -1.9562 16.5488 134 158.5)"/><path fill="#eadeed" d="M201.9 4.2L248.6 15l-2.5 10.8L199.4 15z"/><circle r="1" fill="#ded8ff" transform="rotate(49.3 -70.2 277) scale(45.32911 8.28732)"/><path fill="#fff" d="M136 32l34-16-18-20z"/><path fill="#95abdf" d="M214.5 79.7l35.3-13.2-25.7-4-27.7 12.9z"/><circle r="1" fill="#904113" transform="rotate(36.8 84.6 254.2) scale(27.4908 7.80394)"/><circle r="1" fill="#6e4728" transform="rotate(118.7 102.2 94.2) scale(11.89305 30.44427)"/><circle r="1" fill="#9fa1a8" transform="rotate(-145.9 58 62.6) scale(22.99474 31.00024)"/><circle r="1" fill="#ada194" transform="matrix(34.74266 67.15886 -20.37503 10.54042 79 10)"/><path fill="#e8eeff" d="M140-16h49l25 27z"/><path fill="#d1d8d7" d="M47.2 37.3l37.9 9.5L10.5 17l39 28.9z"/><path fill="#40311e" d="M139 98l33 16-41-59z"/><path fill="#d59b65" d="M147.5 32.6l57.6-21.9-27.2 71.4 41.9-31.5z"/><path fill="#110d04" d="M210.7 85.1L178 76.6l68.4 50.4-3.7 6.9z"/><circle r="1" fill="#3a371b" transform="matrix(17.35427 -43.6018 1.18335 .471 96 126.9)"/><path fill="#c4a7a7" d="M99 25l-42 87 32 3z"/><path fill="#d4cfda" d="M136 34l-10 30-29-74z"/><path fill="#b9d9e0" d="M23 90l31 7-3-20z"/><path fill="#363729" d="M-16 102l50-28-14 19z"/><path fill="#f0f6ea" d="M108 99h13v36h-13z"/><path fill="#c7774b" d="M153 93l-24-11 24 22z"/><path fill="#6178b7" d="M165 116l24-16 17 41z"/><path fill="#2b0200" d="M128.3 177.8l-14.1-14.1 3.5-3.5 14.1 14.1z"/><path fill="#afc0c4" d="M30.6 7.4l31.9-19.9 4.2 38.7L4.6-16z"/><path fill="#000704" d="M154.6 95.7l2.9-4.5L215.4 80l-59.5 34z"/><path fill="#84684f" d="M7.1 184.2L37 99.9l14.8-2.6-4 37.2z"/><circle r="1" fill="#e1b28b" transform="matrix(7.43477 -4.20946 35.8697 63.3533 151.2 148)"/><ellipse cx="238" cy="4" fill="#736e4a" rx="29" ry="7"/><path fill="#b7bbae" d="M23 140l-39 30 9-36z"/><circle r="1" fill="#5b8ad6" transform="matrix(-2.30335 6.26859 -58.29203 -21.41902 241.3 152.5)"/><path fill="#d3d2ec" d="M214 10h42v7h-42z"/><path fill="#ecddd5" d="M154.5 52.1L104.8 57l22.3-10.8 26 19.6z"/><path fill="#ac8d7c" d="M116.2 54.7L82.7 44.4 68.8-16l57.3 54.6z"/><circle r="1" fill="#934748" transform="matrix(-2.46297 4.36265 -17.75153 -10.02179 53.8 27.7)"/><path fill="#c17962" d="M84.5 139.4L70.1 83.7l34.7 6.1-22.6 55.4z"/><circle r="1" fill="#5f371f" transform="rotate(-24 258.6 -464.6) scale(27.91921 2.91512)"/><path fill="#96080e" d="M7 57h12v10H7z"/><path fill="#d08a55" d="M170 89.2L136.6 67l9.7-8.9 39.4 21.8z"/><path fill="#30487b" d="M268.2 185l-17.1-27.7-32.6 14.4-23.4-19.8z"/><circle r="1" fill="#513442" transform="matrix(10.52245 19.71402 -7.27471 3.88291 197.7 110.4)"/><path fill="#7e7b69" d="M17 29l48 26-31 33z"/><circle r="1" fill="#928897" transform="matrix(-10.56874 14.60014 -19.30091 -13.97153 235.5 81.3)"/><path fill="#bf977c" d="M262.2 45.5l-68.5-34.4L224 21.5l32.2-9.1z"/><path fill="#92b8cd" d="M59.4 169.6l5.1 15.4 2.2-41.6-29.1 18.8z"/><path fill="#988fa2" d="M152.3-8l-14.4 40.2-12.6-18.5L77.4 1.5z"/><path fill="#dec091" d="M112 67l27 25-22-43z"/><path fill="#d6d5d6" d="M-10.8 12.2l1.8 1.7 54.4 19.3-2.2-5z"/><path fill="#66515f" d="M235 86.7l-14.5 30 27.3 29-36.6-67.8z"/><path fill="#919bbe" d="M248 97h8v54h-8z"/><path fill="#e8ece0" d="M84 157.2l27.3 19.5-2.1-33.6L76.4 185z"/><path fill="#2a1f16" d="M283.6 70.8l-60-11.7.8-3.9 60 11.7z"/><path fill="#0d1912" d="M135.8 82.8l20.2-5.6-13.2 19.7 1.7-2.9z"/><path fill="#9b5837" d="M175.4 89.7l13.5-6.5-9.6-28.4-10.1-23.5z"/><path fill="#f2f3ec" d="M-9.3 115.6l30.7 3.8v1l-30.8-3.8z"/><path fill="#e7bda5" d="M183 28l-66 14 57-31z"/><ellipse cx="8" cy="72" fill="#b9b099" rx="57" ry="3"/><circle r="1" fill="#5889df" transform="matrix(-1.16951 2.49664 -20.78972 -9.73862 173.7 119)"/><path fill="#eaeae6" d="M75.8 44.6l5 2.6 41.8 13-39.1-15.1z"/><path fill="#93232f" d="M-16 80.3L3.6 53.2l8-14.4-27.6 3.8z"/><path fill="#8ebbd8" d="M112 64l-2.8 9.6L90 68l2.8-9.6z"/><path fill="#b68777" d="M24.8 126.5l45.2 5.1 7.3 12.9-43.3 9.2z"/><path fill="#625b4b" d="M20.3 146l25.6-25.5-16.7 30.7-7.9 33.8z"/><circle r="1" fill="#b4cce6" transform="rotate(-52.6 8.9 -11.3) scale(31.9578 1.95739)"/><circle r="1" fill="#5a6052" transform="matrix(.88863 .45862 -16.9683 32.8781 68.7 60.2)"/><path fill="#a9aaab" d="M12.5 158.6L-14.2 185l90.3-33.8L3.7 185z"/><path fill="#7a4c39" d="M60.8 56.6l2.4-14.5 7.2 3.4-2.6 11z"/><path fill="#4d4230" d="M29.5 81.5L-16 112.3l31.5-24.5 19.3-21.9z"/><path fill="#d6bb90" d="M115.3 87.2L171.4 67l-6.6-8.6-20.6 21.8z"/><path fill="#e4f0f4" d="M143 22.1l32.6-7.7L149.5.3l-2.9 9.6z"/><path fill="#9ab4c7" d="M82.2 60.9l-.4 18.9-3.9 4.3-28.7 43z"/><path fill="#716c5e" d="M43.7 87l14.4 9.5L80.4 51 59.9 85.6z"/><path fill="#ae3627" d="M23.1 185.2L64 108.4l.9.4L24 185.6z"/><path fill="#cfb7b2" d="M14 93l-10 7 23-4z"/><circle r="1" fill="#deceda" transform="matrix(10.21552 23.80515 -10.13746 4.3503 177.2 143.6)"/><path fill="#747976" d="M90.7 146.3l-14.6 29.9 10.5-40.3 14.4 16.5z"/><path fill="#c0d8e6" d="M121 5.4l-17.9 21.4 25.2 7.6-5.3-8.1z"/><path fill="#887867" d="M114.6 165.5l-13-33.3-9.8-4.9 42.3 57.7z"/><path d="M98 171.7l-6.6-4.5.6-.9 6.6 4.5z"/><path fill="#b59079" d="M105 131l21-6H97z"/><path fill="#7ea5bf" d="M31 59l18-13-33 10z"/><path fill="#f7e6d6" d="M56.3 139.5l9.8-4.1-2 2.1-7.9 12.5z"/><path fill="#a7a9b7" d="M239.4 77.9l-34.5-6.3 21.8-11.2 9.6 3.1z"/><path fill="#b67e52" d="M164.6 56.1l1.6-8 25.1-44.5 27.6 20.9z"/><path fill="#783916" d="M152 102l-18-17-14 1z"/><path fill="#000400" d="M147 84h15l11 30z"/><path fill="#0e4395" d="M208 82l11-5-26-5z"/><path fill="#825939" d="M118.4 68.3l20.5-12.8 1.8 3.1L118 75.1z"/><path fill="#bfc3ab" d="M39.5 112l-1.5 5.7-13.5-3.6 1.5-5.8z"/></g></g></svg>