<svg xmlns="http://www.w3.org/2000/svg" viewBox="0 0 1400 933"><defs/><filter id="a"><feGaussianBlur stdDeviation="12"/></filter><rect width="100%" height="100%" fill="#2a3e4b"/><g filter="url(#a)"><g fill-opacity=".5" transform="translate(2.7 2.7) scale(5.46875)"><ellipse cx="140" cy="55" fill="#d69f7e" rx="213" ry="79"/><path fill="#ffc8b9" d="M128 110l-58 75 22-82z"/><circle r="1" transform="matrix(-18.1572 -17.87421 53.33137 -54.17575 31.2 164)"/><circle r="1" fill="#cec3be" transform="matrix(-41.9028 -23.46546 17.05055 -30.44755 163.8 15.3)"/><circle r="1" transform="matrix(4.70984 -11.95663 47.26472 18.61807 1 76.4)"/><path fill="#fffeff" d="M143 119l14 32 22-12z"/><path d="M12 38.3l-13.6-6.4L20-14.3l13.6 6.4zm82.9 127.3l47.6-23.6-19.2-22.1-9.3 2.1z"/><circle r="1" fill="#544448" transform="rotate(-98.1 172.9 -39.8) scale(47.04001 56.36888)"/><circle r="1" fill="#530500" transform="rotate(-62 50.1 -72.5) scale(11.13764 35.52549)"/><circle r="1" fill="#be9999" transform="matrix(-2.83093 -9.74414 70.35669 -20.4405 45 107.8)"/><path d="M154.9 152.9l89.8 6.3-1.6 22-89.8-6.4z"/><circle r="1" fill="#070100" transform="matrix(5.94677 22.50764 -45.21975 11.94757 37.7 147.5)"/><path fill="#dddbca" d="M68 100l47 6-85-38z"/><path fill="#dc9974" d="M99 185l-29-15 26-60z"/><path fill="#403829" d="M197.2 63.4l62.2-62.2 13.4 13.4-62.2 62.2z"/><path fill="#f5ffff" d="M158.6 35.4l16.5 5.3-.3 16.5-26.5-12.7z"/><ellipse cx="199" cy="122" fill="#756a67" rx="27" ry="34"/><circle r="1" fill="#5a3202" transform="rotate(-97.7 35 38.3) scale(27.04143 13.10577)"/><path fill="#94a7be" d="M160 136l-22-30-41 1z"/><path fill="#6e5877" d="M60 123l36-24-93 19z"/><circle cx="255" cy="85" r="9"/><circle r="1" fill="#8a7e76" transform="matrix(-1.71408 28.02493 -29.63669 -1.81266 200 27.6)"/><path fill="#322005" d="M204 127l1 14 45-26z"/><path fill="#150600" d="M71.2 105.8l18.9-.3-11.2 42.4L61.5 185z"/><path fill="#111411" d="M36 96L8 79l62 13z"/><path fill="#42311e" d="M207 32l-15 1 29 44z"/><path fill="#010000" d="M160.2 187.6l-13.1-12.3 30.7-32.9 13.1 12.3z"/><circle r="1" fill="#253897" transform="matrix(-9.2815 18.20506 -16.33196 -8.32653 133.8 169)"/><path fill="#b9aea8" d="M137.1 4l-23.9 10 7.8 10.3 105.1 6.1z"/><path fill="#bfa09e" d="M83 119v31l41-35z"/><path fill="#e6b589" d="M48.1 98l-46.3 8.7 48.8 2L76.3 90z"/><circle r="1" fill="#9e7e5f" transform="rotate(-66.4 60.7 -41.5) scale(20.88555 55.9072)"/><path fill="#d5d5e0" d="M183 137l-34 9 7-17z"/><path fill="#a68967" d="M249 43l-37 9 32 43z"/><path fill="#4e1612" d="M116 26.5L77.8 11.4 145-16 114.6-2.1z"/><ellipse cx="235" cy="5" fill="#0f0304" rx="9" ry="4"/><circle r="1" transform="matrix(-11.81064 17.76515 -5.65189 -3.7575 115.4 140.2)"/><path fill="#25251e" d="M13 101L-5 47l55 49z"/><path fill="#bbb898" d="M2 45l22 32 2-15z"/><path fill="#c0c2b5" d="M213.7 13.3l-29 14.3 71.8-5.5-41.4 7.2z"/><path fill="#f3fde8" d="M104 51h11v6h-11z"/><path fill="#422d08" d="M35 46l-51-34 29-6z"/><path fill="#333f54" d="M206.4 87.7l20.4-7.8L253.9 98l-31.1 11.2z"/><circle r="1" fill="#78717e" transform="matrix(-8.28066 6.51624 -24.88096 -31.61806 204.4 103.8)"/><path fill="#9f6d3c" d="M2.4 83l14.1 8.8-32.5 50.7L.3 63.3z"/><path fill="#82757b" d="M141.7 119.9l-9.3 25.2 32-37.5L36.7 68.4z"/><path fill="#d5e1ff" d="M166 136h2v21h-2z"/><path fill="#2a2f47" d="M61 46l-6-26-8 7z"/><path fill="#a69058" d="M184.9 149l1.5-9.9 24.7 4-1.5 9.8z"/><circle r="1" fill="#9d8d5e" transform="matrix(-20.202 11.59527 -1.20136 -2.09308 240.4 126.6)"/><path d="M16 83l11.7-12.2 4.4 4.2-11.8 12.2z"/><path fill="#b2a48c" d="M187.1 27.7l15.7 36.8 2.7-35-27.1 34.4z"/><path fill="#505653" d="M178.2 50.3l-18.4-39.1 19.4 29.5 1.3-2.5z"/><path fill="#8c653b" d="M34 63l2-79-24 63z"/><circle cx="66" cy="30" r="10" fill="#b19398"/><path d="M42.2 141.1l34.2 11.1-8.6 26.7-34.2-11.1z"/><path fill="#c9cfc5" d="M65.6 83.8l63.4 31.7L67.8 91 35.9 70.6z"/><path fill="#adad9c" d="M30.7 85.9L45 68.2 46.5 90 32.4 62.8z"/><path fill="#0f0f2a" d="M109.8 152.6l57.1-6-14.1 22.3-10.2-34.3z"/><path fill="#514530" d="M190.9 45.6l-12.8-14.8 8.3 16 21.4 16z"/><path fill="#37100e" d="M223.2 146l20.5 39 27.3-24.8-67.3 5.1z"/><ellipse cx="10" cy="123" fill="#6c5059" rx="23" ry="7"/><path fill="#26202c" d="M152 138l-11-13-2 31z"/><path fill="#917253" d="M108 49.8l19.6-24.1 30.3 24.5-19.5 24.1z"/><path fill="#5d5362" d="M260 107l-78 31-46-23z"/><path fill="#a0a9af" d="M271 16.7L247-16 233.4 4.1l-7.7-9.8z"/><circle r="1" fill="#8a7388" transform="matrix(.12521 6.82545 -23.54264 .43188 52 114)"/><path fill="#a8a7ac" d="M114.5 105.8l-16.9-7-3 10.8 28.5 18.8z"/><path fill="#a19f95" d="M44 83h13v8H44z"/><path fill="#918d9c" d="M185 101l27 3 19-12z"/><path fill="#e0eaf4" d="M171.9 35.3l-22 10.2 16 6.3 12.4-.3z"/><path fill="#30303f" d="M82 32L56 45l17-2z"/><path fill="#131705" d="M223.5 75.4l-16.2-5 1.2-3.8 16.2 5z"/><path fill="#cfcbbb" d="M180.2 39.6L158 7.5l25-9-14.2 16.8z"/><path fill="#6886ff" d="M140 31.7l-.5.8-29.6-22.2.6-.8z"/><circle cx="233" cy="24" r="7" fill="#9c9d8c"/><path fill="#cfd3da" d="M149.1 125.5l-1 1.8-35.2-18.8 1-1.8z"/><ellipse cx="239" cy="151" fill="#7b8cae" rx="7" ry="3"/><circle r="1" fill="#78564a" transform="matrix(-18.80334 26.37805 -3.75732 -2.67837 157.1 78.4)"/><path fill="#4d3b31" d="M224.2 29l32.6 5.4-63.9 32.8 37.5-8.8z"/><path fill="#724d4d" d="M193.2 20.7l-11.1-10 6.7-7.4 11.1 10z"/><path fill="#a79372" d="M36.1 2.2l36.1 3.5 34.7 21.9-45.9-14z"/><path fill="#f6b173" d="M83 133l8-12-1-16z"/><path fill="#10120c" d="M9.2 29.7l-.4-9L22.3-16l-2.8 44.2z"/><path fill="#786254" d="M176.8 97.4l-65.7-27.3 64 51.2-17.1 22.8z"/><path fill="#081d2e" d="M244.9 102.7l-24.8 3.5-1-7 24.8-3.4z"/><circle r="1" fill="#888191" transform="rotate(-127.8 153.7 -9.3) scale(35.39447 2.62733)"/><path fill="#a86251" d="M143.6-10.5L157-7l-4.7 17.4L139 7z"/><path fill="#fffff7" d="M191.6 42l13.5 13.4-.7.7-13.5-13.5z"/><path fill="#0f0d01" d="M44 136l28 25 14-49z"/><path fill="#7a311b" d="M93-16l31 28L57 1z"/><path fill="#857f83" d="M198 66l-51 24 85-10z"/><path fill="#040100" d="M120.2 127.8L93.5 185l8.8-38.9 38.3-5.4z"/><path fill="#a17e65" d="M135.4 21.3l-8.1-32.2 23 45.2-4.9-22z"/><path fill="#c4966f" d="M0 105h37v9H0z"/><path fill="#603a2e" d="M164 101l23-10-9-8z"/><circle r="1" fill="#a87340" transform="rotate(108.4 -22.1 112.5) scale(23.29514 7.13055)"/><path fill="#172022" d="M224 138.2l16.9 9.5-17.6-3.1 34.9-23.3z"/><path fill="#645249" d="M17 38l-33-27L5 46z"/></g></g></svg>