<svg xmlns="http://www.w3.org/2000/svg" viewBox="0 0 1400 933"><defs/><filter id="a"><feGaussianBlur stdDeviation="12"/></filter><rect width="100%" height="100%" fill="#4d2522"/><g filter="url(#a)"><g fill-opacity=".5" transform="translate(2.7 2.7) scale(5.46875)"><ellipse cx="180" cy="51" fill="#abaea5" rx="249" ry="103"/><circle r="1" transform="matrix(41.09896 -19.95658 16.12767 33.21362 106.9 131.8)"/><circle r="1" fill="#bd9eae" transform="matrix(27.86525 1.36284 -5.46794 111.80026 180.3 168.9)"/><circle r="1" fill="#c9bdbd" transform="matrix(39.80892 7.10387 -3.31221 18.56109 57 80.3)"/><circle r="1" transform="matrix(83.28185 11.9126 -2.82954 19.78149 62.3 164.8)"/><circle r="1" fill="#00223d" transform="matrix(10.24359 -26.68546 37.97563 14.57748 247 158.7)"/><circle r="1" fill="#a77348" transform="matrix(14.18127 1.58632 -17.18172 153.59972 158.2 136.2)"/><path fill="#63537f" d="M86 148l-102-19L87 84z"/><ellipse cx="121" cy="132" fill="#190400" rx="27" ry="32"/><path fill="#c4c4bf" d="M180.8 3l3.8-21.6L273.2-3l-3.8 21.6z"/><path fill="#8589a0" d="M243 162L157 23l97 88z"/><path fill="#634e40" d="M196 26h60v65h-60z"/><circle r="1" fill="#c9a295" transform="matrix(1.12 8.06408 -86.43496 12.00472 30.4 94)"/><circle cx="121" cy="38" r="60" fill="#957b5f"/><ellipse cx="186" cy="131" fill="#a290a7" rx="15" ry="98"/><circle r="1" fill="#e2f0eb" transform="matrix(-.8448 3.0454 -26.11032 -7.24308 44 71.3)"/><ellipse cx="255" cy="153" rx="8" ry="30"/><path fill="#060a04" d="M24 84l-9-12-26 16z"/><circle r="1" fill="#050500" transform="matrix(4.16904 .98521 -5.67932 24.03277 231.3 154.1)"/><path fill="#79472b" d="M163.9 154.2l14.9.2-18.2-37.2-43.6 2.4z"/><ellipse cx="33" cy="163" fill="#000809" rx="40" ry="26"/><path fill="#d5e4ef" d="M234 43l1 .3-31 89.8-1-.4z"/><path fill="#fff" d="M162 29l-26-6 18-1z"/><path fill="#3f4c6e" d="M232.5 146l-28 1-1-29 28-1z"/><path fill="#b8c2b6" d="M1.4 66.2l.2-9 29 .6-.2 9z"/><path fill="#6f5633" d="M-23 47.2L-48.8-8 31-45.2 56.8 10z"/><path fill="#202f43" d="M221.4 107.5l2.2-8.7 31 7.7-2.2 8.7z"/><path fill="#bb825a" d="M140 151h44v19h-44z"/><path fill="#4d211e" d="M251.6 38.8l2.5-21.1L271 63.2l-37.4 3z"/><circle r="1" fill="#b9b4ab" transform="matrix(-.7824 4.63315 -66.6623 -11.25715 67.5 79.4)"/><path fill="#93a3bd" d="M249.4 128.6L210.9 100l7.3 42.9 11.5-40.5z"/><path fill="#818da8" d="M247.9 91.9l7.2 22.7-13.6 50.8-8.5-7.7z"/><path d="M210 185l61-5-59-34z"/><path fill="#102615" d="M183.7 24.3l-.2 1.9 5.8 8.2 20.1-4.4z"/><circle r="1" fill="#6b442c" transform="matrix(.9665 -4.54892 34.24037 7.27493 115.2 56.7)"/><path fill="#cdcedc" d="M257.4 93.9l-25.5 6.1-25.6-4.2 27.4-1.3z"/><path fill="#7d7575" d="M16 60.3l4.2-16.5L92 61.7l-4.2 16.5z"/><path fill="#080801" d="M95 131l41 48 7-51z"/><circle r="1" fill="#b1a0b6" transform="rotate(62.9 62.1 161.5) scale(10.97007 7.25636)"/><ellipse cx="194" cy="169" fill="#9185a3" rx="16" ry="80"/><path d="M253.4 159.3l-7.7-2 10.9-40.6 7.7 2z"/><circle r="1" fill="#856e8a" transform="rotate(167.6 12.4 53.8) scale(68.26227 8.58427)"/><path fill="#edffff" d="M232.9 43.2l3.2-16.6 1 .2-3.2 16.6z"/><path fill="#3d393f" d="M93.4 3.1l-3.7 11.3L76.6 19l-24 3.1z"/><circle cx="70" cy="127" r="22" fill="#624c5d"/><path fill="#b29590" d="M52.5-6.3l28-10.7 9 23.3-28 10.7z"/><path fill="#343f3c" d="M36.4 70.3l.5 16.6-4.6-2.5 2.4-12.9z"/><path fill="#8fa2ad" d="M13 44.9l26.4-6-8.9 27.2 21.4-40.5z"/><circle r="1" fill="#ae906c" transform="matrix(-29.06663 1.5742 -.3987 -7.3619 99.6 22.9)"/><path fill="#6d4440" d="M160.5-16l-13.2 34.6-21.2 7.6 11.6-30z"/><path fill="#22252a" d="M231 113l5 37-14-18z"/><ellipse cx="211" cy="140" fill="#19181e" rx="3" ry="19"/><path fill="#764d2a" d="M150.4 81.2l-30.9 25 13-9.7 26.3 31z"/><path fill="#7482a4" d="M215.1 128.1l7 1-3.2 22.8-7-1z"/><path fill="#d1af95" d="M13.5 98.4l29.1-2 56.6-18.9-85.3 11z"/><path fill="#b29995" d="M171.1 60.6l-9.2-6.2-12.9-1.7 15 23z"/><ellipse cy="134" fill="#404358" rx="51" ry="7"/><path fill="#b57c52" d="M123.3 127l-2.8-7.5 12.2-4.5 2.8 7.5z"/><path fill="#2d2f2c" d="M17 68.4l-33 6.1V35.8l31.3 49z"/><path fill="#876e49" d="M156 8h81v16h-81z"/><path fill="#10162e" d="M44 0h10v9H44z"/><circle r="1" fill="#2d2e2b" transform="rotate(15.2 -292.6 934.8) scale(35.53366 1)"/><path fill="#cacbd1" d="M237 115h19v5h-19z"/><circle r="1" fill="#8a6f70" transform="matrix(-5.58361 -25.39574 9.18016 -2.01839 171 135.5)"/><path fill="#c4baaf" d="M156.3 99l11.9-40.9-17.3 47.9 2.7-2.8z"/><circle r="1" fill="#7796be" transform="matrix(-12.18139 33.28721 -1.56763 -.57367 59.3 3.3)"/><path fill="#2c1409" d="M147.6 107.9l-4.9 12.8-63.6-11 26-12.7z"/><path fill="#6e4937" d="M14.9 50.8l-24-1.7 2.2-31.9 24 1.7z"/><path fill="#6c582a" d="M149 25l6 27 17-12z"/><circle r="1" fill="#d4dbea" transform="matrix(4.99795 .84467 -.56083 3.31841 225.1 113.5)"/><path fill="#f6fff0" d="M154.6 23.3l.7-.7 12 12-.6.8z"/><circle r="1" fill="#b7b4b3" transform="matrix(25.54853 -97.7283 .96749 .25292 242.4 5.4)"/><path fill="#aa7754" d="M180.2 87.5l-35 51.8 27.2-75.8 11.9-21.2z"/><path fill="#723b25" d="M154.7 78.8l4.1 1.5 5.4-15.6-9.6-1.7z"/><path fill="#6b7a84" d="M15 25h5v60h-5z"/><path fill="#3b3b41" d="M59 14l-7 29-13 5z"/><path fill="#707372" d="M101.2 66.9l28.5 5.5-2.9 14.7-28.5-5.5z"/><path fill="#7a8493" d="M271 130l-1.1 35.7-19.6-4.4 17.2-14.9z"/><ellipse cx="206" fill="#c4c1bf" rx="14" ry="8"/><ellipse cx="75" cy="114" fill="#3b2e38" rx="19" ry="4"/><path fill="#a35944" d="M39 47h12v18H39z"/><path fill="#b9bea0" d="M145 24h56v2h-56z"/><circle r="1" fill="#cdc9bb" transform="matrix(-.32704 1.60433 -67.78725 -13.81844 84.3 80.7)"/><path fill="#9791b4" d="M187 73l-12 55 35-44z"/><path fill="#6f6377" d="M202.2 133.4l-8.4 10 18.5 36.4-8.7-121.6z"/><path fill="#5a4936" d="M224 41l-3 36-14-1z"/><path fill="#54332d" d="M137 87l-35 17 13 3z"/><path fill="#818691" d="M96.1 55.7L78.2 66.2l-25.9-4.3 3.5-7.6z"/><path fill="#6d92a5" d="M155 14l-13 8 20-31z"/><ellipse cx="1" cy="122" fill="#71637d" rx="72" ry="10"/><path fill="#7a5137" d="M110 58L48 44l34-3z"/><path fill="#887859" d="M53 13l-39 5 3-34z"/><path fill="#522111" d="M161 83l7-1-2-11z"/><path fill="#cbe6ff" d="M250 101h6v3h-6z"/><path fill="#6c4350" d="M150.3 102l-67-13.2.6 18.7 7-10.5z"/><circle r="1" fill="#000817" transform="matrix(21.71995 -23.51585 18.69675 17.26889 2.5 169)"/><path fill="#12102b" d="M240 138.5l5-15.3 1 .3-5 15.3z"/><circle cx="251" r="12" fill="#836e6a"/><path fill="#566c7b" d="M20.6 27.7L31 26.5 19.2 60 6.3 57.3z"/><path d="M211.8 152l3.2 33 19.6-50.8-2.8 22.3z"/></g></g></svg>