<svg xmlns="http://www.w3.org/2000/svg" viewBox="0 0 1400 933"><defs/><filter id="a"><feGaussianBlur stdDeviation="12"/></filter><rect width="100%" height="100%" fill="#3b3b49"/><g filter="url(#a)"><g fill-opacity=".5" transform="translate(2.7 2.7) scale(5.46875)"><circle r="1" fill="#ffffdf" transform="matrix(6.74811 -102.9644 214.43545 14.05374 152.6 75.7)"/><path fill="#ebb69d" d="M-16 170l282-85L34-16z"/><path d="M23.2 134l45.4 18.4-7.8 19.5-45.4-18.3z"/><circle r="1" fill="#fff" transform="rotate(70 -19.6 229) scale(20.37147 110.25561)"/><circle r="1" fill="#1d2854" transform="matrix(-78.30117 29.76168 -4.60732 -12.12157 205 131)"/><circle r="1" fill="#2c2834" transform="rotate(53.7 80.4 232.4) scale(79.06741 15.04408)"/><path fill="#ffe" d="M298.9 53.8l-25.3 19.7-74.5-95.3 25.3-19.7z"/><ellipse cx="80" cy="151" fill="#fff6dc" rx="15" ry="49"/><circle r="1" fill="#ffffac" transform="matrix(16.4426 -26.5192 13.0305 8.07925 0 160.3)"/><circle r="1" fill="#dead8d" transform="matrix(71.13808 66.33733 -23.14816 24.82337 143.5 6.4)"/><circle r="1" transform="matrix(21.07175 7.83162 -5.50965 14.82427 43.2 157.9)"/><path fill="#fffffc" d="M126 135.4l11.4 6.3-19.4 35-11.4-6.4z"/><path fill="#a77f65" d="M91 49h73v38H91z"/><circle r="1" fill="#cc462e" transform="matrix(13.70712 -6.4456 12.11672 25.76724 0 47.8)"/><circle r="1" fill="#edf0e0" transform="matrix(19.68853 -12.9822 6.9513 10.5422 181.4 106.2)"/><circle r="1" fill="#ffffeb" transform="matrix(-3.36499 -14.81105 88.43692 -20.09238 239 155.1)"/><path fill="#212e4b" d="M144.7 114l11.2-4.3 9.4 24.3-11.2 4.3z"/><ellipse cx="65" cy="134" fill="#fff8e6" rx="28" ry="12"/><path fill="#d3d6c9" d="M176 21l25 75 60 2z"/><path fill="#1d142c" d="M113.5 138l4.5 2.2-13.5 27.8-4.5-2.2z"/><ellipse cx="17" cy="107" fill="#cb584e" rx="9" ry="28"/><path fill="#4c3a3a" d="M195 8v14l-32-4z"/><path fill="#3f4553" d="M245.8 42.2l-28.7 13.9 17.7 20.4 2.7 35.7z"/><circle r="1" fill="#44465a" transform="matrix(-22.34695 32.7594 -7.6736 -5.23457 136.9 164)"/><path fill="#efceb3" d="M119.6 17.2l6 33.5-57.2 10-6-33.4z"/><path fill="#765d5e" d="M132.7 105.1l20.5-.4-33.2 26.5-29.1 44z"/><circle r="1" fill="#4d546b" transform="matrix(-15.35052 .29475 -.40041 -20.85368 226 119.2)"/><circle r="1" fill="#e8c7bc" transform="rotate(3.2 -2199.1 1695) scale(25.58523 23.93525)"/><circle r="1" fill="#fff5c4" transform="matrix(-14.94679 9.44897 -52.1071 -82.4253 248.3 10.7)"/><circle r="1" fill="#be978b" transform="matrix(-53.23679 -59.93516 11.57874 -10.2847 28.5 29)"/><path fill="#ffd3bf" d="M132 119l-31 54 53-42z"/><ellipse cy="154" fill="#f9c89e" rx="13" ry="77"/><path fill="#c94e35" d="M-1 123l53 2-30 9z"/><path fill="#100f0d" d="M23.6 134.6l48.6 21L31.4 185h-17z"/><path fill="#ffffd2" d="M63 164h34v6H63z"/><path fill="#dfd4c7" d="M46.2 93.1l15.1 5.7 74.3 15.4-99.5 4.7z"/><path fill="#bc856e" d="M147.5 72.6L159 92.9l25.3-17 47.2-32.6z"/><path fill="#e0cab5" d="M27.4 33.2L-16 5.6l27.1 30.9 34 92z"/><path fill="#5c6379" d="M115 176l81-64 22 30z"/><path fill="#98939c" d="M43 85l46 22-71-97z"/><path fill="#bb8071" d="M69 153.5l28.4-9.7 4.4 24.2-33.9-15.8z"/><path fill="#d7c0a4" d="M209.2 42l-52.9 24.3 31.5 26.9L131.9-16z"/><path fill="#94735f" d="M146 48l-3 25 39-30z"/><path fill="#45434d" d="M125.9 164.4l9.7-20.9 4.5 2.1-9.7 20.9z"/><ellipse cx="168" cy="11" fill="#795140" rx="4" ry="12"/><path fill="#ab6562" d="M57.5 127.4l.1-10.9L7.5 97.8l18.4-7z"/><ellipse cx="15" fill="#e4b38b" rx="154" ry="9"/><circle cx="158" cy="103" r="11" fill="#e5e0c6"/><path fill="#fff" d="M221.4 142l-8.3-8.6 1.5-1.4 8.3 8.6z"/><path fill="#e0dbca" d="M228.2 69.6l12.3 21.6-24.3 7.8-33.5 10.2z"/><path fill="#fffbef" d="M271 122l-40 17 36 46z"/><path fill="#d88074" d="M92.3 151.3l4.6 1.6-6.2-19 33.6-23.6z"/><path fill="#312e37" d="M271 76.8l-45-63.7L194.8-16l34.8 41.5z"/><path fill="#df7a76" d="M57.3 59.9l39.9 23L90.7 94 50.8 71z"/><ellipse cx="2" cy="71" fill="#486f7c" rx="16" ry="6"/><path fill="#dd8574" d="M117.9 32.6l-11.7-6.9-20.3 36.2 30.9-25.3z"/><path fill="#bdaf9f" d="M98.3 112.4L129.9 24l35 19.5-69.3 34.1z"/><path fill="#e3b7a9" d="M32 126l-48-15 64-4z"/><path fill="#f2e6d8" d="M262.6 86.9l4.2 8-19.4 10.2-4.2-8z"/><path fill="#a3432c" d="M152.8 70l12.3 14.6-2.8 8.3-10.9-17.4z"/><path fill="#dc7e5f" d="M136.8-9.3L134 13.5 99.2 9.3l2.8-22.8z"/><path fill="#b7796d" d="M70.5 117.1l-17.8 3.6 29-.5 37.2 1.3z"/><ellipse cx="169" cy="126" fill="#c47e75" rx="10" ry="7"/><path fill="#2c1512" d="M231 165l-8 15 13-1z"/><path fill="#d7cfbc" d="M63.5 44.1L63.4 56 84 67.1l21.5-61.9z"/><path fill="#484a53" d="M219 56l22-22v51z"/><path fill="#f7dea7" d="M-9 185l33-33-27 3z"/><path fill="#2f3538" d="M197-16l18 7-29 27z"/><ellipse cx="125" cy="141" fill="#ffe0d2" rx="7" ry="11"/><path fill="#d2bba9" d="M213 26l-45 44-19-13z"/><path fill="#a19d9a" d="M214.8 85.3l37.5-23.8-12.1-3.2 19.6-7.8z"/><path fill="#ffebbc" d="M69.6 154.4l26.7 11.4-5.9 13.8-26.7-11.4z"/><path fill="#e6c8b7" d="M108 142.6l34.2-51.7-44.7 52-.2 16.7z"/><path fill="#9c7f69" d="M186.6 50.6l-56 6.2 12.2 21.7 40.5-42.6z"/><path fill="#6d6860" d="M115.5 68.9l15.9 4.7 3 10.5-31-21.4z"/><path fill="#8d6a5c" d="M16 15h20v8H16z"/><path fill="#f2e6d0" d="M34 135l71-17-38 32z"/><path fill="#72676d" d="M96 164.6l25.4-40.9 14.8-16.2 2.1 5.5z"/><path fill="#d7ccba" d="M198.4 27.4l5 36 21.8-15.8-59.7 17.6z"/><path fill="#1f1b19" d="M42 150l28 2-19 33z"/><path fill="#c24445" d="M15.3 85.6l-6.7 29.8 13.5-11.1-.4 2.3z"/><path fill="#d27d6f" d="M196 103h18v11h-18z"/><path fill="#a6a9b0" d="M183.1 151.6l7.1-8.9 13.5.8 16.9-5z"/><path fill="#fee7df" d="M87.5 180.4l48.5-23.7.5 1L88 181.2z"/><path fill="#9c7f72" d="M131 130l10-5-8 18z"/><path fill="#8c7672" d="M226.7 35L212 53.1l-22.5-39.8L212.6 40z"/><path fill="#c2bcb4" d="M225 19l6 5h-13z"/><circle cx="181" cy="67" r="8" fill="#c4614f"/><ellipse cx="179" cy="6" fill="#fdd9a2" rx="9" ry="6"/><path fill="#e7593b" d="M-16 8l31 36L1 56z"/><circle r="1" fill="#5d6481" transform="rotate(-20.5 490 -583.5) scale(66.14274 1)"/><path fill="#deccc1" d="M18.7 80.5L79.1 127 19.9 72.9-16 92.3z"/><path fill="#e7d8bf" d="M142 115l-9 31 19-15z"/><path fill="#e4cd8b" d="M6 155l19-21-34-10z"/><path fill="#d0b895" d="M131.5 62.4l35.7 45.3-58.3-55.2 35.9-8z"/><circle r="1" fill="#4c5469" transform="matrix(4.7367 -15.0669 12.59367 3.95918 196.3 130.2)"/><path fill="#5e534d" d="M105.8 173.1l-3.3-10.9-19.1-4.8 49.4 27.6z"/><path fill="#63635f" d="M178.3-16L208 36.7 189.5-16l-27.4 32.7z"/><path fill="#18181a" d="M19.7 146l6.3 35.7 38.3-28.3-35.7-16.7z"/><path fill="#9bb1c2" d="M64.7 89.7l-11.3.3 46.1 2.2-18.4 10.1z"/></g></g></svg>