<svg xmlns="http://www.w3.org/2000/svg" viewBox="0 0 1400 933"><defs/><filter id="a"><feGaussianBlur stdDeviation="12"/></filter><rect width="100%" height="100%" fill="#4a2f29"/><g filter="url(#a)"><g fill-opacity=".5" transform="translate(2.7 2.7) scale(5.46875)"><circle r="1" fill="#fffff7" transform="rotate(99.9 35.5 79.5) scale(96.69166 235.17934)"/><ellipse cx="113" cy="133" rx="35" ry="39"/><circle r="1" fill="#f3d1ce" transform="matrix(-32.7385 -2.00237 7.74036 -126.55376 175.8 169)"/><circle r="1" fill="#d6c4d0" transform="matrix(-55.86325 44.20032 -17.8328 -22.53826 49.6 89.8)"/><circle r="1" fill="#051c36" transform="rotate(-7.5 1377.8 -1810.8) scale(35.79447 30.68182)"/><circle r="1" fill="#431300" transform="matrix(-19.67401 25.68321 -22.58592 -17.3014 123.8 130.9)"/><circle r="1" transform="rotate(-170.2 31.2 79.7) scale(62.72954 17.37398)"/><circle r="1" fill="#ceb291" transform="matrix(-56.81935 -42.81645 38.1176 -50.58375 127 36.5)"/><path fill="#bfcded" d="M232.6 157l13.7-43.9 9.1 10.3-12.5 41.8z"/><path fill="#f3f2e8" d="M109 84L-12 52l59 46z"/><circle r="1" fill="#cdc6e3" transform="matrix(-7.96533 -91.92225 16.79456 -1.4553 192.1 135.2)"/><circle r="1" fill="#f7f4ed" transform="matrix(-1.47803 8.37402 -75.43278 -13.31405 222.5 2.2)"/><ellipse cx="157" cy="146" fill="#c9915a" rx="12" ry="84"/><path fill="#876e9b" d="M84.5 98.1l-100.5 26 84.7 26.3 33-6.2z"/><path d="M211 153h24v17h-24z"/><path fill="#110800" d="M15.6 69.9l-20.8 24L-16 69.8l30.2 18.9z"/><ellipse cx="255" cy="148" rx="4" ry="27"/><path fill="#e0bda9" d="M140 153h73v17h-73z"/><path fill="#f0a275" d="M143.9 124.1l-23 6 4.4-11.6 3.8-.5z"/><path fill="#7b372d" d="M257.8 20.5L271 59.4l-44.4 12.7 14.5-11.8z"/><ellipse cx="213" cy="142" fill="#071633" rx="3" ry="24"/><path fill="#9c7054" d="M67 48.6l49 15.1 42.4-.3-82.3-20z"/><path fill="#afb7ce" d="M199 92h57v31h-57z"/><path fill="#16150f" d="M97 131h42v39H97z"/><path fill="#1f3125" d="M190 33l23-4-31-5z"/><path fill="#1c3253" d="M225 118h7v21h-7z"/><path fill="#1b1916" d="M266.8 118.1l-.3 1-49.3-13.2.3-1z"/><path d="M252.9 125.8l18.1 5-31.8 54.2 7.5-21z"/><ellipse cx="211" cy="53" fill="#a08068" rx="16" ry="29"/><path fill="#e8dbf4" d="M174.8 47.1l13.9-7.1-7.3-16.7-10 2.8z"/><path fill="#becbd0" d="M38.1 29.4l21.3-18.1-37.1 67.2-9-33.8z"/><path fill="#42351e" d="M0 82h23v6H0z"/><path fill="#fff" d="M237 35l-25 82.3-1-.3 25-82.3z"/><path fill="#f5dcc8" d="M50.6 86.1l.7 13-52 2.8-.6-13z"/><path fill="#f1faee" d="M158.7 29.1l17 8.9-27-18.9-11.8 6z"/><circle r="1" fill="#8599c3" transform="rotate(93.5 42.5 177.4) scale(8.21003 8.31695)"/><path fill="#76433a" d="M79.5 100.7l54.2-5.5 15.7-12.3-7.1 27.3z"/><circle r="1" fill="#bcc6ec" transform="rotate(-177.8 123.4 75.8) scale(3.72268 7.84429)"/><path fill="#13112b" d="M41-7.3l5.6-2.2L53 7.3l-5.6 2.2z"/><path d="M236 134l-15 34 14-17z"/><path fill="#384566" d="M92.5 9.5l-14.3 9.2-2.7-4.2 14.3-9.2z"/><path fill="#bc814b" d="M133 185l31-35-10-46z"/><path fill="#00081f" d="M37 172.8l-44.4 7.9-5.5-31.5 44.3-7.9z"/><circle r="1" fill="#ae8259" transform="matrix(5.9881 30.47858 -14.8329 2.9142 0 19.8)"/><ellipse cx="224" cy="96" fill="#fefaf7" rx="19" ry="3"/><path fill="#e8e9e1" d="M93.7 79.4l48.8 14.8-70.3-11.6L-16 58.1z"/><path fill="#9f5b56" d="M158-6l-14 26h-18z"/><path fill="#5f6a86" d="M222 105.4l.7-5 51.4 8.2-.8 5z"/><path fill="#e5ecf4" d="M255.5 120l-1.3 3.7-39.7-13.6 1.3-3.8z"/><ellipse cx="101" cy="23" fill="#dcc8a3" rx="30" ry="9"/><circle r="1" fill="#dbc7c9" transform="matrix(15.65093 -5.48088 3.77295 10.77386 71.5 2.6)"/><circle r="1" fill="#c6a47b" transform="matrix(17.6627 -6.3938 3.96555 10.95472 221.5 18.8)"/><path fill="#4c3331" d="M73.1 118.8L48 116l88.7-8.1-42.8-11.6z"/><path fill="#0e170c" d="M36 81.7l-3-.5 1-6.9 3 .5z"/><circle r="1" fill="#5e5c7b" transform="rotate(84.8 -72 74) scale(4.98187 41.07946)"/><path fill="#acc6f0" d="M214 121l6 28 5-34z"/><path fill="#2b2017" d="M121 126.5l29.5 14.8L114 185l-20-53.2z"/><path fill="#c59263" d="M177 83l-16 1 17-40z"/><path fill="#7f6a58" d="M227 72h29v9h-29z"/><path fill="#b19cb7" d="M54.8 118.3l32.9 25.9-103.7-29 117.4-35.5z"/><ellipse cx="206" cy="140" fill="#9c95af" rx="4" ry="64"/><circle r="1" fill="#927487" transform="matrix(.35139 -16.4038 12.331 .26415 81.2 130.4)"/><path fill="#ddbfa5" d="M142.1 62.6l37.7 40.7-.3-76-12.5 92z"/><path fill="#37313d" d="M57 16l12 1-15 6z"/><path fill="#cea18b" d="M39.5 67.7l-8.2-11.3 33.2-24.1 8.2 11.3z"/><path fill="#030e09" d="M56 150h44v20H56z"/><path fill="#040100" d="M271 167.6l-59.5 7 2.1-23.9 27.6 13.9z"/><path fill="#ab8f5a" d="M163 33l-33-11 49 41z"/><circle r="1" fill="#bba67c" transform="matrix(17.96859 23.32536 -12.39618 9.54934 26.5 7)"/><circle cx="127" cy="121" r="4" fill="#f3d0a6"/><circle r="1" fill="#3b2408" transform="matrix(-11.4656 .27353 -.57465 -24.08751 42 161.5)"/><path fill="#cfd0c6" d="M14.7 65.4l-26.9-40.6 15.3 46L-16 97.6z"/><path fill="#222c50" d="M222 134.9l10.1-20.7 1.8.9-10 20.7z"/><path fill="#31261d" d="M7 76.4l6.4 11.9V69.8l3.5-4.5z"/><circle r="1" fill="#cbc3da" transform="matrix(11.03225 -.21857 1.19742 60.4379 194 136.2)"/><path fill="#807a67" d="M242 29.1l-30.4 50.4 17.7-43.6L244 54.1z"/><circle r="1" fill="#9ea2b8" transform="matrix(-5.68455 .61779 -.10804 -.99415 255 162)"/><path fill="#e7d6d3" d="M172 57l-22-3 18 16z"/><path fill="#190500" d="M133 116l-36 2 4-9z"/><path fill="#f0eedf" d="M138 23h64v2h-64z"/><path fill="#dacec4" d="M49.2 86.8l105.2 7.1-57.2-12.4 39.6-11.9z"/><path fill="#871f1b" d="M249 43h7v15h-7z"/><path fill="#b07669" d="M253 78l18 13-54 2z"/><circle r="1" fill="#e5e1de" transform="matrix(2.2605 9.31148 -15.29448 3.71296 211 0)"/><path fill="#e1e2db" d="M248.4-4.3L233.2 51l-6.3 15.9 16-62.2z"/><path fill="#795130" d="M167.4 82.9l-1.3-2.2-9.2 31-24.6 42.6z"/><circle cx="75" cy="15" r="4" fill="#5f4650"/><path fill="#a1afd5" d="M225.6 155l7.9-20.4 1 .3-8 20.5z"/><path fill="#8b888d" d="M55 35L15 58l6-15z"/><path fill="#b8bfcf" d="M239 119h9v36h-9z"/><path fill="#95636c" d="M122 101l-9-2 24-12z"/><path fill="#65685c" d="M33 71h3v16h-3z"/><path fill="#491d0e" d="M97 99l49 6v18z"/><path fill="#464d63" d="M209.2 139.7l-1.4-19 7-.4 1.4 19z"/><ellipse cx="95" cy="68" fill="#b7a9a6" rx="45" ry="8"/><path fill="#703221" d="M222 64h-13l17 5z"/><path fill="#c7aca9" d="M165 102l22 52-21 31z"/><path fill="#c8a571" d="M185.6 3.7l45.7 13.6-63.2-3.9L153.7-16z"/><path fill="#d29673" d="M84 62h25v13H84z"/><path fill="#e6e9e8" d="M38.5 80.3L23.2 56.9l-7.7 20.5L46.7 67z"/></g></g></svg>