<svg xmlns="http://www.w3.org/2000/svg" viewBox="0 0 1400 933"><defs/><filter id="a"><feGaussianBlur stdDeviation="12"/></filter><rect width="100%" height="100%" fill="#3f3230"/><g filter="url(#a)"><g fill-opacity=".5" transform="translate(2.7 2.7) scale(5.46875)"><circle r="1" fill="#feddb7" transform="matrix(-155.81175 -134.438 73.21648 -84.85687 163.6 73.4)"/><circle r="1" fill="#fff" transform="rotate(-135.3 110.2 23.4) scale(166.50581 14.01892)"/><path fill="#200000" d="M174 21.3l-3.2 35.9-50.8-4.5 3.2-35.9z"/><circle r="1" fill="#4f3327" transform="matrix(34.64693 13.81779 -18.12131 45.43764 55.3 103.2)"/><circle r="1" fill="#1c0300" transform="matrix(-6.77376 -12.17005 23.6694 -13.17422 232.7 119)"/><path d="M229.4 48.6L271 72.2l-4.4-45.8-31.9 4z"/><circle r="1" transform="matrix(-47.39736 -14.13815 7.53599 -25.26398 23.1 156.5)"/><circle r="1" fill="#efdaae" transform="matrix(53.17013 9.8545 -2.8453 15.35181 224.5 7.7)"/><circle cx="209" cy="169" r="33" fill="#fdf2cf"/><ellipse cx="3" cy="60" fill="#9f9481" rx="54" ry="23"/><circle r="1" fill="#815240" transform="matrix(-4.50685 19.02096 -44.98541 -10.6589 209.8 92.9)"/><circle r="1" fill="#9e866e" transform="matrix(4.63503 -16.0888 13.64718 3.93162 28.5 115)"/><circle cx="97" cy="145" r="30" fill="#87735e"/><circle r="1" fill="#020000" transform="matrix(-1.23419 -5.90476 32.06635 -6.70237 138.3 31.8)"/><circle r="1" fill="#ffffeb" transform="rotate(-128.2 49.8 -5.4) scale(88.4422 5.75839)"/><path fill="#e8e4c2" d="M226 36h29l13 14z"/><ellipse cx="68" cy="74" fill="#573022" rx="13" ry="36"/><circle r="1" fill="#d4d0c7" transform="matrix(-5.2861 9.81735 -23.6237 -12.72005 29 4)"/><circle r="1" transform="matrix(-28.3287 -19.3512 3.4436 -5.04116 253.6 57.8)"/><path fill="#565754" d="M112.4 7.6L45.6-16l43.7 38.9 20.1 13.8z"/><circle cx="255" cy="145" r="26" fill="#dfb860"/><path d="M-8 93l43-17-15 26zm227 47l3-17 37-15z"/><circle r="1" fill="#f1ecce" transform="matrix(28.6449 11.94095 -4.24932 10.19361 187.8 129.2)"/><circle r="1" transform="matrix(10.99265 -18.88727 110.76025 64.464 4.7 152.1)"/><circle r="1" fill="#aaa997" transform="matrix(-8.91666 7.62836 -34.02593 -39.77233 136.1 113.5)"/><path fill="#865640" d="M77 30l-48 5-45-32z"/><path fill="#704d3c" d="M224 100l-66-18 60 53z"/><ellipse cx="199" cy="35" fill="#ca9078" rx="31" ry="20"/><circle r="1" fill="#7b533c" transform="rotate(45.2 -53.2 22.5) scale(47.46071 6.37984)"/><circle r="1" fill="#3d464a" transform="matrix(2.75905 4.05967 -17.79068 12.09096 160.2 164)"/><path fill="#fff" d="M28 13h39v4H28z"/><path fill="#a67762" d="M75.8 21.7l-52.6-6.5 14.7 25.4L79.2 53z"/><circle r="1" fill="#b27e65" transform="matrix(27.22396 20.93855 -15.48714 20.13612 236.9 79.7)"/><path fill="#653f2c" d="M142.8 19.1L93.4 29l47.9-24.1 10.5 9.1z"/><path fill="#d1e4b4" d="M146-16H41l89 25z"/><path fill="#d7dcca" d="M148 21.8L85.9 36.4l-4.5 4.9 30.5-15.5z"/><circle r="1" fill="#763b0e" transform="matrix(6.45408 -.211 .35758 10.93728 51.5 0)"/><ellipse cx="1" cy="74" fill="#9ba797" rx="24" ry="8"/><path fill="#8d5242" d="M121 33h58v23h-58z"/><circle r="1" transform="matrix(-1.63723 -2.61769 23.08913 -14.4411 240.4 121.3)"/><path fill="#ffffe9" d="M76 16l8 37 41 9z"/><circle r="1" fill="#e5dcc2" transform="matrix(11.63257 -8.4499 30.72056 42.29154 186.6 131.8)"/><path fill="#58372c" d="M88.5 98l-45.8 15.3-16.1-24.5L82 77.9z"/><path fill="#523608" d="M144 100h7v6h-7z"/><path fill="#a7a391" d="M137.7 147.3l-43-53.8-6.1-5.7-3.4-45.6z"/><circle r="1" fill="#865c4b" transform="matrix(-31.32037 -19.60169 2.29986 -3.6748 164.8 79.3)"/><path fill="#f2bf9f" d="M231 61.2v10l-18-.4v-10z"/><path d="M238 55l-14-13 47 9z"/><path fill="#dbcea8" d="M125.8 56.2l-3.4-14.5-11.3 27.1L271 185z"/><path d="M237 29h19v5h-19z"/><ellipse cx="77" cy="116" fill="#825e4b" rx="33" ry="15"/><path d="M175.9 18.8l-58.8 10.9 8.1 5.2 41.8-7.7z"/><path fill="#bf995d" d="M219.4 139.3l50 45.7 1.6-78.8-33.3 21z"/><path fill="#080206" d="M93 19h21v3H93z"/><path fill="#bc8770" d="M153-5l-11 28 53-9z"/><path fill="#fafff5" d="M152 133l-4 9-7-1z"/><path fill="#d7c6a8" d="M186 170l25-38-73 53z"/><path fill="#67442b" d="M2 1l-10 9 34 21z"/><path fill="#9d9588" d="M29.9 66.1l5.9 25.2 23.7-27.2L-16 4.3z"/><path d="M6 64.8l-7.5 5-4.5-6.6 7.5-5z"/><path fill="#294849" d="M35.8 141.5l-16.6-7.6 30.2 23.6 1.9-14.8z"/><path fill="#f3f9ec" d="M185 149l7-17-41-17z"/><path fill="#cbbeac" d="M214-14l21 48-95-50z"/><path fill="#d7b59d" d="M207.1 35.9l20.6 6.1-.5 5.9-18.5 5.6z"/><path fill="#dedcc9" d="M163.8 155.8L154 158l-1.8-7.8 9.8-2.2z"/><path fill="#c4b091" d="M166 55l-40 10 15-12z"/><path d="M0 155h72v15H0z"/><path fill="#b3a989" d="M212.1 97.7L201.5 83l-2.3-10.4 21.3 19.9z"/><circle r="1" fill="#8a654f" transform="matrix(-14.64522 -16.94849 11.2699 -9.73834 90 167)"/><circle r="1" fill="#be9d61" transform="matrix(.98528 -5.47594 26.86259 4.83334 243.5 12.6)"/><path fill="#1d1e13" d="M184.8 151.6l-29 19.6-.6-.8 29-19.6z"/><path fill="#a86655" d="M199.5 35.6l19.8 23.3-36.9-25.7 50.1-7z"/><path fill="#000201" d="M-16 58.9l4.6 44.6 44.7-13.4L4.1 85z"/><path fill="#7e6652" d="M51.9 138.7l-33.1-38.1-17 23.2 38.1 5.5z"/><path fill="#865b4e" d="M234.3 91.5l-56.7-23.8 25.6-2.8 44 50.3z"/><path fill="#cdbcab" d="M162 1l2 13-18-13z"/><path fill="#9aa490" d="M95 148l10-21-32 14z"/><path fill="#b2a38e" d="M107-9.7L84.6 20 79 15.7 101.3-14z"/><path fill="#60221a" d="M236.6 26.2l-.5.8-16.7-9.2.5-.8z"/><circle r="1" fill="#4a3d36" transform="matrix(-29.50708 -23.89436 .62932 -.77715 212.8 97.8)"/><path fill="#b8a597" d="M17 27l-3 35 19-23z"/><path fill="#d6c9b5" d="M194.4 134.4L172.7 185l37.7-54.2 53.9 54.2z"/><circle r="1" fill="#9c8b7c" transform="rotate(-132.8 89.3 22) scale(39.71737 4.66417)"/><path fill="#021413" d="M38.2 128l14.1 14.3-68.3-25.6L10.8 135z"/><path fill="#000002" d="M110.5 21l.6.8-9.6 7.2-.6-.8z"/><path fill="#e9e1c5" d="M92.7 31l73.6 90.4-74.5-81.5 27.3-12.2z"/><path fill="#989c8d" d="M148.8 158.1L92 175.2l44.3-30.6 4.7-14.5z"/><path fill="#9a6650" d="M87-16l92 42-7.9-13.8-20.2.2z"/><path fill="#4d3332" d="M156 40h20v11h-20z"/><path fill="#faf7e2" d="M147.6 98l-40.5-28.3-21.8-25.6-12.9-17.7z"/><path fill="#683c2d" d="M67 154l-37-48 39 19z"/><path fill="#b0a68e" d="M114-6l9 29-12 17z"/><path fill="#3d2624" d="M220.5 100.6l-3.6-2.5-22.1 18.5 3.1-12z"/><path fill="#735348" d="M15 69.5l14.6-13.3 7 39.3 22.3 5.6z"/><path fill="#353029" d="M235 105.1l-4.7 14.2-16.2-13.2 4.1 21.2z"/><path fill="#cdcdb8" d="M264 49l-24-8 31-5z"/><ellipse cx="107" cy="35" rx="3" ry="2"/><circle r="1" transform="matrix(-41.98676 27.58014 -.54902 -.8358 254.8 109)"/><path fill="#ab5649" d="M204 63l8-14 24 1z"/></g></g></svg>