<svg xmlns="http://www.w3.org/2000/svg" viewBox="0 0 1400 933"><defs/><filter id="a"><feGaussianBlur stdDeviation="12"/></filter><rect width="100%" height="100%" fill="#4a2e27"/><g filter="url(#a)"><g fill-opacity=".5" transform="translate(2.7 2.7) scale(5.46875)"><circle r="1" fill="#fffef6" transform="matrix(-18.35438 93.4681 -250.2212 -49.13606 116.4 58.1)"/><ellipse cx="113" cy="131" fill="#050000" rx="36" ry="38"/><ellipse cx="177" cy="168" fill="#f4d1cb" rx="32" ry="142"/><circle r="1" fill="#000923" transform="rotate(68.5 7 253.7) scale(21.03527 31.5486)"/><circle r="1" fill="#d8c4c3" transform="rotate(42.4 -67.5 114.2) scale(29.22888 85.38124)"/><circle r="1" fill="#481700" transform="matrix(-9.16495 -27.55085 28.78074 -9.57408 124.3 127)"/><circle r="1" fill="#000005" transform="matrix(71.27217 19.2978 -6.19041 22.86292 54.6 169)"/><path fill="#c3d5f8" d="M235.2 165.3l13-17.1 5.8-30.4-14.6-5.6z"/><path fill="#cd985e" d="M136 175l37 2-9-141z"/><circle r="1" fill="#e6dcd6" transform="matrix(-2.47366 8.13928 -89.53418 -27.21088 47.7 72.6)"/><circle r="1" fill="#f7f5ed" transform="matrix(74.0949 12.52515 -1.28351 7.59286 219.3 3)"/><path fill="#8c71a7" d="M84 95l-100 35 114 16z"/><path fill="#cfc6e5" d="M190 45l24 140-54-16z"/><circle r="1" fill="#c8ab83" transform="rotate(-132.6 69.2 -5.8) scale(70.41452 42.74107)"/><circle r="1" transform="matrix(-6.54998 28.8317 -4.57385 -1.03909 255 134.8)"/><path d="M271 178l-53 7-9-38z"/><path fill="#29261d" d="M25 86L14 68 1 85z"/><path fill="#ebe6dc" d="M6 104l15-42 78 19z"/><path fill="#7f3829" d="M254 33l17 15-46 30z"/><path fill="#ffc28f" d="M136 121l-4.6 7.7-9.4-5.7 4.6-7.7z"/><circle r="1" fill="#17160e" transform="matrix(-6.04111 -14.73914 30.32621 -12.42976 116 149.8)"/><circle r="1" fill="#6075a3" transform="matrix(-6.3812 -16.41756 12.15418 -4.7241 218 135.8)"/><path fill="#c5d2eb" d="M213 89l3 54 16-50z"/><ellipse cx="242" cy="140" fill="#bac2da" rx="5" ry="23"/><circle cx="163" cy="163" r="24" fill="#dbaa80"/><ellipse cx="158" cy="24" fill="#efeed0" rx="23" ry="4"/><path fill="#a17652" d="M50 43l39-3 38 23z"/><path fill="#263d2c" d="M193.5 33.9l-12.6 4.9 25.8-9.5-25.2-3.9z"/><path fill="#9f6e54" d="M147 106l10-25-45 17z"/><circle r="1" fill="#dfcdd3" transform="rotate(146.6 37 11) scale(19.91743 11.73457)"/><path fill="#b6bfc2" d="M35.5 90L14.1 42l44.4-20.4L42 38z"/><ellipse cx="209" cy="50" fill="#a07f63" rx="16" ry="27"/><circle r="1" fill="#b07d4f" transform="rotate(168.5 -.7 11.4) scale(14.30584 27.39521)"/><circle r="1" fill="#000100" transform="matrix(-2.04086 -.55458 9.02784 -33.22265 228.3 161.2)"/><path fill="#56688b" d="M217.1 106.4l1.7-7.8 42 9-1.6 7.8z"/><ellipse cx="67" cy="134" fill="#987e97" rx="21" ry="15"/><circle r="1" fill="#ceb083" transform="rotate(6.5 -35.4 1706.5) scale(46.2771 11.11439)"/><path fill="#544637" d="M0 78h23v10H0z"/><path d="M264.4 124.6L254.2 158l-8.6-2.7 10.2-33.5z"/><circle r="1" fill="#322c3e" transform="rotate(-132 25.2 -8.8) scale(5.55728 5.26723)"/><path fill="#623d41" d="M64 117l71-16-34-10z"/><path fill="#f0e8f0" d="M207 94h39v6h-39z"/><path fill="#2a3a51" d="M222 134l9-21v22z"/><path fill="#c7c8dc" d="M267.1 124.8l-3.7-8.9-106.6-1.9 59-10.1z"/><path fill="#f6feff" d="M250.4-11.9l-39.8 130-1-.2 39.8-130z"/><path fill="#b48258" d="M166 141l-17 20 4-77z"/><circle r="1" fill="#000822" transform="matrix(9.03628 12.98112 -23.22246 16.16537 8.6 163.8)"/><path fill="#58536f" d="M43 129.9l-36 4.2-23 13 60.8-8z"/><path fill="#baa5b9" d="M-15.2 114.2l26.9-38.8-27.7-8 89.1 67.2z"/><path fill="#4e526c" d="M65 19L99 1 82 17z"/><path fill="#b9b1ac" d="M69.6 53.3l-52.2 5.9 126.4 37.2-18.4-33.5z"/><circle r="1" fill="#393642" transform="rotate(86.9 35 178.1) scale(10.31168 3.47426)"/><path fill="#231a11" d="M100 130h39v40h-39z"/><ellipse cx="246" cy="74" fill="#987b6c" rx="21" ry="16"/><path d="M-16 10v100L2 67z"/><ellipse cx="192" cy="159" fill="#c8bdd5" rx="16" ry="91"/><path fill="#917369" d="M233 52l34-33-27-2z"/><path fill="#020200" d="M232.7 133.8l-4.3 20.3-18.6-2.8 23.1 33.7z"/><ellipse cx="255" cy="106" fill="#9ec0e7" rx="16" ry="6"/><path fill="#853916" d="M170 75.1l-2 10.8-6-1 2-10.8z"/><path fill="#f1f0df" d="M103.6 86.8l49.9 7.3-55.5-13-43-7.4z"/><ellipse cx="35" cy="78" fill="#2f3023" rx="2" ry="6"/><path fill="#9d7a5d" d="M120.7 62.1L88.2 50.9l22.1-3.6 39.4 15.8z"/><ellipse cx="3" cy="94" fill="#e1c7c5" rx="83" ry="8"/><path fill="#050000" d="M8.8 84.1l1.5-10.9 5 .7-1.6 10.9z"/><path fill="#bfaa7e" d="M54.4 27.1l-38.1.6L-.9-16h37z"/><circle r="1" fill="#020c06" transform="matrix(28.02734 19.31226 -7.94528 11.53076 81.7 169)"/><circle r="1" fill="#ac6f68" transform="matrix(12.14638 -13.19434 4.62996 4.26222 141.5 11.2)"/><path fill="#bcc4d7" d="M236.3 148l-.1-18.7 17.1-8.2L232 109z"/><path fill="#c7b998" d="M47.9 24.8l66.5-15.9 67.8 66.2-42.7-18.8z"/><path fill="#8c783b" d="M134 25l36 18-10-13z"/><path fill="#736c70" d="M63.8 19.3l-8.7-3.5L57.2 47l-17.9-.8z"/><path fill="#dedde0" d="M158-16L261-2 203 9z"/><path fill="#ad98be" d="M81.6 103.8l16.3-13.2-17.8-6.1-96.1 43.3z"/><path fill="#b8a1a9" d="M205.1 140.6l10.9 42.6-54.9-81.5 1.3 51.1z"/><ellipse cx="121" cy="114" fill="#2b0d00" rx="25" ry="4"/><path fill="#b3bbcd" d="M233 130.4l-.2-9.3-10.9 31.5 15.8-53.8z"/><path fill="#8d4323" d="M137 132.8l13.3-11.3 8.7-15.9-33.9 22.1z"/><path fill="#a15c3f" d="M157.3 81.5l3.9-6.5-2.1-11.4-6.8 5z"/><path fill="#e6ede9" d="M38.8 75.8l-45-22.6L38.4 67l58.3 14z"/><path fill="#e0bd99" d="M166.2 87l-31.7-31.7 31.7 62.8 17.1-59.9z"/><path fill="#7e6479" d="M50 109l44 24 4-24z"/><path fill="#bba384" d="M143 34l-81-7-35 37z"/><circle r="1" fill="#bcd4f0" transform="rotate(-159.5 29.4 -1.1) scale(1.53072 30.78918)"/><path fill="#d6c9d9" d="M183.4 26.6l9.8 47.7.9 46.2-24.3-96.6z"/><path fill="#eaf5fe" d="M150.3 108.2l18.5-50.7.9.3-18.5 50.7z"/><path fill="#abb8d9" d="M217.8 119.4l4 .2-1.6 31-4-.2z"/><path fill="#f8fff3" d="M154.4 23.5l-15.5 1.4 26.9 7.3 3.4 6.3z"/><path fill="#d39575" d="M83 61h26v14H83z"/><path fill="#822420" d="M247 43h9v15h-9z"/><path fill="#a5b0b0" d="M197.7 46.6l22.8 8.9-15.1-21.9 14.1 6.1z"/><path fill="#aecce1" d="M172-12l-27 34 15-36z"/><path fill="#b89c6a" d="M170 38l5 26-38-38z"/><circle r="1" fill="#4a2b02" transform="rotate(-118.6 71.6 66.6) scale(27.29133 5.78823)"/><path fill="#8d7656" d="M236.7 21.9l-16.5 49.7-26.1-13.2 25.9-1.2z"/><path fill="#77798e" d="M248.5 106.7l-2.4 10.2-6.5 22 1.8 5.8z"/><path fill="#313c1d" d="M135.7 97l12-10.7.6.7-12 10.7z"/><path fill="#454647" d="M234.4 109.5l-.3 1-30.5-10 .3-1z"/><path fill="#93a3ad" d="M32.7 25.9L8.5 30.7l30.6 18.8-42.9 15.1z"/><path fill="#d6dbd0" d="M29.2 61.4L4.7 57.1 3 77.4 12.9 67z"/></g></g></svg>