<svg xmlns="http://www.w3.org/2000/svg" viewBox="0 0 1400 933"><defs/><filter id="a"><feGaussianBlur stdDeviation="12"/></filter><rect width="100%" height="100%" fill="#5c3c39"/><g filter="url(#a)"><g fill-opacity=".5" transform="translate(2.7 2.7) scale(5.46875)"><circle r="1" fill="#ede2c0" transform="matrix(-12.75429 80.5274 -251.86052 -39.89079 192.6 126)"/><circle r="1" fill="#240200" transform="matrix(15.31561 -46.04042 27.60522 9.18304 143 154.2)"/><circle r="1" fill="#fdf5d3" transform="matrix(-136.18439 -5.74673 .86187 -20.42443 118.2 65.4)"/><circle r="1" fill="#1e0500" transform="rotate(-24.9 432 -497.7) scale(26.82073 56.33261)"/><circle r="1" fill="#fff7e9" transform="rotate(-120.3 131.9 7.2) scale(62.03621 17.33697)"/><ellipse cx="12" cy="126" fill="#59362d" rx="50" ry="42"/><circle r="1" fill="#fff" transform="matrix(-15.00108 -8.64152 12.64176 -21.94522 79.3 141.3)"/><circle r="1" fill="#97765c" transform="rotate(96.2 66.4 71.7) scale(35.68243 76.73625)"/><path fill="#fff" d="M32.1-12l6.6 2.4L19.9 42l-6.6-2.4z"/><path fill="#080f05" d="M24 22h57v17H24z"/><circle r="1" fill="#b5a884" transform="matrix(52.03867 -5.4216 2.20432 21.15792 230.5 68.3)"/><circle r="1" fill="#563a2f" transform="matrix(-21.3126 17.56875 -31.72668 -38.48754 164.3 163.4)"/><path fill="#73645b" d="M17 89h102v28H17z"/><path fill="#9b6652" d="M143 104l-43 79-31-2z"/><path fill="#31231c" d="M271 93.8l-16 41.3-42.5-33.4-3.5-12.3z"/><circle r="1" fill="#c4b087" transform="matrix(60.8819 -2.17377 .4618 12.93387 3.4 51)"/><ellipse cx="118" cy="70" fill="#ece3cf" rx="63" ry="14"/><path d="M35 8l10-23 7 42z"/><ellipse cx="139" cy="39" fill="#371414" rx="19" ry="4"/><path fill="#f7dfcc" d="M68 132l-40 53 116-79z"/><path fill="#3c2d29" d="M165 139l-18 46-64-16z"/><path fill="#c38f78" d="M23.5 166.2l-26-1.4 1-19 26 1.4z"/><path fill="#b4917a" d="M230.2 189.4L182.9 78l12.9-5.4L243.1 184z"/><path d="M24.8 9.4l-25-7.2L3.2-9.4l25 7.2z"/><circle r="1" transform="matrix(2.69063 -5.16291 15.23261 7.9384 1 28.7)"/><path fill="#b4ac87" d="M128 51L98 22l-28-3z"/><circle r="1" fill="#fbecdf" transform="matrix(-.07946 -24.95681 10.34026 -.03292 179 108.3)"/><path fill="#2c2532" d="M79 90h78v3H79z"/><circle r="1" fill="#bb9a7f" transform="rotate(152.3 74 60.1) scale(5.45487 19.64451)"/><circle cx="240" cy="85" r="5" fill="#000004"/><ellipse cy="90" fill="#4f322f" rx="58" ry="4"/><circle r="1" fill="#c39d85" transform="matrix(15.53823 -12.59381 3.70144 4.56684 109.9 149.2)"/><path fill="#a57160" d="M166.6 185l-14.1-30.6 26.3-4.1 16 9.6z"/><ellipse cx="145" cy="51" fill="#d7c6a0" rx="63" ry="8"/><path fill="#f1fffe" d="M18.2 40l-2.8-1L31.8-4l2.8 1z"/><ellipse cx="80" cy="131" fill="#fff4e7" rx="13" ry="15"/><path fill="#b69070" d="M56.3 33.9L36.6 16.5l9.3 9.6 6.6 39z"/><path fill="#040a05" d="M57 26h28v14H57z"/><path fill="#d6c29c" d="M81.4 61.7l-14-26.5 5.2-2.9 14 26.5z"/><path fill="#3c2a24" d="M196 11l44 20-40 6z"/><path fill="#b5a38b" d="M145.7-16.6l7 9.7-32.4 23.5-7-9.7z"/><path fill="#a48856" d="M264 9l-24 22-12-12z"/><ellipse cx="27" cy="122" fill="#7a3326" rx="43" ry="5"/><circle cx="223" cy="73" r="19" fill="#b7af98"/><path fill="#9e6349" d="M102 152l46-46-48 27z"/><ellipse cx="150" cy="112" fill="#684a3f" rx="9" ry="31"/><ellipse cx="66" cy="86" fill="#e8ecd3" rx="27" ry="2"/><path fill="#543d30" d="M38.9 165.6l-1.7 10.7-13.7-9.9 33.4-17.7z"/><path fill="#ab7558" d="M15.8 7.7l4.5 23.4-16.9-9.5L-16 5z"/><path fill="#aa7f68" d="M140.2 42.6l5.6-21.9 26.8 26.2-53.4-22.2z"/><path fill="#efe0d3" d="M211 181l-21-76-45-36z"/><path fill="#bcab82" d="M79.9 42.8L2.5 38.6l100.8 11.2-11.8-28.7z"/><path fill="#b89767" d="M218 35h8v39h-8z"/><path fill="#9c8059" d="M52.5 22.8L62-7.8l9.6 3L62 25.8z"/><path fill="#dcd2bc" d="M104 47L-16 76l114 3z"/><path fill="#876049" d="M231 157l40-1-57-45z"/><ellipse cx="146" cy="14" fill="#63342c" rx="19" ry="11"/><path fill="#ab8e5f" d="M248 77.3l-25.1-33.9 12.9 35.2L271 3.1z"/><ellipse cx="67" cy="91" fill="#19131e" rx="12" ry="2"/><path d="M208.7 91.1l64.7 6.8-.1 1-64.7-6.8z"/><path fill="#583f3a" d="M88 116l22-4-3 8z"/><path fill="#272116" d="M229.4 6.2L271 .4 202.6-16l-7.1 18.1z"/><path fill="#1d1913" d="M46.5 39l2.8-52.8-24.7 44.1-5.6 8.2z"/><path fill="#d0b29f" d="M150.2 100.1L139.6 114l-62.8 33.1 47.3-38.5z"/><path fill="#f6eabd" d="M121.2 30.5l1-3.9 10.6 2.9-1 3.9z"/><path fill="#1d2c24" d="M64.6 11.8l15.7 8.9L75.6 10l20.1 12.4z"/><path fill="#9b8672" d="M127 101l-73 21-27-22z"/><ellipse cx="183" cy="39" fill="#846a59" rx="30" ry="6"/><path fill="#030503" d="M142.2 32l12.4 6.6-2.8 5.3-12.4-6.5z"/><path d="M-5.8-6.6l32 1.2-.4 12-32-1.2z"/><path fill="#c9b39e" d="M109 148l-83 37 22-30z"/><circle r="1" fill="#c9b5a0" transform="matrix(14.7814 3.83904 -.25138 .96789 86.9 12.4)"/><path fill="#101011" d="M142 126h5v41h-5z"/><path d="M214 44h23v2h-23z"/><path fill="#fff4ec" d="M177 58l-1 34 16 18z"/><path fill="#3a1912" d="M122 125.6l.8.6-14.7 20.2-.9-.6z"/><path fill="#d9c3b0" d="M172.1 119.9l32.9-13.6-6.2-17.9-36.5 34.1z"/><path fill="#bcb8a7" d="M81.2 13.1l71.4-15.2.2 1-71.4 15.2z"/><path fill="#784237" d="M145.1 12L97 42.1l31.7-1.1-40.8-21z"/><path fill="#4f5b52" d="M17.7 147.6l-3.4.5-2.3-19 48.2 26.3z"/><circle r="1" fill="#06202e" transform="matrix(.0932 -.99565 50.7559 4.7515 4 86)"/><path fill="#010400" d="M-16 43.3l33.8-11.8-5.3-6.2-28.5-5.5z"/><path fill="#a6937d" d="M174 30h-31l9 8z"/><path d="M198 9l4 7-4 12z"/><ellipse cx="230" cy="50" fill="#b79863" rx="77" ry="3"/><path fill="#401e17" d="M163.2 34.8l-4.5-7.2.5 16.8-8.2-31.7z"/><path fill="#c1cfc1" d="M66 87h50v3H66z"/><path fill="#c7d4c1" d="M248 90.6l4.2-26.7 9.9 1.5-4.3 26.7z"/><path fill="#928b73" d="M25.2 19.3l11.6-30.5-2.3 25.3-19.8 34.1z"/><path fill="#8a4a3f" d="M194 40l26-16-6-37z"/><path fill="#cab695" d="M68 42h76v7H68z"/><path fill="#000002" d="M75.2 31.3l-18.7 3.3-1.7-9.9 18.7-3.3z"/><path fill="#9a5d49" d="M21 92h136v3H21z"/><path fill="#060200" d="M64.6-3.5L81.5-16 28.1 21.1 45.2-3.3z"/><path fill="#bebd9c" d="M75 11l3-5-9-7z"/><path fill="#dfd4bf" d="M140.5 31l-12.1 56.2 39.3 2.5-22.4-3z"/><path fill="#ba9883" d="M116.2 151.8l14.2-30.6-21.1 25.1L18.6 185z"/><path fill="#d3d8bd" d="M15 82h26v4H15z"/><path d="M83.4 19.2l1.3-1.6 3.9 3.2-1.3 1.6z"/><path fill="#ac8164" d="M174 95l1-14-13-7z"/></g></g></svg>