<svg xmlns="http://www.w3.org/2000/svg" viewBox="0 0 1119 1400"><defs/><filter id="a"><feGaussianBlur stdDeviation="12"/></filter><rect width="100%" height="100%" fill="#3c443d"/><g filter="url(#a)"><g fill-opacity=".5" transform="translate(2.7 2.7) scale(5.46875)"><circle cx="171" cy="136" r="230" fill="#fff"/><circle cx="152" cy="82" r="255" fill="#fff6ff"/><path fill="#fff2f7" d="M-16-7l224 7 11 122z"/><circle r="1" fill="#a88a8a" transform="rotate(41.3 -94.4 254) scale(56.779 36.77238)"/><ellipse cx="72" cy="199" fill="#8c7271" rx="22" ry="46"/><path fill="#ffeef3" d="M0-16l1 287 46-139z"/><circle r="1" fill="#ffeff4" transform="matrix(153.0237 -108.68937 22.30312 31.40055 168.7 230.6)"/><circle r="1" fill="#b29797" transform="matrix(42.8771 27.84471 -13.26265 20.4227 70 94.8)"/><circle r="1" fill="#ffecee" transform="matrix(-20.46388 6.31732 -10.0648 -32.60321 112.5 160.4)"/><circle r="1" fill="#ffeef2" transform="matrix(-104.00773 -.54459 .0248 -4.73785 104.1 96.3)"/><ellipse cx="100" cy="87" fill="#615b58" rx="57" ry="5"/><circle r="1" fill="#4e4a47" transform="matrix(-.2188 4.75488 -29.83255 -1.37282 147.6 107)"/><path fill="#635c58" d="M57 120h95v8H57z"/><path fill="#766663" d="M30 204h133v6H30z"/><circle r="1" fill="#ffe3e7" transform="matrix(6.26463 24.3969 -45.46945 11.67564 124 58.7)"/><path fill="#604e49" d="M14 17h25v8H14z"/><path fill="#ffe7e8" d="M3 155.6l-.9-25 123-4.2.8 25z"/><ellipse cx="68" cy="105" fill="#595250" rx="31" ry="4"/><path fill="#ffe3e7" d="M90-16L3 47l216-7z"/><ellipse cx="92" cy="112" fill="#fff" rx="52" ry="3"/><path fill="#ffe6ea" d="M219 172l-87 3 70 80z"/><ellipse cx="197" cy="133" fill="#ffe5e9" rx="8" ry="253"/><path fill="#9c8c8e" d="M151 104h38v69h-38z"/><ellipse cx="6" cy="247" fill="#ffe4e8" rx="18" ry="247"/><path fill="#c4a9ab" d="M25 153h40v91H25z"/><circle r="1" fill="#7b6763" transform="matrix(29.3199 -.51178 .04256 2.43824 125.2 204)"/><ellipse cx="85" cy="250" fill="#ffe7eb" rx="189" ry="6"/><ellipse cx="154" cy="85" rx="2" ry="7"/><path fill="#d3c0c1" d="M138 176.7l-16.6-9.3 26.6-48 16.6 9.2z"/><path fill="#ffe0e3" d="M91 143h14v113H91z"/><path fill="#3c3530" d="M81 221h42v2H81z"/><path d="M49 79h3v15h-3z"/><path fill="#676260" d="M111 196.5H57v-5h54z"/><circle r="1" fill="#060100" transform="matrix(1.68459 .01878 -.08378 7.51305 42.3 103)"/><ellipse cx="78" cy="100" fill="#fee6e7" rx="3" ry="33"/><path fill="#211f1f" d="M110 84h3v20h-3z"/><path fill="#fde1e3" d="M59 143l16 9-4-65z"/><path fill="#fff4f7" d="M112.5 89.9l-13.2 20.6 2.7 12.7 7.4-12.9z"/><path fill="#5d5551" d="M95 71h12v6H95z"/><ellipse cx="82" cy="95" fill="#ffe9ed" rx="145" ry="3"/><path fill="#fce0e4" d="M80 0h72v84H80z"/><path fill="#ffe4e9" d="M18 110h41v37H18z"/><path fill="#ad9c9e" d="M126.9 174.2l-1.6-14.9 33.8-3.5 1.6 14.9z"/><path d="M100.4 100.6l-1.8 26.9h-1l1.8-27z"/><path fill="#ffe0e4" d="M156 0h48v102h-48z"/><path fill="#271f1a" d="M31 10l3 8-4-1z"/><path fill="#fff0f3" d="M125.4 169l-15.8-99.8 1-.2 15.8 99.8z"/><path fill="#c7adaf" d="M19.8 48.8L83 47.4 53.5 79.8l-33.4 9.4z"/><path fill="#110b09" d="M59 114l-1 15 5-2z"/><path fill="#877071" d="M79 234h12v11H79z"/><path fill="#ffe3e7" d="M104.7 195.9l44.9-76.7.4 19.4-60.4 17z"/><path fill="#ffe1e4" d="M191 197l-92 33 88 41z"/><ellipse cx="82" cy="104" rx="1" ry="22"/><path fill="#fff" d="M89 99h3v33h-3z"/><path fill="#ffeef1" d="M43 85h4v44h-4z"/><path fill="#494644" d="M170 104l-19 9 1-12z"/><path fill="#eed6d9" d="M115 115.5l-21.5-.2 12.6-12.1 9 24.1z"/><path fill="#000100" d="M119.1 80l-.2 14h-2l.2-14z"/><path fill="#302e2d" d="M56 85h23v3H56z"/><path fill="#b7a5a8" d="M62 154h29v33H62z"/><path fill="#fde6e8" d="M83.9 117.5l1.2-20.8-6.4 3.2 10.9-17.7z"/><path fill="#897e7a" d="M127.3 112.4l-.8 51.7 9.5-57.4-20.9-9.3z"/><path fill="#ffe4e8" d="M92 175h112v14H92z"/><path fill="#fbe0e3" d="M0 87h40v56H0z"/><circle r="1" fill="#efdbde" transform="matrix(-1.60885 -28.79238 .99844 -.0558 140.8 125.6)"/><path fill="#ffe8eb" d="M94 209h34v10H94z"/><path fill="#646361" d="M57 205h44v5H57z"/><path fill="#f7ddde" d="M13 128h107v26H13z"/><path d="M111 98h2v10h-2z"/><path fill="#96898a" d="M43.5 212.3l12.6-11.9-27.4 3.8 2.1 12.7z"/><ellipse cx="96" cy="134" fill="#f7e2e3" rx="2" ry="43"/><path fill="#fffbfd" d="M107 86h2v46h-2z"/><path d="M81 115h3v8h-3z"/><path fill="#f9e1e4" d="M48 92h60v10H48z"/><path fill="#fee1e6" d="M23.6 26.2L135.3 49 10.5 43.8l15.3-30.9z"/><path fill="#29281f" d="M127 120h8v6h-8z"/><circle r="1" fill="#f5dfe1" transform="matrix(-.99377 .11147 -2.8729 -25.61244 62 108)"/><path fill="#fde7e8" d="M151 75.1l5 35.7h-1l-5-35.6z"/><ellipse cx="102" cy="181" fill="#f6e0e3" rx="2" ry="70"/><path fill="#fddde0" d="M115 199h50v6h-50z"/><ellipse cx="198" cy="147" fill="#f9e0e4" rx="9" ry="255"/><circle r="1" transform="matrix(-.99615 .08766 -.4081 -4.63768 62.4 88.1)"/><path d="M40 97h2v12h-2z"/><path fill="#f4dee1" d="M132.7 22.4l8.6 106-7.5-54.1-4.3 30.6z"/><path fill="#898380" d="M106.9 74.7l1.8 1.6-14.7.4 4.3-9z"/><ellipse cx="103" cy="136" fill="#cdbaa1" rx="20" ry="3"/><path d="M148 82h2v10h-2z"/><path fill="#fff4f7" d="M130.7 58l1 .2-12.4 63.8-1-.2z"/><path fill="#f7e0e4" d="M155.5 52.5l-15.8 44.7L149.9-16l-31 104.3z"/><path fill="#ffeeec" d="M123.4 109.6l1-.1 2.2 43h-1z"/><path fill="#a49293" d="M165 104h25v20h-25z"/><path fill="#f1dfe1" d="M146.7 119.3l-3.9 46.6-10.9-2.2 17.3-12.7z"/><path fill="#ffe5e8" d="M17.1 68.5h-2l3.8-107h2z"/><path fill="#fcdfe3" d="M36.7 12.4L121.3 35l-84-51-7.4 47.2z"/><path fill="#fbe7e9" d="M140.7 128.5l-7.1 4.6 10.2 5.2-3.9-40.6z"/><path d="M144 107l-2-9-1 6z"/><ellipse cx="139" cy="88" rx="2" ry="4"/><ellipse cx="119" cy="103" rx="2" ry="5"/><path fill="#b4a1a2" d="M128 165h61v9h-61z"/><path fill="#f8dce0" d="M44 110h99v5H44z"/></g></g></svg>