<svg xmlns="http://www.w3.org/2000/svg" viewBox="0 0 1400 1120"><defs/><filter id="a"><feGaussianBlur stdDeviation="12"/></filter><rect width="100%" height="100%" fill="#3c343c"/><g filter="url(#a)"><g fill-opacity=".5" transform="translate(2.7 2.7) scale(5.46875)"><circle cx="112" cy="80" r="189" fill="#fff"/><circle r="1" fill="#fffdff" transform="rotate(-12.3 435.4 -571.8) scale(192.82063 186.64097)"/><circle r="1" fill="#987d7c" transform="rotate(-131.1 129.2 32.7) scale(66.63667 35.40512)"/><circle r="1" fill="#fff2f7" transform="matrix(120.60103 43.89519 -21.19391 58.2298 162.8 29.6)"/><path fill="#554744" d="M60 97h127v11H60z"/><circle r="1" fill="#ffebf0" transform="matrix(-44.67802 10.17122 -24.5112 -107.66775 0 104.9)"/><path fill="#998483" d="M251 125l-216-7 77 40z"/><path fill="#ffecef" d="M0 130h180v12H0z"/><ellipse cx="70" cy="167" fill="#ffe8e8" rx="124" ry="16"/><ellipse cx="201" cy="113" fill="#fff0f4" rx="255" ry="6"/><path fill="#ba9d9e" d="M25 52h75v47H25z"/><path fill="#937677" d="M73 187h41v17H73z"/><ellipse cx="247" cy="118" fill="#ffebef" rx="10" ry="203"/><path fill="#6a6462" d="M59 120h153v10H59z"/><path d="M74 139h4v14h-4zm119-49h2v18h-2z"/><path fill="#7a6461" d="M19.6 14.2l-2.5 9.5 28.4 1.1 7.4-13z"/><ellipse cx="43" cy="40" fill="#ffe1e5" rx="255" ry="16"/><ellipse cx="136" cy="192" fill="#ffeff4" rx="23" ry="27"/><path fill="#706764" d="M123 134l-35 18 95-3z"/><path d="M102 115h3v34h-3z"/><path fill="#ffeaed" d="M140 116.9l7.1-22.2-23.7 35.8 11.8 18z"/><path fill="#968284" d="M216 122h22v49h-22z"/><path d="M51.4 129.9l2.2-15.9 1 .1-2.2 15.9z"/><path fill="#ffe1e5" d="M149.9-16l6.6 129.6 6-19.3L271 4.7z"/><path fill="#ffdfe3" d="M95 0h83v98H95z"/><path d="M62 92h3v22h-3z"/><path fill="#746c67" d="M159 128h10v45h-10z"/><path d="M192 91h4v15h-4z"/><path fill="#fbe2e4" d="M95 96h7v54h-7z"/><path fill="#fff9fb" d="M141 95.7l3-.5 13 93.1-3 .5z"/><path fill="#6c6460" d="M127 89l-12-9 26 5z"/><circle cx="234" cy="82" r="41" fill="#ffe1e5"/><path d="M52.2 114.6l-1.4 15-1-.2 1.4-15z"/><path fill="#dfcacc" d="M194.7 131.3l-6.8 50-16.6 20.6-13.6-14z"/><path fill="#3b3a36" d="M159 143h23v8h-23z"/><path fill="#ffeff2" d="M50 130h109v6H50z"/><path fill="#33302f" d="M69 98h37v4H69z"/><path fill="#292420" d="M138 116h14v4h-14z"/><path fill="#fffafd" d="M148 136l-8 11 4-35z"/><ellipse cx="113" cy="136" fill="#fff" rx="2" ry="23"/><path fill="#ffe3e7" d="M0 108h193v7H0z"/><ellipse cx="34" cy="5" fill="#ffe1e5" rx="124" ry="10"/><path fill="#ffe2e7" d="M0 132h74v52H0z"/><path d="M139 97h2v32h-2z"/><path fill="#fff" d="M175.5 162.5v-25h3v25z"/><circle r="1" fill="#010000" transform="matrix(-.31147 -3.89065 1.89182 -.15145 186.7 102.1)"/><path fill="#070700" d="M88.3 142l5.4 1.9 4.1 13.3-2.1-4.8z"/><ellipse cx="120" cy="157" fill="#ffeef0" rx="2" ry="47"/><path d="M38 7h2v11h-2z"/><path fill="#aa9597" d="M158 192h81v12h-81z"/><ellipse cx="106" cy="140" fill="#fce3de" rx="2" ry="45"/><path fill="#fde3e6" d="M81 104l12 9-5 30z"/><path fill="#fffcff" d="M178.7 135.2l-1 .2-12.4-58.6 1-.2z"/><path d="M123 143l3 7-1-14z"/><path fill="#fce4e7" d="M146.3 98.6l-19.7 30.1.3 31.2 10.7-37.1z"/><path fill="#fffeff" d="M163 92h3v31h-3z"/><ellipse cx="135" cy="134" fill="#ffe7e9" rx="2" ry="56"/><ellipse cx="15" cy="121" fill="#fde0e4" rx="18" ry="97"/><path d="M119 100h3v7h-3z"/><path fill="#3f3d3c" d="M183.3 122l21.8-3 1.6 11-21.8 3z"/><circle r="1" fill="#f2dade" transform="matrix(15.6946 -93.78728 .98629 .16505 178.9 99.7)"/><path fill="#fffdff" d="M185.3 96.6l-3.6 40.9-1-.1 3.6-40.9z"/><path fill="#cfb3b4" d="M32 185h55v19H32z"/><path fill="#ae9d9f" d="M32 78h30v25H32z"/><path d="M114.3 106l-1.6-9.9 1-.1 1.6 9.9zm2.6 46h-1l1.2-14h1z"/><path fill="#020502" d="M146 89h3v19h-3z"/><path fill="#f9e0e4" d="M148.6 99.1L57.7-9.1l92.1 93.6 8.3 62.6z"/><path fill="#131410" d="M177 115h4v9h-4z"/><path fill="#f7dad7" d="M101 152h57v32h-57z"/><path fill="#fce1e5" d="M261 119l-92 1 96-27z"/><path fill="#fff6f7" d="M193 111h3v19h-3z"/><path fill="#f9e1e4" d="M10 102h40v71H10z"/><circle r="1" fill="#fae2e3" transform="rotate(-3.1 2546 -1238.8) scale(1.62485 31.45234)"/><path fill="#000100" d="M144 141h4v11h-4z"/><path fill="#fbe3e5" d="M60 113.1l11-17.8-1.7 9.9-5.2 20.2z"/><path fill="#ffe4e8" d="M238 119h18v85h-18z"/><circle r="1" transform="matrix(-.9997 -.02443 .1649 -6.74728 74.3 125.5)"/><path d="M93 120h2v9h-2z"/><ellipse cx="84" cy="102" rx="2" ry="6"/><ellipse cx="138" cy="143" rx="2" ry="9"/><ellipse cx="153" cy="144" rx="1" ry="8"/><ellipse cx="124" cy="95" fill="#fff8fa" rx="2" ry="13"/><ellipse cx="18" cy="18" fill="#0e0a06" rx="2" ry="5"/><path fill="#ab9b9e" d="M189 132h49v72h-49z"/><circle r="1" fill="#fde6e6" transform="rotate(175.4 68 76.6) scale(1.69512 15.48106)"/><path fill="#100e0c" d="M74 103.7l-3.3-9.4-.7 15.5 5.3-8.1z"/><path fill="#ffe6ea" d="M106.6 105.6l30.1-50.3-21.6 17.1-9.1 66.4z"/><path fill="#fff" d="M156 129h2v26h-2z"/><path d="M123 136h2v15h-2z"/><circle r="1" fill="#fae2e4" transform="rotate(-79.1 108.2 7.9) scale(20.85753 1.15863)"/><path d="M64 104.9l-3.3-2.3.7-10.9 2.6 4.6zm87.8 13.9l.9.4-4.5 10-.9-.4zM77 98h3v10h-3zm95 31l-5-7 6 4z"/><path fill="#ffebf0" d="M166 153l22 18-3-19z"/><path fill="#ffe5e7" d="M143.6 96.1l5.8 55.7-1 .1-5.8-55.7z"/><path fill="#ffeff1" d="M176 83h3v32h-3z"/><circle r="1" fill="#0d0c0a" transform="rotate(-171.6 38.3 60.9) scale(1.90529 4.31641)"/></g></g></svg>