<svg xmlns="http://www.w3.org/2000/svg" viewBox="0 0 1119 1400"><defs/><filter id="a"><feGaussianBlur stdDeviation="12"/></filter><rect width="100%" height="100%" fill="#3b343c"/><g filter="url(#a)"><g fill-opacity=".5" transform="translate(2.7 2.7) scale(5.46875)"><circle cx="112" cy="119" r="197" fill="#fff"/><circle cx="119" cy="112" r="191" fill="#fffeff"/><circle r="1" fill="#987a7a" transform="matrix(25.74202 32.88985 -22.93448 17.95021 160.4 134.7)"/><ellipse cx="152" cy="27" fill="#ffeff4" rx="114" ry="57"/><ellipse cx="73" cy="199" fill="#8d7171" rx="21" ry="47"/><circle r="1" fill="#ffeff3" transform="matrix(-156.5231 109.29944 -22.29328 -31.92526 179 223.5)"/><circle r="1" fill="#ffeef3" transform="matrix(5.66483 161.63504 -28.27 .99078 0 121)"/><circle r="1" fill="#b39696" transform="matrix(52.96115 27.20071 -14.04638 27.34901 80.6 92.4)"/><path fill="#4a3834" d="M122.9 84.6l34-1.2.2 8-34 1.2z"/><path fill="#ffe0e1" d="M90 128h60v64H90z"/><ellipse cx="94" cy="88" fill="#575250" rx="47" ry="4"/><ellipse cx="196" cy="136" fill="#ffe8ec" rx="8" ry="253"/><ellipse cx="116" cy="96" fill="#fff2f6" rx="178" ry="5"/><ellipse cx="105" cy="123" fill="#69615d" rx="50" ry="5"/><ellipse cx="146" cy="106" fill="#534c4a" rx="41" ry="4"/><circle r="1" fill="#ffe8eb" transform="matrix(-57.86357 -10.6409 3.2565 -17.70838 34 134.5)"/><circle r="1" fill="#bca0a1" transform="matrix(-20.56986 -4.07294 6.22912 -31.45938 45.4 214)"/><path fill="#937d7a" d="M92.5 209.6l75.5-.7-98-19.4 80 4z"/><path fill="#aa989a" d="M126 151h64v23h-64z"/><path fill="#ffe0e4" d="M87 88l132-75L13-15z"/><path fill="#5a5350" d="M39 102h62v8H39z"/><ellipse cx="95" cy="251" fill="#ffe7ec" rx="185" ry="7"/><path fill="#705d59" d="M11 17h27v8H11z"/><path fill="#fff7f9" d="M80.7 103.9L51.1 113l21.5 4.1 7.7 10.6z"/><path fill="#bdacad" d="M30 47h50v37H30z"/><ellipse cx="176" cy="75" fill="#ffe4e8" rx="22" ry="29"/><path fill="#857d7b" d="M54.4 207.9L25 214.3l59.4-29.8 5.9 28z"/><path fill="#534e4d" d="M48 82h26v9H48z"/><path fill="#e8d5d7" d="M159 119H64l40-16z"/><ellipse cx="60" cy="114" fill="#322b29" rx="2" ry="16"/><ellipse cx="166" cy="182" fill="#ffe8ed" rx="77" ry="9"/><path fill="#ffe3e7" d="M45.4 86.3l-3.8 50.6 33.8-56.1-26.2 54z"/><path d="M98 106h2v17h-2z"/><path fill="#ffdfe3" d="M-7.5 271l51.6-134.8-4.6-33.9L-16-16z"/><path fill="#1d1a18" d="M113 108h-3l-1-26h3z"/><path d="M40 97h3v14h-3z"/><ellipse cx="56" cy="112" fill="#ffedf1" rx="94" ry="3"/><path fill="#5d504b" d="M79 220h43v3H79z"/><path fill="#ffe0e4" d="M91 211h113v45H91z"/><path fill="#a08c8e" d="M164 103h26v25h-26z"/><path fill="#332f2d" d="M81 88h3v35h-3z"/><path fill="#837876" d="M32 205h131v5H32z"/><path fill="#fbe0e3" d="M95.9 140.1L144.4-16 126 92.8 120.1 76z"/><path d="M156 85l-3 4 2-11z"/><path fill="#cdb5b6" d="M23.9 156l53.8-3.8 2.4 33.9-53.8 3.7z"/><path fill="#79716c" d="M126 107h8v36h-8z"/><ellipse cx="45" cy="36" fill="#ffe2e6" rx="203" ry="11"/><path fill="#fbe3e5" d="M90.9 116L74.3 88.2l20.4 4.2-15 21.9z"/><path fill="#fee4e9" d="M153.9 115.4l-1.3 22.4-64 9.4 9 42.3z"/><path fill="#fff0f4" d="M89 198h53v6H89z"/><path fill="#211f1b" d="M119 107.9l1.8 2.5-4.3-15.1 5.4 7.7z"/><path fill="#575954" d="M96 75l1-7 13 8z"/><path fill="#877070" d="M91.1 244.4l-10 .2-.2-11 10-.2z"/><path fill="#454440" d="M55 84h43v2H55z"/><path d="M51.6 80.7l-2.3 10.8-1-.2 2.4-10.8z"/><path fill="#f8dcde" d="M142.9 92.2l-4.3 26.4 2-45.4 5.2-29.9z"/><path fill="#f4dcde" d="M69 62h3v81h-3z"/><path fill="#fff" d="M89 97h3v33h-3z"/><path fill="#fff6fa" d="M76 78h37v5H76z"/><path fill="#fff4f6" d="M124.5 150l-1 .1-12-76 1-.2z"/><path fill="#1d1c1a" d="M113.2 102.2l-3.4 27.8-1-.2 3.4-27.8z"/><path fill="#ffe3e7" d="M14.4 15.7L70.6 1.8-4.2-16l5.9 124.8z"/><path fill="#fff0f2" d="M52 83h4v15h-4z"/><path fill="#131010" d="M72 102h4v8h-4z"/><path fill="#9d8c8f" d="M68 154h23v16H68z"/><path fill="#1b1c19" d="M146 109h9v4h-9z"/><path fill="#ffe6e9" d="M191 57l-2 106 30-1z"/><path d="M30 11h2v9h-2z"/><path fill="#ffe1e6" d="M143.5 184.6l25-18.2 40 55-25 18.2z"/><path fill="#ffe7eb" d="M18 93h143v5H18z"/><path fill="#fde1e2" d="M21 128h93v25H21z"/><path fill="#dcc7ca" d="M67.1 199.9l-64.2 36 64.6-13.8-33.8-39.7z"/><path fill="#fbe0e4" d="M166 0h38v104h-38z"/><path fill="#fbe5e7" d="M111.6 135.4l-10.8-26 15.6 7.1-14.6-23.9z"/><path d="M162 102h3v9h-3z"/><path fill="#fff7fa" d="M98 66h2v33h-2z"/><path d="M141 109l3-1-2-10zm-24-29h2v13h-2z"/><path fill="#ffe8eb" d="M129.5 101.3l3-34.8 2 .2-3 34.8z"/><path fill="#52524e" d="M83 221h39v2H83z"/><path fill="#cbb6b9" d="M87.6 46.4L31 87.6l-12.4-2 2.3-38.2z"/><path fill="#fde3e7" d="M84.2 24.3l69.1 64.4-2.6-52-70.1 44.7z"/><path d="M117.5 117.7l-2 8.8-1-.2 2-8.8z"/><path fill="#ffeaeb" d="M61.2 82.3l-5.4 33.6-1-.2 5.4-33.6z"/><path fill="#fff8fc" d="M30.2 87l18 1-.4 7-18-1z"/><path fill="#6b6664" d="M53 192h35v6H53z"/><path fill="#f7e0e1" d="M125.9 97.3l1.4-32.7-4 33.9-8.8 43z"/><path d="M47 102h3v7h-3z"/><path fill="#ffecec" d="M112.3 109.6l5.4 38.6-2 .2-5.4-38.6z"/><path fill="#ebd6d8" d="M66 92h7v33h-7z"/><ellipse cx="2" cy="219" fill="#fbe1e5" rx="22" ry="225"/><ellipse cx="108" cy="81" fill="#f9e3e5" rx="2" ry="39"/><path d="M120.4 114.7l1-.2 2.2 10.8-1 .2z"/><path fill="#fff" d="M97.6 98.6l-2.2 30.9h-1l2.2-31z"/><path fill="#fce2e4" d="M103.4 211.6l29.1-13.5-35 24.3 8.8-44.2z"/><path fill="#a68e90" d="M42 241l-18-9 2 14z"/><path fill="#ffe3e5" d="M135 66h3v33h-3z"/><ellipse cx="92" cy="137" fill="#d5c2ad" rx="27" ry="3"/><path fill="#e9d4d4" d="M60.5 102.6l2.8 30.1-.4-16.7L66 82.1z"/><path fill="#ab9c9f" d="M149 112h41v56h-41z"/></g></g></svg>