<svg xmlns="http://www.w3.org/2000/svg" viewBox="0 0 1400 933"><defs/><filter id="a"><feGaussianBlur stdDeviation="12"/></filter><rect width="100%" height="100%" fill="#434240"/><g filter="url(#a)"><g fill-opacity=".5" transform="translate(2.7 2.7) scale(5.46875)"><circle cx="128" cy="85" r="166" fill="#fff"/><circle r="1" fill="#fff" transform="matrix(-69.6854 69.44257 -48.43143 -48.60078 69.9 17.1)"/><circle r="1" fill="#fff" transform="rotate(44.8 -66.9 307.9) scale(91.89267 68.48514)"/><circle r="1" fill="#523218" transform="rotate(129.1 29.3 70.4) scale(63.4508 16.85829)"/><circle r="1" fill="#484236" transform="matrix(-48.8132 -42.31885 12.95254 -14.94026 205.8 42.4)"/><circle r="1" fill="#fff" transform="matrix(-75.49803 42.64504 -19.0804 -33.7796 40.8 31.8)"/><path fill="#fff" d="M163 48.4l106 54-24 47.2-106-54z"/><path fill="#8e7055" d="M82.4 71.1l51.9 79.7L92.2 38.3 44.6 83.1z"/><circle r="1" fill="#293a3a" transform="rotate(81.4 -24.5 104.7) scale(17.7797 34.33981)"/><path fill="#5e5140" d="M5.4 129.9l30.5-42 64-33.2-115.3 41.6z"/><path fill="#566418" d="M226 156l-11-26h-53z"/><circle r="1" fill="#f7efdb" transform="matrix(18.99637 30.37607 -17.83168 11.15145 34.3 149.8)"/><path fill="#fff" d="M9 0h148v40H9z"/><circle r="1" fill="#fffffb" transform="matrix(-34.88512 81.67371 -21.40354 -9.14205 147.2 157.5)"/><path fill="#66700f" d="M103 185l-32-27 65-33z"/><path fill="#060a07" d="M187.7 24.8L154.6 17l9.7-41.9 33.1 7.7z"/><path fill="#fff" d="M81.9 92.9l-37.8 16.3-22.5-17.4 86.3-11.6z"/><circle r="1" fill="#444744" transform="matrix(-49.27193 -14.77959 2.35262 -7.84311 230.5 34.7)"/><path fill="#fffffc" d="M125 111l-69 41 58-10z"/><path fill="#fff" d="M142 102l-9-25-27 27z"/><circle r="1" fill="#4a4033" transform="matrix(-2.90731 .60737 -4.22874 -20.24183 141.4 85.4)"/><path fill="#fff" d="M193 0h12v20h-12z"/><circle r="1" fill="#fff" transform="matrix(-3.46998 -11.94375 23.23994 -6.75183 69.4 85.3)"/><path fill="#597c15" d="M136 122l-23 17 21-33z"/><path fill="#fff" d="M-16 97L54-16l61 50z"/><path fill="#000005" d="M78.7 169.6l-1.4-27 6-.2 1.4 27z"/><circle r="1" fill="#754c62" transform="matrix(2.17366 .31323 -6.72218 46.6487 117.6 16.2)"/><path fill="#353d3c" d="M43 130l15 18 61-37z"/><path fill="#fffff1" d="M94 180l152-14-95-30z"/><path fill="#ffffef" d="M59 148h18v22H59z"/><circle r="1" fill="#8b8479" transform="matrix(69.48432 27.74308 -6.28723 15.74677 224.9 58.1)"/><path fill="#ffc311" d="M217 139h12v18h-12z"/><path fill="#e5f0f6" d="M262.3-3.8L253.6 23l-21.9-7.1 8.7-26.7z"/><circle r="1" fill="#b2704f" transform="rotate(41.6 -23.9 204.2) scale(10.21306 29.98295)"/><path fill="#7b5f1b" d="M70.6 175.6l27-40.5 5.1 16.7-19 33.2z"/><ellipse cx="193" cy="100" fill="#fffff9" rx="46" ry="30"/><path fill="#fff" d="M122 0h34v33h-34z"/><path fill="#fdffff" d="M103.6 47.3l-4.2 3.1 7.3 27.4 8.1-5.7z"/><path fill="#fff" d="M27 92l66-13-55 33z"/><path fill="#fbfbed" d="M114.8 134.6l-12.6 23.5-3.8-32.2 28.1-4.5z"/><path fill="#686254" d="M-10 131.8l-11.4-24.5L24 86.2l11.4 24.5z"/><path fill="#18232d" d="M224.6 32.8l-2.2 3.1-2.2-5.5 17.2-42z"/><path fill="#6b7a39" d="M179.2 129.8l40.2 3.1-46.5 5.4-8.1-4.2z"/><path fill="#fff" d="M184.6 67.9l-35.3 18.8-9.9-18.6 35.3-18.8z"/><path fill="#e2ddd1" d="M55 148l-71-17 51-18z"/><path fill="#6b6862" d="M158 12h29v40h-29z"/><path fill="#4d4439" d="M55.2 149l56.3-68.7-27.2-10.8 37.7 45.1z"/><path fill="#fffffd" d="M112 102l24-28-8 41z"/><circle r="1" fill="#97644d" transform="matrix(-12.44397 7.2675 -3.86295 -6.61443 85.7 57.6)"/><path fill="#925c45" d="M125.1 61.1l-18.5-14.3L120.4 77l4.4-44.5z"/><circle cx="145" cy="17" r="3"/><ellipse cx="255" cy="149" fill="#f4f3e5" rx="28" ry="55"/><path fill="#a18675" d="M176 26l-43 49-8-32z"/><circle cx="54" cy="124" r="12" fill="#808b92"/><path fill="#6f4c72" d="M116.3 22.5l-10.5-34.4 1.9-.6 10.5 34.4z"/><path fill="#9c9e93" d="M94 85.4l-12.1 26.5L71.7 94l26.9 4z"/><path fill="#6f6d67" d="M265 82l6-42-69-22z"/><circle cx="77" cy="20" r="30" fill="#fff"/><path fill="#f4ffff" d="M93 63h7v11h-7z"/><circle r="1" fill="#6d8b48" transform="matrix(-5.52926 -4.1286 17.43682 -23.35238 116 150)"/><path fill="#eff" d="M203-16l2 32-15-1z"/><path fill="#241409" d="M113 61l.3 1L99 67l-.4-1z"/><path fill="#fffff3" d="M128.3 83.3l26.5 71.9-12.9-62.4-2.8-9.2z"/><path fill="#faf7eb" d="M137 114l-4 16 45 8z"/><circle r="1" fill="#9b9388" transform="matrix(38.67393 23.69942 -4.86694 7.94213 216.3 64.3)"/><path fill="#5a7fe0" d="M210.1 150.4l-14-14.4 16.4 6.1 6.4 10.7z"/><path fill="#191801" d="M139.9 82.6l1-.3 7.2 29.1-1 .3z"/><circle r="1" fill="#c0bbac" transform="matrix(-10.21605 -23.76207 15.35347 -6.60093 14.4 149.3)"/><path fill="#f3f8f2" d="M145.4 98.7L59 151.4l63.7-24.6 10-21.3z"/><path fill="#110f07" d="M179 14l15-30-29 15z"/><circle r="1" fill="#fbf6e8" transform="matrix(5.52775 2.16465 -1.58846 4.05637 119.4 48.4)"/><circle r="1" fill="#fff" transform="matrix(-14.42676 23.16077 -25.87282 -16.1161 42.2 43.7)"/><ellipse cx="70" cy="114" fill="#434741" rx="14" ry="12"/><path fill="#f8f8f1" d="M166.6 47.5l36.2 80.8 18.8 10.5 32.6-43.2z"/><path fill="#fff" d="M141.3 18.7l15.8 13.9-31.7 10.9-2.9-59.5z"/><path fill="#525452" d="M169 33l37-16h-51z"/><path fill="#9d7c68" d="M74.7 56L43 85.8l55.2-26.9 3.5 6.2z"/><path fill="#fef7df" d="M83 143l9-3-9 17z"/><path fill="#5488dc" d="M188 90h7l-6-9z"/><ellipse cx="78" cy="83" fill="#fff" rx="15" ry="9"/><path fill="#1c2120" d="M220 40.3l3.5-1.6-35.9-23.4-9.8-3.3z"/><circle r="1" fill="#2d3636" transform="rotate(105 97.5 85.8) scale(18.74358 1)"/><path fill="#fffffc" d="M69.7 99.1l-33.6 11.1-8-19.6L69 82.8z"/><path fill="#eabe47" d="M219 137h9v22h-9z"/><path fill="#444944" d="M124.1 112.5l-14.1 8.2-53.2 28.8 20.9-40.4z"/><path fill="#986044" d="M110 98L91 76l46-4z"/><path fill="#b5a7a5" d="M120.5 35.2l-24 3.8 12.9 8.6 22.4-12z"/><path fill="#aaa89a" d="M74 101l9-2 13 12z"/><path fill="#fff" d="M102 41h6v23h-6z"/><circle r="1" fill="#f3f9fa" transform="matrix(-1.05113 -1.95217 21.99373 -11.8424 77 141.4)"/><path fill="#52585c" d="M68 120l-16-14 30-14z"/><path fill="#f3efe3" d="M132 138h68v2h-68z"/><path fill="#b2b4b2" d="M184 16l-1-6 4-7z"/><path fill="#f1efe5" d="M148 107l62 78-102-2z"/><path fill="#1e2220" d="M139 69h3v16h-3z"/><path fill="#fbfbf1" d="M137 76l7 26-34-3z"/><path fill="#77756c" d="M18.8 115.4L.4 128.2-16 94.8l45.3-14.6z"/><path fill="#bdcad9" d="M230.8 18l28.5 9.3-2.1 6.7-28.5-9.3z"/><path fill="#8e6551" d="M103.6 64.8l25.4-2.1-24.7-21L115.1 61z"/><ellipse cx="224" fill="#cbdbe0" rx="5" ry="13"/></g></g></svg>