<svg xmlns="http://www.w3.org/2000/svg" viewBox="0 0 1400 1120"><defs/><filter id="a"><feGaussianBlur stdDeviation="12"/></filter><rect width="100%" height="100%" fill="#3f426c"/><g filter="url(#a)"><g fill-opacity=".5" transform="translate(2.7 2.7) scale(5.46875)"><circle r="1" fill="#ffffe8" transform="matrix(72.6626 -60.09113 162.51004 196.50824 73.4 134.9)"/><path fill="#000100" d="M231 80.3l75.3 103.5-49.4 35.9-75.2-103.5z"/><path fill="#cfcbbe" d="M77-16L-16 86l180 15z"/><circle r="1" fill="#3784c9" transform="matrix(53.21361 42.88317 -20.98184 26.0363 163 2.3)"/><circle r="1" fill="#bcbbac" transform="matrix(118.60222 142.4802 -17.66394 14.70368 196.8 176.6)"/><path fill="#000e08" d="M200.5 105.3l-91.2-81.1 30.5 46.7 58.3 65.8z"/><path fill="#00203b" d="M221 10h35v167h-35z"/><path fill="#b7bab5" d="M76-16l4 235 119-67z"/><path fill="#a3a29b" d="M196 136l55 83-126-78z"/><path fill="#2d5da5" d="M182 70h40v28h-40z"/><circle cx="25" cy="199" r="68" fill="#9c9f93"/><path fill="#9c9192" d="M59 4l33 56-68-24z"/><circle r="1" fill="#111306" transform="matrix(-6.76904 5.53503 -36.49905 -44.63635 225.3 163.5)"/><path fill="#c1bcb1" d="M43 16l-55 171-4-157z"/><circle r="1" fill="#0c1909" transform="matrix(2.57857 -2.01728 20.12582 25.72566 99.8 9.6)"/><circle r="1" fill="#192f50" transform="matrix(3.39256 -24.36441 33.9329 4.7249 227.7 115.6)"/><circle r="1" fill="#1e426f" transform="rotate(-35.7 162.1 -221) scale(17.60173 33.74331)"/><circle r="1" fill="#3975b6" transform="rotate(9.4 34.5 828.4) scale(41.64838 12.0159)"/><path fill="#27487b" d="M198 25l73 42-64-79z"/><path fill="#837b75" d="M201 177h21v23h-21z"/><path fill="#bdc0bb" d="M63.2 96.1l-15.8 37 98-21.6-3.7 37.7z"/><path fill="#5d82b4" d="M150 39l34-14 28 25z"/><path fill="#3d3738" d="M63 147l-7 4-9-8z"/><path fill="#7e7779" d="M66.6 101.7l22.5-7.9-27.8-11.2 3.5.7z"/><path fill="#3070bb" d="M266-15l-74 29-61-16z"/><path fill="#645962" d="M14.9 145.2l-.7-6 23-2.4.6 6z"/><path fill="#837a7d" d="M81.3 27.9l-37.7-1.7L58 48.5l3.7-17.9z"/><circle r="1" fill="#0f1f38" transform="matrix(14.16905 -4.04148 14.77707 51.80703 252.9 105.3)"/><path fill="#c1bebe" d="M82-4l38 43L27 8z"/><path fill="#0e1106" d="M184 103.4l9.2 33.1-49.9-70.9 11.9 12.9z"/><circle r="1" fill="#0e0f12" transform="matrix(15.22072 -18.61844 10.8709 8.88705 241 162.3)"/><circle r="1" fill="#c1c6ca" transform="matrix(20.38922 16.89153 -13.42918 16.20993 112 75.3)"/><path fill="#1f4372" d="M229.2 59.5l-67.6 22-6.8-21 67.6-22z"/><path fill="#bfb3a1" d="M145.9 199l40.7 3.6 37-15.2-65.7-2.1z"/><path fill="#c9ccca" d="M227 182l-19-20-14 6z"/><path fill="#867a75" d="M-2 26.9L-3.6 18 24 13.1l1.6 8.9z"/><path fill="#1c2221" d="M137 67l-20-32 19 5z"/><path fill="#1c3b6c" d="M181 92h63v9h-63z"/><path fill="#473924" d="M115 46l19 9-9-10z"/><path fill="#493a3e" d="M48 109h4v10h-4z"/><circle r="1" fill="#163055" transform="matrix(-30.8456 7.12493 -3.14856 -13.6309 243.4 18.2)"/><circle r="1" fill="#abacaa" transform="matrix(-16.77393 58.76398 -15.14707 -4.32366 72.8 156)"/><path fill="#b1aba8" d="M11 16l84 31-98 25z"/><path fill="#898e8a" d="M-9 219l39-25-16-22z"/><path fill="#334672" d="M144 52l27-25-68-19z"/><path fill="#89847b" d="M170 125.5l.6-.8 47.5 39.8-.7.8z"/><circle r="1" fill="#a4a4a3" transform="matrix(1.8263 -19.16232 24.50987 2.33595 157.9 124.5)"/><path fill="#bdbaad" d="M23 106h24v26H23z"/><path fill="#2e4c89" d="M238.9 131.3l.2 8.9 9.5 1-8.3-18.8z"/><path fill="#786e72" d="M39.4 106.9l5.5-6.6-10.4-11.4 1.6 11.9z"/><path fill="#dcddc7" d="M127 200l-9-9-14 28z"/><path fill="#cccfc9" d="M14.4 99.7L-16 110l33.7-41.2H3.4z"/><circle r="1" fill="#d8dad3" transform="matrix(2.27315 -2.79214 7.45271 6.06743 163.3 149.1)"/><circle cx="20" cy="100" r="3" fill="#41373d"/><path fill="#959e9b" d="M95.4 208l62.6-28.6 13.7 4-94.7 5.3z"/><path fill="#4069ac" d="M187 66l-9 20 37-15z"/><path fill="#c0c0bf" d="M28.8 87.1L59 108.4l-2.2-19.7 45.3-70z"/><path fill="#d2d4c7" d="M120 146l11 13-39-8z"/><path fill="#606163" d="M216 191.7l-13.9-8.6 16.5-2.5-20-6.6z"/><ellipse cx="19" cy="112" fill="#675f60" rx="3" ry="7"/><circle cx="86" cy="54" r="4" fill="#5d4f59"/><path fill="#151c24" d="M179.8 104.6l35.5-5.7-42.7 16-22.3-49.3z"/><path fill="#82827c" d="M67.3 134.3l36.2 30.9 4.5 4.8-.6-5.6z"/><path fill="#456db0" d="M249.2 48.4l-4.9 3.4-5.9 1.4 6.3-11.5z"/><path fill="#080b09" d="M271 211l-19 8-26-62z"/><path fill="#2e5e9a" d="M229.9 13.9l26-29.9L271-.5l-82.4 11.6z"/><path fill="#e0e0cf" d="M226.8 202l7-4 3.4 6-7 4z"/><path fill="#bac0be" d="M168.6 183l6.2 6.8-43.8-37.9 63.3 26.2z"/><path fill="#615743" d="M229.2 192.5l.8-9-20.3-20.1 24.2 16.9z"/><circle r="1" fill="#b8b8b4" transform="rotate(-135.9 134.3 40.3) scale(10.59153 8.70688)"/><circle cx="178" cy="18" r="5" fill="#16294e"/><path fill="#3b5c94" d="M109.2-.4l31.7 28.9-33.1-8.7 45-19.8z"/><path fill="#8c7163" d="M184 166l-16-1 16-5z"/><circle r="1" fill="#8a9088" transform="rotate(-8 1359.8 -809.7) scale(2.5002 24.52494)"/><path fill="#173050" d="M223.2 76.6l-17.8-16 15.4-17.2 17.8 16z"/><path fill="#436ea2" d="M227.9 25.8l-37.4 31.5 31.9-33.6 2.2.3z"/><path fill="#767077" d="M47 22l18 10-29-2z"/><path fill="#b0adab" d="M27.8 35.4l-43.8 35L57.6-16l24.3 30.5z"/><ellipse cx="10" cy="123" fill="#80766f" rx="7" ry="4"/><path fill="#11233d" d="M219.7 93.7l-21.2 8.8-44.1-41.1 79.7 93.3z"/><path fill="#585077" d="M191 88.8l26.9-9.2 8.8-6.5-19.6-8.2z"/><path fill="#6e6364" d="M146 108h17v3h-17z"/><path fill="#2c4672" d="M223 95h17v13h-17z"/><path fill="#5c615f" d="M179.5 146.4l-23.3-5.8.3-1 23.3 5.8z"/><path fill="#958f8f" d="M64 108l8 12 23-6z"/><path fill="#a9acac" d="M31.1 151.2l69.1 67.8-48.4-69.5-56.5-25.4z"/><path fill="#c1bdb6" d="M50.9 109.6l-30.7-7.3-36.2 70.5 23-64.2z"/><path fill="#bcc6c4" d="M119 169l35 22-22-26z"/><path fill="#656365" d="M58 136l-10 9-2-5z"/><path fill="#4a7ab1" d="M167.3 33l5.1 17.7L184 17.1 215.3 51z"/><path fill="#acb1b2" d="M142.1 71.3l18.4 71.5-29.4-8.5 35-34.8z"/><path fill="#596059" d="M147.4 175.6l.3-1 15 5.8-.4 1z"/><path fill="#757571" d="M188 197h39v3h-39z"/><path fill="#9f9179" d="M138 199h34v5h-34z"/><path fill="#88908e" d="M131.4 166.4l-9.5-30.3 19 31 1.5-6.1z"/><ellipse cy="7" fill="#bcbbae" rx="22" ry="9"/><path fill="#b6bbb9" d="M171 156.9l-2.8-28.2 21.7 43.8 29.3-.4z"/><path fill="#928884" d="M34 158l-16-25 1 34z"/><path fill="#747971" d="M194.3 146.1l7-4 4.4 7.8-7 4z"/><path fill="#bfc2c1" d="M82.1 122.9l-20 11.7L36.7 120l3.9-.4z"/></g></g></svg>