<svg xmlns="http://www.w3.org/2000/svg" viewBox="0 0 1400 933"><defs/><filter id="a"><feGaussianBlur stdDeviation="12"/></filter><rect width="100%" height="100%" fill="#51423a"/><g filter="url(#a)"><g fill-opacity=".5" transform="translate(2.7 2.7) scale(5.46875)"><circle r="1" fill="#dee4de" transform="matrix(-178.0959 -182.50165 85.559 -83.49352 95.7 97.1)"/><circle r="1" fill="#27241d" transform="rotate(75.9 -18.3 64.8) scale(31.79674 58.0304)"/><circle r="1" fill="#e5eae9" transform="matrix(30.13056 -19.64187 65.13852 99.92228 135.1 36.9)"/><path fill="#372909" d="M257 151L74 181l32-59z"/><path fill="#2e0b00" d="M190 18l53 71-41-5z"/><circle r="1" fill="#94a9b6" transform="matrix(92.19228 33.98617 -6.76104 18.34028 191.3 0)"/><ellipse cx="247" cy="117" fill="#dddad8" rx="46" ry="29"/><path fill="#f0fcff" d="M-4.5 93.1L38.3 121 4.5 173l-42.8-27.8z"/><path fill="#fff" d="M147.2 108.5l-24 16.2-22.4-33.2 24-16.2z"/><circle r="1" fill="#d7e2ed" transform="rotate(-167.3 17 2.6) scale(88.26017 13.50562)"/><path fill="#464a3f" d="M21 46h106v34H21z"/><path fill="#fcfffd" d="M70.2 95.7L59.4 65.3l-2.9 7.8-1 38.9z"/><path fill="#454235" d="M49 18L9 31l47 93z"/><path fill="#514e46" d="M184.6 103.3l-56 15.2 20.8-10.9 26.1-16.9z"/><path fill="#5b3825" d="M123.9 131.6l4.1-1.5-25.7-31.4-41.6-4.9z"/><path fill="#d8d9d2" d="M153.5 75.4l-52-30 49-84.8 52 30z"/><path fill="#766950" d="M212 47l-53 7 42 26z"/><circle r="1" fill="#8f6251" transform="rotate(136.1 -10 84.5) scale(38.74874 17.97919)"/><circle r="1" fill="#dae2d8" transform="matrix(.31363 7.70608 -64.5488 2.62703 223.8 169)"/><path fill="#d0dae3" d="M18.2 11.6L4.2 68l-22.4-5.5L-4.2 6z"/><circle r="1" fill="#2d4b16" transform="rotate(177.9 108.2 77.6) scale(24.50823 10.23082)"/><path fill="#1052be" d="M154 135h27v18h-27z"/><path fill="#cdc9ca" d="M152.9 121.6l-.3 22.6 75-49.7-24.8-10.7z"/><path fill="#eaedeb" d="M45 43.6l8.7-13.9 38.4-16.4 69-21.9z"/><path fill="#e7e9e4" d="M25.6 103.1L7.2 115.7l16.6 24.9L52 118z"/><path fill="#707b51" d="M118 45.4l41.8-.4-37.3 11.4-73.9 27.1z"/><path fill="#cfdddd" d="M75.3 121.4l16-.8 1.4 26-16 .8z"/><ellipse cy="100" fill="#1e3602" rx="32" ry="3"/><ellipse cx="4" cy="132" fill="#002f8d" rx="12" ry="4"/><path fill="#dee1e0" d="M147 65L96 92l132 1z"/><circle r="1" fill="#966149" transform="matrix(13.03064 8.78928 -23.65369 35.06803 127.9 155.5)"/><circle r="1" fill="#828183" transform="rotate(-72 87.6 -120.3) scale(15.17982 59.83324)"/><circle r="1" fill="#615757" transform="matrix(-15.36047 16.88093 -15.22505 -13.85373 28.6 43.4)"/><path fill="#f8fefb" d="M60 78l-8 17 17 4z"/><path fill="#270f00" d="M214-8l-16-8-4 40z"/><circle r="1" fill="#514256" transform="matrix(2.75466 .39147 -12.9531 91.14805 65.1 138.6)"/><path fill="#bcbcb9" d="M48 173.7l14.2-23.8-8.5-20.3-7 34.7z"/><path fill="#4e5956" d="M96 60l-6 32 45-22z"/><path fill="#7a691d" d="M9.2 121.9l-24.6-32 12.3 48.2-7-12.7z"/><path fill="#e5e5e8" d="M181.5 23l-20.1 33.4L142.5 45l20.1-33.4z"/><ellipse cx="252" fill="#2f3a43" rx="11" ry="25"/><path fill="#4d601f" d="M28.6 114.8l15.9-5.6 8.4 3.5-.7-27.5z"/><circle r="1" fill="#35193c" transform="matrix(14.6863 -5.13995 4.08987 11.68592 22 78.8)"/><path fill="#c2d6e4" d="M222.3 26.6L206.1-6.9l18.1 14.8-16.2 4.9z"/><path fill="#998788" d="M7 53l30-5 9 18z"/><path fill="#a1a7af" d="M40.7 26.6L97.2 13l42.4-22.4L57.1-3z"/><path fill="#6a7477" d="M144 27l-8-16 16 5z"/><path fill="#563658" d="M102.2 41.2l-12.7 26-29.7-14.4 12.7-26z"/><path fill="#a88ba0" d="M168 122.7l50.9 3.6-1 13-50.8-3.6z"/><circle r="1" fill="#d6dcda" transform="matrix(2.27885 -7.0302 14.57586 4.7248 255 97.8)"/><path fill="#334021" d="M18 32l41 9 22 44z"/><path fill="#948e72" d="M98.2 64.1l-12.8 61.3L66 87.6l28-14.4z"/><path fill="#1c120c" d="M197.7 18.9L227.3 41l-3 4-29.6-22z"/><path fill="#a3b0bb" d="M210.2 11.8l4 9.9 24.9 18.4.2-7.3z"/><path fill="#280000" d="M104 130h-9v9z"/><path fill="#dde1e3" d="M105.8 37.6L130.2-16l14.4 49.4L104 55.9z"/><circle r="1" fill="#523d2c" transform="matrix(40.40242 -1.7072 .45612 10.7944 234.6 77.6)"/><path fill="#464953" d="M244.1 26.4l19.4 19.1-56.3-36.2 29.8 4.9z"/><path fill="#e7ebe8" d="M8.6 96.6L-5.3 82.8l15.3 41-15.8-26.9z"/><path fill="#617332" d="M163 54l9 13 13-14z"/><path fill="#c7c9c5" d="M200 182l58-34-9 37z"/><path fill="#3e5c26" d="M197 140l-65 30 84-13z"/><path fill="#25251d" d="M175 97h-12l-12 13z"/><path fill="#404a25" d="M48.3 91.9L4.9 103.3l12.2 3.5 7.8-3.6z"/><path fill="#94817c" d="M178 59l26 22-20-88z"/><path fill="#d8d9d6" d="M148 70l54 16-18-22z"/><circle cx="91" cy="155" r="6" fill="#441b0c"/><circle r="1" fill="#513f31" transform="rotate(47.8 -74.7 177.2) scale(20.69213 5.66428)"/><path fill="#a68f83" d="M233.7 114.7l28.4 15.1 8.9-20.9-37.5-8.5z"/><circle r="1" fill="#fffffa" transform="matrix(.29628 -1.16635 7.17491 1.8226 255 10.3)"/><path fill="#dadad9" d="M27.7 111.4L-11.9 185l58.6-65.7.9-5.4z"/><path fill="#ab9e5e" d="M148.3 64.5l47.4-1.1-43.4 6.4-9.8-8.5z"/><path fill="#ced6d4" d="M131.4 116.4l-1.1 15-22.1-26.1 75.7-18.6z"/><circle cx="107" cy="20" r="4" fill="#8e7e16"/><circle cx="50" cy="82" r="8" fill="#20360e"/><path fill="#574438" d="M186 28.7l45.9 64.4L271 68l-58-47.4z"/><circle r="1" fill="#946e4f" transform="matrix(35.3355 -36.8505 8.24743 7.90837 19.7 169)"/><path fill="#dddcd8" d="M61.4 29.3l56.2-5-50.4-1.9L70.8 47z"/><path fill="#6a5775" d="M71 139l-1 42-19-74z"/><path fill="#b8bcb5" d="M59.4 73.9l8.4 30.8-17.3-42.1 15 12.6z"/><path fill="#8d9eb4" d="M137.2 67.5l-3.2 6.2-21.2-11.2 3.2-6.2z"/><path fill="#e5eaeb" d="M27.1 102.8l14-.4L4.7 122l3.2 2.6z"/><circle r="1" fill="#896049" transform="matrix(26.3474 -4.69121 5.71566 32.10102 122 162)"/><path fill="#93a9b8" d="M238-1l-14 27 19-20z"/><path fill="#c0c8d6" d="M17.4-15.7L37.1 7-7.4 45.7-27.1 23z"/><path fill="#bdbfbb" d="M218 137l50 17-91-82z"/><path fill="#214a95" d="M126 23l-14 7h8z"/><path fill="#e4eceb" d="M58 23l-1 16-8-4z"/><path fill="#edebea" d="M93.5 15.6l19.6 17-8.6 9.8-19.6-17z"/><path fill="#404e27" d="M209 162l42-10-39-11z"/><ellipse cx="85" cy="140" fill="#b8bdb9" rx="11" ry="12"/><path fill="#848774" d="M38 63h5v28h-5z"/><path fill="#8f8f61" d="M104.4 44.7l-8.8 2.7 58.5 1.4-37.6 8.2z"/><path fill="#654b39" d="M152 131l1-15-21 13z"/><path fill="#e1e9ec" d="M100 89l4 13 30-29z"/><path fill="#98adc1" d="M226.8-13.7l-21.9 32-15.7-5.5 7.6 4.7z"/><path fill="#856758" d="M226.5 44.6l44.5-8.4v-6.7l-40.8 6.9z"/><path fill="#f2f7f4" d="M-16 69L8 52l-19-16z"/><path fill="#867770" d="M17.7 55.2L-16 58.7l38.1 40.5-30.4-11.8z"/><path fill="#a8b0aa" d="M84.2 132.4l20.8-4.1-3.3-15.6-31.8 14.4z"/></g></g></svg>