<svg xmlns="http://www.w3.org/2000/svg" viewBox="0 0 933 1400"><defs/><filter id="a"><feGaussianBlur stdDeviation="12"/></filter><rect width="100%" height="100%" fill="#940415"/><g filter="url(#a)"><g fill-opacity=".5" transform="translate(2.7 2.7) scale(5.46875)"><circle r="1" fill="#fff" transform="matrix(-162.50187 1.1345 -.11314 -16.2052 92.4 7)"/><ellipse cx="59" cy="247" fill="#fff" rx="169" ry="14"/><ellipse cx="112" cy="249" fill="#fff" rx="169" ry="16"/><ellipse cx="100" cy="10" fill="#fff" rx="169" ry="12"/><path fill="#fff" d="M0 235h170v21H0z"/><ellipse cx="64" cy="8" fill="#fff" rx="169" ry="14"/><ellipse cx="112" cy="4" fill="#fff" rx="169" ry="17"/><path fill="#fff" d="M169.5 235v22H.5v-22z"/><circle r="1" fill="#b00114" transform="matrix(4.53735 -64.79456 163.97389 11.48255 81.6 136.6)"/><ellipse cx="53" cy="50" fill="#79000d" rx="58" ry="29"/><ellipse cx="87" cy="26" fill="#9a000d" rx="120" ry="5"/><circle r="1" fill="#cd0917" transform="matrix(-12.61235 -9.1704 17.48572 -24.04867 118.3 56.9)"/><ellipse cx="105" cy="9" fill="#fff" rx="169" ry="12"/><ellipse cx="61" cy="255" fill="#fff" rx="169" ry="21"/><ellipse cx="19" cy="126" fill="#b60617" rx="24" ry="70"/><path fill="#ab0315" d="M122 234H55l130-87z"/><ellipse cx="12" cy="214" fill="#70000c" rx="29" ry="20"/><path fill="#79010f" d="M49 22h64v34H49z"/><ellipse cx="161" cy="89" fill="#770010" rx="7" ry="65"/><path fill="#fff" d="M185 21L-1 16l133-32z"/><circle r="1" fill="#8d0313" transform="matrix(-24.98563 -53.69375 20.9843 -9.76475 52 81.8)"/><path fill="#ab0415" d="M66 22h93v14H66z"/><path fill="#830212" d="M32 144l16 41 10-64z"/><path fill="#fff" d="M0 0h24v22H0z"/><ellipse cx="77" cy="250" fill="#fff" rx="169" ry="16"/><circle r="1" fill="#bc0715" transform="matrix(-21.50933 -31.29627 11.92065 -8.19283 169 181.5)"/><path fill="#66010e" d="M90 69l27-43-61 29z"/><path fill="#5e010b" d="M49 201l-5-17-9 18z"/><path fill="#5b010d" d="M43 79l19 6-17-27z"/><path fill="#c50918" d="M41.5 165.4L52.3 153l-39.7 31.3L40.8 199z"/><path fill="#cc0d18" d="M132.7 69.3l11.6-9.7-54.2 6.9 15.9 13z"/><path fill="#c20716" d="M35.4 124.6L19.3 93.5l38.5 24-42.3 39z"/><ellipse cx="41" cy="21" fill="#d4a2a4" rx="132" ry="1"/><path fill="#920213" d="M185 106.6l-37.8 48.1-30.2 3.1-15.5-57.3z"/><circle r="1" fill="#5d010b" transform="matrix(-3.05695 2.05648 -10.07954 -14.98326 6.7 194.9)"/><ellipse cx="27" cy="88" fill="#c0091a" rx="16" ry="9"/><path fill="#d20c18" d="M166 190h4v34h-4z"/><path fill="#c50b17" d="M150 188v24l-19-32z"/><path fill="#6d010f" d="M173 22l-17 8 22 53z"/><path fill="#7e0111" d="M15 22h22v49H15z"/><path fill="#53000c" d="M1.4 100l-5.9-1.3L-1.4 84l5.9 1.3z"/><path fill="#ca0817" d="M119 158l25-2v12z"/><ellipse cx="30" cy="1" fill="#fff" rx="169" ry="20"/><path fill="#b50215" d="M91 85l-24 36 12-58z"/><ellipse cx="70" cy="174" fill="#9a0114" rx="21" ry="60"/><path fill="#c20d1a" d="M112 22h51v6h-51z"/><path fill="#ce101a" d="M43 90h16v7H43z"/><path fill="#7b0210" d="M145.1 127.5l39.9-10.3-27.8 10.4-33.2 34z"/><path fill="#810310" d="M33 96h48v10H33z"/><path fill="#a40615" d="M0 191v22l18 20z"/><path fill="#780210" d="M94 22h20v27H94z"/><ellipse cx="3" cy="137" fill="#de0e28" rx="5" ry="7"/><circle r="1" fill="#ab0115" transform="matrix(9.99044 2.08711 -7.27702 34.83312 137 113.6)"/><path fill="#5e000b" d="M136 45h6v12h-6z"/><ellipse cx="158" cy="253" fill="#fff" rx="169" ry="19"/><path fill="#66020e" d="M54.6 28.5l13.9-3-4 26.3-13.3-8.6z"/><path fill="#b70b17" d="M6 27h7v16H6z"/><path fill="#6b020e" d="M106.5 111.4l21-9.4 2 4.6-21 9.4z"/><path fill="#9b0214" d="M66 52l1-28 37 5z"/><path fill="#9a0115" d="M19 25h27l30 65z"/><path fill="#ae0015" d="M127 213h19v19h-19z"/><path fill="#6f020e" d="M40 131l2 8 20-11z"/><path fill="#b20413" d="M143 44h17v13h-17z"/><path fill="#730210" d="M153.2 139.3l8.9 12.2 22.9 9.6-17.4-17.8z"/><circle r="1" fill="#790310" transform="matrix(4.1274 9.64757 -4.78976 2.04914 158.1 199.9)"/><path fill="#b20115" d="M92 108l50-38-6 27z"/><path fill="#ca0e1a" d="M27.1 172.1l5-6.2L47 178l-5 6.2z"/><ellipse cx="105" cy="234" fill="#ba767a" rx="108" ry="1"/><path fill="#bd0615" d="M53.3 120.8l-5.9 13-18.2-32.5 41.3 24z"/><path fill="#8a0212" d="M87.4 209.1l-6.1-21.5L99.1 153l-30 39.1z"/><path fill="#78000f" d="M59 232l20 1-11-13z"/><path fill="#aa0415" d="M97 51.4l6.8-5.9 13.2 15-6.8 6z"/><path fill="#7b0310" d="M99 81h23v5H99z"/><path fill="#cd0714" d="M74.3 117l-5.8-1.4 3.2-12.6 5.8 1.4z"/><path fill="#79020f" d="M85 115v-13l-23 29z"/><path fill="#73000f" d="M115 46.4l1.2 1.5L91 67.6l-1.2-1.5z"/><path fill="#7c0111" d="M127.6 125l-15.8 6.4-3.4-8.4 15.8-6.4z"/><path fill="#b40716" d="M4 70l6-17 9 10z"/><path fill="#b30417" d="M25 199l-30-30 46 4z"/><ellipse cx="131" cy="153" fill="#60020c" rx="6" ry="3"/><path fill="#ae0215" d="M68 132h53v14H68z"/><path fill="#6e010e" d="M52.7 56.9l.6.3-7-2.2-.5 40.2z"/><ellipse cx="14" cy="252" fill="#fff" rx="169" ry="18"/><path fill="#73010f" d="M60.5 92.8l2 .5-9 35.9-2-.5z"/><path fill="#980114" d="M30 62.7l-4 29.7L40.2 74l9.2-26.9z"/><ellipse cx="145" cy="176" fill="#6d0310" rx="2" ry="7"/><path fill="#840212" d="M138.6 178.4l-9.4.7-5.5.3 10-16.3z"/><ellipse cx="17" cy="49" fill="#69010d" rx="6" ry="9"/><path fill="#73020f" d="M44 156h4v48h-4z"/><path fill="#c00b18" d="M46.9 176.1l-30.6-41.2 24.6 51.5 3.4-5z"/><circle r="1" fill="#c30715" transform="matrix(-5.13155 -.71994 .52731 -3.75855 169 92.3)"/><path fill="#be0716" d="M159.8 22l-29.3 19 11.4-.2-13.3-14.1z"/><path fill="#ab0216" d="M51 194l69-16-54-4z"/><path fill="#440006" d="M78 207l-7-3h8z"/><path fill="#6f010f" d="M72.9 64.2l-8.1-23.1L60.3 68l-9-16.7z"/><path fill="#bc0414" d="M83 114l-2.4 2-4.5-2.3-1.7-9.4z"/><circle r="1" fill="#c50e19" transform="matrix(-13.8212 7.04225 -.9661 -1.89608 31 141)"/><path fill="#5e010c" d="M26 77h10v3H26z"/><path fill="#840111" d="M146 49l19 23-5 43z"/><path fill="#980014" d="M88 198h33v35H88z"/></g></g></svg>