<svg xmlns="http://www.w3.org/2000/svg" viewBox="0 0 1121 1400"><defs/><filter id="a"><feGaussianBlur stdDeviation="12"/></filter><rect width="100%" height="100%" fill="#940415"/><g filter="url(#a)"><g fill-opacity=".5" transform="translate(2.7 2.7) scale(5.46875)"><circle cx="107" cy="148" r="108" fill="#ac0113"/><ellipse cx="70" cy="41" fill="#70000d" rx="51" ry="32"/><circle r="1" fill="#c50816" transform="matrix(13.46939 11.76072 -32.38733 37.09274 154.1 33.9)"/><ellipse cx="25" cy="134" fill="#bb0617" rx="29" ry="78"/><ellipse cx="15" cy="232" fill="#70000d" rx="39" ry="27"/><path fill="#65000b" d="M78.3 44.5l53.6-46.6 11.8 13.6-53.6 46.6z"/><circle r="1" fill="#7b0010" transform="rotate(179 97 50.7) scale(7.97306 63.51438)"/><circle r="1" fill="#c10615" transform="matrix(-14.03885 8.77245 -24.07896 -38.5344 204 192.7)"/><circle r="1" fill="#7f000f" transform="matrix(6.8315 22.79325 -35.53487 10.65037 199.8 29)"/><circle r="1" fill="#900113" transform="matrix(9.46073 18.64812 -33.17635 16.83132 71.7 143.8)"/><path fill="#75020f" d="M42 89h43v13H42z"/><circle r="1" fill="#890111" transform="matrix(-43.01318 -49.08846 23.01065 -20.16281 36 30)"/><path fill="#5b010b" d="M46 213l9 5 3-38z"/><path fill="#5f000b" d="M52-13L81 6l-5 38z"/><circle r="1" fill="#bc0716" transform="matrix(32.98436 -1.03451 .32054 10.2202 165.5 2.2)"/><circle r="1" fill="#900013" transform="rotate(43.3 -263.2 211) scale(21.80432 48.47613)"/><path fill="#64000b" d="M128 18h9v22h-9z"/><path fill="#77010f" d="M177 123l-26 41 43-37z"/><path fill="#9d0212" d="M138 6L76-4l5 37z"/><ellipse cx="173" cy="187" fill="#b60716" rx="14" ry="32"/><path fill="#c20818" d="M46.6 172.6l-20.8 2.8 1.9 39.3 29.8-25.9z"/><path fill="#b30517" d="M69 93.8l28.1-38.7 20.8 30.3L6.3 78.1z"/><path fill="#a20215" d="M62.7 8.4l4.9 6.6L41 .5 45.9 82z"/><path fill="#d00815" d="M43 109h18v22H43z"/><path fill="#cd0d1a" d="M153.9 37.5l8.7 15.7-38.5 21.3-8.7-15.7z"/><path fill="#800210" d="M162 90l-23 44-11-27z"/><path fill="#d20c18" d="M200 209h5v34h-5z"/><path fill="#b70616" d="M172 26h19v17h-19z"/><path fill="#5b0009" d="M13 222.2l-16.3-21.6 6.4-4.8 16.2 21.6z"/><path fill="#67020e" d="M52.2 70.1l-21.7-4 44 11.4L54 39z"/><path fill="#6c010e" d="M187 225l17-5-21-17z"/><path fill="#71010e" d="M23.3 17.2L-16 47.4l69.7-8.2-17.3 9.1z"/><circle r="1" fill="#b10215" transform="matrix(-44.769 2.2412 -.40496 -8.08934 164.1 85.5)"/><path fill="#a30614" d="M16.8 259.3L-16 207.6v-10.4l27.1 23.7z"/><path fill="#76020f" d="M93 119.5l-28.2 7.8L29 158l-2.4 1.4z"/><circle r="1" fill="#b70815" transform="matrix(-8.70324 3.03255 -6.13819 -17.61624 19.4 61.7)"/><ellipse cx="109" cy="143" fill="#ac0115" rx="29" ry="18"/><circle r="1" fill="#db0c26" transform="rotate(-123 40.7 69.7) scale(9.74416 4.51454)"/><circle r="1" fill="#ab0015" transform="matrix(-15.35769 -3.65872 5.6282 -23.62474 165.4 255)"/><circle r="1" fill="#64010d" transform="matrix(-2.68829 9.80835 -2.28335 -.62582 55.6 172.4)"/><path fill="#870112" d="M79 117l-20-7 37-66z"/><path fill="#ca0d19" d="M42 173h7v40h-7z"/><path fill="#cc1019" d="M52 86H40V72h12z"/><path fill="#6a010e" d="M192 5h13v26h-13z"/><circle r="1" fill="#c80816" transform="matrix(-.76702 4.67089 -11.97366 -1.96622 157.8 167)"/><path fill="#b40617" d="M102.6 63.8l34.1-26.9 3.2-44.8 14.9 52.2z"/><path fill="#d20f1a" d="M50 135l-26 19 5-15z"/><path fill="#73010f" d="M169 45.3l-8.4-.7 14.9-34.7-1 12.4z"/><path fill="#6b020f" d="M123 16L76 44l37 17z"/><circle r="1" fill="#69010d" transform="matrix(-2.34787 1.18413 -4.79038 -9.49823 98.5 103.8)"/><path fill="#cb0717" d="M130 112h12v7h-12z"/><path fill="#850211" d="M151 181h28v8h-28z"/><path fill="#65030d" d="M147.4 153.7l8.9 9.8 3.2-1.6 9.9-2.9z"/><path fill="#7d0111" d="M193 112l-14-46 20-6z"/><path fill="#63010c" d="M74 250h15v6H74z"/><path fill="#a20215" d="M71 65.3L124.8 99 56.3 50l55.5 8.3z"/><path fill="#be0815" d="M.5 164.7l8.2 20.5 45.2 26.5-55.2-18.2z"/><path fill="#bd0c16" d="M15 11l-2 19L8 8z"/><path fill="#6e020f" d="M186 140l12 21 12-10z"/><path fill="#9e0015" d="M36 169L1 145l8 44z"/><path fill="#7b000f" d="M171.4 217.6L203 271l2.2-15.6-45.2-40z"/><path fill="#790210" d="M108.9 220.8l-16.6-10 4.2-1.7-14.3 18.2z"/><path fill="#6b010d" d="M24.4 19L15.8-6.7l2.5 39.5L38.4-16z"/><ellipse cx="37" cy="216" fill="#6d020e" rx="24" ry="4"/><path fill="#bb0716" d="M170.4 159.5l-8.1 63 57.7-86.8-46.4 86.1z"/><circle r="1" fill="#a40115" transform="rotate(-119.7 49.9 52.8) scale(21.16754 16.00841)"/><path fill="#750310" d="M48 131h10v15H48z"/><path fill="#74020f" d="M76.3 132.5l25.4-18.7-42.5 2.5 31.4-1.8z"/><path fill="#aa0116" d="M132 150l-37 63 66-2z"/><circle cx="66" cy="124" r="4" fill="#5f010c"/><path fill="#7d0210" d="M139.5 78.6l-29.2-8.2 28.3 3.3 12.7 1.4z"/><path fill="#d70814" d="M94 106l-10 8 3-16z"/><path fill="#780110" d="M147 112.5l-19.5 25.3 24.3-19.3 1.9-1.8z"/><path fill="#750110" d="M112 179l-1-9-16 15z"/><circle r="1" fill="#69010e" transform="matrix(2.02948 3.21956 -13.22138 8.33421 36.5 239.2)"/><path fill="#bc0716" d="M175 35l-6 12 9 5z"/><path fill="#71010e" d="M138.8-1.8L133 7.9 116.7-16l-3.3 22.8z"/><path fill="#63010c" d="M-16 233.2L12 271l-7.3-23.2 6.2-7.6z"/><path fill="#d0161d" d="M178 5l22-5-46-16z"/><path fill="#60000a" d="M5 77l-21 8v52z"/><path fill="#ba0617" d="M19.6 62.7L7.7 92.5l53.8 42.6-16-29.2z"/><path fill="#850111" d="M182 68l-23-9-14 10z"/><path fill="#860111" d="M25.7 46.7l14.2 11.5-51.7 8.9 32.3-11.6z"/><path fill="#6d010e" d="M144.2 154.2l-8 .6-.4-7 8-.6z"/><path fill="#b00114" d="M182.7 87.2L107.1 105l70.3-44.9-11.8-.8z"/><path fill="#5f000b" d="M39.9 96l3-5.1 5.2 3-3 5.2z"/><ellipse cx="126" cy="255" fill="#940114" rx="20" ry="34"/><path fill="#c20917" d="M115 51h33v19h-33z"/><path fill="#840211" d="M172.9 198.2l-1.8-19.9 6-.5 1.8 19.9z"/><path fill="#c30e19" d="M70 86l-4 18-1-23z"/><path fill="#cf111a" d="M46 144.6l-6.2-3.2 4.1-8 6.3 3.2z"/><path fill="#ac0115" d="M157.1 130.7l36.8-12.4-50.8 2.7 48 60.3z"/><path fill="#a90216" d="M82.2 207l11-19.3-40.1 9.5 32.2 42.1z"/><path fill="#790112" d="M195 180h5v9h-5z"/><ellipse cx="1" cy="27" fill="#7e0011" rx="7" ry="35"/><path fill="#b60415" d="M176 135h9v12h-9z"/><path fill="#65000d" d="M132 103l15 3-17 5z"/><path fill="#7c0110" d="M30.2 62.2l13.2 6.3L30.2 75l4.6-36.5z"/><path fill="#5f010b" d="M42 162h13v4H42z"/><path fill="#c10614" d="M198.9 84.4l.4 1 6.9 15.3 5-25.8z"/></g></g></svg>