<svg xmlns="http://www.w3.org/2000/svg" viewBox="0 0 300 522"><defs/><filter id="a"><feGaussianBlur stdDeviation="12"/></filter><rect width="100%" height="100%" fill="#940415"/><g filter="url(#a)"><g fill-opacity=".5" transform="translate(1 1) scale(2.03906)"><circle r="1" fill="#ae0113" transform="matrix(-64.26909 -27.58643 55.88785 -130.20389 121 124.2)"/><circle r="1" fill="#72000c" transform="matrix(38.48911 -31.73352 22.4039 27.17335 64.4 25.6)"/><ellipse cx="9" cy="137" fill="#c10515" rx="21" ry="73"/><circle r="1" fill="#d40e1a" transform="matrix(-21.97977 15.73597 -7.83942 -10.94998 111.5 52.8)"/><path fill="#61010c" d="M82.8 47.5l-22.6 5-17-13.2L112.1 8z"/><ellipse cx="24" cy="156" fill="#75000f" rx="6" ry="26"/><circle r="1" fill="#6a000b" transform="rotate(-150.7 31 117.5) scale(15.44962 26.67454)"/><path fill="#a60315" d="M55.5 28L41.6-14.8 82.5-28l13.9 42.8z"/><circle r="1" fill="#76000d" transform="matrix(-38.06891 -45.04848 8.38955 -7.08972 5.4 35.3)"/><circle r="1" fill="#bb0717" transform="matrix(12.96061 -30.53328 15.80578 6.70915 129.3 6.7)"/><circle r="1" fill="#74010e" transform="rotate(-77 73 34.4) scale(5.98021 13.12893)"/><path fill="#880110" d="M-16 162l92-58-23 37z"/><path fill="#7e0210" d="M134 91l-26 45-6-30z"/><path fill="#c60715" d="M20 155.6l-9.3-20.3 32-17.6-32-19.8z"/><circle r="1" fill="#6e010e" transform="rotate(-150.3 89.7 49.8) scale(3.08875 31.29729)"/><circle r="1" fill="#8a0112" transform="matrix(-16.48186 49.27725 -7.08073 -2.3683 65.1 216.5)"/><circle r="1" fill="#ae0314" transform="matrix(25.10073 -92.60083 17.5491 4.75692 146 209.8)"/><circle r="1" fill="#62010c" transform="matrix(11.031 27.16609 -6.55466 2.66157 39.6 12.1)"/><path fill="#a70114" d="M14.9 28.3l61.4 36.9 32.8 57.2-31.9-19.6z"/><path fill="#c30718" d="M-12.6 207.3l4.4-41.8 30.8 3.2-4.4 41.8z"/><path fill="#7c020f" d="M131 34.9l22.2-31.8-13.3 46.4 3.2 11.4z"/><ellipse cx="46" cy="85" fill="#b40415" rx="146" ry="5"/><path fill="#600009" d="M28 217H16l11-30z"/><path fill="#960113" d="M2 68l22 4V9z"/><path fill="#a30114" d="M24.4 141.4l127.7-47.5-124.7 73.7-43.4 17.1z"/><path fill="#cb0916" d="M143 173l19-16-48 8z"/><path fill="#6f010d" d="M42.1 62.9l-1.9 12.9-18.9-4.3L-7.8 68z"/><path fill="#7f000f" d="M30 118l27-31-1-35z"/><path fill="#7a020f" d="M76.2 111.4L59 86.7l9.3 19-25.6 30z"/><path fill="#62020c" d="M102 14h6v25h-6z"/><ellipse cx="116" cy="224" fill="#940113" rx="131" ry="8"/><path fill="#aa0115" d="M144 21.6l-22.2 28.7-26.2-20.9-4.8 13.7z"/><path fill="#7a030f" d="M100.3 149.3l28 13 16.1-2-33.6-10.7z"/><circle r="1" fill="#ab0115" transform="matrix(29.68174 2.91986 -1.63479 16.61839 100 198.7)"/><path fill="#c20313" d="M56.2 102.7l14.3 5.9-32.2 11.3 9.4 2.2z"/><path fill="#ce0d19" d="M10.6 163.2l-1.9-3-4.8-18.3-19.9 12.7z"/><path fill="#60010c" d="M26 42h6v32h-6z"/><path fill="#bd0b17" d="M159.5 210.3l-29.9-19.5 4.3 21.2 25 18.3z"/><path fill="#d9141a" d="M107 0h6v8h-6z"/><path fill="#69020e" d="M14.4 160.5l15.8 2-.6 5-15.8-2z"/><path fill="#63010c" d="M98.8 112.4l-.5-5 16.9-1.8.5 5z"/><ellipse cx="130" cy="186" fill="#6b010f" rx="9" ry="3"/><path fill="#c00c18" d="M23 84l-4-31-7 33z"/><path fill="#9c0114" d="M38 37.5l-16 5.9-12-33 16-5.8z"/><path fill="#850111" d="M118.3 67.5L145 48l4.7 6.4L123 74z"/><path fill="#cd121a" d="M14.6 171l12.6 18-5.8 4-12.6-18z"/><ellipse cx="43" cy="192" fill="#9f0114" rx="15" ry="55"/><path fill="#ca101a" d="M112 47l-12 22 44-21z"/><path fill="#7d0210" d="M66.8 116L28 132.4l-32 29.1 23.7-15.4z"/><path fill="#b40114" d="M116.2 90.1l6.3-22 41.3 11.8-6.3 22z"/><path fill="#69010d" d="M27.3 229.6l-31.1 21.8-3.5-5 31.1-21.8z"/><ellipse cx="107" cy="75" fill="#750110" rx="10" ry="3"/><path fill="#7f000f" d="M-11.1 58.7L-6.8-2 13-.7 8.8 60z"/><path fill="#cc111a" d="M37.7 93.3l-3-3.5-12.5-4.5 21.2-2.9z"/><path fill="#500109" d="M56 220h7v5h-7z"/><path fill="#71010e" d="M78.1 60.6l11.2 3.3L57 8.7l6.8 33.1z"/><path fill="#5a000b" d="M70 110l3-7-7-6z"/><path fill="#a70114" d="M117 106L52 82l13-31z"/><path fill="#d20c17" d="M86.3 68.4l2.5-17.8 7 1-2.6 17.8z"/><path fill="#6c000c" d="M38 251h22v5H38z"/><path fill="#b40114" d="M107 151.8l-39-9 3-12.6 39 9z"/><path fill="#67020f" d="M147.7 195.8l-1 .2-2.4-17.8 1-.2z"/><path fill="#c40714" d="M18 107h14v24H18z"/><path fill="#5f0009" d="M33 121h6v13h-6z"/><path fill="#5a010c" d="M137 218.7l1.2-1.5 16.9 14.1-1.3 1.5z"/><path fill="#7d0211" d="M28 100l-17-4 10-13z"/><path fill="#bb0716" d="M112.1 122l-14.4-4.2 2.2-7.7 14.4 4.1z"/><circle r="1" fill="#65020c" transform="matrix(-.22405 -2.02943 3.92976 -.43385 22.3 133)"/><ellipse cx="109" cy="11" fill="#73010e" rx="10" ry="3"/><path fill="#be0718" d="M12 100l-28 8L0 64z"/><path fill="#960213" d="M77 181l-39 3 4-64z"/><path fill="#64000b" d="M51.3 107.2l1.5-11 4 .6-1.6 11z"/><path fill="#b70514" d="M58 99l6.2 1.3 8.5 15.1-19.2-7.7z"/><path fill="#60020c" d="M63 61l-9 3 6 4z"/><path fill="#62000d" d="M137 28h5v15h-5z"/><path fill="#78010f" d="M162 133.2L136.6 151 162 85.2l-22.4 22.2z"/><ellipse cx="56" cy="28" fill="#a10215" rx="6" ry="7"/><ellipse cx="41" cy="198" fill="#ac0215" rx="16" ry="8"/><path fill="#8f0212" d="M82 84l-1-20 22 14z"/><path fill="#70010e" d="M42.9 56.9l-8.1-17.2 53.9 12.6-35.9-15.9z"/><path fill="#b80818" d="M135 37.8l-29-8.3 5-17.3 28.8 8.3z"/><path fill="#5d010d" d="M115.9 113.6l7 .8-.8 6-7-.8z"/><path fill="#c80d19" d="M27 123.8l-43 37.1 36.7-22.3-8.2-10.7z"/><path fill="#77020f" d="M100 0h3v42h-3z"/><path fill="#5e020b" d="M112 163h3v8h-3z"/><circle r="1" fill="#b70615" transform="matrix(-4.79463 3.55887 -6.78501 -9.14099 12.2 203.8)"/><circle cx="93" cy="255" r="18" fill="#920113"/><path fill="#450106" d="M70 215l-1 3h7z"/><path fill="#6b010d" d="M-5 218l20 8-6-18z"/><path fill="#940213" d="M102 16l-45.2 8.7 57.6-19.2L32 3.8z"/><path fill="#880413" d="M129 188l-1 17 7 8z"/><path fill="#5c010d" d="M87-10L84 6l9-9z"/><path fill="#6c010f" d="M142.1 25l-1.2-11 9-1 1.2 11z"/><path fill="#ab0114" d="M139 86l-21 63 19-4z"/><path fill="#74000f" d="M115 126l-3-7-13 13z"/><path fill="#79000d" d="M30 87h4v22h-4z"/><path fill="#66000d" d="M1 68h36v2H1z"/><path fill="#ab0216" d="M37 60l-5-8 11-7z"/><path fill="#77010f" d="M27.8 159.6l2.2 27.2 4.8 2.1-12.4-6.5z"/><path fill="#a70314" d="M89.8 29.9l7.1 20.5 11.1 3.5L90.6 31z"/></g></g></svg>