<svg xmlns="http://www.w3.org/2000/svg" viewBox="0 0 933 1400"><defs/><filter id="a"><feGaussianBlur stdDeviation="12"/></filter><rect width="100%" height="100%" fill="#940415"/><g filter="url(#a)"><g fill-opacity=".5" transform="translate(2.7 2.7) scale(5.46875)"><ellipse cx="83" cy="8" fill="#fff" rx="169" ry="14"/><path fill="#fff" d="M-.5 276.5v-43h179v43z"/><ellipse cx="66" cy="8" fill="#fff" rx="169" ry="14"/><ellipse cx="85" cy="249" fill="#fff" rx="169" ry="15"/><path fill="#fff" d="M0 0h169v22H0z"/><ellipse cx="69" cy="245" fill="#fff" rx="169" ry="11"/><ellipse cx="118" cy="255" fill="#fff" rx="169" ry="21"/><ellipse cx="104" cy="7" fill="#fff" rx="169" ry="14"/><ellipse cx="22" cy="135" fill="#c40416" rx="28" ry="63"/><circle r="1" fill="#b00114" transform="rotate(-94.3 124.3 17.3) scale(87.96232 45.66167)"/><ellipse cx="61" cy="47" fill="#72000d" rx="52" ry="22"/><circle r="1" fill="#c40917" transform="matrix(-22.53542 33.02365 -10.61211 -7.24173 117.6 55.8)"/><ellipse cx="54" cy="251" fill="#fff" rx="169" ry="17"/><ellipse cx="67" cy="7" fill="#fff" rx="169" ry="14"/><circle r="1" fill="#74010d" transform="matrix(27.8617 17.6703 -10.90534 17.19503 11.6 209.9)"/><path fill="#cc0715" d="M147 167.2l23-12.2 21 39.8-23 12.2z"/><ellipse cx="156" cy="236" fill="#fff" rx="169" ry="2"/><path fill="#67010d" d="M91 71L56 57l62-31z"/><path fill="#fff" d="M108.7 20.7l76.3 1.6L137.2-16-16 19.7z"/><path fill="#9d0014" d="M54 225l46-70-63-29z"/><path fill="#70000e" d="M158 26h12v57h-12z"/><path fill="#8f0112" d="M112 104h53v50h-53z"/><path fill="#810212" d="M49 132l-20 14 23 37z"/><ellipse cx="78" cy="21" fill="#cc989c" rx="58" ry="1"/><path fill="#61000c" d="M49.5 57.6L60 89.5l-18.8-12 19.2-47.9z"/><ellipse cx="42" cy="252" fill="#fff" rx="169" ry="18"/><path fill="#d00f1b" d="M106.9 81l-5.3-10.7 31.5-15.4 5.3 10.8z"/><path fill="#c20717" d="M44.5 176.3l-4.6 21.5-28.4-6 4.6-21.6z"/><path fill="#dc0c16" d="M158.2 21.7l1 3.9-17.4 4.7-1-3.9z"/><path fill="#7e010e" d="M33 96h38v11H33z"/><path fill="#a50116" d="M40 59.5l-8.3-28.9 14.4-4 8.2 28.8z"/><path fill="#b70817" d="M4 68l58 25-55 11z"/><path fill="#8f0112" d="M96 79l-34 56 56-53z"/><circle r="1" fill="#b30715" transform="matrix(-13.34264 -1.60344 3.64881 -30.36279 146.1 174.4)"/><ellipse cx="83" cy="30" fill="#a60214" rx="16" ry="8"/><path fill="#62010d" d="M60.3 59l-8.4-36.1 7.8-1.8 8.4 36z"/><path fill="#7e0211" d="M114.9 53.7l-4.8-32.1-25.8 55.9-.2-8.5z"/><ellipse cx="54" cy="2" fill="#fff" rx="169" ry="19"/><path fill="#b80817" d="M128 36l46-15h-65z"/><path fill="#c40614" d="M35.1 132l-.7-28.6L57 119.6l23.6-7.7z"/><path fill="#cf0c18" d="M166 189h4v35h-4z"/><path fill="#ad0115" d="M79 70.1l40 23-12 20.8-40-23z"/><path fill="#a00115" d="M48 134h74v97H48z"/><path fill="#66000c" d="M48 203.7l-9-.4 1-17 9 .4z"/><path fill="#dc0c26" d="M-8.5 145.5v-13h17v13z"/><path fill="#7d0210" d="M185 117.8l-23.8.7-35.9 48.9 18.1-38z"/><path fill="#5a010a" d="M10 208l9-6-17-15z"/><circle r="1" fill="#b20217" transform="matrix(7.44686 .88378 -2.04253 17.21066 134.6 123.6)"/><path fill="#76000e" d="M3.5 73.9l12.8-48.6 15.9 38.4-47.7-40.5z"/><path fill="#fff" d="M94 235h76v21H94z"/><path fill="#8c0012" d="M22.8 65.9l-36.5 15.7 65.4-34-23.1 39.9z"/><path fill="#6e020f" d="M132.8 101.3l1.2 2.8-24.8 10.6-1.2-2.8z"/><path fill="#a60515" d="M17 227l-33-23 21-4z"/><path fill="#5c050f" d="M7.6 233.1L-16 186.6v38.9l11.5 10.3z"/><path fill="#800211" d="M125 174h24v6h-24z"/><path fill="#b60115" d="M146 79l-45 13 57 5z"/><path fill="#ae0315" d="M101.7 64.9L99.4 46l7-.9 2.2 18.9z"/><path fill="#75010f" d="M185 197.2V215l-34.5-23 5.6 18.4z"/><ellipse cx="160" cy="118" fill="#7f0111" rx="5" ry="34"/><path fill="#cc0e1a" d="M28.1 168l14.2 17.2.7-26.1-18.9 15z"/><path fill="#a90215" d="M51 60h16v10H51z"/><path fill="#71030e" d="M59 130H43l-7 14z"/><path fill="#bf0716" d="M117 160.3l24.5-4.5-4.7 50.1 8.8-38.7z"/><path fill="#8c0212" d="M73.4 184.8l30.3-37.3-39.8 68.2 30.7-12.2z"/><path fill="#6e010e" d="M86 112.1l-22.6 16.1 18.2-12.1L77 96.5z"/><path fill="#cc0d19" d="M20 135l21 1-21 12z"/><path fill="#af0213" d="M167 73h3v73h-3z"/><ellipse cx="155" cy="73" fill="#8c0112" rx="27" ry="11"/><path fill="#aa0313" d="M145.9 37.9l-10.4 50.9 14.3-33.9 14.2-4.1z"/><path fill="#c40413" d="M59 123l17-20 2 9z"/><ellipse cx="70" cy="234" fill="#ba6b6f" rx="134" ry="1"/><path fill="#9d0115" d="M78 203h67v31H78z"/><path fill="#fff" d="M3 271l135-31-139-6z"/><path fill="#67000b" d="M135 58.5l2-13.8 6 .8-2 13.8z"/><path fill="#4b0008" d="M-1.6 87.2l5 .8-1.8 10.8-5-.8z"/><path fill="#66000e" d="M22 221l8 7 13-19z"/><path fill="#4c020a" d="M124.3 153.1l9-1.2.4 3-9 1.2z"/><path fill="#af0513" d="M8 61l14-3L1 86z"/><path fill="#ac0216" d="M77.7 174l1.5 12-33 11.6 1.6-12.5z"/><path fill="#790210" d="M42 93l10 14-20-7z"/><path fill="#7c0311" d="M109.6 131.8l7.4-2.5 9.7-10.1-7.6-5.6z"/><circle cx="51" cy="80" r="10" fill="#77000f"/><path fill="#c00917" d="M44.8 82.7L27 109.2l-5.8-3.9L39 78.8z"/><path fill="#fff" d="M-16 6.8L164.9-16l11.9 37.7-39.9-.5z"/><path fill="#b00215" d="M117.4 154.7l-19 4.7 24.2-22.9-49.4-3z"/><ellipse cx="55" cy="96" fill="#c60d19" rx="3" ry="8"/><path fill="#5f000a" d="M51 123h5v9h-5z"/><path fill="#8c0112" d="M91.4 66L59.9 87.1l18.2-26 32.5 35.5z"/><circle r="1" fill="#6f010d" transform="rotate(-80.3 80.4 -45) scale(13.8239 2.61576)"/><path fill="#77000e" d="M68 221l-11 11 18 1z"/><ellipse cx="146" cy="22" fill="#c71e29" rx="33" ry="1"/><path fill="#ad0814" d="M15 40L8 50 6 22z"/><path fill="#b60315" d="M153 163l31 20-39-53z"/><path fill="#a20016" d="M-9.8 127.5l-1.1 4.1 31.5 27.2 5.5 42.8z"/><path fill="#60010c" d="M26 78h17v2H26z"/><path fill="#990213" d="M66 22l3 30 27-27z"/><path fill="#59010a" d="M75 45h19v7H75z"/><path fill="#6d010d" d="M22.4 206.8l28.2-7.5-22.8-.5-43.8-8.1z"/><path fill="#7c0312" d="M0 22h38v5H0z"/><path fill="#800111" d="M88.1 203.2L68 192.4l16.9-4.2-18.1 23.1z"/></g></g></svg>