<svg xmlns="http://www.w3.org/2000/svg" viewBox="0 0 1400 2100"><defs/><filter id="a"><feGaussianBlur stdDeviation="12"/></filter><rect width="100%" height="100%" fill="#346c54"/><g filter="url(#a)"><g fill-opacity=".5" transform="translate(4.1 4.1) scale(8.20313)"><circle cx="88" cy="110" r="174" fill="#fff"/><circle r="1" fill="#fff" transform="matrix(126.18185 112.42393 -53.01488 59.5026 106 49.7)"/><circle r="1" fill="#5d2323" transform="matrix(-1.44586 19.68886 -41.04419 -3.0141 42.5 171.7)"/><ellipse cx="45" cy="111" fill="#495e4b" rx="22" ry="34"/><circle cx="86" cy="1" r="90" fill="#fff7fd"/><circle r="1" fill="#fffaff" transform="matrix(24.5891 -2.01824 4.96623 60.50588 0 99.5)"/><circle cx="133" cy="216" r="71" fill="#bb9fa0"/><circle cx="106" cy="118" r="42" fill="#f6e5e8"/><ellipse cx="55" cy="223" fill="#d3c5c6" rx="92" ry="14"/><path fill="#7b786f" d="M179.4 267l-51-72.8 30.2-21.3 51 73z"/><path fill="#44231b" d="M69 171.6l-1.1 16-44.9-3.2 1.1-16z"/><circle r="1" fill="#b0a8a8" transform="rotate(81.9 -44.6 125.3) scale(10.59911 50.19918)"/><path fill="#9d99af" d="M135.2 67.6l14.9-1.8 6.7 54.6-14.9 1.8z"/><path fill="#80998a" d="M66 130l1-49-47-2z"/><path fill="#9a8b86" d="M-16 178l102 13-10 28z"/><path fill="#556b5b" d="M25 118h24v28H25z"/><path fill="#efebea" d="M107.2 137.5l24.4 8.3L139-16 62.7 148.7z"/><circle cx="1" cy="242" r="56" fill="#baaaac"/><circle r="1" fill="#ebdedc" transform="matrix(14.61667 -.85902 4.15089 70.62992 9.2 86)"/><path fill="#8b8c83" d="M185 155.4l-10.8 40.2-20.3-37.3-9.4-8.8z"/><circle r="1" fill="#f4e5e2" transform="matrix(16.22334 .51155 -2.66062 84.3799 169 69.3)"/><path fill="#5f6545" d="M158.2 86.1l-4.3-4.7-6.3-6.2-13.3-3.3z"/><path fill="#3851b2" d="M141 88l17 25-10-3z"/><path fill="#d1d6dc" d="M142.5 170.5L97.7 160l3.8-16.6 44.8 10.4z"/><path fill="#745048" d="M60 165l27-9-16 32z"/><ellipse cx="47" cy="16" fill="#f4eeee" rx="42" ry="65"/><path fill="#7d716d" d="M71 146l-87 50 17-37z"/><circle r="1" fill="#d1d5ce" transform="matrix(-22.0741 3.41725 -1.36209 -8.79855 118.9 219.5)"/><path fill="#e7e2dd" d="M116.6 139.5l68.4 16.7-48.9-79.3 47.4 17.9z"/><path fill="#999998" d="M-3.3 218.4l38.6 23.2-18 30-38.6-23.2z"/><path fill="#6e8575" d="M24 90h30v51H24z"/><path fill="#e5e4e1" d="M146.1 106.2l10.8 44.4-69-16.9 44.6-63.1z"/><path fill="#74726a" d="M188.8 234.2l-20.5 16-19-24.4 20.4-16z"/><circle r="1" fill="#8e8e85" transform="rotate(153.1 10.2 103.5) scale(21.96269 9.23267)"/><path fill="#a2a09b" d="M65.6 166.1l41.9-26.9-35.3 7.2-34.8 12.1z"/><path fill="#7b86ab" d="M155.5 68.3L137 79.7l-.4-6 1.1-6.9z"/><ellipse cx="73" cy="223" fill="#c6c9c4" rx="56" ry="8"/><path fill="#8fa79a" d="M24 81h39v12H24z"/><circle r="1" fill="#ddd6d2" transform="rotate(-147.1 22.3 68.8) scale(23.48847 15.79058)"/><path fill="#a2aca4" d="M-.6 164.7l5.7-4 7.5 10.6-5.7 4z"/><circle r="1" fill="#b1aba3" transform="matrix(-9.31868 -.98922 3.3593 -31.64542 90 173.2)"/><circle r="1" fill="#f3eff1" transform="matrix(4.28477 28.28482 -32.4674 4.91837 163 33)"/><path fill="#465" d="M45 91h4v52h-4z"/><path fill="#b3bcb4" d="M62.9 93.4l6 .3-1.8 33-6-.4z"/><circle r="1" fill="#b2afaf" transform="matrix(2.06631 9.81776 -55.13544 11.60417 88 239)"/><ellipse cx="110" cy="255" fill="#9b9798" rx="119" ry="5"/><path fill="#6b7f70" d="M48 116h15v26H48z"/><path fill="#e6e3d5" d="M185 110.2l-11.6 2.3-32.6-24.2-2-14.7z"/><ellipse cx="147" cy="196" fill="#a0a097" rx="14" ry="23"/><path fill="#596035" d="M159 85.7l-12.4-6.5.5-1 12.3 6.6z"/><circle r="1" fill="#bdbeb9" transform="rotate(-128 63.6 96) scale(28.15282 7.86065)"/><circle r="1" fill="#e5e3e2" transform="matrix(-3.144 -29.82725 27.11308 -2.85791 10.9 55)"/><circle r="1" fill="#e3dbd9" transform="matrix(-9.65573 13.03448 -20.6405 -15.29015 97 6)"/><circle r="1" fill="#e1d0cb" transform="matrix(27.65523 -4.28126 .39894 2.57698 59.4 145)"/><circle r="1" fill="#b8b3ab" transform="matrix(.0208 -11.91617 27.92953 .04875 104.2 177.7)"/><path fill="#889c90" d="M27 80h15v37H27z"/><circle r="1" fill="#6771ab" transform="matrix(-.81774 -2.98202 3.65422 -1.00207 152.2 114)"/><path fill="#745049" d="M22 169.4l45 6 6.4 3.8 12.9-15.6z"/><circle r="1" fill="#a4a498" transform="matrix(-.50923 -6.32917 21.02407 -1.69156 83.4 210.2)"/><path fill="#e8e6e3" d="M68 87h36v54H68z"/><path fill="#563d37" d="M59.4 182.8l-2.4-9-42.7-2.9 10 13.1z"/><path fill="#071300" d="M143 73h3v2h-3z"/><path fill="#5b7263" d="M25 92h4v56h-4z"/><path fill="#cacdcf" d="M161 166l-29 6-6-34z"/><path fill="#767576" d="M54.5 150.7l44.8-10.4.2 1-44.8 10.4z"/><path fill="#9c9f8d" d="M155 83h14v2h-14z"/><path fill="#dfdbd5" d="M136.8 68.6L185 56.9l-65.1 11.4 58.2 11.1z"/><path fill="#768a7d" d="M28 121h14v26H28z"/><path fill="#354a9a" d="M136.6 70.2l-.1-1 15-1.4v1z"/><circle r="1" fill="#efeae9" transform="matrix(14.96904 -21.64607 26.73235 18.48639 110.8 52.2)"/><path fill="#b5a29f" d="M22.7 146.1l1.7 9.5 31.7-6.6-23.7-1.3z"/><path fill="#c7c6c1" d="M64.6 218.6l67.7-7.4 32.6 34-19.6-10.3z"/><path fill="#919089" d="M63.6 216.3L80 195.2l-34.7-6.3-44.9-14z"/><path fill="#5d443e" d="M50.4 188.6l30.7-29.7-61.8 27.3 55.1 1.5z"/><path fill="#cccdc5" d="M20 90h4v62h-4z"/><path fill="#e1ddd3" d="M185 119l-22 8-23-54z"/><circle r="1" fill="#f5f1f3" transform="matrix(-47.97077 -35.24452 9.85014 -13.40688 29.1 4.9)"/><path fill="#80615d" d="M16 155l37 18-25-24z"/><circle cx="145" cy="76" r="2" fill="#2e380a"/><path fill="#e6e4e2" d="M-3 33l98 49-81-5z"/><path fill="#dbd7cd" d="M134.9 128.1l50.1 7.4-34.4-16.7-16.7-29.3z"/><path fill="#3d6451" d="M66.6 127.8l-22.2 5.8-18.1-1.4 12-1.4z"/><circle r="1" fill="#a9a5a0" transform="matrix(-2.75502 -5.7624 17.93395 -8.57428 68.7 156.3)"/><path fill="#a19f99" d="M169.7 172.7l-35.5-28.5 21.7 7.2 29.1 6.1z"/><path fill="#50705d" d="M44 81h3v53h-3z"/><path fill="#7c7f79" d="M17 173.8l-18.8 16.4-5.3-6 19-16.4z"/><path fill="#7e8e80" d="M46.4 132.8l19.9 2.4-.7 6-19.9-2.4z"/><path fill="#709985" d="M29 80l32 1v3l-32-1z"/><path fill="#2d48a3" d="M137 69h2v14h-2z"/><path fill="#9cafa3" d="M30 82h36v11H30z"/><path fill="#505830" d="M152 82l-9-4.3 1-1.8 9 4.4z"/><path fill="#adacaa" d="M130.3 228.6L75 257.9l-77.2-20.7 59.6 1.5z"/><path fill="#cecfd1" d="M121.3 157.3L92.4 134l4.6 5 5.4 24.6z"/><path fill="#d9d8d4" d="M-4 159l32-10-44-44z"/><path fill="#94938e" d="M48 244h9v12h-9z"/><path fill="#eceae8" d="M106 114l37-53L25 43z"/><path fill="#a5a3a1" d="M126.3 174.2l50 13.4-25.4-23.4-2.4 9.7z"/><path fill="#ada9a5" d="M97 144l6 22-37-15z"/><path fill="#bebfba" d="M28.7 195.9l48.6 32.4 5.5 2.8-71.7 3.4z"/><path fill="#b3b3b0" d="M-4.9 234.4L-22.3 215 15 181.6 32.3 201z"/></g></g></svg>