<svg xmlns="http://www.w3.org/2000/svg" viewBox="0 0 1400 2101"><defs/><filter id="a"><feGaussianBlur stdDeviation="12"/></filter><rect width="100%" height="100%" fill="#41464c"/><g filter="url(#a)"><g fill-opacity=".5" transform="translate(4.1 4.1) scale(8.20703)"><circle r="1" fill="#fff" transform="rotate(127.1 16 72.9) scale(127.99157 102.58267)"/><circle r="1" fill="#fff" transform="matrix(79.17755 20.98467 -22.28532 84.08503 92 89.3)"/><path fill="ivory" d="M16 14h144v157H16z"/><circle r="1" fill="#020a0c" transform="rotate(-90.5 76 72) scale(123.77993 7.78196)"/><circle r="1" transform="rotate(-114.8 27.7 -14) scale(11.48995 20.33402)"/><path fill="#9aa97c" d="M141 156L11 179l7 85z"/><circle r="1" fill="#4e6553" transform="matrix(4.88454 -22.95898 67.38856 14.33697 121.7 206.2)"/><path fill="#fffaf7" d="M33 98L2-4l116 73z"/><ellipse cx="128" cy="92" fill="#697554" rx="9" ry="20"/><circle r="1" fill="#555e68" transform="matrix(-1.54893 -126.77549 6.65335 -.08129 169 107)"/><path fill="#d5c9b6" d="M17 150h44v86H17z"/><circle r="1" fill="#6c727e" transform="matrix(-22.99233 -21.7839 17.64239 -18.62108 151.3 0)"/><circle cx="47" cy="2" r="17"/><path fill="#e8e4d6" d="M124 129h39v51h-39z"/><circle cx="94" cy="35" r="38" fill="#fffcf8"/><path fill="#6d8d75" d="M90 135l30-42 9 10z"/><circle r="1" fill="#686c71" transform="matrix(-5.03602 -71.88764 10.06121 -.70483 4.6 52.3)"/><ellipse cy="192" fill="#283033" rx="17" ry="48"/><path d="M141 138l-8-8-9 1z"/><path fill="#b0aa9c" d="M185 154.8L48.8 223.9l115.5-37.8 1.4-3.9z"/><circle r="1" fill="#387540" transform="matrix(26.66517 -8.29794 2.31899 7.452 76.5 194.3)"/><path fill="#a0a789" d="M62.2 175l2.8-21.9 60.6 16.4L165 184z"/><path fill="#fefbf4" d="M81 51l55 58-20-50z"/><ellipse cx="166" cy="151" fill="#3a4147" rx="2" ry="99"/><path fill="#0b1120" d="M45.9 240.2l-11.2-5.3L21.8 271l24.9-8z"/><path fill="#3c5239" d="M144.9 114.1L125 72l7.5 30.2 8.1 1.2z"/><path fill="#13150b" d="M97.4-16H21.8L14.1 9.3l50 .6z"/><path fill="#468651" d="M98 192.7l19.8-33.5 6.7 5.1-9.2 27.7z"/><circle r="1" fill="#ede9e1" transform="matrix(-3.01694 7.00864 -29.50535 -12.70087 43.2 25.2)"/><path fill="#c2b7b5" d="M33 240l-16 13v-24z"/><circle r="1" fill="#535964" transform="matrix(4.16339 9.07482 -62.22081 28.54597 136 202)"/><circle r="1" fill="#848991" transform="matrix(-39.28572 1.78395 -.80583 -17.7457 155.3 3.5)"/><path fill="#f2eee8" d="M12.2 140.2l-2-42.8 98.2-3.6-54.2 86z"/><path fill="#f8f5f0" d="M156 101l3 77-33-10z"/><path fill="#f2efe9" d="M21.5 42.4l-3.8 112.9L107.3-16 67.1 7z"/><path fill="#1e2728" d="M84 214h11v42H84z"/><ellipse cx="6" cy="16" fill="#494d50" rx="4" ry="161"/><path fill="#f5f1ec" d="M145.7 120l16 4.1 5.5-42-60.1-78z"/><path fill="#cec5b3" d="M101.7 213.4l-13.8-2 2.4-16.8 13.8 2z"/><circle r="1" fill="#384f34" transform="rotate(-106.1 98 -5.8) scale(12.08435 3.24972)"/><ellipse cx="13" cy="29" fill="#9ca1a7" rx="3" ry="175"/><path fill="#7d8793" d="M69 86h9v10h-9z"/><path fill="#b8af9e" d="M19 199l61 27 4-19z"/><path fill="#fdf9f6" d="M34 25L15 5l3 85z"/><path fill="#fff" d="M169 73h1v46h-1z"/><path fill="#131510" d="M33.4-20.2L61.6-9.9l-11 30L22.4 10z"/><path fill="#d5c9b9" d="M77 154l32 13-96 18z"/><path fill="#5a6064" d="M160 143h10v113h-10z"/><path fill="#f6f5f1" d="M132 13l-83 96L92 6z"/><path fill="#868b93" d="M151 0h19v31h-19z"/><path fill="#9ab3a4" d="M98.6 123.5l11.9-13.1-11.8 28.5-8 2.8z"/><path fill="#7b89c4" d="M81 125l-7-15 3 18z"/><path fill="#414651" d="M101 204h69v30h-69z"/><ellipse cx="14" cy="218" fill="#686a6d" rx="3" ry="88"/><circle cx="127" cy="75" r="4" fill="#465f3f"/><path fill="#5e9967" d="M119.7 181.3l-68.8 15.9 14.4-17 12.7-6.9z"/><path fill="#eeebe4" d="M162.8 13.4l-19.1 108.7-40.1-53.6 50.8 54z"/><path fill="#465164" d="M102 2l67-18H91z"/><path fill="#f5f3f0" d="M70 19h72v48H70z"/><path fill="#5e666a" d="M87 271l-13-34 11-25z"/><circle r="1" fill="#2a3334" transform="matrix(-6.1772 -29.06141 6.6631 -1.41628 69.4 249.4)"/><path fill="#879786" d="M107 104h24v7h-24z"/><path fill="#b0a997" d="M58 226l-36.5 6.5-5.4-30.6 36.4-6.4z"/><path fill="#f8f4ee" d="M122.5 150.1l-9 15.4-38.9-11-29.3-22.7z"/><path fill="#edeadc" d="M122.3 105.3l41.1 41.2-36.5-17.1-26.8 34.3z"/><path fill="#384301" d="M97 111h3v4h-3z"/><path fill="#75797e" d="M13.2 27.7L17.3 51 1.2-16 .4 43.4z"/><path fill="#f6f3ea" d="M121.2 97.8l-89-51.2 73.3 61.3-21.4 24.2z"/><path fill="#101008" d="M35.6-16L13.7 6.3l26.5 9.5L14.5-16z"/><path d="M126.3 128.9l3.8 1.3-.4 1-3.8-1.4z"/><path fill="#6e747e" d="M134 18L120.1-2.2l-3 15.9 24.6-16.3z"/><path fill="#ede9e3" d="M9 2.5L12.9-9l9.9 64.9L88 49.3z"/><path fill="#526d57" d="M111 113.7l-.6-.7L129 96.3l.6.7z"/><path fill="#3c663c" d="M68 198h18v9H68z"/><path fill="#252d2e" d="M-16 207l28 7-3-55z"/><path fill="#aeaa94" d="M92.7 200l42.4-18.8-21.6 1.4 5.3 24.2z"/><path fill="#12270e" d="M133.4 96.7l6 8-.8.6-6-8z"/><path fill="#5b6366" d="M62.2 234.4l-1.4 28-13-.8 1.4-28z"/><path fill="#2f3839" d="M121 197h8v59h-8z"/><path fill="#f4f2ee" d="M60 32h102v39H60z"/><path fill="#f1eee7" d="M127 101l27 13 5 40z"/><path fill="#333943" d="M-16 268.1l66.7-28.3L25 264.7l51.4-11.2z"/><path fill="#60686d" d="M96 213h9v30h-9z"/><circle r="1" fill="#626d7a" transform="matrix(.99739 -.07223 2.59956 35.89397 166 79.7)"/><path fill="#eae6de" d="M98-16L50.8 20.9 36 14.4l8.7 48.1z"/><ellipse cx="161" cy="128" fill="#bbbead" rx="2" ry="41"/><path fill="#5f696e" d="M170 186l-58 29 31-32z"/><path fill="#cac6ae" d="M17.3 174.9l27.3 26.2 27.2-27.8-54.5-5.4z"/><path fill="#bbbaaf" d="M23.3 152.1L9.7 128.6l4.8 31.6L48 148.6z"/><path fill="#f6f3ed" d="M17 64h51v86H17z"/><circle cx="160" r="27" fill="#83878e"/><path fill="#abad74" d="M71 95l4-3 12 8z"/><circle r="1" fill="#2e3238" transform="rotate(112.9 -26.7 137) scale(2.88152 5.83026)"/><path fill="#273032" d="M135 199h5v42h-5z"/><path fill="#cecbcd" d="M150.8 28h-1l-2.6-36h1z"/><path fill="#afab9b" d="M52 238.9l-10-1.7L78.6 209l-63.8-8.1z"/><path fill="#46494c" d="M31.8 267.3l6.8-33.3v-6.9l-8.2 12.2z"/><path fill="#f2eee8" d="M145 119l-12-38 19-54z"/><path fill="#cdc5b5" d="M100.3 161.7l-38.7-10.5 38.6 27.4 12.6-13.4z"/><path fill="#2b3539" d="M105 205h7v51h-7z"/></g></g></svg>