<svg xmlns="http://www.w3.org/2000/svg" viewBox="0 0 933 1400"><defs/><filter id="a"><feGaussianBlur stdDeviation="12"/></filter><rect width="100%" height="100%" fill="#41464c"/><g filter="url(#a)"><g fill-opacity=".5" transform="translate(2.7 2.7) scale(5.46875)"><circle r="1" fill="#fff" transform="matrix(55.37703 -130.4601 92.14304 39.1124 93.3 88.6)"/><path fill="#fff" d="M12.3 13.1l146-5.1 5.4 156.9-146 5.1z"/><circle r="1" fill="#00070a" transform="rotate(87.8 -64.1 61.7) scale(93.99974 11.78001)"/><ellipse cx="45" rx="24" ry="17"/><path fill="#ede3c3" d="M18 65l-1 186 45-22z"/><circle r="1" fill="#fff" transform="matrix(-42.52634 -21.11026 36.06921 -72.66096 72 73.3)"/><circle r="1" fill="#4b6946" transform="matrix(3.97566 -22.1222 47.33318 8.50642 103.7 200.4)"/><circle r="1" fill="#5a616d" transform="matrix(-38.61698 -16.94349 6.12783 -13.96633 158.7 12.7)"/><path fill="#f8f5e7" d="M25.8 142.6l145.5 38.8L40 21.8 8.3 1.1z"/><path d="M29.4-9.7L60.2 2l-7.6 19.6L21.8 10z"/><path fill="#fffff9" d="M159 158l4-122-54-28z"/><path fill="#6b8462" d="M92.2 134.4l35.6-45.5 2.8-19.1 6.9 33.4z"/><ellipse cx="5" cy="46" fill="#676a71" rx="11" ry="60"/><path fill="#515a5e" d="M166 97l19 81-28 40z"/><ellipse cy="200" fill="#262e2e" rx="17" ry="59"/><path fill="#a8a58d" d="M12 183h46v50H12z"/><path fill="#35893d" d="M117.8 181.6l-10.7-5.4 9-17.8 10.8 5.4z"/><circle r="1" fill="#b3ac9d" transform="matrix(-94.22382 38.2667 -2.18857 -5.3889 126.5 191.7)"/><path fill="#0b1900" d="M123 135h15l-9-6z"/><path fill="#4e5e3e" d="M133.2 88.1l7.4 20.4L123.5 84l4.7-22.4z"/><path fill="#4c525d" d="M185 217l-8-45-153 73z"/><circle cx="97" cy="42" r="42" fill="#fdfaf2"/><circle r="1" fill="#37753b" transform="matrix(-25.6597 8.18905 -2.30238 -7.2143 77.6 194)"/><circle r="1" fill="#ffffec" transform="rotate(66.6 -14.2 153.5) scale(36.49483 2.98884)"/><circle r="1" fill="#dcd7b5" transform="matrix(40.121 -1.96281 .44732 9.1435 71.9 168)"/><path fill="#182123" d="M51 264.3l-11.9-32.4-10.4 8.7L47.3 271z"/><path fill="#f3efe2" d="M122 176l43-98-6 97z"/><ellipse cx="43" cy="3" fill="#080b03" rx="28" ry="8"/><path fill="#5d6a7a" d="M182.5-16l2.5 29.5-23.3 25.1 3.6 61.3z"/><ellipse cx="4" cy="52" fill="#56595c" rx="7" ry="66"/><path fill="#1d2627" d="M84 213h11v43H84z"/><path fill="#adb2be" d="M78.8 139.8l-.1-54.3-3.8-4.8-6.2 9.2z"/><path fill="#f8f4f0" d="M44.3 28.3l-55.5-42.1 26.2 5 2 175.9z"/><path fill="#27302f" d="M60 222h14v34H60z"/><path fill="#f3f4e4" d="M114.5 128.5l42.4 4.4-37.7-27.2-19.5 25.9z"/><path fill="#3e464b" d="M165 67h3v146h-3z"/><path fill="#f3eee3" d="M17 8.5l40.4 14.7L53 35.5 12.6 20.8z"/><circle r="1" fill="#eeece6" transform="matrix(19.5337 23.70036 -13.7076 11.29772 42.7 147)"/><path fill="#d2c6b6" d="M94 213.3L88.4 195l7.6-2.4 5.6 18.2z"/><path fill="#7c818a" d="M178 17l-61-7 7-26z"/><circle cx="78" cy="189" r="17" fill="#548a59"/><path fill="#f9f5eb" d="M114.6 164.6l16.2-27.6-14.6-10.8-39.3 28.1z"/><path fill="#b8b7b5" d="M11 73h5v80h-5z"/><path fill="#ccc8b3" d="M17.2 142.8l-.8 32 32.4 20.3 18.4-14.5z"/><path fill="#394e34" d="M131.4 76l5 20.5-5.8 1.4-5-20.4z"/><path fill="#6b7477" d="M132 187l13 20 40-34z"/><ellipse cx="11" cy="10" fill="#abb5c2" rx="2" ry="63"/><path fill="#9eb8a9" d="M111.7 105.6l-20.9 27.9 1.1 2.5 6.1 8z"/><path fill="#11181a" d="M-10.5 259v-44h21v44z"/><circle r="1" fill="#acb1a1" transform="matrix(-.28587 -49.26249 1.22392 -.0071 161.4 133.7)"/><path fill="#fff" d="M169 73h1v47h-1z"/><path fill="#505013" d="M132 109l-8-3-2-10z"/><path fill="#afab99" d="M16.2 222.3l31.4 16.9 16.1-9.9L18 195.1z"/><path fill="#f6f4ed" d="M150 81L43 24 93-8z"/><path fill="#878a91" d="M139-7l-10 26 56-16z"/><path fill="#23241d" d="M12.8 6.3l35.9 13.4L100.4-16H71.6z"/><path fill="#aca68b" d="M131.8 190l34.6-10.2-43.4-6.6-16.8 30.1z"/><path fill="#edece5" d="M121 167.7l40.7 12.6-13.9-55.9-17.4 34.6z"/><path fill="#c3bea5" d="M74.2 172.3L54 191.6l15.3-38.8 49.2 15.2z"/><path fill="#394249" d="M112 258l43-36-52-20z"/><circle r="1" fill="#595e5e" transform="matrix(-14.3619 -5.6209 12.97307 -33.14736 169 242.4)"/><path fill="#46494c" d="M9 34v51L-2 57z"/><path fill="#b5b099" d="M83.8 209.3l-64.7-12.6 7.8 8.7 52 21.6z"/><path fill="#5c6368" d="M11 152h6v95h-6z"/><path fill="#5f6876" d="M96-16l6 20 15-11z"/><path fill="#7d8188" d="M156 3l23 16-39 6z"/><path fill="#777c4c" d="M95 109l3 7v-7z"/><ellipse cx="145" cy="87" fill="#faf5ed" rx="7" ry="62"/><path fill="#4f6843" d="M131 79l-7 1-1-7 7-1z"/><path fill="#5e666a" d="M75 222h11v34H75z"/><path fill="#8b8f97" d="M185 16.7l-34.6 17.7 7.7-14.5L152-16z"/><path fill="#68887e" d="M118.4 111.3l-14.5 1.1 11.9-6.5 4.4-3.7z"/><path fill="#1c2d13" d="M132 132l-2 5 8-1z"/><circle r="1" fill="#f6f4e9" transform="matrix(1.8252 -1.6608 41.73688 45.86823 111.6 81)"/><path fill="#a9a594" d="M18 198.6l20.2 13.2-11.1 43.3-10.1-9.6z"/><path fill="#656b6f" d="M113.9 241.4l3.8.5 6.7-58.2-10.8 26.8z"/><path fill="#a4a669" d="M76.9 99.9l-5.6-9.6 4.5.6 5.8 8.8z"/><path fill="#608f5f" d="M113 195l10-29-37 17z"/><path fill="#f3f0e8" d="M41.9 143.6l94.6-5.9-27.4-10.1-10.3 34.6z"/><path fill="#f1ede7" d="M123.4 43.3l.3 22.8 33.3 36.4 5.7-74z"/><circle r="1" fill="#4d6d4c" transform="matrix(18.1294 5.45596 -1.26045 4.1883 69.2 200)"/><path fill="#f8f2e6" d="M71.7 101.4l-1.2-10.3 29.3 30.7-11.1 12z"/><path fill="#90968f" d="M160 133h4v56h-4z"/><path fill="#242c2f" d="M46 238v33l-15-36z"/><path fill="#5b6366" d="M48 237h14v19H48z"/><path fill="#f6f1e4" d="M122 105h3v30h-3z"/><path fill="#353c41" d="M122.7 271l-1.8-76.1 19.9 10.1-12.3-6.9z"/><path fill="#6c7072" d="M6 38L9-6-8 5z"/><path fill="#f5f3ef" d="M144.2 22.6L30.8 120.2l-5.7-53.5 113.3-49.2z"/><ellipse cx="87" cy="177" fill="#8ab585" rx="20" ry="3"/><path fill="#a9a595" d="M32.3 150.1l.8 3-19.4 4.8-.8-3z"/><path fill="#b7b4a7" d="M89 197h30v6H89z"/><path fill="#565b5f" d="M164 131h6v49h-6z"/><ellipse cx="148" fill="#c0bfc1" rx="2" ry="21"/><path fill="#f6f6f1" d="M116.3 4.3L84.9 1.5l53 70.6L98 74z"/><circle cx="129" cy="131" r="3" fill="#343a2f"/><path fill="#f3f0df" d="M82.1 85.9l15.7-10.7 25.8 26-39.8 3.9z"/><path fill="#283821" d="M131.4 96.7l2.4-1.8 4.8 6.4-2.4 1.8z"/><path fill="#f1ede1" d="M139.8 136.6l-19.7-12.8 44.5-45.1-27.8 55.7z"/><path fill="#ede9e1" d="M49 68L28 36l72-52z"/></g></g></svg>