<svg xmlns="http://www.w3.org/2000/svg" viewBox="0 0 933 1400"><defs/><filter id="prefix__a"><feGaussianBlur stdDeviation="12"/></filter><rect width="100%" height="100%" fill="#28493c"/><g filter="url(#prefix__a)"><g transform="translate(2.7 2.7) scale(5.46875)"><circle cx="105" cy="85" r="203" fill="#fff" fill-opacity=".5"/><path fill="#fff" fill-opacity=".5" d="M-65.7 60.6L9.9-81.5 229.7 35.4l-75.6 142.1z"/><path fill="#555645" fill-opacity=".5" d="M24 79h43v112H24z"/><circle r="1" fill="#fff" fill-opacity=".5" transform="matrix(-7.27617 -50.564 134.30865 -19.32704 92.7 26.6)"/><circle r="1" fill="#fff" fill-opacity=".5" transform="matrix(-7.54502 -40.31647 24.43677 -4.57322 0 117.6)"/><ellipse cx="71" cy="226" fill="#d5c4c1" fill-opacity=".5" rx="78" ry="26"/><ellipse cx="102" cy="109" fill="#f7ecec" fill-opacity=".5" rx="40" ry="56"/><path fill="#551f1b" fill-opacity=".5" d="M69 187l-85-9 103-18z"/><ellipse cx="89" cy="152" fill="#b8aeae" fill-opacity=".5" rx="72" ry="12"/><circle r="1" fill="#71514d" fill-opacity=".5" transform="matrix(2.97934 15.47148 -20.04482 3.86002 24 169.6)"/><path fill="#c7bbb2" fill-opacity=".5" d="M136.7 230.4l-55-2.9 3.6-67.9 55 2.9z"/><circle r="1" fill="#998982" fill-opacity=".5" transform="matrix(-9.59326 -46.84135 24.37884 -4.99287 164.5 197.9)"/><circle r="1" fill="#978e84" fill-opacity=".5" transform="matrix(-2.68469 14.96967 -32.93441 -5.90652 68 200.3)"/><path fill="#3245aa" fill-opacity=".5" d="M154 109l-9-17 4 27z"/><path fill="#676a6d" fill-opacity=".5" d="M134 71l21 12-12-19z"/><circle r="1" fill="#628976" fill-opacity=".5" transform="matrix(-15.26826 8.11828 -11.39236 -21.42592 48.5 114.5)"/><path fill="#c4bfbc" fill-opacity=".5" d="M-8 205l19.8-25.3L51.9 211l-19.7 25.2z"/><path fill="#eeebe8" fill-opacity=".5" d="M63 146l92-21L85 12z"/><circle r="1" fill="#dcd8d1" fill-opacity=".5" transform="rotate(-8.4 1035.3 -153) scale(55.668 2.77385)"/><path fill="#f4e9e5" fill-opacity=".5" d="M185 153l-56-8 54-64z"/><circle r="1" fill="#f2ecee" fill-opacity=".5" transform="matrix(77.99463 79.36791 -29.19592 28.69075 49.6 21)"/><path fill="#6f6b63" fill-opacity=".5" d="M150 225.9l19.6-15.4 18.5 23.6-19.7 15.4z"/><path fill="#e7dedb" fill-opacity=".5" d="M-16 164l40-14L14 12z"/><path fill="#9c948e" fill-opacity=".5" d="M103 163l-84 1 75-25z"/><ellipse cx="83" cy="223" fill="#caccc8" fill-opacity=".5" rx="63" ry="9"/><ellipse cx="30" cy="248" fill="#aba6a6" fill-opacity=".5" rx="136" ry="18"/><path fill="#ced2d5" fill-opacity=".5" d="M94 155l75 19-40-38z"/><path fill="#f6ecea" fill-opacity=".5" d="M159 112l26-48-42-80z"/><path fill="#55332d" fill-opacity=".5" d="M26 183l29 3 26-28z"/><path fill="#898e86" fill-opacity=".5" d="M19 177.6l-24.6 17.2-11.4-16.4 24.6-17.2z"/><path fill="#796b67" fill-opacity=".5" d="M52.3 153.2L-7.5 196l22.2-39 83.4-15.5z"/><path fill="#4a6c59" fill-opacity=".5" d="M42 90h7v55h-7z"/><path fill="#96baab" fill-opacity=".5" d="M30 82h37v10H30z"/><path fill="#9c9a91" fill-opacity=".5" d="M178 161.9l-53.3 27.5-5.3.6 29.9 36.6z"/><path fill="#868dbe" fill-opacity=".5" d="M143.6 99.9l8.2 14.9-14.9-43.6-3.4-.5z"/><path fill="#747bab" fill-opacity=".5" d="M153 68l-9-3-1 8z"/><circle r="1" fill="#f2ecee" fill-opacity=".5" transform="rotate(102.3 65.6 70.8) scale(45.91259 29.27033)"/><path fill="#e7e7e4" fill-opacity=".5" d="M119.5 116L51.2 74.3 185 56.5l-46.2 11.7z"/><path fill="#a4b3a9" fill-opacity=".5" d="M62 89h6v69h-6z"/><ellipse cx="125" cy="238" fill="#b2b1af" fill-opacity=".5" rx="33" ry="12"/><path fill="#6a8a78" fill-opacity=".5" d="M24 92h14v55H24z"/><circle r="1" fill="#b3aca5" fill-opacity=".5" transform="matrix(15.58366 22.42308 -18.87679 13.11905 102.3 187.2)"/><path fill="#f7ecde" fill-opacity=".5" d="M149 96l-7-26-3 11z"/><circle cx="27" cy="156" r="7" fill="#80625f" fill-opacity=".5"/><ellipse cx="148" cy="69" fill="#122b8a" fill-opacity=".5" rx="3" ry="2"/><path fill="none" stroke="#51592a" stroke-opacity=".5" stroke-width=".5" d="M146 77.3q18.4 14.6 32.3.5"/><circle r="1" fill="#888981" fill-opacity=".5" transform="matrix(-2.66455 3.00116 -21.03283 -18.67382 28 189)"/><path fill="#9f9c95" fill-opacity=".5" d="M185 179l-51-34 51 12z"/><ellipse cx="116" cy="218" fill="#cfd0cb" fill-opacity=".5" rx="26" ry="7"/><path fill="#3e460f" fill-opacity=".5" d="M145 74l3 6 4-1z"/><path fill="#876660" fill-opacity=".5" d="M17 164h49v7H17z"/><circle r="1" fill="#e0dddc" fill-opacity=".5" transform="matrix(4.45532 -41.31654 23.14002 2.49527 2.2 78)"/><circle r="1" fill="#e3dbda" fill-opacity=".5" transform="matrix(7.34244 25.77585 -17.43739 4.96717 99 4.8)"/><path fill="#e8e4df" fill-opacity=".5" d="M168.3 80.7L93.6 30.9l83.2 46.8-48.5-10.4z"/><path fill="#d3d1cd" fill-opacity=".5" d="M24.3 125.9L1.6 159l13.2-2.1 10.2-8.1z"/><circle r="1" fill="#f6f2f4" fill-opacity=".5" transform="rotate(-52.7 34.4 -33.2) scale(18.13355 47.52826)"/><path fill="#c5c6c8" fill-opacity=".5" d="M110.8 137.9l41.7 19.5-9.9 20.1L95 141.7z"/><path fill="#e7e1d5" fill-opacity=".5" d="M164 123.7l-24.6-42.6 45.6 9.2V67z"/><path fill="#e7e5e4" fill-opacity=".5" d="M63.5 81.8l-45.1-2.9-25.1-74L70.9 79z"/><path fill="#9ea09e" fill-opacity=".5" d="M16 273.7l-51.5-30.9 19.6-32.5 51.4 30.9z"/><path fill="#584038" fill-opacity=".5" d="M25 183.4l48.7-6.6-44.4-8.3-14.2 3.9z"/><path fill="#afaea9" fill-opacity=".5" d="M65.5 165.2l2 .8-21.9-1.6 60.3-25.9z"/><path fill="#949087" fill-opacity=".5" d="M71.5 178.9l-26.2 30.4 35.4-5.1-.5-29.9z"/><path fill="#808bba" fill-opacity=".5" d="M136.7 78.5l6.9 19.3 9.8 21.3 2.9-9.1z"/><path fill="#e1e1df" fill-opacity=".5" d="M148.5 131.4L42.6 151.3l40.7-18.7-13.5-25z"/><path fill="#d8d5c9" fill-opacity=".5" d="M134 105h13v25h-13z"/><path fill="#90a798" fill-opacity=".5" d="M61 116.7l-10-.5 2-35 10 .6z"/><circle r="1" fill="#bec0bb" fill-opacity=".5" transform="matrix(43.75697 -.58004 .11035 8.32438 54.4 229)"/><path fill="#295540" fill-opacity=".5" d="M49.7 116.3l.2 1-25.6 4.4-.2-1z"/><circle r="1" fill="#a8a99e" fill-opacity=".5" transform="matrix(-42.04156 6.21947 -.71142 -4.80895 102.8 209.2)"/><path fill="#909086" fill-opacity=".5" d="M185 178v43l-62-29z"/><path fill="#e7e7e9" fill-opacity=".5" d="M185 156l-14-25-73 3z"/><ellipse cx="138" cy="77" fill="#4057aa" fill-opacity=".5" rx="1" ry="9"/><circle r="1" fill="#b6b6b3" fill-opacity=".5" transform="rotate(-64.6 171.5 91.1) scale(17.09423 28.48284)"/><path fill="#8e9e92" fill-opacity=".5" d="M29 94h16v12H29z"/><path fill="#5b816f" fill-opacity=".5" d="M43 81h6v16h-6z"/><path fill="#b8b3ae" fill-opacity=".5" d="M175.4 269.1l-52.6-48.7 27.6 6.8 29.9 43.8z"/><path fill="#5a7664" fill-opacity=".5" d="M64.4 123.2l-27.6 9.2 32.1-2.2-36.1-14.6z"/><circle cy="172" r="13" fill="#8b8a83" fill-opacity=".5"/><path fill="#a4a19d" fill-opacity=".5" d="M142 188l-16-16 59 1z"/><path fill="#3d6451" fill-opacity=".5" d="M56.8 127.7l-32.6 6.1 30.4-2.2-1.1-.3z"/><path fill="#e6e3db" fill-opacity=".5" d="M139.1 81.3L185 98.7l-73-16.8 25.2 7.3z"/><path fill="#78554e" fill-opacity=".5" d="M82.3 167.2l-18 20 .5-21.9 17.8-7.8z"/><path fill="#5b66a2" fill-opacity=".5" d="M148.7 115.4l8.2-3.8.4 1-8.2 3.8z"/><path fill="#ebe5da" fill-opacity=".5" d="M171.7 62.5l2.4 4.4-23.8 12.6-2.4-4.4z"/><path fill="#385bb8" fill-opacity=".5" d="M146 97h3v9h-3z"/><path fill="none" stroke="#605959" stroke-opacity=".5" stroke-width=".5" d="M80.6 146.1Q12.1 158-16 166"/><path fill="#715d57" fill-opacity=".5" d="M16 161.1l12.4-10.2-19.7 8.5 14.7 28.7z"/><path fill="#dad7cc" fill-opacity=".5" d="M185 135l-14-30-34 20z"/><path fill="#83988a" fill-opacity=".5" d="M31 133h36v5H31z"/><path fill="#99958e" fill-opacity=".5" d="M80.9 191l-25.8 18.5-33.8-20.2 20.3-1.8z"/><path fill="#577262" fill-opacity=".5" d="M25 97h3v49h-3z"/><path fill="#596140" fill-opacity=".5" d="M142 72h5v4h-5z"/><path fill="none" stroke="#6c7252" stroke-opacity=".5" stroke-width=".5" d="M169.9 84.5q-23.4-.5-27.3-11"/><ellipse cx="139" cy="255" fill="#9d9795" fill-opacity=".5" rx="57" ry="5"/><path fill="#a3a5a1" fill-opacity=".5" d="M130.7 232.1l14.8 3.4-1.2 5.2-52.1-4z"/><path fill="#dcdad7" fill-opacity=".5" d="M14.6 132.4l14.3 17-44.9 18.2L1.3 23.3z"/><path fill="#e4e0d5" fill-opacity=".5" d="M157.9 77.3L185 94.4l-27.5-21.9-17.4-.9z"/><path fill="#d1d1d5" fill-opacity=".5" d="M154.9 160.3l-56.2-12 1.7 10 53.5 7.1z"/><path fill="#8d8d86" fill-opacity=".5" d="M48 246h6v10h-6z"/></g></g></svg>