<svg xmlns="http://www.w3.org/2000/svg" viewBox="0 0 1400 2101"><defs/><filter id="a"><feGaussianBlur stdDeviation="12"/></filter><rect width="100%" height="100%" fill="#41464c"/><g filter="url(#a)"><g fill-opacity=".5" transform="translate(4.1 4.1) scale(8.20703)"><circle r="1" fill="#fff" transform="matrix(-45.4985 -92.71991 144.70053 -71.00585 68.8 112.6)"/><ellipse cx="89" cy="88" fill="#fff" rx="78" ry="87"/><circle r="1" fill="#000205" transform="rotate(89.6 -79.8 84) scale(147.65394 7.97091)"/><path fill="ivory" d="M16 13h146v158H16z"/><circle r="1" transform="matrix(22.37696 9.75535 -6.86089 15.7376 42.4 0)"/><circle r="1" fill="#3b7631" transform="matrix(-6.94273 -12.78692 33.981 -18.45017 89.5 186.7)"/><path fill="#c4bc9a" d="M22 186l66 29-73 39z"/><path fill="#697f64" d="M92.5 137l36.3-64.8 11.4 34.8-23.4 7.2z"/><path fill="#fcf8f4" d="M124 60L3-1l46 133z"/><circle r="1" fill="#616876" transform="matrix(-11.70361 17.32155 -59.7887 -40.39728 148 0)"/><circle r="1" fill="#535c64" transform="rotate(88.2 .8 167.5) scale(129.6579 3.78919)"/><ellipse cy="205" fill="#202b2c" rx="17" ry="61"/><path fill="#d1ccb0" d="M23 147l109 16-118 34z"/><circle r="1" fill="#111206" transform="matrix(19.57314 -13.20225 4.19238 6.21545 59.6 4.3)"/><circle r="1" fill="#68716f" transform="rotate(156.1 60.5 111.5) scale(93.26274 11.96215)"/><circle r="1" fill="#6b7076" transform="matrix(-6.11694 .59715 -6.36435 -65.1931 6.9 38.4)"/><circle r="1" fill="#fffffb" transform="matrix(33.67066 27.20217 -13.45557 16.65522 107.5 30)"/><path fill="#0c1901" d="M123 131l12-2 5 9z"/><path fill="#fffff5" d="M127 164l36 17-9-46z"/><path fill="#3d4e31" d="M128 76h7v20h-7z"/><path fill="#f9f5eb" d="M91.7 36l-5.5 77.5L124 98.1l27.9 30.1z"/><circle r="1" fill="#1a252a" transform="matrix(-4.91302 -11.64303 8.57769 -3.61954 40 248)"/><path fill="#427c4c" d="M57.5 191.6L72 171.2l24.6 17.2L82 208.8z"/><circle r="1" fill="#f4f0ea" transform="rotate(77.1 -59.1 84.5) scale(45.9915 24.85341)"/><path fill="#f8f3ed" d="M56 22l-39 80-2-95z"/><circle r="1" fill="#585f62" transform="matrix(-8.67754 -.6068 3.71642 -53.14735 169.1 163.1)"/><path fill="#415638" d="M135 101l-3-28-10-1z"/><path fill="#252e30" d="M83 211h12v45H83z"/><path fill="#f4f0eb" d="M17.2 140.3L114.8 2.4 70.3 4.7 16.4 47.2z"/><path fill="#f6f1ec" d="M160.3 162.6l-3-132.4-31.6 25.9 8 29.7z"/><ellipse cx="12" cy="19" fill="#989ea5" rx="3" ry="173"/><path fill="#b2afa2" d="M15.9 224.8l43.6 10.5-3-27.5-38.8 45.4z"/><path fill="#acb1bd" d="M77.9 86.4l-6.2-1.8-4.6 2.4 12 49.6z"/><path fill="#0d0e02" d="M54 21L16 5l11-21z"/><path fill="#1b2629" d="M78 287.2l-11 1.2-7-65.6 11-1.2z"/><path fill="#728e65" d="M123.8 192.8l-10.1-36.2 12.9 6.9-25.5 34.4z"/><path fill="#babaa5" d="M63.3 177.4l41 2.6 2.6-16.2-40.7-12.2z"/><ellipse cy="42" fill="#565a5d" rx="10" ry="97"/><path fill="#fff" d="M169 75h1v49h-1z"/><path fill="#82868d" d="M130 0h40v20h-40z"/><path fill="#c6bba5" d="M88 196h14v17H88z"/><ellipse cx="14" cy="178" fill="#72736f" rx="3" ry="35"/><path fill="#d1d4d0" d="M159 74h6v48h-6z"/><path fill="#496f49" d="M52 192h36v13H52z"/><path fill="#3f4300" d="M117.9 93.1l.8-.6L130 109l-.8.6z"/><path fill="#f0edde" d="M148 141l-25-37-7 13z"/><path fill="#465156" d="M100 204h70v22h-70z"/><path fill="#f5f3ef" d="M16.6 94.3l86.2-66.6 37.9 92.7-34-43.4z"/><path fill="#e7e3da" d="M44 61.2l19.7-19.6L55.1 22 22.9 10.1z"/><path fill="#88a898" d="M91 135l13-19-5 21z"/><circle r="1" fill="#85893f" transform="matrix(-.75258 .6585 -4.6142 -5.2735 75.7 94.7)"/><ellipse cx="166" cy="77" fill="#59606b" rx="2" ry="49"/><path fill="#d2caaf" d="M42 208l-24-51 47 18z"/><ellipse cx="135" cy="182" fill="#b1ab8a" rx="20" ry="9"/><path fill="#f2ede2" d="M160 177l-44-56 11 49z"/><path fill="#697074" d="M75 220h11v31H75z"/><path fill="#1a2224" d="M-11 229v-42h22v42z"/><path fill="#000c00" d="M136.8 96.3l1.3 6.8-2.9.6-1.3-6.8z"/><path fill="#f7f3ee" d="M107.8 164.8l-45.2-14.4-25.8-18.1 99.4 19.6z"/><ellipse cx="14" cy="240" fill="#585e61" rx="4" ry="37"/><path fill="#777d87" d="M116.8 6.4l19.8-6.8-.6 7.9-19.5 5.7z"/><circle r="1" fill="#2d4c41" transform="matrix(6.11853 -4.28424 .57358 .81915 117.4 106.3)"/><path fill="#82868f" d="M162-16l19 35-40 6z"/><path fill="#609d73" d="M121 158l3 9-27 13z"/><path fill="#f7f4f1" d="M118 4L68 58 80-2z"/><path fill="#1c1d18" d="M71 3L49 18-8-15z"/><path fill="#828992" d="M166 69l-3-85 22 58z"/><circle cx="97" cy="111" r="3" fill="#868a5e"/><path fill="#283234" d="M121 197h7v51h-7z"/><path fill="#5d6567" d="M47 269l19-41-18 10z"/><path fill="#aeaca0" d="M81.8 213.2l-52 17.3 33.6-9.2 13.5 5.3z"/><circle cx="128" cy="131" r="3" fill="#2b3126"/><path fill="#aba58e" d="M17 200h14v47H17z"/><path fill="#404549" d="M165 105h3v110h-3z"/><path fill="#49714c" d="M84 184h29v10H84z"/><circle r="1" fill="#575c5c" transform="rotate(19.9 -623 584.7) scale(20.2772 12.00246)"/><path fill="#65976d" d="M69.4 197.7l-15.1-3.4L78 173.4l32.9 6.6z"/><ellipse cx="13" cy="120" fill="#acaba9" rx="3" ry="41"/><path fill="#41484e" d="M8 29h3v130H8z"/><path fill="#efece5" d="M43 26l46 2-5-33z"/><path fill="#aba695" d="M13 159.5l-.8-7 18.9-2 .7 7z"/><ellipse cx="12" cy="31" fill="#999faa" rx="3" ry="70"/><path fill="#fef7eb" d="M69 90l30 32-13 8z"/><ellipse cx="161" cy="139" fill="#b2b5a5" rx="2" ry="47"/><path fill="#f3efec" d="M121.8 24.1l-3.3 51.2 44.1-22-1-19.6z"/><path fill="#efece3" d="M131 130.8l-15.4-12.7 46.8-24.3-3.8 52.1z"/><path fill="#ada997" d="M73.9 204.4L16 201.9 49.8 242l-1.1.1z"/><path fill="#6d7279" d="M153 7h5v24h-5z"/><path fill="#b3ad99" d="M91.8 192.9l27.7 4.3-1.3 8-27.7-4.4z"/><path fill="#ebe9e4" d="M59.6 171.7l24.9-45.5-25.3 6.3-21.7 39.9z"/><path fill="#d8c9be" d="M113.4 162.3L83 173l20.7 2.5 3.7-.3z"/><path fill="#636b71" d="M96 211h8v32h-8z"/><path fill="#2b353a" d="M105 208h8v48h-8z"/><path fill="#656e76" d="M96.2 218.3l61.8-37.1 27-34.6-3.8 33.4z"/><circle r="1" fill="#6a6d71" transform="rotate(-76.7 10.5 8.3) scale(23.39719 8.80957)"/><path fill="#616d4a" d="M122.5 104l8.4-10.3-3.9 6.9 2.6 12.2z"/><path fill="#21282c" d="M43 238l-10-4 7 37z"/><path fill="#4c6b4a" d="M83.1 198.2l15.2-16-16.4 25.3-33.9-5.3z"/><circle r="1" fill="#5a6b53" transform="matrix(2.475 -1.00407 6.07906 14.98477 132.3 91)"/><path fill="#273033" d="M135 195h5v44h-5z"/></g></g></svg>