<svg xmlns="http://www.w3.org/2000/svg" viewBox="0 0 1400 2100"><defs/><filter id="a"><feGaussianBlur stdDeviation="12"/></filter><rect width="100%" height="100%" fill="#346c54"/><g filter="url(#a)"><g fill-opacity=".5" transform="translate(4.1 4.1) scale(8.20313)"><circle cx="100" cy="90" r="213" fill="#fff"/><circle r="1" fill="#fff" transform="matrix(49.62688 -61.50327 120.81795 97.4878 94.2 38.6)"/><ellipse cx="45" cy="148" fill="#625148" rx="23" ry="68"/><circle r="1" fill="#fff8fd" transform="rotate(178 3.6 42.5) scale(15.22404 73.48893)"/><path fill="#fff2f7" d="M113 171L-16-15 185-3z"/><circle r="1" fill="#643433" transform="matrix(-52.70079 -1.84035 .53184 -15.22985 29 173.7)"/><circle r="1" fill="#c9afb2" transform="matrix(96.94304 9.92 -3.26232 31.88095 55.5 220)"/><path fill="#7c9788" d="M25 79h43v86H25z"/><path fill="#8c6f6b" d="M170.2 255.8l-41.4-61.3 39-26.3 41.4 61.3z"/><path fill="#fff3f3" d="M92.1 118l2.6 24.8-30.8 3.3-2.6-25z"/><path fill="#8f91a7" d="M154 118l-22-41 20-23z"/><ellipse cx="96" cy="153" fill="#c6b0b4" rx="65" ry="14"/><path fill="#57372f" d="M90 155l-24 36-42-11z"/><circle r="1" fill="#b39d97" transform="matrix(-5.79931 -22.2639 38.01968 -9.90338 101.3 188.7)"/><circle r="1" fill="#dad0d8" transform="rotate(-158.8 82.3 67.6) scale(29.0294 9.98935)"/><path fill="#eadfdd" d="M-16 162.2l201-38.8-158.5 25.7L7.7-16z"/><path fill="#f4eeef" d="M19 1h151v66H19z"/><path fill="#cdccc7" d="M10 205l131 13-99 19z"/><path fill="#687e6e" d="M24 90h29v71H24z"/><circle r="1" fill="#8c9085" transform="matrix(3.90742 -16.7278 22.37775 5.22718 69 200.5)"/><ellipse cx="70" cy="247" fill="#a89ea1" rx="97" ry="14"/><path fill="#606861" d="M152.7 70.3l-13.5 2.4 20.5 15-21.6-22.1z"/><path fill="#6e4e4a" d="M38.6 152l3.6 28.9-24.8 3-3.6-28.8z"/><path fill="#f9e9dd" d="M185 93v45l-51-61z"/><path fill="#f3e5e6" d="M133.5 117.2l45.6 11.4-6.6 26.2-45.6-11.4z"/><path fill="#ece6e4" d="M67 69h36v72H67z"/><path fill="#4c5cb6" d="M147 115l-1-23 7 20z"/><ellipse cx="54" cy="63" fill="#efeaea" rx="42" ry="18"/><ellipse cx="54" cy="128" fill="#617e6c" rx="14" ry="15"/><path fill="#d1ceca" d="M118.4 210.8l17-2.3 15.4 22.2-90.9-7.2z"/><path fill="#a8acaa" d="M22.5 187L4 191.4l6.3-35.3-24.1 9.5z"/><ellipse cx="20" cy="148" fill="#dad4d0" rx="35" ry="3"/><path fill="#b4ada8" d="M172 174l-88-21-3 62z"/><path fill="#7e9b8b" d="M26 81h36v26H26z"/><path fill="#737069" d="M149 222l30-12 2 55z"/><circle r="1" fill="#dfdbd9" transform="matrix(13.81307 21.01472 -15.62754 10.27205 102 8.2)"/><path fill="#e6ded4" d="M154 125l-23-1V67z"/><circle r="1" fill="#896d6b" transform="matrix(-15.53675 1.71167 -.82068 -7.44924 24.9 160.5)"/><path fill="#9d9790" d="M185 188.4l-45.6-41.1 45.6 8.3-64.6 40z"/><ellipse cx="46" cy="117" fill="#456754" rx="3" ry="28"/><circle r="1" fill="#b9bbb6" transform="matrix(-8.20176 7.34286 -29.23706 -32.65692 37.6 217.2)"/><path fill="#ede1da" d="M112.4 42.7l48.2 42.9L185 55.1l-37.7 17.4z"/><path fill="#4d352e" d="M21 173h42v10H21z"/><path fill="#445ca5" d="M137.6 88l-1-.1 1.8-17.9 1 .1z"/><path fill="#415ab4" d="M141.7 89l5.5 9.5-.9.5-5.5-9.5z"/><path fill="#928e8b" d="M35.9 156.4l63-15.7 1.2 4.9-63 15.7z"/><path fill="#6269aa" d="M147.8 110.5l6.7-1.7 1.7 6.7-6.7 1.7z"/><circle r="1" fill="#eee9e9" transform="matrix(25.54093 6.14808 -5.4729 22.73603 112.8 87.1)"/><ellipse cx="45" cy="189" fill="#7c827a" rx="24" ry="4"/><circle r="1" fill="#f4f1f3" transform="rotate(-152 18.6 2.8) scale(47.78769 21.56719)"/><path fill="#a19f97" d="M153.8 231.9l-5.4-30L185 157l-66.8 31.9z"/><path fill="#69433c" d="M62.1 175.8l-17.8 11.4 28.1-25.1 12.6-5.8z"/><path fill="#9c9c9b" d="M-1.7 223.7L34 243.6l-20.4 36.7-35.8-19.9z"/><path fill="#797a52" d="M163 85l-11-1-7-8z"/><path fill="#e4ddd5" d="M176.8 176.1l-31.9-94.8 11.1 1.6 24.8-48.1z"/><ellipse cx="147" cy="254" fill="#9d9292" rx="71" ry="4"/><path fill="#aeb8af" d="M61 116l5-20 3 37z"/><circle r="1" fill="#cdd0d2" transform="matrix(-17.78511 -3.74233 1.93043 -9.1742 131.8 157.4)"/><path fill="#87706b" d="M64 167.3L50.4 172 5.7 159.1l17.2-4.8z"/><path fill="#e4e2e0" d="M73 95l-7 48 86-10z"/><path fill="#e6e2e3" d="M-16 80l66-2L3 6z"/><circle r="1" fill="#726e6e" transform="matrix(41.37142 -8.71833 .2062 .9785 58.3 150.7)"/><path fill="#3b461d" d="M156 84.6l-14.7-10.4.6-.8 14.8 10.4z"/><path fill="#d8d6d1" d="M0 120h25v30H0z"/><path fill="#5c7968" d="M25 130h12v17H25z"/><path fill="#605d57" d="M56 183h19v5H56z"/><circle r="1" fill="#93a99b" transform="matrix(20.84413 2.63323 -.78602 6.22197 43 85.9)"/><path fill="#d8dbd4" d="M112.4 137.2L65 147.1l-24.9.2 36.6-9.5z"/><path fill="#b4b1aa" d="M116 213l-19-70-21 4z"/><path fill="#7f857f" d="M9.8 183.5l21.4 2.8-36.9-30.9 1.7 38.3z"/><circle r="1" fill="#f1eef0" transform="matrix(40.619 -7.82199 1.57423 8.17486 166.7 51.6)"/><path fill="#4158ae" d="M140 67h10v3h-10z"/><path fill="#b2b3b0" d="M-16 210l29-29 36 29z"/><path fill="#24563f" d="M27 118h21v2H27z"/><path fill="#acaa9f" d="M141 205l-21-19-47 31z"/><path fill="#8f9e91" d="M60.2 138.4l-37.4-2.6 47.7-4.3-3.8 11z"/><circle cx="111" cy="151" r="13" fill="#c7cdcf"/><path fill="#e2ded2" d="M133 63h27v5h-27z"/><path fill="#fdf9e6" d="M140 72h2v13h-2z"/><circle r="1" fill="#dbd5d5" transform="rotate(170.3 -6.6 77.7) scale(21.2259 4.55487)"/><path fill="#dbd7d0" d="M166.6 88.4l5.4 21-49.5 16.5 58 8.3z"/><path fill="#96948c" d="M68.8 189.2l-44.7 2.5 54.5 16.7 2.2-38.1z"/><path fill="#222e00" d="M143.9 76l-.5-.8 2.7-1.3.5 1z"/><path fill="#5e7768" d="M25 82h4v64h-4z"/><path fill="#dddcd6" d="M185 89.8l-26.6-5.3-19.4-5.4 23.8 47.5z"/><path fill="#385d4c" d="M59.5 92v1l-27 1v-1z"/><path fill="#ebe9e8" d="M22 74L155-7 72 82z"/><ellipse cx="102" cy="239" fill="#b1b2af" rx="58" ry="10"/><path fill="#8ca092" d="M48 114l17-26-4 28z"/><ellipse cx="56" cy="225" fill="#c2c2be" rx="45" ry="10"/><circle r="1" fill="#3e6552" transform="matrix(-.1062 -.99434 20.44358 -2.1835 44.4 130.4)"/><path fill="#b5b1aa" d="M88.9 185.5l-11.2-11.8 46.7-13.8 10 30.1z"/><path fill="#826b68" d="M32.4 148.4l-10.2 12.5L2.3 166l11.4-9z"/><path fill="#9ea090" d="M156.3 82.2l23.6 4.6-.2 1-23.6-4.6z"/><path fill="#bebeb5" d="M11.9 135l21.8 18.9L76.1 138l-45.8 11.4z"/><path fill="#a0a099" d="M53 165l20-4-36-3z"/><path fill="#8a9e92" d="M30 80h11v37H30z"/><path fill="#4461b7" d="M148 109l1-10-4-3z"/><circle r="1" fill="#e1dfdc" transform="matrix(-9.66504 31.13284 -20.02437 -6.21647 2.5 82.6)"/><path fill="#e4e2df" d="M69.6 90.3v-2.1L66.9 137l38.8 3.3z"/></g></g></svg>