<svg xmlns="http://www.w3.org/2000/svg" viewBox="0 0 1400 933"><defs/><filter id="a"><feGaussianBlur stdDeviation="12"/></filter><rect width="100%" height="100%" fill="#42484e"/><g filter="url(#a)"><g fill-opacity=".5" transform="translate(2.7 2.7) scale(5.46875)"><ellipse cx="129" cy="57" fill="#fff" rx="118" ry="169"/><circle cx="116" r="115" fill="#fff"/><ellipse cx="90" cy="150" fill="#aa875e" rx="86" ry="43"/><circle r="1" fill="#56636a" transform="matrix(-1.01374 139.40795 -17.30725 -.12585 9.2 68.6)"/><ellipse cx="250" cy="87" fill="#5a6a72" rx="21" ry="169"/><circle r="1" fill="#006a0f" transform="matrix(-1.14392 8.32471 -25.73853 -3.53679 181.8 107.3)"/><ellipse cx="56" cy="31" fill="#ffe" rx="30" ry="87"/><path fill="#5a200c" d="M61 140l38-11-79-22z"/><circle r="1" fill="#726246" transform="matrix(-53.2151 -21.84035 6.14894 -14.98219 193.6 169)"/><path fill="#4c6f4a" d="M129 64l46-26-9-23z"/><circle r="1" fill="#f3e3c7" transform="matrix(56.15356 4.49265 -.92827 11.60248 167 125.6)"/><ellipse cx="132" fill="#fffff7" rx="36" ry="47"/><circle r="1" fill="#fffaea" transform="rotate(81.7 75.7 133.5) scale(58.31967 21.14867)"/><ellipse cx="233" cy="120" fill="#0a151d" rx="3" ry="169"/><ellipse cx="255" cy="41" fill="#90a1b0" rx="21" ry="73"/><path fill="#cec0a3" d="M216 104h14v66h-14z"/><circle r="1" fill="#f7ebd6" transform="matrix(84.41375 -2.21045 .4294 16.39847 110.7 89.8)"/><circle r="1" fill="#3f4e32" transform="matrix(4.57369 12.23288 -3.81656 1.42695 169 28.2)"/><path fill="#487b5d" d="M134.1 80.2l3.8-21.3-18.4 14.2 15.1 7.6z"/><path fill="#c7c8ac" d="M26 54h7v116h-7z"/><path fill="#fdfdec" d="M238 0h4v76h-4z"/><path fill="#000d12" d="M22 16h3v154h-3z"/><path fill="#fffdf5" d="M137.8 4.9l50.7 65.6L141-16l79.9 45.8z"/><path fill="#c6b89e" d="M167.5 120.4l-88 57.2-17-26 88-57.2z"/><ellipse cx="57" cy="111" fill="#bea085" rx="23" ry="14"/><path fill="#6c7274" d="M82 19h19v13H82z"/><circle r="1" fill="#6070a6" transform="matrix(-6.23762 -14.27735 4.04723 -1.76819 97.4 55.3)"/><path fill="#374b61" d="M242 0h6v70h-6z"/><ellipse cx="105" cy="5" fill="#fffdf8" rx="80" ry="13"/><ellipse cx="12" cy="20" fill="#9ba1aa" rx="11" ry="56"/><path d="M164 68h14l-11-5z"/><path fill="#854e39" d="M100.7 105l9.6 10.3-19 17.7-9.6-10.3z"/><path fill="#007232" d="M191 115l-31-8 41-11z"/><path fill="#282425" d="M240.5 131.7l28-.4 1 61-28 .4z"/><path fill="#464e55" d="M14 185l-30-60L15 21z"/><path fill="#86b283" d="M206.1 87.7l-3.6 18.6-20.6-4 3.6-18.6z"/><circle r="1" fill="#fff1de" transform="matrix(11.74779 -72.78438 11.19107 1.8063 120 32.3)"/><circle r="1" fill="#f3e9de" transform="matrix(-23.2956 2.1852 -4.00042 -42.64707 75 72.8)"/><path fill="#c8c9c1" d="M213 24h18v44h-18z"/><path fill="#dacfbe" d="M213.5 150.8l11.2-28.1-78.5-15.2 3.6 15.9z"/><ellipse cx="69" cy="131" fill="#4b2214" rx="18" ry="5"/><path fill="#a3a49c" d="M16 77h5v93h-5z"/><ellipse cx="18" cy="30" fill="#cfd7db" rx="3" ry="51"/><path fill="#74250d" d="M56 120l-21-14-1 7z"/><path fill="#163319" d="M163.5 13.1l11.8 26.5-2.8 1.3-11.8-26.5z"/><circle r="1" fill="#5d7f69" transform="matrix(14.08239 .15185 -.04174 3.87066 155.6 45)"/><circle r="1" fill="#fcefd9" transform="rotate(141.5 62.9 60.4) scale(50.16891 6.33105)"/><path fill="#b1a697" d="M33 154h107v16H33z"/><path fill="#faf1eb" d="M106.3-9.9L29 5.7l4.1 98 33.2-49.3z"/><path fill="#776d5a" d="M234.5 112.2L202.3 185l-51.1-48.9 66.7 30z"/><ellipse cx="239" cy="114" fill="#aaaa9a" rx="2" ry="51"/><path fill="#282824" d="M230 108h7v62h-7z"/><path fill="#474a0f" d="M90 17l14 17-9-4z"/><path fill="#f3ede9" d="M173 0h58v37h-58z"/><circle r="1" fill="#a1a298" transform="matrix(.8184 37.88954 -3.48127 .0752 217.8 77)"/><ellipse cx="28" cy="69" fill="#a0b79f" rx="3" ry="44"/><path fill="#96886f" d="M25 136h77v11H25z"/><path fill="#bbb19d" d="M226.7 165.4l-95.5-38.6 4.1-10.2 95.5 38.6z"/><ellipse cx="132" cy="49" fill="#4b4810" rx="2" ry="4"/><path fill="#f0e7da" d="M202 88.9l12.9 10.6-5.1-54.7-55.5 6.3z"/><path fill="#5a8773" d="M161.1 50.4l-37.3 17.8 49-39-16.4 19.6z"/><path fill="#fffce4" d="M88 21h6v13h-6z"/><path fill="#001883" d="M86 20h2v15h-2z"/><path fill="#f1e9d9" d="M195.5 82.1l-86 18.4 54.9-57.8-2.5 22.3z"/><path fill="#c8bca5" d="M70.5 96.8l6 22.1-17.3 2.8-32.9-21.8z"/><ellipse cx="8" cy="67" fill="#6d7b83" rx="4" ry="44"/><ellipse cx="235" cy="78" fill="#7b8b95" rx="1" ry="80"/><circle r="1" fill="#fff0d7" transform="matrix(3.0271 -4.2599 20.82389 14.79753 108.9 45)"/><path fill="#008348" d="M164 101h30v10h-30z"/><path fill="#b5a588" d="M124 98h51v3h-51z"/><circle r="1" fill="#3b5ca7" transform="matrix(-4.7955 -7.91831 1.53435 -.92924 94.9 47.5)"/><path fill="#ece8e0" d="M37.3 87.3l18.9-59.5 6.1 61.5-37.5 18.3z"/><path fill="#d4cabe" d="M205 107h15v37h-15z"/><path fill="#8c6856" d="M61.3 129.4l41.1-11.6-51.7 3-15.9 45.8z"/><path fill="#f2efec" d="M65 81h114v17H65z"/><path fill="#f2e5d8" d="M187.7 84l-25.9-66.7-73.5 6.5L164 34.5z"/><path fill="#b8b3a6" d="M224 106h6v64h-6z"/><path fill="#5b6a79" d="M241 26h15v51h-15z"/><path fill="#f6ebdd" d="M133.3 10l-28.4 50.4-11.8-21 67.1-.8z"/><ellipse cx="24" cy="24" fill="#475055" rx="2" ry="57"/><path fill="#91a8b3" d="M268 58l-19 20 2 26z"/><path fill="#f0e6cc" d="M68 82l45-4 35-34z"/><path fill="#4a4d1a" d="M165 37l3 9-11-7z"/><path fill="#2c2d30" d="M-16 161l19-55 2 78z"/><circle r="1" fill="#649180" transform="matrix(-2.2504 -1.55529 11.22993 -16.24902 134.7 63.2)"/><circle cx="99" cy="22" r="2" fill="#00006a"/><path fill="#455940" d="M174.7 42.8l-12.1-20.9 5.2-8.4 7.7 28z"/><circle r="1" fill="#fcf6f6" transform="rotate(90.4 70.6 77.2) scale(8.78951 47.11055)"/><path fill="#cdbba0" d="M110 109h29v32h-29z"/><path fill="#0a3a35" d="M159 41h-6l-8 10z"/><path fill="#1f2b0b" d="M166 62l-4 3 14 3z"/><path fill="#ebe1cf" d="M133.2 55.5L88.7 19.9 144.4 45l-43.1 6.9z"/><path fill="#d7d2c1" d="M155.3 30.1l-25.1-18.3L166.7 51v-.4z"/><path fill="#c7c9c7" d="M214 21h17v32h-17z"/><path fill="#11693d" d="M191.4 120l-21.2-13.5 14.5.1 17.7 8z"/><path fill="#626f73" d="M271 91.6l-27.8 9.8-8 20.4 33.7-12.4z"/><ellipse cx="247" cy="77" fill="#353f44" rx="1" ry="51"/><circle r="1" fill="#9cbd9e" transform="rotate(68.8 29.6 185.5) scale(7.71436 11.28365)"/><path fill="#b0a18a" d="M34.2 101.9L27.3 116l-5.1 7.1 27.7-25.9z"/><path fill="#506fb3" d="M95.2 56.1l11.9 11.8-4.4-12-9.8-11.7z"/></g></g></svg>