<svg xmlns="http://www.w3.org/2000/svg" viewBox="0 0 1300 867"><defs/><filter id="a"><feGaussianBlur stdDeviation="12"/></filter><rect width="100%" height="100%" fill="#2f4223"/><g filter="url(#a)"><g fill-opacity=".5" transform="translate(2.5 2.5) scale(5.07813)"><circle cx="140" cy="54" r="189" fill="#fff"/><circle r="1" fill="#fff" transform="rotate(-178.5 61.2 14) scale(253.30573 48.68659)"/><ellipse cx="128" cy="150" fill="#fff" rx="250" ry="28"/><circle r="1" fill="#500" transform="matrix(-.57032 21.48883 -113.09697 -3.00165 131 99.5)"/><ellipse cx="99" cy="32" fill="#fff" rx="255" ry="43"/><ellipse cx="42" cy="98" fill="#002100" rx="29" ry="25"/><path fill="#fff" d="M273.5 10l-9 171.8-34-1.8 9-171.8z"/><circle cx="149" cy="152" r="38" fill="#fff"/><ellipse cx="218" cy="98" fill="#002300" rx="16" ry="25"/><ellipse cx="6" cy="112" fill="#fff" rx="9" ry="169"/><circle r="1" fill="#fdfeff" transform="matrix(.10334 -39.80665 254.99914 .66196 101 169)"/><circle cx="183" cy="32" r="51" fill="#fff"/><ellipse cx="140" cy="98" fill="#9e3300" rx="75" ry="19"/><path fill="#9c2600" d="M102 124.3l-30.3 6.9-6.6-9.5 1.2-22.1z"/><circle r="1" fill="#fff" transform="rotate(177.3 68.2 12.6) scale(129.03456 47.20095)"/><path fill="#fff" d="M271 94l-39 78 7-182z"/><circle r="1" fill="#2a0000" transform="matrix(-2.01723 -21.7044 10.28902 -.95627 105.7 94.8)"/><circle r="1" fill="#094c1a" transform="matrix(11.48727 10.39353 -22.07319 24.39603 39.3 99.6)"/><ellipse cx="144" cy="84" fill="#9a3b07" rx="18" ry="11"/><path fill="#a84009" d="M200 127l10-54-42 43z"/><path fill="#065022" d="M207 82h27v42h-27z"/><circle r="1" fill="#901200" transform="matrix(-.38477 -4.41656 18.48874 -1.61072 33.7 78.7)"/><path fill="#fff" d="M233-6L123 83 17-2z"/><path fill="#f2f4f6" d="M29 185l154-16-78-55z"/><path fill="#bdb894" d="M64 83l7.2-22 24.7 8-7 22z"/><path fill="#ca6524" d="M119 81h16v42h-16z"/><path fill="#e5e8e6" d="M36.7 185L-16 159.3 45.3 120l22.3-1.9z"/><path fill="#f2f3f5" d="M13.5 76.8L3.6 183.2-6.3-16l87.1 88.5z"/><circle r="1" fill="#fff" transform="matrix(-2.72034 -3.27666 7.02348 -5.831 230.5 74.8)"/><path fill="#f0f3f3" d="M120.1 114.6l54.9 4.1L18.9 185l123.4-68.7z"/><path fill="#a24b18" d="M66 85h28v43H66z"/><path fill="#0b0000" d="M205 80h10v37h-10z"/><path fill="#f7f8fd" d="M274.3 107.9l-78.3 87-16.3-14.8 78.3-87z"/><path fill="#133011" d="M63.1 71.7l7.1 43.7-8.5 1.8-35.6 9.2z"/><path fill="#773212" d="M164.3 77.8l6.9 7.1-17.1 27.4-17.7-36.5z"/><path fill="#cfd1cd" d="M163.2 144.7l74.1-6.3-64.9-19-23.7-3.3z"/><circle r="1" fill="#fff" transform="matrix(-12.00634 -1.21328 6.0116 -59.48943 249.4 72.7)"/><path fill="#5d1600" d="M93 74h19l8 20z"/><path fill="#216538" d="M15 83h31v39H15z"/><ellipse cx="214" cy="79" fill="#5b1500" rx="9" ry="6"/><circle cx="187" cy="52" r="31" fill="#fff"/><path fill="#a95121" d="M181 82h24v42h-24z"/><circle r="1" fill="#cdceba" transform="matrix(5.6227 -14.41816 6.8343 2.6652 227.4 60)"/><path fill="#633d1b" d="M72 74h4v52h-4z"/><path fill="#dad8d6" d="M209.5 117.5l15.1 57.7-11.2-53.2-29 13.9z"/><path fill="#377544" d="M235.7 76l-26.1 34.9 12.3 6 13.4-9.5z"/><path fill="#fff" d="M118.8-16L271 5.1 26.6 74.7-16 88z"/><path fill="#dddfde" d="M-6.4 118.1l-2.7 33.5 106.3-20.4-72.1-5.8z"/><path fill="#a24e26" d="M66 85h31v39H66z"/><path fill="#b05a2b" d="M125 81.8l-10.3 39.3 11.4 4.8 25-53.7z"/><path fill="#431900" d="M99 76h14v40H99z"/><path fill="#23562c" d="M213 84h18v41h-18z"/><path fill="#d3d5cd" d="M103 135l-8-21 38 14z"/><path fill="#ebeef0" d="M258.5 104.5l28.1 40.2-81.1 56.8-28.1-40.2z"/><path fill="#ebddb8" d="M84.5 85.9l-7 1-2-12.8 7-1z"/><path fill="#dfe8f0" d="M187 60l2 19-58-8z"/><path fill="#f6f7f2" d="M223.7 79.8l14.5-25.1 6 3.5-14.4 25.1z"/><ellipse cx="144" cy="132" fill="#f2f6f7" rx="15" ry="17"/><path fill="#8a1200" d="M43.4 77.8L62 73.2l.7 3L44 80.8z"/><path fill="#061f07" d="M56 77h9v41h-9z"/><path fill="#e0e2e0" d="M53.4 119.4l67.4 30.2L7.2 134.8 52.7 119z"/><path fill="#8f673f" d="M84 74h17v13H84z"/><circle r="1" fill="#823d1d" transform="rotate(39.2 -58 290.7) scale(34.6486 10.44073)"/><path fill="#934821" d="M84.3 130.6l14.6-17-30.6-15.5.5 26z"/><circle r="1" fill="#e1e6e3" transform="matrix(4.28435 65.02321 -6.00208 .39547 10.5 123.8)"/><ellipse cx="33" cy="78" fill="#641600" rx="12" ry="4"/><circle r="1" fill="#fff" transform="matrix(-37.40134 69.73785 -24.95537 -13.3839 227.8 0)"/><path fill="#d5d5c6" d="M61 63h32v12H61z"/><path fill="#1d4f26" d="M20 106h15v19H20z"/><path fill="#f7fafc" d="M95 69l57-25-27 36z"/><circle r="1" fill="#edeff0" transform="matrix(154.16318 -9.62446 1.2842 20.57024 119.2 163.2)"/><path fill="#c9c8c2" d="M199 149l8-33 11 15z"/><path fill="#b95d29" d="M116 79h23l-3 36z"/><path fill="#6e290d" d="M151 74h-10l10 25z"/><circle r="1" fill="#edf3ef" transform="matrix(-5.16166 61.46853 -.9965 -.08368 235.2 107)"/><path fill="#853f1a" d="M116 82h7v41h-7z"/><path fill="#3d5e39" d="M17.7 119.9L13.4 79l9-1 4.2 40.8z"/><circle r="1" fill="#cfc09c" transform="matrix(-.95896 .28354 -3.17539 -10.7394 66 76.1)"/><path fill="#083c23" d="M73 72h3v14h-3z"/><path fill="#f1f3f5" d="M72.8 38.2L30.6-16-16 28.6l91.9 46.1z"/><path fill="#b85c29" d="M207.9 78l-9.5 45.6 4.6-1.2L189.5 86z"/><path fill="#101d00" d="M209 79h5v41h-5z"/><path fill="#f8fafc" d="M271 82.8l-49.7-6.5 30.2-9.7-16.6 36.4z"/><path fill="#bdb293" d="M78 60h5v21h-5z"/><ellipse cx="3" cy="62" fill="#eef1f1" rx="44" ry="15"/><path fill="#cbcec8" d="M166 125h53v10h-53z"/><ellipse cx="191" cy="79" fill="#f0f4fa" rx="11" ry="4"/><path fill="#215d2f" d="M219 83h13v41h-13z"/><path fill="#cbc7a9" d="M71.3 73.2L72.6 84l-6 .7L65.5 74z"/><ellipse cx="100" cy="132" fill="#dce0dd" rx="5" ry="17"/><ellipse cx="86" cy="59" fill="#fafdfd" rx="5" ry="11"/><path fill="#c6c3b1" d="M88 68h4v14h-4z"/><circle r="1" fill="#fff" transform="matrix(-25.91995 5.79837 -9.01196 -40.28541 134.6 34.1)"/><path fill="#fff" d="M217.8 74.1l-8.4.4L59.6.1 245-9.7z"/><path fill="#e1dad1" d="M100.8 70.2l1.4-16.3 2.8-11.4-10.9 42.2z"/><path fill="#c4c4ac" d="M226.2 73.4l-5.8-1.4 5.4-23.4 5.8 1.4z"/><path fill="#0c0000" d="M206 82h5v32h-5z"/><circle cx="135" cy="78" r="4" fill="#cb6426"/><ellipse cx="99" cy="95" fill="#592000" rx="3" ry="21"/><path fill="#954821" d="M73 98h15v31H73z"/></g></g></svg>