<svg xmlns="http://www.w3.org/2000/svg" viewBox="0 0 1120 1400"><defs/><filter id="a"><feGaussianBlur stdDeviation="12"/></filter><rect width="100%" height="100%" fill="#3f5c4d"/><g filter="url(#a)"><g fill-opacity=".5" transform="translate(2.7 2.7) scale(5.46875)"><circle r="1" fill="#ffeff2" transform="matrix(89.57334 104.8769 -144.80424 123.6745 115.9 156.2)"/><ellipse cx="196" cy="137" fill="#fff" rx="15" ry="255"/><path fill="#000b1d" d="M148.5-8.5h33v67h-33z"/><circle r="1" fill="#564022" transform="matrix(18.55665 -37.77804 21.46295 10.54265 74 131.4)"/><ellipse cx="202" cy="125" fill="#fff" rx="21" ry="249"/><circle r="1" fill="#6d798e" transform="matrix(62.1142 -23.96787 11.8821 30.79318 80.2 30.2)"/><circle r="1" fill="#dfae92" transform="matrix(-.9624 -101.66002 34.67937 -.3283 100.4 227.6)"/><path d="M161 205.5l15-9.9 7 11-15 9.8zm3.2-54l10.2-4.2 9.4 23.2-10.2 4.2z"/><path fill="#dbd1d5" d="M108 112h56v55h-56z"/><circle r="1" fill="#c39477" transform="matrix(-39.79369 4.53044 -11.511 -101.10821 18.7 186.7)"/><path fill="#08060f" d="M172.7 89.8l-24.4 23.6 14.4-3.5 4.5 30.7z"/><path fill="#fff" d="M123 220h81v13h-81z"/><path fill="#174e30" d="M41 206h17v33H41z"/><ellipse cx="70" cy="161" fill="#463f20" rx="14" ry="24"/><path d="M116 12L96 28l9 13z"/><path fill="#7d383a" d="M107.4 173.4L62 190.5l67.9-42.8 3.5 9.8z"/><path fill="#fff" d="M56.8-2.8l14.6-10.6L83.2 2.8 68.6 13.4z"/><path d="M23.5 95.1l5.7 1.8-6.7 22-5.7-1.8z"/><path fill="#fff" d="M154.3 143.9l64.7 15.6L194.5-16 181 108.2z"/><ellipse cx="111" cy="63" fill="#92bcd4" rx="62" ry="24"/><ellipse cx="177" cy="70" fill="#7b181b" rx="6" ry="53"/><path fill="#030709" d="M96 126l15-22-41 3z"/><path d="M30 89l19 13-22-28zm117.7 101l-15.1 14.5-6.3-6.4 15.1-14.6z"/><path fill="#ddccb4" d="M52 38l38 111-43-49z"/><path fill="#1c0500" d="M39.2 29.6l26.4 18.6 8.6-4.6-16-15.6z"/><path fill="#460001" d="M158 244h24v12h-24z"/><ellipse cy="194" fill="#962a30" rx="7" ry="65"/><path fill="#00080c" d="M115.1 12.9h18l12-28.8-8.5 43.4z"/><path d="M43 49h5v28h-5z"/><path fill="#fddea6" d="M-4 87l31-23-17 95z"/><path fill="#ffb5bf" d="M144.3 192.3l19-27 20.4 14.4-19 27z"/><ellipse cx="9" cy="43" fill="#fffaff" rx="7" ry="6"/><path fill="#443117" d="M99.4 140.1l2.7 17.8 12.2-25-14.9.4z"/><path fill="#87bbdd" d="M34.9 21l65.2 27.1-23.9-25.3-53-15.1z"/><path fill="#5b3d38" d="M156.2 138.4l1.4-9.2-24.7-2.1 25.4 22.3z"/><path fill="#a2e6ff" d="M164.6 32.7l-6.3-23.8 7.5 12.5L194.9-16z"/><ellipse cy="13" fill="#000006" rx="14" ry="28"/><path fill="#d6eaeb" d="M85.9 145.6l7.6-52.8 1.2 36.9 33.1-15.4z"/><ellipse cx="98" cy="245" fill="#ebddcd" rx="12" ry="63"/><path fill="#000500" d="M181 9l-18 40 17 8z"/><path fill="#d02936" d="M166.9 185.6l.2-17.5-7.8 14.7-5.6 35.6z"/><circle r="1" fill="#171501" transform="rotate(110.8 -14.6 67) scale(12.43016 2.86906)"/><path fill="#bbd0d9" d="M131 22l31 21-54 61z"/><path fill="#221c03" d="M151 228l-7 8 21 14z"/><ellipse cx="197" cy="181" fill="#fff" rx="16" ry="255"/><path fill="#dea260" d="M138.9 271l-58.1-73.4-23.5-63.2 18 74.2z"/><path fill="#211500" d="M57.8 157.7l-1.1-27.6 14.4 4.6-26.6 6.6z"/><path d="M118 36v-8l15 14z"/><circle r="1" fill="#d9c9af" transform="rotate(-24.2 436 -39.8) scale(6.91735 69.45317)"/><path fill="#f7faff" d="M137.2 235.4l10.2-14.4 16.1 25.3 55.5-49.9z"/><path d="M70 137l20 14-28 4z"/><path fill="#ddccc7" d="M11.8 173.2l1.5 58.9-5.2 6.2 39.1-18.6z"/><path d="M49 75l-2 9 10-7zm8.7-58.7L-16-16 16.9-2.4 63.4 6z"/><path fill="#180a1a" d="M152.5 204l2.6 3-19.6 17-2.6-3z"/><path fill="#fdfff1" d="M127.4 7.1l3.2-6.5-46.5 15 24.1.1z"/><path fill="#fbf4d2" d="M73.2 88.5l21.1 17.4-70.5-38.4 26.5 33.4z"/><path fill="#02361b" d="M35 181h16v9H35z"/><path d="M133 178l3-12-13 12z"/><circle r="1" fill="#7d463a" transform="matrix(-7.63394 -32.5667 2.98718 -.70022 114.7 227)"/><path fill="#db661b" d="M5.1 106.4l16-27.8-8.3 33.9-10.5 3.8z"/><path fill="#5f4610" d="M112.8 102.7l-34-5.6 6.2.4-12-18.3z"/><path fill="#bfd5df" d="M86.3-16L32.2 55.9 84-.6l21.8 28z"/><path fill="#473a79" d="M78 99l-24 6-15 38z"/><path fill="#e5e0e2" d="M154.1 271l-77-70 44.1 33.9 38.3 14.4z"/><circle r="1" fill="#a30" transform="rotate(23 -140.1 106.3) scale(9.39186 5.34128)"/><circle r="1" fill="#86afde" transform="matrix(-3.32744 2.36469 -10.05482 -14.1485 20.5 18.6)"/><path fill="#bfccbf" d="M71.4 112.9l8.6 5-21.8 38.9 8.9-43.5z"/><path d="M85.7 2.9l3.7 8.2-9.1 4L76.6 7z"/><circle r="1" fill="#000509" transform="rotate(-107.7 84.8 -44.8) scale(18.09544 3.8052)"/><path fill="#000509" d="M116.7 16L103 50.3 97.3 48 111 13.7z"/><circle cx="111" r="8" fill="#ff9a00"/><path fill="#f3feff" d="M159 162l-43 9 53-33z"/><path d="M19.8 59.3L-16 54.1l41.7-4.9-6.5-30z"/><path fill="#f47a81" d="M171 99l11 34V70z"/><path fill="#fef7ea" d="M114.9 195.4l25.8 32.6-22.4-46.5 23.4.6z"/><path fill="#e1f0d9" d="M35.6 115.1l10.1 14L16 134l19.8-38z"/><path d="M181.2 208.2l-4.6-15.9-9.3 17.7 1.6 8.4z"/><path fill="#ace1f3" d="M172 4l-21 9 8 5z"/><path fill="#d4c8c7" d="M65.2 155.7L79.5 271l-30.6-91.4 27.3 2.1z"/><ellipse cx="78" cy="177" rx="5" ry="7"/><path fill="#d38808" d="M11 139.5l14.4-15.2-4.7 8.3 34.9 17.2z"/><path fill="#f3fdec" d="M101 118h61v10h-61z"/><path fill="#67a0c2" d="M152 34L66 57l25 36z"/><path fill="#fffdfb" d="M92.7 105.5l4.5 13.1-11.9-15.8 19.8-.9z"/><path d="M170 101.8l4.6 5.2-10.6 9.2-4.6-5.2z"/><path fill="#b3e4d9" d="M79 156l7 27 18-24z"/><path d="M90 132l19-26-11 2z"/><path fill="#9d8a5a" d="M140 123l2-16-39-3z"/><path fill="#dfd4c1" d="M49 50l23-14-49 7z"/><path fill="#2a5242" d="M22.3 232.3L-16 271l53.3-49.5 27.8 10.2z"/><path fill="#cb2a3e" d="M118.8 162.4l-25.1 6.5 10.3 2.5 11.7 12.6z"/><path fill="#5a512e" d="M150.8 194.1l4.5 18-56.6-30.7 46.1 18.4z"/><path fill="#eae0dc" d="M30 232.6l-46 36.2 26.1-16.4 35.8-12.9z"/><path fill="#002815" d="M27 156h11v7H27z"/><path d="M126 148l6 14-10-8z"/><path fill="#000008" d="M49.2 35.6l-23.8-16L6.5-13.7l35.8 41.9z"/><ellipse cx="150" cy="137" rx="2" ry="12"/></g></g></svg>