<svg xmlns="http://www.w3.org/2000/svg" viewBox="0 0 1400 1120"><defs/><filter id="a"><feGaussianBlur stdDeviation="12"/></filter><rect width="100%" height="100%" fill="#422021"/><g filter="url(#a)"><g fill-opacity=".5" transform="translate(2.7 2.7) scale(5.46875)"><circle cx="122" cy="126" r="189" fill="#fff"/><circle r="1" fill="#fff" transform="matrix(54.00625 75.15766 -207.0813 148.80301 172.3 87.3)"/><circle r="1" fill="#4a4124" transform="rotate(-16.4 144.4 -200.2) scale(32.32865 52.76849)"/><circle r="1" fill="#200" transform="rotate(37.1 -165.7 416.7) scale(29.34762 25.30515)"/><path fill="#fdffff" d="M95 0h161v158H95z"/><ellipse cx="56" cy="190" fill="#fff" rx="134" ry="54"/><circle r="1" fill="#fff" transform="matrix(-10.478 -189.93896 12.95766 -.71481 0 81)"/><ellipse cx="255" cy="101" fill="#fff" rx="8" ry="203"/><path fill="#77624b" d="M9 0h87v73H9z"/><ellipse cx="52" cy="167" fill="#a9b0a9" rx="37" ry="20"/><path fill="#e8fffb" d="M15.3 93.6L89.1 75l-65.6-1.6-15.1 1.3z"/><path fill="#644831" d="M189 158h59v46h-59z"/><path fill="#fff" d="M168 142h22v62h-22z"/><circle r="1" fill="#fff" transform="matrix(24.09574 -1.89122 8.39535 106.96358 254.9 78.2)"/><path fill="#5d695b" d="M22 107h48v9H22z"/><ellipse cx="105" cy="82" fill="#fff" rx="11" ry="203"/><ellipse cx="141" cy="131" fill="#cfd4cf" rx="27" ry="198"/><path fill="#a2b7ab" d="M103 102l-119-1 119-35z"/><path fill="#a5aaa4" d="M180 120h47v22h-47z"/><ellipse cx="41" cy="199" fill="#fff" rx="78" ry="14"/><circle r="1" fill="#fff" transform="rotate(-1.4 4886.4 -2412.5) scale(61.50567 4.35451)"/><path fill="#cdd2cd" d="M178 1.5h48v101h-48z"/><ellipse cx="58" cy="130" fill="#919b94" rx="41" ry="6"/><ellipse cx="253" cy="176" fill="#fff" rx="5" ry="203"/><ellipse cx="73" cy="83" fill="#494f00" rx="5" ry="7"/><ellipse cx="5" cy="146" fill="#fff" rx="17" ry="33"/><ellipse cx="218" cy="150" fill="#fff" rx="58" ry="8"/><path fill="#0f000d" d="M205.2 175.4L199 177l-6.3 9 46.7 28.9z"/><path fill="#83989d" d="M55.9 18.3L71.9-1l22.2 18.6-16 19.2z"/><path fill="#696b65" d="M113 120h105v2H113z"/><circle r="1" fill="#edf5e5" transform="matrix(-2.16984 .06244 -1.83796 -63.87372 7.8 0)"/><ellipse cx="170" cy="110" fill="#fdfffe" rx="8" ry="197"/><path fill="#85634e" d="M11 22h60v51H11z"/><path fill="#3e3423" d="M50.5 52.2L29.6 18.8 64.1-16 48.8 19.9z"/><path fill="#a99271" d="M64.3 55.6l-42-33 19.4-34.9-22.8 72z"/><path fill="#030400" d="M65 125h3v13h-3z"/><path fill="#878b84" d="M20 108h50v12H20z"/><path fill="#fff" d="M230 0h26v158h-26z"/><ellipse cx="47" cy="142" fill="#fff" rx="71" ry="6"/><path fill="#696a64" d="M122 125h104v2H122z"/><path fill="#00250b" d="M30 51h7v13h-7z"/><ellipse cx="52" cy="184" fill="#81857e" rx="34" ry="2"/><path fill="#eef9f7" d="M80.4 68.8l7.4 63.1-20.1-10.6 27.1-38.8z"/><ellipse cx="38" cy="127" fill="#fff" rx="2" ry="22"/><path fill="#484e57" d="M101 56.9l-28-1.4L57.5-7.3l-23.6-7.9z"/><ellipse cx="172" cy="116" fill="#fff" rx="115" ry="4"/><path fill="#d9a886" d="M225.7 195.1l-6.1-9.8-1.4-4.1 14.4 5.8z"/><ellipse cx="180" cy="133" fill="#fff" rx="99" ry="2"/><ellipse cx="109" cy="22" fill="#fff" rx="6" ry="203"/><path fill="#677360" d="M62.1 60.9l38.5 6 5.9 12.7-11.4.5z"/><path fill="#fff" d="M96 137h160v3H96z"/><path fill="#1a111f" d="M84-4l2.2 26.8L91.4-3l3.1 9.5z"/><ellipse cx="212" cy="123" fill="#fff" rx="248" ry="2"/><path fill="#f5d1ab" d="M195 201h21v3h-21z"/><path fill="#e2e9eb" d="M13 75h55v13H13z"/><path fill="#fff" d="M61 110h4v43h-4z"/><path d="M56.8 125.5l1 .3-2.6 8.7-1-.3z"/><path fill="#7e675a" d="M249 158l-5 50-19-40z"/><path fill="#8a8d88" d="M83.3 148.8l16.5 1.5-25 .6-85-.1z"/><path fill="#0b0c06" d="M80 130l-1 8-2-12z"/><ellipse cx="46" cy="203" fill="#fff" rx="70" ry="18"/><path fill="#fff" d="M50.9 112.5l-7.7 5.5 11.2 29.2 2.1-7.3z"/><path fill="#680d17" d="M11 22h3v49h-3z"/><path fill="#af755b" d="M210.9 156.7L188.1 197l18.3 22-14.2-58z"/><path fill="#c0915d" d="M18 45L9-16l28 47z"/><ellipse cx="197" cy="106" fill="#91948e" rx="81" ry="1"/><path fill="#fff" d="M111 127h145v3H111z"/><ellipse cx="174" cy="121" fill="#fff" rx="4" ry="196"/><path fill="#494a45" d="M90 127l7 10-1-12z"/><ellipse cx="56" cy="53" fill="#c6aa94" rx="4" ry="14"/><path d="M19.4 125l1-.3 4.2 12.3-1 .3z"/><path fill="#99afa3" d="M58.9 62.3l45.2-2.2-6.1-8.2-10.5 3.4z"/><path fill="#6e6f6a" d="M177 130h52v2h-52z"/><path d="M67 110h2v10h-2z"/><path fill="#888984" d="M126 140h105v2H126z"/><ellipse cx="46" cy="162" fill="#fff" rx="139" ry="2"/><path d="M25-5l-5 9 1 8z"/><path fill="#fff" d="M243.4-3.7l.1 5-141 2.4v-5z"/><ellipse cx="105" cy="177" fill="#fff" rx="80" ry="2"/><path fill="#8a8c87" d="M25 163h56v3H25z"/><path fill="#fff" d="M174.4 131.9l-9.4-4.3 18.5 91.4 7-50.4z"/><ellipse cx="56" cy="174" fill="#93948f" rx="37" ry="2"/><path d="M51.7 111l1.6 7.8-1 .2-1.6-7.8z"/><path fill="#2f302a" d="M49.3 135.1l-.8.6L30.7 113l.8-.6z"/><ellipse cx="104" cy="167" fill="#fff" rx="83" ry="1"/><path fill="#fff" d="M101 62.7l11.6 54.3-35.3-3.5 39.2 40z"/><path fill="#fff" d="M90 136h25v68H90z"/><circle r="1" fill="#1a1b15" transform="matrix(-2.541 -6.13967 .924 -.3824 34.2 129.2)"/><path fill="#374f35" d="M66.8 63l16.8.7-29.9 10 28.6-47.4z"/><path fill="#fff" d="M54 107h4v9h-4z"/><ellipse cx="48" cy="179" fill="#8b8c87" rx="34" ry="2"/><path fill="#979994" d="M114 37h107v2H114z"/><path fill="#fff" d="M0 120h113v5H0z"/><path fill="#7b7c77" d="M20 154h58v2H20z"/><path fill="#211c1d" d="M265.1 213.9l-60.6-28.1 22.4-29-16.2 39.8z"/><ellipse cx="51" cy="172" fill="#fff" rx="135" ry="2"/><ellipse cx="171" cy="8" fill="#878983" rx="57" ry="1"/><path fill="#9b9c97" d="M203 48.3v1l-88-1.6v-1z"/><path fill="#fff" d="M0 181h140v2H0z"/><ellipse cx="171" cy="57" fill="#878983" rx="53" ry="1"/></g></g></svg>