<svg xmlns="http://www.w3.org/2000/svg" viewBox="0 0 1120 1400"><defs/><filter id="a"><feGaussianBlur stdDeviation="12"/></filter><rect width="100%" height="100%" fill="#65322e"/><g filter="url(#a)"><g fill-opacity=".5" transform="translate(2.7 2.7) scale(5.46875)"><circle cx="118" cy="129" r="188" fill="#fff"/><circle r="1" fill="#fff" transform="matrix(106.98325 -172.52126 98.44505 61.04738 132.7 152.4)"/><path d="M153 173h43v52h-43z"/><path fill="#16220c" d="M21.7 12l53-1 1.6 91-53 1z"/><ellipse cx="115" cy="89" fill="#faffff" rx="40" ry="255"/><path fill="#fff" d="M-93.3 254.3L-10.1 121l215.4 134.6L122.1 389z"/><ellipse cx="103" fill="#fff" rx="194" ry="13"/><circle r="1" fill="#fff" transform="rotate(84.6 67.8 141.8) scale(119.71102 46.64611)"/><path d="M21 12.3l1 25-13 .4-1-25z"/><circle r="1" fill="#fff" transform="rotate(15.2 -898.8 562.2) scale(202.81774 40.2851)"/><path fill="#4e2917" d="M150 172h39v52h-39z"/><ellipse cy="113" fill="#fff" rx="8" ry="255"/><path fill="#a0a8a3" d="M15 163h51v30H15z"/><ellipse cx="87" cy="2" fill="#fff" rx="203" ry="10"/><path fill="#7f6951" d="M9 35h66v68H9z"/><path fill="#62493a" d="M152 171h46v50h-46z"/><path fill="#a4b8af" d="M13 103h52v51H13z"/><path fill="#c7cec9" d="M92 26h40v199H92z"/><circle r="1" fill="#fff" transform="matrix(13.44294 -1.55855 16.82859 145.15178 203 117.7)"/><path fill="#fff" d="M132 159h72v12h-72z"/><ellipse cx="175" cy="247" fill="#fff" rx="203" ry="23"/><path fill="#c6ceca" d="M143 25.5h38v85h-38z"/><path fill="#fff" d="M76-16l142 38-143 4z"/><ellipse cx="44" cy="142" fill="#fff" rx="51" ry="3"/><path fill="#fff" d="M93 151l-5 36-44-32z"/><path fill="#1e4245" d="M11 12h64v19H11z"/><path fill="#607771" d="M60.5 125.1l6.4-101.7-47.3 2.4 20.8 19.1z"/><path fill="#e0f1f2" d="M0 104h53v12H0z"/><ellipse cx="87" cy="91" fill="#fff" rx="5" ry="255"/><path fill="#050512" d="M155.9 220.5l32.5-10.5-36.2-25.5 38.6 41z"/><path fill="#6a6d62" d="M15 130h43v6H15z"/><path fill="#c3b295" d="M154 205h16v10h-16z"/><ellipse cx="142" cy="176" fill="#fcffff" rx="10" ry="50"/><path fill="#241217" d="M149 213h30v12h-30z"/><path fill="#b6985f" d="M34.2 44.3L14.6 71.4 6.7 38.8l22.4-18.7z"/><path fill="#fff" d="M-67.5 12V-4h213v16z"/><circle r="1" fill="#fff" transform="matrix(52.7129 -10.78948 4.98018 24.3311 37.4 219.8)"/><path fill="#b2bcb7" d="M139 140h44v18h-44z"/><ellipse cx="156" cy="137" fill="#fff" rx="107" ry="3"/><path fill="#fff" d="M184 22h20v148h-20z"/><path fill="#97aea4" d="M75 86h7v42h-7z"/><ellipse cx="201" cy="178" fill="#fff" rx="4" ry="249"/><path fill="#fff" d="M0 136h15v101H0z"/><path fill="#8a644f" d="M8 66h48v36H8z"/><path fill="#4f5600" d="M54.5 108.3l.3 8.4 1.9-.4 8-8.9z"/><path fill="#af825e" d="M152 171h20v13h-20z"/><ellipse cx="138" cy="53" fill="#fff" rx="4" ry="250"/><path fill="#331520" d="M75.1 18.3l.7 36.2-12.2-40.4-.7 13z"/><path fill="#cbc7b1" d="M38 61l29-8-17-1z"/><path fill="#aab4af" d="M3 135l-19-21h62z"/><path fill="#343528" d="M33 74l-7-17 23-23z"/><path fill="#72584a" d="M185 173h13v41h-13z"/><ellipse cx="125" cy="141" fill="#50514b" rx="33" ry="1"/><path d="M26.7 144.6l3.6 10.4-1 .4-3.6-10.4z"/><path fill="#fff" d="M219 205l-37 66 12-52z"/><path fill="#a3a8a2" d="M150 227h23v5h-23z"/><ellipse cx="137" cy="145" fill="#5f615b" rx="42" ry="1"/><path d="M68.2 144l8.2 7.3-.6.8-8.2-7.4z"/><path fill="#73756f" d="M141 38h37v2h-37z"/><ellipse cx="46" cy="158" fill="#fff" rx="50" ry="5"/><path fill="#18010e" d="M161 186h11v20h-11z"/><path fill="#081911" d="M22 42l-6 11 2-16z"/><path fill="#fff" d="M132 158h72v12h-72zm59.5-6v1l-85-3v-1zM90 264l-47 7 49-168zM87 0h98v25H87z"/><path fill="#cc9e7d" d="M172.1 187l4.5-2.3 7.3 14.3-4.5 2.3z"/><path fill="#72736e" d="M92 30h36v2H92z"/><path fill="#ba9a7d" d="M35.8 77.2L17.2 56.4l15 33.3 3.6 23.3z"/><path d="M32 133h2v7h-2zm6.2 18.5l-7.1-8.4.7-.6 7.1 8.4z"/><path fill="#4e4d49" d="M56.6 151.6l-.2-7 7-.2.2 7z"/><ellipse cx="135" cy="129" fill="#8c928d" rx="50" ry="1"/><path fill="#fff" d="M101 32h37v6h-37zM57 143l32 1-34-11z"/><path fill="#276f79" d="M34.4 42.2l1-20.3 25.1 5.7-14.3 16.1z"/><ellipse cx="147" cy="143" fill="#fff" rx="157" ry="1"/><path fill="#6c6d67" d="M143 42h40v2h-40z"/><ellipse cx="38" cy="174" fill="#fff" rx="112" ry="1"/><ellipse cx="136" cy="125" fill="#919691" rx="48" ry="1"/><path fill="#888b85" d="M15 183h57v2H15z"/><path fill="#fff" d="M180.5 153v1l-85 3v-1z"/><path fill="#e6e9e7" d="M80.2 52.1l-6.5 24.2 64.1-11.6-74-1.6z"/><path fill="#393631" d="M16.8 151.4l-1-.1 3.4-18.7 1 .1z"/><ellipse cx="41" cy="164" fill="#6e706a" rx="28" ry="1"/><ellipse cx="141" cy="27" fill="#82847e" rx="45" ry="1"/><path fill="#fff" d="M0 140h63v5H0z"/><path fill="#172e38" d="M73.3 84.2L63.7 16l1-.1L74.3 84z"/><path fill="#fff" d="M136 21h6v170h-6z"/><circle cx="181" cy="207" r="8" fill="#131a1f"/><ellipse cx="159" cy="117" fill="#818b84" rx="19" ry="1"/><ellipse cx="130" cy="147" fill="#fff" rx="53" ry="1"/><circle r="1" fill="#aabab4" transform="matrix(-15.37064 1.96902 -.24743 -1.9315 68.6 91.2)"/><path d="M45.4 144.5l1 .1-1.8 11-1-.2z"/><ellipse cx="8" cy="128" fill="#dee4d8" rx="90" ry="3"/><path fill="#6f2424" d="M9 55h3v48H9z"/><path fill="#4d4745" d="M79.7 88.3L55 65.5 52.7 108l-5.6-25.8z"/><path fill="#ffc8a0" d="M188 209l2 7 2-8z"/><path fill="#fff" d="M0 185h131v2H0zm0 4h151v2H0z"/></g></g></svg>