<svg xmlns="http://www.w3.org/2000/svg" viewBox="0 0 933 1400"><defs/><filter id="a"><feGaussianBlur stdDeviation="12"/></filter><rect width="100%" height="100%" fill="#314a45"/><g filter="url(#a)"><g fill-opacity=".5" transform="translate(2.7 2.7) scale(5.46875)"><circle cx="90" cy="150" r="195" fill="#fff"/><circle r="1" fill="#fff" transform="matrix(89.79683 1.40774 -.99036 63.17328 85.3 231.7)"/><ellipse cx="156" cy="138" fill="#fff" rx="21" ry="255"/><circle r="1" fill="#fff" transform="rotate(175.3 8.8 36) scale(18.52426 113.29741)"/><circle r="1" fill="#fff" transform="matrix(-74.78805 .24841 -.08644 -26.02263 90.7 13)"/><path fill="#434132" d="M37.5 39h95v56h-95z"/><path fill="#fff" d="M-13 260.5l45.3-97 128.7 60-45.3 97z"/><circle r="1" fill="#9b724e" transform="matrix(40.66929 33.05103 -27.52734 33.87238 86.2 127.3)"/><circle r="1" fill="#66412b" transform="matrix(13.34621 29.97608 -13.09808 5.83164 5.7 166.2)"/><circle r="1" fill="#6f8f70" transform="matrix(-1.2731 22.7712 -21.54966 -1.20481 161.5 189.2)"/><path fill="#fdffff" d="M136 40h34v119h-34z"/><path fill="#020e22" d="M136 38l-1 44-25-42z"/><path fill="#d8b77c" d="M34.8 84.8l12.3 32 36-32.3-18.9-30.9z"/><ellipse cx="27" cy="108" fill="#fffffb" rx="12" ry="60"/><path fill="#001b2b" d="M40 39h35v19H40z"/><circle cx="64" cy="225" r="56" fill="#fffaec"/><path fill="#365b00" d="M107 182h11v13h-11z"/><path fill="#413b2e" d="M64.6 95.3l10.4-2 22.8-.9-28.7 38.5z"/><ellipse cx="103" cy="12" fill="#dfe1df" rx="169" ry="26"/><ellipse cx="129" cy="118" fill="#685157" rx="6" ry="57"/><path fill="#edeae8" d="M39 45.5v49h-78v-49z"/><path fill="#aa6e51" d="M39 105h16v65H39z"/><circle r="1" fill="#a5aea2" transform="rotate(-72.8 114.3 -29.1) scale(23.60572 13.82703)"/><circle r="1" fill="#f7fcfb" transform="matrix(-4.11893 6.5793 -21.67057 -13.56674 134.3 185.8)"/><path fill="#757f6e" d="M116.8 119.4l31.5 66.5-3.5-1.4-48.5-30.9z"/><ellipse cx="4" cy="120" fill="#c79f62" rx="6" ry="29"/><circle r="1" fill="#6f9c78" transform="matrix(4.7424 -.78104 4.08978 24.83258 162.5 166.8)"/><ellipse cx="110" cy="245" fill="#fffff7" rx="64" ry="41"/><ellipse cx="146" cy="110" fill="#fdffff" rx="12" ry="56"/><ellipse cx="48" cy="199" fill="#d4d0c8" rx="105" ry="8"/><circle r="1" fill="#c2c5c0" transform="rotate(-29.9 57.9 -13.8) scale(19.97314 37.22376)"/><path fill="#595c51" d="M49 103l9-63 11 27z"/><path fill="#4e3930" d="M13.8 146.6l-1.6 9.2.2 42.5-26.4-25.9z"/><path fill="#f1e8c4" d="M113.8 100.7l-9.2 4.9-23 4.2 18.8-12.6z"/><path fill="#caac83" d="M47 155l29-21-36-53z"/><path fill="#284833" d="M57 156l12-20 2 24z"/><path fill="#c5d6d8" d="M127 160l11-10h-29z"/><path fill="#cfaa87" d="M126.9 131.2l-16.7 1.8-18 29-30.3-27.2z"/><path fill="#152529" d="M59 55L42 40l-3 35z"/><path fill="#e4d098" d="M54.9 77l21.5 4.6-3.1 19.7 23.5 14.9z"/><path fill="#22201d" d="M5 147h15v5H5z"/><path fill="#e5d8d1" d="M134.1 102.3l3.2 6.8-29.5 14.4 5.4-3.3z"/><path fill="#f0eae6" d="M8.1 144.2l-24.1 5.5 47-3-19.7-74.1z"/><path fill="#000213" d="M134 140l3 7-21-5z"/><path fill="#2b2300" d="M78 111h5v21h-5z"/><circle r="1" fill="#43798d" transform="rotate(135.2 31.2 53.7) scale(17.58113 12.93206)"/><path fill="#5d2c2d" d="M39 100h3v65h-3z"/><path fill="#60131c" d="M132 49h4v51h-4z"/><path fill="#3b4f5e" d="M115 126l-3 27-9-38z"/><path fill="#afa79c" d="M26 192l-5-45-9 32z"/><path fill="#292423" d="M186.8 212.7l-36-12.4.4-1 36 12.4z"/><ellipse cx="161" cy="48" fill="#bfcdcc" rx="5" ry="117"/><path d="M134 122l-1 7-7-14z"/><path fill="#d6e7f4" d="M128 128h8v9h-8z"/><path fill="#001621" d="M128.4 93.4l-3 .3-4.9-7.2 8.4 22z"/><path fill="#e6e2de" d="M103 122.5l19.1-5.9.9 3-19.1 5.8z"/><path fill="#ac4c3d" d="M112.5 125.2l-18.6-3.3-12.7 28.9-3.7-16.9z"/><path fill="#396f14" d="M99 165l-8 4 9 7z"/><path fill="#eac586" d="M42 76.2l28.6 1.2-20.7-6.2 9.2 20.3z"/><path fill="#f7f0d1" d="M-.5 135.2l3.1 4.1.3 19.4-18.9-2.2z"/><path fill="#2e3d49" d="M108.9 69.9l-7.1-26.2-12.1 11.4-4.6-4.3z"/><path fill="#feffff" d="M96 197.7l-27-17 9-14.4 27 17z"/><path d="M49.9 104.2L53 87.6l1 .2-3.2 16.6z"/><path fill="#f2f8ed" d="M119.8 203l-.7-24.3 18.8-11.2-7.1 28.3z"/><circle cx="61" cy="133" r="4" fill="#053428"/><path fill="#406343" d="M166 184l-3-17-7 18z"/><path fill="#a1b75b" d="M134 166h16v14h-16z"/><path fill="#403d32" d="M68.2 101.8l20.3 15.7-18.5.4-7.7-8.2z"/><path fill="#101d26" d="M79.6 96.9l16.7-3.2-3.5 6.4 1.6 3z"/><circle r="1" fill="#e7e8e7" transform="rotate(-33.2 71 -141.6) scale(29.50794 21.84623)"/><path fill="#284b54" d="M136 41l1 20-35-16z"/><path d="M63 65h2v12h-2z"/><path fill="#4f1611" d="M135.7 164.2l-14 5.4-1.4-3.8 14-5.4z"/><path fill="#604a41" d="M113 107l10 2-19-21z"/><path fill="#faf5f2" d="M22 94h16v84H22z"/><path fill="#fffdf0" d="M-5.2 186.8l9-.6 1.4 19-9 .6z"/><circle r="1" fill="#fef7e8" transform="matrix(53.19846 -21.36791 7.52752 18.74084 23.8 231.2)"/><path fill="#ccb09b" d="M74.9 173.3l22.9-24-7.9 27.4-20.1-39.9z"/><path fill="#001e2c" d="M96.8 43l-16.7 3-.9-5 16.7-3z"/><path fill="#688187" d="M138.7 74.8L103 66l15.7-28.4-.4 20.8z"/><path fill="#bfa87c" d="M79 94l-13 27 13-15z"/><path fill="#000213" d="M93 107h3v8h-3z"/><path fill="#3a4844" d="M9 184.3l10 10.6-35 .5 20.1-.2z"/><circle r="1" fill="#e2e5e3" transform="matrix(-34.98223 1.88369 -1.19868 -22.26092 5 73.4)"/><path fill="#829a9c" d="M105.9 44.5l19.3-13.1-51.3 23.3-17.5-6.1z"/><path fill="#6b8732" d="M107 178h6v15h-6z"/><path fill="#d9eed9" d="M158 171l-23-33v30z"/><path fill="#cac6c2" d="M62 188l-73 26 40-31z"/><path fill="#001c18" d="M52 118h8v3h-8z"/><circle r="1" fill="#ffeb9f" transform="matrix(11.29007 2.19103 -.44694 2.30303 70 84.4)"/><path fill="#d3c0a3" d="M71.6 152.5l-41.9-2.8 24.6.8 20.3-1.6z"/><path d="M95 141h3v4h-3z"/><path fill="#f1d395" d="M67.1 86.4l-24.4 51.3L74.6 79l-1.4-4.9z"/><ellipse cx="148" cy="10" fill="#b7bdbb" rx="112" ry="2"/><path fill="#c45052" d="M124.8 121.7l2.3 22-6 .6-2.2-22z"/><path fill="#00000a" d="M73.4 128.8l-5.7-21.3 1-.3 5.6 21.3z"/><path fill="#00050a" d="M60.2 97.9l-.9-.5L65.8 86l.9.5z"/><path fill="#a2906b" d="M7 143.9l3.2-50.8-23.9 11.6L7.6 122z"/><path fill="#fbd7c7" d="M99 131h12v4H99z"/><path fill="#363c38" d="M41 168l-1-5 13-7z"/></g></g></svg>