<svg xmlns="http://www.w3.org/2000/svg" viewBox="0 0 1400 1050"><defs/><filter id="a"><feGaussianBlur stdDeviation="12"/></filter><rect width="100%" height="100%" fill="#50342f"/><g filter="url(#a)"><g fill-opacity=".5" transform="translate(2.7 2.7) scale(5.46875)"><circle r="1" fill="#fff" transform="matrix(-102.93702 70.21887 -114.2919 -167.54567 77.9 139)"/><circle r="1" fill="#fff" transform="matrix(-20.49468 57.63423 -82.04596 -29.17547 77 191)"/><circle r="1" fill="#837f66" transform="matrix(-61.8613 27.1379 -44.37804 -101.16046 204.3 92.5)"/><ellipse cx="114" cy="84" fill="#fff" rx="15" ry="191"/><ellipse cx="153" cy="185" fill="#fffffe" rx="255" ry="24"/><circle r="1" fill="#fff" transform="matrix(13.05359 -.85711 5.12762 78.09209 14.3 58.2)"/><path fill="#000005" d="M221.7 163.6L191.3 199l38.5-103.4 12 94.5z"/><circle r="1" fill="#faffff" transform="matrix(-.69857 24.11285 -69.75804 -2.02095 60.1 5.2)"/><circle r="1" fill="#816b55" transform="matrix(-25.15201 -32.64371 66.19864 -51.00612 182.8 102)"/><path fill="#575a44" d="M29 31h73v73H29z"/><ellipse cx="226" cy="69" fill="#989893" rx="26" ry="46"/><path fill="#755b3e" d="M129 7h67v154h-67z"/><path fill="#f3ffff" d="M96 81l33 58-2-128z"/><path d="M203 146h10v35h-10z"/><ellipse cx="48" cy="170" fill="#fffff9" rx="45" ry="41"/><path fill="#1a3d4b" d="M29 29h73v21H29z"/><path fill="#00000a" d="M130 35l34-26-35-25z"/><path fill="#fff" d="M270.1 208.8l-25.9 2.2-4.3-49.8 25.9-2.2z"/><circle r="1" fill="#50432e" transform="matrix(10.85234 -6.09005 12.8982 22.98432 0 123)"/><path fill="#d8b880" d="M131.5 76.6l24.7 16.7L169 21.4l17.1 31.7z"/><path fill="#9d886c" d="M28 55h73v72H28z"/><path fill="#fffffb" d="M198 114h12v29h-12z"/><path fill="#080c12" d="M228 117h12v64h-12z"/><path fill="#1f130a" d="M164.2 67.5l-6.9 8 12.1 28.4L190.9 89z"/><path fill="#bdbcc3" d="M220.6 128.1l43.4 8.2-24 17 .9-26.2z"/><circle r="1" fill="#f2f9f9" transform="matrix(4.22913 -19.57145 6.57772 1.42136 218.1 177.2)"/><path fill="#dfdbcf" d="M130.8 207h77.9l-5.8-37.7-75.1-9.9z"/><path fill="#f6eacd" d="M238.3 72.5l-30.8-6.3-25.1 18.6 59.9-18.9z"/><path fill="#f6fdf8" d="M29 32l-38 1 36 115z"/><circle r="1" fill="#395158" transform="matrix(19.42652 -.08972 .27809 60.21073 193.1 14.3)"/><path d="M213.2 129.3l7 1.3-9.4 48.1-7-1.3z"/><path fill="#000004" d="M242 48h6v30h-6z"/><path fill="#c19573" d="M155.5 74.5l-1.3 25.3-27.8-10.2 66 54.1z"/><path fill="#d9c5cb" d="M247.4 123l-3.2-24.2 7.1 9.7L268.2 95z"/><path fill="#f9ffff" d="M101 33h16v94h-16z"/><circle r="1" fill="#d6c7c3" transform="matrix(-25.66734 18.06563 -2.13778 -3.03733 246.9 82.9)"/><path fill="#265800" d="M80 136h7v10h-7z"/><path fill="#000006" d="M225.9 132.9l41.6-20.3L229 71.2l42 57.1z"/><circle r="1" fill="#d0b176" transform="matrix(9.19865 -20.13834 10.19395 4.65632 42.1 64)"/><path fill="#000804" d="M147 137l15 12 9-10z"/><ellipse cx="71" cy="10" fill="#dee9e8" rx="57" ry="19"/><path fill="#89b695" d="M129.2 153.2l-23.7 3.3-4.7-33.7 23.7-3.3z"/><path fill="#dcb16d" d="M182.4 56.9l-34-13.4-17 47.3 8.5-62.4z"/><path fill="#010700" d="M150.3 59.8l-5.9-11.9 1 2-6.1 22.2z"/><path fill="#cac6b2" d="M216 4l5 14 12-12z"/><path fill="#7f878d" d="M102 107.7l-19.3 5.5L60 34.3l19.2-5.5z"/><ellipse cx="255" cy="15" rx="8" ry="15"/><path fill="#be9676" d="M129.5 49.2l23.3 69.4 28.3-14.2-43.3 43.6z"/><path d="M145.7 40.5l2.5-1.6 8.1 12.6-2.5 1.6z"/><path fill="#0d0000" d="M204.1 162.4l14.7-25.2-24.3 19.8-16.5-21.8z"/><circle r="1" fill="#eefafb" transform="matrix(-2.39259 28.90754 -13.55932 -1.12226 252.4 188.2)"/><path fill="#574f3d" d="M59.6 107.7l-.9-3.9-12.9-24.6 20.5-24.3z"/><circle r="1" fill="#22262c" transform="matrix(-8.58202 -15.87211 3.12368 -1.68897 222 104)"/><circle r="1" fill="#774526" transform="matrix(10.00155 31.23192 -6.17206 1.9765 190.4 131)"/><path d="M145.3 116.1l17.7-.3.9-3.8-.5-3.9z"/><path fill="#130700" d="M189 71.9l-10.2-12.7 26.5 2.7-7.8 11.6z"/><path d="M198 21l7-37 13 3z"/><path fill="#6a6d62" d="M100 123l-1-39-34 45z"/><path fill="#f9fff5" d="M94 168.2l-7.7-47.8 45.7 61.4L56.8 207z"/><circle r="1" fill="#738179" transform="matrix(2.7355 17.54334 -30.86258 4.81234 218.2 36)"/><circle r="1" fill="#bdc6c1" transform="matrix(-15.70615 13.3208 -20.56708 -24.25003 3.3 19)"/><path fill="#ece2be" d="M91 73l-16-2-19 14z"/><path fill="#000505" d="M230 183l10-8-15-25z"/><path fill="#302f3d" d="M91 29h10v44H91z"/><circle cx="164" cy="129" r="5"/><path fill="#e9d28e" d="M145 76l16-29-4-20z"/><path fill="#99895d" d="M-16 78.2l23.8-7.7-4.1 45.4 10.6-1.3z"/><path fill="#b1a08d" d="M170.4 16.9l-15.3 40.6L175.4 23l-65.1-6.1z"/><path fill="#d4a779" d="M32 98l36 15-39-53z"/><path fill="#d7baac" d="M238 65h5v41h-5z"/><path fill="#e7e8d2" d="M119.5 50.6l18.8-12.3-13.9 46.3L130.2-16z"/><path d="M149 43v6l14 6zm101 61l6-5-11-11z"/><path fill="#2a2122" d="M156 76.6l19.6-22.2-5.4 53.5 14.1-25.7z"/><circle r="1" fill="#bfb08f" transform="matrix(3.53416 3.3571 -10.58983 11.14836 213.3 44.3)"/><path fill="#f3f9fa" d="M11.1 137.2l8.4-11.8 47.4 5 12.6 12.9z"/><path fill="#bc9c80" d="M214.5 105.3L188.2 72l-17.6 16.1 5.8-18.9z"/><path fill="#eec6a3" d="M196 56l-11-2 10 10z"/><path fill="#121617" d="M211 119l16-6-15 40z"/><path fill="#9d7967" d="M231 135.1l11.2-55.9-23 70.5-4.3-34.3z"/><path fill="#242a2a" d="M29 48h21v6H29z"/><path d="M267 162l-11-12-18 4z"/><circle r="1" fill="#305435" transform="matrix(-4.61865 -1.3979 1.87413 -6.19212 48.5 113.7)"/><path d="M236 62.5l4.1-8 9.8 5-4 8z"/><path fill="#fff" d="M127 0h2v192h-2z"/><path fill="#f6f3ec" d="M25.1 48.5L5.9 102.7l-21.8 11.4 43.7-6.6z"/><path d="M166.9 10.9l6.1-3.3 6.1 11.5-6.1 3.3z"/><ellipse cx="150" cy="94" rx="6" ry="3"/><path fill="#e8d391" d="M187.6 51.6l-16.2.8-20.5 25.2 18.4-35.4z"/><path fill="#001214" d="M167.1 22.1l-10.9 1.1 5.9 19.9-.5-14.9z"/><circle r="1" fill="#cdad92" transform="matrix(5.23722 -1.3686 2.3998 9.1833 173.8 141)"/><path fill="#d8d4cc" d="M130 161h73v31h-73z"/><path fill="#4d3b34" d="M-5.6 126.5L17 111.3H6.5l1.4 39.2z"/><circle r="1" fill="#2c535a" transform="matrix(-10.97807 -.73137 1.82366 -27.37366 237 .6)"/><ellipse cx="201" cy="82" rx="3" ry="6"/><path fill="#ecdbba" d="M258 77l-8-4 3 18z"/><path fill="#cab0a2" d="M213.6 107.6l3.7 10.8-20.3.7 36.2-33z"/><path fill="#742725" d="M238.3 72.1l-47.7 34.1 20.5-.6.3-10.1z"/><path fill="#63271a" d="M129 82h4v75h-4z"/><path fill="#48737d" d="M67 76l11-31-27-9z"/></g></g></svg>