<svg xmlns="http://www.w3.org/2000/svg" viewBox="0 0 933 1400"><defs/><filter id="a"><feGaussianBlur stdDeviation="12"/></filter><rect width="100%" height="100%" fill="#2a494b"/><g filter="url(#a)"><g fill-opacity=".5" transform="translate(2.7 2.7) scale(5.46875)"><circle cx="74" cy="126" r="168" fill="#fff"/><ellipse cx="87" cy="232" fill="#fff" rx="92" ry="64"/><circle r="1" fill="#fff" transform="matrix(-20.1254 -.85885 4.17283 -97.7817 155.6 81.6)"/><circle r="1" fill="#131d1b" transform="matrix(52.03553 -.67739 .24937 19.15605 89.3 56.5)"/><circle r="1" fill="#fff" transform="matrix(-16.36435 1.78996 -10.25374 -93.74263 20.6 91.5)"/><ellipse cx="81" cy="241" fill="#fff" rx="96" ry="47"/><ellipse cx="83" cy="11" fill="#faf4f1" rx="68" ry="28"/><ellipse cx="87" cy="112" fill="#92704c" rx="49" ry="62"/><circle r="1" fill="#613923" transform="rotate(-97.4 80.8 82.2) scale(25.55704 12.28627)"/><ellipse cx="162" cy="100" fill="#fff" rx="28" ry="60"/><path fill="#1d101a" d="M123 39h13v60h-13z"/><path fill="#081716" d="M40.3 78.7L77 40.5l-32.3-3.7-6.3 5.1z"/><ellipse cx="27" cy="95" fill="#fff6ef" rx="13" ry="72"/><ellipse cx="60" cy="183" fill="#fffff9" rx="46" ry="14"/><circle r="1" fill="#9fa29a" transform="matrix(19.97515 -4.64836 9.05794 38.9242 11.7 13.5)"/><circle r="1" fill="#544838" transform="matrix(-8.76307 -6.65153 14.87715 -19.59992 78.9 101.4)"/><path fill="#fff" d="M136 40h18v125h-18z"/><circle r="1" fill="#fffff3" transform="matrix(119.88421 -3.97697 1.2258 36.95107 76.6 248)"/><path fill="#4a6b00" d="M119 178.9l-1 15-11-.8 1-15z"/><path fill="#779772" d="M157 146h11v63h-11z"/><path fill="#933622" d="M39 126h7v45h-7z"/><ellipse cx="100" cy="71" fill="#598b98" rx="29" ry="15"/><path fill="#6b6766" d="M107 122h29v48h-29z"/><path fill="#c8a36f" d="M42 74h24v79H42z"/><path fill="#e6e5e2" d="M0 42h40v53H0z"/><path fill="#c29249" d="M9 95l-3 52-22-36z"/><path fill="#d5d9d8" d="M29 16h122v23H29z"/><path fill="#ede7c8" d="M81.8 110.9l3.2-5.1 20.1-9 9.2 7.8z"/><path fill="#e7ca8e" d="M75.5 71.4l-8.1-14.7-2.9 37 15.9-7.1z"/><path fill="#fff" d="M123 203l20-20-26-16z"/><path fill="#d9ab8c" d="M97.4 168.3l-25 1.3-1.8-36 25-1.2z"/><path fill="#493f26" d="M69 124l17-34-3 42z"/><path fill="#84955a" d="M185 184.5l-99.4-21.6 8.4 15.5 30.1-16.6z"/><path fill="#44332c" d="M19 147l-13-1-9 35z"/><circle r="1" fill="#fffff1" transform="matrix(2.10204 10.5197 -5.57963 1.11492 0 195.9)"/><ellipse cx="121" cy="46" fill="#0c2d37" rx="16" ry="8"/><path fill="#000010" d="M127 115h6v12h-6z"/><circle cx="129" cy="145" r="5" fill="#00030b"/><path fill="#bbd0c4" d="M132 146l-29 10 40 1z"/><path fill="#b3bbb8" d="M165 84l4-100-23 27z"/><path fill="#2c4550" d="M114.6 66.1l-38.4-4.9L28 36.1l70.7 11.8z"/><path fill="#435b44" d="M69.1 143.9l-8.8-2.8-.7 27.7 11.7-15.2z"/><path fill="#717168" d="M147 200h23v7h-23z"/><path fill="#03140f" d="M50 93v11l6-21z"/><path fill="#ddeeef" d="M161 82.3l-50.3 81.1 22.4-32.3 39.6 45.7z"/><path fill="#f7f3ee" d="M9 79h28v68H9z"/><path fill="#fbf7f8" d="M30.2 71.3l-4.6 113.1 81.6 2.9-67.4-20z"/><path fill="#645b4f" d="M22 170.1l.9 12.1-38.9 3.5 41.8 4.1z"/><path fill="#673a35" d="M43.3 99.5l-.6 35h-4l.6-35z"/><ellipse cx="113" cy="80" fill="#929c8c" rx="17" ry="13"/><path fill="#d29492" d="M132 134l-10-25-8 31z"/><path fill="#feffff" d="M135 108h22v40h-22z"/><circle r="1" fill="#b5bab5" transform="matrix(-2.99882 -50.42305 21.22165 -1.26212 21.1 10.2)"/><path fill="#dfe2e6" d="M104.7 123.8l62.9-43.3-23.9 20.8-27 20.2z"/><ellipse cx="62" cy="198" fill="#e2d7ca" rx="58" ry="7"/><path fill="#000914" d="M52.6 74.3l.8-.5 8 13.9-.8.5z"/><path fill="#acc196" d="M127.7 174.6l52.1 35.4-29.9-43.8-9.9-1.9z"/><path fill="#e8bc73" d="M39 78l15-4-11 45z"/><path fill="#ad826a" d="M49 154l-6 16 32-3z"/><path fill="#a9a093" d="M14 145h8v44h-8z"/><path fill="#b79270" d="M87.8 104.3l-13.4-8.9-3.2 3 45.7 63.7z"/><path fill="#8d474a" d="M92.7 124.2l27.7-19.3-40.8 40.5 17.7-41z"/><path fill="#0f221e" d="M40 42h7v31h-7z"/><circle r="1" fill="#b3a4a2" transform="matrix(-9.72124 .8951 -.271 -2.9431 41.5 60.7)"/><path fill="#e3b486" d="M69.9 116.3l-16-4.5 24.2 23.3-15 4.9z"/><path fill="#f2fcf5" d="M121.6 170.7l-20.8.2 14.9 11.1 19.9.5z"/><circle cx="109" cy="54" r="4" fill="#f8c095"/><path fill="#d8cba7" d="M108.6 40.7l.4 2-21.6 4.6-.4-2z"/><path fill="#8e948e" d="M52 9h6v27h-6z"/><path d="M123.6 166.4l-8-10.2.8-.6 8 10.2z"/><path fill="#104861" d="M119 124h-12l4 17z"/><path fill="#083834" d="M56 131h10v5H56z"/><path fill="#6b1f25" d="M123.4 165.9l13.1-9.9-5.2 13.8-7.8-3.2z"/><path fill="#f1feff" d="M137 47h20v95h-20z"/><path fill="#332c39" d="M68.3 95.4l-1 2.6 8 32.3-12.5-26.1z"/><path fill="#fffdf6" d="M54.8 210.5l162.4 14.2-4 44.8-162.4-14.2z"/><ellipse cx="4" cy="168" fill="#2c1312" rx="9" ry="5"/><path fill="#f8f8fc" d="M-16 86l29 7-29-94z"/><path fill="#000005" d="M88 104l8-9-4-4z"/><path fill="#dde0d1" d="M94.4 101.7l30.5-5.4.7 4-30.5 5.4z"/><path fill="#ffe39e" d="M72.4 89.1l-16.6 21.2 15.1-28.9L57 80.3z"/><path fill="#7f1827" d="M122 129h5v17h-5z"/><path fill="#0e1c1c" d="M75.2 37.9l-34.5 2.3-.4 8.3 25.5-6.3z"/><path fill="#000724" d="M129.1 92.2l-2.2 15.9-2-.3 2.2-15.9z"/><path fill="#1d3036" d="M119 38h17v31h-17z"/><path fill="#655a52" d="M120.5 107.4l1.9 10.8-19.8-28.1 5.1 2.4z"/><ellipse cx="164" cy="99" fill="#b7bbb2" rx="2" ry="70"/><path fill="#ced4d5" d="M83.4 15.3l69 31.7 7.1-54.3-86.3 54.2z"/><path fill="#323f38" d="M58.8 97.6L70.2 72l1 .4L59.8 98z"/><path fill="#8a9291" d="M52 10h114v2H52z"/><path fill="#557a83" d="M76.5 67.6l-2.9-32.3 26.8 46.1-26.3.5z"/><path fill="#ede29a" d="M58.5 105.5l-14.3 1.1 16-14.3-4-7z"/><path fill="#ddbda3" d="M97 141.3l7.6 1.9-5.9-13.3 16 2.1z"/><path fill="#3f3329" d="M15 195l-28-20 24 3z"/><path fill="#f2ffff" d="M185 167.7l-19.4-9.5 1.2-19.9-.1-113.1z"/><path fill="#e5ded2" d="M2.1 156.2l16.8-75.5 1.1 41-36 44.7z"/><path fill="#dfc8ad" d="M95.7 128.2l-2.5 36-5-.4 2.6-36z"/><path fill="#cea69f" d="M137.4 103l-3.7-8.3-4.5-8.4 2.6 34.6z"/><path fill="#9f7557" d="M81.7 162.3l6.9 3.4-7-29.7-6.4-14.6z"/><path d="M83.5 99.7l-3.7-8.2 2.7-1.2 3.7 8.2z"/></g></g></svg>