<svg xmlns="http://www.w3.org/2000/svg" viewBox="0 0 1400 933"><defs/><filter id="a"><feGaussianBlur stdDeviation="12"/></filter><rect width="100%" height="100%" fill="#54374b"/><g filter="url(#a)"><g fill-opacity=".5" transform="translate(2.7 2.7) scale(5.46875)"><circle r="1" fill="#c0bea7" transform="matrix(-245.36559 -69.43146 37.02778 -130.8534 167.9 81.7)"/><circle r="1" fill="#291a0d" transform="matrix(-25.4006 8.29138 -23.19014 -71.0429 59.7 90.5)"/><circle r="1" fill="#000501" transform="matrix(.981 -19.3652 41.12055 2.08308 115.2 25.1)"/><circle r="1" fill="#f1ffff" transform="rotate(102.3 65.6 93) scale(20.45768 37.95192)"/><circle r="1" fill="#d2f1ff" transform="matrix(4.57546 12.25955 -46.92516 17.51322 227.4 116.7)"/><circle r="1" fill="#fffffe" transform="rotate(-125.7 77 3.9) scale(10.20222 28.49936)"/><path fill="#cefaff" d="M263.3 63.5l-47.6-15.4 9-27.6 47.6 15.4z"/><circle r="1" fill="#fadcc4" transform="matrix(-7.12817 8.61663 -76.56198 -63.33644 44 162.2)"/><path fill="#fff" d="M117.9 5.7L97.3-16l23.2 51.8 5.1-14.1z"/><path fill="#fffcbe" d="M-20 104.7L-32.7 97 26-.7 38.8 7z"/><ellipse cx="210" cy="152" fill="#005ba5" rx="24" ry="17"/><path fill="#fffffd" d="M62 154l-5-46 20 51z"/><path d="M74.2 69.6l27 28-19.4 18.8-27-28z"/><path fill="#98baec" d="M210.3 80.2l-71.5 43.2 1.7-28.9 67.3-48.9z"/><circle r="1" fill="#bfab92" transform="matrix(20.27922 -46.4173 7.1787 3.1363 66.8 54.5)"/><path fill="#cd0007" d="M176 124.3l-24.7 22.9-41.8 2.5 27.4-23z"/><ellipse cx="138" cy="83" rx="7" ry="19"/><path fill="#060000" d="M121 52L38-16l67 19z"/><circle r="1" transform="matrix(-5.70608 1.81339 -13.50962 -42.50988 47.5 110.8)"/><path d="M190 93v33l-21-15z"/><path fill="#ffefff" d="M214 168l-22 17-72-35z"/><path d="M14 22l11-36-31 45zm257-12l-31 20 12-42z"/><circle r="1" fill="#ffad75" transform="rotate(137.9 -8 56) scale(16.34803 21.75178)"/><path fill="#020000" d="M207 132.8l-20 8.4-13.7 17.6 16.1 4.8z"/><path d="M231 51h6v48h-6z"/><path fill="#1e1755" d="M65.4 18.5L12.9 79.3l24.7-65.4 41.6-8.4z"/><path fill="#fff" d="M37 64l27 8-40-1z"/><path d="M114.9 60.6l39.6-46.2-24.7-3.4L111 62.3z"/><path fill="#ffa881" d="M154.6 94.7l-17-23.5 21.8-15.9 17 23.5z"/><path fill="#a8ac9a" d="M131.6 111.4l-76.9-6.7 20.6 16.2 35.1 39.4z"/><circle r="1" fill="#ffe9ce" transform="matrix(-1.33055 -14.0757 8.29034 -.78367 125 88.7)"/><path fill="#9cc1e7" d="M158 146l73-29-1-43z"/><path d="M73 143.5h18v21H73z"/><path fill="#321400" d="M114.8 79.6l-.5 14.6 1.5 14.7-33.2-3.8z"/><circle r="1" fill="#ff6630" transform="matrix(-6.80385 -2.90209 8.0877 -18.96137 242.3 145.3)"/><path fill="#f0d9ee" d="M240 133l31-23-21-42z"/><path d="M32.4 65.4l32.1 4.9-2.6-2.8L58 49.2z"/><path fill="#4e0103" d="M210 60.7l-29.8 7 53.3-16.1-18.8 29.2z"/><path fill="#002100" d="M29 154L5 182l-21-26z"/><path fill="#fff" d="M200.1 55.1l-29.8 3.7-2.4-19.9 29.8-3.7z"/><path fill="#fffff4" d="M135.3 111l18.3-34.5 5.5 9.6 14.3-6.4z"/><path fill="#eacfc2" d="M155.1 4.2L113 10.8l16.7-15.3 32.8 33.3z"/><path d="M56 82h25v25H56zm-5-8l-33 3 22 16z"/><circle r="1" fill="#3a6aa5" transform="matrix(-2.69974 -8.28063 17.06596 -5.56403 193.8 66.4)"/><path fill="#88480a" d="M171 31l34 2-62-35z"/><path fill="#a3835b" d="M102.4-16L85.8 19.6l28.1 90.3-64.8-73.7z"/><circle r="1" fill="#f45465" transform="rotate(-14.8 650 -557.8) scale(27.63228 9.62543)"/><path fill="#ffd5d6" d="M176.6 114.5l-44.4 9.1 16.5-16.6 6.3 24.2z"/><path fill="#ffeff1" d="M49 78h6v25h-6z"/><path fill="#d8a183" d="M-16 83V3l72 154z"/><path fill="#000e16" d="M228.4 12.4l-21.1 9 14.9 14-24.3 4.8z"/><path fill="#042d39" d="M206.7 19.3l-40.3-14L195.7-16l-9.5 40.4z"/><path fill="#000002" d="M134 49.4l-43.9 6.9 61-33-26.2-7z"/><circle r="1" fill="#e0cfcc" transform="matrix(3.40396 1.28283 -14.7219 39.06412 108 61.6)"/><path d="M249.1 62.7L243.8 84l-3-.7 5.4-21.3zM46.3 135.6L42 119.5l20.3-24.7-11.7 44.9z"/><path fill="#167dbf" d="M228 185l5-63-32 27z"/><circle r="1" fill="#d0e6e4" transform="matrix(32.55066 -7.81583 .73615 3.06587 209 .6)"/><path d="M132.8 51.9l-19.6 1.7-9.1-62.1L90 34z"/><path fill="#fed2e3" d="M117.6 179.1l10.3-33.4 10.5 3.2-10.3 33.4z"/><path fill="#f8d6bf" d="M27.2 147.4l-32.7 11.9-10.5-15.4 31.9-15.1z"/><circle r="1" fill="#bddde2" transform="matrix(-71.73243 5.14052 -.16562 -2.31104 253.7 9.6)"/><path fill="#123434" d="M-4.7 100.1l37.9 43.4-8.4 1.7-14.5-33.7z"/><path d="M139.2 75.3l8.4 5.6-2.3 9-16.1 20.7z"/><path fill="#f3ceda" d="M169.7 137.5l3.5-17.5 10.2 5.7-31 59.3z"/><path fill="#f9e3e9" d="M242.1 124.2l-1-77.4 1.2 20.4-12.1 58.5z"/><circle r="1" transform="matrix(-1.74083 1.8127 -12.39971 -11.90816 142.5 169)"/><path fill="#b40000" d="M118 166l8-28-25 32z"/><path fill="#ffffa3" d="M0 0h10v15H0z"/><path fill="#8d5922" d="M98.9 153.6l-31.2-20.3 23.8-64.6-7.8 50.8z"/><path d="M92 3h5v48h-5z"/><path fill="#f95728" d="M150 61h17v21h-17z"/><path fill="#000007" d="M265.5 23l-27.3 3 29.1-42L233-1.5z"/><path fill="#000004" d="M190.6 118.4l10.1 12.1-28-20.4L185 98.8z"/><path fill="#4e0000" d="M245.7 159.9l20.2 5.7-3.6 12.5-20.2-5.7z"/><path fill="#eed6d1" d="M44.6 85.6l24.9-21.7 4 4.5-25 21.7z"/><circle r="1" fill="#f2e2de" transform="matrix(-5.62586 1.8171 -1.47672 -4.572 103 44.6)"/><circle r="1" fill="#e5c8be" transform="matrix(-3.99298 1.72792 -7.84026 -18.11776 64 133.2)"/><path fill="#bf1e2d" d="M236.5 52.8l-39.3 53.9 5.7-12.5-12.1 1.3z"/><circle r="1" fill="#c75f09" transform="matrix(2.93282 -2.39203 20.48528 25.1166 55.2 150.3)"/><path fill="#000002" d="M241 84h5v18h-5z"/><path fill="#342534" d="M17.5 69.3V33.4l14.9 28.4-47.6 40.2z"/><circle r="1" fill="#ffe1ab" transform="matrix(12.9899 -32.94728 6.1287 2.41632 24 19.3)"/><path fill="#ffddc7" d="M21 162l39 23 32-19z"/><path d="M129 78l4-14 7 19z"/><path fill="#ffddf3" d="M218.8 75.4l-14.5 30.8 16.5-23 11.2-2z"/><path fill="#cfeef3" d="M224.3 29.4l-38.9-2.8.3-4 38.9 2.8z"/><path fill="#99bbd4" d="M236.6 26.2l17.6-36.6-31.9 36.6 9.4 36.7z"/><path fill="#c85a00" d="M38.3 91.8L-16 84.6l22.4-7.2L20 81.9z"/><path fill="#a8252a" d="M124.9 135.1l33.3 30.3-6.1-48.6-29.1 24.7z"/><path fill="#74bcda" d="M138 76l7-22 26-11z"/><path fill="#faccdc" d="M195.8 119.8l5-29.1-13.4 11.6 4.8 4.5z"/><path d="M62.4 152.9l-3.5 2L41 123.6l6.1-31.4z"/><path fill="#874507" d="M85 52.2l-3.7 16.9L94 89.9l3.8-18.8z"/><path fill="#d4670e" d="M36.9 133l-6.8-43 13.5 13.6-.6 24.2z"/><path d="M15 17.9L21.4-16 2 25.5l9 .7zM106 79l6 17 7-11z"/><path fill="#eee2dd" d="M96 131h6v32h-6z"/></g></g></svg>