<svg xmlns="http://www.w3.org/2000/svg" viewBox="0 0 1400 933"><defs/><filter id="a"><feGaussianBlur stdDeviation="12"/></filter><rect width="100%" height="100%" fill="#433d3f"/><g filter="url(#a)"><g fill-opacity=".5" transform="translate(2.7 2.7) scale(5.46875)"><circle r="1" fill="#fffffe" transform="rotate(-84.3 97.4 -34.8) scale(114.51305 255)"/><path fill="#fffff1" d="M198-16l-79 83 152 106z"/><circle r="1" fill="#4d131a" transform="rotate(83.3 -.5 60.3) scale(114.7455 24.03744)"/><circle r="1" fill="#ffd2f5" transform="rotate(-172.6 7.7 35) scale(21.84627 64.00171)"/><circle r="1" fill="#13171c" transform="matrix(3.69835 7.4319 -66.34505 33.01547 76.5 137.2)"/><circle r="1" fill="#ffa692" transform="matrix(8.43665 14.47847 -118.0995 68.81698 26.2 133.1)"/><circle r="1" fill="#0d0200" transform="matrix(-3.58715 -6.18815 13.60494 -7.8865 207.2 104.4)"/><circle cx="185" cy="66" r="38" fill="#ffffe4"/><circle r="1" fill="#3bb0d9" transform="matrix(-25.45528 15.16983 -11.4631 -19.2353 62.5 169)"/><circle r="1" fill="#faf9f5" transform="rotate(-98.5 184.4 -39.8) scale(50.98551 22.02504)"/><path fill="#201b0c" d="M207 32l-2-13 49 11z"/><ellipse cx="228" cy="5" fill="#d7d7ce" rx="147" ry="20"/><ellipse cx="81" cy="64" fill="#484e44" rx="49" ry="14"/><ellipse cx="108" cy="92" fill="#ffe6cb" rx="30" ry="18"/><circle r="1" fill="#776f5c" transform="matrix(-.5784 10.37967 -69.67673 -3.88268 139.5 156.9)"/><path fill="#0f1119" d="M17.5 1.2l32.9 44.9L35.8-16 3.8 3z"/><path fill="#840a13" d="M128 121l-76 16 10-31z"/><circle cx="2" cy="80" r="32" fill="#ffd2ee"/><circle r="1" fill="#ff4655" transform="matrix(21.85213 -7.951 5.5402 15.2264 62 109.2)"/><path fill="#2c060d" d="M9 113l25-5 6-12z"/><path fill="#fbe9d3" d="M168 118l-37-98 101 55z"/><circle r="1" fill="#b39d86" transform="rotate(-108.7 100.4 -9) scale(43.1192 12.9404)"/><ellipse cx="95" cy="136" fill="#ffcebe" rx="12" ry="6"/><path fill="#0a0000" d="M175 114h10v11h-10z"/><path fill="#88614c" d="M160.3 109.2l-12-8.2-62.4 25.6 68.7-44z"/><path fill="#002842" d="M82.9 121.5l-36.4 36.2L20.9 185l-5.3-19.1z"/><path fill="#da6c64" d="M3.9-16l10.3 74.1L.9 47.8-14 67.7z"/><ellipse cx="63" cy="17" fill="#5c6c7a" rx="20" ry="42"/><circle r="1" fill="#c3b79f" transform="rotate(-146.5 135.1 43) scale(51.21912 19.9432)"/><circle r="1" fill="#d7b19a" transform="rotate(40.7 -177 94.8) scale(21.85329 31.86605)"/><path fill="#3d372c" d="M219.3 103.4l-32.5 7.3L226 88.4l-1.6 13.4z"/><circle r="1" fill="#b6b6ae" transform="rotate(47.7 49.7 305.3) scale(41.98762 15.22638)"/><ellipse cx="100" cy="167" fill="#5fcaf8" rx="63" ry="4"/><path fill="#b8b9b6" d="M83 0h75v47H83z"/><path fill="#766d66" d="M84 140h62v23H84z"/><path fill="#444445" d="M36 15h24v85H36z"/><path fill="#f2caba" d="M-16 126l84-18-43 33z"/><path fill="#1f1b0f" d="M271 32.2l-21.1 2.4-44.3-9 65.4 2.6z"/><path fill="#ffc5ae" d="M95 138l29-1 33-34z"/><path fill="#fffbe8" d="M210 37l-31 20-17-26 31-20z"/><path fill="#100000" d="M107 126l32-24-7 14z"/><ellipse cx="255" cy="116" fill="#f4efec" rx="54" ry="15"/><circle r="1" fill="#ffacbe" transform="matrix(32.28261 116.48588 -6.1288 1.69852 11.5 4.3)"/><path fill="#9c9185" d="M236 157l-181-5 87-25z"/><path fill="#d7c3af" d="M118 61h60v25h-60z"/><path fill="#ece8d8" d="M196.2 170.2l37.5-13.7 4.1 11.3-37.5 13.7z"/><path fill="#1aa2db" d="M56 148l-37 37h63z"/><ellipse cx="163" cy="135" fill="#b8bcb6" rx="15" ry="24"/><path fill="#5b0000" d="M9 44l-14 1 8-5z"/><path fill="#f7d8cb" d="M77 85h60v15H77z"/><path fill="#392629" d="M49.4 28.8L-3.1-11.4 7.1 8.2 13.2-16z"/><path fill="#70351c" d="M141.2 77l1.2 2.8-17.6 7.1-1.2-2.7z"/><ellipse cx="130" fill="#a4a7a4" rx="17" ry="72"/><path fill="#a8766d" d="M50.6 131.8l.3 10.4-25 16.5-41.9 12.4z"/><path fill="#f7f2e7" d="M171.5 117.1l54.1-34-64.8 15.3 6.7 29.5z"/><path fill="#60554e" d="M106.2 160l52.3 6.4-54.6-36.2 28.8 27.7z"/><path fill="#ffc8ee" d="M28 14L13 48 9 5z"/><circle r="1" fill="#b4b4ae" transform="matrix(4.13834 -14.82312 25.97108 7.25064 238 47.2)"/><path fill="#dca48b" d="M144 104l-57 12 4-15z"/><circle r="1" fill="#383f3b" transform="matrix(2.0858 6.61529 -24.18694 7.62611 86.9 126.5)"/><path fill="#a49182" d="M66 158l-11-14 54 1z"/><path fill="#c66b51" d="M52.5 135.5l6.7-14.5-23.5-10.9-2-51.2z"/><path fill="#cd1522" d="M61 132.1l-6-7.9L81 104l6 7.9z"/><circle r="1" fill="#948c9c" transform="matrix(1.86144 52.10858 -2.07097 .07398 60.4 13.2)"/><circle r="1" fill="#232329" transform="matrix(-2.97413 -33.99443 2.47598 -.21662 37.2 40.3)"/><ellipse cx="227" cy="3" fill="#cfcfcb" rx="36" ry="22"/><path fill="#750000" d="M18.5 37.2l-.5-.9 9.5-5.5.5.9z"/><path fill="#a6a5a2" d="M207 30l28 60-7-57z"/><path fill="#50524a" d="M50 99.7L35.5 70 84 46.3 98.5 76z"/><path fill="#948361" d="M194 147l38 4-86 34z"/><path fill="#ffc9e1" d="M0 49h33v51H0z"/><path fill="#7f5f50" d="M146.3 119.5l-1.7 18.3-20-.4 24.9-16.5z"/><path fill="#3d2914" d="M158.6 110.3l-3-11.6 3.8-1 3 11.6z"/><path fill="#532c18" d="M138 116l1-10-15-8z"/><path fill="#ffdbd9" d="M106.7 144.2L92 135.9l3.4-6L110 138z"/><path fill="#f0dcc4" d="M192.1 6.4l-6.9 22.1-34.5 22.7-19.2-6.6z"/><path fill="#b0b0ac" d="M196-17l9 14.4L132 43l-9-14.4z"/><path fill="#cfc2b6" d="M207 133l-48-1 84-25z"/><path fill="#ffddf9" d="M-8.4 30.5l-4.9-14.4L7.6 36.5-16 54.8z"/><path fill="#c0c1c3" d="M82 0h29v38H82z"/><path fill="#e9444e" d="M83.5 97.8l-42.8 9.5 9.4-7.7 24.3-12.9z"/><path fill="#534b3f" d="M221 95l3-9-13 9z"/><path fill="#bf848e" d="M24 102l-5 16-30 5z"/><path fill="#fffaed" d="M191 54l-2-55 43 90z"/><path fill="#010502" d="M51.4 144.3l.2-7 19 .4-.2 7z"/><circle r="1" fill="#fbd7c8" transform="matrix(-30.7488 5.19185 -.63172 -3.74138 132 76.4)"/><ellipse cx="198" cy="136" fill="#7f7157" rx="11" ry="4"/><path fill="#e5c4a7" d="M125 122l17 5 10-26z"/><path fill="#827268" d="M83 53h37v21H83z"/><circle cx="206" cy="25" r="3" fill="#211204"/><circle r="1" fill="#969189" transform="matrix(-32.76206 -1.67944 .10332 -2.0155 142.4 15)"/><path fill="#eceef1" d="M240.5 88l33 2.2-4 55.9-33-2.3z"/><path fill="#185b88" d="M40.8 147.7l24.6 11.9-14.1-15.3 10.6-3.9z"/><path d="M8 185l30-30-37 20z"/><path fill="#3b362b" d="M194 115v-10l23-8z"/><circle r="1" fill="#776f78" transform="matrix(-4.21974 -.23592 2.4991 -44.69954 78.2 8.4)"/><path fill="#5e4e45" d="M157 94.6l-23.6 13.1-2.4-4.3 23.6-13.1z"/><path fill="#41505f" d="M20 107.4l-10.2 9.9 18.6-7.2 19.2-10.4z"/><path fill="#807369" d="M239 153h7v7h-7z"/><path fill="#9a9a98" d="M164.4 127l17 27.1-23.8 14.9-17-27.1z"/></g></g></svg>