<svg xmlns="http://www.w3.org/2000/svg" viewBox="0 0 1400 1120"><defs/><filter id="prefix__a"><feGaussianBlur stdDeviation="12"/></filter><rect width="100%" height="100%" fill="#726043"/><g filter="url(#prefix__a)"><g transform="translate(2.7 2.7) scale(5.46875)"><circle cx="167" cy="104" r="197" fill="#fff" fill-opacity=".5"/><circle cx="183" cy="78" r="226" fill="#fff" fill-opacity=".5"/><path fill="#90762e" fill-opacity=".5" d="M124.5 90.5l-25.2-4.2 61.9-1.5-39.1 19.5z"/><circle r="1" fill="#eaedef" fill-opacity=".5" transform="matrix(84.55783 1.73331 -4.0768 198.88272 233 91.2)"/><ellipse cx="67" cy="129" fill="#b1a89f" fill-opacity=".5" rx="10" ry="56"/><circle r="1" fill="#b2ada6" fill-opacity=".5" transform="matrix(39.99926 1.2034 -.2342 7.78437 37.7 168)"/><path fill="#b49742" fill-opacity=".5" d="M132 73l-13 15 23 16z"/><path fill="#92938d" fill-opacity=".5" d="M70 176h107v3H70z"/><circle r="1" fill="#ecedea" fill-opacity=".5" transform="rotate(-177.1 77.8 99.6) scale(125.94895 21.32337)"/><path fill="#6c6c69" fill-opacity=".5" d="M108 88h44v3h-44z"/><circle r="1" fill="#e3dfe0" fill-opacity=".5" transform="rotate(-141.7 71.6 -13) scale(41.29455 78.18949)"/><path fill="#d9dad9" fill-opacity=".5" d="M74 105h138v73H74z"/><ellipse cx="130" cy="120" fill="#6d6e78" fill-opacity=".5" rx="18" ry="2"/><ellipse cx="68" cy="68" fill="#c3b8ae" fill-opacity=".5" rx="5" ry="44"/><path fill="#a2a5b2" fill-opacity=".5" d="M117 56h27v6h-27z"/><path fill="#a49b91" fill-opacity=".5" d="M74.2 175.7l-1.7-73.2-5.1 62.5-16.3 3z"/><path fill="#d4cdc8" fill-opacity=".5" d="M68 55L20 166l42-8z"/><path fill="#d9d9d0" fill-opacity=".5" d="M167 183l26-122 8 125z"/><circle r="1" fill="#ebe9df" fill-opacity=".5" transform="matrix(44.11753 -1.38645 .35248 11.21602 141.8 160.5)"/><circle r="1" fill="#e0d8da" fill-opacity=".5" transform="matrix(31.50444 4.5031 -17.16078 120.05954 29 26.2)"/><ellipse cx="131" cy="88" fill="#716f69" fill-opacity=".5" rx="27" ry="2"/><ellipse cx="249" cy="167" fill="#b6b7b3" fill-opacity=".5" rx="55" ry="2"/><ellipse cx="116" cy="177" fill="#adaca3" fill-opacity=".5" rx="49" ry="3"/><path fill="#ceb46b" fill-opacity=".5" d="M137.1 96.8l-5.5-26.3-8.9 23.5-3.2 11.9z"/><path fill="#b4b6be" fill-opacity=".5" d="M113 130h37v6h-37z"/><path fill="#dddbe4" fill-opacity=".5" d="M185 82l-46 9 15 34z"/><ellipse cx="232" cy="24" fill="#ebe8e6" fill-opacity=".5" rx="37" ry="81"/><ellipse cx="26" cy="192" fill="#dcdad3" fill-opacity=".5" rx="52" ry="23"/><path fill="#d7d8e0" fill-opacity=".5" d="M74.4 81l59.7 5.4-26.5-39.3 10.9 117.3z"/><ellipse cx="127" cy="25" fill="#c5c1b8" fill-opacity=".5" rx="63" ry="2"/><ellipse cx="191" cy="88" fill="#d0d1cd" fill-opacity=".5" rx="5" ry="73"/><ellipse cx="82" cy="87" fill="#e7e2d3" fill-opacity=".5" rx="10" ry="62"/><path fill="#efeadd" fill-opacity=".5" d="M105.3 44.3l.4-18 75 1.4-.4 18z"/><ellipse cx="177" cy="126" fill="#ecebe0" fill-opacity=".5" rx="9" ry="56"/><ellipse cx="121" fill="#e8e0df" fill-opacity=".5" rx="87" ry="20"/><path fill="#969896" fill-opacity=".5" d="M172 182h19v2h-19z"/><path fill="#dbdcea" fill-opacity=".5" d="M173.8 61l-13.5 29-28.1-13 13.5-29z"/><path fill="#a9acb1" fill-opacity=".5" d="M125 145h12v6h-12z"/><path fill="#c3a34a" fill-opacity=".5" d="M145.5 87l-15.1 5.1-11.8 12.5 5.4-.6z"/><ellipse cx="9" cy="168" fill="#a7a197" fill-opacity=".5" rx="66" ry="2"/><circle r="1" fill="#edefea" fill-opacity=".5" transform="rotate(-100.2 198.7 -2.5) scale(18.93843 34.68148)"/><path fill="#d9dae3" fill-opacity=".5" d="M95 139h75v9H95z"/><ellipse cx="14" cy="148" fill="#d3cfce" fill-opacity=".5" rx="45" ry="18"/><path fill="#beb7ae" fill-opacity=".5" d="M43.9 160.4l29.9-11.9-19.8 30 30.2-.6z"/><ellipse cx="132" cy="106" fill="#949699" fill-opacity=".5" rx="5" ry="2"/><ellipse cx="118" cy="178" fill="#7e7d76" fill-opacity=".5" rx="44" ry="1"/><circle cx="135" cy="96" r="4" fill="#bf9837" fill-opacity=".5"/><path fill="#d4d7df" fill-opacity=".5" d="M94 122l27-78-27 5z"/><path fill="#7d6f4c" fill-opacity=".5" d="M114 85h6v5h-6z"/><ellipse cx="135" cy="203" fill="#e7e6e3" fill-opacity=".5" rx="60" ry="25"/><ellipse cx="69" cy="88" fill="#c1b9af" fill-opacity=".5" rx="3" ry="60"/><path fill="#d2d1c8" fill-opacity=".5" d="M100 174h68v3h-68z"/><path fill="#edeadf" fill-opacity=".5" d="M169.8 73.2l15.8 58.2 1.8-105-12.2-.5z"/><path fill="#d8d8df" fill-opacity=".5" d="M137.7 126.3l-22-15 67.4-17.8-101.6 50.1z"/><path fill="#be9c49" fill-opacity=".5" d="M135.4 93l6.9 11-1.7 1-6.9-11z"/><path fill="#a5a8b7" fill-opacity=".5" d="M109 94h14v2h-14z"/><path fill="#d4d4e0" fill-opacity=".5" d="M142 90h18v14h-18z"/><ellipse cx="128" cy="79" fill="#d2cebe" fill-opacity=".5" rx="2" ry="12"/><ellipse cx="133" cy="87" fill="#666256" fill-opacity=".5" rx="21" ry="1"/><path fill="#d1cbc2" fill-opacity=".5" d="M70 72.5l-13.4 91.9-48.4 3.9 28.2-.3z"/><ellipse cx="192" cy="154" fill="#cfd0cd" fill-opacity=".5" rx="5" ry="28"/><path fill="#afafb8" fill-opacity=".5" d="M117 55h28v3h-28z"/><circle r="1" fill="#9797a4" fill-opacity=".5" transform="rotate(70.3 -8.9 121.6) scale(2.56538 1.87239)"/><path fill="#d9dbd9" fill-opacity=".5" d="M202 158h54v9h-54z"/><path fill="#e0e1dd" fill-opacity=".5" d="M134 132l70-22 11 19z"/><path fill="#767574" fill-opacity=".5" d="M134 148l-7-1-1 2z"/><ellipse cx="188" cy="53" fill="#c4c1b4" fill-opacity=".5" rx="1" ry="30"/><path fill="#ceb55b" fill-opacity=".5" d="M128 80h4v4h-4z"/><path fill="#9b9388" fill-opacity=".5" d="M68 164h6v12h-6z"/><ellipse cx="114" cy="95" fill="#d3d6e3" fill-opacity=".5" rx="1" ry="10"/><ellipse cx="174" cy="160" fill="#e4e5e0" fill-opacity=".5" rx="14" ry="20"/><ellipse cx="21" cy="176" fill="#d3cdc5" fill-opacity=".5" rx="48" ry="5"/><path fill="#e3ddd0" fill-opacity=".5" d="M75.7 172.4l18.4-91.6-.6 73.5 45.5 18.6z"/><path fill="#d6d7e3" fill-opacity=".5" d="M106 95h15v21h-15z"/><path fill="#e5e4e1" fill-opacity=".5" d="M197 170l56-63-51-92z"/><ellipse cx="127" cy="22" fill="#dad6d5" fill-opacity=".5" rx="64" ry="3"/><ellipse cx="57" cy="80" fill="#dbd3ca" fill-opacity=".5" rx="7" ry="44"/><path fill="#d8d8dd" fill-opacity=".5" d="M94 137h61v11H94z"/><ellipse cx="76" cy="149" fill="#cdccc5" fill-opacity=".5" rx="2" ry="29"/><circle cx="127" cy="95" r="4" fill="#d0a83c" fill-opacity=".5"/><path fill="#c6c7c5" fill-opacity=".5" d="M171 179h21v4h-21z"/><path fill="#e8e2d7" fill-opacity=".5" d="M96.4 27.5l-20.9.5L83 47l79.1-.4z"/><ellipse cx="68" cy="194" fill="#e3e1dc" fill-opacity=".5" rx="10" ry="17"/><path fill="#bcbcb7" fill-opacity=".5" d="M74 161h3v19h-3z"/><ellipse cx="51" cy="13" fill="#dfd9d7" fill-opacity=".5" rx="44" ry="14"/><circle cx="131" cy="100" r="2" fill="#d8dde3" fill-opacity=".5"/><ellipse cx="129" cy="84" fill="#cabfa8" fill-opacity=".5" rx="20" ry="1"/><path fill="#e7e7ea" fill-opacity=".5" d="M159 57.9v1l-42-.8v-1z"/><ellipse cx="93" cy="24" fill="#cec8c2" fill-opacity=".5" rx="26" ry="3"/><path fill="#dddde2" fill-opacity=".5" d="M155 78h16v56h-16z"/><path fill="#d8d8de" fill-opacity=".5" d="M97.9 52.6l31.4 36.9-3.8-27.7 34.1 27.4z"/><ellipse cx="133" cy="130" fill="#949496" fill-opacity=".5" rx="7" ry="1"/><path fill="none" stroke="#dcdad5" stroke-opacity=".5" stroke-width=".5" d="M104.2 39.8q34 .4 39.9 54.7"/><path fill="none" stroke="#cdc6b2" stroke-opacity=".5" stroke-width=".5" d="M133.3 125.4q-2.5-18.4-.4-42"/><path fill="#e5e4e1" fill-opacity=".5" d="M196 75l29-91-36 27z"/><ellipse cx="135" cy="133" fill="#b4b3b6" fill-opacity=".5" rx="17" ry="1"/><circle r="1" fill="#e1e1da" fill-opacity=".5" transform="matrix(-13.70881 -7.6009 6.34846 -11.44992 14.4 203)"/><ellipse cx="120" cy="112" fill="#d9d8e1" fill-opacity=".5" rx="29" ry="6"/><path fill="#b2b1b9" fill-opacity=".5" d="M143 94h11v2h-11z"/><path fill="#747483" fill-opacity=".5" d="M154 89l-7-3 7 1z"/></g></g></svg>