<svg xmlns="http://www.w3.org/2000/svg" viewBox="0 0 1050 1400"><defs/><filter id="a"><feGaussianBlur stdDeviation="12"/></filter><rect width="100%" height="100%" fill="#2f2a27"/><g filter="url(#a)"><g fill-opacity=".5" transform="translate(2.7 2.7) scale(5.46875)"><circle cx="115" cy="86" r="205" fill="#fff"/><circle cx="74" cy="155" r="196" fill="#fff"/><circle r="1" fill="#f5f0e9" transform="matrix(153.08369 23.97227 -27.12798 173.23568 96.5 133.2)"/><ellipse cx="97" cy="119" fill="#9b8543" rx="17" ry="9"/><path fill="#beb5a9" d="M26 77h26v119H26z"/><ellipse cx="140" cy="236" fill="#f0f3f0" rx="100" ry="37"/><circle r="1" fill="#bcb8ad" transform="matrix(73.79195 9.175 -.99414 7.99556 34.6 185.6)"/><circle r="1" fill="#eae9e7" transform="rotate(-110.1 94 -31) scale(140.01706 52.25408)"/><circle r="1" fill="#cbccd2" transform="rotate(142 18.1 87.7) scale(23.13092 31.11865)"/><path fill="#a39367" d="M84.9 126.9l41.9-12.8-56.8-.4 38.2 9.9z"/><ellipse cx="10" cy="91" fill="#ddd4d1" rx="31" ry="92"/><path fill="#b1a79e" d="M30 190l17-67 2 67z"/><path fill="#dfe2e0" d="M106 119l27 88 27-100z"/><path fill="#d2ae51" d="M90 119h17v11H90z"/><path fill="#68696c" d="M83 143h31v2H83z"/><path fill="#8e8e88" d="M44 194h86v2H44z"/><path fill="#c0a658" d="M88 132l11-31 4 12z"/><path fill="#e2ded6" d="M50.9 190.2l-2.3-87.7 54.5 87.9-10.7 2z"/><path fill="#c9cbd4" d="M93.9 96.6l30.9-7.7-60.5-7.1 34.4 37.6z"/><path fill="#c0b7ab" d="M39.9 60.1h7.2l-.2.8 2.2 128.2z"/><ellipse cx="151" cy="134" fill="#cdd0ca" rx="5" ry="71"/><ellipse cx="181" cy="238" fill="#f0f2ee" rx="25" ry="51"/><ellipse cx="90" cy="220" fill="#e5e4df" rx="69" ry="25"/><path fill="#989188" d="M0 185h49v2H0z"/><ellipse cx="99" cy="61" fill="#b3afa1" rx="50" ry="1"/><path fill="#d7d8e0" d="M69 111l22 11-24 68z"/><circle r="1" fill="#d1cdc6" transform="rotate(38.8 -245.5 109.4) scale(20.05639 42.62452)"/><circle r="1" fill="#b3b3b7" transform="matrix(13.71181 -.70411 .13858 2.69876 98.5 90)"/><path fill="#d4d7e0" d="M98.2 125.5l14 11.3-6.4 7.7-14-11.3z"/><path fill="#73726a" d="M78 114h41v4H78z"/><path fill="#e7e2d5" d="M48 66h18v67H48z"/><circle r="1" fill="#e9e7e6" transform="matrix(-3.42347 -83.1856 28.7976 -1.18515 179.4 60.8)"/><path fill="#dddee6" d="M113 78h21v37h-21z"/><path fill="#babbbe" d="M83 152h31v6H83z"/><ellipse cx="92" cy="112" fill="#d5cebd" rx="23" ry="3"/><path fill="#8b8d8b" d="M102 168l-8 3v-4z"/><path fill="#d8d7e7" d="M108 118h21v15h-21z"/><path fill="#dfd8d3" d="M30 148l13-96-59 72z"/><path fill="#eee7da" d="M66 63h72v16H66z"/><ellipse cx="82" cy="60" fill="#d3cec7" rx="68" ry="3"/><path fill="#9ca19d" d="M136 198h15v2h-15z"/><path fill="#e8e8de" d="M148 158l-77 28 74 6z"/><path fill="#9d958a" d="M41.6 186.6l5.6-10.9 1.8 4.2-.2 14.8z"/><path fill="#b0b4b1" d="M161 185h27v2h-27z"/><circle r="1" fill="#e4e4df" transform="rotate(143.1 -14.6 125.6) scale(60.61446 19.70386)"/><circle cx="97" cy="131" r="2" fill="#828079"/><path fill="#caccda" d="M77 118h15v4H77z"/><path fill="#c6a54c" d="M100.6 117l8.9 13-17.9-11.4.6 11.6z"/><path fill="#d6d9df" d="M66 81h17v34H66z"/><circle r="1" fill="#e5dddc" transform="matrix(38.38742 14.60246 -11.2468 29.56593 85.4 25.8)"/><ellipse cx="99" cy="192" fill="#c5c5bd" rx="35" ry="2"/><path fill="#ddd9d0" d="M52 144h25v48H52z"/><ellipse cx="139" cy="117" fill="#edebde" rx="7" ry="55"/><circle r="1" fill="#b4afa6" transform="matrix(-30.48027 .3724 -.02726 -2.23088 9.5 185.7)"/><circle r="1" fill="#eeefeb" transform="matrix(2.97739 22.14551 -63.63435 8.55543 159 251.4)"/><path fill="#d6d3c9" d="M21.2 203.9l31.7-7.3-20.6-7.4-36.1.4z"/><path fill="#e3e0d8" d="M64.1 190.2l60.3 1.8-16-16.4L86 167z"/><path fill="#dadbe1" d="M125 98l12 67-30 5z"/><path fill="#cccfcc" d="M145.3 226.3l.4-9 9 .4-.4 9z"/><path fill="#97864a" d="M111 113l-14 1 10 3z"/><path fill="#d3d6dc" d="M66 131l27 42-28 2z"/><path fill="#dfd9d6" d="M-7-16l30 147L63-16z"/><path fill="#c0aa6d" d="M83 113h29v2H83z"/><path fill="#d8dce6" d="M106 130l-6-5-7 4z"/><path fill="#e6e8e4" d="M189.6 186.8l-27.3 2.1-2.8 27.6 47.5-11.7z"/><ellipse cx="95" cy="194" fill="#93918b" rx="34" ry="1"/><path fill="#d5c8a2" d="M95 105h3v14h-3z"/><path fill="#dbdadd" d="M91.2 121.9l-31.6 3.5 27.6 9.4 3.9-8.4z"/><path fill="#d9dae0" d="M94.4 95.4l.2 17-17 .2-.2-17z"/><circle r="1" fill="#e0dfd7" transform="matrix(6.2372 -18.42703 36.31411 12.29165 15.7 218.4)"/><path fill="#e1e2e0" d="M207 176l-47 7-7-84z"/><path fill="#dedfe5" d="M136 106l-24-21-9 27z"/><path fill="#d7d6d4" d="M38.6 57.8l108.7 4.7 5.2 63.3 2.3-69.5z"/><circle r="1" fill="#8b7132" transform="matrix(-2.52223 -2.08893 .63785 -.77016 91.3 117)"/><path fill="#d4d3d5" d="M117 114l-37.4 57-1-19.5 19.3-.9z"/><path fill="#b3b8b4" d="M158 200l-3-4h3z"/><circle cx="99" cy="110" r="3" fill="#d0b768"/><circle r="1" fill="#dcdcde" transform="matrix(-17.07558 -18.89792 3.81718 -3.44908 123.1 137.9)"/><path fill="#b0afb7" d="M84 87h26v2H84z"/><circle cx="100" cy="131" r="1" fill="#5c5d55"/><path fill="#b8974a" d="M104.5 127.3l.7-.7 4.3 4.1-.7.7z"/><path fill="#dddcde" d="M90 89h20v2H90z"/><ellipse cx="46" cy="161" fill="#b6aea4" rx="3" ry="21"/><path fill="#adabb0" d="M86 91h27v2H86z"/><ellipse cx="101" cy="163" fill="#dbdce0" rx="27" ry="5"/><ellipse cx="148" cy="88" fill="#ccc9bc" rx="1" ry="30"/><path fill="#d7d8da" d="M73.4 92.8l35-13L61 81.2l25.9 39.2z"/><path fill="#cfc6be" d="M46.3 74.8l8.6-17.2-16.5 2.8 3.8 104.3z"/><path fill="#dfdfda" d="M165 141l6 22-63-34z"/><ellipse cx="104" cy="156" fill="#bebec0" rx="15" ry="2"/><circle r="1" fill="#917f4e" transform="rotate(69.7 -28.3 136) scale(1 6.15445)"/><ellipse cx="97" cy="144" fill="#a0a0a3" rx="12" ry="2"/><path fill="#e3ded5" d="M46.7 91l22.2 90.7-7.3-113.4L48.8 65z"/><ellipse cx="105" cy="195" fill="#c8c8c1" rx="28" ry="1"/><circle r="1" fill="#d9d4d2" transform="matrix(-16.08538 22.46783 -15.00121 -10.73981 9 156.4)"/><path fill="#d6d7db" d="M97 143.2l14.6 7.1-1.8 24.7 16.2-3.6z"/><path fill="#dcdce0" d="M71 132h63v10H71z"/><path fill="#d0cfc9" d="M147 116l1 24 8-4z"/><path fill="#c4bcb2" d="M48.7 102.5v33.9l-5.6 34.3-1.9-58.6z"/><path fill="#c7c9c6" d="M169 184h23v3h-23z"/></g></g></svg>