<svg xmlns="http://www.w3.org/2000/svg" viewBox="0 0 1400 933"><defs/><filter id="a"><feGaussianBlur stdDeviation="12"/></filter><rect width="100%" height="100%" fill="#614339"/><g filter="url(#a)"><g fill-opacity=".5" transform="translate(2.7 2.7) scale(5.46875)"><circle cx="91" cy="136" r="227" fill="#fff"/><circle r="1" fill="#fff" transform="matrix(-7.83616 43.11958 -211.65637 -38.46448 123.5 149.7)"/><circle r="1" fill="#431d07" transform="matrix(-19.20685 -78.23953 24.2032 -5.94159 144 26.6)"/><circle r="1" fill="#e8f9f2" transform="matrix(-59.5069 -2.18202 .99398 -27.10731 228.3 90.2)"/><path fill="#602509" d="M64 34h20v94H64z"/><path fill="#f2fffa" d="M64.2 171.2l-85.9 4.5-6.5-124.9 85.9-4.5z"/><circle r="1" fill="#fcffff" transform="rotate(85.4 10.3 191.3) scale(28.50768 220.29129)"/><path fill="#986d59" d="M73 99l55 44-57 1z"/><ellipse cx="109" cy="72" fill="#d6dfce" rx="29" ry="43"/><circle cx="74" r="35" fill="#cddde7"/><path fill="#694438" d="M170.8 72.9l-37.6 15.4-12.7-92.9L177 42.3z"/><path fill="#afc4c9" d="M153.8 32.5L188.3-16l-4.9 56.4-20.5.3z"/><path fill="#31301c" d="M183 9h69v4h-69z"/><circle r="1" fill="#1d2210" transform="matrix(.31958 3.21293 -37.4753 3.72759 12.6 30.1)"/><path fill="#8c6242" d="M152 114l48 10-48-44z"/><circle r="1" fill="#b8bd9e" transform="matrix(-56.40621 36.84548 -15.52434 -23.76599 227.8 46.6)"/><path fill="#3b1f17" d="M181-16l-58 52 45-22z"/><circle r="1" fill="#f0f9f7" transform="rotate(25 -195.4 334.3) scale(34.03547 19.17599)"/><path fill="#6b3d2b" d="M53 35l33 3-22 38z"/><path fill="#fdffff" d="M179 91h77v14h-77z"/><path fill="#5f6759" d="M187.9 127l1.5 6.9-33.3 7-1.5-6.8z"/><path fill="#b2b19e" d="M-16 107l6-30 59 18z"/><path fill="#f0f4f0" d="M55.3 91.3l21.5 49.1 88.1 44.6H57.4z"/><path fill="#996d5a" d="M87.9 110L59.3 24.2l6.1 87.1 43.5 18.6z"/><path fill="#9cadba" d="M129.7-16h11.4l-1.6 41.7 18.1-33.9z"/><path fill="#dbe8de" d="M64.3 17l-71.5 9-1-9 71.4-8.8z"/><path fill="#2a270f" d="M184 14.2l27.7-3.4.4 3-27.8 3.4z"/><circle r="1" fill="#542e20" transform="matrix(11.50568 -4.9408 13.86188 32.28026 124.2 2.7)"/><path fill="#18353e" d="M18 6h18v6H18z"/><path fill="#dae4db" d="M2.9 12.3L-16 5.6 52.4-16 13.2 15.4z"/><path fill="#ac8679" d="M133.5 71V55h25v16z"/><circle r="1" fill="#bcbaae" transform="matrix(54.68956 -7.685 2.56253 18.23599 232.5 63.7)"/><path fill="#52483d" d="M207 7h49v5h-49z"/><path fill="#a6a69c" d="M80-3l56 48-49 5z"/><path fill="#e6edea" d="M82.9 56.7l.3-9 44 1.6-.4 9z"/><path fill="#442720" d="M76 36h5v56h-5z"/><path fill="#bbaf7b" d="M162 134l-29-49 18 3z"/><circle r="1" fill="#c6ccc2" transform="matrix(37.32403 6.94627 -3.67115 19.72597 22 57)"/><path fill="#d4dde5" d="M271 122.2l-12.7-41.5-25.8.2 2.2 40.2z"/><circle r="1" fill="#dce0e5" transform="matrix(10.2573 .7259 -1.59936 22.59993 61.2 10.2)"/><circle r="1" fill="#e3e9e5" transform="matrix(14.5802 6.79886 -11.25331 24.1328 137.9 134.8)"/><path fill="#b7a692" d="M129.4 48.7l-54.6 6.7 24.3-7.1L158 34.6z"/><path fill="#ad9085" d="M96 147l24-1-56-53z"/><path fill="#302116" d="M182 122h2v13h-2z"/><path fill="#5c4d45" d="M164.4 38.6l21.8-2.8-88.3-5.6 33-7.5z"/><path fill="#6c5a46" d="M36.1 20.4l14.6 1.8.5 10.5 24.4 12.4z"/><circle r="1" fill="#b1b7b9" transform="matrix(-17.44113 21.77008 -4.82885 -3.86864 173.6 20)"/><path fill="#5f4337" d="M179.4 40l-37 2.1 18.3 17.2-.6 53.5z"/><path fill="#b5b0a1" d="M169 88l5-32 72 21z"/><path fill="#f7f8fc" d="M175.8 98.4l62.1 6.9-55.1-15.1 56.4-10z"/><path fill="#c6d4c7" d="M181 0h75v5h-75z"/><circle cx="22" cy="149" r="48" fill="#eff0ef"/><path fill="#51332b" d="M153.5 32.7l-13-7.5 30-52 13 7.6z"/><path fill="#aa7961" d="M67.2 132.8l2-67.9 9.4 27 1.5 48.6z"/><path fill="#a09e91" d="M27 59h27v7H27z"/><path fill="#b9bcaf" d="M82 57h44v38H82z"/><circle r="1" fill="#ccd3de" transform="rotate(-140.4 54.4 -12.3) scale(5.77736 12.12096)"/><path fill="#5f656c" d="M64 29h37v2H64z"/><path fill="#8a7050" d="M175.8 104.5l29 13.5-2.6 5.5-29-13.5z"/><path fill="#bbbdaf" d="M1 100l61-4 1-18z"/><path fill="#adb6c0" d="M208 89h35v6h-35z"/><path fill="#fff" d="M99 120l-13-16 20-6z"/><path fill="#ebd7ce" d="M47.1 6l-9.6-16.7 8.2 22.9L-6.8-16z"/><circle cx="74" cy="106" r="12" fill="#987260"/><path fill="#2f2325" d="M156.2 124.1l1-.3 4.6 12-1 .4z"/><circle r="1" fill="#222c33" transform="matrix(.48485 -.8746 6.32132 3.50437 31.4 6.9)"/><path fill="#a9a47e" d="M256 38l-62-25 77 6z"/><path fill="#c7cfc8" d="M146 96l-17 9-5-21z"/><circle r="1" fill="#edf3f0" transform="matrix(41.88921 8.90383 -5.68694 26.75495 234.4 158.6)"/><path fill="#846554" d="M98 126.1l22.2 9.8-15.2-10.6-21.3-15.1z"/><ellipse cy="57" fill="#f3f8fc" rx="23" ry="4"/><circle r="1" fill="#c6c8b7" transform="matrix(.10733 14.9908 -22.27043 .15945 245.5 52)"/><path fill="#acab82" d="M183 16h26v39h-26z"/><path fill="#8c6c5c" d="M183.2 108.9l-39.9-2.7 11.8-20.5 26.8 24z"/><path fill="#5d3d32" d="M82.2 32.7l1.2 19.9-8.3 35.5-3.7-34.7z"/><path fill="#c4a923" d="M163.7 75l11.4 17.5-.8.6-11.4-17.6z"/><path fill="#c3c8c2" d="M157 38h29v3h-29z"/><path fill="#fefefd" d="M27 113l-43-6 83-11z"/><circle r="1" fill="#d0d6ca" transform="rotate(109.3 35.9 136.9) scale(4.13708 33.86199)"/><path fill="#8f5a44" d="M128.1 44.9l1.6 16.2 7.3 31.5 12.4-33.5z"/><path fill="#adb2b3" d="M155 55l-13 12 17-8z"/><path fill="#fa575f" d="M45 2l33-18-94 2z"/><path fill="#444849" d="M151 35h25v3h-25z"/><circle r="1" fill="#c4c5bb" transform="matrix(-.23305 12.24892 -15.30136 -.29113 95.8 86.2)"/><path fill="#f5f7f5" d="M156.2 146.6l-47.9-10.5 59.1 29.6 31.2-2.8z"/><path fill="#9c9fa6" d="M96.7-.7l-12 32.9-9.4-3.5 12-32.9z"/><circle r="1" fill="#53483f" transform="matrix(21.50478 3.32448 -.19971 1.29185 245.6 11.6)"/><path fill="#dfe9e8" d="M161 121h13v12h-13z"/><path fill="#b3b19f" d="M103 58.4l24.4-5.2 5.6 26.4-24.4 5.2z"/><path fill="#adb3a8" d="M271 135l-79-13 24-16z"/><path fill="#e6e9e5" d="M16.5 167.8l70.6-11.4.4-4.6L58 119.4z"/><path fill="#c0aaa4" d="M89 118l-14-10 16 36z"/><path fill="#c9ccd2" d="M109-6l5 17-27 18z"/><path fill="#e4efe6" d="M223 12h13v3h-13z"/><path fill="#afb89b" d="M27 32l27-2 1 16-27 2z"/><path fill="#9d9e8d" d="M53 23l-4-11-17 10z"/><path fill="#4d4a40" d="M22 24h28v5H22z"/><path fill="#d2bf47" d="M169 79l16.9 41.7-1 .3-16.8-41.7z"/><path fill="#5b443d" d="M177.9 110.2l-9.4-5.8 1.1-19.4-25.3-15.5z"/><path fill="#f3f5f7" d="M229 97l-41 13-14-19z"/></g></g></svg>