<svg xmlns="http://www.w3.org/2000/svg" viewBox="0 0 934 1400"><defs/><filter id="a"><feGaussianBlur stdDeviation="12"/></filter><rect width="100%" height="100%" fill="#413028"/><g filter="url(#a)"><g fill-opacity=".5" transform="translate(2.7 2.7) scale(5.46875)"><circle r="1" fill="#ffcca8" transform="matrix(58.96115 -131.61113 99.73379 44.68025 101 94.2)"/><ellipse cx="85" cy="16" fill="#f6ffff" rx="55" ry="49"/><circle r="1" transform="rotate(105.1 56.4 100.7) scale(36.13665 56.29589)"/><circle r="1" fill="#fff" transform="rotate(-19.9 164.9 -193.9) scale(125.56424 16.47688)"/><circle cx="83" cy="143" r="74" fill="#e3612d"/><circle r="1" fill="#681700" transform="rotate(155.9 37.4 108.7) scale(112.86245 14.82763)"/><ellipse cx="1" cy="51" fill="#fbffff" rx="117" ry="13"/><path fill="#fff" d="M186 .4v57.1l-31.8-24.6L-16 50.5z"/><circle r="1" fill="#334c52" transform="matrix(1.23062 7.33154 -115.6871 19.41836 18.4 30)"/><path fill="#c0ccc7" d="M-16 264l79-32 5 39z"/><circle r="1" fill="#932a21" transform="matrix(107.05449 -45.28977 6.83246 16.15035 0 108.3)"/><circle r="1" fill="#e49f73" transform="rotate(173.5 41.4 73.3) scale(107.90446 23.13525)"/><circle r="1" transform="matrix(24.5808 -.25634 .10141 9.7246 141 48.2)"/><circle r="1" transform="rotate(104.8 50.3 107.1) scale(28.35555 24.39177)"/><circle r="1" fill="#000200" transform="matrix(1.2612 -24.06496 63.94282 3.3511 137.3 255)"/><circle r="1" fill="#5f6c6c" transform="matrix(-12.25726 24.05622 -46.39024 -23.637 0 192.4)"/><path d="M43.6 218.2l6.2 19-69.4 22.6-6.2-19z"/><path fill="#a74111" d="M138 196l32 30V97z"/><path fill="#bad7de" d="M140 196l-43 37-34-2z"/><path fill="#d1e4e8" d="M191 48.6l1 4.9-47 10-1-5z"/><ellipse cx="22" cy="27" rx="19" ry="5"/><path fill="#fff" d="M118 20l-2 48-35-42z"/><path fill="#e3ffcd" d="M46.6-1.3L15.5 3.1-16 1.4l56.8-13.2z"/><path fill="#f6ffff" d="M141 76l-20-15 23 8z"/><circle r="1" transform="rotate(168.6 64.7 32) scale(14.70671 12.17886)"/><path fill="#708d92" d="M36.3 28.3L127.7.9 186-3 159.3 8.2z"/><circle r="1" fill="#fff" transform="matrix(-55.717 14.09857 -.61782 -2.44162 89 8.3)"/><path fill="#57160f" d="M81 64L47 89l-59-3z"/><path fill="#819596" d="M53.8 7.6l-68.6 27.5 34.9 12.1-25.8-30.7z"/><path d="M13 168l-11 7-14-12z"/><path fill="#eaf7fc" d="M4 178l24 9-16-15z"/><circle r="1" fill="#e79b71" transform="matrix(-26.67087 -11.14073 7.85744 -18.81067 116.8 118.6)"/><path fill="#fcffff" d="M183 2L99 21l87 14z"/><path fill="#d76746" d="M-51.5 153.7l-9.9-34.6 176.9-50.8 9.9 34.6z"/><path fill="#faffff" d="M85.9 51.7l2.2 7.7-52 14.9-2.2-7.7z"/><path fill="#933308" d="M61.6 234.6l-30.6-42 15.4-11.2 30.6 42z"/><circle r="1" fill="#000200" transform="rotate(179 12.3 3.2) scale(10.3847 4.34314)"/><path d="M156.9 53.7l14.1-2.1-19.7-19.1-26.5 38.7z"/><path fill="#5e1c04" d="M186 176l-5 65-41-45z"/><path fill="#a84134" d="M102 56l11 8-40 1z"/><ellipse cx="167" cy="70" fill="#020400" rx="20" ry="13"/><path fill="#bde3ef" d="M9.7 163.2L-16 124.9v44.3l32.4-4.7z"/><path fill="#95a5a6" d="M55 224l-30-38 13 34z"/><path fill="#250900" d="M115 70l34 37 24-26z"/><path d="M21.1 239.6l32.1-16.3 3.7 7-32.1 16.4z"/><circle r="1" fill="#cb8559" transform="matrix(2.44562 28.93285 -19.62717 1.65903 154.1 139)"/><path fill="#607876" d="M53.9 4.8l-28 9.7L59.4 12l8-5.4z"/><circle cx="41" cy="164" r="27" fill="#ce8a64"/><path fill="#fff" d="M14 19h10v4H14z"/><path fill="#536c75" d="M155 203l-37 6-6 20z"/><path fill="#626562" d="M0 181h21v41H0z"/><path fill="#000500" d="M22.5 7.8L-8.2.1-16 74.3V30.4z"/><path fill="#000b08" d="M-1.5 263.4L44 231.6 8.9 214.3l27-1.5z"/><path fill="#070c05" d="M57.6 229.6L87.2 271l-58.4-20.3L163.7 271z"/><path fill="#d1d8dd" d="M52.3 67.6L58.8 32l-57 12L-6 69.6z"/><circle r="1" fill="#a4481d" transform="rotate(-15.1 760.5 -427.2) scale(88.22142 16.37801)"/><path fill="#903a13" d="M184.5 128.2l1.5-10.3-59.4-30.4-2.4 10.3z"/><circle cx="136" cy="204" r="4" fill="#dcfaff"/><path fill="#4a4e44" d="M6 42l49-12-44-2z"/><path fill="#fff" d="M-16 13v19l22-1z"/><path fill="#fbffff" d="M154.7 33.3l-86.3-5.7-10.7 41.9 57.8-26.2z"/><path fill="#888881" d="M58 234l19 23-90 5z"/><path fill="#6b1c0f" d="M-15 89l50-1-51 15z"/><path fill="#040300" d="M12.6 33.9L.2 27.1l35.7-6.4 1.1 5.8z"/><path fill="#ecf3f6" d="M43.5 21.5l14.4-8.7L34 15.3l19.8 19z"/><path fill="#000102" d="M175.9 53l-51.2-6.3 38.5-17.4-6.9 4.2z"/><path fill="#353843" d="M77 268l-34-6 20-18z"/><path fill="#4c362d" d="M118 40h4v28h-4z"/><path d="M-4 175l-9-11 29 6z"/><ellipse cx="143" cy="245" fill="#111c12" rx="25" ry="29"/><path fill="#2e3e39" d="M34.5 14.4l38.8-9.7.2 1-38.8 9.6z"/><path fill="#fff" d="M116.3 41.6l-98.6-3 64.5-2.9 33.4 31.2z"/><path fill="#e9f2bc" d="M9 4l-.2-20-11.4 2.7L50.2-2.5z"/><circle r="1" fill="#c37361" transform="rotate(149.4 37.5 52.9) scale(23.37192 11.90237)"/><path fill="#ba6a3e" d="M44 206l68-61 47 16z"/><path fill="#000200" d="M4.7 252.8L7.1 241l40-19.9 9.3 13.6z"/><path fill="#d15e36" d="M41.7 108.2L9.3 143.4l.6 17.7-24.2-34.1z"/><path fill="#908e8a" d="M2.5 208.3l9.4 14.2-27.9-10.6 62.4-.3z"/><path fill="#404341" d="M4.1 197.3l18.1-8.7-8 22.5 17.5-5.1z"/><ellipse cx="29" cy="5" fill="#000a00" rx="4" ry="7"/><path fill="#fff" d="M90.6 9l-39.8 9.9-1.4-5.9 39.8-9.9z"/><path fill="#e79a75" d="M-7.5 143.7l129.4-38.4 8 1.4L71.6 131z"/><path fill="#b6b9ba" d="M35 200l-22-1 17-7z"/><path fill="#4a583d" d="M103 2l31-9-49-2z"/><circle r="1" fill="#c3c6c8" transform="matrix(-20.16174 5.59135 -1.25755 -4.53458 96.9 223.8)"/><path fill="#f9f8f9" d="M118.9 49.4l-6.8-24.3-62.5 46.2 50.9-13.9z"/><path fill="#82999a" d="M120.1 5.6L174-13l3.9 11.4L124 17z"/><circle cx="134" cy="55" r="11"/><path fill="#373c39" d="M100.6 241.1l47.9-37.5-16.8 41.3-36.1-21.6z"/><path fill="#aaa291" d="M26.8 250.3l-18.9 7.6L59 232.3l3.3 7.2z"/><path fill="#bdbec1" d="M151.3 71.2l-17.4 1.7-33.5-28.7 25.5 20.7z"/><path fill="#a46d52" d="M145.2 56.1l1 .1-5.4 43.7-1-.1z"/><circle r="1" fill="#181105" transform="matrix(-9.70204 -4.27173 11.43775 -25.97767 159.8 82.4)"/><path fill="#807662" d="M1.9 238.2L-16 221.5l22.6 34.2-21.5 1.6z"/><path fill="#c1c7c3" d="M139.7 61.3L186 46.5v6.9l-32.2 5z"/><path fill="#bcd1b5" d="M105.5-1.3L27.7-16l7.5 30.7-33.7.4z"/><path fill="#723228" d="M-3 84.1l56.7 2.2 40.6-12.9L77.1 70z"/><path fill="#424e39" d="M186 134.8l-27.6-36-5.5-.9 33.1-9.1z"/><circle r="1" fill="#a54e3a" transform="matrix(-68.36847 15.35391 -1.36379 -6.07272 6.3 111.4)"/><path fill="#212926" d="M20.1 237.3l-36.1-6.4 27.6-4.8 24.6-16.8z"/></g></g></svg>