<svg xmlns="http://www.w3.org/2000/svg" viewBox="0 0 1400 933"><defs/><filter id="a"><feGaussianBlur stdDeviation="12"/></filter><rect width="100%" height="100%" fill="#4a3a27"/><g filter="url(#a)"><g fill-opacity=".5" transform="translate(2.7 2.7) scale(5.46875)"><circle r="1" fill="#fffef7" transform="matrix(41.92045 132.15 -164.42042 52.15723 137.6 83.3)"/><circle r="1" fill="#2c3522" transform="matrix(20.18395 27.00393 -38.52655 28.79648 190.3 71)"/><ellipse cx="98" cy="58" fill="#fff0e1" rx="29" ry="83"/><circle r="1" transform="matrix(25.29843 -16.92333 7.7145 11.53228 148.6 7.2)"/><circle r="1" fill="#ffcddc" transform="rotate(15 -422.8 832) scale(79.61117 24.93707)"/><circle r="1" fill="#feffff" transform="matrix(-82.79295 -197.1644 25.38825 -10.661 255 24.4)"/><path fill="#f53934" d="M131.6 155.3l-74.8 5.3-2.4-34 74.8-5.2z"/><path fill="#525847" d="M3 118V4l76 91z"/><path d="M177 0h8v99h-8z"/><circle r="1" fill="#3c4f13" transform="rotate(-162.6 124.8 35.7) scale(27.49166 12.45892)"/><ellipse cx="100" cy="95" fill="#300300" rx="23" ry="4"/><path fill="#eae7bf" d="M9 0h78v32H9z"/><circle r="1" fill="#da3f42" transform="matrix(-.42786 -7.81881 64.1141 -3.50848 176.1 143)"/><ellipse cx="13" cy="58" fill="#fffffe" rx="3" ry="90"/><path d="M145.7 78.9l18.9.8 14.9 25-27.3 3.9z"/><circle r="1" fill="#ffc2b7" transform="matrix(.35786 -13.09438 124.52992 3.4033 104 124.7)"/><path fill="#cce1ed" d="M247 185l22-46-169 21z"/><ellipse cx="6" cy="43" rx="3" ry="76"/><path fill="#d4e3cb" d="M139 20h25v58h-25z"/><path fill="#030b00" d="M39.9 43l1 76.1L34 31.7l38.6 3.9z"/><ellipse cx="194" cy="15" fill="#270c00" rx="4" ry="91"/><circle r="1" fill="#1f0100" transform="matrix(9.43985 3.17438 -9.39506 27.93868 141.2 4.5)"/><circle cx="220" cy="45" r="24" fill="#9aa572"/><circle r="1" fill="#d5d5b8" transform="matrix(-1.5889 -25.97395 7.765 -.475 28.1 60.4)"/><ellipse cx="101" cy="56" fill="#ebf4f7" rx="29" ry="21"/><ellipse cx="187" fill="#ced9ee" rx="3" ry="147"/><ellipse cx="19" cy="154" fill="#a6b3c2" rx="32" ry="45"/><path fill="#8e3132" d="M112.8 147.2l-49.2 19.7-35-67.5 30 41.3z"/><ellipse cx="133" cy="59" fill="#2d2915" rx="3" ry="42"/><circle r="1" fill="#f4eeef" transform="matrix(-5.29384 .23113 -1.41087 -32.31432 143 98.3)"/><path fill="#c5d8e4" d="M168 107h54v21h-54z"/><ellipse cx="113" cy="93" fill="#644211" rx="3" ry="19"/><ellipse cx="38" cy="75" fill="#020000" rx="3" ry="42"/><path fill="#fffff6" d="M3 10.6L2 109l-8.9-87.2L2.7-16z"/><path fill="#080000" d="M17 21h3v58h-3z"/><path fill="#b6d4c5" d="M197 118V88l17-1z"/><ellipse cx="8" cy="78" fill="#070100" rx="3" ry="35"/><path fill="#0a0000" d="M188.9-45.3l-4.8 91-7-.4 4.8-91z"/><path fill="#f6fffb" d="M218.5 26.9L213-.6l32.4-6.3 5.4 27.5z"/><path fill="#033300" d="M146 31h11v7h-11z"/><path fill="#f9ffff" d="M70 68h19v24H70z"/><path fill="#1a2f00" d="M141 51h10v9h-10z"/><ellipse cx="114" cy="23" fill="#c2c5a0" rx="15" ry="27"/><ellipse cx="169" cy="39" fill="#9d7f52" rx="8" ry="37"/><path fill="#4c5e27" d="M237.3 66.2l-5.4 51.2-6.5-1.4-23.8-44.4z"/><path fill="#c7cc59" d="M226.6 83.2l44.4 1.9-9.8 33.4-40.8-32.4z"/><path d="M68 39h2v52h-2z"/><path fill="#e0e9e6" d="M271 76l-24.1-92-3.7 75.7-2.5 32.9z"/><path fill="#2d0e00" d="M126-16l66 2-60 42z"/><path fill="#abb184" d="M40 36h20v36H40z"/><path d="M17 32h23v4H17z"/><path fill="#575f5a" d="M70.9 106l-35.2 7.5L31 92l35.2-7.5z"/><circle r="1" fill="#b9c2d0" transform="matrix(44.67056 .0932 -.0171 8.19537 90.3 169)"/><circle r="1" fill="#a04b46" transform="rotate(-95.2 177 -30.3) scale(2.02377 80.8844)"/><path fill="#655d4d" d="M115.6 40l-4.2 26.7-5-.8 4.2-26.6z"/><ellipse cx="158" cy="47" fill="#f4f3f6" rx="4" ry="26"/><path fill="#8d8465" d="M7.1 9.2l14.3 25.3-5-33.4L9.6-16z"/><path fill="#600100" d="M84 96h65v2H84z"/><path fill="#bd7300" d="M17 64.7l6-.3 2 35-6 .2z"/><path fill="#c3dbe7" d="M216.8 132l1.8-14.8 54.6 6.7-1.8 14.9z"/><path fill="#131a17" d="M226 0h1v36h-1z"/><path d="M151 79h12v29h-12z"/><path fill="#17191a" d="M240.5 111.9l17.9 9.4-51.8-7.7 28.2-1.6z"/><circle r="1" fill="#fecbbf" transform="matrix(-.87056 9.56587 -75.0841 -6.83319 136.5 120.8)"/><path d="M24 89h43v3H24z"/><path fill="#feffff" d="M116.3 76.2l-1.6-44 11-.4 1.6 44z"/><path fill="#f9f6ef" d="M11 30h6v60h-6z"/><circle r="1" fill="#f68878" transform="matrix(-62.88174 -5.05934 .68794 -8.55029 110.2 133.4)"/><path fill="#9da49e" d="M34.2 92.1l8.3 31-10.7 2.8-8.3-31z"/><circle r="1" fill="#bbc589" transform="matrix(-10.647 2.89273 -8.87074 -32.64976 211.6 11.8)"/><path fill="#574013" d="M92 78h2v28h-2z"/><circle r="1" fill="#132226" transform="matrix(-6.76013 2.33083 -3.23312 -9.37706 215.4 76)"/><path fill="#040d0a" d="M190 70h5v34h-5z"/><path d="M4 0h4v58H4z"/><path fill="#d3d1b4" d="M34 14h93v19H34z"/><path fill="#0f0000" d="M177 61h7v46h-7z"/><path fill="#647851" d="M66 53L41 43l30-9z"/><path fill="#9ba381" d="M244.8 24.4l-23.7.1 1.3-5.3 15.7 94.5z"/><path fill="#aaafb7" d="M70 100h59v11H70z"/><path fill="#c2c8c3" d="M27 42h9v47h-9z"/><path fill="#9e4144" d="M56 161.7l59.7-4.3 43.1-5.1-94.8-5.5z"/><path fill="#c2c0a9" d="M46.5 56.5l20.5 16-5.5 7-20.5-16z"/><path fill="#ffffe3" d="M140 23h20v8h-20z"/><path fill="#57211b" d="M71 162l-22-26 8 21z"/><path fill="#bbc8d6" d="M184 65h4v53h-4z"/><path fill="#cad6d8" d="M134.1 36.6L144.2 69l10.8 55.9L137.7 85z"/><circle r="1" fill="#325201" transform="matrix(.59736 -3.85268 4.61158 .71503 152.3 36.5)"/><path fill="#e8b672" d="M175 0h3v48h-3z"/><path fill="#728c7d" d="M197 35h9v53h-9z"/><ellipse cx="115" cy="77" fill="#522800" rx="16" ry="1"/><path fill="#583409" d="M150.4 89l-2-.2 3.2-35.8 2 .2z"/><path fill="#edeee9" d="M84.9 48.2l44.3 3.6-31.6 8 19.5-26.1z"/><path fill="#bdc8cf" d="M133 109l73-4 65 39z"/><path fill="#8d8f3d" d="M257.3 97.1l-57.5-12.5 71.2 39.8-15.5-11.4z"/><ellipse cx="77" cy="92" fill="#6f7a74" rx="48" ry="2"/><path fill="#130d0c" d="M3 94h9v18H3z"/><path fill="#584a42" d="M162 68h15v37h-15z"/><path fill="#fff" d="M227.4 4.5l13.8-2.7 3.4 17.7-13.8 2.7z"/><ellipse cx="171" cy="134" fill="#fc9b99" rx="58" ry="4"/><path fill="#a89e7b" d="M112 0h16v23h-16z"/></g></g></svg>