<svg xmlns="http://www.w3.org/2000/svg" viewBox="0 0 1400 1120"><defs/><filter id="a"><feGaussianBlur stdDeviation="12"/></filter><rect width="100%" height="100%" fill="#343434"/><g filter="url(#a)"><g fill-opacity=".5" transform="translate(2.7 2.7) scale(5.46875)"><circle r="1" fill="#fff" transform="matrix(49.33576 134.25793 -183.77145 67.53049 118.9 20.6)"/><circle r="1" fill="#fff" transform="rotate(-96.9 86.1 -76) scale(58.36343 182.8271)"/><circle cx="77" cy="140" r="107" fill="#b0b0b0"/><ellipse cx="73" cy="159" fill="#222" rx="55" ry="26"/><circle r="1" transform="matrix(12.11773 -8.08152 21.32191 31.97086 192.1 75.2)"/><path fill="#fff" d="M241 117h15v60h-15z"/><circle r="1" fill="#fff" transform="matrix(-32.6652 -1.76631 1.57627 -29.15062 18.4 120.5)"/><circle r="1" fill="#101010" transform="matrix(-5.83646 36.43825 -11.93951 -1.9124 81 74.5)"/><circle r="1" fill="#fff" transform="matrix(-19.92427 3.43052 -8.1244 -47.18605 215.3 44.5)"/><path d="M9.2 85.1l12-35L46.9 59l-12 35z"/><circle r="1" fill="#e8e8e8" transform="matrix(-9.00191 93.48846 -34.09506 -3.28298 136.2 69.8)"/><ellipse cx="39" cy="8" fill="#fff" rx="250" ry="30"/><ellipse cx="154" cy="39" rx="9" ry="11"/><path fill="#e3e3e3" d="M52 128l3 65-27 5z"/><path fill="#fff" d="M160 132l-83 1-67-40z"/><path fill="#fff" d="M36 128l12-74L97 0z"/><path fill="#0a0a0a" d="M55 131h28v48H55z"/><circle r="1" fill="#0c0c0c" transform="matrix(-4.6845 12.8478 -18.32314 -6.68089 81 81.7)"/><ellipse cx="178" cy="120" fill="#efefef" rx="53" ry="13"/><path d="M209 138l-26 12 5-29z"/><path fill="#060606" d="M-4 185l10-28 61-3z"/><path d="M167.1 153.6l-11.4 3.7-6.8-21 11.4-3.6z"/><path fill="#fff" d="M-12 82.6L6.7 43.9 22 51.4 3.2 90.1z"/><circle r="1" fill="#fff" transform="rotate(-96.8 136.7 -70.2) scale(57.27864 9.76431)"/><path fill="#e7e7e7" d="M235.9 161.6l35.1-57.5v67.6l-44.7 7.2z"/><path fill="#6b6b6b" d="M135.2 83.6l21 24.7-89.4-14.6 74.3 28.7z"/><path fill="#d9d9d9" d="M-16 189l15 27 61-45z"/><path fill="#efefef" d="M78.3 162.6l21.9-13.5 5.6 5.8-5.4 14.6z"/><path fill="#fff" d="M157 51.9l17.6 100.7 5.7 27.3 3-46.4z"/><path fill="#161616" d="M169 46h25v37h-25z"/><circle r="1" fill="#fff" transform="rotate(-58.5 122.3 -77.6) scale(12.45142 34.05335)"/><path fill="#5c5c5c" d="M241 44l1 110 29-107z"/><ellipse cx="24" cy="14" fill="#4e4e4e" rx="71" ry="2"/><path fill="#fcfcfc" d="M-16 61l17 99 43-24z"/><path fill="#434343" d="M67 173h178v31H67z"/><path fill="#0d0d0d" d="M80 137h37v13H80z"/><ellipse cx="101" cy="44" fill="#131313" rx="21" ry="3"/><path fill="#363636" d="M198.5 108.8l6.1-37.4 18.8 30.1-12.3 17.5z"/><path fill="#252525" d="M96.4 107.4l4-49.1 7.6 19.2-13.6 3.7z"/><path fill="#f7f7f7" d="M163 0h93v45h-93z"/><path fill="#3b3b3b" d="M197.5 41h-9V27h9z"/><path d="M186 118l6 7-23-5z"/><path fill="#9f9f9f" d="M24.1 100.8l39.2-18.4-9.5 31.3 52.4-21.9z"/><circle r="1" fill="#767676" transform="matrix(5.37458 -38.2421 10.43994 1.46724 132.5 179)"/><path fill="#fff" d="M179.8 87.6l6.5-2.4 10 27.2-6.6 2.4z"/><path fill="#f4f4f4" d="M232.8 119.6l-18.3-90.2 7.3 101.8-98.3-27.6z"/><path fill="#fff" d="M123.2 125l-3.4 13.7-63-15.8 3.4-13.6z"/><path fill="#0d0d0d" d="M126 33h6v10h-6z"/><path fill="#303030" d="M111 26h5v21h-5z"/><path fill="#232323" d="M25.6 55l-8.3 30.3 21.2 15 2.2-17.2z"/><path fill="#2b2b2b" d="M70 169l-22-46 39 12z"/><path fill="#b9b9b9" d="M260.8 162.4L234 181.7l-21.1-17.4 27.2 5.7z"/><ellipse cx="97" fill="#fff" rx="76" ry="27"/><path fill="#d6d6d6" d="M256.7 124.6l-56.4-55.7 57.3 39.7-30.2 7.2z"/><path fill="#2b2b2b" d="M249 127l-12 38-49-32z"/><path fill="#fff" d="M54 85l22-35-32 1z"/><circle r="1" fill="#555" transform="matrix(23.0755 4.73672 -.57045 2.779 10.5 45.5)"/><path fill="#fcfcfc" d="M258 88l-56-62-4 37z"/><path fill="#3e3e3e" d="M110 119h28l-9-13z"/><path fill="#fff" d="M114.2 57.7L-16 47.7v31.9l44-26.4z"/><path fill="#060606" d="M12 29V13h4v16z"/><path fill="#212121" d="M19.6 182.7l-12-9 22.8-30.4 12 9z"/><path fill="#ededed" d="M-4.6 82.7l54.9 40-8.2 33.7 15.3-13.5z"/><circle cx="153" cy="42" r="11" fill="#4b4b4b"/><ellipse cx="65" cy="13" fill="#727272" rx="36" ry="2"/><path fill="#b8b8b8" d="M142.8 27.6l37.1 63.1-32.8-26.4-13-43.7z"/><path fill="#585858" d="M150.9 88.9l-3.7 11.4 18.1-4.9-38.9-2.9z"/><path fill="#fdfdfd" d="M78 125h111v10H78z"/><path fill="#242424" d="M256 59.3l-4.7 14.3-15.2-5 4.6-14.2z"/><path fill="#2b2b2b" d="M10 94.7l36.3-38-20.5-2.5L6.3 88.6z"/><path fill="#b8b8b8" d="M91 44l15 42-25-30z"/><path fill="#363636" d="M172.2 74.7l46.7 42.3-37.4-67.7-.1 60z"/><path fill="#141414" d="M175.9 186.4l-6.7-54.6 1-.2 6.6 54.6z"/><path fill="#ededed" d="M243.4 118.7l6.9-1 4.3 27.6-6.9 1z"/><ellipse cx="125" cy="203" fill="#acacac" rx="15" ry="11"/><path fill="#f7f7f7" d="M63 89l15 11-8 5z"/><path fill="#fafafa" d="M161.4 53.3l-3 45.3 15-72.1 17.4 10.4z"/><path fill="#fff" d="M174 131h8v34h-8z"/><circle r="1" fill="#fff" transform="matrix(-2.05325 12.01203 -8.82568 -1.5086 5.4 71.6)"/><path fill="#fff" d="M35.7 47.3L-16 37.5l56.9-19.4-2.6 22.7z"/><path fill="#373737" d="M199.1 61.8L193 47.6l-10.7-4.8 16 72.2z"/><ellipse cx="193" fill="#a9a9a9" rx="7" ry="20"/><path fill="#fdfdfd" d="M264 5l-46 78-19-16z"/><path fill="#373737" d="M186.3 202.7L182 142l11.8-19.3 9.1 24.7z"/><circle r="1" fill="#292929" transform="matrix(4.3317 3.43327 -9.26073 11.68413 70.4 74)"/><path fill="#4e4e4e" d="M152 179l-17 5 4-42z"/><path fill="#6d6d6d" d="M89.5 49.2l-34.9 70.4-2.9-32.5 12.7 17.1z"/><path fill="#989898" d="M77.6 219l-45.9-17.6-46.4 11.2 66.3-38.1z"/><path fill="#020202" d="M108 80l-5-14-11-9z"/><path fill="#454545" d="M271 101l-39 9 29 12z"/><path fill="#e8e8e8" d="M141 118l-5-36-17 14z"/><path fill="#353535" d="M176.9 183.4l-13.7-45 5.8-5.8-20.1 4.7zm14.1-46.2l43.6-12.7-3.9-12.5 23.2 25z"/><path fill="#e7e7e7" d="M132 153.8l-12.6 9.9-7.4-9.5 12.6-9.9z"/><path fill="#303030" d="M8.1 158.3l23.6-8.2 8.2 23.6-23.6 8.2z"/><ellipse cx="247" cy="82" fill="#9a9a9a" rx="20" ry="13"/><path fill="#020202" d="M66 107h12v4H66z"/><circle r="1" fill="#b5b5b5" transform="matrix(-4.66006 -7.0647 10.70278 -7.05983 92.9 158.5)"/><path fill="#3a3a3a" d="M102 116l4-9-15 7z"/><path fill="#f2f2f2" d="M180 110l-26-33 11-13z"/></g></g></svg>