<svg xmlns="http://www.w3.org/2000/svg" viewBox="0 0 1400 1400"><defs/><filter id="a"><feGaussianBlur stdDeviation="12"/></filter><rect width="100%" height="100%" fill="#343434"/><g filter="url(#a)"><g fill-opacity=".5" transform="translate(2.7 2.7) scale(5.46875)"><circle cx="122" cy="52" r="242" fill="#fff"/><circle r="1" fill="#fff" transform="matrix(69.35623 4.27198 -2.24157 36.39224 107.2 105.7)"/><ellipse cx="164" cy="219" fill="#fafafa" rx="170" ry="42"/><circle r="1" transform="matrix(18.33944 .88312 -2.82552 58.67647 185.3 68.7)"/><circle r="1" fill="#fff" transform="matrix(-.24302 -34.80917 129.61852 -.90492 41.5 9.6)"/><path fill="#1f1f1f" d="M38 220l73-63L7 144z"/><circle r="1" transform="matrix(18.4811 24.70193 -15.48703 11.58684 235 50)"/><circle r="1" fill="#161616" transform="rotate(-10.5 940 -1202) scale(58.09593 24.96072)"/><ellipse cx="22" cy="65" fill="#232323" rx="98" ry="11"/><circle r="1" fill="#fff" transform="matrix(-34.8938 9.97902 -13.69714 -47.89502 135.5 111.8)"/><path d="M42.4 135.3L19.9 140l-6.3-29.4 22.5-4.8z"/><path fill="#fff" d="M198.1-8l66.4 19-6.6 23-66.4-19zM195 87.7l26.4 21.7 37.4 2.2-38.5-45.2z"/><circle r="1" fill="#fff" transform="matrix(43.55777 -21.49713 9.29729 18.8383 0 239.6)"/><ellipse cx="50" cy="151" fill="#fdfdfd" rx="7" ry="22"/><path fill="#1b1b1b" d="M179.2 143.2l-8.2-25.5 2.7-82.1 31.7 68.5z"/><ellipse cx="23" cy="18" fill="#f8f8f8" rx="67" ry="31"/><path fill="#191919" d="M91.3 167l97.8 7-.4 5-97.8-7z"/><ellipse cx="25" cy="90" fill="#eee" rx="143" ry="15"/><circle r="1" fill="#252525" transform="matrix(-1.61344 -15.77376 23.9138 -2.44606 184.8 32.1)"/><path fill="#9b9b9b" d="M57 178l-11 93 47-100z"/><ellipse cx="221" cy="184" fill="#fff" rx="31" ry="10"/><circle cx="6" cy="182" r="13" fill="#fff"/><circle r="1" fill="#1a1a1a" transform="rotate(-98.3 135.4 -75.8) scale(24.77406 18.98738)"/><circle r="1" fill="#eaeaea" transform="matrix(17.74376 .40266 -.82016 36.1413 105.9 27.7)"/><path fill="#505050" d="M52.8 217.3l15.6 21.6L52.5 175 7.7 197.6z"/><path fill="#2b2b2b" d="M146 0h6v45h-6z"/><circle cx="21" cy="156" r="14" fill="#0d0d0d"/><path fill="#e1e1e1" d="M78 175h70v57H78z"/><path fill="#fff" d="M15 138l1-30-26 62z"/><path fill="#414141" d="M58.6 138.9l99 31.7-84.9-3.1-15.8 12.9z"/><path fill="#585858" d="M112 57L77 39 22 53z"/><path fill="#505050" d="M228.5 195.2l2 20.1-4-6.5-27.3-14z"/><path fill="#323232" d="M12.5-42l5 93.9h-2l-5-93.8z"/><path fill="#cbcbcb" d="M48 69h37v72H48z"/><ellipse cx="135" cy="141" fill="#161616" rx="70" ry="1"/><path fill="#5b5b5b" d="M91.2 242.3l-12.7 14.1-9.7-8.7 12.7-14.1z"/><path fill="#fafafa" d="M164.6 71.7l-105 63.1 117.2 7.7-.9-2.9z"/><path d="M173.8 5l4-14.4L194.1-5l-4 14.4z"/><path fill="#fbfbfb" d="M188.5-2.5l24.4 42.8-3-6.6L239.5-.9z"/><circle cx="186" cy="223" r="7" fill="#323232"/><path fill="#878787" d="M83 195h32v17H83z"/><path fill="#fdfdfd" d="M180-16L151-2l5 50z"/><path fill="#2c2c2c" d="M166 197l-11-10-9 10z"/><path fill="#f2f2f2" d="M144 228h77v24h-77z"/><path fill="#fff" d="M223 142v-11l14 7z"/><path fill="#292929" d="M183 153h61v22h-61z"/><path fill="#535353" d="M240.5 113.4L271 224.1l-38.8-80.9-9.3-37.4z"/><path fill="#242424" d="M165 64h48v11h-48z"/><path fill="silver" d="M199 137l-43 33-63-26z"/><path fill="#8b8b8b" d="M127 23h26v51h-26z"/><path fill="#fff" d="M271 51.6l-27.1-16.8L263-2l-7.1 69.4z"/><circle r="1" fill="#393939" transform="rotate(168.7 11.6 68.5) scale(14.61725 7.05235)"/><ellipse cx="173" cy="14" fill="#f9f9f9" rx="11" ry="6"/><circle r="1" fill="#f2f2f2" transform="matrix(-29.94837 16.80624 -9.5752 -17.06282 252.1 215.5)"/><path fill="#fff" d="M71.6 232.3l7.4-22.8 31.4 10.2-7.4 22.8z"/><circle r="1" fill="#e9e9e9" transform="matrix(-30.55504 18.45038 -5.81035 -9.62232 182.6 194.5)"/><path fill="#6d6d6d" d="M166 205h9v22h-9z"/><path fill="#767676" d="M30 110h154v2H30z"/><path fill="#eee" d="M143 41H38l33-57z"/><path fill="#7c7c7c" d="M31 239h29v14H31z"/><path fill="#d7d7d7" d="M31.3 178.8l-3.5-2.1-2-7.8 9-3.8z"/><path fill="#bfbfbf" d="M91 61l-22 1 10-19z"/><path fill="#fff" d="M4.3 202.9l16.5-2.9-19.5 71-1.4-32.7z"/><path fill="#838383" d="M26 190l-8 30 30-10z"/><path fill="#eaeaea" d="M128 64h37v8h-37z"/><path fill="#282828" d="M164 22h42v19h-42z"/><path fill="#fff" d="M78.6 251.6l-86.8 14.7 97.1 1.7 21.6-29.2z"/><path fill="#1f1f1f" d="M190 201l4 8 6-8z"/><path fill="#e8e8e8" d="M212 75h29v34h-29z"/><path fill="#383838" d="M214 239l16 3-3-6z"/><path fill="#3e3e3e" d="M210 79h43v2h-43z"/><ellipse cx="157" cy="142" fill="#434343" rx="96" ry="1"/><path fill="#5d5d5d" d="M218 215l-19 11 20-1z"/><path fill="#fff" d="M169 56l-7-5 7-11z"/><path fill="#dfdfdf" d="M195.5 199.5l13.6 32.4-6.5-66.5.2-10.2z"/><path fill="#eaeaea" d="M47.2 238.4l14.3 1.9-9.6-25.7-34.5-9.4z"/><path fill="#8e8e8e" d="M128 219.7l-4.5 18.5-15.6-4 4.6-18.4z"/><path fill="#353535" d="M27 205.8l29.6-9.7-22.5-39.8 13.5-7.1z"/><path fill="#565656" d="M60 90h14v6H60z"/><circle r="1" fill="#424242" transform="matrix(-.09337 -1.4439 108.24366 -6.9998 175.7 60.3)"/><path fill="#fff" d="M75 82h88v27H75z"/><path fill="#2a2a2a" d="M62 152l52 1-64 22z"/><path fill="#f1f1f1" d="M201 38l3 15 11 2z"/><path fill="#6a6a6a" d="M200 3h19v4h-19z"/><path fill="#0e0e0e" d="M230 208l-3-6-9 6z"/><circle r="1" transform="rotate(42 -268 193.2) scale(2.35261 4.27426)"/><path fill="#434343" d="M0 57h58v18H0z"/><path fill="#2f2f2f" d="M209 98l-33 39-7-67z"/><path fill="#b2b2b2" d="M194 114l20 19-30 1z"/><circle cx="28" cy="119" r="12" fill="#212121"/><path fill="#9e9e9e" d="M11.4 62.8L8.1 74.4l27.8-33.6-7.5-16.2z"/><path fill="#323232" d="M61 121h15v4H61z"/><path fill="#343434" d="M2.4 215.3L-16 246.2v-49l20.5 1.1z"/><path fill="#fff" d="M93 198h13v11H93zM223.1 21.1l-8.5-32.5L253.2 42 271 21.6z"/><ellipse cx="95" cy="80" fill="#979797" rx="34" ry="2"/><path fill="#b3b3b3" d="M271 112l-35-40 8 52z"/><ellipse cx="246" cy="170" fill="#e0e0e0" rx="2" ry="15"/><circle r="1" fill="#2d2d2d" transform="matrix(-8.39145 -6.53124 16.31592 -20.96297 182.6 60.2)"/></g></g></svg>