<svg xmlns="http://www.w3.org/2000/svg" viewBox="0 0 1400 1120"><defs/><filter id="a"><feGaussianBlur stdDeviation="12"/></filter><rect width="100%" height="100%" fill="#3b3548"/><g filter="url(#a)"><g fill-opacity=".5" transform="translate(2.7 2.7) scale(5.46875)"><circle r="1" fill="#bf7d74" transform="matrix(107.28015 -65.19825 131.51076 216.39376 173.4 84.2)"/><circle r="1" fill="#f3c4e2" transform="matrix(64.76492 -188.00532 15.60876 5.37698 155.2 56.8)"/><circle r="1" fill="#660c31" transform="matrix(93.70476 17.79124 -8.4748 44.63592 234.7 177.3)"/><circle cx="14" cy="111" r="107" fill="#62603f"/><circle r="1" transform="matrix(-45.1481 156.41925 -5.39857 -1.55822 124.4 75)"/><circle r="1" fill="#a6a58d" transform="rotate(-49.3 94.5 -63.4) scale(39.46376 16.08589)"/><circle r="1" fill="#d7ced4" transform="matrix(-1.89985 -6.74948 21.78559 -6.13224 11.1 107.6)"/><circle r="1" fill="#c5be9e" transform="rotate(28.3 -9.8 71.5) scale(9.94718 36.00353)"/><ellipse cx="41" cy="194" fill="#cabdb8" rx="19" ry="7"/><path d="M119-16l-10 52-9-52z"/><circle cx="28" cy="145" r="34" fill="#372110"/><circle r="1" fill="#630017" transform="rotate(131.4 92 104) scale(49.7692 6.21015)"/><path fill="#fff" d="M68 140l6-7-26-17z"/><path fill="#1c1203" d="M18.7 75.1l77 5-30.1-6.7-16 19.4z"/><path fill="#dcefe9" d="M22.4 58l-4.6-7.5 27.7 14.9L53.4 77z"/><circle r="1" fill="#a1647a" transform="matrix(7.41414 .525 -4.91866 69.463 183.2 171.6)"/><path fill="#231c18" d="M100.6 52L80.1 156.9l-62.2 36.3 52.3-52.1z"/><path fill="#daa8a9" d="M208 67l12-13-20-33z"/><path fill="#dba2a5" d="M232.2 8.6L216.4-.2l7.9 28.6 40.1-35.3z"/><path fill="#4f0924" d="M225.9 207l-45.8-17.7 64.9-39.2-6.7 68.9z"/><path fill="#ad9466" d="M107-16L92 64 46 34z"/><path fill="#efe8dd" d="M26.2 113.8l-42.2-2.1L4.2 121l22.2-18.1z"/><path fill="#791b34" d="M238.7 112.1l-12.7-2.7L249.3 0 262 2.6z"/><circle cx="55" cy="58" r="14" fill="#253345"/><circle r="1" fill="#ca98aa" transform="matrix(19.6761 -39.12156 17.30154 8.70177 168.7 13.3)"/><circle r="1" transform="matrix(26.9117 -87.99983 3.57354 1.09284 96.6 166.2)"/><path fill="#aeb297" d="M104.7 104.7l-6.3 1.2 4-32.9 14.3-12.6z"/><circle r="1" fill="#811632" transform="matrix(-.8818 44.7902 -7.64576 -.15052 168.9 111.7)"/><path fill="#ced3bd" d="M101 9l8 29-23 2z"/><path fill="#9c9777" d="M25 61l1 20-38 24z"/><ellipse cx="116" cy="169" fill="#c2a0bc" rx="11" ry="36"/><path fill="#93816c" d="M43.1 146.1L9.3 161.3l11.4-25.6L33 162.6z"/><path fill="#b3b3a4" d="M20.3 58.2l-7.4-55L-16 6.9l41.2 17.5z"/><path d="M5 50l9-21 5 28zm66 24l10-5-3 18z"/><path fill="#0f0d1b" d="M80 33l17 13-23-5z"/><path fill="#060c0a" d="M34.3 97.3l14.6 4.3-64.9 86.5 42.9-67.8z"/><path fill="#050b00" d="M40 188h8v13h-8z"/><path fill="#dfacb0" d="M236.7 71l-28.3 17-3-5 28.2-17z"/><circle r="1" fill="#d1acb3" transform="rotate(68.6 34.4 250.4) scale(29.77904 4.49115)"/><path fill="#160f04" d="M22.5 57.4l-10.7-4.1 38.9 35.4 3.6-8z"/><circle cx="10" cy="133" r="5" fill="#f9aaa6"/><path fill="#42343e" d="M206.2 9.3l5.2 40.7 37.7-41.5-15.2 36.2z"/><path fill="#0d263c" d="M199.6-14.6l-17.8 53.8 10.7-4.4 8.4-50.8z"/><circle r="1" transform="matrix(2.79251 .86092 -17.94876 58.21925 128 61.9)"/><path fill="#e0a5a2" d="M196.5 89.2L182 53l5.6-2.2L202 87z"/><circle r="1" fill="#3e343e" transform="rotate(-126.1 128.6 -25.8) scale(5.39373 35.55532)"/><path fill="#967e76" d="M82.4 182.1l-19.2-1 12.3-38.8-1.2 24z"/><path fill="#545137" d="M48.6 10.4L20 12l81.2 13.8L63.9-3.6z"/><circle r="1" fill="#908c91" transform="matrix(1.34164 -3.5498 32.28848 12.20342 166.2 188.6)"/><path fill="#c19796" d="M185.8 128.5l47.4-34.6-16.7 5.2-29.7 14.6z"/><path fill="#5f2c32" d="M126 184h50v20h-50z"/><path fill="#e3eeea" d="M65 63l-2 10 25-7z"/><path fill="#d2bda6" d="M106 101l-31-6 9-5z"/><path fill="#382e3b" d="M234 87.9l-45.5 24.2 42-39-6.7-14z"/><circle r="1" fill="#8a5d95" transform="matrix(-3.10755 -1.11095 29.7059 -83.09354 162.2 45)"/><path fill="#c2a790" d="M13 67.6L-4.9 50.2l3.2 4.6 18-1.8z"/><path fill="#ded7d7" d="M37 181l5 11-17 2z"/><path fill="#c09292" d="M232.1 39.1l12.4 1.5-31 23.4-1.7-8.1z"/><path fill="#c3a15b" d="M72.6 75.8l4.2 8L62.6 88l-9.1-3.8z"/><path fill="#fbffff" d="M45 104h4v11h-4z"/><path fill="#bd9f94" d="M204.4 166.7l4.2-21.9 23.4-33.3-22 42z"/><path fill="#211f1e" d="M93.4 60.7l13-16-16.5 58.8.5-35.9z"/><path fill="#3b484f" d="M71 85l-20 6 32 67z"/><path fill="#444b40" d="M6.5 16.2l26 27.4L5-1.6 53.9-16z"/><path fill="#3a1b25" d="M187.7 125.4l50.2-30.2 12.2-13.3-32.4 39.9z"/><path fill="#3a2633" d="M186 61l-14 4 24 47z"/><path d="M-29.6 188.7l62.1 19-2.9 9.6-62.1-19z"/><path fill="#332936" d="M190 40l14 5 1 40z"/><path fill="#261c13" d="M39.9 96.3l-1.4 22.8-14.2 34 36.7-3.7z"/><path fill="#8d808d" d="M178 157l1 54-16-54z"/><path fill="#c49191" d="M180.8 79.9l14 58.5-20.6-51.5-.7-13.2z"/><ellipse cx="38" cy="60" fill="#fff" rx="4" ry="3"/><path fill="#8f8046" d="M60 153l-28 16-2-19z"/><circle r="1" fill="#bd8f88" transform="rotate(-77.4 197.7 -76) scale(20.86059 2.04361)"/><path fill="#cf3153" d="M204-12l25-4-37 49z"/><circle r="1" fill="#e1f6f0" transform="rotate(177.3 50.3 1.2) scale(1.64861 26.33632)"/><circle r="1" fill="#9170a2" transform="matrix(3.67035 1.22096 -17.58366 52.85844 128.1 139.5)"/><path fill="#baaa3c" d="M38.2 96.4l-1.5 3.2 10-30.1-1.4 29.4z"/><path fill="#55001d" d="M249 161l-15-39-9 46z"/><circle r="1" fill="#5b664b" transform="matrix(-9.30914 -.76331 3.65856 -44.61883 124.8 18)"/><path fill="#89183e" d="M178 191l47-71-43 30z"/><path d="M117-4l-14 14 7 14z"/><path fill="#1e242d" d="M255 147.7l-4.7 1.7-11.4-33.1 4.8-1.7z"/><path fill="#f38358" d="M84 72h11v8H84z"/><path fill="#606270" d="M-16 114l40-8 13-24z"/><circle r="1" fill="#1a2423" transform="matrix(-.62562 2.6219 -17.19173 -4.10215 103.5 91.7)"/><path fill="#000003" d="M85.1 71l-7.9 11.1-5.1-9.2 35.4-12.6z"/><circle r="1" fill="#bfaf8a" transform="matrix(6.88399 -8.1122 7.46617 6.33577 31.7 23.8)"/><circle r="1" fill="#b1bfbe" transform="rotate(-56.6 98.8 -59.6) scale(15.76848 2.79193)"/><path fill="#c89ba9" d="M151 0h37v32h-37z"/><path fill="#ffb4bb" d="M26 134h5v7h-5z"/><path fill="#8f756e" d="M228.5 162l-21.3 23.6 3.5-35.5-9.1 12z"/><circle cx="35" cy="46" r="10" fill="#ba4e25"/><path fill="#453a2a" d="M52.5 30.5l30.1 43.6-33.7-40.9L26.8-5.4z"/><path fill="#36000b" d="M270 173l-22 46 2-41z"/><path fill="#707075" d="M259 138l-27 59 28-32z"/><path fill="#873907" d="M-16 177l44 7-6 12z"/><path fill="#0b2f40" d="M244.3 54.1L271 10.8 248.5 40l4.5 33.9z"/><path fill="#ccadb0" d="M136.8 153.7L115.6 219l.5-37.7 29.7-77.7z"/></g></g></svg>