<svg xmlns="http://www.w3.org/2000/svg" viewBox="0 0 1400 1400"><defs/><filter id="a"><feGaussianBlur stdDeviation="12"/></filter><rect width="100%" height="100%" fill="#685458"/><g filter="url(#a)"><g fill-opacity=".5" transform="translate(2.7 2.7) scale(5.46875)"><circle r="1" fill="#ff6286" transform="matrix(98.62988 -132.60705 201.73095 150.04254 137 114.3)"/><circle cx="122" cy="17" r="138" fill="#f77e95"/><circle r="1" fill="#a81e2f" transform="matrix(60.7303 21.62509 -44.46467 124.8713 217 206)"/><ellipse cx="139" cy="50" fill="#f2c8d0" rx="75" ry="18"/><ellipse cx="38" cy="241" fill="#a90b1d" rx="200" ry="18"/><circle r="1" fill="#e0848e" transform="matrix(-.48398 -27.7271 84.63372 -1.47729 126.6 196)"/><circle cx="5" cy="148" r="54" fill="#bc243b"/><ellipse cx="128" cy="75" fill="#ab243d" rx="110" ry="8"/><path fill="#e4a3ac" d="M115.8 160.2l79.5-13.4 14.3-21.1L43 127.2z"/><ellipse cx="103" cy="51" fill="#d14262" rx="250" ry="5"/><path fill="#a61c2f" d="M76 113h122v13H76z"/><ellipse cx="135" cy="163" fill="#810007" rx="39" ry="7"/><ellipse cx="185" cy="96" fill="#970d1d" rx="29" ry="6"/><ellipse cx="82" cy="61" fill="#fffefd" rx="23" ry="6"/><path fill="#760615" d="M199.3 245.6l35.8 1.6-34.8-54.4 70.7-49.9z"/><ellipse cx="97" cy="42" fill="#fbeff2" rx="47" ry="6"/><path fill="#bc3851" d="M112 6h60v30h-60z"/><circle r="1" fill="#df617f" transform="matrix(-43.76075 -36.20204 15.81182 -19.11321 238.6 81.7)"/><ellipse cx="104" cy="109" fill="#edc2c7" rx="61" ry="5"/><path fill="#76000b" d="M56 69l-23 1 34-24z"/><ellipse cx="120" cy="179" fill="#850007" rx="104" ry="2"/><path fill="#e8b3c0" d="M171 171h35v17h-35z"/><path fill="#f58ba5" d="M0 156h20v28H0z"/><circle r="1" fill="#dd4764" transform="matrix(-3.15546 -20.6583 37.4808 -5.72501 40.7 211.3)"/><path fill="#fbb1bc" d="M92.4 202.6l-59.9-45.2 3-4 60 45.2z"/><path fill="#e9c3c6" d="M72 83h103v8H72z"/><path fill="#840000" d="M54 145l40 1-40 10z"/><ellipse cx="21" cy="80" fill="#ef7293" rx="20" ry="35"/><path fill="#e86a83" d="M37.6 265.5l101.5-22.4-.4 27.9L51 235.2z"/><ellipse cx="124" cy="217" fill="#e6b9be" rx="59" ry="5"/><ellipse cx="156" cy="42" fill="#fceaed" rx="40" ry="6"/><ellipse cx="161" cy="203" fill="#9a071b" rx="38" ry="4"/><circle cx="35" cy="174" r="13" fill="#82000b"/><circle r="1" fill="#fe8bb2" transform="rotate(79 13.4 27.8) scale(11.24957 37.24889)"/><path fill="#910f1f" d="M6 40l-22-9 55-6z"/><path fill="#80000c" d="M-6 251.7l41.9-27.2L50 246.3 8.1 273.5z"/><ellipse cx="176" cy="136" fill="#b52a42" rx="155" ry="2"/><path fill="#f9e4e7" d="M121 57h76v10h-76z"/><path fill="#760a19" d="M220 97l-26 55 14 25z"/><path fill="#7e000c" d="M33 194L5 181l-21 26z"/><path fill="#fca8b7" d="M99.6 177.6L83 155.4l15.2 7 41.2 15.7z"/><ellipse cx="158" cy="190" fill="#6b0000" rx="26" ry="2"/><path fill="#911c2f" d="M41 71h67v12H41z"/><path fill="#f0abb4" d="M76 182h39v18H76z"/><path fill="#e3677f" d="M193 161l-3 73 26-10z"/><path fill="#f47f98" d="M109.3 82.1l4.1-16.5L170.7 80l-4.1 16.5z"/><path fill="#e3697f" d="M109 223h35v16h-35z"/><path fill="#6e0a17" d="M183 86l16-8-32-12z"/><path fill="#7c0a16" d="M135.8 244.1l69.5-37-27.2 27.8 58.8 3.2z"/><path fill="#e7b4bc" d="M51.8 145.1l137-1.5-135.1-5.9-17 25.5z"/><path fill="#ff99b4" d="M218.6 217l41 44-2.2 2-41-44z"/><path fill="#a42837" d="M89 32l14-2-17-45z"/><path fill="#700006" d="M66 243l35-4-53-11z"/><path fill="#cb3e56" d="M88 199h68v14H88z"/><path fill="#860b17" d="M205 211l66 11-12 22z"/><path fill="#99303c" d="M145.9 120.2l4.5-22 34.8-3.5-45.4 29z"/><path fill="#6f0010" d="M165 170l39-20-85 16z"/><path fill="#a11c34" d="M62.8 170.7l-26.7-48.3-34.4 10.5 40.2-32.1z"/><path fill="#f1889e" d="M32.6 104.1l8 60.6 29 6.4-15.1 6.5z"/><path fill="#f782a4" d="M83.9 9.3L17.6 66.6l35-14.4 38.8-31z"/><path fill="#81000f" d="M28 140l19 18-62-20z"/><path fill="#8c2d37" d="M113 43l3 23 6-20z"/><path fill="#8b000f" d="M22 217l-38 4.8 27.8 15.8-10.2 22.3z"/><path fill="#f67b92" d="M201 250h37v6h-37z"/><path fill="#a12335" d="M73 101.7l18.4-11.9-22.9 1.3-2.1-25.2z"/><path fill="#e1b2ba" d="M171 105h40v8h-40z"/><path fill="#eca9b4" d="M88 150h81v6H88z"/><circle r="1" fill="#de6d85" transform="matrix(-.42993 -16.81112 9.00708 -.23035 119.6 149.5)"/><path fill="#ff9bc4" d="M6.9 243L-8 241l1.1-8L8 235z"/><path fill="#fbd5d7" d="M45 184h32v5H45z"/><path fill="#ebc5ca" d="M136 127h71v7h-71z"/><path fill="#7b091c" d="M271 112l-22 20-39-1z"/><path fill="#5c0004" d="M148 262l-14-22 25 7z"/><path fill="#ff86a7" d="M-9.6 148.2L15 128.6l6 16.1-24.2-25.3z"/><path fill="#68000a" d="M108 58l8 19-10-8z"/><ellipse cx="124" cy="146" fill="#ba2a45" rx="77" ry="2"/><path fill="#fb83a5" d="M11 202l23 15-50-1z"/><path fill="#5b0000" d="M110.3 156.1l-.6 7-14-1.2.6-7z"/><path fill="#e35571" d="M201 158l21-27 39 8z"/><path fill="#5a0006" d="M229 185l31 15-60-11z"/><path fill="#b2394d" d="M153.9 45.8l-4.8-53 33 22.3-16.6 5.3z"/><path fill="#500" d="M217 168l25-21-22 10z"/><ellipse cx="81" cy="126" fill="#790000" rx="3" ry="8"/><path fill="#c84863" d="M69.3 90.3l-8-41.4L58 28.3l-16.2 3.5z"/><ellipse cx="122" cy="12" fill="#ee7595" rx="26" ry="14"/><path fill="#d2b2b2" d="M219.6 81.4l.7 8-35.9 3.2-.7-8z"/><circle r="1" fill="#ce536f" transform="matrix(6.6902 -10.7191 35.99333 22.46479 228.7 80.8)"/><path fill="#ce4a63" d="M41 189h33v41H41z"/><path fill="#fc6d90" d="M228 161l-5 13 9 13z"/><path fill="#cebbb9" d="M132 192h43v7h-43z"/><path fill="#e8738c" d="M229 197l12.9-1 1.2 17-13 1z"/><path fill="#c23c56" d="M110.6 119.1L105 75.9l8.2 29.8-27.5-18z"/><ellipse cx="133" cy="109" fill="#b92d45" rx="3" ry="29"/><path fill="#a60b21" d="M127 213l6 16-2-22z"/><path fill="#99000f" d="M58 164h26v6H58z"/><circle r="1" fill="#f7637f" transform="matrix(-.16823 5.63135 -15.71233 -.4694 75.6 157.6)"/><ellipse cx="124" cy="57" fill="#fff" rx="28" ry="2"/><ellipse cx="159" cy="141" fill="#eab7bf" rx="42" ry="4"/><circle r="1" fill="#f97ca1" transform="matrix(-8.9954 21.72909 -14.26342 -5.90477 220.2 5.6)"/><path fill="#a13843" d="M169.8 15.8l-61.7 17 20 10.3-10.2-3.2z"/></g></g></svg>