<svg xmlns="http://www.w3.org/2000/svg" viewBox="0 0 1000 666"><defs/><filter id="a"><feGaussianBlur stdDeviation="12"/></filter><rect width="100%" height="100%" fill="#65373b"/><g filter="url(#a)"><g fill-opacity=".5" transform="translate(2 2) scale(3.90625)"><circle r="1" fill="#d5fffb" transform="matrix(-116.9299 -117.33877 91.3083 -90.99013 144.7 67.3)"/><ellipse cx="33" cy="11" fill="#f4fcf9" rx="93" ry="24"/><circle r="1" fill="#7d8762" transform="matrix(24.70557 -87.89286 49.85085 14.01244 29.1 119)"/><circle r="1" fill="#fff" transform="matrix(-29.5027 2.49011 -1.04284 -12.35552 114.8 150)"/><circle r="1" fill="#fff" transform="rotate(-102.7 85.2 12.6) scale(10.0297 41.08164)"/><circle r="1" fill="#430000" transform="rotate(-104.7 66.5 15.3) scale(8.17483 26.15762)"/><path fill="#3ca3ab" d="M131 71h65v63h-65z"/><path fill="#fff500" d="M12.5 115.5l47.7-5.9 1.3 11-47.7 5.8z"/><circle r="1" fill="#000803" transform="matrix(-36.36104 2.53559 -.2983 -4.27771 33.5 41.4)"/><ellipse cx="155" cy="53" fill="#826f35" rx="59" ry="14"/><circle r="1" fill="#b8cdd8" transform="rotate(94.6 92.2 95) scale(24.21088 87.69989)"/><ellipse cx="107" cy="123" fill="#006698" rx="22" ry="9"/><path fill="#515245" d="M267.5 105.9l-4.4 35.7-44.6-5.5 4.4-35.7z"/><circle r="1" fill="#ffffe7" transform="matrix(25.41135 -10.22028 4.17714 10.3859 245.7 68)"/><path fill="#006f6e" d="M16.9 67.6L-16 83.5l29.7 15.3 8.8-20.3z"/><path fill="#ffffa6" d="M156 96l47 25 34-8z"/><ellipse cx="35" cy="142" fill="#485662" rx="46" ry="19"/><circle r="1" fill="#fffeef" transform="matrix(-13.14372 -15.24199 63.92242 -55.12264 255.9 163)"/><ellipse cx="95" cy="33" rx="17" ry="4"/><path fill="#fff" d="M21 45h33v8H21z"/><circle r="1" fill="#ebf7ef" transform="matrix(.69433 -5.96766 34.72398 4.04012 201 140.7)"/><ellipse cx="174" cy="128" fill="#00d9be" rx="27" ry="6"/><ellipse cx="109" cy="150" fill="#fff" rx="30" ry="9"/><path fill="#c66a02" d="M71 31L20 68l61-13z"/><ellipse cx="4" cy="100" fill="#f2fafe" rx="45" ry="4"/><path fill="#49453a" d="M230.9 165.9l-45.1-9.6 16.6-8.7 27.5 4.9z"/><path fill="#fff" d="M240.3 99.3l-31-1.6.4-7 31 1.6z"/><path d="M184 46l18-9-17-1z"/><path fill="#f2dde6" d="M144.3 38l-66.5 3.6 2.4 8.1 59.4-3.3z"/><circle r="1" transform="matrix(-.09062 2.14175 -24.75534 -1.0474 255.8 37.2)"/><path fill="#e1c3d1" d="M172.1 66.8l34.6-7.8-49.5-5.7-2 12.9z"/><circle r="1" fill="#b8cccc" transform="matrix(-16.02632 1.51493 -1.02883 -10.88388 48.8 169.1)"/><path fill="#fff" d="M83.9 184.1L75 88.5l63.8 1.7-55.8 18z"/><circle r="1" fill="#626c60" transform="rotate(105.6 49.3 85.7) scale(41.31985 10.37544)"/><ellipse cx="172" cy="50" fill="#a67200" rx="35" ry="5"/><path fill="#f9fdfe" d="M128.6 133.5l-32 34.8 40.7-34.5-18.4-67.4z"/><path fill="#e7d6bc" d="M55.8 79.4l-27.6 2.2 20.7-21.7 23.5 7.4z"/><ellipse cx="166" cy="82" fill="#1892e5" rx="25" ry="8"/><path fill="#750008" d="M104 85L76 68 58 87z"/><circle r="1" fill="#000817" transform="matrix(-20.17375 3.44836 -.70511 -4.12506 17.6 42.5)"/><path fill="#007543" d="M256.4 70.4l-1.3 4.8-13.5-3.6 1.3-4.8z"/><path fill="#fbfae6" d="M175 138h14v27h-14z"/><path fill="#a4b4af" d="M13.7 164.3L-3.1 92.7l19.3 37-6.7-5.2z"/><path fill="#fffffb" d="M196 160l48 6-57 19z"/><path fill="#ff0" d="M209.3 80.6l.4 8-15 .8-.4-8z"/><path fill="#aeffff" d="M182.2 101.9l-31.5-2.5-3 37.6.4-47.1z"/><path fill="#00b5ed" d="M73.9 129.2l29.5.8-5.1-13.5-27.5 9z"/><path fill="#4c504d" d="M193.9 99.2l2.9-7.5 65.3 25.1-2.9 7.5z"/><path fill="#88e1ff" d="M127 102l-1 13-35-5z"/><path fill="#fff" d="M233 55h22v13h-22z"/><path fill="#f9e2b3" d="M93 65h29v14H93z"/><path fill="#ffca08" d="M47.5 124l25.2-12.3-50.1-.3-7.7 14z"/><path fill="#3f3f2e" d="M131.7 175l-20.7 3.7-2.7-15.8 20.7-3.6z"/><path fill="#645f3a" d="M88 52h51v14H88z"/><path fill="#576572" d="M183 70l32-8 8 28z"/><path fill="#3f5d77" d="M52.9 84.2l25.2 14.2-84 19.4 52.2-9z"/><path fill="#d4d7d2" d="M57.1 54.3l-17.5 2.4-12.7-70.9 17.3 55.6z"/><path fill="#776e6c" d="M175.8 161.1L148.6 137l-12.3-86-3.5 88.2z"/><ellipse cx="197" cy="108" fill="#ffffca" rx="23" ry="3"/><path fill="#2c0000" d="M249 80h7v7h-7z"/><path fill="#004d63" d="M98.9 132.5l12.3-3.4 17-6.1-25-7.5z"/><path fill="#ceb999" d="M0 50h26v20H0z"/><path fill="#005f5b" d="M-20.9 80.8l36-9 5.8 23.4-36 9z"/><path fill="#fff5e9" d="M174 89l31-2-19 7z"/><ellipse cx="181" cy="102" fill="#5f4f54" rx="31" ry="3"/><path fill="#f7fdfe" d="M24 95h28v5H24z"/><path fill="#fff" d="M192 93h3v30h-3z"/><ellipse cx="243" cy="111" fill="#07070d" rx="4" ry="12"/><path fill="#2a2c2a" d="M48.4 136.3l-35.7 4.4-1.1-9 35.7-4.4z"/><ellipse cx="166" cy="35" fill="#e1f9f1" rx="16" ry="3"/><path fill="#003627" d="M147 30h20v4h-20z"/><ellipse cx="103" cy="94" fill="#fff3f1" rx="28" ry="9"/><ellipse cx="223" cy="42" fill="#dbd1c8" rx="30" ry="4"/><path fill="#fff" d="M94 160.3l-12.1-11.5 54.2-14.7 2.3 13.6z"/><path fill="#b98300" d="M32.9 65.5L27 58.7l40.2-6.9-11.8 10.7z"/><path fill="#effaff" d="M71.6 140L61.4 92.2l1-.2 10.2 48z"/><circle r="1" fill="#041124" transform="matrix(-5.39627 4.09657 -2.52633 -3.32785 15.5 111.3)"/><ellipse cx="121" cy="83" fill="#286684" rx="21" ry="3"/><path fill="#67ffff" d="M138 94h39v5h-39z"/><path fill="#080000" d="M232 35h24v4h-24z"/><path fill="#624700" d="M73.9 47.6l-21 1.8-.8-9 21-1.8z"/><path fill="#938b8b" d="M254.5 120.5l5.7 6.5L138 107.2l120.6 27.6z"/><path fill="#ffd4b9" d="M216 67l28 3 4 22z"/><path fill="#000013" d="M186 38h21v3h-21z"/><path fill="#00c4b5" d="M147 122h47v11h-47z"/><path fill="#ce9900" d="M103 63l14-11-20 1z"/><path fill="#b39084" d="M164 102l-18 17 50 3z"/><path fill="#ada4aa" d="M144 54h66v13h-66z"/><path fill="#676572" d="M178 75l-55-4-21-36z"/><ellipse cy="16" fill="#d0d1d1" rx="90" ry="22"/><ellipse cx="26" cy="87" fill="#8fb1de" rx="18" ry="4"/><path fill="#251e19" d="M55 140h10v16H55z"/><path fill="#e8e5d7" d="M200.2 149.5l4.5-13.1-15.7-19.1 39.3 26.5z"/><path fill="#896000" d="M180 45h28v10h-28z"/><path fill="#859491" d="M2 147h21v13H2z"/><path fill="#72000f" d="M78 72h15v16H78z"/><path fill="#45402d" d="M228 51h4v16h-4z"/><path fill="#ffe774" d="M212 104l30 15-49-6z"/><path fill="#332525" d="M231 85h10v7h-10z"/><path fill="#adb5b0" d="M109.8-21l57 3-2.6 49-57-3z"/></g></g></svg>