<svg xmlns="http://www.w3.org/2000/svg" viewBox="0 0 1400 933"><defs/><filter id="a"><feGaussianBlur stdDeviation="12"/></filter><rect width="100%" height="100%" fill="#2d3d5c"/><g filter="url(#a)"><g fill-opacity=".5" transform="translate(2.7 2.7) scale(5.46875)"><circle cx="163" cy="102" r="181" fill="#fff7c7"/><ellipse cx="189" cy="57" fill="#f1ddd5" rx="56" ry="93"/><circle r="1" fill="#131a11" transform="matrix(-8.6734 -35.77737 58.1212 -14.09016 117.8 169)"/><circle r="1" fill="#5a3f42" transform="rotate(57.3 -55.8 102.5) scale(23.8443 80.09097)"/><path fill="#fff0f1" d="M124.1.7l-20.6 51L48 29.3l20.6-51z"/><path fill="#ffd6b7" d="M110 136l-60 19 61-89z"/><ellipse cx="22" cy="12" fill="#410" rx="28" ry="11"/><ellipse cx="25" cy="47" fill="#290500" rx="17" ry="12"/><ellipse cy="30" fill="#fff" rx="30" ry="9"/><path fill="#513500" d="M154 132l-30-38-3 90z"/><circle r="1" fill="#df9770" transform="matrix(-51.55275 12.18655 -5.50628 -23.29321 24.4 152.8)"/><circle r="1" fill="#e5dad2" transform="matrix(-44.43546 -96.36669 20.28979 -9.35579 139.2 5.7)"/><path fill="#ec9665" d="M119 45L-16 63l43 24z"/><circle r="1" fill="#1f528d" transform="matrix(13.1795 8.0764 -13.86837 22.63112 81.1 93.3)"/><path fill="#693011" d="M16.1 94.4l18.6 4.2 122.6-57.4L11.7 84.8z"/><path fill="#000736" d="M114 26h14v14h-14z"/><path fill="#124192" d="M194.6 174.8l-25.7 22.3-29.5-34 25.7-22.2z"/><ellipse cx="231" cy="106" fill="#b4a7a2" rx="32" ry="141"/><path fill="#5c3c16" d="M60.7 113.3l17 6.2-22.2 8.3-56.2-15.5z"/><path fill="#f6e4df" d="M-13 47l26 41-29 71z"/><circle r="1" fill="#4d450a" transform="rotate(-137.2 79.8 14.2) scale(13.40776 5.78598)"/><circle r="1" fill="#bbae95" transform="matrix(-.9713 10.80135 -24.0122 -2.1593 8.8 0)"/><path fill="#3966a5" d="M86 63L40 15l16 37z"/><path fill="#f8c4a5" d="M108 133l-76 12 102-59z"/><circle r="1" fill="#7b3d20" transform="matrix(-3.73915 -5.41935 46.3427 -31.97474 54 169)"/><path fill="#c98b65" d="M73 75l-89-37 30 48z"/><path fill="#2d1a1d" d="M22.6 16.9l38-32.9-27 40.9 6 26.1z"/><path fill="#a5d0fa" d="M36 15h12v27H36z"/><path fill="#b6b3aa" d="M152.7 135.7l32.3 32.8 60.8-19.4-119.6-67.6z"/><path fill="#d9e0d8" d="M5.8 115.4L4 110.7l26.2-10 1.8 4.6z"/><path fill="#fff" d="M-8.2 55.3l34.6-28.6-42.4-8.9v13.6z"/><path fill="#bb181a" d="M122 97h13v26h-13z"/><path fill="#c3d8e8" d="M34 138L6 149l18-25z"/><path fill="#d2c4ba" d="M91 118.8l31.5-3.9 15.8 70.1-33.6-117.7z"/><circle cx="39" cy="132" r="8" fill="#3a5973"/><ellipse cx="152" cy="23" fill="#d6cdc3" rx="28" ry="33"/><circle r="1" fill="#407fb1" transform="matrix(3.9576 5.08377 -11.0147 8.57471 114 144.4)"/><circle r="1" fill="#3f4a58" transform="matrix(-.99616 .08758 -5.10866 -58.10569 78 55.5)"/><path fill="#ebcbb3" d="M85 53l-61 4 18 12z"/><path fill="#622b15" d="M109 47h28v13h-28z"/><path fill="#0f0d0c" d="M15.4 84L41 97.6l-2.4 4.4L13 88.4z"/><path fill="#ca9065" d="M120 98l-30 53 36-24z"/><path fill="#6589b5" d="M110 63h11v37h-11z"/><path fill="#d6d1d3" d="M75 54L70 4 41-10z"/><path fill="#91a9ac" d="M54.9 88.4l-16.1 6.3 29 19.1L60 91.1z"/><path fill="#f5c3a2" d="M119.7 43L82.4 60.4l-3.3-8.5 32.7-15.2z"/><path fill="#422117" d="M43.1 3.7L3.3 16.3l9.1 9.2L49 12.8z"/><path fill="#2a2014" d="M77 54l12 17-14 3z"/><path fill="#987662" d="M-1.3 183.2l8.5-8.1 7.2-83.9L.6 112.6z"/><path fill="#f1dbe6" d="M95.3 72l-1.6 22h-1l1.6-22z"/><path fill="#3a4c1c" d="M151.4 136.2l-13.7-17.9-6.6-17.4 6 68.7z"/><path fill="#fff" d="M5.2 36.3l-1.3-12 24.9-2.6 1.3 12z"/><circle cx="179" cy="65" r="45" fill="#cec6bd"/><path fill="#2b0800" d="M35 43L20 54l19 2z"/><path fill="#335a96" d="M111 33l13-5-9-16z"/><path fill="#254468" d="M19.2 111.8l14 13.3 8 16.9-27.8-27.7z"/><circle r="1" fill="#9d9590" transform="matrix(30.49153 -9.95215 5.72974 17.55485 240.7 114)"/><path fill="#ded1cb" d="M100 69h10v57h-10z"/><circle r="1" fill="#a16f53" transform="matrix(-1.73199 -24.81724 5.95832 -.41583 10.5 61.1)"/><circle r="1" fill="#e1bb98" transform="matrix(-4.62632 -12.78008 25.58528 -9.26174 63.5 141.3)"/><path fill="#395d83" d="M57 83l40 15-24 21z"/><path fill="#ce8960" d="M-24 158.7l63.8-17L50 179.2l-63.7 17z"/><circle r="1" fill="#6e3524" transform="matrix(-1.99829 -6.1501 20.88866 -6.78714 98.5 64.6)"/><path fill="#475373" d="M77 49l-3-14 17 10z"/><circle r="1" fill="#233513" transform="matrix(-6.20819 19.6356 -4.68625 -1.48165 116.8 166.4)"/><path fill="#b49d81" d="M138.9 73.9l-5.3 1.5L116 61.3l24-8.7z"/><circle r="1" fill="#cebad3" transform="matrix(-1.17354 -7.75965 1.4793 -.22372 97.2 154)"/><path fill="#a6ccf3" d="M36.2 124l10.8 2.1-1.2 5.9-10.8-2.1z"/><path fill="#3d2930" d="M31 2h19v14H31z"/><path fill="#5e3e21" d="M73 116l-23-9 3 24z"/><path fill="#e6c5a7" d="M31 154l94-32-22-26z"/><path fill="#3f3a2d" d="M21.7 97.3l-12.9 3.5L14 107l14.6-7.4z"/><path fill="#b8aea7" d="M200.8 56.4l34.6-34.6 43.8 43.8-34.6 34.6z"/><path fill="#86a656" d="M136.3 112.8l32.9 28-23.3 7.9 5.6-8.7z"/><path fill="#6390bc" d="M56.5 31.4l-13 29.9-5.8-43.1 45.5 40.9z"/><ellipse cx="98" cy="16" fill="#e1dad3" rx="16" ry="18"/><path fill="#322627" d="M74.6 84.8L84.1 61l5.2 11-60.6 20.7z"/><path fill="#72482f" d="M74 155l89 30H15z"/><path fill="#e2f6f5" d="M20 113l12-5-4 4z"/><path fill="#0c4e81" d="M116.7 90.7l-.4 9-7-.4.4-9z"/><path fill="#38271c" d="M17.9 11.9l14.2 19.3 1.1 5.7 2.4-10.1z"/><path fill="#bea287" d="M113.9 73L142 98.3l-6 6.7-28-25.4z"/><path fill="#102a61" d="M90 161l-13-7 15-7z"/><path fill="#000616" d="M124.9 57.8l3.2-5.6-6.8-2-5.5 1.1z"/><circle r="1" fill="#3f7ec8" transform="rotate(134.5 57.7 120.7) scale(1.8275 32.33223)"/><path fill="#c4bcb6" d="M181 60l-23 85 35-18z"/><path fill="#4d4c22" d="M159.8 142.9l-19.9-21.7-22.7 12.4 2.1.9z"/><path fill="#bc7e54" d="M78 73.1L37 86.4l-3-9.5 40.8-13.3z"/><path fill="#544037" d="M-6 123l-8 31 22-11z"/><path fill="#2e4a4f" d="M34.8 108.6l-.6-21.3 9.9 16.3 2.6 6.8z"/><path fill="#253858" d="M202 185l-74-9 29-32z"/><path fill="#a39b94" d="M-6 113l37 14-19 12z"/><path fill="#dacfc4" d="M137.6 45.4l-48.5-2.3 77-5.2-3.4 96.5z"/><path fill="#385a8c" d="M46 24l24 22-5 8z"/><path fill="#855633" d="M-13.2-16h71.7L-9.8 15.4 15 16.6z"/><circle r="1" fill="#935533" transform="matrix(1.02776 1.88328 -43.05438 23.4959 84.4 65.9)"/><path fill="#c2b1a7" d="M25 9L10 7 41-8z"/><circle r="1" fill="#be8c62" transform="matrix(-1.12236 -2.57687 20.94222 -9.12142 91.6 138.6)"/><path fill="#3c6594" d="M88 106l2-31-35 12z"/><path fill="#f4fbfd" d="M40 16h6v6h-6z"/></g></g></svg>