<svg xmlns="http://www.w3.org/2000/svg" viewBox="0 0 1400 1120"><defs/><filter id="a"><feGaussianBlur stdDeviation="12"/></filter><rect width="100%" height="100%" fill="#4f2b31"/><g filter="url(#a)"><g fill-opacity=".5" transform="translate(2.7 2.7) scale(5.46875)"><ellipse cx="122" cy="71" fill="#fff" rx="255" ry="129"/><circle r="1" fill="#fff" transform="matrix(210.33885 -51.66418 17.63171 71.78348 78.8 103.6)"/><ellipse cx="190" cy="153" fill="#2b3514" rx="47" ry="24"/><ellipse cx="111" cy="7" fill="#2e0b00" rx="255" ry="10"/><circle r="1" fill="#fffffc" transform="rotate(60.4 17.5 278) scale(102.48395 24.24131)"/><ellipse cx="199" cy="181" fill="#fff" rx="255" ry="6"/><ellipse cx="114" cy="199" fill="#5c4233" rx="255" ry="13"/><ellipse cx="43" cy="95" fill="#eefcd8" rx="134" ry="80"/><path fill="#201500" d="M176 164h74v13h-74z"/><circle r="1" fill="#0e0f00" transform="matrix(-5.42482 -5.44379 11.35517 -11.3156 142.3 163)"/><circle r="1" fill="#8f8555" transform="matrix(104.0681 1.00441 -.05388 5.5828 103 46.2)"/><circle cx="249" cy="44" r="28" fill="#fff"/><ellipse cx="84" cy="26" fill="#939664" rx="148" ry="6"/><ellipse cx="110" cy="181" fill="#fff" rx="197" ry="6"/><path fill="#959267" d="M1 76h55v16H1z"/><path fill="#fff" d="M248.4 102.6l42.8 52.9-29.6 23.9-42.8-52.9z"/><ellipse cx="71" cy="62" fill="#fffffb" rx="157" ry="12"/><path fill="#80878e" d="M226 125l2 43-76-45z"/><path fill="#e3edd9" d="M121 178l-135-1L226 48z"/><ellipse cx="121" cy="199" fill="#6b514b" rx="255" ry="13"/><path fill="#f6ff73" d="M165.2 144l15.8 18.1-37.3 22.1 18.6-16.6z"/><ellipse cx="38" cy="19" fill="#fff" rx="252" ry="3"/><ellipse cx="32" cy="36" fill="#fff" rx="255" ry="4"/><ellipse cx="236" cy="97" fill="#dae8c9" rx="62" ry="33"/><path fill="#fff" d="M24 93h63v15H24z"/><path fill="#3d3d1f" d="M133.3 167l19.8-26.3 13.6 10.2-19.8 26.4z"/><path fill="#433c44" d="M228.7 156.7l35.6 29.5-35.4-44.4-75.2 38.2z"/><circle r="1" fill="#fff" transform="matrix(43.51426 5.39855 -1.73718 14.00228 244.2 51)"/><path fill="#8d8d59" d="M169 24h63v9h-63z"/><path fill="#cdcaa9" d="M87 65h155v9H87z"/><circle r="1" fill="#fff" transform="matrix(5.42224 .08518 -1.03855 66.1106 87.6 118.3)"/><ellipse cx="124" cy="180" fill="#fff" rx="56" ry="6"/><path fill="#7b7135" d="M32 89h50v3H32z"/><ellipse cx="51" cy="87" fill="#fff" rx="150" ry="2"/><path fill="#ffff83" d="M217 168l18-8-9-4z"/><ellipse cx="104" cy="36" fill="#705d28" rx="2" ry="21"/><path fill="#fff" d="M120 177h136v10H120zM16 141h67v9H16z"/><ellipse cx="158" cy="21" fill="#fff" rx="68" ry="2"/><path fill="#fff" d="M168 118h52v6h-52zm-46.1-83l-6.6 29L271 49.9l-143.3 4.2zM75 21h7v15h-7z"/><ellipse cy="81" fill="#fff" rx="236" ry="2"/><ellipse cx="13" cy="96" fill="#5a5010" rx="11" ry="2"/><path fill="#f3fffa" d="M221.4 143.4l12-25.2 37.6 23.9-59.4-5.6z"/><path fill="#fdffff" d="M34.2 74.7l16.2-48 2.1 12.5-15.2-5z"/><path fill="#9fc600" d="M146 171l25-18.1 3 4-25 18.2z"/><ellipse cx="185" cy="134" fill="#82858a" rx="28" ry="11"/><path fill="#92955e" d="M166 42h34v10h-34z"/><path fill="#fff" d="M229 17h27v42h-27z"/><ellipse cx="44" cy="199" fill="#6a4f4b" rx="254" ry="13"/><path fill="#fff5ef" d="M181.9 158.7l-28 21-1.8-2.4 28-21z"/><path fill="#8c8d6a" d="M4 41h33v10H4z"/><ellipse cx="222" cy="172" fill="#3f321c" rx="30" ry="5"/><path fill="#f7fef5" d="M166.1 34.6L11 31.7l-27 9.1 153.8 1z"/><path fill="#3e3600" d="M46 36l6 14-1-11z"/><path fill="#c5c7a0" d="M2 175h110v4H2z"/><path fill="#766433" d="M83 31.7L81.1 20l9.9-1.6L92.9 30z"/><path fill="#322c00" d="M3 19h13v2H3z"/><ellipse cx="158" cy="46" fill="#5b5812" rx="2" ry="10"/><path fill="#3f353c" d="M193.6 138.1l-26.2 38.6 28.1-10.9 1.7-26.8z"/><path fill="#92885a" d="M0 77h84v3H0z"/><ellipse cx="171" cy="74" fill="#fff" rx="4" ry="30"/><path fill="#fff" d="M46 173h80v3H46z"/><path fill="#fdffff" d="M251.8 168.8l-23-32.7 21.4-15 23 32.8z"/><ellipse cx="178" cy="103" fill="#bcbd9a" rx="93" ry="2"/><path fill="#fff" d="M72.1 74.8l13.2 23.7 2.2-23-18-35.6zm86.3-33.1l-5 .5-1.8-22 5-.4z"/><path fill="#b4b287" d="M177 84h77v3h-77z"/><path fill="#fff" d="M5 22l7-1v9z"/><path fill="#b9bc97" d="M0 163h104v3H0z"/><path fill="#989267" d="M142 21l7 11-46-1z"/><ellipse cx="208" cy="69" fill="#feffff" rx="159" ry="2"/><ellipse cx="176" cy="97" fill="#c1bd97" rx="89" ry="2"/><path fill="#3e1600" d="M140.7 42h3l-.4 12h-3z"/><ellipse cy="37" fill="#fff" rx="2" ry="22"/><path fill="#fff" d="M177 17h2v48h-2z"/><ellipse cx="122" cy="115" fill="#cacca6" rx="150" ry="2"/><path fill="#595563" d="M152.8 139.7l86.4 13-72.2-25.6 66.3 49.9z"/><ellipse cx="93" cy="112" fill="#f8ffff" rx="161" ry="2"/><path fill="#fff" d="M182 24h3v26h-3z"/><path fill="#c4cb7d" d="M190 131l20 24-11-27z"/><ellipse cx="209" cy="91" fill="#c6be99" rx="125" ry="2"/><path fill="#fff" d="M276.4 74l.2 9-57 1-.2-9z"/><ellipse cx="223" cy="109" fill="#c1c7a7" rx="241" ry="2"/><path fill="#f4fffa" d="M175.3 110.8l1.1 16.7-10.2-15.6 7.3-94.1z"/><path fill="#aeb08b" d="M14 151h66v3H14z"/><ellipse cx="24" cy="127" fill="#c3c39d" rx="150" ry="2"/><ellipse cx="27" cy="84" fill="#857b47" rx="28" ry="2"/><path fill="#150500" d="M14 16h2v15h-2z"/><path fill="#5e560e" d="M229 127h8v3h-8z"/><ellipse cx="85" cy="123" fill="#fff" rx="3" ry="64"/><path fill="#fefce3" d="M161 138l11 2 2-5z"/><path fill="#bfb891" d="M121 78h103v3H121z"/><ellipse cx="42" cy="15" fill="#6e544e" rx="165" ry="2"/><path fill="#f9ce91" d="M2 64h45v6H2z"/><ellipse cx="79" cy="100" fill="#feffff" rx="197" ry="2"/><path fill="#6b514c" d="M3 187h253v17H3z"/><path fill="#686229" d="M219 38l-5-5 3-10z"/><ellipse cx="53" cy="58" fill="#fff" rx="59" ry="7"/></g></g></svg>