<svg xmlns="http://www.w3.org/2000/svg" viewBox="0 0 933 1400"><defs/><filter id="a"><feGaussianBlur stdDeviation="12"/></filter><rect width="100%" height="100%" fill="#292e51"/><g filter="url(#a)"><g fill-opacity=".5" transform="translate(2.7 2.7) scale(5.46875)"><ellipse cx="86" cy="155" fill="#fff" rx="169" ry="120"/><circle r="1" fill="#fff" transform="matrix(5.22134 -76.58939 168.60864 11.49458 77 116.4)"/><circle r="1" fill="#121a34" transform="matrix(4.48234 -33.38606 52.28105 7.01914 91 210.4)"/><circle r="1" fill="#fff" transform="matrix(31.23246 50.3728 -143.63187 89.05553 38.2 141.3)"/><circle r="1" fill="#fff" transform="matrix(-16.61252 11.37483 -74.4988 -108.80275 142.4 173.3)"/><ellipse cx="83" cy="249" fill="#fff" rx="169" ry="7"/><path fill="#080a21" d="M9 228h154v15H9z"/><circle r="1" fill="#444e5c" transform="matrix(-10.7133 -18.36183 38.19399 -22.28448 63.5 206.8)"/><path fill="#fff" d="M-14.6 262.9L-1.3 53.2l160-4.9-145 181.8z"/><ellipse cx="97" cy="43" fill="#bd8f09" rx="159" ry="6"/><circle r="1" fill="#fff" transform="matrix(40.01006 -18.0791 49.22675 108.94159 169 160.3)"/><circle r="1" fill="#004784" transform="matrix(.02712 22.12676 -120.8997 .1482 79 18.2)"/><ellipse cx="26" cy="252" fill="#fff" rx="165" ry="11"/><ellipse cx="48" cy="21" fill="#9bb5c3" rx="39" ry="6"/><ellipse cx="117" cy="149" fill="#fff" rx="169" ry="29"/><path fill="#0d1438" d="M58 173L8 237l27 3z"/><path fill="#fff4d9" d="M73 219l-40 23 21-4z"/><circle r="1" fill="#111945" transform="matrix(-14.66661 -19.66487 4.6564 -3.47288 146.2 222.8)"/><path fill="#00549c" d="M107 94h16v7h-16z"/><circle r="1" fill="#fff" transform="matrix(4.26198 43.50202 -25.47726 2.49606 0 189.6)"/><path fill="#fffec1" d="M133 219l2 9-17 1z"/><ellipse cx="69" cy="57" fill="#fff" rx="169" ry="9"/><path fill="#717995" d="M57 177h68v28H57z"/><circle r="1" fill="#fff" transform="rotate(-49.1 296.8 -81.3) scale(21.01069 57.24857)"/><ellipse cx="62" cy="253" fill="#fff" rx="169" ry="10"/><path fill="#b3b76e" d="M56 236l-5-36 22 21z"/><path fill="#00215c" d="M0 27h170v12H0z"/><path fill="#fff" d="M56 175l-68 82 10-108z"/><ellipse cx="16" cy="43" fill="#d3b15f" rx="169" ry="5"/><ellipse cx="73" cy="70" fill="#fff" rx="169" ry="22"/><path fill="#5b0100" d="M0 70h31v2H0z"/><path fill="#1a1e42" d="M51 235h112v8H51z"/><ellipse cx="84" fill="#00225b" rx="169" ry="17"/><ellipse cx="97" cy="152" fill="#fffffe" rx="169" ry="26"/><ellipse cx="130" cy="112" fill="#c8c8c5" rx="167" ry="3"/><circle r="1" fill="#242755" transform="matrix(-28.6362 7.92666 -2.74103 -9.90238 95.4 224.1)"/><path fill="#ffffca" d="M124 192l1 8-10-4z"/><path fill="#fff" d="M174 33l5 221-46-62z"/><path fill="#505878" d="M54 178h31v14H54z"/><path fill="#ede39b" d="M107 210H95l10-9z"/><ellipse cx="142" cy="23" fill="#40688a" rx="121" ry="5"/><path fill="#272b4f" d="M143.8 213.8l-.1 13.4-55.3 9.3 79.1 3.2z"/><path fill="#bb766f" d="M142.8 97.6l-7.4-4.4-3 5.9 13.4-.6z"/><path fill="#36433f" d="M57 231l-28.8 11.6L21 225l28.7-11.6z"/><path fill="#002f63" d="M29 17.4l-7.8 11.9L1.5-.8l-.3 41.4z"/><path fill="#9bafc0" d="M60 17h23v10H60z"/><path fill="#ffedd2" d="M60 197l7-6-16 5z"/><ellipse cx="102" cy="255" fill="#fff" rx="169" ry="12"/><path fill="#b8b99a" d="M95 194l11-5-32-6z"/><path fill="#7c9ca2" d="M57 96h21v3H57z"/><ellipse cx="102" cy="103" fill="#fff" rx="169" ry="4"/><path fill="#fff" d="M26 17h2v8h-2z"/><path fill="#003163" d="M83 7h37v32H83z"/><path fill="#d8d8d7" d="M2 122h27v18H2z"/><path fill="#fff" d="M131 188.2l54 77.7-15.7-164.8-56.9 72.1z"/><path fill="#414b85" d="M101 186h13v20h-13z"/><path fill="#fff" d="M45.1 184l-56.7 76.4-4.4-89.6 70.4 20z"/><path fill="#d7babb" d="M55 237.8l-9.2 2.5L75 214.5l-.8 6z"/><ellipse cx="63" cy="8" fill="#001b53" rx="2" ry="20"/><path fill="#f8d1a9" d="M45.6 237.3l.2 1-15.4 4.4-.2-1z"/><path fill="#000341" d="M32 20h10v5H32z"/><path fill="#001951" d="M72 3h3v22h-3z"/><path fill="#ded98f" d="M85 199l-14 3 9-7z"/><ellipse cx="138" cy="43" fill="#c4a862" rx="169" ry="5"/><path fill="#2c304d" d="M134 226l36 15-38 2z"/><path fill="#3b426d" d="M85.9 199.3l-23.6 8.2 1.5 9 52.5 9.5z"/><path fill="#fefefe" d="M30 116h140v61H30z"/><path fill="#2b2e53" d="M8.1 236.5l23-29.3 15.7 21-41.6 13.5z"/><path fill="#505978" d="M142.6 234.7l-26.8-60.6 30.4 37.8 2 3.2z"/><ellipse cx="12" cy="255" fill="#fff" rx="59" ry="14"/><path fill="#6b7938" d="M76.2 216.3l-60.4 28.4 37.6-25.4-1.2-4.8z"/><path fill="#455bc7" d="M60.2 225.2l-9.5 10.3-3-2.7 9.6-10.3z"/><path fill="#b89cb6" d="M123.8 234.6l-6.4-4.8 4.8-6.4 6.4 4.8z"/><path fill="#002f62" d="M0 27h113v12H0z"/><path fill="#6b87b1" d="M2 96h15v2H2z"/><path fill="#505a87" d="M58 177.8l-12.4 17.6 68.8-17L64 195.8z"/><path fill="#003063" d="M0 27h170v12H0z"/><circle r="1" fill="#fff" transform="matrix(-.9344 -12.72422 115.67753 -8.49483 150 62.7)"/><ellipse cx="66" cy="17" fill="#d5e2e8" rx="16" ry="1"/><path fill="#97adbf" d="M25 16H13l6 10z"/><path fill="#90231c" d="M135 96l3 2 1-5z"/><path fill="#fff" d="M-16 49.2l144 45.9 38.8-.3-96.1-44.2z"/><path fill="#0079af" d="M111 95h11v4h-11z"/><path fill="#3f4769" d="M37.7 202.8l49.7-10.9-30.3 15.6-14.5 18.7z"/><ellipse cx="28" cy="147" fill="#f3f3f3" rx="141" ry="11"/><path fill="#00285e" d="M17 24l-33 11 15-51z"/><path fill="#fff" d="M48.7 18h2l.6 8h-2zM12 89l37 21 27-34z"/><path fill="#b2c37b" d="M116 198h13v5h-13z"/><path fill="#95abbd" d="M24 26h84v1H24z"/><path fill="#000a46" d="M24.8 17.7l.9.4-4.5 12.2-.9-.4z"/><path fill="#3a4068" d="M124.6 227.3l15.6-22.8-61-3 23.6-1.4z"/><path fill="#fff" d="M-16 39v52l30 1z"/><path fill="#00275d" d="M87.3 27.5l-4 8.1.4-17.6 22 17.6z"/><path fill="#002d60" d="M44.3 14.7l4.1 23.2-10-12.6L52.1 30z"/><ellipse cx="125" cy="243" fill="#a0a5a0" rx="30" ry="1"/><path fill="#e3e6a0" d="M100.8 185.1l14-5.1.4.9-14 5.1z"/><ellipse cx="102" cy="255" fill="#fff" rx="169" ry="12"/><circle cx="90" cy="97" r="2" fill="#e57569"/><ellipse cx="95" cy="2" fill="#002f63" rx="169" ry="15"/></g></g></svg>