<svg xmlns="http://www.w3.org/2000/svg" viewBox="0 0 933 1400"><defs/><filter id="a"><feGaussianBlur stdDeviation="12"/></filter><rect width="100%" height="100%" fill="#272c53"/><g filter="url(#a)"><g fill-opacity=".5" transform="translate(2.7 2.7) scale(5.46875)"><ellipse cx="86" cy="156" fill="#fff" rx="169" ry="122"/><path fill="#fff" d="M183.5 39v152h-217V39z"/><circle r="1" fill="#081132" transform="matrix(-55.78504 8.30288 -4.49161 -30.17807 82.8 211.7)"/><ellipse cx="86" cy="112" fill="#fff" rx="169" ry="67"/><path fill="#fff" d="M129 118.6l73.5 97.5-33.6 25.3-73.4-97.5z"/><ellipse cx="1" cy="150" fill="#fff" rx="41" ry="81"/><path fill="#fff" d="M0 243h170v13H0z"/><path fill="#010429" d="M135.4 200.7l31.3 39.7-62.1 4.1-53.8-5.3z"/><path fill="#e9b100" d="M0 39h170v10H0z"/><circle r="1" fill="#003d7b" transform="matrix(88.90559 0 0 36.92811 82 4.8)"/><path fill="#050e28" d="M45 237l-42 4 54-65z"/><circle r="1" fill="#fff" transform="matrix(13.5042 8.43855 -30.09623 48.16296 19.1 195.9)"/><path fill="#fff" d="M24 48l155 205 6-204z"/><ellipse cx="61" cy="255" fill="#fff" rx="169" ry="13"/><ellipse cx="51" cy="21" fill="#a2b7c9" rx="37" ry="6"/><ellipse cx="84" cy="189" fill="#6f7aa4" rx="44" ry="13"/><ellipse cx="90" cy="141" fill="#fff" rx="169" ry="37"/><path fill="#f1e7bc" d="M28.4 260.5l47.9-40.8-25.8-5.5 12.1 5.1z"/><path fill="#727a93" d="M61.5 177.7l55.8-.9 21.1 48.6-16.5 7.6z"/><circle r="1" fill="#fff" transform="matrix(-10.2653 -9.00373 60.41945 -68.88522 17 203.4)"/><path fill="#050a2c" d="M153.6 244.8l10.9-5.6-9.2-13.3-73.4 13.6z"/><ellipse cx="27" cy="251" fill="#fff" rx="169" ry="9"/><ellipse cx="85" cy="34" fill="#001658" rx="138" ry="5"/><ellipse cx="40" cy="72" fill="#fff" rx="169" ry="24"/><path fill="#0075c3" d="M107 93h16v8h-16z"/><circle r="1" fill="#8d4742" transform="matrix(-16.51213 .05764 -.0035 -1 17.1 71.4)"/><path fill="#ffffb5" d="M133 227v-11l-10 12z"/><path fill="#0a0f2a" d="M7 239l25-33-1 35z"/><path fill="#9fab5a" d="M64.2 223.6L51.4 226l-5.6-31.5 12.8-2.3z"/><circle r="1" fill="#fff" transform="matrix(21.23182 47.68274 -23.83774 10.6143 167 193.7)"/><path fill="#f3f4bf" d="M126 203.2l-1.3-10.1-2.3-1.2-7.1 6.6z"/><circle r="1" fill="#fff" transform="matrix(-13.62368 -14.5183 37.02626 -34.7447 18 190.2)"/><ellipse cx="116" cy="112" fill="#c5c5c4" rx="152" ry="3"/><ellipse cx="87" cy="6" fill="#001a59" rx="145" ry="11"/><circle r="1" fill="#fff" transform="rotate(-125 62.7 47.7) scale(60.66387 25.49091)"/><path fill="#fef8ea" d="M-2.8 255.6l52.4-21.7-6.2 17.2L1 238.5z"/><path fill="#bdcbd7" d="M13 17h68v2H13z"/><path fill="#496b92" d="M14 19h155v8H14z"/><ellipse cx="79" cy="44" fill="#dfc25e" rx="94" ry="6"/><path fill="#fae8f2" d="M64.7 190.7L50.2 196l-7.1 2.5 18.9-1.1z"/><path fill="#272c62" d="M46 197l81 21-33 14z"/><path fill="#fff" d="M34 49h136v45H34z"/><path fill="#515c87" d="M53 178h48v12H53z"/><path fill="#860000" d="M135.2 99.3l-.4-4 6-.6.4 4z"/><path fill="#1c213b" d="M44 239h124v4H44z"/><path fill="#272d6a" d="M100 197.1l46.3 15.2-9.2-10.2-14.3 22.9z"/><path fill="#00245c" d="M83 0h18v38H83z"/><path fill="#fff" d="M-16 241l142.9 4.4 58.1-4.2L99.5 271z"/><path fill="#fff7a2" d="M96 212l12-5-6-5z"/><path fill="#b9b993" d="M72 203l18-18 10 4z"/><path fill="#343e74" d="M97.8 196.4l-21-10.5 33.8 53.6L98 207.2z"/><path fill="#5c7025" d="M53.8 217.3l19.5-1.8L33.2 242l-6.4-.4z"/><path fill="#f1d8b7" d="M134 224l-6 6-11-6z"/><path fill="#1a1d3a" d="M130.5 243.8l-65.3-3-8.8-1.9 22.2-20.7z"/><ellipse cx="87" cy="34" fill="#002961" rx="165" ry="5"/><circle r="1" fill="#fff" transform="rotate(-157.3 104.3 81.8) scale(40.12395 21.66806)"/><path fill="#383d72" d="M47.9 188.2l3.6 24-1.3 7.5-33.8 6.2z"/><path fill="#00225b" d="M32 19h10v15H32z"/><path fill="#f3e0d9" d="M63.3 231.7l-23.6 16-12.5 6L74.1 218z"/><path fill="#d4d4d3" d="M.6 121.3l32.9-.3-43.2 19.6 33.4-3.8z"/><path fill="#7c0000" d="M2 70h15v2H2z"/><ellipse cx="66" cy="26" fill="#a6bacb" rx="40" ry="1"/><path fill="#fff" d="M49.8 183.3L-16 118.5 3.1 271l-19.1-4.9z"/><path fill="#8ba3a7" d="M78 100l-2-5-15 1z"/><ellipse cx="108" cy="167" fill="#fff" rx="158" ry="11"/><path fill="#fff" d="M185 148.8l-84.2-97.1L-16 49.1 185 107z"/><path fill="#3d4b96" d="M118 177l7 9-35 22z"/><ellipse cx="56" cy="241" fill="#262931" rx="45" ry="1"/><path fill="#00215f" d="M23 38l-39-21L2-16z"/><ellipse cx="41" cy="112" fill="#d2d2d2" rx="74" ry="3"/><path fill="#c7d3db" d="M35 27l-9-3 1-8z"/><path fill="#b0b5ac" d="M98 223l-6-6 12 6z"/><ellipse cx="63" cy="104" fill="#fff" rx="169" ry="5"/><path fill="#2f3667" d="M163 235l-51-32 26-2z"/><path fill="#f6f799" d="M103 196l-17-8h12z"/><ellipse cx="102" cy="255" fill="#fff" rx="169" ry="12"/><path fill="#c2ccd5" d="M56 18h6v9h-6z"/><path fill="#000444" d="M18.3 34.2l6.5-16.8.9.4-6.5 16.8z"/><path fill="#00215a" d="M46.3 38.1l-1.5-18.4.9-2.1 8.1 18.6z"/><path fill="#3457da" d="M54 230l-6-2 14-5z"/><path fill="#b9b928" d="M52 213h12v8H52z"/><path fill="#d5ea92" d="M116 193h5v11h-5z"/><path fill="#ffffb5" d="M100.8 185.1l14-5.1.4.9-14 5.1z"/><path fill="#002860" d="M71 10.7l-87 9.7L81.4-16l-7.5 47.4z"/><path fill="#fff" d="M76 19h2v7h-2z"/><path fill="#002b63" d="M115.1 11.2l61.3 27.3L82.8-16l.5 50.9z"/><path fill="#2091ce" d="M107 94h17v6h-17z"/><ellipse cx="63" cy="30" fill="#002761" rx="169" ry="4"/><path fill="#f0ecd7" d="M72.7 183.5l10.8 2-.2 1-10.8-2z"/><path fill="#3b4775" d="M78.9 197.5l-20.1 7.7-5.7-3.1 25.5-15z"/><path fill="#fff" d="M44 17.6l-1 7-1-.2 1-7z"/><path fill="#709930" d="M145 225l-4-5-12 7z"/><path fill="#fff" d="M72 50h98v45H72z"/><ellipse cx="111" cy="44" fill="#d8bc5d" rx="169" ry="5"/><path fill="#001853" d="M64.8 27.8l-1 .1-4.6-37.7 1-.1z"/><path fill="#00255d" d="M27.8 36.4l-1-.1 5.4-44.7 1 .1z"/><path fill="#cbd680" d="M74 196l10 2-18 5z"/><path fill="#3d4787" d="M116 218.5l-.8-24.2L98 183.6l5.9 20.1z"/><path fill="#0f3568" d="M51.1 12.7L59 29l-1.8-5.5-5.3 3.5z"/><circle cx="68" cy="21" r="4" fill="#abbac8"/></g></g></svg>