<svg xmlns="http://www.w3.org/2000/svg" viewBox="0 0 1115 1400"><defs/><filter id="a"><feGaussianBlur stdDeviation="12"/></filter><rect width="100%" height="100%" fill="#241c24"/><g filter="url(#a)"><g fill-opacity=".5" transform="translate(2.7 2.7) scale(5.46875)"><circle cx="93" cy="221" r="255" fill="#fff"/><circle cx="101" cy="118" r="71"/><ellipse cx="95" cy="240" fill="#fff" rx="203" ry="55"/><ellipse cx="105" cy="23" fill="#fff" rx="203" ry="28"/><circle r="1" fill="#fff" transform="rotate(-179.4 6.5 70.3) scale(21.65286 202.99997)"/><ellipse cx="193" cy="150" fill="#fff" rx="24" ry="255"/><ellipse cx="121" cy="15" fill="#fff" rx="203" ry="35"/><path fill="#0a0104" d="M34 51v139L180 50z"/><ellipse cx="107" cy="227" fill="#fff" rx="203" ry="42"/><ellipse cx="199" cy="103" fill="#fff" rx="29" ry="255"/><path fill="#1f181a" d="M33 53h138v133H33z"/><ellipse cx="15" cy="95" fill="#fff" rx="18" ry="255"/><circle r="1" fill="#fff" transform="matrix(139.93855 0 0 27.69944 79.6 22.5)"/><ellipse cx="105" cy="233" fill="#fff" rx="203" ry="28"/><ellipse cx="201" cy="100" fill="#fff" rx="32" ry="253"/><ellipse cx="5" cy="116" fill="#fff" rx="28" ry="255"/><path fill="#7f7f7f" d="M58.8 38.3L70.5 137l-12.8 38.5-5.1-29.1z"/><path fill="#080003" d="M35 170h130v15H35z"/><ellipse cx="142" cy="147" fill="#a1a2a1" rx="5" ry="25"/><ellipse cx="100" cy="102" fill="#9ea19f" rx="10" ry="9"/><path fill="#0d0408" d="M151 58h19v122h-19z"/><path fill="#a0a2a1" d="M143.3 105.8l-7.8-43.3 11.8 3.3-12.6 38.5z"/><path fill="#fff" d="M67 67l-2 11-12-4z"/><ellipse cx="91" cy="17" fill="#fff" rx="203" ry="33"/><ellipse cx="81" cy="232" fill="#fff" rx="203" ry="26"/><path fill="#eaf0ee" d="M101.2 82.6l-.6-17.2-4.9 5.9L98.2 83z"/><path fill="#aaa" d="M107 170.9l-11-14.4-2.3 12 19.6-18.7z"/><path fill="#b8bab9" d="M97 133.5l-9.8-7 24.4 15.2-9.8-18.1z"/><ellipse cx="203" cy="114" fill="#fff" rx="32" ry="255"/><path fill="#160f12" d="M51 139h116v14H51z"/><ellipse cx="7" cy="126" fill="#fff" rx="25" ry="255"/><circle r="1" fill="#b5b5b5" transform="matrix(55.2786 2.19416 -.20481 5.15991 81.8 200.7)"/><ellipse cx="61" cy="118" rx="9" ry="8"/><ellipse cx="42" cy="188" fill="#fff" rx="187" ry="2"/><path fill="#fff" d="M146.1 109.5l1.8-14.4 1.5 13.2-14.8-13.2z"/><path fill="#181215" d="M42.5 50h39v18h-39z"/><path fill="#fff" d="M57.7 95.5l1 .2-2.4 16.8-1-.2z"/><ellipse cx="122" cy="134" fill="#1c1418" rx="15" ry="53"/><circle r="1" fill="#eceeed" transform="matrix(4.64266 7.75733 -.85806 .51354 60.2 134)"/><path fill="#b3b4b3" d="M98.2 198.5l19.5 8.4 52.7-.4-1.9-12.4z"/><path fill="#cecece" d="M138 123l1 17 9-15z"/><path fill="#1b1518" d="M39.1 83.7l62.9 30.1-43.8-36.1-17.8-23.8z"/><path fill="#fff" d="M0 187h204v8H0zm96-34h2v15h-2z"/><circle r="1" fill="#c4c5c5" transform="matrix(-1.23313 .16415 -1.5641 -11.75012 68.7 133.4)"/><circle cx="36" cy="199" r="5" fill="#575757"/><circle r="1" fill="#1e181b" transform="matrix(-.83969 -8.12548 40.01377 -4.13502 129 59.4)"/><path fill="#fff" d="M27.5 271l55.8-78 7.2 15.3L219 243.7z"/><path fill="#dcdfde" d="M56 153l-3 10 6 4z"/><circle cx="61" cy="74" r="5" fill="#fff"/><path fill="#fff" d="M64 98h2v12h-2z"/><path d="M98 99h9v8h-9z"/><circle r="1" fill="#686968" transform="matrix(-.89186 -6.5 2.66814 -.3661 73.9 201.4)"/><ellipse cx="67" cy="20" fill="#fff" rx="203" ry="30"/><ellipse cx="107" cy="157" fill="#fff" rx="2" ry="5"/><path fill="#d2d3d3" d="M143 146.8l-2.1 20.9-4-.5 2.2-20.9z"/><path fill="#20191c" d="M92 98l3 82-31 6z"/><path fill="#b4b5b4" d="M138 67h8v15h-8z"/><path fill="#1e191b" d="M141 68h25v12h-25z"/><ellipse cx="5" cy="198" fill="#fff" rx="28" ry="255"/><path d="M166.2 194.7l-1.4 6.8-1-.2 1.4-6.8z"/><path fill="#231d1f" d="M65 57h32v23H65z"/><circle r="1" fill="#fff" transform="rotate(11.8 -608.7 333.6) scale(1 7.54703)"/><path fill="#110c0e" d="M139.2 153.8l-1-.2 6.6-37.4 1 .2z"/><path fill="#262123" d="M145.2 150.6l25.4-19.7-.5 54.5-33.4 1.3z"/><path fill="#fff" d="M147.6 109.3l-9.9-9.9.7-.7 9.9 9.9z"/><path fill="#f0f2f1" d="M135 95h2v18h-2z"/><path fill="#fff" d="M53 264l37-6-39-70zm14.8-139.6l1.7 1-3.3 6.2-1.7-1z"/><path d="M119 196h1v9h-1z"/><ellipse cx="30" cy="186" fill="#b5b7b6" rx="139" ry="1"/><path fill="#fff" d="M105 135l4 2-6-10zm2-38h2v13h-2zm112-9l-37 172L168-9z"/><path fill="#272124" d="M170.7 76.2l-.4-18 .4 45.4-58.1-13.4z"/><path fill="#231c1f" d="M109 111h29v75h-29z"/><path fill="#fff" d="M113 189h5v67h-5z"/><ellipse cx="101" cy="81" fill="#c5cac8" rx="5" ry="2"/><path fill="#fff" d="M12 265.5l189.6 5.5-46.8-79.8 10.1 7.7z"/><path fill="#1d181a" d="M34 148h21v38H34z"/><path fill="#231d20" d="M42.5 137.4l90.1 5.1-70.8 8.2L44.6 166z"/><path fill="#858585" d="M147 197h12v7h-12z"/><path fill="#fff" d="M128 188h5v66h-5z"/><path fill="#525252" d="M105 195h6v8h-6z"/><path fill="#fff" d="M63 271l10.5-83.9-4.6 2.4L50.8 243zM94 98h3v7h-3z"/><circle r="1" fill="#606160" transform="matrix(-.96592 .25884 -1.86641 -6.96502 60 203)"/><path fill="#cbcfcd" d="M68.8 152.6l.2 1-9.8 1.8-.2-1z"/><ellipse cx="49" cy="201" fill="#494a49" rx="2" ry="6"/><path fill="#fff" d="M155.4 225.1l-2.6-40.4-13.1 76.1 2-71.5zM91 221.8l17.4-26.3-15.2-9.6 32.3 85.1z"/><path fill="#bfc1c0" d="M104.7 126.4l-10.6 15.8-.8-.6 10.6-15.8z"/><path fill="#150e11" d="M57 158h20v7H57z"/><circle r="1" fill="#fafbfb" transform="rotate(-133.4 102.4 36.8) scale(5.73061 1)"/><path fill="#fff" d="M48.8 193L46 212l-6.9-1 2.7-18.8z"/><ellipse cx="17" cy="208" fill="#fff" rx="17" ry="88"/><path fill="#fff" d="M65.5 167.7l-6.8 1.6-.2-1 6.8-1.6z"/><path fill="#f7f9f8" d="M106 156h3v12h-3z"/><path fill="#231c1f" d="M64 125l50-46-45 13z"/><circle cx="145" cy="146" r="2" fill="#fff"/></g></g></svg>