<svg xmlns="http://www.w3.org/2000/svg" viewBox="0 0 251 151"><defs/><filter id="prefix__a"><feGaussianBlur stdDeviation="12"/></filter><rect width="100%" height="100%" fill="#1c1c1c"/><g filter="url(#prefix__a)"><g transform="translate(.5 .5)"><circle cx="130" cy="53" r="166" fill-opacity=".5"/><circle r="1" fill-opacity=".5" transform="rotate(-46.8 147.3 -87.1) scale(163.8887 137.13107)"/><ellipse cx="127" cy="54" fill-opacity=".5" rx="250" ry="61"/><path fill="#2e2e2b" fill-opacity=".5" d="M132 115h7v36h-7z"/><path fill="#30302c" fill-opacity=".5" d="M103 114h6v37h-6z"/><path fill="#32322e" fill-opacity=".5" d="M199 117h6v34h-6z"/><ellipse cx="81" cy="138" fill="#2e2e2b" fill-opacity=".5" rx="4" ry="24"/><path fill="#292926" fill-opacity=".5" d="M171 135l-2-28 23 55z"/><path fill="#252522" fill-opacity=".5" d="M31.8 166l-19.6-58.7 23.9 40.9L-16 166z"/><path fill="#292926" fill-opacity=".5" d="M240 115h7v36h-7z"/><path fill="#252522" fill-opacity=".5" d="M211 136l11 17-2-39z"/><circle r="1" fill="#262623" fill-opacity=".5" transform="matrix(-12.14893 -12.3718 2.64818 -2.60047 54.5 131.9)"/><path fill-opacity=".5" d="M239 124.8l-1-46.9-21 58.9 26.6 29.2z"/><ellipse cx="36" cy="116" fill-opacity=".5" rx="9" ry="31"/><path fill-opacity=".5" d="M165.5 107.7l31.9-42.6.5 80-3.6 10.7zM109 118h23v30h-23zM-.2 153.1L-28.7 141 .2 72.9 28.7 85zM247 37h4v110h-4z"/><circle r="1" fill="#1d1d1a" fill-opacity=".5" transform="matrix(-7.56133 21.14327 -1.78408 -.63803 11.4 132.4)"/><path fill="#282825" fill-opacity=".5" d="M168 116l1 .2-15 51.9-1-.3z"/><circle r="1" fill-opacity=".5" transform="rotate(161 111.8 62.4) scale(45.79374 29.91754)"/><path fill-opacity=".5" d="M143.8 166l17.1-31.3 7.7-32.6-29.9 27.3z"/><path fill="#232321" fill-opacity=".5" d="M33 146l-13-33-5 9z"/><path fill-opacity=".5" d="M0 94h184v21H0z"/><ellipse cx="156" cy="150" fill-opacity=".5" rx="98" ry="1"/><path fill="#282825" fill-opacity=".5" d="M79 131h32v2H79z"/><path fill-opacity=".5" d="M65 99h13v51H65z"/><path fill="#2c2c29" fill-opacity=".5" d="M194 115h18v2h-18z"/><circle r="1" fill="#20201d" fill-opacity=".5" transform="rotate(-135 144.3 28) scale(29.37404 2.48942)"/><path fill="#2c2c29" fill-opacity=".5" d="M54 166h38l-48-21z"/><ellipse cx="131" cy="116" fill="#171715" fill-opacity=".5" rx="17" ry="3"/><path fill="#2d2d2a" fill-opacity=".5" d="M51.4 152.5l12.6-9.8.6.8-12.6 9.8z"/><path fill="#242421" fill-opacity=".5" d="M221 129l1-10-12-6z"/><path fill="#171715" fill-opacity=".5" d="M112 91h43v2h-43z"/><path fill="#21211e" fill-opacity=".5" d="M60 113H50l-4 8z"/><circle r="1" fill-opacity=".5" transform="matrix(-4.2617 -23.85164 52.32772 -9.34966 166.6 0)"/><circle cx="92" cy="122" r="8" fill-opacity=".5"/><path fill="#2b2b28" fill-opacity=".5" d="M10 135h13v3H10z"/><path fill-opacity=".5" d="M218 132l18-22 6 56z"/><path fill="#0e0e0d" fill-opacity=".5" d="M245.8 27.5l1.5-4.6 18.7 8.5-63.9-1.3z"/><path fill-opacity=".5" d="M94 166l-9-34 16 5z"/><path fill="#222220" fill-opacity=".5" d="M162 138l-17 21 5 7z"/><circle r="1" fill="#11110f" fill-opacity=".5" transform="rotate(63.4 40.1 176.3) scale(1 23.08294)"/><path fill-opacity=".5" d="M50.7 136.3L-16 59.9l51 75.7 21.5 15.7zM163 139h12v12h-12z"/><path fill="#1d1d1b" fill-opacity=".5" d="M83.2 133.4l2.4-13.7-3.1-4.3h-7.2z"/><path fill="#222220" fill-opacity=".5" d="M158 135h22v3h-22z"/><path fill="#232321" fill-opacity=".5" d="M49 124l18 11-17-3z"/><path fill="#1e1e1c" fill-opacity=".5" d="M38.7 86.7l-.5.9-14.9-8.3.5-.9z"/><circle cx="179" cy="147" r="3" fill="#272724" fill-opacity=".5"/><path fill-opacity=".5" d="M108.8 130.3l.3 16 23.9 17.2-16.4-58.7z"/><circle r="1" fill-opacity=".5" transform="matrix(8.61542 -15.3875 23.17689 12.97667 64.1 7.2)"/><path fill-opacity=".5" d="M247 118h4v30h-4zM44 96h199v19H44z"/><path fill="#1b1b19" fill-opacity=".5" d="M57 72.6l11.1-17.8.9.6-11.1 17.8z"/><path fill-opacity=".5" d="M50.5 126l19.8 10.6 2.3-1.9-18.8-22.4z"/><path fill="#0b0b0a" fill-opacity=".5" d="M86 84l-53 2 29-9z"/><circle r="1" fill="#10100e" fill-opacity=".5" transform="matrix(.27396 .96174 -28.50988 8.12125 169.9 78.1)"/><path fill="#1f1f1d" fill-opacity=".5" d="M12.5 151.9L8 155.8 1.5 148l4.6-3.9z"/><path fill="#262623" fill-opacity=".5" d="M57.1 115.5l1.4-1.4 6.4 6.4-1.4 1.4z"/><path fill-opacity=".5" d="M11 138h12v13H11z"/><path fill="#0e0e0d" fill-opacity=".5" d="M231.1 17.8L266 30.5l-40.5-18.9 1.2 4.4z"/><path fill="#0d0d0c" fill-opacity=".5" d="M237.3 23.9L187 40.4 179 52l18.7-17.4z"/><path fill="#262623" fill-opacity=".5" d="M147 115h4v5h-4z"/><path fill="#121210" fill-opacity=".5" d="M79.3 69.4l28.8-21.6.6.8-28.8 21.6z"/><circle r="1" fill="#1f1f1c" fill-opacity=".5" transform="matrix(-6.05894 -15.22544 2.60388 -1.03621 175.2 129.2)"/><ellipse cx="188" cy="127" fill-opacity=".5" rx="9" ry="20"/><path fill="#1a1a18" fill-opacity=".5" d="M48.6 37.6l-.3-1 19-6.2.4 1z"/><path fill="#151513" fill-opacity=".5" d="M106.2 38.8l-.9-.5 14.5-25.1.9.5z"/><path fill="#1c1c1a" fill-opacity=".5" d="M202.7 51l.4 1-25.8 11-.4-1z"/><path fill-opacity=".5" d="M138.2 134.3l10.2 31.7 13.7-35.8-20.7-12.4z"/><path fill="#272724" fill-opacity=".5" d="M142.5 116.2l-20.9 2.6v-1l20.8-2.6z"/><path fill="#1e1e1c" fill-opacity=".5" d="M102 117h7v32h-7z"/><path fill-opacity=".5" d="M113 32h20v60h-20z"/><circle cx="239" cy="52" r="23" fill-opacity=".5"/><ellipse cx="48" cy="123" fill="#21211f" fill-opacity=".5" rx="3" ry="8"/><path fill="#1e1e1c" fill-opacity=".5" d="M7 66l-1 .3L1 50l1-.3z"/><path fill="#272725" fill-opacity=".5" d="M209.5 70.8l-17-.6v-1l17 .6z"/><path fill="#21211e" fill-opacity=".5" d="M8 12h21v1H8z"/><path fill="none" stroke="#141413" stroke-opacity=".5" stroke-width=".5" d="M147 69.7q17.2-4.2 37.7-24"/><path fill-opacity=".5" d="M3 150h244v1H3z"/><path fill="#0d0d0c" fill-opacity=".5" d="M186.4 18.1l6.1 11.5 15.9-14.8-12.3 6.7z"/><path fill="#1d1d1b" fill-opacity=".5" d="M168.9 116.2l-3.7 8.3 9.8 3-3-14.2z"/><circle r="1" fill-opacity=".5" transform="matrix(-4.19434 -11.04873 .9349 -.3549 171.3 133)"/><path fill-opacity=".5" d="M208.8 134.4l-1.7 2.3-1.8 8.3 18.7 11z"/><path fill="#0f0f0e" fill-opacity=".5" d="M7.4 67.4l-3.8-1.6L26.2 81 18 71.6z"/><path fill="#0c0c0b" fill-opacity=".5" d="M99 2L89 1l15 19z"/><path fill="#0e0e0d" fill-opacity=".5" d="M9.2 9l17.5-6.9L0 7.4 8.2-16z"/><path fill="#141412" fill-opacity=".5" d="M90.6 80.7l23.2 11.8-.4.8-23.2-11.8z"/><ellipse cx="229" cy="3" fill-opacity=".5" rx="67" ry="10"/><path fill="#20201e" fill-opacity=".5" d="M155.6 151.6l-1-.4 11.8-30.8 1 .4z"/><path fill-opacity=".5" d="M19.8 84.3L23 119l10.7 31.1 24.5-60.2z"/><path fill="#181816" fill-opacity=".5" d="M69.8 141.6L11.5 166l16.2-22.8 21 15.4z"/><path fill="#20201e" fill-opacity=".5" d="M129 148h15v2h-15z"/><path fill="#191917" fill-opacity=".5" d="M163.8 80l-23.4 5-.2-1 23.4-5z"/><path fill="#1c1c1a" fill-opacity=".5" d="M211.3 19.3l15-5.5.4 1-15 5.4z"/><path fill="none" stroke="#161614" stroke-opacity=".5" stroke-width=".5" d="M151 41q-7.2 18.9-40.2 17.6"/><path fill="#11110f" fill-opacity=".5" d="M35.2 52l3-6.6L29.4 57l-16.8 2.4z"/><path fill-opacity=".5" d="M50.2 133.8l9.6 5.5-4 7-9.6-5.6z"/><path fill="#21211f" fill-opacity=".5" d="M97 148.1l.2-1L113 150l-.2 1z"/></g></g></svg>