<svg xmlns="http://www.w3.org/2000/svg" viewBox="0 0 1400 933"><defs/><filter id="a"><feGaussianBlur stdDeviation="12"/></filter><rect width="100%" height="100%" fill="#29262c"/><g filter="url(#a)"><g fill-opacity=".5" transform="translate(2.7 2.7) scale(5.46875)"><circle cx="128" cy="39" r="184" fill="#fff"/><circle cx="114" cy="56" r="192" fill="#fffffa"/><circle r="1" fill="#340f13" transform="matrix(23.46422 .19113 -.47315 58.08765 70 82.1)"/><ellipse cx="175" cy="81" fill="#51271e" rx="20" ry="58"/><circle r="1" fill="#fff" transform="rotate(-2.7 1237.3 -4952.5) scale(26.71903 253.6705)"/><circle r="1" fill="#fff" transform="matrix(-1.08376 221.12454 -20.55105 -.10072 14.2 95.3)"/><ellipse cx="126" cy="66" fill="#fff" rx="20" ry="169"/><ellipse cx="67" cy="63" fill="#101310" rx="11" ry="30"/><ellipse cx="88" cy="92" fill="#b49398" rx="17" ry="54"/><circle r="1" fill="#dab3aa" transform="rotate(-90.9 150.6 -48.8) scale(55.16161 24.13747)"/><path fill="#fffdf4" d="M92 45L52-12 271 0z"/><path fill="#1c1e20" d="M164 35h14v65h-14z"/><circle r="1" fill="#fff" transform="matrix(-45.1566 250.96988 -24.94544 -4.4884 12 54.6)"/><path fill="#775e5f" d="M148 109h57v22h-57z"/><ellipse cx="126" cy="169" fill="#fffffc" rx="251" ry="19"/><circle r="1" fill="#fff" transform="rotate(91.2 79 164.8) scale(95.26912 31.50566)"/><path fill="#998087" d="M54 145L26 64l28-35z"/><circle r="1" fill="#0c0803" transform="matrix(-4.94813 -7.29661 4.95534 -3.36042 91.3 115.6)"/><path fill="#b4857d" d="M163 30l-5 79-20-28z"/><path fill="#fffff3" d="M-16 14.7L24.4-16 70.1 2.5l-1 35.2z"/><path d="M70.3 59l-10.6-5.6 14-26.5 10.6 5.7z"/><path fill="#d6f3f4" d="M94.4 77l6.6 11-21.5 13L73 89.8z"/><path fill="#151921" d="M189 31l-3 23.8-15-1.8 3-23.8z"/><circle r="1" fill="#dadad8" transform="rotate(124.6 68.6 97.6) scale(26.91736 5.88896)"/><path fill="#dfb7a5" d="M40 149l22-23 55 28z"/><path fill="#3d2f1f" d="M188.9 106.8l.2-2.4 14.3 12-2 15.8z"/><path fill="#361a22" d="M53 72h19v29H53z"/><path fill="#f8e1ce" d="M188 15h44v35h-44z"/><path fill="#a18076" d="M28 88l23-42 25 13z"/><circle r="1" fill="#fff" transform="rotate(86.5 -33 31) scale(216.75169 24.73151)"/><path fill="#fdda93" d="M152.7 134.6l15.2 34.5 5.5-45.3-21.5 17.2z"/><path fill="#0b0c0c" d="M153.3 79.1l15.9 6.2 8.8-9.4-3.5-7.6z"/><path fill="#f1e4d6" d="M79 45l97-14-2-47z"/><circle r="1" fill="#c6a196" transform="matrix(-17.48389 8.67908 -4.88649 -9.84376 153.4 61.2)"/><path fill="#dd6375" d="M109.5 31.8L86.9 79.6l-18.8-7.1 2.5 1.5z"/><path fill="#4b6a80" d="M43 134l25-22-28-4z"/><ellipse cx="246" cy="85" fill="#fff" rx="15" ry="169"/><path fill="#ba8589" d="M209 118.4l-37 28-1.3-57.4 15.8 66z"/><path fill="#22251f" d="M88 51L71 62 50 30z"/><path fill="#947e91" d="M85 148l9-26-34-27z"/><ellipse cx="180" cy="3" fill="#84878e" rx="29" ry="2"/><ellipse cx="73" cy="3" fill="#8d8f95" rx="35" ry="2"/><path fill="#e6d9d2" d="M242.8 117l-72.9-28.5 55.5-13.7 5.1 37.3z"/><path fill="#fffffc" d="M126 0h10v165h-10z"/><path fill="#e4dbd0" d="M28 17h15v55H28z"/><path fill="#ffdd24" d="M63 163l-13-25 11 6z"/><path fill="#010818" d="M140 72h8v5h-8z"/><path fill="#e2e7e0" d="M79 46l9.3-14.2L101 40l-9.2 14.2z"/><path fill="#5a4540" d="M90.9 97.7l-11 20.3-23.6-12.9-.4 25.2z"/><path fill="#d2c9c4" d="M112 29l8 105-30-29z"/><path fill="#f1391d" d="M208 152l5-5-13-4z"/><path fill="#00080e" d="M69 31l-9 15 27-18z"/><path fill="#e7d9cd" d="M157.1 91.6l33.3 37.4 43.4-12.2-3.3 47.1z"/><path fill="#8e8a9e" d="M110.8 61.6L72 89.2l-8.2 14.9L66 84.3z"/><ellipse cx="98" cy="8" fill="#fff" rx="239" ry="4"/><path fill="#312c22" d="M96.5 108.9l.4 21.2-11.8-25.7-6.1 8.4z"/><path fill="#e09a7d" d="M168.3 64.9l30.2 14.5-3.2-22.9-26 7.1z"/><path fill="#cfe1e3" d="M69.5 141.2l-25-6-3.1-5 24.6.3z"/><path fill="#0f1422" d="M37 72h6L33 83z"/><path fill="#693d39" d="M69.9 120.6l28.4 16.2-18.6-12-10.1 14.8z"/><path fill="#5a4244" d="M162 94l7 35 16 4z"/><path fill="#c5b6bf" d="M165.3 115.8l-18.2-12-8.3 9.7 8.9 11.3z"/><path fill="#c7888c" d="M45.7 48.4l15.1 13.1-10.5 12.1-15.1-13.1z"/><path fill="#444041" d="M155 28.7l32.5 21.5-10.2-33 1.5 51.1z"/><path fill="#131316" d="M183.8 100.5l-6.6 4.5-5-7.5 6.6-4.5z"/><circle r="1" fill="#ed4950" transform="rotate(-151.1 69.9 61.1) scale(6.78133 2.93123)"/><path fill="#cde8e3" d="M76.2 113.1l-6.4 2.9-4-9.1 6.4-2.9z"/><path fill="#fff" d="M49.5-2.5h153v5h-153z"/><path fill="#e2354c" d="M43 101l16 4-3-11z"/><path fill="#da0925" d="M78 65h8v10h-8z"/><path fill="#eee0d6" d="M184.4 47l20.1-37.1 27.1-3.6.9 55.8z"/><path fill="#d2cfd7" d="M35 79h7v73h-7z"/><path fill="#c2acac" d="M164.9 134.2l15.3-11.3-15.1-19.5 17-1.4z"/><path d="M75 99l-7-6h5z"/><path fill="#000403" d="M60.8 82.2L55 76.8l10.2-11 5.8 5.4z"/><path fill="#e5dfd2" d="M49 161l34-34-9 27z"/><path fill="#f4c000" d="M168 150l-7-8-2 10z"/><path fill="#282a3e" d="M153 123l9-1 3 9z"/><path fill="#342e37" d="M161.9 41.6l26.9-12.4 1.7 9.1-14.1 10.1z"/><path fill="#9c8da4" d="M84 59l24 16-3-20z"/><path fill="#f2ca59" d="M60.7 34.5l-19.1-21 28.5 22.2-4.5-10.4z"/><path fill="#6b5a62" d="M186.5 110.4l4.2-11.7 8.4-2.8-7.1 15z"/><path fill="#f5e6ce" d="M144 29.1l5.8-23.3 28.2 7-5.8 23.4z"/><path fill="#828ea8" d="M56 113L44 82l-5 67z"/><path fill="#f7ede6" d="M173.1 133.2l-22.4-.4 29.6 52.2L80 176.8z"/><path fill="#f6f9f7" d="M49.6 169l45.8-22.4 11 22.5-45.8 22.3z"/><circle r="1" fill="#e38072" transform="matrix(1.88465 -7.1331 5.73928 1.51638 157.4 103.6)"/><path fill="#f7f1ed" d="M147.4 103.1L99.1 185l28.4-79.9 20.6-25.4z"/><path fill="#333036" d="M203.3 114.6l-.8 11.7-2.9-6.1-15.2-13.6z"/><path fill="#986d6b" d="M194.8 68.4l-11.3 12.8-17.1 23.3 10.1-28.1z"/><path fill="#282933" d="M61.5 122.5l4.8-3.3-4.4-21.6-4.7-9.9z"/><path fill="#f1f0e9" d="M149.5 60.9l-46.1 12.8 21.7-42.4 9.3 55.1z"/><path fill="#ef9a87" d="M177.4 73.7l5.1 4 33.8-42.3-11.7 8.6z"/><path fill="#40595d" d="M195 129h-5l5 10z"/><circle r="1" fill="#eef2ef" transform="matrix(-12.73164 -3.9411 5.00776 -16.17746 43.7 160.6)"/><path fill="#301a21" d="M159.9 95.2l2.6-8.9 7.1-17.8-10.7 12z"/><path fill="#ae8dad" d="M77.5 152v-38h9v38z"/><circle r="1" fill="#fff" transform="matrix(-1.62585 -169.73817 17.31842 -.16589 6.6 95.3)"/><path fill="#f5f3e9" d="M100.4 109.8l-.4-17.2 32.9-7.6 3.5 9.4z"/><path fill="#e4dace" d="M204 103h19v41h-19z"/></g></g></svg>