<svg xmlns="http://www.w3.org/2000/svg" viewBox="0 0 1400 934"><defs/><filter id="a"><feGaussianBlur stdDeviation="12"/></filter><rect width="100%" height="100%" fill="#424246"/><g filter="url(#a)"><g fill-opacity=".5" transform="translate(2.7 2.7) scale(5.46875)"><circle cx="182" cy="57" r="218" fill="#fff"/><circle r="1" fill="#fff" transform="matrix(-.72116 -40.31763 238.85194 -4.27233 153.2 4.6)"/><circle r="1" transform="matrix(-20.98767 -36.68008 15.70519 -8.98622 226.5 111.1)"/><ellipse cx="108" cy="161" fill="#fff" rx="255" ry="12"/><path fill="#121318" d="M73 93h60v57H73z"/><ellipse cx="3" cy="95" rx="7" ry="56"/><path d="M0 42h83v10H0z"/><circle r="1" fill="#fff" transform="rotate(-90.7 90.8 -81.5) scale(36.16098 246.97186)"/><path d="M0 140h80v10H0z"/><path d="M73 43h10v101H73z"/><ellipse cx="42" cy="96" fill="#ffb890" rx="34" ry="46"/><path fill="#fff" d="M155 115l54-52L80 81z"/><path fill="#fff" d="M99.1 151.4l171.9-2.3L83.2 185l-.7-120.1z"/><ellipse cx="210" cy="133" fill="#4a2e0f" rx="36" ry="17"/><path fill="#010002" d="M105 126h52v24h-52z"/><path fill="#c21f16" d="M26 71h31v51H26z"/><path d="M184 84l60 52 9-37z"/><path fill="#fff" d="M17 87.5h54v17H17z"/><path fill="#fffffe" d="M225 0h31v92h-31z"/><ellipse cx="109" cy="53" fill="#ffffb6" rx="27" ry="18"/><path fill="#fff" d="M161.5 150v22h-169v-22z"/><path fill="#060b00" d="M129.8 69.6l10 6.2 16-2.3-17.6-28.2z"/><path fill="#f7efd6" d="M173.6 90.2l9.6-5.5 50.7 46-13.3 7.7z"/><ellipse cy="96" rx="9" ry="54"/><ellipse cx="155" cy="164" fill="#fff" rx="255" ry="15"/><path fill="#fff" d="M-2-16l177 56-191 1z"/><path fill="#fffcdb" d="M11 123h63v17H11z"/><path fill="#2a2e08" d="M232 41l-19 2 1 43z"/><path fill="#84878c" d="M166.5 95.1l-76.2-4.5 36.9 52.9 24.3-59.2z"/><ellipse cx="38" cy="46" rx="45" ry="4"/><path d="M74 47h9v103h-9z"/><path fill="#910000" d="M163 101l29 4-27 10z"/><ellipse cx="36" cy="146" rx="46" ry="4"/><path fill="#ffffe5" d="M13 54h58v16H13z"/><path fill="#ffffc5" d="M174 59h-32V41h32z"/><circle r="1" fill="#080408" transform="matrix(7.56342 17.87152 -8.46471 3.58236 98.1 118.8)"/><circle r="1" transform="matrix(-5.86767 10.00189 -11.36706 -6.66856 208.8 86.9)"/><path fill="#fffffd" d="M214 70l-33 10 20-92z"/><path fill="#050604" d="M205.1 149.7l48.2-49.1-17 46.8 23.7 2.9z"/><path fill="#fef8e3" d="M200 151l-57-53 7 28z"/><circle r="1" fill="#332110" transform="rotate(-102.7 120 -23.3) scale(1.94718 23.46229)"/><ellipse cx="41" cy="113" fill="#860000" rx="14" ry="8"/><path fill="#4b5458" d="M161 69.4L230.3 55l-61.6.9 12.1 3.9z"/><path fill="#890000" d="M28 72h27v14H28z"/><ellipse cx="127" cy="17" fill="#a2a2a2" rx="46" ry="6"/><circle r="1" fill="#bab698" transform="rotate(-104.2 154 -9.7) scale(6.57159 35.73963)"/><path fill="#d4e1f5" d="M270.9 96.5l-25.2 23.7 4.4 24.1 20.9-31.5z"/><path d="M108 93l-1 10 18-12z"/><ellipse cx="63" cy="99" fill="#ffeed2" rx="8" ry="42"/><ellipse cx="17" cy="94" fill="#fff5d9" rx="7" ry="43"/><circle r="1" fill="#550700" transform="matrix(17.31561 -3.18546 1.35726 7.37782 191.4 126.7)"/><ellipse cx="227" cy="17" fill="#fff" rx="58" ry="25"/><ellipse cx="138" cy="81" fill="#fff" rx="42" ry="8"/><circle r="1" fill="#2b1a0a" transform="matrix(-.45958 -1.51397 29.54132 -8.96748 151.6 93.9)"/><path fill="#4e504f" d="M154 148l19 2-40-45z"/><path fill="#fffcf5" d="M215.4 122.2l-28.6-36.1-69.9 24 65.5-9.1z"/><path d="M85 58h4v23h-4zm50.6-16.2l5-.5 1.8 21-5 .4z"/><circle r="1" fill="#fff9e0" transform="matrix(17.19041 -5.99273 1.60913 4.61585 182 115.3)"/><path fill="#992600" d="M185 97l-30 10 26 5z"/><path fill="#263349" d="M263 81l-15-15-7 4z"/><circle r="1" fill="#010000" transform="rotate(-23.1 375 -520) scale(13.58346 13.17782)"/><ellipse cx="15" cy="15" fill="#fff" rx="70" ry="28"/><ellipse cx="142" cy="169" fill="#fff" rx="255" ry="19"/><path d="M6.2 72.9l4.3-25.1L-16 67.6l25 82.1zM102 127h19v22h-19z"/><ellipse cx="44" cy="46" rx="38" ry="4"/><path fill="#effcae" d="M89.1 77.1L144 58.9h-7.5l-52.8-18z"/><path fill="#c9cfe0" d="M107.5 102.7l63-27-41.4 22.7-11.2 16z"/><path d="M0 142h78v7H0z"/><path fill="#f6f7ff" d="M82.8 89.6l.3 40.8.4 27.5L98.2 185z"/><path fill="#c8d6aa" d="M252.6 52l14.2 23.3-56.1-20.8 55.1-15.2z"/><path fill="#fff" d="M210.9 57.6l4 8.8L152 92.8l-.9-15.3z"/><path fill="#deeaf9" d="M271 77.8L257.9 185l-5.8-84.6-38.2-25z"/><path fill="#fff" d="M0 23h234v19H0z"/><path fill="#a6aeb2" d="M145 133l-16 17-5-7z"/><circle r="1" fill="#ecf0fb" transform="matrix(.01327 -5.51787 15.52636 .03734 98.4 90.3)"/><path d="M122 90l2 6-24 2z"/><path fill="#9b9b9b" d="M87 6h16v18H87z"/><path d="M222.6 148.1l4.9.3-37.6 1.7 61.9-18.8z"/><path fill="#8d9645" d="M176 43h80v5h-80z"/><path d="M75 44h7v79h-7z"/><ellipse cx="44" cy="96" fill="#fff0ce" rx="26" ry="7"/><circle r="1" fill="#0c0c06" transform="matrix(.5778 2.58495 -11.10036 2.48122 141 63)"/><path fill="#a8adb2" d="M105.6 119l46.4-10-22.4-5 19.3 23.5z"/><ellipse cx="128" fill="#fff" rx="236" ry="6"/><path fill="#f7ffbd" d="M141 45h25v15h-25z"/><path fill="#65625a" d="M218.1 79.1l-25 14.1 11.8 12.6 3.4-16z"/><path fill="#b6c5da" d="M229.4 108.4l36.8-15.7.4 1-36.8 15.6z"/><path fill="#f8f5ef" d="M131.1 102.8l64.6-10.4-38.9 15 2.1 21.3z"/><path fill="#fcffff" d="M129.9 71.2l11 19-14.8 8.6-11-19z"/><path fill="#45464f" d="M138.5 77.1l69.9-17.9-70.8 10.6.3-19.8z"/><path fill="#d0d1d5" d="M102.9 134.4L83.1 89.5l1 95.5 1-82.3z"/><path fill="#dce4f1" d="M225 55h7v40h-7z"/><path d="M201 87l-5-11 22 1zm-69 40l16 2-16 7z"/><path fill="#171518" d="M86 103l7-13 7 19z"/><path d="M223 58l-9 6.9 10.7 24.3-7.2 9.4z"/><path fill="#4b3b2d" d="M132.9 98.7l-2.6 6.3 24.6-10.5 33-12.7z"/><path fill="#2e4149" d="M88.7 81.8l-12.4 1 45.6-11L111 70z"/></g></g></svg>