<svg xmlns="http://www.w3.org/2000/svg" viewBox="0 0 1400 934"><defs/><filter id="a"><feGaussianBlur stdDeviation="12"/></filter><rect width="100%" height="100%" fill="#5d3f3c"/><g filter="url(#a)"><g fill-opacity=".5" transform="translate(2.7 2.7) scale(5.46875)"><circle r="1" fill="#efefd5" transform="rotate(141.9 61.7 84.5) scale(255 105.43579)"/><circle r="1" fill="#1d0000" transform="matrix(-69.31016 39.6943 -13.13973 -22.94326 152.3 143.9)"/><ellipse cx="29" cy="148" fill="#fff" rx="59" ry="35"/><ellipse cx="244" cy="55" fill="#fff" rx="25" ry="76"/><circle r="1" fill="#242a31" transform="matrix(-21.53723 4.98218 -13.03693 -56.35674 196.3 11.3)"/><path fill="#00150e" d="M120 73l-136-4 30-85z"/><circle r="1" fill="#e6eccd" transform="matrix(-14.13996 -3.94795 10.63614 -38.09436 101.4 -.1)"/><path fill="#1a0900" d="M173 107l98 55-72-76z"/><path fill="#ffffe4" d="M149 76l113 24-120-68z"/><circle cx="31" cy="105" r="13"/><circle r="1" fill="#fffff2" transform="matrix(17.83483 -.3113 1.2872 73.74416 56.3 146.8)"/><path fill="#ffffde" d="M251-16l20 175-60-61z"/><circle r="1" fill="#fffffb" transform="matrix(40.28563 -2.11128 .2715 5.1805 118.4 50)"/><circle r="1" fill="#373621" transform="matrix(30.63137 -4.46863 .91406 6.26568 37.5 108.4)"/><path fill="#3d350b" d="M240 169l-37-74 50 50z"/><path fill="#480f10" d="M150 80h32v16h-32z"/><ellipse cy="146" fill="#ffffe0" rx="79" ry="32"/><path fill="#e49294" d="M200.4 216.7l-39.7-63.6 50.9-31.8 39.7 63.6z"/><path fill="#091811" d="M61 0h16v83H61z"/><circle r="1" fill="#21141e" transform="matrix(-84.0525 59.50484 -5.66532 -8.00245 117.9 154.3)"/><circle r="1" fill="#827458" transform="matrix(22.32045 -13.37188 9.02255 15.06052 100.9 131.7)"/><circle r="1" fill="#857ab7" transform="matrix(-5.65998 5.15018 -17.93241 -19.70746 145.2 158.2)"/><path fill="#fff" d="M154 98l28-2-21 19z"/><path fill="#c0ad5f" d="M43 72l-59-1 64 28z"/><path fill="#e0c486" d="M261.1 185l7.5-18.9-51-49.8 10.9 20z"/><circle r="1" fill="#5b6261" transform="matrix(-12.27148 8.98136 -14.33705 -19.5891 118.5 8.9)"/><path fill="#000200" d="M143 57l-18-1 10 12z"/><circle cx="187" cy="5" r="33" fill="#585551"/><ellipse cx="182" cy="77" fill="#fff" rx="42" ry="4"/><path fill="#18120c" d="M204.7 109.2l41.1 47.8-7.9 3.7-26-35.6z"/><path fill="#652b23" d="M114.5 113l74.9 51.1-19.2-58.4-42.7 41.5z"/><path fill="#fff" d="M137 1h4v60h-4z"/><path fill="#7e7670" d="M188 71l34-1-54-81z"/><circle r="1" fill="#ded4c5" transform="rotate(-138.3 139.2 42.8) scale(14.83361 23.67817)"/><path fill="#4e473d" d="M144.8 65l-67 16.7L75.3 71l67-16.7z"/><path fill="#535140" d="M114 36.6l-5.8-2-47.4 5.6L89.5 52z"/><path fill="#fff" d="M48.7 72.9l13 .2-.4 26-13-.2z"/><path fill="#fffef8" d="M74.4 110.9L42 109.6 86.5 185l-17-72.4z"/><path fill="#f8f6f7" d="M101 43l24-3 2 29z"/><circle r="1" fill="#202b25" transform="rotate(155.1 13 8.2) scale(41.35151 66.43866)"/><path fill="#fbffff" d="M181.8 101.5L192.4 85l3.6-12.7-12.9.3z"/><path fill="#bab18c" d="M173.1 105.1l-10.9 5.3-31-43.3-1.4 65.7z"/><circle r="1" fill="#fdf2dc" transform="rotate(95.2 114 123) scale(57.23994 26.46538)"/><ellipse cx="107" cy="62" fill="#efe6e3" rx="2" ry="15"/><path fill="#c6b88f" d="M59.7 84.4l10.7 32.7 79.2-22.3-59.5-16.6z"/><path fill="#e4d4ae" d="M107.1 30l-21-23.1-.9 31.6 15.5-4.5z"/><path fill="#172213" d="M234 185h-17l36-43z"/><path fill="#3c3a27" d="M14 116l47.6-7.8L31.8 99l-7.6-39.5z"/><path fill="#ead0a0" d="M225 65l26 75-52-52z"/><path fill="#4b4848" d="M200 0h20v70h-20z"/><path fill="#191a0f" d="M141 15h2v48h-2z"/><path fill="#fff" d="M150 72h71v8h-71z"/><path fill="#fff6c6" d="M257.2 146l16.2 11.7-20.6 28.3-16.2-11.7z"/><circle r="1" fill="#c2e2cd" transform="matrix(-3.04866 -1.47378 2.18494 -4.51977 3 94.1)"/><ellipse cx="127" cy="19" fill="#5d5747" rx="6" ry="23"/><path fill="#d3c29f" d="M143 50h55v22h-55z"/><path fill="#000200" d="M266.5 161.5l-73.7-76.3.7-.7 73.7 76.3z"/><path fill="#726042" d="M95.7 136.8l3.8-16.4 31.9 11.1 15.3-21.9z"/><path fill="#bfb499" d="M110.8 125l7.9-2.2-7-47.7-8.1 83.4z"/><path fill="#b75f50" d="M200.6 174.2l-40.7-9.3.2-23.6 28.5 15.2z"/><path fill="#161b28" d="M91.8 165.6l31.5-23 13 17.8-31.6 23z"/><path fill="#9d4257" d="M215.1 133.4l-35.7 13-6.5-17.8 35.7-13z"/><path fill="#423428" d="M77 55h37v4H77z"/><path fill="#4f1419" d="M152 128.5l40.2-26.1 9.8 15-40.2 26.2z"/><path fill="#eed8ab" d="M-51.4 153.1l22.8-36.5 106 66.3-22.8 36.5z"/><ellipse cx="104" cy="53" fill="#fff" rx="27" ry="2"/><ellipse cx="44" cy="93" fill="#ffd47b" rx="5" ry="11"/><path fill="#ecf6fb" d="M137 0h8v24h-8z"/><circle cx="234" cy="163" r="4" fill="#fffeec"/><path fill="#70593f" d="M112.6 104.4l-23.1 4.8 21.5 57.6-11.8-57.2z"/><path fill="#f78a93" d="M151 85h31v3h-31z"/><path fill="#453c30" d="M112 61h13v11h-13z"/><path fill="#737270" d="M93 7l34 19 15-39z"/><path fill="#d0e1cf" d="M31 87l6-12-5-3z"/><path fill="#a6b4a4" d="M5.1 104.6l-.9 13.5 6.4-3.2.5-9.4z"/><path fill="#b8a57f" d="M146.3 88l-83.7 4L84 78.2l67-12.5z"/><path fill="#e3c88e" d="M216-26.1l14-1.5 6 57.7-14 1.5z"/><path fill="#353c70" d="M119.8 130.5l46.2 39.7-25.7-40.8-10.6 11.8z"/><path fill="#fbf3eb" d="M91 182l-37-60-70-10z"/><path fill="#afa2af" d="M144 152l-3 33h30z"/><path fill="#4c4e39" d="M16.5 78l23.6 13.2-12.6 22.7-23.6-13z"/><path fill="#a39b8a" d="M104 148l-19 14 7-49z"/><path fill="#1f1e15" d="M199.8 101.5l-21.9 24 18.2-42.9 32.9 66.6z"/><path fill="#281d12" d="M172 93l-21-6v9z"/><path fill="#fff" d="M49 73h12v30H49z"/><path fill="#9d997d" d="M94.2 149.2l70.7-40L82.8 164l.9-30.1z"/><path fill="ivory" d="M158 97h12v13h-12z"/><path fill="#9e854c" d="M136.4 46.7L87.6 36.1l33.9 1.5 18.6-10.3z"/><path fill="#b3a58c" d="M146 33h39v18h-39z"/><path fill="#211d13" d="M142 0h1v46h-1z"/><path fill="#cbb17c" d="M262.6 185l-32.3-44.8 19.3 6.5-8.7 6.8z"/><path fill="#f8f2e3" d="M70 117l16 43-29 25z"/><path fill="#422d27" d="M181.4 100.5l-26.9 17.1 46.3 4.4-18.3-24.9z"/><ellipse cx="99" cy="50" fill="#453729" rx="11" ry="1"/><path fill="#5d5f52" d="M76 1h10v47H76z"/><path fill="#d8b380" d="M190 79h18v8h-18z"/><path fill="#b07279" d="M191 133.5l26-7.4 4 14.4-26 7.4z"/><path fill="#050a01" d="M212.2 113.9l33.3 51.1-1.7 1.1-33.3-51.1z"/><path fill="#252521" d="M82 69L54-16v87z"/><path fill="#f9fbf2" d="M112 48h28v8h-28z"/></g></g></svg>