<svg xmlns="http://www.w3.org/2000/svg" viewBox="0 0 1400 933"><defs/><filter id="a"><feGaussianBlur stdDeviation="12"/></filter><rect width="100%" height="100%" fill="#351f1b"/><g filter="url(#a)"><g fill-opacity=".5" transform="translate(2.7 2.7) scale(5.46875)"><circle cx="138" cy="65" r="177" fill="#fffdd7"/><circle r="1" fill="#e9f5ff" transform="rotate(87.6 50.6 83) scale(41.94068 214.59712)"/><circle r="1" fill="#cb3402" transform="matrix(141.01038 38.57607 -18.21889 66.59704 147 151.2)"/><ellipse cx="255" cy="93" fill="#fff" rx="9" ry="169"/><ellipse cy="84" fill="#fff" rx="8" ry="168"/><path fill="#390000" d="M57 176L9 57 8 174z"/><path fill="#fbffff" d="M110 85l22-21 34 20z"/><circle r="1" fill="#648061" transform="matrix(-31.5271 -23.41408 11.41326 -15.36797 57.4 30.2)"/><ellipse cx="211" cy="110" fill="#c76a12" rx="37" ry="51"/><path fill="#f9fdff" d="M187 4h46v53h-46z"/><ellipse cx="255" cy="99" fill="#fff" rx="8" ry="169"/><ellipse cx="77" cy="79" fill="#1a0000" rx="35" ry="5"/><path d="M240 77.6l7-8.3-.7-8.6-37.7 25.4z"/><ellipse cx="170" cy="66" fill="#d38245" rx="39" ry="9"/><ellipse cx="127" cy="109" fill="#f6ffff" rx="2" ry="107"/><path fill="#fff" d="M6 185V31l-22 82z"/><path fill="#a3231f" d="M19 86h34v84H19z"/><ellipse cx="13" cy="154" fill="#030000" rx="6" ry="69"/><ellipse cx="60" cy="84" fill="#fbffff" rx="240" ry="2"/><path fill="#3f3e48" d="M130.3 6.3l30.5 8.7-16.2 1.6-14 14.8z"/><ellipse cx="136" cy="169" fill="#fff" rx="142" ry="1"/><path fill="#650e2b" d="M115 86h12v83h-12z"/><path fill="#f2e9fa" d="M25 41h20v39H25z"/><ellipse cx="184" cy="127" fill="#cd7926" rx="50" ry="42"/><path fill="#fff" d="M91 17h15v44H91z"/><path fill="#505354" d="M9 54h11v30H9z"/><path fill="#671b14" d="M30 77h89v7H30z"/><path fill="#793901" d="M234 90h13v80h-13z"/><path fill="#dd7366" d="M58 86h26v82H58z"/><path d="M86.5 9.4l-60.9 4.2v-1l60.8-4.2z"/><ellipse cx="254" cy="114" fill="#fff" rx="7" ry="166"/><path fill="#474a54" d="M174 21l-13-11-2 21z"/><path fill="#5a6051" d="M91 56L67 43 39 57z"/><ellipse cy="85" fill="#fff" rx="7" ry="169"/><ellipse cx="147" cy="15" fill="#fff" rx="3" ry="39"/><path d="M151.8 36.5l1.4-25h1l-1.4 25z"/><path fill="#e4ded5" d="M78 10L15 5l104-21z"/><circle r="1" fill="#814806" transform="matrix(6.59907 .28812 -2.23056 51.08823 137.1 142.4)"/><path fill="#100000" d="M204 83l37-14-9 14z"/><path fill="#d3d9e8" d="M161.4 86.1l-46.8-40.4-3.6 30 9.7 5.5z"/><path fill="#eef2fb" d="M159 13.9l-11-3.2L125-14l104.6 41.4z"/><path fill="#f1f5ff" d="M127.2 54.4l9.5 7.3 5.6-25.8-10.6-12.2z"/><path d="M44 8h2v32h-2z"/><path fill="#b4544f" d="M62 65h33v10H62z"/><path fill="#e8ecfa" d="M179.3 26.4l-43 27.9 33.8-3.5 9-11.7z"/><ellipse cx="156" cy="14" fill="#fff" rx="3" ry="39"/><path fill="#94bdbf" d="M12 14h31v28H12z"/><path fill="#859878" d="M63 18L92 8l-3 29z"/><path fill="#594334" d="M129 61.9l2.8 4.4-1.8-.2 39.3-7.8z"/><path fill="#c44246" d="M85 88h31v79H85z"/><path fill="#fff" d="M120 84h136v2H120z"/><path fill="#515755" d="M14.5 2.8l-5 13.8-3.1-26-22.4-2.7z"/><path fill="#bc6d31" d="M164 75h41v9h-41z"/><path fill="#fdffff" d="M191.6 50l35.3-14.6L200 19.2l-6.4-9.7z"/><path fill="#1c232b" d="M180 19h2v32h-2z"/><path fill="#a89d9b" d="M119 0h8v86h-8z"/><ellipse cx="95" cy="84" fill="#fff" rx="165" ry="1"/><ellipse cx="160" cy="27" rx="1" ry="19"/><path fill="#00040c" d="M150.2 45.2l2.6-8.6 1 .2-2.6 8.6z"/><path fill="#fff" d="M49.5 57.3l2.2 2.2-21.2 21.2-2.2-2.2z"/><path fill="#e0736d" d="M48 81l11-14-34 13z"/><circle r="1" fill="#c4c7d6" transform="rotate(-31.7 142.2 -390.6) scale(11.77822 34.21894)"/><path d="M143 11h1v29h-1z"/><path fill="#c6702b" d="M142 87h90v80h-90z"/><path fill="#293a49" d="M8 40h13v3H8z"/><ellipse cx="127" cy="138" fill="#fff" rx="1" ry="161"/><path d="M47.8 13L24 10l.2-1L48 12z"/><path fill="#c0cca6" d="M86 11L47 36V13z"/><path fill="#4c4d4f" d="M148.4 10.7l-18.3-4.6-1.2 4.1 35.6 6.1z"/><path fill="#263131" d="M86 42h4v14h-4z"/><path fill="#6e865e" d="M81 20l-27 5 8 24z"/><path fill="#ceebfb" d="M8 26h13v15H8z"/><path fill="#ebf7ff" d="M171 85l-39-19 5 17z"/><path fill="#fff" d="M248 29h8v141h-8z"/><path fill="#a1a7af" d="M195.1.5l-33.7 11.4-5.3-26.2 36.1 32.8z"/><path fill="#fff" d="M181 23h4v29h-4z"/><ellipse cx="37" cy="125" fill="#9c3023" rx="14" ry="40"/><path fill="#fcffff" d="M23 84h107v2H23z"/><path fill="#f4e3d7" d="M7 169h240v1H7z"/><path fill="#3f4959" d="M185 19h2v33h-2z"/><path fill="#f0f0f4" d="M97.5 68.9l-1.1-32.7-30.9 13.9 48.8-29.4z"/><path fill="#2e1105" d="M60 74h30v10H60z"/><ellipse cx="71" cy="53" rx="17" ry="1"/><ellipse cx="55" cy="45" fill="#e5f8be" rx="5" ry="6"/><path fill="#34140f" d="M8 87h12v82H8z"/><path fill="#a1a3b0" d="M19 55h12v28H19z"/><ellipse cx="1" cy="127" fill="#fff" rx="6" ry="169"/><path fill="#505456" d="M175 16h1v40h-1z"/><path fill="#5a575a" d="M164 19h10v12h-10z"/><path fill="#200400" d="M58 80.4h-1l-3-26.8h1z"/><path d="M82 10h8v2h-8z"/><path fill="#657b64" d="M51 50l-7 5 3-26z"/><path fill="#fdffff" d="M162 11h2v40h-2z"/><path fill="#d9bdbf" d="M84 55.9l33.8 10.2-61 5.7-.2-16.9z"/><path fill="#b5b7b5" d="M196.4 58.4l51.4 8.2-.2 1-51.4-8.2z"/><ellipse cx="52" cy="2" fill="#cacac4" rx="41" ry="8"/><path fill="#330500" d="M129 100h1v70h-1z"/><path fill="#5f5b61" d="M129 7h10v21h-10z"/><ellipse cx="152" cy="59" fill="#4b4e59" rx="14" ry="2"/><path fill="#0b0f14" d="M152.9 44L150 18h1l2.8 25.8z"/></g></g></svg>