<svg xmlns="http://www.w3.org/2000/svg" viewBox="0 0 1400 934"><defs/><filter id="a"><feGaussianBlur stdDeviation="12"/></filter><rect width="100%" height="100%" fill="#5f4f40"/><g filter="url(#a)"><g fill-opacity=".5" transform="translate(2.7 2.7) scale(5.46875)"><circle r="1" fill="#ffebb8" transform="matrix(2.17912 36.65897 -52.77517 3.13711 34.4 149)"/><ellipse cx="33" cy="22" rx="53" ry="56"/><ellipse cx="255" cy="58" fill="#fedeae" rx="36" ry="70"/><circle r="1" transform="matrix(14.66823 20.9484 -68.49307 47.95936 146.8 149.5)"/><circle r="1" fill="#c0b4a2" transform="matrix(4.06778 -15.24813 79.80581 21.29 174.5 68.1)"/><path fill="#fbf1e1" d="M45 81.4l9.4-14.5 17.9 40.7-4 63.9z"/><circle r="1" fill="#060e18" transform="matrix(-16.7039 -45.5991 22.30562 -8.17101 193.6 26.4)"/><path fill="#000301" d="M81.3-2.2L33 117.4l-72.3-29.2L9-31.4z"/><path fill="#fff" d="M146 73l45 12 38-14z"/><path fill="#000407" d="M84.5 78.5l71.1-16L-.7 45.9l57 26.8z"/><path fill="#f3fbff" d="M136.4-3.4l1.3 36 8.1-11.8L142-16z"/><path fill="#d68a86" d="M237.6 164.9L204 182.7l-13.6-25.6 33.6-17.8z"/><path d="M261 151l-22 12-47-78z"/><path fill="#dfe4ec" d="M117 41l38 15-78-4z"/><path fill="#fff" d="M49 72h12v29H49z"/><circle r="1" fill="#0e0e04" transform="matrix(-31.70887 7.84715 -.96466 -3.898 49.1 107.8)"/><path fill="#b67d42" d="M53.1 113.3l-7.9-41-31.8 8.6 7.5-9.6z"/><path fill="#9c6f3a" d="M231 78l-39 2 78 77z"/><ellipse cx="54" cy="134" fill="#e1c9ab" rx="21" ry="25"/><path fill="#141c22" d="M127 35l9-10.2 1.4-32.2L90.2 5.8z"/><path fill="#120000" d="M182.1 79.8l-19 .5L149 99l31-6.6z"/><path fill="#e4dec7" d="M184 97l-28-1 6 14z"/><circle r="1" fill="#242220" transform="matrix(-13.73035 20.5715 -24.98274 -16.67461 106.6 141.4)"/><circle r="1" fill="#9d6a38" transform="matrix(9.68547 -12.94684 85.92035 64.27663 16.2 163.5)"/><path fill="#110300" d="M193 78l52 59-62-15z"/><ellipse cx="189" cy="77" fill="#fff" rx="43" ry="3"/><path fill="#9a754f" d="M220 2h14v82h-14z"/><path fill="#fff5ee" d="M-2.1 115l32.8 3-.6 7-32.8-3z"/><path fill="#030200" d="M128 56h15v16h-15z"/><path fill="#dcffff" d="M190.3 85.1L188.6 96l-7-1.1 1.8-10.9z"/><circle r="1" fill="#cabda4" transform="matrix(-5.03237 40.98534 -15.74252 -1.93294 249 35.8)"/><path fill="#947e56" d="M136 27l69 29-59 14z"/><path fill="#11020b" d="M56 185l144-99-28 58z"/><circle r="1" fill="#772e39" transform="matrix(38.98227 -23.38265 8.5562 14.26442 179.7 154)"/><path fill="#141618" d="M198 0h22v69h-22z"/><path fill="#7e7250" d="M63 86h85v21H63z"/><path fill="#e7e0df" d="M147.7 45.9l-44 17.1 4.8 13.5-.6-17.1z"/><path fill="#000100" d="M22.4 99.4l21.7 3.4-2.5 15.8-21.7-3.4z"/><path fill="#97743c" d="M223 124l38 33-1 28z"/><path fill="#131918" d="M50 40h54v12H50z"/><path fill="#a99570" d="M85 37V-7l17 36z"/><ellipse cx="142" cy="32" rx="1" ry="34"/><path fill="#fff" d="M137 0h4v29h-4z"/><path fill="#000505" d="M62 0h14v82H62z"/><circle r="1" fill="#272a3a" transform="rotate(-124.4 109 36.1) scale(42.16617 8.1627)"/><path fill="#675a46" d="M63 89l57 26-33 51z"/><path fill="#fffaff" d="M109 47l14 12-6 1z"/><path fill="#fff" d="M137 37h4v17h-4z"/><path fill="#46403b" d="M168.7-11.4l29.7 86.5-45.5-45-8.2-46.1z"/><path fill="#181a15" d="M76.1 108.3l-83.6 8 21.8-32.7-6.6 14.5z"/><path fill="#f4f4ff" d="M151 72h68v8h-68z"/><path fill="#fff" d="M48.7 73l11 .1-.4 24-11-.2zM44 110h24v4H44z"/><path fill="#fcffff" d="M97 45h25v4H97z"/><path fill="#d1b796" d="M-6.6 112l88.1 63.3 1.6-11.5-4.8-25.6z"/><path fill="#000300" d="M255.3 139.9l3.2 2.3-21.8 30-3.2-2.4z"/><path fill="#fff" d="M106 60h2v14h-2z"/><path fill="#977942" d="M158 70.3l-25.6 11.4-4.4-10 25.6-11.4z"/><path fill="#3a181b" d="M151 80h31v13h-31z"/><path fill="#fff" d="M87 53h52v2H87z"/><path fill="#c77b3b" d="M48 68L37 89l8 15z"/><ellipse cx="17" cy="77" fill="#604d29" rx="31" ry="6"/><path fill="#b3becd" d="M220 15h2v59h-2z"/><ellipse cx="144" cy="47" fill="#c3bcaf" rx="2" ry="21"/><path fill="#070d0b" d="M141 15h2v50h-2z"/><path fill="#a08462" d="M209.8 97.8L190.5 79l66.4-.1 14.1 68.2z"/><path fill="#baaca9" d="M125 51h2v23h-2z"/><ellipse cx="60" cy="63" fill="#0e100e" rx="45" ry="10"/><path fill="#755e44" d="M75 53v-1l54-3v1z"/><path fill="#322110" d="M105 105l-1 41-13-43z"/><path fill="#0e100e" d="M1 55h112v3H1z"/><path fill="#88633b" d="M222 49.2l10 .7-2 29-10-.8z"/><path fill="#c39a6f" d="M21 160l-37-55 106 69z"/><circle r="1" fill="#05090d" transform="matrix(-24.74975 4.13387 -1.95815 -11.72356 109 164.7)"/><path d="M124 56l13 8 3-9z"/><path fill="#322e2d" d="M193 25h27v47h-27z"/><circle r="1" fill="#463d59" transform="matrix(4.86415 -4.721 16.7243 17.2314 147.7 162.6)"/><path fill="#2a2618" d="M101 31l26 11-22-1z"/><path fill="#7e571f" d="M136.5 45.7l-9.4-.1 3.6-17.8 10.3-3.4z"/><path fill="#0c0000" d="M166 120.3l16.9 27.1-6.8 4.3-17-27.1z"/><path fill="#8f7e5a" d="M69 104l21 15-5-37z"/><ellipse cx="21" cy="169" fill="#7a6340" rx="36" ry="5"/><path fill="#bc7320" d="M44 99h18v4H44z"/><path fill="#926b40" d="M217-11l26-5-17 54z"/><path fill="#effaff" d="M7 116h18v4H7z"/><path fill="#403b27" d="M147 102.1l-5.2 9 21.1 1.6-51.3 31.9z"/><path fill="#938670" d="M122.2 38L93 27.9l2.6 9.8 23.2-11.3z"/><path fill="#83745d" d="M115 115l-8 25-1-45z"/><path fill="#211d16" d="M-16 114.6l50 2.2 20-9-30.9-18.6z"/><path fill="#bca88c" d="M223.3 80.8l17-12.3 16.4 22.7-17 12.3z"/><path fill="#2f250f" d="M194 85h14v8h-14z"/><circle r="1" fill="#2b2926" transform="rotate(58.1 85.7 167) scale(19.26605 31.60286)"/><ellipse cx="86" cy="19" fill="#eee4dd" rx="1" ry="19"/><path fill="#913e2d" d="M153.2 135.2l53.6 49.8-4.4-.2-27.8-14.9z"/><path fill="#875351" d="M180.3 143.9l14 21.9 27.2-29.2 9.9 16.4z"/><path fill="#665a4d" d="M178 34.7l-38-8 54.2 46.8 5.4-20.7z"/><path fill="#ab8c54" d="M145 43h19v30h-19z"/><path fill="#a58253" d="M264 131l-8 46-22 8z"/><path fill="#babbbe" d="M110.6 129.5l-2.3 9.7-2.9-.7 2.3-9.7z"/><circle r="1" fill="#0d1111" transform="rotate(96.5 18.7 23.4) scale(57.34068 41.75433)"/></g></g></svg>