<svg xmlns="http://www.w3.org/2000/svg" viewBox="0 0 1400 933"><defs/><filter id="a"><feGaussianBlur stdDeviation="12"/></filter><rect width="100%" height="100%" fill="#3c4758"/><g filter="url(#a)"><g fill-opacity=".5" transform="translate(2.7 2.7) scale(5.46875)"><circle r="1" fill="#92805e" transform="matrix(-138.97216 10.2957 -17.7639 -239.77846 94.6 96.7)"/><circle r="1" fill="#575345" transform="matrix(-87.91602 -146.55053 52.27111 -31.35756 236.9 59.7)"/><circle r="1" fill="#746f65" transform="matrix(-34.01557 -90.24634 73.53783 -27.71781 50.1 107.6)"/><ellipse cx="184" cy="2" fill="#385d61" rx="252" ry="13"/><ellipse cx="54" cy="166" fill="#4b6f74" rx="195" ry="11"/><ellipse cx="13" cy="86" fill="#4b686d" rx="9" ry="163"/><circle r="1" fill="#78624f" transform="matrix(-1.74277 -94.25852 19.78839 -.36587 42.4 63)"/><path fill="#8b5e3d" d="M197 25h35v19h-35z"/><circle cx="129" cy="84" r="28" fill="#4e6354"/><path fill="#6d5343" d="M186 149l44-139-3 143z"/><circle r="1" fill="#7f6f63" transform="matrix(-11.7718 19.06016 -37.99505 -23.46622 104.6 127.3)"/><path fill="#9b774f" d="M32 126h31v20H32z"/><path fill="#a5775d" d="M163.8 41.2l11-11.5 9.4 9-11 11.6z"/><circle r="1" fill="#725b54" transform="matrix(-2.28524 -20.83768 34.9776 -3.83595 191.4 86.5)"/><path fill="#997248" d="M34 23.3l29 1.5-1 20-29-1.6z"/><ellipse cx="33" fill="#586b6c" rx="43" ry="17"/><circle cx="173" cy="132" r="8" fill="#a47251"/><ellipse cx="242" cy="73" fill="#365250" rx="9" ry="169"/><path fill="#7f7e7b" d="M-28 79.3l14.4-4.4L28 210.7l-14.3 4.4z"/><path fill="#77675d" d="M76 14h72v45H76z"/><path fill="#57564e" d="M60.4 47.2l2 20-34.8 3.6-2-20z"/><ellipse cx="127" cy="114" fill="#807479" rx="35" ry="6"/><path fill="#173450" d="M147 69h4v27h-4z"/><path fill="#57564e" d="M30 103h26v23H30z"/><circle cx="47" cy="86" r="17" fill="#876d66"/><path fill="#4a5e5c" d="M152 156h91v14h-91z"/><path fill="#92683e" d="M198 126h17v20h-17z"/><path fill="#9d7655" d="M75 32h18v15H75z"/><path fill="#73684d" d="M113 69h27v31h-27z"/><circle cx="81" cy="131" r="8" fill="#a57c5a"/><path fill="#544a43" d="M233.5 64.5l-33.7 4.7-3.3-23.7 33.7-4.7z"/><path fill="#5a514e" d="M207.4 147.1L106 113.7l22.6 7.1 32 30.7z"/><ellipse cx="226" cy="113" fill="#54554e" rx="33" ry="14"/><ellipse cx="255" cy="77" fill="#615038" rx="5" ry="128"/><path fill="#7d6a6d" d="M97 53h90v7H97z"/><path fill="#ab8542" d="M74 81h8v10h-8z"/><ellipse cx="1" cy="17" fill="#82756b" rx="3" ry="162"/><path fill="#3b5156" d="M249 11l-129 2 85-29z"/><circle cx="46" cy="85" r="9" fill="#866238"/><ellipse cx="99" cy="86" fill="#897374" rx="3" ry="39"/><path fill="#83645a" d="M195 71h17v22h-17z"/><path fill="#997b3c" d="M174 79h10v10h-10z"/><path fill="#555758" d="M148.6 30.5L132 53.2l85.3-8.7-56 12.3z"/><path fill="#697575" d="M5.7 164.4l.7-14 62 3.2-.8 14z"/><path fill="#535763" d="M75.6 19.3l26.1 8.5-34.6 2.3L72.4 56z"/><path fill="#726c70" d="M123.2 41.8l-2.7 68.7-7.7-64.3 54.9 22z"/><path fill="#35536d" d="M111 61h34v4h-34z"/><path fill="#63584c" d="M221 15h13v50h-13z"/><path fill="#585a60" d="M94.6 109l-2.4 26.4L76.5 149l21.7-1.9z"/><path fill="#827463" d="M20 93h8v60h-8z"/><path fill="#907340" d="M114 131l14 12 11-12z"/><ellipse cx="145" cy="151" fill="#7e6748" rx="96" ry="2"/><path fill="#9b7f41" d="M126.1 40l-5.3-6 9.1-8 5.3 6z"/><path fill="#81635a" d="M154 27h3v110h-3z"/><ellipse cx="125" cy="107" fill="#516c6f" rx="17" ry="6"/><path fill="#4b515c" d="M197.8 53.2l-15.8-.9 2.5-11.7-2.5-29.1z"/><path fill="#575352" d="M180.8 73.9l16.4-4.7-4.2 32.4-2.1 16z"/><path fill="#675950" d="M113.4 25.6L245.1 20l-114.5-5.1-32.8 41.8z"/><path fill="#5f5c60" d="M97.6 100.2l-12.4 3.3L101-10.6l-6.2 104z"/><path fill="#575875" d="M36.8 94.3L39 75.6l-5.8 8.5 12.7 13z"/><ellipse cx="7" cy="100" fill="#54676c" rx="4" ry="133"/><path fill="#707275" d="M62 143l1-51 16 26z"/><path fill="#707e5c" d="M113 67h7v37h-7z"/><path fill="#485a58" d="M233 92h11v78h-11z"/><path fill="#826a4b" d="M33 18h104v3H33z"/><path fill="#4a4f68" d="M158 23h31v6h-31z"/><circle cx="171" cy="131" r="9" fill="#8d6a52"/><path fill="#7f6b4c" d="M74 62l14 12-1 40z"/><path fill="#5e584c" d="M124 123h40v10h-40z"/><path fill="#4e585a" d="M104 26l15 19-15 2z"/><path fill="#52555b" d="M180 139.7l5.1-20.9 12.7 32-44.8-5.4z"/><ellipse cx="218" cy="101" fill="#4e4344" rx="3" ry="25"/><path fill="#4d484b" d="M28 73h3v31h-3z"/><ellipse cx="74" cy="50" fill="#5e636e" rx="46" ry="2"/><path fill="#91693a" d="M205 25h10v20h-10z"/><path fill="#78636d" d="M196 92l22 5-8 7z"/><path fill="#3a5167" d="M105 69h4v30h-4z"/><path fill="#4b4d6f" d="M206 71l-8 8 17-6z"/><ellipse cx="162" cy="76" fill="#5c5a5d" rx="5" ry="51"/><path fill="#937771" d="M206 69l16 7-7-8z"/><path fill="#84633d" d="M227 83h2v66h-2z"/><circle cx="127" cy="85" r="11" fill="#685349"/><circle r="1" fill="#906727" transform="matrix(-6.21148 -.41561 .2334 -3.48825 47.4 129.4)"/><path fill="#755f61" d="M208.5 37.9l10.5-4.3 2.2-2.4-27.3-3.2z"/><circle cx="209" cy="85" r="8" fill="#8a643e"/><path fill="#988376" d="M61 94l-1-18 8 19z"/><path fill="#7c5f33" d="M26 33h2v62h-2z"/><path fill="#5a5f67" d="M56 80h4v48h-4z"/><path fill="#aa8876" d="M63.5 88.5l-10.2 13.6-.8-.6 10.2-13.6z"/><path fill="#2f4245" d="M244 49h7v52h-7z"/><path fill="#716376" d="M180.1 110.4l-.2 14 3.6.6 6.2-22.3z"/><path fill="#525355" d="M91 146h143v2H91z"/><path fill="#9e731e" d="M44.2 39l10 1-.4 5-10-1z"/><path fill="#745e69" d="M161 47l1 47-12-34z"/><path fill="#7e677a" d="M92.1 66l35.5-21.8L135 52l-14 3.6z"/><path fill="#856c4a" d="M151 142l-8 4-7-20z"/><path fill="#9e835c" d="M99 40h4v11h-4z"/><path fill="#856865" d="M159 23l-25 2 27 6z"/><path fill="#7f6a52" d="M175 78.3l-3.7-3.4L191 53.7l3.6 3.4z"/><path fill="#9c7548" d="M177 113l-9 3-1-4z"/></g></g></svg>