<svg xmlns="http://www.w3.org/2000/svg" viewBox="0 0 933 1400"><defs/><filter id="prefix__a"><feGaussianBlur stdDeviation="12"/></filter><rect width="100%" height="100%" fill="#4f3746"/><g filter="url(#prefix__a)"><g transform="translate(2.7 2.7) scale(5.46875)"><circle cx="62" cy="183" r="217" fill="#f79f9b" fill-opacity=".5"/><ellipse cx="68" cy="6" fill="#fff" fill-opacity=".5" rx="169" ry="12"/><ellipse cx="100" cy="248" fill="#fff" fill-opacity=".5" rx="169" ry="11"/><circle cx="99" cy="122" r="106" fill="#883b41" fill-opacity=".5"/><ellipse cx="94" cy="8" fill="#fff" fill-opacity=".5" rx="169" ry="10"/><path fill="#fff" fill-opacity=".5" d="M168.5 271.5H-.5v-33h169zM169 0h1v256h-1z"/><ellipse cx="79" cy="6" fill="#fff" fill-opacity=".5" rx="169" ry="11"/><ellipse cy="110" fill="#fdffff" fill-opacity=".5" rx="2" ry="129"/><path fill="#fff" fill-opacity=".5" d="M0 239h170v17H0z"/><ellipse cx="58" cy="214" fill="#904754" fill-opacity=".5" rx="111" ry="25"/><path fill="#85474f" fill-opacity=".5" d="M1 18h167v54H1z"/><ellipse cx="169" cy="114" fill="#e8fff6" fill-opacity=".5" rx="2" ry="61"/><path fill="#fff" fill-opacity=".5" d="M146 271l39-37-164 10z"/><ellipse cx="102" cy="5" fill="#fff" fill-opacity=".5" rx="169" ry="12"/><path fill="#fff" fill-opacity=".5" d="M17 271l104-31-137-3z"/><path fill="#894c58" fill-opacity=".5" d="M1 147h44v91H1z"/><path fill="#fff" fill-opacity=".5" d="M0 95l-16 48 16 54zM0 0h1v256H0z"/><path fill="#644f52" fill-opacity=".5" d="M7 18h161v7H7z"/><path fill="#955158" fill-opacity=".5" d="M116 17h53v220h-53z"/><ellipse cx="84" cy="222" fill="#a8525f" fill-opacity=".5" rx="79" ry="10"/><circle r="1" fill="#964f52" fill-opacity=".5" transform="matrix(20.62704 -26.99978 74.62185 57.0089 87.8 82.8)"/><ellipse cx="71" cy="8" fill="#fff" fill-opacity=".5" rx="169" ry="9"/><path fill="#fbffee" fill-opacity=".5" d="M169 22h1v181h-1z"/><ellipse cx="96" cy="254" fill="#fff" fill-opacity=".5" rx="169" ry="15"/><path fill="#71525a" fill-opacity=".5" d="M2 18h6v213H2z"/><ellipse cx="1" cy="61" fill="#bfd3c3" fill-opacity=".5" rx="1" ry="45"/><ellipse cx="148" cy="232" fill="#86575c" fill-opacity=".5" rx="128" ry="4"/><path fill="#9e5353" fill-opacity=".5" d="M37 150h93v54H37z"/><ellipse cx="85" cy="126" fill="#884f5b" fill-opacity=".5" rx="27" ry="26"/><ellipse cx="107" cy="236" fill="#6c505d" fill-opacity=".5" rx="30" ry="2"/><path fill="#bbc1af" fill-opacity=".5" d="M50 17h40v2H50z"/><ellipse cx="32" cy="115" fill="#815159" fill-opacity=".5" rx="5" ry="97"/><ellipse cx="168" cy="149" fill="#96b0a1" fill-opacity=".5" rx="1" ry="70"/><path fill="#3f4850" fill-opacity=".5" d="M116 18h51v2h-51z"/><circle r="1" fill="#9e4d50" fill-opacity=".5" transform="matrix(-.5527 19.78703 -41.05493 -1.14677 92.4 76.5)"/><path fill="#6d5a66" fill-opacity=".5" d="M168.9 174.5h-1l-2.8-155h1z"/><path fill="#fff" fill-opacity=".5" d="M184.5 18.5l-83.8-2.7L-16 10.4 154.2-16z"/><path fill="#9d5161" fill-opacity=".5" d="M9 50h17v181H9z"/><circle r="1" fill="#a04758" fill-opacity=".5" transform="rotate(-179.9 76.6 88.3) scale(9.8071 53.80676)"/><ellipse cx="75" cy="40" fill="#914f57" fill-opacity=".5" rx="73" ry="20"/><path fill="#885760" fill-opacity=".5" d="M41 204h98v9H41z"/><path fill="#a24c5a" fill-opacity=".5" d="M145 33h16v94h-16z"/><path fill="#80545b" fill-opacity=".5" d="M161 22h7v119h-7z"/><ellipse cx="138" cy="131" fill="#86565d" fill-opacity=".5" rx="5" ry="81"/><path fill="#8f4d4b" fill-opacity=".5" d="M66 120l-34 15 22 41z"/><ellipse cx="32" cy="19" fill="#444956" fill-opacity=".5" rx="83" ry="1"/><ellipse cx="165" cy="178" fill="#825662" fill-opacity=".5" rx="3" ry="58"/><path fill="#98575f" fill-opacity=".5" d="M76 115h17v93H76z"/><path fill="#a05a52" fill-opacity=".5" d="M131.5 122.6l-3.8-21.3-22.9 6.6 29.9 70.8z"/><path fill="#53606e" fill-opacity=".5" d="M0 237h116v1H0z"/><ellipse cx="168" cy="44" fill="#74958c" fill-opacity=".5" rx="1" ry="28"/><path fill="#fcfffd" fill-opacity=".5" d="M.5 157h-1V-11h1z"/><path fill="#86575a" fill-opacity=".5" d="M29 46h116v8H29z"/><ellipse cx="55" cy="24" fill="#7c5055" fill-opacity=".5" rx="53" ry="4"/><path fill="#9a4a53" fill-opacity=".5" d="M68 26h95v19H68z"/><ellipse cx="7" cy="114" fill="#85575b" fill-opacity=".5" rx="3" ry="97"/><ellipse cx="125" cy="250" fill="#fff" fill-opacity=".5" rx="169" ry="11"/><path fill="#9e5755" fill-opacity=".5" d="M111.6 82.4l-79.2 53L45 102.5l-1.9-21.2z"/><ellipse cx="103" cy="128" fill="#7f4751" fill-opacity=".5" rx="5" ry="21"/><ellipse cx="59" cy="238" fill="#939d98" fill-opacity=".5" rx="46" ry="1"/><path fill="#a64c4a" fill-opacity=".5" d="M121.4 191.4l-7.8 16.2-4.1-60.1-11.2 2z"/><path fill="#5d6f73" fill-opacity=".5" d="M1 194h1v40H1z"/><ellipse cx="2" cy="101" fill="#64666d" fill-opacity=".5" rx="1" ry="83"/><ellipse cx="33" cy="17" fill="#bec2ad" fill-opacity=".5" rx="16" ry="1"/><ellipse cx="168" cy="205" fill="#706d72" fill-opacity=".5" rx="1" ry="31"/><path fill="#a75b59" fill-opacity=".5" d="M59 183l25-27 19 20z"/><ellipse cx="96" cy="220" fill="#a1525e" fill-opacity=".5" rx="69" ry="10"/><path fill="#9e5d65" fill-opacity=".5" d="M43.9 195l-39.7-.8 7.7-7.3 62.9 7z"/><path fill="#828c94" fill-opacity=".5" d="M146 235h24v2h-24z"/><path fill="#fffffc" fill-opacity=".5" d="M169 88h1v68h-1z"/><path fill="#a05662" fill-opacity=".5" d="M64 37h32v8H64z"/><path fill="#734e52" fill-opacity=".5" d="M106 167l-9 4 17 4z"/><path fill="#8d404b" fill-opacity=".5" d="M13 132h29v7H13z"/><path fill="#88444b" fill-opacity=".5" d="M3 199h43v5H3z"/><path fill="#a1504c" fill-opacity=".5" d="M110 111.5l14.2-63.7L92.4 107l12.5.9z"/><path fill="#694a50" fill-opacity=".5" d="M44 142l-10 4 3 8z"/><path fill="#85484c" fill-opacity=".5" d="M164.5 20.9l-2.9 12.9 1.2 5-36.6-18.6z"/><ellipse cx="30" cy="18" fill="#707679" fill-opacity=".5" rx="28" ry="1"/><path fill="#d3d6b6" fill-opacity=".5" d="M169 166h1v55h-1z"/><path fill="#93424d" fill-opacity=".5" d="M149 115h11v31h-11z"/><path fill="#995759" fill-opacity=".5" d="M166 49l-51 27-11-17z"/><ellipse cx="36" cy="8" fill="#fff" fill-opacity=".5" rx="168" ry="9"/><ellipse cx="84" cy="191" fill="#8d4f5b" fill-opacity=".5" rx="11" ry="14"/><path fill="#92474f" fill-opacity=".5" d="M41.5 78.2l45.9.3-7.6-21.7L8.3 70z"/><path fill="#b45d49" fill-opacity=".5" d="M108 135l1 14 7 1z"/><path fill="#ab524f" fill-opacity=".5" d="M120.4 170.4l20.2 9-40.8 3.1h-5.5z"/><path fill="#925d63" fill-opacity=".5" d="M7 108h72v8H7z"/><path fill="#98595d" fill-opacity=".5" d="M62 94h75v6H62z"/><path fill="#deddbf" fill-opacity=".5" d="M160 236h10v3h-10z"/><path fill="#8c5a64" fill-opacity=".5" d="M42 86h14v16H42z"/><path fill="none" stroke="#c2b3a5" stroke-opacity=".5" stroke-width=".5" d="M168.7 159.2v-55.8"/><path fill="#b4676b" fill-opacity=".5" d="M111 116h12v4h-12z"/><path fill="#dae3cf" fill-opacity=".5" d="M1 238l-1-57-16 57z"/><ellipse cx="84" cy="235" fill="#8e505a" fill-opacity=".5" rx="71" ry="2"/><ellipse cx="1" cy="140" fill="#9da49a" fill-opacity=".5" rx="1" ry="56"/><ellipse cx="167" cy="143" fill="#6d5f67" fill-opacity=".5" rx="1" ry="84"/><path fill="#92525c" fill-opacity=".5" d="M95.1 83.9L47.9 36.4l32.6 15.8 16.8-5.1z"/><path fill="#cfd1bc" fill-opacity=".5" d="M152.6 239.4l-13.9-.9-20.2-1.4 66.3.3z"/></g></g></svg>