<svg xmlns="http://www.w3.org/2000/svg" viewBox="0 0 787 1119"><defs/><filter id="a"><feGaussianBlur stdDeviation="12"/></filter><rect width="100%" height="100%" fill="#755e54"/><g filter="url(#a)"><g fill-opacity=".5" transform="translate(2.2 2.2) scale(4.3711)"><circle r="1" fill="#fff" transform="rotate(110 33.8 63.3) scale(79.59265 179.00001)"/><ellipse cx="124" cy="145" fill="#b3bab8" rx="60" ry="255"/><circle r="1" fill="#faffff" transform="matrix(7.57137 54.56394 -88.51382 12.2823 28.4 47.4)"/><ellipse cx="50" cy="116" fill="#652500" rx="56" ry="16"/><circle r="1" fill="#b3a89c" transform="matrix(-4.73689 25.09697 -82.29964 -15.53351 0 170.4)"/><circle r="1" fill="#615241" transform="matrix(54.89916 2.49296 -.5455 12.01292 178.6 74.2)"/><ellipse cx="88" cy="87" fill="#fff" rx="80" ry="11"/><ellipse cx="26" cy="122" fill="#653300" rx="45" ry="21"/><circle cx="97" cy="131" r="35" fill="#b3a08f"/><ellipse cx="26" cy="26" fill="#e7faff" rx="57" ry="43"/><circle r="1" fill="#746d67" transform="matrix(-45.5053 -29.21388 19.10974 -29.76647 166.5 172.2)"/><ellipse cx="55" cy="74" fill="#8b8980" rx="72" ry="4"/><circle r="1" fill="#8e9597" transform="matrix(2.26417 20.9031 -160.08259 17.33973 74.2 249.8)"/><ellipse cx="76" cy="146" fill="#eededd" rx="4" ry="95"/><path fill="#653200" d="M80 99h25v9H80z"/><circle r="1" fill="#382f22" transform="rotate(-77.3 151.8 89.2) scale(12.08025 30.25511)"/><ellipse cx="36" cy="92" fill="#f0feff" rx="83" ry="8"/><path fill="#4d280f" d="M30 101h42v38H30z"/><circle r="1" fill="#9d948d" transform="matrix(-23.35745 -17.85812 25.89605 -33.87062 172.3 28)"/><path fill="#79452e" d="M29 154h44v14H29z"/><circle r="1" fill="#c4c8ce" transform="matrix(23.07544 5.31929 -11.82178 51.28374 105.4 20.3)"/><path fill="#9a6323" d="M-34.6 126.5l60-19.5 9.2 28.5-60 19.5z"/><path fill="#9b9f9d" d="M0 144h28v55H0z"/><path fill="#9f8372" d="M43.3 147.1l34.4 17.6-14.2-32.8 23.7-35.1z"/><circle r="1" fill="#655b52" transform="matrix(-2.42255 16.42652 -26.96795 -3.97718 177.3 170.4)"/><path fill="#432107" d="M71.3 99l-20.9 23.5-30.9-17.9 7-1.2z"/><ellipse cx="6" cy="90" fill="#e6eff7" rx="94" ry="12"/><circle r="1" fill="#a29d93" transform="matrix(-.81792 -4.79802 62.55273 -10.66338 107.9 68)"/><path fill="#cda77b" d="M76 105h30v33H76z"/><ellipse cx="133" cy="89" fill="#eefaff" rx="38" ry="6"/><path fill="#8c867d" d="M93 69l82 18-42-22z"/><circle r="1" fill="#9c9996" transform="matrix(-4.89137 -14.11162 66.88558 -23.18386 142.4 138.2)"/><path fill="#8d6753" d="M78 196l-29 17-23-49z"/><path fill="#f1fdff" d="M92 76h27v8H92z"/><path fill="#a5a69d" d="M-10.7 83l-.4-6 85.8-6 .4 6z"/><path fill="#96928e" d="M79 137h52v116H79z"/><path fill="#3e2a1d" d="M65 225l-28 1-9-28z"/><circle r="1" fill="#d7dee6" transform="rotate(27.8 3.2 176.4) scale(21.47139 56.24225)"/><path fill="#abafb1" d="M107 96h72v41h-72z"/><circle r="1" fill="#eaf6fc" transform="rotate(177.8 36.2 72.5) scale(2.83782 10.02427)"/><path fill="#7f7568" d="M182.7 55.5l3.6 38.4-9.4.9-30.1-27.6z"/><ellipse cx="110" cy="32" fill="#c3c3c2" rx="13" ry="38"/><path fill="#a29385" d="M76 226.9l-24.4-17.7 15.7-10.3-10.2 20.5z"/><path fill="#f1f9fc" d="M0 93h21v10H0z"/><path fill="#d4c8b6" d="M108.4 135.1l-25.1-8.8-9.1 13.5 40-5.3z"/><path fill="#595147" d="M-16 234l94-5-83-19z"/><ellipse cx="20" cy="23" fill="#e3ebf4" rx="48" ry="50"/><path fill="#816242" d="M79 98h28v11H79z"/><path fill="#867f7c" d="M103 177h61v35h-61z"/><path fill="#d9d1d1" d="M71.5 112.1l5.4 7.2 1.6-19.6-6.6-6.8z"/><path fill="#abaca4" d="M75.1 147.2l4.2-3-18.1 16.4-6.3-4.8z"/><circle r="1" fill="#6e3400" transform="matrix(-.90274 -3.11935 19.90283 -5.75986 22.7 138.6)"/><path fill="#a2a1a0" d="M87 212l71 5-85 20z"/><path fill="#8f847b" d="M57 185.2L6.8 171.3-16 210.7l80.2-25.3z"/><ellipse cx="75" cy="224" fill="#edfbff" rx="3" ry="5"/><path fill="#723823" d="M73.6 194.5l.8 3-30 8-.8-3z"/><path fill="#9d8a79" d="M16.1 143.6l24.4-1.6 1.4 11.5-57.3-3.2z"/><circle r="1" fill="#e9eae9" transform="matrix(3.06652 .2629 -.91096 10.62584 76.2 177.4)"/><path fill="#773520" d="M75.4 131.2L61 142l-2.4-3.2L73 128z"/><path fill="#b98f7b" d="M73.2 134.6l.4-7.6-12.3-12.1 29.5 14z"/><circle cx="74" cy="255" r="25" fill="#928d89"/><path fill="#743c29" d="M61 170.7l8-18 6.4 12.4-23.6-7.5z"/><ellipse cx="96" cy="84" fill="#e7eef8" rx="43" ry="8"/><path fill="#431c00" d="M55 100l-52 4 38 9z"/><path fill="#b2a799" d="M73.9 164.2L56 172.1l3.8 14.3 10.8-3z"/><path fill="#a26a53" d="M62 209h14v12H62z"/><path fill="#5a3523" d="M52 101l20-2-24 44z"/><path fill="#865540" d="M29 166h8v19h-8z"/><path fill="#978273" d="M107.7 188.2L55 171.9l-21.7 34.5 6.4-46.5z"/><path fill="#b6bbbe" d="M106 101h23v22h-23z"/><circle r="1" fill="#929089" transform="matrix(-.31098 3.1156 -31.29951 -3.1241 162 81.3)"/><circle r="1" fill="#a49b92" transform="rotate(83.7 48.5 115.6) scale(9.77966 32.10797)"/><path fill="#897362" d="M72.1 108.5l-35.9 52.3 3.8-8.9 21.4-7.6z"/><path fill="#ebf1f7" d="M36 79h56v20H36z"/><circle r="1" fill="#5d2900" transform="rotate(-14.5 560.1 -86.8) scale(11.48822 4.56914)"/><path fill="#ae8a60" d="M80.3 129.5l-2.4-23.1 24.8-3.3 3.1 7.6z"/><path fill="#846051" d="M31 189l2 13 24-12z"/><path fill="#a3a19c" d="M16 144h12v28H16z"/><path fill="#e6ecf0" d="M74 168h5v20h-5z"/><path fill="#c68a77" d="M71.6 169.3l-.5-2.8 4.4-14.1 5.6 11.7z"/><path fill="#ecf6fc" d="M136 87h35v7h-35z"/><circle r="1" fill="#afaca7" transform="matrix(15.30292 -52.5082 13.02809 3.79689 149.2 13.3)"/><path fill="#d3dadf" d="M90 67l-96 5 99-34z"/><ellipse cx="179" cy="69" fill="#786a5d" rx="39" ry="6"/><path fill="#928c86" d="M17.4 180.7l-33.4-27 4.8 25.1L43 207.7z"/><path fill="#643322" d="M46 151l20 12-11 2z"/><circle r="1" fill="#8a8b8d" transform="rotate(-131.1 145 81.2) scale(36.21937 46.05741)"/><path fill="#5e5348" d="M0 201h27v27H0z"/><circle r="1" fill="#725135" transform="matrix(-.62357 -2.57492 10.26936 -2.48696 95.7 101.4)"/><path fill="#936029" d="M29.3 127.6L10 136.7l-16.5 17.9-9.5-42z"/><path fill="#3e3227" d="M61 228l-7-12 19 14z"/><ellipse cx="18" cy="231" fill="#6c665d" rx="37" ry="6"/><path fill="#78706a" d="M160 153l-27 11 62 51z"/><path fill="#9c9c92" d="M27.5 78v1l-31 1v-1z"/><path fill="#9e9794" d="M79.7 250.2l-1-57.2 44.7 5.7-48.5 32.7z"/><circle r="1" fill="#99928c" transform="rotate(146.8 31.9 92.5) scale(33.09444 16.17334)"/><path fill="#a7a7a0" d="M134 95h46v7h-46z"/><path fill="#a59f98" d="M72.4 191.6L56 199.3l-.5-1 16.3-7.6z"/><circle r="1" fill="#675c52" transform="matrix(-6.6737 6.79121 -10.07 -9.89577 179 172.1)"/><path fill="#cfc1bd" d="M70.2 201.4l9.5-5.2-13-21.4 13.7 32.9z"/></g></g></svg>