<svg xmlns="http://www.w3.org/2000/svg" viewBox="0 0 1400 934"><defs/><filter id="a"><feGaussianBlur stdDeviation="12"/></filter><rect width="100%" height="100%" fill="#433d37"/><g filter="url(#a)"><g fill-opacity=".5" transform="translate(2.7 2.7) scale(5.46875)"><ellipse cx="158" cy="120" fill="#fff" rx="255" ry="65"/><path fill="#050800" d="M147.4 63.4l82.4-16 8.8 45.2-82.4 16z"/><ellipse cx="34" cy="148" fill="#fff" rx="235" ry="38"/><ellipse cx="212" cy="50" fill="#cac4bf" rx="27" ry="26"/><path d="M51 46h17v47H51z"/><circle r="1" transform="matrix(-38.7823 -9.3108 1.34021 -5.5824 145.8 112.9)"/><ellipse cx="113" cy="34" fill="#776c5b" rx="53" ry="37"/><circle r="1" transform="matrix(-38.47094 -11.74119 1.31978 -4.32436 85.5 96.3)"/><circle r="1" fill="#e2e7e5" transform="matrix(122.02524 61.9029 -12.62229 24.8815 72 127)"/><circle r="1" fill="#e3e9e2" transform="matrix(61.47157 -11.55901 3.95545 21.03533 211 126)"/><path fill="#302f25" d="M210 51l-46 67-53-94z"/><circle r="1" fill="#c4b6aa" transform="matrix(-59.1239 -10.42514 1.24682 -7.07109 225.2 36.7)"/><circle r="1" fill="#fff6ff" transform="matrix(-9.85362 -16.45269 5.0823 -3.04382 6.5 0)"/><path fill="#060c00" d="M152.9 22.9l1.3-37 91 3.2-1.4 37z"/><path d="M52 50h14v40H52z"/><path fill="#0b1006" d="M189.8 77.3l81.2 4.9-43.5 7-42.2 10.1z"/><ellipse cx="65" cy="17" fill="#8b8489" rx="64" ry="6"/><path fill="#0d0900" d="M269.7 37.4l-56.8 14.9 33.5 7.4 24.6-9.3z"/><path fill="#010702" d="M169.5 64.5l-24.6 54.1 23.7.4 2.8-36.7z"/><path fill="#e2e4e5" d="M176.3 70.9l.4-7 23 1.2-.4 7z"/><path fill="#060902" d="M121 33h71v17h-71z"/><path fill="#c6aca0" d="M165.5 46l-3.7-10.7 2.2-18.4-11.3 31.3z"/><circle r="1" fill="#e7ebe8" transform="matrix(4.03593 -31.77673 149.9894 19.05002 106.7 169)"/><path fill="#9e9d9b" d="M138 54h17v55h-17z"/><circle r="1" fill="#0d1310" transform="rotate(-163.4 67.5 44.1) scale(53.75741 4.48574)"/><circle r="1" fill="#99826b" transform="matrix(-48.02897 -12.06404 1.55402 -6.1868 99.5 49.7)"/><path fill="#fff2a2" d="M136 28h23v6h-23z"/><path fill="#c1c5c3" d="M78.7 55.4L117 62l-5.8 32.5L73 88z"/><path d="M164.7 55.6l107 20.8-.4 2-107-20.8z"/><path fill="#a8a7a6" d="M186.8 54.4L167.4 58l49.9-30.5 47.8-1.6z"/><circle r="1" fill="#12140e" transform="matrix(-81.575 6.33346 -.29589 -3.811 41 33.6)"/><path fill="#c7cac7" d="M126 112l-2 42-74-66z"/><path fill="#abb3ac" d="M101-2.7l28.8 2.5-.7 9-29-2.6z"/><path fill="#ced1cc" d="M261.1 107.2l-3.5 50-90.7-6.4 3.5-50z"/><path fill="#101c07" d="M270.9 21.8l-34.4 15 34.5 4.5-53.9-23.4z"/><circle r="1" fill="#c8d1d5" transform="matrix(-1.84623 4.47891 -27.64214 -11.3942 127 97.6)"/><path d="M10 64l43-18 37 8z"/><path fill="#031107" d="M95.5 12h-39v-22h39z"/><path fill="#c9cbcb" d="M269.5 85l-58-11.2 1-4.9 58 11.3z"/><path fill="#766d62" d="M86.4 78.7l70.1 1.2-78.3-31.5 110.4 5.2z"/><path fill="#b6967c" d="M76 33h42v8H76z"/><path fill="#2e2413" d="M157.4 68.2l-1-4.9 120.2-25.5 1 4.9z"/><path fill="#d4d2cb" d="M207.3 63l63.7 9.7V65l-54.1-9.6z"/><path fill="#c8caca" d="M66 83l63 17-63-39z"/><path fill="#bbb4b4" d="M256.3 29.9l-67.6 12.5 5.2-19.1 12.9 2.7z"/><path fill="#b6b7b0" d="M0 67h51v36H0z"/><ellipse cx="57" cy="67" rx="7" ry="20"/><path fill="#2c2b23" d="M168.8 72.7l-92.9-19 75.9 10.5-29.7-4.2z"/><path d="M46.7 57.4L-16 63.1.2 68.4l-13 3.3z"/><path fill="#554f4a" d="M117 31l59-16-70-15z"/><path fill="#d6d7d3" d="M224.5 113.2l-62.2 5.5-64.9 38.6L270.3 136z"/><path fill="#606562" d="M171 67h21v37h-21z"/><ellipse cx="163" cy="86" fill="#0a0e08" rx="8" ry="29"/><circle r="1" fill="#86887e" transform="matrix(.88287 3.40015 -46.1072 11.97206 219.2 96)"/><path fill="#1f1e1b" d="M114 21h50v6h-50z"/><path fill="#d18c44" d="M148 27h43v5h-43z"/><ellipse cx="27" cy="48" fill="#58534d" rx="25" ry="9"/><ellipse cx="145" cy="6" fill="#000900" rx="15" ry="4"/><path fill="#4c4f3c" d="M212.6-6.1l34-1.8.8 18-34 1.8z"/><circle r="1" transform="matrix(-2.3969 -5.78664 16.44318 -6.81099 141.3 41.4)"/><path fill="#0b0d03" d="M230.1 26.6L186-16l-10.7 41 85-7.6z"/><path fill="#635643" d="M174.6 22.2l-1 4.7-10.4-33 16.9.1z"/><path fill="#c4cad3" d="M250.4 41.1l-5.2-.1-71.4 13.3 49.1-6.7z"/><path fill="#6d6864" d="M45 11l-56 5 61 17z"/><path fill="#7a7274" d="M107 11h55v7h-55z"/><path fill="#d88f21" d="M117 28h19v4h-19z"/><path fill="#d7dad9" d="M66.7 104.2l82 50.8L-16 128.9l68.6-40.2z"/><path fill="#533c20" d="M257.5 158.5l.5.9-33.5 20-.5-.8z"/><path fill="#282d25" d="M197 71l-20 25 75-15z"/><ellipse cx="251" cy="41" fill="#cdd7e3" rx="14" ry="2"/><path fill="#989195" d="M30.5 15.7l62.8-4.4.2 3-62.8 4.4z"/><path fill="#000200" d="M164 32h25v15h-25z"/><path fill="#8b7d6b" d="M56 36h33v13H56z"/><path fill="#fffff9" d="M149 27l-4 6-6-2z"/><circle r="1" fill="#1c201f" transform="matrix(-1.5484 4.0683 -24.187 -9.20561 120.8 105.5)"/><path fill="#a9a79f" d="M67.9 58.4l-2.2 15.7 30.9 9.5 39.3-17.4z"/><circle r="1" fill="#c4c7c2" transform="matrix(-2.13446 1.34935 -6.08265 -9.6218 124.6 .7)"/><path fill="#b0b7bb" d="M136 98l15.9 13.8 5.5-22.3-79-5.7z"/><path fill="#0d1208" d="M64.8 82.7l1.3-38.5-9.4 46.1 39.2 11.8z"/><path fill="#232623" d="M82.9 90.3l74.8 33.7-1.6-43.4 10.2 33.9z"/><path fill="#000100" d="M49 18h5v17h-5z"/><circle r="1" fill="#e8d5da" transform="matrix(2.13899 -2.3896 12.22406 10.94202 5.3 0)"/><circle r="1" fill="#a6a6a4" transform="rotate(100.1 72.9 121.4) scale(3.61487 32.47709)"/><path fill="#121710" d="M18 8h40v5H18z"/><circle r="1" fill="#b7b7b1" transform="matrix(-1.00607 -4.87208 52.15553 -10.76994 217.5 108)"/><path fill="#908177" d="M169.7 43.8l-21.6 8.1L164 25.7l-1.4 22.6z"/><path fill="#010400" d="M113 14l6 2-5 14z"/><path fill="#b7bbba" d="M123.1 110.5l-36.1.9 42.5 17.5 19.3-6.9z"/><path fill="#707274" d="M153.6 86.1l-10 2.5-37-11.9 52.7-13.9z"/><circle r="1" fill="#aeaea7" transform="rotate(58 -73.4 49.2) scale(16.11782 26.2052)"/><path d="M69.8 11.4l-18-2.1L75.4-16 63.3 9.2zM116 34l5-2 4 13z"/><ellipse cx="225" cy="60" fill="#c6c1ba" rx="26" ry="3"/><path fill="#010400" d="M63 31h25v3H63z"/><path fill="#b0becb" d="M110-8l-5 17L95-5z"/><path fill="#c3c2b8" d="M33 64h18v23H33z"/><circle r="1" fill="#e6eae9" transform="rotate(-160.2 43.9 79.4) scale(43.20038 19.52972)"/><circle r="1" transform="rotate(173.3 21 30.7) scale(44.35223 1.87402)"/><path fill="#151a0d" d="M218 24l50 6-49-21z"/><circle r="1" fill="#c7cac9" transform="rotate(-155.9 18.4 54.5) scale(23.08627 10.40311)"/></g></g></svg>