<svg xmlns="http://www.w3.org/2000/svg" viewBox="0 0 1400 934"><defs/><filter id="a"><feGaussianBlur stdDeviation="12"/></filter><rect width="100%" height="100%" fill="#614e3b"/><g filter="url(#a)"><g fill-opacity=".5" transform="translate(2.7 2.7) scale(5.46875)"><circle cx="121" cy="7" r="210" fill="#e0f1f2"/><path d="M157.2 100.8l-7.6 109.8-76.8-5.4 7.6-109.8z"/><circle cx="103" r="69" fill="#fcfffe"/><path fill="#421d00" d="M211 27h34v89h-34z"/><circle r="1" fill="#fff" transform="matrix(-59.03656 -.67056 .2719 -23.93904 214 143.3)"/><path d="M115 73l84 29 3-24z"/><circle r="1" fill="#f1f6ea" transform="matrix(-26.89189 -3.44493 6.64305 -51.85711 190.8 25.6)"/><ellipse cx="114" cy="152" fill="#1a1b0d" rx="30" ry="67"/><circle r="1" fill="#f3f1ee" transform="matrix(-12.48396 28.52058 -45.89998 -20.09123 26 169)"/><path fill="#2c260e" d="M25.7 130.5l-4.4-50.3L-16 127l4.1.3z"/><circle r="1" fill="#57594a" transform="matrix(-17.2993 9.83052 -12.73632 -22.41278 143.9 64.2)"/><path d="M173 81h27v18h-27z"/><path fill="#212425" d="M74 80h22v27H74z"/><circle r="1" transform="matrix(9.0004 1.64368 -.86837 4.75499 34.3 46.3)"/><path fill="#d7dbda" d="M161 64h10v57h-10z"/><path fill="#1e1c07" d="M210 78h33v35h-33z"/><path fill="#5a4626" d="M138 145.3l51.6 15.8-9.6 31.6-51.6-15.8z"/><circle r="1" fill="#b4b2be" transform="matrix(-15.37674 7.92224 -33.1471 -64.33714 48.7 107.5)"/><path fill="#a2a49a" d="M160.7 54.6l-49.5-8 3.6 58.7-26.4 4.3z"/><circle r="1" fill="#fcfefe" transform="matrix(-34.78281 -17.21698 5.84947 -11.81747 219.2 133.8)"/><path d="M154 71l9 16-33-4z"/><ellipse cx="192" cy="1" fill="#dee1d8" rx="150" ry="25"/><path fill="#e3e8e1" d="M247 35h9v132h-9z"/><path fill="#272721" d="M88 112h75v17H88z"/><path fill="#fdffff" d="M115.6 39.5l-6 22.2-49.2-13.2 6-22.2z"/><ellipse cx="229" cy="53" fill="#a38028" rx="19" ry="28"/><path fill="#c7c5b4" d="M7 0h58v41H7z"/><path fill="#1d1b16" d="M168 101l20 23-10-23z"/><path fill="#dce6f1" d="M123 101l39-2 7-14z"/><ellipse cx="206" cy="78" fill="#e4ebeb" rx="5" ry="32"/><path fill="#cbcabb" d="M-27 62.6l120.7-17 3.4 23.8-120.8 17z"/><path fill="#70737a" d="M69 108h16v58H69z"/><ellipse cx="186" cy="86" rx="15" ry="9"/><path fill="#b2b4c4" d="M25 168l6-85 52 3z"/><path fill="#959c93" d="M68 58.6l76.1 43.7-15.9.9 16.5-37.5z"/><path fill="#c4b9a6" d="M205 182l-47-29 113 9z"/><path fill="#f7ffff" d="M205.8 108.1l-24-1.2.4-7 24 1.2z"/><path fill="#eaeff1" d="M149 150l122-5-79-31z"/><circle r="1" fill="#a5a393" transform="matrix(-.91855 3.15616 -58.45166 -17.0115 70.2 20)"/><path d="M139 73h20v13h-20z"/><path fill="#1b2018" d="M13 83h7v40h-7z"/><path fill="#222822" d="M75.3 94.8L90 99.9l58.2-5.5-75.6 14.1z"/><path d="M42 50H24l2-10z"/><path fill="#fdffff" d="M106 101l-12 4 21-1z"/><path fill="#c9ccc2" d="M165 0h48v78h-48z"/><path fill="#80652c" d="M212 26h36v25h-36z"/><path fill="#e9eef2" d="M182.6 103.5l-20.4 15 4.4 4.7 9.8-1.5z"/><path fill="#c6cecc" d="M249.1 38.7l6.1 58.6-13.6 26.5 4-42z"/><path d="M176 123l6-1 3-15z"/><path fill="#fff" d="M63 29h16v30H63z"/><circle r="1" fill="#edeff1" transform="matrix(-2.20135 8.07588 -49.83545 -13.5843 112.8 20)"/><path fill="#3e3c38" d="M173 126l-49 9 3-19z"/><path d="M172 78h20v20h-20z"/><ellipse cx="85" cy="88" fill="#cbcbd3" rx="26" ry="2"/><path fill="#2d2c1f" d="M85.2 106.2l-1.3 65.7 85.4 13.1-3.5-23.2z"/><path fill="#c8cbc0" d="M206.2 29.6l22.5-2.4 3-35.9-98 55.7z"/><path fill="#1b1c14" d="M80 80l12 22 14-1z"/><path fill="#0d0500" d="M24 42h18v8H24z"/><path fill="#e4e6e3" d="M153 131h103v19H153z"/><path fill="#7e898f" d="M27.2 150.3l21.1 4.9-13.4-12.4-11.7-3.4z"/><ellipse cx="104" cy="96" fill="#c7cad9" rx="7" ry="3"/><path fill="#291903" d="M47 80h11v4H47z"/><path fill="#444437" d="M33 77l6 6-8 3z"/><path fill="#a39c82" d="M-16 106l27-19-1 22z"/><path fill="#726447" d="M127 55l41-6-36-5z"/><path fill="#c2c2b8" d="M51-16L20 15l49 62z"/><path fill="#261a0a" d="M230 103h12v15h-12z"/><path fill="#c8cdce" d="M126.4 84.8l37 21.9 4.6-81.5 3.2 72z"/><path fill="#b2b0a1" d="M141 49h14v24h-14z"/><path fill="#bbbbc0" d="M90 88l-80-8 43 22z"/><path fill="#091e24" d="M212 79h28v10h-28z"/><path fill="#5d554d" d="M170.7 100l.3 6.8-28.5 33.8 3.7-21.8z"/><path fill="#60492e" d="M209 90h28v24h-28z"/><path fill="#967a3e" d="M212 49h32v31h-32z"/><path fill="#6d5a3c" d="M109.3 173.7L154 151l6.8 13.3L116 187z"/><ellipse cx="158" cy="24" fill="#d3d5d0" rx="37" ry="22"/><circle r="1" fill="#e1ddd3" transform="matrix(-10.10762 20.09677 -80.57958 -40.5273 12.2 169)"/><path fill="#574a27" d="M152 57h14v8h-14z"/><path fill="#000812" d="M177 122l-12 6 5-6z"/><path fill="#a69886" d="M245.9 120.1l11-5.5 14.1 16.7-85.2-23.2z"/><path fill="#010000" d="M111 88h9v5h-9z"/><path fill="#b2b6b0" d="M111 30h16v48h-16z"/><path fill="#7c7c84" d="M84.3 130.8l.1 19.5-27-51.4 14.1-3.7z"/><path fill="#8a8e86" d="M70 80l71 8-10-18z"/><path fill="#b1b5b3" d="M85 26h9v48h-9z"/><path d="M147 79h7v10h-7z"/><path fill="#39342e" d="M90 89l-22-8 19-1z"/><path fill="#6f613d" d="M137 59l18 4-22 3z"/><path fill="#a69987" d="M205.6 145.1l-40.3 34.2 41.4-29.1-1.6 2.4z"/><circle r="1" fill="#3d3b33" transform="matrix(-10.20048 1.99456 -4.82906 -24.6966 142.7 128.9)"/><ellipse cx="101" cy="100" fill="#1d1f1a" rx="28" ry="3"/><path fill="#6b4e13" d="M241.5 37.8l1-14 6 .4-1 14z"/><path fill="#000700" d="M171 84h25v14h-25z"/><path fill="#dfe1e3" d="M48 79l1 11-11 1-1-11z"/><path fill="#aca999" d="M151 61h16v11h-16z"/><path fill="#b3b8b3" d="M137.4 86.5h-5l.2-15h5z"/><path fill="#687e8e" d="M106 37h1v26h-1z"/><path fill="#bebdc5" d="M95.5 107.8l-.2-1 49.2-8.6.2 1z"/><path fill="#758184" d="M80 23h2v22h-2z"/><path fill="#dfe9f1" d="M244 98h3v20h-3z"/></g></g></svg>