<svg xmlns="http://www.w3.org/2000/svg" viewBox="0 0 1400 933"><defs/><filter id="a"><feGaussianBlur stdDeviation="12"/></filter><rect width="100%" height="100%" fill="#4f4437"/><g filter="url(#a)"><g fill-opacity=".5" transform="translate(2.7 2.7) scale(5.46875)"><circle r="1" fill="#fff" transform="rotate(120.3 31.7 63.3) scale(155.73286 199.23391)"/><circle r="1" fill="#fff" transform="matrix(-6.4192 -43.72178 252.29527 -37.04183 97.7 29.7)"/><circle r="1" fill="#050b00" transform="matrix(79.67175 10.6725 -2.21349 16.52398 229.4 99)"/><circle r="1" fill="#fff" transform="rotate(-11.1 878.6 -958) scale(68.4965 33.41248)"/><path fill="#201f16" d="M51 79l100 34-131 10z"/><circle r="1" fill="#939286" transform="rotate(56.4 -12.2 175.5) scale(48.85031 66.84139)"/><circle r="1" fill="#fefff5" transform="matrix(-60.74258 67.01359 -27.68003 -25.08979 44.7 34.4)"/><circle r="1" fill="#0c0f02" transform="matrix(2.28343 12.97685 -46.24875 8.13801 240 100.6)"/><path fill="#000400" d="M135.1 106.8l-19.8 6.9 34.4-6.8-18.2 43.2z"/><path fill="#f7fbfc" d="M164.3 153.5l12.7-44.2 108.7 31.2-12.7 44.2z"/><circle r="1" fill="#c4d4dd" transform="matrix(41.4413 7.17788 -4.26942 24.6494 104 160.3)"/><ellipse cx="168" cy="103" fill="#fff" rx="24" ry="5"/><circle r="1" fill="#7f8362" transform="rotate(-103.8 120 -89.2) scale(5.97064 42.13392)"/><path fill="#d4ceba" d="M200 0l-51 66 38 27z"/><path fill="#292923" d="M30.8 125.2l72.3-12.4 3.9 25.3-43.9-53z"/><path fill="#b6ad6f" d="M45 17h48v13H45z"/><ellipse cx="113" fill="#fff" rx="98" ry="19"/><path d="M108.7 129.6l29.7 12-1.1 2.8-29.7-12z"/><path fill="#7f7249" d="M-26.6 113l67-11.7 4.2 23.6-67 11.8z"/><circle r="1" fill="#525544" transform="matrix(-.19536 3.81928 -60.41521 -3.09022 233.3 80.7)"/><path fill="#171a08" d="M166 84l-30 1 52 16z"/><path fill="#190000" d="M155 56l4-12-13 5z"/><path fill="#464c4b" d="M179 124l-63-18 25 30z"/><path fill="#f0e8ef" d="M191.2 90l49.5-7 .1 1-49.5 7z"/><path fill="#dae0db" d="M0 44h41v61H0z"/><path fill="#fafffe" d="M271 45L253 7l-16 44z"/><circle r="1" fill="#fff" transform="rotate(-165.9 98 30.8) scale(15.22481 2.45859)"/><circle r="1" fill="#9b999b" transform="matrix(17.61632 4.8108 -4.97956 18.23433 86.9 85.2)"/><path fill="#0d0903" d="M173 92.5v1l-100 14v-1z"/><path fill="#fffffe" d="M203 19h22v31h-22z"/><circle r="1" fill="#fafffe" transform="rotate(45.3 -27.3 104.7) scale(22.33044 19.94039)"/><path fill="#141403" d="M42 88h12v33H42z"/><path d="M193 106h3v16h-3z"/><path fill="#cdccc0" d="M46.2 190l-35.1 11.3-17.3-53.2 35.1-11.4z"/><path fill="#abb5b8" d="M94.1 114.3l6.7 27.4-22.5 39.4-40.9-53.4z"/><path d="M134 119h7v23h-7z"/><path fill="#0e180f" d="M103 86h16v6h-16z"/><path fill="#080c00" d="M247.3 83.5l-12.1 25.9 11.6 9.8 24.2 2z"/><path fill="#ececfc" d="M223.2 97.8l-28.6-4.6.2-1 28.6 4.6z"/><path fill="#bfc3b5" d="M232.8 78.8l-143-58.4 147.8 38.7-33.2 44.1z"/><path fill="#c2ccd6" d="M102.3 127.8l33.1 6.5-30.3-24.1.8-15.6z"/><path fill="#dfe8e9" d="M116 79h26v9h-26z"/><ellipse cx="132" cy="110" fill="#121205" rx="14" ry="4"/><path fill="#271f18" d="M92 95l-2-12-10-7z"/><path d="M97 129l11 3-12-27z"/><path fill="#676663" d="M39 89l10.5-12.3 17.9 8.7L88 116.1z"/><path fill="#516367" d="M244 0h2v44h-2z"/><path fill="#b9b29d" d="M147.9 79.5L93.4 52.7l69.3 1.3-9.8 42.5z"/><path fill="#f0ebe8" d="M149 98h20v13h-20z"/><circle r="1" fill="#bdb5a9" transform="matrix(-20.96429 13.78299 -6.51569 -9.91054 178.9 169)"/><path fill="#c4cbcc" d="M173.2 151.7l-51.9-9.5-32-19.5 22.5 62.3z"/><path fill="#b1b5b4" d="M156.7 118.3l75.5 7.8-96-14.5 10.5 33.8z"/><path fill="#d2cebc" d="M169.8 39.8l32.3-30-74.3 5.2-37.9 51z"/><path fill="#b7bfaf" d="M224 4h17v55h-17z"/><path d="M66.4 118.6l-.2-1 35.4-6.2.2 1z"/><path fill="#beb687" d="M83 19l-40-9 2 15z"/><path fill="#b2a699" d="M43.4 112.7l-12.1 4.7-4.7-12.1 12.1-4.7z"/><path fill="#4a4038" d="M225 103l-18-27-22 1z"/><path fill="#c5c4c5" d="M95 98L69 67 59 81z"/><circle r="1" fill="#dac3a3" transform="rotate(83 6.6 125.9) scale(3.03759 31.5811)"/><circle r="1" fill="#f2f4f1" transform="matrix(-12.75434 -21.3956 13.99429 -8.34227 212.2 137)"/><path fill="#453c24" d="M138.3 121.2l30.1-7.8-32.1 2.4 16.6-14.5z"/><path fill="#6a6f57" d="M250 9l-30-25 51 18z"/><path fill="#1f1e13" d="M187.9 98.2l1.7-4.7 22.5 8.3-1.7 4.7z"/><path fill="#fcfff9" d="M-10.8-3.9l84.1 43.2-46.5.4L65.9-16z"/><path fill="#c7c9c5" d="M95 115l-26 4 24 10z"/><path fill="#2f291d" d="M167 75l5.2 19-5 5.3-5-6.9z"/><path fill="#e4e7e8" d="M206 85h22v2h-22z"/><path fill="#21271c" d="M221.9 86.4l1.1 14.8 7.5-21.9 16.2 1.6z"/><path fill="#665f42" d="M-16 110.5l10.2 15.9-9.3 1.8 61.8-6.1z"/><path fill="#c9ccc6" d="M44.7 29.9L31.1 82.7l37.7 7.4-21-7.1z"/><path fill="#291b00" d="M148 46l-5 9 16-6z"/><path fill="#242419" d="M148.7 111.7l-28.9 2.6-.5-6 28.9-2.6z"/><path fill="#b0b4b6" d="M148.8 58.3l-20 78.2-26.4-10.6 31.7.6z"/><path fill="#c2bdac" d="M140 54h65v18h-65z"/><path fill="#221f0a" d="M186 107h15v5h-15z"/><path fill="#dbe1e2" d="M185 100l-12 6 23-4z"/><path fill="#dadedb" d="M141 135h70v21h-70z"/><path fill="#303125" d="M51 123.4l6.9-28.1-17.5-12.2-.2 6.7z"/><path fill="#f0f3eb" d="M121-16L69 69l92-85z"/><path fill="#32372a" d="M167.5 127.3l-7.1-4.2 1.6-1.1 18.5 1.1z"/><path fill="#292920" d="M148 90l-10-2 10-10z"/><path fill="#85996f" d="M176 92h10v19h-10z"/><path fill="#0a0c00" d="M78 90h4v7h-4z"/><path fill="#fffffe" d="M173.7 115l-5-2.1 21.4-1.2 1.4 5.9z"/><path fill="#889376" d="M204 70h52v8h-52z"/><path fill="#f3f6f4" d="M154.9 114.3L174 122l69-4-20.7 9.7z"/><circle r="1" fill="#2d291a" transform="matrix(-.43051 -2.90587 19.13402 -2.83474 49.7 120.1)"/><path fill="#5e5c4f" d="M131.9 68.5l-22.3 18.8-.7-6.4 13.5-.2z"/><path fill="#c2cdd8" d="M123 123h11v11h-11z"/><path fill="#131206" d="M154.8 97l-.5-7 13-1 .4 7z"/><path fill="#cbc4b4" d="M161 34l24-1-25 56z"/><path fill="#f4faf8" d="M214.8 5.4L271-7.2 125.4-16l67.5 24.5z"/><path fill="#c8c6d2" d="M95 93h31v4H95z"/><ellipse cx="68" fill="#fff" rx="47" ry="13"/><circle r="1" fill="#5b5246" transform="matrix(47.65993 -13.21727 .26724 .96363 173.3 110.7)"/><path fill="#736d70" d="M56.4 91.5L69.9 117l47.2-15.6-58.9 9.1z"/><ellipse cx="252" cy="29" fill="#fafff2" rx="7" ry="19"/><path d="M200 80h4v10h-4z"/><circle r="1" fill="#e6d6d7" transform="rotate(32.5 -53.4 397.8) scale(1 5.86016)"/></g></g></svg>