<svg xmlns="http://www.w3.org/2000/svg" viewBox="0 0 1400 934"><defs/><filter id="a"><feGaussianBlur stdDeviation="12"/></filter><rect width="100%" height="100%" fill="#343129"/><g filter="url(#a)"><g fill-opacity=".5" transform="translate(2.7 2.7) scale(5.46875)"><circle r="1" fill="#fff" transform="matrix(-175.3225 -3.05506 2.20145 -126.33612 128.9 86.8)"/><circle r="1" fill="#fff" transform="matrix(6.49248 46.11988 -252.51024 35.54688 106.3 28.9)"/><circle r="1" fill="#fff" transform="matrix(82.60475 -6.79135 2.13641 25.98569 217.7 146.8)"/><path d="M193 79h63v37h-63z"/><path fill="#020000" d="M49 79l56 34-71 10z"/><circle r="1" fill="#fffff5" transform="rotate(-122.8 34.3 3.2) scale(40.24403 239.48707)"/><path fill="#fff" d="M249 185l-103-85 125 30z"/><circle r="1" fill="#ccd2d0" transform="matrix(-.1705 24.4208 -88.58294 -.61844 71.7 160)"/><path fill="#222416" d="M118 105.7l29 .5 2.3 2.1-11.2 40.9z"/><circle r="1" fill="#989281" transform="rotate(164.2 60 47.2) scale(72.43658 28.04463)"/><path fill="#262c15" d="M142.2 83.8l29.2-2.7 27.9 21.3-54.7-7.6z"/><path d="M233 115l7.8-29 26.1 7-7.7 29zM96 104h7v25h-7z"/><circle r="1" fill="#898c6a" transform="rotate(81.6 113.1 140.2) scale(6.19751 41.13971)"/><circle r="1" fill="#d3d1bc" transform="matrix(-1.5379 -6.14926 88.05389 -22.02176 202.2 64.3)"/><path fill="#756638" d="M-43.2 111.3l86.6-7.6 1.8 21-86.6 7.6z"/><path fill="#b7ad6c" d="M44 17h48v12H44z"/><path fill="#9e9b8d" d="M258 79l-99-6 26 24z"/><path fill="#3f2b0c" d="M156.5 46.1l3 3.7-14.1 10.4 1.2-15z"/><circle r="1" fill="#000002" transform="matrix(-.78049 1.9713 -23.29422 -9.22283 120 135.3)"/><path fill="#fefffa" d="M222.8 19.7l-.6 31-27-.4.6-31z"/><path fill="#1f200e" d="M222.6 114l41.9-20.6-59.2 8.1-33.7 8.4z"/><path fill="#fdfdf8" d="M237-3L116 29-2-4z"/><ellipse cx="17" cy="91" fill="#ebeef2" rx="23" ry="14"/><ellipse cx="162" cy="102" fill="#f3ecd8" rx="35" ry="4"/><path fill="#263028" d="M176.1 119.4l1.5 4.8-27.7 8.4-1.5-4.8z"/><path fill="#deecfa" d="M134 122l-1 15-27-15z"/><path fill="#151804" d="M42 88h14v32H42z"/><path fill="#fff" d="M171 82l30 6-22-11z"/><path fill="#cdcab7" d="M86 18h112v29H86z"/><circle r="1" fill="#2e291b" transform="rotate(94.1 63 134) scale(4.31237 16.348)"/><ellipse cx="56" cy="87" fill="#62625b" rx="15" ry="10"/><path fill="#6f6a67" d="M124 117l-43-8 31-29z"/><path fill="#fff" d="M247 11h9v38h-9z"/><circle r="1" fill="#ebece9" transform="matrix(-2.22602 -26.50893 43.04582 -3.61466 209.3 141.3)"/><ellipse cx="140" cy="169" fill="#c9cecd" rx="64" ry="26"/><ellipse cx="63" cy="146" fill="#adafac" rx="49" ry="25"/><path fill="#605745" d="M138.4 119.1l-.5-2 57.7-12.2.5 2z"/><path fill="#1a1509" d="M178 96l-9-15-22 15z"/><path fill="#fbfffb" d="M75 74l20-32-85-26z"/><path fill="#000300" d="M134 118h7v27h-7z"/><path fill="#f6ffff" d="M215.7 91.7l9.8-14 .8.6-9.8 14z"/><path fill="#060901" d="M120 109h31v4h-31z"/><path fill="#1a1810" d="M177 92.7l.2 1L83 105.3l-.1-1z"/><path fill="#cdd0c8" d="M-16 42.1l115.6 60.5-11.8-11.3L29 48.8z"/><path fill="#bbb8c2" d="M117.4 92l-39.9 4.9 58-.1 25-6.5z"/><path fill="#091709" d="M105 88h15v4h-15z"/><path fill="#4b4a3f" d="M223.3 76.8l-27.1 25.8-7.9 31 1.1-5.7z"/><path fill="#cdc6b3" d="M159.9 54.6l-24.1-.4 38.4 31.4 25.1-71.8z"/><path fill="#5e634b" d="M259 4l-18 4-2-24z"/><path fill="#fff" d="M75.5 14.5l104-30.5-194.1 4.7L11 7.8z"/><path fill="#9f9a92" d="M35 134l36 2-2 40-36-2z"/><path fill="#b8c0c2" d="M135.5 185l-75.2-62.6 30.1-7.3 13.8 24.6z"/><path fill="#cdd1ce" d="M111 79.3L-14.3 61.8 55.5 89 40.1 74z"/><path fill="#464041" d="M92.3 84.7l-2.6 13.6-1.8-7.1-8-16z"/><path fill="#51636e" d="M200.2 41.9l2.6-23.9 1 .1-2.6 23.9z"/><path d="M101 111.5l.1 1-52 10-.2-1z"/><path fill="#b1a79c" d="M150 61h5v67h-5z"/><ellipse cx="223" cy="85" fill="#fff" rx="17" ry="1"/><path fill="#2f312e" d="M68.6 105.2l-6.6-25L74.1 96l-13.5 6.4z"/><path fill="#272817" d="M223 87h12v30h-12z"/><ellipse cx="153" cy="50" fill="#1a0700" rx="7" ry="4"/><path fill="#ababa9" d="M128.2 136.1l11.1-28-30.4 19.9-15.3-32.4z"/><path fill="#787365" d="M111 114h63v3h-63z"/><path fill="#c3bb8e" d="M89 19l-9 13-40-21z"/><path fill="#a7b098" d="M239.8 14.3L217 65.2 259.9 90l-19.2-41.3z"/><path fill="#4e5a4b" d="M183 95.8l40.1-2.7 10.8-3.9-60 17.1z"/><path fill="#dee6ea" d="M122 78h13v12h-13z"/><path fill="#d0d6d5" d="M161.9 173.8L176 131l-45 14.5-18.7 20.2z"/><path fill="#666263" d="M102 109L77 89v25z"/><path fill="#a99d89" d="M18 104h24v11H18z"/><path fill="#dcdbe9" d="M224.9 97.2L193 93.8l.1-1 31.9 3.4z"/><path fill="#2a3019" d="M240.1 72.3l23.5 69.4-19.2-61.2-16.9 4z"/><path fill="#baac9b" d="M193 181l-4-30-55 34z"/><path fill="#141c20" d="M132.8 145.2l3.4-.3-1.4-3.1-23.6-9.7z"/><path fill="#2f2e21" d="M40.2 98.3l1-14.8 25.3 35.9-18.9 4.2z"/><path fill="#dcdcdb" d="M154 96l25 10-33 9z"/><path fill="#d6b777" d="M106 103h44v4h-44z"/><path fill="#100c00" d="M202 80l-3 11 13-11z"/><path fill="#fff" d="M157 116.4l.2-1 43.8 10.2-.2 1z"/><path d="M97 111h4v14h-4z"/><path fill="#777e7f" d="M152.2 110.8l-7.8 4.2-5.5 19.8 27.1-1.7z"/><path fill="#515760" d="M160.7 114l.5-2 32 8-.4 2z"/><path fill="#f9f9ff" d="M172.5 83l1.2-3.9 25.8 8-1.2 3.8z"/><circle r="1" fill="#cfc4b3" transform="rotate(1.6 -1752.5 5850.6) scale(3.4272 37.8153)"/><ellipse cx="234" cy="161" fill="#ebedec" rx="24" ry="45"/><path fill="#efecea" d="M142.8 103.1l49.1-2 3.2 2.9-36.9-6.8z"/><path fill="#bdbbad" d="M163.2 58.3l71.3 7.8L181.6 40l-10.3 52.9z"/><path d="M120 107l10 8 5-7z"/><path fill="#677a82" d="M244 2h2v45h-2z"/><ellipse cx="214" cy="77" fill="#807d69" rx="56" ry="2"/><path fill="#cdcdc1" d="M161.7 24L93 72 80.4 54 149 5.9z"/><path fill="#a19b87" d="M88 76l40-18 29 20z"/><circle r="1" fill="#ebfde7" transform="matrix(-9.57857 -5.75572 11.35053 -18.88937 212.7 33.7)"/><circle cx="143" cy="109" r="5" fill="#191500"/><circle cx="108" cy="121" r="6" fill="#ced6d6"/><path fill="#010900" d="M248.9 82.1l-9.4 17.2-3.4 11.7 10.8 3.3z"/><path fill="#bcc2c4" d="M141 120h5v50h-5z"/><circle cx="145" cy="85" r="4" fill="#12140f"/><circle r="1" fill="#262417" transform="rotate(-165.1 105.2 37) scale(10.36287 3.34615)"/></g></g></svg>