<svg xmlns="http://www.w3.org/2000/svg" viewBox="0 0 1400 1119"><defs/><filter id="a"><feGaussianBlur stdDeviation="12"/></filter><rect width="100%" height="100%" fill="#444"/><g filter="url(#a)"><g fill-opacity=".5" transform="translate(2.7 2.7) scale(5.46875)"><circle cx="164" cy="101" r="208"/><circle r="1" transform="matrix(-64.88718 -6.65906 23.5435 -229.41228 232 96.5)"/><circle r="1" transform="matrix(-73.80043 18.36696 -55.11422 -221.4549 0 53.2)"/><path fill="#b1b1b1" d="M73 98h108v13H73z"/><circle r="1" fill="#979797" transform="matrix(71.72287 .70859 -.06385 6.4628 130.2 43.8)"/><path fill="#c2c2c2" d="M92 129h72v11H92z"/><path fill="silver" d="M91 159h72v12H91z"/><ellipse cx="163" rx="221" ry="38"/><path fill="#a6a6a6" d="M85 69h69v11H85z"/><ellipse cx="124" cy="188" rx="255" ry="18"/><ellipse cx="34" cy="123" rx="39" ry="133"/><ellipse cx="227" cy="120" rx="48" ry="108"/><path d="M271 74.7L88.8 48.5l14.7 45.6 4.7-29.1z"/><path d="M123 113l-12-43-3 71z"/><path fill="#bababa" d="M67.9 25.5L65.1 30l9.5 37.5-12.4-33.9z"/><ellipse cx="120" cy="150" rx="255" ry="10"/><path fill="#fff" d="M163 68l3 9-15-9z"/><path d="M226.9 219L271 82.3 146 47.2l9.7-12.9z"/><circle r="1" transform="matrix(153.1231 7.39199 -1.0559 21.87264 145.5 13.7)"/><path d="M0 81h158v18H0z"/><path fill="#fff" d="M107 93h3v16h-3z"/><circle r="1" fill="#d4d4d4" transform="matrix(2.52738 -1.02555 3.0697 7.565 77.2 39)"/><path fill="#fff" d="M105 29h2v17h-2z"/><ellipse cx="120" cy="101" fill="#fff" rx="2" ry="10"/><path d="M0 50h137v18H0z"/><ellipse cx="120" cy="188" rx="255" ry="17"/><path fill="#fff" d="M165 93.5l1 .2-3 16.8-1-.2z"/><path fill="#b6b6b6" d="M176 38h17v12h-17z"/><path d="M154.5 151.8l1.1 54L167 89.4l24.2 111.5z"/><path fill="#080808" d="M153.9 54.4l-18.5 86.8-16.6-70.8 8.4 66.9z"/><path fill="#fff" d="M137 141.3l3-18.8 1 .2-3 18.8z"/><circle r="1" fill="#010101" transform="matrix(-1.44178 .00252 -.21333 -122.2296 97.5 112)"/><path fill="#d3d3d3" d="M118.1 120.1l8.6 16.5-4.4-13.1-3.8 24.8z"/><path fill="#cacaca" d="M87.4 54l.8-19.7 19.4 15.8-16.3-8.5z"/><ellipse cx="91" cy="58" rx="2" ry="64"/><circle cx="156" cy="145" r="3" fill="#fff"/><path d="M140.2 101.7l6 65.1-4.6 41.2 1-22.1z"/><path fill="#fff" d="M93 122l-2 17 4-5z"/><path d="M121.7 120.5l-1.8 38.6 7.3-46.5-143.2.6z"/><path fill="#f4f4f4" d="M140 99l5 10V94z"/><ellipse cx="187" cy="62" rx="3" ry="192"/><ellipse cx="178" cy="101" fill="#fff" rx="2" ry="9"/><path fill="#8f8f8f" d="M121.3 34.1l-6 16.1 25.5-7.6 1.3 17.1z"/><path d="M140.2 113l4.9-51.8-2.4 63.9 128.3 35zM88 37l-3 50-73 61z"/><ellipse cx="131" cy="78" rx="2" ry="45"/><path fill="#fff" d="M150 101l-2 12 5 4z"/><path fill="#080808" d="M152.3 126l.6 2.9 1.9 14.5 10.1 4.5z"/><ellipse cx="175" cy="94" rx="2" ry="138"/><path d="M118 32.4l4 54.9-4 .3-4-54.9z"/><path fill="#fff" d="M127 99l1 10 4-6z"/><circle r="1" fill="#fff" transform="matrix(.94438 -.32887 3.71404 10.66528 67.5 43.3)"/><path fill="#fff" d="M106 68h3v11h-3z"/><path d="M55-16l30.2 70.9-6.5-21.5 161.9-7.9z"/><ellipse cx="103" cy="88" rx="2" ry="73"/><path fill="#fff" d="M155 54h5v3h-5zm-36-20h2v17h-2z"/><circle r="1" fill="#f4f4f4" transform="matrix(1.0314 -4.51614 2.19714 .50178 100.5 103)"/><path d="M-12.9 154.8L10.7 219 87.3 72.5 74.8 41.8z"/><path fill="#fff" d="M140.9 79.2l-.2-11 2.1 6.1-.3 7.8z"/><ellipse cx="116" cy="118" rx="2" ry="37"/><path fill="#fff" d="M114.6 79.5l-1-.1 1.8-11 1 .2z"/><ellipse cx="125" cy="130" fill="#fff" rx="2" ry="7"/><ellipse cx="83" cy="111" rx="2" ry="71"/><path fill="#fff" d="M79.7 99.6l1-.1 1.6 10.9-1 .1z"/><circle r="1" transform="matrix(-.99889 .0471 -2.29392 -48.64251 124.4 60.3)"/><path fill="#929292" d="M156 88.8l10.4-19.5 3.5 2-10.3 19.4z"/><path fill="#f7f7f7" d="M101 168.7l-8.2-5.5 14.8 4.4-4.1-3.4z"/><path fill="#fefefe" d="M75 97l-3 4 1 8z"/><path fill="#fff" d="M113 41h2v9h-2zm57 58h3v12h-3zm-65-68h3v20h-3zm14.6 37.4l2-.5 2.8 11.7-2 .5zM136 48.7l-1 .2-3-11.6 1-.2z"/><path fill="#a0a0a0" d="M86 140h61v1H86z"/><path fill="#fff" d="M161 36l3 13-7-11z"/><path d="M107 30.7l11.2 79.7-.9 34.3-5.8-36.1z"/><ellipse cx="151" cy="76" fill="#fff" rx="2" ry="6"/><path d="M155.2 108h-1l-1.4-82h1z"/><path d="M159.2 70.2l-10.7 15.1 74.9-11.8L175 96.9z"/><ellipse cx="128" cy="73" fill="#fff" rx="2" ry="5"/><path fill="#fff" d="M100 131h2v10h-2zm62.5 36.9l-2 .2-1-10 2-.2zM135.4 100l1 .2-1.8 9.8-1-.2z"/><circle r="1" fill="#070707" transform="rotate(87 32.2 115.7) scale(255 1)"/><circle r="1" transform="rotate(150.4 76.5 42.5) scale(1.76558 20.38383)"/><path d="M92 187l-2-75-106-12z"/><path fill="#e9e9e9" d="M162 87.1l-1-.4 9-17.8 1 .4z"/><ellipse cx="147" cy="69" fill="#bababa" rx="18" ry="2"/><path fill="#fff" d="M125 37h3v11h-3z"/><path d="M107 113h3v57h-3z"/><path fill="#fff" d="M153 142.4l-1 .1-1-13h1z"/><path d="M109.6 52.5l11.8 7.9-1.1 32.6-15.1-87.6zM160 102h3v31h-3zm-34 56l31-17-52-1z"/><path fill="#fff" d="M128.4 138l3.3-10.6 1.9.6-3.3 10.6zM173 51l-4-7 2-5zM95.8 79.4l-2.6-8.6 1-.2 2.6 8.6z"/><path d="M94 118h4v37h-4z"/><path fill="#fff" d="M94 99h2v12h-2z"/></g></g></svg>