<svg xmlns="http://www.w3.org/2000/svg" viewBox="0 0 934 1400"><defs/><filter id="a"><feGaussianBlur stdDeviation="12"/></filter><rect width="100%" height="100%" fill="#4b4346"/><g filter="url(#a)"><g fill-opacity=".5" transform="translate(2.7 2.7) scale(5.46875)"><circle cx="74" cy="70" r="216" fill="#cdc9bd"/><ellipse cx="86" cy="247" fill="#fff" rx="170" ry="13"/><ellipse cx="99" cy="8" fill="#fff" rx="170" ry="13"/><ellipse cx="89" cy="40" fill="#060000" rx="170" ry="20"/><ellipse cx="85" cy="216" fill="#181018" rx="170" ry="19"/><ellipse cx="104" cy="246" fill="#fff" rx="169" ry="12"/><path fill="#fff" d="M-15.5 20V-8h225v28z"/><ellipse cx="77" cy="2" fill="#fff" rx="170" ry="18"/><ellipse cx="88" cy="255" fill="#fff" rx="170" ry="20"/><circle r="1" fill="#695f5b" transform="matrix(-.7549 14.9021 -127.06392 -6.43678 93.2 60.6)"/><circle r="1" fill="#716b6b" transform="matrix(127.99983 9.35691 -1.033 14.13102 64.2 194.7)"/><path fill="#1b161b" d="M104 21h67v23h-67z"/><path fill="#2a232a" d="M0 212h72v23H0z"/><circle r="1" fill="#9f9684" transform="matrix(6.8295 -44.11589 101.99359 15.78944 66.5 141.8)"/><ellipse cx="25" cy="247" fill="#fff" rx="170" ry="13"/><path fill="#262028" d="M126 215h45v20h-45z"/><path fill="#261f22" d="M5 21h46v20H5z"/><ellipse cx="65" cy="5" fill="#fff" rx="170" ry="15"/><path fill="#79716f" d="M87.6 230.5l-6.5-33.4 39.3-7.6 6.5 33.4z"/><path fill="#443b40" d="M-6.2 232.5l40-38.6 27.2-2.5-54-.9z"/><path fill="#635b59" d="M186 65L70 25 19 63z"/><path fill="#888074" d="M74 72h97v56H74z"/><circle r="1" fill="#6d6767" transform="matrix(66.1496 -9.26657 1.59637 11.39574 116 201.1)"/><ellipse cx="170" cy="43" fill="#352e32" rx="34" ry="23"/><ellipse cx="117" cy="255" fill="#fff" rx="170" ry="20"/><path fill="#7e736a" d="M38 94l62-39-102-1z"/><path fill="#797373" d="M56 210l67-19L3 176z"/><ellipse cx="31" cy="23" fill="#2d2628" rx="170" ry="3"/><ellipse cx="102" cy="231" fill="#2e282c" rx="170" ry="3"/><path fill="#a39b8c" d="M60 135h96v31H60z"/><ellipse cx="112" cy="4" fill="#fff" rx="170" ry="16"/><path fill="#7d7a75" d="M128 191l-7-31 65 21z"/><ellipse cx="3" cy="7" fill="#fff" rx="83" ry="14"/><path fill="#69615c" d="M53 62l-5-27 35-6z"/><ellipse cx="80" cy="213" fill="#51494b" rx="16" ry="11"/><path fill="#726b66" d="M151 62h20v30h-20z"/><path fill="#716a65" d="M119 70l-12-33 11 2z"/><path fill="#a89b84" d="M61.4 137.4l-2.7-52 16-.8 2.6 52z"/><path fill="#342e31" d="M106.1 49l-1.7-28.8-13.3 29.1 12.5-5.7z"/><path fill="#777171" d="M90 106.5l-15.9 22.1 7 6.7 24.3-23.8z"/><path fill="#797473" d="M34.5 125.5l7.8 40.8 10.8-20.8-23.2 3.4z"/><path fill="#938c82" d="M97 106l37 76 24-108z"/><circle r="1" fill="#8d8476" transform="matrix(-.01552 -6.67965 95.86135 -.2228 45.5 75.2)"/><path fill="#3b3334" d="M-9.6 35.5l45.3 18.4L44.3 22 4 20.7z"/><path fill="#a59985" d="M-11 65l34 69 6-34z"/><ellipse cx="27" cy="56" fill="#655b5c" rx="71" ry="6"/><path fill="#9d9a9a" d="M40 20h131v1H40z"/><path fill="#1d1616" d="M157 38.8l29-5.8-30 15.8-4.9-8.5z"/><circle r="1" fill="#4e4648" transform="matrix(.70367 6.27334 -19.77034 2.2176 135.8 214.4)"/><ellipse cx="69" cy="235" fill="#d2d3d0" rx="108" ry="1"/><path fill="#9e9892" d="M52 176h27v11H52z"/><ellipse cx="13" cy="180" fill="#6a6467" rx="23" ry="5"/><ellipse cx="20" cy="246" fill="#fff" rx="170" ry="11"/><path fill="#a69c8a" d="M106.8 136.1l-3.7-43.7 15.7 50 .5 55.1z"/><path fill="#77706f" d="M33.8 194.5l-9.6 6.1 35.3 10.9L94.7 183z"/><path fill="#7b7878" d="M150.9 120.3l35.1-6.4-51.9 26.7 15.1-30z"/><path fill="#78716d" d="M128 221l-21-9-19 18z"/><path fill="#fff" d="M160.4-16l21.8 37.8-31.3-2.6-166.9.9z"/><path fill="#363136" d="M145 212h26v23h-26z"/><ellipse cx="29" cy="230" fill="#362f34" rx="65" ry="5"/><path fill="#30282b" d="M20.3 201.6L9.5 215.3l-13.6.5 21.2-13.2z"/><path fill="#524a4e" d="M7.5 216.7l-7.8-28 5.7 45.7 23.1-16.7z"/><path fill="#686566" d="M157 211l1-36 14 19z"/><path fill="#453f40" d="M89.5 25.6l63 40.8-22-27.8-47-2.4z"/><path fill="#4c454a" d="M75 207l-1 22-23-5z"/><path fill="#352e2f" d="M74.1 25.4l-4.3 3.2L7.6 44.3-16 30.7z"/><path fill="#878280" d="M36 151l-1-29-51 50z"/><path fill="#4c4443" d="M0 25h48v4H0z"/><path fill="#50484b" d="M129 228h19v7h-19z"/><path fill="#1d1515" d="M127 21h31v4h-31z"/><path fill="#878077" d="M53.8 84.2l-2.6 76-9-.4 2.6-76z"/><path fill="#7a7574" d="M132 126.1l-11.4-.8 2.3-12.6 7.6-1.4z"/><path fill="#968f85" d="M140.7 81.6l-27.6 115.8-14-9.1 35.5-13z"/><circle cx="81" cy="49" r="3" fill="#292224"/><path fill="#3d363c" d="M38.4 210.9l12.1-9.1.8 25.5-48.1-22.2z"/><ellipse cx="57" cy="140" fill="#9f978b" rx="115" ry="4"/><path fill="#635b5a" d="M183 69l-57-21 15 20z"/><path fill="#837f7c" d="M-7.2 123.4l5-13 21.4 8.2-5 13z"/><ellipse cx="13" cy="193" fill="#544b4e" rx="25" ry="2"/><path fill="#8d8378" d="M65 82h23v29H65z"/><path fill="#b2a794" d="M42 145l-4 18-4-13z"/><path fill="#7f7666" d="M79 27l-15 8 15-1z"/><ellipse cx="14" cy="20" fill="#9c9999" rx="39" ry="1"/><path fill="#918a81" d="M84.4 138.2l39.9 66.3-24.6-45.2 9.8-59.1z"/><path fill="#aba191" d="M52.9 142.8l.4 12.9 27-41.6-7.5 12.3z"/><path fill="#857d73" d="M113 74h51v15h-51z"/><path fill="#958b7b" d="M18 80l45 24-79 2z"/><path fill="#b1a38e" d="M1 106h29l-5 13z"/><ellipse cx="128" cy="251" fill="#fff" rx="170" ry="16"/><circle r="1" fill="#271e1c" transform="matrix(.13665 1.73633 -15.98782 1.25827 35 232.2)"/><path fill="#aca08b" d="M141 146h18v18h-18z"/><path fill="#6d6768" d="M121 190h50v17h-50z"/><path fill="#584f4a" d="M37.1 58.9L50.3 35l9.1 18-27.7-12.1z"/><path fill="#c6b393" d="M61 101l-1-8 5-4z"/><path fill="#554d4d" d="M46.9 63.1L5.3 39.2l17.4-1.8-7.3 12.2z"/><path fill="#837c7a" d="M54 193h9v19h-9z"/><path fill="#766e6b" d="M9.7 56.8L18 43l-5.1 29L-16 52.1z"/><path fill="#938d85" d="M45.5 176.9l-61.5 3.3 51.2-29.8.9 40.7z"/><path fill="#ab9f88" d="M138.2 95l-6.4 21.3-1.2 3.8 5.6-1.6z"/><path fill="#bba98a" d="M56 113l3-5 13 11z"/></g></g></svg>