<svg xmlns="http://www.w3.org/2000/svg" viewBox="0 0 1400 934"><defs/><filter id="a"><feGaussianBlur stdDeviation="12"/></filter><rect width="100%" height="100%" fill="#50312c"/><g filter="url(#a)"><g fill-opacity=".5" transform="translate(2.7 2.7) scale(5.46875)"><circle r="1" fill="#fff" transform="matrix(-212.0022 -141.70415 61.97627 -92.7221 135.7 135.4)"/><circle r="1" fill="#fff" transform="matrix(-17.51448 -67.23911 188.53356 -49.10931 119.3 153.6)"/><path d="M53 81l218-27v-70z"/><ellipse cx="32" cy="124" fill="#f7ffff" rx="40" ry="79"/><path fill="#c7845c" d="M162 54l50-70-228 49z"/><circle r="1" fill="#4b4300" transform="matrix(-16.55819 14.7528 -20.31959 -22.8062 12 23.5)"/><ellipse cx="145" cy="143" fill="#ecf8ff" rx="255" ry="51"/><path d="M271 76L257-7l-91 58z"/><ellipse cx="184" cy="83" fill="#d2dee4" rx="26" ry="28"/><path fill="#6e5c6e" d="M68 93l110-20L55 52z"/><path fill="#006bff" d="M113.5-4.5l8 4.4-17 30.6-8-4.4z"/><path d="M22.3-4.4l-12.2 23-26.4-14.2 12.2-23z"/><path fill="#e3ab92" d="M56 73l86-89 45 19z"/><path fill="#1379ff" d="M85.1 58l6.1 3.3L71 98.1l-6.1-3.4z"/><path fill="#d4dfe5" d="M263 76l-82-20 37 82z"/><circle r="1" fill="#682f20" transform="matrix(5.95927 13.27563 -28.8587 12.95433 115 63.3)"/><path fill="#dce3e5" d="M32 183L-16 59l67-17z"/><path fill="#917521" d="M-6 55l84-23L4 14z"/><ellipse cx="50" cy="11" fill="#ccbe9f" rx="37" ry="12"/><circle r="1" fill="#ae725b" transform="rotate(-157.6 79.4 -.7) scale(15.7686 31.57903)"/><circle r="1" transform="matrix(-3.15518 5.67992 -23.7325 -13.18332 200.1 52.6)"/><path fill="#492130" d="M104.3 15.6L90.2 35.1l-6.5-4.7 14.1-19.5z"/><path fill="#edf7fd" d="M271 79.2l-37-11.4h-23.4l44.3 10.3z"/><path d="M258 .6L150.5 70l14.2-17.9 39.3 8z"/><circle r="1" fill="#bb765e" transform="rotate(176.3 31.1 24.8) scale(10.01242 36.06936)"/><path fill="#f6b595" d="M106.3 2.2l-31.1 31-13.5-13.4 31.1-31z"/><path fill="#f5f0fd" d="M88 39h15v10H88z"/><path fill="#bf8173" d="M83.5 74.4L122.2 58l2.3 5.6L85.8 80z"/><path d="M-16 7l31 7 2-30z"/><path fill="#643d2d" d="M204-13l34 8-82 65z"/><path fill="#270d0c" d="M88.1 60.6l23-5.3 21.5-4.8-35.4 17.8z"/><ellipse cx="229" cy="40" fill="#020b10" rx="49" ry="26"/><circle r="1" fill="#e7ebf0" transform="matrix(-11.0424 44.29637 -164.61358 -41.03565 144 169)"/><path fill="#2b83ff" d="M113 17L95 30l24-46z"/><path fill="#b3bbbe" d="M53 57l-69 10 95 33z"/><path fill="#e7cfb7" d="M117.4 14l10-32.6 15.2 4.7-10 32.5z"/><circle r="1" fill="#fcfef7" transform="matrix(-.80491 -3.32711 32.79758 -7.93457 18 54.8)"/><circle r="1" fill="#311d14" transform="matrix(1.009 2.77772 -25.20256 9.1547 120.4 71.4)"/><path fill="#eca492" d="M74 26h11v38H74z"/><path fill="#100b05" d="M187.1 40.8L169 64.6 143.3 70l12.9-10z"/><circle r="1" fill="#e6ab96" transform="matrix(3.7341 -1.54979 9.17876 22.11552 64.8 55.6)"/><path fill="#a5aeb2" d="M60 100.2l90.2-30.6 27.3-5.2 38.5 6.7z"/><path fill="#3979ed" d="M68.1 95.1l-1.3 8.9 24.7-45.4-17.8 14.9z"/><path fill="#85483b" d="M66.1 26l9 38.9L56.7 22l.8-1.7z"/><path fill="#b49540" d="M29.8 49.6L-16 56.8 7.3 33.3l37.9 9.3z"/><path fill="#7f4134" d="M96.5 23.8l-14.7-7.2L86 49.2l4.8-26.1z"/><path fill="#ae7762" d="M204-16l-94 58 44 13z"/><path fill="#283890" d="M120 0l-6 18-14 8z"/><path fill="#3a2d36" d="M100.3 78.3l76.8-20.1-85.7 25-8.1-38.8z"/><path fill="#8c573e" d="M190 26l-21 11-24-53z"/><path fill="#cfd2d5" d="M179.1 58.6l47.8 9 1.1 12.1-10.7 52.5z"/><path fill="#816a4f" d="M23.7-12.7l46.8 98.8L55 78.9 68.5 75z"/><path fill="#8288a4" d="M192.5 130.5L174.6 104l.9-.5 17.9 26.5z"/><path fill="#d19382" d="M121 50l-2-45-24 54z"/><ellipse cx="32" cy="31" fill="#7e6f34" rx="22" ry="11"/><path fill="#dde1e4" d="M8 87h60v29H8z"/><circle r="1" fill="#3a170f" transform="matrix(20.68494 -5.44564 .97001 3.68454 110 60.3)"/><path fill="#2257da" d="M85.7 58.5l-6 19.7.6 5.4 12.1-25z"/><path fill="#d8dbdf" d="M103 84l56 61-105-42z"/><path fill="#a4ad9c" d="M32-16l27 44-42-16z"/><path fill="#88c2f1" d="M121.1-12.7l-10.2-1.7 5.4-1.6-17.4 47.7z"/><path fill="#9396ba" d="M213.8 134.1l3.9-25 4.7-14.2-10.1 28.8z"/><circle r="1" fill="#bf9788" transform="matrix(6.95452 -3.8948 3.52671 6.29728 151.1 44.8)"/><ellipse cx="249" cy="52" fill="#040f18" rx="33" ry="18"/><path fill="#dee2e6" d="M228.4 95.9l-34.3-11.4-45.8.5L-1 169.5z"/><path fill="#85878c" d="M59.1 98.2l132.6-32.4-20.1-.6 2.3-2.8z"/><circle r="1" fill="#afb1b6" transform="matrix(-1.73935 -10.9498 7.05007 -1.11989 180 65.6)"/><path fill="#a06c61" d="M134.1 75.4L142 63 87.5 73.7l35.6-13.9z"/><circle r="1" fill="#39251b" transform="matrix(35.76863 -21.83326 3.39918 5.56874 218.3 14.5)"/><path fill="#e0b4a3" d="M95 19l3-24 17-11z"/><circle r="1" fill="#8185a6" transform="matrix(-.2045 .97887 -18.24781 -3.81217 127 87.7)"/><path fill="#4a3024" d="M77 87h15v3H77z"/><path fill="#d4d7d4" d="M49.8 41l5.8 17.8L-16 92.1 2.5 63.7z"/><path fill="#7c7697" d="M32.7 80.4l17.1 10.3-.5.9-17.1-10.3z"/><path fill="#32122b" d="M67 94h5v3h-5z"/><path fill="#abb0b7" d="M80.7 92.7l24 16.4-27.6-10.2 50.5-26.3z"/><path fill="#dbdfe4" d="M223 70.2l-16.9-8-12.8 5.2-8.1-10.8z"/><path fill="#bec5de" d="M19.3 146.1L24 150l14.2 12.9-54.2-35.7z"/><path fill="#925b45" d="M197 9l-18-24 68-1z"/><path fill="#b0b7c7" d="M238.5 96.1L271 88l-13.2 5.6-50.6 18.6z"/><path fill="#fcfeff" d="M-16 64.9l65.1-16.8 1.5 4.3-.4-10z"/><path d="M173 50l23 8 43-43z"/><circle r="1" fill="#040a0e" transform="rotate(-118.6 3.7 -1) scale(8.37017 23.45962)"/><path fill="#e3bda4" d="M103 24l18 1-35 14z"/><circle r="1" fill="#c88787" transform="matrix(-4.20174 5.37287 -3.26851 -2.55607 85.4 80.6)"/><path fill="#54a0fc" d="M76 70l9-4-14 24z"/><path fill="#805336" d="M69.5 49.6l-11.7-25-10.4 6 22.8 1.7z"/><path fill="#000300" d="M111 76l14-11-1 8z"/><path fill="#7b6265" d="M59.6 82.3l9.9.5 6.7-12 17-18.3z"/><path fill="#9ea0bc" d="M132 86.2l44.5 22.7-.5.9-44.5-22.7z"/><path fill="#c1885d" d="M59.3 13.8L91.1-1.5 101-16l-11.2 3.3z"/><path fill="#000200" d="M92 77h14v3H92z"/><path fill="#f0f2f5" d="M117 127.1l10.6 19.3L69 178.9l-10.6-19.3z"/><path fill="#c6cacb" d="M177.7 82.5l-34.3-.7L196 63.6l75 20.1z"/><path fill="#cfa485" d="M106 33.3l35.4.9 4.2-4.9-6.1-31.5z"/><path fill="#48221b" d="M103.1 57.7l35.9-12-14.2 8.4 36.1 12.1z"/><circle r="1" fill="#6c5e31" transform="matrix(29.13898 1.22292 -.21714 5.17392 0 21)"/><path fill="#253630" d="M71 81l-3-4-4 5z"/><path fill="#977d3a" d="M-16 46.5l7.8-9.4 70.3-12-30 23.7z"/><circle r="1" fill="#c9cdd5" transform="matrix(-.41216 1.78432 -28.07453 -6.48491 141 129.7)"/></g></g></svg>