<svg xmlns="http://www.w3.org/2000/svg" viewBox="0 0 933 1400"><defs/><filter id="a"><feGaussianBlur stdDeviation="12"/></filter><rect width="100%" height="100%" fill="#544c31"/><g filter="url(#a)"><g fill-opacity=".5" transform="translate(2.7 2.7) scale(5.46875)"><circle cx="107" cy="85" r="204" fill="#fff"/><ellipse cx="81" cy="12" fill="#fff" rx="169" ry="16"/><ellipse cx="90" cy="244" fill="#fff" rx="169" ry="17"/><ellipse cx="85" cy="200" fill="#634112" rx="79" ry="29"/><circle r="1" fill="#fff" transform="matrix(-1.56906 19.25653 -133.86264 -10.9074 104.5 249.7)"/><ellipse cx="64" cy="52" fill="#856232" rx="59" ry="26"/><ellipse cx="2" cy="137" fill="#fff" rx="5" ry="234"/><ellipse cx="167" cy="118" fill="#fff" rx="5" ry="255"/><ellipse cx="79" cy="12" fill="#fff" rx="169" ry="15"/><path fill="#624a29" d="M7 198h150v30H7z"/><circle cx="94" cy="128" r="69" fill="#c5ad7b"/><circle r="1" fill="#e6d6b2" transform="rotate(-178.5 59 63.3) scale(71.24794 19.82169)"/><path fill="#967649" d="M165.1 30l-82.9-3.2 66.2 44.4 1.1 39.7z"/><ellipse cx="93" cy="254" fill="#fff" rx="169" ry="27"/><circle r="1" fill="#fff" transform="rotate(-88.2 33.6 -27.1) scale(19.62581 121.85066)"/><path fill="#958363" d="M7 107l152-8L9 26z"/><ellipse cx="42" cy="176" fill="#9a8965" rx="36" ry="27"/><ellipse cx="3" cy="107" fill="#fff" rx="4" ry="239"/><path fill="#867355" d="M83 168h81v59H83z"/><ellipse cx="168" cy="165" fill="#fff" rx="6" ry="188"/><path fill="#806845" d="M7 28h60v33H7z"/><path fill="#a29373" d="M7 158h154v38H7z"/><path fill="#705b3d" d="M9 199h155v29H9z"/><ellipse cx="168" cy="122" fill="#fff" rx="5" ry="233"/><ellipse cx="128" cy="243" fill="#fff" rx="169" ry="15"/><ellipse cx="101" cy="13" fill="#fff" rx="169" ry="14"/><path fill="#9b8667" d="M80 27h82v39H80z"/><path fill="#fff" d="M0 0h6v242H0z"/><ellipse cx="47" cy="132" fill="#c7b68e" rx="41" ry="21"/><ellipse cx="124" cy="84" fill="#b4a283" rx="39" ry="26"/><path fill="#a7987a" d="M7 65l137-8L7 119z"/><path fill="#7f6c4e" d="M7 195h57v28H7z"/><ellipse cx="45" cy="29" fill="#7b6545" rx="36" ry="3"/><ellipse cx="39" cy="9" fill="#fff" rx="169" ry="18"/><path fill="#fff" d="M0 229h170v27H0z"/><path fill="#a3906e" d="M121 175h42v26h-42z"/><path fill="#60492b" d="M136 226l26-18 1 18z"/><path fill="#a59272" d="M125 30.1l36.8 5.5L46.1 49.1l-1.3-11.5z"/><ellipse cy="132" fill="#fff" rx="6" ry="239"/><ellipse cx="167" cy="185" fill="#fff" rx="4" ry="253"/><path fill="#8d7f65" d="M33 93h53v10H33z"/><ellipse cx="124" cy="228" fill="#beb4a9" rx="91" ry="1"/><path fill="#8f7959" d="M136 44h27v17h-27z"/><path fill="#958568" d="M8 176h85v20H8z"/><path fill="#bfad86" d="M7 104h22v53H7z"/><path fill="#c5b590" d="M134 138h29v28h-29z"/><path fill="#a89776" d="M9 151h77v23H9z"/><ellipse cx="78" cy="222" fill="#695539" rx="68" ry="6"/><path fill="#fff" d="M163 198h7v55h-7z"/><path fill="#846f51" d="M29 52h59v11H29z"/><circle r="1" fill="#fff" transform="matrix(-1.42516 -26.94706 41.14356 -2.17598 56.3 .8)"/><path fill="#8a7758" d="M112 216l-31-12h44z"/><path fill="#a89b7e" d="M119 167h25v25h-25z"/><ellipse cx="101" cy="145" fill="#c8b892" rx="62" ry="7"/><circle r="1" fill="#fffffe" transform="matrix(30.90846 -2.48684 .30408 3.77942 158.5 23.1)"/><path fill="#b5a583" d="M79.5 65.1l73.9 7.8 9.7-20.2.9 53.6z"/><path fill="#9c886b" d="M112.6 73.5l38-18.3-50.5-14.4 8 44.1z"/><path fill="#c2b593" d="M66 110l-22-6 3 61z"/><path fill="#7d6641" d="M9 28h27v8H9z"/><path fill="#886f4f" d="M163 28l-19-1 17 9z"/><path fill="#fff" d="M166.1 173.6L185 91.8 161.6-.9l3.5 69.6z"/><path fill="#968363" d="M8 38h75v12H8z"/><ellipse cx="149" cy="177" fill="#8b7858" rx="7" ry="8"/><ellipse cx="69" cy="27" fill="#beb4a3" rx="61" ry="1"/><ellipse cx="51" cy="245" fill="#fff" rx="169" ry="17"/><path fill="#b6a588" d="M85 33h15v9H85z"/><ellipse cx="37" cy="211" fill="#8b7756" rx="27" ry="3"/><path fill="#886f50" d="M95 28h49v2H95z"/><ellipse cx="128" cy="107" fill="#c1b192" rx="35" ry="6"/><path fill="#9e9075" d="M7 60h79v21H7z"/><path fill="#7a6646" d="M63 195h47v5H63z"/><path fill="#9c8c6d" d="M154.1 106.1l-8.9-1.4 2.7-16.8 8.9 1.4z"/><path fill="#b0a07e" d="M134.6 179.4l-31.7-1.9 33.5-23.4-66.5-2.9z"/><ellipse cx="77" cy="183" fill="#8e7e62" rx="62" ry="3"/><path fill="#b0a281" d="M11 92l2.2-25.8L33 67.9l-2.3 26z"/><path fill="#968364" d="M149 53h14v17h-14z"/><path fill="#fff" d="M-11 26l155-42 26 42z"/><path fill="#8e7855" d="M115 193h46v9h-46z"/><path fill="#b8a585" d="M142 37h14v6h-14z"/><path fill="#95886b" d="M109 104l3-12-17 6z"/><ellipse cx="89" cy="172" fill="#9e8e70" rx="42" ry="7"/><path fill="#927c5d" d="M109.2 30.8l4.2 29.5L66.3 30l14.6 38.7z"/><path fill="#ad9f81" d="M13 103h80v5H13z"/><ellipse cx="2" cy="98" fill="#fff" rx="4" ry="206"/><path fill="#705b3d" d="M159 226l3-21-44 22z"/><path fill="#cab994" d="M44 108h118v5H44z"/><path fill="#ac9e7e" d="M12.8 182.6l17.4 5.8-16.4 3-7.4-21.6z"/><ellipse cx="117" cy="125" fill="#d5c7a2" rx="29" ry="14"/><path fill="#a89876" d="M12 188h88v3H12z"/><path fill="#a99b7b" d="M8 147h42v23H8z"/><path fill="#fff" d="M-16 228.7L147.3 271l23.4-43.5-32.1 1.9z"/><path fill="#bfb292" d="M7 114h48v24H7z"/><path fill="#786545" d="M7 211h40v15H7z"/><path fill="#b7a788" d="M158.9 80.5l-41.7 17.2-8.3-28.4 25.4-4z"/><path fill="#a6997c" d="M39.9 81.1l10.2 26.1 9.5-34.7-9.7-10z"/><path fill="#5c462d" d="M90 219h29v4H90z"/><ellipse cx="53" cy="201" fill="#6a5335" rx="29" ry="2"/><ellipse cx="39" cy="79" fill="#97896c" rx="32" ry="2"/><path fill="#786142" d="M29 52h31v4H29z"/><path fill="#a49174" d="M118 77l-6-25 14-24z"/></g></g></svg>