<svg xmlns="http://www.w3.org/2000/svg" viewBox="0 0 933 1400"><defs/><filter id="a"><feGaussianBlur stdDeviation="12"/></filter><rect width="100%" height="100%" fill="#685c59"/><g filter="url(#a)"><g fill-opacity=".5" transform="translate(2.7 2.7) scale(5.46875)"><circle cx="88" cy="136" r="171" fill="#fffff7"/><circle r="1" fill="#deccab" transform="matrix(16.51137 -168.19148 113.4734 11.13969 116.1 150)"/><circle r="1" fill="#c5b69a" transform="matrix(71.20837 45.89066 -91.54869 142.05576 29.6 50.9)"/><ellipse cx="144" cy="215" fill="#d8cdbd" rx="26" ry="158"/><ellipse cx="126" cy="251" fill="#d1ccbe" rx="134" ry="10"/><circle r="1" fill="#bab1a6" transform="rotate(95.2 -56 158.8) scale(9.67281 76.65598)"/><circle r="1" fill="#bab0a0" transform="matrix(-9.25549 3.27754 -28.87723 -81.54678 40.1 173.1)"/><path fill="#524847" d="M119 47h12v3h-12z"/><circle r="1" fill="#bfb095" transform="matrix(6.19971 21.74671 -148.47679 42.32887 82.7 0)"/><circle r="1" fill="#cfc1ad" transform="matrix(21.77697 .12526 -.27774 48.28576 69.6 75.5)"/><path fill="#948b82" d="M33.2 190.4l14.6 5 13.1-2.2-11.4-2.2z"/><ellipse cx="159" cy="29" fill="#d0bfa2" rx="31" ry="66"/><path fill="#8c837e" d="M118 156l9-6-16 3z"/><path fill="#655d5a" d="M25 48h6v4h-6z"/><path fill="#b3a491" d="M111 138l-27-13 36 1z"/><path fill="#d6cec0" d="M88 236h47v20H88z"/><path fill="#cfc0a5" d="M17 80l-33-15L6 2z"/><path fill="#a19685" d="M25.2 23.1l7.8 3.6-12.3 9.2H5.3z"/><path fill="#978875" d="M152 20h13v4h-13z"/><path fill="#d7c9b1" d="M145 159L107 45l40 10z"/><path fill="#d6cfc0" d="M103 216l22-24-12 42z"/><circle r="1" fill="#baaf9c" transform="matrix(-7.39716 -.47851 4.1519 -64.18274 27.8 109.9)"/><path fill="#b2a393" d="M152 123h18v6h-18z"/><path fill="#988d85" d="M167 228v6l-14-1z"/><path fill="#d8d0c1" d="M142 141h11v96h-11z"/><path fill="#a49a94" d="M105.1 225l-20.6 1.9 21.2 7.6-3.6 18z"/><circle cx="57" cy="227" r="4" fill="#867d7c"/><ellipse cx="9" cy="250" fill="#c1bca9" rx="33" ry="16"/><circle r="1" fill="#d3c4ae" transform="rotate(-117.2 66.5 -17.6) scale(11.22143 31.06688)"/><ellipse cx="4" cy="172" fill="#aba197" rx="43" ry="4"/><ellipse cx="60" cy="193" fill="#a79e92" rx="23" ry="3"/><circle cx="66" cy="19" r="3" fill="#7d7366"/><path fill="#e1d4bd" d="M167 9h3v69h-3z"/><ellipse cx="135" cy="226" fill="#aaa099" rx="20" ry="2"/><path fill="#81796c" d="M84 218l-3 5-2-4z"/><path fill="#cdc7b6" d="M41 197h12v59H41z"/><path fill="#cec5b6" d="M120 167l-23 23h64z"/><path fill="#a1968f" d="M146 236l-9 2 5 7z"/><path fill="#c1b195" d="M159 14.8l-1 14-23-1.6 1-14z"/><path fill="#c4b59b" d="M0 77h60v29H0z"/><path fill="#89817c" d="M97 199h7v3h-7z"/><path fill="#aa9c90" d="M68.8 125.9l-12.9 5.3 2.2-12.6 8.9 6.6z"/><path fill="#a49891" d="M143 248h7v5h-7z"/><circle r="1" fill="#cac1b0" transform="matrix(-4.17293 -24.31158 9.37673 -1.60946 71.7 224.1)"/><path fill="#c3baa8" d="M19.7 152.3l-23.9 66.9 24.1 9.7 29.1-20z"/><ellipse cx="85" cy="152" fill="#b7ab98" rx="28" ry="2"/><circle r="1" fill="#9c9180" transform="matrix(-8.10436 1.0494 -.2241 -1.7307 18.6 16)"/><ellipse cx="94" cy="83" fill="#a19282" rx="5" ry="3"/><path fill="#bab0a5" d="M144.8 162.4l-23.4-1.1-24.8 28.3 5.5-19.3z"/><path fill="#d6c9b4" d="M115.4 85.4l-7.2-.2 76.8 9-90.6 20.2z"/><circle r="1" fill="#c5baa4" transform="matrix(21.28674 44.61284 -5.99446 2.86022 31 10.3)"/><path fill="#d0c3ae" d="M0 68h105v6H0z"/><path fill="#d7ccb9" d="M157 271l28-45.9-59.8 25.9 37.1-2.8z"/><path fill="#cdc4b3" d="M123.7 178.6l-61.6 35 3.9-33-8.6 19.9z"/><path fill="#aa9c8e" d="M155 66h8v6h-8z"/><path fill="#cdc0ad" d="M166 89l19 40-25 58z"/><circle r="1" fill="#d3cbbc" transform="matrix(14.22586 -5.81139 9.0809 22.2294 148.4 208)"/><path fill="#bab1a5" d="M119 195l18-14-37 13z"/><circle cx="140" cy="2" r="2" fill="#7e6e61"/><path fill="#aea798" d="M25 226l11-11 4 15z"/><path fill="#aba290" d="M-16 246.3L12.6 230l-5-11.9-14.8 29.2z"/><circle cx="112" cy="69" r="2" fill="#756c63"/><path fill="#bdae9a" d="M76 41l27 13-21 8z"/><path fill="#79736a" d="M27 153h7v2h-7z"/><path fill="#aa9e92" d="M101.4 102.7l-11-.4.2-5 11 .4z"/><path fill="#b8a68f" d="M163.5 49.5L185 45l-17 8.8-7.9.4z"/><ellipse cx="37" cy="249" fill="#a69d92" rx="4" ry="3"/><circle cx="118" cy="152" r="2" fill="#6c6562"/><path fill="#d5c7b1" d="M165.2 72.8L130.3 22l1.5 24-11.2-19.6z"/><path fill="#b2a598" d="M49 141l-7 10 20-6z"/><path fill="#b7aa95" d="M161 77h7v13h-7z"/><ellipse cx="149" cy="126" fill="#bdae9b" rx="79" ry="2"/><path fill="#d0c3ae" d="M41.8 117.9l2.8-17.2 83.1 5-90 10.4z"/><path fill="#cfc4b2" d="M88.8 147.7l-40.1 36.7 50.9-15.6-11.5 73.9z"/><circle r="1" fill="#aa9e90" transform="rotate(114.7 -40.9 107.4) scale(4.11619 8.60881)"/><path fill="#d0c5b2" d="M92.5 141l29.1 6.5-.1 64.3 12-76.1z"/><circle r="1" fill="#a09288" transform="matrix(-1.57168 .6608 -1.37725 -3.27576 138.3 48.4)"/><path fill="#797272" d="M66.5 247.7l-.5.9-4.5-2.3.5-.9z"/><path fill="#7b7270" d="M168 162l13-3 4 8z"/><path fill="#d4ccbd" d="M95.1 247.7l30 23.3 1.4-43.3 46-24.8z"/><path fill="#b3a594" d="M119.5 107l2.4 6.6-9.4 3.4-2.4-6.6z"/><path fill="#cbbca6" d="M96 58l33-9-4 26z"/><path fill="#948b7d" d="M22 24h9v6h-9z"/><path fill="#bfb19a" d="M-12.1 51.8l46.2 26L1.5 98.7 46 51.8z"/><path fill="#b0a396" d="M139 145.2l-9.4 3.4-.6-1.8 9.4-3.4z"/><path fill="#c0b297" d="M62 25l13-41-49 40z"/><path fill="#c9beaa" d="M42 160h31v30H42z"/><path fill="#8d847a" d="M26.5 101.1v2l-7-.2v-2z"/><path fill="#a89375" d="M114.1 12.6v-1l15.8-2.2v1z"/><path fill="#ac9f90" d="M18 145h14v6H18z"/><path fill="#a4988f" d="M95 229l-13-1 1-5z"/><path fill="#b19e81" d="M156 1h14v2h-14z"/><path fill="#a59c94" d="M115 225h13v5h-13z"/><path fill="#d9cbb6" d="M125 132l10-30 44 6z"/><ellipse cx="125" cy="90" fill="#cbbda9" rx="4" ry="41"/><path fill="#beaf9b" d="M149 102h19v4h-19z"/><path fill="#b4a99a" d="M77.3 214.6l-1.9 6.7-8.8 9.4-10.9 1.7z"/><path fill="#ccbea7" d="M-16 105l37.8 10.9 1.9 14.3-25.8-12.9z"/><path fill="#c1b29b" d="M81 121h6v37h-6z"/><path fill="#d1cbb8" d="M20 233h52v3H20z"/></g></g></svg>