<svg xmlns="http://www.w3.org/2000/svg" viewBox="0 0 933 1400"><defs/><filter id="a"><feGaussianBlur stdDeviation="12"/></filter><rect width="100%" height="100%" fill="#30405f"/><g filter="url(#a)"><g fill-opacity=".5" transform="translate(2.7 2.7) scale(5.46875)"><circle r="1" fill="#406388" transform="matrix(-12.2184 -127.87304 149.61043 -14.29543 73.5 188)"/><path fill="#1c0f00" d="M14.7 182.7l15.1-22.2 137.6.2-11.4 24z"/><circle r="1" fill="#5c84b5" transform="matrix(-28.18912 -109.78937 17.4267 -4.47442 2.3 197.2)"/><ellipse cx="47" cy="212" fill="#46688a" rx="107" ry="29"/><circle r="1" fill="#25457a" transform="rotate(117.6 19.7 66.1) scale(36.95371 86.3981)"/><ellipse cx="126" cy="8" fill="#242e48" rx="121" ry="17"/><ellipse cx="74" cy="108" fill="#2b518f" rx="56" ry="17"/><ellipse cx="25" cy="151" fill="#516d8a" rx="92" ry="8"/><circle r="1" fill="#3d4e67" transform="rotate(-16.8 227.8 -26.6) scale(25.65799 45.23335)"/><ellipse cx="89" cy="193" fill="#40629c" rx="72" ry="8"/><ellipse cy="177" fill="#5d85c2" rx="12" ry="27"/><circle r="1" fill="#223d61" transform="rotate(41 -3.5 186.4) scale(40.93323 33.2742)"/><ellipse cx="145" cy="137" fill="#405962" rx="161" ry="11"/><ellipse cx="27" cy="171" fill="#323131" rx="16" ry="13"/><circle r="1" fill="#516381" transform="matrix(6.2833 73.65884 -8.54168 .72863 0 81)"/><path fill="#305a92" d="M136 92h34v34h-34z"/><path fill="#32538f" d="M8 245h114v11H8z"/><ellipse cx="153" cy="48" fill="#2b3b4c" rx="51" ry="18"/><path fill="#272c31" d="M63 159h98v27H63z"/><path fill="#354259" d="M4 54h39v39H4z"/><ellipse cx="114" cy="222" fill="#3c5b71" rx="91" ry="20"/><path fill="#2f4e80" d="M22.7 28l89.4 41.4-123.7-40.5L-16 4.7z"/><path fill="#4b6381" d="M185 206.6L165 196l-4.4-44.7 24.4 7.9z"/><path fill="#5772a1" d="M0 185h68v6H0z"/><path fill="#264476" d="M121.3 34.7l13.8 10-15-32.7L14.2 75.6z"/><ellipse cx="140" cy="3" fill="#282a3f" rx="33" ry="12"/><path fill="#456180" d="M5 192h41v58H5z"/><path fill="#254c86" d="M122 62l-12 19 48-12z"/><path fill="#282e46" d="M90.5 18.2l2.8 10.6-33.8 9-2.8-10.6z"/><path fill="#335b9c" d="M41 194h88v9H41z"/><path fill="#527d9e" d="M12 235l4-37 9 36z"/><ellipse cy="195" fill="#567bb6" rx="3" ry="63"/><path fill="#2c426e" d="M46 92l31-81 33 86z"/><path fill="#47637c" d="M42 131h26v31H42z"/><path fill="#2e508f" d="M164.6 246.6l-107.3 1.6 112.5 6.1L185 111.8z"/><circle r="1" fill="#2f425e" transform="matrix(-2.38013 -2.31457 12.18026 -12.52524 164.4 96.1)"/><path fill="#353953" d="M40.7-3.8L-16 7.6l67.8 23.9-11.6 12.4z"/><path fill="#6c90c2" d="M2 182h18v4H2z"/><path fill="#385168" d="M169 205l-51 7 8 38z"/><path fill="#346099" d="M166.4 106l-17.6 16.6 36.2 14.2V94.7z"/><path fill="#3f6081" d="M95 184h21v64H95z"/><path fill="#334a5f" d="M158.7 124.4l2.2 15.9-37.6 5.3-2.2-15.9z"/><path fill="#445e7b" d="M15.1 182.8l-9.5-38.2 38 109.1 25-42.5z"/><path fill="#435467" d="M1.9 104.9l16.8 45.6 20.1 1.4 2.6-19.9z"/><path fill="#363b69" d="M88 252h66v4H88z"/><path fill="#32445d" d="M84.1 146.4l1.7 8.9 5.9 5.6-20.3-1z"/><path fill="#466487" d="M88 143h21v17H88z"/><ellipse cx="100" cy="128" fill="#2c415c" rx="39" ry="3"/><path fill="#2a4e89" d="M34 63l19 13 38-6z"/><path fill="#506488" d="M15.6 109.4l2.2-21.8-33.8 58.5V95.7z"/><path fill="#275393" d="M85 97l13 20-66-7z"/><path fill="#2c364d" d="M106 44h8v33h-8z"/><path fill="#282d34" d="M140.3 189.3l17.8-6.4 10.1-10.8-78.1-9.9z"/><path fill="#2e3b55" d="M55 38.6l15.2-11.2-19 31.5 15.2 8.3z"/><path fill="#465d7a" d="M170 200.3l-13.8-71.6 20.5 54.9-53.9 4.5z"/><ellipse cx="20" cy="38" fill="#2d4d84" rx="13" ry="7"/><path fill="#4f6991" d="M10 152h49v7H10z"/><path fill="#2c4a71" d="M41 67l6-51 15 4z"/><path fill="#20426f" d="M88.4 20l53.4-2.7-15.2 24.2-29.3-29.6z"/><path fill="#3d5074" d="M63 190h41v5H63z"/><path fill="#2f435a" d="M133.4 80.4l10.3 10.2 5.1-.3-.9-21.4z"/><path fill="#2e3138" d="M41.6 183.4L11 159.9l64.8 1.4-14.9 23.1z"/><path fill="#305fa9" d="M70 246l-22 25-32-3z"/><path fill="#233446" d="M169.1 28.8L144 9.7l1.6 36.9L131.9 22z"/><path fill="#344867" d="M6 235l11.7 7.6L16 245l-11.8-7.7z"/><path fill="#314152" d="M12 79l35-13-7 18z"/><ellipse cx="110" cy="200" fill="#3264ab" rx="17" ry="3"/><path fill="#4e657f" d="M21.5 138.5L-9.1 92l22.3 84.2 3.9-46.7z"/><path fill="#354364" d="M46.1 82.9l14.9 19 13.1-3.7-15-14.1z"/><path fill="#2b354e" d="M58 25.6l37.9-6.8-24.4 20.8 16.1 6.5z"/><path fill="#2c3249" d="M40 41l9.8-7.1-3.6-7.5-5.1-14.2z"/><path fill="#36558a" d="M40.3 124.1l12.9-60.7-17.7 45-20.6 2.3z"/><path fill="#304f83" d="M101 113h38v14h-38z"/><path fill="#234d8d" d="M85 59h16v7H85z"/><path fill="#295895" d="M97.5 242.4l31.7 10.8 6.4 10.2 20.8 7.6z"/><path fill="#415172" d="M31.5 186.7L46 204l-13.2 2.3-16.1-3.4z"/><path fill="#264678" d="M55 73l36-22 10-35z"/><path fill="#2a374e" d="M107 28L97 44l5-31z"/><path fill="#446888" d="M50.9 214.1l4.2 1.1-8.9 31.4-13.3 11.5z"/><path fill="#2c3f55" d="M129 97l3 14 7-1z"/><path fill="#2f3855" d="M129 63L80 53l31-3z"/><path fill="#2e4d82" d="M31 28l36 51-18 2z"/><path fill="#324d7f" d="M44 60.9l1.5 6.8L22 73.1l-1.6-6.8z"/><path fill="#254577" d="M73.5 69.4l52.8-43.8-27.9 8.3 4.9 6.2z"/><path fill="#334051" d="M39 249h5v7h-5z"/><path fill="#343e45" d="M52 182h69v3H52z"/><path fill="#3a5672" d="M16.4 258.9L32.7 230l28.9-5.2-39.3 22.9z"/><path fill="#364f60" d="M97 203h3v25h-3z"/><path fill="#4c6a89" d="M151.8 153.7l2.2-5.5 10.2 4-2.2 5.6z"/><path fill="#3d5d8c" d="M-3.6 90l37.7 10-.5 2-37.7-10z"/><path fill="#2f4d79" d="M161 68l-11 39V75z"/><path fill="#323d60" d="M72.1 251.9l33.8 19.1-12.2-17.9-36.5 10.8z"/><path fill="#30568e" d="M85 226l-11-12-1 22z"/><path fill="#3b5675" d="M166 55h4v11h-4z"/><path fill="#272b30" d="M21.2 180.7l-7.4-9.3 32.5-5.6 110.9 13.3z"/><path fill="#4b70a4" d="M5.2 161.9l-8.8 83.5 30.6 5.3-43-17.2z"/><path fill="#45658e" d="M159.3 184.9l-29 9.8 15.5 3 28.5-19.2z"/><circle r="1" fill="#2b487a" transform="rotate(74.4 -3.7 121.4) scale(10.2897 27.66246)"/><path fill="#354056" d="M20 122h14v7H20z"/><path fill="#323f57" d="M-16 56.3l48.4-11.5 12.8 31-22.1-29.9z"/></g></g></svg>