<svg xmlns="http://www.w3.org/2000/svg" viewBox="0 0 1400 933"><defs/><filter id="a"><feGaussianBlur stdDeviation="12"/></filter><rect width="100%" height="100%" fill="#2c354d"/><g filter="url(#a)"><g fill-opacity=".5" transform="translate(2.7 2.7) scale(5.46875)"><circle r="1" fill="#fff" transform="matrix(-14.79287 -211.54787 98.37634 -6.87914 206.2 103.6)"/><circle r="1" fill="#fff7cb" transform="matrix(1.49315 -180.33147 86.48659 .71611 200 65.7)"/><ellipse cx="249" cy="81" fill="#fff" rx="20" ry="169"/><circle r="1" fill="#3b618d" transform="matrix(-22.12165 -165.7941 58.64368 -7.82474 52.6 51.4)"/><circle r="1" fill="#c3ad95" transform="matrix(21.24933 -151.54403 41.33503 5.79595 160.4 80.3)"/><circle r="1" fill="#fff" transform="matrix(-14.93892 -.14011 1.78255 -190.05373 245.3 83.5)"/><ellipse cx="49" cy="56" fill="#221706" rx="56" ry="9"/><circle cx="76" cy="12" r="39" fill="#496e95"/><path fill="#27385b" d="M113 88v97l-129-27z"/><ellipse cx="243" cy="80" fill="#fff" rx="12" ry="169"/><ellipse cx="115" cy="114" fill="#f8ffff" rx="2" ry="161"/><circle r="1" fill="#375781" transform="matrix(62.7137 -11.84988 5.567 29.46255 52.5 94)"/><ellipse cx="108" cy="42" fill="#466792" rx="7" ry="71"/><path fill="#bcac93" d="M116.5-6h31v94h-31z"/><path fill="#436286" d="M7.6-2.2l-23.6 8 3 39.4 99.6 2.7z"/><path fill="#c9b79d" d="M117 0h114v62H117z"/><path fill="#263651" d="M-24 150.7l18.5-37.8 111.4 54.4-18.4 37.8z"/><path fill="#254781" d="M88 93.8l-3.3 38.8-72.8-6.4 3.4-38.8z"/><path fill="#40516b" d="M93 75h22v87H93z"/><ellipse cx="224" cy="76" fill="#d2bea8" rx="7" ry="166"/><ellipse cx="250" cy="97" fill="#fff" rx="20" ry="169"/><ellipse cx="1" cy="71" fill="#43648b" rx="5" ry="34"/><path fill="#4b6371" d="M31 65h79v19H31z"/><path fill="#2b2b2b" d="M93 63L43 46l59 2z"/><ellipse cx="105" cy="31" fill="#4d6e96" rx="9" ry="21"/><ellipse cx="115" cy="58" fill="#fff" rx="1" ry="112"/><path fill="#d1c1af" d="M164 117l56 68-6-183z"/><path fill="#cec7ba" d="M117 157h114v13H117z"/><path fill="#29497b" d="M17.1 162.3L74 143.9l36.1 12-35.4-38z"/><circle r="1" fill="#384f5c" transform="rotate(-83.3 53.9 28.3) scale(6.05042 55.08109)"/><ellipse cx="249" cy="4" fill="#fff" rx="19" ry="169"/><path fill="#b7ac96" d="M129.3 45.2L148.5 27 198.2-.5 116-16z"/><ellipse cx="43" cy="15" fill="#395673" rx="41" ry="21"/><path fill="#3c61a0" d="M27 36h60v10H27z"/><ellipse cx="35" cy="95" fill="#2d538d" rx="71" ry="9"/><path fill="#2d4367" d="M21 107l78 5-115 24z"/><path fill="#b9aea4" d="M225.7 160.4l-73.9-3.8.5-9 73.9 3.8z"/><path fill="#292c32" d="M5 48h100v15H5z"/><path fill="#567bb2" d="M97.2 39.7l7.7 6.2 7.5-10.5-.6 32z"/><path fill="#cdc1ab" d="M143 78.2l-4.9-55.7 30.9-2.7 4.9 55.7z"/><path fill="#2d2f47" d="M4 161h106v9H4z"/><ellipse cx="114" cy="70" fill="#9fb4d4" rx="1" ry="74"/><path fill="#b9ae9d" d="M120.9 124.6l17.8-57.3 7.9 66.3-29.9-22.4z"/><ellipse cx="25" cy="1" fill="#2d4789" rx="64" ry="6"/><path fill="#5c534e" d="M196 32h9l-6-2z"/><path fill="#c7b598" d="M202.7-9l19.7-3.4 7 39.4-19.8 3.4z"/><path fill="#d9cab7" d="M204.6 1.1l18.1 99.3-4.7 79.2-14.8-97z"/><path fill="#536e9a" d="M81 40.7l32 .6v8l-32-.6z"/><path fill="#4a648f" d="M41 65h69v6H41z"/><path fill="#9e958c" d="M141 127h28v3h-28z"/><path fill="#b8ac9b" d="M201 110l-24-26 16-2z"/><circle r="1" fill="#445e76" transform="matrix(8.74318 -5.15013 10.98754 18.65314 87.5 24.7)"/><path fill="#fff" d="M271 163.3L231.3-16l-1.1 35.1 3.9 161.7z"/><path fill="#3e556d" d="M41 64.6l-57-2.7L29.7-16-9.8 92.5z"/><path fill="#456893" d="M113-8l1 55L91 5z"/><path fill="#2b3f56" d="M48.2 128.3l-54.9-2.2-1.5 44.9L16 154.2z"/><path fill="#c3bcac" d="M118 185l76-47-77-14z"/><ellipse cx="116" cy="159" fill="#fefbf3" rx="1" ry="161"/><path fill="#262b31" d="M6 47h23v17H6z"/><path fill="#8d837f" d="M152 151l5-4 1 6z"/><path fill="#323852" d="M82 185l32-23-29-15z"/><path fill="#37455c" d="M87 110h24v31H87z"/><path fill="#406591" d="M39.3 40.5l8.8-10.6-6.9-3.9L-.2 48.8z"/><path fill="#9b8c7c" d="M211 30h-9l10 3z"/><path fill="#d2c4ae" d="M211 6l-16 28-27-7z"/><path fill="#527fbd" d="M108 47h6v21h-6z"/><path fill="#92877d" d="M175.4 150l-1.7 1-3.1-5 1.7-1z"/><path fill="#b1a796" d="M143.5 5.6l-19.6 18.6 35.3 15.4-30.1-6z"/><path fill="#20416e" d="M52.5 145.7l-2.2 17.9-26.8-3.3 2.2-17.9z"/><path fill="#3c4b5c" d="M95 73l-8 10 26 13z"/><path fill="#304e7f" d="M114 158l-7-16-36-6z"/><circle r="1" fill="#2b3542" transform="matrix(-3.81942 -1.241 1.73468 -5.3388 59.6 63.4)"/><path fill="#2d4b7b" d="M101 130L33 85l-38 21z"/><path fill="#d7cfc1" d="M228 149l-16 7 4-52z"/><path fill="#263851" d="M-14.9 159.4l31.8 8L41 115.1l2.1 28.2z"/><ellipse cx="115" cy="10" fill="#fff" rx="1" ry="161"/><path fill="#405f83" d="M75.7 45.1l-32.4 3.7L30.8-4.7l17 41.3z"/><circle cx="211" cy="160" r="3" fill="#a59990"/><path fill="#d9cfbf" d="M230.4 185l.3-22.8-47.3 22.8 15-33.3z"/><path fill="#4a6287" d="M4 67l-14 2L2 43z"/><path fill="#d7c8b1" d="M185 95.8l16.7 2.4 12.1-78.8 12.1 57z"/><path fill="#3b3f45" d="M104.5 64.2L103.2 52l-13.8 9.9-41.2 2.6z"/><path fill="#beb5a8" d="M197 129l-14 6-5-38z"/><path fill="#ccbeac" d="M225 65h6v55h-6z"/><path fill="#fff" d="M231 118h25v52h-25z"/><path fill="#c2b5a0" d="M117 52h43v51h-43z"/><path fill="#445b7a" d="M105 10h6v27h-6z"/><path fill="#3a5684" d="M76 90h31v19H76z"/><path fill="#517b98" d="M104 34l-3-30-5 11z"/><path fill="#b9aa97" d="M171 84h60v2h-60z"/><path fill="#315a8f" d="M5.9 94.3l18.7 21.4-7.4-25.2-32.4-11.7z"/><path fill="#6c6262" d="M132 31.1l4.7 2-.8 1.8-4.6-2z"/><path fill="#3a566e" d="M0 6h38v29H0z"/><circle cx="74" cy="133" r="4" fill="#2e3848"/><path fill="#8e8481" d="M222 156.8l5.4-4.4.6.8-5.4 4.4z"/><path fill="#8e8577" d="M131 16h7v3h-7z"/><path fill="#cec3b3" d="M155.9 135.1l5.1-33.5-1.4 47.5 40.9-32.7z"/><ellipse cx="34" cy="85" fill="#2f435d" rx="31" ry="2"/><path fill="#c2b296" d="M200.6 9.6l-43.4 8.9L129.7-16l96.1 10.1z"/><path fill="#817a79" d="M193 100l5 3v-3z"/></g></g></svg>