<svg xmlns="http://www.w3.org/2000/svg" viewBox="0 0 934 1400"><defs/><filter id="a"><feGaussianBlur stdDeviation="12"/></filter><rect width="100%" height="100%" fill="#614255"/><g filter="url(#a)"><g fill-opacity=".5" transform="translate(2.7 2.7) scale(5.46875)"><ellipse cx="83" cy="180" fill="#ff2b39" rx="122" ry="182"/><circle r="1" fill="#ff3c5b" transform="rotate(131.7 14.5 67) scale(73.92933 80.4914)"/><path fill="#572821" d="M151 187l-167-25 190 88z"/><circle r="1" fill="#7e0003" transform="rotate(51.8 76.4 157.5) scale(162.51155 46.71319)"/><circle r="1" fill="#4b1822" transform="matrix(-69.73717 30.03495 -8.5908 -19.9467 6.3 20)"/><circle r="1" fill="#eb5053" transform="rotate(-81.7 139.2 20.5) scale(21.08003 170.00002)"/><path fill="#dd1535" d="M161.8 76L97 74.1 63.6-7.8l54.7 22.3z"/><circle r="1" fill="#822531" transform="matrix(8.28905 -13.14996 22.94223 14.46159 158.3 95.2)"/><circle r="1" fill="#672a2b" transform="matrix(-3.129 11.2534 -37.34697 -10.3843 34.9 184.5)"/><circle r="1" fill="#f03e5f" transform="matrix(-14.69709 -30.34934 40.62665 -19.67402 46.3 88)"/><circle r="1" fill="#ba5352" transform="matrix(1.04186 -36.98523 35.15536 .99032 20 228.3)"/><ellipse cx="57" cy="92" fill="#bf5673" rx="34" ry="11"/><circle cx="128" cy="119" r="33" fill="#d0283f"/><path fill="#79516a" d="M29 40l25-56 12 27z"/><circle r="1" fill="#ad617d" transform="matrix(1.13018 5.18345 -29.10198 6.34526 87.9 45.3)"/><circle r="1" fill="#3d0a10" transform="matrix(-48.9519 -56.2101 20.488 -17.84246 170 0)"/><ellipse cx="29" cy="30" fill="#e70528" rx="5" ry="20"/><circle r="1" fill="#27171a" transform="matrix(-8.61155 -9.63149 81.90389 -73.23053 20.4 0)"/><circle r="1" fill="#ad3e3f" transform="rotate(-148.8 89.5 100.6) scale(57.19373 21.38598)"/><ellipse cx="170" cy="221" fill="#a03532" rx="13" ry="108"/><ellipse cx="65" cy="69" fill="#f61d46" rx="46" ry="9"/><circle r="1" fill="#df474f" transform="matrix(-2.44318 -24.16899 40.85754 -4.1302 121.8 160)"/><path fill="#ed0835" d="M125 29L86 5 72 40z"/><path fill="#8e1d2d" d="M24.7 38.6L-5 81.2l-19.6-13.8L5 24.8z"/><path fill="#aa313a" d="M136.4 20.9L93.3 41.4l44 10.4 48.7 45z"/><path fill="#a94f6d" d="M59 126h49v8H59z"/><circle r="1" fill="#f9564d" transform="rotate(26.3 -215 68) scale(10.80105 32.77996)"/><circle r="1" fill="#71282b" transform="matrix(64.4388 25.51312 -2.93803 7.42062 114 197.2)"/><path fill="#935967" d="M23 59.6L-8.3 72.9l-2.7-6.5 31.3-13.3z"/><path fill="#ea0b3b" d="M61 47l-2-26L76 6z"/><path fill="#db525d" d="M-16 156l14-47 59 46z"/><path fill="#cb6481" d="M55.1 73.3l-27.6 38.1 22.5-9.1-10.7-21.8z"/><path fill="#9c7091" d="M49.4 41.8l-3-7.4 10.2-4.2 3 7.4z"/><path fill="#c7506c" d="M62.2 47.7l22.7 19.7 31.3-26.3-61.3 10.8z"/><path fill="#8f0f21" d="M156.9 11.8L84 13.9l6.1 6.6L84-9z"/><path fill="#9b3e3c" d="M186 254L58 270l-15-39z"/><ellipse cx="71" cy="109" fill="#f03055" rx="50" ry="14"/><circle r="1" fill="#f21e3b" transform="rotate(-58.1 119.2 -68) scale(8.90155 26.94716)"/><circle r="1" fill="#ca2f49" transform="matrix(-16.68115 -13.93345 4.6133 -5.52304 99.1 221.9)"/><ellipse cx="73" cy="25" fill="#9c4d6f" rx="5" ry="11"/><circle r="1" fill="#f05d5f" transform="matrix(-32.25324 -5.16613 .49014 -3.06004 141 173.2)"/><path fill="#9b566e" d="M65 72L55 93l16-8z"/><path fill="#751a23" d="M157.2 49.3L117.7 6.4l19.9-13.2L186 73.4z"/><path fill="#8a3a4b" d="M147 111.7l-7-9.5 10.5-27.3L131.7 89z"/><ellipse cx="165" cy="234" fill="#9a3c40" rx="18" ry="29"/><path fill="#d04364" d="M88 135L56 89l37-6z"/><path fill="#cb4953" d="M81 211l-53 12-44-38z"/><path fill="#70282d" d="M12 163l-5 23 89-4z"/><path fill="#72536b" d="M71.5 5.1L61.2 20.9l-7.4-1.7-26.5 6.7z"/><path fill="#9e435e" d="M110 79l11 15-22-1z"/><path fill="#e2103c" d="M55.9 20.6l10.5 25.8 1.3-14.2-30.6 1.3z"/><path fill="#bb262b" d="M132 45h28v33h-28z"/><ellipse cx="21" cy="22" fill="#373a48" rx="3" ry="18"/><path fill="#c91836" d="M20.2 55.9L2.9 52l14.4-17.5L28 48.8z"/><path fill="#a63537" d="M134.5 161.9l37.7 5.3-.7 5-37.7-5.4z"/><path fill="#6b4962" d="M52 220l11-4-20-3z"/><path fill="#c5263e" d="M42.8 15.5L51.1 1l6.4 37.7-7-26.1z"/><path fill="#f4303e" d="M1.6 89l39.1-44.2-16.1 24.3 16.5 18.7z"/><path fill="#e2233d" d="M152.7 117.8l-96.9-9.1 116.4 6.1-16.1 20.3z"/><path fill="#8e566e" d="M34 12h4v31h-4z"/><circle cx="132" cy="205" r="19" fill="#6f2f2f"/><path fill="#bb4c63" d="M-16 106l10.6 28.5 23.2-4.2 10.8 2.7z"/><path fill="#f51e49" d="M106.2 28.9l-29.1-6.2-4 18.7 15.7 1.8z"/><path fill="#863646" d="M137 28h-16l11 21z"/><path fill="#cc2949" d="M133 189.1l-64.9-16.7 35.4-1.7 60.1 9.7z"/><path fill="#e9585e" d="M98.8 155.8l63.8 2.5-133.7-18.8 62.8 18.7z"/><path fill="#a24359" d="M127.4 137.3l-5.5-9.6 8.7-5 5.5 9.6z"/><path fill="#af7091" d="M57 47h21v5H57z"/><path fill="#4d4c5d" d="M144 235v-6l15 5z"/><path fill="#d16a81" d="M36 92h13v14H36z"/><path fill="#c24147" d="M132.3 147.9l-34 .5 41.1 17.1-52.1-3.1z"/><path fill="#5a1d26" d="M-13.8 40.8L32.8 3l5 6.2L-8.8 47z"/><circle r="1" fill="#a23234" transform="matrix(30.9777 10.62877 -4.04909 11.80111 0 253.1)"/><path fill="#a02831" d="M56 152h14v5H56z"/><path fill="#e32a35" d="M89.7 56.2l62.9-6.2-41.3 42.8 14.4-49.4z"/><path fill="#f02549" d="M75.6 50L45.5 73.3l-17-34.4L85 91.4z"/><path fill="#c41632" d="M66 25l7-35 38 27z"/><path fill="#b95075" d="M100.6 74.2l3.5 3.6-18.7 18-3.5-3.6z"/><path fill="#87292e" d="M165 48h6v103h-6z"/><path fill="#7f2f33" d="M37.8 172.4l37.5 34.4-26.7-6.3-64.6-42.7z"/><path fill="#c44f41" d="M168.6 251.7l-45.5-19.5 2.4 12.1 14.7 1.7z"/><path fill="#e9223e" d="M91 98h25v24H91z"/><path fill="#ee7172" d="M12 89h8v15h-8z"/><path fill="#b2535a" d="M112.5 46.2l5-3.2 8 12.8-5 3.2z"/><path fill="#ab5d7d" d="M36.5 73.5l11.8 2.7-4.5 13-3.5-13.4z"/><path fill="#84465a" d="M70.9 17.1l8.9 6.7-2.5-6.3-5.4-6z"/><path fill="#b6384c" d="M5.6 184l-21.1-6.3-.5 5.8 17.7-31.4z"/><circle r="1" fill="#f43840" transform="matrix(-.30164 2.2873 -38.39609 -5.06343 104.4 142.6)"/><path fill="#f02651" d="M22.4 77.4l4.7-16.1 65-27.3-54 8.7z"/><path fill="#cb1836" d="M16.7 55.8l19.4-25.1-1.1-3.6 1.2-17.2z"/><path fill="#ef5b61" d="M143.3 174.3L74 164.6l.7-5 69.3 9.8z"/><path fill="#fc2450" d="M64.5 104.3l-18.7 15.1-6.3-7.7 18.7-15.1z"/><path fill="#823849" d="M186 141.8l-9.2-34.8-43.1-23.8 16.4-9.2z"/><path fill="#ea254b" d="M48.6 69.2l-33 17.2 54.1-31.2-9.4 41z"/><path fill="#fa1045" d="M81 87h23v3H81z"/><path fill="#ae3a43" d="M69 196h14v41H69z"/><path fill="#f21f45" d="M122.2 48.2l-23 12.1-39.8 12.2 57.9-.2z"/><path fill="#ae5077" d="M95 64l-15-2-8-10z"/><path fill="#a94b51" d="M8 185l30 63-44-22z"/><path fill="#992b38" d="M155.9 239l17.8-26.5-23-25.6 5.4 55.8z"/></g></g></svg>