<svg xmlns="http://www.w3.org/2000/svg" viewBox="0 0 1400 1120"><defs/><filter id="a"><feGaussianBlur stdDeviation="12"/></filter><rect width="100%" height="100%" fill="#4f5c34"/><g filter="url(#a)"><g fill-opacity=".5" transform="translate(2.7 2.7) scale(5.46875)"><circle r="1" fill="#fff" transform="matrix(-69.68542 -226.3288 145.05154 -44.66059 110.3 100.8)"/><circle cx="60" cy="121" r="206" fill="#fff"/><circle r="1" fill="#214753" transform="matrix(-10.50054 -15.27838 60.38734 -41.50307 208.3 104)"/><circle r="1" fill="#0a0c7b" transform="matrix(-23.29213 -44.29972 8.77651 -4.61456 27 126.6)"/><circle cx="98" cy="74" r="80" fill="#fff"/><path fill="#030d00" d="M54 63.4l-8.9 9.5L2 32.6l8.9-9.5z"/><circle r="1" fill="#2c5867" transform="matrix(12.85735 7.7528 -23.20434 38.4824 130.2 182.8)"/><path d="M133.2 116.8l-9.4-20 24.9 18.4-15 5.4z"/><path fill="#000050" d="M42.4 18.6l-1.8 7.8-39-9 1.8-7.8z"/><path d="M271 104.3v-1.9l-19.9 3.6L212 45.2zM233 164l27 9 6-20z"/><ellipse cx="174" cy="24" fill="#fffffa" rx="66" ry="55"/><circle r="1" fill="#fffff8" transform="matrix(60.65988 -46.29456 16.72973 21.92101 204.3 161.6)"/><circle r="1" fill="#fffffc" transform="matrix(-74.37678 46.75312 -13.17554 -20.9602 58.9 184.7)"/><circle r="1" fill="#3e5e69" transform="matrix(-28.84175 5.97512 -2.78587 -13.44734 203 94)"/><path fill="#42458e" d="M52.9 162.2L27 171.4 6.3 87l47.6 67.6z"/><path fill="#fffcf7" d="M242.5 74.5l28.5 43.1L237.6 8.9l-78.5-21.5z"/><path fill="#fff" d="M85 109.2l-99.7-48.6 9.6-19.8 99.8 48.6z"/><circle r="1" fill="#313a17" transform="rotate(-137.9 127 -10.8) scale(37.92831 1.89017)"/><circle r="1" fill="#fff" transform="matrix(-13.6441 -75.4199 18.65709 -3.37523 0 149.8)"/><path fill="#0d1500" d="M119 94l25 26-3-17z"/><circle r="1" fill="#fff" transform="rotate(-103.4 47 -10.6) scale(20.44878 40.35639)"/><ellipse cx="43" fill="#fff" rx="48" ry="14"/><circle r="1" fill="#fff" transform="rotate(155.1 107.7 73.4) scale(3.5595 9.59533)"/><ellipse cx="239" cy="199" fill="#fffbf2" rx="47" ry="29"/><path fill="#283112" d="M18.8 50.6l38.9 19.3-47-45.5L8.8 38z"/><path fill="#050905" d="M193.1 107.3l-2.4-4.3 40.2-22.3 2.4 4.3z"/><path fill="#fdf9ed" d="M52 79h58v125H52z"/><path fill="#fff" d="M-16 12.9l38.2 8L4.4 32.3l42 114.8z"/><path fill="#040900" d="M271 105l-35-25 11 24z"/><path d="M252 170.9l-13.6-5.5 16.3-10.8 3.6 18.1z"/><circle r="1" fill="#131d39" transform="matrix(19.83 50.1791 -15.50693 6.1281 255 10)"/><path fill="#86a5ab" d="M204.1 73.4l23.8 2.4-94.3 80.3 48.8-66.2z"/><path fill="#01056f" d="M44.2 18.9L-16 16.3l6.5-13.6 40 23.7z"/><circle r="1" fill="#fffdf9" transform="matrix(7.88753 20.48881 -14.40048 5.54372 50.7 39.6)"/><path fill="#051a00" d="M62 69h24v2H62z"/><path fill="#293526" d="M178 35.2L198.5 46l-.5.8L177.6 36z"/><path fill="#071300" d="M233 64l-6 3-12-17z"/><path fill="#091616" d="M152 141.7l3.7 1.6-9.7 23-3.7-1.6z"/><path fill="#527780" d="M112 172l13-7-14 43z"/><circle r="1" fill="#fffbf3" transform="matrix(17.5511 -16.34926 53.99306 57.96211 99 45.8)"/><path fill="#fdfaf1" d="M58.4 78.1l-.7 58.7L-16 59.2l49.6-1z"/><path fill="#fefbf2" d="M238 79l-38-35-68 1z"/><circle r="1" fill="#fdfaf6" transform="matrix(22.3173 13.51678 -5.78795 9.55637 47.8 45.3)"/><path fill="#3b544f" d="M238.9 83.7l-42.6 23.7 61.6-45-9 20z"/><path fill="#2f401a" d="M65.3 69.8l-.5.9-18.1-10.5.5-.9z"/><circle r="1" fill="#2c494b" transform="matrix(18.9785 -19.61543 1.9212 1.8588 187.5 117)"/><path fill="#1d1c6f" d="M3 78l3 13-22-19z"/><path fill="#f5eee3" d="M245.9 156.2l25.1-5.5-34.6-67.6-2.9 3.2z"/><path fill="#fff" d="M270 57l-29 13-19-18z"/><path fill="#9ea191" d="M163.2 20.4L137.6-16l18.7 22.6 29 35z"/><path fill="#3f472d" d="M261.8 105.2l-38.3-50L179.2 37l26.2 8.4z"/><path fill="#fffffa" d="M269 34.6l-9.4 32.1 11.4 49.2-21.8-32.1z"/><path fill="#f4f1e6" d="M53 160l-69 37 156 22z"/><path fill="#515c4d" d="M85.5 69.9l.6-.9 22.4 15.1-.6.9z"/><path d="M179 103h21v3h-21z"/><circle r="1" fill="#f4f1e7" transform="rotate(53.5 -75.3 262.4) scale(24.55173 30.53155)"/><path fill="#fcf8ec" d="M166 105l-38 55-22-25z"/><circle r="1" fill="#fffff3" transform="matrix(-1.68607 -2.87384 12.67447 -7.43606 133.7 203)"/><path fill="#fffcf6" d="M130-16L-9 3l199 44z"/><circle r="1" fill="#fff" transform="rotate(20.1 -59.5 50) scale(16.65286 3.44925)"/><path d="M140 106l-1-6-7 7z"/><circle r="1" fill="#62649d" transform="matrix(9.42634 -.61298 1.61481 24.83239 31.8 145.8)"/><path fill="#31347c" d="M30.6 27.6l13.2-8.9-39.1-9 21.9 18.2z"/><path fill="#68898e" d="M143.6 192.4l13.5-48.3 34.4-11.6-58.6 35.6z"/><path fill="#1c2412" d="M3 32l35 20-23-24z"/><path fill="#f8f6ed" d="M218 66L80-16l63 122z"/><path fill="#fffcf8" d="M-12 16.8l45.2 52-21.1 18.4-45.3-52z"/><path fill="#b3c7cb" d="M175 101l22-19-1 19z"/><path fill="#f0ece3" d="M241.4 165.4l26.6-25-10.5-37.1-87.2 43.5z"/><path fill="#f4f2e8" d="M98.9 71.2l-59.2 60.5L85.9 219l47.6-104.9z"/><path fill="#91abb2" d="M181.4 136.4l-7.9 7.9 44.1-20.6 15.5-36.9z"/><path fill="#3f4694" d="M11.6 86.4l4.3 35 7.9 33.8 7.1-38.3z"/><path fill="#fcfaf5" d="M151.3 56.4L17.6 24.8l14 21.2 28.8 20.8z"/><circle r="1" fill="#f9f6ee" transform="rotate(163.5 -6 68.2) scale(10.31956 49.26591)"/><path fill="#faf6ef" d="M269 62l-73-21-53-57z"/><path fill="#737867" d="M161 14.2L151.7-.9 128.5-16h4.3z"/><path fill="#61618e" d="M14.7 128l14.9 19.8 4.2 22 22.1-10.4z"/><circle cx="137" cy="115" r="4" fill="#0d1400"/><path fill="#20251f" d="M236.3 79.2l-34.5 15.5 15-2.6 36.9-12.4z"/><path fill="#fffff9" d="M242.1 98.6l-5.2 3-7-12.2 5.2-3z"/><path fill="#2e3d1a" d="M36.2 60.5l.3-1 27.3 10-.3 1z"/><path fill="#5b7f87" d="M216.9 110.1l7.1-22-35 25.7-26.7 32.6z"/><path fill="#2f371e" d="M113.8 90.2l.7-.8 19.7 18.4-.7.8z"/><path fill="#f9f8f4" d="M-16 21.3l36 2.6-16.9 8.6L44.5 84z"/><path fill="#718f95" d="M108.5 192.6l3.2-19.7 15.8 2.5-3.2 19.7z"/><circle r="1" fill="#f7f6f0" transform="matrix(-2.0548 8.69385 -56.55195 -13.36606 33 71.2)"/><ellipse cx="216" cy="78" fill="#97b2b7" rx="18" ry="5"/><circle r="1" fill="#f3f3e9" transform="matrix(5.41243 -28.35814 22.81383 4.35424 111 126)"/><circle r="1" fill="#eeeae1" transform="matrix(-38.54307 -3.81145 4.08465 -41.30574 218.8 203)"/><path fill="#849ea1" d="M152 133l23-34-14 46z"/><path fill="#5e7e83" d="M146 186l2-40-14 36z"/><path fill="#030908" d="M245.3 164.3l6-9.3 13.4 8.7-6 9.3z"/><path fill="#f4f3ec" d="M215.8 72.3L86.3 97.1l137-33.7 10.1 15.2z"/><path fill="#34398b" d="M35 124l-9-17-6 12z"/><path fill="#010204" d="M149.2 155.3l-.9-.4 8.5-18.2.9.4z"/><path fill="#20292a" d="M211.6 87.6l26.3-5.2-32 16.8-31.7 29.9z"/><path fill="#f3f2e7" d="M132.5 106.2l56.9-122.1L108.9 87l22.1 15.1z"/><path fill="#272b7d" d="M32.6 16.4l5.2 6.1-8.4 7.1-5.2-6.1z"/><path fill="#faf7f5" d="M257 62l-17 9-2-58z"/></g></g></svg>