<svg xmlns="http://www.w3.org/2000/svg" viewBox="0 0 1400 933"><defs/><filter id="a"><feGaussianBlur stdDeviation="12"/></filter><rect width="100%" height="100%" fill="#553b3c"/><g filter="url(#a)"><g fill-opacity=".5" transform="translate(2.7 2.7) scale(5.46875)"><circle r="1" fill="#fff" transform="matrix(95.7101 61.45715 -71.95195 112.05415 148 64.4)"/><circle r="1" fill="#f9f8e8" transform="rotate(25.3 -127.9 344) scale(92.92691 57.27525)"/><circle r="1" fill="#7b644a" transform="matrix(38.60698 116.59487 -20.16725 6.6778 235.4 104.1)"/><path fill="#365448" d="M57 108l76-65-24 52z"/><path fill="#000100" d="M50.7 87.2l20 25.9 15.3 34-15.5 1.7z"/><circle r="1" fill="#fffffd" transform="matrix(23.81083 30.47647 -26.265 20.52047 154.9 114.9)"/><circle r="1" fill="#6d6b5b" transform="matrix(-21.58701 2.44182 -14.9393 -132.07172 26.4 82)"/><path fill="#423542" d="M161 78l-1-44 32 52z"/><ellipse cx="120" fill="#816e5c" rx="95" ry="31"/><path fill="#fffff4" d="M55 75l64 81-31-4z"/><ellipse cx="214" cy="162" fill="#7f6e5c" rx="89" ry="14"/><path fill="#fff" d="M213 122l-52-99 37 23z"/><path fill="#483333" d="M104.4 41.4l30.4 1.6-6.3 14.5-31.2-12.8z"/><path fill="#f8f3ea" d="M45 27h58v50H45z"/><path fill="#1a2014" d="M39 45.7l2.8-5.4 27.7 10.3 2.9 6z"/><ellipse cx="58" cy="152" fill="#f2ead9" rx="8" ry="36"/><path fill="#e9d4bc" d="M244 15h12v102h-12z"/><path fill="#867363" d="M0 156h104v14H0z"/><path fill="#976f60" d="M126.3 123.6l-18.6-8.1-.9 35 18.7-7.8z"/><path fill="#83807c" d="M185 135.3l7.5-13.8-19.3-17.6 73.9 30z"/><path fill="#fffaf0" d="M203.3 117.5l-51.9-23.2 25-20.3-6-11.7z"/><circle r="1" fill="#706b59" transform="rotate(136 19.4 64) scale(2.55703 32.08983)"/><path fill="#fdf4ec" d="M125 134h96v16h-96z"/><circle r="1" fill="#e7d7c2" transform="rotate(-17.4 164.9 -757.4) scale(13.19341 30.99184)"/><path fill="#68554a" d="M223.5 150.1L271 185l-21.4-82-28.2 1.8z"/><path fill="#e6ddd8" d="M192 14l-38 25 34 18z"/><ellipse cx="30" cy="64" fill="#7c6f68" rx="16" ry="49"/><path fill="#fffffa" d="M132 33h15v50h-15z"/><circle r="1" fill="#fff8f1" transform="matrix(19.7429 -20.5877 8.14317 7.80902 69.4 68.8)"/><circle cx="197" cy="37" r="7" fill="#1f0500"/><path fill="#fff7ed" d="M128 83l83 63-122-41z"/><path fill="#854626" d="M176.3 62.9l-6.2 20-12.4-3.8 6.2-20z"/><path fill="#3c3e2d" d="M63 77l30 33-20-12z"/><path fill="#f3eee7" d="M57 147h92v7H57z"/><ellipse cx="10" cy="7" fill="#1d190f" rx="14" ry="10"/><circle r="1" fill="#36272a" transform="matrix(5.03482 1.77223 -3.05256 8.67216 123 53.8)"/><path fill="#a98572" d="M126.4 72.4l13.9 15.4-23-5.9-6.3-36.5z"/><path fill="#0c2d68" d="M205.7 105.7l6.5 24.1-2 .5-6.4-24.1z"/><path fill="#fff" d="M207 129l-3-21-20-19z"/><ellipse cx="39" cy="127" fill="#74635c" rx="11" ry="50"/><path fill="#faf5ed" d="M76.7 53.4l34.2-7.3 4.4 20.5L81.1 74z"/><circle r="1" fill="#44665a" transform="matrix(-23.02985 17.81848 -1.5761 -2.03706 92.1 88)"/><path fill="#1c2526" d="M69.5 144.8l-13.2-43.4L78 128.5l6.3 12.6z"/><circle r="1" fill="#2b5498" transform="matrix(1.92636 -1.42427 10.19818 13.7933 186.3 83.6)"/><path fill="#fffffc" d="M212 120h6v19h-6z"/><circle r="1" fill="#8a786d" transform="matrix(-.87018 -11.79008 28.66336 -2.11552 212.8 159.2)"/><ellipse cx="144" cy="16" fill="#95867a" rx="32" ry="18"/><path fill="#8a7b77" d="M40 30l-56 31 61 6z"/><path fill="#98847b" d="M161.6 52.9l20.3-18.4-23.3 41.4-12.2-8z"/><path fill="#efe7d8" d="M52.2 141.6L71 154.2 52.9 95.9l-1.7 15.5z"/><path fill="#7c6457" d="M238.4 53.6l14.1 9.5-9 13.3-14-9.5z"/><path fill="#fff8eb" d="M44 26h29v17H44z"/><path fill="#ececeb" d="M114 30h6v23h-6z"/><circle r="1" fill="#7d7069" transform="matrix(14.34569 4.08648 -5.54863 19.47862 48.1 4.3)"/><path fill="#2b2d26" d="M67 57l-8-12 10 5z"/><circle r="1" fill="#fff0df" transform="matrix(8.72395 14.69354 -8.99506 5.34061 94 128)"/><path fill="#b7bdaf" d="M120 92l1-18-43 29z"/><path fill="#655f2f" d="M200 119l-9 1-13-15z"/><path fill="#f8f0ea" d="M50 55h33v28H50z"/><path fill="#fff8ee" d="M204 128l-35-27 5 20z"/><circle r="1" fill="#85b6a9" transform="rotate(148.7 36.5 51.8) scale(19.0763 5.35002)"/><path fill="#3b3d31" d="M19 148l18-37-53-8z"/><path fill="#82584c" d="M103 49l6-10-18 6z"/><circle cx="125" cy="48" r="7" fill="#2b2727"/><path fill="#24250c" d="M75.4 89.3l-5.3 2.6-3.5-7.2 5.3-2.6z"/><path fill="#6e5945" d="M229-16l-41 26-52-15z"/><circle r="1" fill="#dcc8ba" transform="matrix(3.541 18.38813 -9.0212 1.73721 252.6 93.1)"/><path fill="#fff6ed" d="M172 68l4 29 32 28z"/><path fill="#8b5843" d="M146 47l9 7-1-12z"/><path fill="#47587e" d="M190.2 131.9l-7.5-10.2 26.9 12.9-7.4-.4z"/><path fill="#40433c" d="M46 90.6l40 54.9-19.1-39-16.2-16.3z"/><path fill="#f3e9e0" d="M226.4 160.5l-42.1-108-4.2-44 6.1 5.5z"/><path fill="#474451" d="M161 52l18 5 1 9z"/><path fill="#fffffe" d="M125 97l5-30-11 24z"/><path fill="#b38169" d="M115 51h2v60h-2z"/><path fill="#e2d5cc" d="M60 162l12 4-23 10z"/><path fill="#a48b80" d="M106 118h15v30h-15z"/><path fill="#f6ffff" d="M117 44l20-9-19-5z"/><path fill="#19211f" d="M85.9 95l15-11.6 1.2 1.5-15 11.7z"/><circle r="1" fill="#786b69" transform="matrix(46.9314 16.026 -1.31575 3.85312 88.2 169)"/><path fill="#f8ece1" d="M187 149.4l-47-98.2 26.7 8-34.3 8.8z"/><path fill="#f9f2ea" d="M90.7 106.1l25.6-11.3-4.4 19.1-3.9 12z"/><ellipse cx="144" cy="23" fill="#847567" rx="40" ry="5"/><path fill="#e5eaec" d="M139.2 51.4l-17 8.1 13.7 20.7-5.4-41.3z"/><path fill="#e3d9cd" d="M89.3 106.9L60.7 69.4l41.7 47.5-23.6-21z"/><circle r="1" fill="#342f2b" transform="matrix(-6.86387 -4.7414 1.34386 -1.94543 229.6 113.4)"/><path fill="#42302a" d="M245 163.1l-2.5 18.1 28.5-21.6-23-10z"/><path fill="#333110" d="M203 123l-11-10 1 8z"/><path fill="#b3a697" d="M151 151l-33 20-26-15z"/><path fill="#4a5735" d="M126.5 81l3-2.7 6 6.7-3 2.7z"/><path fill="#312d3d" d="M121 61.5l-4.4-.9 3.8 7.9 8.1-17.2z"/><circle r="1" fill="#7a6759" transform="matrix(-8.74584 -6.21604 16.4638 -23.16422 238.6 140.1)"/><path fill="#8e7a6c" d="M239.4 43L170.9-3.6l71.9 86.8 4.6-19.1z"/><path fill="#231d1c" d="M238 109l4 6 3-14z"/><ellipse cx="35" cy="168" fill="#9c816f" rx="22" ry="7"/><path fill="#071809" d="M58.4 49.8L47 46.1l.6-2L59 48z"/><ellipse cx="166" cy="122" fill="#f6ece2" rx="24" ry="16"/><path fill="#a8968f" d="M112-16L51 1l125 16z"/><path fill="#4c463f" d="M3.6 36.5l13.6-29 17.2 8-13.6 29z"/><path fill="#d4c6bc" d="M222.3 25.5L239 9.8l28.6 30.7L251 56.2z"/></g></g></svg>