<svg xmlns="http://www.w3.org/2000/svg" viewBox="0 0 1400 1413"><defs/><filter id="a"><feGaussianBlur stdDeviation="12"/></filter><rect width="100%" height="100%" fill="#444"/><g filter="url(#a)"><g fill-opacity=".5" transform="translate(2.8 2.8) scale(5.51953)"><circle r="1" fill="#fff" transform="rotate(-122 118.7 -9.9) scale(253 92.52745)"/><circle r="1" transform="matrix(41.38223 26.67531 -43.20003 67.01752 128.9 158.2)"/><path fill="#e2e2e2" d="M4 38L162-9 3 186z"/><ellipse cx="232" cy="209" fill="#e4e4e4" rx="55" ry="254"/><path fill="#f0f0f0" d="M51 160h20v96H51z"/><ellipse cx="104" cy="117" fill="#0d0d0d" rx="24" ry="77"/><ellipse cx="146" cy="19" fill="#fff" rx="86" ry="18"/><path fill="#e1e1e1" d="M61 5h82v87H61z"/><circle r="1" fill="#fff" transform="matrix(-2.92687 22.84783 -7.4003 -.948 143 107.5)"/><ellipse cx="175" cy="151" fill="#6b6b6b" rx="19" ry="98"/><path d="M16 255v-98h34v98z"/><ellipse cx="99" cy="237" fill="#efefef" rx="6" ry="22"/><circle r="1" fill="#ccc" transform="matrix(3.67234 28.50445 -5.25498 .67702 132.8 192)"/><circle r="1" fill="#3e3e3e" transform="rotate(13.6 -118.2 196.9) scale(11.27213 87.9025)"/><ellipse cx="86" cy="128" rx="27" ry="37"/><path fill="#f3f3f3" d="M173 253l-11-48 42 44z"/><circle r="1" transform="matrix(10.93374 57.31669 -13.77778 2.62825 121.4 234)"/><path fill="#c3c3c3" d="M8 153l45 1 18-74z"/><path fill="#aaa" d="M3 163h16v70H3z"/><ellipse cx="121" rx="142" ry="2"/><path fill="#161616" d="M110 42l-26 58 8-57z"/><ellipse cx="132" cy="255" rx="176" ry="2"/><ellipse cx="253" cy="120" rx="1" ry="161"/><path fill="#0f0f0f" d="M130 153L72 254l49-200z"/><circle r="1" fill="#e9e9e9" transform="matrix(18.88096 61.5844 -25.2323 7.73589 213 63.2)"/><circle r="1" transform="matrix(-3.30193 37.56672 -8.4349 -.74139 148.6 157)"/><path fill="#020202" d="M20 24L-9 12l27 49z"/><path fill="#262626" d="M173.6 76.1L147.5 120l38.3 37.7-3.9-110.9z"/><path fill="#1c1c1c" d="M158.5 35.9l-11.3 45.5-4-19.4.6-19.3z"/><path fill="#cecece" d="M112 122.8l3.9-51.5-15.7-18.4-5.5 8.6z"/><path d="M78 271l22-46-32-37z"/><circle r="1" fill="#c3c3c3" transform="matrix(-12.04368 41.71297 -5.04017 -1.45523 141 126.4)"/><path fill="#c7c7c7" d="M2 3h104v8H2z"/><ellipse cx="70" cy="71" fill="#fafafa" rx="17" ry="25"/><path fill="#d3d3d3" d="M124 80l26.4.3 31.5-18.1-44.9 46.6z"/><path fill="#0b0b0b" d="M157.9 93.8L138 151.9l32.7-54.6L143 60.9z"/><path fill="#909090" d="M177.2 163.4l20.7-78.3 13.7 137.8-70.2-21.4z"/><path fill="#d0d0d0" d="M94 238h18v17H94z"/><path d="M136 104l-8 58-16-74z"/><path fill="#f3f3f3" d="M181.5 1.1l-66.9 39.2 21.9 66.8 7.7-61.9z"/><path fill="#ededed" d="M21 30h7v57h-7z"/><path fill="#f9f9f9" d="M222 239l30-76v89z"/><circle r="1" fill="#7a7a7a" transform="rotate(-76.9 169.8 -31.4) scale(26.5684 10.21893)"/><path fill="#dfdfdf" d="M59 183h10v73H59z"/><path fill="#ebebeb" d="M184.1 84.6l41.1 42.8L156 5.7 188.4.9z"/><path fill="#151515" d="M186.6 59.3l-7.5 12-14.7-31-1-3.8z"/><path fill="#e2e2e2" d="M153 48h19v32h-19z"/><path fill="#212121" d="M122.2 56.3l-34-1.8 21.3-8.1 11.8 42.3z"/><ellipse cx="56" cy="157" fill="#a7a7a7" rx="22" ry="3"/><path fill="#090909" d="M94 82.7l-33.3 41.7-4.2 40 49.2-82.8z"/><ellipse cy="173" rx="2" ry="194"/><path fill="#040404" d="M252 2h2v91h-2z"/><circle r="1" transform="matrix(1.94734 2.14762 -4.42538 4.0127 113.8 84)"/><path d="M108 239l13-74 21 106z"/><path fill="#040404" d="M20 171h32v57H20z"/><ellipse cx="160" rx="165" ry="1"/><ellipse cx="139" cy="235" fill="#acacac" rx="4" ry="18"/><path fill="#3a3a3a" d="M50.6 35.7L57-.7 24.8 7.2l5.3 43.9z"/><path fill="#e2e2e2" d="M98.7 85.7l13.2 5.1 1.2 22.9-16.7-29z"/><circle r="1" fill="#8b8b8b" transform="rotate(-170.8 26.5 53.2) scale(14.97725 54.08467)"/><path d="M0 255h254v1H0z"/><path fill="#c6c6c6" d="M98.7 215.6l6.9 10.6 6.1 29-14.4-5.2z"/><path fill="#151515" d="M26 85v31l-10-7z"/><ellipse cx="144" cy="180" fill="#080808" rx="8" ry="45"/><path fill="#1a1a1a" d="M134.4 188.1l32-12.9 11.7-59.9 4.4 43.5z"/><path fill="#292929" d="M166.3 35.2l14 15-34.3-11 3 9.3z"/><circle r="1" fill="#131313" transform="matrix(8.6382 1.75191 -6.98795 34.45567 86.1 242.9)"/><path d="M69 171h9v35h-9z"/><path fill="#5b5b5b" d="M153 229l20 31 4-29z"/><path fill="#eaeaea" d="M88.8 53.6l-27.6 61 2.6-89.7 39.9 10.4z"/><circle cx="87" cy="122" r="26" fill="#0c0c0c"/><path fill="#bbb" d="M75 160.5l-23.8-1.1 30.3-5.2-4.4-8.6z"/><path fill="#4b4b4b" d="M27 154h34v15H27z"/><path fill="#474747" d="M144 75l2-31 14 47z"/><path fill="#d7d7d7" d="M177 226h72v28h-72z"/><path fill="#d3d3d3" d="M177 99l63-93h-42z"/><path fill="#b5b5b5" d="M135 141.9l5.9 1.3-10 43-5.8-1.4z"/><ellipse cx="253" cy="126" rx="1" ry="125"/><path fill="#1e1e1e" d="M171.8 94.1l-9.7 13-15-7.7 34.6-25.3z"/><path fill="#1d1d1d" d="M68.8 208.8l-1.2-17.4L92.1 267l18.4-149.3z"/><path fill="#adadad" d="M54 11h8v110h-8z"/><ellipse cx="147" cy="234" fill="#0f0f0f" rx="5" ry="32"/><ellipse cx="9" cy="106" fill="#aeaeae" rx="8" ry="41"/><path fill="#333" d="M135.8 103.9l-24.1-4.3-1.8-3.4 1.1-13.8z"/><path fill="#757575" d="M51 156h9v94h-9z"/><path fill="#8f8f8f" d="M3 154h11v94H3z"/><path fill="#646464" d="M19 100l1-51L0 27z"/><path fill="#d6d6d6" d="M204 48h49v91h-49z"/><path fill="#7d7d7d" d="M67.5 2.4l-18.4 9.1L2.5 22.2l8.8-20.3z"/><path fill="#d1d1d1" d="M79 271l-12-45-4 18z"/><path fill="#e2e2e2" d="M183.9 50.4l33.2 94.9L210.3 17l-84-11.2z"/><path fill="#111" d="M-16 26l69-13-42 23z"/><ellipse cy="231" rx="3" ry="118"/><path fill="#c7c7c7" d="M169.5 82.4l9.6-21.7-16.4-1.2-11 22.7z"/><path fill="#141414" d="M92.3 60.1l8.3 33-3 .8-8.2-33z"/><path fill="#0b0b0b" d="M66 100l6 52 19-64z"/><path fill="#c6c6c6" d="M151.4 61.4l-33 27 15.1 6.5 12.6-23.6z"/><path fill="#151515" d="M95 45h20v6H95z"/><circle r="1" transform="matrix(1.35576 -15.12897 4.89159 .43835 130.2 111.4)"/><path fill="#fff" d="M20 138h6v17h-6z"/></g></g></svg>