<svg xmlns="http://www.w3.org/2000/svg" viewBox="0 0 1250 1000"><defs/><filter id="a"><feGaussianBlur stdDeviation="12"/></filter><rect width="100%" height="100%" fill="#334c48"/><g filter="url(#a)"><g fill-opacity=".5" transform="translate(2.4 2.4) scale(4.88281)"><ellipse cx="90" cy="171" fill="#fff" rx="155" ry="203"/><circle r="1" fill="#fff" transform="rotate(-165.9 40.5 .4) scale(123.20791 59.5025)"/><circle r="1" transform="matrix(-20.64278 -106.19789 19.84859 -3.85818 141.4 148.7)"/><circle r="1" fill="#fff" transform="matrix(41.34376 67.69683 -29.76837 18.18012 212.6 165.9)"/><circle r="1" fill="#fff" transform="rotate(-14.4 232.2 -997) scale(12.65584 96.00107)"/><circle r="1" transform="matrix(-.15367 8.8035 -75.32406 -1.31479 45.2 92.8)"/><circle r="1" fill="#fffffc" transform="rotate(-53 224.7 28.3) scale(63.40755 43.53319)"/><circle r="1" fill="#000803" transform="matrix(28.08544 65.8454 -14.52648 6.19607 231 95.5)"/><ellipse cx="139" cy="165" fill="#000e00" rx="24" ry="30"/><path fill="#fffff3" d="M167.7 200l103.3 3.6-287 2.1 27.4-37.1z"/><circle r="1" fill="#ffffec" transform="rotate(-26.8 273.1 -342.2) scale(24.91782 182.87212)"/><path fill="ivory" d="M85 105h31v99H85z"/><path fill="#fffff1" d="M-22.5 55.6l-1-61 122-2.2 1 61z"/><circle r="1" fill="#223a02" transform="matrix(18.3434 28.03165 -4.85651 3.17801 115 41.2)"/><path fill="#fff" d="M258.7-13.3l16 69.2-23.4 5.4-16-69.2z"/><path fill="#fff9e0" d="M157 118l22 101 92-42z"/><path fill="#65959c" d="M81.9 137l2.9 27.8-58.7 6.2-2.9-27.8z"/><ellipse cx="128" cy="143" fill="#223016" rx="14" ry="51"/><circle r="1" fill="#ffe" transform="matrix(18.11317 62.2603 -16.01098 4.65802 176.3 19)"/><path fill="#417d87" d="M148 78l5 41 42-41z"/><circle r="1" fill="#0a3944" transform="rotate(177.2 17 49.5) scale(87.67358 9.9981)"/><path fill="#fff9e6" d="M22.5-16l76.3 38.4 25.6 63.7-13.6 2.1z"/><circle r="1" fill="#14322f" transform="matrix(15.49653 -8.25875 26.79014 50.26839 232 90)"/><circle r="1" fill="#57756f" transform="matrix(2.94495 -35.9202 20.82777 1.70758 215 10.5)"/><path fill="#549aa4" d="M0 99h82v24H0z"/><circle r="1" fill="#ffffef" transform="matrix(-10.9517 -9.32063 15.8084 -18.57481 98.7 122.5)"/><circle r="1" fill="#05120b" transform="matrix(4.22335 -1.0815 7.423 28.98759 167.7 194.9)"/><path fill="#fffae9" d="M139.3 73.1L100-16l105.5 90.2-60.4 6.3z"/><circle r="1" fill="#faf2d9" transform="rotate(80.5 -82.6 129.7) scale(22.98093 63.13249)"/><circle r="1" fill="#303c24" transform="matrix(-10.0336 30.38984 -20.98091 -6.92711 136.8 140.1)"/><path fill="#fffff4" d="M58 219l78-27 69 20z"/><path fill="#77b3bb" d="M102 65L30 50-7 93z"/><path fill="#4b5e2e" d="M104.5 36.4l15.7 33.9 25.2 18.9-20.5-50.7z"/><ellipse cx="18" cy="150" fill="#92bbbf" rx="42" ry="26"/><path fill="#5d765e" d="M103.1 22.6L66.9 0 44-16l57.8 33z"/><path fill="#f0e9d8" d="M271 204L199 71l-27 140z"/><path fill="#f9f0e4" d="M181 76l13-92L77-2z"/><circle r="1" fill="#253c38" transform="matrix(12.366 58.68085 -14.2506 3.00307 233.7 89.3)"/><path fill="#07111b" d="M16 87h84v10H16z"/><path fill="#ffffeb" d="M262 6l-29-22 23 84z"/><circle r="1" fill="#42542e" transform="matrix(10.91932 46.48998 -4.1325 .97062 125 91.5)"/><path fill="#222d25" d="M126 189l31-70 15 82z"/><path fill="#36422b" d="M121 100h36v55h-36z"/><path fill="#445e5a" d="M221.7 66.2l-30-52 28.6-16.4 30 52z"/><ellipse cy="26" fill="#fbf3e5" rx="101" ry="28"/><path fill="#213733" d="M262.2 179.4l-9.8-10.1-51.3-106.5L249 43.3z"/><circle r="1" fill="#9ebdbf" transform="rotate(24.9 -121.1 222.5) scale(38.80777 7.76154)"/><path fill="#639498" d="M74 99.2l20.2 2.4L80 120.5l-96-13.4z"/><path fill="#f2eddd" d="M206 77.6l26.1 52.4-53.7 84.9-22.5-98.4z"/><path fill="#f3eddb" d="M49 219l60-97 12 74z"/><path fill="#fef8e9" d="M52 34l61 21 5 27z"/><path fill="#5490a1" d="M207.1 80.1l-7 3.7-14.7 5.5 2.1-10.9z"/><path fill="#88aaae" d="M36 115h47v52H36z"/><path fill="#131418" d="M83 143l-4 10 2 8z"/><circle cx="143" cy="171" r="24" fill="#232d29"/><path fill="#f4eedd" d="M95.2 99.9l23.7 12.6-4.3 26.5-31.8 22.5z"/><path fill="#fbf9e7" d="M0 177h20v27H0z"/><ellipse cx="215" fill="#4b6561" rx="24" ry="44"/><path fill="#1a2426" d="M170 191l-47-36-2 37z"/><path fill="#697d45" d="M135 65l19 36-35-8z"/><path fill="#a0c5c9" d="M-13 80l73-29-75 4z"/><circle r="1" fill="#152b34" transform="rotate(95.4 -14.8 69.2) scale(6.23359 31.59379)"/><circle r="1" fill="#e8e5d6" transform="matrix(22.8626 45.45722 -33.96686 17.08355 215.8 179.5)"/><path fill="#fff" d="M255 61h1v18h-1z"/><path fill="#f4eee1" d="M202 70l-63 7 45-93z"/><path fill="#203934" d="M216.6 45.9l40 22-52.5-1.1-6.7-40.6z"/><path fill="#576a4c" d="M125.7 83.8L98.2 17.5l-9.5-5.9 11.1.2z"/><circle r="1" fill="#566547" transform="matrix(3.8961 -3.15532 14.06191 17.36325 117.2 40.6)"/><path fill="#8cb4b8" d="M168.1 90.7l-10.6 18.2-12.3-25.5 15.1-5.6z"/><path fill="#18262f" d="M16.4 87.8l3 6.3-21.8 10.1-3-6.3z"/><path fill="#37432d" d="M150.7 105.8l11.3 3.3-49.9 37.5 51.2 26.7z"/><path fill="#f3efda" d="M81 195h69v9H81z"/><circle r="1" fill="#98b5b7" transform="matrix(51.09406 -19.61317 6.71518 17.49364 23.8 153.8)"/><path fill="#97b7b9" d="M8.8 58.8l79.3 28.1 37.7 4.5-61-39.5z"/><path fill="#f2eddf" d="M256 56l6-56-21 29z"/><path fill="#f4f0e4" d="M199 42L67-16l86 80z"/><path fill="#efecdb" d="M113 160l17 52-146-32z"/><path fill="#48615c" d="M243.5 19.6l-45.8 16.1 27 12.4 15.4 2.3z"/><path fill="#223335" d="M125.6 101.1l-47.2-4.3 9.6 9.9 24.9-18.3z"/><path fill="#e9e9dd" d="M242.7 16.2L231.9-16h10.9l-5.1 32.2z"/><path fill="#5998a0" d="M53.4 78.6l44.5 9.1L-16 78.1v18.7z"/><path fill="#70a1a8" d="M-10.5 141l-6.5-18 71.5-26 6.5 18z"/><path fill="#f3efe1" d="M185.8 80.4l-44.3-4.1-10-22.9L104 7.8z"/><path fill="#f2eedc" d="M163 152l-5-37 34-28z"/><path fill="#1b2523" d="M114 143l8 42 10-6z"/><path fill="#37432f" d="M153.7 105.3l7.2 26-3.9 36.6-49.4-80.5z"/><path fill="#eeedde" d="M83.3 121.5l9-17.8 24.6-.5L82.4 179z"/><path fill="#475738" d="M119.8 89.1l-3.5 41.6 15.4-80.2-18.3-5z"/><path fill="#f2eee0" d="M186-16l-38 89 54-6z"/><path fill="#fef8e4" d="M157 112h8v10h-8z"/><path fill="#659499" d="M76 126l-47-26h65z"/><path fill="#233835" d="M271 200.2L253.5 70.8l-44 11.7 22.6 48.2z"/><path fill="#77a5ad" d="M114 103l-16-6 10 8z"/><path fill="#5f7865" d="M90.4 14l-.6.8L69.6 0l.6-.9z"/><path fill="#45605b" d="M201 43l9-40-21-12z"/><ellipse cx="16" cy="151" fill="#94b2b3" rx="45" ry="24"/><circle r="1" fill="#f3efe4" transform="matrix(-22.61687 -10.63893 9.1395 -19.42928 80 35)"/><path fill="#6c9aa0" d="M162.1 111.9l-8.8-12.1L164 92l8.8 12.1z"/><path fill="#edebda" d="M108 124l-45 94 61-13z"/><path fill="#314044" d="M79 157h3v9h-3z"/></g></g></svg>