<svg xmlns="http://www.w3.org/2000/svg" viewBox="0 0 1400 933"><defs/><filter id="a"><feGaussianBlur stdDeviation="12"/></filter><rect width="100%" height="100%" fill="#545c34"/><g filter="url(#a)"><g fill-opacity=".5" transform="translate(2.7 2.7) scale(5.46875)"><circle cx="137" cy="51" r="183" fill="#fff"/><ellipse cx="97" cy="129" fill="#fff" rx="160" ry="167"/><circle r="1" fill="#1b545e" transform="matrix(-65.60822 56.83162 -8.75043 -10.10177 183.4 92.8)"/><circle r="1" transform="matrix(8.3205 -2.89328 16.96521 48.78856 232.3 19.2)"/><path fill="#000076" d="M30 69l37 60-23 12z"/><circle cx="136" r="81" fill="#fff"/><path fill="#031129" d="M19.5 29.8l43.6-15.4-44.7-7.2 52.7 50.9z"/><path d="M236.8 143.9l-17.8-6.2 11.3-11 40.7 25.8z"/><ellipse cx="92" cy="65" fill="#fff" rx="33" ry="112"/><path fill="#081100" d="M212 49.5l-13.1-7.2 28.8 47.5 9.9-7z"/><path fill="#020879" d="M13.6 63.1l4.2-48.5L29.1-2.3 6.8 23.1z"/><circle r="1" fill="#fff" transform="matrix(-27.03958 7.76391 -27.47137 -95.67527 12.7 124.6)"/><circle r="1" fill="#fffffa" transform="matrix(34.53484 -20.98865 15.86405 26.1028 182.6 142)"/><circle r="1" fill="#3c7883" transform="matrix(-10.91047 -7.67167 15.6231 -22.21881 130.8 146.6)"/><circle r="1" fill="#fff" transform="matrix(-5.93202 1.2215 -9.13069 -44.3417 245.7 11.8)"/><path d="M140 89l-2 10-15-20z"/><ellipse cx="191" cy="82" fill="#346b77" rx="25" ry="18"/><path fill="#fff" d="M206.5-16l7.2 82.3L172.4 54l65.3 2.7z"/><path fill="#454d9e" d="M41.6 121.6l5.6-31.2L7.7 40.9l17.8 34.9z"/><path fill="#fff" d="M62.4 96L8 51.8 25.6 30 80 74z"/><path fill="#001300" d="M43.2 32.1l-16.1-3.9 12.4 13.6 24.3 13.5z"/><ellipse cx="251" cy="108" fill="#fffff8" rx="52" ry="24"/><path fill="#00100c" d="M262.5 75.1l8.5 18.5-29.5-31.8L207.4-16z"/><circle r="1" fill="#fffef3" transform="matrix(-7.56531 -13.10351 33.00984 -19.05824 118 120.1)"/><path fill="#fff" d="M254.6 66l-23.5-94 24.3-6 23.5 94z"/><circle r="1" transform="matrix(-1.61227 -2.7813 15.71296 -9.10848 198.2 77)"/><path fill="#fff" d="M69.5 39.4L17.6 15.9l1.9 50.2 10.6-55z"/><circle r="1" fill="#fbfcf8" transform="matrix(5.682 -5.28503 24.64371 26.49482 232.1 61.8)"/><circle r="1" fill="#fffcf2" transform="rotate(107.2 57.7 166.5) scale(17.94263 28.62395)"/><path fill="#000601" d="M271 147l-40-5-7-15z"/><path fill="#001f1a" d="M236 45.7L214.6-20l11.4-3.7L247.4 42z"/><path fill="#0e2000" d="M201 43l26 20 6 25z"/><circle r="1" fill="#fff" transform="matrix(-44.55989 -12.61224 1.205 -4.25735 24 2)"/><circle r="1" fill="#fffcf1" transform="matrix(33.20756 21.9796 -17.8443 26.95979 78 169.2)"/><circle r="1" fill="#5c6b55" transform="matrix(.38155 -.92435 19.78955 8.16866 180.9 34.6)"/><path fill="#000382" d="M59.4 17.3l-45.7-4.1 9.4-6.4L46 21.4z"/><path fill="#fbf9ec" d="M83 161l87-177L45 84z"/><path fill="#12220b" d="M136.7 83.6l7 12.4-9.6 3-1.6 1.4z"/><path fill="#fff" d="M230.4 94.8l-5.2 2.9-13.6-24.5 5.2-2.9zm-128-69.9L26.8-16-9 63.8l-7-66.7z"/><path fill="#1a3412" d="M56.3 52.5l.2-1 41.2 8-.2 1z"/><path fill="#102100" d="M32.7 21.8l16.6 21.3-4 3L28.7 25z"/><ellipse cx="73" cy="30" fill="#fffffc" rx="28" ry="17"/><path fill="#fffff4" d="M145 112L130-16l51 62z"/><path fill="#000268" d="M19.2 19.4l-.9-10.9-5.9 6.6-.7 23.1z"/><path fill="#5a8a91" d="M167 81l-41 55 64-31z"/><path fill="#394b1b" d="M38 29l36 27-33-13z"/><circle r="1" fill="#618f95" transform="matrix(3.70849 12.75862 -15.92337 4.62837 129 148.4)"/><path fill="#f0eee3" d="M214.6 140.5l24.8-19.3L271 70.4l-75.4 33.3z"/><path fill="#f8f6ea" d="M149 125l32-14-40 71z"/><circle cx="255" cy="110" r="29" fill="#f0eee5"/><ellipse cx="14" cy="32" fill="#222a80" rx="3" ry="20"/><path fill="#000200" d="M191.2 35.7l14.3 13.9-.7.7-14.3-13.9z"/><path fill="#8eb0b6" d="M207.8 96.6l-35.1 20.5 25.8-33.4 18.3-8.2z"/><path fill="#040807" d="M143 122l8-9-4 16z"/><path fill="#fcf9ee" d="M0 3l44 161-60-11z"/><path fill="#fffff6" d="M122 81l19 34-21 24z"/><path fill="#021100" d="M137.8 83.9l3 9.6-8.6 2.6-3-9.6z"/><path fill="#fbf8f1" d="M232.7 52.2l-15.3 9.6L195-16l31.5 43z"/><path fill="#fffef5" d="M79.6 93.2L19.1 60.7l-2.8-23.3L23.4 24z"/><path fill="#3d4393" d="M46 89L17 56l30 67z"/><path fill="#171983" d="M55.6 15.2L25.1 8l21.8 14.7 5.8-1.7z"/><path fill="#000600" d="M238 85l-13-17-2 14z"/><path fill="#1e2c0e" d="M29.7 28.2l7.6-4.8 9 14.4-7.6 4.8z"/><path fill="#657059" d="M156.9 14l-18-20.5 40.5-9.5-34.2 12.1z"/><circle r="1" fill="#efede3" transform="matrix(-33.8009 1.06487 -.55876 -17.73609 219 158.2)"/><path fill="#80adb6" d="M209.2 62.9l-33.1 23.8-7-14.8 31.5-12.5z"/><path fill="#fff" d="M17 20l30 1-20-8z"/><path fill="#57634b" d="M98.7 59.9l45.1 35.3-14.6-7.3L102.9 61z"/><path fill="#1e3530" d="M205.2-16l28.7 49.2L241-16 226.2 2.9z"/><path fill="#000100" d="M229 129l15 8-24 1z"/><path fill="#224746" d="M245 45.8L211.6 71l-.6-.8L244.5 45z"/><path fill="#fdfaf2" d="M3.1-10L91-16l116.4 68.8 8 12.7z"/><path fill="#172a22" d="M248.3 71.4l-19.2-32.7 18.7 4.7 10.3 34.5z"/><circle r="1" fill="#f9f7ef" transform="matrix(14.8687 28.04426 -15.47226 8.2032 59.4 79.9)"/><circle cx="186" cy="3" r="29" fill="#fefcef"/><path fill="#0a211c" d="M278 147.2l-2.5 7.6-49.5-16 2.5-7.6z"/><path fill="#081714" d="M169 84h22v3h-22z"/><path fill="#254e4f" d="M157 123.4l43-52.7-20.6 20.4-16.5 16.7z"/><path fill="#f6f7ed" d="M238 87l-6-40 18 25z"/><path fill="#86aaae" d="M176.8 83.3l-33.9 59.3 10.4-28-.2-11.7z"/><path fill="#00005b" d="M12.2 18.6l-1.4 13-1-.2 1.4-13z"/><path fill="#546b4f" d="M80 57l-10-2 3 3z"/><path fill="#fbf8f8" d="M-16-4.5v114.7l27.9-95.7L40.8-6.7z"/><path fill="#779ea2" d="M129.9 129.9l-12.1 23.6-2.7 28.3 37.4-73.9z"/><circle r="1" fill="#f6f4ea" transform="rotate(97.6 16.5 98.2) scale(12.8022 16.59352)"/><path fill="#fcfaf2" d="M73 8h30v48H73z"/><path fill="#f6f5ee" d="M69.7 53.4L29.8 18.3l157.1 51.3L43.3 35z"/><path fill="#f3f4ee" d="M233-16l38 135V7z"/><path fill="#1e267a" d="M9 23v14L24 7z"/><path fill="#010f03" d="M26 25h12v4H26z"/><path fill="#59868d" d="M114 142h10v24h-10z"/><path fill="#f9f5e7" d="M229.6 90.6l-4 3.1-13.2-16.3 4-3.1z"/><path fill="#f1efe4" d="M158.6 121.5l-30.8 62.8 100-53.6 4.6-41.1z"/><path fill="#46797d" d="M133 149l4.6-13.2 9.4 3.2-4.6 13.2z"/><path fill="#303483" d="M13 22l-3 16 7 16z"/><path fill="#609096" d="M221.2 60.7L239.8 48 227 64.8l-8.8-2.5z"/><circle r="1" fill="#f9f8f1" transform="rotate(-52.8 173.6 -98.5) scale(27.65161 5.96651)"/><path fill="#4f5d3f" d="M49.5 42.9L37.8 25.2l6.7 21.7L83.2 61z"/><path fill="#3a459e" d="M38 94l10-2 6 15z"/></g></g></svg>