<svg xmlns="http://www.w3.org/2000/svg" viewBox="0 0 1387 1400"><defs/><filter id="prefix__a"><feGaussianBlur stdDeviation="12"/></filter><rect width="100%" height="100%" fill="#444"/><g filter="url(#prefix__a)"><g transform="translate(2.7 2.7) scale(5.46875)"><path fill="#fff" fill-opacity=".5" d="M252 271L20 3l232-2z"/><circle r="1" fill="#eee" fill-opacity=".5" transform="matrix(-19.23705 -12.34996 61.65347 -96.03515 66.6 71.5)"/><ellipse cx="225" cy="216" fill="#ececec" fill-opacity=".5" rx="50" ry="217"/><circle r="1" fill="#050505" fill-opacity=".5" transform="matrix(51.73681 -50.71637 32.29145 32.94117 131 147.6)"/><ellipse cx="141" cy="20" fill="#fff" fill-opacity=".5" rx="83" ry="19"/><path fill="#fff" fill-opacity=".5" d="M77 271l-25-28 10-66z"/><path fill="#afafaf" fill-opacity=".5" d="M3 32l1 105 152-91z"/><path fill="#fff" fill-opacity=".5" d="M138.4 117.7l-15.2-57 16.4-4.4 15.2 57z"/><circle r="1" fill="silver" fill-opacity=".5" transform="matrix(-19.66766 13.06694 -33.51509 -50.44512 193 228.3)"/><circle cx="99" cy="115" r="35" fill="#020202" fill-opacity=".5"/><circle r="1" fill="#323232" fill-opacity=".5" transform="matrix(-13.99101 .6598 -3.38064 -71.68628 40.2 17.7)"/><ellipse cx="34" cy="212" fill-opacity=".5" rx="17" ry="58"/><path fill="#fff" fill-opacity=".5" d="M62 2h23v90H62z"/><path fill-opacity=".5" d="M81.2 153.5l9.5-109.6 20.5-.8-58.3 106.8z"/><path fill="#cacaca" fill-opacity=".5" d="M52 161h19v93H52z"/><circle r="1" fill-opacity=".5" transform="matrix(-15.92787 -73.14843 13.48201 -2.93567 117.5 214.8)"/><path fill="#e2e2e2" fill-opacity=".5" d="M129 198l14-78-18 37z"/><ellipse cx="101" cy="251" fill="#fff" fill-opacity=".5" rx="8" ry="27"/><circle r="1" fill="#b5b5b5" fill-opacity=".5" transform="matrix(6.19714 .2047 -1.49181 45.16466 8.5 192.6)"/><circle r="1" fill="#666" fill-opacity=".5" transform="matrix(-.60653 -74.77944 21.02788 -.17055 178.9 146.2)"/><path fill="#949494" fill-opacity=".5" d="M4 58h54v99H4z"/><circle r="1" fill="#010101" fill-opacity=".5" transform="matrix(6.09431 2.59904 -22.47987 52.71156 159.3 114.3)"/><path fill="#ebebeb" fill-opacity=".5" d="M213.3 0l28.5 90.3-26.1 48.8L163.8 7.4z"/><ellipse cx="83" cy="214" fill-opacity=".5" rx="13" ry="65"/><ellipse cx="204" cy="255" fill-opacity=".5" rx="152" ry="2"/><path fill="#fff" fill-opacity=".5" d="M110.6 93.5l1.5 18.7-14.3-24.7 14-16.2z"/><path fill="#262626" fill-opacity=".5" d="M147 39l23-5-27 35z"/><path fill="#060606" fill-opacity=".5" d="M114.8 92.9l2.4-46.9 5.7 22.9-.1 17.6z"/><path fill="#fff" fill-opacity=".5" d="M159 4l-30 80-15-50z"/><path fill-opacity=".5" d="M27 120.1l-9-.3 1-32 9 .4z"/><circle r="1" fill="#e5e5e5" fill-opacity=".5" transform="rotate(-22.3 699 -404.3) scale(35.87088 15.09008)"/><path fill="#f3f3f3" fill-opacity=".5" d="M29.8 29.3L20.9 31l.4 57.8L27.9 57z"/><path fill="#151515" fill-opacity=".5" d="M-1.8 20.2L69.7 15 19.4 32.7l-.2 41.9z"/><ellipse cx="253" cy="70" fill-opacity=".5" rx="1" ry="182"/><circle r="1" fill="#bbb" fill-opacity=".5" transform="matrix(-3.4476 .53536 -6.6458 -42.79768 135.5 211.6)"/><circle cx="178" cy="57" r="7" fill-opacity=".5"/><path fill="#cfcfcf" fill-opacity=".5" d="M133 160l4-81 21 8z"/><path fill="#0d0d0d" fill-opacity=".5" d="M65.9 197.8l68.4-104.1-3 54.3-11.9 80.3z"/><path fill="#dadada" fill-opacity=".5" d="M6 10l-8-9h41z"/><ellipse cx="164" cy="64" fill="#dadada" fill-opacity=".5" rx="11" ry="21"/><path fill="#131313" fill-opacity=".5" d="M135.5 226.3l16.9-133.5-7.2-50.8 16.7 54.8z"/><path fill="#eee" fill-opacity=".5" d="M82 82l18.5-56.9-40.6 23.6.5 61.5z"/><path fill-opacity=".5" d="M146 1L90-16 29 1z"/><ellipse cx="6" cy="125" fill="#b5b5b5" fill-opacity=".5" rx="4" ry="88"/><path fill="#131313" fill-opacity=".5" d="M113 47l9 27-24-31z"/><path fill="#a1a1a1" fill-opacity=".5" d="M184 100h22v123h-22z"/><path fill="#bcbcbc" fill-opacity=".5" d="M60 181l20-31-20 5z"/><path fill="#0b0b0b" fill-opacity=".5" d="M20 157h31v69H20z"/><path fill-opacity=".5" d="M174 110h7v48h-7z"/><ellipse cx="41" cy="125" fill="#909090" fill-opacity=".5" rx="17" ry="44"/><ellipse cy="133" fill-opacity=".5" rx="3" ry="173"/><path fill="#242424" fill-opacity=".5" d="M157.3 34.8l-15.9 14.5 30.3-10.5 12.4 30z"/><path fill="#fcfcfc" fill-opacity=".5" d="M238 177h14v71h-14z"/><path fill="#d7d7d7" fill-opacity=".5" d="M60 2h192v35H60z"/><path fill="#e3e3e3" fill-opacity=".5" d="M183 86l5-83 45 121z"/><path fill="#171717" fill-opacity=".5" d="M93 48l6 46-12-29z"/><circle r="1" fill="#757575" fill-opacity=".5" transform="matrix(.66867 -32.12398 5.35007 .11136 55.5 225.7)"/><circle r="1" fill="#030303" fill-opacity=".5" transform="matrix(-10.7409 -2.62243 7.44277 -30.48397 71.2 125.6)"/><path fill="#131313" fill-opacity=".5" d="M51 29l4-20-71 20z"/><path fill="#161616" fill-opacity=".5" d="M142 271l22-68-21-6z"/><path fill="#141414" fill-opacity=".5" d="M76 94l53 69-61 45z"/><path fill-opacity=".5" d="M0 255h254v1H0z"/><path fill="#e3e3e3" fill-opacity=".5" d="M147.5 5.9L93.9 73.8l3.5-18.3 44.6-4.6z"/><path fill-opacity=".5" d="M108.8 209.6l22.8-2.8 7.6 61.6-22.8 2.8z"/><path fill="#818181" fill-opacity=".5" d="M6 144h13v84H6z"/><path fill="#e9e9e9" fill-opacity=".5" d="M64.3 100.5L84.5 40l3.3 48.6-7.3 3.9z"/><path fill="#d9d9d9" fill-opacity=".5" d="M62 173h7v75h-7z"/><path fill="#434343" fill-opacity=".5" d="M142.6 78.5l5.4-12.4 5.7 13.4 30.5 16.6z"/><path fill="#a6a6a6" fill-opacity=".5" d="M2 53h14v93H2z"/><circle r="1" fill="#707070" fill-opacity=".5" transform="rotate(-85.9 165 -6) scale(51.43445 5.30643)"/><path fill="#f4f4f4" fill-opacity=".5" d="M26 155l-8-5 8-26z"/><circle r="1" fill="#9f9f9f" fill-opacity=".5" transform="rotate(109.6 -23 77.8) scale(29.76264 17.2281)"/><path fill="none" stroke="#000" stroke-opacity=".5" stroke-width=".5" d="M130.3-3Q151 .5 228.8-1.4"/><circle r="1" fill="#fefefe" fill-opacity=".5" transform="matrix(2.40814 -.88754 4.58918 12.4517 108.6 99.9)"/><ellipse cx="253" cy="93" fill-opacity=".5" rx="1" ry="158"/><path fill="#d9d9d9" fill-opacity=".5" d="M124 62v27l38 3z"/><path fill="#686868" fill-opacity=".5" d="M53.9 34.1l-22-8.4-7.3 75.7 27.9-6.7z"/><path fill="#eaeaea" fill-opacity=".5" d="M164 35.5L67.6 46.2l96.7-42.8 33.6 54.8z"/><path fill="#ededed" fill-opacity=".5" d="M100.8 226.6l-4.3-10 2.7-1.2 4.3 10z"/><path fill="#080808" fill-opacity=".5" d="M136 105l-24-27 13 101z"/><path fill="#9e9e9e" fill-opacity=".5" d="M217 214.1l-44.4-49.2-8.6 31.6 3.9 36.5z"/><path fill="#999" fill-opacity=".5" d="M125.8 182.2l5.4 28.5 8.3-14.4-13-29z"/><path fill="#d2d2d2" fill-opacity=".5" d="M162 253l76-60 10 59z"/><circle r="1" fill="#979797" fill-opacity=".5" transform="rotate(-174 41.9 73.5) scale(3.10447 5.0751)"/><path fill="#e9e9e9" fill-opacity=".5" d="M132 6L98 29l48 45z"/><path fill="#d0d0d0" fill-opacity=".5" d="M151.6 45l15-1 1.8 25-15 1z"/><path fill="#242424" fill-opacity=".5" d="M16 159l33-7-4 29z"/><path fill="#666" fill-opacity=".5" d="M159 232h16v22h-16z"/><path fill="#313131" fill-opacity=".5" d="M252 4h1v66h-1z"/><path fill="#4d4d4d" fill-opacity=".5" d="M142 52l3 11 19-4z"/><ellipse cx="163" cy="101" fill="#1d1d1d" fill-opacity=".5" rx="11" ry="15"/><path fill="#101010" fill-opacity=".5" d="M172.2 84.7l6.8-27.1 6.8 1.7-6.8 27.1z"/><path fill="#7f7f7f" fill-opacity=".5" d="M3 196l1 54 13-13z"/><path fill="#bebebe" fill-opacity=".5" d="M97 240l5-20 14 41z"/><path fill="#050505" fill-opacity=".5" d="M154 169l-13 50-6-51z"/><path fill="#e1e1e1" fill-opacity=".5" d="M108.2 87.6l-1.7-27.9-11.7-2.1 22.6 14.2z"/><path fill="#040404" fill-opacity=".5" d="M23.1 260.5l-21.6 3.8-2.6-14.8 21.6-3.8z"/><path fill="#c2c2c2" fill-opacity=".5" d="M114.6 84.9l40.4-.7-24.1 61.8 7.2-47.1z"/><path fill="#070707" fill-opacity=".5" d="M57 140h18v16H57z"/><path fill="#858585" fill-opacity=".5" d="M54 2h9v24h-9z"/></g></g></svg>