<svg xmlns="http://www.w3.org/2000/svg" viewBox="0 0 1400 934"><defs/><filter id="a"><feGaussianBlur stdDeviation="12"/></filter><rect width="100%" height="100%" fill="#4a3d49"/><g filter="url(#a)"><g fill-opacity=".5" transform="translate(2.7 2.7) scale(5.46875)"><circle cx="187" cy="93" r="220" fill="#ffffe7"/><circle r="1" fill="#ffffde" transform="matrix(70.01424 -138.60464 23.96505 12.10562 224.3 88.5)"/><ellipse cx="11" cy="135" fill="#5c3533" rx="110" ry="24"/><circle r="1" fill="#fff7d0" transform="matrix(-.31641 -76.34702 38.70336 -.1604 50.7 0)"/><ellipse cx="144" cy="169" fill="#fff" rx="255" ry="10"/><ellipse cx="147" cy="34" fill="#471c21" rx="26" ry="25"/><ellipse cx="125" cy="3" fill="#fff" rx="255" ry="7"/><circle r="1" fill="#341b28" transform="matrix(30.0836 -26.02418 6.43465 7.43837 249 129.4)"/><circle r="1" fill="#846249" transform="rotate(-62 154 -121.5) scale(14.00374 49.44221)"/><ellipse cx="9" cy="84" fill="#76444a" rx="14" ry="75"/><path fill="#080902" d="M86 113h15v47H86z"/><circle r="1" fill="#ece3d0" transform="matrix(-5.35455 11.69095 -28.36474 -12.99128 127.7 139.2)"/><path fill="#280d00" d="M162.1 113.9l8.6 44.1-10.8 2.1-8.6-44.1z"/><path fill="#ffffe3" d="M58 108.7l1 28-15 .6-1-28z"/><path fill="#c97a4f" d="M206 10h50v28h-50z"/><path fill="#a3745d" d="M159 35L59 123 93 8z"/><ellipse cx="95" cy="165" fill="#fff" rx="255" ry="6"/><circle r="1" fill="#001023" transform="matrix(-4.64527 4.66151 -9.13622 -9.10439 186 54.4)"/><ellipse cx="129" cy="2" fill="#fff" rx="255" ry="8"/><ellipse cx="238" cy="104" fill="#fcfafe" rx="87" ry="7"/><ellipse cx="250" cy="60" fill="#fdf1e6" rx="53" ry="20"/><path fill="#40263a" d="M0 151h83v9H0z"/><path fill="#f8dec4" d="M170 20h40v21h-40z"/><ellipse cx="33" cy="138" fill="#e7c894" rx="9" ry="18"/><path fill="#3d223b" d="M83.5 108.5h-31v-11h31z"/><path fill="#e2be9e" d="M13 60l107-41-84 81z"/><ellipse cx="171" cy="64" fill="#fff" rx="2" ry="156"/><ellipse cx="85" cy="122" fill="#f0f9fe" rx="2" ry="107"/><ellipse cx="51" cy="110" fill="#fff" rx="221" ry="1"/><ellipse cx="108" cy="114" fill="#3a2723" rx="50" ry="3"/><path fill="#6f5d62" d="M100.2 60.1l57.4 3.8-73.3 23 3.1-86z"/><path fill="#705028" d="M172 70h11v37h-11z"/><ellipse cx="126" cy="59" fill="#fffefe" rx="52" ry="2"/><path fill="#4c3947" d="M144 11h26v48h-26z"/><path fill="#ffc37a" d="M103.4 59.8L95.9 38l22.7-7.8 7.5 21.8z"/><path fill="#9b3457" d="M35 75.7l-4.6 23.5L-5 92.3l4.6-23.5z"/><path fill="#5b6256" d="M135.8 110.3l3.8 3.2-35.4 42.2-3.8-3.2z"/><ellipse cx="195" cy="83" fill="#e8cbaa" rx="10" ry="23"/><path fill="#fff0d5" d="M208 152l38-38-76 11z"/><path fill="#c1794f" d="M173.7 47.8l3.6-13.2 17.4-15.4-23.1-13.8z"/><path fill="#cfa988" d="M15 10h19v70H15z"/><circle r="1" fill="#9e6c58" transform="matrix(8.86312 5.3255 -12.11407 20.1612 155.3 87)"/><path fill="#af563c" d="M123.2 20.9l3.1-8.9-40.9-2.6 2.1 18z"/><path fill="#4b3a46" d="M218.4 152.2l27-30.7v26l4.9 13.4z"/><ellipse cx="160" cy="167" fill="#fff" rx="243" ry="8"/><path fill="#ffefc6" d="M246 133l19 1-1 17-19-1z"/><path fill="#4a2e20" d="M209 13h12v16h-12z"/><ellipse cx="111" fill="#fff" rx="255" ry="10"/><path fill="#faf4cf" d="M0 99h34v4H0z"/><path fill="#403340" d="M38 112h9v19h-9z"/><path fill="#bc977f" d="M174.8 29.3l.4 12-40 1.4-.4-12z"/><circle r="1" fill="#916445" transform="matrix(3.62698 -4.84828 17.7126 13.25072 211.1 81.6)"/><ellipse cx="207" cy="115" fill="#e3c280" rx="47" ry="5"/><circle r="1" fill="#fff7e9" transform="rotate(90.6 -3.8 140) scale(10.90414 9.94367)"/><path fill="#2e3e77" d="M243.3 104.9l-38.7-4.8.1-1 38.7 4.8z"/><path fill="#fff5e6" d="M101.9 125.8l21.7.6-19.8 9.7 24.6 37.7z"/><path fill="#364747" d="M184.3 48.6l13.6-15-11.1 37.5-16.9-32.7z"/><path fill="#decaaa" d="M168 84l-5 38-10-42z"/><path fill="#030000" d="M85 159.5l1-49h1l-1 49z"/><circle r="1" fill="#466652" transform="matrix(.63366 -5.4766 26.63615 3.0819 2.8 51.5)"/><path fill="#fff" d="M84 0h2v110h-2z"/><path fill="#f4f3d9" d="M14.2 60.9l28.5-9.3 3.1 9.5-28.5 9.3z"/><path fill="#fff" d="M222 43h21v29h-21z"/><path fill="#fffaef" d="M145 109v20l11 15z"/><path fill="#7d504a" d="M13 11l19 15-28 3z"/><path fill="#9b693a" d="M225.6 44.8l-21 .4-.2-8 21-.4z"/><path fill="#34170f" d="M138 123h5v12h-5z"/><path fill="#d3b18e" d="M116 66h26v36h-26z"/><path fill="#f7fbfe" d="M206.8 109.1l-28.7-16.9 8.6-1 62.5 19.1z"/><path fill="#e2d4c6" d="M138.5 121.5l-11.9.3-27.7.2.6-9z"/><path fill="#e9ddb7" d="M169.2 68.3l.6-19 9 .4-.6 19z"/><path fill="#432330" d="M86 47h14v12H86z"/><path fill="#53434a" d="M68 158l16-48-53 49z"/><path fill="#d9a576" d="M96.7 48.3L83.4 29 132 12.4l-27.3 46.9z"/><path fill="#47203b" d="M-16 168l21-57 6 40z"/><ellipse cx="110" cy="152" rx="3" ry="4"/><path fill="#685448" d="M156 110l6 38-18-38z"/><path fill="#5a4b42" d="M141.8 159.9l-12.7-1.9 35.2-1.9 8.5 3.2z"/><path fill="#64586a" d="M92 104h46v5H92z"/><path fill="#ebede8" d="M184 22l-8 20 38-22z"/><path fill="#fff" d="M0 109h29v2H0z"/><path fill="#fff5d7" d="M230 155.9l-17.9 1.2-.2-3 18-1.2z"/><path fill="#31273a" d="M154 10h16v15h-16z"/><path fill="#c6b08c" d="M243 48h13v20h-13z"/><path fill="#cf7647" d="M192 20l-22-10h48z"/><path fill="#0e1636" d="M114 61h20v4h-20z"/><ellipse cy="92" fill="#2d5d86" rx="18" ry="7"/><path fill="#c19c74" d="M83.7 10.2l.6 15-20 .6-.6-15z"/><path fill="#c9bd9d" d="M221 47l-4 25-32-35z"/><path fill="#fcfbe3" d="M50 112h8v24h-8z"/><path fill="#253d4b" d="M176.1 46.3l8.4 20 18.7-10.6 2.2-3.1z"/><circle r="1" fill="#e0af8e" transform="matrix(-8.26538 -8.3937 12.86088 -12.66427 233.2 28)"/><ellipse cx="166" cy="151" fill="#32231f" rx="4" ry="9"/><path fill="#767289" d="M60 95l-10 14-9-38z"/><path fill="#5c4d5b" d="M73 79h11v27H73z"/><path fill="#685758" d="M149 67h21v13h-21z"/><path fill="#562b20" d="M121 147h5v8h-5z"/><ellipse cx="84" cy="131" fill="#fffffe" rx="1" ry="144"/><ellipse cx="253" cy="81" fill="#fff" rx="27" ry="4"/><ellipse cx="160" cy="3" fill="#fff" rx="255" ry="6"/></g></g></svg>