<svg xmlns="http://www.w3.org/2000/svg" viewBox="0 0 1400 928"><defs/><filter id="a"><feGaussianBlur stdDeviation="12"/></filter><rect width="100%" height="100%" fill="#33594d"/><g filter="url(#a)"><g fill-opacity=".5" transform="translate(2.7 2.7) scale(5.46875)"><circle r="1" fill="#fff" transform="rotate(-170.2 58.7 25.3) scale(192.8598 139.4899)"/><circle r="1" transform="rotate(-179.8 60.8 35.7) scale(55.55878 37.41771)"/><circle r="1" fill="#fff" transform="matrix(-40.57157 1.79951 -3.29799 -74.35603 28.1 62.6)"/><ellipse cx="219" cy="34" fill="#fff" rx="50" ry="90"/><ellipse cx="162" cy="12" fill="#fff" rx="153" ry="25"/><ellipse cx="154" cy="71" rx="21" ry="36"/><circle r="1" fill="#170005" transform="matrix(6.86598 -18.3684 26.99927 10.09214 93.3 54)"/><path fill="#130728" d="M68 58h62v50H68z"/><path fill="#fff" d="M48 109l81 21 70-24z"/><ellipse cx="69" cy="168" fill="#007d69" rx="53" ry="17"/><path fill="#513427" d="M161.3 127.3l59.9-3.1 48.5 5.7-28.2 16.2z"/><circle r="1" fill="#fff6ff" transform="matrix(17.7383 61.9756 -34.32256 9.8236 29.8 71.7)"/><path fill="#520000" d="M27 133h35v15H27z"/><path fill="#100725" d="M102 39h71v68h-71z"/><path fill="#fffead" d="M91.6 79.9L72.5 54.6l18.1 41.9 9.8-8.5z"/><circle r="1" fill="#fffda2" transform="matrix(-8.6236 -13.44786 3.07525 -1.97204 114.7 62.3)"/><path fill="#00008f" d="M100 121l.8 9-32.8 3-.8-9z"/><ellipse cx="183" cy="68" fill="#fff8fb" rx="11" ry="47"/><circle r="1" fill="#f9f1f1" transform="matrix(1.49554 -19.00268 107.36123 8.44951 105 16.1)"/><path fill="#dfdceb" d="M156.6 141.5l-20.5-46.9-15.2 14 7.9 55.4z"/><circle r="1" fill="#a43008" transform="matrix(18.81553 -5.928 2.17082 6.8902 102.8 140.9)"/><path fill="#d37a60" d="M237.9 113.1l-49.3 29.3v-.8l-34.5-28.5z"/><path d="M66 35h46v6H66z"/><path fill="#fff" d="M46 109h113v13H46z"/><path fill="#00001f" d="M92.5 108.8l-23-61.1L67.8 99l5.8 7.9z"/><path fill="#006a54" d="M128.4 162.5l-57-11.4L60.9 184l8.9-15.5z"/><circle cx="255" cy="48" r="67" fill="#e6dcdb"/><path fill="#d4c6a2" d="M161.5 119.6L123.7 73l.8-.6 37.8 46.6z"/><path fill="#fff7f7" d="M163 79l-2-12-8-9z"/><path fill="#b39f94" d="M69.3 47.7l3 8.9 10.4-10.5 18.6 16.6z"/><path fill="#004c2c" d="M229 125l-13 11 49-2z"/><path fill="#00000d" d="M154.3 106.8L151.8 79l20-1.7 2.4 27.9z"/><path fill="#000019" d="M121 38h51v24h-51z"/><path fill="#d8d3db" d="M0 105h69v30H0z"/><path fill="#f4f5f9" d="M12 29h55v75H12z"/><path fill="#78b1b0" d="M67.3 143.5l-.2-2.2-83.1 21.9L65.7 184z"/><path fill="#efd0b2" d="M89.3 75.1l9 .8-1.6 19-9-.8z"/><ellipse cx="31" cy="113" fill="#373c43" rx="1" ry="56"/><circle r="1" fill="#cdc4c0" transform="rotate(111.5 66.1 118.8) scale(26.02415 27.08504)"/><path fill="#857e92" d="M254 140l17 39-104-47z"/><path fill="#a14529" d="M176.2 116.1l-16.5-1.4 9.7 14.2 30.7 9.3z"/><circle r="1" fill="#dedbd9" transform="matrix(-53.68003 -37.85142 18.99207 -26.93414 10 12)"/><path fill="#08050e" d="M151.3 69.6l-73.5-37L66.5 63l1.8-31z"/><path fill="#ededeb" d="M116 35.1l3.2-46.9L186.1-7l-3.3 46.9z"/><ellipse cx="30" cy="80" fill="#29363d" rx="1" ry="20"/><path fill="#d2b177" d="M106.2 40.1l8.4 28.9 18.8 17.4-2.4-2.8z"/><path fill="#00008f" d="M93.8 121l10.6 9.3-38.2-2.2 21.1-6.8z"/><path d="M87 47l32-10-18 21z"/><path fill="#ffffa1" d="M79 41h11l3 5z"/><ellipse cx="130" cy="122" fill="#ece9f3" rx="34" ry="8"/><path fill="#04062a" d="M98 86h45v13H98z"/><path fill="#b5b3cd" d="M238 165l-94 19-43-38z"/><path fill="#000836" d="M69 95h40v13H69z"/><path fill="#ecebec" d="M173 49l54-20-51 84z"/><path fill="#f9fdff" d="M41 69h27v55H41z"/><ellipse cx="189" cy="150" fill="#817f95" rx="32" ry="9"/><path fill="#561b00" d="M31 135l32 8-38 2z"/><path fill="#cfc7d4" d="M72 130h27v11H72z"/><ellipse cx="84" cy="22" fill="#f2efef" rx="39" ry="12"/><path fill="#bdaa97" d="M7.8 117.7l68.6-6.2L-16 114l22.1 44.2z"/><path fill="#c76851" d="M76 139.8l16.3 4.7-2.2 7.7-16.4-4.7z"/><path fill="#c7c3d0" d="M154.2 144.9L144 95.4l26.4 39.4 10.7 6.9z"/><path fill="#e9c98e" d="M89.2 96.9l9.7-5-18.8-28.1 3.6 9.6z"/><circle r="1" fill="#b2bea1" transform="matrix(11.86628 -5.17168 1.17075 2.68625 132.3 104.8)"/><circle r="1" fill="#51928b" transform="matrix(7.56372 -13.20837 64.3421 36.84525 0 165.8)"/><path fill="#1f181b" d="M271.7 180l-.6.7-32.8-24.6.6-.8z"/><path fill="#4a5350" d="M219 83h2v65h-2z"/><ellipse cx="181" cy="117" fill="#333741" rx="1" ry="38"/><path fill="#985230" d="M107 147l20-20-49 18z"/><path fill="#191735" d="M170.4 107.3l4.5-11.3-40.8 10.7-2 1z"/><path fill="#f77e8f" d="M187 128h30v5h-30z"/><path fill="#0a051a" d="M119.2 53.5l53.7 29.2v21.5l-43.3-23.9z"/><path d="M68 34h4v36h-4z"/><path fill="#007360" d="M68 151h27v16H68z"/><path fill="#e1d0cf" d="M166 76l-8-13 1 7z"/><path fill="#b0bfc9" d="M36 159l37-15-43 4z"/><path fill="#d9c7ce" d="M98.9 60.8L78.3 48.5l5.3-1.6 7.8 12.5z"/><path fill="#001" d="M88 36h39v5H88z"/><path fill="#ad9f7d" d="M39.4 114.7l4.4 25.4-6.9-9.5-1.2-17.3z"/><path fill="#e6d0d7" d="M157.1 65.4l-8.9-8 .7-.8 8.9 8z"/><path fill="#4e867b" d="M238.6 114.2l24.2 6-3.4 13.6-24.2-6z"/><path fill="#000013" d="M90.4 75.1l1-.4L95.5 85l-1 .4z"/><path fill="#d6d8d8" d="M220 119l26-55-11 61z"/><path fill="#040515" d="M167 39h6v63h-6z"/><circle r="1" fill="#e0e0dc" transform="matrix(-7.74982 33.49315 -57.7228 -13.3562 223.1 18)"/><path fill="#a9acb0" d="M55.5 51.4l-18.6-3.8-8 16 13.2-17.3z"/><path fill="#050095" d="M75 122h18v9H75z"/><path fill="#836666" d="M205 79h2v67h-2z"/><path fill="#babed9" d="M14.8 154.4l-8.2-25.9 17 6.6 4.2 18.4z"/><circle r="1" fill="#02051b" transform="matrix(1.72553 -3.21094 26.2016 14.08052 99 72.7)"/><path fill="#fff" d="M98.5 131v22h-1v-22z"/><path fill="#52545a" d="M54 63l-3-9 4 6z"/><path fill="#f8f9ff" d="M80 120l-46-11-3-42z"/><path fill="#f9c45f" d="M75 40v14l-4-3z"/><path fill="#cab07a" d="M138.9 90.7l-9.4-7.1-25.3-28.9 14.7 9.7z"/><path fill="#b2643b" d="M163 113l17.8 2.1-1.7 14-17.9-2.2z"/><path fill="#0f0d28" d="M98 94l4-38 43 43z"/><path fill="#32313b" d="M195 94h1v66h-1z"/><circle r="1" fill="#e3a893" transform="matrix(-10.68037 -.07114 .03357 -5.03996 255 142.8)"/><circle r="1" fill="#d5cfd0" transform="matrix(-4.96935 76.33623 -5.96025 -.388 0 66.7)"/></g></g></svg>