<svg xmlns="http://www.w3.org/2000/svg" viewBox="0 0 1400 933"><defs/><filter id="a"><feGaussianBlur stdDeviation="12"/></filter><rect width="100%" height="100%" fill="#4f3d2f"/><g filter="url(#a)"><g fill-opacity=".5" transform="translate(2.7 2.7) scale(5.46875)"><circle r="1" fill="#fff" transform="rotate(115.2 17.5 84.5) scale(209.37375 153.05032)"/><ellipse cx="60" cy="71" fill="#262001" rx="252" ry="14"/><circle r="1" fill="#fff" transform="rotate(-176.5 95.2 3) scale(115.3173 27.09782)"/><circle r="1" fill="#f6ffee" transform="matrix(-1.16212 -32.7933 82.6137 -2.92764 201.1 119.2)"/><path fill="#090000" d="M156.9 88L84 140.9l-100 11.3 52.4-15.3z"/><circle r="1" fill="#f9f1e2" transform="matrix(-51.01359 12.54204 -4.36515 -17.75486 80.2 96.3)"/><ellipse cx="32" cy="40" fill="#fff" rx="65" ry="13"/><circle r="1" fill="#705933" transform="matrix(-2.7805 22.86312 -89.05286 -10.83016 145.8 169)"/><circle r="1" fill="#142209" transform="rotate(-111 40.2 26.8) scale(15.78009 43.13363)"/><circle r="1" fill="#fff" transform="rotate(97 96.6 91.5) scale(26.29332 86.21204)"/><ellipse cx="230" cy="126" fill="#366146" rx="34" ry="6"/><circle r="1" fill="#5f4521" transform="matrix(36.49333 3.09358 -1.68456 19.87188 0 138.3)"/><path fill="#d5ddd4" d="M197.6 45.2L122.8 43l87.9 39.7-18.4-50z"/><circle r="1" fill="#fef0d8" transform="matrix(-3.85835 7.16164 -57.5217 -30.9899 246.8 168)"/><path fill="#fff6eb" d="M135 104l105 6-157 33z"/><path d="M124 146l3-12 26 14z"/><path fill="#140400" d="M227 75h29v12h-29z"/><circle r="1" fill="#0c0900" transform="matrix(38.77747 -16.0338 2.34826 5.67922 94.3 120)"/><path fill="#d4b78e" d="M101.3 149.1l-48.8 15-5.8-19.2 48.8-15z"/><path fill="#4b463e" d="M133.5 74.4l-46.7 8.5 4-29.8 60.1 1.5z"/><path fill="#e3d7c8" d="M-3 111.8L175.7 72 56.4 131.7l12.1 15.4z"/><circle cx="9" cy="45" r="16" fill="#fcfffb"/><circle r="1" fill="#2e7b65" transform="matrix(1.26647 3.59705 -23.16332 8.15549 173.8 138.4)"/><path fill="#645d49" d="M248.1 134.9l1.8 50.1 15.3-51.5-32.8-27.6z"/><path fill="#867147" d="M15.3 112.2l-1.6-4.7 69-23.7 1.6 4.7z"/><circle r="1" fill="#ecece6" transform="rotate(-40.2 220.2 -168.9) scale(23.42686 14.18241)"/><path fill="#f7fff9" d="M199 55h57v7h-57z"/><path fill="#fdf0de" d="M234.6 161.3l-12.5-28.7-57.9 13.7 13.4 8.1z"/><path fill="ivory" d="M230.9 112l21.1 21-5 5-21.2-21.2z"/><circle r="1" fill="#565040" transform="matrix(36.03026 9.55722 -1.5977 6.02327 221.4 168.2)"/><path fill="#131507" d="M131.3 107.3l40.8-35.7-36.9 23.6-60.7 30.2z"/><path fill="#262d19" d="M24 55h59v18H24z"/><path fill="#28715e" d="M238.1 122.3l-48.9 7.3-3.7 4.7 15.3 1.3z"/><path fill="#846849" d="M35.3 154.8l21.3-39.3L70 147.2l-80.8-38.6z"/><path fill="#98d2de" d="M202 74h24v13h-24z"/><path fill="#564732" d="M119.2 142.5l-94.5 32.8 41.9 9.7 64.1-45.7z"/><path fill="#4198ad" d="M42.2 88.9l2 10.8L1.7 107l-2-10.8z"/><circle r="1" fill="#597b82" transform="matrix(2.89976 -9.84934 44.92703 13.22703 9.8 0)"/><ellipse cx="230" cy="146" fill="#262d1a" rx="7" ry="3"/><circle r="1" fill="#8ca5a6" transform="matrix(-57.40842 -36.61486 7.97776 -12.50833 77.3 15.8)"/><circle r="1" fill="#e8d0a3" transform="matrix(.3569 1.84189 -17.2864 3.34953 12 86)"/><ellipse cx="215" cy="68" fill="#633623" rx="44" ry="5"/><path fill="#ffe0b2" d="M132 170l-23-8-15 6z"/><path fill="#2b3f62" d="M131 127l11-22-2 15z"/><path fill="#fffff7" d="M157 50h31v10h-31z"/><path fill="#2d3d27" d="M34 49L-3 72l62-11z"/><path fill="#eef3ee" d="M46.7 56.6L32 35.1l23.2-15.7L70 40.9z"/><path fill="#fffff9" d="M-5.7 102.6l5.9 4.2-14.6 3.7 69.5 18.7z"/><path fill="#244a56" d="M107.6 46.3l19.4 3.2 44.2 16.1-50 6.9z"/><path fill="#342d24" d="M40.8 141.9L-16 129.5l9.6 10.5 15.6 7.2z"/><path fill="#fff8e7" d="M251 150l-22-21-22 6z"/><path fill="#564d32" d="M173.1 84.4l20.9 1.7 18.2-1.1-111.7-31z"/><path fill="#93afb2" d="M237.6 59.7L125.3 32.8l136 5.5 9.7 7.5z"/><path fill="#906649" d="M87 65l25.8-8 6.2 20-25.8 8z"/><circle r="1" fill="#eae4d7" transform="matrix(23.66683 3.28404 -3.70459 26.69752 165 111.1)"/><path fill="#fffff4" d="M89.1 75.4l-16.5 5.9-29.1 8.2 19.4 2.8z"/><path fill="#a28864" d="M-11.3 185l102.1-58.8-76.7 27.1-24.3-13.7z"/><path fill="#20341f" d="M266.6 144.6L236 117l3.3-3.7L270 141z"/><path fill="#423a2b" d="M229.8 170.2l-.7 3-117-31.4.8-3z"/><path fill="#4c666d" d="M142 104h13v5h-13z"/><path fill="#dfdfd8" d="M167 86h76v23h-76z"/><path fill="#b4c3be" d="M76.7 61.9l53.1-25.3L49.4 47l33.2 11.5z"/><path fill="#052008" d="M249.8 155.8l-28-10.7.4-1 28 10.8z"/><circle r="1" fill="#736050" transform="matrix(6.6666 .7772 -6.04368 51.84095 253.5 162)"/><circle r="1" fill="#a68659" transform="matrix(-24.90518 -8.1639 .92926 -2.83484 39.5 118.8)"/><circle r="1" fill="#ceb38d" transform="rotate(70.8 -96.1 105.3) scale(8.17242 43.33904)"/><path fill="#d2b691" d="M152 145l-23 19-9-5z"/><path fill="#fffffc" d="M112 140l-20-5 26-17z"/><path fill="#dbddde" d="M126 75l-56 46-42-12z"/><circle r="1" fill="#392919" transform="matrix(.52365 1.78583 -61.50517 18.03471 7.3 94.1)"/><path fill="#5e4a26" d="M160.5 66.8l-8.9 7.6L119 86.9l-2.8-2.8z"/><circle r="1" fill="#f7fbf9" transform="matrix(2.2702 -14.17329 51.26923 8.212 200.1 10)"/><path fill="#e7e5e7" d="M99 83l-4 28 49-22z"/><circle r="1" fill="#f5ead9" transform="matrix(-1.5106 -5.92632 46.01224 -11.72837 186.2 123)"/><path fill="#728286" d="M77.6 34.5l-17-18L127 36.6l50.4 6.3z"/><circle cx="180" cy="126" r="3" fill="#585a2c"/><path fill="#e4fafe" d="M6 151l-22-22v29z"/><path fill="#b09979" d="M200.1 82l-10.8 34.9 15.3-48.5-36.1.5z"/><path fill="#5e757d" d="M213.4 55.3l-31.6-16.1 3.9 10 39.2-3.5z"/><path fill="#d4b894" d="M28 134l-27-3 20-6z"/><path fill="#362a1f" d="M39 136.2l23.4 5.8-1.5 5.8-23.3-5.8z"/><path fill="#f0e2d2" d="M242.6 131.3l-42.2 4.8 47.1 13 8-33.9z"/><circle r="1" fill="#c69e69" transform="matrix(.77224 2.04936 -18.80492 7.08604 127.1 77.4)"/><path fill="#fff8f1" d="M48 122l-10 8-28-17z"/><path fill="#eef0ec" d="M17.2 32.9l15.9 18.7L71.9 24 32.7 34.5z"/><path fill="#7e7058" d="M44.8 81.1l28.1.7-37.8 7.3-12-15.1z"/><circle r="1" fill="#2a231a" transform="rotate(-117.9 118.4 43.8) scale(1 39.07004)"/><path d="M212 77h4v6h-4z"/><circle r="1" fill="#bdc4bf" transform="rotate(-156.4 46.7 -3.5) scale(61.5166 8.30847)"/><path fill="#357d6b" d="M178 137l-13 9-9-8z"/><ellipse cy="87" fill="#c8c1b5" rx="15" ry="4"/><path fill="#a1b8b7" d="M-21.5 18h71v14h-71z"/><path fill="#dce1d9" d="M182.1 64.9l-52.4-13.8 75.7 4.8L168 42.1z"/><path fill="#032810" d="M246 115l-6 3 13 12z"/><path fill="#040300" d="M123 140h15v7h-15z"/><path fill="#eee4d3" d="M248.6 166.1l-46.5-8.1-40.4-8.9 22.4-13z"/><path fill="#b39879" d="M187 160l-52 25h136z"/><ellipse cx="84" cy="141" fill="#a58a69" rx="25" ry="4"/><path fill="#cfd4cf" d="M257 32l-50-2 62 26z"/><path fill="#3b2c12" d="M121.5 61.7l23.4 4.5-23 10.9-9.9-17.5z"/></g></g></svg>