<svg xmlns="http://www.w3.org/2000/svg" viewBox="0 0 1400 933"><defs/><filter id="a"><feGaussianBlur stdDeviation="12"/></filter><rect width="100%" height="100%" fill="#43542c"/><g filter="url(#a)"><g fill-opacity=".5" transform="translate(2.7 2.7) scale(5.46875)"><circle cx="117" cy="78" r="179" fill="#fff"/><circle cx="119" cy="91" r="171" fill="#fff"/><path fill="#063f4c" d="M14 117l74-19 59-84z"/><path d="M17 90l17 71 21-3z"/><circle r="1" fill="#fff" transform="rotate(18 -385.2 494.4) scale(56.87549 113.38512)"/><circle r="1" fill="#fff" transform="rotate(-106.5 123.4 -79.5) scale(231.05015 37.50325)"/><circle r="1" fill="#00007a" transform="matrix(6.54704 -2.96987 13.47537 29.70628 202.4 67.2)"/><path fill="#2e382e" d="M226.9 134l-45.7 19.1 23.3-17.9-29.6-29.3z"/><ellipse cx="97" cy="9" fill="#fff" rx="253" ry="22"/><path d="M54 41.5l-16 4.6-9.2-4.3L7.6 25z"/><ellipse cx="4" cy="97" fill="#fff" rx="14" ry="157"/><path fill="#020900" d="M37.1 83.6l-5.6 3.8 43.3 47.2L40 83.7z"/><circle r="1" fill="#35717a" transform="matrix(10.46914 8.09311 -11.81486 15.28355 127.8 29.5)"/><path fill="#000054" d="M234.9 142.7l-13 10.2 5.6-26.8-2.8-26.9z"/><circle r="1" fill="#000c05" transform="matrix(6.59702 -2.58503 13.08322 33.3885 32 129.3)"/><ellipse cx="79" cy="27" fill="#fffffb" rx="34" ry="35"/><ellipse cx="157" cy="169" fill="#fff" rx="137" ry="19"/><path fill="#000800" d="M121 70l-5 12 19 8z"/><path fill="#000046" d="M217.8 155.6l8.9-4.8-21.3-6.2-16.2-.3z"/><path fill="#fff" d="M-16 173L3 58l38 120z"/><ellipse cx="26" cy="65" fill="#fff" rx="42" ry="19"/><path fill="#fff" d="M162.6 59.5l63.2 86.9-1-32 4.1-3.8z"/><path fill="#fffff8" d="M64 185l-26-65 158 3z"/><path d="M217 131l-29-16 24 25z"/><ellipse cx="249" cy="98" fill="#fff" rx="17" ry="165"/><path fill="#001d1b" d="M86.9 74l-46.4 33.3 31.6-13.8 30.8-34.6z"/><path fill="#fff" d="M4.9-16L-16 62.7l71.1 65.9-29.6-58z"/><circle r="1" fill="#fffef4" transform="matrix(20.8664 -154.81939 22.33256 3.00996 163.7 32.8)"/><circle r="1" transform="matrix(11.02358 1.61136 -.49152 3.36255 28.7 37)"/><path fill="#505499" d="M195 70.8l-14-28.5 21.3-5.5 11.9 50.5z"/><path fill="#000053" d="M234 132l-5-18-3 39z"/><path fill="#011d19" d="M32 148h18v13H32z"/><path fill="#fffdf4" d="M166.3 185l37.1-56.4-76.1-30.9-75.1 7.7z"/><path fill="#2c3a1c" d="M47 101.2L81.3 134l-36.9-27.9-6-27.8z"/><path fill="#fffffe" d="M166.8 53.2l43.5-22.4L88.7 1.1 228.3-16z"/><path fill="#578790" d="M68.5 68.5l42-18.3-42.8 42.9-19.3-7.4z"/><path fill="#fff" d="M164 143.4l94.6 16.6-4.7 26.6-94.5-16.6z"/><path fill="#102621" d="M53 159l-20-3-1-47z"/><path fill="#fff" d="M181 132l38 14-23-20z"/><path d="M39.1 82l8.4 10-4.6 4-8.4-10z"/><path fill="#494d92" d="M215.3 84.2L200 60.6l11.8 36.1 15.7 12.4z"/><path d="M27 35l20 4-7 8z"/><ellipse cx="72" cy="2" fill="#fff" rx="255" ry="9"/><path fill="#5f6e53" d="M198.5 119.9l-47.3-12.2 18.7 1.1 22.4 4.4z"/><path fill="#fffef3" d="M161.5 80l64.8 34.2-1.8 37.1-4.8-15.8z"/><ellipse cx="51" cy="77" fill="#f4f1e7" rx="5" ry="21"/><path fill="#828c7c" d="M78.3 125.4l-19.9-5.7 34.9 16.7 5 .6z"/><circle r="1" fill="#60888e" transform="matrix(-13.20656 21.01706 -7.93826 -4.98819 123.2 36.2)"/><path fill="#faf8f1" d="M134 164L29 101l32 71z"/><path fill="#181a6a" d="M216.1 151.6l-24-4.1.4-7.3 35.5 10.3z"/><path fill="#2b403b" d="M75.7 88.3l-48.2 32.5 15-16.7-2-2.2z"/><path fill="#f3efe3" d="M46 12h63v42H46z"/><path fill="#fff" d="M13 161h243v9H13z"/><path fill="#122002" d="M134 89l-12-16-7 5z"/><path fill="#f9f7ef" d="M98.7 91.8l11.5-26.1 57.1 105.4-106.8-56.6z"/><circle r="1" fill="#f8f6eb" transform="rotate(-69.9 116.2 -72) scale(26.94716 22.87311)"/><path fill="#fffef9" d="M205 54l54 131-2-180z"/><path fill="#011115" d="M75 83L63 99l21-16z"/><path fill="#689099" d="M47.1 84.4L99.4 92l-32 18.3 10.5-37.1z"/><path fill="#1a2b25" d="M14.5 91.6l10.8 10.2 16.1 21.9L29.8 135z"/><circle r="1" fill="#fff" transform="matrix(-1.68804 74.38552 -15.6614 -.3554 1.4 103.7)"/><path d="M113 54l1-9-7 13z"/><path fill="#f9f7ed" d="M182.3 48.1l30 49.6-60.4 27.4 23-14.1z"/><path fill="#22360c" d="M209.1 134.3l-2.4 1.8-13.8-18.4 2.4-1.8z"/><path fill="#717664" d="M99.8 143l.8-.6 13.6 18.6-.8.6z"/><path fill="#1c2c08" d="M207.6 123.8l-1 1.8-22.2-11.4 1-1.8z"/><path fill="#565b9b" d="M184 47l38 59-18-62z"/><circle r="1" fill="#f4f2ea" transform="matrix(-33.20127 -55.69565 .92398 -.5508 37.5 118.1)"/><path fill="#f6f4e9" d="M218 25L167 3l-64 78z"/><path fill="#7098a2" d="M70 106l-18-3 41-17z"/><path fill="#fffffa" d="M48.7 87.8l5.9 8-3.3 2.4-5.9-8z"/><path fill="#000a04" d="M16.2 34.5l1.7-3.6 10 4.6-1.8 3.6z"/><path fill="#fffcf7" d="M39.1 36L-16 20l.2-4.2L63.1-16z"/><path fill="#f1ede0" d="M240 12l1 85-54-88z"/><path fill="#fff" d="M218.4 160.9l52.6-10.2-12.9-68.5-27.4 64.3z"/><circle r="1" fill="#fefcf0" transform="matrix(4.1466 -1.66364 3.19385 7.96065 127.1 93.8)"/><path fill="#000a00" d="M122 86l2-14-5 6z"/><circle r="1" fill="#faf9ef" transform="rotate(-96.2 152 -16) scale(13.24646 15.90561)"/><circle r="1" fill="#f7f3e9" transform="rotate(-174.8 32.5 24.7) scale(23.55616 12.68294)"/><ellipse cx="168" cy="136" fill="#f9f7ef" rx="24" ry="26"/><path fill="#f4f3ea" d="M60.7 166.3l57.3-18.7-49.6-18.4-25.5-26.6z"/><path fill="#769ca1" d="M96.3 83.7L138.7 8l4.4 25.5-9.2 4.2z"/><path fill="#fff" d="M0 155h33v15H0z"/><path fill="#112122" d="M56.5 100.4l23-18.4 9.5 3.7 1.3-2.5z"/><path fill="#73949c" d="M58 91l-9-8 39-23z"/><path fill="#0b221b" d="M15.6 35.8l32.9 3.4-.1 1-32.9-3.4z"/><path d="M48 158h5v3h-5z"/><path fill="#b0b6a9" d="M134.8 91l23.6 18.4-1.2 1.6-23.6-18.4z"/><path fill="#212f12" d="M80 128.8l-20.5-9.6-23.1-28.5 36.9 36.6z"/><path fill="#fff" d="M0 0h17v170H0z"/><path fill="#2a3e20" d="M186.3 116.4l-15-8 .4-.8 15 8z"/><path fill="#46447f" d="M186.4 44.2l10.9-7.5 2.2 7.2-17.3 4z"/><path fill="#f4eee3" d="M17.8 38.5l58.3 27.6-33.2 17.2-26.3 3.8z"/><path fill="#323f23" d="M57.5 113.1L45 88.1l-9.6 1.1 9.7 16.9z"/><path fill="#fff" d="M222.4 146l-.4 1-30.4-13 .4-1z"/><circle r="1" fill="#5a5c93" transform="rotate(-116.5 132.6 -23.6) scale(45.16725 1)"/><path fill="#47797d" d="M118 21l8-1-14 24z"/><path fill="#202767" d="M234.5 135.7L231 144l-7.6 9.8-5.5-.5z"/><path fill="#f1efe6" d="M94 57l35-52L17 23z"/><path fill="#f7f7ee" d="M72 122l41-48 54 91z"/></g></g></svg>