<svg xmlns="http://www.w3.org/2000/svg" viewBox="0 0 1400 933"><defs/><filter id="a"><feGaussianBlur stdDeviation="12"/></filter><rect width="100%" height="100%" fill="#485842"/><g filter="url(#a)"><g fill-opacity=".5" transform="translate(2.7 2.7) scale(5.46875)"><circle r="1" fill="#fff" transform="matrix(-40.67201 -98.19092 187.71382 -77.7536 127.3 105.8)"/><circle r="1" fill="#fff" transform="matrix(31.25987 24.77627 -37.91962 47.84266 89.8 55.9)"/><ellipse cx="231" cy="59" fill="#fffffb" rx="31" ry="103"/><ellipse cx="174" cy="69" fill="#088e59" rx="49" ry="35"/><circle r="1" fill="#fff" transform="rotate(-96.1 127 21.5) scale(12.50659 168.44872)"/><circle r="1" fill="#fff" transform="matrix(6.60378 33.48078 -34.96953 6.89742 0 122)"/><ellipse cx="178" cy="169" fill="#191000" rx="105" ry="8"/><path fill="#06371b" d="M143.8 70.6l-23.3 53.5 39.1-16.6 15-43.3z"/><circle r="1" fill="#fff2db" transform="matrix(-76.7028 22.44154 -8.7604 -29.9421 207.8 125.6)"/><ellipse cx="172" cy="23" fill="#076229" rx="27" ry="10"/><circle r="1" fill="#3d3d0d" transform="matrix(-59.55188 12.56487 -.61482 -2.914 201.1 119.2)"/><ellipse cx="78" cy="135" fill="#6a6a07" rx="38" ry="7"/><circle r="1" fill="#fffffc" transform="matrix(-37.98565 -2.72285 1.54227 -21.5158 108.3 36.9)"/><circle r="1" fill="#fae7d8" transform="matrix(13.848 -22.45093 17.26993 10.6523 103 102.5)"/><ellipse cx="222" fill="#fffff3" rx="27" ry="49"/><circle r="1" fill="#f5dfd2" transform="matrix(-31.28816 7.1085 -4.50748 -19.83976 47.3 56.1)"/><path fill="#90c7a3" d="M160 27l19 58 59-24z"/><path fill="#fff3e3" d="M271 159l-32-47-132 48z"/><ellipse cx="235" cy="91" fill="#fffffe" rx="25" ry="18"/><circle r="1" fill="#48a576" transform="rotate(-142.7 81.3 54.5) scale(5.70408 19.01444)"/><ellipse cx="3" cy="114" fill="#fffff8" rx="19" ry="32"/><circle r="1" fill="#8d6550" transform="matrix(90.33352 -30.94296 8.63251 25.20137 16.1 10.2)"/><path fill="#0f0000" d="M262.3 26L271 6.2l-17.5 11-10.4 9.3z"/><path fill="#5cad7c" d="M112.2 71.1l.1-1.6 47.5-41.8-16.7 71.1z"/><path fill="#9f6e53" d="M40 77L2 76l72 64z"/><ellipse cx="65" cy="154" fill="#fffffb" rx="34" ry="10"/><path fill="#fffff2" d="M51.6 128.9l-5.9-7.2-52.1 1.9-3.7 37z"/><path fill="#5c986b" d="M214.2 77l-41.8-53.6L185.8 13l41.8 53.6z"/><path fill="#43500a" d="M40 132l24 10-42 5z"/><path fill="#0a3927" d="M154.6 38.4l-3.5 64.2 10.9-6.2 5.6-47.3z"/><path fill="#fffffe" d="M141 121l69-8 52-40z"/><ellipse cx="255" cy="58" fill="#fffff1" rx="22" ry="32"/><circle r="1" fill="#ccb2a1" transform="matrix(10.88397 -11.40686 38.83686 37.05658 49.6 86.4)"/><path fill="#fffcf0" d="M57 22l30 29 45-57z"/><path fill="#2eb08c" d="M204.9 94.6l32.9-40.4-93.2 55 22.1 3.4z"/><ellipse cx="122" cy="129" fill="#837b47" rx="40" ry="4"/><path fill="#1e4025" d="M184 31l-52-11 42-3z"/><path fill="#c7eed7" d="M197 80l-26-5 33-15z"/><path fill="#92e3bb" d="M133 25L118 9l77-19z"/><path d="M13.5 25.5l16.8-5.6 3.7 2.6-50 18.8z"/><path fill="#fff" d="M108 112.6l-34 15.3 46.9-7.5L71 88.8z"/><path fill="#87caa1" d="M200 38l-71-21 61 43z"/><path fill="#4b492d" d="M170 161h86v3h-86z"/><path fill="#707142" d="M118.4 126.5l66.2-1.8 50-13.2-38.9 6.3z"/><path fill="#39382f" d="M158.5 73.3l-36 55.2 49.3-52.3 15.8-8.2z"/><path fill="#197a42" d="M188 0h7v18h-7z"/><path fill="#fffaed" d="M90.4 3.1l63 29.8-11.2 9.3-32.9 28.7z"/><path fill="#f8f6ed" d="M22.2 57.8l37.9-16.9-20-12.5 10.7-3.9z"/><path fill="#271b08" d="M129 163h34v7h-34z"/><path fill="#94b481" d="M94 113h34l12-22z"/><ellipse cx="15" cy="161" fill="#fcecd6" rx="84" ry="9"/><path fill="#1e7047" d="M224 69l-8-10 21-1z"/><path fill="#79c19c" d="M163.4 64.7l-54.5 5.9 23-18.7 29.9 7.4z"/><path fill="#f0e8d9" d="M182 126h74v34h-74z"/><ellipse cx="15" cy="128" fill="#fcede3" rx="43" ry="7"/><path fill="#fff1e1" d="M191-16l80 73-51 1z"/><path fill="#40936b" d="M182.7 20.9l-48 6.1 4.6-5.8 14.9-10.7z"/><path fill="#fff6ea" d="M209 115l-11.7-11L243 55l11.7 11z"/><path fill="#be9473" d="M0 51h19v26H0z"/><path fill="#cceedb" d="M130 8.8l12.1 3.7 53.7.1-51-7.6z"/><path fill="#fff9f0" d="M212 122l-85 14 4 26z"/><path fill="#9ca07a" d="M166.8 166.3l30.5-5.4 2 10.8-30.6 5.4z"/><path fill="#12885f" d="M149 36l1 46 22-36z"/><path fill="#243420" d="M195 61l11-3-9-11z"/><path fill="#54a171" d="M125 15.4l-6.4-6.3L139-11.4l6.3 6.3z"/><path fill="#2f311f" d="M152 103l-20 17-13-4z"/><path fill="#584633" d="M67.1 134.1l.3-1.9-37.3-33.4L-16 61.6z"/><circle r="1" fill="#aa977d" transform="rotate(-111.7 6.8 -4.6) scale(6.19452 31.06153)"/><path fill="#5caf8e" d="M99.9 153.8l-13.3-14.3 26.2 12.6-7.2 12.8z"/><path fill="#43281d" d="M-16 55.6l60.2-22.8-11.7-8.9 14.3-.3z"/><circle r="1" fill="#03a592" transform="rotate(156.7 79.6 64.7) scale(22.73789 5.1529)"/><path fill="#fffffc" d="M-16 65l27 20-27 55z"/><path fill="#fef5e7" d="M71.8 37.1l17-28.3-44.7 20.7 36.6-4.6z"/><circle r="1" fill="#ded3ca" transform="matrix(12.30518 -11.98905 29.69357 30.47653 90.1 70.2)"/><path fill="#2f251d" d="M160.5 25.8L180 24l4.7 8.5 2.4 3.9z"/><path fill="#998c6e" d="M69.1 19.1l-79.5 26.5 47.7-24.1 7.5-6.7z"/><path fill="#faefe2" d="M271 7l-68-23-6 43z"/><path fill="#2d2319" d="M163.7 76.8l40.1-20.5.5 1-40.1 20.4z"/><path fill="#272b0e" d="M60 168h15v2H60z"/><path fill="#56d2bc" d="M165 71l20-8-19-12z"/><path fill="#a4a378" d="M170 125l-52-3-26 20z"/><circle r="1" fill="#090000" transform="matrix(-28.839 10.83986 -.60825 -1.61823 0 47.2)"/><path fill="#6ac19a" d="M184 95.2l3 9.5-37 12-3-9.4z"/><path fill="#f1e6d3" d="M118 148h45v15h-45z"/><path fill="#3e452b" d="M243 159l17 20-63-10z"/><circle r="1" fill="#ce997c" transform="rotate(-118.8 83.8 24.9) scale(2.24359 34.06035)"/><path fill="#a78b7a" d="M25.4 93.2L17 84.1l64.6 36.4-7.6-13.7z"/><path fill="#79b589" d="M183 35l37 29-46-80z"/><path fill="#685431" d="M76.7 17.2l2.4-9.6L178.7-16 28 5.1z"/><circle r="1" fill="#515231" transform="rotate(150.5 -9 76.5) scale(5.55568 1)"/><path fill="#fbf7eb" d="M184.1 118.6L271 99.9l-64.2-.4-77.6 24.5z"/><path fill="#f0dec9" d="M146 103.3l-.1 1-10-1.6.2-1z"/><path fill="#e9d5bd" d="M10 122l10-28 40 36z"/><path fill="#fcfef2" d="M81.8 123.7l22.8-9.6 16.5-.3-16.2 14.5z"/><path fill="#9d8977" d="M55 65h-8l14 15z"/><path fill="#e2e2d7" d="M35 71L12 61l12-13z"/><circle r="1" fill="#62613e" transform="matrix(21.1894 -5.67768 .4632 1.72872 229.2 113.6)"/><path fill="#a3d0af" d="M186.3 40.3l13.6 17.1-10.7 5.1-13.6-12.3z"/><path fill="#faf4eb" d="M39.6 147.4l48.2-4.9 6.4 23.3L14 150.4z"/><path fill="#e7e5df" d="M46.4 64.6l55.4 16.2L29.7 35l7.9 24.6z"/></g></g></svg>