<svg xmlns="http://www.w3.org/2000/svg" viewBox="0 0 1400 941"><defs/><filter id="a"><feGaussianBlur stdDeviation="12"/></filter><rect width="100%" height="100%" fill="#45706e"/><g filter="url(#a)"><g fill-opacity=".5" transform="translate(2.7 2.7) scale(5.46875)"><circle r="1" fill="#fff" transform="rotate(-112.7 92 -34.3) scale(241.43305 163.14845)"/><circle r="1" fill="#fffff2" transform="matrix(-49.90344 -43.9958 137.66814 -156.15385 166.4 93.3)"/><circle r="1" fill="#fffffb" transform="matrix(27.64419 32.6302 -80.646 68.32302 55 18.9)"/><path fill="#00006d" d="M203.6 29.7l30 58.8-15.2 7.8-30-58.8z"/><path fill="#fff" d="M1 104.4l26.2 91.4L7 201.6l-26.2-91.4z"/><path d="M185 113.3l30.2 12.8 19.7 25.4-17.3-5.6z"/><path fill="#1b5255" d="M85 95l-73 23L139 11z"/><path d="M-6.3 27.1l31.1 15.7 20-8.3L-16 18.8z"/><circle r="1" fill="#fffce2" transform="matrix(1.13274 -108.16432 25.72407 .2694 164.1 61.8)"/><path d="M11 101l40 86-29-4z"/><ellipse cx="69" cy="23" fill="#fffff3" rx="38" ry="37"/><path d="M18.5 87.3l41.4 48.1-19.4-30.6-14.1-25.7z"/><path fill="#fffbeb" d="M192.7-.9l62-25 62.6 154.8-62 25z"/><ellipse cx="99" cy="141" fill="#fff9e1" rx="68" ry="39"/><path fill="#000028" d="M243.1 122.5l2.9 33.1-54.5-1.1 39.8 9.2z"/><path d="M129.2 86.2l-11.8-16.7-4.3 9.4 29.7 20.9z"/><path fill="#fff9ea" d="M90.6 166.1L-16 60l41.7 68.2L48 187z"/><path fill="#fff" d="M-25.9 115.2L3 107l22.9 79.8L-3 195z"/><path fill="#fffee4" d="M192.4 155.5L89.9 187 271 172.8l-16.6-6z"/><path fill="#00003e" d="M238 112l-20-21 11 1z"/><path fill="#42757c" d="M114.2 10.9L148 23.3l-40.1 24.2-1.9-13.6z"/><path fill="#ffe" d="M218.3 151.5l21.8-19.8L150.8-16l86.8 173.2z"/><circle r="1" fill="#fffee5" transform="rotate(-23.8 164.2 -45.4) scale(81.32631 16.98784)"/><path fill="#2c360f" d="M46.1 121.5l19.1 13.8-.7-3-55.1-57z"/><path fill="#070f00" d="M-.8 95.9l-3.3-8.8L24.6 124l4.2 63z"/><path fill="#35358d" d="M186 38.4l10.6-2.1 15.2-9.7 5.9 66.3z"/><path fill="#000032" d="M190.2 153l-1.4-.3 53.4 10.1-34.1-13.3z"/><path fill="#001410" d="M51 87l29-5-43 25z"/><circle r="1" fill="#ffffea" transform="matrix(94.10043 46.40952 -8.5659 17.3683 9.2 0)"/><path fill="#010044" d="M247.8 144.3l-4.2-16.2-3.1-4.3-5.4 43.2z"/><path d="M3 28l25 10 11-7z"/><path fill="#041000" d="M228.2 143.1l-17.8-18.4-20.3-11.8 29.6 35.2z"/><path fill="#fffae3" d="M263 170l8-45-48 51z"/><path fill="#021401" d="M160 112h25v2h-25z"/><path fill="#fff9e5" d="M182 69l2-85-91 89z"/><path d="M121.5 72l4.6 13.3-7.6 2.6-4.6-13.2z"/><circle r="1" fill="#fffce4" transform="matrix(-4.04831 12.5683 -27.97403 -9.01058 117.8 100)"/><path fill="#578d93" d="M49.5 73.1l47-23.9-41.2 46.1-15.6-7.9z"/><path fill="#fbf2e2" d="M237.2 113.8l-.7 43.5-.6-3.9-89-136.4z"/><ellipse cx="177" cy="11" fill="#fcf7e9" rx="36" ry="27"/><path fill="#f0ead7" d="M194 125l10 62-168-82z"/><path fill="#fef7e5" d="M25 111L12 34l-28 46z"/><path fill="#120" d="M32.4 112.1l-6.7-16 24.5 26.7-23.9-41.1z"/><circle r="1" fill="#5d8a8f" transform="matrix(11.00533 8.54026 -13.0136 16.76988 125.5 21)"/><path fill="#000034" d="M233 162l-11-4 20-3z"/><path fill="#556351" d="M76 138l15.3 4.7-33.7-15.8-11.8-4.3z"/><path d="M0 24h9v8H0z"/><path fill="#fdf8e6" d="M-2-16L136-6 56 58z"/><path fill="#fff7e3" d="M19 37l26 64-61-75z"/><path fill="#78a2a5" d="M103.2 48.1L87 98.8 55 112l-.2-1.4z"/><path fill="#000500" d="M118.2 179.5l-17-18.3.6-.7 17 18.3z"/><circle r="1" fill="#f3eee0" transform="matrix(18.04876 33.10377 -5.63736 3.07359 238.2 95.1)"/><path fill="#f4f0df" d="M154.8-16l-33.3 97 68.6 32.8 37.6 19.7z"/><path fill="#001509" d="M36 33L-6 21l31 19z"/><path fill="#1e278e" d="M213.6 54.9L227.8 90l-7.4 3-14.2-35z"/><path fill="#091f1e" d="M43.6 100.3l35.1-23.5L61 98.7l9.8-.1z"/><path fill="#f3ebd6" d="M191.6 120.5l-40.4-4.3 72.3 39.1-14.9-20.3z"/><path fill="#293513" d="M177.7 110.9l2.4 4 52.3 30.7-16.5-17z"/><path fill="#243e36" d="M25.5 116.3l3.1-16.9 10.2 1.5L72 86.6z"/><circle r="1" fill="#0b073b" transform="matrix(-2.18021 3.48906 -7.75515 -4.84596 211.5 154.2)"/><path fill="#f4f0e6" d="M204.4 25.6L112.1-5.3 247.5-16l-18.1 77.7z"/><path fill="#222d0e" d="M46.3 117.3l-3.2.9-26-35.7 15.3 7.3z"/><path fill="#1d1c58" d="M239.8 149.4l-1.2-29.6 2.8-3 5.6 24.4z"/><path fill="#71989d" d="M119.1 6.9L132.7 32 85.9 86.3 113 45.5z"/><path fill="#091b10" d="M27.1 133.8l-12 4.8-8.2-20.4 12-4.8z"/><ellipse cx="2" cy="163" fill="#fef6df" rx="14" ry="37"/><path fill="#f5f3e2" d="M33.4 90l53-59.9-56.3 6.6-4.9 28.7z"/><path fill="#eae3d3" d="M247 0h9v172h-9z"/><path fill="#213527" d="M15.5 110.5l20.5 43 8.3 24.4-22.6 7.1z"/><path fill="#8a8d79" d="M130.8 88.7l18 16 14.3 6.9-4.5 2.9z"/><path fill="#fdf8eb" d="M-.6-9.1l-8.2 33.5 17.9-.9 38.3 14.2z"/><path fill="#faf7e6" d="M91.8 170.3l25.9-118.9 39.4-23.2-62.4 49z"/><path fill="#fffae8" d="M223 154l13-23 2 14z"/><path fill="#091a01" d="M57.5 125.6l-2 2.2-17-15.4 2-2.2z"/><path fill="#eaebde" d="M-16 43.6l49.1 40.8-40.9-2 43.4 50.8z"/><path fill="#6b9698" d="M62.9 109.2l-27.1-3.3 40.5-13.6 15 2.7z"/><path fill="#4e5a4b" d="M73.1 133.2l.6-.8L93 146.8l-.6.8z"/><circle r="1" fill="#e7e5d3" transform="rotate(155.6 67 92.3) scale(41.39623 23.53492)"/><path d="M110 49l-6 3 6-15z"/><path fill="#f7f6e9" d="M62 127l61.5 32-38.4-45.9-43.2-5.5z"/><path d="M70 84h14v2H70z"/><path fill="#8db4b7" d="M106 64L83 79l17-33z"/><circle cx="39" cy="96" r="3" fill="#fff"/><path fill="#f0f0e0" d="M221.1 21.3l-83.5 44.4 5.3-56.8L126.2-16z"/><path fill="#f1f0e3" d="M116.9 179.9l-80.6-67-12.3 9.8 4.7 15.8z"/><circle r="1" fill="#ededdd" transform="rotate(-129.2 15.9 29.2) scale(26.81474 26.90139)"/><path fill="#2b5e5c" d="M97.9 55.3L37 104.7l44.7-28.4-13.5 13.6z"/><path fill="#050804" d="M65 92.4l-29.2 13-.8-1.8 29.2-13z"/><path fill="#515090" d="M208 28l8 34-25-24z"/><path fill="#213111" d="M119.3 71.2l5.5 11.8-8.1 3.8-5.5-11.8z"/><path fill="#527d87" d="M131 7h10v23h-10z"/><path fill="#eaeadd" d="M127 149l-77 38-16-43z"/><path fill="#edebde" d="M194 59.1L170.8-16l9 129.3 59.9 11z"/><path fill="#f4f1e0" d="M111 78l-51 40 84-1z"/><path fill="#f5f5e9" d="M4.6 91l13.3-6.8 9.5 18.8-13.3 6.8z"/><path fill="#f6f5e5" d="M-16 18l137-34-18 58z"/><path fill="#eae3d4" d="M237.6 164.7L167 149.6l72.7 37.4 14.4-52.8z"/><path fill="#000500" d="M23 84h6v8h-6z"/><circle r="1" fill="#6f989b" transform="rotate(-148.4 39.5 31.6) scale(4.01187 19.6143)"/><path fill="#f9f7e4" d="M116.2 74.6l-16 .6 30.1-40.7 12.8 18.6z"/></g></g></svg>