<svg xmlns="http://www.w3.org/2000/svg" viewBox="0 0 915 919"><defs/><filter id="a"><feGaussianBlur stdDeviation="12"/></filter><rect width="100%" height="100%" fill="#2a3b4c"/><g filter="url(#a)"><g fill-opacity=".5" transform="translate(1.8 1.8) scale(3.58984)"><circle r="1" fill="#fff" transform="matrix(4.83477 247.20764 -131.10056 2.564 124.5 87)"/><circle r="1" fill="#fff" transform="matrix(-112.61022 14.02634 -10.71721 -86.04293 122.6 109.8)"/><circle r="1" fill="#fff" transform="matrix(107.60348 21.67086 -8.19613 40.69668 117.6 76.3)"/><path fill="#fffff1" d="M29 33h194v153H29z"/><ellipse cx="247" cy="152" fill="#58666f" rx="24" ry="231"/><ellipse cx="111" cy="241" fill="#d2af7f" rx="108" ry="50"/><ellipse cx="12" cy="183" fill="#566060" rx="15" ry="90"/><path fill="#6b886b" d="M117 167l55-36-9-35z"/><ellipse cx="109" cy="10" fill="#5c768c" rx="241" ry="22"/><circle r="1" fill="#f8f4e2" transform="matrix(-2.08947 11.38462 -57.49065 -10.5515 164.2 211.4)"/><path fill="#65240b" d="M57 225l36-7-78-28z"/><circle r="1" fill="#007d0d" transform="matrix(.97356 -7.3725 21.4846 2.8371 180.1 195.1)"/><ellipse cx="233" cy="94" fill="#fff" rx="3" ry="66"/><circle cx="63" cy="167" r="39" fill="#fff4e4"/><path fill="#0e1b22" d="M22 30h3v226h-3z"/><ellipse cx="227" cy="205" fill="#101b21" rx="3" ry="147"/><circle r="1" fill="#6d654f" transform="matrix(41.021 17.92163 -4.69445 10.74517 179.1 248.9)"/><path fill="#fffcfa" d="M27.5 73l197.7 45.8.9-81.2-.3-8.9z"/><path fill="#d8d2c4" d="M200 88h25v149h-25z"/><path fill="#8089a0" d="M97.3 105.6L80 110.9l15.7 42.9 5.9 3z"/><circle r="1" fill="#90a0a0" transform="rotate(55.3 -48.9 307.3) scale(26.34775 20.10072)"/><path fill="#fbf7f1" d="M24.2 211l.8 2.8 77.7-140.7L31.3 27z"/><ellipse cx="18" cy="165" fill="#d3d8d5" rx="3" ry="138"/><path fill="#7d5039" d="M97.5 218.6L31.2 229l34.5-18.8 37.2-15.6z"/><ellipse cx="254" cy="113" fill="#2f485e" rx="6" ry="72"/><ellipse cx="243" cy="15" fill="#96a4bc" rx="8" ry="55"/><path fill="#203719" d="M157.2 103l5.7-1.8 8 25.8-5.8 1.8z"/><ellipse cx="20" cy="6" fill="#283642" rx="5" ry="28"/><path fill="#1b2100" d="M169 151l2 7-14-6z"/><circle r="1" fill="#525a5f" transform="rotate(81.4 -107.8 99.2) scale(73.43736 11.88188)"/><circle r="1" fill="#fff8ed" transform="rotate(15.5 -357.4 607) scale(14.29044 10.06768)"/><circle r="1" fill="#d5c7a9" transform="matrix(-35.09748 32.53624 -11.41385 -12.31235 116.9 218.8)"/><path fill="#fff6eb" d="M128 156l80-9-8-37z"/><path fill="#fffcf9" d="M16 34h209v24H16z"/><path fill="#3e4e5c" d="M151 31l13-36-1 38z"/><ellipse cx="90" cy="11" fill="#384856" rx="6" ry="25"/><ellipse cx="9" cy="24" fill="#9ca8b8" rx="8" ry="108"/><path fill="#008442" d="M194.8 204.3l-41.8-8.6 34-11 6.2 16.2z"/><path fill="#221d18" d="M245.4 233.9l9.3-39.1 15.3 55.9-41.6 20.3z"/><path fill="#c5cfdb" d="M153.9-6.4l-.8 41-11-.2.8-41z"/><path fill="#87b882" d="M200.2 174.6L195 193l-19.2-5.5L181 169z"/><ellipse cx="42" cy="11" fill="#152534" rx="3" ry="22"/><path fill="#528572" d="M136.5 141.1l-16.1 19 49.8-34.6-16 3z"/><path fill="#f8f1e8" d="M70 165h78v31H70z"/><path fill="#fff5e4" d="M103 125.6l73.3-32.3-72.3 58.6-20-36.8z"/><path fill="#2a3c49" d="M-16 102l20 66L0 38z"/><path fill="#0b1a28" d="M235.3-4.4l-.6 35-6-.2.6-35z"/><path fill="#bfccd8" d="M76.4-16L85.5.3l-.7 26.3-12.3 13.2z"/><path fill="#adc4a6" d="M25 115h6v73h-6z"/><path fill="#4d6273" d="M131 0h11v35h-11z"/><path fill="#445b6a" d="M107.8 33l-.6-31.9 11-.2.6 32z"/><path fill="#163143" d="M206 0h6v27h-6z"/><path fill="#b9cada" d="M120 0h11v25h-11z"/><path fill="#b6c5d3" d="M51 0h11v32H51z"/><path fill="#fcf9ec" d="M230 35h6v39h-6z"/><ellipse cx="234" cy="110" fill="#eff3e9" rx="2" ry="78"/><path fill="#b4c0cc" d="M166 0h10v32h-10z"/><path fill="#242825" d="M225 188h6v65h-6z"/><ellipse cx="113" cy="8" fill="#c0d6ea" rx="2" ry="31"/><path fill="#2e4658" d="M182.1-9.2l1 16.9-2.2 31.9 7.8-37.3z"/><path fill="#fdf9f5" d="M86 136l-61-21 3-96z"/><path fill="#737442" d="M95 113l11 12-27-13z"/><circle r="1" fill="#fff7ef" transform="matrix(17.98324 36.60196 -1.75496 .86224 161.8 121)"/><path fill="#d6d3c5" d="M223 197l-90 19 73 28z"/><path fill="#6c6959" d="M231 46h1v179h-1z"/><path fill="#b9b5a7" d="M210 131h15v125h-15z"/><path fill="#b3c1d0" d="M96 0h12v33H96z"/><ellipse cx="136" fill="#c9e0f8" rx="2" ry="32"/><path fill="#4766bb" d="M97.1 155.8l-10-26.2 3.8-1.4 10 26.2z"/><path fill="#8e2500" d="M34 193l15 9-11-2z"/><path fill="#4d5f6c" d="M63 2h10v32H63z"/><path fill="#ebeae7" d="M192 44h34v97h-34z"/><path fill="#608e7b" d="M133.1 151.2l-4.2 19.1-9.3-13.5 47.8-36.7z"/><path fill="#b1c0cc" d="M187.5-22.5h11v55h-11z"/><path fill="#414951" d="M241 118h2v123h-2z"/><path fill="#37488d" d="M82.4 115.5l14.6-2.8-10-5.7 16.8 4.4z"/><path fill="#cee6fb" d="M69 0h2v33h-2z"/><path fill="#17282f" d="M48 0h2v34h-2z"/><ellipse cx="233" cy="232" fill="#aeac9a" rx="2" ry="82"/><ellipse cx="23" cy="56" fill="#5d6b79" rx="2" ry="75"/><path fill="#3e3d04" d="M124 133l7 3-1 4z"/><path fill="#94a9b6" d="M243 161h8v41h-8z"/><path fill="#8a9bac" d="M40.1-4.4l-3.8 34-12 .3-2-45.9z"/><path fill="#7b7460" d="M136.4 219l71.5 38.3 8.8-9.2-21.7-5.7z"/><path fill="#f3ece2" d="M198 40h11v145h-11z"/><path fill="#3d4c57" d="M191 29l-7-9-6 14z"/><ellipse cx="88" cy="141" fill="#f7eeda" rx="3" ry="33"/><path fill="#9e937b" d="M73 223l-38-2-13 40z"/><path fill="#a2b3c4" d="M212 3h12v27h-12z"/><path fill="#6a809f" d="M237 45h14v77h-14z"/><ellipse cy="34" fill="#3f5462" rx="2" ry="53"/><ellipse cx="10" cy="51" fill="#546371" rx="1" ry="49"/><ellipse cx="16" cy="156" fill="#d6dada" rx="1" ry="123"/><path fill="#26343e" d="M93 0h3v33h-3z"/><path fill="#f6eedc" d="M136.9 148.7l-24.2 44.7 70.7-60.7-31.8 9.4z"/><path fill="#455462" d="M28 27l-3-43-11 49z"/><circle r="1" fill="#542b1c" transform="rotate(-6.3 2013.2 -513.4) scale(12.37799 4.5225)"/><path fill="#d6c4a1" d="M28 188l42-2-9 23z"/><ellipse cx="158" cy="23" fill="#c1cee0" rx="2" ry="25"/><ellipse cx="201" cy="8" fill="#213546" rx="2" ry="25"/></g></g></svg>