<svg xmlns="http://www.w3.org/2000/svg" viewBox="0 0 1181 1181"><defs/><filter id="a"><feGaussianBlur stdDeviation="12"/></filter><rect width="100%" height="100%" fill="#444"/><g filter="url(#a)"><g fill-opacity=".5" transform="translate(2.3 2.3) scale(4.61328)"><circle cx="114" cy="142" r="203"/><ellipse cx="239" cy="193" rx="66" ry="255"/><path fill="#a8a8a8" d="M58 123h136v17H58z"/><circle r="1" transform="matrix(39.977 169.11459 -59.58857 14.08614 13.2 137.5)"/><ellipse cx="132" cy="55" fill="#a4a4a4" rx="88" ry="8"/><path fill="#c4c4c4" d="M83 162h87v15H83z"/><ellipse cx="129" cy="207" fill="#bebebe" rx="48" ry="8"/><ellipse cx="166" cy="12" rx="192" ry="34"/><path fill="#9f9f9f" d="M77 86h101v15H77z"/><ellipse cx="128" cy="236" rx="255" ry="22"/><circle r="1" transform="rotate(89.7 -59.9 82.1) scale(133.99846 35.78707)"/><circle r="1" transform="matrix(-4.10936 -.65454 10.16309 -63.80614 109.8 136.2)"/><ellipse cx="230" cy="57" rx="32" ry="249"/><path fill="#c8c8c8" d="M74.8 62.7l-30.6-26 12.5 31.7 2.8-27.2z"/><circle r="1" transform="matrix(105.61038 5.74786 -.5631 10.34627 79.8 73.9)"/><path fill="#f1f1f1" d="M58.9 124.1l12-.2.2 14-12 .2z"/><path d="M84.7 113.3L94.5 62l7.5 44.1-13 26.4z"/><path fill="#ccc" d="M189 48h20v15h-20z"/><ellipse cx="104" cy="146" rx="255" ry="8"/><path d="M149.5 58.7l14.7-10.2 87.9 212.4L271 101.6z"/><path d="M0 176h256v23H0z"/><circle r="1" transform="matrix(2.71258 -27.17653 138.87789 13.86186 124.2 17.2)"/><circle r="1" fill="#fefefe" transform="matrix(-2.13361 -.17916 .92145 -10.97327 84.7 161)"/><path fill="#fff" d="M119 142.1l-2.3-28.4 3.8 8 1.2 13z"/><ellipse cx="100" cy="53" fill="#fff" rx="2" ry="14"/><path d="M170 93l-23-3 14 43zM54 112l2-76 29 91z"/><path fill="#fff" d="M140 152h4v23h-4z"/><path fill="#b5b5b5" d="M182.7 112.8L149.8 142l7.5 5.4.1-6.8z"/><ellipse cx="125" cy="243" rx="124" ry="30"/><path fill="#fff" d="M102 112h3v29h-3zm53-25h4v12h-4z"/><ellipse cx="156" cy="108" rx="255" ry="8"/><path fill="#fff" d="M118.1 155.5l.8 23h-3l-.8-23zM172 114l4 10-3 13zM45.2 40.9L47 40l9.8 23-1.8.8zM171 178l-11 4 1 3z"/><circle r="1" transform="matrix(2.5617 .03988 -.5782 37.13918 89.5 168.4)"/><path fill="#fff" d="M190.2 137.5l-2-.4 3.6-18.6 2 .4zM141 48l1 20 3-12z"/><path fill="#eaeaea" d="M164 104l4 6 8-8z"/><path d="M199 38h6v40h-6zM75.4 44.1L69.6 58l-8.9 93.8 18.6-71.1zm74.1 112.8l-8.3 52.7 6.1-82.8-23.1 22zm111.7 54.8l-104.1-32.2 4.9-17.9 18.5 83.1z"/><ellipse cx="106" cy="64" rx="3" ry="71"/><path fill="#fff" d="M135 122h3v18h-3z"/><path d="M0 139h152v15H0z"/><path fill="#fff" d="M117 41.5h2v21h-2zM69 53L59 39l8 22z"/><ellipse cx="177" cy="129" rx="3" ry="188"/><path fill="#aeaeae" d="M83 199h12v16H83z"/><ellipse cx="97" cy="117" rx="2" ry="85"/><ellipse cx="132" cy="99" rx="2" ry="58"/><path d="M117 135.9l-.1-30.3-12.8 21.5 9.7 49.8z"/><path fill="#fff" d="M88 91l-3-6v14z"/><path d="M133.6 164.3l2.9-.8 33.9 118.2-2.9.8z"/><path fill="#fff" d="M125 51h3v12h-3zm-2 105h4v19h-4z"/><path d="M162 195h6v18h-6z"/><path fill="#fff" d="M100 86h5v15h-5zM78 43h2v21h-2zm6.5 82h3v12h-3zM136 49l-2 10 5 3zm34.1 152.8l2.7 11.7-3 .7-2.6-11.7z"/><circle r="1" fill="#fff" transform="matrix(1.97457 -.13746 .3469 4.9833 158.2 171.1)"/><ellipse cx="186" cy="137" rx="3" ry="189"/><path fill="#fff" d="M75 124h4v15h-4z"/><path d="M81 0h3v149h-3z"/><path fill="#fff" d="M110 86h3v15h-3zm33-1h3v16h-3zm27-25.7l-6.6-11.1 2.5-1.5 6.7 11.1zm-57.2 3.9l-4 .5-1.6-15 4-.4z"/><path d="M126.4 119.3l-6.7-66.5 22.7 42.7-14-61.8z"/><path fill="#d0d0d0" d="M100.8 163.5l4.7 15-11.5-12-5.4 9.6z"/><path fill="#fff" d="M166 71l-4-4 8-1zm-42 30l-4-4 2-10zm24 18h2v20h-2zm57-71h4v15h-4z"/><path d="M6 63h134v22H6zm134 61l27-22-83-2z"/><ellipse cx="159" cy="87" fill="#fff" rx="12" ry="2"/><circle r="1" fill="#fff" transform="matrix(2.1201 -4.38562 1.5161 .7329 77.3 97.2)"/><path fill="#fff" d="M91 127h4v10h-4zm96.3-5.2l-6.2 18.5.6-15.2 8.5.6zM130 136v-10l-3-1z"/><path fill="#d3d3d3" d="M181 85.5l-7.6 9.6-.5 10.2 4.9-10.2z"/><path d="M193 48h3v85h-3z"/><path fill="#fff" d="M125 92l4 7V85z"/><path d="M114.8 87h-4l2.4-70h4zM153 63l7-25 10 24zm-47.3 155.6l-.6-37.8L92.7 271 271 208.8z"/><ellipse cx="89" cy="166" rx="2" ry="127"/><path d="M229.4 205.5l-115.7-12.2 12.5-55.9-3.7 38.1z"/><path d="M116.7 211.2l14.2-52.3-4.1 53.9-8.1-34z"/><path fill="#bdbdbd" d="M186.4 65.7l-7.3-17.8-30.3 3.1 22.8-3.1z"/><ellipse cx="155" cy="135" fill="#fff" rx="2" ry="11"/><path fill="#fff" d="M159 200h2v14h-2z"/><path d="M-11.3 35.1L.8 271l84.5-39.2-6.7-64.1z"/><path fill="#fff" d="M129 170l6 8-2-16z"/></g></g></svg>