<svg xmlns="http://www.w3.org/2000/svg" viewBox="0 0 1192 730"><defs/><filter id="prefix__a"><feGaussianBlur stdDeviation="12"/></filter><rect width="100%" height="100%" fill="#534b47"/><g filter="url(#prefix__a)"><g transform="translate(2.3 2.3) scale(4.65625)"><circle r="1" fill="#fff" fill-opacity=".5" transform="rotate(-179.2 77.6 27) scale(255 83.52199)"/><circle r="1" fill="#f5fcff" fill-opacity=".5" transform="matrix(6.64296 72.78982 -101.91043 9.30057 209 58.4)"/><circle r="1" fill="#dcdcdd" fill-opacity=".5" transform="rotate(-179.4 6.6 67.7) scale(12.75904 112.94471)"/><ellipse cx="189" cy="144" fill="#7a7d82" fill-opacity=".5" rx="109" ry="16"/><path fill="#514a47" fill-opacity=".5" d="M47.4 149.3l-21 .4-1.8-103 21-.4z"/><circle r="1" fill="#f0f7fd" fill-opacity=".5" transform="matrix(-21.186 52.0719 -49.37882 -20.0903 255 75)"/><circle r="1" fill="#c2bfbb" fill-opacity=".5" transform="matrix(-28.0038 101.14192 -75.77877 -20.98135 123.1 29.7)"/><path fill="#5d5854" fill-opacity=".5" d="M33 130h151v9H33z"/><ellipse cx="9" cy="129" fill="#afb2b4" fill-opacity=".5" rx="16" ry="63"/><circle r="1" fill="#c7beb8" fill-opacity=".5" transform="rotate(-96 12.5 5) scale(26.83715 57.35121)"/><path fill="#cacdd2" fill-opacity=".5" d="M92.5 87.5h73v41h-73z"/><ellipse cx="241" cy="149" fill="#898c91" fill-opacity=".5" rx="47" ry="21"/><circle r="1" fill="#bdbab5" fill-opacity=".5" transform="matrix(-21.25421 75.24087 -27.8071 -7.85501 118.7 57)"/><ellipse cx="47" cy="155" fill="#312c28" fill-opacity=".5" rx="26" ry="21"/><path fill="#6e6764" fill-opacity=".5" d="M24 39h11v96H24z"/><path fill="#abaaa8" fill-opacity=".5" d="M47.4 133.2l-19.4 2L83.3.9l1.1 121.4z"/><circle r="1" fill="#d6d8da" fill-opacity=".5" transform="matrix(9.23357 -57.94291 25.77923 4.10808 200.8 66.5)"/><ellipse cx="201" cy="8" fill="#b7b8b8" fill-opacity=".5" rx="164" ry="8"/><path fill="#fff5e7" fill-opacity=".5" d="M16 47h8v29h-8z"/><circle r="1" fill="#edf6fd" fill-opacity=".5" transform="matrix(7.4125 -33.16162 23.80994 5.32215 254.9 94.8)"/><circle cx="89" cy="115" r="4" fill="#ffc500" fill-opacity=".5"/><ellipse cx="4" cy="116" fill="#b2b1b2" fill-opacity=".5" rx="21" ry="55"/><path fill="#847c7a" fill-opacity=".5" d="M30 45h17v80H30z"/><circle r="1" fill="#e6d2c4" fill-opacity=".5" transform="matrix(-.34485 -.93866 18.36904 -6.74864 31.6 50)"/><circle cx="79" cy="154" r="25" fill="#504a44" fill-opacity=".5"/><path fill="#c1c4c2" fill-opacity=".5" d="M48 68h9v62h-9z"/><path fill="#c6beba" fill-opacity=".5" d="M5 18h46v24H5z"/><path fill="#140e06" fill-opacity=".5" d="M24 151l-35 20 39-1z"/><path fill="#d2dae3" fill-opacity=".5" d="M133 115h112v14H133z"/><path fill="#dfddd8" fill-opacity=".5" d="M216 47l-71-31 126-1z"/><path fill="#c0bfbc" fill-opacity=".5" d="M107.7 189.4l-6.4-72.7 1-.1 6.4 72.7z"/><circle r="1" fill="#bcb9b6" fill-opacity=".5" transform="matrix(-16.3619 -8.81304 42.77115 -79.407 124.2 34.8)"/><path fill="#e5d0c3" fill-opacity=".5" d="M53 15h74v4H53z"/><path fill="#5d5751" fill-opacity=".5" d="M118 133l49 4-73 22z"/><path fill="#6d6b6c" fill-opacity=".5" d="M25 108h18v26H25z"/><path fill="#9b9fa5" fill-opacity=".5" d="M211 129h45v10h-45z"/><path fill="#fffcf1" fill-opacity=".5" d="M128.7 41.4l-1 .3-10.4-27 1-.4z"/><path fill="#afa9a3" fill-opacity=".5" d="M51 21h44v56H51z"/><ellipse cx="207" cy="154" fill="#717071" fill-opacity=".5" rx="52" ry="21"/><path fill="#b5b8bb" fill-opacity=".5" d="M7 122h18v29H7z"/><circle r="1" fill="#cacccc" fill-opacity=".5" transform="rotate(-153 102.9 3.8) scale(24.78618 28.74093)"/><path fill="#feeee1" fill-opacity=".5" d="M49.8 14.7l.6-.8 23.8 21.4-.6.8z"/><circle r="1" fill="#adaaa5" fill-opacity=".5" transform="rotate(-131.4 18.8 -5.7) scale(25.10631 21.5119)"/><ellipse cx="1" cy="27" fill="#c1b9b5" fill-opacity=".5" rx="15" ry="47"/><path fill="#c3c4c4" fill-opacity=".5" d="M190.2-16l-31.1 140.5-67.6 8.1-4.6 1.8z"/><path fill="#332d29" fill-opacity=".5" d="M25 136h37v14H25z"/><path fill="#f8f0e3" fill-opacity=".5" d="M49 38l-10 6 14-15z"/><path fill="#554944" fill-opacity=".5" d="M25 43h10v7H25z"/><path fill="#665f5c" fill-opacity=".5" d="M95 143.5l-44.3-14.1h34L106 171z"/><path fill="#b8babd" fill-opacity=".5" d="M62.2 108.8L49.4 135l-3.6-1.7L58.6 107z"/><circle cx="215" cy="102" r="26" fill="#dde2e9" fill-opacity=".5"/><path fill="#e0d9ce" fill-opacity=".5" d="M77.5 39.8l-.2-4.7 2 .2L98 37z"/><circle r="1" fill="#88898e" fill-opacity=".5" transform="matrix(.40845 -4.16573 63.25802 6.2025 217.5 137.2)"/><circle r="1" fill="#cbced2" fill-opacity=".5" transform="rotate(8.4 -631 1161.6) scale(19.96021 26.21294)"/><path fill="#8c8786" fill-opacity=".5" d="M39 57h8v78h-8z"/><path fill="#bfbebc" fill-opacity=".5" d="M95.8 148.6l7.1-81.5 71-36.4-79.7 98.5z"/><path fill="#ecefec" fill-opacity=".5" d="M236 16.1l35 17.7-14.9-13.5-42.6 8.7z"/><path fill="#b3ada9" fill-opacity=".5" d="M117.8 25.6l9.8 16.3-27.4 16.5L90.4 42z"/><path fill="#e7dcd2" fill-opacity=".5" d="M97.6 36.6l-.2-.9 31.3-25.5-18.1 19z"/><path fill="#a9aca8" fill-opacity=".5" d="M112 133h2v15h-2z"/><path fill="#d6c2b6" fill-opacity=".5" d="M30.2 52.1l14.4-5.4L14 53.6l-2.1-.8z"/><path fill="#c2bbb7" fill-opacity=".5" d="M47.3 15.2l-35 5.1 11.3 19.1L42.3 46z"/><path fill="#dcd8d1" fill-opacity=".5" d="M140.7 48.2L124 38.3 141.6 58l16.9-34z"/><path fill="#a9a49f" fill-opacity=".5" d="M91 35L57 17l58 2z"/><path fill="#c2bbb6" fill-opacity=".5" d="M21 19h3v82h-3z"/><path fill="#fff" fill-opacity=".5" d="M17.3 51.5h3l.4 23h-3z"/><ellipse cx="217" cy="145" fill="#676464" fill-opacity=".5" rx="73" ry="3"/><ellipse cx="158" fill="silver" fill-opacity=".5" rx="98" ry="8"/><path fill="#302c2a" fill-opacity=".5" d="M43 135l-17-2 3 7z"/><path fill="#b8c0c5" fill-opacity=".5" d="M223 130h33v2h-33z"/><circle r="1" fill="#acadae" fill-opacity=".5" transform="matrix(24.02108 41.67841 -8.65648 4.9891 0 109.9)"/><path fill="#56514e" fill-opacity=".5" d="M237.6 171L94.5 152.9l-72-.5-35.6 18.6z"/><ellipse cx="28" cy="99" fill="#6c6563" fill-opacity=".5" rx="4" ry="36"/><path fill="#7d6e60" fill-opacity=".5" d="M51 19h2v9h-2z"/><path fill="#a9a4a0" fill-opacity=".5" d="M48 39.3l10-13.6 28 21-10.2 13.6z"/><path fill="#4d463f" fill-opacity=".5" d="M106 133h3v18h-3z"/><path fill="#f5f2e9" fill-opacity=".5" d="M168 27h17v3h-17z"/><path fill="#b4b3af" fill-opacity=".5" d="M125 18h18v18h-18z"/><path fill="#8d8f94" fill-opacity=".5" d="M131 131h54v2h-54z"/><path fill="#a9a7a3" fill-opacity=".5" d="M36.6 9.7l65.9 6-85.9-.3L13.9-16z"/><path fill="none" stroke="#f1e3d7" stroke-opacity=".5" stroke-width=".5" d="M21 53.5q28.6-6 30.8-26.7"/><circle r="1" fill="#d6d8d9" fill-opacity=".5" transform="matrix(-28.8729 45.84938 -11.0261 -6.9435 203 71.9)"/><path fill="#c2c2c0" fill-opacity=".5" d="M191.8 27.4L104.9 120l12.6-49.7L158 34.2z"/><path fill="#f0bf49" fill-opacity=".5" d="M85 113h10v6H85z"/><path fill="#b8b7b6" fill-opacity=".5" d="M82.2 122.8l18.7-10.2 8.5 17.5-28.7-1.3z"/><path fill="#b5b2b0" fill-opacity=".5" d="M6 17l18 131-38-74z"/><path fill="#fffffe" fill-opacity=".5" d="M236 17.5l1 .1-3 26.9-1-.1z"/><path fill="#f8e3d5" fill-opacity=".5" d="M150 16h88v2h-88z"/><path fill="#898881" fill-opacity=".5" d="M86 135h2v13h-2z"/><circle r="1" fill="#f2f8fd" fill-opacity=".5" transform="matrix(-.8316 18.31307 -9.41206 -.4274 255 97.3)"/><ellipse cx="57" cy="17" fill="#eed4c3" fill-opacity=".5" rx="10" ry="2"/><path fill="#fff4ea" fill-opacity=".5" d="M158.4 14.4l1 .3-5.8 15-1-.4z"/><path fill="#d8cec3" fill-opacity=".5" d="M50.5 35.8l10.4-20.5-6.8 6.9 7-20z"/><ellipse cx="42" cy="57" fill="#7f7772" fill-opacity=".5" rx="4" ry="12"/><path fill="#c9bfbb" fill-opacity=".5" d="M23.3 46.9l1.4-6.4L3.9-16l10.2 70.1z"/><circle cx="40" cy="32" r="8" fill="#b4b2af" fill-opacity=".5"/><path fill="#c7c7c7" fill-opacity=".5" d="M181.9 73.4l16.8-50.2-28.1 9.7-67 99.2z"/><path fill="none" stroke="#eae4db" stroke-opacity=".5" stroke-width=".5" d="M30.6 51.9q10.2-3.7 20.2-16.7"/><ellipse cx="29" cy="59" fill="#675d5a" fill-opacity=".5" rx="5" ry="7"/><path fill="#9a9089" fill-opacity=".5" d="M54 31l6-7-2-3z"/></g></g></svg>