<svg xmlns="http://www.w3.org/2000/svg" viewBox="0 0 933 1400"><defs/><filter id="a"><feGaussianBlur stdDeviation="12"/></filter><rect width="100%" height="100%" fill="#422022"/><g filter="url(#a)"><g fill-opacity=".5" transform="translate(2.7 2.7) scale(5.46875)"><circle r="1" fill="#ffc3c8" transform="rotate(-163.6 48.5 64.7) scale(169)"/><circle r="1" fill="#ff6c70" transform="matrix(68.05512 76.75561 -115.30174 102.23193 125.2 167.9)"/><circle r="1" fill="#9d1c1c" transform="rotate(42.1 -143 99.9) scale(93.96822 38.64064)"/><circle cx="104" r="86" fill="#a7a6ba"/><ellipse cx="52" cy="237" fill="#ff87a0" rx="169" ry="24"/><path fill="#000500" d="M21 77h42v24H21z"/><circle r="1" fill="#ff9a95" transform="matrix(6.3476 25.28669 -55.98993 14.05488 119.3 76.7)"/><path fill="#eb3849" d="M120 201l-136-66 57-46z"/><ellipse cx="118" cy="20" fill="#6476a5" rx="54" ry="29"/><circle r="1" fill="#ff465c" transform="rotate(-45 231 -104.6) scale(19.38024 56.5101)"/><circle r="1" fill="#8f996f" transform="matrix(-39.45585 35.52083 -19.1666 -21.28989 13.2 56.4)"/><circle r="1" fill="#d5ac84" transform="matrix(-11.35452 7.5233 -48.46452 -73.1449 136.5 191.8)"/><path fill="#bf2022" d="M-3.1 179l115.8 34.8 29.5 10.3-47.9-4.8z"/><circle r="1" fill="#926355" transform="matrix(30.71278 16.15938 -11.7407 22.31455 0 169)"/><path fill="#1f0000" d="M-4 97l53-19-65 51z"/><circle r="1" fill="#c4ae74" transform="matrix(-15.47136 7.57934 -15.21155 -31.05064 83.8 106.2)"/><circle cx="165" cy="84" r="46" fill="#ff8c95"/><circle r="1" fill="#ff7c8e" transform="matrix(129.37622 29.78128 -6.6771 29.00676 84.5 244.1)"/><path fill="#558282" d="M98 190l-42-4-33-24z"/><path fill="#d8d5aa" d="M148.4 174.1l14.1-3.3L185 191l-38.7-1.7z"/><path fill="#861c1a" d="M108.8 199.6l13 2.9-56.5-70.6 18.1-7.3z"/><path fill="#240f00" d="M60 118L40 76h20z"/><circle r="1" fill="#fc556d" transform="rotate(97.2 -42.6 99.1) scale(10.80041 32.92275)"/><circle r="1" fill="#a99f80" transform="rotate(-66.8 27 -14.8) scale(26.20684 39.1485)"/><path fill="#7d9b97" d="M144 210.4l-2.4 6.5L72 191.6l2.4-6.5z"/><path fill="#530000" d="M175 192l10 14-32-16z"/><path fill="#ff3b5d" d="M39 176l-55-42v21z"/><path fill="#d02634" d="M93 196l46 21-47 3z"/><circle r="1" fill="#735f52" transform="rotate(-144.7 20.4 26.8) scale(6.02797 38.74513)"/><path fill="#c9ab80" d="M87 74l-54 1 23-40z"/><path fill="#ed3049" d="M59.1 186.9L13 214.2l20.6-22.8-4.4-22.8z"/><path fill="#a01215" d="M3.8 124.2l.1 19.9 40.2-18-43.7.5z"/><path fill="#8d3d3a" d="M148 217.5l-23.3-30.3 9.9 5.8.1 16.4z"/><path fill="#737863" d="M23 100.5l18.7-13.7 21-3.6-48.1 25.6z"/><circle r="1" fill="#ff4865" transform="matrix(30.01107 8.60554 -5.05897 17.64273 156.1 153.3)"/><path fill="#7681ae" d="M117.6 52.2L76.2 64l-5.8-20.2L111.8 32z"/><circle r="1" fill="#e8646e" transform="matrix(39.99782 -29.27398 9.85443 13.46437 169.2 84.7)"/><circle r="1" fill="#ff8594" transform="matrix(3.66186 -13.66625 30.25631 8.10715 109.4 74.6)"/><circle r="1" fill="#9d2e28" transform="matrix(22.61347 21.29479 -5.58528 5.93115 84.1 144.2)"/><circle r="1" fill="#f9b0b4" transform="matrix(-.59626 -11.44038 39.5477 -2.06117 169 52.1)"/><path fill="#fab" d="M185 233.6l-76.1-29.3 58 16.2-43.3 19z"/><path fill="#9b3739" d="M152.6 202.9l-6.2-7.4 6.8 17.7 14.4 1.9z"/><path fill="#595e85" d="M62-6l60 6-56 14z"/><path fill="#e0ac8a" d="M70.8 99.8l83.5 119.8L68.5 56.9 64 58.3z"/><path fill="#ff6c7b" d="M15.8 168.4l90.7 36.6-63.6-5.2 22.9 2z"/><path fill="#e1eee9" d="M134 212v-11l-15 6z"/><path fill="#cd5149" d="M104.2 119l25.6 42.9-16.9-67.8-23.5.8z"/><path fill="#0e0000" d="M14 95l43-15-27-3z"/><path fill="#874538" d="M-3.9 159.2l-12.1 4 63.1 41.5-3.7-9.7z"/><path fill="#94684b" d="M59.1 119.2l7.1-67.6-2.3 50 39.4 51.1z"/><path fill="#9d9582" d="M17.7 91.2l-7.5-6.7 32.1-35.7 7.5 6.7z"/><path fill="#521a10" d="M103 181.9l17.1 18.4 9.9 8.4-17.4-8.2z"/><path fill="#77897e" d="M38.6 170.6l-51.9-44 10.6-31.3 2.8 53.2z"/><circle r="1" fill="#d3af92" transform="matrix(-22.70082 -27.5383 2.72928 -2.24985 169.1 212.2)"/><circle cx="8" cy="192" r="16" fill="#a67b64"/><path fill="#ae4e30" d="M-1.8 98l-1.9.7 15.2.2-27.5 35.7z"/><circle cx="37" cy="232" r="31" fill="#fb7b8b"/><circle r="1" fill="#e0b5b1" transform="matrix(2.00035 3.36279 -6.77006 4.02717 13.2 199.6)"/><circle r="1" fill="#e73f54" transform="matrix(-.08393 12.02129 -16.22046 -.11324 85.6 173.6)"/><path fill="#f48e8f" d="M142 105h28v24h-28z"/><path fill="#1d1415" d="M43 176l8 5 8-1z"/><path fill="#d22e3d" d="M65.8 208.9l-32.9-24.7-2.4 18.9-14.3-7.2z"/><path fill="#61231a" d="M62.7 86.9l5.9 13.8-28.7 6 22-12.5z"/><path fill="#d3a982" d="M117.7 194.1l10.4 13.3-23.5-89.4 2.5 58.9z"/><ellipse cx="99" cy="213" fill="#a00812" rx="10" ry="4"/><path fill="#ed4456" d="M129 155l-22-42 68 25z"/><path fill="#b9775f" d="M67.3 43l-8.4 13.3 16.6 10.8 41.3 66.2z"/><path fill="#f16269" d="M114 209l-3 14 53 2z"/><circle r="1" fill="#da404a" transform="matrix(-17.5913 -7.03685 .73748 -1.8436 124 103.3)"/><path fill="#4a0b03" d="M17 107L9 93l20-10z"/><path fill="#acb2ad" d="M65 37.5L53.1 60.1l21.1-19.7L59-2.7z"/><circle r="1" fill="#8684a4" transform="matrix(-70.9271 24.78903 -6.61274 -18.92056 150 22.8)"/><path fill="#c33839" d="M74 135L7 110l39-14z"/><path fill="#680d09" d="M131.6 195.6l.8-.5 10 17.3-.8.5z"/><path fill="#da3e46" d="M185 99V75l-32 4z"/><path fill="#b71626" d="M102.8 171.5l-1.1-12.8-40.5-36.5 18.9 29z"/><circle r="1" fill="#ff7f92" transform="matrix(6.64308 23.21528 -81.69638 23.37752 134.8 253.2)"/><circle r="1" fill="#f48c95" transform="matrix(19.33902 19.13756 -15.90095 16.06834 125.4 77)"/><path fill="#e64e5c" d="M58.2 121.6l-24.6 42.7 15.6 11.6 18.9-20.5z"/><path fill="#b0a692" d="M48 0h13v75H48z"/><path fill="#bb8459" d="M160.3 197.4l-10.5-9.5-25.9-27.6-33-60.6z"/><path fill="#f593aa" d="M43.9 217.3L34.4 236 20 228.7l9.5-18.7z"/><path fill="#b03b42" d="M145.4 196.9l17.6 21.2 22 7-31.6-17.4z"/><path fill="#f87080" d="M107 220l-50-16-34 40z"/><circle r="1" fill="#d72634" transform="matrix(-1.83056 2.03692 -7.9717 -7.16408 169 201.9)"/><path fill="#ff647b" d="M185 168l-52-11 13 14z"/><path fill="#8b8a8a" d="M63 181.7l-48.2-28.4 7.9 7.3 14.8 12z"/><path fill="#2b0904" d="M62.3 97.1l-8.8 11-3.8-3.2 8.8-11z"/><circle r="1" fill="#6d281c" transform="matrix(6.9802 8.9509 -1.60261 1.24977 94.6 151)"/><path fill="#cc4249" d="M-15.2 202.1l30.8 2.1 9-5.3-5.7 12.1z"/><path fill="#887d74" d="M89.8 195.4l3-6.2 23.4 11.4-3 6.2z"/><path fill="#a06d60" d="M30.1 100.5l6 .2 19-15.7-3.9-.3z"/><path fill="#100" d="M29 78h36v4H29z"/><ellipse cx="105" cy="182" fill="#783520" rx="3" ry="8"/><path fill="#fd868d" d="M49 196l12-9 35 15z"/><path fill="#947c6c" d="M22.6 32.1l20.6 31.8 3.3-47L-11.9 78z"/><path fill="#ffa2a6" d="M180 243l-3-20-48 7z"/><path fill="#cef4f1" d="M127.7 209.4l.4-1 18.2 8.2-.4 1z"/><path fill="#ae1720" d="M37.4 131.9l6 7.8-38.3-4.6-3.1-8.5z"/><path fill="#f0cbcd" d="M134 62l3-8h24z"/></g></g></svg>