<svg xmlns="http://www.w3.org/2000/svg" viewBox="0 0 933 1400"><defs/><filter id="a"><feGaussianBlur stdDeviation="12"/></filter><rect width="100%" height="100%" fill="#472e2c"/><g filter="url(#a)"><g fill-opacity=".5" transform="translate(2.7 2.7) scale(5.46875)"><circle r="1" fill="#fecfd9" transform="matrix(-164.7325 -37.7386 37.21572 -162.45012 80.1 142.4)"/><circle r="1" fill="#470900" transform="matrix(-48.2959 -32.23879 16.48875 -24.70128 93.3 149.1)"/><circle cx="105" cy="255" r="68" fill="#ffc4e3"/><ellipse cx="29" cy="72" rx="19" ry="27"/><circle r="1" fill="#fffff3" transform="rotate(-57.1 123.2 -53) scale(24.14192 35.79988)"/><circle r="1" fill="#7898ed" transform="rotate(174 -1.3 93.3) scale(31.95273 115.82341)"/><circle r="1" fill="#ffa2b6" transform="matrix(-125.74223 -21.24949 6.63221 -39.2456 169 238.9)"/><path fill="#8f201f" d="M33 179h137v17H33z"/><circle r="1" fill="#000302" transform="rotate(-36 299.9 -98.6) scale(30.16903 12.65422)"/><circle r="1" fill="#737057" transform="matrix(124.22096 19.51589 -4.28994 27.30597 86.5 25)"/><path fill="#faffeb" d="M9 122.1l-35-71.9L-9 42l35 71.9z"/><circle r="1" fill="#ed8b5e" transform="matrix(-31.80066 32.13544 -5.68153 -5.62234 95.9 149.2)"/><ellipse cx="25" cy="73" rx="15" ry="24"/><path fill="#fffee9" d="M130 134l27 9-47-73z"/><circle r="1" fill="#9e4e2e" transform="rotate(54.6 -68.1 114) scale(40.25742 17.17238)"/><ellipse cx="153" cy="168" fill="#f9af8c" rx="26" ry="12"/><circle r="1" fill="#6e669b" transform="matrix(7.43673 40.11242 -42.39893 7.86064 23.1 168)"/><path fill="#3f4f3a" d="M140 121l7-30 38 4z"/><ellipse cx="96" cy="244" fill="#ffaaba" rx="55" ry="54"/><path fill="#f9fff9" d="M123.3 59.7L78.6 76.5 64.7 56.7l15.5-2.2z"/><path fill="#854414" d="M41 128h11v64H41z"/><circle r="1" fill="#c7bdb1" transform="matrix(-14.57602 -13.06612 24.6085 -27.45223 119 87.2)"/><path fill="#593024" d="M52 94v51l21-76z"/><path fill="#e3a7b6" d="M181 98l-10 68-28-31z"/><path fill="#192424" d="M122 131l-32 51 65-34z"/><path fill="#200103" d="M94.7 165.7l10.9-4.7 54 36.8-10.4-1.6z"/><path fill="#d8865d" d="M43 61h27v26H43z"/><circle r="1" fill="#a98e76" transform="rotate(168.3 .5 59.8) scale(88.74897 9.11062)"/><path fill="#ad2d0c" d="M114 102h6v30h-6z"/><path fill="#d8a688" d="M58 162h16v25H58z"/><path fill="#411408" d="M72.7 162.1l-13-13.9L77.3 132l13 13.9z"/><path fill="#ccdbdb" d="M16.9 48.2L-16 126.3l39.1-23.7L-3 55.4z"/><path fill="#f24d68" d="M159.3 207l-48.7-11.2 2-8.8 48.8 11.2z"/><path fill="#746d57" d="M147 47h17v74h-17z"/><path fill="#636ec4" d="M32 170l18 32-10 39z"/><path fill="#43493b" d="M48 61L0 47l65-2z"/><circle r="1" fill="#fa99ab" transform="matrix(-2.72644 17.6861 -115.24186 -17.76535 165.5 219.5)"/><path fill="#412928" d="M72.3 173.3L58.4 96l-10.5 33.3L61 144.7z"/><path fill="#a8b6b3" d="M134 53h13v58h-13z"/><path fill="#7c88d8" d="M59 140l-12 26 20 3z"/><circle r="1" fill="#040e0d" transform="matrix(5.42255 16.76838 -9.99023 3.23063 20.2 76.3)"/><path fill="#d5d6cf" d="M95.6 45h-4l-1.2-66h4z"/><path fill="#000301" d="M93 123h9v11h-9z"/><circle r="1" fill="#f7f3ef" transform="rotate(-42 148 -105.5) scale(7.15788 24.34257)"/><path fill="#3052bc" d="M152 134h18v6h-18z"/><path fill="#d49978" d="M54 176.7l45.3-23.8 22.1-60.3L93.8 147z"/><ellipse cx="81" cy="106" fill="#ae6d5a" rx="18" ry="17"/><ellipse cx="58" cy="13" fill="#383630" rx="32" ry="2"/><path fill="#3f402d" d="M148 .4l3.9 7.6L182-16 92.3 1.7z"/><ellipse cx="17" cy="108" fill="#d0d9e2" rx="10" ry="12"/><path fill="#becfbb" d="M185 128.5l-57.2 7.5 53.4-26.5-35.3-3z"/><path fill="#ff6c86" d="M184 141l-33-1 34 61z"/><path fill="#969793" d="M124.3 54.7L185 85.4l-82.3-36.8 35.6 47.2z"/><path fill="#c1c6cb" d="M43 121l-36 5 26 7z"/><path fill="#998e81" d="M12 5h39v43H12z"/><path fill="#2f271f" d="M107 44h36v3h-36z"/><circle r="1" fill="#a03725" transform="matrix(3.38302 3.19823 -21.52293 22.76647 99.5 154.2)"/><path fill="#e6d8d2" d="M110 114.8l14.2-31 11.5 15.9-51.1 6z"/><path fill="#7b3012" d="M67 67h5v19h-5z"/><path fill="#e7cfcd" d="M64 200.9l44.5 7.1 27.2-.4-38.3-15.2z"/><path fill="#7a3d30" d="M26.8 98.4l-2 32.7 11.6-49.6 47.3 14.7z"/><path fill="#dacabc" d="M160.8 147.1l-31.4-44-9.9 27.9 17.3 9.1z"/><path fill="#787bbf" d="M0 129h39v41H0z"/><path fill="#522021" d="M81 187l-28 9-16-8z"/><path fill="#b1382b" d="M136 177h34v20h-34z"/><circle r="1" fill="#ffb4c5" transform="rotate(-34.9 428.8 19.4) scale(30.80452 24.02588)"/><path fill="#b17150" d="M40.5 150l-3 37.7 13.7-20.9L40 141.3z"/><path fill="#ca8162" d="M49.1 196.3l59.7-53.9-5.8-26.2L135.8 94z"/><path fill="#8a6a3b" d="M23 125.2l-34.9-.1 6.3-4.8 37.1 2.7z"/><path fill="#dec09d" d="M69 68l-9 5-8-27z"/><path fill="#171d0a" d="M180 65h-23l28 10z"/><circle cx="84" cy="183" r="10" fill="#774e34"/><path fill="#3d332e" d="M139.1 55.6L56.7 45.4l.2-1 82.4 10.2z"/><path fill="#d6bba5" d="M159.8 160.9l-3.4 26-9.6-9.8-1.4-21.9z"/><circle r="1" fill="#8d8fcc" transform="matrix(23.64406 -26.3655 17.61722 15.79878 16.8 232.2)"/><path fill="#764f43" d="M151.4 17l-16.1 16.5 48.6 7-47.7-23z"/><path fill="#4f210e" d="M59 131l-9 25-6-8z"/><ellipse cx="89" cy="37" fill="#5e4f46" rx="59" ry="2"/><path fill="#f7f3e8" d="M72 65l16 19-13 4z"/><path fill="#58574a" d="M149 149l9 3 8 13z"/><path fill="#aea096" d="M55 21L40 36h31z"/><circle r="1" fill="#4e403b" transform="matrix(-74.86487 4.1856 -.05582 -.99844 17.2 15)"/><path fill="#c5805f" d="M92.8 128.4l.4 21-6 .2-.4-21z"/><ellipse cx="167" cy="55" fill="#473631" rx="14" ry="4"/><path fill="#6b6664" d="M135 157l-9-15 33 9z"/><path fill="#c8845b" d="M51 174h24v15H51z"/><path fill="#1c1510" d="M139 114l12 4-9 2z"/><path fill="#ff5267" d="M105 175l4-3-2 8z"/><path fill="#efeae6" d="M151 131l-24-29 10 31z"/><path fill="#4f4137" d="M95 26h52v3H95z"/><path fill="#aaa8a9" d="M2 7h34v6H2z"/><path fill="#bbb4ae" d="M27 110l7-15 6 35z"/><path fill="#bea093" d="M103.1 86.3l-2 42.9-15.3-47.7-6.3-18.6z"/><path fill="#b69479" d="M152.7 137.9l-22.8.2 13.1-18.7-24.5 11.8z"/><ellipse cx="105" cy="213" fill="#f4809a" rx="58" ry="4"/><path fill="#1b1210" d="M147.6 103.5l-.2-3 37-2 .2 3z"/><circle r="1" fill="#ffa0b5" transform="matrix(27.54417 -42.11802 24.89944 16.28363 169 233.3)"/><path fill="#151012" d="M112 152h11v31h-11z"/><path fill="#bd9d88" d="M137 45h33v6h-33z"/><path fill="#291714" d="M67.6 88.3l3.7 4.6-10.9 8.8-3.7-4.6z"/></g></g></svg>