<svg xmlns="http://www.w3.org/2000/svg" viewBox="0 0 1400 933"><defs/><filter id="a"><feGaussianBlur stdDeviation="12"/></filter><rect width="100%" height="100%" fill="#5b342a"/><g filter="url(#a)"><g fill-opacity=".5" transform="translate(2.7 2.7) scale(5.46875)"><circle r="1" fill="#fff" transform="rotate(-58.6 148.8 -47) scale(107.8223 255)"/><circle r="1" fill="#fff" transform="matrix(-56.8419 -13.43686 24.79094 -104.87307 82.3 31.6)"/><circle r="1" fill="#efffff" transform="matrix(34.65238 9.47982 -23.506 85.92345 198.9 143.8)"/><circle r="1" fill="#ff463a" transform="matrix(-13.19173 -30.14582 57.17955 -25.02162 121.3 123.6)"/><circle r="1" fill="#fff" transform="matrix(13.42762 -126.69256 35.60431 3.77355 66.5 51.3)"/><path fill="#ad1e00" d="M193.3 23l19.8 18.3-46.4 49.8-19.8-18.4z"/><circle r="1" fill="#ffd6bc" transform="rotate(-144.1 74.4 -3) scale(24.02755 99.84884)"/><path fill="#99674a" d="M239 0h17v144h-17z"/><ellipse cx="11" cy="75" fill="#474246" rx="16" ry="40"/><circle r="1" fill="#fbffff" transform="matrix(33.30182 -15.73658 5.69517 12.05214 194 84)"/><ellipse cx="141" cy="169" fill="#feffff" rx="31" ry="20"/><ellipse cx="122" cy="13" fill="#8d5c42" rx="78" ry="5"/><ellipse cx="89" cy="157" fill="#ff556d" rx="23" ry="31"/><path fill="#150400" d="M176 46l43-62-44 35z"/><circle r="1" fill="#cefbfc" transform="matrix(-22.36342 -69.1693 22.01413 -7.11748 217.6 136)"/><circle r="1" fill="#fff" transform="matrix(-12.8466 1.14913 -7.67923 -85.84932 33 21.5)"/><ellipse cx="154" cy="113" fill="#a73b15" rx="30" ry="16"/><path fill="#381100" d="M28 157.5L8.7 185l.6-23.8 25.9-25.3z"/><path fill="#d8c5a9" d="M252 90l17-46-34-6z"/><path fill="#e58756" d="M192.8 113.2l-82.7-69.3-5.9 18.7 40.5 46.5z"/><circle r="1" fill="#fff" transform="matrix(32.4343 3.3501 -4.71814 45.67899 73 65.3)"/><path fill="#210f18" d="M240 58h7v74h-7z"/><circle r="1" fill="#fffbf2" transform="rotate(-141 73 -2.3) scale(28.20014 20.08451)"/><ellipse cx="219" fill="#0e181b" rx="28" ry="40"/><path fill="#b67950" d="M42 12h15v24H42z"/><path fill="#d53c31" d="M120 61l3 87 38 1z"/><path fill="#d4713d" d="M235.1 55.9l-53.7-28.5 20.1-5.4-9.5 42.7z"/><path fill="#393231" d="M27 79l-10 31 13 6z"/><ellipse cx="72" cy="7" fill="#fff3f4" rx="53" ry="8"/><circle r="1" fill="#e5ffff" transform="rotate(-111.6 134.5 -30.6) scale(20.79441 28.76045)"/><path fill="#5e585c" d="M19.7-16L-15.1 8.2l37.8 30.2-4.1-33.9z"/><circle r="1" fill="#ff6170" transform="matrix(-14.63058 -12.43258 27.31397 -32.1429 99.5 138)"/><path fill="#533118" d="M175.7 2.1l-3.2 28.4 18.3 40.3 4.4-6.6z"/><ellipse cx="44" cy="126" fill="#fff6eb" rx="12" ry="59"/><path fill="#a31f13" d="M150 60h39v17h-39z"/><path fill="#de804d" d="M165 65L149 8l37 55z"/><path fill="#610008" d="M239 116h17v17h-17z"/><circle r="1" fill="#7c472c" transform="matrix(40.0986 -2.87055 .13479 1.88288 131.1 15.5)"/><path fill="#fff" d="M57 49l-26 60L19-9z"/><path fill="#5e3b2d" d="M168 107l-8 19 34-18z"/><path fill="#eff" d="M206 65l-25 39-15-19z"/><path fill="#ffefe7" d="M21 185l100.2-93.3 4.9-3.3-13.6-1.4z"/><ellipse cy="140" fill="#cbb7ae" rx="16" ry="33"/><path fill="#ff8a54" d="M139 128l16 21 17-18z"/><path fill="#ea8a61" d="M130.2 51.9L125 70.2 103.8 64l5.2-18.3z"/><ellipse cx="185" cy="169" fill="#d4e8e8" rx="70" ry="24"/><path fill="#fcdac9" d="M173 45l1-23-20-8z"/><path fill="#fff8f1" d="M151.9 61.2L48 19.1l104.4 1.3-28.7 57z"/><path fill="#f49a71" d="M160.8 102.2l-30.9-14.4 9.3-20 30.9 14.4z"/><circle r="1" fill="#e0867e" transform="matrix(40.2711 -36.95118 1.00729 1.09779 93 106.2)"/><circle r="1" fill="#efdfdc" transform="matrix(4.62996 -8.97039 1.89906 .98018 17.6 94.7)"/><circle r="1" fill="#2e2b2b" transform="matrix(-7.85642 7.29819 -3.39336 -3.65291 4 102.4)"/><path fill="#100b0c" d="M7 81h19v5H7z"/><path fill="#fff3ed" d="M38.2 68.5l-3 11.6-17.4-4.6 3-11.6z"/><ellipse cx="197" cy="140" fill="#c2dcdc" rx="27" ry="31"/><ellipse cy="56" rx="8" ry="4"/><circle r="1" fill="#ca9e7f" transform="rotate(-8 688.4 -1728.8) scale(3.02264 42.45362)"/><path fill="#ffa99d" d="M158 48l-25 27 33-19z"/><circle r="1" fill="#fffffe" transform="rotate(-108.4 62.3 1) scale(40.52003 23.46051)"/><path fill="#5b3219" d="M175 61l18 5-20 15z"/><ellipse cx="148" cy="7" fill="#9a846f" rx="30" ry="5"/><path fill="#fffbf6" d="M40 52L13 39l30-14z"/><path fill="#c53c3f" d="M147.3 146.8l-27.4 9.5-5.2-15.1 27.4-9.5z"/><path fill="#cec0c0" d="M22.5 59.2L-16 27l29.8-5.1-17.5 25.9z"/><path fill="#65524e" d="M238.8 132.4l6.6-42.8 25.6-3.9-34.2 17.4z"/><path fill="#2e2324" d="M19 49h5v14h-5z"/><path fill="#6b3618" d="M103 14h2v19h-2z"/><path fill="#362f34" d="M13 43l-9 4 13-28z"/><path fill="#ffd77e" d="M246 104h10v11h-10z"/><path fill="#a76c4d" d="M239-1.1l-23.7 14.9 46.8-22.9 8.9 50.7z"/><path fill="#6f4e40" d="M-13 179l47-19-3-27z"/><circle r="1" fill="#efffff" transform="matrix(-.66625 8.86087 -21.68935 -1.63083 215.3 69.5)"/><ellipse cx="92" cy="150" fill="#ff7077" rx="23" ry="25"/><path fill="#8d826c" d="M224.1 139.2l14.4-9.4 26.3 34.5-4.7-31.9z"/><path fill="#9e482c" d="M150.7 78l11.5 11-4.9 5-11.5-11z"/><path fill="#d87c4f" d="M217.1 39.1l18.4 27.4-55.2-39.9 25 35.1z"/><path fill="#5a3623" d="M173.3 6.2l-15.6 3.7 31.6 8.4L177 49.9z"/><path fill="#0f0c0d" d="M18.8 6.4l-25 7.1-.6-1.9 25-7.1z"/><circle r="1" fill="#beaba5" transform="matrix(25.83745 -20.5496 12.758 16.0409 3 140.2)"/><path fill="#19110b" d="M203 29h24v13h-24z"/><path fill="#bb171f" d="M154.2 78.3l24.3 3.4-.5-4.8-31.5-18.3z"/><path fill="#ffe8de" d="M147 69l-32-28 39-22z"/><path fill="#9f6f50" d="M47 13h10l-7 16z"/><circle cx="11" cy="12" r="3" fill="#fff"/><path fill="#b62d23" d="M124 108l37 26-34-47z"/><ellipse cx="116" cy="130" fill="#f95562" rx="16" ry="27"/><path fill="#bf724b" d="M151.8 4.5l9.3 20.9 7.1 29.3-13.8-14.9z"/><path fill="#cf684c" d="M153 56h55v6h-55z"/><path fill="#9e2d23" d="M129 148h34l-32-12z"/><path fill="#b4a5a4" d="M-16 73.4l32-7.3-22.4 19.6 44.5 13.7z"/><circle r="1" fill="#f86774" transform="matrix(-24.0169 24.53527 -.71462 -.69952 83.4 113.1)"/><ellipse cx="222" cy="3" fill="#4e4040" rx="21" ry="12"/><path fill="#496663" d="M200.8 103.5l.1-.8-24.9 12.4 19.5-5.8z"/><path fill="#4c311d" d="M196.7 50.8l-6.1 8-17.3-13.6 6.1-8z"/><circle r="1" fill="#201822" transform="matrix(-.99669 .0813 -2.55653 -31.34246 242.2 90.4)"/><path d="M27.8 92.4l.6.8-10.2 6.4-.6-.8z"/><path fill="#cfb7a5" d="M241 40l-3 14 33-9z"/><path fill="#fc9071" d="M178.3 121.9l-16.4 20.2 2.1 10.7-17.2-14.7z"/><circle r="1" fill="#c85756" transform="rotate(145 42.8 60.8) scale(13.14616 1)"/><path fill="#d9beaa" d="M188.7 6.8l-55.2 17 41.9-10.1 6.1-17.1z"/></g></g></svg>