<svg xmlns="http://www.w3.org/2000/svg" viewBox="0 0 1400 933"><defs/><filter id="a"><feGaussianBlur stdDeviation="12"/></filter><rect width="100%" height="100%" fill="#57362b"/><g filter="url(#a)"><g fill-opacity=".5" transform="translate(2.7 2.7) scale(5.46875)"><circle r="1" fill="#ffc9cb" transform="matrix(-103.72366 -63.56194 133.23713 -217.42323 147 117)"/><circle r="1" fill="#5f2d1e" transform="rotate(-75.2 86.1 3.5) scale(54.55173 106.59824)"/><circle r="1" fill="#ffb1c0" transform="matrix(55.28731 -15.16347 24.02408 87.59386 218.9 45)"/><circle r="1" fill="#fff" transform="matrix(167.48789 7.60558 -.62492 13.76175 97 160.7)"/><circle r="1" fill="#fff" transform="matrix(-43.79882 -11.40874 3.92594 -15.0719 74.3 .5)"/><circle r="1" fill="#000c07" transform="matrix(-5.56344 19.66079 -50.67307 -14.33903 56.4 57.7)"/><ellipse cx="186" cy="110" fill="#de5159" rx="102" ry="48"/><circle r="1" fill="#3d1400" transform="matrix(-10.90647 1.72032 -8.38829 -53.1801 130.2 16.3)"/><ellipse cx="219" cy="27" fill="#ffe4e1" rx="60" ry="25"/><circle r="1" fill="#465f46" transform="matrix(-29.95417 -27.54427 11.01861 -11.98265 165.8 119.5)"/><path fill="#c69a73" d="M58.3 116l-84-32.2L-14.3 54l84 32.3z"/><path fill="#f1ffff" d="M235 169L2 183l88-44z"/><path fill="#ffb0bd" d="M113.4 87.9l-17.3-75L116.6 8l17.3 75z"/><path fill="#111b0b" d="M81.7 145.6l-51 .8-.4-18 51-.8z"/><circle r="1" fill="#6c8272" transform="matrix(5.70055 -11.06738 50.40225 25.961 64.3 18.6)"/><circle cx="208" cy="70" r="47" fill="#ff8995"/><path fill="#cae7d4" d="M-12 149l8.4-25.6L26 133l-8.3 25.6z"/><ellipse cx="181" cy="145" fill="#8b3036" rx="55" ry="9"/><ellipse cx="227" fill="#0c923a" rx="39" ry="4"/><path fill="#070000" d="M76.2 74.1l22 6.4-4.4 15.4-22-6.4z"/><path fill="#dfffef" d="M162 3h94v13h-94z"/><circle r="1" fill="#fd586c" transform="rotate(-143.8 140.3 26.5) scale(53.99788 24.02268)"/><circle r="1" fill="#7d3b27" transform="matrix(-13.24324 13.28955 -29.0316 -28.93044 11.8 101.7)"/><circle r="1" fill="#3f4b40" transform="matrix(-60.67305 -25.62388 6.76087 -16.00861 50.7 34.1)"/><path fill="#b7ccb2" d="M118 114l-29-5-20-25z"/><circle r="1" fill="#f9fff8" transform="matrix(-1.28404 7.5917 -29.31836 -4.95883 77.3 0)"/><path fill="#ff5f73" d="M105 68h27v38h-27z"/><path fill="#a68662" d="M138 11h24v89h-24z"/><path fill="#010000" d="M166 129l-21-19 4-11z"/><circle r="1" fill="#101310" transform="matrix(-51.89876 -40.47448 10.3335 -13.25023 0 33)"/><ellipse cx="250" cy="155" fill="#be2830" rx="47" ry="7"/><path fill="#394a42" d="M98 111l83.6 32.7 67.8 9.3-108.1-32.1z"/><path fill="#bba78b" d="M179 102h19v32h-19z"/><circle r="1" fill="#f52443" transform="matrix(4.1384 -9.62564 12.08044 5.1938 .2 113.6)"/><path fill="#341f10" d="M129 43l6 50 6-24z"/><circle r="1" fill="#c9ac9a" transform="matrix(11.95486 12.16536 -2.60282 2.55779 140.4 112.5)"/><path fill="#3d211a" d="M92 133h34v7H92z"/><path fill="#ffd6d9" d="M158 0l3 27 92 6z"/><circle r="1" fill="#0f0600" transform="rotate(-150.1 40.2 -3.6) scale(16.03357 1)"/><path fill="#c8a48a" d="M20 70l37 8 27 46z"/><path fill="#898377" d="M20.7 4.6L26.2-6l89 45.4-5.4 10.6z"/><path fill="#ffc8c9" d="M123.1 66l-3.7-52.6-74-29.4 81.3 65.1z"/><path fill="#e9f9ee" d="M184.3 158.9l75.1 16.5 11.1-10.7-58.3-4.9z"/><circle cx="104" cy="165" r="26" fill="#e2e9df"/><path fill="#757f6e" d="M18 137h39v15H18z"/><path fill="#ff8892" d="M116.7 19l-6.4 50.6L98.4 93l34.1-21.9z"/><ellipse cx="236" cy="38" fill="#ffb6b9" rx="75" ry="21"/><path fill="#53301e" d="M87 145l-99-26 87-1z"/><ellipse cx="127" cy="19" fill="#462413" rx="7" ry="24"/><path fill="#dd3844" d="M149 143l40 15 40-10z"/><path fill="#a7866d" d="M170.2 129.9l-38.3-71.6 73.6 75.2-37.3-49.7z"/><path fill="#f55062" d="M102.9 114L85 117.1l16.5 11.7 58.5 12.6z"/><path fill="#29190a" d="M165.9 99.5l10 31.3-.4-7.4-3.6-26.1z"/><circle r="1" fill="#27100d" transform="matrix(-17.95548 -5.35276 3.45449 -11.58785 84 76.3)"/><circle r="1" fill="#ff7b8d" transform="rotate(10.4 -275 1208.8) scale(53.93539 15.36831)"/><circle r="1" fill="#966c4d" transform="rotate(-128.2 49.1 45.7) scale(18.96363 13.70843)"/><path fill="#330707" d="M126 123h24v4h-24z"/><ellipse cx="239" cy="1" fill="#71a073" rx="83" ry="3"/><circle r="1" fill="#160b07" transform="matrix(-2.0791 6.35854 -46.3836 -15.1664 28.8 61.9)"/><path fill="#aa8167" d="M18.4 64.3l81.5 67.9L22.2 84l-36.9-28.3z"/><ellipse cx="15" cy="139" fill="#b3b4a9" rx="29" ry="3"/><circle r="1" fill="#da3346" transform="rotate(-61.8 137 -39.8) scale(6.18971 19.02931)"/><ellipse cx="59" cy="142" fill="#27211d" rx="24" ry="3"/><path fill="#593d30" d="M136 140l-44-15-19 13z"/><ellipse cx="138" cy="6" fill="#9b694f" rx="9" ry="31"/><path fill="#584336" d="M109 40l10.9 6.7L100.7 29l12.1 23.2z"/><path fill="#e1ede1" d="M158 2h39v10h-39z"/><path fill="#bc3137" d="M171 153l-16-27-29 18z"/><circle r="1" fill="#493924" transform="rotate(144.9 -8.5 58.1) scale(4.56324 35.16901)"/><path fill="#c7c1b4" d="M126 143l-51 6 18-11z"/><path fill="#d1d9cb" d="M5 127l-21-4 25 62z"/><circle r="1" fill="#30291f" transform="rotate(-52.4 75.2 -84.2) scale(1 25.74229)"/><ellipse cx="253" cy="96" fill="#ffaba9" rx="21" ry="7"/><path fill="#aba69a" d="M13.2-16L47.4-2.9l54.4 35 5.4 11.3z"/><path fill="#291813" d="M77.8 56.2l-4.6 38.1L95.5 87l-72-20z"/><path fill="#4c534c" d="M210.8 139.1l-2.7 11.7-42.9-9.9 2.7-11.7z"/><ellipse cx="90" cy="2" fill="#dee9df" rx="27" ry="8"/><path fill="#a9a398" d="M196.5 135.8l-77.3-20.7.3-1 77.3 20.8z"/><path fill="#c3a38c" d="M28 73l27 16 16-9z"/><ellipse cx="206" cy="83" fill="#f46c75" rx="45" ry="10"/><circle r="1" fill="#525044" transform="matrix(-4.83756 8.24542 -48.40127 -28.39686 51 28.8)"/><path fill="#e6c9c4" d="M189 131.3l4.7-10 7.2 3.4-4.6 10z"/><path fill="#3c231c" d="M113.5-8.9l16 64.2-5.2-71.3L85.2-4z"/><circle r="1" fill="#34342c" transform="matrix(53.3231 33.83986 -8.4024 13.24008 0 17.9)"/><path fill="#d7e2d4" d="M108 146l-69 30-55-15z"/><path fill="#fe939e" d="M162.5 22.8l73.7 51.3-65.1 1.8-8.6-3.7z"/><circle r="1" fill="#e7eee4" transform="matrix(8.97513 -9.01873 16.64439 16.56391 157.3 169)"/><path fill="#b19f9b" d="M243.2 149.9l-26.3-7.2 40.9 15.6 13.2 8.4z"/><path d="M159 115v8h-6v-8z"/><path fill="#2d251c" d="M83.9 146.3L50 142.4l20.5-7.3L56 111.9z"/><path fill="#6a4c3b" d="M109.3 47.5L96.9 71.8l9.6 11.6 3.2-12.4z"/><path fill="#d8cbbb" d="M111 111L80 92l11 14z"/><ellipse cx="224" cy="125" fill="#f9697b" rx="26" ry="18"/><circle r="1" fill="#997b6d" transform="matrix(40.54929 9.08674 -.33214 1.48215 113.3 132)"/><path fill="#987f67" d="M142 92l31-1 25 23z"/><path fill="#d94956" d="M122.2 115.6l-28.6-12.3 12.8-24.6L135 99.9z"/><path fill="#626051" d="M126.7 113.7l9.7 8.8 26.5 8.9-33.1-22z"/><path fill="#7c6a4e" d="M58 83l26 34 12-6z"/><path fill="#fc6975" d="M169 144l15 8 18-2z"/><path fill="#4f0303" d="M154.1 129.4l-38.7-12.3 13.6 6.8 12.8 5.8z"/></g></g></svg>