<svg xmlns="http://www.w3.org/2000/svg" viewBox="0 0 1400 933"><defs/><filter id="a"><feGaussianBlur stdDeviation="12"/></filter><rect width="100%" height="100%" fill="#4f3f2f"/><g filter="url(#a)"><g fill-opacity=".5" transform="translate(2.7 2.7) scale(5.46875)"><ellipse cx="120" cy="73" fill="#f6fff8" rx="255" ry="111"/><circle r="1" fill="#0d1200" transform="matrix(-1.41543 -16.46134 123.5512 -10.62358 95.2 58.4)"/><ellipse cx="34" cy="18" fill="#fff" rx="102" ry="23"/><circle r="1" fill="#fff" transform="rotate(65.2 26.6 238.9) scale(30.10744 55.29689)"/><path fill="#080000" d="M172.7 103.8l56.1-25.4-76.6 58.6-121.4 24.9z"/><circle r="1" fill="#fffcf6" transform="rotate(-106.1 100.9 4.7) scale(16.95858 81.19938)"/><circle r="1" fill="#d9e6ea" transform="matrix(8.0804 -24.32485 71.48769 23.7473 225 18.7)"/><ellipse cx="32" cy="142" fill="#583e22" rx="37" ry="16"/><circle r="1" fill="#4e4528" transform="matrix(52.0531 3.9139 -.99397 13.21937 225.9 64)"/><path fill="#fff" d="M173 148l-35-4 71-46z"/><path fill="#534127" d="M182 143l-80 42 144-16z"/><path fill="#251701" d="M112.1 68.3L2.4 91.5-16 108.6 90.9 75.5z"/><path fill="#243514" d="M54 38h55v30H54z"/><circle r="1" fill="#fbf9f0" transform="matrix(1.42733 3.70899 -40.1367 15.44581 107.1 80.5)"/><path fill="#c1c9ca" d="M172.6 21.2L166 52.5l-64.6-13.7L108 7.5z"/><circle r="1" transform="matrix(-44.08356 19.17492 -2.48532 -5.71382 159.5 115.5)"/><path fill="#2a3920" d="M59.6 71.5L21.2 40.9l-36.5 17.9 9.7 22.3z"/><path fill="#fbecde" d="M96.1 132.2l-80.7-28.8L88.5 148l12.5-3z"/><circle r="1" fill="#f3f4f1" transform="matrix(-1.71985 -15.72725 66.58389 -7.28128 33.8 27.7)"/><ellipse cx="238" cy="108" fill="#f7f1e3" rx="30" ry="32"/><circle r="1" fill="#a27b58" transform="matrix(1.20842 -11.89668 63.83827 6.48446 170.6 66.8)"/><path fill="#fff" d="M271 169l-38-10 38-21z"/><path d="M181 150h21v9h-21z"/><path fill="#937553" d="M136.6 154.6l-88-42.1 56.9 11.2-62.1 37z"/><path fill="#241b0f" d="M41 144l-12 24 31-17z"/><circle r="1" fill="#76b6c6" transform="matrix(2.36558 9.09624 -57.40149 14.9279 29.7 103.4)"/><path fill="#467088" d="M153.3 45.4l106.6 14.1-23.3-10.6-74-20.6z"/><path fill="#e7c8a3" d="M148.2 157.6l-84.6 24.3-3.8-13.5 84.6-24.3z"/><path fill="#e2dedc" d="M70.5 105.7l42.3 25.1 27.4-14.6 38.2-46.5z"/><circle r="1" fill="#a38a6b" transform="matrix(2.71166 -9.83031 30.31031 8.361 29.2 129.3)"/><path fill="#94a2a4" d="M163 41l90-20L119 3z"/><path fill="#343c26" d="M65 34l73 22L17 69z"/><path fill="#859595" d="M91-16L83 7 14 2z"/><path fill="#fdf4ee" d="M17.8 110.4L38 122.3l47.8 13.1-61.4-31.9z"/><circle r="1" fill="#b8a486" transform="matrix(.97425 -7.11238 29.51863 4.04344 192 165.7)"/><path fill="#e2d6cb" d="M204.6 69.6L91 137.9l101.5-44.5L225 72.7z"/><path fill="#e1ebe7" d="M37 161l-22-6-31 20z"/><circle r="1" fill="#403e1a" transform="matrix(-1.51951 -2.16205 25.24016 -17.73908 211.3 86.1)"/><ellipse cx="215" cy="131" fill="#fef2e0" rx="12" ry="25"/><path fill="#556b87" d="M202 126l-13 8 20-32z"/><path fill="#353621" d="M143.5 76.6l73.4-20.3-51.5-11 16.9 16.8z"/><path fill="#fff8eb" d="M171 125l48 12-74 8z"/><path fill="#35332a" d="M230 167.6l2.3-6.7 21.7 7.5-2.3 6.7z"/><path fill="#4c4940" d="M-16 123l15 37 34-18z"/><circle r="1" fill="#fff8ee" transform="rotate(165.6 125.2 34.7) scale(24.81128 8.34597)"/><circle r="1" fill="#211712" transform="rotate(-171.9 46.6 72) scale(13.01243 3.20274)"/><path fill="#af9574" d="M110 144l10 16 43-34z"/><path fill="#647663" d="M208 106l21 6-12-11z"/><path fill="#e7e6e3" d="M88.8 35.6l.1 9.9-42.2-30.2 77.6 4.5z"/><path fill="#e4e3df" d="M194.2-4.2l72.1-11.4 3.5 21.8-72.1 11.4z"/><circle r="1" fill="#fff4e9" transform="matrix(-1.15198 -3.18414 26.4317 -9.56262 112 78.7)"/><circle r="1" fill="#0f0c02" transform="matrix(34.72253 -14.53556 1.32173 3.15734 132.9 126.2)"/><path fill="#442e1c" d="M64.4 75.3l-73.7 27.6 53.6-13.6L75.4 82z"/><path fill="#4c3825" d="M18 113l33 16-12 4z"/><circle r="1" fill="#e3e5e1" transform="matrix(-1.29006 -13.60932 11.70538 -1.10958 37 37.2)"/><path fill="#262319" d="M175 155l41 5-24-16z"/><path fill="#8b6751" d="M120.3 73.5l58.1-40-59 25.3-45 24.7z"/><path fill="#ceb392" d="M50.7 131.7l7.6 24.6 6.3-11-36.3-8.8z"/><path fill="#289682" d="M239 154l23-15-42 13z"/><path fill="#504a24" d="M214.3 58.2l23.9 7.1-20.8.6-40 13.4z"/><path fill="#b4a794" d="M193 145l-16-6-20 18z"/><path fill="#cdd0cb" d="M136.2 42.7l36-27.1-48.8 3.2-59.6 15.4z"/><path fill="#88989d" d="M191 15L86-16l42 33z"/><circle r="1" fill="#b5a88e" transform="matrix(-1 -.0035 .08367 -23.9696 28.9 69)"/><circle r="1" fill="#c0976d" transform="matrix(-.56494 -1.66514 35.07975 -11.9016 94 96)"/><path fill="#2c2e00" d="M271 131v23l-19-26z"/><path fill="#1b1005" d="M-7 174l11 11 28-20z"/><path fill="#323617" d="M104 43l18 18 19-16z"/><path fill="#f8faef" d="M227.8 162.8l-17.3-8 1.7-3.6 17.3 8z"/><circle r="1" fill="#341808" transform="rotate(116.6 -27.4 44.4) scale(1.86761 17.53946)"/><path fill="#a5855b" d="M47.7 117.1l59.2 13.5-6.2 6.3-40-23.4z"/><circle r="1" fill="#394331" transform="matrix(.13079 -17.35629 13.3129 .10032 14.8 61.2)"/><path fill="#846b5a" d="M182 83.6l-10.9-21.4-40.7 14.2 35.1-37.2z"/><path fill="#fffdef" d="M103 88l-26-5 18-4z"/><path fill="#f3ddbe" d="M143.4 78.5l52.7-14-29.6 10.1-44 13.2z"/><path fill="#ede5d3" d="M221.4 139.3l49.6-8-23.1 11.7-48.5 11.7z"/><path fill="#2f5c72" d="M201 48h39v8h-39z"/><path fill="#4b3727" d="M72.8 139.1L-16 160.7l74.6-14.9 7.5-11.4z"/><path fill="#0c0f0d" d="M154 112l48-22-27 27z"/><path fill="#aca391" d="M-12.7 124l16-35.5-5.7 29.7 50.1 29.7z"/><ellipse cx="170" cy="85" fill="#eae5e5" rx="37" ry="7"/><path fill="#aca085" d="M65 67.4l-12.1.6 38.7 19.5-8.9-2.7z"/><circle r="1" fill="#c4ab83" transform="matrix(29.63899 -6.7548 .7654 3.35844 212.5 72.9)"/><path fill="#7f8f7d" d="M-12.8 63.1l4.9 14.4 22.3-1.2L-16 56.6z"/><path fill="#967857" d="M52 154l9.4 13L38 184l-9.4-13z"/><path fill="#c1ad93" d="M167 153l-61-12 9 33z"/><circle r="1" fill="#c39e6f" transform="matrix(.98019 2.70774 -55.80123 20.19976 102.8 90.8)"/><path fill="#4b4337" d="M199.6 90.8l-80.5 65.9 3.3-.8 10.6-8.2z"/><path fill="#1a0000" d="M144 166h10v4h-10z"/><path fill="#fffffd" d="M6 147h-22v12z"/><path fill="#eae6dc" d="M134.2 147.4l20.8-11.3 51.7-40.4-8.3 30.2z"/><path fill="#fef4dd" d="M226 160l45-16-8 18z"/><ellipse cx="237" cy="21" fill="#7d8b8d" rx="50" ry="3"/><path fill="#2a221a" d="M242 66h14v5h-14z"/><path fill="#d2c198" d="M41 84l-21-2 35-8z"/><path fill="#3e3327" d="M88.6 148.6L26 160.9l17.2-20.4 6.1 10.3z"/><path fill="#40462d" d="M86 41h22v32H86z"/><path fill="#244069" d="M202 130l-4-5 4-8z"/><path fill="#c6cbc3" d="M89.8 23.3L36 52.4l18.3-25.9 33.1 16z"/><path fill="#442919" d="M12 100.8l2.9-16.5 5.8 3.8-8.5 11.9z"/></g></g></svg>