<svg xmlns="http://www.w3.org/2000/svg" viewBox="0 0 1400 933"><defs/><filter id="a"><feGaussianBlur stdDeviation="12"/></filter><rect width="100%" height="100%" fill="#47342a"/><g filter="url(#a)"><g fill-opacity=".5" transform="translate(2.7 2.7) scale(5.46875)"><circle cx="75" cy="131" r="152" fill="#ffffea"/><ellipse cx="74" cy="66" fill="#ffefdb" rx="83" ry="56"/><ellipse cx="190" cy="150" fill="#e36546" rx="48" ry="159"/><circle r="1" fill="#3f301f" transform="matrix(-88.47484 -.30884 .07293 -20.89376 44.7 162)"/><path fill="#ffd3a2" d="M250 115l-132 70 66-119z"/><circle r="1" fill="#53331f" transform="matrix(57.57513 63.05281 -19.9806 18.24479 211.8 46.2)"/><path fill="#1f0b00" d="M236.3 168.3l-37 29-21.6-27.6 37-29z"/><path fill="#ff1432" d="M156 54h42v43h-42z"/><path fill="#692816" d="M136.6 156.7l-21-6.8 15.8-48.6 21 6.8z"/><circle r="1" fill="#e3efeb" transform="matrix(32.38374 11.3274 -10.90648 31.18038 111.3 0)"/><path fill="#61402d" d="M28 164.3l-47.6 5.9-8.4-68.5 47.6-5.9z"/><circle r="1" fill="#ffd1a5" transform="rotate(-26.8 137.8 -76.2) scale(63.79966 26.92717)"/><path fill="#960000" d="M67 29h28v7H67z"/><circle r="1" fill="#7c756a" transform="matrix(5.08951 5.49617 -43.83333 40.5901 26.9 26.5)"/><path fill="#8e5636" d="M22 82h43l-81 29z"/><circle r="1" fill="#a2553d" transform="matrix(-10.13246 -15.07868 30.2297 -20.31351 230.3 136.7)"/><circle r="1" fill="#ffd7a9" transform="rotate(115.7 43 113.6) scale(35.28417 15.10714)"/><ellipse cx="51" cy="112" fill="#c9d1cf" rx="29" ry="26"/><ellipse cx="128" cy="71" fill="#c1d2d9" rx="28" ry="36"/><path fill="#82543a" d="M190.8 46.3l-48-10L157.7-16 271 2.9z"/><circle r="1" fill="#8a8478" transform="matrix(20.22836 9.45259 -21.72813 46.49776 101.3 151.8)"/><circle r="1" fill="#ffffea" transform="matrix(11.23164 5.14332 -10.41115 22.73516 42 38.7)"/><circle r="1" fill="#5e3828" transform="matrix(-6.29408 -39.48273 33.1411 -5.28314 223.4 46.6)"/><path fill="#474742" d="M76 15.5H44v-9h32z"/><path fill="#2c261e" d="M0 158h62v12H0z"/><path fill="#ff7f9a" d="M169.8 38.3l22 16.9-25.7 4.9-20-8.5z"/><circle r="1" fill="#ffce9d" transform="rotate(-136.4 113.3 35.2) scale(13.9951 61.64496)"/><path fill="#9f1500" d="M68 36l-11-5 31-4z"/><ellipse cx="93" cy="51" fill="#faa882" rx="14" ry="24"/><path fill="#660200" d="M186.5 106.5l10.1-8.7-12-3.8.3-2.6z"/><circle r="1" fill="#aab0a6" transform="matrix(-22.52948 14.52587 -8.59517 -13.33103 134.6 11.3)"/><path fill="#000e0b" d="M175.1 175.2l86.9-24.5-26.6 5.3-14.5 29z"/><path fill="#ffe0bc" d="M0 53h90v28H0z"/><path fill="#8c0d03" d="M127 127l33-32-19 40z"/><path fill="#fffffa" d="M133-8L67.2 25.2l19.1-4.5L73.5-16z"/><ellipse cx="39" cy="120" fill="#c5c2b7" rx="13" ry="31"/><circle r="1" fill="#8d1108" transform="matrix(5.80733 -9.70334 8.99676 5.38445 233 135.7)"/><path fill="#7f725f" d="M62 132h75v34H62z"/><circle r="1" fill="#a27c58" transform="matrix(-21.90408 30.78528 -15.2489 -10.84976 171.3 1.9)"/><ellipse cx="252" cy="75" fill="#5f5a48" rx="11" ry="98"/><path fill="#ffebc7" d="M215.9 82.2l-4.1 16.5-11.7-2.9 4.1-16.5z"/><path fill="#806e5e" d="M-16 122.7V98.2L19.8 179l14-55.3z"/><path fill="#cdd3d2" d="M158 31l-4 60-129 31z"/><circle r="1" fill="#e4dcbc" transform="matrix(-1.59295 .89568 -6.73369 -11.97577 242 121.2)"/><circle cx="71" cy="6" r="5" fill="#262212"/><circle r="1" fill="#fefffa" transform="rotate(109.3 -24.4 66.4) scale(9.46409 6.89636)"/><path fill="#61311f" d="M239-16l-5 104-43-15z"/><path fill="#a2a29d" d="M152 108l-74 12 66-33z"/><path fill="#dcb49d" d="M99.7 165.5l56.4-37.5-60.8 46.2L80.5 185z"/><path fill="#f9d2b5" d="M225 131l-2-35 11 6z"/><path fill="#3a2318" d="M44.5-12l4.1 22.6L68.7-7 49-13z"/><circle r="1" fill="#a4aeac" transform="matrix(-2.40017 16.1644 -30.253 -4.49213 15.7 8.7)"/><path fill="#f7f3f3" d="M130.4 40.3l-11.9 6.6-22.2-23.7L176.4 55z"/><path fill="#f72b2c" d="M194.4 94.9l-1.7-16.7-46.1 32.8 16.2-31.7z"/><circle r="1" fill="#ffcb9d" transform="matrix(22.8837 -17.33963 6.4084 8.45738 3.4 89.2)"/><circle r="1" fill="#2a261a" transform="rotate(165 -9.4 71) scale(5.29847 26.35094)"/><circle r="1" fill="#ff5c71" transform="rotate(123.3 68.7 75) scale(16.77615 13.69072)"/><path fill="#770e00" d="M107 49l-3 6-8 1z"/><path fill="#f8f6db" d="M107.8-12.5L57 7.8l4-14.4L97.3 8.3z"/><path fill="#966951" d="M216 89h5v56h-5z"/><path fill="#6e3c29" d="M235.2 71l-70.7-32.6-12.2 5.2L231.9-16z"/><path fill="#6d6c5f" d="M16.2 48.7l-5 1-7.4-38.4 5-1z"/><path fill="#918274" d="M35 102L15 90l57-10z"/><path fill="#f18058" d="M45.8 65l15.9-25.5 2.5 1.6-15.9 25.4z"/><path fill="#ffddbf" d="M99 31L3 68l70 10z"/><path fill="#bd4925" d="M107 41l-19 6.8-1-2.8 18.8-6.8z"/><path fill="#99a7a2" d="M116.7 1.2l40.8 40.2-16.7-1.4-17.6-5.6z"/><path fill="#433224" d="M247.1 111.5L215.5 88 271 33.6l-4.4-25.7z"/><path fill="#5f746b" d="M258 181l-29-11 5-13 29 11z"/><path fill="#673b26" d="M137 144l-10-25 9-16z"/><path fill="#9c2200" d="M90 26L77 37l9-13z"/><path fill="#e6ad82" d="M9 37.8l3.2 17.7L-16 65 .9 3.1z"/><circle r="1" fill="#ffcfa6" transform="matrix(-28.412 .44633 -.21082 -13.42033 175 123.8)"/><path fill="#996247" d="M106.7 65.7l-1 .9-2.3-5.7-10.1 16.4z"/><path fill="#b3b5ab" d="M76 116L45 87 19 99z"/><path fill="#f5a67e" d="M163 171l26-33-50 2z"/><path fill="#ffd5b5" d="M39 17l71-1-44 15z"/><circle r="1" fill="#99684d" transform="matrix(-2.56245 -.11655 1.41919 -31.20078 201.4 24.1)"/><path fill="#925939" d="M145 185l83.1-53.5-3 14.5-70.4 39z"/><path fill="#979082" d="M100.4 161.9l29.8-23.4-5.3-33.3-33.8 47z"/><path fill="#c9b395" d="M94.4 184.4l2.5-5.1 52.7-39.3-24.5 20.6z"/><path fill="#fe4d47" d="M234 154l-16 5 9-18z"/><path fill="#fffce8" d="M51 20L23 48l13 27z"/><path fill="#52170b" d="M186.2 101.5l7.3-5.8h4.8l-16.4 11.2z"/><path fill="#574c3e" d="M18 158l79-17-33 23z"/><path fill="#fa2f3d" d="M163 85l32-23-7-13z"/><path fill="#251b0f" d="M254 159l-17 8 13-27z"/><path fill="#ffe2a8" d="M134.9 157l42.1 28-24.8-32.8-15.6 2.6z"/><circle r="1" fill="#8d8173" transform="rotate(-5.2 1672.5 -67.6) scale(4.78224 15.96614)"/><ellipse cx="234" cy="127" fill="#7f2916" rx="7" ry="10"/><circle r="1" fill="#d4d7d4" transform="matrix(.7369 8.42273 -41.03001 3.58966 90 88.6)"/><path fill="#e27e5b" d="M68.1 26.2L59.3 56l5.5-4.2L49 61.3z"/><path fill="#d28765" d="M65.5 80.3L102 69.8l.5 2L66 82.1z"/><path fill="#4a4235" d="M106.9 185l15.1-22 15.4-10.3.9 1.7z"/><path fill="#c3c7c6" d="M154 89l-1-47-86 90z"/><circle r="1" fill="#c8d2ca" transform="matrix(5.5614 -36.77305 5.89428 .89143 141.1 0)"/><circle r="1" fill="#da9469" transform="matrix(22.0825 -11.6452 2.81083 5.3301 185.6 149)"/><path fill="#c7ccc3" d="M20.5 27.4l-7 .8-6-49.6 7-.8z"/><path fill="#502e16" d="M167 185h32l25-41z"/><circle r="1" fill="#fee2c5" transform="matrix(1.1826 3.46334 -40.47951 13.82221 72.3 57.2)"/></g></g></svg>