<svg xmlns="http://www.w3.org/2000/svg" viewBox="0 0 1400 933"><defs/><filter id="a"><feGaussianBlur stdDeviation="12"/></filter><rect width="100%" height="100%" fill="#364765"/><g filter="url(#a)"><g fill-opacity=".5" transform="translate(2.7 2.7) scale(5.46875)"><circle r="1" fill="#ffffe1" transform="matrix(236.13849 -96.24767 47.09215 115.53805 145.7 54.2)"/><circle r="1" fill="#230000" transform="matrix(-1.34899 -21.88486 73.76934 -4.54716 55.6 59)"/><ellipse cx="55" cy="157" fill="#fff" rx="142" ry="40"/><path fill="#fff" d="M212-8L-16 0l243 68z"/><path fill="#873300" d="M198 123l-167-1 217-61z"/><circle cx="24" cy="128" r="49" fill="#fff"/><ellipse cx="228" cy="115" fill="#fff" rx="17" ry="34"/><path fill="#fff" d="M127 0h25v83h-25z"/><ellipse cx="255" cy="26" fill="#fff" rx="12" ry="49"/><ellipse cx="204" cy="152" fill="#4d0500" rx="9" ry="81"/><circle r="1" fill="#fff" transform="matrix(4.87186 30.41602 -74.00788 11.85414 123.6 153.6)"/><ellipse cx="71" cy="10" fill="#fff6db" rx="57" ry="32"/><circle cx="78" cy="104" r="19" fill="#823e00"/><ellipse cx="173" cy="59" fill="#d15900" rx="22" ry="12"/><circle r="1" fill="#502600" transform="matrix(.602 -20.78255 51.98474 1.50581 71.7 61.5)"/><ellipse cx="167" cy="77" fill="#fff" rx="31" ry="7"/><path fill="#b1651f" d="M201 6h43v34h-43z"/><path fill="#9c4308" d="M244 74h12v96h-12z"/><path fill="#fff" d="M26 17l-41 26 48-6z"/><path fill="#4a311b" d="M121.5 42.9L88.3 8.6l7.9 23.6 33.4 43z"/><path fill="#fff" d="M0 82h62v41H0z"/><path fill="#501a0d" d="M14.5 21.9l10.9-5.2-41.4-23v55.4z"/><path fill="#fffffe" d="M241.5 94l3.7 55.2-30.3-6.2-3.5-63.7z"/><ellipse cx="139" cy="38" fill="#fff" rx="14" ry="49"/><ellipse cx="12" cy="62" fill="#5a2e00" rx="87" ry="20"/><circle r="1" fill="#80523a" transform="matrix(33.423 -.5834 .2115 12.1166 222.4 154.3)"/><ellipse cx="250" cy="23" fill="#fff" rx="8" ry="50"/><path fill="#fff" d="M96-9l6 43L222-1z"/><path fill="#eeb470" d="M153 21h41v32h-41z"/><path fill="#975b07" d="M233.6 83.4L231 10.5l13.7 21-1.8 48.5z"/><ellipse cx="138" cy="108" fill="#805325" rx="56" ry="16"/><path fill="#572713" d="M200 72h56v11h-56z"/><path fill="#ffefdc" d="M116.5 109.1l2.7-26.9 5.7 1.6-45.2-2.9z"/><path fill="#fff" d="M149 124h47v19h-47z"/><circle r="1" fill="#fcf9f9" transform="matrix(73.92394 15.1744 -7.40104 36.05507 124.1 162.6)"/><path fill="#d6985e" d="M48.7 43.3L86 47.5 27.9 7.4l-13.3 6.9z"/><ellipse cx="40" cy="78" fill="#b06f25" rx="90" ry="4"/><path fill="#fff" d="M110-10L73 39 33-1z"/><path fill="#f4ecd1" d="M237 62l-59-11 47-26z"/><path fill="#43100a" d="M170.7 37.7l3.6-25.8 3 .4-3.6 25.8z"/><path fill="#111408" d="M84.9 48.9l31.6-13.8 7.6 11.4 1.4 19.3z"/><path fill="#fff" d="M133 71h62v12h-62z"/><path fill="#92632b" d="M62 101h76v23H62z"/><path fill="#fff" d="M195.5 86v12h-7V86zM244 0h12v71h-12z"/><path fill="#981f27" d="M200.2 27l8.3 13.6.4-24.3L206.5.4z"/><path fill="#fff1f0" d="M212 84h31v64h-31z"/><path fill="#c9c9c9" d="M142 132h47v25h-47z"/><path fill="#d2d1d1" d="M12 132h100v26H12z"/><ellipse cx="76" cy="83" fill="#fff" rx="59" ry="2"/><circle cx="15" cy="32" r="10" fill="#fff"/><path fill="#bea27e" d="M144.4 110.4l19 8.1-27.7 4.5-2-41.8z"/><path fill="#280b00" d="M127 101l-13-2 22-15z"/><circle r="1" fill="#85611e" transform="matrix(8.73734 .75808 -2.17947 25.11984 226.4 3.3)"/><path fill="#8a4000" d="M154 62h40v8h-40z"/><path fill="#8e6552" d="M213 147h43v14h-43z"/><ellipse cx="27" cy="164" fill="#fff" rx="168" ry="8"/><path fill="#99846e" d="M105 98l22-28-18-11z"/><path fill="#fff" d="M128 2h23v81h-23z"/><ellipse cx="212" fill="#f2ebf2" rx="4" ry="67"/><path fill="#fffffa" d="M194 0h2v170h-2z"/><path fill="#c97824" d="M179.2 62.2L158 42.1l-6.7-.7 2.1 25.6z"/><path fill="#6a432a" d="M196 76h17v92h-17z"/><path fill="#fff" d="M186.4 12.9L-13.8-.2l225.9-5.4-26 48.9z"/><path fill="#4e310c" d="M144.5 97.4l19.8 13.3 3.5-21.4-3.3-7.6z"/><circle r="1" fill="#5a3516" transform="matrix(7.36558 16.64162 -5.1254 2.2685 93.4 102.9)"/><ellipse cx="54" cy="72" fill="#24231e" rx="69" ry="4"/><path fill="#c6743c" d="M177 29l-26-3 31 13z"/><path fill="#ab815a" d="M46.5 27.1l-8.8 25 22.8-11.8 5.9-15.5z"/><path fill="#ffffe8" d="M181.8 33l2.2 7.1-24.2-3 11.9 20.7z"/><path fill="#9a644b" d="M63 38h46v7H63z"/><path fill="#fff" d="M4-14l10 4-5 30z"/><ellipse cx="209" cy="71" fill="#fff" rx="80" ry="1"/><path fill="#310a00" d="M8 15L-7-6l6 41z"/><path fill="#bb9e5e" d="M226.1 26.9l-6.7 33.3 15-4.1 5.8-12.6z"/><ellipse cx="3" cy="124" fill="#fff" rx="6" ry="43"/><path fill="#fbf9fb" d="M93 86h36v6H93z"/><path fill="#fff" d="M44.1 3.8l52 35.1-53.6-14.5 26.1-35.9z"/><path fill="#0e150f" d="M114 57L93 67 81 37z"/><path fill="#844b27" d="M196 72h16v52h-16z"/><ellipse cx="85" cy="127" fill="#fff" rx="109" ry="4"/><path fill="#fffffb" d="M125 51.5L101.6-16 90.2 16.1 172.3-16z"/><path fill="#fff" d="M51 83h11v52H51z"/><path fill="#cdb78f" d="M108 60h11v10h-11z"/><ellipse cx="75" cy="91" fill="#5e3d2e" rx="15" ry="6"/><path fill="#fffbef" d="M19.2 38.8L15-11l10.6 48.4L36.4 6.7z"/><path fill="#c08f45" d="M61 97l14 21 24-18z"/><ellipse cx="249" cy="125" fill="#916850" rx="7" ry="55"/><path fill="#d7d1d2" d="M10.4 125L8.7 93l37-2 1.6 32z"/><path fill="#bf8839" d="M175 47l9 17 38 6z"/><path fill="#c49749" d="M38.7 26.2l-9.7-7 8.3-11.4 9.7 7z"/><path fill="#8f6433" d="M82 37h6v42h-6z"/><path fill="#100f0e" d="M-13.2 63.2L77 78.9l-34.8-18-7.3 14.4z"/><path fill="#fff" d="M138 76h58v7h-58z"/><path fill="#802900" d="M91 16h7v10h-7z"/><path fill="#fff" d="M109 124h33v46h-33z"/><path fill="#b39fa1" d="M95.8 39.3l16.9-2.5 8.2-3.5-38.2-5.2z"/><path fill="#fff" d="M195.6 183.6L-9.8 159.2l196.7-2.4 6.3-37.7z"/><path fill="#354758" d="M204.6 129.3l25.9 55.7-35.3-49.3 2.1-25.6z"/><path fill="#fcfaf9" d="M194 37h18v27h-18z"/></g></g></svg>