<svg xmlns="http://www.w3.org/2000/svg" viewBox="0 0 1400 933"><defs/><filter id="a"><feGaussianBlur stdDeviation="12"/></filter><rect width="100%" height="100%" fill="#423557"/><g filter="url(#a)"><g fill-opacity=".5" transform="translate(2.7 2.7) scale(5.46875)"><ellipse cx="59" cy="137" fill="#ffff8c" rx="74" ry="52"/><ellipse cx="223" cy="94" fill="#fff" rx="18" ry="67"/><circle r="1" fill="#f0c452" transform="matrix(-30.69544 3.82332 -5.60937 -45.03473 38.4 35.6)"/><ellipse cx="165" cy="129" rx="40" ry="57"/><ellipse cx="177" cy="29" fill="#c78a29" rx="51" ry="53"/><path fill="#ffe2ac" d="M-16 91l143 77 1-78z"/><ellipse cx="223" cy="81" fill="#fff" rx="16" ry="49"/><path fill="#fff" d="M208 59h30v96h-30z"/><ellipse cx="114" cy="21" rx="15" ry="70"/><ellipse cx="247" cy="148" rx="9" ry="77"/><ellipse cx="76" cy="81" fill="#0e0300" rx="132" ry="10"/><circle r="1" fill="#ffedbb" transform="rotate(-69.5 156.5 -136.5) scale(17.2507 27.36324)"/><ellipse cx="228" cy="13" fill="#6e3d14" rx="101" ry="28"/><path fill="#d7b655" d="M100.5 11.5v31h-33v-31z"/><circle r="1" fill="#1d1500" transform="rotate(-63.9 91.5 -36.8) scale(15.69456 57.00979)"/><circle r="1" fill="#f5c059" transform="rotate(11.8 -299.5 234.7) scale(31.76418 10.75388)"/><path fill="#83493a" d="M9 131h95v32H9z"/><path d="M129 158h127v12H129z"/><path fill="#fff" d="M209 106h30v52h-30z"/><path fill="#fffff4" d="M30 92h98v14H30z"/><ellipse cx="2" cy="30" rx="6" ry="61"/><path d="M205.2 185l2.9-63.6-1.2-50.6-83.1 67.2z"/><path fill="#ffebd7" d="M54-11l4 43L1-16z"/><path d="M121.4 13.4L198 1.3l-141.1-4 1.4 14.2z"/><ellipse cx="62" cy="145" fill="#feeba6" rx="43" ry="6"/><ellipse cx="17" cy="115" fill="#f0b669" rx="111" ry="17"/><path d="M239 82h17v88h-17z"/><path fill="#9a7b45" d="M129 35h79v46h-79z"/><path d="M99 78l7-94 43 116z"/><path fill="#c87c06" d="M239 44h17v37h-17z"/><path fill="#e5ce8f" d="M136 33h20v27h-20z"/><path fill="#39151c" d="M16 153h76v8H16z"/><path fill="#020400" d="M129 84h78v83h-78z"/><ellipse cx="71" cy="86" rx="136" ry="5"/><path fill="#cd6c21" d="M28 107h77v9H28z"/><path fill="#fdf6ff" d="M239.2 41.8l-1.4 26-29-1.6 1.4-26z"/><circle r="1" fill="#f5fffb" transform="matrix(23.43 -2.29488 .66933 6.83362 0 98.7)"/><path fill="#ebb85d" d="M24 63h46v16H24z"/><circle r="1" fill="#f0b40e" transform="matrix(.74091 -4.08048 31.55164 5.72899 211.2 0)"/><path fill="#673f35" d="M79 142.4l-30-9.8 49.8-3.2 31.2-7.3z"/><path fill="#855619" d="M8 39h18v32H8z"/><path fill="#ffefe8" d="M208 119h32v39h-32z"/><path fill="#19437d" d="M148 38h47v7h-47z"/><path fill="#be9f5a" d="M99 13l2 65-12-37z"/><path fill="#eccc93" d="M107 101h21v69h-21z"/><ellipse cx="113" cy="29" rx="14" ry="62"/><path fill="#d2b48a" d="M9 32l37 4L8 5z"/><path d="M57.5 11.5v-23h65v23zM8 90l-24-44L7-15z"/><path fill="#662f0c" d="M58 30l-3 13-40-31z"/><path fill="#230b1b" d="M22 142l-38 3 11-12z"/><path fill="#0f181f" d="M213 30h21v9h-21z"/><ellipse cx="233" cy="165" rx="105" ry="7"/><circle r="1" fill="#140000" transform="matrix(-30.27305 .25477 -.02952 -3.50824 134 30)"/><path fill="#edd272" d="M-16 145h33l-9 40z"/><path fill="#f6edad" d="M20 112l23 19 55-10z"/><path fill="#501e00" d="M2.4 177.7l20.4-23.4 6.8 6-20.4 23.4z"/><ellipse cx="4" cy="122" fill="#190000" rx="12" ry="2"/><ellipse cx="168" cy="14" fill="#b28c4b" rx="39" ry="4"/><path fill="#2c1816" d="M45.3 47.6l12-1 1.4 15.8-12 1z"/><path d="M239 77h17v85h-17z"/><path fill="#6b4e2f" d="M53 54H11V40h42z"/><path fill="#241e04" d="M66 41h26v33H66z"/><path fill="#6a4110" d="M20.8 152.2L16 151l7.2-31.2L28 121z"/><path fill="#7f5620" d="M128 58h79v22h-79z"/><ellipse cx="195" cy="24" fill="#a83d41" rx="69" ry="5"/><ellipse cx="169" cy="128" fill="#1e1f1a" rx="25" ry="31"/><path fill="#c6af82" d="M23.9 111.4l4-58.3-18.6 84.4 30.4-49.3z"/><path fill="#ffffd3" d="M24 63h39v3H24z"/><path fill="#da9d57" d="M52 161h75v9H52z"/><path fill="#eaf4ec" d="M106.1 140.2l-2.2-11.1 25.2 10.5-3.1 13.2z"/><path fill="#f6f4ee" d="M128.7 96.2L62.3 104l-22.9-1 10.7-11.7z"/><path fill="#47361b" d="M239 0h17v51h-17z"/><path d="M14 89l10-19-40 1z"/><path fill="#efbe77" d="M125.4 44.5l17.7-12.7-7.4 31.8 31.1-15.5z"/><path fill="#ecc337" d="M128 1l12 1 17-16z"/><path fill="#efe1cd" d="M41.8-15.8L-16-9l56.4 22.1-1.2.3z"/><path fill="#c34f0c" d="M99.2 105.6l-12.5-5.8-3.8 11 9 4.8z"/><circle r="1" transform="matrix(-6.21533 -.29149 2.46577 -52.57663 135 132.6)"/><path fill="#79592d" d="M20.8 46.3l65.8-29.5-29-4-4.3 47.6z"/><path d="M0 89h139v2H0z"/><path fill="#0a1407" d="M157.6 4.1l.1-2L268.4 10l-.1 2z"/><path fill="#000100" d="M117.5 85.3l19.3-17.6-21.2-17.9-47 42.2z"/><path fill="#f7eae9" d="M208 55h31v102h-31z"/><path fill="#513511" d="M76.8 84.2l-40.2-12 16.9-1.6L17 89.7z"/><path fill="#986920" d="M126 125l-26-4 1 8z"/><path fill="#bc2e06" d="M22.5 101.7l24.6 11-1.6 3.6-24.6-11z"/><path fill="#dacbb2" d="M19.1 50.9L16 37.5l.2-9.2 8.4.1z"/><path fill="#f4e9eb" d="M208 42h31v62h-31z"/><path fill="#6d3c46" d="M3 133h99v6H3z"/><path fill="#d2b685" d="M20 140h78v12H20z"/><path fill="#060c11" d="M81.7 30.2l5-1 3.6 18.6-5 1z"/><ellipse cy="114" fill="#f9e1b4" rx="32" ry="5"/><path fill="#f8e4af" d="M0 126h20v8H0z"/><path fill="#efe2ae" d="M34.8 56.3l8.6 14.4-1.7-1-23.3-15.6z"/><path fill="#ff2a35" d="M144 92h21v2h-21z"/><path fill="#9a9f3b" d="M202.2 7.2l50 9.7-.4 2-50-9.8z"/><path fill="#271c0e" d="M207 45l-26 3 9 4z"/><path fill="#45352c" d="M48 32L35 10l-2 8z"/><ellipse cx="66" cy="30" fill="#e7efff" rx="2" ry="6"/></g></g></svg>