<svg xmlns="http://www.w3.org/2000/svg" viewBox="0 0 933 1400"><defs/><filter id="a"><feGaussianBlur stdDeviation="12"/></filter><rect width="100%" height="100%" fill="#56322b"/><g filter="url(#a)"><g fill-opacity=".5" transform="translate(2.7 2.7) scale(5.46875)"><circle cx="97" cy="184" r="213" fill="#fff"/><circle r="1" fill="#fff" transform="matrix(3.73029 50.55091 -168.54174 12.43715 85.8 220.4)"/><ellipse cx="27" cy="6" fill="#fff" rx="102" ry="56"/><path fill="#4c3528" d="M136 179L8 137 140 12z"/><ellipse cx="169" cy="131" fill="#fff" rx="20" ry="255"/><circle r="1" fill="#fff" transform="matrix(-168.68478 10.3172 -2.70977 -44.3044 82.8 224)"/><path fill="#fff" d="M-12 245l53 17L-3 75z"/><path fill="#756761" d="M34 11L19 192l153-74z"/><ellipse cx="93" cy="15" fill="#fff" rx="30" ry="38"/><ellipse cx="167" cy="75" fill="#fff" rx="32" ry="24"/><circle cx="133" cy="39" r="20" fill="#252723"/><circle r="1" fill="#fff" transform="matrix(10.81627 -7.89792 29.57985 40.50989 165.3 26.3)"/><ellipse cx="144" cy="117" fill="#4c83b6" rx="20" ry="31"/><circle r="1" fill="#fff" transform="matrix(-21.52339 -.38864 .68312 -37.83177 8.7 27.3)"/><path fill="#fff" d="M185 193L46 271l7-107zM69 0h47v50H69z"/><path fill="#fff1df" d="M43 126h45v10H43z"/><path fill="#3f5456" d="M2 64h29v37H2z"/><path fill="#fff" d="M136 203l43.3-125.8L202 85l-43.3 125.8z"/><path fill="#201000" d="M29.6 187.7l-1.2-33 10-.4 1.2 33z"/><path fill="#fff" d="M22 11l20 66-58-48zm0 151L-6 271-16 84z"/><path fill="#705c50" d="M144.9 174.9l-24.3 7.4L26.7 37.9l122.7 111.7z"/><path fill="#fff" d="M174 6l11 79-54 2z"/><path fill="#472f30" d="M37.2 40.9l16.9-18.1-2.1-7.1-19.6.4z"/><ellipse cx="101" fill="#fff" rx="82" ry="14"/><path fill="#050404" d="M138 23l-12 6 10-30z"/><ellipse cx="18" cy="129" fill="#756540" rx="11" ry="23"/><path fill="#faffff" d="M165.3-16L60 27.2l-16.8 2.9 2.5 17.6z"/><circle cx="91" cy="231" r="64" fill="#fafeff"/><path fill="#542514" d="M83.1 131l16-.9 1.8 35-16 .8z"/><path fill="#c8d4e3" d="M124 101h33v10h-33z"/><path fill="#fff" d="M63.9 200.5l-79.9-30L-.8 78.9l22.4 129.5z"/><circle r="1" fill="#e6e8d3" transform="matrix(.4186 4.56302 -25.78476 2.36544 21 105.6)"/><ellipse cx="83" cy="71" fill="#7f6957" rx="46" ry="22"/><circle r="1" fill="#fff" transform="matrix(-25.8113 18.88714 -7.04075 -9.62194 106 23.8)"/><circle r="1" fill="#7f4434" transform="matrix(-9.0472 -34.48586 19.4651 -5.10657 102.2 104.7)"/><circle r="1" fill="#fff" transform="matrix(-24.28861 -15.39672 11.73137 -18.50646 163.3 7.3)"/><circle cx="136" cy="39" r="19" fill="#4a423d"/><path fill="#c6b67d" d="M53 185.8l-13-44.4-1.9 48.4 6.6-2.6z"/><path fill="#fff" d="M115.1-8l2.7 56.9-33.7 1.7L32.7-16z"/><path fill="#51483a" d="M113.1 176.8l24.9-36.6-22.2-3.1 17 45.3z"/><path fill="#fff" d="M173.8 101.3l26.2 10-35.8 93.4-26.2-10z"/><ellipse cx="126" cy="160" fill="#a6baba" rx="21" ry="4"/><path fill="#fff" d="M32.1 72L32 56h8l.2 16z"/><path fill="#486b8f" d="M150.3 160.5l15.8-49.9-44.8 3.5 16.8 13.3z"/><path fill="#9cb8d2" d="M62 193h57v5H62z"/><path fill="#fff" d="M87 167h23v24H87z"/><path fill="#6e7d83" d="M1 72h76v30H1z"/><circle r="1" fill="#fff" transform="matrix(33.11689 -18.45848 9.09188 16.312 169.3 64.9)"/><path fill="#625431" d="M21 134h13v51H21z"/><path fill="#fff" d="M-16 95.3l29.6 10.8-29.6 55.2L10 24.5z"/><path fill="#743a2a" d="M57.8 95.5L45 126l43.8-2.3L61 101.6z"/><path fill="#8d707d" d="M46 134h36v36H46z"/><path fill="#5a4f47" d="M144.5 19.6l-17.3-2-11.3 21.5 18.4 54.8z"/><path fill="#fff" d="M-12-16l-2 79 51-3z"/><path fill="#e1f0e4" d="M51 162h24v5H51z"/><path fill="#4e421e" d="M46 150h5v33h-5z"/><path fill="#282626" d="M21 80h8v20h-8z"/><path fill="#a2adae" d="M100 153.2l29.6-31.9 16 18.3-23.3-4.5z"/><path fill="#fff" d="M-16 175.9L3.1 271 22 156.9l-33.3-28z"/><ellipse cx="135" cy="22" fill="#100f0e" rx="2" ry="52"/><path fill="#e5daae" d="M36.8 145.5l7-.8 3.4 27.8-7 .8z"/><path fill="#fff" d="M46.1-16L75.5 2.2-16 29.8v67.3z"/><ellipse cx="169" cy="131" fill="#fff" rx="5" ry="228"/><circle r="1" fill="#b0a28b" transform="rotate(-47.4 152.2 -95) scale(3.56781 19.48396)"/><path fill="#fff" d="M52 170h54v21H52z"/><ellipse cx="126" cy="170" fill="#76583c" rx="16" ry="7"/><path fill="#8898af" d="M162.2 101.8L132.4 122l-10.6-15.7L151.6 86z"/><circle r="1" fill="#4d372e" transform="rotate(144.8 59.6 50) scale(8.74104 7.84636)"/><path fill="#5a3c3b" d="M109 167l-38-12 16-28z"/><path fill="#73664d" d="M47 149l-3-38-36-4z"/><path fill="#e4e3e2" d="M72 206h36v39H72z"/><ellipse cx="117" cy="255" fill="#fff" rx="102" ry="16"/><path fill="#7c827e" d="M4 6h30v3H4z"/><path fill="#383329" d="M141.2 150.3l-15.1 7.7-7.3-14.3 15.1-7.7z"/><path fill="#a0a9a9" d="M21 25.4L51.6 56l11.3-20.1-32.5 18.8z"/><path fill="#4a2c2f" d="M32.2 38.6l-2.2-2 19.8-21.2 2.2 2z"/><path fill="#fff" d="M185 88l-31 7 1-111zm-76-39H68l69-61z"/><path fill="#8b867c" d="M1 63h30v18H1z"/><path fill="#cad4c8" d="M110 151l1-9-10 9z"/><path fill="#fff" d="M160.5 139.1l-35.8 79 60.3-89.4-35.7 3.7z"/><path fill="#e4e5e4" d="M131 206h32v39h-32z"/><circle cx="135" cy="24" r="10" fill="#3f3b39"/><path fill="#d2d5d5" d="M38 38l35-1-8-26z"/><path fill="#ded6ca" d="M48 127h36v8H48z"/><path fill="#fff" d="M179 142l-31 6 37 35z"/><path fill="#7a7877" d="M122 32l12-3-7 24z"/><path fill="#ffffd3" d="M42.2 148.7l-.5 4-11.9-1.4.5-4z"/><path fill="#8a8a75" d="M86.4 171.8l-5.7.3-13-4.8 16.4-.5z"/><path fill="#fff" d="M3 188h56v18H3z"/><path fill="#a49178" d="M11 107h8v44h-8z"/><path fill="#959997" d="M45 125l10-51-17 10z"/><path fill="#fff" d="M31 55h8v19h-8z"/><path fill="#777985" d="M152 87l-34 2 47 14z"/><path fill="#fff" d="M173.9 94.6L165.1-16l-7.5 55.7-22.8 36.6z"/><path fill="#635d5c" d="M58 110.1l-4.3-24 16.6-65-12.8 101.3z"/><path fill="#332413" d="M32 153l4 26-9 4z"/><path fill="#3b608b" d="M142.7 111.9l20.2-1.4-14.9 28.1-14.7-12.6z"/></g></g></svg>