<svg xmlns="http://www.w3.org/2000/svg" viewBox="0 0 1400 933"><defs/><filter id="a"><feGaussianBlur stdDeviation="12"/></filter><rect width="100%" height="100%" fill="#423557"/><g filter="url(#a)"><g fill-opacity=".5" transform="translate(2.7 2.7) scale(5.46875)"><circle r="1" fill="#ffff90" transform="matrix(-5.2247 -46.63116 87.43639 -9.79665 46.2 136.2)"/><circle r="1" fill="#fff" transform="matrix(17.75991 .46709 -1.83935 69.93657 224 95.4)"/><circle r="1" fill="#f2c654" transform="matrix(-29.54044 4.08916 -6.4071 -46.28537 37.2 34.6)"/><ellipse cx="167" cy="126" rx="41" ry="56"/><circle cx="176" cy="33" r="50" fill="#c88b2a"/><path fill="#fff" d="M207.3 152.2l32.8-3.7-3.8-132.3L208.4 49z"/><path fill="#fff7af" d="M54 91h75v39H54z"/><circle r="1" transform="rotate(177.6 56.4 15.1) scale(14.29198 63.2649)"/><ellipse cx="235" cy="9" fill="#6c3a0e" rx="112" ry="32"/><ellipse cx="26" cy="97" fill="#fff" rx="103" ry="7"/><ellipse cx="252" cy="123" rx="14" ry="54"/><path fill="#ffe19d" d="M104 100h23v70h-23z"/><ellipse cx="222" cy="164" rx="95" ry="7"/><path fill="#ffed52" d="M237 50h19v26h-19z"/><path fill="#0c0800" d="M60.8 52.3l75 1.4-.6 38-75-1.4z"/><path fill="#e3c05e" d="M65 13h36v26H65z"/><ellipse cx="55" cy="158" fill="#4e0d0e" rx="44" ry="7"/><path fill="#fffffc" d="M214.3 155.2l-6.9-122.3 30.4 74.4 1.6 53z"/><path fill="#ffd55a" d="M23 63h48v15H23z"/><circle r="1" fill="#000100" transform="matrix(-29.48618 27.3045 -19.17713 -20.70942 173.1 112.1)"/><ellipse cx="26" cy="81" fill="#110800" rx="139" ry="10"/><ellipse cy="41" rx="8" ry="50"/><path fill="#fff2df" d="M57-16H-4l60 43z"/><path fill="#322000" d="M38 58l112 19L41 24z"/><ellipse cx="44" cy="116" fill="#f4b165" rx="85" ry="16"/><path fill="#fff9f5" d="M208 44h31v114h-31z"/><path d="M128 178V78l93 93z"/><ellipse cx="94" cy="4" rx="39" ry="10"/><path d="M240 81h16v89h-16z"/><path fill="#f2d17e" d="M163.2 54L134 32.3l-.5 30.7L184 52.5z"/><path d="M100 0h28v74h-28z"/><ellipse cx="45" cy="135" fill="#6a2533" rx="60" ry="5"/><ellipse cx="239" cy="26" fill="#793936" rx="113" ry="14"/><path fill="#f7be68" d="M24 62h45v17H24z"/><path fill="#f1d49f" d="M116 93h12v77h-12z"/><path fill="#976316" d="M8 40h18v31H8z"/><path fill="#ffd914" d="M193 1l.5-3L243 5l-.5 3z"/><ellipse cx="81" cy="165" fill="#e3a95b" rx="47" ry="5"/><path fill="#d2b265" d="M89 40l11 31-1-58z"/><path fill="#070700" d="M128 82h78v88h-78z"/><path fill="#d16522" d="M29 106h70v9H29z"/><ellipse cx="210" cy="169" rx="81" ry="12"/><path fill="#130000" d="M-4.6 144.6l.2-6 25 .8-.2 6z"/><ellipse cx="72" cy="145" fill="#e8c192" rx="51" ry="7"/><ellipse cx="134" cy="5" fill="#000300" rx="75" ry="3"/><path fill="#8a6223" d="M130 58h74v23h-74z"/><ellipse cx="4" cy="28" rx="4" ry="64"/><path fill="#fdf0b1" d="M25 55h20v11H25z"/><path fill="#fbf4ba" d="M58 130l-43-17 82 7z"/><path fill="#f7d386" d="M158.3 37.8L129 44.1l-1.3-6L157 32z"/><path fill="#845a23" d="M104 120l29 6-38 4z"/><path fill="#d1b998" d="M7.5 14.6l22.6 11 11.7 7.3L16.9 41z"/><path fill="#683504" d="M21.9 119l7 4.4-20.8 51.2 15.8-4.4z"/><circle r="1" fill="#3d607b" transform="matrix(.25805 3.8178 -36.74304 2.48347 179.2 41.8)"/><path fill="#433321" d="M13 40h26v13H13z"/><path d="M125 12l-68-2 5-26z"/><circle r="1" fill="#201e1c" transform="matrix(6.8975 34.86698 -23.90046 4.72807 166.2 124.4)"/><path fill="#f7e2ac" d="M-7.4 135l23.3-1.8-28.2-51.5 38.4 28.5z"/><ellipse cx="180" cy="12" fill="#8b843e" rx="53" ry="6"/><path d="M244 185l-5-108 32 26zM108 33v-5l48-1v5z"/><path fill="#e7ede6" d="M122.2 137.8l7.1 2.4-17.7 14.7-9.3-27.7z"/><path d="M0 71h21v20H0zm28 17h122v3H28z"/><path fill="#2b0000" d="M17 120l-27-1 10 5z"/><ellipse cx="55" cy="101" fill="#f2e0d7" rx="23" ry="9"/><path fill="#fff9ee" d="M64 92h64v9H64z"/><path fill="#00262e" d="M214 31h22v7h-22z"/><path d="M101 0h27v91h-27z"/><path fill="#edc86c" d="M0 146h15v24H0z"/><path fill="#fff1ed" d="M208 134h31v24h-31z"/><path fill="#fff3f6" d="M209 41h30v19h-30z"/><path d="M207 74l-1 80-19-64z"/><path fill="#a16741" d="M101.7 184.2l11.3-35.6-38.5 7 10.6-19.7z"/><ellipse cx="70" cy="13" fill="#ae8f53" rx="34" ry="2"/><path fill="#29240e" d="M91.6 26.8l-13.1-1.7 24.6 53.5-35.3-4.8z"/><path fill="#d48334" d="M239 49h17v31h-17z"/><path fill="#a04c44" d="M168 37V10l85 16z"/><path fill="#604225" d="M58.7 53.2l15.8 32.4L68 39.9l-45.3-22z"/><path fill="#fff1de" d="M51-16L32 12 12-7z"/><path fill="#c5641e" d="M80.1 117.6l4.6-14.8 5.4-4.4 7.8 10.2z"/><path fill="#f1ce83" d="M154 59l-14-27-3 24z"/><path fill="#c89b60" d="M164.3 73.3l14.7 5-1.3-8.7-32.9-3.2z"/><path fill="#4d300b" d="M127.4 88.5l.1-38 11.6-2.8-4.9 10.7z"/><path fill="#ccbb8b" d="M70 74l-1 12-11-28z"/><path fill="#d18b57" d="M129 14h54v4h-54z"/><path fill="#f52533" d="M143 92h23v2h-23z"/><path fill="#83848b" d="M60 26h23v15H60z"/><ellipse cx="23" cy="88" fill="#ae9c71" rx="2" ry="15"/><path fill="#5f3733" d="M68 131h36v9H68z"/><path fill="#4c2015" d="M128 28h127v5H128z"/><path fill="#18261d" d="M199.2 9.2L161.8-4.2l-41.7 17.6 48.4-8z"/><ellipse cx="3" cy="35" rx="5" ry="56"/><path fill="#6b343d" d="M48 151h53v5H48z"/><path fill="#372502" d="M31 78h32v10H31z"/><ellipse cx="219" cy="104" fill="#ebd7d7" rx="10" ry="52"/><path fill="#1c1a09" d="M72.7 62.3L56.6 22l13 19.2 23.5 6.6z"/><path fill="#4b3c1b" d="M239 0h17v51h-17z"/><path fill="#895f22" d="M59 11.2L89.3 17 87 28.8 56.6 23z"/><path fill="#eaa455" d="M204.2 42.9l.2 2-50.6 6.2-.2-2z"/></g></g></svg>