<svg xmlns="http://www.w3.org/2000/svg" viewBox="0 0 1400 933"><defs/><filter id="a"><feGaussianBlur stdDeviation="12"/></filter><rect width="100%" height="100%" fill="#664639"/><g filter="url(#a)"><g fill-opacity=".5" transform="translate(2.7 2.7) scale(5.46875)"><circle cx="199" cy="94" r="221" fill="#b1b8bb"/><circle cx="247" cy="27" r="34" fill="#fff"/><circle r="1" fill="#fff" transform="rotate(75.4 -80.5 66.3) scale(101.95954 17.59794)"/><circle cx="142" cy="99" r="68" fill="#6b4239"/><circle r="1" fill="#fff" transform="matrix(17.49756 -53.53386 13.69177 4.47516 254.8 144.2)"/><ellipse cx="100" cy="113" fill="#fffeef" rx="33" ry="9"/><circle r="1" fill="#fff" transform="matrix(-11.46696 -24.50841 33.11069 -15.49178 250.6 16)"/><ellipse cx="225" cy="90" fill="#5890c3" rx="32" ry="47"/><path fill="#fff" d="M-9-1l66 19 5-29z"/><circle r="1" fill="#695633" transform="rotate(-161.6 28.7 52.4) scale(29.04084 35.47954)"/><circle r="1" fill="#fff" transform="rotate(-9.1 954 57.8) scale(14.88864 160.43107)"/><ellipse cx="26" cy="71" fill="#faf9e2" rx="41" ry="7"/><circle r="1" fill="#1c1604" transform="matrix(-2.7167 12.29806 -16.92943 -3.7398 203 136.9)"/><circle cx="167" cy="26" r="47" fill="#794f38"/><circle r="1" fill="#fff" transform="matrix(-11.3314 -3.44275 15.36602 -50.57554 251.6 153.2)"/><path fill="#0d0000" d="M43 146h14v24H43z"/><circle cx="26" cy="32" r="29" fill="#5c6c6e"/><circle r="1" fill="#fff" transform="rotate(77 112.5 167) scale(24.61532 36.0852)"/><circle r="1" fill="#4e2c1b" transform="matrix(11.85088 52.16186 -16.7181 3.79826 150 169)"/><path fill="#fff" d="M0 147h31v23H0z"/><path fill="#c5cdd8" d="M263.8 69.1l-24.6 12-48.4 3.1 10.1-16.4z"/><ellipse cx="105" cy="169" fill="#dcdedc" rx="29" ry="9"/><path fill="#fff9bd" d="M50 141l22 44-7-51z"/><circle cx="228" cy="98" r="18" fill="#1f4c83"/><path fill="#fff" d="M57-15L44 21l15-2z"/><path fill="#171e21" d="M33 29h10v34H33z"/><ellipse cx="88" cy="52" fill="#413532" rx="5" ry="49"/><ellipse cx="124" cy="107" fill="#f4f2e3" rx="11" ry="6"/><path fill="#fff" d="M-7.2 65.5l20.5 4.7-6.1 26.3-20.5-4.7z"/><ellipse cx="162" cy="88" fill="#794736" rx="32" ry="41"/><path fill="#846071" d="M139.5 132.8l-18-13.7L65 118l2.6 45.5z"/><ellipse cx="5" fill="#fff" rx="55" ry="5"/><circle r="1" fill="#6a5841" transform="matrix(22.05536 -16.03417 11.73498 16.14172 85.6 3.6)"/><path fill="#fff" d="M243 185l28-56-33 10z"/><path fill="#b4b8a3" d="M153 9l42 17 1 21z"/><path fill="#aebbae" d="M193.3 109l4.2 4.4-38.8 37.5-4.2-4.3z"/><path fill="#41271a" d="M196.8-16.4l26.5 17.9-10 15-26.6-18z"/><path fill="#fff" d="M214 20h42v25h-42z"/><path fill="#6c868e" d="M90 19h30v48H90z"/><path fill="#743f2c" d="M71 77h53v27H71z"/><circle r="1" fill="#fff" transform="rotate(-118 45.1 75) scale(68.42064 19.09978)"/><path fill="#87867e" d="M0 5h46v29H0z"/><path fill="#fff" d="M238.2 55.9l32.8 1.2L220.7 10 271-5.8z"/><path fill="#031a40" d="M208 45h32v3h-32z"/><ellipse cx="11" cy="57" fill="#576469" rx="19" ry="11"/><path fill="#5c4f25" d="M51.3 106.8L77.9 174l-.5-27.9.4 1.7z"/><path fill="#4f6877" d="M251.7 137.5l-36.6-42.3 21.2 62-71.8-9.6z"/><ellipse cx="21" cy="116" fill="#9c866b" rx="10" ry="32"/><path fill="#bfc7c5" d="M196 114.1l50.1 11.5L271 95.7 223.4 126z"/><ellipse cy="107" fill="#fff" rx="9" ry="42"/><path fill="#d9cfc8" d="M70 104h56v14H70z"/><path fill="#49391a" d="M42 147h17v23H42z"/><ellipse cx="203" cy="169" fill="#6d4520" rx="25" ry="5"/><path fill="#fff" d="M230 185l24-70 17 50zM19.5 25.7l13.6 11.8-.6.8-13.6-11.8z"/><path fill="#987481" d="M70 118h48v19H70z"/><path fill="#c8cac9" d="M121.8 57.7L88.6 23.9l41.6 49-8.6-10.1z"/><path fill="#fff" d="M32 149.2l-8.9 23.3-25.2-9.7 9-23.3z"/><path fill="#edf2f2" d="M60.1 4.4L4.5 56.3l-.6-.7L59.5 3.7z"/><path fill="#9eb6b2" d="M162.9 151.4l14.7 8.8-9.2-29.5 8.3 54.3z"/><path fill="#aab5c6" d="M212 45.8l16.6 3.9-12.8 35.6-8.4 20.8z"/><path fill="#eef2f5" d="M.3 75.4L37 39.9l.7.7L1 76.1z"/><path fill="#050303" d="M34.2 81h1l2.6 50h-1z"/><path fill="#514a40" d="M1 6h46v4H1z"/><path fill="#21446c" d="M250 79h6v28h-6z"/><path fill="#aab8b2" d="M173 159h63v5h-63z"/><path fill="#40484c" d="M82.2 23l18.6 44.5-23.7-26.1 32.4 7.8z"/><path fill="#e5edf0" d="M111.7 66.8L98.2 53.3l2.1-2 13.5 13.4z"/><path fill="#899ba2" d="M70.8 63.2l21.6-25.9-30.5-9.7-13.8 12.9z"/><path fill="#dddfd4" d="M77 161h49v4H77z"/><circle r="1" fill="#7d4f40" transform="matrix(7.86385 -15.15817 29.11973 15.10692 154.2 33.3)"/><path fill="#fff" d="M53.6-16L4.1 4.2l37.7.1L61.3 20z"/><path fill="#4b5155" d="M45.4 59.4L20.5 41.5l12.2-3.6 32.9 2.3z"/><path fill="#b5c4c6" d="M218.3 110.4l-5.9-2.3-22.4 10.5 30.6.6z"/><path fill="#94999b" d="M0 14h48v10H0z"/><path fill="#ebf9ff" d="M66.9 39.6l.7.7-22.5 24.1-.7-.7z"/><ellipse cx="55" cy="112" fill="#3f3022" rx="3" ry="29"/><path fill="#e7e8ea" d="M116.7 29l.6.7-26 23.4-.6-.8z"/><path fill="#f2fafc" d="M2.2 23.5l16.3 16.3-.7.7L1.5 24.2z"/><path fill="#fff" d="M252.5 134.8l9.2-74.8-.9 125-26.5-44z"/><path fill="#d7dad9" d="M8.4 50.2l-2-1.1 12.3 6.8 5.7 10.7z"/><path fill="#344648" d="M175.6 132.8l3.4-7.5 11.2-5-13.5 18z"/><path fill="#586986" d="M233 45l24 17-5 9z"/><path d="M54.6 58.5l-1.7-2.4 6.5-4.6 1.7 2.4z"/><circle cx="49" cy="143" r="4" fill="#ffffd8"/><path fill="#3e3114" d="M40.1 136.9l-7.9 6L33 166l-7.5 19z"/><path fill="#e7d3ba" d="M25 77h2v46h-2z"/><ellipse cx="114" cy="153" fill="#615268" rx="20" ry="9"/><path fill="#6d6459" d="M195.4 28.3l15.3-22.8-41.2-11.9 4.5 29.9z"/><ellipse cx="43" cy="68" fill="#cbc6b5" rx="28" ry="5"/><path fill="#261c17" d="M165.9 164.6l-6.5 7.7-15.3-12.9 6.5-7.7z"/><path fill="#494a4c" d="M58.6 39.2l29.1 37.9L61 48.5l4-.1z"/><path fill="#917f6d" d="M172 7L81 24l10-39z"/><path fill="#fff" d="M25-1L-3-9-4 7z"/><path fill="#98aec6" d="M224 100h14v8h-14z"/><ellipse cx="42" cy="102" fill="#a6a599" rx="2" ry="27"/><path fill="#b0b7ba" d="M65.6 32.8L84 45.9 57.7 74.1l25.9-20.8z"/><ellipse cx="241" cy="18" fill="#fff" rx="26" ry="20"/><circle cx="10" cy="40" r="4" fill="#0c1217"/><path fill="#fafcff" d="M53.6 36.8l.7.7-8 7.7-.6-.7z"/></g></g></svg>