<svg xmlns="http://www.w3.org/2000/svg" viewBox="0 0 1400 933"><defs/><filter id="a"><feGaussianBlur stdDeviation="12"/></filter><rect width="100%" height="100%" fill="#635031"/><g filter="url(#a)"><g fill-opacity=".5" transform="translate(2.7 2.7) scale(5.46875)"><circle cx="182" cy="29" r="157" fill="#fffff6"/><ellipse cx="169" cy="50" fill="#542409" rx="163" ry="35"/><circle r="1" fill="#fff" transform="rotate(-75.3 206.2 -73.7) scale(56.88013 112.92679)"/><circle r="1" fill="#fff" transform="matrix(254.8611 -8.4155 .54726 16.5737 77.9 4.2)"/><ellipse cx="137" cy="96" fill="#fff" rx="9" ry="169"/><circle r="1" fill="#ce8f28" transform="matrix(7.56258 -40.18236 88.30589 16.61974 43.7 131.5)"/><path fill="#fff" d="M248 0h8v170h-8z"/><path fill="#0e0c19" d="M150 12h38v53h-38z"/><path fill="#602906" d="M52 121l75 6 3 58z"/><circle r="1" fill="#fff" transform="matrix(-5.66524 -53.54443 88.11487 -9.32294 215.2 139)"/><circle r="1" fill="#fff" transform="rotate(-91.3 51 -49.9) scale(16.45141 164.70555)"/><path fill="#4f3000" d="M53 18h76v61H53z"/><path fill="#fff" d="M215.7 60.8l4.5-19-37-57.8-13.9 2.3zM129 0h15v151h-15z"/><circle r="1" fill="#f2d159" transform="matrix(.606 17.50502 -96.84204 3.35252 13.2 107.3)"/><circle r="1" fill="#664321" transform="matrix(-11.75598 -7.24671 13.3556 -21.6661 27.8 92.4)"/><path fill="#fff" d="M249 0h7v170h-7z"/><path fill="#fff9d6" d="M81.6 95.2L64.9 52l1.6 42.7 34.1-28.3z"/><path fill="#190801" d="M100 101l14-77 15 46z"/><path fill="#ccac2f" d="M84.2 82.9L110 15.3l-23.4 5.1-1.5 31.7z"/><path fill="#732d1f" d="M145 44h104v41H145z"/><circle r="1" fill="#ffffef" transform="matrix(-22.94723 -21.31868 14.82089 -15.95307 3.1 0)"/><path fill="#ebe4e4" d="M-45.6 153.7l.2-7 91 1.6-.2 7z"/><path fill="#fcfcf6" d="M-6.2 143.7L12 82l-28 14.4 9.5 46.1z"/><path fill="#004059" d="M145 12h22v47h-22z"/><path fill="#fff" d="M114 88h39v37h-39z"/><path fill="#ffffbe" d="M46 24h6v33h-6z"/><ellipse cx="112" cy="93" fill="#081004" rx="2" ry="50"/><path fill="#743713" d="M199 12h49v53z"/><path fill="#d0d9fb" d="M108.2 132.9l-7.7-.6-6.2-34.1 16.4 5.6z"/><ellipse cx="68" cy="90" fill="#fff" rx="25" ry="4"/><path fill="#fffef4" d="M201.5 21.6l22 27.2-7 5.6-22-27.2z"/><ellipse cx="71" cy="162" fill="#522918" rx="41" ry="7"/><circle r="1" fill="#030409" transform="matrix(0 31.50891 -5.51139 0 79.7 50.3)"/><path fill="#fff" d="M130 0h15v146h-15z"/><path fill="#fff" d="M271 11L90 12l100-28z"/><ellipse cx="75" cy="152" fill="#aaafd0" rx="22" ry="4"/><path fill="#fff" d="M132 85h124v13H132z"/><path fill="#ffbb74" d="M222 14h14v19h-14z"/><path fill="#fffff9" d="M40.6-5l74 27.4 27.4-8.3-8 7.7z"/><circle r="1" fill="#fff" transform="matrix(27.78411 36.72335 -144.04377 108.98049 234.8 165.2)"/><circle cx="60" cy="80" r="6" fill="#6d0000"/><path fill="#b67019" d="M31 34h14v65H31z"/><path fill="#a63b17" d="M176 31l-18 31 51-22z"/><path fill="#7e4c27" d="M97.8 168.3l-.6-36 31-.6.6 36z"/><path fill="#dda020" d="M0 155h26v15H0z"/><path fill="#fff" d="M47 71h8v18h-8zM32 17h8v17h-8z"/><path fill="#fad235" d="M42 93h49v25H42z"/><circle r="1" fill="#fff" transform="matrix(6.29112 .34071 -2.5592 47.25441 255 38.5)"/><path fill="#775d3c" d="M-16 19l47 4-17 70z"/><path fill="#0a0809" d="M121 23h7v64h-7z"/><path fill="#786b0b" d="M94 70h15v25H94z"/><ellipse cx="34" cy="133" fill="#af792b" rx="70" ry="16"/><path fill="#031218" d="M23 24h4v64h-4z"/><path fill="#e2b1b7" d="M154 98h89v10h-89z"/><path fill="#e3c1c6" d="M249.1 138.2l-34.2-7.5-59.9 10.7 69.2 3.9z"/><path fill="#000007" d="M59.3 77.4l-5 .2-1.6-45 5-.2z"/><path fill="#e5ae31" d="M34 103L5 121l26 15z"/><path fill="#fffff3" d="M-16 1.2l99.7 20L95.5-1.3 82.9-16z"/><circle r="1" fill="#d1e7fd" transform="rotate(-113 106.5 -52.3) scale(12.08622 4.03585)"/><path fill="#e8e0b6" d="M106.9 135l3.7-36.1-24.2-6.4 5.7-28z"/><path fill="#fff" d="M129 0h16v170h-16z"/><circle r="1" fill="#0b303d" transform="matrix(8.0005 -16.51306 10.77859 5.22217 162.7 29.6)"/><path fill="#fff" d="M57.4 1.9L271-1.6l-38.2 18.5-16.9-7.6z"/><path fill="#d82f05" d="M59.7 16.4L64.3 49l-4 .5L55.7 17z"/><path fill="#2f2621" d="M202 13l22-2-4 22z"/><ellipse cx="31" cy="45" fill="#d87739" rx="6" ry="18"/><ellipse cx="213" cy="100" fill="#7d1925" rx="1" ry="25"/><path fill="#e38e53" d="M193.8 62.2l24.5-19.7-1.8-4.1 17.8 9.5z"/><path fill="#deaab0" d="M217.9 114.4l-17.4 10.7-23-2.2 2.8-6.3z"/><ellipse cx="8" cy="56" fill="#b35b30" rx="5" ry="30"/><path fill="#3e1a03" d="M238 14h10v17h-10z"/><path fill="#fffff9" d="M67 64h4v26h-4z"/><path fill="#813b05" d="M122 125h7v33h-7z"/><path fill="#fefefa" d="M152.1 104.2l1.5-18.8-40.9 42 1.1 4.9z"/><circle r="1" fill="#ead598" transform="rotate(170.3 3.3 55) scale(29.22177 1)"/><path fill="#b2844a" d="M117.3 171l4.8 14-11.3-43.8-15.1 19.9z"/><ellipse cx="160" cy="67" fill="#1f1a11" rx="4" ry="18"/><path fill="#fff" d="M130 158h118v12H130z"/><path fill="#c7991b" d="M85 16h13v26H85z"/><path fill="#bd4420" d="M174 34l-10 20 17 16z"/><path fill="#fcf0d2" d="M76 80.7L30.4 98.4l-46.4 2.3L90.1 91z"/><path fill="#e4cc89" d="M56.3 16.9l-8.9 33.3h7.2l-9.7-31.8z"/><path fill="#828487" d="M144 156h76v1h-76z"/><path fill="#b3360f" d="M59 48h7v36h-7z"/><path fill="#7c8242" d="M100.2 63.8l-5.4 50.7-3-.3 5.4-50.7z"/><path fill="#e08328" d="M125 27h4v18h-4z"/><ellipse cx="117" cy="11" fill="#fef1e2" rx="8" ry="12"/><path fill="#2f443c" d="M24.5 42.7l7.3 51.9L9.5 36.1l8.8-19.3z"/><circle cx="121" cy="153" r="7" fill="#331e17"/><path fill="#abadaf" d="M17.4 91.9l8.5 3.8 3.9-2.2-6-5.8z"/><path fill="#d7d6cd" d="M213 62L190.8-9.4l5.3 12.8 15.8 22.7z"/><path fill="#f4f9ff" d="M11.1 91.9L-7.7 105l-3.4-5L7.7 87z"/><path fill="#322a2b" d="M215 84l2-15-23 15z"/><path fill="#52321a" d="M10 100h31v5H10z"/><path fill="#e8a400" d="M3 96h7v24H3z"/><path fill="#fff" d="M147 107h89v8h-89z"/><path fill="#5e3d28" d="M117 127.9l-51.7 44.7-4-28.5 23.8 29z"/><path fill="#835522" d="M20.4 143.1l13 29.4-13.2-45.8-9.3 58.3z"/></g></g></svg>