<svg xmlns="http://www.w3.org/2000/svg" viewBox="0 0 1400 933"><defs/><filter id="a"><feGaussianBlur stdDeviation="12"/></filter><rect width="100%" height="100%" fill="#2d2017"/><g filter="url(#a)"><g fill-opacity=".5" transform="translate(2.7 2.7) scale(5.46875)"><circle r="1" fill="#fff" transform="matrix(205.90906 53.54671 -26.09747 100.35549 124.9 108)"/><circle r="1" fill="#fff" transform="matrix(-7.08316 46.29672 -142.68662 -21.83032 185.8 126.8)"/><ellipse cx="112" cy="26" fill="#fff" rx="16" ry="85"/><circle r="1" fill="#fff" transform="rotate(92.7 51.5 170.8) scale(83.56944 36.83386)"/><ellipse cx="175" cy="29" fill="#8c490d" rx="48" ry="53"/><circle r="1" fill="#130000" transform="matrix(4.80153 -12.12729 33.42958 13.2357 66.7 51.8)"/><circle r="1" fill="#c48631" transform="matrix(8.4134 33.00824 -69.93383 17.8253 58.8 139)"/><circle r="1" fill="#ffffe4" transform="matrix(14.69315 -2.90391 17.4916 88.50368 0 46)"/><ellipse cx="185" cy="153" fill="#fff" rx="77" ry="73"/><ellipse cx="76" cy="5" fill="#fff" rx="52" ry="8"/><circle r="1" fill="#9b6512" transform="matrix(-20.97221 11.70748 -18.31237 -32.8039 36.1 53.3)"/><circle r="1" fill="#fff" transform="matrix(13.8565 .14668 -.68411 64.62455 114.3 51.7)"/><path fill="#7f4e30" d="M129.9 32l3.9-44.8L302 2l-3.9 44.8z"/><path fill="#fff" d="M208 40h30v49h-30z"/><path fill="#5e3500" d="M130 62h80v19h-80z"/><path fill="#994700" d="M239 43h17v38h-17z"/><ellipse cx="44" cy="83" rx="24" ry="5"/><path fill="#fff" d="M-3 88l70 19 42-22z"/><path fill="#5b3e0b" d="M59 15h41v55H59z"/><path fill="#47182e" d="M12 132h92v8H12z"/><path fill="#ffffe1" d="M36.5 57.6l-52.5 39L41.3 69l195.8 42z"/><path fill="#390f1a" d="M15 152h90v10H15z"/><path fill="#edbb65" d="M129.7 100.7l.6 30-154 2.6-.6-30z"/><circle r="1" fill="#fff" transform="rotate(-89.1 19.5 16) scale(75.83085 5.23811)"/><circle r="1" fill="#dc9638" transform="matrix(-15.93693 16.24681 -11.50962 -11.2901 108.6 169)"/><path fill="#fff" d="M129 81l-1 104 44-105zM100 0h28v94h-28z"/><path fill="#fff" d="M42-16l23 28 61-4z"/><path fill="#512600" d="M9 34h7v36H9z"/><path fill="#fff2b9" d="M145.6 36.8l-68.8.4 90.6 13.2-31.1 8.3z"/><path fill="#170000" d="M128 52h7v29h-7z"/><path fill="#000100" d="M66.8 42.7l24-.4.4 27-24 .4z"/><path fill="#f9e5e6" d="M208 40h31v114h-31z"/><ellipse cx="221" cy="20" fill="#7a4d31" rx="91" ry="21"/><ellipse cx="50" cy="144" fill="#efdfab" rx="28" ry="6"/><circle r="1" fill="#fff" transform="rotate(-176.9 6 40.3) scale(13.35245 10.62363)"/><circle r="1" fill="#764216" transform="rotate(-54.5 34.5 -21.4) scale(4.95458 29.40077)"/><path fill="#0f2311" d="M126.9 9.8l3.6-14.4 99.7 13.1-66-1.8z"/><path fill="#fffcf5" d="M68.8 74.2l34.7-4.2 3.7 29.8-34.7 4.2z"/><ellipse cx="249" cy="110" fill="#fff" rx="19" ry="30"/><path fill="#f8f4b9" d="M27 116h73v9H27z"/><path fill="#fff" d="M129.7 118.5l-2 66.5L271 166.4 150.1 155z"/><path fill="#ffba19" d="M202.5-7.9L188.3 3.5l45.2 2.8 8.3.6z"/><path fill="#281f2c" d="M-9.1 133l-6.9 8.1L6.3 146l19.4-4.1z"/><path fill="#efc790" d="M7-10l51-6-1 47z"/><path fill="#512200" d="M0 120h28v4H0z"/><path fill="#eee4d2" d="M15.4 31.4l19.4-4.5 1.8 7.7-19.4 4.5z"/><path fill="#e99617" d="M26 66h40v12H26z"/><path fill="#0a0000" d="M161.6 25.2l.6 6-33.8 3.6-.6-6z"/><path fill="#37547b" d="M206 33.4l.7 8-60.7 5.2-.7-8z"/><path fill="#fff" d="M57 0h1v64h-1z"/><path fill="#140500" d="M29 78h39v9H29z"/><path fill="#c86419" d="M98.3 112.6l-21.5 7.6 10.8-20.4 5.2-1.4z"/><path fill="#4c3517" d="M49.3 35.6L20.8 56.1l5.9-40L28.6 44z"/><path fill="#cf4e0a" d="M60.8 110.1l-.8 7-30.8-3.2.8-7z"/><ellipse cx="2" cy="23" fill="#fff" rx="6" ry="76"/><path fill="#b88f5b" d="M64 13h35v20H64z"/><path fill="#2d1707" d="M18 153l-7 29 19-26z"/><path fill="#1d0a00" d="M239 76h17v5h-17z"/><path fill="#d4d4d6" d="M144 93h49v61h-49z"/><ellipse cx="71" cy="90" fill="#fff" rx="255" ry="3"/><path fill="#ae863a" d="M91 122h37l1 15z"/><path fill="#7d5a28" d="M128 59h80v22h-80z"/><path fill="#3f332d" d="M267.9 35.8l3.1 11.4-32.9 4.4 8.8-67.6z"/><path fill="#fff7ac" d="M35 54l-12 1 7 13z"/><path fill="#fff" d="M100.6 13.3l-44-1.6.8-25 44 1.6z"/><ellipse cx="174" cy="86" fill="#fff" rx="104" ry="6"/><ellipse cx="185" cy="13" fill="#94833b" rx="57" ry="5"/><path fill="#d6d58b" d="M-16 185l36-33.4-32.4-11.6 19.8-14.3z"/><ellipse cx="115" cy="27" fill="#fff" rx="13" ry="64"/><path fill="#120000" d="M55 50L41 62l15-1z"/><ellipse cx="217" cy="99" fill="#ead9d9" rx="11" ry="58"/><path fill="#5e4037" d="M64 130h40v8H64z"/><ellipse cx="158" cy="35" fill="#f39968" rx="26" ry="3"/><path fill="#f0bc4c" d="M271 52l-30 1-2 23z"/><path fill="#943838" d="M271 24.8L155.9 13.6l6.3 20.1 37.3 3.4z"/><path fill="#a3825f" d="M57-7L13 29l43-15z"/><path fill="#cfa058" d="M192.6 70.4l-.2 4-53-2.8.2-4z"/><path fill="#dfe6c8" d="M105 130h16v25h-16z"/><ellipse cx="33" cy="101" fill="#f9e5bd" rx="97" ry="3"/><ellipse cx="138" fill="#e5b43d" rx="10" ry="3"/><path fill="#f5d074" d="M150 57l-6-22-11 29z"/><path fill="#171412" d="M96.4 71.6L79.6 59.5l4.9-15.8-2-28.1z"/><path fill="#ce9b2a" d="M33 96l-35 11 23 1z"/><path fill="#fff" d="M0 71h24v14H0z"/><path fill="#aa6f20" d="M8 51h18v20H8z"/><path fill="#2f1500" d="M138.7 71.9l4.7 8.8-14.3-5.1V43.1z"/><path fill="#7c5621" d="M22 146.6l8.3-26.6-7.3 3.7-13.3 49.4z"/><path fill="#96959c" d="M110.8 33.4l-25.5-4.3-28.8 15.5 9.8-19.2z"/><path fill="#17323e" d="M210 31h30v7h-30z"/><path fill="#fff" d="M128 93h16v77h-16z"/><path fill="#d6b270" d="M51 161h47v9H51z"/><path fill="#efdea2" d="M67 129.3L7.9 103.4l41.8 30.7L48 93.3z"/><path fill="#15150e" d="M162 54.6l-.2-1 42.2-8.2.2 1z"/><path fill="#fffb98" d="M25 63h39v4H25z"/><path fill="#fffff7" d="M57 26V14l-11 6z"/><path fill="#f9f2f1" d="M208 41h31v40h-31z"/><path fill="#503638" d="M15 153h44v11H15z"/><path fill="#bb9b6c" d="M31.1 24.2L7.7 37.7 9.5-.6l-.1 8.8z"/><path fill="#401613" d="M215.8 12.6l-19 1.7 16.2 4.2 45 2z"/></g></g></svg>