<svg xmlns="http://www.w3.org/2000/svg" viewBox="0 0 1400 933"><defs/><filter id="a"><feGaussianBlur stdDeviation="12"/></filter><rect width="100%" height="100%" fill="#635031"/><g filter="url(#a)"><g fill-opacity=".5" transform="translate(2.7 2.7) scale(5.46875)"><circle cx="196" r="179" fill="#fffffb"/><ellipse cx="171" cy="50" fill="#552407" rx="170" ry="35"/><circle r="1" fill="#fff" transform="matrix(-106.11979 -30.83065 15.49002 -53.31701 224 144.7)"/><circle r="1" fill="#fff" transform="matrix(-223.8983 6.9597 -.53568 -17.23326 87.8 2.5)"/><ellipse cx="137" cy="79" fill="#fff" rx="9" ry="169"/><circle r="1" fill="#d6972f" transform="matrix(-7.9026 43.92085 -88.4249 -15.91015 41.9 135)"/><path fill="#fff" d="M248 0h8v170h-8z"/><circle cx="218" cy="140" r="57" fill="#fff"/><ellipse cx="165" cy="39" fill="#010c1b" rx="21" ry="28"/><ellipse cx="136" cy="47" fill="#fff" rx="8" ry="169"/><circle r="1" fill="#fff" transform="rotate(144.9 97 46) scale(7.31177 27.55602)"/><path fill="#6c3e27" d="M50 126h79v44H50z"/><circle r="1" fill="#211100" transform="matrix(7.13592 -33.96844 15.63053 3.28358 111.5 61)"/><path fill="#fff" d="M-16-16L4.8 24.5l126.9-9.9L271 5.5z"/><circle r="1" fill="#fff268" transform="matrix(-7.07376 -14.31267 32.38442 -16.00538 67.4 99.9)"/><path fill="#643900" d="M57 87l73-63-78-9z"/><ellipse cx="253" cy="9" fill="#fff" rx="5" ry="169"/><circle r="1" fill="#ffffd8" transform="rotate(113 -35 53) scale(23.44765 7.70979)"/><ellipse cy="152" fill="#cac9cf" rx="104" ry="4"/><ellipse cx="155" cy="168" fill="#fff" rx="27" ry="84"/><path fill="#b77324" d="M52 47l-13 68-16-97z"/><path fill="#853516" d="M217 13h32v73h-32z"/><ellipse cx="179" cy="63" fill="#752f24" rx="35" ry="22"/><path fill="#fff4f7" d="M115 85h141v42H115z"/><path fill="#003a50" d="M145 13v57l40-58z"/><path fill="#fff" d="M66 63h6v30h-6z"/><path fill="#f4edc2" d="M46 4h7v89h-7z"/><path fill="#fff" d="M260.3-16l-33 49.1-2.9-20.4L-12.2 11z"/><path d="M76 23h9v55h-9z"/><path fill="#fff" d="M130 0h15v144h-15z"/><path fill="#c0ab25" d="M85 18h15v61H85z"/><path fill="#efc034" d="M2.9 110.5L-16 128l103.8-8.2 8.3-27.6z"/><circle r="1" fill="#fff" transform="matrix(.07415 3.54002 -23.98364 .50239 70 89.3)"/><path fill="#213232" d="M12.8 31.7l15.9 70.9L27 21.9l-37.3 26.6z"/><path fill="#542a07" d="M56.8 60.7L32.5 94.2l7.4-25.3 24.3-30.2z"/><path fill="#080400" d="M121 21h7v69h-7z"/><path fill="#e3ebfd" d="M93 111l15 20 2-33z"/><path fill="#ffe0bc" d="M210 57l-3-35 18 23z"/><ellipse cx="218" cy="169" fill="#fff" rx="91" ry="26"/><path fill="#fffae4" d="M40.7 26.4l61.8-30.6-77-11.8 9.4 59.4z"/><path fill="#1a0800" d="M221 12l1 21-21-21z"/><path fill="#683713" d="M97 131h32v23H97z"/><path fill="#513018" d="M28 155h66v11H28z"/><path fill="#000300" d="M111 53h3v74h-3z"/><path fill="#936e47" d="M19 25l-4 87-20-90z"/><path fill="#e2d0d2" d="M244 95l-87 72-4-68z"/><circle r="1" fill="#943a1c" transform="matrix(2.47498 12.38102 -22.60114 4.51799 185.3 48.2)"/><path fill="#ad7627" d="M26 121h71v26H26z"/><ellipse cx="255" cy="76" fill="#fff" rx="7" ry="166"/><path fill="#eaf8ff" d="M207.5 42.3L164-16l43.9 41.5 6.4 22.8z"/><path fill="#6c3c35" d="M145 61h100v24H145z"/><ellipse cx="56" cy="51" fill="#070004" rx="3" ry="33"/><path fill="#da8b35" d="M236.2 35.7l-16-1.4 1.6-18 16 1.4z"/><path fill="ivory" d="M122 19l-10 2-3-22z"/><ellipse cx="239" cy="91" fill="#fff" rx="113" ry="7"/><path fill="#ffe" d="M-3-15L26 4.6 11 27-18 7.4z"/><path fill="#eee5d3" d="M7 96.2l6-3.8-29-18.2L-4.3 142z"/><path fill="#562818" d="M237 14h11v62h-11z"/><path fill="#e8a100" d="M4 96h7v25H4z"/><path fill="#fff" d="M130 0h126v13H130z"/><path fill="#200400" d="M127.8 160.2l-12-.4.4-10 12 .4z"/><path fill="#fffdfd" d="M54.9 70.8L44.5 84.6l52.1 7.2-42.8 1.9z"/><ellipse cx="198" cy="111" fill="#fff" rx="83" ry="4"/><ellipse cx="213" cy="101" fill="#7e1019" rx="1" ry="24"/><circle r="1" fill="#fff" transform="rotate(174.5 67.3 27.9) scale(7.32426 38.53467)"/><ellipse cx="195" cy="156" fill="#797b7d" rx="29" ry="1"/><path fill="#d14511" d="M56 18l4 34 5-33z"/><path fill="#fff" d="M171 125h85v9h-85z"/><ellipse cx="93" cy="22" fill="#c69a23" rx="11" ry="7"/><path fill="#fff8b4" d="M9.2 99.4l55.5-7.8.1 1-55.5 7.8z"/><ellipse cx="79" cy="152" fill="#938479" rx="34" ry="5"/><path fill="#3c442d" d="M13 34l17-15-14 59z"/><ellipse cx="102" cy="63" fill="#6b5719" rx="7" ry="36"/><path fill="#947234" d="M36.2 170.3L36 78.6 47.4 8.5l1 13.7z"/><path fill="#e4ab2f" d="M15.1 131.7l-9.6-16.3 40.8-8.4-16.4 26.9z"/><path fill="#e3d9cc" d="M93.1 89.8l18.6 15.6-38.4-20.2 20.6-9.9z"/><circle r="1" fill="#7c6d36" transform="matrix(1.17626 .07813 -4.68559 70.54488 94.6 106.7)"/><path fill="#3e0d00" d="M48 148h5v12h-5z"/><path fill="#4b2c29" d="M174.7 16.2l11.1-4.1 9.1 19.6-23.7 6.2z"/><path fill="#f4eedc" d="M114.3 132.4l1-52 5.1 3.1 8.1 34.4z"/><path fill="#061614" d="M110 21h5v54h-5z"/><path fill="#867165" d="M194 46.6l.6 6.1-10.7 33.4 22.4-6.6z"/><path fill="#c27643" d="M134 180l-7-18-35-8z"/><ellipse cx="26" cy="74" fill="#0e0f11" rx="5" ry="15"/><path fill="#61472a" d="M44.9 98.2L5.4 114.9l18.6-2.8-7.7-12.9z"/><path fill="#d5a3a5" d="M154 94h16v11h-16z"/><ellipse cx="161" cy="61" fill="#122724" rx="4" ry="24"/><path fill="#1d3840" d="M3.4 59.6L1 20l-17 79.1L5 84.8z"/><path fill="#e9b926" d="M41 94h49v11H41z"/><path fill="#a54b2a" d="M178.6 30.3l-1.9 49.2-32.1-29.7 4.5 30.5z"/><path fill="#f9ffff" d="M27 93h-8l6-4z"/><path fill="#6e360c" d="M41 122h43v3H41z"/><path fill="#0f0f11" d="M74 40h10v31H74z"/><circle r="1" fill="#99692b" transform="rotate(36.1 -171 244.7) scale(6.57829 29.53062)"/><path fill="#b1270a" d="M59 47h6v39h-6z"/><path fill="#fffdd4" d="M14.6 156.7l-18.4-4.6 1.2-4.8 18.4 4.6z"/><path fill="#a1202c" d="M208 127h2v15h-2z"/><path fill="#885720" d="M9.6 127.4L31.9 164l-10.1-33.8-6.1 32.6z"/><path fill="#c88f18" d="M0 155h26v15H0z"/><path fill="#b35131" d="M222.2 59.8l7 21.7-13.6-18.1-35.7-27.6z"/></g></g></svg>