<svg xmlns="http://www.w3.org/2000/svg" viewBox="0 0 933 1400"><defs/><filter id="a"><feGaussianBlur stdDeviation="12"/></filter><rect width="100%" height="100%" fill="#3b2d4a"/><g filter="url(#a)"><g fill-opacity=".5" transform="translate(2.7 2.7) scale(5.46875)"><circle cx="80" cy="193" r="217" fill="#fff"/><circle cx="82" cy="35" r="237" fill="#fff"/><circle r="1" fill="#fff" transform="matrix(-.0308 -16.45367 168.9997 -.31627 75 14)"/><circle r="1" fill="#fff" transform="matrix(167.54127 14.36335 -2.37716 27.72837 109 250)"/><path fill="#9a919d" d="M48 103h72v63H48z"/><ellipse cx="169" cy="83" fill="#fff" rx="8" ry="192"/><ellipse cx="1" cy="165" fill="#fff" rx="7" ry="180"/><ellipse cx="87" cy="10" fill="#fff" rx="169" ry="17"/><ellipse cx="65" cy="244" fill="#fff" rx="169" ry="16"/><path fill="#aca69f" d="M107 182h52v41h-52z"/><path fill="#ebe9e9" d="M59 86l46 55-48-4z"/><circle r="1" fill="#968f94" transform="matrix(5.27533 -23.03329 13.83183 3.16791 61.7 165.5)"/><path fill="#a69ead" d="M135 68L66 34l88-3z"/><path fill="#887f90" d="M75.7 101l54.9 26.5-47.7 42.3 27.2-67.6z"/><path fill="#ede8dc" d="M60 190h55v40H60z"/><path fill="#504361" d="M44 128l8-18 1 27z"/><circle r="1" fill="#f2f1ec" transform="matrix(26.70765 1.17776 -.95823 21.7294 17.4 119.6)"/><path fill="#efede9" d="M130.1 60.5l-17.2 57.6-11.6 27.3 35.1-40.6z"/><path fill="#fff" d="M-8.5 27v-48h187v48z"/><ellipse cx="169" cy="121" fill="#fff" rx="6" ry="247"/><ellipse cx="100" cy="248" fill="#fff" rx="169" ry="19"/><path fill="#ebe9e4" d="M69.4 170.1L-16 105l80.2 73-63.1 23.5z"/><circle r="1" fill="#eeece8" transform="matrix(13.6306 -5.20502 9.57057 25.06284 65.1 77.2)"/><path fill="#aba5ad" d="M158.9 140.2l-13.3 5.1-2.6-52.2 7.4-32.1z"/><path fill="#5c4b76" d="M89.3 122.7L83.2 99v-7.6l6.5 11.2z"/><path fill="#6a5f60" d="M57.6 223.1l-3-.6 3.8-17.6 3 .6z"/><path fill="#e4e1dd" d="M99.7 164.2L-4.7 193.7l140.3-34.9-129.9 4z"/><path fill="#796f80" d="M86.2 167.6l-8.6-10.2-28.3-13.2 41.7 7.5z"/><ellipse cy="123" fill="#fff" rx="6" ry="132"/><path fill="#6e6182" d="M45.5 93.3L49 88l9.4 32.1-8.6-5.2z"/><path fill="#e1dde0" d="M100 124l-33 43 18-47z"/><path fill="#605861" d="M55 181l23-10-16 15z"/><path fill="#7d767c" d="M143 165l-27 4 9-9z"/><path fill="#04002d" d="M80 65h4v5h-4z"/><path fill="#3a2b54" d="M96.2 112.9l5.4-8.8 6.2 12.4-10.4-3z"/><path fill="#e2e0e0" d="M9.1 110.7l44.1 14.7 7.4 6.3 10.8-11.2z"/><path fill="#534a50" d="M150 211l-8 6 16 1z"/><ellipse cx="19" cy="56" fill="#bdb7bb" rx="15" ry="30"/><path fill="#7c727b" d="M79.5 190.9l-4.9 1.9 19.9-5.3-10.5-5.7z"/><path fill="#f5f4ed" d="M26.4 140.4l6.3 14.4 17.6-11.4 11.2-9.4z"/><path fill="#7c7284" d="M76 149l-26-6-4 27z"/><circle cx="152" cy="68" r="3" fill="#1a043e"/><path fill="#716585" d="M102 41l16-10 4 9z"/><path fill="#dfdddc" d="M57 104.8L121.9 55l13.2 1.8 4.8-32.8z"/><path fill="#eeece6" d="M136.8 173.1l-13.9 8.3-18.9-9.2 27.8 22z"/><path fill="#6a5e78" d="M60 131l9-3-1 9z"/><path fill="#9b9398" d="M14.4 165.7l-4.4-7.6 18.7-1.1 6.4 10.4z"/><path fill="#433b4a" d="M158 192.5h-8v-5h8z"/><path fill="#847b85" d="M124 217l-12-12-5 9z"/><path fill="#e7e5e4" d="M69.2 161l-14.7 3.2-1.2-40.1 6 52.2z"/><path fill="#f6f4e9" d="M24 162l23 19-30 8z"/><path fill="#38235f" d="M77 36h5v8h-5z"/><path fill="#efeee8" d="M120 118l42-25-33 37z"/><path fill="#dad7d6" d="M106.5 181.6l6.5-62.2 5.8 27.8-10.8-4.9z"/><path fill="#837891" d="M71 94.7l46 1.6v1l-46-1.6z"/><circle r="1" fill="#4e4359" transform="rotate(112.2 -20 82.8) scale(6.04988 1.95679)"/><path d="M81.9 153.8l-.8 4.9-3-.5.8-4.9z"/><path fill="#aea7ac" d="M152.7 158.3l-13.2 49.2 3-36.9-4.7-43.4z"/><path fill="#6b5e7d" d="M99.1 134.1l15.8-33.8-13.2 6.7 12.5 5.5z"/><path fill="#e8e6e3" d="M85 143.8l19.9 25.2-35.7 2.3 51.6-.5z"/><path fill="#fdfef7" d="M153 159.2l.5-19.1 31.5 3.3-13.3 30.4z"/><path fill="#746a79" d="M87.7 151.9l12.5 18.3-13.8-31.1 4.5.2z"/><path fill="#e5e4df" d="M13.9 72l21.3 1.8 24.2-43.2L41.9 100z"/><ellipse cx="119" cy="152" fill="#89828c" rx="2" ry="35"/><path fill="#746b76" d="M103 181h17v5h-17z"/><circle cx="17" cy="81" r="3" fill="#36294d"/><circle r="1" fill="#413549" transform="matrix(-6.66817 3.27737 -.67013 -1.36345 102.8 147.7)"/><path fill="#352740" d="M46 174l2-3 9 2z"/><path fill="#edece9" d="M57 131l7-46 32-13z"/><path fill="#766b88" d="M76 101h20v8H76z"/><path fill="#edeae5" d="M84 232l-5-72-15 32z"/><path fill="#d1cdd3" d="M87 117l21-21-6-9z"/><path fill="#ecebe9" d="M83.8 111.9l9.3-31.7-20-69 27.2 60.1z"/><path fill="#978fa6" d="M111.3 69.7L90.8 82.6l-2.2.1 11.2 2.5z"/><ellipse cx="118" cy="49" fill="#443858" rx="12" ry="1"/><path fill="#d6cfc3" d="M6 190h48v39H6z"/><path fill="#e8e6e2" d="M121 68l46 2-51 27z"/><path fill="#dbd7d0" d="M132.7 198.1l35 25.7-10.2-29.1-49.8 20.1z"/><path fill="#d8d4d6" d="M124 140.1l-37.6 4.6-.7 11.1-3.7-3.4z"/><path fill="#ece8e3" d="M64 229l38-12 3-46z"/><path fill="#b9b4bd" d="M22 95l-10 19 17 11z"/><ellipse cx="96" cy="7" fill="#fff" rx="169" ry="20"/><path fill="#80768f" d="M67 117h39v3H67z"/><path fill="#000016" d="M97 130h8v2h-8z"/><ellipse cx="61" cy="248" fill="#fff" rx="169" ry="19"/><circle cx="85" cy="131" r="4" fill="#7c6e8d"/><path fill="#aea79f" d="M148 228l7-14-26 11z"/><path fill="#61527f" d="M26 35h3v9h-3z"/><ellipse cy="128" fill="#fff" rx="5" ry="216"/><path fill="#0e0419" d="M66.1 178.8l-.2-3 6-.6.2 3z"/><circle cx="119" cy="132" r="5" fill="#675f6d"/><path fill="#f9f7f2" d="M66.5 181l-4.3 2.6-8.7-14.6 4.3-2.6z"/><path fill="#b1aab8" d="M42.2 64.3l2.7-4.2 21 13.6L63 78z"/><path fill="#e7e6e3" d="M55.9 88.8l37-36 32.5-38.4-47.1 38.1z"/><path fill="#615477" d="M48 83h8v4h-8z"/><path fill="#675482" d="M86 65l-3-3-3 12z"/><path fill="#888089" d="M72 173h26v2H72z"/><path fill="#fff" d="M87 90h6v10h-6z"/><path fill="#eeeee3" d="M131.3 142.2l4 35.4-11.4-3.7 16.8-17.5z"/><ellipse cx="86" cy="30" fill="#d3d1d0" rx="78" ry="3"/></g></g></svg>