<svg xmlns="http://www.w3.org/2000/svg" viewBox="0 0 1400 933"><defs/><filter id="a"><feGaussianBlur stdDeviation="12"/></filter><rect width="100%" height="100%" fill="#3a564e"/><g filter="url(#a)"><g fill-opacity=".5" transform="translate(2.7 2.7) scale(5.46875)"><circle cx="96" cy="79" r="183" fill="#fff"/><circle cx="66" cy="42" r="236" fill="#fff"/><circle r="1" fill="#fff" transform="matrix(-98.13522 235.36031 -46.21299 -19.26885 43 32.2)"/><circle r="1" fill="#fff" transform="matrix(-145.5382 -208.72252 53.0356 -36.9807 179.4 1.3)"/><circle r="1" fill="#fff" transform="matrix(254.9965 -1.33517 .05339 10.19596 116.2 140.2)"/><circle r="1" fill="#fff" transform="matrix(-7.55151 188.01621 -29.55822 -1.18718 13.2 72.9)"/><ellipse cx="245" cy="84" fill="#fff" rx="22" ry="169"/><path fill="#afb9aa" d="M104 51h58v69h-58z"/><circle r="1" fill="#fff" transform="matrix(.42008 -16.8903 117.04087 2.91095 125 0)"/><ellipse cx="209" cy="110" fill="#cad0bf" rx="14" ry="43"/><path fill="#fff" d="M85 185l-101-35 209 13z"/><path fill="#b8bca7" d="M49.9 154L34 148l16.1-42 15.9 6z"/><circle r="1" fill="#f4f4ed" transform="matrix(43.51925 14.63246 -2.39205 7.11432 159.1 71.8)"/><path fill="#8b9b8d" d="M74 53l25-3-22 17z"/><circle r="1" fill="#fff" transform="matrix(-24.32536 -.24354 2.23138 -222.87266 14 85.2)"/><circle r="1" fill="#fbf8e8" transform="matrix(-25.93092 1.35898 -.65062 -12.41452 157.2 128.7)"/><circle r="1" fill="#fff" transform="matrix(-27.07938 -.37812 1.34333 -96.2024 251.4 79)"/><path fill="#fffff8" d="M122 51l17-36-52 31z"/><path fill="#91a094" d="M156 81.2L146.5 96l-47.7 5.1 52.2 14.6z"/><circle r="1" fill="#fff" transform="matrix(115.9117 -2.32256 .17738 8.85254 137 169)"/><ellipse cx="193" cy="26" fill="#d1d5c9" rx="30" ry="15"/><path fill="#8d9987" d="M59.9 61.2l-6.7 4.5-9.5-3.1-1.4-5.4z"/><path fill="#d1d4c1" d="M69 138h122v21H69z"/><circle r="1" fill="#eaece4" transform="matrix(-6.24518 14.354 -6.5602 -2.85423 128.9 87.8)"/><path fill="#819385" d="M78.2 59l32.1 27.9L100 75.2l-20.5-4.3z"/><path fill="#7a8b7b" d="M123.2 122.4l7.7 4.7 7.2-8.3-13.8-3.6z"/><path fill="#97a69e" d="M121 57l-17 40V44z"/><path fill="#fffced" d="M24.4 117.2l67-31.2-22.8 33-4.2-56.7z"/><ellipse cx="178" cy="104" fill="#dfe2d4" rx="25" ry="23"/><path fill="#fff" d="M142-16L43 9l190 4z"/><path fill="#f2f2e6" d="M106.6 72.2l-5.8 13.4-76.9-29.2 95.6 26.5z"/><path fill="#d5d8cb" d="M49 44l7-16 47 42z"/><path fill="#85988d" d="M218 115l-6-8-3 18z"/><path fill="#fffff1" d="M93.3 126l-1.7 14-16.9-2 1.7-14z"/><path fill="#6a7d6e" d="M95 20h5v7h-5z"/><circle r="1" fill="#fff" transform="matrix(27.73807 1.11408 -4.69108 116.79767 9.4 89.9)"/><ellipse cx="249" cy="35" fill="#fff" rx="26" ry="169"/><path fill="#fffcec" d="M95 86l-11 27 21 2z"/><ellipse cx="185" cy="84" fill="#889c93" rx="7" ry="3"/><path fill="#a8b6ad" d="M143.2 63.5l22.1-15.8 9.7 9.4-46.2-7.8z"/><path fill="#7c8c7d" d="M70.6 80l.5-.8L91.4 90l-.5.8z"/><path fill="#fffffe" d="M94.7 55.5l9.5 16.1L82 56l6.1 14.1z"/><path fill="#fffff9" d="M40 184l14-43 55 44z"/><path fill="#b0b7a5" d="M74.2 145.7L67 123.3l23.3-21.5-13.2.6z"/><path fill="#fdfcf5" d="M115 151l-31-7 20 41z"/><path fill="#f6f5eb" d="M187 128l-17-23 9 57z"/><path fill="#6b7d6f" d="M52 115l-3-9-1 19z"/><ellipse cx="182" cy="169" fill="#fff" rx="244" ry="10"/><path fill="#607669" d="M94 88l15-8-4 6z"/><path fill="#b6bdae" d="M131.9 106.8L95.7 128l-16.2-23.9-2.9 18.3z"/><path fill="#f6f5e8" d="M64.7 74.3l26 17.7L75 62.3l-16.2 70.4z"/><path fill="#f4f3ee" d="M175.3 78.6l34.4 11.5-36.1-30.5-60.6 3z"/><path fill="#617568" d="M94 34h5v6h-5z"/><path fill="#7a8d7e" d="M72 137h3v15h-3z"/><ellipse cx="84" cy="5" fill="#fff" rx="247" ry="8"/><path fill="#7c8e81" d="M98 54h2v25h-2z"/><path fill="#c4cbbd" d="M196 140l-27-43 56 46z"/><path fill="#7c8c7d" d="M81.6 91.7l-15.4-4.4.2-1 15.4 4.4z"/><path fill="#f1f0e1" d="M191 146h31v14h-31z"/><path fill="#bbc2b6" d="M116.4 157.9l24.1-24.5 8.6 26.1 8-9z"/><path fill="#fdfaeb" d="M117 131l-18 11 4-21z"/><path fill="#f5f3e8" d="M31.4 68.9l28.4 36.2 10.3 13.4 16.3-21.6z"/><path fill="#426056" d="M158 84h4v5h-4z"/><path fill="#899a90" d="M125.4 84.1l6.5-2.7 2.7 6.5-6.5 2.7z"/><ellipse cx="215" cy="39" fill="#d5d8cd" rx="9" ry="27"/><path fill="#87988d" d="M141.8 98.4l12.4 18.6.7-3.4-.7-14.6z"/><path fill="#f8f7f1" d="M202.1 99.9l-46-10.8-.3 6.4 60.6-10.7z"/><path fill="#b2bbb0" d="M98.6 146.8l-4.3 7.8 18.5-6.3-3.1-13z"/><path fill="#eaece4" d="M122 69l14 22 20 8z"/><path fill="#f9f7eb" d="M77.6 131.7l4-1.8 3.6-17L69.7 129z"/><path fill="#677d72" d="M97 57l-4-8 4-2z"/><path fill="#778c84" d="M209.1 82.5l7.8-4.5 2 3.5-7.8 4.5z"/><path fill="#839385" d="M139 19h5v5h-5z"/><path fill="#728579" d="M136.7 107.3l2.6-18.8 2 .2-2.6 18.8z"/><path fill="#fefbf6" d="M104 51l61-17h-56z"/><path fill="#e2e5db" d="M147.7 123.6l4.3 2.5-29.5-16.1 5.7-5.8z"/><path fill="#4a6459" d="M171 93h1v14h-1z"/><path fill="#7b9287" d="M125 52l12 2-5-9z"/><path fill="#24463b" d="M85.6 70l2.5 1.6-1.7 2.5-2.5-1.7z"/><path fill="#768a7b" d="M99 139.7l-1 .2-5-25.6 1-.2z"/><path fill="#e9eae2" d="M223.5 70.1l-86.7-46-6.9 96.1 11.4-76.3z"/><path fill="#436054" d="M113.3 106.6l-2.5-10.7 2-.5 2.4 10.7z"/><path fill="#bac1b6" d="M65.2 48.6L54.3 24.9l10.1 16.2 12.6-11z"/><path fill="#dadcd0" d="M100 29L60 14l29-3z"/><path fill="#fffffa" d="M77 47l19-11-16-13z"/><path fill="#455c4e" d="M113 118h5v3h-5z"/><path fill="#9ea99b" d="M43 116h35v2H43z"/><path fill="#3d5b51" d="M160.3 94.8l-1.7 4.7-1-.3 1.8-4.7z"/><circle r="1" fill="#647b6c" transform="matrix(.16035 -2.76707 1.19856 .06946 99.2 96.7)"/><path fill="#a3afa6" d="M166.4 116.3l13.6 3.4-.4 2-13.6-3.4z"/><path fill="#82988f" d="M147.5 93.5v-15h7v15z"/><path fill="#aab5aa" d="M157 128h5v11h-5z"/><path fill="#f2f3e9" d="M120.1 92.5l-33.1 15 29.5-17.2 8.5 17.1z"/><path fill="#f8f7f2" d="M196.2 104.2l-41.1-22.9 3.6-25.9-16.9 13.1z"/><path fill="#90a097" d="M136 78l2-5-14-5z"/><path fill="#d5d8ca" d="M51 103h10v42H51z"/><path fill="#f8f7e9" d="M86 122h45v2H86z"/><circle cx="214" cy="32" r="3" fill="#83958e"/><path fill="#95a498" d="M116.7 80.5l1.2 9 29 23.6-19.3-8.2z"/><path fill="#3b554b" d="M78 105h4v5h-4z"/></g></g></svg>