<svg xmlns="http://www.w3.org/2000/svg" viewBox="0 0 540 953"><defs/><filter id="a"><feGaussianBlur stdDeviation="12"/></filter><rect width="100%" height="100%" fill="#44394b"/><g filter="url(#a)"><g fill-opacity=".5" transform="translate(1.9 1.9) scale(3.72266)"><circle cx="69" cy="66" r="209" fill="#fff"/><circle cx="55" cy="59" r="204" fill="#f6f1f2"/><circle cx="69" cy="135" r="57" fill="#a197a7"/><ellipse cx="44" cy="46" fill="#f6f5f3" rx="19" ry="85"/><circle r="1" fill="#f6f4ea" transform="matrix(29.54002 19.24085 -20.92288 32.12241 69.5 238)"/><ellipse cx="36" cy="165" fill="#615465" rx="20" ry="11"/><ellipse cx="136" cy="86" fill="#fffffc" rx="16" ry="45"/><circle r="1" fill="#574e56" transform="matrix(-2.96477 -4.9342 13.90323 -8.3539 36.8 209.6)"/><path fill="#796b82" d="M90 91h16v79H90z"/><path fill="#665576" d="M16 69h7v73h-7z"/><circle r="1" fill="#f6f3f2" transform="matrix(22.85399 -11.54438 6.02633 11.9301 70.7 133.7)"/><path fill="#594a5e" d="M84 215l-12-10-10 18z"/><path d="M18 195h12v4H18z"/><circle r="1" fill="#64596b" transform="matrix(2.5934 -10.74461 7.46309 1.80135 122 131.8)"/><path fill="#736185" d="M99.8 107.8l-42.9-8.3L62 87.4l52 7.7z"/><path fill="#443347" d="M62 166h22v9H62z"/><ellipse cx="3" cy="42" fill="#e7e4e5" rx="97" ry="32"/><circle r="1" fill="#90859c" transform="matrix(-25.47221 20.65175 -6.54302 -8.07027 118 0)"/><path fill="#25084a" d="M64 49l1-15 9 3z"/><path fill="#f3f1ec" d="M97.4 163.9l21.2 28.1-62.6 2.4 52.7-29.8z"/><path fill="#fdfdf5" d="M-16 157v8.7l62-22.3-15.1-7.5z"/><path fill="#fcfdf8" d="M-16 87.9l49.1 45.4 28.1-5.6 12.9 20.6z"/><circle r="1" fill="#463a48" transform="matrix(-.19638 1.95309 -12.56656 -1.26353 110.8 212.2)"/><path fill="#2a153a" d="M21 123l-12 2 13 16z"/><path fill="#fcfbf5" d="M60.4 160.4l-20.7 23.2 32.3-6-12.5 18.1z"/><ellipse cx="5" cy="142" fill="#efece8" rx="6" ry="119"/><path fill="#efeeec" d="M41.7 7.2l45 98.1.6-62.3-41.6 70.6z"/><path fill="#4f3666" d="M18 113l7-23 7 19z"/><path fill="#46344d" d="M14.1 183.6l2.8-.1 13.5 1-14 6.8z"/><path fill="#02000a" d="M95 163l7-7-15 3z"/><path fill="#150041" d="M58.5 4.7L60.6-6l6.9 1.4L65.4 6z"/><path fill="#1f0f25" d="M137.6 187.2l-18.8 2.6-.4-3 18.8-2.6z"/><path fill="#e9e7e5" d="M100.2 138.6l21.1-28.7-7.2 32.2-25.1 4.2z"/><path fill="#998da8" d="M67.8 65.8L160 28.6l-39.2-9.1 3.8 21.4z"/><path fill="#402b4f" d="M70 176h6v11h-6z"/><path fill="#f8f4e9" d="M27 212l11 24-40 35z"/><path fill="#908a8d" d="M118 218h17v21h-17z"/><path fill="#eeece7" d="M32.3 202.3l9.6 12-15.3-62.6-.2 25z"/><path fill="#e9e7e9" d="M119.4 47.1L89.3 92.6 42.4 153l57.3-61.9z"/><circle r="1" fill="#f6f6ec" transform="matrix(-17.68692 11.9176 -8.83889 -13.1178 144 203.8)"/><path fill="#ece8e7" d="M74.3 165l-10.4 35.5 6.9-45.8-24.4.9z"/><path fill="#f8f9f1" d="M131.5 145.5l-52.2 14-.8-3 52.2-14z"/><path fill="#554169" d="M73 104l14-12-18-6z"/><path fill="#513a69" d="M16 65h14v4H16z"/><path fill="#5a4f55" d="M25 271l5-31 4 12z"/><path fill="#49325d" d="M94.6 97.5l16.2 20-7.3-4-15.8-7.4z"/><ellipse cx="50" cy="191" rx="2" ry="4"/><path fill="#e0dce0" d="M10.8 92.8l94.3 19.9-49.8 1.1 4.1-33.3z"/><circle r="1" fill="#a197a7" transform="rotate(16.7 -401 229.3) scale(4.92671 27.21049)"/><circle cx="48" cy="202" r="4" fill="#19081f"/><path fill="#887f8b" d="M105 152l19-1 1 27z"/><path fill="#897897" d="M65.3 137.8l16.6-22.9-8.8-11.4 2.8 30.1z"/><path d="M88 180l-4 4h6z"/><path fill="#f4f2f1" d="M99.4 151.4l-4.6-10.8L52.7 99l28.7 36.8z"/><path fill="#f0efe9" d="M160 153.7l-10.5 30-47.5-26.9-.1 7.6z"/><path fill="#403046" d="M57.5 164.9l-1.7-4.6.8-2.8-27.6-1z"/><path fill="#290b4a" d="M97 62l-8-3v5z"/><path fill="#756485" d="M84 80h34v4H84z"/><path fill="#12004a" d="M74 3.4v-5l6 .2v5z"/><ellipse cx="130" cy="157" fill="#06000f" rx="1" ry="12"/><path fill="#03001c" d="M100.4 136.8L89 133.1l.6-2L101 135z"/><path fill="#f6f5f3" d="M90 29l41 9L76 8z"/><path fill="#f5f6f1" d="M42 67l-13 61 19-5z"/><ellipse cx="78" cy="168" fill="#2f1b36" rx="4" ry="5"/><path fill="#130919" d="M41.6 215.1L31 209.5l1.4-2.6 10.6 5.6z"/><path fill="#421e64" d="M72.3 77.1l.4 9.9-1.4 2.8-4.8-9.6z"/><ellipse cx="102" cy="51" fill="#422863" rx="6" ry="3"/><path fill="#efece9" d="M72 213l47 25-62 8z"/><path fill="#e6e3e5" d="M5.8 92.1l61.1-29.3 2.3 50.2-19.5-58z"/><ellipse cx="19" cy="176" fill="#584762" rx="2" ry="16"/><ellipse cx="104" cy="2" fill="#422b5c" rx="6" ry="3"/><path fill="#e5e1db" d="M160 268.1l-52.8-28.6 31.8-6.6-68.6-36.2z"/><path fill="#cfcbd0" d="M49.7 32.5L27.8 74.8 35.5-16l36.8 28.4z"/><path fill="#f2f1ee" d="M123.4 62.5l26.5 58.2-50.4-72.2 10.1 38.7z"/><path fill="#322149" d="M6.4 83L-6 89.8l-.5-.8L6 82.2z"/><path fill="#300b57" d="M79 62h11v2H79z"/><path fill="#5e5268" d="M124 129l9.7 2.1-1.6 7.9-9.8-2.1z"/><path fill="#00000c" d="M62.8 99.8l-1 .4-4.6-10 1-.4z"/><path fill="#f3f2ef" d="M99.5 48.4l-40.4 29 21.4-27.6L63.1-8.1z"/><path fill="#797173" d="M101 240.9l16.7 5.5-3.5 1.9 26.2 22.7z"/><path fill="#fdfbf5" d="M11.7 201.4l.2-1 58.4 8.2-.2 1z"/><path fill="#eceae7" d="M160 201.3l-39.5-17.1-11.7 22.8-8.9-36.3z"/><path fill="#605264" d="M62 196.5v-2l26 1v2z"/><path d="M59.6 184.4l-.8 1.9-6.4-2.7.8-1.9z"/><path fill="#382345" d="M20 153h5v13h-5z"/><ellipse cx="113" cy="14" fill="#514162" rx="28" ry="1"/><path fill="#402857" d="M90.7 101.2l-.4-.9 29-13.5.4.9z"/><path fill="#fffffc" d="M13 92h5v29h-5z"/><path fill="#847488" d="M44 149h51v5H44z"/><path fill="#f5f4f2" d="M113 16l-14 9 18 37z"/><path fill="#090029" d="M76.9 131.4l.8.6-4.6 6.6-.8-.6z"/><path fill="#f3f2ee" d="M101.8 186.9l-22.3-33.5 5.5-16.3-.7 32.4z"/><path fill="#665574" d="M101 115l-22-2 35 14z"/><path fill="#260f2f" d="M63 164h5v14h-5z"/><circle cx="139" cy="179" r="2"/><path fill="#e1dedf" d="M103.9 102.4l-1.6 16.8-44.8 43.2 39-46.9z"/><path fill="#9d959f" d="M73 170h27v6H73z"/><path fill="#4e3f50" d="M20 204h2v16h-2z"/><path fill="#f9f8f3" d="M72.6 195.9l11.4-7.6-39-3.1 7.9 3.4z"/><path fill="#a79db3" d="M106.4 39L72.7 14.3l27.3 27 26.6 4z"/></g></g></svg>