<svg xmlns="http://www.w3.org/2000/svg" viewBox="0 0 1166 933"><defs/><filter id="a"><feGaussianBlur stdDeviation="12"/></filter><rect width="100%" height="100%" fill="#3a564e"/><g filter="url(#a)"><g fill-opacity=".5" transform="translate(2.3 2.3) scale(4.55469)"><circle cx="139" cy="84" r="183" fill="#fff"/><circle cx="86" cy="70" r="224" fill="#fff"/><circle r="1" fill="#f6f5ea" transform="matrix(20.91576 -60.40113 240.96195 83.44056 143.5 12.5)"/><circle r="1" fill="#fffff2" transform="matrix(-52.26769 23.27212 -24.91848 -55.96529 0 83.8)"/><path fill="#a8b3a5" d="M93 54h70v94H93z"/><path fill="#f0f0df" d="M249 77l-115 77 52 65z"/><path fill="#fffdf8" d="M192 72l7 41-89-50z"/><circle r="1" fill="#fffff3" transform="matrix(.19511 -7.98343 121.16276 2.96115 57.5 202.1)"/><path fill="#f5f6ed" d="M142.8 113.5l-20 6.5-9.6-29.5 20-6.5z"/><path fill="#708374" d="M58 54v21l19 15z"/><ellipse cx="126" cy="124" fill="#88998b" rx="34" ry="7"/><path fill="#8ea098" d="M69 52h67v8H69z"/><path fill="#859285" d="M9 67l26 1-22-11z"/><circle r="1" fill="#fffcec" transform="rotate(161.2 98 120.6) scale(50.70039 16.63342)"/><ellipse cy="66" fill="#fffff7" rx="11" ry="139"/><path fill="#b7c0b8" d="M83 36.2L72.7 16.8l28.3-15 10.3 19.4z"/><path fill="#6c806f" d="M128.8 157.7l-10.1-12.5 8.5-6.9 10.1 12.5z"/><path fill="#bfc3ae" d="M8 195l10-66 41 15z"/><path fill="#304a36" d="M61.4 123l1 .2-3.8 23.7-1-.1z"/><path fill="#fffff2" d="M30 137l21 5 23-42z"/><path fill="#f9f8f4" d="M112 0h51v45h-51z"/><path fill="#77887a" d="M47 91l10 16 11-6z"/><path fill="#889a8f" d="M161 89l-19 45 19 10z"/><ellipse cx="80" cy="132" fill="ivory" rx="14" ry="11"/><path fill="#869890" d="M94 64h20v20H94z"/><circle r="1" fill="#fffeec" transform="matrix(12.89025 8.31393 -6.52632 10.11868 66.3 161.2)"/><path fill="#fffffa" d="M88 20L57 56 40 13z"/><path fill="#96a7a0" d="M177.3 51.4l-50.1 7.3 2.2-15.9 21.3 26.1z"/><path fill="#fffffe" d="M111 31l16 40-35-41z"/><path fill="#fefcf1" d="M1 95l92-2-48-20z"/><path fill="#bbc1ad" d="M32 151.1l52.8 32.8-51.9-3.6 38.6 26z"/><path fill="#6b8276" d="M77.2 80.8l2-2.3 25.6 20.7-2 2.3z"/><path fill="#809587" d="M159.8 96.7l-2.9 11.9 11.3-1.8 7.7-7.6z"/><path fill="#83948a" d="M88.3 68.3l-8.9-13.1 8.7-26-6.1.7z"/><path fill="#83968c" d="M236 93h14v7h-14z"/><path fill="#c5cbb9" d="M87 173h108v16H87z"/><path fill="#f1f2ed" d="M174 119l-1-135 44 91z"/><circle r="1" fill="#c3cbbf" transform="matrix(31.21491 11.91982 -2.47656 6.48546 176.4 124.2)"/><path fill="#85978a" d="M79.1 103.8L98.3 91l-6.7 23.3 12.5-4.7z"/><path fill="#9aa795" d="M240 132l-5 28 17-20z"/><path fill="#b9c1b7" d="M238 8h14v26h-14z"/><path fill="#c5ccc4" d="M217 47l-37-33 23-15z"/><path fill="#9aa794" d="M79.5 138.6l9 14.1 2.1 6.3-7.7 17.6z"/><path fill="#e5e8df" d="M103.2 112.7l11-16.1-43.8-39.1 52.7 62.2z"/><circle cx="15" cy="185" r="8" fill="#8f9c8b"/><path fill="#b0bab1" d="M137.8 9.1l13 .5-20.1 23.8 9.8-19.6z"/><path fill="#fffcf6" d="M215.3 118.9l-14.6 11-15.1-19.8 62.1-11.2z"/><path fill="#eaebdf" d="M56 219l80-90.8 33.2 90.8-41.2-91.4z"/><path fill="#c1c7bc" d="M37.4 54.7l-18-12.6 13.2-18.8 18 12.6z"/><circle r="1" fill="#8c9a8c" transform="rotate(.8 -10997.7 7304) scale(47.54826 1)"/><path fill="#828f80" d="M14.9 153.8l3.4-26.9 5 19.1-13.3-3z"/><circle r="1" fill="#fdf9ef" transform="rotate(-162.9 18.4 52.8) scale(50.64602 11.54358)"/><path fill="#fffffd" d="M77 54.2l-3.9 21.2-22.3-24.8 34.8 25.8z"/><ellipse cx="128" cy="101" fill="#6c8077" rx="4" ry="5"/><path fill="#fefcee" d="M17.5 187.7l26.2-6.6 6.8 27.2-26.2 6.6z"/><path fill="#fefdef" d="M73.5 84.7l19.4 37.9-1.8-19.2-10.4 19.5z"/><path fill="#fbf9ec" d="M126.5 218.7l-53.4-12.4 43.2-31-5.4 15.5z"/><path fill="#73877c" d="M84.4 75l2.2 2-13 14-2.2-2z"/><path fill="#859789" d="M167 111h3v33h-3z"/><path fill="#f4f4eb" d="M120.1 164.7l30.2-17.7 53.4 4.6 6 15.6z"/><circle cx="186" cy="123" r="3" fill="#415c52"/><path fill="#bbc4b5" d="M245 188l-45-54 6 32z"/><path fill="#fafaf0" d="M117.8 154.5L106.2 108l2-.5 11.6 46.5z"/><path fill="#658176" d="M177 52l-6 6-5-5z"/><path fill="#f0efdf" d="M264 148l7 34-58-26z"/><path fill="#e8ebe4" d="M88 88h65v4H88z"/><ellipse cx="72" cy="58" fill="#546e63" rx="3" ry="6"/><path fill="#f7f8f3" d="M137 62l-26 7 65 14z"/><ellipse cx="168" cy="69" fill="#a6b3a9" rx="2" ry="23"/><path fill="#415d51" d="M107.4 130.1l-6.4-12.4 3.6-1.8 6.4 12.4z"/><path fill="#dbdcce" d="M48 130L2 186v-24z"/><path fill="#fffeef" d="M90 159h19v14H90z"/><path fill="#64776e" d="M90 22l-7-9 2-5z"/><path fill="#909c89" d="M123.8 200.3l-8.4-3.2 2.8-7.4 8.4 3.2z"/><path fill="#9dac9f" d="M193 95h17v9h-17z"/><path fill="#214231" d="M85 115h4v4h-4z"/><circle r="1" fill="#f5f4ec" transform="matrix(-54.77962 -51.57835 3.65013 -3.87668 238 115.7)"/><path fill="#7d8f7f" d="M49 173h5v19h-5z"/><path fill="#6a7c6c" d="M60 138l-2-10 7-4z"/><path fill="#e4e7de" d="M178.1 127.2l-56-37.4 33.1 29.3 38.7 9.2z"/><path fill="#667868" d="M99 153h18v2H99z"/><path fill="#5d7367" d="M141 105h3v18h-3z"/><path fill="#fff" d="M117.2 124.5l20-22.3 1.6 1.3-20 22.3z"/><path fill="#f4f3ef" d="M237.6 64.1l-6.6-22-54.1-6 52.4 54.3z"/><path fill="#5b746a" d="M96 95h22v2H96z"/><path fill="#e7e8dc" d="M25.2 169.6l-7.9 40.1 36.8-75.9-10.6 14.1z"/><path fill="#9ca89c" d="M173 164l-9-3 7 13z"/><path fill="#fffffc" d="M77 84h6v32h-6z"/><path fill="#faf9ef" d="M113.6 99.3l8.1 2.1 19.4 23.2-6.6-.3z"/><path fill="#eff0e6" d="M68 65l14 15-21-7z"/><path fill="#e6e8de" d="M127.7 142.2l-44.8-12.3 44.3 7.2 38.2 6.7z"/><path fill="#4f685d" d="M147 118v16l6-20z"/><circle r="1" fill="#f1f0e8" transform="matrix(-30.638 -8.66968 1.4185 -5.01288 29.8 95.3)"/><path fill="#71847b" d="M180.7 149.2l-1.4-9.9 4-.5 1.4 9.9z"/><path fill="#5c736a" d="M85 51l-7-1 5 10z"/><path fill="#fff" d="M163.3 109.3l2.6-4.3 12.8 7.7-2.6 4.3z"/><ellipse cx="74" cy="119" fill="#a9b4a6" rx="2" ry="34"/><path fill="#fcfaf7" d="M80 1l87-17 32 26z"/><path fill="#fffff8" d="M79 152.8l50-2.6v1l-50 2.6z"/><circle r="1" fill="#2d4a40" transform="matrix(-2.73806 .78308 -.44682 -1.56232 17.7 67.2)"/></g></g></svg>