<svg xmlns="http://www.w3.org/2000/svg" viewBox="0 0 1400 933"><defs/><filter id="a"><feGaussianBlur stdDeviation="12"/></filter><rect width="100%" height="100%" fill="#3c2c52"/><g filter="url(#a)"><g fill-opacity=".5" transform="translate(2.7 2.7) scale(5.46875)"><circle cx="135" cy="75" r="169" fill="#fff"/><circle cx="119" cy="93" r="169" fill="#fff"/><circle cx="242" cy="84" r="134" fill="#f4fce8"/><ellipse cx="202" cy="96" fill="#b4bcb2" rx="44" ry="35"/><ellipse cx="77" cy="169" fill="#fff" rx="251" ry="15"/><ellipse cx="138" fill="#fff" rx="218" ry="13"/><ellipse cx="60" cy="88" fill="#99929b" rx="31" ry="26"/><ellipse cx="127" cy="100" fill="#fff" rx="7" ry="169"/><ellipse cy="84" fill="#fff" rx="5" ry="169"/><path fill="#beb9b8" d="M80 12h39v147H80z"/><ellipse cx="53" cy="2" fill="#fff" rx="255" ry="9"/><circle r="1" fill="#e9e8e5" transform="matrix(-10.69383 -34.97793 8.89023 -2.71802 50 59.6)"/><path fill="#bdc2b2" d="M210 125h36v30h-36z"/><ellipse cx="111" cy="169" fill="#fff" rx="255" ry="10"/><path fill="#918a8f" d="M35 96h18v33H35z"/><path fill="#f8f9f5" d="M88 42h15v39H88z"/><path fill="#a3aca2" d="M200 65h21v42h-21z"/><path fill="#706285" d="M55 66h28v7H55z"/><circle r="1" fill="#d4d8cc" transform="matrix(-20.09968 5.7635 -11.60609 -40.47523 229 50.4)"/><path fill="#ecece4" d="M34.1 119.4L18.3 93.9-8.1 109l39.4-74.5z"/><ellipse cx="255" cy="68" fill="#fff" rx="5" ry="169"/><path fill="#a39e9a" d="M103 159l-29-40 43 32z"/><path fill="#91889e" d="M56 17h34v8H56z"/><path fill="#f7f4e5" d="M84.4 155.9L72.6 168l-33-32 11.8-12z"/><ellipse cx="183" cy="100" fill="#9ea8a2" rx="20" ry="7"/><path fill="#fffffe" d="M-16 165.1l214 19.8 14.9-90-33.3 61.4z"/><ellipse cx="128" cy="55" fill="#fff" rx="8" ry="130"/><ellipse cy="83" fill="#fff" rx="4" ry="161"/><path fill="#7e738c" d="M36 91l7-17-9-25z"/><ellipse cx="166" cy="93" fill="#9eaaa3" rx="3" ry="37"/><path fill="#dbd7dc" d="M31 78l41 16-3-24z"/><ellipse cx="227" cy="87" fill="#f0f0e7" rx="7" ry="48"/><path fill="#635868" d="M79 97l-23 7 7 5z"/><path fill="#fdfbf9" d="M169.6 92.1l-19.7-7.9 8.6 43.5-24 14z"/><circle r="1" fill="#f4f4f1" transform="matrix(-5.41573 35.54794 -5.70329 -.8689 180.1 54.2)"/><path fill="#978fa0" d="M72.6 90.8l-4.9 8.9 29-11.8-27-30.4z"/><circle r="1" fill="#76847c" transform="matrix(2.60193 -2.19103 2.0578 2.44372 173.3 125.9)"/><path fill="#dddad2" d="M17.1 130.2l78.2 3.7-77.4 20.6 44.3-55.7z"/><ellipse cx="133" cy="4" fill="#fff" rx="247" ry="7"/><path fill="#e3e1e0" d="M38.1 39.1l8.1 54.5-35.3 16.8 47.9-36.1z"/><path fill="#829089" d="M192 64l21 12-26-6z"/><path fill="#fffffc" d="M196.6 111.9L184 138.3l-3.1-15.1 25.3-10.8z"/><path fill="#b8c0b6" d="M221.5 16.7L172.6 19l65.8 6.3-6.4 14.6z"/><path fill="#726969" d="M38.6 154.2l4-11.4 2.8 1-4 11.4z"/><path fill="#aea7b6" d="M107 50h10v45h-10z"/><ellipse cx="61" cy="41" fill="#64567b" rx="3" ry="5"/><path fill="#776f7b" d="M48.8 126.2l-3.8 3.2-11.8-13.6 3.8-3.2z"/><path fill="#ada8a9" d="M119 128l-39 28 7-27z"/><path fill="#eae9e0" d="M47.9 120.8l-23.6-1.2-3.6-7.6-11.5 27.4z"/><ellipse cx="17" cy="37" fill="#bfbabc" rx="11" ry="26"/><path fill="#f0eee8" d="M86 116L66 98l16 26z"/><path fill="#4e405d" d="M32.4 83.7l4.2-2.8 5 7.4-4.2 2.8z"/><path fill="#857c81" d="M66 133v-10l-7 6z"/><path fill="#b8beb9" d="M160 114.2l-26.9-2.2 6.2-10.7 44.2 25.6z"/><path fill="#8a8097" d="M83.5 73.8l-8.9 18.6L62 58.3 54.7 72z"/><path fill="#e6e5e1" d="M81.7 39.9l-41.3-7.1 35.4-14.7-32.3 57.5z"/><path d="M52.7 121.2l-.9 1.8-4.5-2.2.9-1.8z"/><path fill="#808b7f" d="M171 146l3-4-1 13z"/><path fill="#e7e6e6" d="M107 73.1l24.5-26.7-50.7 42.2L85 65.2z"/><path fill="#f1f1ef" d="M185 19.2l-50.3 45.7 1 40.9 26.7-43.1z"/><ellipse cx="46" cy="102" fill="#746a7c" rx="8" ry="6"/><path fill="#909b90" d="M222.2 80.8l-8.3 7.5 11.8.8-.4-1.1z"/><path fill="#a39d9e" d="M9 106h19v7H9z"/><path fill="#8e859a" d="M77 32l-4-9 16-10z"/><path fill="#f6f4f1" d="M40 115V98l8 24z"/><path fill="#867d93" d="M49 77h33v3H49z"/><path fill="#fffffe" d="M261.8 183l-4.7-5.3-14.8-36.1L271 98.9z"/><path fill="#e7e5de" d="M58 112.9l14.7 14.7-12.4 3.6 41.2 18.9z"/><path fill="#d9d8d7" d="M4 44h31v39H4z"/><path fill="#ccd0c4" d="M235 15h12v145h-12z"/><path fill="#e6e6e2" d="M95 74h4v68h-4z"/><path fill="#edeee4" d="M215.1 106.5l5.5 23.2 11.6-3.9-48.6-10.1z"/><path fill="#e6dfd0" d="M10 152h88v7H10z"/><path fill="#fffffc" d="M109.8 31.3l16.4 5.7 18.1-53-20 21.3z"/><path fill="#eaebe7" d="M186.9 94.4l-17.1 33 2.7-15.5 20.6-12.2z"/><path fill="#8e8890" d="M84 113l13-5 8 4z"/><path fill="#79857a" d="M197.1 130.7l-6.1-5.1 1.9-2.3 6.1 5.1z"/><path fill="#9a91a1" d="M8.1 47.8l3.1-5.9-.7 15.7 8.4-9.4z"/><path fill="#a2aba1" d="M211.3 44.3l-6.5 13.4 3.1 56.6-6.3-61.6z"/><path fill="#d2cfd2" d="M82.5 147.4L56.4 90.1l20.5-33.8-14.8 43.5z"/><path fill="#e6e4e2" d="M58.8 32.4l-32 88.2-6.6-23.8 28.4-10.1z"/><path fill="#daddd5" d="M213.9 84.3l-30.1-4.6 18.5 31.1.1-29.4z"/><path fill="#f4f5ed" d="M211.9 85.5L232 75.1l-12.5-27.5 11-5.7z"/><ellipse cx="32" cy="165" fill="#fff" rx="255" ry="6"/><path fill="#79887e" d="M216 66l-15 14 4-12z"/><path fill="#aba5b8" d="M104.5 24.9L65.6 52.5l32.2-14.4 20.7 5z"/><path fill="#f1f1f0" d="M79 60l7-11-5-19z"/><ellipse cx="255" cy="106" fill="#fff" rx="4" ry="169"/><path fill="#8d8785" d="M110.2 144.9l9.5 8.1-10.5 1.9-3.2-2.6z"/><path fill="#afb6ac" d="M192.5 107.3l16 20.1 24.5 9.8-53.3-34.5z"/><path fill="#aeb7ac" d="M243 106.4l.7 5-26.6 4.2-.8-5z"/><path fill="#fffffe" d="M6.1 76.2L1 147.3-16-16l27.1 82.1z"/><path fill="#a0aaa4" d="M184 100l1-28-14 35z"/><path fill="#d8dbd4" d="M133 11h76v13h-76z"/><path fill="#dedcdd" d="M68 101l7.2-19.6-70.7.9 59.4-2.2z"/><path fill="#fbfafa" d="M168.5 79.7l-47.9 26.8 12.5 44.5-21.9-54.3z"/><path fill="#9faba4" d="M167 77.1l-3.8-23 10.6 24.2-7-.5z"/><path fill="#f3f2e7" d="M170 130h46v12h-46z"/><path fill="#a5ada0" d="M231.7 152.4L242 149l2.2 6.6L234 159z"/><circle r="1" fill="#76847b" transform="matrix(-.92897 -.51015 3.69827 -6.7344 179 123)"/></g></g></svg>