<svg xmlns="http://www.w3.org/2000/svg" viewBox="0 0 933 1400"><defs/><filter id="a"><feGaussianBlur stdDeviation="12"/></filter><rect width="100%" height="100%" fill="#34554c"/><g filter="url(#a)"><g fill-opacity=".5" transform="translate(2.7 2.7) scale(5.46875)"><circle cx="90" cy="127" r="158" fill="#fff"/><circle cx="96" cy="101" r="195" fill="#fff"/><circle r="1" fill="#fff" transform="matrix(-44.99416 108.6287 -156.13631 -64.67188 110 92.8)"/><path fill="#3a5943" d="M4.7 218.7L33.2 233l11.7-32-17.2-5.6z"/><path fill="#84937d" d="M77 239l71 2-72-49z"/><circle cx="12" cy="38" r="160" fill="#fafef5"/><circle r="1" fill="#fff" transform="matrix(2.63274 13.38435 -25.09463 4.93619 63.7 216.4)"/><circle r="1" fill="#fffff1" transform="matrix(29.60447 10.25147 -14.8086 42.76466 169 249.8)"/><path fill="#97ae9f" d="M63 44l1 31 31-35z"/><path fill="#2b4c36" d="M104 184.5l1-2.8 23 9.8-1 2.8z"/><circle r="1" fill="#b5c5bb" transform="matrix(-33.43677 19.74251 -2.97574 -5.03985 62.6 125.6)"/><circle r="1" fill="#fff" transform="matrix(12.51532 21.9487 -122.16224 69.65788 148 48.7)"/><path fill="#2a462f" d="M54.8 245.2l-2.8-2.8 13.2-13.6 2.8 2.8z"/><path fill="#ffffed" d="M110.5 248l-72 16.7-3-12.7 72-16.7z"/><path fill="#3b5a4c" d="M34 216l19-18-24-1z"/><path fill="#88a18e" d="M169 126l-7 10-29-12z"/><path fill="ivory" d="M121 162h43v62h-43z"/><path fill="#b2c3b6" d="M125.9 38.7l2.9-26.6L99 35.6l-20.6-1.3z"/><path fill="#c7d3c7" d="M139 156l-17-38-42 59z"/><circle cx="120" cy="233" r="10" fill="#5d7262"/><path fill="#9db2a5" d="M91 106l15-1-15 28z"/><path fill="#596c56" d="M109.6 251.1l9.3 19.9H93.6l1.2-22.1z"/><circle cx="80" cy="197" r="5" fill="#274d40"/><path fill="#fff" d="M2 202h8v21H2z"/><path fill="#f9f9e8" d="M50.1 242.6l-5.7-49.5 45.2 41.8 1.1-43.9z"/><path fill="#4b6659" d="M94 201.2l-10 21.5-3.9-6.2 15.2-3.6z"/><path fill="#35533e" d="M47.8 242.5l-.3 1-27.3-10 .3-1z"/><path fill="#5c7365" d="M81.1 234.5l18.8-10.2 7.8 10.5-42.3 2.9z"/><path fill="#fffff4" d="M119.8 220.6l-76.3 7.3 78.4-3 16.5-1.7z"/><path fill="#30503f" d="M146 192l7 4-10 2z"/><path fill="#93a48d" d="M162 205l8-43 15 40z"/><path fill="#6a7a64" d="M139.9 240.7l4.6-25.6 2.3 7.5-25.6 48.4z"/><circle r="1" fill="#7b9381" transform="matrix(.13994 -1.76724 21.61518 1.71161 138.8 159.6)"/><path fill="#3f6755" d="M1 115h16v3H1z"/><path fill="#3e6656" d="M73.1 103l24.3 6-.5 2-24.3-6z"/><path fill="#435f51" d="M10.9 209.2l7.2-6.7 19.7 17.2-11.4-10.5z"/><path fill="#fff" d="M130 170l-21-16-44 42z"/><path fill="#fffff4" d="M138 226l-41 45 28-4z"/><path fill="#a9bdb1" d="M71 63l-28 9-17 21z"/><path fill="#6d8e78" d="M185 87l-24 14 24 18z"/><path fill="#748f7f" d="M21.9 180.5l9.6 3.5 8.7 12.9-18.4-13.7z"/><path fill="#fffff2" d="M-8.6 244l37.7 12.6-45.1-94.9 33.6 78.7z"/><path fill="#fff" d="M80 27L-6 48l-1 66z"/><path fill="#5d7568" d="M115.5 213.9l-8.1 11 2.2-1.7-24.8-7.4z"/><path fill="#708d7f" d="M39 136l-19 5 18 2z"/><path fill="#627f6d" d="M57 201l-3.3.7-12.4 1.5L66 188.5z"/><path fill="#fffff7" d="M19.7 213l2.1-3.3 8.5 5.3-2.1 3.3z"/><path fill="#7f917e" d="M22.9 214.9l24.8 28.5 8.3 2.3-19.4-21.4z"/><path fill="#fffff9" d="M29.8 188.8l-7 16.5-28.6-12 7-16.6z"/><path fill="#fff" d="M-9 145l-7-34 74 22z"/><path fill="ivory" d="M102.4 216.3l34.4-30.5-21.7 9L73 179.5z"/><path fill="#27442f" d="M153 244l-1-4 7-1z"/><path fill="#3f6652" d="M5 168h13v3H5z"/><path fill="#596a59" d="M127.5 240l9.6-2.9 1.4 4.8-9.6 3z"/><path fill="#fffff6" d="M93 259.3l-43.7-13.7-19.8-8.2L48.2 271z"/><path fill="#8da395" d="M126 156.5l-37.7 16-.4-1 37.8-16z"/><path fill="#faf7ea" d="M142.1 226.1l26.6-47.2-46.3 58-11.3-2.4z"/><path fill="#ccd8ce" d="M71 11h48v11H71z"/><circle cx="106" cy="227" r="4" fill="#fff"/><path fill="#98ada0" d="M62.9 130.6l-9.7-2.7-4.4 2.4 35.1-18.9z"/><circle r="1" fill="#8ea38d" transform="rotate(104 20.4 139.2) scale(1 21.34531)"/><circle r="1" fill="#92a89a" transform="rotate(-169.3 25.8 72.7) scale(9.86974 1.90608)"/><path fill="#ffffef" d="M75 237l-1-50-29 25z"/><path fill="#fffff8" d="M185 204l-68-21 4-28z"/><path fill="#5d786a" d="M74 197h3v13h-3z"/><path fill="#fff" d="M67.6 111.1l46.6-4.4L78.5 74l17.7 46.2z"/><ellipse cx="104" cy="184" fill="#42614f" rx="9" ry="2"/><circle cx="133" cy="192" r="2" fill="#103624"/><ellipse cx="109" cy="33" fill="#a1b6a8" rx="12" ry="5"/><path fill="#5f8375" d="M56 66h13v4H56z"/><path fill="#fffffd" d="M79.1 67.1L-16 53.8l76.5 20.8-8.6-27.1z"/><path fill="#efecdc" d="M67.8 238.7l53.9 21.9L52.3 242l40.8-16.2z"/><path fill="#9eae9a" d="M23 224l-12 8-27-10z"/><path fill="#39564b" d="M20 220l5-8H11z"/><path fill="#c6d4ca" d="M56 1L27 9l45 2z"/><circle cx="7" cy="200" r="4" fill="#5b7b65"/><path fill="#fff" d="M185-12.6v76.8l-78-39.9 31.5-5z"/><path fill="#9db1a2" d="M64.3 195.1l-.7-.7 38-35.5.8.7z"/><path fill="#fffffc" d="M68.8 139.7l-35.1 35.6 72.6-32.6L62.2 118z"/><path fill="#224333" d="M165 189h3l3-9z"/><path fill="#56745e" d="M181 160l-1-51-13 38z"/><ellipse cx="84" cy="218" fill="#1b3d31" rx="2" ry="4"/><path fill="#284931" d="M28 243h5l-10 6z"/><path fill="#5f7c6e" d="M124 156h19v3h-19z"/><path fill="#869988" d="M151 187l9-8-11 5z"/><path fill="#37574b" d="M115 188h13v3h-13z"/><path fill="#fffcec" d="M165 243.1l-13.6-50.4 33.6 40.4-56.8-.2z"/><path fill="#fff" d="M21 81l150-13-50 33z"/><ellipse cx="16" cy="193" fill="#648371" rx="4" ry="2"/><path fill="#fefff5" d="M154.4 142.5l-10.9-16.7-17.1 27.2 5.4 5z"/><ellipse cy="41" fill="#49766a" rx="4" ry="3"/><path fill="#728973" d="M9 237h5v8H9z"/><path fill="#2b432c" d="M139.3 232.7l2.6-6.5 2.8 1-2.6 6.6z"/><path fill="#173729" d="M43.6 242.5l-1.6-1.3 6.4-7.7 1.6 1.3z"/><path fill="#92a79c" d="M107 150l-12 3 19-15z"/><path fill="#abb7a6" d="M102 203h17v5h-17z"/><path fill="#fdfff5" d="M97.2 162.6l-6.3 47.8-10.4-8 31.1-32.6z"/><path fill="#fffffb" d="M176.7 119.4L161 130l-11.7-17.4L165 102z"/><ellipse cx="96" cy="233" fill="#3b5749" rx="2" ry="10"/><path fill="#f7faf0" d="M78 196l-33-89 3 78z"/></g></g></svg>