<svg xmlns="http://www.w3.org/2000/svg" viewBox="0 0 793 1400"><defs/><filter id="a"><feGaussianBlur stdDeviation="12"/></filter><rect width="100%" height="100%" fill="#4c2c51"/><g filter="url(#a)"><g fill-opacity=".5" transform="translate(2.7 2.7) scale(5.46875)"><circle cx="54" cy="81" r="197" fill="#fff"/><circle cx="53" cy="116" r="170" fill="#fff"/><ellipse cx="66" cy="161" fill="#8d8492" rx="56" ry="16"/><circle r="1" fill="#f5f9f6" transform="matrix(75.92796 -1.49967 .79067 40.03155 24.3 42)"/><circle r="1" fill="#8d819c" transform="matrix(26.2105 26.672 -13.22154 12.99277 99 114.8)"/><circle cx="73" cy="238" r="39" fill="#fffff8"/><path fill="#6f5e82" d="M16 74h9v69h-9z"/><ellipse cx="136" cy="85" fill="#fff" rx="18" ry="46"/><path fill="#645e65" d="M59 190l-47 30 28-5z"/><path fill="#fefffa" d="M0 134h16v83H0z"/><path fill="#685c6f" d="M14 196l14 4-9-32z"/><path fill="#66586c" d="M76.8 207.3l7.1 10.9-20.6.8 12.1-14.2z"/><circle r="1" fill="#fefffd" transform="matrix(10.412 2.96306 -11.93489 41.93846 47.7 86)"/><path fill="#6b5087" d="M74 35.7l1 16-11 .6-1-16z"/><path fill="#70578a" d="M83 98L70 76l-15 26z"/><path fill="#42265d" d="M101.7 90.9l-2.1 18.9-13.2-.1 6-11.3z"/><circle r="1" fill="#edeeec" transform="matrix(-3.88898 -.81406 15.8657 -75.79446 106.3 159.6)"/><path fill="#e7e4e8" d="M88 93l-41 85 43-33z"/><path fill="#250640" d="M13 133.8l-2.5-8.6 10.5-3 2.5 8.6z"/><path fill="#1a0025" d="M106 154l-17 11-3-6z"/><path fill="#67586e" d="M19 157h36v10H19z"/><circle r="1" fill="#8c7e94" transform="matrix(17.5058 24.52386 -2.66583 1.90294 108.2 153.7)"/><path fill="#fafcf3" d="M42 231l-26 28-9-61z"/><path fill="#5c4075" d="M20 101h12v12H20z"/><ellipse cx="65" cy="169" rx="3" ry="5"/><ellipse cy="109" fill="#fafffa" rx="19" ry="21"/><path fill="#080011" d="M102 209h8v5h-8z"/><path fill="#86789a" d="M146.9-13.1L23.3-16 111 5.8 97.5 23.7z"/><path fill="#f6fbf2" d="M145 136l-22 78 37 15z"/><path fill="#f4f5f4" d="M22 72h65v17H22z"/><path fill="#796f7f" d="M118.6 189.2l41.4-21.6v-9.2l-27.8 31.8z"/><path fill="#fffffd" d="M81.1 150.8l-1.7 10.9 22.9 33.7-3.7-10.9z"/><path d="M51.6 184l1.4-2.7 5.4 2.7-1.4 2.7z"/><path fill="#6b6072" d="M113 139l13-20 7 18z"/><path fill="#fcfffd" d="M105 20h10v59h-10z"/><path fill="#f4f7f1" d="M124.6 177.7l-16.8 28.1 31.8-3.5L49.8 192z"/><circle r="1" fill="#3b2345" transform="rotate(-11.5 863.3 -306) scale(3.49883 5.67011)"/><path fill="#7d6395" d="M79.1 101.4L63.3 76.7l37.2 8.8-29.6-3.7z"/><path fill="#9a9998" d="M139.6 271l4.6-3.5-32.6-61.2 21 13.9z"/><path fill="#634389" d="M65.6 12.7L52.3-11.2 78.5 3.7 67.7-16z"/><path fill="#5d4e65" d="M31 170h16v7H31z"/><path fill="#f5faf3" d="M46.8 122.7l-52.2 36.4 47.5-10.7-24.2-33.7z"/><path fill="#9384a3" d="M19.9 64.3l12 1L-16 93.8l25.1-9.2z"/><ellipse cx="72" cy="181" fill="#4a345d" rx="3" ry="6"/><ellipse cx="96" cy="134" fill="#10002c" rx="5" ry="3"/><path fill="#755f87" d="M96.2 135.6L110 90.7l-9.1 1.6 7.1 24.2z"/><path fill="#aba9a6" d="M133.4 255.5l-11.5 7.9-26.3-19.7 3.2-6.4z"/><path fill="#170034" d="M96 14h4v7h-4z"/><path fill="#80718d" d="M48 128l2 14-15-6z"/><path fill="#3d2054" d="M94.7 117.9L74.9 115l.4-3 19.8 2.8z"/><path fill="#9a8bad" d="M78.5 63l16.8 2.1-4.6-13.3 68.8-23z"/><path fill="#000008" d="M43 200h8v5h-8z"/><path fill="#090014" d="M18 195h12v4H18z"/><path fill="#f2f4ee" d="M17.1 192l36.7-19.4-17.5 24 16.5 13.7z"/><path fill="#fff" d="M54 129l19-14-13 35z"/><path fill="#000006" d="M132 185h5v4h-5z"/><path fill="#b7b2b8" d="M51 202.8l-10.3-24.2L59.1 195l50.4-3z"/><path fill="#1e092c" d="M124.5 156.7l-1.8.9-3.2-6.3 1.8-.9z"/><path fill="#05000c" d="M32 207l10 3-7 3z"/><path fill="#4d3b5a" d="M23 132l-4-14-5 26z"/><path fill="#e7e5e6" d="M112.7 148.4l-36.3 16.2-4 5.1-5.9-12.4z"/><ellipse cx="31" cy="255" fill="#625c5f" rx="3" ry="12"/><path fill="#220330" d="M101 143h6v6h-6z"/><path fill="#fff" d="M32 160h10v4H32z"/><path fill="#f0f0ed" d="M36.8 211l-14.6-63.3 3-.7 14.6 63.3z"/><path fill="#9c8ea4" d="M75.7 137.7l3.8 23.6-8.9-36.3 32 34.6z"/><path fill="#fbfcf9" d="M82.6 145.6l2.7 19.3-10.7-42.5 22.3-1z"/><ellipse cx="121" cy="14" fill="#371f51" rx="18" ry="1"/><path fill="#9b8eae" d="M160 46.3l-38.5-28.5 5.3 24.9 11.6-23z"/><path fill="#65576c" d="M84.5 182.4l2.2 4 9.5-5.3 7.9-.7z"/><path fill="#fff" d="M97 111l-21 1 2-6z"/><path fill="#3f2b47" d="M36.1 156.3l17.8 6.3-19.8-3.3-6.9-4.2z"/><path fill="#300b54" d="M85 79.5h6v5h-6z"/><path fill="#787179" d="M120.4 212l-1.8 50h-1l1.8-50z"/><path fill="#f2f3f1" d="M102.3 74.7L8.4 62l66.3-18.5-.3 44.4z"/><path fill="#30223b" d="M20.7 213.5l-2.3-10.8 1-.2 2.2 10.8z"/><path fill="#fffffe" d="M125.6 131h1l3.8 72h-1z"/><path fill="#fdfdf8" d="M49 227h50v29H49z"/><path fill="#f4f5f1" d="M85.1 187.3L-16 220.2l38.3 3.7-37.2-14.7z"/><path fill="#edecea" d="M109.4 125.4l-11.6 15.9 9.3 3.4 21.5-50.1z"/><path fill="#fffffd" d="M72 16l11 45 19-17z"/><path fill="#f6f7f5" d="M51.3 66.2l21.8-53.8-34.3 41.4-25.3 35z"/><path fill="#fffffb" d="M64 91l12 6-13-1z"/><path fill="#756487" d="M46.6 115.7l3-2.7 9.8 11.3-3 2.7z"/><path fill="#685470" d="M75.9 152.3l2-7.2-4 48 5.6-28.3z"/><circle cx="131" cy="227" r="2"/><path d="M99 225h7v1h-7z"/><path fill="#f2f3f1" d="M30 89l-46 3v20z"/><path fill="#f7faf7" d="M73.6 88.6l2.4-2.9 39.7-1.1-20.2 7.1z"/><path fill="#462754" d="M99.8 147.3L89 152.5l-.8-1.8 10.8-5.2z"/><path fill="#726378" d="M46.5 182.7l-23 1.6v-1l23-1.6z"/><path fill="#9380a8" d="M17.4 8.6l7-24.6L-.4-5.2l-1.8-6.4z"/><path d="M122.7 211.1l.2 1-9.6 2.8-.2-1z"/><path fill="#3e2d46" d="M100 127l6-13-10 12z"/><path fill="#604b65" d="M49 187h3v19h-3z"/><path fill="#dcd9db" d="M15 224l-19-44 22-31z"/><path fill="#fff" d="M42 154h23v3H42z"/><path fill="#f7f8f4" d="M54.7 165.8l34.2 51.6-34.4-39.7 33.7-55.6z"/><path fill="#ebece9" d="M129.8 163.5l-28.7-4.8 22.2 24-13.4-15.5z"/><path fill="#7e7082" d="M72.2 214l4.3-20.2-10.2 30.7-4.5-.7z"/></g></g></svg>