<svg xmlns="http://www.w3.org/2000/svg" viewBox="0 0 933 1400"><defs/><filter id="a"><feGaussianBlur stdDeviation="12"/></filter><rect width="100%" height="100%" fill="#6c3854"/><g filter="url(#a)"><g fill-opacity=".5" transform="translate(2.7 2.7) scale(5.46875)"><circle cx="94" cy="127" r="183" fill="#f4e59f"/><ellipse cx="77" cy="250" fill="#fff" rx="169" ry="7"/><ellipse cx="94" cy="4" fill="#fff" rx="169" ry="7"/><path fill="#8d3c24" d="M174 10l-1 100L2 12z"/><circle r="1" fill="#8d4437" transform="rotate(56.7 -112.8 243.8) scale(27.2711 59.77713)"/><circle r="1" fill="#b7c4af" transform="rotate(165.7 29.7 72.2) scale(55.59084 26.37545)"/><ellipse cx="4" cy="58" fill="#8b4019" rx="16" ry="47"/><path fill="#b1bfaa" d="M36 39h63v38H36z"/><ellipse cx="77" cy="252" fill="#fff" rx="169" ry="9"/><ellipse cx="97" fill="#fff" rx="169" ry="11"/><circle r="1" fill="#922915" transform="matrix(15.55437 37.95978 -13.79553 5.65285 0 200.3)"/><circle r="1" fill="#bbc2b0" transform="matrix(-4.62596 20.49196 -41.1913 -9.29874 48.5 191.8)"/><path fill="#66120b" d="M60 12h80v16H60z"/><path fill="#974936" d="M62 219h96v25H62z"/><path fill="#914135" d="M156 66h14v102h-14z"/><path fill="#bb9065" d="M92.4 83.1L141.1 21l20.5 16-48.7 62z"/><path fill="#9e664d" d="M116.1 181.5l45.4 2.3-65.9-27L63 187.9z"/><ellipse cx="66" cy="253" fill="#fff" rx="169" ry="9"/><path fill="#6d3c31" d="M0 12h28v23H0z"/><ellipse cx="78" cy="4" fill="#fff" rx="169" ry="7"/><path fill="#9f5639" d="M86 72l73 6-10 28z"/><path fill="#cbc3ad" d="M89.1 68l-22.3-5 26.7-26.3 10.7 7.7z"/><path fill="#cfd8ca" d="M40 188h12v40H40z"/><path fill="#cad2bf" d="M49 152l-36-30 1-20z"/><path fill="#a29f8e" d="M67 222l104-38-88 3z"/><ellipse cx="123" cy="90" fill="#b7ac8c" rx="8" ry="38"/><ellipse cx="56" cy="233" fill="#bb7049" rx="69" ry="6"/><path fill="#a08f6c" d="M51.8 49l23.1 71.4-44.7 14.5L7.1 63.6z"/><path fill="#becab9" d="M24 164l-29-16 41 52z"/><path fill="#8a322d" d="M166.1 10l-1.8 37-14.1-19.1-4.9-6.5z"/><path fill="#b3b29e" d="M104 104h31v53h-31z"/><path fill="#fff" d="M185 243l-146 1 45 27z"/><circle r="1" fill="#91705e" transform="matrix(17.3421 40.53174 -5.4689 2.33995 107.8 181.2)"/><ellipse cx="2" cy="195" fill="#83342e" rx="5" ry="31"/><path fill="#a07c60" d="M73 61.9l23.7-29.2L87.2 11 47.8 56.1z"/><circle r="1" fill="#bf773c" transform="matrix(-14.21462 19.85387 -15.5434 -11.12848 0 91)"/><path fill="#b1c5ba" d="M76 190h28v15H76z"/><path fill="#a8a694" d="M77 83L42 27 15 60z"/><path fill="#873f36" d="M135 237h35v7h-35z"/><ellipse cx="138" cy="5" fill="#fff" rx="169" ry="6"/><path fill="#ab835a" d="M13 166.4l35.5-14.9L34 188.8 1 88.8z"/><path fill="#832c24" d="M91 32l47-2 4-19z"/><path fill="#b0795e" d="M17.8 183.7l7.6 60.8-22.5-58.6 1.5-14.1z"/><path fill="#9d7c5e" d="M6.3 40.2l19-17.7 14.4 15.3-19 17.7z"/><path fill="#5f776c" d="M116 128h7v18h-7z"/><path fill="#c0baa8" d="M16.6 131.7l60.3 30.7L96.3 173l-18.5-33z"/><path fill="#b68d7a" d="M157 214h13v27h-13z"/><path fill="#a77d68" d="M82 202l-30 11 62-2z"/><path fill="#b86a33" d="M27 215h10v28H27z"/><path fill="#94493f" d="M167.3 84.9l-35.4 22.4-3.8-32.1 48.3 4.8z"/><path fill="#843f37" d="M112.2 214.9l-3 8 53.1 19.5-16.6-25.1z"/><path fill="#c56b2b" d="M136 138h6v21h-6z"/><ellipse cx="16" cy="255" fill="#fff" rx="169" ry="12"/><circle r="1" fill="#c08f6c" transform="rotate(-89.4 165.4 62) scale(17.67441 6.48777)"/><path fill="#d5d5b5" d="M87 90h9v11h-9z"/><path fill="#c4a086" d="M141 17v34l12-24z"/><path fill="#a15a31" d="M117.6 42.1L92 75.7l8.6-3.8-.6 21.3z"/><path fill="#aea993" d="M128 198.5l1.4 16.5 4.5-17-4.9-83.4z"/><path fill="#9f7b52" d="M55 102L29 71 14 98z"/><circle r="1" fill="#baafa2" transform="rotate(36.8 -153.5 97.1) scale(9.77555 8.22908)"/><path fill="#b7b199" d="M101.2 62.7l-39.1 38.8 26.1-74.6 8 33z"/><path fill="#b58846" d="M82 75h11v16H82z"/><path fill="#b4967f" d="M120 232l-3 9h20z"/><path fill="#c5c2b1" d="M64 202l-44-6-12-31z"/><path fill="#c2cbbf" d="M105.6 114l7.9 19.5-11.1 4.5-7.9-19.5z"/><path fill="#892d23" d="M6.7 44.9L-16 39.7l30.5 15.9-30.5 5.3z"/><path fill="#b9b99b" d="M142 157h11v20h-11z"/><path fill="#c6c1b0" d="M75.2 139.4l-.3-16.4 3.6-34.8 5.4 77.4z"/><path fill="#5f2018" d="M75 27l-19 2 15-16z"/><path fill="#9c4136" d="M170.4 120.7l10.5 32.3-13.3 4.3-10.5-32.3z"/><path fill="#b66937" d="M27 11l33 3-37 22z"/><path fill="#bfc4b5" d="M42 214l1.2-42.6 17.3-14.5-2.6-15.6z"/><path fill="#8c6651" d="M115 176l12-1-1 28z"/><path fill="#be9b72" d="M121.4 141.2l.2-15 35 .6-.2 15z"/><path fill="#a47459" d="M141.9 116l9.4-29.6-37-3 64.5 21.6z"/><path fill="#ac7e56" d="M4.6 168.5l15.8-9.4-.2-35.9-6.3 4.8z"/><path fill="#c0947c" d="M165.9 192.8l-25-3.4 2.2-10.3 27.4 11.5z"/><path fill="#874236" d="M163 229h7v8h-7z"/><path fill="#cbbb99" d="M42 234h13v10H42z"/><path fill="#91462d" d="M114 53l-24-3 22 13z"/><path fill="#863b32" d="M147.2 14l5.3 17.2L185 10.3l-42 20.1z"/><ellipse cx="137" cy="37" fill="#8d2725" rx="2" ry="12"/><path fill="#a0927d" d="M64.4 37.7L41.6 85.4 55.1 6.3l-2.7 16.9z"/><path fill="#cac5b1" d="M40.6 221.9l11.7.1-28-13.4 27.1 2.3z"/><path fill="#d5c0a5" d="M121.9 162.5l6.4-3.9 3.3-7.6-5.4-16.1z"/><path fill="#d77e3b" d="M129.1 67.2l14.2-4.8 3.6 10.4-14.2 4.8z"/><path fill="#a8ab9d" d="M18.4 64.6l24.7-19L48.5 91 19.4 42.2z"/><path fill="#b39c75" d="M79.9 100.7l12 22.1 18.4-15.7 57.6-6.3z"/><path fill="#b1b29d" d="M49 105h31v7H49z"/><path fill="#71201d" d="M97 12h51v5H97z"/><path fill="#b06650" d="M71.2 179l33.8-12.3 3.8 10.3L75 189.3z"/><path fill="#c3bcaa" d="M84 73l18-30-31 12z"/><path fill="#6e807a" d="M87 164.3l13.9-15.3-6.2-6.5 5.6 17.3z"/><ellipse cx="11" cy="4" fill="#fff" rx="169" ry="7"/><path fill="#875146" d="M137 191h9v19h-9z"/><path fill="#b2703d" d="M108.9 56.6l19-27.8.6 30.9-13-4.9z"/><path fill="#faf7f6" d="M143.8 11.5l29.5.5 8.5-25.3L107.2 11z"/><path fill="#c1bdaa" d="M9.3 102.5l48.8 57.7-2.2-38-25.2 31.7z"/><path fill="#8b4138" d="M12 229l-13-71-15 81z"/><path fill="#aba997" d="M-16 138l17.4 27.1 41.5-38.6L24.5 153z"/></g></g></svg>