<svg xmlns="http://www.w3.org/2000/svg" viewBox="0 0 1400 933"><defs/><filter id="a"><feGaussianBlur stdDeviation="12"/></filter><rect width="100%" height="100%" fill="#2d2017"/><g filter="url(#a)"><g fill-opacity=".5" transform="translate(2.7 2.7) scale(5.46875)"><circle r="1" fill="#fff" transform="matrix(227.76438 101.43442 -54.97781 123.4491 149.4 150.3)"/><circle r="1" fill="#fff" transform="rotate(98.1 41 147.2) scale(47.06321 160.90941)"/><circle r="1" fill="#fff" transform="rotate(179.4 56.5 19) scale(15.3649 75.37908)"/><circle r="1" fill="#945317" transform="matrix(46.76934 -45.00714 31.99504 33.24776 183.7 26.7)"/><ellipse cx="224" cy="117" fill="#fff" rx="34" ry="76"/><ellipse cx="64" cy="143" fill="#c38430" rx="65" ry="42"/><ellipse cx="57" cy="58" fill="#694101" rx="43" ry="29"/><path fill="#fff" d="M19.9 118.8L-7 121.6-19.9-.8 7-3.6z"/><circle cx="182" cy="152" r="73" fill="#fff"/><path fill="#fff" d="M27.6 10.4l.9-16 99.9 5.2-.9 16z"/><path fill="#724a22" d="M128 0h77v81h-77z"/><path fill="#fff" d="M66 70h62v30H66z"/><ellipse cx="113" cy="33" fill="#fff" rx="14" ry="68"/><path d="M64.2 67L67 40l28.8 3L93 70z"/><path fill="#fff4a6" d="M69 66L-4 89l33-38z"/><path fill="#8f5516" d="M239 0h17v81h-17z"/><ellipse cx="55" cy="157" fill="#310c1d" rx="44" ry="6"/><ellipse cx="33" cy="109" fill="#fbd58c" rx="96" ry="22"/><path fill="#45172c" d="M19 132h81v8H19z"/><path fill="#fff" d="M211 41h28v42h-28z"/><path fill="#ffe996" d="M123.3 37.9l15 18 16.9 7.8-10-29.2z"/><path d="M24 79h44v8H24z"/><ellipse cy="41" fill="#fff" rx="8" ry="65"/><ellipse cx="13" cy="50" fill="#743e00" rx="6" ry="21"/><path fill="#fff" d="M-16 76l39-6-4 25z"/><ellipse cx="85" cy="3" fill="#fff" rx="30" ry="10"/><path fill="#fff" d="M69 81h187v20H69z"/><circle r="1" fill="#865a40" transform="matrix(7.7968 -22.64355 36.2996 12.49896 210.6 15.3)"/><path fill="#d28132" d="M0 106h126v9H0z"/><path fill="#9e753f" d="M9 13h91v30H9z"/><path fill="#6c4104" d="M206 81l-33-3 34-26z"/><ellipse cx="67" cy="94" fill="#f1efee" rx="239" ry="7"/><path fill="#efcda0" d="M58 31L0-16h57z"/><path fill="#dabd7d" d="M106 92h22v78h-22z"/><ellipse cx="114" cy="37" fill="#fff" rx="14" ry="68"/><path fill="#fff" d="M130 156h126v14H130z"/><path fill="#452f1b" d="M9.2 6L83 70.6l-.8-54.8 14.1 37.7z"/><path fill="#e6d4a2" d="M22 139h51v13H22z"/><path fill="#2f1200" d="M146.8 80l-18 1.9-1.6-16 18-1.8z"/><path fill="#00100a" d="M128 2h61v6h-61z"/><path fill="#1b0a21" d="M20 144l-36-2 36-9z"/><path fill="#50050e" d="M127 32h56l-21-16z"/><ellipse cx="136" cy="124" fill="#fff" rx="8" ry="44"/><ellipse cx="249" cy="131" fill="#fff" rx="18" ry="51"/><path fill="#f8e5e6" d="M208 41h31v98h-31z"/><path fill="#36577c" d="M188.8 36.1l-45.9 4.8 23.5 7L228.8 36z"/><path fill="#ee9722" d="M27 66h39v12H27z"/><path fill="#e7a515" d="M238.7-4.6l-.4 11-49-1.8.4-11z"/><path fill="#7b573a" d="M94.3 121.3l15 19.7-61.5-7.2 81.3-6.4z"/><path fill="#795018" d="M25.4 171l-17.3 1.6L33.3 125l-14.5-9.9z"/><path fill="#e7d472" d="M14.6 192.1l-16-.2.8-46 16 .2z"/><ellipse cy="122" fill="#310300" rx="16" ry="3"/><ellipse cx="48" cy="54" fill="#412717" rx="8" ry="9"/><path fill="#e6d4b3" d="M16 27h19v10H16z"/><path fill="#e7b374" d="M160.1 45.6l3.4 10.5-25.6 8.3-3.4-10.5z"/><ellipse cx="1" cy="23" fill="#fff" rx="8" ry="79"/><path fill="#eba83a" d="M259.6 74.5l-20 1-1.2-24 20-1z"/><path fill="#260700" d="M271.5 75.2v5l-33 .6v-5z"/><ellipse cx="87" cy="167" fill="#d1a863" rx="41" ry="7"/><path fill="#f6f9f2" d="M59.3 27l-.6 30h-2l.6-30z"/><path fill="#f0e1b6" d="M6.8 109.5l-9.5 1.9 58.3 14.7-28.9-17.3z"/><circle r="1" fill="#946f36" transform="rotate(72.3 44 150) scale(15.83074 36.8529)"/><path fill="#fefffe" d="M232.7 176.2l-84.6 8.8-46.4-57.2 41.9 19.2z"/><path fill="#fff" d="M56.8 12.5l.4-26 60 1-.4 26z"/><path fill="#905916" d="M22 69L8 68l21-44z"/><ellipse cx="38" cy="110" fill="#b81703" rx="11" ry="4"/><circle r="1" fill="#0d190f" transform="rotate(4.3 3.7 3006.1) scale(83.75659 1.25114)"/><path fill="#e9eef3" d="M66 71h37v11H66z"/><path fill="#c54b0a" d="M83 104h15v12H83z"/><path fill="#111311" d="M73.4 68.7l21.3-6.4-2.8-17-29-7.5z"/><path fill="#3d3442" d="M189.3 28.3L271 50.4l-9.8-6.4-9.8-11.9z"/><path fill="#968b40" d="M152 7h50v10h-50z"/><path fill="#fff" d="M23 70l-39 5 37 15z"/><path fill="#f09f7e" d="M136 34h46v4h-46z"/><path fill="#fff" d="M99 81h111v11H99z"/><path fill="#b08b61" d="M41 0h16v18H41z"/><path fill="#d7d7d9" d="M147 93h46v64h-46z"/><ellipse cx="191" cy="24" fill="#a73e3f" rx="63" ry="5"/><ellipse cx="34" cy="90" fill="#fff" rx="147" ry="3"/><path fill="#83510d" d="M59 16h26v10H59z"/><path fill="#4b3a1e" d="M44.1 45.6l.6-9-25 3.8L25.8 55z"/><ellipse cx="114" cy="10" fill="#fff" rx="14" ry="83"/><path fill="#ffffbe" d="M26 63h39v3H26z"/><path fill="#eddedd" d="M208 42h23v111h-23z"/><ellipse cx="58" cy="105" fill="#e9c4b6" rx="26" ry="5"/><path fill="#b2945c" d="M99.2 17.1L88 12.2l1.9 31.7 10.6 30.2z"/><path fill="#1f0c00" d="M25 78h31v9H25z"/><ellipse cx="85" cy="153" fill="#471532" rx="19" ry="2"/><path fill="#f8eab2" d="M-.5 125.7l15.8-2.3 1.2 9-15.8 2.2z"/><path fill="#baa065" d="M-7.1 110.9l43-3.3L5.4 92.5 49 93.7z"/><path fill="#ceddf6" d="M66 35l13 5-14-11z"/><path fill="#c5953d" d="M107 124l20 15v-19z"/><path fill="#fffffa" d="M48 17h10v9H48z"/><path fill="#f5edb0" d="M32 118h67v7H32z"/><path fill="#342207" d="M129 44h6v31h-6z"/><path fill="#79562a" d="M139 60h68v21h-68z"/><path fill="#c7884d" d="M92.2 164.9l-1-11.1 37.5 2.4-6.2 28.8z"/><path fill="#d0dbf8" d="M79 29l-7-2 12 13z"/><path fill="#3e2a2a" d="M15 154h28v10H15z"/><path fill="#0c0100" d="M34 12h4v9h-4z"/></g></g></svg>