<svg xmlns="http://www.w3.org/2000/svg" viewBox="0 0 1400 934"><defs/><filter id="a"><feGaussianBlur stdDeviation="12"/></filter><rect width="100%" height="100%" fill="#273c46"/><g filter="url(#a)"><g fill-opacity=".5" transform="translate(2.7 2.7) scale(5.46875)"><circle r="1" fill="#f7e0c8" transform="matrix(150.41046 -75.64858 35.73205 71.04527 152.3 20.7)"/><ellipse cx="158" cy="73" fill="#b7a898" rx="64" ry="169"/><circle r="1" fill="#fff" transform="matrix(-58.25053 -50.99448 15.5537 -17.76685 229.8 9.6)"/><circle cx="28" cy="2" r="71" fill="#434a47"/><ellipse cx="213" cy="106" fill="#4f5b56" rx="51" ry="71"/><path fill="#d6d2d6" d="M101 0h67v66h-67z"/><circle r="1" fill="#d4cfb7" transform="matrix(-7.43734 -10.5431 14.22512 -10.03472 5.9 108.3)"/><circle r="1" fill="#5f635c" transform="matrix(-3.73812 -20.36743 107.70825 -19.76816 141.8 95.3)"/><ellipse cx="46" cy="147" fill="#012c3b" rx="53" ry="32"/><path fill="#fff3eb" d="M119 98h20v15h-20z"/><path fill="#c4b7a4" d="M118 78L90 34 32 23z"/><path fill="#a7957d" d="M132 183l25-75 46 9z"/><circle r="1" fill="#001935" transform="matrix(-8.07943 13.99398 -5.90796 -3.41096 88.1 15.1)"/><circle r="1" fill="#8b7566" transform="matrix(-13.36854 5.05425 -8.648 -22.87403 137 0)"/><path fill="#63443e" d="M132.1 84.3l32.2-3.1-36.2-20.4-8.6-4.4z"/><circle r="1" fill="#938a74" transform="matrix(-7.5005 16.30725 -29.07792 -13.37435 106.2 120.2)"/><path fill="#00192e" d="M39 34l-25 1 8-23z"/><circle r="1" fill="#e8e7f4" transform="matrix(31.0121 23.20383 -9.1197 12.18855 203.8 0)"/><circle r="1" fill="#486464" transform="matrix(-23.0552 -19.20887 7.67676 -9.21393 66.7 71.5)"/><path fill="#dde1ee" d="M133.1 57.9l-25.7-14.8-7.3-28.3L95.6-16z"/><path fill="#b7987e" d="M16.2 37.5L42 40.7l-2.2 17.8L14 55.3z"/><path fill="#f9e7e0" d="M103.7 71.2l13.7-3.1 2.9 12.7-13.7 3.1z"/><circle r="1" fill="#485758" transform="matrix(24.41108 5.92171 -14.4456 59.5491 219.5 102.5)"/><path fill="#3d4747" d="M49 0h16v32H49z"/><path fill="#aba193" d="M167.6 6.3l9.8 56.5 42.6-8.5L169.9-16z"/><path fill="#122c3c" d="M16.7 56.9L-16 .9l3 54.6 76.8 11.4z"/><circle r="1" fill="#a7927a" transform="rotate(131.8 -1.4 3.1) scale(7.46725 11.34242)"/><ellipse cx="12" cy="89" fill="#878a7c" rx="35" ry="29"/><path fill="#00192a" d="M118.1 77.5l18.8-3 1 6-18.8 3z"/><path fill="#002334" d="M170 103l-27 10 6-9z"/><circle cx="41" cy="25" r="6" fill="#f8bf98"/><path fill="#d2ccd0" d="M214 15l52 55-37-84z"/><path fill="#908879" d="M159 69h25v48h-25z"/><path fill="#002a3e" d="M36.8 67l2.8 5.4 15.9-6.2 20.8-19.7z"/><path fill="#80785f" d="M100.5 19.6l4 23.3-15.8.2L77 33z"/><path fill="#d2cfcf" d="M143 70l25-3-3-63z"/><path fill="#cd997b" d="M143 73l-12 34 15-1z"/><circle r="1" fill="#073846" transform="rotate(-23.4 532 -515.4) scale(11.80808 34.16042)"/><path fill="#002a3c" d="M81 11l20 9-6-36z"/><path fill="#754a43" d="M143 71h15v29h-15z"/><path fill="#8f8d80" d="M58 12h27v8H58z"/><path fill="#706f66" d="M234.1 46.6l-39-15 18.4-7.5 46 39.4z"/><circle r="1" fill="#abab9f" transform="rotate(44.6 -120.5 66.5) scale(10.14821 20.15825)"/><path fill="#9f8a73" d="M120 131l9 50-34 4z"/><path fill="#466158" d="M-5.8 85.4L-8 77.7l31.8-9 2.2 7.6z"/><path fill="#515552" d="M-6.7-15.7l56.2 39.1 20.4-18L72.3-16z"/><path fill="#b68368" d="M26 56.1l8.3 1.3-21.1-24.3-27.8-20.6z"/><path fill="#5a403a" d="M123 63l16 5-19-15z"/><path fill="#82857d" d="M82 49L27 84l40 27z"/><path fill="#294851" d="M46.6 121.3l-1.3-11.2L-16 129l43.8 17z"/><path fill="#001226" d="M36 34h14v4H36z"/><path fill="#13313f" d="M104.2 148.9L79.1 117-16 170.4l124.8-5.4z"/><ellipse cx="183" cy="127" fill="#746c61" rx="14" ry="38"/><circle r="1" fill="#bfaf9c" transform="matrix(3.2661 -5.47894 23.8344 14.20816 107.8 61.2)"/><circle cx="126" cy="106" r="6" fill="#f2eff5"/><path fill="#687671" d="M4.4 115.1L-16 146.4l55.2-46.5 59.6 22.3z"/><circle r="1" fill="#9a907e" transform="rotate(62 -40.5 205.3) scale(15.5833 19.95114)"/><circle cx="160" cy="95" r="4" fill="#efdbcf"/><path fill="#c7c3c1" d="M144 27l-14 11 9 39z"/><path fill="#606d64" d="M96 95l4-29-41 55z"/><path fill="#2a5054" d="M211.1 34.5l27 32L271 95.6l-27-44z"/><path fill="#eceff7" d="M97 80l17-1-8-9z"/><path fill="#ada799" d="M53 49l18-27 10 20z"/><path fill="#717c76" d="M62 53L26 29l-7 14z"/><path fill="#3e6666" d="M182 62v32l47 8z"/><path fill="#c19882" d="M152.4 102.1l-.1 2.3-13.6 7.7-16.2-21.8z"/><path fill="#133a45" d="M93.3 10.2L76 33.6 72.1 7.4l11 20.9z"/><path fill="#002a3c" d="M43.2 116.5l15.3 12.1L44 163.7l-13.2-45.8z"/><circle r="1" fill="#5d5e58" transform="matrix(-1.89366 -19.02642 28.70355 -2.8568 204.3 145.7)"/><path fill="#615f56" d="M119 143l23 42-3-57z"/><path fill="#82756b" d="M209.3 84.6l17.8-47.9-87.2 52.6 43.5-38.6z"/><path fill="#907f6b" d="M55.2 125.1l60.7-42.4.8-18.3 10.6 35.6z"/><path fill="#b9af9b" d="M82.7 75l.5-29.7 21-6.2L118 50.5z"/><path fill="#aa987f" d="M78-5L58 17 88-2z"/><path fill="#0e3f4b" d="M197.2 132.4l19.8 21.2-2.2 2-19.8-21.2z"/><path fill="#958773" d="M119.7 96.6L79.6 60.3l29.6 66.1-23.4 4.8z"/><path fill="#ca987a" d="M48.5 27.6L44.4 32 27.5 16.4l4.1-4.4z"/><path fill="#829186" d="M190 78l-25-50 12 59z"/><path fill="#335659" d="M271 154l-65-32 19-29z"/><circle r="1" fill="#103541" transform="rotate(156.1 63.5 70) scale(17.83191 1.43226)"/><path fill="#577069" d="M106.1 123.3l21.5-11.4-13.3-1.3-8.6 3.6z"/><path fill="#bda395" d="M88 115l5-6 10 20z"/><path fill="#e4e8ee" d="M160.3 26l2-.3 7.4 38.3-2 .3z"/><ellipse cx="96" cy="27" fill="#726f60" rx="5" ry="13"/><path fill="#033242" d="M211.7 180l-4-5.6 22.6-16.5 4 5.7z"/><path fill="#7a7b6f" d="M-16 34.1l70.5 66.7-57.3-27.2 5 63.5z"/><path fill="#41696e" d="M80 48l-25-3 27 12z"/><ellipse cx="255" cy="19" fill="#bdb3b2" rx="9" ry="40"/><path fill="#b7aba2" d="M142 46l15-59 1 72z"/><path fill="#c7ac94" d="M111 53h11v24h-11z"/><path fill="#1b3742" d="M14.5 34.9l-.7-37.3L36.5 32l4-1.7z"/><path fill="#00263a" d="M-16 155l35-37-11 67z"/><circle r="1" fill="#d0d0d7" transform="matrix(-13.86086 -41.2468 7.10376 -2.3872 109.6 15.3)"/><path fill="#1c323e" d="M10.1 41.4l.4 10.2 19.3 11.5-37.7-12.8z"/><path fill="#a3907b" d="M89 38l6-11-35 5z"/><path fill="#cfbaab" d="M20 87L8 99l7-18z"/><circle cx="177" cy="161" r="9" fill="#977466"/><path fill="#7e887e" d="M53.4 65.5l22.4-14.3 21.8 23 20.1-10.1z"/><path fill="#69655d" d="M22-8l14.7-6.2L46 8l-14.8 6.3z"/><path fill="#5e5e5e" d="M23 130h9v11h-9z"/></g></g></svg>