<svg xmlns="http://www.w3.org/2000/svg" viewBox="0 0 1400 933"><defs/><filter id="a"><feGaussianBlur stdDeviation="12"/></filter><rect width="100%" height="100%" fill="#4b4438"/><g filter="url(#a)"><g fill-opacity=".5" transform="translate(2.7 2.7) scale(5.46875)"><circle r="1" fill="#fff" transform="matrix(34.36048 -78.64803 233.67249 102.089 164.4 51.7)"/><circle r="1" fill="#fff2db" transform="matrix(168.39563 104.71757 -51.04804 82.09002 132.7 0)"/><circle r="1" fill="#18140c" transform="matrix(72.77874 54.13964 -24.03554 32.31045 63.6 128)"/><path fill="#ead7bd" d="M112 109h78v26h-78z"/><circle r="1" fill="#6a5741" transform="matrix(-11.16809 14.63629 -19.81248 -15.11774 52.8 83.9)"/><path fill="#7a6248" d="M258 183l-62-56-23 58z"/><path d="M-3.9 112.6L6.7 90l153.2 71.4-10.6 22.6z"/><circle r="1" fill="#d8c6b0" transform="rotate(-151.7 12.2 22.6) scale(30.58614 25.56404)"/><path fill="#352514" d="M130.7 70.4l-63.1 37.7L143.5 70l-15.9-.5z"/><circle r="1" fill="#543e2d" transform="matrix(-20.1775 14.88543 -1.5093 -2.04589 148.9 92.3)"/><circle r="1" fill="#6f604b" transform="matrix(65.9512 30.61353 -9.46383 20.38807 32.4 161.7)"/><path fill="#ead7be" d="M247.6 185l23.4-41.9-81.1-24.7 8.9-5.6z"/><path fill="#221508" d="M207.3 121.5l16.7-18.1-7.2 19.1-7.7-2z"/><path fill="#584939" d="M99.2 71.5l17.5-18.1 2.8-1.3-34.6 17.4z"/><path fill="#baac9a" d="M93.7 139.3l24.8-4.7 49.9-3.6 40.2-40z"/><circle cx="202" cy="32" r="63" fill="#e7dbcd"/><path fill="#121009" d="M150.9 185l-70.1-25.8 79-1.4 56.8-24.1z"/><path fill="#c6b29a" d="M166 177l36-33 5 18z"/><path fill="#392b1f" d="M46 27.9L42.2 25l-22.4 6.3-5.7 5.1z"/><path fill="#6d6151" d="M110 128L61 63l-67 3z"/><path fill="#5f4b39" d="M87.7 46.5l3.9-1.6-4.5 10L61.7 58z"/><circle r="1" fill="#735f4c" transform="rotate(62.6 -5.2 66.5) scale(3.29812 16.46032)"/><path fill="#412e21" d="M200.3 96.1l-42.2 20.7-.4-1 42.2-20.6z"/><path fill="#331f0b" d="M134 102l-29-3 11 7z"/><circle r="1" fill="#e7dbcf" transform="matrix(74.07185 26.72715 -8.47283 23.48166 101.8 23.3)"/><path d="M219.1 167.5l51.9 8.1-87.1 5.9 36.2-26.4z"/><path fill="#3f2a17" d="M-7.2 24.3l22-7.9v-4.7L-16 26.3z"/><path fill="#40392d" d="M166.2 135.4L133 143l14.6 20.2 22.1 2.9z"/><path fill="#ddd2c1" d="M96.2 139.3l95.6-20.3-84.1 16.3-11.9.2z"/><path fill="#040000" d="M60 67l-16-3 25 18z"/><path fill="#d4c5b1" d="M254.8 108.4l-110.7 32.8 33.1-106.6-8.9 117.5z"/><path fill="#8d7f6e" d="M83.3 92.7l-51.9-10 75.2 35.6 9.8-4.6z"/><path fill="#e4d9c8" d="M30 48l-46 21 76-11z"/><path fill="#483a29" d="M265.2 124.2l5.8-2.3v9.7l-30.5 6.6z"/><circle r="1" transform="matrix(-15.027 -16.46015 10.45918 -9.54852 4.4 93.6)"/><path fill="#bfb5a7" d="M117.9 138.1l8.3-18.5 3-20.8-22.4 16.6z"/><path fill="#3d2819" d="M194 139l19 2 2-6z"/><path fill="#a99a87" d="M41.7 75.7l-2.4-5.5 17.9 3.9 11.7 20.5z"/><path fill="#080b07" d="M141.1 185l-2.3-49.5-22-1-22.1 35z"/><path fill="#ede5d7" d="M-6.6 28.2l2-3.4 57.2 33-2 3.4z"/><path fill="#403528" d="M113.3 53.7l-.8 4.6-19.3 11.5 4-6.1z"/><path fill="#4a4032" d="M131.7 76.1l-103.1 51 96.7-52.3 22.9-4.5z"/><path fill="#3f3427" d="M207 116l21-12-7 9z"/><path fill="#887762" d="M18.5 47.5L-16 52.1V32.5l20.6 6.9z"/><path fill="#3e2619" d="M143 96l6-9 11-5z"/><path fill="#d9d0c2" d="M153 107l-59 7 69 10z"/><path fill="#5f4b3b" d="M191.7 97.8l1.5 5.3-21 6.2 18.1-12.1z"/><ellipse cx="227" cy="166" fill="#2e281b" rx="4" ry="11"/><path fill="#342d22" d="M87.1 114l15-11.6-12.6 37.3 22.4-19.7z"/><ellipse cx="222" cy="148" fill="#e4d9c9" rx="2" ry="20"/><path fill="#634c39" d="M30.8 116.6L19.1 91.7l5.9.9 8.9 24.5z"/><path fill="#333128" d="M9 79l10-15-28 8z"/><path fill="#45311f" d="M28.6 68l21.2-5.7 1.6 5.8-21.2 5.6z"/><circle r="1" fill="#e3d7c6" transform="matrix(.19224 26.82233 -32.142 .23036 255 96.8)"/><path fill="#dbccb8" d="M70.3 57.7l25.9-9.9 1.1-1.1-12.8 47.8z"/><path fill="#a79e90" d="M92.9 138.6l3.8-5.4 14.3 5.7-11.2-1.2z"/><path fill="#0b0c07" d="M40.2 132.7L26.4 94.6l36 18.1 52.3 19.9z"/><path fill="#cebca7" d="M90.5 106.7l4.4-10.8 66.2-33.3-49.5 35.7z"/><ellipse cx="129" cy="32" fill="#e0d5c9" rx="21" ry="40"/><circle r="1" fill="#433324" transform="rotate(58.7 -8.6 68) scale(1 15.19792)"/><path fill="#291a0b" d="M92.2 47l.4.9L71.8 55l-.4-1z"/><path fill="#6f5d4d" d="M164.6 82l-34.8 25.3-2.4-3.3 34.8-25.3z"/><path fill="#695b4d" d="M183.9 148.3l30.5-17.5-37.8 27.4-39-21.9z"/><path d="M63.6 81.4l2.5-1.8 6.3 9-2.5 1.8z"/><path fill="#493f33" d="M34 27l-7 8H15z"/><path fill="#bcad9b" d="M148 108l-8-9 29-22z"/><path fill="#c8b79f" d="M193 130l-36-6-16 15z"/><path fill="#040503" d="M101 160l68 25 9-19z"/><circle cx="102" cy="109" r="3" fill="#1d140c"/><ellipse cx="29" cy="50" fill="#d4c8b8" rx="11" ry="18"/><circle cx="208" cy="138" r="5" fill="#4a382a"/><path fill="#ddd2c5" d="M260.4 21L170 83.1 78.6 28.6l-45 26.5z"/><circle r="1" fill="#2a2319" transform="matrix(3.97968 -8.76272 2.8771 1.30666 30.7 81)"/><path fill="#cbbba6" d="M45 69l11 4-20-1z"/><path fill="#d0bba1" d="M77.8 93.2l5.6 1.7 11.9-5.7-23.1-16.4z"/><path fill="#d6c8b6" d="M208.6 129.9l17.7 25.6 44.7-45-26.8 1.2z"/><path fill="#f8efe3" d="M100.1 110.2l3.8 3.4-2 2.2-3.8-3.4z"/><path fill="#c7b8a6" d="M110.8 93.5l14.4-15.1 26.5 7.5-24 20.3z"/><circle cx="239" cy="143" r="2" fill="#2f251b"/><path fill="#dcd3c4" d="M147.9 125.3l39.2-.2 35 1.4-118.6-20.9z"/><path fill="#b29b81" d="M198 144h26v6h-26z"/><circle r="1" fill="#c3b39d" transform="matrix(-13.77466 13.77466 -1.9196 -1.9196 181.1 137)"/><circle r="1" fill="#423625" transform="rotate(114.9 18.5 90.5) scale(1 7.12831)"/><circle cx="132" cy="142" r="9" fill="#2a271e"/><path fill="#ddd2c3" d="M26.9 30.4L-16 42.3l46.1-41L61 11.7z"/><path fill="#71624c" d="M204.7 159.5l-16.5-28 25 33.5-26.6-2.6z"/><path fill="#0b0a03" d="M37 67h14v3H37z"/><path fill="#dcd1c2" d="M39.1 62.1L34 55.4 21.1 39.2l72.7 32.3z"/><path fill="#655b4e" d="M211 121.5l4.9-1 10.2-17.1-8.9 4.3z"/><path fill="#a99783" d="M233.9 169.1l2.6-11.7-16.6-7.3 18.9 18.4z"/><path fill="#68523b" d="M182.7 108l-2.6 4.2-6.8-4.1 2.6-4.3z"/><path fill="#d9d0c5" d="M114 121h8v12h-8z"/><path fill="#4a4437" d="M171 157l-7-21-32 7z"/><circle cx="161" cy="114" r="2" fill="#29170d"/><path fill="#1d1a11" d="M195.5 185l17.6-30.7 7.7 30.7-1.4-29.2z"/><path fill="#d5cab9" d="M184.8 140.3l-19.2-1.3-1.5-108.8 12.7 105.7z"/><path fill="#665646" d="M14.6 76.9l13.7 31.3-1.8-26.7 12-19z"/><path fill="#503e33" d="M148 91l3 3 6-12z"/><path fill="#b1a08c" d="M198 174l-9-21-13 32z"/><path fill="#312c20" d="M95.4 158L-9.1 108.7l59.2 46.6 28.3-5.8z"/></g></g></svg>