<svg xmlns="http://www.w3.org/2000/svg" viewBox="0 0 1400 933"><defs/><filter id="a"><feGaussianBlur stdDeviation="12"/></filter><rect width="100%" height="100%" fill="#584237"/><g filter="url(#a)"><g fill-opacity=".5" transform="translate(2.7 2.7) scale(5.46875)"><circle r="1" fill="#fbfded" transform="matrix(-244.01205 74.04807 -26.56786 -87.5496 137.4 109.4)"/><circle r="1" fill="#fff" transform="matrix(156.96152 13.45635 -2.94823 34.38964 195.4 76.6)"/><path fill="#4e4334" d="M44 185L-16 73l287 54z"/><circle cy="40" r="37" fill="#d0cec4"/><path fill="#3c2a1b" d="M192.2 37.5l-77.9-4 1.5-27 77.9 4z"/><circle r="1" transform="matrix(-1.22766 6.45216 -135.33853 -25.75107 161.4 114)"/><circle r="1" fill="#fff8ec" transform="rotate(-87.6 121.8 -55) scale(31.10598 108.30032)"/><circle r="1" fill="#736150" transform="matrix(4.56198 16.00194 -104.53266 29.8011 93.1 27.8)"/><circle r="1" fill="#bfb19e" transform="rotate(-78.5 152.1 -21.8) scale(11.91841 157.94622)"/><ellipse cx="177" cy="169" fill="#61513d" rx="62" ry="14"/><circle r="1" fill="#fffff5" transform="matrix(35.59132 4.25142 -1.33433 11.17053 41 72)"/><circle r="1" fill="#393126" transform="matrix(48.66764 2.20998 -.26029 5.73202 231 36.2)"/><circle r="1" fill="#e1dbd7" transform="matrix(-33.47115 -.58424 .30816 -17.65462 226.9 12)"/><path fill="#cbb294" d="M186.6 176.1l-91.8-24.6 2.6-9.6 91.8 24.6z"/><circle r="1" fill="#4a3f31" transform="rotate(-73.1 99.7 54.7) scale(5.59861 101.20404)"/><path fill="#0d110e" d="M11.6 90.4l-15-10.1 17.7.1L96.6 98z"/><ellipse cx="53" cy="169" fill="#d3b697" rx="52" ry="11"/><path fill="#dbd8d5" d="M-16 35.7l51.9-5.3L8.7 7.8l-24.1 20.7z"/><path fill="#f8eee3" d="M216 43h40v76h-40z"/><circle r="1" fill="#7f7566" transform="matrix(-51.3413 5.4868 -1.47943 -13.84336 79.3 35.6)"/><path fill="#040100" d="M230 120.6l-15.5 7.9 56.5 13.7-18-20z"/><circle r="1" fill="#3e3b31" transform="rotate(13.8 -564.3 808.4) scale(43.94173 3.62841)"/><ellipse cx="142" cy="3" fill="#8b6753" rx="58" ry="12"/><path fill="#a28d76" d="M263.4 185h3.9l3.7-46-77.6-6.3z"/><path d="M137 34v-6h24v6zm16 78h35l14 14z"/><path fill="#d1c8ba" d="M-41 52.7l155.6-27.4.4 2-155.6 27.4z"/><circle r="1" fill="#262722" transform="rotate(-99.2 28.3 17.5) scale(1.4505 94.22868)"/><path fill="#f6e8dc" d="M-16 70l84-20 49 45z"/><path fill="#333129" d="M157.7 151.6l-1 3.8-160.4-43 1-3.8z"/><path fill="#191a15" d="M95 127.6l32.1-25.6-48.6-4.6 44.3 18.1z"/><path fill="#6c7d7f" d="M231 116l-34 20 10-21z"/><circle r="1" fill="#af9980" transform="matrix(1.81423 -5.55063 43.80436 14.31747 60 136.6)"/><path fill="#bcbbb3" d="M130 24h65v3h-65z"/><path fill="#261813" d="M169 15h23v10h-23z"/><path fill="#14180a" d="M64-13l12 35H51z"/><circle r="1" fill="#b8b1a4" transform="matrix(-103.22939 -24.31984 1.08497 -4.60533 123.8 132.3)"/><circle r="1" fill="#faf1e5" transform="matrix(-1.04557 6.45557 -69.68325 -11.28622 205.5 105.1)"/><path fill="#a28f77" d="M4.5 136.6l54.8 12.2-47.6 22.3L-16 121z"/><circle r="1" fill="#9f8e7b" transform="matrix(-115.65703 -20.18923 .23202 -1.32915 155.8 105.6)"/><path fill="#a2988b" d="M-6.2 92.8l38.7 25.6-.5 1.6 44.5-21.3z"/><path fill="#3b3b34" d="M184.2 39.9l56.4-8-48.1-3.3 5.1 10.7z"/><path fill="#2d2a22" d="M218.3 164.2l-28.3-1.9 75.2 22.7 1.2-7.8z"/><circle r="1" fill="#727370" transform="matrix(44.79448 -8.28486 .68678 3.71328 95 116.8)"/><path fill="#4a4135" d="M176 191.8l-97.2-37.2 3.3-8.4 97 37.2z"/><path fill="#51473c" d="M2.1 63.2l24-2.3 8.2-41.8 34-8z"/><path fill="#574e3f" d="M14 0h31v15H14z"/><path fill="#040400" d="M151.1 108.3l-17.6.8 16.5 8.1 52.7 3.9z"/><circle r="1" fill="#3d3028" transform="matrix(.25841 -2.186 13.37066 1.5806 92.3 25.2)"/><path fill="#5f483a" d="M0 34h31v7H0z"/><path fill="#b1a899" d="M325.2 186l-179.3-41.4 3-12.6L328 173.4z"/><circle r="1" fill="#ac9a82" transform="matrix(-63.20755 -19.30952 .9929 -3.25014 191.2 168.4)"/><ellipse cx="19" cy="85" rx="12" ry="3"/><ellipse cx="235" cy="69" fill="#ede4da" rx="227" ry="26"/><path fill="#d3cec2" d="M138.7 23.1l-25.1 6.7-.3-1 25.1-6.6z"/><path fill="#433628" d="M162.6 26.6l-42.1-4.2 11.4-13.5 11.7 27.5z"/><circle r="1" fill="#f4ebe0" transform="rotate(-166.9 84.2 13.1) scale(25.99719 7.0871)"/><path fill="#a9a197" d="M-16-4.2l34.3 9.6-34.3 10L36.5 24z"/><circle cx="169" cy="10" r="3" fill="#efefe8"/><path fill="#70604e" d="M16.2 142.8L48 126l-61.5 26.2 14.7-48z"/><path fill="#d4c5b7" d="M252.6 29.3l-50.8 33.5L271 11.5v20.9z"/><path fill="#8f8273" d="M98.4 90.4l-60.7 13.8 97 9.6-67.5-13.3z"/><path fill="#af9980" d="M28.1 130.1l-1.5-7.1-37.3-14.1-5.3 14.4z"/><path fill="#c3af96" d="M-16 171l94 12-46-31z"/><path fill="#0f0c05" d="M86.3 102.7l46.2 9-10.3-7.8-12.1-4.4z"/><path fill="#8f7b67" d="M65.4 50l75.3-12.9-5-6.4-33.6 1.9z"/><path fill="#5a4335" d="M128 13h68v5h-68z"/><path fill="#7d6d5c" d="M158.9 36l.5-5 47.7 5-.5 5z"/><path fill="#15140d" d="M163 159l9-3-7-3z"/><path fill="#7a5a47" d="M70 0h83v16H70z"/><circle r="1" fill="#71716b" transform="rotate(-107.6 154.6 -10.4) scale(17.14819 4.17396)"/><path fill="#120b03" d="M172 118h50v3h-50z"/><path fill="#414037" d="M222 33l-33 2 7-12z"/><path fill="#474741" d="M51.1 46.6l-55.3 8.7-1-5.9 55.4-8.7z"/><path fill="#a29587" d="M-16 105.1l35.4-15.6-35.4-6.8 85.9 24.7z"/><path fill="#605143" d="M246 42l25 2-24-20z"/><circle r="1" fill="#7e7161" transform="rotate(-78.6 154 -50.2) scale(1 59.01286)"/><ellipse cx="207" cy="49" fill="#f0e9df" rx="49" ry="8"/><path fill="#bdb5ab" d="M202-16l26 17-36 25z"/><circle r="1" fill="#d1cbc4" transform="matrix(-27.986 5.23744 -.92405 -4.93764 3.9 28.8)"/><path fill="#595f61" d="M13.4 125l26-35.9 11.9-2.8-37.5 22.3z"/><path fill="#634335" d="M197 9l-26-4 4 8z"/><ellipse cx="83" cy="38" fill="#352d23" rx="14" ry="2"/><path fill="#3e3629" d="M76.4 16.1l59.2 8.4-38.7-2.9-58.2-1z"/><path fill="#3e3b32" d="M29.2 135.3l-1.3 4.9-47.1-13.5 1.3-4.9z"/><path fill="#af9577" d="M133.4 132.5l18.4-15.8 32.1 10.4 1.1 6.7z"/><ellipse cx="231" cy="20" fill="#d6cfc6" rx="36" ry="6"/><path fill="#848b8f" d="M30.2 86.9l-34.3 3.3-11.9 7.2 85.7-18z"/><path fill="#706a60" d="M160 153h36v3h-36z"/><path fill="#f3f2ee" d="M183 31.2v-1l10 .6v1z"/><path fill="#9e8b76" d="M75.4 47.4L52 33.2l27.9-4.4L33.7 58z"/><path fill="#686a68" d="M49.4 125.6l52.6-21.2-87.9 48.8 39-7z"/><path fill="#a18d76" d="M150 154.8l-65.8-19.3-48.8-1.1 64.9 18.2z"/><path fill="#3a3329" d="M159.6 153.7l-75.2-19.5-13.1-5.2-6.2 3.5z"/><path fill="#ccc8ba" d="M142 22.9l46 3.2v1l-46-3.2z"/><path fill="#424036" d="M180.6 29.1l-38.3-3.7-26.4 4.9.5 1.5z"/><path fill="#735b46" d="M263.7 135.7l-6.1 7.5 2.4.2-33.5-7.1z"/><path fill="#8d7a64" d="M73.3 155l95.1 28.2-118.5-23 10.8-4.4z"/><path fill="#403b39" d="M138.8 103.7l-14.7 8.9-3.7 4.9-24.5 4.9z"/><path fill="#a18d7a" d="M207 36h38v5h-38z"/></g></g></svg>