<svg xmlns="http://www.w3.org/2000/svg" viewBox="0 0 1400 933"><defs/><filter id="a"><feGaussianBlur stdDeviation="12"/></filter><rect width="100%" height="100%" fill="#5f4237"/><g filter="url(#a)"><g fill-opacity=".5" transform="translate(2.7 2.7) scale(5.46875)"><circle r="1" fill="#fff" transform="matrix(-41.464 49.94363 -196.1969 -162.8858 42.8 121)"/><ellipse cx="138" cy="6" fill="#e1d6bc" rx="106" ry="54"/><circle r="1" fill="#fff" transform="rotate(-45.1 170.3 14.5) scale(62.08078 208.59831)"/><ellipse cx="236" cy="121" fill="#90927c" rx="51" ry="46"/><circle r="1" fill="#f7efd9" transform="matrix(4.47837 -11.22726 58.46549 23.32093 142.5 149.2)"/><circle r="1" transform="rotate(-101.5 147.7 -74.6) scale(19.30542 38.48159)"/><circle r="1" fill="#6a5641" transform="matrix(-31.32773 -21.25883 15.4179 -22.72033 118.7 89.2)"/><circle r="1" fill="#000904" transform="rotate(-74.3 156.6 -57.4) scale(36.70527 13.86217)"/><circle r="1" fill="#736e5f" transform="matrix(-80.07226 -61.00992 7.11167 -9.33368 48.9 21.7)"/><ellipse cx="17" cy="169" fill="#f6eddb" rx="79" ry="127"/><circle r="1" fill="#b79a85" transform="rotate(70.2 71.7 127.7) scale(55.23319 35.43879)"/><circle r="1" fill="#8b5f54" transform="matrix(52.67371 -38.68073 7.54497 10.27441 211.5 34.8)"/><path fill="#171a11" d="M118 90.3l92.1 63.7 27.7 31-72.9-46.6z"/><ellipse cx="202" cy="104" fill="#071a1d" rx="57" ry="4"/><ellipse cx="116" cy="25" fill="#c1b196" rx="53" ry="17"/><path fill="#baa78d" d="M175.1 101.7l11.2-4.1 24.2-15.9 32.4 17.9z"/><ellipse cx="238" cy="130" fill="#182424" rx="41" ry="4"/><ellipse cx="131" cy="44" fill="#001a1f" rx="28" ry="2"/><path fill="#523c2e" d="M57.8 29.2l-7.1 17.5L42 10.3l229 165z"/><path fill="#1b0e05" d="M147 108.5l81.1-56.8 6.9 9.8-81.1 56.8z"/><path fill="#b49c82" d="M181 109h75v10h-75z"/><path fill="#b29d8a" d="M216.1 140.7l55.2 43.1-7.4 9.5-55.2-43.1z"/><path fill="#aba594" d="M30.9 14.8L-16-6.7 122.4.1l-12.7 4.5z"/><path fill="#f6eddf" d="M90 149h86v21H90z"/><path fill="#a58774" d="M122 83l-14-5 40-26z"/><path fill="#634031" d="M143.9 122l27.6-45.2-31.1-26.7-31.1 62.5z"/><circle r="1" fill="#cbbaa2" transform="matrix(41.5392 43.9301 -5.23432 4.94944 89 94)"/><path fill="#9e8f75" d="M157.6 151.7l-.2-2.1 1.2-19.8-29.7-14.3z"/><path fill="#1b1913" d="M271 151l-33-1 9 12z"/><circle r="1" fill="#3f504c" transform="rotate(-99.1 47.3 -32.1) scale(1.44997 73.46019)"/><circle r="1" fill="#1b140c" transform="matrix(-12.54074 27.77465 -19.17963 -8.65993 255 50.5)"/><path fill="#000600" d="M85.7 61.4l-2.6 13.2 19.5.1-11.2-7.1z"/><path fill="#eae1d0" d="M-16 2v57.5l61.1-8.6-17-26z"/><path fill="#39443f" d="M123.7 47.3l-21.5-2.8L65.6 54l80.1-11.7z"/><path fill="#875b4d" d="M237 54h17v8h-17z"/><circle r="1" fill="#b5a68e" transform="matrix(12.43751 22.27267 -62.36875 34.82798 192.7 0)"/><path fill="#160904" d="M141.9 121.7l-5-.5 3.2-30.9 5 .5z"/><path fill="#836255" d="M243.5-7.1l-69.2 89.8 84.9-74.9 11.8-.7z"/><ellipse cx="99" cy="62" fill="#e2ccba" rx="5" ry="4"/><path fill="#3a3427" d="M175.9 145.1l-22.8.3 37.4-27.7 8.7 1.8z"/><path fill="#b09a7f" d="M267 146l-27.8 3.9L237 134l27.8-3.9z"/><path fill="#7c7359" d="M173 146l39 25-19 3z"/><path fill="#6c5d4a" d="M80 86h27v7H80z"/><path fill="#322b1f" d="M205 144.4l12.1-13 53.9-2.5-2.4-6.4z"/><circle r="1" fill="#958671" transform="matrix(-6.49182 -14.95355 11.70952 -5.08348 223.5 87.5)"/><path fill="#ebe2d7" d="M37 119h96v51H37z"/><path fill="#a07d6c" d="M174.9 17.6l-32.5 65.6-15.6 11 24.9-35.6z"/><path fill="#b28979" d="M148.6 55l10-19.6L185.4 49l-10 19.6z"/><circle r="1" fill="#656c63" transform="matrix(136.83413 -25.60781 .23175 1.23834 43.7 2.6)"/><path fill="#221f12" d="M32.1 23.4L74.6 54l-40-22.6.1-3.4z"/><path fill="#29291f" d="M60.7 48.4L117 84l-1 .9-3 8.9z"/><path fill="#603b2d" d="M165 78l23 9 1-28z"/><path fill="#98988d" d="M69.7 42.3l75.6-3.5-47.9 6.7-28.5 3.1z"/><path fill="#4b2f23" d="M125.7 91.9l13.7 16.4 26.8-42.7-57.9 57.8z"/><path fill="#1a1109" d="M93 53h13v5H93z"/><path fill="#6a5946" d="M70.6 78.1l15.9 1.3 17.6 2.4 5.7-8.8z"/><ellipse cx="245" cy="69" rx="24" ry="5"/><path fill="#b5ae96" d="M118 47h17v15h-17z"/><path fill="#131814" d="M183 109.8L159.7 99l15.6 50.6-1.2.1z"/><path fill="#95705e" d="M139 113l20.2-23.2 40.9-66.1-49.7 67z"/><path fill="#e8dfd4" d="M114.4 185l43.3-57.6-25.7 15.9-73.4-64.8z"/><path fill="#a89989" d="M120 85l-16-18 16 5z"/><path fill="#6d6556" d="M56 20l-72-36L5 11z"/><path fill="#ac9682" d="M238 155h18v2h-18z"/><path fill="#140c04" d="M63 25l-13-1-3 4z"/><path fill="#97796d" d="M250.6-16L226 16l43.9 1L271-7.9z"/><path fill="#66736f" d="M271 122.2l-68.9 1.4 10.6 7.1 29.6-2.7z"/><path fill="#1f1a0d" d="M214 185l-7-41 13 23z"/><path fill="#c0c8be" d="M44.1-3.2L16.3 8.1l-.4-1L43.7-4z"/><path fill="#4d3327" d="M214 41l-12 34 50-51z"/><path fill="#231910" d="M255.4 44L198 89.3 134.6 125l31.9-26.3z"/><path fill="#797265" d="M87.7 34.2L76 65.6l.7-17.2L79 32.8z"/><path fill="#1c0c00" d="M228.6 144.7l-1.2 1.6-12-9 1.2-1.6z"/><path fill="#061f1c" d="M114 61h17v4h-17z"/><path fill="#866c59" d="M134.4 113.9l-3-24-7.6 19.4-27.6 10.9z"/><path fill="#a69884" d="M244 160l-17 19 44-4z"/><path fill="#b6a48e" d="M54.7 21.7l-21.2 7.2L180.1-9l-63.9 48.6z"/><path fill="#3b6264" d="M129 41h33v2h-33z"/><path fill="#292218" d="M234 129l-2 10 7 9z"/><path fill="#3c413b" d="M111.6 45l-18.7.6-16.1 11.1 1.3-.8z"/><path fill="#160a03" d="M140.8 102l-2.4-1.7 16.8-22.4 2.4 1.8z"/><path fill="#907f6c" d="M86 97l17 5 20-11z"/><path fill="#e9e1d7" d="M88 145h72v25H88z"/><path fill="#fffcf0" d="M93 103h15v3H93z"/><path fill="#9e8b75" d="M93 12h89v5H93z"/><path fill="#a0765e" d="M178 124h4v14h-4z"/><path fill="#bfa992" d="M84.3-2.8L20.7 10l48.1.9 39.9-9.8z"/><path fill="#e2dacf" d="M72.7 65l-9.1 29.4 28.6-4.6-66.8-6.6z"/><path fill="#7b6f54" d="M88.9 73l22.8 23.7-54.3-45.6-2.8-5.6z"/><path fill="#837763" d="M142 122h8v11h-8z"/><path fill="#ddd1bf" d="M89 98h22v3H89z"/><circle r="1" fill="#94896e" transform="rotate(-144 6.8 5.5) scale(68.60512 1)"/><path fill="#f6f8e8" d="M120 112h6v2h-6z"/><path fill="#150b06" d="M271 44l-7-22-49 42z"/><path fill="#553727" d="M53.2 44.4l10.5-7.3 2.6-2.1 7 .7z"/><path fill="#e0d8cc" d="M27.9 82.1l26.4 11.7 39.2-10-5.6-3.7z"/><path fill="#e8dfd3" d="M127.6 147.5L60.4 95.1l40.7-2.1-16.4 5.3z"/><path fill="#4e3228" d="M125.1 106.7l16.8-44.2-27.5 39-4.8 6.7z"/><path d="M234 149.5l28.3 6-.2 1-28.4-6z"/><path fill="#584235" d="M85.5 97.8l33.9-4.8 27.2-25.3-33.3 28.9z"/></g></g></svg>