<svg xmlns="http://www.w3.org/2000/svg" viewBox="0 0 929 1400"><defs/><filter id="a"><feGaussianBlur stdDeviation="12"/></filter><rect width="100%" height="100%" fill="#935c44"/><g filter="url(#a)"><g fill-opacity=".5" transform="translate(2.7 2.7) scale(5.46875)"><circle r="1" fill="#ffcc26" transform="matrix(167.48347 -17.1015 12.53695 122.78056 87.8 100.5)"/><circle r="1" fill="#ffda8e" transform="matrix(-168.45563 13.55362 -3.45192 -42.90333 94 22.2)"/><circle r="1" fill="#d25400" transform="matrix(-165.96066 -1.71186 .49626 -48.1116 97 197)"/><circle r="1" fill="#ff9825" transform="matrix(-168.70253 10.02278 -2.88652 -48.58565 90.5 109.5)"/><circle r="1" fill="#956526" transform="matrix(-.43517 -29.12544 159.50539 -2.3832 94.5 243.3)"/><ellipse cx="53" cy="192" fill="#d66608" rx="169" ry="25"/><circle r="1" fill="#efca78" transform="matrix(-17.14485 -52.76641 20.7852 -6.75352 150.7 9.3)"/><ellipse cx="111" cy="157" fill="#c7620e" rx="10" ry="66"/><path fill="#eaa741" d="M15 66h78v33H15z"/><ellipse cx="162" cy="182" fill="#e6891e" rx="16" ry="38"/><circle r="1" fill="#da7a13" transform="matrix(4.35405 -39.03784 16.34259 1.82275 1.4 127.9)"/><path fill="#d69d41" d="M103 32h24v32h-24z"/><circle r="1" fill="#eec97b" transform="rotate(-97.3 32.7 -25.1) scale(12.35638 42.93376)"/><circle r="1" fill="#efa539" transform="matrix(16.3793 -.27086 .85437 51.66443 160.3 107.3)"/><path fill="#824d25" d="M121 229l9 37-68-36z"/><circle r="1" fill="#e38a20" transform="rotate(26.3 -221.5 278.9) scale(14.88936 52.51828)"/><path fill="#b5671f" d="M12 215h158v14H12z"/><path fill="#e7b75d" d="M126 35h39v27h-39z"/><ellipse cx="4" cy="41" fill="#deab50" rx="19" ry="27"/><ellipse cx="40" cy="240" fill="#9f652e" rx="42" ry="11"/><path fill="#bd580d" d="M97.7 214.8l2-46.6 26.9 10.1-21.9 48.8z"/><path fill="#e58e23" d="M9 133l13 38 101-27z"/><path fill="#9f6935" d="M120 227h50v18h-50z"/><circle r="1" fill="#cb610b" transform="rotate(-152.3 23.9 91.6) scale(24.11644 27.12707)"/><path fill="#9e5419" d="M94 216l34 21-3-25z"/><circle r="1" fill="#da7917" transform="matrix(16.05457 -1.86676 3.14333 27.0334 42.8 184.2)"/><circle r="1" fill="#edc877" transform="rotate(166.7 37.6 21.8) scale(21.88742 5.51024)"/><circle r="1" fill="#e99d31" transform="matrix(-20.16823 -17.65595 13.10015 -14.96418 31 117)"/><path fill="#e2b158" d="M51 41h56v23H51z"/><path fill="#e17d16" d="M121 153h49v19h-49z"/><path fill="#934d18" d="M-4.3 257.1l-13.1-28 21.7-10.2 13.1 28z"/><path fill="#c37c2a" d="M54 221.7l.8 7-34.8 3.6-.8-7z"/><path fill="#edcb7e" d="M150.5-35.8l28.8-3 8.2 78.6-28.8 3z"/><path fill="#9f6b3c" d="M104 242l-71 29-20-27z"/><path fill="#f07f0c" d="M-12.5 67.3l25 .4v5l-25-.4z"/><path fill="#dd8723" d="M106 63h19v91h-19z"/><path fill="#e79020" d="M155.6 95.5l-8.4 21.6-33.5-18.6 31.8-11.4z"/><circle r="1" fill="#e6972f" transform="matrix(-43.33881 3.02532 -.42183 -6.0429 93.5 68.4)"/><ellipse cx="70" cy="78" fill="#ecab46" rx="39" ry="3"/><path fill="#e07b0f" d="M0 210h18v8H0z"/><path fill="#b4712a" d="M136 211l4 20 45-17z"/><path fill="#db7d15" d="M21.9 151.4l-10.5-21.8-26.3 3.9L.1 159z"/><path fill="#894b1c" d="M112 241l-1-16-48 13z"/><path fill="#e7962a" d="M47 94h44v62H47z"/><path fill="#da7415" d="M59 156l18 41 27-43z"/><path fill="#deab53" d="M128.8 9.2l-1.9 10.1-15.9 8.1-8.6-18z"/><path fill="#d8aa51" d="M6 23h61v4H6z"/><path fill="#d87111" d="M126 165h27v47h-27z"/><path fill="#ea9e33" d="M125 67l60-11-65 37z"/><path fill="#985d2a" d="M0 233h72v11H0z"/><path fill="#e2b157" d="M140 19h9v41h-9z"/><path fill="#e5b963" d="M-16 25l60 40 51-4z"/><path fill="#dca446" d="M11 67L9 45l-25 19z"/><path fill="#8a5934" d="M53 249h96v7H53z"/><path fill="#e3851c" d="M24 203h25v6H24z"/><path fill="#e6a13b" d="M23 120h41v12H23z"/><path fill="#dc861e" d="M11.3 89.3l3.7-3.6 9.8 14-34.9 4.2z"/><path fill="#eaa743" d="M18 72h28v18H18z"/><path fill="#dda94e" d="M39.7 49.6L91 44.7l17.9 8.5 18.7-20.5z"/><path fill="#af743a" d="M158 230h12v13h-12z"/><path fill="#e7be6c" d="M55 26h58v9H55z"/><ellipse cx="60" cy="55" fill="#efc36e" rx="39" ry="2"/><path fill="#9a6e45" d="M160 245l24 6-47 12z"/><path fill="#eaa53b" d="M152.3 93.8l5.3 30-38.7-.6 55.2-7.6z"/><path fill="#b17032" d="M35 243h49v4H35z"/><path fill="#e8bd6b" d="M172.7 59l-21.9 2-1.5-18 21.9-2z"/><path fill="#e69429" d="M137 122h33v16h-33z"/><path fill="#a1784f" d="M21.7 247.1l8-.2.6 16-8 .2z"/><path fill="#e6bd6a" d="M124 7h25v21h-25z"/><path fill="#ce660d" d="M114.9 208.6l11.7 8.5 1.9-20.3-103.2 19.6z"/><path fill="#e0871d" d="M100 142l9-18-35 17z"/><path fill="#e59225" d="M49 152l-38 5v-42z"/><circle r="1" fill="#aa5816" transform="matrix(-.0192 -.99982 49.69172 -.95413 72 218)"/><path fill="#d77416" d="M11 160h23v11H11z"/><path fill="#c35d0c" d="M11.4 182.4L-6.2 186l-5.2-24.5L6.2 158z"/><path fill="#eb9d32" d="M124 109h8v44h-8z"/><path fill="#e3871b" d="M118 141l20-5 16 6z"/><path fill="#daaa55" d="M6.3 16.4l15.6-28.8-22 13.7 23.4 23.2z"/><path fill="#dc8522" d="M148 152h22v13h-22z"/><path fill="#b37532" d="M17 230l6-11 5 29z"/><path fill="#ea9d35" d="M36 144h51v6H36z"/><path fill="#8d5629" d="M146 271l10-43-13 15z"/><path fill="#eeaa3f" d="M160 79l-13-7 35-8z"/><path fill="#94511f" d="M0 242h39v3H0z"/><ellipse cx="125" cy="208" fill="#e8891f" rx="7" ry="2"/><circle r="1" fill="#bd560b" transform="matrix(6.12376 1.58371 -4.00503 15.48632 111.2 185.2)"/><path fill="#d97b15" d="M96 98h25v4H96z"/><circle r="1" fill="#ebc87d" transform="matrix(-.09612 -6.11884 27.55732 -.4329 155.6 .4)"/><path fill="#da7b1c" d="M47 157h35v12H47z"/><path fill="#a2642d" d="M125.4 246.8l29.3-22.5-44.1 15.8-4.4 6.5z"/><path fill="#e08e26" d="M46 125h18v21H46z"/><path fill="#ea9a2e" d="M45 65h59v5H45z"/><path fill="#e8c170" d="M127.3 28.2l12.3 14.9L139 20l-15.4 1.8z"/><path fill="#d0680d" d="M26.1 169.7l65.5 7.2 14 34.5-4.4-42z"/><path fill="#e19833" d="M26 84l27-7 16 11z"/><path fill="#dbaa54" d="M136.7 46.2L128 30.1l-5.9-5-19 16.5z"/><circle cx="104" cy="255" r="6" fill="#7a4928"/><path fill="#e48a1d" d="M41 105h64v3H41z"/><path fill="#926239" d="M33 248h66v8H33z"/><path fill="#a9713a" d="M140.2 233.5l-3.3.7 1.6-6.7 18.4 7.6z"/></g></g></svg>