<svg xmlns="http://www.w3.org/2000/svg" viewBox="0 0 929 1400"><defs/><filter id="a"><feGaussianBlur stdDeviation="12"/></filter><rect width="100%" height="100%" fill="#964802"/><g filter="url(#a)"><g fill-opacity=".5" transform="translate(2.7 2.7) scale(5.46875)"><circle r="1" fill="#ffe067" transform="rotate(-96.2 88.2 10.1) scale(125.21977 169.00001)"/><circle r="1" fill="#fedb90" transform="matrix(.55577 38.97555 -168.98282 2.40958 71 26.4)"/><ellipse cx="90" cy="208" fill="#c85d16" rx="169" ry="59"/><ellipse cx="86" cy="111" fill="#fe9725" rx="169" ry="50"/><ellipse cx="124" cy="250" fill="#8d6b44" rx="169" ry="36"/><ellipse cx="110" cy="191" fill="#d66604" rx="160" ry="37"/><circle r="1" fill="#cb660f" transform="matrix(-.09917 -56.82243 9.29465 -.01622 112.6 146)"/><path fill="#e8ab4a" d="M29 103L-2 49l106 28z"/><circle r="1" fill="#efca7a" transform="matrix(-29.11422 -44.83197 18.40182 -11.95028 161.8 24)"/><circle r="1" fill="#d26a0c" transform="matrix(9.79438 62.61242 -17.7064 2.76979 0 157.2)"/><path fill="#9a622e" d="M224.7 209.9l1.5 42-236.9 8.2-1.5-42z"/><circle r="1" fill="#e3841c" transform="rotate(-110.3 150 35.3) scale(38.06214 23.45273)"/><path fill="#daa245" d="M88.1 36.9l38-2.7 1.8 27-38 2.6z"/><path fill="#f0a93d" d="M150 57h20v94h-20z"/><ellipse cx="150" cy="252" fill="#876042" rx="162" ry="7"/><ellipse cx="59" fill="#edc87a" rx="43" ry="17"/><path fill="#bd5408" d="M98 170h24v51H98z"/><ellipse cx="40" cy="225" fill="#c06f1d" rx="37" ry="6"/><path fill="#884b1e" d="M122 260l-3-32-59 2z"/><ellipse cx="14" cy="43" fill="#e1b55f" rx="96" ry="24"/><ellipse cx="54" cy="151" fill="#e48d23" rx="46" ry="19"/><circle r="1" fill="#e08923" transform="rotate(-76.9 121.9 -14.8) scale(48.9913 13.89395)"/><path fill="#df871d" d="M0 89h18v69H0z"/><circle r="1" fill="#ecc575" transform="matrix(-24.96608 3.393 -.81125 -5.96928 78.3 35)"/><ellipse cx="160" cy="224" fill="#b36f2b" rx="28" ry="14"/><path fill="#ab733d" d="M22 244h78v5H22z"/><circle r="1" fill="#da7312" transform="matrix(26.03843 -20.43623 12.03183 15.33013 52.4 187)"/><ellipse cy="15" fill="#ddac55" rx="19" ry="53"/><ellipse cx="148" cy="48" fill="#e7b75f" rx="25" ry="14"/><path fill="#ec9f33" d="M123 61h47v29h-47z"/><circle r="1" fill="#e9a036" transform="matrix(-11.834 3.67081 -7.40395 -23.86896 35.5 117)"/><path fill="#924b18" d="M-16 210.3v28.1l22.4 19.2 3.6-32.9z"/><path fill="#daa751" d="M106 9h19v51h-19z"/><path fill="#da7312" d="M124 153h31v61h-31z"/><ellipse cx="7" cy="183" fill="#cb620b" rx="18" ry="27"/><ellipse cx="166" cy="8" fill="#ecca7c" rx="12" ry="43"/><path fill="#df8722" d="M146.4 158.8l-25.9 5.9 64.5 2.6-12.4-19.1z"/><path fill="#e69d37" d="M107.2 63L96.6 99.7l-84.3 1.5L67.9 63z"/><ellipse cx="93" cy="194" fill="#d4690c" rx="12" ry="23"/><path fill="#e9ba66" d="M18 53h87v10H18z"/><path fill="#ac5f1a" d="M59 216h79v14H59z"/><ellipse cx="5" cy="70" fill="#dc831a" rx="14" ry="4"/><path fill="#bb7227" d="M18.2 233.8l87.8-14.6-84 6.4-7.1 7.6z"/><path fill="#a06e40" d="M184.4 237.6l-18.7 44.2-22.1-9.4 18.7-44.2z"/><path fill="#a67a4a" d="M20 246h11v10H20z"/><path fill="#875731" d="M71 271l33-28h60z"/><path fill="#e6bc69" d="M96 22h53v10H96z"/><path fill="#d9791b" d="M14 158h83v11H14z"/><path fill="#e08820" d="M129.6 90.8l-7.2 32.1 6.6 36.3-49.3-16.4z"/><path fill="#ddab51" d="M107 36.7l15.9-11.1 14.4 20.7-98.7 2.8z"/><path fill="#86481c" d="M81 231h31v9H81z"/><ellipse cx="39" cy="125" fill="#e79e35" rx="34" ry="8"/><path fill="#ea9b31" d="M82 139l-44 8 55 6z"/><circle r="1" fill="#e7bd6a" transform="rotate(-86.3 16.5 -4.4) scale(3.95702 77.56713)"/><path fill="#e1b25d" d="M40 57h52v7H40z"/><path fill="#e6ba65" d="M37.8 40.2L12 66.2l45.3-.4-70.6-36.7z"/><path fill="#e49227" d="M149 135l36 4-21-17z"/><path fill="#e07e18" d="M-7 209l23 9v-8z"/><path fill="#c85c05" d="M77 205l-1 11-19-7z"/><circle r="1" fill="#a3642b" transform="rotate(162.7 53.3 128.1) scale(32.7266 7.83645)"/><ellipse cx="39" cy="207" fill="#e9881e" rx="17" ry="2"/><path fill="#e3b158" d="M140 58V16h8v42z"/><path fill="#dcad58" d="M45.5 32.7L14.6 24l42.1-2.5-.3 33.3z"/><path fill="#a75915" d="M15.8 216.6l-.2-2.5.6 18.6-32.2.9z"/><path fill="#d46c0f" d="M118 168h33v39h-33z"/><path fill="#eca741" d="M118 120h39v3h-39z"/><path fill="#dd902e" d="M125.6 64.9L108 57.6l-8.1 29.7 25.6-4.4z"/><path fill="#efae49" d="M60 76h40v4H60z"/><path fill="#e89425" d="M127.2 103.2l14.1 15.6 14.4-17.8-13.4-39.3z"/><circle cx="2" cy="59" r="9" fill="#dca446"/><path fill="#de811c" d="M121 157h14v14h-14z"/><circle r="1" fill="#db801a" transform="matrix(15.98679 4.0156 -1.60875 6.4047 0 94.6)"/><path fill="#c05a0f" d="M107 154h10v46h-10z"/><path fill="#eac575" d="M138 37l-17-17h20z"/><path fill="#e89427" d="M93 137l12-39-76 1z"/><path fill="#d0680f" d="M60 169h15v36H60z"/><path fill="#a25719" d="M102 215h21v14h-21z"/><path fill="#e9be69" d="M149 34h21v26h-21z"/><path fill="#d67414" d="M62 164l-3 49-48-46z"/><ellipse cx="78" cy="69" fill="#e9992e" rx="41" ry="5"/><ellipse cx="26" cy="217" fill="#b96416" rx="62" ry="3"/><path fill="#975924" d="M62.4 235l4.9 12.5 15.1-18.3-49.2 5.5z"/><path fill="#dd7412" d="M76 170h9v39h-9z"/><path fill="#eaaa46" d="M56 70l-36 3 2 11z"/><path fill="#e3b55f" d="M107 7l-43 6 34 14z"/><ellipse cx="160" cy="216" fill="#bd7127" rx="39" ry="2"/><circle r="1" fill="#d98020" transform="rotate(-172.7 61 55.6) scale(5.08486 31.32821)"/><path fill="#a8713b" d="M149 226l-20 6 19 2z"/><path fill="#ebc87d" d="M185 9.5l-15.2-16L86.4-16 135 4.8z"/><ellipse cx="106" cy="140" fill="#df841b" rx="48" ry="2"/><circle r="1" fill="#e7be6c" transform="matrix(-.10432 -4.98 30.8679 -.6466 88 30.3)"/><ellipse cx="77" cy="243" fill="#a9692f" rx="22" ry="3"/><path fill="#eb9e32" d="M125.9 137.5l3.4-42.7 3.9 58-9.1-.7z"/><path fill="#de8d26" d="M-.4 87.3l14 38.6-13.2 4.8-14-38.6z"/><path fill="#e89324" d="M10 150h72v7H10z"/><path fill="#84502a" d="M14.4 254.6l-15.8-2.2 1-7 15.8 2.2z"/><path fill="#dd821d" d="M185 144.4l-37.3 16.5 9.5 21.3-18.3 1.4z"/><path fill="#c65f0d" d="M14 179l-30 18.5v-70.6z"/><path fill="#7c4c2a" d="M114.5 271l-19.7-6.1 7.3-18.4 6 3.3z"/><path fill="#edc675" d="M33.5 39.9v-3l43-.8v3z"/></g></g></svg>