<svg xmlns="http://www.w3.org/2000/svg" viewBox="0 0 805 1400"><defs/><filter id="a"><feGaussianBlur stdDeviation="12"/></filter><rect width="100%" height="100%" fill="#940415"/><g filter="url(#a)"><g fill-opacity=".5" transform="translate(2.7 2.7) scale(5.46875)"><path fill="#af0114" d="M-16 173L144-16l9 287z"/><path fill="#6a000c" d="M34-3L22 76l92-44z"/><ellipse cy="109" fill="#c60516" rx="29" ry="41"/><circle r="1" fill="#d30f1a" transform="matrix(4.74462 10.45914 -25.45596 11.54769 111.2 56.7)"/><ellipse cx="10" cy="189" fill="#d20919" rx="13" ry="21"/><circle r="1" fill="#6c000d" transform="rotate(-134.9 48.4 116.6) scale(18.72978 25.61553)"/><path fill="#8a0113" d="M73 109l-53 23 6 84z"/><path fill="#be0819" d="M132.8 58.5L106 56.2l7.3-82.7 26.9 2.3z"/><circle r="1" fill="#66010d" transform="rotate(-34 92 -113.2) scale(32.24012 11.29397)"/><path fill="#7e010f" d="M43.4 90.7l17.4.9-12.4 27-41.6-28z"/><path fill="#a20114" d="M51-16l41 30-39 18z"/><path fill="#71020f" d="M121.5 160.6l39.7-50-28.7 52.9-4.5-.8z"/><ellipse cx="7" cy="41" fill="#79000f" rx="9" ry="32"/><path fill="#a80015" d="M84.5 104.7l-6.7-41.2L31.2 41l.2 11.1z"/><path fill="#800211" d="M102.8 132l9-35.9 15.4 3.9-9 35.9z"/><circle r="1" fill="#9c0115" transform="rotate(54 -178.3 183.4) scale(90.53931 31.47583)"/><path fill="#cf0816" d="M16 108h16v24H16z"/><path fill="#c90d18" d="M38.6 94.8L12.9 80.1l20.2 3.3 13.6-3.7z"/><path fill="#5d000e" d="M132 43l14-28-5 27z"/><path fill="#520009" d="M20 199h7v17h-7z"/><path fill="#c20816" d="M138.1 172.1l-20.8-3.4 39.3-15.3-23.7 52.2z"/><path fill="#51010b" d="M100 106h17v4h-17z"/><path fill="#65010e" d="M57 56L21-13l21-3z"/><path fill="#77020f" d="M66 197l10 20-21 9z"/><path fill="#6e020e" d="M21.2 132.4l26.7-4.3-41.6 20.6 21.9-3.3z"/><path fill="#7c0110" d="M33 78l80-74-13 39z"/><path fill="#64010d" d="M74 98l-2 16-8-17z"/><path fill="#66000d" d="M26 68l21 15-23-46z"/><path fill="#c80c18" d="M131 194l14 25 17-18z"/><path fill="#b10616" d="M86.2 59l32.4-13.4-27.2-19.4 1 21.2z"/><circle r="1" fill="#ba0718" transform="matrix(3.6624 7.4759 -20.9368 10.25683 4.6 82.7)"/><path fill="#b60115" d="M97.5 83.1l67-16.7 4 16.5-67 16.7z"/><path fill="#bc0718" d="M25 188l-41-83L1 212z"/><path fill="#820111" d="M144 50l-11 19-18-6z"/><path fill="#6f000d" d="M83 3.5l37.5 7.1-18.1 4.6 4.9-31.2z"/><path fill="#c30817" d="M130 35l32-51h-21z"/><path fill="#75030f" d="M18 159l11 33 1-28z"/><path fill="#820212" d="M162 188.4l-40.6.7 7.3-16 22.6 27.5z"/><path fill="#77020f" d="M21.4 105L9.7 95.6l7-8.6 11.6 9.4z"/><circle r="1" fill="#73010f" transform="matrix(12.46725 10.99136 -1.60285 1.81807 146 226.6)"/><path fill="#810211" d="M78.4 68l15 9.2 33.6-1.1-23.7-3.3z"/><path fill="#6d010f" d="M75.7 16.7l12.5 51.9-2.3-3L56 43z"/><path fill="#9f0116" d="M32 256l61-103-63-18z"/><path fill="#72030f" d="M104 151l25 7-11-9z"/><path fill="#6a000c" d="M46 249h14v7H46z"/><path fill="#5e020b" d="M33 120h5v14h-5z"/><path fill="#9a0015" d="M30.3 40l13.6-.8L16.7-3l3.7 49.5z"/><path fill="#d10714" d="M60.3 114l-5.8-1.4 3.2-12.6 5.8 1.4z"/><path fill="#ba0516" d="M115.1 115.5L97.6 123l-2.7-6.4 17.5-7.4z"/><path fill="#a90117" d="M102 149l26 51-64 17z"/><path fill="#c70d19" d="M8 173l14-8-3 30z"/><circle r="1" fill="#b10116" transform="rotate(5 -1607.3 1112.4) scale(26.51683 6.69339)"/><path fill="#71020f" d="M83 183l-13-1 11-8z"/><circle r="1" fill="#9b0114" transform="matrix(58.15431 -15.67188 1.06407 3.94847 9.9 226.7)"/><path fill="#a60116" d="M49.1 193.5l14.7 66.4L99 234.2l-61.9-10z"/><path fill="#d7131b" d="M120-14l-9 22-9-24z"/><path fill="#79020f" d="M72.9 110.9l-.1 2.6-15 10.8-20.6 4.4z"/><path fill="#ac0216" d="M59.1 84.6l5.2-32.8 16.2 18-6.6 37.2z"/><ellipse cx="102" cy="15" fill="#75020f" rx="5" ry="27"/><path fill="#c90c18" d="M83 56l16 15 38-19z"/><path fill="#c10314" d="M26 117h29v4H26z"/><path fill="#a70016" d="M19 55l3 14-18-6z"/><path fill="#a80017" d="M-16 160l26.9 44.6.7-29.9 9.1-3.8z"/><path fill="#75030f" d="M19 141l-9 3-2 12z"/><path fill="#6e010f" d="M141 129h6v15h-6z"/><path fill="#720510" d="M22 142l-4.5-10 4.5-2 4.5 10z"/><path fill="#6a000e" d="M142 14h5v10h-5z"/><path fill="#6b010f" d="M10.7 247l12.6-21.4-39.1 23.1-.2 2.2z"/><path fill="#ae0416" d="M41 86l-3 18h-7z"/><path fill="#c90d19" d="M-3 151l-4-11 33-5z"/><path fill="#bc0817" d="M7.8 96.7l16.7-18.8L-11 97l55.6 23.8z"/><path fill="#73020f" d="M20 194h8v24h-8z"/><path fill="#8b0112" d="M134.2 106.2l27.8 13.7-35.6-27.2-24.7 13.4z"/><path fill="#ac0117" d="M127 103h12v43h-12z"/><path fill="#b10217" d="M68 183l-16 20-25-4z"/><path fill="#a00215" d="M43 46l10 1-7 36z"/><path fill="#5a020c" d="M124 159l17.8-2 .3 2-18 2z"/><path fill="#5d010b" d="M67.3 35.5L58.1 20l2.6-1.6L69.9 34z"/><path fill="#7b0210" d="M51.3 31.8l-12 47.9-6.7-41-12.3 55z"/><path fill="#5b010b" d="M53 64h10v4H53z"/><path fill="#69010e" d="M106 18v12H88V18z"/><path fill="#980213" d="M41.4 26.9l27.9-.7L25.4-16l76.7 32.4z"/><path fill="#8f0213" d="M63.6 224.9l9.5-16.8 39.3 50.4-12.5-39.3z"/><path fill="#64010b" d="M1 68.5v-1l28 2v1z"/><path fill="#c70816" d="M11 205h8v8h-8z"/><path fill="#bf0716" d="M118.2 165.6l-3.8-23 7.6 20 40 20.6z"/><path fill="#52010d" d="M38 114h5v3h-5z"/><path fill="#cd141c" d="M27 183l-5 15-4-15z"/><circle cx="40" cy="25" r="8" fill="#64010d"/><path fill="#a60116" d="M108 110l-19 41-63-11z"/><path fill="#a60016" d="M129.5 37.7l5.2-49.3-14.6 60.2 22.5.8z"/><path fill="#c00816" d="M141.2 4.3l16.4 23.3-15.7 20.7L154.5-12z"/><path fill="#62010b" d="M40 92l2.5-1.5L48 100l-2.5 1.5z"/><ellipse cx="114" cy="164" fill="#770310" rx="3" ry="6"/><path fill="#6a010d" d="M-4.3 219.4l3.5-7.2 17 8.4-3.4 7.2z"/><path fill="#860011" d="M40-16H3.4L39 8l-51.3-3.3z"/><path fill="#6b010e" d="M12.2 33.7L-.5 15.6l8.1 8-23.6-1.5z"/><path fill="#bd0b17" d="M14.7 69.1l.8 12.4L45.9 84l-19.1 8.7z"/><path fill="#7f0212" d="M142.1 202.3l4.3-23.6 15.6 8.5-6.3-10.9z"/><circle r="1" fill="#c30f1a" transform="rotate(-58.4 75.7 -91.7) scale(9.11362 3.85107)"/></g></g></svg>