<svg xmlns="http://www.w3.org/2000/svg" viewBox="0 0 805 1400"><defs/><filter id="a"><feGaussianBlur stdDeviation="12"/></filter><rect width="100%" height="100%" fill="#964802"/><g filter="url(#a)"><g fill-opacity=".5" transform="translate(2.7 2.7) scale(5.46875)"><circle r="1" fill="#ffdf66" transform="matrix(-144.08093 23.59416 -19.947 -121.80904 76.2 100.6)"/><circle r="1" fill="#fed88c" transform="matrix(145.9547 -3.63632 1.12114 45.00059 54.4 20.7)"/><circle r="1" fill="#da5500" transform="matrix(2.52916 40.62237 -143.53376 8.93644 65.2 192)"/><circle r="1" fill="#a1744a" transform="matrix(145.6829 -9.61727 2.26025 34.23837 62.6 251.4)"/><circle r="1" fill="#fe9826" transform="matrix(-145.56587 11.2507 -3.8372 -49.6472 75 110)"/><ellipse cx="88" cy="198" fill="#cd660c" rx="146" ry="30"/><ellipse cx="101" cy="154" fill="#c8630e" rx="10" ry="70"/><circle r="1" fill="#eaa741" transform="matrix(1.85108 -17.0376 49.71785 5.40167 41.9 81.3)"/><ellipse cx="86" cy="223" fill="#a66422" rx="106" ry="6"/><path fill="#e0ab50" d="M162 64L41 47l72-21z"/><circle r="1" fill="#ecca7d" transform="matrix(39.19927 -5.66379 1.92823 13.34533 49.5 0)"/><ellipse cx="146" cy="8" fill="#ebc370" rx="30" ry="52"/><circle r="1" fill="#e18d25" transform="rotate(-167.5 54.7 45.2) scale(18.63889 48.75741)"/><ellipse cx="89" cy="255" fill="#8f6544" rx="120" ry="8"/><ellipse cx="140" cy="183" fill="#de7a16" rx="28" ry="34"/><path fill="#84491f" d="M99 230l29 41-63-33z"/><path fill="#bb530b" d="M92 227l24-51-23-6z"/><circle r="1" fill="#d97414" transform="matrix(-55.32662 17.87001 -8.51556 -26.3647 24.8 189.5)"/><path fill="#eac675" d="M47 42l1-19 58 2z"/><path fill="#b4702e" d="M158.2 204.7l3.8 10.4-31.3 30.2-11.8-16.3z"/><path fill="#c27a28" d="M-17.6 232.9l62.5-7.7.7 6-62.5 7.6z"/><ellipse cx="8" cy="147" fill="#e48d22" rx="105" ry="13"/><ellipse cx="146" cy="109" fill="#eda437" rx="10" ry="54"/><path fill="#d5a148" d="M95 33h18v28H95z"/><path fill="#ab7139" d="M2 247h69v6H2z"/><path fill="#eaa23a" d="M10 65h24v69H10z"/><path fill="#a55718" d="M85 217h30v16H85z"/><path fill="#e7b65c" d="M116 34h31v26h-31z"/><path fill="#dc801e" d="M9 157h77v12H9z"/><path fill="#e59830" d="M79.3 99.8l8-24-88.8-10.1L162 58.3z"/><path fill="#cb6209" d="M15.3 200.1l-5.6-26.2L-16 165v61.8z"/><path fill="#dc8521" d="M99 62h14v91H99z"/><path fill="#e8972a" d="M110 70h31v85h-31z"/><ellipse cx="70" cy="76" fill="#edac49" rx="27" ry="3"/><ellipse cx="146" cy="255" fill="#855733" rx="64" ry="8"/><circle r="1" fill="#d1670c" transform="matrix(.39286 22.5071 -7.19191 .12554 130.7 189)"/><ellipse cx="21" cy="22" fill="#d7aa53" rx="33" ry="3"/><path fill="#dbaa55" d="M111.6 34.7l4-28.6-29.3 2.6 10.4 5.1z"/><path fill="#de821c" d="M74 140l49 23-29-45z"/><path fill="#eabe68" d="M73.5 58.8L50.8 46.7 2 67.2l3.8-18.5z"/><path fill="#e89930" d="M24 144h56v12H24z"/><path fill="#e89527" d="M-16 118l107-1-38-28z"/><path fill="#a8682e" d="M41 246h81v4H41z"/><path fill="#df801a" d="M144 215l18-63-23 2z"/><path fill="#e2851d" d="M16 204h23v7H16z"/><path fill="#9e6430" d="M-3 233l40 1-53 27z"/><path fill="#894c1f" d="M87.1 230.3l-38.7 13 60.4-12.1-15.4 29.3z"/><path fill="#e9aa49" d="M30.4 80L7.7 84l-2-12 22.6-4z"/><path fill="#ae631d" d="M43 220h94v12H43z"/><path fill="#e2b35c" d="M41 39h45v23H41z"/><path fill="#cf650c" d="M51 198h66v19H51z"/><path fill="#e58c1f" d="M64 99h79v9H64z"/><ellipse cx="55" cy="53" fill="#ecbf6a" rx="42" ry="3"/><circle r="1" fill="#e38a1e" transform="rotate(-94.5 54 58.4) scale(41.13869 4.86292)"/><path fill="#9b7049" d="M4 252h37v4H4z"/><path fill="#eba845" d="M113 120h34v3h-34z"/><path fill="#ebc577" d="M92.4 5.6L89.6-16 21.9 7.2l65.7-1.8z"/><path fill="#f2cf80" d="M118.6 3.3l-.1-6 39-.6v6z"/><path fill="#b97026" d="M115 215h32v6h-32z"/><path fill="#d57214" d="M105.4 159.9L85.2 150l-19.3 73.2 41.1-98.4z"/><path fill="#bb5407" d="M117.2 215l-1.3 3.8-17-5.8 1.2-3.8z"/><ellipse cx="131" cy="211" fill="#e17c16" rx="22" ry="3"/><path fill="#e2b057" d="M130 20h8v39h-8z"/><path fill="#e9c372" d="M135 25.5l12 9.8 3.5-21.5-54.2 9.9z"/><path fill="#e99e33" d="M117 60l45-3-51 36z"/><path fill="#e5bd6c" d="M13 38l11-54L4-7z"/><ellipse cx="133" cy="235" fill="#a46e3c" rx="8" ry="6"/><path fill="#cd620b" d="M85 169h8v50h-8z"/><path fill="#edca7b" d="M68.4 32.5v1l-44.8 4v-1z"/><path fill="#da7414" d="M75.6 207.8l26.7.6L64.8 198l-.9 11.4z"/><path fill="#e8a037" d="M45 133l-55-13 62-5z"/><path fill="#d97a16" d="M37.8 206.5l-22.1-22.1-2.1-3.9 31.1-2.6z"/><path fill="#deaa51" d="M92.2 55.2l32.5-31.3-17.8 36.4-33.8 1.6z"/><path fill="#dca94e" d="M112.1 30.9L42 46l1.7-7 71.6 7.4z"/><path fill="#de8219" d="M59 140h84v3H59z"/><path fill="#9b4d13" d="M88 218h23v4H88z"/><path fill="#e0b056" d="M7.8 49.9L1.1 69.5-16-2.9l26.2 22.3z"/><ellipse cx="86" cy="65" fill="#e8982e" rx="42" ry="4"/><ellipse cx="44" cy="224" fill="#b36d26" rx="51" ry="2"/><path fill="#f19b2e" d="M0 65h17v6H0z"/><ellipse cx="123" cy="53" fill="#ecc170" rx="6" ry="5"/><path fill="#b47c44" d="M69.3 252.5L59 246l1.6-2.6L71 250z"/><path fill="#e88a21" d="M0 209h30v2H0z"/><ellipse cx="25" cy="95" fill="#dd9836" rx="22" ry="5"/><circle r="1" fill="#e58118" transform="matrix(2.64976 2.06705 -2.84239 3.64367 0 215.8)"/><circle r="1" fill="#905526" transform="rotate(95.7 -78.9 145.1) scale(4.40649 12.16175)"/><path fill="#bc8139" d="M8 225v18l4-12z"/><path fill="#e4ba67" d="M113.9 26.3L89.7 15.6 34.1.3l49.1 37z"/><path fill="#aa5a15" d="M39 219h53v3H39z"/><path fill="#d37817" d="M87 133.9l10-3.5 6.7-5.2 12 7z"/><ellipse cx="41" cy="152" fill="#e48c21" rx="74" ry="3"/><path fill="#925322" d="M0 246h25v3H0z"/><path fill="#8f5f39" d="M41 251h48v5H41z"/><path fill="#e18620" d="M113 162h34v4h-34z"/><path fill="#ea9e38" d="M113 144h34v7h-34z"/><path fill="#e59429" d="M41 134h106v4H41z"/><path fill="#cc771e" d="M10 218h34v2H10z"/><circle r="1" fill="#e09530" transform="matrix(.7013 2.48404 -26.83708 7.57676 97.4 78.3)"/><path fill="#bd580d" d="M104.8 199.3l-2.6 6.9-9.9-1.1 13.6-46.7z"/><path fill="#cfa255" d="M101 28h13v7h-13z"/></g></g></svg>