<svg xmlns="http://www.w3.org/2000/svg" viewBox="0 0 1400 1050"><defs/><filter id="a"><feGaussianBlur stdDeviation="12"/></filter><rect width="100%" height="100%" fill="#3f424d"/><g filter="url(#a)"><g fill-opacity=".5" transform="translate(2.7 2.7) scale(5.46875)"><circle r="1" fill="#ffffd8" transform="matrix(-225.89214 -54.51782 36.17302 -149.8813 168 107.2)"/><circle r="1" fill="#6f2910" transform="rotate(34.4 -182.2 204.3) scale(75.06244 50.97042)"/><circle r="1" fill="#f4dac0" transform="rotate(-3.9 2265.7 -2955.7) scale(52.83635 93.13258)"/><circle r="1" fill="#fff" transform="matrix(20.42354 -5.0165 11.49006 46.77913 4.2 43.3)"/><ellipse cx="109" cy="49" fill="#f5f2f3" rx="45" ry="37"/><circle r="1" fill="#000012" transform="rotate(-99.7 128.8 21.7) scale(21.25476 28.40401)"/><circle r="1" fill="#fffff6" transform="matrix(2.98022 -31.83072 48.41961 4.5334 204.2 .8)"/><path fill="#f3ffff" d="M99 114h76v18H99z"/><path fill="#574941" d="M155.3 98.3l1.4-81 24 .4-1.4 81z"/><path fill="#fff" d="M28.7 82.9l-46.4 7.3-11-69 46.4-7.4z"/><path fill="#b64c2b" d="M61.2 150.5l-20-27.5 73.6-53.5 20 27.5z"/><circle r="1" fill="#4a2f29" transform="matrix(31.49716 24.53117 -7.71361 9.904 24 115.5)"/><path fill="#7e7c6c" d="M200 31h30v78h-30z"/><path fill="#fff" d="M71 43h27v40H71z"/><path fill="#ebe3d2" d="M229 41h27v138h-27z"/><ellipse cx="41" cy="191" fill="#b1855d" rx="138" ry="25"/><path fill="#feffff" d="M106 78l45-25v34z"/><path fill="#394855" d="M206.6 139.4l-22-13.8 6.8-11 22 13.8z"/><circle r="1" fill="#8c8781" transform="matrix(9.38273 -1.43555 7.19962 47.05673 107.9 46)"/><path fill="#fff" d="M182 43h13v41h-13z"/><path fill="#ebe1cc" d="M127 5h129v19H127z"/><ellipse cx="97" cy="133" fill="#dbfaf1" rx="11" ry="6"/><ellipse cx="177" cy="190" fill="#d8ae84" rx="63" ry="24"/><circle cx="202" cy="51" r="7" fill="#000004"/><path fill="#040000" d="M218 106l4-7-24 1z"/><ellipse cx="3" cy="51" fill="#fff" rx="19" ry="41"/><circle r="1" fill="#f6e7c6" transform="matrix(5.4562 8.52902 -18.29778 11.7055 203.5 85.6)"/><circle r="1" fill="#c4b7bb" transform="matrix(1.75332 -23.87564 13.02175 .95626 9.6 139.7)"/><ellipse cx="31" cy="4" fill="#c6cacf" rx="92" ry="5"/><path fill="#c85128" d="M145.5 91.5l-30.9 3.8-64.3 24.8 97.8-16.2z"/><circle r="1" fill="#967454" transform="rotate(-137.1 63.1 85.4) scale(32.21398 69.02883)"/><ellipse cx="233" cy="58" fill="#fbfff5" rx="5" ry="36"/><circle r="1" fill="#fffde2" transform="matrix(-27.8254 10.50423 -3.18346 -8.43288 222 22.2)"/><path fill="#8fc5c7" d="M81 90h21v10H81z"/><circle cx="123" cy="152" r="22" fill="#0d2125"/><path fill="#68220e" d="M68 82.6l-52.2 17-2.2 7.5 28.5 2.6z"/><ellipse cx="245" cy="32" fill="#6b582e" rx="8" ry="12"/><path fill="#a9b8b5" d="M20 112h27v8H20z"/><path fill="#d0e2de" d="M119 111h64v19h-64z"/><path fill="#f1cfa8" d="M271 200l-38-71-79 16z"/><path fill="#fff" d="M83 46h15v39H83z"/><path fill="#0e2c3c" d="M225 63h6v15h-6z"/><path fill="#c3f1ff" d="M229 128l-1-17-44-6z"/><ellipse cx="66" cy="50" fill="#89847d" rx="5" ry="39"/><path fill="#e6efef" d="M192.4 129.9l-11.6 10.6-1.9 2.8-52-16.2z"/><path fill="#f3f8ef" d="M196.4 76.8L171 77.9l9.2-11.1 2.9-37.5z"/><path fill="#5d5b4b" d="M247 104l4-19 20 9z"/><path fill="#cfc7be" d="M76 18l91-20-13 33z"/><path fill="#130000" d="M111 69l-5-9h9z"/><path fill="#341408" d="M46 143l-29-19 26-7z"/><path fill="#701f0a" d="M79.1 69.2l2.5 21.5-21.2.3 15.7 25z"/><path fill="#4d473b" d="M157 22h17v41h-17z"/><path fill="#c0b99a" d="M195.7 51.6l-17.8 2.5-11-3.6 30.2-13.2z"/><ellipse cx="241" cy="54" fill="#697169" rx="2" ry="35"/><path fill="#7f98ae" d="M209.4 137.1l-19.5-25.9 34.1 13-5 8.7z"/><path fill="#848b8d" d="M51 67l26 16-91 16z"/><path fill="#8a3820" d="M112.5 82.2l-22.2 2.4 32.6 18.3-9.3-11.8z"/><path fill="#d0a681" d="M197.2 180.2l-18.5-37.5-24.8 7.1 4.1 25.1z"/><ellipse cx="136" cy="66" fill="#eef2ec" rx="14" ry="23"/><path fill="#90a27f" d="M142 30h13v25h-13z"/><circle r="1" fill="#38424a" transform="matrix(-1.29179 13.04717 -19.49151 -1.92983 135.6 142.7)"/><path fill="#60594d" d="M78.4 20.8l25.6 4.5-.4 2L78 22.6z"/><path fill="#bbb7a2" d="M271-.9l-76.9 20.1 7.9 20.4-48-24.4z"/><path fill="#dc6034" d="M116 97l-23 30-45 5z"/><path fill="#9a9a93" d="M166 77h21v17h-21z"/><circle r="1" fill="#f8ffff" transform="matrix(-1.60658 -.14904 1.945 -20.96638 244 65.3)"/><path fill="#ccb7a5" d="M168 18h1l-1 58h-1z"/><circle r="1" fill="#80807a" transform="matrix(49.7676 9.76402 -.62441 3.18266 20.3 11.3)"/><circle r="1" fill="#b8a89b" transform="matrix(-29.73794 -8.54551 5.5218 -19.2156 7.4 153.9)"/><path fill="#928067" d="M197 56h3v53h-3z"/><path fill="#a8b39f" d="M51 102l24 4-24-14z"/><path fill="#fffff6" d="M188.5 100.8l18.9-16.9-10.9 1.9-9.4-28.1z"/><circle r="1" fill="#bcbcb4" transform="matrix(1.1566 -2.88274 54.16832 21.7331 163.5 99.6)"/><path fill="#98401f" d="M48 107h28v33H48z"/><path fill="#fdffff" d="M73 24h9v41h-9z"/><path fill="#bab7b0" d="M39 32h26v30H39z"/><circle r="1" fill="#bcc0b6" transform="matrix(11.24142 -14.11803 6.14465 4.89265 106.5 126)"/><circle r="1" fill="#fff" transform="matrix(-9.56398 4.53691 -9.63859 -20.31852 13.2 65)"/><path fill="#6e6b64" d="M191.2 137.9l7.2-.1 9.1-15.1-19.8-12.2z"/><path fill="#343c3e" d="M239 65h2v20h-2z"/><circle r="1" fill="#e9deca" transform="matrix(40.43971 -23.22321 10.8027 18.81128 255 129.7)"/><path fill="#b1b6a9" d="M119.6 118.3l39.8 14.8-26.5-29.3 39.2-7.8z"/><path fill="#080b0a" d="M170 32h12v5h-12z"/><circle r="1" fill="#918e8c" transform="matrix(-1.12358 21.39941 -10.9053 -.57258 31.4 32.2)"/><ellipse cx="254" cy="67" fill="#9ba4a0" rx="9" ry="28"/><ellipse cx="206" cy="74" fill="#ffffd3" rx="16" ry="3"/><circle r="1" fill="#947356" transform="rotate(-119.9 80.4 65.5) scale(26.41914 44.56237)"/><path d="M208 106l5 1 1-5z"/><path fill="#6a6351" d="M165 105l12-19v16z"/><path fill="#faffff" d="M241.3 85.9l10.2 9.2-9.4 2.7-7.3-1.2z"/><path fill="#c1c5c6" d="M-6.1-4.6v8l78 13.2 15.7-6.3z"/><ellipse cx="175" cy="65" fill="#cec9be" rx="2" ry="25"/><circle r="1" fill="#191917" transform="matrix(-23.26002 3.41638 -1.19837 -8.159 120 157.2)"/><ellipse cx="165" cy="95" fill="#0b0000" rx="5" ry="2"/><path fill="#504638" d="M-.6 119.5l-8.5-15.9 9.7-5.1 8.5 15.9z"/><circle r="1" fill="#fff" transform="rotate(-81.8 27.5 20) scale(34.25919 15.16825)"/><path fill="#dde3d7" d="M224.1 108.9l15.6-68.2-18 22.4 15.1-45.6z"/><path fill="#282825" d="M222 70h5v10h-5z"/><path fill="#feffff" d="M77 42.2l-5 18.6L100.1 84l-4.2-42.2z"/><circle r="1" fill="#574f34" transform="matrix(-.58003 -3.70565 6.24918 -.97815 224 36.8)"/></g></g></svg>