<svg xmlns="http://www.w3.org/2000/svg" viewBox="0 0 1120 1400"><defs/><filter id="a"><feGaussianBlur stdDeviation="12"/></filter><rect width="100%" height="100%" fill="#7b5f48"/><g filter="url(#a)"><g fill-opacity=".5" transform="translate(2.7 2.7) scale(5.46875)"><circle r="1" fill="#e0ebe7" transform="rotate(78.7 -25.4 143.8) scale(140.26723 202.99999)"/><circle r="1" fill="#3b3c2d" transform="matrix(1.28336 -24.07852 75.39238 4.01834 91.7 115.2)"/><circle r="1" fill="#fff" transform="matrix(-74.03855 8.27196 -3.28002 -29.358 171.1 64)"/><circle r="1" fill="#831503" transform="rotate(89.8 -54.7 115.5) scale(13.50043 51.6124)"/><circle r="1" fill="#fff" transform="rotate(-82.3 164.5 -61) scale(39.48788 22.34279)"/><circle r="1" fill="#d1cdc9" transform="matrix(201.94846 -20.63542 4.17082 40.81768 138.7 229.9)"/><path d="M158.6 106.7l-.2-13 23-.4.2 13z"/><circle r="1" fill="#7f857b" transform="matrix(156.86138 -42.41749 9.05979 33.50342 101.7 0)"/><circle r="1" fill="#3b3d34" transform="matrix(-10.55366 -10.85256 26.77094 -26.0336 65.6 118.9)"/><path fill="#fff9e1" d="M219 76.6l-100 14-24.4 15.1-6.7-32.4z"/><circle r="1" transform="matrix(12.69305 1.09398 -.6375 7.3967 43 99.3)"/><circle r="1" fill="#c0b390" transform="matrix(31.36625 -1.10835 .85235 24.12148 100.2 137.7)"/><path d="M115 91h15v26h-15z"/><circle r="1" fill="#857d64" transform="matrix(25.58109 -19.85752 18.58923 23.94723 152.7 148)"/><circle r="1" fill="#73160d" transform="rotate(144.1 1 104.5) scale(8.43144 11.44257)"/><path fill="#e3d5ba" d="M-3 72.4l36.6 10.4L11 161.6l-36.6-10.4z"/><path fill="#bcb9a6" d="M123.6 12.1L21.4 140.9l72.2-61.8 84.8-50.4z"/><path fill="#fffff1" d="M158.6 60l-32.1 48.3 13.4-3.7 12.6-25.7z"/><path d="M88.1 90l9.8 23-12 5-9.8-23z"/><ellipse cx="198" cy="98" fill="ivory" rx="17" ry="50"/><path fill="#303329" d="M22 114h12v29H22z"/><path fill="#fffff3" d="M136 123l-32 17 23-2z"/><path fill="#00071b" d="M155.6 94.8l-2.3 15.9-10.9-1.5 2.3-15.9z"/><circle r="1" fill="#9c927b" transform="matrix(5.37791 -29.26485 56.07124 10.30404 45.3 37)"/><path fill="#bfb194" d="M32 106h16v53H32z"/><path fill="#2e3331" d="M117.3 91.9l20 2.7-24.2 24.8-21 25.2z"/><path d="M181 95l-20-2 8 14z"/><path fill="#4c4738" d="M173 116v21l22 21z"/><circle r="1" fill="#fbf4e0" transform="matrix(-2.26737 16.9058 -62.13648 -8.33362 184 78.1)"/><path d="M26 114h31v3H26z"/><circle r="1" fill="#666e6e" transform="matrix(-79.57837 1.66693 -.24474 -11.68389 102 0)"/><path fill="#914a3b" d="M65 189l-71-25 139-2z"/><circle r="1" fill="#bdbcb5" transform="rotate(48.5 -207.8 131.9) scale(33.09473 18.8625)"/><path fill="#ebd5b2" d="M55.8 151.1l41.7-37.4 4.7 5.2-41.7 37.4z"/><ellipse cx="127" cy="196" fill="#bab6b2" rx="51" ry="24"/><circle r="1" fill="#908d65" transform="matrix(6.03512 14.2466 -28.00654 11.8641 203 166.1)"/><path fill="#000003" d="M29.5 103.2l1.1-11 24 2.6-1.2 11z"/><circle r="1" fill="#8ca2af" transform="matrix(17.80326 23.03472 -19.5363 15.09937 188.3 11.3)"/><ellipse cx="196" cy="111" fill="#fffce4" rx="39" ry="4"/><path fill="#655c4a" d="M77.5 141.2l31.3 1.1 3.6-51.6-17.3 40.1z"/><path fill="#f4e9d5" d="M112 117.8l4.8-2.9v29.4l-5.2-9.4z"/><circle r="1" fill="#fffffa" transform="matrix(3.79688 .2824 -.20857 2.80415 130 105.9)"/><path d="M179 94l-23 14 26-4z"/><path fill="#515043" d="M62.2 113.8l-.2 30.3-24.8-5.1-23.1 10.4z"/><path fill="#d1c5af" d="M50 81l57-13-48 34z"/><path fill="#45473e" d="M152.4 94.3l-33 22.5 2.7-17.2-4.6 38.4z"/><path fill="#00131e" d="M88.8 89.5l-14.4 21.1-6.6 5.2 30.6-.7z"/><path fill="#ddcdb0" d="M18.3 163.1L119 139.9l-121.6 9.9-.3-155.6z"/><path d="M29 105h2v36h-2z"/><path fill="#716b5c" d="M165.4 156.6l34.7 36.5-24-26.4-94.4-22.3z"/><path fill="#955847" d="M63.6 152L-.5 167.3l73.2 29.5 12.2-38.2z"/><path fill="#d8d4c2" d="M97.1 101.4L85.3 80.6l64.6-51.3 60.3 5.2z"/><path fill="#d7c9b3" d="M160 111h5v31h-5z"/><path fill="#93876d" d="M15 66h4v72h-4z"/><path fill="#fdf1d9" d="M178 107h26v32h-26z"/><path fill="#fdf5e3" d="M134 100l10 3-8-37z"/><path d="M119.8 97.7l10.3-6.2 4.1 6.8-10.3 6.2z"/><path fill="#c3b7a0" d="M27.1 137.5h-3l.8-43h3z"/><path fill="#c3bc95" d="M219 174.7l-50.9-6.5 8.9-12.9 7.2-3.1z"/><circle r="1" fill="#646455" transform="matrix(2.39722 -3.51602 25.01758 17.05698 197.8 155)"/><path fill="#8c7c60" d="M60.3 141.6l12.2-45.4-19.2 13 22.5 32.4z"/><path d="M54 101.2l7 39.4-1 .2-7-39.4z"/><path fill="#121c21" d="M49 130v13l8 3z"/><path fill="#5c564b" d="M159 131l-2-18-33 27z"/><circle r="1" fill="#b8b2ad" transform="matrix(-2.9112 19.94473 -79.6043 -11.6193 162 199.5)"/><path fill="#83715d" d="M26.8 147.2l-33 14.4 23.6 5.7L-16 174z"/><path fill="#837662" d="M163 111l13 3 10 33z"/><path fill="#191e1e" d="M21 145.3l5.1-40.9-3.1 43.4 3.8-8.7z"/><path fill="#e8e4d5" d="M216.3 55.3l-53.2-18.6-9.1 70.2-.8-19.5z"/><ellipse cx="13" cy="20" fill="#645e4b" rx="2" ry="39"/><path fill="#d0c7b2" d="M92 119H79l5-4z"/><path fill="#bfb299" d="M14 91l-30-73 67 74z"/><path fill="#60533e" d="M155.1 174.8l-68.4-14.6.2-1 68.4 14.6z"/><path fill="#c7bca7" d="M139.7 145.1l6.5-4.5-30.6 1.9 35.5 10.1z"/><path fill="#fffeef" d="M176.3 88.8L196.7 76l17 27.1-20.4 12.7z"/><path fill="#f8eed5" d="M124 104l6 4 7-9z"/><path fill="#540000" d="M60 193h10v5H60z"/><path fill="#897f6a" d="M14 7h3v86h-3z"/><path fill="#bdb6a2" d="M31 105h23v9H31z"/><path fill="#000d18" d="M120 91l9 24-13-3z"/><path fill="#000d1c" d="M109 94h3v8h-3z"/><ellipse cx="101" cy="90" fill="#efe4d2" rx="8" ry="11"/><path fill="#424333" d="M156 160l11-2 2 8z"/><path fill="#071820" d="M145 95h5v17h-5z"/><path fill="#101c20" d="M88.8 119l6.1-13.7-.5-6.3L77 89.5z"/><path fill="#e6deca" d="M123.5 116.9l-9.1 6.6-3.6 16.8 4.9-24.3z"/><circle r="1" fill="#000002" transform="matrix(-3.42926 3.95228 -5.8767 -5.099 174 100)"/><path fill="#716044" d="M69.6 134.8l20.2-18.6 3.3 12.3-34.3-11z"/><circle r="1" fill="#c9c2b5" transform="rotate(92.5 -86.2 161.7) scale(31.33224 73.14907)"/><path fill="#736b5c" d="M136.9 147.7l19.7-3.1-12.1-7.7 24.8-12.1z"/><path fill="#948974" d="M163 108l-26 31 5-25z"/><path fill="#201a14" d="M174 127h3v16h-3z"/><path fill="#b9b3a5" d="M151 31L81 85l25-68z"/><path fill="#f8ecd3" d="M107 143l18-6 3-10z"/><path fill="#77848a" d="M153.6 1.5l63-8.4-52.1 17.8-5.7 28z"/><path fill="#ece5d6" d="M127.5 106.8l22.8-14.7-1.2-43.8-19.5 63.2z"/><path fill="#98907b" d="M31 119h15v24H31z"/><circle cx="143" cy="107" r="6" fill="#3a3d32"/><path fill="#bbb6ae" d="M181 182.8l-77.9-6.7-34.2 12.7 40 31.5z"/><path fill="#a5a17f" d="M191 173l-82-23 33 26z"/></g></g></svg>