<svg xmlns="http://www.w3.org/2000/svg" viewBox="0 0 1400 1120"><defs/><filter id="a"><feGaussianBlur stdDeviation="12"/></filter><rect width="100%" height="100%" fill="#7b6048"/><g filter="url(#a)"><g fill-opacity=".5" transform="translate(2.7 2.7) scale(5.46875)"><circle cx="149" cy="53" r="223" fill="#dce1da"/><ellipse cx="214" cy="28" fill="#fff" rx="105" ry="32"/><circle r="1" fill="#343a33" transform="matrix(104.95633 -4.11577 .9677 24.67746 124.4 80)"/><ellipse cx="75" cy="154" fill="#830f00" rx="60" ry="17"/><circle r="1" fill="#fff" transform="matrix(22.8584 1.55833 -3.3631 49.33168 250.4 79)"/><circle r="1" fill="#545244" transform="matrix(-31.82206 -13.68484 13.14218 -30.5602 61.6 89.5)"/><path d="M212.8 76.7L210.4 62l16.8-2.6 2.4 14.8z"/><path fill="ivory" d="M161 47l-38 21-19-30z"/><path d="M121.6 82l-22.4 5.2L92.4 58l22.4-5.2z"/><path fill="#fffffb" d="M195.2 17.9l-38.8 63.5 7.7-3.7 16.2-9.6z"/><path fill="#e6dabf" d="M37 71l-49 99 4-186z"/><circle r="1" fill="#827b65" transform="matrix(-33.42827 -5.35434 6.92135 -43.21142 196.5 121.6)"/><path d="M38 58h30v17H38z"/><ellipse cx="169" cy="194" fill="#c5c4c7" rx="81" ry="37"/><path fill="#fffff4" d="M271 144l-63-67 57-6z"/><path d="M157.4 86.5l8.1-26.6-12.8-2.4-19 30.3zM202 59h24v17h-24z"/><path fill="#600" d="M72 171h19v19H72z"/><circle r="1" fill="#fffce7" transform="matrix(-64.52281 15.89827 -5.25693 -21.33515 220.1 33.8)"/><path fill="#c2b9a1" d="M42 80l62-32-64 60z"/><path fill="#bbac8a" d="M150.7 87.5l-.4 26-53-1 .4-26z"/><path fill="#544d3a" d="M135 119l-32-1 40-42z"/><circle r="1" fill="#bfc1bf" transform="matrix(-13.10216 22.96849 -54.48314 -31.0794 37.5 193.3)"/><path fill="#41453c" d="M42 113l-19 21 8-52z"/><circle r="1" fill="#c3bca5" transform="rotate(50.9 24.6 134) scale(12.42901 56.49755)"/><path fill="#2b2f2a" d="M59 85h17v36H59z"/><path fill="#e1d1b5" d="M3.5 20.7l-19.4 131.9 151.3-33.3-116.3 7.1z"/><path fill="#494a39" d="M271 151.7l-43.6-21.4.4 1.2-14.4-27.6z"/><path fill="#773f2f" d="M169 153l-73 7 32-18z"/><path fill="#ffffe8" d="M229 43h27v78h-27z"/><circle r="1" fill="#895949" transform="rotate(22.7 -375.5 156.9) scale(67.81032 7.8541)"/><path fill="#4f4a3f" d="M154.9 118.7l12.7-11.9 33.6-19.9-1.3 21.1z"/><path fill="#f3e4c2" d="M59.4 131.8l44.4 1.6 65.5-36.6-14.2 22.5z"/><path d="M31 85h46v3H31z"/><path fill="#000014" d="M182 60h8v22h-8z"/><path fill="#ebe2cc" d="M122 73l73-60-85 34z"/><path fill="#12242e" d="M84.2 86.4L95.9 55l29.5 29.7-26.9 5.2z"/><path fill="#d6cbb3" d="M40 74h23v11H40z"/><path fill="#b6b0a5" d="M208.4 122.3l5.3-35.7-19.6-30.8-2.3 10.7z"/><path fill="#d5c39e" d="M73.8 126.6l10.9-15 42.7-30.4-9.7 26.3z"/><path fill="#010e17" d="M73.5 91.7l-7.2-34.1L34.4 62 68 77.2z"/><path fill="#c5bca8" d="M123.1 41.3L23.3 27.1 14 60.5l108.1-6.3z"/><path fill="#fffde5" d="M156.9 75.5L185 50l4 4.4L161 80z"/><path fill="#fffde9" d="M144.8 117.8l-6-.9 4.4-30.7 6 .9z"/><path fill="#1a2527" d="M175.3 102.4l-44.5-33.3 39.5-9.8-24.8-3.5z"/><path fill="#000109" d="M150 57h17v13h-17z"/><path fill="#32291e" d="M218 88h5v33h-5z"/><path fill="#807e60" d="M221 167l50 6-88-45z"/><ellipse cx="74" cy="155" fill="#9b5343" rx="38" ry="22"/><path fill="#c3b7a0" d="M32 59h4v51h-4z"/><circle r="1" fill="#9e9882" transform="rotate(11.7 33 323.2) scale(66.24089 27.79034)"/><path d="M37 71h2v45h-2z"/><circle r="1" fill="#fff7e1" transform="matrix(-.01381 -3.95666 24.45736 -.08537 228.3 80.3)"/><ellipse cx="20" cy="47" fill="#91856d" rx="3" ry="58"/><path fill="#00090f" d="M101 55l13 4-2 34z"/><circle r="1" fill="#424236" transform="rotate(143.4 69.8 70.7) scale(22.98956 7.81939)"/><path fill="#f6eede" d="M231.3 59.9l-71.1-8 18.2 19.5 13.3-57.2z"/><path fill="#7c7460" d="M225.9 148l-76.8-22.3-32.1-.1 53.3 15z"/><path fill="#bab58b" d="M209 155l62 6-47-36z"/><path fill="#a89f87" d="M40 88h20v34H40z"/><path fill="#8e8269" d="M72.7 71.7l10.5-7.5 12.7 13.6-23.2 15z"/><ellipse cx="29" cy="105" fill="#101617" rx="2" ry="20"/><path fill="#9c9b7e" d="M225.7 161.3l-50.9 2.8-30.7-6.7 26-22z"/><path fill="#c5bca7" d="M169.2 129.9l9.6-12.1-90.9 1.3 135.1 9.4z"/><path fill="#000001" d="M206 60h22v13h-22z"/><circle r="1" fill="#fffdee" transform="matrix(28.37937 12.34013 -4.49195 10.33042 241 55.7)"/><path fill="#2d3435" d="M61.5 108.4L72.1 125l-13.4-1.4 3.9 2.6z"/><path fill="#020d12" d="M25.2 124l13.7-12.5-.1 9.2 3-3.6z"/><circle r="1" fill="#646253" transform="matrix(-15.75002 9.48726 -.51598 -.8566 14.4 136)"/><path fill="#c1b9a7" d="M73.9 70.9L206.4-16 131.8-5.5 64 51.8z"/><path fill="#6a6452" d="M132 119.3l-35.2-1.5 27.2-16.2 25.1-41.5z"/><path fill="#22323b" d="M185 79h19l3-8z"/><path fill="#d0c898" d="M89 120l20 21 57-3z"/><ellipse cx="152" cy="80" fill="#010b0f" rx="10" ry="6"/><path fill="#6a4f2d" d="M79 86l20 4-8 26z"/><path fill="#c0b7a4" d="M216 106.9l-8.5 5.2-18.6-68.7 41.8 119.3z"/><path fill="#877d6b" d="M192.6 98.3l-15.4-15.4-32.7 32.6.6-13.1z"/><path fill="#cfcec7" d="M-16 103l43 13-43 41z"/><path fill="#666152" d="M117.5 72.5l38.5-13-18.6-1.8-4.9 38.9z"/><path fill="#dfd1b2" d="M125 87h-25l20 14z"/><ellipse cx="230" cy="195" fill="#bbb6b1" rx="150" ry="23"/><path fill="#040e15" d="M39 59h29v15H39z"/><circle r="1" fill="#e5e0cf" transform="matrix(9.3182 16.65584 -75.94187 42.48608 211 11)"/><path fill="#000105" d="M30 85h31v3H30z"/><path fill="#7d7c64" d="M227 114l44 32-4 26z"/><path fill="#cabea3" d="M29.2 115.8l5.5-26.4-1.2 40.5 26.9 3.8z"/><path fill="#dbccb3" d="M92 115l30 8-77 15z"/><circle r="1" fill="#f5e8d5" transform="matrix(9.8571 -17.245 28.11749 16.07172 254.3 107.8)"/><path fill="#f1eada" d="M177.4 70.9l-19.8 3.6 73.6-56.8L155.9 48z"/><path fill="#b8b5ad" d="M147 178l9-28-73 29z"/><path fill="#5c0000" d="M79 177l1 11 10-1z"/><path fill="#5c5748" d="M215.9 162.3l-66-11.6.2-1 66 11.6z"/><path fill="#fbf5e2" d="M163 99l-2 11-25 9z"/><path fill="#5e5a55" d="M210 149l-21-11 23-7z"/><path fill="#914a3d" d="M-3.4 147.5l51.6-3 32.4-12.9-10.5 41z"/><path fill="#000207" d="M114 59l7 19-10 11z"/><path fill="#7d4d3b" d="M156 149l-56-10 35 19z"/><path fill="#969d8a" d="M55.5 168.8L74 182.3l-65.4-25 2.9-3.9z"/><path d="M74.3 118.5l-3.6-28.8 1-.2 3.6 28.8z"/><path fill="#898068" d="M70 88v26h-6V88z"/></g></g></svg>