<svg xmlns="http://www.w3.org/2000/svg" viewBox="0 0 1400 1120"><defs/><filter id="a"><feGaussianBlur stdDeviation="12"/></filter><rect width="100%" height="100%" fill="#1b263c"/><g filter="url(#a)"><g fill-opacity=".5" transform="translate(2.7 2.7) scale(5.46875)"><circle r="1" fill="#fffddd" transform="matrix(-11.9076 -87.52694 252.67246 -34.37482 121.4 65.4)"/><path fill="#fffff7" d="M-16 167l140 52H5z"/><circle r="1" fill="#261507" transform="matrix(-15.63843 -35.79494 67.62225 -29.54344 136.2 139.7)"/><circle r="1" fill="#f9e7dc" transform="rotate(63.1 67 179.3) scale(59.51358 45.1044)"/><circle r="1" fill="#e9bf90" transform="matrix(-71.2887 -2.48946 .754 -21.59178 255 144.5)"/><circle r="1" fill="#050001" transform="rotate(86.5 -7.2 53) scale(42.93436 14.93277)"/><path fill="#ffefe6" d="M89 117L96 7 29 134z"/><path fill="#fffffe" d="M124 114l44 14-67-93z"/><ellipse cy="1" fill="#fff3e9" rx="15" ry="203"/><path d="M243.9 11.2l21-.4 1.2 70-21 .4zm-121.6 119l-30 .6-.6-35 30-.6zM132 27h17v56h-17z"/><path fill="#00225e" d="M7 137l26 9-14-96z"/><path fill="#dec7bd" d="M127 65l8-64-150-17z"/><ellipse cx="176" cy="101" fill="#1f1203" rx="13" ry="27"/><path fill="#060204" d="M92 52h12v71H92z"/><circle r="1" fill="#f5d6b9" transform="matrix(-1.7893 -6.54055 64.42252 -17.624 28 153.3)"/><circle r="1" fill="#10100b" transform="matrix(-50.52625 26.08307 -10.39199 -20.13062 143 159.4)"/><path fill="#f6f3f0" d="M128 97.7l-26-1.4.6-14.1 29.8-63.1z"/><path fill="#f4f7ff" d="M23.8-3l2.7 80.8 4.5 53.8 11.6 1z"/><path fill="#fff" d="M191 97l22-8-24-66z"/><path fill="#120700" d="M142 96h77v9h-77z"/><circle r="1" fill="#f4f1f2" transform="matrix(10.27549 -3.8599 11.20115 29.81876 73.5 67)"/><path d="M34 76h25v17H34z"/><path fill="#907f71" d="M219 0h15v161h-15z"/><path fill="#f9cf99" d="M-2.4 172l99 38-6.2 16-99-38z"/><path fill="#9c7f66" d="M114 139l-35-37-18 49z"/><path fill="#140800" d="M5 136h33v9H5z"/><path fill="#242e3b" d="M63 196l-67-29 104-26z"/><path fill="#fff" d="M9.8 87l-2.6 51-17-1 2.6-51z"/><path fill="#c6b7a8" d="M164.5 103v24h-23v-24z"/><path fill="#e4d4cc" d="M15 0h16v46H15z"/><path fill="#e4e3dc" d="M166.1 75.4l19.1 3.1-2.5-66-46.6 91.3z"/><path fill="#24537f" d="M150 188l121 18-80-38z"/><path fill="#9f8a7a" d="M193 106h63v51h-63z"/><path fill="#202222" d="M32 23h28v22H32z"/><path fill="#070401" d="M128.6 80.5l.8-14 20 1-.8 14z"/><path fill="#0b0603" d="M243.9 81.5l4.5-56.3L261 82.1l-10.8.5z"/><path fill="#beb0a8" d="M121-16L58 48l116-33z"/><ellipse cx="255" cy="142" fill="#2f2a21" rx="170" ry="3"/><path fill="#dbcbb6" d="M-16 157.1L24 145l53.4-15.7-60.2 35.3z"/><path fill="#0b0c09" d="M263.8 168.2l-80.2-14.7-59.2 59.6 3.5-35.5z"/><path fill="#2a2929" d="M106 48l-7 49-7-50z"/><path fill="#14110d" d="M119.4 98l-23.9 48.7 1.4-41.3 20.2-10.5z"/><path fill="#6e6861" d="M191.6 144l-34.1 13 4.9-35.8 8 21.5z"/><path fill="#e2d7c4" d="M108 145l-5-12 15-1z"/><path fill="#5d6573" d="M79.6 89.8l-4.1 88.1-47.2-18.8 39.5-.1z"/><path fill="#2d6fb7" d="M24 98L12 56l13-16z"/><path fill="#d1bfb4" d="M149 39h14v57h-14z"/><path fill="#d8bd96" d="M214.6 155.3l-27 .4-.2-9 27-.4z"/><ellipse cx="196" cy="64" fill="#fff" rx="8" ry="34"/><path fill="#dfddd5" d="M230 30h15v25h-15z"/><path fill="#bab0a6" d="M9 56h6v73H9z"/><path fill="#003068" d="M30.1 116.4l-9.7 29.5-6.7-11.6L24.9 92z"/><path fill="#140c08" d="M9 166.8l-25 1.1 97.7 32.7-40.5-23.7z"/><path fill="#e4dfda" d="M57 56l6-24 31 38z"/><path fill="#60625c" d="M115 115h29v22h-29z"/><path fill="#252721" d="M161 77h26v4h-26z"/><path fill="#fcfdfa" d="M134 54l-15 41-18-2z"/><path d="M76 153h27v23H76z"/><path fill="#dbd8d2" d="M30.6 104.5l-2.2 35.7 1.9-2.5 21.7-48z"/><path fill="#dcd8d5" d="M122.1 112.8l2-59.9-6.5 20.2 33.3 35z"/><path fill="#271c0f" d="M182 97h37v11h-37z"/><path fill="#080a0b" d="M116 139h45v16h-45z"/><path fill="#bfb7b0" d="M104.1 38L76.5 68.4 43.3-16l-56 20.2z"/><ellipse cx="2" cy="98" fill="#fff" rx="6" ry="30"/><path fill="#8b460b" d="M75 104h9v16h-9z"/><path fill="#c8b194" d="M116.7 219l-93.2-37.4-39.5-15.4V219z"/><path fill="#294162" d="M159.2 198.3l-56.5-14.7L37.1 164l49 25.6z"/><path fill="#030201" d="M90.5 176.4l50.5 18.8 48.2-31.6-3.7-10.5z"/><path fill="#030100" d="M32 20h6v37h-6z"/><path fill="#f5f8f9" d="M28 67h7v41h-7z"/><path fill="#b79f82" d="M218 159l-9-29 62 36z"/><path fill="#84847b" d="M188 77l-18 18 17 1z"/><path fill="#9c8b7b" d="M69 122h25v28H69z"/><path fill="#7bbaf8" d="M21 101l-10-6 20-6z"/><path fill="#86c2ff" d="M18 66l9 15-1-26z"/><path fill="#363430" d="M130.7 58.3l19.6-33.4-32.5 4.1 13.7-2.1z"/><path fill="#4a4b4b" d="M42 22h19v24H42z"/><circle cx="8" cy="153" r="10" fill="#eae0cd"/><circle r="1" fill="#ada095" transform="rotate(11.1 -25.4 1172.6) scale(14.26986 66.94545)"/><path fill="#292927" d="M62.1 58.7L62 76.1 34.4 65l-.2 31.3z"/><path fill="#b1a8a0" d="M77 0h51v48H77z"/><circle r="1" fill="#5e6055" transform="matrix(2.93912 -8.54054 2.14526 .73826 186.4 40.8)"/><path fill="#dbdad8" d="M64 86.5l-3.3-69.1 31.7 88.8-37.9-3.2z"/><circle r="1" fill="#171311" transform="matrix(-2.50316 7.18577 -35.12936 -12.2373 83 196.7)"/><path fill="#f3fbf8" d="M203.1 97.1l-30.6-44.9 2.5-16.5 28.2 51.5z"/><path d="M40 135l1.4 5.9-17.5 4-1.3-5.8z"/><path fill="#9c8e86" d="M225 40l-7 88 53 18z"/><path d="M224.3 138.9l37.6 5.2-.2 1-37.6-5.2z"/><path fill="#474745" d="M157.3 151.5l-56.2 3.6 42.9 8.5 55.8-26z"/><path fill="#d1d0cd" d="M91 121L63 37l30 14z"/><path fill="#af9e99" d="M198 117h23v25h-23z"/><path fill="#c8bcb0" d="M131 82h33v13h-33z"/><path fill="#595747" d="M174 12l1 18-5-11z"/><path fill="#302312" d="M220.5 147.9l-77.9-14.2 80.6 10.9.2.8z"/><path fill="#eeede4" d="M202 33L182-3l-5 23z"/><path fill="#47301a" d="M165 107h29v35h-29z"/><path fill="#412e1c" d="M86.3 127.7l-48.4 7.6-.2-1 48.4-7.6z"/><path fill="#001332" d="M18 64h-4V52h4z"/></g></g></svg>