<svg xmlns="http://www.w3.org/2000/svg" viewBox="0 0 933 1400"><defs/><filter id="a"><feGaussianBlur stdDeviation="12"/></filter><rect width="100%" height="100%" fill="#3a455a"/><g filter="url(#a)"><g fill-opacity=".5" transform="translate(2.7 2.7) scale(5.46875)"><circle r="1" fill="#fff" transform="rotate(-170.7 44.1 8.3) scale(85.35087 111.71016)"/><circle r="1" fill="#ffffcd" transform="rotate(167.9 42.3 133.4) scale(163.58607 20.48212)"/><path fill="#ffffe8" d="M81.5 68.7L109 54.6l59.4 116.7-27.6 14.1z"/><path fill="#ead6ba" d="M185 7L67-16l-83 218z"/><path d="M141 57h29v89h-29zM77 87h15v96H77zM0 59h25v67H0z"/><ellipse cx="5" cy="221" rx="113" ry="28"/><circle r="1" fill="#0b0000" transform="matrix(12.7249 -18.02393 39.02406 27.551 116.8 180.3)"/><path d="M43 132.5h28v49H43z"/><circle cx="16" cy="16" r="43" fill="#f4dfc4"/><ellipse cx="124" cy="96" fill="#fff" rx="15" ry="42"/><path fill="#d3c2b0" d="M127 146h43v34h-43z"/><path fill="#e8c19d" d="M42.5 248.6L166.4 271l18.6-77.9-48.7 38.7z"/><path fill="#c7b69c" d="M46 204l-62-82 55 9z"/><path fill="#e5c691" d="M54 188l32-7 43 33z"/><circle r="1" fill="#edd6ac" transform="rotate(-74.2 217.1 12.1) scale(3.77521 40.57378)"/><path fill="#f0f3ef" d="M76.5 170.8L74 73.7l-48.3 68.7 40.2-18.5z"/><path fill="#fff2df" d="M163.7 50.4l-65.8 39 86.4-77.9L180 70z"/><path d="M76 143h47v41H76z"/><path fill="#272415" d="M139 60h31v88h-31z"/><path fill="#8b8776" d="M91 119h27v23H91z"/><circle r="1" fill="#120e06" transform="rotate(-77.8 138.5 106) scale(34.56053 49.47992)"/><path fill="#0d0e0a" d="M78 86h13v94H78z"/><path d="M44 134h27v52H44z"/><path fill="#dfdfdb" d="M23 95h54v34H23z"/><ellipse cx="146" cy="195" fill="#241d08" rx="23" ry="19"/><path fill="#937f62" d="M62 193l-34-18v31z"/><path fill="#080a0a" d="M101 213l51 12-126 26z"/><circle r="1" fill="#374f72" transform="matrix(27.94989 -2.53226 .95326 10.5216 82.8 216.2)"/><path fill="#ddd3c8" d="M184 150.7l-5.2 32.6-24.7-4 5.1-32.6z"/><circle r="1" fill="#0a0900" transform="matrix(-6.78772 31.10269 -10.52241 -2.29637 111.3 171.2)"/><ellipse cx="34" cy="68" fill="#d0cbc3" rx="9" ry="104"/><path fill="#dddad5" d="M127 50h13v122h-13z"/><path fill="#f3cea4" d="M52 247l-59 12 122 12z"/><circle r="1" fill="#312e23" transform="matrix(21.334 4.30169 -6.06517 30.0799 4 88.3)"/><path fill="#eeeef2" d="M96 70h36v47H96z"/><path fill="#120c00" d="M31.2 193.9L6.1 176.2l41.7 5.1-63.8 12z"/><path fill="#988e85" d="M0 126h34v50H0z"/><path fill="#f1e4ca" d="M168 165h2v58h-2z"/><path fill="#9c9690" d="M127 145h37v31h-37z"/><circle r="1" fill="#b5a89a" transform="matrix(15.07534 -1.95764 5.4277 41.79754 86.8 38.8)"/><path fill="#f6ecdc" d="M169 54l-29 7.8-1-3.8 29-7.8z"/><path fill="#262724" d="M140 66h30v79h-30z"/><path fill="#555452" d="M111.5 118.1l11.7 27.1-17.9-15.9-7.7-10z"/><path d="M0 107h23v19H0z"/><path fill="#ccc8bd" d="M72 74h4v116h-4z"/><path fill="#32302a" d="M101.7 171.6l48.3 5.3 19.2 30.1-6.8 7.2z"/><ellipse cx="95" cy="124" fill="#f9fcf7" rx="2" ry="15"/><path fill="#120d05" d="M45.6 118.3L56 150.2l-17.9 33.2 41.3-2.8z"/><path fill="#d6c4a8" d="M137 217l29 13 12-21z"/><ellipse cx="122" cy="193" fill="#0c0e0b" rx="24" ry="12"/><path fill="#eaeae4" d="M26 60h10v41H26z"/><path d="M-16 264l46-16H-2z"/><path fill="#ecece6" d="M78.5 119.7l-1.1-33.2-3.8 46L34 122z"/><circle r="1" fill="#243756" transform="matrix(50.566 -10.8404 .9292 4.33437 7.3 242.2)"/><path fill="#c1bbb4" d="M62.3-16L23 102.3l-.3 27.5 56.9-41.3z"/><circle r="1" fill="#393a37" transform="matrix(15.53578 -.39126 .82632 32.8107 166.6 88.5)"/><path fill="#181815" d="M41.7 199.1l48.4 2.9-15.7-6.7-28.4.3z"/><path fill="#0f1113" d="M81 89h12v14H81z"/><path fill="#a3947f" d="M94.3 193.2l-3.1-11.1L24.1 199l68.8-8z"/><ellipse cx="91" cy="174" fill="#828077" rx="1" ry="32"/><circle r="1" fill="#050401" transform="matrix(-.83303 -13.9862 45.53072 -2.71184 8.7 222.6)"/><circle r="1" fill="#d1c6ba" transform="matrix(-41.02017 19.56562 -13.17519 -27.62235 160.9 25.2)"/><ellipse cx="2" cy="24" fill="#c9c0b6" rx="65" ry="33"/><path fill="#100e08" d="M126 167l-41-27 41 13z"/><ellipse cx="4" cy="157" fill="#9e9284" rx="8" ry="30"/><path fill="#2f2c2a" d="M76 121h15v32H76z"/><path fill="#3a3b38" d="M6.4 105.6L-.2 56.9l26.7 4.8-4.4 47.5z"/><path fill="#e6e5e2" d="M112 49h27v71h-27z"/><path fill="#080c0f" d="M113 210l5 22 25-8z"/><path fill="#11110d" d="M185 147.9l-43.4-24.3-1.3 7.5-.5 12.8z"/><path fill="#e8eae6" d="M35.4 160.1l-2.8-34 44.9-8.1-27.9-9.9z"/><path fill="#67635b" d="M-16 197l16-15 4 28z"/><path fill="#3c5373" d="M56 207h11v20H56z"/><path fill="#d4d4d2" d="M129 153l14-6-29-34z"/><path fill="#5b5c5b" d="M-21.8 214.5l-.3-2 73.9-13 .3 2z"/><path fill="#0c0800" d="M163.3 204.9l4.4 3.8-29.1 7 4.9-6.9z"/><path fill="#81827e" d="M100.3 141.6l16.2.2-.6-24.5-26.2 21z"/><path fill="#fefefa" d="M70.5 114.8l3.2 17.8-13.7.2 4.3-3.4z"/><path fill="#252620" d="M185 51.3L142.2 62l.1-.8-3.4 30.2z"/><path fill="#040300" d="M122 141l-30 40v-39z"/><path fill="#5d5f5e" d="M-16 51.1l37.8 27.8-2.3-13.7-16 9.4z"/><path fill="#0f0e0f" d="M12 89h14v6H12z"/><path fill="#050300" d="M70.1 141.2l-19.8 29.2-.2 17 21.2-3z"/><path fill="#3d352c" d="M146 182h23v23h-23z"/><path fill="#98866d" d="M17 182l65 8-38 6z"/><path fill="#fff" d="M169 178h1v18h-1z"/><circle r="1" fill="#b6ac98" transform="matrix(-.70297 2.28206 -27.6874 -8.52885 113.8 207.2)"/><path fill="#28271d" d="M10 176h19v16H10z"/><ellipse cx="11" cy="184" fill="#666860" rx="12" ry="3"/><path fill="#bda992" d="M118 233l66 38-156-19z"/><path fill="#12110d" d="M135.5 219l-78.9 24 33.8-4.2 62.1-14z"/><circle r="1" fill="#90887e" transform="matrix(-26.4868 -11.23 6.28344 -14.81998 8.1 158.6)"/><path fill="#bdb5ae" d="M153.1 152.9l25.4 5.8-5.6 24.4-25.4-5.8z"/><path fill="#555554" d="M116.6 178.8l1.2-6.9 29.6 5.3-1.2 6.9z"/><path fill="#d4d3d2" d="M63.2 100.8l68.1-56.9-34.5 47.6-26.9-15.6z"/><ellipse cx="164" cy="47" fill="#e6e4df" rx="8" ry="9"/><path fill="#202a39" d="M139.2 220.3l-31.5-10.8-67.6 23.6 60.7-2.4z"/><path fill="#cacec5" d="M38 140h2v38h-2z"/></g></g></svg>