<svg xmlns="http://www.w3.org/2000/svg" viewBox="0 0 933 1400"><defs/><filter id="prefix__a"><feGaussianBlur stdDeviation="12"/></filter><rect width="100%" height="100%" fill="#222b3c"/><g filter="url(#prefix__a)"><g transform="translate(2.7 2.7) scale(5.46875)"><circle r="1" fill="#ffffea" fill-opacity=".5" transform="matrix(17.8486 106.65908 -114.08357 19.09104 81.5 53.3)"/><ellipse cx="76" cy="234" fill="#ffe2a1" fill-opacity=".5" rx="169" ry="24"/><path fill="#190d00" fill-opacity=".5" d="M56.5 130.5h61v57h-61z"/><path fill-opacity=".5" d="M22 75h22v46H22zm94-1h19v50h-19z"/><circle r="1" fill="#dcccbf" fill-opacity=".5" transform="rotate(91 32.4 47.8) scale(99.13712 49.72551)"/><circle r="1" fill="#a99579" fill-opacity=".5" transform="matrix(-7.831 -14.36094 40.08757 -21.85972 29.1 165.8)"/><path fill="#fffbf8" fill-opacity=".5" d="M-16 136.1l33.6-4.4 4.1 13.8 2.2-78z"/><path fill="#f1e8df" fill-opacity=".5" d="M136 83h34v43h-34z"/><circle r="1" fill="#9b8671" fill-opacity=".5" transform="matrix(17.16227 -4.61009 7.08401 26.37208 130.6 144.2)"/><circle r="1" fill="#0f0c04" fill-opacity=".5" transform="matrix(-10.68297 .6534 -1.9602 -32.0489 80.3 147.3)"/><path fill-opacity=".5" d="M148 126h20v36h-20z"/><path fill="#fdffff" fill-opacity=".5" d="M78 113.3l1.2-46.9 16.3 26.3 4.4 40.3z"/><circle r="1" fill="#ebd0af" fill-opacity=".5" transform="matrix(16.66706 7.24031 -9.5412 21.96366 5.7 233)"/><ellipse cx="62" cy="30" fill="#baada3" fill-opacity=".5" rx="169" ry="45"/><path fill-opacity=".5" d="M17.5 164h-35v-30h35z"/><path fill="#030607" fill-opacity=".5" d="M65 177h105v34H65z"/><path fill-opacity=".5" d="M118 121l-.9-44.9 19.9-1-7.4 44.8z"/><path fill="#c3bbaf" fill-opacity=".5" d="M30.9 154.4l-13.8 19.4.9-43.1 22.5-3.9z"/><path fill="#fff" fill-opacity=".5" d="M169 108h1v68h-1z"/><path fill="#e0ddd6" fill-opacity=".5" d="M73.1 89.5l-29.9 35.7 1.7-49.5 25.8 55.9z"/><path fill="#b29468" fill-opacity=".5" d="M127 165h43v7h-43z"/><path fill="#070300" fill-opacity=".5" d="M50 131h60v7H50z"/><path fill="#988c84" fill-opacity=".5" d="M127.8 143.8l-34.6 20-9-15.6 34.6-20z"/><path fill="#040b11" fill-opacity=".5" d="M25 172.3l4.2 12.8 29.6 26.5L-16 208z"/><path fill="#9e9185" fill-opacity=".5" d="M108 19h62v56h-62z"/><ellipse cx="153" cy="234" fill="#997d64" fill-opacity=".5" rx="137" ry="24"/><path fill="#0a0a0a" fill-opacity=".5" d="M24 76h18v44H24z"/><path fill="#baa88a" fill-opacity=".5" d="M-16 166.9l40.1-2.5.1-5.5-37.1 59.9z"/><path fill="#827769" fill-opacity=".5" d="M49.1 130.9L67 157.3l3.2 14.6-51-2.9z"/><path fill="#2f486b" fill-opacity=".5" d="M133 181h37v16h-37z"/><path fill="#beb9b3" fill-opacity=".5" d="M-16 97.4L34.2-16 22.3 85.6l3.4 24z"/><path fill="#fff" fill-opacity=".5" d="M162 104l23 27-40-15zm-68 27.9l-7 .2-1-26 7-.2z"/><path fill="#edeadf" fill-opacity=".5" d="M70 131l3-45-16 45z"/><path fill="#aaa7a2" fill-opacity=".5" d="M134 98h12v58h-12z"/><path fill="#020000" fill-opacity=".5" d="M150 125h14v40h-14z"/><circle r="1" fill="#8b7962" fill-opacity=".5" transform="matrix(-6.94736 6.16815 -5.32119 -5.9934 39.3 178)"/><path fill-opacity=".5" d="M117 106h17v14h-17zm1 53h52v2h-52z"/><path fill="#c5b297" fill-opacity=".5" d="M0 211h30v33H0z"/><path fill-opacity=".5" d="M2 134h13v31H2z"/><path fill="#aba098" fill-opacity=".5" d="M108 11l40 91 37-18z"/><path fill="#434039" fill-opacity=".5" d="M73 117h15v16H73z"/><path fill="#817771" fill-opacity=".5" d="M96 149l42-32-1 41z"/><path fill="#93908c" fill-opacity=".5" d="M36 26h14v48H36z"/><path fill="#a89e96" fill-opacity=".5" d="M98 45h18v80H98z"/><circle r="1" fill="#c2bfb8" fill-opacity=".5" transform="matrix(8.5942 60.22048 -25.1985 3.59614 75 11.5)"/><ellipse cx="40" cy="206" fill="#070400" fill-opacity=".5" rx="169" ry="4"/><path fill="#010101" fill-opacity=".5" d="M133 82h3v18h-3z"/><path fill="#b2aba5" fill-opacity=".5" d="M43 80h22v49H43z"/><path fill="#13100a" fill-opacity=".5" d="M79 203.2l-15.4-70 42.3-1.8-33.8 13.5z"/><path fill="#dee0d8" fill-opacity=".5" d="M109 86h7v23h-7z"/><path fill="#35392d" fill-opacity=".5" d="M73 71h4v12h-4z"/><path fill="#e1e3e2" fill-opacity=".5" d="M14 130l9-38-38 12z"/><path fill="#b4b0ac" fill-opacity=".5" d="M18 124h20v33H18z"/><path fill="#c3cfc8" fill-opacity=".5" d="M76 66h9v52h-9z"/><ellipse cx="101" cy="191" fill="#030000" fill-opacity=".5" rx="33" ry="6"/><path fill="#494840" fill-opacity=".5" d="M95.6 159.1l45.7 3-69.4.9 27 20.1z"/><path fill="#0b0a0a" fill-opacity=".5" d="M22 108h21v13H22z"/><circle r="1" fill="#262218" fill-opacity=".5" transform="rotate(96.5 -52.8 97.8) scale(1 162.92129)"/><path fill="none" stroke="#aeaca4" stroke-opacity=".5" stroke-width=".5" d="M1.5 186Q-4.6 135.6 3 89.4"/><path fill="#f0f7f8" fill-opacity=".5" d="M44 84h4v24h-4z"/><path fill="#273d5b" fill-opacity=".5" d="M11 184h53v11H11z"/><path fill="#d2d6d2" fill-opacity=".5" d="M143 120h4v29h-4z"/><path fill="#838983" fill-opacity=".5" d="M80 96l4-16 3 13z"/><path fill-opacity=".5" d="M50 132h20v5H50z"/><ellipse cx="114" cy="54" fill="#8b847b" fill-opacity=".5" rx="7" ry="26"/><path fill="#a58e75" fill-opacity=".5" d="M6.4 256.6l10.8-46.8 24.4 5.6-10.8 46.8z"/><ellipse cx="158" cy="215" fill="#a18c74" fill-opacity=".5" rx="133" ry="4"/><path fill="#14120b" fill-opacity=".5" d="M81.7 121l-.3.9-13.1-4.8.3-1z"/><path fill="#040300" fill-opacity=".5" d="M127 172h36v5h-36z"/><circle r="1" fill="#b3aea8" fill-opacity=".5" transform="rotate(108.4 -3.4 24.8) scale(74.40432 19.82297)"/><path fill="#eeede7" fill-opacity=".5" d="M88.8 132.3l15-4.6-5.5-6.9-15.6-61.3z"/><circle r="1" fill="#dfd2b6" fill-opacity=".5" transform="matrix(8.76163 -16.12629 7.8617 4.27137 0 231.4)"/><path fill="#414445" fill-opacity=".5" d="M43 74L24 92l12 17z"/><path fill="#31322f" fill-opacity=".5" d="M116 75h18v33h-18z"/><path fill="#736759" fill-opacity=".5" d="M28 159h19v27H28z"/><path fill="#8e867c" fill-opacity=".5" d="M21 120h30v4H21z"/><path fill="#3b4640" fill-opacity=".5" d="M79 106l-7-7 5 9z"/><path fill="#948b82" fill-opacity=".5" d="M108 161l-4-21-8 19z"/><path fill="#d7d7d2" fill-opacity=".5" d="M137 71h6v37h-6z"/><path fill="#1f2c41" fill-opacity=".5" d="M82.7 197l63.1 1.5-72.5 7.6-10.6-7.3z"/><path fill="#101a24" fill-opacity=".5" d="M17.9 179.2l6.9-6 3.9-20.4-2.8 37.9z"/><path fill="#837a73" fill-opacity=".5" d="M105 110l41 37-32 4z"/><path fill="#fffffa" fill-opacity=".5" d="M169 121h1v28h-1z"/><path fill="#8e7a62" fill-opacity=".5" d="M185 259L67 218 2 269z"/><path fill="#847156" fill-opacity=".5" d="M145.8 161.7l35.6 15.9-1.2 2.7-35.6-15.9z"/><path fill="#191c1d" fill-opacity=".5" d="M90.4 147.9l-.7 19.9L54 205.7l27.9-54.6z"/><path fill="#c4bdb4" fill-opacity=".5" d="M119 71h21v4h-21z"/><ellipse cx="124" cy="9" fill="#b6b0a6" fill-opacity=".5" rx="31" ry="20"/><path fill="#aa9775" fill-opacity=".5" d="M70.5 170.5h-17v-3h17z"/><path fill="#e2e7e1" fill-opacity=".5" d="M90.4 78.7l-9.8-8.8-4.2 15.7-10.2 21.1z"/><path fill="#938772" fill-opacity=".5" d="M2.8 193.6L28 166.2.8 164.9l-4.7-30.2z"/><path fill="#4e4c47" fill-opacity=".5" d="M81.1 133.6l7.4-15.6-20.4-.7 12.3 14.9z"/><path fill="#c6c1b8" fill-opacity=".5" d="M101.3 108.5l1.9 15.5-6.4 1.4L86 58.1z"/><path fill="#d5d5d0" fill-opacity=".5" d="M144 138l2-32 9 2z"/><path fill="#e5e8e5" fill-opacity=".5" d="M162 105h8v22h-8z"/><path fill="#a39a92" fill-opacity=".5" d="M153 96l32-26-70-33z"/><path fill="#121310" fill-opacity=".5" d="M44.3 75.6l-3.5 6.3-10.9-1.1-8.4-5.9z"/></g></g></svg>