<svg xmlns="http://www.w3.org/2000/svg" viewBox="0 0 933 1400"><defs/><filter id="a"><feGaussianBlur stdDeviation="12"/></filter><rect width="100%" height="100%" fill="#253147"/><g filter="url(#a)"><g fill-opacity=".5" transform="translate(2.7 2.7) scale(5.46875)"><circle r="1" fill="#fde4bd" transform="matrix(81.03827 69.47222 -109.99365 128.30588 49.6 93.8)"/><circle r="1" transform="matrix(-3.48768 -53.93276 19.63535 -1.26976 58.2 76)"/><circle r="1" fill="#100600" transform="matrix(9.6998 77.87468 -14.64477 1.8241 133.6 154.4)"/><path fill="#fff" d="M185 23.8l-44.7 41-9.3 62.6 54 3.2z"/><circle r="1" fill="#c6a474" transform="matrix(-2.70095 -13.17961 159.81927 -32.75241 92 203.1)"/><path fill="#00002d" d="M6 192l34-2L26 85z"/><circle r="1" fill="#f8f0e6" transform="matrix(20.00223 3.81563 -8.05832 42.2432 96.7 100.8)"/><circle r="1" fill="#fdf6eb" transform="matrix(-11.04347 -.4049 4.58087 -124.93855 .7 126.2)"/><path fill="#f3debc" d="M160 61h10v146h-10z"/><path d="M117 126h43v48h-43z"/><ellipse cx="107" cy="203" fill="#866b49" rx="24" ry="44"/><circle r="1" fill="#eff7ff" transform="matrix(6.05995 78.19338 -6.04008 .4681 37.2 97.7)"/><path fill="#000201" d="M42 26h32v96H42z"/><path fill="#010301" d="M117.6 58.1l63.6 15.4-45.1-11.3L124 164.6z"/><path fill="#d7cbbb" d="M36 121h58v46H36z"/><circle r="1" fill="#bfad9b" transform="matrix(-7.46207 28.42323 -123.77577 -32.49537 91 4.6)"/><circle r="1" fill="#eae0d3" transform="matrix(8.7788 -18.1598 8.96946 4.336 85.2 60)"/><path fill="#100800" d="M185 235l-53 36-4-90z"/><path d="M47.2 190L16 196.7 12.8 182l31.3-6.7z"/><ellipse cx="120" cy="171" fill="#040200" rx="56" ry="3"/><ellipse cy="138" fill="#fff" rx="10" ry="45"/><circle r="1" fill="#b9ac9f" transform="matrix(-26.2849 -12.69279 34.68854 -71.83485 12.6 20)"/><circle r="1" fill="#275c9c" transform="matrix(-3.6454 38.56429 -7.31041 -.69104 24.7 88.5)"/><path fill="#fffffd" d="M131 109h26v18h-26z"/><path fill="#f1f3ed" d="M35 85h9v93h-9z"/><path fill="#0c1213" d="M-16 248.5L33.4 271l105.8-17.4-96.8-25.5z"/><path d="M73 29h4v33h-4z"/><path fill="#481700" d="M95 135h8v38h-8z"/><path fill="#a58f6f" d="M138.8 196.8l31.7 13.3 14.5-19-55.2-17.7z"/><path fill="#7d6a57" d="M88 183h40v60H88z"/><path d="M71 77h8v21h-8z"/><path fill="#dad5cd" d="M160 146l-2-72 27 85z"/><ellipse cx="25" cy="184" fill="#11160c" rx="25" ry="6"/><circle cx="5" cy="216" r="24" fill="#c7b495"/><ellipse cx="137" cy="50" fill="#b5a593" rx="62" ry="12"/><path d="M41 23h8v50h-8z"/><path fill="#0a0a07" d="M161.1 128.1l-44.6 48.6.3-60.3 21.7 12.4z"/><path fill="#0e3a64" d="M17 108h15v72H17z"/><path fill="#8bb3e7" d="M19.9 133.4l-3-7.5 21.9-11.3-12.3 18.6z"/><path fill="#ebddc7" d="M110 113h6v49h-6z"/><circle r="1" fill="#1b1a12" transform="matrix(.1846 .98281 -53.776 10.10046 54.2 175.5)"/><path fill="#080601" d="M120 60h14v22h-14z"/><path fill="#010300" d="M147.2 231.1l-20.4-37.9-15.1-4.5 73.3 26.5z"/><path fill="#00163b" d="M17 64h7v16h-7z"/><path fill="#0f0d09" d="M74.6 93.5L47.1 86l-2.6 49.7 29.2-25.9z"/><path fill="#caae87" d="M87 189.2l-34.2 7.2-3.8-17.6 34.2-7.2z"/><path fill="#b6ab9f" d="M4-16l36 54-56 65z"/><path fill="#d5d0c8" d="M81.7 55.6L110.5 88l3.9 63.8-42.6-87z"/><path fill="#b2a596" d="M135 102l-2-79 34 5z"/><path fill="#d3cfc0" d="M34 168l24-5-23 20z"/><path fill="#8d8673" d="M7 170.8l1-24 9 .4-1 24z"/><path fill="#abbdd3" d="M24 78h20v17H24z"/><path fill="#35322e" d="M38 28h35v60H38z"/><path fill="#110f05" d="M129 181h9v52h-9z"/><path fill="#a6a493" d="M123.6 170.6l14.1 5-1.3 3.8-14.1-5z"/><path fill="#21211f" d="M118 63h14v80h-14z"/><path fill="#fff" d="M-5 141l12 34 3-82z"/><path fill="#051f3b" d="M23 143h13v25H23z"/><circle r="1" fill="#120d03" transform="matrix(-11.8899 5.0342 -9.98732 -23.58826 139.5 157.6)"/><path fill="#928474" d="M42 122h29v13H42z"/><path fill="#bb762a" d="M104 137h8v26h-8z"/><path fill="#16170e" d="M97.1 173.8l-6.8 3.3-12.3-9 26.9-1.1z"/><path fill="#b5ab9e" d="M0 3h41v53H0z"/><ellipse cx="103" cy="178" fill="#acadac" rx="12" ry="6"/><path fill="#776755" d="M87 185h42v56H87z"/><circle r="1" fill="#2e2a1d" transform="rotate(69.8 -113.2 227.5) scale(20.26853 61.92179)"/><path fill="#b7afa6" d="M-11.2 114.2L26.6-4.4 16 76.3l4.9 27.9z"/><path fill="#c2ae90" d="M144.1 194.9l-6-10.5 21.7-6.5 25.2-8.4z"/><path fill="#9e8b73" d="M65.4 220.1l-8.8-30.8 26-7.4 8.8 30.8z"/><path fill="#15253a" d="M29.3 234.7L120 271l-45.1-43.1L91.5 213z"/><path d="M16 195l32-8-23-9z"/><path fill="#a49689" d="M114 81l18-97-66 29z"/><path fill="#ebe7de" d="M140.8 80.1l-1.2 35 4.2 13.2 30.9-51.7z"/><path fill="#bead91" d="M9.9 184.6L-16 248.2l31.6-11.1 1-21.7z"/><path fill="#6e95ca" d="M21 151l9-15-17 15z"/><path fill="#102136" d="M16 189l1-39 20 13z"/><path fill="#050504" d="M45 97h30v23H45z"/><circle r="1" fill="#1b2021" transform="matrix(.14968 .98873 -32.72169 4.95362 44.6 176.2)"/><path fill="#c7c2ba" d="M75 99h40v38H75z"/><path fill="#fefdf5" d="M73 63h8v11h-8z"/><path d="M19 119.1l-2.7-1.2 4.7-11 2.7 1.2z"/><path fill="#d3d1ca" d="M66.4 126.6l-30.2 55.5 2.4-72.1 10 26.7z"/><path fill="#080703" d="M75 56l-7-29 8 3z"/><path fill="#5889ca" d="M27 58h5v54h-5z"/><path fill="#17160f" d="M70 76h9v21h-9z"/><path fill="#978166" d="M185 212l-49-16 49-20z"/><path fill="#000d1f" d="M26.3 108l-8.2-16.1 3.6-1.8 8.2 16z"/><path fill="#161005" d="M161.2 173.1l-5.8-48-26.2 23.1 42.5 26z"/><path fill="#554c3f" d="M133.7 171.3l-8.2 21.6-11.4 48.6 3.7-65.2z"/><path fill="#857c6f" d="M133 86h7v20h-7z"/><path fill="#aea296" d="M128 61L77 48l3-34z"/><path fill="#0b0b08" d="M49.6 27.3L53.4 82l-9 .6L40.6 28z"/><path fill="#e7e5d3" d="M-16 193.5l31 2.3-31-23.5 30.1 4z"/><path fill="#373836" d="M72.2 88.7L44.9 63.5l2.3-21.9 26.7 3.3z"/><path fill="#cfd6dd" d="M44.2 88.4l-.3 17.3-9.9 15-4.8-39z"/><path fill="#344a66" d="M16.8 78.7l9.5 10.1-7.6-38.3 2.1 43.3z"/><path fill="#af9f8a" d="M56 173l-2.6-15.8 26.7-4.2 2.5 15.8z"/><path fill="#0f0f09" d="M41 38l4-16 28 7z"/><circle r="1" fill="#b5ada0" transform="matrix(17.69766 4.88606 -2.2284 8.0714 63.4 18.1)"/><path fill="#c9985d" d="M97.6 164.3l-1.1-4.6 16.7-1 .2 9.5z"/></g></g></svg>