<svg xmlns="http://www.w3.org/2000/svg" viewBox="0 0 1400 1119"><defs/><filter id="a"><feGaussianBlur stdDeviation="12"/></filter><rect width="100%" height="100%" fill="#805940"/><g filter="url(#a)"><g fill-opacity=".5" transform="translate(2.7 2.7) scale(5.46875)"><circle cx="136" cy="93" r="181" fill="#fff"/><circle cx="70" cy="11" r="203" fill="#fbffff"/><path d="M76.1 124.2l-.7 19.8-61.3.2.9-23.2z"/><circle r="1" fill="#776f4b" transform="matrix(35.31797 -8.87273 4.98463 19.84137 47.9 73.1)"/><circle cx="171" cy="5" r="103" fill="#feffff"/><path fill="#686548" d="M138 102h32v51h-32z"/><ellipse cx="170" cy="197" fill="#fff" rx="255" ry="7"/><circle r="1" fill="#8e7256" transform="matrix(2.06655 23.11877 -52.50642 4.69345 222 169)"/><circle r="1" fill="#fff" transform="matrix(-29.33497 -2.61808 13.45151 -150.72124 104.6 106.7)"/><path fill="#fff" d="M254.3 10L.7 36.7l-5-46.7 253.6-26.7z"/><path fill="#000507" d="M183 21h39v6h-39z"/><path fill="#07131f" d="M14 125h56v20H14z"/><ellipse cx="182" cy="54" fill="#6c7272" rx="70" ry="3"/><ellipse cx="199" cy="170" fill="#e7efe9" rx="81" ry="7"/><circle r="1" fill="#666d6d" transform="matrix(.0074 -2.16837 56.4905 .19258 184.5 65.1)"/><ellipse cx="155" cy="203" fill="#fff" rx="255" ry="12"/><path fill="#47361e" d="M180.2 159.8l90.8 1.9-89-12.9 36.2-1.2z"/><circle r="1" fill="#edf2ed" transform="matrix(52.22724 -22.70905 14.19114 32.63739 251.5 108.3)"/><path fill="#a6a594" d="M14 35h37v89H14z"/><path fill="#934921" d="M168 177h88v14h-88z"/><ellipse cx="185" cy="39" fill="#a1c62a" rx="27" ry="3"/><ellipse cx="1" cy="144" fill="#f8ffff" rx="13" ry="203"/><ellipse cx="113" cy="185" fill="#fff" rx="17" ry="203"/><path fill="#958062" d="M94.5 52.8L5.1 55l73.3 23.5 8.1-24.3z"/><path fill="#7f8384" d="M150 20h57v8h-57z"/><path fill="#9f9b87" d="M133 103h27v65h-27z"/><circle r="1" fill="#fff" transform="matrix(3.08142 68.5824 -15.38315 .69117 248.7 35.8)"/><circle r="1" fill="#fff" transform="matrix(116.41281 -3.69043 .91408 28.83419 86.4 0)"/><ellipse cx="228" cy="94" fill="#fff" rx="158" ry="9"/><ellipse cx="235" cy="157" fill="#3f250d" rx="52" ry="3"/><circle r="1" fill="#9faaac" transform="rotate(1.4 -6162 1766.7) scale(33.3457 5.81035)"/><path fill="#fff" d="M79 172l-28-18-66 19z"/><circle cx="163" cy="159" r="20" fill="#deddd2"/><path fill="#cfd3c5" d="M95.8 149.3l-17 6-11.7-79.1-48 14.7z"/><path fill="#cdd2d5" d="M13 28h85v26H13z"/><ellipse cx="184" cy="199" fill="#fff" rx="255" ry="8"/><path fill="#252f2d" d="M40.6 115.6l-14.2 17.5 18.2-4.3-19.7-14.5z"/><ellipse cx="241" cy="124" fill="#cfccc0" rx="44" ry="23"/><path fill="#c2c6c6" d="M205.1 95.3l-47.5-19.8 75.3-1.6-61.8 20.7z"/><path fill="#64676f" d="M45.7 144.5l33.1.9-6.4-11.7-19-2.6z"/><path fill="#aeaea1" d="M183 150h66v6h-66z"/><circle r="1" fill="#fff" transform="matrix(18.90718 5.85275 -4.35194 14.05883 143.5 37.2)"/><ellipse cx="136" cy="189" fill="#a3ce2a" rx="17" ry="2"/><path fill="#fff" d="M257-11l-55 61 69 1z"/><path fill="#939695" d="M151 63h92v5h-92z"/><path fill="#89836e" d="M141 103h30v27h-30z"/><path fill="#ebeeec" d="M48.6 99.9L70 129.7l30.1 44.2-10.9-69z"/><ellipse cx="240" cy="179" fill="#603c1b" rx="40" ry="3"/><ellipse cx="184" cy="1" fill="#fff" rx="199" ry="20"/><path fill="#fff" d="M79 169h66v18H79z"/><path fill="#9e8c6f" d="M16 53h68v17H16z"/><path fill="#afad9c" d="M14 77h56v24H14z"/><path fill="#656b69" d="M181 92h19v3h-19z"/><path fill="#64472a" d="M183 147h2v33h-2z"/><ellipse cx="233" cy="148" fill="#1e0a00" rx="48" ry="1"/><path fill="#b7c1c0" d="M21 174h57v16H21z"/><path fill="#d9dcdc" d="M79.6 43.7l17.7 98.1 1.2-87.4-87.8-2.1z"/><path fill="#b9b1a1" d="M214 161l38 13 7-15z"/><ellipse cx="241" cy="32" fill="#fff" rx="216" ry="4"/><path fill="#727574" d="M135 67l-4-5 18 1z"/><path fill="#82857f" d="M13 46h64v2H13z"/><path fill="#dadbd1" d="M164.1 101l-28.7 3.1-1 56.1-16.6-58z"/><path fill="#7d7f7e" d="M194 25h28v3h-28z"/><ellipse cx="184" cy="70" fill="#fff" rx="86" ry="3"/><path fill="#b5af9f" d="M136 134h35v24h-35z"/><ellipse cx="236" cy="75" fill="#bdbec0" rx="136" ry="2"/><ellipse cx="46" cy="11" fill="#d3c500" rx="4" ry="2"/><path fill="#888b89" d="M210 53h37v4h-37z"/><path fill="#f0f2ef" d="M182.5 112.5l5.1-30.1L214.9 60l-.8 7.6z"/><circle r="1" fill="#fff" transform="matrix(31.38251 -4.57821 1.60043 10.97057 232.4 91.1)"/><path fill="#fff" d="M98 14h21v190H98z"/><path fill="#e3e4d8" d="M171 103h53v45h-53z"/><ellipse cx="218" cy="34" fill="#fff" rx="2" ry="13"/><path fill="#fff" d="M202.4 21.7l1-.2 2.2 12.8-1 .2z"/><ellipse cx="210" cy="46" fill="#fff" rx="110" ry="4"/><path fill="#bbc3c5" d="M89.8 164l-13.3-17.4-5.8 17.2 9 1.6z"/><path fill="#d1d5d0" d="M0 121h34v4H0z"/><path fill="#060c0c" d="M45.4 128.6l-21.5-2.9-10.1 2.4 4.5 5.7z"/><path fill="#c28b6f" d="M166 184h84v8h-84z"/><path fill="#b3ce53" d="M162 41h40v2h-40z"/><path fill="#fff" d="M94 103l97-3-45-21z"/><path fill="#999c97" d="M20 40h54v3H20z"/><ellipse cx="45" cy="36" fill="#979b96" rx="33" ry="2"/><path fill="#fff" d="M122 192l149-1-55 28z"/><ellipse cx="29" cy="50" fill="#eeefef" rx="53" ry="3"/><path fill="#fff" d="M13.5 168.5v39h-27v-39z"/><path fill="#a9b0ad" d="M19 189h31v4H19z"/><path fill="#887f6b" d="M68 54h15v22H68z"/><ellipse cx="177" cy="79" fill="#c1c1c4" rx="51" ry="2"/><path fill="#353b3a" d="M131.6 49.5l-4.6 3.8-.6-.8 4.6-3.8z"/><path fill="#fff" d="M176.1.1L194.8-16l-17.3 42.4 8.3 9.5zM108 58h106v4H108z"/><path fill="#fff" d="M165.8 34.9L131.7-16 115 71.4l45.5-67.9z"/><path fill="#f7fefe" d="M73.3 80l11.3-1.7-2.6 52.9-11.6-27.5z"/><path fill="#fff" d="M0 169h103v5H0z"/><path fill="#fffeed" d="M46 100h14v11H46z"/><path fill="#4e2e15" d="M184 157h27v4h-27z"/><path fill="#828482" d="M169.2 23.3l-18.6-3.6.2-1 18.6 3.6z"/><ellipse cx="44" cy="25" fill="#fff" rx="105" ry="4"/><ellipse cx="41" cy="178" fill="#fff" rx="61" ry="1"/></g></g></svg>