<svg xmlns="http://www.w3.org/2000/svg" viewBox="0 0 516 1400"><defs/><filter id="a"><feGaussianBlur stdDeviation="12"/></filter><rect width="100%" height="100%" fill="#36302f"/><g filter="url(#a)"><g fill-opacity=".5" transform="translate(2.7 2.7) scale(5.46875)"><circle cx="44" cy="122" r="146" fill="#fff"/><circle cx="48" cy="112" r="154" fill="#fff"/><ellipse cx="62" cy="155" fill="#fffffa" rx="36" ry="255"/><ellipse cx="15" cy="184" fill="#010000" rx="12" ry="9"/><circle r="1" fill="#a48a72" transform="rotate(34 -47.2 136.4) scale(24.71304 14.08864)"/><path fill="#a09686" d="M87.6 186L60 239.7l-1.9-71.5 26.1-6.2z"/><path d="M11 39h18v8H11z"/><path fill="#967151" d="M53 96.6l7 18.7 23.5-.3 5.3-6.9z"/><ellipse cx="19" cy="147" fill="#fff" rx="30" ry="28"/><ellipse cy="73" fill="#fff" rx="8" ry="190"/><path fill="#6d5a3f" d="M47 149h25v8H47z"/><path fill="#8d8872" d="M9 104h15v42H9z"/><path fill="#6b5644" d="M4.4 229l20.7-3.7 2.5 13.8-20.7 3.6z"/><circle r="1" fill="#fff" transform="matrix(-88.79275 27.65586 -5.54611 -17.80652 57 248.5)"/><ellipse cx="37" cy="108" fill="#fff" rx="10" ry="190"/><path fill="#a69271" d="M9 63.7l25-1.3 1 22-25 1.2z"/><ellipse cx="93" cy="162" fill="#fff" rx="9" ry="162"/><path fill="#8f8261" d="M10.4 17L6.5 50.7l26.8-35.5-4 1.4z"/><path fill="#fff" d="M9-16l-25 182.4 41.3-44.9-17.8-.6z"/><path fill="#983d11" d="M58 57h31v5H58z"/><path fill="#965428" d="M25.6 216.5l-14 2-1.2-9 14-2z"/><circle r="1" fill="#fff" transform="matrix(.94464 -10.77037 89.24701 7.82761 51.7 3.4)"/><path fill="#453632" d="M6 193l21-18H5z"/><circle cx="48" cy="84" r="3" fill="#000075"/><path fill="#e3e4dd" d="M66.2-2.7L56 9.8l6.2 39.3 39-9.6z"/><path fill="#857049" d="M57.4 192l22.2 2.8-22.4-14.5.3.4z"/><path fill="#583f24" d="M65 48h24v4H65z"/><path fill="#896a55" d="M59 166h26v6H59z"/><path fill="#b3aa9e" d="M60.4 211.2l16 .6-.8 23-16-.6z"/><path fill="#544b34" d="M18 108h8v12h-8z"/><path fill="#fff" d="M105 69H34l75 43zM75 196l34 20-30 55z"/><path fill="#912200" d="M64 113h18v3H64z"/><ellipse cx="66" cy="6" fill="#69686c" rx="12" ry="2"/><path fill="#6f665f" d="M79 171h5v28h-5z"/><circle r="1" fill="#fff" transform="matrix(-92.97454 -2.17596 .08696 -3.71552 79.9 162.3)"/><path fill="#fefeff" d="M0 84h46v20H0z"/><path fill="#fff" d="M32.1 98.1l18.4 93.2-66.5 1.1 44.9 6.2z"/><path fill="#aeb0b5" d="M41 64h50v6H41z"/><ellipse cx="1" cy="197" fill="#fff" rx="4" ry="219"/><path fill="#111a27" d="M30 40L9 47v-6z"/><path fill="#f6f6f4" d="M10 131l77-48-44 48z"/><ellipse cx="37" cy="242" fill="#fff" rx="12" ry="62"/><path fill="#887d62" d="M51 96l1 14 9-13z"/><path fill="#1c272e" d="M46 166h33v1H46z"/><path fill="#fff" d="M88.4 66l-5.1 73.1-9.8 8.6 35.5 76.4z"/><path fill="#eef0ed" d="M68.3 44.1l-8.4 16.5L-16 45l44.6 21.2z"/><path fill="#feffff" d="M102.3 222.4l5-104.2L76.8 198l-3.6-29.2z"/><path d="M17.2 140.4l-1-.3 2.6-6.5 1 .3z"/><path fill="#81645a" d="M9 80h25v5H9z"/><circle r="1" fill="#79765e" transform="rotate(-59.9 59.8 -27.3) scale(5.04006 5.54809)"/><path fill="#eeede7" d="M32.4 45.5L18.3 99.6l26.8-59.7L7.2 27.1z"/><path fill="#422508" d="M63.5 107.8l18.8-2.6.2 1-18.8 2.6z"/><path fill="#564e4b" d="M5 177h22v13H5z"/><path fill="#a1a1a5" d="M47 16h35v5H47z"/><path fill="#fff" d="M2.9 287.7L-6 257l121.1-34.7L124 253z"/><path fill="#977c56" d="M12 17h19v7H12z"/><path fill="#fff" d="M49.7 120l-37.9.1 14.5 27.5L38.8 35.8z"/><ellipse cx="93" cy="108" fill="#fff" rx="6" ry="219"/><path fill="#948a81" d="M4 226h23v16H4z"/><path fill="#746d46" d="M5 198h4v9H5z"/><path fill="#391100" d="M66.3 149.3l4 .4-.6 7-4-.4z"/><ellipse cx="73" cy="29" fill="#fff" rx="45" ry="4"/><path fill="#a37f64" d="M12 207h15v11H12z"/><path fill="#eceaea" d="M60 175.2l-6.5-35 23.4-6.7-16.4 24.6z"/><path fill="#fff" d="M109 3.4L3.5-16 2.1 68.7-16 9.4z"/><path fill="#8d725c" d="M75 222l-16-1 16-5z"/><path fill="#ad313a" d="M48 171h36v1H48z"/><ellipse cx="15" cy="211" fill="#e1f0e8" rx="11" ry="2"/><path fill="#dcdeda" d="M55.2 199.9l14.2-10.5 7.7 29-34.6-28.7z"/><path fill="#928a69" d="M8 105h20v7H8z"/><path fill="#fff" d="M0 62h94v2H0z"/><path fill="#e3e1d9" d="M57.3 68.9l7.9-47.4 19.9 27.9-28.9 1z"/><path fill="#002a8a" d="M47 82h6v5h-6z"/><path fill="#fefefe" d="M0 145h49v18H0z"/><path fill="#565c54" d="M48.8 158.2l-.6-8 7-.4.6 8z"/><path fill="#888374" d="M8 136h10v9H8z"/><path fill="#373833" d="M22.4 115.7l-14.6 3.6-.2-1 14.6-3.6z"/><path fill="#e0ded3" d="M8.7 82.5l27 104L7.2 70.9 22 74.1z"/><ellipse cx="65" cy="18" fill="#fff" rx="28" ry="1"/><path fill="#a5a4a4" d="M4 169h26v2H4z"/><path fill="#a9d02a" d="M57.6 13.2l-.1-1 15-1.4v1z"/><path fill="#feffff" d="M56.8 264.5l.5-43.5-30.7-2.3-.6 24.1z"/><path fill="#b9b9ba" d="M32.1 248l-26 1.9-.2-4 26-1.8z"/><path fill="#8d6b4e" d="M79 104h5v12h-5z"/><path fill="#eaedea" d="M75.6 183.3l3.3 18.2-16.6 36.9 17.4-53.5z"/><ellipse cx="25" cy="185" fill="#413c38" rx="2" ry="7"/><path fill="#79797b" d="M61.5 90.5h19v1h-19z"/><path fill="#71695a" d="M79.6 135.4l1.7 1.1-3 4.1-1.6-1.1z"/><path fill="#fbffff" d="M64 173h14v5H64z"/><ellipse cx="24" cy="143" fill="#797771" rx="4" ry="2"/><ellipse cx="24" cy="231" fill="#373634" rx="2" ry="6"/><path fill="#181a1b" d="M24 229h2v13h-2z"/><path fill="#adada6" d="M58 197h3v41h-3z"/><ellipse cx="68" cy="110" fill="#e2e4db" rx="20" ry="2"/><path fill="#cccec1" d="M13 29L2 39l25-1z"/><path fill="#0c0e10" d="M73.9 157l-.8-6h1l.8 6z"/><path fill="#ccc2b5" d="M76 33h13v15H76z"/><path fill="#e9ebeb" d="M6 218h28v8H6z"/><path fill="#fdfdfc" d="M12 241l-28 4.9 39.6-.9 85.4 8.7z"/></g></g></svg>