<svg xmlns="http://www.w3.org/2000/svg" viewBox="0 0 1400 933"><defs/><filter id="a"><feGaussianBlur stdDeviation="12"/></filter><rect width="100%" height="100%" fill="#32463f"/><g filter="url(#a)"><g fill-opacity=".5" transform="translate(2.7 2.7) scale(5.46875)"><circle cx="100" cy="119" r="212" fill="#fff"/><circle r="1" fill="#fff" transform="matrix(59.81548 78.53992 -202.86553 154.50105 168 114)"/><path fill="#150000" d="M36 12h50v69H36z"/><circle r="1" fill="#fff" transform="matrix(5.6379 -30.96482 250.8755 45.678 136.8 2.6)"/><ellipse cx="101" cy="126" fill="#f9f2f3" rx="255" ry="48"/><circle r="1" fill="#b9803f" transform="matrix(27.62189 19.24853 -13.55742 19.45507 92 37)"/><ellipse cy="81" fill="#fff" rx="10" ry="126"/><circle r="1" fill="#040300" transform="matrix(-33.5457 7.95486 -3.78734 -15.97126 47.7 63.7)"/><circle r="1" fill="#fff" transform="matrix(-17.4658 22.40203 -51.52071 -40.16824 164.3 18.4)"/><circle r="1" fill="#fff" transform="rotate(-121.4 15.7 22) scale(11.11594 34.97532)"/><ellipse cx="191" cy="123" fill="#731c00" rx="10" ry="8"/><path fill="#5d6e6a" d="M19 95h87v8H19z"/><path fill="#85633e" d="M14 11h106v16H14z"/><circle r="1" fill="#fff" transform="matrix(7.43532 .10234 -1.6548 120.22726 128.2 69.7)"/><ellipse cx="91" cy="2" fill="#fff" rx="74" ry="9"/><path fill="#d5ad84" d="M66 19h56v29H66z"/><ellipse cx="255" cy="68" fill="#fff" rx="10" ry="169"/><ellipse cx="222" cy="12" fill="#fff" rx="101" ry="25"/><path fill="#000a09" d="M80 64l-52 4 15-42z"/><path fill="#fff7f0" d="M142.4 134.4l-55.9-67-63.5 28 66.8-5z"/><ellipse cy="81" fill="#fff" rx="9" ry="169"/><ellipse cx="147" cy="169" fill="#fff" rx="255" ry="10"/><path fill="#000005" d="M84 11l7 12-10 14z"/><path fill="#82613c" d="M9 79l38 1-23-37z"/><path fill="#f25038" d="M174 37h16v9h-16z"/><path fill="#a49175" d="M122.5 19.7L111 34.1 86.1 81.9l33.2-2.6z"/><path fill="#fff" d="M65.9 81.4l-77.7-.6 29.7 14.9L54 93z"/><path fill="#c9c8c9" d="M212 41h35v117h-35z"/><path fill="#c5c6c7" d="M9 124h106v36H9z"/><ellipse cx="13" fill="#704246" rx="5" ry="27"/><path fill="#f2cc9a" d="M111 31.2L89.8 2.4l-1.4 30.7L81 52.9z"/><circle r="1" fill="#fffaec" transform="matrix(.89253 .89565 -27.63914 27.54283 47 22)"/><ellipse cx="50" cy="4" fill="#fff" rx="255" ry="7"/><circle r="1" fill="#f8f5f7" transform="matrix(6.69228 -5.11663 17.27928 22.60037 .1 49.4)"/><path fill="#c8c9ca" d="M135 72h35v88h-35z"/><path fill="#fffff6" d="M77.2 5.4l-27.8 26-.6-.8 27.8-26z"/><ellipse cx="116" cy="101" fill="#fff" rx="16" ry="22"/><path fill="#000003" d="M9 74h16v6H9z"/><path fill="#313b3b" d="M82.7 10l1.4 11-24.8 3-1.4-11z"/><path fill="#ffc2ae" d="M82.5 23L71.4 37.2 63.5 31l11.1-14.2z"/><path fill="#141b18" d="M37 31h23v49H37z"/><ellipse cx="128" cy="65" fill="#fff" rx="6" ry="169"/><path fill="#fff" d="M0 103h123v6H0zm206-42h50v9h-50z"/><path fill="#0b191a" d="M87 62L57 75l18-33z"/><path fill="#66346b" d="M18.6 1.7l-5.5 8.6L.3-16h14.2z"/><path fill="#be7531" d="M71 68h11v12H71z"/><path fill="#bfc0c1" d="M174 82h34v26h-34z"/><ellipse cx="252" cy="113" fill="#fff" rx="6" ry="169"/><path d="M64 90h2v10h-2z"/><path fill="#a6723f" d="M31.9 41.1L14.3 57l12.5 9.8L41 42.3z"/><path fill="#be9372" d="M38.6 68.9l16.2-.5-36.6 1L40 82.5z"/><path fill="#fff3f2" d="M-16 90.4l37.9-42.9L-6 24.3l42.6 5.4z"/><path fill="#fff" d="M188 0h24v59h-24zm12 108h11v26h-11z"/><path fill="#fffaff" d="M81 74l31-7-21-5z"/><ellipse cx="197" cy="92" fill="#fff" rx="118" ry="2"/><path fill="#fffcf4" d="M86.1-2.8l-32 31.4 24.8-38.7-43.5 23.5z"/><ellipse cx="66" cy="121" fill="#fff" rx="73" ry="3"/><path fill="#ececec" d="M70.9 92.3l-15.7 24.4L60.3 77l7.1 45.7z"/><path fill="#a48553" d="M116.8 68.4l-15.6-4.1-18.9-5.1 34.5-19.9z"/><path fill="#fbfafa" d="M173.1 143.4l-4.6-111.2 13.2 96-56 2.4z"/><path fill="#1b2322" d="M41.8 50.2l-7.5-32.9L62.6 83 24.7 65z"/><path fill="#caa77d" d="M60 37h43v8H60z"/><path fill="#724825" d="M10 11h19v14H10z"/><path fill="#fff" d="M0 81h126v5H0z"/><circle r="1" transform="rotate(94.6 -39 53.7) scale(4.48135 1)"/><path fill="#b9babb" d="M177 139h28v17h-28z"/><path fill="#6a7673" d="M36.2 107.1l1.7-10.5 10.4-1 11.8-2.4z"/><path fill="#fff" d="M82 136h37v5H82z"/><path d="M98 95h2v8h-2z"/><path fill="#fff" d="M20 113l1-16-8-4z"/><ellipse cx="180" cy="165" fill="#fff" rx="247" ry="6"/><ellipse cx="194" cy="16" fill="#fff" rx="73" ry="21"/><ellipse cy="55" fill="#fff" rx="9" ry="169"/><path fill="#c1c2c3" d="M29 109h90v7H29z"/><path fill="#b1aeaf" d="M139 47h41v6h-41z"/><path fill="#95521f" d="M191 123l-10 6 21 1z"/><path fill="#3f554f" d="M71 92h7v9h-7z"/><path fill="#00070c" d="M34.6 27.3l-.6-.8 19.4-15.8.6.8z"/><path fill="#ebffff" d="M26.7 59.2l-.4-4 5-.4.4 4z"/><path fill="#001112" d="M60 29.3l-2.8-3L74 10.8l2.8 3z"/><path fill="#041918" d="M40.8 31.6l23-20.7 1.4 1.5-23 20.7z"/><ellipse cx="152" cy="134" fill="#5b5b5b" rx="17" ry="1"/><path fill="#67492a" d="M119 11.6l4.3-.1-2.6 5-23.1-5.4z"/><path fill="#171c1b" d="M46 33h13v48H46z"/><path fill="#4d4b4c" d="M176 60h32v1h-32z"/><path fill="#fff" d="M188 107l-15 38-4-37z"/><path fill="#dcba9c" d="M32.5 16.8l16.6-9.9L39.5 20l-6 5.4z"/><path fill="#fff" d="M207 133h49v3h-49z"/><circle r="1" fill="#f8b8b1" transform="matrix(-54.33412 -.45172 .00831 -.99997 55.9 87)"/><path fill="#626161" d="M210 65h35v1h-35z"/><path fill="#fcfcfd" d="M115.8 53.9L135.4 35l-4.3 66.4L119.7 69z"/><path fill="#fff" d="M33 98h4v11h-4zM208 0h3v170h-3z"/><ellipse cx="45" cy="151" fill="#fff" rx="2" ry="33"/><ellipse cx="56" cy="97" fill="#000300" rx="1" ry="6"/><ellipse cx="74" cy="96" fill="#fff" rx="1" ry="12"/><ellipse cx="226" cy="92" fill="#7c7d7d" rx="15" ry="1"/><circle r="1" fill="#061b1a" transform="matrix(-3.85837 -4.62094 3.15555 -2.6348 83.2 17.4)"/></g></g></svg>