<svg xmlns="http://www.w3.org/2000/svg" viewBox="0 0 1400 1120"><defs/><filter id="a"><feGaussianBlur stdDeviation="12"/></filter><rect width="100%" height="100%" fill="#334759"/><g filter="url(#a)"><g fill-opacity=".5" transform="translate(2.7 2.7) scale(5.46875)"><circle cx="145" cy="112" r="191" fill="#fff"/><circle cx="84" cy="73" r="228" fill="#fffbee"/><circle r="1" fill="#010000" transform="matrix(17.82398 -17.80176 25.72054 25.75265 164.2 81.3)"/><circle r="1" fill="#191618" transform="matrix(8.55312 -21.49305 46.34938 18.44466 42.4 68.7)"/><circle r="1" fill="#1f4520" transform="rotate(-36.9 324.6 -288) scale(43.25989 26.08346)"/><circle r="1" fill="#fff" transform="matrix(-252.75996 -33.72538 6.28333 -47.09138 146 -.1)"/><ellipse cx="186" cy="198" fill="#fff" rx="238" ry="32"/><path d="M102 57h9v46h-9z"/><path fill="#0c0000" d="M199 110l-7-24-59 21z"/><path fill="#263a3f" d="M0 42h44v44H0z"/><circle r="1" fill="#fff" transform="matrix(-40.42746 43.09041 -35.58996 -33.39053 233.6 47)"/><path fill="#978484" d="M37.9 40.9l48-1.7 2.2 64-48 1.6z"/><ellipse cx="63" cy="111" fill="#fff" rx="77" ry="9"/><path fill="#437659" d="M207 105h47v26h-47z"/><ellipse cx="123" cy="88" rx="2" ry="17"/><circle r="1" fill="#fff" transform="matrix(166.8631 -7.04514 1.17312 27.78507 127.8 1.3)"/><circle r="1" fill="#fff" transform="matrix(-182.27745 -1.27256 .1273 -18.23505 167.1 196.6)"/><path fill="#fff" d="M116 102h17v102h-17z"/><path fill="#fffffb" d="M60 80l-9-44h19z"/><path fill="#e7dfd0" d="M222.7 150.4l-11.6-2.7 16.2-70.1 11.6 2.7z"/><path fill="#413d30" d="M137 50h43v34h-43z"/><path fill="#161313" d="M200.7 165.4l31.3 1.5-28.8-26.2-2 15.4z"/><path fill="#fff" d="M254 0h2v204h-2z"/><path fill="#f3f1f2" d="M0 85h41v77H0z"/><path fill="#f4f6fa" d="M81 39h19v50H81z"/><path fill="#7d7c7d" d="M133 35h53v8h-53z"/><path fill="#9b9a9b" d="M12 28h109v9H12z"/><path fill="#524e67" d="M80.2 92.5l57.5.2-94.6 13.6L36.6 77z"/><circle r="1" fill="#e5e3e5" transform="rotate(14 -487.4 778.1) scale(29.53499 31.47752)"/><path fill="#fff8df" d="M125 84h23v13h-23z"/><ellipse cx="163" cy="83" fill="#a6a28d" rx="6" ry="27"/><path fill="#001032" d="M38 85l2-33L9 72z"/><ellipse cx="129" cy="40" fill="#fff" rx="4" ry="203"/><path fill="#de986a" d="M179 65h11v25h-11z"/><path fill="#2d1a11" d="M133 101h60v9h-60z"/><circle r="1" fill="#fff" transform="rotate(86.2 14.2 218.3) scale(22.47318 63.74643)"/><path fill="#fff" d="M71 56h4v19h-4z"/><path fill="#00002f" d="M107 81l8-15-17 1z"/><path fill="#00000b" d="M105 101l-6-11 23 3z"/><path fill="#f7f1f2" d="M96 38h26v28H96z"/><path fill="#35643e" d="M230 105h23v42h-23z"/><path fill="#ad5400" d="M240 159h14v7h-14z"/><path fill="#f3f3f3" d="M87 54l1 51 18-22z"/><ellipse cx="99" cy="145" rx="20" ry="1"/><path fill="#bcbbbc" d="M204 50h38v22h-38z"/><ellipse cx="105" cy="7" fill="#fff" rx="254" ry="22"/><path fill="#4e4f49" d="M133 50h45v34h-45z"/><circle cx="75" cy="48" r="7" fill="#5d412a"/><path fill="#fdfff8" d="M46 87.4l2-35 4 .2-2 35z"/><path fill="#fff" d="M6 206.5H-6v-119H6z"/><path fill="#fcfafb" d="M76 104l-38-1 42 76z"/><ellipse cx="31" cy="38" fill="#fff" rx="70" ry="3"/><path fill="#0a3b24" d="M213.3 129.1l4.3-20.9-4.4-3.5-2.8 18.6z"/><path fill="#fff" d="M40 30h1v148h-1zm31 80h136v9H71zm40 60l139 49-266-20z"/><path fill="#a7a28d" d="M34.8 95.2L-16 64.1l54.2-20.8-54.2 6.1z"/><path d="M88 120h35v1H88z"/><path fill="#fff" d="M254 11h2v193h-2z"/><ellipse cx="210" cy="131" fill="#fff" rx="7" ry="3"/><ellipse cx="85" cy="82" fill="#222c3a" rx="2" ry="17"/><path fill="#fcfafd" d="M111.1 90.7l-20-25.1 11.8 24.2 20-24.2z"/><path fill="#0e1004" d="M205.8 167.7l5.6-5.7-8.5-23.4-1.8 26.6z"/><path fill="#3f3b41" d="M56 58l-1 36-11-4z"/><path fill="#5a3e30" d="M52.2 51L40 40.5l6.6 37.6.3-46.3z"/><ellipse cx="82" cy="66" fill="#f7fcf8" rx="2" ry="49"/><path fill="#fffef7" d="M259 77l-82 9 27-18z"/><path fill="#d8d7d7" d="M132 113h69v68h-69z"/><path fill="#000013" d="M123 57h2v46h-2z"/><path fill="#783f27" d="M82 103L66 93l-2-26z"/><path fill="#fff" d="M27.5 83.6l-.3 2.7 13.8.5-1.6 35.7z"/><path fill="#d3d1d2" d="M6 123h69v59H6z"/><path fill="#1a021f" d="M198.2 100.4l-25-14.6-7.5 19 21.2 6.3z"/><path fill="#afacae" d="M85 152h33v18H85z"/><path fill="#76736c" d="M166.6 71.7l-26 5.9 21.8-22.2 28.5 14.9z"/><path fill="#c5d5ca" d="M242.5 163.5h-11v-13h11z"/><path fill="#bca989" d="M234.9 108.1L204.6 84h-50.5l73 5.5z"/><ellipse cx="124" cy="139" fill="#fff" rx="5" ry="35"/><path fill="#fffffd" d="M225 126l4-9-6-15z"/><path fill="#fff" d="M111 70h11v23h-11z"/><circle cx="244" cy="116" r="5" fill="#85d4cc"/><path fill="#625540" d="M51 49H-3v-8h54z"/><path d="M166 36h2v8h-2z"/><path fill="#f8f4e9" d="M189.6 121.6l19.3.6-1.3-44.2 1.5.9z"/><path fill="#1f0700" d="M148.6 88l5.5-10.7 5.3 2.7-5.5 10.7z"/><path fill="#b0b1cf" d="M68 91l2 7-24-3z"/><ellipse cx="97" cy="142" fill="#fff" rx="27" ry="2"/><path fill="#20202d" d="M93 58h24v1H93z"/><path fill="#45382e" d="M64 58h7v19h-7z"/><path fill="#2d2d22" d="M6 28h1v26H6z"/><path fill="#a69d80" d="M138.4 88.5l9.9 1.2-2.7 21.8-9.9-1.2z"/><path fill="#b9b196" d="M166.6 103.7l-6.3-.7-1.9-17.2 11.7-1.6z"/><path fill="#7d5c42" d="M181.6 66.6l6.1 12.9 5.1-5.1-8.7-7.7z"/><ellipse cx="58" cy="39" fill="#fff" rx="75" ry="2"/><path fill="#313d7c" d="M41 98h27v5H41z"/><path fill="#fff" d="M261.5 13.5v37h-71v-37zM22 104h102v16H22z"/><path fill="#2a1513" d="M169.1 59.4l13.4 8.4-16.1 39.6 15.1.1z"/><path d="M153 36h2v8h-2z"/><path fill="#3b6f69" d="M201.1 131.4l-1-2.8 14.8-6 1 2.8z"/></g></g></svg>