<svg xmlns="http://www.w3.org/2000/svg" viewBox="0 0 1400 1120"><defs/><filter id="a"><feGaussianBlur stdDeviation="12"/></filter><rect width="100%" height="100%" fill="#444343"/><g filter="url(#a)"><g fill-opacity=".5" transform="translate(2.7 2.7) scale(5.46875)"><circle cx="107" cy="71" r="203" fill="#fff"/><circle cx="210" cy="203" r="243" fill="#f9fbf0"/><path fill="#5d6965" d="M58 45h145v34H58z"/><path fill="#6d686c" d="M34 127h72v59H34z"/><circle r="1" fill="#fff" transform="rotate(-77.7 231 -66) scale(95.03908 39.66464)"/><path fill="#274f3a" d="M225 49h31v33h-31z"/><circle r="1" fill="#5b6f63" transform="matrix(10.2977 11.80448 -21.5083 18.76289 146.9 138)"/><ellipse cx="58" cy="90" fill="#fffbf1" rx="9" ry="200"/><ellipse cx="130" cy="100" fill="#fcfbfc" rx="104" ry="23"/><circle cx="221" cy="10" r="45" fill="#fffff8"/><path fill="#6a8e7c" d="M181 125h35v34h-35z"/><ellipse cx="183" cy="178" fill="#fcfefa" rx="82" ry="20"/><circle r="1" fill="#fff" transform="matrix(-46.65723 -1.95552 .63711 -15.2011 14.4 74.3)"/><ellipse cx="7" fill="#fff" rx="27" ry="23"/><path fill="#6d6140" d="M-3 57.3L.1 21.5 37 24.7l-3.1 35.8z"/><path fill="#fff" d="M95 60h18v56H95z"/><ellipse cx="43" cy="158" fill="#4b3433" rx="9" ry="24"/><path fill="#fff" d="M154 46h14v35h-14z"/><path fill="#45556d" d="M122 81l41-33-11-22z"/><path fill="#34392a" d="M106 54l-24 5 20-37z"/><path fill="#fffff9" d="M111 199L6 219l-22-52z"/><path fill="#a88080" d="M24.8 135.2L-6.6 129l7.8-40.3L32.6 95z"/><path fill="#768185" d="M68 121h33v72H68z"/><path fill="#f3efde" d="M95 24L32-5l43 70z"/><ellipse cx="36" cy="23" fill="#17275b" rx="8" ry="12"/><path fill="#62705d" d="M147 186h-20l7 32z"/><ellipse cx="215" cy="69" fill="#fff" rx="11" ry="38"/><path fill="#7b8183" d="M163.5 102.7l-19.9 56.1 26.1-6.5 2-34.1z"/><path fill="#917e5c" d="M57.4 79.8l42.3-1.3L58 43.8l2.6 17.1z"/><path fill="#455d7e" d="M152.6 79.2l-34.9-2.4 1.7-24 34.9 2.4z"/><path fill="#fff" d="M127 151l-14-44-11 100z"/><ellipse cx="109" cy="65" fill="#f8f4f5" rx="5" ry="38"/><path fill="#865c6f" d="M213 107h13v20h-13z"/><path fill="#f9f8fb" d="M89 25l-49 8-12 45z"/><path fill="#fffff6" d="M229 85h27v119h-27z"/><circle r="1" fill="#7d5b49" transform="matrix(-1.68451 .02646 -.14409 -9.17233 60.4 97)"/><path fill="#756676" d="M15 163l12-26-15-5z"/><path fill="#fffff3" d="M27.1 163.2l.8 45-39 .6-.8-45z"/><path fill="#fff" d="M57.5 192.2l3-1 6.3-65.3-8.1-13.5z"/><ellipse cx="124" cy="5" fill="#d8d4b7" rx="80" ry="26"/><path fill="#856c6a" d="M45.1 145.4l-7.9-1 3.7-29.8 7.9 1z"/><ellipse cx="89" cy="150" fill="#e3ddc7" rx="17" ry="4"/><path fill="#15172d" d="M78 153h8v11h-8z"/><path fill="#677b76" d="M167.7 93.8l12.6-20.3 2.1-33.2-14.1 36.6z"/><path fill="#7b7f74" d="M105 61V20L87 41z"/><ellipse cx="171" cy="199" fill="#ebece8" rx="30" ry="47"/><path fill="#575e67" d="M144 29h16v17h-16z"/><path fill="#3f572d" d="M82 186l4-11 12 18z"/><ellipse cx="126" cy="146" fill="#5f6d60" rx="2" ry="27"/><path fill="#eceee4" d="M163.8 7.7l83.4 36.1-76.9 2.7-12.7 53.1z"/><path fill="#9b857a" d="M28 174h30v12H28z"/><path fill="#6c8472" d="M225 47h31v23h-31z"/><ellipse cx="76" cy="44" fill="#edeae5" rx="19" ry="5"/><path fill="#717790" d="M94.4 147.8l15.8-4.9-1.5-15.9-31.3-5.9z"/><path fill="#ecedf1" d="M24.5 25.5l-38.9-4.2L4.9 9.8l18.6-3.9z"/><path fill="#f4f2f0" d="M137.2 100l-22.2 6.6-14.6 27.2L60.5 81z"/><path fill="#8a8a79" d="M117 187h92v2h-92z"/><path fill="#f4f3ee" d="M117.5 193.5l-74-3.7 85.3 14.4 4-13.4z"/><path fill="#967657" d="M31 105l-47-12 33-4z"/><path fill="#526783" d="M115 51h4v39h-4z"/><path fill="#fff" d="M0 60h44v26H0z"/><path fill="#2a2619" d="M78.6 57.6l13.2-11.3 5.2-.2-11.9 14.6z"/><path fill="#eeefed" d="M193.1 83.6l-29.7 42.8 51.8-3.9-2.9-45.8z"/><path fill="#c5b8a1" d="M156 45l2 10-29 4z"/><path fill="#4f7072" d="M184.8 64.2l7.2-18.7 11.2 4.3-7.2 18.7z"/><path fill="#f2e4e4" d="M26 99v63l18-56z"/><ellipse cx="167" cy="106" fill="#b1b2a5" rx="51" ry="2"/><path fill="#fff1ec" d="M19.5 210.4l-11-86.8L-16 197l46-42.5z"/><path fill="#f7f9f5" d="M178 115l-10 28 15 19z"/><path fill="#525361" d="M82 165l-22-9 4-6z"/><path fill="#eae6d6" d="M84 136l-1-15-11 13z"/><circle r="1" fill="#fbf3e0" transform="matrix(-2.12148 -19.62835 29.09118 -3.14425 53.8 202.4)"/><ellipse cx="121" cy="23" fill="#dddac8" rx="92" ry="5"/><path fill="#aaa9a9" d="M107.6 174l3.9-34.1-44.6 54.3 8-12.9z"/><ellipse cx="79" fill="#c6c3aa" rx="88" ry="9"/><path fill="#fafcf5" d="M219 211l-4-83 34-10z"/><path fill="#5c5658" d="M66 78l28-1-1-14z"/><path fill="#e5e5e5" d="M153 51v70l16-46z"/><ellipse cx="117" cy="155" fill="#f7f6f6" rx="8" ry="48"/><path fill="#434b61" d="M32 8h12v14H32z"/><path fill="#738374" d="M127.1 202.1l-33 1.7 39.2 14.8 6.6-35z"/><path fill="#ebe9e9" d="M95 63h18v45H95z"/><path fill="#5a6b7e" d="M119 45h26v29h-26z"/><path fill="#636462" d="M172 117l-17 11 8-19z"/><circle cx="227" cy="12" r="35" fill="#f3f7e9"/><path fill="#7e9087" d="M127 135h33v24h-33z"/><path fill="#595f67" d="M186 142l-5 17 8-2z"/><path fill="#ada582" d="M82.3 62.5l-23.5-22 3.1 56.6-5.8-10.8z"/><path fill="#4a4b42" d="M37 156h11v24H37z"/><path fill="#e2e4e6" d="M104 34l42 12-8-25z"/><path fill="#fdfafa" d="M100.7 122.3L70.2 75.9l-12 40.8 31.2 5.9z"/><path fill="#fffffe" d="M59 102h5v76h-5z"/><path fill="#9d8184" d="M44.2 140.8l11 35.5-9.2-66.5L27.7 172z"/><path fill="#414049" d="M119 189h9v2h-9z"/><path fill="#1c322e" d="M255 36h1v26h-1z"/><path fill="#f5f6f6" d="M100 159h71v4h-71z"/><path fill="#af95ab" d="M32.9 50.7l-3.6-12.2 2.2-21.1-12.7 23.4z"/><path fill="#5b7d40" d="M81.8 171.6l-2 6.3-3.7 3.4-14.1-6.1z"/><circle r="1" fill="#525d87" transform="matrix(5.83007 -3.89607 3.05254 4.5678 88.3 127.4)"/><circle cx="83" cy="84" r="2"/></g></g></svg>