<svg xmlns="http://www.w3.org/2000/svg" viewBox="0 0 933 1400"><defs/><filter id="a"><feGaussianBlur stdDeviation="12"/></filter><rect width="100%" height="100%" fill="#593b3a"/><g filter="url(#a)"><g fill-opacity=".5" transform="translate(2.7 2.7) scale(5.46875)"><circle cx="67" cy="151" r="198" fill="#fff"/><circle r="1" fill="#fff" transform="rotate(-117.8 74 39.5) scale(169)"/><path fill="#422d1a" d="M154 142l-61.2-9.7L102 74l61.2 9.7z"/><path fill="#c4873a" d="M166.6 29.3l1.8 52-43 1.4-1.8-52z"/><circle cx="40" cy="14" r="91" fill="#fffffe"/><path fill="#f4fdf7" d="M-1.5 141h169v186h-169z"/><circle cx="11" cy="22" r="9" fill="#8f0000"/><path fill="#fdcf98" d="M143 68h25v54h-25z"/><ellipse cx="137" cy="5" fill="#fff" rx="128" ry="26"/><ellipse cx="32" cy="136" fill="#9ca29a" rx="18" ry="34"/><path fill="#5c5b5d" d="M95 85h45v55H95z"/><ellipse cx="3" cy="129" fill="#fff" rx="14" ry="105"/><path fill="#a2a797" d="M3 139h138l-89-34z"/><path fill="#5b5143" d="M162.6 122.8l-21.5 2.4 17.4 16.2 10.5-2z"/><circle r="1" fill="#feffff" transform="matrix(.03839 .99926 -46.7475 1.79586 153.1 133.5)"/><path fill="#fff" d="M100 76l-11 46-65-41z"/><ellipse cx="168" cy="97" fill="#fff" rx="2" ry="197"/><path fill="#926b4d" d="M142 30l-21 1 3 28z"/><ellipse cx="83" cy="137" fill="#706b5a" rx="99" ry="3"/><circle r="1" fill="#fff" transform="matrix(-7.55189 -79.89064 9.1303 -.86307 56.3 222.6)"/><ellipse cx="34" cy="133" fill="#fff" rx="105" ry="2"/><path fill="#fff" d="M-16 244.5L21.3 271 10.8 128.1.8-11.8z"/><ellipse cx="116" cy="172" fill="#d3d4d0" rx="51" ry="29"/><ellipse cx="51" cy="46" fill="#a9aaa1" rx="36" ry="4"/><ellipse cx="112" cy="117" fill="#ffdad7" rx="6" ry="5"/><path fill="#7a4034" d="M70 129h76v4H70z"/><path fill="#8c8b8a" d="M65.7 117.6l-47.5 6.7-2-13.9 47.6-6.7z"/><ellipse cx="125" cy="255" fill="#fff" rx="133" ry="10"/><path fill="#afb0a8" d="M14 57h69v7H14z"/><path fill="#dec1a9" d="M173.4 117l-45.9-1.7 42.9 15.9-64.6-88.5z"/><path fill="#c59a66" d="M139 63h26v39h-26z"/><path fill="#524e55" d="M104.6 79.2l28.6 14.5-11.8 23.1-28.6-14.5z"/><circle r="1" fill="#fbf8f3" transform="rotate(73.3 71.5 96) scale(22.40592 129.23386)"/><ellipse cx="39" cy="74" fill="#a9aca4" rx="25" ry="4"/><path fill="#fff" d="M172.5 29v104h-7V29z"/><ellipse cx="63" cy="142" fill="#fff" rx="129" ry="2"/><path fill="#0ecd2f" d="M71 121h21v3H71z"/><path fill="#f9eace" d="M95 20h27v58H95z"/><path fill="#fff2bf" d="M132 51h23v10h-23z"/><path fill="#e1ece0" d="M76 94l-28 39 37-7z"/><path fill="#898481" d="M74 8h32v3H74z"/><path fill="#f5baa4" d="M24 18h46v7H24z"/><path fill="#85675a" d="M123 31h42v8h-42z"/><circle r="1" fill="#fff" transform="rotate(-88.3 182.9 8.5) scale(57.6028 5.60559)"/><path fill="#d3d4d0" d="M17 176h29v73H17z"/><ellipse cx="68" cy="137" fill="#dcdedc" rx="68" ry="1"/><path fill="#fff" d="M144 103h26v5h-26z"/><path fill="#b78e85" d="M127 66.7l8.4 8.7L121 89.3l-8.4-8.7z"/><path fill="#5a5b56" d="M95 123h72v10H95z"/><ellipse cx="115" cy="229" fill="#d6d7d4" rx="49" ry="19"/><path fill="#e3eaf0" d="M13 121h25v14H13z"/><path fill="#734f51" d="M127 112h40v3h-40z"/><path fill="#fff" d="M102 134h68v1h-68z"/><path fill="#fcfffe" d="M64.1 84.3L-16 111.4l51-4.5-38.8-32.2z"/><path fill="#c0c1c4" d="M90.4 21l57-2 .2 6-57 2z"/><path fill="#fefffd" d="M93 134L73 68l20-8z"/><path fill="#b86a38" d="M161.4 44l-9.3-4.5-7.2 9.4 20.8-.7z"/><path fill="#2a2109" d="M13 140l-3-5h9z"/><ellipse cx="18" cy="51" fill="#534b3e" rx="1" ry="14"/><path fill="#eed5ab" d="M103.3 85.3L94 93l-1.9-15.3 2.8-38.6z"/><circle r="1" fill="#fff" transform="matrix(-68.18359 -10.55538 2.51554 -16.24943 146.2 3.2)"/><path fill="#85655b" d="M136 95h30v6h-30z"/><ellipse cx="50" cy="106" fill="#605d54" rx="11" ry="2"/><path fill="#fff" d="M45 216l20 55V142z"/><ellipse cx="115" cy="139" fill="#4d4732" rx="99" ry="1"/><path fill="#acaca1" d="M31 170l-14 1v-28z"/><path fill="#fdfffd" d="M0 33h17v101H0z"/><ellipse cx="39" cy="98" fill="#c4c7c3" rx="31" ry="3"/><path fill="#ff816a" d="M70 129h22v4H70z"/><path fill="#f7efe8" d="M170 116l-20 6-12-7z"/><path fill="#e9cf9e" d="M166 78l-14 12-21-13z"/><path fill="#3a351c" d="M139 136h29v3h-29z"/><path fill="#3dbe4a" d="M73 121h16v4H73z"/><path fill="#d3d3d0" d="M140 140h23v27h-23z"/><ellipse cx="97" cy="205" fill="#fff" rx="2" ry="65"/><path fill="#ebded3" d="M179.1 131.3l-6.1 30.2-6.4-38-11.6 2.6z"/><path fill="#fffffe" d="M30 29h92v13H30z"/><path fill="#fff" d="M146 174h24v8h-24z"/><circle r="1" fill="#fff" transform="matrix(.01857 7.35724 -109.85593 .27724 72.4 255)"/><path fill="#e9b8b3" d="M108 112h11v9h-11z"/><path fill="#dbd5cd" d="M65.4 104.9l32 2.2-.8 10-32-2.2z"/><path fill="#fdfffd" d="M36 46h5v49h-5z"/><ellipse cx="80" cy="133" fill="#fff" rx="16" ry="2"/><path fill="#8f5735" d="M6 16h11v14H6z"/><path fill="#fbfffd" d="M16 49h46v4H16z"/><ellipse cx="74" cy="138" fill="#cfd0ca" rx="56" ry="1"/><ellipse cx="130" cy="216" fill="#fff" rx="2" ry="74"/><path fill="#68676a" d="M49 128l-12-3 17-2z"/><path fill="#fbffff" d="M55 133h115v2H55z"/><path fill="#f7dfd2" d="M62.7 141.1l-19.6 7.5 27.7 36.6L47 174.6z"/><path fill="#575554" d="M94.2 133l5.3-.8 11.2-1.3-8.5-48.5z"/><ellipse cx="28" cy="1" fill="#fff" rx="169" ry="6"/><path fill="#fff4ee" d="M64 125h29v4H64z"/><path fill="#c9a688" d="M122.2 43.5l22-7.9L116 69.8l5.6 27.4z"/><path fill="#d5d6d2" d="M66 144h30v53H66z"/><path fill="#c8c8c8" d="M37 120l-10-14 31 18z"/><path fill="#f6f6f3" d="M67.6 78.2l-25.9 6 29.8 34.1-15.3-94.1z"/><path fill="#6a6065" d="M130.6 69.7l12.7 49.9-34.2-43.7 10.4 33.8z"/><path fill="#716d6c" d="M47.6 112.6l9.4 3.8 6.1 5.5-28.8-11.4z"/><ellipse cx="22" cy="22" fill="#ebd3c6" rx="24" ry="2"/></g></g></svg>