<svg xmlns="http://www.w3.org/2000/svg" viewBox="0 0 516 1400"><defs/><filter id="a"><feGaussianBlur stdDeviation="12"/></filter><rect width="100%" height="100%" fill="#36302f"/><g filter="url(#a)"><g fill-opacity=".5" transform="translate(2.7 2.7) scale(5.46875)"><circle cx="58" cy="137" r="154" fill="#fff"/><ellipse cx="37" cy="149" fill="#fff" rx="93" ry="188"/><circle cx="62" cy="141" r="155" fill="#f6f2eb"/><path d="M3.5 177h23v14h-23z"/><ellipse cx="16" cy="69" fill="#9a9789" rx="9" ry="78"/><path fill="#81451e" d="M88.3 50.7l-.6 12-28-1.4.6-12z"/><path fill="#87776b" d="M5 175h21v65H5z"/><path fill="#928572" d="M83.1 196.1l-26.9-2.3 2.7-30 26.9 2.4z"/><ellipse cx="18" cy="43" rx="11" ry="4"/><ellipse cx="41" cy="237" fill="#fff" rx="15" ry="225"/><path fill="#967556" d="M82.3 116.1l-22.1-1.4L49 95.3l34.8 10.6z"/><path fill="#fff" d="M95 271l14-121-63 121z"/><path fill="#6f5d41" d="M49 149h24v9H49z"/><circle r="1" fill="#fff" transform="matrix(1.27143 -13.70562 79.79217 7.4021 45.8 .4)"/><path fill="#6a5c3c" d="M48 33h12v15H48z"/><ellipse cx="93" cy="184" fill="#fff" rx="10" ry="166"/><ellipse cy="103" fill="#fff" rx="7" ry="108"/><path fill="#fdffff" d="M109 73.5L-16 89l26.6 82.5-7.7-64.6z"/><path fill="#a6a08e" d="M58 183h16v51H58z"/><path fill="#4b4835" d="M28 118l-20 1 14-14z"/><path fill="#fafefa" d="M-15.4 241.5l32.1-35.2 28.2-15.2-60.9 2.6z"/><path fill="#887047" d="M8 17h23v9H8z"/><path fill="#a0968c" d="M8.9 85.2l46.2-2.8L49 94.6 21.4 62.5z"/><path fill="#fff" d="M77.3 271l-51.8-43.6-41.5-10.9 66.7 3.1z"/><ellipse cx="15" cy="54" fill="#f0f4f3" rx="73" ry="4"/><path fill="#fbfefd" d="M48 129l-64 3 85-33z"/><path fill="#8e8068" d="M48 47h41v6H48z"/><path fill="#fff" d="M109 119l-6-50-66 1z"/><path fill="#7a7c7e" d="M55 5h26v3H55z"/><ellipse cx="65" cy="162" fill="#fff" rx="93" ry="4"/><path fill="#f7ffff" d="M79 172l-1 23-14-23z"/><path fill="#3b3537" d="M5 176h22v15H5z"/><circle r="1" fill="#fff" transform="matrix(6.8332 -.06783 .90732 91.3968 39.7 132.3)"/><path fill="#736d5b" d="M9 134h11v11H9z"/><path fill="#7e7164" d="M6 226h20v16H6z"/><path fill="#fff" d="M-8 253l92 18 25-42z"/><path fill="#a07f80" d="M47 165h10v8H47z"/><path fill="#9e4b22" d="M59 112h27v4H59z"/><path fill="#fff" d="M90 91l19 88-34-20z"/><path fill="#0133a0" d="M47 82h8v5h-8z"/><path fill="#fff" d="M102.8-16L74.1 15.7 81.9-16 92.3 84.5zM6.6 149.1L60.8 161l-76.8 5.2L9.9 42.7z"/><path fill="#a1a4a7" d="M44 64h44v6H44z"/><path fill="#959079" d="M4.3 106.7l23.6-3.3-.3 11.8-8 7.7z"/><path fill="#a06943" d="M12 208h15v9H12z"/><ellipse cx="1" cy="255" fill="#fff" rx="4" ry="255"/><path fill="#e3e4e4" d="M62.8 153.6l18.4-19.7-33.5-34.2 9.1 59.5z"/><path fill="#805640" d="M13 80h20v4H13z"/><path fill="#847b67" d="M77.6 198l2-7.7 6.8 1.7-2 7.7z"/><path fill="#fff" d="M-5.5-5l85.8-6 1.2 16-85.8 6z"/><ellipse cx="77" cy="29" fill="#fff" rx="50" ry="4"/><path fill="#422409" d="M64 106h20v2H64z"/><ellipse cx="64" cy="166" fill="#212c31" rx="17" ry="1"/><path fill="#a5a8ac" d="M48 16h36v5H48z"/><path fill="#918a72" d="M57.9 109.6l-7.9-1.4 2.1-11.8 7.9 1.4z"/><path fill="#fff" d="M53 70h27v21H53z"/><path fill="#9c8875" d="M76 221l-24 1 21-8z"/><path fill="#453d47" d="M79 171h5v10h-5z"/><path fill="#9c512c" d="M59.6 61.5l-.2-4 29-1 .2 4z"/><ellipse cx="36" cy="202" fill="#fff" rx="9" ry="125"/><path fill="#e7e6db" d="M53 45h11v13H53z"/><path fill="#eef1f3" d="M27.8 97.7l-3.1-23.5-4.9 16.2 49.5-6z"/><path fill="#fdfefe" d="M99.1 271l-36.2-78.4 20.1 7.3 26-127.8z"/><path fill="#030d18" d="M23 39l-13 1-1 5z"/><path d="M5 225h1v14H5z"/><path fill="#968665" d="M75.5 185.7l-16 8.5-.8-14.3 16.7 21.5z"/><path fill="#fff" d="M55 168h3v88h-3z"/><path fill="#e0eae2" d="M28 209v3l-26 1v-3z"/><path fill="#583819" d="M65 149h5v7h-5z"/><path fill="#fdffff" d="M49-16L28 32l12 62z"/><path fill="#cccdcf" d="M47 121h13v25H47z"/><path fill="#ebf0f2" d="M0 218h39v8H0z"/><path fill="#fdfefc" d="M0 102h79v2H0z"/><ellipse cx="62" cy="18" fill="#fff" rx="25" ry="1"/><path fill="#aa2c32" d="M49 171h34v1H49z"/><ellipse cx="61" cy="147" fill="#fff" rx="72" ry="2"/><path fill="#939188" d="M27 143l-13-7-8 9z"/><circle r="1" fill="#aaa99b" transform="matrix(.03023 13.8431 -2.00509 .00438 6.4 199.8)"/><path fill="#b1592e" d="M26 80h8v5h-8z"/><path fill="#14191d" d="M24 225h2v18h-2z"/><ellipse cx="65" cy="11" fill="#a3cd25" rx="8" ry="1"/><path fill="#fdfeff" d="M7 136l-23-57L9 14z"/><path fill="#fff" d="M44 158h50v8H44z"/><path fill="#f4f4f2" d="M15.3 142.6l.9-17 90.2-10-122.4 6.2z"/><path fill="#3b342c" d="M20 119l4 1-2-15z"/><path fill="#c3b797" d="M9 64h25v16H9z"/><path fill="#ecedee" d="M21.8 49.6L-16 61l43.1 3.8.7 9.5z"/><path fill="#5e6156" d="M50 158l-3.7-1.7 3.7-8.2 3.7 1.6z"/><path fill="#cdcbc4" d="M74.8 220.8l2.4-5.9-8.6-25.5-13.8 9.2z"/><ellipse cx="49" cy="205" fill="#cccfcc" rx="2" ry="29"/><path fill="#472910" d="M67 50h21v2H67z"/><ellipse cx="60" cy="136" fill="#fff" rx="16" ry="3"/><path fill="#e4e6e2" d="M86.3 81.6L56.5 93.4l12 18.6-14.9 2.2z"/><circle cx="79" cy="138" r="3" fill="#8b877b"/><path fill="#a9d134" d="M56 12h17v1H56z"/><path fill="#fff" d="M109 140.5l-37.7-.8 35.7 69.9-20.7-15z"/><circle r="1" fill="#fdfeff" transform="rotate(-102 134.4 98) scale(19.81959 69.58077)"/><path fill="#afafb1" d="M13 245h18v4H13z"/><path fill="#e9e9e5" d="M34.9 40.2l7 24.1-21.8-32.9L50.6 38z"/><path fill="#b1b09a" d="M8 23h20v9H8z"/></g></g></svg>