<svg xmlns="http://www.w3.org/2000/svg" viewBox="0 0 1120 1400"><defs/><filter id="prefix__a"><feGaussianBlur stdDeviation="12"/></filter><rect width="100%" height="100%" fill="#3c1d1b"/><g filter="url(#prefix__a)"><g transform="translate(2.7 2.7) scale(5.46875)"><circle r="1" fill="#ecfce9" fill-opacity=".5" transform="rotate(123.3 28.2 80.7) scale(137.9973 203)"/><circle r="1" fill="#55453d" fill-opacity=".5" transform="matrix(12.0547 -95.42273 57.42516 7.25448 89.5 204.3)"/><circle r="1" fill="#f5f8f1" fill-opacity=".5" transform="rotate(154.1 61.6 94) scale(13.54832 115.1822)"/><ellipse cx="191" cy="66" fill="#e8d9c3" fill-opacity=".5" rx="68" ry="33"/><path fill-opacity=".5" d="M-16 270.7l128.3-121.3-12.2-10.6L-3.7 244.7z"/><path fill="#a99e94" fill-opacity=".5" d="M-14.3 245.9l31.6-39 71-50.4L9.6 61z"/><path fill="#938d82" fill-opacity=".5" d="M108.6 195.3L35.4 289l-26-20.3L82.6 175z"/><circle r="1" fill="#fde6be" fill-opacity=".5" transform="rotate(-101.2 129 -49.8) scale(43.03505 20.05492)"/><circle r="1" fill="#c3cdc8" fill-opacity=".5" transform="matrix(66.63433 -38.16184 6.24073 10.89693 50.7 109)"/><circle r="1" fill="#9b8a84" fill-opacity=".5" transform="rotate(170.4 80.5 60.4) scale(22.71319 54.35228)"/><path fill="#35231d" fill-opacity=".5" d="M110 106h13v76h-13z"/><circle r="1" fill="#8e786d" fill-opacity=".5" transform="rotate(125.4 -36.2 92.1) scale(52.09217 23.21894)"/><path fill-opacity=".5" d="M28 203l13 29-56 4z"/><circle r="1" fill="#6c5f54" fill-opacity=".5" transform="matrix(-12.0285 67.33757 -48.51704 -8.66659 106 255)"/><path fill="#d9dfd6" fill-opacity=".5" d="M165.7 194.5l33.2 76.5 20.1-9.1L94.1 38.3z"/><circle cx="106" cy="142" r="5" fill="#fff" fill-opacity=".5"/><path fill="#392621" fill-opacity=".5" d="M79.8 126l24-14.5 12.4 20.6-24 14.4z"/><circle r="1" fill="#959b92" fill-opacity=".5" transform="matrix(-66.19591 -40.07997 19.23308 -31.76527 49.9 23.8)"/><circle r="1" fill="#e1edea" fill-opacity=".5" transform="matrix(1.9171 7.93577 -25.40065 6.1362 135.5 68.1)"/><path fill="#75786e" fill-opacity=".5" d="M13 110.1l-29 23 47.2-92.8 34.6 50z"/><circle r="1" fill="#020b06" fill-opacity=".5" transform="matrix(46.60766 -51.92958 3.69484 3.31618 47 204.7)"/><path fill="#b39f95" fill-opacity=".5" d="M66 177l-41 29 36-78z"/><path fill="#a2948a" fill-opacity=".5" d="M208 108l-52 19 63 134z"/><path fill="#a28d83" fill-opacity=".5" d="M166 228l-26-84-25 4z"/><path fill="#83857d" fill-opacity=".5" d="M132 59L22 69l176-85z"/><circle r="1" fill="#662016" fill-opacity=".5" transform="rotate(152.3 -5.6 75.7) scale(105.74136 1)"/><path fill="#5d0a00" fill-opacity=".5" d="M180.4 70.3L140 92.6l-.5-.9L180 69.4z"/><path fill="#070000" fill-opacity=".5" d="M116 153l-14-9-25 10z"/><path fill="#55332a" fill-opacity=".5" d="M112.1 219.2l10.5-24.9 16.2 6.8 33.4-17.6z"/><path fill="#7f4a3e" fill-opacity=".5" d="M170 64.7l15-7.4-57.3 32.8 40.5-28.4z"/><path fill="#723f35" fill-opacity=".5" d="M172.7 99.1l21.5-10.8-13.6 3-43.7 23.7z"/><circle r="1" fill="#71281e" fill-opacity=".5" transform="matrix(-.46484 -.8854 56.18475 -29.49765 39.4 167.4)"/><path fill="#700400" fill-opacity=".5" d="M71.1 160.6l.5.9-64.7 35.9-.5-.9z"/><path fill="#66261c" fill-opacity=".5" d="M198.2 108.7l2.9.6-51.6 23 17.7-10.7z"/><path fill-opacity=".5" d="M131 145l-23-27 5 19z"/><path fill="#89867c" fill-opacity=".5" d="M70 219l-59 52 41-65z"/><path fill="#000b09" fill-opacity=".5" d="M12.3 264l-22.9-17.8 28.3-36.3 22.9 17.9z"/><path fill="#91837a" fill-opacity=".5" d="M44 212l45-43 17 61z"/><path fill="#c8d6cb" fill-opacity=".5" d="M-11 214H6l11-11z"/><path fill="#7e7b73" fill-opacity=".5" d="M219 11.8l-54.4 31.9-6.5-59.7h-9.7z"/><path fill="#6f3b30" fill-opacity=".5" d="M153.6 93.6l31.8-17 1 1.8-31.8 17z"/><path fill="#e4d4b4" fill-opacity=".5" d="M215 135l-21-97h-30z"/><path fill="#7c645b" fill-opacity=".5" d="M107 72.3l28.4 65.4-57-27.3 33.7-16.5z"/><path fill="#713e34" fill-opacity=".5" d="M193.4 102.8l2.8-7-13.1 7.7-37.2 18.6z"/><circle r="1" fill="#753328" fill-opacity=".5" transform="matrix(-.3931 -.9195 36.69452 -15.68766 194.9 122.8)"/><path fill="#3b362c" fill-opacity=".5" d="M58.4 240.7l-.2 5.2 59.7 25.1-82.5-18.1z"/><path fill="#dcdfd8" fill-opacity=".5" d="M131 61l-24 9 20 47z"/><circle r="1" fill="#bbc0b7" fill-opacity=".5" transform="matrix(1.55649 2.69592 -19.92902 11.50603 46 171.1)"/><circle r="1" fill="#4b4641" fill-opacity=".5" transform="rotate(-21.4 750 -369) scale(1 46.24835)"/><path fill="#620200" fill-opacity=".5" d="M77.5 137.9L-7 181l-.4-.9L77 137z"/><path fill="#8b7970" fill-opacity=".5" d="M214.7 198.7l-38.6-31.9 26.6 51.1-17.1 9.7z"/><path fill="#040400" fill-opacity=".5" d="M92 164l-28 9-15 33z"/><circle cx="42" cy="20" r="36" fill="#9fa196" fill-opacity=".5"/><circle r="1" fill="#79382c" fill-opacity=".5" transform="matrix(26.13726 -9.68865 .34757 .93765 188.5 137.4)"/><path fill="#bac1b7" fill-opacity=".5" d="M218.8 112l-107.7 42.7 106.8-53.6-25.4 33.1z"/><circle r="1" fill="#4b211a" fill-opacity=".5" transform="matrix(.44296 .89654 -85.68223 42.33402 69.2 216.2)"/><path fill="#d0d6cd" fill-opacity=".5" d="M182.2 131.4l1.6 3.7-46 19.5-1.6-3.7z"/><path fill="#b4b9af" fill-opacity=".5" d="M-16 216.4l63.6-32.6 28.5-21.2-43.4 22.3z"/><circle r="1" fill="#5c2921" fill-opacity=".5" transform="matrix(-65.3704 33.7055 -.45828 -.8888 84.6 197.6)"/><path fill="#530700" fill-opacity=".5" d="M167.4 154.2l40.9-13.3.3 1-40.9 13.2z"/><path fill="none" stroke="#5f0400" stroke-opacity=".5" stroke-width=".5" d="M-11.6 172.7q10.8-3.7 63.3-32.3"/><path fill="#8c887d" fill-opacity=".5" d="M80.7 149.2l14.9 6.3-1.2 14.3 6.1-7.3z"/><path fill="#5f4e46" fill-opacity=".5" d="M51 71L41 58l1 38z"/><path fill="#6d271e" fill-opacity=".5" d="M51.9 141.6l-32.2 15 52.5-27.5-16.3 12z"/><path fill="#603b30" fill-opacity=".5" d="M74.5 177.9l53.2-24.8-14.8 24.2 26-18.2z"/><path fill="#a2aca5" fill-opacity=".5" d="M175.6 61.5l-20.8 9.8-14.4-30.8 20.8-9.8z"/><path fill="#5f322a" fill-opacity=".5" d="M123.9 197.6l48.1-21.7-98.3 48.3 41.6-16.3z"/><path fill="#d4d8ce" fill-opacity=".5" d="M132 104l38-11-30 19z"/><path fill="#54170f" fill-opacity=".5" d="M114.7 257.4l-.5-1 61.1-29.8.5 1z"/><path fill="#440902" fill-opacity=".5" d="M38.5 210.1L123 167l.4.9L39 211z"/><path fill="#010502" fill-opacity=".5" d="M12.2 266.9l28.7-46.1-19.8-17.5-4 35z"/><path fill="#69160d" fill-opacity=".5" d="M67 174l.4 1-88.3 47-.5-1z"/><path fill="#64180d" fill-opacity=".5" d="M173.6 174.7l-.3-1 27-10.4.4 1z"/><circle r="1" fill="#79473f" fill-opacity=".5" transform="matrix(.35837 .93358 -32.4749 12.46594 199.3 154)"/><path fill="#c3cabe" fill-opacity=".5" d="M136.1 97.4l53.5-27.2 2.3 4.4-53.5 27.2z"/><path fill="#28312f" fill-opacity=".5" d="M-2.1 265L-20 242.2 2.1 225 20 247.8z"/><path fill="#431711" fill-opacity=".5" d="M-11.7 267l139-70.9.4 1-139 70.8z"/><path fill="#430000" fill-opacity=".5" d="M59 241.9l103.5-52.7.4 1-103.4 52.6z"/><path fill="#4b140b" fill-opacity=".5" d="M36.6 265.4l-.4-1 129.2-65.8.4 1z"/><path fill="#c2c8bd" fill-opacity=".5" d="M143.5 114.1l54.8-26.7 2.2 4.5-54.8 26.7z"/><path fill="#64635c" fill-opacity=".5" d="M155 33.3l.5.8L75 78.7l-.5-.8z"/><path fill="#aaaaa2" fill-opacity=".5" d="M93.2 192.2l-16.4 9.5-8-13.9 16.4-9.5z"/><circle cx="108" cy="140" r="5" fill="#dfd6d2" fill-opacity=".5"/><path fill="#909085" fill-opacity=".5" d="M128.2 188.1l-58.7 30.7 32.4 2.6-4.7-9.2z"/><path fill="#000f0d" fill-opacity=".5" d="M109.7 126.6l14.1 22.6-11.2-13.8-11.9-9.8z"/><circle r="1" fill="#6a352b" fill-opacity=".5" transform="rotate(63.2 -107.9 238.8) scale(1 24.10358)"/><path fill="#7d7269" fill-opacity=".5" d="M182.4 271l12.4-41h14.8l-73.8 37.6z"/><path fill="#c5cdc5" fill-opacity=".5" d="M154.5 167.6l-1.7-4.7 50.7-18.5 1.7 4.7z"/><path fill="#afb1aa" fill-opacity=".5" d="M57 118l53-28-8-24z"/><path fill="#d3d3c7" fill-opacity=".5" d="M187.5 182l15 84.7-8 1.3-15-84.7z"/><circle r="1" fill="#c1ccc4" fill-opacity=".5" transform="matrix(.79325 2.6109 -23.91336 7.26544 189.4 163.3)"/><path fill="#b0ab9f" fill-opacity=".5" d="M155.4 212.8l-17.6-19.1 24.3-9.3-16 16.2z"/><path fill="#717067" fill-opacity=".5" d="M65.8 26.5l38.8-21.6-20.4 17.4-69.1 30z"/><path fill="#7a5c54" fill-opacity=".5" d="M214.1 185.6l-20.8 15.8-8.1-15.6 28 16.6z"/><path fill="#703229" fill-opacity=".5" d="M142 80.7l27.8-17.2 8.7-2-39.7 22.3z"/><circle r="1" fill="#dee0d8" fill-opacity=".5" transform="matrix(18.91904 28.69453 -5.59548 3.68924 148 141.5)"/><path fill="#989f98" fill-opacity=".5" d="M69-16l108 28-71 5z"/><path fill="#3a0000" fill-opacity=".5" d="M188.3 87.3l.6.7-13.2 10.7-.6-.7z"/><path fill="#62120a" fill-opacity=".5" d="M9.8 154l39.9-23 .5 1-39.9 23z"/><path fill="#c2bdba" fill-opacity=".5" d="M219 6L197-4l3 17z"/></g></g></svg>