<svg xmlns="http://www.w3.org/2000/svg" viewBox="0 0 768 960"><defs/><filter id="a"><feGaussianBlur stdDeviation="12"/></filter><rect width="100%" height="100%" fill="#513626"/><g filter="url(#a)"><g fill-opacity=".5" transform="matrix(3.75 0 0 3.75 1.9 1.9)"><circle r="1" fill="#eee2d2" transform="matrix(-43.23985 -80.3331 159.0734 -85.62236 136.7 224.7)"/><circle r="1" fill="#b1e2f3" transform="matrix(54.80317 42.3296 -13.51565 17.4984 167 38.6)"/><circle r="1" fill="#d8cfac" transform="rotate(-178.9 66.2 45) scale(31.21395 21.08599)"/><path fill="#dce8e5" d="M25.4 142.2l1.2 65-38 .6-1.2-65z"/><circle r="1" transform="matrix(-9.616 10.84121 -40.58081 -35.99459 46.9 150.4)"/><circle r="1" fill="#c8bb91" transform="matrix(-4.9265 9.46372 -54.5297 -28.38637 68.9 110.2)"/><circle r="1" fill="#ffd097" transform="matrix(-10.22705 7.87589 -18.54085 -24.07579 61.7 46)"/><circle r="1" fill="#fffdeb" transform="matrix(-58.1073 -61.23233 8.30969 -7.8856 137.2 216)"/><path d="M130.1 46l18.4 17.9 5-65.7-5.3-14.2z"/><circle r="1" fill="#8ba6b0" transform="matrix(-32.67758 -10.70596 17.3292 -52.89358 185.3 27.3)"/><path fill="#ffcc9a" d="M137.3 114.6l16.4-20.2 21 17-16.4 20.2z"/><path fill="#f7ffff" d="M22.5 87.4L6.3 105.5l18 2.7 1.5-16.3z"/><path fill="#000705" d="M25 125h50v55H25z"/><circle r="1" fill="#eaeadf" transform="matrix(-14.25577 -23.35452 12.77075 -7.79536 195.6 145.6)"/><circle r="1" fill="#fff8e9" transform="matrix(-4.18845 -38.92244 4.42256 -.47591 14 219.1)"/><circle r="1" fill="#200800" transform="matrix(-32.98322 -21.25623 2.7642 -4.2892 136 126.6)"/><path fill="#f2ffff" d="M-4.9 156.7l28.9 7.5 2.4-18.7-5.3-4.4z"/><circle r="1" fill="#cbe8d7" transform="matrix(7.4651 13.3572 -5.09755 2.84892 38.8 83.8)"/><path fill="#302617" d="M66 0h52v84H66z"/><path fill="#fadcbe" d="M139 29l-23 .9-1-25 23-.8z"/><path fill="#e3a76b" d="M100.3 122.4l59.2 20.4-87.1-12.6L97 86.5z"/><path fill="#150100" d="M97 139h37v8H97z"/><path fill="#e6ddb7" d="M156 92l-68 2 54-22z"/><path d="M175 85.7l-22.2-9.2 14.2 27.1 52 14.6z"/><ellipse cy="127" rx="38" ry="18"/><circle r="1" fill="#030100" transform="rotate(-40.8 379.5 -62.5) scale(2.21814 54.67656)"/><ellipse cy="210" fill="#070000" rx="9" ry="20"/><path d="M46 175l-43 6 11-10zm90.5-74.7l1.1-18.8 15.2 26.5 19.9 2.7z"/><path fill="#171917" d="M152.3 64.3l12.4 10.6 54.3-2.5-57.2-8.4z"/><path fill="#918376" d="M17 178h74v30H17z"/><circle r="1" fill="#ffdb9b" transform="rotate(168.5 26.6 24.3) scale(6.99765 21.07455)"/><path fill="#060904" d="M-16 8l119 11-64-32z"/><path fill="#abccd9" d="M155 54l-5-49 66 46z"/><path fill="#665b4e" d="M110.3 215l-29.5 56 76.5-1.7-6.1-6z"/><path fill="#0a0700" d="M98 104h27v21H98z"/><path fill="#1e2315" d="M78 114L42 86l74-32z"/><ellipse cx="145" cy="7" fill="#0b0500" rx="6" ry="58"/><circle r="1" fill="#9e5c39" transform="matrix(-11.37904 -.73585 1.59357 -24.64264 75.7 45.8)"/><circle r="1" fill="#040000" transform="rotate(42.4 -105.2 285) scale(18.58414 1.94211)"/><path d="M38 94l-9 7-1-22z"/><path fill="#d4b894" d="M164.9 76.6l-24.8-13.5-10.6 41.3-9.8-15.2z"/><path d="M81.7 176.3l-34 1 12.9-34.7 32 40.7z"/><path fill="#eca05b" d="M171.2 155.4l-25.7-22.3-95.1-20.4 84.1 30.6z"/><path fill="#313228" d="M102 31h33v47h-33z"/><path fill="#8b7668" d="M145.3 221.8l23.3 2.9 50.4 39.4-35.2-118.7z"/><path d="M4 171l-11-11 13-2z"/><circle cx="158" cy="123" r="12" fill="#ffcb8c"/><path fill="#3f3f39" d="M113 56h91v5h-91z"/><path fill="#aac0ac" d="M17 92l36 14-49 2z"/><path fill="#c1eff3" d="M98 117.4l-18.2-5.9 11.9-4.5 1.8-5.9z"/><circle r="1" fill="#f3eede" transform="rotate(-4 3550.7 -138.7) scale(6.34589 22.31343)"/><path fill="#f2e6d6" d="M73 153.8l84.1 103.1 30.9-16 8.5 30.1z"/><path fill="#534339" d="M198.1-14.6L219 43.5 149.6 4.7l43.1 10.6z"/><path fill="#58524f" d="M134.1 100.7l-19.2 16 45.6-5.8 44 .8z"/><path fill="#252617" d="M41.6 41.3l26.1 36.2-30.1-11.6-53.6 69.2z"/><path fill="#7d7e75" d="M45 39l13-22-43-4z"/><circle r="1" fill="#e4e6e1" transform="matrix(10.30578 -15.3946 4.45386 2.9816 15.4 157.8)"/><circle r="1" fill="#a9462c" transform="matrix(1.53782 2.32339 -22.00367 14.56391 188.9 236.9)"/><path fill="#4d4130" d="M91.4 133.9l-42-23.3 28 41.5 65.6-7.7z"/><path fill="#161712" d="M157 80h47v14h-47z"/><path fill="#c3f2ff" d="M155.3 28l1.9-10.8 27.5 4.8-1.9 10.8z"/><path d="M189 155.7l-.5.8-13.6-10.2.6-.8z"/><path fill="#212616" d="M30 143l41-21-42-22z"/><path fill="#0c0d04" d="M56.5 124.3L71 168l38 34.6-28-32.7z"/><path fill="#93877a" d="M18 183l118 76-54-84z"/><path fill="#d6bcae" d="M219 104.6l-22.2-2.3 2.7-8.5 1.1.5z"/><path d="M15 149.6l-28.8-11.2 10.7-28 29 11.2z"/><path fill="#504a48" d="M182 42.5l-42.5-6 .4-3 42.6 6z"/><path fill="#ffbd71" d="M131.3 65.6l20 39.3 11.5-4.7-12.3-19.6z"/><path fill="#f7ffff" d="M183 62h21v3h-21z"/><circle r="1" fill="#c4c6c3" transform="matrix(-38.50084 -.03756 .00172 -1.76198 189.9 76.4)"/><circle r="1" transform="matrix(-1.46236 -3.02245 42.2393 -20.43667 28.5 5.6)"/><path fill="#a6b5a7" d="M62 100.7L28.9 76.6l27.5 36.8 13.2-7.6z"/><path fill="#81867c" d="M132 108L89 98l22-8z"/><path fill="#1e261c" d="M43.6 95.9l-1 8.6H62l-36.3-9.1z"/><path fill="#2b2c27" d="M57 177l-6-18-49 20z"/><circle r="1" fill="#7a7063" transform="rotate(116.7 39.3 143.4) scale(9.75895 43.60523)"/><path fill="#ffe3b7" d="M71.9 53l4.6-2.1L80 59l-4.6 2z"/><path fill="#7e6649" d="M77.1 34.4L140.6 64l-1.7 3.6L75.4 38z"/><path fill="#ffe99d" d="M135.4 144.7l5.2-8.6 12 7.2-5.2 8.6z"/><path fill="#fde0a7" d="M76 113l18 19-29-16z"/><circle r="1" fill="#993520" transform="rotate(-19.5 752.2 -52.6) scale(63.78116 1)"/><path fill="#000001" d="M113 29l4-43-10 24z"/><path fill="#ded9d0" d="M184.6 157.8L172 142.1l8.6 19.3 35.6 9.3z"/><path fill="#a08d61" d="M10.5 47.2l6 16L31.1 68-16 40.2z"/><circle r="1" fill="#c3dacc" transform="matrix(-9.40705 1.6418 -1.77731 -10.18354 126.4 87.3)"/><path fill="#8c3824" d="M129.6 201.5l37.8-12.7 51.6-17.1-77 22.1z"/><circle r="1" fill="#4b4741" transform="matrix(30.02559 3.31473 -.10973 .99396 168.1 33.3)"/><path fill="#64666c" d="M215 50.1l-.3 3-49.7-5.2.3-3z"/><path fill="#201d14" d="M151 134l-45-17 34-6z"/><path fill="#b4b5a9" d="M28.6 233.7l-3-10.5 51.8-15 3 10.6z"/><path fill="#995a2e" d="M122.5 138.8L65.8 111l37.8 10.8L115 123z"/><path fill="#aea395" d="M17 157l-19 18 36-6z"/><circle r="1" fill="#e0cebb" transform="matrix(-6.29275 -7.79869 6.2343 -5.03045 84.8 159.3)"/><path fill="#192425" d="M132 53h30v6h-30z"/><path fill="#5c0000" d="M134.6 243.7l-64.8 23.6-.4-1 64.8-23.6z"/><path fill="#1a150a" d="M88.8 37.1l-8.9 43.4 37.7 2.7-13.2-13.4z"/><path fill="#99381f" d="M150.9 218.1l2.8-4.6 44.6-15.5 7.9-.7z"/><path fill="#c4b3a1" d="M137 34l2-37-31-13z"/></g></g></svg>