<svg xmlns="http://www.w3.org/2000/svg" viewBox="0 0 1120 1400"><defs/><filter id="a"><feGaussianBlur stdDeviation="12"/></filter><rect width="100%" height="100%" fill="#49372b"/><g filter="url(#a)"><g fill-opacity=".5" transform="translate(2.7 2.7) scale(5.46875)"><circle r="1" fill="#eee4bd" transform="rotate(70.9 -95 190) scale(100.49266 123.31746)"/><circle r="1" fill="#667267" transform="rotate(-5.9 904.2 -1330.3) scale(78.28618 43.80134)"/><circle r="1" fill="#c6d1ec" transform="matrix(90.75715 5.06851 -.73592 13.17744 129.5 139.6)"/><path fill="#f7f6db" d="M68.3 54.7l8-18.5 1.9 80.9-10.2 3.1z"/><circle r="1" fill="#fff0ac" transform="matrix(107.74946 5.26983 -.3755 7.67783 104.7 226.8)"/><circle r="1" fill="#c7b992" transform="matrix(5.03075 -.2664 3.7296 70.43041 22.6 55.8)"/><path fill="#261815" d="M144.5 174.3l-57-.9 47.5-13.5 84 16.7z"/><path fill="#583f1b" d="M138.4 217.4l74.8-14.1-99.4-9.8-3.7 21.8z"/><ellipse cx="17" cy="203" fill="#222011" rx="32" ry="9"/><path fill="#c2dce4" d="M63.3 123l-12.9 3.2-10.7 4.2-5.5-22.1z"/><path fill="#080000" d="M26 31l40-9v95z"/><ellipse cx="127" cy="188" fill="#c9b79e" rx="159" ry="10"/><ellipse cx="41" cy="177" fill="#2b2115" rx="56" ry="5"/><ellipse cx="26" cy="255" fill="#977335" rx="203" ry="25"/><ellipse cx="106" cy="87" fill="#ffffec" rx="2" ry="49"/><path fill="#b6bfb9" d="M164.8 121.8L219 71.5l-13.7 10.3-1.5 29z"/><ellipse cx="7" cy="30" fill="#090700" rx="9" ry="142"/><path fill="#9cba99" d="M107 150l21-91 16 24z"/><path fill="#070a0f" d="M219 110l-86 12 60 9z"/><path fill="#fff" d="M167 45h3v50h-3z"/><path fill="#2f1d10" d="M200.5-10.4l-30.7 73.7 1.7 51.3 32-33.7z"/><path fill="#081718" d="M22 167l35-31-39-2z"/><ellipse cx="86" cy="70" fill="#2a1b0d" rx="10" ry="55"/><ellipse cx="99" cy="10" fill="#70624a" rx="70" ry="11"/><path fill="#626365" d="M-5.3 165L95 139.4l-7.7 24 69.8-13.2z"/><ellipse cx="124" cy="46" fill="#ffffed" rx="20" ry="2"/><path fill="#494e4a" d="M0 227h36v25H0z"/><path fill="#cabeaf" d="M157.5 161.8l17.6-56.2H219l-37.3 5.3z"/><path fill="#111711" d="M37.9 42.4l54.9-20.1 90-11.4L74.9 45.5z"/><ellipse cx="181" cy="202" rx="33" ry="3"/><path fill="#fffce9" d="M171.5 43.7l-52.8 4.6-.2-2 52.8-4.6z"/><path fill="#0b2b50" d="M131 94h12v37h-12z"/><path fill="#221a0d" d="M25-7l54 141-48-38z"/><path fill="#fffff9" d="M203 35h1v65h-1z"/><path fill="#693132" d="M130.6 136.4l-21.9-4 2.5-11.1 17 11.3z"/><path fill="#a48e5e" d="M33.1 10.8l29-1.5.8 16-29 1.4z"/><path fill="#b2ab93" d="M60 177l53-10-97-10z"/><path fill="#2c2b1f" d="M144 48h23v54h-23z"/><path fill="#fbffff" d="M38.1 136.8l-.6-3 34.4-6.6.6 3z"/><path fill="#e5e1eb" d="M88.8 134l19.6-13.9L92 151.4l67.3-12.1z"/><ellipse cx="116" cy="197" fill="#20150e" rx="5" ry="10"/><path fill="#403227" d="M102.9 32.1l-25 64.8 17.8 31.8 11.3-23.8z"/><path fill="#bfb6a9" d="M123 105l16 30-41-26z"/><path fill="#f5fefb" d="M193 93h6v18h-6z"/><path fill="#1b1f16" d="M130.3 43.5l-3.6-22.8 77-12.2 3.6 22.8z"/><path fill="#0a0b0d" d="M173.6 87.4l26.3 18.7-18.5-3-14.3 3.1z"/><path fill="#dcd5d8" d="M211 128.6l-48.9 23.8-23.4-23.8 50.1 22.9z"/><ellipse cx="177" cy="230" fill="#cbbb91" rx="57" ry="8"/><ellipse cx="164" cy="211" fill="#997a47" rx="91" ry="7"/><ellipse cx="72" cy="1" fill="#1a170c" rx="9" ry="44"/><path fill="#393529" d="M108 50h18v50h-18z"/><circle r="1" fill="#d1bba2" transform="matrix(1.5414 -7.99552 22.43415 4.3249 130.3 180.5)"/><ellipse cx="143" cy="169" fill="#19110a" rx="36" ry="3"/><circle r="1" fill="#8ae1af" transform="rotate(145.1 54.9 59) scale(5.07603 14.70105)"/><path fill="#c9bfa3" d="M67 47h10v33H67z"/><path fill="#2e2e20" d="M60.6 171.9L7.3 180l32.6-77-55.9 64.9z"/><path fill="#b27e65" d="M135.1-16h75.2L152.6 4.3l-36.9 1.3z"/><path fill="#1f1c15" d="M27.5 145.6l35.7-13 1.3 3.8-35.7 13z"/><path d="M197 31h5v61h-5z"/><ellipse cx="20" cy="16" fill="#978060" rx="6" ry="54"/><path fill="#9f987d" d="M19 89h11v32H19z"/><path fill="#be985c" d="M52 231l-42 40 174-18z"/><path fill="#40391c" d="M212.8 243.5l-34.3-5.5-43 .1 48.7 4z"/><path fill="#fff" d="M37.1 121.7l12 .6-.2 4-12-.6z"/><path d="M177 123h16v9h-16z"/><path fill="#030a05" d="M83 145l9-8 2 8z"/><ellipse cx="48" rx="2" ry="26"/><path fill="#313836" d="M104.3 27.3l-7.6 89-99.8 19.3 109.3-12.9z"/><path fill="#282821" d="M103 0h13v46h-13z"/><path fill="#ccb59b" d="M106.6 204.6l-61.3-3.5 68.6-27.4-25.1 5.1z"/><path fill="#aca594" d="M173.7 212.9l43.8-.3-36.3-7.4-37.3-2.5z"/><circle r="1" fill="#26130c" transform="matrix(.29652 2.79343 -10.88844 1.1558 92.9 175)"/><path fill="#293c4b" d="M194.7 148l5.4-6 11.2 10-5.4 6z"/><path d="M55 0h4v25h-4z"/><ellipse cx="66" cy="221" fill="#e0d09f" rx="76" ry="7"/><circle r="1" fill="#ffe683" transform="rotate(-176.9 76.9 109.3) scale(82.20897 2.50198)"/><path fill="#8b9fa6" d="M187.8 11.5l-62.5 3.1-31.6 5.8L207.4 6.7z"/><path fill="#231a0b" d="M-16 115.1l49.4-36.8-10.9-.5L-16 257.7z"/><path fill="#4a4832" d="M159 115l-33-68 24-2z"/><path fill="#5a3f2d" d="M170 34h28v37h-28z"/><path fill="#756143" d="M73 199l-39 9 75 6z"/><path fill="#d7ebf5" d="M89.7 134.9l-42.3 12-1.1-3.8 42.3-12z"/><path fill="#e3e6c7" d="M-16 249.2l27.3 4.8 32.1 1.7-9 15.3z"/><path d="M38 0h4v27h-4z"/><path fill="#093f6a" d="M71.1 135l-.8-4 18.6-4 .8 4z"/><path fill="#1f1f1f" d="M146 130l-4-10 13-3z"/><ellipse cx="20" cy="190" fill="#d1d6b4" rx="33" ry="4"/><path fill="#fff1a5" d="M60 1h3v18h-3z"/><path fill="#8c7e78" d="M166 149l-56 9 73 10z"/><path fill="#cec2c4" d="M161.7 125.3l31.1 24-36.2 2.9-71.6-3.3z"/><path fill="#e0c788" d="M51 1h4v22h-4z"/><ellipse cx="7" cy="216" fill="#a1a08c" rx="37" ry="6"/><path fill="#141917" d="M37.4 153.2l-2-28.3-19.8-10 5.8 39.2z"/><path fill="#d5f1f6" d="M102.4 123.8l4.9 10.1L95 145.3l-6.5-11.5z"/><path fill="#503f22" d="M208.7 201.9l-1.4 19-10-.8 1.4-19z"/><ellipse cx="131" cy="229" fill="#aeab93" rx="56" ry="5"/><path fill="#ee9a6f" d="M153.8 9.1L137.1-16l3.6 34.2 6.4-34.2z"/><path fill="#b9c2c4" d="M11.5 144v-28h1v28z"/><circle r="1" fill="#c8c4ad" transform="matrix(-2.6431 .04553 -.48808 -28.33176 75.3 87)"/><path fill="#736965" d="M159 137h27v4h-27z"/></g></g></svg>