<svg xmlns="http://www.w3.org/2000/svg" viewBox="0 0 980 1225"><defs/><filter id="a"><feGaussianBlur stdDeviation="12"/></filter><rect width="100%" height="100%" fill="#533126"/><g filter="url(#a)"><g fill-opacity=".5" transform="translate(2.4 2.4) scale(4.78516)"><circle cx="108" cy="255" r="91" fill="#cfecf2"/><circle cx="98" cy="149" r="104" fill="#85705f"/><path fill="#fff" d="M71.2 181.9l-11-28.7-46.5 108.7 34.6 9.1zm92.5-14l-17.6 17.2 24.5 85.9h40.7z"/><path fill="#090000" d="M47 101h24v73H47z"/><path fill="#35373a" d="M106 270l34-113 25 107z"/><path fill="#c37f52" d="M-16 248L49 93-3 60z"/><circle r="1" fill="#220f08" transform="matrix(-16.41834 7.5516 -18.55407 -40.33944 170.5 146.7)"/><ellipse cx="154" cy="92" fill="#c7987a" rx="119" ry="9"/><path fill="#d68f5b" d="M50.9 135.4l24.2-6 85.4-3.6-42.9 31.2z"/><path fill="#3c3734" d="M46.6 271l32.7-92.1 33.4 64.2 16-17.2z"/><path d="M123 123l-33-1 1-25 33 1z"/><circle r="1" fill="#060c10" transform="rotate(-127.5 42.8 19.2) scale(19.65173 24.02166)"/><path fill="#1b1515" d="M165.6 153.2l.7 19-72 2.6-.6-19z"/><path fill="#01050c" d="M53 169.4l-23.3 54.1-16.5 34 18.4-62.1z"/><path fill="#e4e9f0" d="M85 175h49v15H85z"/><path fill="#cfe1ee" d="M102 33h10v30h-10z"/><ellipse cx="203" cy="113" fill="#a76236" rx="32" ry="46"/><path fill="#fbffff" d="M7 268l52-95-6 91z"/><path fill="#100c09" d="M143 8h23v75h-23z"/><path fill="#000409" d="M213 271l-4-53-30-22z"/><path fill="#77695c" d="M-25-31h64v82h-64z"/><path fill="#839598" d="M127.4 62.6l-69.7.2L137 42.3 130.5-16z"/><circle r="1" fill="#ffe6d2" transform="rotate(87.7 -74.6 158.2) scale(14.47152 4.2805)"/><circle r="1" fill="#1d0300" transform="rotate(23.3 -192.2 438.6) scale(14.13178 18.19866)"/><path fill="#f9d4be" d="M85.2 139.6l9.7-53L83.3 90l.8 2.1z"/><path fill="#8c9081" d="M72 4h13v44H72z"/><path fill="#e6a884" d="M126 81v58l19-4z"/><path fill="#3b2721" d="M25 141h58v34H25z"/><path fill="#dbf7ff" d="M-10.2 81.4l48-13.8.4 1-48 13.8z"/><ellipse cx="192" cy="24" fill="#77634d" rx="25" ry="26"/><path fill="#ffffea" d="M112 14l-7-5-1 12z"/><path fill="#2a2b2d" d="M63 65l88-5-43 24z"/><path fill="#7d898f" d="M130 184l-46 15 55 41z"/><path fill="#c7d0ca" d="M82 252h59v4H82z"/><circle r="1" fill="#272223" transform="matrix(-4.4947 .78445 -10.27096 -58.84993 145.9 232)"/><path fill="#ddf2f9" d="M138 48.2l-50 2.6v-1l50-2.6z"/><path fill="#372821" d="M129 137h64v37h-64z"/><path fill="#bf8c6d" d="M90.7 154l-7.8 20.4 24.6-26.4-46.8-69.2z"/><ellipse cx="119" cy="51" fill="#0b1417" rx="96" ry="2"/><path fill="#e58940" d="M195 92h9v45h-9z"/><path fill="#c19074" d="M41 83l6 71-16-32z"/><path fill="#afad9b" d="M131 1h11v13h-11z"/><path fill="#3b2c22" d="M92 226h33v18H92z"/><path fill="#0e0c0c" d="M61 258l15-3-6-34z"/><path fill="#242725" d="M153 75.7l25 9.4 41-36.3-86.9-1.8z"/><path fill="#c19376" d="M173.7 162l-3-.1 3.6-68 3 .2z"/><path fill="#bdbfbd" d="M151.2 210.9l43.4-32.9-6.7 18.6-45-24.2z"/><path fill="#281b15" d="M49 15h31v37H49z"/><circle r="1" fill="#b0b4b1" transform="matrix(20.59297 4.83226 -.39143 1.66811 197.7 71.3)"/><path fill="#bda397" d="M44.3 83.1l41.6 31.1L65.3 89l-30.5 17.2z"/><path fill="#402b20" d="M89.9 51.8L14.8 101l-1.7-21.2L69.8 85z"/><path fill="#6a3c29" d="M4.5 233.7l1.3-48 29.9-99.5 6.6 99.6z"/><path fill="#112127" d="M78 50L1 73l-17-21z"/><path fill="#a7c2d2" d="M90 54h35v8H90z"/><ellipse cx="119" fill="#150f0e" rx="9" ry="48"/><path fill="#080000" d="M91 102h35v19H91z"/><path fill="#0b0000" d="M83 202h54v2H83z"/><circle r="1" fill="#d3dde1" transform="rotate(-97.5 184.3 38.6) scale(51.11373 10.23219)"/><path fill="#62301d" d="M142.8 82.3l-49.7-3.5 38.9 9.8-.8 35.7z"/><path fill="#382821" d="M86.2 182.7l-41.9-63.4 39.9 30.1L64 256.1z"/><path fill="#512d19" d="M219 84l-40.7-7.2 7.7 40.1L219 50z"/><path fill="#3f4c50" d="M18 61h143v7H18z"/><path fill="#020000" d="M75 249h68v2H75z"/><path fill="#d3b8a9" d="M127 107.9l25.6-18.6-9.9 19.5-26.4-26.9z"/><path fill="#fff" d="M103 33h11v6h-11z"/><path fill="#d4e0e3" d="M52 175l21-2-19 73z"/><ellipse cx="93" cy="11" fill="#19110f" rx="9" ry="37"/><ellipse cx="7" cy="134" fill="#c57a44" rx="14" ry="35"/><ellipse cx="112" cy="200" fill="#dbd7d6" rx="28" ry="2"/><path fill="#210800" d="M45 97h11v59H45z"/><path fill="#130c0c" d="M10 210.6l19.6 1.5.7 7.8-10.4 19.9z"/><path fill="#120904" d="M83 208h63v2H83z"/><path fill="#160100" d="M134.5 191.6l-51 1.8v-1l51-1.8z"/><path fill="#eeb88e" d="M65 130h24v8H65z"/><path fill="#958076" d="M163 220.9l-19.9-26.4.1 8.8 9.2 31.6z"/><circle cx="108" cy="98" r="4" fill="#ffffb0"/><ellipse cx="106" cy="246" fill="#b7a08b" rx="33" ry="3"/><path fill="#c99a76" d="M100 230h15v11h-15z"/><path fill="#665a54" d="M57.4 225.1l1.3-10 13.9 1.8-1.3 10z"/><ellipse cx="12" cy="19" fill="#ab917a" rx="3" ry="32"/><circle r="1" fill="#141315" transform="matrix(0 1.492 -29.79494 0 122.4 235.4)"/><circle r="1" fill="#747269" transform="matrix(3.1911 -.34835 3.20496 29.3591 7.5 218.4)"/><path fill="#b6f1fd" d="M101 217h32v3h-32z"/><path fill="#512c1e" d="M71.7 71.2l-9 11.8 28.1-.5L77.2 102z"/><path fill="#e8b587" d="M150 139l-1-11-23 3z"/><path fill="#39160d" d="M97 48v-6h30v6z"/><path d="M93 210h5v18h-5z"/><path fill="#2b1c1a" d="M41.7 168.7l-11.6 16-10.8-9.9 20.6-34z"/><path fill="#c0b7ae" d="M82.1 222.4L84 205l-3.4-.2 17.9-.1z"/><path fill="#1d100d" d="M83 196h45v2H83z"/><path fill="#c1c9c9" d="M144 172l11 42 12-42z"/><path fill="#998b7c" d="M77.2 72.1L88 26.8 69 2.9l15.3-.6z"/><path fill="#141013" d="M18.4 10.2l5.1 32.6-5.9 1-5.1-32.6z"/><path fill="#877965" d="M126.2 36l11.9 37.7 4.1-83.6.6 64.8z"/><path fill="#382c28" d="M139 184l-14 1 21 31z"/><path d="M112 94l8.9 1-.9 7-8.9-1z"/><path fill="#dad6d2" d="M104 211h32v3h-32z"/><ellipse cx="194" cy="200" fill="#a24a26" rx="7" ry="10"/><path fill="#c1a795" d="M160.4 93.7l24.4 11.9L163.3 83l-19.9 13.3z"/></g></g></svg>