<svg xmlns="http://www.w3.org/2000/svg" viewBox="0 0 797 996"><defs/><filter id="a"><feGaussianBlur stdDeviation="12"/></filter><rect width="100%" height="100%" fill="#5a3a31"/><g filter="url(#a)"><g fill-opacity=".5" transform="translate(2 2) scale(3.89063)"><circle r="1" fill="#b6c9cb" transform="matrix(149.44675 -82.22369 93.03094 169.0896 60.8 132.3)"/><path d="M42 173l52-10L-16 55z"/><circle r="1" fill="#0d080a" transform="matrix(28.61025 -147.10494 17.51923 3.4073 77.4 32)"/><circle r="1" fill="#fcffff" transform="rotate(179.6 12.5 10) scale(27.83154 41.84394)"/><circle r="1" fill="#d0e0e1" transform="matrix(-22.8943 -3.7124 9.68932 -59.75383 72.5 228.7)"/><path fill="#d7dbdb" d="M220 161L175 31l16 240z"/><ellipse cx="12" cy="174" fill="#bfbbb3" rx="21" ry="61"/><ellipse cx="139" cy="232" fill="#675856" rx="46" ry="84"/><path fill="#301c15" d="M165.5 87.6l9.8-11.4-.4-24.5-63 13.3z"/><circle r="1" fill="#b8b9b8" transform="matrix(-5.03291 -21.59794 47.4245 -11.0512 143.8 30.4)"/><ellipse cx="131" cy="3" fill="#12181c" rx="79" ry="5"/><path fill="#a2a3a5" d="M69.7 159.6l33.8-1 15-150.9-30.6 36.7z"/><path fill="#451800" d="M15 58.1l-31 19.2 56.4-4.7-6.9 2.7z"/><ellipse cx="203" cy="230" fill="#dbe2e5" rx="16" ry="58"/><circle r="1" fill="#a3a19b" transform="matrix(-30.41121 -22.17515 38.48178 -52.77428 22.5 227.8)"/><circle r="1" fill="#f3fdff" transform="matrix(4.29673 9.8053 -7.48275 3.27898 28.8 85.9)"/><circle r="1" fill="#3b3637" transform="matrix(-21.50588 -4.02502 8.64118 -46.17027 71.7 27.4)"/><path fill="#2a2727" d="M168.3 27l51.7 1.6-3.9 90.1-23-79.7z"/><path fill="#a36f53" d="M54 110l10-59-69 100z"/><path fill="#090000" d="M50.8 146.2L35.7 95.3l-.2 76.9 51.9-2.1z"/><circle r="1" fill="#e4ae87" transform="matrix(1.01863 6.41284 -49.27143 7.82638 150.6 116.7)"/><ellipse cx="175" cy="163" fill="#7f7779" rx="100" ry="10"/><path fill="#cdab96" d="M151.3 29.4l-9.5 46.9 19 5.1-8.9-10.6z"/><circle r="1" fill="#faf6f2" transform="matrix(2.83784 -15.93154 2.9997 .53433 42.5 65.1)"/><circle cx="166" cy="62" r="10"/><path fill="#d2d7d5" d="M-16 141.1l45.8-21.8-9.2 42.6-6.2-37.9z"/><path fill="#a3a19e" d="M220 117l-40 51-8-151z"/><path fill="#361000" d="M-14 63l22 45 53 29z"/><path fill="#753e1d" d="M-16 128.7l65.8-10.3L24 153.3l8.1-49.6z"/><path fill="#00040c" d="M90.3 22l9.7 15.8L99-10l-3.1-3z"/><path fill="#1d1b1b" d="M120 56l17 27-3-29z"/><circle r="1" fill="#f0faff" transform="rotate(-10.1 474 -490) scale(7.262 5.41619)"/><path fill="#100704" d="M56 115l8-70 7 45z"/><path fill="#5e3615" d="M-16 128.3l37.1-71.2-34 2.5 20.7-18z"/><path fill="#cdcfcf" d="M77 171h19v42H77z"/><path fill="#5e5c5c" d="M58.1 97.2l-10.3 48.9 39.6-19.9-39.7-9.6z"/><path fill="#0f0e0a" d="M55.7 143.7l-24 29.3 12-48.5-23.1 26.8z"/><path fill="#afb5b7" d="M3.3 147L1 95.5-16 208l54-58.7z"/><path fill="#1f110f" d="M62 247h6v9h-6z"/><path fill="#c9cacd" d="M65-14L7 60-1 1z"/><path fill="#aa9b90" d="M18 91.6l-1.5-26.4-17.3 58.4-15.2-20.3z"/><path fill="#d6dde0" d="M195.6 186l-7 45.4-4.3-56.8 21.1-1.3z"/><ellipse cx="80" cy="237" fill="#b1e5dd" rx="13" ry="12"/><circle r="1" fill="#6a6467" transform="matrix(-7.29909 44.57288 -6.22384 -1.0192 57.6 43.8)"/><path fill="#090d10" d="M34 154h44v15H34z"/><path fill="#4f1900" d="M16 131l-13 5 9 6z"/><ellipse cx="96" cy="114" fill="#b0b0ae" rx="8" ry="37"/><path fill="#5d7077" d="M202.1-16l-13.4 68.9 9.7-36.5 21.6 87.5z"/><path fill="#100703" d="M62.2 68.4L72.9-19l5 .6L67 69z"/><path fill="#190000" d="M11 101.1l2.7 1.5L3 122.9l-2.6-1.5z"/><circle r="1" fill="#847674" transform="matrix(20.01766 -12.21883 26.12093 42.79296 131.4 166.8)"/><path fill="#aca9a6" d="M121 7h56v44h-56z"/><ellipse cx="140" cy="249" fill="#665b56" rx="45" ry="21"/><path fill="#696564" d="M73.6 102.1L120.7-1.1l-12.6 24.7-30.5 16.2z"/><path fill="#dfe4e1" d="M189 26l-18-5 21-5z"/><circle cx="49" cy="87" r="3" fill="#fff"/><path fill="#e8e6e0" d="M-4.2 124.4l10.9 1.3-2.5 19.9-10.9-1.3z"/><path d="M16 79h3v12h-3z"/><path fill="#1c1b19" d="M220 127l-22.1-75.8-5.4 12.5 5-23.8z"/><path fill="#d3cfcc" d="M46.7 70.6l-1.4-30.2-21.9 30.7-4.6-36z"/><path fill="#77808a" d="M141 4h43l-11-19z"/><path fill="#f3d8c0" d="M50.9 110.3l-24.1-9.7.3-1 24.1 9.8z"/><path fill="#ae5726" d="M23 123.1l-39 4L39.7 109l4.8-22.5z"/><path fill="#0085c9" d="M105.5 12v10h-7V12z"/><path fill="#3b2e29" d="M176 30h29v5h-29z"/><circle cx="139" cy="56" r="5" fill="#6ed9f0"/><path fill="#4e4442" d="M79 249h8v7h-8z"/><path fill="#5d6b76" d="M103.5 172.9L73.6 168l9.7-32.3 27.9 64z"/><path fill="#898479" d="M23 171h38v22H23z"/><path fill="#312924" d="M95.2.9L107-12.7l15.8 13.8L111 14.7z"/><path fill="#0d0400" d="M160 52h10v17h-10z"/><path fill="#d2d5d1" d="M6.7 104.3L.4 119.9l-3.1-31L-16 77.1z"/><path fill="#300d00" d="M27.7 70.2l8.8 7.6-12.9-7.1-9-7.8z"/><path fill="#d3d9df" d="M195 74v14l12-6z"/><circle cx="25" cy="123" r="4" fill="#ffedcd"/><path fill="#c79972" d="M140.7 54l2.4-7.6 18.2 5.6-2.4 7.6z"/><path fill="#110c0a" d="M46.4 137.4l-17-19.6 8.2-7.2 17 19.6z"/><path fill="#0b0505" d="M13.3 101.2l-18.6-9.4 27.8 20.5 6.3-4.4z"/><path fill="#434647" d="M83 92l-15 56-27-1z"/><path fill="#4f2d1d" d="M12 57l3.9-1.1 6 21.1-3.8 1.1z"/><path fill="#5c7688" d="M183 156h16v17h-16z"/><circle r="1" fill="#a1a09c" transform="matrix(-13.24662 -7.00093 30.43715 -57.59085 40.1 230.5)"/><path fill="#e6e4e0" d="M40.5 76l-.7.7L23.5 62l.7-.7z"/><path fill="#b89981" d="M210.3 199.3l-23.6-98.6-16.4 18.3 49.7 14.3z"/><path fill="#726569" d="M152 86l14-15-60 6z"/><path fill="#dfecef" d="M9 117l8-1-8-3z"/><ellipse cx="163" cy="82" fill="#1f1d20" rx="13" ry="2"/><path fill="#141d1d" d="M198.9 46.2l-6.2-39.9 24.5-20.4-34.5-1.9z"/><path fill="#989898" d="M194.2 47.1l6.8 15.8-7.4-37.4-24.7 77.8z"/><path fill="#d8c4b2" d="M32.3 68.1l10.1 20.1-1.9-33.9 10.2 17.6z"/><path fill="#c4c7c4" d="M87 179h7v77h-7z"/><path fill="#505257" d="M64.7 78.7l5.1 87.3 10-99.3 26.8-.5z"/><path fill="#b0b6b8" d="M-9 160l43-6-50-25z"/><path fill="#5f5c60" d="M46 56l19-41-7 73z"/><circle r="1" fill="#7f3b17" transform="matrix(4.7562 -2.14386 1.44977 3.21636 35 64.9)"/><path fill="#b2917b" d="M115 75l11-3-14-34z"/><path fill="#1c130c" d="M43.4 135.7l13.4 16-29.2-2-2-8.3z"/><path fill="#612c04" d="M2 45l9 25-27-37z"/><path fill="#c6cbd0" d="M56-16L44 67 23 27z"/><ellipse cx="179" cy="6" fill="#252a2c" rx="81" ry="2"/></g></g></svg>