<svg xmlns="http://www.w3.org/2000/svg" viewBox="0 0 768 960"><defs/><filter id="a"><feGaussianBlur stdDeviation="12"/></filter><rect width="100%" height="100%" fill="#563b2a"/><g filter="url(#a)"><g fill-opacity=".5" transform="matrix(3.75 0 0 3.75 1.9 1.9)"><circle r="1" fill="#cceaf1" transform="rotate(-135.4 68.5 88.6) scale(198.44229 85.8641)"/><circle r="1" fill="#fff" transform="matrix(-60.63346 -38.7824 3.85796 -6.03165 166.9 134.8)"/><circle r="1" transform="matrix(67.14062 84.39609 -6.10348 4.85557 112.3 211.8)"/><circle r="1" fill="#f8ffff" transform="rotate(145.1 11.2 136.4) scale(22.81792 89.08394)"/><circle r="1" fill="#df8a49" transform="rotate(114.7 79.5 80.4) scale(36.9088 54.65373)"/><circle r="1" fill="#d5c6b5" transform="matrix(125.73215 -41.7949 3.39161 10.20303 0 33.4)"/><ellipse cx="35" cy="85" fill="#39210b" rx="34" ry="43"/><path fill="#d8d5cd" d="M191 265L49 119l50-21z"/><path fill="#ffeace" d="M1.8 45.3l34.1 57.8L20 52.8l-5.2-38.5z"/><path fill="#cbaf98" d="M41 6l36 12 5 60z"/><circle r="1" transform="matrix(19.9351 -3.47923 3.97065 22.75078 39.5 43)"/><circle r="1" fill="#b8b6ba" transform="matrix(32.92442 .40889 -.19672 15.8406 186.6 243)"/><circle r="1" fill="#4b5d66" transform="rotate(-25.6 535.3 77.6) scale(32.03399 127.56654)"/><path fill="#e2fbfc" d="M169 155l-49-51 97 51z"/><circle r="1" transform="rotate(-90.3 65.8 -23.6) scale(33.22329 10.02191)"/><path fill="#917f65" d="M101 0h16v104h-16z"/><path fill="#273a3f" d="M219 176l-103-69 65 128z"/><circle r="1" fill="#fdffff" transform="matrix(52.44129 71.39016 -5.78802 4.25172 88.5 209.1)"/><path fill="#a9b4b4" d="M1.3 95.4L20.7 174l56.4 97 29-20.2z"/><path fill="#050600" d="M66.1 150l-18-43.1 8 51.1 110.1 113z"/><path fill="#eff" d="M107 94.5l-6.6 25.5-34-8.4-1.1 3.6z"/><path fill="#3d1d0b" d="M71.6 74.3l-5.8-49-9.1-25 18.7-16.2z"/><circle r="1" fill="#f6cd95" transform="matrix(-2.94757 1.20288 -10.08757 -24.71885 7 73.4)"/><path fill="#fbfffc" d="M48.2 121.2l-17.6 14.5 2.1-1 16.9 17.8z"/><path d="M186.7 189.7l39.6 10.6-7 26-39.6-10.6z"/><circle r="1" fill="#8d8d86" transform="matrix(-3.1543 4.49125 -45.65033 -32.06124 174.4 152.8)"/><circle r="1" fill="#e4f2f1" transform="matrix(-2.87906 4.11173 -71.75038 -50.24016 177.7 140.9)"/><path fill="#142527" d="M112.5 66.5l-.6 35.5 37.4 72.2-47.2-55.8z"/><path fill="#d6c5a9" d="M75 81.5L59.6 10.2l-6.9 1.5 16.4 70.8z"/><path fill="#260300" d="M-16 80l39 37-39-85z"/><path d="M166 279.5l-36.9-41 9-8 36.8 41z"/><ellipse cx="146" cy="214" fill="#b3b7b5" rx="24" ry="20"/><path fill="#feeede" d="M14.6 41.8l17.2 54.5L4.2 25.2l28.2-9.6z"/><circle r="1" transform="matrix(24.67701 33.22763 -6.15976 4.57464 45.5 63.6)"/><path fill="#f5e0cf" d="M109 34l-1-26-10-6z"/><path fill="#c3864e" d="M36.8 42.5L28.3 4.4l16.3 31.5 1.7 12.4z"/><path fill="#40433b" d="M158.9 75l-98.8 38.5 12.3-59.2 35.4 23.6z"/><path fill="#ebf9f6" d="M142.9 256.5l-98.7-97.2 40.4 62.5 38.6 48.7z"/><path fill="#be8f63" d="M130 34l7 39 7-77z"/><path fill="#ffa967" d="M194 126.4l-1.4 2.6-32.6-17.4 1.4-2.6z"/><path fill="#051a20" d="M121.1 79.8l41.5 33.1-37.8-11.2 94.2 55.7z"/><path fill="#273841" d="M3 151l15-7-34-32z"/><circle r="1" fill="#818079" transform="matrix(-2.3889 2.24333 -46.73958 -49.7726 78.6 160)"/><path d="M95-9l-49-7-48 33zm25 57h9v37h-9z"/><path fill="#be9875" d="M83.2 70.8l39.4-1.4-23.4 7.7-11.7 7.1z"/><path fill="#a8afae" d="M5.8 153l21.6-14.6L110.2 261l-21.6 14.5z"/><path fill="#41271a" d="M143 0h8v99h-8z"/><path fill="#e3d8c7" d="M79-16l-5 44L91-6z"/><path fill="#a3a7a3" d="M127.9 222.1l56.6-18.1-4.5-17.3-15.9 65.5z"/><circle r="1" fill="#0c0100" transform="matrix(8.98416 -2.78724 1.26432 4.0753 9.8 255)"/><path fill="#d49955" d="M151 64l68 31V75z"/><path fill="#797d7b" d="M45 170l-24-42 35 33z"/><path d="M81 13h16v47H81z"/><path fill="#030503" d="M61 143l-11 4 28 29z"/><path fill="#c97947" d="M193.3 18l-12.8 40.8-30.4-14.1 16.1-34.2z"/><path fill="#cfd9d5" d="M113.4 113.1l17.9 14.9-22.9-36.9 71.5 44.3z"/><path fill="#381d08" d="M116 0h21v29h-21z"/><circle r="1" fill="#866440" transform="matrix(-4.91647 4.12541 -29.22648 -34.83076 137 51)"/><path fill="#aa7f64" d="M4.5 49.9l44.8 66.8-17.1 5.5-2.9-16.5z"/><circle r="1" fill="#634b31" transform="matrix(6.59628 1.27298 -7.02498 36.40167 199.6 44)"/><path fill="#070300" d="M43 21l17 74 4-45z"/><path fill="#d1d7d2" d="M6.7 202l1.8-.9L35.3 256l-1.8.9z"/><circle r="1" fill="#171c14" transform="matrix(1.55423 -2.87534 45.16397 24.4129 168.6 93.3)"/><path fill="#191a0e" d="M31 133l-18-26 15-4z"/><circle r="1" fill="#754933" transform="matrix(-4.1182 1.04206 -12.1232 -47.91039 2.4 35.7)"/><path fill="#010302" d="M169 223l23-29 27 13z"/><circle r="1" fill="#141614" transform="matrix(-4.29419 3.59274 -35.0269 -41.86553 100 196.9)"/><circle r="1" fill="#a69e9c" transform="matrix(-9.83846 13.54148 -20.21689 -14.68843 185.7 244.4)"/><path fill="#dfd4ca" d="M64 30L31 11l31 1z"/><path fill="#8a8e8a" d="M189 155l30 13-14 14z"/><path fill="#9f8669" d="M-2 10l19-3-7-23z"/><path fill="#1e1f1c" d="M102 116.5l9.1-1.5L219 190.8l-82.7-32.3z"/><path d="M30 73V22L17 39z"/><path fill="#4f544e" d="M48.3 136.4l17.6-38.3-28.8 13.3L62.4 146z"/><circle r="1" fill="#bac4c3" transform="rotate(57.7 -169.6 157) scale(56.08872 6.16764)"/><path fill="#bec0b6" d="M159.9 219.1l-39.5-71.5 49 57.9 5.2 13.5z"/><circle cx="184" cy="2" r="12" fill="#40290e"/><path fill="#e1cbb5" d="M18.6 49.4l-2.2-31.6-14.1 7.5 35 81.9z"/><path fill="#dea475" d="M43.5 105.9l-3.5.1 17.8-12.7 3 7.1z"/><path fill="#6a8389" d="M125 85l-11 2 29 18z"/><path fill="#353b35" d="M111.9 120.4l-9.4-17.3 14.3 1.2-24.3 20.8z"/><path fill="#f9fff9" d="M76.5 207.7L55 179.3l2-23.2 6.3 9.8z"/><path fill="#767974" d="M109 107l33 27-15-21z"/><path fill="#121c1d" d="M180.7 134.3l38.3-10.7-35.8 3.9-85.3-43z"/><path fill="#332214" d="M68.7 17l-22-27 8.6-7 22 27.2z"/><path fill="#f0ac6e" d="M138 0h4v38h-4z"/><path fill="#3a1e0e" d="M106 36.4l-4.5 5.4-20.7-17.7 85.6 29.5z"/><path fill="#a1a6a3" d="M-5.2 114.4l43.8 69.9 42.1 36.3L-3.4 89.1z"/><path fill="#b5a291" d="M110.9 9.1L77.4-7.7l-5.6 14 .7 2z"/><path fill="#8b5c2f" d="M190.4 99.4l16.7 9.8-3.9-15.2-76.7-34.8z"/><path fill="#fff" d="M59.8 120.1l-1.9-3.5 12.3-6.7 1.9 3.5z"/><path fill="#65553f" d="M44 70.2l13.2 87.7-24.8-84.5 2-10z"/><path fill="#b1361b" d="M187.4 53.7l-31.5 9.5-7.7-19.5 4.4-1.7z"/><circle r="1" fill="#c19973" transform="matrix(1.02555 -2.38194 11.30071 4.86554 131.4 36.4)"/><path fill="#4a5a61" d="M123.6 236.3l-52-62 .8-.6 52 62z"/><path fill="#555149" d="M111.8 110.1l2.9-4 65.5 45.8-2.9 4z"/><path fill="#483f33" d="M8 228l-24-45 9 82z"/><path fill="#36302a" d="M175 213l-54-80 57 29z"/><path fill="#1a2b2f" d="M29 131l3-8 20-3z"/></g></g></svg>