<svg xmlns="http://www.w3.org/2000/svg" viewBox="0 0 1120 1400"><defs/><filter id="a"><feGaussianBlur stdDeviation="12"/></filter><rect width="100%" height="100%" fill="#493125"/><g filter="url(#a)"><g fill-opacity=".5" transform="translate(2.7 2.7) scale(5.46875)"><path fill="#faead6" d="M-11 266L129-15l83 280z"/><circle r="1" fill="#797162" transform="rotate(94.6 33 69) scale(153.30333 62.32835)"/><ellipse cx="103" cy="239" fill="#ffe7c6" rx="110" ry="34"/><circle r="1" fill="#564334" transform="matrix(-14.5884 -23.83743 102.109 -62.49024 33.1 168.5)"/><path fill="#fff" d="M62.5 99.6l-.8-59.8-9.1-5.2 1.4 69.3z"/><path d="M161.5 186.3l34 2.4-1 13-34-2.4z"/><ellipse cx="149" cy="56" fill="#fff" rx="4" ry="29"/><ellipse cx="100" cy="98" fill="#fff" rx="55" ry="4"/><circle r="1" fill="#766a57" transform="matrix(40.85252 -17.50941 37.68477 87.92517 91.2 8.5)"/><path fill="#e3d0ce" d="M141 125l-21 146 66-5z"/><path d="M10 186h32v15H10z"/><path fill="#1b1b1f" d="M125 56h21v41h-21z"/><ellipse cx="103" cy="5" fill="#c09b6f" rx="65" ry="10"/><path fill="#1d1204" d="M9 193L53 78-2-16z"/><ellipse cx="187" cy="40" fill="#1b1406" rx="22" ry="115"/><path fill="#231c13" d="M115 27l10-27 42 30z"/><ellipse cx="105" cy="214" fill="#dba488" rx="79" ry="23"/><path fill="#bc9f7d" d="M-16 236l27-43-15-85z"/><path fill="#0a171b" d="M198 185.8l-14.1 33.4h31.2l-56.7-33.3z"/><path fill="#0c2026" d="M55 86h43v10H55z"/><path fill="#505048" d="M153 60h28v81h-28z"/><ellipse cx="106" cy="99" fill="#fff" rx="58" ry="3"/><path fill="#ffecc1" d="M43 129h68v3H43z"/><ellipse cx="58" cy="106" fill="#1d140c" rx="203" ry="3"/><path fill="#fffffa" d="M80 34h46v4H80z"/><path fill="#ffffeb" d="M44.9 66.9l-6.8-77.7 1-.1 6.8 77.7z"/><path fill="#fff" d="M61.1 79.2l-4 .4L53 30.8l4-.4z"/><circle r="1" fill="#9babb4" transform="matrix(2.12703 -23.8329 29.19886 2.60593 156.6 164.1)"/><ellipse cx="89" cy="142" fill="#f6d4b3" rx="57" ry="2"/><circle r="1" fill="#a07a59" transform="matrix(-8.15195 -7.31433 39.48304 -44.00457 -.1 244.3)"/><path fill="#6a6c64" d="M177.9 176.4l-55.6-11 88.1 3.8-1.3 40.6z"/><path fill="#ffffe2" d="M164 7h2v41h-2z"/><path fill="#faffff" d="M81 39h3v37h-3z"/><path fill="#d4dfce" d="M111.8 81.3l-1.9-6.6L79.3 87l38.4-.1z"/><ellipse cx="139" cy="152" fill="#251b14" rx="133" ry="2"/><ellipse cx="35" cy="19" rx="5" ry="30"/><path d="M-9.7 197.3l61.6-13.2-8.1 15.2-6.2 1.1z"/><path fill="#9caaa9" d="M45.6 83.1L76 103.9 4.4 99.4l46.8-5.5z"/><ellipse cx="107" cy="255" fill="#ffffe6" rx="176" ry="4"/><ellipse cx="112" cy="119" fill="#f3d5af" rx="62" ry="2"/><path fill="#fffff6" d="M147 31h7v47h-7z"/><path fill="#987565" d="M99 151l-76 8 53 52z"/><ellipse cx="103" cy="239" fill="#ffedcf" rx="82" ry="5"/><ellipse cx="45" cy="26" fill="#0c0700" rx="42" ry="4"/><path fill="#0f0300" d="M20.1 102.7l11.7 51.2-22.9 23.5-7.1-59z"/><path fill="#ffffd9" d="M87 129h93v2H87z"/><path fill="#150d06" d="M153 52h8v35h-8z"/><path fill="#ffffe8" d="M164.5 28l1 .1-4 55.9-1-.1z"/><ellipse cx="79" cy="168" fill="#493225" rx="64" ry="3"/><circle r="1" fill="#2c221e" transform="rotate(-178.9 65.9 62.8) scale(64.42697 1.55047)"/><path fill="#fff1d3" d="M50 109h66v2H50z"/><path fill="#271f14" d="M50.6 32.7L56 90.8 23.2 61.3 44.4 117z"/><path fill="#d5c4bb" d="M80.4 173.3L182.7 187l10.8-8.6-75.4-8.3z"/><path fill="#21140d" d="M90.7 116.8l-35 2.4-.4-6 35-2.4z"/><ellipse cx="113" cy="11" fill="#b7ab9c" rx="53" ry="3"/><path fill="#ffe0c1" d="M83 155h71v3H83z"/><path fill="#fff" d="M124 36h2v44h-2z"/><path fill="azure" d="M148 91h10v11h-10z"/><path fill="#26251b" d="M5.6 200.7l-12.7 27.2 40.6-15.3 3.4 8.6z"/><path d="M61 26h3v49h-3z"/><path fill="#d3e2db" d="M27.6 14.8l-.9-18.3-2.6 7.7-.6 7.5z"/><path fill="#a59482" d="M201 139h3v67h-3z"/><ellipse cx="187" cy="97" fill="#8d8883" rx="18" ry="3"/><circle r="1" fill="#0e0800" transform="rotate(-.8 10573 -14281.2) scale(8.71382 31.11465)"/><ellipse cx="103" cy="138" fill="#170d0b" rx="45" ry="2"/><path fill="#041217" d="M73 69h9v27h-9z"/><path fill="#cabeba" d="M198.7 199.5l-40 30.4-29-38.3 39.9 9.7z"/><path fill="#626954" d="M86 36h37v37H86z"/><ellipse cx="160" cy="164" fill="#dce8f4" rx="26" ry="3"/><path fill="#000100" d="M143 25h2v70h-2z"/><ellipse cx="102" cy="187" fill="#7b5549" rx="47" ry="4"/><path fill="#2c312f" d="M219 227.5l-21.4-28.9-12.4 14-18.2.2z"/><path fill="#060f14" d="M200 200l-45-18 10 15z"/><path fill="#eed5a4" d="M39.4-4.4h1l6.2 88.8h-1z"/><path fill="#fff" d="M181.9 12.5h-1l1.2-23h1z"/><path fill="#3d332c" d="M38 112h111v6H38z"/><path fill="#311b06" d="M50 6h97v2H50z"/><path fill="#ffffe7" d="M54 38h7v47h-7z"/><path fill="#c59780" d="M30.7 236.4l59.2-27.8-46.5-31.4 32.2-5.4z"/><path fill="#625b48" d="M66.7 129.9l26.4 9.9-59.8-11.1-6 61.9z"/><path fill="#eec095" d="M47 225l-51.7 11.8-2.2-9.7 51.6-12z"/><path fill="#000003" d="M143 86h10v6h-10z"/><path fill="#e9f5f2" d="M55.2 102.7l-6.6-2.6 3.5-7.7 29.8 9.1z"/><path fill="#d7dcd4" d="M147.4 84l7.4-31.3-8.6-12.6-1.6 47.5z"/><path fill="#a8a89f" d="M172.6 130.8l.6 15.6 16.7-3.1-64.9-12.8z"/><path fill="#eedbbe" d="M93 109h69v2H93z"/><path fill="#dee3e6" d="M187 254.6l-32.4-60.9 4.4-2.3 32.4 60.9z"/><path fill="#de9d59" d="M55.9-16l46.8 30.1-1.6-7.9L161-1z"/><path fill="#080000" d="M196.2 32.6l-27-30-4.6 46.8L211.2-16z"/><path fill="#f1ebc3" d="M35.8-16h21.9L44.8 14.8l6.1.3z"/><ellipse cx="166" cy="94" fill="#12120d" rx="6" ry="15"/><path fill="#a58668" d="M174 33h26v3h-26z"/><path fill="#a9735b" d="M131 30h11v44h-11z"/><path fill="#fff" d="M82 64h2v22h-2z"/><ellipse cx="42" cy="89" fill="#000204" rx="4" ry="18"/><path fill="#1e2c30" d="M118.2 86.2l-3.9-19.6 23.3 24.3-5.5-25z"/><ellipse cx="101" cy="119" fill="#fee3ba" rx="60" ry="1"/><ellipse cx="110" cy="141" fill="#f4d4b9" rx="37" ry="2"/><ellipse cx="20" cy="60" fill="#442d1b" rx="22" ry="37"/><path fill="#323e42" d="M60 92h82v4H60z"/></g></g></svg>