<svg xmlns="http://www.w3.org/2000/svg" viewBox="0 0 1120 1400"><defs/><filter id="a"><feGaussianBlur stdDeviation="12"/></filter><rect width="100%" height="100%" fill="#563c2c"/><g filter="url(#a)"><g fill-opacity=".5" transform="translate(2.7 2.7) scale(5.46875)"><circle r="1" fill="#fff" transform="matrix(158.42706 -6.12946 2.81947 72.8744 113.6 226.7)"/><path fill="#acc2bb" d="M89 93h34v56H89z"/><path fill="#dfe9dc" d="M180 151.3l-14.8 114.3-7.4 1.3-40-122.9z"/><ellipse cx="27" cy="45" fill="#141907" rx="55" ry="123"/><circle r="1" fill="#fff096" transform="matrix(17.58761 20.24502 -5.15445 4.47786 14.3 22.3)"/><ellipse cx="102" cy="49" fill="#ffd38a" rx="35" ry="8"/><circle r="1" fill="#1b2011" transform="rotate(3 -544.4 3394) scale(57.32682 118.1175)"/><circle r="1" fill="#33302a" transform="matrix(-3.48234 20.43395 -31.98201 -5.45035 202.9 176.1)"/><path fill="#fff" d="M186 37h2v112h-2z"/><ellipse cx="37" cy="96" fill="#c9a465" rx="7" ry="44"/><circle r="1" fill="#fffecd" transform="rotate(-39.5 389.5 -158.6) scale(10.82238 33.48422)"/><path fill="#fdfff9" d="M98.4 117.3l-.8-24 18-.6.8 24z"/><circle r="1" transform="matrix(16.56986 -1.16294 2.87891 41.01958 13.1 70.5)"/><path fill="#e9b983" d="M136 46l-28 4 9 34z"/><ellipse cx="158" cy="102" fill="#faebba" rx="3" ry="39"/><path d="M93 61h20v33H93zM90 0h25v32H90z"/><ellipse cx="55" cy="105" fill="#e0d9ba" rx="2" ry="37"/><path fill="#eefff9" d="M60 146h59v4H60z"/><path fill="#f3fffa" d="M77 155h53v14H77z"/><path fill="#e9b678" d="M102.9 50.6l-9 8.2-3.2 29.6-17.3-40.3z"/><path fill="#545c54" d="M159.3 133.3l-7.2 27-73.4-19.6 7.2-27z"/><path fill="#eadbad" d="M187.6 35.8L219 10.4l-35.8 36.2 6.5 37.1z"/><path fill="#131712" d="M0 140h70v26H0z"/><ellipse cx="103" cy="139" fill="#e7eee5" rx="47" ry="2"/><circle cx="49" cy="253" r="96" fill="#a39988"/><path fill="#fff" d="M164 151h18v13h-18z"/><ellipse cx="102" cy="143" rx="81" ry="2"/><path fill="#a9b5a1" d="M116.9-16l6.6 24-2.6 34.7-6.8-21.5z"/><circle r="1" transform="matrix(5.15099 -.30004 3.20693 55.05544 49 98)"/><circle r="1" fill="#ccc9be" transform="rotate(-117.5 77.1 80.4) scale(11.68826 38.46746)"/><path fill="#090400" d="M149.8 30.4l14.5 26.3L208.2 13 160.4-2.6z"/><path fill="#a3aa8e" d="M91.5 12.4l-6.4 36.9-3.2-8.2.8-56z"/><circle r="1" fill="#111713" transform="matrix(1.32675 -2.0126 30.4475 20.07157 187.4 183.7)"/><path fill="#49463d" d="M83 170h37v9H83z"/><path fill="#d8dfd5" d="M64 132h88v2H64z"/><path fill="#0d0300" d="M125 57h30v36h-30z"/><circle r="1" fill="#a0855b" transform="rotate(16.4 18.4 508.6) scale(6.38206 14.65042)"/><ellipse cx="119" cy="147" fill="#f1f5ed" rx="40" ry="2"/><path fill="#ffffd4" d="M185.6 143h-1l3.8-108h1z"/><path fill="#ccb975" d="M-7.4-16l22.9 47.2L39 43.4l-24.3-32z"/><path fill="#efefdf" d="M176 167l43-2-9 11z"/><path fill="#000200" d="M47.6 54L9.6 3.7 30.5-12l38 50.3z"/><path fill="#b38f5e" d="M62 28L54-9l17 33z"/><path d="M183.7 165.9l.7-13 24 1.2-.8 13zM161 108h22v42h-22z"/><circle r="1" fill="#1b2017" transform="matrix(-.00942 2.81913 -35.91956 -.12 103.7 152.3)"/><path fill="#38382d" d="M86 30h33v19H86z"/><path d="M123-5l24-2-24 44z"/><circle r="1" fill="#ffc968" transform="matrix(3.26788 -4.3524 2.2912 1.72028 152.6 50.7)"/><circle r="1" fill="#96867b" transform="matrix(2.45975 32.7136 -81.15479 6.10206 71.8 255)"/><path fill="#f6efa8" d="M219 129.7l-13.4 17.6-20.9-4.3 24.8 11.6z"/><path d="M66 0h16v30H66z"/><ellipse cx="28" cy="118" rx="4" ry="41"/><ellipse cx="119" cy="125" fill="#040000" rx="35" ry="2"/><path fill="#302c1e" d="M51 13l14 125 32-33z"/><path d="M92 60h20v28H92z"/><path fill="#312e20" d="M115.3 104.3L109.1 86l36-4 16.6 68.9z"/><path fill="#c1cbc1" d="M117 113l14 20-5-19z"/><path d="M-5.2 9l39.4 44-29 26-39.4-43.8z"/><path fill="#ffcf8c" d="M124 42l15 9-6 7z"/><path fill="#c3b2a3" d="M123.5 175l2.5 23.9-77.5 8.1-2.5-23.9z"/><path fill="#ac986a" d="M40.8 78.4l5.3 59.3 3.9 1.4-12.1-.4z"/><path fill="#e9f1ea" d="M139.2 155.1l-18.8 8.2L168.3 271l-34.6-102z"/><path fill="#000a06" d="M201.9 204.8l9.3.5-31.6-24.4 39.4 9.9z"/><path fill="#f8ffff" d="M19 167h72v2H19z"/><path fill="#0a0f07" d="M189 74h15v70h-15z"/><path fill="#dce7ea" d="M145.4 155.2l59.9 46.8-.7.8-59.9-46.8z"/><path fill="#b7b197" d="M58 136h-1l-1-58h1z"/><ellipse cx="114" cy="69" fill="#ffe1a8" rx="2" ry="19"/><ellipse cx="49" cy="162" fill="#343f3e" rx="23" ry="5"/><path d="M162 40h6v78h-6z"/><path fill="#72b7da" d="M147 148h17v9h-17z"/><ellipse cx="86" cy="130" fill="#020000" rx="27" ry="2"/><ellipse cx="57" cy="253" fill="#771d15" rx="93" ry="1"/><path d="M90 0h24v22H90z"/><path fill="#cbccbb" d="M102.2 88.8l-6.6 6.7-.1 15.3 28.1 7.9z"/><circle r="1" fill="#b5834b" transform="matrix(1.88254 -.98032 5.8205 11.1773 59.8 49.7)"/><path fill="#b5afa1" d="M176 271l-37-99 80 84z"/><ellipse cx="128" cy="136" fill="#0a0500" rx="28" ry="2"/><path fill="#68553a" d="M183 21.2L208-13l-15.4-3L171 28.6z"/><path fill="#33423f" d="M224.4 220l-.6.7-62.2-48.6.6-.8z"/><path fill="#c5d3c2" d="M199.1 181l-15.5-7.7 33.5 7.2 1.9 5.7z"/><circle r="1" fill="#060400" transform="matrix(20.52974 -37.22188 3.58702 1.97842 141.4 55.5)"/><ellipse cx="113" cy="127" fill="#dde0d4" rx="34" ry="1"/><circle r="1" fill="#5a3517" transform="matrix(-9.06651 -2.09317 5.45332 -23.62091 176.7 60.5)"/><path fill="#181007" d="M98.5 94.1l-36-10.2 19.3-33.7.3 32.3z"/><path fill="#f3efd7" d="M211.6 214.7l-70.8-41.9 33.3-17.5-21.8 10.1z"/><path fill="#eeca92" d="M92 59.5l-.3 37.9-5.5-46 13.6-.4z"/><path d="M62.2 16.5l-15-4.9L25.1-16l25.8 7zm26.7 163.2l-5 .5-.8-8 5-.4z"/><circle r="1" fill="#ffffea" transform="rotate(135 96.4 54.5) scale(17.64074 1.31722)"/><ellipse cx="99" cy="119" fill="#190d01" rx="13" ry="2"/><path d="M32 155l48 1-50-18z"/><circle cx="143" cy="153" r="4" fill="#010301"/><path fill="#070000" d="M31.1 63.7L57.3 33l-72.7 35.8 46.2 41.1z"/><path fill="#e7dbad" d="M186 42h3v63h-3z"/><path fill="#988159" d="M50.8 42.2l2.1 12.9.8 53.2 3.9-38.7z"/><ellipse cx="75" cy="249" fill="#a4b2a8" rx="78" ry="3"/><ellipse cx="47" cy="233" fill="#81382b" rx="99" ry="1"/></g></g></svg>