<svg xmlns="http://www.w3.org/2000/svg" viewBox="0 0 768 960"><defs/><filter id="a"><feGaussianBlur stdDeviation="12"/></filter><rect width="100%" height="100%" fill="#3f3127"/><g filter="url(#a)"><g fill-opacity=".5" transform="matrix(3.75 0 0 3.75 1.9 1.9)"><ellipse cx="109" cy="206" fill="#fff" rx="118" ry="210"/><circle r="1" fill="#edefe1" transform="matrix(-202.98609 -2.37636 .9131 -77.99518 92 188.7)"/><circle r="1" fill="#4b371b" transform="matrix(25.33249 17.60654 -52.72266 75.85796 142.5 35.8)"/><circle r="1" fill="#6d6146" transform="matrix(-45.21913 -10.02484 15.97456 -72.05656 25.1 44.6)"/><path fill="#d4d1b1" d="M35-1l97 100L94-9z"/><circle r="1" fill="#635845" transform="matrix(-41.4706 10.29909 -13.7354 -55.30735 183.4 39)"/><path d="M85 70.3l46.3 47-36.4-9-8.8 5.5z"/><path fill="#090100" d="M47 8l14 97-28-63z"/><circle r="1" fill="#fffbe2" transform="matrix(-2.78993 12.4897 -58.62803 -13.09625 201.5 115.2)"/><path d="M118.2 53.9l1.4 17.3 17.9 23.2-.1-48.6z"/><circle r="1" fill="#ccc0a6" transform="matrix(-38.9055 20.68642 -3.71518 -6.98724 150.2 86.6)"/><path fill="#f4f6c9" d="M64.8 95.2L48.4 36.5l5.8 6.3 32 57.6z"/><path fill="#312a13" d="M74 102l-57 11 40-23z"/><path fill="#101a15" d="M87 203h27v5H87z"/><ellipse cx="154" cy="31" rx="3" ry="45"/><path fill="#d3cfba" d="M23 82h28v18H23z"/><circle r="1" fill="#d0d5b5" transform="rotate(-168.1 48.3 20.8) scale(22.61488 18.37948)"/><path fill="#b4bbba" d="M193.3 18.6L124.9-16l74.2 30.9L219 26z"/><path fill="#deb88b" d="M135.6 28.2L125 22.3l21.3-38.5 10.5 5.9z"/><path fill="#715d4d" d="M51 72.8l-63.6 64.3L18.6 54l-.9-70z"/><path fill="#ffefb4" d="M115 81.2l-1.1-11.6 53 51.6-7.9-5.2z"/><path fill="#000003" d="M126 96l-38 12-3-33z"/><path fill="#f8fff5" d="M84 113l1-12-43 9z"/><circle r="1" fill="#473626" transform="matrix(-1.25962 -6.44238 38.57488 -7.5422 198.1 86)"/><path fill="#200600" d="M144 8h4v55h-4z"/><circle cx="73" cy="83" r="11" fill="#eefdf6"/><circle r="1" fill="#959073" transform="matrix(-4.52718 1.81992 -28.45732 -70.78981 54.1 29.5)"/><circle r="1" fill="#7b6552" transform="rotate(-39.4 170.8 -225) scale(16.42467 32.08537)"/><path fill="#c4663b" d="M142.9 43.6l-.4-23.8-30 12 9.7 20.2z"/><path fill="#c6c0ad" d="M138.5 36.6l1.5 54.3 23.4-20.8-6 54.6z"/><path fill="#050b00" d="M66 71l2-9 12 7z"/><circle r="1" fill="#e5ebe1" transform="matrix(-58.68375 11.27926 -1.23942 -6.44844 0 125.2)"/><path fill="#aaa79d" d="M23.7 8.7L28 1.9 8.5 10.8-16 26.9z"/><path fill="#ce6d3e" d="M154.3 112.1l-20.5-5.4-30.7-37.5 41.5 36.1z"/><path d="M61.8 105l-5.8 1.5L36.2 27l5.8-1.4z"/><path fill="#020000" d="M123 57l14-12 3 51z"/><path fill="#50473f" d="M-4.9 20.2L50.3.4l-7.7 30.3L83.9-16z"/><ellipse cx="81" cy="28" fill="#b2ad94" rx="32" ry="18"/><path fill="#523f34" d="M37.2 104.8L-16 129.1l37.2-35.4-6.6 9.4z"/><circle cx="196" cy="147" r="54" fill="#d0d1c7"/><circle r="1" fill="#9ca5a8" transform="matrix(1.15776 1.43502 -22.10263 17.8322 16.7 28.4)"/><path fill="#baab9f" d="M54 169l11 51 51-77z"/><path fill="#6b6452" d="M107.7 98L89.6 75.3 94.4 63l20.4 1.5z"/><path fill="#5b4e32" d="M177 97h27v3h-27z"/><circle r="1" fill="#33352d" transform="matrix(-6.34708 42.46933 -1.31282 -.1962 181.5 55.2)"/><path fill="#9d9a89" d="M62 0h68v19H62z"/><circle r="1" fill="#545947" transform="matrix(7.55468 29.0669 -2.06026 .53547 55.5 73.1)"/><path fill="#826451" d="M136.5 116.9l-11.3-24.6 14.6 11.7-48.1 10.7z"/><path fill="#dce4d6" d="M86.8 119.8L81.6 55 65.5 95.2 78 84z"/><path fill="#c6c4b2" d="M18 99l30-20H29z"/><path fill="#ffffcb" d="M139 29h3v23h-3z"/><path fill="#4b3c2b" d="M119 0h17v11h-17z"/><path fill="#a49b8c" d="M192 57l-7 19h34z"/><ellipse cx="148" cy="206" fill="#bcb6ad" rx="23" ry="64"/><ellipse cx="20" cy="215" fill="#cbd0cb" rx="84" ry="18"/><path fill="#e9f8ef" d="M143 77h26v6h-26z"/><path fill="#292b25" d="M2 43l40-31-55 74z"/><path fill="#fff" d="M113 102h16v4h-16z"/><ellipse cx="102" cy="174" fill="#fff9bb" rx="4" ry="22"/><path fill="#73553e" d="M37 34L-9 87l57-12z"/><path fill="#030606" d="M42.9 43.4L34.5-.4 20.8 11.5l23.8 3.1z"/><path fill="#807361" d="M184 21l-22 71-2-91z"/><path fill="#201200" d="M142 34h4v30h-4z"/><path fill="#13100b" d="M41-9.3l-71.6 38-10.3-19.4 71.5-38z"/><path fill="#eafff4" d="M100 58l5 8 12-9z"/><path d="M89 101l26 9-28-39z"/><path fill="#736956" d="M64 9h5v63h-5z"/><path fill="#ffe9b6" d="M117.5 75.8l37 32.1-2 2.3-37-32.1z"/><circle cx="85" cy="139" r="30" fill="#c7bcb0"/><path fill="#1a1209" d="M161.4 18l-10.6 51.7 2.7-59.4 29.2 23.1z"/><path fill="#b5b6a4" d="M159 68h15v21h-15z"/><path fill="#9f7f7b" d="M206.9 245.9l-33.7 22.3-29.7-21.9L219 271z"/><circle r="1" fill="#474534" transform="matrix(-1.47732 7.894 -.98294 -.18395 78.2 85)"/><path fill="#d6d8d0" d="M.7 116.9l31.5 23L-.7 185l-31.5-23z"/><path fill="#5c3521" d="M112.6 21.8l19.6.4-21.3 14.4 18.4 44z"/><circle r="1" fill="#868370" transform="matrix(-.97196 .23514 -12.64667 -52.27508 56.2 78.7)"/><path fill="#4f473a" d="M188.1 63.6l30.9-33-48.9-24.1 7 45.5z"/><path fill="#ced2ba" d="M149 38h2v29h-2z"/><path fill="#f6ffff" d="M72.5 76.2l3.9 19.7-8.9-.9-.1-26.1z"/><path fill="#645241" d="M43.6 52.3l-23.4 65 28.6-63.1L2 119.1z"/><circle cx="14" cy="88" r="7" fill="#ada090"/><path fill="#826f59" d="M38.8 46.4l-1.2-14.1-14.7 16.9 28.4 34.9z"/><path fill="#8c8d8a" d="M27.1 22.6L-14.8 50l40.4-32.2L40.2 10z"/><path d="M151 68h3v9h-3z"/><path fill="#b3b7a8" d="M133.6 15.6l-50.6 7 56.7-15.1 5.1 9.4z"/><path fill="#7c8173" d="M188.5 100.7l-19.8-5.8-8.5-12-16.3 13.2z"/><path fill="#402212" d="M-16 116.7l52.3-73.4 2.7-2.6L5.5 91.6z"/><path fill="#030a09" d="M84 81h12v13H84z"/><ellipse cx="43" cy="94" fill="#bdb9a5" rx="10" ry="7"/><path fill="#b09b94" d="M10 181l22-4-11-19z"/><path fill="#d6d8cc" d="M2 120l67.1 15.7L86.2 106l-34.3 1.7z"/><path fill="#0e0b09" d="M122 74l12-30 3 46z"/><path fill="#35302a" d="M117.2 84.7l-9.5 28.8 10.4-16.3-16.9-15z"/><path fill="#c4b07e" d="M68 82l-7-58-11 14z"/><path fill="#b8ad8f" d="M149.3 51l-1-.2 4.4-35.7 1 .1z"/><path fill="#382613" d="M143 17h7v30h-7z"/><circle r="1" fill="#ffd3ad" transform="matrix(-6.01962 -5.307 3.32374 -3.77004 117 77.4)"/><path fill="#051010" d="M150 58h3v19h-3z"/><path fill="#ffe8ae" d="M182 94h22v4h-22z"/><circle r="1" fill="#8d8887" transform="matrix(-1.9448 -14.94255 1.21181 -.15772 139.5 81.5)"/></g></g></svg>