<svg xmlns="http://www.w3.org/2000/svg" viewBox="0 0 1400 760"><defs/><filter id="a"><feGaussianBlur stdDeviation="12"/></filter><rect width="100%" height="100%" fill="#444"/><g filter="url(#a)"><g fill-opacity=".5" transform="translate(2.7 2.7) scale(5.46875)"><circle r="1" fill="#fff" transform="matrix(252.93308 32.40148 -5.04074 39.34916 115.5 13.8)"/><circle r="1" fill="#d3d3d3" transform="rotate(-157.7 132.4 37) scale(59.0582 254.99998)"/><circle r="1" fill="#b1b1b1" transform="matrix(73.11399 193.49055 -27.9379 10.55685 59.4 118.6)"/><path d="M197 109l-41-1 4-107z"/><path fill="#f8f8f8" d="M55 96h24v42H55z"/><ellipse cx="219" cy="16" fill="#eaeaea" rx="59" ry="25"/><circle r="1" fill="#c8c8c8" transform="matrix(2.9437 16.52589 -33.32468 5.93603 174.5 126)"/><circle r="1" fill="#141414" transform="matrix(-25.0727 -39.18547 22.8564 -14.6246 117.5 83.9)"/><circle r="1" fill="#545454" transform="matrix(-51.52812 -6.69233 3.59751 -27.6993 27 70.7)"/><circle r="1" fill="#5b5b5b" transform="matrix(26.56529 -15.91955 8.8989 14.84979 85.4 40.2)"/><circle r="1" fill="#4e4e4e" transform="matrix(-33.36393 .19097 -.11678 -20.4033 238.5 123.9)"/><path fill="#9f9f9f" d="M78 107L36 83l79 10z"/><circle r="1" fill="#7c7c7c" transform="rotate(102.7 81.3 112.4) scale(16.9029 37.85721)"/><path fill="#141414" d="M130 69h70v39h-70z"/><path fill="#060606" d="M136 153l2-74-47 29z"/><ellipse cx="12" cy="133" rx="8" ry="45"/><circle r="1" fill="#cbcbcb" transform="matrix(11.02505 -20.06832 34.28204 18.83372 120.6 3.8)"/><path fill="#9a9a9a" d="M137 72l-7-28 36-3z"/><path fill="#6b6b6b" d="M141 108h34v30h-34z"/><path fill="#d5d5d5" d="M176 139l28-54 1 54z"/><path d="M165 32h-18v-6h18z"/><circle r="1" fill="#ababab" transform="matrix(7.77814 -.62874 .25908 3.20501 141.5 94.6)"/><ellipse cx="53" cy="8" fill="#d8d8d8" rx="11" ry="32"/><path d="M99 18l-12 6 26 4z"/><ellipse cx="213" cy="78" fill="#d8d8d8" rx="29" ry="2"/><path fill="#f6f6f6" d="M240 0h16v59h-16z"/><path fill="#969696" d="M24 106l16 47-21-4z"/><path fill="#fff" d="M-8.2 91.2l16-1.4.4 5-16 1.4z"/><path fill="#111" d="M163.1 54.6l3.6-29.6 20 83.4-56.8-32.6z"/><ellipse cx="244" cy="91" fill="#585858" rx="39" ry="6"/><path fill="#7a7a7a" d="M108 135l-1-23-60 41z"/><circle r="1" fill="#ababab" transform="rotate(43.3 65.7 244.6) scale(30.1084 16.85076)"/><path fill="#1a1a1a" d="M136 50l-57 4v33z"/><path fill="#929292" d="M172 44l-47-5 13 29z"/><path fill="#606060" d="M135 78l-27 21-21-16z"/><path fill="#b1b1b1" d="M190 94h33v6h-33z"/><path fill="#919191" d="M94.2 45.7L60.1 33.2 66.2 9l66 42.6z"/><path fill="#444" d="M228 59h23v4h-23z"/><circle r="1" fill="#545454" transform="rotate(130.3 -10 37) scale(20.11606 39.1313)"/><path fill="#828282" d="M41 40h22v55H41z"/><path fill="#101010" d="M177 82h24v12h-24z"/><path fill="#121212" d="M11.1 92L-.2 153l24.6-55.6-4.7-7.5z"/><ellipse cx="5" cy="34" fill="#bababa" rx="59" ry="7"/><path fill="#bebebe" d="M86 93h22v5H86z"/><path fill="#1d1d1d" d="M191.9 55.8l-10.7 53.9 20-5.8-40.6-27.5z"/><path fill="#595959" d="M60 66.2L96.4 16 73.7 78.3 52 85.6z"/><path fill="#d2d2d2" d="M203.1 96.8l61.9 4.4-.1 2-61.9-4.4z"/><circle r="1" fill="#404040" transform="rotate(92.7 71.3 173.4) scale(3.33355 31.83401)"/><path fill="#d2d2d2" d="M177 111h22v27h-22z"/><circle r="1" fill="#0d0d0d" transform="rotate(-30.3 251.8 -158.3) scale(30.2852 5.17599)"/><circle r="1" fill="#b6b6b6" transform="matrix(-23.19164 .1784 -.2288 -29.74414 130.1 11.7)"/><path fill="#858585" d="M-6.2 147.7l6.5-36.4 5.9 1-6.5 36.4z"/><path fill="#6f6f6f" d="M143 108h24v30h-24z"/><path fill="#989898" d="M192 48h37v23h-37z"/><path fill="#595959" d="M81.9 92.4l10.9 7.4 8.6-2-20.3 30.8z"/><path fill="#ababab" d="M236 62h13v24h-13z"/><path fill="#ececec" d="M233.7-28.4l31.8 25.8-25.2 31-31.8-25.8z"/><path fill="#c9c9c9" d="M50 114l32-25-14 42z"/><path fill="#919191" d="M69.7-13.3l21.8 3-7.2 51.6-21.8-3z"/><path fill="#292929" d="M129.7 53.5l-13.2 46.2L85.6 75l18.6-30.4z"/><path fill="#838383" d="M233 79l-24-1-9 60z"/><path fill="#494949" d="M230.9 55.6l3.4 39.3-5.4 10.6 2.5-4.6z"/><path fill="#141414" d="M165.4 27.3l-16.7-.2 19 14.9 4.2-3.3z"/><path fill="#0c0c0c" d="M96 99h97v9H96z"/><path fill="#5b5b5b" d="M42 39l-55 5 53 53z"/><path fill="#757575" d="M161.4-16l2.8 39-18.4 32.2 14.5-9.6z"/><ellipse cx="255" cy="77" fill="#cfcfcf" rx="43" ry="2"/><path fill="#c8c8c8" d="M201 80h5v38h-5z"/><path fill="#191919" d="M106 20l4 11-14-12z"/><path fill="#6b6b6b" d="M55 122.6l2.7 24.9-36.8 3.9-2.6-24.9z"/><path fill="#c1c1c1" d="M90 28h13v7H90z"/><path fill="#d4d4d4" d="M187 78h12v3h-12z"/><path fill="#5d5d5d" d="M105.4 58.5L86.6 42.1 63.7 82l1.4-46.4z"/><path fill="#131313" d="M105 124l20 29-3-41z"/><path fill="#c1c1c1" d="M136 94h13v3h-13z"/><path fill="#272727" d="M234 94h22v2h-22z"/><path fill="#919191" d="M160.9 57.9l-22.7 4.5-23.7-19.6 50-4z"/><path fill="#131313" d="M125 101l45-54 2 23z"/><path fill="#b3b3b3" d="M160 22l-48-7-2 30z"/><path fill="#8a8a8a" d="M173 42h37v17h-37z"/><path fill="#767676" d="M38.9 45.9l18.4 49.8 25.5 5.2L68 89.8z"/><path fill="#5e5e5e" d="M22 7h5v8h-5z"/><path fill="#313131" d="M148.5 94.6l8.9-29.9 7.1 14.4-16.5 23.7z"/><path fill="#737373" d="M103.3 120.6l4.8 32.4H79.4l-2.5-30.8z"/><path fill="#484848" d="M101 34h5v15h-5z"/><path fill="#bfbfbf" d="M271 101.1l-19.3-85.8 9.9 89.7-77.3-8.5z"/><path fill="#686868" d="M125.8 72.6l8.9 12.7-11.8-6.4-4.1 8.7z"/><circle r="1" fill="#c6c6c6" transform="matrix(3.68023 8.7803 -11.3467 4.75592 101.4 8.6)"/><path fill="#191919" d="M87 28h3v11h-3z"/><path fill="#b1b1b1" d="M89.6 41.9l-2.4 2.7 17-2.9-22.3-6.2z"/><ellipse cx="108" cy="118" fill="#474747" rx="4" ry="11"/><path fill="#111" d="M161 62l35 45-29 1z"/><path fill="#3e3e3e" d="M93 68L82 96l20-9z"/><path fill="#171717" d="M120 65l-41-7 10-9z"/><path fill="#6d6d6d" d="M189 20.5l2.5-5.5 5.5 2.5-2.5 5.5z"/><path fill="#a8a8a8" d="M207 40h32v17h-32z"/><path fill="#757575" d="M75.3 116.1L102 97.7l-10.4 10.8-5.2 26.5z"/><ellipse cx="198" cy="96" fill="#a7a7a7" rx="8" ry="4"/><path fill="#ababab" d="M146 88l-10 8 10-3z"/><path fill="#a0a0a0" d="M232 107l8-18-17 18z"/></g></g></svg>