<svg xmlns="http://www.w3.org/2000/svg" viewBox="0 0 933 1400"><defs/><filter id="a"><feGaussianBlur stdDeviation="12"/></filter><rect width="100%" height="100%" fill="#4e4e4e"/><g filter="url(#a)"><g fill-opacity=".5" transform="translate(2.7 2.7) scale(5.46875)"><ellipse cx="42" cy="84" fill="#f5f5f5" rx="151" ry="87"/><path fill="#fff" d="M194.7 201.5L144 247l-32.8-36.5L162 165z"/><circle r="1" transform="matrix(12.97553 -1.8005 6.69274 48.23195 94.8 77)"/><circle r="1" fill="#fff" transform="matrix(26.16663 -1.31403 3.8119 75.90721 58.7 94.4)"/><circle r="1" transform="matrix(67.38248 43.88966 -19.02772 29.21269 68.1 217.7)"/><ellipse cx="25" cy="113" rx="7" ry="255"/><circle r="1" fill="#1a1a1a" transform="rotate(-28.7 332.4 -165.3) scale(12.64982 75.36338)"/><path d="M165 16L79 34l58-50z"/><path fill="#fdfdfd" d="M44 35L34 171l82-10z"/><ellipse cx="155" cy="42" fill="#fff" rx="41" ry="17"/><ellipse cx="90" cy="229" rx="25" ry="58"/><ellipse cx="162" cy="149" fill="#d5d5d5" rx="12" ry="80"/><ellipse cx="149" cy="68" fill="#20201f" rx="68" ry="7"/><circle cx="133" cy="173" r="31" fill="#363636"/><circle r="1" fill="#202020" transform="matrix(10.75094 -.33786 .52472 16.6969 133.2 111.2)"/><circle r="1" fill="#fff" transform="matrix(.40112 -16.41297 23.04333 .56317 145.6 221.2)"/><circle r="1" fill="#e6e6e6" transform="matrix(-3.2778 -14.42732 43.88012 -9.96932 78 5.1)"/><ellipse cx="148" cy="251" rx="83" ry="10"/><circle r="1" transform="matrix(-13.90324 14.65096 -31.66607 -30.04997 7 232.8)"/><ellipse cy="108" fill="#eaeaea" rx="17" ry="66"/><path fill="#f4f4f4" d="M185 114l-48.1-55.7-14-17.7 26.2 69.9z"/><path fill="#6a6a68" d="M39 168h25v88H39z"/><circle r="1" fill="#070707" transform="matrix(9.90384 3.39084 -9.8807 28.85916 93.6 42)"/><ellipse cx="25" cy="62" rx="5" ry="128"/><path fill="#cfcfcf" d="M120.2 110.9l8.6-26.9-34.7.7 26.6 38.6z"/><path fill="#0e0e0e" d="M96 125l13-9.3 27 37.2-13 9.4z"/><path fill="#1c1c1c" d="M122 68l-40 39 2-44z"/><path d="M135 258.4l40.4-40.3 15.5 15.5-40.3 40.3z"/><path fill="#fafafa" d="M81 114h16v55H81z"/><path d="M98.8 27.5l-2.3-9.7 48.7-11.3 2.3 9.7z"/><path fill="#f6f6f6" d="M77 44l16-30-30 8z"/><circle r="1" transform="matrix(-12.99968 -7.01097 17.95979 -33.30087 83.9 203.3)"/><path fill="#909090" d="M94.2 85.2l31 60.1L92.8 36.7l44.8-17.9z"/><path fill="#b9b9b8" d="M106.2 188.7l3.9-6.3 28.3 47.1-27.3-26.6z"/><path fill="#ddd" d="M183.8 96.8l-51.2 45.5-19.6-24.7 36 26.6z"/><path d="M153.7 263.6l-18.1 14.1-57.3-73.3 18.1-14.1z"/><circle r="1" fill="#262625" transform="rotate(85.3 -7 28.6) scale(53.91151 6.43745)"/><ellipse cx="130" cy="31" fill="#f2f2f2" rx="17" ry="9"/><path fill="#d6d6d6" d="M28.8 87.4l57.3-2.8-4.2-19.2L42-9.5z"/><path fill="#dadad9" d="M154-16l31 33-27-12z"/><path fill="#a3a3a3" d="M137 171l48 24v-63z"/><path fill="#2f2f2f" d="M143.9 174.8l-12.1 31.1L95.7 167l66-22z"/><path fill="#8a8a88" d="M57.1 199.5l-5.5-33.9 48.7.6L82 177.5z"/><path fill="#050505" d="M131.7-7.5l41 39.5L185 6.6l-39.2 22.6z"/><path fill="#353535" d="M118.8 122l11.1-7 47 2.5-27.7 1.7z"/><path fill="#e6e6e6" d="M160 235.5l25-64.7-54.3 61.8 15.5 12.9z"/><path d="M132.9 67.2l-2.3 9.7-17.5-4 2.3-9.8z"/><path fill="#a9a9a8" d="M-5 171l23 2 5-69z"/><path fill="#dfdfdf" d="M113.1 157.8l-6.6-20-76.3 2.8 46.7 33.8z"/><path fill="#f6f6f7" d="M185 114.4l-49-51.6 2.5 34.6 40.4-27.5z"/><path fill="#2e2e2e" d="M132.1 114.6l-4.9-26 11.7 11 14.2-1.7z"/><circle r="1" transform="matrix(-12.52443 -66.92372 25.02606 -4.6835 102.6 253)"/><path fill="#515151" d="M139.7 146.6l-11.5 62.9 30.3-56.2 18.2-19.2z"/><path fill="#0d0d0d" d="M147 75l2-15h15z"/><path fill="#c5c5c5" d="M35.4 52.6L34.9-16h102.6L90.9 22.7z"/><ellipse cx="88" cy="71" fill="#030303" rx="5" ry="42"/><path fill="#141415" d="M0 239h56v13H0z"/><ellipse cx="32" cy="62" fill="#8c8c89" rx="2" ry="104"/><circle r="1" fill="#f4f4f4" transform="matrix(.83004 -4.32035 13.9712 2.6842 72.1 77)"/><path fill="#dedede" d="M123 28h47v32h-47z"/><path fill="#cacaca" d="M165 74l-24.5 42.3 34.8-7.8-24.5-39.1z"/><path fill="#c3c3c3" d="M159.9 189.9l25.1-68.4-70.2 3.2 59.8-9.8z"/><path fill="#1a1a1a" d="M109 143l14-10 9 64z"/><ellipse cx="106" cy="114" fill="#4b4b4b" rx="8" ry="16"/><path fill="#646464" d="M100 71l14-29-24-6z"/><path fill="#494948" d="M71 185l-31 45-7-65z"/><path fill="#dedede" d="M140 197l45 17-49 23z"/><path d="M155.8 242.2L185 199l-18.8 69.9-45.4-21.6z"/><path fill="#e9e9e9" d="M90 169L78 43 45 74z"/><ellipse cx="19" cy="80" fill="#7e7e7b" rx="3" ry="34"/><path fill="#d9d9d9" d="M131.6 76.7l-29.9 14.6 7.3 4 13.6 6.7z"/><path fill="#383837" d="M-16 248l38-74-38-9z"/><path fill="#636363" d="M120.4 122.6l13.4-50.8 1 16.3-4.3 18.1z"/><path fill="#141414" d="M154.3 9.8l25.3 16.7L106.5 9 80.7 38.7z"/><path fill="#010101" d="M109 159l-44 40 3 72z"/><path fill="#e9e9e9" d="M149.3 129.8l10.7 9.4-33.2-.8 10.6-6z"/><path fill="#e6e6e6" d="M34 116h62v31H34z"/><path fill="#292929" d="M113 65l-29 40-2-20z"/><path fill="#acacac" d="M103 57h42v8h-42z"/><ellipse cx="25" cy="132" fill="#050505" rx="2" ry="196"/><path fill="#a8a7a6" d="M128 3l5-14-27 3z"/><path fill="#e3e3e3" d="M114 156.4L63.2 68.9 93 169.6l7.2-3.5z"/><path d="M82 37h10v35H82z"/><ellipse cx="30" cy="73" fill="#70706d" rx="2" ry="72"/><path fill="#a1a19e" d="M109.5 159.7l5.6 2.1-2.6 6.5-5.6-2.1z"/><ellipse cx="160" cy="67" fill="#060607" rx="8" ry="3"/><ellipse cx="141" cy="113" fill="#dedede" rx="6" ry="2"/><path fill="#636363" d="M158.5 178l-4 27-16.4-7.6 6.5-43.3z"/><path fill="#282828" d="M117 183l42-38h-41z"/><circle r="1" fill="#dadada" transform="matrix(3.02082 -6.76998 15.22528 6.79365 135.7 224)"/><path fill="#d1d1d1" d="M0 60h15v101H0z"/><path fill="#0c0c0c" d="M128 101h10v9h-10z"/><circle r="1" fill="#959595" transform="rotate(92.3 46 117.2) scale(4.94155 19.65462)"/><ellipse cx="21" cy="119" fill="#53534f" rx="2" ry="55"/><circle r="1" fill="#949494" transform="matrix(4.37668 -7.77556 5.98913 3.37114 109 33)"/><path fill="#b4b4b4" d="M18 82l-34-63L1-16z"/><path fill="#565655" d="M54.1 175.8l-.6 91.7 16.4-100 19 5.5z"/><ellipse cx="145" cy="117" fill="#242424" rx="16" ry="2"/><path fill="#1a1a1a" d="M108 139l-8-7 13-1z"/><path fill="#d7d7d7" d="M185 87.8l-50.9-67L185 41.4l-27.9-19.5z"/></g></g></svg>