<svg xmlns="http://www.w3.org/2000/svg" viewBox="0 0 1400 933"><defs/><filter id="a"><feGaussianBlur stdDeviation="12"/></filter><rect width="100%" height="100%" fill="#594339"/><g filter="url(#a)"><g fill-opacity=".5" transform="translate(2.7 2.7) scale(5.46875)"><circle cx="123" cy="109" r="106" fill="#d5f2d5"/><circle r="1" fill="#030000" transform="matrix(-64.95165 -1.26294 .4597 -23.6424 95.1 119)"/><path fill="#f4fffd" d="M221.5 139h-61V43h61z"/><path fill="#ddf2ff" d="M36 44h118v46H36z"/><ellipse cx="178" cy="166" fill="#190000" rx="133" ry="6"/><ellipse cx="2" cy="76" fill="#170b06" rx="32" ry="82"/><ellipse cx="171" cy="58" fill="#15f50f" rx="38" ry="8"/><ellipse cx="248" cy="135" fill="#0e0604" rx="26" ry="143"/><circle r="1" fill="#ffc999" transform="rotate(76.4 -73.7 91.2) scale(32.83499 13.71898)"/><circle r="1" transform="rotate(101.7 22.4 120.7) scale(30.91354 10.689)"/><path fill="#42534f" d="M21 9h70v36H21z"/><path fill="#1ef30e" d="M164 106h46v14h-46z"/><path fill="#fff" d="M158.6 4.4l15.8 22-22 28.9-4.3-14.1z"/><path fill="#ff6" d="M199 7h8v60h-8z"/><path fill="#ede8f5" d="M84 71h138v26H84z"/><ellipse cx="212" cy="126" fill="#fff" rx="10" ry="35"/><path d="M204.3 136.8l-.6 19-16-.6.6-19z"/><path fill="#047b00" d="M59 142h49v13H59z"/><path fill="#fff" d="M133 139l-18 24-7-26z"/><path fill="#271110" d="M85 96h73v42H85z"/><ellipse cx="105" cy="3" fill="#380000" rx="74" ry="6"/><path fill="#f8eadb" d="M48 168l-15-13 49-53z"/><path fill="#fff" d="M144 139.5l12.7 22.3.6-81.9 15.7 55.9zm29-13.5h15v36h-15z"/><path fill="#040606" d="M32 97h112v10H32z"/><path fill="#626d84" d="M43 58h88v13H43z"/><circle r="1" fill="#befe2a" transform="rotate(-120.1 60.4 -17.6) scale(18.38678 15.94891)"/><ellipse cx="230" cy="83" fill="#9d5338" rx="9" ry="55"/><path fill="#3e3e2c" d="M167.7 43.5l25-.6 10-.5-25.6-36.2z"/><ellipse cx="3" cy="114" fill="#000a12" rx="15" ry="169"/><path fill="#30180a" d="M6.5 129.6l27.9 15.1 9.1-38.8 21.4 29z"/><path fill="#fffffb" d="M41 156h165v5H41z"/><ellipse cx="81" cy="50" fill="#eff4ff" rx="62" ry="7"/><ellipse cx="92" cy="83" fill="#5a595b" rx="139" ry="2"/><path fill="#fa4c42" d="M127.9 45.2L147.6 9l9.4 16.1-6.4 12.6z"/><path fill="#fff" d="M209 42h13v64h-13z"/><path fill="#3d95e5" d="M119.9 3.6l22.4 20.9-17.9 26.6-5.5-67.1z"/><path fill="#f94966" d="M123.9 109.4l-3.3 15.1 13.8.1-2.3-21.3z"/><ellipse cx="36" cy="122" fill="#fffcfb" rx="2" ry="91"/><ellipse cx="25" cy="52" fill="#8c4d31" rx="8" ry="87"/><path fill="#fff" d="M61 134h38v3H61z"/><ellipse cx="113" cy="169" fill="#68260e" rx="103" ry="9"/><path fill="#ffe6a8" d="M16.9 131.3l49 46.3-35.2-11L15.6 132z"/><path fill="#4f605a" d="M29 12h64v32H29z"/><ellipse cx="255" cy="83" fill="#011016" rx="18" ry="169"/><path fill="#ff581f" d="M59.4 122.2l-10.9-1.5 2.1-14.9 10.9 1.5z"/><path fill="#fffeda" d="M83.9 102.6l-20.4 28.1 10-26.5 7.1 3.2z"/><path fill="#010f03" d="M208 8h17v33h-17z"/><path fill="#fff" d="M165 7l3 28-22-26zm56.9 147.7l-21.7 8.9 10.7-23.9 10.5-4.8z"/><path fill="#363c47" d="M117 89h22v6h-22z"/><circle r="1" fill="#7f8300" transform="matrix(2.22539 -9.09512 7.61466 1.86315 163.5 145)"/><ellipse cx="84" cy="115" fill="#ff5820" rx="6" ry="9"/><ellipse cx="153" cy="69" fill="#283139" rx="59" ry="1"/><path fill="#fef9ff" d="M37 87h20v9H37z"/><circle cx="138" cy="148" r="8"/><path fill="#fff" d="M167.9 91.4l49.7 10-24.8 3-38.3.2z"/><path fill="#ffff3a" d="M199 9h8v32h-8z"/><path fill="#332f43" d="M43 75h29v4H43z"/><path fill="#fffff9" d="M167 121h55v15h-55z"/><path fill="#202115" d="M189 185l-18-23 100-2z"/><circle cx="121" cy="147" r="10" fill="#fff2e0"/><path fill="#3a652d" d="M49 137h41v9H49z"/><ellipse cx="161" cy="47" fill="#d5ebf8" rx="58" ry="5"/><path fill="#e6533a" d="M157 24l-25-34 13 52z"/><path fill="#a7a486" d="M168 137h52v3h-52z"/><ellipse cx="108" cy="42" fill="#444a3a" rx="72" ry="2"/><path fill="#f4e9f4" d="M61.1 139.8l-1.3 18-22.9-1.6 1.3-18z"/><ellipse cx="99" cy="2" fill="#4a2516" rx="87" ry="7"/><path fill="#5fdf5c" d="M209 50l-7 19-70-19z"/><path fill="#d54635" d="M19 159h13v11H19z"/><path fill="#fff" d="M134 71h77v11h-77z"/><path fill="#edf3f0" d="M96 119l4 8-4 10z"/><path fill="#6f7b86" d="M31.7 14.2l31 .6-.4 25-31-.6z"/><path fill="#777a6d" d="M174 89h24v6h-24z"/><path fill="#42403d" d="M73.2 6l22 20.5L78.8 44l-22-20.5z"/><path fill="#110a0b" d="M67 93l.7 21.7L53.2 143l1.2-3.7z"/><path fill="#f59056" d="M17.3 113.4l16.8-1.1-11.6 16.8.8-38.4z"/><path d="M197.8 140l1.3 15-11 1-1.2-15z"/><path fill="#74d84b" d="M100.8 38.3L79.9 7l21 3.5-15.2 33.9z"/><path fill="#eb5e30" d="M221.6 54.5l13.6 7 2.6 7.6-4 10.1z"/><path d="M70 131l6-15 20 16z"/><path fill="#fdf34e" d="M111 7l-4 34 20-15z"/><ellipse cx="129" cy="25" fill="#131517" rx="34" ry="1"/><path fill="#f0e6d8" d="M147.2 159l-1.2-22.5 10.7 19.5 62.3 6.4z"/><path fill="#100d0b" d="M39 110l40-10-42-3z"/><path fill="#f9f8ff" d="M73 74h47v9H73z"/><circle r="1" fill="#11140e" transform="matrix(-8.36501 -4.65058 8.84014 -15.9008 111.3 124)"/><ellipse cx="136" cy="83" fill="#384144" rx="76" ry="1"/><path fill="#fdf8ff" d="M136 49l-15 3 17 18z"/><path fill="#fdfff9" d="M214 83l-7 22-26-22z"/><path fill="#5f6350" d="M190 42L163 7l35-1z"/><path fill="#fffff7" d="M173 139h13v17h-13z"/><ellipse cx="75" cy="96" fill="#cdd3e4" rx="40" ry="1"/><path fill="#fffff9" d="M161.9 41l-10.5-5.8L158 23l10.5 5.8z"/><path fill="#53362c" d="M22 13h12v68H22z"/><path fill="#fffffe" d="M178 84l-21 39 5-40z"/><path fill="#ede1d0" d="M127 157h85v5h-85z"/><path fill="#607353" d="M64.4 147.8l5.4-21.3-12 14.6-13.5 4.7z"/><path fill="#03271e" d="M239.6 129.5L224 116.4l-2.5-11.1 14.1 11.7z"/></g></g></svg>