<svg xmlns="http://www.w3.org/2000/svg" viewBox="0 0 1400 787"><defs/><filter id="a"><feGaussianBlur stdDeviation="12"/></filter><rect width="100%" height="100%" fill="#4a4e29"/><g filter="url(#a)"><g fill-opacity=".5" transform="translate(2.7 2.7) scale(5.46875)"><circle cx="151" cy="142" r="177" fill="#fff"/><circle r="1" fill="#fff" transform="matrix(31.39062 -54.75098 40.18089 23.03708 87.5 42.5)"/><circle r="1" fill="#fff" transform="matrix(129.80556 -219.48922 52.8393 31.24908 248.8 82.8)"/><path fill="#0a8659" d="M156-16l79 71-116 69z"/><circle r="1" fill="#fff" transform="matrix(12.62785 38.86453 -31.79182 10.32979 0 112.6)"/><circle r="1" fill="#fffffc" transform="rotate(175.6 71.3 72.6) scale(165.96941 16.68094)"/><circle r="1" fill="#fffffb" transform="matrix(15.1151 -8.34399 44.1411 79.96148 222.8 18.6)"/><circle cx="146" cy="61" r="27" fill="#216e4c"/><circle r="1" fill="#fffffe" transform="rotate(2.9 -413 2051) scale(43.78498 21.60799)"/><path fill="#48450e" d="M154.1 118.2l57.1-9.2L271 91.2l-109.6 19.4z"/><path fill="#636518" d="M122 120l-68-9-42 26z"/><path fill="#ecddd3" d="M-7 44l120 76-6-134z"/><ellipse cx="190" cy="54" fill="#71c3a0" rx="25" ry="37"/><path fill="#624a41" d="M-16 47L72-1-1-8z"/><path fill="#fbfee9" d="M130.7 118L271 81 154.7 94.6l-34.4 19.1z"/><path fill="#fffcf1" d="M55 115L-7 61l-9 81z"/><path fill="#1f1312" d="M164.4 30.8l-14 44.4-36.6 40.5 48.8-29.6z"/><path fill="#2aa17c" d="M129 107.1l98.5-63.5 8.4 4.5-46.8 44.8z"/><circle r="1" fill="#fffff6" transform="matrix(-31.98317 24.17491 -10.9866 -14.53515 238.6 72.6)"/><path fill="#080000" d="M259.2 2.6l1.4 9-11.8 1.8-1.4-9z"/><path fill="#2d6942" d="M126 8l57 10 21-26z"/><path fill="#fff" d="M121 91l-10 21-42 4z"/><path fill="#73c396" d="M144 62.7l-39.8.9 42.1-39L159-3.7z"/><circle r="1" fill="#fffdee" transform="matrix(-2.37163 -22.94976 33.57343 -3.46948 150.5 142)"/><path fill="#ad8a79" d="M28 88h52v24H28z"/><path fill="#73a076" d="M139 79l-33 79-13-29z"/><path fill="#abd4b3" d="M201 30.1l-29.3 36.4 31 2.9-48.9-56.7z"/><ellipse cx="65" cy="142" fill="#fff" rx="33" ry="10"/><circle r="1" fill="#fff8e4" transform="rotate(149.5 108.3 35.7) scale(20.43938 32.92179)"/><path fill="#dcd3ca" d="M79 107l54-30L38 6z"/><circle r="1" fill="#fffbe9" transform="matrix(71.93392 -11.39321 1.70197 10.74584 234.8 114.6)"/><circle r="1" fill="#223423" transform="matrix(-33.63701 14.67755 -.66735 -1.5294 171.2 59.8)"/><path fill="#9b735e" d="M29 78.5l39.1 44.7L-6 62.7l53.2.1z"/><circle r="1" fill="#fefef4" transform="matrix(-44.47205 -3.65457 1.04675 -12.73783 105.9 17.5)"/><path fill="#9c8a54" d="M111 110l-41 21 92-16z"/><path fill="#706353" d="M6.4 16.3L8.9-16-16 34.4l81.3-17.6z"/><path fill="#340401" d="M159.3 11.3l11.5-3.8 10 5.6-1.2 7.7z"/><path fill="#c8b7a9" d="M5.9 48.6l67.2 70.2 1.3-37.2L54.6 53z"/><path fill="#6fa374" d="M182.6-8.7l38 56.4-13.2 9-38-56.4z"/><path fill="#fffcf4" d="M271 59.9l-61.4 41.8-73.3 9.3 2.9-1.8z"/><path fill="#6e5f46" d="M42-16L5 43l66-57z"/><path fill="#08a58f" d="M215.1 71.9l-47 2.1-15.3 18.8 8.7-1.7z"/><circle r="1" fill="#bbe0c3" transform="matrix(16.99946 -3.95437 1.44917 6.22984 195.5 59.5)"/><path fill="#fcf1e7" d="M27.3 125l29.5-7.1L-16 93.5-5.9 158z"/><circle r="1" fill="#f6f5f1" transform="matrix(-1.73832 -5.82478 17.5384 -5.23407 36 32.3)"/><path fill="#625041" d="M54.9 115.3L-1.8 63.2l68.2 57.2-22.5-12.8z"/><path fill="#425a37" d="M31.6 134.8l-14.1 3.1 17.2-14.8 18.9-.3z"/><path fill="#020000" d="M-18.8 41.7l-.8-1.8 58.4-23.6.8 1.8z"/><path fill="#0e5e35" d="M233 48l-12-4-2 7z"/><path fill="#046642" d="M150.8 21.7l15.5 15.5-7 7.1-15.6-15.5z"/><path fill="#f0ebdb" d="M39 15l13-5-18 23z"/><circle r="1" fill="#87c79f" transform="matrix(55.86875 34.6401 -1.56758 2.52825 158 23)"/><path fill="#fff3e3" d="M237 15h19v79h-19z"/><circle r="1" transform="matrix(-24.05878 10.92834 -.41357 -.91047 8.5 16.4)"/><path fill="#74c39f" d="M139.1 36.3l-35.6 23.5 83.9-14.2-16 9.6z"/><circle r="1" fill="#faf8f0" transform="matrix(13.34348 37.68081 -18.51507 6.55653 100 14.8)"/><path fill="#f9eedf" d="M220.5 46.9L192.4-5.9l75.9-.2-24.5 16.5z"/><path fill="#b8977a" d="M13 32l-29 16 33 20z"/><path fill="#253824" d="M195 49l2-16 8 12z"/><circle r="1" fill="#f6ead9" transform="matrix(-.21233 -15.53136 80.44896 -1.09984 207.3 130.4)"/><path fill="#fdf4e9" d="M239.4 48.7l18.2 44-52 8.9 15.8-42z"/><path fill="#97ba90" d="M92 102l33-15 6 11z"/><path fill="#38201a" d="M132 106l-13-1 28-15z"/><path fill="#676d34" d="M77 115h30v9H77z"/><path fill="#514417" d="M262.4 11.3l4-13.8-25.7 16.3 30.3-2.6z"/><path fill="#8b7b58" d="M3 27L75 0 49-7z"/><path fill="#a59c81" d="M116 110h50v8h-50z"/><path fill="#4cbfa6" d="M91 158l13-23 24-12z"/><path fill="#2b8b64" d="M163-2L136 9l12 8z"/><path fill="#7bd6b9" d="M138.3-4.2L62.4-16l75.3 22.4 80.6-13.6z"/><circle r="1" fill="#00271b" transform="matrix(-.2067 -4.01906 9.95299 -.51188 160.8 62.5)"/><path fill="#fffffd" d="M97 114l22-10-32 3z"/><path fill="#a2e6d0" d="M119 124l-35 7 16 9z"/><path fill="#bdad9d" d="M89.6 104.2L26.1 38.8 60.7 63l42.9 59.3z"/><path fill="#e0d6c4" d="M27 90l-37 14 62 15z"/><path fill="#c2c9b1" d="M146 92l-.2.9-17.8-2.8.2-1z"/><path fill="#3e9d78" d="M203 83l15-19-35 3z"/><path fill="#89c39a" d="M132 108l59-18-35 1z"/><path fill="#f2dcdf" d="M61 117l10-3-2-6z"/><path fill="#fffffe" d="M57 132h29v11H57z"/><path fill="#7da878" d="M123.2 69.7l-12.8-11.1 12.4-14.3 12.8 11.1z"/><path fill="#41a077" d="M162 52l-30-14 16-14z"/><path fill="#9e8b78" d="M16.5 20l1.5-3.8 19.5 7.9-1.5 3.7z"/><path fill="#fffff9" d="M95-5.8L60.3 15.4l-8.6-3.8-11.6 5.7z"/><path fill="#87ba92" d="M178 8l33 43 6-17z"/><path fill="#6d6b54" d="M191.6 111.5l-51 10-.2-1 51-10z"/><path fill="#099262" d="M167 44l-19 9-10 25z"/><path fill="#8bc9a3" d="M152.6 21.7l48.6 24.5L151 11.4l-9.5 2z"/><path fill="#978267" d="M50 22l-6-7 11-1z"/><circle r="1" fill="#c6beb1" transform="rotate(75.6 9.5 57.1) scale(4.8705 16.75216)"/><circle r="1" fill="#989d56" transform="rotate(-95.4 98.8 26.8) scale(3.11857 32.26185)"/><path fill="#68693c" d="M173.4 109.9l5.2 4.3L268.5 93 197 104.2z"/><circle r="1" fill="#e8dcc6" transform="matrix(-10.37632 -19.30545 87.02543 -46.77453 255 138.9)"/><path fill="#489068" d="M216 45h19l-24 24z"/><path fill="#f8f3e9" d="M98 158l173-62.9-95.3 21.5-47 6.5z"/><path fill="#a5d4ba" d="M171 51.8l21.8-10.1 2.1 4.5-21.7 10.1z"/><path fill="#e5e4dd" d="M76 81l27-11-77-48z"/><circle cx="113" cy="77" r="14" fill="#d9c6ba"/><path fill="#eee7dd" d="M31 58L20 33l-6 14z"/><path fill="#fcf3ee" d="M9.5 92.4l-25.2 6.4-.3-46.7 32.5 29.1z"/></g></g></svg>