<svg xmlns="http://www.w3.org/2000/svg" viewBox="0 0 1400 875"><defs/><filter id="prefix__a"><feGaussianBlur stdDeviation="12"/></filter><rect width="100%" height="100%" fill="#3f3f3f"/><g filter="url(#prefix__a)"><g transform="translate(2.7 2.7) scale(5.46875)"><circle cx="129" cy="114" r="174" fill="#fff" fill-opacity=".5"/><circle r="1" fill="#fff" fill-opacity=".5" transform="rotate(-169.4 33.8 38.4) scale(84.97507 209.16918)"/><circle r="1" fill="#fff" fill-opacity=".5" transform="matrix(-80.32939 -217.15855 37.57656 -13.9 242.5 73.9)"/><circle r="1" fill="#0b0b0b" fill-opacity=".5" transform="matrix(-28.3621 39.1506 -26.78907 -19.40697 177.5 103.1)"/><circle r="1" fill="#fff" fill-opacity=".5" transform="matrix(45.83077 55.59716 -196.76426 162.19994 68.4 43.6)"/><ellipse cx="232" cy="137" fill="#fff" fill-opacity=".5" rx="30" ry="42"/><path fill-opacity=".5" d="M162 89.3l-17 5.9-9-26.5 17-5.9z"/><circle r="1" fill="#f9f9f9" fill-opacity=".5" transform="rotate(88.9 -22.3 124.6) scale(85.89665 41.11269)"/><circle r="1" fill="#fefefe" fill-opacity=".5" transform="matrix(-29.08528 -66.0966 32.53377 -14.31622 236.9 47)"/><path fill="#f9f9f9" fill-opacity=".5" d="M168.6 94.7l-8-.6 17-13.9-2.5 46.3z"/><path fill="#212121" fill-opacity=".5" d="M204.8 114.8l-4.1 60.2-19.4-74.7-12.2 63.8z"/><path fill="#f2f2f2" fill-opacity=".5" d="M173.1 70.6l12.8-3.3-6.3-83.3-42.1 1z"/><path fill="#f0f0f0" fill-opacity=".5" d="M184.2 175l-19.4-29.5-60.9-8.5L-16 154.5z"/><path fill="#262626" fill-opacity=".5" d="M158.3 39.5l5.3 27.3-9.6 11.9 23.5-.5z"/><path fill="#fff" fill-opacity=".5" d="M183.1 178l.8-44h7l-.8 44z"/><ellipse cx="193" cy="79" fill="#222" fill-opacity=".5" rx="19" ry="15"/><path fill-opacity=".5" d="M185 42v6h-10v-6z"/><path fill="#f2f2f2" fill-opacity=".5" d="M206 105.9l-11.5 8 76.5 30.2-65.9 27.1z"/><path fill="#202020" fill-opacity=".5" d="M174 132.1l15.5 42.9-10.2-.5-10.1-25.3z"/><path fill="#2c2c2c" fill-opacity=".5" d="M215.7 105.8l3.4-20.4-9.8-4.4-.7 32.5z"/><path fill="#393939" fill-opacity=".5" d="M144 78h23v65h-23z"/><path fill="#e6e6e6" fill-opacity=".5" d="M148 81.5l-164 .2L139.2 156l5.1-75.4z"/><circle r="1" fill="#4f4f4f" fill-opacity=".5" transform="rotate(27.8 -13.9 345.7) scale(8.13906 2.72696)"/><path fill="#3b3b3b" fill-opacity=".5" d="M167 108l-16-48-15 15z"/><path fill="#eee" fill-opacity=".5" d="M121.2 42.8L224 38.7l-36.8 23.5L205.6-16z"/><path fill="#e3e3e3" fill-opacity=".5" d="M177.5 105.5l-9.4 42.4 8.3-67.8-9.7 16.2z"/><path fill="#e9e9e9" fill-opacity=".5" d="M218.7 142l-14.1 14.8 4-65.4-4.7 6z"/><path fill="#383838" fill-opacity=".5" d="M190.9 131.8l16.5 42.4-25.9-118.6-7.7 95.7z"/><path fill="#e8e8e8" fill-opacity=".5" d="M-16 168L.7-16l142 80.7L60.6 175z"/><path fill="#3b3b3b" fill-opacity=".5" d="M187.3 106.4l22.8 4.9-15.4-22.7-35.4-32.2z"/><path fill="#e4e4e4" fill-opacity=".5" d="M189 60l-18 6-8-24z"/><path fill="#d6d6d6" fill-opacity=".5" d="M176.4 108.6l1 .2-11.8 50.6-1-.2z"/><path fill="#f2f2f2" fill-opacity=".5" d="M192 111h22v3h-22z"/><path fill="#fafafa" fill-opacity=".5" d="M183 142h9v18h-9z"/><path fill="#626262" fill-opacity=".5" d="M142 98l-4-8 2-6z"/><path fill="#6b6b6b" fill-opacity=".5" d="M150 43h4v11h-4z"/><path fill="#090909" fill-opacity=".5" d="M189 51l-1-7-7-3z"/><path fill="#e6e6e6" fill-opacity=".5" d="M271 77.7l-29.7 75-29.7-84.5L173 48.9z"/><path fill="#3a3a3a" fill-opacity=".5" d="M199.4 120l6.1 41.7-12.2-14.3-10.4-49z"/><path fill="#3e3e3e" fill-opacity=".5" d="M200.7 111.5l9.3-41.7-60.3 23.8 14.1-36z"/><path fill="#e9e9e9" fill-opacity=".5" d="M271 0L116-16l80 63z"/><path fill="#ebebeb" fill-opacity=".5" d="M205 88h2v18h-2z"/><circle cx="184" cy="58" r="7" fill="#b1b1b1" fill-opacity=".5"/><path fill="#b8b8b8" fill-opacity=".5" d="M162.7 49.2l-1.6 23-5.1-1L145.1 46z"/><path fill="#e8e8e8" fill-opacity=".5" d="M0 100h142v60H0z"/><path fill="#e0e0e0" fill-opacity=".5" d="M180.2 148.1l15.7 15.6-3.2-13.1-3.1-17.6z"/><path fill="#3c3c3c" fill-opacity=".5" d="M144 140l-3-19 21 17z"/><ellipse cx="170" cy="93" fill="#cdcdcd" fill-opacity=".5" rx="5" ry="8"/><path fill="#3c3c3c" fill-opacity=".5" d="M181 105l-12 39 12 31z"/><circle r="1" fill="#e7e7e7" fill-opacity=".5" transform="matrix(-28.90712 -10.86547 12.9838 -34.54286 234.3 134.6)"/><path fill="#454545" fill-opacity=".5" d="M211.8 115l-7.1-50.7-15.2-4 30.1 29.5z"/><path fill="#464646" fill-opacity=".5" d="M136.1 73.8l71.4-8.6-68.7 32.7 32.1 20.7z"/><path fill="#3b3b3b" fill-opacity=".5" d="M192 147.9l6.6 16.6 10.7 10.5-16.9-39.3z"/><path fill="#424242" fill-opacity=".5" d="M184.9 85.5l-41-22.2-5.9 6.8.5 10.2z"/><path fill="#363636" fill-opacity=".5" d="M182.3 120.2l23.1-27.7 3.1-20.3-24.8 69z"/><path fill="#707070" fill-opacity=".5" d="M183.5 68.8l-.9.4-10.1-24 .9-.4z"/><path fill="#e8e8e8" fill-opacity=".5" d="M156.8-.3l56.4 75 22.3 64L271-2.1z"/><path fill="#ececec" fill-opacity=".5" d="M170 102l6-4 2 13z"/><path fill="#ddd" fill-opacity=".5" d="M145 153h27v7h-27z"/><circle r="1" fill="#e7e7e7" fill-opacity=".5" transform="matrix(-39.33016 39.15199 -24.77314 -24.88588 106.2 53.3)"/><path fill="#e7e7e7" fill-opacity=".5" d="M181.2 63.9l-9.5-6.9.4 11 6.2-.6z"/><path fill="#dcdcdc" fill-opacity=".5" d="M161.6 33.3l12.9 38.9 26.8-33.8-20.7 23.1z"/><path fill="#343434" fill-opacity=".5" d="M156 90l9-5 7 36z"/><path fill="#cfcfcf" fill-opacity=".5" d="M157 46h4v25h-4z"/><circle cx="157" cy="43" r="2" fill="#0b0b0b" fill-opacity=".5"/><path fill="#474747" fill-opacity=".5" d="M204.7 121.8l3.3-7.1-13.7 5.2 1.2 55.1z"/><ellipse cx="163" cy="76" fill="#383838" fill-opacity=".5" rx="2" ry="32"/><path fill="#424242" fill-opacity=".5" d="M175.8 104.9l.4 3.9 29.9-6.6-8.7-32.3z"/><path fill="#626262" fill-opacity=".5" d="M166.5 160h-1v-22h1z"/><circle cx="200" cy="116" r="2" fill="#f6f6f6" fill-opacity=".5"/><circle r="1" fill="#454545" fill-opacity=".5" transform="matrix(4.64637 35.7751 -3.41065 .44297 155.2 94)"/><circle r="1" fill="#373737" fill-opacity=".5" transform="rotate(22.3 -97.4 488.9) scale(2.45315 7.46229)"/><path fill="#f0f0f0" fill-opacity=".5" d="M194.6 110.1l.5-.8 4.3 2.6-.5.8z"/><path fill="#383838" fill-opacity=".5" d="M190 107l11-44 5 45z"/><path fill="#3c3c3c" fill-opacity=".5" d="M176 114h23v12h-23z"/><path fill="#e8e8e8" fill-opacity=".5" d="M194 153l-13-6 11 28z"/><ellipse cx="207" cy="96" fill="#fff" fill-opacity=".5" rx="1" ry="7"/><path fill="#e8e8e8" fill-opacity=".5" d="M140.2 103.6L31.2 175l83.4-191 28.7 168.8z"/><path fill="#464646" fill-opacity=".5" d="M170.8 102.9l-26.9 42.9-.7-5.5 3.2-74.1z"/><path fill="#414141" fill-opacity=".5" d="M178.5 92.1l14.2-37 7.3 17.2-21.7 87.1z"/><path fill="#393939" fill-opacity=".5" d="M187 40.4v3l-8 .2v-3z"/><path fill="#e8e8e8" fill-opacity=".5" d="M190 3h66v55h-66z"/><path fill="#bdbdbd" fill-opacity=".5" d="M178 47h8v8h-8z"/><path fill="#e7e7e7" fill-opacity=".5" d="M158 71.2l-1 .2-3-12.6 1-.2zm47.3 38.2l17.4 65.6 48.3-28.5-38.3-22.7z"/><path fill="#cfcfcf" fill-opacity=".5" d="M175 94.6l-7.8-1.4 1.7-9.8 8 1.4z"/><ellipse cx="168" cy="159" fill="#ececec" fill-opacity=".5" rx="1" ry="21"/><path fill="#e7e7e7" fill-opacity=".5" d="M170 65L154 2l28-12z"/><circle cx="161" cy="46" r="2" fill="#2a2a2a" fill-opacity=".5"/><path fill="#3d3d3d" fill-opacity=".5" d="M158.2 86.4l38.8-4.8-46.3-9.1-1.1 1.7z"/><path fill="none" stroke="#494949" stroke-opacity=".5" stroke-width=".5" d="M206.7 66q-19.5 12-40.8 42.6"/><path fill="#b4b4b4" fill-opacity=".5" d="M159.8 62.6l-7.5-2.9 4-10.3 7.4 2.9z"/><ellipse cx="157" cy="44" fill="#393939" fill-opacity=".5" rx="5" ry="2"/><path fill="#e8e8e8" fill-opacity=".5" d="M148.1 33.9l17.6 13.3L271 4.9-16-.3z"/><path fill="#fff" fill-opacity=".5" d="M166 95.9l3.1-6.2 1 .4-3.2 6.2z"/><circle r="1" fill="#bebebe" fill-opacity=".5" transform="matrix(5.21502 9.78542 -2.35416 1.25462 137.4 94.6)"/><path fill="#4b4b4b" fill-opacity=".5" d="M143.6 65l20.8 25.6-20.4-8.7-9.1-3.1z"/><path fill="#e5e5e5" fill-opacity=".5" d="M142 35h6v30h-6z"/><path fill="#c9c9c9" fill-opacity=".5" d="M148 141.5l5.7 1.5-3.6 13.5-5.8-1.5z"/><path fill="#404040" fill-opacity=".5" d="M144 109h28v16h-28z"/></g></g></svg>