<svg xmlns="http://www.w3.org/2000/svg" viewBox="0 0 1400 1400"><defs/><filter id="a"><feGaussianBlur stdDeviation="12"/></filter><rect width="100%" height="100%" fill="#464646"/><g filter="url(#a)"><g fill-opacity=".5" transform="translate(2.7 2.7) scale(5.46875)"><circle cx="80" cy="85" r="255" fill="#fff"/><circle r="1" fill="#fff" transform="matrix(49.31571 7.01867 -31.7016 222.7471 21.8 111.5)"/><circle r="1" fill="#fff" transform="matrix(-69.46343 -22.83841 65.207 -198.3282 255 223.6)"/><circle r="1" fill="#020202" transform="matrix(-43.127 -28.18833 12.1191 -18.54173 176.8 55.3)"/><circle r="1" fill="#fff" transform="matrix(-18.92278 29.93051 -102.55752 -64.8393 233.4 27.5)"/><path d="M77 66l-7 72 41-104z"/><circle r="1" fill="#fff" transform="matrix(-134.16293 76.8148 -11.1838 -19.53335 72.9 32.2)"/><circle r="1" fill="#0a0a0a" transform="matrix(-10.13776 -2.7342 9.77577 -36.24621 210 104)"/><circle r="1" fill="#e9e9e9" transform="matrix(53.05063 13.29918 -6.60902 26.3635 145.6 90.9)"/><circle r="1" fill="#eaeaea" transform="matrix(19.67092 12.43818 -28.44919 44.99226 76.4 176)"/><path fill="#2d2d2d" d="M103 37h92v22h-92z"/><path d="M22 271h44v-50z"/><path fill="#f1f1f1" d="M183-16l88 193-3-183z"/><circle r="1" fill="#202020" transform="matrix(-3.8733 -.91682 10.06932 -42.54009 202.2 143.6)"/><circle cx="111" cy="118" r="17" fill="#4f4f4f"/><path fill="#4a4a4a" d="M165.5 205.1l-1.2 22.5-24.4 21.1-17.2-6.4z"/><circle r="1" fill="#484848" transform="matrix(-19.80562 .7533 -.45491 -11.96053 168.2 133)"/><path fill="#eaeaea" d="M-16-3l11 274L107-3z"/><circle r="1" fill="#dcdcdc" transform="matrix(43.27483 9.92586 -3.33304 14.53142 150 157.8)"/><path fill="#e4e4e4" d="M168.6 244.5l91.8 16.4L271 103.6 167.1 207.8z"/><path fill="#2f2f2f" d="M115.6 189.3l44.2 12.6-1.4 4.8-44.2-12.6z"/><path fill="#e2e2e2" d="M136 74l-6 77 36-39z"/><path fill="#0a0a0a" d="M168.3 240.7l7.2 27-5.8 1.6-7.2-27z"/><circle r="1" fill="#d1d1d1" transform="rotate(19.9 -674.2 422) scale(37.79699 14.82054)"/><path fill="#e2e2e2" d="M-16 138l58.6 114.1L70.3 209l5.7-35.9z"/><circle cx="209" cy="86" r="19" fill="#474747"/><path fill="#d6d6d6" d="M74.9 119.8l46.2-64.5-28.8 54.8 64.9 9z"/><path fill="#404040" d="M117 242l-26-15 57 14z"/><path fill="#595959" d="M58 135l13 17 1-34z"/><path fill="#2c2c2c" d="M41.1 271l-44.9-2.4L35.1 251l28-3.3z"/><ellipse cx="160" cy="46" fill="#4d4d4d" rx="33" ry="22"/><ellipse cx="142" cy="7" fill="#e7e7e7" rx="254" ry="12"/><circle r="1" fill="#d6d6d6" transform="matrix(-15.24475 24.20826 -8.23382 -5.18512 177.4 170.7)"/><path fill="#3d3d3d" d="M100.8 40L80.9 59.3l83.4-9.5-31.5-9.4z"/><path fill="#e0e0e0" d="M163.7 132l2.4-4.5 26.2 14.6-2.4 4.4z"/><path fill="#d6d6d6" d="M72 141l49 51-39-85z"/><path fill="#2a2a2a" d="M98 102l30 6-29 4z"/><path fill="#676767" d="M141.5 183.2l10-11.7-34.1-5.3-.3 8.5z"/><path fill="#888" d="M91.8 232.8l11.5 12.6-6.2-67.5-25.4 29.6z"/><circle r="1" fill="#e1e1e1" transform="matrix(11.40686 -58.73655 20.97655 4.07373 247.4 98.4)"/><path fill="#3e3e3e" d="M76 68l-6 57 32-68z"/><path fill="#cacaca" d="M193 134l9-35-41 5z"/><path fill="#3c3c3c" d="M197.5 132.8l-2.5 29.9 8.4 10.8L206 48.2z"/><path fill="#c9c9c9" d="M89 189l48 34-19 12z"/><circle r="1" fill="#e6e6e6" transform="matrix(5.30958 31.37919 -18.62917 3.15219 99 10.1)"/><path fill="#d5d5d5" d="M91 77h87v27H91z"/><path fill="#373737" d="M225 98l-3 15-28-25z"/><path fill="#333" d="M133 20h29v3h-29z"/><path fill="#545454" d="M116.8 144.4l10.2-6.7-32.2-19.5 37.1 6.6z"/><path fill="#222" d="M168 127l18 3-17-12z"/><ellipse cx="30" cy="48" fill="#e1e1e1" rx="44" ry="116"/><path fill="#c3c3c3" d="M90 130h23v57H90z"/><path fill="#616161" d="M118 205h12v11h-12z"/><ellipse cx="179" cy="56" fill="#4b4b4b" rx="28" ry="19"/><circle r="1" fill="#1a1a1a" transform="matrix(-.88227 -.47074 3.93557 -7.37617 192.2 173.3)"/><path fill="#272727" d="M174.2 138l9.7 10-2.1 2-9.7-10z"/><path fill="#e7e7e7" d="M207.6 46.4L139.7 4l12.7-20.4L220.3 26z"/><path fill="#434343" d="M109.1 195.1l-16.4-10 44.7 14.7-8.4-6.1z"/><ellipse cx="243" cy="135" fill="#dfdfdf" rx="34" ry="28"/><path fill="#aeaeae" d="M206.8 173.4L131.5 211l58.7-12 8-34.2z"/><path fill="#323232" d="M69.2 222.2l-4.7 28.1L12 260.8l38.8-14z"/><path fill="#444" d="M139 36L87 53 72 84z"/><path fill="#5c5c5c" d="M119.7 37.6l10.5-13.3 3-4.7-11.2 8.5z"/><path fill="#d5d5d5" d="M153.3 106.5l-16.3 5.7-7.4 61.3 10.2-.7z"/><path fill="#cbcbcb" d="M164.1 251l16.4-97.2 11 63.2-64.3 53.3z"/><path fill="#676767" d="M161.8 150l-13-1 1.4-21 13 1z"/><path fill="#b0b0b0" d="M60 160l6-36 5 49z"/><path fill="#9f9f9f" d="M191.5 82.7l12.1 32.3-47.8-57.1-10.2 10.3z"/><path fill="#cfcfcf" d="M122.5 116.7l39.9 12.9-49.9-75.8 44.6 21z"/><circle r="1" fill="#dfdfdf" transform="matrix(-32.01104 -51.42789 15.34064 -9.5487 232 55.6)"/><path fill="silver" d="M72.8 175.2L67.9 236l4.3 35h17.6z"/><path fill="#494949" d="M101.4 41.9l-24.2 23L74 80.6 69.3 147z"/><path fill="#4a4a4a" d="M99.3 104.8l3.5-1.5 22.6 3.2-36.2 6.1z"/><circle r="1" fill="#d7d7d7" transform="rotate(-73.8 249 -15) scale(35.79073 24.31276)"/><path fill="#676767" d="M110.3 240L85 214.9l.5 11.5 20 12.6z"/><path fill="#353535" d="M96 122l17 9 3-10z"/><circle r="1" fill="#dcdcdc" transform="rotate(146.1 -18.2 114.7) scale(45.87543 25.43579)"/><path fill="#606060" d="M230 86l-15-3-9-33z"/><path fill="#727272" d="M62.5 153.8l1-12 4 .4-1 12z"/><path fill="#292929" d="M165.1 250.4l35.5 16.8-42.9 3.8 5.5-18.7z"/><path fill="#6d6d6d" d="M152 199h8v37h-8z"/><path fill="#c9c9c9" d="M123.7 112.8l-35.6 6.6 9.7-53.1-13.4 59.9z"/><path fill="#b0b0b0" d="M199 180l-34 8-2 29z"/><path fill="#b6b6b6" d="M79 135l45 10-22-21z"/><path fill="#232323" d="M161 135l10 9-1-9z"/><path fill="#cacaca" d="M196 137l-4 26-11-23z"/><path fill="#c3c3c3" d="M163 143.6l29.3 10-13.3 38.8-29.3-10z"/><circle r="1" fill="#4c4c4c" transform="rotate(-28.5 148 -272.2) scale(22.33868 15.649)"/><path fill="#3c3c3c" d="M218 104l-17 52V83z"/><path fill="#c9c9c9" d="M102 179.6l47 10-1 4.8-47-10z"/><path fill="#c8c8c8" d="M117.5 57l-2.9 43.4-22.7 8.5L88.8 83z"/><path fill="#bfbfbf" d="M118.7 125.8l-40.9 76.3 63.5-58.1H91z"/><path fill="#dbdbdb" d="M73.4 102.9l-7.5 43-9-130.1L72.2 18z"/><circle r="1" fill="#ddd" transform="rotate(-60.9 220 -162.6) scale(19.61929 33.56542)"/><path fill="#787878" d="M137.9 250.3l16.8-7.3 18.1-29.8-31 6.2z"/><path fill="#717171" d="M144 166.9l4.6 3.9-1.1 19.8-10.1-14z"/><path fill="#383838" d="M185.9 47.7l28.4 49.5-32.4-29.6-11.2-.5z"/><path fill="#797979" d="M117.4 107.5l3.2 9.5 16.2 9.6-10.3 12.3z"/><ellipse cx="37" cy="167" fill="#ddd" rx="23" ry="84"/><path fill="#e1e1e1" d="M11.3 271L78.6 61.3 146-11.6-16 17.5z"/></g></g></svg>