<svg xmlns="http://www.w3.org/2000/svg" viewBox="0 0 1400 947"><defs/><filter id="a"><feGaussianBlur stdDeviation="12"/></filter><rect width="100%" height="100%" fill="#444"/><g filter="url(#a)"><g fill-opacity=".5" transform="translate(2.7 2.7) scale(5.46875)"><circle r="1" fill="#bababa" transform="matrix(-74.13472 97.7665 -181.68021 -137.76509 103.5 99.8)"/><circle r="1" fill="#fff" transform="rotate(-5 1145.2 -2798.2) scale(57.35323 21.45214)"/><path fill="#090909" d="M68 43L6 24 4 124z"/><path fill="#fff" d="M206-16l65 19-123-1z"/><circle cx="228" cy="144" r="25" fill="#060606"/><ellipse cx="255" cy="71" fill="#fff" rx="4" ry="172"/><ellipse cx="163" cy="61" fill="#e3e3e3" rx="18" ry="43"/><ellipse cx="119" cy="172" fill="#fff" rx="217" ry="4"/><path fill="#282828" d="M151 2L33 5l110 75z"/><path fill="#fff" d="M-8.2 16.3l3.7-11.4 82.7 26.8-3.7 11.4z"/><ellipse cx="109" fill="#fff" rx="169" ry="4"/><circle r="1" transform="matrix(16.75556 2.95446 -5.69058 32.27287 234.1 39.4)"/><circle r="1" fill="#343434" transform="matrix(-2.00927 10.68947 -88.13651 -16.56673 96.6 116.9)"/><ellipse cy="98" fill="#fff" rx="4" ry="118"/><ellipse cx="148" cy="10" rx="57" ry="7"/><path fill="#cecece" d="M191 12h23v63h-23z"/><circle r="1" fill="#c0bfbf" transform="rotate(-67.9 180.8 -3) scale(27.28382 77.27114)"/><path fill="#191919" d="M4 7h11v163H4z"/><path fill="#b3b3b3" d="M11 83h170v20H11z"/><path fill="#f8f8f8" d="M24.1-16h24.5l100.8 61.4-64.2-33.1z"/><path fill="#040404" d="M3 3h59l-3 21z"/><path fill="#fff" d="M211.5 98V70h19v28z"/><ellipse cx="85" cy="66" fill="#575757" rx="62" ry="19"/><path fill="#484848" d="M9 92h69v25H9z"/><ellipse cx="255" cy="73" fill="#fff" rx="4" ry="119"/><circle r="1" fill="#fff" transform="rotate(-170.8 17.8 10.6) scale(26.7224 5.86561)"/><path fill="#d2d2d2" d="M192.1 16.3l-.5 30.5-30.5-15.1 13-12.1z"/><ellipse cx="105" cy="172" fill="#fff" rx="170" ry="4"/><path fill="#1c1c1c" d="M196.3 2.3l2.6 10.7-59.2 14.7-2.6-10.7z"/><path fill="#191919" d="M237 110h15v59h-15z"/><path fill="#2a2a2a" d="M184.6 82.3l-1.6 19.2 15.9-30.6-33.2-5.3z"/><ellipse cx="79" cy="69" fill="#fff" rx="15" ry="3"/><path fill="#2d2d2d" d="M41 168H5l12-31z"/><ellipse cy="57" fill="#fff" rx="4" ry="129"/><ellipse cx="113" fill="#fff" rx="194" ry="3"/><path fill="#131313" d="M214 8h37v61h-37z"/><path fill="#fff" d="M113 86h15v15h-15z"/><circle r="1" fill="#fff" transform="matrix(-.81558 6.77063 -3.65283 -.44001 19.7 86.5)"/><path fill="#d3d3d3" d="M184 107l-41-7 13-51z"/><path fill="#535353" d="M172.5 143.6L6.1 103.4l127.3-1.8 2-21.8z"/><path fill="#6c6c6c" d="M246 103l-69 37 67-11z"/><circle r="1" fill="#797979" transform="matrix(-5.48571 -8.8781 25.82881 -15.95946 83 43.2)"/><path fill="#505050" d="M142.8 142.7l4.2-89.5-47.8 32.4 44-.7z"/><path fill="#999" d="M208 107V54l-61 114z"/><circle r="1" fill="#141414" transform="matrix(-13.2742 4.46726 -5.73195 -17.03216 17.7 43.3)"/><path fill="#ebebeb" d="M29 80h19l-2 16z"/><path fill="#fff" d="M72.2 31.1l-3.6 10.4L31.8 29l3.6-10.4z"/><path fill="#f8f8f8" d="M211 70h45v21h-45z"/><path fill="#515151" d="M109 103l1-83-28 33z"/><path fill="#222" d="M48 66h5v28h-5z"/><path fill="#eee" d="M87 85h15v12H87z"/><path fill="#020202" d="M215 4h37v13h-37z"/><path fill="#525252" d="M232 32h2v108h-2z"/><path fill="#bababa" d="M179.1 115.7l8.4-3.4 15.4 38-8.4 3.4z"/><path fill="#e6e6e6" d="M16 8L2 23l29-7z"/><path fill="#606060" d="M196.5 123.4L179.6 64l6.9 84.8-98.1-49.9z"/><path d="M4 5h4v34H4z"/><path fill="#f4f4f4" d="M117.8 71.5l-8.8-2.2 1.2-4.8 8.8 2.2z"/><path fill="#8f8f8f" d="M58.3 116.1l71.2 22.4-76.7-7.5-1.7-52.1z"/><path fill="#a2a3a3" d="M127 141h46v20h-46z"/><path fill="#262626" d="M25 70h6v40h-6z"/><path fill="#fff" d="M253 0h3v173h-3z"/><path fill="#e2e2e2" d="M148 24h3v78h-3z"/><path fill="#1e1e1e" d="M250.4 138.3l-.1 15.3-60.2-8.1 36-8.4z"/><ellipse cx="125" cy="172" fill="#fff" rx="179" ry="3"/><ellipse cx="1" cy="87" fill="#fff" rx="2" ry="107"/><path fill="#8f8f8f" d="M197 70l-45-13 42-25z"/><path fill="#ddd" d="M209 47h5v69h-5z"/><path fill="#2f2f2f" d="M139 29l41-26-98 2z"/><path fill="#6d6d6d" d="M8 137.7l31 31.7-17.1-55.2-19.2-1.8z"/><path fill="#fff" d="M88.7 10.1l.6-.8 18 12.6-.6.8z"/><path fill="#6c6c6c" d="M231 168h-46l23-20z"/><path fill="#373737" d="M73 73h6v22h-6z"/><ellipse cx="61" cy="1" fill="#fff" rx="221" ry="2"/><path fill="#515151" d="M34 63h5v38h-5z"/><path fill="#6c6c6c" d="M84.8 18l-30.6-2.1-2.7 7.3 59.3 19.7z"/><path fill="#303030" d="M55 73l6 1-5 20z"/><path fill="#959595" d="M80.5 141.7L65 166.3l-41.6-26L39 115.7z"/><path fill="#2b2b2b" d="M3.5 104.2l11.4 8.6 30.3 2L7.1 88.9z"/><path fill="#3a3a3a" d="M81 71h22v13H81z"/><path d="M6.6 19.8L4.5 9.7l5.1-3.6 5.8-.7z"/><path fill="#464646" d="M238.9 72.3l-22.8-24.8 3.5 24.1 29-8.2z"/><path fill="#5d5d5d" d="M232.3 110.9L203 150.8l-13.7-34.9 57.7 13.2z"/><path fill="#cacaca" d="M186.8 122.6L181 124l-9.8-36.7L177 86z"/><path fill="#bcbcbc" d="M190 99h42v15h-42z"/><path fill="#353535" d="M218 101h31v1h-31z"/><path fill="#d5d5d5" d="M25.2-16L130 31.1l13.4 10.7-49.2-30.3z"/><path fill="#d4d4d4" d="M3.5 23l11-14.1L55 36.3l-71-19.2z"/><path fill="#fff" d="M17 81h7v9h-7z"/><path fill="#bababa" d="M47 106l-8-1 7-19z"/><path fill="#bcbcbc" d="M78.3 72.3l23-8.1-30.1 2.7-20.9 5.5z"/><path fill="#fff" d="M97.9 31.4l.4 1L88 36.5l-.4-1z"/><path fill="#6d6d6d" d="M171 47l-7 20 9 7z"/><path fill="#bfbfbf" d="M59 82h14v14H59z"/><path fill="#151515" d="M143 21h4v38h-4z"/><path fill="#787979" d="M38 161h68v8H38z"/><path fill="#bebebe" d="M185.3 28.9l1.2-11.5-36.7 7.6-2.1 51.5z"/><path fill="#4d4d4d" d="M188.3 95.9l-.2 21.1-10.4-50.6 21.9 3.3z"/><path fill="#393939" d="M77 104h25v18H77z"/><ellipse cx="57" cy="12" fill="#3d3d3d" rx="24" ry="8"/></g></g></svg>