<svg xmlns="http://www.w3.org/2000/svg" viewBox="0 0 420 330"><defs/><filter id="a"><feGaussianBlur stdDeviation="12"/></filter><rect width="100%" height="100%" fill="#2b405d"/><g filter="url(#a)"><g fill-opacity=".5" transform="translate(.8 .8) scale(1.64063)"><circle r="1" fill="#ffe3ba" transform="matrix(-254.1076 -21.31507 9.0796 -108.24247 183.3 86.4)"/><ellipse cx="158" cy="55" fill="#2693f9" rx="50" ry="37"/><circle r="1" fill="#fff" transform="matrix(31.81188 32.14677 -17.24586 17.0662 199.9 125.4)"/><circle r="1" fill="#80593e" transform="matrix(2.99664 -34.25176 184.09385 16.10613 131 187.2)"/><circle r="1" fill="#e89217" transform="rotate(176.2 49.3 6.2) scale(220.42755 16.60473)"/><path d="M18 118h40v23H18z"/><path fill="#fff" d="M167.7 127.4l-16.3 16.3-31-31.1 16.2-16.3z"/><circle r="1" fill="#004890" transform="matrix(13.3751 6.14792 -16.72315 36.38207 67.7 84.6)"/><ellipse cy="115" fill="#ffe089" rx="13" ry="108"/><ellipse cx="63" cy="164" fill="#003a70" rx="20" ry="29"/><path fill="#fff8f8" d="M106 110.3l-30.1 33.5L58 127.7l30.1-33.5z"/><path fill="#405d0f" d="M159 91l37 34-75-31z"/><path fill="#17478c" d="M20 42h28v31H20z"/><ellipse cx="234" cy="57" fill="#d5af95" rx="29" ry="45"/><ellipse cx="168" cy="200" fill="#8e5832" rx="87" ry="30"/><path fill="#52a6ed" d="M239.4 67.4l7.9-14.1L179 12.9l43.5 52.9z"/><path fill="#eecc9b" d="M18.2 188l27.7-3.8 4 27.7-27.8 4z"/><path fill="#48a2f2" d="M118 19h91v28h-91z"/><circle cx="211" cy="134" r="27" fill="#e7eaf9"/><path fill="#ffffe6" d="M151 67.8l-16 20.5-8-6.1 16-20.5z"/><circle cx="255" cy="170" r="33" fill="#b2784d"/><circle cx="78" cy="55" r="12" fill="#281820"/><path fill="#f7dbdf" d="M19 91h26v27H19z"/><circle r="1" fill="#d2902a" transform="matrix(-22.5435 1.18145 -.8462 -16.14635 233.5 18.5)"/><path fill="#c4d0d3" d="M118.8 18.5l3.5 23.7-28.8 25.3L84 36.7z"/><ellipse cx="152" cy="60" fill="#7f5e56" rx="60" ry="5"/><ellipse cx="112" cy="144" fill="#aeb7b3" rx="17" ry="29"/><path fill="#524d50" d="M121 155h70v25h-70z"/><path fill="#bd7e31" d="M-16-8.6l54.3 42.1 71.7.1 14.8-46.1z"/><circle cx="180" cy="117" r="9" fill="#79211d"/><circle cx="33" cy="128" r="12" fill="#000008"/><circle r="1" fill="#b57951" transform="matrix(-7.07281 15.7891 -51.15507 -22.91518 255 116.4)"/><path fill="#4187b6" d="M49 63h53v31H49z"/><ellipse cx="89" cy="152" fill="#874927" rx="6" ry="38"/><path fill="#ababbb" d="M35.8 160.5l25.8 2.6-27.7-22-29.8 49.4z"/><path fill="#9ec3dd" d="M174 125l2 24-66 7z"/><path fill="#e03f60" d="M21 70h25v22H21z"/><path fill="#602a19" d="M179 133l1 30 21 9z"/><path fill="#ffffed" d="M140.9 136.2L122 109.1l12-7.3 34.1 17.7z"/><path fill="#3585d2" d="M205 60.4l-56.3 7.7 4.6 21.3 55.6 1.1z"/><path fill="#d5e4ed" d="M10.4 28.1l14 7.6-13.6 30.4 12.6 48.4z"/><path fill="#fff" d="M202.8 93.2l-.6 15-37-1.4.6-15z"/><path fill="#64343a" d="M107 33l2 33h14z"/><path fill="#fff" d="M87 100h13v20H87z"/><path fill="#9fffff" d="M112 68h7v25h-7z"/><path fill="#003105" d="M138 89l13 23 3-15z"/><path fill="#cae4f6" d="M208 33.8l38-.6v9l-38 .6z"/><path fill="#4b98cb" d="M114.9 158.1l24 15.7-14.1 7.6-18.3-11.1z"/><path fill="#a68a4a" d="M102 56l24 68-20 16z"/><path fill="#b9b4d1" d="M47 32h21v28H47z"/><path d="M207.6 74.8l-1 .1-4.2-33.7 1-.1z"/><circle r="1" transform="rotate(-176 18.1 22) scale(14.32576 2.2567)"/><path fill="#2b4c64" d="M20 163h64v22H20z"/><path fill="#3b5b8b" d="M47.6 155l38 10.4-13.8-24.9-27.4-26.2z"/><path fill="#171c3a" d="M195.5 56.6l-24.9 8.1 17.6 1.8-14.9-10.6z"/><path fill="#f3c482" d="M10.4 111.4l6.3-98.8L-16 48.3 3.3 171.6z"/><path fill="#32598e" d="M50 39h63v6H50z"/><ellipse cx="167" cy="12" fill="#e2b35c" rx="56" ry="8"/><circle r="1" fill="#dce1ea" transform="matrix(15.87734 1.25385 -2.19219 27.7593 213 138)"/><path fill="#abd9d7" d="M192 54h11v26h-11z"/><path fill="#104682" d="M243 58l-6 5-6-26z"/><ellipse cx="145" cy="64" fill="#101828" rx="35" ry="2"/><path fill="#986751" d="M263.6 125.7l-33.4-1 23.2 30.8-56.1 24.1z"/><path fill="#93f5ff" d="M115 21h8v32h-8z"/><circle cx="129" cy="122" r="5" fill="#3fb41a"/><path fill="#fcffe1" d="M136 93l15-35-18 12z"/><circle r="1" fill="#fff" transform="rotate(-115.8 123.1 -42) scale(7.97153 3.4128)"/><path fill="#f8e9fe" d="M224 81h17v9h-17z"/><path fill="#825131" d="M265.6 204l-150.7-22.2L85.6 149l-.6 51.3z"/><path fill="#590012" d="M50 101l-7-23 8 12z"/><ellipse cx="163" cy="117" fill="#b7cdab" rx="5" ry="30"/><path fill="#69784d" d="M135 135h26v7h-26z"/><path fill="#e9e0d9" d="M54.2 129.9l49.5-33.5-1 27.1L81 96.4z"/><path fill="#b3c7e6" d="M175.8 60.8l10-1.2-68.4.3 48.1-4.4z"/><path fill="#00294c" d="M55.6 214.2l-3-24.8 29.8-3.6 3 24.8z"/><circle cx="126" cy="144" r="6" fill="#fffff7"/><path fill="#e68073" d="M50.6 125.3l1.8 21-5 .4-1.8-21z"/><path fill="#3585de" d="M118 66h13v25h-13z"/><path fill="#888a4a" d="M126.7 105.8L66.8 92.7l41.6 1.1 43.3-4.2z"/><path fill="#e9d8c5" d="M109.3 61.3L116 67 90.9 57l12.9-17.3z"/><path fill="#9cbadd" d="M83.8 39.1l46-1.8-116.7-5.6 32.2 10.6z"/><path fill="#e8c57e" d="M271 23l-16 88-10-97z"/><path fill="#dad4ce" d="M14.1 142.6l2.3-25-18.9-21.5 3.7 36.5z"/><path fill="#080a1d" d="M16 63h5v12h-5z"/><circle r="1" fill="#c59048" transform="matrix(-9.44077 1.2495 -3.90028 -29.46911 0 27.1)"/><ellipse cx="17" cy="112" fill="#000020" rx="3" ry="5"/><ellipse cx="71" cy="26" fill="#d09b53" rx="44" ry="9"/><circle r="1" fill="#ccced8" transform="matrix(-4.10074 9.40456 -14.62777 -6.37826 201.4 150.1)"/><path fill="#00153d" d="M46.6 135.5l-15.5 5.7-21.7-14.8 15.9-9.4z"/><path fill="#a77365" d="M165.5 100.2l12.8 17.5 10.6-29.8-22.1 36.9z"/><ellipse cx="72" cy="52" fill="#211c2a" rx="5" ry="15"/><circle r="1" fill="#fffff5" transform="matrix(2.9985 -11.35207 9.21706 2.43457 193 104)"/><path fill="#8d8c92" d="M85.6 78.3L72.5 54.4l19.4-7.7L81.8 31z"/><path fill="#aa7b57" d="M0 173h19v28H0z"/><path fill="#d47e4c" d="M102 56h9v41h-9z"/><ellipse cx="67" fill="#966227" rx="29" ry="14"/><path fill="#115597" d="M55 91l26-4-29 43z"/><path fill="#323f4c" d="M116.9 158.4l4.6 7.3-6.4 15.7 32.4-27z"/><path fill="#f5e3ec" d="M63 47h5v17h-5z"/><path fill="#855539" d="M188.9 145.8l-8.9-10.7 22 64.9-66.1 10.9z"/></g></g></svg>