<svg xmlns="http://www.w3.org/2000/svg" viewBox="0 0 1400 933"><defs/><filter id="a"><feGaussianBlur stdDeviation="12"/></filter><rect width="100%" height="100%" fill="#51362d"/><g filter="url(#a)"><g fill-opacity=".5" transform="translate(2.7 2.7) scale(5.46875)"><circle r="1" fill="#fffff7" transform="matrix(-124.52677 -222.52659 104.38316 -58.41323 147.3 55)"/><circle r="1" fill="#fff6e2" transform="matrix(81.27922 -70.40627 50.69881 58.52831 134 33.7)"/><circle r="1" fill="#d51309" transform="matrix(44.41744 -11.40446 23.01162 89.62436 206.5 144.7)"/><ellipse cx="214" cy="58" fill="#fff" rx="15" ry="64"/><circle r="1" fill="#fff0e0" transform="matrix(19.20737 17.29439 -66.00965 73.31114 105.5 103.1)"/><circle r="1" fill="#973115" transform="matrix(-37.79625 34.16324 -9.84612 -10.89318 152.1 10.5)"/><circle r="1" fill="#fffff8" transform="matrix(79.67625 70.57582 -16.4767 18.6013 79.7 41.6)"/><circle cx="7" cy="94" r="47" fill="#221a0c"/><circle r="1" fill="#a7482a" transform="matrix(12.92242 -245.40565 16.84035 .88677 238.9 151.8)"/><circle r="1" fill="#9d3426" transform="rotate(-25.1 456 -259.8) scale(85.07037 41.96848)"/><ellipse cx="183" cy="90" fill="#f3181d" rx="20" ry="45"/><ellipse cx="5" cy="15" fill="#ffecd3" rx="13" ry="32"/><circle r="1" fill="#cb7859" transform="matrix(11.22 -1.78509 14.85543 93.37236 49 107.3)"/><circle r="1" fill="#fff" transform="matrix(-14.7379 -.4889 1.2963 -39.0767 214.9 69.2)"/><circle r="1" fill="#fff5e9" transform="matrix(130.0628 -81.87098 6.53983 10.38938 179.1 31)"/><path fill="#2f2b24" d="M224.9 28l6.9 21.1L271 15.6 234.9 5z"/><path fill="#ffe" d="M265 57.2l-22.6-5.9-1-37.3 1.9 11.8z"/><circle r="1" fill="#926650" transform="matrix(-53.72917 -2.79223 .7885 -15.17277 40.3 169)"/><path fill="#c78369" d="M100 121h53v39h-53z"/><ellipse cx="83" cy="69" fill="#ffe9d4" rx="28" ry="93"/><circle r="1" fill="#7c6f5f" transform="matrix(146.15046 -6.12552 .4638 11.06587 137.7 169.6)"/><path fill="#081a17" d="M0 52h28v104H0z"/><circle r="1" fill="#fff" transform="matrix(-81.13014 -13.92624 .82679 -4.81663 255 3.3)"/><path fill="#440b00" d="M10 14l19 10-42-7z"/><path fill="#e23533" d="M167 49h31v54h-31z"/><path fill="#fff" d="M28.3 20l-38-8.7L-4.3-12l38 8.8z"/><circle r="1" fill="#ffc18d" transform="matrix(-2.81129 -31.6412 24.50004 -2.1768 109 0)"/><path fill="#fff4ec" d="M162.5 88.9l-10 39.5L104 89.3l63-50.5z"/><circle r="1" fill="#ec603e" transform="rotate(163.1 120.7 65) scale(23.1522 44.07925)"/><circle cx="180" cy="133" r="27" fill="#da2526"/><circle r="1" fill="#673626" transform="matrix(11.57045 -21.96883 12.9033 6.79586 220.3 142.3)"/><circle r="1" fill="#c48366" transform="matrix(-10.96596 7.86764 -21.31377 -29.70724 30.3 46.5)"/><path fill="#976254" d="M43 123h24v30H43z"/><path fill="#fff7eb" d="M240.8 55.8l-89.7-12.1L239.8-16l-27 71.3z"/><path fill="#ffd6ba" d="M-16 6.4l45.6 50 10.9-15.1-46.7 6.1z"/><path fill="#fffffd" d="M264 157l7 10-39-8z"/><path fill="#e7b29b" d="M107.1 61.9l1.8 98-12 .2-1.8-98z"/><path fill="#fff7ea" d="M104 32L86 162 40-16z"/><path fill="#9a553f" d="M134-3l1 34 82-47z"/><ellipse cx="39" cy="13" fill="#d98b61" rx="5" ry="87"/><path fill="#ce9583" d="M178.6 7.6l-70.3 31.6-42.5-50.7 68.9 64.4z"/><path fill="#9f6351" d="M146.5 120.9l14.4 10.9-48.5-9.4L98 167.9z"/><path fill="#fccebb" d="M107 102h50v21h-50z"/><circle r="1" fill="#c29b83" transform="matrix(23.60949 -4.42685 .42358 2.25906 10.3 160)"/><circle r="1" fill="#edccc1" transform="rotate(-13.4 270.4 -1032.7) scale(4.66039 12.65272)"/><ellipse cx="182" cy="162" fill="#fffcf7" rx="11" ry="2"/><path fill="#9f3928" d="M234 59l5 88-18-31z"/><path fill="#fffff4" d="M197.5 56l17.7-3.4 7.3 37.3-17.7 3.5z"/><path fill="#181f19" d="M43 145L20 44l-32 116z"/><path fill="#8b5e4f" d="M51.1 49.9l-15.8-8.8 7-20.4 4.2 84.9z"/><path fill="#14100a" d="M234.3 18.7l5.3 29.6-6 1-5.2-29.6z"/><path fill="#f0cec0" d="M52 59h21v62H52z"/><path fill="#342319" d="M250 11h6v28h-6z"/><ellipse cx="85" cy="150" fill="#fbddcc" rx="20" ry="12"/><circle r="1" fill="#dc3d3b" transform="matrix(18.51855 -2.04307 2.92866 26.54557 177.3 113.6)"/><path fill="#e94441" d="M168 48h29v27h-29z"/><path fill="#ffd2a4" d="M31 0h6v42h-6z"/><path fill="#563d2f" d="M170 164h86v4h-86z"/><path fill="#f1dbbf" d="M207 121V97h12v24z"/><path fill="#fff" d="M243 39.6l11-1.1 1 9.9-11 1.1z"/><path fill="#ffffef" d="M222.1-9.2l36 .7 1.6 16.2 4.1 7.5z"/><path fill="#a76b57" d="M108 29h30v9h-30z"/><path fill="#ead2be" d="M149.5 150.3l-47 2.4v-1l47-2.4z"/><path fill="#c69782" d="M47.5 157.3l-61.9 21.4 69.6-19.9 18.1-32z"/><ellipse cx="255" cy="124" fill="#c66145" rx="23" ry="36"/><circle r="1" fill="#2c2a22" transform="rotate(118.3 -17.8 37.3) scale(26.24492 15.02424)"/><path fill="#814d3b" d="M30.9 156.3l21-23.1-11.1 38L86.2 185z"/><path fill="#412c20" d="M246.7 4.6l6.3 9-19.7 13.8-6.3-9z"/><path fill="#fff6f0" d="M108 54h54v42h-54z"/><path fill="#fdcda7" d="M119.8 31.7L46.6-16h97.1l-15.9 35.5z"/><path fill="#deb6a6" d="M59 100l-16 21 25 1z"/><path fill="#fffdf8" d="M70 54l-9-70 55 68z"/><path fill="#33271c" d="M209 148l13 8-1-18z"/><path fill="#ffe9da" d="M43 36l3-42 26 90z"/><path fill="#fff3e8" d="M164 42l59 7-15-61z"/><ellipse cx="198" cy="128" fill="#ba201d" rx="8" ry="30"/><path fill="#cc2421" d="M151 143l13-27-3 39z"/><path fill="#73523f" d="M2.8 16.8L24 26.3l11.6 1.4-20-11.5z"/><circle r="1" fill="#c3b0a3" transform="rotate(-83 204 -50.6) scale(1.67957 12.9409)"/><path fill="#e6c8bd" d="M168 160h29v2h-29z"/><path fill="#ffecde" d="M204.6 108.6l18.7-16.1 8.9-29.9-21-78.6z"/><path fill="#fffcee" d="M5 13.7l8-30 24 6.6-8 30z"/><path fill="#edc1b3" d="M142.7 48.5L189 9.6l-69.2 34.6 1.3 13.1z"/><path fill="#764c3e" d="M65.4 161l-30 24 71.7-28.3 9.8 13.5z"/><path fill="#f5cfbe" d="M46.7 71.8l-3.5 11.5-3.9-1.1 3.5-11.5z"/><path fill="#724029" d="M39 115l-6-54-8 20z"/><path fill="#e74a48" d="M164.2 73.3l24.3-13.1-2.2 84.1-17.6-96.9z"/><path fill="#f3d0ba" d="M-16 61.1l11.8-19.5 35 8.9-41.4-28z"/><path fill="#ffedde" d="M247-3l-47-2 17 24z"/><path fill="#d7a38f" d="M127.3 145.3l.4-13 13 .4-.4 13z"/><path fill="#4d392d" d="M231 33h12v15h-12z"/><path fill="#76493a" d="M219 185l52-9-56-23z"/><path fill="#160809" d="M255 29h1v19h-1z"/><ellipse cx="15" cy="137" fill="#181c17" rx="25" ry="18"/><path fill="#2a1d13" d="M-16 177l31-16h-31z"/><path fill="#be8675" d="M59 122h9v40h-9z"/><path fill="#c58975" d="M24.9 51L-8.3 17.8l40.9 16.5-24 8.3z"/><path fill="#dd795a" d="M246.7 61.8l-1 78.6 25.3-79-36.8-14.2z"/><path fill="#9c3c2c" d="M241.3 89.3l-12.8 2.5-12.7 36.1 19 31.1z"/><path fill="#6d4738" d="M194.6 185l-4.7-18.6-33.9-7.7 9.2 16.5z"/></g></g></svg>