<svg xmlns="http://www.w3.org/2000/svg" viewBox="0 0 1400 933"><defs/><filter id="a"><feGaussianBlur stdDeviation="12"/></filter><rect width="100%" height="100%" fill="#573928"/><g filter="url(#a)"><g fill-opacity=".5" transform="translate(2.7 2.7) scale(5.46875)"><circle r="1" fill="#fffffd" transform="matrix(44.77518 153.04071 -206.516 60.42047 162.2 46.2)"/><circle r="1" fill="#ffd292" transform="matrix(-.06201 -255 116.5961 -.02835 155.1 55.3)"/><ellipse cx="195" cy="9" fill="#fff" rx="210" ry="21"/><circle r="1" fill="#6f3612" transform="matrix(-80.76303 -4.49602 1.06639 -19.1558 60.7 84.9)"/><circle r="1" fill="#4c0000" transform="matrix(-2.72704 8.46054 -27.1394 -8.74768 217 82.3)"/><circle r="1" fill="#fffffb" transform="matrix(-5.84502 -11.7233 60.32757 -30.07822 18 127.7)"/><circle r="1" fill="#ec5b00" transform="matrix(20.76293 -6.57023 13.6439 43.1168 84 147.9)"/><path fill="#1b0000" d="M73.6 36.4L24.8 15.9l-40.3 15.8 22.9 6.2z"/><path fill="#fff" d="M105 108h63v35h-63z"/><circle r="1" fill="#de2400" transform="matrix(-3.75294 6.81397 -46.59665 -25.66408 231.3 124.2)"/><circle r="1" fill="#cf5200" transform="matrix(24.35374 27.62389 -13.39647 11.81057 115 80)"/><ellipse cx="41" cy="47" fill="#fffff3" rx="89" ry="8"/><path fill="#920000" d="M101 37.6l1.5-10.9 40.6 5.7-1.6 10.9z"/><ellipse cx="154" cy="10" fill="#fffff8" rx="155" ry="18"/><circle r="1" fill="#fff9d9" transform="matrix(21.69027 32.1996 -15.10267 10.17345 155.5 88.8)"/><circle r="1" fill="#760000" transform="matrix(15.8496 11.65954 -6.83617 9.29287 218.6 77.9)"/><path fill="#fff" d="M271 128l-96-41h44z"/><path fill="#334b48" d="M-47.1 103.5l79.3-40.4 15 29.4-79.4 40.4z"/><ellipse cx="30" cy="124" fill="#ffffe4" rx="27" ry="21"/><ellipse cx="52" cy="33" fill="#7a3b07" rx="28" ry="8"/><circle r="1" fill="#c75014" transform="matrix(-9.91353 7.53491 -17.71022 -23.30097 137.4 168.7)"/><circle r="1" fill="#fffff8" transform="rotate(-168.4 117.2 17.8) scale(41.63494 6.57187)"/><path fill="#420400" d="M142 109L92 94l34-8z"/><circle r="1" fill="#8e3a07" transform="rotate(-34.2 215.6 -251) scale(7.40082 13.07466)"/><circle r="1" fill="#ffffd8" transform="rotate(36.2 -90.4 31.6) scale(12.07769 25.39322)"/><circle r="1" fill="#fe924b" transform="matrix(-4.63302 5.80368 -54.75692 -43.71187 211.1 154.8)"/><path fill="#081000" d="M36.5 32.9L-16 37.7l45.2-23.3-1.8.7z"/><path fill="#ffffdb" d="M208.7 191.8l-78.8-71 11.4-12.6 78.8 71z"/><circle r="1" fill="#eee7c6" transform="matrix(-6.22308 10.03745 -29.80457 -18.47842 210.4 132.2)"/><path fill="#fffdef" d="M271 38l-107-7-2-47z"/><path fill="#f9a44f" d="M151 77.9l-11.5 17.6L85 60.1l11.5-17.6z"/><ellipse cx="133" cy="128" fill="#fff" rx="20" ry="18"/><circle r="1" fill="#d1e2ae" transform="matrix(10.6051 29.15918 -5.27644 1.91903 83.7 77.6)"/><path fill="#bb5c2a" d="M143.8 46.3l38.7 29-87.1-43.9 35.1-6.7z"/><path fill="#bc310d" d="M211.6 71.5l-51.7-23.7 10.8 1.1L234.8 72z"/><path fill="#ae5117" d="M220.5 37l33.4 7.8-8.1 5.7-38.4-3.1z"/><path fill="#fff" d="M156 85l-28 52 54-46z"/><circle r="1" fill="#d97e7a" transform="matrix(-11.37149 6.2104 -9.3468 -17.11435 53.2 69.3)"/><path fill="#551f0d" d="M53.4 104.6l-33.3-9.3L75.6 88l-29.2 15.6z"/><circle r="1" fill="#c5d69c" transform="matrix(10.42996 27.31337 -23.18366 8.85298 36.5 156)"/><path fill="#fb6" d="M111.1 168.3l19.6 16.7L96 104.5l-7.5 33.2z"/><path fill="#fffde8" d="M162 26L19-16l14 39z"/><path fill="#ffffe8" d="M2 44l18-10 30 15z"/><path fill="#fffff6" d="M201.1 81.5l-31.7 19.7L138 84.1l100.6 25.3z"/><path fill="#bd5125" d="M271 159.8l-46.1-53.4-2.5 34.3 14.7-5.9z"/><circle r="1" fill="#838f90" transform="rotate(-170 16 36.8) scale(5.60466 27.65116)"/><circle cx="7" cy="5" r="17" fill="#fffbd4"/><path fill="#413a00" d="M73 39l19-1-31-9z"/><circle r="1" fill="#ffe4a9" transform="matrix(75.72554 58.11605 -4.3578 5.67825 249.2 169)"/><path fill="#ffe5c1" d="M66.6 104l63.3 1.6-23.6 19.9-37.2-38z"/><path fill="#fffff5" d="M54 56l57-18H58z"/><path fill="#fffff6" d="M150 45h52v5h-52z"/><path fill="#b66d2a" d="M32 25h20v18H32z"/><path fill="#d77834" d="M109.8 175.5l-40.4-74.9-8.7 7.4 3.8 65.7z"/><circle r="1" fill="#642c00" transform="matrix(2.01152 -4.41557 20.9303 9.53482 207.7 80)"/><path fill="#575d4d" d="M23.1 61.1l-6.4 48.1-10.8 12.5L-16 92.4z"/><path fill="#eac65f" d="M123.8 24.2l25.3 17.3 54.9 4.3-51.3-18.1z"/><path fill="#546336" d="M52.5 173.2l-21-15.4 9.6-.3-3.6 27.5z"/><path fill="#eb643e" d="M245 99l17 4-29-28z"/><path fill="#9b441a" d="M73 74l70 30-30-31z"/><path fill="#95784b" d="M157 85l-8-9 32 9z"/><path fill="#da6e3f" d="M233.4 167.3l-6.5 9-32.3-23.6 6.5-9z"/><path fill="#ffffef" d="M23 103l-39 44 78-36z"/><path fill="#0a0c00" d="M-6.1 36.6l28-6.6.1-3.1-32-7.4z"/><path fill="#fefbed" d="M160.5 185l-10.2-18.3-48.6-62.7 39.7 15.4z"/><path fill="#dca970" d="M175.5 170.8l7.8 14.2-39.9-41.1 10.6-15.5z"/><path fill="#dd5619" d="M249.7 136.7l-62.8-43.4-7.6 7.1-.5 2.4z"/><circle r="1" fill="#fffbd7" transform="matrix(-44.4448 -3.44411 .42581 -5.4949 233.6 56.3)"/><path fill="#c58e3e" d="M155 9h5v13h-5z"/><path fill="#50732c" d="M11.3 157.7l-24.4-5.6 1.8-7.8 24.4 5.6z"/><circle r="1" fill="#eebd6e" transform="matrix(24.39412 6.03694 -.9008 3.63994 178.9 66.8)"/><circle r="1" fill="#fff5d8" transform="matrix(-57.18616 -33.64513 1.22328 -2.0792 111.1 42.6)"/><path fill="#b3bcb5" d="M199.6 115l25.6 11.6 33.1 30.2-49.2-21.8z"/><path fill="#eb5a10" d="M137.5 185l-18.8-44.7-2.5 7.3 6.3 30.4z"/><path fill="#ed9648" d="M85 50h39v17H85z"/><path fill="#c32815" d="M101 35l30-3-36-6z"/><path fill="#ffefbb" d="M99 148l7 9 20-23z"/><path fill="#ecb89b" d="M60.9 77.9l2.7-35.7 9.1 53.6-.4-3z"/><path fill="#fffada" d="M86 42h74v3H86z"/><path fill="#98512a" d="M145 56.5l-9.6-3.9-26-25.1 23.6 2.3z"/><circle r="1" fill="#6e5031" transform="rotate(14 -89.3 696.8) scale(5.41603 3.42806)"/><circle cx="139" cy="97" r="7" fill="#d46813"/><path fill="#f2c993" d="M191.2 128.8l-21.8-31.3-11.4 13.3 2.9 21.5z"/><path fill="#652c09" d="M106.5 86.2l39 19.1L97 99.2l-10.1 5.1z"/><path fill="#fdebb4" d="M16 46.1L.7 85.7l-8.5 22.1 7.2-73.5z"/><path fill="#d45618" d="M121 173.9l-9.5 11.6L85 164.1l9.4-11.6z"/><path fill="#f0e6ce" d="M46 119h14v45H46z"/><path fill="#ef8d40" d="M59.5 111.3l10.1-10.4 48.5 57.1-24.7-47.2z"/><path fill="#f6d6ae" d="M221.4 94.6l49.6 58.1-26.4-57.1-3.8-3.5z"/><path fill="#ccd6ab" d="M81.6 93.9l-3.3-20.5 15.2 14.1-2.4 9.1z"/><path fill="#5e1201" d="M196 77l32 17 2-18z"/><path fill="#fec138" d="M78.9 40.2l8.5-12.5 3.5 3.7 7.7 6.9z"/><circle r="1" fill="#f2e0cc" transform="matrix(-2.31876 16.29248 -45.9931 -6.54579 255 25.8)"/><path fill="#631c07" d="M61 74l5 19-7 6z"/><path fill="#e8ede2" d="M197 113l-23-17 18 31z"/><path fill="#7f875a" d="M47 166l-10-28-2 24z"/><path fill="#b88e4d" d="M210 32l50 13-64 1z"/><path fill="#443822" d="M72.6 29.8l2.2 2.6 5.1 9.6-26-11.6z"/><path fill="#ffe6af" d="M154.7 180.3l-52.2-58 .8-.6 52.2 58z"/><path fill="#fffffe" d="M147 85h12v38h-12z"/></g></g></svg>