<svg xmlns="http://www.w3.org/2000/svg" viewBox="0 0 1400 933"><defs/><filter id="a"><feGaussianBlur stdDeviation="12"/></filter><rect width="100%" height="100%" fill="#4b3927"/><g filter="url(#a)"><g fill-opacity=".5" transform="translate(2.7 2.7) scale(5.46875)"><circle r="1" fill="#fff5b8" transform="matrix(-129.55263 -117.67407 87.9545 -96.83302 147.4 72)"/><ellipse cx="150" cy="103" rx="20" ry="42"/><circle r="1" fill="#fff" transform="rotate(-88.6 182.8 -14) scale(25.54837 81.95588)"/><circle r="1" fill="#780000" transform="matrix(-42.81053 -57.70252 18.86856 -13.99893 243.2 81.7)"/><circle r="1" fill="#ffe49d" transform="matrix(16.70963 26.5775 -97.61146 61.36964 160.1 22.8)"/><circle cx="17" cy="81" r="46" fill="#869d01"/><ellipse cx="213" fill="#fafaff" rx="126" ry="15"/><path fill="#fff" d="M12.2 20.4L23 4.6l48.9 33L61 53.4z"/><path d="M132.8 143.9l6.6-62.7 27.8 3-6.6 62.6z"/><circle cx="66" cy="135" r="54" fill="#6a8b74"/><ellipse cx="192" cy="169" fill="#fff" rx="73" ry="21"/><circle r="1" fill="#b8dbe6" transform="rotate(65.8 -20 141.5) scale(37.32493 14.30831)"/><path fill="#fef7ff" d="M237.8 137.2l-13.9-1.7 4.3-34.7 13.9 1.7z"/><circle r="1" fill="#090500" transform="matrix(11.26486 -9.01531 21.93698 27.41081 148.1 93.3)"/><circle r="1" fill="#352d38" transform="matrix(-9.75818 16.96999 -26.7911 -15.40556 56 4)"/><circle r="1" fill="#d89a1d" transform="matrix(17.2589 -24.70578 21.24487 14.84118 198.1 106.2)"/><circle r="1" fill="#fff" transform="rotate(171.3 125.8 9.6) scale(16.63715 38.67504)"/><ellipse cx="116" cy="63" fill="#e9a422" rx="66" ry="9"/><circle r="1" fill="#fff2a3" transform="matrix(-3.7003 -10.74646 20.14737 -6.9373 186.6 81.9)"/><circle r="1" fill="#726a1f" transform="matrix(-26.03312 11.47412 -16.11676 -36.56662 22.8 140.3)"/><path fill="#d5c677" d="M-3 71l66 71-2-47z"/><path fill="#714222" d="M199 18l40-11-44 62z"/><circle r="1" fill="#800602" transform="matrix(-7.47998 1.35893 -9.23593 -50.83759 248.7 105)"/><path fill="#70341c" d="M123.5 4.6l13.7 8.2-8.7 14.6-13.7-8.2z"/><path fill="#2b0003" d="M247.5 86.3l-18.2 12.3-16.8-24.9 18.2-12.3z"/><path fill="#6a7b00" d="M10 45l30.6 11.1 24.8 39.8L-16 64z"/><path fill="#ddaa8a" d="M182.1 75.3l58.6-48.4 17.5-8.1-21.6 26.9z"/><path fill="#4a6b77" d="M64 94h27v76H64z"/><path fill="#d02d08" d="M158.3 55.8l19.4 15.7-12 14.7-19.4-15.7z"/><circle r="1" fill="#000207" transform="matrix(-18.25147 26.85622 -7.4305 -5.04976 149.2 122)"/><ellipse cx="105" cy="128" fill="#88a1a7" rx="22" ry="42"/><circle r="1" fill="#e4ec4e" transform="matrix(-26.49857 -12.0761 2.82621 -6.20156 38.2 45.3)"/><path fill="#f4f4ff" d="M101-6l20 35-15 4z"/><path fill="#97693b" d="M60 52l36-41 14 33z"/><path fill="#fff2f2" d="M8.2 22.1L32.7 27l-9.8-43L18.6-.2z"/><circle r="1" fill="#b4d4d2" transform="matrix(28.05404 -6.2167 2.42875 10.9602 88.6 81.2)"/><path fill="#deb363" d="M180 66l30-39-143 9z"/><path fill="#b0aa51" d="M30 185l30-18-9-67z"/><path fill="#fff" d="M43 27h21v16H43z"/><path fill="#fffbf8" d="M271 168l-118-28-14 45z"/><path fill="#ffd19c" d="M47.7 24.8L44.4-2l6-.8L53.5 24z"/><ellipse cx="233" cy="4" fill="azure" rx="46" ry="6"/><circle r="1" fill="#62602d" transform="rotate(37.8 -172.4 92.6) scale(23.53887 27.8943)"/><path fill="#f7f7ff" d="M238 99l-11 20 17 21z"/><path d="M214.6 46.2l-18.7 3 3.7 16.4-.3-5.6z"/><path fill="#8e3400" d="M8.7 12.2L-10.2 3l7.5-15.2L16.2-3z"/><path fill="#330e00" d="M63 45.6L73.4 42 77 52.4 66.6 56z"/><path fill="#a8ae9f" d="M81.5-9.1l-7.7 30.3L47.2-16 78.4 2.4z"/><circle r="1" fill="#acbd15" transform="matrix(3.48442 -8.5811 50.35865 20.44853 21.5 52)"/><path fill="#fff1cd" d="M171.9 80.8l-2.1-1.6 21.7-10.9 23 13.4z"/><path fill="#28252c" d="M82 16.4l-30.2 4.5 11.9 2.4 17.9 7.6z"/><path fill="#2c2217" d="M41.8 13.5L27.9 9.9l6-11.8 18.4-2.3z"/><path fill="#eb542e" d="M242.9 97.1l-2.7 29.2 17.2-42.2-10 .8z"/><circle r="1" fill="#d1d8c7" transform="matrix(7.2948 -4.26273 16.3059 27.90421 119.7 95.4)"/><circle r="1" fill="#e6d5bc" transform="matrix(-2.6075 19.5714 -31.86223 -4.245 164.4 5.6)"/><circle r="1" fill="#b68d2e" transform="matrix(-16.187 7.65156 -11.83236 -25.03154 189.8 109.4)"/><path fill="#ffffc5" d="M122.6 67.5l-18.5-12 3.3-5 18.5 12z"/><circle r="1" fill="#9c3f37" transform="matrix(28.88259 8.72017 -.9389 3.10981 8.4 25.6)"/><path fill="#b08c89" d="M158 134h91v14h-91z"/><circle r="1" fill="#0b0b0a" transform="matrix(-4.77065 -14.94843 15.69103 -5.00765 151.3 125.8)"/><ellipse cx="253" cy="61" fill="#a32415" rx="48" ry="10"/><path fill="#e1c422" d="M98.6 66.5l-25.4 7.3 10.3-34.2 39.9 39.6z"/><path fill="#000406" d="M135 73l11 47-22-40z"/><path fill="#fff" d="M243 0h13v21h-13z"/><path fill="#d6d399" d="M57.4 97.5L18.6 79.1l29.1 22.2 14.9 34.3z"/><path fill="#b9c1b9" d="M121 123l14 9-31 45z"/><ellipse cx="238" cy="49" fill="#f17b71" rx="24" ry="4"/><path fill="#4a1a16" d="M207 68l28 29 28-28z"/><path fill="#fffffc" d="M248.8 29.8l-8.4 10.9h7.3L271 17.9z"/><path fill="#edc0a5" d="M84 0h6v36h-6z"/><path fill="#851008" d="M240 122l31 31V55z"/><path fill="#aba467" d="M9.3 71.5L-16 82.9l19.1 27.2 11.1-37z"/><path fill="#3c4609" d="M-16 50l49 26-37-7z"/><path fill="#523938" d="M91 9h6v24h-6z"/><path fill="#aa5431" d="M124 62h48v13h-48z"/><path fill="#fcf0e1" d="M65 47l5-17-60-16z"/><path fill="#141310" d="M129 145.9L172.6 96l-16.3 47.4-21.1 4.8z"/><path fill="#a47e4a" d="M113 18l-3-19 41 26z"/><path fill="#d9dc6c" d="M59.7 94.9l2-37.4 38.4-6.8-13.8-7.9z"/><path fill="#6c857d" d="M90 185l15-93-32-6z"/><path fill="#dec27a" d="M134 72l-7-75 40 43z"/><path fill="#af8260" d="M210.6 94.6l21.5 39.9-49.2 7 62.7-42.6z"/><path fill="#c6b4ab" d="M155 157l-36-8 40-5z"/><path fill="#9d6a37" d="M196 22h33v23h-33z"/><path fill="#553e45" d="M234 41h22v5h-22z"/><path fill="#d4ac8a" d="M243.2 19.7l14.1 36.7-25.6-32.6 12.5-27.5z"/><path fill="#879511" d="M64.3 88.3L23.9 49.9.5 65 67 71.6z"/><path fill="#5e412c" d="M179 60h22v4h-22z"/><path fill="#b0aac6" d="M248 142.3l-16.4 4.7-5.5-19.3 16.3-4.7z"/><path fill="#54630d" d="M24 73h31v10H24z"/><ellipse cx="79" cy="11" fill="#2f233a" rx="4" ry="17"/><path fill="#b99765" d="M139 66L68 27l42 7z"/><path fill="#9c9a45" d="M38 83.1l-23.1 31.7 16.3-5.9 24.4 41.2z"/><path fill="#e7f4ff" d="M187 18l62-17-49-17z"/><path fill="#f0d589" d="M119 26l-3 24 74-32z"/><circle r="1" fill="#dfd886" transform="rotate(-172.1 5.7 17) scale(34.0237 2.72749)"/><path fill="#526a5f" d="M91 98l-24 52-6-42z"/><path fill="#dce2d6" d="M104 67.5l-36.2 5.7 11.3 6.6 36.2-.4z"/><path fill="#0f100f" d="M137.3 147.7l32.3-20-2.2-21L136 72.9z"/><path fill="#773e3c" d="M224.5 39.7l-9.9-1.8 5-27.6 9.8 1.8z"/></g></g></svg>