<svg xmlns="http://www.w3.org/2000/svg" viewBox="0 0 805 1400"><defs/><filter id="a"><feGaussianBlur stdDeviation="12"/></filter><rect width="100%" height="100%" fill="#930515"/><g filter="url(#a)"><g fill-opacity=".5" transform="translate(2.7 2.7) scale(5.46875)"><circle cx="106" cy="155" r="110" fill="#ad0013"/><circle cx="69" cy="17" r="40" fill="#6f000c"/><circle r="1" fill="#cb0817" transform="matrix(13.91755 6.27159 -27.51 61.0486 129 14.8)"/><ellipse cx="8" cy="108" fill="#c00616" rx="20" ry="39"/><ellipse cy="184" fill="#ca0818" rx="23" ry="28"/><circle r="1" fill="#73000d" transform="matrix(29.904 -30.88878 11.991 11.60871 0 236.6)"/><ellipse cx="41" cy="60" fill="#7c010f" rx="18" ry="58"/><path fill="#a70215" d="M97 14.3L54.7 29.7 43-2.3l42.3-15.4z"/><circle r="1" fill="#c70d18" transform="rotate(159.4 46.5 38) scale(19.2414 14.83323)"/><path fill="#6a020e" d="M21 104l15-16-25 5z"/><circle r="1" fill="#74020f" transform="rotate(-30 265.5 -2) scale(36.03199 3.22374)"/><ellipse cx="47" cy="84" fill="#b40416" rx="146" ry="6"/><circle r="1" fill="#67000d" transform="matrix(-7.18145 -9.9436 22.50843 -16.256 76.8 33)"/><circle r="1" fill="#74000d" transform="matrix(-13.40211 -3.64127 6.64436 -24.4553 0 37.4)"/><circle r="1" fill="#7f0011" transform="rotate(-163.8 44 123.8) scale(5.92954 57.6362)"/><path fill="#75020f" d="M138.4 140l-19.9 24.6 17.6-4.4L162 99.8z"/><path fill="#820211" d="M117 141l-15-36 28-13z"/><path fill="#ca0816" d="M139.6 151.2l12 9-35.8 5.3 38.7 15.9z"/><path fill="#63000c" d="M27 37l17 44-22-13z"/><path fill="#71020f" d="M24 159h6v60h-6z"/><path fill="#b90818" d="M89.3 33.4l15 1.5 43.8 13.3L107 69.5z"/><path fill="#c20a17" d="M138 176l24 63-30-35z"/><path fill="#870212" d="M91.9 72.9l69.9-7.6-25.2-16.7-20.8 30.2z"/><path fill="#c60716" d="M36.4 114.4l-7.7 20.9L-16 77.4l54.5 43.2z"/><path fill="#c00a17" d="M-16 109.4l42.1 76.9-22.4 23.8 16.8.1z"/><path fill="#c80b17" d="M120.9 6.9l-4.3 1.8v-19.6L102.7 8.7z"/><path fill="#be0e19" d="M43.6 83.9l-4.9 14.7-6.8-8.2L4.8 79.6z"/><path fill="#55000a" d="M66 101h7v8h-7z"/><path fill="#67010e" d="M51.3 7.4L17.1-13l43 70.8-10.7-29.3z"/><path fill="#a40015" d="M34 48h20v15H34z"/><path fill="#6d010f" d="M70 28h17v34H70z"/><path fill="#820111" d="M24.7 138.9L2.4 154.2l25.2 9.9-18.4 5z"/><path fill="#74000d" d="M134.3 31.1l9.8 27.4-5.8-4.3 8.2-40.8z"/><path fill="#6e000e" d="M98 51l8-38 2 19z"/><circle r="1" fill="#a90115" transform="matrix(-15.70051 -80.02618 12.38602 -2.43004 90.9 140.6)"/><path fill="#69010d" d="M32 121h8v16h-8z"/><path fill="#61010e" d="M122.4 185.4l15-.8.2 4-15 .8z"/><path fill="#65020e" d="M18 132h15v4H18z"/><path fill="#5c010b" d="M19 199h7v10h-7z"/><circle r="1" fill="#950114" transform="matrix(-23.50382 -31.64792 16.34607 -12.13966 94.5 244.7)"/><path fill="#cb0614" d="M62 98l5 10-17 6z"/><path fill="#9d0014" d="M25 41l18-7L11 3z"/><circle cx="17" cy="77" r="7" fill="#c90d17"/><circle r="1" fill="#9e0115" transform="matrix(2.47626 -7.90176 30.14459 9.44674 47.3 230.8)"/><path fill="#6d010d" d="M153 237.4l-19.7-21.6 9.9 4.9 18.8 17.9z"/><path fill="#c80f1a" d="M107.5 68l-3.2-19.3 36.9.1-16.9 11.3z"/><path fill="#aa0215" d="M134 105l-49 11-26 30z"/><path fill="#b30114" d="M83 97.3l71.5-6.1-45.6-21.3 52.6 2.3z"/><path fill="#68010d" d="M116 107l-19 5 4-9z"/><path fill="#6f000f" d="M11 96l9 1 2-13z"/><path fill="#6f020e" d="M107 151h15v5h-15z"/><circle r="1" fill="#960114" transform="matrix(7.80614 -12.85095 30.24034 18.3691 52 164.5)"/><path fill="#7f0111" d="M50.5 134.2l-7.2-6.3 31.6-19.6 1.6 1.2z"/><path fill="#ac0116" d="M28 218l43-33-43 11z"/><path fill="#820112" d="M39 92l25 6-13-23z"/><path fill="#790110" d="M22.5 80.4l17.3-21.6L61.2-16 37.7 82.9z"/><path fill="#c50c18" d="M13 172h7v41h-7z"/><path fill="#bf0716" d="M112 36L99 73 84 55z"/><path fill="#a00214" d="M35-16l59 32-26 5z"/><circle r="1" fill="#65000d" transform="matrix(2.76576 4.13892 -18.38538 12.28572 0 243.8)"/><path fill="#6d010e" d="M112.6 119.2l2.5 1.7-9.7 14-2.5-1.8z"/><path fill="#d2101a" d="M17.5 130.6l1.3 11.6-28.1 2.6-6.7 34z"/><circle r="1" fill="#c00413" transform="matrix(-2.09729 -.47873 2.96307 -12.98102 146 35)"/><path fill="#b40115" d="M56 68h24v16H56z"/><path fill="#ad0115" d="M148 124l-54 26 43-46z"/><path fill="#72020f" d="M92 72h20v4H92z"/><path fill="#800211" d="M56.6 229.1l12.9-31.6-15.9 9.6 22.5 10.5z"/><path fill="#70000d" d="M38 251h23v5H38z"/><path fill="#750210" d="M83.1 170.9l-11.9 12.6 7.2-.1 2.6.1z"/><path fill="#a30015" d="M18.9 169.8l48-21.6L.4 180.1l-14.1-30.6z"/><circle r="1" fill="#ca121b" transform="matrix(2.426 -5.3067 3.26693 1.4935 23 189)"/><circle r="1" fill="#bf0314" transform="matrix(-7.22475 -.08775 .03398 -2.79777 42.3 119.2)"/><path fill="#aa0516" d="M36.5 72.9L-.8 70.6 41 82.3 4.5 113z"/><circle r="1" fill="#75020f" transform="matrix(-6.11408 -.6055 .4031 -4.07036 57 64)"/><path fill="#70000f" d="M162 48.6l-22.3-33 16.6-5.8L162 38z"/><path fill="#63000a" d="M6.7 207l-7.9 9.8-3.2 4.9 8.8 1.5z"/><path fill="#71010f" d="M138.5 146.1l7-18.8 16.5-.9-36.4 37.2z"/><ellipse cx="84" cy="83" fill="#940213" rx="4" ry="26"/><path fill="#790111" d="M162 165l-13-3-7 39z"/><path fill="#ab0215" d="M130.9 218.8l-42-15 37-30-19.8-59.1z"/><path fill="#b10115" d="M95 41.5l-4.6-2 4.6-11 4.6 2z"/><path fill="#5e010d" d="M22 172h2v10h-2z"/><path fill="#c40715" d="M16 108h17v23H16z"/><path fill="#b20415" d="M149.8 141.6l-15.4 59.6 24.2-41.2-25.8-4.9z"/><path fill="#a20215" d="M61 30l-12-8 6 13z"/><path fill="#830111" d="M92 12L76-7l44 18z"/><path fill="#62020d" d="M41 90l1 10h7z"/><path fill="#950013" d="M15.6 288.4l-22-17.2 38.8-49.6 22 17.2z"/><path fill="#a90116" d="M125 155l-1-47 16 35z"/><ellipse cx="112" cy="23" fill="#c30f1b" rx="5" ry="8"/><path fill="#6a020e" d="M29.2 11.4l20.3 34 26.9-26.2-3 32.5z"/><path fill="#a00215" d="M46 47h5v64h-5z"/><path fill="#6e020e" d="M17 143h17v3H17z"/><path fill="#740110" d="M109 127l-7-8 12 2z"/><circle r="1" fill="#9b0115" transform="matrix(31.61508 -11.8204 .91971 2.45988 9.7 228.2)"/><path fill="#7d0211" d="M126 171l5 28-8-16z"/><path fill="#ce0a17" d="M96 53l3 22-12-16z"/><circle cx="129" cy="16" r="2" fill="#580009"/><path fill="#6f0110" d="M116 120l10-2-11-7z"/><path fill="#52010a" d="M66 223l-10-1 5-3z"/></g></g></svg>