<svg xmlns="http://www.w3.org/2000/svg" viewBox="0 0 1400 1121"><defs/><filter id="a"><feGaussianBlur stdDeviation="12"/></filter><rect width="100%" height="100%" fill="#4e423d"/><g filter="url(#a)"><g fill-opacity=".5" transform="translate(2.7 2.7) scale(5.46875)"><circle r="1" fill="#e9f3ee" transform="matrix(-25.1608 -119.34529 139.35406 -29.37913 124 55)"/><circle r="1" fill="#7b7673" transform="rotate(-88.7 145 23.7) scale(26.41054 166.74406)"/><ellipse cx="122" cy="96" fill="#c6c8c5" rx="90" ry="51"/><path d="M19 68h13v47H19z"/><path fill="#200c00" d="M113 27l50-43L70 1z"/><circle r="1" fill="#47433e" transform="matrix(41.56758 12.32925 -3.97619 13.40557 221.6 115.5)"/><path fill="#050a0c" d="M123.7 105.2l-1.8-39-8.5 40 62 6.6z"/><circle r="1" fill="#d2cdc7" transform="rotate(58.7 -34.8 238) scale(32.73098 24.52935)"/><ellipse cx="7" cy="66" fill="#eef6ed" rx="8" ry="43"/><path fill="#231e10" d="M80 25l-47-1 81 25z"/><circle r="1" fill="#5d5653" transform="matrix(32.58165 15.97031 -25.09107 51.18928 112.6 188.2)"/><path fill="#fff" d="M182 55h18v29h-18z"/><path fill="#f6f6f2" d="M71.6 112.9l-.5 15.5 42.5-6-8.2-29.2z"/><path d="M20 65h11v48H20z"/><path fill="#fdfbf8" d="M133 115h63v15h-63z"/><circle r="1" fill="#4f5253" transform="rotate(4.5 -1313 2280.3) scale(58.61565 4.89699)"/><circle r="1" fill="#747063" transform="matrix(3.8468 13.50432 -56.74823 16.16516 196 9.5)"/><circle r="1" fill="#6d645f" transform="rotate(174.7 3.7 66.7) scale(16.86272 23.17032)"/><path fill="#5a5551" d="M231 77l-25 69 45 73z"/><circle r="1" fill="#020a0e" transform="rotate(-172.6 42.6 35) scale(44.26054 1)"/><path fill="#45463f" d="M62.5 33.3L45.8 30l7.7-39.3L70.2-6z"/><path fill="#17201a" d="M83.5 112l-4.6 1.8-6.4-15.7 4.6-2z"/><ellipse cx="17" cy="21" fill="#bcbaac" rx="31" ry="19"/><path fill="#9fa39e" d="M226 108l-102-3 105-36z"/><path fill="#e8ecec" d="M33.9 112.5L29 45l-.1 4.1 10.2 5.5z"/><path fill="#ddd" d="M31 114h30v21H31z"/><circle r="1" fill="#948e88" transform="matrix(53.45917 26.88716 -7.60798 15.12678 163 154.2)"/><circle r="1" fill="#57564d" transform="matrix(28.0155 -.60505 .15328 7.09731 255 81.7)"/><path fill="#030c0f" d="M62 68h7v10h-7z"/><path fill="#7b7573" d="M76.5 192.4l-85.7-47.5 10.7-19.3 85.7 47.5z"/><path fill="#555043" d="M109.1 17.2l13.9 97.3-15.5-65.6-7.3-64.9z"/><path fill="#e8eaec" d="M106 33.9l-7.5 6.6L86 26l7.5-6.6z"/><path fill="#e6e4e0" d="M190 139l-82-31 104 10z"/><path fill="#e2e9ed" d="M171.8 73.7L122.5 87l-2.3-8.6L169.5 65z"/><path fill="#301a00" d="M228 92h28v3h-28z"/><ellipse cx="217" cy="115" fill="#2a2522" rx="17" ry="6"/><path fill="#847f7d" d="M202.7 113.9L202 149l8 28.4 27.6-41.8z"/><path d="M119 79h4v30h-4z"/><circle r="1" fill="#c1caca" transform="matrix(1.2604 3.56706 -58.98103 20.84054 186.6 50)"/><path fill="#c5cbc2" d="M0 69h20v39H0z"/><circle cx="57" cy="14" r="3" fill="#fff"/><path fill="#5d5957" d="M-16 184l209-27-148 62z"/><path fill="#dde0db" d="M71.5 111.9l-2.8 19.4 48.7-48.2-.8 19.6z"/><ellipse cx="76" cy="145" fill="#a59e9b" rx="41" ry="13"/><path fill="#514c45" d="M248 79h8v111h-8z"/><path fill="#44463d" d="M185.3.9L146 24.7l7-10.8-16.1 1.9z"/><circle r="1" fill="#66615d" transform="matrix(-15.03508 -9.47157 41.05118 -65.16422 206.1 191)"/><circle r="1" fill="#5e5b4e" transform="matrix(.8473 1.38931 -32.70692 19.94695 113.3 44.3)"/><path fill="#b3b0a4" d="M42 49h103v13H42z"/><path fill="#abb4be" d="M200 53l71-10-72 40z"/><path fill="#fff" d="M232.9 88.7l15.9-1.4.3 4-15.9 1.4z"/><circle r="1" fill="#5e6259" transform="matrix(-52.48856 22.04887 -1.067 -2.54004 255 17.6)"/><circle r="1" fill="#c0c2b6" transform="matrix(48.34244 -31.51404 1.47386 2.2609 178.6 8.7)"/><path fill="#dadeda" d="M91.4 53.8l25.6 51.5-4.4-24.5L91 98.2z"/><path fill="#f8fcfd" d="M83.9 79.2l-4.5 12.7-6.1.7-.4-17.6z"/><path fill="#232017" d="M110.5 48.8l-.6-.8 137.6-92.8.6.8z"/><ellipse cx="81" cy="3" fill="#2a2c29" rx="2" ry="34"/><path fill="#e1e4e4" d="M43 74h16v23H43z"/><path fill="#bdb8b5" d="M169.4 117.7l24.9 36-106.9-30.3 75 1.1z"/><path fill="#fcffff" d="M77 19l1-12-9 5z"/><path fill="#f2f7f5" d="M176-4.2l-17.4 16L192-8.6l5.1 8.6z"/><path fill="#bec4c1" d="M130.2 55.4l94.6-38.2 3 7.4-94.6 38.2z"/><ellipse cx="231" cy="107" fill="#2e200b" rx="2" ry="21"/><path fill="#fff" d="M55.3 68.7l2.7-4.6 2.6-13.4-5.4 1.3z"/><ellipse cx="181" cy="111" fill="#393b3e" rx="23" ry="3"/><ellipse cx="39" cy="69" fill="#293338" rx="18" ry="2"/><path fill="#ccd0ca" d="M20 59h24v8H20z"/><ellipse cx="51" cy="80" fill="#828680" rx="3" ry="33"/><path fill="#e3e6e1" d="M9.5 80.3L-16-13l33.5 81.9-15.3.1z"/><path fill="#fff" d="M242 96l3 13 4-14z"/><path fill="#311400" d="M240 92h2v28h-2z"/><path fill="#e5e7eb" d="M106 31.3L87.2 20.4l-6.3-9.9L92 16.9z"/><path fill="#c3c9c8" d="M168.2 87.5L183.9 62l-61.7 25.6-4.2-22.3z"/><circle r="1" fill="#232d27" transform="rotate(-62.8 124 -12.4) scale(6.46877 2.39689)"/><circle r="1" fill="#76766b" transform="matrix(-22.68561 -13.0448 1.44536 -2.51355 171.5 37.8)"/><circle r="1" fill="#4e4743" transform="matrix(-19.63511 51.0627 -23.29436 -8.95737 248 183.7)"/><path fill="#c8d3cc" d="M233 95h7v20h-7z"/><path fill="#00060b" d="M118 79h5v30h-5z"/><path fill="#8b8d7e" d="M-5-7l13-9 6 59z"/><path fill="#555957" d="M118.6 84.8l-26.5-9.1 18.6-.1 13 20.2z"/><path fill="#cbcfcc" d="M123.7 102l42.9 3-.3 3-42.9-3z"/><path fill="#677078" d="M262 31l-52 15h33z"/><path fill="#757265" d="M248 81h8v30h-8z"/><path fill="#827c78" d="M34 182l78-27-83-4z"/><path fill="#8b8d8a" d="M199 74h29v24h-29z"/><path fill="#ebefee" d="M118 25h4v15h-4z"/><path fill="#6e655f" d="M39 186l-52-53 29-26z"/><path fill="#5a4f3c" d="M70-7l39 39 47-43z"/><path fill="#47443c" d="M48.2 34.1l4-36.7 8.7 2.2-14.3 37.5z"/><ellipse cx="95" cy="113" fill="#eae6e3" rx="64" ry="3"/><path fill="#756c61" d="M35 109h36v3H35z"/><path fill="#8c9391" d="M91 92h19v7H91z"/><path fill="#e8ebeb" d="M180 58h18v25h-18z"/><circle r="1" fill="#b6b3b1" transform="matrix(5.79261 1.59096 -6.7471 24.56585 81.8 129.3)"/><path fill="#9fa29d" d="M152.4 83.1l32 2.8 31.8 22.5-60.7-.5z"/><path fill="#fff" d="M103 85h4v23h-4z"/><ellipse cx="124" cy="108" fill="#514b48" rx="16" ry="2"/><path fill="#e6e8ea" d="M79.2 72.2l-9-.4.6-18 9 .4z"/><path fill="#fff" d="M44 51h3v9h-3z"/><circle r="1" fill="#504a47" transform="rotate(85.8 -46 169.5) scale(20.70792 52.46099)"/></g></g></svg>