<svg xmlns="http://www.w3.org/2000/svg" viewBox="0 0 1120 1400"><defs/><filter id="a"><feGaussianBlur stdDeviation="12"/></filter><rect width="100%" height="100%" fill="#493224"/><g filter="url(#a)"><g fill-opacity=".5" transform="translate(2.7 2.7) scale(5.46875)"><circle cx="94" cy="242" r="110" fill="#bac9c2"/><circle r="1" fill="#fffeda" transform="matrix(-.02462 27.76913 -148.67791 -.13183 123 .8)"/><circle r="1" fill="#fff2cf" transform="matrix(-.44036 53.65235 -17.25385 -.14161 146.2 55.5)"/><path fill="#ffdcb1" d="M67.4 100.8l-32-.6 1.2-73 32 .6z"/><circle r="1" transform="matrix(31.09172 -1.51192 2.50382 51.48972 99.9 65.5)"/><path fill="#c59e83" d="M129 24h26v126h-26z"/><ellipse cx="96" cy="251" fill="#dce6eb" rx="109" ry="7"/><path fill="#ffeace" d="M60 69L85 9 57 3z"/><path fill="#fffff1" d="M139 58V7L112-5z"/><ellipse cx="62" cy="230" fill="#f4ffff" rx="203" ry="3"/><circle r="1" fill="#080400" transform="matrix(-10.71693 -7.4147 33.03893 -47.75326 11.2 54)"/><path fill="#cba255" d="M59.7 127.3l-.4-26 29-.6.4 26z"/><circle r="1" fill="#010801" transform="matrix(30.49448 -4.7311 7.80971 50.33775 203 85.2)"/><path fill="#fff" d="M178.5 6.6l10.4-13.4 38.6 30.2-10.4 13.4z"/><path fill="#0d0f08" d="M19.6 143.9L-16-6.9l52.7 96.7 14.7 3.6z"/><ellipse cx="67" cy="214" fill="#dce5e9" rx="146" ry="3"/><path fill="#705749" d="M140 32l10-21 56 20z"/><circle r="1" fill="#63655a" transform="matrix(-25.19078 14.66139 -25.64908 -44.06954 158 183.2)"/><circle r="1" fill="#1c1e15" transform="matrix(-5.64366 -8.35574 32.05305 -21.64938 166.5 99.2)"/><circle r="1" transform="matrix(-15.70841 -42.26126 19.10814 -7.10245 106 73.5)"/><ellipse cx="112" cy="201" fill="#cfd4d4" rx="145" ry="2"/><path fill="#e7ad8a" d="M138-4.4l-40.7 34L76.1 4.5l40.6-34z"/><path fill="#fffed6" d="M155 39h7v53h-7z"/><path fill="#5b5546" d="M-16 151l10.8 72.3 10.5-30.9 69.2-67.6z"/><ellipse cx="163" cy="239" fill="#5a4d38" rx="189" ry="6"/><ellipse cx="136" cy="222" fill="#534531" rx="177" ry="5"/><path fill="#855a40" d="M48 2.5L52.2 22-30 39.5-34.2 20z"/><ellipse cx="71" cy="194" fill="#4f4230" rx="192" ry="4"/><ellipse cx="111" cy="189" fill="#d0d4d6" rx="87" ry="2"/><path fill="#e9eff3" d="M187 179.9v1L31 178v-1z"/><path fill="#ffddb0" d="M58 17h8v90h-8z"/><path fill="#483728" d="M48 204h118v8H48z"/><path fill="#ffe3bc" d="M132 7h5v132h-5z"/><path fill="#3f1600" d="M96 113l-28 21 53 1z"/><ellipse cx="149" cy="255" fill="#685d4b" rx="130" ry="3"/><path fill="#5b2e1e" d="M43 13h6v99h-6z"/><ellipse cx="107" cy="170" fill="#c4c8c8" rx="78" ry="2"/><ellipse cx="117" cy="162" fill="#c4c7c9" rx="67" ry="2"/><ellipse cx="180" cy="248" fill="#d9e5eb" rx="201" ry="3"/><ellipse cx="78" cy="184" fill="#4e4232" rx="129" ry="4"/><path fill="#7f5434" d="M137.9 46.2L83.3 15.7 60.1 50.6l49.1-38.7z"/><ellipse cx="156" cy="214" fill="#dae1e3" rx="135" ry="2"/><ellipse cx="121" cy="174" fill="#4e4334" rx="114" ry="4"/><path fill="#939485" d="M165 53h11v23h-11z"/><path fill="#f7dcc9" d="M35 34h7v28h-7z"/><circle r="1" fill="#8a8773" transform="matrix(15.5984 8.25942 -20.79066 39.26443 35.3 175.6)"/><ellipse cx="66" cy="166" fill="#403527" rx="184" ry="3"/><circle cx="76" cy="118" r="5" fill="#ffffb5"/><path fill="#0b0000" d="M69 51h10v63H69z"/><path d="M171 34h25v19h-25z"/><ellipse cx="110" cy="148" fill="#f5fcff" rx="57" ry="1"/><circle r="1" fill="#493c2f" transform="matrix(-101.48032 .17712 -.00365 -2.0887 95 158.7)"/><path fill="#603e2e" d="M138.8 134.3l4.4-82.8 4 .2-4.4 82.8z"/><ellipse cx="188" cy="163" rx="2" ry="43"/><path fill="#c68f3d" d="M93.5 123.7l20.3 3.7-4.5-8.9-12.7 26.2z"/><ellipse cx="92" fill="#c18153" rx="112" ry="5"/><path fill="#b7927a" d="M159.9 131.1l-15.6-11.3-4.2 19.1 32.4-2z"/><path fill="#593624" d="M155 33l11-25-16 7z"/><ellipse cx="110" cy="151" fill="#3f3326" rx="116" ry="2"/><ellipse cx="30" cy="115" fill="#2d271c" rx="33" ry="23"/><path fill="#b58d6a" d="M153.3-1.3l49.4 36.5-19.2-5.2 21.5-7.2z"/><ellipse cx="125" cy="142" fill="#edfbff" rx="38" ry="1"/><path fill="#ead8ca" d="M141 40.6l-29.8-25-49.9-9.9 79.4 1.4z"/><path fill="#d3ddde" d="M92 154h75v2H92z"/><path fill="#a26a4f" d="M57.2-16l1.1 125.1-12.9-2 2.7-77.8z"/><path fill="#efceb3" d="M28.4-3.6L-2 21l-4.4-5.4L24-9z"/><path fill="#d7dbdb" d="M163 29l-3.5-5 15.6-11 3.4 5z"/><path fill="#29271f" d="M58 139h133v2H58z"/><path fill="#0f0300" d="M77 37h53v56H77z"/><path fill="#23261c" d="M135 108h55v11h-55z"/><ellipse cx="92" cy="145" fill="#433e34" rx="72" ry="2"/><ellipse cx="99" cy="137" fill="#e3edf2" rx="60" ry="1"/><path fill="#0b0f0a" d="M161 75h12v32h-12z"/><path fill="#b07a5f" d="M143 18h13v88h-13z"/><ellipse cx="98" cy="197" fill="#3c2f25" rx="51" ry="2"/><path fill="#fdf7e6" d="M219 31.7L139.8-16 163.9.1 219 7.3z"/><path fill="#8c8569" d="M0 222h39v7H0z"/><circle r="1" fill="#7d400a" transform="matrix(-2.10895 -8.8652 13.61066 -3.23786 86.9 104.2)"/><path d="M142 3L130-8l28-8z"/><ellipse cx="30" cy="233" fill="#ababa5" rx="162" ry="2"/><ellipse cx="164" cy="205" fill="#6a6152" rx="167" ry="4"/><path fill="#fffff8" d="M164 49l-5 15-4-33z"/><path fill="#b8aca0" d="M63 96h4v54h-4z"/><path fill="#745030" d="M67 37h3v43h-3z"/><path fill="#282219" d="M167 23.5l6 5.9-13.3 6.7 10-24.8z"/><path fill="#58361f" d="M124.7 24.5l-17.9-5.4 21.9 28.5 3.3-.3z"/><path d="M104 131h20v5h-20z"/><path fill="#4e2d0f" d="M17 5h15v7H17z"/><path d="M36 42L17 61 6 30z"/><ellipse cx="113" cy="200" fill="#cccfd2" rx="54" ry="2"/><path fill="#dadbcc" d="M171.9 76.4l-14.5-3.9.7-2.9 14.5 3.9z"/><path fill="#80654c" d="M159.4 8.6l26.8.3-17.7 25.2 33.1-7.7z"/><ellipse cx="98" cy="169" fill="#f5fcff" rx="47" ry="1"/><ellipse cx="124" cy="228" fill="#d1e0ed" rx="43" ry="2"/><path fill="#847d75" d="M45 215h101v4H45z"/><path fill="#f2cfb9" d="M66 33L50 7l42-4z"/><path fill="#857966" d="M6 234h60v13H6z"/><path fill="#5d533d" d="M0 212h44v2H0z"/><ellipse cx="124" cy="243" fill="#38322b" rx="55" ry="2"/><ellipse cx="100" cy="154" fill="#e8edf0" rx="42" ry="1"/></g></g></svg>