<svg xmlns="http://www.w3.org/2000/svg" viewBox="0 0 1000 667"><defs/><filter id="prefix__a"><feGaussianBlur stdDeviation="12"/></filter><rect width="100%" height="100%" fill="#555354"/><g filter="url(#prefix__a)"><g transform="translate(2 2) scale(3.90625)"><circle r="1" fill="#eafee4" fill-opacity=".5" transform="matrix(-211.73976 -117.36927 71.42577 -128.8555 156.9 45.4)"/><circle r="1" fill="#653d00" fill-opacity=".5" transform="rotate(90.3 -20.2 79) scale(24.7811 29.16761)"/><circle r="1" fill="#00daaf" fill-opacity=".5" transform="rotate(82.4 73.7 115.1) scale(16.73002 40.33423)"/><circle r="1" fill="#ffdace" fill-opacity=".5" transform="rotate(-78.8 130.8 -71.3) scale(26.48377 124.34441)"/><circle r="1" fill="#737b76" fill-opacity=".5" transform="rotate(-169.9 63 71.8) scale(247.21484 28.58414)"/><circle cx="240" cy="82" r="51" fill="#b9cdd5" fill-opacity=".5"/><circle r="1" fill="#ced8db" fill-opacity=".5" transform="rotate(68.1 63.5 101.6) scale(19.43101 71.24477)"/><circle r="1" fill="#00c3a5" fill-opacity=".5" transform="matrix(34.2576 -13.30073 5.95746 15.34414 181.9 27)"/><circle cx="61" cy="99" r="22" fill="#7b5b00" fill-opacity=".5"/><circle r="1" fill="#7c7659" fill-opacity=".5" transform="rotate(-116.2 10.6 7.1) scale(22.1991 37.66461)"/><circle r="1" fill="#fbc8b2" fill-opacity=".5" transform="matrix(-17.82944 12.39178 -30.58844 -44.011 133 57)"/><ellipse cx="158" cy="148" fill="#4f1000" fill-opacity=".5" rx="2" ry="50"/><ellipse cx="196" cy="76" fill="#705838" fill-opacity=".5" rx="3" ry="31"/><ellipse cx="181" cy="24" fill="#00c8a6" fill-opacity=".5" rx="45" ry="10"/><circle r="1" fill="#7a817b" fill-opacity=".5" transform="matrix(-16.11766 10.1106 -45.77737 -72.97538 24.3 113.6)"/><circle r="1" fill="#ccbabf" fill-opacity=".5" transform="rotate(77.3 72.7 143.1) scale(4.08976 31.26839)"/><path fill="#ecad11" fill-opacity=".5" d="M-16-11l83-5-78 35z"/><path fill="#b4b2b5" fill-opacity=".5" d="M224 29l-44-43 91 3z"/><path fill="#5d6760" fill-opacity=".5" d="M223.8 166l39.4-30.8 21 26.8-39.4 30.8z"/><path fill="#7a6100" fill-opacity=".5" d="M31.5 79.2l49.1 19.3 14.9 10.6-46.6 13.6z"/><path fill="#a4acb0" fill-opacity=".5" d="M155 117l-40 20-56-76z"/><circle r="1" fill="#f8c0a5" fill-opacity=".5" transform="matrix(13.9835 -19.10603 27.34318 20.01218 108 55.8)"/><circle r="1" fill="#c6d3d4" fill-opacity=".5" transform="matrix(-27.97703 -23.4127 14.90536 -17.81118 232 61.5)"/><circle r="1" fill="#a5afb1" fill-opacity=".5" transform="matrix(-36.27892 -23.01215 15.28424 -24.09578 199.4 124)"/><path fill="#67410f" fill-opacity=".5" d="M193 87h3v31h-3z"/><circle r="1" fill="#83553b" fill-opacity=".5" transform="rotate(24.4 -126.4 239.2) scale(81.29364 1.08986)"/><circle cx="34" cy="54" r="30" fill="#99a0a1" fill-opacity=".5"/><path fill="#00b08a" fill-opacity=".5" d="M160 44V27l58 2z"/><path fill="#664506" fill-opacity=".5" d="M59.2 88.1l5.8 6.1L53.8 52l4.4 35.6z"/><path fill="#e9b095" fill-opacity=".5" d="M186.7 116.3L48.1 55.6l-3.4 6.3 31.1-18.8z"/><path fill="#99a2a0" fill-opacity=".5" d="M68 116h88v31H68z"/><path fill="#a7bec0" fill-opacity=".5" d="M48 8l91 28-5-34z"/><path fill="#684624" fill-opacity=".5" d="M197 38h3v35h-3z"/><ellipse cx="169" cy="61" fill="#f7d1be" fill-opacity=".5" rx="27" ry="14"/><circle r="1" fill="#a5afac" fill-opacity=".5" transform="rotate(48 3.7 87.3) scale(18.00517 50.26891)"/><path fill="#828f91" fill-opacity=".5" d="M35.7 124.8l12.8-10.5L-16 25.2l27.6-7.5z"/><path fill="#00caab" fill-opacity=".5" d="M156 47l-20-26 67-16z"/><path fill="#8f968e" fill-opacity=".5" d="M216.2 22.7L198.8 6.3l50.4 10.3L271 45.8z"/><path fill="none" stroke="#411e00" stroke-opacity=".5" stroke-width=".5" d="M55.3 60.4q84 35.9 102.2 46.1"/><path fill="#bcc7c7" fill-opacity=".5" d="M198 59h46v50h-46z"/><path fill="#c3cecf" fill-opacity=".5" d="M108-14l23 35 67-17z"/><path fill="#a4bfbf" fill-opacity=".5" d="M170 47.6l-27.5-15.2 51.4 29.2 4.5-24.2z"/><path fill="#b3bdbb" fill-opacity=".5" d="M195 92h61v44h-61z"/><path fill="#684d00" fill-opacity=".5" d="M73.8 95.2l-9.3 14.4 29.5 1.3-18.8-23.3z"/><path fill="#97a09d" fill-opacity=".5" d="M159 121h28v49h-28z"/><circle r="1" fill="#5f624f" fill-opacity=".5" transform="matrix(8.14003 -27.03513 13.06188 3.9328 14.2 147)"/><path fill="#9fa4a0" fill-opacity=".5" d="M56.7 76.7L-5 103l-11.7-27.6L45 49z"/><path fill="#74d4c2" fill-opacity=".5" d="M153 24h7v20h-7z"/><path fill="#481200" fill-opacity=".5" d="M196 60h1v24h-1z"/><circle r="1" fill="#70786b" fill-opacity=".5" transform="rotate(7.3 -1290 565.1) scale(41.95806 18.72332)"/><path fill="#828f91" fill-opacity=".5" d="M11 12l65-28-92 99z"/><circle r="1" fill="#b1bebb" fill-opacity=".5" transform="rotate(129.6 66 89.8) scale(26.18743 7.97262)"/><path fill="#eed0bf" fill-opacity=".5" d="M88 31h47v25H88z"/><path fill="#9fadae" fill-opacity=".5" d="M98 105l-36 17 3 11z"/><path fill="#a2866c" fill-opacity=".5" d="M168.9 96.7l-23.4 25.6L167 96.1l32.6-35.7z"/><path fill="#00cead" fill-opacity=".5" d="M165.3 25.6l39.3-15 6 15.8-39.2 15z"/><path fill="#7e6500" fill-opacity=".5" d="M62 110l-15 16 28-12z"/><circle r="1" fill="#b5c8c8" fill-opacity=".5" transform="matrix(47.44375 1.90554 -.23891 5.9484 229.4 0)"/><path fill="#c7cece" fill-opacity=".5" d="M191.5 92.3l6-56.7 1 .1-6 56.7z"/><path fill="#66756f" fill-opacity=".5" d="M155.3 159.5L113.2 183l10.7 1 45.8-8.4z"/><path fill="#b0b8b7" fill-opacity=".5" d="M139 98l-35-13 42 50z"/><path fill="#8b6e04" fill-opacity=".5" d="M38.8 98.6l-4.7-11 33.1-14.2 4.7 11z"/><path fill="#f1c1a9" fill-opacity=".5" d="M158 103l36-39-33-1z"/><circle r="1" fill="#00744c" fill-opacity=".5" transform="matrix(24.73016 -7.18477 .279 .9603 176.6 41)"/><path fill="#78583a" fill-opacity=".5" d="M-16 24L20.9 8.4l24.2-13-58.6 25.9z"/><circle r="1" fill="#7d837d" fill-opacity=".5" transform="matrix(37.95723 12.5441 -3.87664 11.73034 13.7 113.5)"/><path fill="#c5cecd" fill-opacity=".5" d="M271 65l-69-31-6 62z"/><path fill="#2e6142" fill-opacity=".5" d="M198.1 59.4l-27-32.2.8-.6 27 32.2z"/><path fill="#7b4904" fill-opacity=".5" d="M159.4 157.5l-1.8-53h1l1.8 53z"/><path fill="#00c5a5" fill-opacity=".5" d="M226.1 27l-64.4 15.5 5-7.1L137.3 22z"/><ellipse cx="84" cy="155" fill="#828c87" fill-opacity=".5" rx="19" ry="28"/><path fill="#5c2f10" fill-opacity=".5" d="M33.8-14.2L41.2 24l-1 .2L32.8-14z"/><path fill="#5a2f00" fill-opacity=".5" d="M191.2 117.7l6.6-47.5 1 .1-6.6 47.5z"/><path fill="#6f7d7c" fill-opacity=".5" d="M13.5 14.4l5.4 20.3L.5 39.6l-5.4-20.3z"/><path fill="#5f3208" fill-opacity=".5" d="M197.8 65l-1-.1 3.4-31.9 1 .1z"/><path fill="#674b10" fill-opacity=".5" d="M69.7 101.3l-1 .4-16.4-43 1-.4z"/><ellipse cx="157" cy="124" fill="#311600" fill-opacity=".5" rx="1" ry="21"/><path fill="#a8b0ad" fill-opacity=".5" d="M252 114l-58 22v-30z"/><path fill="#8e9998" fill-opacity=".5" d="M88 100L75 82l20-3z"/><path fill="#828c86" fill-opacity=".5" d="M221.1 161.3l-46.3-30.4 42.3 54.1 53.9-19.6z"/><circle r="1" fill="#939b97" fill-opacity=".5" transform="rotate(-140.8 82.6 47) scale(37.8714 12.81884)"/><path fill="#919893" fill-opacity=".5" d="M53.8 128.4l-4.4 2.4-27.2-51.2 4.4-2.4z"/><path fill="#bfc9c8" fill-opacity=".5" d="M241 49l-45 47 5-59z"/><path fill="none" stroke="#644024" stroke-opacity=".5" stroke-width=".5" d="M90.7 74q43.1 23.6 71.3 31"/><path fill="#cdccc9" fill-opacity=".5" d="M203 64l-24-23-17 5z"/><path fill="#e2b299" fill-opacity=".5" d="M161 103l-19-32H87z"/><path fill="#9aa29a" fill-opacity=".5" d="M221.1-9.4l12.4-6.6-26.2 28.4 29.7 31z"/><path fill="#b4c1c1" fill-opacity=".5" d="M89 20l24-32 35 52z"/><path fill="#5c6357" fill-opacity=".5" d="M241.8 158.4l13.2-13.7 7.2 7-13.2 13.6z"/><path fill="#4b2d00" fill-opacity=".5" d="M157 108h2v52h-2z"/><path fill="#c5cdcd" fill-opacity=".5" d="M220.8 132.8l4.2-1.4 46-27.2-10.3 23.4z"/><path fill="#2e795f" fill-opacity=".5" d="M209.7 33.7L190.3 38l14.7-5.8 20.2-4.3z"/><path fill="#360f00" fill-opacity=".5" d="M153 103l-.5.9-7.5-5 .5-.8z"/><path fill="#b38b6b" fill-opacity=".5" d="M202.4 59l-18 18.7-.8-.7 18-18.7z"/><circle r="1" fill="#84908b" fill-opacity=".5" transform="matrix(-3.96157 -5.41152 15.24273 -11.15863 170.2 160.9)"/><path fill="#a9b3af" fill-opacity=".5" d="M81.2 14.1l19.9 7.4L33.7 73l22.2-34.4z"/><path fill="#4e5042" fill-opacity=".5" d="M16 133L1 183l-17-11z"/><path fill="#00bc9c" fill-opacity=".5" d="M142 20.5l13-1 1 14-13 1z"/><path fill="#9babac" fill-opacity=".5" d="M38 18l-20 3 18-11z"/><path fill="#4a7049" fill-opacity=".5" d="M139 27l16.7 21.3-.8.6-16.6-21.2z"/></g></g></svg>