<svg xmlns="http://www.w3.org/2000/svg" viewBox="0 0 933 1400"><defs/><filter id="a"><feGaussianBlur stdDeviation="12"/></filter><rect width="100%" height="100%" fill="#313547"/><g filter="url(#a)"><g fill-opacity=".5" transform="translate(2.7 2.7) scale(5.46875)"><circle r="1" fill="#ccc5ad" transform="matrix(-78.56805 30.47454 -61.11456 -157.56273 93.7 93.5)"/><circle r="1" fill="#000012" transform="rotate(86 17.1 109.5) scale(20.11579 79.40752)"/><circle r="1" fill="#fff" transform="matrix(-1.33706 -12.71027 72.20005 -7.59511 81.3 0)"/><circle r="1" fill="#c8b6a0" transform="matrix(23.01663 17.47057 -28.08938 37.0064 58.3 195)"/><path fill="#dfe2f2" d="M133.6 28.4l3.5 32.8-60.7 6.4-3.5-32.8z"/><circle r="1" fill="#351611" transform="rotate(-134.7 50 68.3) scale(38.77915 17.49997)"/><path fill="#fff7d7" d="M73 105h22v74H73z"/><path fill="#d4e1aa" d="M134 107h36v74h-36z"/><ellipse cx="123" cy="18" fill="#234089" rx="71" ry="12"/><path fill="#f2ffff" d="M42 27l102-38L9-16z"/><ellipse cx="123" cy="177" fill="#2d2f2b" rx="7" ry="112"/><circle r="1" fill="#000007" transform="rotate(22.7 -264.4 53) scale(18.27183 21.56215)"/><circle r="1" fill="#cfd1ad" transform="rotate(140.7 -6.1 40.3) scale(11.88418 51.69511)"/><circle cx="59" cy="226" r="10" fill="#fffffd"/><circle r="1" fill="#564c25" transform="matrix(-10.77233 1.77683 -5.90745 -35.81498 158.2 191)"/><ellipse cx="99" cy="160" fill="#170000" rx="5" ry="25"/><ellipse cx="107" cy="176" fill="#f9dcb1" rx="5" ry="42"/><path fill="#4b5668" d="M-8.2 20.7L12.3 1.6l81.9 87.7-20.5 19.1z"/><path fill="#616e91" d="M55 12l53-6-63 100z"/><path fill="#fff1f9" d="M55 188l-21-2 2-16z"/><circle r="1" fill="#46454b" transform="matrix(-32.42105 -14.50264 5.99726 -13.40705 101.2 238)"/><path fill="#fbffff" d="M135 114h25v15h-25z"/><ellipse cx="158" cy="230" fill="#cdaa92" rx="34" ry="12"/><path fill="#fff2d0" d="M86 164.4l20.2-41.5-13.5 4.4L78 147.8z"/><ellipse cx="54" cy="167" fill="#513c33" rx="9" ry="39"/><path fill="#ffc09c" d="M12 208h5v21h-5z"/><path fill="#161f32" d="M61 66h109v17H61z"/><path fill="#597450" d="M153.4 153.6l-6.2 35.4-3.5-53.5 33.6-21.1z"/><circle cx="155" cy="255" r="19" fill="#7e5239"/><path fill="#aee3ff" d="M98 227h15v10H98z"/><circle r="1" fill="#feffff" transform="matrix(-.41126 -5.28413 89.86914 -6.9944 115.6 0)"/><path fill="#a4995a" d="M-2.2 199.2L3.4 178l11.3-58.8L-16 208z"/><path fill="#c1bcb9" d="M118 63l-53 4 6-35z"/><path fill="#c4b8a9" d="M99.5 200.7L94 170l-33.4 52.5 54.6-17.2z"/><ellipse cx="34" cy="103" fill="#aea98b" rx="17" ry="28"/><path fill="#d2737f" d="M17 169l32-15-2 17z"/><path fill="#0a0919" d="M128.5 93.9l9 10.7-16 13.5-9-10.7z"/><path fill="#22171c" d="M72.4 92.4l-25.8.4 9.8 12.3 10.3 7.6z"/><path fill="#383034" d="M30.2 231.7l-16.5-22.6 12.1-8.8 16.5 22.6z"/><circle r="1" fill="#4d2d32" transform="rotate(85.9 -27.4 195) scale(4.90327 75.56319)"/><path fill="#9fa099" d="M133 29h31v33h-31z"/><path fill="#a4a38c" d="M87 200l-17-80-16 74z"/><path fill="#0c080b" d="M33 266l-4-23 82 1z"/><ellipse cx="129" cy="182" fill="#888f61" rx="8" ry="47"/><ellipse cx="139" cy="148" fill="#ebe4d0" rx="5" ry="35"/><path fill="#201a17" d="M15 124l47 23-46 15z"/><path fill="#322927" d="M122 217l-39 16-5-12z"/><path fill="#2c1119" d="M98 171h7v26h-7z"/><path fill="#080f1f" d="M21.1 115.5L10.2 84.2-16 107l4.5 12.4z"/><path fill="#b7af95" d="M71 105h37v35H71z"/><path fill="#203053" d="M114.4 17.9l24.7-15.7 39 8.1-33.8 13.1z"/><path fill="#d2dfd8" d="M19-16l32 52V6z"/><path fill="#e6e3c6" d="M57 63h4v25h-4z"/><circle r="1" fill="#05090c" transform="matrix(-22.10154 -3.5297 1.9915 -12.46996 0 241)"/><path fill="#2b282d" d="M100 117h29v7h-29z"/><path fill="#c6c29f" d="M142.4 212.4l-5.4-47.8 1.4 57.8 46.6 35.1z"/><path fill="#353235" d="M145 61h25v41h-25z"/><path fill="#121926" d="M51 45h4v41h-4z"/><path fill="#f8f5cc" d="M148 155l21 6-5-18z"/><path fill="#f5f5d8" d="M166.5 101.7l-5.3.8-15.8.3 14 6.1z"/><path fill="#553e38" d="M63 195l-40-13 41 33z"/><path fill="#e8e2d9" d="M12.5 203.3v3l-19 .4v-3z"/><path fill="#0c0d0f" d="M-16 199l46-30-11 36z"/><path fill="#bcb2b6" d="M46 220l-23-26 17-2z"/><path fill="#7e735f" d="M34 234h33v8H34z"/><path fill="#a8a28f" d="M39.9 93.6l66.6-7.3-82.3 4-.4 50.6z"/><path fill="#c7c9ad" d="M26 88l-42-10 15-29z"/><path fill="#736d6a" d="M93.9 229.1l16 40-38.5-43.3 34.5 12.8z"/><path fill="#989885" d="M7.9 116.5l3 16 39.7-69.6.2 52.3z"/><path fill="#495b97" d="M52 12h59v20H52z"/><path fill="#151e2f" d="M112 235l35 13-51-4z"/><ellipse cx="115" cy="187" fill="#f8f5d4" rx="1" ry="34"/><circle r="1" fill="#e9fff1" transform="rotate(-31.6 311 46.6) scale(7.46042 1)"/><circle r="1" fill="#748a9d" transform="matrix(22.26514 9.93146 -4.1104 9.21502 14.4 14.5)"/><path fill="#37434d" d="M165 62.3l-.8-78.3 15.4 89.9-85.5-7.8z"/><path fill="#e5e8d5" d="M67.3 228.8l3.5-13.1-16.3 2.4-6.9 15.9z"/><path fill="#fdffff" d="M40 186h15v3H40z"/><path fill="#1c1e25" d="M108 143h14v6h-14z"/><ellipse cx="145" cy="85" fill="#7b7f7e" rx="50" ry="2"/><ellipse cx="105" cy="146" fill="#dadbbc" rx="3" ry="26"/><path fill="#fff" d="M185 92l-18 14 6 44z"/><path fill="#d5d8cb" d="M52.5 42.2l-6 49.7-1-.1 6-49.7z"/><path fill="#483c40" d="M119 204h20v21h-20z"/><path fill="#cac9d5" d="M90.1 40l22.9-5.7 17.1 29.8-38.8 1z"/><path fill="#aa735b" d="M24 185.6l4.9 15.5-21.6 27.5 12.8-5.1z"/><path fill="#300f2a" d="M46.3 184.8l8.7-29-4.1 29.9L38.6 158z"/><path fill="#cbc4a6" d="M149 199l-12-14-16 1z"/><ellipse cx="116" cy="231" fill="#9da296" rx="2" ry="29"/><path fill="#9a8c6d" d="M24.3 118.8l31.3 19.6-10.3-65.5-17.5 78.7z"/><path fill="#857a6f" d="M54.6 222.7l14.6-38.5-33.8 38.1-44.7-22.9z"/><ellipse cx="64" cy="53" fill="#223047" rx="3" ry="17"/><path fill="#fff" d="M38 171h4v12h-4z"/><path fill="#857d82" d="M-16 257l36.3-3.5 4.2-7.8 17 25.3z"/><path fill="#e8ffff" d="M135 237h6v7h-6z"/><path fill="#373e3d" d="M39.6 218.9l-51.5 33.2 63.7-29L37.3 245z"/><path fill="#424857" d="M97 76.5l-40.2-.4 31.6-17-6.5-10.6z"/><path fill="#fffff9" d="M54.9 26.9l-4.4 4L17.1-4.8l4.4-4z"/><path fill="#eae142" d="M161 161h5v18h-5z"/><path fill="#f3ded1" d="M73 177h4v41h-4z"/><path fill="#3f473e" d="M141.2 155.7l4.7-2.3-14.9-.1-18.5 2.7z"/></g></g></svg>