<svg xmlns="http://www.w3.org/2000/svg" viewBox="0 0 933 1400"><defs/><filter id="a"><feGaussianBlur stdDeviation="12"/></filter><rect width="100%" height="100%" fill="#432f2f"/><g filter="url(#a)"><g fill-opacity=".5" transform="translate(2.7 2.7) scale(5.46875)"><circle r="1" fill="#fffffa" transform="matrix(156.27963 64.32478 -23.78468 57.78585 132.8 47)"/><ellipse cx="85" cy="93" fill="#1b2924" rx="31" ry="59"/><ellipse cx="157" cy="49" fill="#e8e6ca" rx="46" ry="96"/><circle r="1" fill="#b0c8b4" transform="matrix(8.3462 -103.73358 20.20117 1.62535 39.3 46)"/><ellipse cx="169" cy="226" fill="#a89ca7" rx="16" ry="76"/><path fill="#575551" d="M147 60L18 88l134 48z"/><circle r="1" fill="#000009" transform="matrix(-31.05853 -40.04042 29.24034 -22.68113 19.8 218.5)"/><path fill="#fff" d="M113 0h24v68h-24z"/><path fill="#4e1807" d="M138 45.1l-1.4 55.9 10-22.5-2.3-51z"/><circle r="1" fill="#42603c" transform="matrix(8.19152 88.3019 -17.10434 1.58672 0 30.6)"/><circle r="1" fill="#fffff6" transform="matrix(-3.99848 -31.9884 18.8457 -2.35567 164.8 83.3)"/><path fill="#fff9fe" d="M18 24h42v24H18z"/><path fill="#a08470" d="M83.1 159.7l-42.5-17.1 17.4 56 7.2-9.1z"/><path fill="#ffffe8" d="M68 0h18v28H68z"/><path fill="#ffffed" d="M135 58l5 47-15-11z"/><ellipse cx="133" cy="203" fill="#59514a" rx="59" ry="23"/><path fill="#1d6008" d="M56.9 10.2l-2.2-5-62.3-19.7L29.2 7.4z"/><circle r="1" fill="#876677" transform="matrix(75.00136 -7.56538 1.5087 14.95692 114.6 255)"/><circle r="1" fill="#110103" transform="matrix(-7.5676 -5.68356 4.46227 -5.94146 119.2 76.7)"/><path fill="#fff1de" d="M19 31h8v55h-8z"/><circle r="1" fill="#12242c" transform="matrix(2.96108 -7.62937 93.25636 36.1943 22.5 108.2)"/><ellipse cx="115" cy="131" fill="#152b45" rx="18" ry="35"/><path fill="#fff" d="M180 107l-16 71 21 22z"/><circle r="1" fill="#180d14" transform="matrix(24.8711 2.42954 -.45337 4.6411 169 132.2)"/><path fill="#a1a2b5" d="M184.8 141.5l-42 1.8-2 25.2-13.4-37.3z"/><path fill="#a29262" d="M90.6 5.9l60.3 15-39.8 3-.4 68.8z"/><path fill="#0e0a0d" d="M152.1 177.8l-1.3-19 .6 46.8 27.4-15.2z"/><path fill="#5b5242" d="M71 32h32v81H71z"/><path fill="#fbffff" d="M190.4-13.9l2 23-54.8 4.8-2-23z"/><path fill="#ffd5c4" d="M77 166l-12 9v16z"/><ellipse cx="64" cy="126" fill="#070711" rx="16" ry="28"/><path fill="#f49557" d="M139 90h14v30h-14z"/><path fill="#878472" d="M51.3 90.1l43.5 7.1-5.1 24.9-18.6-19.8z"/><path fill="#4f3e39" d="M67 143l-21 89-11-101z"/><path fill="#62544c" d="M148.9 227.2l-48.9-25 85-37.9-50.2 5.1z"/><path fill="#78939a" d="M62 175.6l-34.6 4.6-1-5.8 27.9-3.2z"/><path fill="#57614b" d="M14-16l-30 39 40 115z"/><path fill="#a08b98" d="M168 254l17-79-39 66z"/><path fill="#20322a" d="M45.3 73.7l-46.8 74 28.3-24.2 5-48.1z"/><circle r="1" fill="#f8f6ed" transform="rotate(135 47.1 52.1) scale(19.8831 8.12775)"/><path fill="#968c82" d="M26 46h19v29H26z"/><path fill="#fff" d="M23.8 26.3l47.8 14.6-1.4 4.8-47.8-14.6z"/><ellipse cx="50" cy="39" fill="#fff" rx="3" ry="29"/><ellipse cx="97" cy="233" fill="#0d131b" rx="60" ry="6"/><path fill="#fff" d="M69 51h2v17h-2z"/><path fill="#0e3613" d="M52 76h25v12H52z"/><path fill="#430521" d="M58 266l83-24 44 27z"/><circle r="1" fill="#2a1920" transform="matrix(3.36773 6.75268 -13.84203 6.90337 85.5 55.9)"/><path fill="#9bb5c3" d="M80 192l3 14-11-3z"/><circle r="1" fill="#0b191c" transform="rotate(-15.7 732 64) scale(26.06252 110.07462)"/><path fill="#1f1c1f" d="M130 147l27 76-95-123z"/><path fill="#73897c" d="M51 0h13v35H51z"/><circle r="1" fill="#b5cc93" transform="matrix(-11.672 10.13965 -19.67931 -22.65335 163.1 42.8)"/><path fill="#9d796a" d="M145.7 174l-10-17.2 10.3 31.4 15.6 36.2z"/><circle r="1" fill="#88a1d8" transform="rotate(97.8 18.3 97.3) scale(4.15588 16.06508)"/><ellipse cx="97" cy="15" fill="#a7925f" rx="15" ry="31"/><path fill="#fffad0" d="M90.4 8.3l-23.8 3.9 16.3 24.3-3.3-.3z"/><path fill="#102021" d="M55 160l9 9.7-43.8-2.8 15.4-15z"/><path fill="#fffff3" d="M147.2 43.1l7.6 70.9 1.8-.9 25.2 8.9z"/><path fill="#fff" d="M164 172l-3 9 24-4z"/><ellipse cx="168" cy="169" rx="8" ry="3"/><circle r="1" fill="#38475c" transform="matrix(8.19636 6.6874 -13.60337 16.67288 123.6 129.5)"/><path fill="#fff" d="M112 22h14v35h-14z"/><path fill="#7a6e51" d="M-7.7 141.2l62.2 5.6 5.1-5.8 6.8 19.8z"/><path fill="#c9c0b8" d="M73 39L51 58l9 4z"/><circle r="1" fill="#b2c0be" transform="rotate(179.1 6.9 8.7) scale(49.45157 2.88551)"/><path fill="#c2cdb2" d="M78 80l14 11-12-18z"/><path fill="#462422" d="M138 43h7v50h-7z"/><path fill="#4a5255" d="M84.4 246l-41.5 7.8 32-24.1 53.8 41.3z"/><path fill="#24201f" d="M116.8 153.6l-22.5 58.1 16-.6-50.5 32.3z"/><path fill="#0f0811" d="M-7 205l36 8 40-44z"/><path fill="#f2eed7" d="M129 102V38h6v64z"/><path fill="#627061" d="M6.6 113.8l19.6-3.6 21.4 48.1L49.2 66z"/><path fill="#fff" d="M122 12l-9 2 2-30z"/><path fill="#ebd9b8" d="M80.2.9l1.9 43.5 4.7 8.1-6.8-3.9z"/><path fill="#aec2d5" d="M133 135h34v6h-34z"/><path fill="#c2ac9b" d="M69 96h28v4H69z"/><circle r="1" fill="#d2d3b2" transform="rotate(-99.9 14.7 -2.3) scale(17.12634 3.3167)"/><path fill="#0e080b" d="M161 149h2v46h-2z"/><path fill="#ffbdb1" d="M83.4 164.8l-1.8 1-5-8.6 1.8-1z"/><path fill="#ed9985" d="M56 200l8-16h-8z"/><circle r="1" fill="#8e7e75" transform="matrix(-.31694 -4.4531 23.36987 -1.66332 169 155.8)"/><path fill="#3b471d" d="M9.5 34.2l20.2-31 .8.6-20.2 31z"/><path fill="#7f232c" d="M42 187h7v35h-7z"/><path fill="#d9b090" d="M140.2 100.4l10.8 31.2-29.3-45.4 19.9-1.9z"/><path fill="#303431" d="M76.4 96.8l-1.7-58.2.9-12.2 5 7.4z"/><path fill="#190c13" d="M64 154l36 8-50-50z"/><path fill="#1f1f23" d="M138.9 140.8l4.9 22.7-.2 13.7 14.5-9.2z"/><path fill="#dda798" d="M163.7 250.1l-29.6-13.8 47 13.9 3.9 5.9z"/><path fill="#836b5c" d="M98.7 223.9l47.8 1 20.7 20.2-20.4-29.7z"/><path fill="#5e6c37" d="M-7 59l-.8-.6L51-7l.7.6z"/><ellipse cx="69" cy="34" fill="#fff" rx="1" ry="35"/><path fill="#333c30" d="M27.9 84.2l.9-9.3 14.3 9.6-6.5 17.5z"/><path fill="#cfb98e" d="M92 28v-44H60z"/><path fill="#9e9c93" d="M28 39h16v36H28z"/><path fill="#ced8cd" d="M5 108.2l.8-.7 13.1 12.3-.7.7z"/><circle r="1" fill="#192526" transform="matrix(.96227 .27211 -6.8205 24.11918 63.7 69)"/><path fill="#b4a092" d="M25 120h9v26h-9z"/><path fill="#3e4b63" d="M111.8 85.3L95.1 94l-4.7-30.3 20.4 4.4z"/><path fill="#6b5752" d="M96 208l83-5-71-18z"/></g></g></svg>