<svg xmlns="http://www.w3.org/2000/svg" viewBox="0 0 320 320"><defs/><filter id="a"><feGaussianBlur stdDeviation="12"/></filter><rect width="100%" height="100%" fill="#644339"/><g filter="url(#a)"><g fill-opacity=".5" transform="matrix(1.25 0 0 1.25 .6 .6)"><circle r="1" fill="#fff" transform="matrix(217.754 -35.26845 15.02307 92.75524 174.6 94)"/><ellipse cx="62" cy="203" fill="#0d0000" rx="22" ry="80"/><circle r="1" fill="#e1e9ea" transform="rotate(-119.4 119.4 -13.6) scale(46.97147 111.909)"/><circle r="1" fill="#746461" transform="rotate(-108.5 171.7 12.8) scale(66.14417 39.73796)"/><circle r="1" fill="#624229" transform="rotate(-23.6 135 -138.2) scale(22.68839 55.69897)"/><ellipse cx="6" cy="171" fill="#c6b9a3" rx="36" ry="58"/><path fill="#e8dfd4" d="M252 103l-15 131 34-12z"/><circle r="1" transform="matrix(90.1528 11.81501 -2.19433 16.74356 217.1 253)"/><circle r="1" fill="#977a61" transform="rotate(159.6 50.2 14.5) scale(140.71309 12.229)"/><ellipse cx="227" cy="200" fill="#2c1716" rx="13" ry="44"/><path fill="#eed9c6" d="M121.1 241.5l-3.8 17.2-22.2-3.3 15.5-20.5z"/><circle r="1" fill="#f3f2eb" transform="matrix(5.10658 .55475 -1.77855 16.3718 188.8 216.4)"/><path fill="#e9e6e0" d="M108 174h68v19h-68z"/><ellipse cx="14" fill="#0d0401" rx="45" ry="22"/><path fill="#c8c1b6" d="M130 200l-90-70 87 26z"/><circle r="1" fill="#794438" transform="matrix(-4.11773 17.78362 -16.09786 -3.7274 93.2 194.3)"/><ellipse cx="15" cy="79" fill="#75471f" rx="5" ry="35"/><ellipse cx="30" cy="116" fill="#d3d0c1" rx="18" ry="56"/><path fill="#180a06" d="M-12.3 248.8l34.9 17.6 4.1-57.1 96.8 61.7z"/><circle r="1" fill="#dcdadb" transform="matrix(-18.7848 20.3569 -51.99342 -47.97815 213 70.9)"/><path fill="#cdcfc6" d="M84 37h52v31H84z"/><ellipse cx="50" cy="64" fill="#724626" rx="3" ry="124"/><circle r="1" fill="#8d7769" transform="rotate(81.8 5.4 101.4) scale(27.40927 11.19916)"/><circle r="1" fill="#644438" transform="matrix(-16.24972 23.75183 -14.41822 -9.86416 78 22.8)"/><path fill="#d6ceb5" d="M14 33h-30L2 136z"/><path fill="#6a5049" d="M172 154l7 47 65-26z"/><circle r="1" fill="#bab0af" transform="matrix(21.54142 -30.8789 22.41058 15.63383 195.7 113.1)"/><path fill="#bba8a0" d="M182 222h30v14h-30z"/><path fill="#2e1917" d="M128 208h54v39h-54z"/><circle r="1" fill="#2f0e01" transform="matrix(1.83586 26.72725 -6.24621 .42904 0 221.3)"/><circle r="1" fill="#b6aba9" transform="rotate(-79 100.6 -110.6) scale(23.11181 87.66445)"/><circle r="1" fill="#352117" transform="rotate(172.1 20.6 96) scale(13.10971 37.10168)"/><ellipse cx="10" cy="145" fill="#7d522e" rx="2" ry="49"/><ellipse cx="75" cy="132" fill="#997b65" rx="6" ry="53"/><path fill="#ded1b8" d="M52 115h6v34h-6z"/><circle r="1" fill="#513a33" transform="matrix(-4.45501 -12.6479 7.79902 -2.74708 236.2 162.8)"/><path fill="#b28e7f" d="M114 229l-6-42 21 1z"/><path fill="#cdc7b8" d="M50 44L20 33l10 116z"/><path fill="#95694a" d="M25 192h23v24H25z"/><ellipse cx="224" cy="222" fill="#160609" rx="10" ry="17"/><path fill="#2f0d00" d="M63 125l6.8 1.5L65 149l-6.8-1.5z"/><circle r="1" fill="#a58674" transform="matrix(-12.60429 18.47421 -8.53207 -5.82112 247.5 217.7)"/><circle r="1" fill="#e2e2e3" transform="matrix(9.90672 13.4892 -37.18484 27.30923 190.3 57)"/><ellipse cx="150" cy="126" fill="#ccd6d3" rx="25" ry="31"/><path fill="#805029" d="M2 24l18 60-1-61z"/><ellipse cx="63" cy="243" fill="#1c1213" rx="24" ry="57"/><path fill="#bab1a7" d="M11 154h28v40H11z"/><path fill="#ba8966" d="M3 241h28v7H3z"/><path fill="#a29594" d="M133 77l24-15 1-73z"/><path fill="#c2b4a9" d="M222.2 145.7l-22.7 10.5.1 36.4 5.9-27.8z"/><path fill="#d6d5d1" d="M160 62l30 92v-47z"/><path fill="#bebcb5" d="M80 84h47v83H80z"/><path fill="#745a50" d="M116 73l-56-8 39 29z"/><path fill="#a1827a" d="M85.2 189.6l7.9 41.7 1.6-65.9 24.6 4z"/><path fill="#65322c" d="M103.2 184.5l15.2 54.6-24.4 2.5.1-67.4z"/><path fill="#8f7965" d="M157.1 271h16.7-53.3l-1.1-40.9z"/><ellipse cx="227" cy="139" fill="#85716c" rx="23" ry="11"/><path fill="#e1cfc8" d="M11.3 187.6l3.7 9.5 10.5 28.1-10.7-19.3z"/><path fill="#eaddd7" d="M23.3 224.4L22 227l-15.3-7.5L8 217z"/><circle r="1" fill="#cbc1be" transform="matrix(-18.05092 -7.98504 12.6005 -28.48462 245.5 102.4)"/><circle r="1" fill="#cacdc6" transform="matrix(-10.3631 18.85042 -12.62959 -6.94317 123.2 50.7)"/><path fill="#ad9c91" d="M85 28h26v33H85z"/><path fill="#bcad98" d="M54 42h7v62h-7z"/><path fill="#24161a" d="M235 233h21v23h-21z"/><path fill="#3d2015" d="M.4 259.1L-16 199.8l45.9 40-22.9-.3z"/><path fill="#a89589" d="M64 83h52v24H64z"/><ellipse cx="17" cy="132" fill="#9c7b60" rx="2" ry="73"/><path fill="#665049" d="M171.1 220.7l26.1-36.7-34.3-31.2 18.4-13z"/><circle r="1" fill="#6c4b3c" transform="matrix(-1.8451 -30.20812 6.93764 -.42375 73.1 53.1)"/><path fill="#c8c5c3" d="M87 106.5l-.1 60.4-22-21.8 71.1 31.7z"/><path fill="#cac9c8" d="M254.1 192.5l-13.6-8.4 15.4-24.6 13.6 8.4z"/><path fill="#c5bbaf" d="M204 206l6 15 4-6z"/><path fill="#a59797" d="M222.2 82.1l-36.5 25.1 6.8 42.3 18.9-55.7z"/><path fill="#593724" d="M24 191h7v29h-7z"/><ellipse cx="57" cy="161" fill="#704c38" rx="16" ry="15"/><path fill="#ad7f4e" d="M42.5 24l-1 19-22-1 1-19z"/><path fill="#efe4e1" d="M4.9 167.2l1-.1 5.2 49.7-1 .1z"/><path fill="#ded6d4" d="M186 217h10v12h-10z"/><path fill="#68483f" d="M150.6 218.7l44.5-37.2-80.2 37.6-4.2-31z"/><path fill="#48251e" d="M68 181l19 90 4-60z"/><path fill="#745f58" d="M212 144l-21 20 6-25z"/><path fill="#c6bfb3" d="M-7.9 39.3l-.4 194.6L9.3 101.5 11.6 49z"/><path fill="#c19371" d="M36 205l-7 8 19 1z"/><path fill="#ccbaab" d="M102.3 271l-1-25.1 20.9-3.1-7.5 15.1z"/><path fill="#baaaa1" d="M91 71V29L78 69z"/><path fill="#ced1d1" d="M110 176l53-17-6 19z"/><path fill="#6a4430" d="M19.5 220.9v-8.3L-16 176.9l18.7 28.6z"/><ellipse cx="177" cy="250" fill="#231514" rx="35" ry="18"/><circle r="1" fill="#8c7d6c" transform="rotate(-92.3 70.4 -40.3) scale(2.91599 20.99091)"/><path fill="#cfc2bb" d="M108.5 203.4l20.4-29-48.1-2.7 28.4 8.9z"/><path fill="#74583f" d="M76 109h4v41h-4z"/><path fill="#4f2c23" d="M208.5 225.2l-4.4 2.4-12.6-22.8 4.4-2.4z"/><circle r="1" fill="#bbafa1" transform="matrix(-4.91945 3.8991 -5.52603 -6.97211 216.9 156.5)"/><path fill="#886c67" d="M222.9 165.5l-9.6.7-.4 53.3 4.7-21z"/><path fill="#958a84" d="M137 173.5l-12-19.8 12-7.2 12 19.8z"/><path fill="#795b4e" d="M126 192h53v9h-53z"/><circle r="1" fill="#321f1e" transform="rotate(22.1 -437.6 684) scale(11.25454 19.42276)"/><path fill="#816a60" d="M92 22l14-38 16 32z"/><path fill="#d3cdc6" d="M112 20h99v3h-99z"/><path fill="#b89f93" d="M240.6 215.5l30.4 4-28.7 6.6-13 13z"/></g></g></svg>