<svg xmlns="http://www.w3.org/2000/svg" viewBox="0 0 1400 933"><defs/><filter id="a"><feGaussianBlur stdDeviation="12"/></filter><rect width="100%" height="100%" fill="#7d6f43"/><g filter="url(#a)"><g fill-opacity=".5" transform="translate(2.7 2.7) scale(5.46875)"><circle r="1" fill="#eaf4f4" transform="matrix(-79.91389 -171.17829 121.0823 -56.52678 146.1 48.2)"/><circle r="1" fill="#3b431f" transform="matrix(-29.97117 -11.66097 16.09902 -41.37791 206.6 77.7)"/><ellipse cx="93" cy="30" fill="#faf8dc" rx="54" ry="52"/><path d="M-14 56h44v24h-44z"/><circle r="1" fill="#e8effe" transform="matrix(72.46626 -2.8881 .79768 20.01502 163.7 136.2)"/><circle r="1" fill="#4d3e2f" transform="rotate(89.1 -23.8 91) scale(15.9964 28.57587)"/><circle r="1" fill="#b29b73" transform="matrix(50.82136 -34.92855 55.65824 80.98324 9.4 162.8)"/><circle r="1" fill="#435b3b" transform="rotate(-87 114.3 -35.2) scale(23.99597 15.61509)"/><path fill="#2c1c0b" d="M177 75l-10 36 63-12z"/><circle r="1" fill="#fff" transform="rotate(-88.4 109.2 -60.7) scale(47.90409 6.6934)"/><ellipse cx="238" cy="64" fill="#aaa079" rx="27" ry="64"/><path fill="#ffffeb" d="M53.8 104.9L32.5 81.1l2.9-47.8 25 50.7z"/><path fill="#00040c" d="M10 54h19v26H10z"/><circle r="1" fill="#080d07" transform="matrix(2.8942 -.02724 .48162 51.16602 209 73.4)"/><path fill="#fff2f8" d="M206 112v-12l-29 14z"/><path fill="#fff" d="M141 105h25v23h-25z"/><path fill="#fffff4" d="M233 79l-14 16-7-18z"/><path fill="#dedfc7" d="M140-16L245 4 20 91z"/><path fill="#490000" d="M166 97h23v14h-23z"/><path d="M16.2 113.8l3.6 11 1.6-17-3.5-20.7z"/><path fill="#c4b88e" d="M-16 60l152-76H-16z"/><path fill="#6e6755" d="M53 129l12-53 56 46z"/><path fill="#a88d60" d="M152.6 173l-11.2 27.8-128-51.7 11.2-27.9z"/><path fill="#e3eddc" d="M85 42h37v57H85z"/><circle r="1" fill="#0c180e" transform="matrix(.35422 1.77518 -33.76927 6.73835 205.8 50.5)"/><path fill="#675a46" d="M221 87h15v36h-15z"/><path fill="#ebefef" d="M181 94l-20-24-2 25z"/><path fill="#93ae77" d="M223.2 24.7l3 19.7-43.4 7-3-19.8z"/><path fill="#dbcecb" d="M213 104.7l-2.7 53.2 6.9-44 30.4-3.4z"/><path fill="#dadfdf" d="M51 130l136-13-59 43z"/><path fill="#b5c0b5" d="M56.9 122.5l-36.6 4.2 3.3-39.3-.3 16.8z"/><path fill="#19211d" d="M185 10h2v65h-2z"/><path fill="#9da1a7" d="M75 101h67v21H75z"/><ellipse cx="3" cy="85" fill="#e4e1d3" rx="56" ry="5"/><ellipse cx="232" cy="150" fill="#c6c2bd" rx="123" ry="21"/><ellipse cx="188" cy="90" fill="#1d231b" rx="3" ry="28"/><path fill="#6e7c61" d="M133 55h26v49h-26z"/><path fill="#1c1f1c" d="M210.7-1.4l-.6 8.4-2-9.3v80.9z"/><path fill="#4a371c" d="M55 97h14v31H55z"/><path fill="#e9ebe3" d="M54.6 55.4L39.2 81.7l10 31 5.2 10.2z"/><path fill="#555d4a" d="M109 51h2v44h-2z"/><ellipse cx="123" cy="63" fill="#232f3e" rx="1" ry="24"/><path fill="#755f34" d="M34 117l3-36 11 31z"/><path fill="#283324" d="M193 97h42v8h-42z"/><path fill="#1c5265" d="M-11.2 53.6l21-1.1 1.4 28-21 1z"/><path fill="#9e9967" d="M57.1 49.4l7.2 2.8-.9 6.8-22.9.8z"/><path fill="#f1f4e9" d="M145 58L84 45 51 72z"/><path fill="#c8bb9b" d="M170-16h94L77 44z"/><path fill="#645a4b" d="M169 109l-3-54h1l3 54z"/><ellipse cx="147" cy="69" fill="#2f2d1d" rx="1" ry="45"/><ellipse cx="164" cy="55" fill="#fff" rx="2" ry="70"/><path fill="#8f6538" d="M251 115l20 15-57-12z"/><path fill="#e9ecea" d="M183.9 132.6l-82.1-36.5 39.8 10.8 20.7-2.6z"/><path fill="#351d16" d="M5.6 108l-21.6 2.2 6.6 4.7 41.9-5.1z"/><path fill="#fbe6e3" d="M195.9 114.4l-4.4-2.2-1-7.7 18.6 11.3z"/><path fill="#d1c79e" d="M38 55l-54-6L67-2z"/><path fill="#aaa27c" d="M59 74h37v6H59z"/><circle r="1" fill="#b19e88" transform="matrix(-13.84133 -.68804 4.28134 -86.12783 248 35.8)"/><path fill="#5f7650" d="M174 48h12v41h-12z"/><ellipse cx="201" cy="116" rx="10" ry="2"/><path fill="#f8e6c7" d="M225 79h5v17h-5z"/><path fill="#eaeff7" d="M128 112l-10-46-3 35z"/><ellipse cx="19" cy="108" rx="2" ry="18"/><ellipse cx="93" cy="83" fill="#e8eff2" rx="5" ry="23"/><circle r="1" fill="#ab9260" transform="matrix(-53.44056 -9.11706 3.33906 -19.57221 41.9 162.6)"/><path fill="#81796c" d="M79 127l54-7-71-12z"/><path fill="#58604e" d="M133 29h2v40h-2z"/><path fill="#ccdfae" d="M223 48h14v9h-14z"/><path fill="#2b3a19" d="M221 70l-11-12-11 36z"/><path fill="#616762" d="M122 35h2v58h-2z"/><path fill="#5f6342" d="M101 68.7l-.3-1 16.4-4.4.2 1z"/><path fill="#564228" d="M137.2 168.8l21.3-8.6.3 1-21.3 8.6z"/><path fill="#d7edca" d="M220 0h13v21h-13z"/><path fill="#d8ddde" d="M160.5 147.3l67.5-8-12.4-20.5-144.3 11.6z"/><path fill="#fdfffb" d="M130 60l-11-21 8-6z"/><circle cx="100" cy="93" r="2" fill="#000200"/><path fill="#7e9764" d="M190 55h14v41h-14z"/><ellipse cx="9" fill="#b2a780" rx="16" ry="49"/><path fill="#fff" d="M220.2 102.6l2.6 8.6-1 .2-2.6-8.6z"/><path fill="#d8dec1" d="M146.5 14.5l45.1-5-29.4 15.4L151 54.4z"/><path fill="#fdcb8f" d="M55 75h10v23H55z"/><ellipse cx="68" cy="87" fill="#6e7334" rx="10" ry="5"/><path fill="#a4a8ad" d="M70 95h39v6H70z"/><path fill="#fff" d="M163 33h10v21h-10z"/><path fill="#290b00" d="M217 96h2v21h-2z"/><path fill="#613107" d="M167 96h20v16h-20z"/><ellipse cx="85" cy="67" fill="#c3c7a2" rx="4" ry="32"/><path fill="#fff" d="M44 80h15v16H44z"/><circle r="1" transform="matrix(1.57355 -.0306 .7008 36.04185 209.2 81.5)"/><path fill="#bcb498" d="M80.7-2.1L150 11.1 163.5-16l5 37.8z"/><path fill="#876b30" d="M41 126h22v5H41z"/><circle r="1" fill="#736f61" transform="matrix(32.83926 -2.30196 .0905 1.29113 105.1 112.9)"/><path fill="#fff" d="M118 34h4v61h-4z"/><path fill="#bfbfa4" d="M1.8 119.1l13.9 5.7-.4-9.6L-16 113z"/><path fill="#baaea1" d="M164 159l70-22 37 44z"/><path fill="#142726" d="M-8 52l39 28-1-24z"/><path fill="#d0d8d4" d="M20.8 118.9l32-2.8.4 5-32 2.8z"/><circle r="1" fill="#f7f9fd" transform="matrix(-6.57512 -8.35549 6.55121 -5.1553 74.3 64)"/><path fill="#b4b7b4" d="M61 109h79v3H61z"/><path fill="#422400" d="M0 94h44v1H0z"/></g></g></svg>