<svg xmlns="http://www.w3.org/2000/svg" viewBox="0 0 1280 720"><defs/><filter id="a"><feGaussianBlur stdDeviation="12"/></filter><rect width="100%" height="100%" fill="#303350"/><g filter="url(#a)"><g fill-opacity=".5" transform="matrix(5 0 0 5 2.5 2.5)"><circle cx="153" cy="57" r="183" fill="#fff"/><ellipse cx="116" cy="129" fill="#ebc58a" rx="255" ry="65"/><circle r="1" fill="#d5ffff" transform="rotate(91.2 45.7 65.5) scale(15.45866 213.84448)"/><ellipse cx="90" cy="52" fill="#195c8a" rx="241" ry="15"/><path fill="#362c23" d="M68.3 130.8l-2.7-31.1-20 .4-17.1 29.4z"/><circle r="1" fill="#3eb3f5" transform="matrix(.30933 -14.89133 133.8649 2.78068 159.5 1.5)"/><circle r="1" fill="#e7d6c0" transform="matrix(-92.20375 16.70966 -5.33949 -29.46325 164.4 129.9)"/><path fill="#544c41" d="M241 78l-89 11 39 11z"/><path fill="#edeceb" d="M-15 25l130 15L-5-16z"/><path fill="#84735e" d="M8.6 78.8l102.6 3.3L13.6 95l-28-7.5z"/><ellipse cx="151" cy="43" fill="#567ea2" rx="35" ry="15"/><circle r="1" fill="#21557a" transform="rotate(7.6 -349.9 160.7) scale(51.85545 13.68578)"/><path fill="#fff7f3" d="M76 19h158v10H76z"/><path fill="#625348" d="M86.8 102.4L72.2 84.3l36.1 7.7 7.5-13.8z"/><path fill="#001223" d="M211 78l-9 10h24z"/><ellipse cx="151" cy="66" fill="#9c7a5f" rx="94" ry="4"/><path fill="#e1d3bb" d="M101 107l106 15 39-36z"/><path fill="#f2f1ed" d="M234 23h22v19h-22z"/><path fill="#a08f77" d="M66 110l-47 26 112-15z"/><circle r="1" fill="#4e3d2d" transform="rotate(148.8 8.5 64.1) scale(26.21543 4.83375)"/><path fill="#e1d8c8" d="M42 83l28 6-44 26z"/><path fill="#3f2a18" d="M38 87L13 98l7-14z"/><path fill="#a5cbdf" d="M15 30l66-18-13 30z"/><path fill="#f2e7d4" d="M122.7 95l12.7-14 17.9 16-12.7 14z"/><path fill="#f7efec" d="M160 24.3l-54.2 11.9 63.6-25.4 43.4 14.3z"/><ellipse cx="177" cy="94" fill="#887361" rx="17" ry="9"/><path fill="#f2dec2" d="M103.2 70.8L79.4 92.2l-2.6-3 23.8-21.4z"/><path fill="#e0d1b3" d="M133 118l-49 2 14-33z"/><ellipse cx="142" cy="73" fill="#ebd8b0" rx="131" ry="2"/><circle r="1" fill="#5781a9" transform="matrix(43.18463 6.4241 -2.09212 14.06382 217.7 51.6)"/><path fill="#6e594b" d="M117 84h7v20h-7z"/><path fill="#70b3dc" d="M190 3h66v17h-66z"/><path fill="#e1d1ba" d="M179.1 153.7l7.4-77.1-16.7 47.1 18.4-27.5z"/><circle r="1" fill="#54a4d6" transform="matrix(7.15736 9.75927 -21.13438 15.49975 90.5 0)"/><path fill="#dacaae" d="M206.3 117.3l-16-33.3 20.3 9.7 54.6-30.6z"/><circle r="1" fill="#6585a2" transform="matrix(-4.72153 12.17282 -30.43089 -11.80336 166 45)"/><path fill="#27373e" d="M200.5 86.8l6.3-9 10.7 7.4-6.3 9z"/><path fill="#e4d4bb" d="M34 133h66v11H34z"/><ellipse cx="134" fill="#6cafdc" rx="24" ry="22"/><circle r="1" fill="#3c352e" transform="matrix(2.7489 -1.94128 3.0249 4.28334 109.1 87)"/><circle cx="109" cy="25" r="14" fill="#e6e4e4"/><path fill="#e9e8e6" d="M-7.9 6.7l79 .9L14 30.8l23.3-44.9z"/><path fill="#836a54" d="M83 96L73 79H54z"/><path fill="#d4d5d8" d="M86 96l-24 13 5 5z"/><circle cy="85" r="4" fill="#0f0200"/><path fill="#b09364" d="M145.1 126.1l24.3-6 1.5 5.8-24.3 6z"/><path fill="#354d63" d="M0 33h26v12H0z"/><path fill="#5c4b33" d="M29 129h27v3H29z"/><path fill="#42362a" d="M53.1 102l8.4 9.9L46.9 124l-8.4-10z"/><ellipse cx="16" cy="76" fill="#cbb189" rx="20" ry="10"/><path fill="#d3a96e" d="M-3.5 144.6l1-19 34 1.8-1 19z"/><path fill="#dcd1bd" d="M64 74l9 17-10 6z"/><path fill="#8e7148" d="M142 115.9l-2.6 3-7.5-6.8 2.7-3z"/><path fill="#6c5c5b" d="M240 98l4-8 7 12z"/><ellipse cx="199" cy="28" fill="#dae2e5" rx="30" ry="9"/><path fill="#cab18e" d="M216 68h40v13h-40z"/><path fill="#a89983" d="M204.1 60.7l-14.5.2-8.8 1 29.3 26.3z"/><path fill="#6c5237" d="M140 62h49v3h-49z"/><path fill="#dac7aa" d="M27 137.5l5.6-30.5-48.6-9.1 68 50.6z"/><ellipse cx="89" cy="95" fill="#59432f" rx="6" ry="4"/><circle r="1" fill="#3b749f" transform="rotate(152 23.1 34.5) scale(26.48197 8.25939)"/><path fill="#4f4537" d="M195 81l-4 21-4-9z"/><path fill="#d3c8b5" d="M2.9 112.5l15.4-25.4 14.1-12.3-48.4 34.8z"/><ellipse cx="99" cy="66" fill="#c6a886" rx="21" ry="3"/><path fill="#d7dde1" d="M74.1 23.8L90.6 40l13.9 2.4 11.1-33z"/><path fill="#347599" d="M200 36h29v4h-29z"/><path fill="#726b5d" d="M53.5 129l30.9-2 .1 2-30.9 2z"/><circle r="1" fill="#91837a" transform="matrix(-1.82514 -4.28222 26.55654 -11.31874 60.2 119.5)"/><path fill="#e4e6e5" d="M62.3 44l57.3-31.5L77 19.2 61.5 34.9z"/><path fill="#f3ebe6" d="M52 28l2-22 17 7z"/><path fill="#d5c4be" d="M271 89.7l-53.4-12.3 28.8-3.8 7.9 60.5z"/><path fill="#618cb5" d="M131.2 44.3l1.1 10.2-40.2 9.4 105.8-3.7z"/><path fill="#302c28" d="M104.5 93.6l-1.9-.5 2.9-10.7 1.9.5z"/><ellipse cx="63" cy="67" fill="#a38c76" rx="164" ry="2"/><path fill="#4c3f2f" d="M49 100l-12 18 13 10z"/><circle r="1" fill="#604d3e" transform="matrix(-.17885 -5.90739 3.67556 -.11128 31.5 89.5)"/><ellipse cx="44" cy="33" fill="#9ecee4" rx="19" ry="5"/><path fill="#d2bea4" d="M51 123l25 27 39 2z"/><path fill="#e8ded3" d="M144 29l2 10-6-4z"/><path fill="#8b7769" d="M165 83h7v17h-7z"/><circle r="1" fill="#6cafd8" transform="matrix(11.13828 -18.61072 2.35301 1.40825 72 16.7)"/><path fill="#d1c3b2" d="M65.6 89.4l-26.7 18.3L35.4 80l-8.2 2.7z"/><path fill="#eeddca" d="M152 83h4v23h-4z"/><path fill="#d9c6ad" d="M167.7 98.2l-1-.3 7.6-30 1 .2z"/><path fill="#50402f" d="M149.5 80.5l8.8-2 .2 1-8.8 2z"/><ellipse cx="27" cy="102" fill="#6a6151" rx="8" ry="2"/><ellipse cx="239" cy="60" fill="#597ea9" rx="33" ry="8"/><path fill="#4c3b29" d="M49 87l3-6 9-1z"/><ellipse cx="182" cy="98" fill="#e9ddc8" rx="2" ry="18"/><path fill="#c0a1a8" d="M234.2 159l-2.4-38.8 17.1 1.3 14.3 23.6z"/><path fill="#fff9f2" d="M152 15h27v4h-27z"/><path fill="#5eabd7" d="M103.2 16.8L-16-8 196.2 6.7 141.9-16z"/><path fill="#dfd6c4" d="M115.4 140.8l46.7-26.1-59.4 13.2 4.4 10.5z"/><circle r="1" fill="#cdcfd0" transform="rotate(-85.2 33.3 -11.4) scale(9.855 13.95595)"/><path fill="#a78871" d="M188 79l12 3-16 8z"/><ellipse cx="46" cy="126" fill="#ccb591" rx="11" ry="2"/><path fill="#e5d6c3" d="M100 82l-6 7 14 24z"/><path fill="#c3b49e" d="M53.8 75.5l-3.4 22 27.5 13.7L40.2 88z"/><path fill="#281b15" d="M13.5 80l.1-1 7 1-.2 1z"/><path fill="#dbdcdc" d="M238 42l-21-24 52 8z"/></g></g></svg>