<svg xmlns="http://www.w3.org/2000/svg" viewBox="0 0 1400 933"><defs/><filter id="a"><feGaussianBlur stdDeviation="12"/></filter><rect width="100%" height="100%" fill="#282e4a"/><g filter="url(#a)"><g fill-opacity=".5" transform="translate(2.7 2.7) scale(5.46875)"><circle r="1" fill="#edb" transform="matrix(-29.85815 -94.69795 131.80254 -41.55718 176.9 99.7)"/><circle cx="125" cy="135" r="65" fill="#d3c9d2"/><path d="M105.4 26l39-2 2.2 44-39 2z"/><path fill="#4e422b" d="M217 155L151-2l120 69z"/><ellipse cx="57" cy="71" fill="#ffffe6" rx="4" ry="70"/><circle r="1" fill="#e1eaf7" transform="matrix(5.29844 50.41131 -20.47502 2.15201 166.2 94.2)"/><path d="M108 34h11v70h-11z"/><ellipse cx="21" cy="112" fill="#4e3e1d" rx="32" ry="169"/><ellipse cx="102" cy="143" fill="#704856" rx="71" ry="11"/><path fill="#090d02" d="M137 7h8v96h-8z"/><path fill="#fff" d="M67 112h95v8H67z"/><ellipse cx="95" cy="10" fill="#585233" rx="53" ry="33"/><ellipse cx="190" cy="133" rx="2" ry="154"/><path fill="#c7d6d2" d="M141 157h63v13h-63z"/><ellipse cx="56" cy="54" fill="#fff" rx="3" ry="38"/><circle r="1" fill="#746f67" transform="matrix(-35.16224 -4.44202 11.12374 -88.05346 255 61)"/><path fill="#332c26" d="M85 35h6v76h-6z"/><ellipse cx="159" cy="2" fill="#b0b6b1" rx="11" ry="55"/><circle r="1" fill="#f0f8fa" transform="matrix(3.9674 -10.09542 24.09635 9.46962 143 114.4)"/><path fill="#fff" d="M119 68h12v22h-12z"/><path fill="#6f5d53" d="M13 94h60v22H13z"/><path fill="#fff" d="M103 53h4v66h-4z"/><path fill="#4b3821" d="M60.8 34.2L60.2 83 95 26.8 63.2 1.1z"/><path fill="#000002" d="M106 6h41v10h-41z"/><path fill="#a3b0ab" d="M53 154h100v16H53z"/><path fill="#fff" d="M53.5 136l-1-13 16-1 1 13z"/><ellipse cx="129" cy="21" fill="#9ca1a6" rx="34" ry="5"/><path fill="#000300" d="M118 39h20v23h-20z"/><path fill="#dbd7cc" d="M190 1h13v18h-13z"/><path fill="#dedfde" d="M75 58h9v62h-9z"/><path fill="#eb94a0" d="M92.2 140.7l-23.8-18.2 85.7 3.1-48.8 19.6z"/><path fill="#2e2511" d="M125.3 98.7l6.3-4.1-22.7-11.1 2.4 14.9z"/><path fill="#a9b8ad" d="M113.2 64.4L93 80.7l-.1-44.5 3.5-5.5z"/><ellipse cx="188" rx="2" ry="38"/><path fill="#f4f3e4" d="M176-16l2 35 11-25z"/><circle r="1" fill="#585252" transform="matrix(-16.46562 40.14732 -9.39243 -3.85212 36.4 108.6)"/><ellipse cx="202" cy="76" fill="#554534" rx="11" ry="43"/><ellipse cx="175" cy="22" fill="#04121b" rx="2" ry="29"/><circle r="1" fill="#201e18" transform="rotate(-166.1 1.2 9.5) scale(27.129 66.32042)"/><path fill="#998a73" d="M72 36h11v32H72z"/><path fill="#2b2d28" d="M166.7 30l-3.9-38.7-1.3 42.9-.4-8.7z"/><ellipse cx="190" cy="95" rx="2" ry="62"/><path fill="#b0b4c2" d="M179 78h10v45h-10z"/><path fill="#887e6d" d="M237 45l-32 140 66-114z"/><path fill="#100c0a" d="M65.6 49.4L78.8 20 62.5-2.5 59.1-16z"/><ellipse cx="103" cy="116" fill="#fff" rx="41" ry="4"/><circle r="1" fill="#ab9776" transform="matrix(7.93442 10.30305 -4.52984 3.48845 72 0)"/><path fill="#6c8f8d" d="M114.2 4.8l27.7-20.3 2.3 22.3-12.8.1z"/><path fill="#a8ada9" d="M194 138l3 18 66-7z"/><path fill="#787d72" d="M134.1 81.5l2.7 28.7 3.4-46.5-13.2 3.6z"/><path fill="#695863" d="M73.9 144.6l27.7-10.2-39-2.4 9.4 53z"/><path d="M95 109h22v2H95z"/><circle r="1" fill="#37332c" transform="matrix(19.92396 -20.92222 16.97834 16.16825 28.9 155.4)"/><path fill="#525d6c" d="M228.8 9.5L239.1-16l17.4 19.6 14.5 53z"/><path fill="#fefff9" d="M187 143.1l-12.3-9.8-30.2-21.5 37.9 38.5z"/><path fill="#564740" d="M60 102l16-43-14-24z"/><path fill="#1b1809" d="M108 63h8v29h-8z"/><path fill="#313734" d="M103.6 40.6l-6.8-15.7 52.9 7.6-65.5 22.7z"/><path fill="#7a5d66" d="M175 151l-64-17 24 19z"/><path fill="#b7bcc3" d="M145 42h27v39h-27z"/><path fill="#17140d" d="M141 45h4v53h-4z"/><path fill="#fff" d="M119 103h12v18h-12z"/><path fill="#6d5c49" d="M200 70h33v71h-33z"/><circle r="1" fill="#f9f8f0" transform="matrix(-1.17623 -17.35913 3.4666 -.2349 57.2 71.1)"/><path fill="#aab8b7" d="M81 147h71v4H81z"/><path fill="#f8e7d7" d="M53 106h3v36h-3z"/><path fill="#dcdbcf" d="M171-13l2 23-54-26z"/><path fill="#d5ebe8" d="M94 89l20 18-22-1z"/><path fill="#7b6c56" d="M110.1 19L72 36.3l3.5 15.6L104.4 3z"/><path fill="#4d4643" d="M7 135l46-53 2-91z"/><path fill="#bbc1be" d="M200.5 173.7l-71.2-16.4 44.7-6.1 43 20z"/><path fill="#5c5441" d="M190 14l41 32-36 8z"/><path fill="#dbd8cb" d="M175.4-.4l.7 13L186.7-16l-1.4 30.5z"/><ellipse cx="58" cy="169" fill="#c8c9c1" rx="5" ry="15"/><ellipse cx="59" cy="29" fill="#a68f6a" rx="3" ry="21"/><path fill="#a37c5a" d="M71.5 86.9l-1 20.3-13.1 16.3-4.2-26.2z"/><path fill="#767466" d="M96 112H85l-1-22z"/><path fill="#4a4746" d="M94.1 28.9L92 59.5l-7.5 12.3-1.6-73.1z"/><path fill="#403832" d="M18 153l-2-16 59 14z"/><path fill="#feffff" d="M119 72h13v17h-13z"/><path fill="#0c0f0c" d="M90 68h19v1H90z"/><ellipse cx="93" cy="78" fill="#ccdcdf" rx="2" ry="25"/><ellipse cx="158" cy="141" fill="#a49b99" rx="12" ry="10"/><path fill="#61533d" d="M204 139.3l40 6.7 27-.4-28.2-6.9z"/><path fill="#fffffe" d="M59 123h17v6H59z"/><ellipse cx="117" cy="84" fill="#3b463f" rx="2" ry="29"/><path fill="#adabaa" d="M191 3h23v20h-23z"/><ellipse cx="104" cy="75" fill="#f5fdf8" rx="2" ry="27"/><path fill="#1e2726" d="M110 16l42-15-9 16z"/><path fill="#705a76" d="M133.2 157.1l3.9-22.4 7.1-3.2 10.9 1.2z"/><circle r="1" fill="#737a84" transform="matrix(-9.45986 4.84086 -22.7654 -44.48749 244.2 40)"/><ellipse cx="159" cy="92" fill="#d3d7e2" rx="10" ry="27"/><path fill="#6c6f69" d="M75 88h32v2H75z"/><path fill="#b0b2ba" d="M155.9 21.2l1.3 43.5 28.5-1.5-7.1 18.8z"/><path fill="#d1d8e2" d="M193 96h2v37h-2z"/><path fill="#543f29" d="M194 108h26v8h-26z"/><path fill="#83796b" d="M228 165.5l-25.4-5.4 3.3-15.6 25.5 5.4z"/><path fill="#595155" d="M33 78h19v59H33z"/><path fill="#c0bbb9" d="M72.9 113.5l-1.3-10.7.1-20.6 13.9 5.1z"/><path fill="#887e6d" d="M198 117l73-1-57 20z"/></g></g></svg>