<svg xmlns="http://www.w3.org/2000/svg" viewBox="0 0 1400 2098"><defs/><filter id="a"><feGaussianBlur stdDeviation="12"/></filter><rect width="100%" height="100%" fill="#5c5242"/><g filter="url(#a)"><g fill-opacity=".5" transform="translate(4.1 4.1) scale(8.19531)"><circle r="1" fill="#eae2e8" transform="rotate(90.3 7.3 74.4) scale(157.82161 100.03968)"/><circle cx="15" cy="80" r="48" fill="#522723"/><circle r="1" fill="#fff" transform="matrix(-39.2025 26.53 -11.78156 -17.40922 102.4 17.6)"/><path fill="#fff" d="M89 154l97-26-76-42z"/><circle r="1" fill="#50493d" transform="matrix(-33.37158 -27.4363 27.6401 -33.61946 170 62.8)"/><ellipse cx="74" cy="142" fill="#dfdcd9" rx="16" ry="110"/><circle r="1" fill="#fff" transform="matrix(-8.89575 9.5062 -30.53552 -28.57463 29 15)"/><ellipse cx="15" cy="235" fill="#190000" rx="47" ry="21"/><circle r="1" fill="#746d64" transform="matrix(32.6042 -28.84576 35.19749 39.78352 147.4 190.1)"/><path fill="#89042c" d="M-10.1 60.1L-16 23.2l93.1 29.4-10.4 26.5z"/><circle cx="59" cy="7" r="18" fill="#362f1c"/><circle r="1" fill="#628268" transform="rotate(-50.1 124.8 28) scale(36.10912 38.51994)"/><circle r="1" fill="#403822" transform="matrix(31.43338 -6.43072 .98017 4.79106 46.5 168.5)"/><ellipse cx="62" cy="183" fill="#fdf3ec" rx="32" ry="10"/><path fill="#315239" d="M93 76l6 54-17 2z"/><path fill="#fff" d="M77 0h30v42H77z"/><circle r="1" fill="#d2d9d6" transform="matrix(50.12604 -6.23738 1.4491 11.6455 59 148.7)"/><path fill="#feffff" d="M104.3 84.3l54.8 50.2H106l-6.3-31.8z"/><path fill="#7d4643" d="M-18.4 179.2l25.6-20.7 47.2 58.3-25.6 20.7z"/><circle r="1" fill="#796b68" transform="matrix(11.68264 12.08195 -31.53076 30.48867 82.5 242)"/><path fill="#2e2d24" d="M160.5 166.5l-23.6-4.2 2.6-14.8 23.6 4.2z"/><path fill="#dde5e5" d="M59 79h23v69H59z"/><path fill="#10000f" d="M29 71h6v66h-6z"/><path fill="#dfe3e1" d="M69 171h65l-33-13z"/><path fill="#e0dcdd" d="M-16 12l54.2 29.7 5.6-14.6-.7-43.1z"/><path fill="#100a00" d="M164.5 196.5l-75.6-23 .6-2 75.6 23z"/><path fill="#5c5952" d="M4.2 91.7L3.3 144l13.7-5.6 41.2-1z"/><circle r="1" fill="#e6ddcf" transform="rotate(-96.7 94 81.3) scale(2.31364 48.77053)"/><path fill="#c59094" d="M17.9 64.5l34.5 7.9 20.8 8-89.2-5.8z"/><path fill="#000006" d="M55 103h3v31h-3z"/><ellipse cx="44" cy="102" fill="#8ea68e" rx="11" ry="31"/><ellipse cy="128" fill="#b9b7b9" rx="4" ry="49"/><circle r="1" fill="#d6bab8" transform="matrix(.50725 9.26997 -27.03636 1.47942 92.8 200.7)"/><path fill="#c5c7c0" d="M165 14l-56 24 22-54z"/><path fill="#756f61" d="M88 152h12v29H88z"/><path fill="#644f4f" d="M128 67h43v27h-43z"/><path fill="#243430" d="M115.3 81.9l-39.8-7.6 19.4 7.3-.5-.5z"/><path fill="#ad7da1" d="M79 174.3l-1.5 10.1-36.2 15.5 23.4 29.9z"/><circle cx="131" cy="51" r="20" fill="#949083"/><path fill="#b6b9b2" d="M68 44h38v32H68z"/><path fill="#8a8882" d="M173 96l13 91-39-1z"/><path fill="#61594d" d="M43.8 7.3l34.7 3.5-8.9 24.6L61.8-16z"/><circle r="1" fill="#342726" transform="rotate(118.2 8.7 178.4) scale(86.53982 21.86044)"/><circle r="1" fill="#fcfbf9" transform="rotate(71.6 15 73) scale(9.65123 28.48855)"/><path fill="#616156" d="M124 134h9v10h-9z"/><ellipse cx="9" cy="138" fill="#461b3c" rx="31" ry="3"/><path fill="#9ea789" d="M21 79h7v56h-7z"/><circle cy="46" r="20" fill="#5b252f"/><path fill="#86786d" d="M160.2 201.9L37.6 266.7l32.3-31.9 68.8-44z"/><circle r="1" fill="#21140b" transform="matrix(25.79684 -31.51758 12.78434 10.46386 16.3 255)"/><path fill="#b8c4af" d="M90 120L60 78l30 3z"/><path fill="#87867b" d="M43.7 167.5L77 146.9l.6 9.6 28.4 1.1z"/><path fill="#dde4e4" d="M97.8 83.4l30 37.6 12.5 30.8 26.7-23.3z"/><path fill="#c2c5c2" d="M13 141h118v12H13z"/><path fill="#4b4639" d="M123 163v-20l-18 19z"/><path fill="#57594b" d="M22 180l39-17-77 9z"/><path fill="#abafaf" d="M160 99.3l26 70.4-40.7-62.5-48.8-21z"/><path fill="#dbd4d5" d="M71 45L31 34l24-14z"/><path fill="#554946" d="M53.6 267.8l31.3-28.1 25.6-25.6 27.7 16.1z"/><path fill="#fffff9" d="M74 168h14v20H74z"/><path fill="#080c1b" d="M91 91h3v42h-3z"/><path fill="#9f2c4c" d="M41 50h26v26H41z"/><path fill="#f9ffff" d="M105 94l2 45 37-11z"/><path fill="#4f2c26" d="M51 228l-67 19 9-61z"/><path fill="#071214" d="M30 74h5v53h-5z"/><path fill="#e5dfd2" d="M42.5 172.9l57.4 30.8L60.7 225l34-36z"/><ellipse cx="99" cy="129" fill="#344652" rx="5" ry="3"/><path fill="#01111b" d="M57.8 111h-3l-.6-30h3z"/><ellipse cx="62" cy="110" fill="#fff" rx="2" ry="33"/><path fill="#b7356e" d="M27 126h13v12H27z"/><path fill="#9cc383" d="M6 69h17v16H6z"/><path fill="#90938a" d="M43.5 146.5L22.2 151l-33 45.7 23.5-51.9z"/><path fill="#9cb894" d="M94 86h7v42h-7z"/><path fill="#c4b8b7" d="M62.4 31.9l3.8 18.6-21.1-7.3-28.3-10.7z"/><path fill="#d0d6dc" d="M124.3 143l2.3 27.2-21-2 24.4-7.6z"/><path fill="#514d46" d="M142 145l-10 16 52 8z"/><circle r="1" fill="#c1bfbc" transform="matrix(-15.97607 -4.5557 1.49524 -5.24354 107.3 169.2)"/><circle r="1" fill="#3d3830" transform="rotate(-71.8 209.4 -9.8) scale(2.84501 44.20244)"/><path fill="#9c908b" d="M72 50l16-5-18 46z"/><path fill="#172021" d="M49.4 91l-34.9-3 .1-1 34.9 3z"/><path fill="#887c5b" d="M155 227l-31 44 17-50z"/><path fill="#e4e3dd" d="M130 28l-20 8-22-52z"/><path fill="#859c71" d="M82 95h7v39h-7z"/><path fill="#8e4f4f" d="M56.9 224.7l1.4-5-38-34.1L-.8 188z"/><path fill="#978e80" d="M48.8 271l21.4-44.3 26.4-21.5-4.7 26.1z"/><path fill="#874f83" d="M59.7 191.8l-16.5 9.3-11 11 43.2-20.8z"/><path fill="#d8dad8" d="M44 160l64-29-62 7z"/><path fill="#5c4e37" d="M107 192l-14-5 8-5z"/><path fill="#4a5754" d="M89.3 78.8l8.6 3.6 1.4-4.2L75 71.5z"/><path fill="#af3257" d="M69.9 70l-77.3-7 21.6 6.3L36 73z"/><ellipse cx="55" cy="111" fill="#353e48" rx="2" ry="27"/><path fill="#c9cacb" d="M30.9 139.6l-23.7 12-23.2-77 8.7 71z"/><path fill="#a1a39f" d="M103 162l13-25 18-5z"/><path fill="#83837a" d="M164.8 89.5l-12.9-50.6.9 61.8 31.8 42.5z"/><path fill="#496346" d="M4 105h17v37H4z"/><path fill="#958f85" d="M91.1 43.3l49-14.6-23.9 57.5 28.9-32.1z"/><path fill="#c4cac7" d="M103 77l4-20-36 13z"/><path fill="#fbfbf8" d="M102.1 40.1l-2.7-19.4L77.6 5 75 50.2z"/><path fill="#e1dedb" d="M75 28.4l17.6 7.1-28.2-11.8-39.8-3.5z"/><path fill="#132635" d="M42 134h17v3H42z"/></g></g></svg>