<svg xmlns="http://www.w3.org/2000/svg" viewBox="0 0 1400 2098"><defs/><filter id="a"><feGaussianBlur stdDeviation="12"/></filter><rect width="100%" height="100%" fill="#3d352d"/><g filter="url(#a)"><g fill-opacity=".5" transform="translate(4.1 4.1) scale(8.19531)"><circle cx="87" cy="67" r="211" fill="#fff"/><circle r="1" fill="#fefff2" transform="matrix(-153.00343 -74.0942 18.58259 -38.37277 94.2 8.1)"/><circle r="1" fill="#331e00" transform="matrix(4.7524 -15.2091 26.85834 8.39246 71.3 81.4)"/><circle r="1" fill="#e9e2e5" transform="matrix(-69.45013 31.4467 -14.9583 -33.03544 124.5 255)"/><circle r="1" fill="#ece4d7" transform="matrix(-42.02937 .43285 -.24661 -23.94592 52.2 165.6)"/><path fill="#151100" d="M84 115h35v21H84z"/><path fill="#170800" d="M44.3 131l-27.9-2 1.3-18 27.9 2z"/><circle r="1" fill="#e4e2cf" transform="matrix(-22.32257 -33.73225 15.27419 -10.10781 144.6 110.5)"/><ellipse cx="139" cy="169" fill="#5f4e3a" rx="49" ry="12"/><path fill="#665641" d="M19 193h25v63H19z"/><path fill="#edd8b1" d="M69 96h70v18H69z"/><path fill="#f4e5d4" d="M20.4 269.6l-34 1.8-2.8-53 34-1.8z"/><path fill="#3b321c" d="M89.1 54.9l10.7 4.2-24.2 9.1-3-21.8z"/><path fill="#474e33" d="M186 66.9l-11.7 34.5-21.7 7.7 1.3-16.7z"/><circle r="1" fill="#b5985e" transform="matrix(-34.4676 30.22418 -17.12048 -19.52417 16.4 83.2)"/><ellipse cx="19" cy="28" fill="#c1c1b2" rx="68" ry="21"/><path fill="azure" d="M60 149l33-20H63z"/><path fill="#797261" d="M84 146l77 12-105-56z"/><circle r="1" fill="#5878c9" transform="matrix(34.9339 -17.95358 3.40038 6.61642 89.2 254.9)"/><path fill="#e5e2d4" d="M14 124l-24 18 58 23z"/><path fill="#eeefea" d="M87 43l91-59 8 52z"/><circle r="1" fill="#e5d7c4" transform="matrix(.42302 5.8531 -30.5911 2.2109 147 189.7)"/><circle r="1" fill="#63583b" transform="matrix(-9.18158 3.47745 -7.91014 -20.88527 33.6 128.2)"/><path fill="#c7c5ba" d="M138-16l-17 177 53-123z"/><path fill="#564938" d="M46 62h43v32H46z"/><path fill="#e88f63" d="M57.3 240.9l20.8-9.4 26.3-6.7 18.3 10.6z"/><ellipse cx="72" cy="153" fill="#f7ffff" rx="25" ry="4"/><path fill="#81735c" d="M23.5 230.3l67.2-36.2 25.7-23L20 205.6z"/><path fill="#5b533e" d="M58.9 161.5l-2.7-45.1 36.3-4.9-32.1 13.1z"/><path fill="#a09675" d="M43 54.8l3.7-8.2L129 83.2l-3.6 8.2z"/><circle r="1" fill="#d5d2c7" transform="matrix(-28.53848 -18.88926 8.79987 -13.29511 143.6 220.8)"/><path fill="#d5c59f" d="M22 59h24v32H22z"/><circle r="1" fill="#756e61" transform="matrix(-.07932 -.99685 88.5233 -7.04352 30.2 172.5)"/><path fill="#f7febb" d="M69.6 260.7l-15.4-30.3 6.2-3.1 15.4 30.3z"/><path d="M1 77l-11-25 12 1z"/><path fill="#433a39" d="M123 182l-2-43-11 36z"/><path fill="#ceb282" d="M34 95h47v18H34z"/><path fill="#332d1c" d="M107 117h11v29h-11z"/><path fill="#9c9da9" d="M146 205.8l18.6 6.8L70.8 119l61.5 40z"/><ellipse cx="147" cy="56" fill="#aba9a2" rx="25" ry="14"/><path fill="#ecece6" d="M99.1-5L146 41.1l-8.5 7-57.8-20.4z"/><path fill="#635130" d="M134 176v-24l44 32z"/><path fill="#a8a59a" d="M27.9 42.7l4.4-21.8L75 27.1l27.3 22.7z"/><path fill="#fff" d="M181 25.3L165.6 29 158.9.7 174.5-3z"/><path fill="#504430" d="M70 148l40-33-20 30z"/><ellipse cx="51" cy="136" fill="#decfb5" rx="5" ry="34"/><path fill="#dbdcd5" d="M125 81l38-18-29 63z"/><path fill="#715393" d="M112.7 227.8l-9.6-6.9-41.4 7.5 8.7 5.4z"/><path fill="#48402b" d="M57 115h4v35h-4z"/><path fill="#afa58c" d="M116.8 140.1l69.2 40.1-9.4-28.9-58.3-42.1z"/><path fill="#bba67f" d="M10.2 49l-21.5 152.8 30.4 35.8-1.7-91.2z"/><path fill="#3f3c42" d="M93.7 190.1L65 191.9l24.1-7.8 7.8-2.1z"/><path fill="#dbecff" d="M15 131l12 27 19-1z"/><path fill="#858068" d="M29.9 67.5l28.3-20.8-43.7 4.4 16 30.8z"/><path fill="#423d2c" d="M100 77.3l-2.1 19.9L74 94.7l2.1-19.9z"/><path fill="#282c3a" d="M17 149h8v4h-8z"/><circle r="1" fill="#c6b289" transform="matrix(5.33085 -3.21992 16.54322 27.38868 117.3 105)"/><path fill="#cbb8a6" d="M103 150h5v64h-5z"/><path fill="#e4ddcf" d="M6 156h36v15H6z"/><path fill="#d4dbda" d="M76.5 69.5l.8-2.8 20.2 5.8-.8 2.8z"/><path fill="#d1cdb9" d="M39.4 232.9L-2 237.5 1.3 271l-1.6-14.4z"/><path fill="#455b65" d="M27 193l8 14 20-16z"/><path fill="#cbd9e3" d="M67 129h25v7H67z"/><path fill="#8d95a3" d="M31 147h67v4H31z"/><path fill="#231e0f" d="M101.9 115.5l14.2 4.6-4 12.4-14.2-4.6z"/><path fill="#2d2314" d="M60 114h24v4H60z"/><circle r="1" fill="#dcd5d0" transform="matrix(36.30301 -20.95955 10.23141 17.72132 169.4 232.6)"/><path fill="#adaa94" d="M112 26l7-28 18-1z"/><path fill="#838e94" d="M65 118h30v13H65z"/><path fill="#9b8152" d="M109.8 77L88.6 65.6 94.2 55l21.2 11.2z"/><ellipse cx="158" cy="200" fill="#7176ad" rx="15" ry="7"/><path fill="#d4d1c8" d="M102.6 26L17.8 14.6-16 38 6.5-16z"/><path fill="#857c9e" d="M120.9 248.1l65.1-21.5-14.2 4.1L9.8 271z"/><path fill="#918060" d="M126.6 146.5l12 12.6 18.6 8-27.4-40.6z"/><path fill="#9b9382" d="M80.3 191.9l-39.7 9.4.1 48.5-4.6 21.2z"/><path fill="#e5d5b4" d="M100 75h7v40h-7z"/><path fill="#f9dc9f" d="M109.8 239.6l-36.5 5.8-1.1-7 36.5-5.8z"/><ellipse cx="115" cy="165" fill="#43342a" rx="4" ry="13"/><path fill="#b3ac9b" d="M99 179h42v38H99z"/><path fill="#c9c4b7" d="M118 107h53v26h-53z"/><path fill="#dde6e4" d="M101 136l-8 2 5 10z"/><path fill="#775942" d="M98 148h4v32h-4z"/><path fill="#696252" d="M105 133h17v16h-17z"/><path fill="#7395c5" d="M75.2 248.2l26.6-8-20 30.8-16.1-39.1z"/><circle r="1" fill="#191205" transform="rotate(-69.7 80.5 -10.8) scale(1 18.27457)"/><path fill="#afa392" d="M137.7 123l-48.6 64.6 5.7-33.2 6.1 12.3z"/><path fill="#5136a1" d="M21 258.1l-1-8 19-2.2 1 8z"/><path fill="#2c2416" d="M17.4 119l1.5-7.8 19.7 3.8-1.5 7.8z"/><ellipse cy="138" fill="#827a62" rx="2" ry="65"/><path fill="#e3d4c3" d="M136 180l38 6-3 10z"/><path fill="#c6b59e" d="M18 175l68 11-61 7z"/><path fill="#e8fcff" d="M104.6 152l9.4-3.7 1.4 3.8-9.4 3.6z"/><path fill="#d0d2c3" d="M43 45L0 50l-2-14z"/><path fill="#91805d" d="M112 66h5v38h-5z"/><path fill="#827968" d="M17 127l24-6 4 28z"/><path fill="#f1dab5" d="M97.7 254l-22.3 17 12.2-2.7 49.6-23.2z"/><path fill="#e4d9c5" d="M79 104h25v10H79z"/><path fill="#2f364a" d="M82.6 68.4l-8-6.1 6.8-8.7 8 6.1z"/><path fill="#4b584e" d="M159.6 84.2l3.5 11.5-6.7 2-3.5-11.4z"/><path fill="#c7cfc9" d="M105.5 205.8l-13 2.9 13.6 3.8 63.5-27.3z"/></g></g></svg>