<svg xmlns="http://www.w3.org/2000/svg" viewBox="0 0 1400 2098"><defs/><filter id="a"><feGaussianBlur stdDeviation="12"/></filter><rect width="100%" height="100%" fill="#392c24"/><g filter="url(#a)"><g fill-opacity=".5" transform="translate(4.1 4.1) scale(8.19531)"><circle cx="100" cy="131" r="192" fill="#fff"/><circle r="1" fill="#ecf0e2" transform="rotate(-130.6 75.8 -3.5) scale(117.07754 79.27183)"/><ellipse cx="64" cy="190" fill="#895f2b" rx="66" ry="61"/><circle r="1" fill="#fff" transform="matrix(98.77341 -28.65641 8.36351 28.82749 152.3 255)"/><ellipse cx="14" cy="240" fill="#e8f4ef" rx="18" ry="38"/><path fill="#160b00" d="M105.1 176l-23.9-2.1L85 132l23.9 2.1z"/><circle r="1" fill="#afafa0" transform="matrix(-19.82435 54.31198 -69.89617 -25.51271 56.5 79.7)"/><circle r="1" fill="#fcffff" transform="matrix(54.97112 -8.87576 3.4642 21.45513 139.2 21.5)"/><circle r="1" fill="#f9dfc1" transform="rotate(37.6 -141.7 280.8) scale(17.6226 51.93362)"/><circle r="1" fill="#7e4231" transform="rotate(-87.5 169.2 44.9) scale(21.25435 36.7272)"/><ellipse cx="23" cy="76" fill="#341a00" rx="4" ry="41"/><path fill="#593f1a" d="M186.1 155.3L171.5 188l-25.6-11.4 14.6-32.8z"/><circle r="1" fill="#472f06" transform="matrix(.46559 -2.81238 33.80847 5.59696 52.3 43.5)"/><path fill="#dadeda" d="M33 63h35v72H33z"/><circle r="1" fill="#fff" transform="matrix(-52.5707 16.07247 -5.64286 -18.45695 157.5 241.7)"/><path fill="#e5dfbd" d="M77.7 211l29.5 32.7-15 13.3-29.4-32.7z"/><path fill="#300d01" d="M26.3 204.9l15.6-4.2 71.5-13.2-89.2 28.6z"/><path fill="#43320e" d="M35 229h32v27H35z"/><path fill="#593a03" d="M-16 191l48-54-47-1z"/><path fill="#8a8978" d="M85 47h41v66H85z"/><circle r="1" fill="#ffffe0" transform="matrix(-2.93761 7.90034 -30.63016 -11.38932 170 199.4)"/><ellipse cx="72" cy="79" fill="#5d3803" rx="3" ry="36"/><path fill="#150700" d="M74.5 209.4l-5.1-13.2 13.9 3.6 30.7 37.1z"/><circle r="1" fill="#ccd0c8" transform="matrix(-19.53382 1.02022 -3.73957 -71.60066 0 65.2)"/><path fill="#d2b48f" d="M119.2 160.5l-36.7-.3-9.1 35.5L60.1 146z"/><path fill="#4e2700" d="M25 110h33v5H25z"/><path fill="#fbfafb" d="M90.1 55.1l19.4 79.6 30.9-24-47.7 1.6z"/><path fill="#eef6ff" d="M165 51l15 93-26 2z"/><circle r="1" fill="#ebebed" transform="matrix(.25756 1.35744 -47.10976 8.93849 95 188.4)"/><path d="M28.2 216.7L45.7 271l-1.3-16-14.8-48.8z"/><ellipse cx="87" cy="72" fill="#5c3e14" rx="3" ry="27"/><path fill="#0e1618" d="M80.6 115.3l-5.4 2.4-.4 13 8.7-2.6z"/><path fill="#2b4729" d="M111 94h11v16h-11z"/><ellipse cx="94" cy="126" fill="#343030" rx="14" ry="3"/><path fill="#cbcdc7" d="M124.4 70.9L85.3 85.7 118.7-16 53.2 17.8z"/><path fill="#e2bf94" d="M108 131h37v41h-37z"/><ellipse cx="79" cy="67" fill="#e3e7e5" rx="5" ry="50"/><path fill="#bec1b8" d="M142 55L16-10l-32 35z"/><path fill="#d9dedc" d="M10 116h60v17H10z"/><path fill="#ecedf0" d="M125.7 111.3l2.2-61.1L141.5 97 122 137.1z"/><circle r="1" fill="#c2c1b7" transform="matrix(13.37292 52.4733 -18.27337 4.657 19 255)"/><path fill="#626259" d="M57.4 98.5l.7 7.9h10.2l.4-10.4z"/><path fill="#654d2c" d="M96.9 47.5l-17.1 3 35 5 14.1 1.7z"/><path fill="#e8e6e1" d="M83.4 73.1l1.4 63 23.2-24.4-33.8 6.1z"/><path fill="#9a9c9c" d="M138 51l15 38 18-56z"/><ellipse cx="100" cy="99" fill="#2f373d" rx="2" ry="13"/><path fill="#261604" d="M105 158l-23 10 28 13z"/><path fill="#1e0f00" d="M105 151.2l-23 1.6-1-14 23-1.6z"/><path fill="#c0c4bf" d="M26 52h45v47H26z"/><path fill="#cbbb8e" d="M70 203l41 37-67-29z"/><path fill="#634823" d="M158.6 158.3l7 16.1-41.3 5.6 28.3-14.4z"/><path fill="#b09065" d="M36 134h46v53H36z"/><path fill="#fff" d="M69 109l-39-1 4-10z"/><path fill="#4f432b" d="M19 135h46v4H19z"/><path fill="#f2f9ff" d="M176.4 129.2l-59.2 2-22-15.1 31.9 9.1z"/><path fill="#3b261c" d="M79.5 210.8l-11-11.9 53.1 35.2-14.7 4.6z"/><path fill="#e4efe7" d="M104 80.3l5 .5-3 32.9-5-.5z"/><path fill="#89959b" d="M126.6 125.8l21 1.1 9.9-2.1-16.1-8.4z"/><ellipse cx="124" cy="70" fill="#694a25" rx="2" ry="20"/><circle r="1" fill="#feffff" transform="rotate(-76.6 239.9 14.6) scale(26.26496 23.2899)"/><circle r="1" fill="#ae846a" transform="matrix(-4.5098 7.57483 -26.68468 -15.88715 138 203)"/><path fill="#252b37" d="M111 76h3v30h-3z"/><path fill="#b89a76" d="M85 132h38v4H85z"/><path fill="#dbdfde" d="M124.2 58.6l-35.3 9.5 3.7-14.8 13.8 1.8z"/><path fill="#d2d4d1" d="M31 234l-7-33-32 7z"/><path fill="#fedebe" d="M168.3 208.5L134 188.7l52-7.7-18.5 19z"/><path fill="#9f926c" d="M68.4 254.4l40.3-16.1-58.5 3.4 6.6 28.5z"/><ellipse cx="113" cy="82" fill="#f6ffff" rx="8" ry="3"/><path fill="#6c5835" d="M76.1 188l-80.7 19.7-6.2 8.7 14.1-18.5z"/><path fill="#fff" d="M94 85h6v26h-6z"/><path fill="#7a5a23" d="M22 111h53v4H22z"/><path fill="#f2f4f4" d="M70.4 67.9l.2 16-13 .2-.2-16z"/><path fill="#aa8a63" d="M105 183l9-25 12 20z"/><path fill="#58451c" d="M19 39h6v43h-6z"/><path fill="#30373b" d="M125 75l-16 3 11-7z"/><path fill="#a3a2a2" d="M169 67h2v103h-2z"/><path fill="#c3ab8f" d="M67 129h14v49H67z"/><path fill="#3d1304" d="M51 231h18v8H51z"/><path fill="#543e26" d="M158 181l-11 1 15-36z"/><path fill="#0a131c" d="M99.9 81.3l11.8-5.5.4 1-11.8 5.4z"/><path fill="#fff" d="M45 121h21v8H45z"/><ellipse cx="80" cy="131" fill="#deeaf5" rx="19" ry="2"/><path fill="#88714b" d="M14 138l-29 70 70-71z"/><circle r="1" fill="#5e4d2c" transform="matrix(24.92012 3.55635 -.31044 2.17531 42.2 43)"/><path fill="#a0a098" d="M41.7 123.1l14.1-35.7-12.6 17.2 12.1 15.9z"/><path fill="#858277" d="M111 64L88 74l-2 12z"/><path fill="#9b8975" d="M163 146h8v44h-8z"/><path fill="#a9a59c" d="M160 78h2v72h-2z"/><path fill="#4e341e" d="M41 211.4l49.8-14.1-49.9 3.4-15.6 8.5z"/><circle r="1" fill="#edeeeb" transform="matrix(-63.60621 13.92503 -2.90906 -13.28789 156.7 18.2)"/><path fill="#fff" d="M162 56h5v89h-5z"/><path fill="#cdd5d9" d="M62 256l43-16 60 26z"/><path fill="#d17552" d="M129 232l-29-22 4 15z"/><circle cx="114" cy="22" r="29" fill="#dadcd7"/><path fill="#9c8954" d="M64.6 217.7l-26.1-6.4-.4 19.6 6 11.6z"/><circle r="1" fill="#b6b3a5" transform="rotate(117.9 -69.3 132) scale(20.45704 26.42685)"/><path fill="#030000" d="M82 172l1 7 3-1z"/><path fill="#5b503b" d="M63.7 133.7l-70.5 5.9 39.1-1.3 50.2-3.6z"/><ellipse cx="109" cy="117" fill="#fbf3e9" rx="17" ry="7"/><path fill="#a5492d" d="M161 200h10v3h-10z"/></g></g></svg>