<svg xmlns="http://www.w3.org/2000/svg" viewBox="0 0 1400 2098"><defs/><filter id="a"><feGaussianBlur stdDeviation="12"/></filter><rect width="100%" height="100%" fill="#574638"/><g filter="url(#a)"><g fill-opacity=".5" transform="translate(4.1 4.1) scale(8.19531)"><circle cy="77" r="226" fill="#f2f6eb"/><path d="M80.6 161.6l-41.1 92.2-84-37.4 41-92.2z"/><circle r="1" fill="#ecf1ef" transform="matrix(164.95766 -41.09707 17.60502 70.66398 68.3 47)"/><circle r="1" fill="#401f02" transform="rotate(174.1 52.2 80.3) scale(35.36496 43.99444)"/><ellipse cx="140" cy="68" fill="#37280f" rx="5" ry="138"/><circle r="1" fill="#f6e3c5" transform="matrix(26.90692 22.30953 -18.6967 22.5496 108.2 226.4)"/><circle r="1" fill="#fff" transform="matrix(-48.82458 -35.6035 8.45834 -11.59928 20 73)"/><path fill="#80561d" d="M148 183.5h34v75h-34z"/><ellipse cx="92" cy="46" fill="#362303" rx="8" ry="12"/><path fill="#e5e9e9" d="M144 159l38-70-36-75z"/><path fill="#181a0e" d="M0 194h57v40H0z"/><path fill="#e4cca7" d="M3.7 235.9l42-.8.6 39-42 .8z"/><path fill="#111c1a" d="M127 148h18v48h-18z"/><path fill="#fcf6ee" d="M65 228l-12-33 62 32z"/><path fill="#595347" d="M25.8 139.6l49.5-11.1L87 213.6l-103-72.3z"/><path fill="#e3d2b8" d="M70 177l56 6-56 9z"/><path fill="#f5f9fb" d="M28 28h21v108H28z"/><ellipse cx="18" cy="96" fill="#10181a" rx="13" ry="4"/><path fill="#6e5637" d="M12 33h15v22H12z"/><path fill="#827255" d="M54.2 94.8l-8.5-37.1L48 69.2l28.1-8.9z"/><path fill="#b4aba2" d="M66 115h20v51H66z"/><path fill="#a49178" d="M172 256l1-146-39 24z"/><ellipse cx="93" cy="173" fill="#2d1e0c" rx="36" ry="7"/><path fill="#fff" d="M48 81l-64 21 13-65z"/><circle r="1" fill="#7a7463" transform="matrix(13.68985 -21.0898 4.46078 2.8956 104.3 38.8)"/><ellipse cx="17" cy="147" fill="#fff" rx="33" ry="1"/><path fill="#c8b99e" d="M120 194h28v62h-28z"/><path fill="#98825f" d="M44.5 238.3l-4.9 16 64.7-7-38.9-22.9z"/><path d="M61 196l25 11-24-22z"/><path fill="#796d57" d="M50 136h8v104h-8z"/><path fill="#1c2525" d="M16.2 90h1l-1.4 42h-1z"/><path fill="#c8805a" d="M107.4 154.5L91.7 148l13-30.4 15.6 6.6z"/><circle r="1" fill="#070300" transform="matrix(-.7495 17.88269 -2.10181 -.0881 130.6 132)"/><ellipse cx="101" cy="159" fill="#ccb89e" rx="26" ry="3"/><path fill="#775b34" d="M150.2 200.5l-3.5 49.5 21.4 21 17.9-45.6z"/><circle r="1" fill="#dee1de" transform="rotate(-15.2 140.7 -192) scale(17.67442 37.69197)"/><path fill="#ecefee" d="M93 77l-75 23 3 31z"/><path fill="#21231d" d="M35 152h15v77H35z"/><path fill="#6a4f31" d="M84.9 113.6l26.6 5.1-41.2 36 27.3 4.3z"/><path fill="#56472f" d="M94.8 59.6l-1.8.9-17.8-38.1 1.8-.9z"/><path fill="#d8dde2" d="M61.6 142.7l7.6-2.6 5.2 15.2-7.6 2.6z"/><path fill="#7f7260" d="M19.4 42.2l-19-18 2-18.3L-16-6.2z"/><ellipse cx="135" cy="69" fill="#7d6a4d" rx="1" ry="83"/><path fill="#4f433a" d="M49.8 140l22.8-10.2 3.6 8.2-22.8 10.2z"/><path fill="#c9c9c5" d="M0 146h52v3H0z"/><path fill="#69685f" d="M-15.9 94.6l24.8 39.3 73.7 6-62.1 3.6z"/><path fill="#151917" d="M133 154h11v41h-11z"/><path fill="#f7fdff" d="M-16 101h29l3 28z"/><path fill="#4f3623" d="M130 132l-14 62-3-62z"/><path fill="#2b3224" d="M107.3 124.2v13.6l-7.5 20.6-2.6-4.9z"/><path fill="#6b5d4b" d="M41.8-12L29.1 32.2l-1-.2L41-12.2z"/><ellipse cx="17" cy="13" fill="#e8ecea" rx="13" ry="19"/><path fill="#1b221e" d="M0 149h47v10H0z"/><path fill="#f2f2f1" d="M57 199h15v15H57z"/><path fill="#72695c" d="M29.2 223.3l65.4-10.2-19.4-22.3 5.6 21.4z"/><path fill="#f5f0e8" d="M125.3 207.7l-30.2-4.9-13.6-1.9 37.6 18.8z"/><path fill="#070906" d="M0 218h50v9H0z"/><ellipse cx="146" cy="139" fill="#d5e6f2" rx="2" ry="40"/><path fill="#7f6e56" d="M55 86L42 60l12 11z"/><path fill="#c7c8c5" d="M80.8 114.1l-43.3 23.6 14.1-48.3 32.4 56z"/><ellipse cx="50" cy="216" fill="#b3aea6" rx="1" ry="69"/><path fill="#383324" d="M54 223.3l3.4 11.5-13.5 3.9-3.3-11.5z"/><path fill="#f5f8f8" d="M42.3 71.8L-16 111.4l30-41.5 17.9-29.5z"/><path fill="#2f1d07" d="M95 42l14.6-13.6L111 30 96.4 43.6z"/><path fill="#b8ae9b" d="M151.1 54.6L145.6-16 186 3.5l-32.4 18.8z"/><circle r="1" fill="#f5f5e9" transform="matrix(-.58912 -5.33622 3.05628 -.33742 19.7 45)"/><path fill="#6f6e63" d="M16 126l-20 23 39-8z"/><path fill="#5f5743" d="M0 137h55v10H0z"/><ellipse cx="104" cy="190" fill="#4a4536" rx="22" ry="3"/><path fill="#e7f0eb" d="M119 108l15-7-3 11z"/><path fill="#7e715e" d="M36.8 20.2L23.7 38.6l3.7 2.7L9.7 40z"/><path fill="#210b01" d="M86 153h30v4H86z"/><circle r="1" fill="#f3f5f4" transform="matrix(-4.53366 -30.97506 13.10153 -1.9176 2 56.4)"/><path fill="#4e3c21" d="M60 68h4v14h-4z"/><path fill="#a79878" d="M122 154h5v47h-5z"/><path fill="#e6e8e5" d="M144 39h26v36h-26z"/><path fill="#c1b29c" d="M110.7 183.2l-39.9-6.8 2.6 8 3.2 10.4z"/><path fill="#1b130d" d="M51 116h3v6h-3z"/><path fill="#392b19" d="M88 178h3v13h-3z"/><path fill="#c1c0b3" d="M96.2 44l-3.5-3.2L89.4-16l1 73.6z"/><path fill="#423c20" d="M151 63h1v26h-1z"/><ellipse cx="136" cy="106" fill="#6d614c" rx="3" ry="40"/><path fill="#807d73" d="M46.8 133.4l14.4 10.7 7.2-31.7 4.7 9.5z"/><path fill="#504634" d="M117 18l-2 5-2-14z"/><path fill="#d0d0cd" d="M146 98l37 53 3-103z"/><path fill="#d2d9de" d="M7 126h53v5H7z"/><path fill="#d4d7cf" d="M55.2 84.1l.6-13.4 38.6 39-15.2-53.6z"/><path fill="#463a27" d="M137 38h2v71h-2z"/><path fill="#fff" d="M59 219h28v4H59z"/><path fill="#372813" d="M80.7 29.2l9.4 13-.8.6-9.4-13z"/><path fill="#a5957b" d="M138 86h3v65h-3z"/><path fill="#eef1ee" d="M56.4 88.4l-7-5.7 6.2-46.5-24.1 84.7z"/><path fill="#674c26" d="M59.3 71l-8.2 3.6-2.4-5.5 8.2-3.7z"/><path fill="#43341c" d="M130 177l-13-15-34 2z"/><path fill="#c09665" d="M103.6 155l16.3-31.1-9.3-7.9-1.5 3.5z"/><path fill="#d7caba" d="M-8.1 237.8l26.8 24.9L46.4 252l-33.7-8.2z"/><circle cx="49" cy="149" r="2" fill="#fff"/><path fill="#7b6a50" d="M43.3 66.2l-5.5-16 1-.4 5.4 16z"/><path fill="#f8f7f6" d="M65.9 206.4l1.7-3.6 14.5 6.8-1.7 3.6z"/><path fill="#beaf93" d="M135.8 114l-2.6 38h-1l2.6-38z"/></g></g></svg>