<svg xmlns="http://www.w3.org/2000/svg" viewBox="0 0 934 1400"><defs/><filter id="a"><feGaussianBlur stdDeviation="12"/></filter><rect width="100%" height="100%" fill="#563f27"/><g filter="url(#a)"><g fill-opacity=".5" transform="translate(2.7 2.7) scale(5.46875)"><circle r="1" fill="#fff" transform="matrix(-135.05049 103.2539 -83.80713 -109.61518 68.5 107.2)"/><circle r="1" fill="#f6faf8" transform="matrix(-1.70443 81.36857 -169.96273 -3.56021 75 61.6)"/><ellipse cx="96" cy="239" fill="#8b5c1f" rx="77" ry="52"/><path fill="#c8c2ba" d="M51 59l135 31v181z"/><circle r="1" fill="#d5cbc0" transform="matrix(-32.50827 -11.94316 26.98566 -73.45267 20.3 167)"/><ellipse cx="91" cy="240" fill="#552900" rx="58" ry="9"/><circle r="1" fill="#977d56" transform="matrix(-16.2984 13.82653 -44.69958 -52.69086 107.5 187)"/><path fill="#c8a884" d="M0 250h171v6H0z"/><ellipse cx="84" cy="97" fill="#a4a8ab" rx="22" ry="35"/><path fill="#eae8e0" d="M160 72l-13-88-95 78z"/><ellipse cx="39" cy="69" fill="#e3dfd9" rx="27" ry="43"/><path fill="#676d70" d="M107 156l-30-9 5-26z"/><circle r="1" fill="#d1c6bc" transform="rotate(34.5 -157.7 309.1) scale(27.50248 41.13621)"/><circle r="1" fill="#a9967f" transform="matrix(7.4069 -33.1366 19.11363 4.2724 169.8 216.6)"/><path fill="#60441d" d="M130 211l40 49-76-22z"/><path fill="#eaf5ff" d="M87 100h8v38h-8z"/><circle r="1" fill="#c9c4bf" transform="matrix(-14.10917 -20.13503 31.7902 -22.27627 43.4 140.5)"/><path fill="#916b3a" d="M21 239l34 9v-73z"/><ellipse cx="77" cy="160" fill="#fff0e0" rx="11" ry="3"/><circle r="1" fill="#463926" transform="rotate(178.9 38.9 114) scale(42.1705 1)"/><ellipse cx="120" cy="80" fill="#b9ab90" rx="6" ry="31"/><circle r="1" fill="#ba986d" transform="matrix(4.7409 -20.69985 27.50547 6.2996 79.2 184)"/><ellipse cx="138" cy="81" fill="#e9e5de" rx="13" ry="35"/><path fill="#836235" d="M2 271h25l-5-36z"/><path fill="#9f9d97" d="M110.8 136.2l-15.9 14.9 4.4-88.7 3.9 54z"/><path fill="#e6bda4" d="M32 249L1 271l80-18z"/><path fill="#b2a495" d="M-37.9 247.3l37-64L40 206.6l-37 64z"/><path fill="#ebeae7" d="M107.4 60.5l-38.1-3.4L128 38l-20.9 71.6z"/><ellipse cx="68" cy="132" fill="#8c9098" rx="5" ry="19"/><circle r="1" fill="#483a1e" transform="matrix(3.37177 6.23606 -1.92022 1.03824 82.6 126.7)"/><path fill="#efd5c6" d="M63 187l20-9-26 1z"/><circle r="1" fill="#bcb0a2" transform="rotate(-45.9 309.6 -88.2) scale(16.84246 39.148)"/><circle r="1" fill="#8a683c" transform="matrix(-5.0851 3.26458 -21.39059 -33.31927 167.7 249.2)"/><path fill="#a6a096" d="M69 69h36v21H69z"/><path fill="#c0b6a9" d="M164.5-2l29.3 13-18.3 41-29.3-13z"/><path fill="#f5ffff" d="M74 133v-23l7 25z"/><ellipse cx="90" cy="217" fill="#362e1f" rx="47" ry="1"/><circle r="1" fill="#d8d3cb" transform="matrix(-16.3512 10.29913 -21.87372 -34.72736 108.7 15.4)"/><path fill="#56360c" d="M76 245l68-15 12 19z"/><path fill="#9d8059" d="M113.8 231.9l24.9-15.8-37.2 9 58.2 4.1z"/><ellipse cx="141" cy="25" fill="#f2f5f9" rx="8" ry="14"/><circle r="1" fill="#ccc1b6" transform="matrix(-44.7281 -58.25054 12.69091 -9.74481 7.8 123.1)"/><path fill="#d9e0ea" d="M86 100l-12-4 1 29z"/><path fill="#a3855b" d="M132 194l-36-56 3 72z"/><ellipse cx="100" cy="209" fill="#3f3421" rx="41" ry="1"/><path fill="#9e8059" d="M86.6 163.9l-34.2 19.2 7-17.6 16 2.9z"/><path fill="#754e1d" d="M86 224l11 24H58z"/><path fill="#dadde9" d="M78 138l1-7 12 6z"/><circle r="1" fill="#cdc4b8" transform="matrix(-22.3066 -13.7231 7.77464 -12.6375 72.8 24)"/><path fill="#ded0ae" d="M86 159h17v3H86z"/><path fill="#8c5b25" d="M36 232h44v17H36z"/><circle r="1" fill="#80827f" transform="matrix(-.98604 -.1665 .964 -5.70933 87.5 109.4)"/><ellipse cx="88" cy="213" fill="#473c29" rx="45" ry="1"/><path fill="#e1e0da" d="M79 0h77v11H79z"/><path fill="#574a34" d="M40 221h70v2H40z"/><path fill="#b1a797" d="M114 68h6v43h-6z"/><path fill="#d1ccc1" d="M130.1 21.6L146.3-16l-34.5 44.8 18.7 50.6z"/><path fill="#8e714a" d="M106.3 229l45.8 5.7 7.1 33 26.8-37.4z"/><path fill="#d3ccc5" d="M125 94h27v57h-27z"/><ellipse cx="81" cy="211" fill="#d0ab78" rx="49" ry="1"/><path fill="#ab8a5f" d="M68 184l-35 35 15-30z"/><path fill="#b79464" d="M88 223h63v2H88z"/><circle r="1" fill="#b19877" transform="matrix(.53722 .84344 -42.0636 26.79195 85.2 206.7)"/><path fill="#bdb5ab" d="M52.4 123.1l14.6-5.2-3.8 42.4-10.6 19.6z"/><ellipse cx="86" cy="199" fill="#5a4a34" rx="37" ry="1"/><circle r="1" fill="#eff1ed" transform="matrix(-8.07427 13.87298 -5.2785 -3.07216 144.4 59.4)"/><path fill="#878a87" d="M84 115l4-9-9 2z"/><path fill="#e2e8f4" d="M95 117l-20-2 9 6z"/><ellipse cx="110" cy="74" fill="#eeeeea" rx="3" ry="36"/><circle r="1" fill="#767674" transform="matrix(13.56186 5.7342 -3.1545 7.46065 89.2 148.3)"/><ellipse cx="72" cy="219" fill="#bf9e72" rx="64" ry="1"/><path fill="#d4cec6" d="M11 118l58-35-28 76z"/><path fill="#b0aeaa" d="M93.1 71.9L66.6 59.1l-1.2 37.8 2.5 10.9z"/><path fill="#644720" d="M130 200.6l.6.7-24.5 22.1-.7-.7z"/><circle r="1" fill="#c2b8af" transform="matrix(-4.12737 67.97458 -6.04074 -.36679 169.8 110.8)"/><path fill="#cbc4b6" d="M111.3 159l64.2 71.3-.8.7-64.2-71.3z"/><path fill="#af8b64" d="M36 249l82.6.4-25.5 4.2 25.4 14.3z"/><path fill="#dcc1aa" d="M77 178.2l-18.2-1.9-4.6 12.7-5.5.7z"/><path fill="#d4cdc3" d="M186 55.6l-81.1-15.8 55.4 1.2-24.5 89z"/><path fill="#9f7e54" d="M92.9 141.3l44 72.4 16.6 29.1-3.2-27.7z"/><circle r="1" fill="#726358" transform="matrix(-2.6271 4.25305 -.85078 -.52552 6.8 224.7)"/><path fill="#9e7f58" d="M66 163.7l2.7-9.4-10.4 15.4-2.6 15.9z"/><path fill="#7c5220" d="M61.3 244.8l19.3-22.5-25.1 14.3-17.2 4z"/><path fill="#bba17c" d="M89.1 232.1l-.6-.8 18.4-15.4.6.8z"/><path fill="#e8c5b2" d="M43 257H27v-6h16z"/><path fill="#767063" d="M81.6 131.7l1.4.1-5.6-14.4 11.7 9.7z"/><path fill="#ad926c" d="M77 229.4l28.2-24.1L89 203l24.3 1.7z"/><path fill="#ae936f" d="M77 161h24v32H77z"/><ellipse cx="80" cy="196" fill="#65553d" rx="28" ry="1"/><ellipse cx="110" cy="90" fill="#dcdad1" rx="8" ry="7"/><path fill="#c5bbb1" d="M-4 76l-7 73 48 43z"/><path fill="#b19063" d="M103 228h33v3h-33z"/><path fill="#b29c7d" d="M123.8 178.7l-141.1 81.5-.5-.9 141.1-81.5z"/><path fill="#7a562e" d="M42.6 248.1L37 225.4l17 3-8.4-13.5z"/><path fill="#e1d8e6" d="M71.2 149.7l7.8 1.6-.2 1-7.8-1.6z"/><path fill="#4b391e" d="M106 223l-9 2 5 3z"/><circle r="1" fill="#efeeed" transform="matrix(-12.74729 .04305 -.0317 -9.38456 98.7 53.7)"/><path fill="#939498" d="M66 139h44v4H66z"/><path fill="#b09673" d="M54.3 234.4l28.3-15.7 30.9-25.7L69 225.1z"/><ellipse cx="41" cy="56" fill="#dfdbd3" rx="9" ry="64"/></g></g></svg>