<svg xmlns="http://www.w3.org/2000/svg" viewBox="0 0 1400 2098"><defs/><filter id="a"><feGaussianBlur stdDeviation="12"/></filter><rect width="100%" height="100%" fill="#43432c"/><g filter="url(#a)"><g fill-opacity=".5" transform="translate(4.1 4.1) scale(8.19531)"><circle cy="210" r="215" fill="#b89483"/><circle r="1" fill="#cfe7a8" transform="matrix(-2.75299 28.26489 -156.23981 -15.21768 38.1 255)"/><path fill="#350005" d="M153.7 124.5l.6 39-114 2-.6-39z"/><path fill="#fff3ae" d="M-9 128l116-15-120-21z"/><circle r="1" fill="#213312" transform="matrix(2.37031 64.72707 -26.2342 .9607 93.3 49.7)"/><circle r="1" fill="#b6f4ba" transform="matrix(-36.2499 -6.6867 5.33921 -28.9449 25.7 4.6)"/><ellipse cy="173" fill="#dbdfab" rx="23" ry="62"/><ellipse cx="59" cy="206" fill="#ff2480" rx="37" ry="16"/><circle r="1" fill="#0d4629" transform="matrix(14.74183 13.0884 -26.51018 29.85914 28.9 66.6)"/><circle r="1" fill="#988463" transform="matrix(-18.24142 1.56384 -7.04064 -82.12551 145.3 34.6)"/><path d="M109.1 221.7L56 235.9l-3.1-11.6 53.1-14.2z"/><path fill="#dce7e0" d="M138 226l-15-19-36 29z"/><circle r="1" fill="#374b29" transform="matrix(-30.18053 39.19022 -20.77413 -15.99823 170 196.7)"/><path fill="#54020b" d="M36 175h100v11H36z"/><path fill="#d3f3b4" d="M52 28l14 55 2-54z"/><path d="M35 209l-19 7 42 11z"/><path fill="#ceaada" d="M61 190h74v10H61z"/><ellipse cx="20" cy="47" fill="#537f5e" rx="19" ry="28"/><path fill="#ab4460" d="M16 117h35v80H16z"/><ellipse cx="96" cy="114" fill="#ffadb2" rx="71" ry="3"/><path fill="#0f180d" d="M0 74h33v23H0z"/><path fill="#cceb95" d="M39 76l5 39 11-42z"/><ellipse cx="97" cy="120" fill="#ce2020" rx="65" ry="4"/><path fill="#171b06" d="M84-11L61 3l16 60z"/><path fill="#dfeed9" d="M19.5 10.6l-.7-25.7L-16 28.8V55z"/><path fill="#f73869" d="M57.3 189.7l43.7 26.1-31.1 7.4-55.6-12.7z"/><path fill="#425330" d="M125 82l6 30L27 94z"/><path fill="#050009" d="M116.7 210.7l-20.3 19-20.9-.1-27.4-1z"/><path fill="#969776" d="M84 0h6v114h-6z"/><path fill="#2a0812" d="M126.4 123.3l-70.2 9.8 102.2 2.8 2-18.4z"/><path fill="#000800" d="M59.7 58l-1.5 17-12-1 1.6-17z"/><path fill="#532328" d="M41.4 186.2l13.1 8.2.9-23.5-42.9-10.8z"/><path fill="#fb92a4" d="M69 207l-54-8 85-11z"/><path fill="#d4eea3" d="M-9.8 143.9l45.2 21-20.9-17.5.2-41.8z"/><path fill="#33103f" d="M120.2 205.5l-32.1-10.6 16.1 31.8-8.9-11.4z"/><circle r="1" fill="#1f331d" transform="matrix(-5.81243 -.8922 2.45251 -15.97753 14.8 44)"/><path fill="#80a38e" d="M36.1 39.7L17.2 53.8l2.9 9.5.9 25.3z"/><path fill="#efbcbd" d="M55 167h40v3H55z"/><ellipse cx="19" cy="105" fill="#afd279" rx="40" ry="9"/><path fill="#b0b196" d="M105 109l1-19 9 7z"/><path fill="#212f1b" d="M-9.5 52.4l-4.3 45.3 19.4-2.9 39.6 1.6z"/><path fill="#b5c781" d="M68 230l-81-1 14 42z"/><path fill="#bb9280" d="M21 175h18v29H21z"/><path fill="#1a1f10" d="M71 76h14v26H71z"/><circle r="1" fill="#7a6d71" transform="matrix(-38.45596 -.775 .07807 -3.87378 139 246.4)"/><path fill="#343219" d="M101.1 58.1l23.1-19.2L113.3-16 86.2-2.2z"/><ellipse cx="82" cy="184" fill="#a56b4a" rx="20" ry="6"/><path fill="#c4bfb1" d="M127.7 197.1l-49.1 70.4 34.6-29.7 2.1 9.2z"/><path fill="#cbdcaf" d="M68 48l-5 40-5-36z"/><path fill="#c40c43" d="M64.1 222l-2-15.9L96 202l2 15.9z"/><ellipse cx="114" cy="161" fill="#541b21" rx="36" ry="6"/><circle r="1" fill="#687151" transform="matrix(28.06323 -49.70794 9.31358 5.2581 154.8 170)"/><path fill="#a60029" d="M46 201l-5 15-25-5z"/><circle r="1" fill="#f5847a" transform="matrix(-54.54785 2.19257 -.11724 -2.91666 116.2 115.3)"/><ellipse cx="50" fill="#f0faff" rx="3" ry="17"/><path fill="#11090f" d="M76.1 227.7l-52.9-15.1-10.8 2.1 30.9 11.4z"/><path fill="#4e4c32" d="M164 94l-8-30 30-46z"/><path fill="#54021e" d="M39 154h7v41h-7z"/><path fill="#ffffe6" d="M54 110h32v3H54z"/><path fill="#7da06b" d="M61 23l-77-11 57 29z"/><ellipse cx="127" cy="48" fill="#65654b" rx="10" ry="57"/><path fill="#7d8ab7" d="M99 187h30v14H99z"/><path fill="#413f2a" d="M117.4 83.8l12.5 27.9-45.7 1.6 27.3-5.9z"/><path fill="#c9d393" d="M48.9 103.8l-51.8 24.3 57.8-36.9-15.7-17.6z"/><path fill="#415f2b" d="M72.5 107.8l-21.2-50 8.2 44-13.4 7.4z"/><path fill="#a78da7" d="M43.3 165.5l-14.2-19.3-11 43.4 1-38.4z"/><circle r="1" fill="#9c726a" transform="rotate(3.3 -2482 1292.7) scale(63.33056 1)"/><path fill="#afb789" d="M165 104l5-39 16 23z"/><path fill="#ad7579" d="M48 163h63v8H48z"/><path fill="#81937a" d="M45.8 28.5l-3.2 1.2 20.2 17.7 1-63.4z"/><ellipse cx="17" cy="173" fill="#703737" rx="2" ry="28"/><path fill="#e2c5ca" d="M46.2 215.9l13.2-17.6 2.4 1.8-13.2 17.6z"/><ellipse cx="147" cy="62" fill="#9b8969" rx="6" ry="50"/><path fill="#202d19" d="M27.3 85.2L57 68.6l-1.1-19.5L42 55.2z"/><path fill="#32331c" d="M66 6h19v39H66z"/><ellipse cx="29" fill="#597039" rx="4" ry="15"/><path fill="#e28a94" d="M41 114.6l-31 22.8 50.6-23.2-60 8.1z"/><ellipse cx="96" cy="177" fill="#330504" rx="49" ry="2"/><path fill="#292a23" d="M-6 174l11 2 9-4z"/><path fill="#c4bd99" d="M87.2 116.1l-6.7-8.5.2 10.3L89 82.2z"/><path fill="#59131e" d="M160.1 116.5l-14.4-2.7 9.1 33.5 6.1-27.9z"/><path fill="#310910" d="M52 126h94v8H52z"/><path fill="#f94974" d="M94.2 206.6l-4.6-14.1-33.7 20.7 27.1-9.5z"/><path fill="#87886d" d="M130 259l13-59-21-10z"/><path fill="#fff" d="M17.9 13.2l-6-.5 2.2-26 6 .6z"/><circle r="1" fill="#c3e084" transform="matrix(-6.45955 -5.77756 2.27084 -2.5389 0 55)"/><path fill="#283721" d="M42.4 88.8l-.9 10-17.9-1.6.9-10z"/><path fill="#e9eafc" d="M87 34h3v11h-3z"/><ellipse cx="93" cy="255" fill="#d0ca95" rx="38" ry="6"/><path fill="#c59289" d="M82 169h65v3H82z"/><path fill="#fff" d="M6.4 11.9l-5.1 3-7.7-12.8 5.1-3z"/><ellipse cx="90" cy="124" fill="#a35a5e" rx="52" ry="2"/><path fill="#d3d0b3" d="M-8.2 270l20.9-16.4-28.7.1 37.7-26.4z"/><path fill="#a5c5ab" d="M25.7 37.5l-3.4-7.8 15.8-6 6.1 4.5z"/><ellipse cx="84" cy="135" fill="#84665f" rx="35" ry="2"/><path fill="#98a66b" d="M-.1 201.1l11.7-3.9 5.2 41.6L78.5 271z"/><path fill="#394b2b" d="M12 23h11v22H12z"/><path fill="#808859" d="M66 30h4v50h-4z"/><path fill="#554748" d="M63.6 180.7l4 7.1-17 5.9-23.3 7z"/><path fill="#ad1e22" d="M35 117l14 8-4 16z"/></g></g></svg>