<svg xmlns="http://www.w3.org/2000/svg" viewBox="0 0 1400 2098"><defs/><filter id="a"><feGaussianBlur stdDeviation="12"/></filter><rect width="100%" height="100%" fill="#4f443a"/><g filter="url(#a)"><g fill-opacity=".5" transform="translate(4.1 4.1) scale(8.19531)"><circle r="1" fill="#fff" transform="matrix(-70.46425 -81.3115 128.47161 -111.33303 54.6 95.8)"/><circle r="1" fill="#2c1f14" transform="rotate(166.6 32.1 101) scale(32.80595 46.63369)"/><circle cx="150" cy="115" r="58" fill="#ecefe7"/><circle r="1" fill="#faf8ec" transform="matrix(-21.0022 88.158 -24.65874 -5.87454 18.6 43.9)"/><circle r="1" fill="#d6cec5" transform="matrix(-8.86458 60.3975 -24.6727 -3.62123 17.5 229.7)"/><path fill="#35352a" d="M27.5 74.5l70 12.3-3 16.7-70-12.3z"/><path fill="#482b0e" d="M44 163l-60-52 11 66z"/><circle r="1" fill="#f6f2e0" transform="matrix(22.46606 -23.52738 15.86623 15.1505 132.4 20.4)"/><circle r="1" fill="#4d320e" transform="matrix(20.8062 -30.35018 5.07791 3.4811 83.6 26.4)"/><circle r="1" fill="#948d7f" transform="matrix(17.1895 12.2117 -18.11969 25.5057 141.3 155.5)"/><circle r="1" fill="#bd9e79" transform="matrix(-7.01247 -14.00288 35.60147 -17.82879 156.1 244.5)"/><circle r="1" fill="#161b1b" transform="rotate(-37.4 373.7 -126.1) scale(109.33397 19.80213)"/><path fill="#542a00" d="M48 49l17-65L77 1z"/><path fill="#26210b" d="M90.7 64l3.4-14.7 29.2 6.8-3.4 14.6z"/><circle r="1" fill="#7d7362" transform="matrix(-21.83715 -10.25008 19.32674 -41.17441 57.6 212.3)"/><ellipse cx="66" cy="139" fill="#e6e8e8" rx="46" ry="9"/><path fill="#2e271a" d="M132.7 142l26.8 9.1 23.3-11.7-58.2-1.5z"/><circle r="1" fill="#3a2700" transform="matrix(35.4857 -21.31335 1.5968 2.65858 157.4 39)"/><path fill="#f0ebe6" d="M32 79L5 126l34 23z"/><circle cx="159" cy="70" r="26" fill="#f9f8eb"/><path fill="#151713" d="M91.3 202.6l-6-31.4 29.4-5.8 6 31.4z"/><circle r="1" fill="#fff" transform="matrix(-1.62457 -6.71518 31.21742 -7.55229 19.2 182.3)"/><path fill="#6f8266" d="M36 94h40v37H36z"/><path fill="#e5dfd7" d="M75 81.9l-29-19 72.4-15.8-31.6-22.9z"/><path fill="#c5c0b5" d="M116 146h20v39h-20z"/><path fill="#eee8df" d="M59 54L73 6 96-6z"/><circle r="1" fill="#fff" transform="rotate(-79.2 139.7 -21.3) scale(11.5678 16.79827)"/><ellipse cx="102" cy="14" fill="#211800" rx="2" ry="31"/><path fill="#705b36" d="M39.4 92.5l-1.7 40.1-4.4-58.7L75.8-16z"/><circle r="1" fill="#2c2417" transform="matrix(-52.98705 8.82409 -.52821 -3.17181 8.4 167.7)"/><path fill="#fff1e6" d="M0 151h28v4H0z"/><ellipse cx="56" cy="115" fill="#232a2a" rx="3" ry="19"/><path fill="#c9d0b4" d="M39 94h16v28H39z"/><path fill="#706a54" d="M83 61h38v10H83z"/><circle r="1" fill="#d6d3c2" transform="matrix(-43.36393 39.27381 -8.65624 -9.55774 153.6 14.5)"/><path fill="#e0f2cd" d="M77 99h12v28H77z"/><path fill="#625b4b" d="M85 235l-31-21 75-9z"/><path fill="#fff" d="M36 168h19v9H36z"/><path fill="#d1cac1" d="M94 83L45 73l13-32z"/><path fill="#1b273c" d="M37 128h54v3H37z"/><path fill="#d6dacf" d="M57 152l16-6-1-52z"/><path fill="#351f03" d="M100-2.3L89.5 22.6 84 20.3 94.5-4.6z"/><circle r="1" fill="#7c756f" transform="rotate(62.4 -177.7 148.6) scale(14.30427 30.34232)"/><path fill="#bfbbb1" d="M170 148l-29 31-25-31z"/><path fill="#493917" d="M122.8 62.7l-2.7-4.2 51.1-33.2 2.7 4.2z"/><path fill="#744c47" d="M41 154h66v11H41z"/><circle r="1" fill="#e0ded2" transform="matrix(-22.3814 43.36316 -13.6253 -7.03254 29.1 44.9)"/><circle r="1" fill="#cdc9c6" transform="rotate(-53 107.2 42.6) scale(34.23458 19.6112)"/><ellipse cx="59" cy="190" fill="#4d4534" rx="14" ry="10"/><path fill="#d3c9b9" d="M29.7 196l11.6 21-49 27-11.6-21z"/><path fill="#e2e6ea" d="M92 109h9v41h-9z"/><path fill="#161f21" d="M73 101h4v30h-4z"/><circle r="1" fill="#bcb6a8" transform="matrix(5.7862 15.80313 -79.32646 29.04479 4.9 7.9)"/><path fill="#999083" d="M115 161h42v14h-42z"/><path fill="#dcd7d5" d="M102 52l-22-8 18-32z"/><path fill="#929294" d="M108.8 132.2l6.7-6.4 1.6 14.2-25 .8z"/><path fill="#a59c90" d="M26.9 161.7L23.4 140l23.7-3.7 3.5 21.7z"/><path fill="#3f2e15" d="M104.4-.3L65.3 48.3l5.3 6.1 7.8-29.1z"/><path fill="#4e4c47" d="M29.7 73.3l13.5 20.6L56 95.7l26.2-11.5z"/><path fill="#001" d="M37 95h2v33h-2z"/><path fill="#39372e" d="M119 61l-14-13-15 11z"/><path fill="#666254" d="M125.7 139l6.3-3.4 22.3-7-18.2 17.2z"/><circle r="1" fill="#dfe0df" transform="matrix(12.45957 13.2681 -8.5541 8.03284 116.4 88.7)"/><path fill="#c1bda8" d="M150 45l31-17-8 41z"/><path fill="#858275" d="M87.7 61.2l2.2 57.1 20.8-62.4-25 8z"/><circle r="1" fill="#1d1c17" transform="matrix(-4.77348 -12.90272 43.27848 -16.01129 160.5 205.2)"/><ellipse cx="64" cy="109" fill="#b5bfa1" rx="5" ry="15"/><circle r="1" fill="#fff" transform="matrix(-18.69899 7.55488 -1.838 -4.5492 160.2 81.3)"/><path fill="#dad5cd" d="M85.2 9.1l-14.1 6.5L41.8 75l6.3-7.7z"/><circle r="1" fill="#ccc7bb" transform="matrix(-32.04439 2.05741 -1.32919 -20.70228 135.2 17.3)"/><circle cx="85" cy="65" r="3" fill="#070100"/><circle r="1" fill="#3f3d35" transform="matrix(-32.28161 15.25945 -3.9385 -8.33195 150.3 184.9)"/><ellipse cx="97" cy="142" fill="#fff" rx="28" ry="2"/><ellipse cx="89" cy="167" fill="#a09c9b" rx="13" ry="3"/><path fill="#624428" d="M5 141h21v9H5z"/><path fill="#dbd8d2" d="M14 98h22v41H14z"/><path fill="#3e3825" d="M161 135h10v13h-10z"/><path fill="#a38d73" d="M168.3 233.2l10.7 19.2-33.3 18.4-10.7-19.2z"/><path fill="#a2b1b2" d="M61 154h9v6h-9z"/><circle r="1" fill="#99716c" transform="matrix(-22.61457 -8.10085 1.21214 -3.38384 97.1 154.4)"/><path fill="#1a1e1c" d="M-14 178.7l39.1-10.2-15.3-3.8-25.8 20.8z"/><path fill="#886e36" d="M68.9-16L43.5 53.1l18.6-18.9L84.7-16z"/><path fill="#c6c0ba" d="M94 52.4l-7.2-20.9-3.7.6-20.6 48.2z"/><path fill="#b5b2a6" d="M146.4 98.7L186 85.8l-.5 35.9-42.8-14.9z"/><circle cx="103" cy="36" r="4" fill="#554c32"/><path fill="#36332c" d="M124.6 213.9l-12.3-50.3-24.4 19.9.2 20.3z"/><path fill="#dedad6" d="M110 56l28-29-33-13z"/><path fill="#44211a" d="M76 160h28v5H76z"/><path fill="#eef3f7" d="M92 101h3v38h-3z"/><path fill="#5d595b" d="M34.3 251.1l3.9-18.5 10.7 34.6-63.3-15.2z"/><path fill="#1d1e22" d="M88 239l-5 32-15-42z"/><path fill="#f8fbfd" d="M125 114h32v11h-32z"/><path fill="#edeae6" d="M27 172l27-8-10 19z"/><path fill="#b3a794" d="M54 213l-39 23 23-51z"/><path fill="#bbb6b0" d="M29 72L9 90l27 17z"/><path fill="#7b664d" d="M175 213l-74 47 80-25z"/><path fill="#c1c1c0" d="M122.7 156.6L98.8 68.4l37.8 89.3 12.2-26.6z"/><path fill="#4b3c26" d="M100.1 20.6l.1-30.4-36.1 62.6 47.1-66.5z"/><path fill="#a49d90" d="M168.5 168.7l-46.8-10.3 2.5 29 56.1-31.6z"/><circle cx="132" cy="139" r="4" fill="#28221a"/></g></g></svg>