<svg xmlns="http://www.w3.org/2000/svg" viewBox="0 0 934 1400"><defs/><filter id="a"><feGaussianBlur stdDeviation="12"/></filter><rect width="100%" height="100%" fill="#4d392a"/><g filter="url(#a)"><g fill-opacity=".5" transform="translate(2.7 2.7) scale(5.46875)"><circle r="1" fill="#fff" transform="matrix(-60.16907 -95.17806 143.69451 -90.8399 40 105.4)"/><circle r="1" fill="#e9f0e9" transform="matrix(37.07335 -51.2315 45.7118 33.07905 150.7 112)"/><circle r="1" fill="#29251d" transform="rotate(71.8 -90.6 160.1) scale(50.13311 36.06602)"/><circle r="1" fill="#fbfef4" transform="matrix(-20.60035 -2.55577 10.82174 -87.22694 20 45.8)"/><circle r="1" fill="#cfcdc6" transform="matrix(-11.3357 61.26615 -32.42982 -6.0003 14.8 231.9)"/><circle r="1" fill="#ececdd" transform="rotate(146.8 67 27) scale(61.77223 23.18204)"/><circle r="1" fill="#bca786" transform="rotate(60.3 -141.3 262.6) scale(25.27543 62.26016)"/><circle r="1" fill="#211908" transform="matrix(-.6801 5.4602 -31.77714 -3.95805 157.8 142.9)"/><path fill="#4a3318" d="M-16 180l64-18-43-33z"/><circle r="1" fill="#2a2e25" transform="matrix(-32.50497 -6.83676 1.7812 -8.46858 63.5 87.9)"/><path fill="#391f00" d="M70.3 39l-5.8 21L107.4.4 102.7-16z"/><path fill="#797263" d="M93.4 211.7l-33 57.1-45.8-26.5 33-57.1z"/><circle r="1" fill="#aca89b" transform="matrix(-20.35885 11.1413 -6.46583 -11.81523 136 169.6)"/><ellipse cx="106" cy="61" fill="#34341e" rx="17" ry="10"/><circle r="1" fill="#e8eff1" transform="matrix(.40354 8.55709 -34.77699 1.64004 65.7 140.5)"/><path fill="#593500" d="M76-3L59.3 38.7 50 35 66.8-6.7z"/><path fill="#13130e" d="M87 170h29v35H87z"/><circle r="1" fill="#ecede6" transform="matrix(-23.78773 -11.86013 18.17316 -36.44971 144 93.5)"/><path fill="#f7f7f4" d="M15 103h21v37H15z"/><path fill="#1a0800" d="M173.1 26.2l2.1 3.4L127 59.8l-2.1-3.4z"/><path fill="#fff" d="M.9 183.9l52.3-20 4 10.2-52.4 20z"/><ellipse cx="102" cy="19" fill="#100800" rx="2" ry="25"/><circle r="1" fill="#e6e4d5" transform="matrix(-13.2151 44.61342 -12.78555 -3.78725 40.2 24.2)"/><path fill="#132026" d="M69.6 280.8l-16.4-25.2 139.2-90.4 16.4 25.2z"/><path fill="#e0ddd2" d="M51 50l31.4 6.6L76.9 82l-31.3-6.6z"/><path fill="#ebe9e0" d="M101.8-16l-53 86.9 16.4-49.5L96.1-16z"/><path fill="#021813" d="M55 95h5v37h-5z"/><path fill="#655e45" d="M35.9 93.8v46.9L53.2 34.2l-21 41.4z"/><path fill="#ead7cc" d="M2 151h37v5H2z"/><path fill="#21312c" d="M73 86h4v44h-4z"/><path fill="#a69d90" d="M123 183l32-11-54-24z"/><path fill="#0d2129" d="M35.6 129.3l2-38.1 1.1 34.6 24 5.6z"/><circle r="1" fill="#dfded4" transform="matrix(11.02772 8.94508 -15.25137 18.80227 124.5 34.5)"/><circle r="1" fill="#413e38" transform="rotate(-102.7 79.6 72.7) scale(4.28768 38.47425)"/><path fill="#a9a597" d="M133.3 141.9l33-3.7-32.1-45.3 47.9 3z"/><ellipse cx="13" cy="206" fill="#cfc6bc" rx="29" ry="22"/><path fill="#e5fdd7" d="M78 102h10v24H78z"/><path fill="#e1e0e3" d="M75.8 53.2l11.5-20 13 7.6-11.6 20z"/><path fill="#3c3a32" d="M93.7 64.8l16.8-11.2-4.5-6.1-28.1 21.3z"/><path fill="#3e3f39" d="M64 260l115-97-104 45z"/><circle r="1" fill="#6f6861" transform="matrix(-8.3444 -11.45974 34.2363 -24.92916 46.6 238)"/><path fill="#595244" d="M170.9 132.3l-32.1 11.5 12.8 7.5 34.4-10.2z"/><path fill="#fbfeff" d="M125 113h34v13h-34z"/><path fill="#5e594b" d="M153 127.8l3 2.2-27.1 12.1 2-7.3z"/><path fill="#6d6b60" d="M97 100l2-27-32 21z"/><path fill="#fbfbf4" d="M144 61h27v28h-27z"/><path fill="#282000" d="M181.6 18.2l.6.8-39.8 26.8-.6-.8z"/><path fill="#fff" d="M98 147l21-6-42-1z"/><circle r="1" fill="#c1bdae" transform="matrix(-6.72848 -12.81586 73.5435 -38.6112 15 10.5)"/><path fill="#cdcbb4" d="M178 70l-8-37-23 15z"/><path fill="#9f7833" d="M68 17L45 64l3-25z"/><path fill="#746a63" d="M55 172l-24.9 31.6 66.3-36.5-42.7-13.9z"/><path fill="#4d4b46" d="M31 74l70 13-61 6z"/><path fill="#cececc" d="M14 131h85v10H14z"/><path fill="#192a2e" d="M37 127h25v4H37z"/><path fill="#b8b3a6" d="M94.7 60.4l27.8 10.4-105.3-.4 84.3 17.1z"/><circle r="1" fill="#41341f" transform="matrix(-8.96662 13.46068 -1.93656 -1.29 73.2 38.4)"/><path fill="#6b2723" d="M102.5 164.5h-31v-9h31z"/><path fill="#27241d" d="M6.8 163l25.6 3.3L2.5 175l-10 27.8z"/><circle r="1" fill="#e0dfd5" transform="rotate(-50.4 68 7.3) scale(48.28471 15.33858)"/><path fill="#91716d" d="M25 153h83v6H25z"/><path fill="#aec89e" d="M39 96h17v31H39z"/><path fill="#bcb7b0" d="M11.3 158.8l36.9-26.9 16.9 21.4-41.6-.8z"/><path fill="#a9a397" d="M186 141.3l-70 23.2 3.8 24 36.8-15.7z"/><path fill="#dddbd8" d="M56.1 179.6l-28.6 9.7-8.7-17.7 22.5-6.6z"/><path fill="#4e442a" d="M101 20.1l5.9 19.2-2 .6-5.8-19.2z"/><path fill="#5b503d" d="M111.3 231.2l-54.2-58.4-11.6 20.4 27.1 7.6z"/><ellipse cx="24" cy="95" fill="#c1bdba" rx="11" ry="25"/><circle r="1" fill="#22221d" transform="rotate(21 -472.8 468.6) scale(33.56724 11.23487)"/><circle r="1" fill="#a48e73" transform="rotate(-29.2 566.7 -168.7) scale(32.28862 12.70399)"/><path fill="#605640" d="M114.2 52.8l2.3 21.5 14.3-19.7-24.1 6.4z"/><circle r="1" fill="#d1d2cd" transform="rotate(34.2 -88.2 243.1) scale(24.29485 14.10496)"/><path fill="#9f9382" d="M23.4 227.1l45.5-30.7-35.3 45.1-49.6 3.7z"/><path fill="#68511e" d="M90.9-16L78.5.7 60.7-3.2l-2 29.9z"/><path fill="#412d0b" d="M110-5L81 26l19-41z"/><path fill="#a9c09d" d="M59 96h14v36H59z"/><path fill="#e4e3e9" d="M58 154l32-19-30 6z"/><path fill="#0d2433" d="M72 128h19v3H72z"/><path fill="#766e6a" d="M120.8 137.8l-9.3-9.7-32 103.5 29-92.8z"/><path fill="#806a65" d="M68.9 146.4l20.5-2.2 1.5 5.8-41.8 34.7z"/><path fill="#394d55" d="M89 96h2v32h-2z"/><circle r="1" fill="#dad6d1" transform="rotate(53.2 -105.7 72.8) scale(13.35317 22.65818)"/><circle cx="4" cy="140" r="10" fill="#6e5236"/><path fill="#b6b1b0" d="M81 166h28v2H81z"/><path d="M84 61h3v7h-3z"/><path fill="#e0e4e9" d="M92 104h7v46h-7z"/><ellipse cx="65" cy="92" fill="#6d6b63" rx="33" ry="5"/><circle r="1" fill="#49462d" transform="matrix(.03958 -3.77952 2.24858 .02355 87.2 68.7)"/><path fill="#695944" d="M186 209.3l-36.4 17.9L89.2 271l80.8-42z"/><circle cx="113" cy="59" r="4" fill="#131210"/><path fill="#c0beb4" d="M146.9 140.3l-26.7 22.3 56.2-11-52-4.5z"/><path fill="#060503" d="M94 52h7v6h-7z"/><circle r="1" fill="#d3cec3" transform="matrix(3.11574 -19.42086 23.6374 3.7922 126.6 25.2)"/><path fill="#5c5240" d="M88 233l-36-16 69-12z"/><path fill="#4d452e" d="M100 0h3v35h-3z"/><path fill="#afa89b" d="M134.6 161.4l-1.2 24-16-.8 1.2-24z"/><path fill="#433f45" d="M66.9 267.2l-31.6-28.1V271l42.9-39.3z"/><path fill="#7a726a" d="M31 222h33v26H31z"/><ellipse cx="26" cy="42" fill="#dcd9d0" rx="19" ry="29"/><path fill="#ccc8c3" d="M52.9 77l31.7 5.9-5.4-41.2 26.5 4.3z"/></g></g></svg>