<svg xmlns="http://www.w3.org/2000/svg" viewBox="0 0 1400 2098"><defs/><filter id="a"><feGaussianBlur stdDeviation="12"/></filter><rect width="100%" height="100%" fill="#634238"/><g filter="url(#a)"><g fill-opacity=".5" transform="translate(4.1 4.1) scale(8.19531)"><circle r="1" fill="#e7fff2" transform="rotate(41.7 -67 167.5) scale(119.24532 170)"/><circle r="1" fill="#fff" transform="matrix(36.92473 -20.4815 41.90292 75.54402 170 54.6)"/><path fill="#fff" d="M181 177l-46.1 9-10-51 46.2-9z"/><ellipse cx="15" cy="96" fill="#556e42" rx="46" ry="91"/><path fill="#0a0000" d="M126 134v46h-26v-46z"/><path fill="#150000" d="M67 141h18v35H67z"/><ellipse cx="129" cy="210" fill="#9b7448" rx="33" ry="27"/><circle r="1" fill="#faffc4" transform="rotate(-173.1 3.8 63.2) scale(36.61327 13.55677)"/><ellipse cx="74" cy="84" fill="#fff" rx="5" ry="58"/><path fill="#fff9f2" d="M27 199l6-32 81 16z"/><circle r="1" fill="#858a72" transform="matrix(-24.31478 50.55283 -60.82804 -29.25693 39 255)"/><circle r="1" fill="#fafeff" transform="matrix(24.1983 -43.20109 10.03876 5.62303 142.9 72.7)"/><circle cx="109" cy="91" r="11" fill="#182b00"/><path fill="#50220e" d="M30.7 147.2l.6 37-36 .6-.6-37z"/><circle r="1" fill="#fff" transform="rotate(-151.5 102.8 59.7) scale(45.30488 18.86067)"/><circle r="1" fill="#d6d0c5" transform="matrix(103.48323 44.44003 -10.63252 24.75892 75.5 0)"/><path fill="#40392c" d="M157.3 97.8l-.4 33.3-18.4-5 10.4-30.6z"/><circle r="1" fill="#56463d" transform="matrix(.27105 4.43165 -78.5743 4.80581 127 195)"/><path fill="#fff" d="M158 43h13v85h-13z"/><path fill="#5e673a" d="M135 60l-12-25-15 78z"/><path fill="#000500" d="M186 249l-80-14 63 36z"/><circle r="1" fill="#c9a070" transform="rotate(21.1 -513.6 444.8) scale(32.49457 7.80953)"/><path fill="#303c3e" d="M41 125h12v42H41z"/><path fill="#fff" d="M63.5 167.7l-10-.4 1-27 10 .4z"/><ellipse cx="64" cy="101" fill="#f3fff7" rx="2" ry="67"/><circle r="1" fill="#8ba081" transform="matrix(-4.97703 15.79842 -50.6363 -15.95214 20.4 22.6)"/><ellipse cx="72" cy="94" fill="#fff" rx="3" ry="47"/><path fill="#cabeaa" d="M35 205h69v17H35z"/><path fill="#fff" d="M30 168h24v11H30zM-1-4l60 20-48-32z"/><ellipse cx="105" cy="129" fill="#fff" rx="29" ry="2"/><path fill="#596e59" d="M11 45h41v69H11z"/><path fill="#f7f9fa" d="M130 155l-10-37 10-23z"/><circle r="1" fill="#eaded6" transform="rotate(77.9 -114.8 102.2) scale(5.95354 29.38804)"/><ellipse cx="170" cy="223" fill="#100" rx="11" ry="19"/><path fill="#362925" d="M130.7 184.4l32.3 7.7-42.7 1.8-7.4-7z"/><path fill="#606655" d="M23 24L5-3l53 24z"/><path fill="#c7dea4" d="M8 118l6 34 36-40z"/><path fill="#fffffd" d="M75.7 42.6l-24-30.5 22.2 13.1L72 14.1z"/><path fill="#3e2a22" d="M81 132h31v5H81z"/><path fill="#2b3f4f" d="M67 38h3v81h-3z"/><ellipse cx="85" cy="74" fill="#b9b9ad" rx="9" ry="79"/><path fill="#395440" d="M47 123h17v16H47z"/><path fill="#f3faff" d="M129.7 133.1l4.7 42.8 24.7 13.2 18.6-46.2z"/><path fill="#200e03" d="M105.1 179.7l17.2-2.7 2.5-24.9-4.7-6z"/><path fill="#f7fbff" d="M137 54h34v43h-34z"/><circle r="1" fill="#585b51" transform="matrix(44.95222 39.77036 -10.993 12.42533 15 245.8)"/><path fill="#aed08e" d="M52.4 87.9v39.6l11.8-16.7-1.3-85.1z"/><path fill="#62241c" d="M86.5 156.5v19h-21v-19z"/><ellipse cx="73" cy="87" fill="#fff" rx="3" ry="55"/><path fill="#dfbd96" d="M120.9 236.3l-5.6-4.2 13.8-18.4 5.6 4.2z"/><path fill="#4b5335" d="M106.3 104.8l9.3 26.1-2.5-40.2-20.9-14.4z"/><ellipse cx="37" cy="103" fill="#203230" rx="7" ry="9"/><path fill="#18232e" d="M132 124h26v5h-26z"/><path fill="#c1b4a4" d="M94.6 137.3l24.2 3.2 4.8-14.7 35.2 8.4z"/><path fill="#968c80" d="M154.5 125.3l-25.2 1.6 3.2-26.4 5.4-5.2z"/><ellipse cy="142" fill="#232800" rx="12" ry="4"/><circle r="1" fill="#77705f" transform="matrix(-.94879 -5.7939 59.08202 -9.67505 .1 208.7)"/><ellipse cx="105" cy="32" fill="#b3ad9d" rx="15" ry="57"/><path fill="#717b58" d="M133.2 53.6l5-13.3 2.1 6.7-24.5 49.9z"/><path fill="#d7d4cd" d="M126.4 58.4l-4.3 19.8 8.7-17.8-10-46.6z"/><circle r="1" fill="#97a787" transform="matrix(-4.10022 10.88892 -46.61281 -17.55202 20.9 21.1)"/><path fill="#292419" d="M8 164l13 15-36 11z"/><path fill="#3c2a16" d="M69 140h12v35H69z"/><path fill="#cfd2b2" d="M25 94h6v46h-6z"/><path fill="#d6a76c" d="M149 240l15-8-8 11z"/><path fill="#c1bdc1" d="M102.9 182.5l-8.7-45.8 21 1.3-33.5 3.6z"/><path fill="#ccc3b6" d="M25 180h91v13H25z"/><path fill="#46503f" d="M146 254l-42 4-20-39z"/><path fill="#747442" d="M88.8 43.5l10.9 24.8 6.1 25.6-20.5-56.3z"/><path fill="#ebfcdd" d="M0 59h6v8H0z"/><path fill="#233639" d="M6.1 98.2l.8 15-13 .6-.8-15z"/><path fill="#bbb3a0" d="M79.9 203.9l37 29-15-4.1L44.6 203z"/><path fill="#ffdfac" d="M118 202l-2 12-9-4z"/><path fill="#8a826e" d="M91.7 254.2l-7.1-52.7-6.8 20.6-51.2 14.8z"/><path fill="#333a4a" d="M67 117h3v25h-3z"/><path fill="#241e1e" d="M30.9 9L56 21.2l-.9 1.8L30 10.8z"/><path fill="#d0d4d8" d="M125.9 172.8l51.9-11.8-3.9 21.1-34 6.6z"/><path fill="#c6d6e9" d="M107 109L96 92l9 35z"/><path fill="#d2d4cf" d="M152.3 26.8l-25 65.9L186 91l-71.8 9.9z"/><path fill="#9c7b59" d="M20 166l2-17-38-7z"/><path fill="#fff" d="M65.5 37.5v95h-1v-95z"/><path fill="#2b2014" d="M148 99h6v15h-6z"/><path fill="#8f7e65" d="M80.6 203.3l39.1 16.5-21.8-27.3 51.1 4.8z"/><path fill="#484441" d="M50.3 16.9L69 37.1l-6.3-12.6-18.9-7.7z"/><path fill="#2f4345" d="M24.8 97.7l-.6 17-11-.4.6-17z"/><path fill="#dddad0" d="M115 24l-2 45 9-25z"/><path fill="#50381f" d="M132 230l7 7 5-28z"/><path fill="#d8e1a8" d="M-7 134.2l40.6 12.2-26.2 1.8 22-15.6z"/><path fill="#faebd3" d="M73 128.2l76 2.6v3l-76-2.6z"/><path fill="#a5764e" d="M118.2 211.7l2-15.8 35.6 4.4-2 15.8z"/><path fill="#f5f6ed" d="M-16-5.2l33.9.6 51.2 28.3L9.1.2z"/><ellipse cx="13" cy="129" fill="#7a9570" rx="31" ry="3"/><path fill="#fff" d="M125 136h46v13h-46z"/><path fill="#58413c" d="M77 131h14v5H77z"/><path fill="#a0657a" d="M81.3 177.3l12.3-.8-8.8-28.1 1.1-5.6z"/><path fill="#403620" d="M107 217h10v12h-10z"/><path fill="#74453e" d="M184.3 187.8l-23.2 36-21.2-29.5 46.1-18.4z"/><path fill="#b7a78e" d="M171.1 128.3l14.9 9.8-32-2.4-20.1.3z"/><path fill="#ad5d59" d="M69.5 146.3l2 27-7 .4-2-27z"/></g></g></svg>