<svg xmlns="http://www.w3.org/2000/svg" viewBox="0 0 934 1400"><defs/><filter id="a"><feGaussianBlur stdDeviation="12"/></filter><rect width="100%" height="100%" fill="#604335"/><g filter="url(#a)"><g fill-opacity=".5" transform="translate(2.7 2.7) scale(5.46875)"><path fill="#fff" d="M7-7.4l169.8 6-7.7 220.8-169.9-6z"/><ellipse cx="122" cy="99" fill="#fff" rx="17" ry="102"/><circle r="1" fill="#eaf6f1" transform="matrix(-3.70323 118.62745 -26.50572 -.82744 59.2 90.2)"/><ellipse cx="79" cy="219" fill="#877d66" rx="170" ry="21"/><ellipse cx="161" cy="58" fill="#697467" rx="16" ry="255"/><path fill="#591905" d="M68 240l35 6-18-75z"/><path fill="#0e1f18" d="M28 145L0 157l27-51z"/><circle r="1" fill="#eaf3ea" transform="matrix(-23.83475 15.28535 -23.51403 -36.6659 83.7 3.5)"/><path fill="#50564a" d="M84 88h21v73H84z"/><path fill="#06160c" d="M24 30h5v107h-5z"/><path fill="#fcfeff" d="M55 85h29v78H55z"/><circle r="1" fill="#fcffff" transform="matrix(-10.59171 -.70473 4.81237 -72.32738 118.7 127.5)"/><path fill="#999788" d="M58.1 84.1l-11.6 33.2-1.4-103.2 47.5 47.6z"/><path fill="#00140c" d="M5-16L-6-5l33 41z"/><path fill="#8c6550" d="M92 180l-39-14-8 17z"/><ellipse cy="205" fill="#8a8f84" rx="22" ry="50"/><circle r="1" fill="#777b6c" transform="matrix(30.65195 -1.98217 3.04664 47.11263 158.4 34.9)"/><ellipse cx="142" cy="145" fill="#b4bbb3" rx="13" ry="88"/><path fill="#d9eae7" d="M6 78h10v62H6z"/><path fill="#f0f6f1" d="M35 114h11v93H35z"/><path fill="#18251e" d="M14.7 149.3L-16 117.1l25.5.5L-7 161.4z"/><path fill="#747a70" d="M15 79h20v61H15z"/><path fill="#8b8778" d="M166 255l-57-30 45-51z"/><path fill="#f7fff6" d="M35 31h10v80H35z"/><path fill="#d8ccc0" d="M135.6 213.4l-67.1-48.7 5.9-8.1 67.1 48.7z"/><ellipse cx="49" cy="85" fill="#71736f" rx="3" ry="35"/><path fill="#c6cdc0" d="M79 0h58v81H79z"/><ellipse cx="26" cy="90" fill="#161912" rx="2" ry="56"/><path fill="#bcb19b" d="M73.3 180.3l-60.7 43.1 12.6-35 28.3 40.9z"/><path fill="#9a674a" d="M102 224.7l17.7 7.2-15.4-37.9-34.7-21.2z"/><ellipse cx="86" cy="242" fill="#1a0800" rx="48" ry="3"/><path fill="#b2c2b3" d="M3.7 4.2l21.2 37.5-.2 44.7L8.9 72.6z"/><ellipse cx="1" cy="43" fill="#1a3634" rx="3" ry="116"/><circle r="1" fill="#c6c3b6" transform="matrix(2.8725 35.56923 -6.69024 .54029 48 33.9)"/><path fill="#696f5a" d="M45 246h91v10H45z"/><path fill="#f0f4ec" d="M111.7 99.8l1.6-73.6L138 118 91.5 72.4z"/><ellipse cx="30" cy="103" fill="#c1c9be" rx="2" ry="99"/><path fill="#817c73" d="M106.7 102.6l.3 74.9-24.4-98.1 15.9.7z"/><path fill="#3d4135" d="M85 148h20v11H85z"/><path fill="#aba89b" d="M51 40h60v23H51z"/><path fill="#897c6a" d="M0 206h80v21H0z"/><path fill="#e2e0db" d="M53 10h58v23H53z"/><ellipse cx="170" cy="10" fill="#706c61" rx="16" ry="90"/><path fill="#383e34" d="M28 41L11 16l10-1z"/><path fill="#514d39" d="M165.5 271l-34.4-8.9.6-40.9 5.2 2z"/><path fill="#514f3b" d="M-3 271l64.5-20.6L48.9 271l-14.5-65.8z"/><circle r="1" fill="#bbb398" transform="matrix(-6.31314 -28.24336 3.65208 -.81634 115.7 207.5)"/><path fill="#efebe7" d="M103.1 163.2l19.3 8-33.1 8.6 39.1 18z"/><path fill="#fdffff" d="M111 70h7v113h-7z"/><path fill="#fff" d="M4 96h5v17H4z"/><ellipse cx="136" cy="120" fill="#d0d3cd" rx="9" ry="42"/><ellipse cx="33" cy="101" fill="#585d49" rx="1" ry="83"/><path fill="#bcb099" d="M67.6 198.5l-22.9 39.7 16.5-61.1-45.4 34.8z"/><path fill="#a6513e" d="M78 174h12v32H78z"/><path fill="#c1c2b5" d="M93.1 45L29 2.3l-1.5 32.6 9.9-.5z"/><circle r="1" fill="#a6aa9e" transform="rotate(176.7 67.3 19.5) scale(7.3068 45.51715)"/><path fill="#f0f2f5" d="M69.9 103.6l-2 3.5-23.8-12.7 2-3.5z"/><ellipse cx="62" cy="130" fill="#f1f2fb" rx="9" ry="38"/><path fill="#696759" d="M20 77h5v38h-5z"/><circle r="1" fill="#797168" transform="rotate(142.4 48.8 135) scale(26.59914 24.38261)"/><path fill="#a19d96" d="M135 219l19-128 14 58z"/><path fill="#e3ccb5" d="M77.8 180.6l3.3 6.5-28.3 23 7-24.5z"/><path fill="#272a23" d="M48.7 90.5l-2.4-16.8 1-.2 2.4 16.8z"/><path fill="#a6ac9d" d="M7.2-2.9l20.7 34.7 4.9-6.5L59.7-.9z"/><path fill="#807c72" d="M0 264l-2-110 21 73z"/><path fill="#50261a" d="M79 210h13v33H79z"/><path fill="#afafa5" d="M44.4 187.1l-23.2 41.1 8.7-129.6 4 108.3z"/><path fill="#675d45" d="M2 115h7v15H2z"/><ellipse cx="37" cy="97" fill="#5a594a" rx="2" ry="3"/><path fill="#d2c9bf" d="M61.9 168.3l-17.8 10.5 12.8-20.9 48.4 3.1z"/><path fill="#4c4f3e" d="M37 133h2v7h-2z"/><path fill="#6e533e" d="M111.3 214.2l8.6 27.4-17.8-3.6-14.9-28.8z"/><path fill="#88827a" d="M86 164.9l-1.5-88.3 10.4 2.1 7.8 13.1z"/><path fill="#b19e86" d="M115 187.2l-4 23.1L86.1 178l48.8 38.4z"/><path fill="#b2b6a6" d="M4 38h21v23H4z"/><path fill="#3e3e3a" d="M27.4 145l1.8-12.2L-4.9 155l.8 4z"/><path fill="#c5c7c4" d="M8 74h9v67H8z"/><ellipse cx="47" cy="106" fill="#383c39" rx="1" ry="12"/><path fill="#775e46" d="M79 219.5l-5.5 22.4-19.3-9.1 8.4-23.4z"/><path fill="#4f4c40" d="M155 119.5l8.9-1.9 1 5-8.8 1.8z"/><path fill="#e5e6d4" d="M64 192l2.4-18.1-11.7 25.8.7 8.6z"/><path fill="#eff2ed" d="M120.9 69.3l15.5 73.5-33.8-64.3 8.1 47.4z"/><path fill="#bd9f8e" d="M84.7 162.1l27.7 17.9-7.5-15.8L91 199.8z"/><path fill="#dcdce1" d="M67 75h18v53H67z"/><path fill="#f0f6f5" d="M42 46h4v122h-4z"/><path fill="#cbccc1" d="M110.4 90.5L82.8 72.7l29.3-7.8-7.5 30.1z"/><circle cx="70" cy="200" r="8" fill="#bf9677"/><path fill="#949388" d="M148.9 88.3l21.3 41-28.1-100-10.8 11.9z"/><circle r="1" fill="#e9f0e9" transform="matrix(6.05122 28.08584 -5.02678 1.08304 122.3 176)"/><path fill="#a2a49d" d="M130.1 211.5l4-3 21.8 30-4 3z"/><path fill="#dae8ea" d="M4 131h2v12H4z"/><path fill="#f8fcff" d="M49.9 98.5l-.8 21h-1l.8-21z"/><path fill="#86857c" d="M16 87h8v53h-8z"/><path fill="#6e776b" d="M2.4 114L.6 80h1l1.8 34z"/><path fill="#b7b7b0" d="M133 118l16 40 1-69z"/><ellipse cx="51" cy="84" fill="#2e3029" rx="1" ry="8"/><path fill="#dadcd4" d="M35 137h8v68h-8z"/><path fill="#a29e94" d="M12.2 235.7L27.5 148-16 161.9l41.5 49.2z"/><path fill="#c5c6ba" d="M79.3 10.7L63.6-16l68.1 51.9L131-16z"/><ellipse cx="122" cy="220" fill="#978a70" rx="7" ry="19"/></g></g></svg>