<svg xmlns="http://www.w3.org/2000/svg" viewBox="0 0 1400 2098"><defs/><filter id="a"><feGaussianBlur stdDeviation="12"/></filter><rect width="100%" height="100%" fill="#39302b"/><g filter="url(#a)"><g fill-opacity=".5" transform="translate(4.1 4.1) scale(8.19531)"><circle r="1" fill="#fffffc" transform="matrix(157.398 64.23293 -44.55483 109.17827 116.4 104.8)"/><circle r="1" fill="#fff" transform="matrix(-13.26686 -125.9562 46.97442 -4.94778 149.5 88)"/><ellipse cx="32" cy="61" fill="#070600" rx="70" ry="42"/><circle r="1" fill="#9e7557" transform="rotate(105.9 -64.4 151.7) scale(124.05531 105.55713)"/><ellipse cx="68" cy="122" fill="#fffffa" rx="71" ry="14"/><ellipse cx="148" cy="50" fill="#fff" rx="47" ry="52"/><path d="M140 102h26v18h-26z"/><ellipse cx="73" cy="215" fill="#4d1910" rx="62" ry="22"/><ellipse cx="83" cy="176" fill="#fbf9e8" rx="170" ry="8"/><ellipse cx="52" fill="#fffffb" rx="131" ry="12"/><path fill="#5c2d25" d="M0 145h79v24H0z"/><circle r="1" fill="#fff" transform="rotate(-30.7 230.3 -212.8) scale(79.14075 15.11639)"/><path fill="#2e2d24" d="M78.2 87.1L-16 91.3l118.6 12.4-45.2-84.9z"/><circle r="1" fill="#d4d1bf" transform="matrix(-20.21973 -29.25194 23.35435 -16.14316 170 213.7)"/><path fill="#636154" d="M63 20h38v71H63z"/><path fill="#fdb385" d="M71 218l35-35-41 10z"/><path fill="#a1997d" d="M18 169l-34 54 32 48z"/><path fill="#fff" d="M116 129.6l51.6-6.3L186 159l-48.5-11.3z"/><path fill="#ebd8b6" d="M95 28h4v95h-4z"/><circle r="1" fill="#2a1f16" transform="matrix(10.37025 9.04655 -18.98105 21.75839 35.4 210.5)"/><ellipse cx="155" cy="255" fill="#7c7862" rx="168" ry="23"/><path fill="#5f4222" d="M151 114h3v48h-3z"/><path fill="#807158" d="M119 165l67-8-54-8z"/><path fill="#fff" d="M146 162h25v29h-25z"/><path fill="#881320" d="M103 188h19v31h-19z"/><path fill="#f2dcb1" d="M27 101h65v6H27z"/><circle r="1" fill="#9f9c83" transform="matrix(1.57858 15.29352 -29.3493 3.0294 22.3 141.7)"/><path fill="#791b12" d="M54 139l-10 25 51 6z"/><path fill="#000b06" d="M31 228h74v7H31z"/><path fill="#161c15" d="M21.2 73.6l2.4 26.9-44.8 4-2.4-27z"/><path fill="#efcdbb" d="M85.3 168.5l11.9-49.4 2.7 73.7-6-25.7z"/><path fill="#4c473d" d="M0 20h95v26H0z"/><path fill="#704f3a" d="M84 183L0 193l51 10z"/><path fill="#b79a7b" d="M116 219.2l70-7-108.3 15.3-48.5-1z"/><path fill="#675d4a" d="M130.8 151.4l-2.5 2-4.1 14.1 24.5 15.6z"/><ellipse cx="82" cy="118" fill="#fff" rx="31" ry="9"/><path fill="#eee5cb" d="M116.1 179.8l6.1-16.9-9.1-14.3-7.5 13.2z"/><path fill="#766c5b" d="M130 191h41v8h-41z"/><path fill="#380000" d="M88.8 224.9l-3.4-19.7 11.8-2 3.4 19.6z"/><path fill="#69523b" d="M19.1 155.8l97.2-24.6-17.8 49.6 4.3-42.6z"/><circle cx="117" cy="205" r="7" fill="#ff4273"/><path fill="#1a0f0a" d="M12.8 231.3l31.5-31.7L58 223.7l-52.7-3.3z"/><path fill="#eddfc7" d="M155 198l30 5-67 17z"/><path fill="#383d2f" d="M125 220.5l-39.9 8.8 62-.6 12.9-7.9z"/><path fill="#fff" d="M155 121h16v34h-16z"/><path fill="#838483" d="M95 78l-1-38-22-15z"/><path fill="#fffffd" d="M102 72h40v37h-40z"/><path fill="#0a0500" d="M12 140l-17-6-11 12z"/><path fill="#fff" d="M186 152.2l-41.3-90.5 39-27.9-15.1 97.9z"/><ellipse cx="45" cy="17" fill="#e7d3a3" rx="51" ry="3"/><ellipse cx="112" cy="172" fill="#f0e6d5" rx="153" ry="3"/><path fill="#d1c1a6" d="M47 145.7l44.2-11.1 51.5-10.6-110.8 5.9z"/><path fill="#b8a790" d="M142 191l13-45-23 3z"/><circle r="1" fill="#605033" transform="matrix(-62.11729 .97582 -.0157 -.99988 42.4 107.5)"/><ellipse cx="17" cy="185" fill="#9d907d" rx="34" ry="7"/><ellipse cx="116" cy="18" fill="#dfded3" rx="15" ry="69"/><path fill="#6d5a3a" d="M99 41h3v65h-3z"/><circle r="1" fill="#ae9379" transform="rotate(-147 32 103.5) scale(29.15477 5.37054)"/><path fill="#515155" d="M138 113h31v8h-31z"/><path fill="#583c2b" d="M139.6 204.7l-43.2-18.8 36.2 27.9-48.8 12.5z"/><path fill="#323835" d="M77.5 44.4L59.8 17.6l-1.2 37.3 31.3 45.5z"/><path fill="#93342b" d="M49.5 135.7l13.2 10.5 24-11.8-20 36.6z"/><path fill="#211913" d="M57 97.5l-13.9-1 1.8-26 14 1z"/><path fill="#ffebdb" d="M88 167l16-28-3 15z"/><circle r="1" fill="#ded4bb" transform="matrix(-26.0794 -13.7501 1.28663 -2.4403 145.5 204.2)"/><path fill="#3a0002" d="M76.4 199.8l.2-3 27 1.4-.2 3z"/><path fill="#b99782" d="M59 196.7l97.5-23.6-99.9 30-40.7-6.2z"/><path fill="#626859" d="M35.5 160.8l-49.6 12.7 41.2-22.1 4.3-34.4z"/><path fill="#322d2a" d="M66 100l28-18v17z"/><path fill="#feffff" d="M148 161h23v30h-23z"/><path fill="#cec3b0" d="M49.6 160.7L-16 118.1l40.7-9.3 3.1 34z"/><path fill="#141108" d="M126 158h5v12h-5z"/><path fill="#ae9771" d="M111.3 140.4l30.8-3.8.6 5-30.8 3.8z"/><path fill="#ad9d80" d="M39.4 242.5l.4 2.3-53.1-8 8.4-10.2z"/><path fill="#a39780" d="M111.5 233.4l5.2 4.4 3.4 1.7 65.9-24.9z"/><path fill="#1e1d13" d="M60.2 234.2L.3 228.3l3.7.1L6 218z"/><path fill="#d8a38d" d="M81.8 149.6l-4.7 7.3-9.4 23.9 10.2-33.9z"/><ellipse cx="55" cy="13" fill="#614c1f" rx="45" ry="1"/><path fill="#d4ceba" d="M35 121h3v44h-3z"/><circle r="1" fill="#edb780" transform="matrix(-5.11669 -8.25237 5.1188 -3.1738 75.5 205.4)"/><path fill="#fff" d="M152.4 150l-4.1-29.9-35.9 16.6 19.2.9z"/><ellipse cx="93" fill="#e3e1d8" rx="82" ry="12"/><path fill="#3b1615" d="M68.9 205.6l-54.5-9.1L59 228.7l7.2-12z"/><path fill="#3e3c3a" d="M154 112l-9-11-10 21z"/><path fill="#373227" d="M0 186h34v3H0z"/><path fill="#ac9a80" d="M78.5 101.8l-76.8.1 56.8 4.9L38.1 96z"/><path fill="#4a3e2d" d="M0 253h98v3H0z"/><path fill="#6b5e4b" d="M139 169h4v19h-4z"/><path fill="#fff" d="M176 89l-98 37 108-89z"/><path fill="#ded4bf" d="M23.7 133h1l1.6 32h-1z"/><path fill="#373e36" d="M25.8 158.2l-38.1-31.8 55.1 43.2-10.3-3.9z"/><path fill="#634234" d="M73 193.3l-13.4.8 3.9-8.8 22.2-2.9z"/><ellipse cx="8" cy="48" fill="#4f4934" rx="31" ry="29"/><path fill="#ede5cf" d="M55 134h14v8H55z"/><path fill="#1d2526" d="M31.3 150.4l21-11.7.4 1-21 11.6z"/><path fill="#3f3e3e" d="M182 159.5h-28v-3h28z"/><path fill="#fff" d="M94.1 162.3l-4 3-4.2-5.6 4-3z"/><path fill="#393120" d="M83 137h18v4H83z"/><circle r="1" fill="#b0a390" transform="matrix(.145 -2.30474 60.1025 3.78133 77.5 182)"/><path fill="#282f28" d="M-17.6 133.8l.6-.8 42.6 33.2-.6.8z"/></g></g></svg>