<svg xmlns="http://www.w3.org/2000/svg" viewBox="0 0 1400 934"><defs/><filter id="a"><feGaussianBlur stdDeviation="12"/></filter><rect width="100%" height="100%" fill="#50242b"/><g filter="url(#a)"><g fill-opacity=".5" transform="translate(2.7 2.7) scale(5.46875)"><path fill="#dff0cf" d="M122.1-64.4l107 171.3L86 196.4-21 25.1z"/><circle r="1" fill="#343c3f" transform="matrix(175.43185 -95.64855 15.08118 27.66084 111.6 67.8)"/><circle r="1" fill="#dae1d3" transform="matrix(-24.32882 -39.3936 111.70257 -68.9856 48.5 13.3)"/><circle r="1" fill="#c1b09b" transform="matrix(16.38892 8.83923 -25.36067 47.0215 240.5 73.7)"/><circle r="1" fill="#fdeccc" transform="matrix(-45.78974 10.6556 -2.44516 -10.50747 201.3 109)"/><path fill="#fb9f48" d="M196.5 186.2l-8.7-14.5 79.7-48 8.7 14.6z"/><circle r="1" fill="#fff2c4" transform="rotate(-30.5 233.7 -288) scale(33.86729 9.20263)"/><path fill="#460007" d="M195 79h61v13h-61z"/><ellipse cx="116" cy="136" fill="#dcb586" rx="46" ry="27"/><circle r="1" fill="#77837f" transform="matrix(-10.19073 -22.66438 26.1393 -11.75318 8 105.8)"/><path fill="#91431d" d="M120.8 140.2l-4.8-22.5 37.2-7.9 4.8 22.5z"/><path fill="#c0c0b9" d="M2 19l127 20 88-55z"/><path fill="#a69b9e" d="M142 29l-35 53H59z"/><path fill="#392a20" d="M139 70L-1 176l41-66z"/><circle r="1" fill="#534a45" transform="rotate(-159.7 92.3 -2.3) scale(33.37177 37.19604)"/><path fill="#d1bf95" d="M246 61l-26-15 24-14z"/><path fill="#000700" d="M218.3 40.4l-8-24.7L259.7-.4l8 24.7z"/><path fill="#d6c8a0" d="M91.1 143.2l-61.5 38.7 76.1-77.3 36.5-4.8z"/><path fill="#5a504e" d="M63 32h26v16H63z"/><path fill="#e6d2b2" d="M209 48l-68 65 50-24z"/><path fill="#a2ac7a" d="M31.3 166.9L1.5 183.4-5.3 171l29.8-16.5z"/><path fill="#929086" d="M54-5L-1-2l-9 86z"/><path fill="#6a3721" d="M147 96l-59 55 39-20z"/><circle r="1" fill="#344242" transform="matrix(27.32444 -16.97615 1.65569 2.66496 83 154.2)"/><circle r="1" fill="#bbacb4" transform="rotate(-116.9 87 -21.4) scale(2.20121 42.95726)"/><path fill="#4c1c3d" d="M150.5 111.8l77-26.5-29.6-8L271 53z"/><circle r="1" fill="#383748" transform="matrix(-2.79738 3.31663 -17.01107 -14.34781 134.3 29.7)"/><path fill="#dbd5c7" d="M-16 88.1l37.1-17.7-8.1 45.2 39-91.8z"/><circle r="1" fill="#4b2922" transform="matrix(-43.9768 34.48221 -4.27444 -5.45139 145 67.3)"/><path fill="#0d2e3a" d="M224.4 111.9L96 185h33.2L271 96.9z"/><path fill="#a24214" d="M158 122h24v13h-24z"/><path fill="#001017" d="M-16 176l1-28 86-26z"/><circle r="1" fill="#dbccac" transform="rotate(161.7 52.4 85.2) scale(44.08028 10.32396)"/><path fill="#272127" d="M33 79l10 28 30-28z"/><path fill="#a74e1f" d="M128 90l27 1-14 31z"/><circle r="1" fill="#f0ead7" transform="matrix(4.09029 9.58954 -19.88755 8.48276 94.7 21)"/><path fill="#f3f4ef" d="M102 63.6l-25.5 6.7 20.6 4.1 3.2-13.4z"/><path fill="#dda18e" d="M185.7 49.2l-2-3.4 22.6-13 2 3.4z"/><path fill="#fffcff" d="M126.2 73.8l-13.9 1.4-.5-5 13.9-1.4z"/><path fill="#f2efe3" d="M48.5 55.6L28.9 44.8l21.2-8.3 23-.9z"/><path fill="#d5c29c" d="M254 62l17 10-55 8z"/><path fill="#1e1817" d="M29 83v21L7 130z"/><path fill="#4b4544" d="M131 41L99 77l16-45z"/><path fill="#d3c0a9" d="M271 88.9L131.1 129l67.2-38.1-24.6 48.6z"/><path fill="#b6a485" d="M43.3 140.6l155.8-86.9-127.5 82.6-33.1 11.8z"/><path fill="#a29998" d="M43.3 110.9L18 117.5l36.8-7.4L111.9 54z"/><path fill="#939595" d="M197 9L181-3l-37 23z"/><path fill="#e98549" d="M143.5 66.6L174.4 48l2 3.4L145.7 70z"/><path fill="#030702" d="M154.6 29.2l2.8-8.3 27.7-5.8 25.5-2.6z"/><circle r="1" fill="#4f3a4c" transform="matrix(-1.41873 -2.63622 72.00838 -38.75275 205.4 85.4)"/><path fill="#090f1a" d="M19 173l31-9 10-25z"/><path fill="#730729" d="M268.3 123.2l-106.6 61.5-8-13.9 106.6-61.5z"/><path fill="#d8c3a2" d="M79.6 121.3l11.7 25.3 33.4-23.6.9-28z"/><path fill="#bbb9c3" d="M47 74h29v7H47z"/><path fill="#800030" d="M222.9 46l9.8 7L201 98l-9.8-7z"/><path fill="#251f2c" d="M84 91h64v4H84z"/><path fill="#beb58f" d="M259 41l-22 1-15 32z"/><path fill="#dedacd" d="M143.2 35.9l-4.4-23.5L200.9-16 126.5 4.2z"/><path fill="#e5c19b" d="M202 78l-57 36 4-33z"/><path fill="#0a0a14" d="M66 76L52 66l24 2z"/><path fill="#b6aeab" d="M40 93.3L32.4 115l-2.1-52.6-17.7 17.2z"/><path fill="#ad8264" d="M21.8 118.8l4.9 13.7 23.9-14.3-46.3 17z"/><path fill="#311100" d="M88.6 85.5l-37.8 30.7-10.5 9.4 59.8-36z"/><path fill="#30272e" d="M113.4 137.6l2.1-1 26.1-31.2 9.8-19.7z"/><path fill="#b39fa2" d="M128.4 57.1l28-13.2-62.2 10.6 27.7-12.6z"/><path fill="#42001d" d="M206 88.9l44.6 1.5L271 69.2l-15.8 6.3z"/><path fill="#232622" d="M188.5-11.9l2.1 3.5-47.1 28.3-2.1-3.5z"/><path fill="#4e434b" d="M99.9 77.1l69.1-7.6-95.4 53.2-.9 5.2z"/><path fill="#1d130a" d="M70 42L55 57l6-11z"/><path fill="#321f0e" d="M190.9 37.7L205.8 17l-49.2 35-33.9 28.3z"/><circle r="1" fill="#2b3950" transform="rotate(-116.2 113.7 -33.4) scale(4.6808 49.52238)"/><path fill="#001a16" d="M265.8 185H167l67.9-19.5 36.1-16.6z"/><path fill="#eb8f52" d="M121.7 134.6l16.2-15.4 9.9-3.8 8.7-32z"/><path fill="#ddd4c9" d="M69 46h16v8H69z"/><circle r="1" fill="#1d2b33" transform="matrix(40.99721 -18.38658 3.63526 8.10568 253.9 107.6)"/><circle r="1" fill="#3d3838" transform="matrix(4.37374 -10.11527 2.41864 1.0458 80.6 79.3)"/><path fill="#a69c9d" d="M168.8 27.6l-18.2 25.7-15.3 16.5 15.4-27.2z"/><path fill="#e4d4b9" d="M188.8 95.2l28.3 22.3-43.6 2.5-34.7 7z"/><path fill="#484b54" d="M69.2 73.2L95 38.8l-26.7-7.4 30.5 27.8z"/><path fill="#39373a" d="M47 55v8l-9-6z"/><path fill="#2d2127" d="M101 139.7l-.2-1 58.2-14.4.2 1z"/><path fill="#c1ab8f" d="M205.7 94.2l36.8-4.7 5 10.1-51.2-2.8z"/><path fill="#c7723a" d="M66 112.3l-.4-.9L128 79.7l.4.9z"/><circle cx="209" cy="24" r="4" fill="#b4b5b3"/><path fill="#0f1722" d="M55.8 167.2l32.9-19 1.5 2.6-32.9 19z"/><path fill="#804124" d="M181.8 120.6l4.3 4.2-16 16.6-4.2-4.2z"/><circle r="1" fill="#b5a37a" transform="matrix(31.65238 -1.62556 .6136 11.948 94.2 169)"/><path fill="#a5a8b6" d="M79.3 61.9l-5.9 5.4 19.9 8.6-67.9-26.3z"/><path fill="#bcc1ce" d="M138.7 38.2L104 19.7l7.8 11.9 12.2 7.6z"/><path fill="#0d292a" d="M260.9 54L271 38.3l-40 34.6 36.3-20.2z"/><path fill="#2c3538" d="M12.2 90.6l-1.8 13.5L-16 82.8l40.3 2.5z"/><circle cx="128" cy="60" r="5" fill="#180f08"/><path fill="#979da4" d="M86 42l39 15-24-2z"/><path fill="#decaab" d="M201 55l-32 32-35 2z"/><path fill="#9b9897" d="M16.5 113.8l1.7-23.4-11.5 23.9-19.1-28.4z"/><path fill="#f89756" d="M136.5 138l-23.8-2.1 37.7-54.2-41 51.5z"/><path fill="#151613" d="M235 36l5-52-40 59z"/><path fill="#312e2e" d="M19 92h11v24H19z"/><path fill="#bab4b2" d="M95.4 51.6l6.9 18.9-42.8 23.8L97 78.6z"/><circle r="1" fill="#372c2e" transform="matrix(49.72816 -20.09148 .59071 1.46206 114.4 51.6)"/></g></g></svg>