<svg xmlns="http://www.w3.org/2000/svg" viewBox="0 0 934 1400"><defs/><filter id="a"><feGaussianBlur stdDeviation="12"/></filter><rect width="100%" height="100%" fill="#634338"/><g filter="url(#a)"><g fill-opacity=".5" transform="translate(2.7 2.7) scale(5.46875)"><circle r="1" fill="#e7fff2" transform="matrix(-91.6205 -83.66101 114.63141 -125.53742 90.6 84.5)"/><circle r="1" fill="#fff" transform="matrix(9.78684 -125.2787 33.3977 2.60904 158.8 63.4)"/><circle r="1" fill="#507249" transform="matrix(29.51118 -13.05369 36.31004 82.08808 17.3 66)"/><path fill="#0d0000" d="M99.2 132.7l25-1.3 2.6 50-25 1.2z"/><circle r="1" fill="#2e1100" transform="rotate(-167.4 9 81.8) scale(33.07994 22.45533)"/><path fill="#392e1e" d="M132 100h27v30h-27z"/><path fill="#210000" d="M80.3 136l7.9 36.7-18.7 2.6-3.9-28z"/><circle r="1" fill="#99734a" transform="matrix(34.53583 -8.0938 5.97586 25.4987 130.3 210)"/><ellipse cx="73" cy="78" fill="#fff" rx="4" ry="64"/><circle r="1" fill="#858c74" transform="matrix(56.46721 23.2741 -13.03051 31.6144 41.5 237.4)"/><path fill="#3a4819" d="M137.2 54.5l-16.6 21.9L95 86l15.7 28.3z"/><path fill="#faf2e9" d="M91 180.1l-60.1-13.6.9 34.7 100.3-19.3z"/><circle r="1" fill="#fff" transform="matrix(11.82588 -14.4717 26.64345 21.7723 153.9 156.5)"/><circle cx="106" r="51" fill="#d7d1c5"/><path fill="#ecffb6" d="M0 116h34v22H0z"/><circle r="1" fill="#fff" transform="matrix(35.2219 -1.53782 1.34355 30.77228 168.6 68.5)"/><path fill="#454532" d="M51 121l2 39-61 24z"/><path fill="#fff" d="M57 18l-2-34L6-4z"/><path fill="#261218" d="M115 188h44v8h-44z"/><circle r="1" fill="#041108" transform="matrix(-46.61072 -13.80672 2.69955 -9.11351 160.2 255)"/><ellipse cx="34" cy="59" fill="#677c5b" rx="23" ry="50"/><path fill="#c5ab8b" d="M40 210h114v15H40z"/><ellipse cx="59" cy="162" fill="#f3e4ea" rx="6" ry="25"/><path fill="#e6e7e2" d="M70 69h21v62H70z"/><path fill="#72604c" d="M34 195h137v6H34z"/><ellipse cx="9" cy="192" fill="#e0d8cd" rx="75" ry="6"/><circle r="1" fill="#ebfff6" transform="matrix(.074 42.40292 -2.03345 .00355 64.8 80.5)"/><ellipse cx="170" cy="222" fill="#190000" rx="13" ry="19"/><path fill="#6d7549" d="M140.1 47.8l-28.6 54.4 12-69.5.4 15.5z"/><path fill="#3c1e08" d="M67 141h14v35H67z"/><ellipse cx="109" cy="130" fill="#ffffe9" rx="21" ry="3"/><path fill="#f2f7fb" d="M158.5 138.3L186 71.7l-44.7-26.9 16 57.9z"/><path fill="#a5b794" d="M-16 13.5l75.6 15.7-6.2 10.6-69.2-3.8z"/><path fill="#403b2b" d="M147 97h10v32h-10z"/><ellipse cx="68" cy="129" fill="#4e4549" rx="2" ry="52"/><path fill="#fff" d="M53.7 167.2l3.8 9.3-19.4 5.1-11.2-10.5z"/><circle r="1" fill="#485351" transform="matrix(38.70493 -1.89299 .38598 7.8919 12.5 106.6)"/><path fill="#f1f8ff" d="M130 136h41v47h-41z"/><ellipse cx="93" cy="134" fill="#39251e" rx="15" ry="3"/><path fill="#201106" d="M110 149h14v30h-14z"/><ellipse cx="122" cy="107" fill="#e7e9e7" rx="6" ry="20"/><path fill="#bed399" d="M21.6 146.5l-10.2 6-5.3-34.3 43.8-5.9z"/><path fill="#a89c8d" d="M138.4 133.8l-10.6-2.9 9.8-36.7 10.6 2.9z"/><ellipse cx="73" cy="67" fill="#fff" rx="3" ry="43"/><path fill="#4a503c" d="M102.9 213.1l21.2 8.3-30.7 20.8 36.1 28.8z"/><circle r="1" fill="#45463c" transform="matrix(.87813 -1.80043 21.86785 10.66566 44.7 17.3)"/><circle r="1" fill="#595b51" transform="matrix(-12.32736 16.37254 -38.6784 -29.12208 6.6 243.6)"/><path fill="#ced3af" d="M32 137l-3-46-10 47z"/><path fill="#3d2f19" d="M-6.9 183.6l.8-15 35 1.8-.8 15z"/><path fill="#e5e1d6" d="M134.2 33.7l-19-.4.6-35 19 .4z"/><path fill="#f3f4ec" d="M66.2 25.6L-16-16l92.9 38.4-5.3 26.2z"/><path fill="#afa99f" d="M117-16H29l81 78z"/><path fill="#6a6353" d="M54.5 196.1l1 6-56 9.8-1-6z"/><path fill="#4a5040" d="M108 87h8v37h-8z"/><path fill="#aeaea8" d="M79 124l34 2-36-72z"/><path fill="#d4e3fa" d="M121 137.6l-36 1.8v-1l36-1.8z"/><path fill="#817c69" d="M42.5 240.5l43.4 10.8 11.5-26.6-15.5-4.6z"/><path fill="#2c2622" d="M9.6 3.8l28.1 11.7-11.4-7.3L-16-9.2z"/><path fill="#abcd89" d="M51 83l11-24v61z"/><path fill="#6f624a" d="M4 148h50v18H4z"/><ellipse cx="159" cy="132" fill="#baa688" rx="34" ry="4"/><path fill="#d3b99e" d="M77.3 206.2l27.4 24.7 3-32 31.4 22.5z"/><path fill="#fff" d="M71 34h5v100h-5z"/><path fill="#b99162" d="M161.8 235.3l-31.8 4.3 20.4 2 9.6 2.5z"/><path fill="#464f1e" d="M110.8 105.2l3.6-10.2-22.2-17.1-6.3-14.8z"/><path fill="#c4c1ae" d="M39 204h41v15H39z"/><path fill="#5f3b17" d="M132.4 234.7l9.5-27.4 5.7 2-9.5 27.4z"/><path fill="#c4a276" d="M125.9 235.1l17.2-34.8-17.5 18-11.1 16.7z"/><path fill="#7e9670" d="M-16 119l47 12-28 1z"/><ellipse cx="68" cy="64" fill="#1c3243" rx="1" ry="29"/><path fill="#445840" d="M39 124h23v14H39z"/><path fill="#6d6a5b" d="M112 191l-10 16-35-12z"/><path fill="#36473c" d="M41 63l3 40-14 16z"/><path fill="#4a3d33" d="M114.6 193.2l2.3-8.8 3.5-.4 47.9 8.2z"/><path fill="#c1c39d" d="M14.6 161v-40.4l-2.4-20-5.5-3.7z"/><path fill="#5b7b26" d="M-1 141l.4-3 35.6 5-.4 3z"/><path fill="#9d6d48" d="M121 194h35v22h-35z"/><circle r="1" fill="#cccfd0" transform="matrix(-3.74171 -9.1454 26.29408 -10.75785 161.8 174.6)"/><path fill="#6d3537" d="M68 156l-6 17 35 4z"/><path fill="#22313d" d="M131 124h25v4h-25z"/><path fill="#bec1b5" d="M146 118h8v8h-8z"/><path fill="#f1fddb" d="M2.2 56.3L-16 88.7l.3-8L4 65.2z"/><path fill="#fff" d="M125 134l14 30 47-27z"/><path fill="#efecef" d="M130.7 55.6l-7.5 19.6-1.9-.8 7.5-19.6z"/><path fill="#737447" d="M88.3 42.8l-3.6-5.6 23.7 61.5-14.4-46z"/><path fill="#c6dbf6" d="M102 102h5v28h-5z"/><ellipse cx="68" cy="67" fill="#4b5c65" rx="2" ry="33"/><path fill="#f8dcdc" d="M54 140h12v10H54z"/><ellipse cx="65" cy="66" fill="#fff" rx="1" ry="74"/><path fill="#caa26f" d="M140.4 229l20.5-4.5-27.2-5.5 7.7-43.6z"/><path fill="#997a54" d="M11.4 159.1L-.5 145l19.9 9.7 6.2 32.5z"/><path fill="#576a52" d="M41.9 68.2L17.8 46.4 52.5 58l14.1 8.2z"/><path fill="#c4beae" d="M99 63l8 24 16-45z"/><path fill="#7f987d" d="M33 112l11 29-13 27z"/><path fill="#bdbcbf" d="M96.9 167.7l-23.2-33.8 20.5 10.4 6.7-3.7z"/><path fill="#bedbb0" d="M63.8 119.4l-1.9-19.5L50 122.6l10-8.2z"/><path fill="#ecfcc0" d="M24.5 120l16 7.6-39.1-8.4-2.4-4.6z"/><path fill="#cbc2b6" d="M-11 201l103-11-59-10z"/><path fill="#354842" d="M21 85l4 31-11-2z"/><path fill="#888788" d="M105 103h11v26h-11z"/></g></g></svg>