<svg xmlns="http://www.w3.org/2000/svg" viewBox="0 0 1400 2098"><defs/><filter id="prefix__a"><feGaussianBlur stdDeviation="12"/></filter><rect width="100%" height="100%" fill="#604335"/><g filter="url(#prefix__a)"><g transform="translate(4.1 4.1) scale(8.19531)"><ellipse cx="87" cy="105" fill="#fff" fill-opacity=".5" rx="170" ry="114"/><circle r="1" fill="#e0ebe5" fill-opacity=".5" transform="rotate(78.6 -9.8 97.3) scale(109.08006 54.98976)"/><path fill="#5c3c29" fill-opacity=".5" d="M99.2 247l-21-1.2 8.6-164.7 21 1z"/><circle r="1" fill="#5b6759" fill-opacity=".5" transform="matrix(23.74422 -3.42867 19.5077 135.09465 170 63)"/><circle r="1" fill="#919682" fill-opacity=".5" transform="rotate(96.1 -20.9 180.4) scale(25.75504 58.64368)"/><path fill="#000300" fill-opacity=".5" d="M-16 86L3 11l4 152z"/><path fill="#f3fcff" fill-opacity=".5" d="M36 90l-2 114 55-99z"/><circle r="1" fill="#828e83" fill-opacity=".5" transform="matrix(16.32087 -138.93294 18.36158 2.15699 11.1 166.7)"/><circle r="1" fill="#fff" fill-opacity=".5" transform="matrix(1.20796 79.87214 -12.38477 .1873 118.4 118.4)"/><ellipse cx="26" cy="85" fill="#090e07" fill-opacity=".5" rx="3" ry="60"/><circle r="1" fill="#88755c" fill-opacity=".5" transform="matrix(96.76154 -13.14284 1.96532 14.46927 27.6 223.3)"/><path fill="#0a1f18" fill-opacity=".5" d="M-16-16l44 54L5-16z"/><path fill="#040705" fill-opacity=".5" d="M23.1 136.1l4 9.2L-1 157.9l-4-9.2z"/><ellipse cx="10" cy="81" fill="#cfd8d0" fill-opacity=".5" rx="7" ry="62"/><circle r="1" fill="#7a7e75" fill-opacity=".5" transform="matrix(-1.74454 52.58837 -28.56865 -.94772 168 205.5)"/><path fill="#979685" fill-opacity=".5" d="M50 39l73 5-77 44z"/><ellipse cx="49" cy="95" fill="#4b4c47" fill-opacity=".5" rx="3" ry="29"/><circle r="1" fill="#e3d8cf" fill-opacity=".5" transform="rotate(-54.1 227.2 -11) scale(8.39733 48.83637)"/><path fill="#832f1a" fill-opacity=".5" d="M76 174h14v54H76z"/><circle r="1" fill="#e0e4da" fill-opacity=".5" transform="rotate(104.7 42 40.8) scale(26.34879 43.31456)"/><path fill="#f1f1f8" fill-opacity=".5" d="M56 77h28v92H56z"/><path fill="#747973" fill-opacity=".5" d="M84 79h23v85H84z"/><path fill="#1b261f" fill-opacity=".5" d="M4.7 22.4l.4-27.1L-16 32.2l20.3 61z"/><path fill="#fcfffa" fill-opacity=".5" d="M35 30h11v62H35z"/><path fill="#f5f9f3" fill-opacity=".5" d="M140.6 106.3l-29.5 9.6-11.7-36.2 29.5-9.6z"/><path fill="#c6c1b1" fill-opacity=".5" d="M37.4 205.1L12 233l11.4-77.1 56.8 36.3z"/><circle r="1" fill="#b98e74" fill-opacity=".5" transform="matrix(-3.7514 5.77664 -27.63644 -17.94732 85.4 186.8)"/><path fill="#cfd2c2" fill-opacity=".5" d="M16 36h9v39h-9z"/><path fill="#a9a99d" fill-opacity=".5" d="M157.2 60.4l-36 184.7-15.5-70.8 40.4 62.6z"/><circle r="1" fill="#acb1a0" fill-opacity=".5" transform="matrix(-23.89933 -36.692 11.87981 -7.73792 25.1 0)"/><path fill="#8f8a77" fill-opacity=".5" d="M53 239l-69-43 78 12z"/><path fill="#494d41" fill-opacity=".5" d="M105.7 142.7l.6 16-20 .6-.6-16z"/><ellipse cx="89" cy="242" fill="#190100" fill-opacity=".5" rx="47" ry="3"/><path fill="#3b3a2e" fill-opacity=".5" d="M-9.9 100.9L9.7 118l-14.3 45.8L.1 92.7z"/><ellipse cx="29" cy="136" fill="#bbb9b2" fill-opacity=".5" rx="2" ry="77"/><path fill="#cdb7a7" fill-opacity=".5" d="M105.9 166.4l6-7.4-48.7 1.6 48.9 40.6z"/><circle r="1" fill="#d5d4d0" fill-opacity=".5" transform="matrix(-5.59725 -.37554 2.14845 -32.0213 9 109.9)"/><path fill="#676458" fill-opacity=".5" d="M18 78h7v61h-7z"/><path fill="#e5ddc4" fill-opacity=".5" d="M63.9 176.1l-13.8 39.3 3.2 6 17.5-38.5z"/><circle r="1" fill="#6f6d61" fill-opacity=".5" transform="matrix(16.47487 -.88997 3.35638 62.13255 170 31.3)"/><path fill="#6c4934" fill-opacity=".5" d="M115.7 212.9l-26.7-.8-32 2.9 51 22.9z"/><path fill="#ebf0eb" fill-opacity=".5" d="M35 140h11v64H35z"/><path fill="#302c1a" fill-opacity=".5" d="M7.7 128.7l-15 .6-.4-14 15-.6z"/><path fill="#4f4c38" fill-opacity=".5" d="M49 268l-14-64-38 67z"/><path fill="#6a6f5a" fill-opacity=".5" d="M48 246h87v10H48z"/><path fill="#f2f7f6" fill-opacity=".5" d="M132.8 186.4l-6.3 14.5-13.4-19-7.2-90.5z"/><path fill="#b6b4a6" fill-opacity=".5" d="M98 35h14v49H98z"/><path fill="#131610" fill-opacity=".5" d="M28.4 38.5l-1.8 99h-1l1.8-99z"/><ellipse cx="63" cy="178" fill="#907a69" fill-opacity=".5" rx="17" ry="5"/><path fill="#9a9e95" fill-opacity=".5" d="M131 35l24 135 31-28z"/><ellipse cx="50" cy="145" fill="#c1bdb8" fill-opacity=".5" rx="5" ry="30"/><path fill="#4d2013" fill-opacity=".5" d="M95.4 241.8l-14 1.2-2.8-32.8 14-1.2z"/><circle r="1" fill="#767165" fill-opacity=".5" transform="matrix(-10.85224 -1.09603 4.66019 -46.14257 163.9 215.3)"/><path fill="#858078" fill-opacity=".5" d="M-16 135L1 251l23-29z"/><ellipse cx="33" cy="163" fill="#5f5b49" fill-opacity=".5" rx="1" ry="144"/><path fill="#5f5742" fill-opacity=".5" d="M158 255l-36-52 11 44z"/><path fill="#31352e" fill-opacity=".5" d="M14 9l15 25-10-3z"/><ellipse cy="32" fill="#101410" fill-opacity=".5" rx="1" ry="124"/><path fill="#e2e7de" fill-opacity=".5" d="M37.8 28.1l-2.9 73.6 20.3-7.1-7.9-4.3z"/><path fill="#dadad4" fill-opacity=".5" d="M135.8 126.6l-.3 50-43.6.1 15.9 16.1z"/><circle r="1" fill="#939b8d" fill-opacity=".5" transform="matrix(-8.03561 .85876 -5.65415 -52.9072 139.8 22.6)"/><path fill="#9f8e78" fill-opacity=".5" d="M88 168l22 9-6-15z"/><path fill="#e0d1c5" fill-opacity=".5" d="M76.9 180.6l3 9-45.2.6 15.6-4.5z"/><path fill="#999d8b" fill-opacity=".5" d="M4 40h10v36H4z"/><path fill="#fff" fill-opacity=".5" d="M4 93h5v18H4z"/><path fill="#f4f6f5" fill-opacity=".5" d="M123.4 86.8l-29.3-9 11.5 11.7 9.5 100.2z"/><path fill="#ced3c5" fill-opacity=".5" d="M100.9 1.2l12.2 56.2 22.3 23.5-6.1-67z"/><path fill="#b2aba2" fill-opacity=".5" d="M33.4 153.2l-7-6.7-22.3 13L28.3 214z"/><ellipse cx="75" cy="20" fill="#e8e7e2" fill-opacity=".5" rx="20" ry="12"/><path fill="#c2d0c3" fill-opacity=".5" d="M21.3 37l-2.6 1.4L4.7 13l2.6-1.4z"/><path fill="#b4b2a5" fill-opacity=".5" d="M109 40.7l-.8 15.9-54.3 33-6.1-54.5z"/><path fill="#974734" fill-opacity=".5" d="M79 175h10v32H79z"/><path fill="#bec0bb" fill-opacity=".5" d="M132 75h13v109h-13z"/><circle r="1" fill="#a5a89a" fill-opacity=".5" transform="matrix(2.76174 -1.31728 11.57136 24.25986 23.8 18.4)"/><path fill="#868179" fill-opacity=".5" d="M85 77h11v76H85z"/><path fill="#918068" fill-opacity=".5" d="M126 239l-7-45 17 26z"/><path fill="#83735b" fill-opacity=".5" d="M35 211h42v29H35z"/><path fill="#876b52" fill-opacity=".5" d="M101.1 239.3l-4.5-10.4 5.9-38 16.5 37.2z"/><ellipse cx="43" cy="116" fill="#f7fdfc" fill-opacity=".5" rx="2" ry="74"/><path fill="#898479" fill-opacity=".5" d="M137 203l19-19 6 87z"/><ellipse cx="47" cy="108" fill="#63635e" fill-opacity=".5" rx="2" ry="11"/><path fill="#828374" fill-opacity=".5" d="M35 95h5v5h-5z"/><path fill="#bab8ac" fill-opacity=".5" d="M110 51l-22 4 21 37z"/><path fill="#fbfdfe" fill-opacity=".5" d="M49.9 94.5l-.8 21h-1l.8-21z"/><path fill="#605a50" fill-opacity=".5" d="M154.8 119.6l8.8-2 1.6 6.8-8.8 2z"/><path fill="#e7eee5" fill-opacity=".5" d="M34 128l1-33 10 32z"/><path fill="#bbb09a" fill-opacity=".5" d="M58.2 214.6l-10.5 18.5-.9-47.4-22.4 16.1z"/><ellipse cx="31" cy="93" fill="#c7c6bc" fill-opacity=".5" rx="1" ry="81"/><path fill="#494a44" fill-opacity=".5" d="M25.2 148.6L-16 164.5l6-25.8 33.1 4.3z"/><ellipse cx="104" cy="2" fill="#c1c3b9" fill-opacity=".5" rx="30" ry="11"/><path fill="#c29e8b" fill-opacity=".5" d="M94.4 174l7 30.2-7.8 1.8-7-30.2z"/><path fill="#31332e" fill-opacity=".5" d="M0 79l-16-49L6-16z"/><path fill="#f7f9ff" fill-opacity=".5" d="M56 100h8v59h-8z"/><path fill="#c8c6ba" fill-opacity=".5" d="M45.6 67.8L39.1 13l14.4 55.6 1.2 5z"/><path fill="#eeefde" fill-opacity=".5" d="M55.1 201.7l7-23 4.8 1.6-7 23z"/><path fill="none" stroke="#7c705f" stroke-opacity=".5" stroke-width=".5" d="M34.5 156.4q1.2 99.2-8.2 114.6"/><circle r="1" fill="#f6f8f8" fill-opacity=".5" transform="matrix(5.1633 15.77137 -7.11932 2.33075 115.8 170.2)"/><circle cx="9" cy="133" r="6" fill="#d7d7d9" fill-opacity=".5"/><circle r="1" fill="#474942" fill-opacity=".5" transform="matrix(-2.1099 1.09422 -18.32323 -35.33147 10.9 9)"/><path fill="#140700" fill-opacity=".5" d="M43 243h51v2H43z"/></g></g></svg>