<svg xmlns="http://www.w3.org/2000/svg" viewBox="0 0 1400 2098"><defs/><filter id="a"><feGaussianBlur stdDeviation="12"/></filter><rect width="100%" height="100%" fill="#4f443a"/><g filter="url(#a)"><g fill-opacity=".5" transform="translate(4.1 4.1) scale(8.19531)"><circle r="1" fill="#fff" transform="matrix(128.2987 -111.53224 70.46079 81.05304 56.4 96)"/><circle r="1" fill="#292118" transform="matrix(15.43434 50.1701 -37.05286 11.39895 90.9 202.6)"/><circle r="1" fill="#e9eae1" transform="matrix(21.74806 -60.07255 46.90936 16.98259 144.7 116.3)"/><circle r="1" fill="#fcfaee" transform="matrix(-21.45137 -7.21918 28.0572 -83.3703 19.7 51.8)"/><circle r="1" fill="#d8d1c7" transform="matrix(13.27763 -61.51856 27.4741 5.92977 11.6 232.5)"/><path fill="#533a21" d="M-9 177l3-48 73 30z"/><circle r="1" fill="#302f25" transform="matrix(-1.43703 8.35805 -37.32977 -6.41826 60.6 88)"/><circle r="1" fill="#ece7d7" transform="matrix(10.05518 18.27327 -52.23736 28.7445 135.8 17.7)"/><circle r="1" fill="#332b19" transform="matrix(-1.01973 6.51189 -29.9966 -4.69734 157 142.5)"/><path fill="#391800" d="M97-16L70 49l51-65z"/><path fill="#bc9d77" d="M102 260l79-49-11 48z"/><circle r="1" fill="#3c3721" transform="matrix(20.1609 -3.14012 1.2547 8.05573 101.7 62.9)"/><path fill="#847967" d="M2 271l100-49-54-43z"/><path fill="#6e4b0e" d="M36.5 70.5l-4.1 26.4L77.2-.3 69.4-16z"/><circle r="1" fill="#e2ded8" transform="matrix(5.70137 55.44044 -13.77765 1.41686 21 99.3)"/><ellipse cx="101" cy="179" fill="#30241f" rx="16" ry="28"/><circle r="1" fill="#ebebe4" transform="matrix(25.48182 -44.85611 21.2862 12.09225 145.6 89)"/><circle r="1" fill="#212423" transform="matrix(-13.28634 -18.69005 68.22292 -48.49817 134.1 213.5)"/><circle r="1" fill="#331f00" transform="rotate(-33 148.4 -226.4) scale(38.281 2.85689)"/><path fill="#fcfbf8" d="M55.5 163.1L-16 187l49.8.8 21.5-9.5z"/><path fill="#e7e9e9" d="M31.3 150.9l-1.4-16 66.8-5.8 1.4 16z"/><circle r="1" fill="#aca699" transform="matrix(8.024 -22.37398 14.96759 5.36784 130.9 163)"/><path d="M55 98h4v33h-4z"/><path fill="#4d483b" d="M108.3 58.6l-25.5 7.6L100 47.6l1.1-63.6z"/><path fill="#ded6ca" d="M91 82l-43-7 8-38z"/><circle r="1" fill="#ede6da" transform="rotate(120.9 39 26.6) scale(53.05824 5.76013)"/><path fill="#362406" d="M65.8 47l2.4 6.7 38.1-68.8-45.2 67.4z"/><path fill="#283838" d="M36.3 127.6l51.1 1.7-45.6 3.1L35.7 81z"/><path fill="#2a251a" d="M-16 185.2L48.5 158l-64 10.1-.5.8z"/><path fill="#cabbb0" d="M4 150h52v7H4z"/><ellipse cx="75" cy="110" fill="#111f17" rx="2" ry="21"/><circle r="1" fill="#7b5a58" transform="matrix(2.84587 12.27894 -23.83282 5.5237 76.6 160.5)"/><path fill="#5a391a" d="M25.7 150.4L-5 145.5l1.2-7.9 30.6 4.9z"/><path fill="#e3e1d8" d="M126 50l-29-3 47-45z"/><path fill="#afa698" d="M118 159h17v26h-17z"/><circle r="1" fill="#b3b0a3" transform="matrix(2.32617 -10.1363 35.81774 8.21977 166.4 105.6)"/><circle r="1" fill="#d3d0c7" transform="matrix(24.58077 -2.23703 9.97488 109.60546 8.9 26.5)"/><path fill="#52504a" d="M86 89l-47 6-12-25z"/><path fill="#d0c9c5" d="M93.2 18.3L66.9 63.4l24.6-4 8.8-46.8z"/><path fill="#494636" d="M126.3 146.7l27.9-20.5-.4 6.7-16.7-.1z"/><circle r="1" fill="#161712" transform="matrix(4.71922 12.87976 -33.25574 12.18511 159.4 204.7)"/><path fill="#5f4415" d="M77.9.5L92-16 54.2 28.8l7.4-31.5z"/><path fill="#d0dfcd" d="M78 102h21v25H78z"/><path fill="#3a3e43" d="M88 125.8L93 86l1 .1-5 39.7z"/><circle r="1" fill="#fbfbf4" transform="matrix(3.88893 13.21436 -18.1579 5.34379 156.9 76.3)"/><path fill="#eff1f4" d="M112.3 149.1l-41.5-10.4-11.8 8.4 71.9-9.7z"/><path fill="#848071" d="M57.3 97.3l40.6 4.5-12.1-41.6 39.6 6.7z"/><path fill="#c7cac7" d="M83.1 169.3l-.2-3 22-1.6.2 3z"/><path fill="#112024" d="M36 127h22v4H36z"/><path fill="#eaebeb" d="M108.5 70.5l14.2 11.1-9.2 11.9-14.2-11.1z"/><ellipse cx="140" cy="120" fill="#fff" rx="19" ry="6"/><ellipse cx="156" cy="153" fill="#cccac1" rx="52" ry="5"/><circle r="1" fill="#76706f" transform="matrix(28.01892 -14.29995 8.09935 15.86963 38.4 242.4)"/><circle r="1" fill="#d1c6b4" transform="rotate(63.1 -174.7 121.9) scale(10.29685 37.1629)"/><circle r="1" fill="#4a443b" transform="rotate(-127.3 105.8 80.8) scale(6.86336 71.7409)"/><path fill="#13120d" d="M94 52l-4 9 19-10z"/><ellipse cx="58" cy="189" fill="#4f4634" rx="13" ry="9"/><path fill="#2a2108" d="M101 0h2v38h-2z"/><path fill="#e3e1d6" d="M28.5 76.7L-1.3 54.2l55.8-37.7-9 34.4z"/><path fill="#53514a" d="M98 86l-7 13-44-22z"/><path fill="#71563d" d="M22.9 150.7l-36.2.6-2.7-21.8 27.4 2.3z"/><path fill="#000104" d="M36.3 95.6h1l2.4 34.8h-1z"/><circle r="1" fill="#31312b" transform="matrix(12.48229 -19.31893 7.31082 4.72364 101 185)"/><path fill="#4c4223" d="M161.8 30.7l-19 12.3 33.5-12-2.2-9.3z"/><path fill="#0c1d28" d="M74 128h16v3H74z"/><circle r="1" fill="#e1ddd9" transform="matrix(12.98597 12.49667 -10.04212 10.4353 19.7 121.1)"/><path fill="#010100" d="M118.3 60.5l-7.9 1-.7-6 7.9-1z"/><path fill="#3e372e" d="M145 140h26v8h-26z"/><path fill="#a69e89" d="M142 139l1-9 33 6z"/><path fill="#7d7b77" d="M185.3 156.7l-77.7-20.5 7.7-11.1.5 11z"/><path fill="#a29b92" d="M29 141h20v18H29z"/><path fill="#fff" d="M92 103h3v27h-3z"/><circle r="1" fill="#b8b4b1" transform="matrix(7.41208 7.77087 -11.7394 11.19737 21 89.3)"/><path fill="#a39c90" d="M106 155l25 30 19-24z"/><circle cx="127" cy="22" r="24" fill="#d3cec3"/><circle r="1" fill="#a38d74" transform="rotate(-114.6 158.5 75) scale(9.09263 27.09245)"/><path fill="#beb89e" d="M160.2 58.7L186 73.4V27.5l-53.8 28.1z"/><path fill="#c7c5c3" d="M46.5 131l10.3.3 12.2 29-40.4-27.5z"/><path fill="#4f3c20" d="M74 52l-9-3 19-31z"/><path fill="#aac092" d="M39 101h17v27H39z"/><circle r="1" fill="#6c5b47" transform="matrix(-2.56256 -5.48707 28.02258 -13.08706 161 230)"/><path fill="#804e49" d="M85 144l-24 8 48 12z"/><path fill="#d1d2d3" d="M54.8 136.7l14.9-12.3 9.3 18.7-20.4 11.2z"/><ellipse cx="7" fill="#bfb9a9" rx="54" ry="17"/><path fill="#dcdbdc" d="M103.7 51.8l-7.1-28-7.8 39.8L83 50.2z"/><circle r="1" fill="#f1d7cb" transform="matrix(.09719 .99527 -22.96657 2.2427 6.4 153.6)"/><path fill="#6e6c68" d="M87.6 193.4L56.4 172l-3.1-20.6 34 19.6z"/><ellipse cx="86" cy="162" fill="#36190e" rx="10" ry="3"/><ellipse cx="74" cy="115" fill="#212d29" rx="2" ry="16"/><path fill="#dfdbd5" d="M133 47l-23 7-5-36z"/><path fill="#aea18b" d="M32.7 182.1l1.6 41.7 24.9-10.3 1.6-4z"/><path fill="#e8e5e2" d="M-4.6 191.4l25.3.2 35-20.4-28 1.5z"/><circle r="1" fill="#0a0f0c" transform="matrix(-1.42326 -11.69837 4.06202 -.4942 114.3 191.4)"/><path fill="#94753e" d="M66 20L50 57l4-31z"/><path fill="#1c1a14" d="M6 172l19-6-21-3z"/><path fill="#c3bcaf" d="M116 167l2 16 17-2z"/><path fill="#a9a592" d="M101 73l-25 6 33-25z"/><path fill="#252218" d="M105 49h4v9h-4z"/><circle r="1" fill="#c5bfb0" transform="rotate(-89.4 74 -68) scale(13.68683 37.36591)"/><path fill="#b3b1b2" d="M32 67l-9 5 25 3z"/></g></g></svg>