<svg xmlns="http://www.w3.org/2000/svg" viewBox="0 0 1400 2098"><defs/><filter id="a"><feGaussianBlur stdDeviation="12"/></filter><rect width="100%" height="100%" fill="#563f27"/><g filter="url(#a)"><g fill-opacity=".5" transform="translate(4.1 4.1) scale(8.19531)"><path fill="#fff" d="M0-24.5h170v255H0z"/><circle r="1" fill="#f7faf8" transform="matrix(-169.96272 -3.56021 1.65633 -79.07254 80.1 63.6)"/><circle r="1" fill="#a37a44" transform="matrix(-20.09633 -66.14754 88.55058 -26.90261 81 255)"/><path fill="#d8d0c8" d="M72 140l-87-8L3 271z"/><circle r="1" fill="#d1c8be" transform="matrix(-32.77931 14.71925 -30.14495 -67.13188 152.3 153)"/><path fill="#e0bc99" d="M66 271l77-20-137-4z"/><circle r="1" fill="#78572b" transform="matrix(-63.18844 -7.98256 3.58624 -28.38804 95.4 226.2)"/><path fill="#9a968f" d="M65 66h42v109H65z"/><circle r="1" fill="#9f8158" transform="matrix(-16.4602 12.58477 -27.18883 -35.56151 98.4 175.5)"/><circle r="1" fill="#e6e3db" transform="rotate(-108.2 72.8 -26) scale(50.62624 37.71407)"/><path fill="#4d2b01" d="M86.9 236.4l-1.5 12.2 67.7 1.8-7-19.3z"/><path fill="#cdd5df" d="M73 96h25v42H73z"/><path fill="#524935" d="M82.9 133.7l-3.1-3.5-2.1-10.9 10.8 5.2z"/><circle r="1" fill="#b0a187" transform="matrix(2.39857 -26.35042 5.83149 .53082 120 87)"/><circle r="1" fill="#e4e0d9" transform="matrix(-25.86452 5.5921 -8.40993 -38.89748 39.7 63.2)"/><circle r="1" fill="#b2a18f" transform="matrix(-29.59664 -85.9549 27.19038 -9.3624 10 255.1)"/><circle r="1" fill="#b1936c" transform="rotate(-99.3 121.9 56.1) scale(31.2229 35.96781)"/><circle r="1" fill="#9e8c75" transform="matrix(1.47022 -30.88533 19.12085 .9102 170 223.9)"/><circle r="1" fill="#ccc3bb" transform="rotate(-118.1 115.3 25) scale(28.52159 43.76768)"/><path fill="#e2d5c6" d="M95.3 161.1l-30 2.7 7.5-8.3 19.6 4.4z"/><path fill="#74777a" d="M68 139h35v19H68z"/><path fill="#eec4ab" d="M28 250h36v6H28z"/><path fill="#e5c7af" d="M77.1 187.7l5.6-9.3-17-2.1-13.8 9z"/><path fill="#967449" d="M77 225l-26-41-48 79z"/><path fill="#eeefec" d="M107.1 69.5L60.4 53.1l51.1-15.4-.9 83.9z"/><circle r="1" fill="#bfb5a9" transform="matrix(8.77744 -21.2366 13.48164 5.57218 167.1 22.7)"/><circle r="1" fill="#cfc5ba" transform="matrix(-29.37403 -38.03095 14.95343 -11.5496 20 133.2)"/><ellipse cx="142" cy="8" fill="#e9e9e4" rx="9" ry="104"/><path fill="#40372a" d="M41 226h81v2H41z"/><ellipse cx="91" cy="23" fill="#cec7bc" rx="42" ry="15"/><path fill="#e8f1fd" d="M89 100h6v39h-6z"/><path fill="#92734a" d="M107 158l79 102-78-57z"/><path fill="#a8a4a3" d="M65 114l-14 21 28 20z"/><path fill="#b6aba0" d="M-5.4 280.1l-22.2-13.4 51-84.8 22.2 13.4z"/><ellipse cx="92" cy="209" fill="#373021" rx="43" ry="1"/><path fill="#595a52" d="M87 106l-3 7 4 1z"/><path fill="#a48459" d="M71 249h70v7H71z"/><path fill="#afa497" d="M186 169v90l-50-65z"/><path fill="#4c422d" d="M88 133l-6-4-2-11z"/><path fill="#dde3ec" d="M76.9 115.5l18.4 17.9-25-29.9 7.1 40.6z"/><path fill="#cca97a" d="M53 219h51v2H53z"/><circle r="1" fill="#84521b" transform="matrix(.46577 5.54673 -43.22612 3.6298 74.6 238.3)"/><path fill="#a17f57" d="M19.8 251.1l60.9-118.6-61.8 104.1 41.7 10.6z"/><path fill="#c7bfb2" d="M150.6 48.3l13.1-58.9L186 15.8l-59.4 32z"/><path fill="#aca8a0" d="M96.6 83.7l-.8 55.9 12-74.1-43.7 8z"/><ellipse cx="78" cy="211" fill="#d0ae7f" rx="49" ry="1"/><ellipse cx="86" cy="213" fill="#4c412f" rx="46" ry="1"/><circle r="1" fill="#c5bbb2" transform="matrix(-10.81926 81.57476 -7.68466 -1.01922 170 89.9)"/><path fill="#462c0c" d="M127 239h27v11h-27z"/><path fill="#282214" d="M125 226h17v2h-17z"/><path fill="#d2c4b2" d="M66 158.6L35 129l36.8 35.2 34.6-4.7z"/><ellipse cx="92" cy="217" fill="#3a3325" rx="46" ry="1"/><path fill="#b58e5c" d="M116.7 222.8l-22.2 13.7-3.2-14.1 9.1 7.7z"/><path fill="#c0cad8" d="M103 84h3v66h-3z"/><path fill="#66645a" d="M94 142l10 8-33-3z"/><path fill="#edede9" d="M106.8 44.9l8 .3-1.6 48-8-.4z"/><path fill="#b4a58b" d="M124 58h2v55h-2z"/><path fill="#a9a6a5" d="M97 124h14v22H97z"/><path fill="#d9d5cd" d="M125 87h25v36h-25z"/><path fill="#bc996a" d="M59 223h72v2H59z"/><path fill="#d1cbc3" d="M11.5 137.5L68.3 76l-5.4 53.7-26.2 32.8z"/><circle cx="84" cy="107" r="2" fill="#4b4b40"/><ellipse cx="64" cy="182" fill="#f0ddd0" rx="8" ry="3"/><circle r="1" fill="#ac9675" transform="rotate(-131.6 109.4 79.3) scale(1 27.41007)"/><circle r="1" fill="#c0b6ab" transform="matrix(-9.57571 -66.45085 10.45607 -1.50674 0 132)"/><path fill="#b59e80" d="M87.5 205l.5.8L42.5 233l-.5-.9z"/><path fill="#d5d0c1" d="M170.2 228.6L121 168l.7-.6L171 228z"/><path fill="#61513a" d="M39 221h33v3H39z"/><path fill="#c4bbb2" d="M10 243l22-35-28 20z"/><path fill="#a28054" d="M69.5 165l-5.3-3.8-4.9 8.7L42.9 202z"/><path fill="#ebecec" d="M148 35l-20 4 30-55z"/><path fill="#6a563b" d="M51.5 195.5h79v1h-79z"/><path fill="#aea492" d="M122.2 82.9l-8 .2-.4-14 8-.2z"/><path fill="#bea887" d="M44.9 224l-.5-.9L69.1 210l.5.9z"/><path fill="#8d7148" d="M123 251h48v5h-48z"/><ellipse cx="92" cy="199" fill="#5c4d36" rx="33" ry="1"/><ellipse cx="35" cy="85" fill="#dfdad4" rx="16" ry="37"/><path fill="#a48963" d="M107 208l-6-60 30 41z"/><circle r="1" fill="#ab9374" transform="matrix(.48123 .8766 -61.23012 33.61348 64.2 206.4)"/><path fill="#c19c78" d="M45 250h37v6H45z"/><circle r="1" fill="#96774e" transform="matrix(-22.35179 38.90748 -4.40934 -2.5331 22.9 245.8)"/><path fill="#dbdfe5" d="M73 101h6v36h-6z"/><path fill="#b6a080" d="M119 207.4l-29.5 24-.6-.8 29.6-24z"/><path fill="#92734a" d="M153.9 247.4l27.4 11 4.7-3.2-55.2-61.6z"/><circle r="1" fill="#9f9a94" transform="rotate(-178.9 42.9 36.8) scale(17.72738 3.6979)"/><circle cx="7" cy="223" r="3" fill="#7e7062"/><circle r="1" fill="#be9e71" transform="matrix(5.25992 -1.72363 .47946 1.46314 121 229.7)"/><path fill="#a3a19f" d="M80 136.3l16-14.8-38.2 40.2 6.7-28.6z"/><path fill="#f0f0eb" d="M142.1 50.7l4.1-2.4 6.5.5L129 97.3z"/><path fill="#af906e" d="M59.7 230.1l-9 7 20.7-11.5 5.4-5.7z"/><ellipse cx="71" cy="215" fill="#c6a270" rx="35" ry="1"/><circle r="1" fill="#cdc7c0" transform="rotate(-135.3 92.2 40) scale(25.89166 17.06503)"/><path fill="#dce1e8" d="M94 134l2-21-15 4z"/><path fill="#d7d3cc" d="M77.1 67.8l42.5.8-34.1-9L20.9 5.5z"/><path fill="#563711" d="M139.5 225l3-.6 4 22.7-3 .5z"/><path fill="#a5927a" d="M31.4 222.2l-32.8 45.5 32.5-57.1 23.5-10.9z"/><ellipse cx="89" cy="191" fill="#7b664d" rx="34" ry="1"/><path fill="#665d49" d="M87 132.3l-3.8 1.1-2.2-7.7 3.8-1.1z"/><path fill="#bfae9c" d="M120.9 189.2l65.1-23-9.4-12.1-109.5 73.2z"/><path fill="#613d13" d="M85 245l-4-17 6-4z"/></g></g></svg>