<svg xmlns="http://www.w3.org/2000/svg" viewBox="0 0 1400 2098"><defs/><filter id="a"><feGaussianBlur stdDeviation="12"/></filter><rect width="100%" height="100%" fill="#483a30"/><g filter="url(#a)"><g fill-opacity=".5" transform="translate(4.1 4.1) scale(8.19531)"><circle cx="39" cy="92" r="221" fill="#fff"/><path fill="#fff" d="M-16-4l163-7-160 241z"/><circle r="1" fill="#634a26" transform="matrix(40.27169 50.17823 -100.79838 80.89805 137.8 147)"/><circle r="1" fill="#e3ede2" transform="matrix(-8.4852 -57.016 15.42001 -2.29483 113.5 83.1)"/><circle r="1" fill="#faffff" transform="matrix(44.99448 1.07473 -3.42687 143.4683 12.7 51.5)"/><path fill="#401300" d="M54 109h60v28H54z"/><ellipse cx="66" cy="251" fill="#fffada" rx="170" ry="11"/><path fill="#ffeddd" d="M22 174h106v10H22z"/><path fill="#4a3e23" d="M163 59l-33 139 56 19z"/><circle r="1" fill="#dee0d4" transform="matrix(-32.87364 -16.84957 11.65295 -22.735 87.2 81.3)"/><circle r="1" fill="#482817" transform="rotate(-121.2 81.6 58.2) scale(9.92983 37.5445)"/><path fill="#3d3528" d="M147.2 188.2l-47.6 53.5-1.2-64.7 54.7 22.3z"/><ellipse cx="145" cy="88" fill="#dce8e4" rx="4" ry="43"/><ellipse cx="31" cy="214" fill="#937357" rx="46" ry="23"/><path fill="#ffcca3" d="M78.9 153.6l-19.2.5-20.3-14.2 26.2-11.8z"/><ellipse cx="6" cy="137" fill="#410" rx="20" ry="3"/><path fill="#040200" d="M56 106.7l3.5 1.2 25.5 4.5-29.3 17.7z"/><path fill="#cfc6ad" d="M116.2 223.5l30.8-14 39 33.2-59.4 9.3z"/><path fill="#c2cac4" d="M112 113v48l32-61z"/><ellipse cx="45" cy="160" fill="#4e5b61" rx="11" ry="16"/><path fill="#cacec2" d="M84 37h87v26H84z"/><path fill="#3c2d19" d="M135.6 130.7l14.6 13.6-17.8 19-14.6-13.6z"/><path fill="#54553f" d="M130 11h8v91h-8z"/><circle r="1" fill="#fffffe" transform="matrix(-18.04951 3.47579 -12.68394 -65.86678 11.4 16.5)"/><circle r="1" fill="#4c433a" transform="rotate(-174.2 28.2 116.2) scale(74.41766 2.44066)"/><path fill="#ecd1bd" d="M14.2 179.3l38.3.2L93.9 166l4.2 22.5z"/><path fill="#d7dfde" d="M31 29h24v117H31z"/><ellipse cx="164" cy="173" rx="16" ry="5"/><path fill="#f7ffff" d="M15 142l-31 32 58 4z"/><ellipse cx="141" cy="165" fill="#c1ae89" rx="27" ry="4"/><path fill="#cbd0c3" d="M80.4-18l23.7-10.6L143.6 60l-23.7 10.6z"/><path fill="#e0e5da" d="M42 0h129v10H42z"/><path fill="#000400" d="M103 166l-4 10 3 8z"/><path fill="#6f5731" d="M149 61h22v102h-22z"/><path fill="#d0a479" d="M142 149h20v10h-20z"/><path fill="#f4dcc1" d="M-10.6 231.8l36.7 5.6 54.7 28.5-88-1.5z"/><path fill="#363617" d="M130 65h10v37h-10z"/><path fill="#1b1914" d="M71 150l8 14-40 13z"/><path fill="#98765c" d="M97 119h16v46H97z"/><path fill="#bcad97" d="M154.7 182.6l-59.5-15.9 41.2 22.5 13.8-8.6z"/><path fill="#4b1d03" d="M56 150l13-42-13 10z"/><path fill="#a58a6f" d="M25 184h84v22H25z"/><path fill="#777970" d="M130.9 62.9l-1.2-52.8L186 31.2l-49.4 2.3z"/><circle r="1" fill="#dfe1d8" transform="matrix(19.33095 -6.65618 26.80143 77.837 68.3 29.9)"/><path fill="#b6b8ae" d="M116.7 121.1l29.8 11.5 5.5-13.3-58-48.6z"/><circle r="1" fill="#ffd599" transform="matrix(2.83951 -11.65394 2.80395 .68319 63.7 137.7)"/><path fill="#514333" d="M35 233h79v6H35z"/><path fill="#583119" d="M91.6 131.7l8.5 27.9-27.8-17.2-4.3-5.9z"/><path fill="#28271c" d="M161 170h10v41h-10z"/><path fill="#493f27" d="M186 157.8v-21.7l-50.8-5.6-11.1 15z"/><path fill="#afaa90" d="M79 158h42v6H79z"/><path fill="#fbffff" d="M28.7 94.8l8.6 81.6-8 .8-8.6-81.6z"/><ellipse cx="57" cy="241" fill="#b5a58c" rx="37" ry="3"/><path fill="#c8c9be" d="M96 4h34v104H96z"/><path fill="#fff" d="M64 132l2 18h-5z"/><path fill="#bebfbb" d="M179 65.2l-35.6-5.7 3.6-22.7 35.6 5.7z"/><path fill="#3f3d34" d="M105.3 242.4l20.5-44.2 42.8-6.8-53.3-6.3z"/><path fill="#c1c4b9" d="M113.4 155.6l7.1-15.1 10.6.8L112.6-3z"/><path fill="#a6907a" d="M7 194l32-14 1 47z"/><path fill="#7a7976" d="M36 147h17v22H36z"/><ellipse cx="161" cy="115" fill="#876f4d" rx="6" ry="36"/><circle r="1" fill="#38372c" transform="matrix(.30478 -1.59771 43.19813 8.24048 130.8 172.3)"/><path fill="#0b0700" d="M135 159h31v3h-31z"/><path fill="#905f41" d="M99.3 110.6l-5.4 23.6 8.7-7-36.7 9.8z"/><ellipse cx="7" cy="137" fill="#897147" rx="11" ry="4"/><path fill="#c3bba9" d="M186 214.4l-19.4 37.3-80.9-8.2L110 240z"/><path fill="#b7b7af" d="M141.7 47.5h6l-1.4 79h-6z"/><path fill="#2b241c" d="M77.7 116.3l21.6-6.6-36.2-1.2 9.5 22.8z"/><path fill="#d2d4cd" d="M40 65h50v43H40z"/><path fill="#ece8e4" d="M163 263l-83-19-2 27z"/><path fill="#d8e2e9" d="M32 109h23v37H32z"/><path fill="#e89052" d="M86 154l-13-14 2 13z"/><circle r="1" fill="#cbd0ce" transform="matrix(-12.71293 .39822 -.67599 -21.58048 0 97.6)"/><circle cx="47" cy="165" r="3" fill="#ffd1a9"/><path fill="#000407" d="M166 130h3v19h-3z"/><path fill="#eef9ff" d="M38 150l-14 28-40-36z"/><path fill="#99937d" d="M174.1 216.6l-21.4-13-35.2 14.7 59.9 7.8z"/><path fill="#dbc9af" d="M108.2 250.2L55.3 236l53.3 35L-16 235z"/><path fill="#ab4e15" d="M56 131h4v26h-4z"/><path fill="#a8a59f" d="M134 31h10v35h-10z"/><path fill="#80775f" d="M131.1 77.3l-1.3 47.9 18.7 45.7-19.3-77z"/><path fill="#fff0df" d="M55 179h35v4H55z"/><path fill="#2a2b22" d="M132.3 130.2l2.6 16.9-18.5 9 12.5-13.4z"/><path fill="#291a0e" d="M76 157l-22-4 5 14z"/><path fill="#715c38" d="M149.7 119.7l-20.1 44.4L186 80.2l-37.6-22.1z"/><path fill="#e9e1d6" d="M42.1 180.8l-55.8 19 7.9-21.2 26.9-2z"/><circle r="1" fill="#886f54" transform="matrix(2.26987 -19.76724 14.22881 1.6339 92.3 205.6)"/><path fill="#fbfff7" d="M1 6l30-22-1 124z"/><ellipse cx="153" cy="8" fill="#b6b8ae" rx="24" ry="6"/><path fill="#9b8c70" d="M152 172l-43-20 10 16z"/><path fill="#f57781" d="M123.7 155.4l8.2-3.8.4 1-8.2 3.8z"/><path fill="#755c4a" d="M113 113l-2 35-16 11z"/><circle r="1" fill="#555753" transform="rotate(66.7 -75.5 210.9) scale(9.94252 21.15588)"/><path fill="#7a644d" d="M9 218l8-18 12-5z"/><path fill="#2b261b" d="M118 188l-5 28 13-12z"/><path fill="#ecd9c5" d="M77 177h20v8H77z"/><path fill="#d6a87c" d="M160 155.3l-23.9-7 9.6 6.6 10.9 3.9z"/><path fill="#f0fcff" d="M5.2 122.7l24.1-22.4 1.2 36.8-34.1-9.7z"/><ellipse cx="47" cy="175" fill="#303d41" rx="7" ry="4"/><path fill="#010100" d="M101 171h3v10h-3z"/></g></g></svg>