<svg xmlns="http://www.w3.org/2000/svg" viewBox="0 0 1400 2098"><defs/><filter id="a"><feGaussianBlur stdDeviation="12"/></filter><rect width="100%" height="100%" fill="#574638"/><g filter="url(#a)"><g fill-opacity=".5" transform="translate(4.1 4.1) scale(8.19531)"><circle cy="108" r="201" fill="#f2f6ec"/><circle r="1" fill="#25190a" transform="matrix(-99.90023 41.97038 -16.72305 -39.80513 45.4 183.7)"/><circle r="1" fill="#ebf1ef" transform="rotate(-101.8 55 2.8) scale(64.11358 153.69532)"/><circle r="1" fill="#eddcc3" transform="rotate(-52.8 270.8 10) scale(32.84538 46.65314)"/><ellipse cx="14" cy="180" fill="#262d28" rx="55" ry="49"/><path fill="#6c4d2a" d="M153.2 241.7L86.8 121.8l28-15.5 66.4 119.9z"/><ellipse cx="139" cy="30" fill="#413219" rx="6" ry="171"/><circle r="1" fill="#fff" transform="matrix(-47.88932 -34.53887 9.02663 -12.51573 12.4 68)"/><path fill="#111108" d="M0 211h56v26H0z"/><ellipse cx="91" cy="47" fill="#382404" rx="8" ry="12"/><ellipse cx="165" cy="80" fill="#e9eded" rx="22" ry="47"/><path fill="#f5f1ea" d="M62.8 197.6l-4.5 3.3-2.8 23.1 66.8 14.3z"/><ellipse cx="73" cy="135" fill="#c0bab2" rx="12" ry="30"/><path fill="#684f39" d="M87 114h56v81H87z"/><path fill="#f6fafc" d="M28 32h22v104H28z"/><path fill="#d6c8ae" d="M88 196h60v60H88z"/><path fill="#0a1213" d="M30.6 94.4l-.2 6-25-.8.2-6z"/><ellipse cx="19" cy="45" fill="#664a27" rx="7" ry="13"/><path fill="#041418" d="M129.4 191.4l12.8 4.7-4.9-62.6-9.8 50.9z"/><path fill="#7d6b4d" d="M73.2 58.8L57.7 90.9 42.5 68.6 77.7 65z"/><path fill="#120d0c" d="M55.1 197l3.5-9.5 26.3 9.6-3.5 9.4z"/><ellipse cx="54" cy="239" fill="#857150" rx="41" ry="11"/><ellipse cx="97" cy="184" fill="#d7c7ac" rx="30" ry="5"/><circle r="1" fill="#736d5c" transform="rotate(-146 58.5 1.8) scale(4.8136 21.42201)"/><circle r="1" fill="#fff" transform="matrix(-8.46614 -14.14589 27.10255 -16.22054 9 77)"/><circle r="1" fill="#b87d5d" transform="matrix(8.86118 4.35202 -12.52512 25.5025 105.4 139.6)"/><circle r="1" fill="#c8c3bc" transform="matrix(-.01776 -1.45373 42.767 -.52252 36 147.5)"/><ellipse cx="161" cy="234" fill="#987848" rx="15" ry="69"/><ellipse cx="146" cy="117" fill="#e7f5fc" rx="2" ry="115"/><path fill="#cfc0a9" d="M79 158h42v5H79z"/><circle r="1" fill="#d7d9d5" transform="matrix(-14.91604 17.0338 -67.64748 -59.2371 17.5 0)"/><path fill="#e7ebed" d="M24.3 102l-40.3 3.2 49.9 32.6L60.6 29.1z"/><ellipse cx="131" cy="30" fill="#d8d9d3" rx="5" ry="83"/><path fill="#8f816b" d="M50 136h9v90h-9z"/><path fill="#eedbc1" d="M33.3 247.7L-6 238.8l21 23.3 39.7 8.9z"/><ellipse cx="96" cy="172" fill="#352512" rx="40" ry="6"/><path fill="#363b37" d="M11 139.4l-8 4-10-20.8 8-4z"/><path fill="#2e332e" d="M17.5 152.5h-2l-1-63h2z"/><ellipse cx="117" cy="180" fill="#2f200c" rx="3" ry="19"/><path fill="#5f5645" d="M77 20l15 25-14-10z"/><circle r="1" fill="#8b8173" transform="matrix(-9.98762 31.9583 -2.3792 -.74355 32.9 17.3)"/><path fill="#79694f" d="M39.3 53.2L42.7 65l14.9 12-13.2-16.2z"/><path fill="#0f1107" d="M129 113h4v47h-4z"/><circle r="1" fill="#aea291" transform="matrix(5.2872 21.20583 -31.53668 7.86298 164.2 135.8)"/><path fill="#e9e9ea" d="M69 199.8l1.6 11.3-12.6 7.2-.5-20z"/><path fill="#0c1617" d="M132 154h12v39h-12z"/><path fill="#575047" d="M48 131h27v11H48z"/><path fill="#48443b" d="M82 204h6v12h-6z"/><path fill="#50321d" d="M74 150h47v7H74z"/><circle r="1" fill="#e9e4dd" transform="matrix(-.97152 2.87025 -23.80897 -8.0589 101.2 207.4)"/><path fill="#735935" d="M176.1 271l-27.7-74.5-1.6-21.9 1.6 86.4z"/><path fill="#2a2a23" d="M0 199h57v36H0z"/><path fill="#d6d7cf" d="M83 140l5-86-45 52z"/><path fill="#5e605b" d="M28.5 192.2l7.2-30.6-45.4-1.5 19.4 24.7z"/><path fill="#63523e" d="M-11-16l5 36 14 8z"/><path fill="#bab5b2" d="M76.3 141.7l15.7-3.3-28.9 3.5 5.7 28.5z"/><path fill="#2e2516" d="M135 191.5h-1l5-143h1z"/><path fill="#4b4840" d="M68 111h3v27h-3z"/><path fill="#d0c2b1" d="M70.2 193.9l.3-17.7 15.2 3.1-2.1 13.4z"/><path fill="#b3a992" d="M130 195h18v61h-18z"/><ellipse cx="50" cy="222" fill="#b9b1a8" rx="1" ry="77"/><path fill="#a6997b" d="M123 148h4v53h-4z"/><path fill="#f8fafb" d="M20 62l-27 58 3-108z"/><circle r="1" fill="#a7947a" transform="matrix(13.65224 38.98468 -18.3425 6.42345 170 178)"/><path fill="#a79271" d="M119 271L-3 236l91-1z"/><path fill="#5d5443" d="M123.6 197.5l11.6-48.7-3.2 35.6-57 6.8z"/><path fill="#d9dee4" d="M0 147h41v2H0z"/><path fill="#282a26" d="M-5.5 149.2l-10.5 2.4 69.1 17.2-6.8-19.3z"/><path fill="#837765" d="M30.7 36.3L8 40.2l29.9-19.8-18.2 22.7z"/><path fill="#b7a994" d="M148 0h23v20h-23z"/><path fill="#d8a771" d="M108 121l9 1-11 31z"/><path fill="#f3f4e8" d="M21 37l-5 10 8 1z"/><path fill="#c4c6bf" d="M137 115l-20-91-29 77z"/><path fill="#4f3816" d="M55 65l8 2 1 10z"/><path fill="#dddfdc" d="M44-16l-55 6 34 44z"/><ellipse cx="69" cy="216" fill="#7c6f5a" rx="12" ry="2"/><circle r="1" fill="#5e492a" transform="matrix(-11.4354 -3.53985 1.33073 -4.2989 118.8 116.2)"/><path fill="#716a5a" d="M64.1 148.6l-10.7-11.8-69.4-3.3 45.1 12.4z"/><path fill="#fff" d="M46 147h6v4h-6z"/><path fill="#695c4e" d="M63.4 188.1l14.8 7.4-28.1-42.7L63.4 125z"/><path fill="#856f56" d="M73.6 150.3l13.9-40.2 10 9.1-19 51.6z"/><path fill="#b5b2a4" d="M67.2 49.7l28.1 4.5-1.9-41.4-5 52.7z"/><path fill="#e2e3de" d="M85 61l-31 77 3-47z"/><path fill="#f9f2e7" d="M117 221l-59-4 33 13z"/><ellipse cx="34" cy="136" fill="#b9beb7" rx="27" ry="1"/><circle r="1" fill="#65543d" transform="matrix(-.3902 -100.67664 1 -.00388 143 41.3)"/><path fill="#4b3822" d="M96 162h26v18H96z"/><path fill="#756452" d="M6.9 38l3.4-1-4.1-11.9 10.3 15z"/><path fill="#010000" d="M51 117h3v4h-3z"/><circle r="1" fill="#232a1f" transform="rotate(109.1 0 108.3) scale(18.05482 1.53186)"/><path d="M60 188h9v10h-9z"/><path fill="#dcddd9" d="M65 68l-1-84-38 51z"/><path fill="#807d6a" d="M151 62h2v29h-2z"/><path fill="#5f5644" d="M117 15l-1 7-4-14z"/><circle r="1" fill="#cfbea5" transform="matrix(32.5775 9.19208 -4.42639 15.6875 114.6 244.9)"/><path fill="#655a46" d="M100.8 39.6l-15.6 9.8 30-25.5-7.1 9.2z"/><path fill="#5c472e" d="M16 35l8 6 6-6z"/><path fill="#e6dbcb" d="M117.6 210.2l-31.3-6.6 2-9.8 31.4 6.6z"/><path fill="#513b24" d="M83 164l8 2-1 22z"/><circle r="1" fill="#7c715b" transform="rotate(117.3 35.5 31.5) scale(7.84713 1)"/></g></g></svg>