<svg xmlns="http://www.w3.org/2000/svg" viewBox="0 0 934 1400"><defs/><filter id="a"><feGaussianBlur stdDeviation="12"/></filter><rect width="100%" height="100%" fill="#43432c"/><g filter="url(#a)"><g fill-opacity=".5" transform="translate(2.7 2.7) scale(5.46875)"><circle cy="224" r="229" fill="#b79482"/><path fill="#e4d0a4" d="M48 100L4 271-16 94z"/><ellipse cx="123" cy="143" fill="#4b0916" rx="108" ry="24"/><ellipse cx="28" cy="255" fill="#cde3a5" rx="132" ry="27"/><circle r="1" fill="#223313" transform="matrix(-28.5557 .74668 -1.78129 -68.12258 94.8 42.7)"/><ellipse cx="61" cy="206" fill="#ff2383" rx="35" ry="16"/><circle r="1" fill="#b6f2ba" transform="matrix(-55.51976 -18.8333 9.103 -26.83526 7 .7)"/><circle r="1" fill="#083d22" transform="matrix(8.27037 16.03927 -41.31533 21.30353 17 76)"/><ellipse cx="8" cy="114" fill="#ffc7a6" rx="153" ry="5"/><circle r="1" fill="#8d7e5f" transform="matrix(-4.07452 -77.3956 21.9139 -1.15367 141.3 30.9)"/><circle r="1" fill="#070000" transform="matrix(-23.43872 7.63028 -2.5351 -7.78731 87.2 221.4)"/><path fill="#dfeae2" d="M131 225l-6-23-36 36z"/><path fill="#641321" d="M127.8 180.2l-115-16.8 36.5 32.9-3.3-3.9z"/><circle r="1" fill="#0a0000" transform="matrix(31.97413 6.9486 -1.04663 4.81606 46.3 221.6)"/><circle r="1" fill="#3e5033" transform="matrix(17.86932 3.86348 -10.33892 47.81939 158 202.5)"/><ellipse cx="63" cy="58" fill="#dafbbd" rx="5" ry="28"/><path fill="#ffa2cd" d="M42 211l22-22h60z"/><path fill="#467755" d="M-8 60.3l23.8-42.9L56 39.7 32.2 82.6z"/><ellipse cx="83" cy="121" fill="#d64346" rx="71" ry="5"/><path fill="#b14e6b" d="M16 118h27v96H16z"/><path fill="#cff493" d="M42.3 110.5l-3.5-33.8 10.9-1.2 3.5 33.8z"/><path fill="#84996e" d="M175 64l11 98-37 4z"/><path fill="#435432" d="M11 90l115-14 3 38z"/><ellipse cx="3" cy="130" fill="#cdf798" rx="12" ry="34"/><path fill="#f6faf8" d="M18.3 16.4l-26.9-2.9 2.3-21.9 26.9 2.9z"/><path fill="#fcf7b7" d="M88.4 105.2l-3.8 9.3-22.4 2.6-29.6-4.7z"/><ellipse cx="65" cy="212" fill="#eb2256" rx="33" ry="9"/><ellipse cx="87" cy="16" fill="#8f926f" rx="4" ry="100"/><path fill="#161904" d="M76 61L61-9l24 21z"/><path fill="#111b0f" d="M0 74h37v23H0z"/><ellipse cx="116" cy="179" fill="#49060c" rx="23" ry="7"/><path fill="#140000" d="M57 126h101v8H57z"/><path fill="#8a95d1" d="M95.6 188.3l35.9-2.5 1 14-36 2.4z"/><path fill="#809e7f" d="M15.1 64.2l18.4-27.6L26 84.3l-42-44z"/><path fill="#182715" d="M61.1 78l-11-44.5-15.6 43.9 1.8-10.6z"/><path fill="#20103a" d="M107.4 208.1l-9.7 25-3.7-38.8 27.6 12.5z"/><path fill="#cb9194" d="M49 166h54v7H49z"/><path fill="#ed828f" d="M9.7 203.8l51.3 3.8 19.9-28.8-34.6 16.7z"/><path fill="#f1f7c1" d="M53.2 94.4l-8 .2-.4-13 8-.2z"/><path fill="#abb182" d="M22 271l164-18-202-37z"/><ellipse cx="42" cy="167" fill="#53001d" rx="4" ry="29"/><circle r="1" fill="#2c3f23" transform="matrix(-2.17933 18.59887 -5.882 -.68922 14.7 39.8)"/><path fill="#9da989" d="M50.6-.5l12-1.5 8.8 72.5-12 1.5z"/><path fill="#515238" d="M87 112l7-57 44 54z"/><path d="M92 230l12-12-53 5z"/><path fill="#aece76" d="M-16 95.1l72.1 3.3-2.4 10.8-69.7 16z"/><path fill="#da0545" d="M49.2 213.1l-1.7-12.9-28.5 6.1-3.7 7.8z"/><circle r="1" fill="#36341b" transform="matrix(-7.2008 -35.07952 17.052 -3.50027 106.4 17.4)"/><path fill="#807079" d="M108 237h63v12h-63z"/><path fill="#a5967c" d="M102.8 124.1l2.5-20.4 2.6-12.4 10.2-7.8z"/><ellipse cx="127" cy="114" fill="#ff818e" rx="40" ry="3"/><path fill="#7c000c" d="M143 115h21v7h-21z"/><circle r="1" fill="#02010a" transform="matrix(16.11701 3.8974 -.74 3.0601 34.7 218.4)"/><path fill="#252817" d="M71 66h14v36H71z"/><path fill="#b4aba8" d="M87 254.3l-8-12.6 46-30 8.2 12.6z"/><path fill="#484629" d="M153 55l18-1-6 41z"/><ellipse cx="146" cy="57" fill="#9b8665" rx="7" ry="54"/><path fill="#4e2725" d="M54 139h95v25H54z"/><path fill="#5a4f53" d="M32.2 158.4l-18.2 12-15.5 6.1 39.1-2.9z"/><path fill="#f2829d" d="M52.5 197.3L63 201l-7.4 21.8L45 219z"/><path fill="#bea4b7" d="M18 141h5v47h-5z"/><path fill="#edf9fd" d="M50 16.1l5.8-23.6 1.1 1.8L44-16z"/><path fill="#fff" d="M47 73h7v4h-7z"/><path fill="#69694f" d="M118 32h18v54h-18z"/><path fill="#45482d" d="M138 234l48-2v-81z"/><path fill="#a55f63" d="M52.1 149.3l-25.7 10.9-12.5-29.5 25.7-10.9z"/><path fill="#d72053" d="M97.1 215l-27 7.3-5.2-19.3 27-7.3z"/><path fill="#86a977" d="M20 17h39v18H20z"/><path fill="#9b653d" d="M65 179h37v10H65z"/><path fill="#a89d77" d="M38.9 191.3l-3-17.4-50.7 56.7 59.3-40.5z"/><ellipse cx="71" cy="177" fill="#280000" rx="26" ry="2"/><path fill="#7a6259" d="M44 144h106v4H44z"/><path fill="#d5f5c2" d="M0 32l12-14-28 10z"/><path fill="#818767" d="M156.3 148.3l-36 57.9 17.4 43.4-1.7-28.1z"/><path fill="#5d3234" d="M52.9 172.8l16.7 15.7-19.4 5.8-32.7-31.5z"/><path fill="#31361b" d="M98 0h7v113h-7z"/><path fill="#a20010" d="M48 121l-2 18-7-17z"/><path fill="#ff7697" d="M23 203l40-14 28 12z"/><path fill="#607a3b" d="M29 22l7-38L26-5z"/><path fill="#253e28" d="M7 40h48v5H7z"/><path fill="#511101" d="M16.9 174.5l1.2 23h-1l-1.2-23z"/><path fill="#6e8e7c" d="M53.9 47.2L20.5 52l-4.8 6.9 11.8 9.4z"/><path fill="#8d8579" d="M64.1 249.8l2.8-6.6 35.4-11.2-13.4 17.4z"/><path fill="#fc7981" d="M17 115h58v6H17z"/><path fill="#b37878" d="M104 168h23v7h-23z"/><path fill="#bcbbb8" d="M93.7 34.2l-8 12.3L88 34.4l5.6 1.2z"/><path fill="#b7b6d2" d="M34.8 128.7l-9.8-5 2.2-4.4 9.8 5z"/><path fill="#d34832" d="M93 116h54v5H93z"/><path fill="#1e2a18" d="M58.2 71l-33.5 6 24.4-18.9 6.1-13.5z"/><path fill="#d0c899" d="M59 250h62v6H59z"/><path fill="#d8dfba" d="M58.8 47.8l6-.5 2.4 26.9-6 .5z"/><path fill="#304c24" d="M63.4 94.1l-3.5-26.5-7.8-3.5L63 104.2z"/><circle cy="55" r="5" fill="#cdde91"/><path fill="#bbb9a9" d="M0 143h16v30H0z"/><path fill="#a6c6af" d="M54.1 22.6L27 36.5l-6.4-5.6 27-4.5z"/><path fill="#bb607a" d="M53.9 224.3l38-11.2-15 .6-23.3 6.9z"/><path fill="#a9a8c7" d="M86.9 190.4L76 192.3l47.9 5-18.7-9.4z"/><path fill="#99002c" d="M26 207h18v8H26z"/><path fill="#686b58" d="M66.9 16l3.4 38.8-18.8-68.6 7.3 45.2z"/><ellipse cx="89" cy="124" fill="#85726a" rx="43" ry="2"/></g></g></svg>