<svg xmlns="http://www.w3.org/2000/svg" viewBox="0 0 1400 2098"><defs/><filter id="a"><feGaussianBlur stdDeviation="12"/></filter><rect width="100%" height="100%" fill="#4e362c"/><g filter="url(#a)"><g fill-opacity=".5" transform="translate(4.1 4.1) scale(8.19531)"><ellipse cx="105" cy="152" fill="#c4d0ca" rx="170" ry="164"/><circle r="1" fill="#070000" transform="rotate(63.4 -4.7 75.8) scale(25.40054 26.35549)"/><circle r="1" fill="#4e2b36" transform="matrix(4.70817 40.07872 -102.80213 12.07647 .5 197.5)"/><circle r="1" fill="#fff" transform="matrix(-15.06825 -11.94295 23.44883 -29.58506 17.5 44)"/><ellipse cx="136" cy="35" fill="#fffcf7" rx="33" ry="16"/><path fill="#fff" d="M184.4 79.7l-43.7 5.4-3-24.8 43.6-5.4z"/><ellipse cx="152" cy="198" fill="#b7c2c8" rx="26" ry="84"/><path fill="#321303" d="M140.2 111.2l-26.6-25.6-19.3-39.1 44.3 18.8z"/><path fill="#eef0e7" d="M21.5 78.2L3.9 81.8l106.6 9.4-5.9-25.2z"/><path fill="#fff" d="M84-4L4 21l58-1z"/><path fill="#391300" d="M110.2 1.2L186 33.1 110.5-16l-67 53.1z"/><circle r="1" fill="#f3e7c7" transform="matrix(-.63811 -7.01164 29.7635 -2.7087 78 151.3)"/><path fill="#37352b" d="M128.8 177.7l-37.8 13-9.8-28.4 37.8-13z"/><path fill="#381600" d="M64.8 70.5l-1.2-6.9 159.6-28.1 1.2 6.9z"/><path fill="#ff568d" d="M13.8 170.2l7.6 21.9 32.2.9-3.1-19.8z"/><ellipse cx="100" cy="24" fill="#391500" rx="6" ry="37"/><path fill="#111e0d" d="M-16 78.9L61.9 96l7.4 43.8 8.4-46.6z"/><path fill="#320000" d="M18 198.3l-32.9 2.3-3.1-44.9 32.9-2.3z"/><path fill="#ebffc7" d="M20 90h15v51H20z"/><path fill="#fffffe" d="M107 10h12v46h-12z"/><path fill="#371602" d="M84 2L18 75l45-5z"/><path fill="#0e171c" d="M159 85.6l5-.2 3 83-5 .2z"/><path fill="#f3f3f0" d="M183.6 23.3L150.2 5.9 80.3-16h83.5z"/><path fill="#603d0e" d="M134.4 35.4l-16.8-21.1-19.5-25.2L140.4 29z"/><circle r="1" fill="#c7c6c5" transform="matrix(18.2706 25.52011 -13.79031 9.8729 147.8 164.4)"/><path fill="#eeeeea" d="M117.9 6.3l48.2 20.8L186 49.4l-31.5-9.6z"/><path fill="#725012" d="M-15 1l31 17L71-3z"/><circle r="1" fill="#acb5a6" transform="matrix(-2.33065 -5.22715 19.35717 -8.63087 70.2 173.8)"/><path fill="#fff" d="M96 33L94 8 83 18z"/><circle cx="104" cy="231" r="53" fill="#808788"/><path fill="#000c02" d="M42.4 193.2l3.6 14.5-20.4 5.1-3.6-14.5z"/><path fill="#32362b" d="M-9.5 77.3l88.2 22.1-48-17.9-46.7 30.6z"/><path fill="#281b08" d="M17.6 157.2l71.9 6.4-73.9 6.3 9.7-2.5z"/><path fill="#4c4942" d="M98.6 144.5l41.5-19.7 2.3 57.8-3.9-40.6z"/><path fill="#14151b" d="M152 161h19v7h-19z"/><path fill="#a9c8bf" d="M158.3 88.4l4 78.3-20-54.9 2-8.2z"/><path d="M10 120h9v15h-9z"/><ellipse cx="113" cy="104" fill="#091510" rx="3" ry="20"/><ellipse cx="136" cy="113" fill="#051419" rx="3" ry="27"/><path fill="#d9e2db" d="M-1 150l5-53 7 39z"/><path fill="#d8f6ad" d="M76 102h14v20H76z"/><path fill="#d0ec9d" d="M41 106h11v34H41z"/><circle r="1" fill="#344133" transform="rotate(174.6 60.8 48) scale(93.95363 2.30953)"/><ellipse cx="38" cy="114" fill="#213320" rx="3" ry="32"/><path fill="#c4e2e0" d="M166 93h5v67h-5z"/><path fill="#fff" d="M92 141l26 5-16 7z"/><path fill="#f9f6f0" d="M142 60h29v21h-29z"/><path fill="#182c19" d="M52 89h4v49h-4z"/><path fill="#2a0d11" d="M107 66h22v21h-22z"/><path fill="#ccccc7" d="M0 20h43v32H0z"/><ellipse cx="20" cy="216" fill="#e7f1df" rx="2" ry="19"/><path fill="#474830" d="M86.2 121L63 134.2l30.2-.7 3.1-40.1z"/><path fill="#556c74" d="M73 219.7l-8 27.9-46-13.3 8-27.9z"/><path fill="#8bb7b2" d="M116 91h18v32h-18z"/><ellipse cx="49" cy="196" fill="#edd7c5" rx="2" ry="22"/><path fill="#d7af6d" d="M186 54.6l-42.8 6.3-59.5 9.6 27.3-8.3z"/><path fill="#e2e3dc" d="M69.9 68.3l-40 12.9 36.7 9.1 19.1-16.1z"/><path fill="#553a0e" d="M182.3 28.3l3.7-6.6-92.2-34.5L163 27.5z"/><path fill="#251113" d="M56.2 22.2l-13.8 7.4 6.7 37.3 24.3-42.6z"/><path fill="#cae086" d="M56 97h8v38h-8z"/><path fill="#92c5d2" d="M109.4 118.6l-15-1.3 2.2-24 15 1.4z"/><path fill="#fffff8" d="M80.4 209l-2 2.2-8.8-8.2 2-2.2z"/><ellipse cx="75" cy="60" rx="15" ry="6"/><ellipse cy="76" fill="#e3debb" rx="24" ry="5"/><path fill="#454b48" d="M19.8 131.7L-16 144.6l12.1-49 7.8 34.8z"/><path fill="#1b3f43" d="M0 204h16v25H0z"/><ellipse cx="93" cy="35" fill="#f0efed" rx="2" ry="25"/><circle r="1" fill="#d2e2ce" transform="rotate(65.8 -71 131.6) scale(6.61854 9.28284)"/><path fill="#d1d8dd" d="M80.9 241.4L186 271v-42.2l-38 28.7z"/><path fill="#423216" d="M99 135h24v9H99z"/><path fill="#e4ece2" d="M-13.1 141.9l47.3-8.7-.6 2.3-41.8 12.4z"/><path fill="#331d17" d="M8 141l-5 17 17-16z"/><path fill="#eceae7" d="M105 29l2-24 20 19z"/><circle r="1" fill="#1f2211" transform="matrix(-10.94084 -2.8533 .87225 -3.3446 61.1 209)"/><path fill="#f6f9f8" d="M139.8 155.1l-5.9-15.5-2.2 8.6 1 31z"/><path fill="#2c2a26" d="M38.2 149l-.8-4 30.4-6 .8 4z"/><path fill="#bb3963" d="M20.6 206.3l-10-55.1 9.5 7.1 7.9 32.4z"/><path fill="#d6d4cf" d="M79.7 7.5L68.2 20.7l-71.6 3 82-24.4z"/><path fill="#484742" d="M87 157h25v40H87z"/><path fill="#e3d5a9" d="M21 150h33v5H21z"/><path fill="#793939" d="M78 28h14v30H78z"/><path fill="#393e3f" d="M161.7 92.1l-3.5 44.3 3.6 7.5 5.4 23.5z"/><path fill="#fff" d="M39 63h9v3h-9z"/><path fill="#a7b3bd" d="M156 270l-146 1 49-28z"/><path fill="#ded4cc" d="M20 83h5v54h-5z"/><path fill="#cabb9a" d="M86.5 219.5l-32.8-35.2 5.6-.8 2.6 15.2z"/><path fill="#999694" d="M115 176h39v74h-39z"/><path fill="#674916" d="M102.5 62.1l-.6-6 59.6-6.2.6 6z"/><circle r="1" fill="#24271c" transform="rotate(-6.9 757.4 -74.2) scale(5.28114 6.68761)"/><path fill="#513825" d="M60.1 166.9l-11.7 14.8-10.9-26.6-40-1.4z"/><circle r="1" fill="#464f4a" transform="rotate(-3.3 1859 -2147.2) scale(61.72239 1)"/><path fill="#223020" d="M90 91h4v34h-4z"/><ellipse cx="69" cy="113" fill="#141b1d" rx="3" ry="24"/><path fill="#0f1d1a" d="M68.5 195.5l11.9-1.9 1 7-11.8 1.8z"/><path fill="#785a31" d="M49.2-16L-16 24l25.9-3.2L67.5-2.5z"/><path fill="#78858d" d="M-13 271l5.4-41.9 45.5 9.1 34.9 10z"/><path fill="#f76996" d="M34 170h10v20H34z"/><path fill="#f2f3f1" d="M153 137l-3 22-9-23z"/><circle r="1" fill="#d7dada" transform="matrix(1.12954 -6.91076 20.3826 3.33147 166.7 176)"/><circle cx="45" cy="98" r="6" fill="#c6de8b"/></g></g></svg>