<svg xmlns="http://www.w3.org/2000/svg" viewBox="0 0 1400 2098"><defs/><filter id="prefix__a"><feGaussianBlur stdDeviation="12"/></filter><rect width="100%" height="100%" fill="#3d352d"/><g filter="url(#prefix__a)"><g transform="translate(4.1 4.1) scale(8.19531)"><circle cx="90" cy="69" r="212" fill="#fff" fill-opacity=".5"/><circle r="1" fill="#fefff2" fill-opacity=".5" transform="matrix(23.19394 -43.65306 144.0092 76.51561 93 0)"/><circle r="1" fill="#4d3b19" fill-opacity=".5" transform="matrix(-29.27457 10.1893 -7.47056 -21.46343 75.6 75.7)"/><circle r="1" fill="#f0eaec" fill-opacity=".5" transform="matrix(-52.66864 4.41386 -2.77964 -33.16823 150 243.3)"/><circle r="1" fill="#eee5d5" fill-opacity=".5" transform="matrix(45.19224 -.04542 .02183 21.72624 50 167.9)"/><path fill="#221e09" fill-opacity=".5" d="M117.3 114.1l2.2 25-32.8 2.8-2.2-25z"/><circle r="1" fill="#e3e2cf" fill-opacity=".5" transform="matrix(22.04386 33.23978 -15.44463 10.24252 145.4 110.4)"/><path fill="#42310e" fill-opacity=".5" d="M48.1 115.5l-5.2 31.4-39.5-36.5 33.9 1.7z"/><circle r="1" fill="#624f39" fill-opacity=".5" transform="rotate(-176 70.7 83.2) scale(43.71876 11.72214)"/><path fill="#776753" fill-opacity=".5" d="M93 186l-77 8 7 69z"/><circle r="1" fill="#f6e7d5" fill-opacity=".5" transform="matrix(6.5704 -36.51677 12.6851 2.28241 4.4 253)"/><path fill="#e9d4ab" fill-opacity=".5" d="M47.6 93.4l98.4 10.3-1.6 15L46 108.2z"/><path fill="#4a5037" fill-opacity=".5" d="M152.4 111.1l.6-16.3 33-27.9v28.5z"/><ellipse cx="13" cy="21" fill="#c8c7b8" fill-opacity=".5" rx="77" ry="29"/><circle r="1" fill="#b99c5e" fill-opacity=".5" transform="rotate(39.5 -110.3 64.8) scale(23.59283 43.51757)"/><path fill="#f5ffff" fill-opacity=".5" d="M63 160l-1-32 18 2z"/><path fill="#e3e1d5" fill-opacity=".5" d="M13.4 126l25.3 27-16.1 15-25.3-27z"/><circle r="1" fill="#423926" fill-opacity=".5" transform="matrix(-3.07021 10.99626 -23.3736 -6.52603 77.3 83.4)"/><path fill="#1b0e00" fill-opacity=".5" d="M59 114h37v4H59z"/><circle r="1" fill="#6b84d3" fill-opacity=".5" transform="matrix(-28.78772 7.51066 -1.52363 -5.83996 103.7 247)"/><path fill="#bab5a7" fill-opacity=".5" d="M75 69l78 20 32-58z"/><path fill="#f6d1a3" fill-opacity=".5" d="M66 257l59-31-66 10z"/><circle r="1" fill="#c0bab4" fill-opacity=".5" transform="rotate(173.7 62.9 102.4) scale(32.25108 17.92359)"/><circle r="1" fill="#fff" fill-opacity=".5" transform="matrix(-11.7168 -32.11055 13.42952 -4.90029 170 5.2)"/><circle r="1" fill="#867e6e" fill-opacity=".5" transform="matrix(-2.9956 11.50028 -36.39423 -9.47999 118.6 148.3)"/><circle r="1" fill="#f1f1ec" fill-opacity=".5" transform="matrix(-3.63782 12.25549 -36.16497 -10.7349 112.1 27.5)"/><path fill="#eaf4ff" fill-opacity=".5" d="M29 151h85v5H29z"/><circle r="1" fill="#a4a18e" fill-opacity=".5" transform="matrix(-13.7062 14.40672 -20.55835 -19.5587 54.5 40)"/><path fill="#98886d" fill-opacity=".5" d="M-16 174l74-5-68 24z"/><path fill="#170f00" fill-opacity=".5" d="M96 117h21v13H96z"/><path fill="#dbded9" fill-opacity=".5" d="M125.8 81.9l7.5 48L163.2 67l-33.9 10z"/><path fill="#574a30" fill-opacity=".5" d="M57 67h4v84h-4z"/><path fill="#ddcdb2" fill-opacity=".5" d="M46 105h11v62H46z"/><path fill="#bda679" fill-opacity=".5" d="M99 65h24v36H99z"/><path fill="#2a2212" fill-opacity=".5" d="M45 113l-28 17v-19z"/><path fill="#939087" fill-opacity=".5" d="M82.2 120.8l10.3-4 19.3 50.4-10.3 4z"/><path fill="#010000" fill-opacity=".5" d="M-16 46l17 7v27z"/><path fill="#aaa197" fill-opacity=".5" d="M140.3 191.2L38.1 240.4l2-2.1L59 191.6z"/><path fill="#0d1b35" fill-opacity=".5" d="M94 191l-11-9 14 1z"/><path fill="#40362b" fill-opacity=".5" d="M55.6 64l27.7 7.6-24.1.3-33.8-22.6z"/><path fill="#5e5032" fill-opacity=".5" d="M136.5 176l20.9 6.6 17.1-8-41.3-17.7z"/><path fill="#bca37a" fill-opacity=".5" d="M27 94h52v19H27z"/><path fill="#332b2b" fill-opacity=".5" d="M123 180l-6-30-7 22z"/><path fill="#d9c7a1" fill-opacity=".5" d="M50.3 54.3L19.8 81.5l25.1 13.3.9-30.6z"/><path fill="#6973a9" fill-opacity=".5" d="M136 199l27-8 21 24z"/><path fill="#d36f5e" fill-opacity=".5" d="M97 223l-34 13 57-3z"/><ellipse cx="125" cy="151" fill="#bbb9ba" fill-opacity=".5" rx="4" ry="27"/><path fill="#51432f" fill-opacity=".5" d="M94.4 148.2l-3.2-10.1-15.2 3 3 6.9z"/><path fill="#675e56" fill-opacity=".5" d="M28 193h12v61H28z"/><path fill="#cdb68a" fill-opacity=".5" d="M16 166v-56l-29 39z"/><path fill="#dccab4" fill-opacity=".5" d="M162.3 194.2l23.7-4.4-52.5-12.2-1.8 18.6z"/><path fill="#e1e6f3" fill-opacity=".5" d="M95 146l11-9-10-2z"/><path fill="#413d2d" fill-opacity=".5" d="M107.6 149.6l-4.1-29.7 10.9-1.5 4.1 29.7z"/><path fill="#747059" fill-opacity=".5" d="M17 49h42v9H17z"/><circle r="1" fill="#d6d4cd" fill-opacity=".5" transform="matrix(-73.8705 -3.6557 .8745 -17.671 43 5.6)"/><path fill="#dcd6d0" fill-opacity=".5" d="M121.1 231.9l78-36.4 19.8 42.6-78 36.4z"/><path fill="#5b55a6" fill-opacity=".5" d="M86 231l-22-3 45-12z"/><path fill="#807b6d" fill-opacity=".5" d="M45 148.3l-8.6 5.1L21 127.7l8.6-5.1z"/><path fill="#e7f3ff" fill-opacity=".5" d="M45.5 162.2l-4.4 4.1-26.6-28.5 4.4-4.1z"/><path fill="#789ed6" fill-opacity=".5" d="M70 248l55-14-29 22z"/><ellipse cx="103" cy="95" fill="#e4d6ba" fill-opacity=".5" rx="5" ry="20"/><path fill="#91846a" fill-opacity=".5" d="M118 67l1 28-47-52z"/><path fill="#babeb6" fill-opacity=".5" d="M54.6 40.9l23.9 32-7-15.4-2.1-19.2z"/><path fill="#805c44" fill-opacity=".5" d="M98 150h5v29h-5z"/><path fill="#cdc5b0" fill-opacity=".5" d="M122.4 108.7l59.1-3.7-65 30.8 12.9-57z"/><path fill="#3c371b" fill-opacity=".5" d="M46 82h16v10H46z"/><path fill="#adaa93" fill-opacity=".5" d="M115 22l2-29 23 2z"/><ellipse cx="93" cy="110" fill="#e5d9c4" fill-opacity=".5" rx="15" ry="5"/><path fill="#414859" fill-opacity=".5" d="M24 154.2l-8.8-1.4.7-5 9 1.4z"/><path fill="#c1b6a1" fill-opacity=".5" d="M49.3 226.9l-26.8 16.7-8.3-46.6-30.2 52.1z"/><path fill="#663987" fill-opacity=".5" d="M20 245h19v11H20z"/><path fill="#40413f" fill-opacity=".5" d="M91 55l-20-8 7 18z"/><path fill="#947d53" fill-opacity=".5" d="M141.9 147.9l-10.6-23.5-5.1 22.9 25.9 31.9z"/><path fill="#a6aab3" fill-opacity=".5" d="M53 148.8l9.6-3.5 34 5.6-112.4 4z"/><path fill="#eefbbe" fill-opacity=".5" d="M60.4 228.2l15.7 33.5-4.5 2.1-15.7-33.5z"/><path fill="#656a59" fill-opacity=".5" d="M169.9 80.8l-15.8 4.7-1.2 12.8L186 101z"/><path fill="#9598b4" fill-opacity=".5" d="M122 150h12v26h-12z"/><path fill="#fff" fill-opacity=".5" d="M164.8 24.8L186 31l-13.2-47L159.6.2z"/><circle r="1" fill="#8f7f97" fill-opacity=".5" transform="matrix(136.17675 -36.27572 .35334 1.32642 137.3 240.7)"/><ellipse cx="49" cy="177" fill="#e3d7c4" fill-opacity=".5" rx="27" ry="5"/><path fill="#bcafa1" fill-opacity=".5" d="M105.3 171.8l17 73.2-27-93.6-22.6 35.8z"/><path fill="#fff" fill-opacity=".5" d="M57 152h38v3H57z"/><path fill="#cad2c8" fill-opacity=".5" d="M143 197l-50 11 23 3z"/><path fill="#4d4435" fill-opacity=".5" d="M52.8 61.4l27.3 30 20.9 8.3-4.7-22.4z"/><path fill="#c4c6bd" fill-opacity=".5" d="M78 67l25 13-9-12z"/><path fill="#b9b8b2" fill-opacity=".5" d="M171 33l-51 16 46 42z"/><path fill="#252c31" fill-opacity=".5" d="M120 132h2v26h-2z"/><path fill="#36301f" fill-opacity=".5" d="M99 115l12-1-18 25z"/><path fill="#466067" fill-opacity=".5" d="M29 193h21v10H29z"/><path fill="#978379" fill-opacity=".5" d="M73.2 232.9l1.5 22.5L45 193.9l-8.7 19.5z"/><path fill="#b09c7e" fill-opacity=".5" d="M-6.3 141.6l-8.8 67.6 84.9-29-50.2 5.3z"/><path fill="#e4f3ff" fill-opacity=".5" d="M16 153h28v6H16z"/><path fill="none" stroke="#535559" stroke-opacity=".5" stroke-width=".5" d="M61 168.7q-7 2.6-71.3 7.1"/><path fill="#acc1c8" fill-opacity=".5" d="M99 140l-17-16v8z"/><ellipse cy="141" fill="#877e64" fill-opacity=".5" rx="2" ry="67"/><path fill="#667075" fill-opacity=".5" d="M66 129l-3-13 39 13z"/><circle r="1" fill="#b3b1a7" fill-opacity=".5" transform="matrix(25.20388 13.06145 -4.47343 8.6321 158.3 139.3)"/><path fill="#eef0ea" fill-opacity=".5" d="M119.9-16L109 44.9l37-3.2-54.4-25.9z"/><path fill="#403b30" fill-opacity=".5" d="M42 112h3v37h-3z"/><path fill="#ced0c2" fill-opacity=".5" d="M28 49.8l-36.3-8.9 10.9-2 53.2 7z"/></g></g></svg>