<svg xmlns="http://www.w3.org/2000/svg" viewBox="0 0 1400 2098"><defs/><filter id="a"><feGaussianBlur stdDeviation="12"/></filter><rect width="100%" height="100%" fill="#483a30"/><g filter="url(#a)"><g fill-opacity=".5" transform="translate(4.1 4.1) scale(8.19531)"><circle cx="58" cy="106" r="191" fill="#fff"/><circle r="1" fill="#fff" transform="matrix(-62.8473 -40.34358 91.83493 -143.06063 21.5 54.8)"/><circle r="1" fill="#624925" transform="matrix(-89.7318 70.20838 -40.41141 -51.64894 130.7 153.8)"/><path fill="#040000" d="M112 112l-57 19 1-25z"/><path fill="#ebf2e7" d="M128-16l2 156L-16 6z"/><circle r="1" fill="#fff" transform="rotate(-142.4 34 82.5) scale(23.54364 30.7807)"/><circle r="1" fill="#fffada" transform="matrix(-.00235 -11.04333 166.08125 -.03533 53 252.2)"/><path fill="#fff6e5" d="M56.1 178.3l44.8-10.9-4.5 19.6-112.4-6.4z"/><ellipse cx="18" cy="52" fill="#feffff" rx="33" ry="83"/><path fill="#43371f" d="M117 146l56-33 13 124z"/><circle r="1" fill="#6e391c" transform="rotate(-52.3 182 -22.2) scale(31.36585 17.18842)"/><path fill="#866547" d="M21 186l-35 41 80 18z"/><path fill="#353026" d="M97 246l54-56-42-6z"/><circle r="1" fill="#cfc7b1" transform="matrix(-16.41938 -23.80125 23.17257 -15.98569 141.2 239.3)"/><path fill="#ccd7d3" d="M140 63h9v70h-9z"/><path fill="#fcf3e9" d="M66.7 154.7L-16 116.8v-3.1l91.2 29.6z"/><path fill="#0c0402" d="M55.9 155.3l23.8.3-4.6 14.2-26.4 3.7z"/><path fill="#60481f" d="M149 62h22v87h-22z"/><ellipse cx="135" cy="81" fill="#282d0c" rx="6" ry="21"/><path fill="#bec3bd" d="M149.2 103.8l-36.9 7.3.8 87.2 3.5-46.5z"/><path fill="#f5feff" d="M43.4 177.7l-11.2-13 17.3-69.9L-11.3 203z"/><path d="M56 109h20v14H56z"/><ellipse cx="117" cy="177" fill="#ffecd2" rx="15" ry="5"/><ellipse cx="1" cy="136" fill="#6b4516" rx="23" ry="4"/><path fill="#b9a888" d="M181.6 161l-33.9 11.4-80.1-15.1 78 5.6z"/><ellipse cx="90" cy="60" fill="#cecfc5" rx="40" ry="49"/><path fill="#d7dbd0" d="M175.5 11h-101v-22h101z"/><path fill="#ced3c9" d="M132 64l17-31 36 23z"/><path fill="#606459" d="M186 33l-56-4V11z"/><ellipse cx="68" cy="235" fill="#3f3227" rx="40" ry="3"/><ellipse cx="166" cy="174" rx="18" ry="6"/><path fill="#7d1d00" d="M56 117h4v35h-4z"/><circle r="1" fill="#f8c089" transform="matrix(-9.69343 -2.01718 .69412 -3.33555 152 154)"/><path fill="#fff7b7" d="M60.5 148.8l6-26.3 3 .7-6 26.3z"/><path fill="#fce5cc" d="M0 234.3l27.9 2.5-1.9 20.9-27.9-2.5z"/><ellipse cx="42" cy="202" fill="#a58a6f" rx="36" ry="19"/><path fill="#3a4a51" d="M38 146h12v12H38z"/><path fill="#6a4d3a" d="M102 185l13-75-38-2z"/><path fill="#ffedd9" d="M54 177h40v7H54z"/><circle r="1" fill="#fdfffb" transform="matrix(15.19014 -3.33977 16.22484 73.79482 9.7 17.5)"/><path fill="#c5c7bc" d="M120 138l10-122-46-32z"/><path fill="#dce0dc" d="M31 0h38v108H31z"/><path fill="#df8c50" d="M87.7 157.9l-27.6-29.3 9.4-5.4-3.8 25.3z"/><path fill="#463a1d" d="M129 131h26v19h-26z"/><path fill="#3f413b" d="M137.9 201l48.1 17.8v-49.6l-80.9 37.7z"/><path fill="#392618" d="M81 131h12v27H81z"/><path fill="#edfbff" d="M37.9 133l-53.9 2.5 37.5-27.7 1.7-28.9z"/><path fill="#d3bea5" d="M115 183l33-3-43-10z"/><path fill="#494639" d="M113 165.9l-18.4-.9 47.3 14.9 28.3.2z"/><path fill="#283844" d="M45 179l-11-17 21 12z"/><path fill="#d4d6ce" d="M113 110h5v43h-5z"/><ellipse cx="5" cy="160" fill="#effcff" rx="31" ry="20"/><path fill="#342214" d="M67.3 112l-13.5-4.4 6.9 22.9L83.8 108z"/><path fill="#8e7557" d="M171 106l-11 44-4-30z"/><path fill="#cabca7" d="M9 241h162v6H9z"/><path fill="#513a2a" d="M82 109h31v8H82z"/><path fill="#2f2016" d="M65 151l21 18-27-5z"/><path fill="#6d5849" d="M1 230h116v5H1z"/><path fill="#d7b09b" d="M56 176l39 1-2-11z"/><path fill="#2d281c" d="M118 185l7 17-16 27z"/><ellipse cx="90" cy="236" fill="#5b4f41" rx="27" ry="4"/><path fill="#d6dfe2" d="M32 77h23v70H32z"/><path fill="#c5c7bd" d="M56 93h72v16H56z"/><path fill="#82868b" d="M35 156h20v12H35z"/><path fill="#ada58c" d="M80 158h40v5H80z"/><path fill="#141816" d="M166 133h5v22h-5z"/><path fill="#a06b4b" d="M88.2 115.9l2.7-2.3 15.8 17.4-2.5 25.3z"/><path fill="#a4a79f" d="M128 103h19v27h-19z"/><path fill="#e7e3df" d="M90 271l-14-27 77 11z"/><ellipse cx="133" cy="68" rx="4" ry="3"/><path fill="#8f8976" d="M135 201l-14 16h65z"/><path fill="#58421c" d="M172 67l-21-8-2 11z"/><path fill="#93816d" d="M157.9 183.4l4.7-6.1L7.2 194.9l160.6-11.4z"/><path fill="#c9d0ce" d="M-7.7 77.6l19.9 2-4.5 42.8-19.9-2z"/><ellipse cx="155" cy="160" fill="#0e0800" rx="15" ry="2"/><path fill="#c7c0ab" d="M113 247l73-5-50-27z"/><path fill="#f3c497" d="M54.2 151.6l14.7-9.1 13.8 11.3 1.8-3.4z"/><path fill="#c8cbc5" d="M144.2 60.3l1-7 30.6 4.4-1 7z"/><ellipse cx="68" cy="207" fill="#93785e" rx="29" ry="24"/><path fill="#3f1d0c" d="M76 125l-8 12 2-28z"/><path fill="#ccb68d" d="M128 163h37v3h-37z"/><path fill="#bfc2b7" d="M113 34h17v107h-17z"/><path fill="#f8fcff" d="M16.8 173.8l13.7-21.4 9.2 25-41.2-1.7z"/><path fill="#000809" d="M100 173h4v7h-4z"/><ellipse cy="180" fill="#ddd0c5" rx="54" ry="4"/><path fill="#a8927d" d="M18.3 230l32.2-31.5-8.2-19.5L15 218.5z"/><path fill="#aa8869" d="M151.3 148.7l-13 .1 7.3 11.7 6.1-12.5z"/><path fill="#2f2d28" d="M183.2 148l-61.8-5-3.7 11.8 25.6-9.4z"/><path fill="#70461a" d="M0 136h20v3H0z"/><path fill="#e1cdb0" d="M-16 236.1L66.8 271l17.1-23.2-80.1-15.2z"/><path fill="#966037" d="M89 158.9l-23-28.4 2.6 48.4-.1-39.6z"/><path fill="#9e6c61" d="M146.8 151.3l-18.7-2.6-6.3 8.4-10.5 2.8z"/><path fill="#725c45" d="M115 194l-17-18-1 65z"/><path fill="#909087" d="M145.7 16.7l39 .6-.4 18-39-.6z"/><ellipse cx="126" fill="#e6e6e0" rx="26" ry="6"/><ellipse cx="60" cy="241" fill="#ada28c" rx="42" ry="2"/><path fill="#4c5151" d="M50 145l-9 1 17 11z"/><path fill="#ba9e88" d="M2 226l8-33-26 13z"/><path fill="#52533f" d="M141.5 103.1l-2.7-21.8 4-26.8-12.3 47z"/><path fill="#342c1e" d="M145.4 160.7L131 142.2l3.9 15.1-8 2.9z"/></g></g></svg>