<svg xmlns="http://www.w3.org/2000/svg" viewBox="0 0 1400 2098"><defs/><filter id="a"><feGaussianBlur stdDeviation="12"/></filter><rect width="100%" height="100%" fill="#664c3e"/><g filter="url(#a)"><g fill-opacity=".5" transform="translate(4.1 4.1) scale(8.19531)"><circle r="1" fill="#f7ffff" transform="matrix(137.4269 -1.8366 2.2717 169.98482 80 127.7)"/><circle r="1" fill="#432c0c" transform="matrix(-84.39598 -11.11094 4.10006 -31.14303 122 181.2)"/><circle r="1" fill="#fbffff" transform="matrix(2.12656 -30.8428 91.49838 6.30865 73.2 50)"/><circle r="1" fill="#f1f9fc" transform="matrix(-33.28636 22.19866 -23.30743 -34.94893 20.1 211.4)"/><path fill="#345129" d="M64 83h49v58H64z"/><circle r="1" fill="#dce8ec" transform="matrix(17.11407 -37.5534 34.33247 15.6462 150.2 109)"/><path fill="#4c6a3f" d="M0 100h38v42H0z"/><path fill="#f6ffff" d="M39 82h23v66H39z"/><path fill="#dce4e6" d="M27 215h104v33H27z"/><path fill="#887666" d="M75.5 216.1l48.1-4-77.2-40.2-33.1 42.4z"/><path fill="#fcffff" d="M153.6 68.2l-88.2 1.7-81.4-2.6L72.5 34z"/><ellipse cx="27" cy="82" fill="#142125" rx="85" ry="2"/><circle r="1" fill="#fff" transform="matrix(9.79414 10.65105 -31.05796 28.55926 7 197)"/><ellipse cx="105" cy="183" fill="#230600" rx="59" ry="4"/><path fill="#c9d4cf" d="M83 174l-16-53 24 9z"/><path fill="#00040f" d="M14 84h5v57h-5z"/><circle r="1" fill="#fffbe9" transform="matrix(4.89398 8.78563 -11.51983 6.41705 50.8 197.9)"/><path fill="#c3cead" d="M19 90l1 46 53-67z"/><ellipse cx="162" cy="161" fill="#575246" rx="6" ry="29"/><circle r="1" fill="#bfc5c3" transform="matrix(-72.85845 1.4347 -.37242 -18.91266 67 22.7)"/><path fill="#7d7a70" d="M163.7 78.1l3.8 18.9-29.4 8.3 3-12.1z"/><path fill="#c6cdb8" d="M-12.3 75.8l94.2 11.6-9.4 40.5-11.3-63.3z"/><path fill="#e7edef" d="M113 80h16v68h-16z"/><path d="M86 82h4v40h-4z"/><ellipse cx="66" cy="145" fill="#dee8ed" rx="70" ry="4"/><path fill="#fff" d="M14 89l-30 13L2 83z"/><path fill="#e8ecef" d="M144 146l42-25-35-31z"/><path fill="#796541" d="M40 149h31v38H40z"/><circle r="1" fill="#b3b9b8" transform="matrix(7.77965 -9.86203 97.8412 77.18186 169 58.8)"/><path fill="#adab9c" d="M186 234.2l-49.4-44.6 4.5-.5 13 .6z"/><ellipse cx="7" cy="139" fill="#101025" rx="31" ry="3"/><ellipse cx="110" cy="109" fill="#000014" rx="2" ry="29"/><path fill="#fff" d="M62 85h1v63h-1z"/><circle r="1" fill="#242422" transform="rotate(-141.4 119.7 69.4) scale(27.6734 5.9228)"/><circle r="1" fill="#babfbe" transform="rotate(162.3 11.5 129) scale(105.57043 16.55391)"/><path fill="#5c4a3d" d="M107 213H54l20-9z"/><circle r="1" fill="#889092" transform="matrix(-.60819 20.49205 -51.40102 -1.52555 170.1 5.5)"/><path fill="#5f5953" d="M29 199l-18 16h21z"/><ellipse cx="76" cy="226" fill="#dcdedc" rx="29" ry="13"/><path fill="#d5d6d0" d="M13 147h26v16H13z"/><path fill="#756141" d="M88 150h79v28H88z"/><path fill="#12192b" d="M63 85h4v38h-4z"/><path fill="#969a96" d="M119 140l21 4 14-22z"/><path fill="#151b21" d="M62 82h45v4H62z"/><path fill="#382210" d="M66 186h69v3H66z"/><path fill="#444a60" d="M71 138h40v4H71z"/><ellipse cx="162" cy="92" fill="#383222" rx="2" ry="10"/><circle r="1" fill="#927b71" transform="matrix(32.44838 -2.45672 .78304 10.34237 91.7 201)"/><path fill="#a8ac9a" d="M73.3 157.8l8.6 14.6 8.9-1.5-22.5-61.1z"/><circle r="1" fill="#a1a6a2" transform="matrix(46.87626 -15.05032 6.33826 19.74137 149.4 242.2)"/><path fill="#b0bf8d" d="M18 86h19v52H18z"/><path fill="#7c8867" d="M38 96l1 44-16-39z"/><ellipse cx="98" cy="75" fill="#c1c3c4" rx="170" ry="5"/><path fill="#e4e7ed" d="M71.1 215.5l-36.9.8-50.2-2.8 27.3 30z"/><path fill="#9fb16e" d="M67 90h13v48H67z"/><path fill="#433c3a" d="M144 212.8h32l-36.7-12.6-7.7-9z"/><path fill="#353f2d" d="M73.8 122.2l15.9 5.6 3-31.5-8.5 16.1z"/><path fill="#9c9f9d" d="M186 197l-8-36-18 21z"/><path fill="#878078" d="M151.5 113.1l1.2-1.4 10.4 3.9-26 3.4z"/><path fill="#fff" d="M-15 84l29 1-2 9z"/><path fill="#f8fcfb" d="M41 54h73v16H41z"/><path fill="#eef1f2" d="M62.9 138.1l-21 .8-.8-23 21-.8z"/><path fill="#d3dcbb" d="M7 103h6v14H7z"/><path fill="#f2f7fc" d="M138.4 131.2l18.8 3.1-1.7-.2 4.2 18.1z"/><path fill="#b3b2af" d="M-14 10l5 37L102-6z"/><path fill="#a8a8a1" d="M91 178h71v2H91z"/><path fill="#59482a" d="M92 177l-44-1 21-13z"/><path fill="#8e7753" d="M39 151h22v22H39z"/><ellipse cx="24" cy="83" fill="#242d2a" rx="14" ry="2"/><path fill="#eaedf0" d="M165.3 125.4l8.7 49.5 3.2-68.6-24.7-8.8z"/><ellipse cx="105" cy="149" fill="#949a9b" rx="64" ry="2"/><path fill="#323735" d="M13 83h3v58h-3z"/><ellipse cx="83" cy="145" fill="#e6edf5" rx="41" ry="3"/><path fill="#c9cac8" d="M116 107l70-52-63 9z"/><ellipse cx="50" cy="90" fill="#c4c2c6" rx="13" ry="23"/><path fill="#f9ffff" d="M-18.9 193.8l31-20.2L27 196.2l-31 20.2z"/><path fill="#e7e8e5" d="M55 30l93 21-164 10z"/><path fill="#e1e0e2" d="M89.7 134.2l-6.3 3.3-1.2.5-1.9-13.3z"/><path fill="#c5b7a4" d="M80 216.2l-3-23.8 5-.6 3 23.8z"/><path fill="#463e2d" d="M150 99l-2-12-2 13z"/><path fill="#96a37d" d="M94 86l13 39-1-39z"/><path fill="#3b2422" d="M102.3 171l.9-.4 22.5 42.4-.9.4z"/><path fill="#a7a499" d="M43 166.1l-59 12L20.3 142l-36.3 2.1z"/><path fill="#5c3833" d="M103.5 211.6l-3.8 1.5-7.2-18.7 3.8-1.5z"/><path fill="#947c60" d="M127 151h29v16h-29z"/><path fill="#e0d8c7" d="M33 206l22 2 11-18z"/><path fill="#aeafb1" d="M15.6 278l-12-29.6L44.4 232l12 29.7z"/><path fill="#d1dcbd" d="M18 85h14v16H18z"/><path fill="#3c4655" d="M62.1 140.8l7.1-23.2-6 12.5 7.7 12.3z"/><ellipse cx="92" cy="102" fill="#080e24" rx="20" ry="1"/><circle r="1" fill="#c9c9c5" transform="rotate(8.9 -109 583) scale(41.45813 12.41398)"/><path fill="#e8eaed" d="M111.8 130.8l21.3-15 5.1 7.4-21.3 15z"/><path fill="#f0f3f3" d="M0 77h33v3H0z"/><ellipse cx="20" cy="102" fill="#222436" rx="18" ry="1"/><ellipse cx="98" cy="211" fill="#675a51" rx="40" ry="3"/><path fill="#2d323f" d="M0 120h37v1H0z"/><path fill="#c3c4bf" d="M143.4 212.5l-50.3 4.7-26.6 42.2 40.4-4.2z"/><path fill="#8a8b86" d="M177.3 238.6l5 28.6-23.6 4.2-5-28.6z"/><path fill="#fff" d="M113 85h2v58h-2z"/><path fill="#a29e90" d="M144.3 216.8l41.7 24.5-52.9-58.8 43 26.6z"/></g></g></svg>