<svg xmlns="http://www.w3.org/2000/svg" viewBox="0 0 934 1400"><defs/><filter id="a"><feGaussianBlur stdDeviation="12"/></filter><rect width="100%" height="100%" fill="#443c38"/><g filter="url(#a)"><g fill-opacity=".5" transform="translate(2.7 2.7) scale(5.46875)"><circle cx="117" cy="180" r="238" fill="#fff"/><circle cx="140" cy="255" r="135" fill="#fff2e7"/><circle r="1" fill="#fffef3" transform="rotate(-17 62.3 -207.4) scale(170 48.23953)"/><circle r="1" fill="#98543a" transform="rotate(-6.2 1806.9 -646.5) scale(53.98286 26.63116)"/><circle r="1" fill="#f9ffff" transform="matrix(-106.99643 35.38569 -8.16014 -24.67397 85.2 243.3)"/><ellipse cx="59" cy="75" fill="#5f4434" rx="13" ry="43"/><circle r="1" fill="#d8d9d0" transform="matrix(-51.90023 9.46832 -17.53127 -96.097 158.6 106.9)"/><path fill="#4d4130" d="M-3 154.3l42.7-4.5 3.4 31.9-42.8 4.5z"/><ellipse cx="21" cy="221" fill="#eef9f7" rx="20" ry="32"/><circle r="1" fill="#fff" transform="matrix(-1.10138 22.49694 -62.29952 -3.04999 54.7 1)"/><path fill="#e1d8c9" d="M15 57h32v94H15z"/><circle r="1" fill="#50472d" transform="matrix(9.3471 1.447 -4.04856 26.1521 3.9 94.9)"/><path fill="#a2292e" d="M94 209l-51 4 6 13z"/><path fill="#a29d92" d="M148 114L-14 21l176 36z"/><path fill="#735e5a" d="M105 138l-59-4 75-16z"/><path fill="#fefff8" d="M87 105h59v12H87z"/><path fill="#eef6f9" d="M185.8 148.3L60.5 171.7l-14.2-1.1-8.2-25z"/><circle r="1" fill="#8a634c" transform="matrix(.08176 11.57182 -15.71742 .11105 116 173.9)"/><path fill="#dfd4c8" d="M0 117h17v45H0z"/><path fill="#8b6159" d="M57 91l22 24-59 2z"/><path fill="#6d6d5b" d="M98.3 70.8l2.3 33-21 1.4-2.2-33z"/><circle r="1" fill="#d9e0e1" transform="matrix(-39.00434 -3.35425 10.54948 -122.67286 165.8 226)"/><path fill="#97958c" d="M147 64h7v156h-7z"/><circle r="1" fill="#e6e0b6" transform="rotate(-104.7 115 69.9) scale(3.6551 36.2081)"/><path fill="#99262c" d="M85 210l47-22-1 14z"/><path fill="#eef1e5" d="M-9.3 71.6l1.6-30 51 2.8-1.6 30z"/><path fill="#f6c8c3" d="M2 118h90v10H2z"/><path fill="#4d392f" d="M46 64h23v23H46z"/><circle r="1" fill="#e6eae8" transform="matrix(10.3963 -30.57601 12.3362 4.1945 132.9 122.7)"/><path fill="#fff" d="M49 160v-36l-8 12z"/><path fill="#715d53" d="M53.5 227.1l-39.4-60.8L45 128.7l-21.5 1.7z"/><circle r="1" fill="#b1aaa4" transform="matrix(-12.33952 24.21766 -15.45425 -7.87433 122.4 43.4)"/><path fill="#84300d" d="M127.4 102.4l-12.6-3 1.8-7.8 12.6 3z"/><path fill="#6f4841" d="M59.8 193.8l-1-3.9 73.4-19.7 1 3.9z"/><path fill="#fafef9" d="M105 219l-23 42-59-35z"/><path fill="#050400" d="M147.1 145.6l1-5 8.8 1.8-1 5z"/><circle r="1" fill="#cbcdc6" transform="matrix(-18.29807 71.22218 -13.5992 -3.49384 4.7 247.6)"/><ellipse cx="76" cy="49" fill="#a6a6a0" rx="38" ry="18"/><path fill="#d3d3ca" d="M186 65l-44 1-3-82z"/><path fill="#ebebe2" d="M120.7 171.6l-1.6-53.1 41.8 39.2-104.8 23.2z"/><path d="M153.4 92l1.9 5.8-6.7 2.1-1.9-5.7z"/><path fill="#5f5249" d="M51.5 130.2l-1 21.4 25.9-20.9-25.1-.9z"/><ellipse cx="3" cy="99" fill="#ced1c6" rx="42" ry="4"/><path fill="#ebeeed" d="M133.3 167.6l40.5 6.2-35.1 35.7 30.3-4.6z"/><path fill="#918275" d="M124.7 89.6l6.5-2.3 23.1-13L176 87z"/><path fill="#565752" d="M152.6 175.5l-8.6-12.8 12.6 5.6-6.4 4.1z"/><path fill="#a3837d" d="M81 116h40v16H81z"/><path fill="#3e3926" d="M0 102h14v11H0z"/><path d="M147 212h5v5h-5z"/><path fill="#762744" d="M25 111h4v20h-4z"/><path fill="#cccec3" d="M131 98h40v19h-40z"/><circle r="1" fill="#9f4941" transform="matrix(.45666 2.65322 -31.32117 5.3908 74.3 171.9)"/><circle r="1" fill="#21251f" transform="rotate(-172.3 31.6 23.7) scale(15.66656 1)"/><ellipse cx="149" cy="120" fill="#12140a" rx="5" ry="3"/><circle r="1" fill="#e5e8e2" transform="matrix(-15.93398 -18.96364 3.76976 -3.1675 153.5 134.6)"/><circle r="1" fill="#e7eae6" transform="matrix(1.35588 4.74611 -56.13292 16.03624 116.7 210.9)"/><path fill="#f4f9f7" d="M55 239l-21 32-6-84z"/><path fill="#d9c5a5" d="M85.6 197.9L44.1 211l-.2-11 24-12.3z"/><path fill="#3e3e3a" d="M154 194l-10-4 9-3z"/><path fill="#c1c4b7" d="M70 59h3v54h-3z"/><path fill="#dae0e0" d="M36.3 151.4l11.2-.9L35.9 175l44.9-7.5z"/><ellipse cx="51" fill="#fffff8" rx="46" ry="11"/><path fill="#e7dfdd" d="M11 134l25-20-52 10z"/><path fill="#e9eeec" d="M132 159h15v44h-15z"/><path fill="#dbd5d1" d="M122 4L86 41 12 27z"/><path fill="#a1a298" d="M-15 139.5h32v27h-32z"/><path fill="#d3d3cb" d="M67.7 61.4L8.6 68.1l12.8-19.9 55.1 8.4z"/><ellipse cx="65" cy="90" fill="#553e35" rx="4" ry="26"/><path fill="#574f45" d="M27.4 175l-43.4 3 56.2-23.5-8.2 35.3z"/><path fill="#a1a8a6" d="M154 243l-3.4 3.6L136 233l3.4-3.6z"/><path fill="#9a8475" d="M67 110l-24-8 1-30z"/><circle r="1" fill="#4c4435" transform="rotate(114.8 -26.2 44.4) scale(8.6504 11.44442)"/><path fill="#838882" d="M15 29l-9 8-22-15z"/><path fill="#8d4320" d="M115 100h15v3h-15z"/><path fill="#8c8a7f" d="M81 44h24v60H81z"/><path fill="#94958a" d="M23 129h18v19H23z"/><circle r="1" fill="#c3c1b8" transform="matrix(-12.24907 25.45168 -28.6956 -13.81026 151.4 0)"/><circle r="1" fill="#a92f3b" transform="matrix(31.45915 -8.00018 .43964 1.7288 81 213.6)"/><circle cx="9" cy="54" r="10" fill="#fffff7"/><circle r="1" fill="#e6e9e7" transform="rotate(85.3 -40 207.4) scale(117.24829 11.57871)"/><path fill="#c5c0bb" d="M105 32h14v62h-14z"/><path fill="#ccd2c2" d="M15 66h29v38H15z"/><circle r="1" fill="#6a1114" transform="rotate(78.3 -88.8 112.3) scale(1 14.65262)"/><circle cx="78" cy="152" r="16" fill="#e0dddd"/><path fill="#abaea8" d="M10.1 177.6l11.5 1.5 7.7 9.8-36 34.4z"/><ellipse cx="134" cy="58" fill="#9d9993" rx="5" ry="32"/><path fill="#af7762" d="M98 195.6l30.2-7 1.8 7.8-30.2 7z"/><circle r="1" fill="#5b604d" transform="rotate(-8.4 657 -1121.2) scale(37.73292 1)"/><path fill="#eceeec" d="M51.1 228.2l-15.9-26.3-28.5 21.7L18.5 240z"/><path fill="#cec399" d="M52 187l-21-4 47-8z"/><path fill="#7b4d49" d="M35.1 196.4l104-22.1-99.8 17.6-14-12.4z"/><path fill="#f7fafc" d="M119 125l18 44-19-10z"/><path fill="#c58674" d="M132 195l-82.4 15.7-2.1 1.4 3.6 5.8z"/><path fill="#eaefe6" d="M86.2 109.1l10 7.7 29.1-3.4-18.8-10.6z"/><path fill="#7b624d" d="M48 112h37v5H48z"/><path fill="#92282d" d="M117.6 163.4l-69 12.2-.2-1 69-12.2z"/><path fill="#1e1e18" d="M146 165h6v5h-6z"/><path fill="#e0e2e0" d="M132 146h16v76h-16z"/><path fill="#e6ede1" d="M13 103h18v7H13z"/><path fill="#d0d2c9" d="M159.3 99.7l-48 14.4 38.4-26.2-16.2 55.3z"/></g></g></svg>