<svg xmlns="http://www.w3.org/2000/svg" viewBox="0 0 1400 2098"><defs/><filter id="prefix__a"><feGaussianBlur stdDeviation="12"/></filter><rect width="100%" height="100%" fill="#443b37"/><g filter="url(#prefix__a)"><g transform="translate(4.1 4.1) scale(8.19531)"><circle cx="148" cy="140" r="208" fill="#fff" fill-opacity=".5"/><circle cx="134" cy="249" r="128" fill="#fff2e8" fill-opacity=".5"/><circle r="1" fill="#fdfdf2" fill-opacity=".5" transform="rotate(-103.6 35 -10.9) scale(41.236 170)"/><circle r="1" fill="#99543a" fill-opacity=".5" transform="rotate(172.1 33.7 98.5) scale(54.42898 26.29266)"/><circle r="1" fill="#756857" fill-opacity=".5" transform="matrix(26.6665 -1.8894 2.78535 39.31187 69.7 76.6)"/><circle r="1" fill="#f8ffff" fill-opacity=".5" transform="matrix(-113.63701 21.31354 -6.00755 -32.03034 112.3 242.3)"/><path fill="#4a3e2d" fill-opacity=".5" d="M0 152h41v31H0z"/><circle r="1" fill="#dadcd3" fill-opacity=".5" transform="matrix(-18.29242 -85.04655 63.96707 -13.7585 170 109.4)"/><path fill="#ece6d9" fill-opacity=".5" d="M45 52l5 123L4 42z"/><ellipse cx="56" fill="#fff" fill-opacity=".5" rx="62" ry="24"/><ellipse cx="19" cy="231" fill="#e9f3ef" fill-opacity=".5" rx="24" ry="42"/><path fill="#423a21" fill-opacity=".5" d="M12.8 116l-25-1 1.4-41 25 1z"/><path fill="#dfd7cb" fill-opacity=".5" d="M16.5 161.7L36.6 66 3.2 122.6-16 168.9z"/><path fill="#78635f" fill-opacity=".5" d="M116.1 131.3L99.9 140l-54.6-3.2 72.2-19z"/><path fill="#68473a" fill-opacity=".5" d="M43 64h26v54H43z"/><path fill="#a4a198" fill-opacity=".5" d="M139 34l-152-7 173 75z"/><path fill="#a42332" fill-opacity=".5" d="M38.7 227.3l22.7-12.1 77.1-17.7-75.1 24.9z"/><path fill="#edf2ef" fill-opacity=".5" d="M141.6 102.3l-1.4 134.9L121.6 120l-64-13.2z"/><path fill="#745042" fill-opacity=".5" d="M131.8 166.7l-1.3 16.6-97.6 6.7 3.7 8.2z"/><ellipse cx="69" cy="158" fill="#ecf5f9" fill-opacity=".5" rx="30" ry="11"/><path fill="#7c2100" fill-opacity=".5" d="M116 93h13v10h-13z"/><path fill="#faccc7" fill-opacity=".5" d="M1 118h85v10H1z"/><path fill="#814943" fill-opacity=".5" d="M41.3 173.6L31 171.4l-9.8 18.5 44.6-18.5z"/><path fill="#282c28" fill-opacity=".5" d="M146 211h9v7h-9z"/><path fill="#f4f4c7" fill-opacity=".5" d="M82.7 193l1.6 7-39 9-1.6-7z"/><circle cx="150" cy="144" r="4" fill="#000200" fill-opacity=".5"/><path fill-opacity=".5" d="M154 167.8l-2.7 3-5.3-4.6 2.7-3z"/><circle r="1" fill="#9f827e" fill-opacity=".5" transform="matrix(-9.80374 -1.16902 2.63867 -22.12856 34.4 124.8)"/><path fill="#e9f1f0" fill-opacity=".5" d="M154 218l3-126 29 77z"/><path fill="#f1f4f1" fill-opacity=".5" d="M47.7 225.2l84.8-22.6L31 271l-8.9-97.4z"/><path fill="#9e3838" fill-opacity=".5" d="M122 189l11 11-49 10z"/><path fill="#a9a9a1" fill-opacity=".5" d="M69 115l3-77 31 6z"/><path fill="#131a17" fill-opacity=".5" d="M155.8 191l-2.3 3.2-7.3-5.1 2.3-3.3z"/><circle cx="151" cy="121" r="4" fill="#0e1207" fill-opacity=".5"/><path fill="#5a4e45" fill-opacity=".5" d="M51 129l26-2-27 22z"/><path fill="#958776" fill-opacity=".5" d="M133 82l19.6-17L169 84l-19.6 17z"/><path fill="#a65a50" fill-opacity=".5" d="M114.7 161.6l18.6 6.4-97.6 7.5 74.6-12.5z"/><path fill="#a95654" fill-opacity=".5" d="M51.3 227.3l1.3 4.5-11-17.8 35.7-.8z"/><path fill="#e5e8e9" fill-opacity=".5" d="M115 132l-68 41 116-22z"/><path fill="#d6d7cd" fill-opacity=".5" d="M-16 99.5l25.9 3.2 11-3.8 6.4-6.3z"/><path fill="#f1f2f4" fill-opacity=".5" d="M42 127.3l-.1 23.2 4.2 15.8 7.3-41.8z"/><path fill="#fffffe" fill-opacity=".5" d="M19.8 45.2L18.1 65l-26-2.3L-6 43z"/><path fill="#392e28" fill-opacity=".5" d="M55 67h14v15H55z"/><path fill="#141b13" fill-opacity=".5" d="M147 96l4.6-4 5.3 6-4.5 4z"/><path fill="#514139" fill-opacity=".5" d="M15 155h21l-3 38z"/><path fill="#ced1c6" fill-opacity=".5" d="M16 16h31v89H16z"/><path fill="#848477" fill-opacity=".5" d="M89 44h15v59H89z"/><path fill="#343834" fill-opacity=".5" d="M46 50h25v3H46z"/><path fill="#c9c8be" fill-opacity=".5" d="M142.3 68.7l-23-86 42.4-11.4 23 86z"/><circle r="1" fill="#a7a9a2" fill-opacity=".5" transform="matrix(17.96662 -15.64142 8.3333 9.57211 9 195.8)"/><path fill="#d4d6cc" fill-opacity=".5" d="M130 98h41v13h-41z"/><circle cx="97" cy="111" r="7" fill="#fffff6" fill-opacity=".5"/><path fill="#9e8579" fill-opacity=".5" d="M115.3 115.1l-40.8 3.2 3.2-21.7 28.5 42.7z"/><path fill="#aab3b3" fill-opacity=".5" d="M160.6 250l-4.2 4.3-23-22.3 4.2-4.3z"/><path fill="#c5c6c1" fill-opacity=".5" d="M68.8 65.8L41.3 61l1.9-10.8L70.7 55z"/><path fill="#dee7e7" fill-opacity=".5" d="M186 233l-14.5-22.5-40.6-31.2 2 21.8z"/><ellipse cx="37" cy="122" fill="#f6d8d3" fill-opacity=".5" rx="9" ry="7"/><circle r="1" fill="#bfbcb3" fill-opacity=".5" transform="rotate(47.3 -281.8 134.7) scale(31.53699 10.37164)"/><path fill="#4b483a" fill-opacity=".5" d="M-16 106.5l27.8-2 7.6 9.2-35.4-.9z"/><path fill="#bfb9b2" fill-opacity=".5" d="M105 96l40-85-39 16z"/><circle r="1" fill="#fffffa" fill-opacity=".5" transform="rotate(92.1 23.8 23) scale(10.7021 45.21033)"/><circle r="1" fill="#d4cfa6" fill-opacity=".5" transform="matrix(-.62718 -2.80584 31.13957 -6.96052 93.8 193.5)"/><path fill="#ebefef" fill-opacity=".5" d="M117.3 156.3l45 41.7-31.3-53.8-4.5-39.6z"/><path fill="#979690" fill-opacity=".5" d="M-19.6 20.3l82.4 20.6-1.2 4.8-82.4-20.6z"/><path fill="#9a1c57" fill-opacity=".5" d="M23.9 111.7l16.9-.9 1.2-2.4L26.8 119z"/><circle r="1" fill="#9b9b90" fill-opacity=".5" transform="matrix(-8.96287 8.39412 -14.57059 -15.55783 .6 150)"/><path fill="#555649" fill-opacity=".5" d="M29 164l-30 5-7 27z"/><ellipse cx="57" cy="25" fill="#ded9d5" fill-opacity=".5" rx="40" ry="10"/><path fill="#f7faf6" fill-opacity=".5" d="M14 218l93 16-33 20z"/><path fill="#a7a39b" fill-opacity=".5" d="M123 26h17v68h-17z"/><path fill="#e0e6db" fill-opacity=".5" d="M151 88l-20 3 7 12z"/><path fill="#e3e2b4" fill-opacity=".5" d="M43.3 184.4l-.4-2 65.8-12.8.4 2z"/><path fill="#dee1dd" fill-opacity=".5" d="M186 152.2l-90.9-49.4 55.3 20.7 20.3-8.8z"/><path fill="#6d3b3f" fill-opacity=".5" d="M52.4 221.6l-.8.5-18-27.7.8-.5z"/><path fill="#59503f" fill-opacity=".5" d="M.4 94.5L-16 48.9l26 33.8 5.2 13.6z"/><path fill="#eee3e1" fill-opacity=".5" d="M-16 124l41-2-12 13z"/><path fill="#b28a86" fill-opacity=".5" d="M86 116h35v12H86z"/><path fill="#e4e9e7" fill-opacity=".5" d="M149.9 231.5l-68.8-14.3 54.4-17.1 31.9 40.3z"/><path fill="#dcdad9" fill-opacity=".5" d="M27 176l84-22-28-19z"/><path fill="#b5b3aa" fill-opacity=".5" d="M70 56h8v56h-8z"/><path fill="#934b45" fill-opacity=".5" d="M41.3 180.7l-2.6.8 55.4-15.8-69.4 11.6z"/><path fill="none" stroke="#2c3020" stroke-opacity=".5" stroke-width=".5" d="M140 88.1q46-5.8 46-13.8"/><path fill="#757369" fill-opacity=".5" d="M96 90l-43 20 46-8z"/><ellipse cx="29" cy="162" fill="#605a4e" fill-opacity=".5" rx="13" ry="12"/><path fill="#a4897c" fill-opacity=".5" d="M35 117l17-32 11 23z"/><path fill="#946953" fill-opacity=".5" d="M127 168h5v33h-5z"/><path fill="#412830" fill-opacity=".5" d="M141 80h10v3h-10z"/><path fill="#6b6a64" fill-opacity=".5" d="M46.6 52.2l5.1-2.9-9.6-3.2 2.8 7.8z"/><path fill="#ecece2" fill-opacity=".5" d="M24.2 47.2l7.9-1.2 12.7 25.6-20.1-1.7z"/><path fill="#d4cfca" fill-opacity=".5" d="M38 32l67 13 22-44z"/><path fill="#cacbc0" fill-opacity=".5" d="M15 68h16v43H15z"/><path fill="#d1d1c8" fill-opacity=".5" d="M139.4 70.5l-1.6 16.8L160.4 32 141.7-4.1z"/><path fill="#757c6c" fill-opacity=".5" d="M33 130v11l13-13z"/><path fill="#a13c45" fill-opacity=".5" d="M124.7 198.4l-23 6.4L75 217.2l58.4-16.3z"/><path fill="#5a453d" fill-opacity=".5" d="M47 64l20 3 2 45z"/><path fill="#959280" fill-opacity=".5" d="M134 111h37v2h-37z"/><path fill="#c6cabd" fill-opacity=".5" d="M162.7 97.9l-17.8-9.1 35-3.3-49.1 23.3z"/><circle cx="152" cy="169" r="2" fill="#131813" fill-opacity=".5"/><path fill="#c0bbb1" fill-opacity=".5" d="M46.6 157.2L17 128.5 3.7 151.2l27.4-1.1z"/><path fill="#2f302b" fill-opacity=".5" d="M45.4 48.6l29.4 5.8-.2 1-29.4-5.8z"/></g></g></svg>