<svg xmlns="http://www.w3.org/2000/svg" viewBox="0 0 1400 2098"><defs/><filter id="a"><feGaussianBlur stdDeviation="12"/></filter><rect width="100%" height="100%" fill="#392c24"/><g filter="url(#a)"><g fill-opacity=".5" transform="translate(4.1 4.1) scale(8.19531)"><circle cx="82" cy="124" r="162" fill="#fff"/><circle r="1" fill="#f0f3e5" transform="matrix(81.7288 -11.92294 19.2199 131.74761 129.2 19.8)"/><circle cx="68" cy="191" r="60" fill="#865b26"/><circle r="1" fill="#fff" transform="matrix(7.04842 18.66205 -66.8946 25.26525 128.4 252)"/><circle r="1" fill="#bcbdad" transform="matrix(58.33962 -30.0459 32.31826 62.75183 31.4 66.3)"/><circle r="1" fill="#e8efe6" transform="matrix(20.08154 2.40935 -5.58916 46.58468 9.7 249)"/><circle r="1" fill="#feffff" transform="rotate(168.2 72.5 16.2) scale(57.03368 22.66566)"/><path fill="#817f6d" d="M84 48h43v65H84z"/><circle r="1" fill="#71521d" transform="matrix(10.1712 17.94495 -32.07628 18.18083 5.4 159.6)"/><path fill="#0e0300" d="M82 137h26v37H82z"/><circle r="1" fill="#f9d5ab" transform="matrix(-21.47178 31.77615 -15.68088 -10.59588 133.2 155.8)"/><path fill="#220300" d="M19.3 37h6l1.4 76h-6z"/><path fill="#e0d5aa" d="M88.6 252.5l-36-36.1 14.8-14.9 36 36.1z"/><path fill="#6b3224" d="M165 218L61 188l43 50z"/><circle r="1" fill="#fff" transform="matrix(12.3944 30.96478 -49.45504 19.79557 160.5 255)"/><path fill="#4a3309" d="M16.6 35.1l40.1 6 50.5 13.4-88.4-13.8z"/><circle r="1" fill="#544520" transform="rotate(71.2 -139.3 151) scale(38.28096 15.6412)"/><path fill="#543911" d="M142 175l44 17-27-44z"/><circle r="1" fill="#fff6cc" transform="matrix(1.85265 -11.21893 26.8739 4.43785 169 195.9)"/><ellipse cx="72" cy="70" fill="#5b3908" rx="3" ry="36"/><path fill="#d6d9d5" d="M33 63h38v72H33z"/><ellipse cx="75" cy="156" fill="#caae88" rx="58" ry="4"/><ellipse cx="165" cy="103" fill="#fff" rx="4" ry="43"/><ellipse cx="38" cy="113" fill="#543200" rx="20" ry="3"/><path fill="#fff" d="M94 53h5v71h-5z"/><path fill="#4c3b26" d="M93 176.8l1.1-55.8 14 5.6-.7 53.8z"/><path fill="#2f2113" d="M82 196.3l-63 8.5 55.6 4.4 30.5 24.7z"/><path fill="#d6ba95" d="M66 130h15v56H66z"/><path fill="#c0ad82" d="M103.6 235l-61.4-7.9-11-7.1 37.4-16.4z"/><path d="M44.4 271.2L25.7 206l3.9-1.1L48.3 270z"/><path fill="#fffefc" d="M121.7 110.1l19.1-29-16.7 48.1-36.9-9.2z"/><circle r="1" fill="#a26a55" transform="matrix(8.88983 -13.6101 20.80469 13.58918 131.7 207.3)"/><circle r="1" fill="#967b52" transform="rotate(46.6 -181.9 115.5) scale(23.78888 46.71777)"/><ellipse cx="7" cy="99" fill="#cacdc9" rx="14" ry="38"/><path fill="#ede9ec" d="M100.8 189.6L65.1 193l33.9-7.1 52-8.2z"/><path fill="#3a4b38" d="M111.8 110.5l17.7.4-13.7-12.7-4.9-27.2z"/><path fill="#817865" d="M56 108l14-26 11 43z"/><path fill="#0f1915" d="M75 129l3-15 8 13z"/><path fill="#979998" d="M146 83l30-51-39 18z"/><ellipse cx="86" cy="73" fill="#58370b" rx="2" ry="31"/><path fill="#e0e6e6" d="M88.8 57.7l3.5 15.1 25.4-15.5-24-3.8z"/><path fill="#dde1e0" d="M16 115h53v15H16z"/><circle r="1" fill="#cbcecb" transform="rotate(-110.7 51 -8.7) scale(15.72194 8.42402)"/><path fill="#ffffe4" d="M178.9 200.6l-32.3-4.2-14.1-7.3 53.5 1.7z"/><path fill="#785f3b" d="M0 137h19v67H0z"/><ellipse cx="89" cy="130" fill="#dee6e9" rx="42" ry="2"/><path fill="#c8d6dd" d="M18.6 203l28.1-7 .7 3-28.1 7z"/><circle r="1" fill="#bea384" transform="matrix(.21865 2.35699 -21.3019 1.97612 87.3 159)"/><circle r="1" fill="#a88d67" transform="matrix(31.00054 15.52392 -10.51233 20.99264 49 171.3)"/><path fill="#f1f3f5" d="M75 76h10v41H75z"/><path fill="#eaeced" d="M149 101h22v45h-22z"/><path fill="#593b16" d="M123 55h3v27h-3z"/><circle r="1" fill="#502d15" transform="matrix(7.25142 -6.35495 4.95415 5.65301 61 236.3)"/><path fill="#fff" d="M181.2 212l18.3 34.4-40.7 21.6-18.3-34.4z"/><path fill="#6b5132" d="M169.7 168.1l-73.5 15.5 62.2-7.7-18 9.6z"/><path fill="#e9ebf0" d="M140 94l-12-45-3 85z"/><path fill="#fff" d="M35 106h31v4H35z"/><path fill="#242e39" d="M120.6 72l1.5 3.7-14.7 6.3-1.5-3.7z"/><path fill="#dfefe6" d="M104 83l-1 24 12-29z"/><path fill="#cbab85" d="M109.5 173.4l-4.9-42.5 52.5-.7-33.5 6.6z"/><path fill="#cfd0ca" d="M24 203l18 68-44-65z"/><ellipse cx="3" cy="14" fill="#bdbfb6" rx="54" ry="23"/><path fill="#ced3cf" d="M103 239l-35.2-39.3 66.9 69.6L32.1 271z"/><path fill="#7c5e2e" d="M22 110h52v5H22z"/><path fill="#a47764" d="M180.4 210.1L157.2 223l-56.2 2.6 31-30.2z"/><path fill="#776448" d="M68.4 47.1L129 58.8l-18.1-8.5-21-2.1z"/><path fill="#66342a" d="M105.8 200.5L88 203.3l-1.8-11.8 17.8-2.8z"/><path fill="#160800" d="M87 162l20.9 9.7-3 6.3-20.8-9.7z"/><ellipse cx="119" cy="11" fill="#dddfdb" rx="38" ry="41"/><path fill="#fbfdfd" d="M102 106l36 23-26 1z"/><path fill="#dae5e9" d="M107.2 185.2L49 199.7l-.2-1 58.2-14.4z"/><ellipse cx="112" cy="93" fill="#2a2f35" rx="2" ry="17"/><circle r="1" fill="#aa9f7c" transform="matrix(-22.48015 1.80871 -.47978 -5.9631 76.4 243.7)"/><path fill="#644e35" d="M147.2 182.2l13.3 3.9 2.6-45.3-6.5 16.1z"/><ellipse cx="140" cy="123" fill="#858f93" rx="13" ry="4"/><circle r="1" fill="#58431d" transform="matrix(-.42589 2.17076 -25.09626 -4.92369 45.6 42.8)"/><path fill="#20211b" d="M115.9 241.4l-25.6-31-15.3-7 25 27.6z"/><path fill="#603321" d="M141.2 181.8l-53.9 13.7-58.9 19.8 9.5-14z"/><path fill="#aa9362" d="M31 213l16 22 24-32z"/><path fill="#c29c85" d="M94.9 204l2.4 7 38.6 29-48.2-43.2z"/><path fill="#342411" d="M89 136h18v20H89z"/><path fill="#e7eceb" d="M46 70h24v13H46z"/><path fill="#888880" d="M32.1 112.7l-7.4 2.6 36.9 3.6-18 2.9z"/><circle r="1" fill="#e8cdab" transform="matrix(18.3159 9.70553 -7.10283 13.4042 136 150.7)"/><path fill="#b9bebe" d="M122.8 71.7l-28.4 9.7-5.2-15 28.4-9.8z"/><path fill="#373c42" d="M100 74h2v40h-2z"/><path fill="#583708" d="M88.5 86.5h-1v-41h1z"/><path fill="#fff" d="M94 85h4v39h-4z"/><path fill="#f1cfa5" d="M94 111h36v4H94z"/><path fill="#998673" d="M171 129l-8 59 20 1z"/><path fill="#4c442f" d="M23 135h40v3H23z"/><ellipse cx="113" cy="83" fill="#e4edea" rx="9" ry="4"/><circle r="1" fill="#b3b0a2" transform="matrix(-6.25901 -11.7715 30.2905 -16.10575 3.8 251)"/><path fill="#cbcdc6" d="M74.7-16l10.8 75.2-22-24.7 53.7 17.4z"/><path fill="#2d2d33" d="M94 124h13v6H94z"/><circle r="1" fill="#705b3b" transform="matrix(32.89088 -7.86866 .66853 2.79445 28.5 197.1)"/><path fill="#fcfdfe" d="M43 121h23v8H43z"/><path fill="#635324" d="M19 35h6v59h-6z"/><ellipse cx="71" cy="131" fill="#bbbfbc" rx="48" ry="3"/><ellipse cx="87" cy="83" fill="#806a47" rx="3" ry="32"/></g></g></svg>