<svg xmlns="http://www.w3.org/2000/svg" viewBox="0 0 1400 2098"><defs/><filter id="prefix__a"><feGaussianBlur stdDeviation="12"/></filter><rect width="100%" height="100%" fill="#664c3e"/><g filter="url(#prefix__a)"><g transform="translate(4.1 4.1) scale(8.19531)"><circle r="1" fill="#f7ffff" fill-opacity=".5" transform="matrix(-169.68865 10.28402 -9.3804 -154.77859 78.7 131.8)"/><circle r="1" fill="#422b0b" fill-opacity=".5" transform="matrix(-3.75782 31.05294 -101.08394 -12.2325 138 181.8)"/><circle r="1" fill="#f9ffff" fill-opacity=".5" transform="rotate(-81.9 59.3 -12.2) scale(30.35348 111.02103)"/><circle cx="17" cy="213" r="43" fill="#f0f8fc" fill-opacity=".5"/><circle r="1" fill="#294522" fill-opacity=".5" transform="matrix(-17.8153 1.83533 -3.20851 -31.14467 96.2 110.3)"/><circle cx="144" cy="117" r="33" fill="#e0ecf2" fill-opacity=".5"/><path fill="#2c472d" fill-opacity=".5" d="M27 142l-43-3 31-48z"/><path fill="#f8ffff" fill-opacity=".5" d="M39 83h24v64H39z"/><path fill="#dde6e9" fill-opacity=".5" d="M153 212l-64 47-105-41z"/><ellipse cx="75" cy="208" fill="#766351" fill-opacity=".5" rx="63" ry="7"/><ellipse cx="107" cy="184" fill="#341b0b" fill-opacity=".5" rx="71" ry="5"/><path fill="#566946" fill-opacity=".5" d="M63 81h50v50H63z"/><circle r="1" fill="#fff" fill-opacity=".5" transform="matrix(.50208 -14.20821 60.70235 2.14507 76.5 56.3)"/><circle r="1" fill="#fff" fill-opacity=".5" transform="matrix(22.44542 -22.52391 9.22052 9.1884 15.1 191.4)"/><circle r="1" fill="#102124" fill-opacity=".5" transform="matrix(-31.05443 .01524 -.00117 -2.38081 3.7 82.7)"/><path fill="#706457" fill-opacity=".5" d="M50 170l-19 45-17-3z"/><path fill="#babfbd" fill-opacity=".5" d="M134.8 35.2l-149 2.6-.6-31 149-2.6z"/><path fill="#e4f1f7" fill-opacity=".5" d="M14 142h115v7H14z"/><path fill="#b3bebd" fill-opacity=".5" d="M74 127h15v42H74z"/><path fill="#f0e6cf" fill-opacity=".5" d="M48 182.6l17.4 7.8-9.4 21-17.4-7.8z"/><ellipse cx="143" cy="87" fill="#c6c9c9" fill-opacity=".5" rx="31" ry="58"/><path fill="#79766b" fill-opacity=".5" d="M133 105l32-10-2-21z"/><path fill="#12181c" fill-opacity=".5" d="M14 81h5v55h-5z"/><path fill="#040918" fill-opacity=".5" d="M0 138h43v4H0z"/><path fill="#181e30" fill-opacity=".5" d="M108 79h4v62h-4z"/><path fill="#fff" fill-opacity=".5" d="M-9.2 83.9l22-.8.4 11-22 .8z"/><path fill="#57564e" fill-opacity=".5" d="M159 136h9v61h-9z"/><path fill="#c6cac8" fill-opacity=".5" d="M0 70h171v11H0z"/><path fill="#abb0ad" fill-opacity=".5" d="M149.9 192.1L177 271l-193-18.3 202-36.5z"/><path fill="#16232a" fill-opacity=".5" d="M64 84h4v56h-4z"/><path fill="#aec380" fill-opacity=".5" d="M67 86h15v49H67z"/><path fill="#7e6a47" fill-opacity=".5" d="M39 149h30v40H39z"/><path fill="#9eb97e" fill-opacity=".5" d="M18 84h21v54H18z"/><path fill="#000008" fill-opacity=".5" d="M86 83h4v42h-4z"/><path fill="#f2f6f8" fill-opacity=".5" d="M132 125l-19 20V86z"/><path fill="#96a07e" fill-opacity=".5" d="M109 85l-1 48-22-48z"/><path fill="#eceff1" fill-opacity=".5" d="M147.2 87.7l28.5 72.6-10.3-85.2L178 113z"/><circle r="1" fill="#868e91" fill-opacity=".5" transform="matrix(52.93456 9.36255 -3.91878 22.15624 170 5)"/><circle r="1" fill="#987f74" fill-opacity=".5" transform="matrix(31.35719 -.66219 .16572 7.84768 92 200.1)"/><ellipse cx="87" cy="83" fill="#000005" fill-opacity=".5" rx="24" ry="2"/><path fill="#a7b699" fill-opacity=".5" d="M-8 85l22 15-4 24z"/><path fill="#d2d1ca" fill-opacity=".5" d="M33 160l-27-8 46-17z"/><ellipse cx="159" cy="210" fill="#5b4c41" fill-opacity=".5" rx="101" ry="3"/><path fill="#a7aaa5" fill-opacity=".5" d="M179 194.6l-3.3 5.3-5.3-19.6-16.1-.7z"/><ellipse cx="76" cy="226" fill="#d9dbda" fill-opacity=".5" rx="33" ry="13"/><circle r="1" fill="#aba9a6" fill-opacity=".5" transform="matrix(-59.29176 27.19451 -8.57806 -18.7026 0 18.7)"/><path fill="#858884" fill-opacity=".5" d="M126.2 143.8l-.4-9 18-.6.4 9z"/><path fill="#a19984" fill-opacity=".5" d="M148.7 185.5l20.9 24.4-31.6-12.5 1.7-13.4z"/><ellipse cx="82" cy="139" fill="#394654" fill-opacity=".5" rx="21" ry="2"/><path fill="#c6cabf" fill-opacity=".5" d="M19 85h44v12H19z"/><circle cx="150" cy="139" r="8" fill="#fdffff" fill-opacity=".5"/><path fill="#2d2d2a" fill-opacity=".5" d="M163.2 200.7l-16.8-18.5 39.6 13.5-6.5 19.5z"/><circle r="1" fill="#aaaeae" fill-opacity=".5" transform="matrix(37.25856 37.09443 -11.92714 11.97991 170 51.2)"/><path fill="#e8e1d4" fill-opacity=".5" d="M55 205l-8-18-16 24z"/><path fill="#897c66" fill-opacity=".5" d="M94 148h73v8H94z"/><circle r="1" fill="#f5fbff" fill-opacity=".5" transform="matrix(-15.29878 28.77282 -11.686 -6.21355 5.1 201)"/><circle cx="85" cy="133" r="5" fill="#f0f1f9" fill-opacity=".5"/><path fill="#f1f5f4" fill-opacity=".5" d="M155.2 59.8l-140-8.4L-16 67.9l96.1 1.9z"/><path fill="#4b4e5b" fill-opacity=".5" d="M37 83h2v59h-2z"/><path fill="#cecfcd" fill-opacity=".5" d="M120 116l51-50-59 13z"/><circle r="1" fill="#cbcdc9" fill-opacity=".5" transform="matrix(-2.59917 9.2511 -39.09268 -10.9834 97 22.8)"/><path fill="#30291a" fill-opacity=".5" d="M161 82h3v18h-3z"/><path fill="#0e2232" fill-opacity=".5" d="M99 139h13v3H99z"/><path fill="#615031" fill-opacity=".5" d="M53 171h109v7H53z"/><path fill="#e4e7e6" fill-opacity=".5" d="M39 113h24v34H39z"/><ellipse cx="11" cy="82" fill="#222725" fill-opacity=".5" rx="29" ry="2"/><circle r="1" fill="#90918c" fill-opacity=".5" transform="matrix(-5.48943 -13.79434 39.31235 -15.64428 159.6 255)"/><ellipse cx="4" cy="102" fill="#0e1321" fill-opacity=".5" rx="33" ry="1"/><path fill="#aeafa6" fill-opacity=".5" d="M90 178h62v2H90z"/><path fill="#bdbfbc" fill-opacity=".5" d="M38 70h23v36H38z"/><path fill="#4a3f3c" fill-opacity=".5" d="M144.3 214l-16.7-31.1 27.4 24.2 31-20.2z"/><path fill="#5e6b49" fill-opacity=".5" d="M78.4 139l8.9-24.5L97 121l-23.6-15.3z"/><path fill="#6c6961" fill-opacity=".5" d="M44 213l-24-6-11 8z"/><path fill="#3a1d0f" fill-opacity=".5" d="M46 181h95v4H46z"/><path fill="#feffff" fill-opacity=".5" d="M154 124h17v9h-17z"/><path fill="#514e46" fill-opacity=".5" d="M56 214l13-24-2 23z"/><path fill="#6d5835" fill-opacity=".5" d="M86 147l44 21-37 9z"/><path fill="#b4b7b3" fill-opacity=".5" d="M131 212l-46 53 90-53z"/><path fill="#b6c18f" fill-opacity=".5" d="M86 89l-19 2 3 26z"/><path fill="#b9b6b6" fill-opacity=".5" d="M80 154h7v18h-7z"/><path fill="#fff" fill-opacity=".5" d="M13 98l-29-15 27 2z"/><path fill="#f0f6f4" fill-opacity=".5" d="M0 77h36v3H0z"/><path fill="#7e7a6e" fill-opacity=".5" d="M141 88h9v12h-9z"/><ellipse cx="100" cy="146" fill="#e8f0f9" fill-opacity=".5" rx="57" ry="2"/><path fill="#70635c" fill-opacity=".5" d="M149 113h11v3h-11z"/><path fill="#e1e3de" fill-opacity=".5" d="M-16 62l76-38 41 19z"/><ellipse cx="65" cy="239" fill="#c9c9c7" fill-opacity=".5" rx="44" ry="9"/><path fill="#bdc997" fill-opacity=".5" d="M19 107h7v28h-7z"/><path fill="none" stroke="#000420" stroke-opacity=".5" stroke-width=".5" d="M67.5 102.3h33.2"/><circle cx="73" cy="137" r="6" fill="#7a8978" fill-opacity=".5"/><path fill="#8d7858" fill-opacity=".5" d="M39 152h19v29H39z"/><circle r="1" fill="#553530" fill-opacity=".5" transform="matrix(8.87276 16.90927 -1.74537 .91584 116.6 199.1)"/><ellipse cx="103" cy="79" fill="#dadedd" fill-opacity=".5" rx="57" ry="2"/><path fill="#8d8b84" fill-opacity=".5" d="M164.3 187.6l-.6-33 12-.2.6 33z"/><path fill="#a8af9a" fill-opacity=".5" d="M-16 31.2l13.5 62.3 16.1-1.9-1.2 38.7z"/><path fill="#bdbbb4" fill-opacity=".5" d="M90.6 237l-1.1-54.4 8.9 35.1 40.5 12.9z"/><path fill="#b8a895" fill-opacity=".5" d="M77 190h6v23h-6z"/><circle r="1" fill="#a1a19b" fill-opacity=".5" transform="matrix(49.16587 -3.24245 .0658 .99783 33.2 143.8)"/><path fill="#5e4232" fill-opacity=".5" d="M74 167h4v41h-4z"/><path fill="#ebeef1" fill-opacity=".5" d="M167.4 116.3l-28.6-11.2 47.2-1.2-12.2 99z"/></g></g></svg>