<svg xmlns="http://www.w3.org/2000/svg" viewBox="0 0 1400 2098"><defs/><filter id="prefix__a"><feGaussianBlur stdDeviation="12"/></filter><rect width="100%" height="100%" fill="#563f27"/><g filter="url(#prefix__a)"><g transform="translate(4.1 4.1) scale(8.19531)"><circle r="1" fill="#fff" fill-opacity=".5" transform="rotate(62 -61.7 105.7) scale(140.04337 170)"/><circle r="1" fill="#f7faf8" fill-opacity=".5" transform="rotate(-.8 4472 -6250) scale(170 82.26865)"/><circle cx="91" cy="255" r="73" fill="#865616" fill-opacity=".5"/><path fill="#c9c0b6" fill-opacity=".5" d="M174 271L64 57l113 45z"/><circle r="1" fill="#d1c9c0" fill-opacity=".5" transform="matrix(-49.0827 110.47055 -33.66576 -14.95789 18 165.7)"/><ellipse cx="91" cy="239" fill="#5d3100" fill-opacity=".5" rx="58" ry="10"/><circle r="1" fill="#9d896c" fill-opacity=".5" transform="matrix(-20.10977 10.44695 -25.1167 -48.34821 91 166.9)"/><ellipse cx="62" cy="254" fill="#caa987" fill-opacity=".5" rx="101" ry="6"/><path fill="#e9e6e0" fill-opacity=".5" d="M155.7 55.8l-135.9 24-5.5-31.6 135.9-24z"/><path fill="#989998" fill-opacity=".5" d="M66 66h39v33H66z"/><circle cx="144" cy="131" r="44" fill="#cec6bf" fill-opacity=".5"/><circle r="1" fill="#947447" fill-opacity=".5" transform="matrix(-5.7595 3.91061 -56.5984 -83.35756 149.5 225.8)"/><ellipse cx="141" cy="27" fill="#ecebe5" fill-opacity=".5" rx="11" ry="88"/><circle r="1" fill="#cec9c3" fill-opacity=".5" transform="matrix(24.9414 -41.9852 28.74588 17.07656 41.3 130.6)"/><path fill="#c2a178" fill-opacity=".5" d="M53 158h51v36H53z"/><path fill="#686f78" fill-opacity=".5" d="M64.8 140.4l28.6 20.3 3.6-15-14.5-9.7z"/><circle r="1" fill="#8e6b42" fill-opacity=".5" transform="matrix(25.35283 -17.99713 5.68063 8.0024 34.2 236.4)"/><path fill="#959a9f" fill-opacity=".5" d="M97 99h10v45H97z"/><path fill="#dff1ff" fill-opacity=".5" d="M94 117l-11 21h14z"/><circle r="1" fill="#b5a796" fill-opacity=".5" transform="matrix(-17.25583 11.28388 -13.31416 -20.36062 170 206.6)"/><circle r="1" fill="#dfdad4" fill-opacity=".5" transform="matrix(5.3324 49.37977 -26.69373 2.8826 37.1 68.4)"/><path fill="#3a3122" fill-opacity=".5" d="M146 225.6v1l-102 1.8v-1z"/><circle r="1" fill="#b6a88d" fill-opacity=".5" transform="rotate(91.6 18 103.2) scale(24.96867 5.44399)"/><path fill="#edc3ac" fill-opacity=".5" d="M27 250h36v6H27z"/><ellipse cx="110" cy="72" fill="#f7f8f5" fill-opacity=".5" rx="4" ry="33"/><circle r="1" fill="#af9f90" fill-opacity=".5" transform="matrix(2.10023 -30.03475 20.96243 1.46584 2.8 225)"/><circle r="1" fill="#616664" fill-opacity=".5" transform="rotate(-22 369 -146.9) scale(3.401 8.25019)"/><ellipse cx="68" cy="119" fill="#9399a2" fill-opacity=".5" rx="4" ry="31"/><path fill="#dfecff" fill-opacity=".5" d="M72.5 123.4l7.3-20.2-6.6 35 14.3-.9z"/><ellipse cx="97" cy="217" fill="#2c2619" fill-opacity=".5" rx="39" ry="1"/><circle r="1" fill="#a18155" fill-opacity=".5" transform="matrix(-17.99843 39.1314 -2.44556 -1.12483 53.8 185.4)"/><path fill="#fff" fill-opacity=".5" d="M66 161.4v-3l14 .2v3z"/><path fill="#c0b6a9" fill-opacity=".5" d="M143 43l43 2-13-61z"/><ellipse cx="69" cy="182" fill="#e6ccba" fill-opacity=".5" rx="13" ry="5"/><path fill="#583a15" fill-opacity=".5" d="M84 234h64v16H84z"/><path fill="#a78961" fill-opacity=".5" d="M82 208.8l-8.2-42.2 38.2-7.4 8.2 42.2z"/><circle r="1" fill="#8c6d45" fill-opacity=".5" transform="rotate(-118.6 152 74) scale(37.76751 8.08523)"/><circle r="1" fill="#e4e0d9" fill-opacity=".5" transform="matrix(26.93205 8.78336 -6.09818 18.69858 103.8 0)"/><circle cx="82" cy="109" r="6" fill="#929ba2" fill-opacity=".5"/><path fill="#f4f3f3" fill-opacity=".5" d="M83 46h25v15H83z"/><path fill="none" stroke="#382e1d" stroke-opacity=".5" stroke-width=".5" d="M70.5 209.3q38.4.8 61.3.3"/><path fill="#d2cbc0" fill-opacity=".5" d="M44-15l7 56 107 7z"/><path fill="#aa8658" fill-opacity=".5" d="M49 229h92v3H49z"/><path fill="#c5b9ad" fill-opacity=".5" d="M-16 143l1-115 54 174z"/><circle r="1" fill="#e4e1d9" fill-opacity=".5" transform="matrix(10.13588 2.21872 -7.0521 32.21644 137.2 77.4)"/><path fill="#d7e0ec" fill-opacity=".5" d="M88.2 96.3l-14.1 5 6.3 36-8.6-8.2z"/><circle r="1" fill="#d4ccc4" fill-opacity=".5" transform="rotate(-77.1 145.5 -30.8) scale(42.86982 15.32535)"/><path fill="#71706a" fill-opacity=".5" d="M103.1 153l7.2.3-19.2-11.4-27.2 6.2z"/><ellipse cx="86" cy="213" fill="#483d29" fill-opacity=".5" rx="45" ry="1"/><path fill="#a0825b" fill-opacity=".5" d="M55.6 174.4l-4 27.7-14.6 4.6 40.1-64.3z"/><path fill="#dbe6f7" fill-opacity=".5" d="M88 103h7v35h-7z"/><circle cx="67" cy="170" r="6" fill="#97794f" fill-opacity=".5"/><path fill="#c8bbad" fill-opacity=".5" d="M50.8 181.7l9.1-16.1-1.3-45.1-42.5 71.6z"/><path fill="#4f3818" fill-opacity=".5" d="M150 236h-22l37 35z"/><ellipse cx="63" cy="211" fill="#caab81" fill-opacity=".5" rx="64" ry="1"/><path fill="#bc956f" fill-opacity=".5" d="M47 249h37v7H47z"/><path fill="#eaebe9" fill-opacity=".5" d="M131 25.2l28.7 28.6-22.2 26.1 20-87z"/><circle r="1" fill="#8f9290" fill-opacity=".5" transform="matrix(-4.29197 .45904 -.51854 -4.84825 84.9 110.3)"/><path fill="#c7beb5" fill-opacity=".5" d="M147 159l39-38-14-85z"/><path fill="#8f5d27" fill-opacity=".5" d="M34 232h40v17H34z"/><circle r="1" fill="#e7e5e2" fill-opacity=".5" transform="rotate(-62 93.2 -59.2) scale(18.85374 13.20023)"/><path fill="#9b958e" fill-opacity=".5" d="M68 71h31v7H68z"/><path fill="#d7cab3" fill-opacity=".5" d="M71 158h33v4H71z"/><path fill="#b0a191" fill-opacity=".5" d="M186 246.5v-89.2l-34.4 60.6-26.8-40.3z"/><path fill="#beb29e" fill-opacity=".5" d="M114 63h12v49h-12z"/><circle cx="82" cy="127" r="4" fill="#635a47" fill-opacity=".5"/><ellipse cx="79" cy="199" fill="#6a573c" fill-opacity=".5" rx="36" ry="1"/><path fill="#aba8a6" fill-opacity=".5" d="M116.1 135.9l-19.5-13.3-2.9 19.4 19.3 15.7z"/><path fill="#b9a385" fill-opacity=".5" d="M90.2 202.3l.6.9-47 30.5-.6-.9z"/><path fill="#7c6749" fill-opacity=".5" d="M143.7 224.4l-51-30.2 53.4 26.4-86.5.7z"/><ellipse cx="94" cy="219" fill="#c6a16e" fill-opacity=".5" rx="44" ry="1"/><path fill="#a6875e" fill-opacity=".5" d="M153.3 229.3L86.6 158l44.2 28.7 16.8 49.3z"/><path fill="#775e3c" fill-opacity=".5" d="M47 209.3l-10.6 24.1 17.1-8.1L51 202z"/><path fill="#c4ad8e" fill-opacity=".5" d="M60.4 208l46.7-27 .5 1L61 209z"/><path fill="#623f15" fill-opacity=".5" d="M83 236l8-13-12 7z"/><path fill="#917448" fill-opacity=".5" d="M111.3 248.3l47.9 2.5-.5 9-47.9-2.6z"/><path fill="#c5b8a8" fill-opacity=".5" d="M109.5 158l11.5-8 19.5 28-11.5 8z"/><circle r="1" fill="#b69f81" fill-opacity=".5" transform="matrix(.5737 .81906 -48.55258 34.00839 104.6 200.8)"/><path fill="#cbc3b9" fill-opacity=".5" d="M79 46.4l-16 5.5L47 5.6 63 .1z"/><path fill="#b09776" fill-opacity=".5" d="M111.7 202.7l33.2-23.5-74.2 56.7L86.6 221z"/><path fill="#bda387" fill-opacity=".5" d="M78 172l9 12-25 12z"/><circle r="1" fill="#735226" fill-opacity=".5" transform="matrix(.81375 .81945 -19.6587 19.52194 106 223.2)"/><circle r="1" fill="#63523a" fill-opacity=".5" transform="rotate(-88.8 140.7 83) scale(1 15.60218)"/><circle r="1" fill="#c8c5be" fill-opacity=".5" transform="matrix(-.26438 3.20462 -22.08598 -1.82208 81.5 66)"/><path fill="#ae8855" fill-opacity=".5" d="M104 234l-20-21 10 19z"/><ellipse cx="37" cy="86" fill="#e2dfd8" fill-opacity=".5" rx="13" ry="15"/><ellipse cx="104" cy="112" fill="#c2c9d1" fill-opacity=".5" rx="2" ry="35"/><path fill="#f2dfd1" fill-opacity=".5" d="M54 182.2l10.5-3.2 1.5 4.8-10.5 3.2z"/><ellipse cx="60" cy="209" fill="#3b3322" fill-opacity=".5" rx="13" ry="1"/><path fill="#59380e" fill-opacity=".5" d="M113.2 225l2.8 1-5.2 13-2.8-1z"/><path fill="#8d7148" fill-opacity=".5" d="M24.7 271l3-6.2-9.3-25.1-9.2 28.7z"/><circle r="1" fill="#d1c7be" fill-opacity=".5" transform="rotate(112.3 -33.2 82.1) scale(14.80952 20.77188)"/><path fill="#f0f7fe" fill-opacity=".5" d="M74 120h4v16h-4z"/><path fill="#aeaaa5" fill-opacity=".5" d="M78 134l-24 39 3-39z"/><circle r="1" fill="#807d73" fill-opacity=".5" transform="matrix(-5.0409 2.64802 -5.08245 -9.67521 96.6 149)"/><path fill="#b19977" fill-opacity=".5" d="M63 212.1l37.5-21.6-26 17.9L33.8 230z"/><circle r="1" fill="#a69783" fill-opacity=".5" transform="matrix(10.92953 -20.69224 2.48695 1.3136 27.7 221.8)"/><path fill="#a0845d" fill-opacity=".5" d="M106 227.7l24.3-21.4-7.1 10.5L86.6 245z"/><path fill="#5a4b3a" fill-opacity=".5" d="M4 227l-.7-.7L8 221l.8.7z"/><ellipse cx="68" cy="215" fill="#cea874" fill-opacity=".5" rx="24" ry="1"/></g></g></svg>