<svg xmlns="http://www.w3.org/2000/svg" viewBox="0 0 1400 2098"><defs/><filter id="a"><feGaussianBlur stdDeviation="12"/></filter><rect width="100%" height="100%" fill="#443b37"/><g filter="url(#a)"><g fill-opacity=".5" transform="translate(4.1 4.1) scale(8.19531)"><circle cx="112" cy="131" r="173" fill="#fff"/><circle cx="85" cy="171" r="212" fill="#e4dace"/><path fill="#7e7268" d="M56 37l104 37L-7 197z"/><circle r="1" fill="#fff" transform="matrix(-7.75335 -27.78654 163.74494 -45.69019 102.2 240)"/><path fill="#985842" d="M155 189L2 152l51 72z"/><circle r="1" fill="#fff" transform="rotate(6.7 14.3 466.3) scale(67.82863 29.17377)"/><path fill="#e4ebea" d="M93 105l78 160 9-168z"/><path fill="#28210d" d="M13.1 71.9l.8 44-17 .2-.8-44z"/><path fill="#533023" d="M47 62h23v54H47z"/><circle r="1" fill="#f2faff" transform="matrix(24.65883 -9.20852 4.9032 13.12991 62 156.9)"/><circle r="1" fill="#8b5034" transform="matrix(-.1735 -10.89663 21.7282 -.34597 111.2 173.8)"/><path fill="#494f47" d="M-6.3 188.1l-5.5-28.5 50-9.7 5.6 28.5z"/><circle r="1" fill="#f9ffff" transform="matrix(18.13414 -7.13281 9.50084 24.15451 25.9 222.6)"/><path fill="#806766" d="M106.6 140.1l-55.2-3.5 4.3-6.2 68-15.5z"/><circle r="1" fill="#fafff3" transform="matrix(2.09393 -15.86375 29.10544 3.84176 13.6 57.5)"/><path fill="#fff7f9" d="M44 174l10-57-17 1z"/><circle r="1" fill="#b4b2a9" transform="matrix(20.96549 -13.67123 28.9987 44.47092 140 79)"/><path fill="#f1f3f4" d="M140 111l-69 55 69-7z"/><circle r="1" fill="#b34245" transform="matrix(-41.78768 11.96199 -1.46757 -5.12675 93.6 207.7)"/><path fill="#eee5b9" d="M78.4 194.1l44.6-7.6L49.7 211 44 200.6z"/><path fill="#f5cac8" d="M2 118h94v10H2z"/><path fill="#12130e" d="M153 210l-8 1 9 9z"/><path fill="#cbc6be" d="M24.9 121.7l23.6-52.5-64.5 74.9 32 24.8z"/><circle r="1" fill="#f6fcf7" transform="rotate(-122.7 102 107.5) scale(25.31247 56.46352)"/><path fill="#dbe0d3" d="M39 5.9l5.5 97.4-60.5-2.5 51.9-10.1z"/><ellipse cx="139" cy="193" fill="#eff8f9" rx="8" ry="35"/><path fill="#dadcd5" d="M102.3 101.8l12.5-52.5-1.9 67.6-47.5-6.7z"/><path fill="#32332a" d="M156.4 147.2l-11-.4.2-6 11 .4z"/><ellipse cx="51" fill="#fffffb" rx="56" ry="15"/><path d="M151 164l-6 2 12 5z"/><circle cx="150" cy="121" r="4" fill="#0b0d01"/><circle cx="150" cy="96" r="3"/><path fill="#a3a49e" d="M44 39h97v26H44z"/><path fill="#890a11" d="M121.5 162.5l-78.8 14-.2-1 78.8-14z"/><path fill="#504842" d="M50 128l18 7-17 14z"/><ellipse cx="167" cy="165" fill="#ebeeec" rx="14" ry="51"/><path fill="#6e7267" d="M78.6 78.3l23.9-2.5 2.9 27.9-23.9 2.5z"/><circle r="1" fill="#d1d6cc" transform="matrix(1.06481 -42.84577 15.3626 .3818 154 25.8)"/><path fill="#151b17" d="M147.8 186l4.9-.9 1.5 8.9-4.9.9z"/><circle r="1" fill="#d8ceae" transform="matrix(-67.56257 11.9131 -.34625 -1.96369 98.8 173.4)"/><path fill="#847268" d="M177.1 86.1l-30.6 2-7.8-5.2 11.2-6.4z"/><path fill="#6c4e4b" d="M25 179.7l25.4 47.7-.4-8-36.9-79.6z"/><path fill="#f0f5f3" d="M59 250l-36-76 8 65z"/><path fill="#9d7e77" d="M85 116h36v15H85z"/><path fill="#903f1b" d="M113.3 94l16 1-.6 7-16-1z"/><path fill="#f9fdf5" d="M120.2 104.7l1.2 7.9-29.6 4.7-1.2-7.9z"/><path fill="#946450" d="M122 167h10v36h-10z"/><path fill="#141812" d="M43.2 49.5l.1-1 33.5 6-.1 1z"/><path fill="#e3e1e0" d="M69 137h79v26H69z"/><path fill="#9d0041" d="M25 111h6v7h-6z"/><path fill="#413832" d="M68.2 65.4l.6 35.4-12.1-25.7-13-7.9z"/><path fill="#c8c3bd" d="M105 12h19v81h-19z"/><path fill="#dee3dd" d="M132 90h15v141h-15z"/><circle r="1" fill="#979d98" transform="rotate(136 -38.4 99) scale(30.81505 8.05973)"/><path fill="#adada4" d="M-16 155l17-22 40 15z"/><path fill="#504a40" d="M17 152h18v23H17z"/><path fill="#d6d4d2" d="M85.2 152.4l-62.9 24.7 32.5-4.8 57.4-9.3z"/><path fill="#c1c6bf" d="M12 195l-28 44 30 32z"/><path fill="#847f73" d="M26 122.5L38.5 146l7-18.5-19.2 5.5z"/><path fill="#7d8178" d="M-7 26.8l.1-1 110 21.4-.2 1z"/><path fill="#f7d9d6" d="M28.9 129.2l-.8-14 9-.4.8 14z"/><path fill="#a78478" d="M64 107L47 78l1 47z"/><path fill="#f0fafc" d="M42.5 173.5v-43h7v43z"/><path fill="#734c43" d="M75.2 169.5L-.9 180-16 157.9l48.3 23.2z"/><path d="M148.4 96.8l.2-4 5 .4-.2 4z"/><circle r="1" fill="#81564e" transform="matrix(-45.80026 9.90237 -.65047 -3.00856 83.1 184.5)"/><path fill="#dde0da" d="M158 145l-19-24 26 3z"/><path fill="#a84839" d="M75.8 170.5l23.5-5 .9 4-23.5 5z"/><path fill="#fffff9" d="M17.3 64.2l-22-1.5 1.4-19 22 1.6z"/><path fill="#c6c6be" d="M40 54h40v9H40z"/><path fill="#514939" d="M0 78h15v17H0z"/><path fill="#403f32" d="M6.9 101.7l5.4 7.2-15.2 11.4-5.4-7.2z"/><ellipse cx="71" cy="26" fill="#d5d2cd" rx="56" ry="9"/><path fill="#8d1523" d="M129.2 196.4l1.3 3.7-21.7 7.5-1.3-3.7z"/><path fill="#e1e7e6" d="M100 218h71v38h-71z"/><path fill="#9fa6a6" d="M134.8 230.7l3.5-3.6 20.9 20.2-3.5 3.6z"/><path fill="#7a5c4a" d="M51 112h33v5H51z"/><path fill="#eff0ef" d="M113.3 159.5L186 187l-48.6-14.8-14.3-68.4z"/><path fill="#c28675" d="M104.8 203.5l31.3-8.3-97.5 14.4 19.3 8.6z"/><path fill="#e9d8d5" d="M23.4 138.6l-31.1-10.3 22.8-8.7 11-8.6z"/><path fill="#999487" d="M-16 166V72l29 94z"/><path fill="#dde0d5" d="M122 185h41v3h-41z"/><path fill="#c6c8bb" d="M25.1 37.9L14.6 71.8l33.3 42.8-24.1-56.2z"/><path fill="#706f66" d="M82 114l-2-21 12-3z"/><path fill="#515540" d="M130.3 90.8l-.2-1 21.6-4.6.2 1z"/><path fill="#c1b9b2" d="M13 119.6l-2.8 35 10.4-4.1 21.2.7z"/><path fill="#d2d1c9" d="M139 86l23-71-20-9z"/><path fill="#b3b2a6" d="M69 74h8v32h-8z"/><path fill="#6d6358" d="M20 151h22v16H20z"/><path fill="#15130a" d="M155.8 143.3l-2.4 4.3-5.2-2.9 2.4-4.3z"/><circle r="1" fill="#d5d7d7" transform="matrix(20.2866 10.6507 -4.13787 7.88148 158 206)"/><path fill="#ac2d3e" d="M49.5 220.7l23.9-7.3 1.1 3.9-23.9 7.3z"/><path fill="#d4bea0" d="M38.4 198.2l30.4-9.3 17.7 8.5-38.9 12.1z"/><path fill="#e5e6e3" d="M97 144l-60 6 29 19z"/><circle r="1" fill="#92837b" transform="rotate(173.4 1.7 57.3) scale(11.65604 1.28164)"/><path fill="#eaf1e5" d="M19 110l-5-8 20 5z"/><path fill="#7b2745" d="M26 111h3v18h-3z"/><path fill="#b2ada7" d="M106.5 77.7l15-47.9 22.8-.3-33.3 79.3z"/><path fill="#928f7e" d="M136 111h35v2h-35z"/><path fill="#b6adaf" d="M117.3 131.4l-33.6 7.3 9.3 5.2 15.8-.8z"/></g></g></svg>