<svg xmlns="http://www.w3.org/2000/svg" viewBox="0 0 1400 2098"><defs/><filter id="a"><feGaussianBlur stdDeviation="12"/></filter><rect width="100%" height="100%" fill="#634238"/><g filter="url(#a)"><g fill-opacity=".5" transform="translate(4.1 4.1) scale(8.19531)"><circle r="1" fill="#e7fff2" transform="matrix(96.3161 78.63574 -97.3844 119.2802 80.9 92.8)"/><circle r="1" fill="#fff" transform="matrix(-.6531 -101.33158 31.14937 -.20076 152.6 88.8)"/><circle r="1" fill="#52734b" transform="rotate(73.1 -26.4 40.6) scale(106.10993 27.88437)"/><path fill="#381d19" d="M68 140h56v38H68z"/><ellipse cy="163" fill="#311700" rx="32" ry="25"/><path fill="#322715" d="M132 97h25v33h-25z"/><circle r="1" fill="#9a7248" transform="matrix(32.76247 -7.0835 5.66902 26.22028 129.4 208.6)"/><circle r="1" fill="#d8d7d4" transform="matrix(-10.91767 1.8222 -16.24182 -97.31267 80.8 96.5)"/><circle cx="39" cy="255" r="59" fill="#888e76"/><path fill="#5c6040" d="M131.4 166.2l-30.3-19.7 45.4-122-49.6 63.2z"/><path fill="#fff8f0" d="M117 182l-66 15-25-29z"/><circle r="1" fill="#ded7cd" transform="matrix(-105.2803 -26.96709 6.91139 -26.98226 98.5 3.5)"/><circle r="1" fill="#fff" transform="matrix(3.09238 -23.86445 30.06622 3.89601 159.7 160.7)"/><path fill="#daf7a9" d="M17 149l33-37-62 7z"/><ellipse cx="170" cy="69" fill="#fff" rx="37" ry="32"/><ellipse cx="73" cy="56" fill="#fff" rx="4" ry="87"/><path fill="#55463d" d="M146.8 199.8L184 192l-51.1-8.7-61.6 16.9z"/><path fill="#42493d" d="M24.6 150l-.7 14.2 29.8 3.6-2.2-46.9z"/><path fill="#2a1e12" d="M102 142h23v38h-23z"/><circle cx="19" cy="78" r="39" fill="#617259"/><circle r="1" fill="#000c03" transform="matrix(2.54256 -8.26053 45.84035 14.10948 162.8 255)"/><path fill="#321300" d="M67 141h15v30H67z"/><path fill="#200a01" d="M77 132h31v4H77z"/><path fill="#f6c48c" d="M123.1 224.3l25.7-5.1 11.8 12.3-53.3-30.4z"/><circle r="1" fill="#b4ae9f" transform="matrix(20.36694 -5.81432 24.06155 84.2851 86 0)"/><path fill="#ffe9f3" d="M53 139h12v31H53z"/><path fill="#e9dfd5" d="M0 185h47v13H0z"/><path fill="#394e5e" d="M66 50h4v69h-4z"/><path fill="#1a1912" d="M18.6 6.7L19.9 4l39.5 19.3-1.3 2.7z"/><ellipse cx="3" cy="178" fill="#342814" rx="27" ry="9"/><path fill="#344510" d="M106 102l-8-14 32-14z"/><path fill="#c9bda9" d="M86.9 202.7l-44.5 2-2.7 18.7 70.4.1z"/><path fill="#f5fbff" d="M126.9 134.8l59.1 1.7-48.2 55.5-13.1-49.3z"/><circle r="1" fill="#170000" transform="matrix(-6.43954 -15.24656 10.42648 -4.40372 170 226.5)"/><ellipse cx="65" cy="90" fill="#f5ffff" rx="2" ry="50"/><path fill="#fff" d="M3.3-9.9L.2-2.5l76.6 26.4L-6.5-16zm52.5 177.7l-2.1 11.8-25.4-.3 2.4-11.4z"/><ellipse cx="100" cy="129" fill="#fff" rx="25" ry="2"/><circle cx="130" cy="107" r="17" fill="#d1cdc7"/><path fill="#d9d5ca" d="M119-16l-6 66 69-13z"/><path fill="#1b1112" d="M117 189h37v4h-37z"/><circle r="1" fill="#6a6454" transform="matrix(.38802 3.89219 -62.36872 6.21773 35.4 202)"/><ellipse cx="2" cy="30" fill="#92a682" rx="65" ry="12"/><circle r="1" fill="#485b54" transform="matrix(12.49641 -4.36403 2.6618 7.62208 57.4 131.6)"/><path fill="#4d483b" d="M148 101h10v29h-10z"/><path fill="#666949" d="M119.3 26l7 26.7-23.7 120.6 19.9-131.6z"/><ellipse cx="74" cy="119" fill="#fff" rx="5" ry="21"/><path fill="#63342d" d="M66 149h21v27H66z"/><path fill="#a8cd8a" d="M53 68h11v49H53z"/><circle r="1" fill="#556158" transform="matrix(-31.74116 3.16819 -.95702 -9.58813 29.4 104)"/><path fill="#dcdabc" d="M25 96h6v41h-6z"/><path fill="#648151" d="M54.7 36.8L50.6 38 36.3 74.1l25.4-1.6z"/><path fill="#95a288" d="M6.7 24.3l6 88.3-28-55.6 18-61.4z"/><ellipse cx="68" cy="69" fill="#495356" rx="2" ry="34"/><path fill="#76725e" d="M127 232l-49-13-25 22z"/><circle r="1" fill="#585c51" transform="rotate(130.1 -47.5 128.8) scale(14.24315 79.05064)"/><path fill="#b78b5c" d="M99.3 210.5l47.4-18 9.5 52.8 9.9-11.3z"/><path fill="#acaeae" d="M77 101h31v27H77z"/><path fill="#ecf3fd" d="M160 126l26-1-30-45z"/><path fill="#6f6257" d="M124 133l-20-2 3 39z"/><ellipse cx="125" cy="131" fill="#fae6ca" rx="27" ry="2"/><path fill="#bcbcba" d="M81.7 148.3l2.5-6.6 16-4.8-.1 36.7z"/><path fill="#f6ffc8" d="M-8 116l1.4-4.9 40.5 11-1.3 4.8z"/><circle r="1" fill="#393f32" transform="rotate(-58.5 287.2 9.8) scale(5.82604 49.16183)"/><circle r="1" fill="#a7a587" transform="rotate(40.9 -39.6 162.8) scale(24.65725 13.4305)"/><path fill="#ceac85" d="M116.2 188.5l-6.3 26.7 30.9-.6-21.2 21.6z"/><ellipse cx="73" cy="84" fill="#fff" rx="3" ry="56"/><circle cx="111" cy="222" r="6" fill="#382f1a"/><path fill="#2d4038" d="M47 93l-16 5 1 21z"/><path fill="#ccc2b6" d="M30 180h84v13H30z"/><path fill="#908a7d" d="M154.1 122.5l-21.8-26.4-2.5 30.4-33.9 9.8z"/><path fill="#6d5232" d="M20 151h11v28H20z"/><path fill="#e4fbeb" d="M63 49h3v88h-3z"/><path fill="#ced3d9" d="M136.6 166.2l-14 18.3 63.4-1.9-5.1-15.5z"/><path fill="#ded7d5" d="M0 146h32v2H0z"/><path fill="#6f7a86" d="M81 131.5l27.1 12.5-31.1-5.3-1.2-12.9z"/><path fill="#728b66" d="M52.2 126.8l-49.1 6.1-11.9-10.8 46.1 11.6z"/><path fill="#b4aea5" d="M118 75l-4-74-78-17z"/><path fill="#3b491f" d="M119 88l-7 15-19-20z"/><path fill="#2e1f18" d="M100 180l23-1-1-30z"/><ellipse cx="67" cy="110" fill="#525c66" rx="2" ry="33"/><path fill="#212e39" d="M131 124h26v5h-26z"/><path fill="#fffffb" d="M56.8 14.1L25 .2 11.8-1.9l59.5 29.1z"/><circle r="1" fill="#63442a" transform="matrix(-3.20046 -.83366 5.70395 -21.89779 142.2 212.2)"/><path fill="#444c20" d="M127 69l-1 10 7-18z"/><path fill="#bfb19d" d="M168.2 127.4l3.7-20.6 14.1 32.4-74.9-7.3z"/><path fill="#d7d4ca" d="M132-12l11 44-18 35z"/><path fill="#af9b7e" d="M96.2 223.8l48.2 16.6-.6 1.8-48.2-16.6z"/><circle cy="63" r="4" fill="#fffff9"/><path fill="#5c6858" d="M35 124h19v37H35z"/><path fill="#d3fa8a" d="M56 61l9-9-4-15z"/><circle r="1" fill="#f4fafd" transform="matrix(15.48016 -14.28468 10.62133 11.51023 155.2 76.4)"/><path fill="#f2f7f8" d="M126.8 138.3l6.8-46.1-12.3 3.4 11.2 52z"/><path fill="#898470" d="M-16 225.2l90.8 23.2 21.8 11.8-17.7-26z"/><path fill="#879e72" d="M15 141l27-6-1 16z"/><path fill="#262723" d="M62.2 25.8l8.5 16-1 .4-8.4-16z"/><path fill="#6c6d40" d="M102 74.2l2.4 25.1-7.5-32.7-12.2-31.5z"/><path fill="#464b43" d="M27 38h4v45h-4z"/><path fill="#c6d0e7" d="M86 139v-1l32-1v1z"/><path fill="#fff" d="M125 135l22 51 7-51z"/></g></g></svg>