<svg xmlns="http://www.w3.org/2000/svg" viewBox="0 0 934 1400"><defs/><filter id="a"><feGaussianBlur stdDeviation="12"/></filter><rect width="100%" height="100%" fill="#483a30"/><g filter="url(#a)"><g fill-opacity=".5" transform="translate(2.7 2.7) scale(5.46875)"><circle cx="19" cy="98" r="237" fill="#fff"/><circle r="1" fill="#fff" transform="rotate(-144.1 22.8 31.7) scale(65.01586 170)"/><circle r="1" fill="#614623" transform="matrix(33.9849 51.19926 -79.52939 52.78979 116.2 167.4)"/><path fill="#300100" d="M54 109h48v27H54z"/><circle cx="10" cy="168" r="28" fill="#fff"/><path fill="#443310" d="M149 62h22v149h-22z"/><circle r="1" fill="#feffff" transform="rotate(95.2 -10.5 34.6) scale(86.04201 41.42085)"/><path fill="#e5f2e6" d="M113 15h17v125h-17z"/><path fill="#fff9d9" d="M0 241h171v15H0z"/><path fill="#fff1de" d="M131.6 182.8l-99 3.4-.2-9 99-3.4z"/><circle r="1" fill="#dde0d1" transform="rotate(157.8 39.6 45.6) scale(28.31476 37.82364)"/><circle r="1" fill="#947659" transform="matrix(38.14611 4.36024 -3.3426 29.24307 39 214.8)"/><path fill="#2f2e06" d="M127.5 94.7l-1-29 14-.4 1 29z"/><circle r="1" fill="#4b290d" transform="matrix(19.59772 22.26651 -8.1559 7.17836 77 130.6)"/><path fill="#463f31" d="M98 241l52-44-53-23z"/><circle r="1" fill="#cec7b1" transform="rotate(-130.9 126.5 85.6) scale(31.07327 22.48891)"/><path fill="#ffdc9d" d="M69.1 140.8l-1.8-24.1-10.6 38.1 17.6-5.2z"/><path d="M55 155h25v14H55z"/><path fill="#b7bfb8" d="M148.6 79.7l-40.9 77.7 45.8-44.2-13.1-40.6z"/><path fill="#3e3119" d="M118.8 151.8l14-26.4 20.4 10.8-14 26.4z"/><path fill="#f6d9c5" d="M44.9 181l-15.6-.2 69.2 5.7.6-19.3z"/><path fill="#ebfaff" d="M25 111h31v35H25z"/><path fill="#69400d" d="M0 139l27-2-34-7z"/><ellipse cx="97" fill="#e8eee2" rx="143" ry="10"/><circle r="1" fill="#473c2f" transform="rotate(-86.5 154.3 86.3) scale(2.44954 68.02266)"/><path fill="#f8ffff" d="M41 175l-26-36-31 68z"/><circle r="1" fill="#171007" transform="rotate(151.4 19 67.6) scale(14.12739 7.75788)"/><path fill="#6f7267" d="M130 16h41v18h-41z"/><circle r="1" fill="#fff" transform="matrix(6.90896 62.16191 -16.18548 1.79893 14.9 21.2)"/><ellipse cx="111" cy="79" fill="#c8c9be" rx="20" ry="30"/><path fill="#c7cec5" d="M179.4 42.7l-7.8 22.7-35-12 7.8-22.8z"/><path fill="#070903" d="M138 172l48-6-7 18z"/><path fill="#b5a480" d="M148.3 174l-43.2-12.7 71.3 1.6-17.5 4z"/><path fill="#755138" d="M107 108l-4 74-37-62z"/><path fill="#f3dec1" d="M-15 232.1l8.8 23.9 104.4 15-67.9-33.8z"/><path fill="#a3896f" d="M27 184h80v23H27z"/><circle r="1" fill="#dcab7d" transform="rotate(-166.8 83.3 68.1) scale(13.7687 2.71295)"/><path fill="#54626a" d="M36 145h18v34H36z"/><path fill="#3c3c34" d="M126.3 205.9l59.7-22.4-69.9 4.4-14.1 54.7z"/><path fill="#c1c4bc" d="M113 156V44l20 66z"/><circle r="1" fill="#dae0db" transform="matrix(-28.24115 83.9169 -13.18547 -4.4374 55.4 70.8)"/><path fill="#755a2e" d="M186 70l-37-10v81z"/><path fill="#b8b095" d="M109 156l-29 3 49 8z"/><path fill="#c2c6bb" d="M141 51h8v80h-8z"/><path fill="#fdffff" d="M36 174l-7-69-14 72z"/><path fill="#bfaf98" d="M160.5 185.2l-53.7-15-4.4 10.5 14.2 3.7z"/><path fill="#403f23" d="M130 62h10v41h-10z"/><path fill="#fffff4" d="M67 148l-3-15-5 18z"/><path fill="#36291f" d="M75.6 158.7l2.8 6.4-32 14.2-2.8-6.4z"/><ellipse cx="153" cy="160" fill="#181407" rx="27" ry="2"/><path fill="#f0fcfd" d="M-15.6 138L15 111.2l18-50-7.5 68.4z"/><path fill="#c4c7ba" d="M103 6h27v87h-27z"/><path fill="#877254" d="M177 77l-15 71-7-42z"/><path fill="#4b4b43" d="M130 170l56 59v-44z"/><path fill="#432e21" d="M78.3 146.3l31.6 10.7-29.7 1.6 14.5-23z"/><path fill="#8f8a77" d="M170.5 216.9l-19.3-16-30.9 11 47.2 13.9z"/><path fill="#c1b9a4" d="M144.6 221.6l-55.1 24.8 81.9 3 4.5-31.4z"/><path fill="#d8dad1" d="M42 2h56v106H42z"/><path fill="#986746" d="M61.3 136.1L99.1 117l6.6 19.3-17.7-4.6z"/><path fill="#e8eff4" d="M19.9 184.6L54.4 122l.5 31.2L31 105.9z"/><path fill="#c4c5be" d="M124.4 61.7L186 59l-42.1-12.7 6.1 24.8z"/><path fill="#464639" d="M103.8 170.5l-.2 27.5-6.6-34.5 89 20.7z"/><circle r="1" fill="#504131" transform="matrix(-.98445 4.63527 -9.00527 -1.91256 47.8 234.6)"/><path d="M166 133h4v15h-4z"/><path fill="#843c0e" d="M62 131l-7-19 3 37z"/><path fill="#e7c1a5" d="M43 162h7v6h-7z"/><path fill="#e8e0d7" d="M16.2 181.9L39 171.7l2.8 6.4L19 188.3z"/><path fill="#626257" d="M145.3 28.4L132.8 8.1l-2.5 4.3 1 16.3z"/><path fill="#32281b" d="M59 110h55v5H59z"/><path fill="#e7e4df" d="M68 244l88 11-39 16z"/><path fill="#816f5b" d="M100.5 157.6l.6 85-32.4.2 22.2-3.3z"/><path fill="#ffca8a" d="M74 142l4 14-5-8z"/><circle r="1" fill="#bfc1b5" transform="matrix(-7.17005 1.69537 -5.46704 -23.12115 121 119)"/><circle r="1" fill="#b0b1a6" transform="matrix(-.10071 9.86953 -17.69654 -.18058 162.8 12)"/><circle r="1" fill="#cbd2d0" transform="matrix(10.95383 2.87368 -6.74183 25.69834 0 102.7)"/><path fill="#a28b75" d="M-16 205.1l59.5-25.8 2.9 46.6-24.7.9z"/><path fill="#f0d7bf" d="M105 172h12v10h-12z"/><path fill="#a0a299" d="M131 102h11v30h-11z"/><path fill="#493e1e" d="M130 131h27v18h-27z"/><path fill="#a9977e" d="M129 179h29v3h-29z"/><ellipse cx="153" cy="155" fill="#d4a875" rx="8" ry="4"/><ellipse cx="92" cy="100" fill="#c2c2b7" rx="35" ry="9"/><ellipse cx="67" cy="140" fill="#c5682b" rx="2" ry="18"/><path fill="#382011" d="M76.7 153l-10.8-.3-6.9 5.8-7.3 17.7z"/><path fill="#896e61" d="M5.7 221.9l17.1-32.8-8.4 39.9-29.9 7.7z"/><path fill="#dadedd" d="M31 36h24v105H31z"/><path fill="#181817" d="M56 109h22v13H56z"/><path fill="#c3b08a" d="M125 163h41v3h-41z"/><path fill="#332a1c" d="M125.6 205l-6.3-14.7-2.1 1.6L112 217z"/><path fill="#fca96a" d="M69 123l-14 20 12-8z"/><circle cx="18" cy="156" r="17" fill="#ebf9ff"/><path fill="#332b1d" d="M174 172l-4 38.7-6-.6 4-38.8z"/><path fill="#3e3f37" d="M50 237l.1-2 57.9 4-.1 2z"/><path fill="#ab988e" d="M48.4 180l60-12.4-10.4.8-4.2-2.8z"/><path fill="#c7662b" d="M55 131l2 24 4-11z"/><ellipse cx="115" cy="142" fill="#d0d6d6" rx="2" ry="13"/><path fill="#252119" d="M132 136l-3 9 15 12z"/><path fill="#6c4d2c" d="M15.8 136.4l.2 2-29.8 3.2-.2-2z"/><ellipse cx="44" cy="244" fill="#cfb998" rx="28" ry="4"/><path fill="#3d2c20" d="M80.9 127.2l7.9-1.1 4.3 30.7-7.9 1.1z"/></g></g></svg>