<svg xmlns="http://www.w3.org/2000/svg" viewBox="0 0 1400 2098"><defs/><filter id="a"><feGaussianBlur stdDeviation="12"/></filter><rect width="100%" height="100%" fill="#43432c"/><g filter="url(#a)"><g fill-opacity=".5" transform="translate(4.1 4.1) scale(8.19531)"><circle r="1" fill="#b79482" transform="matrix(144.32376 89.8368 -69.75326 112.05933 48.2 140.2)"/><circle r="1" fill="#d2e9a9" transform="matrix(-3.6904 21.2826 -133.25707 -23.10676 85 255)"/><ellipse cx="118" cy="142" fill="#460711" rx="82" ry="25"/><circle r="1" fill="#f1cda5" transform="rotate(41.8 -177.7 83.2) scale(24.13434 52.66132)"/><ellipse cx="91" cy="27" fill="#1e2f0f" rx="26" ry="86"/><path fill="#b0ecb5" d="M62.2 35.7l-72-2.5 1.6-45 72 2.6z"/><ellipse cx="61" cy="206" fill="#ff2383" rx="35" ry="16"/><circle r="1" fill="#0f472a" transform="matrix(30.6813 -25.46218 14.7527 17.77664 24 67.7)"/><ellipse cx="74" cy="114" fill="#ffb494" rx="88" ry="6"/><path d="M114 211l-21 20-55-7z"/><ellipse cx="6" cy="198" fill="#c9e4a0" rx="10" ry="104"/><circle r="1" fill="#8e7f5f" transform="rotate(167.3 71.4 27.7) scale(17.59376 136.14759)"/><path fill="#d9dddb" d="M120.5 205.7l-24.6 28.1 5.2 12.7 31.1-20z"/><ellipse cx="43" cy="155" fill="#822740" rx="23" ry="39"/><path fill="#d4f2b5" d="M64.5 24.9l-10 22.2L65.1 88l3.2-33.6z"/><circle r="1" fill="#3a4d2c" transform="matrix(-26.31201 43.39454 -22.97855 -13.9329 170 191.6)"/><circle r="1" fill="#dea0d2" transform="rotate(-91.1 139.8 54) scale(6.13866 34.30723)"/><path fill="#580d12" d="M38 173h100v12H38z"/><path fill="#51583a" d="M84 26h51v86H84z"/><circle r="1" transform="matrix(-25.2585 -6.15382 .87055 -3.57319 40.4 221)"/><path fill="#5c8461" d="M48 35.5L23.5 76.6l-33.5-20 24.7-41.2z"/><path fill="#e8969b" d="M43 197l-23-30-4 45z"/><ellipse cx="17" cy="108" fill="#c5dc8c" rx="70" ry="11"/><path fill="#e1f9aa" d="M50 71l2 27-15-13z"/><circle r="1" fill="#0b1608" transform="rotate(-165.8 5.2 41.5) scale(43.66291 10.39854)"/><path fill="#f9fdfb" d="M22-6.1l-5.7 23.3L-4.1 12l5.8-23.3z"/><path fill="#1c3314" d="M56 89h29v17H56z"/><ellipse cx="85" cy="120" fill="#dd4f50" rx="69" ry="6"/><ellipse cx="87" cy="24" fill="#a0a180" rx="3" ry="88"/><path fill="#300a12" d="M157 137l5-22-84 15z"/><path fill="#250010" d="M58 230l53-30-10 26z"/><ellipse cx="66" cy="210" fill="#f93364" rx="30" ry="12"/><path fill="#101f0d" d="M37.2 66.6l22.3 11.6-3-37.8-6.2 16.2z"/><path fill="#21220e" d="M58.4-5.3L81-5l5 23.4L76 59z"/><path fill="#ff90a3" d="M42.1 194.5l12.5 15.3 31.8-13-8.9-5.9z"/><path fill="#b47e7f" d="M48 166h80v9H48z"/><path fill="#aa627b" d="M16 119h23v44H16z"/><path fill="#24311b" d="M7 70l7-46 11 16z"/><path fill="#768a65" d="M170 98l-21 66 37-3z"/><path fill="#bd002c" d="M17 206h29v9H17z"/><path fill="#3b3823" d="M156.2 66.7l9.7 30.2L178.3-16l-21.6 92.6z"/><ellipse cx="98" cy="114" fill="#ffa9ac" rx="68" ry="3"/><path fill="#8696c5" d="M101 187h32v14h-32z"/><path fill="#34301a" d="M98 0h20v81H98z"/><path fill="#84a897" d="M38 45H18l2 29z"/><path fill="#998e88" d="M86 228.3l85.7 19.8-3.6 15.6-85.8-19.8z"/><path fill="#232f1d" d="M126 110l-7-11-36 13z"/><path fill="#152250" d="M99 209l-8-13 30 8z"/><path fill="#2f070c" d="M40 126h114v8H40z"/><path fill="#ac4b3e" d="M94 115h71v10H94z"/><path fill="#bbc0b1" d="M126.7 206.5l1.3 3.6 6.2 15.4-49.8 12.8z"/><circle r="1" fill="#917f60" transform="matrix(10.70872 2.33357 -8.85992 40.65795 141 61.4)"/><ellipse cx="81" cy="212" fill="#bb0942" rx="17" ry="8"/><ellipse cx="50" fill="#e2eff0" rx="4" ry="18"/><path fill="#4e251e" d="M40 148h103v15H40z"/><circle r="1" fill="#9e5b3d" transform="matrix(19.10285 1.21763 -.3432 5.38437 87 184.4)"/><path fill="#9da687" d="M115 96l-9-7-1 24z"/><path fill="#968686" d="M43 152l-59 5v35z"/><path fill="#9f4b4b" d="M53 116l-37 24 32 25z"/><path fill="#531c25" d="M62 189l-21 6-1-36z"/><path fill="#72624e" d="M102.2 249.6l-2.7-2.2 20.7-8.7 9 7.4z"/><path fill="#16020e" d="M45.6 224.1l-32.2-7.9 22.2-3.6 3.4-2z"/><path fill="#7c8d6b" d="M43 32L56 3l16 48z"/><path fill="#fffff8" d="M59.5 112.7v-3l25-.4v3z"/><path fill="#b7ce8f" d="M15.6 69.7L-16 47.8 26.3 10-16 29z"/><path fill="#3c0413" d="M58 139h93v4H58z"/><path fill="#3d0a05" d="M67 176h72v4H67z"/><path fill="#d3ddb9" d="M63 86.3l3-30.8-.2-28.7-5.2 35.7z"/><path fill="#855b47" d="M57 179h44v11H57z"/><path fill="#618343" d="M48.5 76.4l28.1 14.4-62.2 8.1 41.9.8z"/><path fill="#f07792" d="M50.2 219.2l-20.9-50.9 8.9 28 38.8-6.6z"/><circle r="1" fill="#4f513a" transform="rotate(167.2 -6.8 87.8) scale(8.36878 1.89987)"/><path fill="#bed583" d="M17.9 118.3l38.7-16.5-46.4-6-26.2 83.4z"/><path fill="#848969" d="M130 254l-8-48 32-54z"/><path fill="#000608" d="M88.3 218.5l15.4-.3-5.6 11.6-37.8-4.2z"/><circle cx="52" cy="76" r="3" fill="#f6f7d6"/><path fill="#d2cb9a" d="M61 250h61v6H61z"/><path fill="#3f5438" d="M11.1 70.9l9.7-41.8.4-6.4-17 11.7z"/><path fill="#182816" d="M29 69h8v28h-8z"/><ellipse cx="17" cy="155" fill="#943f49" rx="2" ry="38"/><path fill="#7f6a5d" d="M47 142h45v5H47z"/><path fill="#545f3b" d="M60.9 228.9l24.8 1.5-22.6 4.5-21.7-10.6z"/><ellipse cx="64" cy="168" fill="#d6beac" rx="17" ry="2"/><path fill="#fff" d="M87.7 45l-1-.1 1.6-10 1 .2z"/><path fill="#4a4d34" d="M141.8 228.4l-36.5 5.9H186v-63z"/><path fill="#a49577" d="M142 54h8v58h-8z"/><path fill="#667b3e" d="M33.1 11.2l1.5-22.5L21.3 4.8l-4.4-6z"/><path fill="#252817" d="M72 51v51l13-8z"/><ellipse cx="98" cy="124" fill="#856d68" rx="43" ry="2"/><path fill="#beacc8" d="M18 154h4v31h-4z"/><path fill="#fa396d" d="M47.8 212l14-19.8-56.5 21.5 35.2-8.4z"/><ellipse cx="152" cy="135" fill="#756353" rx="111" ry="2"/><path fill="#a4c698" d="M23.3 8.3L41.4 14 20.9 36.3l22.7-3.4z"/><path fill="#5e2e31" d="M23.6 172.3l52.2 7.9-61-20.3 18.3 19.6z"/><path fill="#181f11" d="M41 57h16v17H41z"/><path fill="#555837" d="M87 45h27v42H87z"/><path fill="#0f1403" d="M3 87l15-13-18-6z"/><path fill="#5a795e" d="M31.3 44l17.3 7.6-16.8 14.3L14 107.6z"/><path fill="#bf687f" d="M84.9 215.9l.5-2.7-11.5-.6L48 224.1z"/><path fill="#716550" d="M126.8 94l-9.3-110 46.9 64.3-3.9-64.3z"/></g></g></svg>