<svg xmlns="http://www.w3.org/2000/svg" viewBox="0 0 934 1400"><defs/><filter id="a"><feGaussianBlur stdDeviation="12"/></filter><rect width="100%" height="100%" fill="#664c3e"/><g filter="url(#a)"><g fill-opacity=".5" transform="translate(2.7 2.7) scale(5.46875)"><circle r="1" fill="#f7ffff" transform="matrix(-13.37073 169.47337 -139.88841 -11.0366 86.8 122.4)"/><circle r="1" fill="#3f2707" transform="matrix(-87.03689 -12.33546 4.25074 -29.9925 127.5 181)"/><circle r="1" fill="#f7ffff" transform="matrix(2.86349 -30.13493 110.37863 10.48841 80.2 50.2)"/><circle r="1" fill="#f1f8fc" transform="matrix(-19.06792 29.04837 -47.4501 -31.14718 14.7 208)"/><path fill="#334e2c" d="M114 83l-3 78-53-82z"/><circle cx="147" cy="112" r="36" fill="#deeaee"/><path fill="#314c35" d="M21.6 143l-27.9 2-3.3-48 27.9-2z"/><ellipse cx="51" cy="109" fill="#eef8f9" rx="13" ry="42"/><path fill="#dce5e7" d="M37 215l41 49 71-50z"/><circle r="1" fill="#fff" transform="matrix(65.50533 .6998 -.14374 13.45534 69.2 57.2)"/><path fill="#867463" d="M147 211L9 215l35-36z"/><ellipse cx="72" cy="145" fill="#e6f0f7" rx="87" ry="4"/><circle r="1" fill="#fff" transform="matrix(10.02493 12.33568 -24.46303 19.88057 12.4 191.3)"/><ellipse cx="65" cy="119" fill="#001716" rx="3" ry="25"/><path fill="#e4e4de" d="M-13 271l82-77.4-18.4-8.9-17.9 23.1z"/><ellipse cx="97" cy="183" fill="#290c00" rx="58" ry="4"/><path d="M0 81h39v3H0z"/><path fill="#9ea2a1" d="M140 0h31v101h-31z"/><path fill="#233218" d="M74 121l18 7-3-41z"/><path fill="#847455" d="M39 149h129v19H39z"/><ellipse cx="63" cy="20" fill="#bdc1bf" rx="78" ry="17"/><path fill="#000003" d="M0 138h40v4H0z"/><path fill="#a0b18d" d="M72.6 164.4L67.3 94l17.6-15.9 1.7 95.7z"/><path fill="#ecf6e4" d="M10.5 86.5l-22.9-6 24.2 37.6 1.3-31.3z"/><path fill="#000106" d="M14 81h4v60h-4z"/><path fill="#e1e4e6" d="M113 45h16v103h-16z"/><ellipse cx="81" cy="75" fill="#c4c7c5" rx="108" ry="6"/><path fill="#000007" d="M64 82h48v4H64z"/><path fill="#4f4e47" d="M158 135h9v64h-9z"/><path fill="#716a5d" d="M62 213l-52 1 15-12z"/><path fill="#0f132d" d="M109 90h4v50h-4z"/><ellipse cx="105" cy="210" fill="#5d4e43" rx="51" ry="4"/><path fill="#f2f4f8" d="M186 112l-33-16v46z"/><path fill="#322916" d="M160 88l3 11V78z"/><path fill="#b0afa0" d="M148.5 188l37.5 32.9-12.9 2.7-35-32.7z"/><path fill="#89a769" d="M19 101h21v38H19z"/><path fill="#99ab72" d="M67 85h12v57H67z"/><path fill="#e5e7e6" d="M39 106h25v40H39z"/><path fill="#303955" d="M65 138h47v3H65z"/><path fill="#deddde" d="M150.5 47.6L166 78l-20.5 10.5L130 58z"/><path fill="#868985" d="M126 134h17v11h-17z"/><path fill="#302d28" d="M148 177.1l38 22V217l-39.1-30.2z"/><path fill="#b7b2a8" d="M-16 175.5l8.8-34.5 51.9 3.4L-2 183.9z"/><path fill="#3c472a" d="M76 112h12v15H76z"/><path fill="#2e363b" d="M63 92h4v48h-4z"/><circle r="1" fill="#f6fcff" transform="matrix(10.67501 2.90786 -8.34999 30.65353 3.8 207.3)"/><ellipse cx="101" cy="188" fill="#442f1d" rx="40" ry="2"/><ellipse cx="44" cy="255" fill="#b3b9ba" rx="88" ry="17"/><path fill="#898e8e" d="M195-13.8l-7 39.4-67-11.8 7-39.4z"/><circle cx="28" cy="154" r="10" fill="#d8d9d5"/><path fill="#e5dcc8" d="M41 188h18v25H41z"/><path fill="#e7ecf9" d="M59 142h58v6H59z"/><path fill="#90796d" d="M119.7 191l.6 18-58 2-.6-18z"/><path fill="#767262" d="M136.9 105.1l13.6-4.9-1.1-13.4-8.1 9.5z"/><ellipse cx="51" cy="84" fill="#bcbdb8" rx="12" ry="17"/><path fill="#806b49" d="M40 151h25v35H40z"/><circle r="1" fill="#afaeab" transform="rotate(64.8 -17.5 15.3) scale(15.61542 68.7153)"/><path fill="#d6f0ba" d="M19 87h17v12H19z"/><circle r="1" fill="#515751" transform="rotate(179.6 -.2 51.3) scale(39.10349 1)"/><ellipse cx="38" cy="224" fill="#e1e3e7" rx="57" ry="9"/><path fill="#afabb8" d="M73 157l14-12 1 28z"/><path fill="#99968f" d="M154 110l-19 7h31z"/><path fill="#e4e7e8" d="M137.7 116.7l-7.1 20.8-18.5 1.7.1-24.9z"/><path fill="#92938f" d="M170.6 155.1l2 37.9-11.5-10 24.9-72.3z"/><path fill="#fdffff" d="M13 94.4l-9.5-38 6.8 26.8-14.9 5.7z"/><circle r="1" fill="#8e8373" transform="matrix(-17.15493 -3.6464 1.03519 -4.87018 1.2 166)"/><path fill="#edf1f4" d="M168 78h3v76h-3z"/><ellipse cx="125" cy="178" fill="#9e9d8f" rx="32" ry="2"/><path fill="#6c5635" d="M88 154.7l39-1.4 1 24-39 1.4z"/><circle r="1" fill="#b5bab5" transform="matrix(26.58456 -15.10379 7.65844 13.4798 124 232.9)"/><path fill="#f9ffff" d="M144 132h13v16h-13z"/><circle r="1" fill="#eef1ee" transform="matrix(-2.2283 15.56455 -51.9415 -7.4362 77.8 53.6)"/><circle r="1" fill="#b9bbb8" transform="rotate(-153.5 73.9 .8) scale(109.45739 10.29908)"/><path fill="#dddeda" d="M-16 54.2l9.3 15.4 29.8-1.3 71.7-50.1z"/><path fill="#867f77" d="M15.4 212.1l12.5 2.9 27.7-43.4-21.1 15.8z"/><path fill="#040415" d="M86 82h4v33h-4z"/><circle cx="101" cy="93" r="8" fill="#9eaf83"/><path fill="#394b4b" d="M38.5 84.2l-37 .6v-1l37-.6z"/><path fill="#8c8b88" d="M78.6 148.3l52.7.1-37.7 6.3 11.7-2z"/><ellipse cx="37" cy="110" fill="#404a49" rx="1" ry="30"/><circle r="1" fill="#919894" transform="rotate(164.1 67.8 135.2) scale(93.25156 9.68201)"/><path fill="#5c4d2e" d="M90 178l-39-2 21-14z"/><path fill="#ccd39e" d="M71.4 103l-5.1-4.8L78.6 85l5.1 4.8z"/><path fill="#e5ded1" d="M33.2 207.4l14.2-21.3 4.9 12.9-17.5 14.2z"/><path fill="#f0f6f5" d="M0 77h38v3H0z"/><path fill="#d4d9e4" d="M89.1 128.1l-15.4 18.4-.8-.6 15.4-18.4z"/><path fill="#666052" d="M64.8 197.2l-8.7 18.6 12.7-.5-2.8-53.6z"/><path fill="#c5b49f" d="M78 191h5v23h-5z"/><path fill="#fff" d="M113 86h2v54h-2z"/><path fill="#2e302e" d="M142 203h13v10h-13z"/><path fill="#c9c9c5" d="M103.6 32.5l75 37.8-78.8-61-77.6 8.1z"/><path fill="#d0d2d0" d="M63 214h39v29H63z"/><path fill="#beca99" d="M19 134v-23l17 11z"/><circle cx="85" cy="132" r="5" fill="#dde5ec"/><ellipse cx="102" cy="82" fill="#253034" rx="11" ry="2"/><path fill="#a3a4a0" d="M38 141h44v3H38z"/><path fill="#332a18" d="M149.3 100.9l-1 .1-1.6-9.9 1-.1z"/><ellipse cx="86" cy="203" fill="#66403a" rx="3" ry="11"/><path fill="#9d9276" d="M47 185h17v5H47z"/><path fill="#e6edf0" d="M57 79h59v2H57z"/></g></g></svg>