<svg xmlns="http://www.w3.org/2000/svg" viewBox="0 0 934 1400"><defs/><filter id="prefix__a"><feGaussianBlur stdDeviation="12"/></filter><rect width="100%" height="100%" fill="#3d3736"/><g filter="url(#prefix__a)"><g transform="translate(2.7 2.7) scale(5.46875)"><circle cx="125" cy="87" r="210" fill="#fff" fill-opacity=".5"/><circle r="1" fill="#fdfeec" fill-opacity=".5" transform="matrix(-157.14759 -64.84316 15.90603 -38.54831 124.6 23.4)"/><path fill="#402d09" fill-opacity=".5" d="M47 54h47v42H47z"/><circle r="1" fill="#f0e7e5" fill-opacity=".5" transform="matrix(-.06657 33.07844 -57.5163 -.11575 154.5 242.7)"/><path fill="#56492c" fill-opacity=".5" d="M186 200L65 115l51-1z"/><ellipse cx="51" cy="167" fill="#efe5d3" fill-opacity=".5" rx="43" ry="23"/><circle r="1" fill="#e9e3c5" fill-opacity=".5" transform="matrix(-5.92419 37.58298 -18.16003 -2.86256 137.1 108.4)"/><path fill="#1a0a00" fill-opacity=".5" d="M17 112h29v18H17z"/><ellipse cx="36" cy="223" fill="#75664d" fill-opacity=".5" rx="19" ry="40"/><path fill="#624f38" fill-opacity=".5" d="M99 163h72v18H99z"/><circle r="1" fill="#b59e68" fill-opacity=".5" transform="matrix(-17.08908 -15.93381 59.21951 -63.51319 8.3 91.9)"/><path fill="#f4e4ce" fill-opacity=".5" d="M-4.5 283.5v-67h23v67z"/><circle cx="107" cy="124" r="10" fill="#090300" fill-opacity=".5"/><path fill="#4a5135" fill-opacity=".5" d="M153.7 107.1l-3-21.8 31.6-4.4 3 21.8z"/><path fill="#feffff" fill-opacity=".5" d="M62 129l-1 20 26-20z"/><path fill="#e2dac6" fill-opacity=".5" d="M6 120l49 48-54 4z"/><circle r="1" fill="#d8bb88" fill-opacity=".5" transform="matrix(-.49098 10.0389 -51.69739 -2.52842 66.7 104.5)"/><ellipse cx="21" cy="23" fill="#c4c4b9" fill-opacity=".5" rx="63" ry="26"/><circle r="1" fill="#dcdaca" fill-opacity=".5" transform="matrix(-3.52355 -20.73433 20.27464 -3.44544 170 125.3)"/><path fill="#f6cc99" fill-opacity=".5" d="M128 227l-61 27-9-20z"/><path fill="#6d87cc" fill-opacity=".5" d="M70 245.4L86.3 268 50 271l98.9-33z"/><circle r="1" fill="#eddbc3" fill-opacity=".5" transform="rotate(174.5 74.6 97.8) scale(35.41678 5.74963)"/><path fill="#9a8e6e" fill-opacity=".5" d="M111.7 87.9L60.5 60.7 70.3 42l51.2 27.2z"/><path fill="#6c5f40" fill-opacity=".5" d="M18.6 91.4l-2.7 34.9 31 28.7-3.4-37.2z"/><circle r="1" fill="#fff" fill-opacity=".5" transform="matrix(-8.20635 4.00886 -11.76031 -24.07397 168.3 13.5)"/><path fill="#4c3f2c" fill-opacity=".5" d="M99.9 75l-2.7 22.8-51-8.8.2-21.4z"/><circle r="1" fill="#f6f7f2" fill-opacity=".5" transform="rotate(-158.6 60.4 3.7) scale(27.87571 12.25062)"/><path fill="#352922" fill-opacity=".5" d="M109 170l13 11-5-32z"/><path fill="#8c8986" fill-opacity=".5" d="M132.2 182.5l7.3-43.6-70.1 12.2 20.6-32z"/><path fill="#7e735d" fill-opacity=".5" d="M6.4 195.4l62.9-6.1 44.2-15.3-79.1 52.6z"/><circle r="1" fill="#aaa7a0" fill-opacity=".5" transform="rotate(174.8 75.1 31.6) scale(29.78585 13.99408)"/><ellipse cx="72" cy="154" fill="#f9ffff" fill-opacity=".5" rx="24" ry="4"/><path fill="#463b1d" fill-opacity=".5" d="M67.4 109.4l-7.3 17.7-.3 27.2-3.7-37.1z"/><circle r="1" fill="#ab9671" fill-opacity=".5" transform="rotate(156.5 -18 87) scale(19.93582 34.59565)"/><path fill="#4c3f24" fill-opacity=".5" d="M80 140l26-18-20 27z"/><path fill="#dbdeda" fill-opacity=".5" d="M127 78h26v34h-26z"/><path fill="#221f0d" fill-opacity=".5" d="M0 102l1-47-17 24z"/><path fill="#c0b8a6" fill-opacity=".5" d="M102 179h43v34h-43z"/><path fill="#ede2cd" fill-opacity=".5" d="M80 98h28v15H80z"/><path fill="#bb6865" fill-opacity=".5" d="M108.4 230.8l-38.4 12-7.3-9.5 41-10.7z"/><path fill="#d8e1df" fill-opacity=".5" d="M97 69l-18-2 18 10z"/><path fill="#a6a7a1" fill-opacity=".5" d="M72 63L26 16l53 12z"/><path fill="#e1d0b3" fill-opacity=".5" d="M45 114h11v46H45z"/><path fill="#5d5f53" fill-opacity=".5" d="M46.6 59.3l-29.9-2.6.7-8 29.9 2.6z"/><circle r="1" fill="#dce9fa" fill-opacity=".5" transform="matrix(3.35896 -1.93149 11.22927 19.5283 26.8 148.3)"/><path fill="#aea49e" fill-opacity=".5" d="M122 121h12v55h-12z"/><path fill="#464544" fill-opacity=".5" d="M69 46l28 11-13 8z"/><circle r="1" fill="#23180b" fill-opacity=".5" transform="matrix(-.871 2.41168 -17.35674 -6.26853 67.7 69.6)"/><path fill="#d7c095" fill-opacity=".5" d="M46.6 58.9l-1.7 35-31.8-9 20.8-15.8z"/><path fill="#302819" fill-opacity=".5" d="M67 114h34v4H67z"/><path fill="#333548" fill-opacity=".5" d="M82 182h14v9H82z"/><path fill="#bfb2a0" fill-opacity=".5" d="M19 170h31v23H19z"/><path fill="#d9c69f" fill-opacity=".5" d="M103 66l-7 48h20z"/><path fill="#aaa091" fill-opacity=".5" d="M40 200l26 12-18 59z"/><circle r="1" fill="#ded7d0" fill-opacity=".5" transform="matrix(-25.06676 24.31497 -19.31124 -19.90832 163.3 241.8)"/><path fill="#9d9379" fill-opacity=".5" d="M183.8 172.1l-54.3-47.6-3.9-38.5 4.3 74.5z"/><path fill="#62347e" fill-opacity=".5" d="M20 244h19v12H20z"/><ellipse cx="24" cy="101" fill="#b59e75" fill-opacity=".5" rx="48" ry="11"/><path fill="#7a7468" fill-opacity=".5" d="M9.1 155.8l7.7-11 12.1 8-44.9-2.3z"/><path fill="#a48d7a" fill-opacity=".5" d="M90 168l14-42 4 54z"/><path fill="#aaaeb0" fill-opacity=".5" d="M77.1 138.8l2.6-23.6 26.8 47.8.6-26.7z"/><path fill="none" stroke="#5f5e5f" stroke-opacity=".5" stroke-width=".5" d="M7.6 173.3q122.5-6.1 127.1-16.5"/><path fill="#5b5fab" fill-opacity=".5" d="M64.7 225.5l42.2-5-37.5 14.2-3.7 2.1z"/><path fill="#e4f6be" fill-opacity=".5" d="M57 230.6l5.5-2.2 20.6 51-5.6 2.2z"/><path fill="#443f2e" fill-opacity=".5" d="M104 116h14v33h-14z"/><path fill="#2e291c" fill-opacity=".5" d="M16 112h24v9H16z"/><path fill="#7f9bce" fill-opacity=".5" d="M110.8 251.5l23.3-19.5-31.6 8.3-33.8 10.3z"/><path fill="#e9fdff" fill-opacity=".5" d="M104 150h12v4h-12z"/><path fill="#6a79ae" fill-opacity=".5" d="M160.6 192.6l25.4 23.2-27.6-11.9-23.4-4.6z"/><path fill="#fff" fill-opacity=".5" d="M174.5-2.8l5.6 26.4-14.6 3.2L159.9.4z"/><path fill="#c8d5d3" fill-opacity=".5" d="M70 44l4 22-11-17z"/><path fill="#b1ae97" fill-opacity=".5" d="M135.9 5.7l-22.3 17.8 7-39.5h25.5z"/><path fill="#737f85" fill-opacity=".5" d="M65 118h22v12H65z"/><path fill="#5a572a" fill-opacity=".5" d="M19 220h21v7H19z"/><path fill="#5e5139" fill-opacity=".5" d="M185.5 183.1l-37.3-1.3-14.6-29.8 2.5 20.5z"/><path fill="#bdb69e" fill-opacity=".5" d="M47 51l22 12-22-3z"/><path fill="#a99885" fill-opacity=".5" d="M54 194h66v10H54z"/><path fill="#53595c" fill-opacity=".5" d="M25.7 193.1L40.2 232l-3.4-26 11.6-14.3z"/><path fill="#724527" fill-opacity=".5" d="M102 146.3l2 19-4 .4-2-19z"/><path fill="#cfbc94" fill-opacity=".5" d="M127.5 75.3l2 55-11 .4-2-55z"/><ellipse cx="10" cy="173" fill="#6a665d" fill-opacity=".5" rx="22" ry="2"/><ellipse cx="23" cy="4" fill="#d7d4cb" fill-opacity=".5" rx="94" ry="16"/><path fill="#d7d3cd" fill-opacity=".5" d="M1.1 173.5l7.2-18.7 37-2.4-2.4 18.2z"/><ellipse cx="2" cy="111" fill="#baa375" fill-opacity=".5" rx="15" ry="34"/><path fill="#3a301f" fill-opacity=".5" d="M96 115h13v21H96z"/><path fill="#f2ffff" fill-opacity=".5" d="M59 151h37v5H59z"/><circle r="1" fill="#978492" fill-opacity=".5" transform="matrix(44.35945 -11.23215 .34488 1.36206 135.5 241.2)"/><path fill="#4c4228" fill-opacity=".5" d="M57 112h4v34h-4z"/><path fill="#9d8761" fill-opacity=".5" d="M99 75h36L86 52z"/><path fill="#6b5c3e" fill-opacity=".5" d="M-16 105.8L.7 187l-5-68.9 20.8-5.2z"/><path fill="#a2a092" fill-opacity=".5" d="M-16 34l53-10 59 24z"/><circle r="1" fill="#f4fac5" fill-opacity=".5" transform="matrix(-15.8821 3.48677 -.4756 -2.16637 129.4 220.7)"/><path fill="#bcc3c2" fill-opacity=".5" d="M162.8 191.3l-42.9 15.9-53.1 14.2 66.5-26.5z"/><ellipse cx="100" cy="139" fill="#d2d4e0" fill-opacity=".5" rx="6" ry="4"/><path fill="#f2e2b6" fill-opacity=".5" d="M76.1 248l39.5-15.4-41.3 8.1-1.8-2.8z"/><path fill="#cdcec7" fill-opacity=".5" d="M186 72.4l-33.9-5.1-30.5 14.2 22.3 9.6z"/><path fill="#454034" fill-opacity=".5" d="M41 116h4v32h-4z"/><ellipse cx="62" cy="149" fill="#9ca4b3" fill-opacity=".5" rx="32" ry="3"/><path fill="#e2f0f9" fill-opacity=".5" d="M63 129h10v18H63z"/><path fill="#4a422b" fill-opacity=".5" d="M81.5 95.5v-19h17v19z"/></g></g></svg>