<svg xmlns="http://www.w3.org/2000/svg" viewBox="0 0 934 1400"><defs/><filter id="a"><feGaussianBlur stdDeviation="12"/></filter><rect width="100%" height="100%" fill="#39302b"/><g filter="url(#a)"><g fill-opacity=".5" transform="translate(2.7 2.7) scale(5.46875)"><circle r="1" fill="#fffffe" transform="rotate(101.2 20 97.4) scale(122.80569 170)"/><circle r="1" fill="#fff" transform="rotate(-106.8 119.5 -16.6) scale(121.79916 62.77367)"/><ellipse cx="34" cy="60" fill="#070600" rx="68" ry="42"/><circle r="1" fill="#a07759" transform="rotate(36.1 -325.4 238.8) scale(151.70844 74.95748)"/><path fill="#fff" d="M185 72l-80 62-117-8z"/><ellipse cx="153" cy="111" fill="#050508" rx="15" ry="11"/><circle cx="149" cy="52" r="49" fill="#fff"/><ellipse cx="170" cy="203" fill="#efebd9" rx="31" ry="41"/><path fill="#521d13" d="M22 189h99v45H22z"/><ellipse cx="48" cy="1" fill="#fffffe" rx="137" ry="11"/><ellipse cx="97" cy="176" fill="#f9f3e0" rx="170" ry="8"/><path fill="#651008" d="M37 168.7l1-27 45 1.6-1 27z"/><path fill="#5b5747" d="M62 18h40v84H62z"/><path fill="#edb48c" d="M61 195l58-20-43 41z"/><ellipse cx="151" cy="134" fill="#fffff8" rx="38" ry="15"/><path fill="#a2805b" d="M138 137l8 40-80-40z"/><ellipse cx="90" cy="118" fill="#fff" rx="34" ry="10"/><circle r="1" fill="#a49c83" transform="matrix(9.66167 2.42008 -10.81111 43.1612 5.2 215.8)"/><path fill="#f3ddb8" d="M95 30h4v61h-4z"/><ellipse cy="88" fill="#272218" rx="60" ry="14"/><path fill="#14150e" d="M43 198L2 228l76 9z"/><path fill="#ded6bf" d="M68 139.4l-83-2.9 1-26 83 3z"/><ellipse cx="156" cy="249" fill="#7b7861" rx="162" ry="17"/><path fill="#483a2f" d="M0 156h61v13H0z"/><path fill="#821e2a" d="M77 195l59 6-23 24z"/><path fill="#fff" d="M175.4 45.3L186 80.2l-81.2 43.1-4-43.3z"/><path fill="#291d19" d="M51 89h44v12H51z"/><path fill="#6e614d" d="M134 191h37v8h-37z"/><ellipse cx="47" cy="17" fill="#ebd8a9" rx="62" ry="3"/><ellipse cx="153" cy="134" fill="#705940" rx="2" ry="29"/><path fill="#675532" d="M0 106h101v3H0z"/><path fill="#3b3429" d="M152 156h19v5h-19z"/><circle r="1" fill="#d9caa6" transform="rotate(-97.8 147.4 68.6) scale(1 22.35846)"/><path fill="#ffdbc5" d="M87 150h13v17H87z"/><path fill="#f0e6d1" d="M144 129l5.2 6-39.2 34-5.2-6z"/><path fill="#929b89" d="M52 142l-30-22 22 41z"/><path fill="#181508" d="M130 170l-6-4 8-17z"/><path fill="#d3bd96" d="M66.6 106.3l27.2-1.7-47.4-7.9L.3 107.1z"/><path fill="#fff" d="M154 121h17v34h-17z"/><path fill="#d0a478" d="M36 224h51v3H36z"/><path fill="#0a150e" d="M30 227h76v8H30z"/><circle r="1" fill="#808684" transform="matrix(-6.18818 .8144 -3.01739 -22.92723 88.7 52.7)"/><path fill="#ff376e" d="M111 199h10v13h-10z"/><path fill="#fff" d="M150 161h21v30h-21z"/><circle r="1" fill="#fff" transform="matrix(-3.96549 1.3209 -6.61107 -19.84711 170 108.7)"/><path fill="#3c3c40" d="M161.6 110.5l1.3 5.8-24.5 5.2-1.3-5.8z"/><path fill="#beae8f" d="M-16 270.1v-32.2l42.7 4.3-42.7-27.8z"/><path fill="#dddbcd" d="M0 189h32v3H0z"/><ellipse cx="2" cy="51" fill="#494a35" rx="78" ry="32"/><path fill="#5f271a" d="M78.5 139.2l8.6-2.8 9.9 3L33.8 154z"/><path fill="#5f4a2d" d="M103.1 169.4l10-35.1-23.4 40 7.7-15.6z"/><ellipse cx="50" cy="172" fill="#ece2ce" rx="86" ry="4"/><path fill="#414846" d="M53 20h42v16H53z"/><path fill="#a2927b" d="M148.3 144.4l-3.2 47.6-2.3 5.6-10.6-43.2z"/><path fill="#7d7c64" d="M35.2 92.4l-17.9.1 15-14.2L59-7.4z"/><path fill="#8a8471" d="M107 234l31 11 27-31z"/><path fill="#411f01" d="M151 120h2v23h-2z"/><path fill="#28332c" d="M-16 113l36 38-36-22z"/><circle cx="91" cy="212" r="8" fill="#400003"/><ellipse cx="84" cy="168" fill="#4f3326" rx="26" ry="2"/><path fill="#e5d7be" d="M186 232l-70-43 60 17z"/><ellipse cx="115" cy="19" fill="#dfdfd4" rx="14" ry="67"/><path fill="#d6965b" d="M70 199h14v27H70z"/><path fill="#5e3b25" d="M84 183l-19 12-18-8z"/><path fill="#b87b67" d="M86.5 160.4l-3.3 7.6-16.3-18 47.8-19.1z"/><path fill="#635d4c" d="M29 126h6v30h-6z"/><path fill="#ad9276" d="M8.4 217.9l-22-.9 16.7-18.8 28.2 28.1z"/><path fill="#2f1411" d="M22 217l-8-23 67 21z"/><circle r="1" fill="#fff" transform="rotate(173.1 76 46.8) scale(24.95903 17.77412)"/><path fill="#fffbeb" d="M88 145l7-5 5 8z"/><circle r="1" fill="#fffff9" transform="matrix(-28.84998 6.60978 -1.6349 -7.1359 94.7 116)"/><path fill="#ffdbab" d="M83 189h15v6H83z"/><ellipse cx="27" cy="181" fill="#aa9c89" rx="68" ry="4"/><path fill="#c9c3b5" d="M26.6 143.6l-16-4.4-19-28.4 43.8-.5z"/><path fill="#202c20" d="M125 231l6-14-32 12z"/><path fill="#434336" d="M0 193h40v6H0z"/><path fill="#861e18" d="M51 145h22v23H51z"/><path fill="#dbceb7" d="M113 110h10v68h-10z"/><path fill="#1f312f" d="M71.4 78.5l2.3-11 4.6-1.3 19.1 24.7z"/><path fill="#dcceb6" d="M102.2 225.4l59.6-15.4 24.2 6.1-24.2-13.2z"/><path fill="#958669" d="M111.7 134.5l-40.6-5.7 65.4 32.2 8.5 17.1z"/><path fill="#fee2cf" d="M97 168l4-21-6 3z"/><ellipse cx="45" cy="13" fill="#624d1f" rx="55" ry="1"/><path fill="#fffffd" d="M132.7 130.5l1.8 20.4 17.8-5-6.6-26.9z"/><path fill="#41391d" d="M116 218l15-3-1-15z"/><path fill="#66656b" d="M165.8 109.3l-18.4-5.3 2.2 15.8 20.6.6z"/><path fill="#ded4c1" d="M143 104.3l-68.6 30.1 18.5 3.1 41.3-9.4z"/><ellipse cx="87" cy="4" fill="#e3e2d7" rx="74" ry="8"/><ellipse cx="52" cy="198" fill="#ae866d" rx="27" ry="3"/><path fill="#8b6a5f" d="M74.4 88.7L58 90.1l4.5-28.2 3-.9z"/><path fill="#dcceb5" d="M19.1 154.5l26.2-19.8 19.4 8.3 18.8-21.4z"/><path fill="#0b1814" d="M26.4 167.1l-.6.8-32.2-27 .6-.8z"/><path fill="#fff" d="M86 159h8v7h-8z"/><path fill="#3d3c35" d="M136 122.8l9.3-4.7 2.4-13.8-10.6 13.2z"/><ellipse cx="5" cy="91" fill="#1b2321" rx="14" ry="11"/><path fill="#766547" d="M99 17h3v89h-3z"/><ellipse cx="15" cy="187" fill="#0a0c03" rx="19" ry="1"/><path fill="#5d553c" d="M113 148l-15 19 9-31z"/><path fill="#e0dcc7" d="M11.5 164.3l4-28.7 1 .1-4 28.7z"/><circle r="1" fill="#332819" transform="matrix(-3.5845 3.06258 -4.30014 -5.03296 9.7 223)"/></g></g></svg>