<svg xmlns="http://www.w3.org/2000/svg" viewBox="0 0 934 1400"><defs/><filter id="a"><feGaussianBlur stdDeviation="12"/></filter><rect width="100%" height="100%" fill="#3a2c24"/><g filter="url(#a)"><g fill-opacity=".5" transform="translate(2.7 2.7) scale(5.46875)"><circle cx="103" cy="122" r="170" fill="#fff"/><circle cx="170" cy="16" r="136" fill="#ecf1e3"/><circle cx="64" cy="189" r="62" fill="#865e2a"/><path fill="#fff" d="M22 271l154-57-8 57z"/><circle r="1" fill="#aeaf9f" transform="matrix(6.73421 50.55331 -69.78565 9.29616 63 86)"/><circle r="1" fill="#e7f1ea" transform="matrix(20.22776 -23.261 21.08139 18.33236 2.1 233.7)"/><circle r="1" fill="#fdffff" transform="rotate(169 73.5 15.7) scale(62.35644 22.68439)"/><circle r="1" fill="#713525" transform="rotate(-165.2 69 99.4) scale(36.93575 17.87472)"/><path fill="#0c0100" d="M82 136h24v39H82z"/><circle r="1" fill="#fcd9ad" transform="rotate(29.9 -221.7 323.9) scale(19.71462 35.21726)"/><ellipse cx="156" cy="251" fill="#fff" rx="41" ry="27"/><circle r="1" fill="#684915" transform="matrix(-17.91999 30.4221 -13.64678 -8.03857 1.3 166.7)"/><circle r="1" fill="#52431f" transform="matrix(13.96837 -5.0014 13.60225 37.9896 47.8 238.3)"/><path fill="#e4dab3" d="M106.2 240.4l-13.7 13.2-34.7-36 13.7-13.2z"/><path fill="#5f431b" d="M176.8 188.3l-40.7-12.2-1.8 3.4 30.1-33.9z"/><ellipse cx="23" cy="70" fill="#3f2800" rx="4" ry="46"/><ellipse cx="48" cy="98" fill="#d5d8d3" rx="22" ry="37"/><path fill="#ffffde" d="M174.6 195.5l-5.5 11.8-31.7-14.8 5.5-11.8z"/><path fill="#898879" d="M84 48h43v64H84z"/><circle r="1" fill="#ccd2c6" transform="matrix(-5.86884 105.12317 -20.58856 -1.14942 0 37.5)"/><path fill="#442d03" d="M72.4 50.6l-4-8-43-5.7-8.8 3z"/><path fill="#fff" d="M161 61h8v81h-8z"/><circle r="1" fill="#25150c" transform="matrix(-21.00674 -21.32822 4.05513 -3.994 91.2 216.2)"/><path fill="#572c00" d="M71 43h4v75h-4z"/><circle r="1" fill="#d5b78f" transform="matrix(.01912 4.07607 -27.51594 .12908 75.8 157.6)"/><path fill="#471d00" d="M21 111h41v4H21z"/><path fill="#fff" d="M93.5 86h5v36h-5z"/><path fill="#fff" d="M124 131l9-23-42 7z"/><path fill="#babeb3" d="M21 0h54v36H21z"/><path fill="#d3d9d8" d="M0 115h75v18H0z"/><path fill="#3c170a" d="M113 186.8l-72.2 14.5-17.7 6 6.7 8z"/><ellipse cx="89" cy="125" fill="#4b4b4c" rx="20" ry="4"/><path fill="#d0b18a" d="M66 137h16v56H66z"/><path fill="#e8edf0" d="M118 55H91l-1 22z"/><path fill="#725935" d="M84 45h6v64h-6z"/><path fill="#c0aa74" d="M72 204l-39 9 14 22z"/><path fill="#384d30" d="M126.1 109.6l-4.9-6.3-9.8-16.3-1.7 24.7z"/><circle r="1" fill="#caccc5" transform="matrix(-6.35845 -34.98831 11.72314 -2.13046 21.8 238.2)"/><ellipse cx="131" cy="86" fill="#f3f4fb" rx="6" ry="30"/><path fill="#f6f9fe" d="M116.3 181.8L53.9 197l32-5.8 56.8-10.9z"/><circle r="1" fill="#f6f9fb" transform="rotate(-92.2 84.8 8) scale(23.52327 4.96795)"/><circle r="1" fill="#a26a51" transform="rotate(-109.3 138.8 61) scale(16.8366 27.14828)"/><circle r="1" fill="#070f0f" transform="rotate(-108.1 113.6 111.7) scale(41.81738 3.18301)"/><path fill="#9b9e9c" d="M139 44h23v38h-23z"/><path fill="#534424" d="M35.7 140.1l-49.2 4.4 13.4-7.9 57.4-1.6z"/><path fill="#645d4b" d="M59 97h16v9H59z"/><path fill="#e5e6e3" d="M83 118h11v15H83z"/><circle r="1" fill="#fff" transform="matrix(-4.63805 -19.88379 26.19835 -6.11098 170 239.6)"/><path fill="#300900" d="M66.1 226.3l3.6 9.3-15.8 6.1-3.6-9.3z"/><path fill="#221300" d="M100.5 160.8L81.9 163l7.6 9.5 19.8 9.2z"/><path fill="#202625" d="M74 117h9v11h-9z"/><path fill="#51391f" d="M162 175l-2-29-16 40z"/><path fill="#f2f0ef" d="M150 103h18v43h-18z"/><path fill="#dbdfde" d="M69.2 48.2l2 30.7-38 31.2 1.4-13.9z"/><path fill="#fffffe" d="M103 82h7v12h-7z"/><path fill="#67461f" d="M123 54h3v35h-3z"/><path fill="#e1c4a0" d="M108 131h44v36h-44z"/><circle r="1" fill="#fafdfe" transform="rotate(96.5 -24.7 73.4) scale(3.65895 14.81556)"/><path fill="#d7d9d5" d="M109-16l27 68-71-10z"/><path fill="#553911" d="M85 48l32.5 5.1-.4 3-32.6-5.2z"/><circle r="1" fill="#fff8d8" transform="matrix(1.48154 -6.0168 14.03767 3.45656 164 192)"/><path fill="#aa8b5e" d="M17 149h48v39H17z"/><ellipse cx="105" cy="152" fill="#634c2e" rx="3" ry="28"/><path fill="#fff" d="M93 78h5v33h-5z"/><path fill="#829098" d="M131 121h25v6h-25z"/><path fill="#a27562" d="M180 213l-46 15-11-41z"/><circle r="1" fill="#866d47" transform="matrix(-.29632 28.29589 -19.73673 -.20669 2.7 177.3)"/><path fill="#a5aba1" d="M26 43h6v62h-6z"/><path fill="#ced0cc" d="M35.3 203.2l-7.4-1.5-16 33.1-1-30.9z"/><path fill="#fff" d="M54.1 129.3l-5.7-1 13.8-14.2 5.5 13.6zM82 120h47v4H82z"/><path fill="#2a2e3e" d="M112 75h3v36h-3z"/><path fill="#bcbdb8" d="M-9.5 47.5h27v89h-27z"/><path fill="#9b7f5d" d="M43.4 196.9L57.7 181l88.5-6.5-9.4 4.8z"/><path fill="#826833" d="M23 110h52v5H23z"/><path fill="#9f8a6e" d="M142.2 129l.1 1-56.5 7-.1-1z"/><path fill="#2b3135" d="M102.3 82.9l-1-2.9 24.4-8.9 1 2.9z"/><circle r="1" fill="#b7b4a5" transform="matrix(-27.59483 -5.63946 5.45322 -26.68352 10.8 255)"/><path fill="#faffff" d="M203.9 124.4v2l-99.8 5.2v-2z"/><path fill="#1c1000" d="M82 138h16v15H82z"/><ellipse cx="105" cy="157" fill="#d3ba9b" rx="25" ry="2"/><path fill="#0f0602" d="M94.9 124.3l8-.6.2 4-8 .6z"/><path fill="#b4b5ab" d="M32-16l-48 42 88 17z"/><path fill="#95846f" d="M163 146h8v43h-8z"/><path fill="#bc7359" d="M90.4 191.5l43.8-8.4 12.9-3.8 6.2 7z"/><ellipse cx="75" cy="131" fill="#d6dcdf" rx="31" ry="2"/><ellipse cx="23" cy="70" fill="#51360c" rx="2" ry="35"/><path fill="#2f291b" d="M100.2 222.7l1 .2L74.7 200l-14.1 3.3z"/><path fill="#bfc6bb" d="M132.7 46.1l8.4 24.1-26.9 10.4.5 26.9z"/><circle r="1" fill="#414952" transform="matrix(-.05876 16.83369 -1 -.0035 100.6 94.7)"/><circle r="1" fill="#c8cac7" transform="rotate(79.2 -92.3 130.2) scale(1 104.33535)"/><path fill="#703827" d="M107.9 237.7l13.2-3.5-19.8-15.1 2.7 17.6z"/><path fill="#b1a27d" d="M70.2 234.6l-19-24.7 51.3 31.3-40.1 16.7z"/><circle r="1" fill="#6c5735" transform="rotate(167.9 2.2 100.4) scale(39.04796 2.72893)"/><circle r="1" fill="#d2bf98" transform="matrix(-8.46835 4.9287 -6.35276 -10.91514 83.8 229)"/><path fill="#87755d" d="M160 125h2v26h-2z"/><path fill="#a7a69e" d="M66.7 96.3L40.5 83.2l27.7 2.3 14.3 69.7z"/><path fill="#f3eee0" d="M102.8 90.1l1 21.5 14.4-.9-11 8.2z"/><path fill="#8a8c85" d="M39 120l16-1-23-5z"/><circle r="1" fill="#edeeed" transform="rotate(-101.2 88.9 -57.7) scale(15.6535 61.85328)"/></g></g></svg>