<svg xmlns="http://www.w3.org/2000/svg" viewBox="0 0 934 1400"><defs/><filter id="a"><feGaussianBlur stdDeviation="12"/></filter><rect width="100%" height="100%" fill="#574637"/><g filter="url(#a)"><g fill-opacity=".5" transform="translate(2.7 2.7) scale(5.46875)"><circle cx="14" cy="110" r="192" fill="#f2f6ec"/><circle r="1" transform="matrix(-58.69642 18.52264 -16.08262 -50.96423 10.7 185.5)"/><ellipse cx="20" cy="48" fill="#ecf1ef" rx="170" ry="75"/><circle r="1" fill="#402004" transform="rotate(169.9 49.6 82.6) scale(36.72702 43.11376)"/><circle r="1" fill="#ecdcc1" transform="matrix(45.27324 24.11739 -11.23409 21.08867 103.3 227)"/><ellipse cx="139" cy="35" fill="#36260b" rx="5" ry="173"/><circle r="1" fill="#f3f8fb" transform="matrix(27.7532 -17.68074 28.63833 44.95318 15.7 87.9)"/><circle r="1" fill="#141407" transform="matrix(8.48304 -15.95427 29.21841 15.5357 28.2 218.3)"/><path fill="#845c25" d="M148.2 176.6l45 .8-1.4 80-45-.8z"/><circle r="1" fill="#4e4125" transform="matrix(-10.68549 -1.81233 1.88823 -11.13295 93.6 46.8)"/><path fill="#eaefef" d="M146 46h25v79h-25z"/><path fill="#1b201d" d="M30.5 97.2l-14.4-7.5-32.1 24.6v-9.5z"/><path fill="#1e1916" d="M84.3 187.1l2 9.7-30-7.7L87 216.5z"/><path fill="#271c0d" d="M62 165h79v14H62z"/><path fill="#684f2e" d="M29 56l-15 1.8L11 34l15-1.8z"/><path fill="#917762" d="M-15.9 149.1L134 112.9l-37.5 53.9-51.9-17.3z"/><path fill="#030d0c" d="M145 192.8l-18.1-68.5 5.5 69.7 9.4.9z"/><path fill="#766444" d="M80.4 44.2l-23 47.4-11.3-26.3L73 66.9z"/><path fill="#f2ffff" d="M145 61h3v115h-3z"/><circle r="1" fill="#e1d2b7" transform="matrix(.17175 4.4708 -15.31623 .58839 101.2 184.4)"/><circle r="1" fill="#eff1ef" transform="matrix(13.67882 9.18373 -25.91944 38.60602 46.2 48.8)"/><path fill="#e7e8e8" d="M57.3 197l-14.6-5.9 43.2 20-29.6 6.4z"/><path fill="#1e2723" d="M15 97h3v35h-3z"/><path fill="#9f865e" d="M93 233l-14 27-81-24z"/><circle r="1" fill="#e3d5bd" transform="matrix(-30.27543 9.14394 -5.05099 -16.72374 113.9 214.7)"/><path fill="#837e6f" d="M126-16l-8.4 11.6-2.2 39.3L85.9 66z"/><path fill="#21231b" d="M32 149h17v85H32z"/><circle r="1" fill="#fff" transform="matrix(-1.2048 16.03029 -33.27984 -2.50125 16.7 77.3)"/><path fill="#82735b" d="M138 0h7v154h-7z"/><ellipse cx="108" cy="116" fill="#705837" rx="25" ry="6"/><path fill="#efdcc1" d="M-2.8 237.5l46.6 18-5 13-46.6-18z"/><path fill="#c2c2bf" d="M85.1 123.1l-44.8 10.3 12.9-37.5 32.5 56.7z"/><path fill="#4b4a43" d="M62 130.6l-15.2 9.7 12 14.1 17.6-22.6z"/><path fill="#fffffd" d="M97.2 229.7l-39.6-5.5 1.2-8 39.6 5.6z"/><ellipse cx="38" cy="147" fill="#b8c1bf" rx="42" ry="2"/><path fill="#746d5b" d="M80.2 12.3l-4.3 21.3 20 16.1-22.8-32.4z"/><path fill="#7a603a" d="M182.1 271l3.9-36.3-35.1-35.2-4.9 49.6z"/><path fill="#2b373a" d="M10 135l-9-20-5 18z"/><circle r="1" fill="#c4b298" transform="matrix(28.81275 .75449 -.0572 2.18428 102.5 162.4)"/><path fill="#523822" d="M97.8 123.7l-6.5 36.5 52.8-10.5-66.8 2.9z"/><path fill="#f7f9f6" d="M56.1 90.3L8.8 48 39 113l55.5-29.5z"/><ellipse cx="165" cy="162" fill="#ab987f" rx="18" ry="45"/><path fill="#0a0d09" d="M-13.4 220.2l61.8-5.4 1 11-61.8 5.4z"/><path fill="#2e3028" d="M127 162h17v37h-17z"/><path fill="#3c2512" d="M111 157l22-19-2-24z"/><ellipse cx="50" cy="209" fill="#c1b9ab" rx="1" ry="63"/><path fill="#aa9978" d="M122 153h5v47h-5z"/><path fill="#b5a98f" d="M148 196l-1 75-24-80z"/><path fill="#bfc3c5" d="M61.2 143.4l19.5-5.7-9.6 16.3 2.8 11.3z"/><path fill="#4b504e" d="M7 94h25v7H7z"/><path fill="#e7a065" d="M101.8 153.2l11.7-34 4.7 1.6-11.7 34z"/><path fill="#5c4a35" d="M11 32L-4 15-8-7z"/><circle cx="16" cy="14" r="14" fill="#eaeeec"/><path fill="#594834" d="M34 22l2-16-10 24z"/><path fill="#68614f" d="M51 112h3v113h-3z"/><ellipse cx="21" cy="154" fill="#222821" rx="29" ry="6"/><path fill="#201a12" d="M59.3 185.3l35.5 28.1-31.6-16.3-2.6 3.8z"/><path fill="#ead5b8" d="M70 179h17v10H70z"/><path fill="#e5dac9" d="M87 196h28v16H87z"/><circle r="1" fill="#4f422f" transform="rotate(133.9 44.4 39.7) scale(14.58468 1)"/><path fill="#d2d5d0" d="M82.7.7l-14 46-37.4-11.4 14-46z"/><path fill="#e4e8ea" d="M28 100h21v37H28z"/><path fill="#665235" d="M47.6 70.2L58 65l5.1 20.3 1.5-15.7z"/><path fill="#7e837c" d="M35.6 135.9L-1 142.1l9.3-9 8.1-5.7z"/><path fill="#e4ebed" d="M86 114l-11 22 3-17z"/><path fill="#4a483d" d="M69 160.9l-38.1-8.6-9.5 67.2 36.8-79.8z"/><path fill="#c5c8c1" d="M136 112l-65-11 52-90z"/><path fill="#3f3c2d" d="M0 226h58v10H0z"/><ellipse cx="70" cy="170" fill="#1c160f" rx="12" ry="4"/><ellipse cx="134" cy="115" fill="#aa9d85" rx="2" ry="38"/><circle r="1" fill="#d36756" transform="matrix(3.57694 -10.9188 3.87955 1.27092 97.5 141.3)"/><path fill="#614d2f" d="M39.4 58.3l.8-.6 8.4 10-.8.6z"/><path fill="#2f2c23" d="M69 112l-1 11 3-7z"/><path fill="#2e170b" d="M85.5 156.8v-5l31-.6v5z"/><path fill="#503311" d="M49.4 81.7l2.2-13.8 3 .4-2.2 13.8z"/><path fill="#c0b6a3" d="M180.5 23.5h-33v-25h33z"/><path fill="#f8ffff" d="M145 0h3v72h-3z"/><path fill="#ebebe6" d="M-16 42.7l11.3-21.4L21.1 51l-.7-7.7z"/><path fill="#453422" d="M107.3 133.6l-7.2 27 1.2-38.9-9 3.8z"/><ellipse cx="107" cy="190" fill="#484334" rx="23" ry="3"/><circle r="1" fill="#3d2504" transform="rotate(35 -40 176.6) scale(1.69405 6.36229)"/><circle r="1" fill="#8e806c" transform="rotate(177 32.9 91) scale(14.11645 3.79941)"/><path fill="#b5b1aa" d="M186 113.4l-38.5-2.8-7.1 43.4 45.6-29z"/><path fill="#fefff5" d="M55.6 82.3l-2.7-1.4 3.5-7.2 2.7 1.4z"/><path fill="#716653" d="M56 215h19v3H56z"/><path fill="#efeeed" d="M59.2 200l-1.5 17.2 21.6-9.2-13.8-8.3z"/><circle r="1" fill="#e3e6df" transform="rotate(106.7 -3.8 73.4) scale(31.24382 5.72059)"/><path fill="#d0d1c9" d="M81.8 39.8l22.7 72.1-6 3.1-33.8-8.4z"/><ellipse cx="132" cy="36" fill="#d2d3cc" rx="4" ry="60"/><path fill="#92806a" d="M81.4 169.5l3.8-20.6-37.4 16.6 24.1-1.8z"/><path fill="#49351a" d="M86 137.5l.8-24.1 2.7 1.3-1.3 28.4z"/><path fill="#3e280c" d="M86 39h4v16h-4z"/><path fill="#5b5945" d="M0 137h60v10H0z"/><path fill="#fbfcfb" d="M-26 57.2L-9.4 36 30 66.8 13.4 88z"/><path d="M62 187h4v12h-4z"/><path fill="#ab8d65" d="M102 120h25v9h-25z"/><path fill="#9d8d74" d="M70 271l11-41-25-9z"/><ellipse cx="137" cy="92" fill="#2c2211" rx="1" ry="33"/><path fill="#76735e" d="M151 62h2v27h-2z"/><path fill="#442b0c" d="M25 37l-7-3 8 11z"/></g></g></svg>