<svg xmlns="http://www.w3.org/2000/svg" viewBox="0 0 934 1400"><defs/><filter id="a"><feGaussianBlur stdDeviation="12"/></filter><rect width="100%" height="100%" fill="#4d3b30"/><g filter="url(#a)"><g fill-opacity=".5" transform="translate(2.7 2.7) scale(5.46875)"><circle r="1" fill="#c5cbc6" transform="matrix(158.86451 -60.51502 50.8503 133.49262 92.3 135.5)"/><circle cx="66" cy="46" r="26" fill="#030000"/><circle r="1" fill="#4e2b33" transform="matrix(111.98984 -16.37726 5.20262 35.57619 2.6 195.6)"/><circle r="1" fill="#fff" transform="rotate(126.5 -1.2 26.6) scale(38.5073 17.23385)"/><ellipse cx="155" cy="202" fill="#b8c1c1" rx="23" ry="184"/><ellipse cx="129" cy="32" fill="#f8f4ed" rx="26" ry="19"/><path fill="#f6f8ed" d="M100 90L10 80l98-17z"/><path fill="#391a04" d="M137 50l-53 8 57 53z"/><circle r="1" fill="#fff" transform="matrix(-2.875 -7.41222 22.35848 -8.67228 57.2 12.8)"/><path fill="#fffffe" d="M142.6 81.7l-8.5-20.3 43.5-5.9 8.4 25.8z"/><path fill="#f9f3d8" d="M118 147l-46-10-11 25z"/><ellipse cx="100" cy="14" fill="#2d0700" rx="6" ry="47"/><circle r="1" fill="#111d22" transform="matrix(.03428 -34.85221 3.7046 .00364 163.4 118.3)"/><path fill="#ff598d" d="M56.2 187.1l-34.6 10-5.8-20.2 34.6-10z"/><circle r="1" fill="#3f1800" transform="matrix(2.23375 -4.9694 47.08966 21.16689 147.3 12.8)"/><path fill="#360700" d="M171.3 44.8l1.2 10-35.8 4.4-1.2-10z"/><path fill="#311101" d="M56 31L19 75l80-13z"/><path fill="#e8ffc4" d="M20 90h16v51H20z"/><path fill="#011207" d="M66 91h9v46h-9z"/><path fill="#290000" d="M-16 195l34-2-8-52z"/><path fill="#000003" d="M134 87h5v52h-5z"/><path fill="#dedcd7" d="M177 43.2l9-18.9L108.1 37l-4.6 18.7z"/><path fill="#4d2d01" d="M135 34L113 4l27 21z"/><path fill="#323227" d="M87 156h39v21H87z"/><path fill="#e5e7e8" d="M131 178l28-43-33 8z"/><circle r="1" fill="#19231a" transform="matrix(-.15032 -1.79011 100.37674 -8.42887 145.4 87.7)"/><path fill="#fafbf8" d="M137-1l8-17.1 58 27-8 17.2z"/><path fill="#341506" d="M68 43L30 59l68-71z"/><path fill="#f9fafc" d="M127 27L106 2l3 51z"/><ellipse cx="12" cy="88" fill="#363c2b" rx="39" ry="6"/><ellipse cx="46" cy="164" fill="#2a1f08" rx="26" ry="7"/><path fill="#365155" d="M42 191l17 54-75-26z"/><path fill="#dcdcd7" d="M-16 27L9 51 86-4z"/><path fill="#785112" d="M80-4L-5-1l-11 27z"/><path fill="#fff" d="M77 211l-12-12 16 6z"/><path fill="#f6f2ec" d="M93 10L78 20l19 10z"/><path fill="#ced2cf" d="M98.4 81.6l11.6 30.9-4.3-46.3L9.6 80.6z"/><path fill="#a7a49a" d="M77.6 180.8l-42.5 9 25.7-18.3L96 157.6z"/><path fill="#ddfab4" d="M76 98h13v23H76z"/><path fill="#161a18" d="M111 76h5v45h-5z"/><path fill="#d2ee9e" d="M41 108h11v31H41z"/><circle r="1" fill="#e8e6e0" transform="matrix(2.87069 -4.9522 35.1942 20.40137 157.9 30)"/><path fill="#fff" d="M20.6 200h1l-2.2 32h-1z"/><path fill="#393019" d="M100 134h29v10h-29z"/><path fill="#191b25" d="M152 161h19v7h-19z"/><path d="M10 121h9v13h-9z"/><path fill="#fff" d="M-5 155v-16l16-3zm8-45h5v18H3z"/><ellipse cx="38" cy="118" fill="#1e301e" rx="3" ry="31"/><path fill="#d8dade" d="M177 169l9 43-50-44z"/><ellipse cx="35" cy="202" fill="#130d00" rx="13" ry="7"/><circle r="1" fill="#898e91" transform="rotate(-3.2 4033.2 -2112.7) scale(31.22977 39.73934)"/><path fill="#505038" d="M87.1 124.8l-15.5-1.1 23.8 21.8-1.8-62z"/><path fill="#d4cfac" d="M28.2 107.6L16.8 83.3-16 76l39.8-2.1z"/><path fill="#8fb4ad" d="M116 92h18v38h-18z"/><path fill="#2b1618" d="M66 63l1.3-41.7-23.7 4.3-2 12.4z"/><path fill="#ffefe9" d="M49 178h2v47h-2z"/><ellipse cx="49" cy="152" fill="#d6c497" rx="30" ry="4"/><ellipse cx="93" cy="34" fill="#d2c9c0" rx="3" ry="29"/><path fill="#c0beb8" d="M43 47L10 79l32-65z"/><path fill="#343922" d="M71 105L35 85l47 8z"/><circle r="1" fill="#bb995c" transform="matrix(-.20031 -1.3662 128.32617 -18.81496 116.7 63.5)"/><path fill="#243725" d="M52 94h4v53h-4z"/><path fill="#cce288" d="M56 97h8v37h-8z"/><path fill="#7c4340" d="M73.7 50.3l18.9 12.2L91 31 77 13.9z"/><path fill="#97a6b3" d="M47 261l69-2-92-25z"/><path fill="#474035" d="M153 91.5l-47.8-22.9 39.3 26-13.2 32.8z"/><path fill="#c3ddd5" d="M166 105h5v55h-5z"/><path fill="#260f14" d="M125 64l-17 4 23 32z"/><path fill="#5b4312" d="M95 0h11v65H95z"/><circle r="1" fill="#6a7379" transform="rotate(162.6 1.6 118.9) scale(84.69721 10.61964)"/><path fill="#3a3d32" d="M0 83h20v16H0z"/><circle r="1" fill="#be3361" transform="matrix(7.95842 22.80629 -4.74122 1.65448 21.7 176.6)"/><circle r="1" fill="#4e2f04" transform="matrix(-2.89361 -3.30534 22.17083 -19.4091 94.2 0)"/><path fill="#88bcc9" d="M95 94h13v29H95z"/><path fill="#fff" d="M43 60l-3 5h7z"/><path fill="#e7e6e0" d="M119.5 147.5l-21.9 9-3.2-12.9-5.5-3.3z"/><path fill="#726864" d="M141.3 133.4l3.4 32.8-4 .4-3.4-32.8z"/><path fill="#4b4740" d="M74.6 161.5l50.3-13.1-5.3 14-14.7 6.1z"/><path fill="#4c502e" d="M46.8 160.3l-2.7 18.9 19-1.8 10.2 29.7z"/><path fill="#4a483d" d="M9 142h57v5H9z"/><path fill="#2e2012" d="M28 172l-11-18 21 1z"/><path fill="#53390d" d="M116.5 2.6L92.4-16l90 39.4-5.4 9.5z"/><path fill="#fff" d="M0 138h22v3H0z"/><circle r="1" fill="#c7d5e3" transform="matrix(3.48201 8.57516 -13.73803 5.57844 168.4 250.7)"/><path fill="#f2f8fb" d="M156 140h6v19h-6z"/><path fill="#a6a486" d="M61 193.4l2 4.4 34.3-13.5-13.5-1.8z"/><path fill="#cacdca" d="M89.3 90.7l-19 2.3-52.6-14.9 43.4-2.5z"/><path fill="#4f3b0e" d="M21 75l5-13 31 9z"/><path fill="#480e20" d="M19.6 198.7l-35.6-4 9.2-49.7 20.5 18.1z"/><path fill="#0e0806" d="M88.6 60.1l-22.8-6.8-2.2 10.6 25.6 5z"/><path fill="#202125" d="M142 265.2L9.7 229.8l.3-1 132.3 35.4z"/><ellipse cx="161" cy="118" fill="#252828" rx="2" ry="26"/><circle r="1" fill="#313535" transform="rotate(179.1 73.6 44.6) scale(23.07809 2.0301)"/><path fill="#ee6492" d="M34 168h11v23H34z"/><path fill="#735228" d="M101.8-3l3.6-3.5L142.2 33l-3.6 3.5z"/><path fill="#20232f" d="M136 258l-84.3-21 .2-1 84.4 21z"/><path fill="#a8bc84" d="M28 90h8v55h-8z"/><path fill="#272c32" d="M163 137h3v31h-3z"/><path fill="#374240" d="M174.4 102v1l-96.8 5v-1z"/></g></g></svg>