<svg xmlns="http://www.w3.org/2000/svg" viewBox="0 0 934 1400"><defs/><filter id="a"><feGaussianBlur stdDeviation="12"/></filter><rect width="100%" height="100%" fill="#5c5242"/><g filter="url(#a)"><g fill-opacity=".5" transform="translate(2.7 2.7) scale(5.46875)"><circle r="1" fill="#eae2e8" transform="matrix(-100.46767 8.9665 -14.61481 -163.75576 75.2 62)"/><circle cx="13" cy="79" r="49" fill="#522622"/><circle r="1" fill="#fff" transform="matrix(-41.57688 29.77361 -12.43627 -17.36643 104 17.1)"/><path fill="#fff" d="M95 150l91-19-79-45z"/><ellipse cx="75" cy="159" fill="#e0e0dc" rx="18" ry="89"/><circle r="1" fill="#524a3e" transform="matrix(17.40096 -38.18293 32.89384 14.99059 161.4 60.6)"/><ellipse cx="26" cy="10" fill="#fff" rx="18" ry="26"/><circle r="1" fill="#786e66" transform="matrix(-72.90186 80.68209 -17.72865 -16.01907 123 202.2)"/><circle r="1" fill="#180000" transform="matrix(2.95205 19.7424 -41.22323 6.16405 22 238.3)"/><circle r="1" fill="#89052f" transform="rotate(-163.1 13.3 23.5) scale(52.28528 17.31313)"/><path fill="#352e1b" d="M36.9-16l9.9 34.8 27.9 8.5L77 .8z"/><ellipse cx="69" cy="32" fill="#fdfefc" rx="44" ry="12"/><path fill="#4d6459" d="M-9.3 143.5l-3-34.9 69.6-6 3 34.8z"/><circle r="1" fill="#3b341f" transform="matrix(1.42267 6.12985 -20.45744 4.74794 32.3 172.1)"/><path fill="#406142" d="M84 95h14v38H84z"/><ellipse cx="59" cy="182" fill="#fffbee" rx="30" ry="9"/><path fill="#fff" d="M136.2 132.6l-29.6 5.2-6.8-38.4 29.6-5.2z"/><path fill="#66655a" d="M181.6 156.9L6.2 173.1l51.6-13.7 61.8-7.4z"/><circle r="1" fill="#d8e1de" transform="matrix(-1.9498 -11.36244 42.74397 -7.33491 62.7 146.8)"/><path fill="#945a58" d="M28.2 209.9L-16 178.4l23.6-20 59 70.3z"/><ellipse cx="19" cy="97" fill="#759573" rx="37" ry="31"/><ellipse cx="32" cy="103" fill="#03000f" rx="4" ry="31"/><path fill="#fff" d="M75-16l7 59 38-19z"/><path fill="#302b22" d="M128.9 187.3l-48.4-18.4 100.3 25.9 4.8 7.8z"/><path fill="#35342c" d="M152.4 142.3l12.8 25-26.8-4.3 1.3-8.9z"/><path fill="#e7eef1" d="M59 71.7l5.9 11.6 18.3 45.6-23.8 14.9z"/><ellipse cx="92" cy="201" fill="#d7bcbb" rx="28" ry="10"/><path fill="#bec0b9" d="M121.6 34.8L111.4 12l105-46.8L226.6-12z"/><path fill="#000a15" d="M91 74h3v52h-3z"/><path fill="#e5e5df" d="M126.6 94.3l-21 70.7-70.8 32.1 64.9-38.5z"/><path fill="#7c7365" d="M45.4 18.6L68.1 5.2l5.2 15.4-.5 15.5z"/><path fill="#a02948" d="M67.2 77l-24.9-2 2.5-28 24.9 2.2z"/><circle r="1" fill="#c2c5c0" transform="matrix(11.10707 -8.83661 9.799 12.31674 93 61.9)"/><circle r="1" fill="#eae8e9" transform="matrix(3.0411 -8.03838 27.39257 10.36325 18.7 11.3)"/><path fill="#70716e" d="M142 156l-36 7 25-33z"/><path fill="#7e7368" d="M186 151l-36 88-43-28z"/><ellipse cy="129" fill="#bab4b7" rx="4" ry="49"/><path fill="#3e4a38" d="M20 108v32H4v-32z"/><path fill="#97619d" d="M75 185l-3 25-32-9z"/><path fill="#e3dccb" d="M0 183h34v4H0z"/><path fill="#989487" d="M99 41.9l43.1-13.2L153 64.1l-43 13.2z"/><circle r="1" fill="#313945" transform="rotate(1.5 -4414.9 2214.2) scale(2.64024 21.67866)"/><path fill="#f0f8f8" d="M106.8 132.1l79.2 5.5v17.8L99.5 82.2z"/><path fill="#93a591" d="M35 74h20v53H35z"/><path fill="#cdd6cb" d="M61 79h30v29H61z"/><path fill="#652f2e" d="M39.3 217.4l-39.2 15-11.4-29.8 39.2-15z"/><path fill="#e6eef2" d="M97 161.8l37 8.5-1 4-37-8.6z"/><path fill="#615645" d="M84 169l29 8-13 13z"/><path fill="#efeeed" d="M79 137h9v59h-9z"/><path fill="#a9b68b" d="M29.1 86.2L5.2 83.7l1.7-16 23.9 2.6z"/><path fill="#654f50" d="M129 70h42v25h-42z"/><circle r="1" fill="#241f18" transform="matrix(-54.8712 -17.82874 .6516 -2.00543 170 197)"/><circle r="1" fill="#4d2945" transform="matrix(31.31605 -2.9778 .24669 2.59431 26 138)"/><path fill="#142037" d="M83 129h21v3H83z"/><circle r="1" fill="#291c1f" transform="matrix(-12.92672 14.91044 -8.5219 -7.38813 156.6 255)"/><path fill="#837b6a" d="M117 152l-80 25 35-25z"/><path fill="#000c0a" d="M106.2 82.5l-24.7-8 .3-1 24.7 8z"/><circle cx="33" cy="131" r="8" fill="#ad3465"/><circle r="1" fill="#110600" transform="matrix(-1.65629 -5.52069 36.6289 -10.9892 20 244.5)"/><path fill="#aa9994" d="M49 194.4l24.9 59-22.2 2.6 19.5-30.3z"/><path fill="#bfc2bc" d="M49 139l-65 5 59 22z"/><circle r="1" fill="#554943" transform="matrix(14.93257 9.47052 -13.98175 22.04562 111.5 236.4)"/><path fill="#cd4570" d="M5 68l63 9-30-13z"/><path fill="#858783" d="M150.7 85l35.3 97.9-33.6-1.6 30.8-78.5z"/><path fill="#c0c6c7" d="M100.5 87.3l85.5 61.5-.2-21.8-80.3-46.1z"/><path fill="#142029" d="M54 83h4v39h-4z"/><path fill="#612531" d="M27 38.7L40.5 41l-56.3 37.7-.2-60.4z"/><path fill="#e7e3ca" d="M91.3 196.7l5.8 6.9-28.4 23.7-5.8-6.9z"/><path fill="#c1c6c2" d="M124.9 149.4l1.5 13.1 12.5-26.9 36.6 8.8z"/><circle r="1" fill="#474530" transform="rotate(-16.9 611 68.6) scale(47.71815 2.9403)"/><circle r="1" fill="#bcb6b6" transform="rotate(130 2.4 14.7) scale(7.01377 21.90286)"/><path fill="#aca39e" d="M64.2 94.5l58.3-62-61.1 22.1 7.7-2z"/><path fill="#a0b69e" d="M95 85h6v67h-6z"/><ellipse cx="170" cy="62" fill="#575f53" rx="7" ry="49"/><ellipse cx="10" cy="95" fill="#516c3f" rx="7" ry="21"/><path fill="#5a5448" d="M43 0h34v15H43z"/><path fill="#7c715f" d="M88 159h3v29h-3z"/><path fill="#887d5d" d="M143 222l17 6-37 34z"/><circle r="1" fill="#a3a19c" transform="matrix(2.83808 -9.22726 44.15176 13.58 145.1 2)"/><path fill="#d9cbc0" d="M45.4 199.4l17.6-9.1 27.7-27.6-68.3 18z"/><path fill="#141c22" d="M12.5 86.2l34.7 3.7 8.7 2-7.5.1z"/><path fill="#985b5a" d="M18 186h21v22H18z"/><circle r="1" fill="#877a70" transform="matrix(-4.44478 -4.67812 29.70912 -28.22727 85.4 232.4)"/><path fill="#dddcd4" d="M108.9 37.6l28.4-9.6 5.1-3.7L78.8-16z"/><path fill="#dde0dd" d="M77 136h11v42H77z"/><path fill="#b3a5a2" d="M23.8 110.7l4.2 26.8-4-1-3.3-8z"/><path fill="#fff" d="M62 85h2v53h-2z"/><path fill="#fffefd" d="M87.8 47.7L59.6 45l1.3 1.9L94.4 9.2z"/><path fill="#7e3645" d="M71 51.5L21.5 37.7l45.3 23.6L80 48.9z"/><path fill="#111315" d="M30 71h4v49h-4z"/><path fill="#605240" d="M28.7 176l7-6.5 41.8-9.5 1.3 4.1z"/><path fill="#93948e" d="M115.5 155.4l18.5-13.6-.2-9.3-24.7 8.7z"/><path fill="#bfa57c" d="M101.8 199l2.9-7.5 35.5 13.6-2.9 7.4z"/><path fill="#778176" d="M45 164l-43-2-10 17z"/><path fill="#cfcfcc" d="M156.8 137.1L59 155.7l-46.5-1.2 32.4-6.4z"/><ellipse cx="72" cy="105" fill="#afaca8" rx="3" ry="49"/><path fill="#28333f" d="M82 130h8v4h-8z"/><path fill="#e7eff4" d="M107 164h19v4h-19z"/><path fill="#5d5547" d="M127 163l-19-1 15-16z"/><path fill="#fffffa" d="M94 192l-3-4 2-9z"/></g></g></svg>