<svg xmlns="http://www.w3.org/2000/svg" viewBox="0 0 1400 2098"><defs/><filter id="a"><feGaussianBlur stdDeviation="12"/></filter><rect width="100%" height="100%" fill="#4e362c"/><g filter="url(#a)"><g fill-opacity=".5" transform="translate(4.1 4.1) scale(8.19531)"><circle r="1" fill="#c4d0ca" transform="rotate(-107.5 99.2 33.8) scale(147.0882 170)"/><ellipse cx="66" cy="45" rx="26" ry="25"/><circle r="1" fill="#502f38" transform="matrix(-96.0308 12.80529 -5.12411 -38.4273 15.3 195)"/><circle r="1" fill="#fbfbf8" transform="rotate(51.4 -55.5 26.7) scale(21.74364 65.18577)"/><ellipse cx="159" cy="182" fill="#b9c2c2" rx="26" ry="161"/><path fill="#f8f4ee" d="M106 15h45v35h-45z"/><path fill="#331300" d="M135 57l7 59-50-68z"/><path fill="#f0f2eb" d="M16.4 79.3L15 81.8l87.9 9.3 9.5-26.1z"/><circle r="1" fill="#3c0d00" transform="matrix(-.70688 -4.90544 33.7476 -4.8631 157.4 51.7)"/><path fill="#fff" d="M139 58h32v24h-32z"/><ellipse cx="162" cy="117" fill="#020b0f" rx="4" ry="34"/><ellipse cx="100" cy="18" fill="#361100" rx="6" ry="47"/><path fill="#fffffe" d="M65 20l30-33-76 35z"/><path fill="#ecffc8" d="M20 90h15v50H20z"/><path fill="#ff5497" d="M25.2 196.8l-6.3-22.1 26-7.5 6.2 22.1z"/><path fill="#300700" d="M140.4 15.7L186 34l-23.8-20.5-76.5-29.4z"/><path fill="#2b0000" d="M11.2 152.8l8 41.2-26.4 5.2-8-41.2z"/><path fill="#371504" d="M41.2 44.6l-20 33 80.7-14L45 21.5z"/><path fill="#f7f1d6" d="M119.4 146.6l-45.5-8.3-9.4 23 40.5-7.4z"/><ellipse cx="69" cy="109" fill="#000800" rx="5" ry="20"/><path fill="#323126" d="M85 157h40v21H85z"/><path fill="#faf9f5" d="M155 45L123 7l63 30z"/><path fill="#fafaf7" d="M180.5 21.5L137.8-.3l7.7-15.2 42.7 21.8z"/><path fill="#172218" d="M157 90.5l29-6.6v-1.7L33.1 96.8z"/><ellipse cx="133" cy="160" fill="#fcffff" rx="6" ry="20"/><path fill="#58380d" d="M147 34L112 0l16 28z"/><path fill="#1e2222" d="M134.3 131.6l3.4-49.8 2.3 58.1-42.7 5.4z"/><path fill="#79571a" d="M24.8 15.1l70.4-22L-4.6.8l-.8 22.7z"/><path fill="#2b0700" d="M54.1 46l-4.4-4 52.2-58 4.4 4z"/><path fill="#383f2c" d="M-16 93l76-2-41-12z"/><path fill="#ededec" d="M115.6 54.1l13.6-28.9-20.6-16.4-3.6 45.1z"/><path fill="#352624" d="M116.9 92.9l-1.6 42.5-10.2-74.6 32.1 21.9z"/><path fill="#000c02" d="M45.4 206.2l-21.2 6-3.6-12.4 21.2-6z"/><path fill="#e6d9d9" d="M83 18l13 38-2-48z"/><path fill="#211900" d="M22 158h41v11H22z"/><ellipse cx="97" cy="240" fill="#808a8f" rx="62" ry="43"/><path fill="#bfa19f" d="M80.5 176.7l-36.7 12.4-16.1-3.5 64.7-24.5z"/><path fill="#dcdacd" d="M7 74l21 22-17-74z"/><path fill="#30392d" d="M10 83h9v54h-9z"/><ellipse cx="167" cy="164" fill="#0a0e19" rx="15" ry="4"/><path fill="#112511" d="M52 88h4v46h-4z"/><path fill="#d6ded8" d="M6 98l-11 60 15-22z"/><path fill="#ddfcb5" d="M78 101h12v20H78z"/><ellipse cx="38" cy="118" fill="#223320" rx="3" ry="33"/><ellipse cx="68" cy="152" fill="#d3c39d" rx="44" ry="5"/><path fill="#42585b" d="M-16 189l18 38 87 23z"/><path fill="#e4e5e6" d="M142.9 138.3l-1.2 19.7 21-4.6-3.5-16.1z"/><path fill="#fffef5" d="M49 180h2v37h-2z"/><path fill="#ffede9" d="M19 190h2v43h-2z"/><path fill="#c9e394" d="M42 94h10v46H42z"/><path fill="#763738" d="M72 27h20v28H72z"/><path fill="#d8dadd" d="M186 210.7l-10.1-7.5-37.5-32.7 35.8-2.5z"/><path fill="#52533d" d="M95 83.4l-.6 45.4-2 20.2-10.7-14.1z"/><path fill="#e3d2aa" d="M66.2 206.6l-15.3-29.8 27.6 37.7.9-11.8z"/><path fill="#8db9b5" d="M118 92h16v31h-16z"/><path fill="#484a30" d="M43.8 85.8l51.8 48.6-30.6 1.3 13.4-40.4z"/><path fill="#94c3cc" d="M112 84l-17 31 12 8z"/><path fill="#dadbd4" d="M68.7 90.4l25.9-21.8-78.3 9.3 48.2 12.8z"/><path fill="#bd3c62" d="M17.3 182.6L6.9 138.2l20.9 40.5-8.8 34.4z"/><path fill="#cac8c4" d="M4.7 82.1L48.3 44l-60.5-16.1L61.9 3z"/><path fill="#312a0f" d="M46 207l29 5-12-12z"/><ellipse cx="60" cy="120" fill="#dcf494" rx="5" ry="13"/><path fill="#424741" d="M-1.9 127.5l21.9 6.1-36 8L6.4 81z"/><circle r="1" fill="#806126" transform="rotate(170.5 60.2 34.7) scale(43.74822 4.60073)"/><path fill="#f3c67f" d="M176.2 53.2l.2 1-94.6 16.6-.2-1z"/><path fill="#402e12" d="M100 136h23v8h-23z"/><ellipse cy="139" fill="#fcfffe" rx="35" ry="2"/><path fill="#b1b499" d="M1 99h33v9H1z"/><path fill="#4a4642" d="M126 168l-4-20-44 11z"/><path fill="#424439" d="M135 144.4l5.7-33.6 14.8-24.1-22.6 20.8z"/><path fill="#45453a" d="M5 142h62v5H5z"/><path fill="#291515" d="M43 27v34l30-43z"/><path fill="#3a2a06" d="M30.7 76l12.1-24.1-22.1 18.7-1.8 2.8z"/><path fill="#20252c" d="M163 133h3v32h-3z"/><path fill="#fff" d="M40 62h5v4h-5z"/><path fill="#a8b2ba" d="M59 244L6 271l113-12z"/><path fill="#fff" d="M97 142l16 6-19 4z"/><circle r="1" fill="#c8d3df" transform="matrix(20.986 -9.54089 4.5656 10.04243 170 252.4)"/><ellipse cx="73" cy="61" fill="#070208" rx="18" ry="6"/><path fill="#999796" d="M114 177h40v79h-40z"/><path fill="#d9d8d7" d="M141 47L106 2l3 52z"/><path fill="#cdddd1" d="M68 137h17v12H68z"/><path fill="#2a2930" d="M142.4 261l-73-21 .2-1 73 21z"/><path fill="#deddda" d="M45.2 26.5L74.6 1.1 26.2 18.3 3.3 67.4z"/><circle r="1" fill="#553a09" transform="matrix(-1.56327 4.00958 -65.17683 -25.41139 132 6)"/><path fill="#f4ffef" d="M169 159l-3-22 20-2z"/><path fill="#5c3e16" d="M99.9-1.3L61.1 40.8 93.3-9.9l20.1 103.2z"/><path fill="#391f21" d="M136.7 63.8l-8.1 4.5-2.9 29.8-20.2-31.8z"/><path fill="#bccb9d" d="M75 99h15v25H75z"/><path fill="#abc285" d="M28 90h8v55h-8z"/><path fill="#441924" d="M12 143l5 71-30-45z"/><path fill="#353830" d="M6 99V81l-22-3z"/><path fill="#716a64" d="M152 131h2v48h-2z"/><path fill="#53412b" d="M73.1 165.3l-16.4 7.3-11.4 8.7-.9-22.6z"/><path fill="#7d5c32" d="M121 18.2l22.3 21.4L102.6-16H90.2z"/><path fill="#a1aaa7" d="M124 164l12-26-11-27z"/><path fill="#aaa98c" d="M68.8 195.8l2.7-1 27.1-11.6-23.6 2.4z"/><path fill="#444029" d="M64.7 193l9.9-3.8-44.1-33.7 14.5 2.9z"/><path fill="#5a421c" d="M167 44.9l19 5.2-47.7 9.6-59.7 1.5z"/><path fill="#f3e9de" d="M186 86.5l-53.5-24.3 25.1-3.2 12.7-2.6z"/></g></g></svg>