<svg xmlns="http://www.w3.org/2000/svg" viewBox="0 0 1400 2098"><defs/><filter id="a"><feGaussianBlur stdDeviation="12"/></filter><rect width="100%" height="100%" fill="#604335"/><g filter="url(#a)"><g fill-opacity=".5" transform="translate(4.1 4.1) scale(8.19531)"><circle r="1" fill="#fff" transform="rotate(73 -7.4 123.3) scale(122.60828 169.99999)"/><ellipse cx="122" cy="100" fill="#fff" rx="17" ry="101"/><circle r="1" fill="#eaf6f1" transform="matrix(-27.17415 -1.52723 7.13618 -126.97457 61.4 79.6)"/><circle r="1" fill="#887f67" transform="matrix(1.14026 21.04564 -169.54412 9.18599 124.8 216.7)"/><ellipse cx="1" cy="68" rx="3" ry="94"/><circle r="1" fill="#5d685b" transform="matrix(17.63514 -2.3071 21.99554 168.13114 168.3 96)"/><circle r="1" fill="#5c1a05" transform="matrix(-6.3336 -46.06358 8.39353 -1.15409 87.6 220.7)"/><ellipse cx="22" cy="114" fill="#2a3930" rx="7" ry="39"/><ellipse cx="96" cy="124" fill="#55594d" rx="11" ry="43"/><circle r="1" fill="#e8f0e7" transform="matrix(25.15176 25.66771 -18.45232 18.0814 87 9.5)"/><ellipse cx="68" cy="119" fill="#fbfeff" rx="16" ry="43"/><path fill="#9e9b8e" d="M47 36h43v54H47z"/><path fill="#02100b" d="M28 143l-44 24v-31z"/><ellipse cx="26" cy="61" fill="#001208" rx="3" ry="35"/><ellipse cx="165" cy="204" fill="#868d85" rx="29" ry="52"/><circle r="1" fill="#fdffff" transform="matrix(2.95706 -67.33329 10.69918 .46987 118 135.3)"/><path fill="#172a22" d="M10.7 3.6l-2.1-.4 1.7 17.5 22.5 20.9z"/><circle r="1" fill="#8e9388" transform="matrix(-12.24626 43.56745 -22.38906 -6.29328 0 217.4)"/><path fill="#936d59" d="M85 175.7l-36.9-7.8 1.8 18.3 45.1-8.3z"/><path fill="#d7e8e6" d="M7.4 73.4l10.4 20.7-.5 35.1-14.2-19.9z"/><circle r="1" fill="#b5bcb4" transform="matrix(6.72633 -73.35212 12.67795 1.16256 141.9 147.4)"/><path fill="#716e66" d="M84 82h11v78H84z"/><circle r="1" fill="#999d91" transform="matrix(-9.80325 2.44422 -30.67993 -123.05048 145 68.2)"/><path fill="#5e4834" d="M124.4 262.6L55 271l2-55.2 51.5-12.3z"/><path fill="#f2f9f2" d="M35 25h11v179H35z"/><path fill="#4f524e" d="M47 66h5v51h-5z"/><path fill="#b0b4a5" d="M41.2-16L8 .9l45.4 52.3 16 20.8z"/><path fill="#c5ccbd" d="M101.7 84.5l1.2 19.9L136.8-16 75.1 69.2z"/><path fill="#eaeaf1" d="M55 78h28v91H55z"/><path fill="#e3e0d4" d="M132.5 206.5v-34.4l-43 5.9 22.1 19.5z"/><path fill="#a39c87" d="M109 185l12 54 27-19z"/><path fill="#190000" d="M44 240h79v5H44z"/><path fill="#1d2b23" d="M0 3h5v70H0z"/><path fill="#676c59" d="M27 246l113-2-25 27z"/><path fill="#b6c6b4" d="M6 36h19v42H6z"/><circle r="1" fill="#6b695c" transform="rotate(174.9 84.2 20.9) scale(14.76835 61.98988)"/><path fill="#0d120b" d="M25.7 133l-2-.1 2.6-38 2 .2z"/><ellipse cx="51" cy="194" fill="#b2a792" rx="7" ry="39"/><ellipse cx="33" cy="116" fill="#4d5542" rx="1" ry="81"/><path fill="#3e3f34" d="M91 150h16v10H91z"/><path fill="#2f3220" d="M0 118h8v11H0z"/><path fill="#d7c8b8" d="M76.5 174.5l-17.9-14.8 43.1.4 7.1 3.2z"/><path fill="#e4f2f3" d="M12 110l-8 30 10-4z"/><ellipse cx="115" cy="91" fill="#fcffff" rx="6" ry="36"/><ellipse cx="154" cy="203" fill="#858075" rx="12" ry="45"/><path fill="#989287" d="M28.6 219.2l-15.3 4.7-19.9-65L8.7 154z"/><ellipse cx="139" cy="117" fill="#c6cac4" rx="6" ry="49"/><path fill="#dfc5a7" d="M81 188.6l-23.4 23.3-8.5-8.5 23.3-23.3z"/><ellipse cx="19" cy="103" fill="#939087" rx="5" ry="29"/><path fill="#888179" d="M85 76l23 23-23 62z"/><path fill="#dddde1" d="M70 73h14v87H70z"/><path fill="#b1baad" d="M4 90l17-52L5 5z"/><path fill="#3d463f" d="M28.4 44.6L-10.1-16 13 5.7l12.4 22.6z"/><path fill="#514f3b" d="M43.9 271l-8.2-64.5-.2-2.4L5 256.6z"/><path fill="#4e1f13" d="M86 205l15 39-25-10z"/><circle r="1" fill="#d2d4ca" transform="matrix(-25.60418 -32.42922 15.67914 -12.37932 100 7.3)"/><path fill="#b5b5a8" d="M27.4 148l9.7 51.2-17.6 31.3 1.4-80.8z"/><path fill="#b0aea1" d="M47 41h64v29H47z"/><path fill="#5a5743" d="M128.3 209.1l27.2 44.3 30.5 12.8-56.7 4.8z"/><path fill="#a86d52" d="M85.6 170.4l20.8 61.8-4-47.8-37.5 41.4z"/><path fill="#828276" d="M132 42l52 98-28-128z"/><path fill="#f4f9f8" d="M106.8 194.2l-8.6-23.4 27.6 23.2-11.5-72.2z"/><path fill="#f1f3f6" d="M57 101.3l-3.6 66.2 18.5-67.8L35 87.2z"/><ellipse cx="49" cy="93" fill="#cdccc8" rx="1" ry="84"/><path fill="#877b64" d="M61.1 221.3L51.3 242 31 225.1l8.6-19.9z"/><path fill="#d8ded8" d="M10.7 116.4l4.6-42.9L4.4 87l-1.2 18.6z"/><path fill="#837d72" d="M-16 143l10 115 29-40z"/><circle r="1" fill="#bec5b7" transform="rotate(72.9 -12.8 43) scale(20.25751 1.95388)"/><path fill="#edf4eb" d="M134.3 120.6L95.5 73.8l17.4 33.5 12.8-49.6z"/><path fill="#3b3e39" d="M27 130v15l-43 16z"/><ellipse cy="66" fill="#141a13" rx="1" ry="87"/><path fill="#797b72" d="M36 130v7h5z"/><circle r="1" fill="#6c675b" transform="matrix(-.60025 29.76021 -15.7577 -.31782 170 222)"/><path fill="#56594f" d="M84 144h19v15H84z"/><path fill="#a8a698" d="M82.1 47L51.6 96.1l1.6-28.5-2.1-23.2z"/><path fill="#abb7ae" d="M28 64h4v100h-4z"/><path fill="#9b9791" d="M150 130l-14 91 44-100z"/><path fill="#262822" d="M26 36h3v35h-3z"/><ellipse cx="26" cy="93" fill="#2a2d26" rx="2" ry="51"/><path fill="#9ca192" d="M24.8 20.7l4.8 5.9-33-40.9L38.3-16z"/><ellipse cx="34" cy="114" fill="#94978c" rx="1" ry="49"/><path fill="#f4f9fb" d="M107 97h9v34h-9z"/><circle r="1" fill="#b1b3aa" transform="matrix(-1.78947 1.33816 -15.96384 -21.34793 140.2 219)"/><ellipse cx="37" cy="37" fill="#f0f4ed" rx="3" ry="20"/><path fill="#d9ddd5" d="M125 198l14-69-19-11z"/><path fill="#e2e0db" d="M54.9 26.6l44.7 10.6 4-25.3-47.4-.3z"/><path fill="#666756" d="M36 98l2-5 2 6z"/><path fill="#b5a084" d="M125.5 238l-35.9-61.7 1.5 27.4 26.9-13.5z"/><path fill="#eae4d0" d="M64.3 178.9l5.5 2.3-10.1 24-5.5-2.4z"/><path fill="#87827a" d="M85 78h10v68H85z"/><path fill="#686158" d="M166.9 125.3l-3.6-7.6-3.3-.5-7 6.3z"/><path fill="#a78c80" d="M121.7 173.2l-77.9 10.3L59 165.6l9.1 8.9z"/><path fill="#944633" d="M81 176h8v41h-8z"/><path fill="#c0c3b7" d="M134.4-16L72.6 8.2l62.7 6.7-7.6 60.3z"/><path fill="#2c2c24" d="M47 71h2v16h-2z"/><path fill="#c4c1b6" d="M108.6 40.2L22.2 12.9l22.1 25.4 45 8.3z"/><path fill="#cfcec6" d="M87.3 76.5l5.3-12 20 9-5.2 12z"/><path fill="#929895" d="M15.7 124.6L12 136.2l-11.5 8 25.2-5.8z"/><ellipse cx="41" cy="134" fill="#c0c0b5" rx="1" ry="73"/><path fill="#c5a389" d="M80 181l-4 23-16-6z"/></g></g></svg>