<svg xmlns="http://www.w3.org/2000/svg" viewBox="0 0 1400 2098"><defs/><filter id="a"><feGaussianBlur stdDeviation="12"/></filter><rect width="100%" height="100%" fill="#5c5242"/><g filter="url(#a)"><g fill-opacity=".5" transform="translate(4.1 4.1) scale(8.19531)"><ellipse cx="82" cy="25" fill="#ebe3e9" rx="107" ry="201"/><circle cx="6" cy="86" r="56" fill="#4d2925"/><circle r="1" fill="#fff" transform="rotate(58.4 34.5 101.4) scale(20.61737 47.6443)"/><circle r="1" fill="#fff" transform="matrix(31.58181 15.884 -9.4623 18.8137 130 118.3)"/><ellipse cx="170" cy="62" fill="#514a3e" rx="47" ry="44"/><ellipse cx="73" cy="156" fill="#e4e4e2" rx="16" ry="92"/><circle r="1" fill="#fff" transform="matrix(-10.87338 8.86353 -33.29783 -40.8483 17.2 .7)"/><circle r="1" fill="#746c62" transform="matrix(23.00407 -40.33043 41.8326 23.8609 144.8 190.6)"/><circle r="1" fill="#130000" transform="matrix(-5.669 -19.13824 37.77565 -11.18966 23.4 241.9)"/><circle r="1" fill="#8f012c" transform="rotate(-76.1 50.3 8.8) scale(17.05274 44.02404)"/><circle r="1" fill="#3d3724" transform="matrix(5.51948 -15.58653 15.9204 5.63771 61 10.2)"/><circle r="1" fill="#504734" transform="matrix(1.33695 6.4629 -65.6794 13.58677 10.1 176.2)"/><path fill="#e7f0f0" d="M152 97.7l-50.5 33.4L-16 162.9l129.8-13z"/><path fill="#fff" d="M92.3 44.7l30.4-20.6L80.1-6.2l-9.8 49.4z"/><path fill="#fbebe1" d="M105 194L2 185l78-15z"/><path fill="#32503f" d="M96.7 133.6l-17.1.7 11-26.3 2.7-44.3z"/><circle cx="24" cy="104" r="37" fill="#6b8b70"/><path fill="#f9ffff" d="M146 122l-45 27 1-66z"/><ellipse cx="31" cy="96" fill="#000001" rx="3" ry="30"/><path fill="#935c5a" d="M63 223L6 156l-22 26z"/><circle r="1" fill="#f3fcff" transform="matrix(3.00308 31.37688 -4.37524 .41875 64.4 109.5)"/><circle r="1" fill="#847870" transform="matrix(78.4493 -65.82679 9.13977 10.89236 128.1 196)"/><path fill="#e3dedf" d="M79.3 30.3L64 49.3l-34.8-12L-16-2.2z"/><path fill="#373830" d="M131.1 153.9l7.2 10.4 27.2 2.1-10.6-20.7z"/><path fill="#0a0500" d="M88.3 170.9l86 26.3-.6 2-86-26.4z"/><circle r="1" fill="#edf6fb" transform="matrix(-.70652 2.92193 -18.41087 -4.4517 114.6 166.9)"/><path fill="#000313" d="M55 81h3v58h-3z"/><path fill="#c9abb2" d="M124.6 198.3l-19.8 14.3L-.8 180.4l110.7 13.1z"/><path fill="#c97387" d="M68.7 73l-.9 7-72.5-9 .9-7z"/><circle r="1" fill="#bdc0bc" transform="matrix(.97136 10.72508 -107.5525 9.74093 49.9 149.5)"/><path fill="#5e3250" d="M39.2 128.7L29 99.6l-.9 41.8 33.7-5.5z"/><ellipse cy="127" fill="#b8b5b7" rx="4" ry="49"/><ellipse cx="102" cy="59" fill="#adada4" rx="36" ry="18"/><path fill="#696655" d="M47.8 157.6l72.7-4.4L-16 189l84.5-32.5z"/><path fill="#662030" d="M-16 76.5V15.2l84 47.3-23.2-19.1z"/><ellipse cx="44" cy="98" fill="#93a88f" rx="10" ry="28"/><path fill="#654e4f" d="M128 70h43v25h-43z"/><path fill="#a06c9d" d="M50.2 217.5L42.4 199l29.4-12.5 7.8 18.5z"/><circle r="1" fill="#5f2b29" transform="matrix(-22.76854 .83846 -.90457 -24.56395 16.4 214.4)"/><path fill="#bdbfb7" d="M160.5 19.5l-35 12-12-35 35-12z"/><circle r="1" fill="#332727" transform="matrix(15.39969 9.06602 -60.6425 103.00832 170 248.5)"/><path fill="#757670" d="M142 168l-10-37-27 29z"/><path fill="#8e897c" d="M115.7 77l-11.4-37.2 42-12.9 11.4 37.3z"/><path fill="#e2e8e6" d="M82.4 130.5L79 73.8l-7.4 54.8 16.8 67.2z"/><path fill="#253832" d="M114 82l-33-9 11 9z"/><path fill="#a6aba9" d="M122.1 94.4l33.5-.5 13.9 65.6 6.8-27.4z"/><path fill="#6f8a6c" d="M104.1 138.3l-4.4-36-20.2 6.9 9.3 12.5z"/><path fill="#abd59c" d="M27 72l1 14L3 68z"/><path fill="#080c1a" d="M91 83h3v49h-3z"/><path fill="#902d47" d="M17 45l58 5-14 27z"/><path fill="#091014" d="M30 71h5v48h-5z"/><path fill="#445940" d="M4 101h18v40H4z"/><path fill="#edf5f4" d="M104.6 115.1l-7.5-35.7 40.4 60.9 31.2-7.4z"/><circle r="1" fill="#fff" transform="matrix(-8.75145 -7.18852 12.67386 -15.42941 86 30.8)"/><path fill="#e6eaea" d="M39.6 144.4l-.6-4 43.4-6.8.6 4z"/><path fill="#150801" d="M-16 262l80-28-45-2z"/><path fill="#d8e8d7" d="M76 79h15v15H76z"/><path fill="#c0c1bc" d="M123.6 84L67.5 67.3l36.3-20.7 2.3 49.6z"/><circle r="1" fill="#e8e2cd" transform="matrix(3.21945 5.1494 -13.26925 8.29606 82.5 208.7)"/><path fill="#aeb0b4" d="M139 169l34 8-16 3z"/><path fill="#554d41" d="M72.4 13.4L81.6-16 46.1 22.9 39-16z"/><path fill="#f9fdfd" d="M125 139h2v23h-2z"/><path fill="#7a8477" d="M16 174.8l-20.4 4.7-5.6-24.3 20.4-4.7z"/><circle r="1" fill="#8c8075" transform="rotate(134.3 -11.4 135.2) scale(32.21926 8.63286)"/><path fill="#9a5b5a" d="M35 185l-39 3 66 36z"/><path fill="#c0a9b0" d="M29 117.4l-2 17.9-6-.7 2-17.9z"/><circle r="1" fill="#5e504f" transform="matrix(14.8894 -34.9955 11.53272 4.90678 103.3 243.4)"/><circle r="1" fill="#716a5e" transform="matrix(1.32457 -23.54668 5.41148 .30441 71.5 10.3)"/><path fill="#e2e1d2" d="M43 198l57-32-60 9z"/><path fill="#9b8b72" d="M156 200l-64-14 50 30z"/><ellipse cx="33" cy="6" fill="#e8e7e6" rx="10" ry="22"/><path fill="#fff" d="M61 78h3v61h-3z"/><path fill="#b44162" d="M79.6 72l-16.9 6.2-29.9-5.6-29.1-9.3z"/><path fill="#877b5c" d="M119.2 271l4.5-4.3 35.2-37-13.2-9.2z"/><path fill="#625b4f" d="M126.7 167.7l7.8-4.7-32.3 1.1 20.9-18.7z"/><path fill="#cfc6c4" d="M12 31.3l65.3 22.5-20.4-24.9 41.6-9.8z"/><path fill="#c8c8c7" d="M130 161l-15 13-26-5z"/><path fill="#e2e4e3" d="M131.5 95.5l-27.7 63-27.8 17 29.9-13.6z"/><path fill="#98b283" d="M82 94h9v35h-9z"/><circle r="1" fill="#474131" transform="matrix(-38.52615 8.87419 -.53245 -2.31158 23.8 174.4)"/><path fill="#6b5f4c" d="M89 166l19 26-12-3z"/><path fill="#2f503f" d="M165 63h6v29h-6z"/><path fill="#9ba194" d="M70.7 86l-4.3-34.8 9-1.1 4.2 34.7z"/><path fill="#f2f4f5" d="M75 137.2l35.8-5.1-11.4 13.8 35.8-21.5z"/><path fill="#f8f8f3" d="M75 166h13v26H75z"/><path fill="#dadad3" d="M115.8 36.9L76-16l40.8 26.7 26.8 13.8z"/><circle r="1" fill="#4e364e" transform="rotate(-97.1 76 55.4) scale(2.44828 26.8901)"/><path fill="#7f8076" d="M179 128l-26-76-1 42z"/><path fill="#746954" d="M88 171h2v18h-2z"/><path fill="#908371" d="M71.7 162.2l-38.3 14.7 49.3-11.5-10.2-22.6z"/><path fill="#809664" d="M15 77h15v33H15z"/><path fill="#b1416c" d="M27 127h13v14H27z"/><circle r="1" fill="#d0cbbe" transform="matrix(-73.71605 15.42393 -.35667 -1.70466 21.4 183.2)"/><path fill="#ceb68f" d="M122 208.2l-24.8-13.1 2.8-5.3 24.8 13.1z"/><path fill="#2c3137" d="M60.8 93.8l-48.2-6.9L-16 84l55.1 3.6z"/><path fill="#e1ebec" d="M65.3 137.7l-78.4 9.6-.2-1 78.4-9.6z"/><path fill="#56272f" d="M145 69l8-3-3 25z"/><path fill="#312c25" d="M186 206.7v-1.6l-67.3-25.7 60.9 16.3z"/><path fill="#834f82" d="M39 200.3l24.2-9.3 1.8 4.7-24.2 9.3z"/><path fill="#c0a298" d="M84.9 228.1l-17.5 1-17-16.1-13.3-19.3z"/></g></g></svg>