<svg xmlns="http://www.w3.org/2000/svg" viewBox="0 0 1400 2098"><defs/><filter id="a"><feGaussianBlur stdDeviation="12"/></filter><rect width="100%" height="100%" fill="#39302b"/><g filter="url(#a)"><g fill-opacity=".5" transform="translate(4.1 4.1) scale(8.19531)"><circle r="1" fill="#fffffd" transform="matrix(165.6831 38.0672 -27.56673 119.98103 123.7 99)"/><circle r="1" fill="#fff" transform="matrix(11.08858 117.30492 -57.84747 5.4682 159.4 80.8)"/><ellipse cx="36" cy="60" fill="#070700" rx="66" ry="42"/><circle r="1" fill="#a37b5d" transform="matrix(-78.78705 -72.44841 88.48071 -96.22205 53 255)"/><path fill="#fff" d="M135 136l-151-11 155-36z"/><ellipse cx="147" cy="60" fill="#fff" rx="54" ry="42"/><path fill="#000001" d="M139 103h28v17h-28z"/><circle r="1" fill="#512116" transform="matrix(.75766 26.83017 -59.87114 1.69072 73.4 214)"/><ellipse cx="170" cy="201" fill="#eff0e3" rx="31" ry="42"/><ellipse cx="75" cy="3" fill="#fff" rx="170" ry="9"/><ellipse cx="83" cy="176" fill="#f7f4e4" rx="170" ry="8"/><path fill="#601a14" d="M81.5 142l1 26-54 2-1-26z"/><path fill="#3b3327" d="M0 75h101v27H0z"/><path fill="#f0b086" d="M70.2 226.5L68.5 191l41.7-12.9-30.4 35.7z"/><path fill="#646051" d="M63 20h39v89H63z"/><circle r="1" fill="#fcf6e7" transform="matrix(-4.87164 -13.7571 50.2378 -17.79014 94 117.2)"/><ellipse cx="165" cy="136" fill="#fff" rx="34" ry="16"/><path fill="#a29980" d="M-16 207l46-43-25 89z"/><path fill="#1e0f0c" d="M21 202h44v32H21z"/><circle r="1" fill="#86826e" transform="matrix(-40.08409 .8412 -.66344 -31.61375 151.4 249.2)"/><path fill="#454739" d="M-7 167l45-1-54-47z"/><path fill="#8a7d64" d="M153.8 160.9L109.6 171l33.6-23.1 40.6 14.4z"/><circle r="1" fill="#fff" transform="rotate(-115.4 99.8 -11.7) scale(24.51361 55.6563)"/><ellipse cx="57" cy="103" fill="#ffeac1" rx="39" ry="3"/><path fill="#7d715e" d="M174.5 191v10h-39v-10z"/><path fill="#624425" d="M151 115h3v45h-3z"/><path fill="#823a32" d="M40.5 229.9l34.2-15.1 46.2-31.4 1 41.3z"/><circle r="1" fill="#eae8e1" transform="matrix(-.55426 -49.70134 33.38058 -.37226 134.6 29.1)"/><path fill="#afab92" d="M9 124h40v32H9z"/><path fill="#ffd9c9" d="M98 170l-11.8-2.6 5.8-27.3 11.8 2.5z"/><circle r="1" fill="#f0e6cd" transform="matrix(.09293 -12.95373 8.12587 .0583 115 164.8)"/><path fill="#888164" d="M0 237h103v15H0z"/><path fill="#584f3b" d="M149.1 176.5l-27.7-10.4 10.2-17.2 7.2 32z"/><ellipse cx="96" cy="80" fill="#e8d7ba" rx="2" ry="57"/><path fill="#efdcad" d="M94.5 20h-117v-4h117z"/><path fill="#f2f0e8" d="M0 111h108v14H0z"/><path fill="#fff" d="M80.1 128.5l76.6-34.8 29.3 48-20.9-94.1z"/><path fill="#0f1308" d="M5.2 216.6l42.1 17.6-29.3-6.5-14.7 2.2z"/><path fill="#000a05" d="M35 228h72v6H35z"/><path fill="#4b4b48" d="M57 20h38v79H57z"/><path fill="#641d14" d="M48 152l13 17 33-1z"/><path fill="#fff" d="M149 164h22v26h-22z"/><path fill="#645839" d="M115 131l-12 38-3-33z"/><ellipse cx="30" cy="107" fill="#3c2909" rx="69" ry="1"/><circle cx="116" cy="205" r="7" fill="#ff2767"/><path fill="#88877f" d="M94.7 76.8l-5.3 1.6-14.4-53 24.8 18z"/><circle r="1" fill="#4b4a35" transform="rotate(-91.4 22.7 23.3) scale(26.91214 80.31104)"/><path fill="#a8735b" d="M121.3 128.1l-23.2.2-27.7 40.5 1.2-39.9z"/><path fill="#523e2b" d="M-16 197.4l98.2-14-13.1 9.5-43.6 7.7z"/><ellipse cx="74" cy="224" fill="#98805b" rx="40" ry="3"/><path fill="#fffbe0" d="M142.2 212.6l-34 11.7-.4-1 34-11.6z"/><path fill="#fff" d="M155 121h16v34h-16z"/><path fill="#454444" d="M135 124l11-24 18 2z"/><path fill="#101b18" d="M17.2 101l-33.1.8 8.5-14.9L12 73.2z"/><path fill="#4f191c" d="M84 224l1-28 39 20z"/><path fill="#edddc2" d="M181.1 200.4l-23.2 14.1-29.8-21.6-11.2 5.8z"/><path fill="#7a1b14" d="M48 166l2-19 40-11z"/><path fill="#f1b07c" d="M85.3 206l-11.2-10.9-9.7.2 7.2 20z"/><path fill="#c8bca8" d="M41.3 98l30.1 44.7-87.4-12.3 78.6-33z"/><path fill="#252b1f" d="M128 229.8l13.3-8.7-23.4.5-42.2 9.1z"/><path fill="#463a28" d="M30 125h3v20h-3z"/><path fill="#ffcea0" d="M98 192.5l-12-4.1-9 2.8 23.3 6.8z"/><path fill="#b8aa95" d="M133.6 151.4l21.8-4.8v7.4l-14.8 37.8z"/><path fill="#2f2422" d="M14.8 102.3L49 80.4l39.1 21L41.7 96z"/><ellipse cx="35" cy="172" fill="#f1e5d1" rx="68" ry="4"/><circle r="1" fill="#a8876a" transform="rotate(-13.3 676.1 -425) scale(27.88417 2.67652)"/><path fill="#bfac8e" d="M23 242L8 227l-19 7z"/><path fill="#72755c" d="M54.5 18.4L34.7 92.9l-5.6.2-2.5-5.1z"/><path fill="#dcc8b0" d="M167 232l19-22-38 19z"/><path fill="#957060" d="M59 87l7-27 9 29z"/><path fill="#5a040c" d="M77 197h29v3H77z"/><circle r="1" fill="#eae9e2" transform="matrix(-2.08979 10.65175 -90.68595 -17.79188 98.6 1.5)"/><ellipse cx="3" cy="190" fill="#d6cec2" rx="29" ry="2"/><path fill="#b49e82" d="M-17 222l-2.6-18.8L17 198l2.6 18.8z"/><path fill="#fff" d="M128 122h22v14h-22z"/><path fill="#332312" d="M119 190l-18-1 22 10z"/><ellipse cx="100" cy="62" fill="#6d5c40" rx="2" ry="51"/><path fill="#71756b" d="M59 134.6l-22.8 11.5-42.4-10.8L37 164.8z"/><ellipse cx="90" cy="162" fill="#fff" rx="4" ry="5"/><path fill="#434243" d="M153 157h18v4h-18z"/><path fill="#d6cdb9" d="M128 130l14-24-64 30z"/><path fill="#28110e" d="M65 224l-47-29 1 20z"/><path fill="#dddcd3" d="M102 0h24v83h-24z"/><path fill="#d0c3ab" d="M103.4 133.6l-7 28.2 11.1-23L47.2 122z"/><ellipse cx="16" cy="108" fill="#4f442f" rx="46" ry="1"/><ellipse cx="97" cy="73" fill="#ceba98" rx="2" ry="37"/><ellipse cx="62" cy="13" fill="#5f4b1f" rx="38" ry="1"/><path fill="#fbfdff" d="M148 161h23v30h-23z"/><path fill="#1c1b0a" d="M108 168l-9-7 1 8z"/><path fill="#162925" d="M91 82L80 67 65 78z"/><path fill="#b79282" d="M96.1 188.6l13-9.7L50 199.6l.5 5.5z"/><path fill="#322e22" d="M0 186h35v2H0z"/><path fill="#262217" d="M128 159l-5 10h11z"/><path fill="#69614e" d="M112 228l-70 21 105 22z"/><path fill="#c2a282" d="M128 218.5l-28.4 7.4-44.5-.6 33.8-1.1z"/><path fill="#998a75" d="M142.5 193l-12.2-51 14.1 31.3 1.8-1.1z"/><ellipse cx="36" cy="141" fill="#d3cbb9" rx="2" ry="27"/><path fill="#44281a" d="M66.4 144.3l45-9.6.2 1-45 9.6z"/><path fill="#a17b65" d="M18.5 195.5l65 3.9-48.3 1.3-5.2-.9z"/><path fill="#c0a18b" d="M80 201h26v3H80z"/></g></g></svg>