<svg xmlns="http://www.w3.org/2000/svg" viewBox="0 0 933 1400"><defs/><filter id="a"><feGaussianBlur stdDeviation="12"/></filter><rect width="100%" height="100%" fill="#3c5f6f"/><g filter="url(#a)"><g fill-opacity=".5" transform="translate(2.7 2.7) scale(5.46875)"><circle cx="82" cy="82" r="195" fill="#fffff1"/><circle r="1" fill="#fff" transform="rotate(90.9 -59.4 186.5) scale(13.93845 168.99996)"/><ellipse cx="91" cy="6" fill="#fff" rx="169" ry="14"/><ellipse cx="68" cy="246" fill="#fff" rx="169" ry="11"/><ellipse cx="65" cy="8" fill="#fff" rx="169" ry="12"/><circle cx="36" cy="128" r="108" fill="#9f9f8e"/><circle r="1" fill="#bdbfae" transform="rotate(-140.9 85.4 20.7) scale(51.82523 82.11872)"/><circle r="1" fill="#828e8a" transform="matrix(-20.07122 -47.13703 23.80266 -10.13531 31.5 93.9)"/><path fill="#fff" d="M0 236h170v20H0zM3.5 19.5v-39h165v39z"/><circle r="1" fill="#899a93" transform="matrix(85.68646 -14.95468 2.44647 14.01763 125 212.4)"/><ellipse cx="70" cy="181" fill="#6a7f81" rx="15" ry="16"/><path fill="#9b9c8d" d="M29 20h116v29H29z"/><path fill="#bcc1b4" d="M26 165h31v44H26z"/><path fill="#66909b" d="M28.5 214.7l-33.6 15.9 17.3-22.2 7.5-43.6z"/><path fill="#68797a" d="M13.1 85.9l11.6-3.2L37 128.1l-11.6 3.2z"/><path fill="#fff" d="M185 235l-201 1 99 35z"/><path fill="#c2bba8" d="M75.4 26.4L101 56 80.6 73.6 55 44z"/><circle r="1" fill="#fff" transform="matrix(-149.7195 -8.07732 1.02386 -18.97801 72 0)"/><path fill="#939c98" d="M134 177.4l-34 1.2-2-54 34-1.2z"/><path fill="#adb8af" d="M86 181h55v25H86z"/><circle r="1" fill="#b7bfb3" transform="rotate(129.2 7.2 93.4) scale(21.38268 15.42009)"/><circle r="1" fill="#758788" transform="matrix(54.10488 4.4404 -.67116 8.17794 0 93.4)"/><path fill="#b8c2b4" d="M185 80l-14 134-29-181z"/><path fill="#b9b5a2" d="M49 71l-31 3 35 18z"/><circle r="1" fill="#87a39f" transform="matrix(6.7928 -.2237 1.3484 40.94463 154.3 173.7)"/><path fill="#909084" d="M76.8 20.4h40l-11.9 5.9L93 49.9z"/><circle r="1" fill="#c2c1af" transform="rotate(22.8 -149.7 335.5) scale(8.9773 42.73335)"/><path fill="#adafa2" d="M92.4 220.7L185 226l-51.1 9.7-62.6-.1z"/><path fill="#898b87" d="M134.8 120h-5l-.6-40h5z"/><ellipse cx="107" cy="248" fill="#fff" rx="169" ry="13"/><path fill="#829491" d="M59 213h91v9H59z"/><circle r="1" fill="#7e9291" transform="matrix(29.52212 -.42535 .06423 4.45797 106.3 173.5)"/><ellipse cx="65" cy="98" fill="#8e9590" rx="6" ry="43"/><path fill="#84908f" d="M17.6 135.1l8.6 41.2-13.1-6.1-2.6-20.8z"/><ellipse cx="57" cy="1" fill="#fff" rx="169" ry="18"/><path fill="#a4a69c" d="M75.1 137.5l1.2 15.3L84 80l-50.9 39.4z"/><ellipse cx="3" cy="219" fill="#817b78" rx="8" ry="9"/><path fill="#818a88" d="M78.3 231.8L51.6 236l-1.9-11.8 26.7-4.2z"/><circle r="1" fill="#aab1a6" transform="matrix(7.39587 -22.49465 41.30492 13.58037 154.3 154)"/><ellipse cx="29" cy="67" fill="#6c827f" rx="23" ry="3"/><path fill="#c2bba7" d="M51 139h24v14H51z"/><path fill="#aab2a7" d="M-9.5 16.6L23 27.7l-39 62.4 29.8-13.7z"/><path fill="#418ba6" d="M154 199h5v15h-5z"/><path fill="#aeb8ad" d="M76.8 209.4l.6-.5-61.8-43.8 13.7 46.3z"/><ellipse cx="138" cy="202" fill="#a1a398" rx="14" ry="32"/><path fill="#bebba9" d="M73.7 73.8l19.1-52.9-7.1 58.7L44 82.9z"/><path fill="#9db5b4" d="M84 101.1l14.7-7.6 7.3 72.9-15.6-29.3z"/><ellipse cx="142" cy="101" fill="#b6c2b9" rx="6" ry="49"/><circle r="1" fill="#c0c2b3" transform="matrix(-5.8501 .96848 -5.29365 -31.97632 85.4 136.2)"/><path fill="#b1ae9d" d="M102 24h27v49h-27z"/><path fill="#a4aea9" d="M16.4 101.5l15.2 48-47.6-24.6v-5.3z"/><path fill="#5b7679" d="M29 39h4v15h-4z"/><ellipse cx="47" cy="152" fill="#8f8a84" rx="11" ry="5"/><path fill="#85918e" d="M60.2 151.7l10.3 18 16.7 24.9-36-3.3z"/><path fill="#418aa5" d="M16 192h6v14h-6z"/><path fill="#a1aca2" d="M123 21h42v31h-42z"/><path fill="#c3c2b0" d="M97 82.5L72.7 77l53.1-4.3 4.6 26.7z"/><path fill="#b5baaf" d="M15 55l29 1-8 7z"/><path fill="#7c8985" d="M153 156l5-14-10 6z"/><path fill="#84918e" d="M22 21h83v5H22z"/><path fill="#98a6a0" d="M16 70h4v49h-4z"/><path fill="#8f9189" d="M101.9 38.5l3.1 4v9.9l-29.2-7.2z"/><circle r="1" fill="#eff5f1" transform="rotate(-89.2 132.7 105) scale(1 35.25211)"/><path fill="#7f807f" d="M55.8 46l-16-1 .4-7 16 1z"/><path fill="#92a7a6" d="M108.7 198.6l-25.8 5.1-10.8-59.5 8.8 92.6z"/><circle r="1" fill="#c0c6ba" transform="matrix(3.46053 -49.67168 3.69532 .25745 164.9 89.9)"/><path fill="#9e9992" d="M122 125.5v-23h10v23z"/><path fill="#8b9189" d="M62.5 60.9l17-2.8-10 17.4-10.1 7z"/><path fill="#919d99" d="M118.2 64.2l-33.3 5.5L74.4 73l37.8-.1z"/><path fill="#5d7b83" d="M101 180l-5-5 6-9z"/><path fill="#c8c2ae" d="M134.8 60.5l-20.4-10.7-13.4 1.7L58.2 47z"/><path fill="#a0b6b4" d="M160 140l-1-61-22 5z"/><ellipse cx="44" cy="214" fill="#7a9ea3" rx="28" ry="3"/><path fill="#7c9594" d="M122.2 216.9L83.8 222l30.2-22.4-5.4 16.9z"/><path fill="#bcb5a5" d="M28 151l11-5-29-21z"/><path fill="#b4baae" d="M-10.8 239.8l65.2-23.9-27.5-39.6 38.8 30.2z"/><path fill="#c4c4b3" d="M134.2 49.1V84l24.3-9.6-28.3-28.1z"/><path fill="#afb5a8" d="M32 183h41v4H32z"/><ellipse cx="9" cy="5" fill="#fff" rx="167" ry="15"/><ellipse cx="111" cy="156" fill="#889896" rx="3" ry="38"/><ellipse cy="123" fill="#65838d" rx="5" ry="4"/><path fill="#afbeb9" d="M75.1 197.7l29.9-7.4 17.7 6.5-26.1 4.1z"/><path fill="#c5c4b1" d="M150 33.4l.9-2 6.5 8.9-13.4 25z"/><path fill="#8b9290" d="M125 210h23v15h-23z"/><ellipse cx="38" cy="252" fill="#fff" rx="168" ry="17"/><path fill="#bec1b3" d="M90 169h4v18h-4z"/><path fill="#a2a79e" d="M98 25l-29 4-29 29z"/><circle r="1" fill="#929890" transform="rotate(78.1 -57.6 96) scale(9.23638 26.65015)"/><path fill="#c9bfa9" d="M76.2 46.8l-32.8 4.4 43 3.2-3.3 20.8z"/><path fill="#6c6c68" d="M37 112l-11 6 1-8z"/><path fill="#677d80" d="M72 195l12-3-26-9z"/><path fill="#acb4a7" d="M165 160l-7 66 27 14z"/><path fill="#68878b" d="M12 141h5v15h-5z"/><path fill="#b2b4a7" d="M103.9 121.3l22.7-.5-15.9 36.6 36.8 10.6z"/><path fill="#909794" d="M92 161l40-2v19z"/><path fill="#b0b6aa" d="M144.6 199.3l-9.9 11-17.8-40.7-4.6 17.1z"/><path fill="#95958f" d="M33.2 178.2l13.9-3.6-36.4-7.3 9-5z"/><ellipse cx="99" cy="227" fill="#a9b6b0" rx="18" ry="8"/><path fill="#8a938d" d="M73.1 94.9L70 69.2l-1.1 32.3 16.6.7z"/></g></g></svg>