<svg xmlns="http://www.w3.org/2000/svg" viewBox="0 0 1400 1120"><defs/><filter id="a"><feGaussianBlur stdDeviation="12"/></filter><rect width="100%" height="100%" fill="#50352c"/><g filter="url(#a)"><g fill-opacity=".5" transform="translate(2.7 2.7) scale(5.46875)"><circle cx="198" r="204" fill="#bc9384"/><ellipse cx="203" cy="171" fill="#faffff" rx="15" ry="65"/><circle r="1" transform="rotate(-94.9 109.7 36.8) scale(56.21058 23.19572)"/><ellipse cx="245" cy="166" fill="#000012" rx="29" ry="77"/><circle r="1" fill="#ff5349" transform="matrix(-1.2071 115.26533 -29.11638 -.30492 135.3 191.9)"/><circle r="1" fill="#040003" transform="rotate(171 80.4 73) scale(11.07696 80.00617)"/><circle r="1" fill="#ffc388" transform="matrix(-14.46742 -5.24521 11.41768 -31.4924 52 77)"/><circle r="1" fill="#014052" transform="matrix(39.40411 61.63884 -35.59163 22.7528 26.6 169.8)"/><circle r="1" fill="#baac8c" transform="matrix(-30.85042 -7.12238 20.5483 -89.00443 10 21.1)"/><circle r="1" fill="#b3a688" transform="matrix(-22.5873 -3.85988 13.1289 -76.82795 112.8 31.6)"/><path fill="#ffbb87" d="M161.5 102.7l-2.7-32.3-25.9-7.2L127 96z"/><circle r="1" transform="matrix(9.21514 -27.70173 16.21722 5.39475 93.1 141.5)"/><path d="M151 110h38v23h-38z"/><ellipse cx="206" cy="62" fill="#ff9d6a" rx="18" ry="28"/><path fill="#c3cfff" d="M188 130.3l31 1.6-7 135.8-31-1.6z"/><path d="M83 48L56 30l31 43z"/><circle r="1" fill="#3b7371" transform="matrix(-15.2719 -10.38876 21.44136 -31.51966 50.4 179.8)"/><path d="M125 64l40 1-13-17z"/><path fill="#b79f85" d="M137 16l38 59 7-91z"/><path fill="#ffca8e" d="M163.2 140.3L150 154l-25.2-24.3L138 116z"/><path fill="#d4343f" d="M106 146h65v58h-65z"/><path fill="#bdc7f0" d="M230 84l-14 63-5-31z"/><path fill="#020a17" d="M171 116h16v88h-16z"/><circle r="1" fill="#120c1c" transform="matrix(-15.278 -4.58362 22.98695 -76.61949 6.9 175.4)"/><path fill="#130c00" d="M57 26L34 73l-6-19z"/><ellipse cx="86" cy="191" fill="#000003" rx="14" ry="88"/><ellipse cx="203" cy="43" fill="#ffe7b3" rx="13" ry="9"/><path fill="#fff1b8" d="M42.3 60.5L45.7 48l28 7.5L70.3 68z"/><path fill="#d8a17a" d="M173.3 78.1l1.6 37.5 18.2-19.9-31.9 1.5z"/><path fill="#c78054" d="M67.6 133l-15.7 6.6L30.4 89l15.7-6.6z"/><path fill="#381e10" d="M181.7 40l8.4 53.9.8-67.5 46.2 1.6z"/><ellipse cx="241" cy="187" fill="#1d2b2f" rx="26" ry="65"/><circle r="1" fill="#010c00" transform="matrix(4.50874 11.3631 -3.7501 1.488 225 45.4)"/><circle cx="146" cy="73" r="10" fill="#ffcf9f"/><ellipse cx="124" cy="109" fill="#988e6c" rx="31" ry="12"/><path fill="#091115" d="M45 102l70 17-14 34z"/><circle r="1" fill="#352816" transform="matrix(4.07913 2.01092 -6.80846 13.81088 129.1 73.4)"/><circle r="1" fill="#509280" transform="rotate(-87.1 113 75.3) scale(38.78145 5.09167)"/><path fill="#6d4632" d="M206.8 113.2l-35.6-40.8L243 46.5l-52.1 8.8z"/><path fill="#2b1d10" d="M75.5 21.6l4.9 59.6 8.4-22.6-34.3-12z"/><path fill="#c77d60" d="M199 105h16v30h-16z"/><path fill="#ae7e6a" d="M-12 98l109 5L-6 51z"/><circle r="1" fill="#9f8c64" transform="matrix(-24.14539 -5.2123 10.11892 -46.87475 255 44.4)"/><path fill="#151819" d="M194.8 110.6l-9.8 35.9-38.3-24.8 43.3-15.8z"/><path fill="#a52a2e" d="M101 178l33-39-20-27z"/><circle r="1" fill="#c8775a" transform="matrix(-10.95849 -11.01527 5.50865 -5.48025 154.5 134.4)"/><circle r="1" fill="#2b373a" transform="matrix(2.25246 -27.49448 13.54896 1.10999 237.4 113.6)"/><circle r="1" fill="#743f3a" transform="matrix(18.28646 -24.28717 12.13785 9.13891 68 18)"/><path fill="#ffaa81" d="M77.8 80l-1.5 7.8-50-9.7 1.4-7.9z"/><path fill="#1e5554" d="M63 124h17v34H63z"/><path fill="#cac9f8" d="M185 189h32v15h-32z"/><path fill="#4c2b12" d="M197 90h23v14h-23z"/><path fill="#191117" d="M168.5 219l2.4-38.3 4.3-20.6 15.7 16z"/><path fill="#572a19" d="M51.5 74.1L92 67.4 72.8 81.1l-18.7-19z"/><path fill="#824b37" d="M230.2 78.2l-36.5-.7 36.4-26.8-27.7 1.9z"/><circle r="1" fill="#0a0c08" transform="rotate(20.4 -83.6 452.3) scale(13.1722 7.83266)"/><path fill="#eccda9" d="M19.8 21.7L16 9.3l16.2-5L36 16.7z"/><path fill="#b49279" d="M139.2 50.1L89.9 10.4 85.5 85l31.1-4.1z"/><path fill="#ffb68c" d="M77 55l-2 14-20-21z"/><path fill="#d8c3a1" d="M5.6 62.7l-2 14.6 24.7-15.1-44.3-5z"/><path fill="#754647" d="M22.1 94.6l6.5-8.8L1.3 99.5l11.6-36.9z"/><path fill="#3a3b3f" d="M231.4 173l39.6-66.6-73.3 32 37.5-25.4z"/><path fill="#ffa87e" d="M163.2 140.1l-10.5 14.6-17.9-11.8-11.9-21.5z"/><path fill="#724333" d="M135 83h27v7h-27z"/><circle r="1" fill="#665c51" transform="matrix(-40.28094 13.52524 -.9925 -2.95587 115.8 10.8)"/><circle r="1" fill="#c3c3ea" transform="matrix(9.17517 -1.07163 5.41788 46.38717 200 160)"/><path fill="#ccb191" d="M169 62h7v28h-7z"/><path fill="#797969" d="M95 86h32v30H95z"/><ellipse cx="138" cy="90" fill="#f29f78" rx="11" ry="24"/><path fill="#5f4f3b" d="M12-16l2 32-12 8z"/><ellipse cx="165" cy="169" fill="#af383b" rx="8" ry="30"/><path fill="#894f34" d="M57.3 82.9l18.6 4.3 11.8-15.3L53 126.7z"/><path fill="#5f553f" d="M-1.1 47.4l6.8-19.5L26 61.8l50-30.5z"/><path fill="#ffbc99" d="M203 36h6v32h-6z"/><path fill="#a8a288" d="M50.6 60.1L36.7-16l-8.3 70.7 18.3-16.3z"/><path fill="#15120f" d="M169.5 159.6l12.3-26-44.1-14.1 31.6-12.2z"/><path fill="#22333c" d="M12.7 104.4l19.7-7.2 9 24.4-19.8 7.2z"/><path fill="#ffcda2" d="M220.4 120.4l.4 2.5-15.3 3.1-4-17.1z"/><path fill="#070809" d="M59 215l50 1-11-78z"/><path fill="#37251a" d="M59.4 31L37.6 66.7l-6.8 8.9-2.1-18z"/><path fill="#19110c" d="M201.3 29.9l-11.5 2.2-3.8 40.1-.9-25.7z"/><path fill="#ffbd8d" d="M51.8 76L33 99.4l10.2-38.8 6.7 13.5z"/><path fill="#2a2f37" d="M253.6 106.4l-40.6 5.3 19.7 5.3-3.2-34.9z"/><path fill="#603c29" d="M190.9-4.6l21.7 14.1 16 32.5-15.6-6.8z"/><path fill="#0e2628" d="M75.8 150.8l-21.9 2.3-1.7-16 21.9-2.2z"/><path fill="#8a5b40" d="M151 118l-22-7 32 25z"/><ellipse cx="52" cy="55" fill="#ffdfa3" rx="8" ry="9"/><path fill="#843f3d" d="M100 55.7l4.5-5.2 13.6 11.8-4.6 5.2z"/><path fill="#c48e66" d="M55 146.3l-14.6-3.6 20.9-13-32.1-40.8z"/><circle r="1" fill="#796759" transform="rotate(-73.7 59.7 -33.2) scale(6.62188 25.42957)"/><path d="M162 91l7-10-8-21z"/><path fill="#6c5246" d="M171 104h-35l60-25z"/><path fill="#00050c" d="M63 104h25v12H63z"/><circle r="1" fill="#6d574b" transform="matrix(6.61014 -77.59105 .9964 .08488 105 156.8)"/><path fill="#b4a388" d="M118 116.2l6.3-13.2-44.8-20.3 5.2-6.1z"/><path fill="#050b16" d="M3 211.5l24.6-19.6-2.2-22.4-41.4 41z"/><path fill="#cbb394" d="M107.5 23l37.6 6-.6 4-37.6-6z"/><path fill="#578373" d="M71.4 126.5l-14.7 6.2.5 7.1 19.3-7.2z"/><path fill="#767086" d="M208 135l-10-28-1 18z"/><path fill="#e45553" d="M115.9 207.3L120 192l30-23.8-47.5-1.6z"/></g></g></svg>