<svg xmlns="http://www.w3.org/2000/svg" viewBox="0 0 1400 933"><defs/><filter id="a"><feGaussianBlur stdDeviation="12"/></filter><rect width="100%" height="100%" fill="#603a58"/><g filter="url(#a)"><g fill-opacity=".5" transform="translate(2.7 2.7) scale(5.46875)"><circle r="1" fill="#c4d5bb" transform="matrix(-227.40837 115.37085 -40.912 -80.64197 149.3 103.5)"/><circle r="1" fill="#f4e2c9" transform="matrix(-70.78582 6.19296 -1.8914 -21.61876 87.7 85.2)"/><circle r="1" fill="#233b6b" transform="matrix(-21.81143 10.64008 -17.33907 -35.5439 192.9 66.2)"/><circle r="1" fill="#712859" transform="matrix(-47.21175 4.53622 -2.50304 -26.05099 73.9 33.1)"/><ellipse cx="176" cy="169" fill="#2e436d" rx="148" ry="12"/><path fill="#cad5c3" d="M64 129h105v24H64z"/><ellipse cx="157" cy="10" fill="#c6b19e" rx="42" ry="20"/><ellipse cx="238" cy="125" fill="#101640" rx="33" ry="7"/><path fill="#d9e0ca" d="M61 101L39 73l-53 3z"/><ellipse cx="236" cy="96" fill="#574b57" rx="78" ry="11"/><path fill="#d9b3a4" d="M154 36L70 60l-18 71z"/><circle r="1" fill="#6f5254" transform="rotate(-104.3 43.4 55.8) scale(38.19133 19.31793)"/><path fill="#cdc3a9" d="M49 137h52v28H49z"/><circle r="1" fill="#664151" transform="rotate(162.9 21.3 68.6) scale(30.63338 6.02489)"/><path fill="#9bbcb6" d="M170 150h86v9h-86z"/><circle r="1" fill="#effdf4" transform="matrix(33.90254 -3.38392 .63213 6.3331 116.4 84.2)"/><circle r="1" fill="#c1ccac" transform="matrix(-34.85861 6.52726 -1.67514 -8.94603 199.8 115.6)"/><ellipse cx="38" cy="40" fill="#813965" rx="99" ry="15"/><ellipse cx="134" cy="108" fill="#8f7765" rx="53" ry="14"/><path fill="#526c9b" d="M144 35h41v35h-41z"/><path fill="#48556d" d="M104 154l30-30-23 49z"/><ellipse cx="32" cy="160" fill="#565c6f" rx="39" ry="6"/><path fill="#db4295" d="M17 45l-33-25v63z"/><ellipse cx="238" cy="23" fill="#7a545f" rx="40" ry="9"/><circle r="1" fill="#556371" transform="rotate(-62.1 222.4 -103.7) scale(9.57343 23.29126)"/><path fill="#373960" d="M236 92l28 58-4-55z"/><path fill="#e4bdb7" d="M120 0h5v76h-5z"/><circle r="1" fill="#51334b" transform="matrix(5.56318 7.95813 -27.2444 19.04536 91.4 38.6)"/><ellipse cx="255" cy="3" fill="#d7a995" rx="62" ry="10"/><circle r="1" fill="#c2c4b6" transform="rotate(-13.7 628.7 -73) scale(29.2912 6.50739)"/><ellipse cx="24" cy="5" fill="#3e3144" rx="29" ry="36"/><path fill="#d2e2e1" d="M144 133l42 21-61-6z"/><ellipse cx="130" cy="12" fill="#8f3d64" rx="6" ry="35"/><path fill="#b2ab9a" d="M170 69l-53 34 79-25z"/><path fill="#b0a49a" d="M217 40h25v49h-25z"/><path fill="#e0dbc6" d="M70 141.6l17.1-12.7 19.7-5.8 11 4.3z"/><circle r="1" fill="#734869" transform="matrix(-14.17301 -15.11054 34.0696 -31.95577 51.7 41.3)"/><ellipse cx="204" cy="169" fill="#3e4164" rx="37" ry="13"/><path fill="#756965" d="M100 98.9l33.1 34.8 74.7 6-34.2-5.2z"/><path fill="#36446f" d="M203.5 101.7l-21.6-69.4 39.6 26.6-10.6 29.6z"/><ellipse cx="79" cy="73" fill="#b58f83" rx="54" ry="7"/><path fill="#242249" d="M32 165h40v5H32z"/><path fill="#8a9ebe" d="M143 37l54 24-45-4z"/><ellipse cx="155" cy="61" fill="#4a4667" rx="23" ry="5"/><path fill="#ad9d8a" d="M236.8 99.7l-36.8 3.2-10.3-9.7-12.9 25.2z"/><path fill="#bebaaa" d="M120.7 139l-26.2-30 6.8-6 26.2 30.2z"/><path fill="#b1a795" d="M25 104l74-15-54 32z"/><circle r="1" fill="#d6ded2" transform="matrix(.71665 -4.14896 38.91 6.72092 43.3 85.3)"/><path fill="#a1407a" d="M41.4 45L76 18l8.6 11L50 56z"/><path fill="#755669" d="M51.4 139.7l16.5-9.5-30-2.9-53.9 18.3z"/><path fill="#282d54" d="M206 126l-18 6h31z"/><path fill="#e8b9aa" d="M152.8 49.8L137.5 40l-28.7 27.9L154.4 47z"/><path fill="#364850" d="M54 56l-64 24 21-22z"/><path fill="#504e5c" d="M199.6 71.7L232.4 97l-69.8-12.6 16.1 24.2z"/><ellipse cx="153" cy="159" fill="#6d7387" rx="55" ry="5"/><path fill="#a2887c" d="M178.6 34.7l68.9 13.2L233 28.2l-87.6-4.8z"/><path fill="#e4e6db" d="M98 76h56v11H98z"/><ellipse cx="208" cy="148" fill="#2d3550" rx="24" ry="2"/><path fill="#9d9a8b" d="M235 133h21v27h-21z"/><path fill="#828986" d="M215 135l-44 13-14-22z"/><circle r="1" fill="#c6d1be" transform="matrix(-.53868 -3.44734 22.94511 -3.5854 182.7 120.4)"/><path fill="#9d7e72" d="M39 140.2L-13.1 88l14-14.2L53.2 126z"/><path fill="#745d59" d="M40.5 142.7l13.7 11.8-16.4 16.4 6.9 14.1z"/><path fill="#464866" d="M17.3 135.4L-16 147.6l64.1 19L.3 159z"/><ellipse cx="173" fill="#a9aca0" rx="42" ry="18"/><path fill="#bcb6a6" d="M67 134h33v32H67z"/><path fill="#913e6d" d="M108.7 41.8l1.6-46 11 .4-1.6 46z"/><ellipse cx="206" cy="153" fill="#bed1cb" rx="25" ry="3"/><path fill="#88a5b2" d="M32 166l-48-12 27 31z"/><path fill="#47547c" d="M107.7 143l-12.2 33.5-32-8.4 57.4-6.3z"/><path fill="#cbcbbe" d="M35 112L15 75l62 11z"/><path fill="#6c6e76" d="M101 134h22v5h-22z"/><circle cx="85" cy="93" r="4" fill="#465d75"/><path fill="#394974" d="M174 33l48.5 23.4-15.6 2.4-33.2-10z"/><path fill="#6f8baa" d="M210 64l7 17 8-26z"/><path fill="#5d5c6e" d="M141.5 62.4l68.1 5.4-85.1-.4-7 10.9z"/><path fill="#464e74" d="M242 99l29 13-49-6z"/><path fill="#c2bca8" d="M34.6 163.3l-2.1-19.9 7-.7 2 19.9z"/><path fill="#553a4e" d="M86 0h19v53H86z"/><path fill="#705360" d="M98.1 101.1l-48.5 31.2 16.4.5 28.6-23.5z"/><path fill="#555764" d="M220 150h29v3h-29z"/><path fill="#7e8794" d="M136.5 161.5l-23.7-15.3 46.6 11.4-58 27.4z"/><path fill="#cca999" d="M134 43L64 63l21 27z"/><path fill="#bec3af" d="M246 110l-5 9-28-9z"/><path fill="#a8998c" d="M99.1 118.2L146.5 90l-38.1 5-29 29z"/><path fill="#a5afa2" d="M230.8 146.3l-5.6-16.9 13.9 4.3-23.4.4z"/><circle cx="154" cy="84" r="6" fill="#e2e4d3"/><path fill="#e1e6de" d="M92.2 97l-2.9-14.8 26.5-5.1 2.9 14.7z"/><path fill="#6a7174" d="M16.4 74.7L51 55.1 74 58 39.3 73.5z"/><path fill="#a16463" d="M144 65.5l4-16.9-12.3 3.8-5.3 10.4z"/><path fill="#9e8a7b" d="M46.3 163.7l20.8-22.9-1.5 3.6-2.7 20.6z"/><path fill="#675559" d="M8.2 88.2l7.4 26-5.8 1.6-7.4-26z"/><path fill="#985872" d="M136.5 35.9l20.6-1.7-32.8 13.9-.6-63.2z"/><path fill="#b89787" d="M199 113l33-12-12-5z"/><path fill="#4b3b50" d="M197.9 98.7l6.8-35.3 11.6 28.3-14.8 16.8z"/><ellipse cx="247" cy="12" fill="#aa7b7b" rx="54" ry="5"/><path fill="#393e67" d="M189 185l37-20-82-1z"/><path fill="#2a3c6c" d="M30.7 163.3l-16-1.6.6-5 16 1.6z"/><path fill="#c8c8b9" d="M125.1 128.9l-25.3-3.5-6.4 4.9 47.9 9.8z"/><path fill="#aa9a87" d="M26.6 92.9l-40.1-20.6 22.7 47.4-11.9-47.6z"/></g></g></svg>