<svg xmlns="http://www.w3.org/2000/svg" viewBox="0 0 1400 933"><defs/><filter id="a"><feGaussianBlur stdDeviation="12"/></filter><rect width="100%" height="100%" fill="#483653"/><g filter="url(#a)"><g fill-opacity=".5" transform="translate(2.7 2.7) scale(5.46875)"><circle r="1" fill="#e8b7bb" transform="matrix(65.30329 223.31983 -127.40771 37.25662 143 80.3)"/><circle r="1" fill="#fffff8" transform="matrix(-30.78523 46.5114 -20.96246 -13.87475 90.8 169)"/><circle r="1" fill="#6d4764" transform="rotate(46.4 -92.6 90) scale(67.473 54.27489)"/><circle r="1" fill="#2c2043" transform="matrix(14.35847 29.30928 -14.33519 7.02274 245.5 144.4)"/><circle r="1" fill="#422b59" transform="rotate(130.9 72.2 85) scale(46.38254 14.70271)"/><path fill="#ffebe1" d="M158.7 148.7l46.1-39.7-30.5-6 5.5-2.1z"/><circle r="1" fill="#d8b6b5" transform="matrix(-5.81126 -7.56397 64.47936 -49.53834 110.2 80.8)"/><path fill="#f7dfcd" d="M48.6 8.3l-25 37.3L9.2-1.2l116.5.2z"/><path fill="#f7e8d9" d="M247 58l5 53-42-69z"/><path fill="#fff4da" d="M21 157h82v10H21z"/><path fill="#6b4463" d="M176 5h80v41h-80z"/><path fill="#fffff2" d="M148 152h53v9h-53z"/><path fill="#d3abb3" d="M182 80L161-4l-55 3z"/><ellipse cx="27" cy="129" fill="#694b67" rx="65" ry="29"/><path fill="#ffffe6" d="M83.2 150.4l21-35.2 20.6 12.4-21 35.2z"/><path fill="#361c4e" d="M120 91l37-10-3-26z"/><ellipse cx="138" cy="125" fill="#c87787" rx="21" ry="31"/><circle cx="72" cy="44" r="40" fill="#875771"/><path fill="#5d3e5d" d="M129 158.2L64.8 185H124l51.4-25.1z"/><path fill="#fff8d8" d="M120.2 85.8l-13.9-17 15.5-12.6 13.9 17z"/><ellipse cx="112" fill="#fafeeb" rx="82" ry="3"/><circle r="1" fill="#ecd8ca" transform="matrix(-.0421 -1.50713 48.29497 -1.349 99.5 17.4)"/><path fill="#4a2d55" d="M188 107.4l-27.8 8-8.3-28.8 27.9-8z"/><path fill="#e1cac1" d="M237.4 100l-.8-12.5-21.1-4.7-20 4.7z"/><path fill="#976579" d="M28 94l183-70-137-2z"/><path fill="#90566d" d="M237.1 53.8l2.9 21.6-24 30.4 14-37.1z"/><circle r="1" fill="#d1c5c5" transform="matrix(-.52252 -1.59572 28.0967 -9.20019 194.8 69.4)"/><path fill="#ecd1cd" d="M183.3 105.8l31.2 11.9-45.5-3.9 31 71.2z"/><path fill="#912855" d="M147 148l-29-30 73 36z"/><path fill="#1d0b37" d="M201.6 147.5l23.3-13.5 1.5 2.5-23.3 13.5z"/><path fill="#553758" d="M258 17l6 91-34-91z"/><path fill="#392451" d="M228 84l-10-32-8 20z"/><path fill="#5c3c5b" d="M83 61h20v23H83z"/><path fill="#54425e" d="M245.3 185l.9-102.6L240 103l-12.7 44.4z"/><path fill="#faffe5" d="M143 153l-2-13-17-7z"/><ellipse cx="234" cy="14" fill="#d6c2b5" rx="52" ry="2"/><circle r="1" fill="#b5868c" transform="matrix(21.94909 43.83132 -16.14371 8.08417 5.7 0)"/><path fill="#ffffea" d="M223 156.7l-6.7-2 4.7-15.4 6.7 2z"/><circle r="1" fill="#c399a2" transform="matrix(-65.05386 -10.71744 .45404 -2.75598 221.4 46.6)"/><path fill="#200b37" d="M223 185l-18-4 25-30z"/><path fill="#4a2b56" d="M215 58l-27-15-5 28z"/><path fill="#f0e7da" d="M251.7 71.2l-12.2 7.5 17.5 27-16.2 17.5z"/><ellipse cx="12" cy="93" fill="#6a4a65" rx="36" ry="56"/><path fill="#aa818e" d="M88 139L76 75l-29 7z"/><path fill="#ffffef" d="M239 47l-14 21-4-19z"/><path fill="#422c55" d="M161 9h24v11h-24z"/><path fill="#ddc2cb" d="M160.1 32.6L153.9-16l-1.3 60.9 29.6 25z"/><path fill="#3c264b" d="M208.6 105.3l.2 12.3 34.2 24.9.6.4z"/><path fill="#e2d8c8" d="M43 157h62v13H43z"/><path fill="#dbcaca" d="M251 147h5v16h-5z"/><circle r="1" fill="#e1d3cf" transform="rotate(70.1 11 147.8) scale(1 103.54683)"/><path fill="#5e4b63" d="M75.6 117.4l52.7-22.3 6.7-3.6-10.1 20.1z"/><path fill="#d4b5ac" d="M153.4 75.4L143 107.5l14.4 4.7-42.3 7.1z"/><path fill="#e9ccc2" d="M115.1 95.9l-43.6-1.8 31.9-11.2 4.1-1z"/><circle cx="191" cy="158" r="9" fill="#f8f6d9"/><circle r="1" fill="#b88891" transform="rotate(85.3 -21.4 44.6) scale(3.61466 53.73634)"/><path fill="#fffff8" d="M177 112l31 3-2-8z"/><path fill="#f8efda" d="M165 152l-11-2-13 18z"/><path fill="#633e63" d="M144 119.4l88.5-30.6-62.1 5.2-4.1 38.1z"/><path fill="#c4b9b2" d="M208.6 3.6l52.6 1-17.7-14.9-122 17.1z"/><path fill="#765472" d="M47 7h105v6H47z"/><path fill="#fff" d="M156 168h22v2h-22z"/><path fill="#72526c" d="M60.9 109.3l28.8-15.2-1.1 19.3 136.1-11.1z"/><path fill="#845673" d="M20.9 160.9l-36.9 5.4L64.8 185h41z"/><path fill="#fefff5" d="M199 86h51v3h-51z"/><circle cx="56" cy="83" r="4" fill="#ffffe8"/><path fill="#f2f4fb" d="M147 50.1l22.2-2.9-19.9 6.3-30.8 35z"/><path fill="#583c68" d="M217 152.4l-34.6-4.9.5-4 34.7 5z"/><ellipse cx="243" cy="74" fill="#ffffec" rx="4" ry="15"/><path fill="#ec7d94" d="M125.3 114l4.2-5.5 39.2 29.4-4.2 5.6z"/><circle r="1" fill="#976f78" transform="matrix(8.0491 -6.57461 2.45267 3.00273 122.7 141)"/><ellipse cx="234" cy="96" fill="#c49da0" rx="5" ry="24"/><path fill="#c88089" d="M181 41l2-23-38 27z"/><path fill="#ffecf7" d="M163 61l8-11-9-8z"/><path fill="#906177" d="M159.4 36.1l4.3 3.7L140.6 23l-9.2 44.1z"/><circle r="1" fill="#fdede7" transform="matrix(-12.71243 8.47813 -.55484 -.83195 190.1 136.4)"/><circle r="1" fill="#d3b2a9" transform="matrix(5.20045 9.51892 -3.86001 2.10883 219.7 107.3)"/><path fill="#f9f6e2" d="M92.1 136.8l4.1 4.4-34.3 32-4.1-4.4z"/><path fill="#ab4a6f" d="M177 141l30-19-17-9z"/><path fill="#fff" d="M181 142h23v2h-23z"/><circle r="1" fill="#664971" transform="rotate(-95.4 107.4 -34.2) scale(13.65041 10.24339)"/><path fill="#b7a2a0" d="M93.2 148.6L75 185l-7.3-4.8 17.6-31.7z"/><path fill="#fbe1d3" d="M187 130l-12-17-11 25z"/><path fill="#684463" d="M45.9 34.1l48.5-8.5-56.2-.9-3.5 29.4z"/><circle r="1" fill="#dfd4c7" transform="rotate(-73.1 213 -49.1) scale(20.85644 1.89841)"/><path fill="#493451" d="M215 140l56-37-26 36z"/><path fill="#ecd4c1" d="M219 18l-6-6 18 1z"/><ellipse cx="33" cy="146" fill="#4b3655" rx="43" ry="4"/><path fill="#ffffe9" d="M211 152h3v12h-3z"/><circle r="1" fill="#bdafb0" transform="matrix(-35.25002 14.07231 -.37076 -.92873 221.7 153.5)"/><path fill="#5f2f50" d="M214 44h16v4h-16z"/><path fill="#433357" d="M203 162l6-18v23z"/><circle r="1" fill="#63425f" transform="matrix(-2.48408 .63124 -4.20622 -16.55257 226.8 107.1)"/><circle r="1" fill="#c29c9d" transform="matrix(10.04314 -5.09435 6.80769 13.42086 21.5 28.4)"/><path fill="#e4e0e7" d="M189 40l21 3-10 2z"/><path fill="#663955" d="M262 103l-7.9 1.5-6-31.4 7.8-1.6z"/><path fill="#bb98a0" d="M107.4-10.4l-16 16.6 27.9 2.9-9.9 22.1z"/><path fill="#fff" d="M155 25l3-10-6-3z"/><path fill="#f0e6ce" d="M96 163h28l2-13z"/><path fill="#fffff6" d="M252 137h4v3h-4z"/></g></g></svg>