<svg xmlns="http://www.w3.org/2000/svg" viewBox="0 0 1119 1400"><defs/><filter id="a"><feGaussianBlur stdDeviation="12"/></filter><rect width="100%" height="100%" fill="#353579"/><g filter="url(#a)"><g fill-opacity=".5" transform="translate(2.7 2.7) scale(5.46875)"><circle cx="114" cy="83" r="121" fill="#cca998"/><ellipse cx="48" cy="114" fill="#ffdaea" rx="40" ry="41"/><path d="M166.4 61l-58 1-.8-51 58-1z"/><circle r="1" transform="rotate(138.2 37.8 111.3) scale(16.41707 84.40042)"/><circle r="1" fill="#ffe8f3" transform="rotate(102.8 29.6 102.8) scale(32.29136 36.97357)"/><ellipse cx="63" cy="63" rx="79" ry="10"/><circle r="1" fill="#ffdded" transform="matrix(-6.98227 16.94025 -46.14762 -19.02068 72.9 25.8)"/><circle r="1" transform="matrix(-12.56236 -10.98475 30.727 -35.13995 193.3 100.6)"/><circle cx="97" cy="229" r="29"/><path fill="#ffe9d8" d="M191 238.6l-3.3 37.9-58.7-5.1 3.3-37.9z"/><ellipse cx="79" cy="173" fill="#f7d1e1" rx="42" ry="26"/><path fill="#ffffec" d="M60.5 221.6L77 236.4l-23.4 26L37 247.6z"/><path d="M5.7 137.4l41.6 26-17 27.2-41.6-26z"/><path fill="#f7bbd6" d="M137 150l82 60v-91z"/><path d="M65 224l25 47 52-97z"/><circle r="1" fill="#121e64" transform="matrix(-23.04126 38.02037 -25.85154 -15.66665 14.6 58.6)"/><path d="M17.9-16L109 22.2l30.5 28.6L90.1-16z"/><ellipse cx="200" cy="44" fill="#ffedf7" rx="41" ry="13"/><ellipse cx="115" cy="139" rx="33" ry="11"/><circle r="1" fill="#00010b" transform="rotate(173.8 89.3 16.7) scale(74.40748 7.51381)"/><path fill="#020800" d="M15 192h61v20H15z"/><path fill="#ffc8bc" d="M24.1 182.7L-9 219.3l-2.2-35.8 17.1-5.7z"/><path fill="#ffe7f9" d="M197-13l22 33-55-8z"/><path fill="#08153e" d="M172 57h32v69h-32z"/><path fill="#e4baca" d="M10.9 83.2l54.2-6.6 39 2.9-29.8 52.1z"/><path d="M101 57l-76 1 78 22z"/><circle r="1" transform="matrix(19.20289 -10.58271 6.40179 11.61638 20.1 248.8)"/><ellipse cx="60" cy="253" fill="#eae2c8" rx="7" ry="54"/><circle r="1" fill="#e0bacc" transform="rotate(10.3 -437.1 879.3) scale(26.18953 31.99005)"/><circle r="1" transform="matrix(8.482 -.25803 .77543 25.48998 98.5 126)"/><path fill="#e7bbcf" d="M196.9 23.6l-11.7 4.9 5.9 44L219 21.8z"/><ellipse cx="135" cy="51" rx="24" ry="12"/><circle r="1" fill="#eeb6ce" transform="matrix(-5.82208 -15.75346 17.96525 -6.6395 .8 122.4)"/><path d="M45 202l-13-34-48 78z"/><circle r="1" fill="#4250af" transform="rotate(23.3 48.2 330.1) scale(25.94949 12.89122)"/><path fill="#ffffe6" d="M17 227l21-6 4-11z"/><circle r="1" fill="#131d48" transform="matrix(13.8984 -5.80706 19.493 46.65378 146 193.5)"/><ellipse cx="59" cy="9" fill="#e9c2d2" rx="13" ry="37"/><path fill="#040e30" d="M76 63.4l41.3 1-68.6-23.5-24.8-9.7z"/><path fill="#000300" d="M130.8 241.6l-65.9-48.8-4.7 9.9L81.9 271z"/><circle r="1" transform="matrix(2.59304 6.10882 -34.28323 14.55237 180 123)"/><path fill="#faf2ff" d="M212.8 80.7l5.2 12.5-31.3 6 8-4.9z"/><path fill="#010500" d="M142.9 185.8l60.3 28-13.3-31.3-23.2 44.3z"/><path fill="#dab3c5" d="M177.7 111.6l-57-7.6-37.2-9 45.6-37z"/><path fill="#51558e" d="M121 235l30-32-11-71z"/><path fill="#e9c4c8" d="M116 252h79v4h-79z"/><path d="M130 29L91-11 73 3z"/><path fill="#f6f2db" d="M167 243l28-12-25 31z"/><path fill="#f8f3ec" d="M30.2 35.8l2.9-2.8 16.7 17.2-2.9 2.8z"/><path fill="#e2c8db" d="M162 33h9v31h-9z"/><path fill="#00063c" d="M219 227.8l-8.2 19.6-26.2 6.3 1-10.6z"/><path d="M161.6 28.1l3.4-13.6 21.4 5.4-3.4 13.6z"/><circle cx="25" cy="165" r="17" fill="#000718"/><path fill="#000831" d="M151.7 161.6l-50.9 39.3 14.2 5.3 45.3-29.7z"/><path fill="#13120d" d="M24.9 3.1L9.3 13.5l-14.8-19L49.2 2z"/><path fill="#caa5bc" d="M46 184l56 21L65 72z"/><path fill="#a29fa9" d="M155.8 207l-.3 11.6-15.4-23.2-2-13.9z"/><path fill="#caa7bf" d="M45 152h74v14H45z"/><circle cx="181" cy="59" r="6"/><path fill="#ddc2c2" d="M140 232l-18-7 25 31z"/><circle r="1" fill="#e7cdd2" transform="matrix(-30.8326 4.87928 -1.91768 -12.11799 74.8 29.2)"/><path fill="#cd9eb9" d="M13 83h28v62H13z"/><ellipse cx="45" cy="225" fill="#020911" rx="8" ry="12"/><ellipse cx="4" cy="63" rx="23" ry="6"/><path fill="#7b7c9d" d="M60.7 210.9l.4-14.3-18.3 13.3-34.3 21.7z"/><path fill="#c7a6bf" d="M54.6 70.7l33.5 7.2 5.6 36-19.1 1.4z"/><path fill="#0d165b" d="M-16 106.6l36.2-4-5.8-3.2L9 84.9z"/><path fill="#f7d3e2" d="M19 16l19 1L21 2z"/><ellipse cx="55" cy="250" fill="#dfd6c7" rx="14" ry="17"/><path d="M140.2 142L130 160.3 89.8 138l10.2-18.3z"/><path fill="#161b68" d="M174 87l45-9-51-13z"/><ellipse cx="193" cy="179" fill="#dfcbca" rx="25" ry="5"/><circle r="1" transform="rotate(62.9 3.6 121.8) scale(6.11696 30.11368)"/><path fill="#d4b4ca" d="M124.3 37.1l-85.7-7.8 63.6 24.6 30.9-19.8z"/><path fill="#090f27" d="M168 17l-7 28-5-61z"/><path fill="#ffffe3" d="M139 209l-1 11-6 2z"/><path fill="#2d326f" d="M164.9 241.5l-7.8-14 56-31 7.8 14z"/><path fill="#353aa3" d="M72.9 67.1l10-12.7-6-8.8-23.1 27.8z"/><path fill="#030500" d="M96 246l14-50 25 55z"/><path fill="#d4dbd5" d="M87 204.1l-48.6-30.5 45.7 21.6 22.3.4z"/><path fill="#d5b4c3" d="M156.7 128.2L137 132l-36.1-58.5 66.7-15.6z"/><path fill="#d4bac7" d="M151 139l31-4-39 28z"/><path fill="#b683a7" d="M209.4 131.9l-61.1 12.5 63.4 63.1-13-1.2z"/><path fill="#8c8cbb" d="M35.2 62.4l1.5 3.7-30 11.5-1.4-3.7z"/><path d="M152.9 161.4l-8.8 17.5.2 2.5 26.6 2z"/><path fill="#080800" d="M193.9 73.8l3.4 23-16.4-2.7-4.3-6.9z"/><circle r="1" fill="#262c76" transform="matrix(39.95261 -9.7276 3.12416 12.83134 7.6 36.2)"/><path fill="#ebf6de" d="M40 179h28v10H40z"/><path fill="#020401" d="M168 110h36v16h-36z"/><path fill="#a19ebe" d="M149.2-2.7l11 24.3-3.4 2-8.3-4z"/><circle r="1" fill="#040d2e" transform="matrix(-4.48663 -4.1267 8.47206 -9.21098 125.4 161.5)"/><path fill="#f7f3d9" d="M189 231l1 7 9-5z"/><path fill="#010300" d="M157.3 190l38.1 10.6-16.9 13.7-22.7 5.2z"/><path fill="#c398b0" d="M171.2 229.8l11.3 10.2-148.2 31h134.9z"/><path fill="#0f1b88" d="M142.5 147.3l-6.6-6.2 11.6-12.4 6.6 6.2z"/><circle r="1" fill="#e8f4e2" transform="matrix(-5.29317 -5.90495 13.30244 -11.92424 49.3 98.9)"/><path fill="#c28eb0" d="M62 74l-49 43 31-48z"/><path fill="#000308" d="M68 7l32 7 5-30z"/><circle r="1" transform="matrix(-22.59464 9.31284 -3.23726 -7.85418 15.5 255)"/><path fill="#03090c" d="M142.8 31.2l-21.3 3-12.1 1.9 5.2-28.3z"/></g></g></svg>