<svg xmlns="http://www.w3.org/2000/svg" viewBox="0 0 1400 1120"><defs/><filter id="a"><feGaussianBlur stdDeviation="12"/></filter><rect width="100%" height="100%" fill="#28324d"/><g filter="url(#a)"><g fill-opacity=".5" transform="translate(2.7 2.7) scale(5.46875)"><circle cx="103" cy="150" r="234" fill="#fff"/><circle r="1" fill="#fffff1" transform="rotate(100.9 20.5 90.7) scale(235.91914 118.65432)"/><circle r="1" fill="#000006" transform="rotate(-108.9 66.5 -11) scale(12.11351 61.291)"/><circle r="1" fill="#262721" transform="matrix(12.07 -22.47727 9.15872 4.9181 48 87.2)"/><circle r="1" fill="#fffbef" transform="matrix(-32.49697 -34.12518 40.22509 -38.30583 255.1 194.7)"/><circle r="1" fill="#fff" transform="rotate(-50 121.2 -233.7) scale(70.35237 25.20434)"/><path d="M59.8 55.2l120.9 26.9L271 93.9l-56.9-14.1z"/><circle r="1" fill="#fffffc" transform="rotate(105.3 -2 36.4) scale(150.32054 17.28157)"/><ellipse cy="25" fill="#ff1800" rx="26" ry="19"/><circle r="1" transform="matrix(.41165 33.69243 -4.4138 .05393 246 115.4)"/><path d="M238.5 40h33v22h-33z"/><path fill="#fff9f5" d="M245 141L51 117l18-60z"/><circle r="1" fill="#fff" transform="rotate(102.4 -2 165.6) scale(14.512 252.15651)"/><path fill="#fff" d="M271 96L179-16l5 72z"/><ellipse cx="231" cy="105" rx="4" ry="23"/><circle r="1" fill="#fffffb" transform="matrix(9.67529 26.74873 -52.75347 19.08147 82 10)"/><path fill="#200746" d="M163 22h9v29h-9z"/><path fill="#645d7b" d="M164.7 117.5L147.2 13.4 166 20l-28.7 23.6z"/><path fill="#fff3e0" d="M56 192l-51-8L52 84z"/><path fill="#06171e" d="M73.4 45.4L123.7 23l6.9 15.6L80.3 61z"/><path d="M41.1 107l-6.7-1.9 14.5-54 6.7 1.8zM241 92h10v50h-10z"/><path fill="#fff" d="M235 93h6v88h-6z"/><circle r="1" fill="#fffffe" transform="matrix(13.691 4.68748 -14.08669 41.14385 14 67)"/><ellipse cx="254" cy="137" fill="#fff" rx="3" ry="76"/><path fill="#73564d" d="M122.3 108.5l10.7-6.4 6.1-28.5 2.4-15z"/><circle r="1" fill="#fff" transform="matrix(26.33187 20.87038 -11.74025 14.81251 92.7 86.3)"/><path fill="#fff" d="M282 10L164 26.7 160-2l117.8-16.5zm-70 79h16v64h-16z"/><path fill="#fffdf2" d="M3.7-16L3.4 7.8l134 25.4.2-23.1z"/><ellipse cx="108" cy="140" fill="#c3b5b0" rx="57" ry="27"/><path fill="#1d1527" d="M151.9 38.4l-108.1 19 79.8 8.4-62.1-20.9z"/><path fill="#bcaaa9" d="M237 142l-14 56-119-38z"/><path fill="#fff" d="M68.1 28l-25.3 94.7-3-.8 25.4-94.6z"/><path fill="#2059ae" d="M143 44l28-32-61 19z"/><path fill="#5a5871" d="M189 65h24v23h-24z"/><path d="M51.9 95.2l11.4-45.6 4.8 1.2-11.4 45.6z"/><path fill="#363090" d="M241 59l-7-41 17-3z"/><path fill="#fff" d="M182.4 81.5l-20.5-4.4.1 41.8 12.3-11.3z"/><path fill="#ffb1b8" d="M106.9 56.7l5-14.1 13.2 4.7-5 14.1z"/><circle r="1" fill="#fff" transform="matrix(-2.70411 7.54593 -46.99522 -16.8409 248.6 73.7)"/><path fill="#735148" d="M156 59h5v55h-5z"/><path fill="#370600" d="M209 92h2v33h-2z"/><path fill="#561800" d="M182 88v14l-8 12z"/><path fill="#fff" d="M183 93h19v45h-19z"/><path fill="#02051a" d="M135.3 73.3l65.3 8.5-58.5-13.3-88.2-15.4z"/><circle r="1" fill="#fff4e7" transform="matrix(-18.93833 63.15898 -14.82394 -4.44498 24 86.2)"/><path fill="#f9efee" d="M206 127h35v22h-35z"/><path fill="#fffefd" d="M159 0l75-16 5 96z"/><path fill="#f6f2dc" d="M84.2 44.3l-23.6-2.6 86.3-21.6L96.4-16z"/><path fill="#46150a" d="M203 87h3v25h-3z"/><path fill="#fffbfa" d="M86.4 62.9L75 62.3l48.5 54.7 8.1-46.1z"/><circle r="1" fill="#5a405a" transform="matrix(-7.5709 -.44185 .25065 -4.29473 173.6 48.2)"/><path fill="#ada4a1" d="M63.2 105.4L49 162.9l26-48.1 104.4 14.5z"/><path fill="#000d28" d="M229 85h6v42h-6z"/><path fill="#dd4027" d="M-16 32.2l51.4-8.9-6.3-2.9L-16-4.7z"/><path fill="#f3dcc5" d="M37.5 107.7l20.1 31-67 43.6-20.2-31z"/><path fill="#fffdfb" d="M139.2 78.2l-6.7 42.7 20.5-6.4 3.6-30z"/><path fill="#0d0024" d="M240 47h16v17h-16z"/><circle r="1" fill="#6f6769" transform="matrix(49.1439 9.28508 -.18565 .98262 171 137.4)"/><circle r="1" fill="#f4e7e3" transform="matrix(-7.54755 7.66269 -19.53175 -19.23828 49.8 33.5)"/><path fill="#fdffff" d="M154 29h10v25h-10z"/><path fill="#272024" d="M233 177l-42.1-9 .2-1 42 9z"/><circle r="1" fill="#000824" transform="rotate(-170.1 109.2 32.2) scale(23.25188 2.20801)"/><circle r="1" fill="#98c3a9" transform="matrix(3.73106 -7.5148 19.74381 9.8027 151 9.1)"/><circle r="1" fill="#6d6766" transform="matrix(-29.38776 -5.91197 .22505 -1.11869 82.8 140.2)"/><path fill="#000a0b" d="M62 51.2l-6 2.2-9.8 9.1-5.5 24.9z"/><path fill="#f7f4f3" d="M205.3 82.7l24.1 6.1-4.1 27.3-1.5 15.5z"/><path fill="#837776" d="M77.8 198.8l31.6 5.6 1 14.6H75.7z"/><path fill="#00000c" d="M242 93h8v52h-8z"/><path fill="#2f0f4d" d="M134 31l-20 15 39-7z"/><circle r="1" fill="#e3dcdb" transform="matrix(78.00075 17.28992 -1.09829 4.95475 116.5 133.5)"/><circle r="1" fill="#787472" transform="matrix(-27.87236 -5.92445 .35414 -1.66609 118.4 159.8)"/><path fill="#a07877" d="M165.9 58.3l-4.4 16.8-16.3-31.7-35.6-.4z"/><ellipse cx="255" cy="120" fill="#fff" rx="4" ry="36"/><path fill="#1c1320" d="M104 57l8-22-26 2z"/><path fill="#efe3e4" d="M254.3 201.8l-3-53.9-67.8-21.3 48 20z"/><circle r="1" fill="#fff" transform="rotate(8.7 87.6 1602.2) scale(23.80067 11.29058)"/><path fill="#000808" d="M53 67L39 89l4 13z"/><path fill="#9be4c0" d="M105 30l47-2-25-7z"/><circle r="1" fill="#f5ede7" transform="matrix(5.36996 -18.34498 2.17117 .63555 54.4 72.3)"/><path d="M66.8 57.9l-2.2 3.3-7.4-5 2.2-3.4z"/><circle r="1" fill="#a9c2cd" transform="matrix(.38801 -2.82388 51.4396 7.06805 184.7 73.4)"/><circle r="1" fill="#fffbf7" transform="matrix(-1.36147 11.29951 -8.16678 -.98401 174.9 62.7)"/><path fill="#fef6f6" d="M81.4 42.1L18.9 12.8 1.5 3.7l85-19.7z"/><path fill="#fef8f3" d="M18.5 48.3L-16 42.5l53.5 48.6-5.3 32z"/><path fill="#855e43" d="M186.9 84.2l-10 34.7-3.8-1.1 10-34.7z"/><circle r="1" fill="#edd8c9" transform="matrix(-1.21764 6.68214 -74.21068 -13.52286 86.7 168.6)"/><ellipse cx="238" cy="123" fill="#fff" rx="3" ry="34"/><path fill="#00304a" d="M230 83h6v24h-6z"/><circle r="1" fill="#fcf4f1" transform="matrix(2.1374 -11.15309 95.28884 18.2613 99.8 187.6)"/><circle r="1" fill="#ac8d7d" transform="rotate(12.4 -869.4 164.7) scale(31.62943 1.8471)"/><ellipse cx="130" cy="56" fill="#e0d0c8" rx="26" ry="6"/><path fill="#341a47" d="M165 24h5v25h-5z"/><circle r="1" fill="#747173" transform="matrix(-.82989 2.02133 -8.86145 -3.63822 143.5 123.9)"/><path fill="#fff1e4" d="M69 219L3 193l31-1z"/><path fill="#99767d" d="M157 77l-21-5-6 12z"/><path fill="#d92328" d="M0 36h14v8H0z"/><path fill="#a5a7ab" d="M95.1 54.8l-35-4.3-17.5-1 92.2 13.9z"/><circle r="1" fill="#524a49" transform="matrix(10.78745 3.0694 -.27367 .96182 68.5 129.5)"/></g></g></svg>