<svg xmlns="http://www.w3.org/2000/svg" viewBox="0 0 1400 787"><defs/><filter id="a"><feGaussianBlur stdDeviation="12"/></filter><rect width="100%" height="100%" fill="#383530"/><g filter="url(#a)"><g fill-opacity=".5" transform="translate(2.7 2.7) scale(5.46875)"><circle r="1" fill="#fff" transform="rotate(-175.1 57.4 40) scale(226.5381 119.99029)"/><circle r="1" fill="#fff" transform="matrix(-187.15006 -115.15208 21.93556 -35.65061 55.8 139.2)"/><circle r="1" fill="#d8b38e" transform="matrix(-62.25983 78.25178 -95.91143 -76.31046 188 35.6)"/><circle r="1" fill="#fff" transform="rotate(30.2 -209.5 130) scale(124.83471 36.00948)"/><circle r="1" fill="#584f3b" transform="matrix(-3.50668 18.63895 -31.02822 -5.83756 62.4 28.7)"/><circle r="1" fill="#7f715d" transform="matrix(-66.82644 -36.63623 9.14615 -16.68307 203.3 98)"/><circle r="1" fill="#f4efd1" transform="rotate(-55.9 55.6 -4.7) scale(11.29431 72.26005)"/><path fill="#fffbec" d="M195 41l-7 28 83-1z"/><path fill="#e9e7d5" d="M101.7 105.6l7.2-19.8 133.4 48.6-7.2 19.8z"/><path fill="#ffeddd" d="M67.5-20l68.2 37.8L124.5 38 56.3.2z"/><ellipse cx="245" cy="35" fill="#787369" rx="58" ry="15"/><ellipse cx="193" cy="3" fill="#c3d0c6" rx="59" ry="25"/><path fill="#635642" d="M212 142l-40 12-71-39z"/><circle r="1" fill="#e39772" transform="matrix(15.50285 25.19952 -32.63598 20.07779 130.8 49.4)"/><path fill="#fbfcfc" d="M198 157l-214-2 8-76z"/><path fill="#010a0a" d="M223.5 77L202 113l-3.4-2L220 75z"/><circle r="1" fill="#61604d" transform="matrix(2.47397 -4.33734 55.27762 31.5298 76.9 97.5)"/><circle r="1" fill="#fffff5" transform="rotate(124.9 59 87.2) scale(30.38024 2.84735)"/><path fill="#131917" d="M227.5 89.2L204.1 134l18.4-22.3.6-43z"/><circle r="1" fill="#d79650" transform="matrix(-33.19667 5.9288 -2.96883 -16.62312 31.3 .2)"/><path fill="#000b0c" d="M196.5 70.3l2.7 1.3-17.7 38-2.7-1.2z"/><path fill="#664746" d="M162 56l-31 41 56-38z"/><circle r="1" fill="#1d1a14" transform="matrix(2.21174 .87358 -5.60878 14.2004 209.3 31.1)"/><path fill="#00090b" d="M182 109l11-2 5-18z"/><path fill="#fff7e6" d="M193 111l20-49-1 25z"/><path d="M162 83l-10 13-11 1z"/><path fill="#fdf6e6" d="M165 109.9l9.6-17.9 27.6-43.7-25.4 57.3z"/><circle r="1" fill="#cf955e" transform="matrix(5.3033 -24.5967 15.86078 3.41974 244 105)"/><path fill="#fdf0dd" d="M38.5 58.8l54.3-29-3.3 4.5L82 40z"/><path fill="#eefffa" d="M121 51l16-24 18-5z"/><path fill="#353329" d="M247.8 43.2l19.3-54.5-13.3 56.2-14.1 16.3z"/><path fill="#e0d3c2" d="M154.8 73.9l16.4-10 3.2-5-50.1 66.3z"/><path fill="#5b513f" d="M41.8 40.8l8.1 3.2L63.5 8.1 15.6 19z"/><circle r="1" fill="#e5dac8" transform="rotate(101.6 90.7 129.4) scale(13.69367 27.63333)"/><circle r="1" fill="#030b0d" transform="matrix(1.61959 .95782 -9.0996 15.38657 173.5 87.2)"/><path fill="#f5f7f4" d="M12.6 60.7l45.1 43.4L-16 78.2l12.5-29.1z"/><path fill="#eddcc7" d="M232.2 44.3l-18.9 14L257.6-16h-3.3z"/><circle r="1" fill="#e8d6c3" transform="matrix(3.4508 2.01894 -32.16124 54.9705 220 25.2)"/><path fill="#fff5e2" d="M86.9 11.2l.4.9-72.2 36.7-.4-.9z"/><path d="M221 33l10-8-12 18z"/><path fill="#0d120e" d="M231.5 50.7l8.5-23.3 7.8-11.8-9.9 27.8z"/><path d="M53.5 48.8L96 22.3l.6.9L54 49.7z"/><circle r="1" fill="#d11620" transform="matrix(1.68732 .83117 -8.5122 17.28032 179.7 47.2)"/><ellipse cx="223" cy="95" fill="#000101" rx="3" ry="12"/><path fill="#d6cab8" d="M93.9 29.2L35 51.3l38.9-21.2-1.4 16.1z"/><path fill="#040c0c" d="M196.8 98.3l-3.7-1.5 10.1-25 3.7 1.4z"/><circle r="1" fill="#b6c1b1" transform="rotate(-146.7 64 31.3) scale(60.38552 13.14532)"/><path fill="#f9f0de" d="M201 121l18-18V86z"/><path fill="#dccebb" d="M253.8 25.2l17.2-5.9L241 30l-7.8 47.5z"/><path d="M101.3 27.7l-14 11.4-.6-.8 14-11.4z"/><path fill="#ddd4c4" d="M232.2 108.2l10.9-44.8-16.4 29.4-4.9 33.3z"/><path fill="#a5151c" d="M182.5 58l21.2-22-11.5 2.9-11 40.9z"/><path fill="#e0313b" d="M166 30l11-3-16 26z"/><path d="M81.7 41.3l.6.8-18 12.6-.6-.8z"/><path fill="#0f1e17" d="M137 97.1l6.4-16.3 14.7-14.6 9.7-10z"/><path fill="#d7c9b4" d="M195.6 76.8l2 .7-27.2 83.7-2-.7z"/><path fill="#000300" d="M115 6.8L149-16h-29.9z"/><path fill="#ffe9dc" d="M172.5 38.9l-6.6 11.5 1.7 15.2 14-33.1z"/><path fill="#2b322d" d="M176.1 63.4l-22.9 31.8 4.5-17 15.9-15.6z"/><path fill="#a7000e" d="M104 33.9l21.5-14.6.6.8-21.6 14.6z"/><path fill="#c79761" d="M162 57l-50-23.7-45.9 24.1 17.3 12.5z"/><path fill="#e2cabd" d="M147.4 63.2L173.7 30l-44 27.7 41.1-43.6z"/><path fill="#56746d" d="M132 91.7l-32.1 29.7L131.5 85l9.1 12z"/><path fill="#b4523c" d="M171.3 26.3l-15 11.3-50.7 63.5 32.2-36.2z"/><path fill="#342b22" d="M219.9 23.8l-.8-6.2L206.4 29l13.3-19.5z"/><path fill="#221f19" d="M230 16l-4 14 10-13z"/><circle r="1" fill="#d7c9b7" transform="matrix(-4.1738 14.46044 -55.9654 -16.15358 161.5 117.1)"/><path fill="#dde2c9" d="M112.7 78l-2 8.7 34.9-32.3L119 71.5z"/><path fill="#0d120e" d="M53.8 37.4l38-17.7.4.9-38 17.7z"/><circle r="1" fill="#ecd8c2" transform="rotate(-78.3 108.3 -132) scale(11.30909 38.71108)"/><path fill="#685b49" d="M13.1 52.6L-16 28l14.6 18.8 37.7 33.4z"/><circle r="1" fill="#cfc5b4" transform="matrix(.41628 .90924 -44.84554 20.5319 51.4 22.9)"/><path fill="#9c5413" d="M240.2 130.9l13.8-45 3.8 1.2-13.8 45z"/><path fill="#e4e6dd" d="M118.6 26.8l-3.4 10.8-8.9 18.4 31.6-36.8z"/><circle r="1" fill="#dfceb8" transform="matrix(7.74603 -5.34363 20.65282 29.93797 16.2 38.5)"/><circle r="1" fill="#000606" transform="rotate(-58.6 177.4 -152.7) scale(2.87184 2.58405)"/><path fill="#f7ecd9" d="M78.2 24.7l-28 13.5-.4-.9 28-13.5z"/><path d="M220.2 110.8l-1.4 13-5-.6 1.4-13z"/><circle r="1" fill="#edcebe" transform="matrix(8.93592 -23.70896 2.5315 .95413 178.8 64.8)"/><path fill="#c18037" d="M138.4 80.2l14.3-17-34.5 26.4 2.9 2.9z"/><path fill="#131612" d="M189 93l-12 13 11-23z"/><path fill="#ab5c1a" d="M241.3 78l4 1-8.6 37-4-1z"/><path fill="#f5efdd" d="M175 73l-12 3v22z"/><path fill="#252118" d="M67.7 6.8l-18 5.3 7.4 6.1 6.6-2.2z"/><path fill="#7e968d" d="M109.3-2.8l75.1 4.1-26 33.9 30.2-29.7z"/><path fill="#583a19" d="M252.7 19.9L248.4 55 271-14l-16.6 25.3z"/><path fill="#484238" d="M128.2 126.6l2-4.6 79.6 35.4-2 4.6z"/><path fill="#d4d2c0" d="M253.3 138.7L271 87.3l-23.3 28.8 19.1 41.9z"/><path fill="#49422d" d="M52 45l10-3 13 16z"/><path fill="#c04a42" d="M128.9 36.4L108 58.6l22.7-29 26.4-21.3z"/><path fill="#3a382f" d="M215.3 43.4l2.1 4.6 3.6-1.3 9.2-25.7z"/><circle r="1" fill="#276a6c" transform="matrix(-.32392 -.94609 13.19983 -4.51931 51.5 62.2)"/><path fill="#277574" d="M95.4 101.2l-.4-.8 25.6-13.6.4.8z"/><path fill="#647266" d="M38.1 76.4l49-17-37.3 8.9 19.7 29.3z"/><path fill="#2b2c24" d="M202.3 109.2l8.7-13.3-15.1 21.8 16.4-5.7z"/><path fill="#d0303c" d="M129.1 48.1l15.1-12.9 21.1-18.6-20 21.7z"/><path fill="#dfd8cd" d="M148.8 9.9l.6.7-70.2 65.5-.6-.7z"/><path fill="#dccfbd" d="M241.2-4.7L218.3 80l.9 11.1 4.5-18.3z"/><path fill="#f3d8b3" d="M74.7 54.8l-2.6-5.4 25.2-12.2 2.6 5.4z"/><path fill="#5a4346" d="M161.2 25.4l58 22.2-.4 1-58-22.2z"/></g></g></svg>