<svg xmlns="http://www.w3.org/2000/svg" viewBox="0 0 1120 1400"><defs/><filter id="a"><feGaussianBlur stdDeviation="12"/></filter><rect width="100%" height="100%" fill="#334156"/><g filter="url(#a)"><g fill-opacity=".5" transform="translate(2.7 2.7) scale(5.46875)"><circle cx="30" cy="136" r="254" fill="#fff"/><ellipse cx="106" cy="242" fill="#fff" rx="203" ry="32"/><ellipse cx="99" cy="19" fill="#fff" rx="203" ry="22"/><ellipse cx="15" cy="188" rx="32" ry="25"/><ellipse cx="71" cy="69" fill="#5b4429" rx="132" ry="19"/><ellipse cx="186" cy="188" rx="30" ry="24"/><circle r="1" fill="#00382c" transform="matrix(-4.1748 23.83816 -32.62067 -5.7129 13.1 126.2)"/><ellipse cx="109" cy="95" fill="#fff" rx="203" ry="8"/><ellipse cx="121" cy="157" fill="#fff" rx="183" ry="8"/><path fill="#fff" d="M15 271l204-41-235-22z"/><ellipse cx="110" cy="16" fill="#fff" rx="203" ry="24"/><circle r="1" fill="#a04c20" transform="matrix(-48.48963 10.74747 -3.92359 -17.70216 101.7 191.5)"/><path fill="#15060a" d="M180 104h24v41h-24z"/><path fill="#ffe1c9" d="M-1.3 64.9l52.9 11.5 2.3-42.6L-5.9 59z"/><ellipse cx="158" cy="236" fill="#fff" rx="203" ry="25"/><ellipse cx="129" cy="127" fill="#82532b" rx="24" ry="25"/><ellipse cx="101" cy="121" fill="#fff" rx="5" ry="93"/><ellipse cx="154" cy="109" fill="#fff" rx="3" ry="206"/><path fill="#000510" d="M52 53h36v34H52z"/><path d="M64 197h34v14H64z"/><path fill="#3d1d00" d="M105 89l-1-46 43-3z"/><ellipse cx="48" cy="99" fill="#fff" rx="3" ry="244"/><path fill="#261702" d="M0 165h46v47H0z"/><ellipse cx="55" cy="18" fill="#fff" rx="203" ry="22"/><path fill="#b94618" d="M127 165h24v41h-24z"/><path fill="#00201a" d="M0 132h46v18H0z"/><ellipse cx="107" cy="157" fill="#fff" rx="138" ry="8"/><path fill="#f6f6f2" d="M67 89h37v46H67z"/><ellipse cx="167" cy="95" fill="#fff" rx="203" ry="7"/><path fill="#eddd75" d="M169.6 191.2l1.9-14.5 13 15.3-1.1 18.7z"/><path fill="#04012c" d="M157 210v-38l23 40z"/><circle r="1" fill="#fffff8" transform="rotate(111.3 45.7 120.8) scale(11.39907 8.56476)"/><path fill="#200" d="M104 140h11v11h-11z"/><path fill="#a98b6d" d="M10 189h23v24H10z"/><ellipse cx="62" cy="46" fill="#fff" rx="19" ry="4"/><circle r="1" fill="#fff" transform="matrix(-96.69616 5.40114 -1.46332 -26.19761 136.5 244.6)"/><path fill="#262e16" d="M73 140h21v10H73z"/><path fill="#fffef5" d="M194 73l21 38-54-19z"/><path fill="#364042" d="M86.1 84.6l-34.1 5L72.8 53l29.3-16.6z"/><ellipse cx="101" cy="187" fill="#fff" rx="3" ry="252"/><path fill="#262444" d="M161 164h43v24h-43z"/><path fill="#ffe3b5" d="M132 200l-11-47-4 40z"/><path fill="#060000" d="M15 86l-31-29 13 30z"/><path fill="#3c9e9c" d="M4 102h42v21H4z"/><path fill="#a58a73" d="M52 166h47v32H52z"/><path fill="#887150" d="M124 40h28v45h-28z"/><path fill="#4d4039" d="M159 102h36v8h-36z"/><ellipse cx="154" cy="95" fill="#fff" rx="3" ry="233"/><path fill="#e7f0ef" d="M107.4 220.7l.2-16 39 .6-.2 16z"/><path fill="#060401" d="M78.1 191.7l-15.8 16.9h32.2l3-4.8z"/><path fill="#646566" d="M157 41h23v44h-23z"/><ellipse cx="165" cy="15" fill="#fff" rx="203" ry="25"/><path fill="#4a331b" d="M105 41h20v45h-20z"/><ellipse cx="48" cy="150" fill="#fff" rx="3" ry="240"/><path d="M163 134l-5 1-1-17z"/><path fill="#f9f5f1" d="M126 96h5v39h-5z"/><path fill="#ce4026" d="M106 208l14-34-16-10z"/><path fill="#6a4e3c" d="M152 152.8l-.9-49.9-15.2 2.9-6.5 12.2z"/><ellipse cx="9" cy="56" fill="#b48e74" rx="28" ry="17"/><path fill="#a3b1b3" d="M45.5 57.1l20.3 9.3 15.1 29.2-16.2-22.4z"/><ellipse cx="107" cy="248" fill="#fff" rx="203" ry="29"/><path fill="#f0fff5" d="M165 109h9v22h-9z"/><path fill="#080e11" d="M37 164h9v44h-9z"/><path fill="#b2b6b6" d="M51 102h48v41H51z"/><path fill="#c0c1c1" d="M153.6 64.7l15.2-25-2.4 21.9 10.4 6.9z"/><circle cx="82" cy="80" r="8"/><path fill="#25254e" d="M185 167h19v45h-19z"/><path fill="#fffdf7" d="M48 151l68 19 45-21z"/><path fill="#291e30" d="M217.8 128.8l-9.7-12.6-35.3-12.6 24.6 29.6z"/><path fill="#1b1e20" d="M161 70h13v14h-13z"/><path fill="#fffffe" d="M0 88h144v14H0z"/><path fill="#5d4024" d="M51 165h5v36h-5z"/><path fill="#e4e6d6" d="M109 181h4v20h-4z"/><path fill="#fff" d="M38.6-16L219 3.3 94.8 36.7 69.1 54.9z"/><path d="M52 69h13v18H52z"/><path fill="#6f4e2b" d="M143 41h8v47h-8z"/><path fill="#a7a096" d="M139.7 53.6l-12.6 29-1.6-29.6-17.2-15.2z"/><path fill="#fcfcf5" d="M191.6 156.2l-37.7-19.9.1 23.5 45.3 3.5z"/><path fill="#452928" d="M0 82h46v6H0z"/><path fill="#75421f" d="M106 140h45v10h-45z"/><path fill="#aaada7" d="M21 216h75v3H21z"/><ellipse cx="34" cy="213" fill="#fff" rx="169" ry="2"/><path fill="#fff" d="M162.1 80.9l-11-9.7 3.3-19.8 1 36.7z"/><path fill="#b19a8d" d="M56 164h42v30H56z"/><path fill="#99abb3" d="M35.9 36.8L98 54.4l.2 20.6-15.4-25.6z"/><path fill="#6a6358" d="M186 41h18v11h-18z"/><path fill="#ae2102" d="M126 166h20v14h-20z"/><path fill="#040606" d="M24 192l14-23-26 3z"/><ellipse cx="101" cy="213" fill="#fff" rx="3" ry="255"/><path fill="#1c1e1b" d="M89 40h10v9H89z"/><path fill="#5a4426" d="M105 203l39-11-3 11z"/><path fill="#f5f3ed" d="M47.1 80.6l8.8-34.7-26.2 22.8 16.6.3z"/><path fill="#2f2d29" d="M167 55h20v5h-20z"/><path fill="#ae9989" d="M111 100l13 35 28 8z"/><path fill="#fff" d="M0 150h68v14H0z"/><ellipse cx="129" cy="93" fill="#bec1bd" rx="72" ry="2"/><path fill="#cfb187" d="M107 178.1l33.6 11.5-10.7 14.8 10.3 12.5z"/><path fill="#d5d2cb" d="M188 55h16v11h-16z"/><path d="M75 136h4v14h-4z"/><path fill="#17191b" d="M11.8 208.9l37.6.8-65.4-12.8 20.8-19.6z"/></g></g></svg>