<svg xmlns="http://www.w3.org/2000/svg" viewBox="0 0 1400 933"><defs/><filter id="a"><feGaussianBlur stdDeviation="12"/></filter><rect width="100%" height="100%" fill="#435433"/><g filter="url(#a)"><g fill-opacity=".5" transform="translate(2.7 2.7) scale(5.46875)"><circle cx="122" cy="96" r="169" fill="#fff"/><circle r="1" fill="#190400" transform="matrix(-37.70229 6.60598 -11.20934 -63.97507 145 58.7)"/><ellipse cx="143" cy="150" fill="#fff" rx="255" ry="33"/><circle r="1" fill="#f5e2db" transform="matrix(59.32225 -4.04419 10.11066 148.30844 42.2 62.6)"/><path fill="#4a280e" d="M148.2 77.4l-177.8 6.2-.6-17 177.8-6.2z"/><circle r="1" fill="#f7eaed" transform="rotate(109.2 109.9 93) scale(32.78522 61.42399)"/><ellipse cx="226" cy="85" fill="#fff8ff" rx="52" ry="11"/><ellipse cx="166" cy="162" fill="#fff" rx="255" ry="23"/><path fill="#564243" d="M46.9 124.4l142.1 21-1.2-13.9-56.8 2.4z"/><path fill="#4a333c" d="M101 40h77v79h-77z"/><path fill="#fff0dd" d="M102-16l-5 55 27-8z"/><ellipse cx="218" cy="67" fill="#a0866e" rx="72" ry="16"/><ellipse cx="15" cy="58" fill="#b98d47" rx="31" ry="13"/><path fill="#fdffff" d="M0 89h118v12H0z"/><circle r="1" fill="#171219" transform="matrix(-11.9253 9.46472 -28.09839 -35.40324 131 77.6)"/><circle r="1" fill="#f2e9d9" transform="matrix(-2.65731 7.92408 -35.00545 -11.73896 70.7 55.3)"/><circle r="1" fill="#7280ab" transform="rotate(-176 46.7 52.9) scale(37.67635 8.95321)"/><circle r="1" fill="#7a8858" transform="matrix(21.97636 -3.91883 6.25369 35.07 158.5 35.4)"/><circle r="1" fill="#ebffff" transform="matrix(.54394 -4.31098 64.07087 8.08418 29.6 111.2)"/><path fill="#c3d0ee" d="M180 76h76v57h-76z"/><ellipse cx="54" cy="27" fill="#eddec1" rx="32" ry="44"/><path fill="#591406" d="M103 78h6v30h-6z"/><ellipse cx="228" cy="106" fill="#7d91ab" rx="52" ry="13"/><path fill="#fff" d="M155 119h101v11H155z"/><path fill="#b76e5f" d="M158.5 88.3l14.3-30.7-47.8 58-26-7.2z"/><path fill="#9a8d3d" d="M5.8.1l35.3 4.5-31 7.8-20.5 2z"/><path fill="#f6f0df" d="M247 88l-59 10-21-23z"/><path fill="#5b3316" d="M158 139l-2-12 33 9z"/><ellipse cx="54" cy="147" fill="#f7f9fe" rx="76" ry="19"/><path fill="#476189" d="M114.5 131.9l-84-11.7-34.4-3.5 57.3 8.5z"/><path fill="#58482d" d="M160 67h87v6h-87z"/><circle cx="167" cy="108" r="13" fill="#36416e"/><path fill="#5181be" d="M69.2 112.9L25.7 106l1.1-6.9 43.5 6.9z"/><ellipse cx="199" cy="158" fill="#faf8fc" rx="118" ry="18"/><ellipse cx="130" cy="7" fill="#415727" rx="14" ry="33"/><path fill="#27498d" d="M227 136l26-7 18 7z"/><circle r="1" fill="#aa7369" transform="rotate(-62.9 108.3 -90.6) scale(5.35302 26.60866)"/><circle cx="90" cy="11" r="8" fill="#c2a535"/><path fill="#effaff" d="M94 121h140v9H94z"/><circle r="1" fill="#4b6194" transform="matrix(-68.22962 -8.71785 .12674 -.99194 82.1 113.2)"/><path fill="#404d29" d="M155.4 35.2l17.5-4.7 5.3 40.2-10.7 8.7z"/><circle r="1" fill="#b89e76" transform="matrix(1.69795 -8.81735 53.46528 10.29579 30.2 59.3)"/><path fill="#ebf3ff" d="M96.8 90.8L-16 97.5l38.4 40.6L14 107z"/><path fill="#e9e3d6" d="M94 19l3 46L-3 34z"/><path fill="#b7ab8f" d="M182 18h23v67h-23z"/><path fill="#aa6c61" d="M163 62.4l-21.1-24.5-28.4 35.9L125.2 42z"/><path fill="#fff" d="M108.6 95.8l10.9 1.8-4.7-12.8-4.6 4.7z"/><path fill="#684d30" d="M23.9 80.6l51.5-.6L8.7 68.1l-10.5 6.3z"/><path fill="#a2b393" d="M115.7-3l64.4 15.5L161 34l7.2-38z"/><circle cx="167" cy="102" r="8" fill="#7f80ac"/><circle r="1" fill="#1a1e27" transform="matrix(-1.68547 5.91687 -25.25429 -7.19387 157.1 110.6)"/><ellipse cx="209" cy="134" fill="#6f8fcf" rx="17" ry="4"/><path fill="#e2e6eb" d="M244 0h10v60h-10z"/><ellipse cx="8" cy="57" fill="#a97a36" rx="4" ry="20"/><path fill="#c8535e" d="M3 132l5-9-24-7z"/><ellipse cx="195" cy="118" fill="#778dbf" rx="22" ry="2"/><path fill="#8287af" d="M130 124l-8-19 26 14z"/><path fill="#d2e2fe" d="M112.8 132.7l-114.1-21 88 3.3 71.8 10.1z"/><path fill="#b0c9e7" d="M155.9 137.8l-15.8-7.2-55.1-2.7 61.1 9.7z"/><path fill="#2b1300" d="M186.9 141l-11.6-3.2 1.8-6.7 11.6 3z"/><circle r="1" fill="#ab6153" transform="rotate(57.6 -7.2 180.8) scale(2.79047 26.39673)"/><path fill="#76664d" d="M197 62h47v8h-47z"/><path fill="#ffa" d="M179 108h40v2h-40z"/><path fill="#b4afa1" d="M216.5 67.7L180 57.1l66.8-6.3-21.2-13.9z"/><path fill="#7a3424" d="M101.4 113.5l-2.9-.7 6-24.3 3 .7z"/><path fill="#e8e2dd" d="M100 20h14v15h-14z"/><path fill="#4a5e7f" d="M65.2 125.7l-68.5-8.4.1-1 68.5 8.4z"/><path fill="#aba199" d="M-8 76l4 15 51-4z"/><circle r="1" fill="#e5d1a7" transform="matrix(-53.00944 9.21059 -2.06877 -11.90634 33.8 19.2)"/><circle r="1" fill="#151a25" transform="matrix(22.30818 2.4219 -1.22438 11.2778 130 79.3)"/><path fill="#8b9b75" d="M188.8 66.6L162.5 8.8 199.4-16l-24.2 31.6z"/><path fill="#c7bcab" d="M33.5 52.2l55.6 19.5 15.5-13-10.1-5z"/><path fill="#e0e9e6" d="M29 0l55.2 5.9L203.3-16 13.5-2.3z"/><path fill="#473023" d="M123.3 7.2l14.6 78.6 11.2-28.7-9.9-6.4z"/><path fill="#6186b5" d="M15 102h39v3H15z"/><path fill="#675518" d="M2 12l12-6-9-4z"/><path fill="#be7572" d="M162.7 82.4l-5.8 1.6-11.6-40.4 5.8-1.6z"/><path fill="#ab9767" d="M87 34h15v6H87z"/><circle r="1" fill="#cfb795" transform="matrix(-1.03404 -2.9363 33.03134 -11.63217 4.5 67.2)"/><path fill="#837c6f" d="M116.8.8l16.7 58.4L115 27.8l-2.9-24.1z"/><path fill="#f3f7fa" d="M65 89l39-4-26 18z"/><ellipse cx="241" cy="155" fill="#f3f3f4" rx="84" ry="18"/><path fill="#0a0b10" d="M170 83l-39 23 19 4z"/><path fill="#d8dee1" d="M63.8 105.5l29.3-2.9 9.7-26.9.2 18z"/><path fill="#bfc395" d="M181.9 98.9l3.6 1 36.6 1.1-13.1-7.8z"/><path fill="#bfb5ac" d="M205.3 84.7l-36.5-8 88-4.1 12 5.9z"/><path fill="#d4e9ff" d="M256 127l-24 8-21-9z"/><circle cx="114" cy="93" r="5" fill="#f8feff"/><path fill="#f4f3f1" d="M187 84h69v9h-69z"/><path fill="#5f4c37" d="M162 68h31v7h-31z"/><path fill="#f8eccf" d="M10.5 38.5l5.1 18.7 8-25.8-39.6-3.5z"/><path fill="#dcd5ca" d="M194 37h29v12h-29z"/><ellipse cx="109" cy="50" fill="#172021" rx="8" ry="15"/><path fill="#95abcc" d="M142 112h12v2h-12z"/><path fill="#e8f2ff" d="M57 112l-56 5-7-16z"/><path fill="#7c8157" d="M206.2 43.8l-2.6 12.5-26.7-22.2-7.5 32.4z"/><path fill="#445736" d="M165.2 55.4l22.6-1.3-45.9-21.5L161 58.5z"/><path fill="#c5d1a2" d="M150.7-.2L153-2l10.3 12.3L161 12z"/><path fill="#bcb9ba" d="M201.3 69.8l-2.6 13.1-29.8 1.2 6.8-5z"/><path fill="#e7e9e2" d="M200.2 14.3L208.8-8l15 5.8-8.6 22.4z"/></g></g></svg>