<svg xmlns="http://www.w3.org/2000/svg" viewBox="0 0 1400 990"><defs/><filter id="a"><feGaussianBlur stdDeviation="12"/></filter><rect width="100%" height="100%" fill="#2c5c42"/><g filter="url(#a)"><g fill-opacity=".5" transform="translate(2.7 2.7) scale(5.46875)"><circle cx="98" cy="94" r="188" fill="#fff"/><circle r="1" fill="#fff" transform="matrix(40.63981 3.90908 -18.80692 195.52178 29.9 54.4)"/><circle r="1" fill="#fff" transform="matrix(38.45631 -38.10227 179.47647 181.14414 193.5 18.2)"/><circle r="1" fill="#fff" transform="rotate(171.6 69.4 92) scale(255 24.64708)"/><circle r="1" fill="#00411b" transform="rotate(55.6 4 124.7) scale(38.45423 32.46831)"/><circle r="1" fill="#006233" transform="rotate(1.6 -3677.5 6554) scale(28.96541 42.5305)"/><circle r="1" fill="#004c22" transform="matrix(20.58853 -29.38214 23.42914 16.41717 87.6 127.6)"/><circle r="1" fill="#fff" transform="matrix(-23.31106 195.49245 -35.6845 -4.25512 37.3 21.7)"/><circle r="1" fill="#fff" transform="rotate(-15.7 346.9 -849.7) scale(43.87324 222.15499)"/><ellipse cx="148" cy="133" fill="#004923" rx="22" ry="26"/><path fill="#fff" d="M65-16l206 135V-10z"/><ellipse cx="180" cy="172" fill="#fff" rx="254" ry="17"/><path fill="#fff" d="M123 126l33-39-49 7zM0-16h146L0 63z"/><circle r="1" fill="#fff" transform="matrix(-.97184 12.94914 -45.36008 -3.4043 50.2 87)"/><circle r="1" fill="#fff" transform="matrix(-113.46108 53.89854 -10.36722 -21.82388 221.8 153.4)"/><ellipse cx="159" cy="29" fill="#fff" rx="27" ry="31"/><path fill="#fff" d="M25.2 184.5l103.9 1.3-3.8-72.1-16.8 39.2z"/><circle r="1" fill="#fff" transform="matrix(43.9796 -150.39851 28.22726 8.25423 20.8 123)"/><ellipse cx="182" cy="113" fill="#3b8e6e" rx="34" ry="30"/><circle r="1" fill="#2f7f5e" transform="matrix(-26.49593 -8.81187 7.38513 -22.20593 124.7 68.3)"/><path fill="#2e6846" d="M158.1 76.8l2.6-20.7 33.5 12.2 26.1 45.9z"/><path fill="#fff" d="M114 98l6 34 40-53z"/><circle r="1" fill="#fff" transform="rotate(16.5 -317 910.3) scale(31.50372 68.64984)"/><circle r="1" fill="#216146" transform="matrix(11.472 -4.3578 7.6502 20.13929 81.1 61.5)"/><path fill="#fff" d="M157 79l12-78-59-17z"/><circle r="1" fill="#fff" transform="matrix(89.0744 92.23924 -16.08769 15.5357 42 162)"/><path fill="#144627" d="M127.8 144.2l61-.4-25.2 9.6-14.3 8.1z"/><path fill="#fff" d="M-10 0L2 165l84-78zm281-1l-4 116L93-3z"/><path fill="#126c46" d="M52 125l34-32-29 53z"/><circle r="1" fill="#68c6aa" transform="matrix(-11.88677 17.16668 -8.71442 -6.03415 174 115.6)"/><path fill="#fff" d="M-16-11L5 50 139-9z"/><path fill="#2a5a44" d="M106 8L72 29l83 39z"/><path fill="#fff" d="M149 169l-32-35-21 62zM45 94l67-2-73-29z"/><path fill="#fff" d="M68 196l203-13-17-68z"/><path fill="#54a886" d="M142 85l-20-50-39 19z"/><path fill="#205d3f" d="M115.4 95.2l37-17.1-31.6 6-34.6-10.4z"/><circle cx="86" cy="130" r="30" fill="#357558"/><path fill="#65a88b" d="M66.4 131.2l25.1-21 7.3 28.4L78.2 154z"/><path fill="#fff" d="M133 112l16-11-61-15zm22-26l-6-35 18-28z"/><circle cx="167" cy="66" r="9" fill="#285938"/><path fill="#fff" d="M32 137l101 52-149-6z"/><path fill="#fff" d="M-16 61.1l58.5 101.3 29-82.5-23-95.9z"/><path fill="#2e5843" d="M94.6 28.7l-23.1 6.5L67.9 68l10 14.1z"/><path fill="#fff" d="M158 74l-9 28-17-2z"/><path fill="#3b8062" d="M175.4 99.3l-44.6 13.5-7 31.1 25.1.1z"/><path fill="#315a42" d="M115 40l37 24-3 18z"/><path fill="#447c5a" d="M207.9 137l9.1-21.8-11.2-23.6-33.8 54.8z"/><path fill="#ede3e2" d="M79.1 64l-1-.1L81 38l1 .1z"/><path fill="#fff" d="M169-3l79 179L271-2zM59 103L43 68l61 19z"/><path fill="#193b28" d="M96.6 158.2l4.3-15.6-24.5 1 9.6 9.8z"/><path fill="#35614d" d="M68.2 52.7L119 22.2l-7.2-11.7L74 21.7z"/><path fill="#fff" d="M123 158l-16 1 20-50z"/><circle cx="78" cy="151" r="3" fill="#fff"/><path fill="#fcfef7" d="M87 104h11v3H87z"/><path fill="#062a15" d="M57.7 136.7l6.6-4.6 12 17.2-6.6 4.6z"/><circle r="1" fill="#437354" transform="rotate(-85.9 126 -47.7) scale(24.972 7.60726)"/><path fill="#fff" d="M124.1-16l100 19.4L155 67.1l-22.2-29.9z"/><path fill="#0f482e" d="M99.2 93.8l16.3 15.4.8 17.3-18.5-25z"/><path fill="#fff" d="M125 145.5l20.6 15.1 81.2 21.1-181.5-.3z"/><path fill="#18341f" d="M127.7 139.9l6.5-7.5 18.1 15.7-6.5 7.5z"/><path fill="#fff" d="M119 134l33-51-34 13z"/><ellipse cx="67" cy="4" fill="#fff" rx="34" ry="14"/><path fill="#fff" d="M259 196l-3.4-212L225 44.8l-17.8 134.5z"/><path fill="#61b697" d="M136.3 66.1l-19.9-15.7-2.4 21.2 18.7 4.5z"/><path fill="#c8efdd" d="M137.6 131.1l-.8-.5 7.6-11.7.8.5z"/><path fill="#8ea896" d="M199.2 127.3l-23.4 10.5-18.2 6.1 48.2-21.6z"/><path fill="#fff" d="M174.7 60.3l-69-52.2L271-12.5l-81.5 79.1z"/><circle r="1" fill="#fffffe" transform="rotate(-130.6 72.2 55.6) scale(5.61537 1)"/><circle r="1" fill="#89aa99" transform="matrix(-15.02418 -21.29405 .8171 -.5765 123.5 43.3)"/><path fill="#64c0a2" d="M175 123l15-2-10-47z"/><circle r="1" fill="#1e5a3c" transform="matrix(9.14383 12.7526 -4.1737 2.99261 99 119)"/><path fill="#336a48" d="M181 68l21 22-1-20z"/><path fill="#35644d" d="M120 65L81 16l28 1z"/><path fill="#336348" d="M145.9 160.4l27.6-13.2-48-6.1 2.3 4.9z"/><circle r="1" fill="#abccbd" transform="rotate(163.7 88.6 51.7) scale(1 40.24431)"/><path fill="#7da894" d="M184.3 71.7l18.3 48.2-16-44.1-31.6 48.7z"/><path fill="#376e48" d="M150 104l-21 38 2-27z"/><ellipse cx="155" cy="142" fill="#fff" rx="7" ry="1"/><circle cx="91" cy="59" r="5" fill="#6bc09e"/><path fill="#11261a" d="M90.7 16.2l23 1.6-.4 6-23-1.6z"/><circle r="1" fill="#fff" transform="matrix(-.77504 19.07732 -2.44142 -.09919 153.5 73.8)"/><path fill="#b9cac1" d="M151.3 147.2l-.8.7-13.8-17.1.8-.7z"/><path fill="#fff" d="M-16 47.4L2 196l212.3-10.3-148.7-28.4z"/><path fill="#002d1a" d="M152 136l-6-9 13 6z"/><path fill="#36664c" d="M143.9 88.6l7.5-12.3-42.6 8.8 31.4-16.7z"/><path fill="#fff" d="M157.6 156.2l100.8-38.7 20 52.3-100.8 38.7z"/><path fill="#326f4b" d="M203 97h10v24h-10z"/><path fill="#204a34" d="M116 93l-12-7 22-2z"/><path fill="#fff" d="M153.1 88l-6.9 18.4-18.8 10 3.6-26.9zm98.4-104L192 30.3l11.2 52.9L271 188.8z"/><path fill="#74d4ae" d="M109.3 39.5l-11-1 .4-4 11 1z"/><path fill="#3e7353" d="M190.4 76.4l2.3-6.7L168 56.8l-10.9 15.1z"/><path fill="#5eb497" d="M180 102l-35 19h46z"/><path fill="#fff" d="M3-16L83 91l-99 80z"/><path fill="#1a362a" d="M82 37l1 17 16-23z"/></g></g></svg>