<svg xmlns="http://www.w3.org/2000/svg" viewBox="0 0 1400 990"><defs/><filter id="a"><feGaussianBlur stdDeviation="12"/></filter><rect width="100%" height="100%" fill="#2c5c42"/><g filter="url(#a)"><g fill-opacity=".5" transform="translate(2.7 2.7) scale(5.46875)"><circle cx="61" cy="39" r="252" fill="#fff"/><circle r="1" fill="#fff" transform="matrix(-47.48849 -5.66266 24.1848 -202.81982 21 69.3)"/><circle r="1" fill="#fff" transform="matrix(183.21111 177.36597 -36.79124 38.0037 196.3 22.9)"/><circle r="1" fill="#fff" transform="matrix(-252.0943 38.3857 -4.4399 -29.15856 136.3 180)"/><ellipse cx="102" cy="51" fill="#00411c" rx="35" ry="36"/><ellipse cx="180" cy="107" fill="#006334" rx="30" ry="43"/><circle r="1" fill="#fff" transform="rotate(162.1 120.3 65.8) scale(46.9328 189.81491)"/><circle r="1" fill="#00461b" transform="matrix(21.11424 19.11014 -22.82939 25.22352 86.3 127)"/><circle r="1" fill="#fff" transform="matrix(-45.00144 -5.86504 24.2509 -186.073 23.9 49.4)"/><circle r="1" fill="#00431d" transform="matrix(17.49977 -8.80147 11.2143 22.29717 147.4 135.9)"/><path fill="#fff" d="M108.7 97.1l40.6 98.9-68.1-12 80.9-103.1z"/><circle r="1" fill="#fff" transform="matrix(-14.51634 -31.5903 118.27796 -54.35099 189.9 180)"/><circle cx="174" cy="7" r="54" fill="#fff"/><path fill="#fff" d="M8.2-16l-23.7 165.9 119.3-63.2L63.5 75z"/><path fill="#fff" d="M-1 55L-16-1l137 1z"/><ellipse cx="69" cy="180" fill="#fff" rx="255" ry="23"/><ellipse cx="124" cy="70" fill="#217552" rx="28" ry="21"/><path fill="#fff" d="M91-1l180-5-10 116z"/><path fill="#378161" d="M220.5 113l-77.4 52.1 18.3-106 24.7 1.5z"/><path fill="#fff" d="M271 151L233-16l-28 212zm-285.5-10.9L13.6 109l98.9 89-28.1 31zm165.6-75.3l2.1 29.6L174 4.9l-65.3-8.4zm-38.8 37.5l31-16.5 8.4 16-31 16.4zM-14-10l-2 98L125-16z"/><path fill="#fff" d="M107 90L-8 110V45z"/><path fill="#6ed9bc" d="M186 122l-29 3 34-37z"/><circle r="1" fill="#32795b" transform="rotate(-153.7 56.7 57) scale(30.17213 26.87094)"/><path fill="#2b614a" d="M65.9 58.9l73.3-16.3-29.3-32.9-34.8 11.2z"/><path fill="#fff" d="M123 93.8l7.8 1.1-9.7 69.3-8-1.1z"/><path fill="#174a24" d="M178 75.3l-16.7-6.5 4.6-12 16.8 6.4z"/><ellipse cx="40" cy="54" fill="#fff" rx="27" ry="86"/><path fill="#fff" d="M239 124l-133 52 165 17z"/><circle r="1" fill="#407d62" transform="rotate(-65.6 104.3 -55.2) scale(26.5796 39.77461)"/><path fill="#204a2f" d="M133.8 109.1l-1.5 32.3 50 5.6-43 12z"/><path fill="#fff" d="M-14.6 150.2l5.7-108.6 147.3 70.1-37.9-26.1z"/><path fill="#58ad8b" d="M77 53l47-9 16 37z"/><circle r="1" fill="#fff" transform="matrix(-58.30945 -10.89859 3.19107 -17.07281 191.6 47)"/><path fill="#fff" d="M-15.3 151.6L85.4 196l-12-58.4 10.3 18.8z"/><ellipse cx="207" cy="111" fill="#2f6d46" rx="8" ry="18"/><path fill="#65b393" d="M73.5 138.7l9.3-24.2 17.7 6.8-9.3 24.2z"/><ellipse cx="242" cy="94" fill="#fff" rx="27" ry="180"/><path fill="#fff" d="M31 189l153-9-62-34z"/><circle r="1" fill="#3b8a6b" transform="matrix(-19.51756 3.89822 -2.7982 -14.00995 149.1 121.2)"/><path fill="#306449" d="M108.3 121.8l-35 37.6 13 .3 27.1-10.8z"/><ellipse cx="79" cy="58" fill="#2e5d46" rx="12" ry="21"/><path fill="#3f7a5c" d="M187.3 99.5l-23.2-41.7 37.4 13.6 6.2 70.1z"/><path fill="#fff" d="M160.6 69.3l-8.8 28.2-30.7 26.5 26.3-39.8zM-9 59l-7 136H94z"/><path fill="#49795a" d="M130.5 134.5l69-65-37.5-14-7 36.2z"/><path fill="#fffbfb" d="M79 44h2v19h-2z"/><circle cx="199" cy="11" r="55" fill="#fff"/><path fill="#fff" d="M71 20L-9-3l149-3z"/><path fill="#145639" d="M109.9 99.1l8.3 36.8-5.1-11.1-20.5-31.2z"/><path fill="#184129" d="M67.6 156l7.3-9.8L59.5 123l-1.2 18.5z"/><circle r="1" fill="#fff" transform="matrix(11.13197 15.86317 -6.82795 4.79151 148 46.7)"/><path fill="#fff" d="M26 164L66 2l3 99z"/><path fill="#1e5131" d="M144.2 141.7l-11.6 9.5-8.8-11 11.6-9.4z"/><path fill="#113b24" d="M125 93.8L107.4 90l1.6-7.8 17.6 3.8z"/><path fill="#fff" d="M146.1 86l-32.5 9.2 7.5 33.7 10.2-13.1zM123 129l-15 24 27 43z"/><path fill="#36634b" d="M103 22l47 63-21-59z"/><path fill="#1a3f2c" d="M85.4 22.4L102 8l6.6 7.6L92 30z"/><path fill="#fff" d="M256.2-16l-41.6 142.1-32.4 51.9 76.5 18z"/><path fill="#20724d" d="M71 101l21-8-37 31z"/><path fill="#fff" d="M98 182l128-54 45 52z"/><path fill="#5ba990" d="M172 138l-15-14 26-52z"/><circle cx="225" cy="77" r="23" fill="#fff"/><path fill="#c8f2e1" d="M92 100l-3 4 12 3z"/><path fill="#fff" d="M158.2 79l-7.9-6.9 32.8-33.6-61-38.9zM16-16L79 87-1 196z"/><path fill="#4e8463" d="M210 132v-24l-63 52z"/><path fill="#7ba190" d="M123.4 41.1l-10.3-15.3-6.5-5.5 29.7 45.3z"/><path fill="#cce8d8" d="M145 120l-8 10 1-5z"/><circle r="1" fill="#c8cfc2" transform="rotate(-39.3 205.2 -221.5) scale(1 6.65811)"/><path fill="#fff" d="M82 80.2l42.2 30.5 27.7-21.1-35.5 4.7z"/><circle r="1" fill="#67be9f" transform="rotate(-164.7 68 25.3) scale(8.62011 7.72828)"/><ellipse cx="153" cy="142" fill="#fff" rx="6" ry="1"/><path fill="#1b3728" d="M79 64.8l6-33.4 5.9 11.7-3.7 8.8z"/><path fill="#33654b" d="M112 147.5l-23.8 13.8 24.2-56.9 5.9 23.4z"/><path fill="#316046" d="M125 34l24 27 1 24z"/><circle r="1" fill="#5fb191" transform="matrix(3.5608 -7.25492 4.4482 2.18322 95.7 136.1)"/><path fill="#387e5e" d="M72.7 102.8l28.1 1.6 7.9-6.3-11.8-6.2z"/><path fill="#80c2ad" d="M192.8 85.3l8.3 30.9-2 .5-8.2-30.9z"/><path fill="#fff" d="M115 120l32-16 9-27zM20.5-16l90.2 27.8 52.5 47L271 6.7z"/><ellipse cx="165" cy="76" fill="#396d4e" rx="8" ry="19"/><path fill="#c0beb8" d="M83 27h17v2H83z"/><path fill="#001909" d="M152 134h8l-17-8z"/><path fill="#5ea68f" d="M138.4 132.7l10.8 13.7-4.2-23.8 25.9-17.2z"/><path fill="#99b3a2" d="M193.8 131.1l-39 13.8 39.1-16.5 36.8-33.6z"/><path fill="#1c7250" d="M183.6 84.5l11.4 43.9-.8-60.9 17.3 56.8z"/><path fill="#2c543d" d="M130.9 140.5l2.7 12.3 18.4 7.3 13.4-13.8z"/><path fill="#6abe9c" d="M87 50h9v14h-9z"/><path fill="#fff" d="M142.2-16l11.3 96 14.8-35.7-50.8-24.2z"/><path fill="#f0efe5" d="M91.1 103.3l.5.9-14.7 8.5-.5-.9z"/><path fill="#2c6348" d="M102.7 25.6l10.8 6.8L102 81.3l17.9-26.7z"/><path fill="#3d6b51" d="M84 69l35.3 6.6 32.5-3.7-3.1 15.1z"/><path fill="#a2aea2" d="M79.6 66l.3-1 26.5 9-.3 1z"/><ellipse cx="76" cy="178" fill="#fff" rx="230" ry="19"/><path fill="#4c8c6c" d="M65 153h28l-18 5z"/></g></g></svg>