<svg xmlns="http://www.w3.org/2000/svg" viewBox="0 0 420 330"><defs/><filter id="a"><feGaussianBlur stdDeviation="12"/></filter><rect width="100%" height="100%" fill="#4b3e34"/><g filter="url(#a)"><g fill-opacity=".5" transform="translate(.8 .8) scale(1.64063)"><circle r="1" fill="#fff" transform="matrix(-79.4432 -91.87648 192.89083 -166.78767 85.5 73)"/><ellipse cx="205" cy="180" fill="#cbb399" rx="80" ry="38"/><ellipse cx="159" cy="37" fill="#e8ece8" rx="232" ry="55"/><circle r="1" fill="#2a0d00" transform="rotate(41.7 -167.4 80.5) scale(31.36652 47.83526)"/><path d="M239 88.5v49h-52v-49z"/><circle r="1" fill="#fcffff" transform="matrix(-11.25734 -1.01622 4.6789 -51.83141 255 90)"/><path fill="#fff" d="M116 119V23h36v96z"/><circle r="1" fill="#4d4540" transform="matrix(1.8652 19.02276 -57.57727 5.6455 124.4 191.4)"/><path fill="#64350b" d="M15 78.5h-28v-49h28z"/><path fill="#e9e5e1" d="M183.6 174.7l-72.6-7.6 3.4-31.8 72.6 7.6z"/><ellipse cx="160" cy="58" fill="#806b51" rx="10" ry="52"/><path fill="#d9caba" d="M14 134h84v30H14z"/><circle r="1" fill="#410200" transform="matrix(4.6181 10.05041 -25.94755 11.92272 46.2 114)"/><path fill="#81694e" d="M98 20h17v80H98z"/><path fill="#261a0e" d="M242 100l-54-27 1 69z"/><path fill="#fff" d="M59 184l-65 7 63 10z"/><ellipse cx="134" cy="63" fill="#fff" rx="19" ry="46"/><circle r="1" fill="#0f2b09" transform="matrix(-7.39838 .68128 -4.25832 -46.24316 4.3 135)"/><path fill="#ebebe5" d="M193 116l-15 29-7-65z"/><path fill="#948d6a" d="M216 35h20v48h-20z"/><circle r="1" fill="#303126" transform="rotate(71.1 -120.9 90.2) scale(4.89386 32.24841)"/><ellipse cx="50" cy="179" fill="#3e3b35" rx="22" ry="5"/><path fill="#cdc7c4" d="M133 129l-53-19 106-14z"/><path fill="#7b786f" d="M109.2 21l-1.5 6.9L85.3 16l95-5.3z"/><path fill="#d7d9dc" d="M93-11l4 105-72-4z"/><ellipse cx="214" cy="19" fill="#e3ebec" rx="44" ry="14"/><ellipse cx="109" cy="189" fill="#534e50" rx="8" ry="39"/><circle r="1" fill="#160b00" transform="matrix(-18.56635 -6.50195 9.41299 -26.87885 223.2 123.3)"/><ellipse cx="162" cy="178" fill="#130b03" rx="22" ry="4"/><path fill="#d3dcdc" d="M237.5 82.9l33.5 63.6V7.1l-38.5-4.4z"/><ellipse cx="158" cy="200" fill="#a78b6e" rx="39" ry="14"/><path fill="#c6bfc0" d="M107 98l-11 71-65 1z"/><circle r="1" fill="#e3f1fd" transform="rotate(152.9 -17.6 93.3) scale(33.46477 3.62679)"/><path fill="#7d664f" d="M192 141h64v22h-64z"/><path fill="#521b16" d="M38.4 145.5L7.6 106l-.1-24.8 26.6 40.1z"/><path fill="#7b8079" d="M190 97l26 2-26-35z"/><path fill="#090000" d="M222 90h21v50h-21z"/><path fill="#9f8c84" d="M-16 78l122 20-62 8z"/><path fill="#968b7d" d="M70 149l-44 11 69 5z"/><ellipse cx="178" cy="64" fill="#dee3e6" rx="8" ry="55"/><path fill="#fff" d="M117 35h34v67h-34z"/><path fill="#1e2420" d="M63 191l10 1-19 24z"/><path fill="#e2e7f3" d="M174.2-16l-27.4 28.7-31.1 3.8L63.9-16z"/><path fill="#d5d4cc" d="M102.1 145.2l-54.9-20.1-10.7 5.3 21.4 21.5z"/><path fill="#160d03" d="M187 121h48v20h-48z"/><path fill="#71071a" d="M33.7 98.7l-19.1 24 32.7 11.8-4.3 14.8z"/><path fill="#8c836e" d="M148.7 13.9l17.5-7.6 7.6 3.3-8.9 35.4z"/><path fill="#423d32" d="M228 72h10v10h-10z"/><path fill="#b9ada5" d="M123 166l63-16 27 29z"/><circle r="1" fill="#c9c8bd" transform="rotate(-6.3 742.8 -1787) scale(4.85833 20.89756)"/><path fill="#d9e4ee" d="M45.8 194l-52.1-11.4 53.8 24.9 40.2-35.7z"/><path fill="#a7888d" d="M141 107h31v30h-31z"/><path fill="#c7c9c6" d="M190.6 88.7l-42.9 34.7L200.1 56l-10.4 15.4z"/><path fill="#050100" d="M198 86l-6-2-1-15z"/><circle r="1" fill="#34220d" transform="rotate(27.5 -332.3 373) scale(1.93547 20.86471)"/><path fill="#384923" d="M70.1 96.9l-8.6 20.7-34.3 19.2 45.3-48.2z"/><path fill="#7a6c59" d="M162 71h9v30h-9z"/><circle r="1" fill="#412f25" transform="rotate(39 -222.1 247) scale(3.52519 25.13438)"/><path fill="#d4cec5" d="M135 137h50v30h-50z"/><path fill="#aca2a1" d="M141.3 120.2L55.9 216l61.5-52.1H72.8z"/><path fill="#896c52" d="M14.8 185.9l32.6 4.8 6.5-24.1-12.4 7.3z"/><path fill="#161710" d="M92.6 174.6l.7.7-38 34.1-.6-.7z"/><path fill="#b39171" d="M16 138h33v24H16z"/><path fill="#978374" d="M111.1 166l-10.2-49.2 19.4 3.1-.9 11.5z"/><path fill="#ebebe6" d="M99 117l26-4-21-12z"/><path fill="#c1c0c5" d="M21 0h39v94H21z"/><path fill="#ada5a6" d="M99.5 189l1.7 6.9-4.8 5.7 41.7-50.4z"/><ellipse cx="108" cy="78" fill="#664739" rx="2" ry="27"/><path fill="#cd3f68" d="M13 113.1l8.5 11.2-2.4-1.9 12.7-23z"/><path fill="#c0c5c5" d="M242.4 120.7l2.2 21.4 4.5-104.6 21.9 121z"/><circle cx="208" cy="87" r="3"/><path fill="#9495a7" d="M141.4 163.7l-23.5 6.2 9 42.8 5.4-21z"/><path fill="#a47167" d="M66 126h28v8H66z"/><path fill="#798f76" d="M8 129h19v15H8z"/><path fill="#cfc7be" d="M120 117h13v58h-13z"/><path fill="#a9938a" d="M14.5 59.5l-17.7 6.8-12.8 52.3L18.4 75z"/><path fill="#bbc5c6" d="M212 85h28v5h-28z"/><path fill="#88625f" d="M81.5 93.3l-55.4 19.4 47.2-4.5-9-22.2z"/><path fill="#d1e0eb" d="M63.3 164.8l33.9 2.4-.5 6-33.9-2.4z"/><circle cx="4" cy="40" r="12" fill="#7f6545"/><path fill="#efefe9" d="M143 101h27v6h-27z"/><path fill="#281814" d="M187 112l18 3-17-17z"/><path fill="#737971" d="M108 157.5l-43.8 35.8L38.8 216l65.4-48.2z"/><path fill="#d6dddf" d="M183.4 75.6l12 14.1-6.2.2-6.8.2z"/><path fill="#49593e" d="M27 135h21v6H27z"/><path fill="#eee7df" d="M80 102h28v4H80z"/><path fill="#335120" d="M-11.3 134.6l34.1-4.4L1.9 97.7l31.5-5.1z"/><ellipse cx="209" cy="54" fill="#dfe5e7" rx="6" ry="29"/><path fill="#101613" d="M43 177.6l-10 4.6-3.3-1.9.4-3.2z"/><path fill="#7b6850" d="M222 168l49-27-25-5z"/><circle r="1" fill="#dbdedf" transform="matrix(-12.88672 -9.22682 16.54152 -23.10286 78.2 44.9)"/><path fill="#9f8774" d="M236.5 208.2l-54.7-37 11.7-17.4 54.7 37z"/><path fill="#cacecf" d="M115 18h36v12h-36z"/><path fill="#c5cbc6" d="M161.6 118.5l-4.6-11.2 36.8 14-16.3-21.8z"/><ellipse cx="112" cy="76" fill="#d0c5be" rx="2" ry="30"/><path fill="#d3cec4" d="M165.8 109.1l29.8 5.7-.4-1.3-1 7.4z"/><path fill="#fff" d="M151 55l-37-24 5 72z"/><ellipse cx="96" cy="150" fill="#cccbcd" rx="3" ry="37"/><path fill="#837969" d="M102 28l23-13H93z"/><path fill="#9d887d" d="M162 89l-10-19-2 31z"/></g></g></svg>