<svg xmlns="http://www.w3.org/2000/svg" viewBox="0 0 420 330"><defs/><filter id="a"><feGaussianBlur stdDeviation="12"/></filter><rect width="100%" height="100%" fill="#512945"/><g filter="url(#a)"><g fill-opacity=".5" transform="translate(.8 .8) scale(1.64063)"><circle r="1" fill="#ffba7d" transform="matrix(-58.52654 -105.15144 110.68674 -61.60745 85.4 144)"/><ellipse cx="213" cy="46" fill="#9b3105" rx="58" ry="162"/><circle r="1" fill="#eacbb0" transform="rotate(-168.8 50.6 60.8) scale(100.28167 27.69042)"/><circle r="1" fill="#b61f09" transform="rotate(-11.4 205.5 -357.6) scale(34.26972 68.14701)"/><circle r="1" fill="#dc6941" transform="matrix(21.14698 8.00735 -43.34117 114.46163 178 24.2)"/><path fill="#082a00" d="M103 0h54v35h-54z"/><circle r="1" fill="#000900" transform="matrix(12.24349 -17.82456 41.76515 28.68802 0 7)"/><ellipse cx="95" cy="146" fill="#ff3500" rx="12" ry="25"/><circle r="1" fill="#71a086" transform="matrix(-28.8043 25.6637 -116.88045 -131.18374 35.2 192.2)"/><circle cx="239" r="32" fill="#001207"/><circle r="1" fill="#9c1105" transform="rotate(-161.6 96.3 39.3) scale(44.85499 22.47062)"/><circle r="1" fill="#c6baa8" transform="matrix(21.50144 9.4414 -17.24855 39.28113 124.3 185.6)"/><circle r="1" fill="#e84a1f" transform="rotate(-78.1 43.3 -35.8) scale(24.01077 31.01462)"/><circle r="1" fill="#e090c8" transform="rotate(142.5 45 62.8) scale(43.21854 12.29042)"/><circle cx="55" cy="127" r="32" fill="#c9cfb6"/><ellipse cx="30" cy="66" fill="#a74145" rx="97" ry="27"/><circle r="1" fill="#000800" transform="matrix(-21.41131 -34.26526 8.68967 -5.4299 255 94.3)"/><circle r="1" fill="#b7675a" transform="rotate(-122.5 136.1 36.3) scale(52.80635 25.19552)"/><ellipse cx="154" cy="47" fill="#c89d6a" rx="35" ry="14"/><path fill="#245445" d="M0 182h35v17H0z"/><circle r="1" fill="#dd4d30" transform="rotate(133.6 88.6 42.3) scale(22.60711 34.36067)"/><path fill="#84180b" d="M193 104l43.6 62.2L217 180l-43.6-62.2z"/><circle r="1" fill="#7b3234" transform="matrix(-37.69848 -2.79437 1.64928 -22.25016 86.1 57.2)"/><ellipse cx="15" cy="67" fill="#cf6854" rx="41" ry="27"/><path fill="#f2b5d7" d="M74 100h34v25H74z"/><path fill="#1f0d00" d="M282.2 205l-39.8 16.1-14.6-36.1 39.8-16.1z"/><path fill="#e8ffdf" d="M153 68l-23-3 5 18z"/><circle r="1" fill="#d43015" transform="rotate(10.4 -518 842.3) scale(31.5457 7.98031)"/><circle cx="8" cy="11" r="30" fill="#071600"/><circle r="1" fill="#4e251b" transform="matrix(1.0033 -17.97028 36.61128 2.04407 221.5 61.1)"/><circle r="1" fill="#ee5845" transform="matrix(-4.2646 -13.9489 20.2382 -6.18744 96.1 158)"/><path fill="#a83877" d="M110.7 64.1l19.4 39.3-1.2-32.3 16.5-19.5z"/><circle r="1" fill="#b51e0c" transform="rotate(167.2 99.2 112.4) scale(10.72829 40.91359)"/><path fill="#1f241d" d="M105 20h56v14h-56z"/><path fill="#efd5e8" d="M110 72l1 33 7-22z"/><path fill="#031b12" d="M218 0h29v31h-29z"/><circle r="1" fill="#6b2c28" transform="matrix(-23.328 11.83497 -26.62573 -52.48218 227.8 123)"/><path fill="#f1ccda" d="M124.1 113.9L93 100.4l18.1 28.9 7.1-6.5z"/><circle r="1" fill="#aeb8a9" transform="matrix(60.90732 -5.03237 .4493 5.43794 83 200)"/><path fill="#a80063" d="M100 113l-11-1-1-10z"/><path fill="#ba4639" d="M237-12l34 30v28z"/><circle r="1" fill="#cc4a32" transform="matrix(9.69518 15.51553 -7.4019 4.62522 204.2 18.3)"/><path fill="#b02e71" d="M103.4 73.8L87.9 94.9l31.3 13.4-13.4-12.4z"/><path fill="#000d05" d="M243.7 89.5l-5.6-14.9 20.1 2.7-1.7 47.7z"/><path fill="#b3b38e" d="M4 95h44v30H4z"/><ellipse cx="77" cy="95" fill="#e44121" rx="25" ry="3"/><path fill="#6b4a3b" d="M37.3 153.5l-12.9-6.9-17.3-20.2 10.6 5.5z"/><path fill="#fd3a0e" d="M106.3 133l-6.1-5.9L86 169.5l6.9 4.1z"/><path fill="#b7ff3a" d="M181 34h6v14h-6z"/><circle r="1" fill="#a26050" transform="rotate(144.7 74.2 60.1) scale(20.67554 15.83926)"/><path fill="#13261a" d="M108 32l19 2-37-50z"/><path fill="#a4a78f" d="M55 157L7 190l8-36z"/><path fill="#bd8572" d="M99.4 179.7l5.4-39 25.2 12.8 10.2 36.2z"/><path fill="#964616" d="M126 65l6 27-11-14z"/><path fill="#171c0f" d="M18.3 40.6L15 17l24.7-3.5L43 37z"/><circle r="1" fill="#a67c71" transform="matrix(33.923 12.1462 -4.91075 13.7152 74.3 181.3)"/><path fill="#84109a" d="M134 57h10v10h-10z"/><path fill="#cbfb72" d="M148 64l7-8-18-8z"/><path fill="#97230c" d="M243.5 67.4l-19.2-33.1 11.4-4.1 24.7 3.6z"/><circle r="1" fill="#cb7365" transform="matrix(-4.42783 -28.80592 8.41595 -1.29364 47 69.5)"/><path fill="#ebb28e" d="M91.8 154l-11.7 24.6 5.4-25.8-10.9-54.1z"/><circle cx="175" cy="161" r="23" fill="#ac6f61"/><path fill="#cbc2ae" d="M117.1 142.2l34.1 38.9 2.4-21.6-34.6-22.2z"/><path fill="#c44228" d="M38.8 28.8L86.4-7.8l21.9 40.7-8 7.5z"/><path fill="#6a342e" d="M186 31h41v14h-41z"/><path fill="#953833" d="M191 80h33v31h-33z"/><path fill="#55113a" d="M104 56l5 24-15 2z"/><path fill="#191e14" d="M220.7 32.7l-7.4-16.5-18-32.2 72.3 44.8z"/><path fill="#ff8b22" d="M86 130l14-9-11 37z"/><path fill="#dd67c9" d="M101.4 103l13.1-38.5h5l-.3 11.7z"/><path fill="#995944" d="M-16 28.8l8.1 71.2 12.5 23.6 8.6-42.7z"/><path fill="#963f33" d="M119.4 35l-10.7 29.3-46.3 34-13-46z"/><path fill="#d17965" d="M115 34h61v16h-61z"/><path fill="#d4d5c9" d="M78.5 140.8l-41.8-17.2 47.4 8 30.5-36.4z"/><path fill="#ff69ff" d="M128 98l3-5-12-2z"/><path fill="#29251b" d="M234.6 30.7l-12.7 1.7L210-.9l28.2-.1z"/><circle r="1" fill="#dc5e37" transform="matrix(4.46595 -1.26374 9.42065 33.29187 157.2 .3)"/><path fill="#572722" d="M207.2 52.1l16.4-7.3 51.2 115-16.4 7.4z"/><path fill="#92200a" d="M190.4 144.8l-26.2-22.7 44.8 9.8 12.4 42.2z"/><path fill="#7f6c57" d="M49.5 166.5L18 182.6l27.1 8.4-16.2-48.9z"/><path fill="#f238d9" d="M98.5 125.1l5.3-11.9 3.7 1.7-5.3 11.9z"/><path fill="#ff3823" d="M78 153v17l11-22z"/><path fill="#d4be9c" d="M126 49h5v24h-5z"/><path fill="#beb39d" d="M47.2 167.7l-33.7-49.4 83.7 27.9-14.2-6.3z"/><path fill="#a1a138" d="M152.4 68.4l12.1-13.2-1.5-14.4-19.5 27.3z"/><path fill="#313121" d="M167 32l-59-3-17-45z"/><circle cx="118" cy="57" r="6" fill="#521141"/><path fill="#7c332b" d="M50.6 39.2L52.9 70l36-33.2-28.8.8z"/><ellipse cx="140" cy="130" fill="#d18a72" rx="26" ry="12"/><path fill="#b08371" d="M49.6 163.7L81 202.8l-4.4-47.1 12.5-14.8z"/><path fill="#98a382" d="M0 95h14v49H0z"/><path fill="#294c37" d="M9 189l-9-13-14 40z"/><path fill="#c1341b" d="M44 35l21 1L35-7z"/><path fill="#fae9eb" d="M99 122l-6-3 13-18z"/><path fill="#ddf2c0" d="M132 69l6 16 11-16z"/><circle r="1" fill="#d7cda9" transform="rotate(-129.3 64.7 38.2) scale(16.21207 9.29776)"/><path fill="#4e2720" d="M181.5 47.9l15.4 6.9 58.3 21.3-62 4.7z"/><path fill="#882044" d="M106 111l-.7-.7L118 99l.7.8z"/><path fill="#661a06" d="M245 38h11v38h-11z"/><path fill="#5e7519" d="M141 81.5l-.9-1.8 18.9-9.2.9 1.8z"/></g></g></svg>