<svg xmlns="http://www.w3.org/2000/svg" viewBox="0 0 420 330"><defs/><filter id="a"><feGaussianBlur stdDeviation="12"/></filter><rect width="100%" height="100%" fill="#754c40"/><g filter="url(#a)"><g fill-opacity=".5" transform="translate(.8 .8) scale(1.64063)"><circle r="1" fill="#fff" transform="rotate(50.3 -6.4 159.7) scale(255 93.59726)"/><circle r="1" fill="#f6ffff" transform="rotate(69.2 113.7 194.4) scale(21.23948 93.96061)"/><ellipse cx="48" cy="35" fill="#feffff" rx="61" ry="54"/><circle r="1" fill="#5b4838" transform="matrix(-26.7944 26.0564 -45.7454 -47.04102 158.3 115.1)"/><path d="M0 134h91v67H0z"/><circle r="1" fill="#edffff" transform="rotate(-22 521 -541) scale(19.88688 165.77766)"/><path fill="#fffff6" d="M86 216l180-38-171-23z"/><circle r="1" fill="#a1e2dc" transform="matrix(6.3001 44.81942 -11.05577 1.55407 13.2 98.5)"/><ellipse cx="82" cy="53" fill="#001726" rx="4" ry="89"/><circle r="1" fill="#030304" transform="matrix(-56.428 -.29546 .03481 -6.64868 157.1 111.2)"/><circle r="1" fill="#03242d" transform="rotate(129.8 105.2 93.7) scale(13.14797 35.05886)"/><ellipse cx="93" cy="76" fill="#fff" rx="7" ry="107"/><ellipse cx="236" cy="151" fill="#f3fbff" rx="28" ry="46"/><path fill="#2e3f29" d="M31 182l-7-79 45-13z"/><path fill="#e7e5e1" d="M212 61l-75 43h88z"/><circle r="1" fill="#fff" transform="matrix(-6.18747 44.59073 -36.002 -4.9957 43.1 26)"/><ellipse cx="149" cy="139" fill="#0b0000" rx="7" ry="25"/><circle r="1" fill="#cfe1f1" transform="rotate(174.6 115.7 19.3) scale(72.62809 15.92707)"/><path fill="#fac0bf" d="M108 115h37v30h-37z"/><path d="M201 103h7v64h-7z"/><path fill="#001900" d="M244-16l-84 1 60 32z"/><circle r="1" fill="#72a07b" transform="rotate(-160.8 23.6 41.5) scale(40.28163 15.05009)"/><path fill="#f9ffff" d="M68 29h12v103H68z"/><path fill="#30230a" d="M25 132h66v69H25z"/><path fill="#fff" d="M106.6 62.2l15.4-9.3 27.3 2.4-17.7-24.4zM85 0h14v129H85z"/><path fill="#e6f3ff" d="M9 101h13v33H9z"/><path fill="#b1d0de" d="M159 115h40v12h-40z"/><ellipse cx="223" cy="188" fill="#dac9b6" rx="135" ry="16"/><path fill="#868575" d="M100.4 36.4L97.8-.5l55.8-4 2.6 37z"/><path fill="#462c09" d="M132 55h13v44h-13z"/><path fill="#fff8ea" d="M95 162h61v25H95z"/><path fill="#c1a995" d="M-5.7 142.4l4.1-2.1 101.8-10.6-76.7 12.9z"/><ellipse cx="138" cy="102" fill="#ffffe4" rx="48" ry="3"/><circle r="1" fill="#b39c7a" transform="rotate(100.6 49.5 103.9) scale(28.85787 18.47741)"/><path fill="#724b30" d="M101 95h6v64h-6z"/><path fill="#80a9f2" d="M227 71h17v22h-17z"/><path fill="#e9f3ff" d="M271 105.2l-57.5 82.5-8.1-24.2 13.4-55.5z"/><path fill="#1c2509" d="M271 74l-55-8 55-28z"/><path fill="#bea57d" d="M103 107l29-38-33-35z"/><ellipse cx="96" cy="148" fill="#fff" rx="5" ry="47"/><ellipse cx="81" cy="49" fill="#091622" rx="2" ry="57"/><circle cx="196" cy="40" r="29" fill="#ccd0dc"/><path fill="#1b2837" d="M240 96l3.5-14.7 20.4 4.8-3.4 14.6z"/><path fill="#100800" d="M109 105h92v9h-92z"/><path fill="#f5ffff" d="M209 106h14v65h-14z"/><circle r="1" fill="#1d1606" transform="matrix(-9.03677 21.12065 -74.26532 -31.77547 37.3 190.7)"/><path fill="#a78c66" d="M164.3 105.4l92.4-9.5-5 10.3-13.1-.2z"/><path fill="#f7ffed" d="M56 114h23v16H56z"/><path fill="#342d28" d="M53.5 107.4l5.6 24.3-12.6 3-5.6-24.4z"/><path fill="#d2f0b8" d="M33 56h41v33H33z"/><circle r="1" fill="#5c806b" transform="rotate(-142.2 19 45) scale(9.18754 22.15496)"/><path fill="#fff" d="M129.9 54.2l9.8-14.5-2.5-10.3-25.1 25.7z"/><path fill="#280f02" d="M156.4 129.1l-.9-25.2-12.5 58.3 12.8-6.9z"/><path fill="#cbd4d9" d="M265 16.7l-36.6 27.7-17.5-23.1 36.7-27.7z"/><path fill="#f5fff2" d="M-16 74l94-25-2-65z"/><circle r="1" fill="#c8cbb7" transform="matrix(-5.24305 -.46839 4.05857 -45.43098 42.2 58.3)"/><ellipse cx="250" cy="189" fill="#d5c7b8" rx="160" ry="15"/><path fill="#a9ada6" d="M188.9 155.2l-34.5-15.4 8.7 27.4 15.8-.8z"/><path fill="#fff" d="M84 0h14v59H84z"/><path fill="#540903" d="M129 159h28v3h-28z"/><circle r="1" fill="#b8bec2" transform="matrix(17.95362 2.65116 -4.86552 32.94927 174.1 21)"/><ellipse cy="117" fill="#152119" rx="8" ry="10"/><path fill="#7aa68c" d="M53 90h21v25H53z"/><circle r="1" fill="#606540" transform="matrix(1.57358 3.99912 -27.1944 10.7005 238.7 54.6)"/><path fill="#b05059" d="M106 138l-1 18 28 4z"/><circle r="1" fill="#bc3944" transform="matrix(-6.26007 1.89369 -3.94406 -13.03811 195 155.2)"/><circle r="1" fill="#967c63" transform="matrix(-5.3758 -.72145 1.333 -9.9327 .5 44.5)"/><ellipse cx="212" cy="3" fill="#142a00" rx="20" ry="10"/><path fill="#434343" d="M56.4 125.8l-27-37-6.1 39.7L4 126.1z"/><path fill="#372c22" d="M135.3 73.6l1 21.4-8.7 4.6 23.2-.4z"/><ellipse cx="93" cy="104" fill="#fff" rx="7" ry="37"/><path fill="#aac7ce" d="M114.5 114.7l15.6 29 17.7.4-20.6 13.7z"/><path fill="#b9a183" d="M141.8 98l49.8-21.3-56.4-17.3 15-17.9z"/><path fill="#e1eeff" d="M178 98l49-24 1 24z"/><ellipse cx="83" cy="110" fill="#343b3c" rx="3" ry="28"/><path fill="#fff" d="M76-16L48 16l31 89z"/><path fill="#c0be92" d="M16.9 15.9L9.8 26.8-13 12.1l7.1-10.9z"/><path fill="#150a00" d="M150 114h6v47h-6z"/><path fill="#c7d2b7" d="M29 27h8v49h-8z"/><path fill="#95aab6" d="M156.6 132.4l-2-17 14.8-1.8 2 17z"/><path fill="#231b21" d="M203 106h6v50h-6z"/><path fill="#e2e9f8" d="M216.5 171.1l43.1 6.1 11.4-70.3-64-1z"/><path fill="#512719" d="M117 113l-7-8-7 14z"/><path fill="#abaaad" d="M98 9h15v47H98z"/><path fill="#281b2a" d="M207 168l-4-9-5 8z"/><path fill="#e5f5e9" d="M77.8 132.4l-32.2 6.8 15.7-1.8 17.4-52.3z"/><ellipse cx="155" cy="101" fill="#ffe1c1" rx="61" ry="2"/><path fill="#b4aa9f" d="M152 192l9 23-77-24z"/><circle r="1" fill="#5c7c89" transform="matrix(9.85347 1.47261 -2.14926 14.38103 178 142.5)"/><path fill="#f7e8da" d="M90.3 181.6L195.5 169l-99.9-13.4 12.7 39.6z"/><path fill="#3a2612" d="M18 141h74v26H18z"/><path fill="#53523e" d="M236.2 41.8l9.2 10.6-13.6 11.8-9.2-10.6z"/><path fill="#fff" d="M8 31L24-7l7 62z"/><path fill="#c65858" d="M146.6 161l-11.4-27.5 10.8-19.8-.6 40.7z"/><path fill="#d5bea3" d="M171 98h40v7h-40z"/><path fill="#b9d8dc" d="M114 117h25v7h-25z"/><ellipse cx="45" cy="8" fill="#aeba90" rx="2" ry="46"/><ellipse cx="83" cy="73" fill="#11181f" rx="1" ry="33"/><path fill="#41270f" d="M140.9 63l5.6-1.7 2.5-3.1L135.6 88z"/></g></g></svg>