<svg xmlns="http://www.w3.org/2000/svg" viewBox="0 0 420 330"><defs/><filter id="a"><feGaussianBlur stdDeviation="12"/></filter><rect width="100%" height="100%" fill="#4e4d35"/><g filter="url(#a)"><g fill-opacity=".5" transform="translate(.8 .8) scale(1.64063)"><circle r="1" fill="#fff5ff" transform="matrix(-130.12646 -51.87262 73.48876 -184.35219 141.1 116.4)"/><path fill="#0f1018" d="M168 175l-43-87-107 81z"/><circle r="1" fill="#f1eef9" transform="matrix(110.4478 18.13737 -7.90503 48.13781 255 81.9)"/><ellipse cx="207" cy="179" fill="#ebebfc" rx="50" ry="32"/><circle r="1" fill="#f9f7f5" transform="matrix(15.02132 19.11234 -34.99332 27.50296 63.6 75.4)"/><circle r="1" fill="#2f2630" transform="matrix(-1.36213 10.56063 -46.8283 -6.04003 192.4 136.4)"/><ellipse cx="22" cy="11" fill="#c1ac6b" rx="228" ry="42"/><circle r="1" transform="rotate(96.6 -16.8 129) scale(9.55841 59.91147)"/><path d="M117 61.1l-14.3-23.9 20.3-13 5.6 24.3z"/><circle r="1" fill="#454438" transform="matrix(32.91744 -6.27791 8.99377 47.1577 0 43.2)"/><ellipse cx="9" cy="138" fill="#324f75" rx="27" ry="33"/><path fill="#a8b0ce" d="M113 129L80 63l-69 93z"/><path fill="#272532" d="M104 77h41v24h-41z"/><path fill="#d1d4db" d="M128 171h55v27h-55z"/><ellipse cx="19" cy="95" fill="#f3f8ff" rx="45" ry="9"/><path fill="#a38b8b" d="M161.5 84.2l32.4 25.2-39.4 50.4-32.4-25.2z"/><circle r="1" fill="#5a3e28" transform="matrix(7.02105 6.82025 -17.67809 18.19857 189.6 125.8)"/><circle r="1" fill="#c6d2e7" transform="rotate(151.6 112.6 87.9) scale(37.57097 101.47525)"/><path fill="#00113e" d="M246.8 113.5l-1.7 10.9-11.9-2 1.7-10.8z"/><path fill="#e6debc" d="M56.9-8.8l-17 123.6L32.7 9.9-11.4.5z"/><path fill="#c3bcce" d="M73 81h65v13H73z"/><path d="M54 125l-17-14 12 17z"/><path fill="#5a565d" d="M91.7 80.1L73.9 67.2l31.8-3.3 4.7 62.7z"/><path fill="#e6dab5" d="M111 1.4L98.4 67 65 60.5 77.7-5z"/><path fill="#f3dba5" d="M8 29l-20 30 32-22z"/><path fill="#26271e" d="M56.3 154.5l.3 10-88.9 3-.3-10z"/><ellipse cx="197" cy="62" fill="#2b1700" rx="10" ry="3"/><path fill="#21290b" d="M9 9h24v20H9z"/><ellipse cx="170" cy="151" fill="#edeeff" rx="29" ry="4"/><circle r="1" fill="#bfb0a9" transform="matrix(-5.89436 -11.73394 60.62837 -30.4557 22.7 190.8)"/><path fill="#d9d3d5" d="M95 76h96l-58-28z"/><ellipse cx="109" cy="160" fill="#101508" rx="29" ry="14"/><path fill="#a27b4e" d="M181.3 31.5l7.5-5.9 4.9 39.1-6.3 16.2z"/><path fill="#5f5b5c" d="M0 45h33v44H0z"/><path fill="#ffe0ca" d="M206 110.4l-43.8-.3 26.9-34.5 51.7 51.9z"/><path d="M143 81h3v37h-3z"/><path fill="#aba6b9" d="M106.1 129.4l-7.3-47.9-43.7 60.1 18.3 5.4z"/><path fill="#2b261e" d="M152 142h84v5h-84z"/><path fill="#10130d" d="M102 93h30v15h-30z"/><ellipse cx="240" cy="44" fill="#4d2100" rx="3" ry="8"/><path fill="#c3c4cf" d="M171 172l-125 6 61 19z"/><ellipse cx="115" cy="42" fill="#3a2e0d" rx="12" ry="15"/><ellipse cx="64" cy="16" fill="#a78657" rx="4" ry="98"/><path fill="#dddee3" d="M29 63h48v44H29z"/><ellipse cx="255" cy="105" fill="#e8ecf7" rx="11" ry="67"/><path fill="#02153b" d="M199 131h45v3h-45z"/><path fill="#cbbf8c" d="M68 0h68v30H68z"/><path d="M99 78h46v3H99z"/><path fill="#ccc7de" d="M141.1 123.9l-5 .2-1.2-36 5-.2z"/><path fill="#8597c8" d="M207 87h32v16h-32z"/><path fill="#b2a09c" d="M125.9 133.4l27.6 5.7-28.4 6.2L97 125.9z"/><path fill="#fcfeff" d="M227 119.5l9-17.7-27 2.9 1.3 22.9z"/><path fill="#dddee9" d="M166 145l75 4-41 26z"/><path fill="#97acca" d="M18.7 160.6l-2.2-5.6-.9-31.7 32.2 22.1z"/><path fill="#04121b" d="M106 95h4v36h-4z"/><circle r="1" fill="#836ea9" transform="matrix(-11.15407 8.84061 -3.51797 -4.43857 172.9 161)"/><path fill="#d1d2d3" d="M48.3 191.3l-4.8 22.5-51.8-11 4.8-22.6z"/><path fill="#000300" d="M127 106h5v28h-5z"/><path fill="#9bacd8" d="M214 134h42v8h-42z"/><ellipse cx="215" cy="75" fill="#8f6645" rx="24" ry="2"/><circle r="1" fill="#634b36" transform="matrix(-24.57752 20.2883 -4.81044 -5.82743 77.4 153.5)"/><path fill="#7c8497" d="M68.7 104l31.6 41.3-70.1-36.8-14.9 2.6z"/><path fill="#000707" d="M160.3 172.7l-22.8-3.6 2.2-13.8 22.8 3.6z"/><path fill="#524b29" d="M10.3 80.3l7.3-46.7-1.7 2.1L39.2 19z"/><path fill="#edf2f2" d="M214.1 40.1l-18.4 21.4 75.3-6.3-50.3-9.4z"/><path fill="#b3c9fc" d="M227 115l-32 11 55 6z"/><path fill="#e8e5e0" d="M123.8 75.1L91.9 34.5 67.5 69.6l27.6-8.4z"/><path fill="#796660" d="M149 118l62-3-74 41z"/><path fill="#000100" d="M181 113h3v28h-3z"/><path fill="#f5fdff" d="M147 77h13v12h-13z"/><path fill="#8c7576" d="M173 197h35v4h-35z"/><path fill="#b9a9a7" d="M179 132l-15 7-15-37z"/><path fill="#645c47" d="M121 64h13v7h-13z"/><path fill="#dde0f5" d="M111 103h2v29h-2z"/><path fill="#c2c3d8" d="M123 100h2v32h-2z"/><path fill="#967c65" d="M78.6 80.7l-9.2-9L85.3 65l4.9 8z"/><path fill="#292017" d="M146.2 107.2l.9-7.6-3.2-17-9.1-7.2z"/><path fill="#210" d="M185 133h10v11h-10z"/><path fill="#f1f1f7" d="M3.7 88.6L-16 92.4v2.3l25.2 16z"/><path fill="#f2743f" d="M177.3 90.2l-.3 2.1 6.4-.8L185 75z"/><path fill="#e3e8e3" d="M131 44l-18 22 26-6z"/><circle r="1" fill="#c2a77c" transform="matrix(-15.52525 -16.9737 26.51325 -24.25074 160.1 26.9)"/><path fill="#cbdefb" d="M133 107h2v35h-2z"/><path fill="#62645c" d="M101 176l-26-12-11 9z"/><path fill="#4e5a67" d="M-16 118.3l37.5-16.8L-8 185.1-.9 73z"/><ellipse cx="128" cy="176" fill="#a2a6a9" rx="2" ry="20"/><path fill="#b6b8a9" d="M223.4 39.7l-9.2-58.3 44.4-7 9.2 58.2z"/><ellipse cx="45" cy="10" fill="#c3b685" rx="13" ry="38"/><path fill="#9ab8f5" d="M246.8 113.6l-15 1.6-2.6-24.8 15-1.6z"/><path fill="#132120" d="M34 154l37 2-1-11z"/><path fill="#768aa5" d="M38.6 127.6L21.7 109l23.8 49.1 17.1-31.7z"/><path fill="#c1beb1" d="M236.7 18.6l-32.8 30.2-12.6-.3-1.2-24.7z"/><path fill="#ccc9da" d="M164.2 157.1l3.4.9 9.7-15.1-39.5 10.5z"/><path fill="#f8ffff" d="M90.8 91.3l-16-4.3 8.8-7 6.7-.8z"/><path fill="#9c7469" d="M120.4 149.8l-15.9 1.4-1-11 16-1.4z"/><circle r="1" fill="#1b262d" transform="matrix(-.29477 2.13246 -24.9456 -3.44824 71.4 148.6)"/><path fill="#e3e3e4" d="M34 49h25v56H34z"/><path fill="#d9dce5" d="M197.3 175l-2-.2 3.4-37.8 2 .2z"/><ellipse cx="18" cy="168" fill="#907a65" rx="64" ry="4"/><path fill="#d6a57a" d="M214.9 94.5l-20 24-10.2-2 23.2-24.1z"/></g></g></svg>