<svg xmlns="http://www.w3.org/2000/svg" viewBox="0 0 420 330"><defs/><filter id="a"><feGaussianBlur stdDeviation="12"/></filter><rect width="100%" height="100%" fill="#654f3d"/><g filter="url(#a)"><g fill-opacity=".5" transform="translate(.8 .8) scale(1.64063)"><circle cx="92" r="198" fill="#9fcff3"/><circle r="1" fill="#602500" transform="matrix(-27.30787 -1.19229 4.02392 -92.16303 158.5 162.5)"/><circle r="1" fill="#d6e3da" transform="rotate(153.5 8.8 71.8) scale(83.40129 36.54473)"/><circle r="1" fill="#89c7e7" transform="rotate(-141.6 145.3 17.2) scale(86.07931 43.60409)"/><ellipse cx="185" cy="23" fill="#275082" rx="75" ry="23"/><path fill="#fffff4" d="M111 150h19v51h-19z"/><circle r="1" fill="#ab6837" transform="matrix(13.09518 9.35007 -42.50716 59.53313 129 121.1)"/><path fill="#fff" d="M48.2 182.8l2 6.8-40.4 11.6-2-6.8z"/><circle cx="139" cy="33" r="17" fill="#510400"/><path fill="#1e0a00" d="M43 191h66v10H43z"/><circle r="1" fill="#4a3116" transform="matrix(36.24747 -16.80162 6.24246 13.46736 194 167.6)"/><circle r="1" fill="#6594be" transform="matrix(-15.39542 49.42902 -90.83418 -28.2917 43.7 42.2)"/><ellipse cx="146" cy="74" fill="#e9bfa4" rx="13" ry="29"/><ellipse cx="17" cy="103" fill="#b2c2c8" rx="117" ry="25"/><path fill="#533217" d="M104 126h77v23h-77z"/><path fill="#7b2000" d="M59 162h14v20H59z"/><path fill="#f1d4a1" d="M97.1 139.5l31.1-38.9-33.2 3.5-67.6 92.5z"/><path fill="#5f1502" d="M161 48h10v82h-10z"/><path fill="#3871a1" d="M-16 33v40l140 2z"/><ellipse cx="240" cy="117" fill="#80aec3" rx="61" ry="37"/><path fill="#ffffdc" d="M114 151h15v50h-15z"/><circle r="1" fill="#5480ad" transform="matrix(-16.91003 33.62185 -103.34518 -51.97721 214.3 15.5)"/><path fill="#cb7b4f" d="M121.5 54.4L132.9 21l30.4 80.5-.5-61.3z"/><path d="M152 19l6 24-33-22z"/><path fill="#1f5a66" d="M234.3 165.3l34.5-6 7 39.4-34.6 6z"/><path fill="#f8e2da" d="M81 178l6 11 39-7z"/><path fill="#ac9a7e" d="M105 95l40 41 14-19z"/><ellipse cx="191" cy="183" fill="#483927" rx="47" ry="20"/><path fill="#9ab0c1" d="M271 75l-91 2-21-43z"/><path fill="#674223" d="M87 162h26v16H87z"/><path fill="#ebebfe" d="M36.3 179.8l27.4 3.9-54.2 15.8 18.8-11.4z"/><path fill="#421f11" d="M172 125l3-41-33 22z"/><circle r="1" fill="#86aec6" transform="rotate(22.6 -297.4 121.7) scale(49.42646 18.53145)"/><path fill="#12637f" d="M-16 180l5 21 48-20z"/><ellipse cx="207" cy="155" fill="#806249" rx="25" ry="9"/><ellipse cx="98" fill="#59779d" rx="66" ry="22"/><path fill="#a6c5ca" d="M229 137h27v26h-27z"/><path fill="#a22d17" d="M100 99h20v6h-20z"/><path fill="#94a3b2" d="M120.1 37.9l13-16.7-6.3 49.1L-16-.4z"/><path fill="#b2c9ce" d="M184 118h27v29h-27z"/><path fill="#8f7a69" d="M129.5 176.3l18 1.5-3 34-18-1.6z"/><path fill="#bf9e6d" d="M99 154.5l-15.6 20.8L65 161.5l15.6-20.8z"/><path fill="#87693d" d="M113.6 129.1L99.2 112l7 28.4.2 75.6z"/><path fill="#463d39" d="M39.5 216L2.4 198.7l75.2-2.2 15.8-31.8z"/><path fill="#b7bcc0" d="M36 142h22v52H36z"/><path fill="#382d20" d="M144 147l37 5-36-30z"/><path fill="#9f4e25" d="M141 58l-17-19 19-10z"/><path fill="#cccfc8" d="M137 55h7v50h-7z"/><path fill="#746d5f" d="M260.5 237.5l-11.2 4.3-35.8-93.3 11.2-4.3z"/><path fill="#faf6ca" d="M66 155l17-43 22-9z"/><ellipse cx="115" cy="198" fill="#ffeed1" rx="6" ry="31"/><circle r="1" fill="#6799b7" transform="matrix(-.82096 12.62177 -56.3399 -3.6645 236.2 108.7)"/><path fill="#3a2611" d="M147.1 169.2l86-6.2-78.7 18.4-7.3 19.5z"/><path fill="#67260a" d="M62 179l3-20 12 7z"/><path fill="#3b301e" d="M79 191.1l-95 17.5L93.6 216l17.6-26.3z"/><path fill="#1d231a" d="M117 114h33v2h-33z"/><path fill="#e2d8b0" d="M113.6 132.6l.9-15.6 22-8-30.8-2.6z"/><path fill="#000600" d="M144.8 34.8l8-19.3 4.1 23-9.6 7.3z"/><path fill="#7aa2be" d="M135.5 70.9l-9.2 40.1-31.8-35.8 39-20.3z"/><path fill="#bab395" d="M159.9 114.5l-17.6 9.2-11-7-4 .2z"/><circle r="1" fill="#b18575" transform="matrix(1.70787 -14.84899 11.43488 1.3152 155.6 83.2)"/><circle r="1" fill="#843e28" transform="matrix(6.63243 -1.48252 3.93149 17.58846 121.6 132)"/><path fill="#5d3626" d="M172.3 68.1l-9.9-24.6-7 7.8 25.5 58.5z"/><path fill="#4d4a48" d="M129 88h9v12h-9z"/><path fill="#d2cfdb" d="M2.5 196.8l46-17 21.3 13.5-32.2-3.9z"/><path fill="#7f6b52" d="M138.5 143l-2.6-19.1-7 42.1 79.3-.3z"/><path fill="#b8b38d" d="M190.1 126.6l-16.1-3.9.2 5.8-2.9-10.5z"/><path fill="#d7855c" d="M66 159l-11 24-7-7z"/><path fill="#d7c9b8" d="M143 51l16-11-24 41z"/><ellipse cx="18" cy="200" fill="#a3bba9" rx="18" ry="1"/><ellipse cx="108" cy="192" fill="#62412a" rx="2" ry="35"/><path fill="#421507" d="M117 150l-1-16 15 10z"/><path fill="#6d5945" d="M175 146h53l-68 27z"/><path fill="#4c769d" d="M271 34l-71 21-68-49z"/><path fill="#6393af" d="M11.3 106l31 8.2-1.6 5.8-31-8.2z"/><path fill="#bbb08c" d="M102 154.2l6 .7-2 16.9-6-.7z"/><path fill="#ffffd9" d="M133 111h8v3h-8z"/><circle r="1" fill="#7487a1" transform="rotate(-91.1 108.7 -104) scale(9.95959 42.61764)"/><path fill="#f7e3c5" d="M109 154.3l17.8 19.6 5.5-24.3-2.7-1z"/><path fill="#97acbc" d="M183.2 75.9l34.1-5.9-25.5-28-30.5 2.4z"/><path fill="#595a56" d="M145 69h4v25h-4z"/><path fill="#321808" d="M256.4 174l.8 3.9-21.6 4.2-.8-4z"/><path fill="#bdbeb7" d="M151 98.4l2.6-20.5L136 62.4l7.6-8.1z"/><path fill="#fab48c" d="M121.2 111.7l-1.3-2.7 33-14.7L154 97z"/><path fill="#e6e8f0" d="M43.8 177.1l.6-1.7-22.5 16.8 29.8-8z"/><path fill="#e6deae" d="M93 104l13 27-20 23z"/><path fill="#d8d9cf" d="M123.5 113.4l10-47 1 .2-10 47z"/><circle r="1" fill="#cad5d7" transform="rotate(-173.3 32.2 51.4) scale(40.48013 4.76296)"/><path fill="#c0917e" d="M126 27h8v18h-8z"/><path fill="#5d4936" d="M151 177h59v24h-59z"/><ellipse cx="98" cy="181" fill="#e5e2ec" rx="6" ry="5"/><path fill="#88653a" d="M106 120l12 14-24 34z"/><path fill="#632813" d="M143.1 55.4l-13.7-5.7 14-12.7-6 18.4z"/><path fill="#825a3e" d="M163 133h24v10h-24z"/><path fill="#b2cccb" d="M76 169.5l2.7 3-6.7 6-2.7-3z"/><path fill="#101614" d="M29 196h39v4H29z"/><path fill="#98563c" d="M118 121l6 25 5-34z"/><path fill="#24190b" d="M214.3 199.1l-23.2 2.6 41.4 14.3-4.8-23.5z"/><path fill="#201409" d="M152 114l-8-4 20-5z"/><path fill="#867e87" d="M117.7 176.1l-29.9 4.7-7 9.1-29.4-9z"/></g></g></svg>