<svg xmlns="http://www.w3.org/2000/svg" viewBox="0 0 420 330"><defs/><filter id="a"><feGaussianBlur stdDeviation="12"/></filter><rect width="100%" height="100%" fill="#49433f"/><g filter="url(#a)"><g transform="translate(.8 .8) scale(1.64063)"><circle cx="138" cy="99" r="185" fill="#fff" fill-opacity=".5"/><circle cx="217" cy="95" r="195" fill="#efe6db" fill-opacity=".5"/><circle cx="114" cy="106" r="52" fill="#6a6353" fill-opacity=".5"/><path fill-opacity=".5" d="M127 51h24v36h-24z"/><path fill="#171915" fill-opacity=".5" d="M2 87h24v89H2z"/><path fill="#354455" fill-opacity=".5" d="M230.1 28.2l4.5 42.7-46.7 5-4.5-42.8z"/><ellipse cx="91" cy="198" fill="#fff" fill-opacity=".5" rx="255" ry="21"/><path fill="#f8ffff" fill-opacity=".5" d="M77 77l43-93L271 3z"/><path fill="#fff" fill-opacity=".5" d="M214 146l35-162 22 126z"/><path fill="#f1feff" fill-opacity=".5" d="M110.9 47.6l33.6 66-21.4 10.8-33.6-66z"/><path fill="#fff" fill-opacity=".5" d="M26 0h27v96H26z"/><path fill="#332215" fill-opacity=".5" d="M126.7 122.6l-3 20.8-56.4-8 3-20.8z"/><ellipse cx="71" cy="179" fill="#fff6ec" fill-opacity=".5" rx="53" ry="34"/><circle r="1" fill="#61572e" fill-opacity=".5" transform="matrix(-2.89054 -20.2345 9.89074 -1.41291 170.8 116.1)"/><path fill="#fcffff" fill-opacity=".5" d="M151 0h35v95h-35z"/><path fill="#7a6d56" fill-opacity=".5" d="M51.8 107.8l2.4-70 12 .4-2.4 70z"/><path fill="#0a0000" fill-opacity=".5" d="M150 93l-25-10 24-37z"/><path fill="#9b7261" fill-opacity=".5" d="M135 178l-32-54 96 55z"/><path fill="#f9ffff" fill-opacity=".5" d="M-8.4 18.9l13-.7 3.8 73-13 .6z"/><path fill="#48331c" fill-opacity=".5" d="M84.5 106.5L67.8 94.1l10.4-6.2 34.2 5.6z"/><path fill="#fff" fill-opacity=".5" d="M271 92l-9-29-102 26z"/><circle r="1" fill="#73695e" fill-opacity=".5" transform="rotate(14.3 -486.5 317.7) scale(80.23186 7.90784)"/><circle r="1" fill="#c9cdca" fill-opacity=".5" transform="matrix(-28.42731 41.61361 -24.92404 -17.02625 100.9 46.6)"/><ellipse cx="252" cy="13" fill="#fff" fill-opacity=".5" rx="17" ry="82"/><path fill="#d9ab99" fill-opacity=".5" d="M271 172l-129 8 2-56z"/><circle r="1" fill="#817151" fill-opacity=".5" transform="rotate(-6.5 726.9 -128.2) scale(6.87889 49.94222)"/><circle r="1" fill="#cdd9e0" fill-opacity=".5" transform="rotate(-87.5 24.7 -19) scale(26.362 72.27519)"/><path fill="#fffff2" fill-opacity=".5" d="M297.6 189.9l-204.4 25-2.8-22.8 204.4-25z"/><path fill="#87665b" fill-opacity=".5" d="M222.8 88.7l-12.6 6.1-35.6 10.8 32.9 4.7z"/><path fill="#dce1e4" fill-opacity=".5" d="M138 123l-49-14 37-27z"/><path fill="#fff" fill-opacity=".5" d="M27 43h26v55H27zm146-12l21-47 77 19z"/><path fill="#564b40" fill-opacity=".5" d="M132.2 153.8l5-16.1-41.7-6.5 19.2 25z"/><circle r="1" fill="#777e73" fill-opacity=".5" transform="matrix(23.2331 2.90882 -.41698 3.33046 29 35.9)"/><ellipse cx="9" cy="163" fill="#1c222c" fill-opacity=".5" rx="9" ry="16"/><path fill="#c8bfb9" fill-opacity=".5" d="M50 92l31 15-62 28z"/><path fill="#93807a" fill-opacity=".5" d="M118.9 180.1l36 3 29.7-3.5 67.3-8.9z"/><circle r="1" fill="#fff5e5" fill-opacity=".5" transform="matrix(-29.1121 -3.7255 1.07602 -8.40833 250.6 146.2)"/><path fill-opacity=".5" d="M146 98l-7-14 2 14z"/><path fill="#738745" fill-opacity=".5" d="M151.4 119.5l39.7 3.7-13.5-13.2-40.4 2z"/><path fill="#291d0f" fill-opacity=".5" d="M127 54h23v35h-23z"/><path fill="#cfd1d0" fill-opacity=".5" d="M69.6 40.7l91.7-31.6 11 32.2-91.6 31.6z"/><path fill="#fff" fill-opacity=".5" d="M0 81l1 95-17-39z"/><path fill="#7b8794" fill-opacity=".5" d="M236 74l-42-41 36-13z"/><path fill="#fff" fill-opacity=".5" d="M252-8l19 77-53 75z"/><path fill="#debdad" fill-opacity=".5" d="M218.8 138.6l-36.9-16.7-42.6 49.1 131.7-7z"/><path fill="#0e0200" fill-opacity=".5" d="M94 122.2l-28.5-5.5.6-3 28.4 5.6z"/><ellipse cx="15" cy="148" fill="#424b56" fill-opacity=".5" rx="14" ry="21"/><path fill="#51482d" fill-opacity=".5" d="M81 110l-7-37 16 24z"/><circle r="1" fill="#e3e4da" fill-opacity=".5" transform="matrix(-.02562 1.20823 -37.91035 -.80396 139.3 108)"/><path fill="#747471" fill-opacity=".5" d="M247 103h3v35h-3z"/><ellipse cx="114" cy="76" fill="#d2d8d8" fill-opacity=".5" rx="13" ry="25"/><path fill="#babdc1" fill-opacity=".5" d="M221.4 27.7l17.1 53.8-2-58.9.5-10.1z"/><path fill="#d0d7d2" fill-opacity=".5" d="M5 100l3 11-24 3z"/><path fill="#e0d5c3" fill-opacity=".5" d="M145 91h9v16h-9z"/><path fill="#e9dbcc" fill-opacity=".5" d="M34 145l54 62-85 7z"/><path fill="#f1f4f5" fill-opacity=".5" d="M156.7 45.6l25.8 3.1-5.2 41.7-25.8-3.1z"/><path fill="#fff" fill-opacity=".5" d="M27 52h27v29H27z"/><path fill="#4b3a1b" fill-opacity=".5" d="M206 103l13-11-8 14z"/><path fill="#a6887e" fill-opacity=".5" d="M250.8 174.5l-11.6-11.4-.7 4.4-107.7 14.7z"/><path fill="#c2c4c1" fill-opacity=".5" d="M141.2 87.6l-52.5 14.5-2.9 11.2 37.9 10z"/><path fill="#dce4db" fill-opacity=".5" d="M66 88l4-46 38 5z"/><path fill="#9f9572" fill-opacity=".5" d="M99 89l-9-31 10 2z"/><path fill="#daece8" fill-opacity=".5" d="M0 34h9v38H0z"/><path fill="#bfa69e" fill-opacity=".5" d="M206 99l-35-6 19 50z"/><path fill="#18090e" fill-opacity=".5" d="M169 118l4 11-4 3z"/><ellipse cx="106" cy="33" fill="#bcbbba" fill-opacity=".5" rx="25" ry="13"/><path fill="#8f8169" fill-opacity=".5" d="M38 101h6v22h-6z"/><path fill="#8a826b" fill-opacity=".5" d="M11 32h15v68H11z"/><path fill="#dbdcdc" fill-opacity=".5" d="M142 121l3-21-52-1z"/><path fill="#beb3aa" fill-opacity=".5" d="M135.4 158.5l-42.6-.9-74.9-25.9 20.1-3.5z"/><circle r="1" fill="#f4f4f5" fill-opacity=".5" transform="rotate(-160.5 70 82.7) scale(46.41603 14.037)"/><path fill="#6e7373" fill-opacity=".5" d="M226.9 39.3l-9.8-14.9-33.6 53.8 27-5.3z"/><path fill="#b5ab90" fill-opacity=".5" d="M73 55l10 32 2-28z"/><ellipse cx="245" cy="189" fill="#fff1e3" fill-opacity=".5" rx="108" ry="13"/><path fill="#c5b9aa" fill-opacity=".5" d="M121 129h47v6h-47z"/><ellipse cx="157" cy="115" fill="#527322" fill-opacity=".5" rx="19" ry="3"/><path fill="#a08a80" fill-opacity=".5" d="M164 131l-44-10 53-4z"/><path fill="#867b65" fill-opacity=".5" d="M67 97l-4-54-10 48z"/><path fill="#4c4844" fill-opacity=".5" d="M247 104h9v3h-9z"/><path fill="#4d3c30" fill-opacity=".5" d="M119 141l4 12 22-19z"/><path fill="#fefcf4" fill-opacity=".5" d="M218.9 112l5.2-13.4 25.7 4.1-24.8 43.7z"/><circle r="1" fill="#8c8378" fill-opacity=".5" transform="rotate(85.1 -25.5 116.5) scale(2.52543 21.36029)"/><path fill="#42090c" fill-opacity=".5" d="M96 91h9v8h-9z"/><path fill="#d8d4c8" fill-opacity=".5" d="M47.3 127.5l-4.5-18.1 20.7.3 3.6 12.6z"/><path fill="#3f3b2b" fill-opacity=".5" d="M14 101l4 21-16-3z"/><path fill="#c0d0cd" fill-opacity=".5" d="M29.6 36.9l21.9 2.3-1 10-22-2.4z"/><path fill="#f7fdff" fill-opacity=".5" d="M185.2 92l-1-9.9 58.6-6.2 1 10z"/><path fill="#c2b6b0" fill-opacity=".5" d="M43 96h28v16H43z"/><path fill="#effcfd" fill-opacity=".5" d="M89.2 86.6l-5-.2.6-17 5 .2z"/><path fill="#2b3033" fill-opacity=".5" d="M28 150.2L.4 178l4.6 3.1 21.1-19.9z"/><path fill="#fdffff" fill-opacity=".5" d="M258.9 3.6l-63.5 24.3L187 6.4l63.5-24.3z"/><path fill="#947f6d" fill-opacity=".5" d="M138.8 183.5l-5.3-51.3-3.4 37.3 34.7 10.7z"/><path fill="#584335" fill-opacity=".5" d="M105.2 106.6l-2.3 13.2 31.9 7.1-41.9 1.2z"/><ellipse cx="163" cy="100" fill="#7f654b" fill-opacity=".5" rx="10" ry="6"/><path fill="#676f77" fill-opacity=".5" d="M12 127h13v26H12z"/><path fill="#93836f" fill-opacity=".5" d="M189 116h23v3h-23z"/><path fill="#fff" fill-opacity=".5" d="M254.3-35.5l5.4 102-20 1-5.4-102z"/><path fill="#968677" fill-opacity=".5" d="M271 136.9v23.8l-21.7-28.5-25.4 5.4z"/><path fill="none" stroke="#fff" stroke-opacity=".5" stroke-width=".5" d="M-.9 103.8q-.5 70 .3 105.6"/></g></g></svg>