<svg xmlns="http://www.w3.org/2000/svg" viewBox="0 0 395 264"><defs/><filter id="a"><feGaussianBlur stdDeviation="12"/></filter><rect width="100%" height="100%" fill="#513440"/><g filter="url(#a)"><g fill-opacity=".5" transform="translate(.8 .8) scale(1.54297)"><circle cx="144" cy="77" r="180" fill="#fff"/><circle cx="180" cy="56" r="226" fill="#fff"/><circle cx="144" cy="160" r="235" fill="#fff"/><ellipse cx="167" cy="83" fill="#87767c" rx="157" ry="18"/><ellipse cx="90" cy="80" fill="#fff" rx="12" ry="170"/><ellipse cx="20" cy="78" rx="3" ry="25"/><circle r="1" fill="#fff" transform="matrix(.2252 -32.25601 198.7913 1.38785 135.5 26.9)"/><path d="M103 55h5v38h-5z"/><circle r="1" fill="#fff" transform="matrix(250.44498 1.1546 -.1753 38.02329 113.6 138.2)"/><path d="M36 55h4v46h-4z"/><ellipse cx="51" cy="79" rx="3" ry="14"/><path fill="#1b0005" d="M237.4 65.5l5.8-12-.3 30.1-4.6 23.9z"/><ellipse cx="206" cy="79" fill="#0e0000" rx="3" ry="22"/><path fill="#130000" d="M163.9 58.7l9.5 26.5 10.9-18 2.4 25.2z"/><ellipse cx="146" cy="83" rx="3" ry="17"/><path d="M114 49l5 25 3-9z"/><ellipse cx="250" cy="92" fill="#fff" rx="9" ry="170"/><circle r="1" transform="matrix(2.24104 -.07105 .43694 13.7812 131.4 80.6)"/><path fill="#100000" d="M156 97h43v4h-43z"/><path fill="#22020e" d="M63 68l5.8 30.8-9.3-10.3 1.3-21.3z"/><ellipse cx="57" cy="139" fill="#fff" rx="240" ry="39"/><ellipse cx="58" cy="99" fill="#090000" rx="189" ry="1"/><path fill="#1d0008" d="M153.9 73.6l4.3 17.4-.6 6.9 5.7-31.7z"/><path fill="#fff" d="M22 66h12v33H22zm113.8 41.5l44.9-22.7-1.4 17.5-26-18zM212.7 59l21.7 31.5 13-106.5L-16 49.6z"/><path fill="#180003" d="M194 58h5v30h-5z"/><circle r="1" fill="#290915" transform="matrix(-8.32649 -13.83753 2.13265 -1.28329 222.2 77)"/><path fill="#fff" d="M198 0h7v153h-7z"/><ellipse cx="24" cy="55" fill="#150000" rx="18" ry="2"/><path d="M113 88l10 12-9-24z"/><path fill="#fff" d="M40 71h10v24H40z"/><ellipse cx="139" cy="74" fill="#fff" rx="5" ry="20"/><path fill="#fff" d="M119.7-16L161.3.6 116 80.2l17.4 44z"/><path fill="#150000" d="M35 53l2 35 5-22z"/><path d="M71 65l15 13-10-3z"/><path fill="#fff" d="M238.1 93.6L210.6 87l-1-17.6 35.5 43.4zM80 0h22v98H80z"/><ellipse cx="176" cy="105" fill="#6f5c62" rx="21" ry="2"/><path fill="#100" d="M17 62h5v34h-5z"/><ellipse cx="80" cy="22" fill="#fff" rx="249" ry="33"/><path fill="#573d47" d="M174.7 58.7l-7.9.7 5.4 32.9 3.2-36.4z"/><ellipse cx="152" cy="60" fill="#fff" rx="4" ry="170"/><path fill="#fff" d="M166 64h54v3h-54z"/><ellipse cy="77" fill="#fff" rx="16" ry="25"/><path fill="#fff" d="M225.3 186l-47.8-90.9-10 14.2L-16 154.7zM196 96h60v3h-60z"/><path d="M231.9 90l-2.3 2-13.5-16 2.3-2z"/><path fill="#fff" d="M192 66l-2 28-6-16z"/><path fill="#1b0001" d="M115 54l-8-1 16 10z"/><path fill="#543842" d="M60.5 94.9l3.1-29.3 23.7 10.5-18.1-11.8z"/><path fill="#230003" d="M103 58h5v38h-5z"/><path fill="#100000" d="M130 67h5v29h-5z"/><path fill="#fff" d="M56.8-16L-16 57.6l83-9.4-12.4 54.2z"/><path fill="#503741" d="M196 72l-13-5 11-8z"/><path fill="#040000" d="M144 68h4v26h-4z"/><ellipse cx="73" cy="97" fill="#fff" rx="82" ry="2"/><path fill="#fff" d="M107 61h5v31h-5z"/><ellipse cx="212" cy="65" fill="#fff" rx="3" ry="33"/><path fill="#23020f" d="M174.6 78.1l-11.5 17-7.9-16.5 12.6 14.2z"/><ellipse cx="255" cy="74" fill="#fff" rx="8" ry="170"/><circle r="1" fill="#fff" transform="rotate(-170.9 85.4 31.4) scale(5.25042 7.18672)"/><path fill="#fff" d="M65 70h9v21h-9z"/><path fill="#2f0b19" d="M116.4 80.5l-12.9-2.7 15.2-3.2-8.8 8.3z"/><circle r="1" fill="#0e0000" transform="matrix(-5.22282 -.3286 .0628 -.99803 47.3 67.3)"/><path fill="#21000b" d="M179 83l6 8h10z"/><path fill="#050000" d="M239 59h3v35h-3z"/><path fill="#fff" d="M232 69h5v102h-5z"/><path fill="#070000" d="M51 72h3v25h-3z"/><ellipse cx="162" cy="99" fill="#471d31" rx="84" ry="1"/><path fill="#f4f4f4" d="M177.7 90.2l-6.1-23 45.1-2.9-37.1-2.9z"/><path fill="#0c0000" d="M62 77h18v2H62z"/><path fill="#2d0415" d="M205 58h5v37h-5z"/><path fill="#fcfefd" d="M227.4 69.9l-8 3.5 1.1-25.4-17.4 18.6z"/><path fill="#f9f9f9" d="M206.5 77.9l-17.3-23.6 16.1 34.3-18.7 8.6z"/><path fill="#4a303a" d="M231 71l-3-6-11 2z"/><path fill="#fff" d="M219 71l14 13-8-17zM34 92V51L23 89zm100-24h8v26h-8z"/><path fill="#0d0000" d="M170 99h4v5h-4z"/><circle cx="76" cy="87" r="3"/><path fill="#fff" d="M40 0h60v66H40z"/><path fill="#3b1b27" d="M194.7 93.2l4 9.1-5.4 2.5-4-9.1z"/><path fill="#fff" d="M35-15.5l62.5 26.3 4.7 70.7-9.7 16.6zm177.3 112l50.1 89.5-63-95.3-60 3.1z"/><path d="M121.8 66.3l-6.7 10-.9-.6 6.7-10z"/><path fill="#fff" d="M65 96h-8l1-12z"/><path d="M231 90.7l.7.7-6.8 6-.6-.8z"/><path fill="#1e0008" d="M161.3 89.9l-6.6-10.1 4.6-14 2.5 24.3z"/><path fill="#fff" d="M247.6 125.9l-38-45.8 15.7 5.9.9 31.5z"/><ellipse cx="49" cy="136" fill="#fff" rx="200" ry="36"/><path fill="#fff" d="M118 80l9-21 2 34z"/><path fill="#190000" d="M237 66h3v27h-3z"/><path fill="#351320" d="M133 93h18v3h-18z"/><ellipse cx="86" cy="100" fill="#b9afb3" rx="161" ry="1"/><ellipse cx="172" cy="76" fill="#120000" rx="3" ry="8"/><path fill="#1c0000" d="M18 57h4v27h-4z"/><path fill="#170000" d="M60 71h5v19h-5z"/><circle r="1" fill="#fff" transform="matrix(-.24757 -7.08943 4.93811 -.17244 165 80.2)"/><ellipse cy="83" fill="#fff" rx="18" ry="17"/></g></g></svg>