<svg xmlns="http://www.w3.org/2000/svg" viewBox="0 0 933 1400"><defs/><filter id="prefix__a"><feGaussianBlur stdDeviation="12"/></filter><rect width="100%" height="100%" fill="#46546e"/><g filter="url(#prefix__a)"><g transform="translate(2.7 2.7) scale(5.46875)"><circle cx="78" cy="209" r="228" fill="#fff" fill-opacity=".5"/><circle r="1" fill="#000f26" fill-opacity=".5" transform="matrix(-20.2505 -80.73355 48.31471 -12.11884 82 120.3)"/><ellipse cx="86" cy="231" fill="#fff" fill-opacity=".5" rx="169" ry="32"/><circle r="1" fill="#fff" fill-opacity=".5" transform="rotate(90.2 35 49.9) scale(29.11955 168.99999)"/><ellipse cx="154" cy="78" fill="#fff" fill-opacity=".5" rx="23" ry="208"/><ellipse cx="10" cy="148" fill="#fff" fill-opacity=".5" rx="19" ry="255"/><path fill="#131c35" fill-opacity=".5" d="M29 43h101v41H29z"/><path fill="#354d61" fill-opacity=".5" d="M30 128h58v72H30z"/><ellipse cx="50" cy="226" fill="#fffff9" fill-opacity=".5" rx="167" ry="27"/><ellipse cx="161" cy="111" fill="#fffff9" fill-opacity=".5" rx="29" ry="134"/><ellipse cx="7" cy="122" fill="#fff" fill-opacity=".5" rx="22" ry="255"/><ellipse cx="77" cy="11" fill="#fffff9" fill-opacity=".5" rx="168" ry="33"/><path fill="#fff8e0" fill-opacity=".5" d="M77.8 240.8l43.1-163 9.8 29.6-8.2-7.8z"/><path fill="#0d213f" fill-opacity=".5" d="M133.9 149.4l-.5 49.1-31.2 2.3 23.2-18.4z"/><ellipse cx="79" cy="147" fill="#2c1c04" fill-opacity=".5" rx="43" ry="8"/><path fill="#252b37" fill-opacity=".5" d="M94 44h36v33H94z"/><path fill="#e6e3d8" fill-opacity=".5" d="M113.2 75.1l11.9 42.3 38.1 64-28.1-54.9z"/><ellipse cx="79" cy="88" fill="#344a72" fill-opacity=".5" rx="39" ry="37"/><path fill="#dbddd6" fill-opacity=".5" d="M108.1 142.8l-19.4 77.6-4.8-1.2 19.4-77.6z"/><path fill="#516b89" fill-opacity=".5" d="M33 155h57v45H33z"/><ellipse cx="5" cy="126" fill="#fffffc" fill-opacity=".5" rx="23" ry="98"/><ellipse cx="106" cy="236" fill="#f3f1e8" fill-opacity=".5" rx="169" ry="36"/><path fill="#3f4248" fill-opacity=".5" d="M124.3 88.7l-19-46.6 24.4 17.3 2.9 43.5z"/><path fill="#f9f4ee" fill-opacity=".5" d="M185 44l-40 207-17-236z"/><ellipse cx="83" cy="12" fill="#f5f2ef" fill-opacity=".5" rx="169" ry="31"/><path fill="#505a6d" fill-opacity=".5" d="M29 46h31v92H29z"/><path fill="#bcb6a9" fill-opacity=".5" d="M131.9 111.5l-12.2-36.4-5.5 1.5 3.9 16.9z"/><path fill="#2a2b26" fill-opacity=".5" d="M132 148l-20-14-6 25z"/><path fill="#3b526c" fill-opacity=".5" d="M98 178h36v22H98z"/><path fill="#7da1cf" fill-opacity=".5" d="M29 132h9v27h-9z"/><path fill="#e8debc" fill-opacity=".5" d="M101 265.5v-21h114v21z"/><path fill="#fffde7" fill-opacity=".5" d="M117 113h22v2h-22z"/><path fill="#373341" fill-opacity=".5" d="M62 69l67-19-99-1z"/><path fill="#63747e" fill-opacity=".5" d="M27.6 122.6L102 137l-23.2 4-45-.9z"/><path fill="#e1d9ba" fill-opacity=".5" d="M0 245h33v11H0z"/><path fill="#4f637a" fill-opacity=".5" d="M47 157h38v44H47z"/><ellipse cx="52" cy="219" fill="#f0f2f4" fill-opacity=".5" rx="144" ry="20"/><path fill="#e6e7e4" fill-opacity=".5" d="M76.2 227L95 178.6l.9.4L77 227.5z"/><path fill="#8c7f74" fill-opacity=".5" d="M130 64l-8-8 8-13z"/><path fill="#fbf9f4" fill-opacity=".5" d="M135 167h35v35h-35z"/><ellipse cx="76" cy="111" fill="#3b598d" fill-opacity=".5" rx="36" ry="9"/><circle r="1" fill="#64759a" fill-opacity=".5" transform="matrix(-.42501 4.54201 -18.4269 -1.72426 56.8 158.6)"/><path fill="#2d2824" fill-opacity=".5" d="M42 141h55v12H42z"/><ellipse cx="151" cy="51" fill="#f1eeeb" fill-opacity=".5" rx="21" ry="137"/><path fill="#394560" fill-opacity=".5" d="M33 44h69v57H33z"/><path fill="#566c7a" fill-opacity=".5" d="M105.7 156.1l24.8-.5-37.2 42.6 9.4-33.7z"/><path fill="#2a2735" fill-opacity=".5" d="M94 45h30v13H94z"/><path fill="#36477f" fill-opacity=".5" d="M54 192h34v7H54z"/><path fill="#bfb7a4" fill-opacity=".5" d="M122.6 87.7l-6.9 1.4-2.3-10.8 6.9-1.4z"/><path fill="#e5d9c3" fill-opacity=".5" d="M120.3 98.1l-19.6 64-1-.2 19.6-64z"/><path fill="#323b45" fill-opacity=".5" d="M113 86l7-30-38 23z"/><path fill="#6b7586" fill-opacity=".5" d="M30 72h5v59h-5z"/><path fill="#394e73" fill-opacity=".5" d="M32 58l71 79 14-43z"/><path fill="#4e5c6d" fill-opacity=".5" d="M134 199l-2-64-27 64z"/><ellipse cx="60" cy="11" fill="#f1f2ef" fill-opacity=".5" rx="169" ry="32"/><path fill="#454c50" fill-opacity=".5" d="M127 67h4v32h-4z"/><path fill="#516a9a" fill-opacity=".5" d="M63 156h33v10H63z"/><path fill="#f3ecdb" fill-opacity=".5" d="M29.8 246.5l112-2 .4 19-112 2z"/><path fill="#5f697a" fill-opacity=".5" d="M127 102l-9-11v-9z"/><path fill="#f9f9f6" fill-opacity=".5" d="M0 42h28v162H0z"/><path fill="#282b29" fill-opacity=".5" d="M99.8 155.1l-22.3-5.5 2.7-10.7 22.3 5.5z"/><ellipse cx="159" cy="222" fill="#eeefed" fill-opacity=".5" rx="85" ry="24"/><path fill="#b1b8b5" fill-opacity=".5" d="M93.1 175.1l19.7-59.6-21.2 83-4.5 2z"/><path fill="#b5b5b5" fill-opacity=".5" d="M115 111l4 6 14-4z"/><ellipse cx="30" cy="160" fill="#7b9dca" fill-opacity=".5" rx="2" ry="37"/><path fill="#4e625f" fill-opacity=".5" d="M36 121h68v13H36z"/><path fill="#2d2a24" fill-opacity=".5" d="M111 140h14v14h-14z"/><path fill="#f1edda" fill-opacity=".5" d="M131 102.5l7.7 17.4-3.7 1.6-7.7-17.4z"/><circle r="1" fill="#55676f" fill-opacity=".5" transform="matrix(7.55096 -4.03012 9.45115 17.70797 53.8 175.5)"/><path fill="#393746" fill-opacity=".5" d="M32 49h73v10H32z"/><circle r="1" fill="#4c5e67" fill-opacity=".5" transform="matrix(-2.27781 -.39345 1.88564 -10.9167 115.4 128.3)"/><path fill="none" stroke="#e8e7df" stroke-opacity=".5" stroke-width=".5" d="M181.6 271q-59.2-167-63.4-182.3"/><ellipse cx="167" cy="97" fill="#f9f6f3" fill-opacity=".5" rx="8" ry="72"/><path fill="#f4f5f3" fill-opacity=".5" d="M4 225h125v20H4z"/><path fill="#6684a3" fill-opacity=".5" d="M29 43h52v2H29z"/><path fill="#4a4e54" fill-opacity=".5" d="M34 74h18v26H34z"/><path fill="#577bb6" fill-opacity=".5" d="M30 197h36v3H30z"/><circle r="1" fill="#8090a6" fill-opacity=".5" transform="rotate(178.8 14.6 59.1) scale(1 56.56987)"/><path fill="#384e73" fill-opacity=".5" d="M83.1 67.5L39 115.3l68.4-60.4 2 18.6z"/><path fill="#e7dabc" fill-opacity=".5" d="M124.2 90.6l6.5 12.3-.9.5-6.5-12.3z"/><ellipse cx="106" cy="43" fill="#9b9985" fill-opacity=".5" rx="22" ry="1"/><path fill="#475b69" fill-opacity=".5" d="M93 199l38-23-30-5z"/><path fill="#3e4d7c" fill-opacity=".5" d="M97 192h38v7H97z"/><path fill="#282c2c" fill-opacity=".5" d="M102.7 145.5l-15 1-.4-6 15-1z"/><path fill="none" stroke="#ded6c5" stroke-opacity=".5" stroke-width=".5" d="M116.6 88.2q16.8 36 21.2 58.6"/><path fill="#445b85" fill-opacity=".5" d="M37 66h17v9H37z"/><path fill="#586a7b" fill-opacity=".5" d="M55 116h14v26H55z"/><path fill="#f1ede9" fill-opacity=".5" d="M134 26h29v147h-29z"/><path fill="#444" fill-opacity=".5" d="M128.6 93.2l-8.1-16 .9-.4 8.1 16z"/><path fill="#6c7879" fill-opacity=".5" d="M131 173l-24-12-4 8z"/><path fill="none" stroke="#58657b" stroke-opacity=".5" stroke-width=".5" d="M114.7 74q15.9 41 17.8 48.7"/><path fill="#373431" fill-opacity=".5" d="M41 140h52v14H41z"/><path fill="#4e647b" fill-opacity=".5" d="M54.9 200l-.4-26.4-15.8 25.9-9.1-21.7z"/><path fill="#e6e0ca" fill-opacity=".5" d="M120 265.5v-21h54v21z"/><path fill="#53688d" fill-opacity=".5" d="M125.5 159.6l-21.6 7.9-.4-7.1 6.7-3.8z"/><path fill="#687890" fill-opacity=".5" d="M33.4 139.5l.2-4 29 1-.2 4z"/><path fill="none" stroke="#eae9e3" stroke-opacity=".5" stroke-width=".5" d="M51.8 256.6Q78 248 97 182.2"/><path fill="none" stroke="#5f6c7a" stroke-opacity=".5" stroke-width=".5" d="M132.5 113q.5 76.5-7.9 85"/><path fill="#566c82" fill-opacity=".5" d="M99 130l-12 10-11-10z"/><path fill="#333e4f" fill-opacity=".5" d="M88.2 76.9l36.4-25.1-8.7 27-22.4 15.3z"/></g></g></svg>