<svg xmlns="http://www.w3.org/2000/svg" viewBox="0 0 1312 1050"><defs/><filter id="a"><feGaussianBlur stdDeviation="12"/></filter><rect width="100%" height="100%" fill="#4c3a2d"/><g filter="url(#a)"><g fill-opacity=".5" transform="translate(2.6 2.6) scale(5.125)"><circle cx="121" cy="122" r="193" fill="#fff"/><ellipse cx="29" cy="109" fill="#fff" rx="46" ry="203"/><circle r="1" fill="#fff" transform="matrix(7.3458 165.11367 -43.30936 1.9268 227.5 110)"/><circle r="1" fill="#00204b" transform="matrix(-21.233 -87.7672 53.50022 -12.943 130 102.5)"/><ellipse cx="126" cy="195" fill="#fff" rx="255" ry="12"/><ellipse cx="95" cy="7" fill="#fff" rx="255" ry="11"/><circle r="1" fill="#fff" transform="matrix(6.38528 -193.20741 42.84354 1.41593 31 104.7)"/><ellipse cx="223" cy="113" fill="#fff" rx="39" ry="180"/><path fill="#1c2846" d="M76 17h107v51H76z"/><path fill="#466584" d="M75 138h108v47H75z"/><ellipse cx="120" cy="9" fill="#fff" rx="113" ry="10"/><circle r="1" fill="#e6e1d1" transform="matrix(-9.25929 -28.7195 5.28037 -1.70241 176 81.6)"/><circle r="1" fill="#fffae0" transform="rotate(-163.6 84.5 68.6) scale(2.81091 112.28854)"/><ellipse cx="37" cy="115" fill="#fff" rx="37" ry="203"/><circle r="1" fill="#fff" transform="rotate(-179.7 64 97.7) scale(84.9968 11.03226)"/><path fill="#231600" d="M93 121h86v15H93z"/><path fill="#fdfaf6" d="M184 0h72v128h-72z"/><path fill="#202a3b" d="M139 18h41v36h-41z"/><path fill="#3c4d5d" d="M152 151h35v32h-35z"/><circle r="1" fill="#334970" transform="matrix(-27.8668 22.98906 -25.07717 -30.39795 129.4 69.5)"/><ellipse cx="237" cy="139" fill="#f7f6f2" rx="52" ry="126"/><path fill="#466890" d="M119 184l-43-3-2-68z"/><path fill="#ccc9be" d="M138.1 174.2l4.9 1.6 26.8-85.4 3-29.2z"/><path fill="#efece9" d="M199.4 219l32.3-235-48.5 1.3-1.7 52.9z"/><path fill="#434b61" d="M74 19h33v56H74z"/><path fill="#f3f5f1" d="M0 0h188v18H0z"/><path fill="#f7f9f7" d="M71-16l4 229-91-58z"/><path fill="#49596d" d="M176 113h10v71h-10z"/><path fill="#373a48" d="M184 85.5L160.9 21 75.2 32.1 183 43.8z"/><ellipse cx="97" cy="194" fill="#f3f4f3" rx="244" ry="10"/><path fill="#7c95b1" d="M75.6 163.2l10.3-55.1-12.1-29-1.3 26.3z"/><path fill="#29251f" d="M88 122h63v13H88z"/><path fill="#e8ddcc" d="M165 92h17v3h-17z"/><path fill="#4d5f70" d="M94 182l41 2-48-48z"/><path fill="#e0dbca" d="M170.3 52.3l-2-.4 24.4 64.1-18.5-56.6z"/><path fill="#3b598d" d="M94 82h62v18H94z"/><path fill="#4f5b67" d="M74 25l5 91 29-12z"/><path fill="#373f57" d="M118.8 20l56.3 25.7-99.2-8-1.2-20.1z"/><circle r="1" fill="#56616e" transform="matrix(13.30138 30.83986 -.91823 .39604 171.6 67.5)"/><ellipse cx="29" cy="58" fill="#f5f6f4" rx="45" ry="156"/><path fill="#61759b" d="M84.7 134.2l-12.5 6.2 51.9 8.3 27.4-8.5z"/><path fill="#2e2e3f" d="M144.9 21l-30.1 5.2L174 38l.1-19.5z"/><circle r="1" fill="#cac5b9" transform="matrix(2.29202 .64426 -7.79283 27.72389 161.6 102.2)"/><ellipse cx="76" cy="69" fill="#707988" rx="4" ry="26"/><path fill="#f0ede9" d="M183 0h25v64h-25z"/><path fill="#505d6e" d="M155 144h31v41h-31z"/><path fill="#536372" d="M180.4 168l-6.2-71.6-3.3-16 10.5 20.9z"/><path fill="#827a72" d="M174 27h6v13h-6z"/><path fill="#3c4d71" d="M88.9 38.4l-15.3-8.9L112 84.8l60.8-10.5z"/><circle r="1" fill="#f5f3ef" transform="matrix(-10.91817 -56.69727 52.82313 -10.17213 240.7 175.7)"/><path fill="#3a352d" d="M83 119l4 15 49 2z"/><path fill="#36393b" d="M140 48h22v14h-22z"/><path fill="#282721" d="M165 120l6 16-15 2z"/><path fill="#48698e" d="M80 18h59v2H80z"/><path fill="#86897a" d="M149.9 157.4l24.7-.5-35.7-8.7 47.5 8.5z"/><path fill="#e2dbca" d="M196 132.4l-1.9.7-28-69.5 1.8-.7z"/><path fill="#454a54" d="M79 51h24v28H79z"/><path fill="#7596c7" d="M75 130l13 12-14-38z"/><path fill="#f0ede9" d="M185 6h29v124h-29z"/><path fill="#3b4a74" d="M154.4 173.7l30.5-1.7 2.9 11.7h-43.6z"/><circle r="1" fill="#d0cabf" transform="matrix(-.96815 -.25038 25.44107 -98.37334 143.7 175.3)"/><path fill="#a5a9ae" d="M163 91h21v6h-21z"/><path fill="#435857" d="M155 117l-51-19 54 3z"/><path fill="#5f7283" d="M81 115h40v7H81z"/><ellipse cx="77" cy="195" fill="#f3f4f3" rx="37" ry="12"/><path fill="#5b666c" d="M183 96h2v48h-2z"/><path fill="#3d5991" d="M85 175h43v9H85z"/><ellipse cx="75" cy="163" fill="#7599c7" rx="2" ry="21"/><path fill="#384d72" d="M148.7 26.6l-20.2 43.1-45.9-4 76.5-23.1z"/><path fill="#444a4d" d="M174 59l5-9 3 24z"/><path fill="#e5dec9" d="M173.7 65.8L168.5 55l1.8-.8 5.2 10.8z"/><path fill="#5b6c74" d="M84.9 135.9L97 185.4l24.9-30.8-39.5-19.7z"/><ellipse cx="177" cy="28" fill="#bb987a" rx="2" ry="4"/><path fill="#ebe8e4" d="M205.7 163.1l-3.1-129.3 18.8 124.3-44-63.4z"/><path fill="#313c4c" d="M175.1 19.7l-33.5 45.4-4.3 11.8 39.5-39.5z"/><path fill="#eeefed" d="M110 185h146v19H110z"/><path fill="#f4f6f3" d="M73.6 62.5L1.5-16l-12.9 138.6 84.3-10.5z"/><path fill="#fafafb" d="M51 157h23v28H51z"/><path fill="#3b3b4a" d="M126 45.9L74 31.5 90.7 23l57.5.8z"/><path fill="#f1f1ef" d="M6 0h162v18H6z"/><path fill="#45608f" d="M85.1 95.7l34.4 2.5 4-14.2-38.9 7.5z"/><circle cx="173" cy="110" r="10" fill="#45585a"/><path fill="#354a6d" d="M123.6 70.8l29.6 30.6.5 16.7 14-50.2z"/><path fill="#435b85" d="M102 50.1l-18.8 2.7-1.2-9 18.8-2.6z"/><path fill="#2f2d39" d="M146 20h36v6h-36z"/><path fill="#ecebe9" d="M44.3-16l108.3 34.7 44.4-.4 7.2-14.9z"/><path fill="#3c3939" d="M87.5 120l41.9 2-1.4-4.8-38.6 18.7z"/><path fill="#c6beaf" d="M166 54.8l11 30-1 .4-11-30z"/><path fill="#48659b" d="M100 142h47v5h-47z"/><path fill="#3c4367" d="M134 183l-18-1 18-12z"/><path fill="#b2b0a9" d="M155.4 123.6l-1.6-3.8-1.7 23.8 2.5 4.9z"/><path fill="#394a6a" d="M74 19h69v6H74z"/><path fill="#5e728c" d="M155 140l17-2-21 16z"/><path fill="#dfd7c6" d="M166 92h19v2h-19z"/><path fill="#f4f4f2" d="M12 0h61v91H12z"/><path fill="#e5e1d9" d="M181.8 86.7l6.8.5 34.7 36.3-47.8-50.3z"/><path fill="#3c4a5d" d="M175 93l-3.9-9.2 1.9-.8 3.9 9.2z"/><path fill="#4f666b" d="M116 147l21 28 8-27z"/><path fill="#5b7687" d="M130 110h16l-12 10z"/><path fill="#4d5a72" d="M86 173l-8-2-2-12z"/></g></g></svg>