<svg xmlns="http://www.w3.org/2000/svg" viewBox="0 0 1400 933"><defs/><filter id="a"><feGaussianBlur stdDeviation="12"/></filter><rect width="100%" height="100%" fill="#3b281e"/><g filter="url(#a)"><g fill-opacity=".5" transform="translate(2.7 2.7) scale(5.46875)"><circle r="1" fill="#ffe7b9" transform="matrix(6.83355 -111.7275 214.96439 13.14779 122.8 75.6)"/><path fill="#e7cfbe" d="M271 16v111L173 14z"/><ellipse cx="104" cy="11" rx="175" ry="4"/><circle r="1" fill="#985b3a" transform="rotate(-93.1 101.5 62.3) scale(52.05684 121.4798)"/><ellipse cx="91" cy="65" fill="#d0a284" rx="79" ry="49"/><circle r="1" fill="#f0c19a" transform="rotate(99.6 59.4 138.3) scale(45.22425 10.44627)"/><path fill="#fffff8" d="M35 63l-12 47 16 3z"/><circle r="1" fill="#bc7f57" transform="matrix(-15.12742 37.82126 -97.58487 -39.03116 160.5 148.1)"/><ellipse cx="234" cy="1" fill="#f8ddcf" rx="58" ry="8"/><ellipse cx="55" cy="147" fill="#24251a" rx="19" ry="10"/><ellipse cx="235" cy="143" fill="#462513" rx="3" ry="95"/><ellipse cx="5" cy="108" fill="#695833" rx="8" ry="121"/><circle r="1" fill="#51362b" transform="matrix(-1.61451 27.77201 -7.12375 -.41414 184 103.4)"/><ellipse cx="92" cy="39" fill="#cabca9" rx="28" ry="20"/><ellipse cx="48" fill="#e3ad93" rx="90" ry="9"/><path fill="#5d4637" d="M213.1 50.5l-8.6-14.7 13.4 3.2 3.7 45.4z"/><ellipse cx="207" cy="27" fill="#e0c5ac" rx="48" ry="11"/><ellipse cx="17" cy="13" fill="#1f0700" rx="57" ry="4"/><path fill="#5b4533" d="M90 58l25 2-20 12z"/><ellipse cx="96" cy="39" fill="#5e432d" rx="11" ry="5"/><path fill="#5c4d3b" d="M49.7 38.9l6-9.9 12 28.5-28.3-25z"/><circle r="1" fill="#c28859" transform="matrix(15.23865 46.3486 -22.04574 7.24827 134.7 101.9)"/><path fill="#180508" d="M202 10h54v5h-54z"/><path fill="#c7a187" d="M17.2 141.3l3.8-30.8 17.8 2.2-3.8 30.8z"/><path fill="#766048" d="M37 74l27 64-20 1z"/><path fill="#c99972" d="M218 109l-50 28 78 36z"/><ellipse cx="127" cy="10" fill="#190100" rx="81" ry="2"/><path fill="#dec6ae" d="M73.8 94.1l15.4-12.7.2-10.8L77.5 19z"/><path fill="#dbb99e" d="M200 52l-25-18 17 42z"/><ellipse cx="255" cy="85" fill="#cfb098" rx="19" ry="54"/><path fill="#bf9175" d="M100 14h91v19h-91z"/><path fill="#815a39" d="M60 40h5v66h-5z"/><path fill="#e0bc9e" d="M227 133.9l.2-99 3.9 10.6 2.6 80.7z"/><path fill="#dbd2b1" d="M137 27h9v37h-9z"/><path fill="#3d180b" d="M233 49h2v46h-2z"/><path fill="#684b38" d="M130 62l10 12-7-39z"/><path fill="#fffeeb" d="M107 58l-6-5 18-9z"/><circle r="1" fill="#d4a377" transform="matrix(-4.26265 39.8866 -9.63477 -1.02966 154.3 86)"/><path fill="#614536" d="M202 47l-6 29 8 3z"/><path fill="#69574b" d="M171.3 41.5l15.1 20.2-20.7-9.2.6 45.9z"/><ellipse cx="235" cy="118" fill="#290d00" rx="2" ry="35"/><path fill="#fff6c9" d="M26 115.4l4-31.8 8 1-4 31.8z"/><circle r="1" fill="#232a1a" transform="matrix(8.66775 5.27102 -3.37188 5.54477 .4 132)"/><path fill="#b3836f" d="M-16 21l44 29 40-37z"/><path fill="#6b4931" d="M107 72l-6-5 18-19z"/><path fill="#d0c1ac" d="M235 31h21v40h-21z"/><path fill="#b47c5b" d="M37.7-9l-.4 19-55-1 .4-19z"/><path fill="#9a6947" d="M112 100h15v70h-15z"/><path fill="#a09685" d="M113 119l-12-65-9 56z"/><path fill="#bfa78f" d="M-4.1 103.3L0 42.4l4 .3-4 60.9z"/><path fill="#c2b09b" d="M57.5 89.9l-.4 18.6L39 65.9l21.7-20.1z"/><ellipse cx="70" cy="122" fill="#957962" rx="38" ry="19"/><path fill="#fafaee" d="M85 27l-8 13 2 16z"/><ellipse cx="184" cy="39" fill="#1a0905" rx="6" ry="2"/><ellipse cx="154" fill="#c48d6f" rx="49" ry="7"/><circle r="1" fill="#a87255" transform="matrix(-5.19524 -12.81622 103.1167 -41.79982 220 169)"/><path fill="#1b170d" d="M52.1 31.2l4.9-1.1 2.9 12.7-4.9 1.1z"/><ellipse cx="254" cy="113" fill="#b28f73" rx="18" ry="32"/><ellipse cx="209" cy="79" fill="#ceb69b" rx="7" ry="38"/><path fill="#7f5a43" d="M196.2 42.3l-17.7 34.8-2.7-1.4 17.7-34.8z"/><ellipse cx="182" cy="109" fill="#6e5543" rx="9" ry="22"/><ellipse cx="106" cy="33" fill="#e1c6a3" rx="19" ry="4"/><path fill="#7f6c5e" d="M185.8 81l5.2 31.3 7.1-33 28.7-32.4z"/><path fill="#783208" d="M82.4 52.4l3.3-9.5 1.9.7-3.3 9.5z"/><ellipse cx="219" cy="79" fill="#6e5b4b" rx="2" ry="39"/><circle cx="206" cy="123" r="17" fill="#cda57e"/><ellipse cx="237" cy="65" fill="#9f9d8b" rx="2" ry="29"/><path fill="#c4a083" d="M69.4 108.8l-4.2-81.2 7-6.3 18.7 87z"/><path fill="#c2a88e" d="M201.1 67l30.1 57.2 2.7-43.6-31.5 21.9z"/><ellipse cx="106" cy="12" fill="#1e0d04" rx="105" ry="1"/><path fill="#81766c" d="M164 76l16 13-19 52z"/><path fill="#d0bcab" d="M62 0h40v8H62z"/><circle r="1" fill="#814d37" transform="rotate(11.2 -851.8 163) scale(34.16225 10.80151)"/><path fill="#f3e6ca" d="M31.2 69.2l-1.4 44L37 72.9l-1.6-18.6z"/><ellipse cx="98" cy="58" fill="#281507" rx="2" ry="4"/><path fill="#b98970" d="M10.1 71.5l12.4 80 8-126.6-14.3-3.5z"/><path fill="#5f6f3d" d="M4 46h7v85H4z"/><path fill="#8c542e" d="M37 55h3v31h-3z"/><path fill="#79380c" d="M39 96h4v20h-4z"/><path fill="#3c2412" d="M110.3 43.2l-5.4-2.6.8-1.8 5.4 2.6z"/><circle r="1" fill="#be895d" transform="rotate(8.2 -947 1238.4) scale(46.03523 16.34751)"/><path fill="#875a42" d="M104 132l-9-42-3 31z"/><path fill="#a57962" d="M5.9 141.8l32.8-3.5 1.4 14-32.8 3.4z"/><circle r="1" fill="#884d2e" transform="rotate(83.2 -57.5 63.8) scale(27.02559 2.64442)"/><path fill="#9f836c" d="M58.8 18.7l-35.1-2.5 47.2 25.7-13.1 56.8z"/><path fill="#714e39" d="M206.3 39.2l-7.7 14-1-.4 7.8-14z"/><path fill="#cea484" d="M173 55h6v31h-6z"/><path fill="#2c1b19" d="M232 11h24v5h-24z"/><path fill="#7a563b" d="M170 33.8l-8.6 120.5-.3-14.2v-20.9z"/><path fill="#473827" d="M40.8 153.1l38.4-4.5-4.5 8.4-35.9-18.5z"/><path fill="#fdf7e4" d="M116 37l2 10-13-13z"/><path fill="#decdb6" d="M219 40.8l-35.2-14.6 18.4-5.1 26-.7z"/><path fill="#d0bba7" d="M235 0h21v10h-21z"/><path fill="#a9856f" d="M126.7 85.3l42.8-51.4L154 14l-12 57.7z"/><path fill="#d9bea1" d="M188.4 65.2L200 35.9l-.5 15-9.7 26.9z"/><path fill="#a1a297" d="M165 113l-1 20 11-27z"/><ellipse cx="233" cy="57" fill="#4a241c" rx="1" ry="14"/><path fill="#58321c" d="M223 111.7l2-.3 2 14.9-2 .3z"/><path fill="#503f30" d="M174.6 51.2l-1.6-4.3 12.3 11.9-1.3 4.4z"/><circle cx="92" cy="42" r="4" fill="#d4c2ae"/></g></g></svg>