<svg xmlns="http://www.w3.org/2000/svg" viewBox="0 0 1120 1400"><defs/><filter id="prefix__a"><feGaussianBlur stdDeviation="12"/></filter><rect width="100%" height="100%" fill="#4e443a"/><g filter="url(#prefix__a)"><g transform="translate(2.7 2.7) scale(5.46875)"><circle r="1" fill="#b6ae9a" fill-opacity=".5" transform="matrix(-135.3445 40.57985 -57.99228 -193.41952 122.5 140.6)"/><circle r="1" fill="#55514b" fill-opacity=".5" transform="matrix(14.94942 50.36841 -33.52228 9.94946 86.3 163)"/><circle r="1" fill="#b8ab84" fill-opacity=".5" transform="rotate(63.2 -103.6 264) scale(20.94368 133.01306)"/><path fill="#b6aa96" fill-opacity=".5" d="M136.7-1.5l50.2-13.4 12.4 46.4-50.2 13.4z"/><path fill="#5f584f" fill-opacity=".5" d="M-16 254L5 130l56 133z"/><ellipse cx="15" cy="65" fill="#979285" fill-opacity=".5" rx="28" ry="87"/><circle r="1" fill="#afa68a" fill-opacity=".5" transform="matrix(32.36168 66.35129 -5.96124 2.9075 81.8 57.5)"/><circle r="1" fill="#6f6254" fill-opacity=".5" transform="matrix(-12.48399 7.18465 -34.28691 -59.57668 143.7 160.4)"/><circle r="1" fill="#f3f4ad" fill-opacity=".5" transform="rotate(-112.5 79.3 66.8) scale(182.81151 1.23327)"/><path fill="#665f56" fill-opacity=".5" d="M72 51l69 149-86-13z"/><path fill="#f6f7aa" fill-opacity=".5" d="M-2.2 103.2l.9-.4 77.5 192-.9.4z"/><path fill="none" stroke="#ffffc5" stroke-opacity=".5" stroke-width=".5" d="M41.8-16Q59 14.2 110.3 128.1"/><circle r="1" fill="#6f6760" fill-opacity=".5" transform="rotate(118.2 53 31.7) scale(52.51039 28.37833)"/><path fill="#90816f" fill-opacity=".5" d="M191.5 84.8l-78 36.4-27-58 78-36.4z"/><circle r="1" fill="#797269" fill-opacity=".5" transform="matrix(53.58774 72.61087 -12.84896 9.4827 54.1 95.3)"/><circle r="1" fill="#d6d292" fill-opacity=".5" transform="rotate(157.3 51.1 117.7) scale(1 106.59076)"/><circle r="1" fill="#60594f" fill-opacity=".5" transform="rotate(-17.6 810 -178.7) scale(7.39329 100.17697)"/><circle r="1" fill="#bbb694" fill-opacity=".5" transform="matrix(-27.64396 -46.49799 2.5128 -1.49391 179.6 0)"/><path fill="#7d7367" fill-opacity=".5" d="M0 104.6l18-6.2 12 35-18 6.2z"/><path fill="#716456" fill-opacity=".5" d="M195.7 125.4L173 135.5l-14.6-32.9L181 92.5z"/><circle r="1" fill="#897f75" fill-opacity=".5" transform="matrix(9.40374 -9.60278 20.6487 20.2207 116.8 217.8)"/><path fill="#ece9ad" fill-opacity=".5" d="M198.3 253.8l-17.5-39.2 1-.4 17.4 39.2z"/><ellipse cx="20" cy="246" fill="#6a6256" fill-opacity=".5" rx="28" ry="47"/><circle r="1" fill="#615b50" fill-opacity=".5" transform="matrix(8.86524 26.89087 -5.67166 1.8698 133.6 161.8)"/><path fill="#5f554a" fill-opacity=".5" d="M71.2 65.8l22.2 57.9-6.6 2.5-22.2-57.9z"/><path fill="#e2e1a0" fill-opacity=".5" d="M68.9 36.8l.9-.4L127 165.2l-.9.4z"/><path fill="#928a82" fill-opacity=".5" d="M56.6 47.4L35 57.6l-13.5-29L43 18.4z"/><ellipse cx="165" cy="185" fill="#7e6f5f" fill-opacity=".5" rx="20" ry="38"/><circle r="1" fill="#726659" fill-opacity=".5" transform="rotate(65.8 -92.2 265.7) scale(52.81435 2.26404)"/><circle r="1" fill="#e7e49b" fill-opacity=".5" transform="matrix(-15.1984 -34.45938 .91496 -.40355 179.2 255)"/><path fill="#746e63" fill-opacity=".5" d="M11.9 138.2l14 5.3L57.7 191l6.7 55.3z"/><path fill="#c9c895" fill-opacity=".5" d="M10.5 142.5l9.5 10.6-18.7-38.9 11.1 36.7z"/><path fill="#e5e6b0" fill-opacity=".5" d="M-1.1 49.6l5.8 2.6.4 4.9L16 89z"/><path fill="#786d60" fill-opacity=".5" d="M139.3 37.6L118.5-16l49.7 96-73.5-48.1z"/><circle r="1" fill="#dad692" fill-opacity=".5" transform="rotate(-114.2 178.6 54.5) scale(34.78194 1.05021)"/><path fill="#dcd696" fill-opacity=".5" d="M143.9 236.9l-.6-6.3 14.6 34.5-4.7-5.2z"/><path fill="#92877a" fill-opacity=".5" d="M134 65L96 92 77 43z"/><path fill="#e0dfa0" fill-opacity=".5" d="M21.7 160.5l-1 .4-26.4-59.4 1-.4z"/><path fill="#817a6a" fill-opacity=".5" d="M83.2 86.7l41.2 65.3-36.6-31.4 6.7-8.8z"/><path fill="#ece7a2" fill-opacity=".5" d="M88.5 264.1l-1 .4-24-62.6 1-.4z"/><circle r="1" fill="#827564" fill-opacity=".5" transform="matrix(3.29694 -1.63857 10.40772 20.94118 177 237.2)"/><path fill="#e5e199" fill-opacity=".5" d="M189.3 254.2l-1 .4-15.6-36.8 1-.4z"/><path fill="#928675" fill-opacity=".5" d="M150.6-8.1l25.3 103.4-55-109.3 15.9-.6z"/><path fill="#575249" fill-opacity=".5" d="M65.7 144.7l-2.6 35.6 14.1 22.5 18-7.5z"/><path fill="#80776c" fill-opacity=".5" d="M53 171l8-128-34 65z"/><path fill="#f9fab7" fill-opacity=".5" d="M209.3 227.8l-.9.5-11.7-22.1.9-.5z"/><path fill="#e8e9b2" fill-opacity=".5" d="M48.3 163.3l-21.5-46.2.9-.4 21.5 46.2z"/><path fill="#7f786d" fill-opacity=".5" d="M-11.8 136.9L17 233.7l-2.1 29.2 23.4 8.1z"/><path fill="#62584c" fill-opacity=".5" d="M41.1 253.1L56.2 265l-35.9-68.8-1.1 42.9z"/><path fill="#f0f2ba" fill-opacity=".5" d="M29.2-39.7l.9-.4 46.7 91.8-.9.4z"/><path fill="#847b73" fill-opacity=".5" d="M93.3 66.8L86 70.2l-31.3-67L62-.2z"/><path fill="#887b6d" fill-opacity=".5" d="M174.8 246.3l-1.9 13.7-8.5-9.5-18.3-45z"/><circle r="1" fill="#cfc892" fill-opacity=".5" transform="matrix(-.92587 .37784 -18.55927 -45.4781 154 229.8)"/><path fill="#62584b" fill-opacity=".5" d="M14 144l-30 19 33-3z"/><path fill="#7c7265" fill-opacity=".5" d="M61 36.2L40.6-4 45-6.2 65.4 34z"/><path fill="#ffffcb" fill-opacity=".5" d="M180-2.4l1-.5 23 43.3-1 .5z"/><path fill="#7e7063" fill-opacity=".5" d="M194 225l-11-9 13 26z"/><path fill="#767064" fill-opacity=".5" d="M40.6 204.8l20.3 4.4L77.8 271l-19.2-20.5z"/><path fill="#d4d295" fill-opacity=".5" d="M50.8 177l.9-.4L73.2 225l-.9.4z"/><path fill="#645a4c" fill-opacity=".5" d="M116 13l13-22 6 25z"/><path fill="#766b5a" fill-opacity=".5" d="M115.1 137.4l13.8 32.3-11-69.3 26.8 14.4z"/><path fill="#797065" fill-opacity=".5" d="M105 201l6 70-40-62z"/><path fill="#9a8a76" fill-opacity=".5" d="M136.5 111.6l9.3-40 11.7 2.8-9.3 40z"/><path fill="#8e8474" fill-opacity=".5" d="M219 5.8l-32.3 27.7-35.6.1 30.4 15.9z"/><path fill="#7b7064" fill-opacity=".5" d="M86 76L25 59l45-15z"/><path fill="#e5e2a8" fill-opacity=".5" d="M70.4 45.6l.8-.5 18.4 33.3-.8.5z"/><path fill="#8d887d" fill-opacity=".5" d="M178.3-16L219 33.8l-27.1-45.9 14.9 61.3z"/><path fill="#cbc992" fill-opacity=".5" d="M32.7 181.5l6.9 24L26.4 175 17 154.4z"/><path fill="#f6f3a9" fill-opacity=".5" d="M133 238.4l1-.4 13 33.6-1 .4z"/><path fill="#eae8a8" fill-opacity=".5" d="M35.7 137.7l-24.3-57 1-.4 24.2 57z"/><path fill="none" stroke="#dfdaa0" stroke-opacity=".5" stroke-width=".5" d="M138.3 195.2l26.3 56.7"/><path fill="#655e55" fill-opacity=".5" d="M131.7 181.2l-27.9 13.6-21.5-44 27.9-13.6z"/><path fill="#6e6251" fill-opacity=".5" d="M128.9 135.7l11.6-6 18.6 36.6-11.6 6z"/><circle r="1" fill="#a49889" fill-opacity=".5" transform="matrix(-18.4916 -22.50571 9.42246 -7.74187 168.3 5.7)"/><path fill="#90887b" fill-opacity=".5" d="M198.8 106.6L219 47.5l-9.5 87.6-49.4-81.6z"/><path fill="#ffffab" fill-opacity=".5" d="M127 250v12l12 9z"/><circle r="1" fill="#918b81" fill-opacity=".5" transform="matrix(8.07105 17.61923 -2.9438 1.3485 113 228.5)"/><path fill="#908b81" fill-opacity=".5" d="M38.6 157.7l-26.1-30 21.3 4.8 10.7 28.8z"/><path fill="#9b917e" fill-opacity=".5" d="M97 249l30 22H82z"/><path fill="#8c7e6c" fill-opacity=".5" d="M180 139l-29 31 13-65z"/><path fill="#6f604f" fill-opacity=".5" d="M158.9 175.2l22.9-6.4-15.2-17.4 4.7 17.2z"/><path fill="#8a8175" fill-opacity=".5" d="M38 91.1l3.5-30.8 32.9 90.8-46.3-92.2z"/><path fill="none" stroke="#6a5843" stroke-opacity=".5" stroke-width=".5" d="M156 91.5q63-18.4 63-32.7"/><path fill="#7e6f61" fill-opacity=".5" d="M189.3 208.8l10.6 15.7-3.2-18.2-21.8-30.8z"/><path fill="#797366" fill-opacity=".5" d="M64.4 202.1L90.2 237 39.8 136.5l7.5 23.5z"/><circle r="1" fill="#786959" fill-opacity=".5" transform="matrix(-25.43747 -56.60094 .91212 -.40992 187 162.6)"/><circle r="1" fill="#87796e" fill-opacity=".5" transform="matrix(2.4588 -1.25055 21.8155 42.89324 155.8 244)"/><ellipse cy="100" fill="#837a6e" fill-opacity=".5" rx="18" ry="8"/><path fill="#8d8274" fill-opacity=".5" d="M99 87l31 42-24-17z"/><path fill="#dbd498" fill-opacity=".5" d="M186.1 207.6l8.6 12.3-.8.5-8.6-12.3z"/><ellipse cx="35" cy="110" fill="#7e756a" fill-opacity=".5" rx="7" ry="18"/><ellipse cy="137" fill="#736c63" fill-opacity=".5" rx="4" ry="17"/><path fill="#757166" fill-opacity=".5" d="M11 260l-21-49 4 38z"/><path fill="#8a8278" fill-opacity=".5" d="M-16 4.9l63.1 46 33 11.2-14.9-21.6z"/><path fill="#71665b" fill-opacity=".5" d="M52.8 87.9l27.1-9.8-30.4-24.2 20.2.8z"/><path fill="#969188" fill-opacity=".5" d="M6.5 40.5l.9 3.9L29.2 101-16 17.8z"/><path fill="#6b645b" fill-opacity=".5" d="M117.3 191.4l7.5 21.3 8.1-27.3-87.6-36.7z"/><path fill="#938d85" fill-opacity=".5" d="M23.8 25.6L5.3.5l36.4 16.2 15.4-.3z"/><path fill="#6d614e" fill-opacity=".5" d="M100.2 110.6l-1 .5-19.4-41.7 1-.5z"/><path fill="#8f8070" fill-opacity=".5" d="M219 178.4l-46.4 8.7 29.7-22.1-9.3-56.3z"/></g></g></svg>