<svg xmlns="http://www.w3.org/2000/svg" viewBox="0 0 1120 1400"><defs/><filter id="a"><feGaussianBlur stdDeviation="12"/></filter><rect width="100%" height="100%" fill="#503624"/><g filter="url(#a)"><g fill-opacity=".5" transform="translate(2.7 2.7) scale(5.46875)"><circle r="1" fill="#ffffe7" transform="matrix(-143.03671 -7.17867 4.02508 -80.20055 154 210.4)"/><circle r="1" fill="#d6d3c0" transform="rotate(92.6 -22.8 130.3) scale(24.25113 134.31494)"/><circle r="1" fill="#a89975" transform="matrix(196.97003 49.11014 -4.52688 18.1563 90.3 51.8)"/><circle r="1" fill="#e3ffff" transform="matrix(3.9697 -37.64905 4.52888 .47752 150.5 66.3)"/><ellipse cx="40" cy="225" fill="#b88953" rx="28" ry="85"/><circle r="1" fill="#1a1e17" transform="matrix(5.17078 -75.84775 24.4275 1.6653 77.3 68)"/><path fill="#f9ffff" d="M107 42h6v59h-6z"/><path fill="#f7ffff" d="M195 93l24-2-15-52z"/><path fill="#ffc789" d="M60 50L-3 40l32-25z"/><circle r="1" fill="#d4dcd8" transform="rotate(12.8 -663 922.1) scale(70.18406 32.53464)"/><circle r="1" fill="#100d09" transform="matrix(-10.32138 -3.47353 11.31893 -33.63353 124.7 110.8)"/><ellipse cx="110" cy="4" fill="#171208" rx="89" ry="29"/><ellipse cx="97" cy="223" fill="#c1976b" rx="86" ry="70"/><circle r="1" transform="rotate(-48.5 152 1) scale(28.46303 15.61235)"/><circle r="1" fill="#1a0a00" transform="rotate(5.3 -1194 1869) scale(63.12708 15.03179)"/><ellipse cy="255" rx="11" ry="89"/><path fill="#c9b79f" d="M81.8 205.4L219 219 78.3 136.3l34.8-14.8z"/><path fill="#e2f3ea" d="M47 148l27-17-58 10z"/><path fill="#28190a" d="M144.7 43.4L91.3 40l40.5-56-14.6 156.7z"/><path fill="#e2b675" d="M75 59l-3-31 18 6z"/><circle cx="7" cy="127" r="19" fill="#435b68"/><path fill="#b5d0cc" d="M143.8 97.3l24.5-2.8-19.4-11.2-16.3 2.6z"/><path fill="#797669" d="M68.5 124.8l39.8-79-39.1 40.1 9.7 39z"/><circle r="1" fill="#9a774f" transform="matrix(-2.24784 28.20955 -56.99868 -4.54186 71.7 255)"/><circle r="1" fill="#6c5a42" transform="matrix(4.18192 -21.45953 31.60335 6.15869 182 39.7)"/><path d="M16.6 271L-16 211.1l36.5-28-18.2-22z"/><path fill="#dcb398" d="M93 8.6L75.6 4 79-8.6 96.4-4z"/><path d="M4 91h23v20H4z"/><path fill="#f9d6a4" d="M99 52h29v8H99z"/><path fill="#d4ffff" d="M105 79h9v15h-9z"/><path fill="#c2b397" d="M25.8 100.6l15 .8-.6 10-15-.8z"/><path fill="#2f1205" d="M168 76h19v56h-19z"/><path fill="#aa8862" d="M219 251L7 189l11 82z"/><path fill="#e5ffff" d="M147 39h6v57h-6z"/><path fill="#e1ffff" d="M94 125l12 14 2-12z"/><path fill="#a38c6c" d="M6 145h74v30H6z"/><path fill="#c9e4e8" d="M216 175l-108-22 111-22z"/><path d="M25 110h46v22H25zm83.4 28.5l-4.7-33.6 9.9-1.4 4.7 33.6z"/><path fill="#392a1a" d="M69 62.4l65.6 2.1 1.5 21.1-54.2-25.4z"/><path fill="#13110e" d="M44.7 33.9l60.1 85.7-34.1 25.9 17.9-53.3z"/><path fill="#0c0300" d="M67.9 119.4l1-56.5-.4-61.5-11.3-.1z"/><path fill="#d2ffff" d="M197 87l9-51 13 72z"/><path fill="#d6edf1" d="M19.8 143l5.6-10.6 8.8 4.6-5.6 10.6z"/><path fill="#8b8165" d="M136 46h4v71h-4z"/><path d="M5 92h58v6H5z"/><path fill="#4d463c" d="M153 53h14v49h-14z"/><path fill="#4c351c" d="M153.4 10.7L193.6 44l-76.2-5.3 25.5 40.8z"/><path fill="#383126" d="M139.3 144.8l-41.4-1.6-29-111.5 21.5 107.1z"/><path fill="#71716a" d="M184.9 120l10.6-1.3-7.4-68.5-1.2 51.7z"/><path fill="#c4dbd6" d="M157 133l-11 26-22-32z"/><path fill="#0c1410" d="M46 75l-62-5V42z"/><path fill="#271910" d="M104 98h53v28h-53z"/><path fill="#77725d" d="M99.8 98.8l-2.1-48.5 8.3 45.6-4.7 21.7z"/><circle r="1" fill="#c4a37a" transform="matrix(-.79073 18.11065 -64.8527 -2.83153 73.3 197.8)"/><circle r="1" fill="#83775b" transform="matrix(1.1057 -.08846 3.66008 45.74777 118.4 88.6)"/><path fill="#d3a772" d="M59.6 46.7l-9.3-1-40.2-17.2L27 11.1z"/><path d="M19 171l-35 30 36-17z"/><path fill="#8a6039" d="M17.4 32.3l24.4 45L53.5 25l8.3 37.5z"/><path fill="#c6b5a2" d="M141 200l-17-43 82 18z"/><circle r="1" fill="#2c1f0e" transform="rotate(-93.9 13.9 -13) scale(16.95686 55.5252)"/><path fill="#2f1e0e" d="M108.6 37.8L89.8 76.7 97-.2 85.4-15.3z"/><path fill="#dbcbae" d="M78.7 98.8l-1 .3-6.4-20 1-.2z"/><path fill="#e2bb85" d="M105 42h13v16h-13z"/><path fill="#271915" d="M190.3 39.8l-.8-43.3-20.4 55-1.2-28.1z"/><path fill="#70695f" d="M197.4 76.2L181 71.8l15.6-58 16.4 4.4z"/><path fill="#25180b" d="M119.8 52.8L136.6-16l.6 37.9-2.1 32.8z"/><path fill="#0b0a08" d="M74.8 144.5l25.9-36.9-1.5-28.3-28.3 63.4z"/><path fill="#1e1a17" d="M-16 140l35-3-13 8z"/><path fill="#a0754c" d="M193 72l-21 10 2-43z"/><path fill="#586061" d="M89.7 62.9l-16.5 52.8 10.2.5-.6-75.4z"/><path fill="#ba844a" d="M171 21l8-7-1 16z"/><path fill="#00020b" d="M108 122l17 11-10 7z"/><path fill="#9a7857" d="M26 247h178v9H26z"/><circle r="1" fill="#e5ffff" transform="matrix(1.77572 -13.6995 3.2387 .4198 147.8 83)"/><path fill="#bcc6b8" d="M104.9 128.3L90 121.9l12 25.9-9.8 3.6z"/><circle r="1" fill="#8d8c7f" transform="matrix(-3.44291 -20.8039 .98658 -.16327 161.3 96.7)"/><path fill="#ac9a75" d="M137.6 127.5L122 137.8l14.4 9.4-28.7-2.4z"/><path d="M69 139l11 3-3-14z"/><path fill="#726d5c" d="M136 59h17v7h-17z"/><ellipse cx="52" cy="154" fill="#a99476" rx="37" ry="13"/><path fill="#d7e3de" d="M142 158l-52-9 26-5z"/><circle r="1" fill="#beac9d" transform="matrix(5.05529 16.67722 -24.55141 7.44216 178.8 209.4)"/><path fill="#c5f2f3" d="M107 75h7v21h-7z"/><circle r="1" fill="#232221" transform="matrix(-.93757 .3478 -2.44308 -6.58588 90.8 138.4)"/><ellipse cx="46" cy="82" fill="#6b4823" rx="33" ry="5"/><circle r="1" fill="#809691" transform="matrix(4.59516 .53168 -.52288 4.51912 88.6 67.4)"/><path fill="#91b9d0" d="M188.4 91.5h-1l2.2-31h1z"/><path fill="#222b2e" d="M76 56h10v35H76z"/><path fill="#1c0d07" d="M153 89h6v38h-6z"/><path fill="#736f5f" d="M103 61h5v41h-5z"/><path fill="#8c4d17" d="M3.3 37l-10-13.8L4.7 15l10 13.8z"/><circle cx="70" cy="135" r="2" fill="#fff"/><path fill="#c1d6cf" d="M81 133h7v16h-7z"/><circle r="1" fill="#b0ebef" transform="matrix(4.0182 -22.01123 3.1952 .5833 201.6 79.1)"/><path fill="#626b6d" d="M16 111h9v27h-9z"/><path fill="#1c0a03" d="M193 102h11v30h-11z"/><path fill="#bba282" d="M38.2 99.7l-.5 4-11.9-1.4.5-4z"/><path fill="#564229" d="M19.1 175.5L-16 187.1v-26.9L18.5 172z"/><path fill="#7e5b31" d="M83.9 50.7l12.2-11.1-5.5-7.4-11.2-1.7z"/></g></g></svg>