<svg xmlns="http://www.w3.org/2000/svg" viewBox="0 0 1120 1400"><defs/><filter id="prefix__a"><feGaussianBlur stdDeviation="12"/></filter><rect width="100%" height="100%" fill="#504539"/><g filter="url(#prefix__a)"><g transform="translate(2.7 2.7) scale(5.46875)"><circle r="1" fill="#e3e0d0" fill-opacity=".5" transform="matrix(-107.394 -62.00395 101.5 -175.80315 53.9 109.4)"/><circle cx="137" cy="248" r="140" fill="#7d6647" fill-opacity=".5"/><circle r="1" fill="#dbe5e6" fill-opacity=".5" transform="rotate(-80.3 56.8 -56.4) scale(46.56425 93.77926)"/><path fill="#8f5f2a" fill-opacity=".5" d="M128 229L206 0l-6 265z"/><circle r="1" fill="#c8cac3" fill-opacity=".5" transform="matrix(-106.28847 131.52895 -15.91036 -12.85715 27.9 105.6)"/><circle r="1" fill="#a5a59c" fill-opacity=".5" transform="matrix(-37.23198 -39.3126 27.82317 -26.35064 125.1 82.3)"/><circle cx="63" cy="211" r="68" fill="#767771" fill-opacity=".5"/><path fill="#84643f" fill-opacity=".5" d="M135 215l74-226 10 220z"/><circle r="1" fill="#c5c2b4" fill-opacity=".5" transform="matrix(-10.6298 -2.7141 16.60547 -65.03564 191.7 3.6)"/><circle r="1" fill="#949187" fill-opacity=".5" transform="matrix(29.76013 -6.76134 13.81775 60.81905 23.1 176.6)"/><circle r="1" fill="#aca482" fill-opacity=".5" transform="rotate(108.6 -7.7 144.9) scale(59.90085 8.83132)"/><circle r="1" fill="#6b6457" fill-opacity=".5" transform="matrix(24.59957 4.2765 -11.6397 66.95451 80.4 230.5)"/><circle r="1" fill="#482d07" fill-opacity=".5" transform="matrix(-9.37208 -30.25229 11.47844 -3.556 203 242.5)"/><path fill="#582f00" fill-opacity=".5" d="M128.7 223l20.5-15.8-38 58.3 66.2 5.5z"/><circle r="1" fill="#6c645a" fill-opacity=".5" transform="matrix(-12.03583 10.04378 -9.04978 -10.84469 47.3 141.1)"/><circle r="1" fill="#b4a797" fill-opacity=".5" transform="matrix(-55.06633 -23.26093 8.1454 -19.28287 2.4 20.5)"/><path fill="#434b4d" fill-opacity=".5" d="M17.2 262.6l-9.4-27.4 17-5.8 9.4 27.4z"/><path fill="#777879" fill-opacity=".5" d="M94 64.6l2.5-15.8 41.5 6.6-2.5 15.8z"/><circle r="1" fill="#dddfce" fill-opacity=".5" transform="matrix(3.80506 3.22008 -63.46675 74.99654 39.2 70.3)"/><path fill="#595854" fill-opacity=".5" d="M135.6 153l-33.3-11 6.1-19 33.3 10.8z"/><circle r="1" fill="#866744" fill-opacity=".5" transform="rotate(109.3 49.4 132.7) scale(93.24072 27.55916)"/><circle r="1" fill="#bfbeb5" fill-opacity=".5" transform="matrix(16.30373 7.20751 -7.61558 17.2268 0 158.2)"/><path fill="#a49e93" fill-opacity=".5" d="M27.9 89.2l45.5-50.5 26.7 24-45.5 50.6z"/><path fill="#817a6e" fill-opacity=".5" d="M111.9 104.7l-10 26.2L56 113.3l10-26.2z"/><circle r="1" fill="#9c957d" fill-opacity=".5" transform="rotate(26.9 -387 231.9) scale(59.98103 7.27892)"/><path fill="#bdbeb7" fill-opacity=".5" d="M210-16l-74 46 38 51z"/><path fill="#bcb49e" fill-opacity=".5" d="M160.9 133.6L84.3 92l-27.2-9 40-1.6z"/><circle r="1" fill="#b8b68b" fill-opacity=".5" transform="rotate(27.9 -435 255.2) scale(102.59416 1)"/><path fill="#664828" fill-opacity=".5" d="M198 140l-45 16 14-32z"/><circle r="1" fill="#6a6255" fill-opacity=".5" transform="rotate(-152.2 67.5 103.2) scale(48.51844 10.17324)"/><circle r="1" fill="#847f7a" fill-opacity=".5" transform="rotate(-77.1 102.6 -26) scale(4.72611 36.84078)"/><path fill="#a2836a" fill-opacity=".5" d="M51 41l-67 16v66z"/><path fill="#a07c4b" fill-opacity=".5" d="M187 233.8l-16 8.4-16-30 16-8.4z"/><circle r="1" fill="#613b14" fill-opacity=".5" transform="matrix(-1.23223 -.39308 51.12278 -160.2599 171.6 108.1)"/><path fill="#2c0a00" fill-opacity=".5" d="M145 204.9l37.5-16.7.4 1-37.4 16.6z"/><path fill="#b99259" fill-opacity=".5" d="M158.8 177.7l6.4 12.5-16 8.1-6.4-12.5z"/><path fill="#665e55" fill-opacity=".5" d="M49 171.4l-24.6-18.9 84.5 35.1-24.2 19z"/><circle r="1" fill="#cdccc0" fill-opacity=".5" transform="rotate(-75.7 96 -29.7) scale(2.90779 23.29211)"/><circle r="1" fill="#c7d6d9" fill-opacity=".5" transform="matrix(-8.629 -11.39988 31.3128 -23.70186 104 11)"/><circle r="1" fill="#a8a38b" fill-opacity=".5" transform="matrix(6.68209 2.08995 -18.14538 58.01543 153.7 124.7)"/><path fill="#a29887" fill-opacity=".5" d="M16.4 115.7l36.2-2.7 36 11.2-12.7 17.7z"/><path fill="#9c8d77" fill-opacity=".5" d="M46 158l36 17 8-31z"/><path fill="#a28666" fill-opacity=".5" d="M186.8 58.2l16.6-14.5 15.8 18.1-16.6 14.5z"/><circle r="1" fill="#3f2413" fill-opacity=".5" transform="matrix(.40833 .91283 -49.67658 22.2214 181.8 199.1)"/><path fill="#8b8f90" fill-opacity=".5" d="M152 21l7-9-38 1z"/><path fill="#9c774d" fill-opacity=".5" d="M201.6 139.3l.1-4.9-5.2 47.4-21.2-30.2z"/><path fill="#493324" fill-opacity=".5" d="M183.9 170.2l-8.5-11.4-20.9-34.7 34.8 52.5z"/><circle r="1" fill="#bdae97" fill-opacity=".5" transform="matrix(-4.5519 -5.29207 27.85215 -23.95663 64 19.4)"/><circle r="1" fill="#2d170b" fill-opacity=".5" transform="matrix(-.88854 .4588 -24.14557 -46.76127 175.2 254.5)"/><ellipse cx="108" cy="130" fill="#736e64" fill-opacity=".5" rx="33" ry="8"/><path fill="#888986" fill-opacity=".5" d="M163.4 61.2l6.5 14.6-29.3 13-6.5-14.6z"/><path fill="#aeaaa2" fill-opacity=".5" d="M193.6 33.5l7-29.1-51.4-5 42 29.4z"/><path fill="#040000" fill-opacity=".5" d="M205.4 247.2l-26.3 16.4-.5-.8 26.3-16.4z"/><path fill="#c0a78b" fill-opacity=".5" d="M17 69l34-21-41 8z"/><path fill="none" stroke="#c7c591" stroke-opacity=".5" stroke-width=".5" d="M125 237q-38-20-138-67.3"/><path fill="#777168" fill-opacity=".5" d="M6 198l-22-31 81 45z"/><path fill="#a4804b" fill-opacity=".5" d="M168.9 255l-19.3-36.2 3.5-1.8 19.3 36.2z"/><path fill="#b4ad9b" fill-opacity=".5" d="M114 118l35-3-64-15z"/><path fill="#0b0000" fill-opacity=".5" d="M193.7 197.7l.8-.5 9.8 15-.8.6z"/><path fill="#c8ccc6" fill-opacity=".5" d="M190.2 31l-4.6 21.5L131.8 41l4.6-21.5z"/><circle r="1" fill="#625d56" fill-opacity=".5" transform="rotate(18.3 -511 536.2) scale(1.90489 75.32257)"/><path fill="#2e1205" fill-opacity=".5" d="M137.2 197.8l.9-.4 26.7 54.8-.9.4z"/><circle r="1" fill="#4b2f1b" fill-opacity=".5" transform="matrix(.83208 -.55466 31.86122 47.79646 201.3 195)"/><path fill="#c8c08e" fill-opacity=".5" d="M126.4 227.8l-35.3-18.7.5-1 35.3 18.8z"/><ellipse cx="142" cy="94" fill="#b7b0a0" fill-opacity=".5" rx="29" ry="7"/><path fill="#888075" fill-opacity=".5" d="M69 92.8l-29.2-9.1-6-7.6 74 28.7z"/><path fill="#96948d" fill-opacity=".5" d="M180 54.1l23.5 4-48-5.7-50.6-14z"/><path fill="#8c8981" fill-opacity=".5" d="M36.2 153.6l-1.6-32.1-12.5 8.7-24.6 5.7z"/><circle r="1" fill="#bdbfb9" fill-opacity=".5" transform="matrix(3.79489 -15.92928 33.57591 7.99891 31.4 8.4)"/><path fill="#d6d1b5" fill-opacity=".5" d="M66.7 75l52.9 15-.3 1-52.9-15.2z"/><path fill="#d0cebc" fill-opacity=".5" d="M3 121l33-43-50 33z"/><path fill="#9d7d56" fill-opacity=".5" d="M191.3 133.1l-13.4 11.6 40.3-14.8.8 6.4z"/><path fill="#676459" fill-opacity=".5" d="M27 250h93v6H27z"/><path fill="#270a00" fill-opacity=".5" d="M189.3 185.4l23-9.7.4.9-23 9.7z"/><path fill="#c5cac4" fill-opacity=".5" d="M65.2 43.2l58.1-27.6-24.6 23.5 33.6 11.1z"/><circle r="1" fill="#7c6e5e" fill-opacity=".5" transform="matrix(-7.35376 6.49624 -16.24717 -18.39184 107.1 166)"/><circle r="1" fill="#c1baac" fill-opacity=".5" transform="rotate(-165.6 27.4 42.7) scale(16.52247 6.42405)"/><path fill="#d1cf9f" fill-opacity=".5" d="M96.3 212l-.5 1-88-43 .4-1z"/><path fill="#7d7e7c" fill-opacity=".5" d="M10.6 232.8l64.1 8.8-90.7-51.7L3.5 271z"/><path fill="#645e54" fill-opacity=".5" d="M101.5 187.9l-4.6 17.6-21.5 4.3-12.3-4.9z"/><path fill="#b6b3a8" fill-opacity=".5" d="M-16 192.5v15.7l41.1-59.3-10.1-3z"/><ellipse cx="115" cy="84" fill="#706e6a" fill-opacity=".5" rx="8" ry="5"/><path fill="#5b4f49" fill-opacity=".5" d="M9.7 63.7L15.3 90l-1 .2L8.7 64z"/><path fill="#9b8f7f" fill-opacity=".5" d="M39.7 129.1L76 106.6 21.3 91.8l64.2 39.8z"/><path fill="#8a8274" fill-opacity=".5" d="M101.6 104.9l-34.7 70.3 45.2-72-25.9-10.5z"/><circle r="1" fill="#bfb3a5" fill-opacity=".5" transform="rotate(-10.4 326 3.6) scale(1 17.76065)"/><circle r="1" fill="#503b29" fill-opacity=".5" transform="rotate(-21.9 335.7 -478.8) scale(32.55155 1)"/><path fill="#2a170e" fill-opacity=".5" d="M222.3 120l.4 1-59 25-.4-1z"/><path fill="#bcba94" fill-opacity=".5" d="M33 192.5l32.9 16.4-49.9-27-32-12.6z"/><path fill="#92886b" fill-opacity=".5" d="M94.3 271h-5.2l26.9-59.2 8 1.8z"/><path fill="#ada18f" fill-opacity=".5" d="M57.7 44.7l-37.1-12 3.7-11.4 37.1 12z"/><circle r="1" fill="#c2c9c6" fill-opacity=".5" transform="matrix(1.51868 -5.09432 39.21649 11.69094 126.3 2.3)"/><circle r="1" fill="#755c47" fill-opacity=".5" transform="matrix(11.06644 -3.12251 .27156 .96242 24.4 68.7)"/><path fill="#e8e9b1" fill-opacity=".5" d="M.4 197.9l.5-.9 54.7 29.1-.5.9z"/><path fill="#876b4b" fill-opacity=".5" d="M166 130l36-38 5 41z"/><circle r="1" fill="#b4ab9e" fill-opacity=".5" transform="matrix(-2.95915 -11.1924 20.76797 -5.49082 32.3 113)"/><path fill="#afb2ad" fill-opacity=".5" d="M130.4 71.7l34.5-18.1-87.1-18.5 67.4 3.1z"/><circle r="1" fill="#787067" fill-opacity=".5" transform="matrix(39.34354 19.17511 -1.17317 2.40712 71 206)"/><path fill="#9f9579" fill-opacity=".5" d="M127.9 231.6l13.6-98.2-23.7 74.8 2.3 34.8z"/><path fill="#6d6765" fill-opacity=".5" d="M-2.2 29.5L9.2 88.4l-1 .1-11.4-58.9z"/></g></g></svg>