<svg xmlns="http://www.w3.org/2000/svg" viewBox="0 0 1120 1400"><defs/><filter id="a"><feGaussianBlur stdDeviation="12"/></filter><rect width="100%" height="100%" fill="#503624"/><g filter="url(#a)"><g fill-opacity=".5" transform="translate(2.7 2.7) scale(5.46875)"><circle r="1" fill="#ffffe7" transform="rotate(84.7 -46.9 173.1) scale(73.75776 118.81229)"/><circle r="1" fill="#d3d5c4" transform="matrix(147.07246 -.65904 .1052 23.47608 124 155)"/><ellipse cx="174" cy="68" fill="#989986" rx="91" ry="28"/><circle r="1" fill="#ffd38f" transform="matrix(3.33768 -16.69474 32.47417 6.49236 23.6 34.2)"/><ellipse cx="149" cy="67" fill="#faffff" rx="5" ry="30"/><circle r="1" fill="#be8d58" transform="rotate(81.4 -95.6 150.5) scale(79.18928 56.86465)"/><circle r="1" fill="#0d0802" transform="matrix(-11.32044 37.19089 -10.15597 -3.09135 123.5 111)"/><circle r="1" fill="#d6d3c6" transform="rotate(-177.3 89.1 83) scale(85.40746 35.01279)"/><ellipse cx="109" cy="7" fill="#0c0b04" rx="76" ry="25"/><path d="M68 47l5 82-46 5z"/><circle r="1" fill="#edffff" transform="rotate(-170.4 104.4 29) scale(4.65961 23.91252)"/><path fill="#eaf8e7" d="M105 41h8v58h-8z"/><path fill="#180d06" d="M160.7 98.3l27-24.7-9.7 60.8-167.1-22.1z"/><path fill="#060f0f" d="M101 110l-32 42L96 43z"/><circle r="1" transform="rotate(-4.7 2820 116) scale(11.90819 68.05211)"/><path fill="#d2bc7e" d="M70.8 25.7l21.1 14.8L77 56.3l-1.8-3.2z"/><circle r="1" fill="#422b12" transform="matrix(-10.61155 -2.68513 11.88245 -46.95897 133 68.4)"/><circle r="1" fill="#c3a786" transform="matrix(-81.31423 -40.63912 10.66482 -21.33909 94.8 179)"/><path fill="#fcffff" d="M94 126h14v8H94z"/><path fill="#465b64" d="M17.6 142.8L36 97.7-14.2 126l-1.8 28z"/><path fill="#e3ba82" d="M123.8 59.2l-8.1-23.4-21.6 28.9L135 54z"/><ellipse cx="162" cy="250" fill="#a77e56" rx="149" ry="23"/><path d="M25.3 93l5.8 43.9 13.3.1L2.5 93.5z"/><path fill="#eaffff" d="M144 71h8v27h-8z"/><circle r="1" fill="#c9e8ee" transform="matrix(57.20937 -5.62882 .99881 10.15156 173.5 148.2)"/><path fill="#e0ffff" d="M58 142l14-11-39 8z"/><circle r="1" fill="#cba98e" transform="matrix(-9.29293 -5.9647 3.47789 -5.41851 84.7 0)"/><circle r="1" fill="#5b4128" transform="matrix(14.1101 .99801 -4.58952 64.88756 167.9 54.5)"/><path fill="#d5a872" d="M62.4 54.6l-18.3 2.7-31.7-40.7L34 20z"/><path fill="#4b4637" d="M129 59L77 96 27 84z"/><path d="M-11.6 196.4L20.2 186l.9-9.3-37.1 1.2z"/><path fill="#cdffff" d="M108 72h6v27h-6z"/><path fill="#75756c" d="M73.5 84.3l-1.6 46.8L86 110.6l-4.9-18.4z"/><path fill="#d3ffff" d="M203.2 94.9l-7.8-1.5 7.4-38.3 7.8 1.5z"/><path fill="#000004" d="M75.2 144.4L98 113.2l-36.8 29.5 14.7.5z"/><path fill="#0d0000" d="M219 132l-50-2 50-35z"/><path fill="#000002" d="M126 134l-12-13-7 17z"/><circle cx="34" cy="105" r="7" fill="#baa586"/><path d="M18 92l52 16-6-17z"/><path fill="#c7a680" d="M9 188h174v25H9z"/><path fill="#8a7f63" d="M136 52h5v65h-5z"/><path fill="#d9ffff" d="M31.6 147l-9.8-5 4.6-9 9.8 5z"/><path fill="#3e290e" d="M38-8l-53 5-1 59z"/><path fill="#000200" d="M26 111h47v21H26z"/><circle r="1" fill="#a08b6c" transform="matrix(-.56578 -16.33367 39.27856 -1.36058 42.4 161.2)"/><path d="M-16 231l32 40-10-89z"/><path fill="#79614a" d="M219-2.1l-26.3 22.7-37.8 72.3 42.2-31.5z"/><path fill="#0e1612" d="M-16 70V44l71 32z"/><path fill="#cff2f9" d="M147 44h10v15h-10z"/><path fill="#04181e" d="M96.9 139.1l-7.9 1.6-1.9-9.8 7.9-1.6z"/><path fill="#1e1408" d="M55.9 23.7l67.4 17.9 12.5 33.2-.1-67.6z"/><path fill="#e8c190" d="M6.7 40.5l12-20.3 31.4 19.5-58.6-5z"/><path fill="#939077" d="M100 84h5v30h-5z"/><path fill="#9d7d56" d="M92 268L8 199l8 59z"/><path fill="#73583a" d="M66 52L41 67-4 41z"/><ellipse cx="186" fill="#150b0c" rx="4" ry="54"/><path fill="#371707" d="M168 82h19v53h-19z"/><path d="M4 93h21v18H4z"/><ellipse cx="65" cy="52" fill="#0c0902" rx="4" ry="78"/><path fill="#1f0a00" d="M123 64h12v59h-12z"/><path fill="#8d8368" d="M118 85h4v31h-4z"/><path fill="#5a4c37" d="M100 60h7v44h-7z"/><path fill="#5e492f" d="M114 90l-3.2-28.2 34.4-4.6 15-51.1z"/><ellipse cx="108" cy="142" fill="#92724a" rx="20" ry="3"/><circle r="1" fill="#c7b49f" transform="matrix(5.75417 -10.96008 64.61353 33.92286 168.7 189.6)"/><path fill="#ccb08a" d="M116 64.4l-20.7-4.5 17-9.2 20.4 5.3z"/><path fill="#8b9592" d="M187 62h3v57h-3z"/><path fill="#5f8a9e" d="M82 79h11v7H82z"/><path fill="#1a0c05" d="M168 129l-39-4 28-36z"/><path fill="#c2a571" d="M84.1 48.6l-11 .8-1.2-18 11-.8z"/><circle r="1" fill="#c3cfcd" transform="rotate(121.4 47.7 139.5) scale(16.88796 73.26107)"/><path fill="#eab060" d="M177.8 24.7L172 23l2.2-7.7L180 17z"/><path fill="#ae7f52" d="M188 69l-23 6 13-26z"/><circle r="1" fill="#765d38" transform="matrix(1.66862 -15.6137 2.4566 .26253 143.6 69.4)"/><path fill="#636f72" d="M15.9 110.4l8-.7 2.2 25.9-8 .7z"/><path fill="#be9e7a" d="M103 244l-1-44 117 31z"/><ellipse cx="160" cy="94" fill="#dcffff" rx="2" ry="3"/><path fill="#2f3026" d="M62 88L43 61l55-8z"/><path fill="#cdac81" d="M72 97l2-19 4 22z"/><path fill="#c6ad92" d="M198.7 230.4l-49.5-66.5 56.5 11.3L51 176.7z"/><ellipse cx="96" cy="60" fill="#1f1103" rx="3" ry="47"/><circle r="1" fill="#251b12" transform="rotate(-99.9 95 -73.6) scale(9.90807 54.52034)"/><path fill="#b19a7a" d="M124 157l-38 12-42-29z"/><path d="M-16 178l35 2-28 29z"/><path fill="#685e45" d="M71.1 73.5l13.8-42.3 10.6 44.4L67 36z"/><circle r="1" fill="#373837" transform="matrix(14.20466 -4.9744 1.13846 3.25093 7.8 141.3)"/><path fill="#7d6747" d="M190.6 133.2l-51.7-4.7 30.8 8.1 31-2.7z"/><path fill="#9d6d3e" d="M24 13l34 16-1 18z"/><path fill="#cbdad5" d="M91.6 135.8l4 16.4 123.4-3-112.2-2.8z"/><path fill="#351c0e" d="M171 58.4l-6.8-1.6 6.8-29.2 6.8 1.6z"/><path fill="#724920" d="M8 78h57v9H8z"/><path fill="#bcd8c9" d="M97.4 125.4l-1.5 14 12.7-7.2 1-4.5z"/><path fill="#695738" d="M169.4 23.2l-37 14.5 21.4 3.2L164 109z"/><path fill="#090f0f" d="M81.9 137.9l-16.7-.9 7.4 6.3 4.5 1.7z"/><path fill="#ae743b" d="M32.7 30.9L6.3 21.8-10.5 83-16 4.9z"/><path fill="#9eab9b" d="M88 69l-3-7 12 6z"/><path fill="#a88f72" d="M26 98h13v12H26z"/><path fill="#c4d3c9" d="M90.1 135.4l-19.7 12.9 14.4-4.3-4.5-9.5z"/><circle r="1" fill="#141915" transform="matrix(-12.50714 10.15647 -9.77542 -12.0379 40.5 122.1)"/><circle r="1" fill="#120d04" transform="matrix(-1.49662 5.30597 -56.64397 -15.97724 35.3 0)"/></g></g></svg>