<svg xmlns="http://www.w3.org/2000/svg" viewBox="0 0 1120 1400"><defs/><filter id="prefix__a"><feGaussianBlur stdDeviation="12"/></filter><rect width="100%" height="100%" fill="#4a3c35"/><g filter="url(#prefix__a)"><g transform="translate(2.7 2.7) scale(5.46875)"><circle r="1" fill="#fbfbe2" fill-opacity=".5" transform="matrix(158.3155 -102.52429 88.77526 137.0846 95 159)"/><ellipse cx="76" cy="75" fill="#b5c6c8" fill-opacity=".5" rx="17" ry="191"/><ellipse cx="117" cy="187" fill="#8d7554" fill-opacity=".5" rx="26" ry="93"/><circle r="1" fill="#ded4ad" fill-opacity=".5" transform="matrix(.18765 -15.35858 105.584 1.29002 175.5 81.5)"/><ellipse cx="20" cy="181" fill="#7b878c" fill-opacity=".5" rx="54" ry="103"/><path fill="#976641" fill-opacity=".5" d="M57.9-2L0 67l-29.9-25L28-27z"/><ellipse cx="172" cy="25" fill="#f8ecc6" fill-opacity=".5" rx="71" ry="7"/><path fill="#c9cac8" fill-opacity=".5" d="M5.6 63.9l7.1-8.7L59-4.1l2.5 93.4z"/><circle r="1" fill="#8e7c66" fill-opacity=".5" transform="matrix(-58.84127 -2.87782 .90456 -18.49506 149.4 48.3)"/><path fill="#ffffdb" fill-opacity=".5" d="M140 5l-8-21 63 23z"/><path fill="#5a5343" fill-opacity=".5" d="M207 4l-51 7 63 8z"/><circle r="1" fill="#676661" fill-opacity=".5" transform="matrix(-8.82253 -13.28665 28.899 -19.18936 2.5 207.2)"/><ellipse cx="55" cy="110" fill="#a2a6a2" fill-opacity=".5" rx="23" ry="74"/><ellipse cx="100" cy="130" fill="#7d6a52" fill-opacity=".5" rx="9" ry="40"/><ellipse cx="143" cy="244" fill="#a79478" fill-opacity=".5" rx="33" ry="130"/><ellipse cx="138" cy="88" fill="#ffffd8" fill-opacity=".5" rx="35" ry="3"/><path fill="#d0c1a8" fill-opacity=".5" d="M156 180l60-57 3 50z"/><path fill="#7e715c" fill-opacity=".5" d="M124 196l2 28 59 35z"/><circle r="1" fill="#7c6751" fill-opacity=".5" transform="matrix(1.2741 26.05093 -29.6224 1.44878 20.4 0)"/><path fill="#d4c8a9" fill-opacity=".5" d="M143 220l42-11-25 24z"/><path fill="#9d8464" fill-opacity=".5" d="M91.8 77.1l8.9 8 18.9-27L97.4-16z"/><path fill="#837258" fill-opacity=".5" d="M92 174h17v82H92z"/><ellipse cx="85" cy="33" fill="#c1c8c0" fill-opacity=".5" rx="8" ry="120"/><path fill="#897c68" fill-opacity=".5" d="M97 112h57v37H97z"/><circle r="1" fill="#bfb69c" fill-opacity=".5" transform="matrix(-5.59096 26.531 -35.20357 -7.41856 185.5 87.1)"/><path fill="#e2e0c8" fill-opacity=".5" d="M165 19h39v15h-39z"/><circle r="1" fill="#938268" fill-opacity=".5" transform="rotate(92.9 59.6 69.3) scale(7.21236 38.87113)"/><circle cx="124" cy="231" r="10" fill="#c9bd9b" fill-opacity=".5"/><ellipse cx="25" cy="248" fill="#787a76" fill-opacity=".5" rx="44" ry="10"/><path fill="#cec8bb" fill-opacity=".5" d="M30 71l-31 1L53 5z"/><path fill="#cbdad9" fill-opacity=".5" d="M90 147h2v103h-2z"/><path fill="#b7a98d" fill-opacity=".5" d="M95 24h109v4H95z"/><path fill="#9e958c" fill-opacity=".5" d="M27 46h57v14H27z"/><path fill="#c3b394" fill-opacity=".5" d="M120.2 175.2l-9.3 16.3 7.4 9.9 15.4-9.7z"/><circle r="1" fill="#abb0ac" fill-opacity=".5" transform="matrix(-1.51247 -8.30257 29.61947 -5.39573 47.6 127.8)"/><path fill="#837669" fill-opacity=".5" d="M196.6 146.1l-28.1-20.6-16.5 1 52.2 27.6z"/><circle r="1" fill="#bfb098" fill-opacity=".5" transform="rotate(70.6 -50.1 231.1) scale(75.73052 5.13854)"/><path fill="#584e49" fill-opacity=".5" d="M200 190.2l.7.6-72.6 93-.8-.6z"/><path fill="#bdab8c" fill-opacity=".5" d="M132 90l-45-3 44 22z"/><path fill="#c7c2b5" fill-opacity=".5" d="M94.2 17l-.6-23.2-56.7 29.4 121.5 11z"/><path fill="#bfc5bf" fill-opacity=".5" d="M92 63l-73-5 69 33z"/><circle r="1" fill="#b1a88f" fill-opacity=".5" transform="matrix(-2.23953 -2.21923 22.12912 -22.33155 102.5 227.1)"/><path fill="#f8f5cb" fill-opacity=".5" d="M83 70h70v2H83z"/><circle r="1" fill="#fdfcea" fill-opacity=".5" transform="matrix(-.39889 -4.38302 6.51634 -.59303 201.7 70.2)"/><ellipse cx="138" cy="77" fill="#ad9f81" fill-opacity=".5" rx="47" ry="5"/><path fill="#787872" fill-opacity=".5" d="M-13 193l-3-59 40 5z"/><path fill="#dfd4bd" fill-opacity=".5" d="M204 197l-18 10 26-27z"/><circle r="1" fill="#938777" fill-opacity=".5" transform="rotate(-149.7 108 57.9) scale(30.33372 4.13899)"/><path fill="#c5bea8" fill-opacity=".5" d="M183.4 152l35.6-36.2-62 54.9-34.2 37.4z"/><path fill="#473a35" fill-opacity=".5" d="M164.1 241.7l18.4 13.8-.6.8-18.4-13.8z"/><path fill="#817361" fill-opacity=".5" d="M92.6 151.5l29.5 7.5 66.4 56.6-89.9-62.9z"/><path fill="#5c5148" fill-opacity=".5" d="M156.4 184.7l.5-.8 26.7 19.4-.5.8z"/><path fill="#5c504a" fill-opacity=".5" d="M211.2 189l.7.6-51 65.4-.8-.6z"/><path fill="#9d9480" fill-opacity=".5" d="M78 73.2l72.3-5.2 31.2 6.9-7.4-24.4z"/><path fill="#f5efcb" fill-opacity=".5" d="M88.4 88l-12-.7 98.6 5.5-74.1-8.1z"/><path fill="#534a40" fill-opacity=".5" d="M121.3 214.3l-.6.8-26-23.4.6-.8z"/><path fill="#d8cda2" fill-opacity=".5" d="M98 .6l48 .8v4l-48-.8z"/><path fill="#b7a991" fill-opacity=".5" d="M131 140l28 80-4-62z"/><ellipse cx="41" cy="235" fill="#a1a9a9" fill-opacity=".5" rx="34" ry="5"/><path fill="#6b6754" fill-opacity=".5" d="M206.6 11l-5.4 6-17.8-16 5.4-6z"/><path fill="#e8d9b9" fill-opacity=".5" d="M181.5 231.5l37.5-49.7-36 53.3-7 4.4z"/><path fill="#836f55" fill-opacity=".5" d="M91 228h8v28h-8z"/><path fill="#83827b" fill-opacity=".5" d="M47.8 91.3l-22.1-8.8-4.3 9.6 43.2 15.4z"/><path fill="#b78c6a" fill-opacity=".5" d="M18.4 50.2l4.4-20.8-27.2-11.9.7 20.7z"/><path fill="#dad4cb" fill-opacity=".5" d="M35.5 26.1L42.9 46l17.4-31.9-42.7 39.3z"/><path fill="#f8f7d8" fill-opacity=".5" d="M156 19h48v4h-48z"/><path fill="#5a4e44" fill-opacity=".5" d="M151.8 238.7l11.3 12.2-26.9-23.1 17.6 12.2z"/><path fill="#736450" fill-opacity=".5" d="M92.7 185.2l17.5-8.7L112 195l16.5 16.8z"/><circle r="1" fill="#504a42" fill-opacity=".5" transform="rotate(-134.2 103.1 88.4) scale(1 22.98979)"/><path fill="#656059" fill-opacity=".5" d="M121.2 201.4l35-31.5.6.7-35 31.5z"/><circle r="1" fill="#aca69e" fill-opacity=".5" transform="matrix(14.02387 -21.54928 8.0745 5.25474 16.3 75.8)"/><path fill="#696965" fill-opacity=".5" d="M35.6 195.9L-5.7 200l10.9 30.5-21.2 3.4z"/><path fill="#cce2e7" fill-opacity=".5" d="M91.4 263h-2l-.8-50h2z"/><path fill="#e0d6c0" fill-opacity=".5" d="M197 154h7v19h-7z"/><path fill="#7e766b" fill-opacity=".5" d="M210.1 54.7l-48 1.6-.2-9 48-1.6z"/><path fill="#969a96" fill-opacity=".5" d="M60 128.2l1-29 19 .6-1 29z"/><path fill="#887861" fill-opacity=".5" d="M132 112L93 91l3 41z"/><path fill="#807361" fill-opacity=".5" d="M123 119H95l65 38z"/><path fill="#b0a48d" fill-opacity=".5" d="M133 135l9-1-12-27z"/><path fill="#756e66" fill-opacity=".5" d="M119.7 214.3l32.9-32.5 22.1-20.2-17.3 19.2z"/><path fill="#957c61" fill-opacity=".5" d="M94 0h5v71h-5z"/><path fill="#b9aa8e" fill-opacity=".5" d="M143.8 181.3l-4.7 4-12.5 12.6-17.3-4.1z"/><ellipse cx="67" cy="37" fill="#b0a7a0" fill-opacity=".5" rx="21" ry="14"/><path fill="#c6b99b" fill-opacity=".5" d="M150.6 114.2l-.5 6.2 14.2 5.1-19.9-39.2z"/><path fill="#b5a68b" fill-opacity=".5" d="M132 17h24v19h-24z"/><circle r="1" fill="#706255" fill-opacity=".5" transform="matrix(9.22107 5.74472 -.93004 1.49284 202.7 225)"/><circle r="1" fill="#c8b595" fill-opacity=".5" transform="rotate(129.2 38 154.6) scale(20.77515 2.28925)"/><path fill="#b59f7d" fill-opacity=".5" d="M138 230l-45 41 62-26z"/><path fill="#7f6752" fill-opacity=".5" d="M46.5-15.3l7.7 17.8L42 15.6l-45 6.9z"/><path fill="#cbbda9" fill-opacity=".5" d="M192.7 198.1l7.3-9.6-28.8 6.5 10.5 2.6z"/><path fill="#bbc9bf" fill-opacity=".5" d="M85 115.6l-.6 57.3-6.4-7.8-1.5-35.8z"/><circle r="1" fill="#f1edc3" fill-opacity=".5" transform="rotate(91 32.2 120.2) scale(2.51533 22.78676)"/><path fill="#e2d6b5" fill-opacity=".5" d="M198.2 271.4l-9.6-7.2 19.2-25.6 9.6 7.2z"/><path fill="#c6c3af" fill-opacity=".5" d="M219 81.1l-34.8 15.4 34.8 45.9-27.4-31.6z"/><path fill="#d3c7ac" fill-opacity=".5" d="M177 124l15 9-6 5z"/><path fill="#c5ba9e" fill-opacity=".5" d="M149 188l10 50 11-14z"/><path fill="#938f7d" fill-opacity=".5" d="M202.4 10.1l-75-5.6 59.3 15.1-1.5-24.7z"/><path fill="none" stroke="#49443f" stroke-opacity=".5" stroke-width=".5" d="M156.3 235.7q-50.5-45.2-53-44.5"/><path fill="#e9e7c7" fill-opacity=".5" d="M83 21h46v2H83z"/><ellipse cx="21" cy="79" fill="#9c9c97" fill-opacity=".5" rx="39" ry="7"/></g></g></svg>