<svg xmlns="http://www.w3.org/2000/svg" viewBox="0 0 1120 1400"><defs/><filter id="prefix__a"><feGaussianBlur stdDeviation="12"/></filter><rect width="100%" height="100%" fill="#58372d"/><g filter="url(#prefix__a)"><g transform="translate(2.7 2.7) scale(5.46875)"><circle r="1" fill="#eae9da" fill-opacity=".5" transform="rotate(10.2 -775.6 575.4) scale(203 145.63246)"/><ellipse cx="63" cy="78" fill="#eefdff" fill-opacity=".5" rx="24" ry="58"/><circle r="1" fill="#aa6d43" fill-opacity=".5" transform="matrix(45.001 46.27555 -27.24882 26.49832 172.5 29)"/><circle cx="151" cy="167" r="64" fill="#786e68" fill-opacity=".5"/><path fill="#a55f2e" fill-opacity=".5" d="M-9.2 123.5l53-1.9 3.4 99-53 1.8z"/><circle r="1" fill="#c5cdd0" fill-opacity=".5" transform="matrix(-6.9172 23.99972 -62.97177 -18.14973 93.1 49.6)"/><circle r="1" fill="#d9ddd0" fill-opacity=".5" transform="matrix(17.39546 171.25512 -10.51453 1.06803 60.5 192.4)"/><circle r="1" fill="#666768" fill-opacity=".5" transform="matrix(-124.24007 1.30109 -.15018 -14.34017 40 11.4)"/><path fill="#b8b5ab" fill-opacity=".5" d="M45 156h76v37H45z"/><circle r="1" fill="#ddd7c8" fill-opacity=".5" transform="rotate(138 63.3 65.1) scale(6.24205 69.17754)"/><circle r="1" fill="#6d472f" fill-opacity=".5" transform="rotate(-143.5 66.7 -15.7) scale(41.36005 15.4884)"/><circle r="1" fill="#b26331" fill-opacity=".5" transform="matrix(8.62643 -10.7666 28.93354 23.18218 203 96.7)"/><circle r="1" fill="#ba8664" fill-opacity=".5" transform="rotate(101.9 -30.2 53) scale(35.39877 30.11102)"/><circle r="1" fill="#b0a79a" fill-opacity=".5" transform="matrix(9.39277 8.31785 -26.74136 30.19713 73.4 120.5)"/><ellipse cx="147" cy="238" fill="#889498" fill-opacity=".5" rx="72" ry="27"/><path fill="#d0b08f" fill-opacity=".5" d="M10 193.6L31 212 8 238.4-13 220z"/><ellipse cx="186" cy="177" fill="#7e6c63" fill-opacity=".5" rx="34" ry="48"/><circle r="1" fill="#9a908a" fill-opacity=".5" transform="matrix(-29.17796 -14.51403 7.79273 -15.66595 108.4 72.7)"/><ellipse cx="200" cy="47" fill="#c08966" fill-opacity=".5" rx="58" ry="24"/><path fill="#dce4eb" fill-opacity=".5" d="M37 0l26 53-18 35z"/><path fill="#796e63" fill-opacity=".5" d="M41 3l-56-19 49 57z"/><path fill="#c0c5c6" fill-opacity=".5" d="M104.2 8.7L39.4 68.8l89.2-35.2-60-49.6z"/><path fill="#8f5733" fill-opacity=".5" d="M-12 137l61 3-15 32z"/><path fill="#7e7f7d" fill-opacity=".5" d="M76 193l125 19-123 21z"/><circle r="1" fill="#d1d1b4" fill-opacity=".5" transform="matrix(-34.7632 5.755 -.16333 -.98657 151.1 223.2)"/><circle r="1" fill="#8d7365" fill-opacity=".5" transform="matrix(-38.38683 -14.87314 7.98323 -20.60433 139 127.6)"/><path fill="#d3d3d2" fill-opacity=".5" d="M41 102l21-80 35 89z"/><path fill="#b9c5c1" fill-opacity=".5" d="M52.7 275.9l-6.2-58.7 28.8-3 6.2 58.6z"/><circle r="1" fill="#a6805f" fill-opacity=".5" transform="matrix(-12.59718 -10.28868 20.37389 -24.94525 24.1 243.5)"/><circle r="1" fill="#868f9a" fill-opacity=".5" transform="matrix(-31.43063 -1.26394 .86585 -21.53136 67.2 6.3)"/><path fill="#4f413f" fill-opacity=".5" d="M-16 201.4L59.6 271l-25.5-21-50.1-45.1z"/><path fill="#9b9087" fill-opacity=".5" d="M62 116h46v47H62z"/><path fill="#83614c" fill-opacity=".5" d="M128 0h75v35h-75z"/><path fill="#ae8263" fill-opacity=".5" d="M25 61h17v64H25z"/><path fill="#a5968e" fill-opacity=".5" d="M126 44l59 66-35 2z"/><ellipse cx="9" cy="43" fill="#a5998f" fill-opacity=".5" rx="30" ry="23"/><path fill="#63503f" fill-opacity=".5" d="M15 231l30-34v15z"/><circle r="1" fill="#d2a77f" fill-opacity=".5" transform="matrix(1.01323 10.50752 -12.10068 1.16685 0 174)"/><path fill="#d09d79" fill-opacity=".5" d="M165.7 66.1l11.7-15L196.3 66l-11.7 15z"/><path fill="#cecdb9" fill-opacity=".5" d="M46 171h21v30H46z"/><path fill="#e8ebcd" fill-opacity=".5" d="M96.9 244.8l-35.8 7.4 2.4 2.2 63.1-16.2z"/><path fill="#ccbca2" fill-opacity=".5" d="M214.5 136l-5.6 4.4-39.4-50.5 5.6-4.3z"/><path fill="#65564d" fill-opacity=".5" d="M-16 14.2l52.1-2.9-1.4-18.2L-16 17.9z"/><circle r="1" fill="#c4c0a2" fill-opacity=".5" transform="matrix(-.1723 -.98505 70.5741 -12.34393 117.4 187.5)"/><path fill="none" stroke="#f6f7ca" stroke-opacity=".5" stroke-width=".5" d="M219 217.6q-27.4 9-81 18.6"/><circle r="1" fill="#553e37" fill-opacity=".5" transform="matrix(-.57358 .81915 -49.73215 -34.82282 0 156.8)"/><path fill="#e2c8a7" fill-opacity=".5" d="M-16 271l30.7-26.2-30.7-28.7 33.2 23.6z"/><path fill="#a87655" fill-opacity=".5" d="M125.2 29.4l13.3-12 80.3 89.2-13.3 12z"/><circle r="1" fill="#70503b" fill-opacity=".5" transform="matrix(-.6425 -.7663 33.6891 -28.24646 11.8 171)"/><path fill="#f1f4d0" fill-opacity=".5" d="M56.6 245l70.5-19 .3 1-70.5 19z"/><circle r="1" fill="#765843" fill-opacity=".5" transform="matrix(-12.97888 7.01765 -11.43568 -21.14984 130.4 14.4)"/><path fill="#797b7e" fill-opacity=".5" d="M116 19l-50 1-43-36z"/><path fill="#818586" fill-opacity=".5" d="M52.9 272L48 204.4l5-.4 4.8 67.8z"/><path fill="#c2c3b3" fill-opacity=".5" d="M141.2 200.5l-79.4 16.9-8.3 53.6L73 218.7z"/><path fill="#ccae92" fill-opacity=".5" d="M42.7 253.7L65.8 271l-44-42-1.5 4.7z"/><circle r="1" fill="#a19485" fill-opacity=".5" transform="rotate(-12.3 620.2 -506.1) scale(34.4924 6.73311)"/><path fill="#8d867e" fill-opacity=".5" d="M-16 12.4L37.1 51-16-6.5l70.1 1.6z"/><path fill="#b5a186" fill-opacity=".5" d="M46 137h20v26H46z"/><path fill="#876d61" fill-opacity=".5" d="M103.2 124.5l106.6 1-82.8 16.7-5.6 36z"/><path fill="#bab4a9" fill-opacity=".5" d="M64 129.7l38.2-6.5-14.3-25.3-49.2 26.2z"/><circle r="1" fill="#563f35" fill-opacity=".5" transform="rotate(34.5 -242.3 89.4) scale(45.8988 1)"/><path fill="#6c4d39" fill-opacity=".5" d="M88-16l24 33L219 0z"/><path fill="#968c86" fill-opacity=".5" d="M143 80L91 95 81 63z"/><path fill="#453435" fill-opacity=".5" d="M36.4 265.6L-.8 233.7l-15.2 2.8v-18.8z"/><path fill="#77706d" fill-opacity=".5" d="M82.9 212.5l6.4-18.1 92.3-17.8 29.3 7.2z"/><path fill="#5e433a" fill-opacity=".5" d="M43.9 212.3l-17.4 18.9-.3 5.2 12.2-14.8z"/><path fill="#dae4ea" fill-opacity=".5" d="M64.6 25.7l6 26.3-27.2 6.3-6-26.3z"/><circle r="1" fill="#e3e0d6" fill-opacity=".5" transform="rotate(137.7 60 53) scale(2.96775 31.27774)"/><path fill="#ceb39b" fill-opacity=".5" d="M9 100.1l14.3 9-4.2 6.8-14.4-9z"/><path fill="#a37b60" fill-opacity=".5" d="M143.9 31.8l37.2 29.1-43.8-47.4-19.2 1.5z"/><path fill="#92817a" fill-opacity=".5" d="M65 136h39v23H65z"/><path fill="#b0957b" fill-opacity=".5" d="M83.2 163.5l-49.6 50.9 7.7-1-31.1 25.7z"/><path fill="#cea285" fill-opacity=".5" d="M4 131l14-9-34-17z"/><path fill="#7a6c65" fill-opacity=".5" d="M96 106h36v9H96z"/><path fill="#83685c" fill-opacity=".5" d="M111.4 143.9l65.7-30.5 15.2 8-22.3 10.4z"/><path fill="#706561" fill-opacity=".5" d="M216.2 208.1l-43.2 8.4-3.2-16.6 43.2-8.4z"/><path fill="#adab93" fill-opacity=".5" d="M180.9 192.3l7.6 2-86.9 12.2 14.8 1.6z"/><path fill="#c99876" fill-opacity=".5" d="M152 64l7.2-8.1 26.1 4.8 17.9 16.9z"/><path fill="#a3a7ac" fill-opacity=".5" d="M147 265l16-28-68 33z"/><circle r="1" fill="#bc8a68" fill-opacity=".5" transform="rotate(-46.7 133.3 -192.3) scale(3.94287 40.5855)"/><path fill="#cdb094" fill-opacity=".5" d="M31 263l-15-28 37 33z"/><path fill="#ffffdc" fill-opacity=".5" d="M100 244l47.8-11 .2 1-47.8 11z"/><path fill="#948880" fill-opacity=".5" d="M199.1 186.6l19.9 30.6V153l-36.3 4z"/><path fill="none" stroke="#cdcdaf" stroke-opacity=".5" stroke-width=".5" d="M115 231.8q49.4-12.8 86.6-17.8"/><path fill="#d5d3ac" fill-opacity=".5" d="M245.2 181l.2 1-128.6 25-.2-1z"/><path fill="#bbb4af" fill-opacity=".5" d="M152.2 68.4l-99-10.6 71.9-3.5-4.1 20.4z"/><path fill="#ac8367" fill-opacity=".5" d="M40 204.2l-56-19.6 8.8 24.2 40.4 1.9z"/><path fill="#a48471" fill-opacity=".5" d="M24 60l12-41 7 81z"/><path fill="#d4ad83" fill-opacity=".5" d="M47.8 193.6l-22.6 21.6-10.9 11L8 238z"/><ellipse cx="146" cy="154" fill="#a08c7f" fill-opacity=".5" rx="30" ry="5"/><path fill="#d3ccbf" fill-opacity=".5" d="M178 102.7l-3.3-13.8-18.3-24.6-55.5-57.4z"/><ellipse cx="49" cy="250" fill="#dbecef" fill-opacity=".5" rx="1" ry="22"/><path fill="#1b0d11" fill-opacity=".5" d="M5 245l-21 17v-11z"/><path fill="#442e2f" fill-opacity=".5" d="M-1.6 270.1l6.1-13 9.4-10.9 3.5-2.3z"/><circle r="1" fill="#7b7b7b" fill-opacity=".5" transform="matrix(-.76638 -3.12014 31.29498 -7.68678 124.4 234)"/><path fill="#00000f" fill-opacity=".5" d="M20 251l33 20H37z"/><path fill="#bdb7b7" fill-opacity=".5" d="M116.4 164.6l1 8.9-15.8 2-1-9z"/><path fill="#b5a496" fill-opacity=".5" d="M25 63l-41-13 40-17z"/><circle r="1" fill="#8e6852" fill-opacity=".5" transform="rotate(-29.6 198.9 52.5) scale(46.32571 1)"/><path fill="#ba865b" fill-opacity=".5" d="M40 157l-21 3 23 11z"/></g></g></svg>