<svg xmlns="http://www.w3.org/2000/svg" viewBox="0 0 1120 1400"><defs/><filter id="prefix__a"><feGaussianBlur stdDeviation="12"/></filter><rect width="100%" height="100%" fill="#504539"/><g filter="url(#prefix__a)"><g transform="translate(2.7 2.7) scale(5.46875)"><circle r="1" fill="#e3e1d2" fill-opacity=".5" transform="matrix(-89.21862 182.34319 -102.13257 -49.9724 66 103.5)"/><circle r="1" fill="#dbe4e4" fill-opacity=".5" transform="matrix(9.2303 -51.0116 97.08807 17.5676 101.3 3.6)"/><circle r="1" fill="#806848" fill-opacity=".5" transform="matrix(32.88528 72.4952 -184.77631 83.81825 136.8 190.7)"/><path fill="#8f602c" fill-opacity=".5" d="M129 229l69 38 13-283z"/><circle r="1" fill="#c7cac2" fill-opacity=".5" transform="matrix(-85.39488 107.74152 -16.04573 -12.71769 32.8 100.5)"/><circle r="1" fill="#75746c" fill-opacity=".5" transform="matrix(8.45048 -117.8902 55.27284 3.962 71.8 218.4)"/><circle r="1" fill="#a8a9a2" fill-opacity=".5" transform="matrix(-10.6058 -51.16787 41.20008 -8.53974 133.7 76)"/><ellipse cx="17" cy="176" fill="#919189" fill-opacity=".5" rx="33" ry="57"/><circle r="1" fill="#a8a386" fill-opacity=".5" transform="matrix(8.0091 2.80354 -42.96946 122.75464 128.4 194.8)"/><ellipse cx="86" cy="239" fill="#6b6658" fill-opacity=".5" rx="28" ry="73"/><circle r="1" fill="#8a6e4e" fill-opacity=".5" transform="matrix(-14.60933 -1.15045 6.53102 -82.93644 196.6 100.3)"/><circle cx="167" cy="40" r="23" fill="#c8cbc5" fill-opacity=".5"/><path fill="#562d00" fill-opacity=".5" d="M119 254.7l9.8 16.3 38.1-9.3-33.5-35.6z"/><circle r="1" fill="#4e320a" fill-opacity=".5" transform="matrix(12.89242 -3.52725 6.51017 23.79524 198.6 237.2)"/><circle r="1" fill="#deddc9" fill-opacity=".5" transform="matrix(3.66671 3.30715 -57.57248 63.83185 23 86.7)"/><circle r="1" fill="#485356" fill-opacity=".5" transform="matrix(11.70593 -2.78875 6.60438 27.7223 21.4 254.2)"/><path fill="#83613a" fill-opacity=".5" d="M137 206l53-157-2 202z"/><path fill="#848481" fill-opacity=".5" d="M125.5 50.7L67.7 46l62.9 31.5L166 87.8z"/><path fill="#b2a595" fill-opacity=".5" d="M-4-16l63 55L2 49z"/><path fill="#625e55" fill-opacity=".5" d="M143 134l-10 22-60-42z"/><ellipse cx="68" cy="94" fill="#a39989" fill-opacity=".5" rx="27" ry="42"/><path fill="#c2bfb3" fill-opacity=".5" d="M1.6 139.3l21 9.4-14.2 32-21-9.4z"/><circle r="1" fill="#ccdbde" fill-opacity=".5" transform="matrix(8.4765 10.38777 -27.98892 22.8392 101.8 10.9)"/><circle r="1" fill="#b7b2a7" fill-opacity=".5" transform="rotate(106.7 93 69.1) scale(29.3847 18.18346)"/><ellipse cx="155" cy="190" fill="#be9860" fill-opacity=".5" rx="10" ry="8"/><path fill="#9c957c" fill-opacity=".5" d="M47.8 186.4L26.2 192l87.7 38.4 20.5-3z"/><path fill="#6e6356" fill-opacity=".5" d="M32.5 152.6l3.2-22.8 25.8 3.6-3.2 22.8z"/><path fill="#cbc6ac" fill-opacity=".5" d="M115 100L94 80l-31 3z"/><circle r="1" fill="#bdbd92" fill-opacity=".5" transform="rotate(28.1 -418 196.7) scale(71.31997 1)"/><path fill="#6f6a67" fill-opacity=".5" d="M119 88l11-9-43-3z"/><path fill="#644424" fill-opacity=".5" d="M121.5 256.9l46.2-140.8 20.7 60.7-23.5-34.1z"/><path fill="#a68568" fill-opacity=".5" d="M42.9 56.3L-3.5 106-19 91.7 27.5 42z"/><path fill="#bbbcb5" fill-opacity=".5" d="M80.8 58.2l62.5 26.3-88.5-23.9L219-6.2z"/><path fill="#887f6f" fill-opacity=".5" d="M81.9 131.1l-8.4 57.6 38.5-86.2-53.1-16.9z"/><path fill="#9e7951" fill-opacity=".5" d="M160.5 171.8l-5-15.2 38-12.4 5 15.2z"/><path fill="#605a53" fill-opacity=".5" d="M105 186l-12 22-53-49z"/><path fill="#a38151" fill-opacity=".5" d="M155 211l18 35 4-43z"/><circle r="1" fill="#68441f" fill-opacity=".5" transform="rotate(-162.8 96 29.3) scale(1.25243 101.80401)"/><circle r="1" fill="#a7a084" fill-opacity=".5" transform="rotate(-155.4 51.1 76.3) scale(79.24132 1)"/><path fill="#351200" fill-opacity=".5" d="M142 208l7 4-16 8z"/><path fill="#999c9d" fill-opacity=".5" d="M201.8-11.8L145.6-16l10.6 37.7-30.6-4.2z"/><path fill="#a3a39a" fill-opacity=".5" d="M134 66l4-20.6 44 8.6-4 20.6z"/><path fill="#706960" fill-opacity=".5" d="M17.7 186.7L8 182.5l-12.3 13.4 135.6 49.7z"/><path fill="#361f10" fill-opacity=".5" d="M182.3 271l-21-40.5-17-36.8 34 64.3z"/><path fill="#b5ad9b" fill-opacity=".5" d="M158.2 129.8l-14.6-15-36.9 6.5 4.6-26.4z"/><path fill="#c5c8c4" fill-opacity=".5" d="M134.2 23.5l41-4.4 13.6 34.3-63-12.2z"/><circle r="1" fill="#b2b08b" fill-opacity=".5" transform="rotate(-64.4 158.6 75.7) scale(1 93.67086)"/><circle r="1" fill="#9f825f" fill-opacity=".5" transform="matrix(6.6471 18.26278 -10.07248 3.66608 203 58.8)"/><path fill="#c5c1ac" fill-opacity=".5" d="M155 92h13v13h-13z"/><circle r="1" fill="#7b7d7d" fill-opacity=".5" transform="matrix(58.08027 22.67609 -3.21832 8.2431 13.6 218.8)"/><path fill="#635a50" fill-opacity=".5" d="M61 207.7l45.2 21.2-7.1 15.4L53.8 223z"/><path fill="#ad9c87" fill-opacity=".5" d="M78.7 13.2L63.6 25.9 0 24.7l32.4 47z"/><path fill="#cecda5" fill-opacity=".5" d="M-7.7 162.7l.5-.9 80.9 39.5-.5.9z"/><path fill="#958e84" fill-opacity=".5" d="M41.4 118.9l-18 30-12.8-7.8 18-30z"/><circle r="1" fill="#432917" fill-opacity=".5" transform="matrix(-50.85411 22.33604 -.40214 -.91558 185.8 197.4)"/><path fill="#422814" fill-opacity=".5" d="M218.9 242.1l-24.7-42.6 24.8 24.9-20.9-35.6z"/><circle r="1" fill="#4e2e15" fill-opacity=".5" transform="rotate(-113.6 158.4 27) scale(1 65.22528)"/><path fill="none" stroke="#1a0000" stroke-opacity=".5" stroke-width=".5" d="M141.7 213.3q8 7 22.6 40.3"/><circle r="1" fill="#4f3421" fill-opacity=".5" transform="rotate(-33.7 375.3 -220.4) scale(1 42.86951)"/><path fill="#a7834f" fill-opacity=".5" d="M172.7 267l-27.2-61.2 1.8-.8 27.2 61.2z"/><path fill="#270b00" fill-opacity=".5" d="M139.4 203.9l.9-.5 40.3 82.7-.9.5z"/><path fill="#ac8a5e" fill-opacity=".5" d="M189.7 193.3l-2.4 1.6-19-28.2 2.4-1.6z"/><path fill="#bab5a3" fill-opacity=".5" d="M188.1 53.2l-28.9 44.6L195.3-16 203.8.9z"/><path fill="#9d9377" fill-opacity=".5" d="M124.8 236.8l12.5-40.4-18.4 7.2-14.6 26.7z"/><circle r="1" fill="#63635f" fill-opacity=".5" transform="rotate(-76.4 191.3 90.3) scale(10.10668 66.91422)"/><path fill="#dce4db" fill-opacity=".5" d="M73.3 23L50.8 56l50.9-50.9L98.9-4z"/><path fill="#a18051" fill-opacity=".5" d="M171.6 195.6l-19.5 12.1 8.1-1.9 39.5-15.2z"/><path fill="#ac9c86" fill-opacity=".5" d="M86 7L99-7 56 11z"/><path fill="#818281" fill-opacity=".5" d="M150 64h16v15h-16z"/><path fill="#cbcdc7" fill-opacity=".5" d="M47 3.1l14.5 31L4.3-16l65.9 5.8z"/><path fill="#d5d4b8" fill-opacity=".5" d="M29 82.9l46.2 13.2-.3 1-46.1-13.2z"/><path fill="#797876" fill-opacity=".5" d="M133.2 63.4l-1.3 5.9-41-8.7 1.2-5.9z"/><path fill="#1e0300" fill-opacity=".5" d="M219 238.3l-40.7 22.9-13.5-5.8 5.1 15.6z"/><path fill="#372012" fill-opacity=".5" d="M217.8 130.3l-41.2 18.3-.4-1 41.2-18.2z"/><path fill="#cbd2ce" fill-opacity=".5" d="M145 13l24-7-47-8z"/><path fill="#9a8c79" fill-opacity=".5" d="M78 164l-44 1 55-19z"/><path fill="#756d67" fill-opacity=".5" d="M38.3 186.4l68 31.7-2.6 5.5-68-31.7z"/><path fill="#c3c7c2" fill-opacity=".5" d="M192.7 32.8L76.1 6.5 186 52.3l9.3-21.4z"/><path fill="#d2d1be" fill-opacity=".5" d="M-2.5 125.4l7.7-24.7 33.3-27.5-21.1 31.7z"/><path fill="#816d5b" fill-opacity=".5" d="M11 71L7 83l30-20z"/><path fill="#58452f" fill-opacity=".5" d="M184.1 65.8l-7.2 30.8-2.4 11.1-2-16z"/><circle r="1" fill="#6a5e56" fill-opacity=".5" transform="rotate(-13 312 -10.6) scale(1 17.57816)"/><ellipse cx="17" cy="63" fill="#c8ac90" fill-opacity=".5" rx="7" ry="6"/><path fill="#593f24" fill-opacity=".5" d="M191 133l-35 14 7-14z"/><path fill="#8c8a82" fill-opacity=".5" d="M25 230l35-30-28 51z"/><path fill="#5f594c" fill-opacity=".5" d="M117.9 271l-1.2-26.3-23.4 25.2-43.8-35.6z"/><circle r="1" fill="#8c8984" fill-opacity=".5" transform="matrix(-28.69884 -11.01645 1.08362 -2.82292 79 73.6)"/><path fill="#b29063" fill-opacity=".5" d="M199 194.5l-35.6 15.9-.4-1 35.6-15.8z"/><path fill="#382a23" fill-opacity=".5" d="M200.8 132l-.8.7L169.2 96l.8-.6z"/><circle r="1" fill="#654730" fill-opacity=".5" transform="matrix(.85592 -.5171 12.81226 21.20722 171.5 162.3)"/><path fill="#b8b390" fill-opacity=".5" d="M50.8 159.5l23.8 11.8-24.5-9.1L-8.3 137z"/><path fill="#807a6e" fill-opacity=".5" d="M162.1 132.9l-4.8 16.1 16.7 9.6-69.5-42.4z"/><path fill="#b5ad9b" fill-opacity=".5" d="M173.1 87.5l-54.3 4.2 25.4 28.2L108 108z"/><path fill="#474036" fill-opacity=".5" d="M63.9 224l92.7 47.2-.5.9-92.7-47.3z"/><path fill="#8f7a65" fill-opacity=".5" d="M40.7 49.4L-16 63.3l18.4-9 13.2-6.5z"/><circle r="1" fill="#b1a88a" fill-opacity=".5" transform="matrix(-.3057 .95213 -41.11136 -13.19941 72.1 121.4)"/><path fill="#2f1e16" fill-opacity=".5" d="M210 89l-35.7 13-.3-1 35.7-13z"/><path fill="#6f6153" fill-opacity=".5" d="M89.2 167.4l34.7 12.7-3 8.5L86 175.9z"/><path fill="#8e867a" fill-opacity=".5" d="M55.6 81.8l34.9 41.7-75.1-35.8 116.1 41.7z"/><path fill="#a27c4c" fill-opacity=".5" d="M165.4 152.2l-11.2 10.9 8.7 24.7-17.9 6.6z"/></g></g></svg>