<svg xmlns="http://www.w3.org/2000/svg" viewBox="0 0 1120 1400"><defs/><filter id="prefix__a"><feGaussianBlur stdDeviation="12"/></filter><rect width="100%" height="100%" fill="#4a3c35"/><g filter="url(#prefix__a)"><g transform="translate(2.7 2.7) scale(5.46875)"><circle r="1" fill="#fbfbe2" fill-opacity=".5" transform="matrix(-27.56331 -148.93871 163.7337 -30.30134 110 138.6)"/><circle r="1" fill="#b3bdbe" fill-opacity=".5" transform="matrix(28.92306 -2.2763 14.2709 181.32894 62.1 23.5)"/><circle r="1" fill="#8b7353" fill-opacity=".5" transform="matrix(23.51291 -.07941 .2661 78.78861 115.1 172.9)"/><path fill="#94623c" fill-opacity=".5" d="M76.7-27.4l-75.1 96-32.3-25.2 75.1-96z"/><circle r="1" fill="#7b868b" fill-opacity=".5" transform="matrix(-47.92 -4.26045 10.31833 -116.0567 23.2 195.6)"/><circle r="1" fill="#dcd1aa" fill-opacity=".5" transform="rotate(91.4 45.8 127) scale(17.97643 95.46363)"/><ellipse cx="201" cy="25" fill="#f6eac4" fill-opacity=".5" rx="116" ry="7"/><ellipse cx="144" cy="50" fill="#8e7b65" fill-opacity=".5" rx="55" ry="19"/><circle r="1" fill="#c3beb7" fill-opacity=".5" transform="rotate(42.2 -19.9 82.4) scale(16.49851 85.81517)"/><path fill="#ffffda" fill-opacity=".5" d="M170-8l19 15-63-4z"/><path fill="#786a54" fill-opacity=".5" d="M98 8h106v9H98z"/><circle r="1" fill="#9d8767" fill-opacity=".5" transform="matrix(-46.90496 -37.0433 22.09442 -27.97638 142.4 255)"/><path fill="#666660" fill-opacity=".5" d="M30.3 202.7l-44.3 42 4.9-60.6 39.5 1.4z"/><path fill="#7e6c55" fill-opacity=".5" d="M93 90h16v110H93z"/><ellipse cx="79" cy="217" fill="#afbcb7" fill-opacity=".5" rx="13" ry="251"/><ellipse cx="132" cy="87" fill="#fbf5cc" fill-opacity=".5" rx="37" ry="4"/><path fill="#d3c3a8" fill-opacity=".5" d="M155 180l42-35 18 28z"/><circle cx="17" r="30" fill="#806951" fill-opacity=".5"/><circle r="1" fill="#9fa39e" fill-opacity=".5" transform="matrix(-18.37935 44.81348 -24.3229 -9.97555 49.8 132.2)"/><path fill="#907f6a" fill-opacity=".5" d="M130.6 107.5l47 19.9-14.2 33.1-47-19.9z"/><path fill="#ae9e84" fill-opacity=".5" d="M116 179h88v62h-88z"/><circle r="1" fill="#736756" fill-opacity=".5" transform="matrix(3.56323 -4.01885 24.797 21.98577 141.3 227.3)"/><path fill="#dfd7ca" fill-opacity=".5" d="M30.1 32.1L6.4 65.4l46-39-5.5-11.7z"/><path fill="#9c8567" fill-opacity=".5" d="M93 24h21v60H93z"/><ellipse cx="85" fill="#c4c8c0" fill-opacity=".5" rx="9" ry="111"/><path fill="#9a928a" fill-opacity=".5" d="M35 45h49v16H35z"/><path fill="#7c694e" fill-opacity=".5" d="M90 261l3-57 13 53z"/><ellipse cx="198" cy="21" fill="#feffe2" fill-opacity=".5" rx="44" ry="3"/><path fill="#8c8a82" fill-opacity=".5" d="M4 198L-16 73h50z"/><path fill="#d4caac" fill-opacity=".5" d="M178 215h-30l12 21z"/><circle r="1" fill="#757671" fill-opacity=".5" transform="rotate(76.4 -159.6 130.5) scale(11.19955 49.84382)"/><circle r="1" fill="#ad9f84" fill-opacity=".5" transform="matrix(8.00714 -7.46678 24.60232 26.38276 134.7 12.3)"/><path fill="#fafbe4" fill-opacity=".5" d="M172 28h32v5h-32z"/><ellipse cx="122" cy="71" fill="#f3f0c5" fill-opacity=".5" rx="36" ry="2"/><path fill="#faf8e6" fill-opacity=".5" d="M194 65h10v10h-10z"/><path fill="#605c4a" fill-opacity=".5" d="M189-13l2 29 17 1z"/><ellipse cx="130" cy="79" fill="#b1a486" fill-opacity=".5" rx="39" ry="7"/><path fill="#8a7c66" fill-opacity=".5" d="M153.7 184.3l-33.5 26.6 34.5 8.6-31.3-58.4z"/><path fill="#b5aa97" fill-opacity=".5" d="M206 270l13-76-62-67z"/><path fill="#3e3739" fill-opacity=".5" d="M178.3 216.1l.8.6-17.4 23.2-.8-.6z"/><path fill="#8f9694" fill-opacity=".5" d="M12 228l65-80-10 98z"/><path fill="#c4c8c2" fill-opacity=".5" d="M8 63h80v8H8z"/><path fill="#b8af98" fill-opacity=".5" d="M163 59h35v53h-35z"/><path fill="#b1a287" fill-opacity=".5" d="M86 87l102 9-28 28z"/><circle r="1" fill="#bb906e" fill-opacity=".5" transform="matrix(-2.41775 11.47304 -16.04374 -3.38095 7.5 34)"/><circle r="1" fill="#756b62" fill-opacity=".5" transform="rotate(36.1 -296.3 381.3) scale(1 64.41936)"/><ellipse cx="124" cy="231" fill="#c3b595" fill-opacity=".5" rx="11" ry="10"/><path fill="#aeb3ae" fill-opacity=".5" d="M14 133l59 5-15-23z"/><path fill="#c7bb9d" fill-opacity=".5" d="M120 207l2 2-34 34-2-2z"/><path fill="#b5a68a" fill-opacity=".5" d="M111.4 161.5l54.3 40.1-55.6-4.3 7.4-15.6z"/><circle r="1" fill="#857f74" fill-opacity=".5" transform="matrix(.97357 -10.83518 27.43614 2.4652 196.4 50.3)"/><path fill="#aca59d" fill-opacity=".5" d="M53.1 20l36.7 10-7 26-36.6-9.8z"/><path fill="#78634e" fill-opacity=".5" d="M68-14L4 3l28 19z"/><path fill="#8c7e6a" fill-opacity=".5" d="M138 178l25 4 25 31z"/><path fill="#e6d8ba" fill-opacity=".5" d="M205.7 204.6L171 246l-.7-.6L205 204z"/><path fill="#695e53" fill-opacity=".5" d="M180.4 253.4l-37.3-30.8 47.8 48.4h13.6z"/><path fill="#e7fbfe" fill-opacity=".5" d="M89.5 195h1v94h-1z"/><path fill="#5e5850" fill-opacity=".5" d="M109.4 228.6l-12.8 10.8-10.8 8.3 53.6-52.1z"/><path fill="#968a7a" fill-opacity=".5" d="M186 189l-9-28 42 26z"/><circle r="1" fill="#877a69" fill-opacity=".5" transform="rotate(116.1 34.2 104.7) scale(3.56786 57.21809)"/><path fill="#f7f4ca" fill-opacity=".5" d="M131 88h38v5h-38z"/><path fill="#9b7f59" fill-opacity=".5" d="M96 20l-4.8-38.7L102-20l4.7 38.7z"/><path fill="#b8a589" fill-opacity=".5" d="M163.5 166.7l-8.1 12.6-37-24 8.2-12.6z"/><path fill="#4f4a4a" fill-opacity=".5" d="M127.7 207.3l-.6-.8 21.2-19.8.6.8z"/><circle r="1" fill="#5f564a" fill-opacity=".5" transform="matrix(-30.51477 -25.42395 .64011 -.76828 121.8 206)"/><path fill="#7a6f5e" fill-opacity=".5" d="M105 125l15-8 33 35z"/><path fill="#d9d0a4" fill-opacity=".5" d="M100 1h30v4h-30z"/><path fill="#8b745c" fill-opacity=".5" d="M93 31h31v11H93z"/><path fill="#ccc0ac" fill-opacity=".5" d="M189.4 202.5L171.7 191l5-7.6 17.6 11.4z"/><path fill="#7b7f7a" fill-opacity=".5" d="M47 140l-60-5 13 27z"/><path fill="#352d2e" fill-opacity=".5" d="M144.3 181.3l.7.7-25.3 22.7-.7-.7z"/><circle r="1" fill="#c9bca1" fill-opacity=".5" transform="matrix(-1.64313 -1.22476 23.95732 -32.1412 190.8 210.9)"/><path fill="#c2bba7" fill-opacity=".5" d="M219 152l-1-21-44-1z"/><path fill="#b1ae9b" fill-opacity=".5" d="M95.3 162.3L73.4 194l79.8-61.8-75.7 53.4z"/><path fill="#423d3b" fill-opacity=".5" d="M116.2 209l.6.7-23 19.3-.6-.7z"/><path fill="#a8b1ad" fill-opacity=".5" d="M20 233h63v7H20z"/><path fill="#bec8be" fill-opacity=".5" d="M82.8 87.7l-8.2 123.8L92.7 77.8 29.1 64.7z"/><path fill="#393435" fill-opacity=".5" d="M208 227l-.6.8L194 219l.6-.9z"/><path fill="#ded3be" fill-opacity=".5" d="M193.6 170.3l4.4-16.5 14.4 4-4.4 16.4z"/><path fill="#575252" fill-opacity=".5" d="M203 188.5l-23.2 27.6-.8-.6 23.2-27.6z"/><path fill="#e6d8b5" fill-opacity=".5" d="M179.2 299.4l-9.8-6.9 57.4-81.9 9.8 6.9z"/><circle r="1" fill="#cad0cc" fill-opacity=".5" transform="matrix(-2.28295 -21.36208 4.9238 -.5262 88.6 9.6)"/><path fill="none" stroke="#52483f" stroke-opacity=".5" stroke-width=".5" d="M147.7 235.7q-32.4-25.2-49-42.2"/><path fill="#281e1e" fill-opacity=".5" d="M91.1 242.4l.8-.7 25 25.9-.8.7z"/><circle r="1" fill="#6b6b67" fill-opacity=".5" transform="matrix(.05206 -9.94171 15.52407 .08128 12.5 206.2)"/><path fill="#a29986" fill-opacity=".5" d="M187 78l-11-19h-49z"/><ellipse cx="91" cy="166" fill="#d7e1de" fill-opacity=".5" rx="1" ry="37"/><path fill="#8d8d87" fill-opacity=".5" d="M32.9 100.6l1.1-6 45.1 8.8-1.1 6z"/><path fill="#c6c1ae" fill-opacity=".5" d="M193.4 105.7l25.6 34.4v1l-35.4-35.7z"/><path fill="#95957d" fill-opacity=".5" d="M199.8 7.1l-9-10.7-15 7L165.6 2z"/><path fill="#cec5ac" fill-opacity=".5" d="M190.6 144.5l-23.5 17.9-33.3 31.8 32.6-26.3z"/><path fill="#b69f7f" fill-opacity=".5" d="M117.2 251.4L134 229l20.8 15.6L138 267z"/><path fill="#868a84" fill-opacity=".5" d="M5 245l63-4 3 30z"/><path fill="#cbc5bf" fill-opacity=".5" d="M48.5 38.5L63.8 9.3l-19 4-20.5 34.8z"/><ellipse cx="174" cy="25" fill="#c0b59a" fill-opacity=".5" rx="101" ry="3"/><path fill="#c2b69a" fill-opacity=".5" d="M181 210l-26 1 2 31z"/><path fill="#d9d5c2" fill-opacity=".5" d="M-7.8 84.2L48 11.4l-4.3 9.7-25 37.1z"/><path fill="#bfae90" fill-opacity=".5" d="M109.3 192.6l10.8-13.4-2.6 26.5 22.4-21.1z"/><path fill="#9e8a6f" fill-opacity=".5" d="M95 6h38v15H95z"/><path fill="none" stroke="#6e675f" stroke-opacity=".5" stroke-width=".5" d="M124.8 200.7q15-14 46.3-44.5"/></g></g></svg>