<svg xmlns="http://www.w3.org/2000/svg" viewBox="0 0 1120 1400"><defs/><filter id="a"><feGaussianBlur stdDeviation="12"/></filter><rect width="100%" height="100%" fill="#4a342a"/><g filter="url(#a)"><g fill-opacity=".5" transform="translate(2.7 2.7) scale(5.46875)"><circle cx="105" cy="255" r="108" fill="#e2e3ca"/><circle cx="183" cy="85" r="126" fill="#86806e"/><path d="M57 142.4l1 66-65 1.2-1-66zm77.5-47.2l-5.3 111.6 22.3.7 38-21.2z"/><path fill="#e7ffff" d="M128 195.5H68v-49h60z"/><ellipse cx="20" cy="131" rx="39" ry="79"/><circle r="1" fill="#e5cca5" transform="matrix(-137.55126 25.74202 -3.9981 -21.3636 55.5 240.5)"/><circle r="1" fill="#ffeab3" transform="matrix(-.6276 -7.8487 45.29558 -3.6219 182.9 48)"/><path fill="#ffca8b" d="M59 87h72v19H59z"/><circle r="1" fill="#965a26" transform="matrix(54.95063 4.51776 -1.62458 19.7601 172.8 243.7)"/><circle r="1" transform="matrix(61.85891 -.1606 .01212 4.6678 96.8 59)"/><path fill="#aa985d" d="M39 53L50 1l35 51z"/><ellipse cx="97" cy="132" fill="#020f14" rx="22" ry="14"/><path fill="#000007" d="M134 111h17v89h-17z"/><path fill="#e2ffff" d="M198.5 221.5h-49v-13h49z"/><path fill="#b7b7b7" d="M59 69h10v92H59z"/><ellipse cx="115" cy="15" fill="#e7bc7e" rx="10" ry="21"/><circle r="1" fill="#634b3d" transform="matrix(-19.37406 8.77543 -18.84739 -41.61051 177.7 167.3)"/><path fill="#b9eaff" d="M80 147h48v38H80z"/><path fill="#c8b696" d="M0 209h124v47H0z"/><path fill="#251d0f" d="M60 30l65 18L93 5z"/><path fill="#8a522b" d="M89 190h41v15H89z"/><path d="M134 68h8v51h-8z"/><path fill="#c5c1af" d="M111.8 167.4l23.3-97.8-23 37.5 17.6 42z"/><path fill="#140c0a" d="M0 55h58v145H0z"/><circle r="1" fill="#3a302a" transform="rotate(-144.6 77.7 -7.2) scale(23.87632 15.51791)"/><path d="M128 86h2v87h-2z"/><ellipse cx="50" cy="93" fill="#5e6769" rx="2" ry="107"/><path fill="#9a8e5d" d="M53 53L-8 33l-8 18z"/><path fill="#a17256" d="M143 81h60v29h-60z"/><path fill="#30312b" d="M194 163h10v72h-10z"/><path fill="#bedddc" d="M121.5 66.8l-.1 3-49-2.6.2-3z"/><path fill="#f2d6a2" d="M168 40h36v16h-36z"/><path fill="#2f0e02" d="M180 111h8v66h-8z"/><path fill="#7b7268" d="M152 179h42v29h-42z"/><path fill="#a97f4d" d="M78 84h41v38H78z"/><path fill="#ffe084" d="M52 2l11 30-12-12z"/><path fill="#a9d1e6" d="M76 167h57v20H76z"/><path fill="#d1e3d4" d="M133 209h71v14h-71z"/><path fill="#fda884" d="M219 60l-20-31 5-41z"/><path fill="#2c2012" d="M70 74h54v9H70z"/><ellipse cx="66" cy="129" fill="#030000" rx="1" ry="44"/><path fill="#27323c" d="M86.2 112.9l.6-11 23 1.2-.6 11z"/><path fill="#170904" d="M0 80h49v128H0z"/><path fill="#baa067" d="M86.7 53.7l15.8-14.8-40.4 4.5 69 12.5z"/><path fill="#dbbe8a" d="M122 48h20v7h-20z"/><path fill="#291f22" d="M51 33h8v149h-8z"/><ellipse cx="84" cy="4" fill="#555040" rx="34" ry="8"/><path d="M133 128h8v79h-8z"/><path fill="#997965" d="M188 114h16v47h-16z"/><path fill="#bda690" d="M133 106l-27 2 28-38z"/><circle r="1" fill="#ba9d73" transform="matrix(4.02788 4.66634 -21.03011 18.1527 120.7 10.7)"/><ellipse cx="80" cy="60" fill="#000509" rx="53" ry="4"/><path fill="#c8b19b" d="M60.7 64.9l-2.2 46.7 26.2-5.1-11.1-11.8z"/><path fill="#342d27" d="M69.8 86.7l7.5-25.2 1.5 37.6-10.1-11.9z"/><path fill="#081217" d="M128 62h26v7h-26z"/><path fill="#f1ac55" d="M117 85l-11 17-27-16z"/><path fill="#403730" d="M124 89l-10 9V74z"/><path fill="#243945" d="M142 104h10v60h-10z"/><path fill="#85664e" d="M164.8 163.7l3.5 1.6-15.9-61.9-.3 55.5z"/><path fill="#9e754f" d="M110 226l31-8 60 53z"/><path fill="#9a7659" d="M183.8-5.8L149.2 23l-29-33.5-18.4 13.4z"/><path fill="#a9b0a3" d="M117 125l11 28-4-37z"/><path fill="#7d6146" d="M34.4 11.8l-25.5-.7L24.3-5.7l28.9 19.5z"/><path fill="#a9a095" d="M72.7 192.3l44.4-3.4-48.7 20.3-11.6-71.3z"/><circle r="1" fill="#b2a28e" transform="matrix(-9.27372 -1.39146 .6824 -4.54801 121.5 69)"/><path fill="#0c1b24" d="M77 140h40v6H77z"/><circle r="1" fill="#493d2b" transform="matrix(-26.13996 -.5932 .50003 -22.0343 25 28.9)"/><path fill="#180a07" d="M127 111h14v35h-14z"/><path fill="#b7ac96" d="M157 180h23v5h-23z"/><path fill="#2a1d13" d="M96 43h32v7H96z"/><path fill="#b9a16d" d="M22 38.3L18 57l-6-1.2L16 37z"/><path fill="#a48f60" d="M58 35h30v19H58z"/><ellipse cx="73" cy="119" fill="#f1bc80" rx="3" ry="7"/><path fill="#1d2224" d="M106-8l-7 43-13-51z"/><path fill="#27261f" d="M66 33l49-3-57-15z"/><path fill="#cee1d9" d="M117 177h16v13h-16z"/><circle r="1" fill="#2b1b13" transform="matrix(22.74661 -5.46554 9.66073 40.20623 6.1 170.1)"/><ellipse cx="50" cy="90" fill="#82807e" rx="2" ry="20"/><path fill="#233037" d="M132 205h40v3h-40z"/><path fill="#a8927e" d="M141.3 73.8l-.1 23.7 35.4 2.4-15.4 1.4z"/><path fill="#3c3638" d="M65 105h7v40h-7z"/><path fill="#d2cab4" d="M-12.3 250.9l55.7-16.5 12.3 11.8-2.2 9.3z"/><path fill="#d8b178" d="M118 7h6v35h-6z"/><circle cx="93" cy="252" r="35" fill="#c4a57d"/><path fill="#cdcbb9" d="M92 208h59v12H92z"/><circle r="1" fill="#7b7965" transform="rotate(85.7 -13.3 214.6) scale(11.1317 7.10865)"/><path fill="#6d746f" d="M162 65h42v16h-42z"/><path fill="#26312e" d="M126 5l-1 24 21 7z"/><path fill="#b3d0cf" d="M94 65h35v2H94z"/><path fill="#0a0000" d="M134 65h6v34h-6z"/><path fill="#274461" d="M48 204l20 4-3-6z"/><circle r="1" fill="#a29c89" transform="matrix(27.43805 -6.5873 3.18623 13.2716 9.2 223)"/><path fill="#481d08" d="M201 143l-6-12 1 17z"/><path fill="#172028" d="M39 177h20v23H39z"/><path fill="#372315" d="M151 186h53v4h-53z"/><path fill="#e5c3a6" d="M59 73h10v19H59z"/><circle r="1" fill="#a27850" transform="rotate(165.1 64 136) scale(43.55528 26.17217)"/><path fill="#824436" d="M36 43l-13-7 2-40z"/><path fill="#643a23" d="M187 100l3-15h-24z"/></g></g></svg>