<svg xmlns="http://www.w3.org/2000/svg" viewBox="0 0 1120 1400"><defs/><filter id="a"><feGaussianBlur stdDeviation="12"/></filter><rect width="100%" height="100%" fill="#705749"/><g filter="url(#a)"><g fill-opacity=".5" transform="translate(2.7 2.7) scale(5.46875)"><circle cx="70" cy="217" r="107" fill="#fffadb"/><circle r="1" fill="#2f0500" transform="matrix(.61158 70.08012 -196.94681 1.71873 94 45.7)"/><circle r="1" fill="#e18443" transform="rotate(-124.8 125 34.6) scale(49.39217 38.47383)"/><circle r="1" fill="#ecaf72" transform="matrix(.91303 31.65332 -18.08095 .52154 51.4 46.3)"/><circle r="1" fill="#ffba65" transform="rotate(-100.5 94.7 -38.5) scale(29.56079 15.68043)"/><path fill="#f2ece9" d="M72 236.4L35.8 217 94 107.6l36.2 19.3z"/><ellipse cx="140" cy="93" fill="#0b0000" rx="203" ry="19"/><path fill="#bb6f36" d="M108 103l111 108-33 57z"/><ellipse cx="62" cy="4" fill="#060000" rx="135" ry="11"/><circle r="1" fill="#c27e4c" transform="matrix(16.87459 12.40315 -46.1301 62.76038 7.3 226.8)"/><path fill="#f1b75c" d="M189 12h7v48h-7z"/><ellipse cx="29" cy="144" fill="#e4b28d" rx="43" ry="28"/><circle r="1" fill="#e6dcd5" transform="matrix(29.34714 24.24324 -14.57179 17.63957 104.5 157.6)"/><ellipse cx="100" cy="19" fill="#2a0900" rx="27" ry="54"/><path d="M-12.6 109.2L33 102l1.7 10.8L-11 120zM194 46h10v72h-10z"/><path fill="#d29160" d="M156 151l60-17-127-31z"/><path fill="#b6794b" d="M219 241l-87-120 45 150z"/><path fill="#f3c387" d="M58.5 41l-23.4.7L51 15.1 70.1 44z"/><circle r="1" fill="#945825" transform="matrix(-44.91267 -6.9987 2.69017 -17.26363 152 55.8)"/><circle r="1" fill="#c7c4be" transform="rotate(120.4 -32.5 129.4) scale(65.43632 22.63461)"/><path fill="#7f694b" d="M18.6 87.2l-.3 2.4L-16 65.8l27.4-52.3z"/><path fill="#c69661" d="M151.9 8.8L127 34.6l33.2 33.1 4.9-.4z"/><path fill="#180000" d="M17.4 56.8l.3 47.7L31.9-6.2 7.5-1.1z"/><path fill="#804d2c" d="M47.3 43.1l61.9 1.5L49 79.4l-13.5 29.8z"/><ellipse cx="126" cy="254" fill="#9a8e8b" rx="52" ry="29"/><path fill="#af6a28" d="M31 12h34v10H31z"/><circle r="1" fill="#1f0000" transform="matrix(3.85419 -11.85233 100.4592 32.66772 190.7 103)"/><path fill="#270800" d="M57.7 36.1L78.3-16 219-9.3 178.9 7.5z"/><path fill="#a5a5a4" d="M95 87h11v6H95z"/><ellipse cx="66" cy="116" fill="#a48d78" rx="52" ry="5"/><circle cx="115" cy="197" r="34" fill="#baa79d"/><path fill="#ba4e2b" d="M94 26h13v14H94z"/><path fill="#1b0000" d="M183 46l5-62-32 5z"/><circle r="1" fill="#d29d73" transform="rotate(-111.2 69.2 83.3) scale(21.23125 48.91659)"/><path fill="#d7ac7e" d="M143 14l-10 27 32-5z"/><path fill="#a78f62" d="M181.5 30.5l11.3 3.9 8.6-25.5-1.4-.1z"/><path fill="#e5e1ce" d="M43.8 243.3l-20.9 10.6 30.3-64.8 38.1-84.2z"/><circle r="1" fill="#ccbdae" transform="rotate(66.2 -99.2 77.6) scale(13.95713 33.47246)"/><path fill="#a98042" d="M126 71h45v5h-45z"/><path fill="#9c5e36" d="M116 111h73v14h-73z"/><path fill="#b38462" d="M54 114l10 41 22-40z"/><path fill="#643519" d="M131.4 83.8l14.7-44.7 42.7.4-78 19.6z"/><path fill="#9d775a" d="M16.4 271l19.8-48.1-15.1 14.4L-16 245z"/><ellipse cx="147" cy="133" fill="#e4a26c" rx="26" ry="8"/><path fill="#180000" d="M-16 128l36-18-36-74z"/><path fill="#dfddd5" d="M141 179l-54-65 25-3z"/><path fill="#857757" d="M26 71h46v6H26z"/><path fill="#b07243" d="M187.6 265.3l-46.3-90.8 23.1-11.8 46.3 90.8z"/><path fill="#0d0c02" d="M88 50h25v37H88z"/><path fill="#512208" d="M15 81h65v22H15z"/><path fill="#210300" d="M112 76h92v35h-92z"/><path fill="#2a1000" d="M32.8 18l8.7 14.6L19.2 46l-8.7-14.6z"/><path fill="#3f1c04" d="M140.9 25.3l-19.6 25.2L99.9 30l37.4-23.3z"/><ellipse cx="102" cy="108" fill="#714928" rx="15" ry="5"/><path fill="#cb8539" d="M190 66l9-38-12 15z"/><path fill="#626b6c" d="M8.6 36.2L5.9 67.9 4 88.5l11.3-14z"/><path fill="#aa5c19" d="M133 15h42v5h-42z"/><path fill="#af5e2e" d="M203 118l-24-1 27 33z"/><path fill="#d4a67d" d="M42.3 65.4l4.4-47.3-9.9 46.1-6.1 6.6z"/><path fill="#020300" d="M81 68l4 41 14-15z"/><path fill="#94653b" d="M95 71.3l-2.5 4.4-29.5-17 2.5-4.4z"/><path fill="#c26c27" d="M82 45h25v4H82z"/><circle r="1" fill="#b07e5a" transform="matrix(-12.49128 14.83387 -21.62541 -18.21029 161 167.7)"/><circle r="1" fill="#ac9787" transform="matrix(11.9486 -11.35809 30.98073 32.59143 146.3 232.6)"/><path fill="#6e5230" d="M44.1 43.3L23.9 67l-6-9.3 6.2-14.2z"/><circle cx="134" cy="37" r="3" fill="#fff3c3"/><path fill="#160500" d="M201.1 1.9L219 47.6l-24.3-20.4L219-14.2z"/><ellipse cx="203" cy="74" fill="#160000" rx="11" ry="30"/><path fill="#9e5c2c" d="M16 99h29v3H16z"/><circle cx="105" cy="88" r="3" fill="#cbb0a9"/><path fill="#100000" d="M16.3 83.1l6.2 31.3-38.5 2.3 52.2-23.4z"/><path fill="#863b09" d="M22.2 118.4l-1.1-5.9-31.4 9.3 11.2-.3z"/><path fill="#905622" d="M23 12h39L33 27z"/><path fill="#2e1102" d="M193.9 123l-5.7-75.9-7.4 17.3-2.3 35.5z"/><path fill="#1f0200" d="M1.7-16l80 17.1-71.4 19.4-7.8-9.2z"/><path fill="#77572e" d="M201 12l-5-21-11 32z"/><path fill="#090003" d="M146 54.4l-1-.2 3-12.6 1 .2z"/><path fill="#311300" d="M158.8 47.7L187.1-16l-2.6 56.9-17-.7z"/><path fill="#8d8685" d="M38 252h127v4H38z"/><path fill="#e1d2c1" d="M111 117.4l2.9 70.4 30-6.9-15.4-30.1z"/><path fill="#90562c" d="M158 207l29 16-19 5z"/><path fill="#9d4a10" d="M12 82h28v3H12z"/><path fill="#fffac2" d="M161 32h4v3h-4z"/><circle r="1" fill="#976744" transform="matrix(-3.0387 33.16901 -18.18635 -1.6661 195.5 179.5)"/><path fill="#1a0700" d="M124 12L82-16l45 66z"/><path fill="#4f1e08" d="M121.6 73.8l32.5 12.3-29.3 7.1-6.4.2z"/><path fill="#dca450" d="M151 42l-5 19 17-10z"/><path fill="#f4d09e" d="M54 25l13 14-6 5z"/><path fill="#bfac84" d="M201 13l-4-4-5 18z"/><path fill="#47260b" d="M116 75l40-10-34-1z"/><path fill="#1a0200" d="M49 95h22v17H49z"/><path fill="#b4a89d" d="M87.8 180.5l32.6 4.6-8.2 58.4-32.6-4.6z"/><path fill="#060600" d="M129.8 107.3l-10.9-2-.8-28.1-5.1 37.7z"/><circle r="1" fill="#cab290" transform="rotate(65.8 -94 234.1) scale(74.60643 4.80758)"/><path fill="#e6e7e1" d="M90 113l-2 49-26 2z"/><circle r="1" fill="#9a9a98" transform="matrix(17.11303 1.8893 -.5557 5.0334 99.4 117)"/><ellipse cx="78" cy="79" fill="#5d6055" rx="2" ry="16"/><path fill="#191b11" d="M17.4 77.4L22.1 61l12.5 3.6L29.9 81z"/><path fill="#352f2a" d="M7.3 111.8L4.2 85.3l8.3 2.6-5.3-47.7z"/></g></g></svg>