<svg xmlns="http://www.w3.org/2000/svg" viewBox="0 0 1120 1400"><defs/><filter id="a"><feGaussianBlur stdDeviation="12"/></filter><rect width="100%" height="100%" fill="#4a342a"/><g filter="url(#a)"><g fill-opacity=".5" transform="translate(2.7 2.7) scale(5.46875)"><path fill="#fffedf" d="M219 254l-235 2L98 133z"/><ellipse cx="198" cy="103" fill="#948b75" rx="141" ry="168"/><path d="M0 57h60v154H0z"/><circle r="1" fill="#ceffff" transform="matrix(.4419 21.76167 -37.27663 .75694 95.6 166.8)"/><ellipse cx="140" cy="157" rx="13" ry="51"/><ellipse cx="37" cy="237" fill="#dfc9a3" rx="87" ry="30"/><ellipse cx="172" cy="212" fill="#fcfffc" rx="83" ry="7"/><path fill="#ffe2ad" d="M217.1 63.8l1.9-7.6-115.2-.3 96.5-18.5z"/><path fill="#00050f" d="M75 122h43v25H75z"/><path fill="#f2c18a" d="M60 108l-1-33 76 26z"/><ellipse cx="165" cy="240" fill="#a16028" rx="45" ry="21"/><ellipse cx="88" cy="61" rx="77" ry="5"/><path fill="#a4925b" d="M61.5 35.3L53.1-16 36.7 60.5l69.4-14z"/><circle r="1" fill="#2f2421" transform="matrix(-15.81022 -13.30251 26.2366 -31.18257 159.3 172.4)"/><path fill="#c3dff2" d="M69 146h64v38H69z"/><path d="M140 71.8l-.1 158.9L131 60.1l11.7 7.4z"/><path fill="#211a0f" d="M66.2 32.5l53.5 19.3L91.1 1l11.4-17z"/><path fill="#d8af78" d="M104 0h18v37h-18z"/><path fill="#ceac80" d="M133 80l-13 47-25-42z"/><path fill="#110907" d="M0 106h60v101H0z"/><path fill="#3c2c1f" d="M72.2 70.2l64.1 10.5-53.5 6.6-17.5 7.4z"/><circle r="1" fill="#3f352e" transform="matrix(20.93624 10.20035 -7.8236 16.05797 143.7 33.4)"/><path fill="#727a87" d="M60 109h9v104h-9z"/><path fill="#0b070b" d="M193 162h11v37h-11z"/><circle r="1" fill="#ffc5ab" transform="matrix(6.84232 -22.05216 4.09472 1.2705 203 11.8)"/><path fill="#0c121b" d="M128 110h23v64h-23z"/><path fill="#9b8f5e" d="M52 55l-68-21v20z"/><path fill="#c0e2e5" d="M76 66h50v3H76z"/><path fill="#ddcbc3" d="M59 71h10v32H59z"/><path fill="#3d4148" d="M49 35h7v151h-7z"/><ellipse cx="11" cy="220" fill="#b5a488" rx="137" ry="12"/><path fill="#dffff1" d="M156 206h38v14h-38z"/><path fill="#b8d2d9" d="M120.2 111.9l-4.3 43.8-56.6 35.5 75.5-3.2z"/><path fill="#7e5338" d="M123.6 187.6l-50.3 18.8 57.9-3.3 1.3-13z"/><path fill="#a89e8d" d="M148.6 178.4l30.5-2.9-1.5 7.4-16.3 1.1z"/><path fill="#f5dca6" d="M166 38l53 8-57 8z"/><ellipse cx="143" cy="188" fill="#00040e" rx="11" ry="16"/><path fill="#ffdb85" d="M50.2 21.5l.1-15.8 4.4 6.2 5.4 21.2z"/><path fill="#0a0000" d="M-18 79h66v58h-66z"/><ellipse cx="79" cy="60" fill="#01080a" rx="53" ry="5"/><path fill="#361004" d="M179 110h7v54h-7z"/><circle r="1" fill="#544f42" transform="matrix(1.0615 -16.85396 31.0947 1.95842 85.4 0)"/><path fill="#9a6b52" d="M144 80h60v29h-60z"/><path fill="#140908" d="M127 89h2v79h-2z"/><path fill="#211f1d" d="M125 76l-8-1-4 25z"/><path fill="#2f3333" d="M66 126h42v21H66z"/><circle cx="97" cy="239" r="33" fill="#c7a881"/><path fill="#3e352b" d="M68.2 68.7L24.7-16l53.2 117.4 1.6-30.1z"/><ellipse cx="74" cy="137" fill="#d5b592" rx="2" ry="49"/><path fill="#c8b8a5" d="M129 68l5 38-17-2z"/><path fill="#727c79" d="M218.3 251.2L199.5 194l-52.7 7.9 48.7 6.4z"/><path fill="#48423b" d="M84 102h28v12H84z"/><path fill="#3c2619" d="M111 50H97V30h14z"/><path fill="#908f89" d="M49 70h3v37h-3z"/><path fill="#e7993f" d="M80 88h35v13H80z"/><path fill="#909698" d="M60 95h6v98h-6z"/><path fill="#755543" d="M151 119h29v42h-29z"/><ellipse cx="136" cy="127" fill="#020000" rx="3" ry="72"/><path fill="#b7986f" d="M103.7 12.6l92.8-21.3L140-16 97.4 39z"/><path fill="#825c43" d="M15.4 7.2L48.5-16 12.8 60.2 26 15.3z"/><path fill="#000708" d="M39 97h11v111H39z"/><path fill="#d7ebe4" d="M103 146h25v22h-25z"/><path fill="#c1e0e2" d="M84 69h43v1H84z"/><path fill="#2b2315" d="M208.9 214.7l10.1 15.2v20.2l-27.2-27.5z"/><path fill="#3d3a38" d="M102 54l49 21 23-17z"/><path fill="#506776" d="M52 201h17v7H52z"/><path fill="#8a7e74" d="M143.6 102.8l23.5-3.1-27.5-18.2 5 63.8z"/><path fill="#312e26" d="M98.4 60.2l4.5-76.2-27.8 58.9 26.8-5z"/><path fill="#a59061" d="M57 37h33v18H57z"/><ellipse cx="183" cy="171" fill="#1a0800" rx="4" ry="11"/><path fill="#a0d7ff" d="M193 155h11v3h-11z"/><path fill="#29353c" d="M133 202h36v4h-36z"/><path fill="#937460" d="M186 95l20-3-19 67z"/><path fill="#d7e8d4" d="M137 206h56v11h-56z"/><path fill="#e3be88" d="M121.9 26.6l-9.8 1.8 9.5-44.4-.9 23.4z"/><path fill="#c9bfa9" d="M0 231h58v25H0z"/><path fill="#422f2a" d="M67.4 159.9l-.3-31.8 2.1 32.6-2.9 17.2z"/><path fill="#bcaa96" d="M60.8 129.4L58.1 101l30.5 11.1-29.2-34.4z"/><path fill="#a8d8f0" d="M130.9 184.7l-6.3 2.4-46.4-5.2L96.4 147z"/><path fill="#a38b5e" d="M148 50.2l-60.3 6.4L110.6 31 75.7 53.2z"/><path fill="#343023" d="M25.9 16.5l-7.5 40.3 30.9-10L-16 32.5z"/><path fill="#162e31" d="M140 36l-16-3 7-26z"/><path fill="#a47951" d="M126.1 216.6l12.4 2 80.5 40.8-94.8 2.8z"/><path fill="#b98956" d="M115.5 119.7l-33 .6v-6l33-.6z"/><path fill="#291f18" d="M95 44h29v7H95z"/><path fill="#362e28" d="M0 201h34v8H0z"/><circle r="1" fill="#aaa38f" transform="matrix(3.50492 9.6553 -50.64234 18.38342 15 227.5)"/><ellipse cx="105" cy="213" fill="#c4b9a0" rx="44" ry="7"/><path fill="#d8c1a6" d="M84 151l-13 46-2-51z"/><path fill="#a07d5f" d="M172.3-16l-4 25.3L122.9-16l16.6 37.1z"/><ellipse cx="171" cy="199" fill="#9fa2a8" rx="21" ry="2"/><path fill="#858a89" d="M129 152h4v24h-4z"/><ellipse cx="176" cy="62" fill="#4c4744" rx="49" ry="4"/><path fill="#f4dad4" d="M201.3 26.5l-1-9.3L219-16v39.2z"/><circle r="1" fill="#363825" transform="matrix(-6.7641 -27.8498 10.47984 -2.54532 4.6 22.2)"/><path fill="#433942" d="M66 89h2v43h-2z"/><ellipse cx="180" cy="37" fill="#5d4e45" rx="31" ry="3"/><path fill="#2e3e44" d="M142 99h8v30h-8z"/><path fill="#223034" d="M124.1 146.4l-60-.1 24.9-5.4.7-11.2z"/><path fill="#2a211e" d="M-12.7 179.5L59.5 201l5.9-7.2-7.7-9.4z"/></g></g></svg>