<svg xmlns="http://www.w3.org/2000/svg" viewBox="0 0 1120 1400"><defs/><filter id="a"><feGaussianBlur stdDeviation="12"/></filter><rect width="100%" height="100%" fill="#473d35"/><g filter="url(#a)"><g fill-opacity=".5" transform="translate(2.7 2.7) scale(5.46875)"><circle r="1" fill="#fffff8" transform="matrix(-202.8047 -8.90266 4.2134 -95.98206 91.5 171.4)"/><circle cx="55" cy="168" r="92" fill="#ddcebc"/><ellipse cx="102" cy="54" fill="#030000" rx="203" ry="21"/><circle r="1" fill="#c57434" transform="matrix(42.94861 -14.92771 28.66124 82.46143 189.6 156.9)"/><path fill="#f8b562" d="M174.1 30.2l1.8-46.2L142.7.9l6.7 36.5z"/><circle r="1" fill="#c4855c" transform="rotate(-163 26 -2.3) scale(25.30285 33.1897)"/><circle r="1" fill="#e0dfd9" transform="rotate(136.5 19.9 79) scale(41.13276 27.22896)"/><path fill="#d7d5c6" d="M141.1 222.5l3.4-72 41.2 104.6-8.2 2.7z"/><circle r="1" fill="#c49164" transform="matrix(19.09492 18.229 -44.80402 46.93235 0 183.3)"/><path fill="#a3724b" d="M179 81h25v175h-25z"/><ellipse cx="143" cy="56" fill="#250000" rx="164" ry="22"/><circle r="1" fill="#e6ece5" transform="matrix(5.77933 2.53695 -48.45829 110.39106 38.2 192.4)"/><circle r="1" fill="#cd9568" transform="matrix(-3.83124 19.49177 -40.21973 -7.90545 157.5 95.3)"/><circle cx="103" cy="229" r="55" fill="#a6a6a2"/><path fill="#572507" d="M154.9 23.9l-30.7 32.9-65-60.7 30.6-32.9z"/><ellipse cx="168" cy="8" fill="#9d6837" rx="45" ry="26"/><path fill="#e1d8cc" d="M39.1 84l.8 43-51 1-.8-43z"/><path fill="#938b80" d="M98.8 88.4l-80-2.8.4-12 80 2.8z"/><path fill="#8d603e" d="M128 93l-24-19 85 1z"/><path d="M86 5l7 59 13-64z"/><path fill="#ebc19b" d="M32.4 24.7l-1.5-4.1L26-16h21.8z"/><path fill="#dcbf82" d="M170.1-15.1l.7 41.3-25-19.6 11.3-.4z"/><path fill="#cfa077" d="M137.4 141.9l-18-46.7 39.2-15 18 46.6z"/><ellipse cx="8" cy="71" rx="27" ry="6"/><path fill="#3a1c00" d="M45 67l-30-7L1-16z"/><path fill="#190100" d="M218 88L197 8l-29 59z"/><path fill="#dae1df" d="M26 198h48v15H26z"/><path fill="#957352" d="M9 55L5 10l-21-23z"/><circle r="1" fill="#a06b3d" transform="rotate(-120.1 165 66) scale(38.76229 8.14123)"/><ellipse cx="21" cy="99" fill="#ba9d89" rx="52" ry="6"/><path fill="#aea79c" d="M81 131h37v116H81z"/><circle r="1" fill="#d3d2c1" transform="matrix(4.5507 -1.7651 22.63514 58.35687 156.3 196.1)"/><path fill="#a46b37" d="M7 60h30v4H7z"/><path fill="#48220c" d="M5 38h76v17H5z"/><path fill="#7a5d38" d="M85 69l17 8-2-17z"/><path fill="#d3b192" d="M30.5 138.9l19.8-49.2 23.2 9.4-19.8 49.2z"/><path fill="#abb3b6" d="M-4 271l6.8-26.5L71 208.8 91 247z"/><path fill="#640c00" d="M183.4-10.4L169 32.4 198-16l-26.1 31.1z"/><path fill="#160200" d="M101 35h103v39H101z"/><path fill="#aba79f" d="M27 242l163 14-60-60z"/><path fill="#a69464" d="M131.7 34.9l8.4-5 45.1 3.8-24 .3z"/><ellipse cy="81" fill="#873301" rx="16" ry="3"/><path fill="#e9f1f6" d="M93.8 90.8l-8.2 28.8-15.4-4.4 8.2-28.8z"/><path fill="#8a5846" d="M107 12h19v14h-19z"/><path fill="#dbb18a" d="M130.7 92.6l55.8 4.9-1.2 14-55.8-5z"/><path fill="#b99b7b" d="M-2.2 258.2l-13.5-6.5 43.9-90 13.5 6.6z"/><path fill="#050904" d="M79.3 65.7l.6-36.4 45.4 25.9-51 18.6z"/><path fill="#090000" d="M19.3 37.4L3.5-4l5.2 40.2 1.6 4.8z"/><path fill="#876544" d="M127.5 55.2l22.3 71.4-26.7-86.1-2 15.8z"/><path fill="#8e674e" d="M191 120h13v68h-13z"/><path fill="#b98339" d="M217.6 37.3L205.7-16l-7.2 48 17.8-.2z"/><path fill="#e9e7d5" d="M129.3 135.6l6.4 4-25-63.4 11.6 45z"/><path fill="#ae8360" d="M217 125l-60 54-29-63z"/><path fill="#c8803f" d="M79.5-1.8l29 .6v3l-29-.6z"/><path fill="#040000" d="M33.2 44.1l-21.4 1.8-1.6 32-26.2 4.6z"/><path fill="#e3e6e1" d="M22.4 250.9l-13.9 17-10.9-8.8 13.9-17z"/><path fill="#7b6646" d="M21 28h53v7H21z"/><ellipse cx="156" rx="2" ry="8"/><ellipse cx="125" cy="179" fill="#938980" rx="22" ry="4"/><ellipse cx="25" cy="89" fill="#d0dbdb" rx="25" ry="6"/><circle r="1" fill="#e9e2d3" transform="matrix(.41318 -3.90785 53.61021 5.66829 8 110.8)"/><path fill="#e5e3d6" d="M115 156h30v9h-30z"/><circle r="1" fill="#c6a071" transform="matrix(4.08525 10.90066 -8.46945 3.1741 188.6 211.3)"/><ellipse cx="76" cy="2" fill="#6c624f" rx="2" ry="61"/><path fill="#976c4f" d="M116 77h78v14h-78z"/><path fill="#8d7a66" d="M59 75h20v13H59z"/><circle r="1" transform="rotate(-98.8 22.2 -18) scale(7.50241 1.76058)"/><path fill="#9a551b" d="M8 40h30v4H8z"/><ellipse cx="15" fill="#8c6433" rx="4" ry="19"/><path fill="#361d11" d="M86.2 27.4l-2.1 8.7-22.3-5.5 2.1-8.7z"/><path fill="#101413" d="M20.8-6.2l7.2 27-4.8 1.4-7.2-27z"/><path fill="#babaae" d="M193 269l-28-5 3-54z"/><ellipse cx="146" cy="24" fill="#4f3116" rx="21" ry="3"/><circle r="1" fill="#af9a88" transform="rotate(177.9 18.2 40.2) scale(29.22164 4.21474)"/><path fill="#421409" d="M102 25v21l60-1z"/><path fill="#c5bdb0" d="M128.5 253.7l26.5-76.2-82.9 27.1 89.3-.6z"/><path fill="#9d968e" d="M70 220l57 1-2 28z"/><path fill="#9e774d" d="M78.4 2L67.7 19.2 50.4-16 76 28.9z"/><path fill="#c9c6c0" d="M55 155l55-81 12 58z"/><path fill="#898986" d="M104 204h39v6h-39z"/><path fill="#f6d3b8" d="M85 25h3v4h-3z"/><path fill="#946b46" d="M173.6 217.1l4.1 19.9 12.3 12.3 17.9-20.1z"/><path fill="#62481b" d="M183.1 22.8l19.7-3.4 2 11.8-19.6 3.4z"/><path fill="#cdab75" d="M169.5 17.9l-3.5 2.4 19-32.6-28.7 17.5z"/><path fill="#0b0d0a" d="M86.5 62.7l13.2 3.7 3.5 13.7 26.3-15.5z"/><path fill="#986e4b" d="M99 55h2v20h-2z"/><path fill="#c8cbc3" d="M30 216h84v4H30z"/><path fill="#8e9091" d="M32 223h39v5H32z"/><path fill="#b5987e" d="M65 113l15-29-28 17z"/><path fill="#d7a475" d="M150.2 18.8L146.9-2l5-.8L155 18z"/><path fill="#7d93a0" d="M6 40.9L3 26.3v1.1L-16-3.9z"/><path fill="#c59b74" d="M167.6 141.4l-18.2 10.5-25-43.3 18.2-10.5z"/><path fill="#be6a50" d="M103.3 45.4l.4-7 3 .2-.4 7z"/><ellipse cx="130" cy="233" fill="#eae6c2" rx="37" ry="1"/><path fill="#0d0100" d="M105.7 32.7L83.6 19.5l7.1 47L83.9 11z"/><path fill="#3f240e" d="M195-9l-4 33 10-12z"/><path fill="#33291f" d="M64 11l12-27-3 25z"/><path fill="#aea097" d="M117.8 155.3l17.7-3.5-4.3-6.3-76.4.9z"/><path fill="#d5c1ad" d="M-.4 132.3l22.3 8.7 40.4-10.1-3.3-22.7z"/><path fill="#1f0000" d="M24 35h43v5H24z"/></g></g></svg>