<svg xmlns="http://www.w3.org/2000/svg" viewBox="0 0 1400 1121"><defs/><filter id="a"><feGaussianBlur stdDeviation="12"/></filter><rect width="100%" height="100%" fill="#433839"/><g filter="url(#a)"><g fill-opacity=".5" transform="translate(2.7 2.7) scale(5.46875)"><circle cx="171" cy="153" r="243" fill="#fff"/><circle cx="146" cy="11" r="248" fill="#fff"/><path fill="#b19094" d="M48 62h178v80H48z"/><ellipse cx="114" cy="21" fill="#ffeef5" rx="250" ry="41"/><ellipse cx="128" cy="179" fill="#ffeef3" rx="255" ry="38"/><ellipse cx="90" cy="85" fill="#fff8fd" rx="255" ry="9"/><path fill="#fff1f7" d="M271 110l-155-1 140 39z"/><path fill="#665859" d="M15 95h110v14H15z"/><ellipse cx="144" cy="133" fill="#736865" rx="69" ry="8"/><path fill="#594849" d="M33 78l-2-24 46 18z"/><path fill="#fffcff" d="M0 109h147v10H0z"/><path fill="#6b5f5f" d="M157 95h87v13h-87z"/><path fill="#6a5e5e" d="M199.8 77.7l-90.6-16.1 117.1 15.5 3-31.6z"/><path fill="#766d6d" d="M43 63h153v13H43z"/><path d="M143 109l8-1-6-26zm-93 13h6v20h-6z"/><circle r="1" fill="#251616" transform="matrix(.2355 -14.99153 3.28097 .05154 18.6 97)"/><path fill="#ffe7ed" d="M-16 106l66 113-1-108z"/><path fill="#ffecef" d="M80 29h10v108H80z"/><path fill="#826d6b" d="M111.3 40.6l13.9-4 20.3 8.1-20.2 6z"/><ellipse cx="92" cy="119" fill="#2a231f" rx="3" ry="34"/><path fill="#ffe8ec" d="M114.3 130.5l38.5-71.7L173.5 219 148.7 81.8z"/><ellipse cx="107" cy="114" fill="#fff" rx="3" ry="34"/><circle r="1" fill="#ffe7ea" transform="matrix(-1.2515 29.83399 -5.60943 -.23531 69.3 97.2)"/><path fill="#fff" d="M116 77h4v65h-4z"/><ellipse cx="33" cy="62" rx="3" ry="10"/><path fill="#fff" d="M37 56h7v28h-7z"/><ellipse cx="24" cy="94" fill="#ffe6eb" rx="4" ry="187"/><path fill="#ffe2e6" d="M48.3-16L239.3.2 63.9 58.1 61 93.3z"/><ellipse cx="246" cy="51" fill="#ffe7ec" rx="20" ry="46"/><path fill="#171513" d="M219 89h4v27h-4z"/><path d="M157.8 107.8l1.4-16 5 .4-1.4 16z"/><path fill="#ffe6e9" d="M131.4 106l10.2-59.9 2.4 60-24.5 57.1z"/><ellipse cx="127" cy="182" fill="#ffdddf" rx="255" ry="41"/><path fill="#ffe8ea" d="M169 62l22 47-11 28z"/><ellipse cx="97" cy="147" fill="#ffe5e3" rx="3" ry="87"/><path fill="#130f0f" d="M120.8 129.6l.6-10.1 2.6-1.6 3.2 30.3z"/><path d="M221.6 53h4l.8 22h-4z"/><ellipse cx="106" cy="113" fill="#ffe3e8" rx="102" ry="5"/><path d="M70 126.4l6.8 9.4 8.5 7-11.6-16.6z"/><ellipse cx="127" cy="157" fill="#c7b09a" rx="56" ry="5"/><path d="M143 61h5v16h-5z"/><path fill="#110908" d="M154 52h4v25h-4z"/><path fill="#fffdff" d="M213.6 105.7l4.8-45.8 4 .4-4.8 45.8z"/><path fill="#2f2928" d="M193 128h14v13h-14z"/><path fill="#fff" d="M202.4 144.5h-5l.2-17h5z"/><path d="M201 108.5v-21h4v21z"/><circle r="1" fill="#fffdff" transform="matrix(1.61017 -.21935 4.84933 35.59707 52.5 84.5)"/><ellipse cx="14" cy="58" fill="#ffe5ea" rx="17" ry="30"/><path fill="#ffe4ea" d="M208 117h48v87h-48z"/><path fill="#302c2c" d="M163 119h6v24h-6z"/><circle r="1" transform="matrix(-.24084 -5.89289 2.46374 -.1007 196.7 71.6)"/><path fill="#fce5e7" d="M173.1 55.5l-17 76.9 5.8 43.7 3.6-65.6z"/><path d="M62 75l5-1V61z"/><circle r="1" fill="#fee8eb" transform="matrix(2.98497 -34.11837 3.43953 .30092 151.3 111.5)"/><path d="M135 130v8l-4-13z"/><path fill="#fff9fd" d="M169 142l-1-34 11 3z"/><ellipse cx="147" cy="97" rx="2" ry="12"/><circle r="1" fill="#ffeef1" transform="matrix(-2.5007 .49956 -6.10944 -30.58254 196.4 98.2)"/><ellipse cx="225" cy="98" fill="#fffdff" rx="3" ry="13"/><path fill="#050000" d="M228 96h6v13h-6z"/><path d="M142 118h4v23h-4zm70-54h4v15h-4z"/><ellipse cx="138" cy="119" fill="#fff8fc" rx="3" ry="29"/><ellipse cx="50" cy="101" rx="2" ry="9"/><path d="M38 97h3v11h-3zm68-36h4v14h-4z"/><path fill="#211516" d="M237 96h6v15h-6z"/><path fill="#fff" d="M233 97h5v21h-5z"/><path fill="#fff8fe" d="M94.6 97.5l3.9-31.8 7 .8-4 31.8z"/><path fill="#ffe4e7" d="M202 122.3l8-59.6-.6 103.2L271 99.8z"/><path fill="#1a1818" d="M112 118h4v22h-4z"/><path d="M91 63h6v14h-6z"/><circle r="1" fill="#0c0204" transform="rotate(83.7 -41.1 67.5) scale(9.32022 2.13536)"/><path fill="#ffe3e7" d="M136 49l99-65-15 78z"/><path d="M189 64v12h-4V64zm-90 64h5v14h-5zm19-87h3v8h-3zm1 56h5v12h-5z"/><path fill="#fff2f5" d="M120 41h5v49h-5z"/><path fill="#ffeaee" d="M94 116l-40.3 22.4 32.2-33.7 30.8 24.6z"/><path d="M114.7 61.6l4-.2.6 17-4 .2zM158 120l-6 21v-12z"/><path fill="#ffe7ec" d="M115 77h5v62h-5z"/><ellipse cx="173" cy="82" fill="#ffe1e6" rx="255" ry="6"/><path d="M195 104l-10-9 1 5z"/><ellipse cx="181" cy="76" fill="#f6dedf" rx="3" ry="85"/><path fill="#fff3f6" d="M126 124h81v3h-81z"/><path fill="#48403f" d="M151.9 89.8h-1.1l6.4-3.2 19.6 25.7z"/><circle r="1" fill="#2b2624" transform="matrix(-2.63386 -.28324 .64818 -6.02746 175.5 132.7)"/><path d="M100 97h4v10h-4zm103 30h4v14h-4zM76 109V96h7z"/><path fill="#ffe4e8" d="M147 18h8v69h-8z"/><path d="M74 65l-1 6 9 9z"/><path fill="#fff" d="M159 59h5v21h-5z"/><path fill="#2f2423" d="M38.8 53.6L28.5 79l7.5-5-7-17.3z"/><path d="M176 97.4l2.5-1.7 3.4 4.9-2.4 1.7z"/><ellipse cx="255" cy="67" fill="#fee1e5" rx="14" ry="109"/><path fill="#ffe5ea" d="M48.2 110.7L27.3-16l21.6 163.5-64.9-1.6z"/></g></g></svg>