<svg xmlns="http://www.w3.org/2000/svg" viewBox="0 0 1400 933"><defs/><filter id="a"><feGaussianBlur stdDeviation="12"/></filter><rect width="100%" height="100%" fill="#6f483f"/><g filter="url(#a)"><g fill-opacity=".5" transform="translate(2.7 2.7) scale(5.46875)"><circle r="1" fill="#ecfffb" transform="rotate(-178.4 64.5 48.8) scale(163.3652 159.93716)"/><circle r="1" fill="#0c0e00" transform="matrix(26.3314 -38.63298 21.96174 14.96865 177.5 37.6)"/><circle r="1" fill="#fff" transform="matrix(107.01276 -172.3068 32.83932 20.39517 255 127.7)"/><circle r="1" fill="#dfe7df" transform="rotate(-35.1 284.6 -85.1) scale(70.93789 60.41096)"/><path fill="#1e0200" d="M232 134.9l-53.7-18.8 2.7-24.6-16.5 47.1z"/><ellipse cx="72" cy="20" fill="#7b7052" rx="38" ry="73"/><ellipse cx="128" cy="50" fill="#c6deec" rx="18" ry="69"/><path fill="#5d5437" d="M145 0h66v77h-66z"/><path fill="#fff" d="M183 102h27v18h-27z"/><circle r="1" fill="#fff" transform="matrix(-13.47812 9.90066 -28.88978 -39.32867 247.6 114.8)"/><circle r="1" fill="#977455" transform="matrix(-3.6294 -12.54912 18.10426 -5.23604 213.5 134.3)"/><path fill="#220f00" d="M195 97l19 3-18-27z"/><ellipse cx="19" cy="96" fill="#c2d9cb" rx="13" ry="79"/><path fill="#fffff6" d="M269 167l-137 11 65-26z"/><circle r="1" transform="matrix(6.91784 -2.516 10.57522 29.077 197 16.9)"/><path d="M170 110.3l3.7 20.7 30.7 4.9-22.1-19z"/><path fill="#ae9576" d="M140 53l53-28-21-41z"/><path fill="#12080a" d="M170 116h7v41h-7z"/><path fill="#cdc2ae" d="M205 110L89 95 47 34z"/><circle r="1" fill="#c2ab86" transform="matrix(6.76628 11.5791 -29.92975 17.48954 179.5 79)"/><path fill="#001b1d" d="M144.2 76.9l2.7 7 49.4-48.6-45.8 14.5z"/><path fill="#0b1e46" d="M55.7 61.7l9.1-4 15.5 34.6-9.1 4z"/><path fill="#31383c" d="M40 7h25v23H40z"/><path fill="#99ac77" d="M94 133l-110 12 49-29z"/><circle r="1" fill="#fff8e1" transform="rotate(-38.9 253.8 -221.7) scale(12.42807 15.00243)"/><ellipse cx="21" cy="49" fill="#403d37" rx="39" ry="2"/><path fill="#2e485c" d="M0 14h36v6H0z"/><path fill="#9b9382" d="M270 11l-58 35-16-62z"/><path fill="#020500" d="M167.6 25.5l4-3 24.8 34-4 3z"/><circle r="1" fill="#fffffe" transform="matrix(30.33599 -24.9596 5.85124 7.11162 247 137.4)"/><path fill="#130000" d="M176 153l-14 10 14-3z"/><path fill="#f0e7e1" d="M50 178l62-34-4-42z"/><path fill="#e7dfe0" d="M146 119h23v37h-23z"/><circle r="1" fill="#cdc2b5" transform="rotate(-117.8 140.1 -32.3) scale(10.49524 33.54884)"/><path fill="#af9783" d="M239 135.5l-11.3-20.7-31.2 5.8 14.7 26.3z"/><ellipse cx="129" cy="139" fill="#b1bfc8" rx="19" ry="128"/><path fill="#c4bba7" d="M50.8 20.1L35.1 52.2 14.7 18l67.4 33.1z"/><path fill="#e5e4e7" d="M6 80h25v24H6z"/><circle r="1" fill="#353a42" transform="matrix(-2.44229 1.1275 -10.71237 -23.20432 51.1 45.7)"/><circle r="1" fill="#3d4032" transform="matrix(1.35412 -2.16324 24.68052 15.44921 63.2 28)"/><circle r="1" fill="#beaa8d" transform="matrix(13.44867 10.65928 -18.09992 22.83641 168.1 92.5)"/><path fill="#a6bca7" d="M63.2 168.1l-17.5-22.4-49.4-62.4-12.3 91.6z"/><path fill="#c8cabb" d="M-13 4l96-20-53 31z"/><ellipse cx="49" cy="86" fill="#aa9b75" rx="11" ry="32"/><path fill="#61704f" d="M52 132h61v2H52z"/><circle r="1" transform="matrix(-.26258 2.4792 -8.23467 -.87217 199.7 84.7)"/><path fill="#000703" d="M213.5 55.9L198.8 3.3l-18.7-7.2L208 50.6z"/><path fill="#fffeff" d="M215.7 170.6L130.4 185l22.9-23.1 18.5 2.6z"/><path fill="#bcad93" d="M89.4 24.1L43.2 8.5l41.4 27.3L58.5-16z"/><path fill="#9b886b" d="M156 16l51 31-16-22z"/><circle r="1" fill="#fff" transform="rotate(-94.4 178 -63.7) scale(15.21109 33.31073)"/><path fill="#9d573a" d="M155.4 117l7.5-11.3 14.5-2.1-7.8 5.2z"/><path fill="#fef4e6" d="M203 101h3v69h-3z"/><path fill="#eadac8" d="M100.8 131l-49-10.5 5.4-25.4 49 10.4z"/><path fill="#0d1111" d="M177.1 107.6l5.2 27.3 23.9-5.2-19.3-6.6z"/><path fill="#e0c9af" d="M154.3 107.7l1.8-17.5 23 21.2 20.8-20.8z"/><path fill="#949996" d="M124.6 152.3l-59.4 20.8 52.1-28.7 1.3 9.7z"/><path fill="#f0e8dd" d="M190 139.7l4.3 8-12.4 6.6-4.2-8z"/><path fill="#a88b72" d="M238.8 131.5l-63.2 4.8 35.1 15.2-14.6-3.3z"/><path fill="#a08969" d="M212 54l-1 43-19-60z"/><ellipse cx="126" fill="#c2cbcd" rx="17" ry="112"/><path fill="#fff79a" d="M23 138l34-5-12-5z"/><ellipse cx="44" cy="21" fill="#0d182f" rx="3" ry="14"/><path fill="#c8c9c3" d="M3 23h32v25H3z"/><circle r="1" fill="#293240" transform="matrix(13.18262 3.15126 -.67633 2.82927 57.2 9.7)"/><path fill="#b58861" d="M261 166l-16-15 26-7z"/><path fill="#c0b39e" d="M80.8-5.4l-3.2 16.7-30.4-6 3.2-16.6z"/><path fill="#6d6458" d="M0 77h29v3H0z"/><circle r="1" fill="#ffb183" transform="matrix(5.17176 8.93212 -3.05262 1.76749 193.5 94)"/><path fill="#ccccc9" d="M2 50h28v26H2z"/><path fill="#ccbca3" d="M79 69h35v48H79z"/><path fill="#b1a085" d="M46 28l33 53 35-30z"/><path fill="#753d1f" d="M211 108h3v20h-3z"/><path fill="#fff" d="M182 103h24v14h-24z"/><path fill="#0e2725" d="M183.2 56.4L166.4 72l-11.6-12.5L171.6 44z"/><circle r="1" fill="#897f68" transform="matrix(-1.54636 -73.82264 .99978 -.02094 49.8 86.8)"/><path fill="#e6ecf1" d="M115.2 136.7L105 117.5l-49.5.7 59.5 16.9z"/><path fill="#c4b49a" d="M49.9 66.1l9.5 2.3 10.4 39.7-17.2 11.2z"/><path fill="#f1e2d6" d="M61 137h20v28H61z"/><path fill="#9b8665" d="M82 0h27v60H82z"/><path fill="#f4dd9c" d="M42 137.2l16.8-4.5-47.4 5-27.4 8.2z"/><ellipse cx="35" cy="74" fill="#d5dfd6" rx="2" ry="25"/><path fill="#b5a68d" d="M47 20l3 25 27-4z"/><path fill="#7e7866" d="M58 123h2v45h-2z"/><ellipse cx="204" cy="143" fill="#fff" rx="1" ry="27"/><ellipse cx="200" cy="91" fill="#2a170d" rx="3" ry="10"/><path fill="#373f4e" d="M65.8 92.5l2.8-14-23.8-39.8 16.6 15.9z"/><path fill="#b08976" d="M170 143l-6-16 8 5z"/><path fill="#fff" d="M239.9 149l-6.5-45.6 30.7-4.3 6.5 45.5z"/><path fill="#b3b9bd" d="M147 58.5L118.7 2.8l4.8 156.1 21.3-171.7z"/><path fill="#99876b" d="M173.5 34L144 17.9l5.3 27 31.8-4.9z"/><circle r="1" fill="#33392c" transform="matrix(-9.47836 -9.21572 2.58078 -2.65433 62.9 26.4)"/><circle r="1" fill="#ac755b" transform="matrix(-23.81053 -7.93347 .48966 -1.46959 203.7 124.3)"/><path fill="#ebded5" d="M174 167.3l93 3.7-50.7-27.1-33.3 12.6z"/><path fill="#69463f" d="M168.6 163.4l-2.2.9-5.3-4.9 26.3-5.2z"/><ellipse cx="239" cy="73" fill="#c7bfb7" rx="27" ry="17"/><path fill="#9f8b71" d="M181 58h27v23h-27z"/><path fill="#d3ccc8" d="M19.1 156.4l-21.4 6.4L24.2 147l49.4 28.7z"/><ellipse cx="137" cy="71" fill="#c9d5db" rx="4" ry="161"/><path fill="#8a7457" d="M146 0h38v26h-38z"/></g></g></svg>