<svg xmlns="http://www.w3.org/2000/svg" viewBox="0 0 934 1400"><defs/><filter id="a"><feGaussianBlur stdDeviation="12"/></filter><rect width="100%" height="100%" fill="#56575b"/><g filter="url(#a)"><g fill-opacity=".5" transform="translate(2.7 2.7) scale(5.46875)"><circle cx="94" cy="150" r="212" fill="#fff"/><circle cx="100" cy="137" r="171" fill="#feedc4"/><circle r="1" fill="#a69677" transform="rotate(-82.1 132.7 93.6) scale(26.96016 119.54485)"/><ellipse cx="75" cy="6" fill="#fff" rx="170" ry="8"/><ellipse cx="155" cy="27" fill="#9b8466" rx="59" ry="14"/><circle cx="170" cy="145" r="69" fill="#f3efdd"/><ellipse cx="82" cy="255" fill="#fff" rx="166" ry="13"/><circle r="1" fill="#8d9083" transform="matrix(22.06715 16.6804 -13.12747 17.36685 33 127.4)"/><path fill="#504d46" d="M202.2 233.3l-.4 12-72-2.6.4-12z"/><ellipse cx="16" cy="183" fill="#9b8e72" rx="20" ry="21"/><ellipse cx="87" cy="6" fill="#fff" rx="170" ry="7"/><ellipse cx="75" cy="250" fill="#fff" rx="170" ry="7"/><path fill="#988262" d="M0 224h45v20H0z"/><circle r="1" fill="#cab596" transform="matrix(-47.5337 -17.86674 7.38053 -19.63557 119.2 39.7)"/><path fill="#809198" d="M0 72h15v20H0z"/><path fill="#7a7e76" d="M24 145.2l40.5-.6-47.3-19 2.7 41.5z"/><path fill="#e5e2cc" d="M42.9 147.1l45.8-1.8-16.7 52-15 4.2z"/><ellipse cx="162" cy="188" fill="#f6f2e5" rx="16" ry="40"/><path fill="#fefef4" d="M108 228h14v28h-14z"/><path fill="#e1d8c0" d="M23 68h146v53H23z"/><path fill="#dfd6ba" d="M20.9 225.4l19.4-22.2-56.3-1.8 6 23.4z"/><path fill="#788b8f" d="M100.5 214.4l-6.8-62.7 3.9 76.7 39-4.3z"/><path fill="#726756" d="M63.2 210.2l-9.9-2.9-7.7 3.8L25 192.8z"/><path fill="#c4b593" d="M55.2 98.2l19.5 57.7.5-33.6 18.5-6.9z"/><circle r="1" fill="#cdc5a9" transform="matrix(21.5091 -33.6737 11.53796 7.36988 93.5 186.9)"/><circle r="1" fill="#9f9481" transform="matrix(-22.27866 2.8935 -1.04456 -8.04268 145.9 236.2)"/><ellipse cx="80" fill="#fff" rx="169" ry="13"/><path fill="#978a77" d="M137 15h34v21h-34z"/><path fill="#afb5b3" d="M136 130h33v13h-33z"/><path fill="#938168" d="M67 236h39v7H67z"/><path fill="#fff" d="M0 244h171v12H0z"/><path fill="#59554c" d="M2 229h8v14H2z"/><path fill="#c9cbb8" d="M102 200h49v17h-49z"/><path fill="#736e65" d="M13 192.2l31 6.6-24 3.4-3.6.2z"/><circle r="1" fill="#b9b8a7" transform="rotate(-10.3 629.7 -35.4) scale(34.16037 13.46523)"/><path fill="#d1c0a0" d="M51.1 208.7l83.5 28.4 9.5-12.3-65 8.7z"/><path fill="#a5a498" d="M96 148l-1 31 16 6z"/><path fill="#d4c4a4" d="M16 243.2L90.6 190l9 34.3-30.9-2.4z"/><path fill="#eee9d7" d="M17 71h31v18H17z"/><path fill="#c6ba9d" d="M53.7 200.1l-56.8-28.9 67.7.4-10.9-2z"/><ellipse cx="153" cy="240" fill="#6a645a" rx="31" ry="3"/><path fill="#a0aca9" d="M114 177h6v22h-6z"/><path fill="#f2ede1" d="M122.7 201l-51.6 3L186 191.7l-61.2-22.6z"/><path fill="#d4c1a4" d="M73 38h98v30H73z"/><path fill="#eae5cf" d="M90.9 174.1l2-11-13.6-12.6 2.6 49.8z"/><path fill="#949487" d="M75 196h34v3H75z"/><path fill="#c9b89f" d="M59 14h75v21H59z"/><path fill="#dbd6bf" d="M24 146h70v25H24z"/><path fill="#e9e4d3" d="M65 197l-29-3 41-7z"/><ellipse cx="158" cy="232" fill="#9d9d93" rx="20" ry="5"/><path fill="#b7a485" d="M63 98h6v28h-6z"/><path fill="#d1c7ae" d="M-1 234l10-52-25 2z"/><ellipse cx="11" cy="29" fill="#e4d9bf" rx="36" ry="16"/><circle r="1" fill="#696f6c" transform="matrix(.19347 6.87503 -2.61056 .07346 98.8 208.5)"/><path fill="#98a7a6" d="M134.5 227.1l-6-.2 1-26 6 .2z"/><path fill="#7e8a8b" d="M23 135h37v10H23z"/><path fill="#e1ddc8" d="M74 140.5v-21h32v21z"/><path fill="#d9be93" d="M17 41h10v25H17z"/><path fill="#a79073" d="M27 173h7v24h-7z"/><path fill="#a69376" d="M51.2 187.8l8.7 24.9L43.4 200l-6.9 33.9z"/><path fill="#eadec3" d="M159 194l-23 12 3 23z"/><path fill="#ece9da" d="M126 172.5l38.2-2.5-63.6 19.4L113 195z"/><ellipse cx="33" cy="4" fill="#fff" rx="170" ry="9"/><path fill="#c5bca5" d="M24 108l3 28 16-12z"/><path fill="#eae4ca" d="M32 202l7 8-7 7z"/><path fill="#e1d0aa" d="M109 159h37v11h-37z"/><path fill="#a48662" d="M30 242l16-8 3 8z"/><path fill="#b19d7f" d="M93 243.7l-25.1-.8-7.3-25 12.2 9z"/><ellipse cx="82" cy="250" fill="#fff" rx="170" ry="7"/><path fill="#6c777b" d="M99 224h26v3H99z"/><path fill="#e2d5ba" d="M184 66l-31 30L53 68z"/><path fill="#b1a489" d="M73 177h7v22h-7z"/><path fill="#f0ebdd" d="M135.7 165l-.4-21 53-1 .4 21z"/><path fill="#c4af89" d="M16.8 124.8L25 164l-5.9 1.3L11 126z"/><circle r="1" fill="#ebe5d5" transform="rotate(168.3 70.8 65) scale(38.48172 9.31264)"/><circle cx="170" cy="238" r="5" fill="#444e5a"/><path fill="#817769" d="M26.8 200.2l3.3-.7-15.3-12.3-6.5 11.1z"/><ellipse cx="45" cy="206" fill="#6e6961" rx="7" ry="3"/><path fill="#bfaa8a" d="M67.6 242L8.2 216.8l16.4 18.4-32.5 2z"/><path fill="#b99e79" d="M119.7 242l4.4 1.7 10.6-.7 2.1-10.2z"/><path fill="#dcd6c0" d="M97.7 247.5l10.6-6.3 6.9-29.3-8 23.2z"/><path fill="#cbc6b1" d="M13.1 141.2l-18 1.5-2.2-25.9 18-1.5z"/><path fill="#87877f" d="M19 105h4v35h-4z"/><ellipse cx="23" cy="121" fill="#ded2b5" rx="19" ry="2"/><path fill="#a8aca0" d="M104 176l-20 16 11 6z"/><path fill="#aa997d" d="M142 18l27 7-56 14z"/><path fill="#423d31" d="M0 241h12v2H0z"/><path fill="#d7c9b0" d="M57 31h61v32H57z"/><path fill="#6f7983" d="M163.3 35.7l3.5-19.7 2 .3-3.6 19.7z"/><path fill="#ddcfb2" d="M57 206l50-9-25 17z"/><ellipse cx="53" cy="103" fill="#d6d2bc" rx="11" ry="18"/><path fill="#d9d0b6" d="M148.2 196.1l-9.8 4.3 27.2 33.3-9.2.9z"/><path fill="#b7a485" d="M46.5 203.7l29.2-7.8-21.3 25-3.1-44.5z"/><path fill="#a68f6f" d="M3 166h21v5H3z"/><path fill="#4c5357" d="M14.4 235.4l-3.8-1 1-3.8 3.8 1z"/><path fill="#d1cbb5" d="M10 177l7-21 2 22z"/><path fill="#6e6c63" d="M38 140l2 8 3-3z"/><path fill="#a18c68" d="M60.5 23.9l3-.6 2 10.8-3 .6z"/><path fill="#decdac" d="M54.5 210.3l-3.4 15.9-10.2-11.8 10.5-3.3z"/><path fill="#cfb28c" d="M169.1 51.1l-7.2-29.4 3.9-7.1-15.1-1.3z"/></g></g></svg>