<svg xmlns="http://www.w3.org/2000/svg" viewBox="0 0 1400 934"><defs/><filter id="a"><feGaussianBlur stdDeviation="12"/></filter><rect width="100%" height="100%" fill="#484336"/><g filter="url(#a)"><g fill-opacity=".5" transform="translate(2.7 2.7) scale(5.46875)"><circle r="1" fill="#fff" transform="matrix(-57.15327 -106.63196 187.94955 -100.73838 118 130)"/><circle r="1" fill="#006732" transform="rotate(115.3 67 90) scale(62.64385 35.41072)"/><circle r="1" fill="#fffde8" transform="rotate(144.5 38.8 43.6) scale(63.94842 43.75116)"/><circle r="1" fill="#ffffe2" transform="matrix(-12.90778 -31.58558 80.62868 -32.94977 210.7 141.8)"/><circle r="1" fill="#fffff7" transform="rotate(-40.3 171 -322.4) scale(27.86095 47.53288)"/><circle r="1" fill="#fff" transform="matrix(18.4032 37.2326 -29.7055 14.68273 0 127.4)"/><circle r="1" fill="#29815b" transform="matrix(1.24464 34.3415 -56.23505 2.03813 183.7 78.8)"/><circle r="1" fill="#393a0a" transform="matrix(.78547 4.11758 -80.25185 15.30886 188.3 133.8)"/><path fill="#3e4300" d="M69 132l-53 28 130-18z"/><path fill="#fff" d="M108.1 177.4l-85.5 9-2.7-25.8 85.5-9zM271 48l-69 73 56-5z"/><path fill="#172012" d="M140 140.8l-13.3-10.5 49.2-63 13.4 10.4z"/><circle r="1" fill="#fffff3" transform="matrix(45.19328 5.22824 -2.44719 21.15366 113.2 36.7)"/><circle r="1" fill="#866143" transform="matrix(-8.52605 8.37056 -46.73153 -47.5996 24.3 87.6)"/><path fill="#95c7a7" d="M214.3 85.7l-24.7 4-7.9-49.4 24.7-4z"/><circle r="1" fill="#448f63" transform="matrix(42.49607 .9684 -.46994 20.62215 172.3 12.3)"/><circle r="1" fill="#fff2dc" transform="rotate(90.5 20 178.8) scale(21.25226 69.5735)"/><circle r="1" fill="#cebeac" transform="rotate(-94.7 96.3 5.5) scale(35.55448 42.44571)"/><ellipse cx="26" cy="138" fill="#fffde4" rx="35" ry="7"/><path fill="#142e1c" d="M176 15.4l-24.8 4.5 57.2 23.2-7-9.4z"/><path fill="#18804d" d="M271 65.5l-38.5-3.3-26.6 48.9L271 49.5z"/><path fill="#fff" d="M78 137l43-18 1 14z"/><circle r="1" fill="#cbbcae" transform="matrix(33.4289 -14.32705 9.62147 22.44949 54.4 60.6)"/><circle r="1" fill="#fff4d6" transform="matrix(31.58783 30.74172 -15.1739 15.59153 245.7 30.8)"/><path fill="#b6e7ce" d="M155 3l-26 16 71-8z"/><path fill="#619664" d="M117 173l42-56-71 29z"/><path fill="#199b7e" d="M229 91l-50-9 5 38z"/><path fill="#faf3e6" d="M128.8 18.6L172 38.7l-97.8 4.7L134-16z"/><circle r="1" fill="#a79386" transform="rotate(-29.5 231 -68.5) scale(17.32819 36.83673)"/><path fill="#062a1f" d="M164 48h14v61h-14z"/><circle r="1" fill="#4d986f" transform="matrix(-27.20883 4.60015 -1.43311 -8.47652 146.7 72)"/><ellipse cy="150" fill="#fff2db" rx="19" ry="66"/><circle r="1" fill="ivory" transform="rotate(98.4 -33 119) scale(13.37174 33.26312)"/><path fill="#3d7443" d="M219 38l15 16-29 16z"/><circle r="1" fill="#6b6640" transform="matrix(-103.86679 9.68581 -.19002 -2.03773 147.2 134.9)"/><path fill="#779865" d="M141 119l7-18-55 23z"/><path fill="#faf4e0" d="M120 138.2l109.6-16.5 41.4-29-103.6 31.4z"/><path fill="#563e2d" d="M49.4 119.5L-16 66l85.9 77.6-.3-16.4z"/><path fill="#fffce0" d="M213.1 116.1L271 89.5l-.5-38.8-31.4 29.7z"/><path fill="#7b6953" d="M33.5 25.7l-49.5 21 57.4-7.9L73.5 33z"/><circle r="1" fill="#fff3e0" transform="matrix(.19042 7.97636 -31.37548 .74903 236 137.6)"/><circle r="1" fill="#8bc7a0" transform="rotate(-108.9 133.3 -37.3) scale(7.99503 21.82268)"/><path fill="#f5f4eb" d="M24 59l13-17 34-2z"/><path fill="#967f66" d="M58.5-10.4l-72.7 5.8L4.7-16-7.1 16.2z"/><path fill="#d2c9c3" d="M142 96l-43 26-59-99z"/><path fill="#3d421f" d="M181.7 139l-1-4 129.6-30 1 4z"/><path fill="#fcf3e4" d="M164 36l-51 40 1-65z"/><path fill="#296a48" d="M168.4 13.8l-11.2-5.7 41.4 15.4-55.4 3.6z"/><circle r="1" fill="#fffce8" transform="matrix(-21.87458 4.84815 -.46683 -2.1063 66.7 26.1)"/><path fill="#3e4e23" d="M42 145l-23 16 49-9z"/><path fill="#f7f6e6" d="M164.4 142.1L110.7 185l13.8-21.7 15.3-16.8z"/><path fill="#7e6c4a" d="M50.5 14L20.8 35.8l64.8-18.2.2-7z"/><path fill="#2f2521" d="M152.8 121.6l-33.5 21.5 45.9-44.7 17.5-2.2z"/><circle r="1" transform="rotate(68.2 -26.8 33) scale(1.89683 30.32746)"/><path fill="#5c8d67" d="M168.5 30.6l-19.6 83.1-28.7-39.5 31.1-26z"/><path fill="#191f15" d="M155.6 89.4l58-24.6.8 1.8-58 24.6z"/><path fill="#a2dac3" d="M123.1 147.8l34-4.8-55.7 19 2.9-8.8z"/><path fill="#a4907d" d="M57.7 148L29.9 54.1l46.5 34.2-33.7-16.5z"/><path fill="#fffbee" d="M-3 146l54-7-41 21z"/><path fill="#71af88" d="M180.2 108.2l-68 35.3 43.1-14.4 64-22.5z"/><path fill="#d8cec4" d="M67.8 92.1l23.9 31.2-38.1-24.4-17.1-34.6z"/><circle r="1" fill="#776d37" transform="matrix(.92639 7.1328 -46.61827 6.05466 98 145.2)"/><path fill="#907863" d="M42 129.5l22 10.9 10.5-34.7 18.3 28.6z"/><path fill="#70af84" d="M207 68l-52-40 64 11z"/><path fill="#06643d" d="M148.4 99.9l-6.6-6.2 23.8-25.6 6.6 6.2z"/><path fill="#055330" d="M238 63h13v8h-13z"/><path fill="#265c38" d="M209.7 7.4l-.3 15.7L194.5-16h20z"/><path fill="#250b07" d="M177.5 23.9l-11.5-.8L192.3 36l4.5-7.4z"/><path fill="#0e0c05" d="M26.5 29.6L39.2 17l-22.3 9.6L.7 38.2z"/><ellipse cx="23" cy="123" fill="#dcc8ad" rx="18" ry="15"/><path fill="#8c7b68" d="M61.3 48.7l10-4.6 3.4 7.2-10 4.6z"/><path fill="#927653" d="M-6 60l30-13-7 15z"/><ellipse cx="193" cy="12" fill="#bfd9c8" rx="11" ry="3"/><circle r="1" fill="#218c74" transform="rotate(140.7 28.7 103.9) scale(9.52272 3.58245)"/><path fill="#038a75" d="M188 92l38-2-66 25z"/><path fill="#fffffd" d="M109 122l18 3-27 9z"/><path fill="#59996b" d="M232.1 52.7l-24.3-21.1L221.5 68l21.3 11.1z"/><ellipse cx="243" cy="3" fill="#f3e4d0" rx="32" ry="51"/><path fill="#7b5c48" d="M86 109.2l-5.8 1.3-2.2-9.7 5.8-1.3z"/><path fill="#34a287" d="M176.6 79l23.8-14.4-9.6-6-8.6-15z"/><path fill="#524739" d="M34.7 32.3L22.6 49.6l22.8-15.5L28.1-16z"/><path fill="#efe9dd" d="M108.9 74.7l7-45.4 27.5-40.8-69.8 31.2z"/><path fill="#1c704b" d="M149 50l37 5-22-17z"/><ellipse cx="137" cy="137" fill="#938a6c" rx="17" ry="7"/><path fill="#d2c6b5" d="M6.3 67.5l26.9-24.3-2.5 27.3 76 32.1z"/><path fill="#9fb292" d="M158 111.6v1l-32-2.2v-1z"/><path fill="#1c241a" d="M215 51.8l5.7 12.8-3.7 1.6-5.7-12.8z"/><path fill="#989480" d="M84.9 61.9l45.8 63-1.6 1.2-45.8-63z"/><path fill="#e2ded8" d="M39 63l70 24-7-22z"/><path fill="#f3e6d6" d="M82 139l-9-9v4z"/><path fill="#73af89" d="M168 66.8l-44.3 7.6 31.1-30.1-1.8 15.2z"/><path fill="#f3e8d6" d="M252.5 153.4l-113.7-6.9 73.8-11.3 55.7-16.7z"/><path fill="#8b725c" d="M15.3 79l68.3 72.5-58.7-54.1 27-13.9z"/><path fill="#f7f1e3" d="M-12.6 120l42.4-11.7L8.7 90.9l-11.5-9.1z"/><path fill="#50562c" d="M114.4 144.3l4.7-5.7-21.3-2.3-31.2 10.9z"/><path fill="#508860" d="M111.1 151l27.9-42.3 29.1-26.8-8.7 13.4z"/><circle r="1" fill="#b47456" transform="matrix(-35.77305 20.32747 -.77861 -1.37023 110.6 119.3)"/><path fill="#28442c" d="M220.7 61.5l-.8.7-36.6-43.7.8-.7z"/><path fill="#87bfa2" d="M231 57l-37 34-9-11z"/><path fill="#ebdabb" d="M48 156.2l2.4 13.8L6 177.8 3.6 164z"/></g></g></svg>