<svg xmlns="http://www.w3.org/2000/svg" viewBox="0 0 1400 934"><defs/><filter id="a"><feGaussianBlur stdDeviation="12"/></filter><rect width="100%" height="100%" fill="#45413d"/><g filter="url(#a)"><g fill-opacity=".5" transform="translate(2.7 2.7) scale(5.46875)"><circle cx="45" cy="24" r="194" fill="#cbd2c8"/><circle r="1" fill="#fff" transform="rotate(25.4 53.8 284) scale(84.24887 15.95002)"/><circle r="1" fill="#fff" transform="matrix(-6.74217 46.7874 -18.21955 -2.62548 37.8 46.6)"/><ellipse cx="48" cy="152" fill="#050800" rx="23" ry="66"/><circle r="1" transform="matrix(14.65449 -28.93726 17.60586 8.916 106.8 151.3)"/><circle r="1" fill="#d1dad3" transform="matrix(44.38836 101.06772 -13.14774 5.77441 255 149)"/><path fill="#fff" d="M0 40l-12 138 36-61z"/><path fill="#000300" d="M180 148l24-82 21 111z"/><circle r="1" fill="#212014" transform="rotate(-23.8 250.8 -259.4) scale(19.41076 33.00543)"/><circle r="1" fill="#fffff8" transform="matrix(-17.85351 25.2271 -11.2251 -7.94413 82 62.4)"/><circle cx="158" cy="169" r="23" fill="#fff"/><ellipse cx="182" cy="97" fill="#ffe" rx="11" ry="37"/><circle r="1" fill="#fff" transform="rotate(-179.1 40 62.4) scale(11.76584 23.53902)"/><path fill="#fff" d="M229 4l42 35-28-3z"/><circle r="1" fill="#030601" transform="matrix(13.10226 -5.10224 11.21688 28.8043 71.3 0)"/><path fill="#1e2220" d="M240.1 52.2l-37.9-2.8 24.9-35.8 11.5 10.3z"/><path d="M10 45l1 42 29 38z"/><circle r="1" fill="#fff" transform="matrix(-4.10347 9.66718 -53.58424 -22.74516 151 18)"/><circle r="1" fill="#2d2d22" transform="matrix(-7.59428 28.34225 -9.99712 -2.67872 173.9 66.6)"/><path fill="#050905" d="M65.2 103.3l-22.1 13.3 53.3-19.8-8.1-25z"/><path fill="#0b0000" d="M-4.8 23.3L-19.7-.5l36.5-22.8L31.7.5z"/><path fill="#131514" d="M201.4 53.8l-130 48.9 116.5-54.3 54.2-17.5z"/><circle r="1" fill="#343428" transform="matrix(-2.00667 -13.51357 97.99152 -14.55106 53.5 162.8)"/><path fill="#edf4f4" d="M32 105l7-121 26 62z"/><path fill="#282c26" d="M254 65l-82 84 32 13z"/><path fill="#fff" d="M7 75l-21 109 39-74zm179-16h9v36h-9z"/><ellipse cx="14" cy="55" fill="#010200" rx="4" ry="28"/><path fill="#4a514a" d="M102 17h26v41h-26z"/><path fill="#130b02" d="M133.2 84.5l27.4 59.1 46.2-.9-32 10.6z"/><path fill="#fff" d="M118.8-16l50.8 75.7-20 1.8 26.2-33.6z"/><ellipse cx="99" cy="65" fill="#fff" rx="4" ry="22"/><path fill="#e6eadb" d="M95 92h14v31H95z"/><path fill="#0e0e06" d="M89 155l29 16 4-71z"/><path fill="#eef0e9" d="M90-18.7l21.1 28L96 20.7l-21-28z"/><circle r="1" fill="#050708" transform="rotate(-142.9 18.3 -6.1) scale(2.27747 38.41474)"/><path fill="#d4e3e6" d="M1 63V21L23 6z"/><path fill="#f0f2ec" d="M79 94l-22-1 29-39z"/><path fill="#41453b" d="M250 169l-61-33 9-78z"/><path fill="#040406" d="M206.3-16l22.3 3.8L271 43.2l-29.3-29z"/><path fill="#c3bfb1" d="M124.9 142.5l29.8-13.3-8.6-4.6-19.5-31.8z"/><path fill="#26241b" d="M144 3l-8-19 31 26z"/><path fill="#363b33" d="M59 85l7-37-37 60z"/><path fill="#f8fefc" d="M56.3 19l2.9-33.3L32.9 7.9 17 44z"/><path fill="#2e3231" d="M198 38l12-48-17 30z"/><circle r="1" fill="#d9d4c9" transform="matrix(-2.58799 19.9972 -11.00778 -1.4246 179.2 121.8)"/><path fill="#30342b" d="M79.3 94.2l14.9-42.1L92 92.3v28.4z"/><path fill="#d4d5d1" d="M231.3 83.1l-17.9 6.5L200.7 55l17.9-6.5z"/><path fill="#070701" d="M63.6 135.7l-5.7 5.1-26-21.8-16.7-33z"/><path fill="#fff" d="M82 100l-5 35h15z"/><path fill="#f4faf7" d="M269.8 42.6L271 62 217.2-4.4l4.6 2.7z"/><path fill="#f1f6f5" d="M217 35l-31 13 15-18z"/><path fill="#040702" d="M168 98l6-33-19 33z"/><path fill="#9fa291" d="M29.3 116.7l6.8 8-10.7 34.9-3.6-29.5z"/><path fill="#3a3f39" d="M246 33l-32 2 34 63z"/><path fill="#332e25" d="M145.7 85.4l15.5-13.7-36.9 8.4 26.9 46.9z"/><path fill="#fff" d="M194.3 44.8l-3.6-25.4L66.3-16l78.3 41.3z"/><circle r="1" fill="#fff" transform="matrix(-1.2138 13.59138 -2.2179 -.19807 194.5 69.4)"/><path fill="#f5f3e4" d="M123 169.8l45.9-22.3 10 20.7-45.8 22.3z"/><circle r="1" fill="#6e756b" transform="matrix(-29.62096 35.51146 -3.26314 -2.72186 11.7 81)"/><path fill="#7f8077" d="M127 18l27 17-27 57z"/><path fill="#242b15" d="M88 110l20-4-1-6z"/><path fill="#e8e9d6" d="M149.7 80.3l5.2 14 3-8.7 10.2-9.8z"/><circle r="1" fill="#a2a69f" transform="matrix(16.44737 -2.04863 3.93178 31.5662 249.4 134.4)"/><circle r="1" fill="#000300" transform="matrix(-2.6275 -.88425 3.21781 -9.56154 16.5 32.3)"/><path fill="#1a1d1c" d="M82.7 16.5L101.8 35 81.1 5.2 68.7 51z"/><path fill="#28231d" d="M142 134h9v16h-9z"/><path fill="#1d211d" d="M82.8 99.7l38.8-32.3-5.2 47.5 7.6-32.1z"/><path fill="#fff" d="M26.1 79.6L36.3 98l-4.4 2.4L21.7 82z"/><path fill="#9a998b" d="M67 138h22v21H67z"/><path fill="#777a6e" d="M37.4 98.1L27.8 116 55 102.9l20.7-50.3z"/><path fill="#b6b3a0" d="M189.6 58.4l-11.8 84-9.4-.7.5-56.9z"/><path fill="#121512" d="M57 5h5v23h-5z"/><path fill="#b9bbb6" d="M236.4 78.3L222.8 109l-19.2-44L219 51.1z"/><path fill="#fff" d="M164 153h19v6h-19z"/><path fill="#fafcfc" d="M62 50l-5-25-30 49z"/><path fill="#fff" d="M183 94h7v31h-7z"/><path fill="#212522" d="M91.7-16l2.1 19.6-30.7 11.8 16.1 16.2z"/><path fill="#757976" d="M231.5 30.3l-21.9 6.2-21.2-52.2 44.2 33.5z"/><path fill="#000100" d="M182.7 147.8l-1 3.8-20.4-5.4 1-3.8z"/><path fill="#999a70" d="M90.9 120.9l22.7 3.4 5.8-20.8-21.6 36.3z"/><path fill="#9aa199" d="M50.2 22l7.3 6.9-17.7 19-7.3-6.8z"/><path fill="#e4e7e2" d="M93.1 69.9l-5.4-49.2 4.1 4.9 14 47.1z"/><path fill="#e7efea" d="M9.4 40.9v18.7L-4.7 72.5-16 58z"/><path fill="#4e5345" d="M10 144l30-3-49 36z"/><path fill="#f5f6ea" d="M198 160h3v10h-3z"/><path fill="#20211d" d="M207 139l-9-68-18 114z"/><path fill="#000003" d="M49 175l33 2-21-27z"/><path fill="#c3b9a1" d="M164 148l3 37-19-53z"/><path fill="#fdfffc" d="M108.7 115.4l-5.1-7.6-15.7 13.5 19.2-2.8z"/><path fill="#fff" d="M180 30l-35-11 29-14z"/><path fill="#8c887f" d="M121.8 132.4l3.7 52.6 6.8-65.8-3-60.2z"/><circle cx="107" cy="17" r="5" fill="#041014"/><path fill="#595d51" d="M256.4 214.2l-52-122.5 9.2-3.9 52 122.5z"/><circle r="1" fill="#252926" transform="rotate(-111.5 75.6 18) scale(3.73353 39.59954)"/><path fill="#3b3b33" d="M118.6 99l-13 60.4 41.2-8.3-16.5 16.9z"/><circle r="1" fill="#0b0f0e" transform="rotate(-24.1 200.4 -520) scale(14.64825 4.34841)"/><path fill="#fffffe" d="M74 104l4 19 7-24z"/><path fill="#d9dfd9" d="M60 10l6 25 7-3z"/><path fill="#fff" d="M12.6 14.7l-1.7 11.1 12.7-14.4L30.1 2z"/></g></g></svg>