<svg xmlns="http://www.w3.org/2000/svg" viewBox="0 0 1400 933"><defs/><filter id="a"><feGaussianBlur stdDeviation="12"/></filter><rect width="100%" height="100%" fill="#44453a"/><g filter="url(#a)"><g fill-opacity=".5" transform="translate(2.7 2.7) scale(5.46875)"><circle r="1" fill="#fff" transform="rotate(-42.7 158.5 -143.4) scale(136.29741 158.44988)"/><path d="M126 136h60L154-16z"/><circle r="1" fill="#f8f3df" transform="matrix(-22.45 47.70868 -87.29282 -41.07688 37.6 60.2)"/><ellipse cx="232" cy="70" fill="#fdf9e3" rx="71" ry="49"/><circle r="1" fill="#394131" transform="rotate(122.2 64.7 121.2) scale(17.53004 82.85005)"/><path fill="#130b00" d="M147-16l42 35-49 98z"/><ellipse cx="70" cy="161" fill="#bcd0ca" rx="53" ry="19"/><path fill="#5a6247" d="M62 121h156v18H62z"/><path fill="#fafdf7" d="M49 32l-65 30 53 75z"/><circle r="1" fill="#d5d1c0" transform="matrix(-62.3683 27.8819 -28.48359 -63.7142 232.4 55.3)"/><circle r="1" fill="#4f5c5a" transform="matrix(-29.26033 -36.39251 16.21024 -13.03337 0 123.6)"/><circle r="1" fill="#8b7a5c" transform="matrix(-10.8827 1.41342 -5.53174 -42.59203 180.5 42.1)"/><ellipse cx="102" cy="24" fill="#c5baa0" rx="44" ry="61"/><ellipse cx="134" cy="160" fill="#cddbd5" rx="67" ry="12"/><circle cx="109" cy="57" r="8" fill="#523b1c"/><path fill="#000400" d="M174-10l-17 56-17-56z"/><path fill="#a9a38c" d="M81.7 115.9L54 136 33.5 93.8l27.6-25.2z"/><path fill="#d7d7c9" d="M139.7 94.5l-6.4 18.2-34 13.9-30.2-36.5z"/><path fill="#2c2f24" d="M169 103l28 2 24 33z"/><path fill="#14140e" d="M134 56h28v15h-28z"/><circle r="1" fill="#e1e4df" transform="rotate(-81 181.3 -98.7) scale(31.37891 65.67934)"/><path fill="#f5f7ef" d="M64.9 123l-20-5.7-57.3-45.5 49 65.4z"/><path fill="#c7c5b4" d="M161 66l58-30-57 55z"/><path fill="#61665e" d="M239 122l32 35-123-31z"/><path fill="#444342" d="M66 83.7l-2.5 8.2 1.4 14.4 7.4-6.6z"/><circle r="1" fill="#3d4945" transform="matrix(10.98987 -4.57464 7.38079 17.7312 12.2 125.8)"/><path fill="#644e32" d="M172 24h12v27h-12z"/><path fill="#36381d" d="M108 127l49-6 6-33z"/><path fill="#8f9a8e" d="M159.1 123.3l73.3 26.7-7.5 20.7-73.3-26.7z"/><circle r="1" fill="#8b9690" transform="rotate(49.5 -149.7 125.6) scale(26.97107 19.51343)"/><circle r="1" fill="#726852" transform="matrix(-1.67183 -20.56733 2.54162 -.2066 101.4 37.4)"/><path fill="#e1e2db" d="M-29.1 11l85.5 24.6L45.1 75l-85.5-24.6z"/><circle r="1" fill="#e3e3d8" transform="matrix(-8.50938 1.15051 -4.25358 -31.46019 206.8 17.5)"/><circle cx="67" cy="4" r="36" fill="#c5c1b3"/><path fill="#606657" d="M108 132l-63 10 37-28z"/><path fill="#151610" d="M145 0h15v104h-15z"/><ellipse cx="126" cy="10" fill="#cbc4ac" rx="19" ry="47"/><path fill="#d3d4c8" d="M256 86l-41 37-16-8z"/><path fill="#c5c2b4" d="M16.9 91.4l3.3-13.5 36.5-1.7-72.7 43.7z"/><path fill="#444f4c" d="M250.5 183.2l11.7-2.6 8.8-72.2-24.9 35.7z"/><path fill="#bcb4a0" d="M183 50l68 26-65-50z"/><circle r="1" fill="#ddddd0" transform="matrix(53.13883 -47.87996 5.40972 6.0039 254.2 8.5)"/><path fill="#878b7c" d="M173.2 148.5l26.6-56.7-41.7 64.8 6.1-61.7z"/><path fill="#d1cec1" d="M70 62h62v24H70z"/><path fill="#2c3334" d="M-16 111l3-13h27z"/><circle r="1" fill="#79817d" transform="matrix(-16.08522 36.8176 -9.38099 -4.09845 226.7 168.9)"/><ellipse cx="162" cy="16" fill="#1a1b15" rx="5" ry="42"/><path fill="#b9b7a8" d="M158.7 84l46.9 27.3-31.7-11.3 41.2-60.1z"/><path fill="#2c2f21" d="M196 119l6-11-29-7z"/><path fill="#6a6e67" d="M29.2 132.7l34.6 8.2-62-4L21.5 185z"/><ellipse cx="139" cy="72" fill="#5e5c59" rx="5" ry="21"/><path fill="#d4dad7" d="M211.2 83.2l-13.4 44-1-.4 13.4-44z"/><path fill="#c7c6b5" d="M96 98h38v17H96z"/><path fill="#ecefea" d="M101 122l-22-10-8-43z"/><path fill="#bbc5c0" d="M108 157l33.8-13.6 61.1 5.5-1.8 27.2z"/><path fill="#928266" d="M101 71l30-12-25-12z"/><path fill="#323026" d="M97 22h5v11h-5z"/><ellipse cx="175" cy="22" fill="#88755a" rx="7" ry="32"/><path fill="#373923" d="M187.4 140l-5.6-2 10.8-28 5.6 2z"/><path fill="#e0e1d7" d="M271 110.8l-39.1 41.6 31.6-26.5-68-60.9z"/><path fill="#b2af9d" d="M72 117l7-15 5 35z"/><path fill="#494a2f" d="M172.9 88.4l-7 40.8-3.5 6.5 14.5-2.4z"/><path fill="#40433e" d="M210.9 122.2l-8.5 26 4.3-9.5 31.2-10.4z"/><path fill="#eff1ed" d="M0 104h38v3H0z"/><path fill="#f4f5f1" d="M42.1 119.6l-52.5-57.8 36.1 63.6 18.5 6.3z"/><path fill="#b8af96" d="M181.5 17.4l13.7 30.7L197-16l-17.3 5z"/><path fill="#c5c1ad" d="M166 49.9l-5.5 36.2-2.2 8.2 19.5-36z"/><path fill="#aead9b" d="M42 118l34-7-23 33z"/><path fill="#e3e6dd" d="M233.7 60.9l8 9.3L271 14l-20.7 6.2z"/><ellipse cx="66" fill="#958874" rx="4" ry="23"/><circle r="1" fill="#1a1a12" transform="matrix(7.87376 1.31194 -5.37736 32.27276 154 73.8)"/><path fill="#eceee7" d="M21 76l-37-92v129z"/><path fill="#3b3f34" d="M68.9 121l10.5 11.2-23.5-2.8 15.7 5.2z"/><path fill="#e2ebe9" d="M158 162h24v8h-24z"/><ellipse cx="39" cy="5" fill="#ceccc3" rx="21" ry="45"/><path fill="#a6b1a6" d="M114.5 175l7.3-8.4 28.4 3.1-43.4-41.3z"/><path fill="#636955" d="M105.6 132l18.3-18.4 8.5 8.5-18.3 18.3z"/><path fill="#b2a179" d="M235 41.2l-2.8-3 14.9-13.4 2.7 3z"/><circle r="1" fill="#b1ae99" transform="matrix(-4.53067 10.6742 -4.86535 -2.0651 111.4 114.9)"/><path fill="#e3e5e0" d="M244 72l-65 27 25 10z"/><path fill="#a1957c" d="M122.8 8.9l-22 23.5.1-16.5 12.9-12.6z"/><path fill="#a7936e" d="M223 55h7v11h-7z"/><path fill="#a99870" d="M248-3l-21 20 6-19z"/><path fill="#9d9983" d="M165 89l19-15-4 23z"/><path fill="#cac5b2" d="M35 97l21-48 11 79z"/><path fill="#a09179" d="M173-11.7l6 1-8 50.4-6-1z"/><path fill="#dbded8" d="M208 114h48v9h-48z"/><path fill="#9aa29d" d="M191 147h24v11h-24z"/><path fill="#715f44" d="M165 42h18v10h-18z"/><path fill="#a1ada4" d="M26 185l5-33 120 33z"/><path fill="#a0a59b" d="M212.8 68l-7 33.4-19.4 46.4 15.6-27.4z"/><path fill="#858c82" d="M30 136h155v5H30z"/><path fill="#c1c0b0" d="M175.5 84.4l-16.4 4.2 5.7-32.8 13 2.7z"/><path fill="#959c93" d="M182 115l-9 23 9 21z"/><path fill="#beb7a3" d="M98.2 48.3h47.1l-.5-57.8-41.4 38.8z"/><circle r="1" fill="#9fa397" transform="matrix(-.9677 -.25207 12.45751 -47.82513 165.4 109.2)"/><path fill="#6d5e44" d="M164-16l19 42-5-38z"/><path fill="#343628" d="M159.3 112.1l15.6-19.4-39.9 8.4 9.6 15.4z"/><path fill="#767570" d="M130.4 87.1l13.5-7.7-6 17.1 2.5-33.7z"/><path fill="#bfbbad" d="M60 68l45-54-56-3z"/></g></g></svg>