<svg xmlns="http://www.w3.org/2000/svg" viewBox="0 0 1400 933"><defs/><filter id="a"><feGaussianBlur stdDeviation="12"/></filter><rect width="100%" height="100%" fill="#3c2e23"/><g filter="url(#a)"><g fill-opacity=".5" transform="translate(2.7 2.7) scale(5.46875)"><circle r="1" fill="#fffcd8" transform="rotate(-161.5 50.5 28) scale(174.02829 130.77294)"/><circle r="1" fill="#f8e5d2" transform="rotate(46.3 -97.1 175) scale(65.44622 86.61761)"/><circle r="1" fill="#000020" transform="matrix(-19.24201 -9.03196 13.34192 -28.42409 205.6 67.7)"/><ellipse cx="66" cy="20" fill="#954319" rx="130" ry="28"/><circle r="1" fill="#3a1400" transform="matrix(-4.08571 -4.94095 23.85395 -19.72505 127.4 62.7)"/><path fill="#43361b" d="M-10.3 143.8l25.5-2.9 12.2 7.5 55-48.1z"/><path fill="#ebe7df" d="M-16 181l157-19-1-100z"/><path fill="#160000" d="M245 147l4-22-40-17z"/><circle r="1" fill="#f8e3d0" transform="matrix(-2.46125 -29.93189 11.27723 -.92731 198 123)"/><path fill="#fedabd" d="M136 13.8l4.9 22.9L91.8 86l28.3-78.1z"/><path fill="#583018" d="M169.2 179.3l4.3-30.7 71.3 10-4.3 30.8z"/><circle r="1" fill="#373830" transform="rotate(-2.6 694.1 -3737) scale(32.26923 15.58949)"/><path fill="#2f2119" d="M175 94l32-56-30 122z"/><ellipse cx="247" cy="16" fill="#915f39" rx="29" ry="87"/><path fill="#412500" d="M-15.7 67.3L11.1 64l4.6 36.7-26.8 3.3z"/><path fill="#fff" d="M174 90l-3-43 19-6z"/><circle r="1" fill="#eeedeb" transform="matrix(108.18823 1.87849 -.21615 12.44853 32.2 157.5)"/><path fill="#43361b" d="M72 143l-44-13-44 13z"/><path fill="#b69d75" d="M91 50l-62 77 92-20z"/><path fill="#ffedd8" d="M268.4 121.6l-58-15.6 3.2-11.6 58 15.6z"/><path fill="#384c1c" d="M0 41h92v10H0z"/><circle r="1" fill="#c5bcba" transform="matrix(6.48207 -8.00469 26.57008 21.51603 199 15.3)"/><path fill="#c28562" d="M271 169V87l-31 74z"/><ellipse cx="106" cy="16" fill="#d38453" rx="35" ry="26"/><path fill="#4e2c13" d="M128.4 63.6l1.6 2.5-80.4 54.3-1.6-2.5z"/><ellipse cx="153" cy="149" fill="#865b38" rx="41" ry="4"/><ellipse cx="38" cy="73" fill="#d1b78b" rx="22" ry="28"/><path fill="#f9ffff" d="M104.5 50.8l-1.7 29.5 30.8-40.2-24.2 2.7z"/><path fill="#ecdccb" d="M183.7 147.5l3.3-20.8 49.3 7.8-3.3 20.8z"/><circle r="1" fill="#60230c" transform="matrix(-56.34365 2.33522 -.48126 -11.61177 24 0)"/><path fill="#583212" d="M106 168l44-4 42 21z"/><path fill="#dacab3" d="M120 89h81v21h-81z"/><path fill="#131a12" d="M185 112.8l4-74 6 .4-4 74z"/><circle r="1" fill="#fffaeb" transform="rotate(-119 39.1 66.5) scale(4.67493 30.82173)"/><path fill="#502911" d="M195-8l69 13-26 23z"/><circle r="1" fill="#aa8a62" transform="matrix(-28.27656 -3.53312 .88706 -7.09943 143.5 116.4)"/><path fill="#523114" d="M208 141h43v5h-43z"/><path fill="#133a51" d="M174 79l52-45-6 58z"/><ellipse cx="59" cy="49" fill="#00f007" rx="6" ry="7"/><path fill="#5c3f27" d="M165 42l-57 36 13-25z"/><path fill="#abb9b8" d="M138 14l44-8-29-13z"/><path fill="#cca17b" d="M165 24l20 20-51 32z"/><ellipse cx="149" cy="161" fill="#fbf6f3" rx="31" ry="3"/><path fill="#4d2e0e" d="M271 102l-22.3-7.3-29.3-2.6 6.6 7.7z"/><path fill="#fff" d="M104 80h32v15h-32z"/><path fill="#2e2617" d="M139.5 18.9l50.9-6.4-34.3 34 28.1-13.8z"/><path fill="#cdac83" d="M222 76l24-16-15-30z"/><path fill="#b0a99d" d="M23.4 127.5l6.6-13 109.7 20-87.4-6.8z"/><path fill="#370e00" d="M218.1 116.5l25.4 31 14.3 5.5-21.4-29.4z"/><ellipse cx="158" cy="104" fill="#fdf5eb" rx="16" ry="9"/><path fill="#7b2c0c" d="M158.7 157.1l21.8 1.5 8.1-52.3-22.3 51.6z"/><path fill="#e3d6c6" d="M171.8 147.6l-27.8-3.4 2.2-17.8 27.8 3.4z"/><ellipse cx="109" cy="124" fill="#fff" rx="39" ry="4"/><path fill="#a18659" d="M105 95h83v4h-83z"/><path fill="#fff" d="M151 52l7 7 8-16z"/><path fill="#8e7a5e" d="M106.1 65.6l-41.4-.9-23.4-5.8 58.1-.7z"/><ellipse cx="144" cy="132" fill="#7c776f" rx="28" ry="2"/><path d="M141 5l19-21h-50z"/><path fill="#ebcca8" d="M239 101h17v23h-17z"/><path fill="#823701" d="M164 50h6v17h-6z"/><path fill="#e6cba4" d="M189 55l-59 43 34 2z"/><path fill="#050a04" d="M194.3 88.7L180 74.5l19.5-30.7-4.5 28.3z"/><path fill="#6d5c46" d="M148.4 54.8l13.4-11.1-24-16.3 5.8 67.2z"/><path fill="#673a1e" d="M249.6 141.6l-17.7-33.3-3.4 11.9-20.8 5.6z"/><path fill="#5a5e67" d="M131.4 133l-68.9-5 .1-1 68.9 5z"/><ellipse cx="206" cy="161" fill="#1e1606" rx="9" ry="5"/><path fill="#cec6bd" d="M229 33l-25 10 2-32z"/><path fill="#fef4e4" d="M73 132h63v9H73z"/><path fill="#fdffff" d="M132 65l-26 28 34-13z"/><path fill="#ebdfcc" d="M41 136l58-40-30 42z"/><path fill="#eb9769" d="M35 35l15-10-48 1z"/><path fill="#e7d9bf" d="M71.4 100L87 91l-30.6 19.5-14.9-34.1z"/><path fill="#fdffff" d="M119.2 161.2l-47.9.6L57.8 145l63.4 6.3z"/><circle r="1" fill="#fffffb" transform="matrix(-32.81126 -1.26048 .11057 -2.87828 139.6 127.3)"/><path fill="#746c54" d="M40 110h30v7H40z"/><path fill="#f3ede7" d="M211 146l27 2-19 8z"/><path fill="#cdc3b5" d="M-5.5 163.3L145.3 185 13.1 148.7l-22-21.1z"/><path fill="#ceb48c" d="M139 98.5l45.4-9.8-20-20.2-24.5-6.8z"/><ellipse cx="198" cy="97" fill="#f1e8da" rx="2" ry="13"/><path fill="#f3efe7" d="M68.8 59l-.4-6 54.8-4 .4 6z"/><path fill="#445d71" d="M223.7 98.3l-17.6-61.1 27 13-43.7 7z"/><path fill="#cdbe9f" d="M17 107l13 29 20-42z"/><path fill="#896040" d="M255 58L229 5l-17 5z"/><path fill="#52452c" d="M57.2 126.1l-26.3 18.5 4.5-2-1.4-15.7z"/><path fill="#e4d2ba" d="M211 113l-24 9 8-32z"/><path fill="#665b40" d="M180.3 91.2l.6-.1-16.7 5.5 20.1 6.5z"/><path fill="#ffc690" d="M230.7 85.7l40.3 3.2-38.3 2.4 20.2 3.4z"/><path fill="#ecf3f3" d="M181.1 66.7l-10-4.6 9.8-20.8 10 4.6z"/><path fill="#6d6556" d="M222.8 108.2l-30.4-11 10.9-.3 1.5 11.1z"/><ellipse cx="128" cy="148" fill="#ab9977" rx="23" ry="4"/><path fill="#3a2a1b" d="M178.8 34.3l10.4 9.8-5.1-6.3 24.5-12.7z"/><path fill="#d4cfc6" d="M207.1 95.4l14 20.9 25.3-12.9 10.9 2.1z"/><path fill="#612b11" d="M174 110h8v28h-8z"/><path fill="#4c2419" d="M12.4 51.4L-16 41l19.1-4 20.4 6.8z"/><path fill="#7d644e" d="M205.6 159.2l65.4-12.8-22-25.1-6.1 45.1z"/><circle r="1" fill="#7c664b" transform="matrix(-16.90757 .61997 -.11168 -3.04558 14.7 61.7)"/><path fill="#d1966a" d="M69 12l70 32-3-32z"/><ellipse cx="95" cy="73" fill="#e4d0b1" rx="16" ry="6"/><path fill="#917f4e" d="M25.2 104.5l24.4-12.8-4.8-5-47.1 15.7z"/><ellipse cx="97" cy="43" fill="#745333" rx="11" ry="8"/></g></g></svg>