<svg xmlns="http://www.w3.org/2000/svg" viewBox="0 0 1400 934"><defs/><filter id="prefix__a"><feGaussianBlur stdDeviation="12"/></filter><rect width="100%" height="100%" fill="#7b5438"/><g filter="url(#prefix__a)"><g transform="translate(2.7 2.7) scale(5.46875)"><circle r="1" fill="#fff" fill-opacity=".5" transform="rotate(137.8 64.8 76.6) scale(142.87691 199.28627)"/><circle r="1" fill="#fff" fill-opacity=".5" transform="matrix(-51.75866 16.96823 -33.68315 -102.74466 214.6 60.5)"/><circle r="1" fill="#fff" fill-opacity=".5" transform="matrix(127.68306 -57.12526 14.31886 32.00468 53 12.6)"/><circle r="1" fill="#753000" fill-opacity=".5" transform="matrix(-60.75966 33.90744 -6.65708 -11.929 40.6 113.2)"/><circle r="1" fill="#984604" fill-opacity=".5" transform="matrix(-19.30972 45.97464 -16.5859 -6.9662 161.2 143.8)"/><ellipse cx="83" cy="126" fill="#f4fdf3" fill-opacity=".5" rx="23" ry="27"/><circle r="1" fill="#f8af6b" fill-opacity=".5" transform="rotate(38.4 -89.3 264) scale(26.33364 45.50884)"/><circle r="1" fill="#fdfff0" fill-opacity=".5" transform="matrix(-53.33508 -12.11743 14.5345 -63.97383 231 56.7)"/><path fill="#8a2707" fill-opacity=".5" d="M149.2 55.5l-2.1 13.9-56.3-9 2.1-13.8z"/><path fill="#dbddcf" fill-opacity=".5" d="M34.2 185l-5.7-22.9-44.5-2.3 137.9-14.4z"/><path fill="#ff8a0b" fill-opacity=".5" d="M-7.7 145l-12.8-55.5L7.7 83l12.8 55.5z"/><path fill="#fff2de" fill-opacity=".5" d="M111 31l68 47-56-90z"/><path fill="#634929" fill-opacity=".5" d="M17.4 163.9L94.2 79l-16.8 1.5L20 115.8z"/><circle r="1" fill="#f7b574" fill-opacity=".5" transform="rotate(148.4 9.4 43.6) scale(82.68641 16.49503)"/><path fill="#0c0907" fill-opacity=".5" d="M52 141h18v8H52z"/><circle r="1" fill="#f5f3e5" fill-opacity=".5" transform="rotate(-46.8 42.5 -41.6) scale(79.06609 25.29188)"/><path fill="#5a371c" fill-opacity=".5" d="M146 150l13 35 25-62z"/><path fill="#ffeada" fill-opacity=".5" d="M143.1 95.2L61 61.1l16.1 8.7L107 59.2z"/><path fill="#4b391f" fill-opacity=".5" d="M106 78h6v50h-6z"/><circle r="1" fill="#d2d2c1" fill-opacity=".5" transform="rotate(-118.5 155.8 15.6) scale(32.8395 56.90303)"/><path fill="#652000" fill-opacity=".5" d="M125.8 73.2l-4.2 1L100.3 49l33.5 19.4z"/><circle r="1" fill="#9f512f" fill-opacity=".5" transform="matrix(-2.76244 -.24246 3.50315 -39.91246 139.8 59.4)"/><path fill="#573819" fill-opacity=".5" d="M107.3 88.2l-47.7 17.6 10.8-7 35.4-21.2z"/><circle r="1" fill="#e49a57" fill-opacity=".5" transform="matrix(14.24805 6.46947 -14.34166 31.58536 124.3 158.2)"/><path fill="#f7f9ec" fill-opacity=".5" d="M116.1 75.2l15.4-2-21.3 53.5.2-21.2z"/><path fill="#ffedda" fill-opacity=".5" d="M118 61l23 1-21-7z"/><path fill="#611203" fill-opacity=".5" d="M86.6 64.7l-12-3.1 39.2-10.7 2.9 6.3z"/><ellipse cx="126" cy="9" fill="#fff" fill-opacity=".5" rx="10" ry="27"/><path fill="#4d2d08" fill-opacity=".5" d="M110.5 163.5l-.6 1.9-70.4-22.9.6-1.9z"/><path fill="#dbd7ca" fill-opacity=".5" d="M42 132.3L91 185l-63.9-15.9 60.6-59.9z"/><path fill="#d09668" fill-opacity=".5" d="M40.7 86.3L5.9 117.1l17.7-3 69.3-44.7z"/><path fill="#eef5e9" fill-opacity=".5" d="M89 97l18-9-1 27z"/><path fill="#fcd7c7" fill-opacity=".5" d="M103.5 60.9l34 38.3-21.9-18.3-46.4-3.7z"/><ellipse cx="76" cy="10" fill="#f7f6eb" fill-opacity=".5" rx="33" ry="21"/><path fill="#5e594e" fill-opacity=".5" d="M137.4 1l9 1.1-1.8 14.9-9-1.1z"/><circle r="1" fill="#e4e2d3" fill-opacity=".5" transform="rotate(120.8 82.7 66.2) scale(51.97445 18.86372)"/><path fill="#e6a57b" fill-opacity=".5" d="M67 37h72v13H67z"/><path fill="#d8600b" fill-opacity=".5" d="M11.6 108.8l12.3 31.5-39.8-11.5L6.4 87.9z"/><path fill="#8f8572" fill-opacity=".5" d="M118.6-3.4l41-12.6L110 .8l4.5 25.1z"/><path fill="#efece4" fill-opacity=".5" d="M104 158l-59-29 60 4z"/><path fill="#e3e0d3" fill-opacity=".5" d="M184 159l87-52-85 1z"/><path fill="#b6a78b" fill-opacity=".5" d="M34.2 185L-16 144.1l36.1 15.6-2.1 9.6z"/><circle r="1" fill="#e4b48a" fill-opacity=".5" transform="rotate(44.8 -42.2 244.3) scale(21.3571 25.31898)"/><path fill="#2d2616" fill-opacity=".5" d="M109.7 100.6l1 .2-6.4 52.6-1-.2z"/><path fill="#ebf0e4" fill-opacity=".5" d="M102.3 163l-2 13.8-26.6-3.7 2-14z"/><path fill="#f3d4b3" fill-opacity=".5" d="M75 61l-64 41-4-20z"/><path fill="#594834" fill-opacity=".5" d="M41.9 139.8l-18.5-9 3 37.8-12 .7z"/><path fill="#aa6b47" fill-opacity=".5" d="M66.9 90.7L55.5 78l9.6-8.7L76.5 82z"/><circle r="1" fill="#f6f4eb" fill-opacity=".5" transform="matrix(30.66856 20.2222 -34.61038 52.48939 255.1 43.2)"/><path fill="#aa7450" fill-opacity=".5" d="M119.1 118l1.2-21.4-18 88.4 11.6-29.1z"/><path fill="#fff" fill-opacity=".5" d="M144 46h1v39h-1z"/><ellipse cx="126" cy="85" fill="#edf0e5" fill-opacity=".5" rx="8" ry="10"/><path fill="#fdc2b0" fill-opacity=".5" d="M143 24l-12 28-12 1z"/><path fill="#fbddc4" fill-opacity=".5" d="M139 11h9v16h-9z"/><path fill="#fbdacf" fill-opacity=".5" d="M116 65l-51-1 17 16z"/><path fill="#7f492f" fill-opacity=".5" d="M137 48l7 23-8 19z"/><circle r="1" fill="#af6434" fill-opacity=".5" transform="rotate(-142.8 103.5 42.5) scale(4.52512 40.22211)"/><path fill="#e7f2ee" fill-opacity=".5" d="M110.3 108.4l4 .3-2.6 36.9-4-.3z"/><circle r="1" fill="#d0cabd" fill-opacity=".5" transform="matrix(24.83955 6.49578 -3.50623 13.40764 54.7 162.4)"/><path fill="#4d2a0e" fill-opacity=".5" d="M88 82h18v6H88z"/><ellipse cx="226" cy="163" fill="#c8c1b4" fill-opacity=".5" rx="43" ry="23"/><circle r="1" fill="#e6e2d6" fill-opacity=".5" transform="matrix(32.93536 6.7949 -14.34218 69.5176 188.6 9.3)"/><circle r="1" fill="#f0c192" fill-opacity=".5" transform="matrix(-39.6635 66.76023 -4.40197 -2.6153 127.7 150.1)"/><path fill="#4b5049" fill-opacity=".5" d="M154.1 6.9l.4-1.5-2.7-5.6-4.1 7.3z"/><path fill="#765838" fill-opacity=".5" d="M36.9 129.1l19.3-26.7 9 6.5-19.4 26.7z"/><path fill="#5e210c" fill-opacity=".5" d="M121.2 63l-7.8-12.4-15.2.8 30 21.1z"/><path fill="#74573c" fill-opacity=".5" d="M183.8 138.3l.3-26.3-38.8 66.5 13.1 6.5z"/><path fill="#cfa78f" fill-opacity=".5" d="M55.7 76.5l46-23.7-13-18.6-21.9 48.1z"/><path fill="#cd9d6e" fill-opacity=".5" d="M86.7 34.4L64.6 42l3.6 17.9L110 24.3z"/><path fill="#cd9364" fill-opacity=".5" d="M179.4 94.5L126.1 185l50.2-106.9 10.1 32.2z"/><path fill="#fcefe0" fill-opacity=".5" d="M106.1 31.8l24.1 8.4 5.5-32.3-22.6 12.6z"/><path fill="#f8fcf2" fill-opacity=".5" d="M40 135h17v5H40z"/><path fill="#eae6db" fill-opacity=".5" d="M0 0h72v41H0z"/><circle r="1" fill="#695540" fill-opacity=".5" transform="matrix(1.25814 1.1131 -5.12467 5.79239 147.4 61)"/><path fill="#edebe4" fill-opacity=".5" d="M67 145l35-11 8 23z"/><path fill="#ece8db" fill-opacity=".5" d="M216 42l-23 31-50-6z"/><path fill="#5e3a27" fill-opacity=".5" d="M140 88l-4-16-2 17z"/><path fill="#ea997c" fill-opacity=".5" d="M137 57l-7 19 10-5z"/><path fill="#001123" fill-opacity=".5" d="M19 163h11v5H19z"/><circle r="1" fill="#e1dcce" fill-opacity=".5" transform="matrix(-20.62526 -18.10063 23.84971 -27.17621 0 48.4)"/><path fill="#d89e6d" fill-opacity=".5" d="M144 84l-19 48-7-32z"/><path fill="#c9c4b4" fill-opacity=".5" d="M97.9 130.9l-29.5-22.4 22.3-14.4 11 16.4z"/><circle r="1" fill="#4b3d30" fill-opacity=".5" transform="matrix(-17.62394 -7.1018 .59644 -1.48013 69.9 149.9)"/><circle cx="137" cy="53" r="3" fill="#5d0000" fill-opacity=".5"/><ellipse cx="108" cy="105" fill="#533e26" fill-opacity=".5" rx="2" ry="23"/><circle r="1" fill="#49443f" fill-opacity=".5" transform="matrix(-1.17149 -.5638 2.73721 -5.6875 106.7 162)"/><path fill="#1f232a" fill-opacity=".5" d="M56 140h9v6h-9z"/><circle r="1" fill="#eee9dd" fill-opacity=".5" transform="matrix(.99803 .0628 -3.83652 60.97978 146.8 0)"/><path fill="#bf7b47" fill-opacity=".5" d="M128.7 185l27.5-25.2-22.3-31.3 3 12.2z"/><path fill="#c69b72" fill-opacity=".5" d="M65 77.2l3.4 5L17 116.8l-3.4-5z"/><path fill="#928b7b" fill-opacity=".5" d="M109 10h8v9h-8z"/><path fill="#77593b" fill-opacity=".5" d="M40 129l60-46-31-4z"/><path fill="#d58c2b" fill-opacity=".5" d="M4.8 137.6L-16 173.5V99.2L4.5 76.4z"/><path fill="#e7ae89" fill-opacity=".5" d="M134 36l-13 17-34-18z"/><path fill="none" stroke="#826c52" stroke-opacity=".5" stroke-width=".5" d="M113.5 63.3q-.9 35.2-8.4 90.5"/><path fill="#52331c" fill-opacity=".5" d="M28.8 141.5l4.1 3.4-10.1-19.7-9.4-7.4z"/><path fill="#8b7056" fill-opacity=".5" d="M147.9 28l3.3-14.6 3 .6-3.4 14.6z"/><path fill="#680100" fill-opacity=".5" d="M130 54h11v3h-11z"/><path fill="#f1c1a3" fill-opacity=".5" d="M153.8 53.5l-12.7 2.7-3-13.7 12.8-2.7z"/><circle r="1" fill="#ac967b" fill-opacity=".5" transform="matrix(-1.44492 3.5763 -7.70692 -3.1138 35.5 135.7)"/></g></g></svg>