<svg xmlns="http://www.w3.org/2000/svg" viewBox="0 0 1400 1400"><defs/><filter id="a"><feGaussianBlur stdDeviation="12"/></filter><rect width="100%" height="100%" fill="#434343"/><g filter="url(#a)"><g fill-opacity=".5" transform="translate(2.7 2.7) scale(5.46875)"><circle r="1" fill="#fff" transform="matrix(8.41032 -141.56178 253.14244 15.03943 124.8 115.4)"/><ellipse cx="11" cy="78" fill="#fff" rx="55" ry="167"/><circle r="1" fill="#fff" transform="matrix(-44.99195 2.63904 -12.5704 -214.30785 253.8 82)"/><circle r="1" transform="rotate(-178.8 100.5 111.2) scale(19.41839 66.65313)"/><circle r="1" fill="#0c0c0c" transform="matrix(9.41817 -58.12342 22.72756 3.68272 66.2 249.6)"/><ellipse cx="131" cy="70" fill="#f6f6f6" rx="49" ry="32"/><path fill="#1a1a1a" d="M212 58l-54-43 47 117z"/><path fill="#fff" d="M105.4-58.4l36 43-154.8 129.8-36-43z"/><circle r="1" fill="#fff" transform="rotate(29.7 82.2 397.6) scale(118.04602 28.27559)"/><ellipse cx="138" cy="25" fill="#252525" rx="39" ry="13"/><ellipse cx="131" cy="224" fill="#e3e3e3" rx="45" ry="35"/><path fill="#e1e1e1" d="M9.1 174.4l.8-46 181 3.2-.8 46z"/><path fill="#333" d="M69.2 50.6L153 16.3l-63.8 8.9-29.4 103.2z"/><path fill="#d7d7d7" d="M116 30h24v104h-24z"/><path fill="#eaeaea" d="M0 54h60v166H0z"/><ellipse cx="198" cy="135" fill="#3a3a3a" rx="6" ry="91"/><path fill="#c6c6c6" d="M165 58h23v131h-23z"/><ellipse cx="241" cy="85" fill="#e6e6e6" rx="33" ry="123"/><path fill="#404040" d="M124.5 3.1l74.2 35.4L195 57l-82.3-41z"/><path fill="#3d3d3d" d="M155 178.3l-24.1 13.2-34.3-10.1 13.9-2.5z"/><path fill="#424242" d="M25 264l49-88 25 95z"/><circle cx="100" cy="116" r="7" fill="#090909"/><circle r="1" fill="#f0f0f0" transform="matrix(-4.86844 17.56033 -51.71112 -14.33643 182 6.5)"/><path fill="#373737" d="M152 111h24v11h-24z"/><circle r="1" fill="#f0f0f0" transform="matrix(-73.1747 22.51147 -7.00219 -22.76096 61.4 9.4)"/><path fill="#d5d5d5" d="M68.1 130.3l15.7 3.1 1.8-68.7-17.1 32.9z"/><path fill="#484848" d="M177 208h44v48h-44z"/><path fill="#c8c8c8" d="M160 124l31-36 7 67z"/><circle r="1" fill="#d2d2d2" transform="matrix(-26.96274 20.78733 -7.88258 -10.2243 36.4 218.2)"/><path fill="#252525" d="M149 100h29v4h-29z"/><path fill="#dedede" d="M219 241l47 17-7-160z"/><path fill="#2b2b2b" d="M249.7 254.5l-4.4 12.3-31-11.3 4.4-12.3z"/><path fill="#c8c8c8" d="M163.4 176.8l29.8-6.4-23.5 47.2-67.4-5.8z"/><circle r="1" fill="#cdcdcd" transform="matrix(6.47188 -9.63876 18.25337 12.2561 94.6 189)"/><path fill="#e9e9e9" d="M59 82L90-4-16-2z"/><path fill="#575757" d="M57.4 79.6l78.2-81-48.5 38.1L89 23z"/><ellipse cx="95" cy="99" fill="#353535" rx="15" ry="3"/><path fill="#464646" d="M-16 248.5L90.6 271l3.2-29.7-101.4 1.3z"/><path fill="#e6e6e6" d="M260 136L171-4l100 2z"/><path fill="#dadada" d="M-16 245l80-130-26 121z"/><path fill="#3d3d3d" d="M64 93h3v53h-3z"/><circle r="1" fill="#9c9c9c" transform="matrix(6.32687 -.69565 4.96999 45.20181 215 175.2)"/><path fill="#cecece" d="M201.8 118l61.6 97.3-62.6-75 2.1-6z"/><path fill="#404040" d="M105 107.7l.7 5-22.7 3.6-.7-5z"/><ellipse cx="197" cy="204" fill="#3a3a3a" rx="19" ry="22"/><ellipse cx="120" cy="168" fill="#aeaeae" rx="59" ry="10"/><path fill="#d8d8d8" d="M104 236h62v20h-62z"/><path fill="#5a5a5a" d="M209 155l-22 34 10-59z"/><path fill="#bfbfbf" d="M175 48.7l4.6 5.1 11.3 55.6-82.2-78.7z"/><path fill="#8d8d8d" d="M175.6 269.6l11.1-19.3-5.9-17.9-11.3-28z"/><path fill="#3b3b3b" d="M65 70h4v41h-4z"/><path fill="#616161" d="M141.3 41.6l45.2-12-36.6-21.5-20.7 32.5z"/><ellipse cx="78" cy="219" fill="#2e2e2e" rx="7" ry="29"/><circle r="1" fill="#3a3a3a" transform="rotate(-60.4 99 -117.7) scale(5.51847 34.8314)"/><path fill="#b8b8b8" d="M86 185h90v44H86z"/><path fill="#cacaca" d="M80.8 100.9l82.5-56-55.8-9.2-30.1 31.7z"/><path fill="#ccc" d="M120.6 112.4l-40.7-7.2 5.2-2.5 100.3 5.7z"/><circle r="1" fill="#cfcfcf" transform="matrix(13.27383 -6.2368 8.26 17.5798 91 140)"/><ellipse cx="24" cy="59" fill="#e5e5e5" rx="41" ry="88"/><ellipse cx="128" cy="180" fill="#464646" rx="29" ry="3"/><path fill="#494949" d="M184.2 45.5l2.6 36.2 7.5 22.9 20-25.2z"/><path fill="#d3d3d3" d="M90.6 36l38.5 95.9L158.6 78l7-17.3z"/><path fill="#626262" d="M116 125l-14-18 18 10z"/><path fill="#a1a1a1" d="M68.8 180.5l-3.2 33L43 224.7 64.5 186z"/><path fill="#282828" d="M156 111h8v12h-8z"/><path fill="#2d2d2d" d="M178 220l11-40 3 76z"/><circle r="1" fill="#3f3f3f" transform="matrix(7.8064 -20.7686 4.43784 1.66807 42.3 244)"/><path fill="#838383" d="M224.9 229.7l-4.4 16.7-8.7-30.2 3.1-30.8z"/><path fill="#606060" d="M154.4 106.5l17.3-8-27.7-.7 2.8 8.1z"/><path fill="#eaeaea" d="M194.7-6.2l-54 20-1-8.4-65-21.4z"/><path fill="#3e3e3e" d="M206.4 96.9l-17.2-56.7 1.4 35.7 8 72.8z"/><path fill="#b3b3b3" d="M199 157h3v16h-3z"/><path fill="#4f4f4f" d="M170 113h9v7h-9z"/><ellipse cx="55" cy="156" fill="#d5d5d5" rx="10" ry="42"/><path fill="#b6b6b6" d="M125 22l12 9-4 18z"/><path fill="#575757" d="M207.9 232.9l-23.3-29.4 18.8 66.5 54.4 1z"/><path fill="#464646" d="M3 242h87v14H3z"/><path fill="#c3c3c3" d="M177 96h17v61h-17z"/><path fill="#7a7a7a" d="M96.1 185.3l47.7-2.5 10.1-.8-23.3 10.6z"/><path fill="#565656" d="M73.1 169.5l-15.3 57 8.1 44.5 11.6-73.6z"/><path fill="#c8c8c8" d="M111.3 209.5l60.4-39.2 13 20.2-60.4 39.2z"/><path fill="#d7d7d7" d="M231 184h25v66h-25z"/><path fill="#2f2f2f" d="M196.8 171.7l-6.6-2.4 1.7-13.7 6.1 6.5z"/><path fill="#505050" d="M99 30l-17 2-17 41z"/><path fill="#989898" d="M163.3 44.5l14.9 31.4-3.8-7.1 19.1-2.6z"/><path fill="#8f8f8f" d="M107 265.9l-20.9-46.1.6 16.1L98.8 271z"/><path fill="#e6e6e6" d="M-10.7 90.2L93.8 24.6 117.2-16-.7 150.4z"/><path fill="#646464" d="M214.5 200.9l-9-1 4-36.8 9 1z"/><path fill="#c4c4c4" d="M207 149.6l-1-28.1 7.2-72 5.5 117.4z"/><path fill="#dedede" d="M13.8 229.3L66.4 93.4 45.5 77.9-16 264.4z"/><path fill="#595959" d="M152 112l-5 1-3 13z"/><ellipse cx="126" cy="129" fill="#bfbfbf" rx="60" ry="6"/><ellipse cx="178" cy="173" fill="#b7b7b7" rx="22" ry="2"/><path fill="#767676" d="M207.4 51l-37.8-29.9 50.6 66.7-20.3-23.3z"/><path fill="#5e5e5e" d="M112 107.7l2.4 2-29.2-15.1 22.9 4.7z"/><path fill="#e2e2e2" d="M271 74.6l-65.7-6.2 9.9 12.3-28.2-84z"/><path fill="#989898" d="M155 157l-8-9-17 22z"/><path fill="#545454" d="M95.7 22.9L136 4.2l-10.6 27.2-31.1 2.9z"/><path fill="#959595" d="M200 150l-5-16-5 20z"/><path fill="#dadada" d="M0 232h40v9H0z"/></g></g></svg>