<svg xmlns="http://www.w3.org/2000/svg" viewBox="0 0 1400 1400"><defs/><filter id="a"><feGaussianBlur stdDeviation="12"/></filter><rect width="100%" height="100%" fill="#685742"/><g filter="url(#a)"><g fill-opacity=".5" transform="translate(2.7 2.7) scale(5.46875)"><circle r="1" fill="#dce4e5" transform="matrix(50.48234 150.65182 -63.48507 21.27339 185.1 94.3)"/><circle r="1" fill="#bce2f8" transform="rotate(-179.9 28.6 62.7) scale(92.24947 17.94905)"/><ellipse cx="171" cy="11" fill="#fff" rx="50" ry="19"/><ellipse cx="49" cy="255" fill="#717d72" rx="207" ry="116"/><path fill="#2f0b00" d="M164 19h19v63h-19z"/><path fill="#fff" d="M184-5l26 112 53-3z"/><ellipse cx="98" cy="73" fill="#343120" rx="45" ry="35"/><circle r="1" fill="#8e8d8a" transform="rotate(169.6 23.7 11.9) scale(88.43224 34.21657)"/><ellipse cx="176" cy="78" fill="#0a0200" rx="29" ry="7"/><path fill="#fffcf1" d="M191-16l-38 94-15-82z"/><path fill="#9b6053" d="M288 62.3l-46.6 17.9-35.5-92.5 46.7-17.9z"/><circle r="1" fill="#b0a899" transform="rotate(122.3 31 115.4) scale(24.81249 74.34532)"/><path fill="#3c3126" d="M52 180h87v33H52z"/><path fill="#493522" d="M123 62l60-33-38 5z"/><path fill="#12160e" d="M39 43h51v26H39z"/><path fill="#747a6a" d="M271 249l-287-7 190-64z"/><circle r="1" fill="#091b18" transform="matrix(7.1831 -6.93419 29.5219 30.58161 97 79.6)"/><circle r="1" fill="#bcc1b3" transform="rotate(-23 157.4 -621.5) scale(15.32273 47.51067)"/><path fill="#140900" d="M18 112.5L-9.2 94.1 2 77.5l27.4 18.4z"/><ellipse cx="138" cy="85" fill="#b89571" rx="18" ry="27"/><path fill="#878784" d="M43 40l-3 60-56-39z"/><path fill="#b0b7b9" d="M125 219h25v25h-25z"/><path fill="#8aa4b2" d="M196 110l62 161 9-166z"/><path fill="#0d0906" d="M180 70.5l-5.5-21.6.3 2.7-33.3 45.1z"/><path fill="#878582" d="M41 138l9 109-63-59z"/><path fill="#4a5e47" d="M228.2 258.5l-33.8-12.3 13.4-36.7 33.8 12.3z"/><path fill="#fffff7" d="M145.5 66l5.5-22.3 17.5 4.3-5.5 22.3z"/><path fill="#743a2a" d="M244.4 76.5l-21.3-30.8 5.7-60L271 109.3z"/><ellipse cx="137" cy="125" fill="#899ca5" rx="105" ry="18"/><ellipse cx="175" cy="36" fill="#8f755e" rx="15" ry="17"/><path fill="#1f0e0f" d="M207.5 79.4l-.7 16-8-12.9-51.7-8.4z"/><ellipse cx="189" cy="97" fill="#ded7d6" rx="29" ry="10"/><ellipse cx="77" cy="255" fill="#20492d" rx="107" ry="8"/><ellipse cx="190" cy="73" fill="#e4d3c4" rx="11" ry="4"/><path fill="#87745e" d="M118 28.9l5.5 7.1L58 87.1 52.5 80z"/><path fill="#d2c2b0" d="M139 190.1l-6.9 3.4 46.5-62.1-11.9 61.4z"/><circle r="1" fill="#f8e8de" transform="rotate(62.7 48.7 223.6) scale(32.59824 17.06695)"/><ellipse cx="205" fill="#c5a78e" rx="15" ry="26"/><path fill="#675138" d="M47 144h63v42H47z"/><path fill="#00061c" d="M136 178.4l-49.5 27.2 11.3-11.9 38.6-24.9z"/><path fill="#0e1626" d="M60 194h6v62h-6z"/><path fill="#d3beb1" d="M230.4 219.7l-34.8-69.1-15.6-7.5-2.1 26.3z"/><path d="M41 56l61-12-61 30z"/><path fill="#3e5629" d="M170 166h9v30h-9z"/><path fill="#fff" d="M134 32l21-48 37 25z"/><path fill="#240900" d="M128.9 61.3l-5.1-11.7 21.1 3-5.7 6.7z"/><path fill="#637070" d="M180 118l30 31 10 45z"/><ellipse cy="127" fill="#9eaaac" rx="89" ry="19"/><ellipse cx="91" cy="23" fill="#91877f" rx="27" ry="21"/><circle r="1" fill="#87755c" transform="rotate(44.1 -167.6 212.2) scale(10.41327 37.06378)"/><path fill="#e7d5c6" d="M179 20l47 40-8-64z"/><path fill="#71634e" d="M32 107l68 1-34-48z"/><path fill="#001313" d="M125 106l-29-1-12-42z"/><circle r="1" fill="#f3c94d" transform="rotate(79.6 -43.6 220.6) scale(32.83045 1.39903)"/><path fill="#d9e1e5" d="M174.3 141.1l-.6 30-12-.2.6-30z"/><path fill="#968369" d="M126.3 105.8l7.4 6.9 36.5-26-72.4-39.8z"/><path fill="#ab9172" d="M115 140l45-3 3 71z"/><path fill="#ffffed" d="M144 49h52v2h-52z"/><path fill="#5a4e37" d="M93 200h80v13H93z"/><path fill="#2c2d25" d="M52.5 214.6l1-30 24 .8-1 30z"/><path fill="#949492" d="M122.5 245.7l-19.8 2.4-3.2-25.8 19.8-2.4z"/><path fill="#040103" d="M95.8 202.5h1l-2.6 49h-1z"/><ellipse cx="12" cy="101" fill="#322400" rx="22" ry="8"/><path fill="#fce6d0" d="M163.6 55.8l-17.5 29.1-.9-38.3 20.4-3.5z"/><circle r="1" fill="#cdb9aa" transform="matrix(9.06437 22.10122 -9.32004 3.82243 132.4 20.6)"/><ellipse cx="76" cy="116" fill="#abbdc2" rx="167" ry="4"/><path d="M177 50l-19 32 19-1z"/><path fill="#8a5f43" d="M192 12l2-28 29 1z"/><path d="M139 45h5v11h-5z"/><path fill="#f19169" d="M143.1 67.4l6.1-11.2-9-1.4L129 63z"/><path fill="#fffffa" d="M214.8 49.8L140.3-16l14.2 51.5 24.2-43.8z"/><path fill="#866955" d="M174.1 44.3l17.7 40-15.6-54.5 33.9 55.1z"/><path fill="#4e7565" d="M195.1 285.7l-29 7.8-21.2-79.2 29-7.8z"/><path fill="#a2afb1" d="M219 176l52-8-10 94z"/><ellipse cx="181" cy="129" fill="#889496" rx="78" ry="12"/><path fill="#d3d8dc" d="M162 85h10v23h-10z"/><path d="M99.5 58.8l-8.8 6-17.1 17.8 33.6-21z"/><path fill="#f2e8e0" d="M208 89h48v18h-48z"/><circle r="1" fill="#736d61" transform="matrix(62.51 .67867 -.25498 23.48493 21.4 34.4)"/><path fill="#000703" d="M64.5 198.3L85.1 170l2.4 1.7L66.9 200z"/><path fill="#a8a9a6" d="M156 217h6v20h-6z"/><path fill="#9a8366" d="M175 191h36v21h-36z"/><path fill="#61704c" d="M168 178l9-29 6 59z"/><ellipse cx="94" cy="126" fill="#899293" rx="250" ry="6"/><circle r="1" fill="#9ca0a0" transform="matrix(5.94195 -.54669 1.22107 13.27179 238.9 255)"/><circle r="1" fill="#50524f" transform="rotate(64.8 -48.4 278.5) scale(74.81702 1)"/><ellipse cx="69" cy="135" fill="#a9b7bb" rx="105" ry="4"/><path fill="#0f182a" d="M105 194l36-12-8-10z"/><circle r="1" fill="#ddcfc3" transform="matrix(4.50504 -3.26374 12.47716 17.22265 206.2 66.7)"/><path fill="#84684e" d="M141.2 33.5l37.4 11.8-76.3-2.7 7.1 37.4z"/><path fill="#b2a79e" d="M118 32h50v8h-50z"/><path fill="#3b1f20" d="M186 77l17-1 5 14z"/><circle r="1" fill="#7c422d" transform="matrix(4.97184 7.5623 -2.86752 1.88525 153.1 89.2)"/><circle r="1" fill="#fcf4ed" transform="matrix(-9.63206 -19.21208 6.61188 -3.3149 222.1 68.9)"/><path fill="#85837f" d="M67 216h26v31H67z"/><path fill="#efbe40" d="M178.8 217.7l-5.4-20.3 3.8-1 5.4 20.2z"/><path fill="#776f5a" d="M60.1 192.4l54.4-31.8-38.4 22.3-9.8-10.8z"/><path fill="#8a7255" d="M101.5 202.6l53.3-8.6-.8-8-28.3 1.6z"/><path fill="#fcf6e9" d="M147 47h16v25h-16z"/><path fill="#0b1119" d="M62 211l-5-8 34 1z"/></g></g></svg>