<svg xmlns="http://www.w3.org/2000/svg" viewBox="0 0 1400 933"><defs/><filter id="a"><feGaussianBlur stdDeviation="12"/></filter><rect width="100%" height="100%" fill="#3f2725"/><g filter="url(#a)"><g fill-opacity=".5" transform="translate(2.7 2.7) scale(5.46875)"><circle r="1" fill="#fff" transform="rotate(-26.4 199.3 -146.6) scale(255 118.22154)"/><circle r="1" fill="#fff" transform="matrix(116.35944 -110.42099 42.35124 44.6289 44 62.8)"/><circle r="1" fill="#b43a00" transform="matrix(-23.77948 18.88877 -62.49926 -78.68168 208 103.2)"/><circle r="1" fill="#551700" transform="rotate(-130.3 84.4 30) scale(11.61251 101.69617)"/><circle r="1" fill="#6293e9" transform="matrix(-25.06937 -24.529 33.7985 -34.54307 151.3 145.7)"/><circle r="1" fill="#ffffe4" transform="matrix(-73.7864 21.5386 -18.28496 -62.64017 63.1 35)"/><circle r="1" fill="#952b00" transform="rotate(130.8 100.7 54.4) scale(43.25053 14.35161)"/><circle r="1" fill="#abd3ff" transform="matrix(8.33233 -34.97547 19.6832 4.6892 237.6 37.6)"/><path fill="#2a2b38" d="M65.3 160.9l-31.7 19-15-24.8 31.8-19z"/><circle r="1" fill="#200600" transform="matrix(-16.67029 8.96546 -6.00405 -11.16387 201.4 141.7)"/><circle r="1" fill="#ce753d" transform="rotate(21.1 -186.1 742) scale(21.70608 46.98533)"/><circle r="1" fill="#89b7f6" transform="matrix(-44.52487 14.76772 -6.1789 -18.62946 93.3 169)"/><path fill="#d87942" d="M139 35l-21 93L209-1z"/><path fill="#ffecd9" d="M-16-3l54 63L205 0z"/><path fill="#76b1ff" d="M103.6 80.8l12 10.5-43.2 49.9-12-10.5z"/><ellipse cx="212" cy="91" fill="#933b0d" rx="13" ry="42"/><path fill="#6f84b1" d="M178 125l19 60-77-24z"/><path fill="#6c3300" d="M172.2 21.2l28.7 17.7L257.2-16l-5.1 8.2z"/><path fill="#fa9f79" d="M158 11l35 47 23-10z"/><path fill="#360f00" d="M132 103l47-57 9 20z"/><circle r="1" fill="#bac9fa" transform="matrix(-5.9038 2.14756 -9.02438 -24.80863 230.8 72.9)"/><circle r="1" fill="#462c14" transform="rotate(-110.3 88.5 48.5) scale(7.93033 32.31124)"/><ellipse cx="183" cy="93" fill="#ffa57a" rx="14" ry="11"/><path fill="#ffc8a1" d="M238.7 90.9l25.1 14.5-4.5 7.7-25.1-14.5z"/><circle r="1" fill="#8b4e15" transform="rotate(-39.4 222.3 -97.2) scale(49.64199 11.6787)"/><path fill="#bcddfc" d="M89 149.2l-11.9 33.7 38.3-32.3 17.3 23.3z"/><ellipse cx="35" cy="86" fill="#efdccc" rx="68" ry="37"/><circle r="1" fill="#d5a078" transform="rotate(-33.6 221.9 -156) scale(11.75768 8.8893)"/><path fill="#803808" d="M167 94.2l-12.5-6.7-21.1-9.3 14.7-17.6z"/><path fill="#597dc4" d="M82.5 175.8l-34.8 4.3-2.2-17.9 34.8-4.3z"/><path fill="#4b5e97" d="M238.4 72.1l5.2-58.7 6 .5-5.2 58.7z"/><path fill="#f6e3d5" d="M248 7h8v61h-8z"/><path fill="#746f85" d="M75 140l3-31-56 55z"/><path fill="#9b5029" d="M206 42l-14 83 79 39z"/><path fill="#421f0c" d="M271 185l-89-34 14-28z"/><path fill="#9fbee7" d="M204.7 38.1l30.6 40.5 4-3.1 8.6-85.8z"/><path fill="#ddc9b6" d="M183 153h6v17h-6z"/><path fill="#fdefe1" d="M114.8 31.8L207.9-16l-20.1 35.8L170.4-16z"/><path fill="#730000" d="M263.2 14.5L243-1.8l3.8-4.7L267 9.8z"/><path fill="#839bd1" d="M99 154.3l57.4-64.7 15.8 12.7 25.2 20.4z"/><path fill="#c9734d" d="M189 38h20v68h-20z"/><path fill="#6b8ad3" d="M99.1 107.1l-6.7-7.4L129 66.9l6.7 7.4z"/><path fill="#f3ac93" d="M154 71l-15-33 24 28z"/><ellipse cx="219" cy="42" fill="#e4df84" rx="4" ry="20"/><path fill="#dc8863" d="M164 6l32 6-59 27z"/><path fill="#e3dbc9" d="M7 65.3l.5 50.9 13.7 50-37.2 16.4z"/><path fill="#f9eae0" d="M144.1 21.3L39 63.5l45.5 7.1L146 36.7z"/><path fill="#9fd8ff" d="M85 99l20 3-24 30z"/><path fill="#efcdbb" d="M188.8 31.1l-1.9-2.6-42-18.7L186.4 37z"/><path fill="#1e080d" d="M175 71l12-13-15-15z"/><path fill="#fffadb" d="M106 153l23 21-16-27z"/><path fill="#233e74" d="M-11 185l80-4-34-25z"/><path fill="#423431" d="M100.2 132.7l-12.7 19.8-38.8 12.4 43.7-40.5z"/><path fill="#a54617" d="M223.5 167.9l-11.8-27.1-2.1 13.8 9.6 17.3z"/><path fill="#280e00" d="M250 85l20 2-3-32z"/><path fill="#80501f" d="M40.3 146L81 135l.8 3L41 148.8z"/><circle r="1" fill="#200802" transform="matrix(-8.7298 -14.36806 8.05488 -4.894 200.2 152.6)"/><path fill="#a4390e" d="M176.2 8.7l9.7 5.1-6.1 11.5-9.7-5.1z"/><path fill="#87ccff" d="M84 155l17-13-1 43z"/><path fill="#28100b" d="M48.6 161.6L30 160l-2.4-1.3 30.5-5.9z"/><circle r="1" fill="#688fd4" transform="matrix(17.76775 -13.9895 4.4928 5.7062 72.4 126)"/><path fill="#974925" d="M250 106l-22 26-56-28z"/><path fill="#5e340e" d="M196 43l44-44-14-15z"/><path fill="#b97135" d="M244.7-16h-28l-33.5 35.2 7.8 9.1z"/><path fill="#5d6da6" d="M104 142l17 43h-20z"/><circle r="1" fill="#bd6c48" transform="matrix(16.53537 -38.33896 3.78473 1.63233 145.5 51)"/><path fill="#773a1a" d="M202 94l10-41 17 36z"/><circle r="1" fill="#d9c7b5" transform="rotate(135.8 -5 70) scale(57.14614 12.45936)"/><path fill="#556a91" d="M168.7 169.5l13-35.7 7.6 2.7-13 35.7z"/><path fill="#566f9e" d="M239.2 90.3l2.7-.8 7.9-17.8-9.9-17.7z"/><circle r="1" fill="#0f0408" transform="matrix(-.58917 3.98114 -19.33783 -2.8618 243.3 169)"/><circle r="1" fill="#8f4620" transform="rotate(179.6 121.3 79.3) scale(18.0289 7.41074)"/><circle r="1" fill="#db6e40" transform="matrix(9.57639 .66612 -.6231 8.95797 139.7 64)"/><path fill="#fff" d="M80 99h17v5H80z"/><circle r="1" fill="#7183b6" transform="matrix(-2.33431 5.19409 -42.31763 -19.0183 146.2 159.8)"/><path fill="#95b6fd" d="M228 12h12v67h-12z"/><path fill="#d67c51" d="M208.7 46.1l12-.1-6.3-.2 32.5 76.9z"/><path fill="#874d25" d="M128.3 121.6l-13.5-20.8-14.9.9-4.9 45.7z"/><path fill="#f0b4a9" d="M157.3 55.9l2.8-8.6 8.6 2.8-2.8 8.6z"/><path fill="#efb69f" d="M161 9h11v23h-11z"/><path fill="#ac8963" d="M22.8 152l37.2-7.9 1.2 5.9-37.2 7.9z"/><path fill="#fdf2e7" d="M123 0h14v55h-14z"/><path fill="#ffd7b6" d="M271 118.9l-43-37.8 17.9 21.9 22.6-13.7z"/><path fill="#6a7eac" d="M49 161h33v9H49z"/><path fill="#88a0d6" d="M162.2 94.1l-4.7-5.5-32.2 40.6 50.3-22.3z"/><circle r="1" fill="#a8572e" transform="matrix(-3.30978 20.69582 -29.35057 -4.69389 231.3 119.5)"/><path fill="#b2b4ba" d="M186.4 111.7l11.7 9.7-3.4-3.8-7.1 15.3z"/><path fill="#728ebc" d="M3.3 172.6L22.4 185l-3.3-28.2 13.7 12.7z"/><path fill="#c69b7c" d="M128.7 100.9l.5.4.2-22.8-22 23.1z"/><path fill="#99dcff" d="M84.2 116.2l-13.7-2.9L85.4 102l12 4.4z"/><path fill="#a55133" d="M187.6 45l15.5 20.9-16.6-11.4L150.3 36z"/><path fill="#903701" d="M184 66l-21 17 28-10z"/><ellipse cx="196" cy="70" fill="#db9275" rx="8" ry="7"/><path fill="#381c0f" d="M222.7 185l-30.6-60.6 7-16.8-6.4 36.5z"/><circle r="1" fill="#efe2d3" transform="rotate(-81.2 17.2 -3.3) scale(93.28454 59.05332)"/><path fill="#fffaef" d="M146.3-13.9l1 36.9L171.4-.8l6.3 8.7z"/><path fill="#572a14" d="M161 71.8l5.3 4.2-21.6-5.1 23.2 28.9z"/><path fill="#f5e5c6" d="M208 34l1 13h10z"/><path fill="#f0e2d8" d="M131 62L38 29l40 78z"/><path fill="#9cadda" d="M58.3 139.7l7.2-9.3-23.8 7.3 3.8 4.4z"/></g></g></svg>