<svg xmlns="http://www.w3.org/2000/svg" viewBox="0 0 1400 933"><defs/><filter id="prefix__a"><feGaussianBlur stdDeviation="12"/></filter><rect width="100%" height="100%" fill="#4d3526"/><g filter="url(#prefix__a)"><g transform="translate(2.7 2.7) scale(5.46875)"><circle r="1" fill="#fff" fill-opacity=".5" transform="rotate(76.2 10.3 118.9) scale(152.5585 170.38521)"/><circle r="1" fill="#fff" fill-opacity=".5" transform="rotate(37.2 -28 94) scale(81.39255 205.1911)"/><circle r="1" fill="#c7441d" fill-opacity=".5" transform="matrix(-4.06467 21.30773 -125.08596 -23.86142 209.2 146.5)"/><ellipse cx="30" cy="18" fill="#fff" fill-opacity=".5" rx="66" ry="53"/><path fill="#530000" fill-opacity=".5" d="M168 47h59v28h-59z"/><path fill="#693310" fill-opacity=".5" d="M28 81l27-7 8 81z"/><circle cx="123" cy="68" r="48" fill="#f6b482" fill-opacity=".5"/><circle r="1" fill="#ffccb7" fill-opacity=".5" transform="matrix(6.24545 -51.86208 17.66635 2.12746 245.4 87.2)"/><circle r="1" fill="#ffb07d" fill-opacity=".5" transform="rotate(65.5 108.2 194.4) scale(15.18694 122.33441)"/><ellipse cx="189" cy="6" fill="#763000" fill-opacity=".5" rx="26" ry="14"/><circle r="1" fill="#795f47" fill-opacity=".5" transform="matrix(11.11293 16.1606 -35.14457 24.16736 93.8 137.6)"/><circle r="1" fill="#fff" fill-opacity=".5" transform="matrix(19.8557 33.17647 -126.09069 75.46372 48.2 24.4)"/><path fill="#ffd08e" fill-opacity=".5" d="M87 89l97 43 87-17z"/><circle r="1" fill="#f6989e" fill-opacity=".5" transform="matrix(-63.41542 -7.76372 1.99578 -16.30185 166.8 160.4)"/><path fill="#652100" fill-opacity=".5" d="M222.2 155l-26.2-9.9 22.4-17.3 50.6 25z"/><path fill="#762901" fill-opacity=".5" d="M147 68l70 8 31-47z"/><ellipse cx="4" cy="58" fill="#fff" fill-opacity=".5" rx="16" ry="166"/><path fill="#5c493a" fill-opacity=".5" d="M53.6 65.9l10.9 19.3L48.1 77l71.7-41.5z"/><circle r="1" fill="#ffe8dc" fill-opacity=".5" transform="rotate(-124.8 127.5 -66.6) scale(19.10955 35.29147)"/><path fill="#400000" fill-opacity=".5" d="M108 40h9v13h-9z"/><ellipse cx="137" cy="134" fill="#6a2200" fill-opacity=".5" rx="35" ry="5"/><circle r="1" fill="#f7ffff" fill-opacity=".5" transform="rotate(159.2 38.3 40) scale(25.86604 8.42287)"/><path fill="#979281" fill-opacity=".5" d="M25 116h79v14H25z"/><path fill="#7b4027" fill-opacity=".5" d="M176.6 89.4l27.9-57.5L168.9 66l-.5 38.9z"/><ellipse cx="75" cy="87" fill="#d6a688" fill-opacity=".5" rx="67" ry="8"/><circle r="1" fill="#d37147" fill-opacity=".5" transform="matrix(-53.16798 14.6449 -2.31342 -8.39881 195.6 46)"/><path fill="#5e3927" fill-opacity=".5" d="M49 101.1l7.6 52.7-18.4-71 27.7 18.8z"/><path fill="#fffffe" fill-opacity=".5" d="M67 77l-68 48-1-24z"/><path fill="#e4dfc9" fill-opacity=".5" d="M43.7 182.2l-14-7.5 20.6-38.9 14 7.5z"/><path fill="#d2e3e1" fill-opacity=".5" d="M166 95l-33 8.3-5-20.4 33-8.2z"/><path fill="#2e2515" fill-opacity=".5" d="M224 82l4-23-54-2z"/><path fill="#c4dad9" fill-opacity=".5" d="M192.7 77L180 79.9l2.6 17.3 67.5-11.6z"/><path fill="#ff7591" fill-opacity=".5" d="M271 29l-10 71-36 5z"/><circle r="1" fill="#836343" fill-opacity=".5" transform="matrix(-13.53155 2.65479 -.87904 -4.48051 24.2 84.2)"/><circle r="1" fill="#926c5c" fill-opacity=".5" transform="matrix(.60518 -4.68592 21.68102 2.80006 106.8 79.9)"/><circle r="1" fill="#fff" fill-opacity=".5" transform="matrix(-75.16764 49.75599 -16.59398 -25.06894 40.7 36.1)"/><path fill="#f7efe2" fill-opacity=".5" d="M166.4-16l-3.8 48.7 13.2 18.9-72-50z"/><path fill="#3e4325" fill-opacity=".5" d="M216 108h8v50h-8z"/><path fill="#fff" fill-opacity=".5" d="M262.9 57.9l8.1-38.1-26.2 18.7-10.7 1.6z"/><path fill="#aa521a" fill-opacity=".5" d="M163 35l4-23 22 9z"/><path fill="#f1f8f4" fill-opacity=".5" d="M126 43l-26 24 36 5z"/><circle r="1" fill="#7e5d49" fill-opacity=".5" transform="rotate(-48.6 215.3 -5.6) scale(18.22798 18.97996)"/><path fill="#94311c" fill-opacity=".5" d="M208.4 53.3l-4.6-1.3-80 28 7.7 2.8z"/><path fill="#6e3720" fill-opacity=".5" d="M100.8 151.6l49.9-27.4-40.6 7.1-30.5 28z"/><circle r="1" fill="#a8bfa6" fill-opacity=".5" transform="matrix(-2.71788 -7.98373 25.48958 -8.67736 122.7 149.9)"/><circle r="1" fill="#6d472d" fill-opacity=".5" transform="matrix(-24.73098 17.03563 -4.72197 -6.85499 217 0)"/><ellipse cx="81" cy="114" fill="#bec9c9" fill-opacity=".5" rx="21" ry="13"/><path fill="#ffd0a4" fill-opacity=".5" d="M157 105h99v12h-99z"/><path fill="#a32322" fill-opacity=".5" d="M214.5 185l-13.4-39.6-17.4-10 46.6 38z"/><path fill="#5c3a18" fill-opacity=".5" d="M33 126l-1-14-8 8z"/><path fill="#e39552" fill-opacity=".5" d="M227 124h29v18h-29z"/><circle r="1" fill="#ae5427" fill-opacity=".5" transform="rotate(-171.1 92.2 60.8) scale(34.06965 8.12719)"/><ellipse cx="171" cy="159" fill="#f1888e" fill-opacity=".5" rx="33" ry="18"/><ellipse cx="153" cy="42" fill="#e8b289" fill-opacity=".5" rx="39" ry="10"/><path fill="#ffc69b" fill-opacity=".5" d="M97 21h39v20H97z"/><path fill="#634838" fill-opacity=".5" d="M49 126l2-38-14-10z"/><path fill="#fff" fill-opacity=".5" d="M7 83l-23 19 64 9z"/><path fill="#660b00" fill-opacity=".5" d="M109 42h6v14h-6z"/><path fill="#f9a478" fill-opacity=".5" d="M70 82.6l5.4 4.4L54 113.4l-5.4-4.4z"/><path fill="#e18c57" fill-opacity=".5" d="M139.3 115.7L118 132.3l-17.3-22L122 93.7z"/><path fill="#f7efd3" fill-opacity=".5" d="M-49.5 171.2l45.3-56 63.7 51.6-45.3 56z"/><path fill="#b23c2a" fill-opacity=".5" d="M213.6 55.7l-40.5 5.9 18.3-22.3-6.5-18z"/><path fill="#828563" fill-opacity=".5" d="M212.3 108.6L194.5 97l24.6 1.2 7.9 40.6z"/><path fill="#fff" fill-opacity=".5" d="M0 0h52v77H0z"/><path fill="#846a5d" fill-opacity=".5" d="M107 35L96 54l-16-1z"/><path fill="#fb768d" fill-opacity=".5" d="M258 154l-101 31 114-1z"/><ellipse cx="80" cy="133" fill="#778382" fill-opacity=".5" rx="14" ry="15"/><path fill="#a6502e" fill-opacity=".5" d="M236.1 52.9l10.2-27.3 24.7-.9-51.5 21.8z"/><path fill="#404e44" fill-opacity=".5" d="M190 103l-21-20 1 17z"/><path fill="#d0e2db" fill-opacity=".5" d="M237 75.2l-11-10.3 15-16L252 59z"/><path fill="#563b28" fill-opacity=".5" d="M58.1 83.4l-8.8-9.3 24.9-14.2-15 4.4z"/><circle r="1" fill="#db9f70" fill-opacity=".5" transform="matrix(1.69123 -20.14038 16.02091 1.34531 147.2 54)"/><path fill="#fecebc" fill-opacity=".5" d="M246-2l25 24-73-3z"/><path fill="#774327" fill-opacity=".5" d="M58 116l-12-5 9 33z"/><path fill="#f7d6be" fill-opacity=".5" d="M126.7 48.2L109 97.5l-2-26.3 39-1.9z"/><path fill="#dbcfb2" fill-opacity=".5" d="M46.5 165.7l3.2-44.1-37.6 15.2-4.3-30.6z"/><path fill="#9a5f43" fill-opacity=".5" d="M247.5 48.2l-20.3 11.9-15-61.6 17.3 44.6z"/><path fill="#9f8877" fill-opacity=".5" d="M130 138v41l30-40z"/><path fill="#ecb282" fill-opacity=".5" d="M214.3 15l50.2 7-36.8 19.3.8-15.8z"/><path fill="#453a25" fill-opacity=".5" d="M222 62l7 19-63-16z"/><path fill="#cbc7b4" fill-opacity=".5" d="M105.1 148.1l.5 27.7 22-4.2 7.1-16.7z"/><path fill="#fac29a" fill-opacity=".5" d="M128 97l86 9v30z"/><path fill="#f9fefb" fill-opacity=".5" d="M105 44l10 19-31-2z"/><circle r="1" fill="#d68c55" fill-opacity=".5" transform="rotate(106.2 36.4 123.6) scale(5.43356 53.23043)"/><path fill="#fbc29f" fill-opacity=".5" d="M134.2 97.2l-81.9-3.7-9.6-13.1L127 88z"/><path fill="#f5fcf6" fill-opacity=".5" d="M271 16.2l-1.1 5.1-35.8 23.9 18.6 1.3z"/><path fill="#312b0d" fill-opacity=".5" d="M223 160l-6-35 13 17z"/><path fill="#8b2e1d" fill-opacity=".5" d="M187.3 137.9l32.9 8.5-31.6-.2-35.9-10.5z"/><path fill="#f5e0d2" fill-opacity=".5" d="M180 41l-22-7 27-4z"/><path fill="#8b8073" fill-opacity=".5" d="M85 73l22 7 2-13z"/><path fill="none" stroke="#271a16" stroke-opacity=".5" stroke-width=".5" d="M62 65.1q1.8 2 31-13.7"/><path fill="#bdcec9" fill-opacity=".5" d="M218.7 80l-8.9-3.7-30.2.6.3 19.7z"/><path fill="#eb868e" fill-opacity=".5" d="M242.8 173l-56.4-29.6-37.3 1.1L207 147z"/><path fill="#fff" fill-opacity=".5" d="M102.2 16.7l33.5 6.7-1.2-39.4L-15.9 8.7z"/><path fill="#ad5b36" fill-opacity=".5" d="M112.5 79.8l4.3 8.8L133.9 75l-4.2 1z"/><path fill="#783317" fill-opacity=".5" d="M104.7 39.4l7.7-2.4 2.9 9.6-7.7 2.4z"/><path fill="#bb323c" fill-opacity=".5" d="M201.2 161.7l39.9 14.1-52 9.2 65.7-32.7z"/><path fill="#f3ffff" fill-opacity=".5" d="M131 50l-15-6 6 23z"/><path fill="#bbbeb3" fill-opacity=".5" d="M160.9 101l12.6-36.8-33.1 20.6 12 17.1z"/><path fill="#f2e0d2" fill-opacity=".5" d="M202 29l8-14-23 10z"/></g></g></svg>