<svg xmlns="http://www.w3.org/2000/svg" viewBox="0 0 1400 933"><defs/><filter id="a"><feGaussianBlur stdDeviation="12"/></filter><rect width="100%" height="100%" fill="#3d435c"/><g filter="url(#a)"><g fill-opacity=".5" transform="translate(2.7 2.7) scale(5.46875)"><circle r="1" fill="#fff" transform="matrix(43.03372 64.283 -199.30828 133.42527 94 24)"/><circle cx="48" cy="7" r="108" fill="#ffffd6"/><ellipse cx="220" cy="92" fill="#b85c21" rx="111" ry="55"/><path fill="#fdb" d="M123-16l148 134-105-45z"/><circle r="1" fill="#97cbed" transform="rotate(-88.8 121 20.4) scale(57.59728 11.08936)"/><path fill="#ffe0c8" d="M5-3l236-13-257 193z"/><circle r="1" fill="#561600" transform="matrix(14.12612 -23.20174 83.79584 51.01815 199.8 133.9)"/><circle r="1" fill="#395a82" transform="matrix(63.36347 22.3138 -6.44486 18.30116 236.9 56.7)"/><circle r="1" fill="#130a04" transform="rotate(79.6 -21.6 146.7) scale(30.5776 17.77832)"/><path fill="#947762" d="M196.3 18.4L213.7 39l-46 38.5L150.3 57z"/><ellipse cx="194" cy="1" fill="#ffe9cd" rx="39" ry="23"/><path fill="#465b7f" d="M90 151l-63-5 52-36z"/><path fill="#ffc194" d="M204.1 102.3l-25-41 25.2-2.5 37.7 35z"/><path fill="#c56530" d="M178.9 69l89.2 53.4-79.2-20L153.5 70z"/><path fill="#02010c" d="M114 87l6 31-15-29z"/><circle r="1" fill="#2e4165" transform="matrix(20.47347 -14.1145 21.96177 31.85613 244.6 62.2)"/><path fill="#847f81" d="M134 64l66-10 46-51z"/><path fill="#100" d="M129 86h43v11h-43z"/><path fill="#bf6c4b" d="M146 97h15v28h-15z"/><path fill="#e38356" d="M113.3 91.3l-5.7 1.9 21.9-1.9-3.9 28.8z"/><circle r="1" fill="#3a1300" transform="rotate(-178 125.5 75.6) scale(39.16045 13.87849)"/><circle r="1" fill="#a55934" transform="matrix(-3.74835 -12.81836 13.57007 -3.96817 205.5 136)"/><path fill="#e7d6c5" d="M223.1 40.4l-.3-2.1-13.8-.9-25.9-34z"/><path fill="#1d0200" d="M118 83l3-12 17 24z"/><ellipse cx="176" fill="#574330" rx="2" ry="25"/><path fill="#d0582b" d="M123 58h21v7h-21z"/><ellipse cx="140" cy="19" fill="#f0e5dc" rx="34" ry="33"/><circle r="1" fill="#ddcbb7" transform="rotate(-20.6 192.5 -3) scale(48.67471 74.70208)"/><path fill="#3f1500" d="M189.3 131.8l9.3-24.6-59.5 4.1-13.8-22z"/><path fill="#617193" d="M60 137l-68 48 27-38z"/><path fill="#f7d5bb" d="M192.6 71.8L205 60.2l20.4 22L213 93.8z"/><ellipse cx="114" cy="123" rx="4" ry="24"/><ellipse cx="155" cy="79" fill="#983b15" rx="31" ry="6"/><path fill="#6f7387" d="M112.1 84.8l-11.8 9.4 3.7 18.7 17.7-33.5z"/><path fill="#c7ecff" d="M68 105l18 10 23-15z"/><path fill="#414e6f" d="M188 55l56 14-21-36z"/><path fill="#3f4c65" d="M223 176l-100 9 19-57z"/><path fill="#6a3410" d="M221.3 114.8l52.9 11.2-7.5 35.2-52.9-11.2z"/><path fill="#88b4d4" d="M101.8 121.4L84.6 185l6.6-76.6-3.1 20z"/><path fill="#da824e" d="M195.4 57.2l-8.3-1.5-63.6 20.8 45-.3z"/><path fill="#4c6680" d="M97.4 162.5l-38.3 4.3 57.1 14-11.6-52.1z"/><path fill="#948477" d="M217 37l-77 30 51-47z"/><path fill="#fccaa6" d="M113.8 63.2l16.7 12.7 1-5.1 36.2-4.1z"/><path fill="#281008" d="M170 139l-57-31 8 20z"/><path fill="#313444" d="M242 3h14v91h-14z"/><path fill="#bc693f" d="M218.7 116.7l46.8-.5-39.8-22.8-15.6 21.8z"/><path fill="#2c1000" d="M160.1 138.2l-25.8-11.4 136.7 47-80-15.6z"/><path fill="#294467" d="M224.5 180.9l-36.3-7 3.3-16.8 36.3 7z"/><path fill="#67779c" d="M34.9 152.5l47.8-51-6.9 9.6 15.5 6.9z"/><ellipse cx="93" cy="42" fill="#e8ddcf" rx="33" ry="51"/><path fill="#341505" d="M175.4 119.5l-2.8-8.5 3.2-12.2 32.7 24z"/><path fill="#7d7571" d="M173.5 66.3l8-19-11.4-10.1-14.7 26.7z"/><path fill="#28364a" d="M27.4 176.4l-2.6-24.8 37.8-4 2.6 24.8z"/><circle cx="157" cy="102" r="4" fill="#eaa282"/><path fill="#ebd8c7" d="M205 29l45-41-78 5z"/><path fill="#b8b0a5" d="M111 99l-8-4 6 22z"/><path fill="#6b3014" d="M179.2 127.1L151.3 78 185 88.8l-37.2 23.6z"/><path fill="#9b5b3c" d="M173.4 126.3l-59.1-15.7 9.2-45.9L109 94.8z"/><circle r="1" fill="#ad9381" transform="matrix(-15.73273 10.14575 -1.37482 -2.13189 239.1 4.2)"/><path fill="#dbc9b3" d="M-16 37.8l3.8 114.8 18.9 10.7 50.2-48.5z"/><path fill="#111116" d="M112 95l16 46-13 44z"/><path fill="#edc09d" d="M221 72l-33-18 12 32z"/><circle r="1" fill="#e98e5e" transform="matrix(4.35955 -.05087 .04772 4.08947 123.4 106.4)"/><path fill="#ce855f" d="M122.9 109.2l5.9-4.6-14-13.5 17.2 1.4z"/><ellipse cx="130" cy="147" fill="#2e3342" rx="10" ry="23"/><path fill="#300900" d="M131 85h8v31h-8z"/><path fill="#484e67" d="M238 11l18 65-45-51z"/><path fill="#3e4a65" d="M271 117l-50.8-43.2 38.1 5.7 12.7 77.2z"/><path fill="#e4d7c9" d="M117.1 82.3L34.7 15.9l25.8 106.6 52.1-37.4z"/><path fill="#232631" d="M271 28l-31-2 17-42z"/><circle r="1" fill="#eaa27a" transform="rotate(-141.3 146.4 9.4) scale(26.49469 3.77641)"/><path fill="#824725" d="M215 102l34 34-79-44z"/><path fill="#4c586b" d="M98 95l29-7-9-7z"/><path fill="#5e220b" d="M135.6 99.7l-33.3-2.5 24.3 6.6 40.6 16.3z"/><path fill="#3b455b" d="M75.7 121.1l3.6 40.8-11 1-3.6-40.8z"/><path fill="#be6339" d="M143.5 70.3l4.8-21.2-17.9 30.8 26-1.2z"/><path fill="#a38666" d="M107 135h3v21h-3z"/><path fill="#617290" d="M25.7 185l-15.3-19.4-14.7 3.9 20.5-17.9z"/><path fill="#c4def2" d="M80.7 101.8l8.7 19.3 14.2-26-22 3.9z"/><path fill="#525d7c" d="M184.6 154.7L164.2 182l-8.8-6.6 20.4-27.2z"/><path fill="#48506b" d="M238 25l-43 28 39 25z"/><path fill="#f6b587" d="M148.1 58.7l9-8.3-15.2-2.3L120.2 59z"/><path fill="#6a3313" d="M201 154l-22-13 48 3z"/><circle cx="128" cy="69" r="6" fill="#ffddc3"/><path fill="#2b0f02" d="M219 162.8l4.5-11.2 43.5 17.6-4.5 11.2z"/><path fill="#8a4729" d="M165.3 95.6l5.2 12.7-22.5 18.5 23 6.7z"/><path fill="#cab69f" d="M13.7 155.2l-17.4 9.7-12.3-35.3 50.9 10.8z"/><path fill="#7082a6" d="M70.5 130.5l-29.3 20.6.2-16.3 26.6-5.3z"/><circle r="1" fill="#d2bca7" transform="rotate(42.1 .9 14) scale(8.71059 74.22354)"/><path fill="#467099" d="M102 103h5v67h-5z"/><path fill="#eee1d5" d="M178.6-16l-43.8 71.7L189.2 22l-16.4 3.7z"/><path fill="#db8f5e" d="M179 65l14 27 12-12z"/><path fill="#95867d" d="M141 64l73-30-24-14z"/><path fill="#6292bf" d="M104 150l-3-34-13 53z"/><path fill="#0f0000" d="M126 88l22-1 17 10z"/><path fill="#975130" d="M183.2 130.5l-13.7 6 45.2-14-6 22.9z"/><path fill="#eecbb2" d="M215.3 69.4l-23.8-12.2 45.7 31.6-35.7-6z"/><circle cx="121" cy="94" r="5" fill="#e39d75"/><path fill="#566574" d="M92.6 139.2l16.8 8.8 6.6 27.2-10.9-14.4z"/><path fill="#eaa475" d="M203.5 67.2l-66.8 4.6-.2-3 66.8-4.6z"/></g></g></svg>