<svg xmlns="http://www.w3.org/2000/svg" viewBox="0 0 1400 933"><defs/><filter id="a"><feGaussianBlur stdDeviation="12"/></filter><rect width="100%" height="100%" fill="#2d251f"/><g filter="url(#a)"><g fill-opacity=".5" transform="translate(2.7 2.7) scale(5.46875)"><circle r="1" fill="#ffffec" transform="matrix(-27.65632 111.754 -247.5327 -61.25815 101.8 98.3)"/><circle r="1" fill="#fff" transform="rotate(138 33.7 13) scale(228.81269 44.68595)"/><circle cx="108" cy="66" r="38" fill="#513823"/><circle r="1" transform="rotate(51.2 116.5 243.4) scale(21.24304 51.77206)"/><circle cx="217" cy="89" r="56" fill="#f1824e"/><circle r="1" fill="#2a2722" transform="matrix(-54.95234 35.3073 -16.532 -25.73043 213.4 169)"/><circle r="1" fill="#d0cab5" transform="matrix(-53.10512 -58.26101 54.93369 -50.07225 32.5 141.2)"/><circle r="1" fill="#e4ad90" transform="matrix(-63.3708 23.16237 -9.55406 -26.1393 224.4 59.5)"/><path fill="#ece4d3" d="M-9 94L172-11-16-6z"/><path d="M237 19L193 3l1 38z"/><path fill="#441e11" d="M224.9 184.3l-65-86.4 4.9 18.2 36.9 68.9z"/><path fill="#460000" d="M235.7 48.1l21.9 12.1-5.3 9.7-21.9-12.1z"/><circle r="1" fill="#c3967f" transform="matrix(19.36457 7.27717 -25.2695 67.24227 165.5 46.7)"/><circle r="1" fill="#4b342b" transform="matrix(-25.01376 14.35847 -6.44016 -11.21935 118.3 46.9)"/><circle r="1" fill="#b1663c" transform="matrix(40.58864 -3.04124 1.47487 19.68373 214 122.4)"/><circle r="1" fill="#796c53" transform="matrix(-.66218 -11.32635 19.54838 -1.14288 46.7 96.4)"/><circle r="1" fill="#655b4a" transform="matrix(-31.41238 4.02371 -2.92514 -22.83604 93.1 61)"/><circle r="1" fill="#827b69" transform="matrix(-21.5576 5.90979 -8.75147 -31.92341 120.2 99.7)"/><path fill="#f9f5ec" d="M-18.1 78.7L55 49l9 22.2L-9 101z"/><path fill="#303831" d="M127 163h114v7H127z"/><path fill="#b9c0c5" d="M140.4 133.2l16.8 34.4 7.8-19L152.9 92z"/><path fill="#ffdbc9" d="M146.4 40.9l28 15.5-4.8 8.7-28-15.5z"/><circle r="1" fill="#a36346" transform="matrix(-16.01507 -18.29387 10.01252 -8.7653 150 73.6)"/><ellipse cx="157" cy="9" fill="#b8baaa" rx="36" ry="23"/><path fill="#664834" d="M143 29l-38 9 79 5z"/><circle r="1" fill="#ffbea6" transform="rotate(-60 156.1 -197.9) scale(8.44781 16.68672)"/><path fill="#70898b" d="M254 135l-51 19 68 13z"/><path fill="#c3bdaf" d="M125 84l15-3-38-23z"/><ellipse cx="227" cy="11" fill="#0e0600" rx="31" ry="18"/><circle r="1" fill="#ddd9cb" transform="rotate(165.3 -1 85.8) scale(11.30933 34.08265)"/><path fill="#806e49" d="M13 116.8L.7 108.2l6.3-9 12.3 8.6z"/><path fill="#36190f" d="M141 75l-37-18 29 2z"/><path d="M202.5 155.7l5.4 20.2-16.4 4.4-5.4-20.2z"/><path fill="#efd7d4" d="M217 31l-12 16-18-3z"/><path fill="#786a56" d="M125.7 148L90.9 86.3l72.7.8-22.6 7.6z"/><path fill="#8e9291" d="M193.4 154.9L158.6 173l13.8-22-79.6-94.7z"/><path fill="#bc937b" d="M136.8 84.5l9.4-46.7-22.6 20.1 55.8 14.2z"/><circle r="1" fill="#ded9ca" transform="matrix(20.26708 -13.52667 5.6625 8.48415 124.1 12.6)"/><path fill="#4c372c" d="M127.5 57.3L110.2 56l18.4 20 22.2-7.9z"/><path fill="#ece9df" d="M49.1 92.3L23.5 70.5-16 104.9l73.6-29.5z"/><circle r="1" fill="#e4b08c" transform="matrix(-3.34418 10.33858 -72.20372 -23.35548 218.7 74.9)"/><circle r="1" fill="#a5a193" transform="matrix(28.26281 -15.65812 24.99666 45.1188 98 169)"/><circle r="1" fill="#a5afb3" transform="rotate(28.8 -136.5 340.7) scale(12.6931 15.09528)"/><ellipse cx="185" cy="19" fill="#90907d" rx="8" ry="30"/><circle r="1" fill="#5d4d43" transform="matrix(28.3519 -9.08691 4.85563 15.14996 108.4 45)"/><path fill="#3e2017" d="M156 64l-15-5 2-7z"/><circle r="1" fill="#e5b4a4" transform="rotate(-28.9 200.2 -441.5) scale(22.70655 8.02884)"/><path fill="#6a5c41" d="M38 85l-3 9 31 13z"/><path fill="#f1efe4" d="M134.5-2.9L63.6 35.2 39 62.2 19.1 86.6z"/><path fill="#171007" d="M210-16l-21 58 59-29z"/><path fill="#b4734f" d="M163 98l26 49 82-31z"/><circle r="1" fill="#d4ccc1" transform="matrix(15.96679 19.43828 -116.26008 95.49711 19.3 37.8)"/><path fill="#797364" d="M125.1 162.1l-.8-30.2 18.2 34.8 7.7 18.3z"/><path fill="#510800" d="M239.8 57.2l30 11-1.6 4.6-30-11z"/><path fill="#ca9073" d="M203.9 57.1l-41.8 17.6 76.7-49.3 12.2.6z"/><path fill="#b26f5f" d="M242.9 46L271 65.1l-14.3-4.2-25.6-7.4z"/><path fill="#633926" d="M201.3 154l-24.2-11.2 17.7 1.2 67.3-14.1z"/><ellipse cx="234" cy="90" fill="#da9e74" rx="71" ry="15"/><circle r="1" fill="#95917f" transform="matrix(-5.78012 22.80486 -4.8798 -1.23683 58.6 110.2)"/><path fill="#b1a8a3" d="M123.9 56.7l-18.2-8.5.4-.9 18.2 8.5z"/><ellipse cx="100" cy="56" fill="#3a271a" rx="19" ry="4"/><circle r="1" fill="#807862" transform="matrix(4.97215 -5.84459 21.73486 18.49042 107.9 75.9)"/><path fill="#6e6d6f" d="M167.8 131.2l-13.6-46.4 23.7 62.5-12.2 8z"/><path fill="#5b564b" d="M182.4 164.8L149.3 185l1.2-42.7-11.7 27.6z"/><path fill="#955f38" d="M187 45l-34-14 15 17z"/><circle r="1" fill="#665b45" transform="rotate(-145.8 53 23.6) scale(30.25526 7.84168)"/><path fill="#6c3221" d="M169 127.4l16.1 14.7-24.7-39.1 14.5 6.9z"/><path fill="#968668" d="M-13 128l32-12 14-21z"/><path fill="#7f7668" d="M93.1 52.1l-28.3 4.1 23.3-21.1L110.5 52z"/><ellipse cx="255" cy="11" rx="14" ry="15"/><path fill="#aa6341" d="M132.9 88.7l29.3-10.8 21.1 6.6-47.2 11.2z"/><path fill="#6c7c7c" d="M185.5 149.3l12.7 2.5-1.7 8.9-12.7-2.5z"/><path fill="#b5b6b3" d="M154 124l-29 22 40-3z"/><path fill="#eec5bc" d="M147.8 41.7l3.5 19.3 42.7-7.3-20 8.2z"/><path fill="#9d8b78" d="M160-16l-31 41 31-16z"/><path fill="#afafa3" d="M149 8.7l40.5 14.7-6.5 17.9-40.5-14.7z"/><path fill="#b9cbd0" d="M129.8 55.2l.5-.8 16 10.4-.6.8z"/><path fill="#c0bba9" d="M62 96l-17 32-45 4z"/><path fill="#485958" d="M238 185l-40-34 48 6z"/><path fill="#f6f2e8" d="M-25 110.3l46-41.5 8 9-46 41.4z"/><path fill="#d5d1c3" d="M18.7 101l49.5-53.6-17.1 34.5L21.4 79z"/><path fill="#532c1e" d="M135 91l3 5 10-6z"/><path fill="#28271c" d="M193 0h3v31h-3z"/><path fill="#7a7564" d="M127.5 139.3l4-54.3-39.1 18.7 57.2 22.5z"/><path fill="#b8bab9" d="M136 154h39v5h-39z"/><path fill="#837a6b" d="M198 3l-3 11-16 6z"/><path fill="#b27756" d="M234.5 58.4l-29.6-10.1 7.1-4.4-9.4 12.4z"/><path fill="#c68868" d="M158.1 84.9l5.1-24.8-40 30.8 12.8-2.5z"/><path fill="#a19a8b" d="M175 0h18v38h-18z"/><path fill="#998c72" d="M3 155l-19 6 22-37z"/><path fill="#f5d8d9" d="M225.2 33.1l-15.8 10.6-.6-.8 15.8-10.6z"/><circle r="1" fill="#c17f5b" transform="rotate(-45 230.9 -170.3) scale(16.19129 12.82223)"/><circle r="1" fill="#aaa798" transform="matrix(-9.42378 4.89951 -14.99064 -28.83316 99.5 124.6)"/><path fill="#d7d7cf" d="M153.3 18.6l-2.8 1.2-7.8-18.4 2.8-1.2z"/><path fill="#c9c8bf" d="M83 110l-2 16-16-2 2-16z"/><path fill="#bcbebc" d="M167.8 166.6l-3.2-2.4 9.6-12.8 3.2 2.4z"/><path fill="#837d6b" d="M61 115L49 83l15 7z"/><path fill="#7e7765" d="M88.3 45.4l-18.7 59.8 9.7-13.6-4.6-13.1z"/><path fill="#b1b3b0" d="M141.9 95.3l15-5.5-.7 58.7-10.4-40.7z"/><path fill="#b4ab94" d="M21.7 86.1l-11 12.3 49 4.8-45.3 20.6z"/></g></g></svg>