<svg xmlns="http://www.w3.org/2000/svg" viewBox="0 0 1400 934"><defs/><filter id="prefix__a"><feGaussianBlur stdDeviation="12"/></filter><rect width="100%" height="100%" fill="#282949"/><g filter="url(#prefix__a)"><g transform="translate(2.7 2.7) scale(5.46875)"><circle r="1" fill="#fff" fill-opacity=".5" transform="matrix(79.41087 0 0 248.0188 52.4 80)"/><circle r="1" fill="#ffffd0" fill-opacity=".5" transform="matrix(17.83465 -254.18922 79.71078 5.59274 48.7 129.9)"/><ellipse cx="207" cy="82" fill="#5a5b5c" fill-opacity=".5" rx="79" ry="169"/><path fill="#0e1400" fill-opacity=".5" d="M88.6 55.7l21.1-15.2-26.1 53-13.3-15z"/><ellipse cx="129" cy="169" fill="#fff" fill-opacity=".5" rx="158" ry="2"/><path fill="#fffbda" fill-opacity=".5" d="M160 91l-2-30-17 30z"/><path fill="#fff" fill-opacity=".5" d="M120 0h9v170h-9z"/><ellipse cx="255" cy="65" fill="#fff" fill-opacity=".5" rx="1" ry="109"/><ellipse cx="140" fill="#fff" fill-opacity=".5" rx="171" ry="2"/><circle r="1" fill="#302900" fill-opacity=".5" transform="matrix(-9.91346 11.01002 -3.58945 -3.23195 108.7 19.6)"/><path fill="#594e00" fill-opacity=".5" d="M39 120l3 43 11-6z"/><path fill="#f2d9a7" fill-opacity=".5" d="M226 21l-6 24 34-35z"/><circle r="1" fill="#3d4700" fill-opacity=".5" transform="rotate(72.6 -20 103.9) scale(17.93407 5.86022)"/><path fill="#fbe9d4" fill-opacity=".5" d="M17 136l146.8 38.7 15.8-36.4-45 46.7z"/><path fill="#ffedb7" fill-opacity=".5" d="M243.4 77.5l-4 24.7-10.8-1.7 4-24.7z"/><path fill="#ffff7b" fill-opacity=".5" d="M192.6 59.3l18 10.8-5.2 8.6-18-10.8z"/><circle r="1" fill="#1c1e36" fill-opacity=".5" transform="matrix(13.4857 -40.30453 27.15061 9.08447 207.1 122.7)"/><path fill="#0b0f29" fill-opacity=".5" d="M129 95h23v72h-23z"/><path fill="#494b15" fill-opacity=".5" d="M40.1 25.5l.9 19.7-13.4-11.1 45.3-7.9z"/><circle r="1" fill="#f5e9d0" fill-opacity=".5" transform="matrix(57.30911 -59.55298 10.77518 10.36919 56.8 55.7)"/><path fill="#1c3200" fill-opacity=".5" d="M20.7 118.9l.4-9.2-8.2 6.9.1 14.7z"/><path fill="#f0d696" fill-opacity=".5" d="M235.7 152.6l-13.2 2.7-4.4-2.5 19.1-17.3z"/><circle r="1" fill="#353500" fill-opacity=".5" transform="matrix(-7.24824 5.05767 -2.7354 -3.92016 67.3 125)"/><path fill="#d9c788" fill-opacity=".5" d="M209.6 101.6l-8.8 24.2h10.8l3.7-2.7z"/><path fill="#f6e9d7" fill-opacity=".5" d="M109.9 34.9L139.7 67l-4.9-16.7L69 46.1z"/><path fill="#fff7d6" fill-opacity=".5" d="M168 39l10-4 5 13z"/><path fill="#f6ecd8" fill-opacity=".5" d="M102.8 55.9l27.9 21-17.5 23.2-27.9-21z"/><path fill="#787a31" fill-opacity=".5" d="M8.2 84.9L2.1 71.2l13.7-6.1 6.1 13.7z"/><path fill="#e4cc89" fill-opacity=".5" d="M189 88l-23 17 15-2z"/><path fill="#fbfeff" fill-opacity=".5" d="M254 6h2v164h-2z"/><path fill="#010" fill-opacity=".5" d="M85 78l19-31-20 13z"/><circle cx="36" cy="97" r="4" fill="#0e0000" fill-opacity=".5"/><path fill="#272a00" fill-opacity=".5" d="M54 38l-3-15 10 4z"/><path fill="#0d1038" fill-opacity=".5" d="M129 61h12v46h-12z"/><path fill="#1a1e48" fill-opacity=".5" d="M160.4 28l36.7 48.7L171.6 96l-36.7-48.7z"/><path fill="#f6edd7" fill-opacity=".5" d="M96.1 185l-70.9-75.7 56.3-17.5-39.6 49.3z"/><path fill="#0f1335" fill-opacity=".5" d="M252 91l3 77-26-47z"/><circle r="1" fill="#594533" fill-opacity=".5" transform="matrix(8.70961 6.37317 -1.44636 1.9766 21.2 12.7)"/><ellipse cx="13" cy="164" fill="#faf2e3" fill-opacity=".5" rx="31" ry="18"/><ellipse cx="209" cy="160" fill="#0b0b2f" fill-opacity=".5" rx="41" ry="8"/><path fill="#7c852e" fill-opacity=".5" d="M143.4 94.7l38.9 49.7h-24.6l-2.4-22.7z"/><ellipse cx="100" cy="150" fill="#eadecf" fill-opacity=".5" rx="30" ry="44"/><path fill="#f8ecd6" fill-opacity=".5" d="M73.9 17.2L123.2-16H41.4L19.3 36.2z"/><path fill="#fffaa2" fill-opacity=".5" d="M161 28l-3-4 11-10z"/><path fill="none" stroke="#fff" stroke-opacity=".5" stroke-width=".5" d="M126 2.2q15.3-5.4 55.8-1.1"/><path fill="#152300" fill-opacity=".5" d="M34.1 46l-4.2-2.7 6-9.3 4.2 2.7z"/><ellipse cx="149" cy="169" fill="#fff" fill-opacity=".5" rx="152" ry="1"/><ellipse cx="156" cy="72" fill="#ffe2c6" fill-opacity=".5" rx="2" ry="18"/><path fill="#f9f0da" fill-opacity=".5" d="M34.2 50.5l-41.4 27-8.8-56.9 43 13.5z"/><path fill="#092e00" fill-opacity=".5" d="M95 116.3l-10.6-17 2.6-1.6 10.6 17z"/><ellipse cx="127" cy="134" fill="#fff" fill-opacity=".5" rx="2" ry="161"/><path fill="#1b204e" fill-opacity=".5" d="M195 114l59-54-19-35z"/><path fill="#6e6414" fill-opacity=".5" d="M6.3 27.5l8.4 3.7-.2-2.9-4.5-9.6z"/><path fill="#e4dcc6" fill-opacity=".5" d="M88 97l36-96v131z"/><path fill="#c8b763" fill-opacity=".5" d="M193 53l16 35 2-20z"/><circle r="1" fill="#20254c" fill-opacity=".5" transform="matrix(-26.90772 2.63401 -1.99687 -20.39905 196 21.7)"/><path fill="#2c2000" fill-opacity=".5" d="M53 164l-12-8 9-2z"/><path fill="#ede6d2" fill-opacity=".5" d="M-16 76l71-4 36 35z"/><path fill="#725343" fill-opacity=".5" d="M11 83l16-26v11z"/><path fill="#5a4a36" fill-opacity=".5" d="M103 33l8-19-22 20z"/><path fill="#ffcbb4" fill-opacity=".5" d="M155 78.5l-10.1 15-5.8-4 10-15z"/><path fill="#131736" fill-opacity=".5" d="M180.4 133l-8.4 3-16.4-45 8.4-3z"/><path fill="#052200" fill-opacity=".5" d="M37.8 137.2l-.6-10 7-.4.6 10z"/><path fill="#1a1f48" fill-opacity=".5" d="M192 2h61v13h-61z"/><path fill="#87706d" fill-opacity=".5" d="M24 150L3 114l4 21z"/><path fill="#545a28" fill-opacity=".5" d="M90.3 111.6L77.6 87.5l19 8.3-16-28z"/><path fill="#bfb3a9" fill-opacity=".5" d="M153.5 54.1L164.1 73l-5.6-1.2-5.5-14.6z"/><path fill="#e5deca" fill-opacity=".5" d="M54.7 35.2L31.6 2.6l33.8 89.2 37.3-105z"/><path fill="#fff7dd" fill-opacity=".5" d="M206 104h3v16h-3z"/><ellipse cx="238" cy="18" fill="#ffdbd9" fill-opacity=".5" rx="7" ry="4"/><circle r="1" fill="#fae850" fill-opacity=".5" transform="matrix(.75083 .6605 -5.10057 5.7982 148.5 18.1)"/><path fill="#f1e9d7" fill-opacity=".5" d="M17 156l5-47.8 17 1.8-5 47.8z"/><ellipse cx="40" cy="169" fill="#fff" fill-opacity=".5" rx="118" ry="3"/><path fill="#232849" fill-opacity=".5" d="M139.5 65l3.6 32.6-5.8-21.5 36.3-1.1z"/><ellipse cx="138" fill="#fff" fill-opacity=".5" rx="155" ry="1"/><path fill="#25294c" fill-opacity=".5" d="M244 32h11v117h-11z"/><circle r="1" fill="#242b31" fill-opacity=".5" transform="rotate(-82.4 159.2 -9.8) scale(14.14764 18.7489)"/><path fill="#212240" fill-opacity=".5" d="M177.5 155.8L159.6 169l52.9-6.9-19.2-91.2z"/><path fill="#9ea245" fill-opacity=".5" d="M227.2 42.6l-4-16.3-9.9 18.4 5.1 1.6z"/><ellipse cx="176" cy="141" fill="#ffd1c8" fill-opacity=".5" rx="3" ry="5"/><circle r="1" fill="#2c342e" fill-opacity=".5" transform="rotate(-135.7 56 19.3) scale(2.83496 17.83042)"/><path fill="#fcf4df" fill-opacity=".5" d="M-21.3 27l40.8-65.2 17.8 11.1-40.8 65.3z"/><circle cx="37" cy="34" r="4" fill="#252f00" fill-opacity=".5"/><path fill="#785f40" fill-opacity=".5" d="M52 94l-18 12-2-10z"/><path fill="#283717" fill-opacity=".5" d="M77.7 113.5l-11.5 13 2.1 1.5 8.4-6.7z"/><circle cx="104" cy="136" r="9" fill="#c98" fill-opacity=".5"/><path fill="#00003c" fill-opacity=".5" d="M15 9h11v3H15z"/><path fill="#f5d524" fill-opacity=".5" d="M185 88l5 10-12-7z"/><path fill="#1b1f47" fill-opacity=".5" d="M188.4 43l13.2-12.3 32 34.3-13.2 12.3z"/><path fill="#ffe5de" fill-opacity=".5" d="M233 144l-9 7v5z"/><path fill="#fff" fill-opacity=".5" d="M255 0h1v170h-1z"/><path fill="#e8e1cc" fill-opacity=".5" d="M53 130h29v37H53z"/><path fill="#e2e0c4" fill-opacity=".5" d="M205.7 146.8l-10.2-11 .8-.6 10.2 11z"/><path fill="#3c4d1d" fill-opacity=".5" d="M24.8 67.3L7.3 74.5l-8-4.7 3.6 1.9z"/><path fill="#656a40" fill-opacity=".5" d="M163.6 21.2l-1.2-18.5 36.8 36.2-6.1-17.3z"/><path fill="#c7ada7" fill-opacity=".5" d="M188.8 46.3l-4.8 4.5-16.1-14.1 18.3 4.4z"/><path fill="#323855" fill-opacity=".5" d="M234.7 24.7l-32.4 18.6 52-40.2-27.7-1.7z"/><path fill="#fec7b9" fill-opacity=".5" d="M240.1 76l4.5 4-10.7 12-4.5-4z"/><path fill="#5c782e" fill-opacity=".5" d="M225 100l10-13-5 28z"/><circle r="1" fill="#1a1b3b" fill-opacity=".5" transform="rotate(121 73.2 127.4) scale(27.2501 10.982)"/></g></g></svg>