<svg xmlns="http://www.w3.org/2000/svg" viewBox="0 0 1400 934"><defs/><filter id="a"><feGaussianBlur stdDeviation="12"/></filter><rect width="100%" height="100%" fill="#5d6f3c"/><g filter="url(#a)"><g fill-opacity=".5" transform="translate(2.7 2.7) scale(5.46875)"><circle cx="151" cy="80" r="195" fill="#fff"/><circle cx="147" cy="63" r="185" fill="#fffef9"/><path fill="#251b00" d="M135.2 78.8l-55-21.2 8.6-22.4 55 21.2z"/><ellipse cx="11" cy="77" fill="#fff" rx="17" ry="169"/><circle r="1" fill="#fff" transform="matrix(6.22247 167.68964 -21.68428 .80464 251.2 128.1)"/><path fill="#1e1400" d="M66.3 36.6L41.1 14.1 33.8 27l34.9 16.7z"/><circle r="1" fill="#706011" transform="matrix(-2.0781 -7.86528 25.70411 -6.79132 203.4 106.7)"/><path fill="#4a4911" d="M61 82l18.8 38.7L69 126 50.2 87.3z"/><path fill="#465009" d="M149.9 61.3l20.6-19.2-51.4 12.2-2.9 16.8z"/><path fill="#3a2d00" d="M186.2 80.5l-21.3-21.2 10.9 32.3 9.6-4.4z"/><circle r="1" fill="#fff" transform="matrix(195.8757 2.3932 -.11857 9.70448 153.4 175.6)"/><circle r="1" fill="#524e12" transform="rotate(-63.7 202.8 -69.9) scale(4.64403 19.05052)"/><path fill="#665827" d="M100 124l14 34 13-15z"/><ellipse cx="123" fill="#fff" rx="255" ry="9"/><path fill="#001108" d="M85 39.8l1.4-8.8 41.1 32-20.8.1z"/><path fill="#ecd8c4" d="M163 60l-24.7 40.1-52.2-58L24 88.8z"/><circle r="1" fill="#fff" transform="matrix(-27.29634 -.4288 3.03523 -193.21316 .9 120)"/><path fill="#4e2e0c" d="M146 100l-7 23 16-6z"/><path fill="#382114" d="M49 127l-15 5 5 13z"/><ellipse cx="255" cy="91" fill="#fff" rx="25" ry="169"/><path fill="#ede0ca" d="M125 58L68 13l69 4z"/><path fill="#ede0c9" d="M61 108l88 20-71-86z"/><path fill="#755e71" d="M206 133l-3 13-34 9z"/><path fill="#4a3900" d="M59.6 143.7l2.4 3.2-3.5 6-10.6-1.3z"/><path fill="#273800" d="M64 108l21 17-22-7z"/><path fill="#645100" d="M204.6 107.7l8.8-14.6 12 7.2-8.8 14.6z"/><path fill="#e3ceb9" d="M206.4 121.8l-19.3-25.5-6.5-81.1 50.9 10.2z"/><path fill="#0b2800" d="M197.7 114.9l-16.4-.9.3-6.8 16.9 1.8z"/><path fill="#302f00" d="M58.5 86.8l14.2 9-19.3 6L57 90.1z"/><path fill="#383e4e" d="M124.2 74.5L94.3 55.4l17.1-5.8 23.3 32.2z"/><path fill="#7d6e20" d="M32.8 21.5h21.7l8.4 33.9 9-8.6z"/><ellipse cx="134" cy="168" fill="#fff" rx="255" ry="8"/><path fill="#334f13" d="M163.5 134.7l20.9 6.8-1.9 5.8-20.9-6.8z"/><path fill="#133400" d="M140.2 62l-2.2-4.4 19.8-9.7 2.2 4.5z"/><circle r="1" fill="#fff" transform="rotate(90.6 49.7 51.7) scale(7.70434 92.64397)"/><path fill="#e0c2a6" d="M184.8 149.3l9.6 15.3-1.7-27.4-44.7 25.4z"/><path fill="#e8dbc7" d="M137.2 56.3l40.7-18.8 11.2-28.9-30.6 7.6z"/><circle cx="191" cy="32" r="10" fill="#c78d7f"/><path fill="#012f00" d="M108 143.5l5.7-2.2 4.3 11.2-5.7 2.2z"/><path fill="#000027" d="M63.7 135l-11 4.9-.4-1 11-4.8z"/><path fill="#e9dac2" d="M28.3 153.9l.5-106.1-1.6-36.9 41.2 46.2z"/><path fill="#fef8e1" d="M59 107l7-14 14 18z"/><path fill="#000167" d="M95 128h13v4H95z"/><ellipse cx="8" cy="48" fill="#fff" rx="19" ry="169"/><circle r="1" fill="#fff" transform="matrix(-19.5977 -.00355 .02122 -117.07962 250.4 96.6)"/><path fill="#e9dfcd" d="M132.8 67.2l-10.3 32 75.6 38-45.3-78.4z"/><path fill="#e4dbc8" d="M131.5 145.8L50.8 76.2l58.8-14.6 34.9 62z"/><circle r="1" fill="#2c3100" transform="matrix(3.0159 2.71553 -3.27657 3.639 75.4 117.9)"/><path fill="#e9dfcc" d="M137.2 162.1l-43.3-46.3-11.6-25.2 43.9 72.1z"/><path fill="#5d4c00" d="M120 62.3L138.7 46l3.3 3.8L123.2 66z"/><path fill="#1e3011" d="M165 66l19 9-1 8z"/><path fill="#ede0cb" d="M112 164l-5-31-78-26z"/><path fill="#5b5b22" d="M130.9 62.4l-19.7-14.1 19.6 25.6-20.7-.5z"/><ellipse cx="93" fill="#fff" rx="220" ry="9"/><path fill="#eae4d2" d="M161.9 96.2l41.2-8 3 15.6-41.2 8z"/><path fill="#362d00" d="M148.9 122.5l-8.2-11.3 2.4-1.7 8.2 11.3z"/><path fill="#9e91a6" d="M219.8 30.1L203.2 49l2.5 5.3 1.1 3.4z"/><path fill="#e1ac05" d="M189 85l-13 8 2-9z"/><path fill="#ede9d5" d="M126 55.1L102 43l4-8 24 12z"/><path fill="#2a45a8" d="M198.5 148.5l-2.8-1.2 5.8-13.8 2.8 1.2z"/><path fill="#8d823f" d="M178 147h17l-28 9z"/><path fill="#00002d" d="M36.8 141.6l-.6-9 3-.2.6 9z"/><path fill="#000062" d="M142 102.2l1-1.7 5 3.3-1 1.7z"/><path fill="#eee2c8" d="M14.6 174l38.5-49.4-4.2 34.8-24-.1z"/><path fill="#d7b39d" d="M166.6 78l-3.1-5.4 3.2-14.6 11.2 37.4z"/><circle r="1" fill="#d8c2ae" transform="matrix(-.46733 2.52756 -27.31424 -5.05021 189 149.7)"/><path fill="#3d3606" d="M209.7 108.5l5.5-10.7 7 3.7-5.4 10.7z"/><path fill="#344234" d="M66 41.6L42.7 28.1l-4.6-12 31.7 22.6z"/><path fill="#e7dbc8" d="M229.2 139.1L230 98l-27.5 36.4-3.6 30.1z"/><path fill="#dec4b2" d="M79 17.3L59.6 55.9l59.1 11.8-20.8 6.8z"/><path fill="#e3dac7" d="M139 54l11-46 22 30z"/><path fill="#b29318" d="M60.7 89.6l2.1-2.1 12.5 13-2.1 2z"/><path fill="#d49b73" d="M40.6 29.2l31.8 26.9-.3-16.7-6.9 3.3z"/><path fill="#1d3100" d="M97 52l19-1-31-14z"/><path fill="#061c00" d="M55 87h7v9h-7z"/><path fill="#e4cd42" d="M213 92v11l-16 11z"/><path fill="#e5dec9" d="M99.1 144.6l-44.7-33.8 2.4-32.1L33.3 113z"/><ellipse cx="94" cy="166" fill="#fff" rx="255" ry="6"/><path fill="#ecdfc8" d="M155 124l-39 29h54z"/><path fill="#e3dac6" d="M182 31.9l10.3-6.4-62.2 50.3L194 61.6z"/><path fill="#e7dcc8" d="M154 114h65v21h-65z"/><path fill="#e0d5c3" d="M67 9h91v25H67z"/><ellipse cx="249" cy="56" fill="#fff" rx="18" ry="169"/><path fill="#635800" d="M126 144l-3-6-10-3z"/><path fill="#dfe0cb" d="M153.1 81.1l-29.2 1.5L153 61.8 121.9 68z"/><ellipse cx="3" cy="56" fill="#fff" rx="24" ry="169"/><path fill="#cb987f" d="M40.9 123l11 3.3-14.4 6.7-4.9 3.1z"/><circle cx="98" cy="131" r="2" fill="#000049"/><path fill="#e0ddca" d="M101.5 115.8L70.1 38.2l-16-9.2 23.7-12.9z"/><path fill="#e4decc" d="M89.5 74.1L78 134.6l27.2-8 50.5 5.4z"/><circle r="1" fill="#3c541e" transform="matrix(9.47618 -7.51073 1.08388 1.36752 159.3 49)"/><path fill="#1c310a" d="M186 114l12-8-17 2z"/><path fill="#e2ddcc" d="M188 53h43v41h-43z"/><path fill="#212781" d="M98 61.6l.4-3.4 20.6 9-16.2-16.8z"/><circle r="1" fill="#293b0b" transform="matrix(-2.10517 -3.3449 .84633 -.53265 86 36.4)"/><path fill="#e1dac4" d="M155 38l-52 5 21 10z"/><path fill="#524700" d="M57.7 144.3l3.8 3.2-5.2 6.2-3.8-3.2z"/><path fill="#e5a3a0" d="M114 130l-9 14 3-22z"/><path fill="#e1b702" d="M66 54.7l-8.9-19 1-.4 8.8 19z"/><path fill="#5e639a" d="M211 40l-8 12 6-2z"/></g></g></svg>