<svg xmlns="http://www.w3.org/2000/svg" viewBox="0 0 1400 934"><defs/><filter id="a"><feGaussianBlur stdDeviation="12"/></filter><rect width="100%" height="100%" fill="#543d4e"/><g filter="url(#a)"><g fill-opacity=".5" transform="translate(2.7 2.7) scale(5.46875)"><circle r="1" fill="#fff7b9" transform="matrix(-45.54812 -89.10524 227.05522 -116.06432 108.4 53.1)"/><circle r="1" fill="#ffcca4" transform="matrix(55.61709 9.90691 -25.33215 142.2139 49.3 93.6)"/><circle r="1" fill="#5e314c" transform="matrix(-9.20594 -134.29506 21.40718 -1.46746 132.4 141.3)"/><circle r="1" fill="#9b5353" transform="rotate(-112.1 117.4 -36.7) scale(174.00561 22.82134)"/><circle r="1" fill="#ffdf96" transform="matrix(-23.44678 35.19847 -29.35395 -19.55357 235.8 31.7)"/><path fill="#0e0c2c" d="M241.7 104l-43-13.1 7.6-25 43 13.2z"/><circle r="1" fill="#eeada9" transform="matrix(-1.11293 -24.7812 35.84485 -1.6098 176.3 105.2)"/><path fill="#ffd38f" d="M136 23h30v46h-30z"/><circle r="1" fill="#3b1c31" transform="matrix(11.08183 -8.8465 24.23953 30.36434 180 0)"/><circle r="1" fill="#764f64" transform="matrix(-7.2062 27.50973 -64.484 -16.89166 168.5 154.7)"/><ellipse cx="57" cy="116" fill="#d2c1dc" rx="49" ry="26"/><path fill="#ffd9a1" d="M260.9 122l-11.4-33.3-43.3-62.5L271 58.1z"/><circle r="1" fill="#d36446" transform="rotate(156.9 85 49.7) scale(15.29599 37.87818)"/><circle r="1" fill="#bf919a" transform="matrix(-33.5324 -21.7762 12.8353 -19.76463 79.6 157.4)"/><circle r="1" fill="#d09660" transform="matrix(6.63518 -17.5595 85.0732 32.14648 1.4 53)"/><circle r="1" fill="#ffc285" transform="rotate(-6.9 761.4 -1330) scale(11.7709 25.93614)"/><path fill="#6a3e40" d="M116 14l74-30-62 47z"/><path fill="#442639" d="M135 85l16-22 2 35z"/><path fill="#745463" d="M106 129h141v41H106z"/><path fill="#bda0ab" d="M193 111l51 19-29-39z"/><circle r="1" fill="#f0dad0" transform="rotate(-108.4 108.2 49.5) scale(23.64933 9.46935)"/><path fill="#ffe49a" d="M119 22h4v46h-4z"/><path fill="#c7a2ad" d="M101.1 105.8l100.5 34.9L87 89.6l13.3 95.4z"/><path fill="#9b6464" d="M85 165l-37-9 3-27z"/><circle r="1" fill="#d6a266" transform="matrix(28.42022 -23.01515 11.7564 14.51736 82.3 38.5)"/><circle r="1" fill="#4d3442" transform="matrix(-3.8222 .01548 -.27951 -69.01387 133.1 101)"/><path fill="#fad698" d="M49 16l89-8-10-24z"/><path fill="#291a36" d="M113 8h7v28h-7z"/><path fill="#834942" d="M8 54L6 3l-22 44z"/><circle r="1" fill="#f5d492" transform="matrix(18.1251 .72798 -1.73724 43.2535 43.7 18.4)"/><path fill="#ffc290" d="M140 18h23v47h-23z"/><path fill="#373242" d="M200 61l71 111-28-94z"/><circle r="1" fill="#f6d5a0" transform="matrix(26.07904 -79.31985 6.07693 1.998 14.7 111.3)"/><path fill="#68445a" d="M86 141l119 5-83-32z"/><ellipse cx="87" cy="117" fill="#aa7e92" rx="70" ry="4"/><path fill="#d4b4b6" d="M133.5 92.2l59.4 52.5-11.2-3.2 13-35.3z"/><circle r="1" fill="#88626d" transform="rotate(-119.9 166.5 7.9) scale(60.45934 12.37977)"/><circle r="1" fill="#e0d0cf" transform="rotate(-144 37.2 52.3) scale(21.56915 33.76084)"/><path fill="#d79c65" d="M39.3-16L-16 7.1l25.9-.5L0 50.1z"/><path fill="#dcc7c8" d="M208.8 112.2l-4.3 2.4-38.5 11.5 55.1-34.7z"/><path fill="#3e3a51" d="M205 78l-7 27 11-9z"/><path fill="#fbd796" d="M92.1 51l19.6 4-9.8 46-19.6-4z"/><path fill="#fbdaa2" d="M217.8 68.8l-19.2-10.6 11.6-21 19.2 10.6z"/><path fill="#ffffa7" d="M128 76.5l-3-32.9h1l3 32.8z"/><path fill="#cb7156" d="M177 87L156 8l31 5z"/><circle r="1" fill="#6c4852" transform="matrix(-38.82316 4.76689 -.12187 -.99255 72 20)"/><path fill="#ffe6a7" d="M253.1 99.6l-7-33.3 8.8-1.9 7 33.3z"/><path fill="#9c522f" d="M-1.8 107.7l-2.4-35 6-.4 2.4 35z"/><ellipse cx="191" cy="7" fill="#452f43" rx="13" ry="11"/><path fill="#9e584f" d="M150 29h57v7h-57z"/><path fill="#decdcf" d="M108.6 154.4L84 162.9l-4.6-13.3 24.6-8.5z"/><path fill="#624364" d="M154 107l-18-8 20 19z"/><path fill="#4b3a46" d="M112 32h6v58h-6z"/><path fill="#ffd3a1" d="M170 74l-15 28 2-78z"/><path fill="#e8bfc1" d="M122 100l-15 9 14-17z"/><circle r="1" fill="#7b566a" transform="rotate(-31.9 327.2 -291.6) scale(28.09725 13.33282)"/><path fill="#302841" d="M169.4 2.9l-11.6-17-8.2 22.7 29.6-6z"/><ellipse cx="239" cy="6" fill="#e5ba8b" rx="36" ry="65"/><path fill="#a9705a" d="M45 62h25v10H45z"/><circle r="1" fill="#604554" transform="matrix(-8.89652 10.09112 -22.17339 -19.54847 138.6 135.4)"/><path fill="#463645" d="M247 139l2-58-27-13z"/><path fill="#955e50" d="M8 58l24-8-32-1z"/><path fill="#ebc9b1" d="M25 148l52 17-55 4z"/><path fill="#ec9562" d="M170 102l20-4-26-49z"/><path fill="#996d5b" d="M14.6 148.5l1.9-6.8-27.4 43.3h3.8z"/><path fill="#ecbe7e" d="M5 76l-5 69 34-87z"/><path fill="#7c6168" d="M52.2 59.8l18.7-42 1 .4-18.8 42z"/><path fill="#d6bdb7" d="M56.2 150.3l26.1 4.9-5.2-34.7-14.1 5.9z"/><ellipse cx="124" cy="70" fill="#473649" rx="2" ry="49"/><path fill="#f8d496" d="M124 68.7l-4.7 7.4-.1-.3-1.1-11.9z"/><ellipse cx="69" cy="158" fill="#6f3d49" rx="9" ry="4"/><path fill="#af797c" d="M171.5 137.2l10.6 47.8-10.8-34.4-12.5-32.9z"/><path fill="#875964" d="M253.7 165.4L124.5 185l-30.2-32.1 43.7 12z"/><path fill="#f8d391" d="M77 38h13v36H77z"/><path fill="#4f3b5a" d="M41.4 85.4l12.3-25.2.9.4-12.3 25.2z"/><path fill="#895150" d="M218.3 23.3l-22.4-2.6-7.3 23.4L202.7 31z"/><path fill="#a15a52" d="M192 43l10 53-25-16z"/><path fill="#623b3f" d="M143 17l-15 30 2-22z"/><path fill="#ffbb7a" d="M141 15l19 20 6-16z"/><circle r="1" fill="#412f46" transform="rotate(-51.1 178.4 -87.4) scale(6.56241 8.17901)"/><path fill="#fff0ce" d="M139 27.6l4-1 8 27.8-4 1z"/><path fill="#eabc86" d="M126.5 61h-1l2-40h1z"/><path fill="#bc835c" d="M81.6 94.2l13.9-22.9-11.9 9.6-15.3-19.6z"/><path fill="#e5d1c6" d="M133.8 117.9l.5-4 17.9 2.2-.5 4z"/><path fill="#ad787a" d="M114 101l21 11 6 22z"/><path fill="#dbbb8f" d="M137 46l17 8-16 27z"/><path fill="#f2d199" d="M66.3 24.6l-5.2 29.6 5.7-18.4 16.5-16.7z"/><path fill="#4e3048" d="M126.3 9.4l.2 1-62.8 12.2-.2-1z"/><path fill="#a97174" d="M251 147l-7 29-52 9z"/><path fill="#bc4d3d" d="M150 75h5v19h-5z"/><path fill="#e1c8c3" d="M212.3 102.7l-6.3 20.6-1.7-9.7-49.6 1.8z"/><path fill="#8a5974" d="M54 126.6l10-2.4-13.5 12 1.8 11.6z"/><path fill="#d8c3c7" d="M39.2 113.2l69.2-2.1 6.6 10.3-8.5-26.5z"/><path fill="#503c46" d="M141.5 88.7l-12.7-46.1 1.1 64.6 17-28z"/><path fill="#e0b089" d="M78.3 88.2L63.6 68.8 51.1 93.2l45 11.5z"/><path fill="#a4796c" d="M160-7l-31 31 4-19z"/><path fill="#6d4c4f" d="M192.8 22.8l16.4 16.1-6.3-18.3-71-7.6z"/><path fill="#ece4d9" d="M33.4 106.2l-23.3 20.9 15.2-31.2 37.9 10.9z"/><ellipse cx="53" cy="118" fill="#a1788f" rx="31" ry="2"/><path fill="#b98aa1" d="M95.7 127.5l15.3-9-7.5-2.3 7.1 46z"/></g></g></svg>