<svg xmlns="http://www.w3.org/2000/svg" viewBox="0 0 1200 836"><defs/><filter id="prefix__a"><feGaussianBlur stdDeviation="12"/></filter><rect width="100%" height="100%" fill="#306c56"/><g filter="url(#prefix__a)"><g transform="translate(2.3 2.3) scale(4.6875)"><circle cx="118" cy="61" r="183" fill="#fff" fill-opacity=".5"/><circle r="1" fill="#fff" fill-opacity=".5" transform="matrix(-.6586 -74.56168 254.99005 -2.25229 117 38)"/><circle cx="121" r="118" fill="#fff" fill-opacity=".5"/><circle r="1" fill="#237c58" fill-opacity=".5" transform="matrix(61.61923 -11.87658 3.92111 20.34392 149.6 139.5)"/><circle r="1" fill="#fff" fill-opacity=".5" transform="matrix(-26.79236 43.2744 -201.98008 -125.05133 238.7 49)"/><path fill="#358867" fill-opacity=".5" d="M90.3 110.6l-42.5-6.5-1.7 22.3 108.7 38.9z"/><circle r="1" fill="#fcf7fc" fill-opacity=".5" transform="matrix(245.99747 -39.96664 5.91131 36.38454 68.2 66.7)"/><circle r="1" fill="#73b89d" fill-opacity=".5" transform="rotate(161.7 89.2 71.5) scale(40.77159 22.75669)"/><circle r="1" fill="#c9a5a5" fill-opacity=".5" transform="matrix(13.91712 -30.60765 83.15686 37.81093 38.1 156.6)"/><path fill="#caa5a2" fill-opacity=".5" d="M280.3 147.6l-67.6 65.3-41-42.5 67.6-65.3z"/><circle r="1" fill="#087553" fill-opacity=".5" transform="rotate(-87.1 148 1.6) scale(6.86988 33.92921)"/><path fill="#988987" fill-opacity=".5" d="M148.3 160.4l-10.5 45.8-72.1-16.6 10.5-45.8z"/><path fill="#003912" fill-opacity=".5" d="M55 126l38 17-18-15z"/><path fill="#fffbfe" fill-opacity=".5" d="M234 0h22v112h-22z"/><path fill="#c8b6ac" fill-opacity=".5" d="M116.1 124.9L70.3 108l90.3 4.4-20 10z"/><circle cx="16" cy="20" r="90" fill="#f3eff1" fill-opacity=".5"/><path fill="#90aa99" fill-opacity=".5" d="M122.1 147L56 124.4l3.9-11.4 66.1 22.8z"/><path fill="#9ecebe" fill-opacity=".5" d="M252 120l-49-38-29 6z"/><path fill="#bfbbb3" fill-opacity=".5" d="M51.9 99.6l18.7 16.1-63.4-7.9L-4.7 193z"/><circle r="1" fill="#1ab489" fill-opacity=".5" transform="matrix(29.36242 11.43451 -1.19358 3.06496 91.2 118.1)"/><path fill="#d4c6be" fill-opacity=".5" d="M271 129.5l-57.2 10.2 12.6-23.6 25.2-6.6z"/><circle r="1" fill="#a59e99" fill-opacity=".5" transform="matrix(106.75215 .60605 -.0464 8.17168 204.9 172)"/><path fill="#3caf8c" fill-opacity=".5" d="M133.9 135l-46.6-12 50.6 3 56.6 14.1z"/><path fill="#969e93" fill-opacity=".5" d="M194 124l-2 28 66-1z"/><circle r="1" fill="#f4f5f7" fill-opacity=".5" transform="rotate(42.7 31.4 126.7) scale(114.60226 36.45221)"/><path fill="#b8b4af" fill-opacity=".5" d="M99 145l-115 24 53-44z"/><path fill="none" stroke="#003d1e" stroke-opacity=".5" stroke-width=".5" d="M55.8 125.9q51.8 21.4 59.2 29.5"/><path fill="#217d5e" fill-opacity=".5" d="M191.8 152.8l-89.5-8.9-20.6-3.8 60.5 19.3z"/><path fill="#005b39" fill-opacity=".5" d="M105.3 148.6l-27.7-16.9-35.3-10.5 40.9 18z"/><circle r="1" fill="#ccbfb8" fill-opacity=".5" transform="matrix(.36312 8.49675 -24.52387 1.04806 122.6 116.3)"/><path fill="#9fcdbf" fill-opacity=".5" d="M244 101.9l-57.4-20.8-23.3 25.7 56 5.3z"/><path fill="#74b098" fill-opacity=".5" d="M42.7 118.7l13.5-17.3 25.1 17.9 14.4 21.5z"/><path fill="#c0bdb9" fill-opacity=".5" d="M181 152h57v13h-57z"/><path fill="#7a6b66" fill-opacity=".5" d="M134 158l-37 1v-14z"/><path fill="#6fa98e" fill-opacity=".5" d="M155 113l76-4-31 35z"/><path fill="#b5aaa7" fill-opacity=".5" d="M148 158h38v20h-38z"/><path fill="#f3f0f3" fill-opacity=".5" d="M75 80h85v30H75z"/><path fill="#918d82" fill-opacity=".5" d="M212.3 168.8L206 166l54.2-2.1-14.5 10.7z"/><circle r="1" fill="#eaebec" fill-opacity=".5" transform="matrix(57.9706 33.20008 -15.55482 27.16025 34.5 62)"/><path fill="#80a091" fill-opacity=".5" d="M133 142.2l20.6-5.1-54.6-5.5-5 11.2z"/><ellipse cx="241" cy="65" fill="#f5f5f7" fill-opacity=".5" rx="66" ry="24"/><path fill="#64aa8e" fill-opacity=".5" d="M134 126l66 19-37-36z"/><path fill="#c1bab2" fill-opacity=".5" d="M110.2 113.5l-27.9-3.7 27.8 15.9 44.5-10.8z"/><path fill="#cecbc2" fill-opacity=".5" d="M47.7 112l-63.7 4.7 38-7.1 39.6-4.1z"/><circle r="1" fill="#98968f" fill-opacity=".5" transform="matrix(-74.85874 14.6867 -.29985 -1.52836 169 157.6)"/><path fill="#a5aaa4" fill-opacity=".5" d="M64 180l115 13-137-54z"/><path fill="#8dcab6" fill-opacity=".5" d="M200.2 116.3l5.6-1.8-18-31.4 35.9 8.9z"/><path fill="#8c8881" fill-opacity=".5" d="M95 158h55v8H95z"/><path fill="#f3f3f4" fill-opacity=".5" d="M105.5-16L243.9 93.8l-11.4 21.5L271 97z"/><path fill="#ecebeb" fill-opacity=".5" d="M0 0h38v110H0z"/><path fill="#1ba880" fill-opacity=".5" d="M74.3 114.5l-17.7-11L96 117.9l32.1 17z"/><path fill="#f3f5f6" fill-opacity=".5" d="M58-2l179 30-64 67z"/><path fill="#177757" fill-opacity=".5" d="M111 144h36v4h-36z"/><path fill="#29ae8c" fill-opacity=".5" d="M114.8 124l31.7 9.1-1.3 4.9-31.7-9.1z"/><ellipse cx="29" cy="127" fill="#b3a99f" fill-opacity=".5" rx="23" ry="6"/><path fill="#58967d" fill-opacity=".5" d="M120.3 141.2l85.3-3.7-25.8 19-42.5-17.1z"/><path fill="#acada6" fill-opacity=".5" d="M182.6 189.7l-72.5-3.8 35.3-16.6 47.5-21z"/><path fill="#8dccbc" fill-opacity=".5" d="M52 100.9l-7.8 11.7 17.7-2.4 1.3-1.7z"/><path fill="#005e35" fill-opacity=".5" d="M66.6 131.2L41 119.8l.4-1L67 130.2z"/><path fill="#b9b0ab" fill-opacity=".5" d="M217 128l-13 14 39 4z"/><ellipse cx="113" cy="139" fill="#7c9d8c" fill-opacity=".5" rx="20" ry="5"/><path fill="#c7b8ae" fill-opacity=".5" d="M0 110h42v11H0z"/><path fill="#82aa96" fill-opacity=".5" d="M217.3 126.3l-14 9.7-8.6-12.3 14-9.7z"/><path fill="#76a08a" fill-opacity=".5" d="M86 119l18 21-60-21z"/><path fill="#a4ccc0" fill-opacity=".5" d="M228.1 88.9l-15.7 12.6-9.2 9.5 35.4-3z"/><path fill="#73ab91" fill-opacity=".5" d="M140 125l20-16 14 13z"/><path fill="#cdc2bd" fill-opacity=".5" d="M236 111h20v11h-20z"/><circle r="1" fill="#b3b1ac" fill-opacity=".5" transform="rotate(67.3 -105.9 104.4) scale(31.88941 47.92427)"/><ellipse cx="131" cy="111" fill="#c3bcb0" fill-opacity=".5" rx="44" ry="1"/><path fill="#9b9288" fill-opacity=".5" d="M200 146h56v3h-56z"/><ellipse cx="254" cy="84" fill="#f4f3f3" fill-opacity=".5" rx="23" ry="27"/><path fill="#878c84" fill-opacity=".5" d="M115 165.4l-22.8-6.2-11.2-5.4 10.2-7.1z"/><path fill="#9b9e98" fill-opacity=".5" d="M113.3 165.9l-19.1 6.3-40.2-7 37.2-6.5z"/><path fill="#85a28f" fill-opacity=".5" d="M164.5 138.4l42.9-3.8v1l-42.8 3.8z"/><path fill="#81af97" fill-opacity=".5" d="M44 111h28v10H44z"/><path fill="#69b397" fill-opacity=".5" d="M176.6 122.8l18.7-19.4 10.1 9.8-18.7 19.4z"/><path fill="#3cb595" fill-opacity=".5" d="M64.3 108.2l-15-5.5.4-1 15 5.6z"/><path fill="#e9e8e9" fill-opacity=".5" d="M89 111l14-16-53 5z"/><path fill="#bcb9b5" fill-opacity=".5" d="M22.1 137l27.3.8-38.6 24.5-21.7-36.2z"/><path fill="#177f5d" fill-opacity=".5" d="M136 143l17 15-53-13z"/><circle r="1" fill="#f2f2f1" fill-opacity=".5" transform="matrix(-5.81672 -18.50896 30.12835 -9.46829 148.3 89.7)"/><path fill="#4da788" fill-opacity=".5" d="M152.6 139.1l15.6-2.7 29.6-12.3-73.6 2.8z"/><path fill="#c4bfb6" fill-opacity=".5" d="M246.4 120.2l-10.7 10.3-27.1 6.7 26.7-28.4z"/><path fill="#f8f8fa" fill-opacity=".5" d="M266-16H137l96 73z"/><path fill="#c0bdb9" fill-opacity=".5" d="M201 154h43v9h-43z"/><circle cx="188" cy="98" r="12" fill="#a8d0c2" fill-opacity=".5"/><circle r="1" fill="#2aa882" fill-opacity=".5" transform="rotate(111.6 5.2 90.8) scale(2.37603 28.92686)"/><path fill="#c8beb7" fill-opacity=".5" d="M104.5 121.2l1.3-9.2-21.9-2 3.9 3.3z"/><path fill="#497762" fill-opacity=".5" d="M114.5 159.5l57.2-5.4 1.8 1.3-8.1 2.3z"/><path fill="#a09a91" fill-opacity=".5" d="M247.7 153.4l23.3-14.1-57.2 53.7h-2.5z"/><path fill="#989286" fill-opacity=".5" d="M235 163l26 4-36 8z"/><path fill="#999e97" fill-opacity=".5" d="M219.3 166.7l-48.3 2.6 55.5 14.8-31.3-12.1z"/><path fill="#388a6c" fill-opacity=".5" d="M137 141h18v5h-18z"/><path fill="#004c2b" fill-opacity=".5" d="M52.8 126l5.2.4 43.3 19.2-20.1-6.7z"/><circle r="1" fill="#1d9671" fill-opacity=".5" transform="rotate(-67.6 170 -11) scale(1.63723 13.68642)"/><circle r="1" fill="#f1f1f3" fill-opacity=".5" transform="matrix(-12.7221 10.82736 -36.93225 -43.39525 86.6 64.6)"/><path fill="#8fc9b3" fill-opacity=".5" d="M198 93.2l-8.6-2.9 2.6-7.5 8.6 2.9z"/><path fill="#eaeae9" fill-opacity=".5" d="M30 85h16v25H30z"/><ellipse cx="112" cy="137" fill="#769d8a" fill-opacity=".5" rx="12" ry="8"/><path fill="#16805f" fill-opacity=".5" d="M129 155h35v2h-35z"/></g></g></svg>