<svg xmlns="http://www.w3.org/2000/svg" viewBox="0 0 900 1288"><defs/><filter id="a"><feGaussianBlur stdDeviation="12"/></filter><rect width="100%" height="100%" fill="#474444"/><g filter="url(#a)"><g fill-opacity=".5" transform="translate(2.5 2.5) scale(5.03125)"><circle r="1" fill="#fff" transform="matrix(21.11596 167.15 -156.9163 19.82314 98.7 124)"/><circle r="1" fill="#fff" transform="matrix(156.08893 85.55844 -48.60159 88.66653 104.2 60.8)"/><circle r="1" fill="#fff" transform="matrix(169.84238 18.71192 -4.9731 45.13924 109.7 35)"/><circle r="1" fill="#8e8e87" transform="matrix(31.0871 -10.22092 14.23175 43.28612 54.7 116.4)"/><ellipse cx="5" cy="158" fill="#f1f2f0" rx="19" ry="92"/><path fill="#555b61" d="M186.7 246.1l-7.6-22.2L136 212l-87 27.2z"/><circle r="1" fill="#5b5a5c" transform="matrix(-1.48311 -9.89962 53.92524 -8.0788 42.5 252)"/><ellipse cx="176" cy="88" fill="#fff" rx="15" ry="74"/><circle r="1" fill="#747573" transform="matrix(6.51668 18.39523 -32.39345 11.47568 55.2 207.8)"/><ellipse cx="135" cy="177" fill="#c2c5c5" rx="56" ry="31"/><circle r="1" fill="#fff" transform="matrix(-40.79171 20.5161 -29.86693 -59.38379 76.7 15.4)"/><circle r="1" fill="#f2f8fc" transform="rotate(-178.7 60 52.3) scale(7.82076 111.75947)"/><path fill="#6e6c63" d="M22 105h77v4H22z"/><circle r="1" fill="#d0d3d6" transform="matrix(.9471 3.5197 -83.32006 22.4203 39.7 234.4)"/><circle r="1" fill="#8a8e98" transform="rotate(-87.5 196.2 61.8) scale(27.30654 57.17835)"/><circle r="1" fill="#fff" transform="matrix(13.63947 .37837 -2.56441 92.4421 178 62)"/><path fill="#9d9d98" d="M22.9 70.7l.3 13.4 59.5-.8 21.8-4.3z"/><circle r="1" fill="#d8d9d8" transform="matrix(-4.41122 -70.11433 19.02484 -1.19694 147 62.6)"/><path fill="#80807a" d="M26.7 228.5l-3.4-65.9 22-1.1 3.4 65.9z"/><circle r="1" fill="#f5f6f4" transform="matrix(-5.29298 -24.52721 44.60935 -9.62672 32.1 47.9)"/><circle r="1" fill="#5b5a51" transform="rotate(-170.1 83.3 104.2) scale(32.69326 5.0509)"/><circle r="1" fill="#a7a8a6" transform="matrix(-6.4058 14.67992 -30.3976 -13.26443 62 146.9)"/><circle r="1" fill="#b3b4b2" transform="matrix(-8.02286 -20.8465 45.93138 -17.67688 158 181.9)"/><circle r="1" fill="#d9dad7" transform="matrix(-14.57512 -1.94474 10.56298 -79.16589 5.8 141.2)"/><path fill="#676665" d="M40.1 239.5l46-12.3-29.9 19.4-67.7 10.4z"/><path fill="#c3c3c1" d="M7 167h17v79H7z"/><path fill="#c0c1be" d="M43 78h50v28H43z"/><path fill="#fff" d="M165 77h14v76h-14z"/><path fill="#d0d3ce" d="M108 137l-3-38-41 22z"/><circle r="1" fill="#c6c9cc" transform="rotate(-81.3 173.5 26.6) scale(24.94888 9.30611)"/><path fill="#909192" d="M65 183h26v36H65z"/><path fill="#98968a" d="M87.5 135.9l-28.8 6.4L72.9 129l30.6 3.2z"/><path fill="#f1f8fa" d="M132 92l-21-50 2 122z"/><path fill="#989993" d="M24 74h12v88H24z"/><path fill="#6d6c67" d="M24 191h23l-23 15z"/><path fill="#fcfffe" d="M74 0h37v76H74z"/><path fill="#9fa099" d="M122 215l41-12-26-15z"/><path fill="#fff" d="M166 0h13v154h-13z"/><path fill="#c6c9c8" d="M82 135h29v45H82z"/><path fill="#686661" d="M79 107h24v2H79z"/><path fill="#b1b5b8" d="M81 191h20v16H81z"/><path fill="#dadbda" d="M123 45h43v77h-43z"/><path fill="#797874" d="M23.5 75.5l39-2v1l-39 2z"/><path fill="#b9bab7" d="M193.9 226.2l-55.2-77.7-2.2-79.1-7 109.3z"/><circle r="1" fill="#edeeec" transform="matrix(20.8311 16.4514 -32.33689 40.9456 26 36.6)"/><path fill="#c0bfbf" d="M23 207l-39 50 41-16z"/><ellipse cx="116" cy="250" fill="#8f9095" rx="36" ry="20"/><path fill="#a5a6a2" d="M43 142l-9 50 58-32z"/><ellipse cx="9" cy="116" fill="#d5d6d4" rx="14" ry="41"/><path fill="#bfbfbe" d="M-16 254l76-21-42-8z"/><path fill="#8b8b89" d="M26 172.6l-.8-8 50.7-5.2.9 8z"/><ellipse cx="53" cy="112" fill="#9f9f9d" rx="27" ry="5"/><path fill="#dfe2df" d="M107 88l-4.3 20.5-11.8-2.5 4.4-20.5z"/><path fill="#f7f8f8" d="M120.2 80.6l-35.4-5.1-54.6-4.4L64.9-16z"/><ellipse cx="41" cy="106" fill="#44413e" rx="17" ry="1"/><circle r="1" fill="#8c8c87" transform="matrix(-.43979 4.03005 -11.08398 -1.20956 35 137.2)"/><path fill="#9a9a99" d="M38 199h21v16H38z"/><path fill="#a5a5a1" d="M70 76h11v14H70z"/><path fill="#7e7d7a" d="M13.9 197.1l73.6-8 5.6-5.9-32.4 4.9z"/><path fill="#cdd2da" d="M93.1 217.2l24.8-6.6-7.2 7.1-37.6 12.1z"/><path fill="#81807b" d="M34 72h13v4H34z"/><circle r="1" fill="#696869" transform="rotate(68.5 -154 156.1) scale(3.22804 28.04782)"/><path fill="#585852" d="M134.1 214.6l-3-.3-.7 6.6 53 3.3z"/><path fill="#b4b5b4" d="M138.3 180.2L100.5 222l32.7-9.1L136 143z"/><path fill="#9a9fa1" d="M100 186h11v19h-11z"/><path fill="#b1b2af" d="M38.5 150l6.5 10.8 49.9-1.3-53.2-16.7z"/><circle r="1" fill="#848386" transform="matrix(-4.55385 -15.67446 27.81193 -8.08011 73.8 255)"/><path fill="#676664" d="M194 234.9l-73.3-11.4-4.6-4 17-7.8z"/><path fill="#d5d8d8" d="M81 109h19v21H81z"/><path fill="#d1d2cf" d="M133 24h8v114h-8z"/><path fill="#88898a" d="M65.2 211.1l27.8-8.3-4 12.8-54.3 18.2z"/><path fill="#92928f" d="M61 140h4v48h-4z"/><circle r="1" fill="#eaebea" transform="matrix(-1.86874 62.02725 -7.12103 -.21454 125 30.8)"/><path fill="#d3d6d9" d="M126 181l-16 13 16-58z"/><circle r="1" fill="#b3b3b0" transform="matrix(14.2953 .217 -.18157 11.96145 37.3 89.5)"/><path fill="#8e8d89" d="M43 75h29v2H43z"/><path fill="#c9cac8" d="M14 103h10v49H14z"/><path fill="#776b59" d="M80 133h12v2H80z"/><path fill="#7e7d7a" d="M25 191h19v35H25z"/><circle r="1" fill="#8f949b" transform="rotate(-176 81.4 119.7) scale(53.1659 6.21849)"/><path fill="#8c8e91" d="M109.5 210.2l-36 12.4-1-2.8 36-12.4z"/><path fill="#acadaa" d="M181.8 205.6l11-5.1-68.6-16.3 62.8 44.9z"/><ellipse cx="157" cy="46" fill="#e4e4e3" rx="9" ry="60"/><path fill="#c4c7ce" d="M122.9 213.6l-31.6 3.7-28 12.2 33.2-5.3z"/><path fill="#9a927d" d="M74 104h13v3H74z"/><circle r="1" fill="#e3e4e2" transform="matrix(7.83852 .5199 -5.39735 81.37536 0 101.3)"/><path fill="#d0d3d2" d="M91 140h6v43h-6z"/><path fill="#c4c5c3" d="M83 136l26 35-33-22z"/><path fill="#474642" d="M59 106.8l32-.6v1l-32 .6z"/><ellipse cx="176" cy="14" fill="#fff" rx="12" ry="47"/><path fill="#c8c8c8" d="M145 173l34-9-42-33z"/><path fill="#aebaaf" d="M103.3 132.6l-34.7-4.2v-1l34.8 4.2z"/><path fill="#b9b9b8" d="M42 120h39v12H42z"/><path fill="#858c93" d="M84 226l23-5 30 18z"/><path fill="#ecedeb" d="M5 0h32v73H5z"/><circle r="1" fill="#9c9e97" transform="matrix(-29.12901 -6.77853 1.03877 -4.46384 161.3 215.1)"/><path fill="#d0d1d0" d="M68 80h3v19h-3z"/><path fill="#90908b" d="M27 73h28v4H27z"/><path fill="#ffe582" d="M92.5 105.3v1l-9 .4v-1z"/><path fill="#716f6e" d="M-16 258.2l57.4-18L96.1 230l-98.8 33.9z"/></g></g></svg>