<svg xmlns="http://www.w3.org/2000/svg" viewBox="0 0 1400 933"><defs/><filter id="a"><feGaussianBlur stdDeviation="12"/></filter><rect width="100%" height="100%" fill="#573a51"/><g filter="url(#a)"><g fill-opacity=".5" transform="translate(2.7 2.7) scale(5.46875)"><circle r="1" fill="#ffffd1" transform="matrix(-97.21598 57.11401 -37.82208 -64.37842 99.2 53.6)"/><ellipse cx="195" cy="112" fill="#8a6267" rx="86" ry="73"/><ellipse cx="166" cy="15" fill="#fff" rx="26" ry="25"/><circle cx="64" cy="69" r="58" fill="#f8c79d"/><ellipse cx="131" cy="99" fill="#341237" rx="17" ry="31"/><path fill="#b38c85" d="M257.4 82.8l-41.2 30-47.6-65.6 41.2-30z"/><ellipse cx="102" fill="#26002b" rx="38" ry="11"/><path fill="#040016" d="M15.2 68.6L-16 102.2V5.7z"/><path fill="#fff8ff" d="M101.6 18.6l-47.2-6.1 88.8 42-3.2-19.4z"/><path fill="#e1c9ad" d="M101 84l29 56-96 2z"/><ellipse cx="28" cy="27" fill="#fce5b4" rx="20" ry="12"/><path fill="#2e223a" d="M-16 .6L50.3-16l4.3 36.8.4-1z"/><circle r="1" fill="#ffffec" transform="rotate(65.1 2.9 107.2) scale(33.34538 6.8993)"/><circle r="1" fill="#292339" transform="rotate(176 4.4 74.5) scale(20.4015 29.2631)"/><ellipse cx="130" cy="17" fill="#4b104e" rx="9" ry="12"/><path fill="#361438" d="M63 137h57v6H63z"/><path fill="#834f4c" d="M79.6 109.4l14.8-6.5L68.1 87 56.4 97.6z"/><ellipse cx="85" cy="155" fill="#f7e9cb" rx="4" ry="11"/><path fill="#f8ead1" d="M141 0h48v39h-48z"/><path fill="#ca9072" d="M28.4 11.4l16.4 86.4L-1.6 119l15.7-61.2z"/><circle r="1" fill="#ffffe2" transform="matrix(-3.85659 -12.84092 2.92571 -.8787 121.7 137.2)"/><path fill="#5e3292" d="M130.3 53.1l-34-8.4 1.4-5.8 34 8.4z"/><ellipse cx="215" cy="20" fill="#714b60" rx="20" ry="33"/><path fill="#f2e3c1" d="M50.8 107.9l64.8-5.7 1.6 18-64.8 5.6z"/><circle r="1" fill="#2d213b" transform="matrix(29.49565 -1.0584 .4682 13.04822 188.9 169)"/><circle cx="166" cy="84" r="28" fill="#91696e"/><ellipse cx="156" cy="53" fill="#d6beb4" rx="69" ry="4"/><ellipse cx="112" cy="17" fill="#ffd4c8" rx="7" ry="11"/><path fill="#5b4053" d="M105.7 124.2l-8.5 26.4 59.2-66.2 26.8 52.2z"/><path fill="#d8a184" d="M53 148l20-21-89-33z"/><path fill="#4f384e" d="M271 129.9l-42.2 11.3-42.5-11.4-7.1-37.3z"/><path fill="#c39372" d="M141 32l11.3-48 3.3 48.3-13.7-36.5z"/><path fill="#b7b0af" d="M233 89.3l3.5 10.5-27.6 9-3.4-10.6z"/><path fill="#d4dcd9" d="M163.4 104.5l19-1 .2 6-19 1z"/><path fill="#64436a" d="M142 41h89v8h-89z"/><path fill="#bc8e6c" d="M48 53.8l16.6-29.7 25.3 14L73.4 68z"/><path fill="#f0ddba" d="M79.7 42.3L44.8-16 70.5 9.8l55.1 17.4z"/><path fill="#956e6e" d="M144.3 140.3l.1-10.3 81.2 10.1-80.1 19z"/><path fill="#f5efce" d="M202 69h4v24h-4z"/><circle r="1" fill="#9d8390" transform="rotate(-16.9 579.7 1) scale(39.67094 2.02858)"/><path fill="#fae8b8" d="M67 84L32 69l30-14z"/><path fill="#6a4653" d="M210 100l-5-18 40 4z"/><circle r="1" fill="#e9be97" transform="matrix(9.59257 7.5486 -16.72978 21.25976 0 102)"/><path fill="#e8e5fa" d="M105.8 29.2l9.3-10.1 33.3 24.3-27.5 2.1z"/><path fill="#a0716a" d="M250.7 109.2l-70.3-53.8 49-4.2L261.9 69z"/><path fill="#f6f1d5" d="M69.9 101.5l-19.1 42.3 11.4-6.4 10.5-14.9z"/><path fill="#9c6762" d="M79.3 91.8l-47.2 4.8L3.3 47.5l42.5 53.1z"/><path fill="#f1efdd" d="M147.3 50.5l26.1-2.6L120.5 58l-48.7 4.2z"/><path fill="#c1817a" d="M116.1 15.5l-24-3.5 6.1 21.9-1 4.1z"/><path fill="#2e1f3f" d="M69-16h65L94 14z"/><path fill="#754358" d="M160.8 55.5l-51 10-.6-3 51-10z"/><path fill="#f2e4c8" d="M90.2 138.9l16.9-11.5 8.2-69.6-26.2 71.7z"/><path fill="#4f334c" d="M139 70h-26l31 31z"/><path fill="#614053" d="M139 166l-29-71 32-36z"/><path fill="#f6f5ed" d="M156 13h36v23h-36z"/><path fill="#908747" d="M166 0h2v39h-2z"/><path fill="#372641" d="M-2.5 81.1l17.3-68.8-26.2 28 27.8 27.3z"/><path fill="#dfcfb9" d="M119 135h8v17h-8z"/><path fill="#fbfdec" d="M118 79l-11-23 4 38z"/><path fill="#f0ead2" d="M77.1 17.7l2.6-14.5 17 25 4.3 35.7z"/><path fill="#987ead" d="M103 56l30-6-25-19z"/><path fill="#322944" d="M204 89l-2 25-17-23z"/><path fill="#f1d2a3" d="M10 41l22-24-19 1z"/><path fill="#895954" d="M67.9 78.4l3.9-.9 8.3 36-3.9 1z"/><path fill="#402c45" d="M-16 113l67 54-25-44z"/><path fill="#a27773" d="M143 53h52v39h-52z"/><path fill="#614555" d="M146.5 151.9L130.4 185l-16.8-67.9-18.7 28.1z"/><path fill="#271d38" d="M43.4 7.9L67.6-16H33.2l1.1 28.2z"/><path fill="#59384f" d="M222 73l36 2-13-8z"/><ellipse cx="67" cy="144" fill="#33253f" rx="7" ry="9"/><path fill="#f8e6bb" d="M67.6 104.3l-1.3 14-29.9-2.6 1.3-14z"/><path fill="#4e384d" d="M215 6h39v46h-39z"/><ellipse cx="185" cy="9" fill="#70614e" rx="42" ry="1"/><path fill="#f7eccb" d="M124.5 54.9l-24.8 4L93 28.2 76.7 72.4z"/><path fill="#f1c796" d="M220.5 3.3L233.4-16l37 9.4L235.6.5z"/><path fill="#c1947d" d="M36 119h21v21H36z"/><path fill="#623d5b" d="M122.4-11.3l17.7 19-12.5 11.6L110 .3z"/><path fill="#8b5c5c" d="M33.4 89.9l-1.2 1.5 13.6 1-15.4 13.7z"/><path fill="#3f2d43" d="M148.4 188.3l-28.6-25 11.8-13.6 28.6 25z"/><path fill="#efcab3" d="M114.9 68l20.2-8.6 2 4.6-20.2 8.6z"/><path fill="#513a4e" d="M109.4 185l-29.6-45.2 27.4-6.7-7.2-1.6z"/><circle r="1" fill="#c7b19f" transform="matrix(1.24405 -.19407 13.2259 84.7827 195.9 22)"/><path fill="#7a5260" d="M198 75l-44-5 42-12z"/><path fill="#eadbb2" d="M48.9 18.8l22-11.2 1.5 15.8-55.5 5.1z"/><circle r="1" fill="#e6dcca" transform="matrix(-.744 -1.65679 10.00062 -4.4909 227 99.2)"/><circle r="1" fill="#b08382" transform="matrix(3.97352 48.3308 -1.86465 .1533 52.4 169.1)"/><path fill="#f1e9cd" d="M41 12l11 27-26-18z"/><circle cx="102" cy="43" r="5" fill="#564158"/><path fill="#cba389" d="M207.3 64.6l9-14.5 8.4 5.3-9 14.5z"/><path fill="#946359" d="M63 53l-28 9 19-13z"/><path fill="#52394f" d="M165.6 106.4l19.4 7.9-8.6 21.3-19.4-7.9z"/><path fill="#ddbd97" d="M79 130.2l-6.8-21 22.8-7.4 6.8 21z"/><path fill="#ffffdb" d="M254 18h2v4h-2z"/><path fill="#443147" d="M9.8 116.5l-10 .9 36.1 44.9 5.5-18.4z"/><path fill="#f5b9ab" d="M94 14l17-7 16 11z"/><path fill="#856a48" d="M191 0h2v29h-2z"/><path fill="#e9fcf3" d="M98 48h16v4H98z"/><path fill="#f1e2c0" d="M150 50h44v3h-44z"/><circle r="1" fill="#fff5d9" transform="matrix(-.99781 .0661 -2.36025 -35.6297 140.7 2.2)"/><path fill="#be8b73" d="M151 1h4v31h-4z"/></g></g></svg>