<svg xmlns="http://www.w3.org/2000/svg" viewBox="0 0 100 49"><defs/><filter id="a"><feGaussianBlur stdDeviation="12"/></filter><rect width="100%" height="100%" fill="#4c3c3c"/><g filter="url(#a)"><g transform="translate(.5 .5)"><circle r="1" fill="#6a9762" fill-opacity=".5" transform="matrix(25.05083 8.78215 -20.24058 57.73567 84.6 3.3)"/><path fill-opacity=".5" d="M49 22h51v4H49z"/><ellipse cx="50" cy="24" fill-opacity=".5" rx="2" ry="39"/><circle r="1" fill="#010702" fill-opacity=".5" transform="matrix(73.95294 4.52749 -.2011 3.28468 32 48)"/><path fill-opacity=".5" d="M23 0h3v49h-3zm27 24.1l11.9 3.2L47.4 9l10.4-25z"/><ellipse cx="60" cy="48" fill-opacity=".5" rx="79" ry="1"/><path fill="#000103" fill-opacity=".5" d="M86.2 58.5L115 19.1l-35.8 5.8 35.7 8.1z"/><path fill="#6e815f" fill-opacity=".5" d="M53 26h44v22H53z"/><path fill="#6e7f60" fill-opacity=".5" d="M60 0h40v23H60z"/><path fill-opacity=".5" d="M59 23h41v2H59zM41.7 64l12-51.9L51 40.2 54.4 64z"/><path fill-opacity=".5" d="M23.2 40.9l15.4 12.9 76.4-9.3L2.1 64zM103 30.4l-4.3 2.3-3.8-7 4.4-2.4zM51 5L49-5l15-1zM23 0h2v37h-2z"/><ellipse cx="25" cy="16" fill="#606462" fill-opacity=".5" rx="1" ry="22"/><circle cx="11" cy="36" r="12" fill="#4c453a" fill-opacity=".5"/><circle cx="60" cy="11" r="9" fill="#6a7e5c" fill-opacity=".5"/><path fill-opacity=".5" d="M49 7h3v42h-3zm66 57L90 50l25-20zM52 23h48v2H52z"/><circle cx="37" cy="37" r="11" fill="#4a4338" fill-opacity=".5"/><path fill="#657558" fill-opacity=".5" d="M52 25h38v22H52z"/><path fill="#687a5b" fill-opacity=".5" d="M57 47l55-16-21 16z"/><path fill-opacity=".5" d="M59.2 23.6h-7l-4.9-9.5L60 22.5zM24 39l17 22-25-11zm-27 0l-3 25h31zm91.9-16.4l12.7 6-.5.8-12.7-6z"/><path fill-opacity=".5" d="M0 48h100v1H0zM51 3l-5-19L59-1z"/><path fill-opacity=".5" d="M61.8 55.4L28.7 64 50 39.5 52.9 64z"/><path fill="#474035" fill-opacity=".5" d="M26 0h23v39H26z"/><path fill-opacity=".5" d="M24.5 55l-2-58h1l2 58z"/><ellipse cx="9" cy="18" fill="#473f35" fill-opacity=".5" rx="13" ry="30"/><path fill="#231d29" fill-opacity=".5" d="M55 25h25v1H55z"/><path fill-opacity=".5" d="M115 29l-15 26-5-9z"/><path fill="#677859" fill-opacity=".5" d="M52 27h19v21H52z"/><path fill-opacity=".5" d="M49 0h3v42h-3z"/><path fill="#414442" fill-opacity=".5" d="M99 0h1v23h-1z"/><path fill-opacity=".5" d="M115 .2l-5.5 46.4-14-20.2 19.5-14z"/><path fill="#5a6360" fill-opacity=".5" d="M22 10h1v27h-1z"/><path fill="#5a4c48" fill-opacity=".5" d="M32 45h10v3H32z"/><circle cx="89" cy="36" r="10" fill="#657658" fill-opacity=".5"/><ellipse cx="73" cy="10" fill="#667658" fill-opacity=".5" rx="21" ry="12"/><path fill-opacity=".5" d="M54 23h46v2H54zm-70 2.3L1.9 45.1 40.1 64l-31.4-.8z"/><path fill="#4a3e38" fill-opacity=".5" d="M11.6 48.9l7.1-2.6 4.9-60.7L3 45.5z"/><path fill="#e5e1e2" fill-opacity=".5" d="M2 40l-11-9-7 7z"/><path fill="#444c4e" fill-opacity=".5" d="M48 0h1v38h-1z"/><path fill-opacity=".5" d="M31 64l-6-27-11 20z"/><path fill="#667557" fill-opacity=".5" d="M52 30h46v14H52z"/><ellipse cx="23" cy="40" fill-opacity=".5" rx="1" ry="48"/><path fill-opacity=".5" d="M24 41L-3 64l41-11zm37.8-17l-.8 1.8L48.2 20l.8-1.9z"/><path fill="#637457" fill-opacity=".5" d="M57.1 1.3l53.4 22.4-55.4-3.9-3-11.5z"/><path fill-opacity=".5" d="M39 49.4l11.6-5.7.5.9-11.7 5.7zM61-5L38-16 53 4z"/><ellipse cx="49" cy="48" fill-opacity=".5" rx="3" ry="9"/><ellipse cx="35" cy="36" fill="#493e38" fill-opacity=".5" rx="10" ry="12"/><path fill-opacity=".5" d="M23 0h2v42h-2zm82.1 33l4.3 2.6L92.9 63l-4.3-2.6z"/><path fill="#657658" fill-opacity=".5" d="M52 28h34v20H52z"/><path fill-opacity=".5" d="M15 59L2 64l-8-29zm84-28h11l-14-7z"/><path fill="#647757" fill-opacity=".5" d="M98 30l-42 7 4-12z"/><path fill="#667659" fill-opacity=".5" d="M56 20l42-2-34-34z"/><circle cx="11" cy="37" r="11" fill="#4b3f3a" fill-opacity=".5"/><path fill="#484645" fill-opacity=".5" d="M25 0h1v39h-1z"/><ellipse cx="95" cy="22" fill="#4e4b4d" fill-opacity=".5" rx="34" ry="1"/><path fill-opacity=".5" d="M94 24h6v3h-6z"/><path fill="#000001" fill-opacity=".5" d="M115 41.1l-21.7 5.8-1.2 5L72.9 64z"/><path fill="none" stroke="#0b090c" stroke-opacity=".5" stroke-width=".5" d="M115 25.6q-32.9-1.3-34.2 0"/><path fill="#5a6460" fill-opacity=".5" d="M22.3-9.5l.4 19h-1l-.4-19z"/><path fill-opacity=".5" d="M49 0h3v22h-3z"/><ellipse cx="86" cy="42" fill="#647457" fill-opacity=".5" rx="12" ry="4"/><path fill-opacity=".5" d="M48 24.9l40-2.8v1l-40 2.8z"/><path fill="none" stroke="#010202" stroke-opacity=".5" stroke-width=".5" d="M49.4 5.3l5.2 19.2"/><path fill-opacity=".5" d="M57.8 24l-8.2-7.3.6-.8 8.2 7.4z"/><path fill="none" stroke="#453f3d" stroke-opacity=".5" stroke-width=".5" d="M36.6 48.8q17.7-5 6.5-17.5"/><path fill-opacity=".5" d="M48 39h3v10h-3zm-21.3 3.3l-1 1.8-4.4-2.4 1-1.8z"/><ellipse cx="40" cy="34" fill="#493e39" fill-opacity=".5" rx="8" ry="13"/><path fill-opacity=".5" d="M68-16L51-8 49 9z"/><path fill="#bbc3b8" fill-opacity=".5" d="M60-1l1 1-1-3z"/><ellipse cx="4" cy="14" fill="#493e38" fill-opacity=".5" rx="6" ry="32"/><path fill="#657658" fill-opacity=".5" d="M52 26h40v21H52z"/><path fill="none" stroke="#41463e" stroke-opacity=".5" stroke-width=".5" d="M102.4 52.5q10.1-6.1-6.7-23.8"/><path fill="#151716" fill-opacity=".5" d="M51 28h1v21h-1z"/><path fill="#4b3e34" fill-opacity=".5" d="M18 0h4v43h-4z"/><path fill-opacity=".5" d="M46 44L24 64l31-12z"/><path fill="#4d3d34" fill-opacity=".5" d="M28 45l1-58h1l-1 58z"/><path fill="#040205" fill-opacity=".5" d="M51 48h42v1H51z"/><circle cx="53" cy="25" r="1" fill="#2b2930" fill-opacity=".5"/><circle cx="59" cy="11" r="7" fill="#667757" fill-opacity=".5"/><path fill-opacity=".5" d="M16 47h16v2H16zm94-16.4l3 2.6-27 32.2-3-2.6z"/><path fill-opacity=".5" d="M.3 42.5L9.9 53l11.2-5.1-37.1 2.2z"/><path fill="#49403b" fill-opacity=".5" d="M26.5 43.9l6.4-7.7 4.6 3.9-6.4 7.7z"/><path fill="none" stroke="#465145" stroke-opacity=".5" stroke-width=".5" d="M104.4 64q-4-31.6-8-35.7"/></g></g></svg>