<svg xmlns="http://www.w3.org/2000/svg" viewBox="0 0 1400 787"><defs/><filter id="a"><feGaussianBlur stdDeviation="12"/></filter><rect width="100%" height="100%" fill="#574138"/><g filter="url(#a)"><g fill-opacity=".5" transform="translate(2.7 2.7) scale(5.46875)"><circle cx="157" cy="82" r="184" fill="#fff"/><circle r="1" fill="#783816" transform="rotate(-61.5 132.4 -6.8) scale(36.45054 82.60455)"/><circle r="1" fill="#f9f8e2" transform="matrix(-24.12124 -76.52726 83.42183 -26.29439 236.7 103.3)"/><ellipse cx="59" cy="24" fill="#f5fef8" rx="95" ry="37"/><path fill="#000520" d="M99 112h53v31H99z"/><circle r="1" fill="#effffe" transform="matrix(43.49617 -12.125 2.78088 9.97588 121.3 99)"/><ellipse cx="74" cy="75" fill="#b6552d" rx="62" ry="17"/><path fill="#fcfff9" d="M118 0h31v66h-31z"/><ellipse cx="163" cy="25" fill="#5d5847" rx="10" ry="52"/><circle r="1" fill="#958f85" transform="matrix(-23.27215 2.38177 -5.98207 -58.45064 41 21.1)"/><circle r="1" fill="#fff" transform="matrix(-19.02497 4.05612 -8.94138 -41.939 0 29.8)"/><path fill="#200900" d="M211.6 85.3l-17.5-12 37 4.7-10.3.6z"/><path fill="#fffff1" d="M179 0h15v71h-15z"/><path fill="#fff" d="M67 16h27v39H67z"/><circle r="1" fill="#f2713c" transform="matrix(-36.2978 15.88829 -4.46792 -10.20724 81.1 93.6)"/><path fill="#51606e" d="M187 88.4l23 7-5 16.2-23-7z"/><path fill="#faf3e3" d="M227 158l44-4L231-6z"/><path fill="#777e6d" d="M225 5l-39 17 46 37z"/><circle r="1" fill="#c49e73" transform="matrix(-41.4922 22.52843 -10.73238 -19.7666 56.2 141)"/><path fill="#3d0a00" d="M35 121l10-26-30 3z"/><path fill="#e3f0ee" d="M96 90h81v18H96z"/><ellipse cx="124" cy="112" fill="#223441" rx="21" ry="6"/><path fill="#fffff8" d="M192.6-4l42.5-6.8L237.4 4 195 10.8z"/><circle r="1" fill="#dedbd8" transform="rotate(-173.7 3.4 62.7) scale(15.35759 33.04973)"/><path fill="#9e6955" d="M104.3 73.1L93.5 62.9l15.3-44.7 1.3 21.6z"/><path fill="#9e998a" d="M166.1 84.9l22.4-21.4-54.4-61.3 28.2 57.1z"/><path fill="#74250d" d="M57 57L36 67l38 6z"/><circle r="1" fill="#fbd9b7" transform="matrix(-9.8133 -21.59692 51.01971 -23.18254 190 142)"/><circle cx="81" cy="70" r="7" fill="#c1e3e2"/><circle r="1" fill="#fff" transform="matrix(3.2504 35.0383 -14.12444 1.31029 3.8 29)"/><path fill="#5d6a6b" d="M238 28h4v32h-4z"/><circle r="1" fill="#0b1e20" transform="matrix(-9.77212 12.06757 -21.90258 -17.73636 122.3 141.9)"/><path fill="#383c2f" d="M169 5h11v14h-11z"/><circle r="1" fill="#bcd2c4" transform="matrix(7.25176 4.34009 -2.706 4.52138 54.2 76.7)"/><path fill="#faffff" d="M128.9 36.3l26 5.6-18.4 19.7-26.6-5.4z"/><circle r="1" fill="#262a2b" transform="matrix(-6.7673 1.26173 -1.1249 -6.03339 201.6 26)"/><circle r="1" fill="#e3edec" transform="matrix(18.27931 8.06214 -6.2506 14.17202 160 102)"/><path fill="#989895" d="M-16 79l54-12.5 26.6-25.8-71.4 25.7z"/><path fill="#7d351c" d="M74 50v30H62z"/><circle r="1" fill="#fff" transform="matrix(-8.16873 -24.98046 13.65523 -4.46533 81.1 35.3)"/><path fill="#cbc5b0" d="M180.8 80l-98 28.6 13.5 13.9 44.1-58.7z"/><path fill="#e85f26" d="M142.7 76.8l-32.9 2.3-.5-8 32.9-2.2z"/><path fill="#612213" d="M9 72h20v15H9z"/><path fill="#7f7c69" d="M247.2 79.3l16.5-.3 7.3-40-25.6 37.1z"/><path fill="#d4f2f3" d="M28 88h13v6H28z"/><circle r="1" fill="#676665" transform="matrix(-4.16997 25.54535 -2.65416 -.43326 223.1 60)"/><circle r="1" fill="#f3fbf2" transform="rotate(-178.4 116.4 9.8) scale(4.00926 38.84934)"/><path fill="#a9a7a3" d="M112 17L98 58l-8-74z"/><path fill="#180000" d="M177 69l-5 4-14-4z"/><path fill="#fff" d="M194 15l-21 35 16 2z"/><path fill="#d2ebfc" d="M227 113l3-27-45-4z"/><path fill="#bd4e23" d="M42.3 117.9L38 93.3 55.7 90l4.3 24.6z"/><path fill="#7e7a47" d="M238 0h15v16h-15z"/><path fill="#ced2c7" d="M32 0h24v36H32z"/><path fill="#42433c" d="M155.8 68h-2l2.4-68h2z"/><path fill="#c0c0ab" d="M206 13h23v24h-23z"/><circle cx="187" cy="7" r="4" fill="#735e34"/><path fill="#00000a" d="M104 35h5v7h-5z"/><path fill="#afb99a" d="M137 4h17v22h-17z"/><path fill="#dbd7ca" d="M171 10h3v50h-3z"/><path fill="#fff" d="M241.5 42.2l3-24.9 4 .5-3 24.9z"/><path fill="#503626" d="M197 76h24v6h-24z"/><circle r="1" fill="#9d9fa1" transform="matrix(-3.68592 -6.61453 14.02653 -7.81622 204.1 104)"/><path fill="#9c9b90" d="M194 34h24v13h-24z"/><path fill="#ac8c6c" d="M70.3 121.7l-55.6-4.8 24.7 37.9 73 .1z"/><ellipse cx="127" cy="117" fill="#3f4951" rx="23" ry="11"/><path fill="#a9a195" d="M221 64l22 16-46-8z"/><path fill="#f0e8d4" d="M226 68l-26-22 21 2z"/><path fill="#f5f5e9" d="M230 14h10v30h-10z"/><path fill="#ac5230" d="M106.1 67.6l3.3-10.6-36 6.2-6.3 2.3z"/><path fill="#d76c3c" d="M53 93h42v12H53z"/><path fill="#5d493d" d="M73 40h1v38h-1z"/><circle r="1" fill="#d6b38f" transform="matrix(6.78105 -7.24639 9.77565 9.14789 164.5 137.6)"/><path fill="#3e322c" d="M160 23h4v27h-4z"/><path fill="#474a3b" d="M175 29h4v15h-4z"/><path fill="#b4cbcd" d="M-1.9 92.1l.2-1L27.9 96l-.2 1z"/><path fill="#faffff" d="M178 32h15v19h-15z"/><path fill="#553227" d="M44.5 120.9L42 100.2l-31.8-5.8 4.7 10.5z"/><path fill="#fafeff" d="M79.2 60.8L64-10.6l10.8-2.2L90 58.6z"/><path fill="#c9b7a9" d="M164 0h3v69h-3z"/><ellipse cx="169" cy="12" fill="#4f4b43" rx="3" ry="33"/><path fill="#e9ebe8" d="M156.2 126.3l35.2-17.1-5.6-4.6-39.7 3.1z"/><path fill="#919798" d="M108 60h20v9h-20z"/><path fill="#767457" d="M229.8 2.1L221 28.3l2.2-1.4-6.6-18z"/><path fill="#e3e4cd" d="M171.6 26.3l17.6 5.6 5.6-14.4-22.3 2.4z"/><path fill="#919389" d="M68 64l-9-23-9 16z"/><path fill="#cacdc7" d="M97.9 114.8l61.5-25.6-37.1-3.7-29.9 6.1z"/><circle r="1" fill="#d6dcd3" transform="rotate(73.9 29.6 161.8) scale(4.58189 32.56918)"/><path fill="#46554a" d="M241 17h2v20h-2z"/><path fill="#fff" d="M-16 52l26-68 8 76z"/><path fill="#e8eee5" d="M84.8 113.1l11.4 5.6 3.9-6-12.2-5.5z"/><path fill="#7c3a26" d="M54 61l-31 7L9 92z"/><circle r="1" fill="#fffffd" transform="matrix(-.60795 1.80504 -22.1999 -7.47704 135.9 105)"/><path fill="#767e7a" d="M247.7 52.2l11.3 34-13.5-33.7 5.1-66.7z"/><path fill="#121512" d="M162 4l-25-16 38-4z"/><path d="M212 83l-2-3-4 2z"/><path fill="#ffffec" d="M190 60l-3 20 13-21z"/><path fill="#7d8179" d="M-14.3 108l9.8-37.8 14.8-4.7L9 89.3z"/><ellipse cx="208" cy="1" fill="#ffffe9" rx="14" ry="7"/><path fill="#956f54" d="M70 53h7v15h-7z"/></g></g></svg>