<svg xmlns="http://www.w3.org/2000/svg" viewBox="0 0 1400 787"><defs/><filter id="a"><feGaussianBlur stdDeviation="12"/></filter><rect width="100%" height="100%" fill="#4d5a49"/><g filter="url(#a)"><g fill-opacity=".5" transform="translate(2.7 2.7) scale(5.46875)"><circle cx="169" cy="99" r="212" fill="#fff"/><circle r="1" fill="#fff" transform="rotate(-132 129.2 -18.9) scale(84.23236 62.00712)"/><circle r="1" fill="#9c0000" transform="matrix(73.9146 -.82013 .17055 15.37084 136.8 121.4)"/><circle r="1" fill="#52754b" transform="matrix(16.64442 -29.21386 49.84478 28.39876 108.4 38)"/><ellipse cx="50" cy="102" fill="#ffdee6" rx="30" ry="60"/><ellipse cx="187" cy="139" fill="#fff" rx="234" ry="5"/><path fill="#7f0000" d="M37 124h177v10H37z"/><circle r="1" fill="#fff3f0" transform="matrix(-42.44087 -70.35503 27.63421 -16.67002 215.6 76.5)"/><ellipse cx="125" cy="90" fill="#ffc5c4" rx="77" ry="14"/><circle r="1" fill="#c0e1e4" transform="rotate(-83.3 36.1 9) scale(27.70944 47.98571)"/><path fill="#434e3d" d="M54 79.3l56.2-27.5 46.7 22.6-32-2.8z"/><ellipse cx="72" cy="17" rx="2" ry="59"/><circle r="1" fill="#661b10" transform="matrix(-.02285 -13.8273 34.67794 -.0573 126 121)"/><circle r="1" fill="#ee785c" transform="rotate(113.6 50.3 111.1) scale(11.15984 42.29256)"/><ellipse cx="8" cy="98" fill="#8c7169" rx="16" ry="29"/><ellipse cx="92" cy="96" fill="#170000" rx="2" ry="29"/><circle r="1" fill="#f9fefb" transform="matrix(-65.75762 55.7235 -5.55266 -6.55253 17.9 132.9)"/><ellipse cx="180" cy="54" fill="#dfd6d7" rx="24" ry="57"/><path fill="#19252c" d="M25.6 44l-.2 5-25-1 .2-5z"/><path fill="#b2c99e" d="M103.1 65.8l-19.9.1L73.2 8l6.2-24z"/><circle r="1" fill="#fd8179" transform="matrix(-4.5262 -7.421 26.37809 -16.0885 61.4 118.2)"/><path fill="#142017" d="M150 45h3v69h-3z"/><circle r="1" fill="#4a6f4a" transform="matrix(-26.12587 40.14596 -7.07987 -4.60739 126.4 18.3)"/><path fill="#c9d5c3" d="M126 57l1-27 36 5z"/><path fill="#7ab09f" d="M26 0h44v45H26z"/><path fill="#ab988c" d="M186 45h12v43h-12z"/><path fill="#000519" d="M155 0h2v67h-2z"/><path fill="#b43e3d" d="M48.8 135.8L22 133.9l86.2-20.2-15.1 20.8z"/><path fill="#3b0000" d="M105 91h41v2h-41z"/><ellipse cx="37" cy="56" fill="#efe7ee" rx="35" ry="10"/><ellipse cx="199" cy="140" fill="#fff" rx="57" ry="5"/><ellipse cx="124" cy="80" fill="#fdffff" rx="20" ry="4"/><circle cx="6" cy="30" r="16" fill="#d4f4f8"/><circle r="1" fill="#f7decd" transform="matrix(51.80256 102.87646 -32.43326 16.3315 255 39.3)"/><ellipse cx="176" cy="64" fill="#fff" rx="11" ry="25"/><path fill="#28231a" d="M156.2 74.8l-40.9-3.6.5-6 40.9 3.6z"/><path fill="#f5ffff" d="M48 70l15 33 18-21z"/><path fill="#553c2a" d="M160.3 90.8l4.4-31.7 1 .1-4.4 31.7z"/><circle r="1" fill="#ee7a64" transform="matrix(.25795 4.83667 -25.42628 1.35606 119.6 105.2)"/><path fill="#c12a25" d="M191.3 131.3L74.6 114.8l136.9 7.3 10.8 14z"/><circle r="1" fill="#fcfafb" transform="matrix(34.66882 22.77316 -9.03124 13.74875 228 115.4)"/><path d="M70 0h4v44h-4z"/><path fill="#a59d72" d="M119 158l27-25-41-1z"/><path fill="#fff9f8" d="M93.7 97.7l-1.3-25 8-.4 1.2 25z"/><path fill="#6c430c" d="M25 118l-34 12-7-10z"/><path fill="#aec396" d="M100 15L68-5l83 3z"/><path fill="#050001" d="M89 112h70v3H89z"/><path fill="#fff" d="M25 136h76v7H25z"/><circle r="1" fill="#405a39" transform="matrix(-16.97397 5.18913 -1.10207 -3.60495 115.7 47.8)"/><path fill="#e8e6f1" d="M157 0h5v78h-5z"/><path fill="#aba7a4" d="M35 112l-46 8 43-53z"/><path fill="#ece1da" d="M42 109l-58 29 41 13z"/><path fill="#582821" d="M122 71h2v31h-2z"/><path fill="#fea986" d="M174.6 112.9l12.3 8.7 16.4-3.9-28.7-30.9z"/><path fill="#558063" d="M71 73l12-9-12-20z"/><path fill="#e9ffff" d="M59 45h11v27H59z"/><ellipse cx="115" cy="72" fill="#d8b894" rx="11" ry="3"/><path fill="#070000" d="M134.5 68.3l-45 2.4v-1l45-2.4z"/><path fill="#52654e" d="M120.8 42.8l-56.4-9.4 38.3 11.2 25.2 32.1z"/><path fill="#d1dbcf" d="M127 33.1l28.1 2.7-49.5 1.8 18.5 4.4z"/><path fill="#2f4c34" d="M156.3 52.2l-21.3-1 15.7 8.9 4.3 7.8z"/><ellipse cx="120" cy="129" fill="#573434" rx="37" ry="6"/><path fill="#6f917c" d="M34.4 46.5L120 39l-61.8 2.9 8.6-30.6z"/><path fill="#b7d7a0" d="M86.2 44.9l-12.6 7.2 18.8 12.1 9.4-19.3z"/><path fill="#456148" d="M139.4 27.6L128 31.3l-7.4-22.9L132 4.7z"/><path fill="#7e7271" d="M0 71h23v23H0z"/><path fill="#c3c4c7" d="M157 0h21v28h-21z"/><path fill="#75332b" d="M137.4 120.5h-1l2.2-43h1z"/><path fill="#748a50" d="M77.7 8.6l31.2 15.9-4.6 8.9-31.2-15.9z"/><path fill="#6a3836" d="M146 70.5l1 .2-3 20.8-1-.2z"/><ellipse cx="156" cy="86" fill="#fff4f5" rx="3" ry="11"/><path fill="#b9938d" d="M84 68h4v33h-4z"/><path fill="#cf592b" d="M193 121l-45-1 7-12z"/><ellipse cx="2" cy="47" fill="#101312" rx="18" ry="2"/><path d="M91 70h2v34h-2z"/><path fill="#fff" d="M135.7 77.1l-.4 13.8-18.5-12.1-7.6 12.3z"/><path fill="#ccdadc" d="M144 58l12 8-10-1z"/><ellipse cx="4" cy="11" fill="#b9dbd2" rx="17" ry="36"/><path fill="#c5b7ba" d="M0 70l-16-28 72 28z"/><ellipse cx="154" cy="58" fill="#212e31" rx="2" ry="14"/><path fill="#4e0000" d="M103 78h1v16h-1z"/><path fill="#a8c8c4" d="M51.5-12.5h17v27h-17z"/><path fill="#577663" d="M47 14.4l23.6 5.9-12.5 12.3-1.8-7.9z"/><path fill="#965950" d="M108 73h2v39h-2z"/><path fill="#b12e2b" d="M92 114l-41 20 71-10z"/><path fill="#5b7650" d="M74 38.5l7-3.6 4.9-2.9-4.5 20.1z"/><path fill="#fffcf6" d="M144 135h112v8H144z"/><path fill="#7f8355" d="M31 133h171v2H31z"/><path fill="#fdc9c1" d="M110 94h40v9h-40z"/><path fill="#b6847e" d="M159 79h8v22h-8z"/><circle r="1" fill="#f7fdff" transform="matrix(4.54063 -36.1738 5.61261 .70451 181 48)"/><path fill="#e37653" d="M74.8 122.9l-1.8-6.3 16.3-10.5 4.8 14.5z"/><path fill="#e8dfd8" d="M2 158l-18-30 60-6z"/><path fill="#fff6f2" d="M63 77h17v30H63z"/><path fill="#c0d2c8" d="M74 28h22v5H74z"/><path fill="#c9cdd1" d="M49.4 67.4l-36.9 53.7L62 91.9l.9-38.3z"/><path fill="#948d80" d="M169.7 82L93.8 71.4l26.3-2.1-10.8-4.2z"/><path fill="#9db592" d="M151 53l-12-66 17 15z"/><path fill="#77946b" d="M148 11h-27L91-12z"/><path fill="#cacfca" d="M151 57l7 4-2-4z"/></g></g></svg>